<svg xmlns='http://www.w3.org/2000/svg' viewBox='0 0 30 30' fill='none'>
<symbol id='AC'>
<path fill-rule="evenodd" clip-rule="evenodd" d="M24.1112 15.4451H5.8888C4.29946 15.4451 3 14.1557 3 12.5563V5.88905C3 4.29971 4.29946 3.00024 5.8888 3.00024H24.1112C25.7005 3.00024 27 4.28971 27 5.88905V12.5563C27 13.316 26.7101 14.0457 26.1703 14.5855C25.6206 15.1352 24.9009 15.4351 24.1212 15.4351L24.1112 15.4451ZM5.8888 4.90946C5.34902 4.90946 4.9092 5.34928 4.9092 5.88905V12.5563C4.9092 13.0961 5.34902 13.5359 5.8888 13.5359H24.1212C24.3811 13.5359 24.631 13.4359 24.8109 13.246C24.9908 13.0661 25.0908 12.8162 25.0908 12.5663V5.88905C25.0908 5.34928 24.651 4.90946 24.1112 4.90946H5.8888ZM22.6017 11.4176H7.38808C6.8583 11.4176 6.43848 10.9876 6.43848 10.4676C6.43848 9.94758 6.8683 9.51758 7.38808 9.51758H22.6017C23.1315 9.51758 23.5513 9.94758 23.5513 10.4676C23.5513 10.9876 23.1215 11.4176 22.6017 11.4176ZM11.5815 27.0002L11.5865 27.0002H11.5765L11.5815 27.0002ZM12.0963 26.8503C11.9379 26.9493 11.7598 26.9993 11.5815 27.0002C11.2733 26.9986 10.9658 26.8488 10.7869 26.5704C10.7169 26.4705 9.17753 24.0415 10.7469 21.1626C11.7565 19.3034 10.8168 17.7541 10.7769 17.6941C10.497 17.2543 10.6269 16.6645 11.0667 16.3846C11.5066 16.1047 12.0863 16.2247 12.3762 16.6645C12.4462 16.7645 13.9855 19.1935 12.4162 22.0723C11.3866 23.9715 12.3662 25.5209 12.3762 25.5308C12.6661 25.9707 12.5361 26.5604 12.0963 26.8503ZM14.975 27.0002C14.6651 27.0002 14.3652 26.8503 14.1853 26.5704C14.1153 26.4705 12.576 24.0415 14.1453 21.1626C15.1549 19.3034 14.2153 17.7541 14.1753 17.6941C13.8954 17.2543 14.0254 16.6645 14.4652 16.3846C14.905 16.1047 15.4848 16.2247 15.7746 16.6645C15.8446 16.7645 17.384 19.1935 15.8146 22.0723C14.8248 23.8952 15.7087 25.4106 15.7813 25.5351L15.7846 25.5408C16.0645 25.9807 15.9346 26.5704 15.4948 26.8503C15.3348 26.9503 15.1549 27.0002 14.985 27.0002H14.975ZM17.624 26.5704C17.8039 26.8503 18.1038 27.0002 18.4137 27.0002H18.4237C18.5936 27.0002 18.7735 26.9503 18.9335 26.8503C19.3733 26.5704 19.5032 25.9807 19.2233 25.5408C19.2226 25.5395 19.2214 25.5376 19.22 25.5351C19.1474 25.4106 18.2635 23.8952 19.2533 22.0723C20.8227 19.1935 19.2833 16.7645 19.2134 16.6645C18.9235 16.2247 18.3437 16.1047 17.9039 16.3846C17.4641 16.6645 17.3341 17.2543 17.614 17.6941C17.654 17.7541 18.5936 19.3034 17.584 21.1626C16.0147 24.0415 17.554 26.4705 17.624 26.5704Z" fill="currentColor"/>
</symbol>
</svg>
