<svg xmlns='http://www.w3.org/2000/svg' viewBox='0 0 696 830' fill='none'><symbol id='ALBC_EC_Outline'>
  <g fill="#1E2346">
    <path d="m456.3 142.6-2-3-36.3-38.2-29.2-31.2-11-11L350.4 32c-2-2-2-2-5 0L295 83.3l-10 11-26.3 29.2-22.1 22.1-2 3 3-2c10-6 21.1-12 32.2-16l25.2-10.1c14.2-5 29.3-7 44.3-6h19.2c11-1 22.1 0 32.2 3 21.6 6 42.4 14.2 62.5 24.1l3 1M235.6 674.3h-1v1l2 1 8.1 9 22.2 23.2 19.1 21.1 17.2 19 18 21.2 12.2 13 12 13.1 1 2h3.1l1-2 13.1-13 11.1-12 23.2-26.2a1128 1128 0 0 1 45.3-50.3l11.1-12 2-2v-1h-1l-3 2a162 162 0 0 1-58.5 19l-32.2 4h-29.2l-36.3-6a157.6 157.6 0 0 1-58.4-23l-2-1M547 580.7l1-1 9-10 41.4-53.3 46.3-61.3 23.2-28.1 5-7v-2l-5-5.1-15.1-19.1a1063.9 1063.9 0 0 1-50.4-68.4l-24.2-38.2-14-21L549 246l-15.1-19-3-2 1 3 10 21 14.2 36.2a323 323 0 0 1 23.1 112.6c.9 22.1.1 44.3-2 66.3l-3 26.2-4 28.1a174.8 174.8 0 0 1-21.2 58.3l-2 3 1 1M177.2 210l-1 2-15.1 17-18.2 23.2-20.1 29.1-17.1 26.2a1352.2 1352.2 0 0 1-51.4 73.3C44.2 393.8 35 407 23 418v3l5 5 25.3 30.2c22.7 28.1 44.6 56.9 65.5 86.4l28.2 36.2 12 15.1 2 2-3-6-17-35.2c-6.1-12-9.1-24.1-12.2-37.2l-5-37.2-1-16c-2-8-2-17.1-2-25.2a451.8 451.8 0 0 1 21.1-149.7l14.1-36.2c5-14.1 11.1-26.2 19.2-38.2l3-4-1-1m397 232.1v-15l-2-25.2a577.7 577.7 0 0 0-8-60.3c-2-13-6.1-27.1-11.2-40.2l-18-47.2a206.1 206.1 0 0 0-23.3-44.2c-9.1-12.6-18.6-25-28.2-37.2-5-7-12-13.1-19.1-18.1a57 57 0 0 0-21.2-13L417 131.5l-27.2-7a163.2 163.2 0 0 0-49.4-4.1h-6a149 149 0 0 0-41.3 8l-33.3 11.1-21.1 12a116.1 116.1 0 0 0-29.3 29.2L189.3 208a208.4 208.4 0 0 0-24.2 46.3l-12 31.1a857.2 857.2 0 0 0-18.2 59.3c-4 16.1-6 33.2-7 49.3l-1 14-1 17.1A286.3 286.3 0 0 0 163 581.8c11 19.1 25.2 37.2 40.3 52.3l15.1 14 18.2 16.2c19.1 14 39.3 24 62.4 29.1l20.2 4c9 2 19.1 3 28.2 3l20.1-1 5-1 35.3-7a174.8 174.8 0 0 0 73.6-42.2c11.9-12.7 23.6-25.4 35.3-38.2a266 266 0 0 0 57.5-169M348.5 22l5 4 14.1 13 22.2 20.2 16.1 14c27 25.2 52.8 51.3 77.6 78.5 17.2 20 33.3 41.2 49.4 63.3l16.1 23a399 399 0 0 0 50.4 60.3c12 14 22.2 28.1 32.2 43.2L675 412l4 7v3l-1 4a446 446 0 0 1-41.3 62.4l-24.2 32.1A678.4 678.4 0 0 1 550 591l-22 24-33.3 36.2-20.1 24.1-29.3 35.2-22.1 25.1-9.1 10-20.2 22.2-29.2 29.1-12 11-1 1.1h-6.1l-2-2-17.2-16-31.2-31.3-25.2-27-20.1-24.2-25.2-29.2-15.2-20a491.5 491.5 0 0 0-44.3-47.3L145 589.9a3949 3949 0 0 1-70.6-82.4l-23.1-30.2L26 438.1l-7-12-1.1-1v-8l9-15.2 41.4-64.3a381 381 0 0 1 34.2-45.2l20.2-24.1 20.1-25.2 35.3-47.2 28.2-36.2 21.2-23.1A993.2 993.2 0 0 1 348.5 22s-1 0 0 0Z"/>
    <path d="m516.8 426-1-21c0-10.1-1-19.2-4-28.2l-9.1-35.2c-5-19-13.1-37.2-23.2-55.3l-15.1-27-9-14.2c-8-9.1-16.4-17.9-25.3-26.1-11-7.2-22-14.3-33.2-21.1-13.1-6-27.2-10-40.3-15-5-2-10.1-2-15.2 0l-32.2 11-20.1 10c-11.2 7.9-22.3 16-33.3 24.1a456 456 0 0 0-20.2 27.2l-8 14-16.1 29.2c-6 12-11.1 25.1-15.2 38.2l-9 32.2c-3 9-4 18-5 28.1l-1 22.1c0 18.1 0 35.2 3 52.3 2 13 6 26.1 11 39.2l17.2 35.2c4 8 9 16 15 22a230.3 230.3 0 0 0 90.8 63.4l24.2 7h14l15.2-4c10-3 20.1-8 30.2-13l35.3-23.2c11-8 20.1-17 29.2-27.1 8-8 14.1-17.1 19.1-27.1l14.1-27.2a200 200 0 0 0 15.2-58.3l2-32.1m7-9-1 18a371.2 371.2 0 0 1-7 48.2c-3 12.1-7 24.2-12.1 35.2l-14.1 30.2a254 254 0 0 1-32.3 43.2c-5 6-12 12-19.1 17a267.5 267.5 0 0 1-60.5 30.2l-20.1 4-3 1h-1a162 162 0 0 1-68.6-19L268 614a134.6 134.6 0 0 1-34.3-28.2c-9.1-11.2-17.5-23-25.2-35.2l-19.1-41.2c-9-22.1-14.1-45.6-15.1-69.4a295 295 0 0 1 6-78.4c4.5-16.9 9.1-33.5 14.1-50.2a287 287 0 0 1 34.3-58.3l16.1-19.1 6-7 13.2-14 17-14.1 17.2-10 28.2-10.1 21.2-4 9 1c12.2 2 23.2 5 34.3 10l6 2L418 200c8 7 17.2 13 24.2 21.1l8 10 13.2 16.1c30.2 35 49.7 78 56.4 123.7l3 20 1 26.2"/>
    <path d="m393.8 319.5-1-3-1-1-1 1-1 1-5 10-4 5-3 6.1c-1 2-1 3 1 4l1 2c4 8 6 17.1 5 27.2l-1 4h1l1-1c4-6 5-12 5-18.1 0-5 0-10 2-15l1-22.2ZM285 470.3l21.2-1c8.8-1 17.6-2.5 26.2-5v-1l-4-9.1-3-8-1 1v1c-1 3-4.1 5-6.1 7-4 3-9.1 5-14.1 6-8.1 2-15.1 2-22.2 2l-8-2-1-2 1-4v-1h-1l-3 1c-8.2 4-17.2 6-26.3 7l-7-1-1 1h-1v1h2l18 5 9.2 1 21.1 1m121-129.6-1-13c-1-5-4.1-9-7.1-13.1l-2-1-1 2v3l1 9v15.1l-2 14.1-1 6-5.1 14.1-5 6 1 1h2c6 1 11 3 16.1 6l5 3h1c2-4 3-7 3-12l-1-6-2-9c-2-5-2-10.1-2-15.1v-10ZM340.3 391v10l1-1 1-3 1-8v-1h1l-1 7-1 6 1 1 1-1 11.2-16 6-12.1 1-2v-1 1l-3 9c-3 8-8 16.1-14.1 22.1l-3 3 3-2 2-2 5-6c3-3 6-6 10.1-7l10-4 3.1-1c3-5 4-10.1 4-16.1 1-6-1-13.1-3-19.1l-3-2h-2c-13.1 2-21.2 9-26.2 20-4 8-6 17.1-5 25.2m33.2 40.2-3-1-1 1v1c3.6 5.4 6 11.6 7 18h3l13.1-6c9.1-5 17.2-10 25.2-17l26.2-21.1c8-6 14.1-12.1 20.2-19.1l2-2-1-1-2 1-13.1 8-17.2 6c-10 4-20.1 9-27.2 17.1l-5 5c-8 7-17.1 10-27.2 10m-37.3-33-2-5.1c-2-6-4-12-8-17.1l-7.1-8-9-4c-2.1-1-4.1-2-7.1-1h-6l-12.2-3h-1c-2 3-2 5-2 8l2 8c3 6 7 11 11.1 15 6 5.1 12 9.1 19.1 10.1l4 1c4.1 1 8.1 1 11.2 3l2 1h1v-1l-2-2-10.1-8-4-2 1-1 1 1 14 10h1l-1-1-2-4-12-13-3-2v-1 1l8 6c5 4 9 8 11 15h1.1l1-6Zm40.3-7.1c-5 0-10 1-14 4l-10.2 7-9 6v1l15-1 9.1-1h2l-1 1c-7.2 1.9-14.7 3-22.1 3v1h2c6 2 13.1 1 20.2 1h7l-7 1-7.1 1.1c-6 1-12 0-18.1-2h-2v1l1 1c3 3 7 6 11 7l10.1 4c6 2 11.1 2 17.1 1 7.1-2 13.1-6 18.2-11l9-8 3-2v-2c-3-3-6-6-10-7l-15.1-5.1-9-1m-59.5 16c-6 0-7 1-10.1 2-8 3-15.1 8.1-20.2 15.1-2 2-3 6-3 9-1 7.7-3 15.2-6 22.2l1 2h9c7.1-1 12.1-2 18.2-5 7-3 13-8 16.1-15l3-6.1 7-16.1v-2h-1c-3 0-6 2-8 3-9 4-15.1 11-21.2 18l-4 7.1s-1 0 0 0a44 44 0 0 1 30.2-29.1l2-1 1-1h-1l-4-2-9-1m12 31.1c0 13 6.1 24.1 17.2 30.2l16.1 12 2-1 2-2c4-7 6-15 5-22.1l-3-11c-1-6-4-11.1-10-14.1l-6-4c-4.1-2-8.1-5-11.2-9-1-1.1-1-3.1-3-3.1v4c1 8 4 15 8 22.1l3.1 6v1h-1l-8-14a46 46 0 0 1-5.1-16V416l-1 1-3 10c-2 3-3 7-2 11.1m3 63.3c9 0 18.1-3 25.2-7l9-5c6-4 12.1-6 18.2-8l10-2a42 42 0 0 0 28.3-28.2l3-8c1-6 5-11.1 10-15.1l8.1-6 12.1-8.1c7-5 12.1-13 14.1-21.1l1-5c0-2-2-3-3-2l-2 2-5 6c-4 6-9.1 10-14.2 15l-10 10.1-16.2 10-21.1 14.1c-6 5-12.1 8-18.1 11.1l-3 2c-1 1-2 1-2 3 0 5-1 10-4.1 15.1l-8 9h-4.1c-2-3-5-5-9-7l-11.2-6-3-1-7 1-16.2 2h-6l-18.1 1h-2l-10.1 1-16.2-2-15-2-11.2-3h-2v1l11.1 11 9 5a51 51 0 0 0 20.2 8l14.1 1.1c9 .1 17.9 1.8 26.2 5l18.2 3m1 5c-8 1-15.1-1-23.2-3a72.1 72.1 0 0 0-19.1-2h-11a56.6 56.6 0 0 1-41.3-19l-4-3a36 36 0 0 1-13.2-15.2v-3c-1-2 0-4 3-3h15.2l30.2-6 3-1c3-1 3-1 4-4l1-11.1 3-8a29.4 29.4 0 0 1 20.2-20.1l2-1h1l-1-1-9-5-3-3a49.3 49.3 0 0 1-12.1-26.2c-.7-5.1 0-10.4 2-15.1 1-2 2-3 4-2l12.1 3 11.1 1c7 1 13 5 18.1 9l4 4 2-1 1-4c6.1-13 15.2-21 29.3-24l8-1 2-1c2.1-8.1 6.1-14.2 10.2-21.2 3-5 6-10 7-15v-2h3l13.1 12c4 5 6 11 7 18v16.2c-1 6 0 11 1.1 16l2 10c1 8.1 0 15.2-2 22.2l-1 2 2 2h3c11-7 22.9-12.3 35.3-16a79 79 0 0 0 19.1-10.1l2 1 1 2c1 9 1 17.1-1 25.1-2 6-5 10-9 15.1l-10 8-10.2 6-3 2a26 26 0 0 0-12 15.2l-4.1 7a57 57 0 0 1-29.2 28.1l-29.3 14.1a66.8 66.8 0 0 1-34.2 8m116.9 6h-1l-11.1-3a73.3 73.3 0 0 0-52.4 17l-18.2 18.3-16 16-16.2 8h-20.2a57.5 57.5 0 0 1-33.2-23v-1h1l4 3 21.2 9c12 3 24.2 1 35.3-6l18.1-13c7-6.1 15.1-12.1 24.2-17.2 10-6 20.1-10 32.2-12a53.6 53.6 0 0 1 31.3 3l1 1M240.7 372.8c0-10 0-19.1 3-27.2a86.6 86.6 0 0 1 45.4-59.3c10-5.3 20.4-9.7 31.2-13l9-5c5-4 9.1-9 9.1-17.1l1-1h1l1 1 2 7c1 7-2 13-7 19.1-4 5-9 8-15.1 11l-18.1 6-17.2 6.1a65.2 65.2 0 0 0-38.3 37.2c-3 7-5 15-5 22.1l-2 18.1v2-7M451 326.5c0 .4-.3 6.9-.2 13.4-6.9.5-5.8-13.4-5.4-15 .2-1.5-4.4 1.6-6.6 3.8.7 1.3 1.7 1 3 .5-.6 6.2 3.8 11.8 9 11.7.2 6.5.9 12.6 2.7 13 .2.2.5-6.4.6-13.7 12.3-3.8 7.6-18.4 7.6-18.4-.2-.8-2 .4-6 4 1.5 1.7 2.3.6 3.5.2 1 2 1.4 10.6-5.1 13.2l.3-18c0-.3-.2-.4-.4-.4-1.8.2-5 3.4-7.6 6.1 1.5 2.3 3.2.3 4.6-.4m6 19.2 2.7 2.9 2.9-2.9-2.9-2.8-2.8 2.8Z"/>
  </g>
</symbol></svg>
