<svg xmlns='http://www.w3.org/2000/svg' viewBox='0 0 30 30' fill='none'>
<symbol id='AllInclusive'>
<g clip-path="url(#clip0_3100_4775)">
<path fill-rule="evenodd" clip-rule="evenodd" d="M21.0697 17.1H17.9261C16.3794 17.1 14.9331 16.27 14.1497 14.93L12.5829 12.22C11.8096 10.88 11.8096 9.22 12.5829 7.88L14.1497 5.17C14.9231 3.83 16.3694 3 17.9261 3H21.0697C22.6164 3 24.0627 3.83 24.8461 5.17L26.4129 7.88C27.1863 9.22 27.1863 10.88 26.4129 12.22L24.8461 14.93C24.0728 16.27 22.6265 17.1 21.0697 17.1ZM17.9261 5C17.0925 5 16.3091 5.45 15.8873 6.17L14.3205 8.88C13.8986 9.6 13.8986 10.5 14.3205 11.23L15.8873 13.94C16.3091 14.66 17.0925 15.11 17.9261 15.11H21.0697C21.9134 15.11 22.6868 14.66 23.1086 13.94L24.6754 11.23C25.0972 10.51 25.0972 9.61 24.6754 8.88L23.1086 6.17C22.6868 5.45 21.9034 5 21.0697 5H17.9261ZM19.1715 13.1698C18.9304 13.1698 18.6894 13.0798 18.4986 12.9098L16.5903 11.1898C16.1785 10.8198 16.1484 10.1898 16.52 9.77979C16.8916 9.36979 17.5243 9.33979 17.9361 9.70979L19.061 10.7198L21.0095 8.31979C21.3509 7.88979 21.9837 7.82979 22.4156 8.16979C22.8474 8.51979 22.9077 9.13979 22.5662 9.56979L19.9549 12.7898C19.7841 12.9998 19.533 13.1298 19.2518 13.1598H19.1715V13.1698ZM23.9624 18.2295C25.1174 17.8395 26.3729 18.4295 26.8248 19.5495L26.8349 19.5395C27.2768 20.6495 26.8048 21.8895 25.7401 22.4295C23.1891 23.7095 18.4887 25.9895 15.7769 26.7795C15.2446 26.9395 14.7525 26.9995 14.2804 26.9995C12.7294 26.9995 11.4539 26.2939 10.3761 25.6976L10.3434 25.6795C9.79096 25.3695 9.26869 25.0795 8.77656 24.9095C8.17394 24.6995 7.47089 24.7895 6.84819 25.1595L4.55826 26.5095C4.08621 26.7895 3.47356 26.6295 3.19234 26.1595C2.91112 25.6895 3.07181 25.0795 3.54386 24.7995L5.83379 23.4495C6.96872 22.7795 8.28442 22.6295 9.43943 23.0295C10.0629 23.2459 10.6508 23.5683 11.2199 23.8805C11.2559 23.9002 11.2918 23.9199 11.3276 23.9395C12.6232 24.6695 13.7582 25.2895 15.2145 24.8695C17.866 24.0995 22.8275 21.6595 24.8362 20.6495C24.9768 20.5795 25.0371 20.4095 24.9768 20.2695C24.9166 20.1195 24.7559 20.0495 24.6052 20.0995L18.3983 22.1495C17.9262 22.6995 17.2634 23.0095 16.5704 23.0095C16.2188 23.0095 15.8673 22.9395 15.5258 22.7795L10.0923 20.2395C9.59009 20.0095 9.37917 19.4195 9.61017 18.9195C9.84118 18.4195 10.4337 18.2095 10.9359 18.4395L16.3695 20.9795C16.5704 21.0695 16.8215 20.9895 16.9319 20.7995C17.0123 20.6595 16.9922 20.5295 16.9721 20.4595C16.952 20.3895 16.8918 20.2695 16.7411 20.1995L11.1971 17.5795C10.4237 17.2095 9.49969 17.2695 8.77656 17.7395L4.54822 20.4795C4.08621 20.7795 3.46351 20.6495 3.16221 20.1895C2.8609 19.7295 2.99147 19.1095 3.45347 18.8095L7.68181 16.0695C8.97743 15.2295 10.6547 15.1195 12.0508 15.7795L17.5948 18.3995C18.2175 18.6895 18.6795 19.2295 18.8804 19.8695V19.8995L23.9624 18.2295Z" fill="currentcolor"/>
</g>
<defs>
<clipPath id="clip0_3100_4775">
<rect width="30" height="30" fill="white"/>
</clipPath>
</defs>
</symbol>
</svg>
