<svg xmlns="http://www.w3.org/2000/svg" viewBox="0 0 30 30" fill="none">
<symbol id="AllInclusiveDefault">
<path fill="currentColor" fill-rule="evenodd" d="M22.73 3c.35 0 .68.14.9.37.5.5.5 1.35 0 1.85l-8.54 8.75-.03.04c.2-.02.41 0 .6.03.75.13 1.25.65 1.53 1.04.24.33.54.87.52 1.54a2.5 2.5 0 0 1-1.11 1.93l-.28.22 1.33.45c.34-.47.76-.96 1.21-1.39a6.4 6.4 0 0 1 1.18-.9c.41-.23.92-.43 1.46-.43.76 0 1.6.1 2.11.77l.12.18.23-.07a2.45 2.45 0 0 1 3.17 2.8l-.08.42c-.07.36-.21.7-.42 1l-.58.87a8.1 8.1 0 0 1-3.72 3.03l-1.17.46a11 11 0 0 1-4.09.8H10a3 3 0 0 1-1.15-.24A1 1 0 0 1 8 27H4a1 1 0 0 1-1-1v-7a1 1 0 0 1 1-1h4a1 1 0 0 1 1 .98l.18-.05a.87.87 0 0 0 .45-.28l2.64-3.08.02-.03a6.1 6.1 0 0 1 1.64-1.21 1.25 1.25 0 0 1-.64-.36L8.38 8.95a1.33 1.33 0 0 1 0-1.85 1.26 1.26 0 0 1 1.8 0l4.01 4.09 7.64-7.82c.23-.24.56-.37.9-.37ZM7 20v5H5v-5h2Zm2 3.75v-2.04c0-.4.27-.75.66-.84.58-.15 1.1-.47 1.49-.92l2.58-3.02c1.02-1 1.53-.93 1.59-.92l.06.03c.05.05.12.11.2.21.1.16.13.27.13.32 0 .02 0 .05-.03.1s-.1.15-.28.28a13.47 13.47 0 0 0-2.47 2.45 4.67 4.67 0 0 0-.61 1.03.97.97 0 0 0 0 .56 1 1 0 0 0 1.07.7.93.93 0 0 0 .46-.16 3.44 3.44 0 0 0 .4-.37l.64-.7.04-.05 2.82.96c1.85.63 3.91.13 5.29-1.24a3 3 0 0 1 1.17-.73l.38-.13a.45.45 0 0 1 .58.52l-.08.42a.8.8 0 0 1-.12.28l-.58.87a6.1 6.1 0 0 1-2.8 2.28l-1.17.47a9 9 0 0 1-3.35.64H10a1 1 0 0 1-1-1Zm10.93-4.16a3.17 3.17 0 0 0 1.7-.88l.2-.2-.33-.01c-.06 0-.2.03-.46.17a4.43 4.43 0 0 0-1.1.92Z" clip-rule="evenodd"/>
</symbol>
</svg>
