<svg xmlns='http://www.w3.org/2000/svg' viewBox='0 0 30 30' fill='none'>
<symbol id='AmazingFamily'>
<path fill-rule="evenodd" clip-rule="evenodd" d="M20.8142 4.86C21.3278 4.86 21.7442 4.44362 21.7442 3.93C21.7442 3.41638 21.3278 3 20.8142 3C20.3005 3 19.8842 3.41638 19.8842 3.93C19.8842 4.44362 20.3005 4.86 20.8142 4.86ZM16.4041 3.71006L16.8341 5.05006C16.9041 5.25006 17.0841 5.39006 17.2941 5.39006H18.7041C19.1741 5.39006 19.3741 6.00006 18.9941 6.27006L17.8541 7.10006C17.6841 7.22006 17.6141 7.45006 17.6741 7.65006L18.1041 8.99006C18.2541 9.44006 17.7341 9.81006 17.3541 9.54006L16.2141 8.71006C16.0441 8.59006 15.8141 8.59006 15.6441 8.71006L14.5041 9.54006C14.1241 9.82006 13.6041 9.44006 13.7541 8.99006L14.1841 7.65006C14.2541 7.45006 14.1841 7.23006 14.0041 7.10006L12.8641 6.27006C12.4841 5.99006 12.6741 5.39006 13.1541 5.39006H14.5641C14.7741 5.39006 14.9641 5.25006 15.0241 5.05006L15.4541 3.71006C15.6041 3.26006 16.2341 3.26006 16.3841 3.71006H16.4041ZM10.9341 9.55004C11.4201 9.55004 11.8141 9.15605 11.8141 8.67004C11.8141 8.18403 11.4201 7.79004 10.9341 7.79004C10.4481 7.79004 10.0541 8.18403 10.0541 8.67004C10.0541 9.15605 10.4481 9.55004 10.9341 9.55004ZM26.1541 9.86002C26.1541 10.1859 25.89 10.45 25.5641 10.45C25.2383 10.45 24.9741 10.1859 24.9741 9.86002C24.9741 9.53417 25.2383 9.27002 25.5641 9.27002C25.89 9.27002 26.1541 9.53417 26.1541 9.86002ZM24.384 8.61992C24.254 8.61992 24.114 8.57992 23.994 8.50992C23.654 8.29992 23.544 7.84992 23.764 7.49992C24.884 5.69992 25.804 5.23992 25.984 5.16992C26.354 5.00992 26.784 5.18992 26.944 5.55992C27.094 5.92992 26.934 6.34992 26.574 6.50992C26.534 6.52992 25.874 6.88992 25.014 8.26992C24.874 8.48992 24.634 8.60992 24.394 8.60992L24.384 8.61992ZM5.5341 8.66995C5.6741 8.88995 5.9141 9.00995 6.1541 9.00995V9.01995C6.2941 9.01995 6.4241 8.98995 6.5441 8.90995C6.8841 8.68995 6.9841 8.23995 6.7741 7.89995C5.33174 5.58223 4.14665 5.03569 4.00624 4.97093L4.0041 4.96995C3.6441 4.81995 3.2241 4.98995 3.0641 5.34995C2.9041 5.70995 3.0641 6.13995 3.4241 6.30995C3.4341 6.30995 4.3441 6.75995 5.5341 8.66995ZM21.784 8.85996C21.654 8.85996 21.514 8.81996 21.394 8.73996C21.054 8.51996 20.954 8.06996 21.174 7.72996C21.474 7.25996 22.254 5.99996 22.724 5.22996C22.934 4.88996 23.384 4.77996 23.724 4.98996C24.064 5.19996 24.174 5.64996 23.964 5.98996C23.8055 6.24423 23.6143 6.55412 23.4181 6.87209L23.418 6.87222L23.4179 6.87235L23.4176 6.87284C23.0198 7.51753 22.6016 8.19529 22.394 8.50996C22.254 8.72996 22.024 8.84996 21.774 8.84996L21.784 8.85996ZM7.51409 9.61996C7.59409 9.95996 7.89409 10.18 8.22409 10.18V10.17C8.27409 10.17 8.33409 10.16 8.39409 10.15C8.79409 10.06 9.03409 9.65996 8.93409 9.26996C8.36919 6.9714 8.88571 5.07126 8.92222 4.93692L8.92409 4.92996C9.03409 4.53996 8.82409 4.13996 8.43409 4.01996C8.05409 3.90996 7.64409 4.11996 7.52409 4.50996C7.49409 4.59996 6.83409 6.83996 7.51409 9.61996ZM22.5841 18.35C24.2541 18.35 25.7041 19.54 26.0441 21.18L26.0241 21.17L26.9541 25.79C27.0641 26.33 26.7141 26.86 26.1741 26.97C26.1041 26.99 26.0441 26.99 25.9741 26.99C25.5041 26.99 25.0941 26.67 24.9941 26.19L24.0641 21.57C23.9241 20.86 23.2941 20.34 22.5641 20.34H22.5541H22.1741C21.6241 20.34 21.1741 19.9 21.1741 19.35C21.1741 19.1 21.2741 18.88 21.4241 18.7C21.1441 18.77 20.8541 18.82 20.5541 18.82C20.2341 18.82 19.9241 18.76 19.6241 18.68C19.7841 18.86 19.8841 19.09 19.8841 19.35C19.8841 19.9 19.4341 20.34 18.8841 20.34H18.5141C18.3441 20.35 18.1441 20.37 17.9641 20.44H17.9241C17.7041 21.05 17.3041 21.57 16.7741 21.94H16.8741C17.0841 21.97 17.2741 22.04 17.4641 22.11C17.6241 21.79 17.9541 21.56 18.3441 21.56H21.8041C22.7541 21.56 23.5641 22.2 23.7941 23.12L24.3541 25.79C24.4541 26.34 24.1041 26.86 23.5641 26.97C23.4941 26.99 23.4241 26.99 23.3641 26.99C22.8941 26.99 22.4741 26.66 22.3841 26.18L21.8341 23.56H19.0741C19.2041 23.81 19.3041 24.07 19.3641 24.35L19.6841 25.76C19.8041 26.3 19.4641 26.84 18.9241 26.96C18.8541 26.98 18.7741 26.98 18.7041 26.98C18.2541 26.98 17.8341 26.67 17.7341 26.2L17.4141 24.77C17.3241 24.32 16.9741 23.98 16.5441 23.91C15.9941 23.81 15.6341 23.3 15.7241 22.75C15.7541 22.59 15.8241 22.46 15.9041 22.34C15.6141 22.43 15.3241 22.49 15.0141 22.49C14.7041 22.49 14.4041 22.43 14.1241 22.34C14.2141 22.46 14.2741 22.6 14.3041 22.75C14.3941 23.3 14.0241 23.82 13.4841 23.91C13.0541 23.99 12.7141 24.32 12.6241 24.75L12.3041 26.2C12.2041 26.66 11.7941 26.98 11.3341 26.98C11.2641 26.98 11.1841 26.98 11.1141 26.96C10.5741 26.84 10.2341 26.3 10.3541 25.76L10.6741 24.33C10.9141 23.12 11.9141 22.15 13.1541 21.94H13.2541C12.7241 21.57 12.3241 21.04 12.1041 20.42C11.9541 20.37 11.7841 20.34 11.6141 20.34H11.2441C10.6841 20.39 10.2341 19.9 10.2341 19.35C10.2341 19.09 10.3341 18.86 10.4941 18.68C10.1941 18.77 9.87409 18.83 9.54409 18.83C9.23409 18.83 8.93409 18.78 8.64409 18.7C8.79409 18.88 8.89409 19.11 8.89409 19.36C8.89409 19.91 8.44409 20.35 7.89409 20.35H7.52409C6.80409 20.34 6.15409 20.86 6.00409 21.58L4.97409 26.22C4.87409 26.68 4.46409 27 4.00409 27C3.93409 27 3.85409 27 3.78409 26.98C3.24409 26.86 2.90409 26.32 3.02409 25.78L4.04409 21.16C4.37409 19.54 5.83409 18.35 7.50409 18.35H7.53409H7.79409C6.73409 17.74 6.01409 16.61 6.01409 15.3C6.01409 13.35 7.59409 11.76 9.54409 11.76C11.4941 11.76 13.0741 13.35 13.0741 15.3C13.0741 16.61 12.3541 17.74 11.2941 18.35H11.5941C11.7641 18.35 11.9341 18.37 12.0941 18.39C12.5241 17.17 13.6641 16.29 15.0241 16.29C16.3841 16.29 17.5341 17.18 17.9541 18.4C18.1341 18.37 18.3241 18.35 18.5141 18.35H18.5341H18.8241C17.7641 17.74 17.0441 16.61 17.0441 15.3C17.0441 13.35 18.6241 11.76 20.5741 11.76C22.5241 11.76 24.1041 13.35 24.1041 15.3C24.1041 16.61 23.3841 17.74 22.3241 18.35H22.5841ZM9.54409 13.77C8.70409 13.77 8.01409 14.45 8.01409 15.3C8.01409 16.14 8.70409 16.83 9.54409 16.83C10.3841 16.83 11.0741 16.14 11.0741 15.3C11.0741 14.46 10.3841 13.77 9.54409 13.77ZM13.9141 19.4C13.9141 20.01 14.4141 20.51 15.0241 20.51C15.6341 20.51 16.1341 20.01 16.1341 19.4C16.1341 18.79 15.6341 18.29 15.0241 18.29C14.4141 18.29 13.9141 18.79 13.9141 19.4ZM20.5741 13.77C19.7341 13.77 19.0441 14.45 19.0441 15.3C19.0441 16.14 19.7341 16.83 20.5741 16.83C21.4141 16.83 22.1041 16.14 22.1041 15.3C22.1041 14.46 21.4141 13.77 20.5741 13.77Z" fill="currentcolor"/>
</symbol>
</svg>
