<svg xmlns='http://www.w3.org/2000/svg' viewBox='0 0 30 30' fill='none'>
<symbol id='AnimalProtection'>
<path fill-rule="evenodd" clip-rule="evenodd" d="M19.8215 4C24.8015 4 26.7915 7.6471 26.8715 7.79906V7.81933C26.9615 7.98142 26.9915 8.16377 26.9915 8.34613C26.9815 8.49809 26.9415 8.63992 26.8715 8.78176C26.7915 8.93372 24.8015 12.5808 19.8215 12.5808C16.9715 12.5808 14.7015 10.8079 13.5815 9.73405C12.4315 10.8079 11.0115 11.8818 9.89148 11.8818C9.34148 11.8818 8.89148 11.4259 8.89148 10.8687V5.71211C8.89148 5.15492 9.34148 4.69903 9.89148 4.69903C10.8315 4.69903 12.0715 5.41832 13.5815 6.84677C14.7015 5.76277 16.9715 4 19.8215 4ZM12.1715 8.28534C11.6815 7.82946 11.2515 7.48501 10.8915 7.23174V9.33895C11.2515 9.08568 11.6815 8.74123 12.1715 8.28534ZM19.8215 6.02617C17.6615 6.02617 15.8815 7.41409 14.9815 8.28534C15.8915 9.1566 17.6715 10.5445 19.8215 10.5445C20.3515 10.5445 20.8115 10.4837 21.2515 10.3926C20.8515 9.2883 20.6715 7.78893 21.2715 6.18826C20.8315 6.08695 20.3515 6.02617 19.8215 6.02617ZM22.6915 6.64415C22.1615 7.99155 22.3815 9.16673 22.6815 9.92654V9.91641C23.7315 9.42 24.4215 8.7311 24.7815 8.27521C24.4215 7.81933 23.7415 7.14056 22.6915 6.64415ZM23.9615 17.1051C25.1115 16.7202 26.3715 17.3077 26.8215 18.4525L26.8315 18.412C27.2815 19.5365 26.8115 20.8029 25.7415 21.3499C23.1815 22.6568 18.4915 24.9768 15.7715 25.7771C15.2515 25.9392 14.7515 26 14.2815 26C12.7115 26 11.4215 25.2706 10.3415 24.6526L10.3056 24.6321C9.76926 24.3258 9.2706 24.041 8.7815 23.8725C8.1815 23.6699 7.4815 23.7611 6.8515 24.1359L4.5615 25.5137C4.0915 25.7974 3.4715 25.6454 3.1915 25.1591C2.9115 24.683 3.0615 24.0549 3.5415 23.7712L5.8315 22.3934C6.9615 21.7147 8.2815 21.5627 9.4415 21.9679C10.1015 22.2111 10.7215 22.5555 11.3215 22.9C12.6215 23.6496 13.7515 24.2778 15.2115 23.8523C17.8715 23.0621 22.8315 20.5901 24.8415 19.5568C24.9815 19.4859 25.0415 19.3238 24.9815 19.1718C24.9215 19.0199 24.7515 18.9489 24.6015 18.9996L18.3915 21.0865C17.9215 21.6336 17.2615 21.9578 16.5615 21.9578C16.2115 21.9578 15.8615 21.8869 15.5215 21.7248L10.0815 19.1414C9.5815 18.9084 9.3715 18.3006 9.6015 17.794C9.8315 17.2875 10.4315 17.0646 10.9315 17.3077L16.3715 19.8911C16.5715 19.9823 16.8215 19.9012 16.9315 19.7087C17.0115 19.5669 16.9915 19.4352 16.9715 19.3643C16.9515 19.3035 16.8915 19.1718 16.7415 19.1009L11.1915 16.4365C10.4215 16.0616 9.4915 16.1224 8.7715 16.5986L4.5415 19.3947C4.0815 19.6986 3.4615 19.5669 3.1615 19.1009C2.8615 18.6349 2.9915 18.0068 3.4515 17.7028L7.6815 14.9067C8.9815 14.0557 10.6515 13.9443 12.0515 14.6129L17.6015 17.2773C18.2115 17.5711 18.6815 18.1182 18.8815 18.7767V18.8071L23.9615 17.1051Z" fill="currentcolor"/>
</symbol>
</svg>
