<svg xmlns='http://www.w3.org/2000/svg' viewBox='0 0 30 30' fill='none'>
<symbol id='Archery'>
<path d="M26.97 6.40988C26.87 6.04988 26.58 5.77988 26.22 5.69988L24.74 5.36988L24.41 3.89988C24.33 3.53988 24.06 3.24988 23.7 3.14988C23.35 3.04988 22.96 3.14988 22.71 3.42988L20.83 5.41988C20.6 5.66988 20.5 6.01988 20.59 6.34988L20.93 7.70988L20.32 8.28988C18.49 6.73988 16.12 5.80988 13.54 5.80988C7.73 5.80988 3 10.5399 3 16.3499C3 22.1599 7.73 26.8899 13.54 26.8899C19.35 26.8899 24.08 22.1599 24.08 16.3499C24.08 13.8399 23.19 11.5299 21.72 9.71988L22.3 9.15988L23.77 9.52988C23.85 9.54988 23.93 9.55988 24.01 9.55988C24.26 9.55988 24.51 9.45988 24.7 9.28988L26.69 7.40988C26.96 7.15988 27.06 6.76988 26.97 6.41988V6.40988ZM22.08 16.3499C22.08 21.0599 18.25 24.8899 13.54 24.8899C8.83 24.8899 5 21.0599 5 16.3499C5 11.6399 8.83 7.80988 13.54 7.80988C15.55 7.80988 17.41 8.51988 18.87 9.68988L18 10.5299C16.76 9.57988 15.22 9.00988 13.54 9.00988C9.49 9.00988 6.19 12.3099 6.19 16.3599C6.19 20.4099 9.48 23.7099 13.54 23.7099C17.6 23.7099 20.89 20.4099 20.89 16.3599C20.89 14.7099 20.33 13.1799 19.41 11.9599L20.27 11.1299C21.4 12.5799 22.08 14.3899 22.08 16.3699V16.3499ZM18.89 16.3499C18.89 19.2999 16.49 21.6999 13.54 21.6999C10.59 21.6999 8.19 19.2999 8.19 16.3499C8.19 13.3999 10.59 10.9999 13.54 10.9999C14.65 10.9999 15.68 11.3399 16.54 11.9199L15.47 12.9499C14.9 12.6199 14.24 12.4199 13.54 12.4199C11.38 12.4199 9.62 14.1799 9.62 16.3399C9.62 18.4999 11.38 20.2599 13.54 20.2599C15.7 20.2599 17.46 18.4999 17.46 16.3399C17.46 15.6099 17.25 14.9299 16.9 14.3399L17.95 13.3299C18.54 14.1899 18.88 15.2199 18.88 16.3399L18.89 16.3499ZM15.47 16.3499C15.47 17.4099 14.61 18.2699 13.55 18.2699C12.49 18.2699 11.63 17.4099 11.63 16.3499C11.63 15.2899 12.49 14.4299 13.55 14.4299C13.67 14.4299 13.8 14.4399 13.91 14.4699L12.8 15.5299C12.4 15.9099 12.39 16.5499 12.77 16.9399C12.97 17.1399 13.23 17.2499 13.49 17.2499C13.74 17.2499 13.99 17.1599 14.18 16.9699L15.38 15.8199C15.43 15.9899 15.46 16.1699 15.46 16.3499H15.47Z" fill="currentcolor"/>
</symbol>
</svg>
