<svg xmlns='http://www.w3.org/2000/svg' viewBox='0 0 696 830' fill='none'><symbol id='ARPC_Fill'>
  <g fill="none">
    <path fill="#A7BFB9" d="M105.5 426c1-31 3-58 8-85 3-18 8-36 15-53l17-44c5-12 11-24 18-35 9-14 19-27 30-39 14-18 32-32 53-43a250.4 250.4 0 0 1 79-25l20 1h5l18-1c8 0 17 1 25 3 17 6 35 11 52 20 23 11 43 27 59 47 10 12 19 23 27 36 8 11 14 23 19 36l21 55c8 21 12 42 15 64 4.5 37.8 4.8 76.1 1 114l-4 38c-3 22-9 42-18 61-14 31-33 60-57 84l-19 18c-22 21-49 35-78 41l-45 7c-14 2-28 2-42 0l-39-7c-30-7-56-20-78-40l-29-29c-25-28-43-59-56-93-5-14-8-29-10-43-2.9-29.3-5.2-58.6-7-88Z"/>
    <path fill="#FFF" d="M577.5 420c0 20-1 38-3 56l-4 34c-3 20-9 40-18 59-14 29-31 55-54 77l-18 18c-20 19-44 31-71 37l-36 6c-11 2-22 3-34 2-7 0-15-1-22-3l-30-5c-28-6-52-18-72-38a288 288 0 0 1-76-105c-7-15-11-32-13-49-2.9-28.3-5.2-56.6-7-85 1-17 1-33 3-49 3-28 9-54 19-79l16-43c5-11 10-22 17-32l28-38c14-16 31-29 50-39a253.6 253.6 0 0 1 74-24l20 1h4l16-1c10 0 19 1 28 4 15 5 31 10 46 17 21 11 40 25 55 44a496.6 496.6 0 0 1 44 68l17 45c9 22 14 46 17 69l4 53Zm-6 19-4-58c-3-25-8-49-17-73l-22-57c-3-9-8-17-13-25-9-16-20-31-32-45-14-18-32-31-54-38l-43-13c-23-5.4-46.9-5.7-70-1-16 3-32 8-48 13-12 4-24 10-35 19-8 7-16 14-22 23l-26 35c-8 12-15 25-20 39l-16 41a304.3 304.3 0 0 0-22 104l-2 43 3 40 7 34c9 39 28 73 54 103 12 15 26 28 40 40a155 155 0 0 0 78 36c22.1 6.3 45.4 7.4 68 3l12-3 29-7c21-7 39-18 56-33l27-27a245 245 0 0 0 56-93l10-37c5-22 7-45 6-63Z"/>
    <path fill="#FFF" d="M521.5 425c-.8 54-17.5 106.5-48 151a556.9 556.9 0 0 1-33 34c-17 13-35 23-55 31l-29 7c-8 1-16 1-24-1-17-3-32-9-47-17-16-9.2-31-19.9-45-32a230.2 230.2 0 0 1-31-40c-9-17-17-34-23-52a307 307 0 0 1-9-131c3-15 6-30 11-44a243.5 243.5 0 0 1 62-99 167.7 167.7 0 0 1 41-35c14-7 29-12 44-15 9-2 18-1 27 1 16.4 3.7 32.3 9.8 47 18 13 9 25 19 35 31l19 22c24 30 40 63 49 100l6 27c3 13 3 24 3 44Zm-341 13 2 27c1 15 5 29 10 44a373 373 0 0 0 34 62 246.9 246.9 0 0 0 66 53c14 9 30 14 47 18h15c15-3 30-8 43-16l25-15c17-11 32-24 45-39 6-7 12-15 16-23l14-29c6-15 11-30 13-45 4.7-31.5 4.3-63.6-1-95l-7-24c-6-26-17-50-30-73l-11-19a145 145 0 0 0-31-37l-25-17c-3-3-8-5-12-6-12-7-26-11-39-15-5-2-10-2-15 0l-17 6a193 193 0 0 0-64 36c-9 9-17 18-23 29l-18 32c-9 15-16 32-21 49-5 18.2-9.8 36.6-14 55-2 13-2 25-2 42Z"/>
    <path fill="#A7BFB9" d="M180.5 438c-.3-20.1 1.4-40.2 5-60l11-37c5-17 12-34 21-49l18-32a145.2 145.2 0 0 1 27-32c19-15 38-26 60-33l17-6c5-2 10-2 15 0 13 4 27 8 39 15 15 9.5 29.7 19.5 44 30 10 9 18 19 24 30l11 19c13 23 24 47 30 73l7 24c5.6 31 6.2 62.8 2 94-3 16-8 31-14 46l-14 29c-4 8-10 16-16 23a217.2 217.2 0 0 1-70 54c-13 8-28 13-43 16h-15c-17-4-33-9-47-18a298.5 298.5 0 0 1-66-53 372 372 0 0 1-33-62c-6-15-10-29-11-44l-2-27Zm178 98c8 0 15-1 23-3 18-5 33-16 45-31 10-12 17-25 23-39 11-28.1 10.3-59.4-2-87-6-15-15-29-29-40l-3-2-1-3 1-3c1-6 2-12 0-18-2-11-8-20-17-27l-4-2h-5l-3 3-7 9c-2 2-2 2-3 0l-4-3c-4-4-10-6-16-6-3 0-4 1-4 4 2 9 1 18 0 27l-1 2c-5 2-8 6-11 10l-6 10c-4 6-9 11-16 14-6 3-12 7-16 13-3 4-7 6-12 8l-5 2-5 4c-4 4-4 10 1 13l6 4c5 2 9 4 12 8 5 4 11 6 17 6 9 1 17 0 25-4l8-4c3-2 5-2 7 0l2 3v5c0 9-2 16-7 23-5 8-12 14-19 20h-3l-1-1c-14-7-30-13-46-16a61.4 61.4 0 0 0-72 37l-4 13-1 3 2 1 5-2 15-5c9-3 18-2 26 3l10 6 16 13c12 9 25 17 39 23 12 5 26 9 40 9Zm-68 7c2 0 4-2 4-5-1-2-3-4-5-4s-4 3-4 5 2 4 5 4Zm83 63c3 0 4-2 4-4s-2-4-4-4-4 2-4 4c0 3 2 4 4 4Zm-163-214c-1 0-3 1-3 3s2 4 4 4 4-1 3-3c0-3-2-4-4-4Zm55-135c2 0 4-1 4-3s-2-4-4-4c-1 0-3 1-3 3-1 2 1 4 3 4Zm227 185c0-2-2-3-4-3s-3 1-3 3 1 3 3 3 4-1 4-3Zm-62-159 3-3c0-2-1-4-3-4s-3 2-3 3c0 2 1 4 3 4Zm-119 28c-2 0-3 1-3 3s2 3 3 3c2 0 3-2 3-3 0-2-1-3-3-3Zm136 200c2 0 3-1 3-3s-2-3-3-3c-2 0-3 2-3 3 0 2 1 3 3 3Zm-87 70c0-2-1-3-3-3-1 0-2 1-2 3l2 2c2 0 3-1 3-2Zm-85 3c-1 0-3 1-3 3 0 1 1 2 3 2l2-2-2-3Zm86-328c-1 0-2 1-2 3l2 2c2 0 3-1 3-2l-3-3Zm84 82 2-2c0-2-1-3-2-3-2 0-3 1-3 3 0 1 1 2 3 2Zm-186-36 2-3-2-2-2 2c0 2 1 3 2 3Zm101-85-2-2c-2 0-2 1-3 2l2 2c2 0 3-1 3-2Zm-107 319c1-2 0-3-2-3l-2 2c0 2 1 3 2 3l2-2Z"/>
    <path fill="#FFF" d="M358.5 536c-14 0-28-4-41-9-13-6-26-14-38-23l-16-13-10-6c-8-5-17-6-26-3l-15 5-5 2-2-1 1-3 4-13a62 62 0 0 1 72-37c16.4 3.4 32.2 9.2 47 17h3c7-6 14-12 19-20 5-7 7-14 7-23v-5l-2-3c-2-2-4-2-7-1l-8 5c-8 4-16 5-25 4-6 0-12-2-17-6-3-4-7-6-12-8l-6-4c-5-3-5-9-1-13l5-4 5-2c5-2 9-4 12-8 4-6 10-10 16-13 7-3 12-8 16-14l6-10c3-4 6-8 11-10l1-2c1-9 2-18 0-27 0-3 1-4 4-4 6 0 12 2 16 6l3 3c2 2 2 2 4 0l7-9 3-3h5l4 2a43.6 43.6 0 0 1 16 48l1 3 3 2c14 11 23 25 29 40a117.4 117.4 0 0 1 2 87c-6 14-13 27-23 39a90.6 90.6 0 0 1-46 31c-7 2-14 3-22 3Zm48-116v-8l1-2 2 1 1 1 6 8 1 1 1-1-2-16v-3c0-1 1-2 2-1l2 1 7 8 2 1v-2l-2-18-1-2c0-2 2-3 3-2l3 2 6 6h1v-7c-4-18-11-34-26-46l-6 8v1l-1-1v-1l3-16c1-7 2-13 0-20-2-10-7-18-14-26l-2-2-2 1-1 2-7 12-9 11-4 2h-2l-1-2c1-1 1-2-1-3-4-2-5-6-5-10 0-2 1-3 2-3l5 2 4 3h2c2-2 2-2 0-3-5-4-10.8-7-17-9l-1 1 1 2c3 8 2 17 0 26l-4 5c-4 2-6 5-9 8l-5 7c-5 9-12 16-21 20-4 2-8 5-11 9-5 5-10 9-17 11l-5 3c-4 3-4 7-1 9l6 4c4 1 8 3 11 6 7 6 15 8 25 6 7.6-2.9 15.3-5.5 23-8h8l8 3c6 3 13 6 20 7l8 1 7 1v1l-4 2c-10 2-19 2-29-2l-2-2-1 1v7c0 8-3 15-8 21-4 6-10 11-16 15l-5 3v1a74.3 74.3 0 0 0 57 10c14-2 28-8 39-17l15-14 3-6-2-22-3-12v-1l-1 1v6c0 2-2 2-4 1l-5-5v-1l-1 1 2 7v11c0 2-1 3-3 4-2 0-3-2-3-3l-7-8-1 1 1 2 2 15-1 3c-1 3-4 4-6 1l-1-2-3-4-2-4v18l-1 4-3 2c-2 0-3-1-3-2l-1-3c-2-4-4-9-7-12l-1-2 6 3 3 4h1v-1l1-10Zm-48 109 15-2c16-4 29-11 40-23 16.6-16.9 28.3-38 34-61v-1h-1l-2 2c-7 9-16 16-27 21-10 5-21 8-32 9-17 2-33-1-48-9l-11-6c-13-8-27-14-41-17a57 57 0 0 0-53 12c-10 8-17.9 18.3-23 30l1 1 1-1 16-8c7-3 13-3 20-2l13 5 12 9 20 14c9 7 19 13 29 18 12 5 24 8 37 9Zm-68 14c-3 0-5-2-5-4s2-5 4-5 4 2 5 4c0 3-2 5-4 5Zm83 63c-2 0-4-1-4-4a4 4 0 0 1 4-4 4 4 0 0 1 4 4c0 2-1 4-4 4Zm-163-214c2 0 4 1 4 4 1 2-1 3-3 3s-4-2-4-4 2-3 3-3Zm55-135c-2 0-4-2-3-4 0-2 1-3 3-3s4 2 4 4-2 3-4 3Zm227 185c0 2-2 3-4 3s-3-1-3-3 1-3 3-3 4 1 4 3Zm-62-159c-2 0-3-2-3-4 0-1 1-3 3-3s3 2 3 4l-3 3Zm-119 28c2 0 3 1 3 3 0 1-1 3-3 3-1 0-3-1-3-3s1-3 3-3Zm136 200c-2 0-3-1-3-3 0-1 1-3 3-3 1 0 3 1 3 3s-1 3-3 3Zm-87 70c0 1-1 2-3 2l-2-2c0-2 1-3 2-3 2 0 3 1 3 3Zm-85 3 2 3-2 2c-2 0-3-1-3-2 0-2 2-3 3-3Zm86-327c2 0 3 1 3 2s-1 2-3 2l-2-2c0-2 1-3 2-2Zm84 81c-2 0-3-1-3-2 0-2 1-3 3-3 1 0 2 1 2 3 0 1-1 2-3 2h1Zm-186-36c-1 0-2-1-2-3l2-2 2 2-2 3Zm101-85c0 1-1 2-3 2l-2-2 2-2c2 0 3 1 3 2Zm-107 319-2 2c-1 0-2-1-2-3l2-2c2 0 3 2 2 3Z"/>
    <path fill="#A7BFB9" d="M405.5 430c0 1 0 2-1 1l-4-4-5-3s-1-1 0 0l1 2c3 3 5 8 7 12l1 3c0 1 1 2 3 2l3-2 1-4v-18c1-1 2 2 2 4l3 4 1 2c2 3 5 2 6-1l1-3-2-15-1-2c0-2 1-1 1-1l7 8c0 1 1 3 3 3 2-1 3-2 3-4v-11l-2-7h1l5 5c2 1 4 1 4-1v-6h1l3 12 2 22-3 6-15 14a83.7 83.7 0 0 1-39 18c-10 1-19 2-29 0-10-1-19-5-28-11v-1l5-3c6-4 12-9 16-15 5-6 8-13 8-21v-7l1-1 2 2c9 4 19 4 29 2l4-2-1-1-6-1-8-1c-7-1-14-4-20-7l-8-3h-8c-7.7 2.5-15.4 5.1-23 8-10 2-18 0-25-6-3-3-7-5-11-6l-6-3c-3-3-3-7 0-10l6-2c7-3 12-7 17-12 3-4 7-7 11-9 9-4 16-11 21-20l5-7c2-3 5-6 9-8l4-5c2-9 3-18 0-26l-1-2 1-1 2 1 15 8c2 1 1 2 0 3h-2l-4-3-5-2c-1 0-2 1-2 3 0 4 1 8 5 10 2 1 2 2 1 3v2l3 1 4-3 9-11 7-12 1-2 2-1 2 2c7 8 12 16 14 26 2 7 1 13 0 20l-3 17h1l4-7c0-2 1-2 2-1 14 12 22 28 26 46v6l-1 1-6-6-3-2c-1-1-3 0-3 2l1 2 2 19s0 2-2 0l-7-8-2-1c-1-1-2 0-2 1v3c1 5 2 10 1 16 0 0 0 2-1 0l-6-7-2-2h-1l-1 1v4l-1 14Zm0-109v-2c-1.4-5.8-4.5-11-9-15h-3c-2 2-2 4-2 6l1 5c2 4 3 9 3 13v3c1 3 3 3 5 1 3-3 5-7 5-11Zm-53 39h3c3 0 5-2 6-4s1-4-1-5c-1-1-2-2-4-1l-3 1-4 4c-1 1-3 2-3 4 1 2 4 1 6 1Z"/>
    <path fill="#A7BFB9" d="M358.5 529c-13-1-25-4-37-9-10-5-20-11-29-18l-20-14-12-9-13-5c-7-1-13-1-20 2l-16 8-1 1-1-1 2-5c5-10 12-18 20-26a56.9 56.9 0 0 1 54-11c14 3 28 9 41 17l11 6c15 8 31 11 48 9 11-1 22-4 32-9s20-12 27-21l2-2c1-1 1 1 1 1l-1 3c-6 22-17 42-33 58a78.6 78.6 0 0 1-40 23l-15 2Zm-88-76h-5l-10 2-1 1 1 1h8c8 0 15 2 21 6l9 7 13 10c4 4 8 7 13 9l11 2 3-1c2-1 2-2 1-3l-6-5c-12.8-8.7-25.8-17-39-25-6-3-12-4-19-4Z"/>
    <path fill="#FFF" d="M405.5 321c0 4-2 8-5 11-2 2-4 2-5-1v-3c0-4-1-9-3-13l-1-5c0-2 0-4 2-6h4c4 4 7 9 8 15v2Zm-53 39c-2 0-5 1-6-1 0-2 2-3 3-4l4-4 3-1c2-1 3 0 4 1 2 1 2 3 1 5s-3 4-6 4h-3Zm-82 93c7 0 13 1 19 4l15 9c10.1 6.8 20.1 13.8 30 21 1 1 1 2-1 3l-3 1-11-2c-5-2-9-5-13-9l-13-10-9-7c-6-4-13-6-21-6h-8c-1 0-2-1 0-2l10-2h5Zm-22.2-89.7 2.8 2.8 2.8-2.8-2.8-2.8-2.8 2.8Zm-5.9-19.1c0 .4-.3 6.8-.2 13.3-6.8.5-5.7-13.3-5.3-15 .2-1.4-4.4 1.7-6.6 3.8.7 1.3 1.7 1 3 .5-.5 6.2 3.8 11.8 9 11.7.1 6.4.8 12.5 2.6 13 .2.1.4-6.5.6-13.7 12.2-3.8 7.5-18.3 7.5-18.3-.2-.8-2 .4-6 3.9 1.6 1.7 2.4.7 3.6.3 1 1.9 1.4 10.5-5 13.1l.2-18c0-.2-.2-.3-.4-.3-1.8.2-5 3.4-7.5 6.1 1.4 2.2 3.1.2 4.5-.4"/>
  </g>
</symbol></svg>
