<svg xmlns='http://www.w3.org/2000/svg' viewBox='0 0 30 30' fill='none'>
<symbol id='BabyCorner'>
<path d="M23 10.4069C23 9.9571 22.6746 9.58726 22.219 9.46731C22.078 7.38817 20.3424 5.69888 18.1186 5.45898C17.88 4.06955 16.5675 3 14.9946 3C13.4217 3 12.1092 4.06955 11.8705 5.45898C9.64678 5.69888 7.91119 7.38817 7.78102 9.46731C7.33627 9.58726 7 9.9571 7 10.4069C7 10.8867 7.36881 11.2666 7.85695 11.3665V24.4611C7.85695 25.8605 9.09356 27 10.6122 27H19.3878C20.9064 27 22.143 25.8605 22.143 24.4611V11.3665C22.6312 11.2666 23 10.8867 23 10.4069ZM12.4129 7.42815H12.9119C13.5085 7.42815 13.9966 6.97834 13.9966 6.42857V5.91878C13.9966 5.409 14.4414 4.99917 14.9946 4.99917C15.5478 4.99917 15.9925 5.409 15.9925 5.91878V6.42857C15.9925 6.97834 16.4807 7.42815 17.0773 7.42815H17.5763C18.8346 7.42815 19.8759 8.2878 20.0495 9.40733H9.93966C10.1132 8.2878 11.1546 7.42815 12.4129 7.42815ZM19.3878 24.9908H10.6122C10.2868 24.9908 10.0264 24.7509 10.0264 24.4511V11.4065H19.9736V12.8959H17.4461C16.8495 12.8959 16.3614 13.3457 16.3614 13.8955C16.3614 14.4452 16.8495 14.895 17.4461 14.895H19.9736V17.1241H17.4461C16.8495 17.1241 16.3614 17.5739 16.3614 18.1237C16.3614 18.6735 16.8495 19.1233 17.4461 19.1233H19.9736V21.3923H17.381C16.7844 21.3923 16.2963 21.8421 16.2963 22.3919C16.2963 22.9417 16.7844 23.3915 17.381 23.3915H19.9736V24.4611C19.9736 24.7609 19.7132 25.0008 19.3878 25.0008V24.9908Z" fill="currentcolor"/>
</symbol>
</svg>
