<svg xmlns='http://www.w3.org/2000/svg' viewBox='0 0 30 30' fill='none'>
<symbol id='BabyWelcome'>
<path fill-rule="evenodd" clip-rule="evenodd" d="M21.1424 7.95518C21.3319 8.12504 21.5713 8.21497 21.8106 8.21497V8.20498H21.8904C22.1696 8.17501 22.419 8.04511 22.5885 7.83528L25.1815 4.61783C25.5205 4.18817 25.4607 3.56866 25.0319 3.21894C24.603 2.87921 23.9747 2.93916 23.6357 3.36882L21.7009 5.76692L20.5839 4.75772C20.175 4.38801 19.5468 4.41799 19.1778 4.82766C18.8088 5.23734 18.8387 5.86684 19.2476 6.23654L21.1424 7.95518ZM18.0407 10.5231L21.8005 13.3408L21.7507 13.3608C22.6382 14.0802 22.7779 15.3392 22.0997 16.1986C21.4515 17.0179 20.3046 17.2078 19.427 16.6382L17.6518 15.639L18.3698 24.7418C18.4197 25.3113 18.2202 25.8909 17.8313 26.3205C17.4423 26.7502 16.8739 27 16.2955 27C15.3181 27 14.4604 26.3105 14.261 25.3513L13.5529 22.3937L12.8349 25.3713C12.6454 26.3006 11.7877 27 10.8103 27C10.2319 27 9.66346 26.7502 9.27452 26.3205C8.88557 25.8909 8.69609 25.3013 8.74595 24.7218L9.464 15.629L7.63896 16.6582C6.82117 17.1878 5.67429 16.9979 5.02605 16.1786C4.34789 15.3193 4.49748 14.0603 5.34518 13.3708L9.13489 10.5231C9.66346 10.1334 10.3117 9.91355 10.9599 9.91355H11.4386C10.4513 9.23409 9.79311 8.09499 9.79311 6.79602C9.79311 4.70768 11.4785 3.00903 13.5629 3.00903C15.6472 3.00903 17.3426 4.70768 17.3426 6.79602C17.3426 8.085 16.6944 9.23409 15.6971 9.91355H16.2157C16.8739 9.91355 17.5221 10.1334 18.0407 10.5231ZM15.358 6.79602C15.358 5.80681 14.5502 5.00744 13.5729 5.00744C12.5955 5.00744 11.7977 5.8168 11.7977 6.79602C11.7977 7.77525 12.5855 8.57461 13.5729 8.57461C14.5602 8.57461 15.358 7.78524 15.358 6.79602ZM10.8502 24.9916C10.8901 24.9916 10.93 24.9216 10.93 24.9216H10.94L12.0071 20.5051C12.047 20.3353 12.1367 20.1854 12.2564 20.0655L11.2093 19.3361L10.7705 24.8817L10.8502 24.9916ZM16.2556 24.8917C16.2655 24.9616 16.3453 24.9916 16.3453 24.9916L16.3553 24.9816C16.3553 24.9716 16.4351 24.8717 16.4351 24.8717L15.9963 19.3161L14.9391 20.0555C15.0588 20.1754 15.1585 20.3253 15.1984 20.5051L16.2556 24.8917ZM17.0534 12.9611L20.504 14.9096H20.524L20.5439 14.8896L16.8639 12.1218C16.6844 11.9819 16.455 11.912 16.2356 11.912H15.2782C14.7297 11.912 14.2809 11.4623 14.2809 10.9128C14.2809 10.7529 14.3208 10.613 14.3807 10.4831C14.1214 10.5431 13.8621 10.573 13.5828 10.573C13.3036 10.573 13.0443 10.5431 12.785 10.4831C12.8448 10.613 12.8847 10.7629 12.8847 10.9128C12.8847 11.4623 12.4359 11.912 11.8874 11.912H10.9799C10.7505 11.912 10.5311 11.9919 10.3516 12.1218L6.5918 14.9396C6.61174 14.9296 6.69153 14.9096 6.69153 14.9096L10.1422 12.9611C10.4613 12.7813 10.8602 12.7913 11.1694 12.9911C11.4785 13.191 11.658 13.5407 11.6281 13.9104L11.3788 17.0379L13.533 18.5367C13.5429 18.5417 13.5504 18.5517 13.5579 18.5617C13.5654 18.5717 13.5728 18.5817 13.5828 18.5867C13.6028 18.5767 13.6327 18.5367 13.6327 18.5367L15.8168 17.0179L15.5674 13.9104C15.5375 13.5407 15.717 13.191 16.0262 12.9911C16.3354 12.7913 16.7343 12.7813 17.0534 12.9611Z" fill="currentcolor"/>
</symbol>
</svg>
