<svg xmlns='http://www.w3.org/2000/svg' viewBox='0 0 30 30' fill='none'>
<symbol id='BathtubShower'>
<path fill-rule="evenodd" clip-rule="evenodd" d="M15.1651 16.04H26.0296L25.9996 16.05C26.5498 16.05 27 16.5 27 17.05C27 17.6 26.5498 18.05 25.9996 18.05H25.7395V20.71C25.7395 22.23 24.9191 23.55 23.7086 24.29L24.1488 25.71C24.3189 26.24 24.0188 26.8 23.4885 26.96C23.3985 26.99 23.2985 27 23.1984 27C22.7682 27 22.3681 26.72 22.238 26.29L21.8078 24.87C21.7748 24.8737 21.7432 24.8787 21.7124 24.8836L21.7123 24.8836L21.7123 24.8836C21.6591 24.892 21.6084 24.9 21.5577 24.9H8.84243L8.41226 26.29C8.2722 26.72 7.88203 27 7.45185 27C7.36182 27 7.26178 26.99 7.16173 26.96C6.64152 26.8 6.34139 26.24 6.50146 25.71L6.90163 24.4C5.57107 23.69 4.65069 22.31 4.65069 20.7V18.04H4.00042C3.45019 18.04 3 17.59 3 17.04C3 16.49 3.45019 16.04 4.00042 16.04H4.65069V5.74C4.65069 4.32 5.81117 3 7.23176 3H10.0029C11.4235 3 12.584 4.16 12.584 5.58V6.42H13.8945C14.4448 6.42 14.895 6.87 14.895 7.42C14.895 7.97 14.4448 8.42 13.8945 8.42H9.01251C8.46228 8.42 8.01209 7.97 8.01209 7.42C8.01209 6.87 8.46228 6.42 9.01251 6.42H10.5832V5.58C10.5832 5.26 10.3231 5 10.0029 5H7.23176C6.91163 5 6.65152 5.26 6.65152 5.58V16.04H8.01209C8.02209 15.29 8.67236 14.69 9.4727 14.69H13.7045C14.5048 14.69 15.1651 15.3 15.1651 16.04ZM13.1642 16.69H10.0229V19.59H13.1642V16.69ZM23.7586 20.7V18.04H15.1751V20.23C15.1751 20.98 14.5148 21.59 13.7145 21.59H9.4827C8.67236 21.59 8.02209 20.98 8.02209 20.23V18.04H6.66153V20.7C6.66153 21.91 7.64193 22.89 8.85244 22.89H21.5677C22.7782 22.89 23.7586 21.91 23.7586 20.7ZM24.1488 10.55C24.1488 11.43 23.4385 12.14 22.5581 12.14C21.6777 12.14 20.9674 11.43 20.9674 10.55C20.9674 9.66996 21.6777 8.95996 22.5581 8.95996C23.4385 8.95996 24.1488 9.66996 24.1488 10.55ZM24.379 5.58C25.0893 5.58 25.6695 5 25.6695 4.29C25.6695 3.58 25.0893 3 24.379 3C23.6687 3 23.0884 3.58 23.0884 4.29C23.0884 5 23.6687 5.58 24.379 5.58ZM20.9675 6.79008C20.9675 7.46008 20.4273 8.00008 19.757 8.00008C19.0867 8.00008 18.5465 7.46008 18.5465 6.79008C18.5465 6.12008 19.0867 5.58008 19.757 5.58008C20.4273 5.58008 20.9675 6.12008 20.9675 6.79008Z" fill="currentColor"/>
</symbol>
</svg>
