<svg xmlns='http://www.w3.org/2000/svg' viewBox='0 0 696 830' fill='none'><symbol id='BEIC_Fill'>
  <g fill="none">
    <path fill="#9BADFA" d="M590.4 427c0 18-1 36-3 53l-4 35c-3 22-9 43-19 63-14 31-33 59-57 83l-19 18c-21 20-47 33-76 39l-34 7-13 1-18 2-21-2-36-6c-30-5.4-58-18.9-81-39a290.7 290.7 0 0 1-87-124c-5-12-8-25-9-38-2-18-5-35-6-53-2-17-2-35-2-53l2-30c3-35 10-68 23-101l15-38c5-12 11-24 18-35l30-40c15-17 32-31 52-41 12-7 25-12 39-16l20-7c11-3 22-3 33-3h21c11 0 23 0 34 3 18 6 36 12 53 20a184 184 0 0 1 57 44 482.8 482.8 0 0 1 47 73l21 53a483.4 483.4 0 0 1 19 108l1 24"/>
    <path fill="#FFF" d="M570.4 435v-15c-2.5-23-5.1-46-8-69-3-15-7-30-12-44l-21-55a414.8 414.8 0 0 0-47-73c-14-16-31-29-52-36l-26-8c-21.8-6-44.4-8.7-67-8l-18 2c-19 3-36 8-54 14a130.8 130.8 0 0 0-53 39 516.8 516.8 0 0 0-46 72l-16 43-6 18c-8 21-12 43-15 66l-2 32c-1.5 24-1.1 48.1 1 72l7 35c10 41 30 77 58 108 10 11 21 22 33 32 18 16 39 28 63 35l26 6 14 2c14.6 2 29.5 1.7 44-1l20-4c10-2 20-4 29-8 19-8 37-19 52-34l20-19c29-27.8 50.3-62.6 62-101l8-34c5-22 8-45 6-67m6-16c1.5 33.5-1.2 67.1-8 100-2 16-7 32-14 47a277.5 277.5 0 0 1-73 97c-19 18-42 30-67 37l-27 5-23 4h-22c-13 0-26-3-39-5-10-1-20-3-29-7-22-7-41-17-58-33-12-11-24-22-34-35-20-24-35-50-46-78-5-13-8-25-9-38l-5-40a430 430 0 0 1 18-176l17-44c5-11 10-22 17-31 9-14 18-27 29-39 13-16 29-29 47-38 12-7 25-12 39-17 7-2 14-5 22-6 9-2 18-2 27-2h20c11-1 22 0 32 3 17 5 34 11 50 19a165.4 165.4 0 0 1 57 46l24 31c7 12 13 23 18 36l19 49c7 19 11 38 14 58s4 40 4 57"/>
    <path fill="#FFF" d="m491.4 529-2 2 2 1 1-2-1-1m-237-293-1 1v1l3-1-2-1Zm258 222v-1h-2l-2 1v1l2 1h2v-2m-29 86h-1v3l1 1v-1l3-7-3-1v5m-189-333v-3h-2l-5 2 1 2 4 2c1 1 2 0 2-1v-2m51-23c-4 0-7 2-11 3l-1 2v2l12-7s-1 0 0 0m83 410-1 8h2l10-9-10-8v-1l-1 1v9m-167-363 2-1 12-8 9-6 4-1-3-3-1-1h-3l-19 13-4 3v1l3 3m250 233-1-3-5-3-3 1-12 8v1l16 10 1 1 2-1 2-14m-183-272v-2l-1-1-3 1-20 8c-6 3-5 2-6 7v4c-1 2 0 2 2 1 9-3 18-7 26-13l2-3v-2m99 376 1 8 1 3 8 7 5 4h2l3-2 9-11h-2c-9-6-17-11-25-19h-1l-1 10m63-68 1 1h-1l-2 2-8 4-13 6v2l15 8h2l10-5 3-3 10-28c0-2 0-3-2-4l-19-12h-4l-10 5-2 1v1l3 1c6 3 12 7 17 12l3 3-1 1-2-1c-8-4-17-8-25-14h-3c-9 3-17 7-25 12v2l11 9 11 7c2 2 2 2 5 0l6-3 18-6 2-1m-12 42v-9c0-2 0-3-2-4l-8-7-4-3h-1v3c1 10 .4 20.2-2 30v1l-1-1v-1l-2-17 1-16-2-4-9-5-16-8h-1v6c1 7 2 14 1 21l2 4 16 14 6 7-1 1-10-8-12-9h-1l-3 14 19 16 10 8h2l16-18 1-4 1-11m35-117v-20l-3-23c-4-17-8-33-14-49-4-16-12-31-20-46l-13-23a151.4 151.4 0 0 0-35-43c-12.2-7.5-24.6-14.8-37-22l-28-11c-3-1-5 0-6 1v2l3 1c8 5 15 9 22 15 1 1 3 2 3 4-1 1-3-1-4-1l-7-4c-8.2-4-16.2-8.3-24-13l-13 6v1h1l2 2c7 3 12 7 17 12l3 2-1 1-2-1c-8-4-17-8-24-13l-4-1-15 6-10 6v2l12 9 11 8h3l4-2c7.4-3.4 15-6.1 23-8l-1 1-9 5-13 7-1 1h1l15 9 2-1 29-13 4-2h1v1l-3 3-12 8-13 6c-2 1-2 2 0 3l9 6h5c5-3 11-5 17-6h4c0 2-2 2-3 3l-13 6-3 1c0 2 2 2 3 3l15 13 3 3v1h-1l-4-1-15-9-4-3-2 1v7l-1 13v2l-1-2-1-6-1-16-2-3-7-5-4-2-2 1v1l-1 20-2 15h-1l-1-1v-18l1-20c0-1 0-2-2-3l-9-9-3-2h-1l-1 1 1 2c1 10 .4 20.2-2 30l-1 1v-1l-1-1-1-18v-14c1-3 0-4-2-5l-11-6-9-5-5-2v6l1 20c0 5 0 3 3 7 6 4 12 9 17 15l4 4v1h-1l-3-2-17-14-3-2-1 1-3 14 1 3 2 1 29 22c0 1 2 2 1 3s-2 0-3-1c-11-5.5-21.1-12.6-30-21h-1v17c0 3 1 4 3 5a80.6 80.6 0 0 1 17 17v1h-1l-4-2-13-11-1-1v1l-1 12-2 13-2 3h-2l-1-3-1-12 1-12v-2h-1l-2 2-13 8-4 2h-1l1-2 2-3 17-12 2-3 1-10 1-8h-1l-6 4c-8.8 6-18.2 11-28 15l-1-1v-1l4-3 30-18 2-3-2-14c0-1 0-2-1-1l-13 9-11 6h-1v-1l2-1 9-8 13-9 2-4 2-15 2-12v-1h-1l-17 7-9 4c-2 1-2 2-2 4 0 10-1 21-4 31l-1 3h-1v-25l2-8v-1h-1v1l-15 9-1 2v2l-1 26-2 11-1 1v-1l-1-8a188 188 0 0 1 0-26h-1l-1 2-20 35c-8 15-15 30-19 46l-10 35c-5.2 29-6.6 58.6-4 88 2 15 4 28 9 42a353.5 353.5 0 0 0 34 64c23 27 51 46 82 62 9 4 19 7 29 9 7 2 14 2 21 0 23-4 43-15 61-28 2 0 2-1 2-3v-22h-1l-2 2a74 74 0 0 1-16 10h-1v-1l3-4 16-11c2-2 3-3 3-5l1-15v-3l-1 1-7 5-24 13-2 1-2-1 1-1 3-2c10-7 20-14 30-19 2-1 2-2 2-4l-1-10-1-4h-1l-2 1-21 14h-1v-1l10-9 13-9c2-1 2-2 2-4l3-15 1-11c1-2 0-2-1-1-5 3-11 4-17 6l-9 5c-2 0-2 1-2 2 1 11-1 22-4 32l-1 3-1-2c-1-9-1-18 1-28l1-3v-1l-1 1h-1l-13 9-2 3v19l-3 19-1 1v-1l-1-8c-.4-9.3 0-18.7 1-28l-2-1-12 6-2 3c-.8 7.4-2.1 14.8-4 22v1l-1-1v-11l1-9-2-1-7 4-15 6h-3v-1l2-1 13-10 7-5v-1l-3-2-12-6-2-2v-2l6 2 15 7h4l10-6h1l-1-2-2-1-15-10-7-7-2-2 1-1 2 1 28 17 5 1 12-5 3-2v-1l-3-1-17-11-3-3h1c9 3 18 7 25 13h4l11-7 13-8v-2c-7-6-15-11-24-14h-3l-26 11-1 1-1-1 2-2 11-8 10-4v-1l-11-7h-3l-18 9-11 4-4 1h-1v-1l3-2 6-4 20-10c2-1 2-1 0-2l-10-9h-3c-7.6 2.9-15.2 5.6-23 8h-2l1-2 5-3 15-6v-2l-8-5-6-2c-4.5-1.9-8.3-5-11-9l1-2h2l10 4 5 5 9 6c1 1 2 0 2-1v-24h2v3c2 7 3 15 2 23 0 1 0 2 2 3l13 6c1 1 1 1 1-1-1-9 0-18 2-27l1-5v-2h1l1 3v35l1 2 12 7v-16l2-12 1-1 1 1v2l1 6c.5 8.7.8 17.3 1 26 7.6 6.5 16 11.8 25 16l2-1v-10l-2-24-1-3-2-1-17-11-3-3h4c6 3 13 6 18 11 1 1 2 0 2-1l2-12v-1l-1-2-2-1-25-16-4-4v-1h1l8 4c8 3 16 8 23 14l1-1 2-14-3-4c-5-3-10-6-14-11-1-1-3-2-3-4 2-1 3 1 5 2l12 9h1v-4c0-7 0-14 2-21l1-2 2-1 1 1 1 1 1 7c.7 6 .3 12.1-1 18v1h1l2-1a63 63 0 0 1 16-8v1l-1 2-15 10-4 1-1 2v16h1l1-1c8-5 17-9 25-12l7-2v1l-5 4a188.4 188.4 0 0 1-28 15l-1 1 1 14h2l2-1 18-8h3l-2 2-3 3-18 9c-1 1-2 1-2 3l-1 9-3 20v5h3c8-3 17-7 24-13 2-1 3-2 3-5l2-23 1-6 1-1 1 1v27c0 2 0 2 1 1l10-6 2-2c.8-12.4 2-24.7 4-37l1-1v2c2 11 2 22 0 33 0 1 0 2 2 1l13-5c1 0 2-1 2-3a96 96 0 0 1 4-25h1l1 1v3l-1 16v5l4-2c2 0 3-1 3-3v-21m8-8c-.5 34.6-7.3 68.8-20 101l-13 29a520.3 520.3 0 0 1-31 43c-6 8-13 14-21 19-13 9-27 17-41 24-12 5-24 8-37 10-9 2-19 2-28 0-15-4-29-9-42-16l-25-14c-11-7-21-16-30-26l-12-14c-6-8-12-18-16-27l-18-39a218 218 0 0 1-14-70c-1-18-1-36 1-53l6-26c3-11 5-23 9-34 9-23 20-46 35-66l16-18 6-8c8-10 18-19 28-27 8-7 17-12 27-16 9-4 18-8 28-9 5-2 11-2 17-3l9 1a138 138 0 0 1 90 52l11 12a244 244 0 0 1 53 98l7 29c3 13 5 27 5 41v7"/>
    <path fill="#9BADFA" d="M220.4 336c0-1-1-2-3-2l-2 2c0 2 1 3 2 2 2 0 3-1 3-2m129 49c2 0 3-1 3-3s-2-3-4-3c-1 0-3 1-3 3s2 3 4 3m-23 228c0-3-2-4-5-4-2 0-4 2-4 4 0 3 2 4 4 4 3 0 5-2 5-4m16-27c0-3-2-5-5-5-2 0-4 2-4 5s2 5 5 5c3-1 5-3 4-5m95-304c0-3-3-5-6-5s-5 2-5 5 2 6 5 6 6-3 6-6m36 77c3 0 6-2 6-5-1-4-3-6-6-6s-5 3-5 5c0 3 2 6 5 6m-145 34c0-3-3-5-6-5-3-1-5 2-5 5s2 6 5 6 6-3 6-6m77-75c4 0 6-3 6-6s-2-6-6-6c-3 0-5 2-5 5-1 4 2 7 5 7m-200 154v2l1 1v-1l2-3c0-2 1-2 2-2l9-3c2-1 2-1 2 1v2h1v-1c1-4 3-6 6-8 4-1 7-4 10-6l2-1h1v1l-4 12c-1 2-1 3-3 3l-5 2v2h1l2-1h2v2l-3 3c-4 5-7 11-8 18l-2 3c-2 1-2 2-1 4l4 2 3-3c-1-2 0-3 1-5a45.2 45.2 0 0 0 8-19l1-3c2 0 1 1 2 2v1l1 1 1-1-1-5v-5l6-10 1-1 1 1 2 16-1 5-1 3h1l1-1h2l3 9v4l-1 3v1l1-1 3-2 1 3 1 2 2 5 1 2v-2l-2-7-1-3c2 0 2 1 3 2h2v-1l-4-4-2-2-2-11v-1h4l-1-1-3-1-2-3-5-15v-1h1l3 2c3 1 6 2 6 6h2v-1l2-1 6 1c2 0 2 0 3 2l1 3h1v-2l2-1 8 5c2 1 6 1 8 4h1c1 1 3 0 3-1v-4l-3-1h-2l-10-4-5-1v-1l1-2s1 0 0 0v-1l-3 2h-4l-6-5 1-1v-1h-1l-2 1h-2l-8-3h-1l1-1 14-4h1c1-1 2 0 3 1l3 2h1v-1l-1-2c-1-1 0-1 1-2 3 0 7-1 10-3h2l5 3h1v-1l-4-3 1-1 8-3c1 0 2 0 2-2h-2l-6 2-3 1-1-1 1-4v-1h-1l-3 5-2 2c-4 0-7 1-11 3v-5l-2 2-1 3-2 2-16 5-1-1 3-11 2-2 6-3 2-1-3-1-3 2h-1v-1l2-4 4-5c4-5 6-11 7-17l3-4 1-3c0-2-2-3-4-3s-3 2-3 4l-1 3-3 6c-3 4-5 9-6 14l-2 8h-1l-2-4-1-1h-1v3l2 6v2l-6 10-1-1-7-15v-3l2-5v-1l-1 1-2 2-1 1v-1l-5-9v-3l2-6h-1l-3 4h-1l-2-5-3-5-1-1v2l2 5 2 5h-6l1 1 5 2 2 2 3 9 1 1-1 1h-1l-2 1 2 1h2c2 0 2 1 3 2l7 15v1l-1-1-4-2c-3-2-5-3-6-6v-1l-1 1c0 2 0 2-2 2l-6-2c-1 0-2-1-2-3l-1-3h-1v2c0 2-1 2-2 1l-5-4-6-3-4-2-2-2-3 2c-1 1 0 3 1 4l3 1h2l7 4 5 1 2 1-1 3v1h1l2-2h3l6 6v1l-1 2 1 1 2-1h3l8 2v2l-14 6h-6l-2-1h-1v1l2 1v1l-9 5-5 1h-4v1l3 1-2 2-5 1-3 2 1 1 8-3 3-1v2m308-43v21c0 2-1 3-3 4l-4 1v-4l1-17v-3l-1-1h-1v2c-2 8-4 15-4 23 0 2-1 3-2 3l-13 5c-2 1-2 1-2-1 2-11 2-22 0-33v-2l-1 1-1 3c-1.8 12.3-3.5 24.6-5 37l-10 5h-1v-28l-1-1-1 1-1 6c-2 9.6-3.6 19.3-5 29-7 5-16 9-24 12l-2 1-1-1v-5l3-20 1-9c0-2 1-2 2-3l21-12 2-2h-3l-18 8-2 1h-2l-1-14 1-1 2-1 26-14 5-4-7 1c-9 3-17 7-25 12l-1 1h-1v-16l1-2 4-1 15-10 1-2v-1l-3 1-13 7-2 1h-1v-4l1-15-1-7-1-1-1-1-2 1-1 2c-2 7-2 14-2 21v4h-1l-12-9c-2-1-3-3-6-2l4 4c4 5 9 8 14 11 2 1 2 2 2 4 1 4 0 9-1 14l-1 1c-7-6-15-10-23-14l-8-4h-1v1l4 4 25 16 2 1 1 2v1l-2 12c0 2-1 2-2 1-6-5-12-8-18-11h-4l2 3 18 11 2 1 1 3 1 24 1 10c0 1-1 2-2 1h-1c-9-4-17-9-24-16-2-1-2-2-2-4l1-22-1-6v-2l-1-1-1 1-2 12v16h-2c-3.7-2.9-7.4-5.9-11-9v-35l-1-3h-1v2l-1 6c-2 8-3 17-2 26 0 2 0 2-1 1l-13-6c-2-1-2-1-2-3 .6-8.7-.1-17.5-2-26h-2v3l-1 21c1 1 0 2-1 1l-9-6-5-5-10-4h-2l-1 2 2 2c2 3 5 5 9 7l6 3 8 4v2l-15 6-5 4-1 1 1 1 3-1c7.2-2.2 14.2-4.8 21-8h2l11 9c2 1 2 1 0 2l-20 10-6 4-3 2-1 1 2 1 4-2 11-4 21-9 11 7v1l-10 4a57.7 57.7 0 0 0-13 10s-1 0 0 0v1l2-1 26-11h3c9 3 17 8 24 14v2l-13 8-11 7h-4c-7-6-16-10-25-13h-1l3 3 17 11 3 1v1l-3 2-13 5-4-1-29-17-1-1-1 1 2 3 7 6 15 10 2 1v2l-10 6h-4l-15-7-6-2-1 1 1 1 2 2 12 6 3 2v1l-7 5-13 10-2 1v1h3l15-6 7-4 2 1-1 9v13l1-2 3-12 1-10 2-3 12-6 2 1-1 3v25l1 8v1l1-1 3-19v-19l2-3 13-9h1l1-1v1l-1 3a84 84 0 0 0-1 30h1l1-3c3-10 5-21 4-32 0-1 0-2 2-2l9-5c6-2 12-3 17-6 1-1 2-1 1 1l-2 11a400 400 0 0 0-4 19l-13 9-10 9v1h1l2-2 19-12 2-1h1l1 4 1 11c0 1 0 2-2 3-10 5-20 12-30 19l-3 2-1 1 2 1 2-1 24-13 7-5 1-1v3l-1 15c0 2-1 3-3 5l-16 11-3 4v1h1l4-1 12-9 2-2h1v22c0 2 0 3-2 3-19 13-38 24-61 28-7 2-14 2-21 0-10-2-20-5-29-9a250.6 250.6 0 0 1-93-77c-9-16-17-32-23-49-5-13-7-27-9-41-2.6-29.4-1.2-59 4-88l10-36c4-16 11-31 19-46l20-35 1-2h1v34l1 1 1-1 2-11 1-26v-2l1-1 15-10v-1h1v1l-2 8v25h1l1-3c3-10 4-21 4-31 0-2 0-3 2-4l9-4c6-2 12-3 17-7h1v1l-2 12a400 400 0 0 0-4 19l-13 9-9 8-2 1v1h1l11-6 13-9c1-1 1 0 1 1l2 14-2 3-30 18-4 3v1l1 1 2-1c9-4 18-8 26-14l6-4h1l-1 8-1 10-2 3a86 86 0 0 0-19 15l-1 2h1l4-1 13-9 2-2h1v2l-1 12a40 40 0 0 0 2 15h2l2-3 2-13 1-12v-1l1 1c5 5.1 10.7 9.5 17 13h1v-1l-2-3-15-14c-2-1-3-2-3-5v-17h1l2 1c8 8 18 15 28 20 1 1 2 2 3 1s-1-2-1-3l-29-22-2-1-1-3 3-14h1l3 1 17 14 3 2h1v-1l-4-4c-5-6-11-11-17-15-4-4-3-2-3-7l-1-20v-6l5 2 9 5 11 6c2 1 3 2 2 5v14l1 18 1 1v1l1-1v-2a89 89 0 0 0 1-30l1-1h1l3 3 9 8c2 1 2 2 2 4l-1 19v18l1 1h1l2-15 1-20v-1l2-1 4 2 7 5 2 3c-.2 7.4.5 14.8 2 22v2l1-2 1-13v-7h2l4 2 15 9 4 1h1v-1l-3-3-15-13c-1-1-3-1-3-3l3-1 13-6c1-1 3-1 3-3h-4c-6 1-12 3-17 6h-5l-9-6c-2-1-2-2 0-3l13-6 12-8 3-3-1-1-4 2-31 14-16-9 1-1 13-7 9-5 1-1h-1c-9 2.4-17.7 5.7-26 10h-3l-11-8-12-9v-2l10-6 15-6 3 1c8.6 5.4 17.6 10.1 27 14v-1l-2-2c-5-5-11-9-17-12l-2-2h-1v-1l13-6 2 1c9.5 5.6 19.2 10.9 29 16 1 1 2 2 4 1 0-2-2-3-3-4-7-6-14-10-22-15l-3-1v-2c1-1 3-2 6-1a353.2 353.2 0 0 1 46 21 1826 1826 0 0 1 31 24c9 9 17 19 23 31l13 23c8 15 16 30 20 46a574.7 574.7 0 0 1 17 72v20"/>
    <path fill="#9BADFA" d="m478.4 546-1 11-1 4-16 18h-2l-10-8-19-16 3-14h1l12 9 10 8 1-1-6-7-16-14-2-4c1-7 0-14-1-21v-6h1l16 8 9 5 2 4-1 16 2 17v1l1 1v-1l1-2c1-9 2-18 1-28v-3h1l4 3 8 7c2 1 2 2 2 4v9m12-42-2 1c-8.3 2.2-16.3 5.2-24 9-3 2-3 2-6 0l-10-7-11-9v-2c8-5 16-9 25-12h3a183 183 0 0 0 28 14l-3-3c-5-5-11-9-17-12l-3-1v-1l2-1 10-5h4l19 12c2 1 2 2 2 4l-10 28-3 3-10 5h-2l-15-8v-2l13-6 8-4 2-2v-1m-63 68 1-10h1c8 8 16 13 25 19h2v3l-9 8-3 2h-2l-5-4-8-7-1-3-1-8m-99-376v2l-2 3c-8 6-17 10-27 13-1 1-2 1-1-1v-4c1-5 0-4 5-7l21-8 3-1 1 1v2Zm183 272-2 14-2 1-1-1-16-10v-1l12-8 3-1 5 3 1 3m-250-233-3-3v-1l4-3 19-13h3l1 1 3 3-4 1-9 6-12 8-2 1m167 363v-9l1-1 10 9v2l-12 7 1-8m-83-410v1l-11 7-1-1v-2l1-2c4-1 7-3 11-3m-51 23v-3h-2l-5 2 1 2 4 2c1 1 2 0 2-1v-2m189 333v-5l3 1v1l-4 6 1-3m29-86v2h-2l-2-1v-1l2-1h2v1m-256-221-3 1v-1l1-1 2 1m235 292 1 1-1 2-2-1 2-2"/>
    <path fill="#FFF" d="M205.4 472v-2l-3 1-8 3-1-1 3-2 5-1 2-2-3-1v-1s-1 0 0 0h4l5-1 9-5v-1l-2-1v-1h3c2 2 4 1 6 0l14-6v-1l-8-2h-6v-1l1-1v-1l-6-6h-3l-2 2h-1v-1l1-3-2-1-5-2c-2 0-5-1-7-3h-2l-3-1c-1-1-2-3-1-4l3-2 2 1 4 3 6 3 5 4c1 1 2 1 2-1v-2h1l1 3c0 2 1 3 2 3l6 2c2 0 2 0 2-2l1-1v1c1 3 3 4 5 5l5 3h1l-7-15c-1-1-1-2-3-2h-2l-2-1 2-1h1l1-1-1-1-3-9-2-2-5-2-1-1h6l-2-5-2-5v-2l1 1 3 5 2 5h1l3-4h1l-2 6v3l5 9v1l1-1 2-2 1-1v1l-2 5v3l7 15 1 1 6-10v-3l-2-6v-2h1l1 1 2 4h1l2-8c1.6-7.2 4.7-14 9-20l1-3c0-2 1-4 3-4s4 1 4 3l-1 3-3 4c-1 6-4 12-7 17l-4 5-2 3v1l1 1 3-2 3 1-2 1-6 3-2 2-3 11 1 1 16-6 2-1 1-3 2-2v4s0 1 0 0l11-2 2-2 3-5h1v1l-1 4 1 1 3-1 6-2h2l-2 2-8 3-1 1 4 3v1h-1l-5-3h-2c-3 2-7 3-10 3-1 1-2 1-1 2l1 2v1h-1l-3-2c-1-2-2-2-3-1h-1l-14 4h-1l1 1 8 3h2l2-1h1v1h-1v2l10 4 3-2v1l-1 2v1l5 1c4 1 7 2 9 4h3l3 1v4c0 1-2 2-3 1h-1c-2-3-6-3-8-4l-8-5h-2v3h-1l-1-3c-1-2-1-2-3-2l-6-1-2 1v1h-2c0-4-3-5-6-6l-3-2-1-1v2l5 15 2 3 3 1 1 1h-5l3 12 2 2 4 4v1h-1l-1-1-3-1 1 3 2 7v2l-1-2-2-5-1-2-1-3-3 2-1 1-1-1 2-3v-4l-3-9h-2l-2 1 1-4 1-4-3-16v-1l-1 1-6 10-1 5 2 5-1 1-1-1v-1c-1-1 0-2-2-3l-1 4-1 2c-1 6-4 12-7 17l-2 5c1 1 0 2-2 3l-4-2c-1-2-1-3 1-4l2-3c1-7 4-13 8-18l2-3 1-2h-2l-2 1h-1v-2l5-2 3-3 4-12v-1h-1l-2 1-10 6c-3 2-5 4-6 8v1h-1v-2c0-2 0-2-2-1l-9 3c-1 0-2 0-2 2l-2 3v1l-1-1v-2m200-154c-3 0-6-3-6-7 1-3 3-5 6-5 4 0 6 3 6 6s-2 6-6 6m-77 75c0 3-3 6-6 6s-5-3-5-6 2-6 5-5c3 0 6 2 6 5m145-34c-3 0-5-3-5-6 0-2 2-5 5-5s6 2 6 6c0 3-3 5-6 5m-36-77c0 3-3 6-6 6s-5-3-5-6 2-5 5-5 6 2 6 5m-95 304c1 2-1 4-4 5-3 0-5-2-5-5s2-5 4-5c3 0 5 2 5 5m-16 27c0 2-2 4-5 4-2 0-4-1-4-4 0-2 2-4 4-4 3 0 5 1 5 4m23-228c-2 0-4-1-4-3s2-3 3-3c2 0 4 1 4 3s-1 3-3 3m-129-49c0 1-1 2-3 2-1 1-2 0-2-2l2-2c2 0 3 1 3 2m55.4 226 2.8 2.8 2.8-2.8-2.8-2.8-2.8 2.8Zm-6-19.1c0 .4-.2 6.8-.1 13.3-6.8.5-5.7-13.3-5.3-15 .2-1.4-4.4 1.7-6.6 3.8.7 1.3 1.7 1 2.9.5-.4 6.2 3.9 11.8 9 11.7.2 6.4.9 12.5 2.7 13 .2.1.4-6.5.6-13.7 12.2-3.8 7.6-18.3 7.6-18.3-.2-.8-2 .3-6 3.9 1.6 1.7 2.3.7 3.6.3 1 1.9 1.4 10.5-5.1 13.1l.3-18c0-.2-.2-.3-.4-.3-1.8.2-5 3.4-7.5 6.1 1.3 2.2 3 .2 4.4-.4"/>
  </g>
</symbol></svg>
