<svg xmlns='http://www.w3.org/2000/svg' viewBox='0 0 696 830' fill='none'><symbol id='Benin_Fill'>
  <g fill="none">
    <path fill="#9D432C" d="m591 427-1 34-2 24-3 24c-3 25-10 49-21 72a320 320 0 0 1-74 98c-22 20-47 32-75 39l-29 6c-14 1.7-28 3-42 4l-24-3-26-4a173.4 173.4 0 0 1-82-38 294.3 294.3 0 0 1-88-122c-5-14-8-28-10-42l-5-41a399.3 399.3 0 0 1 0-107c3-32 11-63 23-92l11-28c6-17 15-33 26-48l24-33a207.1 207.1 0 0 1 82-55l29-10 22-3 20 1h5l19-1c8 0 15 1 23 3 19 6 38 12 55 21 22 11 40 25 56 44a488.3 488.3 0 0 1 46 72l21 53a272 272 0 0 1 18 84l2 48"/>
    <path fill="#FFF" d="m572 439-1-14c-2.4-24.7-5.1-49.4-8-74-3-15-7-30-12-44l-20-51c-4-12-10-23-17-34a552.6 552.6 0 0 0-34-45c-13-15-28-27-47-33-20-8-42-14-64-17l-19-1h-4l-13 1-16 2c-9 1-17 4-25 6-11 3-22 6-32 11-8 3-16 7-22 12-9 6-17 14-24 22a503.2 503.2 0 0 0-47 76l-12 31-10 28c-8 21-12 44-15 66l-2 32c-1.5 24-1.2 48.1 1 72l7 35c9 39 28 73 54 103 12 15 26 28 40 40 16 13 33 23 53 30 13 4 27 6 41 9l9 2h24l17-2 48-12c19-7 36-17 51-31l22-22a236.2 236.2 0 0 0 61-98 394 394 0 0 0 16-100m6-18-1 35-3 24-3 25c-2 21-7 42-17 62a286.6 286.6 0 0 1-78 101c-18 16-39 26-62 32l-29 6c-13.6 1.7-27.3 3-41 4l-23-3-26-4a162.2 162.2 0 0 1-76-37 274 274 0 0 1-83-118c-4-11-7-23-8-35-3.5-30.6-6.2-61.3-8-92 .4-22.1 2.4-44.2 6-66 3-23 10-46 19-68l13-34c5-11 10-22 17-32l28-38c15-17 33-31 53-41 11-6 23-10 35-14l19-6 17-2 20 1h4l17-1 24 3c17 5 33 11 48 18 20 9 37 22 51 38a373.6 373.6 0 0 1 47 71l20 51c9.2 23.4 14.9 48 17 73l3 47"/>
    <path fill="#FFF" d="M514 439v-11h-1c-2 0-3 2-4 4v3l1 19h2l2-1v-14m-69 23v6l2 2 16 6h1l1-1 2-6c-1-3-2-6-1-9 0-2-1-2-2-2l-12-2h-7v6m58 21h5c2 0 2 0 2-2 1.2-6.6 2.2-13.3 3-20 0-2 0-3-2-2h-12c-1 0-2 0-2 2 1 3 0 7-1 10v3l1 8 1 1h5m-10-21v-3l-1-1c-4 0-7-2-11-1l-6 2h-4v4l-1 2v11l2 2 11 3 8 1 2-1 1-6v-5l-1-8m-312-27 1 24 1 5 1 1 10-2v-2c0-7 0-15 2-22v-10l-2-9-2-26v-7l-4-7h-2v1l-4 21-1 33m14 36-10-1-1 1v2c3 17 8 34 15 50l1 1 1 1 10-3c1 0 2 0 2-2-1-5 0-11 1-16v-7c-2-4-2-9-2-14l1-11-1-2-17 1m93 15v-14c0-4 0-3-3-3h-2l-20 3h-5v7c1 6 1 13-1 19v11l1 11c0 2 0 2 2 2l14 3 11 3c1 1 2 1 2-1l1-13v-28m-49 34 5 1 8-1 1-12v-11l-1-11v-12c0-1 0-2-2-2l-17-2-11-1c-4 1-4 1-4 4 1 8 2 16-1 24v7l1 14c0 3 1 3 3 3h4l14-1m109 123 7-1 22-6c12-5 24-11 35-18v-1c-10-3-20-4-31-3l-23 4-25 6c-10 2-20 3-30 2l-7-1 2 2 24 10 15 4 11 2m21-432 2 12c1 4 4 8 7 11 5 4 10 6 16 7l12 2 8 1c6 1 11-1 15-6l5-7v-2l-3-2-21-15-12-7c-8.7-4.3-17.8-8-27-11l-2 1v16m145 203v-8h-1l-1 3-1 4h-1l-2-6v-11l-1-3-1 4c-1 8-4 15-8 21l-1 1-1 1-1-1 1-6 2-12v-1l-1 1-1 1-5 8c-1 3-4 5-6 6h-1v-1l3-9c3-5 4-11 6-17v-1l-1 2a92 92 0 0 1-24 29l-2 2-1-2 2-3 8-10 2-4h-1l-2 2a73.7 73.7 0 0 1-18 11l-2 1-2-1v-1l2-4 6-6 1-1h-1l-15 8-1 2 1 12c0 6 1 12-1 17l-1 3 1 7 1 1 18 1c5-1 10-1 16 1h9l14-1c2 0 2-1 2-2l1-4-1-5v-1c-1-4-1-8 1-12 2-3 4-5 8-6l1-2v-8m-225-22v-19l-2-2v-1c-14-5-25-12-36-21l-1-1h-1v1l4 4 17 16 10 11 1 2-1 1-3-2-15-10-25-20-4-4c0 2 2 3 3 5l1 3 23 31 11 16 1 1v1h-1l-1-1-20-18a230.7 230.7 0 0 1-29-37h-1l2 4c4 12 10 23 15 34l6 15 1 1v1h-1l-1-2-9-12-14-23-1-2-1 1v4c1 9 2 19 1 28l-1 6h-1l-4-15-4-21-4-19h-1l1 5 1 16 1 8v1h-1l-4-13-4-14-3 15-2 6h-1v-5l1-5-1-1v1l-3 12v2c6 3 9 8 10 13l2 11c1 10 2 20-1 30v9l2 24 1 2 15 1c6 2 12 2 18 1l13-2h39l1-1v-5c0-9 0-17 2-26v-12l-1-29m-66 137-12 1h-6c-2 1-2 1-1 2l5 12c6 12 14 23 24 33 12 13 25 25 41 35l5 2c20.3 1.9 40.8 1.6 61-1l34-4c11 0 22 0 33 3l9 2h3l2-1c22.6-15 42.2-33.9 58-56v-1l-3-1-17-1h-29l-22 2-25 2c-14 1-28 1-42-1-12-2-25-5-37-10l-17-7c-21-8-42-12-64-11m95-83-13 1-8 1-1 2v32c0 8-1 17-3 25l-1 12 1 10c0 2 0 2 2 3l13 5c22 9 45 13 69 14 14 1 29 0 43-1l32-1 27 3c3 1 3 1 4-1l6-11 7-16 7-17 6-20-1-1h-12c-29.5-1-58.6-7.1-86-18l-41-14c-17-5-34-8-51-8m-13-241h-4l-7 2-6 4-13 8c-15 11-17 12-29 27l-10 14-12 20v3l1 1a472 472 0 0 0 96 54l17 8 3 3h1l-1 1h-2l-17-4-42-14-13-6h-1v1l5 3c10 7 21 13 33 18l13 7 15 8 1 1h-2l-14-2a228.4 228.4 0 0 1-44-15l1 1 24 16 16 8 8 5 2 2h1l-1 1h-2l-12-2-13-4-1 1 1 15c0 11 0 21-2 32-2 7-1 14 0 20l2 1 14-2c15 0 30 1 45 4l26 6 54 15 2 1c1 1 2 0 2-1v-14c2-3 1-7 0-10v-14l-1-15-2 1-5 2-1-1 1-1 5-4 20-15 2-1v-2l-1 1h-1c-8 5-17 8-26 12l-6 2v-1l5-4 29-17c11-6 21-14 30-23l9-10c3-3 3-3 2-7-5-17-11-34-20-49l-21-37c-5-9-12-17-19-24h-1c-4 5-9 8-15 9l-11 3-3 1c-6 2-11 2-16-1-5-1-9-4-13-7l-16-19-1-2c-3-6-3-12-1-19l3-6-1-2-10-3c-3-1-6-2-10-1l-5 1-28 10-4 2 4 1h18l19 3h3l1 1-2 1h-3l-11 1-17-2c-3-1-6-2-9-1h-6m217 216a285 285 0 0 1-19 100l-14 30c-4 9-9 17-15 25-11 13.6-23.4 26-37 37-12 9-26 17-40 23-12 5-24 9-36 11-8 2-15 2-23 1-15-3-30-7-43-14-12-5-23-12-33-18-14.4-9.6-27-21.8-37-36-8-10-15-20-20-32l-16-35c-9.2-23.3-14.3-48-15-73v-26c-1-17 2-34 6-50l8-30c9-27 22-52 40-75l12-14 8-10c7-9 15-17 24-24 10-8 21-15 32-19 12.8-5.4 26.2-9.1 40-11 5-1 10 0 15 1 16 3 30 8 44 15 5 3 11 6 15 10 10 8.6 19.7 17.6 29 27l8 10 18 21c18 25 31 52 38 82l6 26c4 13 5 27 5 41v7"/>
    <path fill="#9D432C" d="M365 238h-1l-4 2-10 7-15 13-7 6-6 3-7 5-5 5v2h2l8-5 8-8 9-5c5-2 8-5 12-8l3-3 9-9 3-3 1-2m18 87h1v2l2-1c1.2-2.5 1.9-5.2 2-8l3-12 3-8 3-18 2-11 1-5v-3l-1-1h-1l-2 5-5 16-3 15-1 14-2 9-2 6m91-2-1-3c-1-5-3-11-7-15-5-6-8-12-11-19l-4-11c-2-5-5-10-9-14l-3-3h-1l-1 1 1 4c4.7 8.8 9.7 17.5 15 26 4 4 6 9 8 14l3 7c1 4 3 8 6 11l2 2h2M305 205h6c3-1 6 0 9 1l17 2h10l4-1 2-1-1-1h-3l-19-3h-18l-4-1 4-2 28-10 5-1c4-1 7 0 10 1l10 3 1 3-3 6c-2 6-2 12 1 18l1 2 16 19 12 8c6 2 11 2 17 0l2-1 12-3c6-1 11-4 15-9h1c7 8 14 15 19 24l21 37c8 16 15 32 20 49 1 4 1 4-2 7l-9 10c-9 9-19 17-30 23l-29 17-5 4v1l6-2c9-3 18-7 26-12h2v1l-2 1-20 15-5 4v2l5-2 2-1 1 1v3c.2 8.3.2 16.7 0 25v10l-1 8 1 6c0 1-1 2-2 1h-2l-54-16-26-6c-20-4.4-40.6-5.4-61-3-1-6-2-13 0-20 2-11 2-21 2-32l-1-15c-1-1 0-1 1-1l13 4c4.6 1.3 9.3 1.9 14 2v-1c1 0 0 0 0 0l-2-2-8-5-16-8a184.3 184.3 0 0 1-26-17l1-1 2 1c17.6 7.9 36 13.6 55 17 2 0 1-1 1-1l-14-8-14-7c-11-5-22-11-32-18l-5-3v-1h1l13 6 42 14 17 4h2v-1c1 0 0 0 0 0l-3-3-17-8a670.5 670.5 0 0 1-96-54l-1-1v-3l12-20 10-14c12-15 14-16 29-27l13-8 6-4 7-2h4"/>
    <path fill="#9D432C" d="M318 446c17 0 34 3 51 8l41 14a344.5 344.5 0 0 0 64 16l22 2h12l1 1-6 20-7 17-7 16-6 11c-1 2-1 2-4 1l-27-3-32 1c-14 1-29 2-43 1-24-1-47-5-69-14l-13-5c-2-1-2-1-2-3l-1-10 1-12c2-8 3-17 3-25v-32l1-2 8-1 13-1"/>
    <path fill="#9D432C" d="M223 529c23 0 43 3 64 11l17 7c12 5 25 8 37 10 14 2 28 2 42 1l25-2 22-2h29l17 1 3 1v1l-2 3-11 14c-13 15-28 28-45 39l-2 1h-3l-9-2c-11-3-22-3-33-3l-34 4a231.7 231.7 0 0 1-66-1c-16-10-29-22-41-35-10-10-18-21-24-33l-5-11c-1-2-1-2 1-3h6l12-1m66-137 1 29v12c-2 10.2-2.7 20.6-2 31l-1 1h-3l-36 1-12 1c-7 1-13 1-19-1l-15-1-1-2-2-24v-9c3-10 2-20 1-30l-2-11c-1-5-4-10-9-13-1 0-2-1-1-2l3-12v-1l1 1-1 5v5h1l2-6 3-15h1l3 14 4 13h1l-2-25-1-5h1l4 19 4 21 4 15h1l1-6c1-9 0-19-1-28v-4h1l1 1 14 23 9 13h2l-7-16c-5-11-11-22-15-34l-2-4h1l1 1a227.2 227.2 0 0 0 50 54l-1-1-11-16-23-31-4-8 4 4a234.6 234.6 0 0 0 44 32v-1l-1-2-10-10-17-17-4-4v-1h1l1 1c11 9 22 17 36 22 1 0 2 1 2 3v18m225 31-1 1c-4 1-6 3-8 6-2 4-2 8-1 12v1l1 5-1 4c0 1 0 2-2 2l-14 1h-9c-5-2-11-2-16-1l-18-1-1-1-1-4 1-6c2-5 1-11 1-17l-1-12 1-2 15-8h1l-1 1-6 6-2 4v1l2 1 2-1a80 80 0 0 0 20-13h1l-2 4-8 10-1 4h2l5-4c7-8 14-16 19-26l1-2v2c-2 5-3 11-6 16l-3 9v1h1c2-1 5-3 6-6l5-8 1-1 1-1v1l-2 12-1 6h2l1-1c4-6 7-13 8-21l1-5 1 4v11l2 6h1l1-4 1-3h1v17M369 195l1-1 3 1a202.9 202.9 0 0 1 37 17l21 15 3 2v2l-5 7c-4 5-9 7-15 6l-8-1-12-2c-6-1-12-3-16-7-3-3-6-7-7-11l-3-13 1-15"/>
    <path fill="#9D432C" d="m348 643-11-2-15-4-24-10-2-2 7 1c10 1 20 0 30-2l25-6 23-4c10.4-.8 20.9.2 31 3v1a177 177 0 0 1-57 24l-7 1M225 521h-4c-3 0-3 0-3-2l-1-15v-7c3-8 2-16 1-24 0-3 0-3 4-3h11l17 2c2 0 2 1 2 2v12l1 11v11l-1 12-2 1h-25m63-35v28l-1 13c0 2-1 2-2 1l-11-3-14-3c-2 0-2 0-2-2l-1-11v-11c2-6 1-17 1-19v-7c1-2 5-1 7-1l18-2h2c3 0 3 0 3 3v14m-76-16 1 2-1 12c0 4 0 9 2 13v7l-2 17c1 1 0 1-1 1l-10 3-1-1-1-1c-7.6-16.5-12.6-34-15-52l1-1h27m-31-35c.4-18.1 2-36.1 5-54v-1h2l4 7v7l2 26 2 10v10c-2 7-2 14-2 21v2l-1 1h-10l-1-5-1-24m312 27 1 8v5l-1 6-2 1-8-1-11-3-2-2c-1-4-2-5 0-9v-7l1-1h4l6-2c4-1 7 1 11 1l1 1v3m4 20-1-8v-3c1-3 2-7 1-10 0-2 1-2 2-2h12c2-1 2 0 2 2l-1 8c-1.1 4.6-2.1 9.3-3 14h-11l-1-1m-52-26h7l14 4c-1 3 0 6 1 9v2l-1 4-2 1h-1l-16-6-2-2v-12m69-17v14l-2 1h-2l-1-19v-3c1-2 2-4 4-4h1v11"/>
    <path fill="#FFF" d="M474 323h-2l-2-2c-3-3-5-7-6-11l-3-7-7-14-7-9c-4-5-7-11-9-17l-1-4c0-2 2-2 2-1l3 3c4 4 7 9 9 14l4 11c3 7 6 13 11 19 4.2 5.2 7 11.4 8 18m-89-4 2-9 1-14 3-15c2.9-6.8 5.2-13.8 7-21 1-1 2 0 2 1v3l-1 5-2 11-3 18-3 8-3 12-1 4-1 4s-1 2-2 1l-1-2 2-6m-21-79-3 3-9 9-3 3c-4 3-7 6-12 8l-9 5c-5.2 4.5-10.5 8.8-16 13h-2v-3l5-4 7-5 6-3 7-6 15-13 10-7 4-2s2 0 0 2m98.3 265.3c0 .4-.3 6.8-.2 13.3-6.8.5-5.7-13.3-5.3-15 .2-1.4-4.4 1.7-6.6 3.8.7 1.3 1.7 1 2.9.5-.5 6.2 3.9 11.8 9 11.7.2 6.4.9 12.5 2.7 13 .2.1.5-6.5.6-13.7 12.2-3.8 7.5-18.3 7.5-18.3-.2-.8-2 .3-6 3.9 1.6 1.7 2.4.7 3.6.3 1 1.9 1.4 10.5-5.1 13.1l.3-18c0-.2-.2-.3-.4-.3-1.8.2-5 3.4-7.5 6.1 1.4 2.2 3 .2 4.5-.4m5.9 19.1 2.8 2.8 2.8-2.8-2.8-2.8-2.8 2.8Z"/>
  </g>
</symbol></svg>
