<svg xmlns='http://www.w3.org/2000/svg' viewBox='0 0 30 30' fill='none'>
<symbol id='Bidet'>
<path d="M24.1117 10.4569H18.6567L18.7766 9.66722C18.8565 9.11745 18.4868 8.60766 17.9373 8.5277C17.3778 8.44773 16.8783 8.82757 16.7984 9.36735L16.6385 10.4469H15.8093V5.51895C15.8093 5.23907 16.049 4.99917 16.3288 4.99917C16.6085 4.99917 16.8483 5.23907 16.8483 5.51895V6.15868C16.8483 6.70845 17.2979 7.15827 17.8474 7.15827C18.3969 7.15827 18.8465 6.70845 18.8465 6.15868V5.51895C18.8465 4.12953 17.7175 3 16.3288 3C14.9401 3 13.8111 4.12953 13.8111 5.51895V10.4469H13.2916L13.1317 9.36735C13.0518 8.81758 12.5322 8.44773 11.9927 8.5277C11.4432 8.60766 11.0736 9.11745 11.1535 9.66722L11.2734 10.4569H5.8683C4.83924 10.4569 4 11.2965 4 12.3261V15.3449C4 16.2945 4.71935 17.0741 5.63851 17.1941C6.09809 18.1737 7.12716 20.0329 8.67575 21.0925C8.32607 22.222 7.76658 24.3111 7.76658 26.0004C7.76658 26.5502 8.21617 27 8.76567 27H21.2343C21.7838 27 22.2334 26.5502 22.2334 26.0004C22.2334 24.3111 21.6639 22.222 21.3242 21.0925C22.8728 20.0329 23.9019 18.1737 24.3615 17.1941C25.2807 17.0741 26 16.2945 26 15.3449V12.3261C26 11.2965 25.1608 10.4569 24.1317 10.4569H24.1117ZM5.98819 12.4561H23.9818V15.2249H5.99818V12.4561H5.98819ZM19.7057 19.713C19.2262 19.9229 18.9864 20.4727 19.1662 20.9625C19.1662 20.9925 19.9255 23.1116 20.1553 25.0008H9.8247C10.0545 23.1116 10.8038 20.9825 10.8138 20.9625C10.9936 20.4627 10.7539 19.9229 10.2743 19.713C9.30518 19.2932 8.47593 18.1837 7.90645 17.2241H22.0736C21.5041 18.1937 20.6748 19.2932 19.7057 19.713Z" fill="currentColor"/>
</symbol>
</svg>
