<svg xmlns='http://www.w3.org/2000/svg' viewBox='0 0 30 30' fill='none'>
<symbol id='BocceBall'>
<path fill-rule="evenodd" clip-rule="evenodd" d="M11.9285 7.74907C13.7389 3.67674 18.43 1.87711 22.3909 3.72816L22.3809 3.71788C26.3418 5.57922 28.0922 10.4023 26.2918 14.4746C24.9915 17.426 22.1808 19.2256 19.1402 19.2256C19.0801 19.2256 19.0176 19.2205 18.9551 19.2153C18.8926 19.2102 18.8301 19.2051 18.7701 19.2051C18.61 23.0717 15.8394 26.3214 11.9886 26.8767C11.6185 26.9281 11.2484 26.9589 10.8783 26.9589C9.16792 26.9589 7.51755 26.3933 6.13724 25.3238C4.45686 24.0178 3.36662 22.1153 3.07655 19.9661C2.78649 17.8168 3.32661 15.6778 4.59689 13.9501C5.86718 12.2225 7.71759 11.1015 9.80806 10.8033C10.2782 10.7416 10.7583 10.721 11.2384 10.7416C11.2884 9.71325 11.5084 8.69517 11.9285 7.74907ZM23.6012 7.19375C23.061 6.52532 22.3709 5.98028 21.5607 5.59979L21.5507 5.61007C19.1102 4.4583 16.2795 5.18844 14.6191 7.19375C16.2095 7.71822 19.7303 8.53063 23.6012 7.19375ZM5.067 19.6884C5.28705 21.2926 6.09723 22.7118 7.35751 23.6887L7.34751 23.6785C8.1677 24.316 9.10791 24.7068 10.0881 24.8508C9.66803 23.1951 8.44776 19.6987 5.26704 17.0558C5.01699 17.899 4.94697 18.7937 5.067 19.6884ZM6.20725 15.1944C10.3982 18.4852 11.7485 22.9997 12.1386 24.7788C13.5789 24.46 14.7892 23.6373 15.6194 22.5061C11.4184 19.2153 10.0681 14.7008 9.67803 12.9218C8.28772 13.22 7.06745 14.0221 6.20725 15.1944ZM11.7185 12.8498C12.1486 14.5157 13.3689 18.0019 16.5396 20.6345L16.5296 20.6242C16.7496 19.8529 16.8296 19.02 16.7396 18.1664V18.043C16.5496 16.6239 15.9294 15.3898 14.9392 14.4334C14.139 13.6622 13.1488 13.1377 12.0686 12.9115C12.0086 12.9012 11.951 12.8909 11.8935 12.8806C11.836 12.8703 11.7785 12.86 11.7185 12.8498ZM17.5098 14.3923C18.0399 15.2253 18.42 16.1611 18.63 17.1483C20.5405 17.3232 22.3909 16.521 23.6112 15.0402C22.4309 14.6494 20.1704 14.0941 17.5098 14.3923ZM24.6491 13.2294C23.6381 12.8489 21.6088 12.2533 19.0601 12.2533C18.0799 12.2533 17.0197 12.3459 15.9094 12.5721C15.1193 11.9037 14.209 11.4101 13.2288 11.1015C13.2288 10.3817 13.3489 9.67212 13.5989 9.01396C15.2693 9.63098 19.6903 10.8856 24.6414 9.01396C25.1191 10.3338 25.1512 11.8268 24.6491 13.2294ZM19.9704 23.4624C19.9704 25.4163 21.5107 27 23.4111 27C25.3116 27 26.8519 25.4163 26.8519 23.4624C26.8519 21.5085 25.3116 19.9248 23.4111 19.9248C21.5107 19.9248 19.9704 21.5085 19.9704 23.4624ZM21.9708 23.4624C21.9708 22.65 22.621 21.9816 23.4111 21.9816C24.2013 21.9816 24.8515 22.65 24.8515 23.4624C24.8515 24.2748 24.2013 24.9433 23.4111 24.9433C22.621 24.9433 21.9708 24.2748 21.9708 23.4624Z" fill="currentcolor"/>
</symbol>
</svg>
