<svg xmlns='http://www.w3.org/2000/svg' viewBox='0 0 696 830' fill='none'><symbol id='BODC_Outline'>
  <g fill="#9BADFA">
    <path d="M124.5 447.5v13l3 26a861 861 0 0 0 14 57c11 32.1 28.7 61.4 52 86 12 12 24.5 23.6 37 35a157.5 157.5 0 0 0 80 34c6 2 12 4 19 4l9 1c9 1 17 0 26-1l5-1 28-6c26-5 49-17 69-35l26-24a231.4 231.4 0 0 0 63-104l8-33c5.3-22.6 6.9-45.9 5-69a973.6 973.6 0 0 0-9-80c-3-17-8-32-14-48l-16-43c-5-14-12-26-20-38l-25-35a142.3 142.3 0 0 0-42-36l-13-6c-11-5-23-8-34-11l-31-5-14-1h-15l-23 3a353 353 0 0 0-70 24c-11 7-20 15-28 25a443.7 443.7 0 0 0-49 76l-15 39a327.8 327.8 0 0 0-25 120l-1 33m451-20-2 34-3 25-2 15c-2 24-8 47-19 69a299.7 299.7 0 0 1-68 90c-21 21-47 34-76 40l-25 5-18 3h-23c-10 0-20-2-30-4l-23-4a155 155 0 0 1-75-40l-22-22a252.1 252.1 0 0 1-63-122l-4-32-3-25a422.6 422.6 0 0 1-1-49l2-29a365.4 365.4 0 0 1 23-95l14-37 13-25 34-45 26-23c14-10 29-18 46-23 8-4 17-6 26-9 12-4 24-5 37-4l14 1c14-2 27-1 40 4l33 11c26.4 11 49.8 28 68 50 9 11 18 23 26 36 7 10 13 22 18 34l15 40c6 16 11 33 14 50l4 23 2 28 2 30"/>
    <path d="M226.5 277.5h-2l1 1 1-1m45-12v-1l-1-1h-1l1 1v1h1m173 202h-3v1h3v-1m-87 5v2h1l1-2v-1l-2-1v2m131-152v-1l-2-4h-1l-1 3 2 1 1 1h1m-124 147-4-1-1 1 2 2 3-2m47-2h-7l3 3 3-2 1-1m59 25v-5h-1l-4 4v2l5 6h1l-1-7m-9 10h7c0-2-2-3-3-5-3-3-3-3-6 0l-5 5h7m-239-195c-3-3-6-6-7-10h-1l-7 14-2 3 4-2 12-4h1v-1m38-74v-2h-1v1c-9 7-16 16-22 25v1-1l15-9 7-3 1-2v-10m170-2h-1l1 2 5 11a73.4 73.4 0 0 0 19 17h1v-1l-1-2c-6-9-14-18-22-25l-2-2m56 240c-1-3-3-4-5-2l-1 3v28l1 2c0 2 1 2 2 2l2-2v-11l1-12v-8m-1-55v-9l-1-3-2-2-2 2-1 3 1 9v44c0 1 1 2 3 2l2-2v-5c-2-7-2-13-1-19s2-13 1-20m-113 94 8-5 11-3h1l-1-1-11-8-20 14c-1 1-1 2 1 3h11m47-43-2 1-6 4-1 1 5 3 8 7c1 2 2 2 3 1l12-10v-2l-3-2-2-1-12-2h-2m-63 24v4l1 6c0 2 1 3 3 1l2-1 10-6 6-4v-2l-10-9c-7-5-4-5-10 1l-2 4v6m115-16-1-6c0-1-1-2-3-2h-2l-13 1-3 2-3 2-1 2 15 14h2l5-5c3-2 4-5 4-8m-29 28h-1l-19-13-3 3-11 11 11 4c3 2 3 2 8 1l1-1 13-4 1-1m-102-5v5c0 4 1 5 5 5 3 0 4-1 4-3l1-9v-25c0-2-1-3-3-3h-2c-2 0-3 2-4 4v2l-1 24m65-255 1 11c1 6 2 10 6 14 0 0 0 1 0 0h1v-1c-1-5 0-9 2-13l2-4c1-4 2-8 1-12l-2-5v-10c1-2-1-3-2-4-2-1-2-1-3 1-4 7-6 15-6 23m54 248-1-1-3-4-14-10-13 10v1l6 5 12 9h2l6-5 4-4 1-1m-110-80-1-7c0-2-2-3-3-3-2 0-4 2-4 4v8l-1 14-2 14 1 6 2 12 1 1c0 1 1 2 3 2s3 0 3-2l1-5-1-5c-2-9-2-18-1-26l2-13m54 61-3-3-6-2-8 1h-11c-6 0-6 0-9 5v2l17 12 20-14v-1m50-121 2 11h1c1-5 2-9 5-13l4-11 1-3c1-4 3-7 6-9l5-3 6-8v-4l-3-6-4 4-4 4c-7 7-12 16-16 26l-3 12m-175-110h3l2-1 3-5c2-2 2-5 2-7l-2-14-1-1-1 1-18 12-1 1-1 2v13l1 1 2-1 11-1m123 261 3-1 17-13v-2a1525 1525 0 0 0-16-11l-20 15v1l12 10 4 1m-70-15v-13c0-3-2-5-4-5l-9 1c-3 2-4 4-4 7v3l1 13v8c0 3 1 4 4 4l9-1c3-1 3-2 3-5v-12m112-213-6 1c-8 1-16 5-22 10l-1 1h1c6-1 11 0 16 2l3 1h11l7-1c6-1 12 0 17 3l3 2 2 1v-2l-5-9-3-2c-6-5-13-7-23-7m29 24c-6 0-13 2-19 4-9 2-15 7-21 14s-10 15-12 24h1c3.2-3.9 7.3-7 12-9 5-3 9-7 12-12l5-6c3-4 7-5 11-6l8-1 9-3v-3c-2-3-1-3-5-2h-1m-87 212c-5-1-8 1-12 4-2 1-2 2-1 4l9 12c3 4 6 5 10 6 2 0 4-1 5-3l1-2a42.8 42.8 0 0 1 14-15c1-1 1-2-1-3h-2l-15-2-8-1m-55-93v-6c0-3-2-4-5-4s-5 1-7 4l-2 4c-2 6-2 12-1 18 2 7 2 14 1 21v1c0 3 1 6 4 7h4c4 1 6 0 7-5v-1l2-11c1-3 0-6-1-9-2-6-2-13-2-19m15 226h7l24-7 14-6c2-1 2-3 0-4l-5-2c-7-2-14-3-21-2l-13 1a168.3 168.3 0 0 0-33 11c-2 1-2 2 0 3l3 1 12 4 12 1m-48-376h4l22-5v-1l-12-4-9-5-20-7c-7-1-13-1-20 2-11 4-21 10-30 19l-2 3 4-1 4-1 18-6c7-2 13-2 20 1l8 3 13 2m63 265 11 1 4-1v-2l-1-1-12-10-7-5-11-1-7-1c-9-1-18 0-26 5l-11 6-11 10-1 3c-1 3 0 4 3 4l10-1 24-4c12-1 23-3 35-3m-117-260-14 1-3 2 1 2 10 8c7 6 7 6 16 9 8 2 14 6 19 12l5 7 4 5c3 4 6 6 10 8l7 2a35.4 35.4 0 0 1 18 15l1-1v-3c-1-8-3-16-6-23-5-13-14-23-26-30l-25-11-17-3m207 272h5c9 0 17 0 26-2 3 0 5-2 7-5l4-10v-6a23.7 23.7 0 0 0-9-6c-12.8-6-27-8-41-6l-7 1c-4 1-8 2-11 5l-12 9-8 9c-2 3-2 5 2 6l3 1c14 3 27 5 41 4m-180-189c0-9-2-18-6-26-5-11-11-21-19-30l-10-10c-3-3-6-5-10-6-3-1-3-1-5 2l-2 5v4l5 8 5 6c3 3 6 7 6 12l1 3c1 6 4 12 8 16l3 3c5 6 7 14 6 22l-4 14-3 8c-2 9-2 18 1 26 1 6 4 11 6 16l2 2v-2l1-9 6-23 6-22c2-6 3-13 3-19m126 266 6-1c4 0 7-1 10-3l7-4c13-9 26-19 37-31l2-1c1-2 0-3-2-4l-3-1c-10.3-1-20.7-1-31 0l-13 2a147 147 0 0 0-32 8c-9 3-18 5-28 6-12 1-23 0-35-4l-14-5c-5-2-11-5-17-6-6-2-13-3-20-2l-18 4c-2 0-4 2-5 4l-1 3 4 5 10 9 28 19 15 9c3 2 6 2 9 0l3-1 15-5c8-3 16-5 24-5 11.7-.9 23.5-.2 35 2l14 2m74-199v-17c0-4-1-6-5-7h-2c-17-4-34-11-50-20-7-3-6-3-13 0l-10 6-27 10c-3 1-4 3-6 5l-1 6v10l1 13 1 10-1 11v6l1 3 5 2h4c11 0 23 0 34 2l13-1 42-1 2 1h8c5 0 7-3 7-7l-1-6-2-10v-16m-7 147c3 0 6 0 7-3 4-4 7-9 10-15 1-1 0-2-1-2h-3l-13 1c-12 0-25-1-37-3l-27-5a185 185 0 0 0-68 0l-32 4a93.8 93.8 0 0 1-43-5l-28-10c-8.7-3.2-17.8-5.6-27-7l-2 2v4l4 7 11 22c3 5 8 8 12 12 2 3 5 4 8 4l5-1 8-1c7-2 13-2 20-2h11l15 3c14.4 2.4 28.7 5.1 43 8 16.4 1.2 33-.2 49-4l33-8c12-3.3 24.6-4.3 37-3l8 2m-284-135v13c1 21.8 5 43.3 12 64 2 5 6 8 11 8l9 1 27 8 21 7 9 3 5-1c2 0 2-2 3-3 2-5 6-8 10-11l7-3 4-2 8-7 1-3 1-6-1-8 2-18v-15c-3-9-3-18-1-28l1-9v-9l-1-2c0-2 0-2-2-3h-5l-2-1 1-1 2-2 11-4 19-9c23.4-11.6 48.3-20 74-25a303.9 303.9 0 0 1 75 24l12 6c4.7 2.5 9.4 5.2 14 8l-1 2h-2l-5-1c-3-1-6 0-6 5l1 18c2 9 2 18 0 27-2 6-1 12 0 18l1 15 1 19c1 2 3 2 4 0l1-2 3-9c3-9 4-18 6-28 2.8-19.9 3-40 1-60-1-11-2-21-5-31l-8-31-4-14-2-3c-2-3-4-5-7-6-2-2-2-2-4 0l-6 4c-3 1-4 4-5 7l-1 3-4 8-2 3c-1 2-3 5-3 8v7l1 5-2 1h-1l-3-4-3-12c-1-10 0-19 5-27 3-7 7-13 13-18l1-1h-1l-6 1c-4 1-7 3-10 6l-4 4c-6 6-12 11-20 16-3 1-5 3-7 6l-1 1-2 1-1-2v-3l5-16c3-9 9-16 17-20l12-5c5-2 11-3 17-3h1l-1-1c-5-3-10-4-15-3l-3 1a35.8 35.8 0 0 1-21-1c-6-2-13-3-19-2h-1v-2l8-7a48 48 0 0 1 27-8l15 3 3 1h1v-1l-3-5-4-4c-6-2-12-5-17-10-9-7-15-16-15-28l-1-2-5-3v6l1 8 1 7-3 9-2 9v10l-2 2-3-3a57.8 57.8 0 0 1-10-19c-2.5-11.2-.7-23 5-33l1-3v-2l-13-7c-14-7-28-11-42-16l-9-1-8 2-12 4-27 11-4 2-1 2 1 8c1 8 0 15-5 21v2c6 1 12 4 17 7l12 5c4 3 9 5 14 6l1 1 1 1h-2c-8 4-15 7-24 9-6 2-13 2-19 0l-9-3-3-2-2 1v2l-1 3c-1 1-2-1-3-2l-2-3-1-2-2-1h-1l-17 5-1 1h1l9 1c10 1 20 5 29 10 16 10 26 23 31 40 2 7 4 13 4 20v6l-1 1-2-1-2-2c-4-6-9-10-15-13l-4-1-7-2c-5-2-9-5-12-9l-5-7-6-8c-4-5-9-8-16-9h-1l1 1 8 11 11 18c6 12 8 25 5 39l-5 19-7 20a98.6 98.6 0 0 0-5 29c-1 1-2 2-3 1l-4-5-8-15c-2-10-2-19 1-28l3-7 3-10c2-7 0-14-4-20l-4-5c-3-4-5-9-6-14l-2-8c0-3-2-7-4-9-1-2-2-2-4-2-8.5 2-16.2 6.5-22 13l-2 3-5 12a2642 2642 0 0 0-14 62c-2 10-2 20-2 33m340-13c0 14-1 27-3 40a231.8 231.8 0 0 1-17 65l-12 25c-5 10-11 20-18 29l-14 16c-7 8-16 15-26 22s-22 13-33 18c-13 6-26 10-39 13h-21l-21-5c-9-2-17-6-25-10l-26-14a146.6 146.6 0 0 1-43-40c-7-9-13-18-18-28l-16-37c-8.6-21.4-13.7-44-15-67a298 298 0 0 1 4-76l7-27a226.5 226.5 0 0 1 51-95l14-16c8-9.9 17.5-18.7 28-26 6-5 12-9 19-12l32-11 16-2h5c13 1 26 5 38 10l18 8 18 13c9 7 16 15 23 24l16 18a238.5 238.5 0 0 1 51 107c2.5 13 4.5 26 6 39l1 19"/>
    <path d="M457.5 510.5a29 29 0 0 1 22 10v3l-2 1-4-2-11-4-12-2-4-1v-2l2-1c3-2 6-2 9-2m-123 4 2 1v1l-2 1-6 2c-4 0-7 1-9 3-4.2 2.8-8.6 5.5-13 8-2 0-2-1-2-3l2-2 4-5c4-4 8-6 13-7l11 1m-111-41.3 2.8 2.8 2.8-2.8-2.8-2.8-2.8 2.8Zm-6-19c0 .3-.2 6.7-.1 13.2-6.8.5-5.7-13.3-5.3-15 .2-1.4-4.4 1.7-6.6 3.8.7 1.3 1.7 1 2.9.5-.4 6.2 3.9 11.8 9 11.7.2 6.4.8 12.5 2.7 13 .2.1.4-6.5.6-13.7 12.2-3.8 7.6-18.3 7.6-18.3-.2-.8-2 .3-6 4 1.6 1.6 2.3.6 3.6.2 1 2 1.4 10.5-5.2 13.1l.3-18c0-.2-.2-.3-.4-.3-1.8.2-5 3.4-7.5 6.1 1.4 2.2 3 .2 4.5-.4"/>
  </g>
</symbol></svg>
