<svg xmlns='http://www.w3.org/2000/svg' viewBox='0 0 696 830' fill='none'><symbol id='BODC_Fill'>
  <g fill="none" transform="translate(105.6 102)">
    <ellipse cx="243.5" cy="312.9" fill="#FFF" rx="233.5" ry="312.5"/>
    <path fill="#9BADFA" d="m470.7 320-1-25-2-30-4-23c-3-16-7-30-13-45l-18-49a456.4 456.4 0 0 0-61-85c-13-10-27-19-42-26l-44-16-24-3-17 1h-4l-18-1c-8 0-17 1-25 4l-29 10a175.7 175.7 0 0 0-72 49c-9 12-18 23-26 36-9 12-15 24-20 38l-12 29a300.3 300.3 0 0 0-23 96 396.9 396.9 0 0 0 2 98l4 33c1 13 4 25 9 37 17.6 47.8 48 89.7 88 121 19 15 39 24 62 30l25 4 24 4c12 1 24 0 36-2 15-2.4 30-5 45-8 23-7 45-17 63-34a495.7 495.7 0 0 0 34-34 290 290 0 0 0 53-102l6-38 2-17 1-18c1-12 2-23 1-34m13 39-2 17-2 19-5 37a312 312 0 0 1-94 147 171 171 0 0 1-83 40l-31 4a147.5 147.5 0 0 1-53 0l-27-5c-32-5.5-61.9-20.1-86-42l-26-26c-20.7-23-37.9-49-51-77-8-18-14-37-16-57l-4-33-3-27a465.3 465.3 0 0 1 53-243l35-48a163.6 163.6 0 0 1 61-44c15-8 32-13 48-18 8-2 15-3 23-3 8-.1 16 .3 24 1l22-1a404.5 404.5 0 0 1 63 18 183.6 183.6 0 0 1 67 50c12 13 22 28 32 43 7 10 12 21 17 32l17 44c10 26 16.4 53.4 19 81l2 33 1 24-1 34Z"/>
    <path fill="#FFF" d="m465.7 337-2-26c-2.2-22-4.8-44-8-66l-12-42-18-48c-5-12-11-24-18-35a574.4 574.4 0 0 0-40-52 109.5 109.5 0 0 0-46-28c-10-4-21-7-31-9-9-3-19-5-28-6l-19-1h-3l-14 1a376.5 376.5 0 0 0-87 25c-12 7-22 17-31 28a465.6 465.6 0 0 0-48 76l-18 46a319.3 319.3 0 0 0-20 96l-2 28a277 277 0 0 0 3 63l6 27a229.8 229.8 0 0 0 62 116 1669 1669 0 0 0 44 40c14 10 29 18 46 22l39 9h6l17 1 19-1h2l25-5 26-8c19-7 36-18 51-32l22-21a235.2 235.2 0 0 0 61-98 311 311 0 0 0 15-70l1-30m5-17c1 11 0 22-1 34l-1 18-2 17-6 38a291.5 291.5 0 0 1-87 136 154.8 154.8 0 0 1-85 39l-23 3c-12 2-24 3-36 2l-24-4-25-4c-29.7-6.6-56.9-22-78-44l-23-24a275.3 275.3 0 0 1-49-83c-5-12-8-24-9-37l-4-33a345.5 345.5 0 0 1-3-61 393.8 393.8 0 0 1 56-200c8-13 17-24 26-36a175 175 0 0 1 72-50l29-9c8-3 17-4 25-4l18 1h4l17-1 24 3 44 16a173.1 173.1 0 0 1 60 46 455.6 455.6 0 0 1 43 66l18 48c6 15 10 29 13 45l4 23 2 30 1 25"/>
    <path fill="#9BADFA" d="m415.7 319-1-21-2-17c-1-10-4-21-7-31a237 237 0 0 0-49-99l-18-22-13-13a454.2 454.2 0 0 0-29-21c-14-7-29-12-44-15-5-1-10-2-15-1a131.7 131.7 0 0 0-47 14l-18 10-14 12c-6 5-11 10-15 16a397.3 397.3 0 0 1-25 30 233.6 233.6 0 0 0-46 108 284 284 0 0 0-5 40c-.4 19.8 1 39.6 4 59 2 15 6 29 11 43 9 21 19.4 41.4 31 61l16 19c7 8 15 15 23 21l39 22c13 6 26 9 40 12 8 1 15 0 23-1 12-2 25-6 36-11 14-7 27-14 39-23 8-5 15-11 21-18l14-16c8-9 14-19 19-29l11-25c13-33.1 20.2-68.3 21-104m50 18a230 230 0 0 1-9 73l-7 27a239 239 0 0 1-61 98l-22 21a161 161 0 0 1-77 40l-25 5h-2l-19 1-17-1h-6l-39-9c-24.8-6.8-47.5-20-66-38l-24-24a237 237 0 0 1-62-116l-6-27-3-21v-43l2-28c2.7-32.3 9.4-64.2 20-95l18-46c4-12 10-23 17-34 9-14 20-29 31-42a121.4 121.4 0 0 1 57-39c20-6.2 40.3-11 61-14l14-1h3l19 1c9 1 19 3 28 6 14.3 3.7 28.4 8.4 42 14 13 5 25 13 35 23l15 17 25 35c7 11 13 23 18 35l18 48a296.8 296.8 0 0 1 17 75l3 33 2 26"/>
    <path fill="#9BADFA" d="m407.7 328-1 33a177.5 177.5 0 0 1-11 46h-2c-2 0-3-2-4-4v-3l1-13-2-17c-1-5-1-11 1-17 2-8 2-16 1-24l-2-19v-4c1-2 2-3 4-3h4l5 1 1-1v-1l-3-2-12-6-10-5c-19-9-39-16-59-22-11-3-21-3-31 0-21 6-41 13-61 23-9.3 5.2-19 9.6-29 13l-3 2v1l1 1h2l3-1c2 0 3 1 3 4l1 8-1 12c-2 9-2 18 0 26 2 6 2 12 1 18-2 7-2 15-1 22l-1 7c0 2 0 4-2 5l-8 7-3 2-7 3c-5 3-9 6-11 11-1 2-2 3-4 3h-6l-21-6-18-7-26-5c-5-1-7-3-9-8l-3-7a307.2 307.2 0 0 1-4-127l11-39 4-11c0-2 1-4 3-5l11-8 11-4 4 2c2 2 3 5 3 7l2 8c1 6 3 11 7 16l3 4c5 7 7 15 4 23l-3 11-4 10v18c2 8 5 15 10 21l3 3c1 1 2 0 2-1v-5l4-20 8-23 5-19c3-14 1-27-5-39-3-8-8-15-13-22l-6-8v-1c6 1 11 2 15 7l5 7 6 8c4 6 9 10 17 12l7 2c7 2 12 7 16 13l2 3 2-1 1-3-2-13c-1-6-3-13-6-19-5-11-12-20-22-27a79.5 79.5 0 0 0-43-15h-4 1l18-6c4 0 4-1 6 3l3 5h1l1-1v-2c0-4 0-4 4-2l6 3c5 2 11 3 16 2l10-2a166 166 0 0 0 23-9v-1h-1c-6-1-11-3-16-6l-10-5c-6-3-12-6-18-7v-1l1-3c3-4 5-8 5-13l-1-9v-5l1-3 4-2 24-9 17-6c5-2 10-2 15 0l36 13c6 3 12 5 17 9l2 1 1 2-3 4c-6 11-8 29 0 42l6 9 3 2c1 1 2 0 1-1v-8l3-11 2-11v-6l-2-8v-5l1-1 5 4 1 2c0 11 6 20 14 27 5 5 11 8 18 11 2 1 4 2 4 4l1 2 2 4-4-1c-5-2-11-3-16-3-9 0-18 3-26 7-3 3-6 5-8 9v1h2c4-1 8-1 12 1l6 1c4 2 7 2 10 2 3 1 6 0 9-1l6-1c4-1 8 0 12 2 1 .8 2 1.4 3 2h-2l-17 3-12 6c-7 4-12 9-15 16l-5 18v6l2-1v-1c2-3 5-5 8-6 8-5 14-11 21-17l3-4 10-5 7-1v1l-1 1c-6 5-11 11-14 19-3 5-4 11-4 17l1 12 3 10 2 2h2v-10c0-5 1-8 4-12l1-2 4-8v-3c1-3 3-6 7-8l6-4h2l9 7 1 4 6 19 8 30 4 27v21"/>
    <path fill="#9BADFA" d="M241.7 479c-12 1-24-1-36-5l-18-4-16-2h-9c-8-1-17 1-25 2l-5 1c-5 1-9 0-12-3-4-5-9-9-12-15l-9-18-4-8-1-2c0-2 1-5 4-4l11 2 22 7 27 9c13 4 25 5 37 4l19-3c20.5-3 41.3-4.2 62-4l22 3c22.8 4.3 46 6.3 69 6h7c2 0 3 2 2 4l-9 14-6 3-5-1a81 81 0 0 0-40 2l-29 7c-14 3-27 5-41 5h-5m125-161 1 16 1 10 1 5c0 5-2 9-9 9l-14-1-25-1-13 2-8 1-8-1-7-1h-25l-5-2c-2-1-3-2-3-4l1-10v-20l-2-17v-5l3-6 5-3 22-8 15-8c7-3 6-3 13 0 16 9 33 16 50 20l3 1c2 1 4 2 4 5v18"/>
    <path fill="#9BADFA" d="M165.7 471c7 0 14 2 20 4l14 6 20 7h27c10-1 20-4 30-7h2c18.4-6 37.6-9 57-9l16 1 3 2v2l-2 2a225.8 225.8 0 0 1-51 38c-8 1-15 0-22-1-11-1-23-3-34-2-8 0-17 2-25 4l-13 5-6 2c-3 2-6 2-9 0l-10-6c-12-7-23-14-33-22l-11-10-3-4v-4l6-4 17-3 7-1m-26-176 1-12 3-9 4-12v-11c0-3-1-7-4-9l-5-7c-4-4-7-9-8-15l-1-5c-1-4-2-7-5-10l-5-6c-3-2-5-5-6-9v-4l3-6c1-1 1-2 3-1l12 5 11 12c7 9 13 18 18 29a65.7 65.7 0 0 1 4 41l-7 23a220.2 220.2 0 0 0-7 36v1l-1 1v-1c-5-8-9-17-10-27v-4m214 113-9 2-2 2v1l3 1 13 2 12 5 4 1 2-1v-1l-2-2c-5-6-12-9-21-10m-5 33c-16.2 0-32.3-2-48-6-2-1-2-3-1-4l1-2 10-11 9-7 11-5 14-2h2a84 84 0 0 1 38 10l5 5v3l-6 13c-1 2-3 3-6 4a176 176 0 0 1-29 2m-211-273c6-1 12 1 17 2l24 10c15 8 25 20 30 37l4 15 1 3-1 4-2-3c-4-5-8-8-14-11l-8-2c-5-2-10-6-13-11l-6-8c-3-5-7-8-12-11l-7-3-6-1-8-5-6-5-8-6v-3l1-1 10-1h4m87 243-8 2-6 2-10 11c0 1 0 3 2 2l3-1 10-7 7-2 4-1 6-2v-2l-3-1-5-1m32 18-26 2-29 4-14 2h-1c-2 0-3-2-3-4l2-3c3-4 6-8 10-10l12-7a44 44 0 0 1 21-5l15 1c6 1 11 2 15 6l12 10v1l2 2-3 2-5-1h-8m-63-265c-4 0-9-1-13-3l-8-3-6-2c-4-1-8-1-12 1l-14 4c-4.9 1.8-9.9 3-15 4v-1l3-3c9-8 19-15 31-19 6-2 11-2 17-1l18 6 8 3a93.5 93.5 0 0 0 17 7h1l-1 1-17 5-9 1"/>
    <path fill="#9BADFA" d="M241.7 540c-4 1-8 0-11-1l-15-4-2-1v-3l2-2a175 175 0 0 1 49-11h7l10 2 4 2 2 2v2l-3 2-28 10-5 1-5 1h-5m-29-198-1-13c-2-6-1-12 0-17l2-4c1-3 4-4 6-5l4 1c2 0 3 1 3 3v5c-.2 6.8.5 13.5 2 20l1 10-2 10-1 5-4 2-5-1c-4-1-6-3-6-7l1-9m104-106 2-7c3-9 8-16 15-23l12-7a98.6 98.6 0 0 1 24-5h4l2 4-1 1a16.7 16.7 0 0 1-10 4h-4c-7 0-12 3-16 8l-3 5-11 11h-1c-5 3-9 5-12 9v1l-1-1m-35 170 8 1 17 3c2 0 2 2 1 3l-2 1c-5 4-9 8-12 14l-1 2c-2 2-3 3-6 3-4-1-7-3-9-6-2-5-6-9-9-13v-3c4-3 8-5 13-5m90-216h-2l-5-3c-4-3-9-4-14-3l-7 1c-5 2-10 1-15-1l-13-2h-6 1l1-1c7-6 15-10 25-11 7-1 14 0 21 4l5 2 3 3 5 10 1 1m-144 205v1c0 2-1 4-3 4-3 2-6 2-10 2-2 0-4-2-4-4v-24c-1-3 1-6 4-7 2-2 5-2 8-2s4 2 5 5v25m71 4-7-2-10-9v-2l19-14h4l6 5 7 6-7 7-10 8-2 1m-139-268 2-9 19-13c1-1 2-1 2 1l2 11c0 4-1 8-3 11l-2 4-2 1c-6 0-11 0-16 2-1 0-2 0-2-2v-6m191 117c-1-5 0-9 2-14 4-9 8-17 15-24l8-8h2l2 4v5c-1 3-3 6-6 8l-5 3c-3 2-5 5-6 9v1c-1 6-3 10-6 15-2 3-4 8-3 12l-1 1v-1l-1-1-1-7v-3m-58 115 2 1c1 0 5 3 5 5l-4 3-19 12-15-15c4-4 4-4 9-4l20-1 2-1m-57-39 2-12v-10l1-4c2-2 5-1 6 1v4c1 5 0 10-1 15-1 10-1 19 1 29l1 5v3c-1 4-3 4-6 4l-1-2-1-3-2-8v-22m103 47 1 1 5 4 10 13-10 9h-2l-18-14-1-2 1-1 6-4 7-5 1-1m-37-232c0-9 2-17 6-24 0-1 1-2 2-1l1 1c3 2 2 1 2 5v6l2 9c1 4 0 7-1 10l-2 6-2 8v6h-1v-1c-4-4-6-9-6-15l-1-10m37 261-1 1c-4 0-7 1-11 3l-6 2h-3l-13-6v-1l13-12 2-1h2l16 13 1 1m-102-14v-16l1-1c-1-4 4-6 7-4l2 2v4a141 141 0 0 0-1 29l-1 3-2 2-4-1c-2 0-3-1-3-3v-10l1-5m127-6-5 5h-2l-15-14v-2c3.3-2.6 6.7-4.2 10-5l11-1c3 0 5 1 5 4 0 2-1 11-4 13m-111 8v-7l2-4 1-2c4-3 3-3 7 0l12 10v2l-18 12-1 1-2-1-1-3v-8m129-77c1 7 0 13-1 19 0 7-1 15 1 22v4l-2 2-3-1-1-4v-8l1-13v-15c-.5-5.2-.8-10.6-1-16l2-3 4 2v11m-66 52 8 1 4 1 5 2 3 2-1 1-4 4-8 6h-3l-12-12 5-4 3-1m-53 45-6-1v-4l22-14 10 9-1 1h-1c-6 1-12 3-17 7l-3 1-4 1m113-26v-14c0-2 1-3 3-3 2-1 4 0 4 2l1 3c-2 8-1 17-2 26v3l-2 1c-1 1-2 0-3-1l-1-4v-13m-50-256h1l3 3c8 7 14 15 21 24l2 4c-2 1-3-1-5-2-6-4-11-9-15-14-3-4-6-8-7-13v-2m-169 14-1 1h-1a73 73 0 0 0-22 13v-2l12-15 10-10 1-1h1v14m-38 63v1h-2c-5 1-10 3-15 7l-1-1 10-18 7 10 1 1m238 196h-7l1-1 7-7h2l4 8h-7m11-9v6l-2-1-1-2-4-4 4-5 2-1v-1l1 1v7m-59-27-2 2c-4 2-2 2-6-1l-1-1h9m76-147v3l-2-1c-3-2-2-2-1-5h1l2 3m-126 149h2v1l-2 2h-1l-2-2v-1h3Zm-6 6v-3h1l2 2v1c-1 1-1 2-3 2v-2m-85-209v1h-1l-2-2 1-1 2 2m-47 14h-1v-1l1-1 1 1 1 1h-2m219 189h1v1l-3 1v-1l2-1"/>
    <path fill="#FFF" d="M353.7 408c9 1 16 4 21 10l2 2v1l-2 1-4-1-12-5-13-2-3-1v-1l2-2 9-2m-129 3 5 1 3 1v2l-6 2-4 1-7 2-10 7-3 1c-2 1-2-1-2-2l10-11 6-2 8-2M119 371l2.8 2.9 2.8-2.8-2.8-2.8-2.8 2.8Zm-5.9-19c0 .5-.3 6.9-.2 13.4-6.8.5-5.7-13.3-5.3-15 .2-1.4-4.4 1.7-6.6 3.8.7 1.3 1.7 1 3 .5-.5 6.2 3.8 11.8 9 11.7.1 6.4.7 12.5 2.6 13 .2 0 .4-6.5.6-13.7 12.2-3.8 7.6-18.3 7.6-18.3-.2-.8-2 .3-6 3.9 1.6 1.7 2.3.7 3.6.3 1 1.9 1.4 10.5-5.2 13l.3-18-.4-.2c-1.8.2-5 3.4-7.5 6 1.4 2.2 3.1.2 4.5-.3"/>
  </g>
</symbol></svg>
