<svg xmlns='http://www.w3.org/2000/svg' viewBox='0 0 696 830' fill='none'><symbol id='Borneo_Fill'>
  <g fill="none">
    <path fill="#FDBE00" d="M106 433c0-36.3 3.6-72.5 11-108 3-14 8-27 13-40l15-40a499 499 0 0 1 49-77c14-16 31-29 50-39 12-7 26-13 40-17l21-7 21-3 20 1h5l23-1c7 0 14 1 20 3 16 5 31 10 46 17 24 10.9 45.5 27 63 47 18.1 23.2 34.1 48 48 74l19 51c9.8 25.6 16 52.6 18 80 2.8 30.6 3.1 61.4 1 92l-2 24-3 23c-2 21-8 42-17 62a309.7 309.7 0 0 1-52 78l-26 26c-21 20-46 32-74 39l-29 6c-14 1.6-28 3-42 4l-25-3-26-4a169.8 169.8 0 0 1-84-41 521 521 0 0 1-58-67c-10-16-20-33-26-51-6-13-9-27-11-41l-5-40-1-14c-2-13-2-27-2-34"/>
    <path fill="#FFF" d="M126 439a203 203 0 0 0 3 48l7 32c9.5 40.5 29.1 78 57 109a525 525 0 0 0 45 42c16 12 34 21 53 25l34 8h4l14 1h18l12-1 20-4 22-6c20-7 39-17 55-32l25-24a234.3 234.3 0 0 0 64-107l9-38c3-15 4-30 4-46a658 658 0 0 0-10-100c-3-14-7-27-12-40l-19-50c-4-12-11-24-18-35a566.8 566.8 0 0 0-44-55 106.3 106.3 0 0 0-39-23l-33-10-33-6-13-1h-5l-14 1-15 2c-9 1-17 4-25 6-11 3-22 6-33 11-8 3-16 8-23 13-9 7-17 15-23 23-11 13-20 27-29 40-7 11-13 21-17 33l-19 48c-12.3 32-19 65.8-20 100l-2 36m-6-18 2-28c2.6-33.4 9.3-66.3 20-98l16-41c4-12 10-23 17-33 9-14 19-26 29-39 13-15 28-27 46-37 10-5 20-10 30-13l27-9c7-2 14-3 22-3l18 1h4l23-1a350.6 350.6 0 0 1 61 19c24.3 10.9 46 27.4 63 48l23 31c8 12 15 25 20 38l15 40c6 15 11 30 14 46l4 27c3 21.9 4 44 3 66l-1 21-1 21-3 18c-1 12-2 25-5 37a282.5 282.5 0 0 1-88 135 152.1 152.1 0 0 1-80 36l-27 5c-12 2-24 2-36 1l-25-3-23-5c-27-6-50-18-71-36l-35-37c-18-23-34-47-44-75-5-12-8-24-10-37l-4-32-2-24-2-26v-13"/>
    <path fill="#FFF" d="M331 503h2v-2l-9-9h-1l-1 1c-2 1-2 1-1 2l6 6 4 2m13-180 9-3c7-2 12-8 16-14v-1c-6 3-12 4-18 3h-3l-9 3-5 5c-1 3 0 6 3 7h7m25 1 1-1c5-4 11-7 18-8l15-5 13-4 12-4 13-5 8-4h2l-1-1h-1l-36 10-46 15-3 2 2 2 2 2 1 1m76-34-2 1-17 1-17 4-10 2-16 2c-4 0-7 2-9 5-2 3.8-4.9 7.2-8 10l-1 1h1l2-1 36-11c12-5 25-9 37-12l4-1v-1M199 480l-12 3-1 2 5 17a268.6 268.6 0 0 0 17 37l4-4 5-6c3-4 8-7 13-7l10-1c3 0 3 0 2-3l-2-5c-5-11-8-24-7-36v-2l-2-1-3 1-16 3-13 2m62-205 7-1c8-1 14-5 21-9 7-6 14-12 19-20l6-9c5-12 4-24-2-35-1-2-1-2-3-1l-22 11-20 14a628 628 0 0 0-33 38l-1 1 1 1 5 4c6 3 14 6 22 6m58 227 1 1 2-1-1-1-3-3h-3c-9 8-18 13-29 18l-2 1-1 1-2 8 1 1 2 1c8 4 15 9 21 16l17 18 10 12 3 7 7 8 21 17c11 8 23 13 35 19h2l2-1 33-21c1-1 2-1 2-3l-2-2-2-2-9-7c-9-3-16-9-22-15l-12-12-6-4c-5-2-9-6-11-11l-8-10a232.5 232.5 0 0 1-16-21c-3-4-6-5-10-7l-5-1-8-1-8 1-5 2-7 4h-2l1-1 5-7c2-3 6-4 9-4m-69 46c0-7-2-13-4-19-3-7-1-5-8-5-5 1-9 3-12 7l-1 1-13 13c-2 2-2 2-1 3 4 8 8 14 14 21a237 237 0 0 0 115 73h15l19-5 13-5v-2l-12-9-13-11-32-26c-6-5-11-11-15-17l-6-10a69.5 69.5 0 0 0-28-26l-2 1-5 9c-4 5-8 9-13 12l-9 2c-1 0-2 0-2-2v-5m103-252c-13 1-25 4-37 10-5 2-9 5-12 9-6 6-9 13-9 21l2 13c1 8 0 15-2 22l-10 14-10 11-9 12c-11 19-19 40-22 63v24l5 22 5 15c1 6 2 12 0 19h1l5-4c5-5 8-12 10-19l2-15c2-10 5-18 12-25l8-9 20-15 16-12 9-8c6-8 11-16 15-25 2-7 4-14 3-22v-15l1 1 2 5c2 8 1 17-1 25s-5 16-10 23l-16 26c-8 12-18 22-30 31l-7 5-7 9-2 4v1h1l1-1c10-5 19-11 27-18l13-10c9-7 17-16 24-25 8.7-12.6 17.4-25.2 26-38l5-12c2-8 2-16-1-23-1-6-3-11-6-16l-9-18c-2-5-2-11-2-17v-5c0-2-1-4-3-5l-5-1-6 1-7 2-9-2c-3-3-4-7-2-11s5-6 9-7l10-2h7l10-2 2-1v-1l-1-1-16-3M181 430l2 34 2 13 2 1 10-3 18-4 14-1h2l2-1 1-6c1-10 5-20 10-30 8-16 18-31 30-45l11-15 5-10c1-5 2-11 0-16l-2-7v-11c0-6 3-12 7-17l15-9a119.2 119.2 0 0 1 50-10l11 3c3 1 6 2 9 1l2-1c6 0 11-1 17-3l9-2c5 1 10 0 16-1l12-1 8-1 16-1h3v1l-3 2-7 4c-17.7 9.5-36 17.6-55 24-6 0-10 1-15 3l-9 6c-2 2-4 6-4 10s1 9 3 13c3 7 6 14 11 21s7 14 8 22l-1 20c-2 7-4 15-9 21a240 240 0 0 1-20 24l-10 9-22 18-3 2 1 2 1 2 9 10 7 5c6 2 10 7 11 13l1 4 13 14 12 11c3 5 7 9 12 12l6 4 22 16c2 3 5 5 8 6 1 2 3 2 5 3l10 4h2l2-2c11.7-11 22.4-23 32-36 9-16 17-33 23-51 7-19 9-39 10-59a356 356 0 0 0-4-61c-3-16-7-31-12-47-5-14-11-27-18-41l-21-37c-7.3-11.5-16-22-26-31l-22-15-4-1-5 2c-7 3-13 4-20 4-3-1-7 0-10 2l-10 3-16 2h-4l-1-1 1-1 3-1 12-3 12-2 15-3 12-3 9-2-3-2-12-5-35-13c-5-2-10-2-15 0l-24 10 4 13v5c1 9 0 17-1 25-2 11-7 20-17 25l-7 4c-9.7 4-19.8 6.7-30 8-8 1-15-1-22-3-4-2-8-3-11-6l-2 1-1 1-14 24c-7 14-14 29-19 45-4.7 18.9-9 37.9-13 57l-2 32m-8-9c.4-17.1 2.4-34.2 6-51l8-32c8-28 21-54 39-77l15-18 7-8a145.2 145.2 0 0 1 104-54c10 1 20 3 30 7l15 6c10 4 18 10 26 17l10 9 9 9 20 22a245 245 0 0 1 50 99l7 31 3 25v28a248.3 248.3 0 0 1-21 91l-11 25c-5 10-10 19-17 28l-14 16-21 19c-13 9-27 17-41 23-12 6-24 9-36 11-8 2-15 2-23 1-15-2-29-7-42-13-12-6-24-12-35-20a147 147 0 0 1-38-37c-7-9-13-18-18-28l-16-37a209.6 209.6 0 0 1-15-68l-1-24"/>
    <path fill="#FDBE00" d="M323 288v-1c-2-6-7-10-12-13h-1v1c1 3 2 7 5 9l5 5h2l1-1m-76 12-1-4h-1l-3 4-3 11c-1 8-3 15-6 22-2 5-4 10-4 15l-3 11v4l2-3 3-7c3-6 5-12 6-20 0-5 2-10 4-14l4-10 2-9m-66 130c.2-17.8 2.2-35.6 6-53l9-36c5-16 12-31 19-45l14-24 1-1 2-1c3 3 7 4 11 6a49 49 0 0 0 31 2c9.6-2.1 19.1-5.4 28-10 10-6 15-15 17-26 1-8 2-16 1-25v-5l-4-13v-2l4-1 20-7c5-2 10-2 15 0l35 13 12 5 3 2v1l-9 1-12 3-15 3-13 2-14 4-1 1 2 1h3l16-2 10-3c3-2 7-2 10-2 7 0 13-1 20-4l5-2 4 1 22 15 4 3c8 9 16 18 22 28l21 37c7 14 13 27 18 42a672.6 672.6 0 0 1 15 69l1 38c-1 20-3 40-10 59a268.7 268.7 0 0 1-36 68 254.5 254.5 0 0 1-23 21l-10-4-5-2-8-6c-7-7-14-12-22-17l-6-4c-5-3-9-7-12-12l-12-11-13-14-2-4c-1-6-4-11-10-13l-7-5-9-10-2-2v-2l3-2 22-18c5-4.2 10-8.6 15-13l15-20c5-6 7-13 9-21l1-20c-1-8-3-15-8-22s-8-14-11-21c-2-4-3-9-3-13s2-8 4-10l9-6c5-2 9-3 15-3l14-4c14-6 28-12 41-20l7-4 3-2-1-1h-2l-16 1-8 1-12 1c-6 1-11 2-16 1l-9 2c-6 2-11 3-17 3l-2 1c-3 1-6 0-9-1l-11-3-20 1c-10 2-20 4-30 9l-15 9c-4 5-7 11-7 17v11l2 7c2 5 1 11 0 16l-5 10-11 15c-12 14-22 29-30 45-5 10-9 20-10 30l-1 5-2 2h-2l-14 1c-6 0-12 2-18 4l-10 3-2-1-2-14-2-33"/>
    <path fill="#FDBE00" d="m257 463 1 15 4 9h1l4-9a542 542 0 0 1 10-55h-2l-6 5c-4 4-7 9-9 14l-3 21m96-167c5.8.3 11.5 1.6 17 4 2 1-1 1-2 2l-10 2h-7l-10 2c-4 1-7 3-9 7s-1 8 2 11l9 2 7-2 6-1 5 1c2 1 3 3 3 5v5c0 6 0 12 2 17l9 18c2 5 5 10 6 16 3 7 3 15 1 23l-5 12-6 10-20 28c-7 9-15 18-24 25l-13 10c-8 7-17 13-27 18l-1 1-1-1 2-4 7-9 7-5c12-9 21-19 30-31l16-26c5-7 8-15 10-23s3-17 1-25l-2-5-1 4v10c1 8-1 15-3 22-4 9-9 17-15 25l-9 8-16 12-20 15-8 9c-7 7-10 15-12 25l-2 15c-2 7-5 14-10 19l-5 4h-1c2-7 1-13 0-19l-5-15-5-22v-24c3-23 11-44 22-63l9-12 10-11 10-14c2-7 3-14 2-22l-2-13c0-8 3-15 9-21 3-4 7-7 12-9 12-6 24-9 37-10"/>
    <path fill="#FDBE00" d="M250 548v5c0 2 1 2 2 2l9-2c5-3 9-7 13-12l5-9 2-1a64 64 0 0 1 28 26l6 10c4 6 9 12 15 17l32 26 13 11 12 9v2l-13 5-19 5h-15c-17-4-34-10-49-19l-37-25c-11-9-20-19-29-29-6-7-10-13-14-21-1-1-1-1 1-3l13-13 1-1c3-4 7-6 12-7 7 0 5-2 8 5 2 6 4 12 4 19"/>
    <path fill="#FDBE00" d="M356 540c-2 0-3 0-3 2v1l7 13c2 3 6 5 9 6h2l1-2-1-2-5-8-3-5-4-4-3-2m-37-37c-3 0-7 1-9 4l-5 6v2l6-5 7-1 8-1 8 1 5 1c4 2 7 3 10 7 4.8 7.3 10.2 14.3 16 21l8 10c2 5 6 9 11 11l6 4 12 12c6 6 13 12 21 15l10 7 2 2 2 2-2 3a353.4 353.4 0 0 1-37 22c-12-6-24-11-35-19l-21-17-7-8-3-7-10-12-17-18a60.4 60.4 0 0 0-23-17l-1-1 2-8 1-1 2-1c10-5 20-10 29-18h3l3 3 1 1-2 1-1-1m-80-233-5-4-1-1 1-1c3-5 6-11 11-16 7-7.5 14.4-14.9 22-22l20-14 22-11c2-1 2-1 3 1 6 11 7 23 2 35l-6 9c-5 8-7 11-18 20-10 9-28 10-30 10-10 0-16-3-21-6m-32 210 21-4 3-1 1 1 1 2c-1 12 2 25 7 36l2 5c1 3 0 3-2 3l-10 1c-5 0-10 3-13 7l-5 6-4 4h-1l-1-1-15-36-5-17 1-2c4-2 6-3 10-3l10-1m238-189v1l-4 1c-12 3-25 7-37 12l-36 11-2 1-1-1 1-1 8-9c2-3 5-5 8-5l17-2 10-2 17-4 17-1 2-1m-77 33-2-2-2-2 3-2 46-15c11.8-3.4 23.8-6.4 36-9l-8 4-13 5-12 4-13 4-15 5c-7 1-13 4-18 8h-2m-24-3c3 0 5-2 5-4s-2-4-5-4c-2 0-4 2-4 4s2 4 4 4m-7 3c-3-1-4-4-3-7l5-5a19 19 0 0 1 12-3c6 0 12 0 18-3v1c-4 6-9 12-16 14l-9 3h-7m-16 172c-1-1-1-1 1-2l1-1h1l9 11h-4l-8-8"/>
    <path fill="#FFF" d="m245 309-4 10c-2 4-4 9-4 14-1 8-3 14-6 20l-3 7-2 4v-5l3-11c0-5 2-10 4-15 3-7 5-14 6-22l3-11 3-6c1-2 3-2 3 1l-3 14m78-21-1 1h-2l-5-5c-3-2-4-6-5-9v-1h1c5 3 10 7 12 13v1m-66 175c0-7 1-14 4-21 1-5 4-10 8-14l6-5h2l1 1v1l-1 6a595 595 0 0 0-14 56h-1c-2-3-4-6-5-24m99 77 3 1 4 4 3 5 5 8 1 2-1 2h-2c-3-1-7-3-9-6l-7-13v-1c0-2 1-2 3-2m-12-220c-2 0-4-2-4-4s2-4 4-4c3 0 5 2 5 4s-2 4-5 4m101.8 209.6c0 .4-.3 6.8-.2 13.3-6.8.5-5.7-13.3-5.3-15 .2-1.4-4.4 1.7-6.6 3.8.7 1.3 1.7 1 3 .5-.6 6.2 3.8 11.8 9 11.7.1 6.4.8 12.5 2.6 13 .2.1.5-6.5.6-13.7 12.2-3.8 7.5-18.3 7.5-18.3-.2-.8-2 .3-6 3.9 1.6 1.7 2.4.7 3.6.3 1 1.9 1.4 10.5-5 13.1l.2-18c0-.2-.2-.3-.4-.3-1.8.2-5 3.4-7.5 6.1 1.4 2.2 3.2.2 4.5-.4m6 19.1 2.7 2.8 2.8-2.8-2.8-2.8-2.8 2.8Z"/>
  </g>
</symbol></svg>
