<svg xmlns='http://www.w3.org/2000/svg' viewBox='0 0 696 830' fill='none'><symbol id='CANC_Outline'>
  <g fill="#9D432C">
    <path d="M124.5 442.2c0 15 0 29 3 43l7 34c9 39 28 74 55 105 11 13 24 25 37 37 19 15 39 27 63 33l30 7 21 2c10.7-.1 21.4-.7 32-2l16-4c30.6-5.1 59.1-19 82-40l23-22a229.7 229.7 0 0 0 60-97 356.3 356.3 0 0 0 15-94c-.8-23.1-2.4-46.1-5-69-2-23-7-45-15-67l-22-57a435.4 435.4 0 0 0-46-71c-14-17-31-30-53-37l-26-8c-15-5-29-7-44-8-14-1-28 0-42 2-17 3-34 8-50 14-12 4-24 10-33 18-8 7-16 14-22 22-10 12-19 24-27 37-8 12-14 25-19 38l-15 38-6 16a295.1 295.1 0 0 0-17 93l-2 37Zm451-16c.4 31.2-2.6 62.4-9 93-3 18-9 35-17 51-14 28-31 54-53 76l-17 17c-20 19-44 31-71 37l-30 5a441.5 441.5 0 0 1-43 3c-17-2-34-4-51-8-26-6-50-18-70-37a275.6 275.6 0 0 1-80-115c-5-13-8-26-9-39l-6-47v-11c-1.5-32.8.1-65.6 5-98 2-19 8-37 14-56l18-45a472.9 472.9 0 0 1 44-68c14-17 32-31 51-41 12-6 25-11 37-15 7-2 14-5 22-6l16-2h41l22 3c17 5 34 11 50 19 21 10 39 24 53 42l28 37c7 10 12 21 17 32l20 52a456 456 0 0 1 17 99l1 22"/>
    <path d="m239.5 583.2-1 1 1 1 1 1 15 14 4 2 1 1v-2c0-3-2-6-5-8l-7-6c-2-2-5-3-9-4m62-371c2 1 11 2 17-8 4-5 4-4 4-7l1-1-1-2-2 1-25 10-3 3 3 2 6 2m210 202-1-6-4-18-4 2-2 6v13c0 5 3 8 8 9 2 1 3 0 3-1v-7m-332 17 2 40c2 14 5 27 10 40l16 34c6 13 15 25 25 35 2 2 4 4 6 3l3-1c10 0 18 5 21 15l1 8 2 4 21 13c15 9 31 16 47 20 8 2 16 2 24 0 16-4 32-10 46-19l15-10c18-11 33-24 46-40 7-6 12-14 16-22 5-11 11-21 15-32 8-16 12-33 14-51l2-27v-12c0-2 0-2-2-3h-1c-5-2-9-5-11-11l-2-11c-1-4 0-7 3-10l7-5c3-1 3-1 2-4v-1l-7-25c-6-25-15-47-27-69l-16-27a145 145 0 0 0-28-33l-28-20-11-5c-12-6-25-10-38-14-5-2-10-2-15 0l-9 3-3 3-4 13c-3 5-7 8-13 8-7 0-14-1-19-6l-1-1-2 1-25 17-4 4c-9 8-17 18-24 29l-17 30c-9 17-17 34-22 53l-9 33a205.3 205.3 0 0 0-6 53m340-8c-.3 33.9-6.8 67.4-19 99-8.7 17.8-17.7 35.5-27 53l-19 22c-6 6-12 12-20 17-15 11-31 20-48 27-11 4-22 7-34 8h-18c-19-4-38-10-55-20l-19-12c-10-6-19-14-27-23l-12-14c-7-9-14-19-18-30l-16-34a317.5 317.5 0 0 1-17-92c0-21 3-42 9-63l8-31a245.7 245.7 0 0 1 61-97 169.7 169.7 0 0 1 41-34c14-7 29-12 44-15 10-2 19-1 28 1 15.7 3.6 30.8 9.3 45 17 13 9 25 18 35 30l16 19c21 24 37 52 47 83l10 37c4 17 5 34 5 52"/>
    <path d="m376.5 450.2 2-9c3-12 16-16 26-8l5 9 2 10c1 5 4 10 8 13l1 1c5 4 6 9 4 15l-2 5v2l1 2 8 1c2 1 4 0 5-2l6-8c2-3 1-6-2-8h-1c-7-4-12-9-16-15l-4-12c-2-8-6-15-11-20l-5-5c-5-6-9-13-11-21v-18a84 84 0 0 0-6-44c-3-7-7-13-12-19l-5-12c-2-7-1-13 2-19l3-8c3-4 4-9 4-14v-4c1-6 2-11 6-15l1-2c1-2 0-3-1-3l-6-1c-4-3-6-2-8 1l-6 3-3 1c-2 0-3 3-1 5l2 2 4 3c7 5 7 19-2 24l-6 3c-6 2-12 0-16-6l-3-7-1-6c-1-3-3-5-6-7-2-2-4-3-7-2s-6 1-8-2h-2l-1 1c-3 2-6 2-8-1l-1-2-7-3c-3-1-6 0-8 2-3 2-3 4-2 7l2 6 2 2c0 2 1 3 3 3 3 1 4 4 3 7v3c2 1 2 2 2 4l1 6c0 3 1 5 4 7 2 2 5 2 7 2h5c5 1 8 3 10 6 4 7 4 17-4 22-11 7-26 5-33 0l-7-5-3-2c-2-1-4-1-6 1-1 1-3 3-2 5v6c-1 2 0 4 1 5l3 3c2 2 4.3 2 7 0l1-1c3-3 6-4 10-3l5 1 7 1c6 1 13 1 18-4 4.3-3.2 9-6 14-8s10 0 13 4c2 3 3 6 2 9l-1 9v6l3 9 3 8c3 6 4 11 3 17-1 4-3 7-7 9l-6 2-9 2c-4 0-8 2-10 5l-4 5-8 9c-4 4-9 6-14 7l-6 2c-2 0-3 2-4 4s0 4 1 6l3 6 2 2 7 4c1 0 2 0 3-2l1-4c1-4 2-9 6-12l10-12 6-6 8-4c9-3 20 4 21 12l1 9-1 14c-1 11 1 23 5 34l9 33c1 11 0 22-3 33-4 9-9 17-16 24-8 9-18 16-29 21l-2 2h-1l1 1 1-1c14-3 27-9 38-19 6-5 10-11 15-17l8-17c3-8 4-17 3-26 0-9-2-18-5-27l-6-18-3-17m9 9c-1 4 0 9 2 14l6 17 6 21a73 73 0 0 1-26 67c-8 6-16 11-25 14s-17 4-26 5l-7-1c-2 0-3-3-1-5l4-2 8-4c16-8 28-20 37-36 4-6 5-12 5-19-1-9-3-19-6-28l-5-15-7-24c-2-8-2-17-1-26l1-11c0-2-1-5-3-7-1-3-3-4-6-4l-7 2-5 5-10 11c-4 3-5 8-6 12l-1 4c-1 3-3 4-5 4l-4-1-3-2c-4-1-6-3-7-7l-2-4c-3-3-3-7-2-11 1-3 2-5 5-6l6-3 10-3c4-2 8-5 10-10l3-5c3-6 9-9 16-10l6-1c4-1 7-3 8-7v-4l-3-7-5-7c-4-6-5-12-3-19l2-8 1-5c0-3-3-5-6-3l-5 3-5 4c-7 5-14 6-22 5l-8-2c-4-2-7-1-10 1l-6 4c-4 2-6 1-9-2l-4-6c-2-2-3-5-1-8v-4c-1-4 0-6 2-9l2-1c3-2 6-3 9 0l3 1c6 5 13 7 20 8 4 0 9 0 12-2 3-1 6-3 7-6 1-4-1-9-5-10l-4-1c-4-1-8-2-11-5-4-3-7-7-7-13v-2c0-1 0-2-2-2l-3-2c-4-2-6-6-4-10v-2c1-2 0-3-1-4l-2-2c-3-5-2-11 1-16 4-3 9-4 14-2l1 1h6c3-3 9-2 12 2l3 3h4c3-1 6 0 9 2 4 2 7 6 9 10l4 8c2 2 4 4 6 4 3 1 6 1 8-1 4-4 5-10 0-15l-4-4c-5-5-2-12 4-13l6-3 2-2c3-2 5-2 8-1l6 2c4 1 7 5 4 9-4 5-5 11-5 16 1 7-1 13-3 19-3 7-4 14-3 21 0 4 1 7 3 11l7 10 5 6c8 10 11 21 9 33 0 6-1 13-3 19v16c0 3 1 5 3 7l5 7 5 6c7 6 10 14 12 23l1 5c0 4 2 7 4 10l8 9 4 2 4 2c4 2 6 4 4 9l-3 6-4 6c-2 3-7 6-12 5l-6-1h-2c-3-1-5-3-5-6l1-4 2-3c1-4 0-7-3-9l-2-2c-5-3-7-7-9-12v-4c-1-5-3-8-6-11l-4-4c-3-1-5 0-7 2l-1 4c-2 4-3 9-2 14m-116 47v-9l-2-6c-3-4-10-5-14-4l-11 7-2 2c-3 5-5 11-4 16 .7 7.5 2.4 14.9 5 22 4 6 8 12 13 16l8 5 12 7c5 3.7 10.8 6 17 7h1v-1l-2-2c-8-8-14-17-17-28s-3-22-4-32m24 67c-9 0-17-3-26-6l-7-6-14-14-8-9c-4-4-6-8-8-13-2-6-2-12 0-18l3-7c2-5 6-9 11-12 4-3 8-4 12-4 4-1 8 0 12 2 9 6 12 16 8 26v1c-3 6-3 11-2 17 2 15 10 27 21 37l3 3c1 1 1 2-1 3h-4m131-223c0 7 3 12 7 15 4 2 8 2 13 1 10-2 17-12 15-23-1-8-4-16-9-23l-8-15c-5-10-12-17-21-22l-4-2 1 4 1 4 7 31v17l-2 13m-5-20v-20c0-10-2-20-7-29l-2-4 2-1h3l9 5c10 6 18 13 25 22l6 12 8 28v15c-2 6-5 11-12 13h-10c-4 0-8-2-12-4-6-3-9-9-9-15v-11l-1-11m-187 41-9 2c-3 1-5 6-4 9l1 4 7 8 7 4c6 1 12-2 14-8 1-2 1-5-1-8l-5-7c-2-3-6-4-10-4m-1 31-6-2c-5-1-8-4-10-8-2-5-2-10 1-15 1-4 3-6 7-7l5-2c6-1 13 0 18 4l4 4 2 6c-1 11-6 18-16 19l-4 1m201 165 8-2c4-2 5-6 5-10l-5-11-1-3c-3-2-7-3-10-1-5 3-7 7-7 13l3 9c1 4 4 5 7 5m-14-8 2-12c2-6 6-9 12-10l8 1c6 1 10 7 9 13l-2 8c-2 6-7 9-13 11-4 1-8-1-12-3-3-2-4-5-4-8m-147-104-3-9c-2-2-4-3-7-2s-6 5-6 8c0 5 4 10 8 11 3 1 5 1 7-2l1-6m-18-1c0-9 8-14 14-12 4 2 7 4 9 7 2 4 1 7 0 10-2 3-4 5-7 6h-8c-5-2-8-7-8-11"/>
    <path d="m367.5 252.2-2-1c-2-1-2-3-1-4l7-3 3-1 2 2c-2 3-4 5-7 6l-2 1m-69 179 2 1 1 4c1 3 2 6 5 8v1h-1c-6-1-9-6-8-12v-1l1-1m-24-105c0-3 2-5 4-6 2 0 3 1 2 3v7l-1 2-3-1-2-5m159 155 1 2c0 2-3 5-6 5h-2l-1-2c-1-1 0-2 1-2l5-3h2m-218-43.3c0 .4-.3 6.8-.2 13.3-6.8.5-5.7-13.3-5.3-15 .2-1.4-4.4 1.7-6.6 3.8.7 1.3 1.7 1 2.9.5-.4 6.2 3.9 11.8 9 11.7.2 6.4.8 12.5 2.7 13 .2 0 .4-6.5.6-13.7 12.2-3.8 7.6-18.3 7.6-18.3-.2-.8-2 .3-6 3.9 1.6 1.7 2.3.7 3.6.3 1 1.9 1.4 10.5-5.2 13l.3-18-.4-.2c-1.8.2-5 3.4-7.5 6 1.4 2.3 3.1.3 4.5-.3m5.9 19 2.8 2.9 2.8-2.8-2.8-2.8-2.8 2.8Z"/>
  </g>
</symbol></svg>
