<svg xmlns='http://www.w3.org/2000/svg' viewBox='0 0 696 830' fill='none'><symbol id='CBAC_Fill'>
  <g fill="none">
    <path fill="#FDBE00" d="m590.4 427.5-1 26-2 28c-2.2 18.4-5 36.7-8 55-4 16-9 31-16 45a310 310 0 0 1-75 98 170.8 170.8 0 0 1-86 42l-35 5a144.8 144.8 0 0 1-50-1l-25-5a170 170 0 0 1-84-40 515 515 0 0 1-55-63c-9-13-16-26-23-40a194.5 194.5 0 0 1-20-77c-1.7-16-3-32-4-48l-1-40 1-20 1-12 4-29c3-24 11-48 20-71l15-39c13.9-26.2 30.3-51 49-74a187 187 0 0 1 74-50l29-10a99.7 99.7 0 0 1 43-5h20c11 0 21 0 32 4 18 5 36 11 54 20 17 8 32 19 46 33l14 17 22 29c9 14 17 28 23 43l16 42c6 16 11 33 14 50l4 29c2 9 2 18 3 28l1 19v11"/>
    <path fill="#FFF" d="m125.4 446.5 1 22 2 17 7 35a248.7 248.7 0 0 0 52 101c13 16 28 30 44 43a153 153 0 0 0 71 34c10 2 20 5 30 5l18 1h5l20-2 9-2 25-6c23-6 43-18 61-34a528.7 528.7 0 0 0 41-41c28.2-35 46.8-76.7 54-121a232 232 0 0 0 5-67l-1-25a383 383 0 0 0-40-153 410.3 410.3 0 0 0-24-43l-25-32a121.6 121.6 0 0 0-48-34l-33-10c-17.5-5.3-35.7-8-54-8l-15 1-15 2-31 8-26 9-21 12c-9 6-17 14-25 24a516.8 516.8 0 0 0-46 72l-9 25-12 31c-9 26-15 53-17 81l-1 10-2 29v16m451-19-1 27-3 27-1 16a209.4 209.4 0 0 1-43 113 247.7 247.7 0 0 1-46 52 152.2 152.2 0 0 1-85 41 909 909 0 0 1-52 6c-9 0-17-1-25-3l-21-3a164.8 164.8 0 0 1-83-39 434.7 434.7 0 0 1-43-48c-11-14-20-30-28-46a190.3 190.3 0 0 1-20-70 1172 1172 0 0 1-4-46c-2-15-1-30-1-45l2-29 3-25c3.3-23 9.7-45.6 19-67l12-31c5-14 12-27 20-39l26-34a160.2 160.2 0 0 1 65-47l39-14c7-2 14-3 22-2h45c19.4 4.3 38.4 10 57 17a175.7 175.7 0 0 1 66 49l26 36c7 10 12 20 16 31l18 44c5 16 10 31 13 47l3 24 3 27v18l1 13"/>
    <path fill="#FFF" d="M180.4 432.5v12a232 232 0 0 0 13 68c9 19.4 19.3 38.1 31 56a242.3 242.3 0 0 0 79 62c12.5 5.6 25.6 9.6 39 12l17-1a151.7 151.7 0 0 0 54-24c18-11 34-24 49-39 9-10 17-21 23-33a267.9 267.9 0 0 0 20-46c8.7-40.8 9.8-82.8 3-124l-8-25c-5-21-13-40-24-59l-13-24a140 140 0 0 0-54-55l-16-9c-13-6-26-10-39-14-5-2-10-2-15 0l-27 9a146.5 146.5 0 0 0-41 23 100.5 100.5 0 0 0-27 25l-9 14-9 15a423.7 423.7 0 0 0-31 67c-5 19.3-9.5 38.6-14 58l-1 32m341-12-3 41a240.9 240.9 0 0 1-23 75l-5 11a151.5 151.5 0 0 1-33 47c-7 8-15 14-23 20-13 9-26 16-40 22-11 5-23 8-35 11h-20l-18-3c-9-2-17-6-26-10-12-5-23-12-34-19a139.7 139.7 0 0 1-39-38c-7-9-13-18-17-28l-16-35a213.3 213.3 0 0 1-15-74c-1.3-22-.3-44.2 3-66l8-31a246.7 246.7 0 0 1 54-98l9-11a145.4 145.4 0 0 1 95-53l10 1 20 4 27 10 18 12a265 265 0 0 1 23 22l19 22c20 23 35 49 45 78l8 30a816 816 0 0 1 7 41l1 19"/>
    <path fill="#FDBE00" d="m318.4 377.5-2 2 4 6 2-1c0-2-1-5-3-6l-1-1m34 38-2 2c-1 3 1 5 4 5l2-1c1-3-1-6-4-6m53 30v-2l-2-2-2 2-3 7v2h2l4-4 1-3m-20-14v-1c-2-4-3-7-3-11l-1-7-3-5h-1l1 10 1 3c0 5 2 8 5 11h1m-154 63c0 8 1 13 3 20l1 4h1l-1-2c-3-11-3-22 0-33 1-7 4-13 7-19l9-17c3-7 7-14 9-22 2-10 3-20 1-29a40 40 0 0 0-43-33l-1 1h1l9 1c9 2 17 6 23 14 4 6 7 13 7 20 1 10-1 19-4 28l-7 17-9 19c-4 10-6 20-6 31m225 7-2 14c-3 10-8 19-14 28l-15 17-6 7v1l1-1c9-7 17-14 24-23 5-6 10-12 13-20 4-10 5-21 3-33l-3-13-6-16c-2-7-4-15-3-23a45 45 0 0 1 24-38v-1c-4 1-7 3-10 6a47.8 47.8 0 0 0-17 38l2 14 5 20c2 7 4 14 4 23m-85 6v2c0 8-2 16-5 23l-1 2v1l1-1 8-18 2-14v-1h1l5 10v19c-1 8-4 17-8 25l-9 14-5 10c-3 6-3 11-2 16l2 6v1l1-1v-3l2-12 3-10 8-10 8-11 7-15 1-6-1-18c0-4-2-8-4-12l-5-10c-2-5-3-11-3-17 0-4 0-4 5-5l1-1c5-1 10-3 13-7 2-3 4-4 7-5l4-2 6-6c2-3 3-6 2-9-2-5-4-10-10-11l-3-1-6-6-2-8v-4c0-4 2-8 5-11l8-6 5-2c3-2 5-3 6-6 3-5 4-10 2-16-1-3-2-4-5-1-2 2-5 4-9 4l-15 4v-1c3-5 6-8 11-11 7-4 15-7 23-7l14-2 15-5c7-4 12-10 16-17l2-4c-2 0-2 2-4 3v1c-6 7-12 11-20 14l-12 4h-7v-1l4-1 8-4c4-2 8-6 11-10 4-7 8-15 9-23 1-6 0-12-2-18v-1l-1 1v16l-1 3h-1l-4-14c-1-6-2-13-1-20h-1l-1 4c-2 5-2 10-1 14l3 15c2 10 0 18-8 25-3 3-6 5-10 6l-8 4-14 4a52.3 52.3 0 0 0-18 10h-1l-1-2c-1-8-5-14-10-20h-1v1l2 3c3 7 3 14 2 21s-4 14-6 20c-1 2-1 2-3 1l-15-4-4-1-5-2c-5-4-8-9-11-15-5-11-5-22-1-33l2-4v-1h-1c-5 8-8 16-7 26v2h-1l-1-1-16-13a968.8 968.8 0 0 0-24-15 41 41 0 0 1-16-26l-6-21-1-3h-1l1 3 2 15 3 11c1 6 4 11 7 16l2 2h-2a56.3 56.3 0 0 1-23-35l-3-16-2-5-1-1v1l1 4 1 17c2 9 5 18 11 25 5 7 11 12 18 15l11 5 6 4h-4c-7-2-13-2-20-1v1h3l10 1c15 3 29 10 39 21l9 11 9 9 1 1v1h-1l-11 4-1 1-1-1-1-2c-1-7-4-12-10-16l-5-2c-5-3-10-6-14-11-1-2-2-2-3-1-8 6-9 21 0 26 3 1 5 3 7 6s4 7 7 9l2 3v13c-1 8-3 16-6 23l-9 17-6 21-2 4-8 18a57.2 57.2 0 0 0 8 48c2 4 5 8 9 11a356 356 0 0 1 16 14l13 14 8 12a168 168 0 0 1 12 24v-3l-3-16c-2-9-6-16-12-21l-3-3-12-10-8-7-16-22c-6-10-9-21-6-32 0-5 2-9 3-13h1l4 16c2 8 6 16 11 22v1-1l-3-7c-4-10-7-19-8-30v-12c1-8 4-16 7-23l6-11 5-13c4-10 5-21 3-32l1-2h2l1-1h-1l-4-2c-4-2-7-5-8-9l-1-4c-1-2-2-4-5-5l-3-2c-3-2-4-5-4-9l2-5 1-2h2l2 2c2 4 5 7 8 9l5 3 8 7c3 3 4 6 3 10v2l1 1 2-1 9-4 6-1 12 3c4 3 9 4 14 4h3c6 0 11 4 11 10l1 7v7c1 5 3 9 7 12l1 1v2l-5 4-1 1v1h1l3-2 7-2c4 0 7 2 8 6 2 4 2 9-1 13-1 2-3 3-5 3-3 2-6 3-8 6l-5 4-9 2-15-3-5-2-15-3h-1l1 1 5 1 8 2v1l-1 1h-2c-7 1-13 3-19 7l-4 2v2l1-1 7-3c5-3 10-4 16-4l15 3 1 2c-3 7-2 14-2 21l1 11m-191-74a425 425 0 0 1 5-54l10-37 12-31 19-35 9-15a96.5 96.5 0 0 1 12-17 97.5 97.5 0 0 1 29-26c11-8 23-14 36-19l28-9c4-2 9-2 14 0 13 4 26 8 39 14 5 3 11 5 16 9l19 13c6 4 11 10 16 16 8 8 14 16 19 26l13 24c11 19 19 38 24 58l7 26c3 11 5 23 6 34a329 329 0 0 1-8 89l-8 21c-3 9-8 17-12 26-6 12-14 23-23 32a233.7 233.7 0 0 1-103 64 60.6 60.6 0 0 1-19 1c-20.8-4.5-40.4-13-58-25a257 257 0 0 1-58-49 436.2 436.2 0 0 1-30-56c-6-13-9-27-11-41l-3-27v-12"/>
    <path fill="#FFF" d="M417.4 378.5v-2c0-3 0-3-2-2l-3 2c-2 2-4 3-7 3l-7 1-10 5c-1 1-3 2-3 4v4l4 6c1 2 4 2 5 0l2-1c2-3 5-4 8-6l3-1 7-5c2-2 4-5 3-8m-47 117c0-7-1-14 2-21 0-1 0-2-2-2l-14-3c-6 0-11 1-16 4l-7 3h-1l4-3c6-4 12-6 19-7h2c2-1 1-1 1-2l-8-2-5-1c-2 0 0-1 0-1l15 3 5 2 15 3 9-2 5-4c2-3 5-4 8-6 2 0 3-1 5-3 3-4 3-9 1-13-1-4-4-5-8-6l-8 2-3 2v-1l1-1 5-4v-2h-1c-4-4-7-8-7-13v-7l-1-6c-1-7-5-11-11-11h-3c-5 0-10-1-14-4l-12-3-6 1-9 4-2 1-1-1v-2c1-4 0-7-3-10-2-3-5-5-8-6l-5-4-9-9-1-2h-2l-2 2-1 5c0 4 1 7 4 9l3 2c3 1 4 3 4 6l2 3c1 4 4 7 8 9l4 2v1h-2l-1 2c2 11 1 22-3 32l-5 13-6 11c-4 7-6 15-7 23v13c1 10 4 19 8 29l3 7c1 2 0 1 0 0-5-6-9-14-12-22l-3-16h-2l-3 13c-2 11 1 22 7 32l16 22 8 7 12 10 3 3c6 6 10 13 12 21l3 16v3h-1l-1-3-10-21-8-12-13-14-5-5-11-9-10-11c-4-7-7-14-8-23-2-8-1-16 1-25 2-6 4-12 8-18l1-4c1-7 4-14 7-21l9-17c3-7 5-15 6-23v-13l-2-3-8-9c-1-3-3-5-6-6-9-5-8-20-1-26 2-1 3-1 4 1 4 5 9 8 14 11l5 2c5 4 9 9 10 16l1 2 1 1 1-1 11-4h1v-1l-1-1-9-9-9-11a71 71 0 0 0-39-21l-10-1h-3v-1c7-1 13-1 20 1l3 1 1-1-6-4-11-5c-7-3-13-8-18-15-6-7-9-16-11-25l-1-17-1-4v-1l1 1 2 5 3 16c1 7 4 13 8 19s9 12 15 16h1l-1-2c-4-5-6-10-7-16l-3-11-2-15-1-3h1l1 3 6 21 2 4c2 9 7 16 14 22l15 10 25 18 1 1h1v-2c-1-9 2-18 7-26l1 1-2 4a43.1 43.1 0 0 0 12 48l5 2 4 1c5 3 10 3 15 5l2-1c3-7 6-14 7-21s1-14-2-21l-2-3v-1l1 1c5 5 9 11 10 19l1 2h2c5-5 10-7 16-10l14-4 9-3 10-7c8-7 10-15 8-25l-3-14c-1-5-1-10 1-15l1-4h1c-1 7-1 14 1 20l4 14h1l1-3v-16h1c2 6 3 12 2 18-1 8-5 16-9 23-3 4-7 8-11 10l-8 4-4 1v1h6l13-3c8-3 14-8 20-15v-1l3-3-1 4c-4 7-9 13-16 17-5 3-10 4-15 5l-14 2c-9 1-16 3-24 7-4 3-8 7-10 11v1l15-4c4 0 7-2 9-4 3-3 4-2 5 1 2 6 1 11-2 16-1 3-3 5-6 6l-5 2-9 6c-3 4-4 7-4 12v3c0 3 0 6 2 8l6 6 3 1c5 2 8 6 10 11 1 3 0 6-2 9l-6 6-4 2-7 5c-3 4-8 6-13 7l-1 1c-5 1-5 1-5 5 0 6 1 12 3 17l5 10 4 12 1 18-2 6-6 15-8 11-8 10c-2 3-3 7-3 10l-2 12v3l-1 1-1-1-1-5c-1-6-1-11 1-16l6-11 9-14c4-8 7-16 8-25v-18l-5-10h-1c0 5-1 10-3 14l-7 18-1 1v-1l1-2c3-7 5-15 5-23v-2l-1-12m86 6c0-9-2-16-4-23l-5-20-2-14c0-15 5-28 17-38l9-6h1v1h-1c-4 3-8 5-11 9-8 8-12 18-12 29-1 8 1 16 3 23l5 16 4 14c2 11 1 22-3 32-3 8-8 14-13 20-7.4 9-15.7 17-25 24v-1l6-7 15-17c6-9 11-18 14-28l2-14m-225-7c0-10 2-21 6-31l9-19 7-17c3-9 5-18 4-28-1-7-3-14-7-20a39 39 0 0 0-32-15h-1l1-1 16 2c14 6 23 16 27 31 2 9 1 19-1 29-2 8-6 15-9 22l-9 17c-3 6-6 12-7 19-3 11-3 22 0 33l1 2h-1l-1-4c-2-7-3-12-3-20"/>
    <path fill="#FFF" d="M385.4 431.5h-1c-3-3-5-6-6-11v-3l-1-10h1l3 5 1 7c0 4 1 7 3 11v1m20 14-1 3-4 4h-2v-2l3-7 1-2c2 0 2 1 3 2v2m-53-30c3 0 5 3 4 6l-2 1c-3 0-5-2-4-5l2-2m-34-38 1 1c2 1 3 4 3 6l-2 1-4-6 2-2"/>
    <path fill="#FDBE00" d="M395.4 386.5c-2 0-5 1-6 3v3l2 1 7-4c1-1 0-2-1-2l-2-1m22-8c1 3-1 6-3 8l-7 5-3 1c-3 2-6 3-8 6l-2 1c-1 2-4 2-5 0l-4-6v-4c0-2 2-3 3-4l10-5 7-1c3 0 5-1 7-3l3-2c2-1 2-1 2 2l1 2"/>
    <path fill="#FFF" d="m395.4 386.5 2 1c1 0 2 1 1 2l-7 4-2-1v-3c1-2 4-3 6-3M313.7 267c0 .4-.3 6.8-.2 13.3-6.8.5-5.7-13.3-5.3-15 .2-1.4-4.4 1.7-6.6 3.8.7 1.3 1.7 1 2.9.5-.4 6.2 3.9 11.8 9 11.7.2 6.4.9 12.5 2.7 13 .2.1.4-6.4.6-13.7 12.2-3.8 7.6-18.3 7.6-18.3-.2-.8-2 .4-6 4 1.6 1.6 2.4.6 3.6.2 1 2 1.4 10.5-5.1 13.1l.3-18c0-.2-.2-.3-.4-.3-1.8.2-5 3.4-7.5 6.1 1.3 2.2 3 .2 4.4-.4m5.9 19.1 2.8 2.8 2.8-2.8-2.8-2.8-2.8 2.8Z"/>
  </g>
</symbol></svg>
