<svg xmlns='http://www.w3.org/2000/svg' viewBox='0 0 696 830' fill='none'><symbol id='CGBJ_Fill'>
  <g fill="none">
    <path fill="#00807D" d="m105.1 428.4 3-51c3-35 11-68 24-100l10-26c6-17 14-32 24-46l28-37a169.3 169.3 0 0 1 76-51l29-10c13-5 26-6 40-5h17c13-1 26 0 38 4 17 5 33 10 49 18a184 184 0 0 1 61 48l29 38c7 11 13 22 17 34l21 53a482.4 482.4 0 0 1 16 184l-3 23c-2 27-9 53-21 78a297.6 297.6 0 0 1-71 94 162.8 162.8 0 0 1-91 45l-31 5-13 1-12 1-24-3-31-5c-32.8-6-63-21.6-87-45a298.4 298.4 0 0 1-80-114c-5-13-8-27-10-41l-5-41-3-32v-19"/>
    <path fill="#FFF" d="m571.1 440.4-1-15c-2.5-24.7-5-49.4-8-74-3-16-8-31-13-46l-19-50-14-28c-10-16-21-32-34-47-14-17-31-30-52-37l-30-9c-15-4-30-7-45-8l-32 2-25 5-35 11c-11 4-21 10-30 17a531.7 531.7 0 0 0-50 62c-7 10-13 22-17 33l-15 38-7 21c-7 19-11 39-14 59l-2 27a574.2 574.2 0 0 0 0 85l8 34c9 40 27 74 54 104 12 14 24 26 38 38 17 15 36 26 58 32 13 4 28 7 42 9 8 2 17 2 25 1l18-1 26-6c27-5 51-17 72-36l25-23a236.7 236.7 0 0 0 63-104l8-34c4.7-19.6 6.7-39.8 6-60m-451-24 2-33c2-32 9-63 21-93l14-36c13.1-25 28.5-48.8 46-71 14-16 30-29 48-39 12-6 25-11 38-15l22-7c9-1 18-2 27-1h20c11-1 23 0 34 3 17 5 34 11 50 19s30 18 42 31l14 15a423.3 423.3 0 0 1 40 64l19 49a257 257 0 0 1 16 74c3.2 32.9 3.2 66 0 99l-3 31c-3 23-9 46-20 67a304.7 304.7 0 0 1-44 65l-25 25c-19 18-42 30-67 37l-28 5-17 3-25 1c-11 0-21-2-31-3l-23-5c-29-6-54-18-75-38a274.6 274.6 0 0 1-79-115c-5-11-7-23-9-34l-5-42c-2-21-2-34-2-56"/>
    <path fill="#FFF" d="M309.1 528.4c7 0 13-1 19-4 7.1-3.6 13.8-8 20-13v-1l-9 1a64.9 64.9 0 0 0-37 15v1l7 1m-68 7a98 98 0 0 0 38-9v-1c-5-4-10-6-17-7l-3 1-9 3c-8 3-17 3-25 3l-1-1 8-21c4-7 8-12 14-17l8-6c9-5 15-14 19-23v-1l-3 1-14 5c-16 6-32 9-49 9a60 60 0 0 1-24-5h-1v3l3 12c2 15 7 30 14 44 0 1 1 2 3 2l7 3c10 3 20 5 32 5m106 108 10-2c14-3 27-7 39-14a369 369 0 0 0 37-25l-18-4c-13-3-25-3-38-1l-25 6c-14 3-28 6-42 7h-40l1 1 2 1 14 9 7 4a149.4 149.4 0 0 0 53 18m-89-347c7 0 13-2 19-5 3-2 6-3 8-6 4.4-5.3 9.4-10 15-14 3-5 6-9 4-15l-1-5-3-10-1-12-3-8-8-7c-2-1-4-2-7 0l-14 10-8 7c-8 8-16 16-22 26l-12 20v4l1 1c9 9 19 13 32 14m255 141v-11c0-3 0-3-2-2l-5 2-28 14c-16 7-33 12-50 12l-4 3c-7 15-16 27-28 39l-2 1v2c17.5 4 35.2 7 53 9 19 1.8 38.2-1 56-8 2-1 3-2 3-4l3-11c3-15 4-31 4-46m-174 119v-13l-1-13-1-1-3 2-12 5c-10 3-20 2-30-4l-3-1-4-1-8 5c-11 4-22 7-33 8l-24-3-12-4h-2v2l7 12c3 8 8 14 13 21l26 25 5 2c18 4 36 5 54 4l39-5c11-1 22-3 34-3 11-1 21 0 32 2l20 3c2 1 4 0 6-2a248.4 248.4 0 0 0 37-39l17-32 7-19 1-2h-1l-4 1a91.7 91.7 0 0 1-59 7l-27-7-19-6c-2-1-4-1-6 1-5 4-11 6-17 7l-7 1-3 3v33c1 1 1 2 3 2l5 2 15 3 4 1 1 1-1 1h-3c-2 1-3 2-3 5l-2 1c-4 0-8 1-10 5h-3c-4-4-7-10-10-15-2-2-2-3-2-6a350 350 0 0 1-2-29l-7 7-1 3v31l2 3 12 11c2 2 2 2 0 3-3 1-4 4-5 6s-1 2-3 2c-3-1-6-1-9 1h-2v-2l-1-25m-159-123 1 24c0 2 0 3 3 3l12 2c14 1 28 0 41-3l36-11c4-1 6-3 8-7 6-10 15-18 26-22l6-3 16-5 14-5c11-5 18-13 23-24 2-5 2-10 1-16l-3-16-2-15c-1-16 5-28 17-37s25-9 39-3c4 2 8 5 11 10l2 4-1 1-1-1c-4-7-9-11-17-14l-11-2c-19 0-34 17-31 36l1 8 3 13c1 5 2 11 1 16l-4 10-8 16c-2 6-7 10-12 14-6 6-12 10-20 13l-21 10c-9 4-16 10-20 19l-6 10-6 12c-5 7-10 12-18 16l-8 4c-7 4-13 9-18 16l-7 15-1 1h2l8-2c10-2 19-7 27-14l12-10c9-8 19-15 30-19l10-5c9-4 16-11 21-19l4-9 2-5 2-1v2l-1 9c-1 8-4 14-9 20s-10 10-16 13l-12 6a85.7 85.7 0 0 0-21 13l-16 12-1 2h2c4 0 8 2 12 4l8 3 7 4 3-1 5-5c12-10 25-16 40-17l20-2c11 0 21-4 30-11 9-8 16-16 22-26 3-5 5-11 6-17v-19c-1-9-4-18-9-27l-5-11-5-14-1-10c1-8 5-15 11-20 10-9 22-12 36-10l12 3h1v-1c-3-6-7-10-13-13l-14-3c-6-1-12 1-17 4l-4 2c-4 3-9 4-14 4l-1-1 3-1 13-7 3-3c4-3 9-4 14-5 11 0 20 4 27 12 3 3 4 7 5 11v4l-3-1-3-1c-7-2-14-3-21-2-10 1-18 6-25 13-5 6-7 13-5 21l5 12 7 13 7 14c3 7 4 15 3 22l-1 9 1 2h2l19-3 21-7 38-14c3-1 3-1 3-5v-6l-4-27-7-28c-5-20-13-40-23-58l-21-37c-8-13-18.2-24.4-30-34a963 963 0 0 0-36-22c-13-6-25-10-38-14-3-1-6-2-9-1l-4 2c-8.6 8.4-17.2 16.8-26 25h-2v-3l1-2 4-2 10-8 9-8v-2h-1l-9 3c-10 4-20 7-29 12l-8 4v1c4 2 7 5 9 8l8 12c3 5 4 11 4 17s-2 12-3 17c-2 4-3 7-3 11-1 7-4 12-9 16l-10 5-10 3c-7 1-15 2-23 0-12-1-22-6-30-15h-2l-6 12c-8 15-15 31-20 47-4.6 16.9-9 33.9-13 51l-2 39m341-15c0 36.3-6.9 72.2-20 106l-13 27c-6 13-14 24-23 35-8 9-16 18-26 25a176.8 176.8 0 0 1-84 37h-5c-8 1-16-1-24-3-12-2-23-7-35-12l-24-14a144.3 144.3 0 0 1-46-43c-6-8-11-16-15-25l-17-38a220 220 0 0 1-16-75 270.1 270.1 0 0 1 7-76l9-33c9-26 22-50 40-72l9-11 13-15 9-10 19-16 18-10 29-11 20-3 9 1 17 4c12.5 3.7 24.6 8.7 36 15 11 7 22 15 31 25l31 37c19 26 32 54 40 84 4 18.2 7.2 36.6 10 55l1 16"/>
    <path fill="#00807D" d="M404.1 315.4c0-2-2-5-5-5-2 0-4 2-4 5 0 2 2 4 4 4 3 0 5-1 5-4m29 10h-3c-4 0-7 2-10 4l-1 1 2 1 8-2c8-2 15-1 23 2h1l-1-1-4-2c-4-2-9-3-15-3m-196-1-1-6h-2c-2 1-3 3-3 6l-3 12c-1 13-3 25-7 37l-7 28v4c-1 0 0 0 0 0l1-2 4-17c3-12 6-25 11-37 3-8.1 5.3-16.5 7-25m53-10-1 1 1 4 2 6 6 12 13 25c4 7 6 15 9 22l4 9 3 5h1l1-1-2-4-5-12-16-36-6-16-5-10-4-4-1-1m55-60-8 1-1 1h1a1615 1615 0 0 0 66 10l20 5 10 1 1-1-1-1-9-2-28-5-34-7-17-2m70 178v-3l-2-9-4-4c-1-1-3 0-3 2v6c1 12-1 24-6 35l-9 15-5 7-1 1v1h1l1-1c9.8-9.8 18.2-21 25-33 2-6 3-11 3-17m-235 1 2-39 4-16 9-35c5-16 12-32 19-47l7-12h2c8 9 18 14 30 15 8 2 15 1 23 0l10-3 9-5c6-4 9-9 10-16l2-11c2-5 4-11 4-17s-1-12-4-17l-8-12c-2-3-5-6-9-7v-2l8-4c9-5 19-8 29-12l9-3s2 0 0 2l-8 8-10 8-5 4v3s2 1 5-2l7-6 20-19 9 1c13 4 25 8 38 14a1126 1126 0 0 1 44 28c8 8 16 17 22 28l21 37c10 18 18 38 23 58l7 28 4 27v6c0 4 0 4-3 5l-38 14a163 163 0 0 1-40 10h-2l-1-2 1-9c1-7 0-15-3-22l-7-14-8-13-4-12c-2-8 0-15 5-21 7-7 15-12 25-13 7-1 14 0 21 2l3 1 3 1v-4c-1-4-2-8-5-11-7-8-16-12-27-12-6 1-10 2-14 5l-3 3-13 7-3 1s-1 1 1 1c1 0 0 0 0 0 5 0 10-1 14-4l4-2c5-3 10-5 17-4l14 3c6 3 10 7 13 13v1h-1l-12-3c-14-2-26 1-36 10a29 29 0 0 0-10 30l5 14 5 11a88 88 0 0 1 9 46c-1 6-3 12-6 17-6 10-14 18-22 26-9 7-19 11-30 11l-20 2a67.8 67.8 0 0 0-45 22l-3 1-7-3-8-4-12-4c-2 0-1-1-1-2l16-12 1-1c6-5 13-9 20-12l12-6c6-3 11-7 16-13s8-12 9-20l1-9c0-3-1-1-2-1l-2 5-4 9c-5 8-12 15-21 19l-10 5c-11 4-21 11-30 19l-12 10c-8 7-17 12-27 14l-8 2c-1 1-1-1-1-1l7-15c5-7 11-12 18-16l8-4c7-4 13-9 18-16l6-12 6-10c4-9 11-15 20-19l21-10c8-3 14-7 20-12 5-5 9-9 12-15a306 306 0 0 0 12-26c1-5 0-10-1-16l-3-13-1-8c-3-19 12-36 31-35l11 1c7 3 13 7 17 14v1h1l-1-5c-3-5-7-8-11-10-14-6-27-6-39 3s-18 21-17 37l2 15 3 16c1 6 0 11-1 16-5 11-12 19-23 24l-14 5-16 5-6 3c-12 4-20 12-26 22-2 4-5 6-8 7l-36 11a152.3 152.3 0 0 1-53 2c-3-1-3-2-3-4l-1-24"/>
    <path fill="#00807D" d="M339.1 581.4v2h2c3-2 6-2 9-1 2 0 2 0 3-2s2-5 5-6c2-1 2-1 0-3l-12-11-2-3v-31l1-3 7-7h1v4c.2 10.4 1 20.7 2 31l11 15h3c2-4 6-5 10-5l2-1c0-3 1-4 3-5h3l1-1-1-1-4-1-15-3-5-2c-2 0-2-1-3-2v-33l3-3 7-1c6-1 12-3 17-7 2-2 4-2 6-1l19 6 27 7c21 4.7 43 1.8 62-8h1v2l-7 19c-7 15.6-15.7 30.3-26 44-8 10-18 19-28 27-2 2-4 3-6 2l-20-3c-11-2-21-3-32-2-12 0-23 2-34 3l-39 5c-18 1-36 0-54-4l-5-2-26-26c-5-6-10-12-14-20l-6-12v-2h2l12 4 24 3a93.2 93.2 0 0 0 41-13l4 1 3 1c10 6 20 7 30 4l12-5 3-2 1 1 1 13v13l1 25"/>
    <path fill="#00807D" d="M513.1 437.4c0 15-1 31-4 46l-3 11c0 2-1 3-3 4l-24 7c-10 2-21 2-32 1a330.4 330.4 0 0 1-53-11c1 0 24-17 31-40 1-2 1-3 3-3 17 0 34-5 50-12l28-14 5-2c2-1 2-1 2 2v11m-255-141c-13-1-23-6-32-14l-1-1v-4l12-20a140.7 140.7 0 0 1 30-33l14-10c3-2 5-1 7 0l8 7 3 8 1 12 3 10 1 5c2 6-1 10-4 15h-1l-14 14c-2 3-5 4-8 6-6 2-12 5-19 5m89 347-10-2c-15-3-30-8-43-16l-7-4-14-9-2-1-1-1 1-1 8 1h31c14-1 28-4 42-8 19-4 33-7 81 0h1v1l-2 1c-12 9-24 16-36 23a151.7 151.7 0 0 1-49 16m-106-108c-12 0-22-2-32-5l-7-3c-2 0-3-1-3-3-7-13-12-28-14-43l-3-12v-3h2c7 3 15 4 23 5 17 0 33-3 49-9l14-5c1-1 3-2 3 0a70 70 0 0 1-27 29c-6 5-10 10-14 17l-8 21 1 1c8 0 17 0 25-3l9-3 3-1c7 1 12 3 17 7v1l-1 1c-12 5-25 8-37 8m61-8 1-2c11-8 23-13 36-14l9 1c-7 4-10 8-20 12-9 4-24 5-26 3"/>
    <path fill="#FFF" d="M415.1 432.4c0 6-1 11-3 17l-5 9c-6 9-13.2 17.4-21 25h-1v-1l1-1 5-7 9-15c5-11 7-23 6-35v-6c0-2 2-3 3-2l4 4 2 9v3m-70-178 17 2 34 7 28 5 9 2c0 1 2 2 0 2l-10-1-20-5-25-4a1835 1835 0 0 1-41-5l-1-1c1 0-1-3 9-2m-54 61 4 4 5 10 6 16 16 36 5 12 2 4c0 2-1 1-2 1l-3-5-4-9c-3-7-5-15-9-22l-13-25-6-12-2-6-1-4c0-1 1-2 2 0m-54 11-2 9-5 14c-5 12-8 25-11 37l-4 17-1 2c0 1-1 0 0 0v-4l7-28c4-12 6-24 7-37l3-12c0-3 1-5 3-6 0-1 3-2 3 0v8m196-1c6 0 11 1 15 3l4 2s2 2 0 1c-3-2-15-4-23-2l-8 2c-3 1-1-2-1-2 3-2 6-4 10-4h3m-29-10c0 3-2 4-5 4-2 0-4-2-4-4 0-3 2-5 4-5 3 0 5 3 5 5m23.3 225.3c0 .4-.3 6.8-.2 13.3-6.8.5-5.7-13.3-5.3-15 .2-1.4-4.4 1.7-6.6 3.8.7 1.3 1.7 1 3 .5-.6 6.2 3.8 11.8 9 11.7.1 6.4.8 12.5 2.6 13 .2 0 .5-6.5.6-13.7 12.2-3.8 7.5-18.3 7.5-18.3-.2-.8-2 .3-6 3.9 1.6 1.7 2.4.7 3.6.3 1 1.9 1.4 10.5-5 13l.2-18-.4-.2c-1.8.2-5 3.4-7.5 6 1.4 2.3 3.1.3 4.5-.3m6 19 2.7 2.9 2.8-2.8-2.8-2.8-2.8 2.8Z"/>
  </g>
</symbol></svg>
