<svg xmlns='http://www.w3.org/2000/svg' viewBox='0 0 30 30' fill='none'>
<symbol id='Champagne'>
<path d="M17.4217 25H16.1214V18.87C19.2826 17.1 19.8879 8.1 20 4.02C20 3.75 19.8879 3.49 19.6861 3.3C19.4731 3.11 19.1817 3 18.879 3H11.1218C10.8191 3 10.5276 3.11 10.3146 3.3C10.1017 3.49 9.98956 3.75 10.0008 4.02C10.1129 8.09 10.7182 17.1 13.8794 18.87V25H12.579C11.9625 25 11.4581 25.45 11.4581 26C11.4581 26.55 11.9625 27 12.579 27H17.4329C18.0495 27 18.5539 26.55 18.5539 26C18.5539 25.45 18.0495 25 17.4329 25H17.4217ZM17.7244 5C17.7132 5.34 17.6908 5.68 17.6683 6.02H12.3324C12.31 5.68 12.2876 5.34 12.2764 5H17.7244ZM12.5006 8.02H17.5114C17.007 13.21 15.886 17.01 15.0116 17.18C14.126 17.02 13.0162 13.21 12.5006 8.02Z" fill="currentcolor"/>
</symbol>
</svg>
