<svg xmlns='http://www.w3.org/2000/svg' viewBox='0 0 30 30' fill='none'>
<symbol id='Charcuterie'>
<path fill-rule="evenodd" clip-rule="evenodd" d="M13.3198 16.1433C12.6363 16.7037 11.7745 17.0539 10.8235 17.0539L10.8136 17.0439C8.59467 17.0439 6.79177 15.2228 6.79177 12.9814C6.79177 11.8007 7.30689 10.7401 8.09937 9.9996C8.54514 9.10906 10.5561 5.46686 13.5873 5.64697C14.0727 4.75643 15.5487 3.35558 17.827 3.86589C18.7285 3.07541 20.2144 2.5651 21.8489 3.51568C22.6215 3.29554 24.0777 3.0654 25.3061 3.89591C26.4254 4.65637 27 6.04721 27 8.03842C27 9.62938 26.5047 10.7501 25.5438 11.3704C24.9891 11.7206 24.3749 11.8407 23.7905 11.8407C23.097 11.8407 22.4531 11.6706 22.0173 11.5205C21.631 11.7407 21.1555 11.9108 20.6304 11.9108C20.2936 11.9108 19.9469 11.8407 19.5903 11.6906C19.3823 11.8807 19.1247 12.0508 18.8077 12.1709C18.5997 12.251 18.3224 12.311 17.9955 12.311C17.9619 12.311 17.9261 12.3087 17.8891 12.3063C17.8495 12.3037 17.8086 12.301 17.7676 12.301C17.5596 13.3616 16.9751 14.3322 16.0638 15.0026C15.0336 15.7631 14.1321 16.1433 13.3297 16.1433H13.3198ZM9.57536 11.3704C9.09987 11.7507 8.78288 12.331 8.78288 12.9914H8.79278C8.79278 14.1221 9.71404 15.0527 10.8334 15.0527C11.9528 15.0527 12.8741 14.1221 12.8741 12.9914C12.8741 11.8607 11.9627 10.9302 10.8334 10.9302C10.3579 10.9302 9.93197 11.1003 9.58526 11.3704H9.57536ZM14.8057 13.4717C14.8453 13.4417 14.9147 13.4017 14.9147 13.4017C15.7369 12.8013 16.0836 11.7307 15.7765 10.7601C15.6378 10.3298 15.4793 9.95958 15.301 9.62938C14.9048 9.64939 14.3203 9.77947 13.7854 10.2498C14.4392 10.9802 14.8553 11.9308 14.8553 12.9914C14.8553 13.1176 14.8389 13.2328 14.8224 13.3492C14.8166 13.3897 14.8108 13.4304 14.8057 13.4717ZM17.6586 10.1497C17.6785 10.1797 17.6884 10.2598 17.6884 10.2598V10.2698C17.9063 10.3498 18.2233 10.4199 18.4412 10.0496C18.57 9.50931 18.5799 8.98899 18.5304 8.49869C18.1639 8.48869 17.6289 8.53872 17.1336 8.87893C17.3218 9.25916 17.5101 9.67941 17.6586 10.1497ZM20.4819 7.99839C20.5611 8.58875 20.5809 9.21913 20.4819 9.88954L20.4918 9.87953C20.7394 9.94957 20.9474 9.88954 21.1059 9.76947C21.3833 9.21913 21.4824 8.62877 21.4923 8.05843C21.2149 7.92835 20.8781 7.86831 20.4819 7.99839ZM23.414 8.78887C23.3744 9.11907 23.315 9.44927 23.2159 9.77947V9.78948C23.6815 9.87953 24.1768 9.89954 24.4938 9.68942C24.6523 9.57935 24.7612 9.39924 24.8405 9.18911C24.4244 8.86892 23.949 8.73884 23.414 8.78887ZM24.9396 6.98778C24.8405 6.39742 24.6325 5.84709 24.2164 5.56692C23.8796 5.33678 23.4437 5.29676 23.0475 5.32677C23.1763 5.73702 23.3051 6.23733 23.3843 6.78766C23.9291 6.75764 24.4542 6.81768 24.9396 6.98778ZM21.1555 5.93714C21.0762 5.66698 20.9871 5.43684 20.9276 5.28675C20.2936 4.89651 19.7983 4.96656 19.4417 5.15667C19.5903 5.41683 19.7488 5.72702 19.9073 6.07723C20.3333 5.93714 20.7592 5.89712 21.1555 5.93714ZM17.9162 6.50749C17.7775 6.22732 17.6289 5.99718 17.5299 5.84709V5.83708C16.252 5.49688 15.5982 6.20731 15.3803 6.5175C15.5784 6.6976 15.7963 6.92774 16.0242 7.1879C16.6581 6.74763 17.3318 6.56753 17.9162 6.50749ZM13.7701 7.76733C13.7142 7.72384 13.6658 7.68628 13.6269 7.65819H13.6368C12.7057 7.53811 11.8537 8.18851 11.19 8.94897C11.4971 8.97899 11.7844 9.03902 12.0717 9.12908C12.6462 8.46868 13.3 8.08845 13.9142 7.87832C13.8621 7.83884 13.8138 7.80128 13.7701 7.76733ZM24.6127 20.5461L25.1873 20.2859V20.2659C25.6727 20.0358 26.2472 20.2459 26.485 20.7262C26.5246 20.8062 26.8713 21.5367 26.8713 22.6674C26.8713 23.7981 26.5246 24.5285 26.485 24.6086C26.3067 24.9588 25.9599 25.1589 25.5934 25.1589C25.4547 25.1589 25.3062 25.1289 25.1774 25.0688L24.6028 24.8087C23.8599 26.1095 22.4829 27 20.898 27H5.00877C4.7314 27 4.49366 26.94 4.32526 26.8699C3.86958 26.6898 3.09692 26.1495 3.00776 24.6086C2.95823 23.728 3.14645 22.6974 3.55259 21.6868C3.95874 20.6762 4.53328 19.7956 5.16727 19.1953C5.87059 18.5449 6.49467 18.3548 6.98006 18.3548H6.98997H20.9079C22.5028 18.3548 23.8698 19.2453 24.6127 20.5461ZM6.92063 20.386C6.62345 20.5061 5.91022 21.1465 5.39511 22.4472C4.87999 23.758 4.94934 24.7086 5.08802 24.9988C5.3852 24.8787 6.09843 24.2483 6.61354 22.9375C7.12865 21.6267 7.05931 20.6762 6.92063 20.386ZM7.77254 25.0188H20.9178V25.0088C22.1858 25.0088 23.216 23.9682 23.216 22.6874C23.216 21.4066 22.1858 20.366 20.9178 20.366H8.94145C8.9462 20.3972 8.95152 20.4283 8.95686 20.4596C8.9738 20.559 8.99098 20.6597 8.99098 20.7662C9.04051 21.6468 8.84239 22.6774 8.44615 23.688C8.25794 24.1683 8.0301 24.6186 7.77254 25.0188Z" fill="currentcolor"/>
</symbol>
</svg>
