<svg xmlns='http://www.w3.org/2000/svg' viewBox='0 0 30 30' fill='none'>
<symbol id='Cheese'>
<path fill-rule="evenodd" clip-rule="evenodd" d="M16.4151 6.00032C16.8999 5.99743 22.5449 5.96382 25.38 8.72583C26.45 9.77405 27 11.0818 27 12.6093V22.5524C27 23.3511 26.35 24 25.55 24H4.45C3.65 24 3 23.3511 3 22.5524V20.8753C3 20.3262 3.45 19.877 4 19.877C4.69 19.877 5.26 19.3079 5.26 18.6191C5.26 17.9303 4.69 17.3612 4 17.3612C3.45 17.3612 3 16.912 3 16.3629V13.0685C3 12.4795 3.35 11.9803 3.85 11.7507C3.87 11.7407 3.9 11.7108 3.9 11.7108L15.99 6.09028C16.12 6.04037 16.25 6.00044 16.39 6.00044C16.3956 6.00044 16.404 6.00039 16.4151 6.00032ZM23.98 10.1634C21.94 8.16677 17.61 7.99706 16.63 7.99706L8.84 11.6209H24.85C24.69 11.0818 24.42 10.5927 23.98 10.1634ZM5 22.0034H25V13.6176H5V15.5243C6.31 15.9436 7.26 17.1715 7.26 18.6191C7.26 20.0667 6.31 21.2946 5 21.7139V22.0034ZM19.55 21.3246C21.5 21.3246 23.08 19.7473 23.08 17.8006C23.08 15.8539 21.5 14.2765 19.55 14.2765C17.6 14.2765 16.02 15.8539 16.02 17.8006C16.02 19.7473 17.6 21.3246 19.55 21.3246ZM19.55 16.2732C20.39 16.2732 21.08 16.962 21.08 17.8006C21.08 18.6392 20.39 19.328 19.55 19.328C18.71 19.328 18.02 18.6392 18.02 17.8006C18.02 16.962 18.71 16.2732 19.55 16.2732ZM11.295 21.145C12.0034 21.1437 12.7213 20.8742 13.26 20.3364C14.34 19.2582 14.34 17.4912 13.26 16.413C12.17 15.3348 10.41 15.3348 9.33002 16.413C8.25002 17.4912 8.25002 19.2582 9.33002 20.3364C9.86876 20.8742 10.5767 21.1437 11.295 21.145ZM11.295 21.145L11.3 21.145H11.29L11.295 21.145ZM10.74 17.8206C11.04 17.5211 11.54 17.5211 11.84 17.8206C12.14 18.1201 12.14 18.6193 11.84 18.9188C11.54 19.2183 11.04 19.2282 10.74 18.9188C10.44 18.6193 10.44 18.1201 10.74 17.8106V17.8206Z" fill="currentcolor"/>
</symbol>
</svg>
