<svg xmlns='http://www.w3.org/2000/svg' viewBox='0 0 696 830' fill='none'><symbol id='CM2C_EC_Outline'>
  <g fill="#1E2346">
    <path d="m234.3 146.5 3-1a171 171 0 0 1 38.3-19l25.1-9c13.1-4.1 26.2-5.1 40.3-4.1h16c13.1-1 25.2 0 38.3 4 17.7 6 35.1 12.8 52.3 20.1l7 4-5-6-26.1-27.1-33.2-36.2-19.2-19-21-21.2c-3.1-4-3.1-4-6.1 0a1342 1342 0 0 0-59.4 60.3l-23.1 25.1-25.2 26.1-2 3M347 796.3l1-1 14-14 10.1-11.1 13.1-15 19.1-21.2 25.2-28 23.1-25.2 2-2c-1-1-2 0-3 1a166.4 166.4 0 0 1-60.3 19.1l-30.2 4h-31.2l-23.1-4-25.2-5a165 165 0 0 1-46.3-20.1h-1l2 2 13.1 14 21.1 22.2 29.2 33 15.1 16.2 15 18 8.1 9 8 8.1h1.1M531.1 225h-1v1c5 8 8 15 11 23l17.2 43.3c11 28.9 17.2 59.4 18 90.3l2.1 36.2-1 14-1 28.2-3 25c-2.3 15.3-5 30.3-8 45.3-4.6 16.4-11 32.2-19.2 47.2v1l3-3 47.3-61.3 49.3-65.3 13-16 13.2-15.1-1-2-7-8-19.2-23.1A3128.4 3128.4 0 0 1 574.4 283c-9.6-17-21-32.8-34.2-47.2l-8-10-1-1m-355.2-15-12.1 14-21.1 26c-8 9.1-15.1 20.2-21.2 30.2l-22.1 34.2-46.3 66.2c-10 12-19.1 25.1-30.2 36.2v2l6 7C48 450 67 474.4 85.5 499l29.2 39.2 33.2 41.2 9 11 2 3h1v-1l-2-3a185 185 0 0 1-30.1-74.3l-4-35.1-2-17.1-2-24.1v-41.2l2-24c3.4-28.8 9.8-57 19-84.5l13.1-34.1c6.4-14 13.4-27.8 21.2-41.2l2-4h-1m396.4 223v-14.1l-2-28.1-4-34.2c-3-21-9.1-41.1-17.2-61.2l-17-45.2c-4.1-11-9.1-21.1-15.2-31.2a555 555 0 0 0-48.3-61.2 106.7 106.7 0 0 0-45.2-25.1 516 516 0 0 0-62.4-13H334l-17 2c-18.4 3-36.2 8-53.4 15a115.8 115.8 0 0 0-51.3 38.2L184 212.8c-7 12-14 23.1-19.1 36.2l-9 25c-5 14.1-11.1 27.2-15.2 41.3a285 285 0 0 0-14 80.3l-1 13-1 21.1a249 249 0 0 0 10 84.4c6 27 17 52.4 32.2 75.3 10 14 20.1 28.1 33.2 40.2l19.1 19c11 10.4 23.3 19.5 36.2 27.2a144 144 0 0 0 36.3 14l28.1 6L349 699h7c8.1 0 15.1-1 22.2-3l11-2 26.2-7a155 155 0 0 0 59.4-35.2l24.1-24.1a262.6 262.6 0 0 0 73.5-194.8M678 419.7v1l-2 5a476 476 0 0 1-40.3 60.3l-35.2 45.2-25.1 29.1-37.2 41.2-20.2 20-32.2 37.2-23.1 28.1a4404.1 4404.1 0 0 1-67.4 76.4L362 797.3l-10 8c-4.1 4-6.1 3-10.1 0l-13.1-12c-14.1-12-26.2-26.1-38.2-39.2l-20.2-21-26.1-30.2-42.3-51.2-13-15-37.3-39.2-36.2-40.2A873.5 873.5 0 0 1 25 436.8l-7-12-1-2v-7.1l5-9c15.1-23.2 29.2-47.3 45.3-70.4 15.3-24 32.8-46.5 52.3-67.2l23.2-28.2 29.1-40.1c19.8-26.5 41-52 63.4-76.4l37.2-37.1L309.8 54c13.2-10.3 26-21.5 38.2-33l4 3 12.1 12 24.1 21.2 15.1 13c19 18 37.4 36.4 55.4 55.2a736.3 736.3 0 0 1 74.4 90.4l20.1 28.2 26.2 32a492.2 492.2 0 0 1 52.3 67.4c15.6 24 30.7 48.6 45.3 73.3l1 3"/>
    <path d="m326.9 434.8-1-5c-1-1-2-2-4-1l-5 2-5.1 4a29 29 0 0 1-15.1 5c-2 0-3 1-2 3 .9 2.7 1.9 5.4 3 8l3 1 2-2 8-4 13.2-8 3-2v-1m-57.4 25v7.1c1 1 2 2 3 1l4-2 14.2-9c3-1 4-2 3-6l-2-5v-2h-2l-12.1 6-6 2-2 4v4m93.5-23.1h6c2 0 2-1 2-2l-4-11-1-1h-5l-15.1 3c-3 1-7 2-10 1h-4c-2.1 0-3.1 1-2.1 3l1 2c1 3 3 5 7 5h25.2Zm54.3 3h10l14.2-3c3-1 4-2 3-5l-1-2-4-10.1-1-2c-1-1-2-2-4-1h-2l-5.1 2a76.3 76.3 0 0 1-53.3 4l-2 1v1l4 11 4 2 13 1h3.1l21.1 1m-129.8-34c0-8-1-16.1-4-23.2-2-8-4-15-4-23l-1-10.1-1-5v-1l-1-1-1 1-1 6-3 27.1-3 28.1-4.1 17.1c-3 6.6-4.3 13.9-4 21.1 0 3 2 4 5 5h1c7 0 13-2 19.1-6 3-2 3-2 0-5-2-1-3-4-3-7l2-4c2-7.1 3-13.1 3-20.2m62.4 35.2-20.1 1c-3 0-6 1-8 3l-33.3 18-15 9.1c-3 2-3 4-4 7v4c1 3 2 3 4 2l27.1-14c8.5-3.5 16.8-7.2 25.2-11l2 1v3c0 2 1 3 3 2l6-1 9-1 17.2-4 38.2-9 13.1-2 5-2v-2l-4-1-24.1-1.1-19.2-1-22-1m-30.3-67.3v-3l-5-26.1-2-9-5-22.2c0-1 0-2-2-2l-1 2c-4 15.1-7.1 29.2-7.1 44.2l-1 18.1v12l-2 19.1-6 18.1-1 3c-1 4 0 6 4 5h2l23.1-5 3-2v-4l-1-1c-3-2-4-5-3-8v-4l1-7 2-18.2 1-10M347 636.6l12-1 4-1c12.2-3 24.2-8 35.3-14 10-5 19.1-12 29.2-18.1l14-11 2-1v-1h-1l-2 1-15 4-19.1 7a113 113 0 0 1-61.4 3l-16.1-2-20.1 2-24.2 7h-1v1c11.3 7 23 13 35.2 18.1l17.1 5 11.1 1m8-260v-18.2l-2-20-4-15.1-2-13-1-11.1-4-15-3-10.1-1-2-1-1-1 1v2a1329 1329 0 0 0-17.2 140.6l9 4 13.2 3 8 1 12-2 2-1v-2l-4-4c-3-3-4-6-4-10v-27.2m98.6 58.3h2l24.2-4 9-2c2 0 2-1 1-3l-2-3-13-20.2c-10.3-16-20.4-32-30.2-48.2l-5-10c-6-11-13.1-21.1-21.2-31.2-8-9-15-19-21.1-29l-14-22.2-1-2h-1.1l-1 1 1 1 1 5 6 24.2c2 10 6 19 11.1 28l8 16.1 8.1 18.1 8 18.1a491 491 0 0 0 21.2 53.2l3 7c1 2 3 3 6 3m-95.5-77.3c.6 13.4.2 26.9-1 40.2v5c0 3 1 6 4 7l7 4c10 4 20.1 5.1 31.2 4 11-1.1 22.1-2.4 33.2-4 3 0 3-2 2-5l-3-6-20.1-40.1a391 391 0 0 1-25.2-59.3l-8-17a208 208 0 0 1-17.1-45.3l-1 1v52.3l-1 27v10.1l-1 26.1m101.6 182.8h23.1c2 0 3 0 4-2l15.1-34.1 2-6c1-2 0-2-1-2l-1 1-30.1 9c-6 2-11.1 5-17.2 6-9 2-18 3-27.1 1l-13.1-2c-3 0-4 1-5 3l-3 6-3 6c-2 3-5 5-9.1 6l-20.1 1h-39.3l-26.1-1-27.2-1-24.1-3-21.2-2c-3-1-5-1-7-3s-5-2-7-2c-6.6.3-13 1.7-19.2 4v2l1 2 8 16.1 7.1 11c1 3.1 4 4.1 7 3.1l3-1 9.1-2a170 170 0 0 1 50.3-3l34.3 2c20.6 1 41.3-1 61.3-6l36.2-7c6-2 13.1-2 20.2-2h19m-84.4 50.1c15.4-.3 30.9-1 46.2-2l26.2-4 7-4 9.1-9c6-7 13-14.1 17.1-23.1l1-2-1-1-26.2-2c-13-1-26.1-1-39.2 2l-31.2 7-29.2 8c-11 3-22 4-34.2 4h-10l-29.2-3-20.1-2-28.2 2-5 1c-3 2-3 3-1 5l26.1 25.1 16.1 12c3 1.1 5 2.1 7 1.1l5.1-1 30.2-8c17-4 34.2-6 52.3-6h11m-6-63.3 14.1-1 11-3c2.1 0 3.1-2 4.1-3l1-2 5-10.1 6-11 13.2-21.2c4-8 10-14 17-19l10.1-6 16.1-6 11-5.1 10.1-5 1-2-1-1-5 1-31.2 10A1475.3 1475.3 0 0 1 325 471.9l-3-2v-2l-2-1-5.1 3-14 9a191.6 191.6 0 0 1-60.4 23.2l-6 1c-2.1 0-3.1 2-3.1 4v5c0 2 1 3 3 4 1 2 3 2 5 2l13.1 1 9 1 24.2 1 33.2 1 27.2 3c7 1 15 3 23.1 2m146-103.4-1-24c-5.1-24.3-10.9-48.5-17.2-72.4-4-13-9-24-15-36.1L464.6 261c-5-9-11-18-18.1-26-5-6.1-10-12.1-17.1-16.2l-20.1-14-15.1-8c-12-6-26.2-10-39.3-15.1-5-2-10-2-15 0-11.1 4-22.2 7-32.2 12-7 3-15.1 6-21.2 10l-21.1 14.1c-4 3-9 7-12 12l-9.1 10.1-8 11-11.1 19.2a380.2 380.2 0 0 0-30.2 65.2c-4.9 20.4-9.6 40.8-14.1 61.3l-1 21 3 51.3c3 16 7 31.1 14 46.2 2.1 5 2.1 5 7.1 3l13.1-4 6-1c3 0 3-1 3-3v-1c0-3 2-6 4-8l6.1-4 13.1-5 11-5.1c3-2 4.1-4 4.1-7v-4l-2-21.1-5-1c-2-1-3-3-3-6v-2c3-8.1 4-17.2 3-25.2 0-8 1-15 3-23l7-31.2 5-23.1 2-9 1-1c3.4 9.6 6.4 19.2 9.1 29 2 4 4 8 4 13.1v7l1 2h1v-1l1-12 4-24.1 3.1-15c2-10 4.2-19.7 7-29.2h2l2 2 2 8 5.1 19.1 3 15 1 11.1v2h2v-2l-1-12c-1-13.6.4-27.1 4-40.2l7.1-35.1 2-7 1-2h2l1 2c3 4 4 8 5 12l2 11c1.1 7 4.1 15.1 7.1 22.1l1 1 1-2v-9l1-16a1317 1317 0 0 0 3-39.2v-12.1c1-1 2-2 3-1l3.1 3 8 10 33.3 43.2c7 9 13 18.1 18 28.2 6.1 11 12.1 22 20.2 32l7 11.1 20.2 32.2 8 13 13 20.1 2 3 1.1 4-7 8c-6 7.1-15.1 12.1-23.2 17.2l-11 4c-6 3-12.1 7-17.2 12-9 9-16 19.1-23.1 30.2v3l1 1h2l14.1-1 22.1-4 23.2-4 24.1-3c5-1 5-1 7-7.1 4.2-20.9 6.6-42 7.1-63.3m8-10-1 16a267.2 267.2 0 0 1-20 88.4l-12.1 26.1c-5 11-12.1 21.1-19.2 30.2l-14 16c-8 9-17.1 16.1-27.2 22.1l-25.2 14c-15 8.1-30.1 12.1-46.2 15.2l-6 1c-14.2 1-27.2-3-40.3-7l-22.2-9.1-30.1-18c-10-7.1-18.1-15.2-26.2-24.2a309 309 0 0 1-26.1-36.1L188 507a205.6 205.6 0 0 1-14-67.3c-1.9-22.4-1.3-45 2-67.3 6.2-26 14.2-51.5 24.1-76.3a267 267 0 0 1 34.2-53.3l16.1-18 13-14 12.2-10.1c7-6 15-10 23.1-14 11-4.1 22.1-9.1 34.2-11.1l13-2h3.1c13 2 26.2 5 38.2 10l8 3c9.1 4 17.2 8 24.2 14l13.1 11.1 12 13 17.2 20.2a242 242 0 0 1 50.3 97.4l6 28c3 10.1 4 20.2 4 30.2v13"/>
    <path d="M216.3 404.6c0 .4-.3 6.9-.2 13.4-6.8.5-5.7-13.4-5.3-15 .2-1.5-4.5 1.6-6.7 3.7.7 1.4 1.7 1 3 .5-.5 6.3 3.9 11.9 9 11.8.2 6.4 1 12.6 2.7 13 .2.2.4-6.5.6-13.7 12.3-3.8 7.6-18.4 7.6-18.4-.2-.8-2 .3-6 4 1.5 1.6 2.3.6 3.6.2 1 2 1.4 10.6-5.2 13.2l.3-18c0-.3-.2-.4-.4-.4-1.8.2-5 3.4-7.5 6.1 1.4 2.2 3.1.2 4.5-.4m5.8 19.2 2.9 2.8 2.8-2.8-2.8-2.8-2.9 2.8Z"/>
  </g>
</symbol></svg>
