<svg xmlns='http://www.w3.org/2000/svg' viewBox='0 0 30 30' fill='none'>
<symbol id='CoffeeMachine'>
<path d="M26.2597 3.73938C25.7795 3.25978 25.1492 3 24.479 3H20.0071H5.54106C4.87078 3 4.23051 3.25978 3.75031 3.73938C3.27011 4.21898 3.01 4.84846 3.01 5.52789V9.5945C3.01 10.5137 3.76032 11.2631 4.6807 11.2631H9.43268V12.622C9.43268 13.1715 9.88287 13.6211 10.4331 13.6211C10.9833 13.6211 11.4335 13.1715 11.4335 12.622V11.2631H16.5256C16.6857 11.2631 16.8158 11.393 16.8158 11.5529V21.2748C16.8158 21.4346 16.6857 21.5545 16.5356 21.5645H14.1847C14.7349 20.8052 15.055 19.8759 15.055 18.8568V16.229C15.055 15.6794 14.6048 15.2298 14.0546 15.2298H6.6115C6.06128 15.2298 5.61109 15.6794 5.61109 16.229V18.8568C5.61109 19.8859 5.95123 20.8251 6.51146 21.6045H4.66069C4.2105 21.6045 3.79033 21.7843 3.4802 22.1041C3.17007 22.4238 3 22.8435 3 23.2931V24.4721C3.01 25.8609 4.15048 27 5.54106 27H24.479C25.8695 27 27 25.8709 27 24.4821V5.52789C27 4.84846 26.7399 4.21898 26.2597 3.73938ZM7.60192 17.2082H13.0442V18.8368C13.0442 20.3356 11.8237 21.5545 10.3231 21.5545C8.82243 21.5545 7.60192 20.3356 7.60192 18.8368V17.2082ZM24.479 24.9717H5.53105C5.24093 24.9717 5.00083 24.7319 5.00083 24.4321V23.5828L16.5256 23.5429C17.7762 23.5429 18.8066 22.5137 18.8066 21.2548V11.5329C18.8066 10.2739 17.7762 9.2448 16.5156 9.2448H5.00083V5.5179C5.00083 5.32806 5.10088 5.20816 5.1609 5.14821C5.22093 5.08826 5.32097 4.96836 5.53105 4.98834H19.9971V4.99833H24.4689V4.98834C24.609 4.98834 24.7391 5.0383 24.8391 5.13822C24.9391 5.23813 24.9892 5.36803 24.9892 5.50791V6.86678H21.2376C20.6874 6.86678 20.2372 7.3164 20.2372 7.86594C20.2372 8.41549 20.6874 8.86511 21.2376 8.86511H24.9892V10.5137H21.2876C20.7374 10.5137 20.2872 10.9634 20.2872 11.5129C20.2872 12.0624 20.7374 12.5121 21.2876 12.5121H24.9892V24.4221C24.9892 24.7119 24.7491 24.9417 24.4689 24.9417L24.479 24.9717Z" fill="currentcolor"/>
</symbol>
</svg>
