<svg xmlns='http://www.w3.org/2000/svg' viewBox='0 0 696 830' fill='none'><symbol id='COLC_Outline'>
  <g fill="#9BADFA">
    <path d="m118.1 427.5 2-42c3-28.9 9-57.4 18-85 10.3-24.8 21-49.5 32-74 10-16 21-31 34-46 12-14 27-26 44-35 12-7 26-12 39-16l20-7c11-2 22-2 33-2h12c15-1 30 0 44 5l38 14a169 169 0 0 1 59 46c9 10 17 22 25 33 8 12 15 25 20 39l17 42c7 20 12 40 15 62 4.6 37.5 5.2 75.4 2 113l-3 24c-2 31-12 61-28 88a287.5 287.5 0 0 1-67 81c-17 15-38 26-61 32l-27 5-23 4h-2l-13 1-23-2-31-5c-28-5-54.4-17.4-76-36a293 293 0 0 1-89-134l-5-30-3-31-2-22-1-22Zm451 18-1-23a708.2 708.2 0 0 0-9-74c-3-17-9-33-15-49l-14-39c-5-13-11-25-19-37a551 551 0 0 0-44-57c-10-9-22-16-35-21l-24-8-32-8-28-2h-16c-13.5 2-26.8 4.7-40 8l-34 11c-11 5-21 11-31 19l-18 20-24 33c-8 12-15 25-20 38l-18 48a304.6 304.6 0 0 0-21 108l-2 33c0 15 1 29 4 44l6 29c9 38 26 71 51 101 13 16 28 30 44 44s35 24 56 30l25 6 15 3c18 2.2 36.3 1.2 54-3 10-2 20-3 29-6 23-7 44-19 62-35l22-22a231.5 231.5 0 0 0 62-101l8-35c5-18 7-36 7-55Z"/>
    <path d="M171.1 420.5c0-21 3-41 8-61l6-22c7-26 19-49 35-71l18-22 10-12c11.7-13.5 25.6-25 41-34 15-8 30-14 47-16 8-2 15-1 23 1 15 2 29 8 42 14l15 10c11 9 21 18 29 28l15 17a242.2 242.2 0 0 1 52 110c3 13.5 5.3 27.2 7 41 1.2 18 .5 36.1-2 54-3 22-8 44-17 65l-14 30a516.5 516.5 0 0 1-30 42c-8 9-18 16-28 23a173.4 173.4 0 0 1-74 30l-6 1-24-3c-12-3-23-7-34-13-10-4-19-10-28-16a166.9 166.9 0 0 1-61-73l-14-30c-9.9-30-15.3-61.4-16-93Zm340 9v-18c-1-11-2-22-5-32l-7-28c-5-18-12-36-21-53l-22-39a132.7 132.7 0 0 0-49-46l-17-10-38-14h-14l-23 8c-11 4-21 8-30 14a943.1 943.1 0 0 0-28 20c-9 9-17 18-23 29l-18 32c-9 15-16 32-21 49l-9 30a325.7 325.7 0 0 0-5 98c3 15 6 28 11 42a407.7 407.7 0 0 0 31 57 237.7 237.7 0 0 0 82 62c10 5 21 8 31 10 6 2 11 2 16 1 15-3 29-8 41-15l19-11c19-11 36-25 51-42 7-8 13-16 18-26l14-28c6-13 10-28 13-43 2-15 3-30 3-47Z"/>
    <path d="m259.1 465.5 1-1h-1c-8-1-16-4-23-7-6-3-13-5-20-5-8 1-14 2-20 7a62.5 62.5 0 0 1-6 4l-1-1 1-2 4-6 9-8c9-8 20-11 33-8l10 2 1-1h-1l-11-8-5-5-11-8c-7-3-14-4-22-2l-8 3-2 1h-2v-2l4-3c6-6 14-10 23-12a32 32 0 0 1 23 4l6 4 2 1-1-2-7-10-7-10a31 31 0 0 0-22-12l-13 1h-2v-2l2-1c7-4 15-6 23-7 11-1 21 3 28 11l4 5 4 4 1 1v-1c-4-5-6-11-8-17l-5-11c-3-5-7-9-13-12l-14-6-5-1-2-1c-1 0-2-2 0-3h1l7-2c7 0 14 0 21 2 7 1 12 5 16 10l6 6 3 6 3 3-1-4-1-13c0-4 0-9-2-14-3-12-10-19-22-23l-4-1c-1-1-2-1-1-2l2-2 3 1c9 1 17 4 25 8 7 4 11 10 14 18l2 8 1 2v-1l2-13 2-15c0-7-3-14-8-20l-9-9-2-2 1-2 2 1c8 3 15 6 21 12 8 7 13 16 13 27v12-1l6-15 3-5c5-11 5-21 0-32l-7-11-1-2c-1-2 0-3 1-3l3 2 7 5 10 13 2 3c5 8 7 16 4 25l-2 11v1-1c3-6 8-10 12-15l3-2c7-8 9-16 8-26l-4-14-2-5 1-2h2l2 2c5 4 9 9 12 14 6 12 6 24-1 35l-4 6-5 7v2l1-1c4-5 9-8 14-11l7-5c9-6 13-15 15-25 1-3 0-6-1-9l-1-5v-3l2-1 2 3c6 10 8 20 5 31l-2 8c-2 5-6 10-10 14l-4 2v1h2c5-4 11-6 17-7l4-2c8-3 14-8 18-16 2-5 4-10 4-15l1-3h2l1 2c3 11 3 22-3 32l-5 7c-3 4-7 8-12 10l-8 5-5 4v1h1v-1c6-4 12-5 18-5 9 0 17-2 24-5 6-2 11-6 14-11l5-10 1-2c1-1 1-2 2-1l2 2v3l-2 10c-1 4-2 7-5 10l-9 11c-4 4-9 6-14 8l-10 3-2 1h2c3-1 7 0 11 1l10 3 6 1c3 1 7 0 10-1 6-1 12-5 16-9l7-7c1-1 2-2 3-1l1 3-1 3c-4 9-11 17-20 22-4 3-10 5-15 6l-11 1h-1l1 1 12 6 15 5c7 1 14 1 20-2l13-6h3l-1 2c-4 7-9 12-14 17-8 5-16 7-25 6l-12-4c-4-1-8-2-12-1h-1 1c6 1 11 4 15 8 5.1 4.2 10.1 8.6 15 13 10 6 20 6 31 2l5-3h2l1 1-1 2c-8 8-18 14-29 15-6 1-11 0-16-2l-9-6-5-3h-1v1l1 1c4 3 8 8 11 13l4 7c6 7 13 12 23 12h16l2 1-1 2-3 2-10 4c-8 2-16 2-23 0-5 0-9-2-12-5l-8-8-5-5-1-1v1c4 5 7 11 9 18 1 5 3 10 6 14 4 6 9 10 16 12a70 70 0 0 0 15 3l1 2-3 2c-5 2-11 2-17 2l-11-3c-9-2-16-7-20-16l-5-8-5-6h-1l1 2c3 5 4 11 5 17v10c1 10 5 18 13 24 4 3 9 6 14 7l1 1 1 1-1 1-3 1c-7-1-14-2-20-5-11-5-18-14-21-26l-2-7-1-4h-1v1c2 6 1 12 0 18l-2 11c-2 7 0 13 3 19 3 5 7 9 12 12l3 3v2l-1 1-3-1-5-1c-8-4-15-10-21-17-4-5-6-11-6-18v-12h-1v1l-5 11-5 10a30 30 0 0 0 1 31l5 8 2 1c0 1 0 2-2 3l-2-1-5-2c-10-8-16-19-18-32l1-11 3-10 1-5h-1v1c-2 5-6 9-9 13l-9 10c-5 5-7 12-7 20l2 11 4 8v3h-3l-3-4c-6-6-10-13-11-21-1-11 1-21 8-30l5-8h-1c-4 4-8 8-13 10l-5 3c-10 6-15 15-17 26-1.6 5.5-2 11.3-1 17l-1 2c-1 1-1 0-2-1l-1-3c-3.9-7.4-6-15.6-6-24-1-7 1-13 5-18l7-8 5-4 4-4c1-1 2-2 1-4l-2 2-12 6-9 3-15 9c-4 4-7 9-10 15-2 4-3 8-2 12l-1 3-1 1-2-1v-1c-2-7-2-13-1-19l2-12c2-7 6-12 12-15l6-3 8-5 4-3v-1h-1l-2 1c-3 2-7 2-10 2h-8l-16 2c-6 1-11 5-15 10l-7 14-2 6-2-2v-8c1-6 3-13 6-19 4-9 11-15 21-18l8-1 5-2 2-1h-2c-5 1-10 0-14-1l-12-3c-10-1-20 0-28 8l-9 10-1 1h-1l-1-1 1-2c4-11 10-20 20-27 5-3 11-5 17-5h16Zm138 53c-2 10 2 18 8 25l4 4 1 1h1v-1l-1-1c-4-5-6-12-6-19l2-17c2.5-9 1.8-18.5-2-27l1-1h3l4 4 5 10 3 10a42.1 42.1 0 0 0 29 25v-1l-2-1c-13-7-19-17-19-31v-8c0-9-3-16-9-22v-1l-1-2 2-1 9 3 7 8 3 6c3 7 9 12 16 15l14 4h7-1l-3-1c-12-3-19-10-24-21l-2-5-2-6c-2-8-7-15-14-20l-2-1c-1-1-1-2 1-3h3c3 0 7 1 10 3l7 6 6 6c3 4 7 6 12 7l13 2 13-2v-1l-12-1c-9-1-16-5-22-13l-4-7c-5-8-12-14-20-18l-3-1-1-2 1-1c3-2 6-2 9-1l9 3 10 6 12 4c9 0 17-2 25-7l1-1h-1l-3 1c-6 2-13 2-19 0-5-1-10-4-14-7l-8-8c-6-6-13-10-22-9l-3-2 2-2c4-4 8-5 13-4l11 3c5 1 10 2 15 1 9 0 16-4 22-10v-1l-3 1c-8 5-17 5-27 3l-9-4-11-5c-5-2-10-3-16-3l-1 1-1-1v-2c2-3 4-5 7-6 5-1 9-2 14-1h8c10-2 18-7 24-15l2-3v-1 1h-1a35.2 35.2 0 0 1-36 9l-9-2c-7-3-14-2-20 1l-2 1h-2l-1-2 3-5 5-3 9-3 10-3c10-4 16-12 21-21l1-2-1 1c-5 8-12 13-21 15l-10 1h-14c-5 0-9 1-13 4l-4 3-2 2-1-3v-1c1-4 3-7 6-9l9-6c9-5 14-12 19-20 2-4 3-9 3-14h-1l-3 8c-5 10-13 16-25 18l-7 1c-8 3-14 7-18 14l-1 1h-2l-1-1 1-8 5-10 5-5c3-2 5-5 7-9l4-14 1-11-1-1v1c0 6-2 11-4 16-3 6-7 10-12 14l-5 2-5 3c-7 5-13 10-16 18v1h-2l-1-4v-6l4-11 6-10c5-13 4-26-5-37l-1-1v2l3 12c2 11-1 20-8 28l-6 6-5 5c-4 4-6 8-6 13l-1 5-1 1h-1l-3-6c-2-5-1-10 0-14l3-11v-13c-3-8-8-15-14-21l-1-1v1l3 5 4 9c2 9 1 17-2 24l-4 8a38.7 38.7 0 0 0-5 27c1 2 0 2-1 2h-2c-4-3-7-7-8-12l1-7v-13c-1-8-4-15-10-20l-9-7h-1v1l3 4c4 4 6 9 7 14v19l-2 7v12l2 7 2 4c0 2-1 3-2 2h-2l-7-7-4-8-3-11c-3-9-10-15-18-19h-1v1h1c7 6 11 14 12 23v13c0 8 2 15 6 21l2 3-1 2h-2c-4-1-7-3-10-6l-4-6-5-8c-6-9-15-13-25-15l-9-1v1l2 1 12 5c7 3 12 9 15 16l3 10 1 4c2 6 6 11 11 15l2 2c1 1 1 3-1 3-3 1-6 1-8-1l-7-6-6-6c-4-4-8-6-13-8-8-2-16-2-25 0l-1 1h1l10 1c9 1 16 6 20 13l7 10a36 36 0 0 0 18 16v2l-4 2-6-1-10-4-7-4c-5-2-9-4-14-4-7 1-14 2-20 6h-1v1h1l1-1c10-2 18-1 27 4l12 10 5 5c4 3 8 5 13 5l5 1 2 2-1 1c-3 3-6 4-10 4-3 1-7 0-10-1l-11-3h-10c-8 1-13 6-18 11h-1l1 1c3-3 7-4 11-4 5-2 10-2 16-1s12 4 18 8c5 5 12 7 19 5l3-1 2 1v1c-2 2-3 4-6 5l-8 2h-11c-5-1-11 0-16 4-6 3-11 8-15 13l-3 5h1l3-3c9-9 21-12 33-10l10 3c6 2 11 2 17 0l4-2h3l1 1-1 2c-1 3-4 5-6 7l-11 5-9 2c-6 2-11 6-15 11l-7 16v1l1-1c2-5 5-9 9-13 5-5 11-8 18-8h14c8 0 15-1 21-7l2-1 1 1 1 2c-1 5-2 8-6 11-3 3-6 5-10 6l-8 4c-3 2-6 5-8 9-3 7-5 14-5 21v1l1-1c2-7 6-12 10-18 5-6 11-10 18-12l9-2c6-1 11-5 15-9l2-2c1-1 2 0 2 1l1 2-3 9-5 6-7 7c-4 3-6 8-7 13v17l1 5h1v-6c1-10 5-18 12-25 4-4 8-7 14-10s11-8 14-14l1-2h2l1 3c1 3 0 7-1 10l-5 8c-5 7-7 15-7 25 1 5 2 10 5 15l2 2c1-1-1-2-1-3l-1-5c-2-8 0-16 5-24l8-9 4-4c6-5 9-11 9-19v-2c1-2 2-2 3-1l4 5v9l-2 10-2 10c-1 10 3 19 10 26v-1l-4-8c-1-5-2-9-1-14l3-9 7-10c3-5 4-9 4-14v-8l-1-4c0-1 1-2 3-1l5 4 3 9 1 10Z"/>
    <path d="m276.1 416.5 1-12c1-5 3-9 6-14l13-14 11-11 3-3c5-5 10-9 17-10l22-4c7 0 14 1 20 5l4 2c1 2 0 3-1 4l-5 1c-9 1-17 5-25 9-6 3-10 7-12 13l-6 18 1 21c1 4 2 9 5 13 6 11 15 20 27 26 8 4 16 5 24 2l10-3 10-5 4-3c3-1 4 0 4 3l-1 3c-1 5-4 10-8 13l-8 7-14 9c-7 4-15 5-23 3l-18-1c-7 0-13-1-19-3-5-1-10-4-14-7-10-8-16-18-20-30l-3-6c-3-8-5-17-5-26Zm8 1 1 9c2 10 5 19 10 28 2 5 6 10 10 14l5 5 7 5c14 7 27 9 42 6l9-3a64.8 64.8 0 0 0 31-15l5-8v-1l-1 1c-4 3-9 6-15 8-4 2-9 3-14 2-10-1-18-4-27-8-8-3-14-9-19-16-6-8-9-17-11-26-1-9 0-18 4-26 3-9 8-17 14-24 4-4 8-7 13-8 6-2 12-4 18-4h1l-1-1-10-2c-11 0-21 2-31 7l-11 6c-5 3-10 6-14 11-8 8-14 18-15 30l-1 10Zm58.7 184.1c0 .4-.3 6.8-.2 13.3-6.8.5-5.7-13.3-5.3-15 .2-1.4-4.4 1.7-6.6 3.8.7 1.3 1.7 1 3 .5-.5 6.2 3.8 11.8 9 11.7.1 6.4.8 12.5 2.6 13 .2.1.4-6.5.6-13.7 12.2-3.8 7.6-18.3 7.6-18.3-.2-.8-2 .3-6 3.9 1.6 1.7 2.3.7 3.6.3 1 1.9 1.4 10.5-5 13.1l.2-18c0-.2-.2-.3-.4-.3-1.8.2-5 3.4-7.5 6.1 1.3 2.1 3.1.1 4.4-.4m6 19.1 2.7 2.8 2.8-2.8-2.8-2.8-2.8 2.8Z"/>
  </g>
</symbol></svg>
