<svg xmlns='http://www.w3.org/2000/svg' viewBox='0 0 30 30' fill='none'>
<symbol id='Conference'>
<path d="M24.699 3H5.29095C4.02043 3 3 4.02957 3 5.29904V15.6747C3 16.9442 4.03043 17.9738 5.29095 17.9738H9.74281L10.7232 26.1204C10.7832 26.6202 11.2134 27 11.7136 27H18.2764C18.7866 27 19.2068 26.6202 19.2668 26.1204L20.2472 17.9738H24.699C25.9696 17.9738 27 16.9442 27 15.6747V5.29904C27 4.02957 25.9696 3 24.699 3ZM14.1046 11.6964C14.3847 11.7963 14.6849 11.8563 15.005 11.8563C15.3251 11.8563 15.6353 11.7863 15.9254 11.6864C15.7853 11.8563 15.6953 12.0662 15.6953 12.2961C15.6953 12.8459 16.1455 13.2957 16.6957 13.2957C16.9758 13.2957 17.2159 13.5456 17.2559 13.8855L17.376 14.7551H12.644L12.7741 13.8655C12.8141 13.5356 13.0542 13.2857 13.3343 13.2857C13.8845 13.2857 14.3347 12.8359 14.3347 12.2861C14.3347 12.0562 14.2447 11.8463 14.1146 11.6764L14.1046 11.6964ZM14.2547 9.11745C14.2547 8.70762 14.5848 8.36776 15.005 8.36776C15.4252 8.36776 15.7553 8.69763 15.7553 9.11745C15.7553 9.53728 15.4252 9.86714 15.005 9.86714C14.5848 9.86714 14.2547 9.53728 14.2547 9.11745ZM17.386 24.9908H12.594L11.6036 16.7643H18.3764L17.386 24.9908ZM24.9992 15.6647C24.9992 15.8247 24.8691 15.9646 24.699 15.9646H20.4873V15.8846C20.5273 15.6047 20.4373 15.3149 20.2472 15.105C20.0571 14.895 19.787 14.7651 19.4969 14.7651H19.3868L19.2368 13.6456C19.0767 12.3061 17.9862 11.3065 16.6957 11.3065C16.6757 11.3065 16.6557 11.3165 16.6357 11.3165C17.316 10.8167 17.7561 10.0171 17.7561 9.11745C17.7561 7.60808 16.5256 6.3686 15.005 6.3686C13.4844 6.3686 12.2539 7.59808 12.2539 9.11745C12.2539 10.0171 12.694 10.8167 13.3743 11.3165C13.3643 11.3165 13.3443 11.3165 13.3343 11.3165C12.0438 11.3165 10.9433 12.3261 10.7932 13.6256L10.6232 14.7751H10.4831C10.193 14.7751 9.92288 14.895 9.73281 15.115C9.54273 15.3349 9.45269 15.6147 9.4827 15.8946V15.9746H5.28095C5.12088 15.9746 4.99083 15.8446 4.99083 15.6747V5.29904C4.99083 5.13911 5.12088 4.99917 5.28095 4.99917H24.699C24.8591 4.99917 24.9992 5.12911 24.9992 5.29904V15.6747V15.6647Z" fill="currentcolor"/>
</symbol>
</svg>
