<svg xmlns="http://www.w3.org/2000/svg" viewBox="0 0 30 30" fill="none">
<symbol id="CrossFilled">
<path fill-rule="evenodd" clip-rule="evenodd" d="M6.5165 23.4848C1.83828 18.8066 1.83757 11.1932 6.5165 6.51424C11.1954 1.83531 18.8088 1.83602 23.4871 6.51424C28.166 11.1932 28.166 18.8059 23.4871 23.4848C18.8081 28.1637 11.1954 28.1637 6.5165 23.4848ZM15.0017 13.6033L18.5535 10.0501C18.9382 9.66541 19.5647 9.66541 19.9494 10.0487C20.1367 10.2375 20.2407 10.4857 20.2407 10.7487C20.2407 11.0117 20.1374 11.2592 19.9508 11.4473L16.3983 14.9998L19.9515 18.5545C20.1382 18.7397 20.2407 18.9879 20.2414 19.2517C20.2407 19.5154 20.1374 19.7629 19.9508 19.9496C19.5654 20.3335 18.9382 20.3342 18.5542 19.9503L15.001 16.3971L11.4485 19.9496C11.2611 20.137 11.0136 20.2388 10.7492 20.2388C10.4861 20.2388 10.238 20.1362 10.0506 19.9489C9.86531 19.7636 9.76278 19.5154 9.76207 19.2517C9.76278 18.9879 9.8646 18.7404 10.0499 18.5552L13.6045 15.0005L10.0513 11.4473C9.66661 11.0627 9.66661 10.4362 10.0506 10.0508C10.238 9.8634 10.4861 9.76087 10.7499 9.76158C11.0129 9.76158 11.2604 9.8634 11.4471 10.0501L15.0017 13.6033Z" fill="currentColor"/>
</symbol>
</svg>
