<svg xmlns='http://www.w3.org/2000/svg' viewBox='0 0 696 830' fill='none'><symbol id='DBAC_Outline'>
  <g fill="#A7BFB9">
    <path d="M125 440.5a271.2 271.2 0 0 0 16 101c10 29 25 55 44 79 14 15 28 30 44 43 17 14 35 25 56 31 14 4 28 6 43 9l15 1c11 1 21 0 31-2l15-3 26-7c21-7 39-18 55-32a573 573 0 0 0 40-41 260.2 260.2 0 0 0 60-168 501 501 0 0 0-21-146l-19-49c-5-13-11-24-18-36a582 582 0 0 0-42-52 105 105 0 0 0-42-26l-31-9-30-6-10-1h-13l-10 1-17 2-22 5-32 10c-9 3-18 8-26 14-9 7-18 14-25 23a513.2 513.2 0 0 0-46 74l-18 46a306 306 0 0 0-20 86l-1 20-2 33m-6-14 2-31c1.6-26.7 6-53.2 13-79a426.6 426.6 0 0 1 22-60c5-13 12-26 20-37l26-36a159.1 159.1 0 0 1 66-47l36-12c11-4 23-5 34-4h19c12-1 25 1 37 4l37 14a174.1 174.1 0 0 1 63 46c10 12 19 25 27 37 7 11 13 21 17 33l17 43c6 16 11 33 14 50l4 24a411 411 0 0 1 2 88l-2 17-2 18c-2 14-3 27-7 40a294 294 0 0 1-87 132 150.9 150.9 0 0 1-78 37l-31 5-13 1h-17l-16-2-26-4a164.3 164.3 0 0 1-79-38 478 478 0 0 1-57-66c-9-14-17-30-23-46-5-12-8-25-10-38l-4-32-3-26-1-31"/>
    <path d="M301 381.5v-2c0-1-1-2-2-1h-1c-2 0-4 0-6 2l5 3c2.6 1.3 4 .7 4-2m0 9-1-3-11-4h-1l-2 2v1h2l11 4h2m10-9 1 8 3 2 1-3v-2l-2-8v-1l-2-1-1 2v3m74-1v-1l-4 2-5 8-6 7v1h1c5-2 9-6 11-10l3-7m-33 1h-1l1 2 3 3 5 7c0 2 1 2 2 1l2-2 6-8-1-2h-8l-9-1m-11 49-1-4-2-4-13-15-9-6h-1v1l4 7 4 5c5 4 9 9 12 15l2 4c2 1 3 1 4-1v-2m86-49-2-1-12-3-10-2-2 2-6 7-4 6c-1 1-2 2-1 3s2 0 3-1c5-3 10-5 16-6l8-1 10-3v-1m-78 18c0-1 0-3-2-5l-4-4c-3-3-5-6-6-10l-2-1-10-2c-2 0-2 1-2 2l1 3c1 8 4 14 11 19 3 2 6 5 8 9l2 2 1 1v-1l3-11v-2m-5-151c8 0 16-2 23-8l17-13c7-5 11-12 12-20 1-2 1-2-2-3l-9-4-29-11c-7-2-13-2-19 0a550.5 550.5 0 0 1-37 14c-4 2-4 2-3 6 1 5 4 10 7 14 5 8 12 14 19 19 6 4 13 6 21 6m-36 136v-7l-1-1c-2 0-3 1-3 3l1 16c1 6 2 12 6 17l9 13 11 14c5 6 9 13 10 22v12l-3 18c-1 8-2 15-1 23l1 13c2 8 2 15 2 22l-1 12v53l-4 23c-1 4 0 4 3 5 7 1 13 1 20-1l1-2-4-14c-3.7-19.8-4.7-40-3-60 1-8 0-16-3-24v-2c-3-8-4-16-3-24a488 488 0 0 0 4-40c-1-8-2-17-1-25l1-15c1-7 4-13 9-18 6-6 13-10 22-13l12-4 20-6 10-3 14-7v-1l-3-1c-2-1-3 0-5 1-4 2-8 4-13 4l-7 1a83.5 83.5 0 0 0-21 8l-2-1v-1c1-4 3-8 6-11l5-6v-1h-1c-3 0-6 1-8 4l-3 7-3 5c-4 6-9 9-16 8l-1-1v-1l7-9 4-5 1-2h-2l-3 2-2 3a250 250 0 0 1-8 10c-2 1-4 0-5-2v-1c-1-3-3-6-6-8l-4-4-1-2h-3l-1 1 3 5 4 5c2 3 3 7 2 11l-3 12c-1 2-3 2-4 0l-1-1-12-12c-5-4-8-10-9-17l-1-6-1-1h-5l1 3 2 8v2c0 2-1 4-3 3h-2v1l2 4c4 1 7 2 9 4 7 6 13 12 17 19 2 2 3 5 3 7l-1 6c-2 3-4 3-7 2l-2-3-18-22-4-7c-3-7-4-14-4-21m61-79c-6 0-10 2-14 4l-1 3 1 2c1 2 2 4 1 6h-2v-2c-1-3-2-5-5-6-3-2-6-3-10-1l-4 2-13 4c-5 0-9 2-13 4l-5 4c-4 3-8.4 5.3-13 7v2l5 5h-1l-3-1-6-4-10-2c-5 1-9 3-12 6l-2 3c-3 3-6 6-10 7h-1c-5 2-8 5-9 10l-2 8-3 12-2 3c-1 5 1 9 5 12 3 3 7 3 11 0l6-3 4-3 2-2h1v1l-11 11-2 2 2 1 4 1c8 0 14-2 18-9l3-5c3-5 6-8 11-10l8-3c8-2 16-2 24-1l18 2 14 2 14 1c9-1 17-2 25-5l5-1c7 0 14 0 21 3l19 5c9 0 16-2 22-7 4-2 6-6 7-10 2-6 0-12-5-15h-1v2l-4 11h-2l1-2 1-9v-4c-1-5-4-9-10-11-5-1-9-3-12-9-1-3-4-4-8-3l-2 1c-6 1-12 0-16-5l-2-3-2-3-6-3h-6c-5 0-10 0-14-2l-5-2-5-1m-114 182v7h-1l-1-2-1-11v-19l-1-1h-4a225.2 225.2 0 0 1-58 0l-5-1-2 1 1 4 1 9c2 13 5 25 9 36 8.6 20.5 19 40.2 31 59a223.3 223.3 0 0 0 76 60l24 10h4l1-3 5-26v-12c1-8 0-16-1-24l1-27 1-15-1-9v-24a561 561 0 0 1 1-41c-1-2-1-3-3-3h-7l-13-1c-11-1-21 0-31 2l-22 4h-3l-1 2v1l1 14-1 10Zm208-54-13 1c-17.2 3-34.3 6.7-51 11l-32 8-9 2c-2 0-2 0-3 2l-1 9v77c3 13 4 26 4 39l1 20 2 13c1 8 3 15 6 22l1 1 1 1 2-1 18-6c35-17.8 65.7-43 90-74a270.5 270.5 0 0 0 17-33l6-16 7-23c3-15 5-29 5-44 0-5 0-4-4-5l-16-2-31-2m-243 25 12-1 19-1c1 0 2-1 1-2l-1-13 1-11v-9l1 1v5l1 12v14c0 2 0 2 3 2h2c9-1 19-3 29-3h26l14 1c6 1 6 1 4-4l-10-16-10-12c-5-8-8-15-9-24l-3-3-11-5c-5-1-4-1-7 3l-7 10-7 5c-6 1-12 0-17-2l-5-4-3-2c-7-3-11-8-11-15v-6l2-15v-3c1-4 2-8 5-11 1-2 4-4 7-5l7-1c3 0 5-1 7-4l4-3 4-3c5-4 11-5 17-3 2 1 4 0 6-1l2-4 7-17c4-10 8-20 10-31l5-13c1-1 1-3 3-3 1 0 2 2 1 4v2l-2 6-6 12-6 15-9 24v1l3-2 5-5c5-4 11-6 18-6l8-2c2-2 4-2 7-3 5-2 10-2 15 1l2-1c6-5 12-6 20-5l6 1c4 2 7 2 11 2h2c8-1 14 2 18 8l3 3-1-2-13-24-6-9a161 161 0 0 1-10-17v-4h1l3 3c4 5 7 10 9 16 3 8 6 14 11 21l9 15 1 3 3 2 6-1h6c4 0 7 2 10 5l2 3c1 3 3 5 6 7l3 2 5 5 3 3 4 3c5 3 7 9 7 15 0 5-2 9-6 12-5 6-12 10-20 10l-5 2-6 5c-5 4-10 7-17 8l-7 1-17 4c-12 2-22 9-31 18-4 5-6 10-7 16l-1 9v2c0 2 1 2 2 2l4-1 23-6c10-3 20-7 31-9 30.7-7.4 62.8-8 94-2 4 1 4 1 4-4l-1-24-2-16a331 331 0 0 0-33-96l-19-33-9-12c0-1-1-2-3-2l-21-7-10-2-5-2-1-3h2l4 1 9 3c6.3 3 13 5.3 20 7v-2c-5-5-10-11-16-15l-20-14-8-4c-1-1-2-1-2 1l-6 15c-2 7-7 13-13 16l-5 3c-7.8 3.2-15.9 5.6-24 7-5 1-11 0-16-1-8-1-16-3-23-8-10-7-17-17-17-31l-1-1-1-1-5 3-20 14-16 14-7 8c-7 8-12 17-17 26v1h1l1-1 21-12c9-5.4 17.3-11.7 25-19l5-4h4l1 1-4 4-12 9-17 10-26 16-4 4-4 8c-9 17-18 34-23 53l-9 33-4 18c-2 11-2 23-2 35l1 24c0 2 0 2 2 2 11 2 23 3 36 3m-47-37a269 269 0 0 1 6-49l7-31a233 233 0 0 1 45-85l17-21c14-16 31-29.3 50-39l29-11c6-1 13-3 20-3l8 1c10 1 19 3 29 7l11 5c8 3 16 8 23 13 10 8.6 19.6 17.6 29 27l10 13 5 5a239.6 239.6 0 0 1 49 96c3.7 19.3 7 38.6 10 58 .1 18.4-.6 36.7-2 55-6 41-21.5 80-45 114l-14 17c-8 9-17 17-26 23-11 7-23 14-34 19-13 7-27 11-42 13l-18 1a135 135 0 0 1-46-14l-28-16c-12-8-23-17-33-28-8.9-11.3-17.2-23-25-35-6-13-13-26-18-40a212.2 212.2 0 0 1-16-72l-1-23"/>
    <path d="M209 427.5h-1l6 7c4 4 8 6 13 6l7 1 9 4 1 1 1-2-1-6-2-5c-1-4-1-8 1-12v-2h-2l-10 4-11 4h-11m-4-4 2 1c4 2 8 2 12 0l9-5a22.8 22.8 0 0 1 16-2c2 1 3 1 2 4s-2 6-1 10l2 9c1 3 0 5-1 8-1 2-1 2-3 0-3-2-6-4-10-4l-5-1c-8 0-14-4-19-10l-3-5-2-4 1-1m213 83v5h2l12-5 12-3 12-4c3-1 7-3 9-7l5-9v-1h-1l-7 3c-6 2-13 1-19-2l-6-3-5-4-8-3h-6l-1 2c3 3 4 8 4 13l-2 8-1 10m4-36 7 2 8 4 8 5c9 4 17 3 25-1l1-1 2 1-2 5c-2 5-4 10-9 14-6 6-13 9-21 10h-10l-10 4-2 1h-2l-2-3c-2-7-2-13 0-20l2-7c1-3 0-6-3-9v-2c2-2 5-3 8-3m-18 88-1-5c0-7 0-14 2-21l1-10-1-12v-16l1-14 1-7 1 1v2l1 16v19c-2 6-2 12-1 18 1 7 2 14 1 22l-1 7-1 13-1 1c0 1 1 3-1 3l-1-3v-14m2 23 7-1h2l1-1-1-1-5-1v-1c2-1 5 0 6 2v2c-2 3-4 4-7 5-6 1-12-1-17-5-1-1-1-3 1-4l5-1h2l-2 1-4 1v2l4 1 8 1m-157-79c-3 0-5.8-1.2-8-3-2-2-2-4 1-5l3-1h2l-2 1-3 2 4 1 7 1h7l3-1c1-1 0-3-1-3l-2-1s-1 0 0 0c1-1 3 0 4 1v3l-2 1c-4 2-8 4-13 4m79-140-5-1-8-2 1-2h8l11-3 12-4c5-1 10 0 14 1l12 6 3 2-1 1-5-1c-6-2-12-2-17-2l-11 2-7 2-7 1m86-22-10-1a20.1 20.1 0 0 1-13-14c0-2 2-2 3-1 5 4 11 7 17 8s12 1 17 3l6 2-1 1-1 1-18 1m-159 19c-2 0-4 0-5-2v-1c4-1 7-4 10-6l10-7c4-2 9-3 13-2v1c-4 0-7 3-11 6l-7 7-5 3-5 1m84-44c3 0 6 1 8 4v1h-9l-7 2-5 1-3-1v-1l9-5 7-1m-39.7 278.6 2.8 2.8 2.8-2.8-2.8-2.8-2.8 2.8Zm-5.9-19c0 .4-.3 6.8-.2 13.3-6.8.5-5.7-13.3-5.3-15 .2-1.4-4.4 1.7-6.6 3.8.7 1.3 1.7 1 3 .5-.5 6.2 3.8 11.8 9 11.7.1 6.4.8 12.5 2.6 13 .2.1.4-6.5.6-13.7 12.2-3.8 7.6-18.3 7.6-18.3-.2-.8-2 .3-6 4 1.6 1.6 2.3.6 3.6.2 1 2 1.4 10.5-5 13.1l.2-18c0-.2-.2-.3-.4-.3-1.8.2-5 3.4-7.5 6.1 1.4 2.1 3.1.1 4.4-.4"/>
  </g>
</symbol></svg>
