<svg xmlns='http://www.w3.org/2000/svg' viewBox='0 0 30 30' fill='none'>
<symbol id='Distance'>
<path fill-rule="evenodd" clip-rule="evenodd" d="M26.976 8.6831C26.976 8.81348 26.946 8.94385 26.896 9.0642L26.906 9.08426C26.8561 9.20461 26.7761 9.31492 26.6862 9.40518L24.0083 12.0929C23.8085 12.2835 23.5587 12.3838 23.2989 12.3838C23.0391 12.3838 22.7893 12.2935 22.5895 12.0929C22.1998 11.7018 22.1998 11.07 22.5895 10.6788L23.5687 9.69602H6.41229L7.39152 10.6788C7.78121 11.07 7.78121 11.7018 7.39152 12.0929C7.19167 12.2835 6.94187 12.3838 6.68208 12.3838C6.42229 12.3838 6.17248 12.2935 5.97264 12.0929L3.29477 9.40518C3.19485 9.30489 3.1249 9.19458 3.07494 9.07423C2.97502 8.83354 2.97502 8.55273 3.07494 8.31203C3.1249 8.18166 3.20484 8.07134 3.29477 7.98108L5.97264 5.29334C6.36233 4.90222 6.99183 4.90222 7.38152 5.29334C7.77121 5.68447 7.77121 6.31629 7.38152 6.70742L6.4023 7.69024H23.5687L22.5895 6.70742C22.1998 6.31629 22.1998 5.68447 22.5895 5.29334C22.9792 4.90222 23.6087 4.90222 23.9983 5.29334L26.6762 7.98108C26.7761 8.07134 26.8461 8.18166 26.896 8.30201C26.946 8.42235 26.976 8.55273 26.976 8.6831ZM12.0278 22.3423C11.778 21.1289 10.7788 20.1561 9.54977 19.9454H9.45984C10.2692 19.3838 10.8088 18.4411 10.8088 17.3781C10.8088 15.6531 9.40988 14.2591 7.70123 14.2591C5.99259 14.2591 4.5937 15.6631 4.5937 17.3781C4.5937 18.4411 5.12328 19.3738 5.94263 19.9454H5.84271C4.60369 20.1561 3.60448 21.1289 3.36467 22.3423L3.04493 23.7765C2.92502 24.318 3.26475 24.8496 3.80433 24.9799C3.87427 25 3.95421 25 4.02415 25C4.48379 25 4.89346 24.6791 4.99338 24.2177L5.31313 22.7636C5.40306 22.3323 5.74279 22.0014 6.17245 21.9211C6.71202 21.8309 7.08173 21.3094 6.9918 20.7578C6.96182 20.6074 6.90187 20.467 6.82193 20.3566C7.10171 20.4369 7.40147 20.497 7.71123 20.497C8.02098 20.497 8.32074 20.4369 8.61051 20.3466L8.60052 20.3566C8.52058 20.477 8.46063 20.6074 8.43066 20.7578C8.34073 21.3094 8.70044 21.8208 9.25001 21.9211C9.67967 21.9913 10.0294 22.3323 10.1093 22.7636L10.4291 24.2177C10.529 24.6891 10.9487 25 11.3983 25C11.4682 25 11.5482 25 11.6181 24.9799C12.1577 24.8596 12.4974 24.318 12.3775 23.7765L12.0578 22.3423H12.0278ZM7.68125 18.5013C7.07173 18.5013 6.57213 17.9998 6.57213 17.3881C6.57213 16.7763 7.07173 16.2749 7.68125 16.2749C8.29077 16.2749 8.79037 16.7763 8.79037 17.3881C8.79037 17.9998 8.29077 18.5013 7.68125 18.5013ZM26.6262 22.3423C26.3764 21.1289 25.3772 20.1561 24.1482 19.9454H24.0582C24.8676 19.3838 25.4072 18.4411 25.4072 17.3781C25.4072 15.6531 24.0083 14.2591 22.2996 14.2591C20.591 14.2591 19.1921 15.6631 19.1921 17.3781C19.1921 18.4411 19.7217 19.3738 20.541 19.9454H20.4411C19.2021 20.1561 18.2029 21.1289 17.9631 22.3423L17.6433 23.7765C17.5234 24.318 17.8632 24.8496 18.4027 24.9799C18.4727 25 18.5526 25 18.6226 25C19.0822 25 19.4919 24.6791 19.5918 24.2177L19.9115 22.7636C20.0015 22.3323 20.3412 22.0014 20.7709 21.9211C21.3104 21.8309 21.6801 21.3094 21.5902 20.7578C21.5602 20.6074 21.5003 20.467 21.4203 20.3566C21.7001 20.4369 21.9999 20.497 22.3096 20.497C22.6194 20.497 22.9191 20.4369 23.2089 20.3466L23.1989 20.3566C23.119 20.477 23.059 20.6074 23.0291 20.7578C22.9391 21.3094 23.2988 21.8208 23.8484 21.9211C24.2781 21.9913 24.6278 22.3323 24.7077 22.7636L25.0275 24.2177C25.1274 24.6891 25.5471 25 25.9967 25C26.0667 25 26.1466 25 26.2165 24.9799C26.7561 24.8596 27.0958 24.318 26.9759 23.7765L26.6562 22.3423H26.6262ZM22.2797 18.5013C21.6701 18.5013 21.1705 17.9998 21.1705 17.3881C21.1705 16.7763 21.6701 16.2749 22.2797 16.2749C22.8892 16.2749 23.3888 16.7763 23.3888 17.3881C23.3888 17.9998 22.8892 18.5013 22.2797 18.5013Z" fill="currentcolor"/>
</symbol>
</svg>
