<svg xmlns="http://www.w3.org/2000/svg" viewBox="0 0 30 30" fill="none">
<symbol id="DocumentChecklist">
<g id="State=Checklist">
<path id="Vector 1 (Stroke)" fill-rule="evenodd" clip-rule="evenodd" d="M3 5C3 3.34315 4.34315 2 6 2H24C25.6569 2 27 3.34315 27 5V25C27 26.6569 25.6569 28 24 28H6C4.34315 28 3 26.6569 3 25V5ZM6 4C5.44772 4 5 4.44771 5 5V25C5 25.5523 5.44772 26 6 26H24C24.5523 26 25 25.5523 25 25V5C25 4.44771 24.5523 4 24 4H6Z" fill="currentColor"/>
<g id="Group 4">
<g id="Group 3">
<path id="Fill 9" fill-rule="evenodd" clip-rule="evenodd" d="M12.57 19.2826C12.498 18.9946 12.316 18.7536 12.058 18.6036C11.541 18.3006 10.863 18.4676 10.549 18.9746L9.24301 21.0886L8.88401 20.7386C8.45501 20.3226 7.75801 20.3226 7.33101 20.7386C7.11701 20.9466 6.99901 21.2236 7.00001 21.5196C7.00001 21.8156 7.11801 22.0926 7.33101 22.2986L8.68401 23.6136C8.89301 23.8176 9.17101 23.9286 9.46001 23.9286C9.50601 23.9286 9.55001 23.9266 9.59501 23.9206C9.93001 23.8806 10.235 23.6856 10.408 23.4036L12.439 20.1136C12.594 19.8636 12.641 19.5676 12.57 19.2826Z" fill="currentColor"/>
<path id="Fill 12" fill-rule="evenodd" clip-rule="evenodd" d="M15.0522 22.4324H21.9478C22.538 22.4324 23 21.993 23 21.4324C23 20.8717 22.538 20.4324 21.9478 20.4324H15.0522C14.462 20.4324 14 20.8717 14 21.4324C14 21.993 14.462 22.4324 15.0522 22.4324Z" fill="currentColor"/>
</g>
<g id="Group 2">
<path id="Fill 13" fill-rule="evenodd" clip-rule="evenodd" d="M12.57 12.8064C12.498 12.5184 12.316 12.2774 12.058 12.1274C11.541 11.8244 10.863 11.9914 10.549 12.4984L9.24301 14.6124L8.88401 14.2624C8.45501 13.8464 7.75801 13.8464 7.33101 14.2624C7.11701 14.4704 6.99901 14.7474 7.00001 15.0434C7.00001 15.3394 7.11801 15.6164 7.33101 15.8224L8.68401 17.1374C8.89301 17.3414 9.17101 17.4524 9.46001 17.4524C9.50601 17.4524 9.55001 17.4504 9.59501 17.4444C9.93001 17.4044 10.235 17.2094 10.408 16.9274L12.439 13.6374C12.594 13.3874 12.641 13.0914 12.57 12.8064Z" fill="currentColor"/>
<path id="Fill 14" fill-rule="evenodd" clip-rule="evenodd" d="M15.0522 15.9562H21.9478C22.538 15.9562 23 15.5168 23 14.9562C23 14.3955 22.538 13.9562 21.9478 13.9562H15.0522C14.462 13.9562 14 14.3955 14 14.9562C14 15.5168 14.462 15.9562 15.0522 15.9562Z" fill="currentColor"/>
</g>
<g id="Group 1">
<path id="Fill 15" fill-rule="evenodd" clip-rule="evenodd" d="M12.57 6.33018C12.498 6.04218 12.316 5.80118 12.058 5.65118C11.541 5.34818 10.863 5.51518 10.549 6.02218L9.24301 8.13618L8.88401 7.78618C8.45501 7.37018 7.75801 7.37018 7.33101 7.78618C7.11701 7.99418 6.99901 8.27118 7.00001 8.56718C7.00001 8.86318 7.11801 9.14018 7.33101 9.34618L8.68401 10.6612C8.89301 10.8652 9.17101 10.9762 9.46001 10.9762C9.50601 10.9762 9.55001 10.9742 9.59501 10.9682C9.93001 10.9282 10.235 10.7332 10.408 10.4512L12.439 7.16118C12.594 6.91118 12.641 6.61518 12.57 6.33018Z" fill="currentColor"/>
<path id="Fill 16" fill-rule="evenodd" clip-rule="evenodd" d="M15.0522 9.47998H21.9478C22.538 9.47998 23 9.04065 23 8.47998C23 7.91931 22.538 7.47998 21.9478 7.47998H15.0522C14.462 7.47998 14 7.91931 14 8.47998C14 9.04065 14.462 9.47998 15.0522 9.47998Z" fill="currentColor"/>
</g>
</g>
</g>
</symbol>
</svg>
