<svg xmlns='http://www.w3.org/2000/svg' viewBox='0 0 30 30' fill='none'>
<symbol id='DoNotShakeHands'>
<path d="M25.7842 13.6582C26.0719 13.3745 26.0719 12.9048 25.7842 12.621C25.4965 12.3373 25.0203 12.3373 24.7326 12.621L20.8931 16.4078C20.8931 16.4078 20.8534 16.4665 20.8336 16.5057L20.5558 16.2317C19.8613 15.5565 18.7402 15.5467 18.0458 16.2317C17.8275 16.447 17.6886 16.7014 17.6092 16.9656C17.1628 16.9656 16.7064 17.1319 16.379 17.4548C16.0616 17.7679 15.883 18.1887 15.8631 18.6388C15.5754 18.7171 15.3076 18.8541 15.0893 19.0595C14.8115 19.3335 14.6428 19.6858 14.5932 20.0674C14.2559 20.1261 13.9285 20.2925 13.6706 20.5469C13.5714 20.6447 13.4821 20.7621 13.4126 20.8796L12.5197 21.7602C12.4106 21.8678 12.232 21.8678 12.113 21.7602C12.0038 21.6526 12.0038 21.4764 12.113 21.3688C12.113 21.3688 12.1229 21.3492 12.1328 21.3394L17.3017 16.2415C17.5894 15.9577 17.5894 15.488 17.3017 15.2043C17.014 14.9205 16.5378 14.9205 16.2501 15.2043L10.7042 20.6741C10.595 20.7817 10.4165 20.7817 10.2974 20.6741C10.228 20.6056 10.218 20.5273 10.218 20.4784C10.218 20.4294 10.228 20.3512 10.2974 20.2827L15.6945 14.9596C15.6945 14.9596 15.7044 14.9303 15.7242 14.9205L15.7937 14.852C16.0814 14.5682 16.0814 14.0986 15.7937 13.8148C15.506 13.531 15.0298 13.531 14.7421 13.8148L9.76167 18.7269C9.65254 18.8345 9.47396 18.8345 9.3549 18.7171C9.28546 18.6486 9.27553 18.5703 9.27553 18.5214C9.27553 18.4724 9.28546 18.3942 9.3549 18.3257L15.2679 12.4938L16.4882 13.6974C17.4803 14.6759 19.2165 14.6759 20.2086 13.6974L20.3276 13.58C20.526 13.3843 20.6451 13.1201 20.6451 12.8363C20.6451 12.5525 20.536 12.2883 20.3375 12.0926L16.1707 7.98294C15.2183 7.04358 13.6904 6.99466 12.6884 7.84595L10.5256 5.71282C10.2379 5.42906 9.76167 5.42906 9.47396 5.71282C9.18625 5.99659 9.18625 6.46627 9.47396 6.75003L11.7657 9.01036C12.2519 9.48983 13.1051 9.48983 13.5912 9.01036C14.0079 8.59939 14.6924 8.59939 15.1191 9.01036L18.9684 12.8069C18.5319 13.0711 17.9267 13.0124 17.5497 12.6504L15.2778 10.4096L9.76167 15.8501L5.26742 11.4175C4.97971 11.1337 4.50349 11.1337 4.21578 11.4175C3.92807 11.7012 3.92807 12.1709 4.21578 12.4547L8.71003 16.8873L8.31319 17.2787C7.97587 17.6114 7.79729 18.0419 7.79729 18.5116C7.79729 18.9813 7.9858 19.4118 8.32311 19.7543C8.46201 19.8913 8.62074 19.9891 8.7894 20.0772C8.75964 20.2044 8.7398 20.3414 8.7398 20.4686C8.7398 20.9383 8.9283 21.3688 9.26561 21.7113C9.61285 22.0538 10.0593 22.2201 10.5157 22.2201C10.5752 22.2201 10.6347 22.2103 10.6942 22.2005C10.7835 22.4158 10.9125 22.6213 11.0911 22.7974C11.4383 23.1399 11.8848 23.3062 12.3411 23.3062C12.7975 23.3062 13.2043 23.1497 13.5416 22.8366C13.5912 22.8953 13.6309 22.9638 13.6904 23.0127L14.6825 23.9912C15.0298 24.3337 15.4861 24.5 15.9326 24.5C16.379 24.5 16.8354 24.3337 17.1826 23.9912C17.3215 23.8444 17.4307 23.6878 17.52 23.5117C17.639 23.5411 17.768 23.5509 17.897 23.5509C18.3732 23.5509 18.8196 23.3649 19.147 23.042C19.3554 22.8366 19.4843 22.6017 19.5736 22.3473C19.5736 22.3473 19.5835 22.3473 19.5935 22.3473C20.0697 22.3473 20.5161 22.1614 20.8435 21.8385C21.2503 21.4275 21.4189 20.8796 21.3396 20.3512C21.538 20.2631 21.7166 20.1457 21.8753 19.9891C22.5698 19.3042 22.5698 18.1985 21.8753 17.5135L21.8555 17.4939C21.8555 17.4939 21.9249 17.4548 21.9547 17.4352L25.7941 13.6484L25.7842 13.6582ZM19.0974 17.2591C19.1569 17.2004 19.2264 17.1808 19.2958 17.1808C19.3653 17.1808 19.4446 17.2102 19.4942 17.2591L20.8138 18.5605C20.9229 18.6681 20.9229 18.8443 20.8138 18.9617C20.6749 19.0987 20.5558 19.1085 20.407 18.9617L20.1887 18.7464L19.0875 17.6603C18.9784 17.5527 18.9784 17.3765 19.0875 17.2689L19.0974 17.2591ZM16.1211 22.954C16.0119 23.0616 15.8334 23.0714 15.7242 22.954L14.7321 21.9755C14.623 21.8678 14.623 21.6917 14.7321 21.5743C14.7917 21.5156 14.8611 21.496 14.9306 21.496C15 21.496 15.0794 21.5254 15.129 21.5743L16.1211 22.5528C16.2302 22.6604 16.2302 22.8366 16.1211 22.9442V22.954ZM18.0855 22.0146C17.9466 22.1516 17.8275 22.1614 17.6787 22.0146L16.1409 20.4979C16.0715 20.4294 16.0616 20.3414 16.0616 20.3022C16.0616 20.2631 16.0715 20.175 16.1409 20.1065C16.2104 20.038 16.2997 20.0283 16.3393 20.0283C16.379 20.0283 16.4683 20.038 16.5378 20.1065L18.0755 21.6232C18.1847 21.7308 18.1847 21.907 18.0755 22.0244L18.0855 22.0146ZM19.782 20.8111C19.6431 20.948 19.524 20.9578 19.3752 20.8111L17.4307 18.8932C17.3612 18.8247 17.3513 18.7366 17.3513 18.6975C17.3513 18.6584 17.3612 18.5703 17.4307 18.5018C17.5001 18.4333 17.5894 18.4235 17.6291 18.4235C17.6688 18.4235 17.7581 18.4333 17.8275 18.5018L18.0259 18.6975L19.2561 19.9108L19.7621 20.4099C19.8712 20.5175 19.8712 20.6936 19.7621 20.8111H19.782Z" fill="currentcolor"/>
<path d="M26.9298 13.8147C26.2701 7.23205 20.3726 2.40011 13.7953 3.06037C10.6067 3.3805 7.73786 4.92112 5.70871 7.40212C3.67956 9.88311 2.73995 13.0044 3.05981 16.1957C3.37968 19.3869 4.91904 22.2581 7.398 24.2889C9.5571 26.0596 12.216 27 14.9748 27C15.3747 27 15.7845 26.98 16.1943 26.94C22.7716 26.2797 27.5896 20.3873 26.9398 13.7947L26.9298 13.8147ZM15.9944 24.9692C13.3455 25.2393 10.7366 24.449 8.66747 22.7583C6.59833 21.0676 5.31887 18.6666 5.04898 16.0156C4.7791 13.3545 5.56877 10.7535 7.25806 8.68263C7.408 8.50256 7.56793 8.33249 7.72786 8.15242L20.7424 23.1885C19.383 24.1489 17.7637 24.7891 15.9844 24.9692H15.9944ZM22.2618 21.8679L9.23723 6.84189C10.6266 5.8615 12.256 5.24125 13.9952 5.06118C14.3351 5.03116 14.665 5.01116 14.9948 5.01116C20.0627 5.01116 24.4209 8.8627 24.9307 14.0148C25.2305 17.016 24.161 19.8271 22.2418 21.8679H22.2618Z" fill="#BF2F17"/>
</symbol>
</svg>
