<svg xmlns='http://www.w3.org/2000/svg' viewBox='0 0 30 30' fill='none'>
<symbol id='DualBasin'>
<path d="M25.63 17.6198C26.48 16.6828 27 15.4685 27 14.1299C27 13.6041 26.55 13.1738 26 13.1738H24.7L24.78 12.1699C24.82 11.644 24.41 11.185 23.86 11.1372C23.32 11.099 22.83 11.491 22.78 12.0169L22.69 13.1642H22.43V8.59393C22.43 8.4027 22.78 8.4027 22.78 8.59393V9.19629C22.78 9.72216 23.23 10.1524 23.78 10.1524C24.33 10.1524 24.78 9.72216 24.78 9.19629V8.59393C24.78 7.44657 23.8 6.50956 22.6 6.50956C21.4 6.50956 20.42 7.44657 20.42 8.59393V13.1642H20.16L20.06 12.0073C20.02 11.4814 19.54 11.0894 18.98 11.1372C18.43 11.185 18.02 11.644 18.07 12.1699L18.16 13.1642H16.85C16.3 13.1642 15.85 13.5945 15.85 14.1204C15.85 15.4398 16.36 16.6445 17.19 17.5816H12.81C13.64 16.6541 14.15 15.4398 14.15 14.1204C14.15 13.5945 13.7 13.1642 13.15 13.1642H11.85L11.93 12.1603C11.97 11.6344 11.56 11.1755 11.01 11.1277C10.45 11.0894 9.98 11.4814 9.93 12.0073L9.84 13.1547H9.58V8.58436C9.58 8.39314 9.93 8.39314 9.93 8.58436V9.18673C9.93 9.7126 10.38 10.1429 10.93 10.1429C11.48 10.1429 11.93 9.7126 11.93 9.18673V8.58436C11.93 7.43701 10.95 6.5 9.75 6.5C8.55 6.5 7.57 7.43701 7.57 8.58436V13.1547H7.31L7.21 11.9978C7.16 11.4719 6.68 11.0799 6.13 11.1277C5.58 11.1755 5.17 11.6344 5.22 12.1603L5.31 13.1547H4C3.45 13.1547 3 13.5849 3 14.1108C3 15.4494 3.52 16.6637 4.37 17.6007C3.59 17.7537 3 18.4134 3 19.207V21.865C3 22.7638 3.77 23.5 4.71 23.5H25.29C26.23 23.5 27 22.7638 27 21.865V19.207C27 18.4134 26.41 17.7537 25.63 17.6007V17.6198ZM24.86 15.0861C24.43 16.5107 23.05 17.5529 21.42 17.5529C19.79 17.5529 18.42 16.5107 17.99 15.0861H24.85H24.86ZM12.01 15.0861C11.58 16.5107 10.2 17.5529 8.57 17.5529C6.94 17.5529 5.57 16.5107 5.14 15.0861H12H12.01ZM25 21.6069H5V19.4938H25V21.6069Z" fill="currentColor"/>
</symbol>
</svg>
