<svg xmlns='http://www.w3.org/2000/svg' viewBox='0 0 30 30' fill='none'>
<symbol id='ElectricityManagement'>
<path fill-rule="evenodd" clip-rule="evenodd" d="M11.2885 16.5612H8.64773C7.97753 16.5612 7.44737 16.1208 7.32733 15.4703C7.29732 15.3001 7.26731 15.12 7.24731 14.9498L7.19729 14.6296C7.19729 14.586 7.18677 14.5425 7.17718 14.5028C7.17354 14.4877 7.17003 14.4732 7.16728 14.4594C7.13227 14.4394 7.09476 14.4194 7.05725 14.3994C7.01974 14.3794 6.98223 14.3594 6.94722 14.3393L6.06695 14.6896C5.34674 14.9699 4.70654 14.7497 4.30642 14.0891L3.17609 12.1876C2.876 11.6771 2.96602 11.0166 3.39615 10.6063C3.47618 10.5362 3.5462 10.4762 3.62622 10.4161L3.91631 10.1959C3.98627 10.1409 4.05374 10.0884 4.12121 10.0359L4.12137 10.0358L4.12151 10.0357C4.18898 9.98318 4.25646 9.93067 4.32643 9.87567V9.68551C4.13637 9.54539 3.94632 9.39527 3.75626 9.24515L3.52619 9.065C3.00603 8.66467 2.86599 7.98411 3.18609 7.40363L3.18611 7.4036C3.33614 7.14339 3.48618 6.88319 3.64623 6.62299C3.80329 6.36308 3.94942 6.11778 4.09341 5.87606C4.18784 5.71753 4.28136 5.56054 4.37645 5.40198C4.74656 4.80148 5.36674 4.59131 6.01694 4.84152L6.59711 5.07171C6.71715 5.12175 6.83718 5.17179 6.95722 5.21182C6.99722 5.19181 7.03473 5.1718 7.07223 5.15178L7.07225 5.15177C7.10977 5.13176 7.14728 5.11174 7.18729 5.09172L7.30732 4.25103C7.41736 3.46038 7.94752 3 8.73775 3H11.1985C12.0087 3 12.5289 3.46038 12.6389 4.25103L12.759 5.09172C12.839 5.13176 12.919 5.17179 12.989 5.21182C13.0591 5.18846 13.1257 5.16169 13.191 5.13549C13.2375 5.11679 13.2833 5.09839 13.3291 5.08172L13.9293 4.85153C14.5895 4.59131 15.2097 4.80148 15.5798 5.40198C15.7799 5.72224 15.9699 6.04251 16.16 6.37278L16.29 6.58295C16.37 6.71806 16.4501 6.85568 16.5301 6.99329L16.5301 6.99333C16.6101 7.13093 16.6901 7.26853 16.7702 7.40363C17.0903 7.9741 16.9502 8.65466 16.4301 9.065L16.17 9.26516L16.17 9.26519L16.1699 9.26521C15.9899 9.40531 15.8099 9.54541 15.6198 9.68551V9.87567C15.6898 9.9307 15.7598 9.98323 15.8298 10.0358L15.8299 10.0358L15.8299 10.0358C15.8999 10.0884 15.9699 10.1409 16.0399 10.1959L16.3 10.3961L16.3545 10.4394C16.4298 10.4991 16.4933 10.5494 16.5501 10.6063C16.9802 11.0266 17.0703 11.6771 16.7702 12.1976L15.6398 14.0991C15.2497 14.7597 14.5995 14.9799 13.8793 14.6996L12.999 14.3594C12.964 14.3794 12.9265 14.3994 12.889 14.4194C12.8515 14.4394 12.814 14.4594 12.779 14.4795C12.779 14.5169 12.7712 14.5543 12.7629 14.5942L12.7629 14.5942C12.7579 14.6183 12.7527 14.6432 12.749 14.6696L12.6989 14.9799C12.6818 15.1255 12.6574 15.2712 12.6318 15.4231L12.6318 15.4231L12.6189 15.5003C12.4989 16.1508 11.9687 16.5912 11.2985 16.6012L11.2885 16.5612ZM9.2079 14.5595L10.7183 14.5295L10.7484 14.3393C10.7784 14.1692 10.7984 13.9991 10.8184 13.8189C10.8484 13.5487 10.9884 13.0583 11.5886 12.7881L11.5974 12.7839L11.5974 12.7839C11.7839 12.6955 11.9506 12.6165 12.0688 12.5279C12.2988 12.3477 12.779 12.0975 13.4292 12.3577L14.1394 12.6379L14.6995 11.6972C14.6255 11.6425 14.5529 11.5864 14.4807 11.5305L14.4805 11.5304C14.3675 11.443 14.2553 11.3562 14.1394 11.2768C13.8893 11.0967 13.4792 10.6863 13.5792 9.9157C13.5892 9.81562 13.5892 9.72554 13.5792 9.62546C13.4692 8.84482 13.8893 8.42447 14.1494 8.23431L14.1494 8.23429L14.1494 8.23426C14.3295 8.10417 14.5095 7.97408 14.6795 7.84399C14.6545 7.79895 14.6295 7.75642 14.6045 7.71388C14.5795 7.67135 14.5545 7.62881 14.5295 7.58378L14.4095 7.3736L14.1294 6.89321L14.0393 6.92323C13.8093 7.01331 13.5792 7.10338 13.3391 7.19346C12.749 7.40363 12.3188 7.18345 12.1188 7.03332C11.9987 6.94325 11.8487 6.86318 11.6586 6.78312C11.1785 6.58295 10.8584 6.17261 10.7884 5.64218L10.6983 4.98163H9.2079L9.11787 5.65219C9.05785 6.16261 8.73775 6.58295 8.25761 6.78312C8.06755 6.86318 7.91751 6.94325 7.79747 7.03332C7.59741 7.18345 7.16728 7.41364 6.57711 7.19346L5.85689 6.92323L5.78687 6.89321C5.71685 7.0083 5.64933 7.1234 5.58181 7.23849C5.51429 7.35359 5.44677 7.46868 5.37675 7.58378C5.35174 7.62881 5.32674 7.67134 5.30174 7.71386L5.30172 7.71388L5.30171 7.7139C5.27671 7.75643 5.2517 7.79896 5.2267 7.84399C5.39675 7.98411 5.57681 8.11421 5.75686 8.23431C6.01694 8.41446 6.44707 8.84482 6.32703 9.62546C6.31703 9.71553 6.31703 9.80561 6.32703 9.9157C6.42706 10.6863 6.01694 11.0967 5.76686 11.2768C5.59572 11.394 5.42457 11.5274 5.26073 11.6551L5.26072 11.6551L5.20669 11.6972L5.76686 12.6379L6.47708 12.3577C7.12727 12.0975 7.60741 12.3577 7.83748 12.5279C7.95752 12.6179 8.12757 12.698 8.32763 12.7881C8.76776 12.9882 9.04785 13.3585 9.09786 13.8189L9.10451 13.8723C9.12241 14.0166 9.14119 14.168 9.16788 14.3193L9.19789 14.5495L9.2079 14.5595ZM18.9207 27C18.7207 27 18.5206 26.95 18.3305 26.8599C17.7804 26.5897 17.4903 25.9792 17.6303 25.3787L18.6006 21.2352H14.7595C14.2393 21.2352 13.7792 20.945 13.5591 20.4746C13.339 20.0042 13.4091 19.4638 13.7392 19.0735L20.4912 10.9468C20.8813 10.4764 21.5415 10.3363 22.1017 10.6065C22.6518 10.8767 22.9419 11.4872 22.8019 12.0877L21.8316 16.2311H25.6727C26.1929 16.2311 26.653 16.5214 26.8731 16.9918C27.0932 17.4621 27.0231 18.0026 26.693 18.3929L19.941 26.5196C19.6809 26.8299 19.3108 27 18.9307 27H18.9207ZM16.2099 19.2336H19.4609C19.871 19.2336 20.2411 19.4137 20.5012 19.734C20.7613 20.0543 20.8413 20.4646 20.7513 20.8549L20.2411 23.0267L24.2223 18.2328H20.9713C20.5612 18.2328 20.1911 18.0526 19.931 17.7324C19.6809 17.4121 19.5909 17.0018 19.6809 16.6114L20.1911 14.4396L16.2099 19.2336ZM7.39732 9.7758C7.39732 11.177 8.54766 12.3279 9.95808 12.3279C11.3685 12.3279 12.5189 11.177 12.5189 9.7758C12.5189 8.37464 11.3685 7.2237 9.95808 7.2237C8.54766 7.2237 7.39732 8.37464 7.39732 9.7758ZM9.39792 9.76579C9.39792 9.46554 9.64799 9.21534 9.95808 9.21534C10.2682 9.21534 10.5183 9.46554 10.5183 9.76579C10.5183 10.066 10.2682 10.3162 9.95808 10.3162C9.64799 10.3162 9.39792 10.066 9.39792 9.76579Z" fill="currentcolor"/>
</symbol>
</svg>
