<svg xmlns='http://www.w3.org/2000/svg' viewBox='0 0 30 30' fill='none'>
<symbol id='EnvironmentProtection'>
<path fill-rule="evenodd" clip-rule="evenodd" d="M23.8615 10.9327C23.8815 10.9829 23.9215 11.0632 23.9215 11.0632L23.9415 11.023C23.9715 11.1234 24.5115 13.4115 23.0615 14.8667C22.2415 15.6896 21.1415 15.9004 20.3215 15.9305V16.7133C20.3215 17.2652 19.8715 17.7168 19.3215 17.7168C18.7715 17.7168 18.3215 17.2652 18.3215 16.7133V15.9305C17.5215 15.9305 16.4515 15.7398 15.6415 14.9269C14.2415 13.5219 14.6015 11.304 14.6515 11.0531V11.033C14.6581 10.9996 14.6737 10.9661 14.6893 10.9327C14.697 10.916 14.7048 10.8992 14.7115 10.8825C14.7215 10.8591 14.7304 10.8346 14.7393 10.81C14.757 10.761 14.7748 10.7119 14.8015 10.6718C14.8115 10.6567 14.824 10.6467 14.8365 10.6366C14.849 10.6266 14.8615 10.6166 14.8715 10.6015L14.8715 10.6015C14.9315 10.5313 14.9915 10.461 15.0715 10.4108L15.0715 10.4108C15.1015 10.4008 15.1315 10.3908 15.1515 10.3807C15.2415 10.3305 15.3315 10.2904 15.4315 10.2703H15.4415C15.6415 10.2302 17.0415 10.0094 18.3115 10.5915V10.0997C17.5615 9.57786 16.3215 8.4639 16.3215 6.83811C16.3215 4.68043 18.5415 3.27543 18.7915 3.12489C18.8151 3.10712 18.8422 3.09983 18.8687 3.09272C18.887 3.08779 18.9051 3.08293 18.9215 3.07471C18.9815 3.0446 19.0415 3.0145 19.1115 3.00446H19.3015C19.3211 3.00446 19.3418 3.00338 19.3629 3.00229C19.4062 3.00004 19.4511 2.99771 19.4915 3.00446C19.5615 3.0145 19.6315 3.0446 19.6915 3.07471C19.7115 3.08475 19.734 3.09227 19.7565 3.0998C19.779 3.10733 19.8015 3.11485 19.8215 3.12489C20.0715 3.27543 22.2915 4.68043 22.2915 6.83811C22.2915 8.4639 21.0515 9.57786 20.3015 10.0997V10.5714C21.6315 9.96926 23.1115 10.3004 23.1915 10.3205C23.2212 10.3265 23.2439 10.3395 23.2678 10.3534C23.2842 10.3628 23.3012 10.3726 23.3215 10.3807C23.3415 10.3908 23.3615 10.3997 23.3815 10.4086C23.4215 10.4264 23.4615 10.4443 23.5015 10.471C23.5515 10.5112 23.5915 10.5513 23.6415 10.6015C23.6915 10.6416 23.7315 10.6918 23.7715 10.742C23.8024 10.7885 23.8213 10.835 23.8422 10.8861C23.8483 10.9012 23.8546 10.9167 23.8615 10.9327ZM20.2915 6.84814C20.2915 6.246 19.7515 5.64386 19.3015 5.25246C18.8415 5.64386 18.3115 6.246 18.3115 6.84814C18.3115 7.45029 18.8615 8.01229 19.3015 8.3535C19.7515 8.00225 20.2915 7.45029 20.2915 6.84814ZM16.5815 12.228C16.6116 12.6794 16.7216 13.211 17.0515 13.542C17.3815 13.8832 17.8915 13.9635 18.3115 13.9635C18.3015 13.552 18.2215 13.0302 17.8915 12.699C17.5639 12.3702 17.0392 12.259 16.5815 12.228ZM20.3215 13.9635C20.7715 13.9334 21.3015 13.823 21.6315 13.4918V13.4818C21.9715 13.1506 22.0515 12.6388 22.0515 12.2173C21.6415 12.2273 21.1215 12.2975 20.7915 12.6388C20.4615 12.9699 20.3515 13.5018 20.3215 13.9635ZM23.9615 18.1886C25.1115 17.8073 26.3715 18.3893 26.8215 19.5234L26.8315 19.4832C27.2815 20.5972 26.8115 21.8517 25.7415 22.3936C23.1815 23.6882 18.4915 25.9864 15.7715 26.7792C15.2515 26.9398 14.7515 27 14.2815 27C12.7115 27 11.4215 26.2774 10.3415 25.6653L10.3056 25.6449C9.76927 25.3415 9.2706 25.0594 8.7815 24.8925C8.1815 24.6918 7.4815 24.7821 6.8515 25.1534L4.5615 26.5183C4.0915 26.7993 3.4715 26.6488 3.1915 26.167C2.9115 25.6954 3.0615 25.0731 3.5415 24.7921L5.8315 23.4273C6.9615 22.7549 8.2815 22.6044 9.4415 23.0058C10.1015 23.2466 10.7215 23.5879 11.3215 23.9291C12.6215 24.6717 13.7515 25.2939 15.2115 24.8724C17.8715 24.0896 22.8315 21.6409 24.8415 20.6173C24.9815 20.547 25.0415 20.3865 24.9815 20.2359C24.9215 20.0854 24.7515 20.0151 24.6015 20.0653L18.3915 22.1327C17.9215 22.6746 17.2615 22.9957 16.5615 22.9957C16.2115 22.9957 15.8615 22.9255 15.5215 22.7649L10.0815 20.2058C9.5815 19.975 9.3715 19.3728 9.6015 18.8711C9.8315 18.3693 10.4315 18.1485 10.9315 18.3893L16.3715 20.9485C16.5715 21.0388 16.8215 20.9585 16.9315 20.7678C17.0115 20.6273 16.9915 20.4968 16.9715 20.4266C16.9515 20.3664 16.8915 20.2359 16.7415 20.1657L11.1915 17.5263C10.4215 17.155 9.4915 17.2152 8.7715 17.6868L4.5415 20.4567C4.0815 20.7578 3.4615 20.6273 3.1615 20.1657C2.8615 19.704 2.9915 19.0818 3.4515 18.7807L7.6815 16.0109C8.9815 15.1679 10.6515 15.0575 12.0515 15.7198L17.6015 18.3592C18.2115 18.6503 18.6815 19.1922 18.8815 19.8445V19.8746L23.9615 18.1886Z" fill="currentcolor"/>
</symbol>
</svg>
