<svg xmlns="http://www.w3.org/2000/svg" viewBox="0 0 30 30" fill="none">
<symbol id="ExclusiveCollection">
  <path d="m23.48 23.57 2.49 1.95.35-.45-1.78-1.4h2.87l.38-.48-2.49-1.95-.35.45 1.74 1.36-2.84.03-.37.48Zm4.06-3.89.77-.24-.25-.77-.77.25.25.76Zm-6.28 6.3c0-.24.12-.43.36-.6.24-.16.46-.21.68-.14.22.07.42.23.6.5l.2.26c.38.56.35 1-.1 1.32-.47.32-.9.2-1.29-.35l-.19-.28a1.2 1.2 0 0 1-.26-.72m-.6 0c-.05.36.05.7.28 1.05l.27.37c.25.36.55.57.9.64.35.07.73-.04 1.14-.34.42-.29.65-.6.7-.96.06-.35-.04-.7-.3-1.06l-.26-.37a1.4 1.4 0 0 0-.88-.61c-.35-.07-.73.04-1.15.33-.4.3-.64.6-.7.96m-1.62.2-.6.2 1 2.99.61-.2-1-3Zm-1.68.47-2.75.37.07.47 1.06-.14.36 2.65.62-.08-.36-2.65 1.07-.14-.07-.48Zm-6.75 1.38c-.09.42-.04.78.16 1.07.2.3.54.5 1.01.6.41.09.76.07 1.05-.06.3-.12.49-.33.6-.63l-.67-.14c-.08.17-.2.3-.35.36a.86.86 0 0 1-.53.03c-.3-.07-.49-.19-.58-.38-.1-.2-.11-.45-.04-.77l.07-.34c.08-.33.2-.56.37-.7.18-.14.4-.19.68-.13.41.09.63.32.64.71l.68.15a1.1 1.1 0 0 0-.3-.82c-.2-.23-.51-.39-.93-.47a1.5 1.5 0 0 0-1.16.15c-.3.2-.5.51-.6.96l-.1.42Zm-2.58-3.3-1.41 2.82 2.14 1.07.22-.43-1.59-.8.4-.8 1.45.72.22-.44-1.44-.72.35-.72 1.6.8.21-.43-2.14-1.08v.01Zm-2.35-2.28-2.19 2.27 1.68 1.61.34-.35-1.23-1.17 1.85-1.93-.44-.43h-.01ZM1.44 16.7l.32-.08c.3-.07.56-.05.77.04.2.09.34.27.4.56.07.28.03.5-.1.68-.15.17-.38.3-.69.36l-.32.08c-.67.16-1.07-.04-1.19-.58-.13-.55.14-.9.8-1.05m-1.12-.03c-.2.3-.24.7-.12 1.18.12.5.32.83.63 1.01.31.18.68.23 1.1.12l.44-.1c.41-.1.71-.29.9-.59.2-.3.23-.69.12-1.18-.11-.49-.32-.83-.62-1.01a1.4 1.4 0 0 0-1.08-.13l-.44.1c-.43.1-.74.3-.93.6M2 11.73l-.43-.06c-.43-.04-.78.04-1.05.27S.07 12.52 0 13c-.04.42 0 .77.16 1.04.16.28.38.46.7.53l.07-.68a.63.63 0 0 1-.39-.31.85.85 0 0 1-.08-.52c.03-.3.14-.5.32-.62.18-.11.44-.15.76-.11l.35.04c.33.03.57.13.73.3.17.15.23.37.2.65-.05.42-.26.65-.64.7l-.08.69c.31-.01.57-.14.78-.38.21-.23.34-.55.4-.98.04-.47-.04-.85-.27-1.13a1.43 1.43 0 0 0-1.02-.5m.87-2.31.77-.25-.24-.77-.77.25.24.76Zm1.46 10.72-.3-.54-2.75 1.56 1.15 2.02.42-.24L2 21.45l2.33-1.32ZM5.8 5.57l1.24-1.03-.31-.38L5.49 5.2 5 4.58l1.35-1.13-.3-.38L4.2 4.61l2.03 2.42L8.06 5.5l-.3-.37-1.37 1.13-.58-.69Zm5.84-1.95L9.8 2.6l.48-1.83-.64.28-.34 1.34-1.2-.69-.69.3 1.71.96-.52 1.97.67-.29.37-1.44 1.3.73.72-.3v-.01Zm1.01-1.7-.02-.36a1.2 1.2 0 0 1 .16-.77c.13-.19.33-.3.61-.31.42-.03.7.14.81.5l.7-.04a1.1 1.1 0 0 0-.51-.7 1.7 1.7 0 0 0-1.04-.2c-.47.02-.83.18-1.07.46-.25.27-.35.64-.32 1.09l.04.43c.02.43.18.76.45.99.27.23.64.32 1.13.29.42-.03.76-.14 1-.34.25-.2.38-.46.4-.78l-.68.05a.65.65 0 0 1-.24.44.83.83 0 0 1-.5.17c-.3.02-.51-.05-.66-.2a1.2 1.2 0 0 1-.25-.73m5.69 1.18-1.66-.37.56-2.58-.61-.14-.7 3.08 2.27.51.11-.47.03-.03Zm.51 5.97c-.09-.34-.86.14-2.52 1.63.67.73 1 .3 1.52.12.43.8.6 4.44-2.17 5.53.08-3.66.12-7.58.12-7.58 0-.1-.1-.13-.17-.12-.76.1-2.12 1.44-3.16 2.57.57.94 1.3.1 1.88-.14 0 .16-.14 2.85-.08 5.6-2.86.22-2.4-5.59-2.23-6.34.07-.6-1.84.72-2.78 1.6.3.55.71.43 1.24.23-.2 2.6 1.64 4.98 3.78 4.92.08 2.68.36 5.29 1.14 5.47.1.02.18-2.72.25-5.77 5.14-1.6 3.18-7.73 3.18-7.73m-.82 11.25 1.2-1.2-1.2-1.19-1.2 1.2 1.2 1.2ZM22.1 4.06l1.01-1.75-.55-.32-1 1.74a.72.72 0 0 1-.45.37c-.18.05-.4 0-.61-.12a.87.87 0 0 1-.43-.47.72.72 0 0 1 .1-.58l1-1.74-.54-.31-1.01 1.75a1.1 1.1 0 0 0-.11.93c.11.32.36.6.76.82.38.22.75.3 1.07.24.33-.07.58-.25.76-.56m3.54 1.3.58.05c-.05-.4-.25-.8-.6-1.19a1.64 1.64 0 0 0-.82-.52.8.8 0 0 0-.73.21.74.74 0 0 0-.26.62c.01.24.09.47.24.68l.37.53c.17.23.16.42 0 .58a.43.43 0 0 1-.39.1.92.92 0 0 1-.46-.31 1.3 1.3 0 0 1-.38-.97l-.6-.05a2.38 2.38 0 0 0 .62 1.35c.3.32.6.5.89.57.3.05.55 0 .76-.2a.84.84 0 0 0 .3-.58c0-.22-.07-.44-.23-.68l-.38-.54c-.18-.26-.19-.48-.01-.64.09-.08.2-.1.33-.08.13.04.26.13.4.28.2.22.33.48.37.78m-.46 3.52 2.7-1.65-.34-.55-2.7 1.65.34.55Zm1.14 2.59 3.38.39-.17-.63-2.7-.25 2.21-1.57-.17-.64-2.74 2.02.19.68ZM30 15.92l-.05-2.4-3.16.07.05 2.4.48-.02-.03-1.78.9-.02.03 1.61h.49l-.04-1.62.8-.01.05 1.77.48-.01Z" fill="currentColor"/>
</symbol>
</svg>