<svg xmlns='http://www.w3.org/2000/svg' viewBox='0 0 30 30' fill='none'>
<symbol id='Fitness'>
<path d="M22.7615 23.7057L18.7484 15.8957C18.5578 15.4057 18.3872 14.8957 18.2568 14.3857L17.4943 11.3357C17.2636 10.4257 17.3037 9.4757 17.5946 8.5857L18.4976 5.8457C18.8387 4.8057 18.3471 3.6757 17.3639 3.2057C16.8221 2.9457 16.19 2.9357 15.6282 3.1557C15.0664 3.3757 14.6249 3.8257 14.4042 4.3757L12.9796 8.0057C12.8893 6.4357 11.595 5.1857 9.99981 5.1857C8.40459 5.1857 7 6.5257 7 8.1757C7 9.5957 7.99325 10.7757 9.32761 11.0757C9.11692 11.1857 8.93633 11.3657 8.84604 11.6057L7.612 14.9057C7.30098 15.5457 7.30098 16.2757 7.612 16.9157C7.92302 17.5557 8.50492 18.0057 9.19718 18.1557L10.2205 18.3757C9.71889 18.9157 9.48814 19.6357 9.5684 20.4157L10.3309 25.1457C10.5014 26.2157 11.4245 26.9957 12.518 26.9957C13.12 26.9957 13.7019 26.7457 14.1233 26.3057C14.5346 25.8657 14.7554 25.2757 14.7353 24.6757L14.5547 21.0857L15.4777 20.1657L18.7484 25.8557C19.1497 26.5557 19.9122 26.9957 20.7249 26.9957C21.5375 26.9957 22.2499 26.5857 22.6612 25.9157C23.0826 25.2357 23.1127 24.4057 22.7415 23.7057H22.7615ZM9.00656 8.1857C9.00656 7.6457 9.448 7.1957 9.99981 7.1957C10.5516 7.1957 10.9931 7.6357 10.9931 8.1857C10.9931 8.7357 10.5516 9.1757 9.99981 9.1757C9.448 9.1757 9.00656 8.7357 9.00656 8.1857ZM9.6286 16.2157C9.5082 16.1857 9.448 16.1057 9.42794 16.0557C9.40787 16.0057 9.37777 15.9057 9.46807 15.7057L9.97974 14.3257L11.2439 16.5557L9.6286 16.2157ZM20.9657 24.8757C20.9055 24.9757 20.6145 25.0557 20.5042 24.8757L16.5813 18.0557C16.4208 17.7857 16.1499 17.6057 15.8389 17.5657C15.5279 17.5257 15.2169 17.6257 14.9961 17.8457L12.8291 20.0057C12.6284 20.2057 12.5281 20.4757 12.5381 20.7657L12.7388 24.7957C12.7388 24.8657 12.7087 24.9157 12.6786 24.9457C12.6083 25.0157 12.3475 25.0057 12.3274 24.8357L11.575 20.1657C11.5549 20.0057 11.6151 19.8457 11.7656 19.6957L13.4812 17.8757C13.7822 17.5557 13.8424 17.0757 13.6217 16.6957L10.662 11.4857C10.5817 11.3457 10.4613 11.2357 10.3309 11.1457C11.294 11.0357 12.1167 10.4757 12.5883 9.6757C12.6786 9.9557 12.8692 10.1857 13.1601 10.3057C13.6818 10.5057 14.2537 10.2557 14.4644 9.7357L16.2703 5.1157C16.2904 5.0557 16.3305 5.0357 16.3606 5.0257C16.3907 5.0157 16.4409 5.0057 16.491 5.0257C16.5713 5.0657 16.6114 5.1457 16.5813 5.2257L15.6784 7.9657C15.267 9.2157 15.2169 10.5457 15.5379 11.8257L16.3004 14.8757C16.4509 15.4757 16.6415 16.0657 16.9024 16.7257L20.9556 24.6157C21.0158 24.7257 20.9857 24.8157 20.9556 24.8757H20.9657Z" fill="currentcolor"/>
</symbol>
</svg>
