<svg xmlns='http://www.w3.org/2000/svg' viewBox='0 0 30 30' fill='none'>
<symbol id='Footpath'>
<path fill-rule="evenodd" clip-rule="evenodd" d="M18.6815 19.1022H16.9415C16.1315 19.0522 15.0315 18.4422 15.0315 16.9822C15.0315 15.8699 15.8008 15.3789 16.2717 15.0784L16.2815 15.0722C16.5915 14.8822 16.7315 14.7822 16.7915 14.6322C16.9615 14.1922 17.2015 13.4122 17.4515 12.5922C17.7615 11.5722 18.0815 10.5222 18.3715 9.77216C18.8215 8.62216 18.8215 8.01216 18.8215 6.69216V6.69215C18.8215 5.69743 18.3385 4.66939 18.254 4.48967C18.2459 4.47246 18.2415 4.46303 18.2415 4.46216C17.9915 3.97215 18.1815 3.37216 18.6715 3.11215C19.1615 2.86215 19.7615 3.04216 20.0215 3.53215L20.0247 3.53854C20.0869 3.66098 20.8315 5.12861 20.8315 6.68215C20.8315 8.07215 20.8315 8.98215 20.2515 10.4822C20.0197 11.0884 19.7402 11.9967 19.4768 12.8527L19.3815 13.1622C19.1215 14.0222 18.8715 14.8322 18.6815 15.3422C18.3821 16.1305 17.774 16.5106 17.374 16.7606L17.3715 16.7622C17.2515 16.8322 17.0715 16.9522 17.0315 17.0022C17.0315 17.0455 17.0465 17.0738 17.0571 17.0936L17.0615 17.1022H18.7015C18.8315 17.1022 18.9515 17.0322 19.0115 16.9122C20.1015 14.7322 21.0915 13.3422 21.9615 12.7722C22.2915 12.5522 22.6715 12.3422 23.0615 12.1422C24.2115 11.5222 24.9715 11.0622 24.9715 10.4122C24.9715 9.97215 24.5915 9.56215 24.0015 8.98215C23.3615 8.36215 22.6415 7.65215 22.6415 6.60215C22.6415 5.18216 22.9215 3.87216 22.9415 3.82215C23.0615 3.28215 23.5915 2.94215 24.1315 3.06215C24.6715 3.18215 25.0115 3.71216 24.8915 4.25216C24.8915 4.253 24.8897 4.26187 24.8865 4.27814C24.8513 4.45558 24.6415 5.51208 24.6415 6.60215C24.6415 6.81215 25.0815 7.24216 25.4015 7.55215L25.4135 7.56398C26.1114 8.25187 26.9715 9.09963 26.9715 10.4022C26.9715 12.2922 25.2615 13.2222 24.0115 13.8922L24.0114 13.8922C23.6814 14.0722 23.3515 14.2522 23.0615 14.4422C22.6415 14.7122 21.8315 15.7422 20.8015 17.8122C20.4015 18.6122 19.6015 19.1122 18.7015 19.1122L18.6815 19.1022ZM20.5215 23.0322C18.7515 23.0322 16.7015 22.6422 14.5215 21.4622C9.1415 18.5622 4.7315 21.3022 4.5415 21.4222C4.0715 21.7122 3.4615 21.5822 3.1615 21.1222C2.8615 20.6622 2.9915 20.0422 3.4515 19.7422C3.6815 19.5922 9.0315 16.2222 15.4715 19.7022C20.8224 22.5903 25.3026 19.8338 25.4483 19.7442L25.4515 19.7422C25.9215 19.4422 26.5315 19.5722 26.8415 20.0322C27.1415 20.4922 27.0115 21.1122 26.5515 21.4122C26.4015 21.5122 24.0115 23.0222 20.5315 23.0222L20.5215 23.0322ZM14.5215 25.4321C16.7015 26.6121 18.7515 27.0021 20.5215 27.0021L20.5315 26.9921C24.0115 26.9921 26.4015 25.4821 26.5515 25.3821C27.0115 25.0821 27.1415 24.4621 26.8415 24.0021C26.5315 23.5421 25.9215 23.4121 25.4515 23.7121C25.451 23.7125 25.4499 23.7131 25.4483 23.7141C25.3026 23.8037 20.8224 26.5602 15.4715 23.6721C9.0315 20.1921 3.6815 23.5621 3.4515 23.7121C2.9915 24.0121 2.8615 24.6321 3.1615 25.0921C3.4615 25.5521 4.0715 25.6921 4.5415 25.3921C4.7315 25.2721 9.1415 22.5321 14.5215 25.4321Z" fill="currentcolor"/>
</symbol>
</svg>
