<svg xmlns='http://www.w3.org/2000/svg' viewBox='0 0 30 30' fill='none'>
<symbol id='Fridge'>
<path fill-rule="evenodd" clip-rule="evenodd" d="M22.9416 3H7.04813C5.92166 3 5 3.89963 5 4.99917V23.4515C5 24.551 5.92166 25.4506 7.04813 25.4506H7.2427V26.0004C7.2427 26.5502 7.70353 27 8.26677 27H10.9601C11.5233 27 11.9841 26.5502 11.9841 26.0004V25.4506H18.0159V26.0004C18.0159 26.5502 18.4767 27 19.0399 27H21.7332C22.2965 27 22.7573 26.5502 22.7573 26.0004V25.4506H22.9519C24.0783 25.4506 25 24.561 25 23.4615V4.99917C25 3.89963 24.0783 3 22.9519 3H22.9416ZM22.9416 4.99917V11.5764H7.05837V4.99917H22.9416ZM21.7332 23.4515H19.0502H10.9908H10.9703H10.9498H8.29749H8.27701H8.25653H7.06861V13.5756H22.9519V23.4515H21.7435H21.7332ZM9.60829 14.7651C9.04506 14.7651 8.58423 15.2149 8.58423 15.7647V19.833C8.58423 20.3828 9.04506 20.8326 9.60829 20.8326C10.1715 20.8326 10.6324 20.3828 10.6324 19.833V15.7647C10.6324 15.2149 10.1715 14.7651 9.60829 14.7651ZM10.6324 9.52728C10.6324 10.0771 10.1715 10.5269 9.60829 10.5269C9.04506 10.5269 8.58423 10.0771 8.58423 9.52728V7.49813C8.58423 6.94835 9.04506 6.49854 9.60829 6.49854C10.1715 6.49854 10.6324 6.94835 10.6324 7.49813V9.52728Z" fill="currentColor"/>
</symbol>
</svg>
