<svg xmlns='http://www.w3.org/2000/svg' viewBox='0 0 30 30' fill='none'>
<symbol id='Golf'>
<path fill-rule="evenodd" clip-rule="evenodd" d="M22.2652 13.7815C22.4654 13.7815 22.6755 13.7511 22.8657 13.67C23.3161 13.5078 23.6763 13.1733 23.8765 12.7374L26.8288 6.40177C27.2492 5.49958 26.8689 4.42506 25.9782 3.98917L24.2768 3.17821C23.8465 2.96534 23.3561 2.94506 22.9157 3.10725C22.4654 3.26945 22.1051 3.60397 21.9049 4.03986L18.9526 10.3755C18.7524 10.8114 18.7224 11.3081 18.8825 11.7541C19.0327 12.1697 19.3229 12.5144 19.7032 12.7273L17.9918 16.3259H9.74533V4.12095C9.74533 3.54314 9.28497 3.08698 8.72452 3.08698C8.59442 3.08698 8.48433 3.11739 8.36424 3.15794H8.34422C8.33422 3.15794 8.32421 3.15794 8.3142 3.16808L4.83145 4.56698C4.20095 4.82041 4.20095 5.7226 4.83145 5.97602L7.70372 7.1215V16.336H4.02081C3.45036 16.336 3 16.8023 3 17.37C3 17.9377 3.46036 18.404 4.02081 18.404H17.0111L15.0795 22.4486L11.7769 21.8708C11.6068 21.8404 11.4267 21.8303 11.2565 21.8303H8.53437C7.82381 21.8303 7.24335 22.4182 7.24335 23.1379V25.6823C7.24335 26.402 7.82381 26.99 8.53437 26.99H11.2565C11.4267 26.99 11.5968 26.9799 11.817 26.9393L15.0695 26.2601C15.0695 26.2601 15.1196 26.2297 15.1496 26.2297C15.2497 26.1993 15.3498 26.1588 15.4398 26.1081C15.6 26.0067 15.7301 25.8648 15.8101 25.6823L19.2829 18.4141H25.6379C26.2083 18.4141 26.6587 17.9478 26.6587 17.3801C26.6587 16.8125 26.1983 16.3462 25.6379 16.3462H20.2736L21.5647 13.6396C21.7949 13.741 22.035 13.7916 22.2752 13.7916L22.2652 13.7815ZM11.4267 24.9018C11.3666 24.9119 11.3066 24.922 11.2465 24.922H9.27496V23.9083H11.2465H11.2465C11.3066 23.9083 11.3666 23.9083 11.4167 23.9286L13.9687 24.3746L11.4167 24.9119L11.4267 24.9018ZM23.6463 5.16506L24.8773 5.75301L22.1451 11.6122L20.9142 11.0242L23.6463 5.16506ZM20.2436 22.2255C19.1728 23.3101 19.1728 25.0841 20.2436 26.1789C20.784 26.7263 21.4846 27 22.1952 27C22.9057 27 23.6063 26.7263 24.1467 26.1789C25.2175 25.0942 25.2175 23.3203 24.1467 22.2255C23.0759 21.1307 21.3245 21.1408 20.2436 22.2255ZM22.6956 24.709C22.4153 24.9929 21.965 24.9929 21.6948 24.709C21.4145 24.4252 21.4145 23.969 21.6948 23.6953C21.8349 23.5534 22.015 23.4825 22.1952 23.4825C22.3753 23.4825 22.5554 23.5534 22.6956 23.6953C22.9758 23.9792 22.9758 24.4353 22.6956 24.709ZM11.907 20.1474C11.907 20.6009 10.4732 20.9685 8.70451 20.9685C6.9358 20.9685 5.50198 20.6009 5.50198 20.1474C5.50198 19.694 6.9358 19.3263 8.70451 19.3263C10.4732 19.3263 11.907 19.694 11.907 20.1474Z" fill="currentcolor"/>
</symbol>
</svg>
