<svg xmlns="http://www.w3.org/2000/svg" viewBox="0 0 60 19">
  <symbol id="Google">
    <path fill="#4285F4" d="M7.5 6.72v2.02h4.82a4.28 4.28 0 0 1-1.1 2.55c-.7.7-1.8 1.47-3.73 1.47A5.3 5.3 0 0 1 2.2 7.4a5.3 5.3 0 0 1 8.93-3.93l1.42-1.42A6.97 6.97 0 0 0 7.49 0 7.49 7.49 0 0 0 0 7.39a7.49 7.49 0 0 0 7.5 7.38c2.2 0 3.85-.72 5.15-2.06a6.68 6.68 0 0 0 1.75-4.72c0-.47-.04-.9-.11-1.27h-6.8Z"/>
    <path fill="#EA4335" d="M20.43 5.08a4.7 4.7 0 0 0-4.79 4.77 4.71 4.71 0 0 0 4.79 4.77 4.7 4.7 0 0 0 4.78-4.77 4.7 4.7 0 0 0-4.78-4.77Zm0 7.66c-1.45 0-2.7-1.2-2.7-2.89 0-1.72 1.25-2.89 2.7-2.89 1.44 0 2.7 1.17 2.7 2.89 0 1.7-1.26 2.89-2.7 2.89Z"/>
    <path fill="#4285F4" d="M43.89 6.15h-.08a3.3 3.3 0 0 0-2.5-1.07c-2.39 0-4.46 2.08-4.46 4.77 0 2.68 2.07 4.77 4.45 4.77 1.14 0 2.05-.51 2.51-1.09h.08v.67c0 1.82-.98 2.8-2.55 2.8-1.28 0-2.07-.92-2.4-1.7l-1.82.75a4.54 4.54 0 0 0 4.22 2.82c2.46 0 4.53-1.44 4.53-4.97V5.33H43.9v.82Zm-2.4 6.59c-1.45 0-2.55-1.23-2.55-2.89 0-1.68 1.1-2.89 2.54-2.89 1.43 0 2.55 1.23 2.55 2.9s-1.12 2.88-2.55 2.88Z"/>
    <path fill="#FBBC05" d="M31.1 5.08a4.7 4.7 0 0 0-4.79 4.77 4.71 4.71 0 0 0 4.79 4.77 4.7 4.7 0 0 0 4.79-4.77 4.7 4.7 0 0 0-4.79-4.77Zm0 7.66c-1.44 0-2.7-1.2-2.7-2.89 0-1.72 1.26-2.89 2.7-2.89 1.44 0 2.7 1.17 2.7 2.89 0 1.7-1.26 2.89-2.7 2.89Z"/>
    <path fill="#34A853" d="M47.52.2h2.06v14.42h-2.06z"/>
    <path fill="#EA4335" d="M55.94 12.74a2.43 2.43 0 0 1-2.32-1.45L60 8.66l-.21-.54c-.4-1.07-1.61-3.04-4.08-3.04-2.46 0-4.5 1.93-4.5 4.77a4.66 4.66 0 0 0 4.73 4.77 4.76 4.76 0 0 0 3.97-2.11l-1.63-1.08a2.73 2.73 0 0 1-2.34 1.3Zm-.15-5.87c.84 0 1.57.44 1.8 1.05L53.3 9.7c0-2 1.42-2.83 2.5-2.83Z"/>
  </symbol>
</svg>