<svg xmlns='http://www.w3.org/2000/svg' viewBox='0 0 696 830' fill='none'><symbol id='GREC_Fill'>
  <g fill="none">
    <path fill="#9BADFA" d="M590.6 426c0 15 0 27-2 40l-2 24-3 22c-2 23-8 44-18 65a314.4 314.4 0 0 1-77 102c-20 19-44 31-71 38l-27 6c-15.6 1.6-31.3 2.9-47 4l-24-2-27-5a170.1 170.1 0 0 1-83-40 514.4 514.4 0 0 1-59-67c-10-16-20-34-26-52-5-13-9-26-11-40l-4-33c-1.6-13.6-3-27.3-4-41-1.3-31.1.4-62.2 5-93 4-25 11-49 20-73l13-34c6-14 13-28 22-41l29-38c13-16 30-29 49-39 12-7 26-13 40-17l21-7 21-3 20 1h5l23-1a396.8 396.8 0 0 1 65 19c26.1 11.9 49 29.7 67 52l27 36c7 11 14 23 18 36l19 46c5 16 10 31 13 47l4 29c2 10 2 21 3 32l1 27"/>
    <path fill="#FFF" d="M125.6 439a193 193 0 0 0 3 48l7 31a247 247 0 0 0 82 134l20 17c17 13 36 22 56 27l28 6 16 2c11.3 1 22.7.7 34-1l27-6c25-5 47-16 66-32a406.1 406.1 0 0 0 68-76c11-19 20-38 26-59 6.1-26 10.4-52.4 13-79-.9-49.8-8.6-99.3-23-147l-18-49c-5-12-11-23-17-33a577.3 577.3 0 0 0-45-56 103.2 103.2 0 0 0-41-24l-35-10-24-5-19-1h-3l-15 1-15 2c-9 1-17 4-25 6-11 3-22 6-33 11a138 138 0 0 0-46 36 527 527 0 0 0-46 73l-15 39a602.8 602.8 0 0 0-19 70l-4 25-2 25-1 25m-6-13 2-33 2-22c2-26 8-51 17-75l19-47a421.6 421.6 0 0 1 45-68 180.3 180.3 0 0 1 83-52l22-7 17-2c8-.2 16 .1 24 1l22-1c21.2 4.4 42 10.8 62 19 23 10.1 43.4 25.2 60 44l27 37c7 11 13 22 18 34l16 42c12.3 30.6 19 63.1 20 96 1.4 21.3 1.4 42.7 0 64l-2 21-2 18c-1 11-2 22-5 33-2 12-6 24-11 36a281.8 281.8 0 0 1-78 102 151.3 151.3 0 0 1-79 37l-27 5c-12 2-24 2-36 1l-25-4-22-4c-28-6-52-18-73-37a494 494 0 0 1-51-59c-10-14-18-30-25-46-6-14-10-28-12-44l-3-24c-1.4-11.7-2.8-23.3-4-35l-1-30"/>
    <path fill="#9BADFA" d="m172.6 421 1 24c4.2 45.9 20 89.9 46 128l15 19c8 10 18 18 29 25l22 13c14 8 30 14 46 17l10 1c7 1 13 0 19-1 12-2 24-6 35-11 18.5-8.6 36-19.3 52-32l19-20c10-11 19-24 25-38l9-21a213.8 213.8 0 0 0 19-66c2.6-17.2 3.3-34.6 2-52a675.6 675.6 0 0 0-8-49l-8-29c-10-29-25-55-45-78l-18-21-9-10-11-10c-10-8-20-14-32-18l-5-2c-11-5-22-8-33-9h-10a131.7 131.7 0 0 0-47 14l-15 9c-13 9-24 19-34 32l-2 2-19 23c-18 23-31 49-39 77l-8 32-4 21-2 30m-47 18 1-25 2-25 4-26c3.3-23.7 9.7-46.9 19-69l15-39a527 527 0 0 1 46-73c7-9 15-17 24-23 7-6 14-10 22-13 11-5 22-8 33-11 8-2 16-5 25-6l15-2 15-1h3l19 1 24 5c15.6 3.7 31 8.4 46 14a145.5 145.5 0 0 1 48 38l26 38c7 10 13 21 18 33l18 48a284.8 284.8 0 0 1 17 68c7.7 53 5.3 106.9-7 159a228.8 228.8 0 0 1-50 93c-14 15-28 29-44 42-19 16-41 27-66 32l-27 6-12 1c-12.7 1.1-25.5.4-38-2l-28-6c-29-7-55.5-22.3-76-44l-18-17a247.8 247.8 0 0 1-71-148 183.9 183.9 0 0 1-3-48"/>
    <path fill="#FFF" d="m454.6 558 4 3 9 6c3 1 3 1 5-1l8-12 1-2-7 1-18 4-2 1m-178-17c2 3 5 5 9 5l8 1c4 0 9 0 13 2 2 1 5 1 7 3l11 5c3 2 7 3 11 1 5-1 9-3 12-6l1-1-2-1-11-4-17-5c-11-4-22-9-31-16h-2c-2 6-5 11-9 16m81 12c-2 1-2 3-2 4l-3 5-2 4 1 2 5 2h10c6-1 13-1 19 1 7 2 14 2 21 2l8-1 16 1 6 1c4 1 9 0 13-2l1-1-5-12h-5c-17.3 2-34.7 2.4-52 1l-31-7m44 27c-2 15-4 29-4 44l1 2c7-3 32-20 36-24h-1l-11 1-4-1v-2l2-1 5-1h12l5-2 23-22 1-2-2-1c-1.7-.5-3.4-1.2-5-2l-2-1c0-1-1-2-2-1l2 5c1 3 0 5-2 6l-3 1c-5 2-10 3-15 2l-16-1-19-1-1 1m-60-94 3 1 20 8c10 3 20 7 30 8l9 2 25-2 28-6 10-3c-3-3-7-6-11-7l-9-3h-4l-16 3c-10 2-19 2-29 1l-12-4-6-2-10-3c-3-1-5-2-8-1l-3 1-15 6-2 1m95-254-9-7-15-11c-9-6-19-11-29-15h-2l-1 1-3 13 1 11c1 8 5 14 12 18l14 6 8 1 9-2c4-1 7-4 9-7l6-8m-127 271 3 1 14 6c18.3 5.8 36.6 11.5 55 17a192 192 0 0 0 33 3l18-2h8l23-4c11-2 22-4 33-8l2-1-1-1-8-5-14-10h-4l-15 4-33 6c-14 2-27 1-40-2l-26-8c-8.4-2.9-16.7-5.9-25-9l-19 11-4 2m-22 15 2 1 7 4 17 7 21 9 26 8c23.1 4.3 46.5 6.3 70 6l13-1 13-1c9-1 18-4 27-7l2-2 2-2 8-15-1-2-1 1-20 5-21 4-15 2c-20.7 1.6-41.5.6-62-3l-41-11c-9-3-19-6-27-11l-4-2h-3l-8 6-5 4m210-179-1 3-7 13-9 18a85 85 0 0 1-37 38c-12 7-24 11-37 16h-2l7-3 25-15a144 144 0 0 0 47-52l8-15 1-1h-1l-3 2-15 15-8 9c-6 5-12 9-20 12l-18 4-20 2c-10 1-19 3-27 7l-27 13-1 1 3 1 13-1 9 1h1l-3 2-11 2-17 1c-10 1-20 0-30-2-8-3-17-5-27-6h-16l-20 2h-1l1 1c8 6 16 11 25 14l27 9 24 5 4 2h-7l-14-2-25-4c-14-3-26-9-37-18a310.4 310.4 0 0 0-32-24l-13-11c-5-4-10-8-15-10l-2-1-1 1-4 16a315 315 0 0 0-2 77v2l5 1h6l41 2 11-1c17-1.7 34-3.7 51-6l40-8 20-2c13 0 25 0 37 2 39.2 5.1 79 2.1 117-9l3-2v-4a377 377 0 0 0-4-52l-11-43-1-2m-249 254 2 2 7 5c10 9 22 16 34 23a156.5 156.5 0 0 0 52 19c5 1 11 0 16-1l3-1c9-2 17-5 26-9l2-1 1-13 1-12 1-13c1-4 2-8 1-12l-9-2c-6-2-12-3-19-3-3.7.3-7.3.3-11 0l-7-1c-4-3-5-7-3-11l1-3v-1l-3 2c-6 3-12 4-19 1l-8-4c-7-4-14-6-22-6l-7-1c-5 0-9-3-13-7v-6l1-1c3-5 5-10 6-16v-1l4-6c5-5 11-9 17-12l22-12a224.6 224.6 0 0 1 37-16c6-2 12-2 18 0l14 3 7 1h2l-1-4-1-1c-2-3-2-7 1-9s6-1 9 1c2 2 2 6 0 8l-3 2 1 4 5-1 17-1c10-1 19 2 28 6s17 9 24 14l16 12 2 1c2-4 5-10 5-14h-8l-3-1-1-2 1-2h12c2-3 2-7 3-10l2-11 1-10 1-11-3 1-8 2c-23.7 7-48.4 9.7-73 8l-39-6a154.7 154.7 0 0 0-53 1c-10 1-20 4-29 6a216.2 216.2 0 0 1-70 11l-16 1-37-2h-2c0 4 2 15 4 19l16 1 6 1 1 1c-7 3-14 3-22 3l1 4 5 14a430.7 430.7 0 0 0 32 57l8 9 8 7 3 2h1c6-1 12 0 18 1l7 1 1 1-6 1h-18m-59-230 2 1c6 1 11 3 16 6l12 9 13 9c6 3 11 7 17 9 1 1 3 2 5 1h26c7-1 14 0 21 1l20 5 20 2 5-1 25-14c12-7 25-11 39-13l23-5c13-2 25-8 35-17 9.1-6.9 18.1-13.9 27-21l1-1-2-4c-4-11-9-23-15-34l-18-32c-5-9-12-18-19-26l-2-1-1 1-7 6-9 6-8 4c-5 1-10 1-14-1l-4-2a191 191 0 0 1-20-17c-4-4-6-9-6-15 0-7 1-14 4-20l1-3h-1l-21-7c-5-2-10-2-15 0l-13 5h-1v1l27 5 2 1h-4l-13-1-20-2h-4l-11 5-18 9a997.1 997.1 0 0 0-26 20c-10 9-19 19-25 31l-12 20-15 30c-7 16-12 33-17 50m-17 58c.5-17.1 2.5-34.2 6-51l8-32c8-28 21-54 39-77l19-23 2-2c13.6-16.4 30.2-30 49-40 15-6.9 30.8-11.9 47-15h10c11 2 22 4 33 9l5 2c12 4 22 10 32 18l11 10 9 10 18 21c20 23 35 49 45 78l8 29a625 625 0 0 1 8 49 693 693 0 0 1-2 52c-3.6 23-10 45.5-19 67l-9 20c-6 14-15 27-25 38a169.9 169.9 0 0 1-71 52c-11 6-23 9-35 11-6 1-12 2-19 1l-10-1c-16-3-31-9-46-17l-22-13c-11-7-21-15-29-25a469 469 0 0 1-28-39c-7-14-14-28-19-43a216 216 0 0 1-14-65l-1-24"/>
    <path fill="#9BADFA" d="m361.6 237-4 1-11 6-20 13a104 104 0 0 1-20 12l-2 2h2l6-3 24-13 15-9 6-5 4-4m95 92v-2l-3-10-10-24-13-26-1-1v2l2 6 4 10c2 8 6 15 10 23l10 19 1 3m-95-4h1l2-2 11-19 9-15 10-22v-3l-1 1-2 3-4 7c-1 4-4 7-6 10l-10 19-8 16-2 5m-172 38a282.8 282.8 0 0 1 32-80l12-20a143.6 143.6 0 0 1 32-37c12.2-7.9 24.5-15.6 37-23l11-5h4l20 2 13 1c3 1 3 0 2-1l-28-5 2-1 13-5c5-2 10-2 15 0l21 7h1l-1 3c-3 6-4 13-4 20a25 25 0 0 0 8 17c6 6 12 11 19 15l3 2c4 2 9 2 14 1l8-4 9-6 8-7 2 1c7 8 14 17 19 26l18 32c6 11 11 23 15 34l2 4-19 14-9 8c-10 9-22 15-35 17l-23 5c-14 2-27 6-39 13l-25 14-6 1c-6 0-13-1-19-3l-20-4-21-2-15 1h-11l-5-1c-6-2-11-6-17-9l-13-9-12-9c-5-3-10-5-16-6l-2-1m106 135-2-2h-10l-3 1c-1 1 0 2 1 3h12l2-2m-17 61-3-1h-12l-3 1 1 2 1 1 12-1 4-2m98-100-5-1c-5 .5-10 1.2-15 2l-1 1 1 2h3l14-2 3-2m-41 127 1 1h19l4-1 2-1c-3-2-5-2-13-2-7 0-10 1-13 3m167-117-3-3-4-1-11 1h-4l-1 2 1 1 4 1h15l3-1m-204 11-4-1h-18l-1 1v3h2c6.3.8 12.8.4 19-1l2-2m-44 64-2-1h-2a80.6 80.6 0 0 0-19-1l-2 2 1 2 3 1 18-1 3-2m121 79-3-1h-16l-2 1-1 2c0 1 0 2 2 2h1l15-1c2 0 3-1 4-3m-36-20c-1-2-2-2-4-2h-18l-4 2 4 2h18l4-2m-103-93-4-2-14-1-4 1-1 2 1 2 4 1 14-1c1 0 3 0 4-2m8 79-3-2-7-7-8-9c-6-6-11-13-14-20-7-12-13-24-18-37l-5-14-1-4 21-3-6-2-16-1c-1 0-5-18-4-19s26 1 39 2l16-1 27-2c15-1 29-4 43-9a196 196 0 0 1 82-7l39 6h32c14-1 28-4 41-8 3-1 9-4 10-3 2 0 0 7 0 11l-1 10-2 11c-1 3-1 7-3 10h-3l-6-1-4 2 1 3 9 1h2c0 1-3 13-5 14-1 1-12-9-18-13l-24-14c-9-4-18-7-28-6l-17 1-5 1-1-3 2-3c3-2 3-6 0-8-2-2-6-3-8-1-3 2-3 6-1 9l2 3v2h-2l-7-1-14-4c-6-1-12-1-18 1-13 3.2-25.4 8.3-37 15l-22 13c-6 3-12 7-17 12l-4 6v1a41 41 0 0 1-7 17c-1 2 0 4 1 6 3 4 16 7 19 7 8 1 15 2 22 6 2 2 16 9 26 4l4-2-1 4c-3 4 0 8 4 10 2 2 6 2 8 2h11c6-1 10 0 16 2l11 2c1 2-3 49-5 50-1 2-19 9-28 11l-3 1a45 45 0 0 1-20 1c-17-4-33-10-48-19-12-7-24-14-34-23-3-1-9-6-9-7l9-1h8c3 0 4 1 4-1l-5-1-20-1"/>
    <path fill="#9BADFA" d="m497.6 339 1 2 11 42a377 377 0 0 1 4 53v5l-25 7-26 3a274.7 274.7 0 0 1-69 0 201.6 201.6 0 0 0-57 0l-40 8c-16.7 4-33.8 6-51 6l-11 1-41-2h-6l-5-1a268.3 268.3 0 0 1 2-79l4-16 1-1 2 1c5 2 10 6 15 10l13 11 16 11 6 4 10 8c11 10 23 16 37 19l25 4 14 1c5 1 4-1 3-1l-24-5-27-9c-9.2-3.9-18-9-26-15l1-1c7 1 14 0 20-1h16c10 1 19 3 27 6 10 2 20 3 30 2l17-2 11-2 2-1-9-1h-16l28-14c8-4 17-6 27-7 12.7-1.8 25.4-3.8 38-6 8-3 14-7 20-12l8-9 15-15 4-2-1 1-8 15c-5 8-9 15-15 22-9 12-19 21-32 30l-25 16 32-14c2-1 14-9 20-15 7-6 13-14 17-23l9-18 7-14 1-2m-210 179 5-4 8-6h3l4 2c8 5 18 8 27 11l41 11c20.5 3.6 41.3 4.6 62 3l15-2 21-4 20-5 1-1 1 2-8 15-2 2-2 1c-9 4-18 7-27 8l-13 1-12 1-35-1c-12 0-24-2-36-5l-26-8-21-9-17-7-7-4-2-1"/>
    <path fill="#9BADFA" d="m309.6 503 4-2 19-11h4c15.5 6 31.2 11.7 47 17 13 3 26 4 40 2l33-6 15-4h4l14 9c2 2 9 5 9 7s-23 8-34 9l-24 4h-8l-18 2-13-1c-11.2-1-22.2-3.1-33-6l-42-13-14-6-3-1m127-271-6 8c-2 3-5 5-9 7l-9 1h-8l-14-6c-7-4-11-10-12-18-1-3-2-9-1-11l4-14h2c10 4 20 9 29 15l15 11 9 7"/>
    <path fill="#9BADFA" d="m341.6 486 17-7 3-1c3-1 5-1 8 1l10 3 6 2 12 4c10 1 19 1 29-1l16-3h4l9 2c5 2 12 7 12 8l-11 3-28 5c-11.2 2-22.6 2.7-34 2l-30-9-23-9m60 94h20l16 1c5 1 10 0 15-2l3-1c2-1 3-3 2-6 0-2-3-4-2-5s4 1 4 2l3 1 2 1 2 1-1 2-23 22-5 2h-12l-5 1-2 1v2h16l-36 24c-2-1 2-45 3-46"/>
    <path fill="#9BADFA" d="m357.6 553 31 7 21 2 35-4c1 0 7 12 6 13l-1 1h-1c-4 2-8 3-12 2l-6-1-16-1-8 1c-7 0-14 0-21-2-6-2-13-2-19-1h-10l-5-2-1-2 2-4 3-5 2-4m-81-12 9-16h2c9 7 20 12 31 16l17 5 11 4 2 1-1 1c-3 3-7 5-12 6-4 1-8 1-11-1l-11-5c-2-2-5-2-7-3-4-2-9-2-13-2l-9-1c-4 0-8-4-8-5m178 17 2-1 18-4 7-1-9 14c-2 2-2 2-5 1l-9-6-4-3"/>
    <path fill="#FFF" d="m363.6 320 8-16 10-19c2-3 5-6 6-10l4-7 2-3 1-1v2l-10 23-9 15-12 19c0 1-1 4-2 3l2-6m93 9-1-3-10-19c-4-8-8-15-10-23l-4-10-2-6c-1-5 1-1 1-1l13 26 10 24 3 10v2m-95-92c1 1-2 3-4 4l-6 5-15 9-24 13-6 3h-2l2-2 6-3 14-9 20-13 11-6 4-1m-125 273c0 2-3 2-4 2l-14 1-4-1-1-2 1-2 4-1 14 1 4 2m103 93c0 2-3 2-4 2h-18l-4-2 4-2h18c2 0 4 0 4 2m36 20c0 2-2 3-4 3a57.3 57.3 0 0 1-16 1c-2 0-2-1-2-2l1-2 2-1h16l3 1m-121-79c0 2-2 2-3 2l-18 1-3-1-1-2 2-2h1l18 1 4 1m38-61h-17v-3l1-1h18c7 0 6 4-2 4m192-13-4-1-1-1 1-2h4c5-.2 10-.2 15 0 7 3 5 7-15 4m-149 116c0-2 6-3 14-3 7 0 12 1 12 2l-6 2h-16l-4-1m41-127c0 2-2 2-3 2l-14 2h-3l-1-2 1-1 4-1 11-1 5 1m-98 100-4 2-12 1-1-1-1-2 3-1h12l3 1m17-61-2 2h-12c-1-1-2-2-1-3l3-1h10l2 2m-87.8-80.3c0 .4-.3 6.8-.2 13.3-6.8.5-5.7-13.3-5.3-15 .2-1.4-4.4 1.7-6.6 3.8.7 1.3 1.7 1 3 .5-.5 6.2 3.8 11.8 9 11.7.1 6.4.7 12.5 2.6 13 .2.1.4-6.5.6-13.7 12.2-3.8 7.6-18.3 7.6-18.3-.2-.8-2 .3-6 3.9 1.6 1.7 2.3.7 3.6.3 1 1.9 1.4 10.5-5.2 13.1l.3-18c0-.2-.2-.3-.4-.3-1.8.2-5 3.4-7.5 6.1 1.4 2.2 3.1.2 4.5-.4m6 19.1 2.7 2.8 2.8-2.8-2.8-2.8-2.8 2.8Z"/>
  </g>
</symbol></svg>
