<svg xmlns='http://www.w3.org/2000/svg' viewBox='0 0 30 30' fill='none'>
<symbol id='Hairdresser'>
<path d="M23.91 12.1709C23.8 12.2409 21.26 13.8009 18.17 12.1309C16.48 11.2109 14.9 11.0509 13.67 11.1509L14.03 10.1509C15.12 10.1009 16.2 10.3509 17.22 10.9009C18.62 11.6609 19.94 11.9109 21.08 11.9109C23.34 11.9109 24.9 10.9209 25 10.8609C25.46 10.5609 25.59 9.95085 25.29 9.48085C24.99 9.02085 24.37 8.88085 23.91 9.18085C23.8 9.25085 21.26 10.8109 18.17 9.14085C17.07 8.54085 15.92 8.22085 14.75 8.16085L16.13 4.34085C16.32 3.82085 16.05 3.25085 15.53 3.06085C15.01 2.87085 14.44 3.14085 14.25 3.66085L12.35 8.92085L10.45 3.66085C10.26 3.14085 9.68999 2.87085 9.16999 3.06085C8.64999 3.25085 8.37999 3.82085 8.56999 4.34085L11.29 11.8609L8.42999 19.7609C8.27999 19.7609 8.13999 19.7309 7.98999 19.7409C5.98999 19.8509 4.44999 21.5609 4.55999 23.5609C4.60999 24.5309 5.03999 25.4209 5.75999 26.0709C6.42999 26.6709 7.28999 27.0009 8.17999 27.0009C8.24999 27.0009 8.30999 27.0009 8.37999 27.0009C9.34999 26.9509 10.24 26.5209 10.89 25.8009C11.54 25.0809 11.87 24.1509 11.81 23.1809C11.76 22.2109 11.33 21.3209 10.61 20.6709C10.52 20.5809 10.41 20.5209 10.31 20.4509L12.35 14.8009L14.39 20.4509C14.29 20.5209 14.18 20.5909 14.09 20.6709C13.37 21.3209 12.94 22.2109 12.89 23.1809C12.84 24.1509 13.17 25.0809 13.81 25.8009C14.45 26.5209 15.35 26.9509 16.32 27.0009C16.39 27.0009 16.45 27.0009 16.52 27.0009C17.42 27.0009 18.27 26.6709 18.94 26.0709C19.66 25.4209 20.09 24.5309 20.14 23.5609C20.25 21.5609 18.71 19.8509 16.71 19.7409C16.56 19.7409 16.42 19.7509 16.27 19.7609L13.88 13.1509C15.02 13.0609 16.14 13.3009 17.22 13.8809C18.62 14.6409 19.94 14.8909 21.08 14.8909C23.34 14.8909 24.9 13.9009 25 13.8409C25.46 13.5409 25.59 12.9309 25.29 12.4609C24.99 12.0009 24.37 11.8609 23.91 12.1609V12.1709ZM9.38999 24.4709C9.09999 24.7909 8.69999 24.9909 8.25999 25.0109C7.82999 25.0309 7.40999 24.8909 7.07999 24.5909C6.75999 24.3009 6.56999 23.9009 6.53999 23.4609C6.50999 23.0209 6.65999 22.6109 6.95999 22.2809C7.25999 21.9509 7.64999 21.7609 8.08999 21.7409C8.11999 21.7409 8.14999 21.7409 8.17999 21.7409C8.57999 21.7409 8.96999 21.8909 9.26999 22.1609C9.58999 22.4509 9.78999 22.8509 9.80999 23.2909C9.82999 23.7309 9.68999 24.1409 9.38999 24.4709ZM17.72 22.2909C18.01 22.6109 18.16 23.0309 18.14 23.4709C18.12 23.9109 17.93 24.3109 17.6 24.6009C17.28 24.8909 16.84 25.0409 16.42 25.0209C15.98 25.0009 15.59 24.8109 15.29 24.4809C15 24.1609 14.85 23.7409 14.87 23.3009C14.89 22.8609 15.08 22.4709 15.41 22.1709C15.71 21.9009 16.1 21.7509 16.5 21.7509C16.53 21.7509 16.56 21.7509 16.59 21.7509C17.03 21.7709 17.42 21.9609 17.72 22.2909Z" fill="currentcolor"/>
</symbol>
</svg>
