<svg xmlns='http://www.w3.org/2000/svg' viewBox='0 0 30 30' fill='none'>
<symbol id='Hiking'>
<path d="M26.9163 20.4178C26.7063 19.9085 26.1263 19.6588 25.6163 19.8585L24.7663 20.1981L22.9963 13.7067C23.2763 13.487 23.4463 13.1375 23.3863 12.768C23.3163 12.3186 22.9463 12.009 22.5263 11.9591L22.4763 11.7793C22.3363 11.25 21.7763 10.9304 21.2463 11.0802C20.7463 11.22 20.4463 11.7194 20.5363 12.2187L18.0163 12.6282C18.0163 12.6282 17.9563 12.6282 17.9263 12.6282C17.8963 12.6282 17.8763 12.6282 17.8863 12.6282L17.1163 12.1887C17.1163 12.1887 17.1263 12.1788 17.1263 12.1688C17.3763 11.5296 17.4063 10.8106 17.2063 10.1415C17.0963 9.78196 16.7963 9.53229 16.4463 9.46238C17.7063 9.1528 18.6563 8.03429 18.6663 6.6761C18.6663 5.89714 18.3763 5.16811 17.8363 4.61884C17.2963 4.06957 16.5663 3.75999 15.7963 3.75C15.0263 3.75999 14.2863 4.03961 13.7363 4.57889C13.1863 5.11818 12.8763 5.8472 12.8663 6.61618C12.8663 7.29527 13.1063 7.94441 13.5263 8.46371C13.2463 8.3239 12.9163 8.29394 12.6163 8.44374C12.5963 8.45373 12.5763 8.4737 12.5563 8.48369C12.2163 8.1741 11.8063 7.96438 11.3363 7.88449C10.0063 7.64481 8.72634 8.53362 8.49634 9.87184L7.85634 13.497C7.73634 14.1461 7.88634 14.7953 8.25634 15.3246C8.62634 15.8638 9.19634 16.2234 9.83634 16.3332L10.3963 16.4331C10.3963 16.5729 10.4263 16.7127 10.4363 16.8525C10.4363 16.8725 10.4263 16.8925 10.4263 16.9025L10.3363 20.0782C10.3363 20.4178 10.1863 20.7274 10.0163 20.9071L6.47634 23.7933L3.82634 24.2627C3.28634 24.3625 2.91634 24.8818 3.01634 25.4211C3.10634 25.9005 3.52634 26.25 3.99634 26.25C4.05634 26.25 4.11634 26.25 4.17634 26.23L6.92634 25.7407L8.95634 26.0103C9.01634 26.0103 9.07634 26.0103 9.14634 26.0103L14.2363 25.7307L17.9863 26.1202C18.1763 26.1401 18.3563 26.1102 18.5263 26.0203L21.6263 24.5023C21.7363 24.4424 21.8463 24.3725 21.9263 24.2726L23.0863 22.9844L26.3663 21.6661C26.8763 21.4564 27.1263 20.8772 26.9263 20.3678L26.9163 20.4178ZM15.1263 6.01698C15.2963 5.8472 15.5163 5.75732 15.7563 5.75732C15.9963 5.75732 16.2263 5.85719 16.3963 6.02696C16.5663 6.19674 16.6563 6.42643 16.6563 6.66611C16.6563 7.16545 16.2463 7.56491 15.7563 7.56491C15.5163 7.56491 15.2863 7.46505 15.1163 7.29527C14.9463 7.1255 14.8563 6.89581 14.8563 6.65613C14.8563 6.41644 14.9563 6.18675 15.1263 6.01698ZM13.5263 10.2413C14.0063 9.99168 14.1963 9.40246 13.9563 8.9231C14.4563 9.32257 15.0763 9.55226 15.7263 9.56225H15.7563C15.7563 9.56225 15.8063 9.56225 15.8263 9.56225C15.3863 9.77197 15.1463 10.2613 15.2963 10.7407C15.3363 10.8805 15.3463 11.0303 15.3263 11.1701L14.9463 10.9504C14.4663 10.6708 13.8563 10.8405 13.5763 11.3199C13.2963 11.7993 13.4663 12.4085 13.9463 12.6881L14.6463 13.0875C14.6463 13.0875 14.6163 13.1275 14.6063 13.1575L13.6263 15.6541C13.6263 15.6541 13.6063 15.714 13.5963 15.754C13.4163 16.3832 13.5663 17.0622 13.9863 17.5716L16.0163 19.9983C16.1863 20.218 16.3163 20.4677 16.3963 20.7374L17.4863 24.1228H17.4463L16.0963 21.3565C16.0563 21.2766 16.0063 21.1967 15.9363 21.1268L13.5063 18.4504C13.5063 18.4504 13.4263 18.3705 13.3763 18.3306C12.5663 17.7014 12.2163 16.6628 12.4963 15.5942L13.1663 11.6894L13.3263 10.7806C13.3263 10.7806 13.3263 10.7407 13.3263 10.7207L13.3663 10.511C13.3863 10.4111 13.4463 10.3212 13.5363 10.2713L13.5263 10.2413ZM9.87634 14.2061C9.83634 14.1461 9.77634 14.0263 9.79634 13.8665L10.4363 10.2413C10.4763 10.0216 10.6663 9.87184 10.8863 9.87184C10.9163 9.87184 10.9363 9.87184 10.9663 9.87184C11.1263 9.9018 11.2163 10.0017 11.2563 10.0616C11.2963 10.1115 11.3463 10.2314 11.3263 10.3812L11.1863 11.22L10.6063 14.4757L10.1563 14.3958C9.99634 14.3658 9.90634 14.266 9.86634 14.2061H9.87634ZM14.1863 23.7533L9.35634 24.023L11.3263 22.4051C11.9363 21.8059 12.2863 21.007 12.3163 20.1581V20.0982L14.3363 22.3252L15.0763 23.8332L14.3363 23.7533C14.2863 23.7533 14.2263 23.7533 14.1763 23.7533H14.1863ZM21.7463 21.5063L20.5663 22.8146L19.3563 23.4038L18.2863 20.0782C18.1363 19.5989 17.8963 19.1495 17.5663 18.7101L15.5163 16.2533L16.3763 14.0563L16.9463 14.3858C17.2663 14.5356 17.6063 14.6155 17.9463 14.6155C18.0763 14.6155 18.1963 14.6055 18.3263 14.5856L21.0363 14.1461L22.8863 20.9371L22.1163 21.2467C21.9763 21.3066 21.8463 21.3965 21.7463 21.5063Z" fill="currentcolor"/>
</symbol>
</svg>
