<svg xmlns='http://www.w3.org/2000/svg' viewBox='0 0 30 30' fill='none'>
<symbol id='HorseRiding'>
<path d="M26.5397 15.7418L25.4993 14.0993C25.4993 14.0993 25.4893 14.0889 25.4793 14.0785C25.4793 14.0785 25.4793 14.0577 25.4693 14.0577C24.879 13.2157 24.779 12.5192 24.6689 11.7187C24.5989 11.2094 24.5289 10.6896 24.3288 10.1282C23.9487 9.0679 23.0883 8.11152 22.5581 7.59175C22.7582 5.24238 21.9078 3.6103 21.8678 3.53753C21.6177 3.05934 21.0675 2.87223 20.5873 3.09053C20.1271 3.29844 19.7369 3.56872 19.3868 3.8494C7.72192 3.55832 3.13002 13.7666 3.09 13.8706C2.85991 14.3904 3.09 15.0037 3.59021 15.2428C3.72026 15.3051 3.86032 15.3363 4.00038 15.3363C4.38054 15.3363 4.74069 15.1076 4.91076 14.723C5.06082 14.3696 8.54226 6.62497 17.676 5.95967C17.3859 6.54181 17.1858 7.09277 17.0758 7.51898C7.01163 8.21547 3.35011 21.6983 3.20005 22.2909C3.04998 22.8418 3.37012 23.4136 3.90034 23.5695C3.99037 23.5903 4.08041 23.6111 4.16044 23.6111C4.60063 23.6111 5.00079 23.3096 5.12084 22.8418C5.15086 22.7171 8.29216 11.199 16.1954 9.72281C16.5156 10.9703 17.2459 13.278 18.6665 15.6274C17.9262 15.0765 17.1658 14.276 16.5756 13.0805C16.3255 12.5712 15.7152 12.3632 15.225 12.6335C14.7348 12.8934 14.5347 13.5171 14.7949 14.0369C15.075 14.6087 15.3851 15.1076 15.7152 15.5546C15.5752 16.6358 15.3851 19.2554 16.3855 21.7503L16.4255 21.8647C17.556 24.6714 17.656 24.9625 17.586 25.8773C17.536 26.449 17.9462 26.948 18.4964 27C18.5264 27 18.5564 27 18.5864 27C19.0966 27 19.5368 26.5946 19.5768 26.054C19.6969 24.5987 19.4268 23.923 18.2763 21.0642L18.2363 20.9499C17.7461 19.7232 17.616 18.4342 17.606 17.405C18.9366 18.351 20.2471 18.6941 20.9574 18.8188L21.2775 19.3282C21.7077 20.0143 22.368 20.4717 23.1383 20.6276C23.3284 20.6692 23.5085 20.6796 23.6985 20.6796C24.2788 20.6796 24.849 20.4925 25.3292 20.139L25.7694 19.8168C27.0499 18.8812 27.3801 17.0932 26.5297 15.7314L26.5397 15.7418ZM20.8774 8.80801C21.2175 9.09908 22.1679 10.0347 22.458 10.8559C22.5781 11.199 22.6381 11.5836 22.6981 12.0202C22.7882 12.6543 22.8982 13.4132 23.2684 14.2448C22.338 14.8062 21.7277 15.4195 21.3276 15.9809C19.5568 13.6003 18.6364 10.9703 18.2263 9.5149C18.5764 9.37976 18.8365 9.0575 18.8765 8.66248C18.8765 8.64168 19.0966 6.8017 20.4572 5.60622C20.5773 6.17797 20.6573 6.95763 20.5172 7.85163C20.4572 8.21547 20.5973 8.58971 20.8674 8.81841L20.8774 8.80801ZM24.6389 18.1223L24.1988 18.4446C24.0087 18.5901 23.7686 18.6421 23.5385 18.5901C23.3084 18.5381 23.1083 18.403 22.9782 18.1951L22.6581 17.6857C22.8282 17.3115 23.2584 16.6462 24.3188 16.012L24.869 16.8853C25.1291 17.3011 25.0291 17.8416 24.6389 18.1223Z" fill="currentcolor"/>
</symbol>
</svg>
