<svg xmlns='http://www.w3.org/2000/svg' viewBox='0 0 30 30' fill='none'>
<symbol id='HotSandwiches'>
<path fill-rule="evenodd" clip-rule="evenodd" d="M11.62 13.7434C11.3 13.7434 10.98 13.5834 10.79 13.2935L10.8 13.2835L10.7958 13.2766C10.6902 13.1034 9.23559 10.7166 10.76 7.89475C11.7099 6.14729 10.8912 4.70656 10.8068 4.55811C10.8024 4.55029 10.8 4.54605 10.8 4.54555C10.5 4.08566 10.63 3.46581 11.09 3.16588C11.55 2.85595 12.17 2.99592 12.47 3.45581L12.4749 3.46396C12.5872 3.64722 14.0404 6.01974 12.51 8.84452C11.53 10.6541 12.43 12.1437 12.47 12.2037C12.76 12.6736 12.62 13.2935 12.16 13.5834C11.99 13.6934 11.8 13.7434 11.62 13.7434ZM23.08 14.633C25.24 14.633 27 16.3925 27 18.552V19.7817C27 20.0017 26.92 20.2016 26.8 20.3616C26.93 20.6715 27 21.0314 27 21.3913C27 21.7513 26.93 22.1012 26.8 22.4211C26.92 22.5911 27 22.781 27 23.001C27 25.2004 25.32 27 23.26 27H6.75C4.68 27 3 25.2104 3 23.001C3 22.781 3.08 22.5811 3.2 22.4211C3.07 22.1112 3 21.7513 3 21.3913C3 21.0314 3.07 20.6815 3.2 20.3616C3.08 20.1916 3 20.0017 3 19.7817V18.552C3 16.3925 4.76 14.633 6.92 14.633H23.08ZM21.65 20.7815L18.96 21.9912V22.0012H24.53C24.79 22.0012 25 21.7213 25 21.3913C25 21.0614 24.78 20.7815 24.53 20.7815H21.65ZM5 21.3813C5 21.7113 5.22 21.9912 5.47 21.9912V21.9812H8.12L7.39 20.7715H5.47C5.21 20.7715 5 21.0514 5 21.3813ZM9.72 20.7715L10.91 22.771H10.9C11.09 23.0709 11.41 23.2009 11.7 23.0709L16.79 20.7715H9.72ZM6.92 16.6325C5.86 16.6325 5 17.4923 5 18.552V18.782H25V18.552C25 17.4923 24.14 16.6325 23.08 16.6325H6.92ZM9.34 23.9907H5.23C5.53 24.5906 6.09 24.9905 6.74 24.9905H10.69C10.16 24.8305 9.69 24.4806 9.34 23.9907ZM12.23 24.9905H23.25V24.9805C23.89 24.9805 24.46 24.5806 24.76 23.9807H14.53L12.53 24.8905C12.455 24.928 12.38 24.9486 12.305 24.9692L12.3048 24.9693C12.2798 24.9762 12.2549 24.983 12.23 24.9905ZM14.1401 13.2934C14.3301 13.5833 14.6501 13.7533 14.9801 13.7533C15.1701 13.7533 15.3601 13.7033 15.5201 13.5933C15.9801 13.2934 16.1101 12.6735 15.8101 12.2136C15.8101 12.2131 15.8077 12.2089 15.8032 12.2011C15.7189 12.0526 14.9002 10.6119 15.8501 8.86443C17.373 6.0354 15.9226 3.66 15.8146 3.48306L15.8101 3.47572C15.5101 3.01583 14.9001 2.88586 14.4401 3.17579C13.9801 3.46572 13.8401 4.08557 14.1301 4.55546C14.1701 4.61545 15.0701 6.11509 14.0901 7.91466C12.5583 10.7322 14.0155 13.1159 14.1254 13.2957L14.1301 13.3034L14.1401 13.2934ZM18.36 13.7434C18.04 13.7434 17.72 13.5834 17.53 13.2935L17.54 13.2835C17.539 13.2818 17.5376 13.2795 17.5358 13.2766C17.4302 13.1034 15.9756 10.7166 17.5 7.89475C18.4499 6.14729 17.6312 4.70656 17.5468 4.55811C17.5424 4.55029 17.54 4.54605 17.54 4.54555C17.24 4.08566 17.37 3.46581 17.83 3.16588C18.29 2.85595 18.91 2.99592 19.21 3.45581C19.2111 3.4577 19.2128 3.46043 19.2149 3.46396C19.3272 3.64722 20.7804 6.01974 19.25 8.84452C18.27 10.6541 19.17 12.1437 19.21 12.2037C19.5 12.6736 19.36 13.2935 18.9 13.5834C18.73 13.6934 18.54 13.7434 18.36 13.7434Z" fill="currentcolor"/>
</symbol>
</svg>
