<svg xmlns='http://www.w3.org/2000/svg' viewBox='0 0 696 830' fill='none'><symbol id='IXTC_Outline'>
  <g fill="#9D432C">
    <path d="m124 445.5 1 24 2 17a610 610 0 0 0 13 55 236.1 236.1 0 0 0 60 94l19 19a168.3 168.3 0 0 0 68 40l22 5 16 3c13 2 26 2 39 0h5c17.1-4 34.1-8.4 51-13 19-7 36-18 50-32l28-26 9-11c22.4-26.7 39-57.6 49-91l6-28 4-22 2-15v-30l-1-22-1-14a1298 1298 0 0 0-7-52c-4-16-8-31-14-46l-16-41c-5-13-11-25-18-37a615.7 615.7 0 0 0-35-47c-8-8-17-16-27-22-7-5-16-8-25-11-19.3-6.2-39-10.8-59-14l-11-1h-19l-11 1-26 5-34 10-20 10c-12 7-22 16-31 26a440.8 440.8 0 0 0-47 73l-14 37c-7.7 19.5-14 39.6-19 60-3 13-5 27-6 41l-2 31-1 24m451-18-1 24-2 21-2 17-5 38c-3 14-8 28-14 41a294 294 0 0 1-48 70l-23 24c-21 20-46 32-74 39l-26 4-18 3c-8 0-15 2-22 1l-1-1c-8 1-16-1-23-2l-22-4a162 162 0 0 1-84-43l-20-19a251.7 251.7 0 0 1-64-124l-3-25-3-25-1-13-1-41 1-21 1-10 3-22c3.4-22.8 9.1-45.3 17-67l14-36a264.3 264.3 0 0 1 47-72 160 160 0 0 1 71-50l29-10c12-4 25-5 38-4h15c13-1 27 0 40 5l32 11c26.4 10.8 49.8 28 68 50 9 11 18 23 26 36 7 10 13 20 17 32l17 44c6 14 10 29 13 44l3 21c1.3 9 2.3 18 3 27l1 25 1 12"/>
    <path d="m330 339.5-1 29-3 12c-1 3-4 4-7 4l-8-5c-4-3-6-6-7-10l-2-10-4-12c-2-6-3-13-3-20-.6-9.7-1.2-19.3-2-29l-2-5-2-3c-2-2-6-2-8 1l-3 3c-2 4-3 7-3 12v55c0 10 2 19 7 28a176.1 176.1 0 0 0 35 41c3 2 4 5 5 8l1 7 1 21c-.4 9-.8 18-1 27l-2 12 2 20 2 20c-.7 14-1.7 28-3 42-2 4-2 9-1 14l1 6 2 10v19l16 5c6 1 12 1 17-1l4-1c7-2 6 0 6-8l-1-18c0-20.3.2-40.7 1-61l-3-33c.1-5.9 1.5-11.7 4-17 1-3 2-4 5-5l7-4c7-3 13-6 18-11 10-9 19-19 25-31 3-5 6-10 7-16 2.8-13.7 7-27 12-40 2-6 4-12 4-18l-1-11c-2-4-5-6-9-6s-7 1-9 4l-2 4-2 4-11 31-2 7-2 10c-3 8-7 15-13 21-5.3 5-11.4 9-18 12-4 1-7-1-8-5l1-8v-9l-1-7c-.6-11-1-22-1-33 1-5 4-9 8-12l7-4c8-4 15-9 21-15 4-4 7-8 8-12l4-13c3.2-12.4 5.2-25.2 6-38l-2-4c-4-6-13-5-17 1l-2 6v8l-1 11c-1 6-3 12-6 17-5 6-10 10-17 12h-6l-3-2-1-3v-18l-1-12c-.9-16.3-.6-32.7 1-49l-2-9c-2-4-6-7-11-7-4 0-8 2-11 5-4 3-6 7-8 11l-2 8-4 16-1 11 1 11 1 10 1 19m-152 91v15c1.1 21.8 5.1 43.3 12 64a382.4 382.4 0 0 0 30 57c25.1 29.6 57 52.6 93 67l1-21 1-13c1-4 0-8-1-12l-2-12v-11l1-22v-14l2-12c1-7 1-14-1-21l-2-18v-11l2-20 1-10-2-3c-4-1-8-3-11-6-7-6-14-13-19-21s-9-16-10-25l-7-39c-1-7-2-14-1-22 0-8 3-16 7-24l5-6 4-3c5-1 10 0 14 4l3 5 4 12-1 22v14c0 5 0 9 3 14l11 16 4 3h1l1-1-1-20c-1-17.4 0-34.8 3-52l-1-16c0-8 1-16 3-23a31.3 31.3 0 0 1 17-23c4-1 7-2 10-1 6 1 10 5 14 10l3 8 4 26v54l1 1 1-1 10-11 11-24 3-9 2-5c4-4 8-6 14-5 4 1 8 4 11 8l2 7c3 12 .8 24.7-6 35l-11 21-2 5c-3 6-7 11-12 15-6 5-14 10-22 12-1 1-2 1-1 2l2 16v22l-2 6v3l2 8h1l2-2c6-5 11-11 16-18l9-16c5-7 7-15 7-23l1-7c1-9 6-15 14-20 3-2 7-2 12-1s8 5 9 10l2 10v18a65 65 0 0 1-13 37l-10 17c-1 5-3 11-6 16a57.8 57.8 0 0 1-29 30l-16 5c-1 0-2 0-2 2l1 8 1 19v1c0 9-1 18-3 26v12l3 15v49l1 1 2-1 16-7 20-13c17-10 32-23 46-37 7-8 14-17 20-27 6.2-13.6 12.2-27.2 18-41 8-20 11-41 12-62 .7-23-.9-46.2-5-69l-7-27c-6-20-13-39-23-57l-19-32-9-14a519.8 519.8 0 0 0-21-21c-11.2-7.5-22.6-14.8-34-22-13-6-27-10-41-15-3-1-5-2-8-1l-9 2-8 3-22 8c-13.4 5-25.8 12.1-37 21l-19 17c-7 8-14 17-19 27l-6 10-16 30-14 35c-4.5 19-8.9 38-13 57l-2 32m340-8-1 26a232 232 0 0 1-20 78l-10 21c-5 12-12 23-21 33l-12 14c-7 8-16 16-25 22-12 7-25 15-38 20-10 5-21 8-31 10h-3l-11 2a152.3 152.3 0 0 1-58-15l-26-15c-13-9-25-19-35-31-7.7-10.4-15-21-22-32l-19-42c-8.5-21-13.6-43.3-15-66l-1-43c1-14 4-29 7-43l5-17c10-38.6 29.6-74 57-103l6-7c8.7-11.3 19.2-21 31-29l13-8a188.8 188.8 0 0 1 53-16h5c14.5 1.3 28.7 5 42 11 10 4 19 9 27 16a514 514 0 0 1 25 24l19 22c21 25 36 53 45 84a409 409 0 0 1 13 62v22"/>
    <path d="m293 549.5-2-2-5-5a96.9 96.9 0 0 1-23-59l-1-18-2-16c-1-8-4-15-8-21l-6-6-5-2h-8c-4 1-7 2-10 5-4 3-7 7-8 11a49.9 49.9 0 0 0 3 42c4 6 7 12 8 19l3 8c6.3 9.5 13.6 18.3 22 26l17 12c3 3 6 4 10 5h5l10 1m-9 3h-8c-9-1-17-4-23-11l-5-7-7-8c-9-8-15-17-20-28l-7-16c-3-6-5-13-5-21a45 45 0 0 1 6-31c4-8 15-14 23-14 4 0 8 1 11 4l5 5c5 6 9 12 12 19 4 7 5 15 4 23l-3 16c-1 7 0 14 2 21 3 9 7 16 11 23 5 8 9 15 16 21 2 2 1 4-1 4l-3 1-8-1m181-51h-7l-13 3c-6 3-10 7-12 13l-2 8-1 5c-1 4-3 8-7 10l-5 3-5 3c-3 2-5 5-6 9-1 7 2 13 6 18l8 2 6-1c10-4 16-11 18-21l1-6 1-13c1-13 7-23 16-31l2-2m-40 77h-5c-5-1-9-4-11-8-6-9-6-20 1-28l7-6c5-4 9-9 11-15l3-6c2-5 5-8 9-10 5-4 11-6 18-6h10l1 3-4 4-8 11c-4 6-6 12-7 19l-3 28c-2 6-6 11-13 13l-9 1m-189-223c3 0 4-2 4-5l-5-10-1-1c-2-1-4-1-6 1v1l-2 4c-1 3 0 5 2 7s5 3 8 3m0 2c-8 0-14-6-14-13 0-2 1-4 3-5l5-3c7-2 14 2 14 11l-1 5c-1 3-4 5-7 5m173-110-3-7c-2-2-7-2-9-1l-2 2c-1 2 0 4 1 6l6 5c2 1 4 1 6-1l1-4m-5-12c5 0 8 3 8 8l-2 9c-2 3-5 4-8 5-3 0-6-1-7-3l-2-3v-10l3-3c2-2 5-3 8-3m-94-2c0-5-4-7-7-6l-2 1-2 5c-1 3 0 6 3 7 2 1 5 1 6-2l2-5m5 1-1 4c-4 5-12 6-16 0l-2-6 2-4c4-5 11-4 14-1 2 2 3 4 3 7m163 208-1-3-1-2h-6c-2 1-3 3-2 5l1 5c1 2 5 3 7 1l2-2v-4m-5-8c4 0 8 3 9 6v6c-4 5-9 6-15 4l-3-4c0-3 3-10 7-11l2-1m-10-92 2 4 3 2h5c1-1 2-3 1-5l-4-5c-2-2-4-2-5 0-2 1-2 2-2 4m-2 1v-3c1-3 6-7 10-7 2 1 4 3 5 6s0 6-1 9l-3 2-5 1c-3 0-5-1-6-4v-4"/>
    <path d="m225 435.5 1-5 4-2c1-1 3 0 3 2v2c0 3-2 6-3 8s-3 2-4 0l-1-5m194 126 1 1c2 1 4 2 4 4 1 2 1 4-1 5-1 1-3 0-4-1-2-1-3-5-2-8l2-1m60-177c0 .4-.3 6.8-.2 13.3-6.8.5-5.7-13.3-5.3-15 .2-1.4-4.4 1.7-6.6 3.8.7 1.3 1.7 1 3 .5-.6 6.2 3.8 11.8 9 11.7.1 6.4.8 12.5 2.6 13 .2.1.5-6.5.6-13.7 12.2-3.8 7.5-18.3 7.5-18.3-.2-.8-2 .3-6 4 1.6 1.6 2.4.6 3.6.2 1 2 1.4 10.5-5 13.1l.2-18c0-.2-.2-.3-.4-.3-1.8.2-5 3.4-7.5 6.1 1.4 2.2 3.1.2 4.5-.4m6 19.1 2.7 2.8 2.8-2.8-2.8-2.8-2.8 2.8Z"/>
  </g>
</symbol></svg>
