<svg xmlns='http://www.w3.org/2000/svg' viewBox='0 0 696 830' fill='none'><symbol id='IXTC_Fill'>
  <g fill="none">
    <path fill="#9D432C" d="M590.4 423.4c0 20-1 39-3 59l-4 35c-3 23-10 44-20 65-15 29-32 55-55 78l-19 18c-23 22-50 35-80 41a706.8 706.8 0 0 1-68 9c-22-2-43-6-64-11-27-7-51-19-71-38l-28-29c-24-26-42-56-55-89-5-14-9-29-11-45-3-30.3-5.2-60.6-7-91 0-21 2-42 4-63 4-27 10-53 20-78l16-40c5-12 11-24 18-34l27-38c18-21 39-37 64-49 16-7 32-13 49-18 11-3 22-3 34-3h21c11-1 23 0 34 3 18 6 36 12 53 20 23 11 43 27 59 46l28 38c7 11 13 22 18 35l21 55c7 20 12 41 15 62l4 62"/>
    <path fill="#FFF" d="m571.4 435.4-4-50c-2-26-8-51-16-75l-16-41-4-12a442.5 442.5 0 0 0-50-79c-14-16-31-28-51-35l-23-7c-17-5-35-9-53-10l-36 3c-17 3-34 8-51 14-12 4-24 10-34 18-8 7-16 14-22 22l-28 38-18 36-15 38c-11 29-18 59-21 89l-4 52c-1 17 0 33 3 49l6 30c8 38 25 73 50 103 14 18 31 34 49 48 15 13 32 22 50 27l26 7 34 5c11 0 22-1 32-3l14-3 29-7c20-7 38-18 53-33l31-29c24-26 41-56 53-89 4-12 6-25 9-37 5-23 8-46 7-69m-452-16a450 450 0 0 1 22-124l16-41c4-11 10-23 17-33l28-37c13-16 30-30 49-40s39-17 60-22c8-2 18-2 27-2h20c11-1 22 0 32 3 17 5 34 11 50 19 21 10 40 25 55 43l27 36c7 10 12 21 17 33l20 54a490 490 0 0 1 17 139l-2 29-4 31c-2 22-9 44-18 64-14 28-31 53-54 75l-17 18c-21 19-45 31-73 37a630.3 630.3 0 0 1-67 9c-21-2-41-5-62-11-24-6-46-18-64-36l-26-26c-25-27-43-58-55-92-5-13-7-26-8-39a1936 1936 0 0 1-7-87"/>
    <path fill="#FFF" d="m368.4 288.4 1-10v-11l-2-10c-2-7-9-10-16-8l-7 5c-3 2-5 5-7 9l-2 8-5 20v5c-1 7 0 14 1 21 1.3 20.7.3 41.5-3 62-1 5-4 6-9 4-4-1-7-3-9-6l-4-8c-2-3-2-6-3-10l-3-11c-3-7-4-14-4-21v-18l-2-12-3-6c-2-2-6-3-9 0l-3 3-3 12v61c1 8 4 16 8 22 8 14 18 27 30 37 7 5 10 12 10 19l1 37-1 15c-2 10-1 19 0 29l2 13-1 35-2 15c-1 3-2 6-1 8l1 8a75.3 75.3 0 0 1 3 32c-1 1 0 2 1 2 6 1 12 4 19 4 6 0 11-1 17-3 7-2 6 0 5-8a628 628 0 0 1 0-80c-2-11-2-21-2-32 0-6 1-11 3-17 1-3 3-5 6-6l9-4c7-3 13-7 18-12 9-9 17-18 23-28 3-6 6-13 7-19 3.2-15.4 7.9-30.5 14-45 2-7 3-13 1-20-1-5-4-8-9-9-5 0-8 2-11 7l-2 5-10 27-4 16c-2 9-5 17-12 24-6 6-13.1 10.8-21 14-4 1-7-1-7-5l1-8v-7l-3-27 1-15c1-4 3-8 7-11l6-3 20-14c6-5 10-11 13-19l6-33 2-12c0-3-1-6-4-8-5-4-13-3-16 5l-1 4-1 9-1 14c-2 8-5 14-12 19-4 4-8 6-14 6-4 1-6-1-6-5l-1-9v-46m9 347 4-1 15-7 26-16c17-11 31-24 45-39 6-7 11-14 16-23l14-30c8-16 12-34 14-52 2.9-29.3 1.9-59-3-88l-5-21c-7-27-18-52-32-76l-8-15a146 146 0 0 0-35-42c-12.6-7.8-25.3-15.4-38-23-11-5-23-8-34-12-6-3-12-3-18 0l-13 4a173.4 173.4 0 0 0-90 66l-19 32c-9 17-17 34-22 53l-8 31c-3 11-4 21-5 31-1 18-1 37 1 55 1 14 4 29 9 43s12 28 19 43c5 10 11 19 19 27 21 23 47 41 75 55l8 4 3 1 1-2c0-12 0-24 2-35l-1-9c-2-6-2-12-2-18 0-18 0-37 3-55 1-7 0-13-1-20l-1-8c-2-13-1-26 0-40l1-11c0-2 0-3-2-3-3-1-7-3-9-6-10-8-18-17-24-28l-5-11-3-16c-3-12-5-25-6-37-1-9-1-17 1-26 2-6 4-12 8-17 6-9 17-6 22 0 1 2 3 5 3 8 2 4 2 9 2 13l-1 26 1 12c3 10 9 18 16 25l3 1v-2l-1-24c0-12 0-24 2-35 1-9 2-18 1-27-1-6 0-12 1-18l6-18c3-5 7-9 12-11 7-3 13-3 19 2l6 7 2 7 3 16c2 13 2 26 1 39v25l1 2 2-2c6-5 10-11 13-17l9-22 4-9c3-5 8-6 13-5s9 3 11 7l4 12c1 10-1 20-6 29l-13 24c-6 15-18 24-33 30l-4 1 3 30-1 8c-1 6-2 12 0 17l1 2 4-3c5-5 10-10 14-17l10-17c4-7 6-14 7-22l1-7c1-9 5-15 13-20 3-2 6-3 10-2 5 0 9 3 11 9l2 11v25c-2 11-5 21-12 30-4 6-8 12-10 19l-6 14c-2 6-6 11-10 16-9 11-21 16-35 19-2 1-2 1-2 3l1 14v8c1 10 0 21-2 31v15l2 5 1 25-1 31v2m144-216c-.1 35.2-6.5 70-19 103l-14 30a577.6 577.6 0 0 1-48 59c-17 12-35 22-54 29-10 4-21 7-31 8h-21c-18-4-35-10-51-19a283 283 0 0 1-43-30 224.6 224.6 0 0 1-32-43c-8-14-15-29-21-45a297.3 297.3 0 0 1-11-137l11-42c10-28 23-53 42-76l24-29c10-10 21-19 32-27 9-5 20-9 30-12 9-4 20-6 30-7l10 1c19 3 37.3 9.5 54 19 13 9 25 19 35 31l21 25c22 28 38 60 46 95l7 31c3 14 3 28 3 36"/>
    <path fill="#9D432C" d="M463.4 344.4v3l3 4c3 2 9 0 11-3 1-3 2-6 1-9-1-4-5-6-9-5-4 2-6 5-6 10m12 108 6-3c5-3 5-8 0-12l-4-2c-2-1-5 0-7 2l-4 7c0 3 1 6 4 7l5 1m-158-219c0-2-2-5-4-6-3-3-7-3-11-1s-5 5-3 10l1 3c2 3 7 4 11 3 3-2 6-5 6-9m79 19c1 3 4 5 7 5s6-2 8-4c2-4 3-7 2-11 0-4-3-6-6-7l-7 2c-3 1-5 3-5 6v9h1Zm-159 105c4 0 6-1 7-5l1-8c-1-5-6-9-12-8l-6 3c-2 1-3 3-3 5 0 7 6 13 13 13m222 143c-12 1-22 5-26 17-4 8-9 16-16 21l-5 6c-7 8-7 19-2 27 3 4 7 7 11 8 6 1 12 0 18-2 4-2 7-6 9-11l2-6 1-16c1-12 4-22 11-31l6-8 2-2c1-2 1-3-1-3h-10Zm-190-56c-3-7-8-12-13-18l-4-4c-5-5-11-6-18-4-9 2-16 7-20 16-3 6-4 11-4 17-1 12 1 23 6 34l10 21 10 14 18 20c6 9 15 12 25 13h17c3 0 3-2 1-4l-5-6c-7-9-13-19-18-29-5-12-7-24-5-37 1-5 5-20 0-33Zm108 192v-3l1-31c0-10.1-1-20.1-3-30v-15c2-10 3-21 2-31v-8l-1-14c0-2 0-2 2-3a60 60 0 0 0 45-35l6-14c2-7 6-13 10-19 7-9 10-19 12-30v-25l-2-11c-2-6-6-9-11-9-4-1-7 0-10 2-8 5-12 11-13 20l-1 7c0 8-3 15-6 22-8 11.6-16.2 23-25 34l-4 3-1-2v-17l1-8-3-30 4-1c15-6 27-15 33-30l13-24c5-9 7-19 6-29l-4-12c-2-4-6-6-11-7s-10 0-13 5l-4 9c-3 7-5 15-9 22-3 6-7 12-13 17l-2 2v-2l-1-6v-19c1-13 1-26-1-39l-3-15-2-7-6-8c-6-4-12-5-19-2-5 2-9 6-12 11l-6 18-1 18c1 9 0 18-1 27l-2 35 1 24v2l-3-1c-7-7-13-15-16-25l-1-12 1-26-1-13-4-8c-5-6-16-9-22 0-4 5-6 11-8 17-2 9-2 17-1 26 1 12 3 25 6 37l4 16 4 11c6 11 14 20 24 28l9 6c2 0 3 1 2 3l-1 11c-1.6 16-1.3 32 1 48 1 7 2 13 1 20-3 18-3 37-3 55 0 6 0 12 2 18l1 9c-2 12-2 23-2 35l-1 2-3-1-8-4c-28-14-54-31-75-55-8-8-14-17-19-27-7-15-14-29-19-43s-8-29-9-43a326.3 326.3 0 0 1 4-86l8-31c6-19 13-36 22-53l19-32a118.7 118.7 0 0 1 39-41c16-11 33-19 51-25l13-4c6-3 12-3 18 0l35 12 20 11 29 23c9 9 17 19 23 31l8 15c14 24 25 49 32 76l5 21c4.9 29 5.9 58.7 3 88-2 18-6 36-14 52l-14 30c-5 9-10 16-16 23a217.8 217.8 0 0 1-71 55l-15 7-4 1"/>
    <path fill="#9D432C" d="M368.4 288.4v46l1 9c0 5 2 6 6 5 6 0 10-2 15-6 6-5 9-11 11-19l1-14 1-9 1-4c3-8 11-9 16-5 3 2 4 5 4 9l-1 11-7 33c-3 8-7 14-13 19a113.9 113.9 0 0 1-26 18c-4 2-6 6-7 10l-1 15 3 27v7l-1 8c0 4 3 6 7 5l2-1a49.7 49.7 0 0 0 31-37l4-16 10-27 2-5c3-5 6-7 11-7 5 1 8 4 10 10 1 6 0 12-2 19l-3 8-11 37c-1 7-4 13-7 19-6 10-14 20-23 28-5 5-11 9-18 12l-9 4c-3 1-5 4-6 6-2 6-3 11-3 17 0 11 0 21 2 32 2 7 1 13 0 20l-1 11 1 49c1 8 2 6-5 8-6 2-11 3-17 3-7 0-13-3-19-4l-1-2v-10c0-7-1-15-3-22l-1-8c-1-2 0-5 1-8l2-15 1-35-2-13c-1-10-2-19 0-29l1-15-1-37c0-7-3-14-10-19-12-10-22-23-30-37-4-6-7-14-8-22v-25c1-12 1-24 0-36a23 23 0 0 1 6-15c3-3 7-2 9 0s3 4 3 7l2 11v18c0 7 1 14 4 21l3 12 3 9 4 8c2 3 5 5 9 6 5 2 8 1 9-4l2-11c2-17 2-34 1-51-1-7-2-14-1-21v-5l5-20 2-8c2-4 4-7 7-9l7-5c7-2 14 1 16 8l2 10v11l-1 10"/>
    <path fill="#FFF" d="m294.4 550.4-1-2c-7-7-13-15-18-24-5-11-9-22-10-35l-4-43c-2-8-6-16-11-21-3-3-7-5-11-5-10 1-18 5-22 15-6 15-7 30 3 44 4 6 6 12 7 19l3 7c6.2 9.9 13.6 18.9 22 27l17 12 8 4c6 2 11 2 17 2m-25-73c-2 13 0 25 5 37 5 10 11 20 18 29l5 6c2 2 2 4-1 4h-17c-10-1-19-4-25-13l-18-20-10-14-10-21c-4-11-7-22-6-34 0-6 1-11 4-17 4-9 11-14 20-16 7-2 13-1 18 4l4 4c5 6 9 12 12 19 2 5 2 27 1 32Zm198 25c-7 0-14 0-20 3s-10 7-12 13l-2 9c-1 7-5 13-12 16l-6 4c-3 2-5 5-6 9-1 6 1 10 4 15s8 7 14 5c10-4 18-11 20-22l1-16c1-13 7-24 16-33l3-3m2-2c2 0 2 1 1 3l-2 2-6 8c-7 9-10 19-11 31a204 204 0 0 1-3 22c-2 5-5 9-9 11-6 2-12 3-18 2-4-1-8-4-11-8-5-8-5-19 1-27l6-6c7-5 12-13 16-21 4-12 14-16 26-17h10Zm-233-145c4 1 6-1 5-5l-4-9c-1-2-2-3-4-3l-4 4-1 3c-2 3-1 5 1 7s5 3 7 3m1 2c-7 0-13-6-13-13 0-2 1-4 3-5l6-3c6-1 11 3 12 8l-1 8c-1 4-3 5-7 5m165-119c-4 0-7 3-5 7l1 3 5 4c4 3 7 0 8-3 1-5-4-11-9-11m-7 5c0-3 2-5 5-6l7-2c3 1 6 3 6 7 1 4 0 7-2 11-2 2-5 4-8 4s-6-2-7-5l-1-9Zm-95-8c0 3 2 5 4 6 2 0 5 0 6-2 2-3 2-6 1-9-1-2-2-3-4-3-3-1-4 0-5 2l-1 4-1 2m17-2c0 4-3 7-6 9-4 1-9 0-11-3l-1-3c-2-5-1-8 3-10s8-2 11 1c2 1 4 4 4 6m163 210v-2c-1-3-2-4-4-4h-2c-3 1-5 3-4 6l1 4c1 2 2 3 5 3 2 0 3-2 4-4v-3m-5 9-5-1c-3-1-4-4-4-7l4-7c2-2 5-3 7-2l4 2c5 4 5 9 0 12l-6 3m-6-115-4 3c-1 1-1 4 1 5l5 4c2 1 4-1 5-3 1-3-4-9-7-9m-6 7c0-5 2-8 6-10 4-1 8 1 9 5 1 3 0 6-1 9-2 3-8 5-11 3l-3-4v-3"/>
    <path fill="#9D432C" d="m227.4 440.4 2 2 2-1 4-8v-2c-1-2-2-4-4-3l-3 3c-2 3-1 8-1 9Zm67 110c-6 0-11 0-17-2l-8-4c-6-5.2-12.3-10-19-14-7-7-14-16-20-25l-3-7c-1-7-3-13-7-19-10-14-9-29-3-44 4-10 12-14 22-15 4 0 8 2 11 5 5 5 9 13 11 20l2 19 2 25c1 13 5 24 10 35 5 9 11 17 18 24l1 2m125 16c0 2 0 4 2 5l4 1c1-1 2-3 1-4l-3-5c-2-2-4-1-4 2v1m48-64-3 3c-9 9-15 20-16 33l-1 16c-2 11-10 18-20 22-6 2-11 0-14-5s-5-9-4-15c1-4 3-7 6-9l6-4c7-3 11-9 12-16l2-9c2-6 6-10 12-13s12-3 20-3m-231-147c-2 0-5-1-7-3s-3-4-1-7l1-3 4-4c2 0 3 1 4 3l4 9c1 4-1 6-5 5m166-117c5 0 10 6 9 11-1 3-4 6-8 3l-5-4-1-3c-2-4 1-7 5-7m-98 3c2 0 5 0 6-2 2-3 2-6 1-9-1-2-2-3-4-3-3-1-4 0-5 2l-1 5c0 2 1 6 3 7Zm176 202v3c-1 2-2 4-4 4-3 0-4-1-5-3l-1-4c-1-3 1-5 4-6h2c2 0 3 1 4 4v2m-11-106c3 0 8 6 7 9-1 2-3 4-5 3l-5-4c-2-1-2-4-1-5l4-3"/>
    <path fill="#FFF" d="m227.4 440.4 2 2 2-1 4-8v-2c-1-2-2-4-4-3l-3 3-1 9Zm192 126v-1c0-3 2-4 4-2l3 5c1 1 0 3-1 4l-4-1c-2-1-2-3-2-5m61.2-181.5c0 .4-.3 6.8-.2 13.3-6.8.5-5.7-13.3-5.3-15 .2-1.4-4.4 1.7-6.6 3.8.7 1.3 1.7 1 2.9.5-.5 6.2 3.9 11.8 9 11.7.2 6.4.9 12.5 2.7 13 .2 0 .5-6.5.6-13.7 12.2-3.8 7.5-18.3 7.5-18.3-.2-.8-2 .3-6 3.9 1.6 1.7 2.4.7 3.6.3 1 1.9 1.4 10.5-5.1 13l.3-18-.4-.2c-1.8.2-5 3.4-7.5 6 1.4 2.3 3.2.3 4.5-.3m5.9 19 2.8 2.9 2.8-2.8-2.8-2.8-2.8 2.8Z"/>
  </g>
</symbol></svg>
