<svg xmlns='http://www.w3.org/2000/svg' viewBox='0 0 696 830' fill='none'><symbol id='KABC_Fill'>
  <g fill="none">
    <path fill="#D7CDC1" d="M105.8 425.4c1-30 3-57 8-84 3-18 8-35 14-51l18-47c5-11 10-22 17-32l30-41a171 171 0 0 1 84-56l23-8c13-4 26-5 40-4h17c14-1 27 0 40 5 17 5 33 10 48 17 23 12 43 27 60 47l28 38c7 11 13 23 18 35l21 53a523.2 523.2 0 0 1 17 180l-5 39c-3 21-8 41-18 60-14 31-33 59-57 84l-20 19c-22 21-49 34-79 40a697.4 697.4 0 0 1-69 8c-21-1-43-5-63-10-27-7-51-20-71-39l-26-26c-24-27-43-57-57-91-6-15-9-31-11-47-2.9-29.6-5.2-59.3-7-89"/>
    <path fill="#FFF" d="m571.8 439.4-4-58c-3-25-8-49-17-72l-22-58-11-22c-10-17-22-34-35-49-14-17-31-30-52-37l-26-8a213.8 213.8 0 0 0-67-8l-19 2c-18 3-34 8-51 14-13 4-25 10-35 19-8 6-15 13-21 21l-28 38c-7 12-13 23-18 36l-17 44a299.2 299.2 0 0 0-21 101 561 561 0 0 0 1 84l7 34c10 40 29 76 56 106 11 13 23 24 36 35 16 14 34 25 54 32l28 7 34 5 33-3 13-3 29-7c21-8 39-20 56-35l26-25c8-9 16-18 22-28 14-20 26-41 33-65l10-37c4-21 7-42 6-63m-452-13 3-52c4-30 11-60 23-89l12-31c5-11 10-22 17-32l28-39c15-16 32-30 51-40 12-6 25-11 39-15 8-3 15-6 24-7l21-1h21c11 0 22 0 32 3 17 5 34 11 50 19 21 10 40 25 55 43a496.6 496.6 0 0 1 44 68l20 53a483.7 483.7 0 0 1 17 149l-3 25-3 24c-2 24-8 46-19 67-14 28-31 53-53 75l-17 17c-20 19-44 31-70 38l-29 5-18 3c-12 1-25 1-37-1l-34-6c-31-6-57-19-79-40l-22-22c-25-26-43-56-56-90-5-13-8-27-10-41l-5-47-2-36"/>
    <path fill="#FFF" d="M513.8 431.4v-13c0-13-1-25-4-38l-7-23c-6-26-16-50-30-73l-9-16a150 150 0 0 0-35-43c-12.2-7.5-24.6-14.8-37-22-11-6-23-9-35-14-6-2-12-2-18 0l-14 5c-30 11-36 15-61 34-2 0-3 2-4 3-9 9-18 18-24 29l-19 33c-9 16-16 33-21 51l-9 31c-5.4 29.7-6.8 60-4 90 2 14 4 28 9 41a366.5 366.5 0 0 0 34 64 255.4 255.4 0 0 0 61 50c15 10 32 17 50 21 7 2 14 2 21 0a159.2 159.2 0 0 0 63-28c17-11 32-25 46-40 7-7 12-15 17-24l14-29c6-14 10-28 13-42l3-47m-340-6c-.3-21.2 2-42.4 7-63 3-12 5-24 10-35 10-29 25-55 46-79l15-17c10-12 22-22 35-30 8-6 18-9 27-13 10-4 21-6 32-7l10 1c14.5 3.7 28.9 8 43 13a172.1 172.1 0 0 1 50 41l18 23a235.8 235.8 0 0 1 50 114 286.8 286.8 0 0 1-15 149l-13 29a210.4 210.4 0 0 1-49 60c-16 12-34 22-52 29-11 4-21 7-32 8-7 1-14 1-21-1-17-3-33-8-49-17l-24-14c-9-6-18-13-25-22-9.8-12.3-19.2-25-28-38-7-14-14-28-19-42a276 276 0 0 1-16-89"/>
    <path fill="#D7CDC1" d="M230.8 404.4c0-2-1-5-3-7-2-3-5-5-8-4-4 1-7 3-8 7-2 6 3 13 9 14 5 0 10-4 10-10m160 183c-4 0-6 1-7 4v6c0 7 5 10 11 10 5 0 8-5 7-10-1-3-3-6-6-8-1-2-3-2-5-2m27-312c3 0 6 0 9-2 2-1 4-3 4-5 0-4-1-7-3-10-1-2-3-3-5-3-7-2-14 3-16 10-1 4 1 8 6 9l5 1m39 115 1 7c1 7 4 12 10 15 5 2 10 4 16 3 5 0 10-3 12-8l1-7-1-14c-1-5-3-9-6-13l-7-11-10-12c-8-8-18-10-30-9l-3 1c-2 1-2 2-1 3l7 7a28 28 0 0 1 11 27v11m-218-92v8c1 7 4 13 7 18l9 11 2 1c2 0 1-2 1-3l1-17c0-5 2-10 5-14 3-5 7-10 13-13l7-5c4-4 7-8 9-14v-9c-2-9-10-16-19-17-5-1-9 1-12 5l-5 8c-1 4-3 8-6 11l-3 4c-7 7-10 15-9 26m0 253 1 4h3l4-7 4-9 4-9a79.7 79.7 0 0 0 10-20c0-1 1-2 2-1l4 4c2 3 6 5 10 6h5c4-1 7 0 10 3l10 8c1 1 2 2 3 1 2-1 1-2 1-4v-1c-2-6-5-11-9-15l-1-1c-4-1-6-4-9-7-3-4-7-6-12-7-5-2-5-2-1-6l3-3 6-4c2-2 4-5 5-9l2-8 2-9 4-7-2-2-2 1c-5 1-10 4-14 9l-9 7-8 8-2 3h-1l-2-2c-5-9-12-15-21-18l-7-3-7-2c-2-1-5-1-6 1s0 5 2 6l4 4c6 4 10 9 12 16l4 9-1 2c-8 0-15 3-20 8l-9 4-4 2-6 3c-1 2-1 3 1 4 4 2 8 2 11 2 5-1 9-2 13-1 5 2 10 1 14-1l4-2 3-1-1 2-3 6-4 11v25m150-262c0-6-2-12-5-18l-4-6-1-6c0-4-1-7-3-10l-2-6-1-5c-1-6-3-11-7-15-2-3-4-5-5-9l-2-4c-2-3-5-3-8-1l-2 3-4 8-2 4c-1 4-3 7-6 10l-3 6-5 7c-5 6-8 12-10 19l-7 14-4 4c-3 3-4 8-6 12-1 5-2 11-1 16 0 4-1 8-4 12l-5 9c-1 4-2 7-5 9l-3 5c-5 9-9 18-10 27a54 54 0 0 0 8 41c4 7 9 15 15 21l8 10c4 4 7 9 9 13 4 9 8 18 9 28a208 208 0 0 1 1 60c-3 8-4 16-3 24l1 6c0 4 0 8-2 12l-2 6-3 9c0 5 1 9 4 13 1 2 3 3 5 3 5 1 9 0 11-4l2-2 5-5c2-2 5-2 7-2 4 0 7-2 9-5l3-5c1-4 3-8 6-11 3-6 7-10 13-13 7-5 15-8 22-12 5-3 10-5 13-10 5-5 8-11 11-18l7-15 9-24c2-5 3-10 3-16l1-16c1-9 2-17 1-25 0-16-5-32-12-46-3-5-6-9-11-13l-11-13-3-6c-3-5-4-11-5-16l-1-8c-1-7-3-14-7-20l-7-12c-2-2-2-4-2-6l1-8m125 142c0 16-1 31-3 47-3 14-7 29-13 42l-14 29c-5 9-10 17-17 24-14 15-29 29-46 40l-12 7c-16 10-33 17-51 21-7 2-14 2-21 0-18-4-35-11-50-21a269.1 269.1 0 0 1-61-50l-11-15c-9-16-17-32-23-49-5-13-7-27-9-41-2.8-30-1.4-60.3 4-90l9-31c5-18 12-35 21-51l19-33c7.7-12 17.1-22.8 28-32 25-19 31-23 61-34l14-5c6-2 12-2 18 0 12 5 24 8 35 14l19 10c10.4 7.9 20.7 15.9 31 24 9 9 16 20 22 31l9 16c14 23 24 47 30 73l7 23c3 13 4 25 4 38v13"/>
    <path fill="#FFF" d="M353.8 217.4c2 0 2 0 2-2l-1-3-1-1-1 1v3c-1 2 0 2 1 2m10 19v-2l-4-10c-2-3-3-5-7-4l-4 3-3 6c-1 3-2 6-6 9l-2 4c0 1 1 2 2 1l12-2h9c2 0 2 0 3-2v-3m-40 38 1-1c4-3 8-4 12-4h5c10 1 19-1 28-4 2 0 2-1 2-3v-5c0-3-1-5-4-7l-8-3-10-1c-5-1-10 1-14 5l-5 6-4 4c-1 4-3 8-3 13m116 176v-19c-2-9-4-18-8-27l-3-8-7-11c-8-7-14-14-19-22v-1h-2c-2 9-7 16-11 23l-9 16c-2 2-2 4-1 6l3 5 4 4 10 11c2 4 5 6 8 9l6 6 9 11 5 13-1 13-1 11c-3 15-7 29-13 43-4 9-10 15-18 19l-10 6-4 3-1 1 1 1c8-4 16-6 24-11l6-5 8-13 9-19 4-10c6-11 9-24 10-36l1-19m-23 36v-4c-2-7-2-15-3-23-1-9-6-16-13-22l-14-9c-5-3-10-7-12-14h-2l-9 22c-3 5-4 11-4 17l-1 9v28l1 15-1 13c-1 10-3 19-3 29v3l-1 13-1 11-10 23-2 6 6-3 6-6 4-11c1-4 3-8 7-11l3-6c2-5 5-9 10-11l4-3c6-3 11-7 14-13l13-19c3-5 5-10 6-16l1-11 1-7m-35-195v-9c-1-5-2-9-5-12-2-1-2-2-3 0-4 2-9 4-13 4l-4 1c-7 2-13 3-19 1h-15l-3 7-8 14c-3 4-4 8-3 13l-1 7c0 3-1 6-3 8-4 2-6 6-6 11l-5 10-6 9c-5 9-7 18-8 27 0 6 0 11 2 16 5 11 11 22 19 31l11 14c13 16 19 35 20 56v26c0 9-1 18-4 27-1 3-2 7-1 10v9c1 9 0 18-3 27l-2 6-1 6c0 3 3 5 6 5s4-2 5-4c2.8-5.6 5.5-11.3 8-17l5-26 3-18 2-27c2-12 3-24 0-36-2-9-2-19 0-29l5-22c4-12 9-23 16-34l10-15 13-24c4-6 5-13 5-20l-2-11c-1-5-3-10-6-14l-6-10h-2l-6 4-6 7c-5 4-10 7-16 9-8 2-16 2-24 1l-10-1h-15l1-1c1-2 3-2 6-2l14-1c6 1 13-1 19-2 6-2 11-4 15-8l4-3c5-4 10-8 16-10l1-2v-8m7-2-1 8 1 6 8 12c4 6 6 13 7 20l1 8c1 5 2 11 5 16l3 6 11 13c5 4 8 8 11 13 7 14 12 30 12 46 1 8 0 16-1 25l-1 16c0 6-1 11-3 16-2 8-5 16-9 23l-7 16c-3 7-6 13-11 18-3 5-8 7-13 10-7 4-15 7-22 12-6 3-10 7-13 13-3 3-5 7-6 11l-3 5c-2 3-5 5-9 5-2 0-5 0-7 2l-5 5-2 2c-2 4-6 5-11 4-2 0-4-1-5-3-3-4-4-8-4-13l3-9 2-6c2-4 2-8 2-12l-1-6c-1-8 0-16 3-24l2-11c1-17 0-33-3-49-1-10-5-19-9-28-2-4-5-9-9-13l-8-10c-6-6-11-14-15-21-4-6-7-13-8-20-2-7-2-14 0-21 1-9 5-18 10-27l3-5c3-2 4-5 5-9l5-10c3-3 4-7 4-11-1-5 0-11 1-16 2-4 3-9 6-12l4-4 7-14c2-7 5-13 10-19l5-7 3-6c3-3 5-6 6-10l2-4 4-8 2-3c3-2 6-2 8 1l2 4c1 4 3 6 5 9 4 4 6 9 7 15l1 5 2 6c2 3 3 6 3 10l1 6 4 6c3 6 5 12 5 18"/>
    <path fill="#FFF" d="M244.8 505.4h4c2 0 2 1 1 3l-4 8c-3 5-5 11-4 17v11l-1 7v1h2c2-2 3-5 3-8 2-7 4-14 9-20 4-5 7-9 8-14v-1c2-3 3-3 6-1l5 4 9 3 13 4 10 8h1l1-1-7-11-2-2c-4-1-6-4-8-7-4-4-9-7-14-8s-6-2-3-7c1-3 3-5 6-7 6-4 9-9 10-15l4-13 1-4c1 0 1 0 0 0v-1c-5 3-9 5-11 10-2 3-5 6-9 8-3 1-6 4-9 7l-2 3c-2 2-3 2-4 0l-3-7c-4-6-10-10-17-11l-9-4-6-3c-1-1-3-2-4-1-1 2 1 3 2 4l6 4c3 1 5 3 6 6l3 7c2 4 3 8 6 11l2 2c1 2 0 4-2 4l-4 1c-5 0-10 2-14 5l-5 4-6 2-8 2-3 2-1 1 1 1h9c5-2 9-2 14-1 3 0 6 0 9-2l9-1m-6 46 1-8-1-6v-11l4-11 3-5 1-2h-3l-4 2c-4 2-9 3-14 1-4-1-8 0-13 1-3 0-7 0-11-2-2-1-2-2-1-4l6-3 4-2 9-4c5-5 12-8 20-8l1-2-4-9c-2-7-6-12-12-16l-4-4c-2-1-3-4-2-6s4-2 6-1l7 2 7 3c9 3 16 9 21 18l2 2h1l2-3 8-8 9-7c4-5 9-8 14-9l2-1 2 2-4 7-2 9-2 8c-1 4-3 7-6 9l-5 4-3 3c-4 4-4 4 1 6 5 1 9 3 12 7 3 3 5 6 9 7l1 1c4 4 7 9 9 15v1c0 2 1 3-1 4-1 1-2 0-3-1l-10-8c-3-3-6-4-10-3h-5c-4-1-8-3-10-6l-4-4c-1-1-2 0-2 1-2 7-6 14-10 20l-4 9-4 9-4 7h-3l-1-4m49-286v-3c-2-8-7-12-14-14-6-2-11 0-14 6l-1 5-5 11-5 8c-3 5-5 9-6 14v11c0 11 4 20 11 28h1l1-1v-12c0-8 3-15 8-22l9-9 7-6c3-4 6-7 7-12l1-4m-49 33c-1-11 2-19 9-26l3-4c3-3 5-7 6-11l5-8c3-4 7-6 12-5 9 1 17 8 19 17v9c-2 6-5 10-9 14l-7 5c-6 3-10 8-13 13-3 4-5 9-5 14l-1 17c0 1 1 3-1 3l-2-1-8-11c-4-5-6-11-8-18v-8m255 97-1-7c0-5-2-10-6-13-4-2-6-5-8-9l-3-6c-7-13-16-17-31-17l-3 1 2 2 4 3c4 4 8 9 9 15 3 9 5 18 4 27l1 7c1 5 4 9 8 11l13 2c6-1 9-4 10-9l1-7m-37-5v-11a28 28 0 0 0-11-27l-7-7c-1-1-1-2 1-3l3-1c11-1 22 1 30 9l10 12 7 11c3 4 5 8 6 13l1 14-1 7c-2 5-7 8-13 8-5 1-10-1-15-3-6-3-9-8-10-15l-1-7m-38-134-5 1c-2 1-4 3-4 6 0 4 4 9 8 10 3 1 7 0 8-4l2-2c1-3 0-5-1-7-2-3-4-4-8-4m-1 19-5-1c-5-1-7-5-6-9 2-7 9-12 16-10 2 0 4 1 5 3 2 3 3 6 3 10 0 2-2 4-4 5-3 2-6 2-9 2m-19 322-1-3c0-3-3-5-6-4l-4 2-3 3c-1 3 2 8 5 9s8-2 8-6l1-1m-8-10c2 0 4 0 5 2 3 2 5 5 6 8 1 5-2 10-7 10-6 0-11-3-11-10v-6c1-3 3-4 7-4m-170-176 3-1 3-9c0-3-1-5-3-6-3-1-7 0-10 3-2 3-2 6 0 9l4 3 3 1m10-7c0 6-5 10-10 10-6-1-11-8-9-14 1-4 4-6 8-7 3-1 6 1 8 4 2 2 3 5 3 7"/>
    <path fill="#D7CDC1" d="M381.8 291.4v8l-1 2c-6 2-11 6-16 10l-4 3c-4 4-9 6-15 8l-19 2-14 1c-3 0-5 0-6 2l-1 1h15l10 1c8 1 16 1 24-1 6-2 11-5 16-9l6-7 6-4h2l6 10c3 4 5 9 6 14l2 11c0 7-1 14-5 20l-13 24-10 15c-7 11-12 22-16 34l-5 22c-2 10-2 20 0 29 3 12 2 24 0 36l-2 27-3 18-5 26-1 4-7 13c-1 2-2 4-5 4s-6-2-6-5l1-6 2-6c3-9 4-18 3-27v-9c-1-3 0-7 1-10 3-9 4-18 4-27v-26c-1-21-7-40-20-56l-11-14c-8-9-14-20-19-31-2-5-2-10-2-16 1-9 3-18 8-27l6-9 5-10c0-5 2-9 6-11 2-2 3-5 3-8l1-7c-1-5 1-9 3-13l8-14 3-7 7-1 8 1c6 1 12 1 19-1l4-1c4 0 9-2 13-4 1-2 1-2 3 0 3 3 5 7 5 12v9"/>
    <path fill="#D7CDC1" d="m416.8 486.4-1 7-1 11c-1 6-3 11-6 15l-13 20c-3 6-8 10-14 13l-4 3c-5 2-8 6-10 11l-3 6c-4 3-6 7-7 11l-4 11-6 6-6 3 2-6 10-23 1-12 1-12v-3c0-10 2-19 3-29l1-13-1-15a208 208 0 0 1 1-37c0-6 1-12 4-17l9-22h2c2 6 7 11 12 14l14 9c8 6 12 13 13 22l3 23v4"/>
    <path fill="#D7CDC1" d="m439.8 450.4-1 18c-1 13-4 26-9 37l-5 10-9 19-8 13-6 5-24 11-1-1 1-1 4-3 10-6c8-4 14-10 18-19 6-14 11-28 13-43l1-11 1-13-5-13-9-11-6-6c-3-3-6-5-8-9l-10-12-4-3-3-5c-1-2-1-4 1-6l9-16c4-7 9-15 11-23h2v1c5 8 11 15 19 22l7 11 3 8a88.7 88.7 0 0 1 8 46m-116-176c0-5 2-9 3-13l4-4 5-6c4-4 9-6 14-5l10 1 8 3c3 2 4 4 4 7v5c0 2 0 2-2 3a80.3 80.3 0 0 1-33 4c-4 0-8 1-12 4l-1 1m40-38v3c-1 2-1 2-3 2h-9l-12 2c-1 1-2 0-2-1 0-2 1-3 3-4 3-3 4-6 5-9l3-6 4-3c4-1 5 1 7 3l4 11v2m-10-19c-1 0-2 0-1-2v-3l1-1 1 1 1 3c0 2 0 2-2 2m-109 288-9 1c-3 2-6 2-9 1l-14 1-9 1-1-1 1-1 3-2 8-2 6-2 5-4c4-3 9-5 14-5l4-1c2 0 3-2 2-4l-2-2c-3-3-4-7-6-11l-3-7c-1-3-3-5-6-6l-6-4c-1-1-3-2-2-4h4l6 4 9 4c7 1 13 5 17 11l3 7c1 2 2 2 4 0l2-3c3-3 6-6 9-7 4-2 7-5 9-8 2-5 6-7 11-10v1c1 0 1 0 0 0l-1 4-4 13c-1 6-4 11-10 15-3 2-5 4-6 7-3 5-2 6 3 7s10 4 14 8c2 3 4 6 8 7l2 2 7 11-1 1h-1l-10-8-13-4-9-3-5-4c-3-2-4-2-6 1v1c-1 5-4 9-8 14-5 6-7 13-9 20 0 3-1 6-3 8h-2v-1l1-7v-11c-1-6 1-12 4-17l4-8c1-2 1-3-1-3h-4m24-246v1l1 2 1-1 2-5-1-2-2 1-1 4m19 6-1 4c-1 5-4 8-7 12l-7 6-9 9c-5 7-8 14-8 22v12l-1 1h-1c-7-8-11-17-11-28v-11c1-5 3-9 6-14l5-8 5-11 1-5c3-6 8-8 14-6 7 2 12 6 14 14v3m196 139v-2l-3-2-1 3v2l2 2 2-2v-1m10-9-1 7c-1 5-4 8-10 9l-13-2c-4-2-7-6-8-11l-1-7c1-9-1-18-4-27-1-6-5-11-9-15l-4-3-2-2 3-1c15 0 24 4 31 17l3 6c2 4 4 7 8 9 4 3 6 8 6 13l1 7m-75-139c4 0 6 1 8 4 2 2 2 4 1 7l-2 2c-1 4-5 5-8 4-4-1-8-6-8-10 0-3 2-5 4-6l5-1m-20 341-1 1c0 4-5 7-8 6s-6-6-5-9l3-3 4-2c3-1 6 1 6 4l1 3m-178-186-3-1-4-3c-2-3-2-6 0-9 3-3 7-4 10-3 2 1 3 3 3 5 0 4-1 7-3 10l-3 1"/>
    <path fill="#FFF" d="m268.8 259.4 1-4 2-1 1 2-2 5-1 1-1-2v-1m215 145v1l-2 2-2-2v-2l1-3 3 2v2m-12 79.3c0 .4-.3 6.8-.2 13.3-6.8.5-5.7-13.3-5.3-15 .2-1.4-4.4 1.7-6.6 3.8.7 1.3 1.7 1 2.9.5-.5 6.2 3.9 11.8 9 11.7.2 6.4.9 12.5 2.7 13 .2 0 .5-6.5.6-13.7 12.2-3.8 7.5-18.3 7.5-18.3-.2-.8-2 .3-6 3.9 1.6 1.7 2.4.7 3.6.3 1 1.9 1.4 10.5-5.1 13l.3-18-.4-.2c-1.8.2-5 3.4-7.5 6 1.4 2.3 3.1.3 4.5-.3m5.9 19 2.8 2.9 2.8-2.8-2.8-2.8-2.8 2.8Z"/>
  </g>
</symbol></svg>
