<svg xmlns='http://www.w3.org/2000/svg' viewBox='0 0 696 830' fill='none'><symbol id='KABC_Outline'>
  <g fill="#D7CDC1">
    <path d="m569 435.2-1-7-4-50c-2-24-7-46-15-68l-23-59c-3-9-8-17-13-25-10-16-20-31-32-45-14-18-32-31-54-38-13-5-25-8-38-11-23.5-5.5-48-6.6-72-3-17 3-35 8-52 14-12 4-23 10-33 18-8 7-16 14-22 22a535.5 535.5 0 0 0-45 72l-17 43c-11 28-17 57-20 87-2 19-4 39-4 59l2 38 9 39c9 38 27 72 53 102 12 14 25 27 39 39s31 22 49 28c16 6 33 9 51 12 16 3 33 2 49-2l11-2 29-7c20-8 38-19 54-33l29-29c7-6 13-14 19-22 15-21 27-43 35-67 4-12 6-25 9-37 5-22 8-45 7-68m-451-8c1-33 3-59 8-85 3-16 8-32 14-47l15-41c13-24.6 28-48 45-70 14-17 30-30 49-40s39-17 60-22c9-2 18-2 28-2h19c11 0 22 0 32 3 18 5 35 11 51 19 21 10 39 24 54 42a455.6 455.6 0 0 1 43 66l21 54c13 46.2 19 94 18 142l-3 30-4 31c-3 25-10 48-22 71-14 25-30 49-50 69l-17 16c-21 19-45 32-72 37a630.3 630.3 0 0 1-67 9c-20-2-40-5-59-10-26-6-49-18-68-37a276.4 276.4 0 0 1-79-114c-4-11-7-24-9-37l-6-53-1-31"/>
    <path d="M511 431.2v-17l-3-27-7-29c-7-27-18-52-32-76l-8-15a146 146 0 0 0-35-42c-12.2-7.5-24.5-14.8-37-22l-35-13c-6-3-12-3-18 0l-13 4a172.4 172.4 0 0 0-89 66c-7 10-13 22-19 33-9 15-16 32-21 49l-9 35c-5 27.7-6.2 55.9-4 84 1 15 4 29 9 43 9.3 23.5 21 46 35 67 13 15 28 28 45 39l14 9c16 10 33 18 51 22h20c18-4 36-12 51-22l14-8c17-11 31-24 45-39 6-7 12-15 16-24l14-29c6-13 10-26 12-40 3-16 4-32 4-48m-340-14c-1-18 3-38 8-59l10-35a247.1 247.1 0 0 1 59-91 167.7 167.7 0 0 1 41-35c15-7 31-13 47-15 8-2 15-1 23 1 16.9 3.6 33 9.6 48 18 12 8 22 16 31 26l26 31c19 23 32 49 41 78a401 401 0 0 1 14 82c.2 36.7-7 73-21 107l-11 25c-4 9-10 18-16 26l-16 19-20 17c-16 11-32 21-50 27-11 4-21 7-32 8h-21c-18-4-35-10-50-19l-20-11c-11-7-21-16-30-26a546.9 546.9 0 0 1-27-37l-17-38c-7-16-11-34-14-52-2-14-3-29-3-47"/>
    <path d="m353 215.2-1-4c-2 1-1 3-2 4l1 2h2v-2m8 21v-3l-4-10c-1-2-3-3-6-3-2 1-4 1-5 3l-3 8-4 6-1 1c-2 1-2 3-2 4l1 1 11-2 9-1c4 0 4 1 4-3v-1m-40 37c8-4 10-4 19-4h1c9 0 18-2 26-4 2-1 3-1 3-3v-5c0-3-2-5-4-7l-9-3-10-1c-5-1-10 1-13 5l-5 5-4 4-4 13m78 89c-3 8-8 16-12 23l-9 16-1 5 3 5 4 4c4 3 8 7 11 12l7 8 9 8 5 7c6 8 8 17 6 27l-2 11c-2 15-6 30-12 45-4 8-10 14-18 18l-10 6-5 5 18-7c10-4 13-8 18-17l3-6 6-15 8-16c4-8 6-16 7-24 2-12 2-24 2-36 0-11-1-21-5-31l-7-17c-2-3-4-7-7-9l-6-6c-4-6-9-10-12-16h-1m-28 51-1 2-10 23-3 16v66c-2 8-4 16-3 24v4l-1 11c0 7-1 13-3 19l-10 23v1h1c5-2 9-6 11-11 3.2-6 6.2-12 9-18l5-9c1-4 4-7 7-9l7-4c5-3 10-7 13-11l13-21c3-4 4-9 6-14l1-7c2-12 2-12 0-23l-2-17c-1-8-5-15-11-20l-15-10c-4-2-7-5-10-9l-4-6m9-121-1-12c-1-4-2-7-5-10-1-2-2-2-3-1-4 3-8 5-13 5l-4 1c-6 2-13 2-19 1h-14l-4 6-8 16c-2 3-3 7-3 11v7c0 4-1 7-4 9s-5 5-5 9l-1 2c0 3-2 6-4 9l-5 8c-5 7-8 16-9 25-1 8 0 16 4 23 5 11 11 21 19 30l11 15c8 11 13 23 16 36 2 10 2 20 2 30l-1 14-3 24-2 11 1 13v8l-4 16a25.9 25.9 0 0 0-2 11c0 3 3 5 5 5 3 0 4-1 5-4l7-13 1-5 5-23 3-19c0-11 1-21 3-31s2-20 0-30-2-20-1-30l5-23c4-12 10-24 17-35l10-17 9-15 5-9 2-8v-15c-1-6-2-12-5-18l-8-11-2-1-5 5-6 7a48.9 48.9 0 0 1-41 10c-7-2-14-2-22-1h-2v-2l7-2h17l8-1c15-4 15-3 27-13 5-4 9-7 15-9 1-1 2-1 2-3v-6m7-3-1 9c-1 1 0 3 1 4l6 11c5 7 8 15 9 24l1 7 4 13 4 8c2 5 6 9 10 12 6 5 10 11 13 18a108 108 0 0 1 10 63l-1 13c0 15-4 29-11 42l-9 21-10 17c-4 5-9 7-13 9l-23 12c-5 3-9 8-13 13l-6 12-2 3c-2 4-5 7-9 7h-3l-5 2-6 6c-2 4-5 5-9 5-3 0-6-1-8-4-3-5-4-10-3-16l4-10c2-5 2-10 2-16l-1-4c0-7 0-14 2-21 3-8 3-15 4-23 0-15-1-31-5-46-2-12-7-23-15-33l-9-10-16-22c-3-6-6-12-7-18-2-8-2-16-1-24 2-10 6-20 12-28 3-5 6-9 8-15l4-8 3-9 2-18c1-4 3-8 6-11l3-5c4-3 6-8 7-12 2-8 5-14 10-20l5-7 3-6c3-3 5-6 6-10l3-5 3-7 2-2c2-3 6-3 8 0l3 5 5 8c4 4 6 9 7 15 0 4 1 9 3 12 2 2 2 5 2 7 0 5 2 8 4 12l5 9 2 11"/>
    <path d="M305 527.2v-1l-1-3-4-6-6-6-3-3-4-3c-3-4-7-7-13-8h-3l-1-3 1-3c1-3 4-6 7-8 4-3 7-7 9-12 1.2-6.5 2.8-12.8 5-19h-1c-4 2-8 4-10 8s-5 7-9 9l-8 6-3 4h-3l-4-7c-4-6-9-10-16-12-4 0-7-2-10-4l-7-3h-2l1 2 2 2 4 3c4 2 6 5 8 9l2 5c1 4 3 7 6 10l2 3c1 2 0 4-3 4h-3c-5 1-10 2-14 5l-5 4c-2 2-4 3-7 3l-7 1-3 2-1 1 1 1h9c4-1 8-2 12-1 4 0 8 0 12-2l12-1c2 0 2 1 1 3l-4 7c-4 7-5 13-4 20v7l-1 6v5l1-1c3-2 3-5 4-8 2-9 6-17 11-24l4-6 2-5c1-2 3-3 5-1l5 4 10 4c3 0 6 0 9 2 4 2 8 4 12 8l3 2m-60-20c-2-1-3 0-4 1l-4 1c-4 3-9 3-13 2h-12c-4 1-8 0-12-1-3-1-3-3-1-5l5-3 4-1 9-5c6-5 12-8 20-8 2 0 2 0 1-2l-4-9c-2-6-6-11-11-15l-4-3-3-5c0-2 0-3 3-4h5l6 3 6 2c10 3 17 10 22 19l1 1 1 1 2-3c2-3 5-6 9-8l8-8a27.9 27.9 0 0 1 17-9c-1.1 5.7-2.4 11.4-4 17l-2 8c-1 4-3 7-6 9l-5 5-4 3-2 4 4 1c4 2 9 4 12 7l8 8h1c5 5 8 10 10 17v2c-1 2-2 2-3 2l-4-4-15-9h-5c-5 1-9-2-13-6l-3-3h-2c-1 5-4 9-6 13l-3 6c-3 3-4 7-6 11l-3 9-4 6c-2 2-3 1-4-1l-1-4v-19c0-6 2-11 4-16l5-7m8-175v-16c1-7 3-13 8-19l10-11 7-6 7-11v-9c-2-7-8-11-14-12-7-2-11 2-13 5l-2 6-5 13-5 6-4 10c-4 16-1 31 11 44m-17-34c0-10 2-19 9-26l3-3c3-4 6-8 7-13l4-8c4-4 8-5 13-4 10 2 16 7 18 17v10c-2 5-5 10-9 13l-8 6a38 38 0 0 0-17 31v14c0 1-1 2-2 1l-2-2-5-6c-7-8-10-16-11-26v-4m204 45-1 1 6 5c5 3 8 8 9 13 3 9 5 18 5 27v6c1 6 4 11 10 14 3 1 6 2 10 1 7 0 11-4 12-10l-1-14c0-4-2-8-6-10-4-3-6-7-8-11l-3-6c-4-6-9-12-17-14l-12-2h-4m14 41c0-6 1-11-1-16-1-6-4-12-10-16l-6-7c-2-1-2-2 0-3a34.2 34.2 0 0 1 30 5c4 3 9 8 12 13l9 14 5 9c1 6 2 12 1 17 0 3 0 6-2 8-2 4-5 7-10 7-6 1-12-1-18-4s-9-9-10-16v-12m-28-119-3-6c-4-2-10-2-13 0-2 2-3 4-2 6 1 3 3 6 6 8s8 1 9-3l2-3 1-2m-10 11-7-1c-3-1-6-4-5-8 0-7 8-14 17-11 2 0 3 1 4 3 3 3 3 7 3 11 0 2-2 3-4 4l-8 2m-33 321c0 2 0 4 2 5 2 3 4 3 7 2 3-2 5-6 3-10-1-3-3-4-5-3l-4 1c-2 1-4 3-3 5m6-10 5 3 5 6v2c1 6-2 9-7 9-7 1-12-5-11-13v-2c1-3 3-5 8-5m-171-175 4-2 3-8c0-3-1-5-3-6-3-2-7-1-9 2-3 2-3 5-2 8 2 3 4 5 7 6m11-7c0 6-6 11-12 9-5-1-9-7-8-13 1-4 4-6 7-7 4-1 7 0 9 2 2 3 4 6 4 9"/>
    <path d="m266 259.2 1-4 3-1 1 2-2 5-2 1-1-1v-2m216 144-1 2-2 2-1-2-1-3 1-2 2 1 2 2M470 483c0 .4-.3 6.8-.2 13.3-6.8.5-5.7-13.3-5.3-15 .2-1.4-4.4 1.7-6.6 3.8.7 1.3 1.7 1 2.9.5-.5 6.2 3.9 11.8 9 11.7.2 6.4.9 12.5 2.7 13 .2 0 .5-6.5.6-13.7 12.2-3.8 7.5-18.3 7.5-18.3-.2-.8-2 .3-6 3.9 1.6 1.7 2.4.7 3.6.3 1 1.9 1.4 10.5-5.1 13l.3-18-.4-.2c-1.8.2-5 3.4-7.5 6 1.4 2.3 3 .3 4.5-.3m5.9 19 2.8 2.9 2.8-2.8-2.8-2.8-2.8 2.8Z"/>
  </g>
</symbol></svg>
