<svg xmlns='http://www.w3.org/2000/svg' viewBox='0 0 696 830' fill='none'><symbol id='KANC_Outline'>
  <g fill="#D7CDC1">
    <path d="m126 460.5 2 25 6 28a233.3 233.3 0 0 0 55 110l38 37c20 17.4 44 29.4 70 35 11 3 22 6 34 7l9 1c8 1 16 0 23-1l7-1 28-6c26-5 50-18 70-36l20-18a247.3 247.3 0 0 0 77-151c4.6-23 5.6-46.7 3-70l-3-35c-3-28.3-9.3-56.2-19-83l-17-45c-4-11-9-22-16-32a523.5 523.5 0 0 0-48-61c-8-7-18-13-28-18l-31-10c-18-5-37-8-55-9h-15c-7 1-15 1-22 3-23 5.1-45.4 12.5-67 22-12 7-23 16-32 27-11 12-20 25-29 38-9 14-17 28-22 44-6.8 20.2-14.2 40.2-22 60-8.3 25.6-13 52.1-14 79l-2 33v27Zm450-32-2 33-3 25-2 22c-3 19-7 37-15 54a293.7 293.7 0 0 1-78 104c-18 16-39 26-62 33l-28 5-17 3-13 1-8 1-22-2-31-5a158.8 158.8 0 0 1-81-40c-34-29.6-60.4-67-77-109-6-13-9-28-11-42l-5-41c-7.4-61.9.2-124.6 22-183l14-35a444.8 444.8 0 0 1 46-70c12-15 27-26 43-36l32-14 22-8c14-4 27-5 41-4h13c14-1 27 0 41 5 13 4 25 8 38 14a170.4 170.4 0 0 1 59 44l28 37c7 11 13 22 18 34l17 44a271.4 271.4 0 0 1 19 87l2 43"/>
    <path d="m512 431.5-1-24c0-9-2-18-4-26l-7-29c-5-20-13-39-23-58l-21-35c-2-5-5-8-8-12l-7-9-16-14-14-10c-7-5-15-9-23-12l-35-13c-5-1-10-1-15 1l-18 6c-11 4-22 8-31 14l-27 17-3 3c-9 9-18 18-24 29l-18 32c-9 16-16 32-21 49-5.1 17.5-9.8 35.2-14 53l-2 34 1 16c.6 22.1 4.3 44 11 65 8.6 20.5 19 40.2 31 59 29.5 34.6 68.4 60 112 73l10 1 14-2c11-3 23-6 34-12l18-11c18-11 34-23 48-38 10-11 19-22 25-35l9-18c10-21 16-44 18-67l1-27m8-11a298 298 0 0 1-20 103l-9 20a170.3 170.3 0 0 1-56 70c-13 9-28 17-42 23-11 5-23 8-35 11-10 1-20 1-30-2-14-3-28-8-41-15l-24-13a139.9 139.9 0 0 1-41-39c-7-9-14-19-18-30l-15-33a303.6 303.6 0 0 1-13-139l10-42c9-28 23-54 42-77l9-11 11-13a159.6 159.6 0 0 1 53-41c9-3 17-7 27-9l16-2h5c15.3 1.4 30.2 5.4 44 12 8 4 17 8 24 14 8 7 16 13 22 21l25 29c23 28.2 39 61.4 47 97 3.5 17.3 6.5 34.6 9 52v14"/>
    <path d="M420 508.5c0-8-2-14-4-20-4-8-11-15-17-22-3-2-3-3-6 0l-2 3 3 2a39.7 39.7 0 0 1 19 41c-2 11-6 21-14 28l-16 14-9 8c-5 5-8 11-9 17v3l1-3c3-6 7-11 12-15l19-14 8-7c6-6 11-13 13-22l2-13m-185-2 1 19c.9 9.6 3.2 19.1 7 28h1l1-1c2-6 5-11 9-15l12-16 6-8c5-6 11-10 18-12l9-3c8-2 16-6 24-11l7-5 8-4c5-3 11-4 17-3h10c7 0 13-2 19-6 4-2 7-5 10-9l3-10c2-7 2-15 0-22l-2-5v-12l3-12 5-10 5-20 1-13c1-6 3-12 7-17l6-8 17-19 11-10 2-1-1-1-2-1c-9-1-19-2-28 0a264 264 0 0 0-56 14c-19.1 9.6-39.2 17-60 22-7 1-12-1-17-4l-2-2c-2-2-5-3-8-3-8-1-14-4-20-8l-6-4c-3-1-5-2-8 0l-2 2 2 1 1 1c2 0 2 2 1 2l-3 2v1l9 3 6 2c5 3 5 9 2 13l-5 3c-3 2-5 5-6 8l-2 3c-1 4-4 6-7 6-4 0-6-2-8-4l-3-5-4-7-1 1-1 1c0 2-2 2-3 1l-1-2h-2c-2 3-1 6 1 9l5 6c5 4 9 10 11 17l6 9c4 2 6 5 7 9 2 3 2 6 2 9l-1 19a307 307 0 0 1-11 51l-2 31m-7 0a141 141 0 0 1 2-29l10-54 2-15 1-6c0-3-1-6-4-7l-3-3c-4-3-6-7-7-12v-2c-1-6-4-11-9-15l-7-6c-3-5-3-10-1-16l4-4c4-3 8-2 11 2l3 5 1 5 2 4c3 2 6 3 9 1l4-4c1-3 3-6 6-8l3-4c2-4 0-8-4-9l-5-1-6-1c-7-2-9-9-4-14 3-4 9-7 16-4l8 5 7 4 9 2h4c4 0 8 1 11 4l3 3c2 2 5 3 8 2l8-2 29-11 25-10 3-1c10-5 21-8 32-10l22-4c11-1 21 0 32 4l2 1 3 3-1 4-3 1-11 10-1 2c-6 7-11 14-18 20l-4 4c-6 6-7 13-6 21l2 8c1 10-2 20-7 29l-3 6-3 6c-3 5-4 10-3 16 2 4 2 9 3 13 0 6-1 12-3 17-1 2 0 3 1 4l13 13 7 11c5 7 6 16 4 24l-2 13a69.1 69.1 0 0 1-22 31l-15 11-8 6c-6 5-10 10-11 18l-1 2-2 1-2-2c-2-5-1-9-1-14 2-10 6-17 14-23l10-7 12-9c10-10 13-21 12-35-2-12-9-21-20-27h-3c-4 3-8 4-13 5-4 1-7 2-11 1h-9l-9 3-6 5-10 9c-6 4-13 8-21 9h-7l-9 1c-4 0-8 2-11 5-2.7 2.7-5 5.7-7 9l-16 21c-4 5-7 10-9 16-2 4-5 4-8 1l-2-2c-4-7-7-15-8-24-2-8-2-17-2-26"/>
    <path d="m447 446.5 2 15 1 1 1-1 8-12 7-10c5-4 6-10 5-16-1-7 1-13 4-19l1-3c2-4 3-9 3-14-1-9-3-18-7-27l-3-4c-3-4-7-5-12-4-7 1-14 6-15 16 0 4 1 8 3 11l3 4c7 6 10 13 11 22 1 6 0 11-2 16l-3 4-2 5c-4 5-5 11-5 16m-2-1c-1-6 1-13 3-19 2.2-9 4.2-18 6-27 0-5-2-8-5-12l-4-5-6-6c-3-4-4-9-3-13s3-7 6-9c6-4 13-6 20-5 4 1 7 3 9 6l4 5c6 13 9 25 7 39-2 11-4 22-8 33-4 8-8 15-14 21a45.2 45.2 0 0 0-10 13h-1l-2-3-2-12v-6m-160-181 1 5c0 3 2 4 4 4l5 1c6 1 10 3 12 9l2 4 4 5c6 4 12 5 18 5 5 0 10-1 14-3 14-5 26-14 34-28v-1h-1c-6 3-12 4-19 5-6 1-12 0-18-2-5-2-9-5-13-9l-10-8-6-4c-3-1-7-2-10-1-5 1-9 3-13 7-3 3-4 7-4 11m46 35c-11 0-20-4-27-12l-2-2c-2-2-4-4-7-4l-6-2c-4-2-7-6-7-11-1-5 0-11 4-15 7-8 15-11 25-9 7 2 13 4 19 8l7 5 6 5 13 4c9 0 18-2 25-6h2c1-1 2 0 1 1-1 3-1 7-4 10a66.8 66.8 0 0 1-42 28h-7m-24 273c-1-2-2-4-5-5l-7 1-5 5-1 5c-1 5 2 10 8 11 5 2 9-1 9-6l1-11Zm-4-7c4 1 11 8 11 13 0 2 0 4-2 6-2 5-6 7-11 8-4 0-7-1-10-4s-5-7-6-12c-1-2 0-4 2-5l7-5c2-1 6-2 9-1Zm66-44c-1-2-5-2-7-1-3 1-4 3-3 6l2 4c1 3 5 4 7 1 1-2 4-6 1-10Zm5 7-2 4c-3 2-6 3-9 2l-6-3c-2-1-2-3-2-5 1-7 5-10 13-8h1c2 1 5 6 5 10m54 56c0-3-2-5-5-6-2-1-3 0-4 1-2 2-3 6-1 8s5 3 7 2 3-3 3-5m-13-1v-2c1-5 4-6 8-6l7 4c3 2 4 6 1 9l-6 3c-5 1-10-3-10-8m-87-142c-7 0-12-2-17-5l-10-5c-8-2-14-7-19-13l-11-16-1-4c-1 0 0 0 0 0h1l2 2 19 18c4 2 7 5 10 9 3 3 7 5 11 5a45.4 45.4 0 0 1 17 7v1l-1 1h-1m-23-85 3 1 19 8c6 4 11 8 15 15l7 10c4 4.5 6.9 10 8 16v1h-1l-2-2c-3-3-6-7-7-12l-2-3-5-6c-7-4-13-10-19-15l-13-9-4-2 1-2m-37-14-1 3-4 8-4 5-8 7-3 1-2-1 1-1 2-3 7-5 4-5c2.2-3.7 4.6-7.4 7-11l1 1v1m14-2-2-1-2 2v1c1 3 2 5 4 6l2 1c1-1 2-4-2-9Zm-27 41-4-1-2-1-1-3 2-1 8 4v1l-1 1h-2"/>
    <path d="M455 362.5h-3v2c0 2 1 4 3 5h2s1-4-2-7Zm-154-98 1-2-5-5h-3l-1 3 2 3c1 1 4 2 6 1Zm154.9 243.2c0 .4-.3 6.8-.2 13.3-6.8.5-5.7-13.3-5.3-15 .2-1.4-4.4 1.7-6.6 3.8.7 1.3 1.7 1 2.9.5-.5 6.2 3.9 11.8 9 11.7.2 6.4.9 12.5 2.7 13 .2.1.5-6.5.6-13.7 12.2-3.8 7.5-18.3 7.5-18.3-.2-.8-2 .4-6 4 1.6 1.6 2.4.6 3.6.2 1 2 1.4 10.5-5.1 13.1l.3-18c0-.2-.2-.3-.4-.3-1.8.2-5 3.4-7.5 6.1 1.4 2.2 3 .2 4.5-.4m5.9 19.1 2.8 2.8 2.8-2.8-2.8-2.8-2.8 2.8Z"/>
  </g>
</symbol></svg>
