<svg xmlns='http://www.w3.org/2000/svg' viewBox='0 0 696 830' fill='none'><symbol id='KANC_Fill'>
  <g fill="none">
    <path fill="#D7CDC1" d="M590.4 427.4c0 18-1 35-3 53l-4 35c-3 21-9 42-18 62a302.7 302.7 0 0 1-81 105c-20 18-43 29-69 36l-28 5a398 398 0 0 1-45 4 275 275 0 0 1-65-10c-27-7-51-20-71-39l-25-25c-25-27-44-58-58-93-5-13-8-27-10-41-2-18-5-35-6-53-2-17-2-35-2-52l2-31c3-34 10-67 22-98l16-40c5-13 11-25 19-37 9-14 19-27 30-40 21.9-24 49.4-42.2 80-53l28-9c12-4 24-5 36-4h19c13-1 27 0 40 5l42 15c23.2 10.6 44 26 61 45a467.3 467.3 0 0 1 48 72l23 58a483.3 483.3 0 0 1 19 106v24"/>
    <path fill="#FFF" d="M125.4 435.4v12c0 13 1 26 3 38l7 35c10 41 30 77 58 108l32 32c19 16 40 28 64 35l26 6 17 3h11c9 1 19 0 28-1l25-6c29.7-5.8 57-20 79-41l20-20a232 232 0 0 0 62-102l9-38c4.6-23 6-46.6 4-70l-3-38a356.8 356.8 0 0 0-18-81l-20-54-11-23c-11-18-23-35-37-51-13-16-30-28-50-35-21-8-43-15-66-17a151.3 151.3 0 0 0-47 2c-20.2 3.4-40 9-59 17-8 3-17 8-24 13-9 7-16 15-23 23a535.9 535.9 0 0 0-46 72l-22 59a297.6 297.6 0 0 0-17 92l-2 30m451-16a405 405 0 0 1-8 100c-3 18-8 35-16 51-14 28-31 54-53 76l-18 17c-21 20-46 32-73 38l-31 6-11 1-16 2-17-1c-15-2-30-4-45-8-27-6-51-17-71-36-14-13-28-26-39-41-17-22-32-45-41-71-5-13-9-26-10-40l-5-39a321.4 321.4 0 0 1-2-74l2-23c3-29 9-57 19-83l16-41c4-11 10-21 16-31l29-38c14-18 32-31 52-42 12-6 24-10 37-14a97 97 0 0 1 47-7l20-1c11-1 22 0 32 3 17 5 34 11 51 19a165.4 165.4 0 0 1 57 46 430.8 430.8 0 0 1 41 65l17 46c8 20 13 41 16 63 3 20 4 40 4 57"/>
    <path fill="#FFF" d="m180.4 430.4 2 34c2 15 4 29 9 42 8.9 22 20 43 33 63a215.6 215.6 0 0 0 68 55l14 7c12.5 5.4 25.6 9 39 11 5 1 10 0 15-1 14-4 29-9 42-17l17-11c17-11 32-24 46-39 7-8 13-16 18-26l11-22c11-22 17-46 18-72 1.7-22.7 1-45.5-2-68l-14-49c-5-17-12-32-21-47l-12-22a149.1 149.1 0 0 0-36-43c-11.6-7.5-23.3-14.8-35-22-13-6-25-10-38-14-5-2-10-2-15 0l-23 8c-10 4-20 8-29 14l-23 15-5 5c-9 9-18 18-24 29l-19 33c-9 16-16 33-21 50-4.5 18-9 36-13 54l-2 33m341-8c-.5 34.6-7.3 68.8-20 101l-13 28c-4 9-8 17-14 24a561.5 561.5 0 0 1-34 35c-16 12-33 22-52 30-11 4-22 7-33 8h-21c-18-4-34-10-50-18l-20-12a135.3 135.3 0 0 1-41-38c-8-10-15-21-20-33l-16-36a305.5 305.5 0 0 1-11-136l11-43c8-23 19-46 34-66l18-22 7-8c8-10 18-19 28-27 8-7 17-12 27-16 9-4 18-8 28-10l16-2 10 1c15.5 3 30.6 7.7 45 14l18 11c9.2 7.8 17.9 16 26 25l13 15a245.6 245.6 0 0 1 56 113l6 26c2 11 2 23 2 36"/>
    <path fill="#D7CDC1" d="M422.4 576.4c-3 0-4 2-5 5l-1 3c0 5 5 10 11 8l5-3c2-3 2-7-1-9-2-2-5-3-9-4m-57-58c-5 0-9 4-9 9 0 2 0 3 2 4 2 2 4 4 7 4 3 1 5 0 7-2 2-1 3-2 3-4 0-6-4-11-10-11m-65 48c-3-1-5 0-6 1l-6 5c-2 1-3 4-2 7l5 9c3 3 8 6 14 4 3-1 6-3 8-7 2-3 2-7 0-11l-5-5c-2-3-5-4-8-3m32-267 10-1c15-3 26-12 36-23l7-13v-2l-4 1a40.6 40.6 0 0 1-39 0l-10-8c-6-4-13-7-20-9-8-1-15 0-21 5s-10 12-9 20c1 5 3 8 8 10l6 2c3 0 5 2 7 4l2 2c7 8 16 12 27 12m151 93c0-11-2-21-6-30l-5-8c-2-2-5-4-8-4-7-1-14 0-20 3-3 2-5 5-6 9-2 5-1 9 2 14l7 7 4 6c3 3 4 6 4 10l-1 12-6 17c-3 11-3 22 0 34l2 4h2c2-5 6-9 9-13 6-6 10-12 13-20 5.3-13.4 8.4-27.6 9-42m-255 116 2 28c2 8 5 15 9 22 1 2 2 3 4 3 2 1 3 1 4-1l1-3 7-11 5-7 10-13c3-4.5 6.4-9 10-13 3-3 7-5 11-6h10c9 0 17-3 24-8l11-8 6-5c4-4 9-6 15-5h7c7 0 14-2 20-5l5-2 5 3 5 4 8 11c4 9 4 18 1 27-1 7-5 12-9 16-6 6-12 10-18 14l-8 6c-5 5-8 10-10 16l-1 11 1 8 1 2c2 0 2-1 3-2l1-3c1-4 2-7 5-11l8-7 14-10 10-8a58 58 0 0 0 21-39c2-11 0-22-7-32l-6-8-11-11c-2-1-2-2-1-3 2-7 3-14 2-21l-2-11c-1-4-1-9 1-13l5-8 6-12c3-8 4-16 3-24l-1-8c-1-7 0-12 4-17l5-7 19-20c3.9-5.4 9-10 15-13l1-3c0-2-1-3-3-3l-2-2c-10-4-21-5-31-3l-23 3c-11 2-22 5-33 11l-4 1-14 6-38 14-7 2c-3 1-7 1-10-2-5-5-10-8-17-7-4 1-8 0-11-2l-6-4-7-5c-7-3-13 0-16 3-2 1-3 3-3 5-1 3 0 6 2 8l5 2 6 1 5 1c4 1 6 5 4 9l-2 3c-4 3-7 6-9 10l-2 3c-3 3-8 2-10-2l-2-5-2-6c-3-6-11-7-15-1-3 4-5 10-1 16l4 4 4 4c4 3 7 8 8 13l1 5c0 4 2 7 6 10l3 2c3 3 5 6 4 9v3l-4 26-6 34-3 13-2 28m-48-77c.3-18.1 2.4-36.2 6-54l9-33c5-17 12-34 21-50l19-33a141 141 0 0 1 29-34l23-15c9-6 19-10 29-14l23-8c5-2 10-2 15 0 13 4 25 8 38 14l17 9a1826 1826 0 0 1 31 24c9 10 17 20 23 31l12 22c9 16 16 31 21 48a526.8 526.8 0 0 1 16 69c2 16 1 32 0 48-1 26-7 50-18 72l-11 22c-5 9-11 18-18 26a223.1 223.1 0 0 1-105 67c-5 1-10 2-15 1l-9-1a154 154 0 0 1-44-17l-25-16a218.7 218.7 0 0 1-53-53l-23-49c-5-13-7-27-9-42l-2-34"/>
    <path fill="#FFF" d="m392.4 470.4 4 3c10 6 16 15 18 27 1 15-3 28-13 39l-10 9-9 8-8 7a32.1 32.1 0 0 0-9 20l2-3c3-6 7-12 13-16l20-14c6-5 11-11 15-18l5-13 1-11c0-8-2-15-5-21-5-8-10-14-16-20-4-3-3-4-6 1l-2 2m-149-148c2 3 6 3 8 4l6 2c6 3 7 9 2 14l-4 3-5 4-2 5-2 5c-4 3-9 3-12 0l-3-5-3-6c-1-1-2-3-4-3l-1 3h-2l-3-3-2 3c0 3 0 5 2 7l6 7c5 4 8 9 10 15l1 2c1 3 2 6 5 7l1 2c5 4 8 9 8 15v17l-9 45-4 21v38c.7 10.6 3 21 7 31h1l1-1c2-7 6-12 11-18l10-13 4-6c6-8 14-14 24-16 12-3 24-8 34-16l5-3 4-3c6-2 12-4 18-3h10c6 0 12-2 18-5 7-4 12-10 15-18l1-10c1-5 0-11-2-16-3-9-2-17 2-25l4-11c3-6 5-13 5-19l2-12c0-9 3-17 9-24l6-7 13-14c4-5 8-10 14-13l1-2-2-1c-10-1-20-2-30 0a268.2 268.2 0 0 0-53 13 318 318 0 0 1-59 23c-8 1-16 0-22-6l-9-3c-7-1-13-3-19-8l-5-3-4-2c-3-1-6 0-8 3l2 1 1 1c2 1 2 2 0 3l-2 1m-15 185 2-28 3-13 6-34 4-26v-3c1-3-1-6-4-9l-3-2c-4-3-6-6-6-10l-1-5c-1-5-4-10-8-13l-4-4-4-4c-4-6-2-12 1-16 4-6 12-5 15 1l2 6 2 5c2 4 7 5 10 2l2-3 8-10 3-3c1-4 0-8-4-9l-5-1-7-1-4-2c-2-2-3-5-2-8 0-2 1-4 3-5 3-3 9-6 16-3l7 5 6 4c3 2 7 3 11 2 7-1 12 2 17 7 3 3 6 3 10 2l7-2 38-14 14-6 4-1c11-6 22-9 33-11l23-3c10-2 21-1 31 3l2 2c2 0 3 1 3 3l-1 3-2 1c-5 3-10 7-13 12l-19 20-5 7c-4 5-5 10-4 17l1 8c1 8 0 16-3 24l-6 12-5 8c-2 4-2 9-1 13l2 11c1 7 0 14-2 21-1 1-1 2 1 3a192 192 0 0 1 17 19c7 10 9 21 7 32l-2 8c-2 12-9 23-19 31l-10 8-14 10-8 7c-3 4-5 7-5 11l-1 3c-1 1-1 2-3 2l-1-2-1-7 1-12c2-6 5-11 10-16l8-6c6-4 12-8 18-14 4-4 8-9 9-15 3-10 3-19-1-28l-8-11-5-4-5-3c-1-1-3 1-5 2a49.3 49.3 0 0 1-27 5c-6-1-11 1-15 5l-6 5-11 8c-7 5-15 8-24 8h-10c-4 1-8 3-11 6l-4 5-6 8c-4.2 7.2-9.3 13.9-15 20l-7 11-1 3c-1 2-2 2-4 2l-4-4c-4-7-7-14-9-22l-2-28"/>
    <path fill="#FFF" d="m450.4 463.4 1-1 11-15 7-9c3-3 4-7 4-11v-5c-1-5 0-10 2-14l2-6c3-7 3-13 3-20-1-6-3-13-6-19l-3-6c-3-5-8-6-13-5-8 1-13 7-15 15-1 5 0 10 4 14l2 2c5 5 8 11 10 18 2 9 2 16-3 23l-4 7-3 8c-2 8-1 16 1 24m33-71-2 20-7 21c-3 8-7 14-13 20-3 4-7 8-9 13h-2l-2-4c-3-11-3-23 0-33l6-18 1-12c0-4-1-7-4-10l-4-6-7-7c-3-5-4-9-2-14 1-4 3-7 6-9 6-3 13-4 20-3 3 0 6 2 8 4l5 8c4 9 6 19 6 30m-102-128c-5 3-11 4-16 5h-19l-16-8-9-8-7-5c-4-2-7-3-11-2-7 1-12 4-16 11-2 4-3 8-1 12 1 3 2 4 4 5h4l4 1c4 1 7 3 9 6l1 4c2 5 5 8 9 10 7 3 14 3 22 1a66.1 66.1 0 0 0 38-25l4-7m-49 35c-11 0-20-4-27-12l-2-2c-2-2-4-4-7-4l-6-2c-5-2-7-5-8-10-1-8 3-15 9-20s13-6 21-5c7 2 14 5 20 9l10 8a40.6 40.6 0 0 0 39 0l4 1c-1 5-4 9-7 13a66.8 66.8 0 0 1-36 23l-10 1m-25 279h1v-4c0-3-3-6-7-6-5 0-10 1-11 8l-1 2c-1 6 3 11 7 12 6 2 11-1 11-7v-5m-7-12c3-1 6 0 8 3l5 5c2 4 2 8 0 11-2 4-5 6-8 7-6 2-11-1-14-4l-5-9c-1-3 0-6 2-7l6-5 6-2m72-41-2-2c-2-3-7-3-10 0l-1 3 2 6c2 3 6 4 8 1 2-2 2-5 3-8m-7-6c6 0 10 5 10 11 0 2-1 3-3 4-2 2-4 3-7 2-3 0-5-2-7-4-2-1-2-2-2-4 0-5 4-9 9-9m64 67c0-3-2-5-5-6-1-1-3 0-4 1-3 3-3 8 1 10s7 0 8-4v-1m-7-9c4 1 7 2 9 4 3 2 3 6 0 9l-4 3c-6 2-11-3-11-8l1-3c1-3 2-5 5-5"/>
    <path fill="#D7CDC1" d="m285.4 344.4-3-3c-1-2-2-2-3-1v3l4 6h2v-5Zm-29 38 1-1 2-1-1-1c-2-1-4-3-7-3h-1c-1 0-2 1-1 2 0 2 1 2 3 3l4 1m12-41-1-1-3 4-4 7-4 5c-3.1 2.6-6.1 5.3-9 8-1 1 0 2 1 2l3-1 4-2 12-14 1-8Zm3 61 12 18c5 5 11 9 18 11l11 5c4 3 10 5 16 5h3l-2-2-15-6c-4 0-8-3-12-6l-9-8-20-19-2-2v4Zm35-45h-1v1l2 1c8 5 15 10 21 16l10 8c5 2 8 6 9 10l8 13 2 2 1-1v-2c-2-6-4-11-9-15l-6-9c-4-7-10-13-17-16l-17-8h-3m-63-35 2-1c2-1 2-2 0-3l-1-1-2-1c2-3 5-4 8-3l4 2 5 3c6 5 12 7 19 8l9 3c6 6 14 7 22 6l20-6a319 319 0 0 0 47-20c14-5 30-8 45-10 10-2 20-1 30 0l2 1-1 2c-6 3-10 8-14 13l-13 14-6 7c-6 7-9 15-9 24l-2 12c0 6-2 13-5 19l-4 11c-4 8-4 16-2 25 2 5 3 11 2 16l-1 10c-3 8-8 14-15 18-6 3-12 5-18 5h-10c-6-1-12 1-18 3l-4 3-5 3c-10 8-22 13-34 16-10 2-18 8-24 16l-4 6-10 13c-5.2 5.5-9.3 12-12 19h-1l-1-2c-3-10-5-19-6-29-1-19.8.4-39.5 4-59 5.5-20.2 8.5-41 9-62 0-6-3-11-8-15l-1-2c-3-1-4-4-5-7l-1-2c-2-6-5-11-10-15l-6-7c-2-2-2-4-2-7l2-3 3 3h2l1-3c2 0 3 2 4 3l3 6 3 5c3 3 8 3 12 0l2-5 2-5 5-4 4-3c5-5 4-11-2-14l-6-2c-2-1-6-1-8-4m153 151c10 6 16 15 18 27 1 15-3 28-13 39l-10 9-9 8-8 7a32.1 32.1 0 0 0-9 20l2-3c3-6 7-12 13-16l20-14c6-5 11-11 15-18l5-13 1-11c0-8-2-15-5-21-5-8-10-14-16-20-4-3-3-4-6 1l-2 2 4 3Zm62-105c0-2 0-4-2-5h-3v2l3 4 1 1 1-2m-8 95c-1 0-3-16-1-24l3-8 4-7c5-7 6-14 3-23-2-7-5-13-10-18l-2-2c-4-4-5-9-4-14 2-8 7-14 15-15 5-1 10 0 13 5l3 6c3 6 5 13 6 19 0 7 0 13-3 20l-2 6c-2 4-3 9-2 14v5c0 4-1 8-4 11l-7 9c-4.5 4.9-8.5 10.3-12 16Zm-150-198 2-2v-2l-4-4h-3l-1 3 2 3 4 2m81-1-4 7-3 5c-10 10-21 17-35 20-7 2-15 2-22-1-4-2-7-5-9-10l-1-4c-2-3-5-5-9-6l-4-1h-4c-2-1-3-2-4-5-2-4-1-8 1-12 4-7 9-10 16-11 4-1 7 0 11 2l7 5 9 8 16 8h19l16-5Zm-73 311c0-4-3-7-7-7-5 0-10 1-11 8l-1 2c-1 6 3 11 7 12 6 2 11-1 11-7v-5l1-4v1Zm62-53c-2-3-7-3-10 0l-1 3 2 6c2 3 6 4 8 1 2-2 4-8 1-10Zm59 63v1c-1 4-4 6-8 4s-4-7-1-10c1-1 3-2 4-1 3 1 5 3 5 6"/>
    <path fill="#FFF" d="M306.4 357.4h3l17 8c7 3 13 9 17 16l6 9c5 4 7 9 9 15v2l-1 1-2-2-8-13c-2-4-4-8-9-10l-10-8a160 160 0 0 0-23-18h1m-35 45 12 18c5 5 11 9 18 11l11 5c4 3 10 5 16 5h3l-2-2-15-6c-4 0-8-3-12-6l-9-8-20-19-2 2Zm-3-61-1-1-3 4-4 7-4 5c-3.1 2.6-6.1 5.3-9 8-1 1 0 2 1 2l3-1 4-2 11-14 2-8Zm-12 41-4-1c-2-1-3-1-3-3-1-1 0-2 1-2h1c3 0 5 2 7 3l1 1-2 1-1 1m29-38-3-3c-1-2-2-2-3-1v3l4 6h2v-5Zm173 24-1 2-1-1-3-4v-2h3c2 2 2 3 2 5m-156-105v-2l-4-4h-3l-1 3 2 3c1 1 4 4 6 0Zm154 244.6c0 .4-.2 6.8-.1 13.3-6.8.5-5.7-13.3-5.3-15 .2-1.4-4.4 1.7-6.6 3.8.7 1.3 1.7 1 2.9.5-.5 6.2 3.9 11.8 9 11.7.2 6.4.9 12.5 2.7 13 .2 0 .5-6.5.6-13.7 12.2-3.8 7.5-18.3 7.5-18.3-.2-.8-2 .4-6 3.9 1.6 1.7 2.4.7 3.6.3 1 1.9 1.4 10.5-5.1 13l.3-18-.4-.2c-1.8.2-5 3.4-7.5 6 1.4 2.3 3 .3 4.5-.3m5.9 19 2.8 2.9 2.8-2.8-2.8-2.8-2.8 2.8Z"/>
  </g>
</symbol></svg>
