<svg xmlns='http://www.w3.org/2000/svg' viewBox='0 0 696 830' fill='none'><symbol id='KANV_EC_Outline'>
  <g fill="#1E2346">
    <path d="M455.3 141.8v-1l-5-5-26.2-27.3-32.3-34.2a607.3 607.3 0 0 0-46.3-43.2A606 606 0 0 0 295 82.4l-11 11-25.3 27.2-22.1 23.2-3 3 1 1 2-2c20.8-11.5 42.8-21 65.5-28.2 8-3 16-4 24.1-4h42.4c8-1 15 1 22.1 3l20.2 6c14 5 28.2 10.1 41.3 18.2l2 1h1M347.5 797.9l1-1 7-7 16.2-17.1 8-10 32.3-36.3c14-16 28.4-31.3 43.3-46.3v-1h-1l-9 5c-13.2 6-26.3 10-40.4 13l-35.2 6.1a128.9 128.9 0 0 1-40.3 0l-33.3-6c-16.1-2-31.2-7-45.3-15.1l-13.1-7-3-1 2 3 26.2 28.1 26.2 28.2 31.2 35.2 13 15.1 12.2 13.1 2 1M546 580.5l1-1 2-2 17.2-21.1 35.2-46.3 33.3-44.3 15-20.1 22.3-25.2v-4a1309.1 1309.1 0 0 1-112.9-158L541 236.4l-10.1-12.1h-1v1l2 2 10 22.1 13.2 35.3a325 325 0 0 1 23.1 119.7c.5 15.4.1 31-1 46.3l-2 21.2-5 39.2c-3.3 23.5-11.2 46-23.2 66.4l-1 2v1M177.2 209.2h-1l-8 9a3999.2 3999.2 0 0 0-46.4 62.4L85.5 335l-39.3 54.3c-7 9-14 19.2-23.2 28.2v2l6 7 17.2 22.2L72.4 481l32.3 44.3 39.3 50.3 13 16.1 2 2 1 1v-1l-2-3a275.6 275.6 0 0 1-27.1-63.4c-4-14-5-28.2-7-43.3l-2.1-18-2-20.2v-31.2l1-31.2a446 446 0 0 1 19.1-92.6l16.2-41.3c4-10 9-21 15-30.1l6.1-9.1v-1m396 230.5-1-21.2-2-33.2a359.6 359.6 0 0 0-18.2-85.5l-20-50.5c-4-12-9-22.1-16.1-33.2a575 575 0 0 0-46.4-58.3c-9-8-20.1-15.1-31.2-20.2a274 274 0 0 0-72.6-18l-16-1-17.2 1-7 1-25.3 5-33.2 10a119 119 0 0 0-55.4 39.3 524.4 524.4 0 0 0-46.4 73.4l-12 34.3-8.1 21a294 294 0 0 0-16.2 71.5l-3 32.2-1 19.2c-1.5 22.2.2 44.6 5 66.4l5 20.1c11.2 46 35 87.7 68.6 120.8l16.1 16c20.7 19.8 46 34 73.6 41.4l25.2 5 11 2c16.5 1.6 33.1 1 49.4-2h1l25.2-5a157 157 0 0 0 67.5-36.3 557.4 557.4 0 0 0 43.4-45.3c20.3-25.6 35.3-55 44.3-86.5l7-27.2a253 253 0 0 0 6.1-56.3M347.5 809l-4-2-6-5c-10.2-8.1-19.2-18.2-28.3-27.2l-7-8-38.3-41.3-33.3-40.3-33.2-38.2-15.2-17.1-28.2-30.2-46.3-51.4-27.2-33.2L53.3 479A363 363 0 0 1 20 428.6l-3-7v-4l4-8.1L70.4 333c9-15.1 20.2-29.2 31.2-42.3l24.2-27.2 20.2-27.1a1263 1263 0 0 1 86.6-107.7c36.4-38.3 75.5-74 117-106.7l3 3 38.2 34.2L407 74.3c13.1 11.1 25.2 24.2 37.3 36.3a678.4 678.4 0 0 1 45.4 48.3l25.2 32.2c13 16 24.1 32.2 36.2 49.3l28.3 35.2a509 509 0 0 1 53.4 69.5l41.3 64.4 4 8v5l-3 6a401.1 401.1 0 0 1-49.4 71.5 2506 2506 0 0 1-48.4 59.4L541 599.7l-33.3 35.2c-12 12-23.2 26.2-34.2 39.2A2227 2227 0 0 1 366.6 794a190 190 0 0 1-17 14l-2.1 1.1"/>
    <path d="M445.2 254.5c-7 0-14 1-21.1 4-8 3-16.1 9-23.2 14v1.1l1 1h19.2c4 0 8-2 11-4l7-4c5.1-2 9.2-3 14.2-2l7 1h5l1.1-2-3-5.1c-1-2-2-3-4-3l-14.2-1m-193.4-1-17.2 3-2 1-3 6v1l8 1 7.1-1c4-1 9-1 13.1 2l8 4a25.8 25.8 0 0 0 19.2 4.1h11.1l1-1-1-1-17.1-11c-8-5.1-17.1-7.1-27.2-8.1M417 321.9c0 5 1 9 3 14v1.1l1-1c2-6 6.1-11 10.1-15.1l3-3c5-5 9.1-11 11.1-18.1 3-6 7-10.1 13.1-13.1l8.1-3c3-1 5-3 6-5 1-1 2-2 1-3l-4-6.1c-1-2-1-2-3-1h-1c-11 4-21.2 11-30.2 18-5 6.1-10.1 12.2-13.1 18.2s-5 11-5 17.1M281 323l-1-6c-1-8-5-14.1-9-20.2-5.1-7-11.2-12-17.2-17l-24.2-12.1-3 1-3 5v4l10 8 6 2c5.1 2.1 9.2 5.1 11.2 10.2l2 4c2 5 5 10 9 14l3 3A52.4 52.4 0 0 1 277 336v1l1-1 3-13m181.4-3.1v3c1 10 4 19.1 7 27.2l9 17 8.2 16.2 2 7 1 1 1-1 3-8c2-9 0-17.1-6-25.2l-4-4-4.1-6c-3-3-4-6-5-9V331l3-7c2-4.1 3-8.1 3-13.2 1-4 1-8 3-11v-5l-5-10.1-1-1h-2l-1 2-9.1 17c-2 6.1-3 11.2-3 17.2m-227.8 1c0-6 0-9-2-14-2.7-9-6.8-17.5-12-25.3h-2l-7.1 13.1 1 2c3 4 4 8.1 4 13.1l4 15.1 1 1c3 7 2 13.1-2 19.2l-5 7-5 6-5 9c-2.1 8.1-1 16.2 3 23.2l1 1v-1l4-11 9-16.1 8.1-17.1c3-8 5-16.1 5-25.2m112.9 317 11-1 3.1-1c10-3 20.2-6 30.2-11 14.1-7.1 27.2-16.2 40.3-25.2h1v-2l-2-3c-2-3-2-6.1-1-9.1l1-2v-1h-2l-17.1 3c-9 3-18.1 7-27.2 13-5 4-11.1 7.1-18.2 10.1-6 2-12 3-18 2-6.1 0-11.2-2-16.2-7-2-3-4-7-4-11l3-6.1-1-1h-7c-9.2 1-17.2 3-26.3 6l-28.2 10v2.1l2 2 21.2 13c8 5.1 17.1 9.1 27.2 12.2l18.1 6 10.1 1m-18.1-54.3h3c3 0 3 1 2 4-2 4-1 8 1 11l6 5.1c4 2 9.1 2 13.2 2 5 0 10-2 15-4l13.2-6c8-5 17.1-8.1 27.2-11.1 7.7-2.5 16-3.5 24.2-3l1 1-1 2v6l3 3h3l4-3 20.2-19.1c10-10 17.1-21.1 23.2-33.2 0-1 1-3-1-4-3-3-4-6-3-10.1l1-1-2-1h-2c-9.2 2-17.2 4-25.3 8l-22.2 10-18 6.1c-6.1 1-12.2 1-18.2-1-4-1-8-3-10.1-6-4-4-5-9-3-14.1l1-1-1-1h-1l-17.2 3-27.2 11-16 8.1-16.2 4c-6 0-11.1 0-16.1-2l-7-5c-4.1-5-5.1-10-2.1-16.1l2-2v-1h-1l-7 1c-10.1 2-21.2 5-31.3 9-10 4-20.1 8.1-30.2 10.1l-1 1-1 1 1 2 14 19.2 19.2 19 14.1 12.2c1 1 3 2 5 1l3.1-1 21.2-6c13-4.1 26.2-7.1 39.3-8.1m-148.2-159a230.7 230.7 0 0 0 12.1 79.5l14.1 31.2c3 5 1 5 8 4l17.2-6 36.3-11.1 16.1-2h3l1 1v2l-2 2-2 3c-2 3-1 7 1 10l5 3.1 9.1 2 15.1-1 19.2-7 22.2-9.1a100 100 0 0 1 32.2-5l1 2-1 2c-2 3-2 6 0 9 1 2 3 4 6 5 5 3.1 10.1 3.1 15.2 3.1l16-4c13.7-4.4 27.2-9.5 40.4-15.1a95 95 0 0 1 21.2-3l1 1-1 1c-1 4 0 6 2 9h2l2-3 5-11c11-23.7 16.9-49.5 17.2-75.5a362 362 0 0 0-5-70.5l-8.1-30.2a204.3 204.3 0 0 0-13.1-37.2l-2-1-1 2v4c-1 6-1 13.1-3 19.1V338l7 15.1 3 7 3 6c2.4 10.6.2 21.5-6 30.3l-2-1-1-2-4-10.1-8.1-11-11.1-19.2a87 87 0 0 1-4-41.3c1-5 2-10 5-14l3-7v-1.1h-1l-9 4c-2 1-4.1 3-5.1 6l-2 5.1-8 13-9.2 7.1c-4.9 3.8-9 8.7-12 14.1h-2l-2-7c-3.1-9-2-18.1 2-27.2l11-16.1a58 58 0 0 1 23.2-18.1l2-1 1-1-1-1c-4-1-8 0-12 2l-6.1 5c-6 5-13.1 6-20.2 5l-3-1c-6-1-11-3-17.1-2l-1-1v-1l2-2c5-4 10-9 16.1-12a58.8 58.8 0 0 1 44.3-8.1l1-1-2-2-10-14.1a84.9 84.9 0 0 0-22.2-20.2l-9-6-23.3-14.1-38.2-13c-4-2.1-9.1-2.1-14.2 0l-26.2 9c-10 3-19.1 8-28.2 13l-17 12.1-17.2 14.1-9 11-6.1 10.2-1 1h2l8-1c12.1-1 23.2 1 33.3 6 8 4 15.1 10 21.1 15l2 3.1-1 1-16 2-7.1 1c-5 1-10.1 0-14.1-3l-6-4-4.1-3a14 14 0 0 0-13.1-1l3 2a69 69 0 0 1 33.3 32.2c4 7 6 15 5 24.1l-4 12.1h-2l-1-2c-2-4-6-7-9.1-10l-6-5a62.1 62.1 0 0 1-13.2-18.2l-1-3c-2-4-4-7-8-9l-4-1-3-1.1c-1 1 1 2 1 3l2 4c4 9.1 6 19.2 6 28.2l-2 13.1c-1 9-4 18.1-9.1 26.2l-9 12c-3 6-7.1 11.1-8.1 18.2l-1 1-2 1-1-1-5.1-14.1c-2-8-1-16.1 3-23.2l4-7 4-10c2.1-5.1 3.1-10.1 1-15.2l-2-14v-6.1l-2-5h-2v2c-6 11-10 22.1-14 34.2l-8.1 30.2c-3 11-5 22.1-5 32.2l-1 25.2m-7.1-6a251.5 251.5 0 0 1 23.2-112.8 234 234 0 0 1 43.3-68.4l9-10.1 15.2-16.1 19.1-15 10-6.1a184 184 0 0 1 51.5-16.1l14 1c21 3.8 41 12 58.5 24.1l11.1 9a130 130 0 0 1 19.2 20.2l15 17.1c24.9 29 42 63.5 50.4 100.7 3.6 16.3 6.6 32.8 9.1 49.3 4.9 70.5-18 140.2-63.5 194.2l-19.1 17.1a284.1 284.1 0 0 1-48.4 27.2c-11 4-23.1 7-35.2 9h-5c-8.1 1-16.2-1-24.3-3-12-2-23.1-7-34.2-12-13.1-7.1-25.2-13.1-36.3-22.2-8-6-15.1-12-22.2-20.1-9.7-11.6-18.6-24-26.2-37.3a277.4 277.4 0 0 1-34.3-129.8"/>
    <path d="M348.5 373.2h9v-1c-3.2-2.4-6.6-4.7-10-7l-7 7v1h8m-2 62.4v-12c0-2-1-3-3-3l-4 1c-4 0-4 0-3 4v29.1l1 9.1c-1 2 0 2 2 2s2-1 3-2c2-2 2-6 3-9l1-19.2m5-2c.5 8.4 1.1 16.8 2 25.2l1 5c1 2 3 3 5 2l1.1-1 1-13 1-4.1-1-6v-18.1c1-2 0-2-1-2l-7-1c-2 0-2 1-2 2v11m-60.5-13h-2l-6 1-1.1 1v7l-1 9v11.1c1 4 2 8 1 12-1 2.1 0 2.1 1 2.1l9 1 1-1 1.1-7 1-10.1v-15.1l1-10c1-1 0-2-1-2l-4 1m125 7v-5l-1-2-12.2-1-2 2 2 14v18.1l2 10.1 1 1 8.1-1h1l1-1c-1-5 0-10 1-14v-8.1c-1-4-2-8-1-13.1m-18.1 3v-8c0-2-1-2-2-2l-12.1 3 2 13v13.1c-2 5-2 10-2 15.1 0 2 1 3 3 3l10-1c1-1 2-1 2-3v-16.1l-1-17.1m-98.7 34.2 1 1 12.1 2 1-2c1-5 1-9-1-14v-30.2l-10-1h-1l-1 2v1c0 8 0 16-2 24.1v8l1 9.1Zm80.6-29.2v-12l-2-2h-10l-1 1v16l-1 5v21.2c0 1 0 2 2 2l8 1h4l2-2v-8l-1-5-1-10.1v-7m-63.4 18v13.1l1 1h2l12-3 1-7c1-5 1-10.1-1-15.1-2-6-1-11.1-1-16.1l1-3c0-2-1-2-2-2l-11 3c0 3 1 22.1-2 29.1Zm118.9-23.1v-4c0-3 0-3-2-3H420v39.2l1 1 14.2-1 1-12v-5.1l-1-15.1m-166.3 33.2h7l2-2-1-7 1-6v-7.1c-1-6-1.3-12.1-1-18.1l-1-1h-1l-10 1c-3 0-3 0-3 2v36.2c0 2 0 3 3 3l4-1m196.5-41.3-2-1h-1l-15.1 1-5 1c-2.1 0-2.1 0-2.1 2 1 6.1 1 13.1-1 19.2v7c1 4 2 8 1 12.1l1 2h2l23.2 7c1 1 1 1 2-1 1-3 0-6-1-9l-3-27.2 1-13ZM229.6 473h2l15.1-5 9.1-2 2-2v-20.2a50.9 50.9 0 0 1 0-19.1l-1-1h-2l-16.1-2h-4l-2 1 1 9c0 11-1 22.1-4 32.2v9Zm119 4h50.3l29.2-2 25.2-1h2v-1a1755 1755 0 0 0-22.2-5l-11 2h-43.4l-12 1-13.2-1H279l-14.1-2h-4l-18.2 5-1 1h2l24.2 1 28.2 1 25.2 2 27.2-1m93.7 14 22.2 1h1l3-3v-2l-1-8c0-2 0-2-2-2h-3l-19.2 1-26.2 1-7 1-17.2 1h-72.5l-20.2-1c-23.4-1.7-47-2.3-70.5-2v10c0 2 1 4 3 4H280l22.2 3.1h8c10-2 21.2-2 31.3-2h14l29.3 1 9 1 17.2-2 31.2-2m-185.4-76.5c9 0 17.1 1 26.2 3h23.2l22.2-1 17-3c1-9 1-18.1-1-26.2l-2-6-2-1a89.8 89.8 0 0 0-25.1 9 239.4 239.4 0 0 1-71.6 24.2l-15.1 1-2 1-5-1c8.6-3.1 17.4-6.1 26.1-9a310.3 310.3 0 0 0 93.8-43.3l3-3c3-2 6-1 8 1l8.1 4a435 435 0 0 0 80.6 39.2l27.2 8 7 3h1l-1 1.1-7-1c-30.6-3-60.4-11.9-87.6-26.2-7.1-4-15.2-7-23.2-8l-3 1-1 4-2 16.1v12c5.3 1.2 10.7 2.2 16 3.1l22.2 1 6 1 24.2-2 14.2-1c10-1 20.1 0 30.2 1l2 1c2 0 3 1 3 2l1 6c3 15.7 3.5 31.7 1 47.4a67.8 67.8 0 0 1 1 19c0 1-1 2.1-3 2.1l-12 1-31.3 3c-5 1-10 0-15.1-1-6 0-12.1-1-18.2 1l-16 1-27.3-1-5 1h-28.2l-11.1-1-8-1H287c-8 2-16 1-24.1 1l-21.2-3-14.1-1-2-2-1-5 1-14.1v-34.3l1-14 1-4c1-2 2-3 5-4h5l19.2-2.1M429.1 509l-5-1v-1l4-1 18.1-3 24.2-1 15.1 1h3v1l-6 1c-6 2-13 2-19.1 3l-21.2 1h-13m-109 3c-8.7.4-17.4-.3-26.1-2l-1-2 1-1h30.2l11.1 1 3 1 1 1-1 1h-2l-5 1h-11.1m-108.8 0-12.1-2-1-1 1-1 13-1h22.2l5 2-5 2-23.1 1m193.4 18.1-7-1v-2l3-1 11 1h1.1v2l-6 1h-2M204.3 491l-5-1-1-1c-1-1 0-2 1-2h5l6 1v2l-6 1m288.3 20c1 0 3 0 4 2l-5 1h-4v-2l5-1m-55.2-153c0 .3-.3 6.8-.2 13.3-6.9.5-5.8-13.4-5.4-15 .2-1.5-4.4 1.6-6.6 3.7.7 1.4 1.7 1 3 .6-.6 6.2 3.8 11.8 9 11.7.2 6.5.9 12.6 2.7 13.1.2.1.5-6.5.6-13.8 12.3-3.8 7.6-18.4 7.6-18.4-.2-.8-2 .3-6 4 1.5 1.6 2.3.6 3.5.2 1 2 1.5 10.6-5.1 13.2l.3-18.1c0-.2-.2-.3-.4-.3-1.8.2-5 3.4-7.6 6.1 1.5 2.3 3.2.2 4.6-.4m6 19.3 2.7 2.8 2.9-2.8-2.9-2.9-2.8 2.9Z"/>
  </g>
</symbol></svg>
