<svg xmlns='http://www.w3.org/2000/svg' viewBox='0 0 696 830' fill='none'><symbol id='KEMC_Outline'>
  <g fill="#FDBE00">
    <path d="m346 703.4 20-1 32-7c25-5 47-17 66-33l28-26a236.8 236.8 0 0 0 62-103l8-35c4-18 6-36 6-55l-2-36-3-28a508.5 508.5 0 0 0-17-73l-19-51-13-26c-10-17-22-33-34-48-14-18-32-30-53-38l-34-10a205.2 205.2 0 0 0-60-5 209.2 209.2 0 0 0-59 13c-24 6.2-45.3 19.8-61 39a438.8 438.8 0 0 0-47 72l-11 29-14 38a279.8 279.8 0 0 0-13 64l-2 24c-1.9 30.7-.5 61.6 4 92l9 37c9 29 24 55 43 79 12 16 26 29 40 42l9 7c17 14 37 24 58 30l27 6 11 2 19 1m229-276-1 27-2 19-2 17c-2.5 25.7-8.6 51-18 75a282 282 0 0 1-79 103c-18 15-39 25-62 31l-24 5-20 3-21 2-30-3-21-4a159.2 159.2 0 0 1-87-44 308.8 308.8 0 0 1-72-103c-5-12-8-25-10-38l-4-31a1115 1115 0 0 1-4-41v-37l2-30c2.8-28 9.2-55.6 19-82l18-45c3-9 8-18 13-26l32-44c13-15 29-27 46-36 13-7 26-12 39-17 8-2 15-5 23-6 9-2 17-2 26-2h19c13-1 25 1 38 4 15 5 29 10 44 17 16 8 31 18 44 31l14 16a414.9 414.9 0 0 1 41 63l20 52c10.3 27 16 55.3 17 84l1 17 1 23"/>
    <path d="m179 429.4 1 11a252 252 0 0 0 10 64c5 15 13 30 20 45 4 8 9 15 15 21a257.9 257.9 0 0 0 72 56c13 7 26 11 40 14 5 1 9 2 14 1a158.2 158.2 0 0 0 54-22c20-12 39-26 55-43 8-9 15-18 20-29l13-26a202.6 202.6 0 0 0 17-113l-3-23-8-32c-6-22-14-42-25-61l-18-32a139.2 139.2 0 0 0-30-34c-12.2-7.9-24.5-15.6-37-23l-35-13c-6-2-12-2-18 0l-14 5c-12 4-23 8-34 15l-19 12a134.4 134.4 0 0 0-36 38l-19 35c-9 16-16 33-21 50l-12 55-2 29m340-12c0 26-2 50-8 73-3 12-8 24-13 35l-11 23c-5 11-11 21-19 31l-14 16c-8 9-17 16-27 22-10 7-21 13-32 18-13 6-26 10-40 12-9 2-18 1-26-1a221.7 221.7 0 0 1-78-37c-10-8-19-17-27-27-9-11-17-23-23-37l-16-35a224.5 224.5 0 0 1-14-72v-26c0-14 2-28 5-42 3-12 5-23 9-34 8-28 21-54 40-77l20-24c12.4-15 27.2-28 44-38a176.5 176.5 0 0 1 55-16h8l27 7 15 6c8 3 15 8 22 13a456 456 0 0 1 26 24l23 28c22 28 36 58 44 92 3.7 17.3 7 34.6 10 52v14"/>
    <path d="M359 366.4c-3 0-7 1-10 3l-7 4-11 11-9 15c-3 5-6 10-11 14-1 1-1 1 1 2l5 2 12 8 4 8c3 10-2 16-9 18l-5 1-9-2h-1v1c5 11 16 16 26 15 8-1 15-4 20-10l5-6 7-10c4-6 9-13 15-17v-2l-9-2c-5-2-10-5-14-9-4-3-7-7-9-12-3-8 1-16 7-20 4-3 9-4 14-3l5 1v-1c-4-6-9-9-17-9m15 141v-5c1-5 2-9 5-13l3-4c1-1 3 0 4 1l1 3 1 4 4 12c3 5 7 9 13 10l7 2c5 1 10 1 14 3 7 2 12 7 15 13l1 3 1-3 1-3c0-6-2-11-7-16l-7-6-14-10a35 35 0 0 1-12-37c0-2 2-2 3-1l3 3 8 9 14 10c7 2 14 3 21-1l8-3 7-3c6-1 10 1 14 6l1 1 1 1v-1l-2-8c-2-6-7-10-14-12l-8-1h-9c-9 0-17-4-22-12l-5-8-4-9-3-3c-8-7-17-8-27-4-4 2-8 6-10 9l-7 11-10 13c-3 6-8 10-14 12-9 4-18 5-27 1-9-3-15-9-17-18v-6c0-2 1-3 3-2l3 1h9c5-1 7-5 5-11l-4-6c-6-5-14-8-22-8-6-1-13 0-19 1-15 3-27 9-37 21l-5 6-4 7-7 8c-6 5-14 5-20 1l-2-2h-1v1l4 11c4 5 8 8 15 7 3 0 7-1 10-3l8-6 10-9c4-3 8-5 13-6 6-2 12-2 17 0l5 3v4l-3 2-7 4-9 8c-4 4-6 8-6 13l-1 9-1 8c-1 7-5 12-12 15l-4 2h-1 1c6 3 13 2 18-2 4-3 7-6 9-10l6-10 4-8a32 32 0 0 1 28-16c3 0 4 2 2 5l-3 3c-2 5-5 9-6 14-2 6-2 11 0 17l3 6 3 8c2 9-1 16-8 21l-5 3-1 1h1c6 1 11-1 15-5 5-4 7-9 9-14l2-14 3-14c2-5 4-9 7-12s7-5 11-6c5-1 8 1 10 5v11l1 12c1 6 4 12 8 16l10 9 7 6c3 3 4 7 4 12l-2 8v1l1-1 2-1c5-5 7-12 6-19 0-5-3-10-5-15l-4-9c-2-7-5-14-5-21m46-132c-5.6 0-11-1.4-16-4-2-1-2-2 0-3l2-1 3-2c6-3 12-6 16-12 2-3 3-7 3-11v-10l-1-7 2-6c2-5 6-7 10-7l7 2 2 1h1v-1c-6-8-17-9-24-1l-3 4-4 8-5 10c-4 7.1-11 12-19 13l-6-1c-2 0-2-1-2-3l1-4c2-5 3-10 2-15l-3-12-2-15c1-7 3-14 8-19l5-5 1-1h-3c-13 2-22 9-25 22l-1 3-1 14a36.9 36.9 0 0 1-23 30c-3 1-5-1-5-4v-3l2-15c0-9-3-15-10-20l-6-4-8-5c-7-6-9-12-8-20l1-5v-1l-1 1c-5 7-7 15-5 25l4 9 6 9c3 8 5 15 4 23-1 5-3 10-6 13l-4 4h-3l-1-4-5-11c-4-8-11-12-19-13l-9-2c-9-2-16-7-19-16l-2-7-1-3-2 3c-2 5-3 9-2 14 2 5 5 9 9 13l8 6 9 7a38 38 0 0 1 14 34c-1 2-2 2-4 1l-2-3-8-9c-6-5-13-8-21-8l-10 2-9 3-9 1c-5-1-9-4-12-9l-2-3v4a28 28 0 0 0 16 19l10 4 12 3c7 2 11 6 15 12l4 7 4 7a25 25 0 0 0 26 11c4 0 7-2 9-5 5-5 8-10 11-15l7-11 9-11c9-7 19-11 30-9 7 0 13 4 18 10l4 6v4c0 2-1 3-3 2l-2-1-5-1c-4-1-8 0-11 2-4 2-6 7-5 12l4 6c5 5 10 8 16 10 14 5 27 5 40 2 9-2 17-6 23-13l7-10 6-11 8-10c3-3 6-5 10-6 5-2 9-1 13 3l2 3 1-1c1-12-9-22-23-18-4 1-8 3-11 6l-9 8-11 7c-4 3-9 4-14 4m-106-48c0-5-1-10-3-14l-5-9-5-10a28 28 0 0 1 12-34c1-1 3 0 3 2v12l5 8 6 4 9 5 9 8c4 6 6 13 5 21 0 5-1 9-3 14h1c8-7 12-15 13-25l1-13c2-11 8-19 18-23 6-3 13-5 19-4l5 1c2 1 2 2 1 3l-2 2-5 5c-5 8-7 15-5 24l3 11 2 11-2 14-1 3c-1 0 0 1 0 0l4-1c4-2 8-5 10-9l4-8 5-9c1-3 3-5 6-7 8-8 18-8 26 0 3 2 5 6 6 10v2l-1 2h-3l-2-2-5-4h-4c-3-1-5 1-5 4l1 6 1 8c2 14-3 24-15 30l-9 4-1 1h1c5 1 10 1 15-1l11-7 8-7 12-7c5-3 11-4 16-2a21 21 0 0 1 14.3 26l-.3 1c-1 2-3 3-4 1l-2-2c-4-6-8-6-13-1-3 2-5 6-7 9l-6 11-7 11c-2 4-5 7-9 10-6 5-13 8-21 8h-2l-1 1 1 1c4 3 7 8 10 13l3 7 6 8c4 4 10 5 15 5l8 1 10 1c9 3 15 10 17 19v11l-1 4h-4l-1-3-1-2c-3-5-7-6-12-4l-6 3-9 5c-7 3-15 3-23 0s-15-9-20-16l-1-2-2-2v3c1 9 5 15 11 20l7 4 7 4 11 9c5 6 7 14 5 22a30.2 30.2 0 0 1-6 12c-1 1-3 1-3-1l-1-2c-2-8-8-13-17-14l-15-1-5-1c-13-4-19-14-20-25l-1-3v-2l-1 2c-1 6-1 11 1 17l4 10 6 11c5 9 4 18 1 28a26.1 26.1 0 0 1-16 15c-2 1-3-1-2-3l1-3 2-8c0-4-1-6-3-9l-6-4-8-5-9-8c-5-5-8-12-9-20 0-5.8 1-11.6 3-17l-1-2-3 1c-4 1-7 4-10 8-2 3-4 7-4 12l-3 14-4 12-8 10c-4 4-9 6-14 6-3 0-6 0-8-2-2-1-2-2 0-4l3-2c6-5 8-11 5-18l-4-9c-2-4-4-9-4-14-1-9 2-16 8-23l6-5 1-1h-1c-8 2-15 6-19 13l-5 10-7 12c-2 4-5 6-8 9a24 24 0 0 1-30-1l-1-2 2-2h3l8-2c4-2 6-6 6-10l-1-7v-6c-2-11 2-20 11-27 4-3 8-6 13-7l3-2h1-1l-2-1c-8 0-15 1-21 5l-7 6-11 9c-4 3-8 4-12 5-8 2-14 0-19-6-5-5-7-11-7-17v-3c1-2 2-3 4-2l2 1c7 4 12 3 16-2l5-7 6-13 8-11c7-7 16-11 25-12h4v-1l-13-19-3-6c-4-4-8-7-14-8l-13-2c-7-2-13-5-18-11-4-4-6-10-6-16 0-3 0-6 2-8l1-3h4l1 2 3 3c3 4 8 6 13 4l7-3c4-1 7-3 11-3 6-2 12 0 18 3 5 2 9 6 13 10l6 7 1 1v-1c-2-11-7-20-16-27l-9-6-10-9c-4-4-6-9-6-14l1-9 5-10 4-2 3 3v3l3 6c3 6 8 10 15 11l10 2 6 2c9 3 15 10 18 19l2 7v3l1 1v-1c2-4 4-8 4-12v-4"/>
    <path d="m218.7 419.8 2.8 2.8 2.8-2.8-2.8-2.8-2.8 2.8Zm-5.9-19c0 .3-.3 6.7-.2 13.2-6.8.5-5.7-13.3-5.3-15 .2-1.4-4.4 1.7-6.6 3.8.7 1.3 1.7 1 3 .5-.5 6.2 3.8 11.8 9 11.7.1 6.4.7 12.5 2.6 13 .2.1.4-6.5.6-13.7 12.2-3.8 7.6-18.3 7.6-18.3-.2-.8-2 .3-6 4 1.6 1.6 2.3.6 3.6.2 1 2 1.4 10.5-5.2 13.1l.3-18c0-.2-.2-.3-.4-.3-1.8.2-5 3.4-7.5 6.1 1.4 2.2 3.1.2 4.5-.4"/>
  </g>
</symbol></svg>
