<svg xmlns='http://www.w3.org/2000/svg' viewBox='0 0 696 830' fill='none'><symbol id='KEMC_Fill'>
  <g fill="none">
    <path fill="#FDBE00" d="M591.2 425c-.8 54.2-10.6 108-29 159a300.7 300.7 0 0 1-78 99c-20 17-44 29-70 35l-34 6a180.2 180.2 0 0 1-63 0c-11-2-22-3-32-6-30-6-57-20-79-41-13-13-26-25-37-39-18-24-34-49-44-77-6-14-10-29-12-45l-5-48a400 400 0 0 1 1-99c4-31 11-60 22-88 5-11 9-21 12-32 7-16 14-31 24-45l28-36c15-18 33-32 54-42 18-9 36-15 54-21 12-3 23-3 35-3l7 1h37l17 4 29 10a181.8 181.8 0 0 1 76 54c17 20.9 32 43.3 45 67l23 61a426.7 426.7 0 0 1 18 97l1 29Z"/>
    <path fill="#FFF" d="m577.2 426-3 48-3 30c-3 23-9 45-19 66-14 28-31 54-54 76l-20 19c-19 18-42 29-67 35l-30 5-19 3-13 1-30-3-25-5c-29-5-56-18-78-38-12-12-25-24-36-38-17-22-31-46-41-72-6-13-9-27-11-42l-5-44a390.1 390.1 0 0 1 1-91c3-29 9-57 19-84l17-42c3-9 8-17 13-25 10-14 20-29 31-42 14-17 31-29 50-39 20-10.2 41-17.9 63-23h45c10-1 19 0 29 3 17 5 33 10 49 18 22 10 41 25 56 44 9 11 18 23 26 36 8 11 14 22 18 35l19 47a477 477 0 0 1 18 110v12Zm-451 19a277 277 0 0 0 14 88c9 31 24 59 44 84 15 18 31 33 49 48 16 14 35 24 56 29l37 8a127 127 0 0 0 46 0l26-5c27-6 50-17 71-35l33-32c23-25 41-54 52-86a328.1 328.1 0 0 0 12-174c-3-21-8-43-16-64l-19-49c-4-12-10-24-17-35a526.8 526.8 0 0 0-36-47c-12-14-27-24-44-31l-42-12c-13-4-27-5-40-6l-17 1-16 2c-18 3-34 8-51 14-11 3-21 8-31 15-9 8-17 15-25 25a535 535 0 0 0-45 71l-19 51-12 42c-5 23-7 47-9 71l-1 27Z"/>
    <path fill="#FFF" d="M522.2 418c-.3 36.3-7.4 72.3-21 106l-11 25c-7 13-15 25-25 37-12 14-25 26-41 35-13 7-26 14-40 19-9 4-19 6-29 7h-20a185.9 185.9 0 0 1-129-98c-7-15-14-29-19-44a305 305 0 0 1-8-132l10-41c10-30 25-56 45-80l20-23a143.7 143.7 0 0 1 79-46l14-2 8 1c19.3 3 38 9.4 55 19 13 9 25 19 35 31l22 27c21 27 36 58 44 92 3.9 16.9 7.2 33.9 10 51l1 16Zm-341 12 2 36c2 15 5 30 11 44 5 14 12 27 18 40 5 9 11 16 17 24 21 23 47 41 74 55 12 6 24 10 37 13h13a161 161 0 0 0 58-23 238 238 0 0 0 69-64c9-15 16-31 22-47 8-21 11-42 12-64 .5-19.7-.8-39.5-4-59l-7-29c-5-21-13-41-23-60l-16-28c-9.2-16.4-21.5-31-36-43a1647 1647 0 0 0-36-22c-12-6-24-10-37-14-5-2-10-2-16 0l-18 7a161.5 161.5 0 0 0-56 30c-12 10-22 21-29 34l-19 33c-9 16-16 32-21 50a1269 1269 0 0 0-13 51c-2 12-2 24-2 36Z"/>
    <path fill="#FDBE00" d="M181.2 430c0-12 0-24 2-36l4-17 9-34c5-18 12-34 21-50l19-33c7-13 17-24 29-34l23-16c10-6 21-10 33-14l18-7c6-2 11-2 16 0 13 4 25 8 37 14l18 9c11 8.6 22 17.2 33 26 8 9 15 19 21 30l16 28c10 19 18 39 23 60l7 29c2.8 19.5 3.8 39.3 3 59 0 22-3 43-11 64-6 16-13 32-22 47-4 8-10 15-16 21a236.7 236.7 0 0 1-111 66h-13c-13-3-25-7-37-13-27-14-53-32-74-55-6-8-12-15-17-24-6-13-13-26-18-40-6-14-9-29-11-44l-2-36Zm241-58-7-1-1-1 1-1 4-1 12-6c6-5 10-12 10-20l-2-14-1-6c0-4 2-6 6-6 3 0 5 1 7 3l4 3 2 1 1-2v-3c-2-5-5-8-9-11-7-4-14-4-20 1l-6 6-5 10-5 9-10 10-5 2c-2 0-2-1-2-2l1-2c2-4 3-9 3-14l-2-12-3-10-1-11c2-8 6-14 11-19l3-3c-1-2-3-2-4-2h-2c-6-1-13 1-19 4-10 4-16 12-18 23l-1 12c-1 9-4 17-11 24l-3 3h-1l1-3 2-13c1-10-2-19-10-25l-9-6-8-5c-4-2-6-6-7-11v-11c0-2-1-2-2-2l-2 2c-9 7-14 19-10 31l5 10 5 10c6 10 4 21-1 31l-1 1-1-1-1-9c-3-13-11-21-25-23l-9-2c-8-1-13-5-17-12l-2-6-1-3c-1-2-2-3-4-1v1c-9 9-9 22-1 31 2 4 6 6 9 9l10 7c9 6 14 15 16 26v4c-2 0-2-2-3-3l-1-1c-4-6-9-11-15-15-6-3-13-5-20-3l-11 3-8 3c-3 1-6 1-9-1l-5-5-2-3h-3l-2 5c-1 5-1 10 2 15 3 8 10 13 18 16l12 2c9 1 16 5 21 13l5 10 6 8 4 4-6 1c-11 2-20 6-27 15-4 4-6 9-9 14l-4 8-4 6c-5 5-10 6-16 2l-3-1c-1-1-2 0-2 1l-1 3c0 6 2 11 6 16 3 4 6 6 11 7s9 0 13-1c5-2 9-5 12-8l10-8c3-2 6-5 10-6 6-2 12-3 18-1h1l-1 1-3 1-13 7c-6 4-10 10-12 17v15l1 9c1 4-1 7-4 9l-6 2-7 1-1 1v2l3 2c8 5 17 5 26-1l9-9 6-12 5-9c4-7 11-12 18-14l4-1v1l-2 2c-3 3-6 5-8 9-6 8-7 16-4 26l4 9 3 8c2 6 1 11-4 15l-4 3c-1 1-2 1-2 3s2 2 3 2h1c5 2 10 0 15-2 5-3 9-8 11-13 3-5 4-11 5-17l3-13c1-4 2-7 5-11 3-3 6-5 10-6 3-1 4 0 3 4l-1 3c-1 5-2 11-1 17 2 9 7 16 14 21l9 5 7 6c4 3 5 8 4 14l-2 5c-1 2-2 3 0 4h3c6-4 11-8 13-15 4-10 4-19-1-28l-6-10-5-13c-1-6-1-12 1-18l2-1v1l1 10c2 11 8 17 18 20l6 2 15 1c9 1 15 5 17 14l1 1 1 2c1 1 2 0 3-1l4-9c2-9 1-17-6-24-3-4-8-7-12-9l-10-6c-4-3-8-8-11-13-2-4-2-8-2-12v-1h1l2 3c5 8 12 14 21 18 8 3 16 3 24-1l8-4 6-3c5-2 9-1 12 3l2 4 2 2c2 0 2-1 2-3 3-16-6-29-20-31l-14-1c-9 0-16-4-21-12l-4-8-10-14-1-2h4a40.8 40.8 0 0 0 30-18l7-13 7-12 7-8c4-4 8-3 12 2l1 1c1 1 1 3 3 2 2 0 2-2 2-3l1-1c3-17-13-27-25-24l-14 7-11 9-9 6c-4 2-8 4-13 4Z"/>
    <path fill="#FFF" d="M422.2 372c5 0 9-1 13-4l9-6 11-9 14-7c12-3 28 7 25 24l-1 1c0 1 0 3-2 3-2 1-2-1-3-2l-1-1c-4-5-8-6-12-2l-7 8-7 12-7 13-10 10c-6 5-13 7-20 8h-4l1 2 10 14 4 8c5 8 12 12 21 12l14 1c14 2 23 15 20 31v1c0 1 0 2-2 2l-2-2-2-4c-3-4-7-5-11-3-3 0-5 2-7 3l-8 4c-8 4-16 4-24 1-9-4-16-10-21-18l-2-3h-1v1c0 4 0 8 2 12 3 5 7 10 11 13l10 6c5 2 9 5 12 9 7 7 8 15 6 24l-4 9c-1 1-2 2-3 1l-1-2-1-1c-2-9-8-13-17-14l-15-1-6-2c-10-3-16-9-18-20l-1-10v-1l-2 1c-2 6-2 12-1 18 1 5 3 9 6 13l5 10c5 9 5 18 1 28-2 7-7 11-13 15h-3c-2-1-1-2 0-4l2-5c1-6 0-11-4-14l-7-5-9-6c-7-5-12-12-14-21-1-6 0-11 1-17l1-3c1-4 0-5-3-4-4 1-7 3-10 6-3 4-4 7-5 11l-3 13c-1 6-2 12-5 17-2 5-6 10-11 13-5 2-9 4-15 2h-1c-1 0-3 0-3-2s1-2 2-3l4-3c5-4 6-9 4-15l-3-8-4-9c-3-10-2-18 4-26 2-4 5-6 8-9l2-2v-1l-3 1c-8 2-15 7-19 14l-5 9-6 12-9 9c-9 6-18 6-26 1l-3-2v-2l1-1 7-1 6-2c3-2 5-5 4-9l-1-9v-15c2-7 6-13 12-17l13-7 3-1 1-1h-1c-6-2-12-1-18 1-4 1-7 4-10 6l-10 8c-3 3-7 6-12 8-4 1-8 2-13 1s-8-3-11-7a25.9 25.9 0 0 1-5-19c0-1 1-2 2-1l3 1c6 4 11 3 16-2l4-6 4-8c3-5 5-10 9-14 7-9 16-13 27-15l6-1-4-4-6-8-5-10c-5-8-12-12-21-13l-12-2c-8-3-15-8-18-16-3-5-3-10-2-15l2-5h3l2 3 5 5c3 2 6 2 9 1l8-3 11-3c7-2 14 0 20 3 6 4 11 9 15 15l1 1c1 1 1 3 3 3v-4c-2-11-7-20-16-26l-10-7-9-8c-8-10-8-23 1-32v-1c2-2 3-1 4 1l1 3 3 6c3 7 8 11 16 12l10 2c13 2 21 10 24 23l1 9 1 1 1-1c5-10 7-20 1-31l-5-10-5-9a28 28 0 0 1 12-34c1 0 2 0 2 2v11c1 5 3 9 7 11l8 5 9 6c8 6 11 15 10 25a72.9 72.9 0 0 1-3 16h1l3-3c7-7 10-15 11-24l1-12c2-11 8-19 18-23 6-3 13-5 19-4h2c1 0 3 0 4 2l-3 3c-5 5-9 11-11 19l1 11 3 10 2 12c0 5-1 10-3 14l-1 2c0 1 0 2 2 2l5-2 10-10 5-9 5-10 6-6c6-5 13-5 20-1 4 3 7 6 9 11v3l-1 2-2-1-4-3c-2-2-4-3-7-3-4 0-6 2-6 6l1 6 2 14c0 8-4 15-10 20l-12 6-4 1-1 1 1 1 7 1Zm-101-46c0 9-2 15-7 21-4 4-4 3-6-1l-5-12c-4-8-11-12-20-14l-11-2c-9-3-15-9-17-18l-1-8-1-1-1 1c-3 4-4 8-4 12 0 8 3 14 9 19l9 7 9 6a38.2 38.2 0 0 1 13 34c0 1-2 2-3 1l-2-3-8-9c-8-7-17-10-27-8l-7 2-9 3c-7 2-13-1-17-7l-3-5-1-1-1 2 2 8c3 8 8 13 16 16l9 3 12 4c6 2 11 6 15 12l4 6 5 9 3 3c6 5 12 8 20 8 5-1 9-2 12-6l8-11 8-12 10-13c9-8 19-12 31-11 9 1 15 6 20 14l1 5c1 3 0 3-3 2l-7-2c-3-1-7 0-10 2-5 3-7 9-5 14l5 7c4 4 9 7 15 9 13 5 27 5 40 2 12-2 21-9 27-19l5-8 5-9 8-9 8-5c5-2 10-1 13 3l3 3v1l1-1c2-11-6-21-16-21-4-1-8 0-12 3l-12 8-8 7-7 5c-10 4-19 3-28 0l-1-1v-3l3-1c7-3 13-7 18-13 3-5 5-10 4-16l-1-8 1-9c1-5 5-8 11-8 3 0 6 1 8 3l3 2c1-2-1-3-1-4l-2-3c-7-6-16-6-22 0l-6 7-3 8-5 10c-3 5-8 8-13 10-3 2-7 2-10 1-2 0-3-1-2-3l1-3c2-6 2-11 1-17l-3-15c-1-4-2-8-1-11 1-9 5-16 11-22l3-3v-1h-1c-4 1-8 1-11 3-9 3-15 9-17 18l-2 5-1 13a36 36 0 0 1-23 31c-2 0-4-1-4-3v-4c1-5 3-11 2-16 0-8-3-14-9-18l-8-6-8-5c-5-5-8-11-6-19l1-7v-1h-1v1c-6 7-9 15-7 24 0 4 2 8 4 12l6 10c2 5 4 11 4 16Zm57 181v-5c1-6 2-11 6-15 2-2 4-2 5 1l1 6 5 12c2 5 6 9 12 10l4 1 15 3c9 2 15 8 18 16v1l1 1 1-1c2-4 2-8 1-12-2-5-4-9-9-13l-8-6-16-13c-7-8-9-17-8-28 0-1 0-4 2-4 2-1 3 1 4 3l12 12c4 3 8 6 13 7 6 2 11 2 17 0l8-3 9-4c5-1 10 1 13 5l3 4v1l1-1c1-10-7-21-17-23l-8-1h-9c-9 0-16-4-21-11l-5-9-5-9-4-4c-10-8-25-7-34 2l-7 10-7 12-10 12c-8 7-17 10-27 9-11-1-19-6-24-16l-2-8c0-3 1-4 4-3l4 1h7c6-1 8-6 5-12-1-3-3-5-6-7-7-5-14-8-23-8l-11 1c-8 1-15 3-22 6-12 5-21 13-27 25a43.4 43.4 0 0 1-9 11c-6 6-15 6-21 1l-2-1h-1v1l3 10c4 7 10 10 19 9l6-2 7-5 10-8 7-6c6-3 12-5 18-5l12 4v4l-6 4-12 9c-4 4-7 9-8 15v8l-1 8c-1 7-4 11-10 14l-6 3h-1l1 1c7 3 14 2 20-3l8-8 6-10 5-10c5-8 12-13 21-14l6-1c2 0 2 2 2 3l-3 3c-3 5-6 10-7 16-2 5-2 10 0 16l3 7 3 8c2 8-1 15-8 20l-3 3-2 1-1 1h1c5 1 9 0 14-3 3-2 6-5 8-9 3-5 4-10 5-15l2-16c1-6 4-12 8-16 3-3 7-5 11-6 5-1 8 2 9 6v12l1 10c1 7 5 12 10 17l8 8 8 7c2 3 3 6 3 10l-2 8v2h2l2-3c6-5 7-12 6-19 0-5-2-10-4-14l-5-13c-3-6-4-12-4-18Zm-16-141-6 1c-5 1-9 3-12 6-7 8.4-13.7 17.1-20 26l-11 14-1 1v1l3 1c5 2 10 4 14 8 3 3 5 6 6 10 3 7-1 14-9 17-4 1-8 1-12-1l-2-1-1 1 1 3c5 10 16 15 26 14 7 0 14-4 20-9l8-11 7-11c3-5 7-9 12-12l2-2-3-1-1-1c-9-2-16-5-23-11-3-3-5-7-6-11-3-7 0-15 6-19 4-3 9-4 14-3l6 2 1-1v-1c-5-6-11-10-19-10Z"/>
    <path fill="#FDBE00" d="M321.2 326c0-5-2-11-4-16l-6-10c-2-4-4-8-4-12a27 27 0 0 1 7-25h1v1l-1 7c-2 8 1 14 6 19l8 5 8 6c6 4 9 10 9 18l-2 16v4c0 2 2 3 4 3l2-1c12-6 19-16 21-30l1-13 2-5c2-9 8-15 17-18 3-2 7-2 11-3h1v1l-3 3c-6 6-10 13-11 22-1 3 0 7 1 11l3 15c1 6 1 11-1 17l-1 3c-1 2 0 3 2 3 3 1 7 1 10-1 5-2 10-5 13-10l5-10 3-8 6-7c6-6 15-6 22 0l2 3c1 1 2 2 1 4l-3-2c-2-2-5-3-8-3-6 0-10 3-11 8l-1 9 1 8c1 6-1 11-4 16-5 6-11 10-18 13l-3 1v3l1 1c9 3 18 4 28 0l7-5 8-7 12-8c4-3 8-4 12-3 10 0 18 10 16 21l-1 1v-1l-2-3c-4-4-9-5-14-3l-8 5-8 9-5 9-5 8c-6 10-15 17-27 19-13 3-27 3-40-2-6-2-11-5-15-9l-5-7c-2-5 0-11 5-14 3-2 7-3 10-2l7 3c3 0 4 0 3-3l-1-5c-5-8-11-13-20-14-12-1-22 3-31 11l-10 13-8 12-8 11c-3 4-7 5-12 6-8 1-14-3-20-8l-3-3-5-9-4-6c-4-6-9-10-15-12l-12-4-9-3c-8-3-13-8-16-16l-2-8 1-2 1 1 3 5c4 6 10 9 17 7l9-3 7-2c10-2 19 1 27 8l8 9 2 3c1 1 3 0 3-1v-3c0-13-4-23-13-30l-9-7-9-7c-6-5-9-11-9-19 0-4 1-8 4-12l1-1 1 1 1 8c2 9 8 15 17 18l11 2c9 2 16 6 20 14l5 12c2 4 2 5 6 1 5-6 7-12 7-21Zm57 181c0 6 1 12 4 18l5 13c2 4 4 9 4 14 1 7 0 14-6 19l-2 3h-2v-2l2-8c0-4-1-7-3-10l-8-7-8-8c-5-5-9-10-10-17l-1-10v-12c-1-4-4-7-9-6-4 1-8 3-11 6-4 4-7 10-8 16l-2 16c-1 5-2 10-5 15-2 4-5 7-8 9-5 3-9 4-14 3h-1l1-1 2-1 3-3c7-5 10-12 8-20l-3-8-3-7c-2-6-2-11 0-16 1-6 4-11 7-16l3-3c0-1 0-3-2-3l-6 1c-9 1-16 6-21 14l-5 10-6 10-8 8c-6 5-13 6-20 3l-1-1h1l6-3c6-3 9-7 10-14l1-8v-8c1-6 4-11 8-15l12-9 6-4v-4l-12-4c-6 0-12 2-18 5l-7 6-10 8-7 5-6 2c-9 1-15-2-19-9l-3-10v-1h1l2 1c6 5 15 5 21-1l4-5 5-6c6-12 15-20 27-25 7-3 14-5 22-6l11-1c9 0 16 3 23 8 3 2 5 4 6 7 3 6 1 11-5 12h-7l-4-1c-3-1-4 0-4 3l2 8c5 10 13 15 24 16 10 1 19-2 26-9l11-12 7-12 7-10c9-9 24-10 34-2l4 4 5 9 5 9c5 7 12 11 21 11h9l8 1c10 2 18 13 17 23l-1 1v-1l-3-4c-3-4-8-6-13-5l-9 4-8 3c-6 2-11 2-17 0-5-1-9-4-13-7l-12-12c-1-2-2-4-4-3-2 0-2 3-2 4-1 11 1 20 8 28l16 13 8 6c5 4 7 8 9 13 1 4 1 8-1 12l-1 1-1-1v-1c-3-8-9-14-18-16l-15-3-4-1c-6-2-10-5-13-10l-4-12-1-6c-1-3-3-3-5-1-4 4-5 9-6 15v5Z"/>
    <path fill="#FDBE00" d="M362.2 366c8 0 14 4 19 10v1l-1 1-6-2c-5-1-10 0-14 3-6 4-9 12-6 19 1 4 3 8 6 11 7 6 14 9 23 11l1 1 3 1-2 2c-5 3-9 7-12 12l-7 11-8 11c-6 5-13 9-20 9-10 1-21-4-26-14l-1-2 1-2 2 1c4 2 8 2 12 1 8-3 12-10 9-17-1-4-3-7-6-10-4-4-9-6-14-8l-3-1v-1l1-1 11-14c6.3-8.9 13-17.6 20-26 3-3 7-5 12-6l6-1Z"/>
    <path fill="#FFF" d="M214.6 400.6c0 .4-.3 6.8-.2 13.3-6.8.5-5.7-13.3-5.3-15 .2-1.4-4.4 1.7-6.6 3.8.7 1.3 1.7 1 2.9.5-.4 6.2 3.9 11.8 9 11.7.2 6.4.8 12.5 2.7 13 .2.1.4-6.5.6-13.7 12.2-3.8 7.6-18.3 7.6-18.3-.2-.8-2 .3-6 3.9 1.6 1.7 2.3.7 3.6.3 1 1.9 1.4 10.5-5.2 13.1l.3-18c0-.2-.2-.3-.4-.3-1.8.2-5 3.4-7.5 6.1 1.5 2.1 3.2.1 4.5-.4m6 19.1 2.8 2.8 2.8-2.8-2.8-2.8-2.8 2.8Z"/>
  </g>
</symbol></svg>
