<svg xmlns='http://www.w3.org/2000/svg' viewBox='0 0 696 830' fill='none'><symbol id='KIGC_Fill'>
  <g fill="none">
    <path fill="#9BADFA" d="m591 427-1 34-3 24-3 25c-2 23-8 45-18 66a304 304 0 0 1-82 107c-19 17-41 27-65 34a262 262 0 0 1-48 9l-14 1-9 1-21-2-36-6a168.2 168.2 0 0 1-82-40l-30-30a288.8 288.8 0 0 1-56-94c-5-12-8-25-9-38l-6-51-1-17a403.6 403.6 0 0 1 22-162l17-43c5-13 11-25 19-37l29-39c15-18 34-33 56-44 12-6 25-10 37-14l22-7c10-2 20-2 29-2h21c12 0 23 0 35 4 15 4 31 9 46 16a179.2 179.2 0 0 1 59 43 435 435 0 0 1 50 74l23 58a468.8 468.8 0 0 1 19 105v25"/>
    <path fill="#FFF" d="m126 433 1 34 2 18 8 38c10 39 28 73 55 102 8 11 18 20 28 29l11 10c17 14 37 25 59 31l27 6a135 135 0 0 0 60 1l9-2 25-6c22-7 42-18 59-33l26-25a235.9 235.9 0 0 0 62-103l8-35c5.3-23.6 7-47.9 5-72l-4-45a382 382 0 0 0-17-74l-18-49c-5-14-12-26-20-38a602.3 602.3 0 0 0-43-54c-9-9-20-16-32-21a298.5 298.5 0 0 0-58-16l-20-2h-27l-13 2c-20.3 3.4-40 9.1-59 17-8 3-16 8-24 13l-23 23a535.9 535.9 0 0 0-46 72c-7.9 21-15.6 42-23 63a299.9 299.9 0 0 0-16 86l-2 30m451-11c1 11 0 22-1 34l-2 25-2 18c-2.9 35-14.6 68.7-34 98-11 18-23 34-38 49l-17 16a152.3 152.3 0 0 1-86 42l-27 4-13 1-7 1-16-1-41-7a156.6 156.6 0 0 1-75-37c-14-13-28-26-39-41-17-21-31-44-41-70-5-13-8-26-10-40l-4-35c-1-9-3-18-3-28-1.2-31.8.5-63.5 5-95 3-24 10-46 19-69l12-32a488.3 488.3 0 0 1 46-72c15-17 32-30 52-41l35-14c7-2 14-5 22-6 9-2 18-2 27-2h20c11-1 22 0 32 3 17 5 34 11 50 19 17 8 32 18 45 32l14 16a423.5 423.5 0 0 1 39 61l19 50c8.7 23.4 14.1 48 16 73l3 48"/>
    <path fill="#FFF" d="M310 302a34 34 0 0 1-11-2c-1-1-2-2-1-3l3-2a102.4 102.4 0 0 0 34-39h-1l-3 2-11 5-3-1v-4c4-7 7-13 9-20l11-26 4-8 5-4c2-2 3-2 5-1l4 5 3 6 6 13 16 35v2c1 1 0 2-1 2h-4l-11-4-2-2h-1l1 1a104 104 0 0 0 36 41v2l-1 1c-5 1-10 2-15 1l-6-2v1l1 1 15 21 2 2 3 1 2-1 19-11 9-6c4-3 8-3 12 0l16 13 2 1h2l3-2 9-7 4-3c4-2 6-1 8 2l2 2 5 8 2 2v-1l-1-3c-4-10-8-20-14-29l-17-30-10-15-8-9-13-12c-12-7.5-24-14.9-36-22l-38-14c-5-2-10-2-15 0l-27 10c-13 4-25 11-36 19l-9 6-8 7c-10 9-18 19-25 30a3178.6 3178.6 0 0 0-30 58l-4 8v1l1-1 10-12 2-3c2-3 3-3 6-2l4 2 6 4 6 5c2 2 2 2 4 0 6-3 11-8 16-12l4-2c2-1 4-2 7-1l5 3 8 5 19 11h4l18-24h-1l-10 1m204 128v-21l-3-23-5-20-7-25-2-5-15-19c-2-4-2-4-4-1l-13 14c-6 6-14 10-22 13-2 1-4 2-6 1h-2l1-2 3-4 8-5 7-6v-3c-6-3.9-11.8-8.2-17-13-2-2-3-2-5 0l-5 5c-7 7-15 12-25 14-1 1-2 1-1 2l4 4 3 3c1 1 1 3-1 3l-4 1-8-1-5-1 3 4 7 7a89.2 89.2 0 0 0 27 23l3 2-1 3-2 1a30 30 0 0 1-20-2h-1v1l1 2 11 13 10 10 3 3c2 3 2 5-2 5h-9l2 2 14 11 8 5 2 3 1 2-2 1-6 1c-4 0-9-1-13-3l-4-1 2 3v1c9 12 19 22 30 32l5 5 2 4c-1 2-3 2-4 2-6 0-12 0-18-3l-5-3h-1v1l1 1a151.2 151.2 0 0 0 36 51c2 2 1 3-1 4l-10-2c-6-1-12-4-17-8l-7-6-2-1v3l7 11 3 5v4l-4 1-2-1-8-3-2-2h-1v1l3 3 8 9 3 3c1 2 1 4-2 5h-16c-9 0-18-1-26-6h-1l10 12 5 5 1 3c1 1 0 2-1 3h-6c-9-1-17-5-25-11l-7-6-2-2c-1-1-2 0-2 1l-1 2a112 112 0 0 0-2 42c2 13 8 25 15 36v1h2l5-2a276.8 276.8 0 0 0 79-58c7-8 13-16 18-26l12-26c8-16 13-33 16-52l2-40M271 555l-11-1-3-1-1-2 2-4 8-8 4-5v-1 1l-6 2c-2 2-5 2-7 3-3 1-5-2-4-4l3-4 5-9 3-6v-1h-1l-5 5c-7 4-13 8-21 10l-9 2c-2-1-3-2-2-4l2-2 3-3c13-13 24-29 32-46v-2l-3 2c-6 3-13 4-20 4l-4-1v-2l1-2 5-4 20-22 13-15v-1h-1l-12 4-11-1c-2 0-2-2-1-3l3-3 8-6 14-11 1-1h1-10c-3 0-4-2-1-5l4-5c6-6 13-12 18-19l3-4v-1h-2a31 31 0 0 1-21 1c-2-1-2-2 0-4l2-2 6-3c7-5 13-10 18-16l12-13v-1l-12 2-4-1c-2 0-3-2-2-3l3-3 4-4v-2c-7-1-14-4-20-9l-8-8-3-3h-4l-4 4-13 10-1 1v1l2 2 13 10 4 4v2h-6c-7-3-14-6-19-10l-15-15-3-4h-3l-1 2-14 19c-2 3-4 5-4 8l-8 29a172.6 172.6 0 0 0-7 51l3 47c2 13 5 27 10 39l17 37c5 10 12 20 20 29 21 23 46 40 74 54l9 4c1 1 2 1 2-1l7-11c3-6 6-13 7-20 4-15 3-31 0-46-1-5-2-5-5-2l-10 8c-7 5-15 8-23 9h-5c-2-1-2-2-2-3l2-3 4-5 9-10 1-2-12 5-18 2m85 26 1-15 4-12 3-5h5l3 2c5 5 11 9 18 13l12 4h3l-1-1-3-1c-5-5-10-10-12-16v-5c0-3 1-4 3-2l2 1c5 3 10 5 16 6 8 2 16 2 24 2l1-1-2-1c-6-4-11-9-14-15l-4-9v-7l1-1h1l3 4c3.7 4.7 8.5 8.4 14 11l1-1-2-2-5-13 1-5 2-1 2 1 3 3c7 6 14 10 22 13l5 1h1v-1l-2-1-7-6c-8-7-14-16-19-25a58 58 0 0 1-7-21l1-3c2-1 3 0 4 1l11 5c4 1 8 2 12 1h1l-1-1-1-1c-15-8-27-19-36-34l-4-8-1-4 1-2h3l1 1c4 3 8 4 12 5l7 1v-1l-2-1a42 42 0 0 1-23-24c0-1 1-2 2-1l8 2h5-1l-3-2c-7-4-13-10-18-16-3-4-5-8-6-13l-1-4c0-1 1-2 2-1l4 1c6 3 12 4 19 3h1l-1-1-5-1c-8-3-15-8-21-15-6-6.6-11-14-15-22-1-2 0-3 2-3l2 1 10 2h5l-1-1-2-1-10-6a62.9 62.9 0 0 1-19-30v-3c0-2 1-3 3-2l2 1c6 2 12 3 18 1h1v-1l-13-6c-13-7-20-18-24-32l-1-6 1-3 3 1a41.6 41.6 0 0 0 16 8h1l-1-1c-8.2-8-14-18-17-29l-5-14-3-9-2-4h-3l-2 2-2 6-3 10-8 20a54.1 54.1 0 0 1-13 19h3l12-6 3-2c1-1 2-1 2 1v2l-1 6c-3 14-11 25-24 32l-12 5-1 1h1c7 2 13 1 19-1l2-1 3 1-1 4-1 5c-3 8-8 15-13 20-4 5-9 9-15 12h-1l-1 1c5 1 9-1 14-2l3-1c1 0 2 1 2 3l-1 1-13 20c-8 8-16 14-27 17h-1v1h1c7 1 13 0 19-3l3-1c1-1 2 0 2 1v5l-7 12c-5 6-11 12-18 16l-3 1v1h1c2 1 5 0 7-1l5-1h1v2c-5 10-11 18-21 22l-3 2h-1l1 1c6 0 12-2 17-5l3-2c2-1 3 0 3 2v4l-5 10c-7 10-15 18-25 26l-9 6c-1 0-3 0-3 2h9c6-1 10-4 15-6 1-1 2-2 3-1 2 0 1 2 1 3l-2 10c-6 17-16 32-31 43l-2 1h4c6-2 11-4 15-7l11-8 3-2c1-1 3-1 3 1v4c0 5-2 9-4 13l-2 2v1h1l2-1c4-3 9-6 12-10l3-4h1l1 1v6l-5 12c-4 6-9 10-15 14l1 1 19-1c8-1 14-3 21-7l2-2c2 0 3 0 3 2l-1 6c-2 6-5 10-10 14l-4 3-1 1h1l13-4c7-3 13-8 19-13l2-1c2-2 4-2 6 0l3 5 4 12 1 23c-2 14-6 26-14 37l-5 6-2 2v2h1l19 5h16l17-5 4-1-3-4c-5-5-9-11-12-18-5-10-6-21-7-33m167-160c-.3 36.4-7.4 72.3-21 106l-9 18c-6 15-15 28-25 40l-8 8c-7 9-15 16-24 22-12 8-24 15-37 21-12 5-25 9-39 12-8 1-17 1-25-1-18-3-35-10-51-19l-19-11c-11-7-21-16-30-26a483.3 483.3 0 0 1-27-38l-19-42c-8.6-22.4-13.4-46-14-70l-1-27c0-17 3-34 7-50l8-30c10.1-32.3 27.1-62 50-87a1261 1261 0 0 1 21-25 203.9 203.9 0 0 1 37-27l30-11c7-1 13-3 20-3l10 1c17 2 32 8 47 15l17 11c7.1 6.1 14.1 12.4 21 19l24 29c18 22 32 47 41 74l8 30 5 21 3 32v8"/>
    <path fill="#9BADFA" d="M356 581c0 12 1 23 6 33 3 7 7 13 12 18l3 4-4 1-17 5h-16l-19-5h-1v-2l2-2 5-6c8-11 12-23 14-37l-1-23-4-12-3-5c-2-2-4-2-6 0l-2 1c-6 5-12 10-19 13l-13 4h-1l1-1 4-3c5-4 8-8 10-14l1-6c0-2-1-2-3-2l-2 2c-6 4-13 6-21 7l-19 1-1-1c6-4 11-8 15-14l5-12v-6l-1-1h-1l-3 4a41.7 41.7 0 0 1-14 11h-1v-1l2-2c2-4 4-8 4-13v-4c0-2-2-2-3-1l-3 2-11 8c-4 3-9 5-15 7h-4l2-1c15-12 25-26 31-43l2-10c0-1 1-3-1-3-1-1-2 0-3 1-5 2-9 5-15 6h-9c0-2 2-2 3-2l9-6c10-8 18-16 25-26l5-10v-4c0-2-1-3-3-2l-3 2c-5 3-11 5-17 5l-1-1h1l3-2c10-4 16-12 21-22v-2h-1l-5 1c-2 1-5 2-7 1h-1l1-1 3-1c6-4 12-10 17-16l7-12v-5l-1-1-4 1c-6 3-12 4-19 3h-1v-1h1c11-3 19-9 27-17 5.4-6.4 10.1-13.5 14-21 0-2-1-3-2-3l-3 1-14 2 1-1 1-1c6-2 11-6 15-11a63.2 63.2 0 0 0 14-25l1-4-3-1-2 1c-6 2-12 2-19 1v-1l12-5c13-7 21-18 25-32l1-6-1-2c0-2-1-2-2-1l-3 2-12 6h-3l1-1c5-5 9-11 12-18l8-20 3-10 2-6 2-3 3 1 2 4 3 9 5 14 1 3c4 10 8 19 16 26l1 1h-1l-8-2-8-6-3-1-1 3 1 6c4 14 11 25 24 32l13 6v1h-1c-6 2-12 1-18-1l-2-1c-2-1-3 0-3 2v3l2 5c4 10 9 18 17 25l10 6 2 1 1 1h-5a48 48 0 0 1-12-3c-2 0-3 1-2 3v1c5 8 9 15 15 21 6 7 13 12 21 15l5 1 1 1h-1c-6 1-13 0-19-3l-4-1c-1-1-2 0-2 1l1 4c1 5 3 9 6 13 5 6 11 12 18 16l3 2h1-5l-8-2c-1-1-2 0-1 1v2c5 10 12 18 22 22l2 1v1l-7-1c-4-1-8-2-12-5l-1-1h-3l-1 2 1 4 4 8c9 14 21 26 36 34l1 1 1 1h-1c-4 1-8 0-12-1l-11-5c-1-1-2-2-4-1l-1 3c.7 7.4 3.1 14.6 7 21 5 9 11 18 19 25l7 6 2 1v1h-1l-5-1c-8-3-15-8-22-13l-3-3-2-1-2 1-1 5 5 13 2 2-1 1-1-1c-5-2-10-6-13-10l-3-4h-1l-1 1v7l4 9c3 6 8 11 14 15l2 1-1 1c-8 0-16 0-24-2-6-1-11-3-16-6l-2-1c-2-2-3-1-3 2v5c3 6 7 11 13 15l2 2 1 1h-3l-12-4c-6-4-13-8-18-13l-2-2h-5l-4 5-4 12-1 15"/>
    <path fill="#9BADFA" d="m271 555 18-2 12-5-1 2-9 10-4 5-2 3c0 1 0 2 2 3h5c8-1 16-4 23-9l10-8c3-3 4-3 5 2 3 15 4 31 0 46-1 7-4 14-7 20l-7 11c0 2-1 2-2 1l-9-4c-28-14-53-31-74-55-8-8-15-18-20-28l-17-37c-5-12-8-26-10-39-4-32.7-2.7-65.8 4-98l8-29c0-3 2-5 4-8 5.6-6.5 10.6-13.5 15-21h2l4 4c5 6 9 10 15 14 5 5 12 8 19 11h6v-2l-4-4-13-10-2-2v-1l1-1 13-10 4-4h4l3 3 8 8c6 5 12 8 20 9v2l-4 4-3 3c-1 1 0 3 1 3l5 1 12-2v1l-12 13c-5 6-11 11-18 16l-6 3-2 2c-2 2-2 3 0 4l4 1c6 1 11 1 17-2h2v1l-3 4c-5 7-12 13-18 19l-4 5c-3 3-2 5 1 5h10-1l-1 1-14 11-8 6-3 3c-1 1-1 3 1 3l11 1 12-4h1l-1 1-12 15c-6 8-13 15-20 21l-5 5-1 2v2l4 1c7 0 14-1 20-4l3-2v2c-8 17-19 32-32 46l-3 3-2 2c-1 2 0 3 2 4l9-2c8-2 14-6 21-10l5-5h1v1l-3 6-5 8-3 5c-1 2 1 5 4 4l7-3 6-3v1l-4 5-8 8-2 3c-1 1 0 3 1 3l3 1 11 1m243-125c0 14 0 27-2 40-3 19-8 36-16 52l-12 26c-5 10-11 18-18 26a278.6 278.6 0 0 1-85 60h-1v-1a95.2 95.2 0 0 1-12-81h2l2 2 7 6c8 6 16 10 25 11h6l2-3-2-3-5-5-10-12h1c8 5 17 6 26 6h16c3-1 3-3 2-5l-3-3-8-9-3-3v-1h1l2 2c3.2 1.4 6.5 2.7 10 4l4-1v-4l-3-5-7-12v-2l2 1 7 6c5 4 11 6 17 8l10 2c2-1 3-2 2-4l-4-3a167 167 0 0 1-33-48l-1-1v-1h1l5 3c6 3 12 3 18 3 1 0 3 0 4-2l-2-4-5-5c-11-10-21-20-30-32v-1l-2-3 4 1c4 2 9 3 13 3l6-1 2-1c1-1 0-2-1-2l-2-3-8-5-14-11-2-2h9c4 0 4-2 2-5l-3-3c-3-3-7-6-9-10l-12-13-1-2v-1h1a32 32 0 0 0 20 2l2-1 1-3-3-2-4-3c-9-5-17-12-23-20l-7-7-3-4 5 1c4 .2 8 .2 12 0 2 0 2-2 1-3l-3-3-4-4c-1-1 0-1 1-2 10-2 18-7 25-14l5-5c2-2 3-2 5 0l3 2 14 11v3l-7 6-8 5-3 4-1 2h8c8-4 16-8 22-14l13-14c2-3 2-3 4 1l15 19 2 5 7 25c3.2 14.2 5.8 28.6 8 43v21"/>
    <path fill="#9BADFA" d="m303 225-1-1-2 1 2 2 1-2m76-9-2 2 2 2c1-1 2-1 2-3 0-1-1-2-2-1m25 32c0-2-1-3-2-3-2 1-2 2-2 3s0 2 2 2l2-2m-164 44-2-2-3 2c0 2 1 3 2 3 2 0 3-1 3-3m42-12c-2 0-3 2-3 3s1 2 3 2l2-2c0-2-1-3-2-3m151-8-3 3c0 2 1 3 3 3s3-1 3-3c0-1-1-3-3-3m-137-1c-2 0-3 1-3 3 0 1 1 3 3 2l2-2c0-2-1-3-2-3m168 24c-2 0-3 2-3 3 0 2 1 3 2 3 2 1 4-1 4-3l-3-3m-49-1c-2 0-3 1-4 3 0 2 1 4 3 4s4-1 4-3-1-4-3-4m-149-44c2 0 4-1 4-3s-2-4-4-4-3 2-3 4 1 3 3 3m148-23c2 0 4-2 4-4s-2-4-4-4-4 2-3 4c0 2 1 4 3 4m-104 75 10-1h1v1l-18 23h-4c-9.7-4.3-18.7-9.7-27-16l-5-3c-3-1-5 0-7 1l-3 3-17 12c-2 1-2 1-4-1l-6-5-6-4-4-2c-3-1-4-1-6 2l-2 3-10 12v1l-1-1 4-8a3225 3225 0 0 1 31-58c6-11 14-21 24-30l8-7 9-6c11-8 23-15 36-19l27-10c5-2 10-2 15 0 13 4 26 8 38 14l17 9c10.7 8.2 21.4 16.5 32 25l18 24 17 30a308 308 0 0 1 16 32l-1 1-1-2-6-8-2-2c-2-3-4-4-8-2l-4 3-9 7-3 2h-2l-2-1-16-13c-4-3-8-3-12 0l-9 6-19 11-2 1-3-1-1-2a200.7 200.7 0 0 1-17-23l6 2c5 1 10 0 15-1l1-1v-2l-2-3c-15-9-26-22-34-38l-1-1h1l2 1c4 3 7 4 11 5h4c1 0 2-1 1-2v-2l-16-35-6-13-3-6-4-5c-2-1-3-1-5 1l-5 4-4 8-11 26c-2 7-5 13-9 20v4h3c4 0 8-2 11-4l3-2h1v1l-1 1a103 103 0 0 1-36 39c-1 1 0 2 1 3l2 1 9 1"/>
    <path fill="#FFF" d="M414 227c-2 0-3-2-4-4 0-2 2-4 4-4s4 2 4 4-2 4-4 4m-148 23c-2 0-3-1-3-3s1-4 3-4 4 2 4 4-2 3-4 3m149 44c2 0 3 2 3 4s-2 3-4 3-3-2-3-4 2-3 4-3m48 1c2 0 3 2 4 3 0 2-2 4-4 3-1 0-2-1-2-3l2-3m-167-24c1-1 2 1 2 3l-2 2c-2 1-3-1-3-2 0-2 1-3 3-3m137 1c2 0 3 2 3 3 0 2-1 3-3 3s-3-1-3-3c0-1 1-3 3-3m-151 8c1 0 2 1 2 3l-2 2c-2 0-3-1-3-2s1-3 3-3m-42 12c0 2-1 3-3 3-1 0-2-1-2-3l3-2 2 2m164-44-2 2c-2 0-2-1-2-2s0-2 2-3c1 0 2 1 2 3m-25-32c1-1 2 0 2 1 0 2-1 2-2 3l-2-2 2-2m-76 9-1 2-2-2 2-1 1 1m-86.7 186.5c0 .4-.3 6.8-.2 13.3-6.8.5-5.7-13.3-5.3-15 .2-1.4-4.4 1.7-6.6 3.8.7 1.3 1.7 1 3 .5-.5 6.2 3.8 11.8 9 11.7.1 6.4.7 12.5 2.6 13 .2.1.4-6.5.6-13.7 12.2-3.8 7.6-18.3 7.6-18.3-.2-.8-2 .4-6 3.9 1.6 1.7 2.3.7 3.6.3 1 1.9 1.4 10.5-5.2 13.1l.3-18c0-.2-.2-.3-.4-.3-1.8.2-5 3.4-7.5 6.1 1.4 2.2 3.1.2 4.5-.4m6 19.1 2.7 2.8 2.8-2.8-2.8-2.8-2.8 2.8Z"/>
  </g>
</symbol></svg>
