<svg xmlns='http://www.w3.org/2000/svg' viewBox='0 0 696 830' fill='none'><symbol id='KIPC_Outline'>
  <g fill="#9D432C">
    <path d="m569 445.2-2-27a727.2 727.2 0 0 0-9-75l-11-39-18-47c-5-13-12-26-20-38a627 627 0 0 0-44-55c-9-7-18-13-28-18a255.8 255.8 0 0 0-77-19l-19-1-10 1-16 2a337.6 337.6 0 0 0-70 23c-12 7-23 16-32 27a436.2 436.2 0 0 0-48 75l-16 42a381.8 381.8 0 0 0-24 120l-1 21 1 30 2 17c3 17.9 7 35.6 12 53a231.1 231.1 0 0 0 57 94l23 23c19.6 19 43.7 32.7 70 40l26 6 11 2 14 1 26-1h1l33-7c24-6 45-17 64-33a478.1 478.1 0 0 0 42-41c25-30 42.7-65.2 52-103 4-16 8-33 10-50l1-23m6-18-2 29-1 19-2 17c-2 15-4 30-8 44a293.6 293.6 0 0 1-89 131 164.7 164.7 0 0 1-77 35l-27 5c-11 1-22 2-33 1l-18-2-22-4a164.7 164.7 0 0 1-79-36 418 418 0 0 1-51-57c-9-14-18-29-25-44-8-17-13-35-16-53-2.3-20.3-4.3-40.6-6-61l-1-22 1-31c1.3-38 9-75.6 23-111l15-38 13-25c11-15 22-31 34-45l25-22c10-8 22-15 35-20 13-6 27-10 40-14l21-3 20 1h3l16-1c10 0 19 1 28 4l37 13a169 169 0 0 1 63 47l29 38c6 10 12 21 16 32l17 43c5 15 10 31 13 46l3 23c1.3 10 2.3 20 3 30l2 31"/>
    <path d="M280 216.2v-1h-1l-6 4-1 3 5 7s0 1 0 0h1l2-11v-2m-4 18v-1l-6-10h-2l-6 4v1l13 6h1m177 35h7l1-1-3-6-2-2h-2l-8 9h7m-10-8v4l4-2 3-3c2-2 2-4 2-6v-2l-4-5h-2v2l-3 12m-16 234 1 5 5 6 7 6c5 4 9 7 12 13h1l1-1 7-14 6-16c1-6 5-10 9-14l7-5c5-4 9-10 11-17 2-4 3-9 3-14l3-24c2-10 4-19 8-28v-2l-1-6-1 2c-2 7-6 14-10 21v1c-2 3-4 4-6 4l-4 1-3 1-3 8-8 18-6 6c-2 0-3 2-4 3l-3 4-8 9-7 8-9 8-6 8-2 9m-89 60-4-10c-4-5-8-9-14-11l-7-2c-13-4-25-8-36-14-6-3-11-8-14-14l-3-5-4-7-3-5c-2-2-5-4-8-4h-3l-7-1-11-8a75.6 75.6 0 0 1-11-18l-1-1v1l5 28 2 10c1 5 4 8 9 11l5 3c5 2 9 5 12 9l1 3c3 5 7 8 13 10 7 3 13 6 18 12l14 10 5 3c4 2 8 5 11 9l5 5 2 1 13-4c3-1 5.8-2.7 8-5 2-1 3-4 3-6m173-125-1-23v-5l-1-1v1l-4 26-1 18-4 16c-2 6-6 10-10 14l-10 7c-3 2-6 4-7 8l-2 7c-3 9-6 17-11 25-6 10-14 18-23 24l-6 4-4 4c-2 4-2 9 3 11l6 1 8 2c5 1 10 3 14 8h2c8-9 15-18 20-28l14-29c9-18 14-38 16-58l1-32m-259-102 3 21c3.5 12.4 8.1 24.5 14 36 3 6 5 11 9 16l15 17a104 104 0 0 1 22 29l2 4h2l11-4 18-2h16l8-2c3-2 4-5 3-9l-1-3-7-9c-3-4-7-7-12-10-4-2-8-5-10-9l-6-10-4-6c0-1-1-2-3-2l-3 1-4 1h-5l-6-4-13-23c-2-7-2-7-7-2v1l-1 2 1 15c1 6 3 11 7 16l3 4c6 6 10 13 13 20s6 13 10 18l1 2-1 1-1-2-14-19-13-21c-7-8-10-17-12-26-2-8-4-15-8-22l-7-18-1-3c-1-3-3-4-6-4h-9l-4-1v7m56 243c-5-5-9-10-15-13l-10-5c-5-2-8-5-11-10s-8-8-14-10l-6-2c-4-1-7-3-9-6l-4-5c-2-3-5-6-9-8l-9-4-7-7-3-8-1-13-2-22v-1h-1l-4 8c-2 3-5 6-9 7-2 0-4 1-5 3l-4 7-1 4 7 22c8.7 20.5 19 40.2 31 59l25 26 3 2h2l8-4 19-8 28-11h1v-1m127-192c1 5-2 10-6 14l-4 3-8 11-3 5-3 3v-1l4-8c2-5 5-9 8-12l4-7c3-3 4-7 4-11v-7c1-4 1-9 3-13 4-6 6-12 6-19v-9l-1 2-1 2-8 12-8 4h-2c-2-1-3 0-4 2l-1 3a335 335 0 0 1-24 46l-4 3h-1v-1l2-3 7-12 4-14-1-2-1-1h-2l-7 10-4 4c-3 3-5 4-9 2l-3-2-3 1-4 7-7 9-2 2v2a199 199 0 0 0 19 20l7 1 23 3c8 1 17 3 25 7 8.2 3.5 15.5 9 21 16h1l2-3 10-12 4-5 9-15 2-3c1-2 2-4 5-4h1l6-5 5-8 8-20v-7l-6-19-7-24-5-11-1-2h-1l-2 4-3 13c-2 6-4 12-8 17-4 4-6 9-8 14l-7 16-1 2h-1v-1c0-4 0-9 2-12l3-7 4-12c-4-2-7-5-9-8l-9-11v12c0 4-1 8-4 11l-2 3c-3 3-4 6-4 11v14m-256 50 1 28 2 15h1l3-4c1-2 3-3 5-3 3 0 4-2 6-4l9-14 1-2 3-1 1 1 4 4 9 13 8 10c2 3 5 5 9 6l4 1c6 1 10 4 14 9l4 5 7 11 3 3h1l2-1c5-5 11-9 19-11l8-2 13-2a1070 1070 0 0 0 31-7l4-2c2-2 2-5 1-7l-3-3-4-3-12-5-9-2-5-2-3-3-6-12c-3-5-6-10-11-13l-5-4-13-12c-8-8-13-18-16-30l-2-9-9-18-5-10c-3-5-4-10-4-16l1-11c1-7-2-14-5-21l-1 1-2 2c-2 4-5 8-10 10l-5 7-3 11-7 14-7 11c-6 9-13 17-21 24l-2 4-3 17-1 27m166 212c4 1 8 0 12-1 13-3 25-8 37-14 20.8-12 40.2-26 58-42 2-1 2-1 0-3-4-4-8-6-14-8l-6-1-5-2c-4-3-6-8-5-13l4-7 5-4c2-3 5-4 8-6l7-7c2-2 2-5 0-7l-4-6-8-7-7-6-4-7c-1-4-1-9 1-13l6-10 12-12 5-5c2-3 2-5 0-8l-4-5c-6-5-13-9-22-11l-25-4-15-2-3-1-1 1 2 3c1 5 0 10-4 12l-6 3-11 2h-17l-11 1-6 2-3 2v2l7 2c6 1 13 3 19 6l6 5c5 4 4 10 0 14l-3 2-6 3-12 5-19 5c-7 0-14 2-20 3-6 2-10 5-14 8v3l16 8 26 9c7 3 12 8 17 14l2 5c2 8 0 15-7 19l-1 1-6 2-12 5-23 9-29 12-5 2v2l2 2a337.4 337.4 0 0 0 53 30c10.7 3.7 21.8 6.4 33 8m111-368h-2c-3 0-5-1-8 1l5 5 4 5h4l3-1 2 1-1 2-3 1v1l1 2 1 1v3l-2-1-1-1c-2-1-2-1-2 1l-2 3-1 1v-3l1-4-1-3-10-11-1-1h-1l-1 2c0 3 0 5 3 7l2 3v1l-1 1-1-1-3-2h-1c0 2-1 4 1 6l2 3 1 2v1h-2l-1-1-1-2h-1v1l-2 7v1l-1 1-1-1v-4l1-5v-1l-1 1-3 2h-1v-1l1-2 4-4 1-2v-3l-2 1-1 1-1-1v-1l2-2c3-1 4-3 4-6v-3h-1l-11 6c-2 1-4 3-3 6v3l-1 1-1-1-1-4-1-1-3 1h-1v-1l1-2 1-1-1-1v-2l1-1 2 1h3l11-6h1v-1l-2-1-8-4-5-2-3 3-2 2-2-2 1-1 2-2v-1l-4-2-4-2-3-2v-1h4l6 2 1-1v-2h2l1 3 4 3 11 5 4 2c-1.9-3.7-3.9-7.4-6-11l-2-1-3 1h-1l-1-1 1-1 1-1 3-1-1-4-2-4v-1h1l1 1 3 5h1v-1l1-3 1-3 1-2 1 2v1l-2 8 1 5 3 6h2l1-6 1-7v-6l-5-8-11-10c-11.6-7.5-23.3-14.8-35-22l-16-7-23-8c-5-2-11-2-16 0l-12 4a251.4 251.4 0 0 0-36 16c-4 2-6 4-7 8v3l-2 10 1 1h1l5-5 2-3 2-9 1-2c1-1 1 1 1 3l-1 2v3h1l3-2 3-2h1v1l-4 5c-3 3-3 2 1 4l2 1v1l-1 1h-2l-3-2c-1-1-2 0-3 1l-7 6-1 1h15l2-2 6-4h1v1l-2 3-1 1h13v1l-1 1h-1l-8 2h-3l1 3 2 1v3h-1l-2-2-3-3c-1-1-1-2-2-1h-7l-8 1 5 5 3 4 4 1 4-1 1 1-4 2v2l3 4-1 1h-1l-2-2c-1-1-2-1-2 1l-1 2v1l-1 1-1-2v-1l1-3-1-4-9-10-1-1h-1l-1 1c0 3 0 6 3 8l2 3-1 1h-1l-1-1-2-2h-1c-1 2-1 4 1 6l3 4-1 2h-2l-1-2-1-1-1 1v2l-1 5-1 2-1-2v-4l1-4v-1l-1 1-2 2h-2v-1l2-3 3-3 2-4h-1l-3 1h-1v-1l2-3c4-2 3-1 4-5v-2c0-1-1-2-2-1l-11 7h-1l-1 2 1 3-1 2-1 1-1-1v-3c0-1-1-2-2-1l-2 1-1-1v-1l2-2v-1l-1-1v-2h1l2 1h2l12-6v-1l-13-6h-2c-9 9-17 18-24 29l-13 24a361.6 361.6 0 0 0-26 57l-6 24-1 1h1l1-1 10-13a135.1 135.1 0 0 0 21-35l2-4 8-9 6-7 2-2c2-1 4-1 5 1l1 3 6 10c2 4 5 6 9 7l5 2c5 1 8 4 11 8l16 27h1l6-3 3 1 1 1 2 4 7 12 7 10 7 4 3 1 4-2c3-1 5 0 6 2l5 5 7 10c2 2 2 2 3 0l11-12 4-5c1-2 3-2 5-2l3 1c2 1 3 0 5-1l2-2 6-7 3-4c2-2 4-2 6-1l1 1h2l10-19c1-3 4-5 7-4h1l5-2 3-3 12-17 3-5h3l3 3 4 8c3 6 8 10 13 14h2l5-12 3-10c1-4 3-8 7-11v-3l-15-26-3-6-2-1-6 1m-285 145 1-26 4-19 6-29c4-12 8-25 14-36a244.4 244.4 0 0 1 50-75l17-17 16-13 11-6a183.6 183.6 0 0 1 50-16c6-1 11 0 17 1l30 9c14 5 25 13 36 22l23 23 15 18c19 22 32 48 42 75a716.5 716.5 0 0 1 15 71c3.4 44.2-4.2 88.5-22 129l-9 20c-6 12-12 22-20 32l-12 13c-8 9-18 17-28 23-10 7-21 13-32 18s-24 9-37 11c-6 1-12 2-18 1l-10-1c-18-3-34-10-50-19l-15-9a144.3 144.3 0 0 1-46-43c-6-7-11-16-15-25l-15-32a294.1 294.1 0 0 1-17-78l-1-22"/>
    <path d="M335 332.2v-1l-1-2-1 1-1 1h-1v-1l2-3 1-2 1-3-1-1-2 2-1-1s-1 0 0 0l2-3c1-1 2-2 1-3v-4l-1 1-4 3-5 4v6h-1l-1-3h-2s-1 2-2 0l1-2-1-2v-1h1c2 1 4 0 5-2l7-5v-1l-11-3-3 1-2 3h-1v-1l1-3v-1l-5-1-3-1-1-1 2-1 5 1 1-2v-1h2l1 1c0 2 2 3 4 4l11 3h1l-1-1-6-8-3 2-1-1v-1l1-1c2-1 2-1 1-3l-3-3v-2l2 1 3 3v1l1-1v-5l1-1h1v8l1 3 1 2c1 1 1 2 3 2v-3l1-6-2-7-3-3 1-2 1 1 2 2h1v-3l1 2 1 1h1l1-2 1-1v2l-3 5-1 4v11h1l4-5 1-2v-8l1-1h1v6l1 1v-1l3-3 1-1h1v1l-1 2-1 1-1 3 3 2h1v1l-1 1h-1c-5-2-4-2-8 2l-2 4v1l7-1 2-1c2 0 4-1 5-3l3-3h1l-2 3v1h1l7-1h2v1l-2 1-6 2c-1 0-2 1 0 2l1 1 1 2h-2l-3-3h-3l-11 2v1l8 6h2l4-1v1l-2 2 2 3 1 1h-1v1l-3-1-1 1-1 3-1-1v-3c0-2 0-3-2-4l-8-7h-1l-1 1v2l2 3 3 3v1h-1l-2-1-1-1-1 1 2 4 3 3-1 2h-1l-2-2-1 2v5l-1 1v-5Zm8-96c0 2-2 5-4 5-3 0-5-2-5-5 0-2 2-4 4-4 3-1 5 2 5 4m1 124c-2 0-4-2-4-4s2-5 4-5c3 0 5 2 5 5 0 2-2 4-5 4m-89-80c0 2-1 4-4 4-2 0-3-2-3-4s2-4 4-4 4 2 3 4m50-3c0 2-2 3-3 3-2 0-3-2-3-3 0-2 1-3 3-3s3 2 3 3m79 44c0 1-1 3-3 3l-3-3c0-2 2-3 3-3 2 0 3 1 3 3m-8-68c2 0 3 2 3 3 0 2-1 3-3 3l-3-3 3-3m35 78-2 3c-2 0-3-1-3-3l2-2c1-1 3 1 3 2m-122-31-3-2c0-2 1-3 3-3 1 0 3 1 3 3l-3 2m106-72c0 1-1 2-3 2l-2-3c0-1 1-2 3-2 1 0 2 1 2 3m0 80-2 3-2-3 2-2 2 2M246.3 424.5c0 .4-.3 6.8-.2 13.3-6.8.5-5.7-13.3-5.3-15 .2-1.4-4.4 1.7-6.6 3.8.7 1.3 1.7 1 3 .5-.5 6.2 3.8 11.8 9 11.7.1 6.4.8 12.5 2.6 13 .2 0 .4-6.5.6-13.7 12.2-3.8 7.6-18.3 7.6-18.3-.2-.8-2 .3-6 3.9 1.6 1.7 2.4.7 3.6.3 1 1.9 1.4 10.5-5 13l.2-18-.4-.2c-1.8.2-5 3.4-7.5 6 1.3 2.3 3 .3 4.4-.3m6 19 2.7 2.9 2.8-2.8-2.8-2.8-2.8 2.8Z"/>
  </g>
</symbol></svg>
