<svg xmlns='http://www.w3.org/2000/svg' viewBox='0 0 696 830' fill='none'><symbol id='KIPC_Fill'>
  <g fill="none">
    <path fill="#9D432C" d="m590.4 423.4-3 54-4 35c-2 25-9 48-20 70-15 28-32 55-55 77l-19 19c-22 21-48 34-77 41l-35 6c-14.8 2.7-30 3.3-45 2l-49-8c-29-7-55-20-76-40l-30-30c-23-26-41-56-54-88-5-14-9-29-11-44-3-30.6-5.3-61.3-7-92l3-57c4-28 10-56 21-82l16-42c5-12 10-23 18-34 8-13 18-25 27-38 17-21 38-37 63-48 16-8 33-14 50-19 11-3 23-3 34-3h21c11-1 23 0 34 3 18 6 35 11 51 19a177.5 177.5 0 0 1 58 44 447.7 447.7 0 0 1 49 75l21 55c7 20 12 41 15 63l4 62"/>
    <path fill="#FFF" d="M125.4 437.4c-1 17 0 32 3 46l8 38c9 41 29 76 57 107l31 31c16 15 35 26 57 34l28 7 34 5 33-3 9-2 28-7c22-7 41-18 58-34l24-23a226.8 226.8 0 0 0 61-101c4-11 6-23 9-35 4-18 6-37 6-57-1-22-2-44-5-65-3-26-9-51-18-74-9-23.1-18.3-46.1-28-69-12-21-25-41-41-59-13-14-28-25-47-32l-28-9c-21.8-6-44.4-8.7-67-8l-19 2c-18 3-35 8-51 14-16 5-31 14-43 26l-13 15c-10 12-19 24-27 37-8 11-14 23-19 36l-15 39c-11 28-18 57-21 88l-4 53m451-11c0 18-1 35-3 53l-3 28c-3 22-9 43-18 63-14 28-31 54-54 76l-19 19c-19 18-42 29-68 36l-30 5a269 269 0 0 1-38 3c-12 0-24-2-36-4-9-2-19-3-28-6-24-7-46-18-64-36l-26-25c-24-27-42-57-54-91l-9-36-5-46a364.6 364.6 0 0 1 1-91c3-28 10-55 20-81l15-39c4-11 10-23 17-33l27-36c15-18 33-32 53-42 12-6 25-11 37-15l24-7 22-1h22c10 0 21 0 31 3 17 5 34 11 50 19 22 10 40 25 55 44l26 34c7 11 13 22 18 34l19 51c7 19 12 39 14 60 3 20 4 41 4 61"/>
    <path fill="#FFF" d="M282.4 216.4v-1h-1l-6 4c-2 1-2 2-1 4l4 7h1v-1l3-11v-2m-4 19v-1l-6-11h-2l-6 4v1l13 7h1m176 35h3l6-1-3-6-2-2h-2l-9 7 1 2h6m-9-8v3h2l4-5c4-3 4-6 1-10l-2-2-2-1-1 1-2 14m-17 233c0 4 1 6 3 9l6 5 8 7c4 3 7 6 8 10h2l6-12 8-20c2-5 4-9 9-12l7-5c5-5 9-11 11-18l3-11 3-25c1-11 3-21 8-30v-8l-1-1-1 1c-2 8-6 15-9 22-2 4-5 6-9 6s-4 0-6 4l-1 4-5 12c-2 6-5 10-10 13l-5 4-23 26a55.4 55.4 0 0 0-9 12c-2 2-3 5-3 7m-89 62c0-5-1-9-4-13-5-5-11-9-18-11-13-3-24-7-35-13-9-4-15-9-19-18l-3-6-3-5c-3-5-7-8-13-8h-4c-5-1-9-3-13-7s-7-8-9-13l-4-7-1 1 5 28 2 10c2 5 5 9 9 11l5 2c5 3 10 6 12 11l4 5c1 3 4 5 7 6l3 1c7 3 14 7 19 12l12 9 6 4c4 2 8 5 11 9l5 5c0 1 1 2 3 1l13-3 7-5 3-6m175-126-2-28v-1l-1 1-3 15-2 25-3 17c-3 8-8 16-16 21l-6 3-5 5-2 6-3 9c-7 19-17 34-34 45l-6 4-3 4c-2 4 0 8 3 10l5 1 8 2c6 1 11 3 15 7l1 1h1l2-1c8-8 14-17 19-27l15-31c6-14 11-28 13-43l4-45m-261-101 3 21 4 10 10 24 11 19 15 16c7 7 13 15 18 25l5 7h2c2-2 5-3 8-3l14-2 20-1 8-1c6-2 8-7 5-13-5-8-11-15-20-19l-9-9-5-8-5-7c-1-3-2-4-5-3l-5 2c-3 1-6 0-9-2l-2-3c-6-7-10-15-13-23-3-7-2-6-8-1l-1 3 2 12 1 8c1 6 4 10 8 14 6 7 11 14 14 22l9 17 1 1v1h-1l-1-2c-6-6-10-13-14-20l-11-17c-7-9-12-19-14-31-1-6-3-12-6-17l-8-21c-2-6-4-7-9-6h-8c-1 0-2-2-4-1v8m-44 128-1 1-4 8c-2 3-5 5-8 5l-6 4-3 5c-2 3-2 5-1 7l5 17c9.2 23.2 21 45.3 35 66l23 23 2 2h3l2-1c10-5 21-10 33-14l20-7v-3c-4-5-10-9-16-12l-9-5c-4-2-8-5-10-9-4-6-9-10-16-11-7-2-13-6-17-12l-7-8-11-5-8-7-2-7-2-12-1-22-1-3m227-85h1v4c0 7-2 13-7 17l-1 1c-5 4-9 10-12 15l-3 4-1 1v-1l3-6 9-15 5-6c1-2 3-5 3-9v-9c1-4 1-9 4-13 2-4 4-9 4-13l1-12v-3l-2 2-8 14c-2 2-4 4-7 4h-3c-3 0-4 1-5 3l-1 2c-6.4 16-14.1 31.3-23 46l-4 4h-1v-1l2-3 8-15 2-10c1-2 1-3-1-4s-2-1-3 1l-8 11c-5 6-8 5-13 3-3-2-3-2-5 1-4 6-7 12-12 16-2 2-2 2 0 4l15 17 5 2 10 1 27 4c11 3 21 7 29 13l8 7c2 3 2 3 3 0l1-1 9-12 6-7 9-15c2-3 3-5 7-6 3 0 5-2 6-4l5-8 8-21v-5l-7-27c-3-10-6-19-11-28l-1-3-3 3-1 3-2 9c-2 8-4 15-9 21l-7 11-7 16-1 3h-1v-1l1-11 4-7 4-11v-2c-3-1-5-3-7-6l-11-13h-1v1l1 8c0 7-1 12-6 17l-2 2-3 7v10m-256 58v2c.4 13.4 1.8 26.8 4 40l1-2c2-3 5-5 8-5l4-2 3-4 8-13c1-3 3-3 5-1l3 4 8 12 7 9c4 4 8 7 13 8l3 1c5 1 9 4 12 7l5 7 8 12 2 2h1l2-1c6-6 14-10 23-12l11-2c13.2-1.6 26.2-4.3 39-8 6-3 6-8 1-12l-9-5c-5-3-10-4-15-5l-6-2-3-3-4-9c-4-8-9-14-16-19l-10-8a64.5 64.5 0 0 1-21-35c-2-10-6-19-11-27l-6-11c-2-5-3-9-3-14v-13c1-7-1-14-4-20h-2l-2 2c-2 4-5 8-9 11-3 1-5 4-6 7l-3 11-7 14-7 12-17 19-6 6-2 8v1l-2 38m166 212 11-2c11-2 22-5 33-11 18-9 35-20 51-33l14-12v-2c-4-4-7-6-12-8l-6-2-7-2c-5-3-8-9-5-15 0-2 2-4 4-6l6-5 6-4 6-6c3-3 3-6 1-9l-4-6-9-7-6-6c-4-4-5-10-4-15l2-7 6-8 10-11 5-5c3-3 3-5 1-9l-4-4c-6-5-12-9-19-11l-18-3-28-4h-1v1l1 2c2 6 0 11-5 14l-5 2-6 1-19 1-16 1-6 3c-2 1-2 2 0 3l8 2 18 6 6 5c4 4 4 9 0 13l-7 4c-11 6-24 10-37 12-6 0-11 2-17 3-5 1-9 4-13 8-2 1-2 2 0 3 5 4 10 6 16 8l26 9c7 3 12 8 16 15l3 6c1 7-1 12-6 15l-8 4-18 8-20 8-29 12-3 1v2l3 2 24 16c16 10 33 18 51 21l10 2m-37-408h8l-1 1-4 1-7 1-1 2 3 3v1l-1 1-3-4c-2-2-3-3-6-2h-11l-2 1 1 2 6 6c2 2 4 4 8 2h2l-2 2c-2 1-2 1 0 4l1 2-1 1h-1l-2-2c-1-1-1 0-2 1l-1 3-1 1-1-1 1-4c1-2 1-4-1-5l-8-9c0-1-1-2-3-2l-1 4c0 1 0 3 2 4l3 4v1h-1l-3-3-2 1c0 2-1 4 1 6l2 3 1 2-1 1h-1l-2-3v-1l-1 1-2 7-1 2-1-2 1-5v-4l-3 3h-1v-1l4-5 2-3v-2l-2 1h-3v-1l2-2c4-1 4-3 4-6l1-2c0-1-1-2-2-1l-12 7c-1 0-2 1-1 2v4l-1 2-1-2-1-3c-1-1-2 1-3 1l-2-1 1-1 1-1v-2l-1-1v-1h1l2 1h3l12-7v-1l-12-6c-2-1-3 0-5 1-9 9-17 19-23 30l-15 26c-7 11-12 23-17 35-6 13-9 27-13 42v2l2-2c11-13 21-27 28-43 1-4 3-7 6-10l7-8 5-6 3-2c2-1 3-1 4 1l1 2 6 10c2 4 5 7 10 8l3 1c6 1 10 4 13 9 5 9 11 17 15 26 0 2 1 2 2 1l5-3c1-1 2 0 4 1l2 4 8 13 7 9 5 4c2 2 4 2 6 1l3-1c2-1 4 0 6 1l4 6 8 9c1 3 1 3 3 0l11-12 4-5 4-1 3 1c2 1 4 0 6-2l7-7 3-4c2-4 4-4 7-1h2l1-2 11-19c1-2 2-2 4-2h2l6-2 4-5 12-17c3-5 4-5 7-1l5 9c3 6 8 10 13 14l2-1 4-10 4-12c2-4 3-8 7-10v-2l-1-2-14-26-3-5c-1-1-1-2-3-1h-14l-1 1 1 1 7 9c2 1 3 2 6 1l2-1 1 1v1l-2 1c-2 1-2 1-1 2l2 3v2h-2l-2-2h-1l-2 4-1 1-1-1 2-6-1-3-10-10-1-2-2 1c0 3-1 6 2 9l2 2 1 1-1 1h-1l-1-2c-1 0-2-2-3-1l-1 3 1 2 3 4 1 2-1 2h-1l-1-1-2-3-1 4-1 4v1l-1 1-1-1v-4l1-5h-1l-3 2-1 1v-2l4-5 2-3v-2h-2l-1 1-1-1v-1l2-2c3-1 4-3 4-5v-3c0-1-1-2-2-1l-12 7-2 4v4l-1 1v-2l-1-3h-5c-1-1 0-2 1-2 2-1 1-2 0-3v-1l1-1 2 1h2l13-6v-2l-13-6c-2-1-3 0-4 1l-3 2-1 1v-2l2-2c1-1 1-2-1-3l-6-2-3-2-1-1 2-1 3 1 4 1c2 1 2 1 2-1v-2l1 1 2 2c0 2 2 3 3 4l14 6 2 1h1v-1l-9-12-2 1h-2l-1-1 1-1 2-1c2-1 3-1 2-3l-3-5v-2l2 2 2 4 2 1 1-2 1-4v-2l1-1 1 1v1l-2 8v4l6 7 2-12c1-5-1-10-4-13l-13-13c-12.2-7.5-24.6-14.8-37-22-12-6-25-10-37-14-5-2-10-2-15 0l-14 5c-12 4-23.8 9-35 15-4 2-6 5-7 9v13l5-4 2-4 3-10h1l-1 7 1 1h1l2-2 3-3 1 1-2 3-3 3v2l3 2 1 1c0 2-1 1-2 1l-4-2h-3l-7 7-1 1 2 1h11c2 0 5-1 6-3l1-1 4-3-2 4h-1v1l1 1h4m212 190a271.5 271.5 0 0 1-47 150l-17 20-22 19c-13 8-26 16-40 22-13 6-26 10-41 12-6 1-13 1-20-1-18-3-35-9-51-18a283 283 0 0 1-43-30 218.2 218.2 0 0 1-33-44l-18-39a310.3 310.3 0 0 1-17-90c0-21 2-43 7-64l9-32c11-31 27-58 49-83l13-15a167.7 167.7 0 0 1 41-35c15-7 31-13 47-15 7-1 15-1 22 1 16.8 3.6 33 9.6 48 18 13 8 24 18 35 30l21 26c23 28 39 60 47 95l6 24 4 34v15"/>
    <path fill="#9D432C" d="m397.4 309.4-2-2-2 2 2 2 2-2m-3-83-2 2 2 2 2-2-2-2m16 103c-1 0-2 1-2 3l2 2 2-2c0-2-1-3-2-3m-120-33-2 2c0 2 1 3 2 3 2 0 3-2 3-3s-1-2-3-2m88-42-3 2c0 2 2 3 3 3 2 0 2-1 2-3l-2-2m8 67-3-3-3 3c0 2 2 3 3 3 2 0 3-1 3-3m-82-46c-2 0-3 1-3 2a3 3 0 0 0 0 4.2 3 3 0 0 0 4.3-.1c.8-.8 1-2 .6-3.1 1-2-1-3-2-3m-51 9c2 0 4-1 4-4 0-2-2-3-4-3s-4 1-4 4c0 2 2 3 4 3m93 68c-2 0-4 1-4 4-1 2 1 4 3 5 3 0 5-2 5-4 0-3-1-5-4-5m-6-111c3 0 5-2 5-5 0-2-2-4-5-4-2 0-4 2-4 4 0 3 2 5 4 5m-4 92v3l1 1 1-1v-6l1-1h1l2 2-1-3-2-2-1-2 1-2 2 1h2l-1-1-2-2c-2-1-2-4-2-6l1-1 10 8 1 2v5h1v-2c.8-1.3 1.8-1.7 3-1h2v-1l-1-1-2-2 3-2v-1h-1l-3 1h-2l-8-7h-1l1-1 11-2 3 1 3 2h1v-1c-1-1-3-1-3-3l4-2 3-1 3-1c-1-2-3-1-4 0l-6 1v-1l1-2v-1h-1l-3 3c0 2-2 2-4 3h-2c-3 1-5 2-8 1l5-7 3-1 1 1h3c1-2-1-2-2-2-2-1-2-1-1-3 .8-1.7 1.5-3.3 2-5l-1 1-3 3c-2-1-1-3-1-5l-1-1-1 1v7l-1 2-4 6-1-1v-10l1-5 3-5v-1h-1l-2 2-1 1v-1l-1-2v-1 3l-1 1h-1l-2-2v-1l-1 1c4 5 5 10 4 16 0 2 1 3-1 5l-3-4v-1c-2-1-2-2-2-4v-8l-1 1v4l-1 2-2-1-3-3 2 4c2 2 2 2-1 4l-1 2h2l2-1h2l6 7v1l-1 1-10-3c-2-1-5-1-6-5h-2v1c0 1 0 2-1 1h-7l1 1 3 2 4 1c2 0 2 0 1 1s-2 2-1 3l2-2h1c0-1 2-2 3-1l10 2 1 2-9 6-3 1h-1v5h1l2-1c.8 1 1.4 2 2 3h1l-1-3c-1-2 0-3 2-4l7-6h2v5l-2 2c-1 1-2 2-1 3l2-1h1c1 2 0 3-1 4l-3 5h1v1l1-1 2-2v4m-26-98h-5l-1-1 1-1c0-1 3-2 2-4l-4 3-1 1c-1 2-4 3-6 3h-11l-2-1 1-1 7-7h3l4 2c1 0 2 1 2-1l-1-1-3-2v-2l3-3 2-3v-1h-1l-3 3-2 2h-1l-1-1 1-7h-1l-3 10c0 1 0 3-2 4l-5 4h-2l2-10 1-3c0-4 3-7 6-9l9-5 26-10 14-5c5-2 10-2 15 0 13 4 25 8 37 14l19 10a1091 1091 0 0 1 31 25c3 3 5 8 4 13l-2 12-1 1-1-1-4-7v-4l2-8v-1l-1-1-1 1v2l-1 4-1 2-2-1-2-4-2-2v2l3 5c1 2 1 2-2 3l-2 1-1 1 1 1h2l2-1 3 1c1.8 4 3.5 8 5 12l-2-1-14-7-3-3-1-2-1-1-1 1v1c0 2 0 2-2 1l-3-1-4-1-2 1 1 1 3 2 6 2c3 1 3 2 1 3l-2 2v1h1l3-2c1-1 2-2 4-1l13 6c2 0 2 1 0 2l-12 6h-3l-2-1-1 1v1c2 1 2 2 0 3l-1 2h5l1 3 1 2 1-1v-4c-1-2 0-3 1-4l12-7c2-1 2 0 2 1v3c0 2-1 4-4 5l-2 2v1l1 1 1-1 2-1v3l-2 3-4 5v2l1-1 3-2h1v5l-1 4 1 1 1-1v-1l1-4 1-4c2 0 2 2 2 3l1 1h1l1-2-1-2-3-4-1-2 1-3c2-1 2 1 3 1l2 2h1v-1l-1-1-2-2c-3-3-2-6-2-9l2-1 1 2 10 10 1 4-1 5v1l1-1 2-4h1l3 2h1v-2l-2-3c-1-1-1-1 1-2l2-1v-1l-1-1-2 1c-2 1-4 0-6-1l-7-9-1-1 1-1h15c1-1 2 0 2 1l3 5 14 26 1 2v2c-3 2-5 6-7 10l-4 12-4 10-2 1c-5-4-10-8-13-14l-5-9c-3-4-4-4-7 1l-12 17-4 5-6 2h-2c-2 0-3 0-4 2l-1 1-10 18v2h-2c-4-3-5-3-8 1l-3 4-7 7c-1 2-4 3-6 2l-3-1-4 1-4 5-11 12c-1 3-2 3-3 0l-8-9-4-6c-2-1-3-2-6-1l-3 1h-6l-5-5-7-9-8-13-2-4c-1-1-3-2-4-1l-5 3c-1 1-1 1-2-1-4-9-10-17-15-26-3-5-7-8-12-9l-4-1c-4-1-8-4-10-8l-5-10-1-2c-2-2-3-2-5-1l-3 2-5 6-7 8-6 10c-6 16-17 30-28 43l-2 2v-2c4-14 7-29 13-42 5-12 10-24 17-35l15-26c6-11 14-21 23-30 2-1 3-2 5-1l12 6v1l-12 7h-3l-1-1h-1l-1 1 1 1v2l-1 1-1 1 2 1c1 0 2-2 3-1l1 3 1 2 1-2v-4c-1-1 0-2 1-2l12-7c1-1 2 0 2 1v2c-1 3-1 5-4 6l-3 2 1 1h2l2-1v2l-2 3-4 5v1h2l2-3c2 2 0 3 0 4l-1 5 1 2 1-2 2-7 1-1v1l2 3h1l1-1-1-2-2-3-1-6 2-1 3 3h1v-1l-3-4c-2-1-2-3-2-4l1-4 4 2 7 9c2 1 2 3 1 4v6l1-1 1-3c1-1 1-2 2-1l2 2h1l1-1-1-2c-2-3-2-3 1-4l1-2h-2c-4 2-6 0-8-2l-6-6-1-2 2-1h11c3-1 4 0 6 2l3 4 1-1v-1l-2-3v-2l7-1 4-1 1-1h-7m37 408-11-2c-18-4-35-11-51-21l-24-16-3-2v-2l3-1 29-12 20-8 19-8 7-4c5-3 7-8 6-15l-3-6c-4-7-9-12-16-15l-26-9c-6-2-11-4-16-8-2-1-2-2 0-3 4-4 8-7 13-8 6-1 11-3 17-3 13-2 26-6 38-12l6-4c4-4 4-9 0-13l-6-5-18-6-8-2c-1-1-2-2 0-3l6-3 16-2h19l6-1 5-2c5-3 7-8 5-14l-1-2v-1h1l28 4 18 3a44 44 0 0 1 23 15c2 4 2 6-1 9l-4 5-10 10-7 9-2 7c-1 5 0 11 4 15l6 6 9 7 4 6c2 3 2 6-1 9l-6 6-6 4-6 5-4 6c-3 6 0 12 5 15l7 2 6 2 12 7v3l-14 12c-16 13-33 24-51 33-11 5-22 9-33 11l-10 2"/>
    <path fill="#9D432C" d="m180.4 431.4 2-38 1-1 1-8c1-3 4-4 6-6l17-19 7-12 7-14 3-11c1-3 3-6 6-7 4-3 7-7 9-11l2-2h2c3 6 5 13 4 20v12c0 6 1 10 3 15l6 11c5 8 9 17 11 27 3 14 11 25 21 35l10 8c7 5 12 11 16 19l4 9 3 3 6 2c5 1 10 2 15 5l9 5c5 4 5 9-1 12l-10 3-29 5-11 2c-9 2-16 6-23 12l-2 1h-1l-2-3-8-11-5-7c-3-3-7-6-12-7l-3-1c-5-1-9-4-13-8l-7-9-8-12-3-4c-2-2-4-2-5 1l-8 13-3 4-4 2c-3 0-6 2-8 5l-1 2h-1v-3c-2-12-3-25-3-37v-2m256-58 1-10 2-7 2-2c5-5 6-10 6-17l-1-8v-1h1l11 13c2 3 4 5 7 6v2l-4 11-4 7-1 11v1h1l1-3 7-16 7-11c5-6 7-13 9-21l2-9 1-3 3-3 2 3 10 28 7 27v5l-8 21-5 8c-1 2-3 4-6 4-4 1-5 3-7 6a78.7 78.7 0 0 1-15 22l-9 12-1 1c-1 3-1 3-3 0l-8-7c-8-6-18-10-29-13l-27-4-10-1-5-2-15-17c-2-2-2-2 0-4 5-4 8-10 12-16 2-3 2-3 5-1 5 2 8 3 13-3l8-11c1-2 1-2 3-1s2 2 1 4l-2 10-8 15-2 3v1h1l4-4 7-12 17-34v-2c1-2 3-3 5-3h3c3 0 5-2 7-4l8-14 2-2v3l-1 12c0 4-2 9-4 13-3 4-3 9-4 13v9c0 4-2 7-3 9l-5 6-9 15-3 6v1l1-1 3-4c3-6 7-11 12-15l1-1c5-4 7-10 7-17v-4h-1"/>
    <path fill="#9D432C" d="m209.4 458.4 1 3 1 22 2 12 2 7 8 7 11 5 7 8c4 6 10 10 17 12 7 1 12 5 16 11 3 4 6 7 10 9l9 5c7 3 12 7 16 12v3l-20 7c-12 4-23 9-33 14l-2 1h-3l-2-2a258.8 258.8 0 0 1-35-39c-9-16-17-33-23-50l-5-17c-1-2-1-4 1-7l3-5 6-4c3 0 6-2 8-5l4-8 1-1m44-128v-8h4l8 1c5-1 7 0 9 6l8 21c3 5 5 11 6 17 2 11 7 22 14 31l11 17c4 7 8 14 14 20l1 2h1v-1l-1-1-9-17c-3-8-8-15-14-22-4-4-7-8-8-14l-1-8-2-12 1-3c6-5 5-6 8 1 3 8 7 16 13 23l2 3c3 2 6 3 9 2l5-2c3-1 4 0 5 2l5 8 5 8 9 9c9 4 15 11 20 19 3 6 1 11-5 13l-8 1-20 1-14 2c-3 0-6 1-8 3h-3l-4-7c-5-10-11-18-18-25l-15-16-11-19-10-24-4-10-3-21m261 101-4 45c-2 15-7 29-13 43l-15 31c-5 10-11 19-19 27l-2 1h-1l-1-1c-4-4-9-6-15-7l-8-2-5-1c-3-2-5-6-3-10l3-4 6-4c17-11 27-26 34-45l3-9 2-6 5-5 6-3c8-5 13-12 16-21l3-17 2-25 3-15 1-1v1l2 28"/>
    <path fill="#9D432C" d="m339.4 557.4-3 6-7 5-13 3c-2 1-3 0-3-1l-5-5c-3-4-7-7-11-9l-6-3-12-10c-5-5-12-9-19-12l-3-1c-3-1-6-3-7-6l-4-5c-2-5-7-8-12-11l-5-2c-4-2-7-6-9-11l-2-10-5-28 1-1 4 7c2 5 5 9 9 13a22 22 0 0 0 17 7c6 1 10 3 13 8l3 5 3 6c4 9 10 14 19 18 11 6 22 10 35 13 7 2 13 6 18 11 3 4 4 8 4 13m89-62 2-7c2.9-4.4 6.2-8.4 10-12l23-26 5-4c5-3 8-7 10-13l5-12 1-4c2-4 2-4 6-4s7-2 9-6c3-7 7-14 9-22l1-1 1 1v8c-5 9-7 19-8 30l-3 25-3 11c-2 7-6 13-11 18l-8 5c-4 3-6 7-8 12l-8 20-6 12h-2c-1-4-4-7-8-10l-8-7-6-5c-2-3-3-5-3-9m17-233 2-14 1-1 2 1 2 2c3 4 3 7-1 10l-4 5h-2v-3m9 8h-6l-1-2 9-7h2l2 2 3 6-6 1h-3m-176-35h-1l-13-7v-1l6-4h2l6 11v1m4-19v2l-3 11v1h-1l-4-7c-1-2-1-3 1-4l6-4h1v1"/>
    <path fill="#FFF" d="M336.4 333.4v-4l-2 2-1 1-1-1 3-5c1-1 2-2 1-4h-1c-1 0-1 2-2 1s0-2 1-3l2-2v-5h-1l-1 1-7 5c-2 1-3 2-2 5l1 2h-1l-1-1-1-2-2 1h-1v-1l1-2-1-1v-1h1l3-1 9-6c1-1 0-1-1-1l-10-3c-1-1-3 0-3 1l-1 1-2 1c-1-1 0-2 1-3s1-1-1-1l-4-1-3-2-1-1h7c1 1 1 0 1-1v-1h2c1 4 4 4 6 5l10 3 1-1v-1l-8-7-2 1h-2l1-2c3-2 3-2 1-4l-2-4 3 3 2 1 1-2v-4l1-1v8l1 4 1 1 3 4c2-2 1-3 1-5 1-6 0-11-4-16l1-1v1l2 2h1l1-1v-2l1 2v1l1-1 2-2h1v1l-3 5-1 5v10l1 1 4-6 1-2v-7l1-1 1 1c0 2-1 4 1 5l3-3 1-1h1l-3 5c-1 2-1 2 1 3 1 0 3 0 2 2h-3l-1-1-3 1-5 7c3 1 5 0 8-1h2c2-1 4-1 4-3l3-3h1v1l-1 2v1l6-1h4l-3 1-3 1-4 2c0 2 2 2 3 3v1h-1l-4-2-2-1-11 2-1 1h1l8 7h2l3-1h1v1l-3 2 2 2 1 1v1h-2c-1.3-.7-2.3-.3-3 1v2h-1v-5l-1-2-10-8-1 1c0 2 0 5 2 6l2 2 1 1h-2l-2-1-1 2 1 2 2 2 1 3-2-2h-1l-1 1v6l-1 1-1-1v-3m4-92c-2 0-4-2-4-5 0-2 2-4 4-4 3 0 5 2 5 4 0 3-2 5-5 5m6 111c3 0 4 2 4 5 0 2-2 4-5 4-2-1-4-3-3-5 0-3 2-4 4-4m-93-68c-2 0-4-1-4-3 0-3 2-4 4-4s4 1 4 3c0 3-2 4-4 4m51-9c1 0 3 1 2 3l-2 2c-2 0-3-1-3-3 0-1 1-2 3-2m82 46c0 2-1 3-3 3-1 0-3-1-3-3l3-3 3 3m-8-67 2 2c0 2-1 3-2 3s-3-1-3-3l3-2m-88 42c2 0 3 1 3 2s-1 3-3 3c-1 0-2-1-2-3l2-2m120 33 2 2c0 2-1 3-2 3l-2-2c0-2 1-3 2-3m-16-103 2 2-2 2-2-2 2-2m3 83-2 2-2-2 2-2 2 2m-149.5 116c0 .4-.3 6.8-.2 13.3-6.8.5-5.7-13.3-5.3-15 .2-1.4-4.4 1.7-6.6 3.8.7 1.3 1.7 1 2.9.5-.4 6.2 3.9 11.8 9 11.7.2 6.4.9 12.5 2.7 13 .2 0 .4-6.5.6-13.7 12.2-3.8 7.6-18.3 7.6-18.3-.2-.8-2 .3-6 3.9 1.6 1.7 2.4.7 3.6.3 1 1.9 1.4 10.5-5.1 13l.3-18-.4-.2c-1.8.2-5 3.4-7.5 6 1.3 2.2 3 .2 4.4-.3m5.9 19 2.8 2.9 2.8-2.8-2.8-2.8-2.8 2.8Z"/>
  </g>
</symbol></svg>
