<svg xmlns='http://www.w3.org/2000/svg' viewBox='0 0 30 30' fill='none'>
<symbol id='Kitesurf'>
<path fill-rule="evenodd" clip-rule="evenodd" d="M4.54197 21.4199C4.73203 21.2999 9.14331 18.5499 14.5249 21.4599C16.7055 22.6399 18.7561 23.0299 20.5266 23.0299C23.9079 23.0299 26.2735 21.5874 26.5322 21.4297L26.5484 21.4199C27.0085 21.1199 27.1385 20.4999 26.8385 20.0399C26.5384 19.5799 25.9282 19.4399 25.458 19.7399C25.428 19.7599 25.258 19.8599 24.9979 19.9899C25.1079 18.5899 25.158 17.0399 25.158 15.3699C25.158 7.22988 21.3569 3.43988 21.1968 3.28988C20.8067 2.90988 20.1865 2.90988 19.8064 3.28988L19.8052 3.29106C19.6287 3.46747 15.8453 7.24879 15.8453 15.3699C15.8453 17.0299 15.8953 18.5599 16.0053 19.9499L16.0053 19.9499L16.005 19.9498C15.8351 19.8698 15.6651 19.7898 15.4852 19.6999C9.04328 16.2099 3.69172 19.5899 3.47166 19.7399C3.01153 20.0399 2.88149 20.6599 3.18158 21.1199C3.48166 21.5799 4.09184 21.7199 4.56198 21.4199H4.54197ZM17.8358 15.3699C17.8358 10.2299 19.5163 7.03988 20.4966 5.59988C21.4769 7.02988 23.1574 10.2299 23.1574 15.3699C23.1574 17.3699 23.0774 19.1599 22.9173 20.7399C21.6469 21.0499 19.9665 21.1899 18.0659 20.7099C17.9159 19.1399 17.8358 17.3599 17.8358 15.3699ZM25.448 23.7099C25.258 23.8299 20.8467 26.5799 15.4651 23.6699C9.02325 20.1799 3.6717 23.5699 3.45163 23.7099C2.9915 24.0099 2.86146 24.6299 3.16155 25.0899C3.46164 25.5499 4.07181 25.6899 4.54195 25.3899C4.73201 25.2699 9.14329 22.5199 14.5249 25.4299C16.7055 26.6099 18.7561 26.9999 20.5266 26.9999C23.9079 26.9999 26.2735 25.5575 26.5322 25.3997L26.5483 25.3899C27.0085 25.0899 27.1385 24.4699 26.8384 24.0099C26.5383 23.5499 25.9282 23.4099 25.458 23.7099H25.448ZM4.57844 14.0166C4.57961 14.021 4.58079 14.0254 4.58198 14.0299V14.0199C4.5808 14.0188 4.57962 14.0177 4.57844 14.0166ZM4.45195 12.7499C4.44205 13.1851 4.47131 13.6106 4.57844 14.0166C4.26984 13.7274 4.00098 13.3985 3.78175 13.0299C2.17128 10.3199 3.70173 6.43988 7.20275 4.36988C10.7038 2.29988 14.835 2.82988 16.4454 5.54988C16.6655 5.91988 16.8155 6.30988 16.9256 6.71988C16.6355 6.44988 16.3054 6.22988 15.9553 6.02988C15.9453 6.05988 15.9453 6.12988 15.9453 6.12988L14.0147 12.1199L14.6349 14.9599V15.0299V15.2499C14.6349 15.3023 14.6273 15.347 14.6187 15.3975C14.6174 15.4048 14.6162 15.4123 14.6149 15.4199C14.6049 15.4799 14.5749 15.5399 14.5449 15.5999C14.5149 15.6599 14.4849 15.7199 14.4449 15.7699C14.4348 15.7799 14.4298 15.7899 14.4248 15.7999C14.4198 15.8099 14.4148 15.8199 14.4048 15.8299C14.3904 15.8515 14.3708 15.8627 14.3498 15.8748C14.3416 15.8795 14.3332 15.8843 14.3248 15.8899L14.3248 15.8899C14.2648 15.9399 14.2048 15.9899 14.1348 16.0299C14.0847 16.0599 14.0347 16.0799 13.9747 16.0999C13.9684 16.1041 13.962 16.1088 13.9556 16.1135C13.9316 16.1312 13.9063 16.1499 13.8747 16.1499C13.8047 16.1699 13.7346 16.1699 13.6646 16.1699C13.5446 16.1699 13.4346 16.1499 13.3245 16.1099H13.3145C13.2045 16.0699 13.1145 16.0099 13.0244 15.9399H13.0144L10.7938 14.0099L4.622 12.8199C4.587 12.814 4.5554 12.798 4.52324 12.7817C4.50025 12.77 4.47697 12.7582 4.45195 12.7499ZM4.85206 10.8577C4.89874 10.8554 4.94542 10.8532 4.9921 10.8599L7.78291 11.3999L5.50225 9.40988C5.20216 9.87988 4.95209 10.3599 4.78204 10.8599C4.80538 10.8599 4.82872 10.8588 4.85206 10.8577ZM14.0447 5.52988C14.0647 5.47988 14.1248 5.38988 14.1248 5.38988C13.6146 5.30988 13.0745 5.27988 12.5243 5.30988L13.1645 8.24988L14.0447 5.52988ZM10.5537 5.64988C9.85352 5.84988 9.15331 6.13988 8.48312 6.53988V6.54988C7.84293 6.92988 7.27277 7.37988 6.77262 7.86988L12.0342 12.4599L10.5537 5.64988Z" fill="currentcolor"/>
</symbol>
</svg>
