<svg xmlns='http://www.w3.org/2000/svg' viewBox='0 0 696 830' fill='none'><symbol id='LAPC_Outline'>
  <g fill="#9D432C">
    <path d="M124 435.2v12c1.7 28.7 6.4 57.2 14 85 8 31 24 59 44 84 14 18 31 34 49 49a149 149 0 0 0 75 33c22.8 6.3 46.8 7 70 2l9-1c10-2 20-4 29-8 21-7 40-18 56-33l25-24c10-11 20-22 28-34 13-20 24-41 31-64l9-38c4-18 6-36 6-54l-4-63c-3-27-10-54-19-80l-18-45-13-28c-11-17-22-33-34-48-13-16-29-28-49-35a288.2 288.2 0 0 0-86-19l-26 2c-20 3-40 9-60 17-10 3-20 9-28 16-8 6-16 13-22 22l-29 39-17 34-17 45a305.8 305.8 0 0 0-20 90l-3 44m451-16c0 20-1 38-3 56l-4 34c-3 20-8 39-16 56-14 30-32 57-55 80l-19 18c-20 19-44 31-70 37l-36 7c-17.6 2-35.4 2-53 0l-31-6c-28-6-53-18-75-39a290.2 290.2 0 0 1-75-103c-7-16-11-33-13-50-2.9-28-5.2-56-7-84l3-51c3-28 9-55 19-81l16-42a444.8 444.8 0 0 1 46-70 157.9 157.9 0 0 1 74-49l28-9c7-2 14-3 22-3l18 1h5l20-1c6 0 13 1 19 3 17 5 34 10 49 18 22 11 41 25 56 44l27 36c7 10 13 21 17 32l17 43c8 23 14 46 17 71l4 52"/>
    <path d="M362 266.2c16-1 31-4 46-11 10-4 19-10 28-17 3-2 3-2 1-4l-9-7-25-18-13-6c-12-6-25-10-38-14-5-2-10-2-15 0l-17 6a165.8 165.8 0 0 0-55 30c-5 3-9 6-12 10l-12 14-2 2v1h1l2-1 18-2c13-1 25 0 38 3l31 9c11 3 22 4 33 5m149 161v-20l-2-14v-3l-2-1-2 2-18 12a146.4 146.4 0 0 1-94 19l-12-2h-2l1 2 10 12c2 3 4 5 7 6l23 9c10 5 21 9 30 15a90.3 90.3 0 0 0 42 13c2 1 2 2 1 3l-1 1c-9 7-19 12-31 13-11 1-21-1-31-4-2-1-4-1-6 1v1l-26 16-2 1v1l1 1 28 14c9 4 18 8 28 10 10 3 20 4 30 3 2 0 4-1 5-3l6-14c6-13 10-26 13-39 3-17 4-35 5-55m-333 18 2 19c1 13 4 25 8 38s10 25 16 38c2 3 1 3 5 1 26-21 55-35 88-43l5-1v-1l-1-2c-4-4-8-9-10-15-2-5-5-10-9-13a75.5 75.5 0 0 1-22-49v-17c0-2 0-2-2-2a134.5 134.5 0 0 0-77 33c-2 2-3 3-3 6v8m166 197h5l6-2c17-3 33-10 48-19l16-11c18-11 33-25 46-40 6-7 11-14 15-23l1-2v-1h-4c-13 1-26-1-39-6l-24-11-22-12c-4-2-7-2-12-1-15 6-31 5-47 0-8-2-15-6-22-11-2-1-4-2-6-1l-10 2c-24 5-47 15-68 28l-18 12c-2 1-2 2-1 3l13 21c17.4 20.3 38 37.5 61 51 16 10 33 17 51 21l11 2m63-226 26-1c26-4 50-15 71-31 2-1 2-3 2-5l-5-17v-1l-2-1-2 2c-6 5-13 9-20 12a68.8 68.8 0 0 1-49 5l-20-5c-8-3-17-4-25-2l-12 1h-5c1-2 3-2 4-2 13-5 26-6 40-3l20 6c11 2 22 3 33 0 13-3 24-10 35-18v-3l-9-30c-8-20-20-40-31-59 0-1-1-2-2-1l-8 5-23 14c-7 5-14 8-22 11-9 2-18 4-27 4h-2l2-1 5-1c15-3 29-9 42-17l30-19c1-1 2-2 0-3l-9-13c-2-3-2-2-5 0-10 8-20 15-32 20-21 9-42 12-65 8l-29-8c-11-3-22-7-33-8-15-3-29-2-43 2l-6 4-11 20c-14 24-25 49-31 76l-8 29c-2 13-3 26-3 40 0 1-1 3 1 3l2-2c21.7-19.4 49-31.4 78-34 2 0 2-1 3-3 1-8 5-16 8-23l4-10c2-3 3-7 3-10 1-3 1-5-1-8-2-4-5-8-9-11-6-5-14-9-22-12l-21-4-9-1c-2 0-3-2-1-3l4-3c15-7 30-7 45 1 9 4 15 11 19 21l1 3-1 1-3-3c-5-8-12-14-20-19s-17-7-27-5l-13 4-1 1h4l18 1c11 2 20 5 29 10l9 8c4 5 7 11 7 18l-2 20-6 22c-3 17-4 34-2 51 2 10 6 19 13 27l5 6c3 5 6 8 10 11 13 10 27 17 42 21 9 3 17 3 26 2 14-2 27-7 40-13l8-5v-2l-10-5-12-3h-20a46 46 0 0 1-42-29l-1-4 1-1 4 2 16 12 19 11c8 4 16 6 24 6 4-1 9 0 13 1l39 6 21 1 15-3 2-1h-2l-12-1-25-3c-12-1-23-5-34-11a892.7 892.7 0 0 0-33-25c-9-7-17-16-22-27l-3-5c-5-9-9-18-11-28l-4-24c-2-12-4-24-8-36l-8-16a39 39 0 0 0-40-15c-7 1-13 4-19 8l-6 3-1 1v-2l11-11c13-7 26-10 40-8 16 2 28 10 35 24 5 9 7 18 7 27l-1 19c-1 10-1 19 1 29 2 12 6 22 14 31 1 2 2 3 4 3 13 3 26 4 36 4m111 6a279.7 279.7 0 0 1-46 151 582 582 0 0 1-35 37c-17 12-35 22-54 30-10 3-20 6-30 7-8 1-16 1-24-1-16-3-31-8-45-16l-24-14c-11-7-20-15-29-25a520.4 520.4 0 0 1-27-39l-20-44c-5-14-8-28-11-42a305.3 305.3 0 0 1 1-88c3-13 5-27 9-40 9-28 22-55 41-78l12-15 9-11a165.8 165.8 0 0 1 43-37c14-7 29-12 45-15 9-2 18-1 26 1 16.4 3.4 32.2 9 47 17 13 9 25 19 35 31l20 24c23 29 39 62 48 98l6 28c3 13 3 26 3 41"/>
    <path d="M288 303.2c1 0 3 1 3 3s-2 3-3 3c-2 0-3-1-3-3 0-1 1-3 3-3m33 248c11-1 20-3 29-7l13-7c10-5 20-9 31-9h1l-1-1c-6-2-13-2-20-2-8 1-15 4-22 7l-15 8c-9.8 5.3-20.8 8-32 8h-1 1c5 2 11 2 16 3m1 3c-11 0-22-3-32-8-1-1-3-2-2-3 0-2 2-2 3-2h4c16-1 31-4 45-10l16-6c8-4 17-7 27-6 9.2.3 17.8 4.3 24 11 2 2 2 3-1 3l-5 1h-12c-8 1-15 3-23 6l-16 8c-9 4-18 6-28 6m-29 27c9 0 18 2 26 5l17 7 15 5c8 2 16 1 24-1l17-6 21-10c8-3 16-4 23-5h1v1l-4 1c-10 3-20 7-29 12a467.3 467.3 0 0 1-38 14c-8 1-15 0-23-3l-15-6-21-9c-14-4-27-3-41 3l-4 2c0-2 2-2 4-3 9-5 18-7 27-7m139.8-261.8c0 .4-.3 6.8-.2 13.3-6.8.5-5.7-13.3-5.3-15 .2-1.4-4.4 1.7-6.6 3.8.7 1.3 1.7 1 3 .5-.6 6.2 3.8 11.8 9 11.7.1 6.4.8 12.5 2.6 13 .2 0 .5-6.4.6-13.7 12.2-3.8 7.5-18.3 7.5-18.3-.2-.8-2 .3-6 3.9 1.6 1.7 2.4.7 3.6.3 1 1.9 1.4 10.5-5 13l.2-18-.4-.2c-1.8.2-5 3.4-7.5 6 1.4 2.3 3.1.3 4.5-.3m5.8 19 2.8 2.9 2.8-2.8-2.8-2.8-2.8 2.8Z"/>
  </g>
</symbol></svg>
