<svg xmlns="http://www.w3.org/2000/svg" viewBox="0 0 30 30" fill="none">
<symbol id="LastMinute">
<g id="State=Last minute">
<path id="Last minute" fill-rule="evenodd" clip-rule="evenodd" d="M6 3C5.44772 3 5 3.44772 5 4C5 4.55228 5.44772 5 6 5H7.05354C6.79792 8.19365 7.33802 10.4948 8.78372 11.8588C8.93671 12.0031 9.09469 12.1464 9.25851 12.2897C9.6413 12.6245 10.0328 12.9407 10.5198 13.3157L11.7125 14.2353L11.9506 14.4359L12.1262 14.5998L12.2178 14.6985C12.208 14.8731 12.1607 14.9537 11.9341 15.1392L11.1373 15.7587L10.6995 16.1108C10.3546 16.3948 10.0499 16.6649 9.71111 16.9888C8.91396 17.751 8.27519 18.5183 7.83539 19.3055C7.55768 19.8026 7.36977 20.2677 7.25121 20.7497L7.19245 21.0098L7.14746 21.2629C7.13459 21.3479 7.12376 21.4343 7.11471 21.5249L7.09261 21.8115L7.07962 22.1387L7.07379 22.7404L7.08029 23.7903L7.07619 24.4749L7.06138 25H6C5.44772 25 5 25.4477 5 26C5 26.5523 5.44772 27 6 27H24C24.5523 27 25 26.5523 25 26C25 25.4477 24.5523 25 24 25H23.1498L23.135 24.475L23.1309 23.7903L23.1374 22.7404L23.1315 22.1388L23.1185 21.8115L23.0964 21.5249C23.0874 21.4344 23.0766 21.3479 23.0637 21.263L23.0187 21.0099L22.9599 20.7497C22.8414 20.2678 22.6535 19.8026 22.3758 19.3055C21.936 18.5183 21.2972 17.7511 20.5 16.9888C20.1612 16.6649 19.8566 16.3949 19.5117 16.1108L19.0738 15.7588L18.2771 15.1393C18.0504 14.9537 18.0031 14.8731 17.9933 14.6986L18.085 14.5998L18.2606 14.4359L18.4987 14.2354L19.6913 13.3158C20.1784 12.9408 20.5699 12.6245 20.9526 12.2897C21.1165 12.1464 21.2744 12.0032 21.4274 11.8588C22.8731 10.4948 23.4132 8.19367 23.1576 5H24C24.5523 5 25 4.55228 25 4C25 3.44772 24.5523 3 24 3H6ZM21.1542 5H9.05695C9.05692 5.02769 9.05575 5.05559 9.05339 5.08368C8.82744 7.7745 9.23263 9.53268 10.1562 10.4041C10.2904 10.5307 10.4298 10.6571 10.5752 10.7842C10.8526 11.0268 11.1392 11.2621 11.4767 11.5266L12.8081 12.5505C13.807 13.3399 14.2204 13.8004 14.2204 14.5522C14.2204 15.5561 13.9203 16.1038 13.0326 16.8182L12.3893 17.3187L11.9856 17.6428L11.6218 17.9507C11.4455 18.1046 11.2743 18.2613 11.0933 18.4343C10.4282 19.0703 9.91004 19.6927 9.5814 20.2809C9.38841 20.6264 9.26762 20.9254 9.19331 21.2274L9.15392 21.4046L9.12358 21.5853L9.10134 21.7824C9.09826 21.8174 9.09548 21.8536 9.09297 21.8912L9.08115 22.1373L9.07397 22.602L9.0803 24.0458L9.0712 24.7389L9.06286 25H21.1483L21.14 24.7389L21.1309 24.0459L21.1372 22.602L21.13 22.1373L21.1182 21.8913C21.1157 21.8536 21.1129 21.8174 21.1098 21.7825L21.0876 21.5853L21.0572 21.4046L21.0178 21.2275C20.9435 20.9254 20.8227 20.6264 20.6298 20.281C20.3011 19.6927 19.783 19.0703 19.1179 18.4344C18.9369 18.2613 18.7656 18.1046 18.5893 17.9507L18.2256 17.6428L17.8219 17.3187L17.1785 16.8183C16.2908 16.1038 15.9907 15.5561 15.9907 14.5523C15.9907 13.8004 16.4042 13.3399 17.4031 12.5505L18.7345 11.5266C19.0719 11.2621 19.3586 11.0269 19.6359 10.7843C19.7813 10.6571 19.9207 10.5307 20.0549 10.4041C20.9785 9.53272 21.3837 7.77453 21.1578 5.08371C21.1554 5.05562 21.1542 5.0277 21.1542 5ZM15.2048 18.9888C10.3627 18.9888 9.99609 23.9888 9.99609 23.9888H19.9956C19.9956 23.9888 20.0468 18.9888 15.2048 18.9888ZM18.9855 9.02954H10.9766C10.9766 9.02954 14.8673 12.7997 15.2288 12.7997C15.5904 12.7997 18.9855 9.02954 18.9855 9.02954Z" fill="currentColor"/>
</g>
</symbol>
</svg>
