<svg xmlns='http://www.w3.org/2000/svg' viewBox='0 0 30 30' fill='none'>
<symbol id='Laundry'>
<path fill-rule="evenodd" clip-rule="evenodd" d="M5.62109 3H24.3789C25.8195 3 27 4.17049 27 5.62109V24.3789C27 25.8195 25.8295 27 24.3789 27H5.62109C4.18049 27 3 25.8295 3 24.3789V5.62109C3 4.18049 4.17049 3 5.62109 3ZM24.3789 5.00083H5.62109C5.28095 5.00083 5.00083 5.28095 5.00083 5.62109V7.15173H24.9992V5.62109C24.9992 5.28095 24.7191 5.00083 24.3789 5.00083ZM5.62109 25.0092H24.3789H24.3889C24.7291 25.0092 25.0092 24.7291 25.0092 24.3889V9.16257H5.00083V24.3889C5.00083 24.7291 5.28095 25.0092 5.62109 25.0092ZM20.9976 15.5451C21.0576 15.7552 21.0976 15.9753 21.1276 16.1954L21.1176 16.2054C21.1276 16.2354 21.1376 16.2754 21.1376 16.3154C21.1676 16.5655 21.1876 16.8156 21.1876 17.0757C21.1876 17.3359 21.1676 17.586 21.1376 17.8361C21.1276 17.8661 21.1176 17.9061 21.1176 17.9461C21.0876 18.1662 21.0376 18.3863 20.9876 18.5964C20.9825 18.6164 20.9775 18.6339 20.9725 18.6514C20.9675 18.6689 20.9625 18.6864 20.9575 18.7064C20.8175 19.1966 20.6274 19.6668 20.3773 20.107L20.3473 20.167L20.2873 20.2571C20.1872 20.4171 20.0872 20.5772 19.9671 20.7373C19.9271 20.7973 19.8871 20.8573 19.8471 20.9073C19.697 21.0974 19.5369 21.2775 19.3669 21.4476C19.3469 21.4576 19.3369 21.4676 19.3269 21.4776C19.1568 21.6376 18.9767 21.7977 18.7966 21.9378L18.6766 22.0278C18.4965 22.1579 18.3164 22.2779 18.1264 22.388C18.1164 22.393 18.1038 22.4005 18.0913 22.408C18.0788 22.4155 18.0663 22.423 18.0563 22.428C17.6061 22.6881 17.1359 22.8782 16.6357 23.0182L16.6357 23.0182C16.6057 23.0282 16.5757 23.0382 16.5457 23.0382C16.3356 23.0983 16.1255 23.1383 15.9054 23.1683C15.8804 23.1683 15.8529 23.1733 15.8254 23.1783C15.7979 23.1833 15.7704 23.1883 15.7454 23.1883C15.4953 23.2183 15.2452 23.2383 14.9951 23.2383C14.3648 23.2383 13.7445 23.1483 13.1443 22.9582C12.7241 22.8281 12.3239 22.6581 11.9438 22.438C10.9434 21.8677 10.113 21.0174 9.56279 19.997C9.54312 19.9604 9.52266 19.9239 9.50207 19.8871C9.44938 19.7931 9.39587 19.6975 9.35271 19.5968C8.99256 18.7965 8.81248 17.9261 8.81248 17.0657C8.81248 16.6356 8.8625 16.2054 8.95254 15.7752C9.04258 15.345 9.18263 14.9249 9.36271 14.5247C10.083 12.914 11.4736 11.6835 13.1543 11.1533C13.1643 11.1433 13.1843 11.1433 13.2043 11.1433C13.4644 11.0632 13.7345 11.0032 14.0046 10.9632C14.18 10.934 14.3648 10.9237 14.5407 10.914L14.5549 10.9132C14.6049 10.9132 14.6549 10.9082 14.7049 10.9032C14.755 10.8982 14.805 10.8932 14.855 10.8932C14.905 10.8832 14.955 10.8832 15.0051 10.8832C16.0655 10.8832 17.0959 11.1633 17.9963 11.6635C18.0063 11.6735 18.0263 11.6835 18.0363 11.6835C18.2464 11.8036 18.4465 11.9436 18.6466 12.0837L18.7366 12.1437C18.9567 12.3138 19.1668 12.4938 19.3669 12.6939C19.547 12.864 19.697 13.0441 19.8471 13.2341C19.8971 13.2842 19.9371 13.3442 19.9771 13.4042L19.9771 13.4042L19.9772 13.4044C20.0872 13.5644 20.1973 13.7244 20.2973 13.8844L20.3573 13.9745L20.3873 14.0345C20.6374 14.4747 20.8375 14.9449 20.9675 15.4351C20.9712 15.4497 20.9762 15.4631 20.9811 15.476C20.9895 15.4984 20.9976 15.5198 20.9976 15.5451ZM17.9663 20.027C18.1464 19.8469 18.2964 19.6568 18.4365 19.4567V19.4767C18.4553 19.4392 18.478 19.4055 18.4997 19.3733C18.5127 19.3541 18.5253 19.3354 18.5365 19.3167C18.6466 19.1466 18.7466 18.9665 18.8267 18.7765C18.4465 18.8565 18.0163 18.9165 17.5461 18.9165C16.6457 18.9165 15.6153 18.7164 14.5149 18.0962C12.9342 17.2058 11.5636 17.566 10.9034 17.8461C10.9134 17.8861 10.9134 17.9161 10.9134 17.9561C10.9834 18.2462 11.0734 18.5264 11.1935 18.7965C11.6837 19.8869 12.6141 20.7173 13.7545 21.0774C13.9346 21.1374 14.1347 21.1775 14.3248 21.2075C14.4648 21.2275 14.6149 21.2475 14.755 21.2475H14.885C16.0155 21.2675 17.146 20.8373 17.9663 20.027ZM14.6349 12.9018C14.5482 12.9062 14.4615 12.9107 14.3748 12.924V12.904C14.1647 12.934 13.9546 12.984 13.7545 13.0441C12.8242 13.3442 12.0438 13.9645 11.5136 14.7848C11.496 14.8136 11.4784 14.8422 11.4608 14.8707C11.3688 15.0199 11.2791 15.1654 11.2035 15.325C11.1735 15.391 11.1543 15.4571 11.135 15.5231C11.1222 15.5671 11.1094 15.6111 11.0934 15.6552C12.2139 15.385 13.7846 15.345 15.5053 16.3154C17.1159 17.2258 18.5065 16.8356 19.1568 16.5555C19.152 16.5169 19.1495 16.4807 19.1471 16.4456C19.1445 16.408 19.142 16.3717 19.1368 16.3354C19.1268 16.2654 19.1168 16.1954 19.0968 16.1254C19.0467 15.9053 18.9767 15.6952 18.8967 15.4851C18.8917 15.4701 18.8842 15.4576 18.8767 15.4451C18.8692 15.4326 18.8617 15.4201 18.8567 15.4051C18.7766 15.195 18.6666 15.0049 18.5465 14.8148C18.5165 14.7548 18.4865 14.7048 18.4465 14.6547C18.3064 14.4547 18.1464 14.2546 17.9763 14.0845C17.8062 13.9144 17.6161 13.7644 17.4161 13.6243C17.3861 13.6043 17.3585 13.5868 17.331 13.5693C17.3035 13.5518 17.276 13.5343 17.246 13.5143C17.0559 13.4042 16.8758 13.3042 16.6758 13.2141C16.6371 13.2064 16.6045 13.1927 16.5686 13.1777C16.558 13.1732 16.5471 13.1687 16.5357 13.1641C16.3456 13.0941 16.1455 13.0341 15.9354 12.984C15.9004 12.979 15.8679 12.9715 15.8354 12.964C15.8029 12.9565 15.7704 12.949 15.7354 12.944C15.5053 12.904 15.2652 12.874 15.0151 12.874C14.9687 12.874 14.925 12.8793 14.8826 12.8844C14.8426 12.8893 14.8038 12.894 14.765 12.894C14.7216 12.8973 14.6783 12.8996 14.6349 12.9018Z" fill="currentcolor"/>
</symbol>
</svg>
