<svg xmlns='http://www.w3.org/2000/svg' viewBox='0 0 30 30' fill='none'>
<symbol id='Library'>
<path d="M25.3 8.09064H24C23.9 7.7924 23.7 7.59357 23.4 7.49415C23.3 7.49415 20.6 6.5 17.9 6.5C16.5 6.5 15.6 6.79825 15 7.09649C14.4 6.79825 13.5 6.5 12.1 6.5C9.4 6.5 6.7 7.39474 6.6 7.49415C6.2 7.59357 6 7.89181 5.9 8.19006H4.7C3.8 8.19006 3 8.88596 3 9.7807V21.8099C3 22.8041 3.7 23.5 4.7 23.5H25.3C26.3 23.5 27 22.8041 27 21.8099V9.7807C27 8.88596 26.3 8.09064 25.3 8.09064ZM22 9.18421V18.5292C20.8 18.3304 18.8 18.0322 17.6 18.0322C16.9 18.0322 16.4 18.1316 15.9 18.231V8.78655C16.1 8.68713 16.7 8.4883 17.8 8.4883C19.5 8.4883 21.1 8.88597 22 9.18421ZM7.9 9.18421C8.8 8.98538 10.5 8.58772 12.1 8.58772C13.2 8.58772 13.8 8.78655 14 8.88596V18.231C13.5 18.1316 13 18.0322 12.3 18.0322C11.1 18.0322 9.2 18.3304 7.9 18.5292V9.18421ZM25 21.6111H5V10.1784H5.9V19.7222C5.9 20.0205 6 20.3187 6.3 20.5175C6.5 20.7164 6.8 20.8158 7.1 20.7164C7.1 20.7164 10.6 20.0205 12.3 20.0205C13.7 20.0205 14.4 20.5175 14.4 20.5175C14.4 20.5175 14.5 20.5175 14.5 20.617C14.6 20.617 14.6 20.7164 14.7 20.7164H15C15.1 20.7164 15.2 20.7164 15.3 20.617C15.3 20.617 15.4 20.617 15.4 20.5175H15.5C15.5 20.5175 16.2 20.0205 17.6 20.0205C19.3 20.0205 22.8 20.7164 22.8 20.7164H23C23.2 20.7164 23.5 20.617 23.6 20.5175C23.8 20.3187 24 20.0205 24 19.7222V10.0789H25V21.6111Z" fill="currentcolor"/>
</symbol>
</svg>
