<svg xmlns='http://www.w3.org/2000/svg' viewBox='0 0 30 30' fill='none'>
<symbol id='LocalSportSchool'>
<path fill-rule="evenodd" clip-rule="evenodd" d="M24.7513 3C25.1227 3 25.4639 3.2 25.6346 3.53V3.52C25.8052 3.85 25.7851 4.24 25.5844 4.55L20.375 12.33C20.4051 12.45 20.4252 12.57 20.4252 12.7V16.75C20.4252 16.77 20.4202 16.7875 20.4152 16.805C20.4101 16.8225 20.4051 16.84 20.4051 16.86C21.1178 17.9 21.5293 19.15 21.5293 20.5C21.5293 24.08 18.5984 27 15.005 27C11.4116 27 8.48074 24.08 8.48074 20.5C8.48074 19.06 8.97257 17.72 9.77556 16.64V12.71C9.77556 12.66 9.78559 12.57 9.78559 12.57L4.41561 4.56C4.21486 4.25 4.19478 3.86 4.36542 3.53C4.53606 3.2 4.87733 3 5.24871 3H13.4693C13.8005 3 14.1117 3.16 14.3024 3.44L15.005 4.49L15.7076 3.44C15.8883 3.17 16.2095 3 16.5407 3H24.7513ZM18.759 5H17.0727L16.1995 6.3L17.0426 7.56L18.759 5ZM11.773 14.86C12.7165 14.32 13.8206 14 14.995 14V14.01C16.2497 14.01 17.424 14.37 18.4177 14.98V13.18H11.773V14.86ZM15.3664 11.18H17.0526L12.9172 5H11.231L15.3664 11.18ZM12.9474 11.18L8.81197 5H7.12569L11.2611 11.18H12.9474ZM10.4782 20.5C10.4782 22.98 12.5057 25 14.995 25C17.4842 25 19.5118 22.98 19.5118 20.5C19.5118 18.02 17.4842 16 14.995 16C12.5057 16 10.4782 18.02 10.4782 20.5ZM18.2571 9.36L19.1003 10.62L22.8643 5H21.178L18.2571 9.36ZM16.1391 19.1599H17.6146C17.9659 19.1599 18.1065 19.6099 17.8254 19.8099L16.6209 20.6799C16.4905 20.7699 16.4403 20.9299 16.4905 21.0799L16.9522 22.4899C17.0626 22.8199 16.6812 23.0899 16.4001 22.8899L15.1956 22.0199C15.0752 21.9299 14.9045 21.9299 14.7741 22.0199L13.5696 22.8899C13.2885 23.0999 12.9071 22.8199 13.0175 22.4899L13.4792 21.0799C13.5294 20.9299 13.4792 20.7699 13.3488 20.6799L12.1443 19.8099C11.8632 19.6099 12.0038 19.1599 12.3551 19.1599H13.8506C14.0012 19.1599 14.1417 19.0599 14.1919 18.9099L14.6536 17.4999C14.754 17.1699 15.2257 17.1699 15.3362 17.4999L15.7979 18.9099C15.8481 19.0599 15.9785 19.1599 16.1391 19.1599Z" fill="currentcolor"/>
</symbol>
</svg>
