<svg xmlns='http://www.w3.org/2000/svg' viewBox='0 0 696 830' fill='none'><symbol id='LROC_EC_Outline'>
  <g fill="#1E2346">
    <path d="m454.6 140.7-2-2-29.1-30.1-32.2-34.1L355 37.3l-6-7c-2-1-2-1-4 1h-1a1516 1516 0 0 0-86.5 91.4l-21.2 21-3 3v1h1l2-2a394 394 0 0 1 66.4-29c12.1-3 24.2-4 37.3-3h18c11.1-1 23.2 0 34.3 3l21.1 7 24.1 10 15.1 7 2 1v-1m0 538.2-1-1-3 2a163.4 163.4 0 0 1-59.3 19l-30.2 4h-30.2l-35.2-6c-21.4-3.6-42-11.4-60.4-23h-1l2 2 10 11 23.2 24 34.2 38.2 28.2 31.2 12 14 2 1 2.1 1 1-2 12-12 14.2-16.1 23.1-26.1 31.2-34.1 23.1-25.1 2-2M530.1 224h-1l2 3 8 18 19.2 48.2c8.6 23.6 14 48.3 16 73.3 4.5 32.6 4.8 65.7 1 98.4l-4 32.1-4 26.1a198 198 0 0 1-21.1 56.3l2-3C579 540 607.8 502.1 634.7 463l26.2-32.1 10-11 1-1v-1l-1-1-21-25.2a2498.8 2498.8 0 0 1-90.6-131.5l-19.1-24.1-9-11-1-1M159.8 592.5l-2-3a259.7 259.7 0 0 1-27.2-60.2l-7-42.2-2-24.1-2-25.1a440.4 440.4 0 0 1 21-148.6l14.1-38.1c5-13 12.1-26.1 20.2-37.2l1-3 1-1h-1l-7 8-24.2 29.1a271 271 0 0 0-27.2 39.2 866.4 866.4 0 0 1-74.4 106.4L23 416.8h-1v2l6 7a4236.3 4236.3 0 0 1 128.8 164.7l2 3 1-1m-35-158.5a303 303 0 0 0 18 107.4 250.6 250.6 0 0 0 57.4 88.4l18.1 18a172 172 0 0 0 71.4 42.2l26.2 5 11 3 24.2 1h6l18.2-2 14-3 21.2-5c23.1-7 43.2-19 61.4-34.1a556.3 556.3 0 0 0 43.2-45.2A259.4 259.4 0 0 0 569.3 480l3-33.2-1-28-2-28.2a435.2 435.2 0 0 0-20-95.4l-17.3-45a539.6 539.6 0 0 0-61.4-90.4 105 105 0 0 0-34.2-22 349 349 0 0 0-73.4-18.2h-29.2l-24.1 4a404 404 0 0 0-65.4 22.1c-12.1 8-23.2 18.1-33.2 29.2L184 213c-8 12-15 25.1-20.1 38.2l-15.1 40.1a320.8 320.8 0 0 0-23.1 116.5l-1 26m553.3-14v1l-2 3-25.2 42.2a1294.2 1294.2 0 0 1-77.4 96.4l-34.2 37.1-32.2 34.2-37.3 44.1-42.2 50.2-20.1 22.1c-18 19-36.5 37.4-55.4 55.3-4 3-6 4-10 0l-14.1-12.1-37.2-38.1-19.2-21.1-27.1-32.2-38.3-45.1-20-24.1-43.3-46.2A2142 2142 0 0 1 55.2 483c-12-16-23.1-33.2-33.2-51.2l-4-7-1-2v-6l5-10.1 45.3-71.3 34.2-44.2 23.2-26 21-29.2A1217 1217 0 0 1 274.6 85.4a751.6 751.6 0 0 1 62.3-56.2l7-6c3.1-3 3.1-3 5.1 0l2 1 40.3 36.1c14 12 28.1 25.1 41.2 39.2l25.2 25A730 730 0 0 1 533 216l22.2 31.1 19 23.1A670 670 0 0 1 673 410.8l4 7 1 2"/>
    <path d="m515 424.8-1-21c0-10-1-19.1-4-28.1-4-16.2-8.5-32.3-13.1-48.2l-15-36.2-17.2-30.1c-9-16.7-21.3-31.3-36.2-43.2l-19.1-13-14.1-8c-13-6-26.2-10-40.3-15.1-5-2-10-2-15 0l-32.2 11-22.2 11-20.1 14.1c-5 3-9 8-13 12l-8.1 9.1-10 15-8.1 14.1-16.1 30.1c-6 12-11.1 24.1-15.1 37.2l-9 33.1c-4.5 16-6.5 32.7-6.1 49.2 0 17 0 35.2 3 52.2 2 13 6 26.1 11 38.2a484.8 484.8 0 0 0 29.2 54.2 332.3 332.3 0 0 0 35.3 34.1c15.2 11 31.4 20.8 48.3 29.1l28.1 10 14.1 1 11-2c12.1-2 24.2-6 35.3-12 14-8 28.2-17 41.2-27a248.2 248.2 0 0 0 30.2-27.2c7-8 13.1-16 17.1-26l13.1-26.2c9-18 14-38.1 16.1-59.2l2-32.2m-343-10 1-24 4-25.2c5-18.5 10.4-37 16-55.2a283.5 283.5 0 0 1 34.3-58.2l15-18.1 7.1-8 13-14 15.2-13.1 20.1-11c9-4.1 18.1-8.1 27.2-10.1l21-4 10.2 1c9 2 19 4 28.1 8l12.1 5c7 3 14 6 19.1 11 9 6 18.1 13.1 25.2 21.1l8 10 13 15.1A243.2 243.2 0 0 1 513 348.5a921 921 0 0 1 9 52.3c-.2 18.7-1.3 37.5-3 56.2a278.3 278.3 0 0 1-17 60.2l-12.1 27.1c-6 11-12.1 21.1-20.2 30.1l-14 17.1c-7 8-16.1 14-25.2 20l-33.2 18.2c-9 4-19.1 8-29.2 10l-7 1c-7 2-14.1 2-21.1 1h-5a167 167 0 0 1-50.4-18l-25.1-15.1c-10-7-19.1-15-26.2-24.1-9.6-12.4-18.7-25-27.2-38.2l-15-32.1c-7-16-12.1-33.1-15.1-51.2-2-16-4-32.1-4-48.2"/>
    <path d="M435.5 396.7v-1l-1-1-3 6 1 1c3-1 3-1 3-4v-1m1 11-1-4-1-1c-3 0-3 1-2 3l2 4h1v-1l1-1m0-11v2c0 1 1 2 2 1h2c1 0 2-1 1-2l-2-3-2-1-1 2v1m-36.2 108.5 4 11 1 1 2 1v-2l-6-12h-1v1m37.2-98.4v4h1c3-3 4-6 3-9v-1h-3c-2 1-2 1-2 3l1 3m34.3-45.2-1-6c0-1-1-2-2-1l-1 1 2 11 1 1v-1l1-5m-6 42.2v-2l-2.1-4-1 1v5l-2 8v1h1c1 0 3-1 3-3l1-6m-10-25.1 9-3 3-4-1-5-2-5.1v1l-2 6c-1 3-3 5-5 6l-3 1-2 3h3m-10.1 14.1h-1l-2 1c4 7 3 13-3 18.1v1c4 2 5 2 8-1l1-2 2-13c-1-4-1-5-5-4m14 9v-3c0-2-1-4-4-5h-3v4c2 5 1 10-3 15l-1 2h4c2 0 3-1 5-3 2-3 3-6 2-10m13.2-50.2 1 8v1l1-1c2-1 2-3 2-4l-1-7-3-16.1-1-7c0-3-2-6-5-7h-1v1l3 8 2 10-1 2 1 3 2 6v3m-18.2-27c0 3 1 5 4 7l7.1 7h1v-1l-1-3-2-10-1-5-2-6-1-1.1-1 1-3 7-1 4m-29.2 2v8l2-3v-1c3-3 6-6 11-7l4-1c3-1 4.1-3 2-6-2-4-4-7-8-10h-2c-5 0-9 1-13 3l-9.1 3-4 2c-3 1-5 3-7 6l1 1 9-4 5-3 3-1c3 0 5 1 5 4l1 3v6m21.2-1v-1c0-1 0-2-1-1l-5 2c-2 0-3 1-5 3l-5.1 6-5 8.1 2 9 2 11.1 2 8 2 4c1 1 3 1 4-1 2-3 3-7 3-11l-1-3-1-3c-2-6-2-12 2-17l4-6.1 2.1-8m-9 66.2 4-1 4-2 4-7v-1l-4-1h-3c-7 2-13.1-2-14.1-9v-2l-1-2h-1l-2 4c-3 3-7 4-11.1 1l-2-2-2-3-5-5.1-3-2-5.1-7c-1-4-1-3-4-1l-1 1c-2 2-2 2-1 4l1 1 25.1 24 9 6.1 10.1 3 2 1m-219.3 90.4 1 4v1l1-1 1-1 8-14c5.3-7.1 10-14.4 14.2-22.2 3-6 4-13 4-19v-20.1c2-13 8-24.1 18.1-32.1l3-3-4 1c-6 4-11 8-15 14-4.1 5-5.1 12-6.1 18l-2 18.2-2 12c-1 8-5 14-9.1 20l-5 8.1-5 8-2 8m57.3 37.2h6c2-1 2-2 1-3l-1-2 4 2 1 1 3-1-1-2-2-2-3-1c-3 0-4-1-6-3-4-3-5-7-5-12 1-7.1 3-13.1 7-19.1l12-13.1 9.1-10 5-9v-2c-2-2-3-2-4 0-4 8-9 14-15 20l-10.1 8-8 6c-2 2-4.1 3-4.1 6l-2 4c-1 6.1 0 13.1 2 19.2l1 3 5 8c0 2 2 3 3 2h2m170-213.8h-2v2l5.1 9c2 4 2 9 1 13l-4 9.1-2 6v12l-1 13.1-2 6 6 2h2l2-1 7-8 5.1-7 2-7-1-1h-6l1-1 3-3v-1h-2l-1-2 2-1 5-1h3v-1l-2-1-6-5.1-5-5c-3-2-4-5-4-9 0-5 0-10 3-15.1l-1-1-8.1-2m-22.1 14v-1c-1-2-2-3-5-2l-5.1 4c-2 3-5 5-9 6-3 2-5 4-6 7-2.1 7.1-1.1 13.1 3 18.2l9 14 3 4c3 2 6 2 8-1l2-7-1-7c-2-5-2-10-1-15l1-7.1 1-13Zm-21.2 162.7v10c0 6 1 11 4 16l3 7.1c0 2 2 3 3 5l3.1 2c5 1 10 1 15.1-1 2-1 2-1 0-3l-1-2 3 1h2v-1c-1-1-1-2-3-2l-2-1c-4 0-7-2-9-5l-4-7-3.1-12.1c-1.7-12.3.4-25 6-36.1l5-8 4-5 8.1-21.2 1-5-4-3c-1-1-1 0-2 1-3 6-7 13-9 20v1h-1c0-6 2-12 4-17l4-9 1-3c-1-2 0-5 1-7l-1-2-6-3-13.1-9.1a60 60 0 0 1-21.1-21.1l-3-4-3 3c-5.1 4-10.1 6-15.2 8l-1-1v-1l3-2 4-3v-1l-4 1-12 5c-9 1-17.1 2-26.2 1h-16a85.4 85.4 0 0 0-44.4 11 45 45 0 0 0-20 29.2c-1 8-2 15-1 22l-1 16.1-8.1 20.1-3 8c-4 9-5 19.1-3 29.2l3 10-1 8-1 4 1 4c3 2 6 4 9 4h2c3 0 3-1 2-4v-1h1l2 3c1 1 2 2 3 1l3-1v-1l-1-1-1-2 2 1 1 1h1v-3l-5-2c-4-1-6-4-7-7l-2-7v-5l2-13c2-7.1 6-13.1 12-18.2l7.1-6 13.1-10c9-8 16.1-18 22.1-28.1l2-4 5-5 1-1v2l-4 5-3 8 1 1 2 2 14.2 5 15 4 10.1 2h13l6.1-1 2-2c0-3 1-7 3-10l2-7v-3l1-1a32 32 0 0 1-2 17c-1 5-2 10 0 15l1 3 3 21.2 1 13c0 6 2.1 13 7.1 18l7 12.1 2 4c1 3 5.1 5 8.1 5 3 1 4 0 3-3l-2-3h1l3 4c2 2 3 2 5 1l3.1-1-2-3-1-1 1-1 3 3h2l1-3-2-1h-1l-5-2-6-4c-4-2-6-5-6-9l-1-10-1.1-19.1c-1-5 0-11 2-16a44 44 0 0 1 17.1-21.2v1l-7 8c-4 5-6 12.1-7 18.1v11m-85.6-120.4 23.2 1c8 1 16 1 24.1-1l9-3c5-2 8.1-5 12.1-8l2-3 1-10.1 5-13c4.1-5 8.1-9 14.2-12.1l5-3 7-4 4-3c7.1-5 14.1-5 21.2-2l14 8 3 4 5.1 3c4 3 7 7 8 12 1 7 3 13.1 3 20.1l1 5 1.1 4c-1 3-2 5.1-5 7.1-1 0-2 1-2 3 0 3-1 5-3 8l-2 4c-3 3-6.1 5-10.1 5-3 0-4 1-5 3.1l-2 3 1 1 3 1c4 1 8 3 11 6l2 4c1 3 0 6-1 9l-5 4.1-9 2-8.1-1c-1 0-2 0-2 2l-1 4c-1 5-3 9-6 13a110 110 0 0 1-12.1 16.1c-3 4-5 8-5 12.1l-1 9v17.1c0 6 2 12 5 18 2 2 3 3 6 3l4 2c3 0 4 2.1 4 5.1l-1 2-4 3-6 2c-1 1-2 1-2 3-1 2-2 4-4 4l-2 1c-2 2-5.1 3-8.1 3h-4c-4 1-8.1 1-12.1-1-3-2-4-3-5-6l-1-2-3-9c-5.1-8-7.1-17-9.1-25-3-12.6-5-25.4-6-38.2l-2-1-3.1 2c-7 4-15 4-22.1 0l-7-4c-4.1-2-8.1-4-13.2-4-3 1-7 0-10-1l-2 1-6 8c-5.1 8-10.1 15-16.2 21-8 7-10 15.1-10 25.1l1 2c0 3 2 5 5 5l3 1 4 4.1c2 2 1 3-1 5h-1l-6 2-7 2c-3 0-6-1-8-4-4.1-6-7.1-13-8.1-20l-1-5-1-3.1-2 3-2 11v12.1c0 3 2 5 4 6l6 2c2 2 2 4 0 5l-2 4c-2 2-5 3-7 2h-4c-5.1 0-9.1-1-13.2-4-4-3-5-7-3-11l1-5v-6l-2-11a47.8 47.8 0 0 1 3-28.2h-1l-7 9-4 8-2 3.1c-1 2-3 2-4 0l-2-5c-1.1-5 0-9 2-14l6-12.1 5-9c4-6 6-13.1 7-21.1a405 405 0 0 0 4-29.2c4-16 15.1-25 31.2-29l13.1-4c11-4.1 21.1-5.1 32.2-5.1m69.4-127.5c-3 11-5 22-11 32.1-9 18.8-26.7 32-47.3 35.2l-22.2 1-22 1c-6.1 0-12.2 2-17.2 4-12 4-21.1 11-28.2 21l-5 7h-1l7-11a65.5 65.5 0 0 1 42.3-25l19.1-1 24.2-3c9-1 18-4 26.1-9.1 9-6 16.1-14 21.1-23l10.1-22.2 4-10s0-1 0 0v3m-86.5 316.2c8 0 16.1 2 23.2 5l16 7 11.1 4.1a53.2 53.2 0 0 0 43.3-1l11-5 2-1h1v1l-11 7c-6 4-12 6-19.1 8-8 1-17.1 0-25.2-3l-13-5-14.1-7-15.1-6c-7-1-13.1-2-20.2-1l-18 5-9.1 7-1-1 1-1 6-4c8-5 17.1-8 27.2-9h4"/>
    <path d="m412.4 513.2 2 1 2 3h-3l-2-3s0-2 1-1m24.1-176.7-1-1c0-2 2-3 3-3l2 1c-1 2-2 3-4 3m24.2-8h1l1 2v1l-3-1v-1l1-1m3.3 131.9c0 .4-.3 6.8-.2 13.3-6.8.5-5.7-13.3-5.3-15 .2-1.4-4.5 1.7-6.7 3.8.7 1.3 1.7 1 3 .5-.6 6.2 3.9 11.8 9 11.7.2 6.5 1 12.6 2.7 13.1.2.1.5-6.5.6-13.8 12.3-3.8 7.6-18.3 7.6-18.3-.2-.8-2 .3-6 3.9 1.5 1.7 2.3.7 3.6.3 1 1.9 1.4 10.5-5.2 13.1l.3-18c0-.2-.2-.3-.4-.3-1.8.2-5 3.4-7.5 6 1.4 2.3 3.1.3 4.5-.3m6 19.2 2.8 2.8 2.8-2.8-2.8-2.8-2.9 2.8Z"/>
  </g>
</symbol></svg>
