<svg xmlns='http://www.w3.org/2000/svg' viewBox='0 0 696 830' fill='none'><symbol id='LROC_Fill'>
  <g fill="none">
    <path fill="#FDBE00" d="m591.2 428.4-1 34-3 24-2 24c-3 24-9 47-20 69a314.4 314.4 0 0 1-77 101c-20 19-44 31-71 38l-28 5-24 4h-2l-12 1-19-1-45-8a165 165 0 0 1-87-47l-30-32c-19-24-34-50-45-78-6-14-9-28-11-43l-5-41a399.3 399.3 0 0 1 0-107c3-31 11-61 22-90l15-37c4-12 11-23 18-34 10-15 20-29 31-42 14-16 30-29 49-39 13-8 27-13 41-18l20-6c11-3 22-3 34-3h20c12-1 24 0 36 4 17 5 33 10 49 18 23 11 43 26 59 45a424.3 424.3 0 0 1 48 74l18 48a292.2 292.2 0 0 1 20 87l2 50"/>
    <path fill="#FFF" d="m126.2 439.4 1 30 2 16 8 38c9 38 28 72 53 101 10 12 21 22 32 32a161.2 161.2 0 0 0 68 39l25 6 15 2c13.9 2 28 2 42 0l25-5c28-6 53-19 74-37l25-25c29-28.2 50.4-63.3 62-102l8-36c5-19 7-38 6-58l-1-15a854.2 854.2 0 0 0-9-78c-3-14-7-29-12-43l-17-45c-6-14-13-28-22-41a584.3 584.3 0 0 0-32-43c-12-13-26-24-42-30-23-8-47-15-71-18l-23-1-8 1-16 2c-20.6 3.3-40.7 9-60 17-8 4-16 8-22 13-9 7-18 15-25 24-9 12-19 25-27 38-8 12-14 24-19 37l-16 41a312.4 312.4 0 0 0-21 92l-1 22-2 26m-6-17c1-31 4.8-61.7 11-92l10-33 17-44c13-25 28.5-48.8 46-71 13-15 29-27 47-37 12-7 25-12 39-16l22-7c9-2 18-2 27-2l19 1c13-2 25 0 38 4 15 4 30 9 44 16 17 8 32 19 46 33l13 15a416.7 416.7 0 0 1 39 60l21 55a243.3 243.3 0 0 1 15 71c5 48 3.3 96.5-5 144-2 15-7 29-12 42a281.8 281.8 0 0 1-78 105 153 153 0 0 1-83 38l-26 4-13 1h-18l-15-2-27-4c-28-4.8-54.2-17-76-35a272.9 272.9 0 0 1-85-120c-4-11-7-23-8-35l-4-34-3-28-1-29"/>
    <path fill="#FFF" d="m515.2 431.4-1-22-4-27-11-41c-5-17-13-34-21-50l-18-31-10-14-8-9c-4-4-8-9-13-12a1647 1647 0 0 0-36-22c-12-6-25-10-38-14-4-1-7-2-11-1l-9 3c-17.2 6-34 13.3-50 22-8.8 5.9-17.4 11.9-26 18-9 9-17 19-24 30l-16 29c-9.7 17-17.5 35.2-23 54l-9 33a195 195 0 0 0-6 51c0 14 1 29 3 43 2 13 5 26 9 38 8.9 20.9 19.6 41 32 60 27.7 33 64 57.6 105 71l12 2c6 1 13 0 19-1 15-4 29-10 43-18l17-10c15-10 29-21 41-34 9-10 17-20 23-32 7-12 13-25 18-38l9-39 3-39m7-13c-.2 36.3-7 72.2-20 106l-12 26c-6 13-14 24-23 35-7 8-15 17-23 23l-4 3c-16 12-34 22-53 29-10 4-21 6-31 8h-3c-10 1-20-1-29-3-21-7.1-41.1-16.5-60-28a146 146 0 0 1-41-40c-7-8-13-18-17-27l-17-38c-9.2-23.3-14.2-48-15-73v-24c0-17 2-34 6-51l8-28c8-27 21-52 39-75l14-17 7-8a165 165 0 0 1 50-41l29-11 20-3 9 1c14.5 3.7 28.9 8 43 13a422.7 422.7 0 0 1 42 32l23 28c25 30.4 42.2 66.4 50 105 3 13.6 5.3 27.2 7 41l1 17"/>
    <path fill="#FDBE00" d="M370.2 582.4c7 0 14-2 20-5l13-7 6-4-7 2-2 1-11 4c-10 4-21 5-31 2l-17-6-17-8c-6-2-12-4-18-4a64 64 0 0 0-37 9l-6 4v1h1c2-3 6-5 9-6 4-2 8-4 13-4 9-2 17-2 26 0l19 7 15 8c8 4 15 6 24 6m48-95v-12c1-8 4-15 9-21l1-1 7-10c4-5 7-10 8-17v-2l2-2 1 1c5 1 11 0 16-2 2 0 4-1 5-3l2-9-2-5c-3-2-7-5-11-6-5-1-5-1-2-6 1-2 2-2 3-2 5 1 9-1 11-5l2-4c2-3 4-6 4-9l1-2c4-2 5-5 5-9v-4l-1-3-3-20c-2-5-4-9-9-12l-4-4-4-3-13-8c-5-2-10-3-15-1-3 0-6 2-8 4l-13 8c-8 3-13 8-17 15l-4 13-1 8-1 3c-5 3-10 7-16 9-6 3-11 3-17 4l-28-2c-13-1-26 0-39 5l-12 3-4 1c-15 5-25 14-29 29l-2 12-2 15c-1 8-3 17-7 24l-6 10-5 10c-3 5-3 11-2 16l2 4h4l2-4 10-15 1-1h1l-1 3c-3 7-4 14-3 21l3 14-1 8-1 5c0 3 0 5 2 7 3 5 9 7 15 6h3c3 1 6 0 8-2l3-3c1-2 1-4-1-5l-5-3c-4-1-5-3-5-7v-11c0-5 2-9 4-14h1l2 13c1 6 4 11 7 16 1 2 3 3 6 4l8-2 7-2c3 0 4-4 2-6s-4-4-6-4c-5-1-6-3-7-8v-2c0-8 3-16 9-22 7-7 13-14 18-22l5-8h2l10 1c5 0 9 1 13 3l7 5c7 3 15 3 23-1l2-1 2 1 1 9c2.4 16.7 6.4 33 12 49l6 15c1 3 3 5 6 7 3 1 7 2 11 1h4c3 0 6-1 8-3l2-1c3-1 4-3 5-5 0-1 0-2 2-2l6-3 3-2c2-1 2-2 2-3-1-3-3-5-5-5l-5-1c-1-1-3-1-3-3-4-5-6-10-7-16v-11m-189-132 1-1a64.1 64.1 0 0 1 43-42l18-3h18l19-1c7-1 14-3 21-7 13-7 23-17 29-31 4.3-10.3 7.3-21 9-32l-4 9c-3 8-6 17-11 25a64 64 0 0 1-44 30l-23 2-19 2c-10 1-19 3-27 8-13 9-22 20-28 34l-2 8v-1m286 76-3 39a303.8 303.8 0 0 1-27 77c-6 12-14 22-23 32a224.5 224.5 0 0 1-58 44c-14 8-28 14-43 18-6 1-13 2-19 1l-12-2c-11-3-22-8-32-13-15-9-30-18-43-29a231.3 231.3 0 0 1-41-44l-21-45a290.2 290.2 0 0 1-7-131l10-34a236 236 0 0 1 23-54l16-29a142.8 142.8 0 0 1 32-36 963 963 0 0 1 36-22c11-5 21-9 32-12l9-3c4-1 7 0 11 1 13 4 26 8 38 14l17 9c10.8 8.2 21.4 16.5 32 25l18 23 18 31c8 16 16 33 21 51l11 41 4 26 1 22"/>
    <path fill="#FFF" d="M437.2 404.4v-1l-1-2-2 1-1 5 1 1c2-1 3-1 3-3v-1m0 10v-5h-3l-1 2 2 4 1 1h1v-2m1-11c0 4 0 4 3 3 2 0 2-1 2-3l-3-3-2 1v2m-36 108v1l4 10 2 2h1v-1l-7-12m36-99v4l1 1 1-1c2-1 2-3 3-5 1-5 0-4-4-3l-1 1v3m35-44-1-5c0-2-1-2-2-3l-2 1 3 12v1l1-1 1-5m-9 41-3 9v1h1c2 0 3-1 3-2l2-8-1-3-2-1v4m-8-24 8-2 2-2c2-2 3-3 2-6l-1-6-1-1-1 1-2 6c0 3-2 4-4 6l-3 1-2 2v1h2m-5 21v-3c0-4-1-4-5-4h-2l1 2v3c1 5 1 9-2 13l-2 2 3 1 3-1 3-5 1-8m10 2v-2c-1-3-2-5-4-6h-3v4c1 3 1 7-1 10l-3 6h-1l1 1c4 0 7 0 9-4 2-3 2-5 2-9m12-50 1 8 1 1 1-1 2-5-1-6c-2.2-7.5-3.5-15.2-4-23-1-4-3-6-6-8l-1 1 4 9c1 3 2 7 1 11v4c2 2 3 5 2 9m-17-27 2 6 9 7c0 1 0 1 0 0h1l-1-3-2-12-2-6-2-4h-1l-4 10v2m-30 6v4l1-1 1-2c3-5 7-8 12-8l4-1c3-1 4-3 2-6l-1-1-7-8-3-1c-3 0-7 0-10 2l-14 5-8 7v1h1l9-4 4-3 3-1c3-1 5 1 6 3v14m0 11 1 3c.8 5 1.8 10 3 15l2 10 2 4c1 2 3 2 4 0l3-9c1-2 0-4-1-6l-1-3c-2-5-1-11 2-16l4-6 3-8v-2h-3l-3 1-5 4-6 6-4 4-1 3m13 50 3-1c2 1 4-1 5-3l3-5v-3h-4l-5 1h-3c-4-1-7-4-8-8l-1-5-1-1-1 1-2 3c-3 3-7 4-10 1-2 0-3-2-4-3l-8-9-5-7c-2-3-2-4-5-1s-3 3 0 6l18 18c10 10 11 10 24 15h1l3 1m-219 91 1 4h1l1-2 7-12c6-8.8 11.7-17.8 17-27 2-6 2-12 2-17v-17c1-13 6-24 16-32l4-4-1-1c-10 5-18 13-21 24l-2 13-2 17c-1 10-4 19-9 26l-7 11-5 9-2 8m44 10 2 13 1 4 5 7c1 2 2 3 4 3l6-1c2 0 4-1 1-3v-2h1l3 2 3 1 1-2-2-2-3-1c-6-1-9-5-11-10l-1-8c1-6 4-12 8-17l10-12 10-11 5-9v-1l-2-2h-1l-1 3c-4 6-8 12-14 17l-10 9-9 6c-2 2-4 4-4 7-2 3-2 6-2 9m184-187h-3l-1 2 6 9 1 11-4 10c-2 5-3 9-3 14v5c0 4 1 8-1 12l-1 6c-1 1-1 1 1 2l6 1 3-1 8-9c3-3 5-8 5-13l-1-1-4 1-1-1 1-1 2-3 1-1h-2l-1-1v-2l3-1h5l1-1-1-1-4-3-6-6c-4-3-6-7-6-12 1-4 1-9 3-13l-1-1c-2-2-4-2-6-2m-49 34 1 8 3 5 8 13 3 3c3 3 6 3 9-1 1-2 2-6 1-9l-1-5c-2-6-2-11-1-17l2-11v-7c0-3-2-3-4-2-2 0-4 2-5 3l-10 8c-3 1-4 3-5 5l-1 7m-69 28h-4c-8-1-16 0-24 1s-16 4-23 7c-13 7-22 18-25 33-1 7-2 14-1 21 0 9-1 19-5 28l-5 11a55 55 0 0 0-3 43v10l-1 4 1 3c3 3 6 5 11 4h2l1-2c0-1-2-2-1-3s2 2 3 3c1 2 2 2 4 2 2-1 2-2 1-3l-1-2v-1h1l2 2h1v-2l-5-3c-4-1-6-3-7-6l-2-6 1-12c1-12 6-22 16-29l8-5c13-9 23-22 31-36l5-7 3-3h1v1c-3 2-4 5-5 8l-2 5c-1 2-1 2 1 3 4 3 8 5 13 6 9 1.6 18 3.6 27 6h18c3-1 3-1 3-4l2-6 4-13v-1h1v2c0 5 0 9-2 13-2 6-2 12 0 19 2 8 3 15 3 24l1 8c0 8 2 16 8 22 3 3 4 7 6 10l1 4c2 4 5 6 9 7l3-1v-2l-2-4 2 1 3 4 2 1 5-1v-2l-1-1-2-2c0-1 1-1 3 1l1 1h2c1 0 2-1 1-2l-2-1-4-2-9-5c-2-1-4-4-4-6l-1-6c-.2-13.3-.2-26.7 0-40a44 44 0 0 1 17-23h1v1l-6 7c-4 4-6 9-7 14l-1 8-1 17c0 6 1 12 4 17l3 7 3 5 3 2c6 2 11 1 16-1v-2l-1-2-1-1h2l2 2h1l1-1-1-1c-1-2-3-2-4-2-5-1-8-3-11-7l-3-6c-3-7-3-15-3-22 0-11 3-21 10-30l2-3 5-10 7-19-1-4-2-1h-2c-4 7-8 13-9 20l-1 1h-1l4-16 4-10 1-3 1-7-1-2-21-13a64.4 64.4 0 0 1-21-23c0-2 0-2-2 0-3 4-8 7-14 9-1 0-2 2-4 0l3-3 5-4h-1l-1 1c-8 4-17 6-25 6h-20m88 124c1 6 3 11 7 16l3 3 5 1c3 0 4 2 5 5 0 1 0 2-2 3l-3 2c-1 2-4 3-6 3l-2 2c-1 2-2 4-5 5l-2 1c-2 2-5 3-8 3h-4c-4 1-8 1-11-1s-5-4-6-7l-6-15-7-18-5-31-1-9-2-1-2 1c-8 4-16 4-23 1l-7-5c-4-2-8-3-13-3l-10-1h-2l-5 8-17 22a30 30 0 0 0-10 24c1 5 3 7 7 8 2 0 4 2 6 4 2 3 1 6-2 6l-7 2-8 2c-3-1-5-2-6-4-3-5-6-10-7-16l-2-12-1-1c-2 5-4 9-4 14v11c0 4 2 6 5 7l5 3c2 1 2 3 1 5l-3 3c-2 2-5 3-7 3l-4-1c-6 1-11-1-15-6-2-2-2-4-2-7l1-5 1-8-3-13c-1-8 0-15 3-22v-3l-1 1-10 15-2 4h-4l-2-4c-1-5-1-11 2-16l5-10 6-10c4-7 7-15 8-24l1-15 2-12c4-15 14-24 29-29l4-1 12-3c13-4 26-6 39-5l28 2c6-1 12-1 17-4 6-2 11-6 16-9l1-3 1-8 4-13c4-7 10-12 17-15l13-8c3-2 5-4 8-4 5-2 10-1 15 1 5.9 3.4 11.5 7 17 11l4 4c5 3 8 7 9 12 1 7 3 13 3 20l1 3v5c0 3-1 6-5 8l-1 2c0 4-2 6-3 9l-3 4c-2 4-6 6-11 5-1 0-2 0-3 2-3 6-3 5 2 6 4 1 8 4 11 6l2 5-2 9-5 4c-5 1-11 2-16 1h-1c-1-1-1 0-1 1l-1 2c-1 7-4 12-8 17l-7 10s-10 14-9 22l-1 23Zm-190-142 3-8c6-14 15-25 28-34 8-5 17-7 27-8l19-2 23-2c19-4 33-14 44-30 5-8 8-17 11-25l4-9s0-1 0 0l-2 15-7 17a64.1 64.1 0 0 1-50 38l-19 1h-18l-18 3c-11 3-21 9-29 17-6 8-12 16-14 25l-2 2m142 226c-9 0-16-2-24-6l-15-8-19-7a59 59 0 0 0-39 4c-3 1-7 3-9 6h-1v-1l6-5 10-5a64 64 0 0 1 45 1l17 8 17 6c10 3 21 2 31-2l11-4 2-1c2-1 6-3 7-2l-6 4-13 7c-6 3-13 5-20 5"/>
    <path fill="#FDBE00" d="m417.2 523.4-4-4-1 1c0 2 3 4 5 3m-86-149h19c8 0 17-2 25-7h2l-5 4c-1 1-3 2-2 3s2 0 3 0c6-2 11-5 14-10 1-1 2-1 3 1a63.4 63.4 0 0 0 20 23l21 13 1 2-1 6-1 4-4 10-4 16h1l1-1c1-7 5-13 9-20h2l1 1c2 1 2 2 2 4a113.2 113.2 0 0 1-12 29l-2 3c-7 9-10 19-10 30 0 7 0 15 3 22l3 6c3 4 6 6 11 7 1 0 3 0 4 2l1 1-1 1h-1l-3-2 1 3v2c-5 2-10 3-16 1l-3-2-3-5c-1-2-1-5-3-7-3-5-4-11-4-17 .4-8.7 1-17.4 2-26 1-5 3-9 7-13l6-8h-1c-8 6-14 13-17 23l-2 7 1 13c.6 8.7 1.2 17.3 2 26 0 2 2 5 4 6l9 5 4 1 2 2c1 1 0 1-1 2h-2l-1-1c-2-2-3-2-3-1l2 2 1 1v1c-1 2-3 2-5 2l-2-1-3-4-1-1c-1 1 1 2 1 4v2l-3 1c-4-1-7-3-9-7l-1-4c-2-3-3-7-6-10-6-6-8-14-8-22l-1-8c0-9-1-17-3-24s-2-13 0-19c2-4 2-8 2-13l-1-2v1l-4 13-2 6c-1 3 0 3-3 4h-18l-7-1-20-5c-5-1-9-3-13-6-2-1-2-1-1-3l2-5 4-8 1-1h-1l-3 3-5 7c-8 14-18 26-31 36l-8 5c-10 7-15 17-17 29v12l2 6c1 3 3 5 7 6l5 3v2h-1l-2-2c-1-1-2 0-1 1l1 1c1 2 1 3-1 3-2 1-3 1-4-1-2-4-4-3-2 0l-1 2h-2c-5 1-8-1-11-5l-1-2 1-4v-13c-4-13-3-27 3-40l5-11c4-9 5-19 5-29-1-6 0-13 1-20 3-15 12-26 25-33 14.7-6.7 30.8-9.8 47-9l5 1Zm69-35c1-2 2-4 5-6 4-1 7-4 10-7 1-1 3-3 5-3 2-1 4-1 4 2v7l-2 11c-1 6-1 11 1 17l1 5c1 3 0 6-1 9-3 4-6 4-9 1l-3-3-8-13-3-5c-2-8-1-12 0-15m48-27c2 0 4 0 6 2l1 1c-2 4-2 9-3 13 0 5 2 9 6 12l6 6 4 3c1 0 2 1 1 2h-6l-3 1v2l1 1h2l-1 1-3 4h5l1 1c0 5-2 10-5 13l-8 9-3 1-6-1c-2-1-2-1-1-2l1-6c2-4 1-8 1-12v-5c0-5 1-9 3-14l4-10-1-11-6-9 1-2h3"/>
    <path fill="#FDBE00" d="M264.2 499.4c0-3 0-6 2-9 0-3 2-5 4-7l9-6 10-9c6-5 10-11 14-17l1-3h1l2 2v1l-5 9-10 11-10 12c-4 5-7 11-8 17l1 8c2 5 5 9 11 10l3 1 2 2-1 2-3-1-4-2v2c3 2 1 3-1 3l-6 1c-2 0-3-1-4-3l-5-7-1-4-2-13m-42-18c-2 3-2 12 0 13s5-11 8-15c6-8.8 11.7-17.8 17-27 2-6 2-12 2-17v-17c1-13 6-24 16-32l4-4-1-1c-10 5-18 13-21 24l-2 13-2 17c-1 10-4 19-9 26l-7 11-5 9Zm221-83c2 0 3-2 4-4l3-5v-3h-4l-5 1h-3c-4-1-7-4-8-8l-1-5-1-1-1 1-2 3c-3 3-7 4-10 1-2 0-3-2-4-3l-8-9-6-7c-1-3-1-4-4-1s-3 3 0 6l18 18c12 13 19 14 24 16h8Z"/>
    <path fill="#FDBE00" d="M440.2 338.4c-2 0-3 1-4 3l1 2 4-2v-1l-1-2m-14 10 1-3 4-4 6-7 5-3 3-1h3v2l-3 8-4 6c-3 5-4 11-2 16l1 3 1 6-3 9c-1 2-3 2-4 0l-2-4-2-10-1-8-2-7-1-3m0-21v-4c-1-3-3-4-6-3l-3 1-4 3-9 4c-2 1-1-1-1-1l8-7 24-8 3 1c3.2 2.9 5.9 6.3 8 10 2 3 1 5-2 6l-4 1c-5 0-9 3-12 8l-1 2-1 1v-14m38 10-2-2-1 1v1l2 1 1-1m-8-8 4-10h1l2 4 2 6 2 12 1 3h-1c0 1 0 1 0 0l-9-7c-3-4-2-8-2-8Zm17 29c0-1 0-7-2-9v-4c1-4 0-8-1-11l-4-9 1-1c3 2 5 4 6 8l1 5 3 18 1 6-2 5-1 1-1-1-1-8m-13 58 1-10c-1-3-2-5-4-6h-3v4c1 3 1 7-1 10l-3 6h-1l1 1c4 0 7 0 9-3l1-2Zm-9-10-1 8-3 5-3 1-3-1 1-2c4-4 4-8 3-13v-3l-1-2 2-1c4 1 5 1 5 5v3m5-21h-2v-1l2-2 3-1c2-2 4-3 4-6l2-6 1-1 1 1 1 6c1 3 0 4-2 6l-2 2-8 2m5 33c0 1 0 2 1 1l3-2 2-8-1-3-2-2c-1 0 0 9-3 14Zm12-50-1 5c-1 1-1 2-2 0l-2-12 2-1c1 1 2 1 2 3l1 5"/>
    <path fill="#FDBE00" d="M438.2 412.4v-3l1-1c4-1 4-2 4 3-1 2-1 4-3 5l-1 1-1-1v-4m-36 99h1l5 13-2-2-4-10v-1m36-108v-2l2-1 3 3c0 2 0 3-2 3-3 1-3 1-3-3m-1 11v2h-1l-1-1-2-4 1-2h3v5m0-10-1 3-2 1-1-1 1-5 2-1 1 3Z"/>
    <path fill="#FFF" d="M417.2 523.4c-4 1-6-4-4-4s4 3 4 4m23-185 1 2v1l-4 2-1-2c1-2 2-3 4-3m24-2c1 1 0 2-1 2l-2-1v-1l1-1 2 1m.5 130c0 .4-.3 6.8-.2 13.3-6.8.5-5.7-13.3-5.3-15 .2-1.4-4.4 1.7-6.6 3.8.7 1.3 1.7 1 2.9.5-.5 6.2 3.9 11.8 9 11.7.2 6.4.9 12.5 2.7 13 .2 0 .5-6.5.6-13.7 12.2-3.8 7.5-18.3 7.5-18.3-.2-.8-2 .3-6 3.9 1.6 1.7 2.4.7 3.6.3 1 1.9 1.4 10.5-5.1 13l.3-18-.4-.2c-1.8.2-5 3.4-7.5 6 1.5 2.3 3.2.3 4.5-.3m5.9 19 2.8 2.9 2.8-2.8-2.8-2.8-2.8 2.8Z"/>
  </g>
</symbol></svg>
