<svg xmlns='http://www.w3.org/2000/svg' viewBox='0 0 30 30' fill='none'>
<symbol id='Mask'>
<path d="M26.6836 7.14569C26.3535 6.5382 25.8133 6.14981 25.1031 6.03031C23.0324 5.68175 21.672 8.4204 21.0318 10.1034C19.6514 9.79471 16.9706 9.24698 15.04 9.24698C15.03 9.24698 15.02 9.24698 15.01 9.24698C15 9.24698 14.99 9.24698 14.98 9.24698C13.0494 9.24698 10.3686 9.79471 8.98817 10.1034C8.35798 8.4204 6.98756 5.69171 4.91693 6.03031C4.20672 6.14981 3.66655 6.5382 3.33645 7.14569C2.45619 8.76896 3.56652 11.3781 3.69656 11.6769C4.1567 12.7126 6.98756 18.3294 7.33767 19.0265V19.136L7.61775 19.4248C7.7578 19.5742 11.0888 22.9203 14.91 23C14.92 23 14.93 23 14.95 23C14.97 23 14.99 23 15 23C15.02 23 15.04 23 15.05 23C15.06 23 15.08 23 15.09 23C18.9112 22.9203 22.2422 19.5642 22.3822 19.4248L22.6623 19.136V19.0364C22.9924 18.3891 25.8433 12.7325 26.3034 11.6869C26.4335 11.3981 27.5438 8.78888 26.6635 7.15564L26.6836 7.14569ZM5.53712 10.8703C5.127 9.94409 4.84691 8.56979 5.11699 8.08181C5.137 8.04197 5.15701 8.0121 5.26704 7.99218C5.26704 7.99218 5.27704 7.99218 5.28705 7.99218C5.67716 7.99218 6.70748 9.48599 7.34767 11.4479V14.5649C6.55743 12.9715 5.75719 11.3582 5.53712 10.8703ZM20.6917 18.2995C19.8815 19.0265 17.4908 20.9883 15.02 21.0083C12.5493 20.9784 10.1585 19.0265 9.34828 18.2995V12.0753C10.6187 11.7865 13.2295 11.2487 14.99 11.2487C15 11.2487 15.01 11.2487 15.02 11.2487C15.03 11.2487 15.04 11.2487 15.05 11.2487C16.8105 11.2487 19.4213 11.7865 20.6917 12.0753V18.2995ZM24.5029 10.8703C24.2928 11.3582 23.4926 12.9715 22.6923 14.5649V11.4479C23.3425 9.44615 24.3929 7.93243 24.773 8.00214C24.883 8.02205 24.903 8.05193 24.923 8.09177C25.1831 8.56979 24.913 9.94409 24.5029 10.8703Z" fill="currentcolor"/>
</symbol>
</svg>
