<svg xmlns='http://www.w3.org/2000/svg' viewBox='0 0 30 30' fill='none'>
<symbol id='Meat'>
<path fill-rule="evenodd" clip-rule="evenodd" d="M18.3099 13.7578C17.9878 13.7578 17.6658 13.5979 17.4745 13.3081V13.2981C17.4735 13.2963 17.4719 13.2937 17.4699 13.2904C17.3593 13.1108 15.8925 10.7277 17.4343 7.90123C18.4206 6.09229 17.5148 4.59317 17.4745 4.53321C17.1827 4.06348 17.3236 3.44384 17.7865 3.15401C18.2495 2.86418 18.8634 2.99411 19.1654 3.45384C19.2358 3.55378 20.7757 5.97236 19.2056 8.85068C18.2193 10.6596 19.1251 12.1587 19.1654 12.2187C19.4573 12.6884 19.3164 13.3081 18.8534 13.5979C18.6823 13.7078 18.4911 13.7578 18.3099 13.7578ZM11.5163 13.7579C11.1942 13.7579 10.8722 13.598 10.6809 13.3082C10.6105 13.2082 9.07062 10.7896 10.6407 7.91131C11.627 6.10237 10.7212 4.60325 10.6809 4.54329C10.3891 4.07356 10.53 3.45392 10.9929 3.16409C11.4559 2.86427 12.0698 2.99419 12.3718 3.45392L12.3765 3.46157C12.487 3.64118 13.9538 6.02432 12.412 8.85076C11.4257 10.6597 12.3315 12.1588 12.3718 12.2188C12.6636 12.6885 12.5227 13.3082 12.0598 13.598C11.8887 13.7079 11.6974 13.7579 11.5163 13.7579ZM26.9552 19.0746C26.5325 15.9864 22.5772 14.0576 17.9274 14.6772L17.092 14.7871C15.4314 15.007 13.9016 15.6367 12.8146 16.5461C12.0195 17.2057 10.8319 17.6855 9.55373 17.8554L9.07063 17.9153C7.3798 18.1452 5.82987 18.7748 4.70265 19.6943C3.44459 20.7237 2.85078 22.0029 3.03194 23.3022C3.2131 24.6014 4.11891 25.6708 5.60845 26.3404C6.5847 26.7801 7.73206 27 8.94986 27C9.3927 27 9.8456 26.97 10.2985 26.9101L19.427 25.6908C24.0667 25.0711 27.3779 22.1628 26.9653 19.0746H26.9552ZM5.9909 21.2434C6.81619 20.5638 8.03399 20.0741 9.34237 19.9042L9.82547 19.8442C11.4962 19.6243 13.0159 18.9947 14.1029 18.0852C14.898 17.4256 16.0856 16.9459 17.3638 16.776L18.1991 16.666C18.6822 16.6061 19.1552 16.5661 19.6182 16.5661C21.772 16.5661 23.6239 17.2357 24.4794 18.2851C21.621 21.2434 19.9604 21.4333 17.9173 21.6531C17.4342 21.7031 16.931 21.7631 16.4076 21.853C16.1963 21.893 15.9145 21.943 15.5924 21.9929C14.0022 22.2828 11.0231 22.8224 8.70831 22.7625C7.0678 22.7225 6.08148 22.0729 5.58832 21.6431C5.72922 21.4832 5.88019 21.3433 6.01103 21.2434H5.9909ZM19.1452 23.7119L10.0167 24.9312C8.70831 25.1011 7.39993 24.9512 6.43374 24.5215C5.97077 24.3116 5.20587 23.8618 5.0549 23.1423C5.8198 23.6819 6.98728 24.2316 8.65799 24.2716H9.0505C11.4011 24.2716 14.0813 23.7904 15.7594 23.4891L15.7595 23.489L15.7595 23.489L15.8541 23.4721C16.1661 23.4121 16.4378 23.3621 16.6492 23.3321C17.1524 23.2522 17.6153 23.2022 18.0782 23.1523L18.0783 23.1523C20.1114 22.9324 22.0438 22.7125 24.9524 19.9441C24.6706 21.6631 22.2149 23.3122 19.1653 23.7219L19.1452 23.7119ZM18.6117 19.8342C18.9439 19.9742 19.3364 20.0441 19.739 20.0441C19.8597 20.0441 19.9906 20.0441 20.1113 20.0241C21.3191 19.8942 22.1645 19.2046 22.0337 18.4451C21.9028 17.6855 20.8561 17.1958 19.6484 17.3257C19.115 17.3857 18.6218 17.5556 18.2695 17.8154C17.8569 18.1152 17.6657 18.515 17.7261 18.8948C17.7965 19.2846 18.1186 19.6244 18.6117 19.8242V19.8342ZM14.0525 13.3082C14.2437 13.598 14.5658 13.7579 14.8879 13.7579C15.069 13.7579 15.2603 13.7079 15.4313 13.598C15.8943 13.3082 16.0352 12.6885 15.7433 12.2188C15.7031 12.1588 14.7973 10.6597 15.7836 8.85076C17.3254 6.02432 15.8586 3.64118 15.748 3.46157L15.7433 3.45392C15.4414 2.99419 14.8275 2.86427 14.3645 3.16409C13.9015 3.45392 13.7606 4.07356 14.0525 4.54329C14.0928 4.60325 14.9986 6.10237 14.0123 7.91131C12.4422 10.7896 13.9821 13.2082 14.0525 13.3082Z" fill="currentcolor"/>
</symbol>
</svg>
