<svg xmlns="http://www.w3.org/2000/svg" viewBox="0 0 111 55" fill="none">
  <symbol id="MiniClubMed">
    <path fill="#000" d="m69.4 50-1.2 1 1.2 1.2 1.2-1.2-1.2-1.2Zm-67-2v-.8c0-2 1-3 2.5-3 1.2 0 2 .5 2.3 1.6h2c-.5-1.6-2-2.8-4.4-2.8-2.6 0-4.2 1.6-4.2 4.2v1.2c0 2.4 1.5 4 4.3 4 2.5 0 4-1.3 4.3-2.9h-2C7 50.6 6.1 51.1 5 51.1c-1.7 0-2.4-1.2-2.4-3m10 4.1h1.2V51H13c-.8 0-1.1-.2-1.1-1v-7h-1.8v7c0 1.4.7 2.2 2.5 2.2m8.4-2.8v-4.1h-1.8v4c0 1.3-.8 1.8-1.6 1.8-.9 0-1.6-.5-1.6-1.7v-4.1h-1.8v4c0 2.2 1.1 3 3.4 3 2.2 0 3.4-.8 3.4-3m6.4 0c0 1.3-1 1.8-1.8 1.8s-1.8-.5-1.8-1.7V48c0-1.2 1-1.7 1.8-1.7.9 0 1.8.5 1.8 1.7v1.3Zm1.7 0v-1.1c0-1.7-1-3-3.3-3-.7 0-1.4.1-2 .4V43H22v6.4c0 2.2 1.3 3 3.6 3 2.2 0 3.6-1 3.6-3.1m11.1 3h1.9V43h-2.6l-2.7 7-2.7-7h-2.6v9.2h1.8v-6.8l2.7 6.8h1.6l2.7-6.8v6.8Zm4.5-4.1c0-1.3 1-1.8 1.8-1.8.9 0 1.9.5 1.9 1.8h-3.7Zm5.4 1v-.5c0-2.2-1.3-3.5-3.6-3.5-2.2 0-3.6 1.3-3.6 3.5v.3c0 2 1.3 3.4 3.7 3.4a5 5 0 0 0 3.3-1.1l-1-.9c-.8.5-1.4.7-2.3.7-1 0-2-.6-2-1.7v-.2h5.5Zm6.2.2c0 1.2-1 1.7-1.8 1.7-.9 0-1.8-.5-1.8-1.7V48c0-1.2 1-1.7 1.8-1.7s1.8.5 1.8 1.7v1.3Zm1.8 0V43h-1.8v2.6c-.6-.3-1.3-.4-2-.4-2.4 0-3.3 1.3-3.3 3v1c0 2.2 1.3 3.1 3.6 3.1 2.2 0 3.5-.8 3.5-3m12-8.2c0-.3-.8.1-2.5 1.6.7.7 1 .3 1.5.1.5.8.6 4.5-2.1 5.6a680.9 680.9 0 0 0 0-7.7c-.8 0-2.2 1.4-3.2 2.5.5 1 1.3.1 1.8-.1v5.6c-2.9.2-2.4-5.6-2.3-6.3.1-.6-1.8.7-2.7 1.5.3.6.7.5 1.2.3-.2 2.6 1.6 5 3.8 4.9 0 2.7.3 5.3 1.1 5.4l.3-5.7c5-1.6 3.1-7.7 3.1-7.7"/>
    <path fill="#924833" d="M48.2 14.3h-1.3v1l.3 7c0 1.9 0 3.7-.3 5.6a10 10 0 0 1-1.9 4.5 7.3 7.3 0 0 1-7.6 3 7 7 0 0 1-5.1-4.7c-.5-1.1-.7-2.3-.8-3.6l-.3-3.8-.5-2.6c-.4-1.2-1.2-2-2.4-2.3-1-.3-2-.2-3 .1-1 .3-2 .9-2.8 1.5l-.7.4c0-.4-.2-.7-.3-1 .8-.7 1.6-1.2 2.5-1.6 1.1-.5 2.3-.8 3.5-.7 2 .2 3.5 1.2 4.2 3.2.3.7.4 1.4.5 2.1l.4 4.9c.2 1.5.5 3 1.4 4.4a6 6 0 0 0 3.5 2.5c2.4.6 5.1-.4 6.7-2.5a9 9 0 0 0 1.3-2.8c.4-1.4.6-3 .6-4.5 0-3.3-.2-6.5-.3-9.8l-.1-.3h-1.2v2.9l.2 7.5c0 1.5-.2 3-.7 4.4-.4 1.1-1 2-1.8 2.7-2.1 1.8-5.9 1.9-7.4-1.6A8 8 0 0 1 34 28l-.4-4.4c-.1-1-.2-2-.5-3-1-4-4.6-5.3-7.7-4.7-1.4.3-2.7 1-3.9 1.7l-.6.4-.6-1 1.5-.9a10 10 0 0 1 5.2-1.4c3.5 0 6.2 2 7.2 5.5.3 1.2.4 2.5.5 3.8l.4 4c.1 1 .4 1.8 1 2.5.7 1 1.7 1.5 2.9 1.5a4 4 0 0 0 3.4-2.3l.6-1.5c.4-1.2.5-2.5.5-3.8l-.3-8.5v-1.5h-1.4v1.8l.3 7.4c0 1.1 0 2.2-.2 3.2-.1 1-.4 1.9-1 2.7-.5.7-1.3 1.1-2.3 1-1 0-1.5-.7-1.8-1.5a8 8 0 0 1-.4-1.9c-.2-1-.2-2.2-.3-3.4l-.6-3.6c-1.2-5.2-6-7.4-10.3-6.7a13 13 0 0 0-5 2.1l-.7.5-.5-.6a8 8 0 0 0-5.5-2.3c-2-.1-3.9.4-5.7 1.1l-.8.3v-.7H5.6c.1 6.9-.2 13.7-.1 20.5h1.3v-.6l.1-11v-.4c0-.3.1-.6.4-.7 1-.5 2.1-1.2 3.2-1.6.7-.3 1.5-.5 2.3-.6 1.2-.2 1.8.2 2.3 1.3.3.8.6 1.6.7 2.5.5 2.9.3 5.9.2 8.8v2.3h1.3v-.6l.2-6.7a35 35 0 0 0-.3-4 8 8 0 0 0-1.2-3.5c-.6-1-1.6-1.5-2.8-1.5-.5 0-1 0-1.5.2-1.5.3-2.8.9-4 1.6l-.7.3v-.5c-.1-.5 0-.8.6-1l2.7-1.2c1-.4 2-.5 3.2-.5 1.4 0 2.5.7 3.3 1.9.6.7.9 1.5 1.1 2.4.5 1.6.7 3.3.7 5l-.1 7.2v.8h1.3v-.4l.2-7-.3-4a11 11 0 0 0-1.5-4.5 6 6 0 0 0-3.7-2.7c-1-.2-1.9-.1-2.8 0a19 19 0 0 0-4 1.4l-.7.3v-.8c0-.3.1-.5.4-.6 2-1 4-1.6 6.1-1.5 2 .1 3.7.9 5 2.4a11 11 0 0 1 1.8 3.6c.6 2 .8 4 .8 6.1l-.1 7v.7h1.3c.1-4.1.4-8.2-.2-12.2 1-.9 2.2-1.7 3.5-2.1.5-.2 1.1-.3 1.7-.2 1 .1 1.6.6 2 1.5l.3 1.4.4 4.7c.2 1.7.6 3.5 1.4 5.1 1.8 3.3 5.3 5 9 4.4a9 9 0 0 0 6.8-5.6c1-2.1 1.3-4.5 1.3-6.8 0-3.3-.2-6.5-.4-9.8v-.3Zm35.1.2H82V27a10 10 0 0 1-1.4 4.8 7 7 0 0 1-11.3.9c-.8-1-1.4-2.3-1.7-3.6-.3-1.6-.4-3.2-.3-4.8V22c0-.8 0-1.7-.4-2.4-.3-1-1-1.5-2.1-1.5-1 0-2 .2-3 .6L58 20.6l-.6.3V20c0-.3.1-.5.4-.7 1.3-.7 2.7-1.5 4.2-2 1-.2 1.9-.4 2.8-.4 1.4.1 2.4.8 3 2l.3 1.2.2 3.4.1 3.9a8 8 0 0 0 1.4 4 5.8 5.8 0 0 0 9.8-.4l.8-1.9c.4-1.2.5-2.4.5-3.6v-11h-1.4V27a8 8 0 0 1-1 3.3 4.4 4.4 0 0 1-7.7.3c-.4-.7-.7-1.5-.9-2.4-.2-1.2-.2-2.5-.2-3.8v-3.6c-.1-1-.4-1.8-.8-2.7-.7-1.2-1.8-2-3.2-2.3-1-.2-2-.2-3 0-1.6.4-3.1 1.1-4.6 1.9l-.7.3v-.4c-.2-.6 0-.9.6-1 1-.5 1.9-1 2.8-1.3 1.3-.5 2.7-.8 4-.8 2.3.2 4 1.2 5 3.1.5.7.7 1.5.8 2.3.3 1.4.2 2.7.2 4.1l.1 3.5a5 5 0 0 0 1 2.7c1.4 2 4.4 1.8 5.6-.3l.5-1.3c.2-1 .4-1.9.4-2.8V14.5H77v8.7c0 1.3 0 2.5-.2 3.7 0 .8-.2 1.5-.6 2.2-.7 1.4-2.6 1.4-3.4.1l-.5-1.2c-.3-1.3-.3-2.6-.2-3.9 0-1.4 0-2.9-.2-4.3a7.6 7.6 0 0 0-3.3-5.4 8 8 0 0 0-6-1 17.7 17.7 0 0 0-5.3 1.9l-.1-1c-.5 0-1-.1-1.3.1v6.8l.3 12.1v1h1.3V33l-.1-10c0-.5 0-.7.4-.9l3.3-1.7 2.7-1c1.2-.2 1.7.2 1.9 1.4l.1 2.5v4c0 1.4.5 2.8 1.1 4.2a8.3 8.3 0 0 0 15.5-.7c.6-1.6.8-3.3.9-5V14.5h-.1Zm-82-.9c-.4 0-.5.1-.5.5v10.2l-.2 9.2v.8H2c.1-7 .3-13.7.2-20.6h-.8Zm1.9.1c.1 7-.1 13.7-.1 20.6h1.4c0-7 .2-13.7.1-20.6H3.2Zm50.3.7c-.1 1 .2 19.2.4 19.8h1.3l-.4-19.8h-1.3Zm-2.5-.1v5.1l.2 8.8v5l.2.9h1.3l-.4-19.7-1.3-.1Zm27.2-2.7V7.2H77v4.4h1.3Zm2.5 0V7.2h-1.3v4.4h1.3Zm-37.8 0V7h-1.4v4.5H43Zm2.4 0V7H44v4.5h1.3Zm2 0c.5 0 .5 0 .5-.5V7.2h-1.3v4.4h.7Zm35.9-.1V7.2h-1.3c-.2.7-.2 3.8 0 4.3h1.3Zm20.1-4.2V0h-4.8v7.3h-7.3v4.1h7.3v7.8h4.8v-7.8h7.3V7.3z"/>
  </symbol>
</svg>