<svg xmlns='http://www.w3.org/2000/svg' viewBox='0 0 696 830' fill='none'><symbol id='MMAC_Fill'>
  <g fill="none">
    <path fill="#FDBE00" d="M590.4 428.3c0 17-1 33-3 49l-4 36c-2 21-8 41-16 60a301.3 301.3 0 0 1-81 108c-20 18-44 30-71 37l-27 5-24 4-23 1-35-5-25-5c-28-7-54-20-75-40a299.3 299.3 0 0 1-81-114c-7-15-11-31-13-48-2.7-26-5-52-7-78 0-22 1-43 3-64 3-33 11-64 23-95l14-35c5-12 10-23 17-34l31-41c14-17 31-30 50-41 13-7 27-12 41-17l20-6c11-3 22-3 34-3h18c14-1 27 0 40 5 17 5 33 10 48 17a183.3 183.3 0 0 1 60 47l28 38c7 11 13 22 18 35l20 52c13.2 42.8 20 87.2 20 132"/>
    <path fill="#FFF" d="M125.4 439.3a203 203 0 0 0 3 48l8 34c8 38 26 71 51 101 13 15 27 28 42 41 18 16 39 27 62 33 9 2 19 3 28 6l19 2c11 .6 22 .2 33-1l21-5c10-2 20-4 30-8 18-7 35-18 50-31l23-23c13-13 24-27 34-43 12-19 22-39 28-60l8-33a221 221 0 0 0 5-81l-3-35c-3-27.4-9.4-54.2-19-80l-18-48a462.4 462.4 0 0 0-47-75c-15-18-33-31-55-39a521.2 521.2 0 0 0-55-14l-16-1a81 81 0 0 0-22 0l-16 2c-19 3-37 8-54 14-10 4-20 9-29 15-8 7-16 14-23 23-11 13-21 27-31 42l-17 34-17 44a323.8 323.8 0 0 0-21 102l-2 36m451-17-1 39-3 24-2 22c-3 22-9 43-18 63-14 28-31 54-54 76l-19 19c-19 17-41 28-65 35l-27 5-17 3-14 1-9 1-25-2-26-5a164.5 164.5 0 0 1-75-34 275.1 275.1 0 0 1-85-118c-5-13-8-26-10-40l-5-45c-2-19-2-39-1-58l2-28 3-27c3-22 10-42 18-63l14-36c4-12 10-23 17-34l27-35c15-18 33-32 54-43l34-14 21-6c9-2 18-2 28-2h20c11-1 22 0 33 3 14 5 29 9 43 16a173.4 173.4 0 0 1 61 46 471 471 0 0 1 43 67l20 51a414 414 0 0 1 19 119"/>
    <path fill="#FFF" d="m180.4 430.3 2 38 9 39a361.7 361.7 0 0 0 32 61 222 222 0 0 0 70 57c8 4 17 9 26 11l16 5 12 2 13-2c15-4 29-9 42-17l18-11c23.6-15.6 44-35.7 60-59 9-16 17-32 23-50 6-19 9-39 10-58 .6-20.7-.8-41.5-4-62l-7-28c-6-25-16-48-28-69l-15-26a142.8 142.8 0 0 0-32-36l-18-12c-4-4-9-6-14-9l-24-9-15-5c-6-3-12-3-19 0l-12 4a172 172 0 0 0-91 67l-16 29c-10 17-18 34-23 52l-9 35-4 21-2 32m-8-9c.2-17.2 2.2-34.3 6-51a236.5 236.5 0 0 1 48-110l12-15 11-12a538 538 0 0 1 47-38 182 182 0 0 1 49-14l11 1c21.4 4 41.8 12 60 24 9.5 7.8 18.5 16.2 27 25l15 17a253.5 253.5 0 0 1 53 104l7 29c1.5 26.6 1.5 53.4 0 80a246 246 0 0 1-18 64l-11 25-16 26c-11 13.6-23.4 26-37 37-13 9-27 18-43 24-11 5-23 9-35 11h-24c-17-3-33-9-48-17l-19-11c-14-9-26-19-36-31-8.8-12-17.2-24.3-25-37-7-14-14-28-19-42s-9-28-11-42c-2-16-4-31-4-47"/>
    <path fill="#FDBE00" d="M353.4 244.3c7 0 16 2 24 4l24 10 11 5h2l-2-3c-9.6-8-20.4-14.4-32-19-24-8-46-5-66 9-6 4-11 8-15 13l-12 15-11 15c-4 7-9 12-14 18l-16 11c-5 3-11 5-16 5h-7v1l3 1c4 1 7 0 11-1 5-1 11-3 16-7 5-3 10-7 14-12l14-17 11-15c4-6 9-11 15-16 13-11 28-17 46-17m122 205-1-14-5-19-2-4h-1l3 10c3 13 4 26 2 39-2 12-8 23-16 32-6 5-12 10-18 13-8 5-15 8-23 11l-22 8c-8 2-15 6-21 10-12 8-20 19-24 32-3 10-4 20-4 31l1 4h1l3-10 4-15c5-19 16-33 34-42l18-9 20-8 23-13a67.1 67.1 0 0 0 28-56m-253 45v7c0 5 0 8 2 12l2 3 8 21c2 6 5 13 9 18l6 9 9 10 3 2c4.6 3.4 8.6 7.4 12 12 1 2 2 2 4 1l4-4 16-15c5-4 9-8 12-13l17-18 14-14 3-2c3 0 4-1 6-3 5-5 10-10 14-17l4-7 14-16c2-2 3-2 5-2l7 1c4-1 7-4 9-8 1-3 1-6-1-9v-9l3-5 10-19 8-13 3-6c2-4 3-7 2-10l1-3c0-3 1-5 3-7 8-14 16-27 21-42l4-8 9-17 2-4c1-5 1-6-4-8l-13-7-12-3-14-4-4-2c-5-2-9-3-14-3l-18 1-14 2-20 4c-5 0-10 1-15 4l-9 2-9 3c-7.6 4.4-15.3 8.8-23 13-5 5-11 10-17 13-4 2-8 5-10 9-5 7-9 13-15 18-4 4-6 8-8 12l-6 11-4 6c-3 4-5 8-5 13v3c-1.1 4.1-2.5 8.1-4 12-4 8-6 15-7 24l-2 21 1 13 1 18m-42-64c.4-17.8 2.4-35.6 6-53l9-35c5-18 13-35 23-52l16-29a126.5 126.5 0 0 1 40-42c15-11 33-19 51-25l12-4c7-3 13-3 19 0l15 5a253.3 253.3 0 0 1 38 17c8.8 6.2 17.4 12.5 26 19 9 9 18 19 24 30l15 26c12 21 22 44 28 69l7 28 3 23 1 39c-1 19-4 39-10 58-6 18-14 34-23 50-4 8-10 14-16 21a220.3 220.3 0 0 1-62 49 147.7 147.7 0 0 1-55 19l-12-2-16-5-26-11-29-19a222 222 0 0 1-50-51c-9-16-16-32-23-48l-9-39-2-38"/>
    <path fill="#FFF" d="m398.4 466.3-1-4-3-3c-4-2-8-1-11 3-2 3-2 8 1 11 3 2 6 3 9 2s5-4 5-9m-56 53 5-1 2-4 6-8 20-23 4-6v-1h-1l-2 1-21 10-6 3-16 9-2 1c-3 2-3 5-2 8l5 7c2 2 5 4 8 4m-19-86 2 5 4 2 15 7 6 2c8 2 15 5 22 9l6 3h2c1-1 0-2-1-3l-10-11-7-5-12-13-6-7-2-2c-3-3-6-3-9-1-4 3-8 7-9 12l-1 2m70 10h1l-1 9 1 2c1 1 2 0 2-1l2-4 2-5 19-33 3-5c1-3 1-6-1-9l-3-2-12-4h-3c-2 0-3 1-4 3l-1 5v8l-2 19-2 5-1 12m-78 12v4l1 5c1 2 2 3 4 3h33l14-1 8 1h2l1-2-1-2-5-2c-8-2-15-5-22-9-2-2-4-3-7-3l-13-4-5-2c-5-1-9 1-10 7v5m70-65-10 2c-4 2-6 5-5 10l5 14c3 5 4 11 5 17l1 7 4 12v2h4l1-3 1-11 1-17v-10l2-12v-4c0-2-1-4-3-5l-6-2m-26 7c-2 1-5 1-7 3-3 2-7 5-9 9-2 3-1 5 1 8l2 1c7 7 14 13 20 22l4 5 11 12 1 1h1v-2l-3-12-4-10c-3-6-5-12-6-19l-3-12c-1-4-3-6-8-6m-31 74h-7c-3-1-5 2-6 4v7l5 11c2 2 4 4 7 3l4-1 17-8 7-3 16-9 6-2 1-1v-2h-35l-15 1m-5 35h-1l-4 2-26 13-11 6-28 19c-3 2-5 7-2 11s7 8 13 11c4 2 8 5 11 10 2 2 5 3 7 0l5-4c6-8 13-15 21-21l9-9 13-15 4-4 1-3-2-2c-4-3-7-7-8-11l-1-2-1-1m88-205c-5 0-7 2-6 6v1l-2 18-2 15v10c.8 11.4 0 22.8-2 34l3 1h2a17.8 17.8 0 0 1 16 2c2 1 3 0 4-2l13-26 11-24 7-13c1-3 1-4-1-6l-3-2c-5-3-10-5-15-5l-14-5-6-3-5-1m-112 166h7c3 0 4-2 3-4-2-3-2-6-1-9l5-10 2-2-1-2h-1c-8-2-15-6-22-9l-15-6a174.3 174.3 0 0 1-31-8l-4-1c-2 0-4 1-4 3l-2 6a333 333 0 0 0-5 22l-2 14v1c0 5 3 8 7 8l11-1h36c5-1 11-3 17-2m100-143v-18c1-3-1-6-5-7h-1c-6 0-12 0-18 2l-8 3c-5 2-10 2-15 2l-5-1-3 3v3l2 5c3 11 7 21 9 32 1 8 4 15 7 21l5 15v3l3 1 1-1c3-3 7-4 10-4s6 1 8 3l3 1c2-1 3-1 3-3v-5l2-25 2-20v-10m-158 79c0 4 2 7 5 7l1 1 31 11 11 4c9 2 17 4 25 8l1 1c2 1 4-1 4-3l1-4c0-6 3-11 8-14l1-2 1-2-2-1-11-14c-2-4-5-8-8-10l-11-12-15-19-3-3c-2-2-5-2-6 0l-1 3c-2 5-5 9-9 13l-4 3c-4 3-6 7-8 11l-2 5-7 13-2 4m54 69h-20l-5 1-20 1-13 1-4 1c-3 1-4 3-4 6l2 10v14c0 5 1 9 3 13l5 10c2.2 3 3.9 6.4 5 10 1 2 3 3 5 2l2-1a417 417 0 0 1 36-21l13-8 14-8 3-2v-2l-1-1c-5-4-7-10-6-16l1-6c1-3 0-4-4-4h-12m62-79h3c2 0 3-1 2-3l-4-16c-1-9-3-17-7-24l-5-13-3-12-3-10c-1-4-3-5-7-4l-2 1-18 6c-4 1-7 3-9 6l-5 5c-5 6-10 10-17 13-2 1-3 2-1 4l4 5 11 11c5 6 11 12 15 19 3 5 6 8 11 11l12 11 1 1c2 1 3 1 4-1l2-3c3-3 7-6 11-7h5m-135 101-1-18-1-13 2-21c.5-9.8 3.3-19.4 8-28 2-2 2-5 2-8l1-3c0-5 2-9 5-13l4-6 6-11c2-4 4-8 8-12 6-5 10-11 15-18 2-4 6-7 10-9 6-3 12-8 17-13l9-6 14-7 9-3 9-2c5-3 10-4 15-4l20-4 14-2 18-1c5 0 9 1 14 3l4 2 14 4 12 3 13 7c5 2 5 3 4 8l-2 4-9 17-4 8c-5 15-13 28-21 42-2 2-3 4-3 7l-1 3c1 3 0 6-2 10l-3 6-8 13-13 24v9c1 3 2 6 1 9-2 4-5 7-10 7h-6c-2 0-3 0-5 2l-14 16-4 7c-4 7-9 12-14 17l-6 3c-1 0-2 0-3 2l-14 14c-6 6-12 11-17 18-3 5-7 9-12 13l-16 15-4 4c-2 1-3 1-4-1l-2-2-10-10-3-2c-4-3-7-6-9-10l-6-9c-4-5-7-12-9-18l-8-21-2-3c-2-4-2-7-2-12v-7m253-45c.5 22.1-10 43.1-28 56l-23 13-20 8-18 9c-18 9-29 23-34 42l-4 15-3 10h-1l-1-4c0-11 1-21 4-31 4-13 12-24 24-32 6-4 13-8 21-10l22-8c8-3 15-6 23-11 6-3 12-8 18-13 8-9 14-20 16-32 2-13 1-26-2-39l-3-10h1l2 4 5 19 1 14m-122-205c-18 0-33 6-46 17-6 5-11 10-15 16l-12 15-13 17c-4 5-9 9-14 12-5 4-11 6-16 7-4 1-8 2-11 1l-3-1v-1h7c5 0 11-2 16-5l16-11c5-6 10-11 14-18l11-15 11-15 16-13a69 69 0 0 1 69-8c10 5 20 11 29 18l2 3h-2l-11-5-24-10c-8-2-17-4-24-4"/>
    <path fill="#FDBE00" d="M315.4 344.3c0 2 2 4 4 4 3 0 5-2 5-5 0-2-2-4-5-4-2 0-4 2-4 5m42 49h-5c-4 1-8 4-11 7l-2 3c-1 2-2 2-4 1l-1-1-12-11c-5-3-8-6-11-11-4-7-10-13-15-19l-11-11-4-5c-2-2-1-3 1-4 7-3 12-7 17-13l5-5c2-3 5-5 9-6a83.4 83.4 0 0 0 20-7c4-1 6 0 7 4l3 10 3 12 5 13c4 7 6 15 7 24l4 16c1 2 0 3-2 3h-3m-96 111c3 0 6-3 6-6s-3-6-6-6-5 2-6 6c0 3 3 6 6 6m34-32h12c4 0 5 1 4 5l-1 5c-1 6 1 12 6 16l1 1v2l-3 2-14 8-12 8-8 5-29 16-2 2c-2 0-4-1-5-3v-1l-5-9-5-10c-2-4-3-8-3-13v-14l-2-10c0-3 1-5 4-6l4-1 13-1 20-1 5-1h20m-20-77c3 0 5-2 5-4 0-3-3-5-5-5-3 0-5 2-5 4 0 3 2 5 5 5m-34 9 2-5 7-13 2-5c2-4 4-8 8-11l4-3c4-4 7-8 9-13l1-2c1-3 4-3 6-1l3 3 15 19 11 12 8 10 11 14 1 1v2l-1 2c-5 3-8 8-8 14l-1 4c0 3-2 4-4 3l-1-1c-8-4-16-6-25-8l-11-3c-10-5-20-9-31-12l-1-1c-3 0-5-3-5-6m134-86c-3 0-6 2-6 6 0 3 3 5 6 5s6-2 6-5-3-6-6-6m24 6v10l-2 21-2 24v5c0 2-1 3-3 3l-3-1c-2-2-5-3-8-3s-7 1-10 4l-1 1-3-1v-3l-5-15c-3-6-6-13-7-21-2-11-6-21-9-32l-2-5v-3l3-3 5 1c5 0 10 0 15-2l8-3c6-2 12-2 18-2h1c4 1 6 4 5 7v18m-136 120c0-3-3-5-6-5s-5 2-5 5c-1 3 2 6 5 6s6-3 6-6m36 23-17 2h-36l-11 1c-4 0-7-3-7-8v-1l2-14c1-7.5 2.7-14.8 5-22l2-6c0-2 2-3 4-3l4 1 8 2c8 3 15 5 23 6l15 6c7.3 4 15 7 23 9l1 2-2 2-5 10c-1 3-1 6 1 9 1 2 0 4-3 4h-7m133-138c-1-3-3-5-6-5s-5 2-5 5 3 5 5 5c3 0 6-2 6-5m-21-28 5 1 6 3 14 5c5 0 10 2 15 5l3 2c2 2 2 3 1 6l-7 13-11 24-13 26c-1 2-2 3-4 2l-1-1c-5-3-10-3-15-1h-2l-3-1v-3c2-10 3-20 2-31v-10l2-15 1-18 1-1c-1-4 1-6 6-6m-123 247c0-4-3-6-6-6-4 0-6 2-6 6 0 3 2 6 6 6 3 0 6-3 6-6m35-42 1 1 1 2c1 4 4 8 8 11l2 2-1 3-4 4-13 15-9 9c-8 6-15 13-21 21l-4 4c-3 3-6 2-8 0-3-5-7-8-11-10-6-3-10-7-13-11s-1-9 2-11l28-19 11-6 26-13 4-2h1m5-35 15-1h34l1 1v1l-2 1-5 2-16 9-7 3-17 8-4 1c-3 1-5-1-7-3l-5-11v-7c0-2 3-5 6-4h7m31-74c5 0 7 2 8 6l3 12c1 7 3 13 6 19l4 10 3 12v2h-1l-1-1-11-12-4-5c-6-9-13-15-20-22l-2-1c-2-3-3-5-1-8 2-4 6-7 9-9 2-2 5-2 7-3m26-7 6 2c2 1 3 3 3 5v4l-2 12v10l-1 17-1 11-1 3h-4v-2l-4-12-1-7c-1-6-2-12-5-17l-5-14c-1-5 1-8 5-10l10-2m-70 65v-5c1-5 5-8 10-7l5 2 13 4c3 0 5 1 7 3 7 4 14 7 22 9l5 2 1 2-1 2h-2l-8-1-14 1h-33c-2 0-3-1-4-3l-1-5v-4m79-24 1-5c2-6 3-13 3-19v-8l1-5c1-2 2-3 4-3h3l12 4 3 2c2 3 2 6 1 9l-3 5-19 33-2 5-2 4c0 1-1 2-2 1l-1-2 1-9v-12m-71 2 1-2c1-5 5-9 9-12 3-2 6-2 9 1l1 2 7 7 12 13 7 5 10 11c1 1 2 2 1 3h-2l-6-3c-7-4-14-7-22-9l-6-2-15-7-4-2-2-5m19 86c-3 0-6-2-8-4l-5-7c-1-3-1-6 2-8l2-1 16-9 6-3c8-2.9 15.7-6.6 23-11h1v1l-4 6-20 23-6 8-2 4-5 1m47-49-3-5h-2l-1 1c0 3 3 5 6 5v-1m9-3c0 4-2 7-5 8s-6 0-9-2c-3-3-3-8-1-11 3-4 7-5 11-3l3 3 1 5"/>
    <path fill="#FFF" d="M315.4 344.3c0-3 2-5 4-5 3 0 5 2 5 4 0 3-2 5-5 5-2 0-4-2-4-4m-54 160c-3 0-6-3-6-6 1-4 3-6 6-6s6 3 6 6-3 6-6 6m14-109c-3 0-5-2-5-5 0-2 2-4 5-4 2 0 5 2 5 5 0 2-2 4-5 4m100-77c3 0 6 3 6 6s-3 5-6 5-6-2-6-5c0-4 3-6 6-6m-112 126c0 3-3 6-6 6s-6-3-5-6c0-3 2-5 5-5s6 2 6 5m169-115c0 3-3 5-6 5-2 0-5-2-5-5s2-5 5-5 5 2 6 5m-144 219c0 3-3 6-6 6-4 0-6-3-6-6 0-4 2-6 6-6 3 0 6 2 6 6m101-78v1c-3 0-6-2-5-5v-1h2l3 5m.6 99.2c0 .4-.3 6.8-.2 13.3-6.8.5-5.7-13.3-5.3-15 .2-1.4-4.4 1.7-6.6 3.8.7 1.3 1.7 1 2.9.5-.5 6.2 3.9 11.8 9 11.7.2 6.4.9 12.5 2.7 13 .2.1.5-6.5.6-13.7 12.2-3.8 7.5-18.3 7.5-18.3-.2-.8-2 .3-6 4 1.6 1.6 2.4.6 3.6.2 1 2 1.4 10.5-5.1 13.1l.3-18c0-.2-.2-.3-.4-.3-1.8.2-5 3.4-7.5 6.1 1.5 2.2 3.2.2 4.5-.4m5.9 19.1 2.8 2.8 2.8-2.8-2.8-2.8-2.8 2.8Z"/>
  </g>
</symbol></svg>
