<svg xmlns='http://www.w3.org/2000/svg' viewBox='0 0 30 30' fill='none'>
<symbol id='Multisports'>
<path fill-rule="evenodd" clip-rule="evenodd" d="M5.36129 12.0575H4.03814L4.02796 12.0675C3.7328 12.0675 3.44781 11.9374 3.25443 11.7173C3.06105 11.4971 2.96944 11.1968 3.02033 10.9066L3.34603 8.93494C3.39692 8.60466 3.62084 8.32443 3.92618 8.18432L10.6132 5.1618L12.1704 3.63052C13.0356 2.78983 14.5317 2.78983 15.3867 3.63052L16.2111 4.4412C17.0966 5.31192 17.0966 6.73311 16.2111 7.60383L14.6539 9.13511L11.5801 15.7106C11.4376 16.0108 11.1526 16.231 10.8167 16.2811L8.81165 16.6013C8.76076 16.6113 8.6997 16.6113 8.64881 16.6113C8.40453 16.6113 8.17044 16.5313 7.98723 16.3711C7.76331 16.181 7.631 15.9007 7.631 15.6105V14.2894L6.34856 14.3194H6.32821C6.0534 14.3194 5.79895 14.2093 5.60556 14.0192C5.402 13.819 5.30022 13.5588 5.3104 13.2786L5.36129 12.0575ZM9.92106 9.40533L7.42744 11.397H7.41726L7.38673 12.2877L8.2315 12.2677L10.3282 9.80566L9.92106 9.40533ZM12.7302 8.49457L11.2747 7.06338L10.1959 7.55379L12.2315 9.55546L12.7302 8.49457ZM9.67679 14.4295L9.97196 14.3795L11.5496 11.0067L11.4071 10.8665L9.61572 12.9783C9.6259 12.9983 9.6259 13.0083 9.6259 13.0283C9.63099 13.0459 9.63671 13.0634 9.64244 13.0809C9.65962 13.1334 9.67679 13.186 9.67679 13.2385V13.2485V13.2585V14.4295ZM14.7862 5.84237L13.9618 5.03169C13.8498 4.9216 13.7378 4.9216 13.6259 5.03169L12.4961 6.14262L13.6564 7.28357L14.7862 6.17264C14.8778 6.08257 14.8778 5.93244 14.7862 5.84237ZM8.72005 8.21434L5.29004 9.76563L5.23915 10.0559H6.41981H6.44016H6.46052C6.49646 10.0559 6.52887 10.0663 6.5619 10.0769C6.58501 10.0843 6.60842 10.0918 6.63355 10.0959L8.84219 8.33444L8.72005 8.21434ZM20.7812 8.24436C17.3512 8.24436 14.5624 10.9866 14.5624 14.3594C14.5624 17.7323 17.3512 20.4745 20.7812 20.4745C24.2112 20.4745 27 17.7323 27 14.3594C27 10.9866 24.2112 8.24436 20.7812 8.24436ZM22.1451 12.2177L21.0764 11.8574L20.8321 10.256C21.8194 10.266 22.715 10.6363 23.4275 11.2168L22.1451 12.2277V12.2177ZM19.9262 15.0901L19.7125 13.9991L20.5675 13.2685L21.6362 13.6288L21.8499 14.7197L20.9949 15.4504L19.9262 15.0901ZM23.3461 14.3995L23.1425 13.3586L24.4249 12.3578C24.7608 12.9483 24.9746 13.6288 24.9746 14.3594C24.9746 14.4795 24.9574 14.5996 24.9402 14.7197C24.9345 14.7598 24.9288 14.7998 24.9237 14.8398L23.3562 14.3995H23.3461ZM19.3359 10.5062L19.5802 12.1176L18.6743 12.8882L17.0662 12.5079C17.5446 11.5871 18.3486 10.8665 19.3359 10.5062ZM16.6387 13.9491L18.2265 14.3294L18.4504 15.4504L17.3715 16.7214C16.8932 16.0509 16.598 15.2402 16.598 14.3594C16.598 14.2739 16.6094 14.1921 16.6206 14.1117L16.6206 14.1116C16.6277 14.0604 16.6348 14.0098 16.6387 13.9591V13.9491ZM18.4606 17.7723L19.5191 16.5313L20.5471 16.8815L21.0051 18.4428C20.9695 18.4428 20.9313 18.4478 20.8932 18.4529C20.855 18.4579 20.8168 18.4629 20.7812 18.4629C19.9262 18.4629 19.1222 18.2026 18.4606 17.7723ZM22.5013 18.0926L22.0433 16.5413L22.8779 15.8207L24.4657 16.261C24.028 17.0617 23.3461 17.7122 22.5013 18.0926ZM17.9618 21.2953L15.1628 20.7248L11.1832 17.8124C10.8269 17.5521 10.3689 17.442 9.92109 17.5221C9.48343 17.6022 9.08649 17.8524 8.83203 18.2227L8.02797 19.4137H6.55215L6.13485 18.543C5.84986 17.9625 5.21882 17.5922 4.58778 17.6222C3.70229 17.6522 3 18.3628 3 19.2335V25.3887C3 26.2794 3.73282 27 4.63867 27H19.1628C20.0686 27 20.8014 26.2794 20.8014 25.3887V24.7581C20.8014 23.0867 19.6004 21.6355 17.9312 21.2953H17.9618ZM18.7862 24.9983H5.05597V20.8449C5.36131 21.2052 5.81933 21.4154 6.30787 21.4154H8.24171C8.79132 21.4154 9.3104 21.1451 9.61575 20.6948L10.2977 19.6739L10.7455 19.9942L10.1654 20.8549C9.93127 21.2052 10.033 21.6656 10.3791 21.8958C10.5114 21.9858 10.6539 22.0259 10.7964 22.0259C11.0407 22.0259 11.2849 21.9058 11.4376 21.6856L11.9669 20.8949L12.4452 21.2452L11.9567 21.9658C11.7226 22.3161 11.8244 22.7765 12.1704 23.0067C12.3028 23.0968 12.4452 23.1368 12.5877 23.1368C12.832 23.1368 13.0763 23.0167 13.229 22.7965L13.6666 22.146L14.0127 22.3962C14.2061 22.5363 14.43 22.6364 14.6641 22.6864L17.5445 23.2669C18.2671 23.417 18.7862 24.0375 18.7862 24.7581V24.9983Z" fill="currentcolor"/>
</symbol>
</svg>
