<svg xmlns='http://www.w3.org/2000/svg' viewBox='0 0 30 30' fill='none'>
<symbol id='Nursery'>
<path d="M17.2159 27H12.7841C11.3135 27 10.113 25.7995 10.113 24.3289V19.887H5.67111C4.2005 19.887 3 18.6865 3 17.2159V12.7841C3 11.3135 4.2005 10.113 5.67111 10.113H10.113V5.67111C10.113 4.2005 11.3135 3 12.7841 3H17.2159C18.6865 3 19.887 4.2005 19.887 5.67111V10.113H24.3289C25.7995 10.113 27 11.3135 27 12.7841V17.2159C27 18.6865 25.7995 19.887 24.3289 19.887H19.887V24.3289C19.887 25.7995 18.6865 27 17.2159 27ZM5.66111 12.1038C5.29095 12.1038 4.99083 12.4039 4.99083 12.7741V17.2059C4.99083 17.5761 5.29095 17.8762 5.66111 17.8762H11.1034C11.6536 17.8762 12.1038 18.3264 12.1038 18.8766V24.3189C12.1038 24.689 12.4039 24.9892 12.7741 24.9892H17.2059C17.5761 24.9892 17.8762 24.689 17.8762 24.3189V18.8766C17.8762 18.3264 18.3264 17.8762 18.8766 17.8762H24.3189C24.689 17.8762 24.9892 17.5761 24.9892 17.2059V12.7741C24.9892 12.4039 24.689 12.1038 24.3189 12.1038H18.8766C18.3264 12.1038 17.8762 11.6536 17.8762 11.1034V5.66111C17.8762 5.29095 17.5761 4.99083 17.2059 4.99083H12.7741C12.4039 4.99083 12.1038 5.29095 12.1038 5.66111V11.1034C12.1038 11.6536 11.6536 12.1038 11.1034 12.1038H5.66111Z" fill="currentcolor"/>
</symbol>
</svg>
