<svg xmlns='http://www.w3.org/2000/svg' viewBox='0 0 30 30' fill='none'>
<symbol id='Ofuro'>
<path fill-rule="evenodd" clip-rule="evenodd" d="M11.6601 13.7826C11.3296 13.7826 11.0091 13.6325 10.8188 13.3325C10.7487 13.2224 9.21639 10.8018 10.7787 7.91114C11.7702 6.0907 10.8589 4.59034 10.8188 4.53032C10.5284 4.06021 10.6686 3.44006 11.1293 3.14999C11.6 2.85992 12.2109 2.98995 12.5113 3.45006C12.5814 3.55009 14.1137 5.97067 12.5514 8.86137C11.5599 10.6818 12.4713 12.1822 12.5113 12.2422C12.8018 12.7123 12.6616 13.3325 12.2009 13.6225C12.0306 13.7325 11.8403 13.7826 11.6601 13.7826ZM15.025 13.7826C14.6945 13.7826 14.374 13.6325 14.1837 13.3325C14.1136 13.2224 12.5813 10.8018 14.1436 7.91114C15.1351 6.0907 14.2238 4.59034 14.1837 4.53032C13.8933 4.06021 14.0335 3.44006 14.4942 3.14999C14.9649 2.85992 15.5758 2.98995 15.8762 3.45006C15.9463 3.55009 17.4786 5.97067 15.9163 8.86137C14.9248 10.6818 15.8362 12.1822 15.8762 12.2422C16.1667 12.7123 16.0265 13.3325 15.5658 13.6225C15.3955 13.7325 15.2052 13.7826 15.025 13.7826ZM17.599 13.3325C17.7893 13.6225 18.1098 13.7826 18.4402 13.7826C18.6205 13.7826 18.8108 13.7325 18.9811 13.6225C19.4417 13.3325 19.582 12.7123 19.2915 12.2422C19.2515 12.1822 18.3401 10.6818 19.3316 8.86137C20.8939 5.97067 19.3616 3.55009 19.2915 3.45006C18.9911 2.98995 18.3802 2.85992 17.9094 3.14999C17.4387 3.44006 17.3085 4.06021 17.599 4.53032C17.639 4.59034 18.5404 6.0907 17.5589 7.91114C15.9966 10.8018 17.5289 13.2224 17.599 13.3325ZM23.5178 17.8536H23.9985C24.5493 17.8536 25 18.3037 25 18.8539C25 19.404 24.5493 19.8541 23.9985 19.8541H23.3075L22.7867 25.1354C22.6865 26.1957 21.8052 26.9958 20.7336 26.9958H9.2664C8.20481 26.9958 7.32348 26.1957 7.21332 25.1354L6.69254 19.8541H6.0015C5.45068 19.8541 5 19.404 5 18.8539C5 18.3037 5.45068 17.8536 6.0015 17.8536H6.49224L6.30195 15.9332C6.26189 15.5231 6.4021 15.103 6.68252 14.7929C6.96294 14.4828 7.36354 14.3028 7.78418 14.3028H22.2258C22.6465 14.3028 23.0471 14.4828 23.3275 14.7929C23.6079 15.103 23.7481 15.5131 23.7081 15.9332L23.5178 17.8536ZM19.031 17.8536H21.5048L21.655 16.3033H19.1612L19.031 17.8536ZM12.8718 16.3033L13.002 17.8536H13.012H17.028L17.1582 16.3033H12.8718ZM16.4071 24.9754L16.8478 19.8541H13.1723L13.6129 24.9754H16.4071ZM10.8588 16.3033H8.36505L8.51527 17.8536H10.989L10.8588 16.3033ZM8.72559 19.8541L9.22634 24.9354L9.23635 24.9454H11.6099L11.1693 19.8541H8.72559ZM20.7436 24.9754C20.7737 24.9754 20.8037 24.9253 20.8037 24.9253V24.9153L21.3045 19.8341H18.8608L18.4201 24.9754H20.7436Z" fill="currentColor"/>
</symbol>
</svg>
