<svg xmlns='http://www.w3.org/2000/svg' viewBox='0 0 30 30' fill='none'>
<symbol id='Paddle'>
<path fill-rule="evenodd" clip-rule="evenodd" d="M26.9785 5.5379V5.57786H26.9985V5.62782C26.9985 6.30726 26.7382 6.94673 26.2577 7.42633C25.7771 7.91592 25.1364 8.1857 24.4557 8.19569H22.2231C21.6525 8.19569 21.0819 8.03582 20.5813 7.74606L18.6491 6.59702H4.07274C3.52212 6.59702 3.07161 6.14739 3.07161 5.59785C3.07161 5.0483 3.52212 4.59867 4.07274 4.59867H18.7192L20.5613 3.4796C21.0618 3.16986 21.6325 3.00999 22.2131 3H24.4356C25.1064 3 25.7471 3.25978 26.2276 3.73939C26.7082 4.21899 26.9785 4.85846 26.9785 5.5379ZM24.8261 6.02749C24.9262 5.91758 24.9863 5.78769 24.9863 5.63781V5.59785V5.54789C24.9863 5.39801 24.9262 5.25813 24.8261 5.15821C24.716 5.05829 24.5858 4.99834 24.4356 4.99834V5.00833H22.2231C22.0029 5.00833 21.7827 5.07828 21.5924 5.18819L21.1519 5.45796C21.1556 5.47598 21.1605 5.49269 21.1653 5.50904C21.1738 5.53804 21.182 5.5659 21.182 5.59785C21.182 5.62919 21.1738 5.6578 21.1659 5.6851C21.1588 5.71003 21.1519 5.73387 21.1519 5.75771L21.6025 6.02749C21.7827 6.1374 22.0029 6.19735 22.2231 6.19735V6.18736H24.4356C24.5858 6.18736 24.726 6.12741 24.8261 6.02749ZM14.995 8.64522C22.3532 8.6752 25.9873 11.5628 26.578 12.0824L26.588 12.1024C26.7782 12.2522 26.9284 12.472 26.9784 12.7118C26.9984 12.7818 26.9984 12.8417 26.9984 12.9117C26.9984 12.9738 26.9906 13.028 26.9818 13.0883L26.9784 13.1115C26.9384 13.3513 26.7882 13.5711 26.588 13.721C25.9973 14.2406 22.3632 17.1282 15.065 17.1582H15.005H14.995C7.63668 17.1182 4.0126 14.2406 3.41193 13.721C3.22171 13.5711 3.07155 13.3513 3.02149 13.1115C3.00147 13.0416 3.00147 12.9716 3.00147 12.9017C3.00147 12.8317 3.01148 12.7618 3.02149 12.6919C3.07155 12.4521 3.2117 12.2322 3.41193 12.0824C4.00259 11.5628 7.63668 8.6752 14.9249 8.64522H14.995ZM14.995 15.1398H15.045C19.8404 15.1199 22.8438 13.761 24.2754 12.8917C22.8438 12.0224 19.8404 10.6635 15.035 10.6436H14.9249C10.1295 10.6635 7.13612 12.0224 5.70451 12.8917C7.13612 13.761 10.1395 15.1199 14.9449 15.1398H14.995ZM4.54324 21.4147C4.73345 21.2948 9.14842 18.547 14.5245 21.4546C16.6969 22.6336 18.7492 23.0233 20.5212 23.0233C23.9951 23.0233 26.3878 21.5146 26.538 21.4147C26.9985 21.1149 27.1286 20.4954 26.8283 20.0358C26.528 19.5762 25.9073 19.4363 25.4467 19.736C25.2665 19.8559 20.8416 22.6037 15.4655 19.6961C9.01827 16.219 3.67226 19.5962 3.45201 19.736C2.99149 20.0358 2.86135 20.6553 3.16168 21.1149C3.46202 21.5745 4.07271 21.7144 4.54324 21.4147ZM25.4468 23.7127C25.4468 23.7127 20.8816 26.5903 15.4755 23.6728C9.02829 20.1956 3.68228 23.5728 3.46203 23.7127C3.00151 24.0125 2.87137 24.632 3.17171 25.0916C3.47204 25.5512 4.08273 25.6911 4.55326 25.3913C4.74347 25.2714 9.15844 22.5237 14.5345 25.4313C16.7069 26.6103 18.7592 27 20.5312 27C24.0051 27 26.3978 25.4913 26.548 25.3913C27.0085 25.0916 27.1387 24.4721 26.8383 24.0125C26.538 23.5529 25.9173 23.413 25.4568 23.7227L25.4468 23.7127ZM11.4609 12.8917C11.4609 13.5911 12.0316 14.1506 12.7223 14.1506H17.2574C17.9582 14.1506 18.5189 13.5811 18.5189 12.8917C18.5189 12.2023 17.9482 11.6327 17.2574 11.6327H12.7223C12.0216 11.6327 11.4609 12.2023 11.4609 12.8917Z" fill="currentcolor"/>
</symbol>
</svg>
