<svg xmlns='http://www.w3.org/2000/svg' viewBox='0 0 696 830' fill='none'><symbol id='PALC_Fill'>
  <g fill="none">
    <path fill="#FDBE00" d="M338.4 204c0 5-1 8-3 11l-1 2-14 14c-4 4-10 5-16 4s-11-3-16-6l-9-7-3-3v-1l3-2c10-8 22-13 34-18l21-7 1-1 2 1 1 13"/>
    <path fill="#FDBE00" d="M590.4 427c0 18-1 36-3 53l-3 31c-3 25-10 48-21 70a303.6 303.6 0 0 1-77 100c-22 19-47 32-75 38l-36 6a171 171 0 0 1-52 1l-30-6a173.7 173.7 0 0 1-82-37 296.9 296.9 0 0 1-87-120c-5-14-9-29-11-44l-6-52c-2-18-2-36-2-54l2-24c1.6-37.5 9.7-74.3 24-109l14-36c5-12 11-24 18-35l30-40c14-17 32-31 51-41 10-6 20-10 31-14l28-9c8-2 15-3 23-3l19 1h5l18-1c8 0 17 1 24 3 18 6 36 12 53 20 22.3 11.2 42 26.9 58 46 11 12 20 25 29 38 7 11 13 22 18 34l20 52a272 272 0 0 1 18 84l2 48"/>
    <path fill="#FFF" d="M125.4 436v11c0 13 1 25 3 38l7 34c9 40 28 74 54 104 12 15 26 28 40 40a154 154 0 0 0 80 36l23 5c14.4 1.2 28.8.5 43-2l16-3 30-9c19-7 36-17 50-31l24-22a234.9 234.9 0 0 0 62-104 562.3 562.3 0 0 0 13-68v-40l-3-37a355 355 0 0 0-17-81l-20-52a537.7 537.7 0 0 0-51-79c-12-13-26-24-43-31-21-8-43-14-66-17-10-2-21-3-32-2l-17 2-27 6-32 10c-9 4-18 8-25 14-9 7-17 14-24 22a503.2 503.2 0 0 0-47 76l-16 41-6 17a290.7 290.7 0 0 0-17 89l-2 33m452-10-1 30-3 24-3 25c-2 21-7 41-16 61-14 29-32 56-55 80l-20 19c-19 17-41 29-66 35l-29 6-16 2c-11 2-22 2-33 1-17-2-35-5-52-9-26-6-49-18-68-37l-32-32c-20-25-37-52-48-83-4-11-7-23-8-35l-5-40c-7.2-59.6-1-120.1 18-177l17-43c5-11 10-22 17-32l27-36c15-19 33-32 54-43 21.8-10.6 45-18 69-22 8.7-.3 17.4.1 26 1l22-1a316.9 316.9 0 0 1 68 21c22 11 40 26 56 44l25 35c7 11 14 22 18 35l17 42c8 21 13 43 16 65 3 20 4 40 5 64"/>
    <path fill="#FFF" d="m479.4 544-2 14h1v-1c5-7 9-15 12-22 1-1 1-2-1-2l-11 1-1 1 2 9m-211-114h-4l-8 1c-2 0-2 1-1 2l2 4c5 3 8 7 12 11 1 3 3 3 5 1l4-5 5-7 3-4v-2l-18-1m199-94h27c2 0 2 0 2-2l-3-9-3-1h-8l-18 2-15-1h-7c-2 0-3 0-4 3l-1 7 1 2h2l27-1m30 22h4c1 0 2-1 1-2l-4-15-2-1-6 1c-5 1-10 2-15 1h-8c-9 0-17 1-24 5-4 2-7 5-8 10l1 1 2 1h34l5-1h20m-26 170 20 1c2 0 3-1 3-2l6-14-1-2-15-1h-2l-17 1-16 1-10 4c-4 2-6 5-6 8l-1 4 2 2 6-1 31-1m-204-52-1 7-1 14c0 6-2 12-5 17l-1 2c0 2 2 1 3 1l17-3c5 0 6 0 3-5-3-6-5-13-5-20l-1-11c-2-6-1-11 1-16l4-7c1-4 3-7 7-10 4-4 6-8 9-13v-1h-1c-3 0-5 1-6 3l-6 8-7 7c-1 1-2 3-4 3-5 2-10 0-13-5l-6-9-3-5c0-1-1-2-2-1h-3c-1 1 1 1 1 2l4 5 10 15 4 8 2 9v5m203-155h19c1 0 2 0 1-1l-1-3-16-32c-2-4-2-4-6-2-12 7-17 17-19 30v4l1 2 2 2h19m32 62 6-1 1-1-1-1-4-17c0-2-1-2-3-2l-9 2-15 1c-13.3 1-26.4 3.7-39 8-2 1-3 2-3 4l-2 6 1 1h39l11-1h11l7 1m-36 123 29 1 5 1c2 0 2 0 2-2l5-16c1-5 1-5-3-4s-8 2-12 1l-3-1-8-1-15 1-7 2-12 3-6 2c-5 2-7 5-7 9l-1 3c0 1 1 2 2 1h31m46-43c0-1 0-2-2-2h-3l-10 2h-19l-13-1c-8 1-16 3-23 6-5 3-8 6-9 12 0 2 0 2 2 2h12l28-1h17c4 0 9-1 13 1h2c2 0 2 0 2-2l3-17m-47-57 4 1c8 0 16 1 23-1h13l5 1c2 0 3 0 2-2l-4-18c-3-1-6 0-10 1l-9 1-10-1h-16c-6 0-12 2-16 5-3 2-7 3-10 3h-3c-2 1-3 2-3 4l-1 5c0 3 0 3 2 3l1-1 32-1m16 25 26 1h4c2 0 2-1 2-3v-16l-1-1h-3l-14 1-8-1h-20a151 151 0 0 0-28 7c-5 2-7 7-8 12l1 1h3l13-1h33m32 15v-8c0-2 0-2-2-2l-23-1-12 1-15 1-12 4-13 7c-2 0-3 2-4 5 0 4-1 5 5 4h33l14-1h10l16 2c2-1 2 0 3-3v-9m-175-242-1-13h-3l-21 7c-12 5-24 10-34 18l-3 2v1l3 3 9 7c5 3 10 5 16 6s12 0 16-4l14-14 1-2c2-3 3-6 3-11m62 122c-2 0-5 1-7 3l-7 5 1 2 7 3c9 5 18 12 25 20l3 3 8 8h3l9-3 7-3h1l-1-1h-10l-4-1c-3-1-4-2-3-5v-4c1-5 3-7 7-9l9-3 1-1h-2l-9-1c-2 0-3-1-3-4v-5c1-5 3-8 8-9h1l1-1c-3-4-3-9-2-13l2-8c1-2 1-3-1-5l-2-2c-2-1-2-1-3 1l-1 1c-4 6-9 11-15 16l-3 3-5 5-4 4c-3 3-6 5-11 4m-175 90h-1v7c0 2 1 2 2 2h16c9-1 18-1 27 2h13c9-2 18-3 26-2l10 1 1-1v-1l2-23 1-15c1-6-1-11-5-16-4-6-10-12-16-16-3-3-7-5-11-6l-15-2-7-1c-6 0-12 2-17 6l-16 12c-6 5-10 11-11 19v1c-1 6-2 12-1 18l2 15m-45 18c.5 22.7 3.9 45.2 10 67 1 3 2 5 5 7 5 4 10 5 15 7l15 2c8 2 16 2 24 1 2 0 3 0 4-2l8-19c1-4 2-8 1-12l-1-10 1-7c1-5 0-9-3-13l-15-17-3-4c-1-2-3-2-5-2l-13-1c-5 0-6 0-7-7a88.9 88.9 0 0 1 0-30c3-11 7-22 13-32l2-4-3-4h-4l-3 4-9 11c-4 5-8 8-13 10l-4 2c-8 5-13 11-14 21l-1 32m167 208h5l7-1c16-4 31-10 45-19l24-15a216 216 0 0 0 40-37c4-11 5-22 5-33 0-2-1-2-2-2l-14 3c-18 4-37 4-55 0l-34-9-36-9h-28c-8 0-16 2-24 4l-27 4h-19a112.2 112.2 0 0 1-38-11v1l1 1 15 32c4 8 9 14 14 21a242 242 0 0 0 82 60c12.5 5.2 25.6 8.5 39 10m23-446 4 1 1-1-2-1-15-5-5-1-11-1-1 2 1 2v12l-6 18c-1 5-4 8-9 10l-10 4-12 3c-9 2-16 0-23-6l-10-10c-1-2-1-2-3-1l-16 14c-6.1 7.9-12.1 15.9-18 24l-18 32c-8 14-15 28-20 43l-8 29-4 17v1h1l17-16 16-12 4-3h6l2 2c2 2 2 2 4 0 4-4 8-6 13-8l15-3c2-1 4-1 5-3l5-4 10-9 9-10c3-3 7-5 11-6 7-1 13-4 17-9l15-12c3-2 5-2 8 0l5 5 11 12 19 22 4 5h3l6-6c3-3 6-5 10-6 3-1 6-2 9-5l7-8c4.8-8 11.3-14.8 19-20 2-1 5-1 7 1l5 3h2l6-6c3-3 7-5 11-6 2-1 2-1 1-3l-8-16a143.9 143.9 0 0 0-31-35l-20-14-24-12-4-1-11 1h-5l-9-1h-4v-1h1l9-1h8m68 338h12c3 0 4-1 3-2l-3-1h-20l-2-2v-3l1-5c0-4 3-7 7-8l5-2 4-1 1-1h-1l-11-1h-3l-2-2c0-6 1-11 7-15l5-3 3-1 2-1-3-1h-1l-9-1c-4 0-5-2-4-6v-3c1-5 4-8 9-10l5-2 4-1 1-1h-11l-6-1c-2-1-3-2-3-5v-5c1-4 3-7 7-9l12-4 5-1v-1h-1l-15-1-6-1c-2 0-3-1-2-4l1-6c1-4 4-7 8-8l10-3 2-1 1-1h-20c-2 0-3-1-3-3l1-10c0-2 2-4 4-5l4-1 8-3h1l-1-1h-5l-8-2c-2 0-3-2-3-4l1-6c0-1 0-2-2-3a389 389 0 0 1-25-23c-5-5-11-9-17-12-6-2-11-6-16-10-7-7-14-15-19-24l-6-8-3-4-3-1-3 3-11 12-7 8c-3 3-7 5-12 6-4 0-7 2-11 4l-10 7-8 8c-1 1-1 2 1 2l8 1c12 2 22 8 31 16 4 4 6 8 7 13l3 12a102 102 0 0 1 1 45c0 2-1 3-3 3l-5 1c-6 .5-12 .8-18 1-3 6-7 11-12 16-3 3-5 7-6 11l-1 6-1 14v9c2 8 6 16 9 23l2 1h3l22 1 28 6 43 9 31 5 17 1h2m83-115a290 290 0 0 1-19 100c-8.6 18.2-17.6 36.2-27 54a262.4 262.4 0 0 1-36 37c-16 11-32 21-50 28l-33 9c-8 1-16 0-24-1-16-3-32-9-46-17l-19-10c-18.5-11-34.2-26-46-44-6-7-12-16-16-25l-17-38a304.5 304.5 0 0 1-12-137l10-40c9-26 21-51 38-73l15-19 10-12c12.3-14 26.8-25.8 43-35 14-7 28-12 43-15 9-2 18-1 27 1 14 3 28 8 41 14l14 10c7.9 6.4 15.5 13.1 23 20l26 31c18 22 31 47 40 74l8 32 5 22c2 12 2 23 2 34"/>
    <path fill="#FDBE00" d="m436.4 535-17-1-31-5-43-9c-16.4-3.7-33.2-6-50-7h-3l-2-1c-3-7-7-15-9-23v-9l1-14 1-6c1-4 3-8 6-11 5-5 9-10 12-16l4-1h14l5-1c2 0 3-1 3-3l2-5c1-14 1-27-3-40l-3-12c-1-5-3-9-7-13-9-8-19-14-30-16l-9-1c-2 0-2-1-1-2l8-8 10-7c4-2 7-4 11-4 5-1 9-3 12-6l7-8 11-12 4-3 2 1 3 4 6 8c5 9 12 17 19 24 5 4 10 8 16 10 6 3 12 7 17 12 4.5 5.1 9.6 9.8 15 14 3.9 4.1 7.9 8.1 12 12l-1 6c0 2 1 4 3 4l8 2h5v1l-8 3-4 1c-2 1-4 3-4 5l-1 10c0 2 1 3 3 3h19c1 0 2 1 0 1l-2 1-10 3c-4 1-7 4-8 8l-1 6c-1 3 0 4 3 4l5 1 15 1c1 0 2 0 1 1l-5 1-12 4c-4 2-6 5-7 9v5c0 3 1 4 3 5h6l10 1s2 0 0 1l-4 1-5 2c-5 2-8 5-9 10v3c-1 4 0 6 4 6l11 1c3 0 4 1 0 2l-3 1-5 3c-6 4-7 9-7 15l2 2h3l7 3-5 2c-4 1-6 4-7 8l-1 5v3c1 1 1 2 3 2h19l3 1c1 1 0 2-3 2h-14"/>
    <path fill="#FDBE00" d="M270.4 241h-1l-3 3-11 15-9 13-9 15-2 2v1h1l1-1 12-15 6-8 10-16 4-7 1-2m42 31-2-12-1-9v-2l-1-1v1l-1 4v29l2 14v1l1-1 2-12v-12m77-7 3 3v-1l-3-2-11-12-9-7-17-12-4-2h-1l2 2 22 20 18 11m-19-68h-8l-9 1h-1v1h4l9 1h5l11-1 4 1 24 12c8.7 6.2 17.4 12.6 26 19 13.9 13 25.2 28.6 33 46 1 2 1 2-1 3-4 1-8 3-11 6l-6 6h-2l-5-3c-2-2-5-2-7-1l-5 3c-5 5-10 10-14 17l-7 8-9 5c-4 1-7 3-10 6l-9 6-4-5-19-22-11-12-5-5c-3-2-5-2-8 0l-15 12c-4 5-10 8-17 9-4 1-8 3-11 6l-9 10-10 9-5 4c-1 2-3 2-5 3l-15 3c-5 2-9 4-13 8-2 2-2 2-4 0l-2-2h-6l-4 3-16 12-17 16s-2 1-1-1l4-17 8-29c5-15 12-29 20-43l18-32 10-14 8-10 16-14c2-1 2-1 3 1l10 10c7 6 14 8 23 6l12-3 10-4c5-2 8-5 9-10l6-18v-12l-1-2 1-2c4-1 8 0 11 1l5 1 15 5 4 2h-3l-4-1m-44 387 11-1 26-5 30-6h19l7 1 1-1h-1c-6-2-12-3-19-3-10-1-20 0-30 1l-35 4c-21.5 2-43.1-2.5-62-13l-6-3h-1v1l3 3c6 6 13 11 21 14 11 6 23 8 36 8m21 59c-4 1-8 0-12-1l-27-9a265.1 265.1 0 0 1-82-60c-5-7-10-13-14-21l-15-32-1-1h2c3 1 23 9 36 10h19l27-4c8-2 16-4 24-4h28l36 9 34 9c18 4 37 4 55 0l14-3c1 0 2 0 2 2 0 11-1 22-5 33l-3 4a215.4 215.4 0 0 1-61 48c-14 9-29 15-45 19l-7 1h-5"/>
    <path fill="#FDBE00" d="m180.4 434 1-32c1-10 6-16 14-21l4-2c5-2 9-5 13-10l9-11 3-4h4l3 4-2 4c-6 10-10 21-13 32l-1 19 1 11c1 7 2 7 7 7l13 1c2 0 4 0 5 2l3 4 15 17c3 4 4 8 3 13l-1 7 1 10c1 4 0 8-1 12l-8 19c-1 2-2 2-4 2-13.1 1.3-26.3.3-39-3-5-2-10-3-15-7l-6-7-5-24c-3-15-4-29-4-43"/>
    <path fill="#FDBE00" d="M223.4 401c-1-6 0-12 1-18v-1c1-8 5-14 11-19l16-12c5-4 11-6 17-6l7 1 15 2c4 1 8 3 11 6 6 4 11 10 16 16 4 5 5 10 5 16l-1 15-2 23v1l-1 1-10-1c-8-1-17 0-26 2h-13c-9-3-18-3-27-2h-16c-1 0-2 0-2-2l-1-22m177-75c5 1 8-1 11-4l4-4 4-5 4-3c6-5 11-10 15-16l1-1c1-2 1-2 3-1l2 2c2 2 2 3 1 5l-2 8c-1 4-1 9 2 13l-1 1h-1c-5 1-7 4-8 9v5c0 3 1 4 3 4l9 1h1v1l-9 3c-4 2-6 4-7 9v4c-1 3 0 4 3 5l4 1h10v1l-7 3-9 3h-3l-8-8-3-3c-7-8-16-15-26-20l-6-3-1-2 7-5c2-2 4-3 7-3m113 120v9c-1 3-1 2-3 3l-16-2h-10l-14 1h-33c-7 1-5 0-5-4 1-3 2-5 4-5l13-7 12-4 15-1 12-1 23 1c2 0 2 0 2 2v8m-32-15h-33l-16 1c-1-1-2-10 7-13l6-2 22-5h20l8 1 14-1h3l1 1v16c0 2 0 3-2 3h-4l-26-1m-16-25c-11-.2-22.1.4-33 2-2 0-2 0-2-3v-5l4-4h3c3 0 7-1 10-3 4-3 10-5 16-5h16l10 1 9-1c4-1 7-2 10-1l2 20-5-1h-13c-7 2-15 1-23 1l-4-1m47 57-3 17c0 2 0 2-2 2h-2c-4-2-9-1-13-1h-17l-28 1h-12c-2 0-2 0-2-2 1-6 4-9 9-12 7-3 15-5 23-6l13 1h19l10-2h3l2 2m-46 43h-25l-6 1-2-2 1-3c0-4 2-7 6-9l7-2 12-3 7-2 15-1 8 1 3 1c4 1 8 0 12-1s4-1 3 4c-2.2 6-4.5 12-7 18l-5-1-29-1m29-124h-11l-11 1h-39l-1-1 2-6c0-2 1-3 3-4l4-2 23-5c3-1 7-2 12-1s10 0 15-1l9-2 7 21h-13m-25-61h-19l-2-2-1-2v-4c2-13 7-23 19-30 4-2 4-2 6 2 6.4 11.3 12 23 17 35 1 1 0 1-1 1-6.3.3-12.7.3-19 0m-203 150-2-9-4-8-10-15-4-5c0-1-2-1-1-2h3c1-1 1 0 2 1l3 5 6 9c3 5 8 7 13 5 2 0 3-2 4-3l7-7 6-8c1-2 3-3 6-3h1v1c-3 5-5 9-9 13-4 3-6 6-7 10l-4 7c-2 5-3 10-1 16l1 11c0 7 2 14 5 20 3 5 2 5-3 5l-17 3c-1 0-3 1-3-1l1-2c3-5 5-11 5-17l1-14 1-12m204 57a218 218 0 0 0-37 2l-2-2 1-4c0-3 2-6 5-8l11-4 16-1 17-1h2l15 1 1 2-6 14c0 1-1 2-3 2l-20-1"/>
    <path fill="#FDBE00" d="M497.4 358h-20l-5 1-37-2c1-5 4-8 8-10 7-4 15-5 24-5h7c6 1 11 0 16-1l6-1 2 1 4 15c1 1 0 2-1 2h-4m-30-22-27 1h-2l-1-2 1-7c1-3 2-3 4-3h7l15 1 18-2h8l3 1 3 9c0 2 0 2-2 2h-27m-199 94 18 1v2l-3 4-5 7-4 5c-2 2-4 2-5-1-4-4-7-8-12-11l-2-4c-1-1-1-2 1-2l8-1h4m209 105 1-1 11-1c2 0 2 1 1 2-3 7-7 15-12 22v1h-1v-23"/>
    <path fill="#FFF" d="m311.4 284-1 11c0 3-1 2-1 0l-1-11-1-14v-17l1-6 1 4 1 9c1 14 2 20 1 24m60-30-4-4-19-18 4 2 17 12 9 7 15 15c-1 1-16-10-22-14m-102-11-4 7-10 16-6 8-12 15-1 1s-1 1-1-1l2-2 9-15 9-13 11-15 3-3s2-1 0 2m57 340c-13 0-25-2-36-8a74 74 0 0 1-24-17c-1-2 0-1 1-1l6 3c19 10.3 40.5 14.8 62 13l35-4c16.6-2.4 33.6-1.7 50 2 0 0 1 1-1 1l-7-1h-19l-30 6-26 5-11 1m-98.6-98.6 2.8 2.8 2.8-2.8-2.8-2.8-2.8 2.8Zm-6-19c0 .4-.2 6.8-.1 13.3-6.8.5-5.7-13.3-5.3-15 .2-1.4-4.4 1.7-6.6 3.8.7 1.3 1.7 1 2.9.5-.4 6.2 3.9 11.8 9 11.7.2 6.4.8 12.5 2.7 13 .2.1.4-6.5.6-13.7 12.2-3.8 7.6-18.3 7.6-18.3-.2-.8-2 .3-6 3.9 1.6 1.7 2.3.7 3.6.3 1 1.9 1.4 10.5-5.2 13.1l.3-18c0-.2-.2-.3-.4-.3-1.8.2-5 3.4-7.5 6.1 1.4 2.1 3 .1 4.5-.4"/>
  </g>
</symbol></svg>
