<svg xmlns='http://www.w3.org/2000/svg' viewBox='0 0 696 830' fill='none'><symbol id='PCAC_Outline'>
  <g fill="#A7BFB9">
    <path d="m346 121.4 11-1a91 91 0 0 1 34 4c15 5 31 10 45 17a174 174 0 0 1 59 47c9 10 17 21 24 32 8 11 14 22 18 34 6 16 13 31 18 47 7 19 12 39 15 59 3.6 27.9 4.9 55.9 4 84l-2 26-3 30c-3 30-12 57-26 83a307.3 307.3 0 0 1-38 54l-25 25c-20 19-43 31-69 37-9 3-18 4-28 6l-16 2a136.7 136.7 0 0 1-49-1l-26-4a157.5 157.5 0 0 1-78-39c-12-11-24-22-34-35-19-24-35-50-46-79-4-11-7-23-8-35l-5-40a467.2 467.2 0 0 1 3-125c3-16 7-32 13-47l20-52c13-24 28-46.8 45-68 13-15 28-27 46-37 11-6 23-11 36-15l23-7c9-3 18-3 27-3l12 1Zm222 324-1-22a702.2 702.2 0 0 0-7-71c-3-16-8-31-13-46l-20-52-9-20c-12-19-25-38-39-55-15-17-32-30-54-36l-28-9a192 192 0 0 0-131 9c-21 7-38 19-52 36a424.5 424.5 0 0 0-48 75l-9 24-14 37a297.8 297.8 0 0 0-17 91l-2 32 1 27 2 18 6 29a233.3 233.3 0 0 0 57 112l28 29 11 10c17 14 36 24 58 30l25 6 15 3a151 151 0 0 0 43-1l25-5c28-6 52-18 72-37 9-7 17-16 25-24a236.4 236.4 0 0 0 61-100c4-11 7-23 9-35 4-18 7-36 6-55Z"/>
    <path d="M519 416.4c.4 37.7-6.7 75-21 110l-9 19c-6 14-15 28-25 40-8 9-16 18-26 25-19 14-39 25-61 32-8 3-16 5-25 6l-19-1c-22-4-43-13-62-25a166.4 166.4 0 0 1-44-37c-11-12-20-26-26-41l-14-32c-6-15-10-30-13-46a304.2 304.2 0 0 1 3-98l9-36c8-23 19-45 33-65l17-21 13-16a164.6 164.6 0 0 1 39-32c15-7 30-13 45-16 10-2 19-1 28 1 14 3 28 8 42 15l18 13c9 8 18 16 25 25l19 23c18 22 31 47 40 75a373.3 373.3 0 0 1 14 82Zm-340 14 3 39c2 14 5 28 10 41a424.7 424.7 0 0 0 31 58c21.4 25.5 48 46 78 60 11.8 4.7 23.9 8.7 36 12 5 2 11 2 17 0l15-4 14-5c1 0 2-1 2-3v-1c3-13 15-19 26-13l4-1 2-1c18-12 34-26 49-42l13-18a415 415 0 0 0 27-68c4-19 5-38 5-57l-1-15c-.1-14.2-2.2-28.3-6-42l-7-26c-1-2-2-3-4-3l-6-2-5-7c-4-5-3-12 1-17 2-2 2-2 1-5l-8-16-15-25c-5-11-13-22-21-31-7-8-16-14-25-20h-3c-3 4-8 5-13 6-3 1-7 0-10-1-6-4-10-11-8-19l1-3-1-1-2-1-27-10c-5-1-10-1-15 1l-13 4-21 8-3 2v1l1 1c4 8 2 17-5 22-4 3-11 4-16-2l-3-7c0-2-1-2-2-1l-17 13c-10 9-18 19-25 30l-15 26c-8 16-16 32-22 49l-10 35c-2 10-5 20-5 31l-2 28Zm122-215c0-3-1-6-3-8-1-2-1-2-3-1l-15 9-1 2c1 4 5 10 12 8l6-2c2-1 3-3 3-5l1-3Zm99 6c4 1 8-1 10-3v-4l-13-7-11-5c-2-1-2-1-3 1l2 8c3 5 7 8 12 10h3Zm9 394-10 1c-6 0-10 4-12 11v1h2l20-11s2-1 0-2Zm74-288 1 3c0 2 1 4 4 5l4 1c-2.2-6.4-4.5-12.7-7-19l-2 10Z"/>
    <path d="m311 311.4 9 1 18 6c8 3 16 5 25 5 8-1 15 0 22 2l17 5c16 7 27 18 33 34l2 5c2 7 5 14 9 20l13 16c6 8 14 13 23 18l7 4 5 5c1 2 0 3-2 3l-4 1h-8v1l8 2 2 1 1 2-2 2-7 3-13 4-13 8c-14 13-30 20-47 26-3 0-6 2-8 4l-10 10c-4 4-8 6-13 8l-9 1c-5 0-11 1-16 3-4 2-8 2-12 2-4-1-7-2-9-4l-1-2v-5l2-1 3-1 4-4-5 1c-8 2-16 3-25 3l-11 2-15 2-13-1-9-4-9-6c-3-2-7-4-11-4l-4-1c-11-4-18-15-16-26l2-9v-1h-1l-7 8-2 1c-1 2-2 2-3 1l-2-2c-9-9-14-19-16-31 0-3 0-7 2-10l4-10 4-7c1-3 2-7 1-10l-3-10c-1-6 0-12 3-18l4-6h3l1 2c7 9 15 18 24 26 6 6 3-1 2-2l-4-8-4-8c-4-10-2-20 4-29 4-5 8-10 14-14 7-6 15-9 24-9l13-1 11-2 6-1 9-1Zm65 173h12a77.8 77.8 0 0 0 35-9c2-1 2-1 1-2-6-9-14-15-24-16l-18-3-15-2c-5-1-10-4-14-8-5-6-8-13-8-22l1-10c1-7 0-14-3-20l-5-9-4-8c-5-10-4-19 1-29 2-5 6-10 11-14l4-3 1-1-1-1-15-2-22 1c-9 1-18 4-25 10-3 2-6 5-8 9-2 5-6 10-11 15-6 5-10 12-12 21l-2 14-5 18c-3 11-4 22-3 33l6 15 9 10c10 9 21 14 33 18 10 3 19 4 29 2l17-5c8-2 17-3 26-3l9 1Zm-3-153-3 1-9 10-6 8c-3 7-3 13 0 19l5 8c4 8 6 16 6 25l1 8c1 5 3 9 6 12 4 4 9 7 14 9l16 4c12 5 22 11 32 21l2 1c3 3 4 3 7 0 7-5 16-10 25-12l10-2 5-2 1-1-7-1-6-2v-2l5-1 9-1h3l-2-3-5-3-8-3c-7-3-13-7-17-13l-5-7c-11-14-20-29-29-44l-3-4c-4-7-9-12-16-15-7-4-14-6-22-8l-9-2Zm-25 92c0 4 0 8 2 11 4 7 9 11 16 13l16 2 14 2c12 3 22 10 30 20 1 2 1 2 3 0l3-2v-4l-1-2c-6-8-14-15-24-20-7-4-15-7-24-9-6-2-12-5-17-10-3-4-5-7-6-12l-2-12-1-11-5-17c-2-5-4-11-3-18 0-9 3-16 10-22l1-1v-2h-1c-3-1-5-1-7 1-6 5-10 11-14 18l-2 9c-1 7 1 12 4 18l5 7c4 5 5 11 5 17l-1 13-1 11Zm-116-61c1 4 2 7 5 10 3 6 6 11 7 17l1 3c1 2 2 2 2 1l2-3 3-12c2-7 5-14 9-20l9-15c2-5 5-9 9-11a65.9 65.9 0 0 1 51-12s5 1 1-1c-9-4-17-5-26-2-8 3-15 3-23 2h-16c-3 1-5 2-7 5l-3 3-10 10-6 5c-11 7-8 19-8 20Zm-34 64c0 6 2 11 3 16 2 5 5 9 9 13h2c2-7 6-12 12-15l10-6c2-1 2-2 2-4l1-9c1-7 3-13 6-19 1-3 1-3-2-5-12-5-22-13-27-25l-2-5c-1-1-2-2-2 0l1 14c1 8 0 16-4 24l-6 10c-2 4-3 7-3 11Zm100 72c1 0 0 0 0 0l-25-11c-10-6-18-13-26-22-4-6-8-13-9-21l-1-4h-2c-4 4-6 9-8 15-1 5-1 10 1 14 3 7 7 13 14 16 6 2 11 4 16 8l3 1 10 3h5l22 1Zm46 12 8-2 13-4 15-6c6-2 11-6 16-10l-1-1-19 2-28 5-4 2c-1 3-3 5-5 6l-4 4c2 2 5 4 9 4Zm-132-16c5 0 10 2 13 7 6 7 3 17-6 20h-13c-4-1-7-4-8-8v-11c2-5 6-8 14-8Zm1 26c5 0 8-3 9-8v-6c-1-5-4-8-9-10-4-1-8 1-9 5v12c1 4 4 7 9 7Zm89 65h-4c-7-2-10-7-10-14 0-3 0-6 2-9s5-5 8-6l7-2c5 0 8 2 11 6 3 5 4 10 1 16-2 5-6 8-12 9h-3Zm12-13c0-3-1-7-4-11-3-5-11-6-15-1-2 1-3 3-3 5 0 4 0 8 3 11 3 5 7 7 12 6 5 0 7-4 7-10Zm100-296c0 3-1 7-4 10-5 7-15 8-21 1-5-5-6-15-1-21 5-8 17-8 23 0 2 3 3 6 3 10Zm-5 2c0-5-2-9-4-12-3-4-8-5-12-2l-4 4c-3 5-3 10 0 15 1 3 4 5 7 6 5 2 10 0 12-5l1-6Zm-144 23c-9 0-14-9-11-17l3-4c6-3 16-2 19 7 2 7-3 15-11 14Zm5-11-1-6c-2-3-4-4-7-4-3 1-6 2-7 6-1 3 0 7 3 10 2 3 6 3 10 0 2-1 3-4 2-6Zm171 215c0-5 4-9 8-9 5 0 8 4 8 8 0 5-4 9-9 9-4 0-7-4-7-8Zm10 4 4-3c1-2 0-4-1-5l-4-3c-3-1-6 1-6 5 0 3 2 6 7 6Zm-52 62c2 0 3 1 3 3s-2 4-4 4c-1 0-3-2-3-4 1-2 2-3 4-3Zm-48-328c1 0 3 1 3 3s-1 3-3 3-4-2-4-4l4-2Zm-95 325c0 2-1 3-3 3-2 1-3-1-3-3s2-3 4-3c1 0 2 1 2 3Zm237-174c0 2-1 4-3 4s-3-2-3-3c0-2 2-3 3-3 2 0 3 0 3 2Zm-272-62c0 1-1 3-3 3l-3-3c0-2 1-3 2-3 2 0 4 1 4 3Zm197 210-3-2c0-2 1-3 3-3 1-1 3 1 3 2 0 2-1 3-3 3Zm-107 65c2 0 3 1 3 2 0 2-1 3-2 3-2 0-3-1-3-2 0-2 1-3 2-3Zm7-85-2 2c-1 0-2-1-2-3l2-2c2 0 2 1 2 3Zm141-222 2 3-2 2c-2 0-3-1-3-2 0-2 2-3 3-3Zm-195-37-2-3 2-2c2 0 3 1 3 3 0 1-1 2-3 2Zm184 61 2 2-2 2c-2 0-2-1-2-2l2-2Z"/>
    <path d="M440 418.4c-3 0-5-2-5-5s2-5 5-5 5 2 5 5-2 5-5 5Zm-235 9c0-4 1-8 3-11l6-15 1-2 2 2-1 7-2 9-4 10v7l-1 4v1l-1-1-1-2-2-9Zm27-21c0 3 0 5-2 8l-3 7-3 9-1 4h-1v-3l2-11 2-7v-13l-1-3 1-2 2 1c3 2 4 6 4 10Zm132.9 168 2.8 2.8 2.8-2.8-2.8-2.8-2.8 2.8Zm-6-19.1c0 .4-.2 6.8-.1 13.3-6.8.5-5.7-13.3-5.3-15 .2-1.4-4.4 1.7-6.6 3.8.7 1.3 1.7 1 2.9.5-.4 6.2 3.9 11.8 9 11.7.2 6.4.9 12.5 2.7 13 .2 0 .4-6.5.6-13.7 12.2-3.8 7.5-18.3 7.5-18.3-.2-.8-2 .4-6 3.9 1.6 1.7 2.4.7 3.6.3 1 1.9 1.4 10.5-5.1 13l.3-18-.4-.2c-1.8.2-5 3.4-7.5 6 1.5 2.3 3.2.3 4.5-.3"/>
  </g>
</symbol></svg>
