<svg xmlns='http://www.w3.org/2000/svg' viewBox='0 0 30 30' fill='none'>
<symbol id='PCRTest'>
<path fill-rule="evenodd" clip-rule="evenodd" d="M20.4768 7.80016C20.6567 7.96016 20.8865 8.05016 21.1263 8.05016V8.06016H21.2062C21.466 8.03016 21.7058 7.91016 21.8757 7.70016L24.3937 4.58016C24.7334 4.16016 24.6635 3.55016 24.2538 3.22016C23.8342 2.88016 23.2246 2.95016 22.8949 3.36016L21.0164 5.69016L19.9272 4.71016C19.5375 4.35016 18.928 4.38016 18.5683 4.78016C18.2086 5.17016 18.2386 5.78016 18.6382 6.14016L20.4768 7.80016ZM16.1003 12.42C16.41 11.87 16.47 11.2 16.2701 10.58L13.892 3.67997C13.7122 3.15997 13.1426 2.87997 12.623 3.05997C12.1034 3.23997 11.8236 3.80997 12.0035 4.32997L14.3816 11.21C14.4116 11.32 14.3816 11.4 14.3616 11.45C14.3417 11.5 14.2817 11.57 14.1718 11.6L12.3133 12.07C11.8736 12.18 11.5539 12.58 11.5539 13.04V18.74C11.5539 19.67 10.7945 20.43 9.86518 20.43H4.74921C4.19965 20.43 3.75 20.88 3.75 21.43C3.75 21.98 4.19965 22.43 4.74921 22.43H9.86518C11.9036 22.43 13.5523 20.77 13.5523 18.74V13.82L14.6514 13.54C15.2709 13.39 15.8005 12.98 16.1103 12.43L16.1003 12.42ZM25.9625 25.3101L20.357 19.4201C20.3769 19.3202 20.3869 19.2202 20.3969 19.1202L20.3969 19.1201C20.4069 18.6501 20.237 18.2101 19.9173 17.8701L18.0688 15.9301C17.749 15.5901 17.3193 15.4001 16.8497 15.3901C16.4101 15.3901 15.9404 15.5501 15.6107 15.8701C14.9112 16.5301 14.8913 17.6401 15.5507 18.3401L17.3993 20.2801C17.719 20.6201 18.1487 20.8101 18.6183 20.8201H18.6583C18.74 20.8201 18.8134 20.8119 18.8935 20.8029L18.9181 20.8001L24.5337 26.6901C24.7335 26.9001 24.9933 27.0001 25.2531 27.0001C25.5029 27.0001 25.7527 26.9101 25.9426 26.7201C26.3422 26.3401 26.3522 25.7001 25.9725 25.3001L25.9625 25.3101Z" fill="currentcolor"/>
</symbol>
</svg>
