<svg xmlns='http://www.w3.org/2000/svg' viewBox='0 0 30 30' fill='none'>
<symbol id='PeopleBaby'>
<path d="M23.2709529,13.3357 L19.4957529,10.5169 C18.9750529,10.127 18.3241529,9.90712 17.6632529,9.90712 L17.1425529,9.90712 C18.1439529,9.22741 18.7947529,8.07788 18.7947529,6.78842 C18.7947529,4.69929 17.0924529,3 14.9995529,3 C12.9067529,3 11.2143529,4.69929 11.2143529,6.78842 C11.2143529,8.08788 11.8752529,9.22741 12.8666529,9.90712 L12.3859529,9.90712 C11.7351529,9.90712 11.0842529,10.127 10.5534529,10.5169 L6.74825294,13.3657 C5.89708294,14.0554 5.74688294,15.3149 6.42781294,16.1745 C7.07871294,16.9942 8.23029294,17.1841 9.05145294,16.6543 L10.8839529,15.6247 L10.1629529,24.7209 C10.1128529,25.3007 10.3031529,25.8905 10.6936529,26.3203 C11.0842529,26.7501 11.6549529,27 12.2357529,27 C13.2171529,27 14.0783529,26.3003 14.2685529,25.3707 L14.9895529,22.3919 L15.7005529,25.3507 C15.9008529,26.3103 16.7620529,27 17.7433529,27 C18.3241529,27 18.8949529,26.7501 19.2854529,26.3203 C19.6760529,25.8905 19.8762529,25.3107 19.8262529,24.7409 L19.1052529,15.6347 L20.8876529,16.6343 C21.7688529,17.2041 22.9204529,17.0142 23.5713529,16.1945 C24.2522529,15.3349 24.1120529,14.0754 23.2208529,13.3557 L23.2709529,13.3357 Z M15.0095529,4.99917 C15.9909529,4.99917 16.8020529,5.79883 16.8020529,6.78842 C16.8020529,7.77801 16.0009529,8.56768 15.0095529,8.56768 C14.0182529,8.56768 13.2271529,7.76801 13.2271529,6.78842 C13.2271529,5.80883 14.0282529,4.99917 15.0095529,4.99917 Z M12.3559529,24.9209 C12.3559529,24.9209 12.3158529,24.9908 12.2758529,24.9908 L12.1957529,24.8809 L12.6363529,19.3332 L13.6877529,20.0629 C13.5676529,20.1828 13.4774529,20.3328 13.4374529,20.5027 L12.3659529,24.9209 L12.3559529,24.9209 Z M17.7934529,24.9908 C17.7934529,24.9908 17.7133529,24.9608 17.7032529,24.8909 L16.6418529,20.5027 C16.6017529,20.3228 16.5016529,20.1728 16.3814529,20.0529 L17.4429529,19.3132 L17.8835529,24.8709 C17.8835529,24.8709 17.8034529,24.9708 17.8034529,24.9808 L17.7934529,24.9908 Z M21.9691529,14.905 L18.5043529,12.9559 C18.1839529,12.7759 17.7834529,12.7859 17.4729529,12.9858 C17.1625529,13.1858 16.9823529,13.5356 17.0123529,13.9055 L17.2626529,17.0142 L15.0696529,18.5335 C15.0696529,18.5335 15.0396529,18.5735 15.0196529,18.5835 C14.9995529,18.5735 14.9895529,18.5435 14.9695529,18.5335 L12.8065529,17.0342 L13.0569529,13.9055 C13.0869529,13.5356 12.9067529,13.1858 12.5962529,12.9858 C12.2858529,12.7859 11.8853529,12.7759 11.5648529,12.9559 L8.10011294,14.905 C8.10011294,14.905 8.02000294,14.925 7.99997294,14.935 L11.7751529,12.1162 C11.9554529,11.9863 12.1757529,11.9063 12.4060529,11.9063 L13.3172529,11.9063 C13.8680529,11.9063 14.3186529,11.4565 14.3186529,10.9067 C14.3186529,10.7568 14.2785529,10.6068 14.2185529,10.4769 C14.4788529,10.5369 14.7392529,10.5668 15.0196529,10.5668 C15.2999529,10.5668 15.5603529,10.5369 15.8207529,10.4769 C15.7606529,10.6068 15.7205529,10.7468 15.7205529,10.9067 C15.7205529,11.4565 16.1711529,11.9063 16.7219529,11.9063 L17.6832529,11.9063 C17.9035529,11.9063 18.1338529,11.9763 18.3141529,12.1162 L22.0092529,14.885 L21.9891529,14.905 L21.9691529,14.905 Z" fill="currentcolor"/>
</symbol>
</svg>
