<svg xmlns='http://www.w3.org/2000/svg' viewBox='0 0 696 830' fill='none'><symbol id='PHUC_Fill'>
  <g fill="none">
    <path fill="#9BADFA" d="M590.4 420.3c0 17 0 31-2 46l-6 57c-3 17-8 34-15 49a294.1 294.1 0 0 1-78 106c-23 21-49 35-80 41a665.4 665.4 0 0 1-69 8c-21-1-43-5-63-10-27-7-51-20-71-39-13-13-27-26-39-41-17-22-32-47-43-73-6-15-9-31-11-47-3.4-30.9-6-61.9-8-93l2-42c3-34 10-66 22-98l16-40c13.6-25.6 29.3-50 47-73a171.2 171.2 0 0 1 84-57l21-7c13-4 28-6 42-5h17c14-1 28 0 41 5 16 5 32 10 47 18a179 179 0 0 1 59 46 461.3 461.3 0 0 1 47 72l19 50c8 22 14 44 17 67l4 60"/>
    <path fill="#FFF" d="M125.4 439.3c0 15 0 30 3 45l7 34c10 43 30 80 60 112 9 10 19 20 30 29 17 16 37 28 61 35l33 7 24 3c10 1 19 0 28-1l25-6c29-5 55-19 76-39l25-24c37.7-37.9 61.9-87 69-140 3-15 5-30 5-46l-2-35-3-36c-2-23-8-46-16-68l-20-52c-4-13-11-25-18-36a584.3 584.3 0 0 0-32-43c-13-16-29-28-49-35l-27-8a204.6 204.6 0 0 0-70-8l-17 2c-17 3-33 8-50 14-16 5-31 14-43 26l-13 14a478.6 478.6 0 0 0-44 70l-20 52a289.4 289.4 0 0 0-19 90l-3 44m451-7-1 27-2 23-3 24c-3 25-11 49-23 72-13 25-29 49-50 69l-16 16c-21 20-46 32-74 38l-45 8c-12 1-23 1-34-1l-35-6c-30-6-57-19-79-40l-23-23c-25-27-44-58-56-93-4-11-7-23-8-36l-6-45c-1-17-2-34-1-51l1-22a394.5 394.5 0 0 1 22-103l15-36c4-11 9-21 16-31l29-39c13-15 28-27 45-37 13-7 27-13 41-17l22-7c9-2 18-2 27-1h19c13-1 25 0 38 4 15 5 30 10 45 17 21 11 40 25 55 44l26 34c7 11 13 22 18 34l19 51c7 20 11 40 14 60 3 21 4 41 4 67"/>
    <path fill="#FFF" d="M513.4 429.3v-19c-1-11-2-22-5-33l-5-19c-7-27-18-52-32-76l-8-15a149.6 149.6 0 0 0-36-42l-15-11c-7-5-15-9-22-12l-36-13c-5-2-10-2-16 0l-18 7a179 179 0 0 0-62 35c-9 9-17 19-24 30l-15 27c-10 17-18 35-24 54l-8 29c-4 16-6 32-7 48 0 14 0 29 2 43 1 15 4 29 9 43 9.3 23.2 21 45.3 35 66 22 26 50 45 81 61l30 10h17c15-3 28-7 41-15l25-14c17-11 32-24 45-39 8-8 14-16 18-26l13-27c6-13 11-26 13-41 3-16 4-33 4-51m-340-9c-1-20 2-41 8-61l10-35c11-29 26-54 46-77l13-15c10-12 22-22 35-31 8-5 16-8 25-11 9-4 19-7 29-8 7-1 14-1 21 1 17.2 3.5 33.7 9.5 49 18 12 9 24 18 34 30l21 25c23 28 38 60 47 96 3.4 17.6 6.4 35.3 9 53 1 26.1-1 52.3-6 78-3 14-8 28-13 40l-13 28c-4 8-8 16-14 23a622.9 622.9 0 0 1-32 35c-18 13-36 23-56 31-10 4-21 6-32 8-6 1-13 0-20-1-18-3-35-10-51-19l-19-11c-11-7-21-15-30-25a546.9 546.9 0 0 1-27-37l-18-40a306.6 306.6 0 0 1-16-94"/>
    <path fill="#9BADFA" d="M241.4 452.3c-6 0-12 1-17 3l-8 7c-4 8-4 16 1 24l5 5 25 25 8 9c4 4 6 9 7 15v18l-6 16c-1 1-2 2 0 3l4 1 2-1 5-3c6-6 12-12 16-20l6-12c4-8 5-17 4-25l-2-15c-1-8-4-15-9-22-7-10-17-18-28-25-4-2-9-4-13-3m160 67c0 9 1 16 4 21l6 13c4 8 10 15 17 21l5 3 4 1c2 0 3-1 2-3l-1-3-6-18c-2-12 1-23 10-32l4-4 25-25 4-4c5-5 7-11 6-18-1-8-4-13-12-16l-10-3c-8-1-15 0-22 5l-11 8c-6 5-12 12-16 18-3 4-5 9-6 13l-3 23m-20-79 2 1c4 2 8 2 12 1l16-7c3-1 4-3 6-5l5-4c2-4 6-6 10-7l6-1c8-3 15-8 20-14l4-7 11-17c4-5 5-11 6-17l2-21c1-8-2-15-8-21l-7-6c-10-9-22-16-33-23l-16-7c-5-1-9-1-14 1l-10 2c-8 2-14 4-20 10l-3 1c-7-2-13-2-20-1h-6c-6-1-12-1-18 1-3 0-4 0-6-2-4-4-9-6-14-8l-15-3c-5-2-9-2-14 0-6 1-12 3-18 7l-16 11-20 15c-8 7-11 15-9 26l1 16c1 7 2 13 6 19l11 16 3 5c5 9 13 15 23 17 8 2 13 5 18 11 2 3 5 5 9 7l13 6c4 1 9 1 13-1 3-1 3 0 4 1v4l-2 7-9 32v2h3l4-2 4-5 7-13 1-1v28c0 11 1 22 4 33l5 27 5 19 9 18c6 7 14 11 23 13 3 0 7-1 10-5l2-7c0-5-2-9-4-13-1-2-3-3-6-3h-2c-2 0-3-1-3-2l-3-10-2-22 1-57 1-15 4-11 1-2 2 2a154 154 0 0 0 13 26l5 3c2 0 3-1 2-3-1-4-1-9-3-13l-5-16-2-10c-1-2-1-4 1-6m132-11c0 19-1 35-4 51-2 15-7 28-13 41l-13 27c-4 10-10 18-18 26a219.2 219.2 0 0 1-70 53c-13 8-26 12-41 15h-17l-30-10a250.6 250.6 0 0 1-93-77c-9-16-17-32-23-50-5-14-8-28-9-43-2-14-2-29-2-43 1-16 3-32 7-48l8-29c6-19 14-37 24-54l15-27a149.9 149.9 0 0 1 28-33c17.2-14.2 36.9-25 58-32l18-7c6-2 11-2 16 0l36 13c7 3 15 7 22 12l15 11 14 11c8 10 16 20 22 31l8 15c14 24 25 49 32 76l5 19c3 11 4 22 5 33v19"/>
    <path fill="#FFF" d="m308.4 483.3 7-8c3-4 6-10 7-15 1-4 1-8-3-10l-1-3-2 3-1 8-7 24-1 1m70-36-2 3c-2 2-3 4-2 7v2c2 10 7 17 13 24l2 1-1-3-6-22c0-4-2-8-4-12m-77-78-1 2-1 10-7 24-4 13 3 12 3 2 9 3 3 2h5c2 0 2-1 2-2l-1-4v-13l1-7v-4l-2-5c-3-4-4-8-3-13 0-8-3-14-7-20m94-1v1c-4 6-7 13-6 20l-1 9-7 13v5c2 6 4 12 2 18 0 2 0 3 2 3 3 1 6 0 8-2l9-3c2 0 3-1 4-3 3-5 3-10 2-15l-5-13c-3-9-6-19-7-29l-1-4m80 2v-8c-2-5-2-10-2-16v-4c0-5-1-10-5-14l-2-2-31-30c-8-8-17-10-27-6l-16 3-5 1c-4 1-8 3-11 6l3 3 3 2c2 4 5 4 9 2l3-1 2 1c-2 3-6 3-8 5 1 4 5 6 6 10-2 0-3-2-4-3l-8-6c-3-4-8-6-13-7l-22-3-18 2c-6 2-12 4-16 9l-9 7-1 1 2-5c1-2 3-3 3-5l-6-3-2-3 3 1 7 1c1 1 1 0 2-1l8-7-1-1c-4-4-9-6-14-6-6 0-12-2-17-4l-9-1c-7 1-13 3-18 8l-30 30c-6 5-8 11-8 19 1 6 0 11-1 17l-1 6c0 2 1 2 2 1l7-5c9-8 16-17 21-28 1-5 4-9 6-13s4-7 7-9l9-3h2l-2 1c-5 1-9 4-11 8l-4 7-3 10c-4 14-13 24-24 34l-5 3-2 1 4 4 19 19 3 3 2-1c7-7 12-15 15-25l3-11 4-11c2-6 5-10 9-14l3-1-1 2c-6 5-9 11-11 18l-2 13c-1 9-4 17-9 24l-8 8v3l9 6 14 13c2 3 4 4 6 5l3 1v-2c-3-4-4-9-3-14l3-11 5-12 5-11c2-7 3-14 1-22-1-4 0-9 2-13l3-5 3-5-1-2-2-1c-6-3-10-8-12-14l-9-13-3-3h2c5 4 10 8 13 14l3 5c2 4 6 7 10 9l1-4c1.3 2 1.7 4 1 6l-2 9-3 6c-2 3-2 7-1 11l3 7 4 17c0 6 2 12 4 18l2 3c2-4 3-6 3-11l-2-8v-2h1l2 2c2 6 3 13 2 19l-2 12c0 7-1 13 1 20l1 3 1-10c0-3 0-7 2-10v2l2 25 2 21 1 33v7l1 14c0 9 1 18 3 26l6 19c2 6 6 12 10 17 5 7 12 12 20 16l4 1c3 1 4-1 4-3l-1-2-2-9-1-4c0-2-1-3-4-2 0 2 2 3 1 6l-2-3-4-7c-4-9-6-19-7-28l-1-9c-1-19.3-.5-38.7 1-58l1-20 2-27 3-16 1-2v8l-1 8 1 8v8c4-4 6-8 8-13 2-3 2-7 1-10l-1-8c-2-7-3-15-2-22l1-8 2-3c1 8-1 16 3 23l7-10 3-15c0-5 2-10 4-15l2-7c2-4 1-9-1-13l-3-7-2-10 1-3 2 4h1l11-13c3-6 7-11 13-15l2-1-1 2c-5 5-9 11-12 18-1 4-4 7-7 9l-5 3c-2 1-2 1-1 3l4 7c4 6 5 11 3 17l-1 6c0 7 2 14 5 21l5 12 5 13c1 5 1 11-2 16l-1 2c3 0 4-1 5-2l5-5 11-10 8-5 5-4-3-3c-8-8-13-17-15-28l-2-12c-2-8-5-16-12-22v-2l4 3c5 5 8 11 10 18l4 13c2 10 7 19 14 26 3 4 3 4 6 0l5-6 14-13 4-4-9-6-12-13c-4-5-7-10-9-16l-3-10-3-9c-3-5-7-8-13-9l-2-1h5c5 2 9 5 11 8l7 12 4 9c5 11 12 20 22 27 1 1 3 3 5 3m-93 70c-2 2-2 4-1 6l2 10 5 16 3 13c1 2 0 3-2 3l-5-3-3-4-11-22-1-2-1 2-4 11-1 15-1 57c0 7 0 15 2 22l3 10c0 1 1 2 3 2h2c3 0 4 1 6 3 2 4 4 8 4 13l-2 7c-3 4-7 5-10 5-9-2-17-6-23-14-4-5-7-11-9-17l-5-19-6-27-3-33v-28l-1 1-7 13-4 5-4 2h-3v-2l9-32 2-7v-4c-1-1-1-2-4-1-4 2-9 2-13 1l-13-6c-4-2-7-4-9-7-5-6-11-9-18-11-10-2-18-8-23-17l-3-5-11-16c-4-6-5-12-6-19l-1-16c-2-11 1-19 9-26l20-15 16-11c6-4 11-6 18-7 5-2 9-2 14 0l15 3c5 2 10 4 14 8 2 2 3 2 6 2 6-2 12-2 18-1h6c6-1 13-1 20 1l3-1c6-6 12-8 19-10l11-2c4-2 9-2 14-1l16 7c11 7 23 14 33 23l7 6c6 6 9 13 8 21l-2 21c-1 6-3 12-6 17l-11 17-4 7c-5 6-12 11-20 14l-6 1c-4 1-8 3-11 7l-4 4-6 5-16 7c-4 1-8 1-12-1l-2-1"/>
    <path fill="#FFF" d="M437.4 575.3v-1c-5-8-7-17-8-26-1-11 2-22 9-31 4-5 9-10 14-13l11-8 11-10c6-6 6-13 3-20-1-3-3-6-7-8s-9-2-13 0l-18 5c-7 2-13 5-18 11l-6 8c-9 11-10 24-8 37l3 21c1 5 2 10 5 15 4 7 10 13 17 18l5 2m-36-56 3-23c1-4 3-9 6-13 4-6 10-13 16-18l11-8c7-5 14-6 22-5l10 3c8 3 11 8 12 16 1 7-1 13-6 18l-4 4-25 25-4 4c-9 9-12 20-10 32l6 18 1 3c1 2 0 3-2 3l-4-1-5-3c-7-6-13-13-17-21l-6-13c-3-5-4-12-4-21m-144 55 1 1 5-3c5-3 10-8 14-13s7-12 8-19l2-17 2-15c-1-9-3-17-8-24l-7-10c-5-6-11-9-19-11l-18-5c-10-4-23 2-21 19 0 4 2 7 5 9l12 11 11 8c6 4 11 9 15 16 3 4 5 8 5 13 3 13 1 25-5 37l-2 3m-16-122c4-1 9 1 13 3 11 7 21 15 28 25 5 7 8 14 9 22l2 15c1 8 0 17-4 25l-6 12a71.1 71.1 0 0 1-21 23l-2 1-4-1c-2-1-1-2 0-3l6-16v-18c-1-6-3-11-7-15l-8-9-25-25-5-5c-5-8-5-16-1-24l8-7c5-2 11-3 17-3"/>
    <path fill="#9BADFA" d="M381.4 367.3c-3-1-6-2-8 0l-3 3 2 3 3-1 1-1c0-2 1-3 3-3l2-1m-68 0c4 1 6 2 6 5h1l3 1 1-3-2-3h-9m-3-11h1l1-4c1-4 3-8 6-11l5-5c2-1 3-3 3-6v-2l-9 11-2 2c-5 4-6 9-5 15m59-28h-1l1 3 2 5 5 5 7 11v2l2 2v-2c0-5-2-10-6-14-4-3-8-7-10-12m105 42c-2 0-4-2-5-3-9-7-17-16-22-27l-4-9-7-12c-2-3-6-6-10-8h-6l2 1c6 1 10 4 13 9l3 9 3 10c2 6 5 11 9 16l13 13 8 6-4 4-14 13-5 6c-3 4-3 4-6 0-7-7-12-16-14-26l-4-13c-2-7-5-13-10-18l-4-3 1 2c6 6 10 14 11 22l2 12c2 11 7 20 15 28l3 3-5 4-8 5-11 10-5 5c-1 1-2 2-5 2l1-2c3-5 4-11 2-16l-4-13-6-12c-3-7-5-14-5-21l1-6c2-6 1-11-3-17l-4-7c-1-2-1-2 1-3l5-3c3-2 6-5 8-9 2-7 6-13 11-18l1-2-2 1c-5 4-10 9-13 15-3 5-6 9-11 13h-1l-2-4-1 3 2 10 3 7c2 4 3 9 1 13l-2 7-4 15-3 15c-1 2-4 8-7 10-4-7-2-15-3-23l-2 3-1 8c-1 7 0 15 2 22l1 8c1 3 1 7-1 10l-7 13c-2-3-1-5-1-8v-24l-1 2-3 16-2 27a428.5 428.5 0 0 0-2 61c0 8.7.4 17.3 1 26a77.4 77.4 0 0 0 11 35l2 3c1-3-1-4-1-6 3-1 4 0 4 2l1 4 2 9 1 2c0 2-1 4-3 3l-5-1a62.8 62.8 0 0 1-30-33l-6-19c-2-8-3-17-3-26l-1-14v-7l-1-33-2-21-2-25v-2c-2 3-2 7-2 10l-1 10-1-3c-2-7-1-13-1-20l2-12c1-6 0-13-2-19l-2-2h-1l1 2 1 9c0 4-1 6-3 10l-2-3c-2-6-4-12-4-18l-4-17-3-7c-1-4-1-8 1-11l3-6 2-9c.7-2 .3-4-1-6l-1 4c-4-2-8-5-10-9l-3-5c-3-6-7-10-12-14h-2l2 3c3 4 7 8 9 13 2 6 7 11 13 14l1 1 1 2-2 5-4 5c-2 4-3 9-2 13 2 8 1 15-1 22l-4 11-6 12-3 11c-1 5 0 10 3 14v2l-2-1c-3-1-5-2-6-5-4-5-10-9-15-13l-9-6v-3l8-8c5-7 8-15 9-24l3-13c1-7 4-13 10-18l1-2-3 1c-4 4-7 8-9 14l-4 11-3 11c-3 10-8 18-15 25l-2 1-3-3c-5-7-12-13-19-19l-4-4 2-1 5-3c11-10 20-20 24-34 1.9-5.8 4.2-11.5 7-17 2-4 6-7 11-8l2-1h-1c-4 0-7 1-9 3-4 2-6 5-8 9s-5 8-6 13c-5 11-12 20-20 28l-8 5c-1 1-2 1-2-1l1-6c1-6 2-11 1-17 0-8 3-14 8-19l30-30c5-5 11-7 18-8l9 1c5 2 11 4 17 4 5 0 10 2 14 6l1 1-8 7-2 1-6-1-3-1 2 3 6 3-3 5-3 5 2-1a89 89 0 0 0 8-7c5-5 10-7 16-9l20-3 20 4c5 1 10 3 13 7l8 6c1 1 2 3 4 3-1-4-4-6-6-10 2-2 6-2 8-5l-2-1-3 1c-4 2-7 2-9-2l-3-2-3-3c4.3-4.2 10-6.7 16-7l16-3c10-4 19-2 27 6l31 30 2 2c4 4 6 9 5 14v4l2 16v8"/>
    <path fill="#9BADFA" d="m394.4 368.3 1 4c1 10 4 20 7 29l5 13c1 5 1 10-2 15-1 2-2 3-4 3l-9 3c-2 2-5 3-8 2-2 0-2-1-2-3 2-6 0-12-2-18v-5l7-13 1-9c-1-7 2-14 6-20v-1m-94 1c4 6 7 12 7 20-1 5 0 9 3 13l2 5v4l-1 7v13l1 3c0 2 0 3-2 3h-5l-3-2-9-3-3-2-3-12 4-13 7-24 1-10 1-2m77 78c2 4 4 8 4 12l6 22 1 3-2-1c-6-7-11-15-13-24v-2c-1-3 0-5 2-7l2-3m-69 36v-1l7-24 1-8 2-3 1 3c4 2 4 6 3 10-1 5-4 11-7 15l-7 8h-1m145-9h2l12-2c1-1 2-1 2-3l-2-3-5 1-8 5-1 2m-15 101-5-2c-7-5-13-11-17-18-3-5-4-10-5-15l-3-21c-2-13-1-26 8-37l6-8c5-6 11-9 18-11l18-5c4-2 9-2 13 0s6 5 7 8c3 7 3 14-3 20l-11 10-11 8c-5 3-10 8-14 13-7 9-10 20-9 31 1 9 3 18 8 26v1m-194-102-11-7h-2l-3 3c0 2 1 3 2 3l2 1 9 1 3-1m14 101 2-3c6-12 8-24 5-37-1-5-2-9-5-13-4-7-9-12-15-16l-11-8-12-11c-3-2-5-5-5-9-2-17 11-23 21-19l18 5c8 2 14 5 19 11l7 10c5 7 7 15 8 24l-2 15-2 17c-1 7-4 13-8 19-4 5-9 10-14 13l-5 3-1-1"/>
    <path fill="#FFF" d="M369.4 328.3c2 5 6 9 10 12 4 4 6 9 6 14v2l-2-2v-2l-7-11-5-5-2-5-1-3h1m-59 28c-1-6 0-11 5-15l2-2 9-11v2c0 3-1 5-3 6l-5 5c-3 3-5 7-6 11l-1 4h-1m3 11h9l2 3-1 3-3-1h-1c0-3-2-4-6-5m68 0-2 1c-2 0-3 1-3 3l-1 1-3 1-2-3 3-3c2-2 5-1 8 0m71 107 1-2 8-5 5-1 2 3c0 2-1 2-2 3l-2 1-10 1h-2m-209-1-3 1-9-1-2-1c-1 0-2-1-2-3 0-1 1-3 3-3h2l11 7m60.3 103.4c0 .4-.3 6.8-.2 13.3-6.8.5-5.7-13.3-5.3-15 .2-1.4-4.4 1.7-6.6 3.8.7 1.3 1.7 1 2.9.5-.4 6.2 3.9 11.8 9 11.7.2 6.4.9 12.5 2.7 13 .2.1.4-6.5.6-13.7 12.2-3.8 7.6-18.3 7.6-18.3-.2-.8-2 .3-6 4 1.6 1.6 2.4.6 3.6.2 1 2 1.4 10.5-5.1 13.1l.3-18c0-.2-.2-.3-.4-.3-1.8.2-5 3.4-7.5 6.1 1.4 2.2 3 .2 4.4-.4m5.9 19.1 2.8 2.8 2.8-2.8-2.8-2.8-2.8 2.8Z"/>
  </g>
</symbol></svg>
