<svg xmlns='http://www.w3.org/2000/svg' viewBox='0 0 696 830' fill='none'><symbol id='PLAC_Fill'>
  <g fill="none">
    <path fill="#FDBE00" d="m590.6 428.4-1 32-3 25-3 25c-2 23-8 45-18 66a304 304 0 0 1-82 107 159.3 159.3 0 0 1-83 38l-30 5-15 1-9 1-24-3-32-5a169.6 169.6 0 0 1-83-41l-29-29a285.4 285.4 0 0 1-65-132l-5-41c-4-31.2-4.4-62.7-1-94a442 442 0 0 1 20-93l18-46a478 478 0 0 1 49-76c14-16 30-29 49-40 10-5 20-10 31-13l27-9c12-4 25-5 37-4h19c13-1 27 0 40 5l41 14a185 185 0 0 1 62 46c13 15 24 30 34 46 7 11 13 22 17 34l16 40a309.2 309.2 0 0 1 20 92c2 16 3 32 3 49"/>
    <path fill="#FFF" d="M125.6 435.4v12c1.8 25.6 5.5 51 11 76 10 39 28 73 55 103a466.3 466.3 0 0 0 39 38c18 15 38 26 61 31 9 3 19 4 28 6 12.4 2.9 25.3 3.9 38 3l14-1 25-6c29.8-5.7 57.2-20 79-41l19-19a239.5 239.5 0 0 0 64-109l8-34c4.7-22 6.1-44.6 4-67l-4-46a369.9 369.9 0 0 0-18-77l-18-48c-5-12-10-23-17-34l-29-39c-6-8-13-16-22-22a94.7 94.7 0 0 0-32-18l-33-10c-10-3-20-5-31-6h-10l-14-1-9 1-19 3-32 8-25 8-22 13c-9 7-17 15-23 23l-28 38c-8 12-14 25-19 38-7.5 20.4-15.2 40.7-23 61-9 27.5-14 56-15 85l-2 31m451-13c1 11 0 23-1 34l-2 25-2 18a220.6 220.6 0 0 1-60 134l-34 34a153.6 153.6 0 0 1-86 37l-22 4-13 1-4 1h-7l-27-3-26-5a158.4 158.4 0 0 1-75-37c-14-13-28-26-39-41-18-22-32-46-42-72-4-12-8-25-9-38l-5-41c-3.6-24.8-4.2-50-2-75a452 452 0 0 1 17-93l12-33 9-22 14-26c10-15 20-29 32-43 13-16 30-28 48-38 12-6 24-10 37-15 7-2 14-5 22-6 9-2 18-3 27-2h20c10-1 21 0 32 3 17 5 34 11 50 19 22.1 10.6 41.6 26 57 45 16 20.7 30 42.8 42 66l18 48c8.8 23.4 14.2 48 16 73l3 48"/>
    <path fill="#FFF" d="m310.6 435.4-1-1c-3-1-4-4-5-7 0-3-2-5-4-7l-1-1v1l5 15c.7 2.7 2 3 4 1l2-1m80 3h1l2-6 4-12-1-1-5 8c0 3-2 5-4 7v2l2 2h1m19-19v2l5 17 1 1 4-4v-1c-3-2-5-5-6-9l-2-5-2-1m-122 1-1-1-1 1-2 5c-1 4-3 7-6 9v1l3 4 1-1 6-17v-1m62 128h1v7c0 3 0 3 2 3s2 0 3-2v-13c0-4-1-5-5-5l-1 2v8m-3 0v-8l-1-2h-1c-2 1-3 1-3 3v15l2 1h1l2-1v-8m62-109h2l1-2-4-13c-1-5 0-4-6-5l-2 2-5 16c-1 2 0 3 3 2h2l7-1 2 1m-115-20-3 1-1 1v1l-4 14c-1 3 0 3 3 3l2-1 7 1h4l1-1-1-1-4-16c-1-2-2-2-4-2m13 96 2 17v1l1 1 8-1 1-1-2-3c-2-3-3-7-2-10v-8l-3-21v-3l-2-3h-2l-1 2 1 2v15l-1 12m84-30-1-1h-2l-2 3-1 4-2 18v11c0 3 0 6-2 8l-2 4v1h10l1-13v-31l1-4m-36 2c-1-2-2-5-5-7h-3c-2 3-4 6-3 10v23l1 6c0 2 0 5-2 7-1 3-3 6-6 7l-2 1v1l5-1c6-2 12-2 18 0l4 1h1v-1h-1c-3-1-5-4-7-6-2-3-3-7-2-10l1-3v-26l1-2m-26 70h7c3 0 3 0 3-2v-12l1-3-1-2h-9l-11 1-8-1-2 1v18l1 1h2l17-1m34-19h-4c-1 0-2 1-1 2v1c1 3 2 7 1 11v6h1l2 1 18 2 8 1 1-1v-9l-1-13-1-1-8 1-12-1h-4m43-279-1 1-17 19-5 6c-3 2-6 4-10 4h-3c-4 0-7 2-9 3v1l1 1c6 3 10 7 14 12l10 9c2 1 2 1 2-1l7-17 5-17 6-19 1-1-1-1m-12 136h35l1-1-2-2-5-5c-2-3-5-4-8-4h-12c-7-1-14 0-21 1h-67c-6-1-13-2-20-1h-14l-5 2-7 7v3h14l5-1c16.3-.2 32.7-.2 49 0l10 1h4l10-1 9 1 12 1 12-1m-109 157v9l1 1 6-1 11-2c2 0 2 0 2-2v-31c1-7 1-14-1-20l-1-11 1-18v-10a78 78 0 0 1-1-21c0-4 1-4-3-4l-2 1h-14l1 3-1 20v9c1 4 2 9 1 13l-1 12c-1 7-1 13 1 19 2 5 2 10 1 14-1 7-2 13-1 18m128-101v-6c0-1 0-2-1-1h-14c-4-1-4-1-4 3l1 4-1 15-1 7 1 15c0 7 1 13-1 19l-1 15 1 8v17l-1 15 1 1 6 1 14-1v-13l-1-13c-1-6-1-12 1-18 1-4 2-8 1-13l-1-8v-47m-41 151c-8 0-17 1-25 4l-16 5c-15 4-29 8-44 9h-1l1 1a169 169 0 0 0 35 17l15 4 9 1 15-1c12-4 25-8 36-15 10.7-6.2 21-12.8 31-20h-2l-30-2-24-3m53 1h7l7-2 27-26 7-8 2-3v-1h-1l-2 1a182.6 182.6 0 0 1-55 7c-22-1.1-44-2.8-66-5-18 0-35 2-52 5-12 2-23 5-35 6-9.9 1.6-20 1.9-30 1h-1v1l9 9c9 8 18 16 29 23 1 1 3 2 5 1h14l30-6c10-3 21-6 31-7 9-1 17-2 25-1l26 3 23 2m3-180v-22l-1-1-10 1h-17l-19-2-8 1c-3 1-6 2-9 1h-26c-5 1-9 0-14-1l-4-1-17 1c-7.6 1.6-15.3 2-23 1l-9-1c-2 0-2 0-2 2v10l1 15c.3 11.7-.7 23.5-3 35l1 14c2 11 2 23 0 34v21l1 24v9l1 2 8-2c5 0 4-1 4-4l-2-24a42.1 42.1 0 0 1 1-19v-47a84 84 0 0 1-1-24l-1-5-4-4c-1 0-2-1-1-3 1-3 2-7 4-9l5-5 5-2 12-1c2 0 4 1 5 3l6 6 3 4c1 2 1 5-1 8l-4 4-2 3 1 5c1 6 0 12-1 18v11c0 3 0 3 2 3 3 1 6 2 7 5l4 6v25l4 11 5 4c5 0 7-1 8-6 0-2 0-5 2-8v-8l-1-10c-2-3-2-7 0-10l4-12c1-2 4-4 6-4 4 0 6 1 7 4l1 2c0 3 1 5 3 7 2 4 2 9 1 13l-2 11v3l1 4 2 7 1 4 1 2h7c2-1 3-2 3-4l3-8c3-6 3-12 2-17-2-5-1-9 1-14 3-4 5-7 10-7 2 0 2 0 2-2l-1-14-1-11 1-9c0-2 0-3-2-5l-4-3c-2-3-2-5 0-8 0-2 2-3 3-4l6-6c1-2 3-3 5-3 5.3.9 10.7 1.9 16 3l4 4c3 2 5 6 6 9l-1 5-4 4c-2 1-2 2-2 4 .7 7.3.3 14.7-1 22v13c1 5 2 10 1 14a87.3 87.3 0 0 0 0 25l1 10-1 9-1 18v7l1 2h10l2-2v-1c-1-11-1-21 1-32 1-6 1-13-1-19-2-13-2-26 1-38v-18c-2-11-2-21-2-33m58-114-1-1-5-10c-9.5-16.4-19.2-32.8-29-49l-10-11a2093.5 2093.5 0 0 0-50-34l-21-9-13-5c-6-2-12-2-19 1l-11 3a283.4 283.4 0 0 0-42 20 753 753 0 0 0-26 18c-10 10-18 20-25 31l-14 25-16 32-1 4c2 0 2-1 3-2l4-3 11-11 2-2c1-2 3-2 5-1l4 3 5 6h1l9-6c14-9.1 27-19.5 39-31l9-4 9-4 11-8 6-5c2-2 2-1 4 0l4 3 7 9 8 10 6 8 6 6h3l3-3 10-5 12-7c8.3-6 16-12.6 23-20h6l3 2 16 13c13 10 26 19 38 30l6 4 9 4 1-1m-305 122c0 14 1 27 3 41 1 12 4 23 8 35 6 17 14 33 23 49l6 9 3 2h34c4 0 4 0 4-4v-19l2-16-1-12a121.6 121.6 0 0 1 0-45v-15c-1-10-2-19-1-29v-24c0-4 0-4-3-4l-3-1 1-2 1-1 16-13c2-2 4-3 7-3 6-1 12 0 17 1 6 1 12 2 17 1l17-2c15.3 1.4 30.7 1.7 46 1l9 1 12-1c6-1 12-2 18-1 3 0 5 1 7 3l16 13 1 2-1 2h-3l-1 1v33l-1 19v19l1 10c1 10 1 20-1 29-2 8-2 16 0 25l1 15v13c0 2 0 2 2 2h1c14-2 27-6 40-10 2-1 3-1 3-3l1-1c9-15 15-31 21-47s8-33 9-50c1.5-25.1.2-50.2-4-75l-8-29-7-21c0-2-2-4-4-6l-10-5c-5-3-9-7-12-12l-4-6c-4-6-10-10-17-12l-6-1v1l6 15c2 6 5 12 9 17l17 21 5 4 16 11h1v1h-1l-2-1-24-16-8-6-1-1v18c0 3 0 6 2 9l1 2v1h-1l-4-8-2-10v-9l-1-5-2-6c-5-6-9-13-11-21l-2-9c-3-7-4-9-10-14l-5-4c-4-3-7-7-9-11l-4-6c-1-1-1-1-2 1-2 2-3 5-3 8l-2 13c0 6-1 11-5 16l-1 3c-2 2-2 4-3 7l-1 5-1 7a39.2 39.2 0 0 1-13 19l-1-1 2-4 5-11c1-1 1-2-1-3l-12-13-8-5-7-1c-7-2-12-5-15-10l-4-6-4-7-6-13-5-7h-2l-1 4-2 11c-2 8-5 16-10 23l-4 5a44.3 44.3 0 0 0-8 21c-1 5-4 10-7 14l-1 1v-1l1-3 3-10c1-7 2-14 6-20v-1h-1l-4 4c-6 5-11 12-15 18-3 5-7 10-12 14l-7 7-7 9-2 2h-1v-1c3-7 7-13 13-18l3-3 11-14 13-14 7-8c5-5 8-11 11-17l8-16v-1h-1l-2 2-8 6-10 5c-3 0-6 1-8 3l-6 7-7 9c-7 9-16 17-26 23l-9 6c-7 6-15 11-21 19v1l-1-1c1-4 2-7 5-10l7-10 5-6v-1l-7-8-1-1h-2l-3 2-6 7c-4 4-6 7-7 12l-6 13-7 12c-3 6-6 12-7 19-5 18.9-7.3 38.4-7 58m341-9c-.2 36.4-7.3 72.3-21 106l-10 19c-5 13-13 25-22 36l-14 16-20 17c-11 7-23 14-36 20s-26 10-40 13h-20a132 132 0 0 1-47-15l-28-16c-11-7-22-16-31-26l-10-13c-7-9-13-18-18-28l-17-39c-9-24-13.8-49.4-14-75-.7-19.7.3-39.5 3-59l7-30 6-20c11-29 26-55 46-78l16-19 8-9 20-16 16-10a190 190 0 0 1 50-14h4c12 1 24 4 35 8l9 4c9 4 18 9 26 15a375 375 0 0 1 21 19l24 29c18 22 31 47 41 74l8 30 5 21 3 32v8"/>
    <path fill="#FDBE00" d="M180.6 430.4c.4-19.5 2.8-39 7-58l7-19 7-12 6-13c1-5 4-8 7-12l7-7 2-2h2l1 1 7 8v1l-5 6-7 9c-2 4-5 11-4 12v-1c6-8 14-13 21-19l9-6c10-6 19-14 26-23l7-9 6-7c2-2 5-3 8-3l10-5 8-6 3-2v1l-8 16c-3 6-6 12-11 17a564.8 564.8 0 0 1-19 22l-12 14-3 3c-6 5-9 11-13 18-1 2 1 1 1 1l2-2 7-9 7-7c5-4 9-9 12-14 4-6 9-13 15-18l4-4c1-1 1 0 1 1-4 6-5 13-6 20a53 53 0 0 1-4 13c0 2 1 1 1 0 3-4 6-9 7-14l1-7c1-5 4-10 7-14l4-5c5-7 8-15 10-23l2-11 1-4h2l5 7 6 13 4 7 4 6c3 5 8 8 15 10l7 1 8 5 12 13c2 1 2 2 1 3l-5 11-1 4v1l1-1c6-5 10-11 12-18l1-7 1-5c1-3 1-5 3-7l2-3c3-5 4-10 5-16l1-13c0-3 2-6 3-8s1-2 2-1l4 6c3.5 6 8.3 11 14 15 6 5 7 7 10 14l2 9c2 8 6 15 11 21l3 6v14c0 3 1 7 3 10 1 3 3 9 4 8l-1-3c-2-3-2-6-2-9v-17h2l7 6 24 16h2l-15-11-6-4-17-21c-4-5-6-11-9-17l-5-15v-1h1l4 1c7 2 13 6 17 12l4 6c3 5 7 9 12 12l10 5 5 6 6 21 8 29c4.6 25 6.3 50.6 5 76-2 16-4 33-10 49-5 16-12 32-21 47l-1 1c0 2-1 2-2 3-14 4-27 8-41 10h-1c-2 0-2 0-2-2v-13l-1-15c-2-9-2-17 0-25 2-9 2-19 1-29l-1-10v-19l1-19v-33l2-1h2l1-2-1-2-16-13c-2-2-4-3-7-3-6-1-12 0-18 1l-12 1-8-1-14-1h-33l-16 2c-6 1-12 0-17-1-6-1-12-2-18-1-3 0-5 1-7 3l-16 13-1 1-1 2 3 1c4 0 4 0 3 4v24c-1 10 0 19 1 29v15c-1.8 15-1.4 30 1 45v12l-2 16v19c0 4 0 4-4 4h-33c-2 0-3-1-4-3l-6-8c-9-16-17-32-23-49a300.8 300.8 0 0 1-11-76"/>
    <path fill="#FDBE00" d="m373.6 250.4-2-1-1 2 1 1 2-2m67-8-3-2c-2 0-3 1-3 2 0 2 2 3 3 3s3-1 3-3m-78-5c-2 0-3 1-3 2-1 2 1 3 2 4 2 0 3-2 3-3 0-2-1-3-2-3m37-11c0-1-1-2-3-2l-3 2c0 2 2 4 4 4 1-1 3-2 2-4m-63-23c0-1-1-3-3-3s-3 2-3 3c0 2 2 3 4 3 1 0 2-1 2-3m-54 37c-1 0-2 1-2 3-1 1 0 3 2 4l4-2c1-2-1-5-4-5m203 68c-1 1-7-2-10-3l-6-4c-12-11-25-20-38-30l-16-13-3-2c-2-1-4-1-6 1l-4 3c-5 6-12 11-19 16l-12 7-10 5-3 3h-3l-6-6-6-8-8-10c-3.5-4.2-7.2-8.2-11-12h-4l-6 5-11 8c-3 2-6 4-9 4l-9 4-5 5c-10 9-22 18-34 26l-8 6h-2l-5-6-4-3c-2-1-4-1-5 1l-2 2-11 11-4 3-3 2 1-4 16-32 14-25a142.2 142.2 0 0 1 33-37l18-12c6-4 12-8 18-10l24-10 11-3c7-3 13-3 19 0l13 4a298.5 298.5 0 0 1 41 19c10.4 7.9 20.7 15.9 31 24l9 11 8 10 21 39 5 10 1 1m-58 114c0 12 0 22 2 33v18c-3 12-3 25 0 38v19c-2 11-2 21-1 32v1l-2 2h-10l-1-2v-7l1-17 1-10-1-10-1-8 1-17v-14l-1-13c1.1-7.3 1.5-14.7 1-22 0-2 0-3 2-4l4-4 1-5c-1-3-3-7-6-9l-4-4-5-2h-11c-2-1-4 0-5 2l-6 6c-1 1-3 2-3 4-2 3-2 5 0 8l4 3c2 2 2 3 2 5l-1 9 1 11 1 14c0 2 0 2-2 2-4 0-7 3-9 7-3 5-4 9-2 14 1 5 1 11-2 17l-3 8c0 2-1 3-3 4h-6l-2-2-1-4-2-7-1-4v-3l2-11c2-4 1-9-1-13-2-2-3-4-3-7l-1-2c-1-3-3-4-6-4s-6 2-7 4l-4 12c-2 3-2 7 0 10l1 10v8c-2 3-2 6-2 8-1 5-3 6-8 6l-5-4-4-11v-25l-4-6c-1-3-4-4-7-5-2 0-2 0-2-3v-11c1-6 2-12 1-18v-5c-1-1 0-2 1-3l4-4c2-3 2-6 1-8l-3-4-6-6c-1-2-3-3-5-3-5.7.9-11.4 1.9-17 3l-5 5c-2 2-3 6-4 9-1 2 0 3 1 3l4 4c1 2 2 3 1 5v9l1 15v28c.6 6.7.6 13.3 0 20-2 6-2 12-1 18l2 24c0 3 1 4-4 4l-8 2-1-2v-9l-1-24v-21c2-11 2-23 0-34l-1-14 1-8c2-9 2-18 2-27l-1-15v-10c0-2 0-2 2-2l9 1c8 1 16.1.8 24-1l16-1 4 1c5 1 9 2 14 1h26c3 1 6 0 9-1l8-1 19 2h18l9-1 1 1v22"/>
    <path fill="#FDBE00" d="m424.6 602.4-23-2-26-3c-8-1-16 0-25 1-10 1-21 4-31 7l-30 6h-14c-2 1-4 0-5-1a204 204 0 0 1-38-32c-1-1 0-1 1-1h4c9 1 18 0 26-1 12-1 23-4 35-6 27.6-6 56-7 84-3l34 3c19.3.3 38.5-2.4 57-8 0 0 2 0 1 1l-2 3-7 8-27 26-7 2h-7"/>
    <path fill="#FDBE00" d="m371.6 601.4 24 3 30 2h3v1l-2 1c-10 7-19 13-30 18-11 7-24 11-36 15a54 54 0 0 1-24 0l-15-4c-12.4-4-24.2-9.8-35-17v-1c15-1 29-5 44-9l16-5c8-3 17-4 25-4m28-44c2 1 4 2 5 0 3-2 3-6 1-8h-5l-1 8m6-29c-1-2-4-2-5 0-2 2-2 5-1 7l3 2 4-2c1-3 1-5-1-7m-6-21 1 4h4c3-2 3-6 1-8-1-2-3-2-5-1l-1 5m0-49 1 2c1 3 4 3 6 1s2-6 0-8h-5l-2 5m0 24v2c0 2 2 3 3 3l4-2c2-3 1-5 0-7-2-3-4-3-6-1l-1 5m13-32v47l1 8c1 5 0 9-1 13-2 6-2 12-1 18l1 13v13c0 2 0 2-2 2l-12-1-6-1-1-1 1-15v-17l-1-8 1-15c2-6 1-12 1-19l-1-15 1-7 1-15-1-4c0-4 0-4 4-3h14c1-1 1 0 1 1v6m-115 103-1-4c-2-1-4-1-6 1v4c0 2 2 4 4 4s3-2 3-5m-8-21 1 3c2 2 5 2 6 0 2-2 1-5 0-7-2-2-4-2-5 0l-2 4m8-25-2-5c-1-1-3-1-5 1s-1 6 1 8h5l1-4m0-50-3-4h-4c-2 1-2 3-2 6 0 2 3 4 5 4s4-3 4-6m0 25-2-5c-1-2-4-2-5 1-2 2-2 4-1 6s3 3 5 3c1 0 3-2 3-4v-1m-13 69c-1-5 0-11 1-18 1-4 1-9-1-14-2-6-2-12-1-19l1-12c1-4 0-9-1-13v-9l1-20-1-3h14l2-1c4 0 3 0 3 4-.3 7 .1 14 1 21v10l-1 18 1 11c2 6 2 13 1 20v31c0 2 0 2-2 2l-11 2-6 1-1-1v-10m97-156h-12l-9-1-10 1h-4l-10-1-9 1-12 1-28-2-5 1h-11l-3-1v-2l7-7 5-2h14c7-1 14 0 20 1h67c7-1 14-2 21-1h12c3 0 6 1 8 4l5 4c3 3 2 4 1 4h-47m25-135-1 1-6 18-5 18-7 17c0 2 0 2-2 1l-10-9c-4-5-8-9-14-12 0 0-2-1-1-2 0 0 5-3 9-3h3c4 0 7-2 10-4l5-6 17-19h2m-44 278h4l12 1 8-1 1 1 1 13v9l-1 1-8-1-18-2-2-1h-1v-6c1-4 0-8-1-12-1-1 0-2 1-2h4m-51 20h-2l-1-1v-18l2-1 8 1 11-1h9l1 2-1 3v12c0 2 0 2-3 2h-7l-17 1m42-69v26l-1 3c-1 3 0 7 2 10 2 2 4 5 7 6h1l-1 1-4-1c-6-2-12-2-18 0l-5 1v-1l2-1c3-1 5-4 6-7 2-2 2-5 2-7l-1-6v-23c-1-4 1-7 3-10h3c3 3 4 7 4 9m36 0v31l-1 13-1 1-9-2 2-4c2-2 2-5 2-8v-11l2-18c0-2 1-6 3-7h2v5m-83 26 1-12v-15l-1-2 1-2h2l2 3v3l3 21v8c-1 3 0 7 2 10l2 3-1 1-8 1-1-1-2-18m-13-96c2 0 3 0 4 2l4 16 1 1-1 1h-4l-8-1-1 1c-3 0-4 0-3-3l4-14v-1l1-1 3-1m115 20-2-1-7 1h-2c-3 1-4 0-3-2l5-16 2-2c6 1 5 0 6 5l4 13-1 2h-2m-62 109v8l-2 1h-1l-2-1v-15c0-2 1-2 3-3h1l1 2v8m3-8 1-2c4 0 5 1 5 5v13c-1 2-1 2-3 2s-2 0-2-3v-7l-1-8m-62-119-6 17-1 1-3-3v-2c3-2 5-5 6-9l2-5c0-1 2-1 2 1m122-2 2 1 2 5c1 4 3 7 6 9v1l-4 4-1-1-5-17v-2m-20 19-2-2v-2c2-2 4-4 4-7l5-8 1 1-4 12-4 6m-79-3-2 1c-2 2-3.3 1.7-4-1l-5-15h1c1 0 4 4 4 7 1 3 2 6 5 7l1 1"/>
    <path fill="#FFF" d="M282.6 240.4c3 0 5 3 4 5l-4 2c-2-1-3-3-2-4 0-2 1-3 2-3m54-37c0 2-1 3-2 3-2 0-4-1-4-3 0-1 1-3 3-3s3 2 3 3m63 23c1 2-1 3-2 4-2 0-4-2-4-4l3-2c2 0 3 1 3 2m-37 11c1 0 2 1 2 3 0 1-1 3-3 3-1-1-3-2-2-4 0-1 1-2 3-2m78 5c0 2-2 3-3 3s-3-1-3-3c0-1 1-2 3-2l3 2m-67 8-2 2-1-1 1-2 2 1m26 232 1-5c2-2 5-2 6 1 1 2 2 4 0 7l-4 2c-1 0-3-1-3-3v-2m0-24 2-5h5c2 2 2 6 0 8s-5 2-6-1l-1-2m0 49 1-5c2-1 4-1 5 1 2 2 2 6-1 8h-4l-1-4m7 28-4 2-3-2c-1-2-1-5 1-7 1-2 4-2 5 0l1 7m-6 14c1-2 3-1 5 0 2 2 2 6-1 8-1 2-3 2-5 0-1-2-1-6 1-8m-103-67v1c0 2-2 4-3 4-2 0-4-1-5-3s-1-4 1-6c1-3 4-3 5-1l2 5m0-25c0 3-2 6-4 6s-4-2-5-4c0-3 0-5 2-6h4l3 4m0 50-1 4h-5c-2-2-3-6-1-8s4-2 5-1c2 1 2 3 2 5m-7 21c2-2 4-2 6 0 1 2 2 5 0 7-1 2-4 3-6 0-1-2-2-5 0-7m7 25c0 3-1 5-3 5s-4-2-4-4v-4c2-2 4-2 6-1l1 4m172.7-29.5 2.8 2.8 2.8-2.8-2.8-2.8-2.8 2.8Zm-5.9-19.1c0 .4-.3 6.8-.2 13.3-6.8.5-5.7-13.3-5.3-15 .2-1.4-4.4 1.7-6.6 3.8.7 1.3 1.7 1 3 .5-.6 6.2 3.8 11.8 9 11.7.1 6.4.8 12.5 2.6 13 .2 0 .5-6.5.6-13.7 12.2-3.8 7.5-18.3 7.5-18.3-.2-.8-2 .3-6 3.9 1.6 1.7 2.3.7 3.6.3 1 1.9 1.4 10.5-5 13l.2-18-.4-.2c-1.8.2-5 3.4-7.5 6 1.4 2.3 3.1.3 4.5-.3"/>
  </g>
</symbol></svg>
