<svg xmlns="http://www.w3.org/2000/svg" viewBox="0 0 30 30" fill="none">
<symbol id="PlaneDefault">
<path d="M26.8888 11.9723C26.6787 11.453 26.2385 11.0835 25.6983 10.9437L22.3168 10.0649C21.4564 9.84523 20.536 9.82526 19.6756 10.005L16.6243 10.6242L13.543 7.2089C12.9827 6.58976 12.1524 6.29017 11.322 6.42998L9.93139 6.64967C9.56123 6.70959 9.2511 6.94926 9.09103 7.2788C8.93096 7.60834 8.95097 8.00779 9.14105 8.33733L11.1419 11.7326L7.80047 12.4117L6.42987 11.3132C5.94966 10.9337 5.30938 10.7839 4.72913 10.9237L4.04883 11.0835C3.62865 11.1834 3.2785 11.473 3.10842 11.8724C2.93835 12.2719 2.96836 12.7312 3.19846 13.1007L4.69912 15.5873C5.65953 17.175 7.38028 18.1237 9.19107 18.1237C9.54122 18.1237 9.89138 18.0838 10.2315 18.0139L11.8022 17.6943L10.8818 21.9185C10.7918 22.3379 10.9018 22.7872 11.1919 23.1168C11.4521 23.4164 11.8422 23.5961 12.2424 23.5961C12.2724 23.5961 12.3024 23.5961 12.3324 23.5961L13.8231 23.4963H13.9331C15.0136 23.2865 15.864 22.5076 16.1641 21.4491L17.5647 16.516L24.6278 15.078C25.5282 14.8982 26.2985 14.339 26.7587 13.5501C27.0388 13.0707 27.0789 12.5015 26.8588 11.9823L26.8888 11.9723ZM11.5221 8.41722L11.6521 8.39724C11.8022 8.37727 11.9523 8.4272 12.0623 8.53705L14.3533 11.0835L13.2228 11.3132L11.5121 8.41722H11.5221ZM14.2633 20.8999C14.1832 21.1994 13.9331 21.4291 13.633 21.499L13.0227 21.539L14.1532 16.3063L15.6439 16.0067L14.2533 20.8999H14.2633ZM24.2476 13.1207L17.8749 14.4189C17.8248 14.319 17.7648 14.2192 17.6848 14.1293C17.4047 13.8297 17.0045 13.6999 16.5943 13.7798L13.613 14.3889C12.9927 14.5187 12.5125 14.9681 12.3124 15.5573L9.84135 16.0666C8.49077 16.3362 7.12017 15.737 6.41986 14.5687L5.59951 13.2006L6.81003 14.1792C7.12017 14.4289 7.52034 14.5187 7.91051 14.4488L20.0958 11.9823C20.6661 11.8624 21.2563 11.8724 21.8166 12.0222L24.8579 12.8111C24.6878 12.9809 24.4777 13.0907 24.2476 13.1407V13.1207Z" fill="currentColor"/>
</symbol>
</svg>
