<svg xmlns="http://www.w3.org/2000/svg" viewBox="0 0 30 30" fill="none">
<symbol id="PlaneOutbound">
<path fill-rule="evenodd" clip-rule="evenodd" d="M5.06881 13.4664C7.54103 15.966 8.1195 16.0926 8.21103 16.0926C8.58539 16.0501 11.7697 14.8579 24.734 9.42696C24.8347 9.27263 25.0452 8.70647 24.9839 8.35273C24.9756 8.30764 24.9555 8.22788 24.9116 8.201C24.4878 7.9513 23.6393 7.88367 23.4535 7.91489L23.4517 7.91575C23.4498 7.91575 23.448 7.91575 23.4471 7.91662L23.4407 7.91922L23.4507 7.91662L18.0972 10.0131C17.969 10.0555 17.8107 10.1058 17.6294 10.0451L12.1395 8.79664L11.2956 9.19633L14.5431 10.6234C14.7929 10.7214 14.9696 10.9702 14.9696 11.2364C14.9696 11.4957 14.836 11.7219 14.6026 11.8581L9.48787 14.3828C9.18399 14.5293 8.82886 14.5554 8.51308 14.4522L5.10359 13.3112C5.0441 13.3294 5.02396 13.3554 5.01481 13.3953L5.06881 13.4664ZM22.6297 6.17479C23.4773 5.7959 25.1303 6.07942 25.9779 6.58142C26.6845 6.99932 27.0543 7.80044 26.9939 8.77757C26.928 9.83966 26.3715 10.8072 25.642 11.1324C12.9303 16.461 9.02198 18 8.21103 18C7.00833 18 5.78091 16.9752 3.64735 14.8198C3.14119 14.3811 2.90138 13.6892 3.03776 13.0277C3.15675 12.4511 3.52653 11.956 4.05374 11.6673C4.51139 11.402 5.05966 11.3327 5.62897 11.4696L5.76352 11.5087L8.8554 12.543L11.3395 11.3188L10.1359 10.789C9.74141 10.6321 9.41282 10.3408 9.22243 9.97231C9.04853 9.63591 9.03297 9.34459 9.04029 9.20154C9.03937 8.6163 9.33135 8.09869 9.86131 7.75796L10.0389 7.65825L11.2333 7.09122C11.6745 6.83632 12.2301 6.79037 12.7363 6.97157L17.7054 8.10043L22.6297 6.17479ZM4 22C3.44772 22 3 22.4477 3 23C3 23.5523 3.44772 24 4 24H26C26.5523 24 27 23.5523 27 23C27 22.4477 26.5523 22 26 22H4Z" fill="currentColor"/>
</symbol>
</svg>
