<svg xmlns="http://www.w3.org/2000/svg" viewBox="0 0 30 30" fill="none">
<symbol id="PlusFilled">
<path fill-rule="evenodd" clip-rule="evenodd" d="M3 14.9995C3 8.38351 8.383 2.99951 15 2.99951C21.617 2.99951 27 8.38351 27 14.9995C27 21.6165 21.617 26.9995 15 26.9995C8.383 26.9995 3 21.6165 3 14.9995ZM15.988 14.0126L21.012 14.0116C21.556 14.0116 21.999 14.4546 22 14.9976C21.999 15.2636 21.897 15.5126 21.711 15.6986C21.525 15.8846 21.277 15.9866 21.012 15.9876H15.988L15.987 21.0136C15.988 21.2766 15.885 21.5246 15.699 21.7116C15.512 21.8976 15.264 21.9996 15 21.9996C14.456 21.9986 14.012 21.5556 14.012 21.0126V15.9876H8.988C8.723 15.9876 8.476 15.8846 8.289 15.6976C8.103 15.5116 8 15.2636 8 14.9986C8 14.7366 8.103 14.4886 8.289 14.3016C8.476 14.1156 8.723 14.0126 8.985 14.0126H14.012V8.98763C14.012 8.44363 14.455 8.00063 14.999 7.99963C15.264 7.99963 15.512 8.10263 15.698 8.28963C15.884 8.47563 15.987 8.72263 15.987 8.98663L15.988 14.0126Z" fill="currentColor"/>
</symbol>
</svg>
