<svg xmlns='http://www.w3.org/2000/svg' viewBox='0 0 30 30' fill='none'>
<symbol id='PMR'>
<path d="M24.2115 24.2099L22.6231 17.5799C22.3334 16.4399 21.3244 15.6499 20.1656 15.6499H17.5382L18.6171 12.5599C19.0367 11.3399 18.5272 9.97986 17.4183 9.34986C17.8479 9.31986 18.2675 9.21986 18.6571 9.01986C19.4163 8.62986 19.9758 7.96986 20.2355 7.15986C20.775 5.48986 19.8559 3.68986 18.1876 3.14986C17.3784 2.88986 16.5092 2.95986 15.76 3.34986C15.0007 3.73986 14.4413 4.39986 14.1816 5.20986C13.9218 6.01986 13.9918 6.87986 14.3714 7.63986C14.4413 7.77986 14.5312 7.89986 14.6111 8.01986C13.5222 7.79986 12.4133 8.17986 11.6841 9.04986L9.31643 11.8999C8.48726 12.6699 8.13761 13.8399 8.38736 14.9799L8.53721 15.5799C6.85889 16.6999 5.75 18.5999 5.75 20.7699C5.75 24.1999 8.53721 26.9999 11.9738 26.9999C15.4103 26.9999 18.0477 24.3399 18.1776 21.0299L18.3274 20.9799L20.0257 25.6999C20.3854 26.4899 21.1746 26.9899 22.0337 26.9899C22.713 26.9899 23.3524 26.6799 23.772 26.1299C24.2015 25.5799 24.3514 24.8699 24.1816 24.1999L24.2115 24.2099ZM16.0897 5.81986C16.1896 5.51986 16.3993 5.26986 16.6791 5.12986C16.8489 5.03986 17.0287 4.99986 17.2185 4.99986C17.3384 4.99986 17.4683 5.01986 17.5882 5.05986C17.8879 5.15986 18.1376 5.36986 18.2775 5.64986C18.4173 5.92986 18.4473 6.24986 18.3474 6.55986C18.2475 6.85986 18.0377 7.10986 17.758 7.24986C17.4783 7.38986 17.1586 7.41986 16.8489 7.31986C16.5492 7.21986 16.2994 7.00986 16.1596 6.72986C16.0197 6.44986 15.9898 6.12986 16.0897 5.81986ZM10.3554 14.5199C10.2555 14.0799 10.3954 13.6299 10.725 13.3399C10.765 13.3099 10.795 13.2699 10.8249 13.2299L13.2325 10.3299C13.4923 10.0199 13.8819 9.88986 14.2615 9.97986C14.791 10.1099 15.3404 9.77986 15.4703 9.23986C15.5002 9.10986 15.5102 8.96986 15.4903 8.84986C15.72 8.99986 15.9698 9.12986 16.2395 9.21986C16.3294 9.24986 16.4293 9.26986 16.5192 9.28986C16.3094 9.37986 16.1296 9.51986 16.0197 9.72986C15.76 10.2199 15.9398 10.8199 16.4293 11.0799C16.719 11.2299 16.8489 11.5899 16.739 11.8999L15.4503 15.5899C14.4613 14.9299 13.2725 14.5399 12.0037 14.5399C11.4543 14.5399 10.9248 14.6199 10.4253 14.7499L10.3654 14.5099L10.3554 14.5199ZM11.9938 24.9999C9.66608 24.9999 7.76798 23.0999 7.76798 20.7699C7.76798 19.5599 8.28746 18.4799 9.09665 17.7099L9.25649 18.3499C9.36638 18.7999 9.77597 19.0999 10.2255 19.0999C10.3054 19.0999 10.3954 19.0999 10.4753 19.0699C11.0147 18.9299 11.3344 18.3899 11.1946 17.8499L10.9048 16.6999C11.2545 16.6099 11.6141 16.5399 11.9938 16.5399C14.3214 16.5399 16.2195 18.4399 16.2195 20.7699C16.2195 23.0999 14.3214 24.9999 11.9938 24.9999ZM22.2235 24.9199C22.1636 24.9999 21.9038 24.9499 21.9038 24.9499L20.0957 19.9299C19.8159 19.1399 18.9668 18.7099 18.1676 18.9599L17.9578 19.0199C17.8179 18.5399 17.6181 18.0799 17.3684 17.6599H20.1656C20.4053 17.6599 20.6251 17.8299 20.6851 18.0699L22.2735 24.6999C22.3034 24.8099 22.2535 24.8899 22.2235 24.9299V24.9199Z" fill="currentcolor"/>
</symbol>
</svg>
