<svg xmlns='http://www.w3.org/2000/svg' viewBox='0 0 696 830' fill='none'><symbol id='PVAC_Fill'>
  <g fill="none">
    <path fill="#A7BFB9" d="M348.7 102h21c9 0 17 1 26 4l38 13c28 11.9 52.8 30.4 72 54l25 33c8 12 16 26 21 40l18 47c6 15 10 31 13 47l4 24 3 27 1 28v9l-1 25-2 21-1 17-6 43a312.5 312.5 0 0 1-108 159c-19 12-39 21-61 25l-26 5-16 3a151.5 151.5 0 0 1-52-2l-21-3a176.4 176.4 0 0 1-90-43 1135 1135 0 0 1-47-51c-10-16-20-32-28-49s-14-34-17-52l-3-19-2-17-2-19a273.2 273.2 0 0 1-2-55l1-24c.7-9.7 1.7-19.4 3-29l3-18c1-10 4-20 7-30 4-15 9-30 15-44l11-27c4-12 10-23 17-33 10-16 22-31 34-45a186.4 186.4 0 0 1 72-49l33-11c8-3 16-4 24-4h23"/>
    <path fill="#FFF" d="m125.7 446 1 22 3 21a946.4 946.4 0 0 0 18 66c13 30 30 58 54 81l19 19c23 22 51.8 36.9 83 43l29 5 18 1h11l9-1 32-7 33-12c15-8 29-18 42-30 11.6-11.4 23-23.1 34-35 34.4-42 54.7-93.8 58-148l1-11 1-25-2-19-1-17v-9c-2.5-15.7-5.2-31.4-8-47-3-14-7-28-13-42l-15-41c-6-15-13-28-21-41a664.3 664.3 0 0 0-41-52c-12.3-11.5-27-20-43-25-19.3-6.4-39-11.5-59-15l-18-1h-5l-14 1-20 3-27 7-22 7a133.4 133.4 0 0 0-49 36l-30 41c-7 12-14 25-19 38l-12 32-9 24a257 257 0 0 0-14 71l-1 13-1 13-2 18v16m-5-18v-19l1-19 1-11 3-24c3-17 7-34 13-51l9-25 11-27 14-28 31-42a156.5 156.5 0 0 1 60-44l26-9 20-7 17-2h12l7 1h6l23-1 20 4 34 12c25.5 10.5 48.1 27 66 48l26 35c8 11 14 23 19 36l16 42c6 16 11 32 14 48l3 23c2 9 2 19 3 28l1 36-1 23-2 19-2 17-6 42c-3 12-8 23-13 34a293.1 293.1 0 0 1-78 102l-26 17c-15 8-31 13-48 16l-30 5a142 142 0 0 1-46 0l-26-4a165.5 165.5 0 0 1-83-40 1149.9 1149.9 0 0 1-43-48c-11-14-20-30-28-47a189 189 0 0 1-18-61l-3-24-2-18-1-16v-21"/>
    <path fill="#FFF" d="m347.7 187-8 2c-10 3-20 6-30 11-8 3-16 6-23 11-11.5 8.5-22.8 17.1-34 26l-4 4c-6 7-11 14-15 22l-10 17a389.8 389.8 0 0 0-16 34l13-12 4-5c3-3 4-3 7 0l1 1 6 5c9 8 19 14 31 19h3l11-12c6-6 13-11 20-15l13-8a384.8 384.8 0 0 0 30-27l3 1 6 4c6 4 11 10 16 16l8 10 9 9c6 6 14 10 21 14h2l18-16c6-5 13-10 21-13h5l3 1 20 12h2l-1-3-7-12-11-19a144 144 0 0 0-35-40l-8-6c-11-8-22-14-35-19l-29-10-7-2m166 243a297 297 0 0 0-4-48c-6-23-13-45.7-21-68l-6-7-7-4c-6-2-11-6-16-11l-5-5c-2-2-3-2-4 0l-1 1c-5 7-11 11-18 16l-17 10c-3 2-2 2 1 4l3 1 8 3-1 1-10-4-16-6-5-1c-7-3-13-7-17-12l-9-11-8-13-10-11-4-3-2 1h-1l-17 17-11 11-4 6c-3 3-6 5-10 6l-13 8-15 12 1 1 2 2 11 6c5 2 10 5 14 9l1 1h-2l-2-1-9-7-24-9-10-2c-6-2-12-5-16-10-4-3-7-7-9-12l-2-3h-3l-8 9-12 16c-5 6-8 13-10 21l-7 24c-5.8 19.1-8.5 39-8 59v15c.7 22.8 4.7 45.4 12 67a406.6 406.6 0 0 0 29 56 208 208 0 0 0 38 37c16.6 12.3 34.4 23 53 32l28 8h2l17-1a152.2 152.2 0 0 0 54-25 260 260 0 0 0 54-44l10-14a257.7 257.7 0 0 0 19-36l5-14c5.2-12.8 8.6-26.3 10-40l2-22v-16m-340-10v-16a538 538 0 0 1 22-92c10.4-24.6 25-47.3 43-67 8.6-8.7 17-17.7 25-27l15-12a183 183 0 0 1 65-24h10a189.3 189.3 0 0 1 60 22c11 7.9 21 17 30 27l18 21a239 239 0 0 1 50 99 2975 2975 0 0 1 9 43c2.1 20 1.8 40.1-1 60-2.8 23-8.5 45.5-17 67l-14 29c-5 10-11 20-18 29l-13 15c-9 10-20 18-32 26l-24 13c-12 6-25 10-38 13-8 2-16 2-23 2l-7-2c-17-3-33-8-47-16l-22-13c-12-8-23-17-32-28a592.3 592.3 0 0 1-25-36l-17-36a210.6 210.6 0 0 1-16-70l-1-27"/>
    <path fill="#A7BFB9" d="m451.7 300-1-2h-2l-3 3-4 7-1 1h2c3 0 5-2 7-4l2-5m-30 97h-1l-2 3-1-1-1-2-5-1c-3 2-5 5-5 8v1l1-1 1-1h1l2 1h4c3-1 5-3 6-6v-1m-22-67 4-1v-1c-1-2-3-3-5-3-4 0-7-2-10-4l-5-2-2 3 2 2c2 2 4 2 6 2l5 2 5 2m-150 0h1l1-1-2-1-6-4c-4-1-6-3-8-6l-2-3-1-2c-1-1-3-2-4-1-1 0-2 2-1 4l2 3c1 2 3 2 5 3l6 4c3 3 6 4 9 4m93-46v-1l-1-1h-1l-4 4c-4 6-9 11-15 15a60.5 60.5 0 0 0-8 8l-1 2 1-1 3-3 10-6 7-5c3-2 6-5 8-9l1-3m8 254 13-2c12-3 21-10 27-22l3-7 6-8 1-1h-1l-3 1-4 4-7 9c-6 7-15 12-25 15l-13 2-10 2-5 2c1 2 3 3 5 3l13 2m72-39-1 11c-1 10-6 18-14 24-9 7-20 13-31 17-8 4-18 5-27 4l-20-4-20-4c-7-2-15-5-22-9l-12-10-3-3v-1 5l3 6c6 9 14 16 25 19l5 2c3 4 8 7 13 8l8 1 11-1c2 0 3 1 3 3v14l-1 2-2 1-7 4-2 2h3l8-1c4-1 7 0 10 1l6 2 6 1 4-2v-1l-1-1-7-1-6-4h-1l1-1 8-1 6 2 8 2 9-2c3-2 5-4 6-7l-1-1-3 2-9 2-9-2-1-2-1-10c0-2 1-2 3-3l12-3c10-4 18-9 25-16 7-6 12-13 15-21 4-9 6-18 7-27s1-18-1-26l-3-10-1-13c0-5 2-8 7-10l4-2c7-3 11-8 14-15l1-4 2-10c2-5 4-9 8-13l4-3c2-2 2-2-1-4l-3-1h-14c-2 0-5 1-7 3v1h1l9-2h10l2 1-1 2-2 1c-5 3-8 8-11 14l-3 8a32.2 32.2 0 0 1-14 18l-5 5c-3 2-4 5-6 8l-2 11 2 12 3 13c2 6 4 13 3 19m-156 0-21-2c-7-1-13-2-19-5-4-1-7-3-9-5l-4-6v-1l5 1 10-1c8.8-2.6 18.1-3 27-1 10 1 20 4 30 4l9 1v-1c-8 0-16-2-23-4-8-2-16-5-22-11l-11-11-12-16-1-1h1l2-1 12 3 16 8 11 7c5 3 10 6 15 7l11 3h1v-1l-4-1c-6-3-12-5-17-9-10-6-18-14-24-24l-1-3-9-13-2-3v-1h1l10 4c7 3 13 7 18 14 6 7 13 12 21 16l9 5 3 1v-1l-4-3-6-5c-10-7-18-16-23-28-3-5-4-12-4-18-1-3 0-3 2-2l5 3c7 5 13 11 18 18l11 17c4 8 10 14 16 20 7 5 14 10 22 12l13 1c8-1 15-4 22-10l5-4c5-3 9-7 12-12 4-6 7-13 7-20l1-10 1-10c3-8 9-14 18-16h17v-1l-1-1c-4-4-10-7-16-7a27.2 27.2 0 0 0-25 30l1 10c1 7-1 14-5 20-3 5-7 10-12 14-9 8-20 12-32 10-7-1-12-3-18-6l-11-9c-8-7-15-16-21-24a72.5 72.5 0 0 0-32-28c-1-1-2 0-2 1v9c0 5 0 10 2 15l1 1h-1l-3-2a50.9 50.9 0 0 0-22-8c-2 0-3 2-2 4l2 2 8 13 7 14-1 1c-7-3-14-5-21-5h-6c-1 1-2 1-2 3l5 11c2 6 6 11 11 15l7 5v1h-1l-14 2a65.3 65.3 0 0 1-17 2l-1 2 1 3 5 8 7 5 18 6 3 1h1l-1 1-3 1-7 2-9 6c-1 2-1 3 1 4l3 1a79.6 79.6 0 0 0 41 4c9-2 17-6 25-10l2-1v-1h-1l-2 1-13 4a93.7 93.7 0 0 1-53 0l10-5c8-3 17-4 26-5l10-1 20-5 1-1h1-3l-27 3m247-69v16l-2 22c-2 13.6-5.4 27-10 40l-5 14-2 5a263 263 0 0 1-27 45 252.6 252.6 0 0 1-72 55c-11 6-23 10-36 14a60.6 60.6 0 0 1-19 1l-28-8-22-11c-10-7-21-13-31-21a217.1 217.1 0 0 1-47-51l-20-42a231.6 231.6 0 0 1-12-66v-16l1-20c1-13 3-26 7-38l7-25c2-7 5-15 10-21l12-16 8-9h3l2 3c2 5 5 9 9 12 4 5 10 8 16 10l10 2 24 9 9 7 2 1h2l-1-1c-4-3-9-7-14-9l-11-6-2-2-1-1 15-12 13-8c4-1 7-3 10-6l4-6 11-11a170 170 0 0 0 18-17l2-1 4 3 10 11 8 13 9 11c4 5 10 9 17 12l5 1 26 10 1-1-8-3-3-1c-3-2-3-2-1-4l17-10a64.4 64.4 0 0 0 19-17c2-2 2-2 4 0l5 5c5 5 10 9 16 11l7 4 6 7 9 24a822.7 822.7 0 0 1 15 62l1 30"/>
    <path fill="#A7BFB9" d="M317.7 250c0-1-1-3-3-3l-3 2c0 2 1 3 3 3 1 1 3-1 3-2m75 14c2 0 3-1 3-2 0-2-1-3-3-3l-2 2c-1 2 1 3 2 3m24 16c-1-1-2 1-2 2 0 2 1 3 2 3s3-1 3-3c0-1-1-2-3-2m-152-1v-1c-1-2-2-2-4-1h-1v4l3 1c1 0 2-1 2-3m31-46-3-3c-2 0-3 2-3 4l3 3c2 0 3-2 3-4m126 13c0-2-1-4-4-4-2 0-3 2-3 4s1 4 4 4c2 0 3-1 3-4m-63-33c0-2-2-4-4-4s-4 2-4 4 2 4 4 4 4-2 4-4m-11-26 7 2 29 10c13 5 24 11 35 19l8 6 13 11c9 9 16 18 22 29l11 19 7 12 1 3h-2l-20-11-3-2h-5c-8 4-15 8-21 14l-18 15h-2c-7-4-15-8-21-14l-9-9-8-10a102.2 102.2 0 0 0-22-20h-3c-1-1-2 0-3 1l-2 1a414.9 414.9 0 0 1-38 32c-7 4-14 9-20 15l-11 12h-3c-12-5-22-11-31-19l-6-5-1-1c-3-3-4-3-7 0l-4 5-13 12v1h-1v-1l1-4 16-30 10-17c4-8 9-15 15-22l4-4 12-11 22-15c7-5 15-8 23-11l30-11 8-2"/>
    <path fill="#FFF" d="M266.7 499c9.8.2 19.5-.8 29-3h1-1l-1 1-20 5-10 1c-9 1-18 2-26 5l-10 5v1h2a93 93 0 0 0 51-1l13-4 2-1h1v1l-2 1a76 76 0 0 1-66 6l-3-1c-2-1-2-2-1-3l9-7 7-2 3-1 1-1h-1l-3-1-18-6-7-5-5-8-1-3 1-2h1l16-2 14-2h1v-1l-7-5c-5-4-9-9-11-15l-5-11c0-2 0-2 2-3h6c7 0 14 2 21 5l1-1-7-14c-2.6-5.5-6-10.5-10-15-1-2 0-4 2-3h4c6 1 13 4 18 8l3 1h1l-1-1c-2-5-2-10-2-15v-9c0-1 1-2 3-1l3 1a96 96 0 0 1 28 27 141.2 141.2 0 0 0 32 33c5 3 11 5 18 6 12 2 23-2 32-10 5-4 9-9 12-14 4-6 6-13 5-20l-1-10a27.2 27.2 0 0 1 25-30c6 0 12 3 16 7l1 1-1 1h-17c-8 2-14 8-17 16l-2 10v10c0 7-3 14-7 20-3 5-7 9-12 12l-5 5c-7 5-14 8-22 9l-13-1c-8-2-15-7-22-12-6-6-12-12-16-20l-11-17a67.1 67.1 0 0 0-23-21c-2-1-3-1-2 2 0 6 1 13 4 18 5 12 13 21 23 29l6 4 4 3v1l-3-1-9-5c-8-4-15-9-21-16-5-6-11-11-18-14l-10-4h-1v1l2 3 9 13 1 3c6 10 14 18 24 24 5 4 11 6 17 9l4 1v1h-1l-11-3c-5-1-10-4-15-7l-11-7-16-8-12-3-2 1h-1l1 1 12 16 11 11c6 6 14 9 22 11 7 2 15 4 23 4v1l-9-1c-11 0-20-3-30-4l-10-1c-5-1-11 0-17 2l-10 1-5-1v1l4 6c2 2 5 4 9 5 6 3 12 4 19 5l21 2"/>
    <path fill="#FFF" d="M346.7 576v6l1 1 1-1 9-4 1-1-2-13h-9l-1 1-1 1v2l1 8m76-77c0-6-1-13-3-19l-3-13-2-12 2-11 5-8 6-5 1-1c7-4 10-10 13-17l3-8c3-6 6-11 11-14l2-1 1-2-2-1h-10l-9 2h-1v-1c2-2 4-3 7-3h14l3 1c3 2 3 2 0 4l-3 3c-4 3-6 8-8 13l-2 10-2 4c-2 7-6 12-13 15l-4 2c-5 2-7 5-7 10l1 13 3 10c2 8 2 17 1 26s-3 18-7 27c-3 8-8 15-15 21-7 7-16 12-25 16l-12 3c-2 1-3 1-3 3l2 12 9 2 9-2 3-2 1 1c-1 3-3 5-6 7l-9 2-8-2-6-2-8 1-1 1h1l6 4 7 1 1 1v1l-4 2-7-1-5-2c-3-1-7-2-10-1l-8 1h-3l2-2c2.7-2.2 5.7-3.9 9-5l1-2v-14c0-2-1-3-3-3l-11 1-8-1c-6-1-10-4-13-8l-5-2c-11-3-19-10-25-19l-3-6v-5 1l3 3 12 10c7 4 15 7 22 9l20 4 20 4c9 1 19 0 27-4 11-4 22-10 31-17 8-6 12-14 14-24l1-11"/>
    <path fill="#FFF" d="m350.7 538-13-2c-2 0-4-1-5-3l5-2 10-2 13-2c10-3 19-8 25-15a343 343 0 0 1 11-13l3-1h1l-1 1-6 8-3 7c-6 12-15 19-27 22l-13 2m-8-254-1 3c-2 4-5 7-8 9l-7 5c-5.2 2.5-10 5.9-14 10l1-2c2.2-3.1 5-5.8 8-8 6-4 11-9 15-15l4-4h1l1 1v1m-93 46c-3 0-6-1-9-4l-6-4c-2-1-4-1-5-3l-2-3c-1-2 0-4 1-4 1-1 3 0 4 1l1 2 2 3c2 3 4 5 8 6a23 23 0 0 1 8 5l-1 1h-1m150 0-5-2-5-2c-2 0-4 0-6-2l-2-2 2-3 5 2c3 2 6 4 10 4 2 0 4 1 5 3v1l-4 1m22 67v1c-1 3-3 5-6 6h-4l-2-1h-1l-1 1-1 1v-1c0-3 2-6 5-8l5 1 1 2 1 1 2-3h1m30-97-2 5c-2 2-4 4-7 4h-2l1-1 4-7 3-3h2l1 2m-93-87c0 2-2 4-4 4s-4-2-4-4 2-4 4-4 4 2 4 4m63 33c0 3-1 4-3 4-3 0-4-2-4-4s1-4 3-4c3 0 4 2 4 4m-126-13c0 2-1 3-3 4l-3-3c0-2 1-4 3-4l3 3m-31 46c0 2-1 3-2 3l-3-1v-4h1c2-1 3-1 4 1v1m152 1c2 0 3 1 3 2 0 2-2 3-3 3s-2-1-2-3c0-1 1-3 2-2m-24-16c-1 0-3-1-2-3l2-2c2 0 3 1 3 3 0 1-1 2-3 2m-75-14c0 1-2 3-3 2-2 0-3-1-3-3l3-2c2 0 3 2 3 3"/>
    <path fill="#A7BFB9" d="m346.7 576-1-8v-2l1-1 1-1h9l1 1v13l-9 4-1 1-1-1v-6"/>
    <path fill="#FFF" d="M468.6 457.8c0 .4-.3 6.8-.2 13.3-6.8.5-5.7-13.3-5.3-15 .2-1.4-4.4 1.7-6.6 3.8.7 1.3 1.7 1 3 .5-.6 6.2 3.8 11.8 9 11.7.1 6.4.8 12.5 2.6 13 .2.1.5-6.5.6-13.7 12.2-3.8 7.5-18.3 7.5-18.3-.2-.8-2 .4-6 3.9 1.6 1.7 2.4.7 3.6.3 1 1.9 1.4 10.5-5 13.1l.2-18c0-.2-.2-.3-.4-.3-1.8.2-5 3.4-7.5 6.1 1.4 2.2 3.1.2 4.5-.4m6 19.1 2.7 2.8 2.8-2.8-2.8-2.8-2.8 2.8Z"/>
  </g>
</symbol></svg>
