<svg xmlns='http://www.w3.org/2000/svg' viewBox='0 0 696 830' fill='none'><symbol id='QCHC_EC_Fill'>
  <g fill="none" transform="translate(.7 .3)">
    <ellipse cx="352.4" cy="405.8" fill="#FFF" rx="224.6" ry="294.3"/>
    <path fill="#1E2346" d="m347.3 19-1 1-5 3c-10 11-21 20-32 30a617 617 0 0 0-71.1 68.1 1209 1209 0 0 0-114.1 143.2l-18 20c-13 16-26 32-37 49.1-15 22-29 44-42 67l-9 14.1v5a643 643 0 0 0 79 111.1c14 18 29 35 45 52.1l33 35 21 23 37.1 44.1 34 41c24 26.5 49 51.8 75 76.2 4 4 5 4 9.1 1l11-10 36-36 24-27.1 43-51 25.1-29.1 36-40 48-52.1 26.1-30 30-39.1c15-19 29-40 41-61l4-8v-5.1l-4-7-39-63c-16-24.1-33-47.1-53-69.2l-32-40a1277.7 1277.7 0 0 0-86.1-108.1c-22-23.5-45-45.9-69-67.1l-41.1-37-3-3-1-1m0 809.9-3-1-3-2-14-13c-21-20-40-41-59-62l-40.1-47.2-35-42-26-28-37-40a2084 2084 0 0 1-64.1-75.2l-30-39c-12-15-22-31-31.1-48l-4-6-1-3v-6.1l5-9 44-71a683 683 0 0 1 46-60.2l18.1-20 24-31c29.3-41.6 61-81.3 95.1-119.2A2102 2102 0 0 1 341.2 4l5-4h2l4.1 4 11 10 23 21c19 16 38 34 56 52.1l22 22a733.3 733.3 0 0 1 78.2 95.1l21 29c8 12.1 16 22.1 26 33.1a650.1 650.1 0 0 1 99 142.2l5 8c1 2 2 4 1 6l-2 3c-13 23-27 45-44 66l-39 51.2-31 35-41 44-37 41.1-25.1 30-53 62.1-33 36-22 22-15.1 13.1-3 2-2 1"/>
    <path fill="#FFF" d="m235.2 145.2 2-1c12-8 24-14 38-19l27-9c12-4 25-6 38-5h17.1c12 0 24 0 35 4l18 6a225 225 0 0 1 43 18v-1l-4-4-31-32-31-34.1-22-22-17-17h-3l-2 2-19 19-28 30-33 35-26.1 27-2 2-1 1h1m1 525.7h-1l3 3 33 35 50 57.1 18 20 7 7 2-1 1-1 21.1-22 33-38 42-46 7-8 1-1h-1l-4 2c-17.6 9.5-37 15.6-57 18l-30 4h-31l-36-6a154 154 0 0 1-57.1-22l-1-1m341.3-251.4-1 19-1 10-2 25-4 33.1c-2 13-6 27-11 40l-12 27-2 2v1.1h1l2-2 24-31 36-48.1 45-59 17-20.1v-2l-1-1-14-16c-21-26-40-53-58-80.1l-24-37a2602.8 2602.8 0 0 0-31-43.1l-9-12-2-2v1h-1l1 2 9 19 17 42c9 24.9 14.8 50.8 17 77.1 3 18 3 36 4 55.1M176 210.3h-1l-5 5-24 29c-10 13-20 27-28 41a835.6 835.6 0 0 1-60 87.1c-11 15-21 29-34 42.1v3l7 7 18 22 40 52.1 46 62 23 27.1 1 2 1 1v-1l-2-3-16-31c-7-16-12-33-15-51a2070 2070 0 0 1-7-82.2c.1-29.8 2.8-59.7 8-89.1 3-15 7-29 12-44l18-45.1c4.6-12 10.6-23.4 18-34m395.4 221.2v-4l-2-23-2-25a353.5 353.5 0 0 0-19-86.1l-17-44.1c-4-12-10-24-17-34a555.8 555.8 0 0 0-47.1-59.1 102.3 102.3 0 0 0-40-23l-27-8c-18.6-5.4-37.8-8-57.1-8l-9 1c-14.3.7-28.4 3.4-42 8l-31 10c-8 3-16 7-22.1 12-10 7-19 15-26 25l-29 38c-7 12-13 23-18 36.1l-10 25-14 38c-8.8 28-13.5 57-14 86.2l-2 30v33l3 21 7 31.1c5.8 22.4 14.5 44 26 64 9 17.1 20 33.1 34 47.2l26 25a161.5 161.5 0 0 0 70 39l32 7 4 1 28.1 1 21-3 11-2 21-5c22-6 41-17 59-32l24.1-23a282.3 282.3 0 0 0 41-52.1c14-22.8 23.8-47.9 29-74a321 321 0 0 0 9-73.2M347.4 19l1 1 3 3 41 37c42 36 80.2 75.8 114.1 119.2l41 56c10 14.1 21 28.1 32 40.1 20.1 22 37.1 45 53.1 69.1l39 63 4 7.1v5a498.8 498.8 0 0 1-45 69l-30 39.1-26 30-48 52.1-36 40-25.1 29.1-42 51a1550.8 1550.8 0 0 1-72.1 73.2c-4 3-5 3-9 0l-17-16-58-61.1-34.1-41-37-44.1-21-23-33-35.1A2523.5 2523.5 0 0 1 46 464.6a395 395 0 0 1-28-44v-6.1l9-14c13-23 27-45 42-67.1 11-17 24-33 37-49l18.1-20 23-31.1c28.1-39.2 58.6-76.6 91.1-112.2 33.5-33.8 68.3-66.5 104-98l4-3h1"/>
    <path fill="#1E2346" d="M173.1 411.5c0 17 1 33 4 50 3 16 7 32.1 13 47.1 8.4 17.5 17 35 26 52l22.1 26.1c7 8 16 15 25 21l28 16c13 7 28 12 43 15h26.1c13-3 26-7 37-12 13-6 25-13 37-21 8-5 16-12 23-19l13.1-15c7-9 13-19 18-29 8.8-20.3 17.1-40.6 25-61.1 9.6-37.7 11-77 4-115.2l-6-25c-8.6-35.7-25.4-69-49-97.1l-18-21-13-14c-10-7.8-20.5-15.2-31-22a219 219 0 0 0-44.1-14l-11-1a140.8 140.8 0 0 0-93 49l-13.1 15a246.1 246.1 0 0 0-62 130.1l-3 21-1 24.1m398.3 20-1 29a319 319 0 0 1-37 118.2 249 249 0 0 1-41 52l-24.1 23c-18 15.1-37 26.1-59 32.1l-21 5-11 2-21.1 3-28-1-4-1-32-7a159.9 159.9 0 0 1-71.1-39l-25-26a230 230 0 0 1-54-89.2l-6-21-7-31-3-21v-33l2-30.1 1-21c3-22 7-44.1 13-65.1l14-38 10-25.1c5-13 11-24 18-36l29-38c7-10.1 16-18.1 26-25.1 6-5 14-9 22-12 23.4-9.4 48-15.6 73-18l9-1h11.1c15 1 31 3 46 8l27 8c7 2 13 5 18 8a136.8 136.8 0 0 1 40.1 34l29 40c7 10 13 22 17 34.1l17 44a303 303 0 0 1 19 86.2l2 25 2 23v4"/>
    <path fill="#1E2346" d="M176.1 210.3v1l-3 3c-6 9-11 19-15 30l-18 45a271.8 271.8 0 0 0-18 82.1 521 521 0 0 0 5 133.2c3 18 8 35 15 51a290.9 290.9 0 0 0 18 34.1v1l-1-1-1-2-23-27-46-62.1-40-52-18-22-7-7.1v-3c13-13 23-27 34-42 21-28.3 41-57.3 60-87.2 8-14 18-28 28-41l24-29 5-5 1-1m401.4 210.2a571 571 0 0 0-10-94.1l-11-38-17-42.1-9-19-1-2 1-1 2 2 9 12 15 18 16 25 24 37a1358 1358 0 0 0 73 99.2l-17 20a1425.1 1425.1 0 0 0-81 107.2l-24 31-2 2-1-1 2-2 12-27c5-13 9-27 11-40l4-33.1 2-25 1-10 1-19M236.2 670.7l1 1c17.6 10.6 37 18.1 57 22l36 6h31.1l30-4 23-5c12-3 23-7 34-13l4-2h1l-1 1-7 8-42 46-33 38.1-21 22-1 1h-2l-7-6-18-20-50-57-33.1-35-3-3h1m-1-525.7h-1l1-1 2-2 26-27 33-35.1 28-30 19-19 2-2h3l17.1 17 22 22 31 34 31 32 4 4v1l-2-1c-13-7-27-13-41-17l-18-6c-11-4-23-4-35-4h-17c-13-1-26 1-38 5l-27 9c-14 5-26 11-38.1 19l-2 1"/>
    <path fill="#FFF" d="m514.4 418.5-1-17-4-31-8-27c-5-20.1-12-38.1-21-56.2l-15-26-8-13c-4-8-10-14-16-20-4-5-9-10-15-13l-14-10-20-11c-12-6-25-10-38.1-14-5-2-10-2-15 0l-5 2c-11 4-22 7-32 12l-14 7c-12.3 9-24.3 18.5-36 28l-7 8c-3.1 4-7.1 8-9.1 13l-7 12-18 33c-7 13-12 27-16 41.1l-7 26c-4 14-6 28-7 41-1 19.1-1 38.1 2 57.2 2 15 6 30 12 45a454 454 0 0 0 28 53 234.8 234.8 0 0 0 117 75.2h14.1c15.3-3.4 30.1-8.8 44-16 11-7 22-13 32-21 14-9 26-21.1 37-33.1 7.1-8 12.1-16 17.1-25l10-21c10-20.1 16-41.1 18-64.2l2-35m-341.3-7 1-24 3-21 8-32.1a247 247 0 0 1 54.1-98.1l13-15 8-9 21-17c13.2-8 27.4-14.4 42-19l22-4 11.1 1 22 5 22 9c15 10.8 29.4 22.5 43 35l19 22a233.1 233.1 0 0 1 49.1 96.1l6 26 4 26c2.3 41.3-4.2 82.7-19 121.2l-14 29c-5 10-11 20-18 29l-13 15.1a277.7 277.7 0 0 1-59 40c-12 5-25 9-38.1 12h-26c-15-3-30-8-43-15l-28-16c-9-6-18-13-25.1-21-11.8-13-22.2-27-31-42l-17-36a322 322 0 0 1-18-97.2"/>
    <path fill="#1E2346" d="M408.3 319.4c-2 0-4 1-4 3s2 4 4 4 4-2 4-4-2-4-4-3m81.1 80c-3 0-4 2-4 4-1 3 1 4 4 4 2 0 4-2 4-4s-2-4-4-4m-130.1-183c-3 0-4 2-4 4s2 4 4 4 4-2 4-4c0-3-2-4-4-4M217.2 394.5c-2 0-4 2-4 4 0 3 2 5 4 5 3 0 5-2 5-4 0-3-2-5-5-5m68 38c2 0 4-1 4-4 0-2-2-4-4-4-3 0-4 1-5 4 0 2 2 4 5 4m61-190.2c-3 0-5 2-5 5-1 3 2 5 5 5s5.1-2 5.1-5-2-5-5-5m-89 239.3c-3 0-6 3-6 6s3 6 6 6 6-3 6-6-3-6-6-6m17-226.3c0-4-4-8-8-8s-8 4-7 8c0 4 3 8 7 8 5 0 8-4 8-8m131 11v-3h1c2 1 4 2 4 4h2c2 1 3 2 3 4v3l1 1v-4h1l1 1h1v-3h2v-1h-3c-2 1-4-1-5-2v-2c-3 0-4-1-6-3v-1h1l11-1 2 1 2 1h1v-3l2-1h-3v-3l-2 1-2 2c-4-1-8 0-12 1h-1v-1l3-3 3-1 4-1v-1h-3v-2l4-5v-1l-4 4-2 2-1-3-1-1-1 1v3c1 2 0 3-1 4l-1 2h-2v-1l-1-10c-1-1 0-2 1-3l2-2v-1h-1l-3 2-1-3v-1l-1 1v1l-1 1h-2l1 1 2 2 1 2 1 10-1 1h-1l-1-3v-2l-1-1-1 1-1 1c-2-1-2-3-2-4v-3l-1-1v1l-1 3-3-2-1-1h-1v1l3 3v1l-2 1h-1l1 1h2c3-1 4 0 5 2v1h-2v1h2c2-1 3 0 4 2l-1 1h-9l-3-1-2-2v1l1 1-1 2h-3l3 1 1 1-1 2h-1 1l2-1 4-2h11l-1 1-4 4-2 1h-3v1h1c1 1 2 1 1 2l-2 3-2 3 3-2 3-3 2 1 1 2 1-2-1-1 1-4 2-4h1l1 1 1 10-2 3-2 2v1h2l1-2c2 0 1 2 2 2h1c0-1.3.7-1.7 2-1h2l-1-1c-3-1-4-3-4-6v-5M211.2 461.6h2l2 1v1l-1 1h1l2-2 2-1 3 1-1 3-4 1h-1l-2 1 2 1h1v1l-2 2c-2 2-4 4-7 4v1c1 0 2 0 1 1l-1 2 2-1 1 1 1 1c0-3 1-5 3-6l2-3 1-1h1l1 2 1 1v-3c-1-2-1-3 1-4l1-2c1-1 1-2 3-2l1 3c0 2 0 4-2 6v2c-1 0 0 0 0 0h1l1-1v1l1 1c0 3 0 4-2 6l-1 1v1h1l2-2 1 3 1 3 1-3v-3l2 1h1v-1l-2-2-1-2-1-3 1-1h2v-1l-2-1c-2 0-2-2-3-3v-3h1l8 8 1 2v3h1v-3h1l5 3h1l-4-4-1-1 2-1h1v-1h-3c-1 1-2 0-3-1l-7-5-1-2h2c2 0 4 0 5 2l1 1 1-1h-1l1-2c3 0 6 0 8 3h1v-2l3-1-3-1-1-1 1-1v-1l-2 1c-1 2-3 2-4 2h-4v-3l-1 1-3 1h-1l-4-1 2-4c1-2 3-3 6-3v-1c-2-1-2-1-1-2 2-3 4-6 8-6v-1h-1c-1 0-2 0-1-1l1-1v-1h-1v1l-1 2c0 2-3 2-4 4l-1 1-3 3-1-4v-1l-1 1v6l-3 3c-1-2-2-4 0-5l1-1-1-1v1l-2-1-1-4c0-2 0-4 2-5l1-1h-1l-2 1-1-1-1-4v-1l-1 1 1 4-1 1-2-1v1l1 1c2 1 3 3 3 5v3l-2 1v1c1 1 3 2 3 4v3h-1l-6-5-2-4-1-3h-1v3h-1l-2-2-2-1h-1l1 1 3 3v1l-1 1h-1v1h1c3-1 5 0 6 2l4 4 1 1h-1l-4-1-2-1-1 1v1h-1c-3 0-6 0-8-2-1-1-1-1-1 1v1h-3l1 1h2v1l-1 2h1l1-1c1-1 3-2 5-1h1m253.2-120.2 10-1v-1c-5-1-9 0-13 1h-2c-1-1 0-2 1-2l1-3v-1h-1l-4 5c0 1-2 2-3 1h-3l2-4 3-3 3-3c1-2 2-4 5-4l-2-1 1-2 1-1v-2l-3 3h-1v-1l-1-1v3l-1 2-5 6-3 5h-1v-1l-1-8 1-2 2-3v-1h-2l-1 1v-3l1-4 1-2v-1l-1 1h-2v-3l-1 1v1c0 2-1 2-2 1h-1v1l2 2 1 3v2c0 1 0 2-1 1h-2s-1 0 0 0v1l3 3v4l-2 6-1-1-6-8c-2-2-4-4-3-7h-1c-1 1-1 2-2 1l-2-2v1l1 2c1 1 1 1-1 1v2h1c2-1 4 1 5 3l1 2 6 7 1 1v1h-1c-3 1-5 1-7-2l-3-2h-1v1l1 1 2 2-3 1h-12l-3 1 3 1h14c1 0 2 0 0 2v2c0 1 0 0 0 0l3-3 3-1h3l1 1-1 2-8 9-2 1h-2l1 1v2l-1 3v1l3-3 2 1v1h1v-1c-1-2 0-4 2-6l2-3 5-6v1l1 10-1 2-2 3v1h1l1-1h1v4l-1 2-1 1v1h1c1-1 1 0 2 1h1v-2l2 1h1l-2-2-1-4v-2l1-1 1 1h1v-1l-2-2-1-3 2-10 7 7 2 2 1 3v3l1-1c1-2 1-2 2-1l1 1 1 2v-3l-2-1 1-1h2v-1l-2-1c-2 1-4 0-5-2l-2-2-3-4-3-3v-1l4-1 3 1 2 2 1 1v-2c-1-1-2-1-1-2h5M284.2 589.7h-2v1l1 1c7 4 14 6 22 4l13-4 9-5 8-3c4-1 7 0 11 2l5.1 3 7 5c5 2 10 3 15 2l8-3 9-5a57 57 0 0 1 15-8l1-1h-3l-11 4-11 5c-7 2-14 1-20-2l-6-2-6-3c-5-2-10-3-16-2l-12 4-14 5c-6 3-13 4-20 3l-3-1m112-28c14 0 25-3 35-6l2-1v-1h-14c-14.3.7-28.7-1.7-42-7l-11-3c-6-2-13-3-19-2l-14 3-19 5c-6 2-13 3-20 2l-12-1h-12a63.1 63.1 0 0 0-20 8l1 1 3-1 9-2c4-1 8-2 12-1l9 2 8 2c7 1 14 1 21-1l10-4 11-5 11-4c8-2 14-1 20 3l6 4c9 6 18 9 25 9m-114-215.3h-9l-1-1h1l7-7c1-2 2-2 4-2h5l-1-1-3-2 2-2 7-5h3l9 1 3-1c-1-2-2-1-3-1l-7-2c-2 0-2-1-1-2l4-7s1 0 0 0h-1l-2 1-5 4c-1 1-1 1-2-1l-3-9v-1l-1 1 1 4 1 7v3l-7 7-1 1h-1v-1l-1-3-1 3c0 5 0 3-3 7l-2 2h-1v-12l2-4 5-4 1-2h-1l-4 3-2 1v-2l1-12c0-2 0-3 2-4l2-2 1-2h-2l-1 1-1 1-1-1-1-1-1 1v1h-2l-2-3h-1v1l3 4 1 3-2 13-1 1-1-1-4-5h-1v1l4 8 1 3-3 13h-1l-5-5c-1-1-2-2-1-4v-4l-1-1h-1l-1 2-2-1-4-3-1-3 2-10-1-1-1 1-2 4-1 4h-1l-3.1-3-3-2v1l3 4c1 3 1 3-1 3l-6 1-3 3h9l3-1 2 1 5 6-1 1h-1l-3 1 3 2h2c5 0 4 0 8 5l3 2v1s1 0 0 0v1l-3-1-20-4-2-1-3-2-3-3-1 1 1 2 2 3h-12c1 2 3 2 4 2l7 2 1 1-1 1-4 2v1h3l6-2 3-1 8 1 12 1h2v1l-4 3-3 2h-7c-1 1 0 1 2 2h2v1l-10 9-10-1h-2v1l3 1 7 1v1l-3 3a118 118 0 0 0-5 5h2l6-4 3-2h1v3l1 6 1 1 1-1v-5l-1-5 1-3 10-6 1 1 1 3h1l1-1v-6l4-4h1v2c0 5 0 10-2 16l-2 2-6 5v1l1 1 5-3 1 1-1 9-1 2-3 2v2h1l3-1h1v1h2v-1h1l5 3v-1l-2-3c-3-2-3-4-2-6l1-5 1-1 2 2 2 1h1v-1c-1-3-2-5-4-6l-2-3c0-7 1-13 3-19l1-1 8 8c4 4 4 3 3 8l1 3 1-3 1-1 1 1 5 7v3c-1 4-1.5 8-1 12h2l2-7v-4l2 1 2 2 4 3v-3l-3-5v-1l5 1 5-1h1l-1-1-3-1-7-1c-2 0-4 0-5-2l-3-3-3-3 4-1h1v-2h-6l-4-2-7-10-1-1h3c7 3 14 4 21 3 3 0 5 1 6 3l4 3h2v-1l-4-3v-2h9-1l-6-3-1-1 4-4v-1h-1l-5 4-4 1-20-2m69.1 140.2c0-16 3-30 7-43l5-9c1-3 3-5 5-6 3-3 7-4 11-2l5 3 5 5 6 6 8 9c7 7 16 13 25 17 7 3 15 5 23 5 10 0 19.1-2 28.1-6l9-5 4-5c1-1 1-2-1-2l-4-1-9-3-7-5-19-19c-6-6-12-12.1-20-17.1l-8-7-5-5c-5.8-6-13-10.1-21-12l-1-1 1-4c1-4 0-9-1-12l-3-6-4-5c-3-4-4-8-5-12l-1-5c-1-9.1-5-18.1-10-26.1l-6-10c-3-6-4-12-3-19l2-10 1-3-2-2-2 1-4.1 3c-11 9-18 21-22 34a66.9 66.9 0 0 0 1 46c3 7 4 14 6 22a55 55 0 0 1-6 37.1l-10 17a1623.1 1623.1 0 0 0-30 51c-4 9-7 18.1-8 28.1 0 2-1 2-3 3l-18 5-17 2c-10.1 0-20.1-2-30.1-6l-9-4-2-1 1 1c17 19 38 27 64 22 7-1 13-4 20-6l19-7c6-2 13-4 19-4 11-1 21.1 0 30.1 3l17 6c8 3 15 6 24 7a70 70 0 0 0 52-10l17.1-14c1-1 3-1 2-3h-3l-3 1-12 4c-15 6-30 10-46 11-12 1-23 1-35-3-8-2-15-5-23.1-6-2-1-2-1-2-3l-2-20m163.1-68.1-2 35c-2 23-8 44.1-18 64.1l-10 22c-5 9-10 17-17 24a224 224 0 0 1-69 54.1 144.5 144.5 0 0 1-44.1 16h-14c-19.6-4.1-38.2-12-55-23a273.7 273.7 0 0 1-62.1-52l-10-16c-7-12-13-24-18-37a178 178 0 0 1-12-45.1c-2-19-3-38-2-56.1 1-14 3-28 7-41l7-27c4-14.1 9-28.1 16-41.1l18-33c5.2-8.5 10.6-16.8 16-25.1 6.6-6.8 13.2-13.4 20-20 12.2-8 24.5-15.6 37-23 10-5 21-8 32-12l6-2c4-1 9-2 14.1 0 13 4 26 8 38 14l20 11 29 23c6 6 12 13 16 20l8 13 15.1 27c9 17 16 35 21 55.1l8 28 4 30 1 17.1"/>
    <path fill="#FFF" d="m459.4 464.6 8-1a68.9 68.9 0 0 0 17-6v-1h-10a47.1 47.1 0 0 1-27-22l-5-8c-2-5-6-9.1-10-12.1l-2-2-8-8-4-5c-6-6-13-10-21-12h-1l-2-3v-9c0-3-1-7-3-10l-3-5c-4-5-8-11-10-18l-8-18.1-6-11c-3.1-6-5.1-13-4.1-20l2-11 1-4h-1l-1 1c-8 12-14 24-18 38l-1 16 1 8 5 30c2 4 3 9 3 14 0 11-2 20-9 29.1l-5 8-13 22c-7 12-12 25-16 38l-6 23.1v2h2c12.9-2.3 26-2.6 39-1l2-1-1-8-1-12c-.3-18 4.6-35.8 14-51 1-3 4-6 7-8 4-4 10-5 16-4l8 4 8 6 9 8c7 6 14 11 22 15 10 5 20 9 32 9m-108 22 2 20c0 2 0 2 2 2l23 7c12 3 23 4 35 3 16-1 31-5 46-11l12.1-4 3-1h3c1 1-1 2-2 3-6 5-11 10-18 14a69 69 0 0 1-51 10c-9-1-17-4-24-7l-17-6c-9.1-4-19.1-4-30.1-4l-19 5-19 7-20 6c-26 5-47.1-3-64.1-22-2-1 0-1 1-1l9 5a68 68 0 0 0 47 3l18-4c2-1 3-1 3-3 1-10 4-19 8-28 3-8 8-16 13-24l17-28 10-17.1 5-13c2-8 2-15 1-23l-6-22-2-6c-4-13.1-3-27.1 1-40.1 4.4-15 13.6-28 26.1-37l2-1 2 2-1 3-2 10c-1 7 0 13 3 19l6 10c5 8 9 17 10 26l1 5c1 4 2 8 5 12l3 5 4 5c1 4 2 8 1 13l-1 3 1 2c9 2 15 6 21 12l5 5 8 7 20 17.1a257 257 0 0 0 26.1 24l9 3h4c2 1 2 2 1 3l-4 5-9 5c-9 4-18 6-28 6-8 0-16-2-23-5-9-4-18-10-25-17l-8-9-6-6-5-5-5-3c-4-2-8-1-12 2l-5 6-4.1 9c-4 13-7 26-7 43"/>
    <path fill="#FFF" d="m282.2 346.4 20 2 4-1 5-4h1v1l-4 4 1 1 6 2 1 1h-9v1l4 4v1h-2l-4-3c-2-2-3-3-6-3-8 .6-16.3-.4-24-3l1 1 7 10 4 2h6v2h-5c0 2 2 3 3 4l3 3c1 2 3 2 5 2l7 1 3 1 1 1h-1l-5 1-5-1v1l3 5v3h-1l-3-3-2-2-2-1v4a64 64 0 0 1-3 7l-1-1v-1l1-10v-3l-5-7-1-1c0-1 0 0 0 0l-1 1-1 3-1-3c1-5 1-4-3-8l-8-8h-1c-2 7-3 13-3 20l2 2 4 7v1h-1l-2-1-2-2h-1l-1 6c-1 2-1 4 2 6l2 3v1h-1l-4-3h-1v1h-2v-1l-1-1-3 2-1-1v-1l3-2 1-2 1-9-1-1-5 2h-1v-1l6-5 2-3a57.5 57.5 0 0 0 2-17h-1l-4 4v6l-1 1-1-1-1-3h-1l-10 6-1 3 1 5v5l-1 1-1-1-1-6v-3h-1l-3 2a85.2 85.2 0 0 1-8 4v-2l5-4 3-2v-1l-7-1-3-1v-1h2l10 1 3-1 5-9c-2-1-3-1-2-2h7l3-2 4-3v-1l-2-1h-12l-8-1-3 1-6 2h-3v-1l4-3h1l-1-1-7-2c-1-1-3 0-4-2h12l-2-3-1-2 1-1 3 2 3 3 2 1 20 4 3 1v-1c1 0 0 0 0 0v-1l-3-3c-4-4-3-4-8-4l-2-1-3-1 3-1h1l1-1-5-6-2-1h-3l-5 1h-4l3-3 6-1c2 0 2-1 1-3l-3-4v-2l3 3 3 3h1l1-4 2-4 1-1 1 1-2 9 1 3 4 3 2 2 1-2h2v5c-1 1 0 3 1 4l5 5h1l3-13-1-4-4-7v-1h1l4 5 1 1 1-1 2-13-1-3-3-4v-1h1l2 3c1 1 1 1 2-1l1-1 1 1h2l1-1h2l-1 2-2 2c-2 1-2 2-2 3l-1 13v1h2l4-3h1l-1 2-5 4-2 4v11h1l2-1c3-4 3-2 3-7l1-3 1 2v2h1l1-1 7-7v-3l-1-7-1-4 1-1v1a311 311 0 0 1 5 10l5-4 2-1 1-1v1l-3 9 7 1c1 1 2 0 3 2l-3 1-9-2-3 1-7 5-2 1v1l3 1 1 1-1 1h-4c-2-1-3 0-4 1l-7 7-1 1 1 1h9m114.1 215.3c-7 0-16-3-25-9l-6-4c-6-4-13-5-20-3l-11 4-11 5-10 4c-7 2-14 2-21 1l-8-3-9-1c-4-1-8 0-12 1l-9 2h-3c-1 0-2 0 0-1s9-5 19-7l12-1 12 2c7 1 14 0 20-2l19-5 14-3c6-1 13-1 19 1l11 4a94.3 94.3 0 0 0 42 7c4.8.2 9.4.6 14 1l-2 1c-10 3-21 6-35 6m-112 28 3 1c7 1 14 0 20-3l14-5 12-4c6-1 11 0 16 2l6 3 6 2c6 3 13 4 20 1l11-4 11-4h2c2 0 1 1 0 1l-2 1-13 7-9 5-8 3c-5 1-10 0-15-2l-7-5-5-3c-4-2-7-3-12-2l-7 3-9 5-13 4c-8 2-15 0-22-4-1-1-2-2 0-2h1m180-248.3h-3l-2 1c-1 1 1 1 1 2v1h-1l-2-2-3-1-4 1v1l3 3 3 4 2 2c1 2 3 3 5 2l2 1v1h-2l-1 1 2 1v3l-1-2-1-1c-1-1-2-1-2 1l-1 1s0 1 0 0v-4l-1-2-2-3-7-6h-1l-1 10 1 3 2 2v1h-1l-1-1-1 1v2c-1 2 0 3 1 4l2 2h-2l-1-1v2c-1 0-1 2-2 0 0-1 0-2-1-1l-1-1 1-1 1-2v-4h-1l-1 1h-1v-1l2-3 1-2-1-10v-1l-1 1-4 5-2 3c-2 2-3 4-2 6 0 0 0 2-1 0v-1h-2l-3 3v-1l1-3c1-1 1-1-1-2-1-1 0-1 1-1h1l2-1 8-9 1-2-1-1h-3l-3 1-3 3s-1 1-1-1l1-1v-2h-14l-4-1 4-1h12l3-1-2-2-1-1 1-1 3 2c2 3 4 3 7 2h1v-1l-1-1-6-8-1-1c-1-2-3-4-5-3-1 0-2-1-1-2 2 0 2 0 1-1l-1-2v-1l2 2c1 1 1 0 2-1h1c-1 3 1 5 3 7l6 8 1 1h1v-6l1-4-3-3-1-1h1v-1l2 1 1-1v-2l-1-3-2-2c-1-2 1-1 1-1 1 1 2 1 2-1v-2l1 1v1c0 1 1 2 2 1l1-1v1l-1 2-1 4v3l1-1h2l-1 1-1 2-1 3 1 8h1l3-4 5-6 1-2v-2h1v1h1l3-3c1-1 1 0 1 1l-1 1-1 1-1 2 2 1c-3 0-4 1-6 4l-2 3-3 3-2 3 3 1c1 1 3 0 3-1l4-5c1-1 1 1 1 1l-1 3c-1 0-2 1-1 2h2c4-1 8.1-2 12.1-1 2 0 1 1 0 1l-9 1M211.2 461.6h-1c-2-1-4 0-5 1l-1 1h-1l1-2v-1h-2c-2-1 0-1 0-1h2v-1l1-1c2 2 5 2 7 2h2v-1l1-1 2 1 4 1h1l-1-1-4-4c-1-2-3-3-6-2h-1v-1h1l1-1v-1l-4-3c-1-1 1-1 1-1l2 1 2 2h1v-3h1l1 3 2 4 6 5h1c1 0 0 0 0 0v-3c0-2-2-3-3-4s-1-2 0-1 2 0 2-1v-3c0-2-1-4-3-5l-1-1v-1l2 1 1-1-1-4h1l1 4 1 1 1-1h2l-1 1c-2 1-2 3-2 5l1 4h2c2-1 2 0 0 2s-1 5 0 5l3-3v-6c1-2 1 0 1 0l1 4 3-3 1-1 2-5v-2l1 2 2-1v-1l1 1-1 1c-1 1 0 1 1 1h1v1c-4 0-6 3-8 6-1 1-1 1 1 2v1c-3 0-5 1-6 3l-2 4 4 1h1l3-1 1-1v3h4c1 0 3 0 4-2 3-2 2 0 2 0l-1 1 1 1 3 1-3 1v2h-1c-2-3-5-3-8-3l-1 2h1s0 2-2 0c-1-2-3-2-5-2h-2l1 2 7 5c1 1 2 2 3 1h3v1h-1l-2 1 1 1 4 4h-1l-5-3h-1v3h-1v-3l-1-2-8-8h-1v3c0 1 1 3 3 3l2 1v1h-2l-1 1 1 3 1 2 2 2v1h-1l-2-1s0 7-1 6l-1-3-1-3-3 2v-1l1-1 2-6-1-1v-1l-1 1h-2l1-2c2-2 2-4 1-6l-1-3c-1-1-1 1-2 2l-2 2v6s0 2-1 0l-1-2h-1l-1 2-2 2c-2 1-3 3-3 6l-1-1-1-1-2 1 1-2c1-1 0-1-1-1v-1c3 0 5-2 7-4l2-2-1-1-3-1 3-1h1l3-1 2-3-3-1-2 1-2 2h-1l1-1v-1l-2-1h-2m194.1-198.3h1l4 4v2l1-2h1c2 1 3 2 3 4v3l1 1v-4h1l1 1h1v-3h2v-1h-3l-5-2v-1l1-1h-1c-3 0-4-2-6-3l1-1 11-1 2 1 2 1h1v-3l2-1h-3v-3c1-1 0 0 0 0l-2 1-2 2c-4-1-8 0-12 1h-1v-1l3-3 3-1 4-1v-1h-3v-2l4-5v-1l-4 4-2 1-2-3-1 1v3c1 2 0 3-1 4l-1 2h-2v-1l-1-10c-1-1 0-2 1-3l2-2v-1h-1l-3 1-1-3-1 1v1l-1 1-2-1 1 2 2 2 1 2 1 10-1 1h-1l-1-3v-2c0-1-1-2-2 0h-1c-2-1-2-2-2-3v-3c0-1-1-2-1 0l-1 3-3-2-1-1h-1v1l3 3v1l-2 1c-1 0-1 2 2 1s4 0 5 2l-2 1c-1 1 0 2 2 1s3 0 4 2l-1 1h-9l-3-1-2-2v1l1 1-1 1-3 1 3 1 1 1-1 2h-1 1l2-1 4-2h11l-1 1-4 4-2 1h-3v1h1c1 1 2 1 1 2l-2 3-2 3 3-2 3-3 2 1 1 2 1-2-1-1 1-4 2-4 2 1 1 10-2 3-2 2v1h2l1-2 2 2h1c0-1 0-2 2-1h2l-1-1c-3-1-4-4-4-6v-8Zm-131-8c0 4-3 8-8 8-4 0-7-4-7-8s3-8 7-8 8 4 8 8m-17 226.3c3 0 6 3 6 6s-3 6-6 6-6-3-6-6 3-6 6-6m89-239.3c3 0 5 2 5 5s-2 5-5 5-6-2-5-5c0-3 2-5 5-5m-61 190.2a4 4 0 0 1-4-4 4 4 0 0 1 4-4c2 0 4 2 4 4 0 3-2 4-4 4m-68.1-38c2.5 0 4.5 2 4.5 4.5s-2 4.5-4.5 4.5c-2 0-4-2-4-5 0-2 2-4 4-4m142.1-178.2c2 0 4 1 4 4 0 2-2 4-4 4s-4-2-4-4 1-4 4-4m130.1 183.2c2 0 4 2 4 4s-2 4-4 4c-3 0-5-1-4-4 0-2 1-4 4-4m-81-80.1c2-1 4 1 4 3s-2 4-4 4-4-2-4-4 2-3 4-3"/>
    <path fill="#1E2346" d="M459.4 464.6c-12 0-22-4-32-9-8-4-15-9-22-15l-9-8-8-6-8-4c-6-1-12 0-16 4l-8.1 8-7 15c-4 11-7 23-6 36l1 12 1 8-2 1h-2c-12-1-25-1-37 1h-2v-2l6-23c4-13 9-26 16-38l13-22 5-8.1c7-9 9-18 9-29a235.3 235.3 0 0 1-8-44l-1-8.1 1-16a111.7 111.7 0 0 1 19-39h1l-1 4-2 11c-1 7 1 14 4 20l6 11 8 18c2 7 6 13 10 18l3 5c2 3 3 7 3 10v9l2 3h1c8 2 15 6 21 12l4 5 8 8.1 2 2c4 3 8 7 10 12l5 8a47.1 47.1 0 0 0 27.1 22h10v1l-1 1-16 5-9 1"/>
    <path fill="#FFF" d="M383.1 466.3c0 .4-.3 6.8-.2 13.3-6.8.5-5.7-13.3-5.3-15 .2-1.4-4.4 1.7-6.6 3.8.7 1.3 1.7 1 3 .5-.6 6.2 3.8 11.8 9 11.7.1 6.4.8 12.5 2.6 13 .2.1.5-6.5.6-13.7 12.2-3.8 7.5-18.3 7.5-18.3-.2-.8-2 .3-6 3.9 1.6 1.7 2.4.7 3.6.3 1 1.9 1.4 10.5-5 13l.2-18-.4-.2c-1.8.2-5 3.4-7.5 6 1.5 2.3 3.2.3 4.5-.3m6 19 2.7 2.9 2.8-2.8-2.8-2.8-2.8 2.8Z"/>
  </g>
</symbol></svg>
