<svg xmlns='http://www.w3.org/2000/svg' viewBox='0 0 696 830' fill='none'><symbol id='RBIC_Outline'>
  <g fill="#9D432C">
    <path d="m569.7 434.2-4-50c-2-25-7-51-16-75a2220.6 2220.6 0 0 0-33-78c-10-19-23-36-37-52-13-17-30-29-50-36-14-5-28-9-43-12a165 165 0 0 0-72-2c-16 3-32 8-47 13-12 4-23 9-33 17-9 7-17 14-24 23l-28 40c-8 11-13 23-18 35l-17 43c-10 27-17 55-19 84l-4 52c-1 16 0 32 3 48l7 37c10 40 30 76 57 106l33 32c17 16 37 27 59 34l32 7 12 3c17 1.8 34.3.8 51-3l32-7c23-7 43-19 61-36l29-29c24-25 42-55 53-88 4-12 6-24 9-37 6-22 8-45 7-69m6-13c0 22-1 40-4 57l-3 29c-2 22-8 43-18 62-14 28-31 54-53 76l-17 17c-22 20-47 33-76 39l-40 7c-14 2-27 1-40-1l-35-6c-29-6-54-18-75-38l-27-27c-23-26-42-56-54-89-4-13-7-27-9-41-2.7-28.6-4.7-57.3-6-86a311 311 0 0 1 23-130l15-38c4-10 10-20 16-30 9-14 19-27 30-40 12-15 27-27 44-36 24.8-13.6 52-22.4 80-26l18 1h4l16-1c10 0 19 1 28 4 15 5 31 10 46 17 21 11 40 25 56 44l25 35c8 11 14 22 18 34l19 48c7 20 12 41 15 62l4 57"/>
    <path d="m239.7 498.2 15 3 6-1c2 0 4-2 4-4 0-3-1-5-3-6-4-2-8-3-12-1s-7 5-10 9m215 0c-3-4-6-6-10-8-4-3-8-2-13 0-2 1-3 3-3 5 0 3 2 4 4 5l4 1c6 1 12-1 18-3m-49 122-3-1c-23-1-42-16-49-38l-6-24-1-2-1 2-7 29-10 16c-9 9-20 15-33 17l-10 1 3 2c14 9 29 15 45 18 8 2 16 2 24 0 16-3 31-9 45-18l3-2m-123-197v-3l-2-12c-1-12-1-25 1-38l6-21c4-7 9-12 16-15l3-1-2-2-19-17-14-9c-3-3-7-4-11-5-8-2-14 0-19 5l-2 2c-5 5-9 11-11 18-5 9-5 19-3 29 2 9 6 16 11 24 7 12 16 22 26 32 4 5 9 8 14 11l6 2m128 0c3 0 5-2 7-3l10-6a187.9 187.9 0 0 0 38-53c3-7 4-15 3-22-1-14-8-26-18-36-4-3-8-4-12-4l-12 3c-6 2-10 5-15 9l-23 20-1 2 3 1c6 3 10 7 14 13l4 9c3 7 4 16 4 24 1 14 0 27-1 41l-1 2m-63-214-2 1c-5 8-12 14-20 20l-12 9-9 7c-5 5-8 11-9 17-2 9-2 17-1 26 2 14 8 28 15 40l1 2 2 1c4-1 5-1 2-5l-1-3a112 112 0 0 1-8-23l2-5 4-1 13-1h38l16 1 6 1c2 1 4 3 3 6l-1 5-8 20-1 3v1l4 1 2-2 7-15c7-15 10-30 8-46 0-10-4-18-12-25l-10-8-13-9c-6-5-12-10-16-17v-1m97 296h-6c-5 0-9-2-12-5-5-4-5-9 0-13 3-2 6-4 10-4 8-1 15 1 22 6l3 3h3c4-3 9-5 12-9 7-7 10-15 9-25-1-9-5-18-10-26-3-5-7-8-13-10l-10-1-11 1c-11 2-21 5-30 11a446.2 446.2 0 0 1-34 98c-6 8-14 14-24 14-2 1-2 1-2 3l2 16a73 73 0 0 0 25 43c10 7 21 9 33 9l4-2c19-12 37-27 52-44l8-11 2-7-4-24c-2-8-7-16-12-23l-4-2-13 2m-160 111h2c13-1 25-5 34-14a72 72 0 0 0 20-42l1-12c1-2 1-2-2-3-5 0-9-1-13-4-5-3-9-7-12-13a569.9 569.9 0 0 1-29-91l-4-5c-15-8-30-11-46-10-8 0-15 4-19 11l-8 21c-4 14 3 27 13 33l7 4c2 2 2 2 4 0l5-3c6-4 12-6 19-5 4 0 7 2 10 4 5 4 5 9 1 13-4 3-8 5-13 5l-18-2c-2 0-3 0-5 2l-10 17c-4 11-6 23-6 35l2 4 7 9c14 16 30 31 48 42 4 3 8 5 12 4m28-314 2 4 8 16c2 2 2 5 3 7 1 5-1 8-6 9h-2l-6 1c-8 2-14 6-17 14l-2 7c-3 10-3 21-2 31a358 358 0 0 0 40 142c3 3 7 5 12 5h8c5 0 9-2 12-6l3-5a317.5 317.5 0 0 0 37-156c0-6-1-12-4-18-3-7-9-12-17-14l-6-1h-3c-4-1-6-4-5-8l2-5 8-18 2-3c1-1 1-2-1-2h-66m171 241 2-3 10-21c8-17 12-35 15-53 2.6-29.4 1.2-59-4-88l-5-20c-7-28-18-53-32-77l-8-14c-9-16.1-20.8-30.3-35-42a1647 1647 0 0 0-36-22c-12-6-25-10-37-14-6-2-11-2-16 0l-15 5a170.1 170.1 0 0 0-88 66l-19 32c-9 17-17 34-22 52l-9 32c-2 10-4 20-4 31-2 18-2 36 0 54 2 14 4 28 9 41 4 15 11 28 18 42l1 2 1-4 2-12c2-11 5-20 12-29l1-2-5-5-9-12c-4-4-6-9-7-15v-20c1-11 7-19 17-24 5-3 11-5 16-6 6-2 13-2 19-1l4 1-2-2a199.3 199.3 0 0 1-33-52c-4-9-6-18-6-28 0-9 2-18 7-26a32 32 0 0 1 41-12l16 10 13 10 2 2v-2c-7-17-9-34-7-52 1-12 6-21 14-29l9-7 14-11c6-4 11-8 16-14l2-1h2l2 1 12 11 16 11 12 11c7 7 11 15 12 24 4 18 2 36-5 54l-1 4 3-3 15-12 14-7c7-3 13-3 20-2 11 3 18 10 23 19 4 9 5 17 4 26-1 10-3 19-8 28-8 17-18 32-30 45l-2 3 8-1c13 0 25 4 36 11 4 3 7 8 9 13 2 4 2 8 2 13v10c0 9-3 17-9 23-4 5-7 10-13 14 11 12 15 28 16 44m36-124c-.3 36.3-7.4 72.3-21 106l-7 17a177 177 0 0 1-66 77c-13 8-27 16-42 21-9 3-19 6-29 7-8 2-16 1-23-1-16-3-31-8-45-16l-27-15c-9-6-17-13-24-21a510.3 510.3 0 0 1-28-36c-8-17-16-34-22-51a297.9 297.9 0 0 1-9-133l10-42c10-31 26-59 48-84l15-18a145 145 0 0 1 82-47l11-2c7-1 13 1 19 2a170 170 0 0 1 46 18c11 7 22 16 31 26l26 31c22 27 37 59 46 94l7 31c2 14 2 27 2 36"/>
    <path d="M415.8 544.5c0 .4-.3 6.8-.2 13.3-6.8.5-5.7-13.3-5.3-15 .2-1.4-4.4 1.7-6.6 3.8.7 1.3 1.7 1 3 .5-.6 6.2 3.8 11.8 9 11.7.1 6.4.8 12.5 2.6 13 .2 0 .5-6.5.6-13.7 12.2-3.8 7.5-18.3 7.5-18.3-.2-.8-2 .4-6 3.9 1.6 1.7 2.4.7 3.6.3 1 1.9 1.4 10.5-5 13l.2-18-.4-.2c-1.8.2-5 3.4-7.5 6 1.4 2.3 3.2.3 4.5-.3m6 19 2.7 2.9 2.8-2.8-2.8-2.8-2.8 2.8Z"/>
  </g>
</symbol></svg>
