<svg xmlns='http://www.w3.org/2000/svg' viewBox='0 0 30 30' fill='none'>
<symbol id='Restaurant'>
<path fill-rule="evenodd" clip-rule="evenodd" d="M15.0206 3.99959V10.277L15.0105 10.287V10.327V10.5669C15.0105 10.5834 15.0075 10.5969 15.0048 10.609C15.0026 10.6189 15.0005 10.6279 15.0005 10.6368C14.9805 12.0163 14.56 13.0059 13.7088 13.5556V25.2108C13.7088 26.1904 12.9078 26.9901 11.9265 26.9901H10.2443C9.26298 26.9901 8.46193 26.1904 8.46193 25.2108V13.5756C7.58076 13.0159 7.09012 12.0263 7.03004 10.7568C7.02697 10.7415 7.02296 10.7262 7.01887 10.7105C7.00963 10.6752 7 10.6385 7 10.5969V3.99959C7 3.44981 7.45059 3 8.00132 3C8.55204 3 9.00264 3.44981 9.00264 3.99959V7.80802H10.014V3.99959C10.014 3.44981 10.4646 3 11.0153 3C11.566 3 12.0166 3.44981 12.0166 3.99959V7.80802H13.0179V3.99959C13.0179 3.44981 13.4685 3 14.0192 3C14.57 3 15.0206 3.44981 15.0206 3.99959ZM11.7162 12.9359C11.7162 12.5061 11.9866 12.1262 12.3971 11.9863H12.4171C12.6374 11.9163 13.038 11.7664 13.038 10.5969V10.5869V9.81719H9.02266V10.377V10.3969C8.99262 11.2866 9.25297 11.8364 9.80369 12.0163C10.2042 12.1562 10.4846 12.5361 10.4846 12.9659V25.0009H11.7162V12.9359ZM20.9971 3.15984H21.678V3.14984C22.4089 3.14984 22.9997 3.7396 22.9997 4.4693V24.651C23.0097 25.3407 22.7694 25.9804 22.3388 26.4302C21.9884 26.8001 21.5177 27 21.0271 27H19.8155C19.3249 27 18.8542 26.7901 18.4938 26.4202C18.0632 25.9704 17.8229 25.3207 17.8429 24.631L18.0832 17.1441L17.6827 16.9941C16.5412 16.5843 15.8703 15.4148 16.0906 14.2253L18.3135 5.33894C18.5438 4.09945 19.6753 3.15984 20.9971 3.15984ZM20.927 25.0008C20.967 24.9408 20.9971 24.8309 20.9971 24.691L20.987 24.7009V24.671V5.16901C20.6366 5.16901 20.3262 5.4189 20.2661 5.76876L18.0432 14.6551C18.0131 14.815 18.1433 15.0349 18.3536 15.1149L19.435 15.5047C19.8455 15.6547 20.1059 16.0445 20.0959 16.4743L19.8355 24.691C19.8355 24.8409 19.8756 24.9508 19.9056 25.0008H20.927Z" fill="currentcolor"/>
</symbol>
</svg>
