<svg xmlns='http://www.w3.org/2000/svg' viewBox='0 0 30 30' fill='none'>
<symbol id='RoomSafe'>
<path fill-rule="evenodd" clip-rule="evenodd" d="M25.01 26.99C26.11 26.99 27 26.1004 27 25.0008V4.98917C27 3.88963 26.1 3 25 3H5C3.9 3 3 3.88963 3 4.98917V25.0108C3 26.1104 3.89 27 4.99 27H25.01V26.99ZM5 24.9908V4.99917L25 4.98917V24.9908H5ZM8.75005 9.37723H9.78005C10.3 9.37723 10.73 9.79705 10.73 10.3268V11.3464C10.73 11.8662 10.31 12.296 9.78005 12.296H8.75005C8.23005 12.296 7.80005 11.8762 7.80005 11.3464V10.3268C7.80005 9.80705 8.22005 9.37723 8.75005 9.37723ZM13.96 9.37746H12.96L12.97 9.36746C12.44 9.36746 12.02 9.79729 12.02 10.3171V11.3167C12.02 11.8464 12.45 12.2663 12.97 12.2663H13.97C14.49 12.2663 14.91 11.8464 14.91 11.3266V10.3271C14.91 9.79729 14.48 9.37746 13.96 9.37746ZM17.1399 9.37746H18.1399C18.6599 9.37746 19.0899 9.79729 19.0899 10.3271V11.3266C19.0899 11.8464 18.6699 12.2663 18.1499 12.2663H17.1399C16.6199 12.2663 16.1899 11.8464 16.1899 11.3167V10.3171C16.1899 9.79729 16.6099 9.36746 17.1399 9.36746V9.37746ZM9.78005 13.5457H8.75005C8.22005 13.5457 7.80005 13.9755 7.80005 14.4953V15.5148C7.80005 16.0446 8.23005 16.4644 8.75005 16.4644H9.78005C10.31 16.4644 10.73 16.0346 10.73 15.5148V14.4953C10.73 13.9655 10.3 13.5457 9.78005 13.5457ZM12.96 13.5456H13.96C14.48 13.5456 14.91 13.9655 14.91 14.4952V15.4948C14.91 16.0146 14.49 16.4344 13.97 16.4344H12.97C12.45 16.4344 12.02 16.0146 12.02 15.4848V14.4853C12.02 13.9655 12.44 13.5356 12.97 13.5356L12.96 13.5456ZM18.1399 13.5456H17.1399V13.5356C16.6099 13.5356 16.1899 13.9655 16.1899 14.4853V15.4848C16.1899 16.0146 16.6199 16.4344 17.1399 16.4344H18.1499C18.6699 16.4344 19.0899 16.0146 19.0899 15.4948V14.4952C19.0899 13.9655 18.6599 13.5456 18.1399 13.5456ZM8.75005 17.7038H9.78005C10.3 17.7038 10.73 18.1237 10.73 18.6534V19.673C10.73 20.1928 10.31 20.6226 9.78005 20.6226H8.75005C8.23005 20.6226 7.80005 20.2028 7.80005 19.673V18.6534C7.80005 18.1337 8.22005 17.7038 8.75005 17.7038ZM13.96 17.7038H12.96C12.43 17.7038 12.01 18.1337 12.01 18.6534V19.653C12.01 20.1828 12.44 20.6026 12.96 20.6026H13.96C14.49 20.6026 14.91 20.1728 14.91 19.653V18.6534C14.91 18.1237 14.48 17.7038 13.96 17.7038ZM17.1399 17.7038H18.1399C18.6599 17.7038 19.0899 18.1237 19.0899 18.6534V19.653C19.0899 20.1728 18.6699 20.6026 18.1399 20.6026H17.1399C16.6199 20.6026 16.1899 20.1828 16.1899 19.653V18.6534C16.1899 18.1337 16.6099 17.7038 17.1399 17.7038ZM21.1899 9.66714C21.1899 9.11737 21.6399 8.66756 22.1899 8.66756C22.7399 8.66756 23.1899 9.11737 23.1899 9.66714V20.3327C23.1899 20.8825 22.7399 21.3323 22.1899 21.3323C21.6399 21.3323 21.1899 20.8825 21.1899 20.3327V9.66714Z" fill="currentColor"/>
</symbol>
</svg>
