<svg xmlns='http://www.w3.org/2000/svg' viewBox='0 0 30 30' fill='none'>
<symbol id='RoomService'>
<path d="M24.7406 11.86H24.0509C23.871 10.42 23.3013 9.04 22.4017 7.93C21.2921 6.53 19.7328 5.54 18.0235 5.14C17.8636 5.1 17.7037 5.07 17.5337 5.04V4.37C17.5337 3.61 16.924 3 16.1643 3C15.4047 3 14.7949 3.61 14.7949 4.37V5.06C14.635 5.09 14.4851 5.1 14.3251 5.13C12.5859 5.54 11.0265 6.54 9.92702 7.93C9.02741 9.07 8.46765 10.44 8.28772 11.86H7.11823L6.39854 9.16C6.16864 8.29 5.37898 7.68 4.47936 7.68H3.99957C3.44981 7.68 3 8.13 3 8.68C3 9.23 3.44981 9.68 3.99957 9.68H4.47936L5.22904 12.49C4.81922 12.88 4.56932 13.42 4.56932 14.01V21.79C4.56932 22.89 5.43895 23.79 6.55847 23.92C6.59845 25.62 7.99785 27 9.70711 27C11.4164 27 12.7958 25.64 12.8558 23.95H18.7132C18.7732 25.64 20.1526 27 21.8619 27C23.5711 27 24.9705 25.63 25.0105 23.92C25.5303 23.86 26.0301 23.64 26.3899 23.27C26.7898 22.86 27.0097 22.33 26.9997 21.79V14.01C26.9997 12.82 25.9901 11.86 24.7506 11.86H24.7406ZM24.9905 14.01L24.9606 21.86C24.9606 21.86 24.8306 21.94 24.7406 21.94H6.81836C6.66842 21.94 6.56846 21.85 6.56846 21.79V14.01C6.56846 13.95 6.66842 13.86 6.81836 13.86H24.7506C24.9006 13.86 25.0005 13.95 25.0005 14.01H24.9905ZM11.5163 9.16C12.336 8.12 13.5055 7.37 14.7949 7.07C15.0948 7 15.4147 6.95 15.7045 6.92C16.0244 6.9 16.3343 6.9 16.6441 6.92C16.944 6.94 17.2439 6.99 17.5437 7.06C18.8332 7.37 20.0027 8.11 20.8423 9.16C21.4621 9.93 21.8719 10.86 22.0418 11.84H10.3169C10.4868 10.87 10.8966 9.93 11.5163 9.15V9.16ZM9.70711 24.99C9.10737 24.99 8.62758 24.52 8.5676 23.94H10.8366C10.7767 24.53 10.3069 24.99 9.69712 24.99H9.70711ZM21.8519 24.99C21.2521 24.99 20.7724 24.52 20.7224 23.94H22.9914C22.9314 24.53 22.4616 24.99 21.8519 24.99Z" fill="currentColor"/>
</symbol>
</svg>
