<svg xmlns='http://www.w3.org/2000/svg' viewBox='0 0 30 30' fill='none'>
<symbol id='SafeReception'>
<path fill-rule="evenodd" clip-rule="evenodd" d="M22.595 6.18397L26.415 12.816C27.195 14.1685 27.195 15.8415 26.415 17.184L22.595 23.816C21.825 25.1685 20.375 26 18.825 26H11.175C9.625 26 8.185 25.1585 7.405 23.816L3.585 17.184C2.805 15.8315 2.805 14.1585 3.585 12.816L7.405 6.18397C8.175 4.84153 9.625 4 11.175 4H18.825C20.375 4 21.815 4.84153 22.595 6.18397ZM20.865 22.8142L24.685 16.1821C25.105 15.4508 25.105 14.5492 24.685 13.8179L20.865 7.18579C20.445 6.45446 19.665 6.00364 18.825 6.00364H11.175C10.335 6.00364 9.555 6.45446 9.135 7.18579L5.315 13.8179C4.895 14.5492 4.895 15.4508 5.315 16.1821L9.135 22.8142C9.555 23.5455 10.335 23.9964 11.175 23.9964H18.825C19.665 23.9964 20.445 23.5455 20.865 22.8142ZM16.8749 18.4063L18.0349 17.2442L19.1949 18.4063L18.0349 19.5684L16.8749 18.4063ZM16.3949 10.2515C17.9949 8.80886 18.7349 8.33801 18.8249 8.66861V8.68865C18.8249 8.68865 20.7149 14.6194 15.7549 16.1622C15.6949 19.1176 15.6149 21.7825 15.5149 21.7524C14.7649 21.5721 14.4849 19.0475 14.4149 16.4528C12.3549 16.5029 10.5849 14.2087 10.7649 11.6841C10.2649 11.8744 9.85494 11.9846 9.56494 11.4637C10.4749 10.6121 12.3249 9.33983 12.2549 9.91087C12.0949 10.6222 11.6549 16.2424 14.4049 16.042C14.3459 13.7937 14.4363 11.5811 14.466 10.854C14.4715 10.7193 14.4749 10.6356 14.4749 10.6121C14.3509 10.6664 14.2192 10.7497 14.0831 10.8357C13.6162 11.131 13.0986 11.4584 12.6649 10.7524C13.6749 9.66041 14.9849 8.36806 15.7149 8.26788C15.7849 8.25786 15.8749 8.28792 15.8749 8.3881C15.8749 8.3881 15.8449 12.175 15.7649 15.7214C18.4349 14.6695 18.2749 11.1531 17.8649 10.3717C17.7637 10.4075 17.6699 10.452 17.5797 10.4948C17.2153 10.6677 16.9079 10.8136 16.3949 10.2515Z" fill="currentcolor"/>
</symbol>
</svg>
