<svg xmlns='http://www.w3.org/2000/svg' viewBox='0 0 30 30' fill='none'>
<symbol id='SafeRestaurant'>
<path fill-rule="evenodd" clip-rule="evenodd" d="M26.415 12.816L22.595 6.18397C21.815 4.84153 20.375 4 18.825 4H11.175C9.625 4 8.175 4.84153 7.405 6.18397L3.585 12.816C2.805 14.1585 2.805 15.8315 3.585 17.184L7.405 23.816C8.185 25.1585 9.625 26 11.175 26H18.825C20.375 26 21.825 25.1685 22.595 23.816L26.415 17.184C27.195 15.8415 27.195 14.1685 26.415 12.816ZM24.685 16.1821L20.865 22.8142C20.445 23.5455 19.665 23.9964 18.825 23.9964H11.175C10.335 23.9964 9.555 23.5455 9.135 22.8142L5.315 16.1821C4.895 15.4508 4.895 14.5492 5.315 13.8179L9.135 7.18579C9.555 6.45446 10.335 6.00364 11.175 6.00364H18.825C19.665 6.00364 20.445 6.45446 20.865 7.18579L24.685 13.8179C25.105 14.5492 25.105 15.4508 24.685 16.1821ZM18.875 21.482V7.89726C18.875 7.77704 18.775 7.68688 18.665 7.68688H18.205C17.645 7.68688 17.155 8.08761 17.055 8.63861L15.955 14.5794C15.865 15.0503 16.135 15.5211 16.585 15.6914L17.315 15.9519L17.145 21.482C17.125 21.9729 17.425 22.3836 17.795 22.3836H18.225C18.595 22.3836 18.895 21.9729 18.875 21.482ZM14.065 8.1078H14.385V8.09778C14.755 8.09778 15.055 8.40835 15.055 8.77902V12.075C15.085 12.8464 14.605 13.5477 13.875 13.7881L13.825 13.8082L14.125 21.5122C14.145 21.993 13.785 22.3938 13.345 22.3938H12.835C12.395 22.3938 12.035 21.993 12.055 21.5122L12.355 13.8182L12.305 13.7981C11.575 13.5577 11.095 12.8564 11.125 12.085V8.77902C11.125 8.40835 11.435 8.1078 11.805 8.1078H12.125V12.085H12.685V8.1078H13.505V12.085H14.065V8.1078Z" fill="currentcolor"/>
</symbol>
</svg>
