<svg xmlns='http://www.w3.org/2000/svg' viewBox='0 0 30 30' fill='none'>
<symbol id='Salad'>
<path d="M26.98 16.4395C26.98 16.2489 27 16.0483 27 15.8577C27 15.5668 26.8801 15.3161 26.6801 15.1355H26.4402C26.7701 13.4002 26.2103 11.8053 24.8809 11.0229C24.1812 10.6116 23.3515 10.5013 22.4919 10.6317C22.6418 10.3809 22.8317 10.1502 23.0716 10.0198C23.5614 9.75901 23.7414 9.14713 23.4715 8.65562C23.2116 8.16411 22.6018 7.98355 22.112 8.25439C21.3224 8.68571 20.8326 9.38787 20.5127 10.08C19.833 9.5283 19.0533 9.21734 18.2337 9.20731C18.1737 9.20731 18.1137 9.20731 18.0437 9.21734C17.9338 9.04682 17.8338 8.8763 17.6939 8.72583C17.2341 8.1942 16.6243 7.84312 15.9646 7.65254V7.25131C15.9646 7.25131 15.9646 7.23125 15.9646 7.22121V6.60934C15.9646 6.05764 16.4144 5.60626 16.9642 5.60626H18.2037C18.7534 5.60626 19.2032 5.15487 19.2032 4.60318C19.2032 4.05148 18.7534 3.6001 18.2037 3.6001H16.9642C16.1945 3.6001 15.4948 3.90102 14.965 4.3825C14.4352 3.90102 13.7355 3.6001 12.9658 3.6001H11.7264C11.1766 3.6001 10.7268 4.05148 10.7268 4.60318C10.7268 5.15487 11.1766 5.60626 11.7264 5.60626H12.9658C13.5156 5.60626 13.9654 6.05764 13.9654 6.60934V7.22121C13.9654 7.22121 13.9654 7.24128 13.9654 7.25131V7.65254C13.3057 7.84312 12.696 8.20423 12.2362 8.73586C12.0462 8.94651 11.8963 9.18725 11.7564 9.43802C11.2666 9.58848 10.8267 9.83925 10.4769 10.2004C9.94711 10.0399 9.37734 10.0298 8.82757 10.1703C8.2778 10.3107 7.78801 10.5916 7.38817 10.9928C6.85839 10.8323 6.28863 10.8223 5.73886 10.9627C4.86922 11.1834 4.13953 11.7652 3.7297 12.5676C3.34985 13.3199 3.28988 14.1926 3.55977 14.9851C3.2299 15.1455 3 15.4766 3 15.8678C3 16.0684 3.01 16.259 3.01999 16.4596C3.01999 16.4997 3 16.5398 3 16.5799H3.01999C3.21991 22.137 5.71887 26.4001 8.87755 26.4001H21.1224C24.2811 26.4001 26.7801 22.137 26.98 16.5799H27C27 16.5799 26.99 16.4897 26.98 16.4495V16.4395ZM21.1224 24.3839H8.87755C7.16826 24.3839 5.27905 21.3446 5.02915 16.8608H24.9708C24.7209 21.3446 22.8317 24.3839 21.1224 24.3839ZM18.5935 11.6047C18.6035 11.5044 18.5935 11.394 18.5935 11.2937C19.1633 11.4542 19.713 11.9557 20.0829 12.7181C20.1029 12.7582 20.1329 12.7783 20.1529 12.8084C20.1928 12.8686 20.2328 12.9287 20.2928 12.9889C20.3328 13.029 20.3828 13.0692 20.4327 13.0993C20.4927 13.1394 20.5527 13.1695 20.6227 13.1996C20.6526 13.2096 20.6826 13.2397 20.7126 13.2497C20.7426 13.2497 20.7826 13.2497 20.8226 13.2497C20.8526 13.2497 20.8825 13.2698 20.9225 13.2798C20.9425 13.2798 20.9625 13.2798 20.9825 13.2798C21.0125 13.2798 21.0325 13.2698 21.0625 13.2698C21.1224 13.2698 21.1824 13.2497 21.2424 13.2397C21.3124 13.2196 21.3823 13.1996 21.4423 13.1594C21.4723 13.1394 21.5023 13.1394 21.5323 13.1294C22.3919 12.5676 23.2915 12.4272 23.8813 12.7682C24.521 13.1394 24.7209 14.0823 24.4211 15.1154H22.7818L18.1637 15.0753L18.5935 11.6247V11.6047ZM13.7455 10.0599C14.3753 9.33771 15.5748 9.33771 16.2145 10.0599C16.5344 10.421 16.6743 10.8825 16.6143 11.3539L16.1545 15.0352L13.8055 15.0151L13.3457 11.3639C13.2857 10.8925 13.4257 10.4311 13.7455 10.07V10.0599ZM5.51895 13.4604C5.66889 13.1695 5.91878 12.9689 6.23865 12.8886C6.55852 12.8084 6.87838 12.8686 7.14827 13.0491L8.08788 13.7011L8.60766 12.678C8.7576 12.3871 9.0075 12.1764 9.32736 12.0962C9.63723 12.0159 9.9671 12.0761 10.237 12.2567L11.1766 12.9087L11.4565 12.357L11.7863 14.9851L5.68888 14.9349L5.46897 14.3832C5.34902 14.0823 5.36901 13.7513 5.51895 13.4604Z" fill="currentcolor"/>
</symbol>
</svg>
