<svg xmlns='http://www.w3.org/2000/svg' viewBox='0 0 696 830' fill='none'><symbol id='SAOC_Fill'>
  <g fill="none">
    <path fill="#A7BFB9" d="M105.4 428v-18l1-19c1.7-22.2 5-44.3 10-66l14-43 16-40a464.2 464.2 0 0 1 58-85c22-21.5 49.3-37 79-45l21-7c8-2 15-3 23-3l17 1h9c16-2 31-1 46 4l33 12c34.6 13.9 64.3 38 85 69a383.3 383.3 0 0 1 33 55l19 49c7 19.4 12 39.5 15 60l3 20 1 8 1 16 1 27v13l-1 14c-.6 17.4-2.3 34.8-5 52l-2 20c-2 13-6 26-10 39a296.5 296.5 0 0 1-66 100l-14 14a159 159 0 0 1-87 45c-16 2.5-32 4.8-48 7h-8c-9 0-17 0-25-2l-26-4c-15-2-30-6-44-12-18-8-34-17-48-31l-22-22a260.2 260.2 0 0 1-51-72 228 228 0 0 1-20-65l-4-29-3-26-1-36"/>
    <path fill="#FFF" d="m125.4 446 1 22 4 26c4.5 19.1 9.5 38.1 15 57a250.3 250.3 0 0 0 52 81l23 23a166.2 166.2 0 0 0 68 39c12 4 25 6 38 9l17 1 25-1h1l27-6c29-5.5 55.8-19.4 77-40 14.6-14.4 29-29 43-44 31.8-41.3 50.6-91 54-143l1-15c.8-16.4 0-32.8-2-49l-3-27-3-24c-3-18-9-35-15-53l-17-44a493.3 493.3 0 0 0-48-77 110.6 110.6 0 0 0-52-37 361.4 361.4 0 0 0-63-16l-9-1-14-1c-9.4.2-18.8 1.2-28 3l-22 5-32 10c-21 7.5-39 21.1-52 39a519.6 519.6 0 0 0-45 72l-14 36a329.6 329.6 0 0 0-23 89l-1 20-1 12-2 18v16m-5-19v-18l1-19 1-10 3-25c3.3-23.8 10-47.1 20-69l12-33 16-30c10-15 21-30 33-44l21-19c16-12 33-21 51-27 14.5-4.5 29.2-8.5 44-12h21c8 .3 16-.1 24-1l13 2 13 2 37 13c25.2 11 47.5 27.8 65 49 10 11 18 24 27 36 7 11 13 22 17 34l16 40c6 18 12 35 15 54l3 26 2 20 1 19v17l-1 22-2 20-2 18-6 40a291.9 291.9 0 0 1-83 130c-20 19-44 31-71 38l-25 5a536.2 536.2 0 0 1-40 4c-10 0-19-1-29-3l-20-4a163.8 163.8 0 0 1-80-37 471 471 0 0 1-52-60l-17-27a202.2 202.2 0 0 1-22-72l-3-23-1-19-2-18v-19"/>
    <path fill="#FFF" d="M380.4 242h1l1-2-1-2-2-1c-1-1-1 1-1 2l1 2 1 1m13 4-1-2-6-1v2l3 4h1c2 0 3-1 3-3m-10 6c2 0 4-2 3-4l-2-3h-2l-2 3c0 2 2 3 3 4m7-10h1l2-1 1-3c-1-1-2-2-3-1l-3 2c-1 1-2 1-2 3h4m-103 7h1c2 0 2-2 1-3l-5-2h-2v2c1 2 3 4 5 3m101-13c0-2 0-4-2-4-1-1-2 0-4 1v3l1 4 2 1 3-4v-1m-96 8 1 1 1-1 5-2c2-1 3-2 1-4l-1-2c-1-1-3-2-4 0l-3 8m-2 9v1l6 3 3-3c0-2 0-3-2-4l-4-1h-2l-1 4m10-10-6 3v2h1l6 2h2l2-3c0-2 0-3-2-3l-3-1m-17-4 2 3 3 1 2 2 1-3v-3c0-2 0-3-2-4h-4l-2 2v2m11 69 6-3v-1c-1-2-3-4-5-4-3-1-5 1-6 3v1c1 2 2 4 5 4m15 8c2 1 3 0 3-1 2-3 1-6-1-7l-5-2-2 2 1 6 2 2h2m-10-25h-1l-3 3 1 4 5 5h2l2-6-1-3c-1-2-3-3-5-3m17 10-1-3-3-3c-2 0-5 1-6 3l-1 3c-1 3 0 3 2 3l4 1c3 1 5-1 5-4m-13 11-1-4-3-1-4 2-1 1c-2 4-1 6 2 8s6 0 6-3l1-3m103 171 13-1c11-2 21-6 31-14l13-10c1 0 3-1 2-2l-2-1h-3l-13-2-14-3-16-5-8-1-15 3-9 2-14 1h-1l-1 2 1 1 14 18 11 11 5 1h6m-226-53 1 21 1 11v3l1 1h1l2-2 8-11 17-19a250.4 250.4 0 0 0 24-33c4-9 6-18 6-29l1-14v-3c-1-1-2 1-2 2l-2 1-14 16-23 20-18 14-2 6-1 16m64-37h-1l-1 2a249.4 249.4 0 0 1-39 55l-10 10-7 10c6.9 4.2 13.9 8.2 21 12l10 2h11c5 0 10 1 14 3 10.7 3.4 20.8 8.5 30 15h1l-1-4-3-15-3-26-6-20-4-10a171.8 171.8 0 0 1-12-34m129-3h1l-1 4-1-1-1-2-1-4-8-15h-2l-2 4c-5 7-11 13-19 18l-8 5-2 2v3l6 9 4 6 8 11c3 3 6 3 9 2 7-2 14-5 20-10l3-3 25-14 3-1 9-7 3-5 5-13c2-3 3-7 6-10v-8c-5-9-8-19-8-30v-8l-1-9-2-2-1-1v1l-1 3c0 4-1 8-4 12l-10 17c-4 8-9 14-16 19l-10 8c-3 2-4 5-4 9v10m140 39v-12c0-3-1-5-4-6l-4-1-8-3c-8-2-14-6-17-14l-6-12c-1-4-3-7-6-10l-4-3c-8-6-13-14-17-23l-5-14-4-10c-2-4-5-8-9-10l-5-3h-2c-2 0-1 2 0 3 2 4 3 9 3 14l2 14c2 12.7 6.5 24.9 13 36l2 5v1h-1l-5-8-2-4h-2l-1 1-8 15c-3 7-4 14-4 21l-1 12-3 13-1 1-1-1 1-3 3-19v-7l-2-1-1 1-9 6-9 7c-9 7-19 13-30 16l-9 3c-2 1-2 2-1 3l6 6c1 2 3 3 5 3l12-1 10-2 11-1h14l11 1 19 5c10 3 20 4 30 4l3-1 13-2 12-1 7-2c3 0 4-2 4-4v-13m-146 53h16l-1-2-5-3-7-11-13-22-8-7-2-1c-6-3-10-7-13-12l-2-6c-2-4-3-7-6-10-2-2-4-4-8-5h-7c-4 0-7-2-9-6l-2-6-1-2h-1v1l-2 12c0 7 1 13 4 19l5 10 2 10c1 1 2 3 1 4l-2-4c-2-8-6-15-10-22h-1l-1 1a88.2 88.2 0 0 0-6 17h-1v-2c0-4 1-9 4-12l3-7v-4l-1-10 1-15v-2l-1-1-1 1-11 4h-1l-1 3 2 5 3 9v3c-2 1-3-1-3-2-4-4-6-9-8-14l-8-14a116 116 0 0 1-17-23l-1 1v2c.5 10 1.2 20 2 30 1 8 4 14 6 21l11 27 3 18 1 10 3 20 4 14 1 3 3 1 10-6 24-8a389 389 0 0 0 43-7h9m-25 9h-21c-6 1-12 3-16 6l-9 7c-3 3-6 5-10 6l-2 1v1l2 2c5 4 10 7 16 9l22 4c6 0 13 2 19 5l13 6 14 5 5 2c-1 2-3 0-5 0h-2c-10-2-20-5-29-9l-9-2a165 165 0 0 1-36-9l-13-6c-9-3-17-9-25-14l-12-8c-4-2-8-3-13-3l-8-1-10-1c-4 0-8-2-12-4l-14-8-2-1-1 2 1 2c2 11 5 21 9 32l13 27c7 14 16 27 27 38a235.3 235.3 0 0 0 89 58l14 3c6 2 13 2 19 0l5-1c13-3 25-8 37-14a356.5 356.5 0 0 0 42-28 232.1 232.1 0 0 0 40-44l10-19 1-3v-1l-4 1-20 5c-5 1-10 4-14 7l-8 5c-15 12-31 21-49 27l-24 6-34 7-21 3-11 2v-1l9-2 37-9a397.5 397.5 0 0 0 95-42c8-5 17-10 27-12l19-3 3-2 2-6a222.6 222.6 0 0 0 13-52l1-9c1-5-1-6-5-4l-18 6-18 6c-7 2-14 4-20 8-9 5-19 9-28 12-7 3-14 4-22 6-6 2-13 2-20 1l-16-1h-5l-18 1m-77-177h12c4.9-.5 9.6-1.9 14-4v-1l-2-1c-4-4-2-9 1-10l2-1 2-2v-1c1-4 5-6 8-5 2 0 3 1 3 2l2 3 2 1 1-1c3 0 5 0 7 3 2 2 2 4 0 6 0 2-1 3-2 3l-1 3c2 3 1 5-1 8-1 2-4 3-6 2l-3-1-3 2c-4 2-8 1-9-3h-4c-5 3-11 4-16 4l-12-1-5-1h-9c-9.5 2.1-18.8 4.8-28 8-6.4 2.2-12.7 4.5-19 7-1 2-3 3-3 6l-1 4-7 25-6 23v2h2l6-6c8-7 16-13 25-16 5-2 9-5 12-8a182 182 0 0 0 16-18c1-2 5-2 6 0l2 2 2 3c3 8 8 15 14 21l8 10c1 2 1 2 3 1l2-1 17-5c5 0 5 0 8 4l3 8c5 7 4 8 14 11 1 1 2 1 2-1l9-9a1080 1080 0 0 1 25-23l3-3 1-1h1l3 2 3 4h2l6-5c6-4 11-9 15-15l17-22 4-9 1-8 2-8h3l12 6c4 3 8 6 10 10l4 8 17 28 9 12c3 4 5 8 6 13v3l4 8 7 4 20 10 2 1 2-1v-2c-1-7-1-14-3-20l-10-36c-4-17-11-33-20-49l-17-31c-8.6-16-20.5-30-35-41l-15-11-21-11c-12-6-25-10-37-14-4-1-8-2-13-1l-7 3c-8 3-17 5-25 9-14 5.3-27.2 12.7-39 22-8 5-15 11-21 18l-3 5-11 15-9 16c-6 10-12 19-17 30l-6 14v1h1l21-6c7-2.6 14-5.2 21-8l2-3 2-10 1-6-1-4-1-2c0-2 1-4 3-5l5 2c1 2 1 4-1 5l-1 1c-2 1-3 2-3 4v9l1 1 1-1c4-4 7-8 9-14l1-3c3-6 5-12 9-17l9-9c2-2 2-2 0-4l-3-3c-1-2-1-4 1-5l1-4 1-3c1-3 4-4 7-3l2 2h2c4-3 7-3 9 1l2 3c-1 2 0 3 1 4l2 5c0 2-1 4-4 5-2 0-2 0-3 2 0 2-2 3-4 4l-5-1-3-3-1-1-11 14a48.4 48.4 0 0 0-5 12v1h1c6-3 13-5 19-6l12-3c9-1 17-4 25-7 3-1 5-3 5-5l1-3c1-3 1-5-2-6l-1-1-2-4c1-3 4-6 7-4 3 1 4 4 3 7l-2 12c6-2 12-5 17-9l6-4 11-5 3-1 1-2v-1c1-2 1-4 4-4l1-1 1-2c2-3 6-3 8 0v2l2 1h1c3 1 5 3 4 6l-1 5v1c-1 3-3 5-5 4l-4 1h-1c-2 1-4 0-5-1s-2-3-1-5l1-1h-1l-2 1-24 13 1 1c7-1 13 1 20 2l10 1 4-1 8-9 3-1c2 0 4 2 4 4s-2 3-4 3h-2l-3 1-3 2v1h5l16-2 5-1 1 1-1 1-3 2-9 3c-10 4-20 5-30 2l-17-4-13 1a61.4 61.4 0 0 0-19 9v1h1l15 7 21 8 7 2 2 1h-15v1l2 2 6 9 4 7v2c0 1 0 2-2 3h-4l-1-4 1-1v-4l-3-6c-5-7-11-12-19-14h-1v1c3 5 4 9 4 15v6c0 8 2 16 7 23l1 2 1 2v1h-1c-7-7-11-15-12-25v-9l-1-8c-3-9-10-14-19-16h-7l-21 2-6 1c-2 0-5 1-7 3l-11 9-14 15v2l11 1m256 106-1 22a283 283 0 0 1-20 83l-11 24c-5 11-12 22-21 32l-11 13c-8 9-18 17-28 24l-28 15c-13 7-26 11-40 14l-20 1-10-2c-14-3-28-7-41-14-12-6-24-13-35-21a300.9 300.9 0 0 1-36-38c-6-7-10-15-14-23l-13-30a199 199 0 0 1-18-69 314 314 0 0 1 4-81l8-30 9-27c9.7-21.7 22.5-42 38-60 9.2-11.1 18.5-22.1 28-33l16-13c7-5 14-10 22-13 9-3 17-7 27-9l20-4 9 1a163.2 163.2 0 0 1 60 24 404.4 404.4 0 0 1 31 29l12 14a245.6 245.6 0 0 1 59 131l2 15 2 25"/>
    <path fill="#A7BFB9" d="m265.4 314-11-1v-2l14-15 11-9c2-2 5-3 7-3l6-1 21-2h7c9 2 16 7 19 16l1 8v9c1 10 5 18 12 25h1v-1l-1-2-1-2c-5-7-7-15-7-23v-6c0-6-1-11-4-15v-2h1c8 3 14 8 19 14 2 2 3 5 3 7v4l-1 1 1 4h4c2-1 2-2 2-4v-1l-4-7-6-9-2-2v-1h15l-2-1-7-2-21-8c-5-2.9-10.4-5.3-16-7v-1l1-1c5-3 11-6 18-8l14-1 16 4c10 2 20 2 30-2 4-1.5 8-3.2 12-5l1-1-1-1-5 1-16 2h-5v-1l3-2 3-1h2c2 0 4-1 4-3s-2-4-4-4l-3 1-8 9-4 1-10-1c-7-2-13-3-20-2l-1-1 1-1 23-12 2-1h1l-1 1c-1 2 0 4 1 5s3 2 5 1h1l4-1c2 1 4-2 5-4v-1l1-5c1-3-1-5-4-6h-1l-2-1v-2c-2-3-6-3-8 0l-1 2-1 1c-3 0-3 2-4 4v1l-1 2h-2l-12 6-6 4c-5 4-11 7-17 9h-1v-1l3-11c1-4 0-6-3-8-3-1-6 2-6 4-1 2 0 3 1 4l1 2c3 1 3 3 2 6l-1 3c0 2-2 4-5 5-8 3-16 6-25 7l-12 3c-6 1-13 3-19 6h-1v-3l5-11 11-13c0-1 1-1 1 1l3 3h5c2 0 4-1 4-3l3-3c3 0 4-2 4-5l-2-4c-1-1-2-2-1-4l-2-4c-2-3-5-3-9 0h-2l-2-2c-3-1-6 0-7 2l-1 4-1 4c-2 1-2 3-1 5l3 3c2 2 2 2 0 3a67.6 67.6 0 0 0-18 27l-1 3c-2 5-5 10-9 14l-1 1-1-1v-9c0-2 1-3 3-4l1-1c2-1 2-3 1-5l-5-2c-2 1-3 2-3 4l1 3 1 3-1 7-2 10c0 2-1 3-2 3l-9 5-12 3-21 6h-1v-1l6-15 17-29 9-16 11-15 3-5c6-7 13-13 21-18l9-6c9-7 20-12 30-17l25-8 7-3c5-1 9-1 13 1l37 13 21 12 15 11c6 4 11 8 15 14l5 5c6 6 11 14 15 22l17 31c9 16 16 32 20 49l10 36c2 6 2 13 3 20v2l-2 1-2-1-19-10-8-5-4-8v-2c-1-5-3-9-6-13l-9-12c-8.8-10.9-16-23-21-36-2-4-6-8-10-10s-9-4-12-7l-3 1-2 8-1 8-4 9-17 22c-4 6-9 11-15 15l-6 5h-2l-3-4-2-2h-2l-1 1-3 3c-3 5-8 9-13 13-7.8 6.6-15.4 13.2-23 20-10-3-9-4-14-11l-3-8c-3-4-3-4-8-4l-17 5-2 1c-2 1-2 0-3-1l-8-10c-6-6-11-13-14-21a27.4 27.4 0 0 0-4-5c-1-2-5-2-6 0a160.8 160.8 0 0 1-16 18c-3 3-7 6-12 8-9 3-17 9-25 16l-6 6h-1l-1-1 1-1 5-24 7-24 1-4c0-3 2-4 4-6l8-4 10-3 19-6 9-2h14l12 2c5 0 11-1 16-4h4c1 4 5 5 9 3v-1l3-1c1-1 2 0 3 1 2 1 5 0 6-2 2-3 3-5 1-8l1-3 2-3c2-2 2-4 0-7-2-2-4-2-7-2l-1 1-2-1-2-3c0-1-1-2-3-2-3-1-7 1-8 5v1l-2 2-2 1c-3 1-5 6-1 10l2 1v1h-1c-4 2-8 4-13 4h-12m77 177 18-1h5l16 1c7 1 14 1 21-1l21-6c9-3 19-7 28-12 6-4 13-6 20-8l18-7 18-6c5-1 6 0 5 5v9c-2.3 17.9-7 35.4-14 52l-2 6-3 2-18 3c-10 2-20 6-28 12a402 402 0 0 1-95 41l-37 10-9 2v1l12-2 20-3c19.4-4.1 38.7-8.4 58-13 18-6 34-15 49-27l8-5c4-4 9-6 14-7l20-5 4-1v1l-1 3-10 19-13 18a231.8 231.8 0 0 1-106 68l-5 1c-6 2-13 2-19 0l-13-3c-10-3-19-7-28-12a348.4 348.4 0 0 1-62-46c-11-11-20-24-27-38l-13-27c-4-11-7-21-9-32l-1-2 1-2 2 1 14 8c4 2 8 4 12 4l10 1 9 1 12 3c5 2 9 5 12 8 8 5 17 11 25 14 5 2 9 5 14 6 11.2 4.6 23 7.6 35 9l9 2c9 4 19 7 29 9h2c2 0 2-1 1-2l-15-5-13-6c-6-3-12-5-19-5l-22-4a43 43 0 0 1-18-11l1-1 1-1c4-1 7-3 10-6l9-7c4-3 10-5 16-6h21"/>
    <path fill="#A7BFB9" d="M367.4 482h-9l-16 2-27 5-24 8-10 6-3-1-1-3-4-14c-3-15.9-5.3-31.9-7-48l-10-27c-3-7-6-13-7-21l-2-15 2-17c4 8 10 15 16 22 4 4 6 9 8 14l8 14c1 1 1 3 3 2v-3l-3-9-2-5 1-3h1l11-4 1-1 1 1v2a58.5 58.5 0 0 0 0 25v4l-3 7a38.2 38.2 0 0 0-4 14h1l1-3 5-14 1-1h1c4 7 8 14 10 22l2 4v-4l-3-10-5-10c-3-6-4-12-4-19 .2-4.4.8-8.8 2-13h1l1 2 2 6c2 4 5 6 9 6h8l7 5c3 3 4 6 6 10l2 6c3 5 8 9 13 12l2 1c4 2 6 4 8 7l13 22 7 11 5 3 1 2h-16Zm146-53v13c0 2-1 4-4 4l-7 2-12 1-13 2-3 1c-10 0-20-1-30-4-10-2.3-20-4.3-30-6h-14l-11 1-10 2-12 1c-2 0-4-1-5-3l-6-6c-1-1-1-2 1-3l10-3c11-3 20-9 29-16l9-7 9-6 1-1 2 1v7l-3 19v4l1-1c2-4 3-9 3-13l1-12c0-7 1-14 4-21l8-15 1-1h2l2 4 6 8v-1c-1.5-3.7-3.2-7.4-5-11-5-9-8-20-10-30l-2-14c0-5-1-10-3-14-1-1-2-3 0-3h2l5 3c4 2 7 6 9 10l4 10 5 14c4 9 10 17 17 23l4 3c3 3 5 6 6 10l6 12c3 8 9 12 17 14l8 3 4 1c3 1 4 3 4 6v12Z"/>
    <path fill="#A7BFB9" d="m372.4 393-2-6-8-15h-2l-2 4c-5 7-11 13-19 18l-8 5-2 2v3l6 9 4 6 8 11c3 3 6 3 9 2 7-2 14-5 20-10l3-3 25-14 3-1 9-7 3-5 5-13c2-3 3-7 6-10v-8c-5-9-8-19-8-30v-8l-1-9-2-2-1-1v1l-1 3c0 4-1 8-4 12l-10 17c-4 8-9 14-16 19l-10 8c-3 2-4 5-4 9v3l-1 10Zm-128 0 1 4c3 10 6 20 11 30l4 10c3 6 4 13 6 20l3 26 3 15 1 4h-1l-2-1c-9-6-18-11-28-14-4-2-9-3-14-3h-11l-10-2-7-3c-4.7-2.9-9.4-5.9-14-9l7-10 10-10c11-11 21-23 29-36a79.5 79.5 0 0 0 11-21h1"/>
    <path fill="#A7BFB9" d="m180.4 430 1-16 2-6 18-14 23-20 14-16 2-1c0-1 1-3 2-2v3l-1 14a71 71 0 0 1-15 44l-15 18-17 19-8 11-2 2h-1l-1-1v-3l-1-11-1-21m226 53h-6l-5-1-11-11-14-18-1-1 1-2h1l14-1 9-2 15-3 8 1 16 5c9 1.9 18 3.6 27 5h3l2 1c1 1-1 2-2 2l-13 10a73.7 73.7 0 0 1-44 15m-103-170-1-5-3-1-4 2-1 1c-2 4-1 6 2 8s7 2 7-5Zm13-12c0 3-2 5-5 4l-4-1c-2 0-3 0-2-3l1-3c1-2 4-3 6-3l3 3 1 3m-17-10c2 0 4 1 5 3l1 3-2 6h-2l-5-5-1-4 3-3h1m10 25h-2l-2-2-1-6 2-2 5 2c2 1 3 4 1 7 0 1-1 2-3 1m-15-8c-3 0-4-2-5-4v-1c1-2 3-4 6-3 2 0 4 2 5 4v1l-6 3m-11-69v-2l2-2h4c2 1 2 2 2 4v3l-1 3-2-2-3-1-2-3m17 4 3 1c2 0 2 1 2 3l-2 3h-2l-6-2h-1v-2l6-3m-10 10 1-4h2l4 1c2 1 2 2 2 4l-3 3-6-3v-1m2-9 3-8c1-2 3-2 4 0l1 2c2 2 1 3-1 4l-5 2-1 1-1-1m96-8v1l-3 4-2-1-1-4v-3c2-1 3-2 4-1 2 0 2 2 2 4m-101 13c-2 1-4-1-5-3v-2h2l5 2c1 1 1 3-1 3h-1m103-7h-4c0-2 1-2 2-3l3-2c1-1 2 0 3 1l-1 3-2 1h-1m-7 10c-1-1-3-2-3-4l2-3h2l2 3c1 2-1 4-3 4m10-6c0 2-1 3-3 3h-1l-3-4v-2l6 1 1 2m-13-4-1-1-1-2c0-1 0-3 1-2l2 1 1 2-1 2h-1"/>
    <path fill="#FFF" d="M466.2 488.9c0 .4-.3 6.8-.2 13.3-6.8.5-5.7-13.3-5.3-15 .2-1.4-4.4 1.7-6.6 3.8.7 1.3 1.7 1 2.9.5-.5 6.2 3.9 11.8 9 11.7.2 6.4.9 12.5 2.7 13 .2.1.5-6.5.6-13.7 12.2-3.8 7.5-18.3 7.5-18.3-.2-.8-2 .3-6 3.9 1.6 1.7 2.4.7 3.6.3 1 1.9 1.4 10.5-5.1 13.1l.3-18c0-.2-.2-.3-.4-.3-1.8.2-5 3.4-7.5 6.1 1.4 2.1 3 .1 4.5-.4M472 508l2.8 2.8 2.8-2.8-2.8-2.8-2.8 2.8Z"/>
  </g>
</symbol></svg>
