<svg xmlns='http://www.w3.org/2000/svg' viewBox='0 0 696 830' fill='none'><symbol id='SCHC_Outline'>
  <g fill="none">
    <path fill="#FDBE00" d="m569 438.2-1-15-2-27a672 672 0 0 0-7-51c-3-15-8-29-13-44l-16-41c-5-14-12-28-20-40l-28-38a112.7 112.7 0 0 0-55-39 387.2 387.2 0 0 0-60-15l-11-1-17-1-14 2-13 2a423.4 423.4 0 0 0-54 16c-8 3-15 6-22 11-9 7-17 15-24 23-11 13-20 27-30 41-7 11-13 23-18 36-8 22-16.4 44-25 66a268.4 268.4 0 0 0-13 78l-2 30a228.8 228.8 0 0 0 10 87 229.4 229.4 0 0 0 62 115c13.5 12.5 27.1 24.9 41 37 17 12 35 21 55 26l28 6 16 2c10 1 20 0 29-1h2l26-6 21-5c20-7 39-18 55-33a597.8 597.8 0 0 0 39-39 255.5 255.5 0 0 0 59-139l2-28v-15m6-16-1 27-2 22-2 17c-1 13-2 26-5 40a291.4 291.4 0 0 1-62 112l-25 24a146.3 146.3 0 0 1-77 38l-28 5-14 2c-13 1-26 .4-39-2l-25-4a160.5 160.5 0 0 1-79-37l-31-32a263 263 0 0 1-63-152l-2-17-1-17-1-25c.3-17 1.3-34 3-51l3-19c3-23 10-45 19-67l12-32a447.7 447.7 0 0 1 49-75l20-19c16-12 33-21 52-28 14.5-4.5 29.2-8.5 44-12h51c10 1 20 4 30 7l18 6 33 16c15 10 29 21 41 35a496.6 496.6 0 0 1 44 68l17 47a271.7 271.7 0 0 1 18 83l1 12 2 28"/>
    <path fill="#FDBE00" d="m512 432.2-1-25-4-26-10-36c-2-10-6-20-10-30l-3-4v5c1.3 14.3 1.3 28.7 0 43l-3 18v17l2 14 2 19 1 18-2 24v21l1 12c1.5 11.9 2 24 1 36h1l1-3 13-31c5-14 8-29 9-44l2-28m-333-3c0 25.3 3.3 50.6 10 75l16 37 1 1h1v-3l-1-14 3-33v-26a215.7 215.7 0 0 1-1-44l2-16 2-19-3-24a174.6 174.6 0 0 1 0-54v-4l-1 1-1 2c-5 10-9 19-12 30l-9 33a167.4 167.4 0 0 0-7 58m288-144h3l1-1-2-3-8-15a138.5 138.5 0 0 0-36-42l-17-11-19-11-36-13c-4-1-9-2-13-1l-8 3-24 8c-11 5-22 11-32 18l-11 7-5 4-12 12-16 22-12 20-1 2 1 1h1l42-4v-6l1-9c1-4 1-4 5-5l20-2 4-2c1-4 3-7 6-10 4-5 8-8 14-10l17-5 14-2h4c5 0 11 1 16 3l15 4c6 2 11 5 15 10l5 8 1 2c1 1 1 2 3 2l19 2c6 1 6 1 7 7v11l1 2c0 2 1 2 3 3h17l17 1m-123 357 14-2c15-3 28-8 41-16l21-13c19-12.6 35.8-28.2 50-46h-2l-24 1-14 2c-8 1-15 2-23 0h-22l-27 3a141 141 0 0 1-43-2c-7-1-15-2-23-1h-6c-6 1-12 2-18 1l-8-1-18-2c-7-1-14-1.6-21-2h-2l1 1 1 2a297.2 297.2 0 0 0 101 71l13 3 9 1m98-83h20c6 0 11-3 13-9 2-3 2-7 2-10l-1-8v-15l2-22 1-12-2-17a181.8 181.8 0 0 1-1-62c1-9 2-19 0-28l-1-15-2-23 1-32v-9c0-4-2-6-5-7h-3l-30-2-5-1c-3 0-5-2-5-5l-1-11v-4l-2-1-21-1c-3 0-6-1-8-4l-6-6-12-12c-5-4-10-6-16-6l-21 1-9-1-9 3-6 5c-6 4-10 9-15 15l-3 3-5 2-14 1h-9l-1 1-1 15-1 2-3 3-6 1-30 2h-4c-3 1-4 3-5 6v5l1 11v22c1 13-1 25-2 37-2 11-2 21-1 32l1 7c1.4 15.6 1.4 31.4 0 47l-3 13v22l2 13v35c-1 3 0 6 1 9 2 6 7 10 13 10h32c8-1 17-1 25 2 10 4 20 4 31 3a127 127 0 0 1 32-2c8 0 17 0 25 2l10 1c7 0 14-1 20-3 7-3 15-4 22-3h15m-271-139c.3-16.4 2-32.8 5-49l7-28a231 231 0 0 1 45-88l10-11 9-11 14-15c9.1-7.7 18.8-14.7 29-21a185.7 185.7 0 0 1 51-16l13 1a155.5 155.5 0 0 1 62 25c8.7 7.6 17 15.6 25 24l19 22a239.2 239.2 0 0 1 50 100c3.5 17.2 6.5 34.6 9 52a551 551 0 0 1-2 53c-3.3 21.9-9 43.4-17 64l-13 28c-6 12-13 23-21 33l-12 13a255 255 0 0 1-66 42c-9 4-18 7-28 8l-2 1c-7 2-14 1-20 1l-17-3a314.3 314.3 0 0 1-58-26c-12-9-24-19-33-30a524.8 524.8 0 0 1-25-36c-6-13-13-26-18-40-8.8-22-13.9-45.3-15-69l-1-24"/>
    <path fill="#FDBE00" d="M337 314.2c0 5 4 8 9 7l7-4c2-2 2-4 2-6l-1-2c-2-3-4-4-7-4l-5 2c-4 1-5 3-5 7m-8 44 1-1 1-1 4-16 4-12 1-3-1-2-1 1h-1l-2 5-2 4c-1 3-3 5-5 6l-2 1v-1c3-2 5-5 5-8l1-4 2-5 1-2-3 1-8 6c-4 3-8 5-13 6l-6 4v2l9 11c4 4 9 6 14 8h1m-69 156c0 2 1 2 3 2h4c6-1 12-2 18-1l2-2 2-9c1.8-9.1 4.2-18.1 7-27l-1-2-4 1-5 4-7 7c-3 3-7 5-12 5-2-1-5 1-6 3l-1 4v15m41-180c1 2 2 2 3 1l5-3 16-10 8-4 1-1h-1l-8 1-5 2-3 1-1-1h1c2 0 5-1 7-3l2-1 6-2 1-1 2-1-1-2-8-4h-3l-4-2-1-1v-1c3 2 6 2 10 2l6 1c2 2 2 2 3-1h1v-4l-4-6-4-4v-1h1c1 2 2 3 4 3 2 2 5 4 6 7 0 2 0 2 2 1h2l2-1 4-9 1-5h1v8l-2 7c-1 1-1 2 1 3h1l3 1 6-5 4-4h1l-5 8-4 4c-2 1-2 1-2 3l1 3 1 1 6-1c3 0 6 0 9 2l-1 1h-8c-2 1-5 2-7 1l-1 1c-2 2-2 4 0 7l4 3 5 5 1 3h-1l-1-1c-1-3-3-5-5-6-3 0-6-1-7-4h-2c-1 1-2 1-1 2l1 5v6l-2 5h-1l1-2c1-4 1-7-1-10l-2-4-2-2-1 2v1l-5 23-2 7 1 2 9 1h4l4-1 11-2c5-1 10-4 14-8l11-12 1-2c4-5 5-10 4-17l-2-6c-2.6-8.7-5.2-17.4-8-26-2-5-6-9-11-11l-5-2-11-4-5-3c-3-1-6-2-9-1l-4 2-16 7-2 1c-7 2-11 6-13 13l-2 5-6 20c-1 3-2 12 1 20m61 183 16 1c7 1 15 1 22-1 4-2 9-3 13-2l12 1h6c1 1 2 0 2-1l-1-14c0-3-1-5-3-7l-4-3c-4-2-8-5-10-9l-2-2h-3l-7 4-14 7-4 3-1-1 7-6 2-3-1-1c-5-3-9-6-12-11l-3-5c-2-3-5-4-8-5a16 16 0 0 1-12-5c-2-2-3-2-6 0l-2 2-5 7 16 13 3 3 1 1-2 1-1-1c-7-2-14-6-20-11l-5-5-4-3h-4l-5 3-8 7a16 16 0 0 1-12 3l-1 2-1 1-8 26-4 8 1 2 15 3 15-1h32l10-1m-102-30c0 2 1 2 2 1l5-1c2 1 4 0 6-1l6-3 9-7c2-2 5-3 8-3l3-3 2-8 12-42c3-14.7 7.3-29.1 13-43l3-11-2-3-5-3-9-6c-5-2-10-5-13-10-1-2-2-2-3-1l-8 4-1 1c-1 0-2 0-1-1l8-7c2-1 2-2 2-5l-1-7-2-13v-1l-1-1h-2l-20 2h-7l-1 2v12l-2 14-1 10 2 20c2 12 1 24-1 36-2 11-2 22-1 33l2 31-2 14m170-171-3-1-19-1-7-1c-2 0-2 0-3 2l-1 14-2 9c-1 6-5 11-11 14l-5 3-8 4-8 5c-3 2-7 4-11 3h-11c-2 1-5 0-7-1-2 0-2 0-3 2-3.3 9-5.6 18.5-7 28-2 12-5 24-10 35-4 10-7 21-9 32l-2 8c0 1 1 2 2 1l7-2 11-7 4-2c3-1 5-2 7-1l5 3c2 1 2 1 3-1l8-6c3-3 6-5 11-1l8 4 10 7 6 6 10 9h3l7-4c4-1 7-1 10 1l15 11h2v-2l-1-22 1-20c2-12.6 1.6-25.5-1-38-.5-17-.2-34 1-51 1-5 1-10-1-15l-2-13 1-12m9 8-2 17v16c2 13.3 2.2 26.7 1 40-1 10-2 19-1 29l2 22c1 11 1 23-1 35l-1 20-1 13c0 4 0 5-5 5l-14 2-6 1-11-1c-8-1-16-1-25 1l-16 2-6-1h-12c-7 1-13 1-20-1l-16-2-17 2c-2 0-3 0-3 2 0 0-1 4-3 4l1-5-1-1h-1l-18-2h-1c-5-1-5-2-6-7v-10l-2-24c-1-9-2-17-1-26l2-19 1-16-2-19v-28l1-15 1-6c1-4 0-7-1-11-1-6-2-12-1-18v-7l1-2c1-2 2-4 5-4h1l9-1 21-1h2l1-1v-2c1-8 4-16 10-22l6-5 11-9 4-4c6-4 12-5 19-5h4a27 27 0 0 1 23 8l14 12c6 5 11 12 13 21l1 6 2 1 10 1 14 1h8c3 0 4 2 5 5l1 5v4m-203 123v2h2v-1l-2-1m6-9-1-5-1 13 1 3 1-1v-10m-13-5c-3 0-3 0-2 2l2 8 1 1v-1l1-7c1-3 1-3-2-3m2 15 3 1 1-1-2-14-2 14m15-16-3 1v18l-15-2 1-1-3-8-2-8h-2c0-2 24-1 24 0m206 10v7l2 1h1l2-1v-14l-2-1h-1c-2 0-2 1-2 2v6m11-6c0-2-1-2-3-2l-2 1v1l2 14h2l1-1v-13m-13 16h-3v-1h1l2-1 1-3-1-10c0-3 0-3-2-3l16 1v1l1 13 2 2 1 1h-18m-81 97 1 2h1c3 0 3-1 2-3l-2-7-1-1-1 1v8m11-9-1 1-3 8 1 2h3l1-2-1-9m-5-5h-4l-1 1 6 11 2-8c2-5 1-4-3-4m6-2c5 0 4 1 3 1h-1c-1 1-2 1-1 2l1 13 1 2-17 1h-2l2-1 1-5v-9l-1-2-2-1h2l14-1m-138-3c3 0 6 3 6 7 0 3-3 6-7 6-3 0-6-3-6-6 0-4 3-7 7-7"/>
    <path fill="#FCBF00" d="M450 530.2c4 0 7 3 7 7 0 3-3 6-7 6s-7-3-7-6c0-4 3-7 7-7"/>
    <path fill="#FDBE00" d="M233 336.2h-2l-1 1 3 7 1 1 1-1 1-6c0-2 0-2-2-2h-1m6 13h1c2 0 3-1 2-3v-9l-2-2c-2 0-2 1-2 2l-2 10 1 2h2m0-16h4l3 1-2 1-1 2 2 12 2 1h-4l-14 1-1-1h1l3-1 1-1-5-11v-1l-3-1 8-2h6m-2 49-1 1-1 7-1 3v1c1 1 3 1 3-1v-11m2 12 1 1 1-1v-1l-2-11v12m-8-13-2 1-1 1 4 8c1 1 2-6 3-8l-1-1-3-1m3-1h7l3 1-1 1v12l3 2-5 1-14-1s-1-1 1-1h1c1 0 2-1 1-2l-4-11-2-1 3-1h7m224 109-1-1h-3c-2 0-2 0-2 2v15c0 2 1.3 3 4 3 2 0 2-1 2-2v-17m-12 21v-1l3-1c2 0 2-1 2-2l-1-15 1-1c0-2-1-2-2-2h-4l-1-1h1l19-1h1l-1 1-3 1-1 1c.6 6.3 1.2 12.7 2 19h5v1h-1l-17 1h-3m18-128-1-2h-7l-1 2 4 8 2 2v-2l2-5 1-3m-12 11c0 2 0 2 2 2h4l1-2-5-12h-2v12m18 3-19 1-3-1c-1 0 2 0 2-2l1-12-1-2-2-1c6.6-.7 13.4-.7 20 0l-1 1-2 2-3 9v2l1 2h5l2 1m-18-62-1 2 5 9v2h2l2-13h-8m12-1c4 0 5 1 2 1s-4 2-4 4l-3 10 1 1 5 1c1 0 2 0 0 1h-18c-1 0-3-1 2-1h5l1-2-4-10-2-3c-2-1-4 0-4-2s19 0 19 0m-149 201h-2v2l1 2 1-1 1-2-1-1m-1 16c3 0 3 0 2-2l-2-4-2 4c-1 2-1 2 1 2h1m8-14-1-1h-3l-2 5-1 2 3 8h3l1-1v-13m4-3v1c-2 1-3 1-3 4v10l2 3h1-18l1-1 4-11-2-4-2-1 3-1h14m134-232c3 0 5 2 5 5s-2 5-5 5-5-2-5-5 2-5 5-5m-173 246-1-2h-2c0 1-3 4-2 5h5v-3m-9-13 2-1h12l-1 1-2 2-2 4v4l2 4c0 2 1 3 3 3 1 0 0 0 0 0l-3 1-10-1h-1c-1-1 1 0 2-2l3-5 1-3-3-6h1l2 5h2l2-5h-6l-4-1m-41-228c0 3-2 5-5 5s-5-2-5-5 3-5 5-5c3 0 5 2 5 5m174-22c-3 0-5-2-5-5 0-2 2-5 5-5s5 3 5 5c0 3-2 5-5 5m-134-5c0-2 2-5 5-5 2 0 4 3 4 5 0 3-2 5-4 5-3 0-5-2-5-5m127 255 5 1 1 1-1 14h-4v1c4 1 8 0 12-1v-1h-3c-2 0-2 0-2-2l-1-11 2-2h3c2-1 2-1 0-1 0 0-12-1-12 1m-165-32h1l1-1-1-2h-2l-1 2 1 1h1m1-16h-1c-3 0-3 0-2 3l2 3 3-4c1-2 0-2-2-2m-9 14 1 1h4l2-5v-1l-3-8-2-1-2 1v13m-4 3v-1c2 0 3-1 3-3v-11c0-1 0-2-2-2v-1h18l-2 1-4 11 2 5 2 1h-17m117.7 92.5c0 .4-.3 6.8-.2 13.3-6.8.5-5.7-13.3-5.3-15 .2-1.4-4.4 1.7-6.6 3.8.7 1.3 1.7 1 3 .5-.5 6.2 3.8 11.8 9 11.7.1 6.4.8 12.5 2.6 13 .2 0 .4-6.5.6-13.7 12.2-3.8 7.6-18.3 7.6-18.3-.2-.8-2 .4-6 3.9 1.6 1.7 2.4.7 3.6.3 1 1.9 1.4 10.5-5 13l.2-18-.4-.2c-1.8.2-5 3.4-7.5 6 1.4 2.3 3.1.3 4.4-.3m6 19 2.7 2.9 2.8-2.8-2.8-2.8-2.8 2.8Z"/>
  </g>
</symbol></svg>
