<svg xmlns='http://www.w3.org/2000/svg' viewBox='0 0 30 30' fill='none'>
<symbol id='SeparatedRoom'>
<path fill-rule="evenodd" clip-rule="evenodd" d="M6 3C4.34315 3 3 4.34314 3 6V24C3 25.6569 4.34315 27 6 27H7C7.55228 27 8 26.5523 8 26C8 25.4477 7.55228 25 7 25H6C5.44772 25 5 24.5523 5 24V6C5 5.44772 5.44771 5 6 5H13C13.5523 5 14 5.44772 14 6V24C14 24.5523 13.5523 25 13 25H12C11.4477 25 11 25.4477 11 26C11 26.5523 11.4477 27 12 27H13C13.7684 27 14.4692 26.7111 15 26.2361C15.5308 26.7111 16.2316 27 17 27H18C18.5523 27 19 26.5523 19 26C19 25.4477 18.5523 25 18 25H17C16.4477 25 16 24.5523 16 24V6C16 5.44772 16.4477 5 17 5H24C24.5523 5 25 5.44772 25 6V24C25 24.5523 24.5523 25 24 25H23C22.4477 25 22 25.4477 22 26C22 26.5523 22.4477 27 23 27H24C25.6569 27 27 25.6569 27 24V6C27 4.34315 25.6569 3 24 3H17C16.2316 3 15.5308 3.28885 15 3.7639C14.4692 3.28885 13.7684 3 13 3H6Z" fill="currentColor"/>
</symbol>
</svg>
