<svg xmlns='http://www.w3.org/2000/svg' viewBox='0 0 696 830' fill='none'><symbol id='SEYC_EC_Fill'>
  <g fill="none" transform="translate(.7 .3)">
    <ellipse cx="349.6" cy="404.5" fill="#FFF" rx="238.2" ry="310.3"/>
    <path fill="#1E2346" d="m695 419.5-1 1-2 5c-13 24.1-28 47.2-45 68.3-17 22-34 45.2-53 66.2l-49 54.2c-21 22.1-42 44.2-61 68.3l-45 54.2c-23 27-48 53.2-73 78.2l-13 11c-5 4.1-6 4.1-11 0l-16-14a1456 1456 0 0 1-92-100.3c-12-15-24-31.1-37-45.2l-50-55.2L92 550a1440 1440 0 0 1-67-87.3c-9-12-16-26.1-23-39.2l-2-3v-3l3-5 34-54.2a440.6 440.6 0 0 1 63-86.3c16-18 30-36.1 43-55.2A986 986 0 0 1 313 29l29-26 4-3.1h3l3 3L395 41a951.2 951.2 0 0 1 160 179.7c12 17 25 34.1 39 50.2 23 25 42 52.2 60 80.3l34 55.2 6 10 1 3Zm-18-3-2-3-4-7-35-57.2c-17-27.1-37-53.2-58-77.3-10-10-19-22.1-28-34.1l-21-30.1A902.7 902.7 0 0 0 391 57.2l-39-35.1c-5-5-4-5-10 0l-32 30a901.5 901.5 0 0 0-157 173.7c-12 18-25 35.1-39 50.2-18 20-35 41.1-49 64.2l-33 53.2c-5 6-8 13-12 19-2 3.1-2 6.1 0 8.1l1 1c11 22.1 24 42.2 39 62.3l48 60.2 48 52.2c26 28 52 57.2 76 87.3a1227 1227 0 0 0 111 119.4c4 3 5 3 9 0l1-1 14-12c32-32.2 63-66.3 92-101.4l35-43.2 52-56.2c25-28 50-55.2 73-85.3l34-46.1 22-37.2 2-4Z"/>
    <path fill="#FFF" d="m677 416.5-2 4-22 37.2-34 46.1c-23 30.1-48 57.2-73 85.3l-52 56.2-35 43.2c-29 35.1-60 69.2-92 101.4l-14 12-1 1c-4 3-5 3-9 0l-23-21a1625 1625 0 0 1-88-98.4c-24-30.1-50-59.2-76-87.3L108 544l-48-60.2c-15-20.1-28-40.2-39-62.3l-1-1c-2-2-2-5 0-8 4-6 7-13 12-19l33-53.3c15-23 31-44.1 49-64.2 14-15 27-32.1 39-50.2A941.3 941.3 0 0 1 342 22.1c6-5 5-5 10 0l39 35.1a919.4 919.4 0 0 1 138 150.6l21 30c9 12.1 18 24.1 28 34.2 21 24 41 50.2 58 77.3l35 57.2 4 7 2 3Zm-106 8-3-43.1a302 302 0 0 0-18-84.3l-18-49.2c-5-12-10-23-17-34.1a504.1 504.1 0 0 0-41-53.2c-11-11-24-20-39-26.1a380.9 380.9 0 0 0-76-18c-12 0-24 0-36 2-19 3-37 8-55 14-12 5-23 10-33 18-8 7-16 14.1-22 22.1l-26 36.2c-9 13-16 26-21 40.1L151 289c-10 25.1-17 51.2-20 77.3l-4 63.3c-1 15 0 31 2 46.1l8 34.1c9 41.2 29 77.3 57 108.4l28 29.1c23 21.1 49 36.2 80 42.2l33 6c15.4 1 30.9 0 46-3l29-7c21-6 39-16 55-29.1l30-28.1a245.2 245.2 0 0 0 60-97.4c5-14 8-29 11-43.1 5-21.1 6-42.2 5-63.3ZM177 208.8h-1l-3 3-29 36.1-23 33.1c-19 31.5-39.7 62-62 91.3a324 324 0 0 1-34 42.2c-1 1-1 1 1 2l22 28.1 52 68.3c18 25 37 49.1 57 73.2l3 3h1v-1l-2-2-12-23c-9-17.1-15-35.2-18-54.3l-5-38.1a398.5 398.5 0 0 1 2-118.4c2-21.1 7-40.2 14-59.2l19-51.2 16-29.1 2-3v-1Zm353 14v1l11 24.1 14 35.1a451.3 451.3 0 0 1 21 169.6l-5 45.2c-3 21-8 42.2-18 61.2l-7 14-1 3 3-3 8-10 51-67.2a1341 1341 0 0 1 62-82.3c-7-6-12-14-18-21l-24-32.2c-17-24-34-48.2-49-73.3l-16-24-30-39.2-1-1h-1Zm-183 571 2-2 25-27c26-29.1 51-59.2 78-86.3l2-2v-1h-1l-4 2c-13 7-25 12-39 15l-44 7c-10 2-20 2-31 1a681.4 681.4 0 0 1-55-10 154.3 154.3 0 0 1-43-19h-1 1l2 3 18 19c28 29.1 54 60.2 81 90.3l8 9 1 1Zm107-655.3v-1l-3-2-45-49.2-56-57.2c-3-3-2-3-6 0l-43 44.2-41 45.1-20 20.1-4 5v1-1l2-1 23-12 39-15c13-4.1 26-6.1 40-5.1h19c13-1 26 1 39 5l17 6a211.6 211.6 0 0 1 38 17.1h1Z"/>
    <path fill="#1E2346" d="M571 424.5c1 21.1 0 42.2-5 63.3l-10 43.1a244.9 244.9 0 0 1-61 97.4l-30 28c-16 13.1-34 23.2-55 29.2l-29 7c-15 3.8-30.6 4.8-46 3l-33-6c-31-6-57-21-80-42.2l-28-29c-28-31.2-48-67.3-57-108.5l-8-34a850 850 0 0 1 2-109.5c3-26 10-52.2 20-77.3l15-40.1c5-14 12-27.1 21-40.1l26-36.2c6-8 14-15 22-22 10-8 21-13.1 33-18.1 18-6 36-11 55-14 12-2 24-2 36-2 26.1 1.8 51.8 8 76 18 15 6 28 15 39 26l11 12.1c11 13 20 27.1 30 41.2 7 11 12 22 17 34.1l18 49.2a302 302 0 0 1 18 84.3l3 43.1Zm-49-17c0-13-2-30.1-6-48.2l-10-36.1c-9-28.1-22-54.2-41-76.3l-19-23a144.2 144.2 0 0 0-89-51.3l-12-1c-10 1-19 3-29 6l-29 13c-13 9.1-25 18.2-35 30.2l-11 14-14 16.1c-17 22-30 47.2-38 73.3a392.3 392.3 0 0 0-15 70.2 290 290 0 0 0 15 107.4l15 36.1c6 12 13 23.1 22 34.2a175.3 175.3 0 0 0 53 45.1c17 9 34 17.1 54 21.1 8 1 16 2 24 1l27-7a192.2 192.2 0 0 0 60-33.1c27.4-23 47.8-53.3 59-87.3 12.5-33.4 19-68.8 19-104.4Z"/>
    <path fill="#1E2346" d="M177 208.8v1l-2 3-16 29-19 51.3a511.6 511.6 0 0 0-16 177.6l5 38.1c3 19.1 9 37.2 18 54.2l12 23.1 2 2v1h-1l-3-3c-20-24-39-48.2-57-73.2l-52-68.3-22-28c-2-1.1-2-1.1-1-2.1 43.9-52.4 83.7-108 119-166.6l29-36.1 3-3h1Zm353 14h1l1 1 30 39.2 16 24c15 25.1 32 49.2 49 73.3l24 32.1c6 7 11 15 18 21.1 2 2 1 2 0 3-22 26.1-42 52.2-62 79.3L556 563l-8 10-3 3 1-3 7-14c10-19 15-40.1 18-61.2l5-45.2 1-26c0-31.2-2-63.3-8-94.4-3-17-8-33.1-14-49.2l-14-35-11-24v-1Zm-183 571-1-1-8-9c-27-30-53-61.2-81-90.3l-18-19-2-3h-1 1l3 1a153.9 153.9 0 0 0 65 23l30 5a571 571 0 0 0 75-8c13-3 26-8 39-15l4-2h1v1l-2 2c-27 27-52 57.2-78 86.3l-25 27-2 2Zm107-655.3h-1l-2-1c-12-7-23-12-36-16l-17-6c-13-4.1-26-6.1-39-5.1h-19c-14-1-27 1-40 5l-39 15c-8.7 3.8-17 8.1-25 13.1v1-1l4-5 20-20 41-45.2L344 29c4-3 3-3 6 0l56 57.2 45 49.2 3 2v1Z"/>
    <path fill="#FFF" d="M522 407.5c0 35.6-6.5 71-19 104.4-7.3 15.8-15 31.6-23 47.1-11 14-22 28.1-36 40.2-8 7-18 12-27 18a194.7 194.7 0 0 1-60 22.1c-8 1-16 0-24-1-28.5-7-55.3-19.7-79-37.1a175 175 0 0 1-50-63.3l-15-36a289.5 289.5 0 0 1 0-176.7c8-27.1 21-52.2 38-74.3l14-16 11-14.1c10-12 22-21 35-30.1l29-13c10-3 19-5 29-6l12 1c12 1 22 5 33 9 16 6 28 15 40 26l16 16.1 19 23c19 22.2 32 48.3 41 76.4l10 36.1c4 18 6 35.1 6 48.2Zm-8 14v-15c-1-13-2-26.1-6-39.2l-6-23c-5-21.1-13-40.2-23-59.3l-15-27a153 153 0 0 0-37-43.2l-13-10-24-13.1c-11-5-23-8-35-12-5-2-10-2-15 0l-20 7a160 160 0 0 0-54 30c-12 9.1-22 20.2-29 33.2L218 282c-8 16-16 32.1-21 50.2-4.8 18-9.1 36-13 54.2-3 22-3 45.2-1 68.2 2 19.1 7 38.2 15 56.2l12 26.1c6 11 14 22.1 22 31.2 16 17 33 30 52 42.1a169.9 169.9 0 0 0 63 24.1l13-2c11-3 21-6 31-11 27-14.1 51-30.2 72-52.2 8-9 16-18.1 21-29.1l13-26.1c6-14 11-29.1 13-44.2 3-16 4-32.1 4-48.2Z"/>
    <path fill="#1E2346" d="M514 421.5c0 16-1 32.1-4 48.2-2 15-7 30.1-13 44.2l-13 26c-5 11-13 20.1-21 29.2-21 22-45 38.1-72 52.1a140.9 140.9 0 0 1-44 13.1l-9-2c-19-4-37-12-54-22-19-12.1-36-25.2-52-42.2-8-9-16-20.1-22-31.2l-12-26a188 188 0 0 1-15-56.3 301 301 0 0 1 5-88.3c2-12 6-23 9-34.1 5-18 13-34.1 21-50.2l19-32.1c7-13 17-24 29-33.1l21-15c10-7.1 22-11.1 33-15.1l20-7c5-2 10-2 15 0 12 4 24 7 35 12l24 13 13 10c5 3 10 7.1 14 12.1 9 9 17 19 23 31.1l15 27.1c10 19.1 18 38.2 23 59.2l6 23.1c4 13 5 26.1 6 39.2v15ZM265 305.1h-8c-19 2-34 11-43 27.1l-6 10a249.7 249.7 0 0 1-19 37.2c-1 1 0 3 1 3h4c5 0 10-2 15-4l13-10 11-9.1 8-6c4-2 8-3 12-2 8 0 14 4 19 9v3l-5 16c-3 11.1-3 22.2-3 33.2.6 20.5 3.9 40.7 10 60.2 3 11 9 20 18 27.1l8 7 3 2c2 1 2 1 1 3l-8 8-9 7.1c-6 5-9 11-10 18 0 3-1 7.1 1 11.1 0 2 1 2 3 1l6-6c4-3 8-4 12-3l6 2 9 1c6 0 11-3 14-8l3-9 1-2 1 1 5 5 7 6h5l7-5 5-6 1-1 1 2c1 8 6 15 13 17h10l8-2c6-2 11-1 16 4l2 2 3 3 2-5c1-10-1-18-9-25l-9-8.1-9-8c-1-2-1-2 1-3l9-7c11-8.1 18-19.2 21-32.2 5-20.8 8-42 9-63.2l-2-22.1-6-21v-4.1l8-6c8-4 16-4 24 1l8 6 10 8 11 8a36.4 36.4 0 0 0 19 6c3 0 4-2 3-5l-2-3c-5-7-9-15-13-24l-7-12-7-12.1c-6-8-14-14-23-17-8-3-17-5.1-26-4.1-9 0-18 2-26 5l-16 6-8 2c-5 1-9-1-11-5l-1-6 3-12 3-6c2-4 2-8 0-12.1-3-7-4-13-5-20-2-9.1-10-15.1-19-16.1-11 0-19 8-20 15l-1 5-3 12-1 2.1c-2 5-2 10 0 15l3 7c2 3 3 7.1 3 11.1 1 5-5 12-12 10l-8-2-15-6c-9-3-19-5-29-5Zm-1-39.1 1 7 1 1 1-1 1-2 7-14c4-4 8-7.1 14-8.1l9-2c2 0 4-1 5-3 3-4 3-10 1-14-3-5-7-7-12-6l-13 5c-3 2-4 4-5 7l-1 4-2 7c-5 5-7 12-7 19Zm167 1c0-7-2-14-6-19.1l-4-10c0-4-2-7-5-9l-12-5c-11-2.1-17 8-15 15 1 5 4 7 8 8l10 2c5 1 9 4 12 8a66 66 0 0 1 9 17h1l1-1 1-6Zm-62 317 1 7c2 8 9 11 16 8 3-2 6-4 7-7l4-9c1-4 0-8-3-10-3-3-6-4-10-5-9 0-15 6-15 16Zm-58-15h-4c-6 2-10 7-9 13 1 4 2 8 5 11 1 3 4 4 6 6 7 3 14 0 16-8l1-7c1-9-5-15-15-15Z"/>
    <path fill="#FFF" d="M265 305.1c10 0 20 2 29 5l15 6 8 2c7 2 13-5 12-10 0-4-1-8-3-11l-3-7c-2-5-2-10 0-15.1l1-2 3-12 1-5c1-7.1 9-15.1 20-15.1 9 1 17 7 19 16 1 7 2 13 5 20.1 2 4 2 8 0 12l-3 6-3 12.1 1 6c2 4 6 6 11 5l8-2 16-6c8-3 17-5 26-5 9-1 18 1 26 4 9 3 17 9 23 17l7 12.1 7 12c4 9.1 8 17.1 13 24.2l2 3c1 3 0 5-3 5h-5c-5-1-10-3-14-6l-11-8-10-8.1-8-6c-8-5-16-5-24-1l-8 6v4l6 21 2 22.2c.1 21.3-3 42.6-9 63.2-3 13-10 24-21 32.1l-9 7c-2 1-2 1-1 3l9 8 9 8.1c8 7 11 15 10 25.1l-2 5-6-5c-5-5-10-6-16-4l-8 2h-10c-7-2-12-9-13-17l-1-1h-1l-5 6-7 5h-5l-7-6-5-5h-1l-1 1-3 9c-3 5-8 8-14 8l-9-1-6-2c-4-1-8 0-12 3l-6 6c-2 1-3 1-3-1-2-4-1-8-1-11 1-7 4-13 10-18 5.5-5.3 11.2-10.3 17-15.1 1-2 1-2-1-3l-3-2-8-7c-9-7.1-15-16.1-18-27.2a224.9 224.9 0 0 1-7-93.3l5-16v-3.1c-5-5-11-9-19-9-4-1-8 0-12 2l-8 6-11 9-13 10c-5 2-10 4-15 4h-4c-1 0-2-2-1-3l1-3a248.1 248.1 0 0 0 24-44.1c9-16 24-25 43-27.1h8Zm6 102.4 1 18c2 15 6 30.1 15 44.2l19 31.1 11 12 25 20.1c4 2 7 2 11 0v-1l22-16 14-16 19-29.2c5-8 8-16 11-25 4-17.1 6-35.2 4-53.3-1-14-7-26-16-36.1a112 112 0 0 0-39-28.1l-13-3-11-1c-12 2-22 5-32 12-11 7-21 16-29 27.1-5 6-8 13-9 20l-3 24.2Zm35-79.3-2-1-16-7c-7-2-14-4-21-4-19 0-35 7-46 22l-7 11-6 12.1-11 14-2 4 4-1 2-1c5-2 9-5 13-9l12-11 9-9c7-5 14-7 22-7 9 0 15 3 19 11 1 2 2 2 3 1l1-2c7-8.8 15.4-16.3 25-22.1l1-1Zm125-13c-9 1-16 2-23 5l-13 5-5 2v2h1c9 6 17 14 24 22l2 2h1l1-2c3-5 7-8 13-9 10-2 19 0 27 6l10 8 10 10.1c3 3 7 7 12 9l8 3h1v-1l-8-9-9-14-7-13a54 54 0 0 0-45-26.2Zm-79 0 4 1c2 0 2 0 2-2-1-4 1-9.1 3-13.1l5-8c3-6 3-11-1-16.1l-1-3-4-9-1-4c-1-6-5-9-10-11.1h-4c-5 2-9 6-10 12-1 5-3 11-6 15.1l-1 3c-2 3-2 6-1 9l2 4 4 7c3 4.1 5 9.1 4 14.1l1 2 14-1ZM396 542c5 0 10 2 14 5l1 1h1l1-1c-2-6-4-12-10-16l-7-4c-5-2.1-9-5.1-11-10.1-1-2-1-2-2-1l-14 11v3c0 3 2 6 4 9 3 3 6 4 10 4h6l7-1Zm-85 2c6 0 10-3 13-8l3-6c0-1 0-2-2-3l-12-10.1c-2-2-2-2-3 0-2 5-6 8-11 10l-2 1-5 3c-6 4-8 10-9 16v1h1l2-2c4-2 8-4 12-4l8 1 5 1Zm-47-277c0-4 2-15 7-20.1l2-7 1-4c1-3 2-5 5-7l13-5c5-1 9 1 12 6 2 4 2 10-1 14-1 2-3 3-5 3l-9 2c-6 1-10 4-14 8l-7 14-1 2-1 2.1-1-2-1-6Zm2-1v2l1-1 7-11 10-9.1c2-3 6-4 9-4h5c2-1 4-2 4-4 3-6-2-14-8-14-5 0-10 2-12 7l-3 6c-1 4-3 7-6 10l-5 7-2 11Zm165 2-1 5c0 1-1 2-2 1l-1-3-8-14c-3-4-7-7.1-12-8.1l-10-2c-4-1-7-3-8-8-2-7 4-17.1 15-15l12 5c3 2 5 5 5 9l4 10c6 6 6 18 6 19v1Zm-2-3c-1-7-3-14-9-19.1-2-1-3-4-4-6l-3-8c-1-3-4-5-8-6-7-2-13 3-13 10 0 4 2 6 6 6h1c5 0 10 2 14 6l3 3c5 4 8 8 11 14l1 2 1-2Zm-60 319c0-10 6-16 15-16 4 1 7 2 10 5 3 2 4 6 3 10l-4 9c-1 3-4 5-7 7-7 3-14 0-16-8l-1-7Zm2-2v2c1 5 4 9 8 12 3 2 5 2 8 0 5-2 8-7 6-12l-2-7c-1-5-3-6-8-6h-4c-4 1-8 6-8 11Zm-60-13c10 0 16 6 15 15l-1 7c-2 8-9 11-16 8-2-2-5-3-6-6-3-3-4-7-5-11-1-6 3-11 9-13h4Zm11 6c-3-3-7-5-12-4-3 0-5 2-6 5l-2 8c-1 5 1 9 5 12 4 2 7 2 10-1s5-5 6-9c1-1 1-9-1-11Z"/>
    <path fill="#1E2346" d="m271 407.5 3-24.1c1-7 4-14 9-20 8-11.1 18-20.2 29-27.2 10-7 20-10 32-12l11 1a139 139 0 0 1 20 6c12 6 23 15 32 25 9 10.1 15 22.2 16 36.2 2 18 0 36.2-4 53.2-3 9-6 17-11 25.1l-19 29.1-14 16-22 16.1v1c-4 2-7 2-10 0l-26-20-11-12-19-31.2c-9-14-13-29.1-15-44.2l-1-18Zm46 27c1-6-1-13-3-19l-6-15-3-16.1c0-8 3-15 10-21l1-1-1-1c-2 0-4 1-5 3-4 3-6 7-7 12-2 6-1 11 0 17l5 19c2 9.1 3 19.2 2 28.2 0 8-1 15-3 22l-1 6.1h1l2-3 6-14c2-5 3-11.1 2-17.1Zm76-51.1v-5c-1-5-3-10-7-14l-6-3h-1v2l2 1c4 3 7 7 8 13v11l-4 17-5 14.1c-3 10-3 21 0 32.1l6 13c0 2 1 4.1 3 4.1l-1-5-3-16c-1-9.1-1-19.1 1-29.2l4-16c1-6 3-12 3-19.1Zm-43 104.4-1-7c0-1 0-2-1-1l-2 1-1 6 1 13 1 2h1l1-3 1-11Zm-44-159.6-1 1-1 1c-9 5-17 13-24 21l-1 2c-1 1-2 1-3-1-4-8-10-11-19-11-8 0-15 2-22 7l-9 9-12 11.1c-4 4-8 7-13 9l-2 1-4 1 2-4 11-14 6-12 7-11c11-15.1 27-22.2 46-22.2 7 0 14 2 21 4l16 7 2 1Zm125-13c18 1 34 9 45 26l7 13 9 14.1 8 9v1h-1l-8-3c-5-2-9-6-12-9l-10-10-10-8c-8-6-17-8-27-6-6 1-10 4-13 9l-1 2h-1l-2-2c-7-8-15-16-24-22.1h-1v-2l5-2 13-5c7-3 14-4 23-5Zm-79 0-14 1-1-2c1-5-1-10.1-4-14.1l-4-7-2-4c-1-3-1-6 1-9l1-3.1c3-4 5-10 6-15 1-6 5-10 10-12.1h4c5 2 9 5 10 11l1 4 4 9 1 3.1c4 5 4 10 1 16l-5 8c-2 4.1-4 9.1-3 13.1l-1 2-5-1ZM396 542l-7 1h-6c-4 0-7-1-10-4-2-3-4-6-4-9v-3l14-11.1c1-1 1-1 2 1 2 5 6 8 11 10l7 4c6 4 8 10 10 16l-1 1h-1l-1-1c-4-3-9-5-14-5Zm-85 2-5-1-8-1c-4 0-8 2-12 4l-2 2h-1v-1c1-6 3-12 9-16l5-3 2-1c5-2.1 9-5.1 11-10.1 1-2 1-2 3 0l12 10c2 1 2 2 2 3l-3 6c-3 5-7 8-13 7v1Zm-42-289c0-3 2-5.1 4-7.1 3-3 5-6 6-10l3-6c2-5 7-7 12-7 6 1 11 8 9 14l-5 4h-5c-3 0-7 1-9 4l-10 9-7 11-1 1v-1l3-12Zm160 10-1 2-1-2c-3-6-6-10-11-14l-3-3.1c-4-4-9-5-14-6h-1c-4 0-6-2-6-6 0-7 6-12 13-10 4 1 7 3 8 6l3 8c1 2 2 5 4 6 6 5 8 12 9 19Zm-58 317c0-5 4-10 8-11h4c5 0 7 1 8 6l2 7c2 5-1 10-6 12-3 2-5 2-8 0-4-3-7-7-8-12v-2Zm-48 4c-1 4-3 6-6 9s-6 3-10 1c-4-3-6-7-5-12l2-8c1-3 3-5 6-5 5-1 9 1 12 4 2 2 3 6 1 11Z"/>
    <path fill="#FFF" d="M317 434.6c0 6 0 12-2 17l-6 14-2 3.1h-1l1-6c2-7 3-14 3-22.1 1-9 0-19-2-28.1l-5-19c-1-6.1-2-11.1 0-17.1 1-5 3-9 6-12l6-3 1 1-1 1c-7 6-10 13-10 21l3 16 6 15.1c2 6 4 13 3 19Zm76-51.2c0 7-2 13-3 19l-4 16.1c-2 10-2 20-1 29.1l3 16c1 2 2 5.1 1 6.1s-3-3-3-4l-6-14c-3-11.1-3-22.1 0-32.2l5-14 4-17v-11.1c-1-6-4-10-8-13l-2-1v-2h1l6 3c4 4 6 9 7 14v5Zm-42 100.4-2 15c0 1 0 5-2 5s-1-6-2-6v-15c1-2 1-4 3-4s3 2 3 5Zm108.6 24.4 2.8 2.8 2.8-2.8-2.8-2.8-2.8 2.8Zm-5.9-19.1c0 .4-.3 6.8-.2 13.3-6.8.5-5.7-13.3-5.3-15 .2-1.4-4.4 1.7-6.6 3.8.7 1.3 1.7 1 2.9.5-.5 6.2 3.9 11.8 9 11.7.2 6.4.9 12.6 2.7 13 .2.2.5-6.5.6-13.7 12.2-3.8 7.5-18.3 7.5-18.3-.2-.9-2 .4-6 3.9 1.6 1.7 2.4.7 3.6.3 1 1.9 1.4 10.5-5.1 13.1l.3-18c0-.3-.2-.4-.4-.4-1.8.2-5 3.5-7.5 6.2 1.5 2.2 3.2.2 4.5-.4"/>
  </g>
</symbol></svg>
