<svg xmlns='http://www.w3.org/2000/svg' viewBox='0 0 696 830' fill='none'><symbol id='Shanwei_Fill'>
  <g fill="none">
    <path fill="#00807D" d="m590.8 427-1 34-3 24-3 24c-2 25-9 49-20 72a316.3 316.3 0 0 1-48 70l-26 27c-21 19-45 32-72 39l-27 5-23 4c-11 1-22 2-33 1l-31-5-27-5c-26-8-50-20-70-39a297 297 0 0 1-83-117c-5-14-8-28-10-43l-5-41a400.2 400.2 0 0 1 0-106c3-31 11-61 22-90l12-30c6-18 15-34 26-49l25-33c14-17 32-31 52-42 12-6 25-11 37-15l25-8 17-2 21 1h5l18-1 24 3c19 6 37 12 54 20 22 11 41 26 56 45a486.4 486.4 0 0 1 47 72l19 49c12.2 30.9 19 63.8 20 97l2 39"/>
    <path fill="#FFF" d="M570.8 439v-14a3041 3041 0 0 0-8-74c-3-16-8-31-13-46l-19-49c-5-12-10-23-17-34a502.5 502.5 0 0 0-41-53c-11-11-24-19-39-25l-22-7c-14-4-27-8-42-9l-27-2a312.2 312.2 0 0 0-48 8l-36 12a133 133 0 0 0-45 34 467.5 467.5 0 0 0-47 74 3459 3459 0 0 0-23 61c-7 21-11 44-14 66l-3 32c-1 24-.5 48.1 2 72l7 34c9 39 28 74 53 104 13 14 27 28 41 40 18 15 38 26 61 32l27 6c13.7 3.3 28 4.4 42 3l13-2c16.8-3.8 33.5-8.1 50-13 18-7 35-17 49-30l24-23a233.6 233.6 0 0 0 61-102l9-36c4-19 6-39 5-59m6-18c1 12 0 23-1 35l-2 25-3 23c-2 24-9 47-20 69a289 289 0 0 1-75 95c-17 15-38 25-59 31-16 4.7-32.4 7.7-49 9-10 1-21 2-32 1-17-2-35-5-52-9-26-7-49-19-68-37l-32-32c-20-25-37-52-48-83-4-11-7-23-8-35l-4-33-3-28c-1.2-23.3-.8-46.7 1-70 3-32 10-63 22-93l14-36a463.3 463.3 0 0 1 45-70c15-17 33-31 53-41 11-6 23-10 35-14l19-6 17-2 20 1 4-1h21a341 341 0 0 1 64 19 171.3 171.3 0 0 1 60 46 481 481 0 0 1 43 68l19 48c7 20 12 40 15 61 3 20 4 39 4 59"/>
    <path fill="#FFF" d="m290.8 259 9-1c6-1 10-4 12-9l3-6 3-16c2-10-2-18-8-26h-3l-15 7-29 20-8 7v3l1 2c3 6 8 10 13 14 3 2 5 3 8 3l14 2m-110 170c0 15 1 28 3 41 2 14 5 27 10 40s11 26 18 38c4 10 10 18 17 26 22 24 47 41 76 56a156 156 0 0 0 39 12l16-1c16-4 31-10 45-19l16-10c17-11 31-23 44-38 8-7 14-16 19-25l14-29c5-13 10-27 12-41 5.8-32.1 5.8-64.9 0-97l-7-26c-6-26-17-50-30-73l-7-13-4-6-7-2-2-1c-14-5-28-7-43-10l-29-6-29-8-6-2-1-1h5l18 1c12 1 23 4 33 7l20 7 37 10h1l-2-4a169.5 169.5 0 0 0-28-30c-11.6-7.1-23.3-14.1-35-21l-15-7-14-5-4 1-1 1a57 57 0 0 1-18 8h-1v-1l2-2 13-8 1-1-1-1c-6-2-11-2-17 0a2027 2027 0 0 0-26 11c4 5 6 12 8 18 4 10 3 21-4 30-5 8-13 13-23 16-6 1-12 1-18-3l-7-4c-7-5-12-10-16-17-1-2-1-2-2-1-6 7-11 13-15 21l-18 32c-6 10-11 21-16 33l-1 2v1h1l1-1 8-13 18-22c9-8 17-17 24-26l3-3h1v1l-2 3-5 7-16 22c-7 10-15 19-24 28l-10 9-3 6-11 41-3 16c-2 12-2 23-2 33m341-8c-.5 34.6-7.3 68.8-20 101l-13 29c-4 9-9 17-15 25l-19 22-20 17c-15 9-29 17-45 24-11 4-22 7-34 9-8 1-16 0-24-1-16-4-32-9-46-17l-18-11c-14-8-26-19-37-31l-9-12c-7-8-12-16-16-26l-17-37c-9.2-23.3-14.2-48-15-73l-1-27c0-17 3-33 7-50l8-30c9-26 22-51 39-73l13-16 12-14c6-7 13-14 21-20 21-15.3 45.3-25.2 71-29 5-1 10 0 15 1a165.2 165.2 0 0 1 58 24c9.4 7.9 18.4 16.2 27 25l13 15 15 19c18 25 31 52 39 82l6 26c3 13 5 26 5 40v8"/>
    <path fill="#00807D" d="m348.8 617 11-2c9.7-2.5 19.2-6.2 28-11l2-2-3-1-11 1c-9 2-19 3-29 3-7 0-14 0-20-2l-17-6-20-5h-18l1 1h3c7 1 13 2 20 5l16 7 14 7c7 3 14 5 23 5m-73-47-17-1h-3l3 1 1 1 15 1c10 1 21 0 31-1l16-1 18 3 18 5c21 5 41 2 60-10l12-8 11-8 14-8c6-3 12-5 19-6h2l1-1h-7c-6 0-12 2-18 4l-18 8-17 8c-14 6-28 9-43 9l-22-1c-15 0-30 0-44 2-11 2-21 3-32 3m191-52h11l3-1-1-1a97.6 97.6 0 0 0-42-1c-9 2-17 6-25 9l-4 2-1-1v-10l-1-29-4-28c-3-14-8-28-15-41l-6-12-1-3c0-9 2-17 7-24l10-11h2l5 7 27 35 7 8 2 2h1l1-1-2-5-7-9-30-35-3-4c0-2 2-3 3-4l2-2c7-7 13-14 18-22 4-6 7-13 9-20 4-9 5-19 2-29a67.8 67.8 0 0 0-13-27h-2c-4 3-7 6-9 10-1 2-2 4-5 5l-4 2c-7 2-13 6-17 12l-8 8-11 13-2 2h-1l-2-2-12-13-22-26-3-4v1l1 2 6 10 22 30 6 7-1 3-6 4c-4 3-6 6-8 10l-1 4-1 5-1 1-2-2c-3-2-6-4-9-3h-6c-6 1-13 2-19 1-5 0-10 1-15 4l-3 1h-1v-3l4-13a234 234 0 0 0 4-48v-3l-1-1-1 1-1 4-2 14c-3 15-7 31-8 47v2h-3c-7-1-13 1-19 4l-10 5-12 5c-5 3-11 2-17 1l-3-1c-1 0-2 0-2 2v5l7 17c5 7 11 12 19 16l14 5 11 2 2 1-2 8-3 19 1 3c2 1 2-1 2-2l5-15 2-11c1-2 1-2 3-2h1l25-2c10 0 20 0 30 3 11 4 19 11 24 21 6 11 8 23 6 36l-6 21c-6 14-13 27-21 40l-4 5-2 1c-9-2-18-2-27-1h-24a92.2 92.2 0 0 1-68-22h-1v1l4 7a73.7 73.7 0 0 0 55 25c9 1 18 0 27-2l25-3 19 1 19 4c14 3 28 1 42-5l10-5 16-8c7-3 14-5 22-6 6-1 13-2 19-1m-286-89c0-10 0-21 2-32l3-17 11-41 3-6 10-9c9-9 17-18 24-28l16-22 5-7 2-3v-1h-1l-3 3c-7 9-15 18-24 26l-18 22-8 13-1 1h-1l1-3 15-33 19-32c4-8 9-14 15-20 1-2 1-2 2 0 4 7 9 13 16 17l7 4c6 4 12 4 18 3 10-3 18-8 23-16 7-9 8-20 4-30-2-6-4-13-8-18v-2l8-3 18-6c6-2 11-2 17 0l1 1-1 1-13 8-2 2-1 1h3l17-8 1-1 4-1 14 5c10.2 4.6 20.2 9.6 30 15 10.1 7.2 20.1 14.6 30 22l18 21 2 4h-1l-37-10-20-7-33-7-18-1h-5l1 1 6 2 29 8 29 6c15 3 29 5 43 10l2 1 7 2 3 6 8 13c13 23 24 47 30 73l7 26a332 332 0 0 1 1 97c-3 14-8 28-13 41l-14 29a221.4 221.4 0 0 1-62 63l-17 10c-14 9-29 15-46 19-5.9 1.3-12 1.6-18 1-13-3-25-6-36-12-29-15-54-32-76-56-7-8-13-16-18-26l-17-38c-5-13-8-26-10-40-2-13-3-26-3-41"/>
    <path fill="#00807D" d="m290.8 259-14-2c-3 0-5-1-8-3a40 40 0 0 1-14-16v-3l8-7a314.4 314.4 0 0 1 44-27h3c6 8 10 16 8 26-1.2 7.5-3.2 14.9-6 22-2 5-6 8-12 9l-9 1"/>
    <path fill="#FFF" d="M293.8 399h25c10 2 19 6 28 11l10 9c8 9 11 20 12 32 1 10 0 20-3 30-4 12-9 22-16 32l-13 20c-1 1 0 1 1 2l18 4c7 2 14 2 20 1 10-2 19-6 28-11l1-2-1-5-2-27a179.3 179.3 0 0 0-17-63l-26-53-6-14v-2l1 1 9 11 12 20 2 2 1 1 1-1c1-9 4-16 9-23l6-8 13-15c7-8 13-18 17-28 5-14 7-28 4-42l-6-16-2-1-5 6-1 3-7 7-7 3c-3 2-7 4-9 8-4 5-8 9-14 11-4 2-6 5-8 9l-2 5c-2 5-6 10-11 12-3 2-5 4-7 8l-3 8-3 4-2 1-3-2c-4-3-8-4-13-2-4 2-8 2-13 2l-6-1c-6-2-11-1-16 2-2 2-5 3-8 3h-4c-6-1-11 1-16 3-3 2-6 5-10 6l-10 5c-4 2-9 2-13 1l-8-2-3-2-1 1 2 3 7 12c6 8 13 13 22 16s19 4 29 5h17m173 118-19 2c-8 1-15 3-22 6l-16 8-10 5c-14 6-28 8-42 5l-19-4-19-1-25 3c-9 2-18 3-27 2-15 0-30-4-42-13-5-3-9-7-13-12l-4-7v-1h1l5 4c10 7 21 13 34 16 9 2 19 3 29 2h24c9-1 18-1 27 1l2-1 4-5c8-13 15-27 21-40l6-21c2-13 0-25-6-36-5-11-13-17-24-21-10-3-20-4-30-3l-25 2h-1c-2 0-2 0-3 2l-2 11-4 14c-1 2-1 4-3 3l-1-3 3-19 2-8-1-1-12-3-14-4c-8-4-14-9-19-16l-7-17v-5c0-2 1-2 2-2l3 1c6 1 12 1 18-1l11-5 10-5c6-3 12-5 19-4h3v-2c1-16 5-32 8-48l2-13 1-4 1-1h1v12c0 13-1 27-4 40l-4 13v3h1l4-1c4-3 9-4 14-4 6 1 13 0 19-1h6c3-1 7 1 9 3l2 2 1-1 2-6v-3c2-4 4-8 8-10l6-4 1-3-6-7-22-30-6-10-1-2v-1l3 3 23 27 11 13 2 2h1l2-2 11-13 8-8c4-6 10-10 17-12l5-2 4-5c2-4 5-7 9-10h2l1 1c6 8 10 16 12 26 3 10 2 20-1 29l-10 20c-5 8-11 15-18 22l-2 2-3 4 3 4 30 35 7 9 2 5v1h-1l-3-2-7-8-27-35a231 231 0 0 0-7-7l-10 11c-5 7-7 15-7 24l1 3 6 12a162 162 0 0 1 19 69l1 29v10l2 1 3-2c8-4 16-7 25-9s18-3 27-2c5.4.9 10.8 2.2 16 4h-14m-191 53c11 0 21-1 32-3 14-2 29-2 44-2l22 1c15 0 29-3 43-9l17-8 18-8c6-2 12-4 18-4h7l-1 1h-2c-7 1-13 3-19 6l-14 8-11 8-12 8a77.3 77.3 0 0 1-60 10l-18-5-18-3-16 1c-10 1-21 2-31 1l-15-1-1-1-3-1h3l17 1m73 47c-9 0-16-2-23-5l-14-7-16-7a72.3 72.3 0 0 0-23-5l-1-1h18l20 5 17 6c6 2 13 2 20 2 10 0 20-1 29-3l11-1 3 1-2 2-5 3-23 8-11 2"/>
    <path fill="#00807D" d="m419.8 310-1-4h-2l-2 6c-5 10-10 20-17 28l-4 5-9 13-4 7v1l1-1 1-2c5-7 10-14 17-19l7-7c5-6 9-12 11-19l2-8m-171 70-3 1 1 3c2.5 2.4 5.6 4.1 9 5 6 2 13 2 19 1l17-3 15-2c7 1 14 2 21 5l3 2h1v-1l-16-8c-9-2-17-2-26-2l-19 1-11-1-11-1m45 19h-17c-10-1-20-2-29-5s-16-8-22-16a73.7 73.7 0 0 1-9-15l1-1 3 2 8 2c4 1 9 1 13-1l10-5c4-1 7-4 10-6 5-2 10-4 16-3h4c3 0 6-1 8-3 5-3 10-4 16-2l6 1c5 0 9 0 13-2 5-2 9-1 13 2l3 2 2-1 3-4 3-8c2-4 4-6 7-8 5-2 9-7 11-12l2-5c2-4 4-7 8-9 6-2 10-6 14-11 2-4 6-6 9-8l6-3c4-2 6-4 8-7l1-3 5-6 2 1 6 16c3 14 1 28-4 42-4 10-10 20-17 28l-13 15-6 8c-5 7-8 14-9 23l-1 1-1-1-2-2-12-20-9-11-1-1v2l6 14a858.8 858.8 0 0 1 39 91l4 25 2 27 1 5c0 1 0 2-2 2-8 5-17 9-27 11-7 1-13 1-20-1l-18-5c-1 0-2 0-1-1l13-20c7-10 12-20 16-32 3-10 4-20 3-30-1-12-4-23-12-32l-10-9a74 74 0 0 0-47-11h-6"/>
    <path fill="#FFF" d="m248.8 380 11 1 11 1 19-1c9 0 17 0 26 2l16 8v1h-1l-3-2c-7-3-14-4-21-5l-15 2-17 3c-6 1-13 1-19-1l-5-2-4-3-1-3 3-1m171-70-2 8c-2 7-6 13-11 19l-7 7a78.7 78.7 0 0 0-18 21l-1 1v-1l4-7 9-13 4-4c7-9 12-19 17-29l2-6h2l1 4M223.4 467.1l2.8 2.8 2.8-2.8-2.8-2.8-2.8 2.8Zm-5.9-19c0 .4-.3 6.8-.2 13.3-6.8.5-5.7-13.3-5.3-15 .2-1.4-4.4 1.7-6.6 3.8.7 1.3 1.7 1 3 .5-.5 6.2 3.8 11.8 9 11.7.1 6.4.7 12.5 2.6 13 .2.1.4-6.5.6-13.7 12.2-3.8 7.6-18.3 7.6-18.3-.2-.8-2 .3-6 3.9 1.6 1.7 2.3.7 3.6.3 1 1.9 1.4 10.5-5.2 13.1l.3-18c0-.2-.2-.3-.4-.3-1.8.2-5 3.4-7.5 6.1 1.4 2.1 3.1.1 4.5-.4"/>
  </g>
</symbol></svg>
