<svg xmlns='http://www.w3.org/2000/svg' viewBox='0 0 30 30' fill='none'>
<symbol id='ShowerWC'>
<path d="M27 4.00042C27 3.40017 26.6002 3 26.0004 3H10.5968C9.99708 3 9.59725 3.40017 9.59725 4.00042V4.10046H9.4873C8.30779 4.10046 7.33819 5.07086 7.33819 6.26136V15.3351C7.33819 15.8153 6.96835 16.2055 6.49854 16.2055C6.02874 16.2055 5.65889 15.8153 5.65889 15.3351V13.3643C6.00875 13.3443 6.29863 13.0542 6.29863 12.694V8.5123C6.29863 8.14214 5.99875 7.83201 5.61891 7.83201H3.67972C3.30987 7.83201 3 8.13214 3 8.5123V12.694C3 13.0542 3.28988 13.3443 3.64973 13.3643V15.3351C3.64973 16.9258 4.9292 18.2163 6.49854 18.2163C8.06789 18.2163 9.34736 16.9258 9.34736 15.3351V6.25135C9.34736 6.17132 9.40733 6.10129 9.4873 6.10129H9.59725V7.20175C9.59725 8.10213 9.69721 12.2038 10.5968 14.6148C10.197 14.915 9.99708 15.4152 9.99708 16.0154V17.8162C9.99708 18.6165 10.4969 19.3168 11.2965 19.6169C11.5964 20.3172 12.3961 21.6178 13.3957 22.5181C13.0958 23.4185 12.7959 24.7991 12.7959 25.9996C12.7959 26.5998 13.1958 27 13.7955 27H22.9017C23.5015 27 23.9013 26.5998 23.9013 25.9996C23.9013 24.7991 23.4915 23.4185 23.2915 22.5181C24.3911 21.7178 25.0908 20.4173 25.3907 19.6169C25.6905 19.5169 25.8905 19.4168 26.0904 19.1167C26.4902 18.7165 26.5902 18.3164 26.5902 17.8162V16.0154C26.5902 15.4152 26.2903 14.915 25.9904 14.6148C26.99 12.2138 26.99 8.11213 26.99 7.20175V4.00042H27ZM18.2936 5.00083C20.2928 5.00083 21.8921 7.40183 21.8921 10.203C21.8921 11.7036 21.4923 13.1042 20.6926 14.0046H15.7947C15.095 13.1042 14.6951 11.7036 14.6951 10.203C14.6951 7.40183 16.2945 5.00083 18.2936 5.00083ZM11.5964 5.00083H14.4952C13.2957 6.30138 12.696 8.20217 12.696 10.203C12.696 11.6036 12.9958 12.9041 13.5956 14.0046H12.596C11.8963 12.604 11.5964 9.10254 11.5964 7.09171V4.99083V5.00083ZM21.7022 21.1175C21.2024 21.3176 21.0025 21.9179 21.2024 22.318C21.2024 22.318 21.7122 23.5986 21.9121 24.8991H15.015C15.2149 23.5986 15.7147 22.318 15.7147 22.318C15.9146 21.8178 15.6147 21.3176 15.2149 21.1175C14.7151 20.9175 14.2153 20.3172 13.8155 19.717H23.3215C22.7218 20.2172 22.222 20.8174 21.7222 21.1175H21.7022ZM24.701 17.7161H11.8963V16.1155H24.701V17.7161ZM25.1008 7.30179C25.1008 9.30263 24.8009 12.8041 24.1012 14.2147H23.1016V14.1146C23.7014 13.0142 24.0012 11.6136 24.0012 10.313C24.0012 8.21217 23.3015 6.41142 22.202 5.11088H25.1008V7.3118V7.30179Z" fill="currentColor"/>
</symbol>
</svg>
