<svg xmlns="http://www.w3.org/2000/svg" viewBox="0 0 30 30" fill="none">
<symbol id="Smartphone">
<path fill-rule="evenodd" clip-rule="evenodd" d="M10.7928 2.55006H19.3078C19.7717 2.54875 20.2314 2.63825 20.6605 2.81343C21.0896 2.98861 21.4798 3.24602 21.8088 3.57103C22.1378 3.89603 22.3991 4.28224 22.5779 4.70759C22.7567 5.13295 22.8493 5.58912 22.8507 6.05006V24.0501C22.8493 24.511 22.7567 24.9672 22.5779 25.3925C22.3991 25.8179 22.1378 26.2041 21.8088 26.5291C21.4798 26.8541 21.0896 27.1115 20.6605 27.2867C20.2314 27.4619 19.7717 27.5514 19.3078 27.5501H10.7928C10.3289 27.5514 9.86928 27.4619 9.44016 27.2867C9.01103 27.1115 8.62083 26.8541 8.29185 26.5291C7.96286 26.2041 7.70152 25.8179 7.52276 25.3925C7.344 24.9672 7.25132 24.511 7.25 24.0501V6.05006C7.25132 5.58912 7.344 5.13295 7.52276 4.70759C7.70152 4.28224 7.96286 3.89603 8.29185 3.57103C8.62083 3.24602 9.01103 2.98861 9.44016 2.81343C9.86928 2.63825 10.3289 2.54875 10.7928 2.55006ZM20.6263 24.0501V20.7501H9.48442V24.0501C9.48442 24.3948 9.62228 24.7255 9.86766 24.9693C10.113 25.2131 10.4458 25.35 10.7928 25.35H19.3078C19.6558 25.3501 19.9896 25.2134 20.2366 24.9699C20.4836 24.7264 20.6237 24.3958 20.6263 24.0501ZM20.6263 18.5501V6.05006V6.00008C20.6108 5.66315 20.465 5.34513 20.2194 5.11229C19.9738 4.87945 19.6473 4.74972 19.3078 4.75008H10.7928C10.4458 4.75008 10.113 4.88702 9.86766 5.13081C9.62228 5.37461 9.48442 5.70528 9.48442 6.05006V18.5501H20.6263ZM15.655 24.0999H14.4472C14.1536 24.0999 13.872 23.984 13.6644 23.7777C13.4567 23.5714 13.3401 23.2916 13.3401 22.9999C13.3401 22.7082 13.4567 22.4284 13.6644 22.2221C13.872 22.0158 14.1536 21.8999 14.4472 21.8999H15.655C15.9487 21.8999 16.2302 22.0158 16.4379 22.2221C16.6455 22.4284 16.7622 22.7082 16.7622 22.9999C16.7622 23.2916 16.6455 23.5714 16.4379 23.7777C16.2302 23.984 15.9487 24.0999 15.655 24.0999Z" fill="currentColor"/>
</symbol>
</svg>
