<svg xmlns='http://www.w3.org/2000/svg' viewBox='0 0 30 30' fill='none'>
<symbol id='Snacks'>
<path d="M27 18.9015C27 17.6282 26.15 16.5484 25 16.2224C24.81 15.5093 24.34 14.9083 23.7 14.5416C23.71 14.4601 23.74 14.3888 23.74 14.3073C23.81 13.4924 23.57 12.6978 23.06 12.0662C22.89 11.8625 22.7 11.6995 22.49 11.5467C22.96 11.4143 23.29 10.9457 23.21 10.4363C23.13 9.87606 22.62 9.48896 22.08 9.58065C20.88 9.75382 20.26 10.4363 19.97 11.0781C19.55 11.1902 19.16 11.3837 18.82 11.6791C18.2 12.1986 17.82 12.9423 17.75 13.7572C17.73 13.9711 17.73 14.1749 17.75 14.3786C16.92 14.7046 16.29 15.4278 16.08 16.3141C15.99 16.3548 15.9 16.3956 15.82 16.4363L16.08 12.7589C16.5 12.6367 16.82 12.2598 16.82 11.7912C16.82 11.2309 16.37 10.7725 15.82 10.7725H10.8V4.01868C10.8 3.4584 10.35 3 9.8 3C9.25 3 8.8 3.4584 8.8 4.01868V10.7725H4C3.45 10.7725 3 11.2309 3 11.7912C3 12.2598 3.32 12.6367 3.74 12.7589L4.51 23.9338C4.63 25.6553 6.05 27 7.74 27H12.07C13.76 27 15.18 25.6553 15.3 23.9338L15.49 21.1426C15.57 21.2037 15.66 21.2445 15.75 21.2954L16.51 25.4007C16.68 26.3379 17.36 26.9898 18.16 26.9898H23.16C23.96 26.9898 24.64 26.3379 24.81 25.4007L25.57 21.3056C26.41 20.8268 26.98 19.9304 26.98 18.8913L27 18.9015ZM13.31 23.7912C13.26 24.4431 12.72 24.9626 12.08 24.9626H7.75C7.1 24.9626 6.56 24.4533 6.52 23.7912L5.76 12.82H14.08L13.32 23.7912H13.31ZM20.1 13.2479C20.28 13.0951 20.51 13.0136 20.74 13.0136C20.77 13.0136 20.8 13.0136 20.83 13.0136C21.1 13.034 21.34 13.1664 21.51 13.3803C21.68 13.5942 21.76 13.8591 21.74 14.1341C21.69 14.7046 21.18 15.1222 20.64 15.0611C20.09 15.0102 19.68 14.511 19.73 13.9406C19.75 13.6655 19.88 13.4211 20.09 13.2377L20.1 13.2479ZM23.08 17.0577C23.05 17.3633 23.19 17.6689 23.41 17.8829C23.63 18.0968 23.97 18.1986 24.27 18.1579C24.67 18.1579 25 18.4941 25 18.9015C25 19.309 24.69 19.635 24.31 19.635H17.04C16.66 19.6044 16.36 19.2886 16.36 18.9015C16.36 18.5144 16.67 18.1783 17.07 18.1681C17.35 18.1681 17.6 17.9949 17.78 17.781C17.96 17.5671 18.04 17.2513 18.02 16.966C18.02 16.5789 18.31 16.2733 18.68 16.2428C19.16 16.7114 19.77 17.0272 20.48 17.0985C20.57 17.0985 20.66 17.1087 20.76 17.1087C21.51 17.1087 22.21 16.8132 22.75 16.3345C22.97 16.4669 23.11 16.691 23.11 16.9355V17.0577H23.08ZM22.86 24.9626H18.46L17.85 21.6825H23.47L22.86 24.9626Z" fill="currentcolor"/>
</symbol>
</svg>
