<svg xmlns='http://www.w3.org/2000/svg' viewBox='0 0 30 30' fill='none'>
<symbol id='Snorkeling'>
<path fill-rule="evenodd" clip-rule="evenodd" d="M23.5099 3H25.4499C26.3099 3 26.9999 3.70175 26.9999 4.55389V8.16291C26.9999 9.00501 26.3199 9.68672 25.4799 9.70677V19.4812C25.4799 22.7895 22.6799 25.4762 19.2499 25.4762H16.3599C16.3499 26.3183 15.6599 27 14.8199 27H11.2299C10.3699 27 9.67993 26.2982 9.67993 25.4461V23.5013C9.67993 22.6391 10.3799 21.9474 11.2299 21.9474H14.8199C15.6599 21.9474 16.3399 22.6291 16.3599 23.4712H19.2499C21.5799 23.4712 23.4799 21.6767 23.4799 19.4812V9.70677C22.6399 9.69674 21.9599 9.00501 21.9599 8.16291V4.55389C21.9599 3.69173 22.6599 3 23.5099 3ZM11.6699 24.985H14.3599V23.9524H11.6699V24.985ZM24.9999 5.00501H23.9699V7.70176H24.9999V5.00501ZM13.1 18.2881C12.99 17.8971 12.35 17.8971 12.24 18.2881C11.58 20.5638 9.3 21.9973 6.95 21.6264C4.7 21.2755 3 19.2104 3 16.8244V14.1377C3 12.4735 4.35 11.1101 6.02 11.1101H19.32C20.98 11.1101 22.34 12.4635 22.34 14.1377V16.8244C22.34 19.2003 20.64 21.2655 18.39 21.6264C18.14 21.6665 17.89 21.6866 17.64 21.6866C15.57 21.6866 13.69 20.3232 13.1 18.2881ZM5 16.8144C5 18.2179 5.97 19.4409 7.26 19.6414L7.27 19.6515C8.65 19.852 9.94 19.06 10.33 17.7267C10.63 16.6841 11.6 15.9522 12.68 15.9522C13.76 15.9522 14.73 16.6841 15.03 17.7267C15.42 19.05 16.7 19.862 18.09 19.6414C19.38 19.4409 20.35 18.2179 20.35 16.8144V14.1277C20.35 13.5663 19.89 13.1051 19.33 13.1051H6.02C5.46 13.1051 5 13.5663 5 14.1277V16.8144Z" fill="currentcolor"/>
</symbol>
</svg>
