<svg xmlns='http://www.w3.org/2000/svg' viewBox='0 0 30 30' fill='none'>
<symbol id='Soup'>
<path fill-rule="evenodd" clip-rule="evenodd" d="M15.7302 13.8224C15.4002 13.8224 15.0802 13.6472 14.8902 13.3481V13.3584L14.8856 13.3507C14.7776 13.1683 13.3573 10.7702 14.8502 7.9245C15.7613 6.18254 14.9789 4.75638 14.8969 4.6069C14.8925 4.59888 14.8902 4.59454 14.8902 4.59401C14.5802 4.1197 14.7202 3.48041 15.1802 3.17108C15.6402 2.85144 16.2602 2.99579 16.5602 3.4701L16.5647 3.47784C16.6727 3.66022 18.093 6.05834 16.6002 8.90405C15.689 10.646 16.4714 12.0722 16.5534 12.2216C16.5578 12.2297 16.5602 12.234 16.5602 12.2345C16.8602 12.7088 16.7302 13.3481 16.2702 13.6575C16.1102 13.7709 15.9202 13.8224 15.7302 13.8224ZM12.4801 13.8224C12.1501 13.8224 11.8301 13.6574 11.6401 13.3481L11.6301 13.3687L11.6256 13.361C11.5176 13.1786 10.0973 10.7805 11.5901 7.93478C12.5401 6.14065 11.6701 4.65586 11.6301 4.59399C11.3401 4.10937 11.4801 3.48039 11.9401 3.17106C12.4001 2.86173 13.0101 2.99577 13.3101 3.47008L13.3147 3.47782C13.4227 3.66019 14.843 6.05832 13.3501 8.90403C12.439 10.646 13.2214 12.0721 13.3034 12.2216L13.3076 12.2294C13.3093 12.2325 13.3101 12.2342 13.3101 12.2345C13.6201 12.7088 13.4801 13.3481 13.0201 13.6574C12.8601 13.7709 12.6701 13.8224 12.4801 13.8224ZM18.1801 13.3481C18.3701 13.6472 18.6901 13.8224 19.0201 13.8224C19.2101 13.8224 19.4001 13.7709 19.5601 13.6575C20.0201 13.3481 20.1501 12.7088 19.8501 12.2345C19.8501 12.2342 19.8492 12.2325 19.8475 12.2293C19.8464 12.2273 19.845 12.2248 19.8433 12.2216C19.7613 12.0722 18.9789 10.646 19.8901 8.90405C21.383 6.05832 19.9626 3.66018 19.8546 3.47784L19.8501 3.4701C19.5501 2.99579 18.9301 2.85144 18.4701 3.17108C18.0101 3.48041 17.8701 4.1197 18.1801 4.59401C18.1801 4.59454 18.1825 4.59888 18.1868 4.6069C18.2689 4.75638 19.0512 6.18254 18.1401 7.9245C16.6472 10.7702 18.0675 13.1683 18.1755 13.3507L18.1801 13.3584V13.3481ZM11.8601 15.0701H25.0901L25.1001 15.0804C26.1501 15.0804 27.0001 15.9568 27.0001 17.0395V19.3595C27.0001 23.5767 23.6801 27 19.5901 27H11.9301C7.84014 27 4.52014 23.5767 4.52014 19.3595V17.0395C4.52014 16.0909 5.17014 15.3072 6.03014 15.1216L3.36014 11.2653C2.74014 10.3682 2.94014 9.12056 3.81014 8.48128L4.57014 7.91417C5.44014 7.27488 6.65014 7.4811 7.27014 8.37817L11.7701 14.8638C11.7983 14.9074 11.8166 14.9562 11.8354 15.0064C11.8433 15.0274 11.8513 15.0488 11.8601 15.0701ZM5.64385 9.56928L4.97014 10.1414L8.46014 15.0598H9.46014L5.64385 9.56928ZM19.5801 24.9172C22.5601 24.9172 24.9901 22.4116 24.9901 19.3389V17.122H6.51014V19.3389C6.51014 22.4116 8.94014 24.9172 11.9201 24.9172H19.5801Z" fill="currentcolor"/>
</symbol>
</svg>
