<svg xmlns='http://www.w3.org/2000/svg' viewBox='0 0 30 30' fill='none'>
    <symbol id="Sterilizer">
        <path fill="currentColor" fill-rule="evenodd" d="M23 10.4c0-.44-.33-.81-.78-.93a4.47 4.47 0 0 0-4.1-4.01A3.1 3.1 0 0 0 14.99 3a3.1 3.1 0 0 0-3.12 2.46 4.45 4.45 0 0 0-4.09 4c-.44.13-.78.5-.78.95 0 .48.37.86.86.96V12A3 3 0 0 0 5 15v9a3 3 0 0 0 3 3h14a3 3 0 0 0 3-3v-9a3 3 0 0 0-2.86-3v-.63c.5-.1.86-.48.86-.96ZM19.97 12v-.6h-9.94v.6h9.94Zm-7.56-4.57h.5c.6 0 1.09-.45 1.09-1v-.51c0-.51.44-.92 1-.92.55 0 1 .4 1 .92v.5c0 .56.48 1 1.08 1h.5c1.25 0 2.3.87 2.47 1.99H9.94a2.44 2.44 0 0 1 2.47-1.98ZM7 15a1 1 0 0 1 1-1h14a1 1 0 0 1 1 1v9a1 1 0 0 1-1 1H8a1 1 0 0 1-1-1v-9Z" clip-rule="evenodd"/>
    </symbol>
</svg>