<svg xmlns='http://www.w3.org/2000/svg' viewBox='0 0 30 30' fill='none'>
<symbol id='Surf'>
<path fill-rule="evenodd" clip-rule="evenodd" d="M6.78947 14.8301C6.08985 15.4901 5.28028 16.0001 4.38077 16.3701H4.41076C3.90103 16.5701 3.32135 16.3301 3.11146 15.8201C2.90158 15.3101 3.15144 14.7301 3.66116 14.5201C4.12091 14.3401 4.81054 13.9801 5.45019 13.3801C5.82999 13.0201 6.20978 12.4001 6.60956 11.7401L6.62755 11.7107C7.60386 10.1157 8.81316 8.14012 11.2171 8.14012C12.6063 8.14012 13.4259 8.69012 13.8756 9.16012C14.8449 10.1881 14.8366 11.5642 14.8352 11.7922C14.8351 11.7993 14.8351 11.8053 14.8351 11.8101C14.8151 12.2501 14.5153 12.6201 14.0855 12.7301C13.6657 12.8401 13.216 12.6601 12.9861 12.2801C12.7762 11.9401 12.4064 11.6201 12.2765 11.6201C12.1566 11.7201 11.8867 12.2601 12.0566 12.9301C12.3464 14.0601 13.6957 14.9001 15.8545 15.3301C15.8645 7.22905 19.6348 3.45772 19.8112 3.2813L19.8124 3.28012C20.1922 2.90012 20.8119 2.90012 21.2016 3.28012C21.3616 3.43012 25.1595 7.22012 25.1595 15.3601C25.1595 17.0301 25.1095 18.5801 24.9996 19.9801C25.2594 19.8501 25.4293 19.7501 25.4593 19.7301C25.9291 19.4301 26.5387 19.5701 26.8386 20.0301C27.1384 20.4901 27.0085 21.1101 26.5487 21.4101C26.5449 21.4124 26.5395 21.4157 26.5326 21.4199C26.2741 21.5777 23.9105 23.0201 20.532 23.0201C18.763 23.0201 16.7141 22.6301 14.5353 21.4501C9.15818 18.5401 4.75057 21.2901 4.56068 21.4101C4.09093 21.7101 3.48126 21.5701 3.18142 21.1101C2.88159 20.6501 3.01152 20.0301 3.47127 19.7301C3.69115 19.5801 9.03825 16.2001 15.4748 19.6901C15.6546 19.7801 15.8245 19.8601 15.9944 19.9401L15.9945 19.9401C15.9245 19.1301 15.8945 18.2601 15.8645 17.3601H15.7946C11.2171 16.5801 10.2076 14.3301 10.0177 13.0601C9.84781 11.9401 10.2076 10.7801 10.8872 10.1501C9.8578 10.3101 9.17817 11.3101 8.28865 12.7701C7.81891 13.5501 7.36915 14.2901 6.78947 14.8301ZM23.1306 15.3701C23.1306 10.2301 21.4515 7.03012 20.472 5.60012C19.4926 7.04012 17.8135 10.2301 17.8135 15.3701C17.8135 17.3601 17.8934 19.1401 18.0434 20.7101C19.9423 21.1901 21.6214 21.0501 22.8907 20.7401C23.0506 19.1601 23.1306 17.3701 23.1306 15.3701ZM15.4547 23.6699C20.8318 26.5799 25.2394 23.8299 25.4293 23.7099H25.4393C25.9091 23.4099 26.5187 23.5499 26.8186 24.0099C27.1184 24.4699 26.9885 25.0899 26.5287 25.3899C26.5249 25.3923 26.5195 25.3955 26.5126 25.3997C26.2541 25.5575 23.8905 26.9999 20.512 26.9999C18.743 26.9999 16.6941 26.6099 14.5153 25.4299C9.13817 22.5199 4.73056 25.2699 4.54067 25.3899C4.07092 25.6899 3.46125 25.5499 3.16142 25.0899C2.86158 24.6299 2.99151 24.0099 3.45126 23.7099C3.67114 23.5699 9.01824 20.1799 15.4547 23.6699Z" fill="currentcolor"/>
</symbol>
</svg>
