<svg xmlns='http://www.w3.org/2000/svg' viewBox='0 0 30 30' fill='none'>
<symbol id='SwimmingArea'>
<path fill-rule="evenodd" clip-rule="evenodd" d="M3.00913 20.553C3.00692 20.5097 3.00479 20.4678 3.01141 20.4216C3.01937 20.3738 3.03366 20.3324 3.04925 20.2873C3.05325 20.2757 3.05734 20.2639 3.06142 20.2516C3.07342 20.2276 3.08223 20.2036 3.09103 20.1796C3.10423 20.1436 3.11744 20.1077 3.14144 20.0717C3.16145 20.0317 3.19035 20.0006 3.21925 19.9695C3.23369 19.9539 3.24814 19.9384 3.26148 19.9217C3.30149 19.8817 3.36151 19.8017 3.36151 19.8017L9.40327 14.9931C9.53331 14.8932 9.56331 14.7132 9.48329 14.5833L6.72249 10.1945L6.66247 10.0746C6.35238 9.40476 6.33237 8.66497 6.60245 7.97517C6.87253 7.29537 7.39268 6.75553 8.07288 6.47561L15.9252 3.20656C17.1755 2.68671 18.626 3.17656 19.2962 4.35622C19.6563 4.98604 19.7463 5.70583 19.5462 6.40563C19.3562 7.09543 18.896 7.67526 18.2659 8.02516L13.8246 10.3045L16.7654 14.0934C16.7894 14.1234 16.8026 14.1534 16.8158 14.1834C16.8246 14.2034 16.8334 14.2234 16.8454 14.2434C16.8347 14.1968 16.8226 14.1515 16.8107 14.1066C16.7893 14.0261 16.7682 13.9468 16.7554 13.8635C16.6054 12.7138 16.9055 11.5741 17.6157 10.6544C18.3159 9.73466 19.3462 9.14483 20.4965 8.99488C21.6568 8.84492 22.7972 9.14483 23.7174 9.85463C24.6377 10.5644 25.2279 11.5841 25.3779 12.7338C25.528 13.8835 25.2279 15.0231 24.5177 15.9429C23.8175 16.8626 22.7872 17.4524 21.6368 17.6024C21.4468 17.6324 21.2567 17.6424 21.0667 17.6424C20.6265 17.6424 20.1864 17.5624 19.7663 17.4324L22.6271 20.8015C24.2976 20.4416 25.3679 19.7917 25.4579 19.7318C25.9181 19.4318 26.5383 19.5718 26.8383 20.0317C27.1384 20.4915 27.0084 21.1114 26.5483 21.4113C26.5444 21.4136 26.539 21.4169 26.5321 21.4211C26.2734 21.5788 23.9078 23.0208 20.5265 23.0208C18.756 23.0208 16.7054 22.6309 14.5248 21.4513C9.14319 18.5421 4.73191 21.2913 4.54185 21.4113C4.5208 21.4253 4.50467 21.4295 4.48656 21.4342C4.47885 21.4362 4.47078 21.4383 4.46183 21.4413C4.3818 21.4813 4.30178 21.5112 4.22176 21.5312C4.19175 21.5412 4.15174 21.5512 4.11173 21.5512C4.07171 21.5612 4.0317 21.5712 4.00169 21.5712C3.98777 21.5712 3.97384 21.5669 3.95891 21.5623C3.94168 21.557 3.92311 21.5512 3.90167 21.5512C3.82164 21.5412 3.75162 21.5212 3.6816 21.5012L3.68157 21.5012C3.62157 21.4812 3.56156 21.4613 3.51155 21.4313C3.44153 21.3913 3.38151 21.3413 3.3215 21.2813C3.30713 21.2705 3.29276 21.2624 3.27886 21.2544C3.25404 21.2403 3.2307 21.227 3.21146 21.2013C3.19743 21.1943 3.19324 21.1824 3.18854 21.169C3.18653 21.1633 3.18444 21.1573 3.18146 21.1514C3.17812 21.148 3.17367 21.1447 3.16923 21.1414C3.16034 21.1347 3.15145 21.128 3.15145 21.1214C3.13344 21.0974 3.12624 21.0734 3.11904 21.0494C3.11424 21.0334 3.10943 21.0174 3.10143 21.0014C3.07142 20.9314 3.04141 20.8614 3.02141 20.7915C3.01141 20.7315 3.01141 20.6815 3.01141 20.6215C3.01141 20.5978 3.01026 20.5752 3.00913 20.553ZM20.7666 10.9743C20.1464 11.0543 19.5862 11.3742 19.2061 11.874C18.816 12.3739 18.656 12.9937 18.736 13.6135C18.816 14.2334 19.1361 14.7932 19.6362 15.1731C20.1364 15.563 20.7566 15.7229 21.3768 15.6429C21.9969 15.563 22.5571 15.2431 22.9372 14.7432C23.3273 14.2434 23.4874 13.6235 23.4073 13.0037C23.3273 12.3839 23.0072 11.8241 22.5071 11.4442C22.087 11.1243 21.5868 10.9543 21.0767 10.9543C20.9766 10.9543 20.8666 10.9643 20.7666 10.9743ZM11.1638 13.5236C11.794 14.5333 11.5639 15.8329 10.6336 16.5627H10.6036L8.58303 18.1722C10.5336 18.0323 12.8843 18.3322 15.425 19.7018C17.1255 20.6215 18.726 20.9714 20.1364 21.0214L18.1758 18.7221C17.8257 18.3022 17.8757 17.6724 18.2959 17.3125C18.4759 17.1625 18.686 17.0925 18.906 17.0925C18.726 16.9926 18.5459 16.8826 18.3759 16.7526C17.6957 16.2328 17.2055 15.533 16.9255 14.7432C16.9255 15.0331 16.8054 15.313 16.5554 15.503C16.1252 15.8429 15.495 15.7629 15.1549 15.323L12.004 11.2642C11.7039 10.8843 11.5739 10.3745 11.6739 9.88462C11.764 9.39476 12.074 8.96489 12.5142 8.72496L17.2956 6.26567C17.4256 6.18569 17.5456 6.04573 17.5957 5.86578C17.6457 5.69583 17.6257 5.50589 17.5356 5.34593C17.3656 5.05602 16.9955 4.92606 16.6754 5.05602L8.8231 8.32507C8.65305 8.39505 8.51301 8.53501 8.44299 8.71496C8.38297 8.87491 8.38297 9.04486 8.44299 9.20482L11.1638 13.5236ZM15.4751 23.671C20.8567 26.5801 25.268 23.8309 25.458 23.711C25.9182 23.411 26.5384 23.551 26.8384 24.0109C27.1385 24.4707 27.0085 25.0906 26.5484 25.3905C26.3983 25.4904 23.9976 27 20.5266 27C18.7561 27 16.7055 26.6101 14.5249 25.4305C9.14329 22.5213 4.73201 25.2705 4.54195 25.3905C4.07182 25.6904 3.46164 25.5504 3.16155 25.0906C2.86146 24.6307 2.9915 24.0109 3.45163 23.711C3.6717 23.571 9.02326 20.192 15.4751 23.671Z" fill="currentcolor"/>
</symbol>
</svg>
