<svg xmlns='http://www.w3.org/2000/svg' viewBox='0 0 30 30' fill='none'>
<symbol id='TeaMaker'>
<path fill-rule="evenodd" clip-rule="evenodd" d="M20.8997 10.7032L22.4808 11.1634H22.4703C23.9881 11.6036 25 12.9141 25 14.4148V18.5465C25 19.5969 24.5046 20.5673 23.6297 21.2176L22.2278 22.258L22.3543 23.3285C22.4597 24.2589 22.1435 25.1992 21.4794 25.8995C20.8259 26.5998 19.8773 27 18.8865 27H10.4962C9.51589 27 8.56723 26.5998 7.90318 25.8995C7.23912 25.1992 6.9229 24.2589 7.02831 23.3285L7.87156 16.0254L5.16263 10.4131C4.90965 9.88287 4.95181 9.28262 5.28911 8.79241C5.62641 8.30221 6.18506 8.01209 6.79642 8.01209H9.56859L9.60021 7.92205C10.1167 6.22134 11.7189 5.01084 13.5635 4.90079V4.00042C13.5635 3.45019 14.0378 3 14.6175 3C15.1973 3 15.6716 3.45019 15.6716 4.00042V4.88078C17.5794 4.9208 19.2765 6.16132 19.814 7.92205L19.8562 8.05211C20.2884 8.13214 20.6362 8.46228 20.6889 8.90246L20.8997 10.7032ZM15.5767 6.87161H13.8586C13.0154 6.87161 12.2459 7.3218 11.8454 8.01209H17.59C17.1894 7.3218 16.42 6.87161 15.5767 6.87161ZM8.57777 10.0129H7.30236L8.33534 12.1538L8.57777 10.0129ZM18.897 24.9992C19.287 24.9992 19.6559 24.8491 19.9194 24.569H19.93C20.1935 24.2789 20.32 23.9187 20.2778 23.5486L18.7073 10.0029H10.707L9.13643 23.5486C9.09426 23.9287 9.22075 24.2889 9.48426 24.569C9.74778 24.8491 10.1062 24.9992 10.5067 24.9992H18.897ZM22.3227 19.6569C22.6811 19.3868 22.8919 18.9867 22.8919 18.5565V14.4248C22.8919 13.8045 22.4703 13.2643 21.8484 13.0842L21.1421 12.8741L21.9538 19.9271L22.3227 19.6569ZM13.5847 11.1433H15.6506C16.5782 11.1433 17.3898 11.8836 17.3898 12.7239V22.8882C17.3898 23.7585 16.6098 24.4688 15.6506 24.4688H13.5847C12.6571 24.4688 11.8455 23.7285 11.8455 22.8882V12.7239C11.8455 11.8536 12.6255 11.1433 13.5847 11.1433ZM15.2817 14.1445V13.1441H13.9536V14.1445H15.2817ZM13.9536 16.1454V22.468H15.2817V16.1454H13.9536Z" fill="currentcolor"/>
</symbol>
</svg>
