<svg xmlns='http://www.w3.org/2000/svg' viewBox='0 0 696 830' fill='none'><symbol id='Thaiwoo_Outline'>
  <g fill="#FDBE00">
    <path d="m569.1 439.2-1-14a3041 3041 0 0 0-8-74c-3-15-7-30-12-44l-21-55-13-25c-10-16-21-32-33-46-13-16-29-29-48-36a288.4 288.4 0 0 0-87-19c-27.6 2.3-54.8 8-81 17-12 4-23 10-33 18-8 6-15 13-22 22a524.9 524.9 0 0 0-45 71 4279 4279 0 0 0-23 63c-8 22-12 44-14 67l-3 31c-1 23.4-.4 46.8 2 70l7 34c9 39 28 74 54 104 12 14 25 27 39 39 18 15 39 26 62 32l27 6c6 2 13 3 19 3 12 .2 24.1-.5 36-2l19-3 27-8c20-7 38-18 53-32l23-23a236.4 236.4 0 0 0 61-100l8-34c5-20 7-41 7-62m-451-19 1-27a364 364 0 0 1 21-100l15-38a470.4 470.4 0 0 1 47-73c13-16 30-29 48-38a225.6 225.6 0 0 1 75-24l19 1h4l16-1c10 0 19 1 28 4 15 5 29 9 42 16a175.2 175.2 0 0 1 56 42 447.9 447.9 0 0 1 47 71l19 50c7 19 11 38 14 58 4.7 37.5 5.4 75.4 2 113l-3 24c-2 29-11 57-25 84a283.7 283.7 0 0 1-67 82c-19 18-41 29-66 35-9 3-19 4-28 6l-17 2a138.2 138.2 0 0 1-48-1l-26-4a158 158 0 0 1-72-34 273.7 273.7 0 0 1-85-119c-5-11-8-23-10-36l-4-41-3-48v-4"/>
    <path d="M271.1 221.2h8l4-2c3-2 7-5 9-9l3-4-5 2-18 12h-1v1m150 1-1-1-20-13-4-2h-1v1c3 5 7 9 11 12l5 2 8 1h2m-189 44 1-3h-1l-1 2-15 25-11 22-1 3 1 1 9-11 8-11c3-3 5-7 6-11 2-6 4-11 4-17m224-4 3 16c2 6 5 12 9 17l7 9c2 4 5 8 9 11h1v-3l-1-2-26-49h-2v1m-68 7 9-1 14-3 1-1-1-1c-10-3-20-6-29-11l-4 1-8 8-3 4c1 2 3 1 5 2l16 2m-86 0 20-3v-1c-3-5-6-9-11-12h-4l-14 6-14 4-2 1 2 1 10 2c4 2 8 2 13 2m123 33v-5h-1c-4 2-8 5-13 6l-1 1v3c-1 7 0 15 1 22 0 2 1 2 2 1l12-4 4-1c2-1 2-1 1-3l-2-6c-2-5-3-9-3-14m-145 12-1-9c0-2-1-2-2-3-4 0-7-2-9-4l-3-2-1 1v3c1 5-1 11-3 17l-1 3c-2 4-2 5 3 6l2 1 9 2 2 1c1 1 2 0 2-1l2-15m107-13 3-1 10-1 13-2 12-4 2-2 2-10v-1l-1 1-5 9-5 5-4-2c0-2 0-4 2-5l4-1 4-3 4-10h-1l-2 3-8 5c-3 1-5 2-6 5l-2 3-2 1-4-1c-1-1-2-3-1-4 1-3 3-4 5-5h3l4-1 11-7 4-3v-1h-2c-5 2-11 4-16 8-2 2-3 2-6 2l-3-3c0-2 2-3 3-4h10l12-5-1-1h-8l-4 1-10 4-9 3c-2 1-4 2-5 5a1740 1740 0 0 0-5 22h2m-119-35h-5l-1 1h1l6 3c3 2 7 3 11 2h5l2 4c0 2-2 2-3 3-3 0-5 0-7-2-3-3-7-5-12-7l-4-1h-1v1l1 1 15 10h6l5 4c1 2 1 4-1 5h-5l-3-3c-1-3-3-4-5-5-4-1-7-3-9-6l-2-2h-1v1l3 8c1 2 3 4 6 4h2l2 3v3c0 1-2 2-3 1l-3-1-2-4-5-8h-1l2 8 3 4c4 3 9 4 13 4 8.1.6 16.1 2 24 4 3 0 4 0 3-4l-1-3-4-14c-1-3-4-5-7-6l-17-7-8-1m1-4c13-3.8 26-7.8 39-12l5-3v-1h-1l-12-6-7-4-8-5c-6-3-14-4-21-4l-5 2-6 5-13 16-1 1c-2 3-2 3 1 4a360 360 0 0 0 29 7m151 0 7-1c8-1 16-4 23-7h1l1-2-2-2-13-15-6-6-5-2c-9 0-17 1-25 6l-11 7c-4 2-8 5-13 6h-1l1 1 5 3 12 5 12 4c4 2 9 3 14 3m9 34 1 6 2 10 2 10c1 6 4 10 6 15 1 2 2 2 3 0l13-11 7-8 4-13-1-2-5-9c-4-9-7-18-8-28v-2l-2-1-1 1-7 2c-3 0-5 2-6 4-5 8-7 16-8 26m-169 0c-1-10-3-18-8-26v-1c-1-2-3-2-5-3-3 0-6-1-8-3h-1l-2 1v2a76.7 76.7 0 0 1-12 35c-1 3-2 5-1 8v2c2 6 5 10 9 14l15 13c1 1 1 0 2-1 2.8-7 5.5-14 8-21l2-14 1-6m86 148 1-4 2-8 2-2 1 2 1 3 1 7c0 5 2 10 6 14l4 4 8 13 3 8 3 6 8 11h2l8-7c5-5 10-9 16-11l6-3v-2l-11-8-20-18c-7-6-12-13-15-22l-2-5-5-6-6-3-12-9-6-9-4-3-1 9c0 3 0 5 2 7l4 4c3 3 3 7 2 11l-2 4-1 8v7l-1 4v7l4 7 11 16 3 3 1 3a116 116 0 0 1-19-20l-4-7v-9l1-2 2-8v-9c1-3 1-6-1-9l-1-2c-4-5-4-10-3-15v-5h-1l-1 2c-5 8-12 14-21 18l-4 2c-4 1-7 4-10 7l-3 4-16 16c-2 2-2 2 0 4l1 1c8 10 19 18 28 27h1l6 3 5 1c4 0 7 1 10 4l13 8 9 6 9 7 4 2 6 3 3-1 9-9-7-10c-3-3-4-7-5-11v-4c-1-6-4-10-8-13l-5-4-6-4c-3-3-5-6-5-11m-1 198 11-2c17-4 33-10 48-19l15-10c16-10 30-23 43-37 8-8 15-18 20-28l12-25a176.5 176.5 0 0 0 13-40l-1-1-4 3c-3 2-4 2-7-1-6-5-12-10-16-17l-3-4c-1-2-3-4-6-5l-10-8-2-2v-1l-1 1c1 5 2 9 5 13l4 7c1 3 0 6-2 9l-3 2c-2 2-3 5-2 8l1 5c0 4 0 7-3 10l-4 5c-6 6-12 12-16 20l-2 2v-3l4-7c3-7 6-13 12-18 2-3 4-6 4-10-1-4 1-8 4-12 2-2 2-5 1-8l-3-7c-2-4-4-9-4-14v-1l-1 1-10 15-9 11c-5 6-11 9-18 9-5 0-9 3-12 7l-1 2-14 15-9 10c-7 7-15 13-23 17l-24 14-7 3v1-1l11-10 21-16 8-7v-2l-8-5-11-5-8-5c-6-3-11-7-14-11-2-3-5-4-7-5l-20-8c-7-3-13-8-19-14l-6-9-6-7-2-3h-1v13c-1 5 0 9 2 13 3.2 7 8 13.2 14 18 3 3 4 7 5 11v1l-1-1-2-1-5-9-5-6h-1v1l-2 12-2 6v3c1 3 2 7 5 10 2 2 4 4 4 7l2 7c0 1 1 2-1 3l-2-2c-3.8-8.3-7.5-16.6-11-25-2-3-2-7-1-10l1-6 2-5c0-3-1-5-3-7-5-4-7-10-5-17l1-6 2-10v-1l-1 1-4 5-7 8c-6 8-13 14-23 18l-6 3c-3 2-5 4-6 8l-1 3c-2 6-6 11-11 16l-7 6v6l16 33c4 8 9 15 15 21l17 18c19 17 41 31 64 42 12.4 5.5 25.5 9.2 39 11m166-215-1-20-2-22-6-22c-3-11-5-22-9-32l-5-12h-5c-3-5-7-7-11-11l-2 1-6 14c-1 4-4 8-8 11l-12 7c-2 1-3 1-4-1l-6-10c-2-4-2-4-6-2l-3 2-4 3-8 1c-2 0-3-1-3-3l-1-2-2-23v-1l-1-2h-2l-13 1-6-1c-3 0-4-2-3-5v-2l2-6 3-12c1-2 1-2-1-3-3 0-7-1-10-3l-10-4-1-1-1-2 1-3 8-8 4-3-4-3c-2-2-2-3-1-5l2-2 7-8 13-8 9-4v-1c-5-4-9-9-11-15l-4-3-2-1c-11-5-22-8-34-12-5-2-10-2-15 0l-14 5-22 8c-2 1-3 2-4 5a37.3 37.3 0 0 1-11 13v1c6 2 11 4 16 8a76.1 76.1 0 0 1 15 15v3l-1 1-4 3 4 2 2 2c3 2 5 5 7 9 1 2 0 3-2 4l-8 3c-4 2-8 4-12 4-1 0-2 1-1 2v3l4 13 2 5c0 3-1 5-4 5l-6 1-12-1c-4 0-4 0-4 4l-2 23c-1 3-2 4-5 4h-2c-3 0-6-2-9-4l-6-3-1 1-2 2-6 10c-1 2-2 2-3 1l-9-5c-6-3-11-8-13-15l-5-12-2-1-11 10-2 2c-2-1-2 0-3 1l-6 18-9 32-5 24c-2 14-2 27-2 41v3l1 1h2c2 1 3 3 3 5l-3 4c-2 1-3 1-2 3l1 12c1 12 3 24 7 35l1 3h1l8-7c4-2 7-5 9-9 3-5 7-9 12-13l7-7 14-14 6-7 6-6c3-2 6-3 10-2l5 2 5 4h3c9-7 17-15 23-24 3-5 7-8 11-11 8.5-6.1 16.5-12.7 24-20 2-2 4-2 6 0l5 4 6 8c5 6 10 11 17 15 3 1 5 4 7 7l3 4c6 9 13 17 22 24a131 131 0 0 1 23 21h2l4-6 11-15 7-8 5-3c2-2 4-1 6 0l3 2 4 5 7 4c5 1 9 4 12 8l12 17 2 2c1 2 1 2 2 1l8-8 2-5c2-12 2-23 2-38m8-6c-.2 35.3-7 70.2-20 103l-11 23c-5 12-12 22-19 32l-14 16-22 19c-15 9-30 18-45 24-12 5-24 8-36 10-7 1-15 0-22-2-17-3-32-9-47-17l-17-9c-14-9-27-20-37-33a592.3 592.3 0 0 1-25-36l-17-38c-6-14-9-29-12-43-3-16-4-32-4-48 0-20 2-39 7-59 3-11 5-22 9-32 9-28 22-53 41-75l17-21c9-11 20-21 32-30l19-11c14-6.3 28.8-10.7 44-13 6-1 11 0 17 1a168 168 0 0 1 49 18c13 9 25 19 36 31l15 18c21 24 36 51 46 81 8.3 28 13.7 56.9 16 86v5"/>
    <path d="M507.1 456.2c0 3-2 5-5 5s-5-2-5-5c0-2 2-5 5-5 2 0 5 2 5 5m-216-75c3 1 5 2 5 5 0 2-2 4-5 4-2 0-4-2-4-4 0-3 2-5 4-5m137 38c2 0 4 2 4 4s-2 5-4 5c-2-1-4-3-4-5s2-4 4-4m-41-72c0 2-1 4-3 4s-4-2-4-4 2-4 4-3c2 0 3 1 3 3m-47-65v-1l3-3 3 3 1 2c0 2-2 4-4 4-1 0-3-2-3-5m-120 111c0 1-1 3-3 3l-3-3c0-2 2-3 3-3 2 0 3 1 3 3m5 46c2 0 3 1 3 3 0 1-1 3-3 3l-3-3c0-2 2-3 3-3m14-68-2 3c-2 0-3-2-3-3 0-2 1-3 3-3 1 0 2 1 2 3m67-9c-2 0-3-1-3-3s2-3 4-3c1 0 2 1 2 3l-3 3m185 18-2-2c0-2 1-3 2-3 2 0 3 2 3 3l-3 2m-15 13 3 2-2 3c-2 0-3-1-3-3l2-2m-118-176c0 1-1 2-3 2-1 0-2-1-2-3 0-1 1-2 3-2l2 3m7 13-2 2-2-2 2-2 2 2m-14 373.3 2.8 2.8 2.8-2.8-2.8-2.8-2.8 2.8Zm-5.9-19.1c0 .4-.3 6.8-.2 13.3-6.8.5-5.7-13.3-5.3-15 .2-1.4-4.4 1.7-6.6 3.8.7 1.3 1.7 1 3 .5-.5 6.2 3.8 11.8 9 11.7.1 6.4.8 12.5 2.6 13 .2 0 .4-6.5.6-13.7 12.2-3.8 7.6-18.3 7.6-18.3-.2-.8-2 .3-6 3.9 1.6 1.7 2.3.7 3.6.3 1 1.9 1.4 10.5-5 13l.2-18-.4-.2c-1.8.2-5 3.4-7.5 6 1.4 2.3 3.1.3 4.4-.3"/>
  </g>
</symbol></svg>
