<svg xmlns='http://www.w3.org/2000/svg' viewBox='0 0 30 30' fill='none'>
<symbol id='ThaiBoxing'>
<path d="M24.9481 9.8443C24.8978 8.85512 24.094 8.07577 23.059 8.13572L21.3408 8.21565C20.979 8.23564 20.6374 8.35554 20.356 8.56536L15.4927 8.34555C16.0353 7.78601 16.3769 7.02664 16.387 6.18734C16.397 4.44879 14.9903 3.00999 13.2318 3C12.4079 3.01998 11.5839 3.30974 10.971 3.90924C10.3681 4.49875 10.0264 5.28809 10.0164 6.13739C10.0164 6.98668 10.3279 7.77602 10.9308 8.38551C10.9609 8.42548 11.0112 8.44546 11.0413 8.47544C10.6595 8.54538 10.3379 8.83514 10.2475 9.2348L8.72016 15.9292C8.72016 15.9292 8.72016 15.9992 8.71011 16.0291V16.0591C8.66992 16.259 8.65987 16.4588 8.64983 16.6586L8.35843 19.9459C8.17756 20.4854 7.90626 20.975 7.54452 21.4147L5.43439 23.9625C4.81139 24.7019 4.86164 25.801 5.56501 26.4704C5.9167 26.8102 6.37892 26.99 6.85119 26.99C7.27322 26.99 7.69524 26.8501 8.04693 26.5604L10.9408 24.0924C11.5136 23.6028 11.9959 23.0233 12.3677 22.3739L12.5184 22.1141L13.0108 25.4213C13.1916 26.3306 14.0156 27 14.9501 27C15.4927 27 16.0152 26.7702 16.397 26.3805C16.7688 25.9908 16.9597 25.4513 16.9296 24.9017L16.6784 21.3547C16.6281 20.5154 16.3468 19.6961 15.8645 18.9967L15.151 17.9675C14.8596 17.5479 14.7491 17.0383 14.8094 16.5587L16.3166 16.4888C17.2813 16.4488 18.0248 15.6295 17.9746 14.6803L17.9344 13.851C17.9143 13.3813 17.7033 12.9617 17.3818 12.6619L20.4163 12.4521C20.4163 12.4521 20.4766 12.4321 20.5068 12.4321C20.7881 12.612 21.1197 12.7119 21.4714 12.7119C21.5015 12.7119 21.5216 12.7119 21.5518 12.7119L23.27 12.632C23.7523 12.612 24.1945 12.4022 24.5261 12.0525C24.8576 11.7027 25.0184 11.2431 24.9983 10.7635L24.9581 9.87427L24.9481 9.8443ZM12.3777 5.32806C12.5988 5.10824 12.8902 4.99833 13.1916 4.99833H13.2017C13.8448 4.99833 14.3673 5.52789 14.3572 6.16736C14.3572 6.80683 13.8247 7.3164 13.1916 7.3164C12.8801 7.3164 12.5887 7.18651 12.3677 6.96669C12.1466 6.74688 12.026 6.44713 12.0361 6.13739C12.0361 5.82764 12.1667 5.53789 12.3878 5.31807L12.3777 5.32806ZM10.6193 21.3647C10.358 21.8143 10.0264 22.214 9.6245 22.5537L8.15746 23.8127L9.102 22.6736C9.65465 22.0042 10.0666 21.2548 10.3178 20.4255C10.3379 20.3555 10.358 20.2856 10.358 20.2157V20.1057L11.0212 20.6453L10.6193 21.3447V21.3647ZM14.9903 25.0616L14.508 21.8043C14.4175 21.1749 14.096 20.6053 13.6036 20.2057L11.4231 18.3972C10.9006 17.9475 10.6494 17.2881 10.6796 16.6286L10.7097 16.2689L12.217 9.66445C12.2571 9.4746 12.227 9.29475 12.1768 9.13489C12.4983 9.2448 12.8299 9.31474 13.1816 9.31474H13.2117C13.6438 9.31474 14.0558 9.22481 14.4376 9.06495C14.4175 9.13489 14.3874 9.20483 14.3874 9.28476C14.3673 9.8343 14.7893 10.3039 15.342 10.3239L18.7483 10.4738V10.5337L15.7841 10.7435C14.6788 10.8235 13.7644 11.6328 13.5735 12.6919L12.85 16.0891C12.6591 17.1382 12.8902 18.1973 13.4931 19.0766L14.2065 20.1057C14.4778 20.5054 14.6386 20.975 14.6788 21.4646L15.0104 25.0516L14.9903 25.0616ZM16.2463 14.98L15.1209 15.03L15.4022 13.7111L16.186 13.6711C16.2563 13.6711 16.3267 13.7011 16.3568 13.7311C16.387 13.751 16.4272 13.811 16.4372 13.8909L16.4774 14.7202C16.4774 14.8501 16.387 14.96 16.2563 14.97L16.2463 14.98ZM23.4107 11.0133C23.4107 11.0133 23.3102 11.1032 23.1997 11.1132L21.4814 11.1932C21.391 11.1932 21.3307 11.1532 21.2805 11.1232C21.18 10.8335 20.9589 10.6037 20.6776 10.5037C21.0092 10.3838 21.2604 10.1041 21.3207 9.74438C21.3508 9.73439 21.3709 9.7144 21.4111 9.7144L23.1294 9.63447C23.26 9.64446 23.4308 9.75437 23.4408 9.91424L23.481 10.8035C23.481 10.9134 23.4308 10.9833 23.4007 11.0133H23.4107Z" fill="currentcolor"/>
</symbol>
</svg>
