<svg xmlns='http://www.w3.org/2000/svg' viewBox='0 0 696 830' fill='none'><symbol id='TRAC_Outline'>
  <g fill="#FDBE00">
    <path d="M124.3 439.5c-.7 16.1.3 32.2 3 48l7 35c9 38 27 71 53 101 12 14 26 28 41 40 17 15 37 26 59 32l30 7c13 2.8 26.6 3.5 40 2l13-1 21-5c10-2 20-4 29-8 19-7 35-17 50-31l24-23a232.9 232.9 0 0 0 62-103c6.2-25.3 10.6-51 13-77 1-13 0-26-1-39l-2-25a395 395 0 0 0-17-84l-20-51c-5-13-11-25-18-36a566.8 566.8 0 0 0-33-44c-13-15-29-26-47-33l-25-8a229.8 229.8 0 0 0-70-9l-19 2c-18 3-36 8-53 14-20 8-38 20.7-52 37a498 498 0 0 0-48 77l-13 35c-14 32-22 66-24 101l-3 46m-6-21 3-47c3-29 11-57 22-84l12-33c13-24.6 28-48 45-70 14-17 32-30 51-41 12-6 24-10 36-14l22-7c9-2 18-2 28-2h19c12-1 23 0 33 3 15 5 29 9 43 16a172.9 172.9 0 0 1 62 46c9 12 18 23 26 36 7 10 13 21 18 33l19 50a501.9 501.9 0 0 1 12 203c-3 23-10 46-20 67-14 27-31 51-52 73l-19 18c-18 17-41 28-65 35l-27 5-24 4-21 1-35-5-25-5c-26-7-48-18-67-36a279.5 279.5 0 0 1-79-112c-5-13-8-27-10-40l-5-46c-2-15-2-29-2-48"/>
    <path d="M508.3 395.5h1l1-1-3-14-1-1-1 1c-5 9 0 12 3 15Zm-48-107h-1c-2 0-1 2-1 2l4 5 6 5c4 0 6 2 8 5 3 4 3 4 7 6 2 1 2-1 1-1l-6-14-2-2c-5-3-10-5-16-6m-56-65c3-2 5-5 6-8l-1-2-15-7c-3 2-5 5-4 9 1 3 3 6 6 8h8Zm-225 197c0 3 1 5 3 7 3 3 7 3 10 0l2-2v-8c1-4-2-7-6-7l-5 1c-3 1-4 3-4 6v3Zm299-56 2 11h1l5-8c2-3 3-6 1-9v-1c-1-4-1-7 1-9l2-3 4-7v-4l-1-1-3 3c-8 8-11 17-12 28m-243-76h-2l-1 1c-8 1-14 4-19 9l-3 3-4 10-1 3c1 1 2-1 3-1l5-3 5-4c2-3 5-6 9-7 2 0 3-1 4-3 2-2 3-5 6-6v-1l-2-1m-19 77c0-11-4-21-11-29l-5-4h-1v1c1 3 2 7 4 9l4 6c1 3 2 5 1 7l-1 2c-2 4-1 7 2 10l5 8h1l1-10m241-88c3 0 4-2 6-3v-3h-2c-5 3-10 3-15 0h-2c-3-2-6-2-10 0h-2c-3 2-7 2-10 0h-3c-6 3-11 8-14 14h1l1-1c5-3 11-5 17-3h1c4 1 7 1 9-2l2-2c2-1 5-2 8-1l3 1c5 2 9 1 10 0Zm-182 3 9 2 4 3h1v-1c-3-5-7-10-13-13h-4c-3 2-6 2-9 1l-3-2c-3-1-7-1-10 1l-3 1c-4 2-8 1-12 0l-3-2h-2l1 1c1 3 2 5 5 6 4 1 8 2 12 0l2-1c4-1 6 0 9 2l2 2 6 2 4-1 4-1m154 26v8l1 1v-2l2-8c2-3 4-6 8-7l2-1c3 0 4-2 5-5l2-5c0-2 2-3 4-3h2c3 0 6-2 9-4l2-3v-2l-2 1c-2 3-5 4-8 5-4 0-8 0-11-2-4-2-5-1-8 2s-4 6-6 10l-2 15Zm-163 2c0-6-1-11-3-17l-4-8c-4-5-5-6-11-3-4 2-8 1-13 0-2-1-4-2-5-5l-1-2h-1c-1 3 0 5 2 7 3 2 6 4 10 4s5 1 6 4l1 4c1 3 3 5 6 5l2 1c3 1 6 3 7 7l2 6 1 4 1-4v-3m50-108c-1-2-2-3-4-2l-19 8-7 5v2c2 3 6 5 10 6h9c4-2 7-4 9-7 2-2 3-8 2-12Zm163 123 6-1c4-2 4-5 1-7l-2-2c-9-5-19-7-29-4-6 1-11 3-15 7v1l10 2h7l3-1c4-2 7-1 10 1l3 2c2 2 4 2 6 2m-248-15c-9 0-17 2-23 7l-3 2v1c4 5 11 8 18 2l2-1c2-2 5-3 8-2l5 2h6l10-2v-1l-1-1c-7-5-14-7-23-7m223-37 7-2c2-1 2-1 1-2l-1-3c-1-3-4-4-7-5-14-6-29-6-44-1l-5 4h1c5-1 10 0 15 4l3 2c2 1 4 2 7 1l5-1h8l4 1 6 2m-191-17-8 1c-8 1-15 4-21 8l-2 2v2l9 4 9-2c4-2 8-2 12-1l2 1c3 1 7 0 10-2l1-1c5-4 10-5 16-4v-1l-6-3c-7-3-14-4-22-4m-69 176h-1l-4 1c-3 1-6 0-8-3h-1v2c0 13 0 25 2 38 2 17 6.3 33.4 13 49l1 1v-31l1-8-1-12c-2-7-2-14-2-22v-15m154 127h16l1-2 2-17c1-4 0-8-1-12v-17l1-22c0-2 0-2-2-2l-10-5-3-2c-3-3-4-3-8 0l-3 2c-3 3-6 4-10 5-2 0-2 0-2 2l2 20c0 7 1 13-1 20v11l1 17c0 1 0 2 2 2h15m-2 86 6-1 8-1c13-3 25-8 37-15l32-19c16-12 30-26 43-41l2-4v-1h-2l-22 2c-12 1-24 1-35-1h-24c-12 2-24 2-37 1h-12c-13 1-25 1-37-1l-14-1-16 2h-28l-21-1c-3-1-6-2-8 0s3 4 4 6l1 1a218 218 0 0 0 66 54 161.4 161.4 0 0 0 46 18l11 2m87-275c7 0 13 1 19 4 6 4 10 8 12 14l2 5c1 3 1 3 4 3h14l11 2c2 0 3 2 4 4v4l4 31c0 11 0 22-3 33v15l1 24c0 1 0 1 0 0l3-7c5-15 7-30 8-45v-55l-2-2-4-1c-5-3-7-8-5-14l4-6c2-2 2-3 1-6l-7-26-1-4h-2l-5 8c-2 2-2 4-1 7 2 5 1 10-2 13s-5 6-5 10c0 0-1 2-2 0-2-4-3-7-3-11-1-14 4-25 12-34l4-4-2-5-1-3h-2l-1 1c-4 3-11 4-17-1l-2-2-5-1-4 3h-8l-4-1c-3-2-6-2-9-1h-1l-2-1 1-1 2-2c8-7 17-10 27-10l9 1h1v-1c-2-2-3-3-6-3-4-1-6-3-8-6-1-3-3-6-7-7v-1l1-1c3-2 6-2 10-1l8 3h1v-1l-7-10v1c-4 4-8 7-14 6l-3 2-1 3-1 3c0 3-2 5-5 7h-2c-3 1-5 4-6 7l-3 8-1 3h-2l-2-5c-1-6 0-11 1-16l3-12v-1l-10-2c-3-1-6-1-10 1l-5 4-3 1h-1v-2c3-7 8-13 15-17l1-1v-1c-3-3-7-4-11-4l-6 2h-2l-1-1 1-1c3-4 7-6 11-8 14-5 28-5 42 0l2 1h1v-1l-2-2a175 175 0 0 0-25-28l-14-10c-2-1-2-1-3 1-2 4-4 6-8 8h-10c-7-3-9-9-6-15l3-4 2-1-1-2-2-1-37-13h-13l-22 9c1 3 2 6 1 9-1 4-2 8-5 11-4 5-9 7-14 5l-7-2-8-7-3-1-24 18c-8 8-15 16-21 25l-2 3c1 1 2 0 3-1l5-2a58 58 0 0 1 47 3l7 5v2h-1l-7-1c-5-1-8 0-12 3l1 1a29.9 29.9 0 0 1 15 19v1h-1l-5-4c-4-3-9-3-14-1l-8 1-1 2c3 5 4 10 4 16 1 4 1 9-1 14l-1 2h-1l-2-3-3-9c-1-3-2-5-5-6h-1c-4-1-7-4-8-9l-1-3c0-3-1-3-4-3l-4-1c-5-1-9-4-10-9l-1-1v1l-10 16v2h1l7-4c4-2 8-4 13-3l4 1 1 1-1 1c-3 1-5 4-7 7v1c-2 3-4 4-7 5h-2c-2 0-3 2-4 3v1h3a40 40 0 0 1 36 12v1h-2c-4-1-7-1-10 1l-3 1c-3 1-6 1-9-1l-4-2c-1-1-3 0-4 1l-3 2c-6 5-14 4-18-1l-2-1h-2l-3 8c-1 1 0 1 1 1l6 6c6 7 10 15 11 24 1 5 1 11-1 17l-2 3-1 1v-1c-1-4-3-7-6-10-3-4-4-8-2-12 2-3 1-6-1-9-3-3-6-7-7-11v-1l-1-1v1l-1 3-7 24c-2 9-5 18-6 28l-2 17c-1 2 0 2 1 1 4-2 9-3 13-1h2l1-7c0-4 2-5 5-6l9-1h12l5-1 2-4 1-2c2-7 7-12 14-15 6-3 12-5 18-4h5c1 0 3-1 3-3 1-2 0-3-1-5l-3-2c-3-1-2-2 0-4l3-1c5-2 10-2 15-1 3 1 6 0 8-2l3-2 8-5 3-1 4-2c3-3 4-8 1-12l-3-3v-2l1-1c7-2 12-6 17-11l5-6 7-5c6-3 11-3 16 0l8 5 5 6c4 5 10 9 16 11 3 1 2 2 1 4l-2 2-1 2c-2 4 0 8 3 10l5 3 9 5 3 3c2 1 4 2 7 1 5-1 10-1 15 1l5 2v3l-4 2c-2 1-2 3-2 5 1 2 2 3 4 3h5m14 189h28l4-2 11-19 1-4 1-9 4-39v-14l-2-10c-2-15-3-29-2-44v-14c0-1 0-2-2-2l-8 1-12-3c-3 0-5-2-7-5-4-7-10-12-18-14l-8-3-8-1c-4-1-7-3-8-7-2-3-1-6 1-9l1-1v-2h-8l-5 1c-2 0-5 0-7-2l-4-2c-2-2-4-4-7-4l-5-1c-4-2-7-4-9-8v-7l2-6-1-1h-1c-8-2-15-5-20-11l-5-5c-4-4-5-5-9-1l-7 7c-4 4-8 7-14 9l-6 1c-1 1 1 5 2 7v6l-2 3c-3 4-6 5-10 6-3 1-5 1-7 3l-3 3c-4 2-8 4-12 2h-11l-1 2 1 1c3 3 3 7 1 11l-6 4-5 2-8 1c-10 2-18 8-23 17l-4 4-14 2h-9l-1 2v15c0 17 0 34-4 52v16l3 28 2 25 3 8 4 8c1 2 3 4 5 3h41l28 1c12 2 24 1 36-1l2-2v-2l-1-25v-16l1-10 1-16c0-2 1-4 3-5l10-6c6-4 12-4 18 0l10 6c2 1 3 3 3 6 .4 12 1 24 2 36v33l1 1h4c10 2 20 2 30 2 13-2 27-2 40-2m-275-137c-.4-20.3 2.3-40.5 8-60a247 247 0 0 1 69-128c12-13.9 26.2-25.7 42-35 15-7 30-13 47-15 7-1 14-1 22 1 15 2 28 8 42 14l14 9c9.3 8 18.4 16.3 27 25l15 17c28 32.6 46.9 72 55 114a389 389 0 0 1 7 43v43c-3 26-8 51-19 75l-13 29-15 24a561.5 561.5 0 0 1-34 35c-16 11-33 21-51 28-11 5-22 7-34 9h-20c-18-4-34-10-50-18l-17-10a141.2 141.2 0 0 1-46-43c-6-8-12-17-16-26l-14-30a262.9 262.9 0 0 1-19-101"/>
    <path d="M359.3 420.5v-1c-3-7-3-14-3-21l-2-11c0-3-2-6-4-8-2-3-4-3-6 0l-4 8-1 6c-1 9 0 18-3 26-1 1 0 2 1 2l8 4h3l10-4 1-1m3-12v12c0 2 0 3-2 4l-7 5h-11l-6-3c-3-2-4-4-4-7l1-21c0-5 1-9 3-13 1-4 2-7 5-9 3-4 9-4 13 0l4 7c2 4 3 8 3 13l1 12m53-73-1-4c-1-5-6-6-9-3-2 2-3 5-2 8s4 5 7 6c2 0 4-1 4-4l1-3m-5-11c7 0 12 8 9 14-1 2-2 4-4 4h-6c-8-1-10-9-5-15 1-2 4-3 6-3m-102-37c-2 1-3 3-2 5l1 6c1 3 2 4 5 4 3-1 4-2 5-4 2-3 2-6 0-9-1-2-5-3-9-2Zm-5 7v-2c1-5 4-7 10-7 2 0 4 1 5 3l3 5c1 4 0 8-4 9l-8 1c-4-1-6-4-6-9m107 314c-9-2-17 0-24 3l-13 4a77.2 77.2 0 0 1-48 0l-30-11-1-1h1l3 1 22 6c9 2 19 1 28-2l14-4 18-5h20l7 3 4 4v2h-1m-14-24c-11 0-19-1-28-3l-13-2c-9-1-17 0-25 3l-14 5c-8 2-16 4-24 4-10-1-19-4-27-9l-4-4v-1l10 2c9 3 18 3 28 1l24-3c11-2 23-2 34 0 15.9 1.7 32 2.7 48 3l24-3h2l-1 1-2 1-21 4-11 1m62-57.8 2.8 2.8 2.8-2.8-2.8-2.8-2.8 2.8Zm-6-19c0 .3-.2 6.7-.1 13.2-6.8.5-5.7-13.3-5.3-15 .2-1.4-4.4 1.7-6.6 3.8.7 1.3 1.7 1 2.9.5-.5 6.2 3.9 11.8 9 11.7.2 6.4.9 12.5 2.7 13 .2.1.5-6.5.6-13.7 12.2-3.8 7.5-18.3 7.5-18.3-.2-.8-2 .3-6 4 1.6 1.6 2.4.6 3.6.2 1 2 1.4 10.5-5.1 13.1l.3-18c0-.2-.2-.3-.4-.3-1.8.2-5 3.4-7.5 6.1 1.4 2.2 3 .2 4.5-.4"/>
  </g>
</symbol></svg>
