<svg xmlns='http://www.w3.org/2000/svg' viewBox='0 0 30 30' fill='none'>
<symbol id='Trapeze'>
<path d="M26.0196 7.33431H25.6194V4.00798C25.6194 3.45359 25.1692 3 24.619 3C24.0688 3 23.6186 3.45359 23.6186 4.00798V7.33431H18.9266C18.7866 6.32633 18.0863 5.48971 17.1159 5.2478C16.3756 5.05628 15.6153 5.20748 15.015 5.65099C14.6048 5.34859 14.0946 5.16716 13.5344 5.16716C12.2839 5.16716 11.2534 6.11466 11.0934 7.33431H6.40142V4.00798C6.40142 3.45359 5.95123 3 5.401 3C4.85077 3 4.40058 3.45359 4.40058 4.00798V7.33431H4.00042C3.45019 7.33431 3 7.7879 3 8.34229C3 8.89668 3.45019 9.35027 4.00042 9.35027H11.0534V17.1218L8.43226 17.5351C7.20175 17.7266 6.17132 18.5229 5.66111 19.6619L4.62068 22.0105C4.2005 22.9479 4.59066 24.0567 5.49104 24.5305C5.78116 24.6816 6.09129 24.7522 6.39141 24.7522C7.0717 24.7522 7.72197 24.3893 8.08212 23.7442L8.83243 22.3734C9.0025 22.071 9.31263 21.8694 9.65277 21.8291L12.624 21.5468C12.0938 22.1315 11.7637 22.8975 11.7637 23.7442C11.7637 25.5384 13.2143 27 14.995 27C16.7757 27 18.2263 25.5384 18.2263 23.7442C18.2263 22.8975 17.8962 22.1214 17.366 21.5468L20.3372 21.8291C20.6874 21.8593 20.9875 22.0609 21.1576 22.3734L21.9179 23.7442C22.268 24.3893 22.9383 24.7522 23.6186 24.7522C23.9187 24.7522 24.2188 24.6816 24.509 24.5305C25.4093 24.0567 25.7995 22.9479 25.3793 22.0004L24.3389 19.6518C23.8287 18.5128 22.7983 17.7165 21.5677 17.5149L18.9466 17.1016V9.33011H25.9996C26.5498 9.33011 27 8.87652 27 8.32213C27 7.76774 26.5498 7.31415 25.9996 7.31415L26.0196 7.33431ZM15.015 24.9941C14.3347 24.9941 13.7845 24.4397 13.7845 23.7543C13.7845 23.0689 14.3347 22.5145 15.015 22.5145C15.6953 22.5145 16.2455 23.0689 16.2455 23.7543C16.2455 24.4397 15.6953 24.9941 15.015 24.9941ZM21.2776 19.5208C21.8278 19.6115 22.298 19.9643 22.5281 20.4885L22.9783 21.4964L22.9283 21.4158C22.4381 20.5288 21.5477 19.9441 20.5473 19.8433L17.346 19.5409C16.8058 19.4704 16.3055 19.8937 16.2555 20.4481C16.2455 20.559 16.2555 20.6699 16.2855 20.7707C15.8954 20.5993 15.4652 20.5086 15.015 20.5086C14.5648 20.5086 14.1346 20.5993 13.7445 20.7707C13.7645 20.6699 13.7845 20.559 13.7745 20.4481C13.7245 19.8937 13.2343 19.4704 12.684 19.5409L9.4827 19.8433C8.48229 19.9341 7.59191 20.5288 7.10171 21.4158L7.06169 21.4964L7.50188 20.4985C7.73197 19.9845 8.20217 19.6216 8.7524 19.5409L12.2138 18.9966C12.704 18.916 13.0642 18.5027 13.0642 17.9987V7.65687C13.0642 7.39479 13.2743 7.17304 13.5444 7.17304C13.8145 7.17304 14.0146 7.37463 14.0146 7.63671V12.475C14.0146 13.0294 14.4648 13.483 15.015 13.483C15.5652 13.483 16.0154 13.0294 16.0154 12.475V7.63671C16.0154 7.48551 16.0855 7.35447 16.2055 7.26376C16.2855 7.20328 16.4256 7.1428 16.6357 7.18312C16.8258 7.23352 16.9658 7.45527 16.9658 7.69719V17.9685C16.9658 18.1903 17.0459 18.3818 17.1659 18.5531C17.1859 18.5834 17.1959 18.6136 17.2259 18.6438C17.2759 18.6942 17.336 18.7346 17.396 18.785C17.436 18.8152 17.476 18.8454 17.5261 18.8757C17.5861 18.9059 17.6461 18.916 17.7061 18.9362C17.7461 18.9462 17.7862 18.9765 17.8262 18.9765L21.2876 19.5208H21.2776Z" fill="currentcolor"/>
</symbol>
</svg>
