<svg xmlns='http://www.w3.org/2000/svg' viewBox='0 0 30 30' fill='none'>
<symbol id='TreeClimbing'>
<path d="M26.0029 3.00999C25.4526 3.00999 25.0023 3.45962 25.0023 4.00916V6.87677L21.6004 6.24729C21.8105 6.1174 21.9606 5.91757 22.0307 5.67777C22.1007 5.41798 22.0607 5.13822 21.9206 4.90841C21.7605 4.63863 21.6705 4.3189 21.6705 3.99917C21.6705 3.44963 21.2202 3 20.6699 3C20.1196 3 19.6693 3.44963 19.6693 3.99917C19.6693 4.36886 19.7194 4.72856 19.8294 5.07827C19.5993 5.29808 19.4092 5.53788 19.2391 5.80766L4.19076 3.01998C3.65046 2.92007 3.12017 3.27977 3.02011 3.81932C2.92005 4.35887 3.28025 4.87843 3.82055 4.98834L15.0768 7.0766V10.234L13.0857 12.2823C12.9856 12.3822 12.8556 12.4621 12.7155 12.5021L10.104 13.2614C9.98397 13.3014 9.87391 13.3614 9.78386 13.4313C9.87391 12.642 9.6638 11.8226 9.1335 11.1632C8.62322 10.5237 7.89281 10.1241 7.07236 10.0341C6.26191 9.94421 5.46147 10.184 4.82111 10.6936C4.18075 11.2032 3.78053 11.9326 3.69048 12.7519C3.60043 13.5612 3.84057 14.3605 4.35085 15C4.96119 15.7494 5.84168 16.139 6.74218 16.139C6.93228 16.139 7.12239 16.1191 7.31249 16.0791C7.26246 16.169 7.20243 16.249 7.18242 16.3489C6.9723 17.1782 7.18242 18.0475 7.74273 18.6869L11.5949 23.0433C11.9951 23.5029 12.5054 23.8326 13.0557 24.0525C13.0557 24.0525 13.0657 24.0525 13.0757 24.0624L19.8494 26.9101C19.9795 26.96 20.1096 26.99 20.2397 26.99C20.6299 26.99 21.0001 26.7602 21.1602 26.3805C21.3703 25.8709 21.1302 25.2814 20.6299 25.0716L17.0779 23.5828L18.6088 23.0133L21.2602 24.7619C21.5904 24.9817 21.9506 25.0816 22.3108 25.0816C22.8711 25.0816 23.4214 24.8318 23.7916 24.3622C24.412 23.5828 24.3219 22.4438 23.5815 21.7744L20.2597 18.7669C19.6393 18.2073 18.7789 17.9775 17.9584 18.1574L17.0679 18.3572V14.2906C17.0679 14.2906 17.0579 14.2406 17.0579 14.2206L18.1785 12.6819C18.7688 11.8626 18.6488 10.7435 17.9084 10.0641C17.6582 9.8443 17.3781 9.70441 17.0779 9.62448V7.46628L18.6288 7.75604C18.6288 7.75604 18.6188 7.83597 18.6188 7.88593C18.6188 9.9542 20.2897 11.6428 22.3508 11.6628C22.8811 12.6919 23.8617 13.4113 25.0023 13.6311V26.0008C25.0023 26.5504 25.4526 27 26.0029 27C26.5532 27 27.0034 26.5504 27.0034 26.0008V4.00916C27.0034 3.45962 26.5532 3.00999 26.0029 3.00999ZM5.92172 13.741C5.74162 13.5212 5.66158 13.2415 5.69159 12.9617C5.72161 12.6819 5.86169 12.4221 6.08181 12.2523C6.27191 12.1024 6.50204 12.0225 6.74218 12.0225C6.7822 12.0225 6.82222 12.0225 6.86224 12.0225C7.1424 12.0525 7.40254 12.1923 7.57264 12.4122C7.94284 12.8718 7.8628 13.5412 7.41255 13.9109C6.95229 14.2806 6.28192 14.2007 5.91171 13.751L5.92172 13.741ZM18.4187 20.0958C18.5988 20.0558 18.7889 20.0958 18.9289 20.2256L21.3003 22.3739L19.7194 21.3247C19.1791 20.965 18.4987 20.8951 17.8984 21.1249L15.0568 22.204C14.3764 22.4638 13.596 22.2639 13.1157 21.7244L9.26357 17.368C9.14351 17.2281 9.09348 17.0383 9.14351 16.8585C9.28359 16.3289 8.96341 15.7893 8.43311 15.6495C8.52316 15.5895 8.61321 15.5395 8.69326 15.4796C9.02344 15.2198 9.28359 14.9001 9.47369 14.5504C9.64379 15.0599 10.1741 15.3497 10.6944 15.1998L13.3058 14.4405C13.7761 14.3006 14.2063 14.0408 14.5565 13.6911L15.477 12.7019C15.5271 12.7419 15.5871 12.7818 15.6471 12.8118L14.6165 14.2306C14.2864 14.5803 13.8961 14.8601 13.4659 15.0599L12.3853 15.5695C11.9951 15.7594 11.7149 16.0991 11.6249 16.5287C11.5348 16.9484 11.6449 17.378 11.9251 17.7077L13.7261 19.796C14.3364 20.4954 15.2669 20.8152 16.1774 20.6053L18.4387 20.0958H18.4187ZM15.0868 18.3372L13.9562 17.0183L14.2964 16.8585C14.5765 16.7286 14.8367 16.5587 15.0868 16.3888V18.3372ZM23.9917 10.3339C23.8617 9.80433 23.3414 9.4846 22.8011 9.5945C21.7805 9.82431 20.8 9.09492 20.6499 8.10574L25.0023 8.91507V11.5229C24.512 11.3031 24.1218 10.8834 23.9817 10.3339H23.9917Z" fill="currentcolor"/>
</symbol>
</svg>
