<svg viewBox="0 0 16 16" version="1.1" xmlns="http://www.w3.org/2000/svg" xmlns:xlink="http://www.w3.org/1999/xlink">
    <symbol id="TripAdvisorMonogram">
        <path d="M14.6923,5.91255 L16,4.52759 L13.1,4.52759 C11.6483,3.56223 9.895,3 7.99878,3 C6.10501,3 4.3566,3.56344 2.90721,4.52759 L0,4.52759 L1.30771,5.91255 C0.50614,6.62447 0.003645,7.64994 0.003645,8.78856 C0.003645,10.9373 1.79328,12.6794 4.00064,12.6794 C5.04923,12.6794 6.00456,12.28572 6.71775,11.64215 L7.99882,13 L9.27988,11.64333 C9.9931,12.28691 10.9472,12.6794 11.9958,12.6794 C14.2031,12.6794 15.9952,10.9373 15.9952,8.78856 C15.9964,7.64876 15.4939,6.62331 14.6923,5.91255 Z M4.00182,11.42173 C2.50763,11.42173 1.29683,10.24308 1.29683,8.78856 C1.29683,7.33404 2.50766,6.15536 4.00182,6.15536 C5.49598,6.15536 6.70682,7.33404 6.70682,8.78856 C6.70682,10.24308 5.49598,11.42173 4.00182,11.42173 Z M8,8.71194 C8,6.97925 6.70563,5.49176 4.99713,4.85644 C5.92099,4.48042 6.93446,4.2718 7.99878,4.2718 C9.06311,4.2718 10.0778,4.48042 11.0017,4.85644 C9.2944,5.49295 8,6.97928 8,8.71194 Z M11.997,11.42173 C10.5028,11.42173 9.29197,10.24308 9.29197,8.78856 C9.29197,7.33404 10.5028,6.15536 11.997,6.15536 C13.4912,6.15536 14.702,7.33404 14.702,8.78856 C14.702,10.24308 13.4912,11.42173 11.997,11.42173 Z M11.997,7.40711 C11.2136,7.40711 10.5791,8.02475 10.5791,8.78738 C10.5791,9.54997 11.2136,10.16761 11.997,10.16761 C12.7804,10.16761 13.4149,9.54997 13.4149,8.78738 C13.4148,8.02593 12.7804,7.40711 11.997,7.40711 Z M5.41971,8.78856 C5.41971,9.55115 4.78522,10.1688 4.00182,10.1688 C3.21843,10.1688 2.58394,9.55115 2.58394,8.78856 C2.58394,8.02593 3.21843,7.40828832 4.00182,7.40828832 C4.78522,7.40711 5.41971,8.02593 5.41971,8.78856 Z" id="Vector" fill="#000000" fill-rule="nonzero"></path>
    </symbol>
</svg>