<svg xmlns='http://www.w3.org/2000/svg' viewBox='0 0 696 830' fill='none'><symbol id='Utah_EC_Outline'>
  <g fill="#1E2346">
    <path d="M454.6 141.4v-1l-3-3L398.3 81 350 31.8l-2-2h-2l-2 1L303.7 72l-60.3 64.3-9 10v1-1l2-1c9-6 18-10 27-14l42.3-15c7-2 14.1-3 22.2-3H366c11-1 20.1 1 30.2 4l15 5a218.7 218.7 0 0 1 42.3 19h1m0 537.8-1-1-3 2a156.6 156.6 0 0 1-62.4 19.1l-35.2 5-19-1-40.3-6a156 156 0 0 1-55.4-22.1l-4-2 2 4 29.2 30.1 52.3 58.3 21.1 24.2 6 6h3.1l1-1 22.1-24.1 28.2-31.2a1310 1310 0 0 1 55.3-60.3M530 223.8v1l1 2 10 22.1 14.2 36.2c15.4 38 22.9 78.7 22 119.6 1 22.8 0 45.7-3 68.3l-4 33.2c-2 16.1-6 32.2-13 48.3l-10 21-1.1 3 3-2 30.2-40.1 40.2-53.3a1166 1166 0 0 1 51.4-66.3l-1-1-14.1-16.1c-27.6-34.7-53-71-76.5-108.6l-17-27.1-29.2-36.2-3-3v-1m-353.1-14h-1l-1 1-31.2 37.1c-9 11-17.1 23.1-24.2 35.2a979.4 979.4 0 0 1-60.3 88.4C48.2 386.6 37 402.7 23 416.8v3l6 6L52.3 455c19.1 23 36.2 47.2 53.3 71.3l51.3 64.3 3 3-2-4-17-32.1a202.1 202.1 0 0 1-15.1-55.3l-3-30.2-3-26a416 416 0 0 1 18-148.8l20.2-53.3c4-10 9-19.1 15-29.2l4-4v-1m-52.2 222.1c-1 17.1 0 33.2 3 49.3l7 30.1c9.6 41.9 30 80.3 59.4 111.6 13.6 14.2 27.7 28 42.2 41.2 16.1 11 33.2 20.1 52.3 25.1l29.2 7c8 2 17.1 3.1 26.2 3.1 9 0 19 0 28.1-2l29.2-6a163.6 163.6 0 0 0 74.5-40.2l23.1-23.2a241.5 241.5 0 0 0 66.4-130.6c5-20.1 8-41.2 7-62.3-.8-21.9-2.6-43.7-5-65.4-2-24.1-8-47.2-16-70.3L532 250.9c-4-12-10-24.1-17-34.2a574.2 574.2 0 0 0-46.4-58.3c-9-9-19-15-31.2-20-23.1-9.6-47.5-16-72.4-19.2l-14-1-13.2 1a371 371 0 0 0-71.4 16.1 112 112 0 0 0-54.3 39.2L187 208.7c-10 14-18 29.2-24.1 45.2l-13.1 34.2a368 368 0 0 0-22.1 98.5l-3 45.2m553.3-12-2 4c-7 13-15.1 27.1-24.2 40.2l-30.1 40.2a864.3 864.3 0 0 1-72.5 84.4L504 637l-35.3 42c-15 18-30.1 37.2-46.2 54.3-18 20.5-36.9 40.2-56.4 59.3l-14 13c-4.1 3-6.1 3-10.1 0l-17.1-15A1181.6 1181.6 0 0 1 226.3 680c-19.1-24.1-40.3-46.2-60.4-69.4a4050.7 4050.7 0 0 1-78.5-87.4L49.2 474c-11-15-20.2-30.1-29.2-45.2l-3-6v-6l8-14.1 40.3-64.3c13-20.1 28.2-39.2 44.3-57.3a468.9 468.9 0 0 0 49.3-63.4 960.4 960.4 0 0 1 183-193c5.1-5 5.1-5 10.1 0L390.3 59a782 782 0 0 1 97.5 98.5l53.4 68.4 25.1 35.2 17.1 19a639 639 0 0 1 50.3 66.4c14.8 23.2 29.3 46.6 43.3 70.4l1 3"/>
    <path d="M353 364.5v-4l-1-2-1 1a94 94 0 0 0-12 22c-1 4.1-2 7.1 0 11.1l2 9c5 17.2 16 29.2 33.2 34.3l17 4 27.2 2h3l-1-1-3-3-7-5-7-5c-4-4.1-8.1-9.1-9.1-15.2l-1-4-2-2-6-1c-5.1 0-9.1-2-14.2-5a43 43 0 0 1-18-36.2m161 59.3v-15c0-13.1-1.1-26.2-5.1-38.3l-6-24.1a243 243 0 0 0-23.2-58.3L459.7 253c-2-5-6-9-9-13l-8.1-10-15.1-13.2-12-8c-9.1-7-19.2-12-30.3-16l-28.1-10.1c-7-3-13.1-3-19.2 0l-16 5a183.7 183.7 0 0 0-62.4 35.2c-9 9-17.1 18-24.2 29.1l-20.1 35.2c-9 17-16.1 33.2-21.1 51.3l-8 31.1A323.4 323.4 0 0 0 182 456l1 10h1v-6c1-13 3-27.2 6-40.2 6-31.2 18.2-60.3 36.3-86.5a148 148 0 0 1 47.3-46.2c11-7 22-12 34.2-15 16.7-4.6 34-7 51.3-7.1 8 0 15-1 21.1-5l4-3c5-3 11-5 17.1-6 10-2 19.1 1 29.2 4l1 1-1 1c-4 2-6 5-9 8l-6 5-7.1 5h-6l-1-1 1-1c4-1 7-3 10-6l13-10h1l-1-1c-14-3-28.1 0-40.2 7-9 6-18 8-28.1 8-14.1 1-28.2 2-42.3 5-22.1 5-40.2 15.1-55.3 32.2a201 201 0 0 0-49.3 84.4 328.1 328.1 0 0 0-16.1 93.5c-1 13 2 26.1 8 38.2l7 16c4 9.1 9.1 16.2 15.2 24.2 30.4 35 70.8 60.2 115.7 72.4h14a172 172 0 0 0 54.4-22.1c20-12 38.2-25.2 54.3-42.2 8-9 15-18.1 21.1-28.2l16.1-34.2 6-18v-4c-9-9.1-18-16.2-29.1-22.2l-1-1-3 1-1 2-9.1 7c-9 4-18.1 3-25.2-5-3-3-5-6-6-10l-4-8-2-2h-8l-26.2-3a88 88 0 0 1-23.2-5.1 50 50 0 0 1-29.2-26.1l-3-8-1-3.1v-1l-1 1v29.1l-1 6c-2-1-2-4-2-6l-1-3-2-14c-1-9 0-18.1 1-27.2 3-12 8-23 16-32.1l7.1-6c1-2 3-2 5-3l2 2v5l1 13c3 14 14.2 31.2 33.3 34.2 2 0 3 1 3 3l1 1c3 7 8 13 14 17.1l7.1 4c8 5 14.1 12 18.1 21.1l1 5 3 6 5 6.1c4.1 3 8.1 4 13.2 1l4-3 7-9c4-8 6-15.1 7-23.2 0-3-1-4-3-5-5-3-8-7-11-11a83.2 83.2 0 0 1-14-39.2l-2.1-20.1c-1-9-4-19.1-10-27.2l-1-2v-1l3 2 5 6c7 8 10 17.1 12 27.2l3 20c3 14.2 8.1 26.2 17.2 37.3l4 6c2 2 3 4 3 7 0 7-1 14.1-3 20.1v2c-1 1 0 2 1 3h1a80 80 0 0 1 25.2 19.2v1l2 1 1-2 1-7c3-15.1 4-29.2 3-45.3m8-9c-.1 33.6-6.3 66.9-18 98.5l-15.1 32.1c-4 9-9.1 17.1-15.1 24.1l-16.1 19.1c-7 8-15.1 15.1-23.2 20.1-13 9-27.1 17.1-41.2 23.2-12.1 5-25.2 8-38.3 10h-20c-19.2-4-37.3-11-54.4-20.1l-23.1-15a188.7 188.7 0 0 1-29.2-27.2l-6-8c-7.1-8-12.1-17.1-17.2-26.2l-15-34.2A310.5 310.5 0 0 1 176 373.5a601.9 601.9 0 0 1 21-72.3 235.4 235.4 0 0 1 41.3-62.3l9-11.1c8.1-10 18.2-19.1 28.3-27.1 8-6 17-11 26.1-15.1l23.2-8c6-2 13-3 19-3 5.1-1 10.1 0 15.2 1 11 1 21.1 5 31.2 9a136.6 136.6 0 0 1 57.3 44.2l14 17a241.4 241.4 0 0 1 51.4 99.6l6 28.1c3 14.1 3 27.2 3 41.3"/>
    <path d="M392.3 582.6c0 1-1 14-4 21.1l-2 4-2-1v-3c-1-12-2-24.1-5.1-36.2-3-17-10-33.1-20.1-48.2-7-11.8-13.3-23.8-19.1-36.2l-1-4h1l17 27.1 17.2 19.1a101 101 0 0 1 18 57.3m-119.7-3-6-2c-12-6-23.1-13-32.2-23.1-5-5-9-10-12-16.1-2-5-4-10-3-15.1v-3c0-1 0-3 2-3s1 2 1 3c5 11 12 21 20 30.1 7.1 8 15.2 14.1 23.2 21.1l7 6 1 1c2 2 0 1-1 1m135.9-292.4h2l1 2-4 3-6 3-14.2 1-18 1-9.1 1c-7 1-13.1 4-18.1 7l-5 3.1c-2 1-1 0-1-1 5-6 12-11 20-14 5-2 10.1-4 16.1-4l12.1-1 24.2-1.1m16 7c0 1-1 5-3 6a49.9 49.9 0 0 1-14 13.1l-9 4c-7.8 3.8-15.3 8.1-22.2 13.1-1 1 0 0 0 0l2-3 16-13 25.2-19.2 2-2h2l1 1m34.3-29.1-1 7c-3 7-7 12-13.1 16.1h-1c-2 2-1 0-1-1l2-4 6-12v-2l-1-1c-3 3-9 5-11 6-2 0-1-1-1-1l2-1c5-2 9-5.1 14-9.1v-1l3-1c3 1 2 4 2 4m1 66.3v1h-1l-1-2c-1-6-4-11-8-15l-7-5-6-7.1c-2-2-3-4-2-7v-1h2c6 5 13 11 18 19 3 5 4 11.1 5 17.1m-177-105.5 6 7-6 7-7-7 7-7m198.2 162.8-5-6 5-6 6 6-6 6M363.1 219.8l-6 6-5-6 6-6 5 6M240.4 296l-4 6-6.1-5 5-6 5 5M491 349.4l4 6-4 5-5-5 5-6M324 236.8l-5 5-4.1-5 4-5 5 5m-.1 331.2c0 .4-.3 6.9-.2 13.4-6.9.5-5.8-13.4-5.4-15 .2-1.5-4.4 1.6-6.6 3.7.7 1.3 1.7 1 2.9.5-.5 6.3 4 11.9 9 11.8.3 6.4 1 12.6 2.8 13 .2.2.5-6.5.6-13.7 12.2-3.8 7.5-18.4 7.5-18.4-.2-.8-2 .3-6 4 1.6 1.6 2.4.6 3.6.2 1 2 1.4 10.6-5.1 13.2l.3-18.1c0-.2-.2-.3-.4-.3-1.8.2-5 3.4-7.6 6.1 1.4 2.2 3.2.2 4.6-.4m5.9 19.2 2.8 2.8 2.8-2.8-2.8-2.8-2.8 2.8Z"/>
  </g>
</symbol></svg>
