<svg xmlns='http://www.w3.org/2000/svg' viewBox='0 0 696 830' fill='none'><symbol id='Utah_EC_Fill'>
  <g fill="none" transform="translate(.7 .3)">
    <ellipse cx="348.5" cy="406.1" fill="#FFF" rx="233.2" ry="317.6"/>
    <path fill="#1E2346" d="m677 416.3-2-2-4-8c-12-21.1-25-42.2-39-62.3a532.4 532.4 0 0 0-67.2-86.2l-25-34.1c-31.6-43.2-66-84-103.2-122.4l-46-44.1-39-35.1c-5.1-4-4.1-4-9.1 0l-33 30a909.9 909.9 0 0 0-163.3 182.6c-10 15-23 30.1-35 44.1C95.2 297 80.2 316 67 336l-40 63.2-8 15c-2 2-2 3-1 5 10 17.5 20.6 34.6 32 51.2 21.2 27.8 43 55.2 65 82.3l51.1 55.1c36.4 37.7 70.5 77.7 102.2 119.4l57 60.2 16 15c5.1 3 6.1 3 10.1 0l15-13c19-19.4 37.8-39.1 56.1-59.2l45-54.2 36.1-42 45-48.2c24.3-27.6 48-55.7 71.2-84.3l31-41.1c9-12 16-26 24-39.1l2-4m18.1 2-2 5-8 14a443 443 0 0 1-39 57.2l-39.1 50.1a1392 1392 0 0 1-80.1 88.3c-19 20-37.1 41.1-54.1 62.2-26 30.6-52.8 60.7-80.1 90.3l-26 27-15 13v1.1c-4.1 2-5.1 2-9.1 0l-8-7-26-26.1-47.1-50.2-37-45-38.1-45.2-35-37.1L95 554.7A970.5 970.5 0 0 1 1 424.3l-1-2v-6l10-17.1L47 340c15-24 32.1-46.1 51.1-67.2 11-13 23-26 33-40.1l17.1-25A1037 1037 0 0 1 298.4 42l24-21 19-18 4.1-3.1h3l4 3 15 15 28 24.1c28 23.6 54 49 78.2 76.3a898.1 898.1 0 0 1 85.1 109.3c10 14 21 27 33 40.1 20 23 39.1 48.2 56.1 74.2 15.9 24.5 31.2 49.3 46.1 74.3l1 3"/>
    <path fill="#FFF" d="M453.7 139.4v-1l-2-3-54.1-57.2-48.1-49.1-2-2h-1l-2 2-40 41.1-60.1 64.2-10 9v1h1l2-1c8-6 17-10 27-15 13-6 28-10 42-14 7-3 14-4 21-4l19.1 1h4l16-1c10 0 20 2 29 5l16 5a217.4 217.4 0 0 1 42.2 19m1 535.6h-1l-3 2a155.6 155.6 0 0 1-62.1 19.1c-12 2-23 4-35 4h-20.1l-39-7c-20.1-3-39.1-11-56.2-21l-3-2c0 2 1 2 2 3l29 31 52.2 58.2 21 24 6 6h3l1-1 22-24 27-31a1306 1306 0 0 1 55.2-60.3l1-1m74-453.3v1l1 2c4 7 8 14 10 22l14.1 36.2a301.3 301.3 0 0 1 23 119.3c1 22.8 0 45.7-3 68.2l-4 33.1c-2 16-7 32.1-13 47.2l-10 22-2 2v1h1l2-2 31-40 40-54.3c16.3-22.3 33.3-44 51.2-65.2l-1-1-15-17a1166.6 1166.6 0 0 1-76.2-107.3l-17-27.1-28-36.1-3-4h-1m-350.5-14-1-1-2 2-30 37-25.1 35.1A987.5 987.5 0 0 1 61 368.1c-12 16-23 32.1-37 46.1v3l6 6 24 29.2 53 71.2c16 22 33.1 43.1 51.1 64.2l2 3c1-2-1-3-1-4l-17-32.1c-8-17-13-36.1-15-55.2l-4-30-2-27.2a417.3 417.3 0 0 1 17-147.4l21-53.2c4-10 9-20 15-29l3-5h1m-53 221.6c0 16 1 33 4 49.1l6 30.1a242 242 0 0 0 59 111.4 906 906 0 0 0 43.1 40c15 12.1 32 21.2 51.1 26.2l29 6 26 4c10.1 0 20.1 0 29.1-2l28-6a162.7 162.7 0 0 0 74.2-40.1l24-23.1a241 241 0 0 0 66.1-130.4c5-21 7-41.1 7-62.2a947 947 0 0 0-5-65.2c-3-24-8-47.1-17-70.2l-18-49.2c-5-11-10-23-17-34a572.7 572.7 0 0 0-46.1-58.2c-9-8-20-15-31-19a278 278 0 0 0-72.2-19.1l-15-1-13 1c-24.1 3-48 8.3-71.1 16a112 112 0 0 0-54 39.1l-25.1 34.1c-9 14-17 29.1-23 44.2l-13 35a368.8 368.8 0 0 0-23.1 98.4l-3 45m551.8-13-2 4c-8 14.1-15 27.1-24 40.2l-31.1 41.1a878 878 0 0 1-71.1 84.3l-45 48.1-36.1 42.1-45 54.2a1078 1078 0 0 1-56.2 59.2l-15 13c-4 3-5 3-10 0l-16-15A1188.9 1188.9 0 0 1 226.3 677c-19-24-39-46.1-60-69.2A3746.2 3746.2 0 0 1 89 520.6l-39-50.2c-10-14-19-29-28-45.1l-4-6c-1-2-1-3 1-6l8-14.1L67 336c13-20 28-39.1 44-57.2a467.7 467.7 0 0 0 49.1-63.1A954.3 954.3 0 0 1 342.5 22c5-4 4-4 9 0l39 35a781.4 781.4 0 0 1 96.2 98.4c19 22 36 45.1 53 68.2l25.1 34 17 20.1c19 21.1 35 43.2 50.1 66.2 14.7 23.2 29.2 46.6 43 70.2l2 2"/>
    <path fill="#1E2346" d="M521.8 412.2a198 198 0 0 0-10-69.2c-2-7-3-14-6-20-9-30.1-24.1-56.2-44.1-80.3l-14-17c-7-8-14-15-22-21a108.6 108.6 0 0 0-35.1-22.1c-10-4-21-8-31-10l-15.1-1-20 4-22 8c-10 4-18 8-26.1 15-11 8-21 17-29 27l-9 11.1a244.6 244.6 0 0 0-52.1 93.3c-5.1 20.9-9.1 42-12 63.2-2 23-1 46.1 3 69.2 3 16 7 31 14 46.1l15 34.1c6 12.5 13.6 24 23 34.1 14 17.9 31.8 32.2 52.1 42.2 17 9 34 16 53 19 7 2 14.1 2 21.1 1 13-2 25-5 37-10 15-7 28.1-14 41.1-23 9-6 17-12.1 24-20.1l16-19 15.1-24.2a1568 1568 0 0 0 24-60.1c6-23.1 9-47.2 9-70.3m-396.5 17 3-45a338.9 338.9 0 0 1 23-98.3l13-35.1c6-15 14-30.1 23-44.2l25.1-34a112 112 0 0 1 54-39.2c23.2-7.7 47-13 71.2-16l13-1 15 1c14 1 28 5 41 8 11.1 3 21.1 6 31.1 11 11 4 22 11 31 19l19.1 21.1 27 37.1c7 11 12 23.1 17 34.1l18 49.2c13.1 33.6 20 69.3 20.1 105.3l2 30.1c0 21-2 41.1-7 62.2l-7 30a240.2 240.2 0 0 1-59 100.4l-24.1 23a162.7 162.7 0 0 1-74.1 40.2l-28 6a132.9 132.9 0 0 1-55.1-2l-29-6a150.2 150.2 0 0 1-65.2-37.1l-29-29.1a242 242 0 0 1-59.1-111.4l-6-30a273 273 0 0 1-4-49.2"/>
    <path fill="#1E2346" d="M178.3 207.6h-1l-3 5c-6 9-11 19.1-15 29.1L139.1 295c-7 19-12 38.1-15 58.2a553.7 553.7 0 0 0-3 89.2l2 27.1 4 30.1c2 19 7 38.1 15 55.2l17 32c0 1 2 2 1 4l-2-3c-18-21-35-42-51-64.1L54 452.4l-24-29.1-6-6v-3c14-14 25-30.1 37-46.2 20.8-28.3 40.5-57.4 59-87.3l25.1-35 30-37.2 2-2 1 1m350.6 14h1l3 4 28 36.2 17 27A1037 1037 0 0 0 669 416.4l-50.1 63.1-40 54.2-31.1 40.1-2 2h-1v-1l2-3 10-21c6-15 11-31.1 13-47.2l4-33c2-22.7 3-45.5 3-68.3-1-22-3-44.1-7-65.2-3-19-9-37.1-16-54.1l-14-36.2c-3.1-8.2-6.8-16.3-11-24v-1M454.7 675l-1 1-2 2-53.1 58.2-27 31.1-22.1 24-1 1h-3l-6-6-21-24-52.1-58.2-29-31c-1-1-2-1-2-3l3 2c17 10 36 18 56 21a1081 1081 0 0 0 59.1 7c12 0 23-2 35-4l20-4c16-3.3 31.1-9.1 45.2-17h1m-1-535.7-2-1c-13-8-26-13-40.1-18l-15-5c-10-3-20-5-30-5l-16.1 1h-4l-19-1a339.8 339.8 0 0 0-92.2 34h-1v-1l10-10 60.1-63.2 40.1-41.1 2-2h1l2 2 48 49.1 54.1 57.2 2 3v1"/>
    <path fill="#FFF" d="M352.5 362v-6l-1 1c-4.9 6.9-9 14.3-12 22.1-1 3-2 7-1 11l3 9.1c5 17 15 29 32 34.1l17 3 27.1 3h3v-1l-3-3-7-5-7-5c-5-4-8-9-10-15l-1-5-1-1-6-1c-5-1-10-2-14-5.1-13-9-19-22-19-36.1m161.1 59.2v-15c0-13.1-2-26.2-5-38.2l-6-24c-6-20.1-13-40.2-23-58.2l-20-35.1-10-14-8-9.1-14-13-13.1-9c-9-6.1-19-11.1-29-15.1l-29-11a28 28 0 0 0-18.1 0l-16 6a184.3 184.3 0 0 0-62.1 35c-9 8-18 18.1-24 29.2l-20 35a189 189 0 0 0-21.1 51.2l-9 31.1-5 31.1c-1 18-1 36.1 1 55.2l1 9 1 1v-1l1-5c1-14 3-27.1 6-41.1 6-31.1 17-59.2 35-85.3 13-19 29-35.1 48-47.1 11.1-6 22.1-11 34.1-15 16.8-4.2 33.9-6.2 51.1-6.1 7 0 14-1 21-6l4-2c5-3 11-5 16-6 10-2 20.1 1 29.1 4l1 1-1 1-9 7-5 6-8 4-5 1-1-1 1-1 9-6c5-4 9-8 14-10v-1h-1c-14-3-27 0-39 7-9 6-18 8-28 8-14.1 0-28.1 2-42.1 5-22 5-41.1 15-56.1 32.1a219 219 0 0 0-49.1 84.3c-9 30-15 61.2-16 92.3 0 14 3 27 8 39l8 16.1c4 8 9 16 15 23a232.8 232.8 0 0 0 115.2 72.3h14c18.7-4 36.7-11.1 53-21 20.1-12 39.1-26.1 55.2-43.2 8-8 15-17 20-28l17-34.2 6-17-1-4c-8-9-17-17-28-22.1l-1-1c-2-1-2 0-3 1l-2 2-8 6c-9 5-19 3-25-4l-7-10-3-8c-1-1-1-2-3-2l-7.1-1-26-2c-8-1-16-2-24-5a51 51 0 0 1-28.1-26.2l-3-8-1-3v-1l-1 1v1l-1 22v12.1l-3-6v-3l-2-15c-1-9-1-18.1 1-27.1 3-11 8-22.1 16-31.1l7-7 4-2c2 0 2 1 2 2l1 5 1 12c2 15 14 32.1 33 35.1 2 0 2 1 3 2l1 2c2 7 7 13 14 16l6.1 5c9 5.1 15 12.1 18 21.1l2 5 3 6 4 5c4 4.1 9 4.1 14 2.1l3-3 7-10c4-7 7-14 7-23.1 0-2 0-3-2-5-5-2-8-6-11-10a84.7 84.7 0 0 1-14-39.2l-2-20c-2-10-5-19-10-27.1l-2-3h1l3 2 5 5c6 8 10 18 12 28l3 20.1c2 14 7 26.1 16 37.2l5 5c2 3 3 5 3 8 0 7-1 14-3 20l-1 2 1 2 2 1a87 87 0 0 1 24.1 19.1l1 1 2 1 1-2 1-7c3-15 3-30 3-45.1m8-9c-.5 33.5-6.9 66.8-19 98.2l-14 32.1-15 24.1-16 19a261.6 261.6 0 0 1-65.1 43.2c-12 5-24 8-37 10-7.1 1-14.1 1-21.1-1-19-3-36-10-53.1-19l-24-15c-11-8.1-20-17.1-28-27.2l-7-9c-6-8-12.1-16-16.1-25l-15-34.2c-7-15-11-30-14-46.1-4.9-30.2-5.3-61-1-91.3a606.4 606.4 0 0 1 22-72.2c10-23 24-43.1 40-62.2l9-11c9-10 18-19 29.1-27.1 8-6 16-11 26-15l22-8 20.1-4 15 2c11 1 21 5 31 9a165 165 0 0 1 57.1 44l14 16.1c24.4 29 41.5 63.4 50.1 100.3l7 28.1c2 13 3 27.1 3 41.1"/>
    <path fill="#1E2346" d="m323.5 234.7-4-4c0-1 0 0 0 0l-1 1-3 4 3 3h2l3-3v-1M489.7 347v1l-4 4v1l4 4h1l4-4-4-5v-1h-1m-248.4-53h-1l-2-3-2-2-2 2-2 3v2l4 4 4-5h1v-1m121.2-76.2v-1l-2-1-3-4-2 4-2 1-1 1 5 6 5-5v-1m118.2 168.5 1-1 4-5v-1l-3-2-2-3-2 3c-2 2-1 4 0 7l1 1 1 1M282.4 224.7c-1 3-3 4-6 5v1c3 1 4 3 6 5l1 1c1-2 2-4 5-6l-1-1-4-5h-1M458.7 329c0-6-1-12-5-17a55 55 0 0 0-18-19.1l-1-1-1 2c0 2 1 5 3 7l6 7 6 5c4 4 7 9 9 14l1 3.1v-1m0-66.2v-1l-2-3c-1-1-2 1-3 1l-1 1a60.5 60.5 0 0 1-15 10l1 1 1-1 10-5h1v1l-1 1-6 12-2 5v1h3c5-4 10-9 12-16l2-7m-35 29v-1h-2l-2.1 2-25 19.1c-6 3-11 8-16 12l-2 3-1 1h1l4-2 18-11 9-5 8-5 6-7 2-6m-15-8v1l-24 1-12 1c-6 0-11 1-17 3a69 69 0 0 0-19.1 15l-1 1h1l5-3c6-4 12-6 18-7l10-1 18-1 13-2 7-2 3-3c1-1 0-2-1-3h-1m-135 292.8h1v-1l-1-1-7-6-23-21c-9-9-16-19.1-20-30.1l-2-3-2 3v3c0 5 2 10 4 15l11 15a97 97 0 0 0 33 24.1l6 2m119.2 3-1-10c-2-17-8-33-18-47.1l-16-20a90.9 90.9 0 0 1-17.1-25.2l-1-1v-1 1l1 4a442.7 442.7 0 0 0 19 36.2c9 15 17 31 20 48.1 2.9 12.8 4.6 26 5 39.1l2 1 2-4c3-7 4-14 4-21m121.2-158.5-3 45.1-2 9-3-2c-7-8-15-14-24-19l-2-1-1-2 1-2c2-6 3-13 3-20.1 0-3-1-5-3-8l-5-5c-9-11-14-23.1-16-37.2l-3-20a55.6 55.6 0 0 0-17-33.1l-3-2h-1l2 3c5 8 8 17 9 27l3 20.1c1.5 14 6.4 27.3 14 39.1 3 4 6 8 11 10 2 2 2 3 2 5-1 12.4-5.8 24-14 33.2l-3 3c-5 2-10 2-14-2l-4-5-3-6-2-5c-3-9-9-16.1-18.1-21.1l-6-5c-7-3-12-9-14-16l-1-2-3-2c-19-3.1-31-20.2-33-35.2l-1-12-1-5c0-1 0-2-2-2l-5 2-6.1 7c-8 9-13 20-16 31-2 9-2 18.1-1 27.1l2 15v3.1c1 2 3 2 3 0v-6l1-22v-1s1-2 1 0l1 3 3 8c6 13 15 21 28 26 8 3 16 4 24 5l26.1 2 7 1c2 0 2 1 3 2l3 8 7 10.1c6 7 16 9 25 4l8-6 2-2c1-1 1-2 3-1l1 1c11.1 5 20.1 13 28.1 22l1 4-7 17.1c-4 12-10 23.1-16 34.1-5 11-12 20-20 28.1-23 24-50.6 43.2-81.2 56.2-8 4-18 6-27 8h-14l-21-5-22-10-43.1-28.1c-10-9-20-18-29-29.1-6-7-11-15-15.1-23l-8-16.1c-5-12-8-25.1-8-39.1 1-31.1 7-62.2 16-92.3a201 201 0 0 1 49-84.3c15-17 34.1-27 56.2-32 14-3 28-5 42-5 10 0 19-2.1 28-8.1 12-7 25-10 39.1-7 1 0 2 0 1 1l-14 10-9 6c-1 1-2 2 0 2l5-1 8-4 5-5 9-8 1-1-1-1c-9-3-19-6-29-4-7.1 1.3-14 4-20 8-7 5-14 6-21 6h-19.1l-32 6c-12 4-23 9-34.1 15-19 12-35 28.1-48 47.2a220 220 0 0 0-35.1 85.3c-3 14-5 27-6 41l-1 5c0 2.1-1 1.1-1 0l-1-9a323.6 323.6 0 0 1 4-86.2l8-31c5-18.1 13-35.2 22-51.2l20-35.1a138 138 0 0 1 55.1-51.2l31-13 16-6a28 28 0 0 1 18.1 0l29 11c10 4 20 9 29.1 15l13 9 14 13 8 9.1 10 14 20 35.2a285 285 0 0 1 23.1 58.1l6 24.1c3 12 5 25 5 38.1v15"/>
    <path fill="#1E2346" d="M352.5 362a40.1 40.1 0 0 0 33 41.2l6 1 1 1 1 5c2 6 5 11 10 15l7 5.1 7.1 5 3 3v1h-3l-27-3c-6 0-11-1-17-3-17-5-27.1-17-33.1-34.1l-2-9c-1-4 0-8 1-11 3-8 7-15.4 12-22.1h1v5"/>
    <path fill="#FFF" d="M392.6 579.7c0 1-1 14-4 21.1l-2 4-2-1-1-4c0-11-2-23-4-35.1-3-17-11-33.1-20-48.1a453 453 0 0 1-20.1-36.2v-4s-1-1 0 0 11 19 18 26.1l16 20a101 101 0 0 1 19 57.2m-119.1-3-6-2c-12-6-24-14-33-24l-11-15c-2-5.1-4-10.1-4-15.1v-3l2-3 2 3c4 11 11 21 20 30l23 21.1 7 6 1 1c1 2-1 1-1 1M408.6 284h1c1 1 2 2 1 3l-3 3-7 2-13 2-18 1-10 1c-6 1-12.1 3-18.1 7l-5 3c-2 1 0-1 0-1 5-6 12-11 19-15 6-2 11-3 17-3l12-1 24-2m15.1 8-2 6c-3.9 4.8-8.6 9-14 12l-9 5a143 143 0 0 0-22 13l-1-1 3-3 16-13 25-18 2-2h2v1m35-29.1-2 7c-2 6-7 12-12 16h-1c-3 1-2-1-2-1l2-5 6-12 1-1-1-1-12 5c-1 1 0 0 0 0l1-1 14-9 1-1c1 0 2-2 3-1 3 1 2 4 2 4m0 66.2v1c0 1 0 0 0 0l-1-3c-2-5-5-10-9-14l-6-5-6-7c-2-2.1-3-5.1-3-7.1l1-2 1 1c7 5 14 11 18 19 4 5 5 11 5 17M282.5 223.8c1 0 6 5 6 7 1 1-5 7-6 7l-6-7c-1-1 6-7 6-7m198.3 162.5-5-6 5-6 6 5-6 7M363.5 217.7l-6 6-6-6 6-6 6 6m-122.2 76.2-5 6-5-6 5-5 5 5M489.7 347l5 5-5 6-4-5 4-6M323.5 234.7l-4 5-4-5 4-5 4 5M324 565c0 .4-.3 6.8-.2 13.3-6.8.5-5.7-13.3-5.3-15 .2-1.4-4.4 1.7-6.7 3.8.7 1.3 1.8 1 3 .5-.5 6.2 3.9 11.8 9 11.7.2 6.5.9 12.6 2.7 13 .2.2.5-6.4.6-13.7 12.2-3.8 7.5-18.3 7.5-18.3-.2-.8-2 .3-6 3.9 1.6 1.7 2.4.7 3.6.3 1 2 1.4 10.5-5.1 13.1l.3-18c0-.2-.2-.3-.4-.3-1.8.2-5 3.4-7.5 6.1 1.4 2.2 3 .2 4.5-.4m5.8 19.2 2.8 2.8 2.8-2.8-2.8-2.8-2.8 2.8Z"/>
  </g>
</symbol></svg>
