<svg xmlns='http://www.w3.org/2000/svg' viewBox='0 0 30 30' fill='none'>
<symbol id='Vegan'>
<path fill-rule="evenodd" clip-rule="evenodd" d="M22.5999 6.18397L26.4199 12.816C27.1999 14.1685 27.1999 15.8415 26.4199 17.184L22.5999 23.816C21.8299 25.1685 20.3799 26 18.8299 26H11.1799C9.62988 26 8.18988 25.1585 7.40988 23.816L3.58988 17.184C2.80988 15.8315 2.80988 14.1585 3.58988 12.816L7.40988 6.18397C8.17988 4.84153 9.62988 4 11.1799 4H18.8299C20.3799 4 21.8199 4.84153 22.5999 6.18397ZM20.8699 22.8142L24.6899 16.1821C25.1099 15.4508 25.1099 14.5492 24.6899 13.8179L20.8699 7.18579C20.4499 6.45446 19.6699 6.00364 18.8299 6.00364H11.1799C10.3399 6.00364 9.55988 6.45446 9.13988 7.18579L5.31988 13.8179C4.89988 14.5492 4.89988 15.4508 5.31988 16.1821L9.13988 22.8142C9.55988 23.5455 10.3399 23.9964 11.1799 23.9964H18.8299C19.6699 23.9964 20.4499 23.5455 20.8699 22.8142ZM19.7453 15.5594C19.7531 15.5798 19.7611 15.6005 19.77 15.6212H19.81C19.8167 15.6346 19.8244 15.6468 19.8322 15.6591C19.8478 15.6836 19.8633 15.7081 19.87 15.7414C19.8706 15.7444 19.8716 15.7492 19.8731 15.7559C19.9213 15.9793 20.4162 18.2699 18.95 19.7387C18.07 20.6103 16.9 20.8207 16.04 20.8407V21.7223C16.04 22.2733 15.59 22.7241 15.04 22.7241C14.49 22.7241 14.04 22.2733 14.04 21.7223V20.8407H14.01C13.17 20.8407 12.04 20.6504 11.19 19.7988C9.72998 18.3362 10.11 16.022 10.16 15.7615V15.7414C10.1658 15.7064 10.1818 15.6748 10.1982 15.6425C10.2098 15.6195 10.2216 15.5962 10.23 15.5711C10.2407 15.5462 10.2488 15.5225 10.2566 15.4997C10.2709 15.4583 10.2842 15.4195 10.31 15.3808C10.3249 15.351 10.3453 15.3322 10.3672 15.3122C10.3747 15.3053 10.3823 15.2983 10.39 15.2906C10.4048 15.2758 10.4197 15.2603 10.4347 15.2446C10.4803 15.197 10.5273 15.148 10.58 15.1103C10.59 15.1053 10.6025 15.1003 10.615 15.0953C10.6275 15.0903 10.64 15.0853 10.65 15.0802C10.74 15.0302 10.84 14.9801 10.94 14.96H10.95C11.12 14.92 12.22 14.7496 13.37 15.0802C12.55 14.369 11.6 13.2369 11.6 11.7442C11.6 9.24964 14.2 7.60666 14.5 7.42633C14.5236 7.40859 14.5507 7.40132 14.5772 7.39422C14.5955 7.38929 14.6136 7.38445 14.63 7.37624C14.69 7.34618 14.75 7.31613 14.82 7.30611H15.01C15.0341 7.30611 15.057 7.30492 15.0792 7.30377C15.1213 7.30158 15.1607 7.29954 15.2 7.30611C15.2593 7.3146 15.3115 7.33749 15.3686 7.36258C15.3789 7.36708 15.3893 7.37166 15.4 7.37624C15.42 7.38626 15.4425 7.39377 15.465 7.40128C15.4875 7.4088 15.51 7.41631 15.53 7.42633C15.82 7.59664 18.43 9.23963 18.43 11.7442C18.43 13.2068 17.51 14.3389 16.7 15.0502C17.9 14.7396 19.04 14.9901 19.11 15.0101C19.1492 15.0232 19.1798 15.0406 19.2131 15.0594C19.2308 15.0694 19.2492 15.0798 19.27 15.0903C19.32 15.1103 19.37 15.1303 19.41 15.1604C19.47 15.2005 19.52 15.2506 19.57 15.3006C19.5801 15.3108 19.5903 15.3204 19.6003 15.3297C19.6297 15.3573 19.6576 15.3835 19.68 15.4209C19.7082 15.4632 19.7264 15.5106 19.7453 15.5594ZM16.42 11.7442C16.42 10.8626 15.62 10.011 15 9.51012C14.38 10.011 13.58 10.8626 13.58 11.7442C13.58 12.6258 14.4 13.4072 15 13.848C15.61 13.3972 16.42 12.6258 16.42 11.7442ZM12.05 16.8835C12.08 17.3945 12.2 18.0056 12.57 18.3762H12.56C12.95 18.7569 13.53 18.8271 13.99 18.8271C14 18.3662 13.92 17.7651 13.54 17.3945C13.16 17.0238 12.56 16.9036 12.05 16.8835ZM16 18.8371C16.51 18.807 17.12 18.6868 17.49 18.3161L17.5 18.3261C17.88 17.9354 17.95 17.3544 17.95 16.8935C17.49 16.8835 16.9 16.9637 16.52 17.3444C16.14 17.7251 16.02 18.3261 16 18.8371Z" fill="currentcolor"/>
</symbol>
</svg>
