<svg xmlns='http://www.w3.org/2000/svg' viewBox='0 0 30 30' fill='none'>
<symbol id='Vegetables'>
<path fill-rule="evenodd" clip-rule="evenodd" d="M23.6959 5.88158V6.59211H23.7159V6.62171V7.02632C24.3867 7.21382 25.0075 7.57895 25.4781 8.10197C26.179 8.88158 26.4994 9.91776 26.3692 10.9539L25.0175 24.9375C24.9074 26.1118 23.9161 27 22.7146 27C21.6633 27 20.7722 26.3092 20.4919 25.3421C19.4005 26.3684 17.9186 27 16.2966 27C14.7947 27 13.413 26.4572 12.3517 25.5592C12.0914 26.4178 11.2904 26.9901 10.3892 26.9901C9.48811 26.9901 8.69712 26.4178 8.42678 25.5592C8.36671 25.352 8.24656 25.2632 8.15644 25.2138C8.08562 25.1757 7.99822 25.1336 7.89693 25.0847C7.84071 25.0576 7.78022 25.0284 7.71589 24.9967C6.30413 24.3355 3 22.7862 3 18.9671C3 18.9079 3.14018 14.0428 9.20776 13.1842C8.73717 12.0691 7.48561 11.773 7.42553 11.7632C6.88486 11.6546 6.54443 11.1316 6.65457 10.5987C6.76471 10.0658 7.29537 9.73026 7.83604 9.83882C8.26658 9.92763 8.82728 10.1447 9.37797 10.4901V8.72368C9.37797 8.18092 9.82853 7.73684 10.3792 7.73684C10.9299 7.73684 11.3805 8.18092 11.3805 8.72368V10.4901C11.9312 10.1447 12.4919 9.92763 12.9224 9.83882C13.4631 9.7204 13.9937 10.0658 14.1039 10.5987C14.214 11.1217 13.8736 11.6447 13.3329 11.7632C13.1627 11.8026 11.9812 12.1184 11.5407 13.2138C13.2829 13.4605 14.7046 14.0526 15.766 15C15.9362 14.9803 16.1164 14.9704 16.2866 14.9704C17.4781 14.9704 18.5895 15.3158 19.5307 15.898L19.04 10.9243C18.9099 9.91776 19.2303 8.88158 19.9312 8.10197C20.4017 7.56908 21.0225 7.21382 21.6934 7.02632V6.62171V6.59211V5.88158C21.6934 5.37829 21.2829 4.97368 20.7722 4.97368H19.3905C18.8398 4.97368 18.3892 4.52961 18.3892 3.98684C18.3892 3.44408 18.8398 3 19.3905 3H20.7722C21.5131 3 22.174 3.27632 22.6946 3.73026C23.2053 3.28618 23.8761 3 24.617 3H25.9987C26.5494 3 27 3.44408 27 3.98684C27 4.52961 26.5494 4.97368 25.9987 4.97368H24.617C24.1064 4.97368 23.6959 5.37829 23.6959 5.88158ZM9.10763 23.4967C9.68836 23.8224 10.0989 24.3355 10.2991 24.9868L11.3604 25.273L10.3992 24.9868C10.5194 24.602 10.7297 24.2664 10.99 23.9901C10.4693 23.102 10.169 22.0757 10.169 20.9803C10.169 18.7303 11.4305 16.7566 13.2929 15.7303C12.4819 15.3454 11.5106 15.1086 10.3492 15.0395C5.22278 15.3257 4.97247 18.602 4.96245 18.977C4.96245 21.3355 6.80476 22.4013 8.53692 23.2105C8.63766 23.2623 8.73265 23.3085 8.81938 23.3506C8.93091 23.4048 9.02878 23.4523 9.10763 23.4967ZM12.1615 20.9803C12.1615 23.2105 14.0038 25.0263 16.2666 25.0263C18.5294 25.0263 20.3717 23.2105 20.3717 20.9803C20.3717 18.75 18.5294 16.9342 16.2666 16.9342C14.0038 16.9342 12.1615 18.75 12.1615 20.9803ZM22.995 24.75L24.3467 10.7368H24.3367C24.4068 10.2237 24.2566 9.76974 23.9362 9.4046C23.2954 8.68421 22.0638 8.68421 21.423 9.4046C21.0926 9.76974 20.9524 10.2336 21.0125 10.7072L21.7635 18.4046C22.1439 19.1941 22.3642 20.0625 22.3642 20.9901C22.3642 21.5329 22.2941 22.0559 22.1539 22.5493L22.3742 24.75C22.4043 25.0658 22.965 25.0658 22.995 24.75ZM13.1626 20.9801C13.1626 19.2926 14.5543 17.9209 16.2665 17.9209C17.9786 17.9209 19.3704 19.2926 19.3704 20.9801C19.3704 22.6676 17.9786 24.0393 16.2665 24.0393C14.5543 24.0393 13.1626 22.6676 13.1626 20.9801ZM15.1651 20.99C15.1651 21.592 15.6557 22.0755 16.2665 22.0755C16.8772 22.0755 17.3679 21.5821 17.3679 20.99C17.3679 20.3979 16.8772 19.9045 16.2665 19.9045C15.6557 19.9045 15.1651 20.388 15.1651 20.99Z" fill="currentcolor"/>
</symbol>
</svg>
