<svg xmlns='http://www.w3.org/2000/svg' viewBox='0 0 696 830' fill='none'><symbol id='VERC_Outline'>
  <g fill="#A7BFB9">
    <path d="m569 439.2-1-14-4-45a382 382 0 0 0-17-74l-18-48c-5-14-12-26-19-38l-27-37-22-22a92.2 92.2 0 0 0-32-18l-31-9-27-6-16-1-15-1-9 1c-13.5 2-26.8 4.7-40 8-11 3-22 6-33 11-9 3-17 7-24 13-9 7-17 14-24 23a519.6 519.6 0 0 0-45 72 5870 5870 0 0 0-24 63c-7 21-11 42-13 64l-3 32a468 468 0 0 0 2 72l8 37c9 39 28 73 54 102 9 11 19 20 29 30l10 9c18 15 37 25 59 31l30 7 23 3c12 0 23 0 35-3l8-2c9-2 17-3 25-6 22-6 42-17 59-32l26-25a235.4 235.4 0 0 0 71-142c4-18 5-37 5-55m6-18-2 35-2 24-2 18a207.8 207.8 0 0 1-34 99c-11 18-24 34-39 49l-16 16a153.9 153.9 0 0 1-91 42l-21 3-14 2h-10l-27-3-27-5a159 159 0 0 1-71-34 279.8 279.8 0 0 1-82-112c-6-14-10-28-12-42-3.2-30.6-5.5-61.3-7-92l2-39c3-31 9-62 21-91l14-36c5-12 11-24 18-35l27-36c15-18 33-32 54-42 11-6 22-10 33-13l22-7c9-2 18-2 27-2h20c11 0 22 0 33 3l44 16c24 11 45.3 27.5 62 48l24 33 18 33 18 48a389.4 389.4 0 0 1 18 90l2 30"/>
    <path d="m321 538.2 4-2v-1l-6 2 2 1Zm12-4c-2 0-2 1-2 2 1 2 2 2 4 2l2-1 1-1-1-1-4-1m25-72c2 0 2-1 1-2v-2c-5-10-8-19-11-29l-2-6-3 6c-3 10.2-6.6 20.3-11 30l1 2h1l24 1Zm-10 92v-2c0-2-1-2-2-1-2 0-4 0-6-2l-2-6h1l1 2 4 2c2 0 3-1 2-3l-3-5-2-1h-2c-1 2-2 3-5 3s-4-2-5-5v-1l-1-1-1 1-1 2c-1 3-2 5-5 4l-4-2h-3l-4 6c-1 1-1 2 1 2h4l1-3 1-1 1 1-2 5c-2 2-4 3-6 1h-2l-1 5c0 2 0 2 2 3h3c2 0 3 0 3-2l1-2 1 2-1 4c-2 2-4 2-7 2l-1-1v2l1 5c3 4 7 8 12 10s10 2 14-1l4-2 8-10-2-1c-4-1-6-3-7-7l1-2 1 2 1 1c0 2 1 2 3 2 4 0 4-1 4-4v-2m115-145c8 0 16-2 23-5l9-5v-1h-16c-7-2-14-5-19-9-8-6-15-13-21-20l-3-4-16-13c-8-5-16-7-25-8-2 0-2 1-2 2v14c-1 5-3 9-6 13l-4 6c-7 8-11 17-14 26v2c1 1 0-1 1-1 4-3 10-4 15-6 13-4 25-5 38-1l16 6c8 2 16 4 24 4m49 21-2-24c-.8-11.5-2.8-23-6-34l-8-32c-5-17-13-33-21-48l-18-32-10-13a789.4 789.4 0 0 0-20-21l-21-15-3-1h-1l-1 1c-4 9-10 17-18 23l-22 13c-11 5-23 8-35 12l-31 8c-7 2-14 5-20 9-4 2-8 4-11 8l-5 7c-2 6-1 11 4 15l4 2 8 3h21l24-4 37-8c12-2 23-3 35-2 9 0 18 1 27 4 12 5 22 11 30 21 7 9 11 20 13 31 2 8 2 16 2 24v7l1 3 2 1a68.2 68.2 0 0 0 22 7l10-1h2v2l-2 2a43 43 0 0 1-38 20c-2 0-2 0-3 3-1 9-5 16-11 22-5 6-11 10-17 14-12 7-25 10-39 11h-14c-6 0-5-1-3 4l10 26 12 29 2 6v3l-2-1-4-6c-10-20-20-39-29-60 0-1-1-2-3-2-9-1-19-2-28-1-2 0-3 0-3 2l-4 8c-8 19-17 36-27 54l-2 4-1 2h-1l-1-1 1-3 3-8 7-18c4.6-13 10-25.6 16-38 0-1 0-2-1-1-10 1-19 3-27 6-9 4-17 10-23 17a51 51 0 0 0-11 53c6 20 20 33 39 40 7 3 14 4 21 3 5 0 10-1 14-4l2-1h-3c-8 2-15-1-21-7l-5-6c-2-3-4-7-4-12 0-6 2-11 6-15 5-6 12-10 20-12 3-2 7-1 10 1 3 1 5 3 6 5l3 3c3 3 4 7 5 11v13c-3 14-12 24-26 28-8 2-16 2-24 0-23-7-39-21-48-43-9-23-4-45 14-63 5-5 10-9 17-12 10-6 21-9 33-10l5-1 1-1 1-2 17-34 2-4v-3l-3-3c-4-5-7-11-9-17l-3-7-10-35-6-16v-4h1l2 6 13 30 7 14 9 18 1 5 1 1v-1c2-8 6-16 11-24l1-2 14-31 5-12 2-4 1 1-1 2-3 10-10 32-5 16c-2 6-5 12-10 18l-2 3-1 3 3 5 9 18 11 20 28-1c11-2 21-6 31-12 9-6 16-13 21-23l2-8c0-1 0-2-2-2l-15-6a69 69 0 0 0-64 0l-6 2c-1 1-2 0-3-1l1-4a82 82 0 0 1 12-28c3-4 5-9 5-14l2-8 3-15c0-2 1-3 3-4l3-1h10c10 1 19 4 27 10l10 11 8 9a92 92 0 0 0 12 13l1-1v-1c0-14.7-2.8-29.2-8-43-7-13-17-23-31-28-14-6-28-8-43-7-13 0-25 3-37 6l-36 7c-8 2-17 3-25 2l-14-2-10-7c-4-4-5-9-4-15l4-9 8-8 15-9 28-8 34-9c11-3 21-7 31-12 6-4 12-8 18-14l9-12c2-3 2-3-1-4l-7-4-39-14c-5-2-9-2-14 0l-33 12c-10 4-19 9-27 15l-12 8-9 7c-9 8-17 18-23 29l-19 33c-9 16-17 33-22 50l-8 30a168.8 168.8 0 0 0-6 50c0 16 0 31 2 47 2 15 6 28 11 42a424.3 424.3 0 0 0 31 57 222.7 222.7 0 0 0 79 60c6 4 13 6 20 8l12 4 11 1 13-2c15-3 29-9 42-17l17-11c18-10 33-24 47-39 7-8 12-16 17-24l14-30c7-15 12-32 14-49l3-40m7-10c-.2 36.3-7.3 72.3-21 106l-10 22a163.8 163.8 0 0 1-56 66c-12 8-23 15-35 20-13 7-27 11-41 13h-24c-18-3-35-10-51-19l-19-11c-12-7-21-16-30-26l-13-16c-6-7-11-16-15-24l-17-37a215.6 215.6 0 0 1-15-74l-1-26c0-17 3-34 7-51 2-10 4-20 8-30 9-27 22-53 40-75l11-13 9-11c6-7 12-14 19-19l10-8c7-6 14-10 22-13l27-10c6-1 13-3 20-3l10 1a152.7 152.7 0 0 1 63 26 375 375 0 0 1 21 19l24 28c18 23 32 48 41 75 5.1 16.8 9.4 33.8 13 51l3 32v7"/>
    <path d="M197 398.2c-1 1 0 1 1 2l5 3 21 6c10 0 19-1 28-4l17-6c11-3 23-4 34 0l18 7h2v-1a97 97 0 0 0-19-32l-6-15v-12c1-1 0-2-1-2l-9 1c-7 2-14 5-20 9l-14 14c-7 8-15 15-23 21-6 5-13 8-21 9h-13Zm29 21a43 43 0 0 1-36-24l2-2v1h15c6-1 12-3 17-6l5-4c6-5 12-11 16-17 5.3-6.7 11-13 17-19 8-6 17-9 27-10h10l3 1c2 0 3 2 3 4l1 3 1 7 4 16 2 8 4 6c5 8 9 16 11 25v4c-1 1-1 2-3 1l-5-2c-11-6-23-9-36-8-7 0-13 1-19 4l-10 4-12 5c-5 2-11 3-17 3m102 131c-3 0-6-3-6-6l1-1 1 1c1 2 3 2 6 2l2-1v-2h2c0 4-2 7-6 7m0 13c-4-1-6-4-6-8h2c0 2 0 3 2 4h4l2-1v-2l1-1 1 1-2 5-4 2m10 11c2-1 2-3 3-6l-1-1-1 1-1 2-3 1-2-1-2-2h-1c0 3 3 6 5 6h3Zm-17 1c-3 0-6-3-6-6v-1l1 1 1 1 2 1h3c1 0 2 0 2-2l1-1c1 2 0 4-1 5l-3 2M439.4 509c0 .4-.3 6.8-.2 13.3-6.8.5-5.7-13.3-5.3-15 .2-1.4-4.4 1.7-6.6 3.8.7 1.3 1.7 1 3 .5-.6 6.2 3.8 11.8 9 11.7.1 6.4.8 12.5 2.6 13 .2 0 .5-6.5.6-13.7 12.2-3.8 7.5-18.3 7.5-18.3-.2-.8-2 .3-6 3.9 1.6 1.7 2.4.7 3.6.3 1 1.9 1.4 10.5-5 13l.2-18-.4-.2c-1.8.2-5 3.4-7.5 6 1.4 2.3 3.1.3 4.5-.3m6 19 2.7 2.9 2.8-2.8-2.8-2.8-2.8 2.8Z"/>
  </g>
</symbol></svg>
