<svg xmlns='http://www.w3.org/2000/svg' viewBox='0 0 696 830' fill='none'><symbol id='VMOC_Outline'>
  <g fill="#9BADFA">
    <path d="M124 433.2v34l3 22 8 34c8 36 26 69 50 98 13 15 27 29 43 42 18 16 40 27 64 33l27 6 16 2c11.6 1 23.3.7 35-1a905 905 0 0 0 49-13c19-7 36-17 51-31l23-22a233.4 233.4 0 0 0 62-103l9-36c4-17 6-35 5-53a686 686 0 0 0-9-97c-3-15-7-29-13-43l-18-48c-5-13-11-25-19-37a614.7 614.7 0 0 0-38-50c-12-11-25-20-40-26l-22-7c-14-4-28-8-42-9-9-1-18-3-27-2l-15 1-30 6c-11 3-22 6-33 11a110 110 0 0 0-51 36c-10 12-19 25-28 39-9 13-16 26-21 41l-14 34-8 25c-9 27-14.2 55.4-15 84l-2 30m451-12-1 35-2 25-2 18a207 207 0 0 1-36 100c-11 18-24 34-39 49l-17 17a153.9 153.9 0 0 1-90 40 1010 1010 0 0 1-46 5l-23-3-26-4a161.5 161.5 0 0 1-76-36 280 280 0 0 1-85-123l-7-31-4-33-2-28c-1.2-32.4.1-64.8 4-97 4-23 11-46 19-68l14-34c4-11 10-21 16-31l31-41c12-15 28-27 44-36 13-7 26-12 39-16l21-7 18-2 20 1h3l18-1c8 0 16 1 23 3 16 5 32 10 47 17 22.3 11 42.1 26.7 58 46l26 35c7 10 13 21 17 32l19 49a261.7 261.7 0 0 1 16 72l3 47"/>
    <path d="m405 356.2 1-1 5-11c-2.8 3.7-5.5 7.3-8 11l2 1m40-5-4-5-7-8-1 1 8 13h4v-1m-170 51-12-7h-1l9 9c1 2 2 2 3 1l1-1v-2m207-98-4-7c-1-1-1-2-2-1l-4 2v1l9 6c1 1 1 0 1-1m-258 102 2-1 8-7 4-3-1-1-15 8c-1 0-2 0-1 1l3 3m194-59 1-9h-1l-3 5-7 13 1 1h5c2 0 2 0 2-2l2-8m-223 72h12l-2-2-3-5-4-1-14 6 11 2m122 7c1 0 5 0 2-1l-18-9-2 1-7 6v1h1l16 1 8 1m121-74-12-20h-1l1 3 3 14 2 8 2 1 6-4-1-2m-116 13-4-8c-1-2-1-2-2-1-5 6-14 13-16 14s-2 2 0 2l21-5s2 0 1-2m106-7v-2l-3-14-2-9h-2v3l-3 18v2l1 1 8 2 1-1m-25 1-2-1h-1l-2 2c-5 7-10 15-16 21v2l5 1c2 1 2 1 3-1l3-6 9-16 1-2m-181 47-3-2h-3l-12 5c-2 1-2 1 0 3a267 267 0 0 0 8 7l11-11-1-2m19 16h2l2-1-1-1-4-1-7-4-6-5h-2l-10 9 1 1 25 2m56-8-14-8c-2.8-1.3-5.4-1-8 1l-1 2 5 6 8 7h1l1 1 9-7c1-1-1-2-1-2m190-5v-1l-4-3c-4-3-7-7-8-13l-2-4c-2-5-2-5-6-2l-2 2v2l1 2 12 18c2 4 1 3 6 1l3-1v-1m-38-52-1 1c-2 1-2 2-1 4l12 19c3 4 2 4 8 2l1-1v-2l-6-9-11-13c-1-2-2-2-2-1m-164 67h1v-1l-12-12-2-1h-1l-2 1c-2 3-6 4-9 6l-6 3s-1 1 1 1l13 2 17 1m-34-20v3c.2 4 .6 8 1 12l7-5 7-5 2-1v-1l-8-10-8-8-1 3v12m124 9 9-18 1-3c0-2-2-2-3-2l-4-4-1 1c-3 1-4 4-6 6l-6 15 8 5h2m-127-9v-15h-1l-5 4-13 14v2l6 3 7 4 4 3c.5-5 1.2-10 2-15m-69 35v15l1 5c1 1 3-1 5-1l3-1 2-10v-6l-1-8 1-7c0-4 1-4-4-4l-6-1-1 1v17m228-48c2 1 2 0 3-1l4-21v-4l-4-2-4-2h-1l-1 2-10 18-2 5 5 3 10 3m33 1 5-1 12-5 1-1v-1l-1-1-11-20-2-2-1-1-9 2c-2 0-2 0-2 2l1 2 5 23 1 2 1 1m-16 0h9c2 0 3 0 2-2l-5-24-1-2-1-1-11 2-1 5-4 19c0 2 0 2 2 2l10 1m-16 5-1-2-17-4-2 1-1 1-10 19v1l1 2c8 3 17 5 25 6 1 0 2 0 2-2l2-11 1-11m69 16-1-2-3-5-10-15c-1-1-1-2-3-1-5 3-10 4-16 4h-3l-1 2 4 14 2 10c0 2 1 2 2 1h2a127 127 0 0 0 27-8m-48 11 13-2 1-1v-2l-5-19c-2-7-1-6-8-4l-13 1h-4c-2-1-2 0-2 1v1l-3 14c.2 3 .5 6 1 9l20 2m-235 7-1 9v5l1 9c0 2 0 2 2 2h10l14 1c1 1 2 0 2-1l1-8 1-7c-2-4-2-8-1-12l1-5-1-1-1-1c-7 1-14 0-22-1h-6l-1 1 1 9m306-40v-18l-1-1-1 1c-7 3-13 6-20 7l-1 1v1l1 2c5 6 9 14 13 21l1 3-2 2-5 5-2 4c0 12 0 24 2 36v23l-1 4v1h1l15-18 1-3-1-4a323 323 0 0 1 1-44l-1-13v-10m-55-70-17 3v2l1 2 8 8 26 29 8 10 2 1c9.3-3.8 19-6.8 29-9 1-1 2-2 1-3l-2-2-8-6-11-8-13-10-19-16-1-1h-4m-211 101h-3c-4 0-4 0-3 4 1 5 1 10-1 15l-1 6 2 10c-1 2 0 2 1 3 10 2 20 7 30 10l6 3 1-1 3-15-1-9-1-13 2-8c0-2-1-2-2-2l-23-2-10-1m140 57v9l1 3 14 7 11 3 2-1v-14l-1-12-1-9c0-5 0-9 2-13l1-6v-14c1-5 1-4-4-5-8-1-15.9-3.4-23-7l-1 1-1 2v24l1 5v12l-1 15m-3-45v-12c0-3 0-3-3-2l-29 7-5 1-1 2v8l-1 11v11c1 7 2 14 1 21 0 1 0 2 1 1h2c7-3 15-4 23-6l10-3 1-2v-3l-1-11 2-23m110 3-1-11v-6l-1-1-1 1a67 67 0 0 1-30 4l-1 2v12c0 4 0 9 2 13 2 7 2 13 1 20l-2 10v19l1 1 4-2 21-9 6-2c1-1 2-1 1-2v-2l-1-11v-15l1-21m-65-110-16 5c-10 3-20 6-31 6-8 1-15 3-22 6l-4 2c-7 2-13 4-20 4-2 0-1 1-1 2l8 9c10 13 22 23 36 31 1 1 2 1 3-1l5-7c8-11 16-22 26-32l11-14c1-4 4-7 7-9l1-2h-3m-11 166v6c0 2 1 2 2 2l15 2h21c2 0 2-1 2-3v-13l-1-13-1-5v-14l1-5v-8l-1-16-1-1-15 1-19 2c-2 0-2 0-2 2l1 17 1 5c1 4 2 8 1 13l-2 14-2 14m-79-58v-5l-1-2h-3l-22-1-12-2h-15l-1 1 1 4c1 7 1 13-1 19l-1 9 2 14c-1 4-1 3 3 5l4 1c7 2 15 2 22 3l15 1 9 2c1 0 2 0 1-2l-1-5c0-6 0-12 2-17v-10l-2-15m6-11h3l20-4 12-3h1l1-1-2-2-6-6c-2-2-2-5-1-7l2-3 2-2v-2l-15-7c-9-5-18-10-24-18a495 495 0 0 1-58 10l-11 2c7.5 3.9 14.8 8.2 22 13l38 22 13 7 3 1m180 5-1-25c-1-11-3-21-6-32v-2h-2l-1 2 1 6 2 17v19l-1 17 2 25v5l-1 4-2 3-14 17c-3 4-7 7-12 9l-7 4c-4 3-9 5-15 6-7 1.2-14 2.6-21 4h-25l-12-3-22-10c-4-2-4-2-4-6v-3l-1-9c0-1 0-2-1-1h-1l-16 6c-3 2-7 3-11 3l-4 1v1h2c7 3 13 7 18 12l14 14c6 6 13 13 21 18 10 7 21 12 34 14a165 165 0 0 0 46-1l11-4c2 0 4-1 4-3l1-2c5-8 8-18 12-27a326.6 326.6 0 0 0 12-78m-37-140-1-3-13-22a153 153 0 0 0-35-41l-13-9-28-16-32-11c-6-2-11-2-16 0l-16 6c-17 5-33 13-47 23l-1 1c-16 11-17 12-29 26l-10 14-21 36-9 20-1 3v1l3-2a2974 2974 0 0 0 29-20c2-2 4-2 7 0l19 9 5 2h2l11-8 11-9c7-6 15-11 24-14l4-2c5-6 11-11 18-16l10-8c3-3 5-3 8-1l2 1 7 7 19 18 8 10 2 5 3 4 2 1 2-1c9.6-6.8 18.6-14.5 27-23 2-2 5-2 7-1l5 3 5 5 6 6c5 5 10 8 16 11 4 1 4 1 7-2l2-2 1-1m-296 119v2c0 1 1 2 2 1l13-7 47-21 10-4 21-4 4-2a686.5 686.5 0 0 0 45-27l13-4 14-3 23-6c9-3 19-6 29-7l46-9 5 1 3 2 15 10 16 13c4 6 10 10 15 14 0 0 2 0 1-1-4.2-13.4-8.5-26.7-13-40 0-2-2-3-3-4-5-3-9-6-12-10-3-3-6-5-10-6l-4-1c-6-1-12-4-16-9l-5-7-7-7c-1-2-3-2-4 0l-6 7-7 9c-4 5-8 9-14 11l-7 4-9 6c-5 4-15 7-16 8l-1-1h1l14-11 8-6 3-2v-2l-5-10c-2-2-4-5-7-6l-5-3c-6-2-11-7-14-12l-3-5-4-6-3-4h-4l-5 6c-6 5-10 10-14 16-3 4-6 7-10 9-4 3-7 6-10 11l-6 9-5 6-5 5c-1 0-3 0-2-1l5-6 14-23c0-1 0-1 0 0l-8 4c-6 3-10 8-13 12-5 7-11 12-18 16-3 1-6 3-8 6l-6 7-7 6c-5 4-5 4-6 3h1l1-2 8-10 9-12v-2l-12-6-10-6c-3-2-4-2-6 0l-2 2-5 4c-5 6-10 10-17 14l-7 4c-3 2-5 4-6 7l-3 7-11 39c-3 12-4 23-5 34m14 52h-3l-8 1c-1 0-2 1-1 2v6c2 12 5 25 9 37 8.4 20.9 18.8 41 31 60a222.4 222.4 0 0 0 79 61c7 4 14 6 21 8l17 5h3c6 1 11 0 16-1 15-4 29-9 42-17l27-16c16-11 29-24 42-39 6-6 10-14 14-21v-1h-1l-18 5a168.7 168.7 0 0 1-46 0c-12-2-23-7-32-15l-19-20-12-13c-7-6-15-11-24-12l-15-1h-16c-10-1-20-2-30-6l-21-8c-7-3-15-7-23-9-10-4-21-6-32-6m327-41c-.7 35.3-7.8 70.3-21 103l-12 27c-4 9-10 17-16 25l-16 19c-7 8-14 14-22 19-12 8-24 16-37 22-12 5-25 9-38 11-7 2-15 2-22 1-15-2-30-7-44-14-11-5-22-11-32-18a140.8 140.8 0 0 1-38-37c-8-9-15-20-20-31l-16-35c-8.9-23.3-13.7-48-14-73l-1-26c0-17 3-34 7-50l8-30c8-27 21-52 39-75l12-14 8-10 26-25c9-8 19-14 31-18l23-8 16-3c5-1 11 0 16 1 15 3 29 8 43 15l16 10c9 7.7 17.5 15.7 26 24l14 17a246.7 246.7 0 0 1 54 106l6 23 4 37v7"/>
    <path d="M224 497.2c-4-1-8 0-12 1h-2l2-1c4-2 9-3 13-3 7 0 14 1 20 3 11 4 21 10 30 16l21 19 30 26c16 11 60 22 60 24s-23-2-37-7a198.9 198.9 0 0 1-81-58c-7-7-15-12-24-16-7-3-13-5-20-4m122 120c-12 1-23-3-33-10-8-5-16-11-22-19l-19-21-12-12-11-8-11-4h-1 8c5 1 10 4 14 7 4 2 8 6 12 10l13 13c11.1 12 24 22.4 38 31 9 4 17 6 27 7l14 2h2l-1 2-11 2h-7m-40-163c0 2-2 4-5 4-2 1-4-2-4-4 0-3 2-5 4-5 3 0 5 2 5 5m-57-8c0 1-1 3-3 3l-3-3c0-1 1-3 3-3s3 1 3 3m-42-2-2-2 2-2 2 2-2 2m204 128.2c0 .4-.4 6.8-.3 13.3-6.8.5-5.7-13.3-5.3-15 .2-1.4-4.4 1.7-6.6 3.8.7 1.3 1.7 1 3 .5-.6 6.2 3.8 11.8 9 11.7.1 6.4.8 12.5 2.6 13 .2 0 .5-6.5.6-13.7 12.2-3.8 7.5-18.3 7.5-18.3-.2-.8-2 .4-6 3.9 1.6 1.7 2.4.7 3.6.3 1 1.9 1.4 10.5-5 13l.2-18-.4-.2c-1.8.2-5 3.4-7.5 6 1.4 2.3 3.1.3 4.5-.3m6 19 2.7 2.9 2.8-2.8-2.8-2.8-2.8 2.8Z"/>
  </g>
</symbol></svg>
