<svg xmlns='http://www.w3.org/2000/svg' viewBox='0 0 696 830' fill='none'><symbol id='VMOV_EC_Outline'>
  <g fill="#1E2346">
    <path d="M349.8 113.5h20.1l21.1 3 24.2 7a216.7 216.7 0 0 1 39.2 18h1v-1l-2-2-25.2-25-33.2-36-41.2-43.2-4-3c-2-2-2-2-3 0l-10 9-20.2 20-32.2 35.2-26.1 28-16 16-6.1 6.1v1h1l1-1c10-6 20.1-12 31.2-16 11-5 22-9 34.1-12 8-3 16.1-4 24.2-4h22.1M237.2 674v1l2 3 34.2 35.1 28.1 32.1 31.2 35.1 13 14 1 1h2l21.2-22 31.2-36.1 52.3-56.2 2-2v-1l-3 2c-15.1 8-31.2 13-48.3 16l-25.1 5c-16.3 2.7-33 3-49.3 1.1-17.8-3.1-35.6-6.4-53.3-10-13.8-4.3-27-10.4-39.2-18M579 439.3l-1 16-2 17.1-4 34.1c-2.7 22.9-9.8 45-21.1 65.2l-3 4v2l1-1 1-1 33.2-42 34.2-46.2 39.2-50.2 15-18v-3c-2-2-4-3-5-6a716.7 716.7 0 0 1-44.2-57.2A593 593 0 0 1 581 292l-17-27-29.2-37.2-3-2v-1 1l1 3c4 6 7 13 10 21.1l12.1 31a610.4 610.4 0 0 1 16.1 53.2c7.3 34.6 10 70 8 105.3ZM159.8 592v-1l-2-4-17.1-32.1c-7-17-11-34.1-14.1-52.2l-2-20-3-25.1-1-29v-22.1c1.6-39.2 8.3-78 20-115.4 10.1-23.8 20.5-47.6 31.2-71.2l5-8s0-1 0 0l-8 8-23.1 28.1-26.1 37.1a811 811 0 0 1-65.4 96.3l-17.1 21-12 14c-2 2-2 2-1 3l5 6.1 24 29 41.3 54.2a1412 1412 0 0 0 59.3 76.3l5 6 1 1M574 441.5l-2-28.1-2-34.1a342 342 0 0 0-20.1-84.3l-16.1-44c-5-11.1-10-23.2-17-34.2a557 557 0 0 0-47.4-59.2 112.3 112.3 0 0 0-45.2-24c-17.9-5.2-36-9.7-54.3-13l-10-1h-15.1l-9 1-17.2 2c-24.9 5-49.1 12.7-72.4 23-11 7-21 16-30.1 26a437.4 437.4 0 0 0-49.3 77.3l-16 43.1a316.4 316.4 0 0 0-23.2 106.3l-1 18c-1.1 21.1-.1 42.4 3 63.3a565 565 0 0 0 20.1 74.2A258.3 258.3 0 0 0 191 619l38.2 37c22.4 19.7 50 32.7 79.5 37.2l26.1 5h22.1l21.2-2 7-2c9-2 17-3 25.1-6 24.2-6 44.3-18 62.4-34.1l30.1-29.1 10-11a259.6 259.6 0 0 0 55.4-123.4c4-16 6-33.1 6-49.1m103.6-17.1-9 15a498 498 0 0 1-36.3 53.2 4501 4501 0 0 1-56.3 68.2l-34.2 38.1-33.1 35.1-31.2 36.1-49.3 58.2a685.4 685.4 0 0 1-61.3 64.2l-14 13-1 1c-3.1 2-5.1 2-8.1 0l-6-6-22.2-22-6-6.1c-24.8-24.9-48.3-51-70.4-78.2L205 653l-17-19-42.3-45.1a2570 2570 0 0 1-66.4-77.2l-25.1-32.1A454 454 0 0 1 21 428.4l-3-6v-5l5-9L70.3 332l32.2-41 21-24.1 21.2-27.1 28.1-39.1a970 970 0 0 1 164-169.5l8-8c4-3 3-3 6 0l6 6 30.2 26c24.7 22.1 48.6 45.3 71.4 69.2 30 30.7 57.2 64 81.4 99.3L557 247l23.1 28c37.2 40 68.6 85 93.6 133.5l5 8c1 2 0 4-1 8Z"/>
    <path d="m349.8 180.7-9 2c-10.1 3-21.2 6-31.2 11-9 4-19.1 8-27.2 14l-12 9.1c-7 4-12.1 9-17.1 14l-8 9-9.1 14.1c-10.5 19-20.8 38.1-31.2 57.2l1 1 3-2c5-5 10-8 17.1-10 4-1 8-2 11-6 2.1-3 6.1-5 10.1-6s7-3.1 10.1-6.1l8-7 6-6 4.1-2c3-2 5-1 7 1l3 3 7 8 13.2 11h1l4-4 9-11c5-3 9-8 13.1-12l16-17.1h4.1l3 2 4 3 15.1 14 4 3c2 2 3 3 6 3h3.1l6 4 8 5 17.2 13.1 7 6h3a109 109 0 0 0 18.1-12c2-2 4-2 7-1l3 1c4.1 1 8.1 4 12.1 7l6 6c4.4 4.4 9.5 7.7 15.2 10v-2l-8-16-19.2-34-5-9.1-17.1-21-10-8-16.1-12.1c-8-5-17.1-10-26.2-13l-33.2-12-6-2m-169 243.6 1 13a236 236 0 0 0 12.2 66.2c8.2 19.5 18 38.2 29.1 56.2 19.5 24.2 43.7 44 71.4 58.2 8 5 17 9 26.1 12l17.1 5 11 2 11.2-2 4-1c17-4 33-11 47.2-21a298 298 0 0 0 54.3-43.2c8-9 16.1-18 21.1-30l11.1-23.1a183.5 183.5 0 0 0 18.1-78.3 350 350 0 0 0-5-67.1l-6-20.1-6-20c-2.1-6-5.1-11-10.1-15.1l-4-5c-4-3-9.1-7-14.1-9-6-3-12.1-7-18.1-13-1-2-2-1-3 0l-2 2a62 62 0 0 1-16.2 12c-1 1-2 1-1 3l8 14 7.1 11 1 4s1 1 0 0l-2-1c-5-5-9-10-12-17l-3-6c-2-5-5.1-8-10.1-11-7-4-13-9-19.1-15.1l-7-6-7.1-5c-1 0-2 0-1 1l4 9 11 16 6.1 7 2 3v1l-10-8c-4-3-6-7-9-11l-2.1-6c-3-5-6-9-10-12l-2-2a74.6 74.6 0 0 1-23.2-23.1c-1-2-2-2-4 0l-2 3-4 5-6 10c-3 5-7.1 9-12.1 12l-5 4.1c-2 2-5.1 4-6.1 7l-4 7-7 8-3 2-12.1 12.1-2 2-1 1h-1l8-13 9-10c3-4 3-3 0-6a84.4 84.4 0 0 1-16-21.1c-3-4-4-5-8.1 0l-7 8-7 8c-4.1 3-8.1 4-12.1 4l-4 1c-3-1-5 1-6.1 4l-3 6-4 9a53 53 0 0 1-16.1 24.2s-2 1-1-1l2-3 7-14.1 6-15v-1l-14 8-7 7c-7.1 7-12.1 15-14.1 25l-7 25.1c-3 11-5.1 22.1-6.1 34.1l-1 23.1m342.8-10a309 309 0 0 1-14 88.2l-8 20-11.1 22.1c-4 9-9 17.1-15.1 25.1l-18.1 21c-7 8.1-16.1 14.1-25.2 20.1-10 7-21 13-32.1 18-12 6.1-24.2 10.1-38.2 12.1-10 2-19.1 2-29.2 0-18-4-34.2-10-49.3-19l-23-14c-9.1-6-17.2-13.1-25.2-22.1l-13-16a137.2 137.2 0 0 1-16.2-26.2l-14-30a270.2 270.2 0 0 1-18.2-88.3v-15c0-16 1-32.1 5-48.2l6.1-22c10.9-43 33.5-82.4 65.4-113.4a391 391 0 0 1 29.1-27c6-6 13-9 20.1-12l19.1-8.1c10.8-3.2 22-5 33.2-5 12 1 25.1 4 36.2 9l9 3c7 3 15.1 8 21.2 13 9 7.7 17.8 15.7 26.1 24.1 14.6 17.7 28.7 35.7 42.2 54.2 12.1 21 21.2 42.1 27.2 65.2l5 25c2 8 4 16 4 24.1l1 22"/>
    <path d="m478.5 421.4-1-1h-2l-1 1-1 6c0 2 1 2 3 2h1l1-1v-7m-127.7-79.2v-5c0-2-2-1-3-1-4 2-3 3-2 8l1 1v-1l5-2m119.7 79.2-1-1h-3l-1 1v7c0 1 1 2 3 2l2-1v-8m15-4h1l-1-1-11-4-1 3c0 2 0 3 2 3l10-1m-60.3-56.2c0-3-4-3-6-4l-1 2v4c0 3 0 3 3 4h3l1-6m-160.9 14-1-7c-1-1-6 2-6 3v7l1 1 1-1c5-1 5-1 5-3m132.8 22.1v-2c0-2 0-3-3-3h-1l-2 1v7c0 2 0 2 2 2 4 0 4 0 4-3v-2m-95.6-37s-1 2 4 0l2-1 1-1c-.2-3-.5-6.1-1-9.1l-4 2c-2 2-2 1-2 4v5m86.5 33.1-2-2h-4l-1 1v7c-1 3-1 3 3 3 3 0 3 0 4-3v-6m-47.2 4v-4l-2-2-4 1c-2 0-2 0-2 2v5c0 3 0 3 4 3h2l1-1 1-4m101.5 28.1v4l1 1h4c4 0 4 0 4-4v-5l-6-1h-3v5m-20.1-28c-1 5-1 4 4 5h3c2 0 2 0 2-2l1-7-1-1c-3 .5-6 1.2-9 2v3m36.2 33 4-1 1-1v-7l-1-1h-8l-1 1v7l1 1 4 1m-219.2 3-1-6c0-2-2-4-6-3l-1 1v11c0 4 0 4 4 4 3 0 4 0 4-3v-4m236.3-23 12 5c5 2 5 2 5-3 0-2-1-2-2-3l-4-2c0-2-1-2-2-1-4 1-7 0-9-3l-1-1h-1c-1 2-1 6 2 8m10 19s7 1 7-3v-5l-2-2-12 2c1 2 0 8 2 8h5m-256.3-4c0-1-1-2-2-1-3 0-4 2-6 3l-1.1 3v9l1 1h7l1-2v-13m114.7-28v3l2 2 13-1v-5c1-4 0-3-3-4h-7c-6-2-5-1-5 5m-32.2-3-1-1-7-1c-9 0-8-2-7 8 1 2 1 3 3 3a42 42 0 0 1 10-1l2-1v-7m19.1-1-1-1c-5 2-9 2-14 2h-1l-1 1v5l1 2 11 1 4-1 1-1v-8m46.3 8 2-1v-6c0-3-1-3-3-3h-2l-9.1 2h-2l-1 1v6l1 1h14m24.2-8-1 1-1 4c0 4 0 4 3 4h3l12-1c3 0 3 0 3-3l-1-5h-18m37.2 33v-35l-1-2.1-1-1h-1v56.2l-1 10 1 1c0 1 1 2 2 1l1-1v-29M392 382.2v5c0 2 0 2 2 2l4-1h17.2c5 .8 10 1.1 15 1 3 0 3 0 3-3v-1l-1-1h-5l-3-3-1-1-1-1-1 1c-3 1-5 0-7-2v-1h-2c-5 2-8.1 0-10.1-4l-1-1h-1c-3 1-5 2-8 0 0-1 0-1 0 0v10m53.2 50.1c-2 0-2 0-3 2v3l2 12h25.1l1-2v-15h-25m-46.3-27h-6l-2 4v9l1 1h10c8-2 17-1 25.1-1h4l1-1v-7c0-4 0-5-4-5l-10 1h-8c-4-1-7.1-2-10.1-1m-93.5 1h-5l-4 2-1 2v6c0 3 0 3 4 3h2l7-1h27.1c6 1 4 1 5-4v-5c-1-3-2-4-5-4h-1l-12 1-8 1-9.1-1m33.1-17.1 2-2c.2-6.3.2-12.7 0-19-1 0-1 4-4 4s-4-2-4-2l-1 1c-3 5-6 6-10 4l-2-1-2 1v1c-3 5-7.1 6-11.1 3h-1c-2-1-2-1-4 1v1h-1l-3 3c-2 0-2 1-2 2 0 3 1 3 3 3h40.1m23.2 28 19 2h6.1l1-1v-8c0-3-1-4-2-5h-3c-7 1-13 2-19.1 0h-16.1c-3 0-4 0-4 4v9h18M211 437.5l1 10h5l1-1v-17l2.1-4c5-3 10-5 15-4l4.1 1v-2l1-13v-2l-1-1-2-2-2 1-1 2c-2 3-5 4-8 3l-3-2-1 1c-3.1 5-4.1 5-9.1 5h-1c-1-1-1 0-1 1v24m247.3-19h11l2-2-1-9v-5l-1-1c-4-1-6-2-8-5h-1l-2-1-1 1c-4 0-6-1-8-4l-2-2h-4l-1.1 2v24l2 2h14m-51.2 19h-14c-2 0-2 0-2 2v13c-1 4.1 0 4.1 3 4.1 7 0 13 0 19 2h5l12.1-2c2 0 2 0 2-2l-1-17-2-1h-3l-11 1h-8m-49.4 21c8 1 15.1 0 22.2-1h6l1-2 1-7v-9c0-2 0-2-2-2l-9 1c-7 2-15.1 2-22.2 2l-9-1c-1 0-2 0-2 2v15l2 2h12m-17-10 1-8-2-1c-8.1-1-15.1 0-23.2 1h-19l-1 1v19h7a317 317 0 0 1 35.1-2c2 0 2-1 2-3v-7m-70.3 11 18 1c1 0 4 1 4-1l1-7v-12h-1l-1-1h-18l-10 1a84 84 0 0 1-18.2-1l-2 1 1 3v11l-1 5 1 1h3l23.2-1M211 405.3h2l9.1-3c14-6 29.2-11 43.2-15l33.2-12 34.2-13 26.1-7 2-1.1v-1l-8-6-4-1-18.1 8a537.2 537.2 0 0 1-72.4 29 184 184 0 0 1-30.2 13.1l-11 4-6 5s-1 1 0 0m154.8-17h7l14.1 1c1 0 2 0 2-2v-7l-2-13c-4 1-7 0-9-4 0-2-1-2-2-1-4 1-6 1-8.1-2l-2-2-1 2c-2 2-4 3-7 3l-1-1-1 1-1 1c-2 3-4 4-7.1 3-2-1-2-1-3 1v15c0 6-1 5 5 5h16m-72.3 3v-6c1-2-1-3-2-3-1-1-2 0-2 1-2 5-5 6-8 5h-2c-1-1-1-1-2 1-2.1 4-6.1 6-11.2 4l-2-1c-2 1-1 2-2 3-2 3-5 5-8 3l-3-1-1 1c-1 3-3 5-6 6l-1 1c2 4 2 8 2 13l1 1 7 1 14-1c5-2 10.1-2 16.1-1l9 1 1-1v-7l-1-4v-4l1-12m137.8 39.1v-2l1-6-6 1h-20l-13.2-1-12 1c-11 1-21.1 0-32.2-1h-13a297 297 0 0 1-42.3 1l-11 1h-30.2l-9 1v8c0 2 1 2 2 2h100.5l7-1H393l12.1-2c6-1 12 0 18.1 1 2 0 8 1 8-3m13.1 22-2 1-1 4.1c0 2 0 2-2 2-4 1-8 2-12 1-5.1-.7-10.1-.7-15.2 0-13 1-27.1 2-40.2 1h-20l-18.2 2h-27.1l-6-1-10.1 1a232.6 232.6 0 0 1-47.3 0c-3 0-4-1-4-5v-5c0-2-1-2-2-2h-2l-21.1-2h-4l-2-2v-34.1c0-2 0-2-2-2l-5.1 1h-3c0-1 2-3 4-3a161.4 161.4 0 0 1 52.3-29.1l1-2 1-5-2-1h-3v-1l1-2 11-7 3-1c1 0 3 1 1 4l-1 3v7l1 1 1-1c4-1 9.1-2 13.1-5a120 120 0 0 1 17.1-7l1-2 1-6-2-1.1c-2 0-2-1-1-2 3.2-4.5 7.4-8.2 12-11l2 2v1l1.1 12h2l4-1 22.2-9c2 0 2 0 2-2v-4l-3-1c-1 0-2-1 1-3l10-8c2 0 3 1 3 3l-1 2c-1 1 0 9 1 10l6 2c15.5 5.5 31 11.2 46.3 17l6 2 4 1 1-1v-8l-1-3-1-3 4-1 2 2c3.5 2.3 6.8 4.6 10.1 7 1 1 1 2-1 2l-1 1-1 1v6l5 3 9.1 5 12 5 12.1 5 29.2 13.1 4 2h-2l-11-4-20.2-9-26.1-10c-9-2-17.1-5-25.1-9l-18.1-8-29.2-11.1-10-2 12 7 42.2 15 28.2 12 20.1 8.1 32.2 12 8 4-3 1h-1v44.2c0 2-1 3-2 3s-2-1-2-3v-5l1-14-2-1-15.1 1c-2 0-2 0-2 2v13c-1 3-2 4-4 4l-7 1h-19.2m-194 74.2 22 4 21.2 2c15.5 0 30.9-1 46.2-3l28.2-6a237 237 0 0 1 41.2-3c10 0 20.1 1 30.2 4 2 0 0 2-2 1-21.5-3-43.6-1.2-64.4 5a399.4 399.4 0 0 1-61.3 12 161.6 161.6 0 0 1-58.3-7l-11-5-5.1-5v-1l13 2m-4-28a44 44 0 0 1-32.1-13.1c-4-3-7-7-9-11l-1-3 2 1c7 8 17 13 27 16l17.2 1c11-1 21-3 31.1-6l26.2-6c8.8-2.6 18-3.6 27.1-3l5 1c3 1 5 2 6 5l1 3 5.1 5 8 1 12.1-1c14.2-3.1 28.4-6.8 42.2-11 10.1-1 21.2-2 32.2 0a103 103 0 0 1 32.2 9h-3c-8-3.2-16.5-5-25.2-5-12 0-23 2-35.1 4l-27.2 6c-9 2-18 4-27.1 3l-9-2-4.1-1-4-6-1-2c0-4-3-6-6-7h-10.1c-8 0-17.1 3-25.2 6l-21 8c-8.1 3-15.2 6-23.2 7l-11 1M380 584l-27.2-2-21.1-3c-8-1-16 0-24.1 2l-8 1h-2l2-1c15-6 31-9.2 47.2-9l17 1H389c11.4-3.2 22.7-6.2 34.2-9.1h5c1 1-2 3-3 4-5 6-12 9-19 12-9.1 3-19.2 4-26.2 4"/>
    <path d="M393 428.4c0 2-2 3-4 3-1 0-2-1-2-3s1-3 2-3c2 0 4 1 4 3m-48.2 0c0 2-1 3-3 3s-3-1-3-3l3-3c2 0 3 2 3 3m-49.3 4c-2 0-3-2-3-3l2-3c2 0 3 1 3 3l-2 3m172.7 99.2 2.9 2.8 2.8-2.8-2.8-2.8-2.9 2.8Zm-5.9-19.1c0 .4-.3 6.8-.2 13.3-6.8.5-5.7-13.3-5.3-15 .2-1.5-4.4 1.7-6.7 3.8.7 1.3 1.8 1 3 .5-.5 6.2 3.9 11.8 9 11.7.2 6.4 1 12.5 2.7 13 .2.1.5-6.5.6-13.7 12.3-3.8 7.6-18.4 7.6-18.4-.2-.8-2 .3-6 4 1.5 1.7 2.2.7 3.6.3 1 1.9 1.4 10.5-5.2 13l.3-18c0-.2-.2-.3-.4-.3-1.8.2-5 3.4-7.5 6.2 1.4 2.2 3.1.2 4.5-.4"/>
  </g>
</symbol></svg>
