<svg xmlns='http://www.w3.org/2000/svg' viewBox='0 0 696 830' fill='none'><symbol id='VTHC_Outline'>
  <g fill="#9BADFA">
    <path d="m569.5 438.2-1-19-2-23a417.5 417.5 0 0 0-18-90l-21-54a458.4 458.4 0 0 0-46-71c-14-18-32-31-54-39l-32-9c-26-7.4-53.4-8.7-80-4-18 3-35 8-51 14-12 4-22 10-32 17-8 7-16 14-22 22a535.5 535.5 0 0 0-45 72c-7.8 20-15.4 40-23 60-8 23-12 46-14 69l-3 29a481 481 0 0 0 2 73l7 34c9 39 27 73 53 103 12 15 26 28 40 41a156 156 0 0 0 75 35l29 5c13.3 1.3 26.8.9 40-1l19-4 27-7c19-7 37-18 52-32l24-23a233.4 233.4 0 0 0 62-103l9-35c4-20 6-40 5-60m-451-11c0-19 1-36 3-53 3-30 10-59 21-87l13-32c5-12 11-24 18-35l27-36c14-17 31-30 50-40 13-7 26-12 39-16l22-7 13-1 20 1h4l18-1c8 0 16 1 23 3 17 5 33 11 48 18 22 11 41 25 57 45l25 33c7 11 14 23 19 36l15 39c8 22 14 45 17 68 6.3 46.8 6 94.3-1 141-3 27-11 52-23 75-14 25-30 48-50 68l-18 18c-19 18-42 29-67 36l-29 5-17 3c-9 1-19 2-29 1l-54-9c-26-7-49-19-69-37l-25-26c-24-26-42-56-54-89-4-12-7-23-9-35l-5-41-2-45"/>
    <path d="M500.5 359.2v2-1l1-1h-1m3 7h-1l-2 1 1 1 2-1v-1m-4-1 3-2v-1h-1l-2 3m-1-7 2-4-1-1-1 1v4m5 14h2l-1-1h-6l1 1h4m-1 4v1l3 6 3 4-1-4v-2c-1-3-2-4-5-5m-4-29-1-3c-2-9-6-18-10-27l-1-1v1l1 3 5 18 3 17 1 1v-1l2-8m13 61-1-7c0-3-2-5-1-7l-1-1-9-13h-1v1c1.9 4.7 3.9 9.4 6 14l1 5 4 8 1 4c2-1 1-3 1-4m-166 234 12-1c16-4 32-11 46-19l16-10c16-11 31-24 44-38 8-8 14-17 19-27 5.1-11.6 10.1-23.3 15-35-1-4-3-9-7-12l-14-12h-6l-1 2c0 6 0 12 2 18v3l-1 1-2-3c-2-3-3-7-3-10l-2-11c-2-8-7-14-15-17-9-3-15-8-20-16l-2-3h-4l-2 1c-4 3-7 7-9 11-2 6-6 10-10 14l-4 3-4 5-1 2 4 11 4 6 2 3v1h-1l-4-4a390.9 390.9 0 0 1-15-19l-5-5-2-2-3 3-1 2c-4 5-9 9-14 11-6 3-12 6-16 11l-3 1h-1v-1l1-1 12-12 10-8 10-9 3-2h4l2 2 7 5c2 1 2 1 3-1l4-5v-4c-2-5-5-8-10-11-9-5-16-12-21-21l-2-4-2-1h-3l-1 1c-6 8-14 13-23 18a29 29 0 0 0-11 12l-9 13-11 11-9 8-3 1h-1l1-2 5-5c3-4 7-8 9-13l8-13 1-1h-1l-4 2-4 4a86 86 0 0 1-21 18c-3 2-6 5-8 9a75.4 75.4 0 0 1-16 20h-1l-1-1 2-3c6-8 10-17 14-25v-2c-7-2-13-5-18-9l-2-1h-4l-17 12-3 3c-7 8-15 13-25 16l-8 4c-2 1-2 2-1 4l1 2 16 33c4 7 8 14 14 20a239 239 0 0 0 81 61c12.8 5.5 26.2 9.2 40 11m-166-213c.2 25.3 3.5 50.5 10 75l1 2 1 1 3-2 14-11 10-6 14-8 7-5 5-3c2-2 5-2 8-1l3 1 19 7c3 2 5 2 8 0s6-4 7-8c3-5 7-9 12-12l8-4 16-10 12-10 11-7c5-3 9-3 13 2 5 7 11 13 18 18l11 12 8 7h2l6-7a67.3 67.3 0 0 1 17-14c1-1 2 0 3 1l3 2c5 6 11 11 17 14l3 1c4 2 8 5 11 9l6 9 3 1c6-2 11-1 16 3l9 10 6 8h1l1-2 6-24c2-11 3-23 3-35l1-19-2-3-1-3v-5l-5-13c-1-1-1-2-3-2-3-1-3-3-2-5l1-3-5-12-1-1v8l2 24 2 20c1 2 1 5 4 6v4l-4 2-2-4v-1l1-5-2-10c-2-12-3-23-3-35v-3l-1 1v1l-6 24-3 15 1 4 1 1c1 3-1 5-4 5-2 0-3-1-3-2-1-2-1-4 1-4l3-6 6-28 2-12v-2l-1 1-15 24-1 5-4 3-13 20-2 6-1 2h-3c-2 0-2-2-1-3l1-1 4-5 13-20v-3c0-2 1-3 3-4l2-1 17-25v-1l-1 1-11 10-2 4-4 2-15 16c-1 1-3 3-3 5s-1 3-3 3-3-2-3-3c0-2 1-4 3-4s3-1 5-3l14-15 3-4 4-3 6-6 4-4-6 2-5 2-38 13c-2 1-4 1-4 4h-1c-1 2-3 2-4 1-2-1-2-3-2-5a4 4 0 0 1 5.5-1.4c.2 0 .3.2.5.4h3l30-10 18-7 2-1v-1h-2l-24 6c-2 0-3 1-3 2-1 2-3 3-5 1h-4l-16 3-6 3c0 2-2 2-4 1l-1-4c1-2 3-3 4-2h7l14-3 7-2c2-2 4 0 6-1l11-3h3v-1h-3l-18-1-25-4c-2-1-4-1-7 1-2 1-5 0-6-2-1-3 1-5 3-6 2 0 4 0 5 2l4 2 12 2c10 2 20 4 30 4h12l-3-1-13-4-13-5h-4c-2 1-3 0-4-1 0-2-2-2-3-2l-20-8-4-1h-4l-1 1c-2 0-4-1-5-3s0-4 2-5 4-1 5 1l4 3 25 10 8 3c12.8 4.3 25.8 8 39 11v-1l-11-6c-9-5-18-12-25-19-2-2-3-4-6-2h-1c-2-1-4-2-4-5 0-2 2-4 4-4 2-1 5 1 5 3v1l2 4 10 9c6 5 13 10 21 14l7 3h1v-1l-17-18h-2c-4 0-5-1-5-4 0-2-1-3-2-3l-14-10h-6c-1 1-3 0-4-1-2-1-2-3-1-5 2-3 6-2 7 1l4 3c6 2 11 5 16 9l4 3 2 1 4 4 14 16 1 2 1 1 1-1v-1l-3-15-1-2c-2-1-2-2-1-4l-1-1-1-4-3-2c-2 0-2-1-1-3l-1-2c-3-6-6-11-11-15-1-2-2-3-5-2h-1l-3-3 2-3h4l1 2 3 4c6 6 11 13 15 21l4 6v1-1l-1-4-5-17c0-2-1-4-3-5s-2-4 0-6l1-1v-3l-4-7-17-31a152 152 0 0 0-35-42 2057 2057 0 0 0-37-23l-37-13c-5-2-10-2-15 0-13.3 5.2-26.6 10.2-40 15l-21 12-2 4c0 3-2 4-5 3l-3 1-10 7v1l1 1 17 1c3 0 5 1 8-2h4l2 4-3 3-4-1-3-1-24-2-3 2-7 7c-2 3-2 3 1 5 2 1 4 2 6 0h1c2-1 4 1 5 2l-2 6c-2 1-4 0-6-2v-1c0-2-2-2-3-3l-4-2-2 1-4 5 1 1 15 4 2-1 1-1c2-1 4-1 5 1v5h-6c0-2-2-2-3-2-5 0-9-1-14-3h-1c-2-1-2 0-3 1l-7 12 1 2 7 5c2 2 5 3 7 1 2-1 4 1 4 3 1 2 0 3-2 4l-3-2-5-3-7-5-2-1h-2l-1 2c-1 2-1 4 1 5l2 1h1a4 4 0 0 1 1.4 5.5 4 4 0 0 1-5.5 1.4 3.8 3.8 0 0 1-1.9-4l1-3-1-1-2 1-7 13v4l2 9c1 2 1 4 3 5v4l-3 1-2-3c1-5-1-9-2-13h-1l-1 1c-5 11-10 21-13 31-5.1 19.7-9.8 39.3-14 59-2 12-2 24-2 35m-8-6c-.4-19.7 1.6-39.5 6-59l9-34c10-27 23-53 42-75l24-29a161.8 161.8 0 0 1 37-30c14-7 29-12 45-15 9-2 18-1 26 1 16.4 3.8 32.3 9.9 47 18 11 7 22 16 31 26l27 32c22 27 36 58 44 91l6 23a287.4 287.4 0 0 1-14 147l-15 32-13 22a267.9 267.9 0 0 1-36 37c-15 11-32 20-50 28-10 4-22 7-33 8-8 2-16 1-24 0-16-4-32-9-46-17l-24-14c-10-7-19-14-26-23a527.6 527.6 0 0 1-27-36c-8-15-15-31-21-46s-9-30-12-45l-3-42"/>
    <path d="m235.5 401.2-17-2h-3l-2-1-1-2 2-2h2l1 1c0 2 2 3 4 3l13 1 3-1h2c2 2 4 1 7 0l2-1h2c4 0 8-2 11-4l1-1h-1l-9-1-13-3-4-2-14-8-3-1h-3v-4c0-1 1-2 3-2 1 0 3 1 2 2 0 3 2 4 4 5l10 5h4c2-1 3-1 4 1 0 2 1 2 2 3l18 3h1l-1-1-4-3c-8-5-15-8-23-10l-3-1h-6c-2 1-4 0-4-2-1-2 0-4 2-5 1 0 3 0 4 2 0 2 2 3 4 3l10 3a76.6 76.6 0 0 1 21 11l-1-2-5-6-8-7-11-8-4-3-13-10c-2-2-4-4-6-4-2-1-3-3-2-4 0-2 2-3 4-2l2 2 2 5 14 10c1 3 6 1 6 5l7 6 10 9 1 1h1v-1l-8-12-17-20-3-1-1-1c-2 0-2-2-2-3 0-2 2-3 3-3 2 0 3 1 3 3 0 3 1 4 3 6 7.4 8 14.1 16.8 20 26l1 1v-1c-1-4-2-9-5-12v-1c0-4-2-8-3-11l-1-5c-1-2-1-4-3-5l-1-3c1-1 2-2 3-1l2 2c-1 3 0 5 1 8l3 10 2 2c2 1 2 2 1 3v4l5 16 1 2v1l1-1-1-9-7-29-2-4-1-3 3-2 2 2v7l5 25 2 13 1 1v-1l3-13v-1l4-12 1-5c1-2 2-4 1-7-1-1 0-2 1-3l3 1v3l-3 6-4 13v6c-3 4-3 8-4 13h1v-2l8-17c1-1 2-2 1-3l1-3 3-3 7-14 2-6v-1l2-1 2 1v2c-5 6-8 13-11 20l-4 9-10 18v1h1l9-9 19-19c2 0 3 1 3 2 0 2-1 3-3 3l-3 2-23 21h1l18-9 14-6 4-2c1-2 3-1 4 0 1 2 0 4-2 4h-1c-2-1-4 0-6 1l-31 14-3 2-1 1h3l5-1c2 0 3-1 4-3h4c1 2 2 1 4 1l7-1 6-2h2l1 2-2 1h-8l-7 1-5 2h-4l-6 1h-1l1 1 11 1c2 1 3-2 5-1l5 1h6c1 1 3 1 4-1h3c2 1 3 1 5-1h3v2l-1 1h-2l-5 1-3 1-4-1h-5l-6 1c-2 1-3-1-6-1h-11v1l1 1 19 13 5 1c2-1 4 1 4 3s-1 3-3 3l-3-1v-1c0-2-2-3-3-4l-19-12v-1h-1v1c2 3 4 6 8 8l1 1 1 2 5 5 5 5 5 5 4 2c2 0 3 2 3 3 0 2-1 3-3 3-1 0-3 0-3-2l-4-5-6-8c-1-1-2-3-4-3l-1-2-1-2c-1-2-5-1-5-4l-4-5-5-5-1-1v1l10 21 6 14c1 2 1 3 3 3l2 2-1 3-3 1-2-2c1-5-2-8-3-12l-8-18-1-2-1-1v2l3 14v1l-1 7 1 4c2 2 1 4 0 5s-3 1-4-1v-4c2-1 2-2 2-3 0-3 1-5-1-8v-2l1-3c-1.1-6.8-2.8-13.5-5-20l-1 1v7l-2 14v1l1 4-2 3-2 9v4l1 1-2 3c-2 1-3 0-4-1v-3c4-4 4-9 5-13l-1-2 1-4 2-2 2-21h-1l-5 13v2l-1 2c-2 2-3 4-2 7 1 1 0 2-1 2-2 2-3 5-2 8v1l-2 3c-1 1-3 0-4-1l1-4c3-2 4-5 4-8l1-2 1-2 2-6 3-6 2-6-2 2-10 13-2 4c0 2-1 2-2 2l-4 2-3 3-1 3v1c-1 1-3 3-5 2l-2-4c0-2 2-3 4-3 2 1 4-1 5-2 2-1 3-3 3-5l2-1 2-2 13-15v-1h-1l-6 5-1 2c-1 2-2 3-4 3s-4 2-5 4c0 2-1 3-3 3l-4 1-16 11-5 4-2 1-1-2 1-2c3 0 4-2 6-3l16-10 2-4 3-2c3 1 5-2 7-4l1-1 7-4c1-1 2-1 2-3l-3 1a130 130 0 0 1-23 7c-2 0-4 1-4 3-2 2-4 2-5 0-1-1-2-2-1-3 1-2 2-3 3-2h8l12-4h1l-1-1-8 1m116-142v-21l1-13-1-7 1-3 2 1 1 2-1 11c-.2 4.7-.2 9.3 0 14v4l-1 2v21l3-12v-2c2-2 2-4 2-6l3-12v-6l1-2h3v3c-3 2-3 5-3 8l-3 12v5l-2 5-2 7v1h1l5-7 18-22c2-2 3-3 3-5-1-2 1-3 2-3l3 2c0 2 0 3-2 3s-4 2-5 4l-17 21-5 6-1 2 2-1 12-12 2-3c0-2 0-2 2-2l3-2 10-9 2-3v-2c2-1 3-1 4 1 1 1 0 3-1 3l-7 5-7 7-2 2-2 2-1 1-8 7v1h1l1-1c8-5 18-9 27-12l4-1c1-1 2-1 2-3l4-2c2 0 3 2 2 4 0 1-2 3-3 2-3-1-5 1-7 1-9 3-17 6-25 11l-9 5v1c7-3 15-4 22-6l4-2 4 1 18-4c2 0 3 0 4-2l1-1a3.2 3.2 0 0 1 4.5-.5 3.2 3.2 0 0 1 .5 4.5l-4 2c-4-1-7 0-11 1l-11 1-12 3c-6.8 1.2-13.4 2.9-20 5l-5 2-1 1h1c10-2 20 0 30 2h2c2 1 3 0 5-1s5 0 5 3c0 1 0 2-2 3-1 1-3 1-3-1l-6-3-27-2-6 1v1l1 1 19 3c2-1 3-1 4 1l3 1 14 1 2-2 1-1h4c1 1 2 3 1 4s-3 2-4 1h-24l-21-7h-1v1l8 9 2 1 2 1c0 2 2 3 4 3h1c2 0 2 0 3 2l1 2 14 5 3-1h4v3c-1 1-2 2-3 1l-12-4-12-6-2-1h-1v1l2 2 9 8c1 1 2 2 4 1l1 1 2 3-3 3-3-2v-1c0-2-2-4-3-5-7-5-13-11-18-18h-1v1l2 5 2 3 1 2 1 4 3 3c1 0 2 2 1 3l1 4 12 25-2-1c0-5-3-8-5-11l-6-12-3-3c-2 0-2-2-2-3 1-3 0-6-3-7-1-1-2-2-1-3l-1-4-2-6-1-1v1l1 7 2 10 2 5 1 3c-1 2 1 5 1 7l2 1 1 1c2 1 3 2 2 4s-2 3-4 2c-2 0-3-2-3-4 2-3 0-6-1-9l-1-1c-2-1-2-3-1-4v-3c-1.8-6.6-3.1-13.2-4-20v-1l-1 1-1 9v13l-1 5v8c0 1-2 2-4 1-1-1-2-3-1-4 2-2 3-3 3-5l-1-4c-1-1 0-2 1-3 2-1 2-4 1-6v-3l1-1 1-13v-1l-1 1v1l-10 26-1 6v8c-1 1-3 2-4 1-2-1-2-3-1-4 3-2 3-5 4-8 0-3 2-5 1-8l1-2 1-3 8-18 1-1-1-1-1 1-12 14-2 4-3 4-1 3v5l-2 3-3-1v-4c3-1 4-4 5-7l1-3 1-2 10-11v-1h-1l-1 1-19 15-5 6c-1 2-3 2-4 1s-2-2-1-4l2-1c3 0 4-1 5-2l9-7 21-17-2 1c-8 2.5-16 5.2-24 8l-6 2-7 3-4 3h-3c-1-1-2-2-1-3 0-2 1-3 2-3l2 1h4l12-4 3-1 2-1h2l7-3 8-2v-1h1-5l-18 2c-2 0-4 0-6 2h-4v-4c.6-1.6 2.3-2.3 3.9-1.8.4.2.8.4 1.1.8 1 2 2 2 4 2l15-2h6l4-1-4-3-5-3-5-1-2-1-3-3-6-3-4-1-2-2c-1-2-2-3-5-4h-1v-3h3v2c1 1 2 3 5 2 1 0 2 0 2 2s2 2 4 3l4 2 5 2c2 0 3 2 4 3l10 4h1v-1c-3-2-5-5-9-5l-1-1-3-4-6-4c-2-2-3-3-5-3s-2-1-2-2l2-2 1 1 8 7 3 2c1 1 2 2 4 1l2 2 2 4 3 2c4 3 5 3 5 2l-3-4c-6-9-12-18-20-26-1-2-3-4-5-4l-2-2 2-3 3 2c0 2 2 3 3 5l9 11 10 14 1 2h1v-1l-1-1-8-24c-1-2-1-5-4-6v-4l3-1c2 1 2 2 2 3v6l9 26 1 3h1v-11Zm-5.6 325.3c0 .4-.3 6.8-.2 13.3-6.8.5-5.7-13.3-5.3-15 .2-1.4-4.4 1.7-6.6 3.8.7 1.3 1.7 1 2.9.5-.4 6.2 3.9 11.8 9 11.7.2 6.4.9 12.5 2.7 13 .2 0 .4-6.5.6-13.7 12.2-3.8 7.6-18.3 7.6-18.3-.2-.8-2 .3-6 3.9 1.6 1.7 2.4.7 3.6.3 1 1.9 1.4 10.5-5.1 13l.3-18-.4-.2c-1.8.2-5 3.4-7.5 6 1.3 2.3 3.1.3 4.4-.3m5.9 19 2.8 2.9 2.8-2.8-2.8-2.8-2.8 2.8Z"/>
  </g>
</symbol></svg>
