<svg xmlns='http://www.w3.org/2000/svg' viewBox='0 0 30 30' fill='none'>
<symbol id='WashHands'>
<path fill-rule="evenodd" clip-rule="evenodd" d="M18.9315 9.95381C18.9315 12.1296 17.1615 13.9044 14.9915 13.9044V13.9144C12.8215 13.9144 11.0515 12.1397 11.0515 9.96383C11.0515 9.68308 11.0915 9.3923 11.1715 9.06141C11.6615 6.675 13.8915 3.79727 14.1915 3.41625C14.3215 3.24579 14.5015 3.10542 14.7115 3.04525C14.9415 2.97507 15.1915 2.98509 15.4215 3.08536C15.6015 3.16558 15.7515 3.29593 15.8515 3.45636C16.3115 4.04795 18.5215 6.97581 18.8815 9.30206V9.33214C18.9115 9.5427 18.9315 9.75327 18.9315 9.95381ZM13.1115 9.46249V9.50259V9.51262C13.0715 9.68308 13.0515 9.82346 13.0515 9.95381C13.0515 11.0267 13.9215 11.899 14.9915 11.899C16.0615 11.899 16.9315 11.0267 16.9315 9.95381C16.9315 9.85354 16.9215 9.75327 16.9015 9.64297V9.61289C16.7215 8.44977 15.7915 6.85549 14.9915 5.68234C14.2515 6.75522 13.3515 8.27931 13.1115 9.46249ZM23.9615 18.1964C25.1115 17.8153 26.3715 18.3969 26.8215 19.5299L26.8315 19.4898C27.2815 20.6028 26.8115 21.8562 25.7415 22.3976C23.1815 23.6911 18.4915 25.9873 15.7715 26.7794C15.2515 26.9398 14.7515 27 14.2815 27C12.7115 27 11.4215 26.2781 10.3415 25.6664L10.3056 25.6461C9.76927 25.343 9.2706 25.0611 8.7815 24.8943C8.1815 24.6938 7.4815 24.784 6.8515 25.155L4.5615 26.5187C4.0915 26.7995 3.4715 26.6491 3.1915 26.1678C2.9115 25.6965 3.0615 25.0748 3.5415 24.7941L5.8315 23.4304C6.9615 22.7586 8.2815 22.6082 9.4415 23.0093C10.1015 23.2499 10.7215 23.5908 11.3215 23.9318C12.6215 24.6738 13.7515 25.2954 15.2115 24.8743C17.8715 24.0922 22.8315 21.6456 24.8415 20.6229C24.9815 20.5527 25.0415 20.3923 24.9815 20.2419C24.9215 20.0914 24.7515 20.0213 24.6015 20.0714L18.3915 22.1369C17.9215 22.6784 17.2615 22.9993 16.5615 22.9993C16.2115 22.9993 15.8615 22.9291 15.5215 22.7686L10.0815 20.2118C9.5815 19.9812 9.3715 19.3795 9.6015 18.8782C9.8315 18.3768 10.4315 18.1563 10.9315 18.3969L16.3715 20.9538C16.5715 21.044 16.8215 20.9638 16.9315 20.7733C17.0115 20.6329 16.9915 20.5026 16.9715 20.4324C16.9515 20.3722 16.8915 20.2419 16.7415 20.1717L11.1915 17.5346C10.4215 17.1636 9.4915 17.2237 8.7715 17.695L4.5415 20.4624C4.0815 20.7633 3.4615 20.6329 3.1615 20.1717C2.8615 19.7104 2.9915 19.0888 3.4515 18.7879L7.6815 16.0205C8.9815 15.1783 10.6515 15.068 12.0515 15.7297L17.6015 18.3668C18.2115 18.6576 18.6815 19.1991 18.8815 19.8508V19.8809L23.9615 18.1964Z" fill="currentcolor"/>
</symbol>
</svg>
