<svg xmlns='http://www.w3.org/2000/svg' viewBox='0 0 30 30' fill='none'>
<symbol id='WaterFountain'>
<path fill-rule="evenodd" clip-rule="evenodd" d="M12.2899 5H12.7141C13.2975 5 13.7748 4.55 13.7748 4C13.7748 3.45 13.2975 3 12.7141 3H12.2899C11.7065 3 11.2292 3.45 11.2292 4C11.2292 4.55 11.7065 5 12.2899 5ZM9.87147 7.79997H9.82904L9.83965 7.78997C9.25627 7.76997 8.80017 7.30997 8.83199 6.75997V6.35997C8.8532 5.80997 9.35173 5.34997 9.9245 5.39997C10.5079 5.41997 10.964 5.87997 10.9322 6.42997V6.82997C10.911 7.36997 10.4442 7.79997 9.87147 7.79997ZM18.1131 12.1401H22.2286C23.2045 12.1401 24 12.8901 24 13.8101V14.5301C24 17.0201 21.8468 19.0401 19.2163 19.0401H18.8238C17.8904 22.9101 20.2876 25.1901 20.3936 25.2901C20.7012 25.5701 20.7967 26.0001 20.6376 26.3801C20.4785 26.7501 20.0966 27.0001 19.6618 27.0001H10.3489C9.91397 27.0001 9.52151 26.7501 9.3624 26.3701C9.2033 26.0001 9.30937 25.5601 9.61697 25.2801C9.72304 25.1801 12.1096 22.9001 11.1762 19.0401H10.7837C8.14261 19.0401 6 17.0101 6 14.5301V13.8101C6 12.8901 6.79552 12.1401 7.77136 12.1401H11.8975V11.2901C11.8975 9.67011 13.287 8.36011 15.0053 8.36011C16.7236 8.36011 18.1131 9.67011 18.1131 11.2901V12.1401ZM15.0053 10.3601C14.4643 10.3601 14.0189 10.7801 14.0189 11.2901V12.1301H15.9918V11.2901C15.9918 10.7801 15.5463 10.3601 15.0053 10.3601ZM13.34 19.0501C13.8491 21.6601 13.1491 23.6801 12.396 25.0001H17.5934C16.8403 23.6801 16.1402 21.6601 16.6494 19.0501H13.34ZM19.2163 17.0401C20.6906 17.0401 21.8786 15.9101 21.8786 14.5301H21.868V14.1401H8.10018V14.5301C8.10018 15.9201 9.29876 17.0401 10.7625 17.0401H19.2163ZM16.066 6.61997C16.066 7.16997 15.5887 7.61997 15.0053 7.61997C14.4219 7.61997 13.9446 7.16997 13.9446 6.61997V6.21997C13.9446 5.66997 14.4219 5.21997 15.0053 5.21997C15.5887 5.21997 16.066 5.66997 16.066 6.21997V6.61997ZM20.1497 7.79989H20.1921C20.7755 7.77989 21.2316 7.31989 21.2104 6.75989V6.35989C21.1786 5.80989 20.6906 5.36989 20.0967 5.39989C19.5133 5.41989 19.0572 5.87989 19.0784 6.43989V6.83989C19.1102 7.37989 19.5875 7.79989 20.1497 7.79989ZM17.7207 5H17.2964C16.713 5 16.2357 4.55 16.2357 4C16.2357 3.45 16.713 3 17.2964 3H17.7207C18.3041 3 18.7814 3.45 18.7814 4C18.7814 4.55 18.3041 5 17.7207 5Z" fill="currentcolor"/>
</symbol>
</svg>
