<svg xmlns="http://www.w3.org/2000/svg" viewBox="0 0 30 30" fill="none">
<symbol id="Weibo">
<path fill-rule="evenodd" clip-rule="evenodd" d="M19.3183 5.13896C21.4655 4.68371 23.7905 5.34971 25.3655 7.09796L25.3648 7.09946C26.9398 8.84771 27.3665 11.2297 26.6915 13.3012V13.3057C26.5318 13.788 26.0165 14.0505 25.5335 13.896C25.0505 13.7362 24.788 13.221 24.9425 12.738C25.4255 11.256 25.1203 9.56396 24.0005 8.32196C22.8808 7.07996 21.2308 6.60671 19.7023 6.92996C19.2058 7.03721 18.7228 6.72296 18.6148 6.22646C18.5075 5.73446 18.821 5.24696 19.3183 5.13896ZM5.418 19.0094C5.676 21.6156 9.10725 23.4156 13.0822 23.0219C17.0527 22.6326 20.067 20.1996 19.8045 17.5889C19.551 14.9826 16.1198 13.1826 12.1447 13.5764C8.17425 13.9701 5.16 16.3986 5.418 19.0094ZM21.0173 14.3607L21.0278 14.3639L21.0285 14.3624C22.4062 14.7891 23.9393 15.8204 23.9393 17.6436C23.9393 20.6534 19.5938 24.4454 13.0687 24.4454C8.09025 24.4454 3 22.0319 3 18.0659C3 15.9899 4.3125 13.5846 6.57225 11.3301C9.5955 8.3069 13.1205 6.92839 14.4472 8.25515C15.033 8.84165 15.0892 9.8489 14.7142 11.0586C14.517 11.6639 15.2858 11.3309 15.2858 11.3309C17.7278 10.3041 19.86 10.2479 20.6385 11.3586C21.0562 11.9541 21.018 12.7844 20.634 13.7496C20.4581 14.1906 20.6855 14.2597 21.0173 14.3607ZM22.9413 9.2872C22.1726 8.43445 21.0378 8.11045 19.9976 8.33545C19.5708 8.4247 19.2993 8.85145 19.3878 9.27745C19.4816 9.7042 19.9038 9.9757 20.3253 9.88195C20.8361 9.77395 21.3896 9.9337 21.7646 10.3462C22.1396 10.7632 22.2423 11.3309 22.0788 11.8274C21.9476 12.2399 22.1726 12.6899 22.5896 12.8257C23.0066 12.9569 23.4521 12.7319 23.5878 12.3149C23.9163 11.2979 23.7101 10.1354 22.9406 9.2872H22.9413ZM12.6205 18.5541C12.859 18.6531 13.1635 18.5406 13.3045 18.3013H13.3053C13.4365 18.0576 13.3525 17.7906 13.1178 17.7058C12.883 17.6166 12.5883 17.7291 12.4473 17.9586C12.3115 18.1881 12.3813 18.4603 12.6205 18.5541ZM10.2055 20.5228C10.8243 20.8041 11.65 20.5371 12.034 19.9228H12.0333C12.4128 19.3041 12.211 18.5961 11.5878 18.3291C10.9743 18.0711 10.177 18.3381 9.79755 18.9336C9.41355 19.5336 9.5958 20.2461 10.2055 20.5228ZM8.63055 17.6968C9.45105 16.0326 11.5885 15.0906 13.4778 15.5826H13.477C15.4368 16.0933 16.435 17.9353 15.6333 19.7308C14.8225 21.5593 12.4878 22.5388 10.51 21.9013C8.6028 21.2826 7.7913 19.3933 8.63055 17.6968Z" fill="currentColor"/>
</symbol>
</svg>
