<svg xmlns="http://www.w3.org/2000/svg" viewBox="0 0 30 30" fill="none">
<symbol id="WhatsApp">
<path d="M23.5006 6.4875C21.244 4.2375 18.2435 3 15.0448 3C8.45903 3 3.09873 8.334 3.09873 14.892C3.09873 16.9875 3.64969 19.0357 4.69582 20.8358L3 27L9.33558 25.3455C11.0834 26.292 13.0475 26.7938 15.0448 26.7938H15.0494C21.6352 26.7938 27 21.459 27 14.9018C27 11.7233 25.7564 8.7375 23.4998 6.4875H23.5006ZM15.0501 24.7875C13.2646 24.7875 11.5168 24.3097 9.99055 23.4097L9.62802 23.1937L5.86933 24.1733L6.8725 20.526L6.63659 20.151C5.63794 18.5805 5.11488 16.7618 5.11488 14.892C5.11488 9.44025 9.57074 5.00625 15.0546 5.00625C17.7069 5.00625 20.2032 6.0375 22.0784 7.90275C23.9536 9.77325 24.9846 12.2528 24.9846 14.8965C24.9801 20.3528 20.5235 24.7875 15.0501 24.7875ZM20.4956 17.3812C20.1986 17.2312 18.7289 16.5142 18.4561 16.4152C18.1832 16.3162 17.985 16.2653 17.7823 16.5653C17.5848 16.8608 17.0097 17.5312 16.8356 17.7323C16.6615 17.9288 16.4874 17.9572 16.1905 17.8073C15.8935 17.6573 14.928 17.343 13.7877 16.3305C12.9021 15.543 12.2991 14.568 12.125 14.2725C11.9509 13.977 12.1062 13.8127 12.2569 13.668C12.3933 13.5367 12.5539 13.3208 12.7046 13.1475C12.8554 12.9742 12.9021 12.852 13.0016 12.651C13.1003 12.4545 13.0536 12.2805 12.9782 12.1305C12.9028 11.9805 12.3044 10.518 12.0594 9.9225C11.819 9.34125 11.5695 9.42075 11.3856 9.41175C11.2115 9.40275 11.0133 9.40275 10.8158 9.40275C10.6184 9.40275 10.2928 9.47775 10.0199 9.77325C9.74635 10.0687 8.97456 10.7902 8.97456 12.2528C8.97456 13.7153 10.0441 15.126 10.1948 15.3278C10.3455 15.5243 12.3006 18.5295 15.2966 19.8135C16.0081 20.118 16.5635 20.301 16.9969 20.4412C17.7129 20.6663 18.3634 20.6332 18.8766 20.5583C19.451 20.4735 20.6433 19.8413 20.8928 19.1475C21.1423 18.4538 21.1423 17.8582 21.0669 17.7367C20.996 17.6055 20.7986 17.5305 20.4971 17.3805L20.4956 17.3812Z" fill="currentColor"/>
</symbol>
</svg>
