<svg xmlns='http://www.w3.org/2000/svg' viewBox='0 0 30 30' fill='none'>
<symbol id='Windsurf'>
<path fill-rule="evenodd" clip-rule="evenodd" d="M4.07391 8.5798H3.97354C3.4215 8.55982 2.98991 8.10032 3.00998 7.55091C3.03006 7.00151 3.54194 6.56198 4.04379 6.59195H4.35494H11.5615C11.7321 6.59195 11.9028 6.59195 12.0734 6.58196C12.244 6.57197 12.3745 6.52202 12.505 6.42213C12.7659 6.21236 12.8563 5.98261 12.8061 5.63299C12.776 5.44319 12.6856 5.30334 12.515 5.16349C12.3143 5.00367 12.1135 4.96371 11.8626 5.00367C11.7321 5.02365 11.5414 5.08358 11.3608 5.33331C11.0396 5.78282 10.4173 5.87273 9.96562 5.55307C9.51395 5.23342 9.42362 4.61409 9.7448 4.16457C10.1965 3.56522 10.7987 3.17564 11.5113 3.04578C12.3243 2.90594 13.0972 3.08574 13.7496 3.59519C14.3317 4.05469 14.693 4.66403 14.7934 5.36328C14.944 6.42213 14.5626 7.36112 13.7295 8.00043C13.2979 8.33007 12.796 8.52985 12.234 8.56981C12.0132 8.58979 11.7823 8.58979 11.5615 8.58979H4.35494C4.30343 8.58979 4.25457 8.58716 4.20699 8.5846C4.16186 8.58217 4.11788 8.5798 4.07391 8.5798ZM20.4744 17.6801L16.018 15.9419V15.9719C15.6667 15.842 15.4158 15.5124 15.3857 15.1328C15.3556 14.8132 14.7835 7.41117 19.3905 3.28563C19.4038 3.26565 19.4261 3.25455 19.4484 3.24345C19.4596 3.2379 19.4707 3.23235 19.4808 3.22569C19.531 3.18574 19.5912 3.15577 19.6514 3.1258C19.7116 3.09583 19.7719 3.07586 19.8421 3.06587C19.8622 3.06587 19.8798 3.05838 19.8973 3.05088C19.9149 3.04339 19.9324 3.0359 19.9525 3.0359C19.9662 3.02907 19.9846 3.03158 20.0013 3.03385C20.0091 3.0349 20.0164 3.0359 20.0228 3.0359C20.1031 3.0359 20.1733 3.04589 20.2536 3.06587C20.2686 3.06885 20.2827 3.07094 20.2962 3.07294C20.3278 3.07764 20.3559 3.08182 20.3841 3.09583C20.4644 3.1258 20.5347 3.16576 20.6049 3.21571C20.62 3.22699 20.6352 3.23686 20.6497 3.24637C20.6739 3.26213 20.6966 3.27693 20.7153 3.29562C20.7235 3.30371 20.7349 3.31017 20.7469 3.31697C20.7646 3.32697 20.7837 3.33773 20.7956 3.35555C20.8124 3.37229 20.823 3.39214 20.8343 3.41336C20.8432 3.43015 20.8526 3.44779 20.8659 3.46544C20.906 3.50539 20.9361 3.55534 20.9562 3.60528C20.9964 3.66522 21.0164 3.73514 21.0265 3.80507C21.0365 3.83504 21.0566 3.90496 21.0566 3.90496L22.4818 17.5602L24.5796 16.9009C25.1015 16.7311 25.6636 17.0208 25.8342 17.5502C26.0048 18.0696 25.7138 18.629 25.1818 18.7989L18.6477 20.8566C22.4339 21.5748 25.2172 19.8996 25.4442 19.763L25.4528 19.7578C25.9245 19.4581 26.5368 19.598 26.8379 20.0575C27.139 20.527 27.0085 21.1363 26.5468 21.436C26.4063 21.5359 24.0075 23.0443 20.5347 23.0443C18.7581 23.0443 16.7106 22.6447 14.5325 21.476C9.16276 18.5791 4.74648 21.3161 4.55578 21.436C4.08404 21.7257 3.47179 21.5958 3.17068 21.1363C2.86957 20.6668 3.00005 20.0575 3.46175 19.7578C3.68256 19.618 9.03228 16.2516 15.476 19.7179L15.5362 19.7478L20.5246 18.1695L20.4744 17.6801ZM20.2536 15.4425L19.3102 6.42224C17.4935 9.25917 17.3429 12.8952 17.363 14.3237L20.2536 15.4425ZM4.0037 11.4269H9.00212L9.35341 11.4368C9.4839 11.4368 9.63445 11.4668 9.77497 11.6766C9.93556 11.8963 9.88537 12.1161 9.85526 12.216C9.82515 12.3059 9.71475 12.5157 9.42367 12.5856C9.33334 12.6056 9.27312 12.6056 9.18279 12.5856C9.0523 12.5656 8.89171 12.4557 8.80138 12.3159C8.49023 11.8564 7.86794 11.7365 7.41628 12.0462C6.95457 12.3558 6.83413 12.9752 7.14528 13.4247C7.54676 14.024 8.18912 14.4436 8.8616 14.5535C9.00212 14.5734 9.14264 14.5934 9.28316 14.5934C9.4839 14.5934 9.68463 14.5734 9.88537 14.5235C10.7285 14.3237 11.421 13.7244 11.7221 12.9152C12.0233 12.1161 11.9028 11.2271 11.411 10.5178C10.9292 9.83857 10.2066 9.44899 9.38352 9.439H4.0037C3.45166 9.42901 3 9.87853 3 10.4279C3 10.9773 3.45166 11.4269 4.0037 11.4269ZM25.4528 23.7136C25.9145 23.4139 26.5368 23.5437 26.8379 24.0032V24.0132C27.139 24.4727 27.0085 25.0921 26.5468 25.3917C26.4063 25.4916 24.0075 27 20.5347 27C18.7581 27 16.7106 26.6004 14.5325 25.4317C9.16276 22.5348 4.74648 25.2719 4.55578 25.3917C4.08404 25.6814 3.47179 25.5516 3.17068 25.0921C2.86957 24.6226 3.00005 24.0132 3.46175 23.7136C3.68256 23.5737 9.03228 20.2073 15.476 23.6736C20.886 26.5904 25.4126 23.7435 25.4528 23.7136Z" fill="currentcolor"/>
</symbol>
</svg>
