<svg xmlns='http://www.w3.org/2000/svg' viewBox='0 0 696 830' fill='none'><symbol id='YANJ_Outline'>
  <g fill="#00807D">
    <path d="m569.5 435.3-4-50c-3-29-9-56-19-83-9.8-23.7-19.8-47.4-30-71-11-19-23-36-37-52-12-15-27-27-46-34-23-9-47-16-72-18-16-1-31 0-46 2-16 3-31 8-46 13a112.9 112.9 0 0 0-58 40l-29 40c-7 11-13 22-18 35l-16 43c-10 25-16 51-19 77l-5 60c0 15 0 31 3 47l7 33c10 42 29 78 58 110l32 31c15 14 33 25 52 32 21 7 43 12 65 13 11 0 22 0 33-3l8-1c11-2 22-4 32-8 20-7 38-18 54-32 10-8 19-18 28-27 24-24 42-53 54-85 5-13 8-27 11-41 6-23 9-47 8-71m-451-14c1-27 3-53 8-79 3-16 8-31 13-45l17-45 16-30c9-13 19-27 30-39 12-16 28-28 46-38 13-7 26-12 40-17l17-5c7-2 13-3 21-3l19 1 10-1c16-1 31 2 46 7 13 4 26 9 38 15 21 10 39 25 54 43l26 35c8 11 14 22 18 34l17 42c9 24 14 49 17 74 3 26 4 52 3 79l-3 33-4 35a275.5 275.5 0 0 1-69 128c-7 5-12 11-18 17-22 20-47 32-75 38l-41 7c-13 2-26 2-39 0l-40-7c-27-6-51-18-71-37l-26-27c-25-27-43-58-55-92-4-13-7-25-8-38l-5-46-2-39"/>
    <path d="m347.5 507.3 1 4 4-2-5-2m22-112 7 3-2-7-5 4m-33-62v-8l-2-4c-2 0-3 1-3 3l-1 2c-1 6-1 6 6 7m11 107-6-5-9 9 8 2 7-6m19-102c-5 0-14 4-16 8l14 1 2-1v-8m18 1c-3-8-4-10-7-11-3 7-3 15-3 22l1 3 4-8 5-6m-2-52-3-3h-8c-5.1 3.5-10.1 7.2-15 11v2l3 1 6-4c5-4 10-6 17-7m-13 35c-9 5-19 8-27 14l3 3c1 1 2 2 3 1l17-10c3-2 4-4 4-8m-45 74c6 1 12 4 16 10l10-9c-7-3-12-7-16-14l-4 7-6 6m107 41c-4 0-8-2-11-5-4-3-7-8-9-12-1-3-1-3-4-2v1c4 8 6 17 8 26 0 2 1 2 3 2 4 0 8-2 10-4s3-3 3-6m-121-95c-8-5-18-2-22 6-3 5-4 10-3 15l1 7 6-8c1-3 4-5 7-6l8-3 3-11m-7 178c-1-6 0-11 3-16s9-8 14-11l-8-6-2 3c-3 3-6 5-10 6h-6c-3 0-3 0-4 3v3c-1 8 4 15 13 18m-19-144c-5 1-9 3-11 7l-6 8-3 9 2 8c1 4 5 7 9 8 0-6 0-11 2-16s6-8 10-11l-3-13m23 23-9-2-9-6c-14 9-12 26-3 36l4-3 2-3 7-12 8-10m4-47 8 2 8 4 6 5c4-7 7-13 14-17-3-6-10-10-17-9l-6 1c-7 2-13 8-13 14m31 95c5 4 8 8 10 14 1 2 1 2 4 2 8 1 15 3 21 9 2-5 3-10 1-15l-4-8c0-2-1-2-3-2-7 1-14 0-20-4h-3l-6 4m-26 1h-4c-2-1-5-1-7-3-5-4-9-8-12-14l-2-4c-6 3-7 6-7 13v9c0 5 3 8 7 10l12 3 4-2c1-4 4-7 7-10l2-2m66 15v2c0 3-1 7-3 9v4l2 11v4c-1 1 0 2 1 3 5 2 14 1 18-5 2-1 2-3 2-5v-7c1-4 0-8-1-12-1-2-2-2-4-2-5 1-10 1-15-2m-97-3-4 9-1 4v10c0 6 5 10 10 9l8-1 11-4c2-2 2-2 1-4-2-3-4-7-4-11l-1-6c-7 0-14-2-20-6m105-164-8 19-1 4c2 6 4 12 8 17l4 1 13 2-1-5-2-3v-3h3l3 2c-2-5-4-9-7-12l-1-2v-2h5l-5-5-3-3c-3-3-3-4 1-6l2-1-11-3m-54 289c0 4 1 8 3 11 4 7 11 9 18 5l6-5c3-4 5-9 6-14 2-8-1-15-9-19l-2-1-4 8-3 6c-2 4-4 6-8 7l-7 2m45-210 2-1c4-3 8-4 13-4l10 1 4-2 4-11c0-3 0-5-2-7l-2-3c-3-6-9-8-15-8l-3 1-8 4c-5 3-7 9-5 14 2 3 2 6 2 10v6m-44 161-10 4-3 2c-2 4-2 8-1 13l2 13 1 5c1 7 7 9 12 6l2-1 8-5c5-4 7-9 7-15l-2-2c-3-1-6-3-8-6l-8-14m3-42 6 8 3 3c5 2 10 2 16 2l2-1 5-5 3-6c2-3 3-8 3-12 0-3-1-5-3-7l-9-6c-3-3-7-4-12-3 1 12-3 21-14 27m73-78v1c2 5 5 9 10 12 4 2 9 2 14 2l5-1c6-4 10-10 9-19l-3-9c0-2-1-4-3-5-4-5-9-7-16-6l-2 2-1 7c0 7-4 12-10 14l-3 2m-27-3v13l-2 8c-1 5-3 8-7 11v1c3 3 5 7 4 12l1 1c6 3 11 4 18 3 2-1 4-2 5-5l3-10 1-11-4-14c-1-2-2-3-5-3-4 0-8-1-12-4l-2-2m-42 98c1-4-1-10-6-14l-4-1h-6c-2-1-4 0-6 1l-6 6-5 12-2 7c-1 6 2 11 7 14 8 3 19 0 24-7 3-5 4-10 4-18m-32-154h-5l-4 1c-9 3-16 16-9 25l7 9c9 9 21 3 24-5l4-10 1-6c1-5 0-8-5-11-4-2-9-3-13-3m72 178c0-3-1-7-3-10-1-3-3-6-6-8l-5-4-6-3c-5-2-10 0-15 3l-2 4c-1 5-2 10-5 14-2 2-2 3-1 5l2 3c3 4 6 7 11 9l5 2c4 2 7 2 10 0l9-5c4-2 6-6 6-10m-72-65v2c1 10 8 18 17 19s17-5 20-15c2-5 1-10-1-16-3-9-10-13-20-13-6 0-11 3-13 9-2 5-3 9-3 14m5-25c9-1 15-5 21-11v-3c-3-6-3-13-1-19l-1-4c-3-5-11-9-17-8s-11 5-15 10c-3 3-4 7-3 11v10c0 6 4 11 10 13l6 1m79-74-6 2c-7 2-10 7-12 13-2 5 0 9 3 12l6 6c5 3 9 5 14 6 5 2 10 0 15-1 7-2 10-7 8-14 0-4-3-8-6-12-5-8-13-11-22-12m-12 47c-1-6-4-14-11-18-13-6-20-3-27 6-4 5-5 10-2 16 1 3 1 7 3 10l2 5c6 6 16 7 22 2l7-6c4-4 6-8 6-15m-5-46c0-5-2-9-4-13-4-8-14-11-22-7l-7 3c-6 2-9 6-10 12l1 11c1 7 6 10 11 14 5 3 10 2 15 1l4-2c8-4 11-10 12-19m-104-9h3c2 0 2 0 2-3l1-4 3-9c3-6 7-9 14-10 4-1 8 0 12 1h4l6-5 5-2c3-1 3 0 3-3l1-6c2-3 5-3 7-1 2 1 4 4 4 7v2l9-4 17-10c3-2 7-4 9-8 3-4 4-10 6-15l-8 1-8 4-5 3c-4 1-7-1-8-5v-2l-2-1c-5-1-8-5-6-10l2-5 8-15c2-3 3-7 2-12l-2 4-1 1-1-1v-7c0-4-1-6-4-8v4l-2 2-1-2-1-4c-2-3-3-6-7-9l1 4-1 3-2-2-1-1c-2-3-5-5-9-7l2 5-1 2h-1l-1-1c-4-5-9-6-14-8l1 2 4 6c0 1 2 1 1 3l-4 1-2-1c0 3 2 5 3 7l4 4 5 7v6c0 3-2 4-5 3-3-2-6-4-7-7l-4-4v6c-1 1-2-1-2-1l-8-5h-3l1 2c1 2 2 3 1 4s-3 0-4-1h-12l5 4 1 3-3 1-7-2c0 4 0 4-3 3h-4l-7-2 5 5 4 4c1 2 1 3-1 4l-4 1 5 3c1 1 3 1 3 3l-3 3 8 3c1 1 3 1 3 3l-3 3c7 4 12 4 18 1l4-1h9c3 1 5 2 6 6 0 3-3 5-5 6-5 3-11 4-16 2l-7-1c-8-1-14 3-17 10l4 2 3 2c0 2-2 2-4 2l-1 1c-3 0-5 0-7 2l4 2 2 3-2 2c-2 1-4 3-5 6l5 1c3 0 4 2 2 5l-4 7-2 3h2l8-2c2-1 3 0 2 2l-2 5m79-117 3-1 1 2 2 5c2 8 2 16-5 23l-3 4-5 6c-1 2 0 4 2 4 2 1 4 1 6-1a51.8 51.8 0 0 1 23-11c4-2 6-5 5-10l-2-11-5-14c-4-14-5-28-1-42 1-3 1-3-2-4l-19-7c-6-2-12-2-17 0l-14 5a170 170 0 0 0-89 66l-19 32c-10 18-18 37-23 58l-6 20a327.7 327.7 0 0 0-6 90c2 15 5 30 10 44s11 27 18 41c5 11 13 21 21 30 16 18 35 31 55 44 16 10 33 17 52 21 5 2 11 2 16 1 15-3 30-8 43-16l24-14c17-11 32-25 46-40 6-7 12-14 16-23l14-29c9-20 14-41 15-64a377 377 0 0 0-2-68l-7-29c-8-33.7-22.3-65.5-42-94-8-13.9-18-26.4-30-37l-27-18-11-6-3-1v4l-1 14c0 10 2 19 4 29a75.8 75.8 0 0 1 0 39c0 1 0 2 2 3l8 3 6 2 2 1-1 2-4 3-4 3 3 2 2 3 4 4c1 2 0 3-2 3l-3-1 4 5c1 4 3 7 5 9v2l-2 1-4-1 1 5c0 3 2 4 4 6 3 2 5 5 4 9v4c1 5-1 9-4 13l-1 2 11 6c4 3 5 7 6 11h3c6 0 10 1 15 4 8 5 11 12 9 22-1 6-3 12-9 16l-7 4c-4 2-6 3-7 7l-2 3c-4 5-9 7-15 6-3 7-3 7-9 11l-3 2v3l4 10c2 4 2 8 0 11l-3 5c-4 7-10 10-18 8l-6-1c-2 4-6 6-9 9 5 0 8 3 10 7l3 5 3 15c0 5-1 9-6 12-4 3-9 6-14 7l-7 2c-2 0-2 1-2 2 0 2 0 2 2 3 6 1 10 6 12 12 2 7 2 13 1 19l-5 8c-5 4-10 6-15 7-7 1-12-1-16-6s-6-10-4-16c-3-1-6-2-7-4-5-4-8-9-10-16v-10l4-12 1-3c-4-1-9-2-12-5s-4-7-6-11h-3c-6 0-10-2-12-7-3-7-5-14-1-21l-7-5-5-8c-2-2-2-4-2-7 0-4 1-7 3-10l7-9-2-3c-4-5-5-10-3-16l5-10-5-5c-1-3-3-5-6-5l-2-1c-4-2-7-5-8-10v-16c1-6 4-10 10-13l11-5-3-8h-6c-2 0-2-1-1-3l2-4-4 2-10 1-2-1 1-2 3-2c3-3 5-7 5-11h-4c-3 0-4-2-2-4l4-5 3-2-3-2-3-1c-2-1-2-3 0-4l7-2 3-1-4-2c-2-1-2-2-1-4l1-2c6-8 14-12 24-10l8 1c3 0 6 0 8-2 3-2 3-4 0-5-2-1-4-2-6-1l-8 2c-4 1-7 2-11 1a91 91 0 0 1-9-4c-1-1-1-2 1-3l3-1-8-3-4-3v-3h4l-5-3-3-2-1-2 2-1 5-1-3-3-6-6c-1-1-2-3-1-4h3l2 1c3 1 6 2 9 1l-1-2v-2h2l3 1 5 1-5-3c-1-1-2-2-1-3l2-1h15l-3-2c0-1-2-2-1-3l3-1 5 1 5 2c0-4 1-4 3-3l2 2 4 4 7 6c1 0 2 0 2-2v-2c0-3-2-6-4-8l-4-4c-3-3-4-7-5-11-1-1 0-2 2-2l3 2-2-4-4-7v-4h2c4 4 9 5 14 8 1-3 1-3 3-2l8 4c1-3 2-4 4-2l7 7 2 4v-3l1-2 1 1 2 2 4 10m-183 169c1.7-36 9.5-71.5 23-105 11-23 24-44 40-63l15-18a142 142 0 0 1 92-49c7-1 13 0 20 2a166.3 166.3 0 0 1 49 19c12 9 24 19 34 32 7 8 14 15 20 24 22 27 37 59 46 93l6 27a278.3 278.3 0 0 1-31 176c-6 13-15 24-24 34-11 12-23 23-36 31-14 8-28 16-43 21-9 3-19 6-28 7-8 1-16 1-23-1-16-3-31-8-45-16l-26-15a185.2 185.2 0 0 1-59-72c-6-13-12-25-17-39a239.4 239.4 0 0 1-13-88"/>
    <path d="M458.5 351.3c0 4-3 7-7 7s-7-3-7-7 3-7 7-7 7 3 7 7m43 76c0 4-3 7-7 7s-7-3-7-7c0-3 3-7 7-6 4 0 7 3 7 6m-80 166c0 4-3 7-7 7s-6-3-6-7 3-6 6-7c4 0 7 3 7 7m-183-265a6 6 0 0 1 6 6 6 6 0 0 1-6 6 6 6 0 0 1-6-6 6 6 0 0 1 6-6m218 188c-1 3-3 6-7 6-3 0-5-3-5-6s3-6 6-6 6 3 6 6m-17-237c0 3-2 6-5 6-4 0-7-3-7-6s3-6 6-6 6 3 6 6m-235 120c-1 3-3 6-6 5-3 0-6-3-6-5 0-4 3-6 6-6s6 3 6 6m80 136c0 3-2 5-5 5s-5-2-5-5 2-5 5-5 5 2 5 5m-7 64c-3 0-4-2-5-4 0-2 2-4 4-4 3 0 4 1 5 4 0 2-2 4-4 4m198-97c-2 0-3-2-3-4s1-3 3-3 4 1 4 3-2 4-4 4m-232-145c0 1-1 3-3 3s-4-2-4-4c1-2 2-3 4-3 1 0 3 2 3 4m64 250c-2 0-3-2-3-3 0-2 1-3 3-3s3 1 3 3l-3 3m157-278c2 0 4 2 4 3 0 2-2 3-3 3-2 0-3-1-3-3l2-3m-204 246c0 2-1 3-2 3l-3-2c0-2 2-3 3-3l2 2m-31.8-113.7c0 .4-.3 6.8-.2 13.3-6.8.5-5.7-13.3-5.3-15 .2-1.4-4.4 1.7-6.6 3.8.7 1.3 1.7 1 2.9.5-.4 6.2 3.9 11.8 9 11.7.2 6.4.8 12.5 2.7 13 .2.1.4-6.5.6-13.7 12.2-3.8 7.6-18.3 7.6-18.3-.2-.8-2 .3-6 4 1.6 1.6 2.3.6 3.6.2 1 2 1.4 10.5-5.2 13.1l.3-18c0-.2-.2-.3-.4-.3-1.8.2-5 3.4-7.5 6.1 1.4 2.2 3 .2 4.5-.4m5.9 19.1 2.8 2.8 2.8-2.8-2.8-2.8-2.8 2.8Z"/>
  </g>
</symbol></svg>
