<svg xmlns='http://www.w3.org/2000/svg' viewBox='0 0 696 830' fill='none'><symbol id='YASC_Outline'>
  <g fill="none">
    <path fill="#9D432C" d="M124.2 436.2v11c0 13 1 26 3 38l7 35c9 39 27 73 53 103 13 14 26 28 41 40a154.4 154.4 0 0 0 79 36l24 5c13.4.9 26.8.2 40-2l19-3c10-3 20-5 29-9 19-7 36-17 51-31l23-22a235.9 235.9 0 0 0 62-103 540.7 540.7 0 0 0 14-69v-40l-3-37c-2.7-28-8.8-55.5-18-82l-19-49c-4-13-10-24-18-35a545.7 545.7 0 0 0-34-46c-12-13-26-24-43-31a285 285 0 0 0-93-19c-14 1-28 3-42 7-12 3-24 6-36 11a109.4 109.4 0 0 0-51 36 504.1 504.1 0 0 0-48 76l-15 39-7 20a293.6 293.6 0 0 0-16 89l-2 32m451-10-1 30-2 24-3 24c-2 23-8 45-18 65-14 29-31 55-54 77l-19 19c-19 17-42 29-67 35-9 3-19 4-28 6l-17 2c-11 2-21 2-32 1-18-2-35-5-52-9-26-6-49-18-69-37l-31-32c-21-25-37-53-48-83-4-11-7-23-9-35l-4-40c-7.3-61.1-.5-123 20-181l15-39c13-24.3 28-47.4 45-69 14-18 32-32 53-42a253.4 253.4 0 0 1 71-22l20 1h4l21-1 18 3c17 5 34 10 50 18 22 11 41 26 57 45l25 35c7 10 13 21 17 32l20 50c6 19 11 39 14 59l4 64"/>
    <path fill="#9D432C" d="M460.2 433.2c-1 1 1 3 2 3l2-1-1-1-3-1m-173-36c-2 0-8 2-11 5s-3 3 0 6l1 1 2-1c2-4 4-7 8-10v-1m189 51-6 2-1 1 1 1a58 58 0 0 1 13 9l1-1-5-11-3-1m-188-48h-1c-3 3-5 6-6 10l1 5 2 6 1 6c0 2 1 1 1 1l1-5-1-8c0-5 0-9 2-13l1-1v-1h-1m47-30 6-1c5-1 5-1 3-6l-2-2-3-5c-2-1-3-1-3 1l-3 13h2m130 79c3.7-.1 7.5-.8 11-2v-2l-8-8c-1-1-3 0-4 1v1l2 2c1 2 1 3-2 3l-3 1-6 1v1l10 2m-120-78-8 2c-1 0-2 0-1 1h1l3 1c6 2 11 4 15 7 5 4 9 9 10 15l1 1 1 1c2-6 2-11-2-16l-9-8c-2-1-4-1-5-3l-6-1m-81 177-30 4h-1v1l3 2 11 8 2 2c1 1 2 1 3-1l2-5c2-3 4-6 8-7h2c2-1 6-4 5-5l-5 1m160-1s-2 0 0 1c1 2 3 4 6 4 4 1 7 4 8 8l2 4c1 2 2 2 3 0l16-11s2-1-1-1l-23-3-11-2m-19 72-7-8h-3l-12 10-16 16-1 1h1l3-1c12.3-3.8 24-9.2 35-16v-2m66-67-6 3-4 3-12 11c-2 1-2 2 0 3l8 6h3l17-22c1-1 3-3 2-4h-8m-144 86-13-13c-5.3-5.4-11-10.4-17-15-1-1-2-1-3 1l-7 8c-1 2-1 2 1 3 12 7 25 13 38 17 2 0 2-1 1-1m-115-86v2c6 10 13 18 20 25h2l9-6c2-2 2-2 0-5l-21-16h-10m189-83c-1 0-2 0-1 2 3 2 6 4 9 4l9-1 12-6c3-2 7-4 11-4l13-3c7-1 15-2 23 1 2 1 2-1 2-1l-1-1c-7-5-15-9-24-9-4-1-9 0-12 4l-2 2-9 7c-9 6-18 8-28 6l-2-1m-117-112h4l1-1-1-1c-3-3-7-7-12-9-7-2-13-1-19 4l-5 6-9 14h-1v1h1l3-1 20-10 18-3m-9-20v1c0 3 1 5 4 6 4 1 7 4 10 7l3 4c1 2 1 0 1-1l-2-8v-3l1-4v-10c.5-9.1 3-18 7-26 0-1 0-2-1-1l-5 7c-4.2 7.2-9.2 13.9-15 20-2 2-3 5-3 8m188 63v-3l-1-1-1 1a62.7 62.7 0 0 1-24 17v1l2 1c5 3 10 6 15 11h4l6-5c3-3 3-7 2-10l-3-12m-160-27 1 1 1-1c4-5 10-9 16-12 4-1 7-3 10-6 1-3 4-4 7-3h2l1-3v-2l-4-3c-3-1-5-3-6-5-3-4-3-4-5 0v1l-11 12-5 4-6 7c-2 4-1 9-1 10m90-7-10 2a64.5 64.5 0 0 0-17 9v2l6 7 3-1 7-5c7-4 13-5 20-3a53 53 0 0 1 21 10v-2c-5-7-11-12-19-16-4-2-7-3-11-3m-18-32c0 9-2 16-5 23l-2 5 1 1 2-2 1-1c1-1 3-1 4 1l-1 3h-2l-5 3-5 6v3h1l1-1c8-6 16-10 25-12 2 0 2-1 2-3 1-7-1-12-6-17l-10-12-1-1v5m-3-1v-7h-3l-4 6c-3 4-7 8-12 10l-3 1c-3 2-6 5-7 8v3c3 3 6 6 7 10l3 4 4 2-1-5-2-1-2-1v-4h4l1 2 2 4v1l1-1c0-3 1-5-1-8h-1c-1-2-1-4 1-5l4-1 2 5-1 2-1 6h1l2-3c4-8 6-18 6-28m-129 81v-7l-1-2c-2-3-5-5-8-6h-2l-1 1v1c4 5 5 11 5 18 0 4-1 9-3 13l-4 7c-2 3-3 5-3 8-2 4-1 8 1 11 3 5 6 8 11 9 2 1 5 2 7 1h2v-1l-2-2c-6-4-9-10-9-17l2-9 3-9 2-16m71-86c1-3-1-9-4-13-3-5-5-9-6-14l-1-1-3 6c-4 10-6 21-6 32l1 3 1 5c-2 4-1 7 1 11h1l3-11-1-5-1-2c-1-1 0-3 1-4l4 2v3l-2 11-1 5c0 2 1 1 1 0l8-10 1-2c2-4 3-9 3-16m-13 62c0 4 2 7 5 10l5 3c1 1 2 1 2-1l8-10 5-6c3-2 5-5 6-8 1-2 1-2-1-3h-1c-2-1-2-2-2-3l1-3 2-10c-3 4-6 6-10 8l-7 3-8 7c-3 4-4 8-5 13m-2-9c2-1 3-3 2-6l-2-5-1-2c-3-3-7-4-11-2l-1 1-4-2c-1-2 0-4 2-4h3l6 2c2 0 1-2 1-2l-3-2h-11c-7 1-14 3-20 6l-18 8-1 1v1l5 1 20-1c6 0 11 1 16 3l7 3c4 2 9 1 10 0m123 48a77.7 77.7 0 0 1 33 6c2 1 1-1 1-1-2-3-5-5-8-6-5.7-3-11-6.7-16-11l-13-5c-7 0-13 2-19 5l-5 4c-2 2-3 4-3 7-1 4 0 5 4 4 9-2 17-3 26-3m-10 186 7-4c12-7 22-16 32-25l2-2v-2l-8-9h-2l-8 6-14 13c-4 5-8 8-14 10l-4 2v3l7 8h2m-146-164v14l2 1h1c5-2 9-6 11-11 2-7 3-13 2-20-1-2-1-5-3-7l-10-17a48.7 48.7 0 0 0-21-16l2 2c8 8 12 18 14 29 2 8 2 16 2 25m24 153-6-2c-4-2-8-4-11-8l-4-4-8-7-11-9c-1-2-2-2-3 0l-8 9-1 2 3 2c11 11 24 20 37 28 3 2 3 2 5 0l5-6 2-3v-2m109-225-11 1c-6 1-10 3-14 6-2 1-2 3-2 5l-1 7-9 15c-4 4-9 8-15 11l-4 3c-2 1-2 2 0 3l2 1c4 1 8 0 11-2l6-4 9-11 6-9c5-7 12-12 20-15 5-2 10-2 16-1l9 3 3 1h1v-1l-2-2-13-8-12-3m-136 65-1-17a48.9 48.9 0 0 0-18-32h-1v3c5 15 7 31 3 46l-1 8c0 3 0 5 2 7 3 4 7 7 12 8 1 0 2 0 2-2l1-2 1-19m46 33h-4c-2 0-3 0-2 3 2 8 6 13 13 17a36.6 36.6 0 0 0 21 4l13-1c6-1 13-2 19 0h2l-1-1-1-2c-5-5-11-9-18-11l-9-2-23-5c-3-2-7-2-10-2m15-20-12 4c-3 1-6 4-7 7-1 1-1 2 1 2l12 4 20 5 6 1c12 2 21 8 29 17l2 3h1v-1l-4-7-5-5c-5-4-8-9-11-15l-3-6c-3-6-8-9-15-10l-14 1m95-23h-11l-13 3-3 3-1 3c0 5 0 11 2 17 2 3 4 5 8 6h5l7-2c10-4 20-8 29-15l1-2c4-2 8-5 13-6h1l1-1-2-1-8-2c-9-2-18-3-29-3m-85-9 8-1c7-3 13-8 18-13 2-2 3-5 3-7 0-7-2-13-7-18s-11-8-18-9c-2-1-2 0-3 1-1 5-3 8-7 11l-5 5-7 11v5l2 5c3 7 9 10 16 10m-51 120c-3-1-7 1-8 2l-7 9-1 2c-2 3-4 5-8 6l-3 2c-2 1-2 1 0 3 6.6 4.8 13.3 9.4 20 14l4 2c4 2 8 5 11 9l3 3h1c3-5 7-9 11-12l6-5c5-4 9-8 11-14l10-13 6-7v-1l-26 1-25-1h-5m92 1-19-1h-3v1l2 2c5 5 9 10 13 17 3 6 8 12 14 16l7 6 7 8c2 4 2 4 4 1 3-6 8-10 14-12 9-4 16-10 23-16v-2l-4-2c-4-1-7-3-8-7l-1-2-7-9-3-1h-9l-18 1h-12m-28 95h1l9-10 13-12 18-13c2-1 2-1 0-2-5-3-8-7-10-12l-3-10c-2-4-5-7-9-9-6-3-10-7-13-12l-6-11h-2c-1 4-3 8-6 11-3 5-7 9-12 11-5 3-8 6-10 11l-3 8c-2 6-5 10-10 13h-1v2l20 14c4 2 7 5 10 9l11 11c0 1 1 2 3 1m135-337v-1l-2-5-24-41a135.7 135.7 0 0 0-27-31l-26-18-7-4-43-16-1 1c3 15 9 28 18 40 4 5 9 9 14 12l15 8 23 10a138.2 138.2 0 0 1 58 43l2 2m-142-115c0-1 0-2-1-1h-1l-26 9a147.8 147.8 0 0 0-43 24c-8 5-15 11-21 19l-5 5-10 14-18 32-5 11-1 2h1l2-2 12-13c10-9 21-17 32-23l26-12 20-10c8-4 15-9 22-15l6-8c6-10 9-21 10-32m-161 247 1 20c1.3 19.9 5.7 39.5 13 58 1 2 1 2 3 2l8-2c14-3 26-9 38-18l13-11 2-2c2-3 3-7 3-11l-1-2-5-1-3 1c-4 2-8 2-12 1-10-3-17-12-17-22 0-9 2-16 6-24l3-6c2-5 2-10 0-14l-2-4-2-2c0-1 0-2 2-2h7l3 2 1-1-1-3-1-3c0-2 1-3 3-3l4 1 21 10 3 2 3-1c5-7 14-9 21-6 1 1 2 1 1 2l-1 1c-2 2-3 5-3 9v7l-1 16-5 20c-2 9-7 15-15 19l-2 1-2 1v5c1 1 3-1 4-2l2-2 22-18 9-10a31 31 0 0 0 0-35c-4-6-5-13-5-20l1-1c0-2-1-2-2-2-4 2-8 1-12-1l-5-3-7-1-4 1h-14a57.5 57.5 0 0 1-17-6l-1-3 1-2 6-11 3-6c5-9 12-13 22-14h4l-1-4c-1-8 0-14 5-20l4-4a219 219 0 0 1 25-20c1-1 2 0 2 1l1 1c0 4 2 7 4 10l4 5c4 5 5 10 4 16l-3 12-1 3 1 1 1-1 8-6c2-2 3-2 5-1l5 3c2 1 5 3 6 6h3c3-4 7-6 11-9l5-4c4-2 7-5 9-8s3-3 5-1l17 22c3 5 5 11 4 18 0 1 0 2 2 2l9 3c8 4 14 10 18 18 2 1 2 3 3 5l1 7c1 1 0 2-2 1l-4-1c-7-3-14-3-22 0l-5 4c-8 5-15 11-22 18l-10 11-11 7-11 3-4 1c-2 0 0 1 0 1l14 1c8 1 16 0 24-3l11-4c1 0 2-1 1-3-1-4 1-9 3-13l8-6c5-3 10-4 16-3l11 1h6a55.2 55.2 0 0 0 30-20c1-1 1-3 3-3l1 4 4 13 1 5c1 7-1 13-6 17l-2 1c-1 1 0 2 1 2l4 2 2 1 9-2 2-1 3 1v3l-3 1h-2c-2-2-4-1-5-1-2 0-2 1-1 2l6 7c1 1 2 2 3 1l6-1 2-1c1 0 2 2 1 3 0 1-1 2-2 1h-6l-1 2 1 1 5 15c0 4 0 5-4 4-9-3-19-3-28-1-5 2-11 3-17 2-3-1-6 0-8 2l-5 3-9 4c-9 3-17-1-22-9l-2-4c-2-1-3-3-4-6-2-4-3-9-2-13 1-6-1-5-5-3l-3 1-15 5h-17l-13-2c-5-1-9 0-13 2l-5 3c-8 4.8-15.3 10.5-22 17v1l5 1 2-2 1-3c2-4 5-6 9-8l6-2 15-3c10 0 18 4 24 11l2 2 16 22c3 4 5 9 6 14l1 7c-1 2-2 2-3 1h-1c-8-4-16-5-24-3l-13 2c-7 0-14-1-21-4-10-5-18-12-20-25 0-1-1-2-2-1h-3l-12 4-7 5-8 8c-9 9-20 16-32 21l-9 4-11 6-5 3-2 4c0 3 1 6 5 5h1l21-1c11 0 21 1 31 3 9 1 19 1 28-1 8-2 17-4 26-4h53l8 1 19 3c7 1 14 2 20 1l26-3c12-1 23-1 35 1 7 2 7-2 8-4 7.8-17 14-34.8 18-53 5.3-25.3 6.7-51.3 4-77l-5-31c-4-15-9-30-16-43l-10-14c-9-10-19-19-31-27l-31-17-25-14c-8-5-16-10-22-17a83.8 83.8 0 0 1-24-38v-1h-1l-1 1c-3 13-9 23-18 33a256.3 256.3 0 0 1-44 32l-32 17c-13 7-24 16-34 26-7 7-13 15-17 23-8.8 19.5-15 40-19 61-2 13-2 25-2 41m341-17a290 290 0 0 1-19 100c-9 18.2-18.3 36.2-28 54a262.4 262.4 0 0 1-36 37c-15 11-32 21-49 28-11 4-22 7-34 9-8 1-16 1-23-1-16-3-32-9-46-16l-19-11a141.2 141.2 0 0 1-46-43c-6-8-12-17-16-26-6-13-13-26-18-40-5-13-8-27-11-41a302.4 302.4 0 0 1 0-94c3-14 6-29 11-42 8-27 21-52 39-74l12-15 11-13a167.4 167.4 0 0 1 41-34c14-7 28-13 44-16 9-2 18-1 28 1 14 3 27 8 40 14l14 10c8.2 6.4 16.2 13 24 20l25 31c18 22 31 47 41 74l8 32 4 22 3 34"/>
    <path fill="#9F432B" d="m288.2 402.2 1-2h-2s3-1 1 2"/>
    <path fill="#9D432C" d="M448 491.9c0 .4-.4 6.8-.3 13.3-6.8.5-5.7-13.3-5.3-15 .2-1.4-4.4 1.7-6.6 3.8.7 1.3 1.7 1 3 .5-.6 6.2 3.8 11.8 9 11.7.1 6.4.8 12.5 2.6 13 .2 0 .5-6.5.6-13.7 12.2-3.8 7.5-18.3 7.5-18.3-.2-.8-2 .3-6 3.9 1.6 1.7 2.4.7 3.6.3 1 1.9 1.4 10.5-5 13l.2-18-.4-.2c-1.8.2-5 3.4-7.5 6 1.4 2.3 3.1.3 4.5-.3m6 19 2.7 2.9 2.8-2.8-2.8-2.8-2.8 2.8Z"/>
  </g>
</symbol></svg>
