<svg version="1.1" id="Calque_1" xmlns="http://www.w3.org/2000/svg" xmlns:xlink="http://www.w3.org/1999/xlink" x="0px" y="0px"
	 viewBox="0 0 513 342.5" style="enable-background:new 0 0 513 342.5;" xml:space="preserve">
<path d="M513,277.3l-39.1-39.6l-39,39.6l39,39.8L513,277.3z M467.1,10.1c-2.3-8.5-20.9,3.8-61.1,40.2c16,17.9,24,7.7,37,2.9
	c10.2,19.9,14.2,109.2-52.9,136.2c1.7-90,2.6-186.3,2.6-186.3l-4-3.1c-18.4,2.5-51.2,35.4-76.4,63.2c13.8,23.1,31.6,2.3,45.5-3.4
	c0,3.8-3.2,70.2-1.8,137.8c-69.1,5.2-58-137.7-54-156c1.6-14.7-44.5,17.8-67.4,39.4c7.1,13.2,17.3,10.5,30,5.7
	c-4.7,64.2,39.8,122.5,91.5,121c2,66.1,8.6,130.3,27.5,134.8c2.7,0.6,4.7-67,6.2-142.1C514.5,161.1,467.1,10.1,467.1,10.1
	L467.1,10.1z"/>
<g>
	<path d="M234.8,107.1c0,29-16.1,51.1-48.3,66.5c16.2,5.6,29.5,14.3,39.9,25.9c10.3,11.7,15.5,25.8,15.5,42.3
		c0,28.4-10.6,50.7-31.9,67.1c-21.3,16.4-51.4,24.6-90.4,24.6c-31.9,0-58.4-7.2-79.6-21.7C18.9,297.4,6,276.3,1.2,248.5h61.2
		c5.9,28.1,25,42.1,57.2,42.1c18.9,0,33.9-4.1,45-12.4c11.1-8.3,16.6-20.2,16.6-35.9c0-14.2-5.5-25.1-16.4-32.8
		c-10.9-7.7-25-11.5-42.1-11.5H86.8v-46.1h31.5c18.3,0,32.2-4,41.7-12c9.5-8,14.2-18.5,14.2-31.5c0-12.4-4.4-22.2-13.3-29.2
		c-8.9-7.1-22.3-10.6-40.3-10.6c-13.6,0-25.2,3.8-34.8,11.5c-9.6,7.7-15.4,18.2-17.5,31.5H7.5c3.8-26,15.7-46.8,35.5-62.5
		c19.8-15.7,45.6-23.5,77.6-23.5c36.9,0,65.2,7.4,84.9,22.2C225,62.5,234.8,82.3,234.8,107.1z"/>
</g>
</svg>
