<svg version="1.1"
   xmlns="http://www.w3.org/2000/svg" xmlns:xlink="http://www.w3.org/1999/xlink"
   x="0px" y="0px" viewBox="0 0 500.1 401.7" style="enable-background:new 0 0 500.1 401.7;"
   xml:space="preserve">
<defs>
</defs>
<g id="XMLID_26_">
  <g id="XMLID_28_">
    <path id="XMLID_34_" class="st0" d="M156.5,256.9c-9.9-16.4-15.6-35.5-15.6-56c0-60.2,49-109.2,109.2-109.2
      c20.5,0,39.6,5.8,56,15.6l22.5-22.5C301.2,72.4,274,64,250.1,64C158.3,64,17.5,185.7,11.5,190.9L0,200.9l11.5,10
      c3.5,3,52.4,45.2,110.8,80.1L156.5,256.9z M130.3,136.9c-10.2,19.1-16.1,40.9-16.1,64c0,23.1,5.8,44.9,16.1,64
      c-38.1-23.5-72.1-49.9-89.3-64C58.3,186.8,92.2,160.4,130.3,136.9z"/>
    <path id="XMLID_33_" class="st0" d="M250.1,253.8c29.3,0,53-23.7,53-53c0-4.7-0.8-9.1-1.9-13.5l-64.5,64.5
      C240.9,253,245.4,253.8,250.1,253.8z"/>
    <path id="XMLID_30_" class="st0" d="M488.6,190.9c-3.5-3-52.4-45.2-110.8-80.1l-34.1,34.1c9.9,16.4,15.6,35.5,15.6,56
      c0,60.2-49,109.2-109.2,109.2c-20.5,0-39.6-5.8-56-15.6L171.5,317c27.4,12.3,54.6,20.7,78.5,20.7c91.7,0,232.6-121.6,238.5-126.8
      l11.5-10L488.6,190.9z M369.8,264.9c10.2-19.1,16.1-40.9,16.1-64c0-23.1-5.8-44.9-16.1-64c38.1,23.5,72.1,49.9,89.4,64
      C441.8,214.9,407.9,241.4,369.8,264.9z"/>
    <path id="XMLID_29_" class="st0" d="M250.1,147.9c-29.3,0-53,23.7-53,53c0,4.7,0.8,9.1,1.9,13.5l64.5-64.5
      C259.2,148.7,254.7,147.9,250.1,147.9z"/>
  </g>
  <path id="XMLID_27_" class="st0" d="M62.5,401.7c-3.4,0-6.8-1.3-9.4-3.9c-5.2-5.2-5.2-13.6,0-18.8L428.2,3.9
    c5.2-5.2,13.6-5.2,18.8,0s5.2,13.6,0,18.8L71.9,397.8C69.3,400.4,65.9,401.7,62.5,401.7z"/>
</g>
</svg>
