<?xml version="1.0" encoding="UTF-8"?>
<svg viewBox="0 0 14 16" version="1.1" xmlns="http://www.w3.org/2000/svg" xmlns:xlink="http://www.w3.org/1999/xlink">
  <g id="UI-design" stroke="none" stroke-width="1" fill="none" fill-rule="evenodd">
    <g id="D_Dashboard-connect-as-quick-login" transform="translate(-1078.000000, -197.000000)" fill="#504747">
      <g id="Group-7" transform="translate(1078.000000, 197.000000)">
        <g id="Reset">
          <path d="M10.4293647,2.05204706 C13.1230118,3.75369412 14.3324235,6.8944 13.4985412,9.89957647 C12.6514824,12.9555765 10.1583059,14.9772235 7.14748235,15.0496941 L6.93477647,15.0591059 L6.92254118,15.0591059 C3.8336,15.0129882 1.09383529,12.9047529 0.258070588,9.93063529 C-0.577694118,6.95745882 0.663717647,3.73016471 3.27642353,2.08310588 C3.77054118,1.85910588 4.28630588,2.02192941 4.53383529,2.43322353 C4.77854118,2.84545882 4.67877647,3.37722353 4.30136471,3.67181176 C2.29854118,4.87745882 1.35548235,7.23604706 1.96536471,9.4384 C2.57524706,11.6398118 4.59595294,13.1786353 6.88112941,13.1786353 C9.16630588,13.1786353 11.1879529,11.6398118 11.7968941,9.4384 C12.4077176,7.23698824 11.4646588,4.87745882 9.50512941,3.70192941 C9.08442353,3.37722353 8.98371765,2.84545882 9.22936471,2.43416471 C9.47783529,2.02287059 9.99454118,1.86098824 10.4293647,2.05204706 Z M6.92865882,9.00762353 C6.40442353,9.00762353 5.97807059,8.58127059 5.97807059,8.05703529 L5.97807059,1.34644706 C6.04677647,0.818447059 6.45148235,0.464564706 6.92395294,0.464564706 C7.39642353,0.464564706 7.80112941,0.818447059 7.86607059,1.28621176 L7.86983529,8.06644706 C7.86042353,8.58785882 7.45007059,8.99821176 6.93712941,9.00762353 L6.93242353,9.00762353 L6.92865882,9.00762353 Z" id="Fill-5"></path>
        </g>
      </g>
    </g>
  </g>
</svg>
