<svg xmlns="http://www.w3.org/2000/svg" viewBox="0 0 53.09 85.48">
  <defs>
    <style>.cls-1,.cls-3{fill:#000;}.cls-2{fill:#000;}.cls-3{stroke:#000;stroke-miterlimit:10;stroke-width:0.94px;}</style>
  </defs>
  <g id="Layer_2" data-name="Layer 2">
    <g id="Incentive">
      <path class="cls-1" d="M16.42,61.54a11,11,0,1,1,11-11A11.06,11.06,0,0,1,16.42,61.54Zm0-19.11a8.06,8.06,0,1,0,8.06,8.06A8.07,8.07,0,0,0,16.42,42.44Z"/>
      <path class="cls-1" d="M31.35,85.48A1.49,1.49,0,0,1,29.86,84c0-9-1-16.47-13.44-16.47S3,75,3,84a1.49,1.49,0,1,1-3,0c0-9.41,1.27-19.46,16.42-19.46S32.85,74.58,32.85,84A1.49,1.49,0,0,1,31.35,85.48Z"/>
      <path class="cls-2" d="M36.43,43.61a1.24,1.24,0,0,1-1.23-1.24V31.61H19.29a8.1,8.1,0,0,1-8.09-8.09V8.09A8.1,8.1,0,0,1,19.29,0H45a8.1,8.1,0,0,1,8.09,8.09V23.52a8.07,8.07,0,0,1-2.61,5.9l-.08.09L37.32,43.23A1.24,1.24,0,0,1,36.43,43.61ZM19.29,2.47a5.63,5.63,0,0,0-5.62,5.62V23.52a5.63,5.63,0,0,0,5.62,5.62H36.43a1.23,1.23,0,0,1,1.23,1.23v8.91L48.45,28a1.2,1.2,0,0,1,.22-.25,5.61,5.61,0,0,0,2-4.21V8.09A5.63,5.63,0,0,0,45,2.47Z"/>
      <path class="cls-1" d="M46.62,11.54a4.79,4.79,0,0,1-1.44,3.29L43.3,17a1.82,1.82,0,0,0-.54,1.39v1.12H39.64V18a2.56,2.56,0,0,1,.78-2.15l1.78-1.93a3.63,3.63,0,0,0,1.1-2.37c0-1-.8-1.88-2.29-1.88s-2.63.93-2.63,3H35.23c0-3.19,2.19-5.19,5.78-5.19S46.62,9.23,46.62,11.54Zm-7.1,12.51h3.29V20.83H39.52Z"/>
      <path class="cls-3" d="M24.63,23.55A7,7,0,0,1,21,10.63a.54.54,0,0,1,.55.92,5.89,5.89,0,1,0,6.06,0,.54.54,0,0,1,.55-.92,7,7,0,0,1-3.58,12.91Z"/>
      <path class="cls-3" d="M24.63,17.12a.54.54,0,0,1-.54-.54V9.45a.54.54,0,0,1,1.07,0v7.14A.54.54,0,0,1,24.63,17.12Z"/>
    </g>
  </g>
</svg>
