<svg xmlns="http://www.w3.org/2000/svg" viewBox="0 0 500 410.9"><path d="M403.1 321.7c-.6-63.1 32.7-92.3 32.7-92.3-38.8 20.2-75.1 72-75.1 72 17.4-82.1 66.9-86.9 66.9-86.9-44.6-1.3-86.7 47-86.7 47 12.2-58.6 67-61.1 67-61.1-28.5-10.2-47.6 4.1-47.6 4.1 30.5-34.6 66.8-8.1 66.8-8.1-9.2-18.9-54.2-26.2-54.2-26.2 71-4 86.5 37.8 86.5 37.8.1 0 .2-.1.3-.1.2-2.6.3-5.2.4-7.9-14-23.9-37.3-36.6-47.9-41.4-18.4-7.8-68.5.9-67.7 60.7 0 0-18.6-63.3 41-71.1 0 0-29.6-2-54 18.9 0 0 11.9-34.3 49.2-29.1 0 0-36.4-14.3-51.7 15.6 0 0 1.2-31.9 38.5-29.5 13.5.8 25.2 6.3 34.1 12.1-5.7-7.6-30.7-19.9-30.7-19.9s48.7 13.2 50.2 36.4c18.4 9.2 30.4 19.6 38.1 29-.7-8.9-8.9-62.4-104.7-80.5 0 0 44.7-14.7 87.1 21.2 0 0-22.1-43.3-75.9-64.1 0 0 54.1-9.6 86.4 62.6 0 0-9.8-52.9-47.9-71.4 0 0 49.6 10.1 58.5 65.9 0 0 2.1-46.8 16.3-63.8 0 0-2 54.5 1 64.2 0 .1.1.1.1.1C492.7 60.2 500 0 500 0 346.1 64.2 182.4 105.8 0 127.1v67.1c8.4-1 16.8-2 25.2-3.1v200.2c.1 0 .1.2.2.7 129.8-1.2 120.2-78.1 179.9-123.4 16.2-12.3 32.4-15.6 49.4-14.9 29.2 1.2 50 25.3 48.1 51.7-2.2 31.1-25.6 42.3-43.1 40.8-36-3.1-42.7-46-16.5-58.8 4-1.9 7.3-1.6 7.7-1.7 2.7 0 4.2.8 4.5 1.3.3.5-.5 1.2-1.6 1.5-1.6.4-5.7.8-9.7 3.3-18.5 11.7-11 40.9 6.9 46.1 24.5 7.2 45.7-7.4 45.4-37-.2-20.2-14.3-32.8-28-37.4-31.3-10.5-76.7 7.2-82 58.3-5.5 52.3 33.1 89.4 95.5 89.1 67.7-.4 146.1-48.6 173.9-171.4-26.1 17.5-52.7 82.2-52.7 82.2zM71.7 363.3V184.4c7.2-1.1 14.3-2.2 21.5-3.3v174.7c-6.8 3.2-14.1 5.7-21.5 7.5zm74.5-62.4c-6.4 8.9-12.9 18-19.8 26.2V175.2c7.2-1.3 14.4-2.6 21.5-4v127.2c-.6.9-1.2 1.7-1.7 2.5zm46.1-51.4c-3.9 2.7-7.6 5.6-11.1 8.8v-93.6c7.2-1.5 14.4-3 21.5-4.6v84c-3.4 1.2-6.9 3-10.4 5.4z"/></svg>
