<svg xmlns="http://www.w3.org/2000/svg" viewBox="0 0 24.77 31.75"><g id="Layer_2" data-name="Layer 2"><g id="Incentive"><path d="M22.87,2V29.72h-21V2h21m1.91-2H0V31.75H24.77V0Z"/><path fill="#14912f" d="M17.35,26.39a.55.55,0,0,1-.39-.16L15.5,24.76a.55.55,0,0,1,.78-.78L17.35,25l2.82-2.82A.55.55,0,1,1,21,23l-3.21,3.21A.55.55,0,0,1,17.35,26.39Z"/><path fill="#4f4747" d="M21,7.29H4.45a1,1,0,1,1,0-1.91H21a1,1,0,1,1,0,1.91Z"/><path fill="#4f4747" d="M21,11.1H4.45a1,1,0,0,1,0-1.91H21a1,1,0,0,1,0,1.91Z"/><path fill="#4f4747" d="M21,14.92H4.45a1,1,0,0,1,0-1.91H21a1,1,0,0,1,0,1.91Z"/><path fill="#4f4747" d="M21,18.73H4.45a1,1,0,0,1,0-1.91H21a1,1,0,0,1,0,1.91Z"/></g></g></svg>
