<svg version="1.1" id="Calque_1" xmlns="http://www.w3.org/2000/svg" xmlns:xlink="http://www.w3.org/1999/xlink" x="0px" y="0px"
	 viewBox="0 0 47 47" enable-background="new 0 0 47 47" xml:space="preserve">
<path d="M19.795,22.049c0,2.44-1.979,4.422-4.42,4.422s-4.421-1.981-4.421-4.422c0-2.441,1.979-4.42,4.421-4.42
	S19.795,19.607,19.795,22.049"/>
<path d="M20.894,32.71c0,6.478-5.519,12.593-5.519,12.593S9.858,39.188,9.858,32.71c0-3.047,2.47-5.518,5.517-5.518
	S20.894,29.663,20.894,32.71"/>
<path d="M28.683,1.762c-5.52,0-9.992,4.474-9.992,9.992s4.473,9.992,9.992,9.992c5.519,0,9.991-4.474,9.991-9.992
	S34.201,1.762,28.683,1.762 M27.978,17.92c-1.058,0-1.832-0.615-1.832-1.797c0-1.604,1.339-4.546,1.339-5.426
	c0-0.423-0.212-0.564-1.092-0.6l0.177-0.635l3.979-0.068c-0.157,0.527-1.866,6.271-1.866,6.887c0,0.37,0.105,0.512,0.299,0.512
	c0.583,0,1.322-1.463,1.551-1.832l0.563,0.316C30.549,16.529,29.492,17.92,27.978,17.92 M29.81,8.302
	c-0.704,0-1.409-0.583-1.409-1.356c0-0.776,0.705-1.357,1.409-1.357c0.705,0,1.409,0.581,1.409,1.357
	C31.219,7.719,30.515,8.302,29.81,8.302"/>
</svg>
