<svg version="1.1"
   xmlns="http://www.w3.org/2000/svg" xmlns:xlink="http://www.w3.org/1999/xlink"
   x="0px" y="0px" viewBox="0 0 500 500" enable-background="new 0 0 500 500" xml:space="preserve">
<defs>
</defs>
<g>
  <path d="M420.2,500H79.8C35.8,500,0,464.2,0,420.2V79.8C0,35.8,35.8,0,79.8,0h340.4c44,0,79.8,35.8,79.8,79.8v340.4
    C500,464.2,464.2,500,420.2,500z M79.8,31.9c-26.4,0-47.9,21.5-47.9,47.9v340.4c0,26.4,21.5,47.9,47.9,47.9h340.4
    c26.4,0,47.9-21.5,47.9-47.9V79.8c0-26.4-21.5-47.9-47.9-47.9H79.8z"/>
  <path d="M356.4,207.4h-63.8v-63.8c0-23.5-19.1-42.6-42.6-42.6c-23.5,0-42.6,19.1-42.6,42.6v63.8h-63.8
    c-23.5,0-42.6,19.1-42.6,42.6c0,23.5,19.1,42.6,42.6,42.6h63.8v63.8c0,23.5,19.1,42.6,42.6,42.6c23.5,0,42.6-19.1,42.6-42.6v-63.8
    h63.8c23.5,0,42.6-19.1,42.6-42.6C398.9,226.5,379.9,207.4,356.4,207.4z"/>
</g>
</svg>
