<svg version="1.1" id="Calque_1" xmlns="http://www.w3.org/2000/svg" xmlns:xlink="http://www.w3.org/1999/xlink" x="0px" y="0px"
	 viewBox="0 0 500 500" style="enable-background:new 0 0 500 500;" xml:space="preserve">
<path id="Shape-path-Copy-2_1_" d="M158.9,397.6C117.9,360.4,83,326.3,60,300C3.2,233.3-15,160.6,12.8,98.8
	c22.3-48.9,71-79.7,125.9-79.7c26,0,51.4,7.7,75.4,21.6c12.6,7.3,24.7,16.3,35.8,26.5c11.5-10.8,23.1-19.8,35.5-27.1
	c23.3-13.8,48.5-21.1,76.1-21.1c54.9,0,103.6,30.8,125.8,79.6c27.9,62.2,9.3,137-47.2,201.4c-13.4,15.2-30.8,33.2-51.9,53.4
	c-5.4,5.2-11,10.5-16.8,16c-19.9,18.7-40.9,37.6-63.2,57.2c-7.2,6.3-12.8,11.3-21.3,18.7c-4.2,3.6-5,4.3-6.3,5.4
	c-0.7,0.6-1.3,1.1-1.7,1.5c-0.1,0.1-9.7,9.6-28.8,28.7l-27.8-27.8C212.4,445.4,184.7,421.2,158.9,397.6z"/>
</svg>
