<?xml version="1.0" encoding="UTF-8"?>
<svg viewBox="0 0 30 21" version="1.1" xmlns="http://www.w3.org/2000/svg" xmlns:xlink="http://www.w3.org/1999/xlink">
    <!-- Generator: Sketch 52.3 (67297) - http://www.bohemiancoding.com/sketch -->
    <title>Mail Icon</title>
    <desc>Created with Sketch.</desc>
    <g id="Symbols" stroke="none" stroke-width="1" fill="none" fill-rule="evenodd">
        <g id="Footer" transform="translate(-855.000000, -80.000000)" fill="#FFFFFF" fill-rule="nonzero">
            <g id="Mail-Icon" transform="translate(855.000000, 80.000000)">
                <path d="M26.9183049,8.27839743e-16 L3.08169513,8.27839743e-16 C1.38068793,0.00224619775 0.00232992216,1.3310737 0,2.9709562 L0,18.0290438 C0.00232992216,19.6689263 1.38068793,20.9977538 3.08169513,21 L26.9183049,21 C28.6193121,20.9977538 29.9976701,19.6689263 30,18.0290438 L30,2.97153874 C29.9980029,1.33142875 28.6195476,0.00224691724 26.9183049,8.27839743e-16 Z M19.4007815,11.0595301 L28.5854415,2.20782823 C28.705797,2.44577694 28.7689957,2.7068106 28.7703432,2.97153874 L28.7703432,18.0290438 C28.7685121,18.3055536 28.6991655,18.5777618 28.5679181,18.8236289 L19.4007815,11.0595301 Z M26.9183049,1.18896502 C27.1931955,1.19055956 27.4641755,1.25188783 27.711086,1.36838747 L18.1064695,10.6267025 C18.0777596,10.6437936 18.0506651,10.6632868 18.0254995,10.6849566 C18.0134144,10.698355 18.0097889,10.7146661 17.9995166,10.7286471 L15,13.6203778 L2.28891395,1.36838747 C2.5358735,1.25208925 2.80685116,1.19096063 3.08169513,1.18954756 L26.9183049,1.18954756 L26.9183049,1.18896502 Z M1.43026909,18.8148908 C1.30184122,18.5713194 1.23398572,18.3022714 1.2320738,18.0290438 L1.2320738,2.97153874 C1.23342128,2.7068106 1.29662006,2.44577694 1.41697551,2.20782823 L10.5974057,11.0577825 L1.43026909,18.8148908 Z M3.08109088,19.8104524 C2.81678756,19.8095496 2.55581813,19.7535078 2.31610538,19.646176 L11.4699484,11.8983883 L14.9993957,15.301007 L18.526426,11.9007185 L27.6742266,19.6485062 C27.4367696,19.7532565 27.1788345,19.8078757 26.9177006,19.8087048 L3.08169513,19.8087048 L3.08109088,19.8104524 Z" id="Shape"></path>
            </g>
        </g>
    </g>
</svg>
