<svg version="1.1" id="Calque_1" xmlns="http://www.w3.org/2000/svg" xmlns:xlink="http://www.w3.org/1999/xlink" x="0px" y="0px"
	 viewBox="0 0 500 500" style="enable-background:new 0 0 500 500;" xml:space="preserve">
<g id="Immerssive">
	<g id="Home-page-XL-NEW" transform="translate(-204.000000, -13.000000)">
		<path id="Path" d="M631.3,320.7L631.3,320.7c3.3-10,10.4-17.3,25.5-28.9c1.1-0.8,2.1-1.6,4.1-3.1c17.1-13.1,23.1-19.6,23.1-25.6
			c0-6-5.9-12.5-23.1-25.6c-1.7-1.3-2.6-2-3.5-2.7c-15.6-12-22.8-19.3-26.1-29.5c-3.6-11.1-1.9-20.8,4.8-43.4l0.1-0.3
			c6.2-21,7.3-29.3,4-33.8c-3.4-4.6-11.7-6.2-33.5-6.7l-0.1,0c-24.1-0.6-33.6-1.9-43-8.8c-9.3-6.8-13.5-15.4-21.4-37.6L542,74
			c-7.2-20.5-11.4-28-17-29.8c-5.1-1.7-12.5,1.8-30.6,14.3c-1.6,1.1-2.3,1.6-3.2,2.2c-16.4,11.2-26.1,16-37.2,16
			c-11.2,0-20.8-4.8-37.4-16.1c-0.8-0.6-1.5-1-2.9-2c-18.1-12.5-25.5-16-30.7-14.3c-5.5,1.8-9.7,9.3-16.9,29.8l-0.3,0.7
			c-7.8,22.1-12,30.7-21.2,37.5c-9.5,6.9-19,8.2-42.9,8.9l-0.1,0c-21.9,0.6-30.2,2.2-33.5,6.9c-3.3,4.5-2.2,12.8,4,33.7
			c0.1,0.4,0.1,0.4,0.2,0.7c6.6,22.1,8.2,32,4.7,43.2c-3.3,10-10.4,17.2-25.5,28.8c-1.1,0.8-2.1,1.6-4.1,3.1
			C230,250.6,224,257.1,224,263.1c0,6,6,12.5,23.1,25.6c2,1.6,3,2.3,4.1,3.1c15.1,11.6,22.3,18.9,25.5,28.9
			c3.6,11.1,1.9,20.8-4.8,43.4l-0.1,0.3c-6.2,21-7.3,29.3-4,33.8c3.4,4.6,11.7,6.2,33.5,6.7l0.1,0c24.1,0.6,33.6,1.9,43,8.8
			c9.4,6.8,13.6,15.4,21.4,37.8l0.2,0.5c7.2,20.5,11.4,28,16.9,29.8c5.1,1.7,12.6-1.8,30.7-14.3c1.5-1,2.1-1.4,2.9-2
			c16.6-11.3,26.2-16.1,37.4-16.1c11.2,0,20.8,4.8,37.4,16.1c0.8,0.6,1.5,1,2.9,2c18.1,12.5,25.5,16,30.7,14.3
			c5.5-1.8,9.7-9.3,16.9-29.8l0.3-0.7c7.8-22.1,12-30.7,21.3-37.5c9.4-6.8,18.9-8.1,42.8-8.7l0.2,0c21.8-0.5,30.2-2.2,33.6-6.8
			c3.3-4.5,2.2-12.8-4-33.7c-0.1-0.4-0.1-0.4-0.2-0.7C629.4,341.7,627.7,331.8,631.3,320.7z M655.1,358.1c0.1,0.4,0.1,0.4,0.2,0.7
			c8.3,28.1,9.7,39.2,1,51.2c-8.8,12.1-20.1,14.3-49.3,15.1l-0.2,0c-19.2,0.5-27,1.5-31.6,4.9c-4.5,3.3-7.9,10.3-14.2,28l-0.3,0.7
			c-9.6,27.3-15.3,37.5-29.6,42.2c-14,4.6-23.9-0.1-48.2-16.8c-1.4-1-2.1-1.4-2.9-2c-13.2-9-20.5-12.6-26.2-12.6s-13,3.6-26.2,12.6
			c-0.8,0.6-1.4,1-2.9,2c-24.3,16.7-34.2,21.4-48.2,16.8c-14.3-4.6-20-14.8-29.6-42.2l-0.2-0.5c-6.3-17.8-9.7-24.9-14.3-28.2
			c-4.7-3.4-12.4-4.5-31.7-5l-0.1,0c-29.1-0.7-40.3-2.9-49.1-14.9c-8.7-12.1-7.3-23.2,1-51.3l0.1-0.3c5.4-18.2,6.7-26,5-31.5
			c-1.5-4.7-6.9-10.1-18.7-19.2c-1-0.8-2-1.5-4-3.1c-22.8-17.4-31-26.3-31-41.5c0-15.2,8.2-24.1,31-41.5c2-1.6,3-2.3,4-3.1
			c11.8-9.1,17.2-14.5,18.7-19.1c1.8-5.6,0.4-13.6-4.8-31.3c-0.1-0.4-0.1-0.4-0.2-0.7c-8.3-28.1-9.7-39.2-1-51.1
			c8.7-12.2,19.9-14.4,49.2-15.1c19.3-0.5,27-1.6,31.7-5c4.5-3.3,7.9-10.3,14.2-28l0.3-0.7c9.6-27.3,15.3-37.5,29.6-42.2
			c14-4.6,23.9,0.1,48.2,16.8c1.5,1,2.1,1.4,2.9,2c13.2,9,20.5,12.6,26.2,12.6c5.6,0,13-3.6,26-12.5c0.9-0.6,1.6-1.1,3.1-2.1
			c24.4-16.8,34.2-21.4,48.1-16.8c14.4,4.6,20.1,14.9,29.7,42.2l0.2,0.7c6.2,17.7,9.7,24.7,14.3,28.1c4.7,3.4,12.4,4.5,31.7,5l0.1,0
			c29.1,0.7,40.3,2.9,49.1,14.9c8.7,12.1,7.3,23.2-1,51.3l-0.1,0.3c-5.4,18.2-6.7,26-4.9,31.6c1.6,4.8,7,10.3,19.3,19.8
			c0.9,0.7,1.7,1.3,3.4,2.6c22.8,17.5,31,26.3,31,41.5c0,15.2-8.2,24.1-31,41.5c-2,1.6-3,2.3-4,3.1c-11.8,9.1-17.2,14.5-18.7,19.2
			C648.5,332.5,649.9,340.4,655.1,358.1z M469.6,307H428l-6.4-182.4h55.2L469.6,307z M474.8,339.4v52.8h-53.6v-52.8H474.8z"/>
	</g>
</g>
</svg>
