<svg version="1.1"
   xmlns="http://www.w3.org/2000/svg" xmlns:xlink="http://www.w3.org/1999/xlink"
   x="0px" y="0px" viewBox="0 0 500 500" enable-background="new 0 0 500 500" xml:space="preserve">
<defs>
</defs>
<path d="M202.7,500c-27.7,0-54.2-48.7-59.3-58.4c-15.7-30.4-54.7-69.3-85.1-85c-24-12.4-51.7-32.5-57.3-51.8
  c-2.5-8.5-0.4-14.9,1.8-18.7c5.1-8.9,15.7-13.4,31.5-13.4c17.3,0,40.4,5.2,63.4,14.4l30.4,12.1c11-18.2,26.3-37.5,44.2-55.4
  l43.8-43.8L71.4,126.2c-14.6-7.4-25.5-20.3-30-35.3c-4.2-14-2.6-28.6,4.5-41.2c10.5-18.6,32.5-30.6,55.9-30.6
  c8.4,0,16.5,1.5,24.1,4.5l191.8,74.8l35.7-35.7C392.1,24.1,433.8,0,462.2,0c14.1,0,22.7,5.7,27.4,10.4c28.8,28.8-7,90.9-52.4,136.3
  l-35.7,35.7l74.8,191.8c11.5,29.4-0.2,65.3-26.1,80c-7.8,4.4-16.7,6.8-25.7,6.8l0,0c-21.2,0-40.7-12.4-50.8-32.3l-73.7-144.8
  l-43.8,43.8c-17.8,17.8-37.1,33.2-55.4,44.2l12.1,30.4c3.2,7.9,29.9,78.1,0.9,94.9C210.6,499,206.8,500,202.7,500z M33.4,302.3
  c5.9,6.9,18.7,17.6,38.6,27.9c36.1,18.7,79.1,61.6,97.8,97.8c10.3,20,21.1,32.8,27.9,38.7c0.2-10.1-2.7-29.4-12.3-53.5L163.6,358
  l12-6.1c18.9-9.6,40.1-25.7,59.7-45.3l72.7-72.7l92.2,181.2c5,9.8,14.6,16.1,24.4,16.1l0,0c3.9,0,7.6-1,11-2.9
  c13.3-7.6,19.3-27.4,13.1-43.4l-81.9-209.8l49.4-49.4c47.5-47.5,59.6-87.3,52.4-94.4c-1.4-1.4-4.3-1.7-6.5-1.7
  c-16.3,0-50.7,16.9-87.9,54.1l-49.4,49.4L115.1,51.3c-15.5-6-36.2,0.4-43.4,13.1c-3.1,5.4-3.8,11.8-1.9,18
  c2.2,7.3,7.7,13.6,15.1,17.4L266.1,192l-72.7,72.7c-19.7,19.7-35.7,40.9-45.3,59.7l-6.1,12.1l-55.1-21.9
  C67,306.7,46.3,301.9,33.4,302.3z"/>
</svg>
