<svg version="1.1" id="Calque_1" xmlns="http://www.w3.org/2000/svg" xmlns:xlink="http://www.w3.org/1999/xlink" x="0px" y="0px"
	 viewBox="0 0 500 333.3" style="enable-background:new 0 0 500 333.3;" xml:space="preserve">
<path d="M500,269.9l-38.1-38.5l-38.1,38.5l38.1,38.8L500,269.9z M455.2,9.9c-2.3-8.2-20.4,3.7-59.6,39.1
	c15.6,17.4,23.4,7.5,36.1,2.8c9.9,19.4,13.9,106.3-51.6,132.5C381.7,96.8,382.6,3,382.6,3l-3.8-3c-18,2.4-50,34.5-74.5,61.5
	c13.5,22.5,30.9,2.2,44.4-3.3c0,3.7-3.2,68.3-1.8,134.1c-67.4,5.1-56.5-134-52.6-151.8c1.5-14.3-43.4,17.3-65.8,38.3
	c6.9,12.9,16.9,10.2,29.3,5.5c-4.5,62.5,38.8,119.2,89.3,117.8c1.9,64.4,8.4,126.8,26.8,131.2c2.6,0.6,4.6-65.2,6-138.3
	C501.5,156.8,455.2,9.9,455.2,9.9z"/>
<g>
	<path d="M206.4,139.3v73.6h60.7v45.2h-60.7v61.2h-58.5v-61.2H0.3v-45.2l125-191h63.8l-123.6,191h82.4v-73.6H206.4z"/>
</g>
</svg>
