<svg version="1.1" id="Calque_1" xmlns="http://www.w3.org/2000/svg" xmlns:xlink="http://www.w3.org/1999/xlink" x="0px" y="0px"
	 viewBox="0 0 500 500" style="enable-background:new 0 0 500 500;" xml:space="preserve">
<g id="Page-1">
	<g id="Group-6" transform="translate(0.000000, -1.000000)">
		<path id="Fill-1" d="M344.4,168.4c0,37.6-23.7,65.9-55.2,65.9c-30.3,0-33.9-18.3-33.9-23c0-2.3,0.6-5.6,2-8.9
			c3.9,6.1,10.8,10.2,18.6,10.2c12.2,0,22.2-9.9,22.2-22.2c0-12.2-9.9-22.2-22.2-22.2c-0.4,0-0.8,0-1.2,0
			c-20.7,0.5-33.8,13.9-39.1,28.2v-56.4c5.4,14.3,18.4,27.7,39.1,28.2c0.4,0,0.8,0,1.2,0c12.2,0,22.2-9.9,22.2-22.2
			c0-12.2-9.9-22.2-22.2-22.2c-7.8,0-14.7,4.1-18.6,10.2c-1.5-3.3-2-6.6-2-8.9c0-4.7,3.6-23,33.9-23
			C320.7,102.4,344.4,130.7,344.4,168.4L344.4,168.4z M289.2,80c-31.5,0-47.5,15.4-53.5,31V80h-46.2c-41.6,0-56.3,26.9-56.3,45.4
			c0,18.2,14,42.3,41.9,43c0.4,0,0.8,0,1.2,0c12.2,0,22.2-9.9,22.2-22.2c0-12.2-9.9-22.2-22.2-22.2c-7.8,0-14.7,4.1-18.6,10.2
			c-1.5-3.3-2-6.6-2-8.9c0-4.7,3.6-23,33.9-23l23.8,0.1v337.4h68.8v-22.6h-46.4v-22.4h46.4v-22.6h-46.4V225.8
			c6,15.5,22,30.9,53.5,30.9c41.6,0,77.6-35.7,77.6-88.4v-0.1C366.8,115.7,330.8,80,289.2,80z"/>
		<g id="Group-5" transform="translate(0.000000, 0.286800)">
			<g id="Clip-4">
			</g>
			<defs>
				<filter id="Adobe_OpacityMaskFilter" filterUnits="userSpaceOnUse" x="0" y="0.4" width="500" height="500">
					<feColorMatrix  type="matrix" values="1 0 0 0 0  0 1 0 0 0  0 0 1 0 0  0 0 0 1 0"/>
				</filter>
			</defs>
			<mask maskUnits="userSpaceOnUse" x="0" y="0.4" width="500" height="500" id="mask-2_1_">
				<g class="st0">
					<polygon id="path-1_1_" class="st1" points="0,0.4 500,0.4 500,500.4 0,500.4 					"/>
				</g>
			</mask>
			<path id="Fill-3" class="st2" d="M250,477.7c-125.3,0-227.3-102-227.3-227.3C22.7,125,124.7,23.1,250,23.1
				c125.3,0,227.3,102,227.3,227.3C477.3,375.7,375.3,477.7,250,477.7 M426.8,73.6C379.6,26.4,316.8,0.4,250,0.4
				c-66.8,0-129.6,26-176.8,73.2C26,120.8,0,183.6,0,250.4c0,66.8,26,129.6,73.2,176.8c47.2,47.2,110,73.2,176.8,73.2
				c66.8,0,129.6-26,176.8-73.2c47.2-47.2,73.2-110,73.2-176.8C500,183.6,474,120.8,426.8,73.6"/>
		</g>
	</g>
</g>
</svg>
