<svg version="1.1" id="Calque_1" xmlns="http://www.w3.org/2000/svg" xmlns:xlink="http://www.w3.org/1999/xlink" x="0px" y="0px"
	 viewBox="0 0 500 298" style="enable-background:new 0 0 500 298;" xml:space="preserve">
<g>
	<polyline class="st0" points="500,240.9 465.5,206.5 431,240.9 465.5,275.5 	"/>
	<path class="st0" d="M459.5,8.9c-2-7.4-18.4,3.3-53.9,34.9c14.2,15.6,21.2,6.7,32.6,2.5c9.1,17.3,12.6,94.9-46.6,118.3
		C393.1,86.4,394,2.7,394,2.7c0-2.2-2-2.8-3.6-2.7c-16.2,2.2-45.1,30.8-67.4,54.9c12.3,20.2,27.9,2,40.1-2.9c0,3.3-2.8,61-1.6,119.7
		c-61,4.6-51.1-119.5-47.6-135.5c1.5-12.8-39.2,15.4-59.5,34.2c6.3,11.5,15.3,9.1,26.5,4.9c-4.1,55.8,35.1,106.4,80.9,105.2
		c1.7,57.4,7.6,113.2,24.2,117.1c2.3,0.5,4.1-58.2,5.5-123.5C501.3,140,459.5,8.9,459.5,8.9"/>
</g>
<g>
	<path d="M153.6,200.6V22.8H204v177.4c0,26.2-8.4,46.5-25.2,60.9c-16.8,14.4-40.6,21.6-71.4,21.6c-36.4,0-66.7-10.9-90.8-32.8
		l34-31.7c14.8,17.3,33.6,25.9,56.5,25.9c13.2,0,24.3-3.8,33.2-11.3C149.2,225.3,153.6,214.6,153.6,200.6z"/>
</g>
</svg>
