<svg version="1.1" id="Calque_1" xmlns="http://www.w3.org/2000/svg" xmlns:xlink="http://www.w3.org/1999/xlink" x="0px" y="0px"
	 viewBox="0 0 500 500" style="enable-background:new 0 0 500 500;" xml:space="preserve">
<path d="M249.9,240c-66.1,0-120-53.8-120-120C130,53.8,183.8,0,249.9,0s120,53.8,120,120C370,186.2,316.1,240,249.9,240L249.9,240z
	 M249.9,32.5c-48.3,0-87.6,39.2-87.6,87.6s39.2,87.6,87.6,87.6s87.6-39.2,87.6-87.6S298.2,32.5,249.9,32.5L249.9,32.5z M412.2,500
	c-9,0-16.2-7.3-16.2-16.2c0-97.9-11-179-145.9-179s-146,81.1-146,179c0,8.9-7.3,16.2-16.2,16.2s-16.3-7.3-16.3-16.2
	c0-102.3,13.8-211.4,178.4-211.4s178.4,109.1,178.4,211.4C428.4,492.7,421.1,500,412.2,500z"/>
</svg>
