<?xml version="1.0" encoding="utf-8"?>
<!-- Generator: Adobe Illustrator 22.1.0, SVG Export Plug-In . SVG Version: 6.00 Build 0)  -->
<svg version="1.1" id="Calque_1" xmlns="http://www.w3.org/2000/svg" xmlns:xlink="http://www.w3.org/1999/xlink" x="0px" y="0px"
	 viewBox="0 0 500 500" style="enable-background:new 0 0 500 500;" xml:space="preserve">
<path d="M462.5,12.5h-425C16.8,12.5,0,29.3,0,50s16.8,37.5,37.5,37.5h425c20.7,0,37.5-16.8,37.5-37.5S483.2,12.5,462.5,12.5z
	 M462.5,212.5h-425C16.8,212.5,0,229.3,0,250s16.8,37.5,37.5,37.5h425c20.7,0,37.5-16.8,37.5-37.5S483.2,212.5,462.5,212.5z
	 M462.5,412.5h-425C16.8,412.5,0,429.3,0,450s16.8,37.5,37.5,37.5h425c20.7,0,37.5-16.8,37.5-37.5S483.2,412.5,462.5,412.5z"/>
</svg>
