<svg version="1.1" id="Calque_1" xmlns="http://www.w3.org/2000/svg" xmlns:xlink="http://www.w3.org/1999/xlink" x="0px" y="0px"
	 viewBox="0 0 80 15" style="enable-background:new 0 0 80 15;" xml:space="preserve">
<g id="Page-1">
	<path id="Combined-Shape" d="M74.9,6l-2.4-2.4c-0.6-0.6-0.6-1.5,0-2.1c0.6-0.6,1.5-0.6,2.1,0l5,5c0.6,0.6,0.6,1.5,0,2.1l-5,5
		c-0.3,0.3-0.7,0.4-1.1,0.4c-0.4,0-0.8-0.1-1.1-0.4c-0.6-0.6-0.6-1.5,0-2.1L74.9,9H60v5c0,0.6-0.4,1-1,1s-1-0.4-1-1V1
		c0-0.6,0.4-1,1-1s1,0.4,1,1v5H74.9z M34,6h16V1c0-0.6,0.4-1,1-1s1,0.4,1,1v13c0,0.6-0.4,1-1,1s-1-0.4-1-1V9H34v5c0,0.6-0.4,1-1,1
		s-1-0.4-1-1V1c0-0.6,0.4-1,1-1s1,0.4,1,1V6z M8.7,6H24V1c0-0.6,0.4-1,1-1s1,0.4,1,1v13c0,0.6-0.4,1-1,1s-1-0.4-1-1V9H8.7
		c-0.6,1.7-2.3,3-4.2,3C2,12,0,10,0,7.5S2,3,4.5,3C6.5,3,8.1,4.3,8.7,6z"/>
</g>
</svg>
