<svg xmlns="http://www.w3.org/2000/svg" viewBox="0 0 500 500"><path d="M298.6 0H0v383.7L201.4 500H500V116.3L298.6 0zm-14.7 407.4h-64.6V345h64.6v62.4zm61.6-181.8c-5.5 7.8-15.9 17.7-31.4 29.8l-15.3 11.9c-8.3 6.5-13.9 14-16.6 22.7-1.7 5.5-2.7 14-2.8 25.5h-58.5c.9-24.3 3.2-41.1 6.9-50.4 3.7-9.3 13.4-20 28.8-32.1l15.7-12.3c5.2-3.9 9.3-8.1 12.5-12.7 5.7-7.9 8.6-16.6 8.6-26.1 0-10.9-3.2-20.9-9.6-29.9-6.4-9-18-13.5-35-13.5-16.7 0-28.5 5.5-35.4 16.6-6.9 11.1-10.4 22.6-10.4 34.5h-62.4c1.7-41 16.1-70.1 43-87.2 17-10.9 37.9-16.4 62.6-16.4 32.5 0 59.6 7.8 81.1 23.3 21.5 15.5 32.3 38.6 32.3 69.1-.1 18.6-4.8 34.4-14.1 47.2z"/></svg>
