<svg viewBox="0 0 501 501" version="1.1" xmlns="http://www.w3.org/2000/svg" xmlns:xlink="http://www.w3.org/1999/xlink">
    <defs></defs>
    <g id="Page-1" stroke-width="1" fill-rule="evenodd">
        <path d="M498.744169,235.303658 C501.456356,251.684711 501.50911,268.63907 498.893122,284.338354 C496.090943,301.221437 490.455552,316.102598 482.14211,328.566578 C474.070717,340.705168 464.677365,349.757203 454.228929,355.471668 C445.350706,360.324624 435.743235,362.785191 425.670284,362.785191 L424.519001,362.775894 C416.329687,362.61165 407.910736,360.842149 399.497992,357.516975 C392.149641,354.619456 386.160487,351.049465 382.430455,348.564107 C378.039443,345.638697 374.02702,341.619358 369.800477,335.911091 C367.200005,332.421673 364.754693,328.606864 361.828386,323.986329 L360.292307,321.578444 C356.965689,316.366009 358.504871,309.421261 363.715124,306.099186 C366.234914,304.481533 369.235697,303.939217 372.155797,304.583799 C375.088311,305.228381 377.595687,306.979288 379.215551,309.517328 L381.151941,312.566696 C383.435888,316.152182 385.589501,319.542434 387.836209,322.570108 C390.458404,326.093615 392.764073,328.495302 394.886654,329.908424 C397.704349,331.786388 402.228798,334.482475 407.764886,336.670334 C413.679564,339.006943 419.463907,340.246523 424.956551,340.354986 C431.147412,340.565715 437.713759,338.941865 443.442245,335.811925 C450.654056,331.873158 457.387975,325.2538 463.451605,316.139786 C469.900031,306.480357 474.498957,294.211611 476.751872,280.6599 C478.961342,267.362302 478.905485,252.936687 476.599815,238.948024 C474.266218,224.829205 469.664189,211.354967 463.296446,199.988016 C456.646313,188.122134 448.339077,178.83148 438.613684,172.373267 C429.214126,166.122683 418.185394,162.605374 405.840909,161.911209 C394.126372,161.275925 381.493292,163.122899 368.298534,167.414946 C355.941637,171.443582 343.277524,177.65078 331.674702,185.370266 C320.453572,192.848034 310.352694,201.652153 302.461285,210.828146 C298.41783,215.51066 291.311528,216.04368 286.619507,212.011945 C281.927486,207.983309 281.396841,200.89291 285.434089,196.204197 C294.64125,185.50662 306.321652,175.311072 319.221607,166.717682 C332.50946,157.876376 347.069621,150.748789 361.328772,146.106561 C377.285368,140.894126 392.680287,138.681475 407.094598,139.536786 C423.473227,140.444778 438.25992,145.210964 451.045057,153.695891 C463.774337,162.156027 474.486544,174.0467 482.886875,189.042522 C490.520719,202.656213 496.004054,218.652996 498.744169,235.303658 Z M334.81637,319.291419 C343.660458,332.533235 350.794688,347.073511 355.452574,361.34108 C360.62559,377.151926 362.841267,392.52892 362.034437,407.038207 C361.1221,423.41926 356.352499,438.188859 347.865278,450.934843 C339.39978,463.634342 327.486639,474.33192 312.461,482.733175 C298.822486,490.362792 282.803827,495.844836 266.136601,498.57811 C257.835571,499.950945 249.329731,500.64511 240.858027,500.64511 C232.724569,500.64511 224.709033,500.000528 217.031745,498.729959 C200.150399,495.928507 185.25199,490.303912 172.75545,482.01112 C160.556816,473.894968 151.486195,464.505148 145.801154,454.10197 C140.752266,444.929076 138.294541,434.947356 138.499351,424.441913 C138.654511,416.279277 140.423328,407.871824 143.756153,399.458173 C146.676253,392.101264 150.241817,386.138883 152.721265,382.432538 C155.632055,378.047523 159.659994,374.034382 165.38848,369.801215 C169.078172,367.077238 173.134039,364.498911 177.428852,361.768735 L179.746934,360.302932 C182.25431,358.694576 185.248887,358.158458 188.1814,358.796842 C191.117017,359.441423 193.627496,361.192331 195.244258,363.724173 C198.570876,368.936608 197.034797,375.878258 191.821441,379.203432 L189.472327,380.703324 C185.618167,383.129802 181.987436,385.419927 178.741501,387.821614 C175.163524,390.471216 172.836133,392.699362 171.411769,394.837638 C169.518824,397.676277 166.806637,402.21314 164.628199,407.713778 C162.288395,413.623477 161.050223,419.396822 160.947817,424.869569 C160.820587,431.414552 162.350459,437.631047 165.490886,443.339315 C169.441245,450.550573 176.066552,457.278395 185.186823,463.333744 C194.878081,469.773364 207.163605,474.366009 220.71523,476.615847 C234.037218,478.825399 248.485664,478.772716 262.493457,476.463998 C276.643997,474.133587 290.127352,469.537843 301.488125,463.178797 C313.373337,456.531547 322.686006,448.229459 329.17167,438.511149 C335.415286,429.136824 338.934302,418.126252 339.629416,405.792428 C340.268673,394.065999 338.416069,381.45327 334.118153,368.301323 C330.074698,355.93651 323.855908,343.289693 316.135175,331.727508 C308.6658,320.549593 299.849642,310.459409 290.642481,302.54159 C288.370947,300.589251 286.993131,297.868373 286.772805,294.884083 C286.546272,291.899794 287.502054,289.005374 289.460166,286.733843 C291.415175,284.459213 294.139775,283.08018 297.134351,282.860155 C300.122722,282.63703 303.0211,283.591507 305.292634,285.553143 C316.007944,294.760125 326.220538,306.430773 334.81637,319.291419 Z M182.420641,334.571415 C169.151407,343.406523 154.591246,350.537208 140.313475,355.188733 C126.597382,359.660519 113.185401,361.928951 100.456121,361.928951 C98.4700805,361.928951 96.4933493,361.870071 94.5445469,361.752311 C78.1504016,360.844318 63.3606049,356.081231 50.5971902,347.602502 C37.8772202,339.151664 27.1619101,327.257891 18.7460626,312.246574 C11.1184251,298.626686 5.63509089,282.636101 2.88876899,266.007131 C0.179685363,249.610583 0.126931157,232.650026 2.73671275,216.950742 C5.54199523,200.070758 11.1835921,185.189597 19.5001375,172.722519 C27.5746342,160.587028 36.9648828,151.534993 47.4133188,145.817429 C56.7166781,140.725853 66.4079361,138.34276 77.1232462,138.522499 C85.2846322,138.686744 93.6942732,140.450046 102.122533,143.762825 C107.975147,146.071543 113.716046,149.083723 119.190071,152.715693 C123.574876,155.628707 127.593505,159.654244 131.84177,165.387302 C134.476378,168.929403 137.039611,172.920851 139.879029,177.395736 L141.353043,179.713751 C144.673455,184.923087 143.137377,191.864737 137.927123,195.189911 C132.685838,198.496491 125.731592,196.962511 122.426696,191.771768 L120.527545,188.787479 C118.231185,185.1803 116.062057,181.774554 113.806038,178.728285 C111.174535,175.189283 108.868865,172.784498 106.758697,171.380673 C102.690417,168.678388 98.2373413,166.33868 93.8773614,164.615664 C87.9502712,162.288352 82.1659277,161.05187 76.6856966,160.943407 C70.2217548,160.810152 63.8167736,162.409211 58.1968991,165.480271 C50.988192,169.425235 44.257376,176.044594 38.1875391,185.146212 C31.7329069,194.821136 27.1308782,207.089881 24.8810665,220.629197 C22.6778026,233.929893 22.7305568,248.361706 25.0331227,262.359666 C27.3791333,276.487782 31.9811619,289.952723 38.3458017,301.297981 C44.9928317,313.170061 53.2969643,322.463814 63.0285637,328.925127 C72.4250187,335.169512 83.4506477,338.686821 95.8013383,339.377887 C107.612074,340.003875 120.242052,338.163098 133.343714,333.886547 C145.756468,329.826921 158.420581,323.613525 169.964442,315.915732 C181.207294,308.425568 191.311276,299.627647 199.180963,290.470248 C203.233727,285.787733 210.336926,285.257813 215.02274,289.286449 C217.291171,291.235689 218.665884,293.953468 218.889313,296.940857 C219.115846,299.928245 218.163167,302.822665 216.208158,305.094196 C207.013411,315.782477 195.329906,325.974926 182.420641,334.571415 Z M166.825877,181.999537 C157.98179,168.757721 150.844456,154.214346 146.189673,139.946777 C141.007348,124.092545 138.791672,108.718651 139.60781,94.2496505 C140.517044,77.8933889 145.286645,63.1237901 153.776969,50.3530144 C162.245571,37.6504157 174.155609,26.952838 189.181248,18.5546817 C202.819762,10.9312631 218.838421,5.45541729 235.505647,2.71904386 C251.850141,0.0074620378 268.833892,-0.048319074 284.6074,2.57029423 C301.516674,5.37174563 316.418186,10.99944 328.896107,19.3015288 C341.066813,27.3835922 350.13433,36.7610168 355.841094,47.1734911 C360.889982,56.3711766 363.347707,66.3559956 363.142896,76.8459436 C362.987737,85.0085796 361.21892,93.4160328 357.886095,101.829684 C355.003233,109.121515 351.41905,115.117984 348.920983,118.864616 C345.994676,123.25273 341.969841,127.265871 336.253767,131.486642 C332.759577,134.083562 328.939552,136.525535 324.312698,139.447846 L321.898417,140.981826 C316.654028,144.297704 309.705989,142.766822 306.394887,137.563684 C303.071372,132.354348 304.60745,125.409599 309.820807,122.087524 L312.8309,120.178571 C316.439908,117.888446 319.847209,115.728478 322.888334,113.47554 C326.413556,110.863125 328.818528,108.563704 330.242891,106.444021 C332.12963,103.608481 334.838713,99.0685188 337.014049,93.5771782 C339.356956,87.6612814 340.592025,81.8879363 340.691327,76.4182884 C340.821661,69.8857004 339.291789,63.6692054 336.148259,57.9485425 C332.201003,50.7434822 325.575695,44.0218582 316.455424,37.9634097 C306.785889,31.5237902 294.500365,26.9311454 280.923915,24.6813072 C267.648474,22.4810522 253.203131,22.5368333 239.154997,24.8331558 C225.010663,27.1666656 211.521102,31.7593105 200.144813,38.1214562 C188.272014,44.7563095 178.959345,53.0522005 172.467474,62.7798066 C166.223859,72.1665281 162.704843,83.1740008 162.012832,95.4954287 C161.364265,107.178473 163.216869,119.794301 167.524095,132.989633 C171.567549,145.354446 177.786339,158.001263 185.507073,169.560349 C192.995067,180.763056 201.811225,190.859437 210.996664,198.758662 C213.271301,200.711001 214.646013,203.43188 214.869443,206.41617 C215.092872,209.400459 214.140194,212.29178 212.182082,214.563311 C210.050191,217.042471 206.950106,218.461791 203.676242,218.461791 C200.979571,218.461791 198.375996,217.498017 196.349613,215.74711 C185.649819,206.552523 175.440329,194.881875 166.825877,181.999537 Z M207.915818,250.648422 C207.915818,227.018923 227.161793,207.796132 250.8174,207.796132 C274.479213,207.796132 293.728292,227.018923 293.728292,250.648422 C293.728292,274.277921 274.479213,293.500712 250.8174,293.500712 C227.161793,293.500712 207.915818,274.277921 207.915818,250.648422 Z M271.276722,250.648422 C271.276722,239.380637 262.097491,230.21704 250.8174,230.21704 C239.540413,230.21704 230.364284,239.380637 230.364284,250.648422 C230.364284,261.916207 239.540413,271.082903 250.8174,271.082903 C262.097491,271.082903 271.276722,261.916207 271.276722,250.648422 Z" id="ac"></path>
    </g>
</svg>
