<?xml version="1.0" encoding="UTF-8"?>
<svg viewBox="0 0 520 579" version="1.1" xmlns="http://www.w3.org/2000/svg" xmlns:xlink="http://www.w3.org/1999/xlink">
    <!-- Generator: Sketch 52.3 (67297) - http://www.bohemiancoding.com/sketch -->
    <title>accessiblebathroom</title>
    <desc>Created with Sketch.</desc>
    <g id="Page-1" stroke="none" stroke-width="1" fill="none" fill-rule="evenodd">
        <g id="accessiblebathroom" transform="translate(-0.012558, -0.393840)" fill="#000000" fill-rule="nonzero">
            <path d="M314.186942,185.627364 C312.819403,183.794106 312.376416,181.43151 312.986942,179.227364 C322.628751,139.796015 355.848735,110.568818 396.186942,106.027364 L396.186942,48.2273642 C396.133787,35.6030256 401.097866,23.4746434 409.987114,14.5103802 C418.876363,5.54611707 430.962603,0.4802962 443.586942,0.427364195 L511.586942,0.427364195 C513.706172,0.314853038 515.775918,1.09355649 517.295424,2.57507501 C518.81493,4.05659352 519.645774,6.10596492 519.586942,8.22736419 C519.593762,10.2984868 518.732311,12.2776809 517.211893,13.6840677 C515.691475,15.0904546 513.651256,15.7953052 511.586942,15.6273642 L443.586942,15.6273642 C425.660613,15.7373437 411.186605,30.3006979 411.186942,48.2273642 L411.186942,106.027364 C451.473667,110.591408 484.623325,139.827009 494.186942,179.227364 C494.797468,181.43151 494.354481,183.794106 492.986942,185.627364 C491.603413,187.554887 489.359078,188.677055 486.986942,188.627364 L319.586942,188.627364 C317.435666,188.462412 315.463519,187.366775 314.186942,185.627364 Z M476.586942,173.627364 C465.550171,142.538784 436.561761,121.412984 403.586942,120.427364 C370.612123,121.412984 341.623713,142.538784 330.586942,173.627364 L476.586942,173.627364 Z M450.717135,208 C454.836192,208.108434 458.118562,211.479516 458.117135,215.6 L458.117135,244.6 C458.60404,247.571782 457.290353,250.550761 454.767688,252.195366 C452.245023,253.839972 448.989246,253.839972 446.466581,252.195366 C443.943916,250.550761 442.63023,247.571782 443.117135,244.6 L443.117135,215.6 C443.117135,211.402636 446.51977,208 450.717135,208 Z M402.514428,208 C404.512179,207.99927 406.425354,208.806305 407.819018,210.237636 C409.212682,211.668967 409.968421,213.602979 409.914428,215.6 L409.914428,244.6 C409.968421,246.597021 409.212682,248.531033 407.819018,249.962364 C406.425354,251.393695 404.512179,252.20073 402.514428,252.2 C398.317064,252.2 394.914428,248.797364 394.914428,244.6 L394.914428,215.6 C394.914428,211.402636 398.317064,208 402.514428,208 Z M361.317135,215.6 L361.317135,244.6 C361.80404,247.571782 360.490353,250.550761 357.967688,252.195366 C355.445023,253.839972 352.189246,253.839972 349.666581,252.195366 C347.143916,250.550761 345.83023,247.571782 346.317135,244.6 L346.317135,215.6 C345.83023,212.628218 347.143916,209.649239 349.666581,208.004634 C352.189246,206.360028 355.445023,206.360028 357.967688,208.004634 C360.490353,209.649239 361.80404,212.628218 361.317135,215.6 Z M402.473715,271.8 C404.583127,271.787633 406.597553,272.676096 408.010808,274.242135 C409.424064,275.808175 410.1018,277.902919 409.873715,280 L409.873715,308.4 C409.927708,310.397021 409.171969,312.331033 407.778305,313.762364 C406.384641,315.193695 404.471466,316.00073 402.473715,316 C398.276351,316 394.873715,312.597364 394.873715,308.4 L394.873715,279.4 C394.873715,275.202636 398.276351,271.8 402.473715,271.8 Z M155.34229,542.561164 C143.26009,548.609155 129.856659,551.836299 116.005513,551.836299 C67.3816436,551.836299 27.8451007,512.299756 27.8451007,463.675887 C27.8451007,449.822656 31.0717807,436.418825 37.1200955,424.337078 L27.3536308,414.570808 C19.1013237,429.409816 14.6585673,446.196112 14.6585673,463.675887 C14.6585673,519.648774 60.0323575,565.022245 116.005513,565.022245 C133.485689,565.022245 150.270639,560.579747 165.108819,552.327304 L155.34229,542.561164 Z M116.005513,537.836299 C131.415392,537.836299 145.739408,533.10604 157.611131,525.031319 L187.073267,554.492281 C167.483104,569.844639 142.824009,579.022245 116.005513,579.022245 C52.300505,579.022245 0.658567285,527.380895 0.658567285,463.675887 C0.658567285,436.858564 9.83617361,412.197122 25.1879448,392.606372 L54.6506671,422.068508 C46.5735988,433.940818 41.8451007,448.264833 41.8451007,463.675887 C41.8451007,504.567769 75.1136301,537.836299 116.005513,537.836299 Z M217.350698,464.022924 C217.350698,448.342871 213.790576,433.193816 207.034746,419.431139 C202.617004,410.43151 208.813613,399.841295 218.823549,399.283676 L249.263549,397.587967 C257.742464,397.115635 264.685967,404.239891 263.995941,412.703871 L256.590903,503.535321 C256.206977,508.24304 260.516592,512.43118 264.760447,512.776883 C269.004302,513.122587 273.282263,509.367632 273.644139,504.924472 L283.148853,388.303465 C283.350083,385.839061 282.475711,383.409113 280.751371,381.638995 C279.031051,379.87424 276.61125,378.933146 274.149392,379.067909 L195.508763,383.445409 C183.117583,384.135159 176.022129,369.555621 184.210429,360.229913 L227.488689,310.940017 C230.316837,307.71931 231.251736,303.354469 230.087838,299.270652 C230.009056,298.994229 229.938807,298.715445 229.877188,298.434697 C229.384316,296.18906 228.04719,294.26292 226.072742,293.029216 C225.83095,292.878136 123.212107,233.261749 123.010273,233.144499 C119.812915,231.287143 115.782579,231.696122 113.022302,234.158111 L62.5686239,279.163651 C59.0431658,282.308225 58.7344749,287.715409 61.8786389,291.24038 C65.0250609,294.767188 70.4321769,295.076074 73.9576416,291.930182 L112.208233,257.809983 C116.726131,253.779939 123.322612,253.110504 128.558028,256.150746 L160.179566,274.513589 C167.804855,278.941647 169.48725,289.231422 163.669325,295.857467 L107.852386,359.427476 C105.711004,361.8663 102.788812,363.485372 99.5856148,364.007771 C84.4493752,366.476291 70.2252899,372.344285 57.8480361,381.043308 L67.3401712,390.535443 C81.5880137,381.07094 98.4111539,375.862512 116.004926,375.862512 C164.628239,375.862512 204.164164,415.399085 204.164164,464.022924 C204.164164,481.616304 198.95597,498.438701 189.491892,512.686517 L198.985703,522.180902 C210.819285,505.356477 217.350698,485.213967 217.350698,464.022924 Z M194.730663,369.467048 L273.371292,365.089548 C279.868868,364.733855 286.227336,367.19906 290.777988,371.868275 C295.326291,376.536317 297.633019,382.944677 297.102413,389.44284 L287.597873,506.061714 C286.637617,517.851851 276.767992,526.784697 265.14279,526.784697 C264.528249,526.784697 263.907839,526.760632 263.286255,526.710154 C250.870426,525.696485 241.624733,514.812605 242.637228,502.397363 L244.722032,476.824799 C244.866072,475.36469 244.985618,473.899244 245.080404,472.428956 L250.042235,411.566294 L219.602234,413.262003 C220.534177,415.160516 222.421467,419.729283 225.264103,426.968306 C229.209091,438.598012 231.350698,451.059895 231.350698,464.022924 C231.350698,466.494522 231.272831,468.94781 231.119432,471.3805 L230.773125,475.628363 C228.174,501.598405 216.946624,525.016597 200.017941,543.01279 L170.871587,513.864675 C182.851309,500.688154 190.164164,483.194002 190.164164,464.022924 C190.164164,423.131041 156.896222,389.862512 116.004926,389.862512 C96.8338477,389.862512 79.3385221,397.175366 66.1620009,409.156263 L37.0138857,380.008148 C53.3617171,364.630551 74.1868304,353.965017 97.3321713,350.190318 L153.14911,286.62031 L121.527572,268.257467 L83.2769807,302.377666 C73.9819836,310.671907 59.724294,309.855455 51.4318137,300.560458 C43.1399203,291.264287 43.9540249,277.007184 53.2496089,268.715878 L103.702966,223.710624 C110.98119,217.218917 121.608572,216.13951 130.042508,221.038811 C130.042508,221.038811 233.327557,281.039555 233.491317,281.156359 C238.823204,284.487908 242.29386,289.702403 243.551702,295.433418 C245.93532,303.79692 244.173873,313.156482 238.008512,320.177621 L194.730663,369.467048 Z M249.003327,260.903982 C262.121269,260.903982 272.754421,250.269916 272.754421,237.149953 C272.754421,224.030511 262.120617,213.395337 249.003327,213.395337 C235.883559,213.395337 225.248711,224.030642 225.248711,237.149953 C225.248711,250.270023 235.882556,260.903982 249.003327,260.903982 Z M249.003327,274.903982 C228.15004,274.903982 211.248711,258.001479 211.248711,237.149953 C211.248711,216.299601 228.150627,199.395337 249.003327,199.395337 C269.853679,199.395337 286.754421,216.299601 286.754421,237.149953 C286.754421,258.001479 269.853679,274.903982 249.003327,274.903982 Z" id="Path-Copy"></path>
        </g>
    </g>
</svg>
