<svg version="1.1"
   xmlns="http://www.w3.org/2000/svg" xmlns:xlink="http://www.w3.org/1999/xlink"
   x="0px" y="0px" viewBox="0 0 500 246.3" style="enable-background:new 0 0 500 246.3;"
   xml:space="preserve">
<defs>
</defs>
<g>
  <path class="st0" d="M102.4,94.9c25.1,0,45.6-20.5,45.6-45.6S127.5,3.7,102.4,3.7S56.8,24.2,56.8,49.3S77.3,94.9,102.4,94.9z
     M102.4,22c15.1,0,27.4,12.3,27.4,27.4c0,15.1-12.3,27.4-27.4,27.4C87.3,76.7,75,64.4,75,49.3C75,34.2,87.3,22,102.4,22z"/>
  <path class="st0" d="M500,100.7C500,45.2,454.8,0,399.3,0H179.1v119.4H22.4V56c0-6.2-5-11.2-11.2-11.2C5,44.8,0,49.8,0,56v179.1
    c0,6.2,5,11.2,11.2,11.2c6.2,0,11.2-5,11.2-11.2v-93.3h156.7v29.9h268.7v63.4c0,6.2,5,11.2,11.2,11.2s11.2-5,11.2-11.2v-63.4H500
    V100.7z M477.6,149.3H201.5V22.4h197.8c43.2,0,78.4,35.2,78.4,78.4V149.3z"/>
</g>
</svg>
