<?xml version="1.0" encoding="utf-8"?>
<!-- Generator: Adobe Illustrator 22.1.0, SVG Export Plug-In . SVG Version: 6.00 Build 0)  -->
<svg version="1.1" id="Calque_1" xmlns="http://www.w3.org/2000/svg" xmlns:xlink="http://www.w3.org/1999/xlink" x="0px" y="0px"
	 viewBox="0 0 337 501" style="enable-background:new 0 0 337 501;" xml:space="preserve">
<g id="Page-1">
	<g id="address" transform="translate(-0.450317, 0.162283)">
		<path id="XMLID_20_" d="M168.8,500.3c-3.9,0-7.4-2-9.3-5.4L22.9,252.7c-0.3-0.6-0.6-1.2-0.8-1.9C-14.4,185.4-3.2,103.1,49.9,50.1
			c31.8-31.7,74-49.3,119-49.3s87.2,17.5,119,49.3c53,53,64.4,135.3,27.9,200.7c-0.2,0.6-0.5,1.3-0.8,1.9L178.2,494.9
			C176.2,498.2,172.7,500.3,168.8,500.3z M49.9,244.2l119.1,210.9l119-210.9c0.2-0.7,0.5-1.2,0.9-1.9c31.2-54.1,22.1-122.7-22-166.7
			c-26.2-26.2-61-40.6-97.9-40.6S97.2,49.4,71,75.5c-44,44.1-53.1,112.8-22,166.8C49.3,242.9,49.6,243.6,49.9,244.2z M168.8,260.4
			c-20.9,0-41.7-7.9-57.6-23.8c-31.7-31.7-31.7-83.4,0-115.1c15.4-15.4,35.8-23.8,57.6-23.8c21.7,0,42.2,8.5,57.6,23.8
			c31.7,31.7,31.7,83.4,0,115.1C210.5,252.5,189.7,260.4,168.8,260.4z M168.8,125.5c-14.3,0-27.7,5.6-37.8,15.7
			s-15.7,23.6-15.7,37.8s5.6,27.7,15.7,37.8c20.9,20.9,54.8,20.9,75.7,0s20.9-54.8,0-75.7C196.6,131.1,183.2,125.5,168.8,125.5z"/>
	</g>
</g>
</svg>
