<svg version="1.1"
   xmlns="http://www.w3.org/2000/svg" xmlns:xlink="http://www.w3.org/1999/xlink"
   x="0px" y="0px" viewBox="0 0 500 464.2" style="enable-background:new 0 0 500 464.2;"
   xml:space="preserve">
<defs>
</defs>
<g>
  <path class="st0" d="M499.3,213.7c-4.2-24.7-25.3-42.7-50.4-42.7c-2.8,0-5.7,0.2-8.5,0.7c-0.5,0.1-1.1,0.2-1.6,0.4
    c-0.9-18.1-10-35.7-26.2-46.6L293.4,45.2c-18.3-12.4-40.5-16.9-62.3-12.6c-21.9,4.2-40.7,16.7-53.1,35c-1.5,2.3-3,4.6-4.3,6.9
    l-69.1-46.7c0.4-10.1-4.9-20-14.5-24.9C77-3.8,61,1.4,54.3,14.5C47.7,27.6,52.9,43.6,66,50.3c7.5,3.8,16,3.7,23.1,0.5l74.3,50.2
    c-1.9,8.2-2.6,16.5-2,24.6c1.4,20.9,10.6,38.2,26.1,48.6l67.5,45.6c-1.4,2-16.4,23.1-23.7,33.2L49.8,130.2
    c-6.3-4.2-14.8-2.6-19,3.7c-4.2,6.3-2.6,14.8,3.7,19l180.7,122.3c-3.9,5.3-8.2,11.1-13.1,17.6l-180.7-122c-6.3-4.2-14.8-2.6-19,3.7
    c-4.2,6.3-2.6,14.8,3.7,19l397.5,268.4c2.3,1.6,5,2.3,7.6,2.3c4.4,0,8.7-2.1,11.4-6c4.2-6.3,2.6-14.8-3.7-19L264.4,334.9
    c3.5-2.7,6.5-5.9,9-9.3c1.6-2.1,3.4-4.7,5.6-7.6l152.2,102.8c2.3,1.6,5,2.3,7.6,2.3c4.4,0,8.7-2.1,11.3-6c4.2-6.3,2.6-14.8-3.7-19
    L295.2,295.9c15.4-21,31.8-43.6,32.1-43.9c4.5-6.1,3.1-14.7-3-19.1c-6.1-4.5-14.7-3.1-19.1,3c-0.4,0.5-40,54.9-53.7,73.5
    c-5.8,7.9-12.2,8.5-22,1.9l-4.7-3.2c24.5-32.8,56.1-77.5,60.6-83.8c2.1-3,3-6.7,2.3-10.4c-0.7-3.6-2.7-6.8-5.8-8.9l-79.1-53.5
    c-8.3-5.6-13.3-15.5-14.1-27.8c-0.1-1.9-0.1-3.8,0-5.8l157.3,106.3c10.2,6.9,21.8,10.2,33.3,10.2c6.6,0,13.1-1.1,19.4-3.2
    c4.4,24.4,25.4,42.1,50.3,42.1c2.8,0,5.7-0.2,8.5-0.7c13.5-2.3,25.2-9.6,33.2-20.7C498.4,240.7,501.5,227.2,499.3,213.7z
     M361.4,201.3L196.5,89.9c1.3-2.4,2.6-4.7,4.2-7c8.3-12.3,20.9-20.6,35.6-23.4c14.7-2.8,29.5,0.2,41.8,8.5l119,80.6
    c14.6,9.8,18.4,29.7,8.6,44.2C395.8,207.3,376,211.1,361.4,201.3z M468.2,236c-3.7,5.2-9.2,8.6-15.4,9.6c-1.3,0.2-2.7,0.3-4,0.3
    c-11.6,0-21.5-8.3-23.4-19.8c-2.2-12.9,6.6-25.2,19.5-27.4c1.3-0.2,2.7-0.3,4-0.3c11.6,0,21.5,8.3,23.4,19.8
    C473.3,224.5,471.9,230.8,468.2,236z"/>
</g>
</svg>
