<svg xmlns="http://www.w3.org/2000/svg" viewBox="0 0 500 530.5"><g><path d="M301.5 231.3l-18 10.1-.3 21.7 18.6-11M255.5 311l18.1-10.1.3-21.7-18.6 11.1M250.3 260.6l-17.8 10.6 17.8 10.6 18.9-10.6M255.5 231.3l-.2 20.8 18.6 11-.3-21.7M283.5 300.9l18 10.1.3-20.7-18.6-11.1M306.7 260.6l-18.9 10.6 18.9 10.6 17.9-10.6"/><path d="M385.7 317.2c45.7-9.4 97.5-23.6 81.9-37.2-16.4-14.4-62.2-22.2-95-26.2 41.1-50.4 140.2-194.1 108.3-188-28.4 5.4-106.5 82.6-142.6 119.5 1.9-55.7-9-84.6-9-84.6-15.1 8.1-33.7 37-46.6 59.7l-.7 1.5c-4 8.3-3.8 18.7 1.5 25.5 2.6 3.3 6.5 5.6 10.6 6.5 4.1 1 8.3.5 12.2-1.1 7.4-2.3 11.8-12.6 8.5-19.2-1.6-3.4-4.6-5.5-8.3-5.8-3.6-.3-7.3 1.4-8.6 4.1-.2.3-.7 1.5-.9 2.9-.2 1.3 0 2.8.1 2.9.1.7-1.2.9-2 .7-1.3-.3-2.3-2.5-2.3-4.9 0-2.4 1.2-4.7 1.6-5 2.9-4.4 8.5-6.4 13.6-5.8 2.6.3 5.2 1.3 7.4 2.9 2.2 1.7 3.9 3.9 5 6.3 2.3 5 1.9 10.9-.2 15.8-1.1 2.5-2.6 4.8-4.5 6.8-1 1-2.1 1.9-3.3 2.7-1.2.8-2.6 1.4-3.8 1.9-10.3 4-23.4.7-30.1-9-5.9-8.9-5.4-20.2-1.3-29.2C243.1 42.1 181.5-.9 176.4 0c-5.5 1.1 2.4 26.6 12.6 59.8 17.7 57.6 26.3 105.2 30 130.8-37.5-24.9-100.8-27.7-91.5-22.2 7.5 4.4 30.8 40.2 53.9 65.5C117 226.1-25.7 211.5 4 241.8c22.4 22.8 134.1 42.1 188.5 56.5-33.2 13.8-77.6 39.9-83.6 60.1 10.7 8.1 67.1.6 101.7-4.9-13.2 31.5-34.2 72-48.5 96.3-29 49.1-26.8 79.1-21.4 80.7 13 3.8 98.7-90.2 124.9-160.7.9-7.3-.6-15-4.9-20.4-1.4-1.7-2.9-3-4.9-3.9-2-.9-4.1-1.5-6.3-1.9-4.3-.7-8.8-.2-12.4 1.6-7.5 3-11 13.6-7.4 20.5 1.8 3.6 4.9 5.9 8.6 6.2 3.7.3 7.2-1.6 8.2-4.4.2-.3.6-1.6.5-3 0-1.4-.4-2.8-.4-2.9-.2-.7 1.1-1.1 1.9-1 1.3.1 2.6 2.2 2.9 4.7.3 2.5-.7 4.9-1 5.3-2.5 4.8-8.3 7.2-13.6 6.5-5.5-.6-10.3-4.5-12.5-9.4-2.4-5-2.5-10.9-.7-16 .9-2.6 2.2-5.1 4.1-7.3 1.9-2.2 4.3-3.9 6.8-5.2 5.3-2.4 11.2-2.6 16.7-1.5 2.7.6 5.4 1.5 8 2.9 1.3.7 2.6 1.6 3.7 2.7 1.1 1 2.1 2.2 2.9 3.4 3.3 4.9 4.8 10.4 5.2 15.9.2 3.1 0 6.1-.6 9.1 21 25.5 31.4 92.1 48.9 104.1 25.9-18.4 25.3-80.5 22-119.5 41.8 17.1 105.1 70.3 115.9 77.6 21.3 14.3 34.7 27.1 42.8 22.9-12.1-61.6-75.3-113-114.3-139.6zM333 296.5c-1.5 3.2-3.3 6.3-5.3 9.2L309 294.5l-.3 28.7h-.1l-25-14.1.3 21.9c-1.8.1-3.5.3-5.3.3-1.8 0-3.5-.1-5.3-.3l.3-21.9-25 14.1h-.1l-.3-28.7-18.8 11.2c-2-2.9-3.8-6-5.3-9.2l19.1-10.7-24.7-14.7 24.7-14.7-19.2-10.6c1.5-3.2 3.3-6.3 5.3-9.2l18.8 11.2.3-28.7 25 14.1-.3-21.9c1.7-.2 3.5-.3 5.3-.3 1.8 0 3.5.1 5.3.3l-.3 21.9 25-14.1h.1l.3 28.7 18.8-11.2c2 2.9 3.8 6 5.3 9.2L314 256.5l24.7 14.7-24.7 14.6 19 10.7z"/></g></svg>
