<svg xmlns="http://www.w3.org/2000/svg" viewBox="0 0 500 661.7"><g><path d="M260.5 83.4l.9-16.9L250 79.1l-11.4-12.6.9 16.9-16.9-.9 12.6 11.4-12.6 11.4 16.9-.9-.9 16.9 11.4-12.6 11.4 12.6-.9-16.9 16.9.9-12.6-11.4 12.6-11.4-16.9.9zM250 104.9c-6.1 0-11-4.9-11-11s4.9-11 11-11 11 4.9 11 11-4.9 11-11 11z"/><path d="M498.5 216.7s-20.5-.1-34.1-.2v-69.7h-65.8C343.7 51.2 250.3.2 250 0c-.3.2-93.7 51.2-148.6 146.7H35.6v69.7c-13.6.1-34.1.2-34.1.2s-22.9 220.4 110.3 297c13.6 79.1 86.4 129.6 117.9 148.1-12.4-23.7-20.8-65.3-20.8-98.2 0-37.7 11-52.7 26.4-57.7-12.6-5.2-21.4-17-21.4-30.7 0-2.7.4-5.3 1-7.8C61.4 461.6 85.5 402 60.2 391.8c-2.2-.9-2.5-3.5-2.5-6.3 0-10 7.7-19.6 19.6-19.6h166.3c1.1-25.9 1.7-51.7.5-77.4-.8-17.7-2.5-35.3-5.9-52.4-1.7-8.6-3.9-17-6.8-25.1-2.9-8-6.6-15.8-11.6-22.3-4.7-6.5-10.7-11.8-17.9-15.1-7.1-3.3-15.1-4.3-22.9-2.9-7.7 1.4-15.2 5.2-20.9 10.8-1.4 1.4-2.7 2.9-3.9 4.4-1.1 1.6-2.3 3.4-3.3 5.2-2 3.6-3.5 7.4-4.3 11.3-1.8 7.8-.7 16.2 3.5 23 4.2 6.8 10.9 12.5 18.7 14.4 3.9 1 8 .9 11.8-.2 3.9-1.1 7.4-3.2 10.4-6 1.5-1.4 3-2.9 4-4.6 1.1-1.7 1.9-3.5 2.5-5.5 1.2-3.9 1.3-8.2.4-12.3-.2-.8-.7-3.2-2-6.1-1.3-2.9-3.5-6.3-6.8-8.8-3.2-2.5-7.3-3.8-10.9-4.2-3.6-.4-6.5-.1-7.9-.7-1.9-.6-2.9-2.7 1-4 .3-.1 2.5-.8 5.9-1.1 3.4-.3 8.3.1 12.7 2.2 4.4 2 8 5.5 10.2 8.6 2.3 3.1 3.4 5.9 3.9 7.1 2 5.1 2.8 10.7 2.2 16.2-.6 5.5-2.6 11.1-6.4 15.6-3.5 4.1-7.6 7.5-12.6 9.9-5 2.4-10.8 3.4-16.3 2.8-11.2-1.1-20.5-7.7-26.6-16-3.1-4.2-5.5-9.1-6.7-14.2-1.2-5.1-1.4-10.5-.6-15.6.7-5.1 2.3-10 4.5-14.5 1.1-2.2 2.3-4.4 3.6-6.5 1.3-2.1 3-4.2 4.7-6.1 7-7.5 16-12.6 25.8-14.9 9.8-2.3 20.5-1.4 29.7 2.6 9.2 3.9 17.1 10.6 22.9 18.4 5.6 7.7 9.5 16.1 12.5 24.7 3 8.6 5.2 17.3 6.9 26.1.8 4.4 1.6 8.9 2.2 13.4.6-4.5 1.3-8.9 2.2-13.4 1.7-8.8 3.9-17.5 6.9-26.1 3.1-8.5 7-17 12.5-24.7 5.7-7.8 13.6-14.5 22.9-18.4 9.2-4 19.9-5 29.7-2.6 9.8 2.3 18.9 7.4 25.8 14.9 1.7 1.9 3.4 4 4.7 6.1 1.3 2.1 2.6 4.2 3.6 6.5 2.2 4.5 3.8 9.4 4.5 14.5.8 5.1.6 10.4-.6 15.6-1.2 5.1-3.6 10-6.7 14.2-6.1 8.2-15.4 14.8-26.6 16-5.5.6-11.3-.4-16.3-2.8-5.1-2.4-9.2-5.8-12.6-9.9-3.8-4.5-5.8-10.1-6.4-15.6-.6-5.5.2-11 2.2-16.2.5-1.2 1.6-4 3.9-7.1 2.2-3.1 5.8-6.5 10.2-8.6 4.4-2.1 9.3-2.5 12.7-2.2 3.4.3 5.6 1.1 5.9 1.1 3.8 1.2 2.9 3.3 1 4-1.4.5-4.4.3-7.9.7-3.6.3-7.7 1.6-10.9 4.2-3.2 2.5-5.5 5.9-6.8 8.8-1.3 2.9-1.8 5.3-2 6.1-.8 4.1-.7 8.3.4 12.3.6 2 1.4 3.8 2.5 5.5 1.1 1.7 2.5 3.1 4 4.6 3 2.8 6.6 5 10.4 6 3.8 1.1 7.9 1.1 11.8.2 7.8-1.9 14.5-7.6 18.7-14.4 4.2-6.9 5.3-15.2 3.5-23-.9-3.9-2.4-7.7-4.3-11.3-1-1.8-2.1-3.5-3.3-5.2-1.2-1.6-2.5-3.1-3.9-4.4-5.7-5.5-13.2-9.3-20.9-10.8-7.8-1.5-15.8-.4-22.9 2.9-7.2 3.3-13.2 8.6-17.9 15.1-4.9 6.6-8.6 14.3-11.6 22.3-2.9 8.1-5.1 16.5-6.8 25.1-3.4 17.1-5 34.8-5.9 52.4-1.2 25.7-.7 51.5.5 77.4h166.3c11.9 0 19.6 9.6 19.6 19.6 0 2.8-.3 5.4-2.5 6.3-25.3 10.2-1.2 69.8-154.7 75.5.6 2.5 1 5.1 1 7.8 0 13.7-8.8 25.4-21.4 30.7 15.4 4.9 26.4 20 26.4 57.7 0 32.9-8.4 74.5-20.7 98.2 31.5-18.5 104.2-69 117.9-148.1C521.5 437 498.5 216.7 498.5 216.7zM300.5 104l-18.1 3.4 10.5 15.2-18-3.8 3.8 18.1-15.2-10.5-3.4 18.1L250 129l-10.1 15.5-3.4-18.1-15.2 10.5 3.8-18.1-18.1 3.8 10.5-15.2-18.1-3.4L215 93.9l-15.5-10 18.1-3.4-10.5-15.2 18.1 3.8-3.8-18 15.2 10.5 3.4-18.1 10 15.4 10-15.5 3.4 18.1L278.6 51l-3.8 18 18-3.8-10.5 15.2 18.1 3.4-15.5 10 15.6 10.2z"/></g></svg>
