<svg xmlns="http://www.w3.org/2000/svg" viewBox="0 0 500 587"><g><path d="M371.8 314l38.2 14.3-17.4 10-38-14.6-25.6 14.8 38.5 14.4-17.4 10-38.2-14.6-46.9 26.8 44.5 24.6 41-15.5 17.4 10.1-40.2 15.6 20.3 11.2c49.5-18.9 95.6-76.5 120.9-115l-15.4-42.6c-16.8 12-38.1 26.4-63.3 39.8L371.8 314z"/><path d="M499.8 391.3l-9-25c-20.5 12.8-53.4 32.1-89.7 47.1l9.4 5.4-39.7 14.9 32.9 18.2-9.8 16.3-31.7-18.6 6.7 40.5-17.4-10-6.4-40.4-25.5-14.9 6.8 40.9-17.4-10.2-6.5-40.8-44.4-26V440l32.7 26.5v20.1l-32.7-26.9v29.4l32.7 26.5v20.1l-32.7-26.9V587c105.4-3.3 226.3-73.2 241.9-191.3l-.2-4.4zm-347.9 29.8l20.3-11.2-40.2-15.7 17.4-10.1 41 15.5 44.5-24.6-46.9-26.8-38.2 14.6-17.4-10 38.5-14.4-25.6-14.7-38 14.6-17.4-10 38.2-14.3-18.6-10.6C84.3 290 63 275.6 46.2 263.6L31 306.1c25.3 38.5 71.4 96.1 120.9 115zm39.1 34.4l-17.4 10.1 6.8-40.9-25.5 14.9-6.4 40.4-17.4 10 6.7-40.5-31.7 18.6-9.8-16.3 32.9-18.2-39.7-14.9 9.4-5.4c-36.2-15-69.1-34.3-89.7-47.1l-9 25-.2 4.5c15.6 118 136.4 187.9 241.9 191.3v-78.3l-32.7 26.9v-20.1l32.7-26.5v-29.4l-32.7 26.9v-20.1l32.7-26.5v-51.3l-44.4 26-6.5 40.9zm67.1-217l32.3-26.6V232l-32.3 26.2v29.4l32.3-26.6v20l-32.3 26.2v54.6l44.2-26.9 6.8-43.7 17.4-10.1-7.2 43.2 25.9-15.6 6.4-42 17.4-10-7 41.8c30.1-27.2 53-58.6 70-93.2l-7.9-23.3c-24.4 15-53.8 23.3-87.9 33.1 44.9-28.4 60-94.8 49.4-135.3H367c-11.6 15.8-19.9 37.3-49.3 52.4 14.2-21.7 18-48 12.2-70.1h-15c-3.4 4.6-6.4 9.6-10 15C295 49 278.2 18.5 256 0h-12c-22.2 18.5-39 49-49.1 77.1-3.6-5.4-6.6-10.3-10-15h-15c-5 19.3-2.8 41.7 7.3 61.6 11.8 10.2 25 18.4 39.4 23.5 6.7 2.4 13.7 4.1 20.7 4.6 6.9.5 14.1-.1 20.3-2.3 6.2-2.2 11.5-6.2 14.9-11.8 3.4-5.5 5.1-12.3 5.3-18.9 0-12.4-9-26.6-21-28.1-6-.9-12.9.5-17.7 3.9-4.9 3.4-7.6 9-7.6 15.1-.1 1.5.2 6.6 2.9 9.8 2.5 3.4 7.1 5 7.4 5.1 2.1.7 1.7 2.4.3 3.1-1 .5-3.2.4-5.9-.6-2.6-.9-5.7-3-7.7-6-4.3-6.2-3.3-14-3.1-15.4.9-7.6 5.9-14.8 12.8-18.4 6.9-3.6 14.9-4.8 22.6-2.9 7.7 2 14.1 7.6 18.2 14.2 4 6.6 6.6 14.3 6.1 22.3-.4 7.7-2.5 15.5-7 22.2-4.4 6.7-11.4 11.8-18.9 14.2-15.2 4.9-31.3 2.8-45.6-2.1-29.4-10.9-52.9-32.9-70.2-58-3.8-5.6-7.3-11.4-10.6-17.4h-18.5c-10.6 40.5 4.5 106.9 49.4 135.3-34.1-9.8-63.5-18-87.9-33.1l-7.9 23.3c17.9 35.8 40 66 70 93.2l-7-41.8 17.4 10 6.4 42 25.9 15.6-7.2-43.2 17.4 10.1 6.8 43.7 44.2 26.9v-54.6L209.5 281v-20.1l32.4 26.6v-29.4L209.5 232v-20.1l32.4 26.6v-35h16.2v35z"/></g></svg>
