<svg version="1.1" id="Calque_1" xmlns="http://www.w3.org/2000/svg" xmlns:xlink="http://www.w3.org/1999/xlink" x="0px" y="0px"
	 viewBox="0 0 500 472.4" style="enable-background:new 0 0 500 472.4;" xml:space="preserve">
<g>
	<polygon class="st0" points="1.9,331.9 247.4,331.9 493,331.9 493,333.8 493,335.8 247.4,335.8 1.9,335.8 1.9,333.8 	"/>
	<polygon class="st0" points="310.3,407.1 304.4,401.2 298.5,407.1 304.4,412.9 	"/>
	<path class="st0" d="M289.2,397.6c0.3,11,1.5,21.6,4.6,22.4c0.4,0.1,0.8-11.1,1-23.6c21-6.5,13-31.5,13-31.5
		c-0.4-1.4-3.5,0.6-10.3,6.7c2.7,3,4,1.3,6.2,0.5c1.7,3.3,2.4,18.1-8.9,22.6c0.3-14.9,0.4-30.9,0.4-30.9c0-0.4-0.4-0.5-0.7-0.5
		c-3.1,0.4-8.6,5.9-12.9,10.5c2.3,3.9,5.3,0.4,7.7-0.5c0,0.6-0.5,11.6-0.3,22.8c-11.6,0.9-9.8-22.8-9.1-25.9
		c0.3-2.4-7.5,2.9-11.4,6.5c1.2,2.2,2.9,1.8,5,0.9C273,388.2,280.5,397.9,289.2,397.6z"/>
	<path class="st0" d="M43.5,372.1v31.5c0,6.7,3.3,10.5,11.4,10.5H60v-6h-3.3c-3.6,0-5-1-5-4.7v-31.2L43.5,372.1L43.5,372.1z"/>
	<path class="st0" d="M179.5,414.1h8.2v-41.5h-11.6l-12.2,31.8l-12.2-31.8h-11.9v41.5h8.2v-24.8c0-1.6-0.1-4.3-0.2-6.1h0.3
		l11.9,30.9h7.6l11.9-30.9h0.2c-0.2,1.7-0.2,4.5-0.2,6.1V414.1z"/>
	<path class="st0" d="M60.6,382.4v18.7c0,9.8,5.2,13.4,15.5,13.4s15.5-3.6,15.5-13.4v-18.7h-8.2v18.7c0,5.7-3.5,7.7-7.3,7.7
		s-7.3-2.1-7.3-7.7v-18.7H60.6z"/>
	<path class="st0" d="M96.1,372.2v28.9c0,9.8,5.9,13.4,16.3,13.4s16.3-4.1,16.3-13.9v-5c0-7.8-4.4-13.6-15.1-13.6
		c-3.2,0-6.6,0.7-9.3,2v-11.8H96.1z M112.6,387.7c3.8,0,8.3,2.1,8.3,7.7v5.7c0,5.7-4.5,7.7-8.3,7.7s-8.3-2.1-8.3-7.7v-5.7
		C104.3,389.7,108.8,387.7,112.6,387.7z"/>
	<path class="st0" d="M260.2,401.1v-28.9H252V384c-2.7-1.3-6.1-2-9.3-2c-10.6,0-15.1,5.8-15.1,13.6v5c0,9.8,5.9,13.9,16.3,13.9
		S260.2,410.9,260.2,401.1z M235.4,401.1v-5.7c0-5.7,4.5-7.7,8.3-7.7s8.3,2.1,8.3,7.7v5.7c0,5.7-4.5,7.7-8.3,7.7
		C239.9,408.8,235.4,406.8,235.4,401.1z"/>
	<path class="st0" d="M224.2,400.4v-2.5c0-9.8-5.9-15.9-16.3-15.9c-10.4,0-16.3,6.1-16.3,15.9v1.3c0,9.5,5.7,15.4,16.7,15.4
		c5.6,0,10.4-1.2,15.1-4.9l-5.1-3.9c-3.5,2.3-6.1,3.2-10,3.2c-4.8,0-8.8-2.7-8.8-7.7v-0.7h24.7L224.2,400.4L224.2,400.4z
		 M207.9,387.5c3.8,0,8.3,2.3,8.3,8h-16.6C199.6,389.7,204.1,387.5,207.9,387.5z"/>
	<path class="st0" d="M1.9,396.7c0,11.1,6.9,17.9,19.7,17.9c10.9,0,17.5-5.5,19.1-12.9h-8.8c-1.5,5-5.2,7.2-10.3,7.2
		c-8.1,0-11.1-5.4-11.1-13.6v-4.1c0-9.1,4-13.3,11.1-13.3c5.2,0,8.8,2.3,10.3,7.2h8.8c-1.6-7.4-8.2-12.9-19.1-12.9
		C9,372.2,1.9,379.5,1.9,391V396.7z"/>
	<path class="st0" d="M164.5,470.3v-34.7c0-0.5,0.1-0.7,0.8-0.7h2.9v-1.3h-12.3v1.3h2.9c0.7,0,0.8,0.2,0.8,0.7v34.7
		c0,0.3-0.2,0.6-0.5,0.6h-3.2v1.3h12.5v-1.3h-3.2C164.7,470.8,164.5,470.6,164.5,470.3z"/>
	<path class="st0" d="M261.1,464.9c0,0.2-0.5,5.9-7.9,5.9c-9.1,0-10.1-13.7-10.1-19.6c0-6,2-16.2,9.6-16.3h0.1
		c4.8,0,5.5,2.5,5.5,4.9c0,0.3-0.2,0.7-0.4,1.1c-0.2,0.4-0.4,0.8-0.4,1.3c0,1.2,1.1,1.9,2.2,1.9c1.2,0,2.4-0.9,2.4-2.8
		c0-3-2.5-7.7-9.3-7.7h-0.1c-4.1,0-7.5,1.4-10.2,4.1c-3.2,3.2-5.1,8.3-5.1,13.6c0.1,10.1,4.2,20.9,15.8,20.9c8.3,0,9.2-7,9.2-7.1
		v-0.3l-1.3-0.4L261.1,464.9z"/>
	<path class="st0" d="M189.1,434.8h2c1,0,1.5,0.7,1.5,1.8c0,0.2,0,0.5-0.1,0.8l-5.5,23.9l-7.3-25.7c0-0.1,0-0.2,0-0.4
		c0-0.3,0.2-0.5,0.7-0.5h2v-1.3H171v1.3h1.9c0.7,0,1.1,0.6,1.3,1.1c0.6,2.1,10.3,35.7,10.4,36l0.1,0.3h1.4l0.1-0.3
		c1-4.1,6-25.4,7.7-32.3l0.6-2.4c0.3-1.1,1-2.3,2.4-2.3h1.3v-1.3h-8.9v1.3H189.1z"/>
	<path class="st0" d="M145,447.9c-2.7-0.5-7.4-2-7.4-6.3v-0.3c0-3.7,2.7-6.4,6.5-6.4c6.3,0,6.4,6.2,6.4,6.5v0.4l1.5-0.1v-7.4
		l-0.3-0.1c0,0-3.6-0.8-6.9-0.8h-0.3c-6.7,0.1-11.3,4.1-11.3,10.1c0,4.8,3.2,8,9,9c4.6,0.8,7.7,4.2,7.7,8.4c0,4.8-2.1,9.9-8.2,10
		c-7.6,0-7.9-7.6-7.9-7.9v-0.3l-1.6-0.1v8.9l0.3,0.1c0,0,4.1,0.7,8.2,0.7h0.2c8.4,0,13.8-5.1,13.8-13.1
		C154.7,453.3,151.2,449.2,145,447.9z"/>
	<path class="st0" d="M223.9,463.1c-1.5,5.4-4.5,7.7-10.6,7.7H213c-3.6,0-3.8-0.9-3.8-2.4c0-0.3,0-0.7,0-1.1c0-0.5,0.1-1.1,0.1-1.8
		l-0.1-17.6l4.9,0.2h0.1c2.3,0.1,2.9,0.1,3.7,1.2c0.6,0.8,0.7,1.8,0.9,3.2l0.1,0.6h1.2v-11h-1.2v0.3c-0.2,1.4-0.3,2.5-1.1,3.3
		c-0.7,0.9-1.1,0.9-2.8,0.9c-0.3,0-0.5,0-0.8,0l-5,0.1v-11.8l7.2,0.2c1.8,0.1,3.7,0.2,4.5,1.2c0.9,1.1,1,1.4,1.2,3.2
		c0,0.4,0.1,0.8,0.2,1.3v0.3h1.2v-7.4h-23.1v1.3h2.9c0.7,0,0.8,0.2,0.8,0.7v34.7c0,0.3-0.2,0.6-0.5,0.6h-3.2v1.3h24.3l0.5-9
		L223.9,463.1L223.9,463.1z"/>
	<path class="st0" d="M25.4,462.8l-0.1,0.3c-1.5,5.4-4.5,7.7-10.6,7.7h-0.4c-3.6,0-3.8-0.9-3.8-2.4c0-0.3,0-0.7,0-1.1
		c0-0.5,0.1-1.1,0.1-1.8l0.1-17.5l4.9,0.2h0.1c2.3,0.1,2.9,0.1,3.7,1.2c0.6,0.8,0.7,1.7,0.9,3.2l0.1,0.6h1.2v-11h-1.2v0.3
		c-0.2,1.4-0.3,2.5-1.1,3.3c-0.7,0.9-1.1,0.9-2.8,0.9c-0.3,0-0.5,0-0.8,0l-5,0.1V435l7.2,0.2c1.8,0.1,3.7,0.2,4.5,1.2
		c0.9,1.1,1,1.4,1.2,3.2c0,0.4,0.1,0.8,0.2,1.3v0.3H25v-7.4H1.9v1.3h2.9c0.7,0,0.8,0.2,0.8,0.7v34.7c0,0.3-0.2,0.6-0.5,0.6H1.9v1.3
		h24.2l2.1-9.1L25.4,462.8z"/>
	<path class="st0" d="M53.7,470c-1-1.9-8.3-17.6-9.1-19.3c0.6-1.4,5.3-12.3,6.3-14.2c0.5-0.8,1-1.6,2.2-1.6H55v-1.3h-9v1.3h2
		c0.4,0,1.1,0.2,1.1,1.1c0,0.1,0,0.5-0.2,0.9l-5.1,12.3L37,435.6v-0.1c0-0.1,0-0.1,0-0.1c0-0.3,0.4-0.4,0.8-0.4h2v-1.3H28.1v1.3h2.2
		c0.7,0,0.9,0.2,1.3,0.8c1,1.9,7.3,15.1,8,16.6c-0.7,1.6-6.5,15-7.5,16.9c-0.5,0.8-1,1.6-2.2,1.6H28v1.3h9.1v-1.3h-2
		c-0.4,0-1.1-0.2-1.1-1.1c0-0.1,0-0.5,0.2-0.9l6.3-15.1c1.5,3.1,7.1,15,7.8,16.4v0.1c0,0.1,0,0.1,0,0.1c0,0.3-0.4,0.4-0.8,0.4h-2
		v1.3h11.6v-1.3h-2.2C54.4,470.8,54.1,470.7,53.7,470z"/>
	<path class="st0" d="M102.6,463.1c-1.6,5.9-3.9,7.8-9.3,7.8c-4,0-4.1-1.2-4.1-3.4v-31.9c0-0.5,0.1-0.7,0.8-0.7h2.9v-1.3H80.5v1.3
		h2.9c0.5,0,0.7,0.5,0.7,0.7v34.7c0,0.3-0.2,0.6-0.5,0.6h-3.2v1.3h22.9l0.6-9.2l-1.3-0.1V463.1z"/>
	<path class="st0" d="M122,434.8h2.4c0.6,0,1.3,0.4,1.3,1.3v26.3c0,4.9-2.5,7.6-7.1,7.6c-3.7,0-6.5-3.3-6.5-7.6l-0.1-27
		c0-0.5,0.1-0.7,0.8-0.7h2.9v-1.3h-12.3v1.3h2.9c0.7,0,0.8,0.2,0.8,0.7v27.8c0,5.3,4.3,8.9,10.4,8.9c6.2,0,10-3.4,10-8.9l0.1-27.2
		c0-0.6,0.2-1.3,1-1.3h2.6v-1.3h-9v1.4L122,434.8L122,434.8z"/>
	<path class="st0" d="M78.5,464.9c0,0.2-0.5,5.9-7.9,5.9c-9.1,0-10.1-13.7-10.1-19.6c0-6,2-16.2,9.6-16.3h0.1c4.8,0,5.5,2.5,5.5,4.9
		c0,0.3-0.2,0.7-0.4,1.1c-0.2,0.4-0.4,0.8-0.4,1.3c0,1.2,1.1,1.9,2.2,1.9c1.2,0,2.4-0.9,2.4-2.8c0-3-2.5-7.7-9.3-7.7H70
		c-4.1,0-7.5,1.4-10.2,4.1c-3.2,3.2-5.1,8.3-5.1,13.6c0.1,10.1,4.2,20.9,15.8,20.9c8.3,0,9.2-7,9.2-7.1v-0.3l-1.3-0.4L78.5,464.9z"
		/>
	<path class="st0" d="M397.3,441h1.2v-0.3c0.4-2.7,0.6-2.9,1.6-4.2l0.1-0.2c0.8-1,1.6-1.3,3.4-1.3h3.4v35.3c0,0.3-0.2,0.6-0.5,0.6
		h-3.2v1.3h12.4v-1.3h-3.2c-0.1-0.1-0.3-0.5-0.4-0.8v-35h3.4c1.7,0,2.5,0.3,3.4,1.3l0.1,0.2c1,1.2,1.2,1.5,1.6,4.2v0.3h1.2v-7.4
		h-24.6v7.3H397.3z"/>
	<path class="st0" d="M278.4,433.5c-9.1,0-15.1,7.9-15.1,19.5c0,11.2,6.4,19.3,15.1,19.3c8.6,0,14.5-7.9,14.5-19.3
		C292.9,441.1,287.2,433.5,278.4,433.5z M278.4,471c-7.9-0.1-9.5-9.8-9.5-18c0-11,1.6-18.3,9.5-18.3c8.3,0,8.9,7.9,8.9,18.3
		C287.3,464.1,285.8,471,278.4,471z"/>
	<path class="st0" d="M451.8,433.5c-9.1,0-15.1,7.9-15.1,19.5c0,11.2,6.4,19.3,15.1,19.3c8.6,0,14.5-7.9,14.5-19.3
		C466.3,441.1,460.6,433.5,451.8,433.5z M451.8,471c-7.9-0.1-9.5-9.8-9.5-18c0-11,1.6-18.3,9.5-18.3c8.3,0,8.9,7.9,8.9,18.3
		C460.7,464.1,459.2,471,451.8,471z"/>
	<path class="st0" d="M485.5,434.8h2.4c1.2,0,1.3,1.8,1.3,2.5l-0.1,21.9c-1.6-4-5.3-11.6-6.4-13.8l-0.2-0.3c-1.6-3-5.3-10-6.9-11.4
		l-0.1-0.1h-1.1c-0.7,0-1.7,0-2.7,0c-1.4,0-3.1,0-4.7,0h-0.4v1.3h2.9c0.6,0,0.9,0.5,0.9,1c0,1.8-0.2,32.2-0.2,32.5
		c0,1.6-0.4,2.4-1.3,2.5h-2.4v1.3h9v-1.3h-2.4c-1.2,0-1.3-1.9-1.3-2.5l-0.2-31.6c1.7,2.3,5.4,8.9,6.9,11.7
		c0.4,0.8,9.9,19.4,10.4,23.6v0.3h0.3c0.2,0,0.9-0.1,1-0.1h0.3V472c0-1.8,0.2-34.2,0.2-34.5c0-1.6,0.4-2.4,1.3-2.5h2.4v-1.3h-9v1.1
		L485.5,434.8L485.5,434.8z"/>
	<path class="st0" d="M432.6,470.3v-34.7c0-0.5,0.1-0.7,0.8-0.7h2.9v-1.3h-12.4v1.3h2.9c0.7,0,0.8,0.2,0.8,0.7v34.7
		c0,0.3-0.2,0.6-0.5,0.6h-3.2v1.3h12.5v-1.3h-3.2C432.9,470.8,432.6,470.6,432.6,470.3z"/>
	<path class="st0" d="M393.5,464.9c0,0.2-0.5,5.9-7.9,5.9c-9.1,0-10.1-13.7-10.1-19.6c0-6,2-16.2,9.6-16.3h0.1
		c4.8,0,5.5,2.5,5.5,4.9c0,0.3-0.2,0.7-0.4,1.1c-0.2,0.4-0.4,0.8-0.4,1.3c0,1.2,1.1,1.9,2.2,1.9c1.2,0,2.4-0.9,2.4-2.8
		c0-3-2.5-7.7-9.3-7.7h-0.1c-4.1,0-7.5,1.4-10.2,4.1c-3.2,3.2-5.1,8.3-5.1,13.6c0.1,10.1,4.2,20.9,15.8,20.9c8.3,0,9.2-7,9.2-7.1
		v-0.3l-1.3-0.4L393.5,464.9z"/>
	<path class="st0" d="M340.7,463.1c-1.6,5.9-3.9,7.8-9.3,7.8c-4,0-4.1-1.2-4.1-3.4v-31.9c0-0.5,0.1-0.7,0.8-0.7h2.9v-1.3h-12.3v1.3
		h2.9c0.5,0,0.7,0.5,0.7,0.7v34.7c0,0.3-0.2,0.6-0.5,0.6h-3.2v1.3h22.9l0.6-9.2l-1.2-0.1L340.7,463.1z"/>
	<path class="st0" d="M315.4,463.1c-1.6,5.9-3.9,7.8-9.3,7.8c-4,0-4.1-1.2-4.1-3.4v-31.9c0-0.5,0.1-0.7,0.8-0.7h2.9v-1.3h-12.3v1.3
		h2.9c0.5,0,0.7,0.5,0.7,0.7v34.7c0,0.3-0.2,0.6-0.5,0.6h-3.2v1.3h22.9l0.6-9.2l-1.3-0.1L315.4,463.1z"/>
	<path class="st0" d="M367.3,463.1c-1.5,5.4-4.5,7.7-10.6,7.7h-0.4c-3.6,0-3.8-0.9-3.8-2.4c0-0.3,0-0.7,0-1.1c0-0.5,0.1-1.1,0.1-1.8
		l-0.1-17.6l4.9,0.2h0.1c2.3,0.1,2.9,0.1,3.7,1.2c0.6,0.8,0.7,1.8,0.9,3.2l0.1,0.6h1.2v-11h-1.2v0.3c-0.2,1.4-0.3,2.5-1.1,3.3
		c-0.7,0.9-1.1,0.9-2.8,0.9c-0.3,0-0.5,0-0.8,0l-5,0.1v-11.8l7.2,0.2c1.8,0.1,3.7,0.2,4.5,1.2c0.9,1.1,1,1.4,1.2,3.2
		c0,0.4,0.1,0.8,0.2,1.3v0.3h1.2v-7.4h-23v1.3h2.9c0.7,0,0.8,0.2,0.8,0.7v34.7c0,0.3-0.2,0.6-0.5,0.6h-3.2v1.3h24.3l0.5-9l-1.2-0.3
		L367.3,463.1z"/>
	<path class="st0" d="M4.2,60.7h3c0,0,0-2.2,0.3-3.1c0.3-0.9,1.2-1.2,1.8-2.2c0.6-0.9,2.3,0,3.5-0.6s0.6-0.9,0.9-2.5
		c0.3-1.5,0.9-0.6,2.1-0.6s2.4-0.3,3-1.3c0.6-0.9,2.1-1.2,3.5-2.2c1.5-0.9,0,0,3.5,0.3s2.6,2.5,2.6,2.5s3,0.3,3.9-0.6
		c0.9-0.9,1.8,0.3,3,1l-0.9,1.8c0,0-2.7,0.9-4.1,2.2c-1.5,1.2-2.3,2.2-2.3,2.2s-2.7,1.6-3.5,1.9c-0.9,0.3-3.8-0.6-5.3-1.6
		c-1.5-0.9-2.1,0-3.2,0.6c-1.2,0.6-3.5,2.5-3.8,4c-0.2,1.1-2.1,1.3-3.3,1.3c0.8,0.1,1.9,0.2,3,0.9c0,0,2.4,1.6,2.4,2.5
		s-0.9,0.9-2.6,1.3c-1.8,0.3-6.5,0-7.4-0.3S4,67,4,67l0.9-2.2c0,0,2.4-0.9,3.3-0.9l-4.8,0.3c0,0-0.1-0.3-0.2-0.6v8.1
		c0.3,0.2,0.6,0.4,0.8,0.6c0,0-1.2,0.9,1.2,0s1.8,0.6,2.4,2.5s0.3,2.2,1.5,3.7s1.5,2.2,0.9,3.4c-0.6,1.2-2.7-0.3-2.7-0.3
		s-2.4,0-3.2-0.9c-0.3-0.3-0.6-0.5-0.8-0.7l-0.1,39.7h77.7c0.4-1.5-0.7-3.5-0.9-4.1c-0.2-0.6-2.7-7.3-6.6-10.4s-7-6.3-7.9-6.9
		c-1-0.6-6.2-3.7-7.6-4.9c-1.4-1.2-8.4-3.9-8.4-3.9l-3,0.5c0,0-3.1,1-4.1,1.7c-1,0.6-4.9,2-5.4,2c-0.6,0-5-1.2-8.4-2
		c-3.3-0.8-4.8-1.8-5.8-2.7c-1-0.8-3.1,0-3.9,0s-4.5-1.6-6.2-2.2s-3.1-3.9-3.1-3.9l2.1-0.6c0,0,1.5,0.6,3.5,2.4s4.8,1.4,4.8,1.4
		l-1.5-3.3c0,0,2.5-1,3.3,0s1.2,1.8,1.4,2.4c0.2,0.6,4.7,2.7,4.7,2.7s5.2,1.6,6.8,2.5c1.5,0.8,6-1,7.4-1.8c1.3-0.8,0,0-0.8-0.4
		s-3.7-1.2-4.6-1.4c-1-0.2,0.2-1.5,0.2-2.2c0-0.8-0.2-1.8-0.2-1.8l3.7,0.2c0,0,0.8,0.6,1.4,1.2c0.6,0.6,6,1.6,7.2,1.6s2.9,0,3.5,0.2
		s4.5,2,5.8,2.9c1.4,0.8,6.5,3.7,7.8,4.5c1.4,0.8,4.1,2.1,5.8,3.7c1.8,1.6,6.6,8,6.6,8S77.3,102,77,101c-0.4-1-5.8-7.4-7.8-9.6
		c-2-2.3-4.3-4.1-6.2-4.7c-1.9-0.6-8.5-2.4-10.3-2.9c-1.8-0.4-5.7,0.4-6.8-0.4c-1.2-0.8-1.6-0.8-3.1-1.4s-6-0.2-7.4-0.2
		s-3.1,0-4.6,0.4c-1.6,0.4-9.7-2.7-10.5-2.7c-0.7,0-2.1-3.3-2.1-3.3s2.5,0,4.4,0.4c2,0.4,11.9-0.8,12.7-0.8s3.5,0.2,5.2,0.4
		c1.8,0.2,2.7,1.2,6.8,4.1c4.1,2.8,5.4,0.2,6.2,0.2s3.9,0.6,4.9,1.2s3,0.4,4.9,1.2c2,0.8,6.2,1,7.2,1s2.1,0.8,2.1,1.8
		s-0.2,1.8-0.2,2.5c0,0.6,4.8,4.7,5.8,5.9c1,1.3,1.3,0.6,1.7,0c0.4-0.6,0-1.8-0.6-2.4s-2.2-3.1-2.2-3.1l-1-4.9c0,0,1.4-2.6,2.3-3.7
		c1-1,3.7-0.2,3.7-0.2l-1.4,3.9v3.7c0,0.8,1.4,1.4,1.4,1.4h2.7c0.8,0-0.4,2-1,2.5c-0.6,0.4-2.1,5.3-2.7,6.7
		c-0.5,1.4,2.2,4.9,2.2,4.9l0.2,3.1l0.6,1.2l2.7-0.4c0,0,1.2-0.8,1.2-1.8s0.6-3.1,1.9-6.3c1.3-3.3,1.2-2.7,3.3-7.3
		C95.3,86.7,95,84,95,84l-1-1.2c0,0-3.2,1.9-5.6,1.9c-2.3,0-2.6,2.2-3.5-0.3s-0.9-2.5,0.3-4c1.2-1.5,2.4-2.2,2.4-2.2
		s2.3-1.5,3.2-0.3c0.9,1.2,2.1,1.8,3.2,1.2c1.2-0.6,2.4-4,3.3-3.1s2.1,2.8,1.5,3.7c-0.6,0.9-2.4,1.3-3,2.2c-0.6,0.9-1,2-1,2h2.9
		l11.8,3.9l-7.2,1.4l-2.7,0.4l-3.9,1.9l-2.1,4.7c0,0,0.6,1.2,1.7,2.7c1.2,1.4,0.2,1.8,0.2,1.8s-1.9,1.8-2.7,2
		c-0.8,0.2-1.2,1.4-1.2,2.2c0,0.8,0.4,1.2,1.5,1.4c1.2,0.2-1.3,2.5-1.3,2.5l-1.4,2.9c0,0-1.1,2-1.4,3.9c-0.1,1.1,0.2,2.9,0.5,4.1
		h12.9H179v-56l12.3,7.9l4.3-6.7L94.2,0H3v31.6c0-0.1,0.1-0.2,0.1-0.4c0.3-0.9,2.7-0.9,2.7-0.9s1.8,1.9,0.9,3.4s0,0-0.9,1.2
		s-1.5,0.6-2.7,0.3c-0.1,0-0.1,0-0.1,0v7.3L4.7,43l3.5,3.4l0.6,3.1c0,0-3.4-0.5-5.8-1.6v3.3c0.5,0.2,1,0.3,1.3,0.4
		c1.2,0.3,2.1,1.9,2.1,1.9l-0.5,4c-0.6,4-1.8,1.2-1.8,1.2S3.7,58.8,3,58.8V61C3.3,60.2,4.2,60.7,4.2,60.7z M32,71.9
		c-2.7,2.8-0.6,1.2-0.9,3.4c-0.3,2.2-3.2-1.2-4.5-1.9c-1.2-0.6-2.9-0.9-4.7-1.8c-1.7-0.9-4.1,2.8-4.1,3.7c0,0.9-4.7-0.3-6.5,0.9
		C9.6,77.5,9,75.9,9,75.9l0.6-3.1c0,0,2.7-2.5,3.3-3.7s1.2-0.3,3.8-0.6c2.7-0.3,2.3-2.5,2.9-5.3s5.3-2.2,6.8-2.2s2.1-0.9,3.8-2.8
		c1.8-1.9,2.4-1.6,3.3-2.5c0.9-1,3.5,0,4.4,0s3.9,1.2,4.5,2.2c0,0-0.3,1.3-0.9,3.4c-0.6,2.2,2.9,0.9,4.2,1.9
		c1.2,0.9-0.3,0.9-1.5,1.3c-1.2,0.3-2.3,0-3.2-0.3c-0.9-0.3-2.7,2.5-4.1,2.8C35.3,67.2,34.7,69.1,32,71.9z M45.9,68.6
		c-0.8,0.4-0.2,1-0.2,2s-0.2,1.4-1.2,1.6s-0.6,0-1.5,1.2c-0.6,0.8-0.7,1-0.8,1s-3.3-1.2-3.9-1.8c-0.6-0.6,0.4-2.2,1-3.5
		c0.6-1.2,0.2-1,0.2-1.8s1.8,0,1.8,0l1.3-0.2c0,0,0.4-0.8,0.8-1.4c0.4-0.6,2.3-0.8,2.9-0.2l0.6,1C47.5,67.6,46.7,68.2,45.9,68.6z
		 M47.1,59c-1-0.4-0.3-1.6-0.3-2.7c0-1,1.5-1.8,1.5-1.8l0.6-1.8c0,0,0.6-1.4,1-2s1-0.6,1.8-0.8s1.6-0.2,1.6-0.2l2,0.2l1.3-0.2
		l1.8-1.4l2.1-1.8l3.1,1l1.2,0.2l1.8,1.2c0,0,1,0,2.1-1c1.2-1,2.2-0.6,2.9-0.8c0.8-0.2,0.4,1,0.4,1.8s-1,1.4-1.7,1.8
		c-0.8,0.4-1.6,0.4-2.5,0.8c-1,0.4-1.4,1.2-2,1.2s-2.5,0.2-2.5,0.2s-1.4,0.6-2,0.6s-1,0.4-1.6,1.6c-0.6,1.2-1.5-0.2-1.5-0.2
		s-1.8-2-2.1-2.9c-0.4-0.8-1.4,0.2-1.4,0.2s-1.1,0.8-1.1,1.4c0,0.6,2.5,1.2,3.3,1.4s0,1.4-0.6,3.1c-0.6,1.6-1.6,0.6-1.6,0.6L53,56.2
		c0,0-1.6,0-3.1,1.2C48.1,58.8,48.1,59.4,47.1,59z M77.9,48.2c0.6,0.4,1.8,0.6,2.3,0.6c0.6,0,1.8-0.2,2.3,0.2
		c0.6,0.4,1.5,0.8,1.7,1.4c0.2,0.6,1.2,1.4,0.2,1.8c-1,0.4-3.1,1.2-3.7,1.2h-7.8c-0.6,0,0.6-1,0.6-1s-1.3-2.7-0.6-3.1
		c0.8-0.4,0.6-1.4,1.5-2.2c1-0.8,0.8-2,2.5-1.8c1.8,0.2,5.6-0.4,5.1,0.2C81.6,46.2,77.4,47.8,77.9,48.2z M76.2,63.1
		c0.4,2.4-0.2,1.6-1.3,2.9c-1.2,1.2-2.3,0.4-2.3,0.4s-1.6,2.2-1.9,3.5c-0.4,1.2-1.4,1.6-2.2,2c-0.8,0.4-2.3-1-2.3-1L64.7,70
		c0,0-1.2,0.4-1.7,0.2c-0.6-0.2-2.7-0.6-2.9-1.2s-1-0.4-1.8-0.4s-2.1-0.8-2.1-0.8s-3.5-0.8-6.2,0s-1.5-1.8-1.5-2.9
		c0-1,0.6-2.2,1.3-3.7c0.8-1.4,2.7-0.8,4.1-1.4c1.4-0.6,2.3-0.6,3.9-1.4c1.5-0.8,1.7-0.4,2.9-0.4h2.5c1,0,1.4-0.4,2.3,0.2
		c1,0.6,2.2,1.2,2.2,1.2l1.5-0.2c0,0,2.1,0,2.7,0.6C71.9,59.8,75.8,60.7,76.2,63.1z M62.2,81.5c-0.6-1.6-0.9-2.5-2.7-3.1
		s-4.7-1.6-5.6-0.6c-0.9,0.9-3.3,1.8-3.3,1.8l-2.9-3.1c0.3-4.1,0.9-5,2-5.6c1.2-0.6,0.9-1.6,3.3-0.6c2.4,0.9,5.9,2.2,5.9,2.2
		l2.7-0.3c0,0,4.4,0.9,4.4,1.9c0,0.9,1.8,5.3,2.7,5.3c0.9,0,1.5,2.2,1.5,2.2S62.7,83.1,62.2,81.5z M86.3,75.8
		c-0.6,0-0.6,1.2-0.8,1.8c-0.2,0.6-0.6,0.4-1.4,0.8s-1.9,0.8-2.5,0s-0.6-1.8-1.5-1.8c-1,0-2.5,0.2-3.5,0.4c-1,0.2-1,0.4-2-0.6
		s1.6-3.9-1-1c-2.5,2.9-2.5,3.5-3.1,2.9C70,77.6,69,78,69,77s0-1.4,0.6-1.6s1.5-2.2,1.5-2.2s-1.7,0.2,0-2s-0.6-2.6,2.3-3.5
		c2.9-0.8,4.1-1.6,4.1-1.6s0.8-0.2,1,0.4s1.5,1.2,1.5,1.2l1.2-1.2c0,0,1,1.6,0.4,2.4s-2.9,2.8-1.9,3.1c1,0.2,2.5,0,3.3,0.2
		s4.1,3.3,4.1,3.3S86.9,75.8,86.3,75.8z M97.3,71.9c-1.2,0.6-1.2,1.9-2.4,2.5c-1.2,0.6-1.2,1.6-2.4,0.9c-1.2-0.6-2-2.5-3-2.5h-4.1
		V70c0,0,0.9-1.2,2.4-1.9c1.5-0.6,6.8-5.3,7.9-1.5C97,70.3,98.5,71.3,97.3,71.9z M97,61.7l-1.6-0.2c0,0-0.8,0-1.4,0.2
		s-0.6,1.8-1.2,2s-0.8,0.2-2.4,1.9c-1.5,1.6-1.5,0-1.5,0h-1.5L87.3,67c-0.2,1.4-0.8,0.6-1.8,0.4s-1-0.2-1.6-0.2S81.2,66,81.2,66
		L80,64.8c0,0-0.4-1.2-0.4-1.8s0.6-1.4,1.2-1.6c0.6-0.2,1.1-1.2,1.1-1.2s0.8-3.9,1.6-3.9H86c0.8,0,1.8-0.2,1.8-0.2s3.3-1.8,4.5-2.8
		s1.6,0.8,2.3,2c0.8,1.2,0.4,2,0.4,2s1.2,1.6,2.1,1.8c1,0.2,1,1.2,1.6,1.4C99.3,60.7,97,61.7,97,61.7z M105,75.6
		c-0.9,0.6-3,1.8-3.5,0.3c-0.6-1.5-2.1-4.7-2.1-4.7s-0.6-5.6,0.3-6.2c1.2-0.9,5.6-2.5,7.1-1.3c1.5,1.3,5,2.5,5,2.5s2.9-0.6,5.6,1.8
		c2.6,2.5,4.1,4,4.1,4s3.2,6.5,2.1,6.5c-1.2,0-5,2.2-5,2.2s-2.9-0.3-4.4-1.5c-1.5-1.3-2.4-1.3-3-0.3c-0.6,0.9-3,2.2-3.8,0.6
		C106.5,78.1,105.8,75,105,75.6z M125.4,89.6c-1.5,0-3.5,1.5-5,2.5c-1.5,0.9-1.5,1.8-3.2,0.6c-1.8-1.2-3.5-1.6-3.5-1.6
		s-2.4-1.5-2.6-2.8c-0.3-1.2-3-4.7-3-4.7l-0.3-0.9c2.6-0.6,2.3,3.4,5.9,0.9c3.5-2.5,4.4-2.2,5.6-1.9c1.2,0.3,7.1,0.3,7.7,1.6
		c0.6,1.2,2.1,5.9,2.1,5.9S126.8,89.6,125.4,89.6z M137.5,68.8c-1.2,2.2-0.6,5.3-2.4,4.4c-1.8-0.9-4.4-2.2-5.9-2.2s-2.9,1.5-4.7-0.3
		c-1.8-1.9-10.9-7.5-12.7-6.5c-1.8,0.9-10.4-4-10.4-4l-0.3-2.2c1.8-4.7,5-4,5.9-4s7.4,0.6,7.7,1.6c0.3,0.9,0.3,1.9,1.2,2.8
		c0.9,0.9,3.5,1.9,5,1.3c1.5-0.6,2-0.3,2.6,0.9s7.1,4.7,10.6,5.3C137.8,66.3,138.6,66.6,137.5,68.8z M103.8,32.5
		c1.5-0.6,8,2.2,8.9,2.5s4.1-0.3,4.4,2.5s1.5,4,1.5,4s1.5,2.5,3.2,0.3c1.8-2.2,8,0,8,0s5.3,1.9,3.5,3.4s-4.7,5.9-4.7,5.9
		s0.3,3.4-2.7,1.6c-2.9-1.8-4.4-3.1-5.9-2.2c-1.5,0.9-1.5,1.3-2.7,0.9c-1.2-0.3-6.5-2.5-6.2-3.4s5.6-0.9,5.6-0.9s0.6-1.9-0.3-2.2
		s-6.2,0-6.2,0s-0.9-0.3-0.9-1.2s0.6-2.8-0.6-2.8s-2.7-1.2-2.7-1.2l-4.2,0.8c0.4,0.1,0.8,0.3,1.5,1c2.4,2.2,2.4,1.3,3.2,2.5
		c0.9,1.2,7.1,8.4,7.1,8.4s6.8,7.5-0.6,1.5c-7.4-5.9-6.2-0.9-8.3-2.2c-2.1-1.3-4.7-0.9-6.5,0.3s-4.7-3.1-5.6-1.6
		c-0.9,1.6,0,2.2-2.1,0.3s-2.1-3.1-2.9-4.1c-0.9-0.9-3.3-1.2-3.3-1.2s-5.9-3.7-6.8-3.4s-0.6,1.5-2.4,1.9c-1.8,0.3-1.2,2.2-1.8,0.3
		c-0.6-1.9,1.2-5,1.2-5c1.5-0.6,5.6-1.2,7.1-0.3s4.7,0.9,6.4,0.9c1.8,0,4.1-0.3,5,0.9s3.8,0.6,5.9,0.3c1-0.2,1.5-0.6,1.9-0.7l-2.2-2
		C99.1,38.4,102.3,33.1,103.8,32.5z M48,25.4c0.3-0.9,2.9-4.3,2.9-4.3c3.3-0.9,2.1,0.6,2.1,0.6s-0.6,1.2-1.8,3.7s-1.8,1.2-3.2,1.8
		C46.5,27.8,47.7,26.3,48,25.4z M48,29.2c0,0,2.2-0.4,2.9-0.8c0.8-0.4,1.1-1.2,1.1-1.2s0.2-0.6,1-1.8c0.7-1.2,0.4-2,1-2.9
		c0.6-0.8,1-0.8,1.7-1.6c0.8-0.8,5.6,0.8,5.6,0.8l1.8,1l1.5-0.6c0,0,2.7,0.2,3.1,0.8c0.4,0.6,2.7,1.9,3.1,1c0.6-1.2,5,0.6,5.6,0.8
		c0.6,0.2,1.4,1.4,1.4,1.4s-2.2,1.3-2.9,1.3c-0.8,0-1,0-2.5-0.2s-0.8,0-1.4-0.2s-1.5,0.2-1.5,0.2s-1.6,0.4-3.7,0.4
		c-2.2,0-2.5-0.4-3.1-0.6s-1.5-0.6-2.3-0.8c-0.8-0.2-1,0.4-1.6,1.7c-0.6,1.2-1.9,1.6-2.5,1.6s-1.2-0.2-1.8-0.2s-0.8,0.8-2.9,2
		c-2.2,1.2-4.3,0.2-4.5-0.4C47,30.2,48,29.2,48,29.2z M48.8,34.3c0.6,0.2,1.2-0.6,2.1-0.2c1,0.4,1,1,1.6,0.6s1.9-1.8,1.9-1.8l3.1-2
		c0,0,3.7-1.6,4-1c0.4,0.6,1.8,0.8,1.9,1.6c0.2,0.8,2.9,2.3,2.9,1.2c0-1,2.1-2.5,2.1-2.5s3.7-2.6,4.3-2.4c0.4,0.1,3.5,0.9,5.4,1.6
		c0.4-0.3,0.8-0.6,0.9-0.9c0.4-0.6,1.3-0.4,1.3-0.4l1.5-1.8l2.1-1c0,0,2,0,2.7,0.4c0.8,0.4,1.2-0.2,1.2-0.2l1.7-0.8l1,1.6
		c0,0,0.6-0.4,1.7-0.8c1.2-0.4,1.2,0,1.8,0c0.6,0,2.9,1.2,4.3,3.1c1.4,1.8,1,1.2,1,1.2s0.8,0.8,1.5,1.6c0.8,0.8-0.2,1.2-0.8,1.4
		c-0.6,0.2-1.1,0-2.3,0c-1.2,0-1.2,0-1.7-0.4c-0.1,0-0.2,0-0.3,0c1.4,0.6,2.6,1.2,2.6,1.2s1.4,1,0,1.8s-2.3,0.2-3.7,1.2
		c-1.4,1-1.9,1.2-2.7,1.2c-0.8,0-3.7,0.2-4.7-0.8c-0.9-1-8.3-1.6-9.3-1s0.6-0.2-2.5,1.6C72.5,39.4,73,40,71.3,40
		c-1.8,0-5.2-3.9-7.6-1.2c-2.3,2.6-2.1,2.6-4.1,4.3c-1.9,1.6-4.8,4.1-5.8,3.7c-0.9-0.4-2.9-3.5-4.1-2.7c-1.1,0.8-1.3,1.2-2.1,2.1
		c-0.8,0.8-5.4,2.4-6,1.8c-0.6-0.6-1.2-0.2-2.7,0.6S35,49.4,33.8,49c-3.1-1.1,1.6-3.7,2.2-3.7c0.6,0,1.2-0.2,1.5-1.2
		c0.4-1,1.9-3.7,1.9-3.7s2.4-2,3.7-3.5c1.4-1.4,2.9-2.2,2.9-2.2S48.2,34.1,48.8,34.3z M20.6,34c0-1,1.5-1.8,1.5-1.8l0.6-1.8
		c0,0,0.6-1.4,1-2s1-0.6,1.7-0.8c0.8-0.2,1.6-0.2,1.6-0.2l2,0.2l1.4-0.2l1.7-1.4l2.2-1.8l3.1,1l1.2,0.2l1.8,1.2c0,0,1,0,2.1-1
		c1.2-1,2.1-0.6,2.9-0.8c0.8-0.2,0.4,1,0.4,1.8s-1,1.4-1.8,1.8s-1.5,0.4-2.5,0.8s-1.4,1.2-2,1.2S37,30.6,37,30.6s-1.4,0.6-1.9,0.6
		c-0.6,0-1,0.4-1.6,1.6C32.9,34,32,32.6,32,32.6s-1.8-2-2.1-2.9c-0.4-0.8-1.3,0.2-1.3,0.2s-1.2,0.8-1.2,1.4s2.5,1.2,3.3,1.4
		s0,1.4-0.6,3.1c-0.6,1.6-1.5,0.6-1.5,0.6l-2-2.4c0,0-1.6,0-3.1,1.2C22,36.5,22,37.1,21,36.7C20,36.3,20.6,35,20.6,34z M16.7,42.1
		c0.6-1.2,2.1-0.9,2.3-1.8c0.3-0.9,1.2-0.9,3.6-0.9c2.3,0,2,0,2.9-0.6s4.7-0.9,5.6-0.9l4.7-3.4l2,2.2c0,0-1.2,1.6-2.3,1.6
		c-1.2,0-0.6,2.5-2.7,4s-1.8,1-3,2.5s-1.5,4-1.5,4s-2.1-1.2-2.9-1.5c-0.9-0.3-1.7-0.9-3.2-0.6c-1.5,0.3-4.7,1.5-6.2,1.5
		s-1.8,1.9-3.2,1.9c-1.5,0-0.6-2.5-0.6-3.7s0.9-1.5,2.1-2.5C15.5,42.7,16.1,43.4,16.7,42.1z M9.3,30c0-0.9,0.9-1.5,2.1-1.5
		c0,0,1.7-0.3,2.9,0.6s-0.6,1.2-1.8,1.9c-1.2,0.6-2.1,1.2-3,1.2C8.7,32.2,9.3,30.9,9.3,30z"/>
	<path class="st0" d="M2.9,61.1c0,0.1-0.1,0.2-0.1,0.3c-0.2,0.7,0,1.6,0.1,2.2V61.1z"/>
	<polygon class="st0" points="43.4,209.4 13.3,209.4 13.3,162.2 2.3,162.2 2.3,218 43.4,218 	"/>
	<path class="st0" d="M63.3,192.9c-6,0-10.6,1.2-13.7,3.5c-3.2,2.3-4.7,5.4-4.7,9.1c0,3.7,1.9,6.9,5.7,9.5s9.1,3.9,15.9,3.9
		c6.5,0,12.3-1.2,17.3-3.6c1-0.4,1.5-1.1,1.5-1.9V190c0-4.8-1.7-8.4-5.1-10.9s-8.4-3.8-15.1-3.8c-7.8,0-14,2.1-18.7,6.3l7.2,5.4
		c2.6-2.6,6.3-3.9,11.2-3.9c3.7,0,6.3,0.6,7.7,1.7c1.4,1.1,2.1,2.7,2.1,4.7v3.4H63.3z M74.6,209.4c-2.2,1.3-5,1.9-8.4,1.9
		c-3.6,0-6.3-0.5-8.2-1.6s-2.8-2.6-2.8-4.5c0-1.7,0.7-3.1,2.2-4.2c1.5-1.1,3.6-1.6,6.4-1.6h10.7L74.6,209.4L74.6,209.4z"/>
	<path class="st0" d="M152.6,166.9c-4-3.2-9.3-4.7-15.9-4.7h-23.9V218h11v-18.5h12.9c6.4,0,11.7-1.7,15.8-5
		c4.1-3.4,6.1-7.9,6.1-13.6C158.5,174.7,156.5,170.1,152.6,166.9z M144.3,187.8c-2,2-4.6,3-8,3h-12.5v-20.1h12.5
		c3.4,0,6.1,0.9,8.1,2.8c1.9,1.9,2.9,4.3,2.9,7.2C147.2,183.4,146.2,185.8,144.3,187.8z"/>
	<path class="st0" d="M163,162.2V205c0,4.5,1.1,7.9,3.3,9.9c2.2,2.1,5.6,3.1,10.2,3.1h7.9v-7.9h-5.7c-1.7,0-3-0.3-3.8-1
		s-1.2-1.9-1.2-3.7v-43.2L163,162.2L163,162.2z"/>
	<path class="st0" d="M196.1,187c2.6-2.6,6.3-3.9,11.2-3.9c3.7,0,6.3,0.6,7.7,1.7c1.4,1.1,2.1,2.7,2.1,4.7v3.4h-11.3
		c-6,0-10.6,1.2-13.7,3.5c-3.2,2.3-4.7,5.4-4.7,9.1c0,3.7,1.9,6.9,5.7,9.5s9.1,3.9,15.9,3.9c6.5,0,12.3-1.2,17.3-3.6
		c1-0.4,1.5-1.1,1.5-1.9V190c0-4.8-1.7-8.4-5.1-10.9s-8.4-3.8-15.1-3.8c-7.8,0-14,2.1-18.7,6.3L196.1,187z M217.2,209.4
		c-2.2,1.3-5,1.9-8.4,1.9c-3.6,0-6.3-0.5-8.2-1.6s-2.8-2.6-2.8-4.5c0-1.7,0.7-3.1,2.2-4.2c1.5-1.1,3.6-1.6,6.4-1.6h10.7v10
		L217.2,209.4L217.2,209.4z"/>
	<path class="st0" d="M245.1,192.2c0-2.8,0.9-5,2.7-6.7c1.8-1.6,4.4-2.4,7.6-2.4c6.7,0,10.1,3.2,10.1,9.6V218h10.8v-25.1
		c0-11.7-6.2-17.6-18.7-17.6c-5,0-9.6,1.4-13.6,4.2l-0.6-3.3h-9.1V218H245v-25.8H245.1z"/>
	<path class="st0" d="M286.5,204.2c0,9.2,4.5,13.8,13.6,13.8h10.6v-7.9h-7.6c-2.1,0-3.6-0.4-4.5-1.3s-1.4-2.3-1.4-4.2v-20.7h13.5
		v-7.7h-13.5v-14h-10.7v14h-6.1v7.7h6.1V204.2z"/>
	<path class="st0" d="M332.6,192.9c-6,0-10.6,1.2-13.7,3.5c-3.2,2.3-4.7,5.4-4.7,9.1c0,3.7,1.9,6.9,5.7,9.5
		c3.8,2.6,9.1,3.9,15.9,3.9c6.5,0,12.3-1.2,17.3-3.6c1-0.4,1.5-1.1,1.5-1.9V190c0-4.8-1.7-8.4-5.1-10.9s-8.4-3.8-15.1-3.8
		c-7.8,0-14,2.1-18.7,6.3l7.2,5.4c2.6-2.6,6.3-3.9,11.2-3.9c3.7,0,6.3,0.6,7.7,1.7c1.4,1.1,2.1,2.7,2.1,4.7v3.4H332.6z M343.9,209.4
		c-2.2,1.3-5,1.9-8.4,1.9c-3.6,0-6.3-0.5-8.2-1.6s-2.8-2.6-2.8-4.5c0-1.7,0.7-3.1,2.2-4.2c1.5-1.1,3.6-1.6,6.4-1.6h10.7L343.9,209.4
		L343.9,209.4z"/>
	<path class="st0" d="M364.3,204.2c0,9.2,4.5,13.8,13.6,13.8h10.6v-7.9H381c-2.1,0-3.6-0.4-4.5-1.3c-0.9-0.9-1.4-2.3-1.4-4.2v-20.7
		h13.5v-7.7h-13.5v-14h-10.7v14h-6.1v7.7h6.1v20.3L364.3,204.2L364.3,204.2z"/>
	<path class="st0" d="M393.4,162.2H404c0,3,0,6.1,0,9.1c-3.5,0-7.1,0-10.6,0V162.2z"/>
	<path class="st0" d="M393.4,176.1c3.5,0,7.1,0,10.6,0c0,13.9,0,27.9,0,41.8h-10.6V176.1z"/>
	<path class="st0" d="M431.5,218.8c14.2,0,21.3-6.3,21.3-18.9v-6.2c0-5.9-1.8-10.4-5.4-13.6c-3.6-3.2-8.9-4.8-15.8-4.8
		s-12.2,1.6-15.9,4.8c-3.7,3.2-5.5,7.7-5.5,13.6v6.1C410.1,212.5,417.2,218.8,431.5,218.8z M421,192.9c0-3.4,1-6,2.9-7.6
		s4.4-2.4,7.6-2.4c6.9,0,10.4,3.3,10.4,10v8.3c0,6.5-3.5,9.8-10.4,9.8c-3.2,0-5.7-0.8-7.6-2.4c-1.9-1.6-2.9-4.1-2.9-7.4V192.9z"/>
	<path class="st0" d="M468.8,192.2c0-2.8,0.9-5,2.7-6.7c1.8-1.6,4.4-2.4,7.6-2.4c6.7,0,10.1,3.2,10.1,9.6V218H500v-25.1
		c0-11.7-6.2-17.6-18.7-17.6c-5,0-9.6,1.4-13.6,4.2l-0.6-3.3H458V218h10.7L468.8,192.2L468.8,192.2z"/>
	<path class="st0" d="M21.8,288.3c14.4,0,21.5-6,21.5-17.9v-38.8H32.6v15.7c-3.3-1.7-7.2-2.6-11.6-2.6c-7.2,0-12.4,1.6-15.8,4.9
		C1.7,252.9,0,257.3,0,263v6.7C0,282.1,7.3,288.3,21.8,288.3z M10.8,263.2c0-3.7,0.9-6.4,2.7-8.1s4.7-2.6,8.5-2.6
		c3.3,0,5.9,0.8,7.7,2.5c1.9,1.7,2.8,4,2.8,6.9v8.2c0,3.6-1,6.2-3,7.9c-2,1.7-4.6,2.6-7.8,2.6c-3.4,0-6.1-0.9-8.1-2.6
		c-1.9-1.7-2.9-4.4-2.9-7.9L10.8,263.2L10.8,263.2z"/>
	<polygon class="st0" points="49.4,254.6 59.5,254.6 71.1,231.6 59.8,231.6 	"/>
	<path class="st0" d="M93,231.6l-26,55.8h11.6l6-13.6h28.9l6,13.6H132l-26.7-55.8L93,231.6L93,231.6z M88.3,265.6l10.7-24l10.6,24
		H88.3z"/>
	<path class="st0" d="M135.3,231.6v42.8c0,4.5,1.1,7.9,3.3,9.9c2.2,2.1,5.6,3.1,10.2,3.1h7.9v-7.9H151c-1.7,0-3-0.3-3.8-1
		s-1.2-1.9-1.2-3.7v-43.2L135.3,231.6L135.3,231.6z"/>
	<path class="st0" d="M159.6,270.4c0,11.9,7.2,17.9,21.5,17.9c14.5,0,21.8-6.2,21.8-18.5V263c0-5.7-1.7-10.1-5.1-13.4
		c-3.4-3.2-8.7-4.9-15.8-4.9c-4.5,0-8.4,0.9-11.6,2.6v-15.7h-10.7L159.6,270.4L159.6,270.4z M170.4,261.8c0-2.9,0.9-5.2,2.8-6.9
		c1.9-1.7,4.5-2.5,7.7-2.5c3.8,0,6.7,0.9,8.5,2.6s2.7,4.4,2.7,8.1v6.8c0,3.6-1,6.2-2.9,7.9c-1.9,1.7-4.6,2.6-8.1,2.6
		c-3.2,0-5.8-0.9-7.8-2.6s-3-4.4-3-7.9v-8.1H170.4z"/>
	<path class="st0" d="M208.9,245.6c3.5,0,7,0,10.5,0c0,13.9,0,27.9,0.1,41.8h-10.6V245.6z"/>
	<path class="st0" d="M208.9,231.6c3.5,0,7.1,0,10.6,0v9.1h-10.6C208.9,237.7,208.9,234.6,208.9,231.6z"/>
	<path class="st0" d="M225.3,269.2c0,12.7,7.1,19,21.4,19c14.2,0,21.3-6.3,21.3-18.9v-6.2c0-5.9-1.8-10.4-5.4-13.6
		c-3.6-3.2-8.9-4.8-15.8-4.8c-6.9,0-12.2,1.6-15.9,4.8s-5.5,7.7-5.5,13.6v6.1H225.3z M236.2,262.4c0-3.4,1-6,2.9-7.6
		s4.4-2.4,7.6-2.4c6.9,0,10.4,3.3,10.4,10v8.3c0,6.5-3.5,9.8-10.4,9.8c-3.2,0-5.7-0.8-7.6-2.4c-1.9-1.6-2.9-4.1-2.9-7.4L236.2,262.4
		L236.2,262.4z"/>
	<path class="st0" d="M314.9,287.5v-25.1c0-11.7-6.2-17.6-18.7-17.6c-5,0-9.6,1.4-13.6,4.2l-0.6-3.3h-9v41.8h10.7v-25.8
		c0-2.8,0.9-5,2.7-6.7c1.8-1.6,4.4-2.4,7.6-2.4c6.7,0,10.1,3.2,10.1,9.6v25.3L314.9,287.5L314.9,287.5z"/>
</g>
<path class="st0" d="M217.4,246.5"/>
</svg>
