<svg version="1.1" id="Calque_1" xmlns="http://www.w3.org/2000/svg" xmlns:xlink="http://www.w3.org/1999/xlink" x="0px" y="0px"
	 viewBox="0 0 500 500" style="enable-background:new 0 0 500 500;" xml:space="preserve">
<g id="Page-1">
	<g id="Group-51">
		<path id="Fill-1" d="M119.5,53.6c0,12-7.6,21.1-17.6,21.1c-9.7,0-10.8-5.9-10.8-7.4c0-0.7,0.2-1.8,0.6-2.8c1.3,2,3.5,3.3,6,3.3
			c3.9,0,7.1-3.2,7.1-7.1c0-3.9-3.2-7.1-7.1-7.1c-0.1,0-0.2,0-0.4,0c-6.6,0.2-10.8,4.4-12.5,9v-18c1.7,4.6,5.9,8.9,12.5,9
			c0.1,0,0.2,0,0.4,0c3.9,0,7.1-3.2,7.1-7.1c0-3.9-3.2-7.1-7.1-7.1c-2.5,0-4.7,1.3-6,3.3c-0.5-1-0.6-2.1-0.6-2.8
			c0-1.5,1.1-7.4,10.8-7.4C111.9,32.5,119.5,41.6,119.5,53.6L119.5,53.6z M101.8,25.4c-10.1,0-15.2,4.9-17.1,9.9v-9.9H70
			c-13.3,0-18,8.6-18,14.5c0,5.8,4.5,13.5,13.4,13.7c0.1,0,0.2,0,0.4,0c3.9,0,7.1-3.2,7.1-7.1c0-3.9-3.2-7.1-7.1-7.1
			c-2.5,0-4.7,1.3-6,3.3c-0.5-1-0.6-2.1-0.6-2.8c0-1.5,1.1-7.4,10.8-7.4l7.6,0v107.9h22v-7.2H84.7V126h14.8v-7.2H84.7V72
			c1.9,5,7,9.9,17.1,9.9c13.3,0,24.8-11.4,24.8-28.3v0C126.7,36.8,115.1,25.4,101.8,25.4z"/>
		<path id="Fill-3" d="M89.3,152.6c-40.1,0-72.7-32.6-72.7-72.7c0-40.1,32.6-72.7,72.7-72.7c40.1,0,72.7,32.6,72.7,72.7
			C162,120,129.4,152.6,89.3,152.6 M145.8,23.4C130.7,8.3,110.7,0,89.3,0C68,0,47.9,8.3,32.8,23.4C17.7,38.5,9.4,58.6,9.4,79.9
			c0,21.4,8.3,41.4,23.4,56.5c15.1,15.1,35.2,23.4,56.5,23.4c21.4,0,41.4-8.3,56.5-23.4c15.1-15.1,23.4-35.2,23.4-56.5
			C169.2,58.6,160.9,38.5,145.8,23.4"/>
		<g id="Clip-6">
		</g>
		<defs>
			<filter id="Adobe_OpacityMaskFilter" filterUnits="userSpaceOnUse" x="5.4" y="360.6" width="487.7" height="3.9">
				<feColorMatrix  type="matrix" values="1 0 0 0 0  0 1 0 0 0  0 0 1 0 0  0 0 0 1 0"/>
			</filter>
		</defs>
		<mask maskUnits="userSpaceOnUse" x="5.4" y="360.6" width="487.7" height="3.9" id="mask-2_1_">
			<g class="st0">
				<polygon id="path-1_1_" class="st1" points="5.4,500 494.6,500 494.6,0 5.4,0 				"/>
			</g>
		</mask>
		<polygon id="Fill-5" class="st2" points="5.4,364.5 493.1,364.5 493.1,360.6 5.4,360.6 		"/>
		<defs>
			<filter id="Adobe_OpacityMaskFilter_1_" filterUnits="userSpaceOnUse" x="299.9" y="429.4" width="11.7" height="11.7">
				<feColorMatrix  type="matrix" values="1 0 0 0 0  0 1 0 0 0  0 0 1 0 0  0 0 0 1 0"/>
			</filter>
		</defs>
		<mask maskUnits="userSpaceOnUse" x="299.9" y="429.4" width="11.7" height="11.7" id="mask-2_2_">
			<g class="st3">
				<polygon id="path-1_2_" class="st1" points="5.4,500 494.6,500 494.6,0 5.4,0 				"/>
			</g>
		</mask>
		<polygon id="Fill-7" class="st4" points="305.8,441.1 311.6,435.2 305.8,429.4 299.9,435.2 		"/>
		<defs>
			<filter id="Adobe_OpacityMaskFilter_2_" filterUnits="userSpaceOnUse" x="270.4" y="391.6" width="40.4" height="56.4">
				<feColorMatrix  type="matrix" values="1 0 0 0 0  0 1 0 0 0  0 0 1 0 0  0 0 0 1 0"/>
			</filter>
		</defs>
		<mask maskUnits="userSpaceOnUse" x="270.4" y="391.6" width="40.4" height="56.4" id="mask-2_3_">
			<g class="st5">
				<polygon id="path-1_3_" class="st1" points="5.4,500 494.6,500 494.6,0 5.4,0 				"/>
			</g>
		</mask>
		<path id="Fill-8" class="st6" d="M270.4,405c1.2,2.2,2.9,1.7,5,0.9c-0.8,10.6,6.7,20.2,15.3,20c0.3,10.9,1.4,21.4,4.6,22.2
			c0.4,0.1,0.8-11.1,1-23.4c20.8-6.5,12.9-31.3,12.9-31.3c-0.4-1.4-3.5,0.6-10.2,6.6c2.7,2.9,4,1.3,6.2,0.5c1.7,3.2,2.4,18-8.8,22.4
			c0.3-14.8,0.4-30.7,0.4-30.7c0-0.4-0.4-0.5-0.7-0.5c-3.1,0.4-8.6,5.8-12.8,10.4c2.3,3.8,5.3,0.4,7.6-0.5c0,0.6-0.5,11.6-0.3,22.7
			c-11.6,0.9-9.7-22.7-9-25.7C281.9,396.1,274.2,401.4,270.4,405"/>
		<defs>
			<filter id="Adobe_OpacityMaskFilter_3_" filterUnits="userSpaceOnUse" x="46.7" y="400.5" width="16.4" height="41.7">
				<feColorMatrix  type="matrix" values="1 0 0 0 0  0 1 0 0 0  0 0 1 0 0  0 0 0 1 0"/>
			</filter>
		</defs>
		<mask maskUnits="userSpaceOnUse" x="46.7" y="400.5" width="16.4" height="41.7" id="mask-2_4_">
			<g class="st7">
				<polygon id="path-1_4_" class="st1" points="5.4,500 494.6,500 494.6,0 5.4,0 				"/>
			</g>
		</mask>
		<path id="Fill-9" class="st8" d="M46.7,400.5v31.3c0,6.7,3.3,10.4,11.3,10.4h5.1v-6h-3.3c-3.6,0-5-1-5-4.7v-31H46.7z"/>
		<defs>
			<filter id="Adobe_OpacityMaskFilter_4_" filterUnits="userSpaceOnUse" x="142.4" y="401" width="47.6" height="41.3">
				<feColorMatrix  type="matrix" values="1 0 0 0 0  0 1 0 0 0  0 0 1 0 0  0 0 0 1 0"/>
			</filter>
		</defs>
		<mask maskUnits="userSpaceOnUse" x="142.4" y="401" width="47.6" height="41.3" id="mask-2_5_">
			<g class="st9">
				<polygon id="path-1_5_" class="st1" points="5.4,500 494.6,500 494.6,0 5.4,0 				"/>
			</g>
		</mask>
		<path id="Fill-10" class="st10" d="M181.8,442.2h8.2V401h-11.6l-12.1,31.6L154.2,401h-11.8v41.3h8.2v-24.6c0-1.6-0.1-4.3-0.2-6
			h0.3l11.8,30.6h7.6l11.8-30.6h0.2c-0.2,1.7-0.2,4.4-0.2,6V442.2z"/>
		<defs>
			<filter id="Adobe_OpacityMaskFilter_5_" filterUnits="userSpaceOnUse" x="63.7" y="410.7" width="30.9" height="31.9">
				<feColorMatrix  type="matrix" values="1 0 0 0 0  0 1 0 0 0  0 0 1 0 0  0 0 0 1 0"/>
			</filter>
		</defs>
		<mask maskUnits="userSpaceOnUse" x="63.7" y="410.7" width="30.9" height="31.9" id="mask-2_6_">
			<g class="st11">
				<polygon id="path-1_6_" class="st1" points="5.4,500 494.6,500 494.6,0 5.4,0 				"/>
			</g>
		</mask>
		<path id="Fill-11" class="st12" d="M63.7,410.7v18.6c0,9.7,5.1,13.3,15.4,13.3s15.4-3.6,15.4-13.3v-18.6h-8.2v18.6
			c0,5.6-3.4,7.7-7.2,7.7c-3.8,0-7.3-2.1-7.3-7.7v-18.6H63.7z"/>
		<defs>
			<filter id="Adobe_OpacityMaskFilter_6_" filterUnits="userSpaceOnUse" x="98.9" y="400.6" width="32.4" height="42.1">
				<feColorMatrix  type="matrix" values="1 0 0 0 0  0 1 0 0 0  0 0 1 0 0  0 0 0 1 0"/>
			</filter>
		</defs>
		<mask maskUnits="userSpaceOnUse" x="98.9" y="400.6" width="32.4" height="42.1" id="mask-2_7_">
			<g class="st13">
				<polygon id="path-1_7_" class="st1" points="5.4,500 494.6,500 494.6,0 5.4,0 				"/>
			</g>
		</mask>
		<path id="Fill-12" class="st14" d="M115.4,416c3.8,0,8.2,2.1,8.2,7.7v5.7c0,5.6-4.4,7.7-8.2,7.7c-3.8,0-8.2-2.1-8.2-7.7v-5.7
			C107.1,418,111.6,416,115.4,416z M98.9,400.6v28.7c0,9.7,5.9,13.3,16.2,13.3c10.3,0,16.2-4.1,16.2-13.8v-5c0-7.7-4.4-13.5-15-13.5
			c-3.1,0-6.5,0.7-9.2,2v-11.8H98.9z"/>
		<defs>
			<filter id="Adobe_OpacityMaskFilter_7_" filterUnits="userSpaceOnUse" x="229.6" y="400.6" width="32.4" height="42.1">
				<feColorMatrix  type="matrix" values="1 0 0 0 0  0 1 0 0 0  0 0 1 0 0  0 0 0 1 0"/>
			</filter>
		</defs>
		<mask maskUnits="userSpaceOnUse" x="229.6" y="400.6" width="32.4" height="42.1" id="mask-2_8_">
			<g class="st15">
				<polygon id="path-1_8_" class="st1" points="5.4,500 494.6,500 494.6,0 5.4,0 				"/>
			</g>
		</mask>
		<path id="Fill-13" class="st16" d="M237.3,429.3v-5.7c0-5.6,4.5-7.7,8.2-7.7c3.8,0,8.2,2.1,8.2,7.7v5.7c0,5.6-4.4,7.7-8.2,7.7
			C241.7,437,237.3,434.9,237.3,429.3 M261.9,429.3v-28.7h-8.2v11.8c-2.7-1.3-6.1-2-9.2-2c-10.5,0-15,5.8-15,13.5v5
			c0,9.8,5.9,13.8,16.2,13.8S261.9,439.1,261.9,429.3"/>
		<defs>
			<filter id="Adobe_OpacityMaskFilter_8_" filterUnits="userSpaceOnUse" x="193.8" y="410.3" width="32.4" height="32.4">
				<feColorMatrix  type="matrix" values="1 0 0 0 0  0 1 0 0 0  0 0 1 0 0  0 0 0 1 0"/>
			</filter>
		</defs>
		<mask maskUnits="userSpaceOnUse" x="193.8" y="410.3" width="32.4" height="32.4" id="mask-2_9_">
			<g class="st17">
				<polygon id="path-1_9_" class="st1" points="5.4,500 494.6,500 494.6,0 5.4,0 				"/>
			</g>
		</mask>
		<path id="Fill-14" class="st18" d="M210,415.8c3.8,0,8.2,2.2,8.2,8h-16.5C201.7,418,206.2,415.8,210,415.8z M226.2,428.6v-2.5
			c0-9.8-5.9-15.8-16.2-15.8c-10.3,0-16.2,6-16.2,15.8v1.3c0,9.4,5.6,15.3,16.6,15.3c5.5,0,10.3-1.2,15-4.9l-5-3.9
			c-3.4,2.3-6,3.1-9.9,3.1c-4.8,0-8.7-2.6-8.7-7.7v-0.7H226.2z"/>
		<defs>
			<filter id="Adobe_OpacityMaskFilter_9_" filterUnits="userSpaceOnUse" x="5.4" y="400.6" width="38.5" height="42.1">
				<feColorMatrix  type="matrix" values="1 0 0 0 0  0 1 0 0 0  0 0 1 0 0  0 0 0 1 0"/>
			</filter>
		</defs>
		<mask maskUnits="userSpaceOnUse" x="5.4" y="400.6" width="38.5" height="42.1" id="mask-2_10_">
			<g class="st19">
				<polygon id="path-1_10_" class="st1" points="5.4,500 494.6,500 494.6,0 5.4,0 				"/>
			</g>
		</mask>
		<path id="Fill-15" class="st20" d="M24.9,442.6c10.9,0,17.4-5.4,19-12.8h-8.7c-1.5,4.9-5.1,7.2-10.3,7.2c-8.1,0-11-5.3-11-13.5
			v-4.1c0-9,4-13.2,11-13.2c5.1,0,8.8,2.2,10.3,7.2h8.7c-1.5-7.4-8.1-12.8-19-12.8c-12.5,0-19.6,7.3-19.6,18.7v5.6
			C5.4,435.9,12.2,442.6,24.9,442.6"/>
		<defs>
			<filter id="Adobe_OpacityMaskFilter_10_" filterUnits="userSpaceOnUse" x="158.1" y="461.6" width="12.4" height="38.2">
				<feColorMatrix  type="matrix" values="1 0 0 0 0  0 1 0 0 0  0 0 1 0 0  0 0 0 1 0"/>
			</filter>
		</defs>
		<mask maskUnits="userSpaceOnUse" x="158.1" y="461.6" width="12.4" height="38.2" id="mask-2_11_">
			<g class="st21">
				<polygon id="path-1_11_" class="st1" points="5.4,500 494.6,500 494.6,0 5.4,0 				"/>
			</g>
		</mask>
		<path id="Fill-16" class="st22" d="M166.8,498v-34.5c0-0.5,0.1-0.7,0.8-0.7h2.8v-1.3h-12.3v1.3h2.8c0.7,0,0.8,0.2,0.8,0.7V498
			c0,0.3-0.2,0.6-0.4,0.6h-3.2v1.3h12.4v-1.3h-3.2C167,498.6,166.8,498.3,166.8,498"/>
		<defs>
			<filter id="Adobe_OpacityMaskFilter_11_" filterUnits="userSpaceOnUse" x="239.3" y="461.5" width="24.9" height="38.3">
				<feColorMatrix  type="matrix" values="1 0 0 0 0  0 1 0 0 0  0 0 1 0 0  0 0 0 1 0"/>
			</filter>
		</defs>
		<mask maskUnits="userSpaceOnUse" x="239.3" y="461.5" width="24.9" height="38.3" id="mask-2_12_">
			<g class="st23">
				<polygon id="path-1_12_" class="st1" points="5.4,500 494.6,500 494.6,0 5.4,0 				"/>
			</g>
		</mask>
		<path id="Fill-17" class="st24" d="M262.8,492.6c0,0.2-0.5,5.9-7.8,5.9c-9.1,0-10.1-13.6-10.1-19.5c0-6,2-16.1,9.6-16.1h0.1
			c4.8,0,5.4,2.5,5.4,4.9c0,0.3-0.2,0.7-0.4,1.1c-0.2,0.4-0.4,0.8-0.4,1.2c0,1.2,1.1,1.9,2.2,1.9c1.2,0,2.4-0.9,2.4-2.8
			c0-3-2.5-7.6-9.3-7.6h-0.1c-4.1,0-7.5,1.4-10.1,4c-3.2,3.2-5.1,8.3-5,13.5c0.1,10,4.2,20.7,15.7,20.7c8.2,0,9.1-6.9,9.1-7l0-0.3
			l-1.3-0.4L262.8,492.6z"/>
		<defs>
			<filter id="Adobe_OpacityMaskFilter_12_" filterUnits="userSpaceOnUse" x="173.3" y="461.5" width="26.8" height="38.4">
				<feColorMatrix  type="matrix" values="1 0 0 0 0  0 1 0 0 0  0 0 1 0 0  0 0 0 1 0"/>
			</filter>
		</defs>
		<mask maskUnits="userSpaceOnUse" x="173.3" y="461.5" width="26.8" height="38.4" id="mask-2_13_">
			<g class="st25">
				<polygon id="path-1_13_" class="st1" points="5.4,500 494.6,500 494.6,0 5.4,0 				"/>
			</g>
		</mask>
		<path id="Fill-18" class="st26" d="M191.3,462.8h2c1,0,1.5,0.7,1.5,1.8c0,0.2,0,0.5-0.1,0.8l-5.5,23.8l-7.2-25.5
			c0-0.1,0-0.2,0-0.4c0-0.3,0.2-0.5,0.7-0.5h2v-1.3h-11.3v1.3h1.9c0.7,0,1.1,0.6,1.3,1.1c0.6,2.1,10.2,35.4,10.3,35.8l0.1,0.3h1.4
			l0.1-0.3c1-4.1,6-25.2,7.6-32.1l0.6-2.4c0.3-1.1,1-2.3,2.4-2.3h1.3v-1.3h-8.9V462.8z"/>
		<defs>
			<filter id="Adobe_OpacityMaskFilter_13_" filterUnits="userSpaceOnUse" x="134.9" y="461.4" width="22.2" height="38.6">
				<feColorMatrix  type="matrix" values="1 0 0 0 0  0 1 0 0 0  0 0 1 0 0  0 0 0 1 0"/>
			</filter>
		</defs>
		<mask maskUnits="userSpaceOnUse" x="134.9" y="461.4" width="22.2" height="38.6" id="mask-2_14_">
			<g class="st27">
				<polygon id="path-1_14_" class="st1" points="5.4,500 494.6,500 494.6,0 5.4,0 				"/>
			</g>
		</mask>
		<path id="Fill-19" class="st28" d="M147.5,475.8c-2.7-0.5-7.3-2-7.4-6.3v-0.3c0-3.7,2.7-6.4,6.4-6.4c6.3,0,6.3,6.2,6.3,6.4v0.4
			l1.5-0.1v-7.3l-0.3-0.1c0,0-3.6-0.8-6.8-0.8H147c-6.7,0.1-11.2,4.1-11.2,10.1c0,4.8,3.2,7.9,9,8.9c4.6,0.8,7.7,4.1,7.7,8.3
			c0,4.7-2.1,9.8-8.1,9.9c-7.6,0-7.8-7.5-7.8-7.9l0-0.3l-1.6-0.1v8.9l0.3,0.1c0,0,4.1,0.7,8.1,0.7h0.2c8.3,0,13.7-5.1,13.7-13
			C157.2,481.1,153.7,477,147.5,475.8"/>
		<defs>
			<filter id="Adobe_OpacityMaskFilter_14_" filterUnits="userSpaceOnUse" x="202.6" y="461.6" width="24.6" height="38.2">
				<feColorMatrix  type="matrix" values="1 0 0 0 0  0 1 0 0 0  0 0 1 0 0  0 0 0 1 0"/>
			</filter>
		</defs>
		<mask maskUnits="userSpaceOnUse" x="202.6" y="461.6" width="24.6" height="38.2" id="mask-2_15_">
			<g class="st29">
				<polygon id="path-1_15_" class="st1" points="5.4,500 494.6,500 494.6,0 5.4,0 				"/>
			</g>
		</mask>
		<path id="Fill-20" class="st30" d="M225.9,490.9c-1.5,5.4-4.5,7.6-10.5,7.7H215c-3.6,0-3.8-0.8-3.8-2.3c0-0.3,0-0.7,0-1.1
			c0-0.5,0.1-1.1,0.1-1.8l-0.1-17.4l4.9,0.1l0.1,0c2.3,0.1,2.9,0.1,3.7,1.2c0.6,0.8,0.7,1.7,0.9,3.2l0.1,0.6h1.2v-11h-1.2l0,0.3
			c-0.2,1.4-0.3,2.4-1,3.3c-0.7,0.9-1.1,0.9-2.7,0.9c-0.2,0-0.5,0-0.8,0l-4.9,0.1v-11.7l7.2,0.2c1.8,0.1,3.7,0.2,4.5,1.2
			c0.9,1.1,1,1.4,1.2,3.2c0,0.4,0.1,0.8,0.2,1.2l0,0.3h1.2v-7.4h-22.9v1.3h2.8c0.7,0,0.8,0.2,0.8,0.7V498c0,0.3-0.2,0.6-0.4,0.6
			h-3.2v1.3h24.1l0.5-8.9l-1.2-0.3L225.9,490.9z"/>
		<defs>
			<filter id="Adobe_OpacityMaskFilter_15_" filterUnits="userSpaceOnUse" x="5.4" y="461.6" width="26.2" height="38.2">
				<feColorMatrix  type="matrix" values="1 0 0 0 0  0 1 0 0 0  0 0 1 0 0  0 0 0 1 0"/>
			</filter>
		</defs>
		<mask maskUnits="userSpaceOnUse" x="5.4" y="461.6" width="26.2" height="38.2" id="mask-2_16_">
			<g class="st31">
				<polygon id="path-1_16_" class="st1" points="5.4,500 494.6,500 494.6,0 5.4,0 				"/>
			</g>
		</mask>
		<path id="Fill-21" class="st32" d="M31.6,490.8l-2.8-0.2l-0.1,0.3c-1.5,5.4-4.5,7.6-10.5,7.7h-0.4c-3.6,0-3.8-0.8-3.8-2.3
			c0-0.3,0-0.7,0-1.1c0-0.5,0.1-1.1,0.1-1.8l-0.1-17.4L19,476l0.1,0c2.3,0.1,2.9,0.1,3.7,1.2c0.6,0.8,0.7,1.7,0.9,3.2l0.1,0.6h1.2
			v-11h-1.2l0,0.3c-0.2,1.4-0.3,2.4-1,3.3c-0.7,0.9-1.1,0.9-2.7,0.9c-0.2,0-0.5,0-0.8,0l-4.9,0.1v-11.7l7.2,0.2
			c1.8,0.1,3.7,0.2,4.5,1.2c0.9,1.1,1,1.4,1.2,3.2c0,0.4,0.1,0.8,0.2,1.2l0,0.3h1.2v-7.4H5.4v1.3h2.8c0.7,0,0.8,0.2,0.8,0.7V498
			c0,0.3-0.2,0.6-0.4,0.6H5.4v1.3h24.1L31.6,490.8z"/>
		<defs>
			<filter id="Adobe_OpacityMaskFilter_16_" filterUnits="userSpaceOnUse" x="31.3" y="461.6" width="29" height="38.2">
				<feColorMatrix  type="matrix" values="1 0 0 0 0  0 1 0 0 0  0 0 1 0 0  0 0 0 1 0"/>
			</filter>
		</defs>
		<mask maskUnits="userSpaceOnUse" x="31.3" y="461.6" width="29" height="38.2" id="mask-2_17_">
			<g class="st33">
				<polygon id="path-1_17_" class="st1" points="5.4,500 494.6,500 494.6,0 5.4,0 				"/>
			</g>
		</mask>
		<path id="Fill-22" class="st34" d="M56.9,497.7c-1-1.9-8.3-17.5-9-19.2c0.6-1.4,5.2-12.2,6.2-14.1c0.5-0.8,1-1.6,2.2-1.6h1.9v-1.3
			h-9v1.3h2c0.4,0,1,0.2,1,1.1c0,0.1,0,0.5-0.2,0.9l-5.1,12.3l-6.6-13.6l0-0.1c0-0.1,0-0.1,0-0.1c0-0.3,0.4-0.4,0.8-0.4h2v-1.3H31.5
			v1.3h2.1c0.7,0,0.9,0.2,1.3,0.8c1,1.9,7.2,15,8,16.5c-0.7,1.6-6.4,14.9-7.4,16.8c-0.5,0.8-1,1.6-2.2,1.6h-1.9v1.3h9v-1.3h-2
			c-0.4,0-1-0.2-1-1.1c0-0.1,0-0.5,0.2-0.9l6.3-15c1.5,3.1,7,14.9,7.7,16.3l0,0.1c0,0,0,0.1,0,0.1c0,0.3-0.4,0.4-0.8,0.4h-2v1.3
			h11.6v-1.3h-2.1C57.5,498.6,57.3,498.4,56.9,497.7"/>
		<defs>
			<filter id="Adobe_OpacityMaskFilter_17_" filterUnits="userSpaceOnUse" x="83.3" y="461.6" width="23.3" height="38.2">
				<feColorMatrix  type="matrix" values="1 0 0 0 0  0 1 0 0 0  0 0 1 0 0  0 0 0 1 0"/>
			</filter>
		</defs>
		<mask maskUnits="userSpaceOnUse" x="83.3" y="461.6" width="23.3" height="38.2" id="mask-2_18_">
			<g class="st35">
				<polygon id="path-1_18_" class="st1" points="5.4,500 494.6,500 494.6,0 5.4,0 				"/>
			</g>
		</mask>
		<path id="Fill-23" class="st36" d="M105.4,490.8c-1.6,5.8-3.8,7.7-9.2,7.7c-3.9,0-4.1-1.2-4.1-3.4v-31.7c0-0.5,0.1-0.7,0.8-0.7
			h2.8v-1.3H83.4v1.3h2.8c0.4,0,0.7,0.5,0.7,0.7V498c0,0.3-0.2,0.6-0.5,0.6h-3.2v1.3h22.8l0.6-9.2l-1.2-0.1L105.4,490.8z"/>
		<defs>
			<filter id="Adobe_OpacityMaskFilter_18_" filterUnits="userSpaceOnUse" x="106" y="461.5" width="27.5" height="38.4">
				<feColorMatrix  type="matrix" values="1 0 0 0 0  0 1 0 0 0  0 0 1 0 0  0 0 0 1 0"/>
			</filter>
		</defs>
		<mask maskUnits="userSpaceOnUse" x="106" y="461.5" width="27.5" height="38.4" id="mask-2_19_">
			<g class="st37">
				<polygon id="path-1_19_" class="st1" points="5.4,500 494.6,500 494.6,0 5.4,0 				"/>
			</g>
		</mask>
		<path id="Fill-24" class="st38" d="M124.7,462.8h2.4c0.6,0,1.3,0.4,1.3,1.3v26.2c0,4.9-2.5,7.6-7,7.6c-3.7,0-6.5-3.2-6.5-7.5
			l-0.1-26.8c0-0.5,0.1-0.7,0.8-0.7h2.8v-1.3H106v1.3h2.8c0.7,0,0.8,0.2,0.8,0.7V491c0,5.2,4.2,8.9,10.3,8.9c6.1,0,10-3.4,10-8.9
			l0.1-27c0-0.6,0.2-1.3,1-1.3h2.6v-1.3h-8.9V462.8z"/>
		<defs>
			<filter id="Adobe_OpacityMaskFilter_19_" filterUnits="userSpaceOnUse" x="57.9" y="461.5" width="24.9" height="38.3">
				<feColorMatrix  type="matrix" values="1 0 0 0 0  0 1 0 0 0  0 0 1 0 0  0 0 0 1 0"/>
			</filter>
		</defs>
		<mask maskUnits="userSpaceOnUse" x="57.9" y="461.5" width="24.9" height="38.3" id="mask-2_20_">
			<g class="st39">
				<polygon id="path-1_20_" class="st1" points="5.4,500 494.6,500 494.6,0 5.4,0 				"/>
			</g>
		</mask>
		<path id="Fill-25" class="st40" d="M81.4,492.6c0,0.2-0.5,5.9-7.8,5.9c-9.1,0-10.1-13.6-10.1-19.5c0-6,2-16.1,9.6-16.1h0.1
			c4.8,0,5.4,2.5,5.4,4.9c0,0.3-0.2,0.7-0.4,1.1c-0.2,0.4-0.4,0.8-0.4,1.2c0,1.2,1.1,1.9,2.2,1.9c1.2,0,2.4-0.9,2.4-2.8
			c0-3-2.5-7.6-9.3-7.6h-0.1c-4.1,0-7.5,1.4-10.1,4c-3.2,3.2-5.1,8.3-5,13.5c0.1,10,4.2,20.7,15.7,20.7c8.2,0,9.1-6.9,9.1-7l0-0.3
			l-1.3-0.4L81.4,492.6z"/>
		<defs>
			<filter id="Adobe_OpacityMaskFilter_20_" filterUnits="userSpaceOnUse" x="398" y="461.6" width="24.5" height="38.2">
				<feColorMatrix  type="matrix" values="1 0 0 0 0  0 1 0 0 0  0 0 1 0 0  0 0 0 1 0"/>
			</filter>
		</defs>
		<mask maskUnits="userSpaceOnUse" x="398" y="461.6" width="24.5" height="38.2" id="mask-2_21_">
			<g class="st41">
				<polygon id="path-1_21_" class="st1" points="5.4,500 494.6,500 494.6,0 5.4,0 				"/>
			</g>
		</mask>
		<path id="Fill-26" class="st42" d="M398,469h1.2l0-0.3c0.4-2.7,0.6-2.9,1.6-4.2l0.1-0.2c0.8-1,1.6-1.3,3.3-1.3l3.4,0v35
			c0,0.3-0.2,0.6-0.4,0.6H404v1.3h12.3v-1.3l-3.2,0c-0.1-0.1-0.3-0.5-0.4-0.8V463l3.4,0c1.7,0,2.5,0.3,3.3,1.3l0.1,0.2
			c1,1.2,1.2,1.4,1.6,4.1l0,0.3h1.2v-7.4H398V469z"/>
		<defs>
			<filter id="Adobe_OpacityMaskFilter_21_" filterUnits="userSpaceOnUse" x="264.9" y="461.4" width="29.5" height="38.5">
				<feColorMatrix  type="matrix" values="1 0 0 0 0  0 1 0 0 0  0 0 1 0 0  0 0 0 1 0"/>
			</filter>
		</defs>
		<mask maskUnits="userSpaceOnUse" x="264.9" y="461.4" width="29.5" height="38.5" id="mask-2_22_">
			<g class="st43">
				<polygon id="path-1_22_" class="st1" points="5.4,500 494.6,500 494.6,0 5.4,0 				"/>
			</g>
		</mask>
		<path id="Fill-27" class="st44" d="M280,498.7c-7.8-0.1-9.5-9.8-9.5-17.9c0-10.9,1.6-18.1,9.5-18.1c8.2,0,8.9,7.9,8.9,18.1
			C288.8,491.9,287.4,498.7,280,498.7 M280,461.4c-9,0-15,7.8-15,19.4c0,11.1,6.3,19.1,15,19.1c8.5,0,14.4-7.9,14.4-19.1
			C294.4,469.1,288.7,461.4,280,461.4"/>
		<defs>
			<filter id="Adobe_OpacityMaskFilter_22_" filterUnits="userSpaceOnUse" x="437.1" y="461.4" width="29.5" height="38.5">
				<feColorMatrix  type="matrix" values="1 0 0 0 0  0 1 0 0 0  0 0 1 0 0  0 0 0 1 0"/>
			</filter>
		</defs>
		<mask maskUnits="userSpaceOnUse" x="437.1" y="461.4" width="29.5" height="38.5" id="mask-2_23_">
			<g class="st45">
				<polygon id="path-1_23_" class="st1" points="5.4,500 494.6,500 494.6,0 5.4,0 				"/>
			</g>
		</mask>
		<path id="Fill-28" class="st46" d="M452.2,498.7c-7.8-0.1-9.5-9.7-9.5-17.9c0-10.9,1.6-18.1,9.5-18.1c8.2,0,8.9,7.9,8.9,18.1
			C461,491.9,459.5,498.7,452.2,498.7 M452.1,461.4c-9,0-15,7.8-15,19.4c0,11.1,6.3,19.1,15,19.1c8.5,0,14.4-7.9,14.4-19.1
			C466.6,469.1,460.9,461.4,452.1,461.4"/>
		<defs>
			<filter id="Adobe_OpacityMaskFilter_23_" filterUnits="userSpaceOnUse" x="466.8" y="461.5" width="27.9" height="38.5">
				<feColorMatrix  type="matrix" values="1 0 0 0 0  0 1 0 0 0  0 0 1 0 0  0 0 0 1 0"/>
			</filter>
		</defs>
		<mask maskUnits="userSpaceOnUse" x="466.8" y="461.5" width="27.9" height="38.5" id="mask-2_24_">
			<g class="st47">
				<polygon id="path-1_24_" class="st1" points="5.4,500 494.6,500 494.6,0 5.4,0 				"/>
			</g>
		</mask>
		<path id="Fill-29" class="st48" d="M485.6,462.7h2.4c1.2,0,1.3,1.8,1.3,2.4l-0.1,21.8c-1.6-4-5.2-11.5-6.4-13.7l-0.2-0.3
			c-1.6-3-5.3-9.9-6.8-11.3l-0.1-0.1h-1.1c-0.7,0-1.7,0-2.7,0c-1.4,0-3.1,0-4.7,0h-0.4v1.3h2.8c0.6,0,0.9,0.5,0.9,1
			c0,1.8-0.2,31.9-0.2,32.3c0,1.6-0.4,2.4-1.3,2.4h-2.4v1.3h9v-1.3h-2.4c-1.2,0-1.3-1.9-1.3-2.5l-0.2-31.4c1.7,2.2,5.4,8.9,6.8,11.6
			c0.4,0.8,9.8,19.3,10.4,23.5l0,0.3h0.3c0.2,0,0.9-0.1,1-0.1l0.3,0v-0.3c0-1.8,0.2-34,0.2-34.3c0-1.6,0.4-2.4,1.3-2.4h2.4v-1.3h-9
			V462.7z"/>
		<defs>
			<filter id="Adobe_OpacityMaskFilter_24_" filterUnits="userSpaceOnUse" x="424.5" y="461.6" width="12.4" height="38.2">
				<feColorMatrix  type="matrix" values="1 0 0 0 0  0 1 0 0 0  0 0 1 0 0  0 0 0 1 0"/>
			</filter>
		</defs>
		<mask maskUnits="userSpaceOnUse" x="424.5" y="461.6" width="12.4" height="38.2" id="mask-2_25_">
			<g class="st49">
				<polygon id="path-1_25_" class="st1" points="5.4,500 494.6,500 494.6,0 5.4,0 				"/>
			</g>
		</mask>
		<path id="Fill-30" class="st50" d="M433.2,498v-34.5c0-0.5,0.1-0.7,0.8-0.7h2.8v-1.3h-12.3v1.3h2.8c0.7,0,0.8,0.2,0.8,0.7V498
			c0,0.3-0.2,0.6-0.4,0.6h-3.2v1.3h12.4v-1.3h-3.2C433.4,498.6,433.2,498.3,433.2,498"/>
		<defs>
			<filter id="Adobe_OpacityMaskFilter_25_" filterUnits="userSpaceOnUse" x="370.8" y="461.5" width="24.9" height="38.3">
				<feColorMatrix  type="matrix" values="1 0 0 0 0  0 1 0 0 0  0 0 1 0 0  0 0 0 1 0"/>
			</filter>
		</defs>
		<mask maskUnits="userSpaceOnUse" x="370.8" y="461.5" width="24.9" height="38.3" id="mask-2_26_">
			<g class="st51">
				<polygon id="path-1_26_" class="st1" points="5.4,500 494.6,500 494.6,0 5.4,0 				"/>
			</g>
		</mask>
		<path id="Fill-31" class="st52" d="M394.3,492.6c0,0.2-0.5,5.9-7.8,5.9c-9.1,0-10.1-13.6-10.1-19.5c0-6,2-16.1,9.6-16.1h0.1
			c4.8,0,5.4,2.5,5.4,4.9c0,0.3-0.2,0.7-0.4,1.1c-0.2,0.4-0.4,0.8-0.4,1.2c0,1.2,1.1,1.9,2.2,1.9c1.2,0,2.4-0.9,2.4-2.8
			c0-3-2.5-7.6-9.3-7.6h-0.1c-4.1,0-7.5,1.4-10.1,4c-3.2,3.2-5.1,8.3-5,13.5c0.1,10,4.2,20.7,15.7,20.7c8.2,0,9.1-6.9,9.1-7l0-0.3
			l-1.3-0.4L394.3,492.6z"/>
		<defs>
			<filter id="Adobe_OpacityMaskFilter_26_" filterUnits="userSpaceOnUse" x="319.8" y="461.6" width="23.3" height="38.2">
				<feColorMatrix  type="matrix" values="1 0 0 0 0  0 1 0 0 0  0 0 1 0 0  0 0 0 1 0"/>
			</filter>
		</defs>
		<mask maskUnits="userSpaceOnUse" x="319.8" y="461.6" width="23.3" height="38.2" id="mask-2_27_">
			<g class="st53">
				<polygon id="path-1_27_" class="st1" points="5.4,500 494.6,500 494.6,0 5.4,0 				"/>
			</g>
		</mask>
		<path id="Fill-32" class="st54" d="M341.9,490.8c-1.6,5.8-3.8,7.7-9.2,7.7c-3.9,0-4.1-1.2-4.1-3.4v-31.7c0-0.5,0.1-0.7,0.8-0.7
			h2.8v-1.3h-12.2v1.3h2.8c0.5,0,0.7,0.5,0.7,0.7V498c0,0.3-0.2,0.6-0.4,0.6h-3.2v1.3h22.8l0.6-9.2l-1.2-0.1L341.9,490.8z"/>
		<defs>
			<filter id="Adobe_OpacityMaskFilter_27_" filterUnits="userSpaceOnUse" x="294.7" y="461.6" width="23.3" height="38.2">
				<feColorMatrix  type="matrix" values="1 0 0 0 0  0 1 0 0 0  0 0 1 0 0  0 0 0 1 0"/>
			</filter>
		</defs>
		<mask maskUnits="userSpaceOnUse" x="294.7" y="461.6" width="23.3" height="38.2" id="mask-2_28_">
			<g class="st55">
				<polygon id="path-1_28_" class="st1" points="5.4,500 494.6,500 494.6,0 5.4,0 				"/>
			</g>
		</mask>
		<path id="Fill-33" class="st56" d="M316.7,490.8c-1.6,5.8-3.8,7.7-9.2,7.7c-3.9,0-4.1-1.2-4.1-3.4v-31.7c0-0.5,0.1-0.7,0.8-0.7
			h2.8v-1.3h-12.2v1.3h2.8c0.5,0,0.7,0.5,0.7,0.7V498c0,0.3-0.2,0.6-0.5,0.6h-3.2v1.3h22.8l0.6-9.2l-1.2-0.1L316.7,490.8z"/>
		<defs>
			<filter id="Adobe_OpacityMaskFilter_28_" filterUnits="userSpaceOnUse" x="345" y="461.6" width="24.6" height="38.2">
				<feColorMatrix  type="matrix" values="1 0 0 0 0  0 1 0 0 0  0 0 1 0 0  0 0 0 1 0"/>
			</filter>
		</defs>
		<mask maskUnits="userSpaceOnUse" x="345" y="461.6" width="24.6" height="38.2" id="mask-2_29_">
			<g class="st57">
				<polygon id="path-1_29_" class="st1" points="5.4,500 494.6,500 494.6,0 5.4,0 				"/>
			</g>
		</mask>
		<path id="Fill-34" class="st58" d="M368.3,490.9c-1.5,5.4-4.5,7.6-10.5,7.7h-0.4c-3.6,0-3.8-0.8-3.8-2.3c0-0.3,0-0.7,0-1.1
			c0-0.5,0.1-1.1,0.1-1.8l-0.1-17.4l4.9,0.1l0.1,0c2.3,0.1,2.9,0.1,3.7,1.2c0.6,0.8,0.7,1.7,0.9,3.2l0.1,0.6h1.2v-11h-1.2l0,0.3
			c-0.2,1.4-0.3,2.5-1,3.3c-0.7,0.9-1.1,0.9-2.7,0.9c-0.2,0-0.5,0-0.8,0l-4.9,0.1v-11.7l7.2,0.2c1.8,0.1,3.7,0.2,4.5,1.2
			c0.9,1.1,1,1.4,1.2,3.2c0,0.4,0.1,0.8,0.2,1.3l0,0.3h1.2v-7.4H345v1.3h2.8c0.7,0,0.8,0.2,0.8,0.7V498c0,0.3-0.2,0.6-0.4,0.6H345
			v1.3h24.1l0.5-8.9l-1.2-0.3L368.3,490.9z"/>
		<defs>
			<filter id="Adobe_OpacityMaskFilter_29_" filterUnits="userSpaceOnUse" x="5.9" y="192.4" width="56.2" height="55.4">
				<feColorMatrix  type="matrix" values="1 0 0 0 0  0 1 0 0 0  0 0 1 0 0  0 0 0 1 0"/>
			</filter>
		</defs>
		<mask maskUnits="userSpaceOnUse" x="5.9" y="192.4" width="56.2" height="55.4" id="mask-2_30_">
			<g class="st59">
				<polygon id="path-1_30_" class="st1" points="5.4,500 494.6,500 494.6,0 5.4,0 				"/>
			</g>
		</mask>
		<polygon id="Fill-35" class="st60" points="50.7,192.4 34.2,237 17.6,192.4 5.9,192.4 27.9,247.8 40.2,247.8 62.1,192.4 		"/>
		<defs>
			<filter id="Adobe_OpacityMaskFilter_30_" filterUnits="userSpaceOnUse" x="67.8" y="192.4" width="10.6" height="9">
				<feColorMatrix  type="matrix" values="1 0 0 0 0  0 1 0 0 0  0 0 1 0 0  0 0 0 1 0"/>
			</filter>
		</defs>
		<mask maskUnits="userSpaceOnUse" x="67.8" y="192.4" width="10.6" height="9" id="mask-2_31_">
			<g class="st61">
				<polygon id="path-1_31_" class="st1" points="5.4,500 494.6,500 494.6,0 5.4,0 				"/>
			</g>
		</mask>
		<polygon id="Fill-36" class="st62" points="67.8,201.4 78.4,201.4 78.4,192.4 67.8,192.4 		"/>
		<defs>
			<filter id="Adobe_OpacityMaskFilter_31_" filterUnits="userSpaceOnUse" x="67.8" y="206.2" width="10.6" height="41.6">
				<feColorMatrix  type="matrix" values="1 0 0 0 0  0 1 0 0 0  0 0 1 0 0  0 0 0 1 0"/>
			</filter>
		</defs>
		<mask maskUnits="userSpaceOnUse" x="67.8" y="206.2" width="10.6" height="41.6" id="mask-2_32_">
			<g class="st63">
				<polygon id="path-1_32_" class="st1" points="5.4,500 494.6,500 494.6,0 5.4,0 				"/>
			</g>
		</mask>
		<polygon id="Fill-37" class="st64" points="67.8,247.8 78.4,247.8 78.4,206.2 67.8,206.2 		"/>
		<defs>
			<filter id="Adobe_OpacityMaskFilter_32_" filterUnits="userSpaceOnUse" x="87.5" y="192.4" width="21.2" height="55.4">
				<feColorMatrix  type="matrix" values="1 0 0 0 0  0 1 0 0 0  0 0 1 0 0  0 0 0 1 0"/>
			</filter>
		</defs>
		<mask maskUnits="userSpaceOnUse" x="87.5" y="192.4" width="21.2" height="55.4" id="mask-2_33_">
			<g class="st65">
				<polygon id="path-1_33_" class="st1" points="5.4,500 494.6,500 494.6,0 5.4,0 				"/>
			</g>
		</mask>
		<path id="Fill-38" class="st66" d="M87.5,234.8c0,4.5,1.1,7.8,3.3,9.9c2.2,2.1,5.5,3.1,10.1,3.1h7.8v-7.8h-5.6c-1.7,0-3-0.3-3.8-1
			c-0.8-0.7-1.2-1.9-1.2-3.7v-42.9H87.5V234.8z"/>
		<defs>
			<filter id="Adobe_OpacityMaskFilter_33_" filterUnits="userSpaceOnUse" x="113.8" y="192.4" width="21.2" height="55.4">
				<feColorMatrix  type="matrix" values="1 0 0 0 0  0 1 0 0 0  0 0 1 0 0  0 0 0 1 0"/>
			</filter>
		</defs>
		<mask maskUnits="userSpaceOnUse" x="113.8" y="192.4" width="21.2" height="55.4" id="mask-2_34_">
			<g class="st67">
				<polygon id="path-1_34_" class="st1" points="5.4,500 494.6,500 494.6,0 5.4,0 				"/>
			</g>
		</mask>
		<path id="Fill-39" class="st68" d="M113.8,192.4v42.5c0,4.5,1.1,7.8,3.3,9.9c2.2,2.1,5.5,3.1,10.1,3.1h7.8v-7.8h-5.6
			c-1.7,0-3-0.3-3.8-1c-0.8-0.7-1.2-1.9-1.2-3.7v-42.9H113.8z"/>
		<defs>
			<filter id="Adobe_OpacityMaskFilter_34_" filterUnits="userSpaceOnUse" x="139.4" y="205.4" width="40.1" height="43.2">
				<feColorMatrix  type="matrix" values="1 0 0 0 0  0 1 0 0 0  0 0 1 0 0  0 0 0 1 0"/>
			</filter>
		</defs>
		<mask maskUnits="userSpaceOnUse" x="139.4" y="205.4" width="40.1" height="43.2" id="mask-2_35_">
			<g class="st69">
				<polygon id="path-1_35_" class="st1" points="5.4,500 494.6,500 494.6,0 5.4,0 				"/>
			</g>
		</mask>
		<path id="Fill-40" class="st70" d="M168.9,239.3c-2.1,1.3-4.9,1.9-8.3,1.9c-3.6,0-6.3-0.5-8.1-1.6c-1.8-1.1-2.8-2.5-2.8-4.4
			c0-1.7,0.7-3.1,2.2-4.1c1.5-1,3.6-1.6,6.4-1.6h10.7V239.3z M140.9,211.7l7.2,5.4c2.6-2.6,6.3-3.9,11.2-3.9c3.7,0,6.2,0.6,7.6,1.7
			c1.4,1.1,2.1,2.6,2.1,4.6v3.4h-11.2c-5.9,0-10.5,1.2-13.6,3.5c-3.1,2.3-4.7,5.3-4.7,9s1.9,6.8,5.7,9.4c3.8,2.6,9,3.9,15.8,3.9
			c6.5,0,12.2-1.2,17.2-3.6c1-0.4,1.5-1.1,1.5-1.9V220c0-4.7-1.7-8.4-5.1-10.9c-3.4-2.5-8.4-3.8-15-3.8
			C151.7,205.4,145.5,207.5,140.9,211.7z"/>
		<defs>
			<filter id="Adobe_OpacityMaskFilter_35_" filterUnits="userSpaceOnUse" x="184.7" y="205.4" width="39.4" height="43.2">
				<feColorMatrix  type="matrix" values="1 0 0 0 0  0 1 0 0 0  0 0 1 0 0  0 0 0 1 0"/>
			</filter>
		</defs>
		<mask maskUnits="userSpaceOnUse" x="184.7" y="205.4" width="39.4" height="43.2" id="mask-2_36_">
			<g class="st71">
				<polygon id="path-1_36_" class="st1" points="5.4,500 494.6,500 494.6,0 5.4,0 				"/>
			</g>
		</mask>
		<path id="Fill-41" class="st72" d="M204.3,240.8c-5.3,0-9.7-1.5-13-4.5l-6.6,5.9c4.8,4.2,11.3,6.4,19.4,6.4c6.2,0,11-1.2,14.6-3.6
			c3.6-2.4,5.4-5.6,5.4-9.8c0-6.7-4.5-10.6-13.5-11.8l-8.5-1.2c-3.3-0.4-5-2-5-4.8c0-1.4,0.7-2.5,2.1-3.3s3.3-1.2,5.7-1.2
			c3.9,0,7.5,1.2,10.7,3.6l6.4-5.5c-4.4-3.7-10.1-5.5-17.3-5.5c-5.6,0-10.1,1.1-13.3,3.3c-3.3,2.2-4.9,5.2-4.9,9.1
			c0,3.6,1.2,6.4,3.7,8.5c2.5,2.1,5.7,3.3,9.7,3.8l8.3,1c3.5,0.4,5.2,2,5.2,4.7C213.4,239.2,210.4,240.8,204.3,240.8"/>
		<defs>
			<filter id="Adobe_OpacityMaskFilter_36_" filterUnits="userSpaceOnUse" x="7.9" y="261.3" width="43" height="56.3">
				<feColorMatrix  type="matrix" values="1 0 0 0 0  0 1 0 0 0  0 0 1 0 0  0 0 0 1 0"/>
			</filter>
		</defs>
		<mask maskUnits="userSpaceOnUse" x="7.9" y="261.3" width="43" height="56.3" id="mask-2_37_">
			<g class="st73">
				<polygon id="path-1_37_" class="st1" points="5.4,500 494.6,500 494.6,0 5.4,0 				"/>
			</g>
		</mask>
		<path id="Fill-42" class="st74" d="M40.3,299.4c0,3.5-1,6.2-3,7.9c-2,1.7-4.6,2.6-7.8,2.6c-3.4,0-6.1-0.9-8-2.6
			c-1.9-1.7-2.9-4.4-2.9-7.9v-6.8c0-3.6,0.9-6.3,2.7-8.1c1.8-1.7,4.6-2.6,8.4-2.6c3.2,0,5.8,0.8,7.7,2.5c1.9,1.6,2.8,3.9,2.8,6.9
			V299.4z M28.8,274.4c-7.1,0-12.3,1.6-15.7,4.8c-3.4,3.2-5.1,7.6-5.1,13.3v6.7c0,12.3,7.2,18.4,21.6,18.4
			c14.3,0,21.4-5.9,21.4-17.8v-38.5H40.3V277C37.1,275.3,33.2,274.4,28.8,274.4z"/>
		<defs>
			<filter id="Adobe_OpacityMaskFilter_37_" filterUnits="userSpaceOnUse" x="58.6" y="261.3" width="21.6" height="22.9">
				<feColorMatrix  type="matrix" values="1 0 0 0 0  0 1 0 0 0  0 0 1 0 0  0 0 0 1 0"/>
			</filter>
		</defs>
		<mask maskUnits="userSpaceOnUse" x="58.6" y="261.3" width="21.6" height="22.9" id="mask-2_38_">
			<g class="st75">
				<polygon id="path-1_38_" class="st1" points="5.4,500 494.6,500 494.6,0 5.4,0 				"/>
			</g>
		</mask>
		<polygon id="Fill-43" class="st76" points="80.1,261.3 68.9,261.3 58.6,284.1 68.6,284.1 		"/>
		<defs>
			<filter id="Adobe_OpacityMaskFilter_38_" filterUnits="userSpaceOnUse" x="77.7" y="261.3" width="64.4" height="55.4">
				<feColorMatrix  type="matrix" values="1 0 0 0 0  0 1 0 0 0  0 0 1 0 0  0 0 0 1 0"/>
			</filter>
		</defs>
		<mask maskUnits="userSpaceOnUse" x="77.7" y="261.3" width="64.4" height="55.4" id="mask-2_39_">
			<g class="st77">
				<polygon id="path-1_39_" class="st1" points="5.4,500 494.6,500 494.6,0 5.4,0 				"/>
			</g>
		</mask>
		<path id="Fill-44" class="st78" d="M109.5,271.2l10.6,23.9H98.8L109.5,271.2z M95.1,303.3h28.7l5.9,13.5h12.4l-26.5-55.4h-12.1
			l-25.8,55.4h11.5L95.1,303.3z"/>
		<defs>
			<filter id="Adobe_OpacityMaskFilter_39_" filterUnits="userSpaceOnUse" x="147.1" y="261.3" width="21.2" height="55.4">
				<feColorMatrix  type="matrix" values="1 0 0 0 0  0 1 0 0 0  0 0 1 0 0  0 0 0 1 0"/>
			</filter>
		</defs>
		<mask maskUnits="userSpaceOnUse" x="147.1" y="261.3" width="21.2" height="55.4" id="mask-2_40_">
			<g class="st79">
				<polygon id="path-1_40_" class="st1" points="5.4,500 494.6,500 494.6,0 5.4,0 				"/>
			</g>
		</mask>
		<path id="Fill-45" class="st80" d="M147.1,261.3v42.5c0,4.5,1.1,7.8,3.3,9.9c2.2,2.1,5.5,3.1,10.1,3.1h7.8v-7.8h-5.6
			c-1.7,0-3-0.3-3.8-1c-0.8-0.7-1.2-1.9-1.2-3.7v-42.9H147.1z"/>
		<defs>
			<filter id="Adobe_OpacityMaskFilter_40_" filterUnits="userSpaceOnUse" x="172.7" y="261.3" width="43" height="56.3">
				<feColorMatrix  type="matrix" values="1 0 0 0 0  0 1 0 0 0  0 0 1 0 0  0 0 0 1 0"/>
			</filter>
		</defs>
		<mask maskUnits="userSpaceOnUse" x="172.7" y="261.3" width="43" height="56.3" id="mask-2_41_">
			<g class="st81">
				<polygon id="path-1_41_" class="st1" points="5.4,500 494.6,500 494.6,0 5.4,0 				"/>
			</g>
		</mask>
		<path id="Fill-46" class="st82" d="M186.2,284.5c1.9-1.7,4.4-2.5,7.7-2.5c3.8,0,6.6,0.9,8.4,2.6s2.7,4.4,2.7,8.1v6.8
			c0,3.5-1,6.2-2.9,7.9s-4.6,2.6-8,2.6c-3.2,0-5.8-0.9-7.8-2.6c-2-1.7-3-4.4-3-7.9v-8.1C183.4,288.4,184.3,286.1,186.2,284.5z
			 M172.7,261.3v38.5c0,11.8,7.1,17.8,21.4,17.8c14.4,0,21.6-6.1,21.6-18.4v-6.7c0-5.6-1.7-10-5.1-13.3c-3.4-3.2-8.6-4.8-15.7-4.8
			c-4.5,0-8.3,0.9-11.6,2.6v-15.6H172.7z"/>
		<defs>
			<filter id="Adobe_OpacityMaskFilter_41_" filterUnits="userSpaceOnUse" x="223.2" y="261.3" width="10.6" height="9">
				<feColorMatrix  type="matrix" values="1 0 0 0 0  0 1 0 0 0  0 0 1 0 0  0 0 0 1 0"/>
			</filter>
		</defs>
		<mask maskUnits="userSpaceOnUse" x="223.2" y="261.3" width="10.6" height="9" id="mask-2_42_">
			<g class="st83">
				<polygon id="path-1_42_" class="st1" points="5.4,500 494.6,500 494.6,0 5.4,0 				"/>
			</g>
		</mask>
		<polygon id="Fill-47" class="st84" points="223.2,270.4 233.8,270.4 233.8,261.3 223.2,261.3 		"/>
		<defs>
			<filter id="Adobe_OpacityMaskFilter_42_" filterUnits="userSpaceOnUse" x="223.2" y="275.2" width="10.6" height="41.6">
				<feColorMatrix  type="matrix" values="1 0 0 0 0  0 1 0 0 0  0 0 1 0 0  0 0 0 1 0"/>
			</filter>
		</defs>
		<mask maskUnits="userSpaceOnUse" x="223.2" y="275.2" width="10.6" height="41.6" id="mask-2_43_">
			<g class="st85">
				<polygon id="path-1_43_" class="st1" points="5.4,500 494.6,500 494.6,0 5.4,0 				"/>
			</g>
		</mask>
		<polygon id="Fill-48" class="st86" points="223.2,316.8 233.8,316.8 233.8,275.2 223.2,275.2 		"/>
		<defs>
			<filter id="Adobe_OpacityMaskFilter_43_" filterUnits="userSpaceOnUse" x="241.1" y="274.4" width="42.4" height="43.2">
				<feColorMatrix  type="matrix" values="1 0 0 0 0  0 1 0 0 0  0 0 1 0 0  0 0 0 1 0"/>
			</filter>
		</defs>
		<mask maskUnits="userSpaceOnUse" x="241.1" y="274.4" width="42.4" height="43.2" id="mask-2_44_">
			<g class="st87">
				<polygon id="path-1_44_" class="st1" points="5.4,500 494.6,500 494.6,0 5.4,0 				"/>
			</g>
		</mask>
		<path id="Fill-49" class="st88" d="M251.9,291.9c0-3.4,1-5.9,2.8-7.5c1.9-1.6,4.4-2.4,7.6-2.4c6.9,0,10.3,3.3,10.3,9.9v8.3
			c0,6.5-3.4,9.7-10.3,9.7c-3.1,0-5.7-0.8-7.6-2.4c-1.9-1.6-2.8-4-2.8-7.4V291.9z M262.3,317.6c14.1,0,21.2-6.2,21.2-18.8v-6.2
			c0-5.8-1.8-10.3-5.4-13.5c-3.6-3.2-8.9-4.7-15.7-4.7c-6.9,0-12.1,1.6-15.8,4.7c-3.6,3.2-5.5,7.7-5.5,13.5v6
			C241.1,311.3,248.1,317.6,262.3,317.6z"/>
		<defs>
			<filter id="Adobe_OpacityMaskFilter_44_" filterUnits="userSpaceOnUse" x="290.1" y="274.4" width="41.6" height="42.4">
				<feColorMatrix  type="matrix" values="1 0 0 0 0  0 1 0 0 0  0 0 1 0 0  0 0 0 1 0"/>
			</filter>
		</defs>
		<mask maskUnits="userSpaceOnUse" x="290.1" y="274.4" width="41.6" height="42.4" id="mask-2_45_">
			<g class="st89">
				<polygon id="path-1_45_" class="st1" points="5.4,500 494.6,500 494.6,0 5.4,0 				"/>
			</g>
		</mask>
		<path id="Fill-50" class="st90" d="M300.7,291.2c0-2.8,0.9-5,2.7-6.6c1.8-1.6,4.3-2.4,7.5-2.4c6.7,0,10,3.2,10,9.5v25.1h10.7
			v-24.9c0-11.6-6.2-17.4-18.6-17.4c-5,0-9.5,1.4-13.5,4.1l-0.6-3.3h-9v41.6h10.7V291.2z"/>
	</g>
</g>
</svg>
