<svg version="1.1" id="Calque_1" xmlns="http://www.w3.org/2000/svg" xmlns:xlink="http://www.w3.org/1999/xlink" x="0px" y="0px"
	 viewBox="0 0 432 500" style="enable-background:new 0 0 432 500;" xml:space="preserve">
<g>
	<g>
		<g>
			<polygon class="st0" points="2.4,125 114.7,189.8 123.1,124.9"/>
		</g>
		<g>
			<polygon class="st0" points="112.3,194 0,129.2 60.3,233.7"/>
			<polygon class="st0" points="315.9,306 428.2,370.8 368,266.3"/>
		</g>
		<g>
			<polygon class="st0" points="313.5,310.2 305.1,375.1 425.8,375"/>
		</g>
		<path class="st0" d="M366.7,235.8L430.6,125l-127.9-0.1l-36.4,36.9l-1.9-1.1l13.8-50L214.1,0l-64.1,110.7l13.8,50l-1.9,1.1
			l-34.3-34.8l-8.7,67c0,0,0,0,0,0.1c0,0.1,0,0.2-0.1,0.3c0,0.1,0,0.2-0.1,0.3c0,0.1-0.1,0.2-0.1,0.3c0,0.1-0.1,0.2-0.2,0.2
			c-0.1,0.1-0.1,0.1-0.2,0.2c-0.1,0.1-0.1,0.1-0.2,0.2c0,0,0,0,0,0l-53.7,41l47.2,12.3l0,2.2l-50.2,13.1L4.3,363.4
			c13.6-8.5,32.3-16.5,54.4-22.7c203-57.8,112.9-54,97.4-54.4c-9.6-0.2-23.4,0.9-25.6-3.2c-1.8-3.4,5.3-6.8,21.2-11
			c28.4-7.4,69.7-15.5,84.7-20.5c13.5-4.2,10.7-6.4-5.9-7.1c-98-3.5,1-25.4-21-26.1c1.9-0.7,6.2-1.7,9-1.7
			c25.8-0.1-74.1,23.5,33,25.6c22.4,0,31.1,1.6,24.2,5.1c-7.1,4.1-39.5,11.3-57.5,17.6c-14.9,5.3-6.8,8.1,9.2,10.4
			c19.4,3,48.1,5.5,28.8,14.8c-12.9,6.2-26.1,11.3-37.6,17.5c-16.7,9-54.8,31.7-68.5,81.7L214.1,500c49.3-85.2,46.8-99.1,45-117.6
			c-1.2-12.6-10.3-25.7-18.2-30.2c-32.2-18.7-54.9,18-43.7,34.3c6.1,8.9,16.8,11.7,22.8,5.1c7-7.7,4.6-16.2-2.3-18.8
			c-4.3-1.6-7.6,0.3-9.2,4.1c-1,2.3-2.2,2.6-3.1,2.4c-0.8-0.2-1.7-0.9-1.9-2.5c-0.1-1.4,1.2-8.1,7.8-10.1
			c11.4-3.5,25.1,9.9,15.5,25.8c-5.3,8.8-20.9,14.6-34.1-1.3c-14.3-17.2,2.9-50,28.4-51.1c20-0.9,40.5,10.8,45.6,40.3
			c1.6,9.2,1.1,20.1-1.7,31.7l13.2-22.8l-13.8-50l1.9-1.1l34.3,34.8l8.7-67c0,0,0,0,0-0.1c0-0.1,0-0.2,0.1-0.3
			c0-0.1,0.1-0.2,0.1-0.3c0-0.1,0.1-0.2,0.1-0.3c0-0.1,0.1-0.2,0.2-0.2c0.1-0.1,0.1-0.1,0.2-0.2c0.1-0.1,0.1-0.1,0.2-0.2
			c0,0,0,0,0,0l53.7-41l-47.2-12.3v-2.2L366.7,235.8z M181.9,116.4l16.6,2.9l-9.1-14.2l14.2,9.1l-2.9-16.6l9.7,13.8l3.7-16.5
			l3.7,16.5l9.7-13.8l-2.9,16.6l14.2-9.1l-9.1,14.2l16.6-2.9l-13.8,9.7l16.5,3.7l-16.5,3.7l13.8,9.7l-16.6-2.9l9.1,14.2l-14.2-9.1
			l2.9,16.6l-9.7-13.8l-3.7,16.5l-3.7-16.5l-9.7,13.8l2.9-16.6l-14.2,9.1l9.1-14.2l-16.6,2.9l13.8-9.7l-16.5-3.7l16.5-3.7
			L181.9,116.4z M255,210.2c-42.7-26.2-35.5,5-109.6,32.6l78.2-69.5l52.2,34.8l34.5-32l57,36.9C305.7,181.7,290.9,232.3,255,210.2z"
			/>
	</g>
</g>
</svg>
