<?xml version="1.0" encoding="utf-8"?>
<!-- Generator: Adobe Illustrator 21.1.0, SVG Export Plug-In . SVG Version: 6.00 Build 0)  -->
<svg version="1.1" id="Calque_1" xmlns="http://www.w3.org/2000/svg" xmlns:xlink="http://www.w3.org/1999/xlink" x="0px" y="0px"
	 viewBox="0 0 500 500" style="enable-background:new 0 0 500 500;" xml:space="preserve">
<path d="M157.3,294.8c0.8-1.2,81.1-121.5,184.3-206.6l4.8-4L309.4,40l-4.7,3.9c-66.6,54.8-114.7,109-145,147.1l-25.9-51.7
	l-51.9,25.5l69.5,139L157.3,294.8z"/>
<path d="M415.9,233.8c-32.6-1.1-214.5,80.7-229.5,90.6c-11.6,7.8-3.4,29.9,11.4,35.7c47.7,18.4,89.9-46.8,146.2-10.2
	c-31.8,3-174.2,106.6-191-11.6C57.8,298.4,19.5,272.6,4.6,301.4C-9.8,329,7.8,328.8,157.3,429.2c19.8,13.3,42.8,28.2,59.6,30.2
	c66.8,8,183.2-78.6,251.1-73.2c11,0.9,21.5,2.7,31.5,5.1V255.1C469.1,244,438.1,234.6,415.9,233.8z"/>
</svg>
