<svg version="1.1" id="Calque_1" xmlns="http://www.w3.org/2000/svg" xmlns:xlink="http://www.w3.org/1999/xlink" x="0px" y="0px"
	 viewBox="0 0 500 500" style="enable-background:new 0 0 500 500;" xml:space="preserve">
<g id="Page-1_1_">
	<g id="Icone" transform="translate(-508.000000, -1424.000000)">
		<g id="Page-1" transform="translate(508.000000, 1424.000000)">
			<path id="Fill-1" class="st0" d="M89,150.4h72.6V93.7H89V150.4z M190,406.3l-129.5,0c-17.1,0-31-13-31-28.9V206.8
				c0-15.9,13.9-28.9,31-28.9h129.6c17.1,0,31,13,31,28.9l0,170.6C221,393.3,207.1,406.3,190,406.3z M59.4,66.2v84.2l-3.5,0.2
				C24.6,152.8,0,177.5,0,206.8v170.6c0,31.1,27.1,56.4,60.5,56.4h129.6c33.4,0,60.5-25.3,60.5-56.4l0-170.6
				c0-29.3-24.6-54-55.9-56.2l-4.5-0.3l1-3.6V66.1L59.4,66.2z"/>
			<path id="Fill-3" class="st0" d="M363.6,190.2h56.7v-65.5h-56.7V190.2z M446.6,406.3H337.2c-13.1,0-23.8-10-23.8-22.2V240
				c0-12.3,10.7-22.2,23.8-22.2h109.4c13.1,0,23.8,10,23.8,22.2v144C470.5,396.3,459.8,406.3,446.6,406.3z M334,97.1v93.1l-3.3,0.4
				c-26.7,3-46.9,24.3-46.9,49.4V384c0,27.5,23.9,49.8,53.4,49.8h109.4c29.4,0,53.4-22.3,53.4-49.8V240c0-25.1-20.2-46.4-46.9-49.4
				l-3.3-0.4V97.1H334z"/>
			<path id="Fill-4" class="st0" d="M125.3,239.9c-30.8,0-55.9,23.4-55.9,52.1c0,28.8,25.1,52.1,55.9,52.1
				c30.8,0,55.9-23.4,55.9-52.1C181.2,263.3,156.1,239.9,125.3,239.9"/>
		</g>
	</g>
</g>
</svg>
