<svg viewBox="0 0 445 490" version="1.1" xmlns="http://www.w3.org/2000/svg" xmlns:xlink="http://www.w3.org/1999/xlink">
    <title>laundry</title>
    <defs></defs>
    <g id="Page-1" stroke-width="1" fill-rule="evenodd">
        <g id="laundry" transform="translate(0.000000, -5.000000)" fill-rule="nonzero">
            <path d="M33.3333333,5.76566667 C15,5.76566667 0,20.7656667 0,39.099 L0,461.321222 C0,479.654556 15,494.654556 33.3333333,494.654556 L411.111111,494.654556 C429.444444,494.654556 444.444444,479.654556 444.444444,461.321222 L444.444444,39.099 C444.444444,20.7656667 429.444444,5.76566667 411.111111,5.76566667 L33.3333333,5.76566667 Z M33.3333333,27.9878889 L411.111111,27.9878889 C417.222222,27.9878889 422.222222,32.9878889 422.222222,39.099 L422.222222,94.6545556 L22.2222222,94.6545556 L22.2222222,39.099 C22.2222222,32.4323333 27.2222222,27.9878889 33.3333333,27.9878889 Z M105,50.2101111 C98.8888889,50.7656667 93.8888889,55.7656667 94.4444444,61.8767778 C95,67.9878889 100,72.9878889 106.111111,72.4323333 L128.333333,72.4323333 C134.444444,72.4323333 139.444444,67.4323333 139.444444,61.3212222 C139.444444,55.2101111 134.444444,50.2101111 128.333333,50.2101111 C128.333333,50.2101111 128.333333,50.2101111 127.777778,50.2101111 L105.555556,50.2101111 C105.555556,50.2101111 105,50.2101111 105,50.2101111 Z M22.2222222,116.876778 L422.222222,116.876778 L422.222222,461.321222 C422.222222,467.432333 417.222222,472.432333 411.111111,472.432333 L33.3333333,472.432333 C27.2222222,472.432333 22.2222222,467.432333 22.2222222,461.321222 L22.2222222,116.876778 Z M227.777778,155.765667 C170.555556,155.765667 121.111111,190.765667 100,240.210111 L100,216.876778 C100,210.765667 95,205.765667 88.8888889,205.765667 C88.3333333,205.765667 87.7777778,205.765667 87.2222222,205.765667 C81.6666667,206.321222 77.2222222,211.321222 77.2222222,216.876778 L77.2222222,372.432333 C77.2222222,378.543444 82.2222222,383.543444 88.3333333,383.543444 C94.4444444,383.543444 99.4444444,378.543444 99.4444444,372.432333 C99.4444444,372.432333 99.4444444,372.432333 99.4444444,371.876778 L99.4444444,348.543444 C120.555556,397.987889 170,432.987889 227.222222,432.987889 C303.888889,432.987889 366.111111,370.765667 366.111111,294.099 C366.666667,217.987889 304.444444,155.765667 227.777778,155.765667 Z M227.777778,177.987889 C292.222222,177.987889 344.444444,230.210111 344.444444,294.654556 C344.444444,359.099 292.222222,411.321222 227.777778,411.321222 C163.333333,411.321222 111.111111,359.099 111.111111,294.654556 C111.111111,229.654556 163.333333,177.987889 227.777778,177.987889 Z M227.777778,200.765667 C176.111111,200.765667 133.888889,242.987889 133.888889,294.654556 C133.888889,346.321222 176.111111,388.543444 227.777778,388.543444 C279.444444,388.543444 321.666667,346.321222 321.666667,294.654556 C321.666667,242.987889 279.444444,200.765667 227.777778,200.765667 Z M227.777778,226.321222 C265.555556,226.321222 295.555556,256.321222 295.555556,294.099 C295.555556,331.876778 265.555556,361.876778 227.777778,361.876778 C190,361.876778 160,331.876778 160,294.099 C160,256.876778 190,226.321222 227.777778,226.321222 Z M87.7777778,62.4323333 C87.7777778,72.9878889 79.4444444,81.3212222 68.8888889,81.3212222 C58.3333333,81.3212222 50,72.9878889 50,62.4323333 C50,51.8767778 58.3333333,43.5434444 68.8888889,43.5434444 C79.4444444,43.5434444 87.7777778,51.8767778 87.7777778,62.4323333 Z" id="Shape"></path>
        </g>
    </g>
</svg>
