<svg id="Calque_1" data-name="Calque 1" xmlns="http://www.w3.org/2000/svg" viewBox="0 0 24 24"><defs></defs><title>Réfrigérateur
américain</title><path class="cls-1" d="M20.5.12H4A.38.38,0,0,0,3.62.5v23a.38.38,0,0,0,.38.38H20.5a.38.38,0,0,0,.38-.38V.5A.38.38,0,0,0,20.5.12Zm-.38,18H11.88V.88h8.24ZM4.38.88h6.74V23a.42.42,0,0,0,0,.12H4.38Zm7.47,22.24a.42.42,0,0,0,0-.12V18.88h8.24v4.24Z"/><path class="cls-1" d="M9.5,8.62H6A.38.38,0,0,0,5.62,9v5a.38.38,0,0,0,.38.38H9.5A.38.38,0,0,0,9.88,14V9A.38.38,0,0,0,9.5,8.62Zm-.38,5h-1V12a.37.37,0,1,0-.74,0v1.62h-1V9.38H9.12Z"/><path class="cls-1" d="M13.5,16.38a.38.38,0,0,0,.38-.38V7a.38.38,0,1,0-.76,0v9A.38.38,0,0,0,13.5,16.38Z"/></svg>
