<svg version="1.1" id="Calque_1" xmlns="http://www.w3.org/2000/svg" xmlns:xlink="http://www.w3.org/1999/xlink" x="0px" y="0px"
	 viewBox="0 0 500 500" style="enable-background:new 0 0 500 500;" xml:space="preserve">
<g>
	<path d="M158.3,498.7l25-53.8h11.8l25.7,53.8h-12l-5.8-13.1h-27.8l-5.8,13.1H158.3z M189.2,454.4l-10.3,23.2h20.6L189.2,454.4z"/>
	<path d="M265.3,444.9h9.7v53.8h-10.3l-30.1-38.6v38.6h-9.8v-53.8H235l30.2,37.7V444.9z"/>
	<path d="M310.6,444.9h10.6v37.3c0,11.1-7.4,17.3-20.3,17.3c-8.2,0-14.8-3-19.1-6.9l7.1-6.7c3.2,3.8,7.8,5.5,11.9,5.5
		c5.3,0,9.8-3,9.8-9.1V444.9z"/>
	<path d="M332,444.9h10.9v53.8H332V444.9z"/>
</g>
<path d="M350.6,298.4c-17.8-5.1-33.9-16.7-45.4-34c-19.9-30.1-11.6-70.8,18.5-90.7c11.8-7.8,25.9-10.5,39.8-7.7
	c13.8,2.8,25.8,10.9,33.5,22.7c13,19.7,7.6,46.4-12.1,59.4c-7.8,5.1-17,6.9-26.2,5.1c-9.1-1.9-16.9-7.2-22.1-14.9
	c-4.2-6.3-5.6-13.9-4.1-21.3c1.5-7.4,5.8-13.8,12.2-18c1.2-0.8,2.8-0.5,3.6,0.7l0,0c0.8,1.2,0.5,2.8-0.7,3.6l0,0
	c-5.1,3.4-8.7,8.6-9.9,14.7c-1.2,6.1,0,12.2,3.4,17.4c4.4,6.6,11,11.1,18.7,12.7c7.7,1.6,15.6,0.1,22.2-4.3
	c17.3-11.4,22.1-34.8,10.7-52.1c-7-10.6-17.7-17.9-30.2-20.4c-12.5-2.5-25.2-0.1-35.8,6.9c-27.7,18.3-35.4,55.7-17,83.5
	c23.9,36.1,69.1,45.4,105.2,21.5c34.1-22.5,55.2-74.5,37.9-121.7c-6.5-19.1-18.9-39.8-39.8-61.6C374,58.6,311.7,34.5,249.3,20.4
	l-2.4,17.2l-9.5,77.2c-0.5,4.4-1.2,8.8-2.1,13.1c0,0-4.3,22.2-5.4,27.9c-0.2,1-1.3,1.7-3,2.4l-6.2,1.4l-3.7,0.3
	c-7,0.4-14.8-0.3-18.1-2.2c-0.9-0.5-1.3-1.5-1.1-2.5c1.2-4.7,2.1-9.4,2.8-14.1l12.7-87.1c0,0,5.1-26.4,9.2-39.1
	C130.3-2.2,45.4,0.7,45.4,0.7S15.2,240.1,113,344.1l0.6-20.6c2,6.2,23,5.5,23.3,0.4c-0.1,4.5-0.9,40.8-0.9,40.8
	c4.5,3.5,9,6.8,13.5,9.7l4.9-29.3l7.9-37.6c0.1-0.6,0.8-0.8,1.3-0.4c4.3,3.7,22.3,4.2,29,2.1c1.1-0.3,2.1,0.6,1.9,1.7
	c-2.2,10.9-8.5,43.1-8.5,43.1l-6.1,37c82.3,35.2,137.9-20.5,137.9-20.5s30.6-28.3,26.2-64.9c6.5,4.3,16.4,9.1,30.1,11.8
	c28.2,5.6,45,14.4,47.8,16.2c2.8,1.8,19.6-5.8,28.1-10.2c0,0-22.8-19.9-53.1-21.2C373.1,301.3,365.7,302,350.6,298.4 M118.3,25.3
	c0-0.7,0.8-1,1.3-0.7l17.1,9.2c0.6,0.3,0.9,0.9,0.9,1.6c0,0.9-0.1,2.7-0.3,5.7c0,0.5-0.2,1-0.6,1.3c-3.8,3.5-16.2,2.3-19.1-0.2
	c-0.3-0.3-0.5-0.7-0.4-1.1L118.3,25.3z M101,116.2c-3.6,2.6-14.9,9.5-31.9,11.7c-0.9,0.1-1.4-0.9-0.9-1.6
	c13.4-15.8,27.9-13.1,32.5-11.7C101.5,114.9,101.6,115.8,101,116.2 M102.2,112c-5.6-1.6-25.8-8.2-46.1-28.2
	c-0.5-0.5-0.1-1.3,0.6-1.3c33.2,0,44.2,22.3,46.6,28.4C103.5,111.6,102.9,112.2,102.2,112 M106.5,108.8c-0.1,0.5-0.7,0.6-1,0.2
	c-2.5-3.3-11.1-15.5-14.2-35.3c-0.1-0.5,0.5-0.8,0.9-0.5C110.9,87.1,107.7,104.4,106.5,108.8 M112.4,108.4c0-1.9,0.1-3.9,0.2-5.8
	l4.2-57.1c0-0.3,0.4-0.5,0.7-0.3c3.8,3.3,15.7,3,19-0.2c0.2-0.2,0.6-0.1,0.6,0.2c-0.6,10.4-2.9,51-2.9,51c-0.2,3.8-0.3,7.7-0.1,11.5
	c0,0,0,0.5,0.1,3.1c0.1,1.1-3,2.2-6.8,2.9l-5.4,0.6c-4.7,0.2-9.1-0.6-9.5-3.1L112.4,108.4z M112.5,115.4c0-0.3,0.4-0.5,0.6-0.2
	c3.2,3.2,17.6,2.1,20.7-0.1c0.3-0.2,0.6,0,0.6,0.3c0.2,6.1,1.3,31.2,1.3,31.2c0.1,2.2,0.1,4.4,0,6.5c0,0-0.7,25.7-0.7,27.8
	c0,0.7-0.2,1-1.9,1.7c-1.7,0.7-5.2,1.1-5.2,1.1c-5.3,0.6-11.9,0.4-14.2-0.6c-0.4-0.2-0.7-0.7-0.7-1.1L112.5,115.4z M113,187.5l0-0.9
	c0-0.4,0.5-0.7,0.8-0.5c3.4,2.1,15,1.1,19.3-0.5h0v0c0.3-0.1,0.6-0.3,0.9-0.4c0.4-0.2,0.8,0.1,0.8,0.5c0,3.2,0.1,10.3,0.2,13.6
	c0,0,2.1,48.8,2.1,51.5c0,2.1-10.8,6.2-17.9,4.7c0,0-1.8-0.4-2.7-1c-0.7-0.5-1.3-0.8-1.7-1.4c-0.2-0.3-0.4-0.6-0.4-1L113,187.5z
	 M138,275.4c0,0-0.9,41.8-1,45.5c0,0.6-0.5,1.1-1.4,1.6l-5.2,1.6c-6.4,1.1-15.3,0.5-16.7-3.7l1.3-45.7l-0.4-17.4
	c0-0.3,0.3-0.4,0.5-0.3c5.8,5.4,19.1,1.4,21.7-1.4c0.2-0.2,0.5-0.1,0.5,0.2l0.5,12.6C138,270.7,138,273.1,138,275.4 M146.3,87.1
	c-0.1-5.9,1.6-31.4,32.9-43.6c0.7-0.3,1.4,0.4,1.1,1.2c-11.9,26.4-28.7,39.9-33,43C146.9,88,146.3,87.6,146.3,87.1 M149.9,90.8
	c-0.5-0.1-0.7-0.8-0.2-1.2c3.5-2.8,16.4-11.4,35.3-0.9c0.6,0.3,0.5,1.3-0.2,1.4C167.3,94.5,153.8,91.8,149.9,90.8 M196.3,301.8
	c-0.7,3.6-18.1,4.7-24.1,3.8c-3-0.4-6-1.4-7-2.1l0,0c-1.1-0.8-1.6-2.1-1.3-3.4l19-91c2.3-11.1,5.3-22.3,8.7-33.2l3.6-11.2
	c0.2-0.7,0.5-1.5,0.7-2.2c0.2-0.8,1.2-1.1,1.8-0.5c5,4.7,22.1,4.4,28.7,1.6c1-0.4,2.1,0.4,1.9,1.5c-1.6,8.2-4.9,25.8-4.9,25.8
	c-0.8,4.1-1.7,8.3-2.8,12.4l-18.7,70.5C201.8,273.6,197.4,296.1,196.3,301.8 M206,298.9c-0.3-5.6,0.4-25.9,26.4-37.5
	c0.5-0.2,1,0.3,0.8,0.7c-8.6,21.9-21.9,34.1-25.9,37.3C206.8,299.8,206,299.5,206,298.9 M246.9,334.4c-22-8.4-34.3-21.6-37.6-25.5
	c-0.4-0.5-0.1-1.2,0.5-1.3c5.6-0.4,25.9,0.1,37.8,26.1C247.8,334.1,247.4,334.6,246.9,334.4 M275.8,283.3
	c-32.3,19-60.2,20.5-66.8,20.5c-0.6,0-1-0.7-0.7-1.2c4.2-6,25-31.8,67.3-20.6C276.2,282.1,276.4,283,275.8,283.3"/>
</svg>
