<svg version="1.1" id="Calque_1" xmlns="http://www.w3.org/2000/svg" xmlns:xlink="http://www.w3.org/1999/xlink" x="0px" y="0px"
	 viewBox="0 0 500 500" style="enable-background:new 0 0 500 500;" xml:space="preserve">
<g id="_x31_83---Wibilong">
	<g id="Wibilong_x2F_Desktop_x2F_01-1_x5F_Wibilong" transform="translate(-614.000000, -292.000000)">
		<g id="Wibilong" transform="translate(-286.000000, -958.000000)">
			<g id="Bloc-question" transform="translate(437.000000, 1065.000000)">
				<g id="Answer" transform="translate(463.000000, 183.000000)">
					<path id="Shape" d="M500,283.9c0-55.7-47.8-103.7-115.6-124.4C365,97.8,287.2,52,194.4,52C87.2,52,0,113.1,0,188.4
						c0,35.5,19.4,69.3,53.9,94.4L25,336.3c-2.8,5.5-1.7,12,2.2,15.8c2.8,2.7,6.1,3.8,10,3.8c2.2,0,4.4-0.5,6.7-1.6l73.3-37.7
						c21.1,59.5,97.2,103.7,188.3,103.7c25,0,50-3.3,73.3-9.8l77.8,39.8c2.2,1.1,4.4,1.6,6.7,1.6c3.3,0,7.2-1.6,10-3.8
						c4.4-4.4,5.6-10.9,2.2-15.8l-28.9-53.5C480.6,353.2,500,319.4,500,283.9z M421.1,362.5c-6.1,3.8-8.3,11.5-5,18l13.9,25.6
						l-43.3-22.4c-2.2-1.1-4.4-1.6-6.7-1.6c-1.7,0-2.8,0-3.9,0.5c-22.2,7.1-46.1,10.4-70.6,10.4c-72.2,0-133.3-30-156.7-72
						c15,2.7,30,3.8,45.6,3.8c106.7,0,193.9-60.6,194.4-135.3c50,19.1,83.3,54,83.3,94.4C472.2,313.4,453.9,341.8,421.1,362.5z"/>
				</g>
			</g>
		</g>
	</g>
</g>
</svg>
