<svg xmlns="http://www.w3.org/2000/svg" viewBox="0 0 500 465.8"><path d="M443.2 15.9c-72.8-44.4-150.5 16.8-182.4 47.9-6.5 6.8-5.6 9.5-3.2 12.1 10.1 10.7 29.3 31.1 47 49.8L357.1 71c1.4-1.2 2.7-2.1 4.7 0 16 17 108.5 114.9 112.7 119.8 3.4 3.9.3 5.4-3.6 5.4-18.9 0-77.5-48.4-123.5-52.9-8.3-.8-18.3-2.6-28.3-2 41.9 44.4 87.8 94.1 91.3 98.1 4.7 5.4.3 6.7-5 7.5-44.2 6.5-110.8-63.8-186.5-69.6-43.4-3.3-80.6 14-98.9 48.2-8.3 15.5-13.3 33.8-10.9 51 12.2 88.2 116.3 88.9 124.5 32.9 3.6-24.9-10.8-52.4-42.3-49.8-7.9.6-15.5 3.8-20.8 9.4-2.6 2.8-4.7 6.1-5.8 9.6-.6 1.8-.9 3.5-1.1 5.3-.1 1.9-.1 3.9.2 5.7.1.9.4 2.9 1.2 5.3.8 2.3 2.2 4.9 4.1 6.9 3.7 4 9.2 5 9.6 5 2.5.4 2.6 2.2 1.1 3.3-1.1.7-3.7 1.1-7.1.3-3.4-.8-7.3-3-10.1-6.4-2.9-3.4-4.6-7.6-5.3-11.1-.8-3.5-.8-6.2-.8-7.2-.1-4.7 1-9.5 3.1-13.7 2.1-4.2 5.1-8 8.7-11 7.2-6.2 16.8-9 26.2-9.1 41.4-.3 51.6 38.8 47.5 61-12.2 67.1-136 60.6-141.3-38.4-.5-9.7.8-19.3 3-28.7 2.2-9.4 5.8-18.5 10.3-26.9 9.1-17 21.5-31.4 34.3-44.9 1.5-1.6 91.7-95.4 94.4-98.4 3.9-4.2-.7-9.1-5-13.7-32-31.1-108.2-90.3-180.8-46.1-71.8 43.7-69.5 146.4-27 230.9 48.5 96.4 144.8 175.1 220.2 219 75.3-43.9 171.7-122.6 220.2-219 42.3-84.4 44.6-187.1-27.1-230.8zM87.5 138l-9.7 16.6-4.3-2.4 9.8-16.4-18.1 3.2-1.7-9.7 29.1-8.9 11.1-19.9-22.8-.6-22.5 20.5L51 114l12-13.8-19.1.1.1-5 19.3.3-12.4-13.7 7.8-6.4 21.9 20.6 23-.2-11.2-19.7-28.6-9.6.8-9.8 19.2 4.3-10.5-16.7 5.6-3.2L88 58.8l5.9-18.7 9 4.2-6.3 29.5 11.2 19.7 11.9-19.7-6.6-29.4 9.3-3.4 5.4 17.7 9.6-16.7 4.5 2.3-9.8 16.4 18.1-3.3 1.5 9.7-28.8 8.9-11.3 20 23 .5 22.3-20.4 7.6 6.3-12 13.9 19.1-.1-.3 5.1-19.2-.1 12.5 13.7-7.7 6.3-22-20.8-23 .3 11.2 19.7 28.6 9.6-1 9.7-19-4.2 10.3 16.6-5.6 3.2-8.9-17.4-6.2 18.6-8.7-4.1 6.3-29.5-11.2-19.7-12 19.6 6.6 29.5-9.5 3.5-5.3-17.8z"/></svg>
