<svg version="1.1"
   xmlns="http://www.w3.org/2000/svg" xmlns:xlink="http://www.w3.org/1999/xlink"
   x="0px" y="0px" viewBox="0 0 500 543.6" style="enable-background:new 0 0 500 543.6;"
   xml:space="preserve">
<defs>
</defs>
<g>
  <path class="st0" d="M490.8,423.5c-7.9-3.7-17.3-0.2-21,7.7l-18.1,39.1c-9.2,19.8-23.8,33.1-42.5,38.7c-19,5.7-41.1,3.1-63.9-7.5
    l-50.5-23.4l25.6-51.3l48.3,22.4c2.2,1,4.4,1.5,6.6,1.5c6,0,11.7-3.4,14.4-9.2c3.7-7.9,0.2-17.3-7.7-21L350.8,406
    c5.5-4.1,10.6-9.2,14.4-15.5c6.9-11.3,8.5-24.6,4.8-38.3c-10.3-37.2-17.3-61.7-21.4-75.7c-7.9-27.2-35.1-55.6-85.5-46.1
    c-13.8,2.6-31.1,6.1-45.9,9.2l27.7-56.6c0-0.1,0.1-0.1,0.1-0.2l113.7,52.7c2.2,1,4.4,1.5,6.6,1.5c6,0,11.7-3.4,14.4-9.2
    c3.7-7.9,0.2-17.3-7.7-21l-114-52.8c-17.4-8-32.9-2.4-41.4,15.1l-42,85.7c-2.7,5.4-2,11.9,1.7,16.7c3.7,4.8,9.9,7,15.8,5.7
    c0.5-0.1,47.2-10.1,76.8-15.7c36.2-6.8,46.5,14.4,49.2,23.9c4.1,13.9,11,38.3,21.3,75.3c1.9,7,0.2,11-1.2,13.4
    c-3.1,5.1-9.1,9-15,11.8L296.6,301c-3.1-10-13.6-16-23.9-13.7c-0.1,0-0.3,0.1-0.4,0.1c-0.3,0.1-26.3,6.8-61.7,15
    c-3.6,0.8-7.1,1.7-10.5,2.5c-28.4,6.8-44.1,10.5-65.1,0.8c-9.1-4.2-15.9-11.7-19.2-21.2c-4.4-12.5-2.7-27.3,5-42.9L178,126.1
    c7.3-14.8,25.3-21.2,40.2-14.1c0.2,0.1,0.4,0.1,0.5,0.2c8,3.8,16.5,5.7,25.3,5.7c22.5,0,42.7-12.5,52.7-32.5
    c14.6-29.1,2.8-64.6-26.2-79.2C262.2,2.1,253.3,0,244,0c-22.5,0-42.7,12.5-52.7,32.5c-7.1,14.1-8.2,30.1-3.3,45
    c0.3,0.8,0.6,1.5,0.9,2.3c-16.6,4.6-31.2,15.8-39.3,32.3L92.4,227.5c-9,18.2-12.3,36.9-9.8,54l-25.2-11.7c-7.9-3.7-17.3-0.2-21,7.7
    c-3.7,7.9-0.2,17.3,7.7,21l62,28.8l-25.6,51.3l-58-26.9c-7.9-3.7-17.3-0.2-21,7.7c-3.7,7.9-0.2,17.3,7.7,21L332,530.2
    c19.1,8.9,38.3,13.4,56.5,13.4c10.2,0,20.2-1.4,29.7-4.2c27.6-8.2,49.1-27.5,62.2-55.7l18.1-39.1
    C502.2,436.6,498.8,427.2,490.8,423.5z M219.6,46.7c4.7-9.3,14.1-15.1,24.5-15.1c4.3,0,8.4,1,12.2,2.9
    c13.5,6.8,18.9,23.2,12.2,36.7c-4.7,9.3-14,15.1-24.5,15.1c-4.3,0-8.4-1-12.2-2.9c-6.5-3.3-11.4-8.9-13.7-15.8
    C215.7,60.6,216.3,53.2,219.6,46.7z M207.5,335.7c3.3-0.8,6.7-1.6,10.3-2.4c22.3-5.2,40.9-9.8,51.9-12.5l17.5,55.8L202,337
    C203.8,336.5,205.6,336.1,207.5,335.7z M134.8,340.6l156.9,72.8l-25.6,51.3L109.2,392L134.8,340.6z"/>
</g>
</svg>
