<svg version="1.1" id="Calque_1" xmlns="http://www.w3.org/2000/svg" xmlns:xlink="http://www.w3.org/1999/xlink" x="0px" y="0px"
	 viewBox="0 0 500 500" style="enable-background:new 0 0 500 500;" xml:space="preserve">
<g>
	<path class="st0" d="M330,315.9c-4.5,4.5-4.5,11.8,0,16.2c2.2,2.2,5.2,3.4,8.1,3.4c2.9,0,5.9-1.1,8.1-3.4
		c92.2-92.2,95.2-239.3,6.7-327.8c-4.5-4.5-11.8-4.5-16.2,0c-4.5,4.5-4.5,11.8,0,16.2C416.3,100.2,413.3,232.6,330,315.9z"/>
	<path class="st0" d="M94.1,179.8h95c6.3,0,11.5-5.1,11.5-11.5c0-6.3-5.1-11.5-11.5-11.5h-95c-6.3,0-11.5,5.1-11.5,11.5
		C82.6,174.7,87.7,179.8,94.1,179.8z"/>
	<path class="st0" d="M198.7,143.7c23.8,0,43.1-19.3,43.1-43.1c0-23.8-19.3-43.1-43.1-43.1c-23.8,0-43.1,19.3-43.1,43.1
		C155.6,124.4,174.9,143.7,198.7,143.7z M198.7,80.5c10.9,0,20.1,9.2,20.1,20.1c0,10.9-9.2,20.1-20.1,20.1
		c-11.3,0-20.1-8.8-20.1-20.1C178.6,89.7,187.8,80.5,198.7,80.5z"/>
	<path class="st0" d="M239.5,280.8c-0.3-1.1-0.8-2-1.3-2.9l0.2-98.1h141c6.3,0,11.5-5.1,11.5-11.5c0-6.3-5.1-11.5-11.5-11.5H226.9
		c-6.3,0-11.5,5.1-11.5,11.5l-0.3,116.1l-55.7,185.5c-1.1,2.7-4,7.7-10,5.5c-2.7-1-4.4-2.3-5.1-3.8c-1-2.5-0.1-6.3,0.5-7.7
		c0.3-0.5,0.5-1.1,0.6-1.7L194.6,287c0.3-1,0.4-2,0.4-3.1v-64.5c0-6.3-5.1-11.5-11.5-11.5c-6.3,0-11.5,5.1-11.5,11.5v62.9
		l-48.4,172.9c-1.4,3.5-4.9,14.2-0.5,24.9c2.2,5.3,7.1,12.5,18.3,16.6c4,1.5,7.7,2.2,11.2,2.2c14.7,0,24.7-11.6,28.4-21.2
		c0.1-0.3,0.2-0.5,0.3-0.8l27.1-90.3l22,89.8c0.1,0.5,0.3,0.9,0.4,1.4c3.7,9.6,13.8,21.2,28.4,21.2c3.5,0,7.2-0.7,11.2-2.1
		c11.2-4.2,16.1-11.4,18.3-16.6c4.4-10.8,0.9-21.5-0.5-24.9L239.5,280.8z M267.6,471.5c-0.6,1.5-2.3,2.8-5.1,3.9
		c-5.3,2-8.3-1.7-9.9-5.3l-31-126.2c0-0.2-0.1-0.3-0.2-0.4l6.1-20.2l38.9,138.9c0.2,0.6,0.4,1.2,0.6,1.7
		C267.3,464.4,268.7,468.7,267.6,471.5z"/>
</g>
</svg>
