<svg version="1.1" id="Calque_1" xmlns="http://www.w3.org/2000/svg" xmlns:xlink="http://www.w3.org/1999/xlink" x="0px" y="0px"
	 viewBox="0 0 500 415" style="enable-background:new 0 0 500 415;" xml:space="preserve">
<g>
	<g>
		<path class="st0" d="M218.2,227.1c0,0,4.1-8.7,11.9-10.1c7.7-1.4,15,6.6,15,6.6s-4.9,6.4-12.8,7.2
			C224.4,231.6,218.2,227.1,218.2,227.1z"/>
		<path class="st0" d="M272.9,146.7c0,0,21.2,18.7,23,51.8l-20.3-4.1L272.9,146.7z"/>
		<path class="st0" d="M253.6,159.2l-9.5,10.8c0,0-9.7-19.6-13.9-25.8C237.3,146.7,249.5,153.6,253.6,159.2z"/>
		<path class="st0" d="M166.2,407.6c-12.4-3.6-30.3-10.1-47.9-21.5c-31.4-20.3-56.3-25.5-77.9-21.4c0,0,43.9-76,118.4-36.8
			c10.1,5.3,20.5,13.1,29,18.6c15.5,10.1,28.8,19.4,48.9,20.6c19.4,1.1,31.5-15.6,30.1-27.8c-0.7-6.3-4.7-13.3-11.1-16.3
			c-7.2-3.3-15.3-0.7-18.8,5.1c-3.9,6.4-2,15.2,3.6,19c5.2,3.5,11.3,1.3,13.7-2.9c0.3-0.5,0.1-1.7-0.6-2.1c-0.4-0.2-1.3-0.7-2.6,0.4
			c-3.7,3.2-8.8,3.1-11.1-4c-1.5-4.6,0.4-9.6,5.9-11.5c5.8-2.1,11.1,2.1,13.2,5.1c5.7,8.4,1.8,16.9-3,22.3c-8,9-21.5,9-31.5,5.9
			c-9-2.8-20-7.6-28-13.7c10.2-4.2,19.6-10.1,26.7-19.7c8.2-11,13.9-31.8,12.1-45.4c20.6,1.3,53.3,20.4,61.6,25.2
			c-14.2-14.9-33.9-30.3-49.3-34.3c-5.5-1.4-10.4-1.5-12.9-0.6c-9.5,3.5-28,9.2-47.1,9.2c-13.7,0-26.2,0-30.4-2.6
			c-4.2-2.6-16.1-12.5-17.8-16.1c-1.7-3.6,0.1-5.3,0.1-5.3s57.3-24.3,61.6-43.1c6.1-26.9,24.9-30.8,24.9-30.8l2.1-42.3
			c15.6,3.6,29.2,16,29.2,16l14.6-17.1c25.2,18.4,31.4,55.9,31.4,55.9c7.4,9.2,13.1,18.2,17.4,26.7c19.9-22.4,35.8-47.6,46.7-66.8
			l-60.1-94.4l-18.1,21.1L236,0L131.1,159.1c8,24.1,22.4,49.8,22.4,49.8l-9.1-1.4c-14.9-22.3-41.3-76.3-45.4-86.6
			c0,0-26,61.5-67.9,108.4h30.6c0,0-13.3,27.9-45.6,52.8H49c0,0-13.2,28.5-48.8,53.5h14.5L0,358C26.5,371,84.4,395.4,166.2,407.6z"
			/>
		<path class="st0" d="M470.1,335.7H500c-35.6-25-48.8-53.5-48.8-53.5h32.9c-32.3-24.8-45.6-52.8-45.6-52.8h30.6
			c-42-46.9-67.9-108.4-67.9-108.4s-25.4,60.1-66.5,106.8h-11.3c3.6,7.9,6.1,15.4,7.9,22.1c7.9-9.5,12.5-17.2,14.3-20.4h18.3
			c0,0-13.3,27.9-45.6,52.8h32.9c0,0-13.2,28.5-48.8,53.5h29.9c0,0-13.3,30-48.3,58.2h17.5c-5.1,4-10.6,7.7-16,10.9
			c-6.6,3.9-13.3,7.3-19.7,10.1c0.2,0,0.3,0,0.5,0c63.7,0,154.8-10.3,219.6-54.5C474.8,346.1,470.1,335.7,470.1,335.7z"/>
	</g>
</g>
</svg>
