<?xml version="1.0" encoding="UTF-8"?>
<svg viewBox="0 0 35 50" version="1.1" xmlns="http://www.w3.org/2000/svg" xmlns:xlink="http://www.w3.org/1999/xlink">
    <!-- Generator: Sketch 53.2 (72643) - https://sketchapp.com -->
    <title>Baby bottle heater</title>
    <desc>Created with Sketch.</desc>
    <g id="Icons---Kids" stroke="none" stroke-width="1" fill="none" fill-rule="evenodd">
        <g id="Icons/Kids_icons_board" transform="translate(-147.000000, -109.000000)" fill="#005589" fill-rule="nonzero">
            <g id="Icons" transform="translate(16.000000, 104.000000)">
                <g id="Assets/Icons/Equipments/Baby/Baby-bottle-heater" transform="translate(118.000000, 0.000000)">
                    <path d="M36.5206449,16 L38.25,16 C38.6642136,16 39,16.3357864 39,16.75 C39,17.1642136 38.6642136,17.5 38.25,17.5 L37.1036751,17.5 L38.2202548,22.8849973 C38.5262502,24.3607395 38.7929955,25.8435758 39.0203299,27.3319364 C40.7753202,27.4871959 43.0964616,28.0322843 46,28.9642624 L46,23.75 C46,23.3357864 46.3357864,23 46.75,23 C47.1642136,23 47.5,23.3357864 47.5,23.75 L47.5,53.5 C47.5,54.3284271 46.8284271,55 46,55 L14,55 L14,54.9146471 C13.4174038,54.7087289 13,54.1531094 13,53.5 L13,23.75 C13,23.3357864 13.3357864,23 13.75,23 C14.1642136,23 14.5,23.3357864 14.5,23.75 L14.5,29.1472501 C16.9670067,29.9306448 18.9856068,30.4154864 20.5452239,30.6040025 C20.8381286,28.0233269 21.2487072,25.4556837 21.7761336,22.9091361 L22.8964429,17.5 L21.75,17.5 C21.3357864,17.5 21,17.1642136 21,16.75 C21,16.3357864 21.3357864,16 21.75,16 L23.5632696,16 C23.7767128,14.1939465 24.5311841,12.7827319 25.8415865,11.7935685 C27.1889831,10.77648 27.8572058,9.41582731 27.8572149,7.66291695 C27.8483999,6.09241226 28.5501355,5.11147616 29.9198068,5.00892329 L29.9198068,5 C29.9610651,5 30.0017823,5.00072792 30.0419572,5.00217706 C30.0821322,5.00072792 30.1228493,5 30.1641076,5 L30.1641076,5.00892329 C31.5337789,5.11147616 32.2355145,6.09241226 32.2266996,7.66291695 C32.2267086,9.41582731 32.8949313,10.77648 34.2423279,11.7935685 C35.5527303,12.7827319 36.3072017,14.1939465 36.5206449,16 Z M33.9167359,16 C33.9707994,14.3294225 33.7861352,13.6472732 32.6347433,12.7781398 C30.9328439,11.4934531 30.2829006,9.76050703 30.0419572,8.46741062 C29.8010139,9.76050703 29.1510705,11.4934531 27.4491711,12.7781398 C26.2977792,13.6472732 26.113115,14.3294225 26.1671786,16 L33.9167359,16 Z M14.5,53.5 L46,53.5 L46,30.5413121 C43.1716118,29.6133591 40.9129718,29.054444 39.2398529,28.8617133 C39.7457532,32.6291497 40,36.4283854 40,40.2341413 L40,46 C40,47.6568542 38.6568542,49 37,49 L23,49 C21.3431458,49 20,47.6568542 20,46 L20,40.2423787 C20,37.5204547 20.1300319,34.8018618 20.3891484,32.0958452 C18.8124201,31.9074319 16.85227,31.4479841 14.5,30.7193339 L14.5,53.5 Z M22.0447632,30.693255 C23.8041258,30.6704723 26.3945347,30.2009261 29.7342052,29.2986776 C32.9601592,28.0760703 35.5406758,27.407796 37.4977769,27.3008563 C37.2832695,25.9251015 37.0344653,24.5542355 36.7514965,23.1895445 L35.779119,18.5 L24.221163,18.5 L23.2449607,23.2133511 C22.7322354,25.6889185 22.3319074,28.184778 22.0447632,30.693255 Z M37.7165991,28.7921086 C35.937659,28.8621914 33.4421789,29.4972792 30.19631,30.7238525 C26.5739366,31.7062461 23.8125524,32.1980729 21.8866148,32.1940828 C21.6291871,34.8673809 21.5,37.5532251 21.5,40.2423787 L21.5,46 C21.5,46.8284271 22.1715729,47.5 23,47.5 L37,47.5 C37.8284271,47.5 38.5,46.8284271 38.5,46 L38.5,40.2341413 C38.5,36.4045147 38.2379538,32.5816084 37.7165991,28.7921086 Z" id="Baby-bottle-heater"></path>
                </g>
            </g>
        </g>
    </g>
</svg>
