<?xml version="1.0" encoding="UTF-8"?>
<svg viewBox="0 0 179 186" version="1.1" xmlns="http://www.w3.org/2000/svg" xmlns:xlink="http://www.w3.org/1999/xlink">
    <!-- Generator: Sketch 53.2 (72643) - https://sketchapp.com -->
    <title>Combined Shape</title>
    <desc>Created with Sketch.</desc>
    <g id="Page-1" stroke="none" stroke-width="1" fill="none" fill-rule="evenodd">
        <path d="M49.4810931,80.9999943 C32.6522988,80.9689825 19.0203216,67.105139 19,50.0004484 C19.0000023,37.4605953 26.4329795,26.1558507 37.832149,21.3588116 C49.2313184,16.5617724 62.3511683,19.2174031 71.072526,28.0871024 C79.7938837,36.9568016 82.3987371,50.2933356 77.6721678,61.8764691 C72.9455985,73.4596027 61.818689,81.007585 49.4810931,80.9999943 Z M49.4808755,25.0554111 L49.4808755,25 C35.4168525,25.0203442 24.0208864,36.1804827 24.0001124,49.9534655 C23.9695761,60.0620208 30.1650039,69.1915167 39.6934215,73.0789066 C49.221839,76.9662965 60.2035178,74.8446914 67.5105285,67.7047816 C74.8175392,60.5648718 77.0083837,49.8151903 73.0600404,40.4753346 C69.1116971,31.1354788 59.8030793,25.0479786 49.4808755,25.0554111 Z M49.5287958,86 C76.8247115,86.0628144 98.9366682,107.994115 99,135.067022 L99,183.143945 C99,184.721301 97.7107676,186 96.1204188,186 C94.5300701,186 93.2408377,184.721301 93.2408377,183.143945 L93.2408377,135.067022 C93.8217098,119.192151 85.614127,105.270273 71.8415578,97.1618471 C58.0689887,89.0534211 40.9310113,89.0534211 27.1584422,97.1618471 C13.385873,105.270273 5.17829015,119.192151 5.7591623,135.067022 L5.7591623,183.143945 C5.7591623,184.721301 4.46992991,186 2.87958115,186 C1.2892324,186 8.52527279e-16,184.721301 0,183.143945 L0,135.067022 C0.0634390867,107.971866 22.2103919,86.0313964 49.5287958,86 Z M154,19 C154,29.4934102 145.717268,38 135.5,38 C125.291011,37.9795016 117.019959,29.4849078 117,19 C117,8.50658975 125.282732,-6.20418749e-16 135.5,0 C145.717268,6.20418749e-16 154,8.50658975 154,19 Z M135.5,6 C128.048438,6.00994538 122.010328,11.8244218 122,19 C122,26.1797017 128.044156,32 135.5,32 C142.955844,32 149,26.1797017 149,19 C149,11.8202983 142.955844,6 135.5,6 Z M176.629383,69.8676671 C173.478865,73.2939404 168.273597,73.5448236 164.82795,70.4364716 L156.091586,64.9190674 L157.357992,77.8119707 L171.178332,98.573337 C171.756648,99.436977 171.827211,100.559551 171.361869,101.4932 L162.552091,119.201982 C161.418382,121.270518 159.537551,122.790813 157.321285,123.430096 C156.589252,123.622937 155.837545,123.724779 155.082132,123.733459 C152.02767,123.724996 149.210466,122.030868 147.695023,119.291214 C146.17958,116.55156 146.196981,113.184137 147.74065,110.461352 L152.696151,102.327447 L149.355776,97.6632498 C145.044562,99.7713094 140.399649,101.056019 135.645558,101.45528 C130.848867,101.064786 126.160298,99.7800411 121.806864,97.6632498 L118.46649,102.327447 L123.366929,110.385512 C125.088594,113.1036 125.220329,116.580557 123.709583,119.429342 C122.198837,122.278128 119.291462,124.035141 116.147279,123.999467 C113.003097,123.963793 110.133779,122.141238 108.683965,119.258863 L99.8191251,101.43632 C99.3421229,100.498637 99.4129784,99.3640875 100.002662,98.4974964 C104.976516,91.1788778 112.281291,80.466392 113.988186,77.9067715 L115.126115,64.9001073 L106.297983,70.4364716 C102.821173,73.7244921 97.4224507,73.4783184 94.2395986,69.8866272 C91.0567465,66.2949361 91.2950462,60.7178279 94.771856,57.4298074 L115.658373,38.7161375 C116.808863,37.6689973 118.563242,37.7835955 119.576889,38.9720997 C120.590536,40.1606038 120.479603,41.9729517 119.329114,43.020092 L98.5527194,61.6010408 C97.7364912,62.497007 97.5044115,63.8040139 97.9596713,64.9409193 C98.4149311,66.0778247 99.4729895,66.8335072 100.663396,66.8719631 C101.471829,66.9082783 102.257789,66.5917635 102.829133,65.9997961 C102.971797,65.8527758 103.132179,65.7253286 103.306329,65.620593 L116.97984,57.0506044 C117.840917,56.5278428 118.908526,56.5278428 119.769603,57.0506044 C120.634664,57.5481883 121.169123,58.492601 121.164485,59.5154241 L121.164485,60.0083881 C121.173594,60.0966186 121.173594,60.1855997 121.164485,60.2738302 L119.531005,78.9875001 C119.494297,79.8596671 118.778503,80.9403958 105.582189,100.317671 L113.639465,116.47172 C114.618596,117.505745 116.158636,117.705729 117.355035,116.954211 C118.551435,116.202692 119.088186,114.698171 118.650027,113.324335 L112.813549,103.730498 C112.213568,102.739349 112.25716,101.470932 112.923671,100.526233 L118.723442,92.449208 C119.51085,91.3477474 120.949515,90.9881825 122.137231,91.5960011 C124.394737,92.7336103 131.277376,95.691394 135.645558,95.691394 C140.01374,95.691394 146.786258,92.7336103 149.02541,91.5960011 C150.218651,90.9855614 151.663774,91.3448091 152.457553,92.449208 L158.23897,100.526233 C158.921373,101.463269 158.972499,102.738374 158.367446,103.730498 L152.457553,113.419136 C152.091621,114.115663 152.005905,114.933031 152.218954,115.694354 C152.426337,116.495806 152.935138,117.178421 153.63219,117.590369 C154.325658,118.001018 155.148761,118.109861 155.919997,117.892897 C156.691233,117.675933 157.34726,117.150982 157.74342,116.4338 L165.745635,100.374551 C153.411945,82.0590447 152.053771,80.0492686 151.906941,79.1960618 L150.071571,59.8946272 C149.961536,58.8196014 150.450988,57.7730775 151.334631,57.1940067 C152.218274,56.6149359 153.343312,56.6034495 154.237862,57.1643653 L167.911373,65.5637126 C168.082306,65.6733213 168.242171,65.8003576 168.388569,65.9429156 C168.950682,66.531148 169.717469,66.8622553 170.517599,66.8622553 C171.317729,66.8622553 172.084515,66.531148 172.646629,65.9429156 C173.207438,65.3522227 173.51212,64.5516642 173.490899,63.7245779 C173.472683,62.8924314 173.13612,62.1016219 172.55486,61.5252002 L151.815173,43.0580123 C150.664683,42.010872 150.553751,40.1985241 151.567398,39.0100199 C152.581045,37.8215156 154.335424,37.7069175 155.485914,38.7540578 L176.262309,57.3350067 C177.958233,58.9506799 178.945383,61.2092273 178.997011,63.5918568 C179.057289,65.9276614 178.203794,68.1899975 176.629383,69.8676671 Z" id="Combined-Shape" fill="#005589" fill-rule="nonzero"></path>
    </g>
</svg>
