<svg version="1.1" id="Calque_1" xmlns="http://www.w3.org/2000/svg" xmlns:xlink="http://www.w3.org/1999/xlink" x="0px" y="0px"
	 viewBox="0 0 500 500" style="enable-background:new 0 0 500 500;" xml:space="preserve">
<g id="Activité">
	<g id="Reco-Visuel" transform="translate(-266.000000, -401.000000)">
		<g id="_x30_1-Golf" transform="translate(127.000000, 119.000000)">
			<g id="bloc" transform="translate(0.000000, 268.000000)">
				<g id="bloc-bleu" transform="translate(115.000000, 0.000000)">
					<path id="Fill-1" d="M422,244.6c0-4.2-3.5-3.7-5.4-3.6c-3.7,0.2-18.5,3.6-18.5,3.6s3.6-2.6,12.9-5.9c9.4-3.3,1.9-8.8-2.2-7.5
						c-4.9,1.5-20,4.7-20.8,4.7c-4.7,0.2,0.2-3.7,0.8-10.9c0.6-7.1-4.1-9.3-6.4-6c-2.7,3.8-4.8,7.7-9.2,10.7
						c-4.6,3.2-5.8,5.3-7.1,9.8c-0.3,0.8-0.7,1.6-1.1,2.2c-7.5,1.7-15.6,2.6-24.3,1.4c-3.1-0.4-11.5-2.8-11.5-2.8
						c-2.6-1.1-5.9-6.2-9.1-12.4c7.4-6.8,20.7-13.6,20.7-13.6s11-0.1,17.4-0.3c8-0.2,8.4-6.5,8.4-6.5c1.3-0.1,4.1-2.3,5-4.6
						c0.9-2.2-0.7-6.1-0.7-6.1c1.1-0.1,4.9-2.9,5.1-6c0.3-3.1-1-5-1-5s3.3-0.3,6.1-0.8c2.8-0.5,2.9-3.2,2.9-3.2c0.5-8.1-35-2-35-2
						c0.4-1,2.6-7.6,2.6-10.5c0-2.9-3.2-5.1-5.1-3c-2,2-7.5,10.5-9,11.9c-8.4,8.5-19.9,16.7-29,22.8l-9.2-27.5c0,0,5.7-2.6,13.9-8.1
						c8.2-5.6,20.4-10,25.5-29.2c5.1-19.2-7.7-36.8-7.7-36.8s8-13.3,7.4-21.1c0,0-0.9-35.2-35.3-57.2c-14.9-9.5-57.4-9.2-77.7-1.1
						c-9.2,3.7-30.9,18-36.5,23.4c-21,20.4-18.1,40.2-12.7,65.1c5.3,24.5,26.2,41.1,42,46.5h0.2l0.4,0.1l0.3,0.1
						c4.8,1.9,38.1,15,40.2,17.4c-5.4-1.5-31.1-11.4-42.9-14.5c-38,43.6-59.6,134.4-59.8,134.7l55.6,3h-44.8
						c-5.1,16.2-17.7,39.2-18.7,53.9c-2,28.9,13.7,40,29.8,49.6c-30.4,8.9-52.3,36.2-52.3,36.2l10.1,14.9l52.8,0.5
						c0,0-5.8,17.8-7.6,27.1c-1.9,9.3,0,20.5,0,20.5l83.7,15.5l6.1-11.9L238,447.6c0,0,15.6-20.8,29.6-39.7
						c7.7-10.5,11.2-18.2,11.2-18.2l7.7-2c-1.9,11.6-40.4,58.8-40.4,58.8l62.1,4.4c0,0,40.6,4.3,49.7-34.2l13.3,3.1
						c8.2-52.1-28.5-72-48.8-79.6l-2-53.5c0,0,23.1-11.4,37.4-15.6c12.6-4.1,19.8-2.1,19.8-2.1s6.9,0.8,13.2,0.2
						c1.3-0.1,4.3-0.7,5.8-0.9c8.4-1.1,14.4-1.1,14.6-4.9c0.2-2.3-9.2-2.4-9.2-2.4c1.1-0.3,7.4-1.4,12.6-2.5
						c2.4-0.5,4.5-1.4,4.5-2.9c0-1-0.6-2-2.6-2.3c-5.4-0.9-15-0.1-15-0.1C404.3,252.4,422,247.5,422,244.6"/>
				</g>
			</g>
		</g>
	</g>
</g>
</svg>
