<?xml version="1.0" encoding="UTF-8"?>
<svg viewBox="0 0 74 108" version="1.1" xmlns="http://www.w3.org/2000/svg" xmlns:xlink="http://www.w3.org/1999/xlink">
    <!-- Generator: Sketch 53.2 (72643) - https://sketchapp.com -->
    <title>Combined Shape</title>
    <desc>Created with Sketch.</desc>
    <g id="Symbols" stroke="none" stroke-width="1" fill="none" fill-rule="evenodd">
        <g id="WIP/Icons/Equipments/Baby/Baby-powder" transform="translate(-27.000000, -10.000000)" fill="#005589" fill-rule="nonzero">
            <path d="M32,24 L96,24 C98.7614237,24 101,26.2385763 101,29 L101,113 C101,115.761424 98.7614237,118 96,118 L32,118 C29.2385763,118 27,115.761424 27,113 L27,29 C27,26.2385763 29.2385763,24 32,24 Z M32,29 L32,113 L96,113 L96,29 L32,29 Z M35.5,10 L92.5,10 C93.8807119,10 95,11.1192881 95,12.5 L95,17.5 C95,18.8807119 93.8807119,20 92.5,20 L35.5,20 C34.1192881,20 33,18.8807119 33,17.5 L33,12.5 C33,11.1192881 34.1192881,10 35.5,10 Z M54,57 C53.4477153,57 53,56.5522847 53,56 C53,55.4477153 53.4477153,55 54,55 C54.5522847,55 55,55.4477153 55,56 C55,56.5522847 54.5522847,57 54,57 Z M64,57 C63.4477153,57 63,56.5522847 63,56 C63,55.4477153 63.4477153,55 64,55 C64.5522847,55 65,55.4477153 65,56 C65,56.5522847 64.5522847,57 64,57 Z M74,57 C73.4477153,57 73,56.5522847 73,56 C73,55.4477153 73.4477153,55 74,55 C74.5522847,55 75,55.4477153 75,56 C75,56.5522847 74.5522847,57 74,57 Z M49,62 C48.4477153,62 48,61.5522847 48,61 C48,60.4477153 48.4477153,60 49,60 C49.5522847,60 50,60.4477153 50,61 C50,61.5522847 49.5522847,62 49,62 Z M59,62 C58.4477153,62 58,61.5522847 58,61 C58,60.4477153 58.4477153,60 59,60 C59.5522847,60 60,60.4477153 60,61 C60,61.5522847 59.5522847,62 59,62 Z M69,62 C68.4477153,62 68,61.5522847 68,61 C68,60.4477153 68.4477153,60 69,60 C69.5522847,60 70,60.4477153 70,61 C70,61.5522847 69.5522847,62 69,62 Z M79,62 C78.4477153,62 78,61.5522847 78,61 C78,60.4477153 78.4477153,60 79,60 C79.5522847,60 80,60.4477153 80,61 C80,61.5522847 79.5522847,62 79,62 Z M54,67 C53.4477153,67 53,66.5522847 53,66 C53,65.4477153 53.4477153,65 54,65 C54.5522847,65 55,65.4477153 55,66 C55,66.5522847 54.5522847,67 54,67 Z M64,67 C63.4477153,67 63,66.5522847 63,66 C63,65.4477153 63.4477153,65 64,65 C64.5522847,65 65,65.4477153 65,66 C65,66.5522847 64.5522847,67 64,67 Z M74,67 C73.4477153,67 73,66.5522847 73,66 C73,65.4477153 73.4477153,65 74,65 C74.5522847,65 75,65.4477153 75,66 C75,66.5522847 74.5522847,67 74,67 Z M49,72 C48.4477153,72 48,71.5522847 48,71 C48,70.4477153 48.4477153,70 49,70 C49.5522847,70 50,70.4477153 50,71 C50,71.5522847 49.5522847,72 49,72 Z M59,72 C58.4477153,72 58,71.5522847 58,71 C58,70.4477153 58.4477153,70 59,70 C59.5522847,70 60,70.4477153 60,71 C60,71.5522847 59.5522847,72 59,72 Z M69,72 C68.4477153,72 68,71.5522847 68,71 C68,70.4477153 68.4477153,70 69,70 C69.5522847,70 70,70.4477153 70,71 C70,71.5522847 69.5522847,72 69,72 Z M79,72 C78.4477153,72 78,71.5522847 78,71 C78,70.4477153 78.4477153,70 79,70 C79.5522847,70 80,70.4477153 80,71 C80,71.5522847 79.5522847,72 79,72 Z M54,77 C53.4477153,77 53,76.5522847 53,76 C53,75.4477153 53.4477153,75 54,75 C54.5522847,75 55,75.4477153 55,76 C55,76.5522847 54.5522847,77 54,77 Z M64,77 C63.4477153,77 63,76.5522847 63,76 C63,75.4477153 63.4477153,75 64,75 C64.5522847,75 65,75.4477153 65,76 C65,76.5522847 64.5522847,77 64,77 Z M74,77 C73.4477153,77 73,76.5522847 73,76 C73,75.4477153 73.4477153,75 74,75 C74.5522847,75 75,75.4477153 75,76 C75,76.5522847 74.5522847,77 74,77 Z M49,82 C48.4477153,82 48,81.5522847 48,81 C48,80.4477153 48.4477153,80 49,80 C49.5522847,80 50,80.4477153 50,81 C50,81.5522847 49.5522847,82 49,82 Z M59,82 C58.4477153,82 58,81.5522847 58,81 C58,80.4477153 58.4477153,80 59,80 C59.5522847,80 60,80.4477153 60,81 C60,81.5522847 59.5522847,82 59,82 Z M69,82 C68.4477153,82 68,81.5522847 68,81 C68,80.4477153 68.4477153,80 69,80 C69.5522847,80 70,80.4477153 70,81 C70,81.5522847 69.5522847,82 69,82 Z M79,82 C78.4477153,82 78,81.5522847 78,81 C78,80.4477153 78.4477153,80 79,80 C79.5522847,80 80,80.4477153 80,81 C80,81.5522847 79.5522847,82 79,82 Z M54,87 C53.4477153,87 53,86.5522847 53,86 C53,85.4477153 53.4477153,85 54,85 C54.5522847,85 55,85.4477153 55,86 C55,86.5522847 54.5522847,87 54,87 Z M64,87 C63.4477153,87 63,86.5522847 63,86 C63,85.4477153 63.4477153,85 64,85 C64.5522847,85 65,85.4477153 65,86 C65,86.5522847 64.5522847,87 64,87 Z M74,87 C73.4477153,87 73,86.5522847 73,86 C73,85.4477153 73.4477153,85 74,85 C74.5522847,85 75,85.4477153 75,86 C75,86.5522847 74.5522847,87 74,87 Z" id="Combined-Shape"></path>
        </g>
    </g>
</svg>
