<svg id="Calque_1" data-name="Calque 1" xmlns="http://www.w3.org/2000/svg" viewBox="0 0 24 24"><defs></defs><title>baby-welcome</title><path class="cls-1" d="M23.49.91a.37.37,0,0,0-.53,0L17.2,6.54,15.13,4.22a.38.38,0,1,0-.56.5L16.9,7.33a.36.36,0,0,0,.26.13h0a.38.38,0,0,0,.26-.11l6-5.91A.38.38,0,0,0,23.49.91Z"/><path class="cls-1" d="M8.05,9.09A3.22,3.22,0,1,0,4.84,5.88,3.22,3.22,0,0,0,8.05,9.09Zm0-5.68A2.47,2.47,0,1,1,5.59,5.88,2.48,2.48,0,0,1,8.05,3.41Z"/><path class="cls-1" d="M11.49,8.79a.38.38,0,0,0-.53,0,.37.37,0,0,0,0,.53l3.68,3.19a.65.65,0,0,1-.44,1.12.69.69,0,0,1-.53-.23L11.28,12a.36.36,0,0,0-.4,0,.37.37,0,0,0-.17.35l.34,3.29c0,.12,0,.12,2.48,3.69l-1.46,2.83a.64.64,0,0,1-.89.24.63.63,0,0,1-.24-.87L12,19.82a.4.4,0,0,0,0-.43l-1-1.39a.39.39,0,0,0-.47-.11A7.09,7.09,0,0,1,8,18.61a7.17,7.17,0,0,1-2.45-.72.38.38,0,0,0-.47.11l-1,1.39a.38.38,0,0,0,0,.43l1,1.65a.65.65,0,0,1-.24.89.67.67,0,0,1-.5.07A.66.66,0,0,1,4,22.14L2.53,19.29C5,15.74,5,15.74,5,15.64l.29-3.25a.41.41,0,0,0,0-.11A.4.4,0,0,0,5.14,12a.37.37,0,0,0-.38,0l-2.5,1.52a.65.65,0,0,1-.92,0A.61.61,0,0,1,1.16,13a.63.63,0,0,1,.18-.45L5,9.35a.37.37,0,1,0-.49-.56L.84,12a1.36,1.36,0,0,0-.43,1,1.39,1.39,0,0,0,2.3,1.09L4.52,13,4.3,15.47,1.79,19.05a.37.37,0,0,0,0,.38L3.34,22.5a1.39,1.39,0,0,0,.85.65,1.14,1.14,0,0,0,.37.05A1.31,1.31,0,0,0,5.25,23a1.4,1.4,0,0,0,.51-1.92l-.91-1.46.69-.93a7.32,7.32,0,0,0,2.5.66,7.26,7.26,0,0,0,2.48-.66l.7.93-.93,1.47a1.4,1.4,0,0,0-.13,1.06,1.36,1.36,0,0,0,.65.85,1.39,1.39,0,0,0,1.92-.53l1.57-3.05a.37.37,0,0,0,0-.38S12.15,16,11.79,15.47L11.53,13l1.73,1a1.48,1.48,0,0,0,1,.39A1.4,1.4,0,0,0,15.63,13a1.46,1.46,0,0,0-.44-1Z"/></svg>
