<svg version="1.1" id="Calque_1" xmlns="http://www.w3.org/2000/svg" xmlns:xlink="http://www.w3.org/1999/xlink" x="0px" y="0px"
	 viewBox="0 0 33 33" style="enable-background:new 0 0 33 33;" xml:space="preserve">
<title>Icon Bed</title>
<desc>Created with Sketch.</desc>
<g id="Page-1">
	<g id="Icon-Bed" transform="translate(0.000000, -1.000000)">
		<g id="Group-2">
			<g id="Group-4">
				<rect y="5.5" class="st0" width="3" height="1"/>
				<rect x="2" y="27.5" class="st0" width="1" height="2"/>
				<g id="Line-Copy">
					<g>
						<path class="st0" d="M2.5,28.5C2.2,28.5,2,28.3,2,28v-2c0-0.2,0.1-0.4,0.3-0.5c-0.2,0-0.3-0.2-0.3-0.4V6
							c0-0.3,0.2-0.5,0.5-0.5S3,5.7,3,6v19.1c0,0.2-0.1,0.4-0.3,0.5C2.9,25.6,3,25.8,3,26v2C3,28.3,2.8,28.5,2.5,28.5z"/>
					</g>
					<g>
						<path class="st0" d="M2.5,28.5C2.2,28.5,2,28.3,2,28v-2c0-0.2,0.1-0.4,0.3-0.5c-0.2,0-0.3-0.2-0.3-0.4V6
							c0-0.3,0.2-0.5,0.5-0.5S3,5.7,3,6v19.1c0,0.2-0.1,0.4-0.3,0.5C2.9,25.6,3,25.8,3,26v2C3,28.3,2.8,28.5,2.5,28.5z"/>
					</g>
				</g>
			</g>

				<g id="Group-4-Copy" transform="translate(31.000000, 12.500000) scale(-1, 1) translate(-31.000000, -12.500000) translate(29.000000, 0.000000)">
				<rect y="6.5" class="st0" width="3" height="-1"/>
				<rect x="2" y="29.5" class="st0" width="1" height="-2"/>
				<g id="Line-Copy_1_">
					<g>
						<path class="st0" d="M2.5,28.5C2.8,28.5,3,28.3,3,28v-2c0-0.2-0.1-0.4-0.3-0.5c0.2,0,0.3-0.2,0.3-0.4V6c0-0.3-0.2-0.5-0.5-0.5
							S2,5.7,2,6v19.1c0,0.2,0.1,0.4,0.3,0.5C2.1,25.6,2,25.8,2,26v2C2,28.3,2.2,28.5,2.5,28.5z"/>
					</g>
					<g>
						<path class="st0" d="M2.5,28.5C2.8,28.5,3,28.3,3,28v-2c0-0.2-0.1-0.4-0.3-0.5c0.2,0,0.3-0.2,0.3-0.4V6c0-0.3-0.2-0.5-0.5-0.5
							S2,5.7,2,6v19.1c0,0.2,0.1,0.4,0.3,0.5C2.1,25.6,2,25.8,2,26v2C2,28.3,2.2,28.5,2.5,28.5z"/>
					</g>
				</g>
			</g>
		</g>
		<rect x="5" y="9.5" class="st0" width="1" height="12"/>
		<rect x="8" y="9.5" class="st0" width="1" height="12"/>
		<rect x="11" y="9.5" class="st0" width="1" height="12"/>
		<rect x="14" y="9.5" class="st0" width="1" height="12"/>
		<rect x="17" y="9.5" class="st0" width="1" height="12"/>
		<rect x="20" y="9.5" class="st0" width="1" height="12"/>
		<rect x="23" y="9.5" class="st0" width="1" height="12"/>
		<rect x="26" y="9.5" class="st0" width="1" height="12"/>
		<rect x="3" y="24.5" class="st0" width="28" height="1"/>
		<rect x="3" y="23.5" class="st0" width="28" height="1"/>
		<rect x="3" y="20.5" class="st0" width="28" height="1"/>
		<rect x="3" y="8.5" class="st0" width="28" height="1"/>
	</g>
</g>
</svg>
