<svg xmlns="http://www.w3.org/2000/svg" viewBox="0 0 16 16">
  <path fill-rule="evenodd" d="M7.88200604,4.07787609 C8.23975086,5.2410165 8.70338548,6.74657096 8.86882448,7.27736265 C8.91550925,7.33915947 8.93916552,7.41452707 8.93579688,7.49054773 C8.97725148,7.64710032 8.8969354,7.80970977 8.74684796,7.87915165 C8.1708226,8.78421955 7.53323109,9.24243951 6.84817241,9.24243951 C6.84175862,9.24243951 6.83544828,9.24243951 6.82882759,9.24234074 C5.65572414,9.22772346 4.89351724,7.84441481 4.86165517,7.78555062 C4.77175862,7.61922963 4.83982759,7.41488395 5.01403448,7.32895802 C5.18834483,7.24313086 5.40227586,7.30821728 5.49227586,7.47443951 C5.65634483,7.77508148 6.2187931,8.55799506 6.83948276,8.56480988 C7.37708013,8.56933919 7.8534998,7.99551785 8.18421559,7.45701546 C7.98435057,6.81542043 7.42427477,4.99507043 7.20240886,4.27363039 C6.53363124,4.2667306 5.90595561,3.73841703 5.67244138,2.98401975 C5.54271724,2.56495802 5.55182069,2.13009383 5.69830345,1.75952593 C5.85513103,1.3618963 6.1629931,1.07221728 6.54306207,0.965155556 C6.6524069,0.934241975 6.76578621,0.918637037 6.88009655,0.918637037 C7.55375172,0.918637037 8.18830345,1.44900741 8.42333793,2.20821728 C8.65797887,2.96618682 8.41754908,3.72878744 7.88200604,4.07787609 Z M4.28157663,6.2710706 C4.19643065,6.22555915 4.11842648,6.17207854 4.04810808,6.11209111 C4.04352833,6.10971596 4.03890724,6.10734813 4.03424483,6.10498765 C2.24965862,5.20079012 1.0629,3.18439506 1.01314138,3.09906173 C0.918175862,2.93530864 0.979934483,2.72908642 1.15134828,2.63832099 C1.32265862,2.54745679 1.53865862,2.60651852 1.63393448,2.77007407 C1.64308658,2.78590104 2.42877892,4.11800857 3.61667038,5.02834218 C3.63276672,4.89547428 3.6715396,4.76291626 3.73480345,4.63554568 C3.95173448,4.1994963 4.42056207,3.91771852 4.92973448,3.91771852 C5.12494138,3.91771852 5.31321724,3.95811358 5.48959655,4.03801481 C5.80583793,4.18122469 6.04542414,4.43485432 6.16387241,4.75248395 C6.28242414,5.06981728 6.26504483,5.41095309 6.11494138,5.71278025 C5.92328738,6.09955526 5.55379012,6.35879838 5.12361933,6.41923924 C5.21796271,7.06421781 4.67022298,7.62077243 4.60683103,7.6825679 C3.71140909,8.57907362 2.92640217,9.57323261 2.7636817,9.99500293 C2.78651823,10.011899 2.80754789,10.0317488 2.82614483,10.054479 L5.79893793,13.6875654 C5.96135172,13.8571457 6.04721379,14.0723556 6.0410069,14.2958617 C6.03531724,14.5168988 5.93838621,14.7232198 5.76842069,14.8769975 C5.59483448,15.0350222 5.37117931,15.1133432 5.14814483,15.1133432 C4.90969655,15.1133432 4.67186897,15.0238617 4.49497241,14.8465778 L3.4120624,13.7311296 C3.57690403,14.6202091 3.70949755,15.3398452 3.72307241,15.4135309 C3.75100345,15.5661235 3.66721034,15.7175309 3.51907241,15.7813333 C3.34093448,15.8579753 3.04734828,15.9840988 2.73327931,15.9840988 C2.39427931,15.9840988 2.03086552,15.8369383 1.76241724,15.3208889 C1.7499,15.2967901 1.74038276,15.2713086 1.73407241,15.2451358 C1.41472759,13.899358 0.770555172,11.2393086 0.620451724,10.8043457 C0.4209,10.2284444 0.224348276,9.36098765 0.820210345,8.48641975 C0.82227931,8.48306173 0.824762069,8.4797037 0.827141379,8.47634568 L2.33552069,6.42696296 C2.44817586,6.27377778 2.66976207,6.23683951 2.83000345,6.34439506 C2.99024483,6.45204938 3.02883103,6.66340741 2.91648621,6.81659259 L1.41183103,8.86074074 C0.994106897,9.47832099 1.11783103,10.0821728 1.29462414,10.5918025 C1.48403793,11.1411358 2.31131379,14.6104691 2.41652069,15.0539259 C2.55958966,15.3137778 2.68755517,15.3591111 2.97431379,15.2628148 C2.79079655,14.2668642 2.15200345,10.8104691 2.03686552,10.265679 C1.88086552,9.52622222 3.42503793,7.88375309 4.09631379,7.21185185 C4.19593448,7.11288889 4.46458966,6.77550617 4.41917586,6.50558025 C4.40538832,6.42276044 4.35931522,6.34438758 4.28157663,6.2710706 Z M3.18365368,12.5025135 C3.19456871,12.5113257 3.20504385,12.5208625 3.2150069,12.531121 L5.01221379,14.382479 C5.08204138,14.4522074 5.20307586,14.4551704 5.27952414,14.3857383 C5.31324828,14.3553185 5.33042069,14.3193679 5.33155862,14.2782815 C5.3328,14.230084 5.3115931,14.1814914 5.27176552,14.1412938 C5.26369655,14.1332938 5.25604138,14.1250963 5.24921379,14.1162074 L2.96236399,11.3217693 C3.0301357,11.6809787 3.10633335,12.0879288 3.18365368,12.5025135 Z M1.585958,0.626820418 C1.76291976,0.495352985 2.01508225,0.479791153 2.21192069,0.604997531 C2.45833448,0.761639506 2.52474828,1.0790716 2.36057586,1.31403457 C2.19671379,1.54919506 1.86412759,1.6128 1.61792069,1.45625679 C1.54229648,1.40809251 1.48361013,1.34473632 1.44335645,1.2732551 C1.42781275,1.28115909 1.411311,1.28755963 1.39406897,1.29227654 C1.3707931,1.29879506 1.34813793,1.30165926 1.32227586,1.30185679 C1.22772414,1.30956049 0.667965517,1.38116543 0.288206897,1.43114074 C0.276517241,1.43272099 0.264724138,1.43351111 0.253241379,1.43351111 C0.128482759,1.43351111 0.0200689655,1.34570864 0.00237931034,1.22452346 C-0.0166551724,1.09198025 0.0801724138,0.969906173 0.218793103,0.951634568 C0.543103448,0.908869136 0.77637931,0.878153086 0.945827586,0.857412346 L0.321413793,0.556967901 C0.196137931,0.496819753 0.146172414,0.351239506 0.208862069,0.231832099 C0.272172414,0.112523457 0.424448276,0.0645234568 0.54962069,0.124671605 L1.5507931,0.606350617 C1.56326307,0.612354149 1.57499873,0.619214418 1.585958,0.626820418 Z M4.92973448,4.59534815 C4.69335517,4.59534815 4.47611379,4.72522469 4.37628621,4.92611358 C4.23528621,5.20966914 4.36759655,5.56315062 4.66563103,5.69816296 C4.74911379,5.73599012 4.83776897,5.75515062 4.9289069,5.75515062 C5.16332069,5.75515062 5.37176897,5.62774321 5.47345862,5.42270617 C5.54256207,5.28403951 5.55001034,5.12680494 5.49528621,4.97994074 C5.44045862,4.83297778 5.33038966,4.71594074 5.18556207,4.65036049 C5.10507931,4.61381728 5.01880345,4.59534815 4.92973448,4.59534815 Z M6.88009655,1.59636543 C6.83385517,1.59636543 6.78792414,1.60258765 6.74416552,1.61493333 C6.51844138,1.67863704 6.40816552,1.88268642 6.36244138,1.99863704 C6.27151034,2.22836543 6.26830345,2.51764938 6.35292414,2.79201975 C6.49516552,3.25029136 6.86571724,3.59597037 7.21547586,3.59597037 L7.21568276,3.59597037 C7.26192414,3.59597037 7.30806207,3.58974815 7.35151034,3.57740247 C7.72806207,3.4710321 7.90733793,2.93197037 7.74264828,2.40021728 C7.60061379,1.94194568 7.23006207,1.59636543 6.88009655,1.59636543 Z" transform="translate(4)"/>
</svg>
