<svg version="1.1" id="Calque_1" xmlns="http://www.w3.org/2000/svg" xmlns:xlink="http://www.w3.org/1999/xlink" x="0px" y="0px"
	 viewBox="0 0 500 441" style="enable-background:new 0 0 500 441;" xml:space="preserve">
<title>Plan de travail 1</title>
<path d="M448.6,110.2h-73.9c0-60.9-51.6-110.3-115.1-110.3S144.5,49.3,144.5,110.2H51.4c-29,1-51.7,24.2-50.9,52v226.8
	c-0.9,27.8,21.9,51,50.9,52h397.2c29-1,51.7-24.2,50.9-52V162.2C500.3,134.4,477.6,111.2,448.6,110.2z M86.9,413.5H51.4
	c-13.7-0.4-24.4-11.3-24-24.4c0,0,0,0,0,0V162.2c-0.4-13.1,10.3-24,24-24.4c0,0,0,0,0,0h35.5V413.5z M154,413.5h-38.4V137.8H154
	V413.5z M317.2,413.5H182.8V137.8h134.3V413.5z M336.4,110.2H174.2c4.5-45.2,46.3-78.3,93.5-74c41,3.7,73.4,34.8,77.3,74H336.4z
	 M384.3,413.5H346V137.8h38.4V413.5z M472.6,389.1c0.4,13.1-10.3,24-24,24.4c0,0,0,0,0,0h-35.5V137.8h35.5
	c13.7,0.4,24.4,11.3,24,24.4c0,0,0,0,0,0V389.1z"/>
</svg>
