<svg xmlns="http://www.w3.org/2000/svg" viewBox="0 0 500 469.9"><g><path d="M363.9 227.1c-6.1.5-12.2 1.6-18.2 3.3-11 3.1-21.5 8.9-29.7 17.2-2.1 2.2-4 4.3-5.8 6.9-1.2 1.7-2.3 3.5-3.2 5.4v-71.1c.6.9 1.2 1.8 2 2.6.9 1 1.7 1.9 2.9 2.8 1.1.9 2.3 1.6 3.5 2.2 2.4 1.2 4.8 1.9 7.3 2.4 5 .9 10.3.6 15.2-1.5.6-.3 1.2-.5 1.8-.8.6-.3 1.2-.7 1.8-1.1 1.2-.8 2.3-1.7 3.2-2.7 1.9-2.1 3.4-4.5 4.3-7.1 1.8-5.2 1.5-11.2-1.2-16.2-1.3-2.5-3-4.7-5.4-6.5-2.4-1.8-5.4-3-8.4-3.2-.7-.1-2.4-.1-4.4.3-2 .4-4.4 1.3-6.5 3-2 1.6-3.6 4-4.2 6.1-.6 2.1-.5 3.6-.5 3.8 0 1.3.6 1.8 1.1 1.9.5.1 1.1-.3 1.5-.8.6-.8 1-2.4 2-3.9 1-1.6 2.5-3 4.3-3.8 1.8-.8 3.7-1.1 5.2-1 1.5.1 2.6.4 3 .5 3.7 1.1 6.5 4.5 7.8 8.1 1.3 3.7 1 7.8-.7 11.2-.8 1.7-2 3.2-3.5 4.4-1.4 1.2-3.1 2-5 2.6-3.7 1.1-7.7 1.1-11.4.2-1.9-.5-3.7-1.2-5.2-2.1-.8-.5-1.5-1-2.1-1.6-.6-.6-1.3-1.3-1.8-2.1-2.3-3-3.7-6.6-4.2-10.3-.5-3.7 0-7.4 1.5-10.8 1.4-3.4 3.7-6.3 6.6-9.2 5.5-5.9 12.5-10.2 20.2-12.7 7.7-2.5 16.1-3.3 24.4-3.2 8.3.2 16.8 1.5 25.1 3.2 5.8 1.2 11.5 2.7 17.1 4.4-2.5 13.4-12.4 54.1-40.4 79.2zM492.3 348c-4.9-2.3-10.2-4.4-11.7-5-12.8-5-26-9-39.5-12.1-13.4-3.1-27.1-5.4-40.7-6-13.6-.5-27.5.3-40.5 3.5s-25.2 9.4-34.7 18.7c-2.3 2.2-4.6 4.7-6.6 7.2s-3.7 5.2-5 8c-2.7 5.7-4 12-3.5 18.3.5 6.3 2.6 12.5 6.1 17.8 1.8 2.6 3.9 5.1 6.3 7 2.5 1.9 5.3 3.5 8.3 4.8 5.9 2.4 12.6 3.3 18.7 1.6 3-.8 5.9-2.3 8.4-4.2 2.4-2 4.5-4.5 6.1-7.3 3.1-5.6 4.3-12.4 2.7-18.7-1.6-6.2-6.1-11.9-12-14.5-.6-.3-2.4-1-4.8-1.3-2.4-.3-5.6-.2-8.6 1.2-2.9 1.2-5.4 3.7-6.6 6.3-1.3 2.6-1.5 5-2 6-.3.7-.9 1.2-1.4 1.1-.5-.1-1.1-.9-1.2-2.6 0-.3-.2-2.3.5-5.1s2.8-6.3 5.9-8.6c3-2.3 6.7-3.4 9.7-3.7 3-.3 5.4.1 6.4.4 4.3.9 8.2 3 11.3 5.9 3.1 2.8 5.6 6.2 7.2 10.1 3.3 7.8 2.7 16.6-.5 23.9-1.6 3.7-3.8 7.1-6.7 10-1.4 1.5-3 2.8-4.8 3.9-1.7 1.1-3.5 2-5.5 2.8-7.7 3-16.2 2.5-23.5 0-3.7-1.3-7.2-3-10.4-5.2-1.6-1.1-3.2-2.4-4.6-3.8-1.4-1.4-2.6-2.9-3.8-4.4-1.7-2.3-3.2-4.8-4.4-7.5V429H193v-32.5c-1.2 2.6-2.7 5.1-4.4 7.5-1.2 1.6-2.4 3-3.8 4.4-1.4 1.4-3 2.7-4.6 3.8-3.2 2.2-6.7 4-10.4 5.2-7.3 2.5-15.8 3-23.5 0-1.9-.7-3.7-1.7-5.5-2.8-1.8-1.1-3.4-2.5-4.8-3.9-2.9-2.9-5.1-6.3-6.7-10-3.2-7.3-3.8-16.1-.5-23.9 1.6-3.9 4.1-7.3 7.2-10.1 3.1-2.8 7-5 11.3-5.9 1-.2 3.4-.6 6.4-.4 3 .3 6.7 1.4 9.7 3.7 3.1 2.2 5.2 5.7 5.9 8.6.8 2.9.5 4.9.5 5.1-.1 1.7-.7 2.5-1.2 2.6-.5.1-1.1-.3-1.4-1.1-.6-1-.8-3.4-2-6s-3.6-5-6.6-6.3c-2.9-1.3-6.1-1.5-8.6-1.2-2.5.3-4.2 1.1-4.8 1.3-5.9 2.6-10.4 8.3-12 14.5-1.6 6.3-.4 13.1 2.7 18.7 1.6 2.8 3.6 5.3 6.1 7.3 2.4 2 5.3 3.4 8.4 4.2 6.1 1.7 12.7.8 18.7-1.6 3-1.2 5.8-2.8 8.3-4.8 2.4-1.9 4.5-4.4 6.3-7 3.5-5.3 5.6-11.5 6.1-17.8.5-6.3-.8-12.6-3.5-18.3-1.4-2.8-3.1-5.5-5-8-2-2.5-4.3-4.9-6.6-7.2-9.5-9.4-21.6-15.5-34.7-18.7-13-3.2-26.9-4-40.5-3.5-13.6.6-27.3 2.9-40.7 6C45.4 334 32.1 338 19.3 343c-1.5.6-6.8 2.7-11.7 5-3 1.4-5.9 2.9-7.7 3.8 2 5.1 35.5 89 103.6 112.3 10.5 3.6 20.6 5.3 30.2 5.7v.1h232.4v-.1c9.6-.4 19.6-2.1 30.2-5.7C464.5 440.9 498 357 500 351.9c-1.8-1-4.6-2.5-7.7-3.9z"/><path d="M398.9 318.2c-13.9-.5-27.9.2-41.6 3.5-6.9 1.7-13.6 4.1-20 7.4-6.4 3.3-12.3 7.6-17.5 12.5-2.6 2.6-5 5.3-7.3 8.2-2.2 2.8-4 5.9-5.6 9.1v-66.8c1.1 2.2 2.4 4.2 3.9 6.2 1 1.3 2.1 2.4 3.3 3.5 1.3 1.2 2.6 2.1 3.9 3 2.7 1.7 5.6 3.1 8.6 4 6 1.9 13.1 2.1 19.4-.6 3.1-1.3 6-3.3 8.3-5.8 2.3-2.5 4.1-5.3 5.3-8.4 2.5-6.1 2.8-13.4 0-19.8-1.4-3.2-3.5-6-6.1-8.3-2.6-2.3-5.9-4.1-9.6-4.8-.9-.2-2.8-.5-5.4-.2-2.5.3-5.6 1.2-8.2 3.2-2.6 1.9-4.4 4.9-5 7.4-.6 2.5-.4 4.2-.4 4.4.1 1.5.7 2.1 1.2 2.2.5.1 1.1-.3 1.5-.9.6-.9.8-2.9 1.9-4.9 1-2.1 3-4 5.4-5 2.3-1 4.9-1.2 6.8-.9 1.9.3 3.3.8 3.8 1 4.7 2 8.3 6.5 9.6 11.3 1.4 4.9.5 10.3-1.9 14.8-1.2 2.2-2.8 4.3-4.7 5.9-1.9 1.6-4.1 2.8-6.5 3.5-4.7 1.5-10 .9-14.7-.9-2.4-.9-4.6-2.1-6.6-3.6-2-1.4-3.6-3.3-5.1-5.3-2.9-4.1-4.7-8.9-5.2-13.8s.3-9.9 2.3-14.4c1.9-4.5 5.1-8.4 8.8-12.1 7.3-7.6 16.7-12.9 26.9-15.9s21.2-3.9 32-3.8c10.7.3 21.6 2.4 32.3 5 10.7 2.7 21.3 6 31.4 10.1 1 .4 3.9 1.6 7 3.1-3.7 11.4-15.3 42.3-37.6 68-4.8-.4-9.7-.8-14.6-1.1zm-59.5-184c-10.5 3.5-23 9.7-32.5 22.5V0c.8 3.3 7.1 25.6 41.2 51.7 22.2 16.9 24.9 32.5 22.1 48.2-3.7 21.7-21.1 31.1-30.8 34.3zm-178.8 0c10.5 3.5 23 9.7 32.5 22.5V0c-.8 3.3-7.1 25.6-41.2 51.7-22.2 16.9-24.9 32.5-22.1 48.2 3.7 21.7 21.1 31.1 30.8 34.3zm-59.5 184c13.9-.5 27.9.2 41.6 3.5 6.9 1.7 13.6 4.1 20 7.4 6.4 3.3 12.3 7.6 17.5 12.5 2.6 2.6 5 5.3 7.3 8.2 2.2 2.8 4 5.9 5.6 9.1v-66.8c-1.1 2.2-2.4 4.2-3.9 6.2-1 1.3-2.1 2.4-3.3 3.5-1.3 1.2-2.6 2.1-3.9 3-2.7 1.7-5.6 3.1-8.6 4-6 1.9-13.1 2.1-19.4-.6-3.1-1.3-6-3.3-8.3-5.8-2.3-2.5-4.1-5.3-5.3-8.4-2.5-6.1-2.8-13.4 0-19.8 1.4-3.2 3.5-6 6.1-8.3 2.6-2.3 5.9-4.1 9.6-4.8.9-.2 2.8-.5 5.4-.2 2.5.3 5.6 1.2 8.2 3.2 2.6 1.9 4.4 4.9 5 7.4.6 2.5.4 4.2.4 4.4-.1 1.5-.7 2.1-1.2 2.2-.5.1-1.1-.3-1.5-.9-.6-.9-.8-2.9-1.9-4.9-1-2.1-3-4-5.4-5-2.3-1-4.9-1.2-6.8-.9-2 .3-3.3.8-3.8 1-4.7 2-8.3 6.5-9.6 11.3-1.4 4.9-.5 10.3 1.9 14.8 1.2 2.2 2.8 4.3 4.7 5.9 1.9 1.6 4.1 2.8 6.5 3.5 4.7 1.5 10 .9 14.7-.9 2.4-.9 4.6-2.1 6.6-3.6 2-1.4 3.6-3.3 5.1-5.3 2.9-4.1 4.7-8.9 5.2-13.8s-.3-9.9-2.3-14.4c-1.9-4.5-5.1-8.4-8.8-12.1-7.3-7.6-16.7-12.9-26.9-15.9s-21.2-3.9-32-3.8c-10.7.3-21.6 2.4-32.3 5-10.7 2.7-21.3 6-31.4 10.1-1 .4-3.9 1.6-7 3.1 3.7 11.4 15.3 42.3 37.6 68 4.8-.4 9.7-.8 14.6-1.1zm35-91.1c6.1.5 12.2 1.6 18.2 3.3 11 3.1 21.5 8.9 29.7 17.2 2.1 2.2 4 4.3 5.8 6.9 1.2 1.7 2.3 3.5 3.2 5.4v-71.1c-.6.9-1.2 1.8-2 2.6-.9 1-1.7 1.9-2.9 2.8-1.1.9-2.3 1.6-3.5 2.2-2.4 1.2-4.8 1.9-7.3 2.4-5 .9-10.3.6-15.2-1.5-.6-.3-1.2-.5-1.8-.8-.6-.3-1.2-.7-1.8-1.1-1.2-.8-2.3-1.7-3.2-2.7-1.9-2.1-3.4-4.5-4.3-7.1-1.8-5.2-1.5-11.2 1.1-16.2 1.3-2.5 3-4.7 5.4-6.5 2.4-1.8 5.4-3 8.4-3.2.7-.1 2.4-.1 4.4.3 2 .4 4.4 1.3 6.5 3 2 1.6 3.6 4 4.2 6.1.6 2.1.5 3.6.5 3.8 0 1.3-.6 1.8-1.1 1.9-.5.1-1.1-.3-1.5-.8-.6-.8-1-2.4-2-3.9-1-1.6-2.5-3-4.3-3.8-1.8-.8-3.7-1.1-5.2-1-1.5.1-2.6.4-3 .5-3.7 1.1-6.5 4.5-7.8 8.1-1.3 3.7-1 7.8.7 11.2.8 1.7 2 3.2 3.5 4.4 1.4 1.2 3.1 2 5 2.6 3.7 1.1 7.7 1.1 11.4.2 1.9-.5 3.7-1.2 5.2-2.1.8-.5 1.5-1 2.1-1.6.6-.6 1.3-1.3 1.8-2.1 2.3-3 3.7-6.6 4.2-10.3.5-3.7 0-7.4-1.5-10.8-1.4-3.4-3.7-6.3-6.6-9.2-5.5-5.9-12.5-10.2-20.2-12.7-7.7-2.5-16.1-3.3-24.4-3.2-8.3.2-16.8 1.5-25.1 3.2-5.8 1.2-11.5 2.7-17.1 4.4 2.6 13.4 12.5 54.1 40.5 79.2z"/></g></svg>
