<svg id="Calque_1" data-name="Calque 1" xmlns="http://www.w3.org/2000/svg" viewBox="0 0 100 100"><defs></defs><title>Balcony</title><path class="cls-1" d="M85,56.92h3.51a1.5,1.5,0,0,0,0-3H81.81V2.75a1.5,1.5,0,0,0-1.5-1.5H19.69a1.5,1.5,0,0,0-1.5,1.5V53.92H11.48a1.5,1.5,0,0,0,0,3H15l-4.91,13a1.4,1.4,0,0,0-.05.88l4.15,17.1v9.88a1.5,1.5,0,0,0,1.5,1.5H84.32a1.5,1.5,0,0,0,1.5-1.5V87.87L90,70.77a1.47,1.47,0,0,0,0-.88ZM21.19,4.25H78.81V53.92H21.19Zm48,67.19L67.05,86H51.5V56.92H67.06ZM32.61,86,30.43,71.44l2.18-14.52H48.5V86ZM13.05,70.51,18.2,56.92H29.57L27.43,71.21a1.69,1.69,0,0,0,0,.45L29.57,86H17.17a2,2,0,0,0-.35,0ZM17.18,89H48.5v7.25H17.18ZM51.5,96.25V89h31a1.12,1.12,0,0,0,.32,0v7.29ZM83.15,86.16A1.45,1.45,0,0,0,82.5,86H70.09l2.14-14.34a1.7,1.7,0,0,0,0-.45L70.09,56.92H81.8L87,70.51Z"/></svg>
