<svg id="Calque_1" data-name="Calque 1" xmlns="http://www.w3.org/2000/svg" viewBox="0 0 24 24"><defs></defs><title>Bain de soleil avec
 baldaquin</title><path class="cls-1" d="M22.93,3.31H1.07a.38.38,0,0,0-.38.38V21.94a.38.38,0,0,0,.38.37.37.37,0,0,0,.37-.37V20.15H22.56v1.79a.37.37,0,0,0,.37.37.38.38,0,0,0,.38-.37V3.69A.38.38,0,0,0,22.93,3.31Zm-7.15.75h6.78v8.18C19.32,11.88,16.05,7,15.78,4.06Zm6.78,9.09v4.22a2.6,2.6,0,0,1-.84-2.11A2.6,2.6,0,0,1,22.56,13.15Zm-21.12,0a2.53,2.53,0,0,1,.84,2.1,2.56,2.56,0,0,1-.84,2.11Zm0-.92V4.06H8.22C8,7,4.68,11.88,1.44,12.24Zm0,7.16V18.19C2.36,17.93,3,16.74,3,15.26a3.68,3.68,0,0,0-.8-2.42C5.61,11.9,8.73,7.11,9,4.06H15c.24,3.05,3.36,7.84,6.74,8.78a3.68,3.68,0,0,0-.8,2.42c0,1.48.67,2.67,1.59,2.93V19.4Z"/><path class="cls-1" d="M18.86,15.31H8.66l-.14,0a1.31,1.31,0,0,0-.24-.84L7,12.81a1.39,1.39,0,0,0-1.93-.29L5,12.58a1.41,1.41,0,0,0-.54.91,1.39,1.39,0,0,0,.26,1L6,16.19a1.37,1.37,0,0,0,.9.54l.21,0a1.29,1.29,0,0,0,.19,0v0a1.38,1.38,0,0,0,1.37,1.38h10.2a1.4,1.4,0,0,0,0-2.8ZM7,16a.64.64,0,0,1-.41-.25L5.34,14.06a.64.64,0,0,1,.13-.87l.08-.06a.63.63,0,0,1,.88.12l1.25,1.69a.63.63,0,0,1,.11.46.6.6,0,0,1-.24.41l-.09.06A.62.62,0,0,1,7,16Zm11.86,1.37H8.66A.64.64,0,0,1,8,16.69a.63.63,0,0,1,.62-.63h10.2a.64.64,0,0,1,.63.67A.63.63,0,0,1,18.86,17.36Z"/></svg>
