<svg viewBox="0 0 33 160" version="1.1" xmlns="http://www.w3.org/2000/svg" xmlns:xlink="http://www.w3.org/1999/xlink">
    <!-- Generator: Sketch 47.1 (45422) - http://www.bohemiancoding.com/sketch -->
    <title>barcode</title>
    <defs></defs>
    <g id="Page-1" stroke-width="1" fill-rule="evenodd">
        <g id="barcode" fill-rule="nonzero">
            <polygon id="Shape" transform="translate(16.500000, 1.155738) rotate(90.000000) translate(-16.500000, -1.155738) " points="16 -14.8442623 16 17.1557377 17 17.1557377 17 -14.8442623"></polygon>
            <polygon id="Shape" transform="translate(16.500000, 4.434426) rotate(90.000000) translate(-16.500000, -4.434426) " points="15.5 -11.5655738 15.5 20.4344262 17.5 20.4344262 17.5 -11.5655738"></polygon>
            <polygon id="Shape" transform="translate(16.500000, 9.024590) rotate(90.000000) translate(-16.500000, -9.024590) " points="16 -6.97540984 16 25.0245902 17 25.0245902 17 -6.97540984"></polygon>
            <polygon id="Shape" transform="translate(16.500000, 12.959016) rotate(90.000000) translate(-16.500000, -12.959016) " points="16 -3.0409836 16 28.9590164 17 28.9590164 17 -3.0409836"></polygon>
            <polygon id="Shape" transform="translate(16.500000, 15.581967) rotate(90.000000) translate(-16.500000, -15.581967) " points="16 -0.4180328 16 31.5819672 17 31.5819672 17 -0.4180328"></polygon>
            <polygon id="Shape" transform="translate(16.500000, 18.860656) rotate(90.000000) translate(-16.500000, -18.860656) " points="15.5 2.8606557 15.5 34.8606557 17.5 34.8606557 17.5 2.8606557"></polygon>
            <polygon id="Shape" transform="translate(16.500000, 22.139344) rotate(90.000000) translate(-16.500000, -22.139344) " points="16 6.1393443 16 38.1393443 17 38.1393443 17 6.1393443"></polygon>
            <polygon id="Shape" transform="translate(16.500000, 26.073770) rotate(90.000000) translate(-16.500000, -26.073770) " points="16 10.0737705 16 42.0737705 17 42.0737705 17 10.0737705"></polygon>
            <polygon id="Shape" transform="translate(16.500000, 28.696721) rotate(90.000000) translate(-16.500000, -28.696721) " points="16 12.6967213 16 44.6967213 17 44.6967213 17 12.6967213"></polygon>
            <polygon id="Shape" transform="translate(16.500000, 33.286885) rotate(90.000000) translate(-16.500000, -33.286885) " points="15.5 17.2868852 15.5 49.2868852 17.5 49.2868852 17.5 17.2868852"></polygon>
            <polygon id="Shape" transform="translate(16.500000, 36.565574) rotate(90.000000) translate(-16.500000, -36.565574) " points="16 20.5655738 16 52.5655738 17 52.5655738 17 20.5655738"></polygon>
            <polygon id="Shape" transform="translate(16.500000, 39.188525) rotate(90.000000) translate(-16.500000, -39.188525) " points="16 23.1885246 16 55.1885246 17 55.1885246 17 23.1885246"></polygon>
            <polygon id="Shape" transform="translate(16.500000, 41.811475) rotate(90.000000) translate(-16.500000, -41.811475) " points="16 25.8114754 16 57.8114754 17 57.8114754 17 25.8114754"></polygon>
            <polygon id="Shape" transform="translate(16.500000, 44.434426) rotate(90.000000) translate(-16.500000, -44.434426) " points="16 28.4344262 16 60.4344262 17 60.4344262 17 28.4344262"></polygon>
            <polygon id="Shape" transform="translate(16.500000, 47.713115) rotate(90.000000) translate(-16.500000, -47.713115) " points="15.5 31.7131148 15.5 63.7131148 17.5 63.7131148 17.5 31.7131148"></polygon>
            <polygon id="Shape" transform="translate(16.500000, 52.303279) rotate(90.000000) translate(-16.500000, -52.303279) " points="16 36.3032787 16 68.3032787 17 68.3032787 17 36.3032787"></polygon>
            <polygon id="Shape" transform="translate(16.500000, 55.581967) rotate(90.000000) translate(-16.500000, -55.581967) " points="15.5 39.5819672 15.5 71.5819672 17.5 71.5819672 17.5 39.5819672"></polygon>
            <polygon id="Shape" transform="translate(16.500000, 58.860656) rotate(90.000000) translate(-16.500000, -58.860656) " points="16 42.8606557 16 74.8606557 17 74.8606557 17 42.8606557"></polygon>
            <polygon id="Shape" transform="translate(16.500000, 61.483607) rotate(90.000000) translate(-16.500000, -61.483607) " points="16 45.4836066 16 77.4836066 17 77.4836066 17 45.4836066"></polygon>
            <polygon id="Shape" transform="translate(16.500000, 65.418033) rotate(90.000000) translate(-16.500000, -65.418033) " points="16 49.4180328 16 81.4180328 17 81.4180328 17 49.4180328"></polygon>
            <polygon id="Shape" transform="translate(16.500000, 68.040984) rotate(90.000000) translate(-16.500000, -68.040984) " points="16 52.0409836 16 84.0409836 17 84.0409836 17 52.0409836"></polygon>
            <polygon id="Shape" transform="translate(16.500000, 70.663934) rotate(90.000000) translate(-16.500000, -70.663934) " points="16 54.6639344 16 86.6639344 17 86.6639344 17 54.6639344"></polygon>
            <polygon id="Shape" transform="translate(16.500000, 73.942623) rotate(90.000000) translate(-16.500000, -73.942623) " points="15.5 57.942623 15.5 89.942623 17.5 89.942623 17.5 57.942623"></polygon>
            <polygon id="Shape" transform="translate(16.500000, 78.532787) rotate(90.000000) translate(-16.500000, -78.532787) " points="16 62.5327869 16 94.5327869 17 94.5327869 17 62.5327869"></polygon>
            <polygon id="Shape" transform="translate(16.500000, 81.155738) rotate(90.000000) translate(-16.500000, -81.155738) " points="16 65.1557377 16 97.1557377 17 97.1557377 17 65.1557377"></polygon>
            <polygon id="Shape" transform="translate(16.500000, 85.090164) rotate(90.000000) translate(-16.500000, -85.090164) " points="16 69.0901639 16 101.090164 17 101.090164 17 69.0901639"></polygon>
            <polygon id="Shape" transform="translate(16.500000, 87.713115) rotate(90.000000) translate(-16.500000, -87.713115) " points="16 71.7131148 16 103.713115 17 103.713115 17 71.7131148"></polygon>
            <polygon id="Shape" transform="translate(16.500000, 90.991803) rotate(90.000000) translate(-16.500000, -90.991803) " points="15.5 74.9918033 15.5 106.991803 17.5 106.991803 17.5 74.9918033"></polygon>
            <polygon id="Shape" transform="translate(16.500000, 94.270492) rotate(90.000000) translate(-16.500000, -94.270492) " points="16 78.2704918 16 110.270492 17 110.270492 17 78.2704918"></polygon>
            <polygon id="Shape" transform="translate(16.500000, 96.893443) rotate(90.000000) translate(-16.500000, -96.893443) " points="16 80.8934426 16 112.893443 17 112.893443 17 80.8934426"></polygon>
            <polygon id="Shape" transform="translate(16.500000, 100.827869) rotate(90.000000) translate(-16.500000, -100.827869) " points="16 84.827869 16 116.827869 17 116.827869 17 84.827869"></polygon>
            <polygon id="Shape" transform="translate(16.500000, 104.106557) rotate(90.000000) translate(-16.500000, -104.106557) " points="15.5 88.106557 15.5 120.106557 17.5 120.106557 17.5 88.106557"></polygon>
            <polygon id="Shape" transform="translate(16.500000, 108.040984) rotate(90.000000) translate(-16.500000, -108.040984) " points="15.5 92.040984 15.5 124.040984 17.5 124.040984 17.5 92.040984"></polygon>
            <polygon id="Shape" transform="translate(16.500000, 112.631148) rotate(90.000000) translate(-16.500000, -112.631148) " points="16 96.631148 16 128.631148 17 128.631148 17 96.631148"></polygon>
            <polygon id="Shape" transform="translate(16.500000, 115.254098) rotate(90.000000) translate(-16.500000, -115.254098) " points="16 99.254098 16 131.254098 17 131.254098 17 99.254098"></polygon>
            <polygon id="Shape" transform="translate(16.500000, 117.877049) rotate(90.000000) translate(-16.500000, -117.877049) " points="16 101.877049 16 133.877049 17 133.877049 17 101.877049"></polygon>
            <polygon id="Shape" transform="translate(16.500000, 120.500000) rotate(90.000000) translate(-16.500000, -120.500000) " points="16 104.5 16 136.5 17 136.5 17 104.5"></polygon>
            <polygon id="Shape" transform="translate(16.500000, 123.778689) rotate(90.000000) translate(-16.500000, -123.778689) " points="15.5 107.778689 15.5 139.778689 17.5 139.778689 17.5 107.778689"></polygon>
            <polygon id="Shape" transform="translate(16.500000, 127.057377) rotate(90.000000) translate(-16.500000, -127.057377) " points="16 111.057377 16 143.057377 17 143.057377 17 111.057377"></polygon>
            <polygon id="Shape" transform="translate(16.500000, 130.991803) rotate(90.000000) translate(-16.500000, -130.991803) " points="16 114.991803 16 146.991803 17 146.991803 17 114.991803"></polygon>
            <polygon id="Shape" transform="translate(16.500000, 133.614754) rotate(90.000000) translate(-16.500000, -133.614754) " points="16 117.614754 16 149.614754 17 149.614754 17 117.614754"></polygon>
            <polygon id="Shape" transform="translate(16.500000, 136.237705) rotate(90.000000) translate(-16.500000, -136.237705) " points="16 120.237705 16 152.237705 17 152.237705 17 120.237705"></polygon>
            <polygon id="Shape" transform="translate(16.500000, 140.172131) rotate(90.000000) translate(-16.500000, -140.172131) " points="16 124.172131 16 156.172131 17 156.172131 17 124.172131"></polygon>
            <polygon id="Shape" transform="translate(16.500000, 143.450820) rotate(90.000000) translate(-16.500000, -143.450820) " points="15.5 127.45082 15.5 159.45082 17.5 159.45082 17.5 127.45082"></polygon>
            <polygon id="Shape" transform="translate(16.500000, 146.729508) rotate(90.000000) translate(-16.500000, -146.729508) " points="16 130.729508 16 162.729508 17 162.729508 17 130.729508"></polygon>
            <polygon id="Shape" transform="translate(16.500000, 150.008197) rotate(90.000000) translate(-16.500000, -150.008197) " points="15.5 134.008197 15.5 166.008197 17.5 166.008197 17.5 134.008197"></polygon>
            <polygon id="Shape" transform="translate(16.500000, 154.598361) rotate(90.000000) translate(-16.500000, -154.598361) " points="16 138.598361 16 170.598361 17 170.598361 17 138.598361"></polygon>
            <polygon id="Shape" transform="translate(16.500000, 158.532787) rotate(90.000000) translate(-16.500000, -158.532787) " points="16 142.532787 16 174.532787 17 174.532787 17 142.532787"></polygon>
        </g>
    </g>
</svg>
