<svg version="1.1"
   xmlns="http://www.w3.org/2000/svg" xmlns:xlink="http://www.w3.org/1999/xlink"
   x="0px" y="0px" viewBox="0 0 500 577.6" style="enable-background:new 0 0 500 577.6;"
   xml:space="preserve">
<defs>
</defs>
<g>
  <path class="st0" d="M308.6,508.4V322.2l186.8-209c6.6-7.4,6-18.8-1.4-25.4c-7.4-6.6-18.8-6-25.4,1.4l-48.3,54H160.1
    c-0.3,0-0.6,0.1-0.9,0.1l-46.3-53.8c-6.5-7.5-17.9-8.4-25.4-1.9c-7.5,6.5-8.4,17.8-1.9,25.4l187,217.4v166L159,543
    c-8,3.3-12.5,11.7-10.8,20.1c1.7,8.4,9.1,14.5,17.7,14.5h249.5c8.5,0,15.9-6,17.6-14.3c1.7-8.4-2.6-16.8-10.5-20.2l-81.7-35.4
    c-9.1-4-19.7,0.2-23.7,9.4c-4,9.1,0.2,19.7,9.4,23.7l2,0.9h-71.5l40.3-16.6C304.2,522.3,308.6,515.7,308.6,508.4z M388.1,179.3
    L287.2,292.2l-97.1-112.9H388.1z"/>
  <path class="st0" d="M90.6,158.1c-16.3-1.8-30.8-9.7-41.1-22.5c-10.2-12.7-14.9-28.7-13.2-45c3.6-33.6,33.9-57.9,67.4-54.3
    c16.3,1.8,30.9,9.7,41.1,22.5c10.2,12.7,14.9,28.7,13.2,45c-1.1,9.9,6.1,18.8,16,19.8c9.9,1.1,18.8-6.1,19.8-16
    c2.8-25.8-4.6-51.2-20.9-71.4C156.7,16,133.5,3.4,107.7,0.6C54.4-5.2,6.3,33.5,0.6,86.8c-2.8,25.8,4.6,51.2,20.9,71.4
    c16.3,20.2,39.5,32.9,65.3,35.7c0.7,0.1,1.3,0.1,2,0.1c9.1,0,16.9-6.8,17.9-16.1C107.7,168,100.5,159.1,90.6,158.1z"/>
</g>
</svg>
