<svg xmlns="http://www.w3.org/2000/svg" viewBox="0 0 16 16">
  <path fill-rule="evenodd" d="M0.714383193,5.76845714 C0.763996639,5.47081739 1.02154286,5.25486708 1.32688739,5.25486708 C1.36066891,5.25486708 1.39495462,5.25755031 1.42873613,5.26301615 C1.76695462,5.31777391 1.99697143,5.6336 1.9414084,5.96721491 C1.89199664,6.2646559 1.63455126,6.48050683 1.32930756,6.48050683 C1.29542521,6.48050683 1.2611395,6.47772422 1.22725714,6.47225839 C1.0633916,6.44572422 0.919794958,6.35797267 0.822887395,6.22500373 C0.725979832,6.09213416 0.687458824,5.92994783 0.714383193,5.76845714 M1.11300504,7.15866832 C0.762988235,7.10212174 0.456332773,6.91459379 0.249509244,6.6307677 C0.0426857143,6.34694161 -0.0396,6.00070559 0.0178789916,5.65586087 C0.123660504,5.0204323 0.674147899,4.55921491 1.32688739,4.55921491 C1.39888739,4.55921491 1.47159328,4.56497888 1.54298824,4.57660621 C2.26530756,4.69347578 2.75650084,5.36776149 2.63801345,6.0797118 C2.53243361,6.71494161 1.98194622,7.17615901 1.32930756,7.17615901 C1.25720672,7.17615901 1.18450084,7.17029565 1.11300504,7.15866832 Z M8.11723361,1.28122236 C8.11723361,1.9888 7.53518319,2.56221615 6.8172,2.56221615 C6.09931765,2.56221615 5.51726723,1.9888 5.51726723,1.28122236 C5.51726723,0.57364472 6.09931765,2.98136646e-05 6.8172,2.98136646e-05 C7.53518319,2.98136646e-05 8.11723361,0.57364472 8.11723361,1.28122236 Z M3.89920336,6.78631553 C4.98928739,7.71699876 5.49711933,8.84534658 5.49711933,10.3364273 C5.49711933,12.0409739 4.95217815,13.8638807 4.07486723,15.0936944 C3.60716975,15.7493963 3.06434622,15.9552099 2.59634622,15.9552099 C2.22232941,15.9552099 1.89601008,15.8238311 1.69362353,15.6856944 C1.61597647,15.6327255 1.56313613,15.5513342 1.54690084,15.4596075 C1.53066555,15.3679801 1.55234622,15.2737689 1.60710252,15.1980422 C1.61506891,15.1868124 2.10424538,14.4980174 2.52091765,13.4572224 C2.30219496,13.5438807 2.05140504,13.633918 1.80031261,13.7039801 C1.69937143,13.7322037 1.60034622,13.7447255 1.50424538,13.7448248 C0.771337815,13.7448248 0.198564706,13.0169739 0.128278992,12.9237565 C0.0659596639,12.8410733 0.0439764706,12.7353342 0.0682789916,12.6351602 C0.0926823529,12.5350857 0.16074958,12.4506137 0.254430252,12.4048 L3.0713042,11.0250236 C3.07795966,11.0217441 3.08491765,11.0202534 3.09167395,11.0174708 C3.14794286,9.94576894 2.69365714,8.7925764 1.92616134,8.0565764 C1.87412773,8.03739627 1.75322017,8.00529689 1.62918655,8.06134658 C1.41560672,8.15764472 1.23328739,8.48191801 1.11611092,8.97463851 C1.01900168,9.38248944 1.07385882,9.55322236 1.11641345,9.58661366 C1.21432941,9.6631354 1.57332101,9.58462609 1.81664874,9.46606708 C1.99110252,9.38099876 2.20276639,9.45106087 2.28948908,9.62278758 C2.37621176,9.79451429 2.30582521,10.002713 2.13187563,10.088477 C1.97758992,10.1647006 1.18226218,10.5243528 0.679068908,10.1326012 C0.363438655,9.88693665 0.279337815,9.44380621 0.428783193,8.81573168 C0.604547899,8.07754534 0.916043697,7.6080795 1.35449748,7.4203528 C1.83691765,7.21404224 2.25772437,7.43804224 2.30411092,7.46427826 C2.32811092,7.47779379 2.3502958,7.49409193 2.37036303,7.51267578 C3.32864874,8.40142112 3.87469916,9.77006708 3.79543866,11.0845516 C3.68199328,12.9645019 2.83765714,14.5565516 2.41685042,15.2427627 C2.69506891,15.2983155 3.10417815,15.2447503 3.49735462,14.693595 C4.29540504,13.574887 4.79123697,11.9052224 4.79123697,10.3364273 C4.79123697,9.04191801 4.37174118,8.10765714 3.43110252,7.30706087 C3.42686723,7.30348323 3.42273277,7.29980621 3.4188,7.29602981 C1.46421176,5.46735901 4.62908571,1.30398012 4.76471597,1.12768199 C4.88249748,0.974638509 5.10384202,0.944626087 5.25913613,1.06070062 C5.41443025,1.17667578 5.44488403,1.39481242 5.3273042,1.54795528 C4.51100168,2.61021615 2.66592605,5.61851429 3.89920336,6.78631553 Z M11.9259328,3.29748075 C11.9240168,3.3019528 11.9216975,3.30602733 11.9196807,3.31030062 C11.9155462,3.31914534 11.9117143,3.32808944 11.9069748,3.33653665 C11.9013277,3.34627578 11.3247227,4.37415155 11.2169244,5.77052422 C11.2028067,5.95308323 11.0481176,6.09191553 10.865395,6.09191553 C10.8564202,6.09191553 10.8473445,6.09161739 10.8382689,6.09092174 C10.6438487,6.07631304 10.4983361,5.90925714 10.5130588,5.71775404 C10.5858655,4.77574161 10.8457311,3.99432547 11.0456975,3.51333168 L8.4294958,3.51333168 C8.62956303,3.99432547 8.88952941,4.77574161 8.96213445,5.71775404 C8.97705882,5.90925714 8.83144538,6.07631304 8.63712605,6.09092174 C8.62794958,6.09161739 8.61887395,6.09191553 8.60989916,6.09191553 C8.42717647,6.09191553 8.27248739,5.95308323 8.25836975,5.77052422 C8.15057143,4.37415155 7.57386555,3.34627578 7.56801681,3.33613913 C7.56347899,3.32808944 7.55994958,3.31964224 7.55611765,3.31139379 C7.55379832,3.30642484 7.55107563,3.30185342 7.54905882,3.29678509 C7.54189916,3.27949317 7.53655462,3.26180373 7.53242017,3.24371677 C7.53080672,3.23725714 7.52969748,3.23049938 7.52858824,3.22384099 C7.52586555,3.20813913 7.5242521,3.19223851 7.5237479,3.17633789 C7.52364706,3.17266087 7.52263866,3.16918261 7.52263866,3.16550559 C7.52263866,3.16411429 7.52304202,3.16292174 7.52304202,3.16153043 C7.5232437,3.14304596 7.52546218,3.12466087 7.52868908,3.10637516 C7.52989916,3.09902112 7.53141176,3.09186584 7.53312605,3.08461118 C7.5367563,3.06990311 7.54139496,3.05539379 7.54684034,3.04118261 C7.54996639,3.0332323 7.55339496,3.02558012 7.55712605,3.01792795 C7.56156303,3.00858634 7.56589916,2.99904596 7.5712437,2.99000248 C7.57305882,2.98692174 7.57537815,2.98413913 7.57739496,2.98115776 C7.58152941,2.97449938 7.58596639,2.96823851 7.59060504,2.96187826 C7.59917647,2.95025093 7.60835294,2.93931925 7.61813445,2.92898385 C7.62216807,2.92471056 7.62579832,2.92033789 7.63003361,2.91626335 C7.6427395,2.90403975 7.65655462,2.89320745 7.67097479,2.88307081 C7.67642017,2.87909565 7.68216807,2.87551801 7.68791597,2.87194037 C7.70122689,2.86359255 7.71504202,2.85623851 7.72946218,2.8496795 C7.73329412,2.84799006 7.73672269,2.84590311 7.74055462,2.84431304 C7.75860504,2.83695901 7.77736134,2.83159255 7.79652101,2.82721988 C7.80196639,2.82592795 7.80751261,2.82493416 7.81315966,2.82394037 C7.83352941,2.82026335 7.85420168,2.81777888 7.87537815,2.8176795 L7.87557983,2.8176795 L7.87568067,2.8176795 L11.5996134,2.8176795 L11.5997143,2.8176795 L11.599916,2.8176795 C11.6210924,2.81777888 11.6418655,2.82026335 11.6623361,2.82394037 C11.6676807,2.82493416 11.6730252,2.82592795 11.6783697,2.8271205 C11.6978319,2.83149317 11.7169916,2.83695901 11.7352437,2.8445118 C11.7380672,2.84570435 11.7405882,2.84719503 11.7433109,2.84838758 C11.7592437,2.85544348 11.7742689,2.86359255 11.7888908,2.87283478 C11.7936303,2.87581615 11.7983697,2.87879752 11.8030084,2.88197764 C11.8189412,2.89310807 11.8342689,2.90513292 11.8481849,2.91874783 C11.8498992,2.92043727 11.8512101,2.92222609 11.8528235,2.92391553 C11.8650252,2.93623851 11.8760168,2.94965466 11.8863025,2.96386584 C11.8900336,2.96883478 11.8934622,2.97390311 11.8967899,2.97907081 C11.8991092,2.9828472 11.9020336,2.98632547 11.9043529,2.99020124 C11.9108067,3.00103354 11.9160504,3.01226335 11.9211933,3.02349317 C11.9228067,3.02687205 11.9244202,3.03015155 11.9259328,3.03353043 C11.9331933,3.05092174 11.938437,3.06880994 11.9427731,3.08689689 C11.944084,3.09266087 11.9451933,3.09842484 11.9463025,3.1042882 C11.9499328,3.1240646 11.9523529,3.14394037 11.9524538,3.16391553 C11.9524538,3.1645118 11.9526555,3.1650087 11.9526555,3.16550559 C11.9526555,3.16749317 11.9520504,3.16938137 11.9520504,3.17126957 C11.9517479,3.18965466 11.9496303,3.20784099 11.9464034,3.22592795 C11.945395,3.23149317 11.9445882,3.23715776 11.9432773,3.2426236 C11.9389412,3.26120745 11.933395,3.27959255 11.9259328,3.29748075 Z M1.60801008,13.0346634 C2.12310252,12.8909615 2.65695126,12.6446012 2.82545546,12.5642037 C2.89100168,12.3317565 2.94837983,12.0897689 2.99365714,11.8399304 L0.999842017,12.8165267 C1.18316975,12.9647006 1.41157311,13.0896199 1.60801008,13.0346634 Z" transform="translate(2)"/>
</svg>
