<svg id="Calque_1" data-name="Calque 1" xmlns="http://www.w3.org/2000/svg" viewBox="0 0 24 24"><defs></defs><title>Salle de bains
 avec toilettes</title><path class="cls-1" d="M23.92,11.83a1.35,1.35,0,0,0-1.35-1.35h-.35v-7a.37.37,0,0,0-.38-.37H13.7a.37.37,0,0,0-.37.37v7H13a1.34,1.34,0,0,0-.42,2.62,5.21,5.21,0,0,0,2.15,4v4.29a.38.38,0,0,0,.37.38h5.38a.38.38,0,0,0,.38-.38V17.08a5.23,5.23,0,0,0,2.14-4A1.34,1.34,0,0,0,23.92,11.83Zm-9.84-8h7.39v6.64H14.08Zm6,17.16H15.46V17.53a5.21,5.21,0,0,0,1.94.52v1.57a.37.37,0,0,0,.37.38.38.38,0,0,0,.38-.38V18.05a5.32,5.32,0,0,0,1.94-.52Zm-2.32-3.66a4.48,4.48,0,0,1-4.45-4.16h8.91A4.48,4.48,0,0,1,17.77,17.34Zm4.8-4.91H13a.6.6,0,0,1-.6-.6.6.6,0,0,1,.6-.6h9.59a.6.6,0,0,1,.6.6A.6.6,0,0,1,22.57,12.43Z"/><path class="cls-1" d="M9.1,11.14H.55a.37.37,0,0,0-.38.37.38.38,0,0,0,.38.38H9.1a.79.79,0,0,1,0,1.58H.55a.38.38,0,1,0,0,.75h8c-.32,1.35-.54,2.18-.81,3l-.09.31c-.21.79-.36,1.32-2.17,1.32h-5a.37.37,0,0,0-.38.37.38.38,0,0,0,.38.38H3.81l.86,1.87a.38.38,0,0,0,.34.22H6.44a.37.37,0,0,0,.37-.38V19.5a2,2,0,0,0,1.61-1.73,2.45,2.45,0,0,1,.08-.29c.28-.92.51-1.8.87-3.29a1.54,1.54,0,0,0-.27-3ZM6.06,21H5.25l-.62-1.34h.89c.2,0,.37,0,.54,0Z"/><path class="cls-1" d="M6.74,9.38A1.45,1.45,0,1,0,5.29,7.94,1.45,1.45,0,0,0,6.74,9.38Zm0-2.14a.7.7,0,1,1-.7.7A.7.7,0,0,1,6.74,7.24Z"/><path class="cls-1" d="M3.15,6.41A1.74,1.74,0,1,0,1.41,4.68,1.74,1.74,0,0,0,3.15,6.41Zm0-2.72a1,1,0,1,1-1,1A1,1,0,0,1,3.15,3.69Z"/></svg>
