<svg viewBox="0 0 466 497" version="1.1" xmlns="http://www.w3.org/2000/svg" xmlns:xlink="http://www.w3.org/1999/xlink">
    <title>Combined Shape</title>
    <defs></defs>
    <g id="Page-1" stroke-width="1" fill-rule="evenodd">
        <g id="bathroom" fill-rule="nonzero">
            <path d="M68.8207429,15.7289822 L32.4825961,15.7288885 C23.3309962,15.8061213 15.9311213,23.2059962 15.8541667,32.2916667 L15.8541667,488.541667 C15.8541667,492.856391 12.3563913,496.354167 8.04166667,496.354167 C3.72694206,496.354167 0.229166667,492.856391 0.229166667,488.541667 L0.22944486,32.2257372 C0.378633693,14.5478021 14.6728021,0.253633693 32.4166667,0.104166667 L140.333333,0.104166667 C140.351654,0.104166667 140.36996,0.10422973 140.388251,0.104355651 L176.85844,0.104452029 C194.527576,0.255475789 208.771479,14.6221707 208.770833,32.2916667 L208.770833,59.375 C208.770833,63.6897246 205.273058,67.1875 200.958333,67.1875 C196.643609,67.1875 193.145833,63.6897246 193.145833,59.375 L193.145833,32.2913813 C193.146165,23.1991637 185.816779,15.8065926 176.791667,15.7291667 L68.875,15.7291667 C68.8568998,15.7291667 68.8388141,15.7291051 68.8207429,15.7289822 Z M132.520833,182.291667 C132.520833,177.976942 136.018609,174.479167 140.333333,174.479167 C144.648058,174.479167 148.145833,177.976942 148.145833,182.291667 L148.145833,195.416667 C148.145833,199.731391 144.648058,203.229167 140.333333,203.229167 C136.018609,203.229167 132.520833,199.731391 132.520833,195.416667 L132.520833,182.291667 Z M172.9375,182.291667 C172.9375,177.976942 176.435275,174.479167 180.75,174.479167 C185.064725,174.479167 188.5625,177.976942 188.5625,182.291667 L188.5625,195.416667 C188.5625,199.731391 185.064725,203.229167 180.75,203.229167 C176.435275,203.229167 172.9375,199.731391 172.9375,195.416667 L172.9375,182.291667 Z M213.5625,182.291667 C213.5625,177.976942 217.060275,174.479167 221.375,174.479167 C225.689725,174.479167 229.1875,177.976942 229.1875,182.291667 L229.1875,195.416667 C229.1875,199.731391 225.689725,203.229167 221.375,203.229167 C217.060275,203.229167 213.5625,199.731391 213.5625,195.416667 L213.5625,182.291667 Z M253.979167,182.291667 C253.979167,177.976942 257.476942,174.479167 261.791667,174.479167 C266.106391,174.479167 269.604167,177.976942 269.604167,182.291667 L269.604167,195.416667 C269.604167,199.731391 266.106391,203.229167 261.791667,203.229167 C257.476942,203.229167 253.979167,199.731391 253.979167,195.416667 L253.979167,182.291667 Z M132.520833,218.333333 C132.520833,214.018609 136.018609,210.520833 140.333333,210.520833 C144.648058,210.520833 148.145833,214.018609 148.145833,218.333333 L148.145833,231.458333 C148.145833,235.773058 144.648058,239.270833 140.333333,239.270833 C136.018609,239.270833 132.520833,235.773058 132.520833,231.458333 L132.520833,218.333333 Z M172.9375,218.333333 C172.9375,214.018609 176.435275,210.520833 180.75,210.520833 C185.064725,210.520833 188.5625,214.018609 188.5625,218.333333 L188.5625,231.458333 C188.5625,235.773058 185.064725,239.270833 180.75,239.270833 C176.435275,239.270833 172.9375,235.773058 172.9375,231.458333 L172.9375,218.333333 Z M213.5625,218.333333 C213.5625,214.018609 217.060275,210.520833 221.375,210.520833 C225.689725,210.520833 229.1875,214.018609 229.1875,218.333333 L229.1875,231.458333 C229.1875,235.773058 225.689725,239.270833 221.375,239.270833 C217.060275,239.270833 213.5625,235.773058 213.5625,231.458333 L213.5625,218.333333 Z M253.979167,218.333333 C253.979167,214.018609 257.476942,210.520833 261.791667,210.520833 C266.106391,210.520833 269.604167,214.018609 269.604167,218.333333 L269.604167,231.458333 C269.604167,235.773058 266.106391,239.270833 261.791667,239.270833 C257.476942,239.270833 253.979167,235.773058 253.979167,231.458333 L253.979167,218.333333 Z M132.520833,254.375 C132.520833,250.060275 136.018609,246.5625 140.333333,246.5625 C144.648058,246.5625 148.145833,250.060275 148.145833,254.375 L148.145833,267.5 C148.145833,271.814725 144.648058,275.3125 140.333333,275.3125 C136.018609,275.3125 132.520833,271.814725 132.520833,267.5 L132.520833,254.375 Z M172.9375,254.375 C172.9375,250.060275 176.435275,246.5625 180.75,246.5625 C185.064725,246.5625 188.5625,250.060275 188.5625,254.375 L188.5625,267.5 C188.5625,271.814725 185.064725,275.3125 180.75,275.3125 C176.435275,275.3125 172.9375,271.814725 172.9375,267.5 L172.9375,254.375 Z M213.5625,254.375 C213.5625,250.060275 217.060275,246.5625 221.375,246.5625 C225.689725,246.5625 229.1875,250.060275 229.1875,254.375 L229.1875,267.5 C229.1875,271.814725 225.689725,275.3125 221.375,275.3125 C217.060275,275.3125 213.5625,271.814725 213.5625,267.5 L213.5625,254.375 Z M253.979167,254.375 C253.979167,250.060275 257.476942,246.5625 261.791667,246.5625 C266.106391,246.5625 269.604167,250.060275 269.604167,254.375 L269.604167,267.5 C269.604167,271.814725 266.106391,275.3125 261.791667,275.3125 C257.476942,275.3125 253.979167,271.814725 253.979167,267.5 L253.979167,254.375 Z M107,158.854167 C102.685275,158.854167 99.1875,155.356391 99.1875,151.041667 C99.1875,146.726942 102.685275,143.229167 107,143.229167 L295.125,143.229167 C299.439725,143.229167 302.9375,146.726942 302.9375,151.041667 C302.9375,155.356391 299.439725,158.854167 295.125,158.854167 L107,158.854167 Z M200.955331,51.5625006 C247.232541,51.8471933 288.003294,81.9031381 301.948537,125.976546 C303.542033,131.012728 299.782269,136.145833 294.5,136.145833 L107,136.145833 C101.722734,136.145833 97.9635742,131.021773 99.5478694,125.987932 C113.484568,81.7063408 154.532378,51.5803427 200.955331,51.5625006 Z M118.328483,120.520833 L283.153272,120.520833 C268.644729,88.5370611 236.705991,67.4176538 200.93579,67.1875128 C165.005054,67.2113447 132.852519,88.3774765 118.328483,120.520833 Z M429.291667,405.3125 C440.855129,405.3125 450.229167,395.938462 450.229167,384.375 C450.229167,372.811538 440.855129,363.4375 429.291667,363.4375 C417.728205,363.4375 408.354167,372.811538 408.354167,384.375 C408.354167,395.938462 417.728205,405.3125 429.291667,405.3125 Z M429.291667,420.9375 C409.098756,420.9375 392.729167,404.567911 392.729167,384.375 C392.729167,364.182089 409.098756,347.8125 429.291667,347.8125 C449.484578,347.8125 465.854167,364.182089 465.854167,384.375 C465.854167,404.567911 449.484578,420.9375 429.291667,420.9375 Z M313.666667,454.6875 C325.230129,454.6875 334.604167,445.313462 334.604167,433.75 C334.604167,422.186538 325.230129,412.8125 313.666667,412.8125 C302.103205,412.8125 292.729167,422.186538 292.729167,433.75 C292.729167,445.313462 302.103205,454.6875 313.666667,454.6875 Z M313.666667,470.3125 C293.473756,470.3125 277.104167,453.942911 277.104167,433.75 C277.104167,413.557089 293.473756,397.1875 313.666667,397.1875 C333.859578,397.1875 350.229167,413.557089 350.229167,433.75 C350.229167,453.942911 333.859578,470.3125 313.666667,470.3125 Z M198.041667,418.4375 C209.605129,418.4375 218.979167,409.063462 218.979167,397.5 C218.979167,385.936538 209.605129,376.5625 198.041667,376.5625 C186.478205,376.5625 177.104167,385.936538 177.104167,397.5 C177.104167,409.063462 186.478205,418.4375 198.041667,418.4375 Z M198.041667,434.0625 C177.848756,434.0625 161.479167,417.692911 161.479167,397.5 C161.479167,377.307089 177.848756,360.9375 198.041667,360.9375 C218.234578,360.9375 234.604167,377.307089 234.604167,397.5 C234.604167,417.692911 218.234578,434.0625 198.041667,434.0625 Z M340.958333,347.8125 C356.77899,347.8125 369.604167,334.987324 369.604167,319.166667 C369.604167,303.34601 356.77899,290.520833 340.958333,290.520833 C325.137676,290.520833 312.3125,303.34601 312.3125,319.166667 C312.3125,334.987324 325.137676,347.8125 340.958333,347.8125 Z M340.958333,363.4375 C316.508227,363.4375 296.6875,343.616773 296.6875,319.166667 C296.6875,294.716561 316.508227,274.895833 340.958333,274.895833 C365.408439,274.895833 385.229167,294.716561 385.229167,319.166667 C385.229167,343.616773 365.408439,363.4375 340.958333,363.4375 Z" id="Combined-Shape"></path>
        </g>
    </g>
</svg>
