<svg id="Calque_1" data-name="Calque 1" xmlns="http://www.w3.org/2000/svg" viewBox="0 0 24 24"><defs></defs><title>Salle de bains</title><path class="cls-1" d="M23,13.2a.37.37,0,0,0-.29-.14H5.46V.86h5.21a1.63,1.63,0,0,1,1.62,1.62V3.62A4.81,4.81,0,0,0,8.14,7.27a.35.35,0,0,0,.06.33.38.38,0,0,0,.3.15h8.33a.39.39,0,0,0,.37-.48A4.83,4.83,0,0,0,13,3.62V2.48A2.37,2.37,0,0,0,10.67.11H5.08a.37.37,0,0,0-.37.37V13.06H1.31a.37.37,0,0,0-.36.46c.2.88.37,1.76.53,2.56.21,1.06.39,2,.59,2.63a3.57,3.57,0,0,1,.1.35,2.36,2.36,0,0,0,1.94,2.05v2.3a.37.37,0,0,0,.37.37H6.21a.37.37,0,0,0,.34-.21l1.06-2.31h8.78l1.06,2.31a.37.37,0,0,0,.34.21h1.73a.37.37,0,0,0,.37-.37v-2.3a2.36,2.36,0,0,0,1.94-2.05,3.57,3.57,0,0,1,.1-.35c.2-.66.38-1.57.59-2.63.15-.8.33-1.68.53-2.56A.37.37,0,0,0,23,13.2ZM16.31,7H9a4,4,0,0,1,3.65-2.67A4,4,0,0,1,16.31,7ZM6,23H4.86v-1.8c.23,0,.47,0,.74,0H6.79Zm13.17,0H18l-.81-1.77H18.4c.27,0,.51,0,.74,0Zm2.64-7.09c-.2,1-.38,1.92-.57,2.54,0,.13-.07.26-.1.38-.26,1-.45,1.65-2.71,1.65H5.6c-2.26,0-2.45-.69-2.71-1.65,0-.12-.06-.25-.1-.38a24.84,24.84,0,0,1-.57-2.54c-.13-.67-.27-1.4-.44-2.13H22.22C22.05,14.54,21.91,15.27,21.78,15.94Z"/><path class="cls-1" d="M10,9.48v1.46a.38.38,0,0,0,.75,0V9.48a.38.38,0,0,0-.75,0Z"/><path class="cls-1" d="M12.41,9.48v1.46a.38.38,0,0,0,.75,0V9.48a.38.38,0,0,0-.75,0Z"/><path class="cls-1" d="M14.88,9.48v1.46a.37.37,0,0,0,.74,0V9.48a.37.37,0,1,0-.74,0Z"/></svg>
