<svg id="Calque_1" data-name="Calque 1" xmlns="http://www.w3.org/2000/svg" viewBox="0 0 24 24"><defs></defs><title>Baignoire</title><path class="cls-1" d="M24,12.36a1.88,1.88,0,0,0-1.87-1.88H10.55V10a.37.37,0,0,0-.37-.37H5.12a.37.37,0,0,0-.38.37v.45H1.89A1.87,1.87,0,0,0,1,14c.49,2.07.8,3.25,1.18,4.48,0,.12.07.25.11.38A2.48,2.48,0,0,0,4.39,21v2.47a.38.38,0,0,0,.38.38H6.61A.39.39,0,0,0,7,23.67L8.08,21.2h7.84l1.13,2.47a.39.39,0,0,0,.34.22h1.84a.38.38,0,0,0,.38-.38V21a2.48,2.48,0,0,0,2.06-2.16c0-.13.07-.26.11-.38.38-1.23.69-2.41,1.18-4.48A1.88,1.88,0,0,0,24,12.36ZM5.49,10.41H9.8v6.44H5.49Zm-3.6.82H4.74v2.25H1.89a1.13,1.13,0,0,1,0-2.25ZM6.37,23.14H5.14v-2c.25,0,.51,0,.81,0h1.3Zm12.49,0H17.63l-.88-1.94h1.3c.3,0,.56,0,.81,0Zm2.2-4.86c0,.13-.07.27-.11.4-.28,1-.48,1.77-2.9,1.77H6c-2.42,0-2.62-.74-2.9-1.77,0-.13-.07-.27-.11-.4C2.59,17.14,2.3,16,1.86,14.23H4.74v3a.38.38,0,0,0,.38.38h5.06a.38.38,0,0,0,.37-.38v-3H22.14C21.7,16,21.41,17.14,21.06,18.28Zm1.05-4.8H10.55V11.23H22.11a1.13,1.13,0,0,1,0,2.25Z"/><path class="cls-1" d="M17.55,7A1.76,1.76,0,1,0,15.79,5.2,1.75,1.75,0,0,0,17.55,7Zm0-2.76a1,1,0,1,1-1,1A1,1,0,0,1,17.55,4.19Z"/><path class="cls-1" d="M12,9.32a1.76,1.76,0,1,0-1.76-1.75A1.76,1.76,0,0,0,12,9.32Zm0-2.76a1,1,0,1,1-1,1A1,1,0,0,1,12,6.56Z"/><path class="cls-1" d="M6.45,7.58A1.76,1.76,0,1,0,4.69,5.83,1.75,1.75,0,0,0,6.45,7.58Zm0-2.76a1,1,0,1,1-1,1A1,1,0,0,1,6.45,4.82Z"/><path class="cls-1" d="M13.31,4.31a2.13,2.13,0,1,0-2.13-2.12A2.13,2.13,0,0,0,13.31,4.31Zm0-3.5a1.38,1.38,0,1,1-1.38,1.38A1.38,1.38,0,0,1,13.31.81Z"/></svg>
