<svg viewBox="0 0 440 500" version="1.1" xmlns="http://www.w3.org/2000/svg" xmlns:xlink="http://www.w3.org/1999/xlink">
    <title>Bathrobe</title>
    <defs></defs>
    <g id="Page-1" stroke-width="1" fill-rule="evenodd">
        <g id="Bathrobe" fill-rule="nonzero">
            <path d="M428.965012,354.1585 L351.662844,354.1585 C345.79971,354.1585 340.975614,349.8235 340.64694,344.3335 L329.609832,156.8335 C329.25465,151.0935 333.935614,146.1685 340.005494,145.8585 C346.154892,145.5235 351.312964,149.9385 351.641638,155.6635 L362.100916,333.3385 L417.678746,333.3385 C414.985734,270.2535 390.568386,139.1585 379.76453,83.3985 C377.193446,70.2135 365.970796,60.0585 351.86959,58.1635 L293.185254,41.1885 C291.98188,40.8385 290.84212,40.2935 289.850796,39.5885 C289.559228,39.4135 262.660916,20.8385 230.169832,20.8385 C197.678747,20.8385 170.759229,39.4135 170.510072,39.6085 C169.26959,40.4685 167.85947,41.0935 166.348627,41.4035 L89.0464578,58.0085 C74.0334458,60.0785 62.832,70.2135 60.2609156,83.3985 C49.4093494,139.1785 25.0397108,270.3735 22.325494,333.3385 L98.2175422,333.3385 L108.692723,155.6635 C109.026699,149.9385 113.893205,145.4485 120.334169,145.8585 C126.398747,146.1685 131.079711,151.0935 130.729831,156.8335 L119.692723,344.3335 C119.358747,349.8235 114.534651,354.1585 108.676819,354.1585 L11.0392289,354.1585 C4.94814458,354.1585 0.00212048192,349.4885 0.00212048192,343.7485 C0.00212048192,286.5435 24.1438072,153.7285 38.5153734,79.6485 C42.8040482,57.6385 61.4801928,40.7035 85.0069398,37.5385 L159.287422,21.5435 C167.027181,16.5835 195.399229,-0.00149999999 230.169832,-0.00149999999 C265.512964,-0.00149999999 294.218988,17.1285 301.386216,21.7985 L356.677784,37.9285 C378.502844,40.7435 397.178988,57.6585 401.467662,79.6685 C413.045494,139.2585 439.986216,284.2985 439.986216,343.7685 C440.007422,349.4885 435.056096,354.1585 428.965012,354.1585 Z" id="Fill-1"></path>
            <path d="M230.169832,499.9985 C179.601639,499.9985 98.238747,479.6685 94.7823614,478.8085 C89.6030844,477.5185 86.1679036,472.9085 86.6238072,467.8885 L97.6609156,342.8885 C98.138024,337.1685 103.290795,332.8685 109.588627,333.3785 C115.653205,333.8635 120.169831,338.8835 119.671518,344.6285 L109.403084,460.8385 C131.933205,466.0735 191.88453,479.1585 230.169832,479.1585 C268.497542,479.1585 328.427662,466.0735 350.915374,460.8185 L340.641638,344.6085 C340.127422,338.8835 344.638746,333.8485 350.729832,333.3585 C356.815614,332.8285 362.138024,337.1285 362.657542,342.8685 L373.69465,467.8685 C374.150554,472.8885 370.710072,477.4985 365.536096,478.7885 C362.095614,479.6685 280.71682,499.9985 230.169832,499.9985 Z" id="Fill-4"></path>
            <path d="M230.169832,229.1585 C225.552482,229.1585 221.242602,226.4035 219.68935,222.0285 L153.424289,34.5285 C151.478747,29.0785 154.627663,23.1835 160.405976,21.3635 C166.242602,19.5485 172.43441,22.4985 174.364048,27.9485 L240.629108,215.4485 C242.553446,220.8985 239.425734,226.7935 233.647422,228.6135 C232.486458,229.0035 231.30959,229.1585 230.169832,229.1585" id="Fill-6"></path>
            <path d="M208.07494,291.6585 C206.93518,291.6585 205.758314,291.4835 204.576144,291.1135 C198.797831,289.2935 195.67012,283.3985 197.594458,277.9485 L285.95494,27.9485 C287.884578,22.4985 294.05518,19.5285 299.913012,21.3635 C305.691326,23.1835 308.819036,29.0785 306.894698,34.5285 L218.534216,284.5285 C217.002168,288.9235 212.69229,291.6585 208.07494,291.6585" id="Fill-8"></path>
            <path d="M208.07494,416.6585 C189.812289,416.6585 174.94241,402.6335 174.94241,385.4085 L174.94241,302.0685 C174.94241,284.8435 189.812289,270.8185 208.07494,270.8185 C226.33759,270.8185 241.20747,284.8435 241.20747,302.0685 L241.20747,385.4085 C241.20747,402.6335 226.33759,416.6585 208.07494,416.6585 M208.07494,291.6585 C201.989156,291.6585 197.037831,296.3285 197.037831,302.0685 L197.037831,385.4085 C197.037831,391.1485 201.989156,395.8185 208.07494,395.8185 C214.160722,395.8185 219.112048,391.1485 219.112048,385.4085 L219.112048,302.0685 C219.112048,296.3285 214.160722,291.6585 208.07494,291.6585" id="Fill-10"></path>
            <path d="M252.244578,374.9985 C233.981928,374.9985 219.112048,360.9735 219.112048,343.7485 L219.112048,302.0885 C219.112048,284.8635 233.981928,270.8385 252.244578,270.8385 C270.507228,270.8385 285.377108,284.8635 285.377108,302.0885 L285.377108,343.7485 C285.377108,360.9735 270.507228,374.9985 252.244578,374.9985 M252.244578,291.6585 C246.158796,291.6585 241.20747,296.3285 241.20747,302.0685 L241.20747,343.7285 C241.20747,349.4735 246.158796,354.1385 252.244578,354.1385 C258.330362,354.1385 263.281686,349.4735 263.281686,343.7285 L263.281686,302.0685 C263.302892,296.3285 258.351566,291.6585 252.244578,291.6585" id="Fill-12"></path>
            <path d="M185.979518,354.1585 L108.677349,354.1585 C102.591566,354.1585 97.640241,349.4885 97.640241,343.7485 C97.640241,338.0085 102.591566,333.3385 108.677349,333.3385 L185.979518,333.3385 C192.065301,333.3385 197.016627,338.0085 197.016627,343.7485 C197.037831,349.4885 192.086506,354.1585 185.979518,354.1585" id="Fill-14"></path>
            <path d="M351.642168,354.1585 L274.34,354.1585 C268.254216,354.1585 263.302892,349.4885 263.302892,343.7485 C263.302892,338.0085 268.254216,333.3385 274.34,333.3385 L351.642168,333.3385 C357.727952,333.3385 362.679278,338.0085 362.679278,343.7485 C362.700482,349.4885 357.749156,354.1585 351.642168,354.1585" id="Fill-16"></path>
            <path d="M340.60506,312.4985 L274.34,312.4985 C268.254216,312.4985 263.302892,307.8285 263.302892,302.0885 C263.302892,296.3485 268.254216,291.6785 274.34,291.6785 L340.60506,291.6785 C346.690844,291.6785 351.642168,296.3485 351.642168,302.0885 C351.642168,307.8285 346.690844,312.4985 340.60506,312.4985" id="Fill-18"></path>
            <path d="M185.979518,312.4985 L119.714458,312.4985 C113.628675,312.4985 108.677349,307.8285 108.677349,302.0885 C108.677349,296.3285 113.628675,291.6585 119.714458,291.6585 L185.979518,291.6585 C192.065301,291.6585 197.016627,296.3285 197.016627,302.0685 C197.037831,307.8285 192.086506,312.4985 185.979518,312.4985" id="Fill-20"></path>
            <path d="M208.07494,489.5885 C201.989156,489.5885 197.037831,484.9185 197.037831,479.1785 L197.037831,406.2685 C197.037831,400.5285 201.989156,395.8585 208.07494,395.8585 C214.160722,395.8585 219.112048,400.5285 219.112048,406.2685 L219.112048,479.1585 C219.112048,484.9185 214.160722,489.5885 208.07494,489.5885" id="Fill-22"></path>
        </g>
    </g>
</svg>
