<svg viewBox="0 0 466 476" version="1.1" xmlns="http://www.w3.org/2000/svg" xmlns:xlink="http://www.w3.org/1999/xlink">
    <title>beachtowel</title>
    <defs></defs>
    <g id="Page-1" stroke-width="1" fill-rule="evenodd">
        <g id="beachtowel" transform="translate(-14.000000, -11.000000)" fill-rule="nonzero">
            <path d="M30,476.25 C25.6277457,476.25 22.0833333,472.705588 22.0833333,468.333333 C22.0833333,463.961079 25.6277457,460.416667 30,460.416667 C34.3722543,460.416667 37.9166667,463.961079 37.9166667,468.333333 C37.9166667,472.705588 34.3722543,476.25 30,476.25 Z M30,417.916667 C25.6277457,417.916667 22.0833333,414.372254 22.0833333,410 C22.0833333,405.627746 25.6277457,402.083333 30,402.083333 C34.3722543,402.083333 37.9166667,405.627746 37.9166667,410 C37.9166667,414.372254 34.3722543,417.916667 30,417.916667 Z M30,359.583333 C25.6277457,359.583333 22.0833333,356.038921 22.0833333,351.666667 C22.0833333,347.294412 25.6277457,343.75 30,343.75 C34.3722543,343.75 37.9166667,347.294412 37.9166667,351.666667 C37.9166667,356.038921 34.3722543,359.583333 30,359.583333 Z M30,301.25 C25.6277457,301.25 22.0833333,297.705588 22.0833333,293.333333 C22.0833333,288.961079 25.6277457,285.416667 30,285.416667 C34.3722543,285.416667 37.9166667,288.961079 37.9166667,293.333333 C37.9166667,297.705588 34.3722543,301.25 30,301.25 Z M81.875,476.25 C77.5027457,476.25 73.9583333,472.705588 73.9583333,468.333333 C73.9583333,463.961079 77.5027457,460.416667 81.875,460.416667 C86.2472543,460.416667 89.7916667,463.961079 89.7916667,468.333333 C89.7916667,472.705588 86.2472543,476.25 81.875,476.25 Z M81.875,417.916667 C77.5027457,417.916667 73.9583333,414.372254 73.9583333,410 C73.9583333,405.627746 77.5027457,402.083333 81.875,402.083333 C86.2472543,402.083333 89.7916667,405.627746 89.7916667,410 C89.7916667,414.372254 86.2472543,417.916667 81.875,417.916667 Z M81.875,359.583333 C77.5027457,359.583333 73.9583333,356.038921 73.9583333,351.666667 C73.9583333,347.294412 77.5027457,343.75 81.875,343.75 C86.2472543,343.75 89.7916667,347.294412 89.7916667,351.666667 C89.7916667,356.038921 86.2472543,359.583333 81.875,359.583333 Z M133.541667,476.25 C129.169412,476.25 125.625,472.705588 125.625,468.333333 C125.625,463.961079 129.169412,460.416667 133.541667,460.416667 C137.913921,460.416667 141.458333,463.961079 141.458333,468.333333 C141.458333,472.705588 137.913921,476.25 133.541667,476.25 Z M133.541667,417.916667 C129.169412,417.916667 125.625,414.372254 125.625,410 C125.625,405.627746 129.169412,402.083333 133.541667,402.083333 C137.913921,402.083333 141.458333,405.627746 141.458333,410 C141.458333,414.372254 137.913921,417.916667 133.541667,417.916667 Z M185.416667,476.25 C181.044412,476.25 177.5,472.705588 177.5,468.333333 C177.5,463.961079 181.044412,460.416667 185.416667,460.416667 C189.788921,460.416667 193.333333,463.961079 193.333333,468.333333 C193.333333,472.705588 189.788921,476.25 185.416667,476.25 Z M471.25,34.375 C466.877746,34.375 463.333333,30.8305876 463.333333,26.4583333 C463.333333,22.0860791 466.877746,18.5416667 471.25,18.5416667 C475.622254,18.5416667 479.166667,22.0860791 479.166667,26.4583333 C479.166667,30.8305876 475.622254,34.375 471.25,34.375 Z M471.25,92.7083333 C466.877746,92.7083333 463.333333,89.1639209 463.333333,84.7916667 C463.333333,80.4194124 466.877746,76.875 471.25,76.875 C475.622254,76.875 479.166667,80.4194124 479.166667,84.7916667 C479.166667,89.1639209 475.622254,92.7083333 471.25,92.7083333 Z M471.25,151.041667 C466.877746,151.041667 463.333333,147.497254 463.333333,143.125 C463.333333,138.752746 466.877746,135.208333 471.25,135.208333 C475.622254,135.208333 479.166667,138.752746 479.166667,143.125 C479.166667,147.497254 475.622254,151.041667 471.25,151.041667 Z M471.25,209.375 C466.877746,209.375 463.333333,205.830588 463.333333,201.458333 C463.333333,197.086079 466.877746,193.541667 471.25,193.541667 C475.622254,193.541667 479.166667,197.086079 479.166667,201.458333 C479.166667,205.830588 475.622254,209.375 471.25,209.375 Z M419.375,34.375 C415.002746,34.375 411.458333,30.8305876 411.458333,26.4583333 C411.458333,22.0860791 415.002746,18.5416667 419.375,18.5416667 C423.747254,18.5416667 427.291667,22.0860791 427.291667,26.4583333 C427.291667,30.8305876 423.747254,34.375 419.375,34.375 Z M419.375,92.7083333 C415.002746,92.7083333 411.458333,89.1639209 411.458333,84.7916667 C411.458333,80.4194124 415.002746,76.875 419.375,76.875 C423.747254,76.875 427.291667,80.4194124 427.291667,84.7916667 C427.291667,89.1639209 423.747254,92.7083333 419.375,92.7083333 Z M419.375,151.041667 C415.002746,151.041667 411.458333,147.497254 411.458333,143.125 C411.458333,138.752746 415.002746,135.208333 419.375,135.208333 C423.747254,135.208333 427.291667,138.752746 427.291667,143.125 C427.291667,147.497254 423.747254,151.041667 419.375,151.041667 Z M367.708333,34.375 C363.336079,34.375 359.791667,30.8305876 359.791667,26.4583333 C359.791667,22.0860791 363.336079,18.5416667 367.708333,18.5416667 C372.080588,18.5416667 375.625,22.0860791 375.625,26.4583333 C375.625,30.8305876 372.080588,34.375 367.708333,34.375 Z M367.708333,92.7083333 C363.336079,92.7083333 359.791667,89.1639209 359.791667,84.7916667 C359.791667,80.4194124 363.336079,76.875 367.708333,76.875 C372.080588,76.875 375.625,80.4194124 375.625,84.7916667 C375.625,89.1639209 372.080588,92.7083333 367.708333,92.7083333 Z M315.833333,34.375 C311.461079,34.375 307.916667,30.8305876 307.916667,26.4583333 C307.916667,22.0860791 311.461079,18.5416667 315.833333,18.5416667 C320.205588,18.5416667 323.75,22.0860791 323.75,26.4583333 C323.75,30.8305876 320.205588,34.375 315.833333,34.375 Z" id="Combined-Shape"></path>
            <path d="M48.7932417,187.700979 L293.602236,450.226485 L444.443937,309.564323 L199.634943,47.0388176 L48.7932417,187.700979 Z M462.710543,306.971556 L468.924946,313.515902 L476.63328,322.057569 C483.612077,329.79083 472.012184,340.259026 465.033387,332.525764 L457.392058,324.058346 L454.770665,321.298985 L442.94769,332.324088 L445.455725,335.035811 L453.372391,343.369145 C460.546865,350.921222 449.218749,361.682933 442.044275,354.130855 L434.127609,345.797522 L434.056515,345.721682 L431.520535,342.980083 L419.838753,353.873521 L422.466613,356.640902 L430.174946,365.182569 C437.153743,372.91583 425.553851,383.384026 418.575054,375.650764 L410.933725,367.183346 L408.412122,364.529027 L396.663164,375.485107 L399.276819,378.236651 L406.985152,386.569985 C414.058506,394.216854 402.588202,404.826885 395.514848,397.180015 L387.841809,388.884838 L385.235611,386.141472 L373.263155,397.305968 L377.594371,401.865687 L385.302705,410.199021 C392.376059,417.84589 380.905755,428.455921 373.832401,420.809052 L366.159362,412.513875 L361.835494,407.962435 L350.304614,418.715155 L352.818485,421.361651 L360.526819,429.694985 C367.600173,437.341854 356.129869,447.951885 349.056515,440.305015 L341.383476,432.009838 L338.877068,429.371514 L327.083697,440.36901 L329.414058,442.952478 L337.330725,451.285811 C344.505198,458.837889 333.177082,469.599599 326.002609,462.047522 L318.085942,453.714189 L317.950054,453.567431 L315.656068,451.025446 L303.980019,461.913538 L306.354924,464.481005 L314.271591,473.022672 C321.352473,480.662571 309.892624,491.283894 302.811742,483.643995 L294.895076,475.102328 L287.181515,466.763349 C286.561743,466.093325 286.084338,465.400552 285.733867,464.699304 L32.0377279,192.643503 C31.7226994,192.305676 31.4433754,191.947357 31.1995935,191.573195 L24.1281231,184.129542 L23.9922349,183.982784 L16.2839016,175.441117 C9.30510448,167.707856 20.9049969,157.23966 27.883794,164.972922 L35.4562392,173.367831 L38.1792686,176.234178 L49.932475,165.274136 L47.4609419,162.672522 L47.3250538,162.525764 L39.6167204,153.984098 C32.6379233,146.250836 44.2378158,135.782641 51.2166129,143.515902 L58.7890581,151.910811 L61.3603677,154.617453 L73.1846843,143.5911 L70.7584761,140.968172 L62.8776086,132.672522 C55.703135,125.120444 67.0312512,114.358734 74.2057247,121.910811 L82.1934852,130.319985 L84.6121789,132.934788 L96.3631289,121.97685 L93.8534091,119.268995 L86.1398481,110.930015 C79.0664942,103.283146 90.5367979,92.6731154 97.6101519,100.319985 L105.313258,108.647672 L107.790584,111.320576 L119.921594,100.008227 L116.953024,96.7187308 L109.277306,88.4206572 C102.203952,80.773788 113.674256,70.163757 120.74761,77.8106262 L128.520738,86.2148772 L131.350519,89.3505811 L142.574887,78.8836883 L140.065566,76.1030892 L132.389848,67.8050155 C125.316494,60.1581463 136.786798,49.5481154 143.860152,57.1949845 L151.63328,65.5992355 L154.003813,68.2260428 L164.892636,58.0720513 L161.578628,54.3997729 L153.730845,46.1389485 C146.556372,38.586871 157.884488,27.8251607 165.058961,35.3772381 L173.111516,43.8573288 L176.321561,47.4144058 L189.049274,35.5456215 L186.767058,33.0166796 L178.919275,24.7558552 C171.744802,17.2037777 183.072918,6.4420674 190.247391,13.9941448 L198.299946,22.4742355 L205.336771,30.2717985 C205.472878,30.3984443 205.605471,30.5308127 205.734232,30.6688925 L461.199451,304.6218 C461.859289,305.32939 462.362489,306.126882 462.710543,306.971556 Z" id="Combined-Shape"></path>
            <path d="M246.140559,402.995364 L230.526108,402.421303 L231.567775,374.08797 C231.726554,369.769161 235.36151,366.399765 239.679943,366.568454 L258.547367,367.305462 L259.277076,349.06275 C259.448404,344.779551 263.039008,341.434362 267.323604,341.566196 L286.599994,342.159315 L287.191253,323.091202 C287.325683,318.755829 290.966007,315.359903 295.300259,315.526605 L314.606363,316.269148 L315.527798,294.461855 C315.709538,290.160685 319.336549,286.817084 323.638277,286.98512 L342.46496,287.720538 L343.025555,271.603425 C343.175448,267.294001 346.788457,263.920898 351.098012,264.066985 L367.848885,264.634811 L368.441196,245.384729 C368.574418,241.054995 372.204981,237.660245 376.533903,237.81766 L399.45057,238.650994 L398.882763,254.265673 L383.817187,253.717834 L383.225471,272.948604 C383.09248,277.270823 379.47377,280.66285 375.151988,280.516349 L358.369777,279.94746 L357.807778,296.104908 C357.657338,300.430063 354.019529,303.808804 349.695057,303.63988 L330.810106,302.902186 L329.888869,324.704811 C329.707206,329.004154 326.083074,332.347113 321.783075,332.181728 L302.564806,331.442564 L301.975414,350.450465 C301.84171,354.76239 298.238353,358.149813 293.926396,358.017138 L274.580206,357.42187 L273.847924,375.728917 C273.675587,380.037341 270.045307,383.391517 265.736723,383.223213 L246.894536,382.48719 L246.140559,402.995364 Z" id="Shape"></path>
            <path d="M120.515559,265.28703 L104.901108,264.71297 L105.91745,237.068474 C106.075355,232.773448 109.672865,229.412572 113.968697,229.546817 L132.246299,230.117992 L132.953108,212.447785 C133.125371,208.14119 136.75277,204.787659 141.059624,204.953307 L159.619444,205.667146 L160.188577,187.312628 C160.322979,182.978151 163.961889,179.582547 168.295294,179.747944 L187.093546,180.465435 L187.834157,159.432079 C187.985566,155.132086 191.585283,151.763916 195.88584,151.898308 L214.125378,152.468294 L214.665545,137.073524 C214.816719,132.765075 218.429293,129.393408 222.737919,129.539463 L238.951071,130.089061 L239.668519,111.435408 C239.834141,107.129241 243.4553,103.770387 247.761752,103.928422 L269.918001,104.741495 L269.344993,120.355985 L254.982245,119.828911 L254.265633,138.46081 C254.100339,142.75846 250.492585,146.114274 246.194227,145.968567 L230.007307,145.419858 L229.467862,160.794024 C229.316972,165.094411 225.71708,168.463162 221.416146,168.328758 L203.175648,167.758742 L202.433139,188.846019 C202.280989,193.167077 198.648097,196.542825 194.327507,196.377917 L175.562201,195.661684 L174.992997,214.018508 C174.858567,218.353881 171.218243,221.749807 166.883992,221.583105 L148.253852,220.866561 L147.549281,238.480829 C147.377895,242.765489 143.784996,246.111204 139.499002,245.977266 L121.246447,245.406874 L120.515559,265.28703 Z" id="Shape"></path>
        </g>
    </g>
</svg>
