<svg xmlns="http://www.w3.org/2000/svg" viewBox="0 0 500 476.5"><g><path d="M363 179.5c-29.6 0-53.6-24.1-53.6-53.6 0-29.6 24.1-53.6 53.6-53.6 29.6 0 53.6 24.1 53.6 53.6s-24.1 53.6-53.6 53.6zm0-80.7c-14.9 0-27 12.1-27 27s12.1 27 27 27 27-12.1 27-27c0-14.8-12.1-27-27-27zM392.5 60.7c-1.5 0-2.9-.2-4.4-.7-6.9-2.4-10.6-10-8.2-16.9L391.8 9c2.4-6.9 10-10.6 16.9-8.2 6.9 2.4 10.6 10 8.2 16.9L405 51.8c-1.8 5.4-7 8.9-12.5 8.9zM328.4 62.8c-4.9 0-9.7-2.8-12-7.5l-15.7-32.5c-3.2-6.6-.4-14.6 6.2-17.8 6.6-3.2 14.6-.4 17.8 6.2l15.7 32.5c3.2 6.6.4 14.6-6.2 17.8-1.9.8-3.9 1.3-5.8 1.3zM284.5 109.6c-1.5 0-2.9-.2-4.4-.7L246 97c-6.9-2.4-10.6-10-8.2-16.9 2.4-6.9 10-10.6 16.9-8.2l34.1 11.9c6.9 2.4 10.6 10 8.2 16.9-1.9 5.5-7 8.9-12.5 8.9zM254.1 189.4c-4.9 0-9.7-2.8-12-7.5-3.2-6.6-.4-14.6 6.2-17.8l32.5-15.7c6.6-3.2 14.6-.4 17.8 6.2s.4 14.6-6.2 17.8l-32.5 15.7c-1.9.9-3.9 1.3-5.8 1.3zM321.5 251.7c-1.5 0-2.9-.2-4.4-.7-6.9-2.4-10.6-10-8.2-16.9l11.9-34.1c2.4-6.9 10-10.6 16.9-8.2 6.9 2.4 10.6 10 8.2 16.9L334 242.8c-1.9 5.5-7 8.9-12.5 8.9zM413.2 248.1c-4.9 0-9.7-2.8-12-7.5L385.6 208c-3.2-6.6-.4-14.6 6.2-17.8 6.6-3.2 14.6-.4 17.8 6.2l15.7 32.5c3.2 6.6.4 14.6-6.2 17.8-1.9.9-3.9 1.4-5.9 1.4zM475.5 180.6c-1.5 0-2.9-.2-4.4-.7l-34-11.9c-6.9-2.4-10.6-10-8.2-16.9 2.4-6.9 10-10.6 16.9-8.2l34.1 11.9c6.9 2.4 10.6 10 8.2 16.9-1.9 5.5-7.1 8.9-12.6 8.9zM439.4 104.6c-4.9 0-9.7-2.8-12-7.5-3.2-6.6-.4-14.6 6.2-17.8l32.5-15.7c6.6-3.2 14.6-.4 17.8 6.2 3.2 6.6.4 14.6-6.2 17.8l-32.5 15.7c-1.9.8-3.9 1.3-5.8 1.3zM439.6 392c-24.4 0-39.7-7.3-53.1-13.7-12.5-6-23.3-11.1-41.7-11.1-18.4 0-29.2 5.2-41.7 11.1-13.5 6.4-28.7 13.7-53.1 13.7s-39.7-7.3-53.1-13.7c-12.5-6-23.3-11.1-41.7-11.1-18.4 0-29.2 5.2-41.7 11.1C100 384.7 84.8 392 60.4 392c-24.4 0-39.5-7.2-52.8-13.6-6.6-3.2-9.4-11.1-6.3-17.7 3.2-6.6 11.1-9.4 17.7-6.3 11.8 5.6 23 11 41.4 11s29.2-5.2 41.7-11.1c13.5-6.4 28.7-13.7 53.1-13.7s39.7 7.3 53.1 13.7c12.5 6 23.3 11.1 41.7 11.1 18.4 0 29.2-5.2 41.7-11.1 13.5-6.4 28.7-13.7 53.1-13.7 24.4 0 39.7 7.3 53.1 13.7 12.5 6 23.3 11.1 41.7 11.1 18.4 0 29.6-5.3 41.4-11 6.6-3.2 14.6-.4 17.7 6.3 3.2 6.6.4 14.6-6.3 17.7-13.3 6.4-28.4 13.6-52.8 13.6zM439.6 476.5c-24.4 0-39.7-7.3-53.1-13.7-12.5-6-23.3-11.1-41.7-11.1-18.4 0-29.2 5.2-41.7 11.1-13.5 6.4-28.7 13.7-53.1 13.7s-39.7-7.3-53.1-13.7c-12.5-6-23.3-11.1-41.7-11.1s-29.2 5.2-41.7 11.1c-13.5 6.4-28.7 13.7-53.1 13.7-24.4 0-39.5-7.2-52.8-13.6-6.6-3.2-9.4-11.1-6.3-17.7 3.2-6.6 11.1-9.4 17.7-6.3 11.8 5.6 23 11 41.4 11s29.2-5.2 41.7-11.1c13.5-6.4 28.7-13.7 53.1-13.7 24.4 0 39.7 7.3 53.1 13.7 12.5 6 23.3 11.1 41.7 11.1s29.2-5.2 41.7-11.1c13.5-6.4 28.7-13.7 53.1-13.7s39.7 7.3 53.1 13.7c12.5 6 23.3 11.1 41.7 11.1 18.4 0 29.6-5.3 41.4-11 6.6-3.2 14.6-.4 17.7 6.3 3.2 6.6.4 14.6-6.3 17.7-13.3 6.4-28.4 13.6-52.8 13.6z"/></g></svg>
