<svg version="1.1" id="Calque_1" xmlns="http://www.w3.org/2000/svg" xmlns:xlink="http://www.w3.org/1999/xlink" x="0px" y="0px"
	 viewBox="0 0 500 500" style="enable-background:new 0 0 500 500;" xml:space="preserve">
<g id="Page-1">
	<g id="Icone" transform="translate(-507.000000, -1177.000000)">
		<g id="miror" transform="translate(507.000000, 1177.000000)">
			<path id="Shape" class="st0" d="M75,151.5h16.1C95,67.2,164.7,0,250,0s155,67.2,158.9,151.5H425c3.5-17.3,18.8-30.3,37.1-30.3
				c20.9,0,37.9,17,37.9,37.9c0,19.4-14.6,35.5-33.5,37.6c-17.4,101-103.8,178.4-208.9,181.9l0,106.2H306c4.2,0,7.6,3.4,7.6,7.6
				c0,4.2-3.4,7.6-7.6,7.6H194.5c-4.2,0-7.6-3.4-7.6-7.6c0-4.2,3.4-7.6,7.6-7.6h47.9V378.7c-105.1-3.6-191.5-80.9-208.9-181.9
				C14.6,194.6,0,178.5,0,159.1c0-20.9,17-37.9,37.9-37.9C56.2,121.2,71.5,134.2,75,151.5z M250,303c79.5,0,143.9-64.4,143.9-143.9
				S329.5,15.2,250,15.2S106.1,79.6,106.1,159.1S170.5,303,250,303z M37.9,181.8c12.6,0,22.7-10.2,22.7-22.7s-10.2-22.7-22.7-22.7
				s-22.7,10.2-22.7,22.7S25.3,181.8,37.9,181.8z M462.1,181.8c12.6,0,22.7-10.2,22.7-22.7s-10.2-22.7-22.7-22.7
				c-12.6,0-22.7,10.2-22.7,22.7S449.6,181.8,462.1,181.8z M451.3,195.4c-13.3-3.9-23.5-15-26.3-28.7h-16.1
				C405,251,335.3,318.2,250,318.2S95,251,91.1,166.7l-16.1,0c-2.8,13.8-13,24.8-26.3,28.7C65.8,291.1,149.4,363.6,250,363.6
				S434.2,291.1,451.3,195.4z M297.7,100.7c3-3,7.8-3,10.7,0c3,3,3,7.8,0,10.7L202.3,217.5c-3,3-7.8,3-10.7,0c-3-3-3-7.8,0-10.7
				L297.7,100.7z M229.5,93.1c3-3,7.8-3,10.7,0c3,3,3,7.8,0,10.7l-45.5,45.5c-3,3-7.8,3-10.7,0c-3-3-3-7.8,0-10.7L229.5,93.1z
				 M305.2,168.9c3-3,7.8-3,10.7,0c3,3,3,7.8,0,10.7l-45.5,45.5c-3,3-7.8,3-10.7,0c-3-3-3-7.8,0-10.7L305.2,168.9z"/>
		</g>
	</g>
</g>
</svg>
