<svg version="1.1" id="Calque_1" xmlns="http://www.w3.org/2000/svg" xmlns:xlink="http://www.w3.org/1999/xlink" x="0px" y="0px"
	 viewBox="0 0 500 500" style="enable-background:new 0 0 500 500;" xml:space="preserve">
<g id="Page-1">
	<g id="Icone" transform="translate(-521.000000, -168.000000)">
		<g id="service-de-couverture" transform="translate(522.000000, 168.000000)">
			<path class="st0" d="M398.1,500H99.9c-27.6,0-50.1-22.5-50.1-50.1V175.1c0-4.4,3.5-7.9,7.9-7.9s7.9,3.5,7.9,7.9v274.9
				c0,18.9,15.4,34.3,34.3,34.3h298.3c18.9,0,34.3-15.4,34.3-34.3V249.7c0-4.4,3.5-7.9,7.9-7.9s7.9,3.5,7.9,7.9v200.2
				C448.2,477.5,425.7,500,398.1,500z"/>
			<path class="st0" d="M418.8,264.6c-4.4,0-7.9-3.5-7.9-7.9V50.1c0-18.9-15.4-34.3-34.3-34.3H121.4c-18.9,0-34.3,15.4-34.3,34.3
				V170c0,4.4-3.5,7.9-7.9,7.9s-7.9-3.5-7.9-7.9V50.1C71.3,22.5,93.8,0,121.4,0h255.3c27.6,0,50.1,22.5,50.1,50.1v206.6
				C426.7,261,423.1,264.6,418.8,264.6z"/>
			<path class="st0" d="M383.5,268.4c-51.1,0-97.2-23.8-142.2-47c-59.1-30.5-114.9-59.2-181.3-38.8c-4.1,1.3-8.6-1-9.9-5.2
				c-1.3-4.2,1-8.6,5.2-9.9c72.5-22.4,133.9,9.2,193.2,39.8c61.5,31.7,119.5,61.6,188.9,35c4.1-1.5,8.6,0.5,10.2,4.5
				c1.5,4.1-0.5,8.7-4.5,10.2C422.4,265,402.6,268.3,383.5,268.4z"/>
			<path class="st0" d="M384,339.2c-51.2,0-97.4-23.9-142.5-47.2c-59.1-30.6-115-59.4-181.5-38.9c-4.1,1.3-8.6-1-9.9-5.2
				c-1.3-4.2,1-8.6,5.2-9.9c72.6-22.4,134,9.3,193.4,40c61.4,31.7,119.3,61.7,188.7,35.4c4.1-1.5,8.7,0.5,10.2,4.6
				c1.5,4.1-0.5,8.6-4.6,10.2C422.6,335.9,403,339.2,384,339.2z"/>
			<path class="st0" d="M197.9,140.4H158c-23.1,0-41.8-18.8-41.8-41.8V84.6c0-23.1,18.8-41.8,41.8-41.8h39.8
				c23.1,0,41.8,18.8,41.8,41.8v13.9C239.7,121.6,221,140.4,197.9,140.4z M158,58.6c-14.3,0-26,11.7-26,26v13.9
				c0,14.3,11.7,26,26,26h39.8c14.3,0,26-11.7,26-26V84.6c0-14.4-11.7-26-26-26H158z"/>
			<path class="st0" d="M340,140.4h-41.7c-23.1,0-41.8-18.8-41.8-41.8V84.6c0-23.1,18.8-41.8,41.8-41.8H340
				c23.1,0,41.8,18.8,41.8,41.8v13.9C381.8,121.6,363,140.4,340,140.4z M298.2,58.6c-14.3,0-26,11.7-26,26v13.9
				c0,14.3,11.7,26,26,26H340c14.3,0,26-11.7,26-26V84.6c0-14.4-11.7-26-26-26H298.2z"/>
		</g>
	</g>
</g>
</svg>
