<svg version="1.1"
	 xmlns="http://www.w3.org/2000/svg" xmlns:xlink="http://www.w3.org/1999/xlink"
	 x="0px" y="0px" viewBox="0 0 481 353.5" style="enable-background:new 0 0 481 353.5;"
	 xml:space="preserve">
<defs>
</defs>
<g>
	<path class="st0" d="M308.4,298.5l5.1-10l70,46.4v-24.7l-60.4-40c-16.2,28.3-124.3,43.1-84.8,4.6c32.1-31.2-21.9-39.9-52.1-30.9
		c-21.6,6.4-45,28-72.5,34.1c20.7,32.6,67.4,75.6,172.8,75.6c34.9,0,63.3-4.7,86.5-12.2L308.4,298.5z"/>
	<path class="st0" d="M460.3,145.8c-3.3-4.9-6.7-9.3-10.2-13.4c4.3-7.9,7.7-18.3,7.7-30.2C457.8,66.7,398,0,286.6,0
		C175.3,0,115.4,66.7,115.4,102.2c0,11.9,3,21.7,7.7,30.2c8.1,14.8,22.5,26,35.2,32c11.2,5.4,21.6,5.8,29.3,4.5
		c13.3-2.2,22.8-11.7,23.6-25.9c0.9-16.2-12.7-29.3-31.2-23.6c-5.9,1.8-13.5,7.9-14.1,16.8c-0.3,4.7,0.8,9,3.9,13.7
		c0.8,1.3-0.1,2.1-1.1,1.9c-1.5-0.3-4.6-3.2-6.2-8.2c-5.1-15.3,8.3-31.5,28-30.6c10.4,0.4,27,8.2,26.6,30c-0.3,13-9.6,30.2-30,32.2
		c-14.9,1.4-24.5-2.6-31.9-6.1c-7.7-3.6-24.4-13.7-35.4-32.7c-2.3,2.9-4.6,6-6.8,9.3c-4.1,6.1-7.4,12.1-10.1,17.9
		c-16.5-8.3-30.8-19.6-45-31.6c-3.8-3.2-5.4-4.2-5.4-4.2C42.4,130.8,0,145.8,0,145.8c25.9,9.3,35.4,31.9,39.3,42.3
		c11.5,31.1,12.8,71.7,52.1,78.1c22.5,3.6,39.4-9.7,58.4-22.1c34-22.2,76.5-51.5,76.5-51.5l157.4,104.3v-24.7l-46-30.4l5.1-10
		l40.9,27V234l-31.4-20.8l5.1-10l26.2,17.4V196l-16.9-11l5.1-10l11.7,7.7v-25.5h11.1v25.5l11.7-7.7l5.1,10L394.7,196v24.6l26.2-17.5
		l5.1,10L394.7,234v24.7l40.8-27.1l5.1,10l-46,30.5v24.7l55.4-36.7l0.4,0.6l4.8,9.3l-60.6,40.1V333c66.3-30.5,78.5-84.8,80.6-90.5
		C478.8,233,492,193.6,460.3,145.8z M279,20.6l-21.9,23.9c-4.2,4.6-4.2,12.1,0,16.7l14.3,15.6c-55,1.7-90.2,12.8-110.1,24.5
		c-8.1,4.8-17.7,11.1-27.3,19.9c-2.3-9.3-1.7-15.7-0.6-21.4c6.8-36.1,69.4-80.4,149.2-81.8C281.3,18.6,280.1,19.5,279,20.6z
		 M333,176.7l5.4,11.3l-11.3-5.4l-4.2,20l-4.2-20l-11.3,5.4l5.4-11.3l-20-4.2l20-4.2l-5.4-11.3l11.3,5.4l4.2-20l4.2,20l11.3-5.4
		l-5.4,11.3l20,4.2L333,176.7z M439.2,121.2c-9.6-8.8-19.2-15.1-27.3-19.9C392,89.6,356.8,78.6,301.8,76.8l14.3-15.6
		c4.2-4.6,4.2-12.1,0-16.7l-21.9-23.9c-1.1-1.2-2.3-2-3.6-2.6c79.9,1.4,142.4,45.7,149.2,81.8C440.9,105.5,441.5,111.9,439.2,121.2z
		"/>
</g>
</svg>
