<svg id="Calque_1" data-name="Calque 1" xmlns="http://www.w3.org/2000/svg" viewBox="0 0 24 24"><defs></defs><title>Banquette privative</title><path class="cls-1" d="M21.84,8.29a2.08,2.08,0,0,0-1.3.48V7.21a2.05,2.05,0,0,0-2.06-2h-13A2.05,2.05,0,0,0,3.46,7.21V8.77A2,2,0,0,0,.1,10.35v4.06a2.06,2.06,0,0,0,2.06,2.06H3.31v2a.36.36,0,0,0,.37.37.37.37,0,0,0,.38-.37v-2H19.79v2a.38.38,0,0,0,.75,0v-2h1.3a2.06,2.06,0,0,0,2.06-2.06V10.35A2.06,2.06,0,0,0,21.84,8.29ZM19.79,7.21v5.15H12.44V5.91h6A1.31,1.31,0,0,1,19.79,7.21Zm-15.58,0a1.31,1.31,0,0,1,1.31-1.3h6.17v6.45H4.21V7.21Zm18.94,7.2a1.31,1.31,0,0,1-1.31,1.31H2.16A1.31,1.31,0,0,1,.85,14.41V10.35a1.31,1.31,0,1,1,2.61,0v2.38a.38.38,0,0,0,.38.38H20.16a.38.38,0,0,0,.38-.38V10.35a1.31,1.31,0,1,1,2.61,0Z"/></svg>
