<?xml version="1.0" encoding="UTF-8"?>
<svg viewBox="0 0 111 134" version="1.1" xmlns="http://www.w3.org/2000/svg" xmlns:xlink="http://www.w3.org/1999/xlink">
    <!-- Generator: Sketch 53.2 (72643) - https://sketchapp.com -->
    <title>Rectangle</title>
    <desc>Created with Sketch.</desc>
    <g id="Icons---Kids" stroke="none" stroke-width="1" fill="none" fill-rule="evenodd">
        <g id="Icons/Kids_icons_board" transform="translate(-281.000000, -18.000000)" fill="#979797" fill-rule="nonzero">
            <path d="M336.337037,91.3207547 C319.891224,91.3207547 306.559259,77.737243 306.559259,60.9811321 C306.559259,44.2250212 319.891224,30.6415094 336.337037,30.6415094 C352.78285,30.6415094 366.114815,44.2250212 366.114815,60.9811321 C366.114815,77.737243 352.78285,91.3207547 336.337037,91.3207547 Z M336.337037,83.7358491 C348.671396,83.7358491 358.67037,73.5482153 358.67037,60.9811321 C358.67037,48.4140489 348.671396,38.2264151 336.337037,38.2264151 C324.002678,38.2264151 314.003704,48.4140489 314.003704,60.9811321 C314.003704,73.5482153 324.002678,83.7358491 336.337037,83.7358491 Z M303.490409,53.0620354 C302.552071,56.0681566 298.889067,68.4694364 299.112068,67.7244169 C297.709323,72.4108186 294.311459,83.7014597 288.9166,101.602596 C287.945538,104.824759 287.451852,108.17653 287.451852,111.54717 C287.451852,130.258159 302.339212,145.426412 320.703702,145.426412 L351.703984,145.426415 C354.817376,145.426415 357.915341,144.980912 360.907112,144.102959 C378.554212,138.924311 388.739632,120.150465 383.656888,102.1704 C378.463932,83.8004777 375.1901,72.2937872 373.843965,67.6799528 C373.495109,66.4842583 373.14876,65.2875089 372.692226,63.7029262 C372.41376,62.7359775 372.41376,62.7359775 372.139961,61.7848398 C371.868324,60.841657 371.758476,60.4606208 371.600671,59.9144855 C370.75025,56.9713389 370.134814,54.8843958 369.533221,52.9229255 C362.600158,30.3179502 356.643551,24.6128816 335.855688,24.5736258 C316.411823,24.7188893 310.491068,30.6342709 303.490409,53.0620354 Z M335.838083,18 C368.135722,18.053056 370.987728,34.8204048 380.028353,65.8068608 C381.381843,70.445903 384.65796,81.9606247 389.856705,100.351026 C395.925654,121.81976 383.763958,144.236293 362.692794,150.419754 C359.12053,151.468056 355.421467,152 351.703984,152 L320.703701,151.999997 C298.775952,151.999997 281,133.888649 281,111.54717 C281,107.522525 281.589476,103.520411 282.748953,99.673052 C288.142462,81.7763932 291.539752,70.4876628 292.940821,65.8068608 C301.952387,35.7003141 305.01218,18.2214138 335.838083,18 Z" id="Rectangle"></path>
        </g>
    </g>
</svg>
