<svg viewBox="0 0 529 498" version="1.1" xmlns="http://www.w3.org/2000/svg" xmlns:xlink="http://www.w3.org/1999/xlink">
    <title>BikeRental</title>
    <defs></defs>
    <g id="Page-1" stroke-width="1" fill-rule="evenodd">
        <g id="BikeRental" transform="translate(-1.000000, -1.000000)" fill="#231F20" fill-rule="nonzero">
            <path d="M281.637168,260.619469 C279.646018,259.070796 243.141593,230.088496 243.141593,230.088496 L278.761062,169.690265 C282.079646,163.938053 280.309735,156.637168 274.557522,153.097345 C268.80531,149.778761 261.504425,151.548673 257.964602,157.300885 L218.584071,224.115044 C214.60177,230.752212 216.150442,239.380531 222.345133,244.247788 C222.345133,244.247788 261.946903,275.663717 266.814159,279.424779 C272.345133,283.628319 274.557522,288.053097 274.557522,293.584071 C274.557522,298.672566 274.336283,377.876106 274.336283,377.876106 C274.336283,386.283186 272.787611,391.814159 269.690265,394.911504 C267.035398,397.123894 262.831858,398.672566 257.079646,398.893805 L257.079646,302.876106 C257.079646,299.115044 255.309735,295.575221 252.433628,293.362832 L185.39823,241.150442 C175.221239,232.964602 172.345133,216.59292 178.761062,205.530973 C178.761062,205.530973 222.123894,132.079646 234.955752,110.176991 C240.707965,100.442478 249.557522,94.2477876 260.176991,93.1415929 C272.123894,91.8141593 284.292035,96.6814159 293.584071,106.637168 C308.185841,122.123894 363.053097,180.530973 363.053097,180.530973 C363.274336,180.752212 363.274336,180.752212 363.495575,180.973451 C372.566372,189.60177 382.964602,193.80531 394.690265,193.80531 C399.778761,193.80531 405.088496,192.920354 410.619469,191.371681 C423.230088,187.610619 439.380531,182.300885 439.60177,182.300885 C446.017699,180.309735 449.336283,173.451327 447.345133,167.035398 C445.353982,160.619469 438.495575,157.079646 432.079646,159.292035 C431.858407,159.292035 415.929204,164.380531 403.761062,168.141593 C391.371681,171.681416 384.955752,167.920354 380.309735,163.495575 C376.548673,159.292035 325.221239,104.867257 311.061947,89.8230088 C310.840708,89.6017699 310.619469,89.380531 310.619469,89.380531 C329.20354,83.6283186 342.699115,66.5929204 342.699115,46.2389381 C342.699115,21.2389381 322.345133,1.10619469 297.566372,1.10619469 C272.787611,1.10619469 252.433628,21.460177 252.433628,46.2389381 C252.433628,54.4247788 254.646018,62.1681416 258.628319,68.8053097 C258.185841,68.8053097 257.964602,68.8053097 257.522124,68.8053097 C239.380531,70.7964602 223.672566,81.4159292 214.159292,97.7876106 C208.849558,106.858407 158.185841,192.920354 158.185841,192.920354 C145.575221,214.380531 151.106195,244.247788 170.353982,259.734513 L232.743363,308.849558 L232.743363,410.619469 C232.743363,416.814159 237.389381,422.123894 243.584071,422.566372 C246.902655,422.787611 250.221239,423.00885 253.097345,423.00885 C267.256637,423.00885 277.876106,419.469027 285.619469,412.610619 C294.026549,404.867257 298.230088,393.584071 298.230088,377.876106 C298.230088,377.876106 298.451327,299.336283 298.451327,293.584071 C298.672566,280.752212 292.920354,269.469027 281.637168,260.619469 Z M297.345133,25.6637168 C308.628319,25.6637168 318.362832,35.1769912 318.362832,46.6814159 C318.362832,57.9646018 308.849558,67.699115 297.345133,67.699115 C285.619469,67.699115 276.327434,58.4070796 276.327434,46.6814159 C276.548673,35.1769912 286.061947,25.6637168 297.345133,25.6637168 Z M526.327434,294.690265 C514.380531,246.017699 471.017699,212.168142 421.017699,212.168142 C412.168142,212.168142 403.539823,213.274336 394.911504,215.265487 C366.814159,222.123894 342.920354,239.60177 327.876106,264.60177 C312.831858,289.380531 308.40708,318.584071 315.486726,346.681416 C327.433628,395.353982 370.79646,429.20354 420.79646,429.20354 C429.424779,429.20354 438.274336,428.097345 446.902655,426.106195 C475,419.247788 498.893805,401.769912 513.938053,376.769912 C528.761062,351.99115 533.40708,323.00885 526.327434,294.690265 Z M493.141593,364.380531 C481.415929,383.628319 463.053097,397.345133 441.150442,402.654867 C434.513274,404.20354 427.654867,405.088496 420.79646,405.088496 C381.858407,405.088496 348.230088,378.761062 338.938053,340.929204 C333.628319,319.026549 336.946903,296.238938 348.672566,276.99115 C360.39823,257.743363 378.761062,244.026549 400.663717,238.716814 C407.300885,237.168142 414.159292,236.283186 421.017699,236.283186 C459.955752,236.283186 493.584071,262.610619 502.876106,300.442478 C508.40708,322.345133 504.867257,345.132743 493.141593,364.380531 Z M110.619469,281.415929 C101.769912,281.415929 93.1415929,282.522124 84.5132743,284.513274 C26.3274336,298.893805 -9.2920354,357.743363 5.08849558,415.929204 C17.0353982,464.60177 60.3982301,498.451327 110.39823,498.451327 C119.247788,498.451327 127.876106,497.345133 136.504425,495.353982 C164.60177,488.495575 188.495575,471.017699 203.539823,446.017699 C218.584071,421.238938 223.00885,392.035398 215.929204,363.938053 C203.982301,315.265487 160.619469,281.415929 110.619469,281.415929 Z M182.743363,433.628319 C171.017699,452.876106 152.654867,466.59292 130.752212,471.902655 C124.115044,473.451327 117.256637,474.336283 110.39823,474.336283 C71.460177,474.336283 37.8318584,448.00885 28.539823,410.176991 C17.4778761,365.044248 45.1327434,319.026549 90.2654867,307.964602 C96.9026549,306.415929 103.761062,305.530973 110.619469,305.530973 C149.557522,305.530973 183.185841,331.858407 192.477876,369.690265 C197.787611,391.59292 194.469027,414.380531 182.743363,433.628319 Z" id="Shape"></path>
        </g>
    </g>
</svg>
