<?xml version="1.0" encoding="UTF-8"?>
<svg viewBox="0 0 53 52" version="1.1" xmlns="http://www.w3.org/2000/svg" xmlns:xlink="http://www.w3.org/1999/xlink">
    <!-- Generator: Sketch 53.2 (72643) - https://sketchapp.com -->
    <title>Combined Shape</title>
    <desc>Created with Sketch.</desc>
    <g id="Page-1" stroke="none" stroke-width="1" fill="none" fill-rule="evenodd">
        <path d="M50.0993767,32.9929634 C51.0813265,32.5350727 51.5103596,31.3768568 51.0576491,30.4060159 C50.6049385,29.4351749 49.4419165,29.0193466 48.4599667,29.4772373 L47.7425373,29.8117801 L45.5470701,25.1035855 L46.2644995,24.7690426 C47.2464493,24.3111519 47.6754824,23.1529361 47.2227718,22.1820951 C46.7700612,21.2112541 45.6070393,20.7954258 44.6250895,21.2533165 L43.90766,21.5878593 L41.7121928,16.8796647 L42.4296223,16.5451218 C43.411572,16.0872312 43.8406052,14.9290153 43.3878946,13.9581743 C42.935184,12.9873334 41.772162,12.571505 40.7902123,13.0293957 L40.0727828,13.3639386 L37.8773156,8.65574392 L38.594745,8.32120107 C39.5766948,7.86331038 40.0057279,6.70509453 39.5530174,5.73425357 C39.1003068,4.76341261 37.9372848,4.34758425 36.955335,4.80547495 L34.5743011,5.91576931 L33.4765675,3.56167199 C33.0238569,2.59083103 31.8608349,2.17500267 30.8788851,2.63289337 C29.8969354,3.09078406 29.4679023,4.24899991 29.9206128,5.21984087 L30.251371,5.92915404 L25.4893031,8.14974277 L25.1585449,7.4404296 C24.7058343,6.46958864 23.5428124,6.05376029 22.5608626,6.51165098 C21.5789128,6.96954167 21.1498797,8.12775752 21.6025903,9.09859848 L21.9333484,9.80791165 L17.1712805,12.0285004 L16.8405224,11.3191872 C16.3878118,10.3483463 15.2247898,9.9325179 14.2428401,10.3904086 C13.2608903,10.8482993 12.8318572,12.0065151 13.2845677,12.9773561 L13.6153259,13.6866693 L8.853258,15.907258 L8.52249984,15.1979448 C8.06978926,14.2271039 6.90676727,13.8112755 5.92481751,14.2691662 C4.94286775,14.7270569 4.51383463,15.8852727 4.9665452,16.8561137 L6.06427881,19.210211 L3.68324486,20.3205054 C2.7012951,20.7783961 2.27226197,21.9366119 2.72497255,22.9074529 C3.17768313,23.8782939 4.34070512,24.2941222 5.32265488,23.8362315 L6.04008432,23.5016887 L8.23555154,28.2098833 L7.51812209,28.5444262 C6.53617234,29.0023169 6.10713921,30.1605327 6.55984979,31.1313737 C7.01256036,32.1022146 8.17558235,32.518043 9.15753211,32.0601523 L9.87496156,31.7256094 L12.0704288,36.4338041 L11.3529993,36.7683469 C10.3710496,37.2262376 9.94201644,38.3844535 10.394727,39.3552944 C10.8474376,40.3261354 12.0104596,40.7419638 12.9924093,40.2840731 L13.7098388,39.9495302 L15.905306,44.6577249 L15.1878766,44.9922677 C14.2059268,45.4501584 13.7768937,46.6083742 14.2296043,47.5792152 C14.6823148,48.5500562 15.8453368,48.9658845 16.8272866,48.5079938 L19.0041593,47.4929014 L20.2064833,49.515068 C20.7125891,50.366278 21.7988024,50.695207 22.7119926,50.2693794 C23.6251828,49.8435518 24.0714131,48.8000326 23.7446669,47.8651858 L22.9684364,45.6443286 L27.3221818,43.6141438 L28.5245058,45.6363104 C29.0306116,46.4875204 30.1168249,46.8164494 31.0300151,46.3906218 C31.9432054,45.9647942 32.3894356,44.921275 32.0626894,43.9864282 L31.2864589,41.765571 L35.6402044,39.7353862 L36.8425283,41.7575527 C37.3486341,42.6087628 38.4348475,42.9376917 39.3480377,42.5118641 C40.2612279,42.0860366 40.7074582,41.0425174 40.380712,40.1076706 L39.6044815,37.8868134 L43.9582269,35.8566286 L45.1605509,37.8787951 C45.6666567,38.7300052 46.75287,39.0589341 47.6660602,38.6331065 C48.5792505,38.2072789 49.0254807,37.1637598 48.6987345,36.228913 L47.922504,34.0080558 L50.0993767,32.9929634 Z M52.4925079,29.7369302 C53.3105639,31.4912568 52.5352935,33.5841732 50.7608931,34.4115897 L49.8834726,34.8207376 L50.1919311,35.7032616 C50.7841515,37.3976515 49.9783881,39.2819468 48.3275766,40.0517329 C46.676765,40.8215189 44.7153763,40.2275679 43.7980703,38.6847678 L43.320291,37.8811995 L41.5654501,38.6994952 L41.8739085,39.5820192 C42.466129,41.2764091 41.6603655,43.1607044 40.009554,43.9304905 C38.3587425,44.7002765 36.3973538,44.1063255 35.4800478,42.5635254 L35.0022684,41.7599571 L33.2474276,42.5782528 L33.555886,43.4607768 C34.1481065,45.1551667 33.342343,47.039462 31.6915315,47.8092481 C30.0407199,48.5790341 28.0793312,47.9850831 27.1620253,46.4422831 L26.6842459,45.6387147 L24.929405,46.4570104 L25.2378634,47.3395345 C25.8300839,49.0339243 25.0243205,50.9182196 23.3735089,51.6880057 C21.7226974,52.4577918 19.7613087,51.8638407 18.8440027,50.3210407 L18.3662233,49.5174723 L17.4888029,49.9266202 C15.7144025,50.7540367 13.6128013,50.0026275 12.7947454,48.2483009 C12.0903891,46.7378041 12.5672329,44.9762964 13.8459984,43.9876759 L12.8994286,41.9577505 C11.3201268,42.3018687 9.66422436,41.5348769 8.95986813,40.0243801 C8.2555119,38.5138833 8.73235567,36.7523757 10.0111211,35.7637551 L9.0645514,33.7338298 C7.48524953,34.0779479 5.82934713,33.3109562 5.1249909,31.8004594 C4.42063467,30.2899625 4.89747844,28.5284549 6.17624391,27.5398344 L5.22967417,25.509909 C3.6503723,25.8540272 1.99446989,25.0870354 1.29011366,23.5765386 C0.472057709,21.8222119 1.2473281,19.7292956 3.02172854,18.9018791 L3.9679036,18.4606704 L3.53168632,17.5251994 C2.71363036,15.7708727 3.48890075,13.6779564 5.26330119,12.8505399 C6.79108178,12.1381241 8.56143005,12.5961583 9.54619929,13.8570377 L11.599352,12.8996369 C11.2664598,11.3347822 12.0535431,9.68419805 13.5813237,8.97178226 C15.1091043,8.25936647 16.8794526,8.7174007 17.8642218,9.97828009 L19.9173745,9.02087927 C19.5844823,7.45602462 20.3715657,5.80544043 21.8993463,5.09302465 C23.4271269,4.38060886 25.1974751,4.83864309 26.1822444,6.09952248 L28.2353971,5.14212166 C27.9025049,3.57726701 28.6895882,1.92668282 30.2173688,1.21426703 C31.9917693,0.38685052 34.0933704,1.13825965 34.9114264,2.8925863 L35.3476436,3.82805729 L36.2938187,3.38684861 C38.0682191,2.5594321 40.1698203,3.31084123 40.9878762,5.06516788 C41.6922325,6.57566469 41.2153887,8.33717233 39.9366232,9.32579287 L40.883193,11.3557182 C42.4624948,11.0116001 44.1183972,11.7785918 44.8227535,13.2890887 C45.5271097,14.7995855 45.0502659,16.5610931 43.7715005,17.5497136 L44.7180702,19.579639 C46.2973721,19.2355208 47.9532745,20.0025126 48.6576307,21.5130094 C49.3619869,23.0235062 48.8851432,24.7850139 47.6063777,25.7736344 L48.5529474,27.8035598 C50.1322493,27.4594416 51.7881517,28.2264334 52.4925079,29.7369302 Z M15.4526569,23.8432765 C14.5970399,24.2422573 13.5836464,23.8799273 13.1891793,23.0339898 C12.7947122,22.1880524 13.1685481,21.1788468 14.0241651,20.779866 C14.8797822,20.3808852 15.8931756,20.7432152 16.2876427,21.5891526 C16.6821098,22.4350901 16.308274,23.4442957 15.4526569,23.8432765 Z M14.7911406,22.4246501 C14.8543069,22.3951952 14.8819056,22.3206901 14.8527838,22.2582383 C14.8236621,22.1957866 14.7488478,22.1690374 14.6856815,22.1984923 C14.6225151,22.2279473 14.5949165,22.3024524 14.6240382,22.3649041 C14.6531599,22.4273559 14.7279742,22.4541051 14.7911406,22.4246501 Z M32.088702,16.0857612 C31.233085,16.484742 30.2196915,16.1224121 29.8252244,15.2764746 C29.4307573,14.4305372 29.8045932,13.4213315 30.6602102,13.0223508 C31.5158273,12.62337 32.5292207,12.9857 32.9236878,13.8316374 C33.3181549,14.6775748 32.944319,15.6867805 32.088702,16.0857612 Z M31.4271857,14.6671349 C31.490352,14.63768 31.5179507,14.5631748 31.4888289,14.5007231 C31.4597072,14.4382713 31.3848929,14.4115221 31.3217265,14.4409771 C31.2585602,14.4704321 31.2309616,14.5449372 31.2600833,14.6073889 C31.289205,14.6698407 31.3640193,14.6965899 31.4271857,14.6671349 Z M39.7584565,32.5336028 C38.9028394,32.9325836 37.889446,32.5702536 37.4949789,31.7243162 C37.1005118,30.8783787 37.4743477,29.8691731 38.3299647,29.4701923 C39.1855817,29.0712115 40.1989752,29.4335415 40.5934423,30.2794789 C40.9879094,31.1254164 40.6140735,32.134622 39.7584565,32.5336028 Z M39.0969401,31.1149765 C39.1601065,31.0855215 39.1877051,31.0110164 39.1585834,30.9485646 C39.1294617,30.8861129 39.0546474,30.8593637 38.991481,30.8888186 C38.9283147,30.9182736 38.900716,30.9927787 38.9298378,31.0552305 C38.9589595,31.1176822 39.0337738,31.1444314 39.0969401,31.1149765 Z M23.1224114,40.291118 C22.2667943,40.6900988 21.2534009,40.3277688 20.8589338,39.4818314 C20.4644667,38.6358939 20.8383026,37.6266883 21.6939196,37.2277075 C22.5495367,36.8287267 23.5629301,37.1910567 23.9573972,38.0369942 C24.3518643,38.8829316 23.9780284,39.8921372 23.1224114,40.291118 Z M22.4608951,38.8724917 C22.5240614,38.8430367 22.55166,38.7685316 22.5225383,38.7060799 C22.4934166,38.6436281 22.4186023,38.6168789 22.3554359,38.6463339 C22.2922696,38.6757888 22.264671,38.7502939 22.2937927,38.8127457 C22.3229144,38.8751974 22.3977287,38.9019466 22.4608951,38.8724917 Z M27.6055567,28.1884396 C26.7499396,28.5874204 25.7365462,28.2250904 25.3420791,27.379153 C24.947612,26.5332155 25.3214479,25.5240099 26.1770649,25.1250291 C27.032682,24.7260484 28.0460754,25.0883783 28.4405425,25.9343158 C28.8350096,26.7802532 28.4611737,27.7894589 27.6055567,28.1884396 Z M26.9440404,26.7698133 C27.0072067,26.7403583 27.0348053,26.6658532 27.0056836,26.6034015 C26.9765619,26.5409497 26.9017476,26.5142005 26.8385812,26.5436555 C26.7754149,26.5731104 26.7478163,26.6476155 26.776938,26.7100673 C26.8060597,26.7725191 26.880874,26.7992683 26.9440404,26.7698133 Z" id="Combined-Shape" fill="#005589" fill-rule="nonzero"></path>
    </g>
</svg>
