<?xml version="1.0" encoding="UTF-8"?>
<svg viewBox="0 0 29 47" version="1.1" xmlns="http://www.w3.org/2000/svg" xmlns:xlink="http://www.w3.org/1999/xlink">
    <!-- Generator: Sketch 53.2 (72643) - https://sketchapp.com -->
    <title>Blender icon</title>
    <desc>Created with Sketch.</desc>
    <g id="Icons---Kids" stroke="none" stroke-width="1" fill="none" fill-rule="evenodd">
        <g id="Icons/Kids_icons_board" transform="translate(-150.000000, -170.000000)" fill="#005589" fill-rule="nonzero">
            <g id="Icons" transform="translate(16.000000, 104.000000)">
                <g id="Assets/Icons/Equipments/Room/Blender" transform="translate(118.000000, 59.000000)">
                    <path d="M41.240352,18.0543295 L41.5736153,12.2222222 L19.1486069,12.2222222 L20.6904058,39.2037037 L40.0318164,39.2037037 L40.3948498,32.8506184 L36.0185185,32.8506184 C35.5378262,32.8506184 35.1481481,32.4609403 35.1481481,31.9802481 C35.1481481,31.4995558 35.5378262,31.1098777 36.0185185,31.1098777 L40.4943207,31.1098777 L40.6435271,28.4987666 L36.0185185,28.4987666 C35.5378262,28.4987666 35.1481481,28.1090885 35.1481481,27.6283962 C35.1481481,27.1477039 35.5378262,26.7580258 36.0185185,26.7580258 L40.742998,26.7580258 L40.8922043,24.1469147 L36.0185185,24.1469147 C35.5378262,24.1469147 35.1481481,23.7572366 35.1481481,23.2765444 C35.1481481,22.7958521 35.5378262,22.406174 36.0185185,22.406174 L40.9916752,22.406174 L41.1408816,19.7950629 L36.0185185,19.7950629 C35.5378262,19.7950629 35.1481481,19.4053848 35.1481481,18.9246925 C35.1481481,18.4440002 35.5378262,18.0543221 36.0185185,18.0543221 L41.2367422,18.0543221 C41.2379461,18.0543221 41.2391493,18.0543246 41.240352,18.0543295 Z M41.6419929,39.866147 C41.7960355,40.0612238 41.9099217,40.2914238 41.9697623,40.5457463 L44.6320717,51.8605612 C44.8522665,52.7963894 44.2721311,53.7335313 43.3363028,53.9537262 C43.2056323,53.9844722 43.0718438,54 42.9376047,54 L17.7407407,54 C16.7793562,54 16,53.2206438 16,52.2592593 C16,52.1250202 16.0155278,51.9912317 16.0462738,51.8605612 L18.7085832,40.5457463 C18.7721742,40.2754846 18.8967974,40.0324639 19.0657853,39.8298854 C19.0023287,39.6651945 18.9630804,39.4881661 18.9525002,39.3030126 L17.4107012,12.3215311 C17.4018907,12.1673461 17.4134267,12.0167034 17.4429785,11.8722163 C17.0216718,11.5545138 16.74932,11.0498032 16.74932,10.4814815 C16.74932,10.3856 16.7572418,10.2898824 16.7730046,10.1953055 L17.0631281,8.45456473 C17.2030221,7.61520048 17.929242,7 18.7801842,7 L41.942038,7 C42.7929803,7 43.5192001,7.61520048 43.6590941,8.45456473 L43.9492176,10.1953055 C44.0595786,10.8574714 43.7805269,11.4945633 43.2792255,11.8725532 C43.3022609,11.9855147 43.3143561,12.102456 43.3143561,12.2222222 C43.3143561,12.2553454 43.3134106,12.2884619 43.311521,12.3215311 L41.769722,39.3030126 C41.758361,39.5018313 41.7139439,39.6912813 41.6419929,39.866147 Z M40.0318164,40.9444444 L20.6904058,40.9444444 L20.4030501,40.9444444 L17.7407407,52.2592593 L42.9376047,52.2592593 L40.2752954,40.9444444 L40.0318164,40.9444444 Z M19.1486069,10.4814815 L41.5736153,10.4814815 L42.2321615,10.4814815 L41.942038,8.74074074 L18.7801842,8.74074074 L18.4900607,10.4814815 L19.1486069,10.4814815 Z M30.3611111,49.6481481 C28.6786881,49.6481481 27.3148148,48.2842748 27.3148148,46.6018519 C27.3148148,44.9194289 28.6786881,43.5555556 30.3611111,43.5555556 C32.0435341,43.5555556 33.4074074,44.9194289 33.4074074,46.6018519 C33.4074074,48.2842748 32.0435341,49.6481481 30.3611111,49.6481481 Z M30.3611111,47.9074074 C31.0821495,47.9074074 31.6666667,47.3228903 31.6666667,46.6018519 C31.6666667,45.8808134 31.0821495,45.2962963 30.3611111,45.2962963 C29.6400727,45.2962963 29.0555556,45.8808134 29.0555556,46.6018519 C29.0555556,47.3228903 29.6400727,47.9074074 30.3611111,47.9074074 Z" id="Blender-icon"></path>
                </g>
            </g>
        </g>
    </g>
</svg>
