<svg id="Calque_1" data-name="Calque 1" xmlns="http://www.w3.org/2000/svg" viewBox="0 0 24 24"><defs></defs><title>Enceintes bluetooth</title><path class="cls-1" d="M13.68,1.17a.39.39,0,0,0-.38,0L5.39,6.12H3.5A3.39,3.39,0,0,0,.12,9.5v5A3.39,3.39,0,0,0,3.5,17.88H5.39l7.91,4.94a.36.36,0,0,0,.2.06.41.41,0,0,0,.18-.05.38.38,0,0,0,.2-.33V1.5A.38.38,0,0,0,13.68,1.17Zm-8.56,16H3.5A2.62,2.62,0,0,1,.88,14.5v-5A2.62,2.62,0,0,1,3.5,6.88H5.12Zm8,4.7L5.88,17.29V6.71l7.24-4.53Z"/><path class="cls-1" d="M7.33,16.84l4,2a.53.53,0,0,0,.17,0,.38.38,0,0,0,.17-.72l-4-2a.38.38,0,0,0-.34.68Z"/><path class="cls-1" d="M20.48,12l3.14-2.64a.37.37,0,0,0,.13-.28.38.38,0,0,0-.13-.29l-3.5-3,0,0A.35.35,0,0,0,20,5.73h-.07a.41.41,0,0,0-.16,0h0a.36.36,0,0,0-.13.11l0,0a.35.35,0,0,0-.05.18v5.09L16.87,9a.37.37,0,0,0-.53,0,.39.39,0,0,0,0,.53L19.31,12l-2.93,2.46a.39.39,0,0,0,0,.53.37.37,0,0,0,.53,0l2.63-2.21v5.09a.35.35,0,0,0,.05.18l0,0a.36.36,0,0,0,.13.11,0,0,0,0,0,0,0h0a.41.41,0,0,0,.16,0,.35.35,0,0,0,.22-.08h0l3.5-3a.38.38,0,0,0,.13-.29.37.37,0,0,0-.13-.28Zm-.23-5.1,2.54,2.17-2.54,2.14Zm0,10.2V12.79l2.54,2.14Z"/></svg>
