<svg viewBox="0 0 298 508" version="1.1" xmlns="http://www.w3.org/2000/svg" xmlns:xlink="http://www.w3.org/1999/xlink">
    <title>bluetooth</title>
    <defs></defs>
    <g id="Page-1" stroke-width="1" fill-rule="evenodd">
        <g id="bluetooth" transform="translate(-10.000000, 4.000000)" fill-rule="nonzero">
            <path d="M162.386364,232.350399 L285.892581,128.593146 L162.386364,23.4485731 L162.386364,232.350399 Z M145.340909,246.670241 L145.340909,5 C145.340909,-2.26796025 153.854267,-6.20089455 159.388377,-1.48953925 L304.61565,122.146824 C308.630168,125.564505 308.609846,131.770627 304.573032,135.161944 L162.386364,254.612596 L162.386364,495.227273 C162.386364,499.934245 158.570609,503.75 153.863636,503.75 C149.156664,503.75 145.340909,499.934245 145.340909,495.227273 L145.340909,268.932438 L24.5730325,370.389217 C20.9690538,373.41691 15.5930215,372.949738 12.5653284,369.34576 C9.53763526,365.741781 10.004807,360.365749 13.6087857,357.338056 L145.340909,246.670241 Z" id="Shape"></path>
            <path d="M145.340909,253.329759 L13.6087857,142.661944 C10.004807,139.634251 9.53763526,134.258219 12.5653284,130.65424 C15.5930215,127.050262 20.9690538,126.58309 24.5730325,129.610783 L145.340909,231.067562 L145.340909,5 C145.340909,0.2930277 149.156664,-3.52272727 153.863636,-3.52272727 C158.570609,-3.52272727 162.386364,0.2930277 162.386364,5 L162.386364,245.387404 L304.573032,364.838056 C308.60745,368.227359 308.630568,374.428876 304.621531,377.848164 L159.394259,501.7118 C153.86166,506.430527 145.340909,502.498863 145.340909,495.227273 L145.340909,253.329759 Z M162.386364,267.649601 L162.386364,476.756712 L285.899672,371.41281 L162.386364,267.649601 Z" id="Shape"></path>
        </g>
    </g>
</svg>
