<svg version="1.1" xmlns="http://www.w3.org/2000/svg" xmlns:xlink="http://www.w3.org/1999/xlink" x="0px" y="0px"
	 viewBox="0 0 500 475" enable-background="new 0 0 500 475" xml:space="preserve">
<g>
	<path d="M385.8,177.2h1.7v-54.4c0-24.8-23.4-44.9-55.6-50.1V0h-66.7v71.4h-80.7c-40.4,0-72,22.6-72,51.4v54.4h1.7
		l-75.6,21.6l74.9,179.6l23-9.6l-64-153.7l165-47.1v205.6h25V168l165,47.1l-64,153.7l23,9.6l74.9-179.6L385.8,177.2z M290.3,25H307
		v44.4h-16.7V25z M250,138.4l-12.5-3.6v7.1l-100,28.6v-47.7c0-12.5,19.3-26.4,47-26.4h131c27.7,0,47,13.9,47,26.4v47.7l-100-28.6
		v-7.1L250,138.4z"/>
	<path d="M447.6,422.6c-10.6,17.1-17.9,27.5-31.1,27.5s-20.4-10.5-31.1-27.5c-10.9-17.5-24.5-39.2-52.3-39.2
		s-41.4,21.7-52.3,39.2c-10.7,17.1-17.9,27.5-31.1,27.5s-20.4-10.5-31-27.5c-10.9-17.5-24.4-39.2-52.2-39.2s-41.4,21.7-52.3,39.2
		c-10.6,17.1-17.8,27.5-31,27.5s-20.4-10.5-31-27.5C41.3,405.1,27.8,383.4,0,383.4v25c13.2,0,20.4,10.4,31,27.4
		C42,453.3,55.5,475,83.3,475c27.7,0,41.3-21.7,52.2-39.2c10.7-17.1,17.9-27.5,31.1-27.5c13.2,0,20.4,10.5,31,27.5
		c10.9,17.5,24.4,39.2,52.2,39.2c27.8,0,41.4-21.7,52.3-39.2c10.7-17.1,17.9-27.5,31.1-27.5c13.3,0,20.4,10.5,31.1,27.5
		c10.9,17.5,24.5,39.2,52.3,39.2c27.8,0,41.4-21.7,52.2-39.1c10.6-17.1,17.9-27.5,31.1-27.5v-25
		C472.1,383.4,458.5,405.1,447.6,422.6z"/>
</g>
</svg>
