<svg xmlns="http://www.w3.org/2000/svg" viewBox="0 0 500 509.4"><path d="M454.7 367V223.5h-12.8V367h12.8z"/><path d="M444.6 377.2c-11.2-.5-37.9.4-39.5-4.4-1.2-4 3.6-5.3 20.4-5.6V223.5h-99.1v144.4h-16.3V223.5h-12.8v144.4H281V223.5h-24.5v144.4h-16.3V223.5h-42.4s.1-23.9.2-24.7h1.4c90.5 0 176.1-66.8 176.1-66.8h.9s55 42.9 123.5 59.9C471.2 81.5 370.8 0 251.3 0 195 0 142.9 18.2 100.5 48.9l-.7.5c-5 3.6-9.8 7.4-14.5 11.4 18.2-2.4 41.7.1 54.8 24 8.3 15.1 5 22.8 2.2 28.5-2.8-6.2-17.4-13.7-17.4-13.7s7-7.2 1.7-16.9c0 0-4.4 13.1-6.4 13.4-3.7.8-28.1-17.3-52.1-19.3-3 3-5.8 6.1-8.6 9.2 16.7.7 39.7 6.7 55.7 16s23.3 19.9 25.2 30.7c1.9 11.2-5.5 30-18.1 35.1-4.6-14.7-10.7-24.7-10.7-24.7 2.1-4.6 3.9-11.6-.3-25.2-.7 9.2-5.2 19.7-6.3 18.9-5.4-3.9-12.8-12.3-14.5-13.7-16.4-14-22-32.8-34.5-33.1-1.5 1.7-2.9 3.4-4.3 5.2 13.6 11.4 58.6 52.7 50 95.7 0 0-3.9 21.1-26.5 35 0 0-17.9-32.6-7.7-52.6 1-1.9 6.6-10.4 11-17.3.4-.7-.6-1.8-.6-1.8-9 8.1-19.7 11.3-20.7 8.4-4.2-12.4-5.6-26.2-2.6-43.6 1.5-8.3-1.3-15.5-6.3-19.5-2.7 3.5-5.4 7.1-8 10.8 19.6 78.7-6 101.7-23.1 110.4 0 0 3.6-16.7 15-30.4l-12.8 8.6s-.3-33.3.4-47.9c.1-2.5.7-5.4 1.5-8.5C4 177-3 216.1 1.2 257c6.6 64 49.4 109.7 98 105.5 34.3-3 62.5-32.6 58.9-60.7-1.2-11.9-5.8-23.7-13.7-32.2-3.9-4.4-8.8-7.9-14.2-10.1-5.3-2.2-11.3-3-17.2-2.6-11.8.8-23.3 6.6-29.9 16-3.3 4.6-5.4 10.3-6.1 15.8-.6 5.5.7 11.2 3.4 16.2 5.3 10 16.6 17 27.2 15.3 1.2-.1 5.7-1.1 9.3-3.5 3.7-2.3 6.6-5.6 6.8-5.9 1.3-1.6 2.6-.7 2.7.7.2 2-3.2 7.2-8.5 10.5-5.2 3.5-11.6 4.1-13 4-13.4.4-25.7-8.7-31.2-20.6-2.8-6-4-12.9-2.9-19.6 1.1-6.6 3.7-12.9 7.8-18.3 8.2-10.8 21.4-17.1 34.8-18 6.7-.4 13.7.5 20.1 3.1 6.3 2.6 12.1 6.7 16.7 11.7 9.3 10.5 14.1 24.1 15.2 37.7.6 6.8-.3 14.1-2.5 20.7s-5.6 12.7-9.7 18.2c-8.2 11-26.7 30.8-86.3 36.7-29 2.9-47.7 16.6-.8 14.5 120.7-5.2 135.3 2.2 149.1 6.1 23.6 6.7 5.2 15.1-14.1 15-52.1-.4-117.7-2.9-97.7 6.3 9.6 4.4 33 9.1 100 3.5 49.6-4.1 51 6.8 50.6 15.2-.7 14.9-103.7 8.5-153.6 9.3-19 .3-9.6 18.3 33.6 19.4 59.3 1.4 75-1.8 88.1 9.3 8 6.9-23.4 9.3-57 9.7-16.9.2 13.3 23.6 86.9 23.6 55.7 0 117.2-24 109.6-29.5-14.2-10.3-64.9 6.4-99.5.3-31.3-5.4-21.8-22.5 10.1-22.5 64.6 0 106.2 17.2 131 .8 23.1-15.3 10.9-14.7-27.1-12.9-44.3 2.1-84 1.4-63.5-11.5 18.6-11.7 58.2-.4 88.9-4.2 12.9-1.6 1.9-9.7-11.7-10.6-43.6-3-159.7 5.4-126.5-15.6 10.9-6.9 28.3-8.3 151.9-6.9 62.2.8 64.2-18.1 29.4-19.7z"/></svg>
