<?xml version="1.0" encoding="UTF-8"?>
<svg viewBox="0 0 42 42" version="1.1" xmlns="http://www.w3.org/2000/svg" xmlns:xlink="http://www.w3.org/1999/xlink">
    <!-- Generator: Sketch 53.2 (72643) - https://sketchapp.com -->
    <title>Combined Shape</title>
    <desc>Created with Sketch.</desc>
    <g id="Icons---Kids" stroke="none" stroke-width="1" fill="none" fill-rule="evenodd">
        <g id="Icons/Kids_icons_board" transform="translate(-338.000000, -172.000000)" fill="#D8D8D8">
            <path d="M360.551018,192.853962 L373.652717,205.955661 C374.206015,205.666474 374.835382,205.502944 375.502944,205.502944 C377.712083,205.502944 379.502944,207.293805 379.502944,209.502944 C379.502944,211.712083 377.712083,213.502944 375.502944,213.502944 C373.293805,213.502944 371.502944,211.712083 371.502944,209.502944 C371.502944,208.835382 371.666474,208.206015 371.955661,207.652717 L358.754582,194.451638 L357.657242,197.310306 C357.528593,197.645448 357.152617,197.812843 356.817476,197.684194 C356.482334,197.555546 356.314939,197.179569 356.443588,196.844428 L357.502602,194.085602 L354.762678,195.192603 C354.429833,195.327081 354.050993,195.166273 353.916515,194.833428 C353.782036,194.500583 353.942845,194.121742 354.27569,193.987264 L357.13498,192.832036 L355.071891,190.768948 L353.98823,193.59198 C353.859582,193.927122 353.483605,194.094517 353.148464,193.965868 C352.813322,193.83722 352.645927,193.461243 352.774576,193.126102 L353.83359,190.367276 L351.093667,191.474277 C350.760821,191.608755 350.381981,191.447947 350.247503,191.115102 C350.113024,190.782257 350.273833,190.403416 350.606678,190.268938 L353.430844,189.127901 L351.244153,186.941209 L350.18823,189.69198 C350.059582,190.027122 349.683605,190.194517 349.348464,190.065868 C349.013322,189.93722 348.845927,189.561243 348.974576,189.226102 L350.03359,186.467276 L347.293667,187.574277 C346.960821,187.708755 346.581981,187.547947 346.447503,187.215102 C346.313024,186.882257 346.473833,186.503416 346.806678,186.368938 L349.559621,185.256677 L347.544153,183.241209 L346.48823,185.99198 C346.359582,186.327122 345.983605,186.494517 345.648464,186.365868 C345.313322,186.23722 345.145927,185.861243 345.274576,185.526102 L346.33359,182.767276 L343.593667,183.874277 C343.260821,184.008755 342.881981,183.847947 342.747503,183.515102 C342.613024,183.182257 342.773833,182.803416 343.106678,182.668938 L345.859621,181.556677 L343.716414,179.41347 L342.68823,182.09198 C342.559582,182.427122 342.183605,182.594517 341.848464,182.465868 C341.513322,182.33722 341.345927,181.961243 341.474576,181.626102 L342.53359,178.867276 L339.793667,179.974277 C339.460821,180.108755 339.081981,179.947947 338.947503,179.615102 C338.813024,179.282257 338.973833,178.903416 339.306678,178.768938 L341.988397,177.685453 L341.351472,177.048528 C340.882843,176.579899 340.882843,175.820101 341.351472,175.351472 C341.820101,174.882843 342.579899,174.882843 343.048528,175.351472 L343.65166,175.954604 L344.664051,173.317236 C344.792699,172.982095 345.168676,172.814699 345.503817,172.943348 C345.838959,173.071997 346.006354,173.447973 345.877705,173.783114 L344.818691,176.54194 L347.558614,175.434939 C347.89146,175.300461 348.2703,175.461269 348.404778,175.794114 C348.539257,176.12696 348.378448,176.5058 348.045603,176.640278 L345.404436,177.707379 L347.479399,179.782342 L348.464051,177.217236 C348.592699,176.882095 348.968676,176.714699 349.303817,176.843348 C349.638959,176.971997 349.806354,177.347973 349.677705,177.683114 L348.618691,180.44194 L351.358614,179.334939 C351.69146,179.200461 352.0703,179.361269 352.204778,179.694114 C352.339257,180.02696 352.178448,180.4058 351.845603,180.540278 L349.275659,181.578603 L351.179399,183.482342 L352.164051,180.917236 C352.292699,180.582095 352.668676,180.414699 353.003817,180.543348 C353.338959,180.671997 353.506354,181.047973 353.377705,181.383114 L352.318691,184.14194 L355.058614,183.034939 C355.39146,182.900461 355.7703,183.061269 355.904778,183.394114 C356.039257,183.72696 355.878448,184.1058 355.545603,184.240278 L352.975659,185.278603 L355.007137,187.310081 L355.964051,184.817236 C356.092699,184.482095 356.468676,184.314699 356.803817,184.443348 C357.138959,184.571997 357.306354,184.947973 357.177705,185.283114 L356.118691,188.04194 L358.858614,186.934939 C359.19146,186.800461 359.5703,186.961269 359.704778,187.294114 C359.839257,187.62696 359.678448,188.0058 359.345603,188.140278 L356.846883,189.149827 L358.689828,190.992772 L359.633062,188.535562 C359.761711,188.200421 360.137687,188.033025 360.472829,188.161674 C360.80797,188.290323 360.975366,188.666299 360.846717,189.00144 L359.787703,191.760266 L362.527626,190.653265 C362.860471,190.518787 363.239312,190.679595 363.37379,191.012441 C363.508268,191.345286 363.34746,191.724126 363.014615,191.858604 L360.551018,192.853962 Z M375.502944,211.902944 C376.828427,211.902944 377.902944,210.828427 377.902944,209.502944 C377.902944,208.17746 376.828427,207.102944 375.502944,207.102944 C374.17746,207.102944 373.102944,208.17746 373.102944,209.502944 C373.102944,210.828427 374.17746,211.902944 375.502944,211.902944 Z" id="Combined-Shape"></path>
        </g>
    </g>
</svg>
