<svg xmlns="http://www.w3.org/2000/svg" viewBox="0 0 16 16">
  <g fill-rule="evenodd" transform="translate(2)">
    <path d="M8.42588421,15.1149851 L2.49537895,15.1149851 C1.59106316,15.1149851 0.825578947,14.5817313 0.810757895,13.9462687 L1.63436842,5.54901493 C2.29494737,5.84226866 3.51803158,6.2519403 5.19628421,6.2520597 L5.19674737,6.2520597 C6.52334737,6.2520597 7.89522105,5.99510448 9.28087368,5.48752239 L10.1106211,13.9462687 C10.0956842,14.5817313 9.33031579,15.1149851 8.42588421,15.1149851 M10.9192947,13.8852537 L10.0344316,4.86340299 C10.0214632,4.73301493 9.95025263,4.61647761 9.84175789,4.54829851 C9.73314737,4.48023881 9.59998947,4.46865672 9.48188421,4.51689552 C8.02166316,5.11367164 6.5802,5.41623881 5.19674737,5.41623881 L5.1964,5.41623881 C2.88697895,5.4161194 1.518,4.55940299 1.50549474,4.55140299 C1.38681053,4.47462687 1.23813684,4.46650746 1.11204211,4.53002985 C0.986178947,4.59355224 0.901073684,4.71952239 0.886947368,4.86340299 L0.00208421053,13.8852537 C0.000694736842,13.8992239 0,13.9134328 0,13.927403 C0,15.0429851 1.11945263,15.950806 2.49537895,15.950806 L8.42588421,15.950806 C9.80192632,15.950806 10.9213789,15.0429851 10.9213789,13.927403 C10.9213789,13.9134328 10.9206842,13.8992239 10.9192947,13.8852537"/>
    <path d="M5.98028316,9.29000597 C6.19032526,9.52773731 6.29592526,9.39245373 6.46439895,9.32809552 C6.59940947,9.5912597 6.65302,10.7852896 5.77139895,11.1448119 C5.79386211,9.94278209 5.80590421,8.65657313 5.80590421,8.65657313 C5.80590421,8.6231403 5.77823053,8.61311045 5.75345158,8.61561791 C5.51156737,8.65060299 5.08129368,9.08940896 4.74967263,9.46039403 C4.93146211,9.76976716 5.16466211,9.49143881 5.34749368,9.4150209 C5.34691474,9.46576716 5.30476737,10.3523343 5.32410421,11.2537075 C4.41550421,11.324991 4.56139895,9.41693134 4.61431474,9.17239403 C4.63596737,8.97681194 4.02992526,9.40928955 3.72875684,9.69800597 C3.82300947,9.87436418 3.95582,9.83890149 4.12278842,9.77334925 C4.06223053,10.6301851 4.64488316,11.4083343 5.32711474,11.3895881 C5.35247263,12.2710209 5.44070421,13.1271403 5.68895684,13.1882746 C5.72195684,13.1966328 5.74882,12.2926328 5.76873579,11.2907224 C7.40646211,10.7663045 6.78305158,8.75269254 6.78305158,8.75269254 C6.75178842,8.63985672 6.50793579,8.80272239 5.98028316,9.29000597"/>
    <polygon points="6.27 12.353 6.56 12.652 6.85 12.353 6.56 12.053"/>
    <path d="M3.57035684,4.70710448 C3.79417789,4.70710448 3.97562,4.52 3.97562,4.28919403 L3.97562,2.4881194 C3.97562,1.57707463 4.69444105,0.835820896 5.57791474,0.835820896 C6.46138842,0.835820896 7.18009368,1.57707463 7.18009368,2.4881194 L7.18009368,4.28919403 C7.18009368,4.52 7.36153579,4.70710448 7.58535684,4.70710448 C7.80929368,4.70710448 7.99062,4.52 7.99062,4.28919403 L7.99062,2.4881194 C7.99062,1.1161791 6.90833579,0 5.57791474,0 C4.24749368,0 3.16509368,1.1161791 3.16509368,2.4881194 L3.16509368,4.28919403 C3.16509368,4.52 3.34653579,4.70710448 3.57035684,4.70710448"/>
  </g>
</svg>
