<?xml version="1.0" encoding="UTF-8"?>
<svg viewBox="0 0 50 34" version="1.1" xmlns="http://www.w3.org/2000/svg" xmlns:xlink="http://www.w3.org/1999/xlink">
    <!-- Generator: Sketch 53.2 (72643) - https://sketchapp.com -->
    <title>Combined Shape</title>
    <desc>Created with Sketch.</desc>
    <g id="Icons---Kids" stroke="none" stroke-width="1" fill="none" fill-rule="evenodd">
        <g id="Icons/Kids_icons_board" transform="translate(-552.000000, -237.000000)" fill="#005589" fill-rule="nonzero">
            <g id="Icons" transform="translate(16.000000, 104.000000)">
                <g id="Assets/Icons/Equipments/Room/Bowls" transform="translate(531.000000, 118.000000)">
                    <path d="M7,16.5 C6.72385763,16.5 6.5,16.7238576 6.5,17 L6.5,30 C6.5,37.4558441 12.5441559,43.5 20,43.5 L40,43.5 C47.4558441,43.5 53.5,37.4558441 53.5,30 L53.5,17 C53.5,16.7238576 53.2761424,16.5 53,16.5 L7,16.5 Z M7,15 L53,15 C54.1045695,15 55,15.8954305 55,17 L55,30 C55,38.2842712 48.2842712,45 40,45 L20,45 C11.7157288,45 5,38.2842712 5,30 L5,17 C5,15.8954305 5.8954305,15 7,15 Z M20,48.25 C19.5857864,48.25 19.25,47.9142136 19.25,47.5 C19.25,47.0857864 19.5857864,46.75 20,46.75 L40,46.75 C40.4142136,46.75 40.75,47.0857864 40.75,47.5 C40.75,47.9142136 40.4142136,48.25 40,48.25 L20,48.25 Z" id="Combined-Shape"></path>
                </g>
            </g>
        </g>
    </g>
</svg>
