<svg xmlns="http://www.w3.org/2000/svg" viewBox="0 0 500 639.9"><g><path d="M250 135.1c102.9 0 190.8 33.1 224.4 79.4l25.6-.3C466.8 121.2 340.4 91 250 91S33.2 121.2 0 214.2l25.6.3c33.6-46.3 121.5-79.4 224.4-79.4zM249.8 0L178 34.8l14.3 46.6h115l14.2-46.6"/><path d="M437 447.8c-3.6 5.8 9.8 6 13 8.9 3.2 3-4.9 23.7-12.5 32.7-12.1 14.3-31.3 29.6-31.3 29.6s0-26-.5-30.9c-.5-4.9-2.6.9-3.6 12.1-3.3 37.2-23.3 56.8-23.3 56.8-12.2-14.1-3.6-31.3-3.6-31.3 25.8-74.9 64.9-92.5 84.6-96.5.2-4 .3-8.1.5-12.2-9.1-3-20.5 1-27.5 11.8-12.4 19-25.7 30.7-40.5 38.7-4.4 2.3-14.5-17.6-11.8-38.2.3-2.1-7.6 34.2-9.6 38.8C358.6 496.2 320 511 320 511c-4.9-39.8 5.8-56 5.8-56 8.9-11.2 17.9-20.6 40.7-35.3 22.8-14.8 58.7-16.6 58.7-16.6 17.2-1.1 30.6 3.5 35.5 5.6 0-.4 0-.9.1-1.3-29.7-32.3-82.5-16.7-119.1 5.4-3.2-12 18.4-31.4 17.1-30.7-9.4 4.5-13.2 7.4-18.9 13.7-9.2 10.3-13.1 19.4-13.1 19.4s-17.8-27 8.3-51.2c11.3-10.5 26.8-9.1 39.8-7.2 33.1 4.8 68.7 21.8 86.3 39.7.2-5.6.5-11.3.7-16.9-25-29.2-67.4-25.4-70.4-29.7-1.5-2.1 16.5-19.3 16.5-19.3-13.4 4.5-24 18.5-24 18.5s-20.3-5.7-28.4-2.4c2.4-7.8 6-17.8 27-24.7 39.8-13.1 66.7 15.7 80.1 36.2 2.4-59.9 4.7-116.1 5.4-135.9-30.3-44.4-117.9-77.6-218.1-77.6-100.2 0-187.8 33.1-218.1 77.6.2 5.7.6 14.3 1 25.2 12.8-8.7 29-13.6 48.8-7 19.2 6.3 22.5 15.5 24.8 22.6-7.4-3-26 2.2-26 2.2s.1-11.8-12.2-15.9c0 0 6.7 14.8 5.3 16.7-1.9 2.6-20.8 5.4-39.5 13.3.2 4 .3 8.1.5 12.3 17.9-9.8 39.9-17.8 59.7-20.6 11.9-1.7 24.9-1.9 36.3 6.5 11.4 8.3 13.5 16.7 12.3 23.2-.4 2.2-9.6-12.6-8.6-10.7 7.3 13.9-1.5 35.9-1.5 35.9s-22.4 1.4-34.6-15.8c-3.5-4.9-6.7-12.9-14.8-18.2 2.2 4.1 8.3 20.3 6.7 20.5-7.8 1-17.8.5-20.4.6-13 .7-24.7-2.1-34.4-3.6.1 3.6.3 7.2.4 10.8 30.2 1.2 77.2 8.7 97.9 42.2 0 0 13.6 21.2 5.3 51.3 0 0-41.5-13.6-48.8-39-1.3-4.4-6.8-38-6.6-36.1 2.5 18.9-6.8 37.2-10.8 35-13.2-7.1-25.2-17.4-36.2-34 .3 7.3.6 14.7.9 22.2 19.5 16.1 40.8 40.4 48.7 73.8 0 0 2.6 9.5-1.1 20.2 0 0-10.3-17.2-11.5-38.1l-4.1 17.6S51.6 416.8 39 402.7c2.2 54.6 4.1 105.6 5.1 127.9 1.1 26.3 15.6 46.5 34.5 56.8 39 21.2 82 1.1 95.2-9.2 13.2-10.4 25-22.3 35.5-35.2 17.1-21.1 26.6-47.1 21.9-66.9-5.6-23.4-22.4-39.6-43.8-41.7-19.3-1.9-36.5 8.2-42 23.1-5.1 13.7.9 31.4 13.1 39.2 13.5 8.5 30.3 1.3 34.6-11.3 3.3-9.9-.8-16.1-5.5-21.3-1.9-1.8-.7-3.6 1.1-3.3 3.5.5 9.7 6.1 11.6 13.3 3.4 12.8-5.9 29.7-23.2 33.5-11 2.4-21.3-2.8-25.5-6.1-19.1-14.8-18.3-37.2-13.2-48.9 9.5-21.7 33-27.3 44.1-27.2 35.7.1 53.8 28.4 58.1 49.8 5.4 26.5-8.9 51.9-17.8 64.1 3-2.3 6-4.4 8.9-6.1 0 0 23.4-13.7 51.2-10.1 32.7 4.2 45.5 33.7 43 51.6-4 28.9-26.2 38.1-42.7 36.7-22.1-1.9-31.9-20.4-30.2-35.3.9-7.9 4.9-14.9 11.1-19.9 6.3-5 9.8-1.2 4.8 5.4-13.6 18-2.1 37.8 15.6 39.4 20.5 1.9 29.9-14.5 31.2-27.6 2.2-23-18.9-38.8-35.6-40.4-41.7-3.9-57.6 31.2-59 45.7-1.6 16.3 2.3 30 9.7 40.8 12 17.6 35.8 23.8 66.5 19.5 89.1-12.4 156.7-58.1 158.6-108.2.7-17.8 2.1-53.8 3.8-95.3-10.9-1.9-19.7 7.5-22.7 12.3zM198.8 342.2H156V212.5c23.8 0 42.8 19.3 42.8 43.1v86.6zm93.6 0h-86v-86.6c0-23.8 19.3-43.1 43.1-43.1 23.7 0 43 19.3 43 43.1l-.1 86.6zm7.6 0v-86.6c0-23.8 19.1-43.1 42.8-43.1v129.7H300z"/></g></svg>
