<svg viewBox="0 0 500 444" version="1.1" xmlns="http://www.w3.org/2000/svg" xmlns:xlink="http://www.w3.org/1999/xlink">
    <defs></defs>
    <g id="Page-1" stroke-width="1" fill-rule="evenodd">
        <path d="M481.019356,405.475829 L27.4685114,405.475829 C16.9878115,405.475829 8.49171388,413.998557 8.49171388,424.515966 C8.49171388,435.025659 16.9878115,443.548387 27.4685114,443.548387 L481.019356,443.548387 C491.503902,443.548387 500,435.025659 500,424.515966 C500,413.998557 491.503902,405.475829 481.019356,405.475829 Z M33.2338578,107.681911 C34.4761573,107.681911 35.7453797,107.531441 37.0030637,107.222787 C45.4607,105.143226 50.6337427,96.5780575 48.5606795,88.0939113 L31.0838721,16.5979068 C29.0108089,8.11761877 20.4685577,2.92450334 12.0147675,5.00406442 C3.55713114,7.0836255 -1.61591155,15.6487936 0.457151658,24.1329398 L17.9378052,95.6289443 C19.699332,102.847606 26.1415971,107.681911 33.2338578,107.681911 Z M327.08576,266.716248 C319.431964,259.976001 307.205122,257.055356 297.343649,259.613331 L222.763373,278.973698 C212.763439,281.570256 197.502002,276.789966 190.7482,268.950136 L60.6452149,117.882949 C54.956791,111.27388 44.9991646,110.548541 38.4069005,116.254795 C31.8223287,121.968765 31.0954105,131.949887 36.7876805,138.562814 L166.890666,289.630002 C181.544415,306.64845 208.963464,315.229051 230.663321,309.596103 L304.897445,290.328333 C305.362826,290.343766 306.128206,290.5251 306.55128,290.725726 L396.489146,369.918807 C399.48528,372.557805 403.192948,373.850296 406.889078,373.850296 C411.265972,373.850296 415.623635,372.029234 418.742845,368.46813 C424.485115,361.905359 423.838966,351.908805 417.292855,346.148536 L327.08576,266.716248 Z M92.9257706,80.2540817 C115.014086,80.2540817 132.925506,62.2903779 132.925506,40.12897 C132.925506,17.9675621 115.014086,0 92.9257706,0 C70.833609,0 52.9260352,17.9675621 52.9260352,40.12897 C52.9260352,62.2903779 70.833609,80.2540817 92.9257706,80.2540817 Z M105.948761,89.1626282 C97.2295882,96.0031881 84.1450594,113.770125 104.391079,141.109215 L199.290451,253.123866 C205.913484,260.921256 216.440338,264.165988 226.286427,261.442111 L318.697354,235.862352 L410.450593,315.823212 C415.427483,320.155952 421.562057,322.281811 427.673556,322.281811 C435.019661,322.281811 442.323459,319.206839 447.523424,313.207363 C457.042592,302.215397 455.873369,285.567334 444.915749,276.022187 L342.524119,186.79397 C335.878009,181.002836 326.785762,178.934849 318.297356,181.284483 L244.247846,201.783014 L156.179198,99.317368 C137.875473,77.4453239 114.902548,82.1291591 105.948761,89.1626282 Z" id="icon-business-class"></path>
    </g>
</svg>
