<svg xmlns="http://www.w3.org/2000/svg" viewBox="0 0 500 355.5"><g><path d="M67.8 276.6c12.7-7 22.8-15 33.4-23.6 0-7.2.2-14.3.6-21.5.5-9.8 1.4-19.5 2.6-29.3 2.4-19.4 6.2-38.7 11.7-57.5 5.5-18.8 12.7-37.2 22.3-54.3 8.2-14.5 18.1-28.1 30-39.8-.9.6-1.7 1.1-2.6 1.7C67.5 119 52.3 221.6 61.7 279.8c2-1 4-2.1 6.1-3.2z"/><path d="M193.6 195.4c.3-1.5.9-2.8 1.5-4.1 3.1-5.8 19.4-22.4 19.4-22.4l-9.9-7.2-14.9 8.9c-.6.4-1.3.6-2 .6-1.3 0-2.6-.7-3.3-1.9-1.1-1.8-.5-4.2 1.3-5.3l9.8-5.9-11-2.6c-2.1-.5-3.4-2.6-2.9-4.7s2.6-3.4 4.7-2.9l11 2.6-5.8-9.9c-1.1-1.8-.5-4.2 1.4-5.3 1.8-1.1 4.2-.5 5.3 1.4l5.9 10 2.7-11c.5-2.1 2.6-3.4 4.7-2.8 2.1.5 3.4 2.6 2.8 4.7l-4 16.1c6.9 2.4 19 7.4 21.5 13.5 1.1 2.5 0 8.1-2.8 14.5 18.4-5.8 36.7-9.2 54.2-8.7 4.4.1 8.6.1 12.8-.2-7.4-4.6-11.5-8.4-12.5-10.3-2.1-4 8.3-27.3 11.4-34.1l-12.3-9.2c-1.7-1.3-2.1-3.7-.8-5.4 1.3-1.7 3.7-2.1 5.4-.8l9.2 6.9-1.7-11.2c-.3-2.1 1.1-4.1 3.2-4.4 2.1-.3 4.1 1.1 4.4 3.2l1.7 11.2 6.9-9.1c1.3-1.7 3.7-2 5.4-.7 1.7 1.3 2 3.7.7 5.4l-7 9.2 11.2-1.6c2.1-.3 4.1 1.2 4.4 3.3.3 2.1-1.2 4.1-3.3 4.4l-18.3 2.7-3 21.4s7.9 4.4 21.7 7.5c4.3.9 7.5 2.3 9.7 3.8 10.3-4.1 20-9.8 29.4-17.2 1.5-2.2 1.9-9.6 8.7-15.1 7.4-6 35.7-20.1 44.6-4.2 4.4 7.9-3 22.1-11.5 33.5-7.9 10.7-13.5 6.6-18.5 11.3-11.3 10.7-22.5 19.3-33.2 26.2-1.1 6.8-.9 17.3 0 20.5 6.4 6 11.4 10 18.1 14.7l11.4-11.3c1.5-1.5 4-1.5 5.5 0s1.5 4 0 5.5l-8.2 8.1 11.3-.1c2.1 0 3.9 1.7 3.9 3.9 0 2.1-1.7 3.9-3.9 3.9l-11.3.1 8 8.2c1.5 1.5 1.5 4-.1 5.5-.8.7-1.7 1.1-2.7 1.1-1 0-2-.4-2.8-1.2l-8.1-8.3v11.3c0 2.1-1.7 3.9-3.9 3.9-2.1 0-3.9-1.8-3.9-3.9l.1-15.9c-8.5-4.9-26.3-13.7-30.6-18.7-3-3.5-4-9.4-4.1-15.2-25.1 12.2-46.4 15.7-59.7 16.9-9.9.9-21.2.5-33.1.2 6.3 4.4 11.2 8.8 10.6 12.6-1.1 6.3-6.5 14.2-12.2 21.3l13.8 8.2c1.8 1.1 2.5 3.5 1.4 5.3-.7 1.2-2 1.9-3.3 1.9-.7 0-1.4-.2-2-.5l-9.9-5.9 2.9 11c.6 2.1-.7 4.2-2.7 4.8-.3.1-.7.1-1 .1-1.7 0-3.3-1.1-3.7-2.9l-2.9-10.9-5.9 9.8c-.7 1.2-2 1.9-3.3 1.9-.7 0-1.4-.2-2-.6-1.8-1.1-2.4-3.5-1.3-5.3l6-9.9-10.9 2.8c-.3.1-.7.1-1 .1-1.7 0-3.3-1.2-3.8-2.9-.5-2.1.7-4.2 2.8-4.7l15.9-4.1 5.7-16.3c-6.6-1.5-16.9-8.8-23.7-15.6-14.3.8-28.6 3-41.8 8.8-24.7 10.8-38.8 18.9-51.3 26.6 6.9 11.3 16.9 20.7 28.2 28 12.8 8.3 27 14.4 41.7 18.8 14.7 4.4 30 7.3 45.3 8.7 15.3 1.4 30.9 1.6 46.1-.2 7.6-.9 15.1-2.3 22.6-4.3 7.5-1.9 14.8-4.2 22-6.9 14.4-5.3 28.4-12.2 41.5-20.2 26.2-16.1 49.6-37.2 66.9-62.6 4.3-6.3 8.2-13 11.5-19.8 3.3-6.8 6.1-14.1 8.8-21.3 5.3-14.5 9.6-29.4 12.2-44.5 2.6-15.1 3.5-30.5 1.6-45.6-1.9-15-6.9-29.6-15.5-41.8-4.3-6.1-9.4-11.6-15.3-16-3-2.3-6-4.1-9.4-5.8-3.3-1.7-6.8-3.2-10.3-4.4-7-2.4-14.4-3.8-21.7-3.8-7.3 0-14.6 1.4-21.4 4.2-6.7 2.7-13 6.8-17.9 12-1.2 1.3-2.3 2.7-3.3 4.1-1 1.4-1.7 2.8-2.5 4.5-1.5 3.3-2.7 6.8-3.6 10.3-1.7 7.1-2 14.5-.6 21.6 1.4 7 4.4 13.8 9.2 18.4.6.5 1.3 1.2 2.3 1.9 1.1.8 2.5 1.6 4 2.5 3.1 1.7 7.1 3.5 11.8 4.6 4.7 1.1 10 1.3 15.2.1 5.2-1.1 10.6-3.7 14.9-7.1 4.3-3.5 7.8-8 9.9-12.5 2.1-4.5 2.7-9.1 2.1-12.9-.5-3.8-2-6.9-3.3-9-1.3-2.1-2.4-3.4-2.7-3.7-3.3-3.8-5.3-5.7-5.5-6.6-.3-.9.9-.7 3.1.6 1.5.9 4 2.9 6.7 6.1 2.6 3.2 5.4 7.9 6 13.8.7 5.9-1.2 12.8-5 18.7-1.9 3-4.3 5.8-7 8.2-2.7 2.5-5.9 4.5-9.2 6.2-6.7 3.4-14.3 4.7-21.4 4-7.1-.7-13.5-3.2-18.7-6.1-1.3-.7-2.5-1.5-3.7-2.3-1.2-.8-2.3-1.7-3.2-2.6-1.9-1.8-3.4-3.7-4.6-5.5-2.3-3.6-3.5-6.5-4-8-2.8-7.4-3.6-15.4-3-23.2.7-7.8 3-15.5 6.6-22.5 2-3.6 4.6-6.6 7.4-9.4 2.9-2.7 6-5.1 9.4-7.1 1.1-.7 2.3-1.3 3.5-1.9-11.1 1.6-22 4.6-32.4 9.1-13.1 5.6-25.1 13.5-35.7 23.2-10.5 9.5-19.5 20.7-27 32.8 21.8 13.7-25.8 52.6-25.8 52.6-4.3-40.6 0-62.6 19.5-55.6 7.7-12.2 16.9-23.5 27.5-33.3 10.8-9.9 23.1-18.1 36.5-24 13.3-5.9 27.7-9.5 42.1-10.9 1.5-.2 8.4-.8 15.3-.4h.9c7-.9 14.2-.5 21.1.8 7.7 1.5 15.1 4.3 22 7.9 14.1 7.3 25 19.6 32.2 33.5 7.2 14 10.6 29.6 11.3 45.1.7 15.6-1.1 31.1-4.4 46.2-.3 1.6-.7 3.2-1.1 4.7C493.6 82.1 500 17.5 500 17.5S331.7-30.7 199.5 32.9c-1 .6-2 1.2-2.9 1.8-6.4 4.1-12.7 9.1-14.5 10.6-14.8 12.4-27 27.8-36.7 44.7-9.7 16.9-17 35.2-22.5 54-5.5 18.8-9.2 38.2-11.5 57.7-1.2 9.8-2 19.6-2.5 29.4-.2 5.3-.4 10.6-.4 15.9 12.2-9.9 26-20.6 45.7-31.5 12.8-7.1 26-14 39.4-20.1z"/><path d="M360.1 296.5c-13.4 7.8-27.5 14.4-42.2 19.5-7.3 2.5-14.8 4.8-22.4 6.6-7.6 1.9-15.4 3.1-23.1 3.8-15.5 1.5-31.1 1.2-46.6-.4-15.4-1.6-30.8-4.6-45.7-9.2-14.9-4.6-29.4-10.8-42.6-19.6-11.6-7.6-22.2-17.5-29.6-29.6-3.3 2.1-6.6 4.1-10.1 6.2-30.5 18.5-54.7 19.1-68.9 17.5-18.3-1.5-29.1-7-29.1-7L.1 308s32.5 8.3 65.2 4.2c.1.3.1.4.1.4s143.8 94.6 279.1 2.7c17.2-11.7 32.6-25.3 46.3-40-9.7 7.9-20 15-30.7 21.2z"/></g></svg>
