<svg xmlns="http://www.w3.org/2000/svg" viewBox="0 0 28.28 28.25"><defs></defs><title>Asset 1</title><g id="Layer_2" data-name="Layer 2"><g id="modules"><g id="_Group_" data-name="&lt;Group&gt;"><path id="_Compound_Path_" data-name="&lt;Compound Path&gt;" class="cls-1" d="M14,25.59h-.84C10,25.59,7,24,4.35,23.8v1.4c0,.77-.52,3.06-1.29,3.06H1.91C1.14,28.25.37,26,.37,25.19V22.28l0-.9A22.45,22.45,0,0,1,0,17.16,21.36,21.36,0,0,1,.6,12a6.92,6.92,0,0,1,.27-.85l.1-.25,1.4-9.45A.61.61,0,0,1,2.78.94C6,.08,13.73,0,14,0S22,.08,25.2.94a.61.61,0,0,1,.41.49L27,10.89l.09.25c.09.25.19.54.27.85A21.45,21.45,0,0,1,28,17.16a24.8,24.8,0,0,1,0,4.21l.31.9v2.91c0,.77-1.44,3.06-2.21,3.06H24.92c-.77,0-.62-2.29-.62-3.06V23.8c-2.66.19-6.35,1.8-9.47,1.8ZM26.31,14.32c0-.93-1.22-1.45-2.63-1.17s-2.51,1.26-2.47,2.19,1.22,1.45,2.65,1.16S26.37,15.25,26.31,14.32ZM13.94,1.21A46.51,46.51,0,0,0,4,2.06a.41.41,0,0,0-.31.33L3.45,9.24c0,1.2,1.34,1.74,10.49,1.77s10.53-.57,10.5-1.77l-.27-6.85a.39.39,0,0,0-.29-.33A46.54,46.54,0,0,0,13.94,1.21ZM1.56,14.32c0,.93,1.06,1.9,2.47,2.18s2.59-.24,2.63-1.16-1.05-1.91-2.46-2.19S1.62,13.39,1.56,14.32Z"/></g></g></g></svg>
