<svg xmlns="http://www.w3.org/2000/svg" viewBox="0 0 500 464.8"><g><path d="M165.8 105.3c27.3 7.6 41.5-5.2 40.7-14.9-.5-6-4-12.6-10.3-15.7 4 5.2 6.4 12.6 1.6 17.1-6.5 6-17.2 4.7-24 2-22.4-8.9-38.3-15.9-64.4-7.4 16.9 7.8.9 20.8 0 22.4.3.4 25.5-12.2 56.4-3.5zM251.6 59.1l-1-36.1c24.3 11.3 6.7 30.1 1 36.1zM401.2 340.9c.8.1 1.6.3 2.3.5 6.6 1.6 12.8 5.6 16.9 11.2 4.2 5.6 6.2 12.4 6.8 19.1.2 1.7.2 3.3.2 5.1 0 1.8-.2 3.5-.5 5.2-.6 3.4-1.7 6.7-3.1 9.8-2.7 6.2-6.5 11.7-10.7 16.7-8.7 10.2-19 18.5-30 25.8-11 7.2-22.6 13.4-34.7 18.4-8.5 3.6-17.2 6.6-26.1 9.1 25.8-3.7 49.7-10.2 69.9-19.3 56.1-26.5 58.3-64.3 61.7-89 3.1-22.3 15.3-41.2 45.9-42.6-5.9-8.4-14.9-12-26.4-10.4-25.2 3.4-38.4 23.4-72.2 40.4z"/><path d="M250.6 22.4L250 .2l-4.1-.2.5 174.2-22.2 17.4c-11.5-50.2-43.8-61.3-43.8-61.3l-69.7 30.2-3.1-85.1-3.4-.2-2.7 89.2L0 208.4c33.7 33.6 49.9 71.8 51.6 117.9-13.3-4.9-23.6-21-23.6-21 1.7 106.1 122.4 159.6 227.5 159.6 40.7 0 69.2-8.9 91.9-19 11.4-5.1 22.3-11.1 32.5-18.1 10.2-7 19.7-15.1 27.4-24.4 7.9-9.4 14.3-20.4 12.7-31.9-.6-5.8-2.4-11.4-5.8-15.6-3.4-4.3-8.4-7.2-13.7-8.3-5.1-1-11.1 0-15.3 2.9-2.1 1.4-3.8 3.3-5.1 5.6-.6 1.1-1.1 2.3-1.6 3.6-.4 1.2-.6 2.4-.7 3.7-.4 5.1 1.4 10.7 5 13.9 1.8 1.6 3.9 2.7 6.3 3.1 2.2.4 4.4.1 6.4-.9.5-.2 1.5-.8 2.6-1.9 1.1-1 2.1-2.6 2.5-4.1.4-1.5.1-2.7-.3-3.5-.4-.8-1-1.3-1.1-1.4-1-.9-.4-2.2.9-2.5.9-.2 2.7.4 4 2.4.7 1 1.2 2.3 1.3 3.7.1 1.4-.1 3-.6 4.5-1 3-3.2 5.4-5.3 6.9-2.1 1.5-4 2-4.7 2.2-6.6 1.8-13.9-1.1-18.1-6.4-4.2-5.3-5.8-12.4-4.6-19.1.4-2 1-3.8 1.8-5.6-113.9 51.4-224.6 33.2-258.2-7.8-74-90.6 82.6-156.8 95.3-65.7-6.8-16.9-45.5-27.5-39.5-5.5 6.2 18.7 55.5 1.1 43.4 48.9-8.8-21.5-40.9-18.6-39.7 2.1 1.2 20.7 26 38.7 53.6 41.6 46.7 4.9 127.8-14.5 233.6-107.2C487 165.9 375.8 73 375.8 73l-121.3 94.9-2.9-107.4c8.3-3 47.5-18.6 94.5-5.5 46.5 12.9 70.8-8.9 69.4-25.4-.9-10.2-6.9-21.5-17.6-26.8 6.8 8.9 10.9 21.5 2.7 29.1-11 10.2-29.4 8-40.9 3.4C321.7 20 295 7.9 250.6 22.4z"/></g></svg>
