<svg viewBox="0 0 543 485" version="1.1" xmlns="http://www.w3.org/2000/svg" xmlns:xlink="http://www.w3.org/1999/xlink">
    <title>cardioTraining</title>
    <defs></defs>
    <g id="Page-1" stroke-width="1" fill-rule="evenodd">
        <g id="cardioTraining" transform="translate(-11.000000, 0.000000)" fill-rule="nonzero">
            <path d="M264.673913,158.695652 C264.673913,153.349185 269.539743,149.456522 273.913043,149.456522 C274.760386,149.543474 274.77373,150.143955 274.879227,154.891304 L273.913043,154.891304 L273.913043,149.456522 C280.461075,149.684788 285.326078,153.108897 285.325802,158.656274 L287.199677,287.9537 L295.108696,256.521739 C295.108696,250.673139 298.499226,247.282609 304.347826,247.282609 L373.913043,247.282609 C377.58773,247.282609 383.152174,252.847052 383.152174,256.521739 C383.152174,260.89504 379.25951,265.76087 373.913043,265.76087 L312.989428,265.76087 L289.673913,358.695652 C289.673913,364.544252 286.283382,367.934783 280.434783,367.934783 C276.061482,367.934783 271.195652,364.042119 271.198217,358.813688 L265.484927,227.408019 L257.065217,260.869565 C257.065217,266.718165 253.674687,270.108696 247.826087,270.108696 L176.086957,270.108696 C172.41227,270.108696 166.847826,264.544252 166.847826,260.869565 C166.847826,256.496264 170.74049,251.630435 176.086957,251.630435 L241.358398,251.630435 L264.673913,158.695652 Z M273.913043,154.891304 L274.879227,154.891304 C274.849034,149.456522 274.849034,149.456522 274.667874,149.456522 L273.913043,149.456522 L273.913043,154.891304 C277.480885,154.891304 279.891304,156.49825 279.891304,158.695652 L282.065503,308.735031 L282.367327,329.560872 L300.462344,257.180803 C300.543478,253.674687 301.500774,252.717391 304.347826,252.717391 L373.913043,252.717391 C374.586183,252.717391 377.717391,255.8486 377.717391,256.521739 C377.717391,258.126699 375.957881,260.326087 373.913043,260.326087 L310.869565,260.326087 L308.233308,262.384414 L284.320265,358.036588 C284.23913,361.542704 283.281835,362.5 280.434783,362.5 C278.829823,362.5 276.630435,360.74049 276.630435,358.695652 L270.106131,208.577616 L269.29334,189.883419 L251.711569,260.210501 C251.630435,263.716618 250.673139,264.673913 247.826087,264.673913 L176.086957,264.673913 C175.413817,264.673913 172.282609,261.542704 172.282609,260.869565 C172.282609,259.264605 174.042119,257.065217 176.086957,257.065217 L243.478261,257.065217 L246.114518,255.00689 L270.027561,159.354716 C270.108696,156.650815 272.308084,154.891304 273.913043,154.891304 Z M541.304348,78.2608696 C519.565217,30.4347826 471.73913,0 417.391304,0 C358.695652,0 317.391304,32.6086957 282.608696,71.7391304 C250,34.7826087 202.173913,9.65411326e-15 147.826087,9.65411326e-15 C93.4782609,9.65411326e-15 45.6521739,30.4347826 23.9130435,78.2608696 C-4.34782609,141.304348 15.2173913,217.391304 76.0869565,289.130435 C136.956522,358.695652 263.043478,467.391304 269.565217,471.73913 L282.608696,484.782609 L295.652174,471.73913 C300,467.391304 428.26087,358.695652 489.130435,289.130435 C550,219.565217 569.565217,141.304348 541.304348,78.2608696 Z M456.521739,260.869565 C410.869565,315.217391 317.391304,395.652174 282.608696,426.086957 C247.826087,395.652174 156.521739,313.043478 108.695652,260.869565 C58.6956522,202.173913 41.3043478,143.478261 63.0434783,95.6521739 C78.2608696,63.0434783 110.869565,43.4782609 147.826087,43.4782609 C197.826087,43.4782609 243.478261,91.3043478 265.217391,119.565217 L282.608696,141.304348 L300,119.565217 C334.782609,73.9130435 369.565217,43.4782609 417.391304,43.4782609 C454.347826,43.4782609 486.956522,63.0434783 502.173913,97.826087 C523.913043,143.478261 506.521739,204.347826 456.521739,260.869565 Z" id="Shape"></path>
        </g>
    </g>
</svg>
