<svg viewBox="0 0 492 491" version="1.1" xmlns="http://www.w3.org/2000/svg" xmlns:xlink="http://www.w3.org/1999/xlink">
    <title>carpark</title>
    <defs></defs>
    <g id="Page-1" stroke-width="1" fill-rule="evenodd">
        <g id="carpark" transform="translate(-2.000000, -5.000000)" fill-rule="nonzero">
            <path d="M464.117647,466.470588 L464.117647,34.7058824 L32.3529412,34.7058824 L32.3529412,466.470588 L464.117647,466.470588 Z M472.941176,495.882353 L23.5294118,495.882353 C12.4743914,495.882353 2.94117647,486.984686 2.94117647,475.294118 L2.94117647,25.8823529 C2.94117647,14.1917849 12.4743914,5.29411765 23.5294118,5.29411765 L472.941176,5.29411765 C484.592423,5.29411765 493.529412,14.2311066 493.529412,25.8823529 L493.529412,475.294118 C493.529412,486.984686 483.996197,495.882353 472.941176,495.882353 Z M130,96.4705882 L268.823529,96.4705882 C307.058824,96.4705882 338.235294,105.882353 361.176471,124.117647 C384.117647,142.352941 395.882353,169.411765 395.882353,205.294118 C395.882353,238.235294 384.117647,264.705882 360.588235,284.117647 C337.058824,303.529412 306.470588,313.529412 268.823529,313.529412 L194.117647,313.529412 L194.117647,421.176471 L130,421.176471 L130,96.4705882 Z M330.588235,204.705882 C330.588235,187.647059 324.705882,174.117647 313.529412,162.941176 C302.352941,151.764706 286.470588,146.470588 266.470588,146.470588 L194.117647,146.470588 L194.117647,263.529412 L266.470588,263.529412 C285.882353,263.529412 301.764706,257.647059 312.941176,245.882353 C324.705882,234.117647 330.588235,220.588235 330.588235,204.705882 Z" id="Shape"></path>
        </g>
    </g>
</svg>
