<svg id="Calque_1" data-name="Calque 1" xmlns="http://www.w3.org/2000/svg" viewBox="0 0 24 24"><defs></defs><title>Lecteur CD</title><path class="cls-1" d="M9.75,8.12A2.88,2.88,0,1,0,12.62,11,2.87,2.87,0,0,0,9.75,8.12Zm0,5A2.12,2.12,0,1,1,11.88,11,2.13,2.13,0,0,1,9.75,13.12Z"/><path class="cls-1" d="M23.5,11.22a.41.41,0,0,0-.3-.09l-4.12.59c0-.24,0-.48,0-.72A9.41,9.41,0,1,0,13,19.77a1.87,1.87,0,0,0,3.58-.67V19h0V14.82l6.26-.89v2.58A1.88,1.88,0,1,0,23.62,18V11.5A.36.36,0,0,0,23.5,11.22ZM9.75,19.62A8.62,8.62,0,1,1,18.38,11a7.36,7.36,0,0,1-.06.82l-2.13.31a.37.37,0,0,0-.32.37v5a1.83,1.83,0,0,0-1.12-.39A1.88,1.88,0,0,0,12.88,19v0A8.57,8.57,0,0,1,9.75,19.62Zm5,.5A1.12,1.12,0,1,1,15.87,19v0A1.12,1.12,0,0,1,14.75,20.12Zm1.87-6.05V12.83l6.26-.9v1.24Zm5.13,5.05A1.12,1.12,0,1,1,22.88,18,1.13,1.13,0,0,1,21.75,19.12Z"/></svg>
