<svg id="Calque_1" data-name="Calque 1" xmlns="http://www.w3.org/2000/svg" viewBox="0 0 24 24"><defs></defs><title>Lecteurs CD-DVD</title><path class="cls-1" d="M9.75,8.88a2.87,2.87,0,1,0,2.88,2.87A2.87,2.87,0,0,0,9.75,8.88Zm0,5a2.13,2.13,0,1,1,2.13-2.13A2.13,2.13,0,0,1,9.75,13.88Z"/><path class="cls-1" d="M23.5,11.72a.38.38,0,0,0-.3-.09l-4.1.58c0-.15,0-.3,0-.46a9.48,9.48,0,0,0-.32-2.38l4.4-3a.37.37,0,0,0,.16-.31.38.38,0,0,0-.16-.31L16.45,1.13a.35.35,0,0,0-.38,0,.36.36,0,0,0-.2.33V4.65A9.37,9.37,0,1,0,9.75,21.12a9.43,9.43,0,0,0,3.41-.64,1.86,1.86,0,0,0,3.45-.88.09.09,0,0,0,0-.05v0h0V15.32l6.25-.89V17a1.83,1.83,0,0,0-1.12-.39,1.88,1.88,0,1,0,1.87,1.88V12A.36.36,0,0,0,23.5,11.72ZM22.33,6.05,16.62,10V5.53h0V2.15ZM9.75,20.38A8.63,8.63,0,1,1,15.87,5.67v5a.38.38,0,0,0,.2.33.33.33,0,0,0,.17,0,.39.39,0,0,0,.21-.06l1.69-1.16a8.94,8.94,0,0,1,.24,1.93c0,.19,0,.38,0,.57l-2.16.31a.37.37,0,0,0-.32.37v5a1.83,1.83,0,0,0-1.12-.39,1.88,1.88,0,0,0-1.88,1.88,2.48,2.48,0,0,0,0,.27A8.45,8.45,0,0,1,9.75,20.38Zm5,.24a1.12,1.12,0,1,1,1.12-1.13v0A1.12,1.12,0,0,1,14.75,20.62Zm1.87-6.05V13.33l6.25-.9v1.24Zm5.13,5.05a1.12,1.12,0,1,1,1.12-1.12A1.13,1.13,0,0,1,21.75,19.62Z"/></svg>
