<svg xmlns="http://www.w3.org/2000/svg" viewBox="0 0 500 642.8"><path d="M198.3 452.3l62.6-84.5 27.3-1.4 42.3-70.2 137.6 126.5c17.3-42.8 35.5-97.3 31.3-164.2-3.4-54.8-21.7-93.7-46.9-121.3l-2.7-3c-2.1 5.9-7.7 10.2-14.4 10.2-8.4 0-15.3-6.8-15.3-15.3 0-6 3.4-11.1 8.4-13.6-1.1-.8-2.2-1.5-3.3-2.3-18.7-13.3-39.2-22.5-59.4-28.8V0H133v85.4C74.6 104 14.1 145.9 1.4 239.2c-.3 4.4-.5 8.7-.4 13.1.2 11.8 1.6 23.6 4.1 35.1 2.7 11.5 5.7 23.1 10.8 33.4C26 341.6 44.3 358 65.5 366.7c10.8 4.6 22.4 7.3 34.1 7.8 11.7.5 23.5-1 34-5.3 21.3-8.3 36.4-29.7 38.8-52.2 1.5-21.7-10.2-47.3-31.3-53.2-10.3-3-22.5-2.3-32 2.2-9.6 4.5-16.7 13.8-18.8 24.2-.2 1.2-.8 3.9-.5 7.3.2 3.4 1.3 7.6 3.2 11.3 3.6 7.6 10.4 11.9 10.9 12.1 3.1 1.7 2.6 3.5.5 3.7-1.6.2-5-.9-8.7-3.7-3.7-2.8-7.4-7.4-9.8-12.7-2.3-5.3-3.2-11.3-2.7-16.1.5-4.7 1.8-8.1 2.2-9.3 4.2-11.7 13.9-21.4 25.9-25.2 5.9-2 12.2-2.8 18.4-2.7 6.2 0 12.5 1.2 18.3 3.6 11.8 4.8 20.9 14.8 26.1 26.1 5.2 11.3 8 23.9 6.2 36.7-1.9 12.4-7 24.3-14.6 34.3-7.7 10-18.2 17.9-30.1 22.5-23.8 9.1-50.5 6.9-73.6-2.6-23.6-10-43.8-28.6-54.5-52.2-3.1-6.9-5.4-13.9-7.3-21C5.6 373 33.8 427.6 49.1 466.6 70.4 521 82.2 577.1 82.2 577.1l122 .7c-3.6 6.1-5.7 13.1-5.7 20.4 0 24.6 22.8 44.6 50.9 44.6 28.1 0 50.9-20 50.9-44.6 0-7.2-2-13.9-5.4-19.9l131 .7s-3.9-41.4 23.8-112.1c1.9-4.9 4.1-10 6.3-15.4-36.3-17.5-73.9-32.6-98.5-34.4-48.9-3.6-91.9 66.1-135.8 71.5-29.6 3.7-46.6-31.7-90.1-10-30.6 15.4-51.8 14.9-51.5 14.9l59.8-72.2 58.4 31zm202.9-193.2c-1.5 1.4-3 2.5-4.4 3.1-1.5.7-3.1 1-4.9 1-3.5 0-6.4-1.2-8.8-3.6-2.4-2.4-3.5-5.3-3.5-8.8 0-3.4 1.2-6.3 3.6-8.8 2.4-2.5 5.3-3.7 8.7-3.7 3.5 0 6.4 1.2 8.9 3.6 2.4 2.4 3.6 5.4 3.6 8.9 0 .7 0 1.5-.1 2.1-.1.6-.2 1.3-.4 1.8l20 11.6V243c-3.4-1.2-5.9-2.8-7.6-4.8-1.6-2-2.5-4.5-2.5-7.4 0-3.4 1.2-6.3 3.7-8.7 2.5-2.4 5.4-3.6 8.9-3.6 3.4 0 6.3 1.2 8.7 3.6 2.4 2.4 3.6 5.3 3.6 8.7 0 3-.8 5.6-2.5 7.6s-4.2 3.6-7.5 4.7v23.3l20.2-11.6c-.3-.8-.5-1.5-.6-2.1-.1-.6-.2-1.3-.2-1.8 0-3.5 1.2-6.5 3.6-8.9 2.4-2.4 5.4-3.6 8.8-3.6 3.5 0 6.4 1.2 8.8 3.6 2.4 2.4 3.6 5.3 3.6 8.7 0 3.5-1.2 6.4-3.6 8.9-2.4 2.4-5.4 3.7-8.8 3.7-1.8 0-3.5-.3-5-1s-3-1.7-4.3-3.1l-20 11.6 19.9 11.7c1.5-1.5 3-2.6 4.5-3.3 1.6-.7 3.1-1.1 4.8-1.1 3.5 0 6.4 1.2 8.9 3.7s3.7 5.5 3.7 8.9c0 3.5-1.2 6.4-3.6 8.7-2.4 2.3-5.4 3.5-9 3.5-3.5 0-6.4-1.2-8.8-3.6-2.4-2.4-3.6-5.3-3.6-8.8 0-.8 0-1.5.1-2.1.1-.6.3-1.2.5-1.8l-20.1-11.7v23.2c3.4 1.1 5.9 2.6 7.5 4.6 1.6 2 2.4 4.5 2.4 7.5 0 3.5-1.2 6.5-3.6 8.9-2.4 2.4-5.3 3.7-8.8 3.7-3.5 0-6.5-1.2-8.9-3.7-2.4-2.4-3.6-5.4-3.6-8.9 0-2.8.8-5.3 2.5-7.3s4.2-3.6 7.5-4.8V275l-20 11.5c.2.6.3 1.2.4 1.8.1.6.1 1.3.1 2.1 0 3.5-1.2 6.5-3.6 8.9-2.4 2.4-5.3 3.6-8.8 3.6-3.5 0-6.4-1.2-8.8-3.7-2.4-2.5-3.7-5.4-3.7-8.8 0-3.5 1.2-6.4 3.7-8.8 2.4-2.4 5.4-3.6 8.8-3.6 1.7 0 3.4.3 4.9 1 1.5.7 3 1.7 4.4 3.2l20.1-11.7-19.8-11.4zm-64.8-118.8c12 0 21.8 9.8 21.8 21.8 0 12.1-9.8 21.8-21.8 21.8s-21.8-9.8-21.8-21.8c0-12.1 9.8-21.8 21.8-21.8zM263.7 208c15 0 27.1 12.1 27.1 27.1 0 15-12.2 27.1-27.1 27.1-15 0-27.1-12.2-27.1-27.1 0-15 12.1-27.1 27.1-27.1zm-64.1-71.2c8.1 0 14.7 6.6 14.7 14.6 0 8.1-6.6 14.7-14.7 14.7s-14.7-6.6-14.7-14.7c.1-8 6.6-14.6 14.7-14.6z"/></svg>
