<svg version="1.1" id="Calque_1" xmlns="http://www.w3.org/2000/svg" xmlns:xlink="http://www.w3.org/1999/xlink" x="0px" y="0px"
	 viewBox="0 0 500 500" style="enable-background:new 0 0 500 500;" xml:space="preserve">
<g id="Page-1">
	<g id="cfac">
		<rect id="Rectangle" x="8.8" y="362.3" width="482.3" height="3.9"/>
		<g id="Group" transform="translate(0.000000, 325.000000)">
			<polygon id="Path" points="305.8,105.4 300,111.1 305.8,116.9 311.6,111.1 			"/>
			<path id="Path_1_" d="M309.2,69.7c-0.4-1.3-3.5,0.6-10,6.5c2.7,2.9,4,1.2,6.1,0.5c1.7,3.3,2.4,17.8-8.7,22.1
				c0.2-14.6,0.5-30.4,0.5-30.4c0-0.4-0.4-0.5-0.6-0.5c-3,0.5-8.5,5.8-12.6,10.3c2.3,3.8,5.2,0.4,7.5-0.5c0,0.6-0.5,11.4-0.2,22.4
				c-11.4,0.8-9.6-22.4-9-25.4c0.2-2.4-7.4,2.9-11.1,6.4c1.2,2.2,2.9,1.7,5,1c-0.7,10.4,6.5,20,15.1,19.7
				c0.4,10.8,1.5,21.2,4.6,21.9c0.4,0.1,0.7-10.9,1-23.1C317.1,94.3,309.2,69.7,309.2,69.7z"/>
			<path id="Path_2_" d="M57.7,107.5V76.8h-8.1v31c0,6.7,3.3,10.3,11.1,10.3h5.1v-5.9h-3.3C59,112.2,57.7,111.1,57.7,107.5z"/>
			<path id="Path_3_" d="M167.8,108.4l-12-31.2h-11.6V118h8.1V93.7c0-1.6,0-4.2-0.2-5.9h0.2l11.6,30.3h7.5l11.6-30.3h0.2
				c-0.1,1.7-0.2,4.4-0.2,5.9V118h8.1V77.2h-11.4L167.8,108.4z"/>
			<path id="Path_4_" d="M88.8,105.3c0,5.6-3.4,7.6-7.1,7.6s-7.1-2.1-7.1-7.6V86.9h-8.1v18.4c0,9.7,5.1,13.2,15.3,13.2
				s15.3-3.5,15.3-13.2V86.9h-8.1V105.3z"/>
			<path id="Shape" d="M118.4,86.5c-3.1,0-6.4,0.7-9.1,2.1V77h-8.1v28.4c0,9.7,5.8,13.2,16,13.2s16-4,16-13.7v-5
				C133.3,92.2,128.8,86.5,118.4,86.5z M125.7,105.3c0,5.6-4.4,7.6-8.1,7.6c-3.8,0-8.1-2.1-8.1-7.6v-5.6c0-5.6,4.4-7.6,8.1-7.6
				c3.8,0,8.1,2.1,8.1,7.6V105.3z"/>
			<path id="Shape_1_" d="M254.4,88.5c-2.7-1.3-6.1-2.1-9.1-2.1c-10.4,0-14.8,5.7-14.8,13.3v5c0,9.7,5.8,13.7,16,13.7
				c10.2,0,16-3.5,16-13.2V76.7h-8.1V88.5z M254.4,105.3c0,5.6-4.4,7.6-8.1,7.6c-3.8,0-8.1-2.1-8.1-7.6v-5.6c0-5.6,4.4-7.6,8.1-7.6
				c3.8,0,8.1,2.1,8.1,7.6V105.3z"/>
			<path id="Shape_2_" d="M211,86.5c-10.2,0-16,5.9-16,15.6v1.2c0,9.3,5.6,15.1,16.5,15.1c5.4,0,10.2-1.1,14.9-4.8l-5-3.9
				c-3.4,2.3-5.9,3.1-9.8,3.1c-4.7,0-8.6-2.7-8.6-7.6v-0.7h24.2V102C227,92.5,221.2,86.5,211,86.5z M202.9,99.8
				c0-5.7,4.4-7.9,8.1-7.9s8.1,2.2,8.1,7.9H202.9z"/>
			<path id="Path_5_" d="M28.1,82.4c5.1,0,8.7,2.2,10.2,7.1h8.6c-1.6-7.3-8-12.7-18.8-12.7c-12.3,0-19.4,7.3-19.4,18.5v5.6
				c0,10.9,6.8,17.6,19.4,17.6c10.8,0,17.2-5.3,18.8-12.7h-8.7c-1.5,4.8-5.1,7.1-10.2,7.1c-8,0-10.9-5.3-10.9-13.4v-4.1
				C17.2,86.5,21.1,82.4,28.1,82.4z"/>
		</g>
		<path id="Path_6_" d="M167.9,498.1v-34c0-0.5,0.1-0.6,0.7-0.6h2.8v-1.2h-12.1v1.2h2.8c0.6,0,0.7,0.2,0.7,0.6v34
			c0,0.2-0.2,0.6-0.5,0.6h-3.1v1.2h12.2v-1.2h-3.1C168.2,498.7,167.9,498.4,167.9,498.1z"/>
		<path id="Path_7_" d="M262.6,492.9c0,0.2-0.5,5.8-7.7,5.8c-9,0-9.9-13.4-9.9-19.2c0-5.9,1.9-15.9,9.4-16h0.1
			c4.7,0,5.3,2.4,5.3,4.8c0,0.2-0.2,0.7-0.4,1.1c-0.2,0.4-0.4,0.8-0.4,1.2c0,1.1,1.1,1.9,2.2,1.9c1.2,0,2.3-0.8,2.3-2.8
			c0-2.9-2.4-7.5-9.1-7.5h-0.1c-4,0-7.4,1.3-9.9,4c-3.1,3.1-5,8.1-5,13.3c0,9.9,4.1,20.5,15.5,20.5c8.1,0,9-6.8,9.1-6.9v-0.4
			l-1.3-0.4L262.6,492.9z"/>
		<path id="Path_8_" d="M192,463.3h2.1c1,0,1.5,0.6,1.5,1.8c0,0.2,0,0.5-0.1,0.8l-5.4,23.5l-7.1-25.2c0-0.1,0-0.2,0-0.4
			c0-0.4,0.2-0.5,0.6-0.5h1.9v-1.2h-11.1v1.2h1.8c0.7,0,1.1,0.6,1.2,1.1c0.6,2.1,10,35,10.2,35.2l0.1,0.2h1.3l0.1-0.2
			c1-4,5.9-24.8,7.5-31.7l0.6-2.4c0.2-1.1,1-2.3,2.4-2.3h1.2v-1.2H192V463.3z"/>
		<path id="Path_9_" d="M148.9,476.3c-2.7-0.5-7.3-2.1-7.3-6.2v-0.4c0-3.6,2.7-6.3,6.3-6.3c6.2,0,6.3,6.1,6.3,6.3v0.4l1.5-0.1v-7.3
			h-0.2c0,0-3.5-0.7-6.8-0.7h-0.4c-6.7,0-11,4-11,9.9c0,4.7,3.1,7.9,8.8,8.8c4.5,0.8,7.6,4.1,7.6,8.2c0,4.7-2.1,9.7-8,9.8
			c-7.5,0-7.7-7.4-7.7-7.7v-0.4l-1.6-0.1v8.7h0.2c0,0,4.1,0.7,8,0.7h0.1c8.2,0,13.4-5.1,13.4-12.8
			C158.5,481.5,155,477.5,148.9,476.3z"/>
		<path id="Path_10_" d="M226.2,491c-1.5,5.3-4.5,7.5-10.4,7.5h-0.4c-3.5,0-3.8-0.8-3.8-2.3c0-0.4,0-0.7,0-1.1
			c0-0.5,0.1-1.1,0.1-1.8v-17.2l4.8,0.1h0.1c2.2,0,2.8,0.1,3.6,1.1c0.6,0.7,0.7,1.7,0.8,3.1l0.1,0.6h1.1v-10.8h-1.2v0.4
			c-0.1,1.5-0.4,2.4-1.1,3.3c-0.7,0.8-1.1,0.8-2.7,0.8c-0.2,0-0.5,0-0.8,0l-4.8,0.1v-11.6l7.1,0.1c1.7,0,3.6,0.2,4.5,1.2
			c1,1.1,1,1.3,1.2,3.1c0,0.4,0.1,0.7,0.1,1.2v0.4h1.1v-7.3h-22.5v1.2h2.8c0.6,0,0.7,0.2,0.7,0.6v34c0,0.2-0.2,0.6-0.5,0.6h-3.1v1.2
			H227l0.5-8.8l-1.2-0.4L226.2,491z"/>
		<path id="Path_11_" d="M31.9,490.8l-0.1,0.2c-1.5,5.3-4.5,7.5-10.4,7.5H21c-3.5,0-3.8-0.8-3.8-2.3c0-0.4,0-0.7,0-1.1
			c0-0.5,0.1-1.1,0.1-1.8v-17.2l4.8,0.1h0.1c2.2,0,2.8,0.1,3.6,1.1c0.6,0.7,0.7,1.7,0.8,3.1l0.1,0.6H28v-10.8h-1.2v0.4
			c-0.1,1.5-0.4,2.4-1.1,3.3c-0.7,0.8-1.1,0.8-2.7,0.8c-0.2,0-0.5,0-0.8,0l-4.8,0.1v-11.6l7.1,0.1c1.7,0,3.6,0.2,4.5,1.2
			c1,1.1,1,1.3,1.2,3.1c0,0.4,0.1,0.7,0.1,1.2v0.4h1.1v-7.3H8.8v1.2h2.8c0.6,0,0.7,0.2,0.7,0.6v34c0,0.2-0.2,0.6-0.5,0.6H8.7v1.2
			h23.7l2.1-8.8L31.9,490.8z"/>
		<path id="Path_12_" d="M59.6,497.8c-1-1.9-8.1-17.3-9-18.9c0.6-1.3,5.2-12,6.2-13.9c0.5-0.8,1-1.6,2.2-1.6h1.8v-1.2h-9v1.2h2.1
			c0.4,0,1,0.2,1,1.1c0,0.1,0,0.5-0.2,0.8l-5,12.1l-6.5-13.4v-0.1v-0.1c0-0.2,0.4-0.4,0.8-0.4h1.9v-1.2H34.6v1.2h2.1
			c0.6,0,1,0.1,1.3,0.8c1,1.9,7.1,14.8,7.9,16.3c-0.7,1.6-6.3,14.6-7.3,16.5c-0.5,0.8-1,1.6-2.2,1.6h-1.8v1.2h9v-1.2h-2.1
			c-0.4,0-1.1-0.2-1.1-1.1c0-0.1,0-0.5,0.2-0.8l6.2-14.8c1.5,3,6.9,14.6,7.6,16.1v0.1v0.1c0,0.2-0.4,0.4-0.8,0.4h-2.1v1.2h11.4v-1.2
			h-2.1C60.2,498.7,60,498.4,59.6,497.8z"/>
		<path id="Path_13_" d="M107.3,491c-1.6,5.8-3.8,7.6-9.1,7.6c-3.9,0-4.1-1.1-4.1-3.3v-31.2c0-0.5,0.1-0.6,0.7-0.6h2.8v-1.2h-12v1.2
			h2.8c0.5,0,0.6,0.5,0.7,0.6v34c0,0.2-0.2,0.6-0.5,0.6h-3.1v1.2h22.4l0.6-9.1l-1.2-0.1V491z"/>
		<path id="Path_14_" d="M126.4,463.3h2.3c0.6,0,1.2,0.4,1.2,1.2v25.8c0,4.8-2.4,7.5-6.9,7.5c-3.6,0-6.4-3.1-6.4-7.4v-26.4
			c0-0.5,0.1-0.6,0.7-0.6h2.8v-1.2H108v1.2h2.8c0.6,0,0.7,0.2,0.7,0.6v27.2c0,5.2,4.1,8.7,10.2,8.7s9.8-3.4,9.8-8.7v-26.6
			c0-0.6,0.1-1.2,1-1.2h2.5v-1.2h-8.8v1.1H126.4z"/>
		<path id="Path_15_" d="M83.8,492.9c0,0.2-0.5,5.8-7.7,5.8c-9,0-9.9-13.4-9.9-19.2c0-5.9,1.9-15.9,9.4-16h0.1
			c4.7,0,5.3,2.4,5.3,4.8c0,0.2-0.2,0.7-0.4,1.1c-0.2,0.4-0.4,0.8-0.4,1.2c0,1.1,1.1,1.9,2.2,1.9c1.2,0,2.3-0.8,2.3-2.8
			c0-2.9-2.4-7.5-9.1-7.5h-0.1c-4,0-7.4,1.3-9.9,4c-3.1,3.1-5,8.1-5,13.3c0,9.9,4.1,20.5,15.5,20.5c8.1,0,9-6.8,9.1-6.9v-0.4
			l-1.3-0.4L83.8,492.9z"/>
		<path id="Path_16_" d="M396,469.5h1.1v-0.4c0.4-2.7,0.6-2.9,1.6-4.1l0.1-0.1c0.8-1,1.6-1.3,3.3-1.3h3.3v34.5
			c0,0.2-0.2,0.6-0.5,0.6h-3.1v1.2h12.1v-1.2h-3.1c-0.1-0.1-0.2-0.5-0.4-0.7v-34.4h3.4c1.7,0,2.5,0.4,3.3,1.3l0.1,0.1
			c1,1.2,1.2,1.5,1.6,4.1v0.4h1.1v-7.3h-24.1v7.3H396z"/>
		<path id="Shape_3_" d="M279.5,462c-8.8,0-14.8,7.7-14.8,19.1c0,10.9,6.3,18.9,14.8,18.9c8.4,0,14.3-7.7,14.3-18.9
			C293.7,469.5,288.1,462,279.5,462z M270.2,481.2c0-10.8,1.6-17.9,9.3-17.9c8.1,0,8.7,7.7,8.7,17.9c0,10.9-1.5,17.7-8.7,17.7
			C271.8,498.8,270.2,489.2,270.2,481.2z"/>
		<path id="Shape_4_" d="M449.2,462c-8.8,0-14.8,7.7-14.8,19.1c0,10.9,6.3,18.9,14.8,18.9c8.4,0,14.3-7.7,14.3-18.9
			C463.5,469.5,457.9,462,449.2,462z M439.9,481.2c0-10.8,1.6-17.9,9.3-17.9c8.1,0,8.7,7.7,8.7,17.9c0,10.9-1.5,17.7-8.7,17.7
			C441.6,498.8,439.9,489.2,439.9,481.2z"/>
		<path id="Path_17_" d="M482.3,462.1v1.2h2.4c1.2,0,1.2,1.8,1.2,2.4l-0.1,21.4c-1.6-3.9-5.2-11.4-6.3-13.6l-0.1-0.4
			c-1.6-2.9-5.2-9.8-6.8-11.1l-0.1-0.1h-1.1c-0.7,0-1.7,0-2.7,0c-1.5,0-3,0-4.6,0h-0.4v1.2h2.8c0.6,0,1,0.5,1,1
			c0,1.7-0.1,31.5-0.1,31.8c0,1.6-0.5,2.4-1.3,2.4h-2.3v1.2h8.8v-1.2h-2.4c-1.2,0-1.2-1.8-1.2-2.4l-0.1-31c1.7,2.2,5.3,8.7,6.8,11.4
			c0.4,0.7,9.7,19,10.3,23.1v0.4h0.4c0.2,0,0.8-0.1,1-0.1h0.4v-0.4c0-1.7,0.1-33.5,0.1-33.8c0-1.6,0.5-2.4,1.3-2.4h2.3V462h-9.1
			V462.1z"/>
		<path id="Path_18_" d="M430.6,498.1v-34c0-0.5,0.1-0.6,0.7-0.6h2.8v-1.2H422v1.2h2.8c0.6,0,0.7,0.2,0.7,0.6v34
			c0,0.2-0.2,0.6-0.5,0.6h-3.1v1.2h12.2v-1.2h-3.1C430.7,498.7,430.6,498.4,430.6,498.1z"/>
		<path id="Path_19_" d="M392.2,492.9c0,0.2-0.5,5.8-7.7,5.8c-9,0-9.9-13.4-9.9-19.2c0-5.9,1.9-15.9,9.4-16h0.1
			c4.7,0,5.3,2.4,5.3,4.8c0,0.2-0.2,0.7-0.4,1.1c-0.2,0.4-0.4,0.8-0.4,1.2c0,1.1,1.1,1.9,2.2,1.9c1.2,0,2.3-0.8,2.3-2.8
			c0-2.9-2.4-7.5-9.1-7.5H384c-4,0-7.4,1.3-9.9,4c-3.1,3.1-5,8.1-5,13.3c0,9.9,4.1,20.5,15.5,20.5c8.1,0,9-6.8,9.1-6.9v-0.4
			l-1.3-0.4L392.2,492.9z"/>
		<path id="Path_20_" d="M340.5,491c-1.6,5.8-3.8,7.6-9.1,7.6c-3.9,0-4.1-1.1-4.1-3.3v-31.2c0-0.5,0.1-0.6,0.7-0.6h2.8v-1.2h-12v1.2
			h2.8c0.5,0,0.6,0.5,0.7,0.6v34c0,0.2-0.2,0.6-0.5,0.6h-3.1v1.2h22.4l0.6-9.1l-1.2-0.1V491z"/>
		<path id="Path_21_" d="M315.7,491c-1.6,5.8-3.8,7.6-9.1,7.6c-3.9,0-4.1-1.1-4.1-3.3v-31.2c0-0.5,0.1-0.6,0.7-0.6h2.8v-1.2h-12v1.2
			h2.8c0.5,0,0.6,0.5,0.7,0.6v34c0,0.2-0.2,0.6-0.5,0.6h-3.1v1.2h22.4l0.6-9.1l-1.2-0.1V491z"/>
		<path id="Path_22_" d="M366.6,491c-1.5,5.3-4.5,7.5-10.3,7.5h-0.4c-3.5,0-3.8-0.8-3.8-2.3c0-0.4,0-0.7,0-1.1
			c0-0.5,0.1-1.1,0.1-1.8v-17.2l4.8,0.1h0.1c2.2,0,2.8,0.1,3.6,1.1c0.6,0.7,0.7,1.7,1,3.1l0.1,0.6h1.1v-10.8h-1.2v0.4
			c-0.1,1.5-0.4,2.4-1.1,3.3c-0.7,0.8-1.1,0.8-2.7,0.8c-0.2,0-0.5,0-0.8,0l-4.8,0.1v-11.6l7,0.1c1.7,0,3.6,0.2,4.5,1.2
			c1,1.1,1,1.3,1.2,3.1c0,0.4,0.1,0.7,0.1,1.2v0.4h1.1v-7.3h-22.5v1.2h2.8c0.6,0,0.7,0.2,0.7,0.6v34c0,0.2-0.2,0.6-0.5,0.6h-3.1v1.2
			h23.7l0.5-8.8l-1.2-0.4L366.6,491z"/>
		<g id="Group_1_" transform="translate(90.000000, 73.000000)">
			<path id="Path_23_" d="M30.2,16.8c-1.6,0.2-2.7,1-2.7,1.7c0,0.4,0.4,0.8,0.8,1.1c0.8-0.5,2.2-0.7,3.8-0.7c1.6,0,2.9,0.2,3.8,0.7
				c0.6-0.4,0.8-0.7,0.8-1.1c0-0.7-1.1-1.5-2.7-1.7"/>
			<path id="Path_24_" d="M34,16.8c0-0.1,0-0.1,0-0.2c0-1.1-0.8-1.9-1.9-1.9s-1.9,0.8-1.9,1.9c0,0.1,0,0.1,0,0.2"/>
			<path id="Path_25_" d="M27.8,21.5c0,3.1,1.8,5.3,3.3,7.4h2.2c1.5-2.2,3.3-4.2,3.3-7.4C36.7,19.5,27.8,19.5,27.8,21.5z"/>
		</g>
		<rect id="Rectangle_1_" x="64.5" y="154" width="29.7" height="38.1"/>
		<rect id="Rectangle_2_" x="106.8" y="154" width="29.7" height="38.1"/>
		<path id="Shape_5_" d="M51.7,123.2h12.7v19.1h29.7v-19.1h12.7v19.1h29.7v-19.1h11.6v19.1h25.4v-32.8H26.2v32.8h25.4v-19.1H51.7z
			 M132.2,116.8h3.1l6.1-1.1h0.7l6.2,1.1h4v3.1h-4.5l-6.1-3.3l-5.9,3.3h-3.8v-3.1H132.2z M90.8,116.8h2.5l6.1-1.1h0.7l6.2,1.1h3.5
			v3.1h-4.1l-6.1-3.3l-5.9,3.3h-3.1v-3.1H90.8z M48.5,116.8h3l6.1-1.1h0.7l6.2,1.1h3.1v3.1H64l-6.1-3.3l-5.9,3.3h-3.5V116.8z"/>
		<rect id="Rectangle_3_" x="148.1" y="154" width="25.4" height="38.1"/>
		<rect id="Rectangle_4_" x="26.2" y="154" width="25.4" height="38.1"/>
		<path id="Path_26_" d="M296.7,192.2h10v-59.8c-4-5.8-9.2-11.1-13.4-13.6c0,0,10.5,16.8,2.2,34.1c0,0-2.7-8.7-5-20.1
			c1.9,26.4,1.5,51.1,1.3,58.8"/>
		<path id="Shape_6_" d="M277.5,153.8c0,0-4.5-20,4.4-34c0,0-13.3,19.8-16.6,35.8c0,0-6.4-26.7,15.3-40.7c0,0-12.2,4-22.8,24.8
			c0,0-0.8-8,3.9-15.7c-8.7,5.1-16.7,9.4-20.5,11.5c0,0,10.2-21.9,28.9-24.2c0,0-15.3-0.7-32.7,15.4c0,0,11.7-16.7,28.1-19.6
			c0,0-23.7,3.5-37.8,11.9c0,0,15.5-22.8,40.3-16.1c0,0-11.1-6.4-33.6-0.1c0,0,14.5-16.5,35.5-2.8c0,0-10.7-12-31.8-6.5
			c0,0,14.3-5.3,28.6-3.4c-13-6.8-28.3-4.4-28.3-4.4c10.3-12.8,31.6-0.5,31.6-0.5c-17.3-19.5-36.7-8-36.7-8
			c16.8-13.1,31.7-0.1,31.7-0.1c-13-13.7-27.7-7.5-27.7-7.5C254,54,273.6,81.8,273.6,81.8c-9-22.4-26.7-21.2-26.7-21.2
			c29.4-4.8,34.5,27.2,34.5,27.2c-0.4-13.7-2.4-24.4-3.8-31.3c7.5,5.2,6.3,24.6,6.9,23.7c1.7-2.5,5.1-15.9,6.3-21.3l-0.2-6.5
			L230.6,29l-3.9,6.9l0.6-21.9l-0.2-3.1L208.8,0l-59.3,1.8l-8.8,4l-3.1,16.9l-1.5-8.7l-16.6,5.2l-17.8,5.3l-5.2,15.4l12.6,3.1
			l-13.6-0.4l-34.6,1.6L38.5,55.4l-12.2-0.4v25.7h99.6l54.5,16.7c-1-1.5-1.7-2.9-1.7-5c0-2.1,8.7-2.2,8.7,0c0,2.2-1.3,5.2-2.7,6.5
			l1.3,0.5v2.5h-62.7h-2.5H26.2v3.1h151.5v41.3H26.2v3.1h151.5V192h20.5c2.1,0,4.2-0.5,6.3-1c4-1.2,7.7-2.9,11-5.3
			c6.3-4.5,13.8-14.4,13.6-21.7c-0.1-3.5-1.2-7.1-3.3-9.9c-2.1-2.9-5.2-5.1-8.7-6.2c-6.9-2.2-16.1,0.8-18.5,7.4
			c-1.2,3.3-1.1,6.9,0.6,9.8c1.7,2.9,5,4.7,8.4,4.1c0.2,0,0.5-0.1,1-0.2c0.2,0,0.5-0.1,0.7-0.2h0.1h0.1l0.4-0.1
			c1-0.5,2.2-1.3,2.9-2.3c1.6-1.9,0.8-4.4,0.7-4.5c-0.4-1.1,0.1-1.3,0.7-1c0.4,0.4,1,1.3,1.1,2.7c0.1,1.5-0.5,3.3-1.8,4.7
			c-1.3,1.3-3,2.4-4.6,2.8s-2.8,0.4-3.3,0.4c-2.1-0.1-4.1-0.8-5.7-2.1c-1.6-1.2-2.8-2.9-3.6-4.7c-1.6-3.6-1.3-7.9,0.6-11.4
			c1.8-3.6,5.6-6.3,9.6-7.4c1.1-0.4,2.1-0.5,3.1-0.7h0.1c5.3-0.7,9.6,0.4,14.4,3.1c11.7,6.5,20.7,23,32.2,30.6
			c8.7,5.7,18.6,10.2,31,12.2c1.3-28.6-0.6-51.9-2.7-67.2C281.6,129.1,277.4,138.9,277.5,153.8z M186.8,90.7
			c-0.8-0.5-2.2-0.7-3.8-0.7s-2.9,0.2-3.8,0.7c-0.6-0.4-0.8-0.7-0.8-1.1c0-0.7,1.1-1.5,2.7-1.7c0-0.1,0-0.1,0-0.2
			c0-1.1,0.8-1.9,1.9-1.9c1.1,0,1.9,0.8,1.9,1.9c0,0.1,0,0.1,0,0.2c1.6,0.2,2.7,1,2.7,1.7C187.7,89.9,187.3,90.3,186.8,90.7z"/>
		<path id="Path_27_" d="M297.3,72.4l-4.7-6.1c-0.4,7.6-1.9,15.7-1.9,15.7C292.6,77.9,294.8,74.8,297.3,72.4z"/>
		<g id="Group_2_" transform="translate(1.000000, 217.000000)">
			<g>
				<path id="Path_28_" d="M34.9,103.6c-8.7,0-15.4-2.2-19.8-6.5c-4.6-4.4-6.8-10.4-6.8-18.2v-7.7c0-8.1,2.3-14.4,7-19.1
					c4.6-4.6,11.3-6.9,19.7-6.9c7.6,0,13.7,1.6,18.2,4.8c4.6,3.3,7.3,7.6,8.1,13.1H48.8c-1.7-6.7-6.3-10-13.8-10
					c-5,0-8.7,1.6-11.4,4.7c-2.5,3.1-3.9,7.7-3.9,13.6v6.4c0,5.8,1.2,10.2,3.6,13.2s6.3,4.5,11.6,4.5c3.6,0,6.7-0.8,9.1-2.5
					c2.4-1.7,4-4.2,4.7-7.5h12.3c-0.7,5.6-3.5,10-8,13.3C48.6,102.1,42.5,103.6,34.9,103.6z"/>
				<path id="Shape_7_" d="M99.9,90.7l6.9,5.9c-5,4.6-11.6,6.9-20,6.9c-7,0-12.7-1.8-16.9-5.3c-4.2-3.6-6.3-8.7-6.3-15.4v-2.1
					c0-6.4,1.9-11.6,5.9-15.5c4-3.9,9.3-5.8,16.2-5.8c7.3,0,12.7,1.9,16.5,5.7c3.8,3.8,5.7,9.1,5.7,15.7v3.8H74.6V85
					c0,3.4,1.2,5.9,3.5,7.7s5.3,2.8,9,2.8C91.9,95.4,96.3,93.8,99.9,90.7z M74.6,77.6h22.3c-0.1-3.4-1.2-6.1-3.1-7.9
					c-2.1-1.8-4.6-2.8-7.9-2.8c-3.1,0-5.7,1-7.7,2.9C75.8,71.8,74.6,74.5,74.6,77.6z"/>
				<path id="Path_29_" d="M117.1,102.7V68h-5.7v-7.7h5.7v-1c0-4,1.2-7.3,3.6-9.7c2.4-2.4,5.7-3.6,9.8-3.6h10.2v7.4h-7.9
					c-3.1,0-4.8,1.6-4.8,4.6v2.1h12.3v7.7H128v34.6h-10.9V102.7z"/>
				<path id="Shape_8_" d="M149.3,99.5c-3.9-2.7-5.8-5.8-5.8-9.6c0-3.8,1.6-6.8,4.8-9.2c3.1-2.3,7.9-3.5,13.9-3.5h11.5v-3.5
					c0-2.1-0.7-3.6-2.2-4.7c-1.5-1.1-4-1.7-7.7-1.7c-5,0-8.7,1.3-11.4,4l-7.4-5.4c4.7-4.2,11.1-6.4,18.9-6.4
					c6.8,0,11.9,1.3,15.3,3.9c3.5,2.5,5.2,6.3,5.2,11v23.6c0,0.8-0.5,1.5-1.6,1.9c-5.1,2.4-10.9,3.6-17.6,3.6
					C158.5,103.5,153,102.2,149.3,99.5z M173.6,93.9v-10h-10.9c-2.9,0-5.1,0.5-6.5,1.6c-1.5,1.1-2.2,2.4-2.2,4.2
					c0,1.9,1,3.4,2.8,4.5c1.9,1.1,4.6,1.7,8.2,1.7C168.6,95.9,171.4,95.3,173.6,93.9z"/>
				<path id="Path_30_" d="M203,89.8c0,1.8,0.4,3,1.2,3.8c0.8,0.7,2.2,1.1,3.9,1.1h5.7v8h-8c-4.6,0-8.1-1.1-10.3-3.1
					s-3.3-5.4-3.3-10V46.3H203V89.8z"/>
				<path id="Path_31_" d="M239.4,103.5c-13.7,0-20.6-6.2-20.6-18.4V60.3h10.9v25.4c0,6.5,3.3,9.8,9.7,9.8c6.4,0,9.7-3.3,9.7-9.8
					V60.3H260v24.8C260,97.3,253.2,103.5,239.4,103.5z"/>
			</g>
			<polygon id="Path_32_" points="234.2,55.9 245.4,55.9 236.7,46.1 223.8,46.1 			"/>
		</g>
	</g>
</g>
</svg>
