<svg version="1.1" id="Calque_1" xmlns="http://www.w3.org/2000/svg" xmlns:xlink="http://www.w3.org/1999/xlink" x="0px" y="0px"
	 viewBox="0 0 500 350" style="enable-background:new 0 0 500 350;" xml:space="preserve">
<g>
	<g>
		<g>
			<path class="st0" d="M259.5,0C259.5,0,30.1,152.2,1,134.2c11.6,33,40.6,61.3,92.1,36.5C131.4,152.3,207.6,86.6,259.5,0z"/>
			<g>
				<path class="st0" d="M267.2,4.5C151.2,186.7,43.6,200,34.7,200.1c8.2,4.6,53.7-8.1,97.2,0.3c26.5,5.1,56.5,24.8,94.4,37.4
					c10.9,3.6,13.1,4,24.8,2.1c-1.9-15.1,0.1-52.7,0.1-52.7s9.3-4.2,8.5-1.9c-4.4,12.5-6,54.5-6,54.5c26,2.4,19.9,10.6,50.4,8.7
					c18-1.1,37.4-5.1,58.5-12.6c37-14.8,55.1-30.8,65.1-45.3c0.5-0.8,1-1.5,1.3-2c5.2-7.8,8.4-16.7,9.3-26
					c0.9-9.3-0.8-19.6-4.5-26.6c-8.3-15.5-26.2-26.2-45.9-20.5c-12.2,3.5-20.8,17.2-18.4,32.1c1.5,9.6,11,16.6,17.8,17.4
					c4.3,0.5,8.9-0.5,13-2.6c0.7-0.4,1.6-0.1,2,0.6c0.3,0.7,0.1,1.5-0.5,1.9c-4.2,2.9-9.7,4.8-15,4.3c-7.8-0.7-19.5-7-22.3-20.5
					c-3.5-17.1,7.2-34,21.6-38.4c22-6.7,43,3.7,53.6,22.5c2.6,4.6,5.4,13.5,5.9,22.4c4.4-4.4,11.2-8.4,18.6-10.6
					c14.3-4.2,33.8-8.7,34.6-18.3c1.1-12.4-25.7-27.7-61.9-43.9C369.8,52.3,300.4,30.3,267.2,4.5z M282.6,233.5
					c14.1-1.7,23.8,3.2,27,5.4c-3.9,7.1-42.5,0.5-42.5,0.5c3.1-3.9,12.9-5.5,12.9-5.5c-1.6-8.4-5-51.1-5-51.1s5.1-2.3,7.4-2.6
					c6.6-2.9,12.6-7.4,17.3-14.1c11.4-16-1.4-33.7-16-33.7c-5.2,0-11.8,4.7-12.1,10.8c-0.1,2.5,0.8,7.8,7.4,10.6
					c5.3,2.2,11.7-1.1,11.7-6c0-3.1-1.9-5.6-5-6.6c-1.8-0.6-3.4-0.4-4.1-0.6c-0.9-0.2-1.2-0.8,0.9-1.2c1.1-0.2,4.1,0.1,6.2,1.2
					c10.5,5.4,7.5,22.9-6.4,30.3c-16.8,8.9-40.1,12.5-83.1-2.5c6,4,15.1,8.9,22.6,11.2c5.8,1.8,15.9,4.4,27.2,5.3
					c-19.4,2.6-61.7,4.8-133.6-7.6c27.7-1.3,37-4,37-4l-0.1,0c11.7,2.1,29.3,4.4,47.1,6.2c-31.2-5.4-74.8-13.8-74.8-13.8
					c9.9-2.3,43.7-2.9,60.7-3.2c8.3-16.1,79.6-32.2,91.5-62.2c14.8-8.5,28,3.8,31.2,7.2c1.2,4.8,2.8,10.2,5,16.1
					c11.3,30.2,2.7,49.2-29.7,57.8C280.4,194.1,282.6,233.5,282.6,233.5z M306.4,85c-1,5-0.6,12.3,1.6,21.8
					c-10-16.4-24.9-14.5-29.1-13.6c0.9-5.4,0.6-9.4,0.5-11c0,0,0,0-0.1,0c0,0-2.1-25.1,21-26.8c15.8-1.2,20.6,14.2,20.6,14.2
					s16.4,1.6,15.9,9C336.8,78.7,309,72.3,306.4,85z"/>
				<circle class="st0" cx="305.2" cy="66.7" r="3.1"/>
			</g>
		</g>
	</g>
	<g>
		<g>
			<path class="st0" d="M66.1,323.5v6.2c0,12.1-7.9,20.2-23.6,20.2c-14.4,0-22.9-7.9-22.9-21.8v-7.3c0-10.6,5.5-21.9,22.9-21.9
				c13.8,0,21,6.6,23,14.7H54.7c-1.5-4.6-5.6-7.7-12.3-7.7c-8.5,0-12.6,6.4-12.6,15.4v5.8c0,11.2,5.1,15.9,13,15.9
				c8.7,0,12.6-4.6,12.9-11.9H43.2v-7.5H66.1z"/>
			<path class="st0" d="M109.7,333.2c0,11.3-6.7,16.7-18.8,16.7c-12.3,0-18.9-5.4-18.9-16.8v-5.4c0-10.4,6.5-16.2,18.9-16.2
				c12.3,0,18.8,5.9,18.8,16.2V333.2z M100.1,327c0-6.4-3.9-8.8-9.2-8.8c-5.1,0-9.3,2.4-9.3,8.8v7.3c0,6.3,4.1,8.7,9.3,8.7
				c5.3,0,9.2-2.4,9.2-8.7V327z"/>
			<path class="st0" d="M129.3,342.1h5v7h-7c-8,0-11.9-3.4-11.9-11.5v-37.8h9.4v38.1C124.8,341.2,126.4,342.1,129.3,342.1z"/>
			<path class="st0" d="M136.4,327.5c0-9.5,5.4-16.1,18.5-16.1c3.7,0,7.5,0.8,10.3,2.3v-13.9h9.5V334c0,11.3-7.6,15.8-19,15.8
				c-12.6,0-19.3-5.3-19.3-16.4V327.5z M165.2,326.5c0-5.2-3.6-8.3-9.3-8.3c-6.7,0-9.9,2.9-9.9,9.5v6c0,6.5,3.8,9.3,9.7,9.3
				c5.4,0,9.6-2.7,9.6-9.3V326.5z"/>
			<path class="st0" d="M217.1,343.8c-4.6,4.2-10.1,6-17.4,6c-12.1,0-20.4-6.2-20.4-18.2v-1.8c0-11.2,7.3-18.5,19.3-18.5
				c12.9,0,19.3,7.2,19.3,18.7v3.2h-29v0.3c0,6,4.7,9.2,10.9,9.2c4.9,0,8.2-1.5,11.2-4.2L217.1,343.8z M208.4,327.3
				c-0.2-6.1-4.2-9.3-9.7-9.3c-5.3,0-9.5,3.5-9.7,9.3H208.4z"/>
			<path class="st0" d="M260.4,326.9v22.2h-9.6v-22.3c0-5.6-3.1-8.5-8.9-8.5c-5.7,0-9.1,3-9.1,8v22.8h-9.5v-37h8l0.5,2.9
				c2.6-1.8,6.5-3.7,12-3.7C253.5,311.4,260.4,315.5,260.4,326.9z"/>
			<path class="st0" d="M286.4,328.4v-6.8c0-14,8.3-22.7,23.3-22.7c13.6,0,21.5,6.5,23,15.7h-10.8c-1.5-5.8-5.7-8.7-12.1-8.7
				c-8.8,0-13.2,5.8-13.2,16v5.6c0,9.6,3.6,15.4,13.2,15.4c6.3,0,10.7-3,12.1-8.8h10.7c-1.3,9.6-9.6,15.9-22.9,15.9
				C294.3,350,286.4,341.7,286.4,328.4z"/>
			<path class="st0" d="M374.4,333.2c0,11.3-6.7,16.7-18.8,16.7c-12.3,0-18.9-5.4-18.9-16.8v-5.4c0-10.4,6.5-16.2,18.9-16.2
				c12.3,0,18.8,5.9,18.8,16.2V333.2z M364.7,327c0-6.4-3.9-8.8-9.2-8.8c-5.1,0-9.3,2.4-9.3,8.8v7.3c0,6.3,4.1,8.7,9.3,8.7
				c5.3,0,9.2-2.4,9.2-8.7V327z"/>
			<path class="st0" d="M394.8,326.9h10v-3c0-3.1-1.6-5.6-8.7-5.6c-3.8,0-7.7,1.2-9.9,3.5l-6.4-4.8c3.5-3.1,9-5.6,16.5-5.6
				c11.9,0,17.9,4.6,17.9,13V345c0,1-0.5,1.3-1.3,1.7c-3.7,1.8-9.3,3.2-15.3,3.2c-12.6,0-19.1-5.7-19.1-11.8
				C378.5,331.8,383.8,326.9,394.8,326.9z M404.8,332.8h-9.5c-5.2,0-7.6,2.1-7.6,5.1c0,3.2,3.2,5.4,9.7,5.4c2.9,0,5.7-0.7,7.4-1.7
				V332.8z"/>
			<path class="st0" d="M453.9,337.9c0,7.6-7,11.9-17.8,11.9c-5.5,0-12.4-1.4-17.3-5.7l5.9-5.3c2.8,2.6,6.8,4,11.5,4
				c5.2,0,8.1-1.4,8.1-4.5c0-2.4-1.3-3.8-4.6-4.2l-7.4-0.9c-6.6-0.8-11.9-4.2-11.9-11c0-6.9,6.3-11,16.2-11c6.3,0,11.5,1.7,15.4,4.9
				l-5.7,4.9c-2.5-1.8-5.7-3.2-9.5-3.2c-4.3,0-6.9,1.5-6.9,4c0,2.4,1.5,3.9,4.4,4.3l7.6,1C449.7,328.5,453.9,331.7,453.9,337.9z"/>
			<path class="st0" d="M475.4,342.1h6.7v7h-9.4c-7.6,0-12-3.7-12-12.2v-18h-5.4v-6.8h5.4v-12.3h9.5v12.3h11.9v6.8h-11.9v18.3
				C470.2,340.6,471.6,342.1,475.4,342.1z"/>
		</g>
	</g>
</g>
</svg>
