<svg xmlns="http://www.w3.org/2000/svg" viewBox="0 0 500 371.8"><path d="M353.1 280.9c-4.7-6.4-32-31.6-37-34.3-2.5 10.3 5.2 25.6 10.7 34.3-1.9 7.7-31.6 70.6-31.6 70.6l29 20.3 34-46.1c.4-3.9 2.9-23.8 1.4-29.4.1 0-1.4-8.5-6.5-15.4zM302 303.8c7.2-16.7-11.1-38.3-16.1-58.5-14.5 3-27.6 1-56.7 3.7-.2 8.6-9.6 44.8-9.9 50.2l64.7 43.9c.1 0 10.8-22.6 18-39.3zM120.5 79.9c-2.7 10.3 3.6 17 6.7 23.5-2.4-7.2-3-17.9-2-24.9-.9-.4-3.7-1.6-4.7 1.4zm251.6 227c.1-5.6.5-11.9 1-18.1.5-6.9 1.1-14 1-20.1-6.7-4.5-14-8.7-19.3-14.3-4.4-4.6-9.2-11.7-12.1-16.8 5.5-13.2 12.2-31 13.3-45 0-.4.4-2.8 1.5-3.1 1.4-.4 3.3-1 3.9-5.3 1.3-13.3-12.5-21.3-21.7-25.3-14.1-6.1-36.3-5.5-60.8 2-12.7 3.9-45.9 6-75.3 2.8-16-1.8-31.4-31.3-40-38.3.1-7.8-4.7-18.9-12.1-27.6-3.3-3.9-7.6-6.3-12.1-8.8-1.1-.6-2.3-1.3-3.4-2l-.2-.1v.2c-.5 4 .6 6.4 1.8 8.5-.5-.2-.9-.5-1.4-.7-.8-.5-1.7-1-3-1.1-.8.3-.8 1.2-.8 2.1 0 1 0 1.7-.5 1.9-.2-1.3-.6-2.7-.9-4.1-1.5-6.2-3.2-13.1 1.6-16.4.2-.1.4-.1.7-.1 1 0 2.1.5 3.1 1.4l.4.3-.1-.5c-.7-3-3.3-4-5.4-4-2.3 0-4.5 1.1-5.7 2.9-.8-1.2-2.6-2-4.2-2-1.2 0-2.2.4-2.8 1.2-5.7 7-2.2 15.4 1.5 24.3 2.4 5.7 4.9 11.6 4.9 17.4-2.6 2.1-4.7 8.1-2 12.1-.7.9-1.5 1.8-2.2 2.8-2.3 2.8-4.6 5.8-7.1 8.5-4.1 3.9-3.9 6.4-3.6 10 .1 1 .2 2.2.2 3.6 2 3.1 4.5 5.9 10 5.9 1.1 0 17.6-3.6 21.7-4.7 11.9 9.9 29.9 50.8 33.9 66.5 5.8 22.5 23.7 27.9 32.9 28.7 2 8.7 1.2 17.4.4 26.7-1.2 13.8-6.1 25.2-6.8 26.7L84 207.9 50 236C-5.2 191.6-7.3 116.1 8.6 79.1 30 29.6 89.5 0 167.8 0c49.3 0 102.4 11.6 153.4 33.6 77.9 33.6 142.1 88.5 171.9 147.1-4-3.2-9.4-6.2-18.5-6.2h-1c-2.7.1-5.5.5-8.6 1.4-3 .9-5.7 2.1-8 3.5-2.7 1.6-4.9 3.6-6.5 5.9-1.7 2.3-3 5.1-3.7 8-.5 2-.9 5.2-.3 9 .3 2.4 1.1 4.8 2.2 7 1.2 2.6 3 4.8 5 6.4 2.1 1.7 4.7 2.8 7.4 3.1.7.1 1.4.1 2.1.1 1.6 0 3.3-.2 5-.7 4.5-1.3 7-3.5 7.7-4.5.5-.7.6-1.2.4-1.6-.1-.2-.3-.4-.9-.4-.6 0-1.5.3-2.6.8-1.6.7-3.2 1.3-4.9 1.7-1.2.3-2.4.4-3.7.4-2.1 0-4-.4-5.5-1.2-2.6-1.3-4.9-4.1-6.1-7.6-1.2-3-1.2-5.7-1.2-6.7-.1-5 1.6-9.4 4.9-12.6 3-3 7.7-5.2 13.2-6.3 1.7-.3 3.5-.5 5.2-.5 3.3 0 6.5.6 9.4 1.8 4.4 1.8 8.4 5.2 11.1 9.4 2.7 4.1 4.4 9.3 4.8 14.3.4 5-.5 10.1-2.7 14.7-2.1 4.5-5.5 8.5-9.7 11.6-2.1 1.5-4.3 2.8-6.7 3.8-1.1.5-2.4 1-3.6 1.3-1.1.3-2.3.6-3.6.8-1.2.2-2.4.3-3.7.3-3.6 0-7.5-.7-11.5-2.1-4.6-1.6-9.4-3.9-14.6-7.2-8.3-5.2-16.6-11.9-26.1-21.1-14.1-13.8-27.8-29.7-44.5-51.8-13-17.1-26-35.8-39.8-57.1-6.2-9.6-12.4-19.5-18.5-29.5l-9-15-4.4-7.5-2.6-4.6-3.3-6-53 70.2-16.2-22.4-9.6 14.5c-.2.3-23.5 35.2-24.5 41.4-.1.7-.1 1.3.2 1.6.1.2.3.2.5.2.7 0 1.6-.9 2.7-2.5L226.6 93l15.9 22.3 52.3-68.4 5.8 10.1c2.9 5 5.9 10.1 8.9 15.1 6 10.1 12.2 20.1 18.4 29.8 13.8 21.6 26.8 40.5 39.7 57.8 16.6 21.7 30.3 37.5 44.5 51.3 9.6 9.3 18.1 16.1 26.5 21.6 5.5 3.5 10.5 6.1 15.4 8 5.7 2.2 10.8 3.2 15.4 3.2.9 0 1.8 0 2.7-.1l-100 63.2z"/></svg>
