<svg id="Calque_1" data-name="Calque 1" xmlns="http://www.w3.org/2000/svg" viewBox="0 0 100 100"><defs></defs><title>View chailifts or cable railway</title><path class="cls-1" d="M91,33.33H82.48v-13l13.91-3.19a1.5,1.5,0,1,0-.67-2.92L3.61,35.31a1.5,1.5,0,0,0,.33,3,2,2,0,0,0,.34,0l17.77-4.07V47.3H13.56A6.56,6.56,0,0,0,7,53.85V79.29a6.55,6.55,0,0,0,6.55,6.54h20a6.55,6.55,0,0,0,6.55-6.54V53.85a6.56,6.56,0,0,0-6.55-6.55H25.05V33.48L79.48,21V33.33H71a6.55,6.55,0,0,0-6.55,6.54V65.31A6.56,6.56,0,0,0,71,71.86H91a6.56,6.56,0,0,0,6.55-6.55V39.87A6.55,6.55,0,0,0,91,33.33Zm-77.41,17h8.49V66.11H10V53.85A3.55,3.55,0,0,1,13.56,50.3Zm20,32.53h-20A3.55,3.55,0,0,1,10,79.29V69.11H37.09V79.29A3.55,3.55,0,0,1,33.54,82.83Zm3.55-29V66.11h-12V50.3h8.49A3.55,3.55,0,0,1,37.09,53.85Zm57.43-14V52.14h-12V36.33H91A3.55,3.55,0,0,1,94.52,39.87ZM71,36.33h8.49V52.14h-12V39.87A3.55,3.55,0,0,1,71,36.33ZM91,68.86H71a3.55,3.55,0,0,1-3.55-3.55V55.14H94.52V65.31A3.55,3.55,0,0,1,91,68.86Z"/></svg>
