<svg viewBox="0 0 364 501" version="1.1" xmlns="http://www.w3.org/2000/svg" xmlns:xlink="http://www.w3.org/1999/xlink">
    <defs></defs>
    <g id="Page-1" stroke-width="1" fill-rule="evenodd">
        <g id="champagne" fill-rule="nonzero">
            <g id="champagneglass">
                <path d="M78.7128696,55.9782632 C78.7049864,60.5912891 78.6922084,65.649367 78.6734752,71.0507575 C78.6133412,88.3894037 78.5050961,105.72867 78.3366717,121.916121 C78.0122086,153.100628 77.5062236,176.173626 76.7739602,187.971203 C75.8174394,203.381817 72.7296214,208.58521 46.3313185,246.478703 C29.3721425,270.822784 21.3408797,286.508726 19.1906785,303.551062 C17.1415385,319.792393 16.4122276,350.20736 16.7603395,390.400599 C16.9325009,410.278469 17.3592171,431.543051 17.9627424,453.106042 C18.2439531,463.15325 18.5452465,472.602701 18.8464995,481.174155 C18.8851576,482.274083 18.9219714,483.308169 18.9567435,484.273669 L172.40695,484.273669 C172.441611,483.31245 172.478299,482.283223 172.516817,481.188696 C172.818068,472.628467 173.119359,463.190242 173.400568,453.153517 C174.005966,431.546016 174.433403,410.234824 174.604507,390.314079 C174.948901,350.218189 174.218601,319.8431 172.172044,303.546447 C170.026558,286.462016 161.959856,270.776894 144.943644,246.522187 C118.284055,208.521926 115.225395,203.394241 114.371421,187.915967 C113.721678,176.139375 113.272082,153.074995 112.983821,121.906815 C112.834132,105.721673 112.737925,88.3843885 112.684478,71.0476551 C112.66783,65.6474048 112.656474,60.5903698 112.649467,55.9782632 L78.7128696,55.9782632 Z M128.743052,39.8769322 L128.743052,47.9275977 C128.743051,49.077514 128.743051,49.077514 128.748384,54.2681516 C128.755053,59.3156743 128.767058,64.9404394 128.785733,70.9980174 C128.839085,88.3041418 128.935116,105.609715 129.084463,121.757907 C129.370297,152.663642 129.817212,175.590462 130.448302,187.028967 C131.046669,197.874383 134.248286,203.241726 158.12468,237.274856 C176.565478,263.56015 185.579352,281.086981 188.147893,301.540178 C190.31439,318.791911 191.055863,349.631721 190.705244,390.452373 C190.533151,410.488209 190.103695,431.900105 189.495583,453.604466 C189.213245,463.681484 188.910736,473.15785 188.608187,481.754981 C188.42654,486.916584 188.285131,490.640853 188.204086,492.648985 L187.892273,500.375 L3.47056484,500.375 L3.15919847,492.648501 C3.07815511,490.637425 2.93674831,486.907977 2.75510381,481.739705 C2.4525569,473.131436 2.15005032,463.643933 1.86771444,453.556525 C1.26149196,431.897169 0.832765255,410.532397 0.659612351,390.540047 C0.30517732,349.616742 1.04561329,318.737819 3.21599135,301.535564 C5.78815941,281.14875 14.7526079,263.640194 33.1198025,237.27497 C56.8086486,203.270772 60.0288285,197.844331 60.7035555,186.97373 C61.4122291,175.55621 61.9148195,152.63801 62.2362121,121.748601 C62.404204,105.602718 62.5122264,88.2991267 62.572241,70.994915 C62.5932478,64.9379523 62.6067519,59.3137746 62.6142535,54.266822 C62.6202532,49.0769083 62.6202532,49.0769083 62.6202521,47.9275977 L62.6202521,39.8769322 L128.743052,39.8769322 Z M72.0663663,16.476331 L72.0663663,39.8769322 L119.082253,39.8769322 L119.082253,16.476331 L72.0663663,16.476331 Z M64.0157007,0.375 L127.132918,0.375 C131.579178,0.375 135.183584,3.97940573 135.183584,8.42566552 L135.183584,47.9275977 C135.183584,52.3738575 131.579178,55.9782632 127.132918,55.9782632 L64.0157007,55.9782632 C59.569441,55.9782632 55.9650352,52.3738575 55.9650352,47.9275977 L55.9650352,8.42566552 C55.9650352,3.97940573 59.569441,0.375 64.0157007,0.375 Z M95.5743096,330.552545 L163.951302,271.544994 L174.470825,283.734847 L95.5743096,351.820469 L16.6777942,283.734847 L27.197317,271.544994 L95.5743096,330.552545 Z M57.7898527,230.302007 L57.7898527,214.200676 L133.358766,214.200676 L133.358766,230.302007 L57.7898527,230.302007 Z M95.5743096,431.78333 C78.1449712,431.78333 64.0157007,417.654059 64.0157007,400.224721 C64.0157007,382.795383 78.1449712,368.666112 95.5743096,368.666112 C113.003648,368.666112 127.132918,382.795383 127.132918,400.224721 C127.132918,417.654059 113.003648,431.78333 95.5743096,431.78333 Z M274.505271,210.765726 C266.908385,284.831823 283.932028,376.032333 310.173061,402.535477 C335.647925,375.923917 352.741947,284.723183 345.935009,210.765726 L274.505271,210.765726 Z M300.275898,484.273669 L300.275898,415.290954 C267.443667,383.856122 249.184267,282.247178 259.334358,201.708418 L260.222098,194.664395 L360.373017,194.664395 L361.193497,201.794755 C370.805566,285.328214 350.597277,391.747454 316.377229,418.581434 L316.377229,484.273669 L342.032017,484.273669 C346.478277,484.273669 350.082682,487.878075 350.082682,492.324334 C350.082682,496.770594 346.478277,500.375 342.032017,500.375 L274.621111,500.375 C270.174851,500.375 266.570445,496.770594 266.570445,492.324334 C266.570445,487.878075 270.174851,484.273669 274.621111,484.273669 L300.275898,484.273669 Z M321.665898,275.319403 C321.972834,275.49695 322.108426,275.574738 322.11161,275.575597 C321.963476,275.490999 321.814916,275.405602 321.665898,275.319403 Z M316.288059,272.218909 C313.292038,270.581589 310.509082,269.341681 307.142821,268.234018 C304.336165,267.310492 300.714677,267.192771 296.437978,267.892575 C291.548567,268.692638 286.125678,270.498863 280.556304,273.015029 C275.745288,275.188579 271.900769,277.358617 269.772748,278.73088 C266.036049,281.140507 261.053466,280.064702 258.643839,276.328002 C256.234212,272.591303 257.310017,267.608721 261.046717,265.199094 C263.793146,263.428047 268.301837,260.883118 273.927099,258.341703 C280.679104,255.291241 287.38037,253.059221 293.837868,252.002569 C300.478615,250.915932 306.634106,251.116024 312.175489,252.939408 C316.52855,254.371775 320.196453,256.00596 324.009578,258.089826 C325.549625,258.931459 332.143869,262.779313 329.728071,261.381891 C336.827444,265.488533 341.743677,266.944135 352.789966,267.135799 C357.235557,267.212934 360.77689,270.879328 360.699755,275.324919 C360.622619,279.770509 356.956226,283.311842 352.510635,283.234707 C338.848987,282.997664 331.299884,280.822937 322.11161,275.575597 C322.130658,275.580732 317.408897,272.831445 316.288059,272.218909 Z M283.852541,166.648079 C277.924194,166.648079 273.11832,161.842204 273.11832,155.913858 C273.11832,149.985511 277.924194,145.179637 283.852541,145.179637 C289.780887,145.179637 294.586761,149.985511 294.586761,155.913858 C294.586761,161.842204 289.780887,166.648079 283.852541,166.648079 Z M322.495735,130.795781 C316.567389,130.795781 311.761514,125.989907 311.761514,120.061561 C311.761514,114.133214 316.567389,109.32734 322.495735,109.32734 C328.424081,109.32734 333.229956,114.133214 333.229956,120.061561 C333.229956,125.989907 328.424081,130.795781 322.495735,130.795781 Z M283.852541,89.7910584 C277.924194,89.7910584 273.11832,84.9851841 273.11832,79.0568377 C273.11832,73.1284913 277.924194,68.322617 283.852541,68.322617 C289.780887,68.322617 294.586761,73.1284913 294.586761,79.0568377 C294.586761,84.9851841 289.780887,89.7910584 283.852541,89.7910584 Z" id="Shape"></path>
            </g>
        </g>
    </g>
</svg>
