<svg viewBox="0 0 191 501" version="1.1" xmlns="http://www.w3.org/2000/svg" xmlns:xlink="http://www.w3.org/1999/xlink">
    <defs></defs>
    <g id="Page-1" stroke-width="1" fill-rule="evenodd">
        <g id="champagne" fill-rule="nonzero">
            <path d="M78.917554,55.9782632 C78.9096708,60.5912891 78.8968928,65.649367 78.8781596,71.0507575 C78.8180256,88.3894037 78.7097805,105.72867 78.5413561,121.916121 C78.2168931,153.100628 77.7109081,176.173626 76.9786446,187.971203 C76.0217326,203.38812 72.9205566,208.59365 46.4211232,246.479829 C29.391418,270.827159 21.3303891,286.512615 19.1806785,303.551062 C17.1315385,319.792393 16.4022276,350.20736 16.7503395,390.400599 C16.9225009,410.278469 17.3492171,431.543051 17.9527424,453.106042 C18.2339531,463.15325 18.5352465,472.602701 18.8364995,481.174155 C18.8751576,482.274083 18.9119714,483.308169 18.9467435,484.273669 L172.611635,484.273669 C172.646296,483.31245 172.682983,482.283223 172.721501,481.188696 C173.022752,472.628467 173.324043,463.190242 173.605252,453.153517 C174.210651,431.546016 174.638087,410.234824 174.809191,390.314079 C175.153586,350.218189 174.423285,319.8431 172.376729,303.546447 C170.225704,286.417919 162.154062,270.694713 145.139615,246.400029 C118.540842,208.420023 115.536144,203.386318 114.579343,187.971203 C113.84708,176.173626 113.341095,153.100628 113.016632,121.916121 C112.848208,105.72867 112.739962,88.3894037 112.679828,71.0507575 C112.661095,65.649367 112.648317,60.5912891 112.640434,55.9782632 L78.917554,55.9782632 Z M128.733052,39.8769322 L128.733052,47.9275977 C128.73305,49.0769083 128.73305,49.0769083 128.73905,54.266822 C128.746552,59.3137746 128.760056,64.9379523 128.781063,70.994915 C128.841077,88.2991267 128.9491,105.602718 129.117091,121.748601 C129.438484,152.63801 129.941074,175.55621 130.649748,186.97373 C131.323174,197.823363 134.476119,203.105422 158.328256,237.163546 C176.762727,263.485863 185.779381,281.04991 188.352577,301.540178 C190.519074,318.791911 191.260548,349.631721 190.909929,390.452373 C190.737836,410.488209 190.30838,431.900105 189.700267,453.604466 C189.417929,463.681484 189.115421,473.15785 188.812871,481.754981 C188.631225,486.916584 188.489816,490.640853 188.40877,492.648985 L188.096958,500.375 L3.46056484,500.375 L3.14919847,492.648501 C3.06815511,490.637425 2.92674831,486.907977 2.74510381,481.739705 C2.4425569,473.131436 2.14005032,463.643933 1.85771444,453.556525 C1.25149196,431.897169 0.822765255,410.532397 0.649612351,390.540047 C0.29517732,349.616742 1.03561329,318.737819 3.20599135,301.535564 C5.7795167,281.137992 14.7794155,263.625648 33.2269816,237.251205 C56.9975782,203.266438 60.2341798,197.833588 60.9082399,186.97373 C61.6169135,175.55621 62.1195039,152.63801 62.4408966,121.748601 C62.6088884,105.602718 62.7169108,88.2991267 62.7769254,70.994915 C62.7979322,64.9379523 62.8114363,59.3137746 62.8189379,54.266822 C62.8249376,49.0769083 62.8249376,49.0769083 62.8249365,47.9275977 L62.8249365,39.8769322 L128.733052,39.8769322 Z M72.2710507,16.476331 L72.2710507,39.8769322 L119.286937,39.8769322 L119.286937,16.476331 L72.2710507,16.476331 Z M64.2203852,0.375 L127.337603,0.375 C131.783863,0.375 135.388268,3.97940573 135.388268,8.42566552 L135.388268,47.9275977 C135.388268,52.3738575 131.783863,55.9782632 127.337603,55.9782632 L64.2203852,55.9782632 C59.7741254,55.9782632 56.1697196,52.3738575 56.1697196,47.9275977 L56.1697196,8.42566552 C56.1697196,3.97940573 59.7741254,0.375 64.2203852,0.375 Z M95.778994,330.552545 L164.155987,271.544994 L174.675509,283.734847 L95.778994,351.820469 L16.8824786,283.734847 L27.4020014,271.544994 L95.778994,330.552545 Z M57.9945372,230.302007 L57.9945372,214.200676 L133.563451,214.200676 L133.563451,230.302007 L57.9945372,230.302007 Z M95.778994,439.833995 C73.9033958,439.833995 56.1697196,422.100319 56.1697196,400.224721 C56.1697196,378.349123 73.9033958,360.615447 95.778994,360.615447 C117.654592,360.615447 135.388268,378.349123 135.388268,400.224721 C135.388268,422.100319 117.654592,439.833995 95.778994,439.833995 Z M95.778994,423.732664 C108.762073,423.732664 119.286937,413.2078 119.286937,400.224721 C119.286937,387.241642 108.762073,376.716778 95.778994,376.716778 C82.7959154,376.716778 72.2710507,387.241642 72.2710507,400.224721 C72.2710507,413.2078 82.7959154,423.732664 95.778994,423.732664 Z" id="Shape"></path>
        </g>
    </g>
</svg>
