<?xml version="1.0" encoding="UTF-8"?>
<svg viewBox="0 0 38 50" version="1.1" xmlns="http://www.w3.org/2000/svg" xmlns:xlink="http://www.w3.org/1999/xlink">
    <!-- Generator: Sketch 53.2 (72643) - https://sketchapp.com -->
    <title>Changing mat</title>
    <desc>Created with Sketch.</desc>
    <g id="Icons---Kids" stroke="none" stroke-width="1" fill="none" fill-rule="evenodd">
        <g id="Icons/Kids_icons_board" transform="translate(-204.000000, -109.000000)" fill="#005589" fill-rule="nonzero">
            <g id="Icons" transform="translate(16.000000, 104.000000)">
                <g id="Assets/Icons/Equipments/Baby/Changing-mat" transform="translate(177.000000, 0.000000)">
                    <path d="M20.4013466,53.5 C20.1460914,53.0587399 20,52.5464307 20,52 L20,16 C20,14.3431458 21.3431458,13 23,13 L37,13 C38.6568542,13 40,14.3431458 40,16 L40,52 C40,52.5464307 39.8539086,53.0587399 39.5986534,53.5 L46,53.5 C46.8284271,53.5 47.5,52.8284271 47.5,52 L47.5,8 C47.5,7.17157288 46.8284271,6.5 46,6.5 L14,6.5 C13.1715729,6.5 12.5,7.17157288 12.5,8 L12.5,52 C12.5,52.8284271 13.1715729,53.5 14,53.5 L20.4013466,53.5 Z M14,5 L46,5 C47.6568542,5 49,6.34314575 49,8 L49,52 C49,53.6568542 47.6568542,55 46,55 L14,55 C12.3431458,55 11,53.6568542 11,52 L11,8 C11,6.34314575 12.3431458,5 14,5 Z M23,14.5 C22.1715729,14.5 21.5,15.1715729 21.5,16 L21.5,52 C21.5,52.8284271 22.1715729,53.5 23,53.5 L37,53.5 C37.8284271,53.5 38.5,52.8284271 38.5,52 L38.5,16 C38.5,15.1715729 37.8284271,14.5 37,14.5 L23,14.5 Z" id="Changing-mat"></path>
                </g>
            </g>
        </g>
    </g>
</svg>
