<svg version="1.1"
   xmlns="http://www.w3.org/2000/svg" xmlns:xlink="http://www.w3.org/1999/xlink"
   x="0px" y="0px" viewBox="0 0 500 281.1" style="enable-background:new 0 0 500 281.1;"
   xml:space="preserve">
<defs>
</defs>
<g>
  <g>
    <path class="st0" d="M495.2,169.2l-100-70V20.2c0-6.2-5.1-11.3-11.3-11.3h-36.3c-6.2,0-11.3,5.1-11.3,11.3V58L256.5,2
      c-3.9-2.7-9.1-2.7-13,0L4.8,169.2c-5.1,3.6-6.3,10.6-2.8,15.7c2.2,3.1,5.7,4.8,9.3,4.8c2.2,0,4.5-0.7,6.5-2L250,25.1l232.2,162.7
      c5.1,3.6,12.1,2.3,15.7-2.8C501.5,179.9,500.3,172.8,495.2,169.2z M358.9,31.5h13.7v51.8l-13.7-9.6V31.5z"/>
    <path class="st0" d="M359.9,206.9c6.2,0,11.3-5.1,11.3-11.3v-55c0-3.7-1.8-7.1-4.8-9.2l-109.9-77c-3.9-2.7-9.1-2.7-13,0l-109.9,77
      c-3,2.1-4.8,5.6-4.8,9.2v55c0,6.2,5.1,11.3,11.3,11.3H359.9z M151.4,151.9h32.4v32.4h-32.4V151.9z M293.6,151.9v32.4h-32.4v-32.4
      H293.6z M238.7,184.3h-32.4v-32.4h32.4V184.3z M316.2,184.3v-32.4h32.4v32.4H316.2z M250,77.4l74.1,52H175.9L250,77.4z"/>
    <path class="st0" d="M431.6,168.7c-6.2,0-11.3,5.1-11.3,11.3v78.6H79.7v-79.6c0-6.2-5.1-11.3-11.3-11.3c-6.2,0-11.3,5.1-11.3,11.3
      v90.9c0,6.2,5.1,11.3,11.3,11.3h363.2c6.2,0,11.3-5.1,11.3-11.3V180C442.9,173.7,437.8,168.7,431.6,168.7z"/>
  </g>
</g>
</svg>
