<svg xmlns="http://www.w3.org/2000/svg" viewBox="0 0 500 375.5"><path d="M277.3 0C53.7 0 4.4 220 0 308.2c0 0 117.2 59.2 210.9-21.8-5.4-25.5-2.6-53.5.3-63-5.4-7-10.9-30.4-6.9-40.6 3.9-10 16.6-11.2 18.8-14.6 3.2-5.1 4.2-11.9 2.1-18.1-1.2-3.8-4.1-13.5-7.3-11.7 0 0-5.4 2.3-5.9 3.2-2.7 4-1.8 7.3-.1 10.4 1.9 3.4-3.9 5.5-3.5.1.3-4.5-2.7-5.8-4.3-3.1-1 1.7-.2 3.2-1.9 5.3-1.7 2.1-4.8-.5-3-3.1.7-.9 1.6-1.6 2.7-2.7 2.2-2.4.6-4.8-1.7-4.8-1.3 0-2.8 1.3-3.7 2.2-3.7 3.5-7.4-1.3-1.6-3.3 1.4-.5 4.1-.6 4.1-3.2 0-2.9-3.1-2.6-5.8-2.3-3.9.3-3.2-5.3.5-4.4 3.1.8 4.5 3.2 6.3 1.6 1.3-1.1.7-3.3-2.6-5-3.7-2 .7-7.4 3.4-2.1 3.3 6.4 6.5 6.9 10.6 4.8 1.1-.6 14.1-8 14.7-6.3.6 1.8 8.7 23.6 8.6 25.6-.1 2 20.9-45.8 86.3-36 0 0-6.6-27.7-4.5-28.6 2-.9 27.2-6.2 27.2-6.2 1.7-.2 3.3-2.1 3.3-2.1 2.6-5.1 1-9-1.5-12.4-2.8-3.8 3.7-7.1 4.2-.7.4 5.4 4.1 6.5 5.6 3 .9-2.1-.2-3.8 1.5-6.6 1.7-2.7 5.8-.1 4 3.3-.6 1.2-1.7 2.1-2.9 3.7-2.3 3.2 0 5.8 2.7 5.4 1.6-.2 3.1-2 4-3.1 3.9-4.8 9 .4 2.4 3.7-1.6.8-4.8 1.4-4.3 4.4.5 3.5 4.1 2.5 7.3 1.9 4.6-1 4.7 5.9 0 5.4-3.8-.4-5.8-3.1-7.7-.9-1.3 1.5-.3 4 3.9 5.6 4.8 1.8.4 8.9-3.8 3-4.9-7.1-9.7-8.3-15.5-6.6L325.7 94s7.5 14.6 9.6 18.4c2.1 3.8 3.5 5.6 7.7 7.5 20.7 9.6 61.5 35 74.8 79.2 5.6 18.7 5.9 32.7 4.3 46.7-1.3 10.9-4.1 21.8-9 31.9-5.1 10.2-12.5 19.4-21.6 26.4-9.1 7-20 11.8-31.3 14-5.6 1.1-11.4 1.5-17.1 1.4-5.8-.1-11.6-1-17.2-2.6-11.2-3.2-21.5-9.5-29.4-18.2-7.9-8.6-13.3-19.7-14.7-31.6-.7-5.9-.4-12 1-17.8 1.4-5.8 4-11.4 7.4-16.3 6.8-9.8 17.1-17.1 28.6-20.3 5.8-1.6 11.7-2.3 17.8-1.8 6.1.5 12.1 2.3 17.4 5.3 1.3.7 4.1 2.4 7.2 5.1 3.1 2.7 6.4 6.5 8.8 10.7 2.4 4.2 4 8.7 4.7 12.3.7 3.5.8 6 .9 6.4.2 4.4-1.5 4.4-2.4 2.5-.7-1.3-1.3-4.7-2.7-8.7-1.3-4-3.6-8.7-6.7-12.7-3-4-6.9-7.3-10.2-9.4-3.4-2.1-6.2-3.2-7.2-3.6-4.9-1.8-10.1-2.5-15.3-2.3-5.2.2-10.3 1.4-15.1 3.3-9.6 3.9-17.9 11-22.9 20-2.5 4.5-4.2 9.4-4.9 14.5-.7 5-.5 10.2.4 15.3 2 10.1 7.3 19.3 14.6 26.5 7.3 7.2 16.6 12.3 26.5 14.7 9.9 2.4 20.4 2.2 30.4.1 10-2.2 19.4-6.6 27.3-13 7.9-6.3 14.3-14.5 18.8-23.6 4.7-9.3 7.4-19.5 8.6-30 1.2-10.5.9-21.1-1.2-31.3-3.3-16.6-11.3-32.3-22.8-44.6-3.5-3.5-7.6-7.2-12.3-10.9-3.7-2.7-7.5-5.1-11.6-7.2-11.3-5.6-25.5-9.6-28.3-5.9-3.5 4.7-9.6 20.6-7.3 23.1 3.5 3.9 25.6 6.3 26.9 6.2 5.9-.1 8.6-3.5 10.5-7.4 2.1-4.4 8.3 0 2.7 3.5-4.7 3-3.9 6.9 0 6.6 2.4-.2 3.3-2.1 6.7-1.9 3.3.2 2.9 5.2-1 5.2-1.4 0-2.8-.5-4.7-.8-4-.5-5.2 2.8-3.6 5.1 1 1.3 3.4 1.9 4.8 2.1 6.2 1.2 4 8.4-2.2 4-1.5-1.1-3.6-3.7-6.1-1.8-2.9 2.1-.3 5 1.8 7.5 3.1 3.7-3 7.1-4.8 2.7-1.5-3.7-.1-6.8-2.9-7.4-2-.5-3.7 1.7-3.2 6.2.7 5.2-7.9 4.7-4.6-2 4-7.9 2.3-11.5-2.9-14.1-1.4-.7-26.7-4.1-28-6.7-1.4-2.6 0-31 0-31s-19.5 15.1-32.5 17.2c-15.1 2.4-29.6-1.7-33.3 7.4 0 0 18.5-1.7 20.5.3s6.2 14.4 6.2 14.4l2.1 6c3.7 2.9 7.1 2.2 10.2.7 3.5-1.6 5.1 4.1-.1 3.5-4.4-.5-5.8 2.3-3.3 4 1.5 1.1 3.1.4 5 2.2 1.9 1.8-.8 4.7-3.2 2.7-.9-.7-1.5-1.7-2.5-2.9-2.2-2.3-4.6-.9-4.8 1.4-.1 1.3 1.2 2.8 1.9 3.7 3.2 3.9-1.7 7.2-3.3 1.3-.4-1.4-.3-4-2.9-4.2-2.9-.1-2.7 2.9-2.6 5.5.1 3.8-5.4 2.8-4.3-.8.9-3 3.3-4.2 1.9-6-1-1.3-3.1-.8-5 2.2-2.2 3.5-7.2-1.1-1.8-3.5 6.4-2.9 7.1-5.9 5.3-10.1 0 0-4.2-11.3-5.4-13-1.2-1.6-23.5 2.3-25.6 5.8-3.2 5.2 4.6 8.2 1.5 18.8-2.3 7.7-17.9 21.1-26.6 24.5-.5 3.3-6.2 33.8-1.4 61.4 3.6 20.8 17.1 39.7 21.2 44.9-1.1-2.6-2.1-5.3-2.9-8-2.6-9-3.4-18.6-2.3-28.1 1.5-9.6 5-19 10.3-27.3 5.4-8.3 12.7-15.4 21.4-20.3.5-.3 2.3-1.3 4.1-2.1 1.8-.8 3.5-1.5 3.7-1.6.8-.3 1.4 1.1 1.3 2.1-.1 1.5-1.8 3-3.5 4.4-1.7 1.3-3.5 2.4-3.9 2.7-7.5 4.8-13.5 11.5-17.9 19-4.4 7.5-7 15.9-8 24.4-1.3 8.6-1.1 17.5 1.3 25.8 5.7 20.1 17.6 34 45 44.1-.7-.7-1.3-1.5-1.9-2.2-4.4-5.4-7.7-11.5-10-18.1-2.1-6.8-3.2-13.8-3.2-21 0-3.6.3-7.2 1-10.9.8-3.6 1.9-7.3 4.1-10.8.3-.4 1.2-1.9 2.3-3.1 1.1-1.3 2.4-2.3 2.5-2.4.6-.5 1.5.7 1.8 1.7.5 1.4-.3 3-.9 4.5-.6 1.5-1.3 2.8-1.4 3.1-2.7 5.7-3.2 12.2-2.8 18.5.4 6.3 1.8 12.5 4 18.3 1.9 6 4.7 11.7 8.3 16.7 7.3 9.9 15.7 14.7 54 15.3-3.9-1.8-7.7-4.1-11-6.9-4.9-4.5-8.9-9.9-12.1-15.7-3.1-5.8-5.6-12-6.6-19-.1-.4-.2-1.9-.2-3.4s.3-3.2.3-3.3c.2-.8 1.7-.4 2.5.1 1.2.8 1.8 2.4 2.3 3.8.5 1.4.8 2.7.8 3.1 1.3 5.8 3.9 11.2 7 16.1 3.1 4.9 7 9.3 11.4 12.8 4.2 3.9 9.2 6.6 14.4 8.5 15.1 5.7 42.9-5.3 53.8-10.4-4.7.6-9.5.6-14.2-.1-6.8-1.3-13.2-3.9-19.1-7.5-5.8-3.6-11.1-8-15.6-13.1-.6-.6-3.7-4.4-3.8-4.7-.2-.3 0-.6.4-1 .4-.3 1-.6 1.4-.7 2.7-.8 6.2 2.9 6.7 3.3 8.8 8.6 18.7 14.1 31.5 16.1 21.6 3.4 39.2-5.9 55.6-22.5 30-30.5 50.2-73.8 50.2-123C500.2 136.1 447.8 0 277.3 0z"/></svg>
