<svg version="1.1"
   xmlns="http://www.w3.org/2000/svg" xmlns:xlink="http://www.w3.org/1999/xlink"
   x="0px" y="0px" viewBox="0 0 500 338.2" style="enable-background:new 0 0 500 338.2;"
   xml:space="preserve">
<defs>
</defs>
<g>
  <path class="st0" d="M140.6,208.2c0-6.6-2.7-11.9-8-13.3c-11.9-4-25.2-6.6-41.1-6.6C0,188.3,0,293.1,0,327.6
    c0,5.3,4,10.6,10.6,10.6s10.6-4,10.6-10.6c0-45.1,5.3-119.4,71.6-119.4c13.3,0,25.2,1.3,34.5,5.3
    C132.6,214.9,137.9,212.2,140.6,208.2z"/>
  <path class="st0" d="M407.2,188.3c-15.9,0-29.2,2.7-41.1,6.6c-5.3,1.3-8,8-5.3,13.3c1.3,5.3,8,8,13.3,5.3c9.3-4,21.2-5.3,34.5-5.3
    c66.3,0,71.6,74.3,71.6,119.4c0,5.3,4,10.6,9.3,10.6s10.6-4,10.6-10.6C498.7,293.1,498.7,188.3,407.2,188.3z"/>
  <path class="st0" d="M246.7,164.5c-100.8,0-108.8,99.5-108.8,163.1c0,5.3,4,10.6,10.6,10.6s9.3-4,9.3-10.6
    c0-59.7,6.6-143.2,90.2-143.2s90.2,82.2,90.2,143.2c0,5.3,4,10.6,10.6,10.6s10.6-4,10.6-10.6C356.8,263.9,348.8,164.5,246.7,164.5z
    "/>
  <path class="st0" d="M252,143.2c39.8,0,71.6-31.8,71.6-71.6S291.8,0,252,0s-71.6,31.8-71.6,71.6S212.2,143.2,252,143.2z M252,19.9
    c29.2,0,51.7,22.5,51.7,51.7s-22.5,51.7-51.7,51.7c-29.2,0-51.7-22.5-51.7-51.7S222.8,19.9,252,19.9z"/>
  <path class="st0" d="M404.5,169.8c29.2,0,51.7-22.5,51.7-51.7s-22.5-51.7-51.7-51.7c-29.2,0-51.7,22.5-51.7,51.7
    S375.3,169.8,404.5,169.8z M404.5,86.2c17.2,0,31.8,14.6,31.8,31.8s-14.6,31.8-31.8,31.8s-31.8-14.6-31.8-31.8
    S387.3,86.2,404.5,86.2z"/>
  <path class="st0" d="M99.5,169.8c29.2,0,51.7-22.5,51.7-51.7s-22.5-51.7-51.7-51.7S47.7,88.9,47.7,118S70.3,169.8,99.5,169.8z
     M99.5,86.2c17.2,0,31.8,14.6,31.8,31.8s-14.6,31.8-31.8,31.8S67.6,135.3,67.6,118S82.2,86.2,99.5,86.2z"/>
</g>
</svg>
