<svg viewBox="0 0 494 494" version="1.1" xmlns="http://www.w3.org/2000/svg" xmlns:xlink="http://www.w3.org/1999/xlink">
    <!-- Generator: Sketch 48 (47235) - http://www.bohemiancoding.com/sketch -->
    <title>Group</title>
    <defs></defs>
    <g id="Page-1" stroke-width="1" fill-rule="evenodd">
        <g id="Group" transform="translate(-3.000000, -3.000000)" fill-rule="nonzero">
            <path d="M250,496.437961 C113.896072,496.437961 3.56203854,386.103928 3.56203854,250 C3.56203854,113.896072 113.896072,3.56203854 250,3.56203854 C386.103928,3.56203854 496.437961,113.896072 496.437961,250 C496.437961,386.103928 386.103928,496.437961 250,496.437961 Z M250,477.919443 C375.876433,477.919443 477.919443,375.876433 477.919443,250 C477.919443,124.123567 375.876433,22.0805571 250,22.0805571 C124.123567,22.0805571 22.0805571,124.123567 22.0805571,250 C22.0805571,375.876433 124.123567,477.919443 250,477.919443 Z" id="Oval"></path>
            <path d="M201.354445,352.130243 L188.291731,319.17107 L195.100362,315.143914 L202.190078,310.950506 C211.280203,305.585343 220.974523,297.887561 230.124536,288.734696 L274.178818,244.666683 L279.961047,256.038887 L328.002847,350.525186 C328.705972,351.900145 329.600604,353.133779 330.6577,354.191203 C332.172168,355.706144 333.94711,356.783495 335.779655,357.32828 C338.411445,358.12075 341.018716,357.842032 343.276359,356.561439 C349.022763,353.306617 352.025993,343.716051 349.138479,336.302821 L302.401521,216.435183 L306.67648,212.158892 L331.654887,187.172701 C343.451223,175.364601 352.685898,162.887605 357.602918,152.25018 C360.742817,145.476265 361.720487,139.53098 361.090963,138.901259 C357.774311,135.583573 334.374229,146.816857 312.852405,168.345388 L283.594239,197.602641 L277.958816,195.403735 L163.768352,150.847333 C156.350183,147.969219 146.762756,150.98279 143.499831,156.742091 C142.222458,158.99114 141.942484,161.602425 142.748702,164.266906 C143.282155,166.062653 144.356328,167.831766 145.867694,169.343603 C146.94055,170.416794 148.163363,171.305439 149.52159,171.997781 L255.352398,225.846184 L246.338374,234.863017 L211.306706,269.905603 C202.151839,279.071442 194.455855,288.769539 189.097053,297.862461 L180.870145,311.76859 L173.513298,308.846108 L147.922477,298.68024 C141.387643,296.089944 134.805244,294.173666 128.98842,293.067166 C132.804411,295.940926 137.426083,298.83649 142.346599,301.37881 C152.452813,306.602923 163.71092,315.252766 174.262474,325.80761 C184.788788,336.328104 193.433734,347.592161 198.674307,357.717665 C201.215665,362.644314 204.109623,367.270932 206.980891,371.089297 C205.873208,365.267986 203.952664,358.677635 201.354445,352.130243 Z M182.222206,366.218475 C177.937683,357.940204 170.433939,348.163093 161.168695,338.90297 C151.87704,329.60842 142.104685,322.100111 133.844507,317.830252 C124.511486,313.00809 115.966426,307.058895 110.213994,301.30467 C105.938495,297.027839 103.428894,293.137554 102.423031,289.666032 C101.602603,286.872213 101.654858,284.134313 102.650918,281.668487 C103.082059,280.713293 103.082059,280.713293 103.318229,280.304416 C109.391188,269.80743 131.604003,272.291604 154.752789,281.467386 L172.993197,288.713325 C179.335105,277.953244 187.995251,267.040158 198.207196,256.815975 L224.227741,230.78732 L141.117619,188.499562 C138.02237,186.921797 135.217955,184.883767 132.771083,182.436133 C129.119473,178.783384 126.423842,174.343802 125.010473,169.585604 C122.757375,162.140465 123.599888,154.282421 127.392373,147.605066 C135.335879,133.584173 154.745612,127.483202 170.48329,133.589152 L279.054908,175.953098 L299.756918,155.251736 C328.284301,126.715462 359.914551,111.531259 374.187573,125.808729 C382.753379,134.377205 380.804024,146.231377 374.408374,160.029131 C368.497259,172.817187 357.990133,187.013394 344.75374,200.262987 L324.048049,220.97513 L366.393055,329.578601 C372.516517,345.299608 366.432528,364.728317 352.408071,372.671912 C345.723629,376.463505 337.883496,377.301617 330.471735,375.06977 C325.664768,373.640898 321.218056,370.94184 317.56109,367.283733 C315.130413,364.852299 313.09407,362.044329 311.505338,358.937515 L269.236,275.804263 L243.221146,301.827226 C233.014673,312.036879 222.104426,320.70017 211.610272,326.894013 L218.568674,345.303399 C227.754877,368.452196 230.240894,390.666004 219.74492,396.751554 L218.295397,397.591986 L216.643274,397.871147 C214.230988,398.278755 212.393062,398.247908 210.346236,397.641232 C206.855618,396.61426 202.988167,394.12484 198.734584,389.861415 C192.983863,384.107825 187.037696,375.553746 182.222206,366.218475 Z" id="Page-1"></path>
        </g>
    </g>
</svg>
