<svg viewBox="0 0 500 500" version="1.1" xmlns="http://www.w3.org/2000/svg" xmlns:xlink="http://www.w3.org/1999/xlink">
    <title>circledAccommodation</title>
    <defs></defs>
    <g id="Page-1" stroke-width="1" fill-rule="evenodd">
        <g id="circledAccommodation" fill-rule="nonzero">
            <path d="M250,499.431135 C112.242988,499.431135 0.568864919,387.757012 0.568864919,250 C0.568864919,112.242988 112.242988,0.568864919 250,0.568864919 C387.757012,0.568864919 499.431135,112.242988 499.431135,250 C499.431135,387.757012 387.757012,499.431135 250,499.431135 Z M250,480.687695 C377.405297,480.687695 480.687695,377.405297 480.687695,250 C480.687695,122.594703 377.405297,19.3123048 250,19.3123048 C122.594703,19.3123048 19.3123048,122.594703 19.3123048,250 C19.3123048,377.405297 122.594703,480.687695 250,480.687695 Z M415.394499,244.77695 C415.394499,208.049234 385.482918,178.137652 348.755201,178.137652 L203.035504,178.137652 L203.035504,257.151874 L99.3376088,257.151874 L99.3376088,215.196249 C99.3376088,211.093333 96.0288055,207.784529 91.9258894,207.784529 C87.8229733,207.784529 84.51417,211.093333 84.51417,215.196249 L84.51417,333.717583 C84.51417,337.820499 87.8229733,341.129302 91.9258894,341.129302 C96.0288055,341.129302 99.3376088,337.820499 99.3376088,333.717583 L99.3376088,271.975313 L203.035504,271.975313 L203.035504,291.761957 L380.850593,291.761957 L380.850593,333.717583 C380.850593,337.820499 384.159396,341.129302 388.262312,341.129302 C392.365229,341.129302 395.674032,337.820499 395.674032,333.717583 L395.674032,291.761957 L415.394499,291.761957 L415.394499,244.77695 Z M400.571061,276.938518 L217.858943,276.938518 L217.858943,192.961091 L348.755201,192.961091 C377.343262,192.961091 400.637237,216.255066 400.637237,244.843126 L400.637237,276.938518 L400.571061,276.938518 Z M152.278462,240.938738 C168.888654,240.938738 182.454748,227.372645 182.454748,210.762452 C182.454748,194.15226 168.888654,180.586166 152.278462,180.586166 C135.668269,180.586166 122.102175,194.15226 122.102175,210.762452 C122.102175,227.372645 135.668269,240.938738 152.278462,240.938738 Z M152.278462,192.696386 C162.271047,192.696386 170.410704,200.836042 170.410704,210.828628 C170.410704,220.821214 162.271047,228.96087 152.278462,228.96087 C142.285876,228.894694 134.146219,220.755038 134.146219,210.762452 C134.146219,200.769866 142.285876,192.696386 152.278462,192.696386 Z" id="Oval"></path>
        </g>
    </g>
</svg>
