<?xml version="1.0" encoding="UTF-8"?>
<svg viewBox="0 0 494 501" version="1.1" xmlns="http://www.w3.org/2000/svg" xmlns:xlink="http://www.w3.org/1999/xlink">
    <!-- Generator: Sketch 51.3 (57544) - http://www.bohemiancoding.com/sketch -->
    <title>circledCross</title>
    <desc>Created with Sketch.</desc>
    <defs></defs>
    <g id="Page-1" stroke="none" stroke-width="1" fill="none" fill-rule="evenodd">
        <path d="M226.425128,252.961227 L166.209504,192.745602 C159.826204,186.362302 159.826204,176.012928 166.209504,169.629628 C172.592804,163.246328 182.942178,163.246328 189.325478,169.629628 L249.541103,229.845252 L309.756727,169.629628 C316.140027,163.246328 326.489401,163.246328 332.872702,169.629628 C339.256002,176.012928 339.256002,186.362302 332.872702,192.745602 L272.657077,252.961227 L332.872702,313.176851 C339.256002,319.560151 339.256002,329.909525 332.872702,336.292825 C326.489401,342.676125 316.140027,342.676125 309.756727,336.292825 L249.541103,276.077201 L189.325478,336.292825 C182.942178,342.676125 172.592804,342.676125 166.209504,336.292825 C159.826204,329.909525 159.826204,319.560151 166.209504,313.176851 L226.425128,252.961227 Z M246.994124,500.414248 C111.036561,500.414248 0.962378454,388.408939 0.962378454,250.414248 C0.962378454,112.419557 111.036561,0.414248265 246.994124,0.414248265 C382.951688,0.414248265 493.025871,112.419557 493.025871,250.414248 C493.025871,388.408939 382.951688,500.414248 246.994124,500.414248 Z M247.624006,462.015698 C361.85718,462.015698 454.603094,367.642663 454.603094,251.056243 C454.603094,134.469823 361.85718,40.0967879 247.624006,40.0967879 C133.390832,40.0967879 40.6449181,134.469823 40.6449181,251.056243 C40.6449181,367.642663 133.390832,462.015698 247.624006,462.015698 Z" id="circledCross" fill="#D64242" fill-rule="nonzero"></path>
    </g>
</svg>
