<svg version="1.1" id="Layer_1" xmlns="http://www.w3.org/2000/svg" xmlns:xlink="http://www.w3.org/1999/xlink" x="0px" y="0px"
	 viewBox="0 0 500 500" style="enable-background:new 0 0 500 500;" xml:space="preserve">
<path class="st0" d="M178.6,288.9l16.6,3.5L99.1,401l108.3-95.1l3.5,16.6l-42.7,125.1l48.6-98.5l25.4,116.4c0.8,3.5,3.9,6,7.5,6
	c3.7,0,6.9-2.4,8-6l25.4-116.4l48.6,98.8L289,322.3l3.5-16.6L401,401l-95.5-108.8l16.6-3.5L448,331.6l-99.8-48.7l117.4-25.6
	c4.1-0.9,6.8-4.9,5.9-9.1c-0.6-3-2.9-5.3-5.9-5.9l-116.4-25.4l98.1-48.7l-125.6,42.7l-16.6-3.5L400.7,99l-108.6,95.3l-3.5-16.6
	l42.9-125.6l-48.2,99.5L257.8,35.1c-0.8-3.5-3.9-6-7.5-6l0,0c-3.6,0-6.7,2.5-7.5,6l-25.9,116.4l-48.2-98.6L211.1,178l-3.7,16.6
	L99.3,99.1l95.1,108.4l-16.6,3.5L53.1,168.2l98.8,48.6L34.4,242.5c-4.1,0.9-6.8,4.9-5.9,9.1c0.6,3,2.9,5.3,5.9,5.9l117.4,25.6
	L53,331.7L178.6,288.9z M288.6,288.9L288.6,288.9z M37.3,250.3H36L211.5,212l0,0l38.7,38.4l-0.3-214.1l0,0l38.3,175.5l0,0l-38,38.6
	h213.9l-175.6,37.9l0,0l-38.3-37.9l0,0v213.4l0,0l0,0l0,0l-38.3-175.1l38.3-38.3L37.3,250.3L37.3,250.3z M288.2,211.8l175.9,38.6
	 M908.1,37.4"/>
<path class="st0" d="M250,499.5c137.8,0,249.5-111.7,249.5-249.5S387.8,0.5,250,0.5S0.5,112.2,0.5,250S112.2,499.5,250,499.5
	 M250,13.8c130.4-0.1,236.3,105.6,236.4,236s-105.6,236.3-236,236.4S14.1,380.6,14,250.2c0-0.1,0-0.1,0-0.2
	C14.1,119.7,119.7,14,250,13.8"/>
</svg>
