<?xml version="1.0" encoding="utf-8"?>
<!-- Generator: Adobe Illustrator 22.1.0, SVG Export Plug-In . SVG Version: 6.00 Build 0)  -->
<svg version="1.1" id="Calque_1" xmlns="http://www.w3.org/2000/svg" xmlns:xlink="http://www.w3.org/1999/xlink" x="0px" y="0px"
	 viewBox="0 0 500 500" style="enable-background:new 0 0 500 500;" xml:space="preserve">

<g>
	<path class="st0" d="M187.3,142.3c-14.9,8.1-25,16.3-30,24.7c-3.5,5.9-3.8,10.7-3.4,13.4c1.4,39.3,0.3,96,0.3,96.6
		c0,0.5,0,0.9,0.1,1.4c0.1,0.6,0.2,1.2,0.3,1.8c-0.7,2-0.8,4.3-0.2,6.5c0.5,1.5,1.3,2.8,2.3,3.9c2.6,9.2,6.8,16.9,11.8,23.4
		l-18.3,129.6c-0.7,5,2.2,9.7,7,11.3c4.8,1.6,12.2,4.1,20.2,4.1c11,0,23-4.8,30.1-23.5c0.1-0.4,0.3-0.8,0.4-1.2
		c0.6-2.3,12-48.3,18.1-73.7l71,53.6c1.9,1.4,4.1,2.1,6.2,2.1c2.6,0,5.2-1,7.2-2.9c0.5-0.5,1.1-1.1,1.8-1.7c1.4,4.1,5.2,7.1,9.8,7.1
		h7c0.3,0,0.6-0.1,0.9-0.1v70.9c0,5.7,4.6,10.4,10.4,10.4c5.7,0,10.4-4.6,10.4-10.4V10.4c0-5.7-4.6-10.4-10.4-10.4
		c-5.7,0-10.4,4.6-10.4,10.4v83h-16.3c-5.6,0-10.2,4.5-10.3,10c-11.1,2.6-21.6,5.3-31.5,8l10.6-99.2c0.7-5.7-3.4-10.8-9.1-11.5
		c-5.7-0.7-10.8,3.4-11.5,9.1l-11.6,107.9c-11.8,3.6-22.5,7.2-32.1,10.9c7.8-9.3,11.2-22,8-34.5c-4.4-17.3-19.9-29.4-37.9-29.4
		c-3.2,0-6.3,0.4-9.4,1.2c-10,2.5-18.5,8.9-23.9,17.8c-5.4,9-6.9,19.4-4.4,29.5C154.8,130,169.8,141.9,187.3,142.3z M187.8,428.8
		c-3.5,8.9-7.1,11-15.8,8.9l14.9-105.9c2.4,1.8,4.7,3.4,7,4.8l13.8,10.4C203.2,367,189.4,422.3,187.8,428.8z M302,392.1l-93.7-70.6
		c-0.5-0.5-1.1-1-1.7-1.4c-0.3-0.2-0.5-0.3-0.8-0.5l-5.3-4c-0.7-0.5-1.5-0.9-2.3-1.3c-8-6-15.3-13.6-19.7-24.2l29-8.8
		c3.4,11.5,8.6,15.9,10.7,17.3c14.3,12,77.5,70.6,82.8,75.5C307.4,381.3,307.7,385.5,302,392.1z M329.8,303.6
		c-2.3-0.4-4.6-2.3-6.3-5.3h6.3V303.6z M303.6,124.6c1.2,4.4,5.2,7.7,10,7.7h16.3v26.1h-4.4c-5.7,0-10.4,4.6-10.4,10.4v9.8
		c0,5.7,4.7,10.4,10.4,10.4h4.4v88.6h-19.2c-5.7,0-10.4,4.6-10.4,10.4c0,20.2,12.9,36.1,29.6,36.6v63.9c-0.3,0-0.6-0.1-0.9-0.1h-2.6
		c1.4-8.2-0.6-17.8-10.2-28.4c-0.2-0.2-0.4-0.4-0.6-0.7c-2.9-2.7-70.3-65.2-84.6-77c-0.2-0.2-0.4-0.3-0.6-0.4
		c-0.4-0.4-1.6-2.3-2.8-6.3l21.1-6.4c4-1.2,6.8-4.6,7.3-8.7l13.3-126.9C279.6,130.8,291,127.8,303.6,124.6z M236,251.2l-10.7,3.2
		c0.1-10.2,1.1-23,2-35.4c1.3-17,2.6-33,1.5-42.6c-0.6-5.7-5.8-9.8-11.5-9.1c-5.7,0.6-9.8,5.8-9.1,11.5c0.9,7.6-0.4,23.4-1.6,38.7
		c-1.2,15.3-2.4,31.2-2,43.2l-29.5,8.9c0.3-17.2,0.7-59.3-0.5-90.5c0-0.1,0-0.2,0-0.3c0.9-2.3,9.3-17.9,73.2-38.6L236,251.2z
		 M172.7,94.2c2.5-4.2,6.5-7.2,11.1-8.3c1.4-0.4,2.9-0.5,4.4-0.5c8.3,0,15.7,5.8,17.7,13.8c2.5,9.9-3.3,19.6-13.2,22.1
		c-1.4,0.4-2.9,0.5-4.4,0.5c-8.3,0-15.7-5.8-17.7-13.7C169.5,103.3,170.2,98.4,172.7,94.2z"/>
</g>
</svg>
