<svg version="1.1" id="Calque_1" xmlns="http://www.w3.org/2000/svg" xmlns:xlink="http://www.w3.org/1999/xlink" x="0px" y="0px"
	 viewBox="0 0 500 500" style="enable-background:new 0 0 500 500;" xml:space="preserve">
<g>
	<rect x="5" y="321.7" class="st0" width="16.9" height="59.3"/>
	<rect x="5" y="304.8" class="st0" width="16.9" height="12.7"/>
	<path class="st0" d="M67.5,320.5c-8.8,0-14.9,2.9-19.2,5.9l-0.8-4.7H34.6V381h12.7v-36.7c0-8,5.6-12.9,15-12.9
		c9.6,0,14.6,4.6,14.6,13.6v36h16.9v-35.6C93.9,327.1,82.9,320.5,67.5,320.5z"/>
	<path class="st0" d="M136.3,370.5c-10.5,0-16.9-3.5-16.9-15.3v-10.4c0-10.1,6.7-14.7,16.6-14.7c8.8,0,13.6,3,15,8.6h16.8
		C165.8,325,153,319,136,319c-20.9,0-33.6,8.9-33.6,26.4v9c0,19.1,12.8,27.2,34.1,27.2c16.4,0,30-6.9,31.9-21.8h-17.1
		C150.1,366.7,144.4,370.5,136.3,370.5z"/>
	<path class="st0" d="M187.1,364.1v-63.5h-16.9v62.9c-0.5,13.1,18.7,17.5,18.7,17.5h11v-12.7h-7.8
		C187.4,370.8,187.1,364.1,187.1,364.1z"/>
	<path class="st0" d="M250.6,357.5c0,10.5-5.6,13.8-12.7,13.8c-7.1,0-12.7-3.3-12.7-13.8v-35.7h-16.9l0,31.8
		c0,15.5,12.3,28.5,27.8,28.9c20.1,0.5,31.5-7.3,31.5-25.8v-34.9h-16.9V357.5z"/>
	<path class="st0" d="M310.7,347.1l-12.2-1.7c-4.6-0.6-7.1-3.1-7.1-6.9c0-4.1,4.3-6.5,11.1-6.5c6,0,11.3,2.1,15.3,5.1l9.1-7.9
		c-6.2-5.2-14.6-7.9-24.8-7.9c-16,0-26.2,6.6-26.2,17.8c0,10.9,8.5,16.3,19.2,17.6l12,1.4c5.3,0.6,7.5,2.8,7.5,6.7
		c0,5-4.6,7.2-13,7.2c-7.7,0-14.1-2.4-18.6-6.5l-9.5,8.5c7.8,6.9,19,9.1,27.8,9.1c17.4,0,28.7-7,28.7-19.2
		C330,354,323.1,348.8,310.7,347.1z"/>
	<rect x="339.6" y="304.8" class="st0" width="16.9" height="12.7"/>
	<rect x="339.6" y="321.7" class="st0" width="16.9" height="59.3"/>
	<polygon class="st0" points="395.7,366.2 378.5,321.7 363,321.7 387.6,381 402.7,381 428.1,321.7 413,321.7 	"/>
	<path class="st0" d="M460.3,320.2c-19.8,0-31.8,11.8-31.8,29.8v2.8c0,19.2,14.6,29.2,35.8,29.2c12.8,0,22.6-3,30.7-9.7l-10.6-8.3
		c-5.3,4.3-11.3,6.7-19.8,6.7c-10.9,0-19.1-5.1-19.1-14.8v-0.5h46.6v-5.2C492.1,331.8,481.4,320.2,460.3,320.2z M446.7,347.1
		c0.4-9.2,7.1-14.9,15.6-14.9c8.9,0,15.3,5.1,15.6,14.9H446.7z"/>
	<path class="st0" d="M66.4,203.1c-40,0-58.8,18.8-58.8,42.3c0,23.6,23.3,45.2,68.8,45.2c21.7,0,41.8-5.3,55.1-12.1
		c2.9-1.4,4.8-2.8,4.8-6.5v-78.5c0-32-21.4-49.6-64.3-49.6c-27,0-47.1,9.5-59.6,21.3l23,18.2c7.9-8.4,22-13.2,35.7-13.2
		c25.4,0,31.2,9.5,31.2,21.3v11.5H66.4z M102.4,257.7c-6.5,3.9-16.7,6.5-27.2,6.5c-24,0-35.5-8.1-35.5-20.5c0-11.2,8.9-19.4,28-19.4
		h34.7V257.7z"/>
	<path class="st0" d="M229.5,262.4h-17.7c-10.3,0-16.1-3.4-16.1-15.9V118.4h-33.9v127.4c0,29.7,14,42,42.7,42h25V262.4z"/>
	<path class="st0" d="M285.1,287.8h24.9v-25.4h-17.9c-10.2,0-16-3.2-16-15.2V118.4h-33.9v125.9C242.2,275.1,256.2,287.8,285.1,287.8
		z"/>
	<path class="st0" d="M363.3,214.1c0.3-0.5,31-46.4,70.4-78.9l1.9-1.5l-14.2-16.9l-1.8,1.5c-25.4,21-43.9,41.7-55.4,56.2l-9.9-19.8
		l-19.8,9.7l26.6,53.1L363.3,214.1z"/>
	<path class="st0" d="M460,190.8c-12.5-0.4-82,30.8-87.7,34.6c-4.4,3-1.3,11.4,4.4,13.6c18.2,7,34.4-17.9,55.9-3.9
		c-12.1,1.1-66.6,40.7-73-4.4c-36.3-15.2-51-25.1-56.7-14.1c-5.5,10.6,1.2,10.5,58.4,48.9c7.6,5.1,16.4,10.8,22.8,11.5
		c25.5,3,70-30,96-28c4.2,0.3,8.2,1,12.1,1.9v-52.1C480.3,194.7,468.5,191.1,460,190.8z"/>
</g>
</svg>
