<?xml version="1.0" encoding="utf-8"?>
<!-- Generator: Adobe Illustrator 19.2.1, SVG Export Plug-In . SVG Version: 6.00 Build 0)  -->
<svg version="1.1" id="Calque_1" xmlns="http://www.w3.org/2000/svg" xmlns:xlink="http://www.w3.org/1999/xlink" x="0px" y="0px"
	 viewBox="0 0 218.3 25.9" style="enable-background:new 0 0 218.3 25.9;" xml:space="preserve">
<style type="text/css">
	.st0{fill:#BD9E55;}
	.st1{fill:#B1B2B4;}
	.st2{fill:#97D2D7;}
	.st3{fill:#FFFFFF;}
</style>
<g>
	<path class="st0" d="M150.9,20.6c0-1.8-1.9-1.8-2.5-1.8h-1.8v7h0.7v-3.3h1.2l2,3.3h0.7l-2-3.4C149.9,22.3,150.9,21.9,150.9,20.6
		 M147.3,21.8v-2.5h1.4c1.4,0,1.6,0.8,1.6,1.2c0,0.5-0.3,1.2-1.6,1.2L147.3,21.8L147.3,21.8z M152.7,22.4h3.4v-0.6h-3.4v-2.5h3.6
		v-0.6H152v7h4.4v-0.6h-3.8v-2.7H152.7z M159.7,18.7l-3.1,7h0.7l0.8-1.9h3.7l0.8,1.9h0.7l-2.9-7H159.7z M158.4,23.3l1.6-3.8l1.6,3.8
		H158.4z M162.4,19.3h2.4v6.4h0.7v-6.4h2.4v-0.6h-5.4L162.4,19.3L162.4,19.3z M180.6,22.4h3.4v-0.6h-3.4v-2.5h3.6v-0.6h-4.3v7h4.4
		v-0.6h-3.8v-2.7H180.6z M188.9,24.6l-2.5-5.9h-1v7h0.7v-6.2l0,0l2.7,6.2h0.3l2.7-6.2l0,0v6.2h0.7v-7h-0.9L188.9,24.6z M196.8,22.1
		L196.8,22.1c0.8-0.2,1.3-0.8,1.3-1.5c0-1.6-1.2-1.8-2.3-1.8h-2v7h2.2c1,0,2.3-0.3,2.3-2C198.4,22.8,197.7,22.1,196.8,22.1
		 M194.4,19.3h1.4c0.8,0,1.5,0.3,1.5,1.3c0,0.4-0.3,1.2-1.6,1.2h-1.4v-2.5H194.4z M195.9,25.1h-1.5v-2.8h1.6c0.8,0,1.7,0.4,1.7,1.4
		C197.7,24.3,197.5,25.1,195.9,25.1 M200.3,22.4h3.4v-0.6h-3.4v-2.5h3.6v-0.6h-4.3v7h4.4v-0.6h-3.8v-2.7H200.3z M209.4,20.6
		c0-1.8-1.9-1.8-2.5-1.8h-1.8v7h0.7v-3.3h1.2l2,3.3h0.7l-2-3.4C208.4,22.3,209.4,21.9,209.4,20.6 M205.7,21.8v-2.5h1.4
		c1.4,0,1.6,0.8,1.6,1.2c0,0.5-0.3,1.2-1.6,1.2L205.7,21.8L205.7,21.8z M211,20.5c0-0.9,0.7-1.3,1.6-1.3c0.6,0,1,0.2,1.4,0.7
		l0.6-0.4c-0.5-0.6-1.1-0.9-1.9-0.9c-1.2,0-2.2,0.7-2.2,1.9c0,2.7,3.6,1.5,3.6,3.5c0,0.8-0.7,1.4-1.6,1.4c-0.7,0-1.3-0.3-1.6-0.9
		l-0.6,0.4c0.5,0.8,1.4,1.1,2.3,1.1c1.1,0,2.2-0.7,2.2-2C214.6,21.3,211,22.6,211,20.5"/>
	<polygon class="st0" points="134.2,0 176.2,0 218.3,0 218.3,8.3 218.3,16.6 176.2,16.6 134.2,16.6 134.2,8.3 	"/>
	<polygon class="st1" points="71.3,0 102.8,0 134.2,0 134.2,8.3 134.2,16.6 102.8,16.6 71.3,16.6 71.3,8.3 	"/>
	<polygon class="st2" points="0,0 35.7,0 71.3,0 71.3,8.3 71.3,16.6 35.7,16.6 0,16.6 0,8.3 	"/>
	<polygon class="st3" points="213.3,10.8 214,11.5 214.7,12.2 214,12.9 213.3,13.6 212.6,12.9 211.9,12.2 212.6,11.5 	"/>
	<path class="st3" d="M214.2,1.9c-0.1-0.3-0.9,0.2-2.5,1.6c0.7,0.7,1,0.3,1.5,0.1c0.4,0.8,0.6,4.4-2.2,5.5c0.1-3.7,0.1-7.6,0.1-7.6
		c0-0.1-0.1-0.1-0.2-0.1c-0.8,0.1-2.1,1.4-3.2,2.6c0.6,0.9,1.3,0.1,1.9-0.1c0,0.2-0.1,2.9-0.1,5.6c-2.9,0.2-2.4-5.6-2.2-6.3
		c0.1-0.6-1.8,0.7-2.8,1.6c0.3,0.5,0.7,0.4,1.2,0.2c-0.2,2.6,1.6,5,3.8,4.9c0.1,2.7,0.4,5.3,1.1,5.5c0.1,0,0.2-2.7,0.2-5.8
		C216.2,8,214.2,1.9,214.2,1.9"/>
	<path class="st3" d="M151.3,11.3V3.6h-2v7.7c0,1.7,0.8,2.6,2.8,2.6h1.3v-1.5h-0.8C151.7,12.5,151.3,12.2,151.3,11.3"/>
	<path class="st3" d="M181.9,3.8l-3,7.8l-3-7.8H173V14h2c0,0,0-7.1-0.1-7.6h0.1l2.9,7.6h1.9l2.9-7.6h0.1c0,0.4-0.1,7.6-0.1,7.6h2
		V3.8H181.9z"/>
	<path class="st3" d="M157.3,14c2.5,0,3.8-0.9,3.8-3.3V6.2h-2v4.6c0,1.4-0.9,1.9-1.8,1.9c-0.9,0-1.8-0.5-1.8-1.9V6.2h-2v4.6
		C153.5,13.2,154.8,14,157.3,14"/>
	<path class="st3" d="M170.2,9.4v1.2c0,2.4-1.5,3.4-4,3.4s-4-0.9-4-3.3V3.6h2v2.9c0.7-0.3,1.5-0.5,2.3-0.5
		C169.1,6.1,170.2,7.5,170.2,9.4 M164.3,10.8c0,1.4,1.1,1.9,2,1.9s2-0.5,2-1.9V9.4c0-1.4-1.1-1.9-2-1.9s-2,0.5-2,1.9V10.8z"/>
	<path class="st3" d="M198.2,6.1c0.8,0,1.6,0.2,2.3,0.5v-3h2v7.1c0,2.4-1.5,3.3-4,3.3s-4-1-4-3.4V9.4C194.5,7.5,195.6,6.1,198.2,6.1
		 M200.5,9.4c0-1.4-1.1-1.9-2-1.9s-2,0.5-2,1.9v1.4c0,1.4,1.1,1.9,2,1.9s2-0.5,2-1.9V9.4z"/>
	<path class="st3" d="M192.2,11.9c-0.8,0.6-1.5,0.8-2.5,0.8c-1.2,0-2.2-0.7-2.2-1.9v-0.2h6V10c0-2.4-1.5-3.9-4-3.9s-4,1.5-4,3.9v0.3
		c0,2.3,1.4,3.8,4.1,3.8c1.4,0,2.6-0.3,3.7-1.2L192.2,11.9z M187.6,9.4c0-1.4,1.1-2,2-2s2,0.6,2,2H187.6z"/>
	<path class="st3" d="M144,14c-3.1,0-4.8-1.7-4.8-4.4V8.3c0-2.8,1.7-4.6,4.8-4.6c2.7,0,4.3,1.3,4.7,3.2h-2.2
		C146.1,5.6,145.2,5,144,5c-1.7,0-2.7,1-2.7,3.3v1c0,2,0.7,3.3,2.7,3.3c1.3,0,2.2-0.6,2.5-1.8h2.2C148.3,12.7,146.6,14,144,14"/>
	<path class="st0" d="M143,21.9V23h1.3v1.5c-0.4,0.2-0.9,0.2-1.5,0.2c-1.5,0-2.5-1-2.5-2.6c0-1.5,1-2.6,2.5-2.6
		c0.7,0,1.3,0.2,1.7,0.6l0,0l0.8-0.8l0,0c-0.6-0.6-1.5-1-2.5-1c-2.1,0-3.6,1.5-3.6,3.7c0,2.1,1.5,3.7,3.6,3.7c1,0,1.9-0.2,2.6-0.6
		v-3.3L143,21.9L143,21.9z"/>
	<polygon class="st0" points="177.5,25.7 177.5,20.6 175.3,25.7 174.5,25.7 172.3,20.6 172.3,25.7 171.1,25.7 171.1,18.7 
		172.6,18.7 174.9,24 177.2,18.7 178.6,18.7 178.6,25.7 	"/>
</g>
</svg>
