<svg xmlns="http://www.w3.org/2000/svg" viewBox="0 0 162.9 13"><defs></defs><title>cubmedGM</title><g id="Calque_2"><g id="Layer_1"><path d="M18.53 6.27h5.84v1.6a4.8 4.8 0 0 1-1.54 3.75A6.47 6.47 0 0 1 18.37 13a6 6 0 0 1-4.3-1.45 5.37 5.37 0 0 1-1.55-4.1V5.56a6.6 6.6 0 0 1 .3-2 5.7 5.7 0 0 1 .95-1.78 4.28 4.28 0 0 1 1.8-1.32A7.3 7.3 0 0 1 18.36 0a6.78 6.78 0 0 1 4 1 4.58 4.58 0 0 1 1.88 2.7h-2.76a2.9 2.9 0 0 0-3.13-2 2.85 2.85 0 0 0-2.4 1.07 4.53 4.53 0 0 0-.82 2.84v1.56q0 4 3.3 4 3.16 0 3.3-3h-3.2zM31.83 3.37V5.1h-1.7a1.37 1.37 0 0 0-1.55 1.54v6.14h-2.42V6.72a3.3 3.3 0 0 1 .92-2.43 3.42 3.42 0 0 1 2.53-.93zM40.46 10.12l1.54 1.3A6.3 6.3 0 0 1 37.56 13a5.64 5.64 0 0 1-3.77-1.2 4.23 4.23 0 0 1-1.42-3.42v-.5a4.56 4.56 0 0 1 1.32-3.42 5 5 0 0 1 3.6-1.28A5 5 0 0 1 41 4.44a4.76 4.76 0 0 1 1.25 3.5v.83h-7.4v.07a2.07 2.07 0 0 0 .78 1.73 3.14 3.14 0 0 0 2 .6 4.2 4.2 0 0 0 2.83-1.05zm-5.64-2.9h4.94a2.35 2.35 0 0 0-.7-1.75 2.53 2.53 0 0 0-1.77-.6 2.47 2.47 0 0 0-1.74.64 2.33 2.33 0 0 0-.73 1.72zM44.82 12.08a2.55 2.55 0 0 1-1.3-2.08 2.42 2.42 0 0 1 1.08-2 5.16 5.16 0 0 1 3.1-.8h2.54v-.84a1.26 1.26 0 0 0-.48-1A2.92 2.92 0 0 0 48 4.94a3.42 3.42 0 0 0-2.53.88l-1.6-1.22a6.1 6.1 0 0 1 4.2-1.42 5.68 5.68 0 0 1 3.4.85 2.87 2.87 0 0 1 1.16 2.46v5.23a.47.47 0 0 1-.34.43 9 9 0 0 1-3.9.8 6.28 6.28 0 0 1-3.58-.88zm5.42-1.23V8.62h-2.42a2.48 2.48 0 0 0-1.45.38 1.1 1.1 0 0 0-.5.94 1.1 1.1 0 0 0 .63 1 3.73 3.73 0 0 0 1.84.36 3.7 3.7 0 0 0 1.9-.45zM57.56 9.74a1.28 1.28 0 0 0 .3 1 1.44 1.44 0 0 0 1 .3h1.7v1.78h-2.4q-3.04 0-3.04-3.1V5.08h-1.34V3.36h1.37V.22h2.42v3.15h3V5.1h-3zM77.65.22h3.48v12.56h-2.45v-8q0-1.25.06-1.74l-4 9.7h-1.8L69.07 3.2q.07 1 .07 1.7v7.87h-2.28V.22h3.46L74 9.35zM91 10.12l1.54 1.3A6.3 6.3 0 0 1 88.06 13a5.64 5.64 0 0 1-3.77-1.2 4.23 4.23 0 0 1-1.42-3.42v-.5a4.56 4.56 0 0 1 1.32-3.42 5.84 5.84 0 0 1 7.27 0 4.76 4.76 0 0 1 1.25 3.5v.83h-7.4v.06a2.07 2.07 0 0 0 .78 1.73 3.14 3.14 0 0 0 2 .6 4.2 4.2 0 0 0 2.9-1.08zm-5.64-2.9h4.94a2.35 2.35 0 0 0-.7-1.75 2.53 2.53 0 0 0-1.77-.6 2.47 2.47 0 0 0-1.73.64 2.33 2.33 0 0 0-.77 1.72zM105.66 3.18a5 5 0 0 1 3.26 1 3.72 3.72 0 0 1 1.22 3.08v5.54h-2.42V7.26a2.25 2.25 0 0 0-.63-1.75 2.2 2.2 0 0 0-1.55-.56 2.44 2.44 0 0 0-1.57.5 1.8 1.8 0 0 0-.62 1.5v5.84h-2.43V7.15a2.07 2.07 0 0 0-.64-1.66 2.54 2.54 0 0 0-3.14 0 1.93 1.93 0 0 0-.6 1.5v5.78h-2.4v-9.4h2l.12.72a4.24 4.24 0 0 1 2.77-.92 3.88 3.88 0 0 1 3.33 1.37 4.68 4.68 0 0 1 3.24-1.37zM121.86 7.28v1.5q0 4.22-4.86 4.22t-4.85-4V.22h2.42v3.54a5.57 5.57 0 0 1 2.62-.58 5 5 0 0 1 3.56 1.1 3.94 3.94 0 0 1 1.1 3zM114.52 7v1.85a2.25 2.25 0 0 0 .67 1.8 2.58 2.58 0 0 0 1.75.58 2.62 2.62 0 0 0 1.82-.6 2.28 2.28 0 0 0 .66-1.78V7.3a2.4 2.4 0 0 0-.62-1.8 2.68 2.68 0 0 0-1.9-.6 2.54 2.54 0 0 0-1.74.56 2 2 0 0 0-.64 1.54zM131.17 10.12l1.54 1.3a6.3 6.3 0 0 1-4.44 1.58 5.64 5.64 0 0 1-3.77-1.2 4.23 4.23 0 0 1-1.42-3.42v-.5a4.56 4.56 0 0 1 1.32-3.42 5.84 5.84 0 0 1 7.27 0 4.76 4.76 0 0 1 1.25 3.5v.83h-7.4v.06a2.07 2.07 0 0 0 .78 1.73 3.14 3.14 0 0 0 2 .6 4.2 4.2 0 0 0 2.87-1.08zm-5.64-2.9h4.94a2.35 2.35 0 0 0-.7-1.75 2.53 2.53 0 0 0-1.77-.6 2.47 2.47 0 0 0-1.73.64 2.33 2.33 0 0 0-.74 1.72zM139.93 3.37V5.1h-1.7a1.37 1.37 0 0 0-1.55 1.54v6.14h-2.42V6.72a3.3 3.3 0 0 1 .92-2.43 3.42 3.42 0 0 1 2.53-.93zM146.47 7.26q3.05.4 3.05 2.67a2.53 2.53 0 0 1-1.22 2.23 6 6 0 0 1-3.3.84 6.45 6.45 0 0 1-4.4-1.44l1.5-1.35a4.18 4.18 0 0 0 2.94 1q2.06 0 2.06-1.13 0-.94-1.18-1.07L144 8.77a4.15 4.15 0 0 1-2.2-.87A2.36 2.36 0 0 1 141 6a2.35 2.35 0 0 1 1.1-2.06 5.36 5.36 0 0 1 3-.75 5.85 5.85 0 0 1 3.9 1.23l-1.44 1.25a4 4 0 0 0-2.42-.8 2.58 2.58 0 0 0-1.3.27.84.84 0 0 0-.46.76q0 .95 1.12 1.1zM18.53 6.27h5.84v1.6a4.8 4.8 0 0 1-1.54 3.75A6.47 6.47 0 0 1 18.37 13a6 6 0 0 1-4.3-1.45 5.37 5.37 0 0 1-1.55-4.1V5.56a6.6 6.6 0 0 1 .3-2 5.7 5.7 0 0 1 .95-1.78 4.28 4.28 0 0 1 1.8-1.32A7.3 7.3 0 0 1 18.36 0a6.78 6.78 0 0 1 4 1 4.58 4.58 0 0 1 1.88 2.7h-2.76a2.9 2.9 0 0 0-3.13-2 2.85 2.85 0 0 0-2.4 1.07 4.53 4.53 0 0 0-.82 2.84v1.56q0 4 3.3 4 3.16 0 3.3-3h-3.2zM31.83 3.37V5.1h-1.7a1.37 1.37 0 0 0-1.55 1.54v6.14h-2.42V6.72a3.3 3.3 0 0 1 .92-2.43 3.42 3.42 0 0 1 2.53-.93zM40.46 10.12l1.54 1.3A6.3 6.3 0 0 1 37.56 13a5.64 5.64 0 0 1-3.77-1.2 4.23 4.23 0 0 1-1.42-3.42v-.5a4.56 4.56 0 0 1 1.32-3.42 5 5 0 0 1 3.6-1.28A5 5 0 0 1 41 4.44a4.76 4.76 0 0 1 1.25 3.5v.83h-7.4v.07a2.07 2.07 0 0 0 .78 1.73 3.14 3.14 0 0 0 2 .6 4.2 4.2 0 0 0 2.83-1.05zm-5.64-2.9h4.94a2.35 2.35 0 0 0-.7-1.75 2.53 2.53 0 0 0-1.77-.6 2.47 2.47 0 0 0-1.74.64 2.33 2.33 0 0 0-.73 1.72zM44.82 12.08a2.55 2.55 0 0 1-1.3-2.08 2.42 2.42 0 0 1 1.08-2 5.16 5.16 0 0 1 3.1-.8h2.54v-.84a1.26 1.26 0 0 0-.48-1A2.92 2.92 0 0 0 48 4.94a3.42 3.42 0 0 0-2.53.88l-1.6-1.22a6.1 6.1 0 0 1 4.2-1.42 5.68 5.68 0 0 1 3.4.85 2.87 2.87 0 0 1 1.16 2.46v5.23a.47.47 0 0 1-.34.43 9 9 0 0 1-3.9.8 6.28 6.28 0 0 1-3.58-.88zm5.42-1.23V8.62h-2.42a2.48 2.48 0 0 0-1.45.38 1.1 1.1 0 0 0-.5.94 1.1 1.1 0 0 0 .63 1 3.73 3.73 0 0 0 1.84.36 3.7 3.7 0 0 0 1.9-.45zM57.56 9.74a1.28 1.28 0 0 0 .3 1 1.44 1.44 0 0 0 1 .3h1.7v1.78h-2.4q-3.04 0-3.04-3.1V5.08h-1.34V3.36h1.37V.22h2.42v3.15h3V5.1h-3zM77.65.22h3.48v12.56h-2.45v-8q0-1.25.06-1.74l-4 9.7h-1.8L69.07 3.2q.07 1 .07 1.7v7.87h-2.28V.22h3.46L74 9.35zM91 10.12l1.54 1.3A6.3 6.3 0 0 1 88.06 13a5.64 5.64 0 0 1-3.77-1.2 4.23 4.23 0 0 1-1.42-3.42v-.5a4.56 4.56 0 0 1 1.32-3.42 5.84 5.84 0 0 1 7.27 0 4.76 4.76 0 0 1 1.25 3.5v.83h-7.4v.06a2.07 2.07 0 0 0 .78 1.73 3.14 3.14 0 0 0 2 .6 4.2 4.2 0 0 0 2.9-1.08zm-5.64-2.9h4.94a2.35 2.35 0 0 0-.7-1.75 2.53 2.53 0 0 0-1.77-.6 2.47 2.47 0 0 0-1.73.64 2.33 2.33 0 0 0-.77 1.72zM105.66 3.18a5 5 0 0 1 3.26 1 3.72 3.72 0 0 1 1.22 3.08v5.54h-2.42V7.26a2.25 2.25 0 0 0-.63-1.75 2.2 2.2 0 0 0-1.55-.56 2.44 2.44 0 0 0-1.57.5 1.8 1.8 0 0 0-.62 1.5v5.84h-2.43V7.15a2.07 2.07 0 0 0-.64-1.66 2.54 2.54 0 0 0-3.14 0 1.93 1.93 0 0 0-.6 1.5v5.78h-2.4v-9.4h2l.12.72a4.24 4.24 0 0 1 2.77-.92 3.88 3.88 0 0 1 3.33 1.37 4.68 4.68 0 0 1 3.24-1.37zM121.86 7.28v1.5q0 4.22-4.86 4.22t-4.85-4V.22h2.42v3.54a5.57 5.57 0 0 1 2.62-.58 5 5 0 0 1 3.56 1.1 3.94 3.94 0 0 1 1.1 3zM114.52 7v1.85a2.25 2.25 0 0 0 .67 1.8 2.58 2.58 0 0 0 1.75.58 2.62 2.62 0 0 0 1.82-.6 2.28 2.28 0 0 0 .66-1.78V7.3a2.4 2.4 0 0 0-.62-1.8 2.68 2.68 0 0 0-1.9-.6 2.54 2.54 0 0 0-1.74.56 2 2 0 0 0-.64 1.54zM131.17 10.12l1.54 1.3a6.3 6.3 0 0 1-4.44 1.58 5.64 5.64 0 0 1-3.77-1.2 4.23 4.23 0 0 1-1.42-3.42v-.5a4.56 4.56 0 0 1 1.32-3.42 5.84 5.84 0 0 1 7.27 0 4.76 4.76 0 0 1 1.25 3.5v.83h-7.4v.06a2.07 2.07 0 0 0 .78 1.73 3.14 3.14 0 0 0 2 .6 4.2 4.2 0 0 0 2.87-1.08zm-5.64-2.9h4.94a2.35 2.35 0 0 0-.7-1.75 2.53 2.53 0 0 0-1.77-.6 2.47 2.47 0 0 0-1.73.64 2.33 2.33 0 0 0-.74 1.72zM139.93 3.37V5.1h-1.7a1.37 1.37 0 0 0-1.55 1.54v6.14h-2.42V6.72a3.3 3.3 0 0 1 .92-2.43 3.42 3.42 0 0 1 2.53-.93zM146.47 7.26q3.05.4 3.05 2.67a2.53 2.53 0 0 1-1.22 2.23 6 6 0 0 1-3.3.84 6.45 6.45 0 0 1-4.4-1.44l1.5-1.35a4.18 4.18 0 0 0 2.94 1q2.06 0 2.06-1.13 0-.94-1.18-1.07L144 8.77a4.15 4.15 0 0 1-2.2-.87A2.36 2.36 0 0 1 141 6a2.35 2.35 0 0 1 1.1-2.06 5.36 5.36 0 0 1 3-.75 5.85 5.85 0 0 1 3.9 1.23l-1.44 1.25a4 4 0 0 0-2.42-.8 2.58 2.58 0 0 0-1.3.27.84.84 0 0 0-.46.76q0 .95 1.12 1.1zM2.7 5.35l2.68 2.7-2.7 2.7L0 8.04zM160.2 5.33l2.68 2.7-2.7 2.7-2.7-2.7z" class="cls-1"/></g></g></svg>
