<svg viewBox="0 0 748 156" version="1.1" xmlns="http://www.w3.org/2000/svg" xmlns:xlink="http://www.w3.org/1999/xlink">
    <defs></defs>
    <g id="Page-1" stroke-width="1" fill-rule="evenodd">
        <g id="Unknown">
            <g id="Group">
                <path d="M191,129.875409 L191,78.2282604 L178.555809,73.8998772 C178.555809,73.8998772 159.042729,65.8300102 137.467889,76.614287 C134.448885,77.641361 72.817005,103.758385 72.817005,103.758385 C72.817005,103.758385 64.7172359,112.488514 77.5295979,118.871045 C86.9547838,123.56624 109.192332,111.16799 109.192332,111.16799 C109.192332,111.16799 121.857425,106.105983 130.693537,113.515588 L91.0783027,129.948772 C91.0783027,129.948772 60.0782772,139.339162 58.3846891,110.801178 L17.9594777,93.3409204 C17.9594777,93.3409204 1.46540241,85.8579529 0.139985641,101.1907 C0.139985641,101.1907 -1.55360245,103.758385 6.84070374,109.480654 C15.2350099,115.202924 67.1471666,149.756627 67.1471666,149.756627 C67.1471666,149.756627 84.6721216,164.869287 118.322981,148.069291 L155.361016,132.296369 C155.361016,132.223007 172.5178,124.886764 191,129.875409 Z" id="Shape"></path>
                <path d="M50.1095994,37.6191187 L32,46.4017924 L56.2683296,98 C56.2683296,98 95.7135299,42.0836445 129,15.3696789 L114.996221,0 C114.996221,0 70.2721088,42.0104556 59.7876039,56.8678118 L50.1095994,37.6191187 Z" id="Shape" fill-rule="nonzero"></path>
            </g>
            <g id="Group" transform="translate(250.000000, 48.000000)" fill-rule="nonzero">
                <polygon id="Shape" points="0 41.3 94.4 41.3 94.4 55.8 0 55.8"></polygon>
                <path d="M153,1.3 L166.4,5.3 C164.1,12.6 161.4,19.7 158.3,26.5 L158.3,96.3 L144.9,96.3 L144.9,50.9 C142.6,54.6 140.1,58.1 137.5,61.6 C136.6,57.6 135,51.9 132.6,44.5 C140.3,33.7 147.1,19.3 153,1.3 Z M202,41.8 L215.4,41.8 C207.4,34.4 200.9,26.1 195.8,16.7 C190.4,25.7 183.5,34.1 175.2,41.9 L187.9,41.9 C187.9,48.5 187.8,53.6 187.7,57.1 C187.7,75.3 182.5,88.6 172,97.1 C169.6,94.2 166.1,90.9 161.5,87.2 C169.3,79.8 173.4,70.4 173.6,58.9 C173.7,55.6 173.8,50.4 173.8,43.3 C171.5,45.5 169,47.5 166.5,49.6 C164.7,45.8 162.4,41.5 159.8,36.5 C171.4,27.6 181.3,16.3 189.4,2.8 L205.4,2.8 L203.2,5.9 C209.9,17.6 218.8,27.2 230,34.6 L223.5,48.6 C220.9,46.7 218.5,44.7 216.2,42.6 L216.2,95.8 L202,95.8 L202,41.8 Z" id="Shape"></path>
                <path d="M271.1,80.9 L308.1,80.9 L308.1,69.2 L279,69.2 L279,56.7 L308.1,56.7 L308.1,46.8 L289.2,46.8 L289.2,39.1 C284.9,42.2 280.3,45.2 275.4,48.1 C273.5,45.4 270.6,41.6 266.7,36.7 C287.6,25.5 301.7,13.5 309.1,0.7 L326.2,0.7 L323.7,4.4 C332.1,16.5 345.6,26.8 364.1,35.5 C360.6,39.8 357.7,43.6 355.3,47 C350.4,44.4 345.9,41.7 341.6,38.8 L341.6,46.8 L322.6,46.8 L322.6,56.7 L352,56.7 L352,69.2 L322.6,69.2 L322.6,80.9 L359.6,80.9 L359.6,93.4 L271,93.4 L271,80.9 L271.1,80.9 Z M315.4,14.8 C310.1,21.6 303.4,28.1 295.5,34.3 L335.4,34.3 C327.5,28.3 320.9,21.8 315.4,14.8 Z" id="Shape"></path>
                <path d="M456.3,71.9 C456,69.9 455.5,67.7 454.8,65.2 L426.7,65.2 L426.7,72.5 C426.7,79 429.8,82.2 436,82.2 L473.3,82.2 C478.8,82.2 482.1,80.9 483.1,78.3 C484.1,75.7 485,71.1 485.8,64.5 C490.6,66.3 494.6,67.8 498,69 C496.2,77.9 494.7,83.7 493.5,86.3 C492.3,89 489.9,91 486.5,92.4 C483.1,93.8 478.5,94.6 472.9,94.6 L432.3,94.6 C419.3,94.6 412.7,88.4 412.7,76.1 L412.7,42.1 C410.7,44.7 408.7,47.3 406.5,49.8 L400.9,34.1 C409.6,23.4 416.2,12 420.7,0.1 L436.3,0.1 C435.1,3.1 433.8,6 432.4,8.8 L488.3,8.8 L487.9,33.2 L487.3,53.3 C487.1,58.7 485.9,63 483.8,66.1 C481.7,69.2 478.7,70.9 474.9,71.3 C471.1,71.8 464.9,71.9 456.3,71.9 Z M421.3,29.8 L461.9,29.8 L461.9,58.8 C465.5,58.9 467.8,59 468.8,59 C470.3,59 471.5,58.5 472.3,57.5 C473.1,56.5 473.6,54.2 473.7,50.5 C473.8,46.8 473.9,37.2 474,21.5 L426.2,21.5 C424.7,24.3 423,27.1 421.3,29.8 Z M448.1,54.2 L448.1,40.8 L426.7,40.8 L426.7,54.2 L448.1,54.2 Z" id="Shape"></path>
            </g>
        </g>
    </g>
</svg>
