<svg xmlns="http://www.w3.org/2000/svg" viewBox="0 0 113 37">
  <g id="clubmedProperty">
    <g id="ClubMed">
      <path d="M88.2464553,7.28525208 C89.4115048,7.28525208 90.6523512,7.56077399 91.6527386,8.07362666 L91.6527386,3.49000595 L94.6682761,3.49000595 L94.6682761,14.6977463 C94.6682761,18.4923104 92.4976118,19.8978814 88.7018897,19.8978814 C84.9081279,19.8978814 82.7309294,18.3034006 82.7309294,14.5088365 L82.7309294,12.5522217 C82.7309294,9.54671411 84.3644817,7.28525208 88.2464553,7.28525208 Z M91.6527386,12.492207 C91.6527386,10.2982615 90.0139589,9.49215531 88.6091039,9.49215531 C87.2088229,9.49215531 85.563509,10.2982615 85.563509,12.492207 L85.563509,14.6916084 C85.563509,16.8848719 87.2088229,17.6923421 88.6091039,17.6923421 C90.0139589,17.6923421 91.6527386,16.8848719 91.6527386,14.6916084 L91.6527386,12.492207 Z"></path>
      <path d="M79.3527432,16.4702251 L81.2019244,17.9978713 C79.4697056,19.4464073 77.7008951,19.8978814 75.6576479,19.8978814 C71.612319,19.8978814 69.5279063,17.607094 69.5279063,13.9339232 L69.5279063,13.4388021 C69.5279063,9.63810009 71.7051048,7.28525208 75.4995201,7.28525208 C79.2939353,7.28525208 81.4659065,9.63810009 81.4659065,13.4388021 L81.4659065,14.4229063 L72.4545786,14.4229063 L72.4545786,14.6916084 C72.4545786,16.6591349 73.9019059,17.6923421 75.6805176,17.6923421 C77.127845,17.6923421 78.0811861,17.3615794 79.3527432,16.4702251 Z M72.4545786,12.5406279 L78.5444615,12.5406279 C78.5444615,10.2982615 76.8984942,9.4246388 75.4995201,9.4246388 C74.0946651,9.4246388 72.4545786,10.2982615 72.4545786,12.5406279 Z"></path>
      <path d="M63.8359567,3.65641027 L59.3757055,15.9566905 L54.9141474,3.65641027 L50.5571367,3.65641027 L50.5571367,19.733523 L53.5726743,19.733523 L53.5726743,10.1332211 C53.5726743,9.51602478 53.5498046,8.45894814 53.4909967,7.78719299 L53.5779017,7.78719299 L57.9349123,19.733523 L60.722406,19.733523 L65.0781098,7.78719299 L65.1663216,7.78719299 C65.1075138,8.45894814 65.084644,9.51602478 65.084644,10.1332211 L65.084644,19.733523 L68.1054089,19.733523 L68.1054089,3.65641027 L63.8359567,3.65641027 Z"></path>
      <path d="M46.4647615,12.5522217 L46.4647615,14.5088365 C46.4647615,18.3034006 44.287563,19.8978814 40.4931478,19.8978814 C36.6987325,19.8978814 34.521534,18.4923104 34.521534,14.6977463 L34.521534,3.49000595 L37.5357647,3.49000595 L37.5357647,8.07362666 C38.5381124,7.56077399 39.7848395,7.28525208 40.9433548,7.28525208 C44.8325161,7.28525208 46.4647615,9.54671411 46.4647615,12.5522217 Z M37.5357647,14.6916084 C37.5357647,16.8848719 39.1823854,17.6923421 40.5813596,17.6923421 C41.9862146,17.6923421 43.6263011,16.8848719 43.6263011,14.6916084 L43.6263011,12.492207 C43.6263011,10.2982615 41.9862146,9.49215531 40.5813596,9.49215531 C39.1823854,9.49215531 37.5357647,10.2982615 37.5357647,12.492207 L37.5357647,14.6916084 Z"></path>
      <path d="M27.2025663,19.8978814 C30.9969815,19.8978814 32.893209,18.4923104 32.893209,14.6977463 L32.893209,7.45029243 L29.8776715,7.45029243 L29.8776715,14.6916084 C29.8776715,16.8848719 28.6074212,17.6923421 27.2025663,17.6923421 C25.8035921,17.6923421 24.527461,16.8848719 24.527461,14.6916084 L24.527461,7.45029243 L21.5119235,7.45029243 L21.5119235,14.6977463 C21.5119235,18.4923104 23.4094578,19.8978814 27.2025663,19.8978814 Z"></path>
      <path d="M18.2565805,15.572051 C18.2565805,17.0137671 18.7655954,17.4045445 20.0887727,17.4045445 L21.3067493,17.4045445 L21.3067493,19.733523 L19.4098684,19.733523 C16.4479114,19.733523 15.2403895,18.2911249 15.2403895,15.6818505 L15.2403895,3.49000595 L18.2565805,3.49000595 L18.2565805,15.572051 Z"></path>
      <path d="M7.21964773,19.8978814 C11.2244645,19.8978814 13.6427754,17.7844101 14.2158255,14.9112076 L11.0023014,14.9112076 C10.452121,16.836451 9.10476708,17.7100737 7.21964773,17.7100737 C4.23939492,17.7100737 3.14491488,15.6327476 3.14491488,12.4369662 L3.14491488,10.8424855 C3.14491488,7.32207927 4.61511195,5.6778136 7.21964773,5.6778136 C9.10476708,5.6778136 10.452121,6.55211828 11.0023014,8.47736174 L14.2158255,8.47736174 C13.6427754,5.6055232 11.2244645,3.49000595 7.21964773,3.49000595 C2.61237683,3.49000595 0,6.338657 0,10.7872447 L0,12.9805082 C0,17.2579177 2.51305685,19.8978814 7.21964773,19.8978814 Z"></path>
      <path d="M111.201692,0.661132462 C111.201692,0.661132462 114.134245,10.3528203 106.441521,12.8700267 C106.348082,17.6923421 106.219358,22.0372681 106.067111,21.9997589 C104.902061,21.7071874 104.479951,17.5879984 104.362336,13.3467341 C101.166454,13.4388021 98.4253531,9.69402285 98.7063241,5.57483388 C97.922219,5.88581901 97.3008157,6.05767921 96.8571429,5.207244 C98.2737594,3.82076864 101.119408,1.7366227 101.020088,2.68389976 C100.767214,3.85691384 100.081775,13.035067 104.351881,12.6933926 C104.257788,8.3614243 104.456428,4.09015269 104.461656,3.85145796 C103.600447,4.21768387 102.50662,5.55642028 101.651292,4.06423726 C103.208394,2.28084667 105.228772,0.172831253 106.370951,0.00165303569 C106.482033,-0.00994070811 106.615984,0.0377982369 106.615984,0.19738271 C106.615984,0.19738271 106.558483,6.38707793 106.452629,12.1689462 C110.592704,10.4387504 110.341137,4.69439133 109.708625,3.42999127 C108.912105,3.7409764 108.420733,4.38954407 107.431454,3.24653733 C109.907265,0.899827187 111.054673,0.116908489 111.201692,0.661132462 Z"></path>
      <polygon points="112.824531 19.0005576 110.670202 21.2729314 108.515873 19.0005576 110.670202 16.72"></polygon>
    </g>
    <g id="Property" transform="translate(0.000000, 26.000000)">
      <path d="M3.98190476,0.33 C6.29571429,0.33 7.74857143,1.485 7.74857143,3.74 C7.74857143,5.72 6.24190476,6.93 3.98190476,6.93 L1.45285714,6.93 L1.45285714,10.45 L0.269047619,10.45 L0.269047619,0.33 L3.98190476,0.33 Z M4.03571429,1.265 L1.50666667,1.265 L1.50666667,5.885 L4.03571429,5.885 C5.70380952,5.885 6.5647619,4.895 6.5647619,3.685 C6.5647619,2.31 5.70380952,1.265 4.03571429,1.265 Z"></path>
      <path d="M19.1561905,0.33 C21.3085714,0.33 22.8152381,1.32 22.8152381,3.465 C22.8152381,4.95 21.8466667,5.995 20.3938095,6.38 L23.4071429,10.45 L22.0080952,10.45 L19.1561905,6.545 L19.102381,6.545 L16.1966667,6.545 L16.1966667,10.45 L15.0128571,10.45 L15.0128571,0.33 L19.1561905,0.33 Z M19.102381,1.265 L16.1966667,1.265 L16.1966667,5.5 L19.102381,5.5 C20.7166667,5.5 21.577619,4.62 21.577619,3.41 C21.6314286,2.145 20.7166667,1.265 19.102381,1.265 Z"></path>
      <path d="M38.527619,4.565 L38.527619,6.05 C38.527619,8.745 37.0747619,10.615 34.007619,10.615 C31.0480952,10.615 29.487619,8.745 29.487619,6.05 L29.487619,4.565 C29.487619,2.145 30.8328571,0.11 34.007619,0.11 C37.1285714,0.11 38.527619,2.145 38.527619,4.565 Z M37.29,5.885 L37.29,4.675 C37.29,2.475 36.3214286,1.045 34.007619,1.045 C31.6938095,1.045 30.6714286,2.53 30.6714286,4.675 L30.6714286,5.885 C30.6714286,8.195 31.64,9.625 34.007619,9.625 C36.3214286,9.625 37.29,8.25 37.29,5.885 Z"></path>
      <path d="M49.3971429,0.33 C51.7109524,0.33 53.1638095,1.485 53.1638095,3.74 C53.1638095,5.72 51.6571429,6.93 49.3971429,6.93 L46.8680952,6.93 L46.8680952,10.45 L45.6842857,10.45 L45.6842857,0.33 L49.3971429,0.33 Z M49.4509524,1.265 L46.9219048,1.265 L46.9219048,5.885 L49.4509524,5.885 C51.1190476,5.885 51.98,4.895 51.98,3.685 C51.98,2.31 51.1190476,1.265 49.4509524,1.265 Z"></path>
      <polygon points="67.5847619 9.46 67.5847619 10.45 60.4280952 10.45 60.4280952 0.33 67.5847619 0.33 67.5847619 1.32 61.6119048 1.32 61.6119048 4.73 67.1542857 4.73 67.1542857 5.72 61.6119048 5.72 61.6119048 9.46"></polygon>
      <path d="M78.7771429,0.33 C80.9295238,0.33 82.4361905,1.32 82.4361905,3.465 C82.4361905,4.95 81.467619,5.995 80.0147619,6.38 L83.0280952,10.45 L81.6290476,10.45 L78.7771429,6.545 L78.7233333,6.545 L75.8714286,6.545 L75.8714286,10.45 L74.687619,10.45 L74.687619,0.33 L78.7771429,0.33 Z M78.7771429,1.265 L75.8714286,1.265 L75.8714286,5.5 L78.7771429,5.5 C80.3914286,5.5 81.252381,4.62 81.252381,3.41 C81.252381,2.145 80.3914286,1.265 78.7771429,1.265 Z"></path>
      <polygon points="97.2338095 1.265 93.5747619 1.265 93.5747619 10.395 92.3909524 10.395 92.3909524 1.265 88.7319048 1.265 88.7319048 0.275 97.18 0.275 97.18 1.265"></polygon>
      <polygon points="108.587619 10.395 107.40381 10.395 107.40381 6.545 103.314286 0.275 104.605714 0.275 108.049524 5.555 111.493333 0.275 112.730952 0.275 108.587619 6.545"></polygon>
    </g>
  </g>
</svg>
