<svg version="1.1" id="Calque_1" xmlns="http://www.w3.org/2000/svg" xmlns:xlink="http://www.w3.org/1999/xlink" x="0px" y="0px"
	 viewBox="0 0 500 70" style="enable-background:new 0 0 500 70;" xml:space="preserve">
<g id="all_inclusive_1_">
	<g>
		<path class="st0" d="M116.3,59.6c-3.1-2.1-4.6-4.7-4.6-7.7c0-3,1.3-5.5,3.8-7.4c2.6-1.9,6.3-2.8,11.1-2.8h9.2v-2.8
			c0-1.6-0.6-2.9-1.7-3.8c-1.1-0.9-3.2-1.3-6.2-1.3c-4,0-7,1.1-9.1,3.2l-5.9-4.4c3.8-3.4,8.9-5.1,15.2-5.1c5.4,0,9.5,1,12.3,3.1
			c2.8,2,4.2,5,4.2,8.9v18.9c0,0.7-0.4,1.2-1.2,1.6c-4.1,1.9-8.7,2.9-14,2.9C123.7,62.8,119.4,61.7,116.3,59.6z M135.9,55.1v-8h-8.7
			c-2.3,0-4,0.4-5.2,1.3c-1.2,0.9-1.8,2-1.8,3.4c0,1.5,0.8,2.7,2.3,3.6c1.5,0.9,3.7,1.3,6.7,1.3C131.8,56.7,134.1,56.2,135.9,55.1z"
			/>
		<path class="st0" d="M159.8,51.8c0,1.4,0.3,2.4,1,3c0.7,0.6,1.7,0.8,3.1,0.8h4.6v6.4h-6.4c-3.7,0-6.5-0.8-8.3-2.5
			c-1.8-1.7-2.7-4.4-2.7-8.1V16.8h8.6V51.8z"/>
		<path class="st0" d="M181.6,51.8c0,1.4,0.3,2.4,1,3c0.7,0.6,1.7,0.8,3.1,0.8h4.6v6.4h-6.4c-3.7,0-6.5-0.8-8.3-2.5
			c-1.8-1.7-2.7-4.4-2.7-8.1V16.8h8.6V51.8z"/>
		<path class="st0" d="M213.6,62.1V16.8h9.2v45.3H213.6z"/>
		<path class="st0" d="M250.8,27.5c10.1,0,15.2,4.7,15.2,14.2v20.4h-8.8V41.6c0-5.2-2.7-7.8-8.2-7.8c-2.6,0-4.7,0.7-6.1,2
			c-1.5,1.3-2.2,3.1-2.2,5.4v20.9h-8.7v-34h7.4l0.5,2.7C243,28.6,246.7,27.5,250.8,27.5z"/>
		<path class="st0" d="M296.7,50.5h8.9c-0.5,4-2.3,7.1-5.3,9.1c-3.1,2.1-6.8,3.1-11.3,3.1c-11.9,0-17.8-5.1-17.8-15.3v-5.1
			c0-4.9,1.5-8.6,4.6-11.1c3.1-2.5,7.4-3.8,13-3.8c4.6,0,8.4,0.9,11.4,2.8c2.9,1.8,4.7,4.6,5.2,8.3h-8.8c-0.8-3.2-3.4-4.9-7.8-4.9
			c-2.7,0-4.8,0.7-6.3,2.1c-1.6,1.4-2.3,3.5-2.3,6.2v5.9c0,3.2,0.7,5.4,2.2,6.7c1.5,1.3,3.7,1.9,6.6,1.9c2.2,0,3.9-0.5,5.3-1.6
			C295.6,53.9,296.4,52.4,296.7,50.5z"/>
		<path class="st0" d="M319.1,51.8c0,1.4,0.3,2.4,1,3c0.7,0.6,1.7,0.8,3.1,0.8h4.6v6.4h-6.4c-3.7,0-6.5-0.8-8.3-2.5
			c-1.8-1.7-2.7-4.4-2.7-8.1V16.8h8.6V51.8z"/>
		<path class="st0" d="M348.4,62.8c-11,0-16.5-4.9-16.5-14.7V28.1h8.7v20.4c0,5.3,2.6,7.9,7.8,7.9c5.2,0,7.8-2.6,7.8-7.9V28.1h8.7
			v19.9C364.9,57.9,359.4,62.8,348.4,62.8z"/>
		<path class="st0" d="M390.8,42.2c7.3,1,11,4.2,11,9.7c0,3.4-1.5,6.1-4.4,8c-2.9,1.9-6.9,2.9-12,2.9c-6.6,0-11.9-1.7-15.9-5.2
			l5.4-4.9c2.7,2.5,6.2,3.7,10.6,3.7c5,0,7.4-1.4,7.4-4.1c0-2.3-1.4-3.5-4.3-3.8l-6.8-0.8c-3.2-0.4-5.9-1.5-7.9-3.1
			c-2-1.7-3-4-3-6.9c0-3.1,1.3-5.6,4-7.4c2.7-1.8,6.3-2.7,10.9-2.7c5.8,0,10.6,1.5,14.1,4.5l-5.2,4.5c-2.6-1.9-5.5-2.9-8.7-2.9
			c-2,0-3.5,0.3-4.7,1c-1.1,0.7-1.7,1.6-1.7,2.7c0,2.3,1.3,3.6,4.1,3.9L390.8,42.2z"/>
		<path class="st0" d="M407.3,24.2v-7.4h8.6v7.4H407.3z M407.3,62.1v-34h8.6v34H407.3z"/>
		<path class="st0" d="M449.2,28.1h8.6l-14.5,34h-8.6l-14-34h8.8l9.9,25.5L449.2,28.1z"/>
		<path class="st0" d="M488.7,52.5l5.5,4.7c-4,3.7-9.3,5.5-16,5.5c-5.7,0-10.2-1.4-13.6-4.3c-3.4-2.9-5.1-7-5.1-12.4v-1.6
			c0-5.2,1.6-9.3,4.8-12.4c3.2-3.1,7.5-4.6,13-4.6c5.8,0,10.2,1.5,13.2,4.6c3,3,4.5,7.3,4.5,12.7v3h-26.7v0.3c0,2.7,0.9,4.8,2.8,6.2
			c1.9,1.5,4.3,2.2,7.2,2.2C482.3,56.4,485.7,55.1,488.7,52.5z M468.3,42h17.8c-0.1-2.7-0.9-4.8-2.6-6.3c-1.6-1.5-3.7-2.2-6.3-2.2
			c-2.5,0-4.6,0.8-6.2,2.3C469.3,37.4,468.4,39.5,468.3,42z"/>
	</g>
	<path class="st1" d="M31,42.1C31.1,41.9,44.4,22,61.6,7.9l0.8-0.7l-6.2-7.3l-0.8,0.7c-11,9.1-19,18.1-24.1,24.4l-4.3-8.6l-8.6,4.2
		L30,43.6L31,42.1z"/>
	<path class="st1" d="M73.9,32c-5.4-0.2-35.6,13.4-38.1,15c-1.9,1.3-0.6,5,1.9,5.9c7.9,3,14.9-7.8,24.3-1.7
		c-5.3,0.5-28.9,17.7-31.7-1.9C14.5,42.7,8.2,38.5,5.7,43.2C3.3,47.8,6.2,47.8,31,64.5c3.3,2.2,7.1,4.7,9.9,5
		c11.1,1.3,30.4-13,41.7-12.2c1.8,0.1,3.6,0.4,5.2,0.8V35.6C82.8,33.7,77.6,32.1,73.9,32z"/>
</g>
</svg>
