<svg version="1.1"
   xmlns="http://www.w3.org/2000/svg" x="0px" y="0px" viewBox="0 0 118.8 11.5" style="enable-background:new 0 0 118.8 11.5;" xml:space="preserve">

<path id="XMLID_17_" d="M18.6,3.2c0-2.9-3-2.9-3.9-2.9h-2.9v11h1V6h1.9l3.1,5.2H19L15.8,6C17,5.8,18.6,5.3,18.6,3.2M12.9,5.1V1.2H15c2.2,0,2.6,1.2,2.6,2c0,0.8-0.4,2-2.6,2H12.9z M21.5,6h5.4V5.1h-5.4V1.2h5.7V0.3h-6.7v11h7v-0.9h-6V6z M32.4,0.3l-4.8,11h1.1l1.2-2.9h5.8l1.2,2.9h1.1l-4.6-11H32.4z M30.3,7.4l2.6-6l2.5,6H30.3z M36.7,1.2h3.8v10h1v-10h3.8V0.3h-8.6V1.2z M65.3,6h5.4V5.1h-5.4V1.2H71V0.3h-6.7v11h7v-0.9h-6V6z M78.3,9.5l-4-9.2h-1.5v11h1V1.6h0l4.3,9.7h0.5l4.2-9.7h0v9.7h1v-11h-1.5L78.3,9.5zM90.8,5.5L90.8,5.5c1.3-0.3,2-1.2,2-2.3c0-2.5-1.9-2.9-3.5-2.9h-3.2v11h3.5c1.5,0,3.7-0.5,3.7-3.1C93.3,6.6,92.3,5.6,90.8,5.5M87.1,1.2h2.3c1.3,0,2.4,0.4,2.4,2c0,0.7-0.4,1.8-2.5,1.8h-2.1V1.2z M89.5,10.3h-2.4V6h2.5c1.3,0,2.6,0.6,2.6,2.3C92.3,9,91.9,10.3,89.5,10.3 M96.3,6h5.4V5.1h-5.4V1.2h5.7V0.3h-6.7v11h7v-0.9h-6V6z M110.7,3.2c0-2.9-3-2.9-3.9-2.9h-2.9v11h1V6h1.9l3.1,5.2h1.2L107.9,6C109.1,5.8,110.7,5.3,110.7,3.2 M104.9,5.1V1.2h2.2c2.2,0,2.6,1.2,2.6,2c0,0.8-0.4,2-2.6,2H104.9z M113.1,3c0-1.4,1.2-2.1,2.5-2.1c0.9,0,1.6,0.4,2.1,1.1l0.9-0.6c-0.7-1-1.8-1.4-3-1.4c-1.9,0-3.5,1.1-3.5,3c0,4.2,5.7,2.4,5.7,5.4c0,1.3-1.1,2.2-2.5,2.2c-1.1,0-2-0.5-2.5-1.4l-1,0.7c0.9,1.2,2.1,1.7,3.6,1.7c1.8,0,3.4-1.1,3.4-3.1C118.8,4.3,113.1,6.3,113.1,3"/>
<path id="XMLID_16_" class="st0" d="M6.1,5.3V7h2v2.4C7.4,9.7,6.6,9.8,5.7,9.8c-2.3,0-3.9-1.6-3.9-4c0-2.4,1.6-4,3.9-4c1.2,0,2.1,0.3,2.7,1l0,0l1.2-1.2l0,0c-1-1-2.3-1.5-4-1.5C2.4,0,0,2.4,0,5.8c0,3.3,2.4,5.7,5.7,5.7c1.6,0,2.9-0.3,4.1-1l0-5.2H6.1z"
  />
<polygon id="XMLID_15_" class="st0" points="60.5,11.3 60.5,3.2 57,11.3 55.7,11.3 52.2,3.2 52.2,11.3 50.4,11.3 50.4,0.3 52.7,0.3 56.4,8.6 60,0.3 62.2,0.3 62.2,11.3 "/>
</svg>
