<?xml version="1.0" encoding="utf-8"?>
<svg version="1.1" id="Calque_1" xmlns="http://www.w3.org/2000/svg" xmlns:xlink="http://www.w3.org/1999/xlink" x="0px" y="0px"
	 viewBox="0 0 500 151" style="enable-background:new 0 0 500 151;" xml:space="preserve">
<polygon class="st0" points="500,74.1 490.5,65 480.9,74.1 490.5,83.3 "/>
<path class="st0" d="M496.1,8.7c-0.6-2.2-5.7,1-16.7,10.4c4.4,4.6,6.6,2,10.1,0.7c2.8,5.1,3.9,28.1-14.4,35c0.5-23.2,0.7-48,0.7-48
	c0-0.7-0.6-0.8-1.1-0.8c-5,0.7-14,9.1-20.9,16.3c3.8,6,8.6,0.6,12.4-0.9c0,1-0.9,18.1-0.5,35.4c-18.9,1.4-15.8-35.4-14.7-40.1
	c0.4-3.8-12.2,4.6-18.4,10.1c2,3.4,4.7,2.7,8.2,1.5c-1.2,16.5,10.9,31.5,25,31.1c0.5,17,2.4,33.5,7.5,34.7
	c0.7,0.2,1.3-17.3,1.7-36.6C509.1,47.5,496.1,8.7,496.1,8.7"/>
<path class="st0" d="M80.8,68.4V20H67.4v48.9c0,10.5,5.3,16.2,18.5,16.2h8.4v-9.3h-5.4C83,75.8,80.8,74.2,80.8,68.4"/>
<path class="st0" d="M282.4,20.7l-19.7,49.3L243,20.7h-19.3v64.4H237V46.6c0-2.5-0.1-6.7-0.4-9.4h0.4l19.3,47.9h12.4L288,37.2h0.4
	c-0.3,2.7-0.4,6.9-0.4,9.4v38.5h13.3V20.7H282.4z"/>
<path class="st0" d="M120.4,85.8c16.8,0,25.2-5.6,25.2-20.9v-29h-13.4v29c0,8.8-5.6,12-11.8,12c-6.2,0-11.8-3.2-11.8-12v-29H95.2v29
	C95.2,80.1,103.6,85.8,120.4,85.8"/>
<path class="st0" d="M205.6,56.3v7.8c0,15.2-9.6,21.6-26.4,21.6c-16.8,0-26.4-5.6-26.4-20.9V20h13.3v18.4c4.4-2,9.9-3.1,15.1-3.1
	C198.4,35.2,205.6,44.3,205.6,56.3 M166.1,64.9c0,8.8,7.3,12,13.5,12c6.2,0,13.5-3.2,13.5-12v-8.8c0-8.8-7.2-12-13.5-12
	c-6.2,0-13.5,3.2-13.5,12V64.9z"/>
<path class="st0" d="M390.5,35.2c5.1,0,10.6,1.1,15.1,3.1V20h13.3v44.9c0,15.2-9.6,20.9-26.4,20.9c-16.8,0-26.4-6.4-26.4-21.6v-7.8
	C366.1,44.3,373.3,35.2,390.5,35.2 M405.5,56.1c0-8.8-7.3-12-13.5-12c-6.2,0-13.5,3.2-13.5,12v8.8c0,8.8,7.3,12,13.5,12
	c6.2,0,13.5-3.2,13.5-12V56.1z"/>
<path class="st0" d="M351.1,72c-5.6,3.6-9.9,4.9-16.2,4.9c-7.9,0-14.3-4.1-14.3-12v-1.1h39.9v-4c0-15.2-9.6-24.7-26.4-24.7
	c-16.8,0-26.4,9.4-26.4,24.7v2c0,14.7,9.2,23.9,27.1,23.9c9,0,16.8-1.8,24.5-7.6L351.1,72z M320.6,56.3c0-9,7.3-12.5,13.5-12.5
	c6.2,0,13.5,3.5,13.5,12.5H320.6z"/>
<path class="st0" d="M31.9,85.8C11.1,85.8,0,75.2,0,58v-8.8C0,31.4,11.5,20,31.9,20c17.7,0,28.4,8.5,31,20H48.7
	c-2.4-7.7-8.4-11.2-16.7-11.2c-11.5,0-18,6.6-18,20.7v6.4c0,12.8,4.8,21.1,18,21.1c8.4,0,14.3-3.5,16.7-11.2h14.2
	C60.4,77.3,49.7,85.8,31.9,85.8"/>
<path class="st0" d="M230.3,98.4h6.9v24.4c0,7.3-4.8,11.3-13.3,11.3c-5.4,0-9.7-2-12.5-4.5l4.7-4.4c2.1,2.5,5.1,3.6,7.8,3.6
	c3.5,0,6.4-2,6.4-6V98.4z"/>
<path class="st0" d="M268.9,122.3c0,8.1-4.8,11.9-13.4,11.9c-8.8,0-13.5-3.8-13.5-12v-3.8c0-7.4,4.7-11.6,13.5-11.6
	c8.8,0,13.4,4.2,13.4,11.6V122.3z M262.1,117.9c0-4.6-2.8-6.3-6.6-6.3c-3.7,0-6.6,1.7-6.6,6.3v5.3c0,4.5,2.9,6.2,6.6,6.2
	c3.8,0,6.6-1.7,6.6-6.2V117.9z"/>
<path class="st0" d="M285.5,124.1l7.5-16.9h7l-13.9,30c-2.2,4.8-5.6,6.7-11.4,6.7h-2.5V139h2.5c2.7,0,4.5-0.6,6-4l1.6-3.6
	l-11.6-24.1h7.1L285.5,124.1z"/>
<polygon class="st0" points="330,107.2 318.7,133.7 312,133.7 301.1,107.2 308,107.2 315.6,127.1 323.3,107.2 "/>
<path class="st0" d="M333.8,98.4h6.7v5.7h-6.7V98.4z M333.8,107.2h6.7v26.4h-6.7V107.2z"/>
<path class="st0" d="M371.8,129.9c-3.3,3-7.3,4.3-12.5,4.3c-8.6,0-14.6-4.5-14.6-13V120c0-8,5.2-13.2,13.8-13.2
	c9.2,0,13.8,5.1,13.8,13.4v2.3h-20.8v0.2c0,4.3,3.4,6.6,7.8,6.6c3.5,0,5.9-1.1,8-3L371.8,129.9z M365.5,118.1
	c-0.2-4.4-3-6.6-6.9-6.6c-3.8,0-6.8,2.5-6.9,6.6H365.5z"/>
<path class="st0" d="M418.4,107.2l-9.3,26.4h-6.3l-6.7-17.3l-6.7,17.3h-6.5l-8.9-26.4h7.1l5.6,17.9c2.3-5.9,4.6-12,6.9-17.9h5.2
	l7,17.9l5.8-17.9H418.4z"/>
</svg>
