<svg xmlns="http://www.w3.org/2000/svg" viewBox="0 0 494.6 94.1"><style>.st0{fill:#000000;}</style><path class="st0" d="M269.4 80.5l-4.1-4.1-4.1 4.1 4.1 4.1"/><path class="st0" d="M267.8 50.8c-.3-1-2.5.4-7.2 4.7 1.9 2.1 2.8.9 4.4.3 1.2 2.3 1.7 12.7-6.2 15.9.2-10.5.3-21.7.3-21.7 0-.3-.2-.4-.5-.4-2.2.3-6.1 4.1-9 7.4 1.6 2.7 3.7.3 5.4-.4 0 .4-.4 8.2-.2 16.1-8.2.6-6.9-16.1-6.4-18.2.2-1.7-5.3 2.1-8 4.6.9 1.5 2 1.2 3.6.7-.5 7.5 4.7 14.3 10.9 14.1.2 7.7 1 15.2 3.3 15.7.3.1.5-7.8.7-16.6 14.5-4.6 8.9-22.2 8.9-22.2M87.6 77.9v-22h-5.8V78c0 4.7 2.3 7.4 8 7.4h3.6v-4.2h-2.3c-2.5 0-3.5-.7-3.5-3.3M175.1 56.2l-8.6 22.3-8.5-22.3h-8.4v29.2h5.8V68c0-1.1 0-3-.2-4.3h.2l8.4 21.7h5.4l8.4-21.7h.2c-.1 1.2-.2 3.1-.2 4.3v17.4h5.8V56.2h-8.3zM104.8 85.8c7.3 0 10.9-2.6 10.9-9.5V63.1h-5.8v13.2c0 4-2.4 5.4-5.1 5.4-2.7 0-5.1-1.5-5.1-5.4V63.1h-5.8v13.2c0 6.9 3.6 9.5 10.9 9.5M141.7 72.4V76c0 6.9-4.2 9.8-11.5 9.8s-11.5-2.6-11.5-9.5V55.9h5.8v8.3c1.9-.9 4.3-1.4 6.5-1.4 7.6 0 10.7 4.1 10.7 9.6m-17.1 3.9c0 4 3.1 5.4 5.8 5.4 2.7 0 5.8-1.5 5.8-5.4v-4c0-4-3.1-5.4-5.8-5.4-2.7 0-5.8 1.5-5.8 5.4v4zM221.9 62.8c2.2 0 4.6.5 6.5 1.4v-8.3h5.8v20.4c0 6.9-4.2 9.5-11.5 9.5s-11.5-2.9-11.5-9.8v-3.5c.1-5.6 3.3-9.7 10.7-9.7m6.6 9.5c0-4-3.1-5.4-5.8-5.4-2.7 0-5.8 1.5-5.8 5.4v4c0 4 3.2 5.4 5.8 5.4 2.7 0 5.8-1.5 5.8-5.4v-4zM204.9 79.5c-2.4 1.6-4.3 2.2-7 2.2-3.4 0-6.2-1.9-6.2-5.4v-.5H209V74c0-6.9-4.2-11.2-11.5-11.2S186 67.1 186 74v.9c0 6.7 4 10.8 11.8 10.8 3.9 0 7.3-.8 10.6-3.5l-3.5-2.7zm-13.3-7.1c0-4.1 3.1-5.7 5.8-5.7 2.7 0 5.8 1.6 5.8 5.7h-11.6zM66.4 85.8c-9 0-13.9-4.8-13.9-12.6v-4c0-8.1 5-13.3 13.9-13.3 7.7 0 12.3 3.8 13.4 9.1h-6.2c-1.1-3.5-3.6-5.1-7.3-5.1-5 0-7.8 3-7.8 9.4v2.9c0 5.8 2.1 9.6 7.8 9.6 3.6 0 6.2-1.6 7.3-5.1h6.2c-1 5.2-5.7 9.1-13.4 9.1M22.9 76.1c0 6.6-4 9.8-11.5 9.8C4.6 85.9 0 83.2 0 76.4V55.9h5.7v8.3c1.7-.9 3.9-1.4 6.2-1.4 7.9 0 11.1 4 11.1 9.6v3.7zm-17.2.1c0 4 2.5 5.6 5.7 5.6 3.5 0 5.8-1.7 5.8-5.6v-3.6c0-3.9-1.9-5.7-5.9-5.7-3.4 0-5.6 1.8-5.6 5v4.3z"/><path class="st0" d="M34.8 77.4L41 63.3h5.9L35.3 88.4c-1.8 4-4.7 5.6-9.5 5.6h-2.1v-4.1h2.1c2.2 0 3.7-.5 5-3.4l1.4-3-9.7-20.2h5.9l6.4 14.1z"/><g><path class="st0" d="M42.5.7v37.2h-7.3V14.3c0-1.3 0-3.7.2-5.2h-.1L23.5 37.9h-5.3L6.7 9.5c.1 1.5.2 3.7.2 5v23.4H.2V.7h10.3l10.9 27.1L32.1.7h10.4zM76.1 33.9c-3.4 3.2-7.7 4.5-13.1 4.5-9.1 0-15.4-4.7-15.4-13.7v-1.3c0-8.4 5.5-14 14.6-14 9.7 0 14.6 5.4 14.6 14.1V26H54.9v.2c0 4.5 3.6 6.9 8.2 6.9 3.7 0 6.2-1.2 8.5-3.2l4.5 4zm-6.6-12.5c-.2-4.6-3.2-7-7.3-7-4 0-7.2 2.7-7.3 7h14.6zM108.4 33.9c-3.4 3.2-7.7 4.5-13.1 4.5-9.1 0-15.4-4.7-15.4-13.7v-1.3c0-8.4 5.5-14 14.6-14 9.7 0 14.6 5.4 14.6 14.1V26H87.2v.2c0 4.5 3.6 6.9 8.2 6.9 3.7 0 6.2-1.2 8.5-3.2l4.5 4zm-6.6-12.5c-.2-4.6-3.2-7-7.3-7-4 0-7.2 2.7-7.3 7h14.6zM126.8 32.6h5v5.3h-7.1c-5.7 0-9-2.8-9-9.2V15.1h-4.1V10h4.1V.7h7.2V10h9v5.1h-9v13.8c-.1 2.6 1.1 3.7 3.9 3.7zM136 .7h7.1v6H136v-6zm0 9.3h7.1v27.9H136V10zM177.4 21.1v16.8h-7.2V21c0-4.2-2.3-6.4-6.7-6.4-4.3 0-6.9 2.3-6.9 6v17.2h-7.2V10h6l.4 2.2c2-1.4 4.9-2.8 9-2.8 7.4 0 12.6 3.1 12.6 11.7zM181.7 21.9c0-8 5.7-12.4 14.5-12.4 8.7 0 14.4 4 14.4 12.9V37c0 7.3-4.9 12.4-15 12.4-5 0-9.5-1.4-12.9-4.3l4.7-4.3c2.1 2.1 5.1 3.2 8.2 3.2 5.2 0 7.8-2.2 7.8-6.2v-2.1c-2.3 1.3-5 1.9-7.8 1.9-9.2 0-13.9-4.9-13.9-12.4v-3.3zm21.7-.5c0-4.9-3.3-6.8-7.2-6.8-3.9 0-7.3 1.9-7.3 6.8v4.3c0 5 3.2 6.8 7.3 6.8 4.3 0 7.2-1.8 7.2-6.6v-4.5zM240.9 29.5c0 5.7-5.3 9-13.4 9-4.2 0-9.4-1.1-13-4.3l4.4-4c2.1 1.9 5.1 3.1 8.7 3.1 3.9 0 6.1-1.1 6.1-3.4 0-1.8-1-2.9-3.5-3.2l-5.6-.7c-5-.6-9-3.2-9-8.3 0-5.2 4.8-8.3 12.3-8.3 4.8 0 8.7 1.3 11.6 3.7l-4.3 3.7c-1.9-1.4-4.3-2.4-7.2-2.4-3.2 0-5.2 1.1-5.2 3.1 0 1.8 1.2 2.9 3.3 3.2l5.7.8c5.8.8 9.1 3.2 9.1 8zM270.7 18.8c-3.9-3.4-6.3-6.4-6.3-9.8 0-5 4.2-9 12.6-9 8.7 0 13 3.9 13 9 0 3.6-2.6 6.2-6 8.3l-3.1 1.9 9 8c1.8-2.3 2.5-4.6 2.7-6.9h6.3c-.4 3.9-1.8 7.5-4.5 10.8l7.4 6.5v.3H293l-3.3-2.8c-4 2.6-8.9 3.4-13 3.4-10.7 0-15.5-3.8-15.5-9.7 0-4.7 4-6.9 7.2-8.8l2.3-1.2zm14.4 12.3l-10-8.5-.9.6c-3.2 1.8-5.1 3.2-5.1 5.6 0 2.7 2.5 4.4 7.8 4.4 2.2-.1 5.4-.6 8.2-2.1zm-9.2-16.3l.6.5 2.4-1.4c2.9-1.7 3.7-3.6 3.7-5 0-2.4-2.1-3.9-5.4-3.9s-5.4 1.4-5.4 4c-.1 2.2 1.7 3.7 4.1 5.8zM319 .7h28.2v5.7h-20.9v9.4h19v5.7h-19v10.7h20.9v5.7H319V.7zM379.7 10l-11.9 27.9h-7.1L349.1 10h7.3l8.1 20.9 8.1-20.9h7.1zM409.6 33.9c-3.4 3.2-7.7 4.5-13.1 4.5-9.1 0-15.4-4.7-15.4-13.7v-1.3c0-8.4 5.5-14 14.6-14 9.7 0 14.6 5.4 14.6 14.1V26h-21.9v.2c0 4.5 3.6 6.9 8.2 6.9 3.7 0 6.2-1.2 8.5-3.2l4.5 4zM403 21.4c-.2-4.6-3.2-7-7.3-7-4 0-7.2 2.7-7.3 7H403zM442.4 21.1v16.8h-7.2V21c0-4.2-2.3-6.4-6.7-6.4-4.3 0-6.9 2.3-6.9 6v17.2h-7.2V10h6l.4 2.2c2-1.4 4.9-2.8 9-2.8 7.4 0 12.6 3.1 12.6 11.7zM461.2 32.6h5v5.3h-7.1c-5.7 0-9-2.8-9-9.2V15.1h-4V10h4V.7h7.2V10h9v5.1h-9v13.8c-.1 2.6 1.1 3.7 3.9 3.7zM494.6 29.5c0 5.7-5.3 9-13.4 9-4.2 0-9.4-1.1-13-4.3l4.4-4c2.1 1.9 5.1 3.1 8.7 3.1 3.9 0 6.1-1.1 6.1-3.4 0-1.8-1-2.9-3.5-3.2l-5.6-.7c-5-.6-9-3.2-9-8.3 0-5.2 4.8-8.3 12.3-8.3 4.8 0 8.7 1.3 11.6 3.7l-4.3 3.7c-1.9-1.4-4.3-2.4-7.2-2.4-3.2 0-5.2 1.1-5.2 3.1 0 1.8 1.2 2.9 3.3 3.2l5.7.8c5.9.8 9.1 3.2 9.1 8z"/></g></svg>
