<svg version="1.1" id="Calque_1" xmlns="http://www.w3.org/2000/svg" xmlns:xlink="http://www.w3.org/1999/xlink" x="0px" y="0px"
	 viewBox="0 0 500 500" enable-background="new 0 0 500 500" xml:space="preserve">
<g>
	<g>
		<g>
			<g>
				<path fill-rule="evenodd" clip-rule="evenodd" d="M379.7,245.8v-70.4l-16.9-5.9c0,0-26.5-11-55.8,3.7
					c-4.1,1.4-87.8,37-87.8,37s-11,11.9,6.4,20.6c12.8,6.4,43-10.5,43-10.5s17.2-6.9,29.2,3.2l-53.8,22.4c0,0-42.1,12.8-44.4-26.1
					L144.7,196c0,0-22.4-10.2-24.2,10.7c0,0-2.3,3.5,9.1,11.3c11.4,7.8,81.9,54.9,81.9,54.9s23.8,20.6,69.5-2.3l50.3-21.5
					C331.3,249,354.6,239,379.7,245.8z"/>
				<path d="M188.5,119.2l-24.7,12l33.1,70.5c0,0,53.8-76.4,99.2-112.9l-19.1-21c0,0-61,57.4-75.3,77.7L188.5,119.2z
					"/>
			</g>
		</g>
	</g>
	<g>
		<g>
			<path d="M1,376.3h94.4v14.5H1V376.3z"/>
			<path d="M154,336.3l13.4,4c-2.3,7.3-5,14.4-8.1,21.2v69.8h-13.4v-45.4c-2.3,3.7-4.8,7.2-7.4,10.7
				c-0.9-4-2.5-9.7-4.9-17.1C141.3,368.7,148.1,354.3,154,336.3z M203,376.8h13.4c-8-7.4-14.5-15.7-19.6-25.1
				c-5.4,9-12.3,17.4-20.6,25.2h12.7c0,6.6-0.1,11.7-0.2,15.2c0,18.2-5.2,31.5-15.7,40c-2.4-2.9-5.9-6.2-10.5-9.9
				c7.8-7.4,11.9-16.8,12.1-28.3c0.1-3.3,0.2-8.5,0.2-15.6c-2.3,2.2-4.8,4.2-7.3,6.3c-1.8-3.8-4.1-8.1-6.7-13.1
				c11.6-8.9,21.5-20.2,29.6-33.7h16l-2.2,3.1c6.7,11.7,15.6,21.3,26.8,28.7l-6.5,14c-2.6-1.9-5-3.9-7.3-6v53.2H203V376.8z"/>
			<path d="M272.1,415.9h37v-11.7h-29.1v-12.5h29.1v-9.9h-18.9v-7.7c-4.3,3.1-8.9,6.1-13.8,9
				c-1.9-2.7-4.8-6.5-8.7-11.4c20.9-11.2,35-23.2,42.4-36h17.1l-2.5,3.7c8.4,12.1,21.9,22.4,40.4,31.1c-3.5,4.3-6.4,8.1-8.8,11.5
				c-4.9-2.6-9.4-5.3-13.7-8.2v8h-19v9.9H353v12.5h-29.4v11.7h37v12.5h-88.6V415.9z M316.4,349.8c-5.3,6.8-12,13.3-19.9,19.5h39.9
				C328.5,363.3,321.9,356.8,316.4,349.8z"/>
			<path d="M457.3,406.9c-0.3-2-0.8-4.2-1.5-6.7h-28.1v7.3c0,6.5,3.1,9.7,9.3,9.7h37.3c5.5,0,8.8-1.3,9.8-3.9
				c1-2.6,1.9-7.2,2.7-13.8c4.8,1.8,8.8,3.3,12.2,4.5c-1.8,8.9-3.3,14.7-4.5,17.3c-1.2,2.7-3.6,4.7-7,6.1c-3.4,1.4-8,2.2-13.6,2.2
				h-40.6c-13,0-19.6-6.2-19.6-18.5v-34c-2,2.6-4,5.2-6.2,7.7l-5.6-15.7c8.7-10.7,15.3-22.1,19.8-34h15.6c-1.2,3-2.5,5.9-3.9,8.7
				h55.9l-0.4,24.4l-0.6,20.1c-0.2,5.4-1.4,9.7-3.5,12.8c-2.1,3.1-5.1,4.8-8.9,5.2C472.1,406.8,465.9,406.9,457.3,406.9z
				 M422.3,364.8h40.6v29c3.6,0.1,5.9,0.2,6.9,0.2c1.5,0,2.7-0.5,3.5-1.5c0.8-1,1.3-3.3,1.4-7c0.1-3.7,0.2-13.3,0.3-29h-47.8
				C425.7,359.3,424,362.1,422.3,364.8z M449.1,389.2v-13.4h-21.4v13.4H449.1z"/>
		</g>
	</g>
</g>
</svg>
