<svg version="1.1" id="Calque_1" xmlns="http://www.w3.org/2000/svg" xmlns:xlink="http://www.w3.org/1999/xlink" x="0px" y="0px"
	 viewBox="0 0 500 316" style="enable-background:new 0 0 500 316;" xml:space="preserve">
<path class="st0" d="M15.3,16.6h469.3v284.5H15.3V16.6z M-0.9,317.3h501.7V0.3H-0.9V317.3z"/>
<g>
	<polygon class="st0" points="415.3,145.6 408.7,152.1 415.3,158.7 421.9,152.1 	"/>
	<path class="st0" d="M419.2,105.1c-0.4-1.6-3.9,0.7-11.5,7.5c3,3.3,4.5,1.4,6.9,0.5c1.9,3.6,2.7,20.2-9.9,25.2
		c0.3-16.7,0.5-34.5,0.5-34.5c0-0.5-0.4-0.6-0.7-0.6c-3.5,0.5-9.6,6.6-14.3,11.7c2.6,4.3,5.9,0.4,8.5-0.6c0,0.7-0.6,13-0.3,25.5
		c-13,1-10.9-25.5-10.1-28.8c0.3-2.7-8.4,3.3-12.7,7.3c1.4,2.4,3.2,2,5.6,1c-0.9,11.9,7.5,22.7,17.2,22.4
		c0.4,12.2,1.6,24.1,5.2,24.9c0.5,0.1,0.9-12.4,1.1-26.3C428.1,133,419.2,105.1,419.2,105.1z"/>
	<path class="st0" d="M133.6,148v-34.8h-9.2v35.1c0,7.5,3.7,11.7,12.7,11.7h5.8v-6.7h-3.7C135.1,153.3,133.6,152.2,133.6,148z"/>
	<path class="st0" d="M258.7,149.1l-13.6-35.4h-13.3V160h9.2v-27.6c0-1.8-0.1-4.8-0.3-6.8h0.3l13.2,34.4h8.5l13.2-34.4h0.3
		c-0.2,1.9-0.2,5-0.2,6.8V160h9.2v-46.3h-13L258.7,149.1z"/>
	<path class="st0" d="M169,145.5c0,6.3-3.9,8.6-8.1,8.6c-4.3,0-8.1-2.3-8.1-8.6v-20.9h-9.2v20.9c0,10.9,5.8,15,17.3,15
		c11.5,0,17.3-4,17.3-15v-20.9H169V145.5z"/>
	<path class="st0" d="M202.6,124.2c-3.5,0-7.3,0.8-10.4,2.3v-13.2h-9.2v32.3c0,10.9,6.6,15,18.2,15c11.5,0,18.2-4.6,18.2-15.5v-5.6
		C219.4,130.7,214.5,124.2,202.6,124.2z M210.8,145.5c0,6.3-5,8.6-9.3,8.6c-4.3,0-9.3-2.3-9.3-8.6v-6.3c0-6.3,5-8.6,9.3-8.6
		c4.3,0,9.3,2.3,9.3,8.6V145.5z"/>
	<path class="st0" d="M356.9,126.4c-3-1.5-6.8-2.3-10.4-2.3c-11.8,0-16.8,6.5-16.8,15.2v5.6c0,10.9,6.6,15.5,18.2,15.5
		c11.5,0,18.2-4,18.2-15v-32.3h-9.2V126.4z M356.9,145.5c0,6.3-5,8.6-9.3,8.6c-4.3,0-9.3-2.3-9.3-8.6v-6.3c0-6.3,5-8.6,9.3-8.6
		c4.3,0,9.3,2.3,9.3,8.6V145.5z"/>
	<path class="st0" d="M307.8,124.2c-11.5,0-18.2,6.8-18.2,17.7v1.4c0,10.6,6.3,17.2,18.7,17.2c6.2,0,11.6-1.3,16.9-5.5l-5.6-4.4
		c-3.9,2.6-6.8,3.5-11.2,3.5c-5.4,0-9.8-3-9.8-8.6v-0.8h27.4v-2.8C325.9,130.9,319.3,124.2,307.8,124.2z M298.5,139.3
		c0-6.5,5-9,9.3-9c4.3,0,9.3,2.5,9.3,9H298.5z"/>
	<path class="st0" d="M100,119.5c5.7,0,9.8,2.5,11.5,8.1h9.8c-1.7-8.3-9.1-14.4-21.3-14.4c-14,0-22,8.2-22,21v6.3
		c0,12.3,7.7,19.9,22,19.9c12.2,0,19.6-6.1,21.3-14.4h-9.8c-1.7,5.5-5.8,8.1-11.5,8.1c-9.1,0-12.4-6-12.4-15.2v-4.6
		C87.6,124.3,92.1,119.5,100,119.5z"/>
</g>
<g>
	<path class="st0" d="M175,212.6v-30.6c0-0.4,0.1-0.6,0.7-0.6h2.5v-1.1h-10.9v1.1h2.5c0.6,0,0.7,0.2,0.7,0.6v30.6
		c0,0.3-0.2,0.5-0.4,0.5h-2.9v1.1h11v-1.1h-2.9C175.1,213.1,175,212.9,175,212.6z"/>
	<path class="st0" d="M262.1,207.9c0,0.2-0.5,5.2-7,5.2c-8,0-8.9-12.1-8.9-17.3c0-5.3,1.8-14.3,8.5-14.3h0.1c4.2,0,4.8,2.2,4.8,4.3
		c0,0.3-0.2,0.6-0.3,1c-0.2,0.4-0.3,0.7-0.3,1.1c0,1,1,1.7,1.9,1.7c1,0,2.1-0.8,2.1-2.5c0-2.6-2.2-6.8-8.2-6.8h-0.1
		c-3.6,0-6.6,1.2-9,3.6c-2.8,2.8-4.5,7.3-4.5,12c0,8.9,3.7,18.4,13.9,18.4c7.3,0,8.1-6.2,8.1-6.2l0-0.3l-1.2-0.3L262.1,207.9z"/>
	<path class="st0" d="M196.6,181.4h1.8c0.8,0,1.4,0.6,1.4,1.6c0,0.2,0,0.5-0.1,0.7l-4.9,21.1l-6.4-22.6c0-0.1,0-0.2,0-0.3
		c0-0.3,0.2-0.4,0.6-0.4h1.8v-1.1h-10v1.1h1.7c0.6,0,1,0.5,1.1,1c0.6,1.9,9.1,31.4,9.1,31.7l0.1,0.2h1.2l0.1-0.2
		c0.9-3.6,5.3-22.3,6.8-28.5l0.5-2.1c0.2-1,0.9-2,2.1-2h1.1v-1.1h-7.9V181.4z"/>
	<path class="st0" d="M157.8,193c-2.4-0.5-6.5-1.8-6.5-5.6v-0.3c0-3.3,2.4-5.7,5.7-5.7c5.6,0,5.6,5.5,5.6,5.7v0.3l1.4-0.1v-6.5
		l-0.3-0.1c0,0-3.2-0.7-6-0.7h-0.3c-5.9,0.1-9.9,3.6-9.9,8.9c0,4.2,2.8,7,8,7.9c4.1,0.7,6.8,3.7,6.8,7.4c0,4.2-1.9,8.7-7.2,8.8
		c-6.7,0-6.9-6.7-6.9-7l0-0.3l-1.4-0.1v7.9l0.3,0c0,0,3.7,0.6,7.2,0.6h0.1c7.4,0,12.1-4.5,12.1-11.5
		C166.4,197.7,163.3,194.1,157.8,193z"/>
	<path class="st0" d="M227.3,206.3c-1.3,4.8-4,6.7-9.3,6.8h-0.3c-3.2,0-3.4-0.8-3.4-2.1c0-0.3,0-0.6,0-1c0-0.5,0.1-1,0.1-1.6l0-15.5
		l4.3,0.1l0.1,0c2,0,2.5,0.1,3.3,1c0.5,0.7,0.6,1.5,0.8,2.8l0.1,0.5h1v-9.7h-1.1l0,0.3c-0.1,1.3-0.3,2.2-0.9,2.9
		c-0.7,0.8-1,0.8-2.4,0.8c-0.2,0-0.5,0-0.7,0l-4.4,0.1v-10.4l6.4,0.1c1.6,0.1,3.3,0.2,4,1.1c0.8,1,0.9,1.2,1.1,2.8
		c0,0.3,0.1,0.7,0.2,1.1l0,0.3h1v-6.5h-20.3v1.1h2.5c0.6,0,0.7,0.2,0.7,0.6v30.6c0,0.3-0.2,0.5-0.4,0.5h-2.9v1.1H228l0.5-7.9
		l-1.1-0.3L227.3,206.3z"/>
	<path class="st0" d="M52.5,206.1l-0.1,0.3c-1.3,4.8-4,6.7-9.3,6.8h-0.3c-3.2,0-3.4-0.8-3.4-2.1c0-0.3,0-0.6,0-1
		c0-0.5,0.1-1,0.1-1.6l0-15.5l4.3,0.1l0.1,0c2,0,2.5,0.1,3.3,1c0.5,0.7,0.6,1.5,0.8,2.8l0.1,0.5h1v-9.7H48l0,0.3
		c-0.1,1.3-0.3,2.2-0.9,2.9c-0.7,0.8-1,0.8-2.4,0.8c-0.2,0-0.5,0-0.7,0l-4.4,0.1v-10.4l6.4,0.1c1.6,0.1,3.3,0.2,4,1.1
		c0.8,1,0.9,1.2,1.1,2.8c0,0.3,0.1,0.7,0.2,1.1l0,0.3h1v-6.5H31.8v1.1h2.5c0.6,0,0.7,0.2,0.7,0.6v30.6c0,0.3-0.2,0.5-0.4,0.5h-2.9
		v1.1h21.3l1.9-8L52.5,206.1z"/>
	<path class="st0" d="M77.4,212.4c-0.9-1.7-7.3-15.5-8-17c0.5-1.2,4.6-10.8,5.5-12.5c0.4-0.7,0.9-1.4,2-1.4h1.7v-1.1h-8v1.1h1.8
		c0.3,0,0.9,0.2,0.9,1c0,0.1,0,0.4-0.2,0.8l-4.5,10.9L62.7,182l0-0.1c0,0,0-0.1,0-0.1c0-0.2,0.4-0.4,0.7-0.4h1.8v-1.1H54.9v1.1h1.9
		c0.6,0,0.8,0.2,1.2,0.7c0.9,1.7,6.4,13.3,7.1,14.6c-0.6,1.4-5.7,13.2-6.6,14.9c-0.4,0.7-0.9,1.4-2,1.4h-1.7v1.1h8v-1.1H61
		c-0.3,0-0.9-0.2-0.9-1c0-0.1,0-0.4,0.2-0.8l5.6-13.3c1.3,2.7,6.3,13.2,6.9,14.4l0,0.1c0,0,0,0.1,0,0.1c0,0.2-0.4,0.4-0.7,0.4h-1.8
		v1.1h10.3v-1.1h-1.9C78,213.1,77.8,213,77.4,212.4z"/>
	<path class="st0" d="M120.4,206.3c-1.4,5.2-3.4,6.8-8.2,6.8c-3.5,0-3.7-1-3.7-3v-28.1c0-0.4,0.1-0.6,0.7-0.6h2.5v-1.1H101v1.1h2.5
		c0.4,0,0.6,0.5,0.6,0.6v30.6c0,0.3-0.2,0.5-0.4,0.5h-2.9v1.1h20.2l0.5-8.1l-1.1-0.1L120.4,206.3z"/>
	<path class="st0" d="M137.5,181.4h2.1c0.6,0,1.1,0.3,1.1,1.1v23.2c0,4.3-2.2,6.7-6.2,6.7c-3.3,0-5.8-2.9-5.8-6.7l0-23.8
		c0-0.4,0.1-0.6,0.7-0.6h2.5v-1.1H121v1.1h2.5c0.6,0,0.7,0.2,0.7,0.6v24.5c0,4.6,3.8,7.9,9.1,7.9c5.5,0,8.8-3,8.8-7.9l0-23.9
		c0-0.5,0.2-1.1,0.9-1.1h2.3v-1.1h-7.9V181.4z"/>
	<path class="st0" d="M99.2,207.9c0,0.2-0.5,5.2-7,5.2c-8,0-8.9-12.1-8.9-17.3c0-5.3,1.8-14.3,8.5-14.3h0.1c4.2,0,4.8,2.2,4.8,4.3
		c0,0.3-0.2,0.6-0.3,1c-0.2,0.4-0.3,0.7-0.3,1.1c0,1,1,1.7,1.9,1.7c1,0,2.1-0.8,2.1-2.5c0-2.6-2.2-6.8-8.2-6.8h-0.1
		c-3.6,0-6.6,1.2-9,3.6c-2.8,2.8-4.5,7.3-4.5,12c0,8.9,3.7,18.4,13.9,18.4c7.3,0,8.1-6.2,8.1-6.2l0-0.3l-1.2-0.3L99.2,207.9z"/>
	<path class="st0" d="M382.5,186.9h1l0-0.3c0.4-2.4,0.5-2.6,1.4-3.7l0.1-0.1c0.7-0.9,1.4-1.2,3-1.2l3,0v31.1c0,0.3-0.2,0.5-0.4,0.5
		h-2.9v1.1h10.9v-1.1l-2.8,0c-0.1-0.1-0.3-0.4-0.3-0.7v-30.9l3,0c1.5,0,2.2,0.3,3,1.2l0.1,0.1c0.9,1.1,1.1,1.3,1.4,3.7l0,0.3h1v-6.5
		h-21.7V186.9z"/>
	<path class="st0" d="M277.3,180.2c-8,0-13.3,6.9-13.3,17.2c0,9.8,5.6,17,13.3,17c7.5,0,12.8-7,12.8-17
		C290.2,187,285.1,180.2,277.3,180.2z M269,197.4c0-9.7,1.4-16.1,8.4-16.1c7.3,0,7.9,7,7.9,16.1c0,9.8-1.3,15.9-7.9,15.9
		C270.4,213.2,269,204.6,269,197.4z"/>
	<path class="st0" d="M430.5,180.2c-8,0-13.3,6.9-13.3,17.2c0,9.8,5.6,17,13.3,17c7.5,0,12.8-7,12.8-17
		C443.3,187,438.3,180.2,430.5,180.2z M422.1,197.4c0-9.7,1.4-16.1,8.4-16.1c7.3,0,7.9,7,7.9,16.1c0,9.8-1.3,15.9-7.9,15.9
		C423.6,213.2,422.1,204.6,422.1,197.4z"/>
	<path class="st0" d="M460.2,180.2v1.1h2.1c1,0,1.1,1.6,1.1,2.2l-0.1,19.3c-1.4-3.5-4.6-10.2-5.7-12.2l-0.1-0.3
		c-1.4-2.6-4.7-8.8-6-10l-0.1-0.1h-1c-0.6,0-1.5,0-2.4,0c-1.3,0-2.7,0-4.2,0h-0.3v1.1h2.5c0.5,0,0.8,0.4,0.8,0.9
		c0,1.6-0.1,28.3-0.1,28.6c0,1.4-0.4,2.1-1.2,2.2h-2.1v1.1h8V213h-2.1c-1,0-1.1-1.7-1.1-2.2L448,183c1.5,2,4.8,7.9,6,10.3
		c0.4,0.7,8.7,17.1,9.2,20.8l0,0.3h0.3c0.2,0,0.8-0.1,0.9-0.1l0.3,0v-0.3c0-1.6,0.1-30.1,0.1-30.4c0-1.4,0.4-2.1,1.2-2.2h2.1v-1.1
		H460.2z"/>
	<path class="st0" d="M413.7,212.6v-30.6c0-0.4,0.1-0.6,0.7-0.6h2.5v-1.1H406v1.1h2.5c0.6,0,0.7,0.2,0.7,0.6v30.6
		c0,0.3-0.2,0.5-0.4,0.5h-2.9v1.1h11v-1.1h-2.9C413.9,213.1,413.7,212.9,413.7,212.6z"/>
	<path class="st0" d="M379.2,207.9c0,0.2-0.5,5.2-7,5.2c-8,0-8.9-12.1-8.9-17.3c0-5.3,1.8-14.3,8.5-14.3h0.1c4.2,0,4.8,2.2,4.8,4.3
		c0,0.3-0.2,0.6-0.3,1c-0.2,0.4-0.3,0.7-0.3,1.1c0,1,1,1.7,1.9,1.7c1,0,2.1-0.8,2.1-2.5c0-2.6-2.2-6.8-8.2-6.8h-0.1
		c-3.6,0-6.6,1.2-9,3.6c-2.8,2.8-4.5,7.3-4.5,12c0,8.9,3.7,18.4,13.9,18.4c7.3,0,8.1-6.2,8.1-6.2l0-0.3l-1.2-0.3L379.2,207.9z"/>
	<path class="st0" d="M332.7,206.3c-1.4,5.2-3.4,6.8-8.2,6.8c-3.5,0-3.7-1-3.7-3v-28.1c0-0.4,0.1-0.6,0.7-0.6h2.5v-1.1h-10.8v1.1
		h2.5c0.4,0,0.6,0.5,0.6,0.6v30.6c0,0.3-0.2,0.5-0.4,0.5h-2.9v1.1h20.2l0.5-8.1l-1.1-0.1L332.7,206.3z"/>
	<path class="st0" d="M310.4,206.3c-1.4,5.2-3.4,6.8-8.2,6.8c-3.5,0-3.7-1-3.7-3v-28.1c0-0.4,0.1-0.6,0.7-0.6h2.5v-1.1h-10.8v1.1
		h2.5c0.4,0,0.6,0.5,0.6,0.6v30.6c0,0.3-0.2,0.5-0.4,0.5h-2.9v1.1H311l0.5-8.1l-1.1-0.1L310.4,206.3z"/>
	<path class="st0" d="M356.1,206.3c-1.3,4.8-4,6.7-9.3,6.8h-0.3c-3.2,0-3.4-0.8-3.4-2.1c0-0.3,0-0.6,0-1c0-0.5,0.1-1,0.1-1.6l0-15.5
		l4.3,0.1l0.1,0c2,0,2.5,0.1,3.3,1c0.5,0.7,0.6,1.5,0.8,2.8l0.1,0.5h1v-9.7h-1.1l0,0.3c-0.1,1.3-0.3,2.2-0.9,2.9
		c-0.7,0.8-1,0.8-2.4,0.8c-0.2,0-0.5,0-0.7,0l-4.4,0.1v-10.4l6.4,0.1c1.6,0.1,3.3,0.2,4,1.1c0.8,1,0.9,1.2,1.1,2.8
		c0,0.3,0.1,0.7,0.2,1.1l0,0.3h1v-6.5h-20.3v1.1h2.5c0.6,0,0.7,0.2,0.7,0.6v30.6c0,0.3-0.2,0.5-0.4,0.5h-2.9v1.1h21.4l0.5-7.9
		l-1.1-0.3L356.1,206.3z"/>
</g>
</svg>
