<svg xmlns="http://www.w3.org/2000/svg" xmlns:xlink="http://www.w3.org/1999/xlink" viewBox="0 0 358.5 81" enable-background="new 0 0 358.5 81"><title>clubMedGreatMembersIntro</title><g id="Calque_2"><g id="grid_12"><defs><path id="SVGID_1_" d="M0 0h358.5v81H0z"/></defs><clipPath id="SVGID_2_"><use xlink:href="#SVGID_1_" overflow="visible"/></clipPath><g class="st0"><path d="M40.8 13.8h12.9v3.5c.1 3.1-1.1 6.1-3.4 8.3-2.3 2-5.5 3-9.9 3-4.1 0-7.2-1.1-9.5-3.2s-3.4-5.1-3.4-9v-4.1c0-1.5.2-3 .7-4.4s1.2-2.7 2.1-3.9c1.1-1.3 2.4-2.3 4-2.9 1.9-.7 4-1.1 6.1-1 3.7 0 6.6.8 8.8 2.3 2.1 1.4 3.5 3.5 4.1 5.9h-6C46.3 5.4 44 4 40.4 4c-2-.1-4 .7-5.3 2.3-1.3 1.8-1.9 4-1.8 6.2v3.2c0 5.9 2.4 8.9 7.3 8.9 4.6 0 7-2.2 7.2-6.7h-7v-4.1zM70 7.4v3.8h-3.7c-2.3 0-3.4 1.1-3.4 3.4v13.5h-5.3V14.8c-.1-2 .6-3.9 2-5.3 1.5-1.4 3.5-2.1 5.6-2l4.8-.1zM76.6 15.9h10.9c0-1.5-.5-2.9-1.6-3.9-1.1-.9-2.5-1.4-3.9-1.3-1.4 0-2.8.5-3.8 1.4-1 1-1.6 2.3-1.6 3.8M89 22.3l3.4 2.9c-2.4 2.2-5.7 3.4-9.8 3.4-3 .2-5.9-.8-8.3-2.6-2.1-1.9-3.3-4.7-3.1-7.5v-1c-.1-2.8.9-5.6 2.9-7.6 2.2-2 5-3 8-2.8 3.5 0 6.2.9 8.1 2.8 1.8 1.9 2.8 4.4 2.8 7.7v1.8H76.6v.2c-.1 1.5.6 2.9 1.7 3.8 1.3.9 2.8 1.4 4.4 1.3 2.3-.1 4.6-.9 6.3-2.4M110.5 23.9V19h-5.3c-1.1-.1-2.2.2-3.2.8-.7.5-1.1 1.2-1.1 2.1s.5 1.8 1.4 2.2c1.3.6 2.7.9 4.1.8 1.4 0 2.9-.3 4.1-1m-11.9 2.7c-1.7-1-2.8-2.7-2.8-4.7 0-1.8.9-3.5 2.3-4.5 1.6-1.2 3.8-1.7 6.8-1.7h5.6V14c0-.9-.3-1.8-1.1-2.3-1.2-.7-2.5-.9-3.8-.8-2-.1-4 .6-5.6 1.9l-3.6-2.7c2.6-2.2 5.9-3.3 9.3-3.1 3.3 0 5.8.6 7.5 1.9s2.6 3.3 2.5 5.4v11.5c0 .4-.3.8-.7 1-2.7 1.2-5.6 1.8-8.6 1.8-3.3-.1-5.9-.7-7.8-2" class="st1"/><path d="M126.7 21.4c-.1.8.2 1.5.7 2.1.6.5 1.4.7 2.2.7h3.8v3.9h-5.3c-4.5 0-6.7-2.3-6.7-6.8V11.2h-3V7.4h3V.5h5.3v6.9h6.7v3.8h-6.7v10.2zM170.9.5h7.7v27.6h-5.4V10.6c0-1.8 0-3.1.1-3.8h-.1l-8.7 21.4h-4L152 7c.1 1.5.2 2.7.2 3.8v17.4h-5V.5h7.6l8.1 20.1 8-20.1zM187.8 15.9h10.9c0-1.5-.5-2.9-1.6-3.9-1.1-.9-2.5-1.4-3.9-1.3-1.4 0-2.8.5-3.8 1.4-1.1 1-1.6 2.3-1.6 3.8m12.4 6.3l3.4 2.9c-2.4 2.2-5.7 3.4-9.8 3.4-3 .2-5.9-.8-8.3-2.6-2.1-1.9-3.3-4.7-3.1-7.5v-1c-.1-2.8.9-5.6 2.9-7.6 2.2-1.9 5-2.9 7.9-2.8 3.5 0 6.2.9 8.1 2.8 1.9 2.1 2.9 4.9 2.7 7.7v1.8h-16.2v.2c-.1 1.5.6 2.9 1.7 3.8 1.3.9 2.8 1.4 4.4 1.3 2.3.1 4.5-.8 6.3-2.4M232.5 7c2.6-.1 5.1.6 7.2 2.2 1.8 1.4 2.7 3.7 2.7 6.8v12.2H237V16c.1-1.4-.4-2.8-1.4-3.9-.9-.8-2.1-1.3-3.4-1.2-1.2 0-2.4.4-3.4 1.1-.9.8-1.4 2-1.4 3.3v12.8H222V15.7c.1-1.4-.4-2.7-1.4-3.6-2-1.6-4.8-1.6-6.9-.1-.9.9-1.4 2.1-1.3 3.4v12.7h-5.3V7.4h4.5l.3 1.6c1.7-1.4 3.9-2.1 6.1-2 3.4 0 5.8 1 7.3 3 1.9-1.9 4.5-3 7.2-3M252 15.4v4c-.1 1.5.4 2.9 1.5 3.9 1.1.9 2.5 1.4 3.9 1.3 1.4.1 2.9-.4 4-1.3 1-1 1.6-2.5 1.4-3.9v-3.3c.1-1.5-.4-2.9-1.4-4-1.2-1-2.7-1.4-4.2-1.3-1.4-.1-2.7.3-3.8 1.2-1 .9-1.5 2.1-1.4 3.4m16.1.6v3.3c0 6.1-3.6 9.2-10.8 9.2-7.2 0-10.8-2.9-10.7-8.9V.5h5.3v7.8c1.8-.9 3.8-1.3 5.8-1.3 3.5 0 6.2.8 7.9 2.4 1.8 1.7 2.7 4.1 2.5 6.6M276.2 15.9h10.9c.1-1.5-.5-2.9-1.6-3.9-1.1-.9-2.5-1.4-3.9-1.3-1.4 0-2.8.5-3.8 1.4-1 1-1.6 2.3-1.6 3.8m12.4 6.3l3.4 2.9c-2.4 2.2-5.7 3.4-9.8 3.4-3 .2-5.9-.8-8.3-2.6-2.1-1.9-3.3-4.7-3.1-7.5v-1c-.1-2.8.9-5.6 2.9-7.6 2.2-2 5-3 7.9-2.8 3.5 0 6.2.9 8.1 2.8s2.8 4.4 2.8 7.7v1.8h-16.3v.2c-.1 1.5.6 2.9 1.7 3.8 1.3.9 2.8 1.4 4.4 1.3 2.3.1 4.6-.8 6.3-2.4" class="st1"/><path d="M307.9 7.4v3.8h-3.8c-2.3 0-3.4 1.1-3.4 3.4v13.5h-5.3V14.8c-.1-2 .6-3.9 2-5.3 1.5-1.4 3.5-2.1 5.6-2l4.9-.1zM322.3 16c4.5.6 6.7 2.6 6.7 5.9 0 2-1 3.9-2.7 4.9-2.2 1.3-4.8 1.9-7.3 1.7-4 0-7.3-1.1-9.7-3.2l3.3-3c1.8 1.6 4.1 2.4 6.5 2.3 3 0 4.5-.8 4.5-2.5 0-1.4-.9-2.2-2.6-2.4l-4.2-.5c-1.8-.2-3.4-.8-4.8-1.9-1.2-1-1.9-2.6-1.9-4.2 0-1.8.9-3.6 2.5-4.5 2-1.2 4.3-1.7 6.7-1.6 3.1-.2 6.2.8 8.6 2.8l-3.2 2.8c-1.5-1.2-3.4-1.8-5.3-1.8-1 0-2 .2-2.8.6-.6.3-1 1-1 1.7 0 1.4.8 2.2 2.5 2.4l4.2.5zM40.8 13.8h12.9v3.5c.1 3.1-1.1 6.1-3.4 8.3-2.3 2-5.5 3-9.9 3-4.1 0-7.2-1.1-9.5-3.2s-3.4-5.1-3.4-9v-4.1c0-1.5.2-3 .7-4.4s1.2-2.7 2.1-3.9c1.1-1.3 2.4-2.3 4-2.9 1.9-.7 4-1.1 6.1-1 3.7 0 6.6.8 8.8 2.3 2.1 1.4 3.5 3.5 4.1 5.9h-6C46.3 5.4 44 4 40.4 4c-2-.1-4 .7-5.3 2.3-1.3 1.8-1.9 4-1.8 6.2v3.2c0 5.9 2.4 8.9 7.3 8.9 4.6 0 7-2.2 7.2-6.7h-7v-4.1zM70 7.4v3.8h-3.7c-2.3 0-3.4 1.1-3.4 3.4v13.5h-5.3V14.8c-.1-2 .6-3.9 2-5.3 1.5-1.4 3.5-2.1 5.6-2l4.8-.1zM76.6 15.9h10.9c0-1.5-.5-2.9-1.6-3.9-1.1-.9-2.5-1.4-3.9-1.3-1.4 0-2.8.5-3.8 1.4-1 1-1.6 2.3-1.6 3.8M89 22.3l3.4 2.9c-2.4 2.2-5.7 3.4-9.8 3.4-3 .2-5.9-.8-8.3-2.6-2.1-1.9-3.3-4.7-3.1-7.5v-1c-.1-2.8.9-5.6 2.9-7.6 2.2-2 5-3 8-2.8 3.5 0 6.2.9 8.1 2.8 1.8 1.9 2.8 4.4 2.8 7.7v1.8H76.6v.2c-.1 1.5.6 2.9 1.7 3.8 1.3.9 2.8 1.4 4.4 1.3 2.3-.1 4.6-.9 6.3-2.4M110.5 23.9V19h-5.3c-1.1-.1-2.2.2-3.2.8-.7.5-1.1 1.2-1.1 2.1s.5 1.8 1.4 2.2c1.3.6 2.7.9 4.1.8 1.4 0 2.9-.3 4.1-1m-11.9 2.7c-1.7-1-2.8-2.7-2.8-4.7 0-1.8.9-3.5 2.3-4.5 1.6-1.2 3.8-1.7 6.8-1.7h5.6V14c0-.9-.3-1.8-1.1-2.3-1.2-.7-2.5-.9-3.8-.8-2-.1-4 .6-5.6 1.9l-3.6-2.7c2.6-2.2 5.9-3.3 9.3-3.1 3.3 0 5.8.6 7.5 1.9s2.6 3.3 2.5 5.4v11.5c0 .4-.3.8-.7 1-2.7 1.2-5.6 1.8-8.6 1.8-3.3-.1-5.9-.7-7.8-2" class="st1"/><path d="M126.7 21.4c-.1.8.2 1.5.7 2.1.6.5 1.4.7 2.2.7h3.8v3.9h-5.3c-4.5 0-6.7-2.3-6.7-6.8V11.2h-3V7.4h3V.5h5.3v6.9h6.7v3.8h-6.7v10.2zM170.9.5h7.7v27.6h-5.4V10.6c0-1.8 0-3.1.1-3.8h-.1l-8.7 21.4h-4L152 7c.1 1.5.2 2.7.2 3.8v17.4h-5V.5h7.6l8.1 20.1 8-20.1zM187.8 15.9h10.9c0-1.5-.5-2.9-1.6-3.9-1.1-.9-2.5-1.4-3.9-1.3-1.4 0-2.8.5-3.8 1.4-1.1 1-1.6 2.3-1.6 3.8m12.4 6.3l3.4 2.9c-2.4 2.2-5.7 3.4-9.8 3.4-3 .2-5.9-.8-8.3-2.6-2.1-1.9-3.3-4.7-3.1-7.5v-1c-.1-2.8.9-5.6 2.9-7.6 2.2-1.9 5-2.9 7.9-2.8 3.5 0 6.2.9 8.1 2.8 1.9 2.1 2.9 4.9 2.7 7.7v1.8h-16.2v.2c-.1 1.5.6 2.9 1.7 3.8 1.3.9 2.8 1.4 4.4 1.3 2.3.1 4.5-.8 6.3-2.4M232.5 7c2.6-.1 5.1.6 7.2 2.2 1.8 1.4 2.7 3.7 2.7 6.8v12.2H237V16c.1-1.4-.4-2.8-1.4-3.9-.9-.8-2.1-1.3-3.4-1.2-1.2 0-2.4.4-3.4 1.1-.9.8-1.4 2-1.4 3.3v12.8H222V15.7c.1-1.4-.4-2.7-1.4-3.6-2-1.6-4.8-1.6-6.9-.1-.9.9-1.4 2.1-1.3 3.4v12.7h-5.3V7.4h4.5l.3 1.6c1.7-1.4 3.9-2.1 6.1-2 3.4 0 5.8 1 7.3 3 1.9-1.9 4.5-3 7.2-3M252 15.4v4c-.1 1.5.4 2.9 1.5 3.9 1.1.9 2.5 1.4 3.9 1.3 1.4.1 2.9-.4 4-1.3 1-1 1.6-2.5 1.4-3.9v-3.3c.1-1.5-.4-2.9-1.4-4-1.2-1-2.7-1.4-4.2-1.3-1.4-.1-2.7.3-3.8 1.2-1 .9-1.5 2.1-1.4 3.4m16.1.6v3.3c0 6.1-3.6 9.2-10.8 9.2-7.2 0-10.8-2.9-10.7-8.9V.5h5.3v7.8c1.8-.9 3.8-1.3 5.8-1.3 3.5 0 6.2.8 7.9 2.4 1.8 1.7 2.7 4.1 2.5 6.6M276.2 15.9h10.9c.1-1.5-.5-2.9-1.6-3.9-1.1-.9-2.5-1.4-3.9-1.3-1.4 0-2.8.5-3.8 1.4-1 1-1.6 2.3-1.6 3.8m12.4 6.3l3.4 2.9c-2.4 2.2-5.7 3.4-9.8 3.4-3 .2-5.9-.8-8.3-2.6-2.1-1.9-3.3-4.7-3.1-7.5v-1c-.1-2.8.9-5.6 2.9-7.6 2.2-2 5-3 7.9-2.8 3.5 0 6.2.9 8.1 2.8s2.8 4.4 2.8 7.7v1.8h-16.3v.2c-.1 1.5.6 2.9 1.7 3.8 1.3.9 2.8 1.4 4.4 1.3 2.3.1 4.6-.8 6.3-2.4" class="st1"/><path d="M307.9 7.4v3.8h-3.8c-2.3 0-3.4 1.1-3.4 3.4v13.5h-5.3V14.8c-.1-2 .6-3.9 2-5.3 1.5-1.4 3.5-2.1 5.6-2l4.9-.1zM322.3 16c4.5.6 6.7 2.6 6.7 5.9 0 2-1 3.9-2.7 4.9-2.2 1.3-4.8 1.9-7.3 1.7-4 0-7.3-1.1-9.7-3.2l3.3-3c1.8 1.6 4.1 2.4 6.5 2.3 3 0 4.5-.8 4.5-2.5 0-1.4-.9-2.2-2.6-2.4l-4.2-.5c-1.8-.2-3.4-.8-4.8-1.9-1.2-1-1.9-2.6-1.9-4.2 0-1.8.9-3.6 2.5-4.5 2-1.2 4.3-1.7 6.7-1.6 3.1-.2 6.2.8 8.6 2.8l-3.2 2.8c-1.5-1.2-3.4-1.8-5.3-1.8-1 0-2 .2-2.8.6-.6.3-1 1-1 1.7 0 1.4.8 2.2 2.5 2.4l4.2.5z" class="st1"/></g><path d="M0 17.7l3-3 2.9-2.9 3 2.9 2.9 3-2.9 3-3 2.9L3 20.7zM346.6 17.7l3-3 2.9-2.9 3 2.9 2.9 3-2.9 3-3 2.9-2.9-2.9z" class="st1"/><defs><path id="SVGID_3_" d="M0 0h358.5v81H0z"/></defs><clipPath id="SVGID_4_"><use xlink:href="#SVGID_3_" overflow="visible"/></clipPath><g class="st2"><path d="M153.9 59.1c-1.1 0-2.2.3-3 .9-.9.7-1.5 1.7-1.5 3.3v3.1c0 1.5.6 2.6 1.5 3.3.9.7 2 .9 3 .9s2.2-.3 3-.9c.9-.7 1.5-1.7 1.5-3.3v-3.1c0-1.6-.6-2.6-1.5-3.3-.8-.6-2-.9-3-.9zM226 59.1c-1.1 0-2.2.3-3 .9-.9.7-1.5 1.7-1.5 3.3v3.1c0 1.5.6 2.6 1.5 3.3.9.7 2 .9 3 .9s2.2-.3 3-.9c.9-.7 1.5-1.7 1.5-3.3v-3.1c-.1-1.6-.7-2.6-1.5-3.3-.9-.6-2-.9-3-.9zM206.2 58.6c-1.2 0-2.3.4-3.1 1.2s-1.3 1.8-1.4 2.9v.2h9.2c0-1.2-.5-2.3-1.2-3.1-.8-.8-1.8-1.3-3.1-1.3-.1 0-.1.1-.2.1s-.2 0-.2 0zM63.5 41v40h228V41h-228zm40.9 29.8c1.2 0 2.4-.4 3.4-1 1-.7 1.8-1.6 2.2-2.8h4.8c-.4 2-1.6 3.7-3.4 4.9-1.8 1.2-4.2 2-7.2 2-3.5 0-6.2-1-8.1-2.7-1.8-1.7-2.8-4.2-2.8-7.2v-3c0-3.2 1-5.7 2.9-7.4s4.6-2.7 8-2.7c3 0 5.4.8 7.2 2.1 1.8 1.3 2.9 3.1 3.4 5.1H110c-.4-1.5-1.1-2.5-2.1-3.2s-2.1-.9-3.5-.9c-2 0-3.5.5-4.5 1.7s-1.5 2.9-1.5 5.4v2.3c0 2.2.4 4.1 1.3 5.3 1 1.4 2.5 2.1 4.7 2.1zm21 3.2h-2.8c-2.2 0-3.8-.6-4.8-1.7s-1.4-2.6-1.4-4.5V51h4v16.6c0 1 .3 1.6.8 1.9s1.3.4 2.3.4h1.8v2l.1 2.1zm17-7.5c0 2.7-.7 4.5-2.1 5.6-1.4 1.2-3.6 1.7-6.4 1.7s-4.9-.5-6.4-1.7c-1.4-1.2-2.1-3-2.1-5.6V56h5v10.4c0 1.5.5 2.6 1.2 3.3.7.7 1.7.9 2.8.9s2.1-.3 2.8-.9c.7-.7 1.2-1.7 1.2-3.3V56h4v10.5zm20-.3c0 2.7-.7 4.6-2.1 5.8-1.4 1.2-3.6 1.8-6.4 1.8s-4.9-.5-6.4-1.7c-1.4-1.2-2.1-3-2.1-5.6V51h4v6c.8-.3 1.6-.6 2.4-.8.8-.2 1.6-.3 2.5-.3 2.9 0 4.9.8 6.2 2.1s1.9 3.2 1.9 5.3v2.9zm33 7.8h-5V60c0-.5.1-1 .1-1.5.1-.5.2-1 .2-1.5h-.2l-3.2 8.5-3.2 8.5H180l-3.2-8.5-3.2-8.5h-.2c.1.5.1 1 .1 1.6 0 .5 0 1 0 1.4v14h-4V51h6.2l3.3 8.7 3.3 8.7 3.4-8.7 3.3-8.6h6.6V74h-.2zm20-8h-14v.4c0 1.4.6 2.5 1.4 3.2s2.1 1 3.5 1c1 0 2-.2 2.9-.4.9-.3 1.8-.7 2.6-1.3l1.4 1.1 1.4 1.1c-1.2 1-2.4 1.7-3.8 2.1-1.4.5-2.9.7-4.4.6-3 0-5.2-.8-6.8-2.2-1.5-1.4-2.2-3.5-2.2-6.2v-.7c0-2.7.8-4.9 2.4-6.4 1.5-1.5 3.8-2.3 6.6-2.3s5.1.8 6.6 2.3 2.4 3.7 2.4 6.4V66zm19 .5c0 2.7-.7 4.5-2.1 5.6-1.4 1.2-3.5 1.7-6.4 1.7s-5-.6-6.4-1.8c-1.4-1.2-2.1-3.1-2.1-5.8v-2.8c0-2.1.6-4 1.9-5.3s3.3-2.1 6.2-2.1c.9 0 1.7.1 2.5.3s1.6.4 2.4.8V51h4v15.5zm18.7 10.3c-.9-.2-1.4-1.8-1.8-4-.4-2.2-.6-5.2-.7-8.2-2.4.1-4.6-1.2-6.2-3.3-1.6-2-2.5-4.8-2.2-7.7-.6.2-1.1.4-1.6.4s-.9-.3-1.2-.9c1.1-1 2.7-2.2 4-3s2.3-1.2 2.2-.6c-.2.8-.5 4.5 0 7.9s1.8 6.5 5 6.2c-.1-3 0-6.1.1-8.4s.1-3.9.1-4.1c-.7.2-1.4.8-2.1 1.1-.7.3-1.5.2-2.1-.8 1.1-1.2 2.5-2.6 3.7-3.7 1.2-1.1 2.4-1.9 3.3-2 .1 0 .2 0 .2 0 .1 0 .1.1.2.2 0 0 0 2.2-.1 5.4s-.1 7.4-.1 11.5c3.1-1.2 4.6-3.8 5.1-6.4.6-2.5.2-5-.3-5.9-.6.2-1.1.5-1.6.6s-1.1-.1-1.8-.9c1.9-1.7 3.2-2.8 4.1-3.3.9-.6 1.4-.7 1.5-.3 0 0 1.1 3.4.8 7.3-.3 3.9-2.1 8.2-7.9 9.9-.1 3.4-.2 6.6-.3 9s-.2 4-.3 4zm5.8-3.9l-1.6-1.6-1.6-1.6 1.6-1.6 1.6-1.6 1.6 1.6 1.6 1.6-1.6 1.6-1.6 1.6z" class="st1"/></g></g></g></svg>
