<svg xmlns="http://www.w3.org/2000/svg" viewBox="0 0 500 130.8"><path d="M31.9 84.6c17.7 0 28.4-9.4 30.9-20.9H48.7c-2.5 8.7-8.1 11.7-16.5 11.7-13.2 0-17.8-9-17.8-22.5V46c0-14.9 6.2-22.5 17.8-22.5 8.3 0 14 5.5 16.5 11.2h14.2C60.4 23.1 49.7 14.2 32 14.2c-20.4 0-32 12.7-32 31.5V55c0 18.2 11.1 29.6 31.9 29.6zm319.2-14.8c-5.6 3.8-9.7 5.2-16.1 5.2-7.9 0-14.1-4.4-14.1-12.7v-1.6h40.5V57c0-16.1-10.7-26.1-27.5-26.1s-27.5 10-27.5 26.1v2.1c0 15.6 9.8 25.3 27.7 25.3 9 0 17.1-1.9 24.8-8.1l-7.8-6.5zM320.6 52c0-8.7 7.3-13.2 13.5-13.2s13.5 4.5 13.5 13.2h-27zm70.1-21.1c-17.2 0-23.5 9.6-23.5 22.3v8.3c0 16.1 9.2 22.8 26 22.8s26-6 26-22V14.5h-14.5v19.8c-2.8-2.3-8.9-3.4-14-3.4zm14.1 22v9.3c0 9.3-6.8 12.7-13 12.7s-13-3.4-13-12.7v-9.3c0-9.3 6.8-12.7 13-12.7s13 3.4 13 12.7zm-199.5.3c0-12.8-7.7-22.3-24.9-22.3-5.1 0-9.8 1.2-15.6 3.3V14.5h-11.6v47.9c0 16.1 9.2 22 26 22s26-6.8 26-22.8v-8.4zm-40.5 9.1V53c0-9.3 8.3-12.7 14.5-12.7 6.2 0 14.5 3.4 14.5 12.7v9.3c0 9.3-8.2 12.7-14.5 12.7-6.2 0-14.5-3.4-14.5-12.7zM120 84.4c16.8 0 24.6-6 24.6-22V31.8H133v30.5c0 9.3-5.3 12.7-11.6 12.7-6.2 0-11.6-3.4-11.6-12.7V31.8H95.4v30.5c0 16.1 7.8 22.1 24.6 22.1zm162.5-69.9l-19.7 52.2L243 14.5h-20.3v69.4h14.5v-41c0-2.6-.2-8.3-.4-11.1h.4l19.3 52h12.3l19.3-52h.4c-.3 2.9.8 8.5.8 11.1v40.9h11.6V14.5h-18.4zM81 66V14.5H66.5v52c0 11 6.3 17.4 19.4 17.4h9.5v-8.7h-6.5C83 75.2 81 72.1 81 66zM496.2 2.8c-.6-2.3-5.7 1-16.7 11 4.4 4.9 6.6 2.1 10.1.8 2.8 5.4 3.9 29.7-14.4 37.1.5-24.5.7-50.8.7-50.8 0-.7-.6-.9-1.1-.8-5.1.7-14 9.7-20.9 17.2 3.8 6.3 8.6.7 12.4-.9 0 1-.9 19.1-.5 37.5-18.9 1.4-15.9-37.5-14.7-42.4.4-4-12.1 4.8-18.4 10.7 2 3.6 4.7 2.9 8.2 1.6-1.2 17.5 10.9 33.3 25 32.9.5 18 2.4 35.5 7.5 36.7.7.2 1.2-18.2 1.7-38.7 34-10.8 21.1-51.9 21.1-51.9zm3.8 69.3l-9.5-9.7-9.5 9.7 9.5 9.7 9.5-9.7zm-352 35.5c-.8-1.1-1.8-1.9-3.1-2.4-1.2-.6-2.5-.8-3.8-.8-1.6 0-3.1.3-4.4.9-1.3.6-2.4 1.4-3.4 2.5-.9 1.1-1.7 2.3-2.2 3.7-.5 1.4-.8 2.9-.8 4.6 0 1.5.2 2.9.7 4.3.5 1.3 1.2 2.5 2.1 3.6.9 1 2 1.8 3.4 2.4 1.3.6 2.8.9 4.5.9 1.6 0 3.1-.3 4.3-1s2.3-1.6 3.2-2.8l3.3 2.5c-.2.3-.6.7-1.1 1.3-.5.6-1.3 1.1-2.1 1.7-.9.6-2 1-3.2 1.5-1.3.4-2.7.6-4.4.6-2.3 0-4.3-.4-6.1-1.3-1.8-.9-3.4-2-4.7-3.4-1.3-1.4-2.3-3-2.9-4.8-.7-1.8-1-3.6-1-5.4 0-2.2.4-4.3 1.1-6.1.7-1.9 1.7-3.5 3.1-4.9 1.3-1.4 2.9-2.4 4.7-3.2 1.8-.8 3.9-1.1 6.1-1.1 1.9 0 3.7.4 5.6 1.1 1.8.7 3.3 1.8 4.5 3.4l-3.4 2.2zm21.7 23.2c-2.2 0-4.2-.4-6-1.2-1.8-.8-3.4-1.8-4.7-3.2-1.3-1.3-2.3-2.9-3.1-4.8-.7-1.8-1.1-3.8-1.1-6s.4-4.1 1.1-6c.7-1.8 1.8-3.4 3.1-4.8s2.9-2.4 4.7-3.2c1.8-.8 3.8-1.2 6-1.2s4.2.4 6 1.2c1.8.8 3.4 1.8 4.7 3.2 1.3 1.3 2.3 2.9 3.1 4.8.7 1.8 1.1 3.8 1.1 6s-.4 4.1-1.1 6c-.7 1.8-1.8 3.4-3.1 4.8-1.3 1.3-2.9 2.4-4.7 3.2-1.8.9-3.8 1.2-6 1.2zm0-3.6c1.6 0 3.1-.3 4.5-.9 1.3-.6 2.5-1.4 3.4-2.4.9-1 1.7-2.2 2.2-3.6.5-1.4.8-2.9.8-4.4 0-1.6-.3-3-.8-4.4-.5-1.4-1.2-2.6-2.2-3.6-.9-1-2.1-1.8-3.4-2.4-1.3-.6-2.8-.9-4.5-.9-1.6 0-3.1.3-4.5.9-1.3.6-2.5 1.4-3.4 2.4-.9 1-1.7 2.2-2.2 3.6-.5 1.4-.8 2.9-.8 4.4 0 1.6.3 3 .8 4.4.5 1.4 1.2 2.6 2.2 3.6.9 1 2.1 1.8 3.4 2.4 1.3.6 2.8.9 4.5.9zm20.5-25.7h3.9v25h13.2v3.6h-17v-28.6zm21 0h3.9v25h13.2v3.6h-17v-28.6zm21 0h18.5v3.6h-14.6v8.5h13.6v3.6h-13.6v9.2h15.3v3.6h-19.2v-28.5zm44.7 6.1c-.8-1.1-1.8-1.9-3.1-2.4-1.2-.6-2.5-.8-3.8-.8-1.6 0-3.1.3-4.4.9-1.3.6-2.4 1.4-3.4 2.5-.9 1.1-1.7 2.3-2.2 3.7-.5 1.4-.8 2.9-.8 4.6 0 1.5.2 2.9.7 4.3.5 1.3 1.2 2.5 2.1 3.6.9 1 2 1.8 3.4 2.4 1.3.6 2.8.9 4.5.9 1.6 0 3.1-.3 4.3-1s2.3-1.6 3.2-2.8l3.3 2.5c-.2.3-.6.7-1.1 1.3-.5.6-1.3 1.1-2.1 1.7-.9.6-2 1-3.2 1.5-1.3.4-2.7.6-4.4.6-2.3 0-4.3-.4-6.1-1.3-1.8-.9-3.4-2-4.7-3.4-1.3-1.4-2.3-3-2.9-4.8-.7-1.8-1-3.6-1-5.4 0-2.2.4-4.3 1.1-6.1.7-1.9 1.7-3.5 3.1-4.9s2.9-2.4 4.7-3.2c1.8-.8 3.9-1.1 6.1-1.1 1.9 0 3.7.4 5.6 1.1 1.8.7 3.3 1.8 4.5 3.4l-3.4 2.2zm14.5-2.5h-9.2v-3.6h22.3v3.6h-9.2v25h-3.9v-25zm17.3-3.6h3.9v28.7h-3.9v-28.7zm7.3 0h4.5l8.4 23.3h.1l8.7-23.3h4.2l-11.3 28.7H327l-11-28.7zm29.4 0h3.9v28.7h-3.9v-28.7zm17.3 3.6h-9.2v-3.6h22.3v3.6h-9.2v25h-3.9v-25zm17.2-3.6h18.5v3.6h-14.6v8.5h13.6v3.6h-13.6v9.2h15.3v3.6h-19.2v-28.5zm10.3-7.5h5.2l-6 5.8H386l4.2-5.8zm15.3 30.1c.7 1.1 1.6 1.8 2.7 2.3 1.1.5 2.2.7 3.4.7.6 0 1.3-.1 2-.3.7-.2 1.3-.5 1.8-.9.6-.4 1-.9 1.4-1.5.3-.6.5-1.3.5-2.1 0-1.1-.4-1.9-1.1-2.5-.7-.6-1.6-1.1-2.6-1.5-1-.4-2.2-.8-3.4-1.1-1.2-.4-2.4-.9-3.4-1.5s-1.9-1.5-2.6-2.6c-.7-1.1-1.1-2.6-1.1-4.4 0-.8.2-1.7.5-2.7.4-.9.9-1.8 1.7-2.6.8-.8 1.8-1.4 3-2 1.2-.5 2.7-.8 4.4-.8 1.6 0 3.1.2 4.5.6 1.4.4 2.7 1.3 3.8 2.6l-3.2 2.9c-.5-.8-1.2-1.4-2.1-1.8-.9-.5-1.9-.7-3-.7s-2 .1-2.7.4c-.7.3-1.3.6-1.7 1.1-.4.4-.7.9-.9 1.4-.2.5-.3 1-.3 1.4 0 1.2.3 2.1 1.1 2.8.7.6 1.6 1.2 2.6 1.6 1 .4 2.2.8 3.4 1.1 1.2.3 2.4.8 3.4 1.4 1 .6 1.9 1.4 2.6 2.3.7 1 1.1 2.3 1.1 4.1 0 1.4-.3 2.6-.8 3.7s-1.2 2-2.1 2.8c-.9.8-1.9 1.3-3.2 1.7-1.2.4-2.5.6-3.9.6-1.8 0-3.6-.3-5.2-1-1.6-.6-3-1.6-3.9-3l3.3-2.5z"/></svg>
