<svg version="1.1"
   xmlns="http://www.w3.org/2000/svg" xmlns:xlink="http://www.w3.org/1999/xlink"
   x="0px" y="0px" viewBox="0 0 499.9 499" style="enable-background:new 0 0 499.9 499;"
   xml:space="preserve">
<defs>
</defs>
<g>
  <polygon points="1.5,356.8 498.4,356.8 498.4,360.8 1.5,360.8 1.5,356.8  "/>
  <polygon points="307.6,438.8 313.6,432.9 307.6,426.9 301.7,432.9  "/>
  <path d="M271.5,402c1.2,2.2,2.9,1.8,5.1,0.9c-0.8,10.8,6.8,20.6,15.6,20.3c0.3,11.1,1.5,21.8,4.7,22.6
    c0.4,0.1,0.8-11.3,1-23.9c21.2-6.6,13.2-31.9,13.2-31.9c-0.4-1.4-3.6,0.6-10.4,6.8c2.7,3,4.1,1.3,6.3,0.5c1.8,3.3,2.5,18.3-9,22.8
    c0.3-15.1,0.4-31.3,0.4-31.3c0-0.4-0.4-0.5-0.7-0.5c-3.1,0.4-8.7,6-13,10.6c2.4,3.9,5.4,0.4,7.8-0.6c0,0.6-0.6,11.8-0.3,23.1
    c-11.8,0.9-9.9-23.1-9.2-26.2C283.3,393,275.5,398.4,271.5,402z"/>
  <path d="M43.6,397.5v31.9c0,6.8,3.3,10.6,11.5,10.6h5.2v-6.1H57c-3.7,0-5.1-1-5.1-4.8v-31.6H43.6z"/>
  <path d="M181.3,440h8.3v-42h-11.8l-12.3,32.2L153.2,398h-12v42h8.3v-25.1c0-1.6-0.1-4.4-0.2-6.1h0.3l12,31.2h7.7
    l12-31.2h0.2c-0.2,1.8-0.2,4.5-0.2,6.1V440z"/>
  <path d="M60.9,407.9v18.9c0,9.9,5.2,13.6,15.7,13.6s15.7-3.7,15.7-13.6v-18.9H84v18.9c0,5.7-3.5,7.8-7.4,7.8
    s-7.4-2.1-7.4-7.8v-18.9H60.9z"/>
  <path d="M96.9,397.5v29.3c0,9.9,6,13.6,16.5,13.6s16.5-4.2,16.5-14.1v-5.1c0-7.9-4.5-13.8-15.2-13.8
    c-3.2,0-6.6,0.7-9.4,2.1v-12H96.9z M113.6,413.2c3.9,0,8.4,2.1,8.4,7.8v5.8c0,5.7-4.5,7.8-8.4,7.8s-8.4-2.1-8.4-7.8V421
    C105.2,415.3,109.7,413.2,113.6,413.2z"/>
  <path d="M262.9,426.8v-29.3h-8.3v12c-2.8-1.3-6.2-2.1-9.4-2.1c-10.7,0-15.2,5.9-15.2,13.8v5.1c0,9.9,6,14.1,16.5,14.1
    S262.9,436.8,262.9,426.8z M237.8,426.8V421c0-5.7,4.5-7.8,8.4-7.8s8.4,2.1,8.4,7.8v5.8c0,5.7-4.5,7.8-8.4,7.8
    C242.3,434.7,237.8,432.6,237.8,426.8z"/>
  <path d="M226.5,426.1v-2.6c0-9.9-6-16.1-16.5-16.1s-16.5,6.1-16.5,16.1v1.3c0,9.6,5.7,15.6,16.9,15.6
    c5.6,0,10.5-1.2,15.3-5l-5.1-4c-3.5,2.3-6.1,3.2-10.1,3.2c-4.9,0-8.9-2.7-8.9-7.8v-0.7H226.5z M210,413c3.9,0,8.4,2.3,8.4,8.1
    h-16.8C201.6,415.3,206.1,413,210,413z"/>
  <path d="M21.5,403.3c5.2,0,8.9,2.3,10.4,7.3h8.9c-1.6-7.5-8.3-13-19.3-13c-12.7,0-19.9,7.5-19.9,19.1v5.7
    c0,11.2,6.9,18.1,19.9,18.1c11.1,0,17.8-5.5,19.3-13h-8.9c-1.5,5-5.2,7.3-10.4,7.3c-8.2,0-11.2-5.4-11.2-13.8v-4.2
    C10.2,407.5,14.3,403.3,21.5,403.3z"/>
  <path d="M166,496.8v-35.1c0-0.5,0.1-0.7,0.8-0.7h2.9v-1.3h-12.5v1.3h2.9c0.7,0,0.8,0.2,0.8,0.7v35.1
    c0,0.3-0.2,0.6-0.5,0.6h-3.3v1.3h12.6v-1.3h-3.3C166.2,497.4,166,497.1,166,496.8z"/>
  <path d="M263.8,491.3c0,0.2-0.6,6-8,6c-9.2,0-10.2-13.9-10.2-19.9c0-6.1,2.1-16.4,9.7-16.5h0.1c4.9,0,5.5,2.5,5.5,5
    c0,0.3-0.2,0.7-0.4,1.1c-0.2,0.4-0.4,0.8-0.4,1.3c0,1.2,1.2,2,2.2,2c1.2,0,2.4-0.9,2.4-2.8c0-3-2.6-7.8-9.4-7.8h-0.1
    c-4.1,0-7.6,1.4-10.3,4.1c-3.2,3.3-5.2,8.4-5.1,13.8c0.1,10.2,4.3,21.1,16,21.1c8.4,0,9.3-7.1,9.3-7.1v-0.3l-1.3-0.4L263.8,491.3z"
    />
  <path d="M190.9,460.9h2.1c1,0,1.6,0.7,1.6,1.8c0,0.2,0,0.5-0.1,0.9l-5.6,24.2l-7.4-26c0-0.1,0-0.2,0-0.4
    c0-0.3,0.2-0.5,0.7-0.5h2v-1.3h-11.5v1.3h1.9c0.7,0,1.1,0.6,1.3,1.1c0.7,2.2,10.4,36.1,10.5,36.4l0.1,0.3h1.4l0.1-0.3
    c1-4.2,6.1-25.7,7.8-32.7l0.6-2.5c0.3-1.1,1-2.4,2.4-2.4h1.3v-1.3h-9v1.4H190.9z"/>
  <path d="M146.3,474.2c-2.8-0.5-7.4-2.1-7.5-6.4v-0.3c0-3.8,2.8-6.5,6.6-6.5c6.4,0,6.5,6.3,6.5,6.6v0.4l1.6-0.1v-7.5
    l-0.3-0.1c0,0-3.6-0.8-6.9-0.8H146c-6.8,0.1-11.4,4.2-11.4,10.3c0,4.8,3.3,8.1,9.2,9.1c4.7,0.8,7.8,4.2,7.8,8.5
    c0,4.8-2.2,10-8.3,10.1c-7.7,0-8-7.7-8-8v-0.3l-1.6-0.1v9.1l0.3,0.1c0,0,4.2,0.7,8.3,0.7h0.2c8.5,0,13.9-5.2,13.9-13.2
    C156.2,479.6,152.6,475.5,146.3,474.2z"/>
  <path d="M226.2,489.6c-1.5,5.5-4.6,7.7-10.7,7.8h-0.4c-3.7,0-3.9-0.9-3.9-2.4c0-0.3,0-0.7,0-1.1c0-0.5,0.1-1.1,0.1-1.8
    l-0.1-17.8l5,0.2h0.1c2.3,0.1,2.9,0.1,3.7,1.2c0.6,0.8,0.7,1.8,0.9,3.2l0.1,0.6h1.2v-11.2H221v0.3c-0.2,1.5-0.3,2.5-1.1,3.4
    s-1.1,0.9-2.8,0.9c-0.3,0-0.5,0-0.8,0l-5,0.1v-12l7.3,0.2c1.8,0.1,3.8,0.2,4.6,1.2c0.9,1.1,1,1.4,1.2,3.2c0,0.4,0.1,0.8,0.2,1.3
    v0.3h1.2v-7.5h-23.3v1.3h2.9c0.7,0,0.8,0.2,0.8,0.7v35.1c0,0.3-0.2,0.6-0.5,0.6h-3.3v1.3H227l0.5-9.1l-1.2-0.3L226.2,489.6z"/>
  <path d="M25.4,489.3l-0.1,0.3c-1.5,5.5-4.6,7.7-10.7,7.8h-0.4c-3.7,0-3.9-0.9-3.9-2.4c0-0.3,0-0.7,0-1.1
    c0-0.5,0.1-1.1,0.1-1.8l-0.1-17.8l5,0.2h0.1c2.3,0.1,2.9,0.1,3.7,1.2c0.6,0.8,0.7,1.8,0.9,3.2l0.1,0.6h1.2v-11.2h-1.2v0.3
    c-0.2,1.5-0.3,2.5-1.1,3.4c-0.8,0.9-1.1,0.9-2.8,0.9c-0.3,0-0.5,0-0.8,0l-5,0.1v-12l7.3,0.2c1.8,0.1,3.8,0.2,4.6,1.2
    c0.9,1.1,1,1.4,1.2,3.2c0,0.4,0.1,0.8,0.2,1.3v0.3h1.2v-7.5H1.6v1.3h2.9c0.7,0,0.8,0.2,0.8,0.7v35.1c0,0.3-0.2,0.6-0.5,0.6H1.5v1.3
    H26l2.2-9.2L25.4,489.3z"/>
  <path d="M54,496.5c-1-2-8.4-17.9-9.2-19.6c0.6-1.4,5.3-12.4,6.3-14.3c0.5-0.8,1-1.6,2.3-1.6h1.9v-1.3h-9.2v1.3h2.1
    c0.4,0,1.1,0.2,1.1,1.1c0,0.1,0,0.5-0.2,0.9l-5.2,12.5l-6.8-13.8v-0.1c0-0.1,0-0.1,0-0.1c0-0.3,0.4-0.4,0.8-0.4h2v-1.3H28.1v1.3
    h2.2c0.7,0,0.9,0.2,1.3,0.8c1,1.9,7.4,15.3,8.1,16.8c-0.7,1.6-6.5,15.1-7.6,17.1c-0.5,0.8-1,1.6-2.3,1.6H28v1.3h9.2v-1.3h-2.1
    c-0.4,0-1.1-0.2-1.1-1.1c0-0.1,0-0.5,0.2-0.9l6.4-15.2c1.5,3.1,7.2,15.2,7.9,16.6v0.1c0,0.1,0,0.1,0,0.1c0,0.3-0.4,0.4-0.8,0.4h-2
    v1.3h11.8v-1.3h-2.2C54.7,497.4,54.4,497.2,54,496.5z"/>
  <path d="M103.4,489.5c-1.6,6-3.9,7.9-9.4,7.9c-4,0-4.2-1.2-4.2-3.4v-32.3c0-0.5,0.1-0.7,0.8-0.7h2.9v-1.3H81.1v1.3H84
    c0.5,0,0.7,0.5,0.7,0.7v35.1c0,0.3-0.2,0.6-0.5,0.6H81v1.3h23.2l0.6-9.3l-1.3-0.1L103.4,489.5z"/>
  <path d="M123,460.9h2.4c0.6,0,1.3,0.4,1.3,1.3v26.7c0,5-2.5,7.7-7.2,7.7c-3.8,0-6.6-3.3-6.6-7.7l-0.1-27.3
    c0-0.5,0.1-0.7,0.8-0.7h2.9v-1.3H104v1.3h2.9c0.7,0,0.8,0.2,0.8,0.7v28.1c0,5.3,4.3,9.1,10.5,9.1c6.3,0,10.2-3.5,10.2-9.1l0.1-27.5
    c0-0.6,0.2-1.3,1-1.3h2.7v-1.3H123V460.9z"/>
  <path d="M79,491.3c0,0.2-0.6,6-8,6c-9.2,0-10.2-13.9-10.2-19.9c0-6.1,2.1-16.4,9.7-16.5h0.1c4.9,0,5.5,2.5,5.5,5
    c0,0.3-0.2,0.7-0.4,1.1c-0.2,0.4-0.4,0.8-0.4,1.3c0,1.2,1.2,2,2.2,2c1.2,0,2.4-0.9,2.4-2.8c0-3-2.6-7.8-9.4-7.8h-0.1
    c-4.1,0-7.6,1.4-10.3,4.1c-3.2,3.3-5.2,8.4-5.1,13.8c0.1,10.2,4.3,21.1,16,21.1c8.4,0,9.3-7.1,9.3-7.1v-0.3l-1.3-0.4V491.3z"/>
  <path d="M401.6,467.2h1.2v-0.3c0.4-2.8,0.6-3,1.7-4.2l0.1-0.2c0.8-1,1.7-1.3,3.4-1.3h3.4v35.7c0,0.3-0.2,0.6-0.5,0.6
    h-3.3v1.3h12.6v-1.3H417c-0.1-0.1-0.3-0.5-0.4-0.8v-35.5h3.5c1.7,0,2.6,0.3,3.4,1.4l0.1,0.2c1.1,1.2,1.2,1.5,1.7,4.2v0.3h1.2v-7.5
    h-24.9L401.6,467.2L401.6,467.2z"/>
  <path d="M281.3,459.6c-9.2,0-15.3,7.9-15.3,19.8c0,11.3,6.4,19.5,15.3,19.5c8.7,0,14.7-8,14.7-19.5
    C296,467.3,290.2,459.6,281.3,459.6z M281.3,497.5c-8-0.1-9.6-9.9-9.6-18.2c0-11.1,1.6-18.5,9.6-18.5c8.4,0,9,8,9,18.5
    C290.3,490.6,288.8,497.5,281.3,497.5z"/>
  <path d="M456.7,459.6c-9.2,0-15.3,7.9-15.3,19.8c0,11.3,6.4,19.5,15.3,19.5c8.7,0,14.7-8,14.7-19.5
    C471.4,467.3,465.7,459.6,456.7,459.6z M456.7,497.5c-8-0.1-9.6-9.9-9.6-18.2c0-11.1,1.6-18.5,9.6-18.5c8.4,0,9,8,9,18.5
    C465.8,490.6,464.3,497.5,456.7,497.5z"/>
  <path d="M490.9,460.9h2.5c1.2,0,1.3,1.9,1.3,2.5l-0.1,22.2c-1.6-4.1-5.3-11.7-6.5-14l-0.2-0.3
    c-1.6-3-5.4-10.1-6.9-11.5l-0.1-0.1h-1.1c-0.7,0-1.7,0-2.8,0c-1.4,0-3.1,0-4.8,0h-0.4v1.3h2.9c0.6,0,1,0.5,1,1
    c0,1.8-0.2,32.6-0.2,32.9c0,1.6-0.5,2.5-1.3,2.5h-2.4v1.3h9.1v-1.3h-2.5c-1.2,0-1.3-1.9-1.3-2.5l-0.2-32c1.8,2.3,5.5,9,6.9,11.8
    c0.4,0.8,10,19.7,10.6,23.9v0.3h0.3c0.2,0,0.9-0.1,1-0.1h0.3v-0.3c0-1.8,0.2-34.6,0.2-35c0-1.6,0.5-2.5,1.3-2.5h2.4v-1.3h-9.1v1.2
    H490.9z"/>
  <path d="M437.4,496.8v-35.1c0-0.5,0.1-0.7,0.8-0.7h2.9v-1.3h-12.5v1.3h2.9c0.7,0,0.8,0.2,0.8,0.7v35.1
    c0,0.3-0.2,0.6-0.5,0.6h-3.3v1.3h12.6v-1.3h-3.3C437.6,497.4,437.4,497.1,437.4,496.8z"/>
  <path d="M397.8,491.3c0,0.2-0.6,6-8,6c-9.2,0-10.2-13.9-10.2-19.9c0-6.1,2.1-16.4,9.7-16.5h0.1c4.9,0,5.5,2.5,5.5,5
    c0,0.3-0.2,0.7-0.4,1.1c-0.2,0.4-0.4,0.8-0.4,1.3c0,1.2,1.2,2,2.2,2c1.2,0,2.4-0.9,2.4-2.8c0-3-2.6-7.8-9.4-7.8h-0.1
    c-4.1,0-7.6,1.4-10.3,4.1c-3.2,3.3-5.2,8.4-5.1,13.8c0.1,10.2,4.3,21.1,16,21.1c8.4,0,9.3-7.1,9.3-7.1v-0.3l-1.3-0.4L397.8,491.3z"
    />
  <path d="M344.4,489.5c-1.6,6-3.9,7.9-9.4,7.9c-4,0-4.2-1.2-4.2-3.4v-32.3c0-0.5,0.1-0.7,0.8-0.7h2.9v-1.3H322v1.3h2.9
    c0.5,0,0.7,0.5,0.7,0.7v35.1c0,0.3-0.2,0.6-0.5,0.6h-3.3v1.3H345l0.6-9.3l-1.3-0.1L344.4,489.5z"/>
  <path d="M318.7,489.5c-1.6,6-3.9,7.9-9.4,7.9c-4,0-4.2-1.2-4.2-3.4v-32.3c0-0.5,0.1-0.7,0.8-0.7h2.9v-1.3h-12.4v1.3
    h2.9c0.5,0,0.7,0.5,0.7,0.7v35.1c0,0.3-0.2,0.6-0.5,0.6h-3.3v1.3h23.2l0.6-9.3l-1.3-0.1L318.7,489.5z"/>
  <path d="M371.3,489.6c-1.5,5.5-4.6,7.7-10.7,7.8h-0.4c-3.7,0-3.9-0.9-3.9-2.4c0-0.3,0-0.7,0-1.1c0-0.5,0.1-1.1,0.1-1.8
    l-0.1-17.8l5,0.2h0.1c2.3,0.1,2.9,0.1,3.7,1.2c0.6,0.8,0.7,1.8,0.9,3.3l0.1,0.6h1.2v-11.2h-1.2v0.3c-0.2,1.5-0.3,2.5-1.1,3.4
    c-0.8,0.9-1.1,0.9-2.8,0.9c-0.3,0-0.5,0-0.8,0l-5,0.1V461l7.3,0.2c1.8,0.1,3.8,0.2,4.6,1.2c0.9,1.1,1,1.4,1.2,3.2
    c0,0.4,0.1,0.8,0.2,1.3v0.3h1.2v-7.5h-23.3v1.3h2.9c0.7,0,0.8,0.2,0.8,0.7v35.1c0,0.3-0.2,0.6-0.5,0.6h-3.3v1.3h24.6l0.5-9.1
    l-1.2-0.3L371.3,489.6z"/>
  <path d="M117.6,204.5l0.1-0.1c2.2-2.4,4.7-6.1,7.6-10.3c9.4-13.7,23.7-34.5,47.2-43.8c17.9-7.1,17.2-12.1,17.2-12.3
    l-0.1-0.4l-0.4,0.1c-0.9,0.2-89.8,23-118.5,29.1c0,0-0.1,0-0.4,0c-0.9,0-3.7-0.1-4.5-1.5c-0.4-0.7-0.3-1.7,0.3-2.9l0.5-0.9
    l-0.9,0.4c-0.4,0.2-38.2,15.6-62.1,27.6l-0.2,0.1l0.3,15h113.9V204.5z"/>
  <path d="M69.7,160.4c0.5,0.8,1.5,1.3,2.9,1.3l0,0c0.8,0,1.7-0.1,2.8-0.4c8.7-2,57.3-14.2,57.8-14.3v-0.7
    c-0.3,0-28.3-4.4-53.3-4.4l0,0l-13.6,1l-0.1,0.1c0,0-27.6,18.6-36.1,24.3l-0.2,0.1l0.4,5.7l0.5-0.2c0.3-0.2,32.9-15.5,39.3-16.6
    C69.6,157.2,68.9,159.1,69.7,160.4z"/>
  <path d="M37.7,155.5c1.9,0,3.4,0.5,4.4,1.4l0.2,0.2l11-7.8l-0.6-8c2.1-1.1,4.4-1.6,6.8-1.6c3.5,0,6,1.2,6,1.2l0.6,0.3
    L65,130.4c8.2-2.8,15.7-2.8,21.2-0.1c6.8,4.5,5.8,8.1,5.7,8.2l-0.1,0.4l2.8,0.2l-0.1-0.5c0-0.1-1.6-7.1-3.8-17.5
    c4.7-1.5,11.8-3.3,19.3-3.3c7.2,0,13.5,1.6,18.7,4.8l6.8,21.9l2-1L95,0l-0.7,0.1c-0.1,0.5-6.9,48.7-10.7,86.4
    c-4.3-22.1-7.3-39.5-8.8-51.7h-0.7c-0.1,0.2-7,32.8-12.1,66l-4-40.5h-0.7c-1.8,12.7-4.7,33.4-6.9,51L48,79.7h-0.7l-5.8,35.4
    l-0.7-22.3L40,92.5c-0.1,0.5-11.3,53.8-12.4,65.2l-0.1,0.6l0.6-0.3C28.2,158,33.3,155.5,37.7,155.5z"/>
  <path d="M24.9,311.2c7,0,12.7-1.5,17-4.6c4.3-3,6.8-7.2,7.6-12.5l0.1-0.4h-12l-0.1,0.3c-0.6,2.9-2.1,5.2-4.2,6.7
    c-2.2,1.5-4.9,2.3-8.2,2.3c-4.8,0-8.3-1.4-10.4-4c-2.1-2.7-3.2-6.7-3.2-11.9v-5.9c0-5.3,1.2-9.5,3.5-12.3s5.7-4.3,10.2-4.3
    c6.8,0,10.9,2.9,12.4,9l0.1,0.3h12.1l-0.1-0.4c-0.8-5.1-3.4-9.3-7.7-12.3c-4.2-3-9.9-4.6-17-4.6c-7.9,0-14.1,2.2-18.4,6.5
    C2.2,267.4,0,273.4,0,280.9v7.1c0,7.2,2.2,12.9,6.4,17C10.6,309.2,16.9,311.2,24.9,311.2z"/>
  <path d="M52.4,257.5v40.2c0,4.3,1.1,7.5,3.2,9.5c2.1,2,5.4,3,9.7,3H73v-8.1h-5.6c-1.5,0-2.6-0.3-3.3-0.9
    c-0.7-0.6-1-1.6-1-3.2v-40.6H52.4V257.5z"/>
  <path d="M75,270.6v23.2c0,11.5,6.5,17.3,19.3,17.3s19.3-5.8,19.3-17.3v-23.2h-10.7v23.8c0,5.9-2.8,8.7-8.6,8.7
    c-5.8,0-8.6-2.9-8.6-8.7v-23.8H75z"/>
  <path d="M118,257.5V294c0,11.3,6.9,17,20.4,17c13.7,0,20.7-5.9,20.7-17.7V287c0-5.4-1.6-9.6-4.9-12.7
    c-3.2-3.1-8.3-4.6-15-4.6c-4,0-7.5,0.7-10.5,2.2v-14.4H118z M131.2,279.9c1.7-1.5,4-2.2,7-2.2c3.5,0,6,0.8,7.7,2.3
    c1.6,1.6,2.5,4,2.5,7.3v6.4c0,3.2-0.9,5.6-2.6,7.1c-1.7,1.6-4.2,2.4-7.3,2.4c-2.9,0-5.3-0.8-7.1-2.4s-2.7-4-2.7-7.1v-7.6
    C128.7,283.4,129.6,281.4,131.2,279.9z"/>
  <path d="M188.5,257.5h-14.9v52.8h10.2v-33c0-1.4-0.1-3-0.2-4.9l15.2,37.7l0.1,0.2h7.9l15.8-38.9
    c-0.1,1.4-0.1,3.2-0.1,5.5v33.4h10.9v-52.8h-15l-14.8,37.3l-15-37L188.5,257.5z"/>
  <path d="M243.2,306c4,3.3,9.3,5.1,15.9,5.1c7.7,0,14-2.2,18.6-6.5l0.3-0.3l-6.9-5.9l-0.2,0.2
    c-3.3,2.9-7.2,4.3-11.6,4.3c-3.3,0-6-0.8-8-2.4s-3.1-3.9-3.1-6.9h30.6v-3.8c0-6.3-1.8-11.3-5.3-14.8s-8.7-5.3-15.5-5.3
    c-6.4,0-11.5,1.8-15.2,5.4s-5.6,8.5-5.6,14.5v1.9C237.2,297.8,239.2,302.7,243.2,306z M251,280.1c1.9-1.7,4.2-2.6,6.9-2.6
    c2.9,0,5.3,0.8,7.1,2.4c1.7,1.5,2.7,3.8,2.8,6.6h-19.7C248.2,283.9,249.2,281.7,251,280.1z"/>
  <path d="M302.2,311.1c13.6,0,20.4-5.7,20.4-17v-36.5H312V272c-3-1.5-6.5-2.2-10.5-2.2c-6.7,0-11.8,1.6-15,4.6
    c-3.2,3.1-4.9,7.4-4.9,12.7v6.3C281.6,305.1,288.5,311.1,302.2,311.1z M292.3,287.3c0-3.3,0.8-5.8,2.4-7.3c1.6-1.6,4.2-2.3,7.7-2.3
    c3,0,5.3,0.8,7,2.2c1.7,1.5,2.5,3.6,2.5,6.2v7.6c0,3.2-0.9,5.6-2.7,7.1c-1.8,1.6-4.2,2.4-7.1,2.4c-3.1,0-5.6-0.8-7.3-2.4
    c-1.7-1.6-2.6-4-2.6-7.1v-6.4H292.3z"/>
  <path d="M347.9,273.6c0.2-2.7,1.1-4.9,2.8-6.5c1.6-1.6,3.8-2.4,6.6-2.4c2.9,0,5,0.7,6.4,2c1.3,1.3,2,3,2,5.1
    c0,2.9-2.5,6.7-7.5,11.2l-20.6,19l-0.1,0.1v8.2h39.2v-8.9H352l13.9-13c3.6-3.3,6.3-6.3,8.1-8.8c1.8-2.6,2.7-5.2,2.7-8
    c0-4.5-1.7-8.2-4.9-10.9c-3.3-2.7-8.2-4.1-14.7-4.1c-6.1,0-11,1.6-14.5,4.6c-3.6,3.1-5.6,7.2-5.8,12.3v0.4h11L347.9,273.6z"/>
</g>
</svg>
