<?xml version="1.0" encoding="UTF-8"?>
<svg viewBox="0 0 40 40" version="1.1" xmlns="http://www.w3.org/2000/svg" xmlns:xlink="http://www.w3.org/1999/xlink">
    <!-- Generator: Sketch 53.2 (72643) - https://sketchapp.com -->
    <title>Combined Shape</title>
    <desc>Created with Sketch.</desc>
    <g id="Icons---Kids" stroke="none" stroke-width="1" fill="none" fill-rule="evenodd">
        <g id="Icons/Kids_icons_board" transform="translate(-27.000000, -353.000000)" fill="#005589" fill-rule="nonzero">
            <g id="Combined-Shape-2" transform="translate(27.000000, 353.000000)">
                <path d="M28.0089092,39.6330275 C27.9708157,39.635467 27.9324053,39.6367444 27.8937133,39.6368246 L6.36281273,39.6814739 L1.31409996,38.1871214 C0.534730161,37.9564382 -5.74952929e-14,37.2405033 -5.55396707e-14,36.4277106 L-5.68434189e-14,1.83486239 C-5.68434189e-14,0.821495872 0.821495872,7.10542736e-14 1.83486239,7.10542736e-14 L27.8899083,7.10542736e-14 C28.9032748,7.10542736e-14 29.7247706,0.821495872 29.7247706,1.83486239 L29.7247706,23.7600478 C30.0842565,23.8401512 30.4320951,23.9991882 30.742039,24.2404303 C30.9098363,24.3710339 31.0607686,24.5219662 31.1913722,24.6897635 L38.6727133,34.3016664 C39.793083,35.7410988 39.5344316,37.8162284 38.0949992,38.9365981 C37.5151025,39.3879557 36.80124,39.6330275 36.0663904,39.6330275 L28.0089092,39.6330275 Z M19.5297543,38.1862762 C19.1697454,37.6573155 18.9593216,37.0183689 18.9593216,36.3302752 C18.9593216,35.5954256 19.2043934,34.8815632 19.655751,34.3016664 L27.1370921,24.6897635 C27.4385529,24.3024517 27.8288883,24.0250538 28.2568807,23.8639538 L28.2568807,1.83486239 C28.2568807,1.63218908 28.0925816,1.46788991 27.8899083,1.46788991 L8.0733945,1.46788991 L8.0733945,38.2100335 L19.5297543,38.1862762 Z M28.2568807,25.6409307 L20.8141167,35.2032703 C20.5633625,35.5254352 20.4272115,35.9220254 20.4272115,36.3302752 C20.4272115,37.3436417 21.2487074,38.1651376 22.2620739,38.1651376 L36.0663904,38.1651376 C36.4746402,38.1651376 36.8712305,38.0289866 37.1933953,37.7782324 C37.99308,37.1558048 38.1367752,36.002955 37.5143476,35.2032703 L30.0330065,25.5913674 C29.9770335,25.5194543 29.9123482,25.454769 29.8404351,25.3987961 C29.8030812,25.369722 29.764443,25.3434339 29.7247706,25.3199006 L29.7247706,26.503631 C29.2346504,26.4647199 28.7424843,26.4775317 28.2568807,26.5409935 L28.2568807,25.6409307 Z M6.60550459,1.46788991 L1.83486239,1.46788991 C1.63218908,1.46788991 1.46788991,1.63218908 1.46788991,1.83486239 L1.46788991,36.4277106 C1.46788991,36.5902691 1.57483594,36.7334561 1.7307099,36.7795928 L6.5740002,38.2131429 L6.60550459,38.2130775 L6.60550459,1.46788991 Z" id="Combined-Shape"></path>
            </g>
        </g>
    </g>
</svg>
