<svg id="Calque_1" data-name="Calque 1" xmlns="http://www.w3.org/2000/svg" viewBox="0 0 24 24"><defs></defs><title>Machine à café</title><path class="cls-1" d="M22.23,9.63H19.58V8.45h.47a1.37,1.37,0,0,0,1.37-1.38V6A5.38,5.38,0,0,0,16.05.58H5.91A5.38,5.38,0,0,0,.53,6V7.07A1.38,1.38,0,0,0,1.91,8.45H2.2v12H1.91A1.37,1.37,0,0,0,.53,21.82V22a1.38,1.38,0,0,0,1.38,1.37H20.05A1.37,1.37,0,0,0,21.42,22v-.22a1.37,1.37,0,0,0-1.37-1.37h-.47V12.59h2.65a1.37,1.37,0,0,0,1.37-1.37V11A1.37,1.37,0,0,0,22.23,9.63Zm-3.4,0h-1.4a1.37,1.37,0,0,0-1.36,1.21H14.5V8.45h4.33ZM8.2,8.45h5.55v3.33a.63.63,0,0,1-.63.62H8.83a.63.63,0,0,1-.63-.62ZM1.28,7.07V6A4.63,4.63,0,0,1,5.91,1.33H16.05A4.62,4.62,0,0,1,20.67,6V7.07a.63.63,0,0,1-.62.63H1.91A.63.63,0,0,1,1.28,7.07ZM20.67,21.82V22a.62.62,0,0,1-.62.62H1.91A.63.63,0,0,1,1.28,22v-.22a.63.63,0,0,1,.63-.62H20.05A.62.62,0,0,1,20.67,21.82ZM7.05,18.18H6.3a.78.78,0,0,1-.78-.78v-.17a.78.78,0,0,1,.78-.78H7v1.3A3.13,3.13,0,0,0,7.05,18.18Zm.77.1a2.33,2.33,0,0,1-.06-.53V15.09h6.16v2.66a2.56,2.56,0,0,1-2.56,2.56h-1a2.56,2.56,0,0,1-2.41-1.69.14.14,0,0,0,0-.07A.4.4,0,0,0,7.82,18.28Zm11,2.17H13.27a3.32,3.32,0,0,0,1.4-2.7v-3a.38.38,0,0,0-.37-.37H7.38a.38.38,0,0,0-.37.37v1H6.3a1.54,1.54,0,0,0-1.53,1.53v.17A1.54,1.54,0,0,0,6.3,18.93h.94a3.32,3.32,0,0,0,1.17,1.52H3v-12h4.5v3.33a1.37,1.37,0,0,0,1.38,1.37h4.29a1.37,1.37,0,0,0,1.38-1.37v-.19h1.61a1.37,1.37,0,0,0,1.32,1h1.4Zm4-9.23a.62.62,0,0,1-.62.62h-4.8a.63.63,0,0,1-.63-.62V11a.63.63,0,0,1,.63-.62h4.8a.62.62,0,0,1,.62.62Z"/><path class="cls-1" d="M6.49,5.78a1.3,1.3,0,1,0-1.3-1.3A1.3,1.3,0,0,0,6.49,5.78Zm0-1.85A.55.55,0,0,1,7,4.48.55.55,0,0,1,6.49,5a.54.54,0,0,1-.55-.55A.55.55,0,0,1,6.49,3.93Z"/><path class="cls-1" d="M10.89,5.78a1.3,1.3,0,1,0-1.3-1.3A1.3,1.3,0,0,0,10.89,5.78Zm0-1.85a.55.55,0,0,1,.55.55.54.54,0,0,1-.55.55.55.55,0,0,1-.55-.55A.55.55,0,0,1,10.89,3.93Z"/><path class="cls-1" d="M15.3,5.78A1.3,1.3,0,1,0,14,4.48,1.3,1.3,0,0,0,15.3,5.78Zm0-1.85a.55.55,0,0,1,.55.55.55.55,0,1,1-1.1,0A.55.55,0,0,1,15.3,3.93Z"/></svg>
