<svg xmlns="http://www.w3.org/2000/svg" viewBox="0 0 500 500.3"><path d="M499.7 250.1h.3l-108-20.6c6.3-5.7 12.5-12.8 18-21.5 28-44.3 54.3-40 71.3-38.7 0 0-42-26.4-87.3 8.9-13.4 10.5-26 15.7-37.1 17.8 9.4-11.5 18.6-27.8 21.8-50.1 7.4-51.9 33.1-58.8 49.1-64.5 0 0-49.1-6.8-75.9 44-9.6 18.2-21.3 28.9-32.3 35.2l33-138.6-77.3 110.3L249.9 0l-20.6 108.1c-4.9-5.6-14.6-13.7-21.5-18.1-44.3-28.1-40-54.3-38.7-71.3 0 0-26.3 42.6 8.9 87.3 7.8 9.9 15.6 24.5 17.8 37.1-11.5-9.4-27.8-18.5-50-21.7C93.9 114 87 88.3 81.2 72.3c0 0-6.9 49.1 44 75.9 18.2 9.6 28.9 21.3 35.2 32.3l-138.7-33L132 224.9 0 250.1h.3l-.3.1 108 20.6c-6.3 5.7-12.5 12.8-18 21.5-28 44.3-54.3 40-71.3 38.7 0 0 42 26.4 87.3-8.9 13.4-10.5 26-15.7 37.1-17.8-9.4 11.5-18.6 27.8-21.8 50.1-7.4 51.9-33.1 58.8-49.1 64.5 0 0 49.1 6.8 75.9-44 9.6-18.2 21.3-28.9 32.3-35.2l-33 138.6L224.8 368l25.3 132.3 20.6-108.1c4.7 5.5 14.6 13.6 21.5 18.1 44.3 28.2 40 54.3 38.7 71.3 0 0 27.3-43-11.3-90.7-9.4-11.6-14.4-28.2-15.4-33.7 11.5 9.4 27.8 18.5 50 21.7 51.9 7.4 58.8 33.1 64.5 49.1 0 0 6.8-49.1-44-75.9-18.2-9.6-28.9-21.3-35.2-32.3l138.7 33-110.3-77.4L500 250.1h-.3zM367.9 267c-4.8-1.8-9.1-2.8-13.1-3.2-8.4-.5-7.9-.7-9.1 9-.6 3.9-.9 8.4-2.4 12.3-13 34.1-48.3 60-88.4 60-52.5 0-95.6-42.6-95.1-95.1.4-50.6 35.9-84.6 76.1-93.4 16.9-3.7 33.4-2.6 46 5.5 4.9 3.1 8.7 8.3 10.6 14 1.9 5.8 2 12.4-.6 18.4-1.3 3-3.3 5.7-5.9 7.8-2.6 2.1-5.7 3.4-8.7 4.2-3.1.8-6.4 1-9.6.4-3.3-.6-6.4-1.9-9.1-4-2.7-2-4.8-4.7-6.2-7.9-1.3-3.2-1.9-6.9-1-10.5.2-.8 1.2-3.9 3.2-6.1 1.9-2.3 4.2-3.5 4.4-3.6.8-.5 2.3.7 1.8 2-.3.6-.9 1.6-1.7 2.7-.5.8-1.1 1.6-1.6 2.5-1.2 2.2-1.5 4.5-1.5 5-.4 4.9 2.6 9.7 6.7 12.2 4.1 2.6 9.2 2.9 13.8 1.4 4.6-1.4 7.9-4.7 9.7-8.9 4.6-10.9-3.3-28.8-22.5-29.2-10.7-.2-23.6 4.2-27.5 27-3.6 21.4 3.8 48 15.4 64.1 15.8 22 55.3 37.5 86.9 32.5-.3-3.9-.5-7.6-1.1-10.9-2-9.8-.7-8.4-11.6-7-4.1.4-8.5.6-13 .7-3.9 0-3-2.6-.6-3.4 4.4-1.5 8.5-3.1 12.1-4.8 8.3-4.5 7.3-4.3 2.8-12.1-2.2-3.9-4.4-8.4-6.3-13.8-1.1-3.1 1-5.1 3.2-2.2 3.1 3.9 6.1 6.9 9.1 9.4 7.2 5.3 5.9 5.5 12.7-2 2.5-2.7 5.5-5.4 9.4-8.2 3-2.2 5.2-.6 3 2-2.7 3.4-4.7 6.5-6.1 9.6-3.6 9-3.1 7.6 5.1 11.8 3.7 2 7.7 4.4 11.9 7.7 3 2.3 1.6 5.2-1.2 4.1z"/></svg>
