<svg version="1.1" id="Calque_1" xmlns="http://www.w3.org/2000/svg" xmlns:xlink="http://www.w3.org/1999/xlink" x="0px" y="0px"
	 viewBox="0 0 200 200" style="enable-background:new 0 0 200 200;" xml:space="preserve">

<path class="st0" d="M100.1,183.9c-46.2,0-83.6-37.6-83.6-83.6c0-46.2,37.4-83.8,83.6-83.8s83.6,37.6,83.6,83.6
	C183.7,146.3,146.3,183.9,100.1,183.9 M100.1,5c-52.6,0-95,42.6-95,95c0,52.6,42.4,95,94.8,95c52.6,0,95-42.6,95-95
	C195.1,47.7,152.5,5,100.1,5"/>
<path class="st0" d="M107.3,33.9c0,4-3.2,7.2-7.2,7.2s-7.2-3.2-7.2-7.2s3.2-7.2,7.2-7.2C104.1,26.8,107.3,29.9,107.3,33.9"/>
<path class="st0" d="M107.3,166.4c0,4-3.2,7.2-7.2,7.2s-7.2-3.2-7.2-7.2c0-4,3.2-7.2,7.2-7.2C104.1,159,107.3,162.2,107.3,166.4"/>
<path class="st0" d="M166.2,107.4c-4,0-7.2-3.2-7.2-7.2s3.2-7.2,7.2-7.2s7.2,3.2,7.2,7.2C173.4,104.2,170.2,107.4,166.2,107.4"/>
<path class="st0" d="M34,107.4c-4,0-7.2-3.2-7.2-7.2s3.2-7.2,7.2-7.2s7.2,3.2,7.2,7.2C41.1,104.2,38,107.4,34,107.4"/>
<g>
	<path class="st0" d="M150.5,49.9c-1.6-1.6-4.2-1.8-6.2-0.6L98.7,79.3c-2.2,0.2-4.4,0.6-6.6,1.6C84.6,84.1,80,91.1,79.2,98.7
		l-30.1,45.8c-1.2,2-1,4.4,0.6,6.2c1,1,2.2,1.4,3.4,1.4c1,0,1.8-0.2,2.6-0.8l45.6-30.1c2.4-0.2,4.8-0.6,7-1.6
		c7.8-3.4,12.5-10.6,12.9-18.5l29.9-45.2C152.3,54,152.1,51.5,150.5,49.9z M70,130.1l12.3-18.7c1.6,2.6,3.8,4.8,6.4,6.4L70,130.1z
		 M100.3,110.2c-5.6,0-10-4.4-10-10s4.4-10,10-10s10,4.4,10,10S105.7,110.2,100.3,110.2z M117.8,88.7c-1.6-2.6-3.8-4.6-6.4-6.2
		l18.3-12.1L117.8,88.7z"/>
</g>
</svg>
