<svg version="1.1" id="Calque_1" xmlns="http://www.w3.org/2000/svg" xmlns:xlink="http://www.w3.org/1999/xlink" x="0px" y="0px"
	 viewBox="0 0 500 500" style="enable-background:new 0 0 500 500;" xml:space="preserve">
<g>
	<g>
		<path class="st0" d="M496.8,26.9c-2.4-2-6.1-1.7-8.1,0.7c-18.8,22.4-38.9,45.3-59.4,67.8C360.6,72.3,315.6,6.3,315.1,5.5
			c-1.9-2.8-5-4.5-8.4-4.5h-0.5c-3.4,0-6.5,1.7-8.4,4.5c-0.7,1-66.6,97.8-160.7,97.8c-5.6,0-10.1,4.5-10.1,10.1V164
			c0,5.6,4.5,10.1,10.1,10.1c5.6,0,10.1-4.5,10.1-10.1v-40.8c40.4-2.6,81.3-20.9,118.9-53.3c18.6-16,32.3-32,40.4-42.2
			c8,10.2,21.8,26.1,40.4,42.2c21.7,18.7,44.5,32.6,67.6,41.6c-39.7,42.9-80,83.9-114.1,117.6c-4,0.4-7.5,3.2-8.7,7.2
			c-0.2,0.6-0.4,1.2-0.6,1.9c-18.8,18.5-35.3,34.4-48.3,46.8c-20.8-4.7-42.6-26.1-50.5-35.7c-0.8-0.9-1.6-1.6-2.6-2.2
			c-2.4-2-5-3.6-7.7-4.7c3-6.3,4.2-13.2,3.5-20.3c-2-19.6-18.4-34.4-38.1-34.4c-1.3,0-2.7,0.1-4,0.2c-21,2.2-36.3,21.1-34.1,42.1
			c2,19.6,18.4,34.4,38.1,34.4c1.3,0,2.7-0.1,4-0.2c5.4-0.6,10.5-2.3,15.1-4.9c3.4-0.1,12.8,0.7,14.1,10.9l4.4,35.6
			c-5.7,3.7-9.8,9.4-11.4,16c-0.2,1-0.4,1.9-0.6,2.9l-40.2,7.1l-6.2-59.3c-0.5-4.7-4.2-8.5-8.9-9c-4.7-0.5-9.2,2.3-10.7,6.8
			c-5,15-14.7,31.5-22.2,35.3c-7.5-7.1-15.6-15.5-23.6-25.4c-1.9-4.2-3.8-9-5.8-14.4c-1.5-4.2-5.5-6.7-9.7-6.6
			c-13.5-20.5-25.7-45.4-33.2-75c-0.8-3.1-3.9-5-7-4.2c-3.1,0.8-5,3.9-4.2,7c8,31.4,20.8,57.7,34.9,79.3c-0.6,2-0.7,4.3,0.1,6.4
			c8.4,23.2,22.2,54,45.4,54c0.1,0,0.2,0,0.3,0c2.6,0,5-0.5,7.4-1.2c11.5,9.4,20.4,15.1,24.2,17.4l1.4,13c0.6,5.8,3.1,20,13,28.1
			c4,3.2,8.6,4.9,13.4,4.9c0.8,0,1.5,0,2.3-0.1c0.3,0,0.5-0.1,0.7-0.2l15.1,87.9c2.2,13,13.5,22.5,26.7,22.5c1.5,0,3.1-0.1,4.6-0.4
			l0.8-0.1c7.1-1.2,13.4-5.1,17.5-11c4.2-5.9,5.8-13.1,4.6-20.2l-15.1-87.8l36.6,61.2c4.9,8.1,13.8,13.2,23.3,13.2
			c4.9,0,9.7-1.3,13.9-3.9l0.7-0.4c6.2-3.7,10.6-9.6,12.4-16.6c1.8-7,0.7-14.3-3-20.5l-56.8-95.1c3.1-2.9,7.5-7.1,13.2-12.4
			c4,0.9,7.9,1.3,11.8,1.3c3.3,0,6.6-0.3,9.8-1c23-4.7,40-26,50.8-63.3c0.7-2.3,0.4-4.7-0.5-6.8c34.7-34.4,75.6-76,115.7-119.5
			c13.1,4.1,26.3,6.6,39.4,7.5V353c0,5.6,4.5,10.1,10.1,10.1c5.6,0,10.1-4.5,10.1-10.1V113.4c0-5.6-4.5-10.1-10.1-10.1
			c-11.9,0-23.3-1.6-34.2-4.3c19.3-21.3,38.3-42.9,56-64.1C499.6,32.6,499.2,28.9,496.8,26.9z M149.2,244.2
			c-10.1,1.1-18.9-6.3-19.9-16.2c-1-9.9,6.2-18.9,16.2-19.9c0.6-0.1,1.3-0.1,1.9-0.1c9.3,0,17,7,18,16.3c0.5,4.8-0.9,9.5-4,13.3
			C158.4,241.3,154.1,243.7,149.2,244.2z M100.4,319.3c3.6-3,6.8-6.6,9.7-10.5l2,19.2C108.8,325.8,104.9,322.9,100.4,319.3z
			 M140.7,368.3c-2.2-1.8-4.9-7.3-5.6-14.4l-1.1-10.5l12.6-2.2c-0.6,0.7-1.3,1.5-1.8,2.3c-4.2,5.9-5.8,13.1-4.6,20.2l0.8,4.8
			C140.9,368.4,140.8,368.4,140.7,368.3z M192.7,475.7c-1.1,1.5-2.6,2.5-4.5,2.8l-0.8,0.1c-3.8,0.6-7.3-1.9-7.9-5.6l-19.4-112.8
			c-0.3-1.8,0.1-3.6,1.2-5.1c1.1-1.5,2.6-2.5,4.5-2.8l0.8-0.1c0.4-0.1,0.8-0.1,1.2-0.1c3.3,0,6.2,2.4,6.7,5.7l19.4,112.8
			C194.1,472.4,193.7,474.2,192.7,475.7z M265.9,428c-0.4,1.8-1.6,3.3-3.2,4.2l-0.7,0.4c-3.2,1.9-7.5,0.8-9.4-2.4L193.9,332
			c-0.9-1.6-1.2-3.4-0.8-5.2c0.4-1.8,1.6-3.3,3.2-4.2l0.7-0.4c1.1-0.6,2.3-1,3.5-1c2.5,0,4.7,1.3,5.9,3.4l58.7,98.3
			C266.1,424.4,266.3,426.2,265.9,428z M218.6,308c-3.9-3.5-8.7-5.8-13.9-6.7L203,287c8,6.1,15.8,10.7,23.3,13.9
			C223.2,303.7,220.7,306.1,218.6,308z M260.5,284.1c6-5.7,12.4-12,19.4-18.8C274.3,275,267.8,281.3,260.5,284.1z"/>
		<polygon class="st0" points="381.6,305.3 362.5,330.1 331.3,328.5 349,354.3 337.8,383.5 367.8,374.6 392.2,394.3 393,363
			419.2,345.9 389.7,335.5 		"/>
		<polygon class="st0" points="63.4,77.5 76.3,73 87.3,81.1 87.1,67.4 98.2,59.5 85.1,55.5 80.9,42.5 73.1,53.7 59.4,53.6
			67.7,64.5 		"/>
	</g>
</g>
</svg>
