<svg xmlns="http://www.w3.org/2000/svg" viewBox="0 0 500 593.3"><path d="M250 0C68.2 0 1 130.9 0 293c.1 14 .4 27.1 1.1 39.3 1.5 23.1 4.4 45.4 9 66.5 13.8 53.5 43.8 74.6 102 74.6 58.5 3.6 117.2-39.7 117.2-84.7 0-29.4-12.6-56.1-29.4-62.2-27.3-9.8-16.4-39.6-42.4-45.1s-9.6-24.6-41-39.6c-16.5-7.9-30-5.4-42.4-4-6 11.8-21.1 21.3-30.7 17.9 0 0 5.4-10.7 17-17.3-6.3-.5-12.6-2.4-19-7.5 0 0 13.1 4.7 26.2 2.1 15.1-2.9 46.5-9.3 64.6 8.7 18 18 20.9 32 47.7 33.2 9 .4 14.7 4.1 18.7 9.1-3.4-9-7.4-17.9-11-24.8-7.3 2.1-21.8 4.4-35.6-4.8 8.4-5.8 21.4-6.8 30.8-3.6-.6-.9-1.2-1.8-1.7-2.4-16.4-20-27.1-30.9-47.3-37.7-7.6 12-38.5 18.4-59 7 14-6.3 29.9-11.6 44.6-11-24.9-6-35.5-18.2-35.5-30.6 2.2 5.3 10.8 21.9 37.4 27 6.1 1.2 11.6 2.7 16.7 4.4-13.2-10.6-25.2-31.7-19.5-57 13.5 17.2 30.2 27.1 28.3 60.5 11.2 5.1 19.6 11.6 26.3 18.6-9.9-23.3-10.3-62.5 17.8-87.9 2.4 31.2 13.9 57.2-13.7 92.5 6.4 7.7 11 15.8 15.2 23.2 4.8 8.4 13.4 27.3 16.2 47.2 1.7 4.3 3.5 8.1 6.2 10.4 14.5 12.5 31.6 17.8 47.1 15.1-.4-6.4-.6-15.4.7-22.4.5-2.5.9-5.5 1.7-8.9-5.6-2.8-15.4-13.1-18.4-17.5-10.6-15.5-9.7-37.4-.1-66.4-5.9-4.2-27.6-21.3-29.3-48.1 19.4 7.4 32.1 22.6 31.8 41.1.5-1.4 1-2.7 1.5-4.1.5-1.2.8-2.3 1.2-3.5.5-3 1.4-6.2 2.7-9.4 3.9-18.1-1.6-27-6.2-32.8 0 0-.1-.1-.2-.4-.1-.1-.1-.1-.1-.2-5.3.7-22.9 1.7-36-12 10.2-4.1 24.6-1.3 32.5 5-2.3-6.1-4.2-15.4-.1-25.5 8 7.8 10.4 23.6 5.3 31.2 7.8 8.2 9.8 16.9 8.9 26.4 9.8-16.2 29.1-31.5 56.7-31.5-15.6 20.3-21.9 42.4-60.6 49.1-2.6 8.5-5.9 17.7-8.4 27.7 12.5-20.4 40.8-40.6 76.3-33.4-22 20-34.3 44.1-78.4 43-4 23-.4 31.1 6.2 40.8 1.6 2.3 8.3 9.8 16.3 15.3 1.6-4.7 4.1-9.8 8.5-15.3 18.3-23 37.3-19.6 65.6-33.3 1.1-.6 2.3-1.2 3.3-1.8-9.7-10.1-10.9-32.3 0-61.2 10.8 16.2 13.3 42.2 7 56.3 11.2-9.4 16.5-22.6 18.8-34.7-2.7-1.7-22.7-15.4-23.1-40.7 9.1 3.5 17.1 12.2 21.4 21.3.6 1.2 1.6 3.1 2.5 5.5.6-2.8 1.2-4.4 2-6-.1-1 .1-2.7.8-5.7 1.7-7.5 7.6-19.5 21.1-26.2 1 13.2-9.1 28.9-19.8 31.9-1.3 3.3-2.3 8.1-2 14.4.3 2.7.3 5.6-.3 8.8-5.2 30.3-28.8 44.9-62.5 54.4-31.6 8.8-40.5 32.9-41.8 47.1-.7 7.8-.7 15.1-.6 20.4 10.6-3 20.1-9.9 27.1-21 18-28.5 29.7-9.3 61.1-14.5 39-6.5 5.2-46.5 34.3-54.7 13.4-3.7 24.1-8.5 31.6-15.3-2.4-5.7-6.2-18.2.4-31.1 5.1 5.8 7.2 15.1 6.4 22.9 4-6.8 5.9-15.2 5.1-25.8 0 0 7 15.1-.7 29.9 8.5-5.9 21-11.7 36.7-10.3-8.6 16.7-33.4 28.5-47.4 22.7-13.2 10.4-30.7 14.9-28 25.1 3.5 13.4 1.2 48.3-34.3 48.3-36.1 0-37.1 23.3-49.3 40.2-17.8 24.5-33.6 29.4-33.6 51.4 0 34.1 66.7 62.5 106 64 22.6.9 61-16.5 62.5-54.2.2-4.2-.2-8.1-.9-11.8-2.2-11.5-7.2-22.6-14.9-30.9-7.7-8.4-18.4-13.3-29.7-14.2-5.8-.6-11.6-.6-17 .7-5.5 1.3-10.8 3.6-15.4 6.8-9.3 6.4-15.3 16.6-16 27.7-.4 5.6.2 11.1 2.5 15.8 2.2 4.8 5.8 9 10.2 12.2 8.7 6.3 20.8 7.9 29.5 2.7 1.1-.5 4.6-2.9 7.1-6.3 2.6-3.3 4.2-7.1 4.3-7.4.7-1.8 2.4-1.2 3.1 0 1 1.9-.4 7.7-4 12.5-3.4 4.9-9 7.9-10.2 8.3-11.8 5.5-26.1 2.4-36.1-5.6-5.1-4-9.2-9.2-11.6-15.3-2.5-6.1-3-12.8-2.5-19.2 1-13 8.6-25.4 19.5-32.8 5.4-3.8 11.5-6.5 17.9-8 6.5-1.6 13.2-1.7 19.6-1.1 13.3 1.4 26.5 7.8 35.4 18.2 8.9 10.3 14 23.1 16 36.2.7 4.9 1 9.1.9 13 0 46.4-45.9 72.3-85.4 72.3-39.6 0-59.3-21.6-109.2-21.6-34.9 0-62.5 12.5-81 18.5 39.5-.7 72.4.5 111.2 32.1-42.7-9.2-78.8 10.6-124.6 10.6-30.8 0-90.6-8.2-122.5-37.7C78.7 550 145.4 593.3 250 593.3c183.1 0 250-132.8 250-296.7C500 132.8 433.1 0 250 0zM84.3 241c2.1-.3 8.7-.2 8.9 4.9.3 4.5-3.3 6.9-9.1 5.9-4.7-.8-8-4-7.8-6 .3-1.7 2.4-4 8-4.8zm49.2-21.3c1.4-1.9 5.6-3.4 13-.4 2.8 1.1 10.7 5.8 7.6 12.2-2.8 5.8-8.8 6.2-15.2.9-5.2-4.3-7.1-10.5-5.4-12.7zm-69.4 3.8c-2.4 6.1-8.4 7-15.4 2.2-5.6-3.9-8.1-10-6.5-12.4 1.3-2 5.4-3.9 13.2-1.6 2.9.9 11.4 5 8.7 11.8zm25.6-21.2s-19 .1-29.1-16c11.9-2.2 27.9 6.4 29.1 16zm22.2-9.6c-4.7 4.5-10.6 2.8-14.9-4.6-3.4-5.9-3.1-12.5-.6-14 2.1-1.3 6.6-1.2 12.6 4.2 2.2 2.1 8.2 9.4 2.9 14.4zm49.2 16.3c-4 2.7-8 .7-10.2-5.2-1.7-4.7-.7-9.4 1.3-10.2 1.7-.7 4.9-.1 8.6 4.6 1.4 1.8 4.8 7.8.3 10.8zm77.3-45.8c1.6-.6 4.6-.1 8.2 4.4 1.3 1.7 4.6 7.4.3 10.2-3.8 2.5-7.6.6-9.7-4.9-1.7-4.5-.6-9 1.2-9.7zm-45.9 68.2c-2.6-7.8-.2-15.6 5.3-17.4 5.5-1.8 12 3 14.6 10.8 2.6 7.8.2 15.6-5.3 17.4-5.5 1.8-12.1-3-14.6-10.8zm61 87.6c-22 2.1-52.3-32.1-49.3-67.5 24 16.7 47.6 39.1 49.3 67.5zm-28.8-98.1c5-4.6 11.5-5.7 13.5-3.6 1.7 1.7 2.6 6.1-1.4 13.2-1.5 2.7-7.3 10-13.4 5.9-5.4-3.7-4.9-9.8 1.3-15.5zm-7.5-23.3c1.3 1.7 4.5 7.4.3 10.2-3.8 2.5-7.6.6-9.7-4.9-1.7-4.5-.6-8.9 1.2-9.7 1.6-.6 4.7 0 8.2 4.4zm60.6-44.8c-1.5 3.2-7.4 12.2-14.7 8.1-6.6-3.7-6.6-10.7-.1-17.9 5.3-5.8 12.6-7.6 15.1-5.5 2.1 1.9 3.6 6.8-.3 15.3zm-16.9 121c-5.5 1.8-12-3-14.6-10.8-2.6-7.8-.2-15.6 5.3-17.4 5.5-1.8 12 3 14.6 10.8 2.5 7.8.2 15.6-5.3 17.4zm10.9-5.5s-.7-27.6 28.9-41.6c.9 20.2-9.6 37.3-28.9 41.6zm56.5-29.7c-4.2 7-11.6 10.4-16.6 7.4-5-3-5.6-11.1-1.4-18.1 4.2-7 11.6-10.3 16.6-7.4 5 2.9 5.6 11 1.4 18.1zm10.2-61.8c-2.8 5.8-8.8 6.2-15.2.9-5.2-4.2-7.1-10.4-5.3-12.6 1.4-1.9 5.6-3.4 13-.5 2.8 1.1 10.7 5.8 7.5 12.2zm47.5 6c5.1-3.5 11.1-3.7 12.6-1.6 1.3 1.8 1.6 5.9-2.9 11.8-1.7 2.2-7.8 8.2-12.8 3.7-4.3-4-3.2-9.4 3.1-13.9zm-28.2 67.1c4.5 1.4 7.4 5 6.9 6.9-.5 1.6-2.8 3.7-8.5 3.7-2.1 0-8.6-1-8.2-6.1.3-4.4 4.2-6.2 9.8-4.5zm-68.6 49.4c-1.2 1.8-5.7 6.5-9.6 3.3-3.5-2.9-2.9-7.1 1.8-10.7 3.8-2.9 8.3-3.3 9.6-1.7 1 1.3 1.4 4.4-1.8 9.1zm3.1-17c12.8-15.7 44-28.1 72.9-10.5-10.5 1.9-38.1 24.7-72.9 10.5zm74.2-41.3c2.3-16.5 18.8-39.8 46.7-39.8-11.7 16.7-16.2 34.9-46.7 39.8zm83-48.4c-.4 2.1-2.5 8.3-7.4 7-4.4-1.2-5.6-5.3-2.8-10.5 2.2-4.2 6.2-6.4 8-5.5 1.5.8 3.1 3.4 2.2 9z"/></svg>
