<?xml version="1.0" encoding="utf-8"?>
<svg version="1.1" id="Calque_1" xmlns="http://www.w3.org/2000/svg" xmlns:xlink="http://www.w3.org/1999/xlink" x="0px" y="0px"
	 viewBox="0 0 500 500" style="enable-background:new 0 0 500 500;" xml:space="preserve">
<g>
	<path d="M303,498.8l0.2-0.2c5.4-5.9,11.6-15.1,18.8-25.5c23.2-33.9,58.6-85.3,116.7-108.3c44.2-17.5,42.5-29.9,42.5-30.4l-0.2-1
		l-1,0.2c-2.2,0.5-222,56.9-292.9,71.9c0,0-0.2,0-1,0c-2.2,0-9.1-0.2-11.1-3.7c-1-1.7-0.7-4.2,0.7-7.2l1.2-2.2l-2.2,1
		c-1,0.5-94.4,38.6-153.5,68.2l-0.5,0.2l0.7,37.1H303V498.8z"/>
	<path d="M183.8,390c1.2,2,3.7,3.2,7.2,3.2l0,0c2,0,4.2-0.2,6.9-1c21.5-4.9,141.3-35,142.5-35.3v-1.7c-0.7,0-69.8-10.9-131.4-10.9
		l0,0l-33.5,2.5l-0.2,0.2c0,0-68.1,45.9-89,59.9l-0.5,0.2l1,14.1l1.2-0.5c0.7-0.5,81.1-38.2,96.9-40.9
		C183.6,382.1,181.8,386.8,183.8,390z"/>
	<path d="M100.4,389.3c4.7,0,8.5,1.2,11,3.5l0.5,0.5l27.5-19.5l-1.5-20c5.2-2.7,11-4,17-4c8.7,0,15,3,15,3l1.5,0.7l-2.7-27
		c20.5-7,39.2-7,52.9-0.2c17,11.2,14.5,20.2,14.2,20.5l-0.2,1l7,0.5l-0.2-1.2c0-0.2-4-17.7-9.5-43.7c11.7-3.7,29.5-8.2,48.2-8.2
		c18,0,33.7,4,46.7,12l17,54.7l5-2.5L243.4,1l-1.7,0.2C241.5,2.5,224.5,122.9,215,217c-10.7-55.2-18.2-98.6-22-129.1h-1.5
		c0,0-17.3,73.3-29.8,155.1l-9.9-99.1h-1.7c0,0-11.6,81.6-17,125l-5.9-68.9h-2.8l-14.5,88.4l-1.7-55.7l-2-0.7
		c-0.2,1.2-28.2,134.3-31,162.8l-0.2,1.5l1.5-0.7C76.6,395.5,89.4,389.3,100.4,389.3z"/>
</g>
</svg>
