<svg xmlns="http://www.w3.org/2000/svg" viewBox="0 0 500 967.5"><g><path d="M272.3 85.9c13.1-8 29.1-11.3 44.1-9.3 15.1 1.9 29 8.1 41.3 16.1 11.5 7.5 21.8 16.5 31.1 26.2C348.9 62 308.7 20.7 284.7 0L250 64.2 215.3 0c-24 20.7-64.2 62-104.1 118.9 9.3-9.7 19.6-18.7 31.1-26.2 12.3-8 26.2-14.3 41.3-16.1 15-2 31 1.3 44.1 9.3 6.7 4.1 12.8 9.8 17 16.7 2.4 3.9 4.2 8.3 5.3 12.8 1.1-4.5 2.9-8.8 5.3-12.8 4.2-6.9 10.3-12.5 17-16.7zM272.3 881.5c13.1 8 29.1 11.3 44.1 9.3 15.1-1.9 29-8.1 41.3-16.1 11.5-7.5 21.8-16.5 31.1-26.2-39.9 57-80.1 98.3-104.1 118.9L250 903.3l-34.7 64.2c-24-20.7-64.2-62-104.1-118.9 9.3 9.7 19.6 18.7 31.1 26.2 12.3 8 26.2 14.2 41.3 16.1 15 2 31-1.3 44.1-9.3 6.7-4.1 12.8-9.8 17-16.7 2.4-4 4.2-8.3 5.3-12.8 1.1 4.5 2.9 8.8 5.3 12.8 4.2 6.9 10.3 12.5 17 16.6z"/><path d="M500 367.9c-25.3-113.3-79.2-207.4-112.1-240.2-10.1-10.1-20.7-20.1-32.6-27.8-11.9-7.7-25.1-13.6-38.9-15.3-13.7-1.8-27.9 1.2-39.6 8.5-5.7 3.4-10.7 7.9-14.3 13.4-3.6 5.4-5.6 11.9-5.9 18.4-.3 6.5 1.1 13.3 4.4 18.8 3.4 5.5 8.7 10.3 14.6 13.1 5.9 2.9 13 3.5 19.2 1.3 6.2-2.2 11.5-7.1 14.6-13 3.1-5.9 3.7-13.1 1-19.3-2.5-6.2-8.8-10.5-15.6-11.3-.7-.1-2.7-.3-5.3 0-2.6.3-5.8 1.3-8.5 3.3-2.8 1.9-4.9 4.7-6.3 7.3-1.4 2.5-2.3 4.7-3.2 5.6-1.1 1.2-2.9 1-2.5-2.1.1-.3.3-2 1.2-4.5.8-2.5 2.5-5.8 5.1-8.5 2.6-2.8 6-4.8 9-5.8s5.5-1.3 6.6-1.3c9.1-.6 18.4 3.5 23.6 11.3 5 7.8 5.4 17.3 2.3 25.4-3.1 8-9.2 14.6-16.9 18.4-8 3.9-17.4 3.8-25.3.7-7.9-3.1-14.4-8.5-19.1-15.2-2.6-3.9-4.4-8.1-5.4-12.4-1.1 4.3-2.8 8.5-5.4 12.4-4.8 6.7-11.2 12.1-19.1 15.2-7.9 3.1-17.3 3.2-25.3-.7-7.8-3.8-13.8-10.4-16.9-18.4-3.1-8.1-2.6-17.6 2.3-25.4 5.2-7.8 14.5-11.9 23.6-11.3 1.1.1 3.6.3 6.6 1.3 3 1 6.4 3 9 5.8 2.6 2.7 4.2 6 5.1 8.5.9 2.5 1.1 4.3 1.2 4.5.5 3.1-1.3 3.2-2.5 2.1-.9-.8-1.7-3-3.2-5.6-1.4-2.5-3.5-5.3-6.3-7.3-2.7-2-5.9-3-8.5-3.3-2.6-.3-4.6-.1-5.3 0-6.8.8-13.2 5.1-15.6 11.3-2.6 6.2-2.1 13.4 1 19.3s8.5 10.7 14.6 13c6.2 2.2 13.2 1.6 19.2-1.3 6-2.8 11.2-7.6 14.6-13.1 3.3-5.5 4.7-12.3 4.4-18.8-.3-6.5-2.4-13-5.9-18.4-3.6-5.5-8.5-10-14.3-13.4-11.7-7.4-25.8-10.3-39.6-8.5-13.8 1.7-27 7.6-38.9 15.3-11.9 7.8-22.5 17.7-32.6 27.8C79.2 160.5 25.3 254.6 0 367.9c1.8 2.6 36.1 53.4 36.1 115.9S1.8 597 0 599.6C25.3 712.9 79.2 807 112.1 839.9c10.1 10.1 20.7 20.1 32.6 27.8 11.9 7.7 25.1 13.6 38.9 15.3 13.7 1.8 27.9-1.2 39.6-8.5 5.7-3.4 10.7-7.9 14.3-13.4 3.6-5.4 5.6-11.9 5.9-18.4.3-6.5-1.1-13.3-4.4-18.8-3.4-5.5-8.7-10.3-14.6-13.1-5.9-2.9-13-3.5-19.2-1.3-6.2 2.2-11.5 7.1-14.6 13-3.1 5.9-3.7 13.1-1 19.3 2.5 6.2 8.8 10.5 15.6 11.3.7.1 2.7.3 5.3 0 2.6-.3 5.8-1.3 8.5-3.3 2.8-1.9 4.9-4.7 6.3-7.3 1.4-2.5 2.3-4.7 3.2-5.6 1.1-1.2 2.9-1 2.5 2.1-.1.3-.3 2-1.2 4.5-.8 2.5-2.5 5.8-5.1 8.5-2.6 2.8-6 4.8-9 5.8s-5.5 1.3-6.6 1.3c-9.1.6-18.4-3.5-23.6-11.3-5-7.8-5.4-17.3-2.3-25.4 3.1-8 9.2-14.6 16.9-18.4 8-3.9 17.4-3.8 25.3-.7 7.9 3.1 14.4 8.5 19.1 15.2 2.6 3.9 4.4 8.1 5.4 12.4 1.1-4.3 2.8-8.5 5.4-12.4 4.8-6.7 11.2-12.1 19.1-15.2 7.9-3.1 17.3-3.2 25.3.7 7.8 3.8 13.8 10.4 16.9 18.4 3.1 8.1 2.6 17.6-2.3 25.4-5.2 7.8-14.5 11.9-23.6 11.3-1.1-.1-3.6-.3-6.6-1.3-3-1-6.4-3-9-5.8-2.6-2.7-4.2-6-5.1-8.5-.9-2.5-1.1-4.3-1.2-4.5-.5-3.1 1.3-3.2 2.5-2.1.9.8 1.7 3 3.2 5.6 1.4 2.5 3.5 5.3 6.3 7.3 2.7 2 5.9 3 8.5 3.3 2.6.3 4.6.1 5.3 0 6.8-.8 13.2-5.1 15.6-11.3 2.6-6.2 2.1-13.4-1-19.3s-8.5-10.7-14.6-13c-6.2-2.2-13.2-1.6-19.2 1.3-6 2.8-11.2 7.6-14.6 13.1-3.3 5.5-4.7 12.3-4.4 18.8.3 6.5 2.4 13 5.9 18.4 3.6 5.5 8.5 10 14.3 13.4 11.7 7.4 25.8 10.3 39.6 8.5 13.8-1.7 27-7.6 38.9-15.3 11.9-7.8 22.5-17.7 32.6-27.8 32.8-32.9 86.7-127 112.1-240.2-1.8-2.6-36.1-53.4-36.1-115.9s34.5-113.3 36.3-115.9zm-88.2 189.5l.9 100.6-5.4.1-1.8-16.8-9.9.1-.9 16.9-6.3.1-.9-16.8-9 .1v16.8l-5.4.1-2.7-49.3h-85.5l-.9 43.3h-68.1l-.9-43.3h-85.5l-2.7 49.3-5.4-.1v-16.8l-9-.1-.9 16.8-6.3-.1-.9-16.9-9.9-.1-1.8 16.8-5.4-.1.9-100.6 126.9 1.8v-151L88.2 410l-.9-100.6 5.4-.1 1.8 16.8 9.9-.1.9-16.9 6.3-.1.9 16.8 9-.1v-16.8l5.4-.1 2.7 49.3h85.5l.9-78.6 19.8-.3v24.3l14.3-.1 14.3.1v-24.3l19.8.3.9 78.6h85.5l2.7-49.3 5.4.1v16.8l9 .1.9-16.8 6.3.1.9 16.9 9.9.1 1.8-16.8 5.4.1-1.1 100.6-126.8-1.8v151.1l126.8-1.9z"/><path d="M250 421.6s-20.1 27.8-20.1 62.1 20.1 62.1 20.1 62.1 20.1-27.8 20.1-62.1-20.1-62.1-20.1-62.1z"/></g></svg>
