<svg xmlns="http://www.w3.org/2000/svg" viewBox="0 0 500 401.5"><g><path d="M69.4 275.4c10.1-8.5 19.2-17.9 21.2-20 9.6-9.9 18.3-20.7 26.1-32.1 7.8-11.4 14.7-23.3 21.1-35.6l4.8-9.2c.8-1.5 1.6-3.1 2.5-4.6.9-1.5 1.7-3.1 3-4.7.6-.7 1.6-1.7 2.7-2.2 1.1-.5 2.4-.6 3.6-.3 1.2.3 2.3 1 3.1 1.6.8.6 1.5 1.3 2.1 1.9 2.6 2.6 4.7 5.3 7.1 7.3 2.4 2.1 5.1 3.3 7.8 2.8s5.3-2.5 7.6-4.9c4.8-4.8 9-10.2 12.9-15.8 7.8-11.2 14.2-23.4 20.7-35.7 3.2-6.1 6.4-12.3 10-18.4 1.8-3 3.7-6.1 6.1-9 1.2-1.4 2.5-2.9 4.3-4.1.9-.6 2-1.2 3.2-1.5 1.3-.4 2.8-.4 4.1 0 1.9.5 3.2 1.6 4.2 2.6L200.7 0 58.5 284.4c3.5-2.7 7.2-5.8 10.9-9zM324.2 237.9c7.2 12.1 14.7 24 23 35.3 8.3 11.3 32.1 42.8 58 44.5 17.3 1.2 29.2-8 33-24.9 1.9-8.5-1.7-25.3-15.2-30.7-5.6-2.2-11.8-2.5-17.8-.7-6.1 1.7-11.2 5.2-13.4 10.3-.5 1.2-1.6 4.1-1.5 8 .1 2 .4 4.1 1.2 6.2.8 2.1 1.9 4.1 3.3 5.6s3.1 2.4 4.9 2.9c1.8.5 3.6.5 5.3.3 3.3-.4 5.6-1.6 6-1.7 2-.9 3.2-1.2 3.7-.9.5.2.4 1-.3 1.9-1.1 1.3-4.4 3.8-9.7 4.7-2.6.4-5.7.3-8.6-.9-3-1.2-5.6-3.6-7.3-6.4-1.8-2.9-2.9-6.1-3.3-9.3-.4-3.2-.2-6.3.4-9 1.3-5.4 4.3-8.7 5.4-9.7 2.5-2.6 5.7-4.5 9-5.9 3.3-1.4 6.8-2.3 10.4-2.6 6.3-.7 12.9.7 18.4 4L336.6 74.6l-48.2 97.5s22.2 43 35.8 65.8z"/><path d="M444.3 290c-2.5 25.1-19.5 34.3-37 34.3-31.2-.1-59.1-38.1-67.3-49.4-3.2-4.4-6.2-8.9-9.2-13.4h-24.4c1.8 3.8 23.7 43.8 42 54.1h-29.2s25 49.2 49 61.9h-63.3v23.9H500L444.3 290zM247.6 315.7h-29.2c19.8-12.5 40.2-50.3 42-54.1H232c15.1-13.7 49.5-84.2 52.1-89.4-6.6-13.1-27.6-54.7-38.6-69.9-3.7-5.1-4.6-5.3-6.9-3.1-1.8 1.7-5.7 7.2-8.5 11.9-3.7 6.2-6.7 12.3-10.1 18.5-6.7 12.5-13.6 25.1-22.2 36.8-2.2 2.9-4.4 5.8-6.8 8.5-1.2 1.4-2.5 2.7-3.8 4.1l-2 2c-.7.7-1.5 1.4-2.3 2-1.7 1.3-3.6 2.4-6 3.2-2.3.7-5.1.8-7.5.1-2.4-.7-4.4-2-6.1-3.3-1.7-1.3-3-2.7-4.3-4.1-1.3-1.4-2.4-2.7-3.5-3.9-.6-.6-1.1-1.1-1.6-1.5-.2-.2-.5-.4-.7-.5-.2-.1-.1-.1-.2-.1h-.2-.1c-.1 0 0 0-.2.2-.3.4-.7.8-1.1 1.5l-1.3 2.2c-3.4 5.9-6.6 12.3-10 18.6-6.8 12.6-14.3 24.9-22.8 36.5-8.5 11.6-17.9 22.6-28.3 32.6-2.4 2.4-11.2 10.6-20.3 17.6-5.4 4.2-10.8 7.9-14.5 10.4L0 401.5h261.9v-23.9h-63.3c25.4-15.4 49-61.9 49-61.9z"/></g></svg>
