<?xml version="1.0" encoding="utf-8"?>
<!-- Generator: Adobe Illustrator 22.1.0, SVG Export Plug-In . SVG Version: 6.00 Build 0)  -->
<svg version="1.1" id="Calque_1" xmlns="http://www.w3.org/2000/svg" xmlns:xlink="http://www.w3.org/1999/xlink" x="0px" y="0px"
	 viewBox="0 0 500 500" style="enable-background:new 0 0 500 500;" xml:space="preserve">

<g>
	<path class="st0" d="M279.7,108.8c4.2,1,8.5,1.6,12.8,1.6c25,0,46.3-17.4,51.9-42.4c6.6-29.4-11.3-59.2-40-66.4
		c-4.2-1.1-8.5-1.6-12.8-1.6c-25,0-46.3,17.4-51.9,42.4C233,71.8,251,101.6,279.7,108.8z M263.1,47.6c3.1-13.9,14.8-23.6,28.5-23.6
		c2.3,0,4.7,0.3,7,0.9c16.2,4,26.2,21,22.4,37.8c-3.1,13.9-14.8,23.6-28.5,23.6c-2.3,0-4.7-0.3-7-0.9
		C269.4,81.4,259.3,64.5,263.1,47.6z"/>
	<path class="st0" d="M176.6,132.6c4,1,8.1,1.5,12.2,1.5l0,0c23.8,0,44.1-16.6,49.5-40.4c6.3-28-10.8-56.4-38.1-63.2
		c-4-1-8.1-1.5-12.2-1.5c-23.8,0-44.1,16.6-49.5,40.4C132.2,97.4,149.3,125.8,176.6,132.6z M161.9,74.6c2.9-12.7,13.6-21.6,26-21.6
		c2.1,0,4.3,0.3,6.4,0.8c14.8,3.7,24,19.2,20.5,34.7c-2.8,12.7-13.6,21.6-26,21.6c-2.1,0-4.3-0.3-6.4-0.8
		C167.7,105.6,158.4,90,161.9,74.6z"/>
	<path class="st0" d="M226.1,146.9c-4.8-1.7-10-0.1-13.1,3.6c-3.2,2.8-4.7,7.2-3.7,11.7c18.5,77.8,38,164.5,42.8,193.6
		c-7.7,0.3-18.7,0.4-28.2,0.2c-3.2,0-6.3,1.2-8.6,3.5c-2.3,2.3-3.6,5.4-3.6,8.6v119.7c0,6.6,5.4,12,12,12c6.6,0,12-5.4,12-12V380.2
		c27.6,0,31.9-1.7,33.6-2.4c11-4.4,9.2-13.3,2.6-46.7c-3.4-17.4-8.6-41.4-15.4-71.4c-7.5-33.2-15.2-66.4-19.8-85.8
		c7.5,1.2,16.9,2.2,27.8,2.2c35.3,0,85.6-10.3,131.6-56.7c-0.1,10.1-2,19.7-6,28.7c-16.2,36.4-59.4,52.6-59.9,52.8
		c-5.1,1.8-8.3,6.8-7.9,12.2l19.4,250c-0.2,3.8-1.9,11.7-12.2,12.8c-5.6,0.6-8.3-1.2-9.9-2.6c-3.5-3.1-5.4-8.9-5.4-12.8
		c0-19.5-6.6-160.6-6.9-166.5c-0.3-6.6-5.9-11.7-12.6-11.4c-6.6,0.3-11.7,5.9-11.4,12.6c0.1,1.5,6.9,146.5,6.9,165.4
		c0,8.6,3.5,21.9,13.4,30.7c6.5,5.8,14.6,8.8,23.7,8.8c1.6,0,3.2-0.1,4.8-0.3c26.5-2.9,33.5-25.4,33.6-36.9c0-0.3,0-0.6,0-1
		L347,219.7c15.8-7.5,49.3-26.8,65-61.8c11.6-25.8,11.1-54.5-1.2-85.4c-2.5-6.2-9.5-9.2-15.6-6.7c-6.2,2.5-9.2,9.5-6.7,15.6
		c1,2.6,1.9,5.1,2.7,7.7C317.8,176.9,229.9,148.2,226.1,146.9z"/>
	<path class="st0" d="M99.1,186c1.7-1.3,3.3-2.6,5-4c9.4-7.5,22.2-17.7,27.6-15.8c3.3,1.2,5.9,3.5,7.4,6.7c1.5,3.1,1.7,6.6,0.5,9.9
		c-0.2,0.4-0.3,0.9-0.4,1.3l-7.3,31.4c-1.5,6.5,2.5,12.9,9,14.4c0.9,0.2,1.8,0.3,2.7,0.3c5.5,0,10.4-3.7,11.7-9.3l7.2-30.8
		c3.1-9.1,2.5-18.9-1.7-27.6c-4.2-8.9-11.7-15.7-21-19c-17.9-6.4-34.6,6.8-50.6,19.7c-1.6,1.3-3.2,2.6-4.9,3.9
		c-5.2,4.1-6.1,11.7-2,16.9C86.3,189.2,93.9,190.1,99.1,186z"/>
	<path class="st0" d="M153.3,356.1h-29.5l15.8-67.9c1.5-6.5-2.5-12.9-9-14.4c-6.5-1.5-12.9,2.5-14.4,9l-19.3,82.6
		c-0.8,3.6,0,7.3,2.3,10.2c2.3,2.9,5.8,4.6,9.4,4.6h32.6v107.7c0,6.6,5.4,12,12,12c6.6,0,12-5.4,12-12V368.1
		C165.3,361.5,159.9,356.1,153.3,356.1z"/>
	<path class="st0" d="M175.5,244.7c-41.2-1-51.2-11.5-53.6-16c-4.2-7.9,2.5-18.9,2.7-19.2c3.6-5.5,2.1-12.9-3.4-16.6
		c-5.5-3.7-13-2.2-16.7,3.3c-5.5,8.3-12.6,26.8-4,43.4c9.7,18.6,34,28.1,74.4,29.1c0.1,0,0.2,0,0.3,0c6.5,0,11.8-5.2,12-11.7
		C187.4,250.4,182.2,244.9,175.5,244.7z"/>
	<path class="st0" d="M255.4,386.6c-6.6,0-12,5.4-12,12v89.1c0,6.6,5.4,12,12,12c6.6,0,12-5.4,12-12v-89.1
		C267.4,392,262,386.6,255.4,386.6z"/>
</g>
</svg>
