<svg viewBox="0 0 487 328" version="1.1" xmlns="http://www.w3.org/2000/svg" xmlns:xlink="http://www.w3.org/1999/xlink">
    <title>daybed</title>
    <defs></defs>
    <g id="Page-1" stroke-width="1" fill-rule="evenodd">
        <g id="daybed" transform="translate(-7.000000, -3.000000)" fill-rule="nonzero">
            <path d="M341.25,192.5 C337.167908,191.106191 332.721297,193.236859 331.25,197.291667 L299.791667,291.666667 L15.2083333,291.666667 C10.8360791,291.666667 7.29166667,295.211079 7.29166667,299.583333 C7.29090648,301.664324 8.13156775,303.657214 9.62253755,305.108948 C11.1135074,306.560682 13.1281029,307.34791 15.2083333,307.291667 L30,307.291667 L20.8333333,316.875 C19.3442939,318.325915 18.5044797,320.316797 18.5044797,322.395833 C18.5044797,324.474869 19.3442939,326.465752 20.8333333,327.916667 C22.2214318,329.429483 24.1976467,330.265574 26.25,330.208333 C28.3642683,330.27183 30.4070494,329.439586 31.875,327.916667 L52.7083333,307.083333 L284.375,307.083333 L305.208333,327.916667 C306.660796,329.462298 308.714272,330.298899 310.833333,330.208333 C312.885687,330.265574 314.861902,329.429483 316.25,327.916667 C317.739039,326.465752 318.578854,324.474869 318.578854,322.395833 C318.578854,320.316797 317.739039,318.325915 316.25,316.875 L306.25,306.875 C309.259254,306.656683 311.864491,304.702755 312.916667,301.875 L346.041667,202.291667 C346.765276,200.360311 346.661608,198.216202 345.755047,196.363665 C344.848486,194.511128 343.219049,193.113672 341.25,192.5 Z" id="Shape"></path>
            <path d="M392.083333,3.125 C336.930786,2.07893723 291.347632,45.8909663 290.208333,101.041667 L290.208333,119.791667 C289.701141,122.887273 291.069564,125.990376 293.69734,127.703507 C296.325116,129.416637 299.71655,129.416637 302.344327,127.703507 C304.972103,125.990376 306.340526,122.887273 305.833333,119.791667 C305.833333,113.541667 315.416667,106.25 329.375,106.25 C343.333333,106.25 352.916667,113.541667 352.916667,119.791667 C352.409474,122.887273 353.777897,125.990376 356.405673,127.703507 C359.03345,129.416637 362.424884,129.416637 365.05266,127.703507 C367.680436,125.990376 369.048859,122.887273 368.541667,119.791667 C368.541667,114.791667 374.791667,109.375 384.166667,107.291667 L384.166667,322.5 C384.793722,326.327179 388.100959,329.136645 391.979167,329.136645 C395.857374,329.136645 399.164611,326.327179 399.791667,322.5 L399.791667,107.291667 C409.166667,109.375 415.416667,114.791667 415.416667,119.791667 C415.416667,124.163921 418.961079,127.708333 423.333333,127.708333 C425.414324,127.709094 427.407214,126.868432 428.858948,125.377462 C430.310682,123.886493 431.09791,121.871897 431.041667,119.791667 C431.041667,113.541667 440.833333,106.25 454.583333,106.25 C468.333333,106.25 478.125,113.541667 478.125,119.791667 C477.617807,122.887273 478.98623,125.990376 481.614007,127.703507 C484.241783,129.416637 487.633217,129.416637 490.260993,127.703507 C492.88877,125.990376 494.257193,122.887273 493.75,119.791667 L493.75,101.041667 C492.610354,45.9737443 447.155199,2.19521339 392.083333,3.125 Z M329.583333,90.625 C321.459309,90.5348986 313.440568,92.4679879 306.25,96.25 C309.238852,60.8598763 334.32939,31.253041 368.75,22.5 C358.582507,45.8766721 353.606992,71.1807198 354.166667,96.6666667 C346.593189,92.4683239 338.030892,90.3817138 329.375,90.625 L329.583333,90.625 Z M392.083333,90.625 C383.938282,90.5722943 375.912007,92.5788629 368.75,96.4583333 C368.75,46.25 384.166667,18.75 392.083333,18.75 C400,18.75 414.375,46.25 415.416667,96.4583333 C408.235505,92.6283805 400.221983,90.625 392.083333,90.625 Z M454.583333,90.625 C446.342597,90.5438997 438.224912,92.6271995 431.041667,96.6666667 C431.463121,71.2134977 426.567046,45.9525888 416.666667,22.5 C451.087276,31.253041 476.177815,60.8598763 479.166667,96.25 C471.604012,92.2604616 463.12838,90.321122 454.583333,90.625 Z" id="Shape"></path>
        </g>
    </g>
</svg>
