<svg xmlns="http://www.w3.org/2000/svg" viewBox="0 0 500 400.6"><g><path d="M56.3 214.2c2.8 19.3 14.6 37 31.9 49.8 4.2-5.3 6.7-20.2 8.2-23.1-3.3-4.7-8.6-9.8-16.9-14.8 0 0-17.9-15.8-7.8-31.9-4.8-.8-9.7-3.4-13.7-6.7 2.9 2.2 6.7 18.1-1.7 26.7zM0 242v158.6c28.4-29 73.9-33.2 81.8-109.7.6-6.1-1.9-14.4-4.7-18.9-14.2-22.4-27-33.1-29.1-53.8-3.3.7-6.4.2-9.3-.9 1.1 5.6-6.5 17.4-16 13.7-.2 8-12.4 14.2-22.7 11zM87.1 222.8c7.5 3.9 12.1 6.9 15 10 7.5-8.8 19-16.7 30.2-22-.6-.3-1.1-.7-1.7-1-15 4-26.5-1.1-29.4-5.7-1.1 1.8-13.6 7.3-24.8-2.2-1.2 5.5-1.1 14.8 10.7 20.9zM254.8 100.3C194 53 156-5.2 0 .4v115.2c5.9-3.7 16-5.5 22.9-1.1 6.3-8.2 23.5-9.1 29.3.8 9.5-2.3 19.9-1.1 25.8 8 3.5-3.1 11.4-4.4 16.8.7 6.9-9.8 25.4-5.7 27.7 4.3 9.6-.8 16.1 6.1 15.8 12 10.6-22 27.8-15.8 36.4-7.5 5.7-1.7 11.8.6 13.4 5.5 10.4-1.2 17.6 9.6 17.4 17.7 7.5-3.5 21.5.8 22.2 10.3 16.6-1.1 12.6 20.4.1 16.5 1.3 11.9-15.1 17-20.8 9.8 1.8 3.6-1.2 12.8-11.6 10.5 6.6 5.5 4.7 14.1-4.2 14.1-8.4 18.2-25.3-2.3-37.9-2.3-19.8.1-36.8 13.2-45.5 30-6.7 12.8-11.2 35.6-10.4 59.2 3.4 91.3 169.6 58 212.1-12.6 5-8.4 8.6-17.6 9.6-27.1.5-4.7.4-9.6-.7-14-1.1-4.5-3-8.7-5.8-12.4-5.5-7.4-14-12.6-23.1-14.2-.7-.1-1.3-.2-2-.2v23.9c3 1.5 4.9 4.5 5.2 8.2.2 2.5 0 10.2-6.9 16.4-1.7 1.5-3.8 2.8-6 3.7-4.5 1.9-9.5 2.3-13.4 1.5-3.9-.7-6.5-2.3-7.5-2.8-4.5-2.6-8.1-6.5-10.6-11.1s-3.2-10.1-2.3-15.2c.8-5.2 3.1-10 6.2-14.1 3.2-4.1 7.1-7.5 11.6-10.1 2.2-1.3 4.5-2.4 6.9-3.4 2.4-1 4.9-1.7 7.5-2.1l2.1-.3v-79.7l64.6 31-57.4 19.1v29.6c2.1.2 4.2.5 6.2 1.1 10.1 2.5 19.3 8.9 25 17.7 2.9 4.4 4.9 9.4 5.8 14.6.9 5.2.8 10.5.2 15.6-1.4 10.3-5.4 20.1-10.7 28.8-4 6.5-8.7 12.5-13.8 18 121.2-3.7 184.6-103.9 199.7-145.2-106.2 10.9-183.4-20.7-245.1-68.5zM280.4 247.4v-23.6c-1.5.2-2.9.4-4.3.8-2.1.6-4.4 1.5-6.5 2.5-2.1 1-4.1 2.2-6 3.5-3.8 2.7-7 6-9.3 9.9-2.3 3.9-3.6 8.2-3.5 12.5-.1 8.4 6.6 16.7 14.6 19.3.9.3 3.1 1 6 .9 1.4 0 3-.2 4.6-.6 1.6-.4 3.4-1 4.8-1.7 2.9-1.4 5.7-4.2 6.6-6.7-1.1.5-2.3.7-3.6.7-5 0-9.1-4.1-9.1-9.1 0-3.8 2.4-7.1 5.7-8.4z"/></g></svg>
