<svg xmlns="http://www.w3.org/2000/svg" viewBox="0 0 500 777.2"><g><path d="M411.9 161.9C411.9 72.5 339.4 0 250 0S88.1 72.5 88.1 161.9H0v615.3h166.2C132.6 727.3 92.1 647 92.1 549.1c0-161.7 73.5-202.7 101.9-217.8 20.9-11.1 27.3-58.3-7-79.7-1.5-1-12.5-6.5-21.8-6.8-8.7-.3-17.3 1-24.4 5.2-14.6 8.2-22.1 25.9-18.8 41.4 1.3 7.6 5.8 14.7 12.1 19.3 6.2 4.7 14.1 6.7 21.4 5.2 7.4-1.2 13.1-6.1 15.8-12.9 2.7-6.7 1.8-14.5-2.7-19-.5-.5-2.5-2.4-5-3.5-2.5-1.2-5.2-1.7-5.5-1.8-1.3-.2-1-2.4-.1-3.6 1.3-1.8 5.8-2.1 10-.5 4.3 1.5 7.5 5 8 5.8 6.2 7.7 6.6 18.8 2.6 27.6-2 4.5-5.1 8.5-9 11.6-4 3.1-8.9 5-13.8 5.8-9.9 1.8-20.5-1-28.6-7-8.1-6-14.2-15-16.2-25.3-1.7-10.3-.1-21 4.6-30.3 4.7-9.3 12.3-17.2 21.8-21.8 4.7-2.4 9.9-3.9 15.1-4.6 2.8-.4 5.6-.5 8.4-.5h182.5c-1.6 12.2-25 18.8-29.7 20.8-30.8 13.3-28.8 63.3-7.8 74.5 28.5 15.1 101.9 56.1 101.9 217.8 0 97.9-40.5 178.2-74.1 228.1H500V161.9h-88.1z"/><path d="M267.5 475.6l-17.2-38.5-17.1 38.7 17.1 23.4M233.2 611.8l17.2 38.5 17.1-38.6-17.1-23.5M218.8 512.3l-4.5-28.9-39.3-15 15.2 39.4M281.9 575.1l4.5 28.9 39.4 15-15.3-39.4M182.4 560.8l23.5-17-23.7-17.2-38.4 17.2M318.5 560.8l38.4-17.2-38.6-17-23.5 17M175.1 619.1l39.3-15.2 4.6-28.7-28.9 4.6M281.8 512.2l28.8-4.6 15.1-39.3-39.4 15.3M281.3 530.9v-18.1h-18.1L250.4 500l-12.9 12.8h-18.1v18.1l-12.8 12.8 12.8 12.8v18.1h18.1l12.9 12.9 12.8-12.9h18.1v-18.1l12.8-12.8"/></g></svg>
