<svg version="1.1" id="Calque_1" xmlns="http://www.w3.org/2000/svg" xmlns:xlink="http://www.w3.org/1999/xlink" x="0px" y="0px"
	 viewBox="0 0 500 500" style="enable-background:new 0 0 500 500;" xml:space="preserve">
<g id="Page-1">
	<g id="Icone" transform="translate(-516.000000, -861.000000)">
		<g id="phone" transform="translate(516.000000, 861.000000)">
			<path id="Fill-1" class="st0" d="M327.6,431.3h95.5v-25h-95.5V431.3z M445.4,325.7L332.6,286v-30.2c7.9-11.8,13.3-25,15.7-38.8
				c13.6-7.8,23.1-20.7,26.3-35.7c3.2-14.9-0.4-30.4-9.7-42.7c1.5-7.3,2.2-14.7,2.2-22.2c0.5-30.3-11.4-59.6-33.3-81.4
				C312,13.2,282.1,0.6,250.7,0c-31.4,0.6-61.3,13.2-83.1,35c-21.8,21.9-33.8,51.1-33.2,81.5c0,7.5,0.8,14.9,2.2,22.2
				c-9.3,12.3-12.9,27.8-9.7,42.8c3.2,14.9,12.7,27.9,26.3,35.7c2.4,13.8,7.8,27,15.7,38.8v30L54.7,325.8
				C22,337.4,0.1,367.5,0,401.2V500h500v-99C499.9,367.4,478.1,337.3,445.4,325.7L445.4,325.7z M250.7,371.6L232,358.5l7.1-21.5
				h23.1l7.2,21.2L250.7,371.6z M244.2,399.8h12.8l13.6,74.9h-39.8L244.2,399.8z M474.1,474.7H296.8l-16.3-89.9
				c-0.2-1-0.6-2-1.1-2.8l12.8-9h0c4.5-3.2,6.4-8.8,4.7-14l-12.9-38.4v0c-1.8-5-6.8-8.4-12.3-8.3h-41.8c-5.5-0.1-10.5,3.3-12.3,8.3
				L204.5,359v0c-1.8,5.1,0.1,10.8,4.7,14l12.5,8.7c-0.5,1-0.9,2-1.1,3.1l-16,90.2H25.9v-73.8c0.1-23.2,15.1-44,37.8-51.9l131-45.5
				V248l-2.4-3.3c-8.1-10.9-13-23.7-14.4-37l-0.8-7.4l-7.1-2.9c-9.1-3.7-15.8-11.5-17.8-20.9c-2-9.4,0.9-19.1,7.7-26l4.6-4.9
				l-1.6-6.6c-1.9-7.4-2.9-15-2.9-22.5C158.8,67,199.5,26.1,250.7,25c51.2,1.2,91.6,42.2,90.5,91.5c0,7.6-1,15.2-2.9,22.5l-1.4,6.6
				l4.8,4.9c6.8,6.9,9.7,16.6,7.7,26c-2,9.4-8.7,17.2-17.8,20.9l-7.1,2.9l-0.8,7.4c-1.4,13.3-6.4,26.1-14.4,37L307,248l0,55.8
				l129.7,45.7c22.5,8,37.5,28.7,37.6,51.9L474.1,474.7z"/>
		</g>
	</g>
</g>
</svg>
