<svg xmlns="http://www.w3.org/2000/svg" viewBox="0 0 500 500"><path d="M487.7 237.6H411c-6.8 0-12.3 5.5-12.3 12.3 0 6.8 5.5 12.3 12.3 12.3h76.7c6.8 0 12.3-5.5 12.3-12.3 0-6.7-5.5-12.3-12.3-12.3zM101.3 250c0-6.8-5.5-12.3-12.3-12.3H12.3C5.5 237.6 0 243.2 0 250c0 6.8 5.5 12.3 12.3 12.3H89c6.8 0 12.3-5.5 12.3-12.3zm223-128.7c1.9 1.1 4.1 1.7 6.2 1.7 4.3 0 8.4-2.2 10.7-6.2l38.3-66.4c3.4-5.9 1.4-13.5-4.5-16.9-5.9-3.4-13.5-1.4-16.9 4.5l-38.3 66.4c-3.4 5.9-1.4 13.4 4.5 16.9zM175.7 378.7c-5.9-3.4-13.5-1.4-16.9 4.5l-38.3 66.4c-3.4 5.9-1.4 13.5 4.5 16.9 1.9 1.1 4.1 1.7 6.2 1.7 4.3 0 8.4-2.2 10.7-6.2l38.3-66.4c3.4-5.9 1.4-13.4-4.5-16.9zm-16.9-262c2.3 4 6.4 6.2 10.7 6.2 2.1 0 4.2-.5 6.2-1.7 5.9-3.4 7.9-11 4.5-16.9L141.9 38c-3.4-5.9-11-7.9-16.9-4.5-5.9 3.4-7.9 11-4.5 16.9l38.3 66.3zm182.4 266.6c-3.4-5.9-11-7.9-16.9-4.5-5.9 3.4-7.9 11-4.5 16.9l38.3 66.4c2.3 4 6.4 6.2 10.7 6.2 2.1 0 4.2-.5 6.2-1.7 5.9-3.4 7.9-11 4.5-16.9l-38.3-66.4z"/><path d="M462 358.1l-97.9-56.5c7.1-15.7 11.2-33.2 11.2-51.6s-4-35.9-11.2-51.6l97.9-56.5c5.9-3.4 7.9-11 4.5-16.9-3.4-5.9-11-7.9-16.9-4.5l-98 56.5c-20.5-28.5-52.6-48-89.3-51.6v-113C262.3 5.5 256.8 0 250 0c-6.8 0-12.3 5.5-12.3 12.3v113c-36.7 3.6-68.8 23.2-89.3 51.7l-98-56.6c-5.9-3.4-13.5-1.4-16.9 4.5-3.4 5.9-1.4 13.5 4.5 16.9l97.9 56.5c-7.1 15.7-11.2 33.2-11.2 51.6s4 35.9 11.2 51.6L38 358.1c-5.9 3.4-7.9 11-4.5 16.9 2.3 4 6.4 6.2 10.7 6.2 2.1 0 4.2-.5 6.2-1.7l98-56.6c20.5 28.5 52.6 48 89.3 51.6v113c0 6.8 5.5 12.3 12.3 12.3 6.8 0 12.3-5.5 12.3-12.3v-113c36.7-3.6 68.8-23.2 89.3-51.7l98 56.6c1.9 1.1 4.1 1.7 6.2 1.7 4.3 0 8.4-2.2 10.7-6.2 3.4-5.8 1.4-13.4-4.5-16.8zm-212-7.6c-55.4 0-100.5-45.1-100.5-100.5S194.6 149.5 250 149.5 350.5 194.6 350.5 250 305.4 350.5 250 350.5z"/></svg>
