<?xml version="1.0" encoding="UTF-8"?>
<svg viewBox="0 0 15 12" version="1.1" xmlns="http://www.w3.org/2000/svg" xmlns:xlink="http://www.w3.org/1999/xlink">
  <g id="UI-design" stroke="none" stroke-width="1" fill="none" fill-rule="evenodd">
    <g id="D_Dashboard-connect-as-quick-login" transform="translate(-1077.000000, -243.000000)" fill="#998E8E" stroke="#998E8E" stroke-width="0.576">
      <g id="onglet-connexion" transform="translate(1068.000000, 50.000000)">
        <g id="icon-deconnexion" transform="translate(10.000000, 193.000000)">
          <polygon id="Fill-3" points="8.56554562 8.53270244 5.75194167 11.4349463 0.547795862 6.06684878 5.75194167 0.69875122 8.58654266 3.62265366 9.13416828 3.62265366 5.75194167 0.133873171 0.000170246305 6.06684878 5.75194167 12.0001171 9.11317123 8.53270244"></polygon>
          <path d="M6.8928,5.84165854 L12.5183054,5.84165854 L10.6254502,4.06682927 C10.5318148,3.97873171 10.5247212,3.82858537 10.6101281,3.732 C10.6952512,3.63570732 10.8410956,3.62839024 10.9344473,3.71590244 L13.4538089,6.07843902 L10.9344473,8.44097561 C10.8445005,8.52526829 10.6924138,8.51795122 10.6098443,8.42487805 C10.5247212,8.32829268 10.5318148,8.17814634 10.6254502,8.09034146 L12.5183054,6.31521951 L6.8928,6.31521951 C6.76625025,6.31521951 6.66296749,6.20897561 6.66296749,6.07843902 C6.66296749,5.94760976 6.76625025,5.84165854 6.8928,5.84165854" id="Fill-1"></path>
        </g>
      </g>
    </g>
  </g>
</svg>
