<svg xmlns="http://www.w3.org/2000/svg" viewBox="0 0 16 16">
  <g transform="translate(1 1)">
    <path d="M7.00736842,13.1821053 C3.60315789,13.1821053 0.847368421,10.4115789 0.847368421,7.02210526 C0.847368421,3.61789474 3.60315789,0.847368421 7.00736842,0.847368421 C10.4115789,0.847368421 13.1673684,3.61789474 13.1673684,7.00736842 C13.1673684,10.4115789 10.4115789,13.1821053 7.00736842,13.1821053 M7.00736842,0 C3.13157895,0 0.00736842105,3.13894737 0.00736842105,7 C0.00736842105,10.8757895 3.13157895,14 6.99263158,14 C10.8684211,14 13.9926316,10.8610526 13.9926316,7 C14.0073684,3.14631579 10.8684211,0 7.00736842,0"/>
    <path d="M7.53789474,2.12947368 C7.53789474,2.42421053 7.30210526,2.66 7.00736842,2.66 C6.71263158,2.66 6.47684211,2.42421053 6.47684211,2.12947368 C6.47684211,1.83473684 6.71263158,1.59894737 7.00736842,1.59894737 C7.30210526,1.60631579 7.53789474,1.83473684 7.53789474,2.12947368 Z M7.53789474,11.8926316 C7.53789474,12.1873684 7.30210526,12.4231579 7.00736842,12.4231579 C6.71263158,12.4231579 6.47684211,12.1873684 6.47684211,11.8926316 C6.47684211,11.5978947 6.71263158,11.3621053 7.00736842,11.3621053 C7.30210526,11.3473684 7.53789474,11.5831579 7.53789474,11.8926316 Z M11.8778947,7.54526316 C11.5831579,7.54526316 11.3473684,7.30947368 11.3473684,7.01473684 C11.3473684,6.72 11.5831579,6.48421053 11.8778947,6.48421053 C12.1726316,6.48421053 12.4084211,6.72 12.4084211,7.01473684 C12.4084211,7.30947368 12.1726316,7.54526316 11.8778947,7.54526316 Z M2.13684211,7.54526316 C1.84210526,7.54526316 1.60631579,7.30947368 1.60631579,7.01473684 C1.60631579,6.72 1.84210526,6.48421053 2.13684211,6.48421053 C2.43157895,6.48421053 2.66736842,6.72 2.66736842,7.01473684 C2.66,7.30947368 2.43157895,7.54526316 2.13684211,7.54526316 Z M10.7210526,3.30842105 C10.6031579,3.19052632 10.4115789,3.17578947 10.2642105,3.26421053 L6.90421053,5.47473684 C6.74210526,5.48947368 6.58,5.51894737 6.41789474,5.59263158 C5.86526316,5.82842105 5.52631579,6.34421053 5.46736842,6.90421053 L3.24947368,10.2789474 C3.16105263,10.4263158 3.17578947,10.6031579 3.29368421,10.7357895 C3.36736842,10.8094737 3.45578947,10.8389474 3.54421053,10.8389474 C3.61789474,10.8389474 3.67684211,10.8242105 3.73578947,10.78 L7.09578947,8.56210526 C7.27263158,8.54736842 7.44947368,8.51789474 7.61157895,8.44421053 C8.18631579,8.19368421 8.53263158,7.66315789 8.56210526,7.08105263 L10.7652632,3.75052632 C10.8536842,3.61052632 10.8389474,3.42631579 10.7210526,3.30842105 Z M4.78947368,9.21789474 L5.69578947,7.84 C5.81368421,8.03157895 5.97578947,8.19368421 6.16736842,8.31157895 L4.78947368,9.21789474 Z M7.02210526,7.75157895 C6.60947368,7.75157895 6.28526316,7.42736842 6.28526316,7.01473684 C6.28526316,6.60210526 6.60947368,6.27789474 7.02210526,6.27789474 C7.43473684,6.27789474 7.75894737,6.60210526 7.75894737,7.01473684 C7.75894737,7.42736842 7.42,7.75157895 7.02210526,7.75157895 Z M8.31157895,6.16736842 C8.19368421,5.97578947 8.03157895,5.82842105 7.84,5.71052632 L9.18842105,4.81894737 L8.31157895,6.16736842 Z"/>
  </g>
</svg>
