<svg xmlns="http://www.w3.org/2000/svg" viewBox="0 0 512 388.5"><path d="M492.4 337.2v-15.6c0-113.2-93.7-213.6-206.8-228.8 2.2-1.3 4.4-2.6 6.5-4.2 21.6-16.9 25.6-48.1 8.9-69.6-12.2-15.6-32.4-22.4-51.5-17.3-6.4 1.7-12.3 4.7-17.6 8.8-21.6 17-25.6 48.2-8.9 69.6 3.7 4.7 8.1 8.6 13 11.6C118.6 102.3 19.6 205.2 19.6 321.6v15.6h472.8zM248.2 31.3c2.5-1.9 5.2-3.3 8.1-4.1 8.8-2.4 18.2.8 23.8 8 7.6 9.8 5.6 24.6-4.4 32.5-2.4 1.9-5.2 3.3-8.1 4.1-8.8 2.4-18.2-.8-23.8-8-7.6-9.8-5.6-24.7 4.4-32.5zm7.8 90.6c103.9 0 195.8 84.3 204.5 184.1H51.4C60.2 206.3 152 121.9 256 121.9z"/><path d="M193.8 150.7c-32.6 17.2-57.4 44.7-69.6 77.5-2.6 6.9.9 14.6 7.8 17.2 1.5.6 3.1.8 4.7.8 5.4 0 10.5-3.3 12.5-8.7 9.9-26.6 30.2-49 57-63.2 6.5-3.4 9-11.5 5.6-18.1-3.4-6.5-11.5-9-18-5.5zM496.4 357.3H15.6c-8.6 0-15.6 7-15.6 15.6s7 15.6 15.6 15.6h480.8c8.6 0 15.6-7 15.6-15.6s-7-15.6-15.6-15.6z"/></svg>
