<svg id="Calque_1" data-name="Calque 1" xmlns="http://www.w3.org/2000/svg" viewBox="0 0 24 24"><defs></defs><title>Lave-vaisselle</title><path class="cls-1" d="M20.14.62H3.86A2.38,2.38,0,0,0,1.49,3V21a2.38,2.38,0,0,0,2.37,2.38H20.14A2.38,2.38,0,0,0,22.51,21V3A2.38,2.38,0,0,0,20.14.62ZM3.86,1.38H20.14A1.62,1.62,0,0,1,21.76,3V6.67H2.24V3A1.62,1.62,0,0,1,3.86,1.38ZM20.14,22.64H3.86A1.63,1.63,0,0,1,2.24,21V7.42H21.76V21A1.63,1.63,0,0,1,20.14,22.64Z"/><path class="cls-1" d="M5.27,4.42H9.13A.38.38,0,0,0,9.51,4a.37.37,0,0,0-.38-.37H5.27A.37.37,0,0,0,4.9,4,.38.38,0,0,0,5.27,4.42Z"/><path class="cls-1" d="M15.76,4.64a.64.64,0,1,0,0-1.28.64.64,0,0,0,0,1.28Z"/><path class="cls-1" d="M18.32,4.64A.64.64,0,1,0,17.68,4,.64.64,0,0,0,18.32,4.64Z"/><path class="cls-1" d="M15.12,9.19H8.88a.38.38,0,0,0-.38.37v3A3.37,3.37,0,0,0,11.63,16h0v3.83H9.13a.38.38,0,0,0,0,.75h5.74a.38.38,0,1,0,0-.75H12.38V16h0A3.37,3.37,0,0,0,15.5,12.6v-3A.38.38,0,0,0,15.12,9.19Zm-.37,3.41a2.62,2.62,0,0,1-2.63,2.62h-.24A2.62,2.62,0,0,1,9.25,12.6V9.94h5.5Z"/></svg>
