<?xml version="1.0" encoding="UTF-8"?>
<svg viewBox="0 0 21 30" version="1.1" xmlns="http://www.w3.org/2000/svg" xmlns:xlink="http://www.w3.org/1999/xlink">
    <!-- Generator: Sketch 53.2 (72643) - https://sketchapp.com -->
    <title>Combined Shape</title>
    <desc>Created with Sketch.</desc>
    <g id="Icons---Kids" stroke="none" stroke-width="1" fill="none" fill-rule="evenodd">
        <g id="Icons/Kids_icons_board" transform="translate(-329.000000, -238.000000)" fill="#005589" fill-rule="nonzero">
            <g id="Icons" transform="translate(16.000000, 104.000000)">
                <g id="Assets/Icons/Equipments/Room/Disposable-clutery" transform="translate(295.000000, 118.000000)">
                    <path d="M38.5,44.8885588 C38.5,45.3358673 38.1373852,45.6984823 37.6900771,45.6984823 C37.2427691,45.6984823 36.8801544,45.3358673 36.8801544,44.8885588 L36.8801544,39.1087886 L32.2016536,39.2188711 C31.7450914,39.2296137 31.3699348,38.8609593 31.3726938,38.4042787 C31.4190511,30.7311562 33.343056,23.1860336 36.9767238,16.4276759 C37.3753101,15.6863342 38.5,15.9695148 38.5,16.8112147 L38.5,38.2772242 L38.5,44.8885588 Z M36.8801544,20.3072574 C34.4708985,25.7467147 33.1509282,31.6152672 33.0052212,37.5796685 L36.8801544,37.4884935 L36.8801544,20.3072574 Z M24.3746443,27.6633499 C25.9550551,27.3216779 27.1391828,25.9155934 27.1391828,24.2329411 L27.1391828,17.1488112 C27.1391828,16.7015028 27.5017979,16.3388878 27.9491062,16.3388878 C28.3964145,16.3388878 28.7590296,16.7015028 28.7590296,17.1488112 L28.7590296,24.2329411 C28.7590296,26.8128185 26.8544565,28.9478591 24.3746443,29.3087287 L24.3746443,44.4486288 C24.3746443,44.8959372 24.0120293,45.2585523 23.5647209,45.2585523 C23.1174126,45.2585523 22.7547975,44.8959372 22.7547975,44.4486288 L22.7547975,29.2881717 C20.3385302,28.8730352 18.5,26.767694 18.5,24.2329411 L18.5,17.1488112 C18.5,16.7015028 18.8626151,16.3388878 19.3099234,16.3388878 C19.7572317,16.3388878 20.1198468,16.7015028 20.1198468,17.1488112 L20.1198468,24.2329411 C20.1198468,25.8692776 21.2396842,27.244062 22.7547975,27.6327329 L22.7547975,17.1488112 C22.7547975,16.7015028 23.1174126,16.3388878 23.5647209,16.3388878 C24.0120293,16.3388878 24.3746443,16.7015028 24.3746443,17.1488112 L24.3746443,27.6633499 Z" id="Combined-Shape"></path>
                </g>
            </g>
        </g>
    </g>
</svg>
