<svg version="1.1"
   xmlns="http://www.w3.org/2000/svg" xmlns:xlink="http://www.w3.org/1999/xlink"
   x="0px" y="0px" viewBox="0 0 500 490.1" style="enable-background:new 0 0 500 490.1;"
   xml:space="preserve">

<defs>
</defs>
<g>
  <g>
    <path class="st0" d="M475.9,347.3c-7.3-4.5-15.7-6.9-24.3-6.9c-9.4,0-18.5,2.8-26.2,7.8c-2-6.6-4.7-12.8-8-18.6
      c1.6-2.2,2.9-4.5,4-7c4.1-9.2,4.2-19.5,0.5-29c-3.7-9.4-10.9-16.8-20.1-20.9l-116.8-51.3l-20.2,45.9l-1.6-0.7L247.3,113
      c0,0,0-0.1,0-0.1c-0.1-0.7-0.2-1.4-0.4-2.1c0-0.1,0-0.2-0.1-0.2c-0.2-0.7-0.5-1.4-0.8-2c0-0.1-0.1-0.1-0.1-0.2
      c-0.3-0.6-0.7-1.3-1.2-1.8c0,0-0.1-0.1-0.1-0.1c-0.5-0.6-1-1.1-1.5-1.6c0,0,0,0-0.1-0.1c-0.6-0.5-1.2-0.9-1.8-1.3c0,0,0,0-0.1,0
      c-0.7-0.4-1.3-0.7-2.1-1c0,0,0,0-0.1,0c-0.7-0.3-1.5-0.5-2.2-0.6c0,0,0,0,0,0c-0.7-0.1-1.5-0.2-2.3-0.2c0,0-0.1,0-0.1,0
      l-119.1,4.3c-7,0.3-12.5,6.1-12.3,13.2c0.2,6.9,5.9,12.3,12.7,12.3c0.2,0,0.3,0,0.5,0l68.2-2.4c-1,3.8-1.5,7.9-1.5,12.2
      c0,2.3,0,7.8,0,15.5c0,21,0.1,55.8,0.4,84l-80.8-64.8c-0.2-0.2-0.5-0.3-0.8-0.5c-0.3-0.2-0.6-0.4-1-0.6c-0.4-0.2-0.8-0.4-1.2-0.6
      c-0.3-0.1-0.7-0.3-1-0.4c-0.4-0.1-0.9-0.2-1.4-0.3c-0.3-0.1-0.6-0.2-1-0.2c-0.5-0.1-1-0.1-1.5-0.1c-0.3,0-0.6,0-0.9,0
      c-0.5,0-1.1,0.1-1.6,0.2c-0.3,0-0.5,0.1-0.8,0.1c-0.6,0.1-1.2,0.4-1.7,0.6c-0.2,0.1-0.4,0.1-0.5,0.2c-0.7,0.3-1.5,0.7-2.1,1.2
      c0,0-0.1,0-0.1,0.1c-0.6,0.5-1.2,1-1.7,1.5L4.7,264.6c-4.8,5.2-4.4,13.2,0.8,18c2.4,2.2,5.5,3.4,8.6,3.4c3.4,0,6.9-1.4,9.4-4.1
      l46.2-50.3c2,3.4,4.5,6.6,7.7,9.7c3.7,3.6,9.7,9.5,16.6,16.3c9.9,9.8,21.8,21.4,31.7,31c27,26.2,58.9,50,97.1,72.5
      c0.8,0.5,1.6,1,2.4,1.5c2.2,1.2,86.4,48.8,87,49.1c2,1.1,4.1,1.7,6.3,1.7c4.4,0,8.7-2.3,11.1-6.4c3.5-6.1,1.3-13.9-4.8-17.3
      c-0.6-0.3-85.9-48.6-89-50.4c-16.2-10.7-24.7-37-25.9-59.1c-1-18-1.2-92-1.2-123.6c0-7.7,0-13.3,0-15.6
      c-0.1-10.1,4.7-12.6,10.4-13.3l4.4-0.2l15.4,149.4c0.5,4.5,3.3,8.5,7.5,10.3L371.4,342c4.9,2.2,10.1,3.2,15.3,3.2
      c3.2,0,6.4-0.4,9.5-1.3c6.1,11.3,8.8,25.2,7.5,39.5c-0.1,0.9-0.1,1.7,0,2.6c-0.7,16.6,7.4,33,22.4,42.3c7.3,4.5,15.7,6.9,24.3,6.9
      c0,0,0,0,0,0c16.6,0,32.2-8.8,41-22.9C505.1,390.1,498.1,360.9,475.9,347.3z M143.3,270.3c-9.8-9.6-21.7-21.2-31.6-30.9
      c-7-6.9-13-12.8-16.7-16.4c-7.2-7-5.7-12.2-2.1-16.8l3-3.3l88,70.6c0.1,3.2,0.2,5.9,0.3,7.9c0.5,8.5,1.8,17.7,4.2,26.8
      C171.9,296.2,156.9,283.6,143.3,270.3z M470,399.1c-4.1,6.7-11.6,10.9-19.5,10.9c-4,0-7.8-1.1-11.1-3.1
      c-7.3-4.5-11.1-12.6-10.4-20.6c0-0.2,0.1-0.4,0.1-0.5c0-0.4,0-0.8,0.1-1.2c0.4-2.8,1.4-5.6,3-8.1c4.1-6.7,11.6-10.9,19.5-10.9
      c3.9,0,7.8,1.1,11.1,3.1C473.1,375.1,476.3,388.7,470,399.1z"/>
    <path class="st0" d="M460.1,466.3l-80.8-45.6c-0.2-0.2-0.4-0.6-0.6-0.8l-6.5-52c-0.9-7-7.2-11.9-14.2-11c-7,0.9-11.9,7.2-11,14.2
      l6.5,52.3c0.9,7.6,6.3,15.5,12.9,19.3l81.1,45.8c2,1.1,4.1,1.6,6.2,1.6c4.4,0,8.7-2.3,11.1-6.5
      C468.3,477.5,466.2,469.7,460.1,466.3z"/>
    <path class="st0" d="M7.2,33.2c9.4,4.5,21,10,39.2,10c18.2,0,29.5-5.4,39.4-10.1c8.9-4.3,16-7.6,28.4-7.6
      c12.4,0,19.5,3.4,28.4,7.6c9.9,4.8,21.2,10.1,39.4,10.1c18.2,0,29.5-5.4,39.4-10.1c8.9-4.3,16-7.6,28.4-7.6
      c12.4,0,19.5,3.4,28.4,7.6c9.9,4.8,21.2,10.1,39.4,10.1c18.2,0,29.5-5.4,39.4-10.1c8.9-4.3,16-7.6,28.4-7.6
      c12.4,0,19.5,3.4,28.4,7.7c9.9,4.8,21.2,10.1,39.4,10.1c18.2,0,29.8-5.6,39.2-10c6.3-3,9-10.6,6-17c-3-6.3-10.6-9-17-6
      c-8.5,4.1-15.8,7.5-28.2,7.5c-12.4,0-19.5-3.4-28.4-7.7C415.2,5.4,403.9,0,385.7,0c-18.2,0-29.5,5.4-39.4,10.1
      c-8.9,4.3-16,7.6-28.4,7.6s-19.5-3.4-28.4-7.6C279.5,5.4,268.2,0,250,0c-18.2,0-29.5,5.4-39.4,10.1c-8.9,4.3-16,7.6-28.4,7.6
      c-12.4,0-19.5-3.4-28.4-7.6C143.8,5.4,132.5,0,114.3,0C96.1,0,84.8,5.4,74.9,10.1c-8.9,4.3-16,7.6-28.4,7.6
      c-12.4,0-19.8-3.5-28.2-7.5c-6.3-3-13.9-0.3-17,6C-1.8,22.6,0.9,30.2,7.2,33.2z"/>
  </g>
</g>
</svg>
