<svg viewBox="0 0 60 60" version="1.1" xmlns="http://www.w3.org/2000/svg" xmlns:xlink="http://www.w3.org/1999/xlink">
    <g id="Page-1" stroke-width="1" fill-rule="evenodd">
        <g id="dmd_club" transform="translate(-0.030262, 0.000000)">
            <polygon id="Rectangle-4" fill="#7DA0D2" points="30 0 60 30 30 60 0 30"></polygon>
            <path d="M23.2608579,26.2803391 L22.7383969,27.3301438 C22.4551924,27.0469392 21.9994678,26.9053391 21.3712094,26.9053391 C20.7755033,26.9053391 20.2872269,27.1551738 19.9063657,27.6548508 C19.5255044,28.1545278 19.3350766,28.7868457 19.3350766,29.5518234 C19.3350766,30.3168012 19.5116699,30.9238915 19.8648618,31.3731125 C20.2180536,31.8223335 20.6892403,32.0469406 21.278436,32.0469406 C21.9522675,32.0469406 22.479606,31.8060576 22.8604672,31.3242844 L23.4512875,32.349675 C22.9337068,32.899808 22.1752509,33.1748703 21.1758969,33.1748703 C20.176543,33.1748703 19.4001835,32.8460976 18.8467954,32.1885422 C18.2934072,31.5309868 18.0167172,30.6341859 18.0167172,29.4981125 C18.0167172,28.4401645 18.3235176,27.5555705 18.9371274,26.8443039 C19.5507372,26.1330373 20.3360484,25.7774094 21.2930844,25.7774094 C22.113401,25.7774094 22.7693189,25.9450509 23.2608579,26.2803391 Z M24.4766782,33.0528 L24.4766782,25.8994797 L25.7462094,25.8994797 L25.7462094,31.9248703 L28.9786313,31.9248703 L28.9786313,33.0528 L24.4766782,33.0528 Z M30.0040219,25.8994797 L31.2735532,25.8994797 L31.2735532,30.7481125 C31.2735532,31.132229 31.3907395,31.4447259 31.6251157,31.6856125 C31.8594918,31.9264991 32.1817542,32.0469406 32.5919125,32.0469406 C33.0508992,32.0469406 33.4081548,31.9289405 33.6636899,31.6929367 C33.919225,31.4569329 34.0469907,31.1338567 34.0469907,30.7236984 L34.0469907,25.8994797 L35.3165219,25.8994797 L35.3165219,30.8213547 C35.3165219,31.5570354 35.0699424,32.1332016 34.5767758,32.5498703 C34.0836093,32.9665391 33.42525,33.1748703 32.6016782,33.1748703 C31.7715959,33.1748703 31.1311401,32.9714218 30.6802915,32.5645188 C30.2294428,32.1576157 30.0040219,31.5749392 30.0040219,30.8164719 L30.0040219,25.8994797 Z M38.9688657,33.0528 L36.7813657,33.0528 L36.7813657,25.9043625 C37.7449122,25.8587894 38.4203611,25.8360031 38.8077329,25.8360031 C39.5499241,25.8360031 40.1301592,25.9946929 40.5484555,26.3120773 C40.9667519,26.6294617 41.1758969,27.082745 41.1758969,27.6719406 C41.1758969,28.2383497 40.8764207,28.6859364 40.2774594,29.0147141 C41.1661357,29.3239604 41.6104672,29.9619749 41.6104672,30.9287766 C41.6104672,31.5798215 41.3647015,32.0965806 40.8731625,32.4790695 C40.3816236,32.8615584 39.7468644,33.0528 38.9688657,33.0528 Z M38.0508969,26.9199875 L38.0508969,28.6338547 C38.2462104,28.6468756 38.4512865,28.6533859 38.6661313,28.6533859 C39.4929583,28.6533859 39.9063657,28.3425167 39.9063657,27.7207688 C39.9063657,27.1706358 39.5303929,26.8955734 38.778436,26.8955734 C38.5798673,26.8955734 38.3373567,26.9037114 38.0508969,26.9199875 Z M38.0508969,29.6250656 L38.0508969,31.9883469 C38.3080597,32.0111334 38.5163909,32.0225266 38.6758969,32.0225266 C39.242306,32.0225266 39.6532719,31.9264989 39.9088071,31.7344406 C40.1643422,31.5423824 40.2921079,31.2233751 40.2921079,30.7774094 C40.2921079,30.3705063 40.1732939,30.0742853 39.9356625,29.8887375 C39.6980311,29.7031897 39.2829962,29.6104172 38.6905454,29.6104172 C38.5668468,29.6104172 38.3536328,29.6153 38.0508969,29.6250656 Z" id="CLUB" fill="#FFFFFF"></path>
        </g>
    </g>
</svg>
