<svg viewBox="0 0 60 60" version="1.1" xmlns="http://www.w3.org/2000/svg" xmlns:xlink="http://www.w3.org/1999/xlink">
    <g id="Page-1" stroke-width="1" fill-rule="evenodd">
        <g id="dmd_superior" transform="translate(-0.030262, 0.000000)">
            <polygon id="Rectangle-4" fill="#7DA0D2" points="30 0 60 30 30 60 0 30"></polygon>
            <path d="M9.88623047,32.696843 L10.3081055,31.6729172 C10.7592796,31.989325 11.2031228,32.1475266 11.6396484,32.1475266 C12.3105502,32.1475266 12.6459961,31.9131539 12.6459961,31.4444016 C12.6459961,31.2246739 12.5668953,31.0152033 12.4086914,30.8159836 C12.2504875,30.6167638 11.924563,30.3933774 11.4309082,30.1458176 C10.9372534,29.8982577 10.6047372,29.6946465 10.4333496,29.5349777 C10.261962,29.375309 10.1301274,29.1856136 10.0378418,28.9658859 C9.94555618,28.7461583 9.89941406,28.5029966 9.89941406,28.2363938 C9.89941406,27.7383444 10.0817853,27.3252626 10.4465332,26.9971359 C10.8112811,26.6690093 11.279294,26.5049484 11.8505859,26.5049484 C12.5947303,26.5049484 13.1411115,26.6441072 13.4897461,26.9224289 L13.1425781,27.9068039 C12.7412089,27.6196931 12.3178733,27.4761398 11.8725586,27.4761398 C11.6088854,27.4761398 11.4045417,27.5457192 11.2595215,27.6848801 C11.1145012,27.8240409 11.0419922,28.0049473 11.0419922,28.2276047 C11.0419922,28.5967472 11.4506795,28.9805324 12.2680664,29.3789719 C12.6987326,29.5899104 13.0092764,29.7840003 13.199707,29.9612473 C13.3901377,30.1384942 13.5351558,30.3450351 13.6347656,30.5808762 C13.7343755,30.8167172 13.7841797,31.079654 13.7841797,31.3696945 C13.7841797,31.8911815 13.5783712,32.3203764 13.166748,32.6572922 C12.7551249,32.9942079 12.2036167,33.1626633 11.512207,33.1626633 C10.9116181,33.1626633 10.3696313,33.0073914 9.88623047,32.696843 Z M14.7949219,26.6148117 L15.9375,26.6148117 L15.9375,30.9785813 C15.9375,31.3242861 16.0429677,31.6055333 16.2539062,31.8223313 C16.4648448,32.0391292 16.754881,32.1475266 17.1240234,32.1475266 C17.5371114,32.1475266 17.8586414,32.0413265 18.088623,31.828923 C18.3186047,31.6165196 18.4335937,31.3257511 18.4335937,30.9566086 L18.4335937,26.6148117 L19.5761719,26.6148117 L19.5761719,31.0444992 C19.5761719,31.7066119 19.3542503,32.2251614 18.9104004,32.6001633 C18.4665505,32.9751652 17.8740271,33.1626633 17.1328125,33.1626633 C16.3857385,33.1626633 15.8093282,32.9795596 15.4035645,32.6133469 C14.9978007,32.2471341 14.7949219,31.7227253 14.7949219,31.0401047 L14.7949219,26.6148117 Z M22.0371094,30.6841477 L22.0371094,33.0528 L20.8945312,33.0528 L20.8945312,26.6192063 C21.6562538,26.5869795 22.1015619,26.5708664 22.2304688,26.5708664 C23.2470754,26.5708664 23.9904762,26.7268707 24.4606934,27.038884 C24.9309106,27.3508973 25.1660156,27.8379529 25.1660156,28.5000656 C25.1660156,29.9766355 24.2959071,30.7149094 22.5556641,30.7149094 C22.4267572,30.7149094 22.2539073,30.7046556 22.0371094,30.6841477 Z M22.0371094,27.6079758 L22.0371094,29.6690109 C22.2304697,29.6895189 22.3828119,29.6997727 22.4941406,29.6997727 C23.0156276,29.6997727 23.3964832,29.6126153 23.6367187,29.438298 C23.8769543,29.2639808 23.9970703,28.9805363 23.9970703,28.5879563 C23.9970703,27.9199842 23.459478,27.5860031 22.3842773,27.5860031 C22.2641596,27.5860031 22.1484381,27.5933273 22.0371094,27.6079758 Z M27.3193359,27.6299484 L27.3193359,29.1372727 L29.4462891,29.1372727 L29.4462891,30.1084641 L27.3193359,30.1084641 L27.3193359,32.0376633 L30.2373047,32.0376633 L30.2373047,33.0528 L26.1767578,33.0528 L26.1767578,26.6148117 L30.2856445,26.6148117 L30.2856445,27.6299484 L27.3193359,27.6299484 Z M34.9262695,33.0528 L33.2080078,30.3941086 C33.0351554,30.3911789 32.7934586,30.3809251 32.4829102,30.3633469 L32.4829102,33.0528 L31.2963867,33.0528 L31.2963867,26.6148117 C31.3608402,26.6148117 31.6083963,26.6038255 32.0390625,26.5818527 C32.4697287,26.55988 32.8168932,26.5488938 33.0805664,26.5488938 C34.7153402,26.5488938 35.5327148,27.1816999 35.5327148,28.4473313 C35.5327148,28.8281925 35.419923,29.175357 35.1943359,29.4888352 C34.9687489,29.8023133 34.684572,30.0235025 34.3417969,30.1524094 L36.2446289,33.0528 L34.9262695,33.0528 Z M32.4829102,27.6079758 L32.4829102,29.39655 C32.6938487,29.4141282 32.8549799,29.4229172 32.9663086,29.4229172 C33.44385,29.4229172 33.7932118,29.355535 34.0144043,29.2207688 C34.2355968,29.0860025 34.3461914,28.823798 34.3461914,28.4341477 C34.3461914,28.1177398 34.2275402,27.8965506 33.9902344,27.7705734 C33.7529285,27.6445962 33.3793971,27.5816086 32.8696289,27.5816086 C32.7465814,27.5816086 32.6176765,27.5903976 32.4829102,27.6079758 Z M36.815918,33.0528 L36.815918,26.6148117 L37.9584961,26.6148117 L37.9584961,33.0528 L36.815918,33.0528 Z M38.9912109,29.7788742 C38.9912109,28.8618774 39.2424291,28.0862504 39.744873,27.4519699 C40.247317,26.8176894 40.9189411,26.5005539 41.7597656,26.5005539 C42.6855515,26.5005539 43.393064,26.7876604 43.8823242,27.361882 C44.3715845,27.9361037 44.6162109,28.7417597 44.6162109,29.7788742 C44.6162109,30.8159888 44.3605983,31.6392227 43.8493652,32.2486008 C43.3381322,32.8579788 42.6123094,33.1626633 41.671875,33.1626633 C40.8076129,33.1626633 40.1447777,32.8609085 39.6833496,32.2573898 C39.2219215,31.6538712 38.9912109,30.8277076 38.9912109,29.7788742 Z M40.1777344,29.7788742 C40.1777344,30.5318077 40.3051745,31.1148097 40.5600586,31.5278977 C40.8149427,31.9409857 41.1855444,32.1475266 41.671875,32.1475266 C42.2431669,32.1475266 42.6789536,31.9453801 42.979248,31.5410813 C43.2795425,31.1367824 43.4296875,30.5493859 43.4296875,29.7788742 C43.4296875,28.2700776 42.8730524,27.5156906 41.7597656,27.5156906 C41.2499975,27.5156906 40.8588881,27.7200343 40.5864258,28.1287277 C40.3139635,28.5374212 40.1777344,29.0874645 40.1777344,29.7788742 Z M49.2568359,33.0528 L47.5385742,30.3941086 C47.3657218,30.3911789 47.124025,30.3809251 46.8134766,30.3633469 L46.8134766,33.0528 L45.6269531,33.0528 L45.6269531,26.6148117 C45.6914066,26.6148117 45.9389627,26.6038255 46.3696289,26.5818527 C46.8002951,26.55988 47.1474596,26.5488938 47.4111328,26.5488938 C49.0459066,26.5488938 49.8632812,27.1816999 49.8632812,28.4473313 C49.8632812,28.8281925 49.7504894,29.175357 49.5249023,29.4888352 C49.2993153,29.8023133 49.0151384,30.0235025 48.6723633,30.1524094 L50.5751953,33.0528 L49.2568359,33.0528 Z M46.8134766,27.6079758 L46.8134766,29.39655 C47.0244151,29.4141282 47.1855463,29.4229172 47.296875,29.4229172 C47.7744165,29.4229172 48.1237782,29.355535 48.3449707,29.2207688 C48.5661632,29.0860025 48.6767578,28.823798 48.6767578,28.4341477 C48.6767578,28.1177398 48.5581067,27.8965506 48.3208008,27.7705734 C48.0834949,27.6445962 47.7099635,27.5816086 47.2001953,27.5816086 C47.0771478,27.5816086 46.9482429,27.5903976 46.8134766,27.6079758 Z" id="SUPERIOR" fill="#FFFFFF"></path>
        </g>
    </g>
</svg>
