<svg viewBox="0 0 60 60" version="1.1" xmlns="http://www.w3.org/2000/svg" xmlns:xlink="http://www.w3.org/1999/xlink">
    <g id="Page-1" stroke-width="1" fill-rule="evenodd">
        <g id="dmd_standard" transform="translate(-0.030262, 0.000000)">
            <polygon id="Rectangle-4" fill="#7DA0D2" points="30 0 60 30 30 60 0 30"></polygon>
            <path d="M8.48876953,32.696843 L8.91064453,31.6729172 C9.36181866,31.989325 9.80566188,32.1475266 10.2421875,32.1475266 C10.9130893,32.1475266 11.2485352,31.9131539 11.2485352,31.4444016 C11.2485352,31.2246739 11.1694344,31.0152033 11.0112305,30.8159836 C10.8530266,30.6167638 10.5271021,30.3933774 10.0334473,30.1458176 C9.53979245,29.8982577 9.20727625,29.6946465 9.03588867,29.5349777 C8.8645011,29.375309 8.73266648,29.1856136 8.64038086,28.9658859 C8.54809524,28.7461583 8.50195312,28.5029966 8.50195312,28.2363938 C8.50195312,27.7383444 8.68432435,27.3252626 9.04907227,26.9971359 C9.41382018,26.6690093 9.88183308,26.5049484 10.453125,26.5049484 C11.1972693,26.5049484 11.7436506,26.6441072 12.0922852,26.9224289 L11.7451172,27.9068039 C11.343748,27.6196931 10.9204124,27.4761398 10.4750977,27.4761398 C10.2114245,27.4761398 10.0070808,27.5457192 9.86206055,27.6848801 C9.71704029,27.8240409 9.64453125,28.0049473 9.64453125,28.2276047 C9.64453125,28.5967472 10.0532186,28.9805324 10.8706055,29.3789719 C11.3012717,29.5899104 11.6118155,29.7840003 11.8022461,29.9612473 C11.9926767,30.1384942 12.1376948,30.3450351 12.2373047,30.5808762 C12.3369146,30.8167172 12.3867188,31.079654 12.3867188,31.3696945 C12.3867188,31.8911815 12.1809103,32.3203764 11.7692871,32.6572922 C11.357664,32.9942079 10.8061558,33.1626633 10.1147461,33.1626633 C9.51415715,33.1626633 8.97217039,33.0073914 8.48876953,32.696843 Z M16.0166016,27.6299484 L16.0166016,33.0528 L14.8740234,33.0528 L14.8740234,27.6299484 L12.8261719,27.6299484 L12.8261719,26.6148117 L18.1567383,26.6148117 L18.1567383,27.6299484 L16.0166016,27.6299484 Z M21.8085938,33.0528 L21.3383789,31.7476242 L19.1323242,31.7476242 L18.684082,33.0528 L17.4140625,33.0528 L19.9804688,26.5269211 L20.4814453,26.5269211 L23.0698242,33.0528 L21.8085938,33.0528 Z M20.230957,28.4956711 L19.4575195,30.8731125 L21.0043945,30.8731125 L20.230957,28.4956711 Z M27.9741211,33.1406906 L24.8496094,29.0669602 L24.8496094,33.0571945 L23.7509766,33.0571945 L23.7509766,26.6148117 L24.300293,26.6148117 L27.3413086,30.4995773 L27.3413086,26.6148117 L28.4399414,26.6148117 L28.4399414,33.1406906 L27.9741211,33.1406906 Z M31.1865234,33.0528 L29.7583008,33.0528 L29.7583008,26.6192063 C30.6694381,26.5869795 31.2421863,26.5708664 31.4765625,26.5708664 C32.4140672,26.5708664 33.157468,26.8455219 33.7067871,27.394841 C34.2561063,27.9441602 34.5307617,28.6729126 34.5307617,29.5811203 C34.5307617,31.895585 33.4160268,33.0528 31.1865234,33.0528 Z M30.9008789,27.6167648 L30.9008789,32.0112961 C31.0854501,32.0288743 31.2846669,32.0376633 31.4985352,32.0376633 C32.0756865,32.0376633 32.5275863,31.8281927 32.854248,31.4092453 C33.1809098,30.9902979 33.3442383,30.4043663 33.3442383,29.6514328 C33.3442383,28.2744728 32.704108,27.5860031 31.4238281,27.5860031 C31.3007806,27.5860031 31.126466,27.5962569 30.9008789,27.6167648 Z M39.2988281,33.0528 L38.8286133,31.7476242 L36.6225586,31.7476242 L36.1743164,33.0528 L34.9042969,33.0528 L37.4707031,26.5269211 L37.9716797,26.5269211 L40.5600586,33.0528 L39.2988281,33.0528 Z M37.7211914,28.4956711 L36.9477539,30.8731125 L38.4946289,30.8731125 L37.7211914,28.4956711 Z M44.8710938,33.0528 L43.152832,30.3941086 C42.9799796,30.3911789 42.7382828,30.3809251 42.4277344,30.3633469 L42.4277344,33.0528 L41.2412109,33.0528 L41.2412109,26.6148117 C41.3056644,26.6148117 41.5532205,26.6038255 41.9838867,26.5818527 C42.4145529,26.55988 42.7617174,26.5488938 43.0253906,26.5488938 C44.6601644,26.5488938 45.4775391,27.1816999 45.4775391,28.4473313 C45.4775391,28.8281925 45.3647472,29.175357 45.1391602,29.4888352 C44.9135731,29.8023133 44.6293962,30.0235025 44.2866211,30.1524094 L46.1894531,33.0528 L44.8710938,33.0528 Z M42.4277344,27.6079758 L42.4277344,29.39655 C42.6386729,29.4141282 42.7998041,29.4229172 42.9111328,29.4229172 C43.3886743,29.4229172 43.738036,29.355535 43.9592285,29.2207688 C44.180421,29.0860025 44.2910156,28.823798 44.2910156,28.4341477 C44.2910156,28.1177398 44.1723645,27.8965506 43.9350586,27.7705734 C43.6977527,27.6445962 43.3242213,27.5816086 42.8144531,27.5816086 C42.6914056,27.5816086 42.5625007,27.5903976 42.4277344,27.6079758 Z M48.1669922,33.0528 L46.7387695,33.0528 L46.7387695,26.6192063 C47.6499069,26.5869795 48.2226551,26.5708664 48.4570312,26.5708664 C49.3945359,26.5708664 50.1379367,26.8455219 50.6872559,27.394841 C51.236575,27.9441602 51.5112305,28.6729126 51.5112305,29.5811203 C51.5112305,31.895585 50.3964955,33.0528 48.1669922,33.0528 Z M47.8813477,27.6167648 L47.8813477,32.0112961 C48.0659189,32.0288743 48.2651356,32.0376633 48.4790039,32.0376633 C49.0561552,32.0376633 49.508055,31.8281927 49.8347168,31.4092453 C50.1613786,30.9902979 50.324707,30.4043663 50.324707,29.6514328 C50.324707,28.2744728 49.6845767,27.5860031 48.4042969,27.5860031 C48.2812494,27.5860031 48.1069347,27.5962569 47.8813477,27.6167648 Z" id="STANDARD" fill="#FFFFFF"></path>
        </g>
    </g>
</svg>
