<svg viewBox="0 0 60 60" version="1.1" xmlns="http://www.w3.org/2000/svg" xmlns:xlink="http://www.w3.org/1999/xlink">
    <g id="Page-1" stroke-width="1" fill-rule="evenodd">
        <g id="dmd_suite" transform="translate(-0.030262, 0.000000)">
            <polygon id="Rectangle-4" fill="#235578" points="30 0 60 30 30 60 -5.68434189e-14 30"></polygon>
            <path d="M16.9644711,32.6572922 L17.4332211,31.5195969 C17.9345257,31.8711611 18.4276849,32.0469406 18.9127133,32.0469406 C19.6581598,32.0469406 20.0308774,31.7865266 20.0308774,31.2656906 C20.0308774,31.0215488 19.9429876,30.7888037 19.7672055,30.5674484 C19.5914234,30.3460932 19.2292851,30.097886 18.6807797,29.8228195 C18.1322744,29.5477531 17.7628119,29.3215183 17.5723813,29.1441086 C17.3819507,28.9666989 17.2354677,28.7559262 17.1329282,28.5117844 C17.0303886,28.2676425 16.9791196,27.9974629 16.9791196,27.7012375 C16.9791196,27.1478493 17.1817543,26.6888695 17.5870297,26.3242844 C17.9923052,25.9596992 18.5123195,25.7774094 19.1470883,25.7774094 C19.9739154,25.7774094 20.5810057,25.9320302 20.9683774,26.2412766 L20.5826352,27.3350266 C20.1366694,27.0160146 19.6662965,26.8565109 19.1715024,26.8565109 C18.8785322,26.8565109 18.6514837,26.9338214 18.49035,27.0884445 C18.3292164,27.2430677 18.2486508,27.4440748 18.2486508,27.6914719 C18.2486508,28.1016302 18.7027478,28.5280582 19.6109555,28.9707688 C20.0894735,29.2051449 20.4345222,29.4208003 20.6461118,29.6177414 C20.8577014,29.8146825 21.0188326,30.0441724 21.1295102,30.306218 C21.2401878,30.5682635 21.2955258,30.8604156 21.2955258,31.1826828 C21.2955258,31.7621128 21.0668497,32.238996 20.6094907,32.6133469 C20.1521316,32.9876977 19.5393448,33.1748703 18.7711118,33.1748703 C18.1037907,33.1748703 17.5015832,33.002346 16.9644711,32.6572922 Z M22.4185727,25.8994797 L23.688104,25.8994797 L23.688104,30.7481125 C23.688104,31.132229 23.8052903,31.4447259 24.0396665,31.6856125 C24.2740426,31.9264991 24.596305,32.0469406 25.0064633,32.0469406 C25.46545,32.0469406 25.8227055,31.9289405 26.0782407,31.6929367 C26.3337758,31.4569329 26.4615415,31.1338567 26.4615415,30.7236984 L26.4615415,25.8994797 L27.7310727,25.8994797 L27.7310727,30.8213547 C27.7310727,31.5570354 27.4844931,32.1332016 26.9913266,32.5498703 C26.4981601,32.9665391 25.8398008,33.1748703 25.016229,33.1748703 C24.1861467,33.1748703 23.5456908,32.9714218 23.0948422,32.5645188 C22.6439936,32.1576157 22.4185727,31.5749392 22.4185727,30.8164719 L22.4185727,25.8994797 Z M29.2203305,33.0528 L29.2203305,25.8994797 L30.4898618,25.8994797 L30.4898618,33.0528 L29.2203305,33.0528 Z M34.8892758,27.0274094 L34.8892758,33.0528 L33.6197446,33.0528 L33.6197446,27.0274094 L31.344354,27.0274094 L31.344354,25.8994797 L37.2672055,25.8994797 L37.2672055,27.0274094 L34.8892758,27.0274094 Z M39.3668149,27.0274094 L39.3668149,28.7022141 L41.7300961,28.7022141 L41.7300961,29.7813156 L39.3668149,29.7813156 L39.3668149,31.9248703 L42.6090024,31.9248703 L42.6090024,33.0528 L38.0972836,33.0528 L38.0972836,25.8994797 L42.6627133,25.8994797 L42.6627133,27.0274094 L39.3668149,27.0274094 Z" id="SUITE-Copy" fill="#FFFFFF"></path>
        </g>
    </g>
</svg>
