<svg viewBox="0 0 60 60" version="1.1" xmlns="http://www.w3.org/2000/svg" xmlns:xlink="http://www.w3.org/1999/xlink">
    <g id="Page-1" stroke-width="1" fill-rule="evenodd">
        <g id="dmd_deluxe" transform="translate(-0.030262, 0.000000)">
            <polygon id="Rectangle-4" fill="#78B4C3" points="30 0 60 30 30 60 0 30"></polygon>
            <path d="M14.0762875,33.0528 L12.4893735,33.0528 L12.4893735,25.9043625 C13.5017483,25.868555 14.1381352,25.8506516 14.3985532,25.8506516 C15.440225,25.8506516 16.2662259,26.1558243 16.8765805,26.7661789 C17.4869351,27.3765335 17.7921079,28.1862585 17.7921079,29.1953781 C17.7921079,31.7670056 16.5535135,33.0528 14.0762875,33.0528 Z M13.7589047,27.0127609 L13.7589047,31.8955734 C13.9639839,31.9151048 14.1853358,31.9248703 14.4229672,31.9248703 C15.0642465,31.9248703 15.5663573,31.6921252 15.9293149,31.2266281 C16.2922724,30.761131 16.4737485,30.1100958 16.4737485,29.2735031 C16.4737485,27.7435476 15.7624926,26.9785813 14.3399594,26.9785813 C14.20324,26.9785813 14.009557,26.9899744 13.7589047,27.0127609 Z M20.184686,27.0274094 L20.184686,28.7022141 L22.5479672,28.7022141 L22.5479672,29.7813156 L20.184686,29.7813156 L20.184686,31.9248703 L23.4268735,31.9248703 L23.4268735,33.0528 L18.9151547,33.0528 L18.9151547,25.8994797 L23.4805844,25.8994797 L23.4805844,27.0274094 L20.184686,27.0274094 Z M24.6036313,33.0528 L24.6036313,25.8994797 L25.8731625,25.8994797 L25.8731625,31.9248703 L29.1055844,31.9248703 L29.1055844,33.0528 L24.6036313,33.0528 Z M30.130975,25.8994797 L31.4005063,25.8994797 L31.4005063,30.7481125 C31.4005063,31.132229 31.5176926,31.4447259 31.7520688,31.6856125 C31.986445,31.9264991 32.3087074,32.0469406 32.7188657,32.0469406 C33.1778523,32.0469406 33.5351079,31.9289405 33.790643,31.6929367 C34.0461781,31.4569329 34.1739438,31.1338567 34.1739438,30.7236984 L34.1739438,25.8994797 L35.443475,25.8994797 L35.443475,30.8213547 C35.443475,31.5570354 35.1968955,32.1332016 34.703729,32.5498703 C34.2105624,32.9665391 33.5522031,33.1748703 32.7286313,33.1748703 C31.898549,33.1748703 31.2580932,32.9714218 30.8072446,32.5645188 C30.356396,32.1576157 30.130975,31.5749392 30.130975,30.8164719 L30.130975,25.8994797 Z M40.7755063,33.0528 L39.0860532,30.4795578 L37.5235532,33.0528 L36.200311,33.0528 L38.3438657,29.3467453 L36.3712094,25.8945969 L37.6700375,25.8994797 L39.1202329,28.3164719 L40.7169125,25.8994797 L42.0450375,25.8994797 L39.7794125,29.3662766 L42.1573422,33.0528 L40.7755063,33.0528 Z M44.1837094,27.0274094 L44.1837094,28.7022141 L46.5469907,28.7022141 L46.5469907,29.7813156 L44.1837094,29.7813156 L44.1837094,31.9248703 L47.4258969,31.9248703 L47.4258969,33.0528 L42.9141782,33.0528 L42.9141782,25.8994797 L47.4796079,25.8994797 L47.4796079,27.0274094 L44.1837094,27.0274094 Z" id="DELUXE" fill="#FFFFFF"></path>
        </g>
    </g>
</svg>
