<svg xmlns="http://www.w3.org/2000/svg" viewBox="0 0 36.95 53.38"><defs></defs><title>dollar</title><g id="Calque_2" data-name="Calque 2"><g id="grid_12" data-name="grid 12"><path class="cls-1" d="M17,53.38V47.24C10.42,46.93,3.91,44.7,0,41.1l5.83-5.27a17.3,17.3,0,0,0,11.16,5V28.64l-2.79-.43C8.06,27.34,1.74,23.5,1.74,16.43,1.74,8.8,7.75,4.71,17,4.28V0h6V4.4A26.76,26.76,0,0,1,35.77,8.87l-5.64,5.08A19.33,19.33,0,0,0,23,11V22.44l2.36.31C32.73,23.81,37,28.08,37,34.59,37,40.92,31.74,45.82,23,47v6.39Zm0-31.8V10.73c-4.22.43-6.45,2.48-6.45,5.21,0,3.1,2,5,6.26,5.58Zm6,7.87v11c3.47-.93,5.15-3,5.15-5.89C28.15,32,26.72,30,23,29.45Z"/></g></g></svg>
