<svg xmlns="http://www.w3.org/2000/svg" xmlns:xlink="http://www.w3.org/1999/xlink" viewBox="0 0 500 401" version="1.1">
    <g id="Page-1" stroke="none" stroke-width="1" fill="none" fill-rule="evenodd">
        <g id="icon_donation" fill="#005589" fill-rule="nonzero">
            <path d="M500,330.436238 C451.703628,317.002471 406.81405,336.843112 406.01245,336.326428 L309.419705,379.004468 C221.143554,423.85258 175.552579,383.241273 175.552579,383.241273 C175.552579,383.241273 40.2826539,290.031603 18.2386662,274.324432 C-3.80532143,259.340616 0.30287619,252.210387 0.30287619,252.210387 C4.41107381,210.875722 47.1964503,230.819698 47.1964503,230.819698 L152.807192,277.837878 C157.616789,355.44371 238.377944,329.816219 238.377944,329.816219 L341.884485,285.691466 C319.139101,265.74749 285.972919,279.284592 285.972919,279.284592 C285.972919,279.284592 227.95715,312.76567 203.107564,299.951923 C169.239983,282.798038 190.682771,259.340616 190.682771,259.340616 C190.682771,259.340616 352.205081,188.96835 359.820279,186.074924 C416.433248,156.830649 467.53522,178.944694 467.53522,178.944694 L500,190.311727 L500,330.436238 Z M135.287362,210.24543 C135.253668,210.255586 135.220587,210.26445 135.18633,210.272502 C134.800084,210.375996 134.373015,210.345016 133.957173,210.152088 C132.645344,209.544318 101.651134,195.093784 87.5286869,179.682269 C87.5096884,179.661433 87.4915834,179.640358 87.4725849,179.619523 C84.3042654,176.11736 81.955566,171.750806 80.6786955,166.985459 C76.8145482,152.564266 83.6451414,138.158627 95.904869,134.873643 C103.003029,132.971697 110.657221,135.172677 116.583829,140.646748 C118.979387,132.942759 124.508515,127.209319 131.605781,125.307612 C143.865509,122.022628 156.983795,131.082981 160.847942,145.504174 C162.124813,150.26952 162.274057,155.225418 161.281293,159.842538 C161.276152,159.869843 161.27101,159.897147 161.264081,159.92493 C156.740334,180.332677 137.123828,208.344312 136.290742,209.526811 C136.028864,209.901333 135.674502,210.141697 135.287362,210.24543 Z M238.982042,169.567841 C238.911953,169.561429 238.843967,169.553081 238.774409,169.542346 C237.980628,169.444882 237.211895,169.067468 236.585316,168.398155 C234.608052,166.288287 187.959921,116.270411 173.318221,77.1110721 C173.2986,77.0582011 173.280817,77.0055555 173.261197,76.9526845 C170.009834,68.0846413 168.925962,58.2277664 170.128435,48.434414 C173.767433,18.7971483 197.226759,-2.79863228 222.421955,0.29494893 C237.009518,2.08607615 249.554201,11.9021238 256.443065,26.4933575 C266.657241,14.0021131 281.205848,7.51270309 295.791571,9.30360497 C320.986767,12.3971858 338.524758,39.0268044 334.885758,68.66407 C333.683289,78.4574225 330.247017,87.7592935 324.946859,95.5773423 C324.916868,95.6241217 324.886877,95.670901 324.853213,95.7172293 C301.174769,130.171446 243.811869,167.418373 241.381076,168.987001 C240.614863,169.4853 239.77766,169.66553 238.982042,169.567841 Z" id="path-1"/>
        </g>
    </g>
</svg>
