<svg viewBox="0 0 276 501" version="1.1" xmlns="http://www.w3.org/2000/svg" xmlns:xlink="http://www.w3.org/1999/xlink">
    <title>Fill 1</title>
    <defs></defs>
    <g id="Page-1" stroke-width="1" fill-rule="evenodd">
        <g id="icon-extra" transform="translate(0.452800, 0.000000)">
            <path d="M261.614654,500.146897 L0.364653864,500.146897 L0.364653864,309.357423 C0.364653864,280.054792 21.5809039,263.120581 42.3434039,250.423213 L155.712154,181.278476 C178.427154,167.357423 185.989654,158.25216 185.989654,131.725844 C185.989654,106.331108 164.402154,85.6732129 137.864654,85.6732129 C111.327154,85.6732129 89.7396539,106.331108 89.7396539,131.725844 C89.7396539,155.436371 69.5821539,174.725844 44.8046539,174.725844 C20.3021539,174.725844 0.364653864,155.436371 0.364653864,131.725844 C0.364653864,59.1732129 62.0471539,0.146897103 137.864654,0.146897103 C213.682154,0.146897103 275.364654,59.1732129 275.364654,131.725844 L275.364654,434.357423 L247.864654,434.357423 L247.864654,131.725844 C247.864654,73.6863708 198.515904,26.4626866 137.864654,26.4626866 C77.2134039,26.4626866 27.8646539,73.6863708 27.8646539,131.725844 C27.8646539,140.923213 35.4684039,148.410055 44.8046539,148.410055 C54.2509039,148.410055 62.2396539,140.778476 62.2396539,131.725844 C62.2396539,91.8311076 96.1609039,59.3574234 137.864654,59.3574234 C179.568404,59.3574234 213.489654,91.8311076 213.489654,131.725844 C213.489654,169.883739 198.392154,186.370581 170.520904,203.436371 L57.1384039,272.607423 C39.5796539,283.357423 27.8646539,293.725844 27.8646539,309.357423 L27.8646539,473.831108 L261.614654,473.831108 L261.614654,500.146897 Z M116.6197,400.146897 L75.3646539,359.918947 L94.1398822,341.592306 L116.6197,363.519517 L181.589425,300.146897 L200.364654,318.460587 L116.6197,400.146897 Z" id="Fill-1"></path>
        </g>
    </g>
</svg>
