<svg id="Calque_1" data-name="Calque 1" xmlns="http://www.w3.org/2000/svg" viewBox="0 0 100 100"><defs></defs><title>Double balcony</title><path class="cls-1" d="M80.53,55.42a1.5,1.5,0,0,0-1.5-1.5H72.32V2.75a1.5,1.5,0,0,0-1.5-1.5H10.21a1.5,1.5,0,0,0-1.5,1.5V53.92H2a1.5,1.5,0,0,0,0,3H5.51L.6,69.89a1.47,1.47,0,0,0-.06.88l4.15,17.1v9.88a1.5,1.5,0,0,0,1.5,1.5H74.84a1.5,1.5,0,0,0,1.5-1.5V87.87l4.15-17.1a1.47,1.47,0,0,0-.06-.88l-4.91-13H79A1.5,1.5,0,0,0,80.53,55.42ZM7.34,86,3.57,70.51,8.72,56.92H20.09L18,71.21a1.69,1.69,0,0,0,0,.45L20.09,86H7.68A1.86,1.86,0,0,0,7.34,86ZM39,96.25H7.69V89H39ZM39,86H23.12L21,71.44l2.17-14.52H39ZM11.71,53.92V4.25H69.32V53.92H11.71Zm48,17.52L57.57,86H42V56.92H57.57ZM73.34,96.25H42V89H73a1.24,1.24,0,0,0,.33,0Zm4.12-25.74L73.67,86.16A1.46,1.46,0,0,0,73,86H60.6l2.15-14.34a1.7,1.7,0,0,0,0-.45L60.6,56.92H72.31Z"/><path class="cls-1" d="M84.63,8l3.22-5a.29.29,0,0,0-.27-.45H85.72a.32.32,0,0,0-.26.14L83.4,6.09h-.06l-2-3.39a.33.33,0,0,0-.26-.14H79.21a.29.29,0,0,0-.28.45l3.21,5-3.33,5.29a.29.29,0,0,0,.28.45h1.73a.38.38,0,0,0,.28-.14L83.34,10h.06l2.29,3.67a.32.32,0,0,0,.27.14h1.73a.29.29,0,0,0,.27-.45Z"/><path class="cls-1" d="M97.11,12H93.59v0c.87-1.11,2.11-2.64,2.8-3.63A4.41,4.41,0,0,0,97.5,5.68c0-1.78-1.32-3.28-3.68-3.28A4.59,4.59,0,0,0,90.57,4a.35.35,0,0,0,0,.44l.8.78a.29.29,0,0,0,.45,0,2.73,2.73,0,0,1,1.84-1,1.55,1.55,0,0,1,1.75,1.49,3.05,3.05,0,0,1-.84,1.82c-1,1.4-3,4-4.14,5.33a.64.64,0,0,0-.13.37v.16a.31.31,0,0,0,.3.32h6.5a.32.32,0,0,0,.32-.32V12.31A.32.32,0,0,0,97.11,12Z"/></svg>
