<svg id="Calque_1" data-name="Calque 1" xmlns="http://www.w3.org/2000/svg" viewBox="0 0 499.3 239.82"><defs><style>.cls-1{fill:#010101;}</style></defs><title>douban</title><path class="cls-1" d="M1.27 3.81h234.11v26.01H1.27zM192.23 152.9h23.47v-99h-196v98.34H40l17.76 56.46H0v22.21h234.11v-22.18h-57.74zM59 79.31h118.64v47.58H59V79.31zm83.75 129.42h-52l-17.79-56.46h86.28zM321.66 140.85l-17.13 3.16v-27.27H328V92.01h-9.52l3.17-52h4.44V20.3h-24.1V.64H282.3v19.67h-23.45v19.7h3.81l3.17 52h-12.69v24.74h26.65v31.09l-22.21 3.81v24.11l22.21-3.81c-2.54 24.06-16.49 57.06-16.49 57.72l22.21 10.15c.63-1.9 18.4-42.51 19-72.33l17.13-2.54v-24.1zm-23.48-48.84H285.5l-3.2-52h19.67z"/><path class="cls-1" d="M416.19 149.73V20.94l5.71-1.27L406.04.01 329.3 17.13v147.82c0 18.4-13.32 52.66-18.4 64.71l19 8.25c.63-1.9 20.3-46.31 20.3-73V34.26l11.42-2.54v175.1h-15.85v26.65l50.12-5.71v-20.93h-13.33V27.28l12.74-2.54v125c0 4.44-1.27 54.56 19 86.92 7.61-1.9 14.59-3.81 22.21-5.71l-3.21-3.82c-18.4-26.65-17.13-76.77-17.13-77.4z"/><path class="cls-1" d="M499.3 116.74V92.01h-11.42l3.17-50.75h7V19.01h-26.67V.61h-20.93v18.4H423.8v22.21h5.71l5.08 50.79h-12.06v24.74h26v29.82H426.3v24.74h22.21v64.7h24.79v-65.35h22.21v-24.74H473.3V116.1h26v.63zm-32.36-24.73h-11.42l-5.08-50.75h19.67z"/></svg>