<svg id="Calque_1" data-name="Calque 1" xmlns="http://www.w3.org/2000/svg" viewBox="0 0 24 24"><defs></defs><title>Dressing</title><path class="cls-1" d="M23.21.42H.79A.38.38,0,0,0,.42.79V23.21a.38.38,0,0,0,.75,0v-.75H22.83v.75a.38.38,0,0,0,.75,0V.79A.38.38,0,0,0,23.21.42ZM14.44,6.49h8.39v4.57H14.44ZM13.69,3.3H1.17V1.17H13.69Zm.75,8.51h8.39v4.58H14.44Zm8.39-6.07H14.44V1.17h8.39ZM1.17,4.05H13.69V21.71H1.17ZM14.44,21.71V17.14h8.39v4.57Z"/><path class="cls-1" d="M17.69,3.82h1.89a.38.38,0,1,0,0-.75H17.69a.38.38,0,0,0,0,.75Z"/><path class="cls-1" d="M19.58,8.4H17.69a.38.38,0,0,0,0,.75h1.89a.38.38,0,1,0,0-.75Z"/><path class="cls-1" d="M19.58,13.73H17.69a.38.38,0,0,0-.37.38.37.37,0,0,0,.37.37h1.89a.37.37,0,0,0,.38-.37A.38.38,0,0,0,19.58,13.73Z"/><path class="cls-1" d="M19.58,19.07H17.69a.37.37,0,0,0-.37.37.38.38,0,0,0,.37.38h1.89a.38.38,0,0,0,.38-.38A.37.37,0,0,0,19.58,19.07Z"/><path class="cls-1" d="M10.15,10.8a.09.09,0,0,1,0-.05L11,6.41a.38.38,0,0,0-.08-.31A.37.37,0,0,0,10.62,6H9.2a.37.37,0,0,0-.35.25,1.53,1.53,0,0,1-1.42,1A1.51,1.51,0,0,1,6,6.21.39.39,0,0,0,5.66,6H4.24A.37.37,0,0,0,4,6.1a.38.38,0,0,0-.08.31l.86,4.36a9.56,9.56,0,0,0-1.19,4.46,14.25,14.25,0,0,0,.32,3.58.38.38,0,0,0,.36.27h6.42a.37.37,0,0,0,.36-.27,14.25,14.25,0,0,0,.32-3.58A9.71,9.71,0,0,0,10.15,10.8ZM4.7,6.71h.72a2.26,2.26,0,0,0,4,0h.72l-.73,3.73h-4Zm5.64,11.62H4.52a17.36,17.36,0,0,1-.23-3.1,9,9,0,0,1,1.07-4H9.5a8.77,8.77,0,0,1,1.07,4A17.36,17.36,0,0,1,10.34,18.33Z"/></svg>
