<svg xmlns="http://www.w3.org/2000/svg" viewBox="0 0 21.5 30.42"><title>dresscode</title><g id="Layer_2" data-name="Layer 2"><g id="Layer_1-2" data-name="Layer 1"><path d="M10.75,15.14a7.57,7.57,0,1,1,7.57-7.57A7.58,7.58,0,0,1,10.75,15.14Zm0-13.64a6.07,6.07,0,1,0,6.07,6.07A6.07,6.07,0,0,0,10.75,1.5Z"/><path d="M20.75,30.42a.75.75,0,0,1-.75-.75c0-3.46-.18-7-2.31-9a.75.75,0,1,1,1-1.08C21.29,22,21.5,25.88,21.5,29.67A.75.75,0,0,1,20.75,30.42Z"/><path d="M.75,30.42A.75.75,0,0,1,0,29.67C0,25.88.21,22,2.77,19.54a.75.75,0,1,1,1,1.08c-2.13,2-2.31,5.58-2.31,9A.75.75,0,0,1,.75,30.42Z"/><path d="M15.63,16.47a1.73,1.73,0,0,0-1.75,0L11.21,18a1.76,1.76,0,0,0-.4.32,1.76,1.76,0,0,0-.4-.32L7.74,16.47A1.75,1.75,0,0,0,5.11,18v3.08a1.75,1.75,0,0,0,2.63,1.52L10.41,21a1.76,1.76,0,0,0,.4-.32,1.76,1.76,0,0,0,.4.32l2.67,1.54a1.75,1.75,0,0,0,2.63-1.52V18A1.73,1.73,0,0,0,15.63,16.47Zm-6,3.27L7,21.28a.25.25,0,0,1-.37-.22V18a.24.24,0,0,1,.13-.22.26.26,0,0,1,.13,0,.25.25,0,0,1,.12,0l2.67,1.54a.25.25,0,0,1,0,.43ZM15,21.06a.25.25,0,0,1-.37.22L12,19.74a.25.25,0,0,1,0-.43l2.67-1.54a.25.25,0,0,1,.12,0,.26.26,0,0,1,.13,0A.24.24,0,0,1,15,18Z"/><circle cx="10.75" cy="25.21" r="1"/><circle cx="10.75" cy="29.21" r="1"/></g></g></svg>