<svg id="Calque_1" data-name="Calque 1" xmlns="http://www.w3.org/2000/svg" viewBox="0 0 24 24"><defs></defs><title>Coiffeuse</title><path class="cls-1" d="M22.12,13.29H14.67A7,7,0,0,0,18,7.14C18,3.35,15.29.26,12,.26S6,3.35,6,7.14a7,7,0,0,0,3.3,6.15H1.88a.37.37,0,0,0-.37.38v.83a2.37,2.37,0,0,0,2.37,2.37H4v6.54a.38.38,0,0,0,.75,0V20.54H19.29v2.87a.38.38,0,0,0,.75,0V16.87h.08a2.37,2.37,0,0,0,2.37-2.37v-.83A.37.37,0,0,0,22.12,13.29ZM6.78,7.14C6.78,3.76,9.12,1,12,1s5.22,2.75,5.22,6.13S14.88,13.28,12,13.28,6.78,10.53,6.78,7.14ZM19.29,19.79H4.71V16.87H19.29Zm2.45-5.29a1.62,1.62,0,0,1-1.62,1.62H3.88A1.62,1.62,0,0,1,2.26,14.5V14H21.74Z"/><path class="cls-1" d="M11.05,18.71H13a.38.38,0,0,0,.37-.38A.37.37,0,0,0,13,18h-1.9a.37.37,0,0,0-.37.37A.38.38,0,0,0,11.05,18.71Z"/><path class="cls-1" d="M14.82,5.06a.39.39,0,0,0-.53,0l-4.5,4.5a.39.39,0,0,0,0,.53.39.39,0,0,0,.54,0l4.49-4.5A.37.37,0,0,0,14.82,5.06Z"/><path class="cls-1" d="M12.53,11.14l2.59-2.59A.37.37,0,1,0,14.59,8L12,10.61a.37.37,0,0,0,0,.53.34.34,0,0,0,.26.11A.36.36,0,0,0,12.53,11.14Z"/></svg>
