<svg viewBox="0 0 423 501" version="1.1" xmlns="http://www.w3.org/2000/svg" xmlns:xlink="http://www.w3.org/1999/xlink">
    <title>Rectangle-path</title>
    <defs></defs>
    <g id="Page-1" stroke-width="1" fill-rule="evenodd">
        <g id="dryer" transform="translate(0.064647, 0.116400)" fill-rule="nonzero">
            <path d="M16.6306421,16.7806421 L16.6306421,484.129358 L405.833951,484.129358 L405.833951,16.7806421 L16.6306421,16.7806421 Z M8.46782107,0.455 L413.996772,0.455 C418.504973,0.455 422.159593,4.10961948 422.159593,8.61782107 L422.159593,492.292179 C422.159593,496.800381 418.504973,500.455 413.996772,500.455 L8.46782107,500.455 C3.95961948,500.455 0.305,496.800381 0.305,492.292179 L0.305,8.61782107 C0.305,4.10961948 3.95961948,0.455 8.46782107,0.455 Z M340.711913,345.237416 L356.241144,350.274238 C331.311424,427.136069 253.138624,473.489677 173.739134,458.491249 C94.3396435,443.49282 38.462331,371.817375 43.288109,291.157944 C48.1138869,210.498513 112.138557,145.99669 192.759934,140.57216 C273.381311,135.147629 345.469663,190.491221 361.057208,269.777161 L345.038208,272.926483 C331.035836,201.703519 266.278504,151.988089 193.855911,156.860972 C121.433318,161.733856 63.9196312,219.676171 59.5846104,292.132948 C55.2495895,364.589725 105.444463,428.976142 176.769429,442.449307 C248.094395,455.922471 318.317419,414.282789 340.711913,345.237416 Z M326.164817,335.674852 L364.693333,335.674852 L364.693333,277.555566 L326.164817,277.555566 L326.164817,335.674852 Z M318.001996,261.229924 L372.856154,261.229924 C377.364355,261.229924 381.018975,264.884543 381.018975,269.392745 L381.018975,343.837673 C381.018975,348.345875 377.364355,352.000494 372.856154,352.000494 L318.001996,352.000494 C313.493794,352.000494 309.839175,348.345875 309.839175,343.837673 L309.839175,269.392745 C309.839175,264.884543 313.493794,261.229924 318.001996,261.229924 Z M149.175774,245.337331 C147.433874,241.179246 149.392578,236.396364 153.550662,234.654464 C157.708747,232.912563 162.491629,234.871268 164.233529,239.029352 C166.305232,243.974706 174.257791,258.672513 172.872765,255.937779 C176.665668,263.426866 178.363337,270.094364 178.363337,279.623481 C178.363337,289.778342 174.650177,296.452079 165.539624,307.437211 C164.218443,309.026414 163.602881,309.769294 162.97691,310.538262 C158.70188,315.789876 156.896466,318.949421 156.5655,321.684609 C155.398203,335.191415 158.775638,348.701155 166.16175,360.069609 C168.617877,363.849996 167.544352,368.905689 163.763965,371.361816 C159.983578,373.817942 154.927885,372.744417 152.471759,368.96403 C143.103685,354.545007 138.819961,337.410112 140.327746,320.013983 C141.155198,313.084074 144.220801,307.719149 150.315905,300.231683 C150.994219,299.398416 151.661884,298.592656 152.973354,297.015337 C159.764692,288.82662 162.037695,284.741306 162.037695,279.623481 C162.037695,272.751321 160.980366,268.593034 158.315104,263.327054 C160.011306,266.678959 151.613737,251.156984 149.175774,245.337331 Z M225.579779,245.337331 C223.837879,241.179246 225.796583,236.396364 229.954668,234.654464 C234.112752,232.912563 238.895634,234.871268 240.637535,239.029352 C242.709237,243.974706 250.661796,258.672513 249.27677,255.937779 C253.069673,263.426866 254.767342,270.094364 254.767342,279.623481 C254.767342,289.778342 251.054182,296.452079 241.943629,307.437211 C240.622448,309.026414 240.006886,309.769294 239.380915,310.538262 C235.105885,315.789876 233.300471,318.949421 232.965593,321.728494 C231.727238,335.208893 235.036459,348.715916 242.365926,360.097198 C244.806815,363.88744 243.712949,368.938771 239.922707,371.379661 C236.132464,373.820551 231.081133,372.726684 228.640243,368.936442 C219.336953,354.490183 215.136559,337.345721 216.731751,320.013983 C217.559203,313.084074 220.624806,307.719149 226.719911,300.231683 C227.398225,299.398416 228.06589,298.592656 229.377359,297.015337 C236.168697,288.82662 238.4417,284.741306 238.4417,279.623481 C238.4417,272.751321 237.384371,268.593034 234.719109,263.327054 C236.415311,266.678959 228.017742,251.156984 225.579779,245.337331 Z M8.46782107,104.93911 L8.46782107,88.6134676 L414.214447,88.6134676 L414.214447,104.93911 L8.46782107,104.93911 Z M47.431687,64.1250044 C41.4207515,64.1250044 36.5479256,59.2521784 36.5479256,53.2412429 C36.5479256,47.2303075 41.4207515,42.3574815 47.431687,42.3574815 C53.4426224,42.3574815 58.3154484,47.2303075 58.3154484,53.2412429 C58.3154484,59.2521784 53.4426224,64.1250044 47.431687,64.1250044 Z M101.415144,64.1250044 C95.4042082,64.1250044 90.5313822,59.2521784 90.5313822,53.2412429 C90.5313822,47.2303075 95.4042082,42.3574815 101.415144,42.3574815 C107.426079,42.3574815 112.298905,47.2303075 112.298905,53.2412429 C112.298905,59.2521784 107.426079,64.1250044 101.415144,64.1250044 Z M155.616276,64.1250044 C149.60534,64.1250044 144.732514,59.2521784 144.732514,53.2412429 C144.732514,47.2303075 149.60534,42.3574815 155.616276,42.3574815 C161.627211,42.3574815 166.500037,47.2303075 166.500037,53.2412429 C166.500037,59.2521784 161.627211,64.1250044 155.616276,64.1250044 Z" id="Rectangle-path"></path>
        </g>
    </g>
</svg>
