<svg id="Calque_1" data-name="Calque 1" xmlns="http://www.w3.org/2000/svg" viewBox="0 0 24 24"><defs></defs><title>Salle d&amp;apos;eau au rez
de chaussée et à
l&amp;apos;étage</title><path class="cls-1" d="M19.05,15.44H3.6a.38.38,0,0,0-.37.38.37.37,0,0,0,.37.37H19.05a.37.37,0,0,0,.38-.37A.38.38,0,0,0,19.05,15.44Z"/><path class="cls-1" d="M11,6.06V8a8.42,8.42,0,0,0-7.7,5.89.37.37,0,0,0,0,.34.37.37,0,0,0,.3.15H19.05a.36.36,0,0,0,.3-.15.41.41,0,0,0,.06-.34A8.43,8.43,0,0,0,11.7,8V6.06A2.37,2.37,0,0,0,9.33,3.69H.47a.38.38,0,1,0,0,.75H9.33A1.63,1.63,0,0,1,11,6.06Zm7.57,7.52H4.13a7.73,7.73,0,0,1,14.39,0Z"/><path class="cls-1" d="M6.34,17.71a.36.36,0,0,0-.37.37v1.35a.37.37,0,0,0,.37.38.38.38,0,0,0,.38-.38V18.08A.37.37,0,0,0,6.34,17.71Z"/><path class="cls-1" d="M9.67,17.71a.37.37,0,0,0-.38.37v1.35a.38.38,0,1,0,.75,0V18.08A.37.37,0,0,0,9.67,17.71Z"/><path class="cls-1" d="M13,17.71a.37.37,0,0,0-.38.37v1.35a.38.38,0,1,0,.76,0V18.08A.37.37,0,0,0,13,17.71Z"/><path class="cls-1" d="M16.31,17.71a.37.37,0,0,0-.37.37v1.35a.38.38,0,1,0,.75,0V18.08A.37.37,0,0,0,16.31,17.71Z"/><path class="cls-1" d="M6.34,21.15a.36.36,0,0,0-.37.37v1.35a.37.37,0,0,0,.37.38.38.38,0,0,0,.38-.38V21.52A.37.37,0,0,0,6.34,21.15Z"/><path class="cls-1" d="M9.67,21.15a.37.37,0,0,0-.38.37v1.35a.38.38,0,1,0,.75,0V21.52A.37.37,0,0,0,9.67,21.15Z"/><path class="cls-1" d="M13,21.15a.37.37,0,0,0-.38.37v1.35a.38.38,0,0,0,.76,0V21.52A.37.37,0,0,0,13,21.15Z"/><path class="cls-1" d="M16.31,21.15a.37.37,0,0,0-.37.37v1.35a.38.38,0,1,0,.75,0V21.52A.37.37,0,0,0,16.31,21.15Z"/><path class="cls-1" d="M15.57,5.71a.15.15,0,0,0,.13-.08L16.82,3.8h0L18,5.63a.14.14,0,0,0,.13.08H19a.14.14,0,0,0,.13-.23L17.47,2.84,19.08.33a.14.14,0,0,0-.14-.22H18a.17.17,0,0,0-.13.07l-1,1.7h0l-1-1.7a.15.15,0,0,0-.12-.07h-.93a.14.14,0,0,0-.14.22l1.6,2.51L14.56,5.48a.15.15,0,0,0,.14.23Z"/><path class="cls-1" d="M23.71,4.83H22v0C22.38,4.26,23,3.49,23.35,3a2.22,2.22,0,0,0,.55-1.33A1.66,1.66,0,0,0,22.06,0a2.3,2.3,0,0,0-1.62.81.15.15,0,0,0,0,.21l.4.39a.13.13,0,0,0,.22,0A1.39,1.39,0,0,1,22,1a.77.77,0,0,1,.87.74,1.57,1.57,0,0,1-.41.91c-.53.7-1.52,2-2.07,2.66a.28.28,0,0,0-.07.19v.08a.16.16,0,0,0,.15.16h3.25a.16.16,0,0,0,.16-.16V5A.16.16,0,0,0,23.71,4.83Z"/></svg>
