<svg id="Calque_1" data-name="Calque 1" xmlns="http://www.w3.org/2000/svg" viewBox="0 0 24 24"><defs></defs><title>Cabine(s) duo pour
les soins à deux</title><path class="cls-1" d="M10.51,3.38s0,0,0,0a1.78,1.78,0,0,0,.52-1.24A1.75,1.75,0,0,0,9.31.35L2.06.33h0A1.73,1.73,0,0,0,.82.84,1.71,1.71,0,0,0,.3,2.08,1.74,1.74,0,0,0,.81,3.32l.06.05A1.35,1.35,0,0,0,.3,4.47v17.8a1.37,1.37,0,0,0,1.37,1.38h8a1.37,1.37,0,0,0,1.37-1.38V4.47A1.36,1.36,0,0,0,10.51,3.38Zm-.82.47a.62.62,0,0,1,.62.62v5.75H1.05V4.47a.62.62,0,0,1,.62-.62h8ZM1.35,1.37a1,1,0,0,1,.7-.29h0l7.25,0A1,1,0,0,1,10,2.81a1,1,0,0,1-.66.29H2.05a1,1,0,0,1-1-1A1,1,0,0,1,1.35,1.37ZM9.69,22.9h-8a.63.63,0,0,1-.62-.63V11h9.26v11.3A.63.63,0,0,1,9.69,22.9Z"/><path class="cls-1" d="M8.45,18a1.37,1.37,0,0,0-1.56-1.16l-3,.43a1.37,1.37,0,0,0-1.17,1.55l.23,1.66a1.33,1.33,0,0,0,.54.91,1.38,1.38,0,0,0,.82.28l.2,0,3-.43h0a1.37,1.37,0,0,0,1.17-1.55Zm-1,2.48-3,.43a.63.63,0,0,1-.46-.12.62.62,0,0,1-.24-.41l-.24-1.67a.64.64,0,0,1,.12-.46A.62.62,0,0,1,4,18L7,17.59h.09a.64.64,0,0,1,.62.54l.23,1.66A.63.63,0,0,1,7.41,20.49Z"/><path class="cls-1" d="M23.1,3.38a1.74,1.74,0,0,0,.55-1.27A1.78,1.78,0,0,0,23.14.86,1.74,1.74,0,0,0,21.9.35l-7.25,0h0a1.75,1.75,0,0,0-1.25,3l.06.05a1.37,1.37,0,0,0-.57,1.1v17.8a1.38,1.38,0,0,0,1.38,1.38h8a1.38,1.38,0,0,0,1.38-1.38V4.47A1.34,1.34,0,0,0,23.1,3.38Zm-.82.47a.63.63,0,0,1,.63.62v5.75H13.64V4.47a.63.63,0,0,1,.63-.62h8ZM13.94,1.37a1,1,0,0,1,.71-.29h0l7.25,0a1,1,0,0,1,.71.29,1,1,0,0,1-.67,1.71H14.65a1,1,0,0,1-.72-.3,1,1,0,0,1-.29-.71A1,1,0,0,1,13.94,1.37ZM22.28,22.9h-8a.63.63,0,0,1-.63-.63V11h9.27v11.3A.63.63,0,0,1,22.28,22.9Z"/><path class="cls-1" d="M19.49,16.85l-3,.43a1.41,1.41,0,0,0-.91.53,1.39,1.39,0,0,0-.26,1l.24,1.66a1.36,1.36,0,0,0,.53.91,1.38,1.38,0,0,0,.83.28l.19,0,3.05-.43a1.36,1.36,0,0,0,.9-.53,1.39,1.39,0,0,0,.27-1L21,18A1.36,1.36,0,0,0,19.49,16.85Zm.92,3.4a.6.6,0,0,1-.41.24l-3,.43a.66.66,0,0,1-.47-.12.62.62,0,0,1-.24-.41L16,18.72a.64.64,0,0,1,.12-.46.62.62,0,0,1,.41-.24l3.05-.43h.09a.63.63,0,0,1,.62.54l.23,1.66A.61.61,0,0,1,20.41,20.25Z"/></svg>
