<svg id="Calque_1" data-name="Calque 1" xmlns="http://www.w3.org/2000/svg" viewBox="0 0 24 24"><defs></defs><title>Lecteur DVD</title><path class="cls-1" d="M9.76,8.65a2.88,2.88,0,1,0,2.87,2.88A2.88,2.88,0,0,0,9.76,8.65Zm0,5a2.13,2.13,0,1,1,2.12-2.12A2.13,2.13,0,0,1,9.76,13.65Z"/><path class="cls-1" d="M23.21,16.25,19,13.34a10,10,0,0,0,.18-1.81A9.37,9.37,0,1,0,15,19.27v2.47a.37.37,0,0,0,.2.33.41.41,0,0,0,.39,0l7.58-5.18a.36.36,0,0,0,.17-.31A.37.37,0,0,0,23.21,16.25ZM9.76,20.15a8.63,8.63,0,1,1,8.62-8.62,10,10,0,0,1-.11,1.34l-2.64-1.79a.39.39,0,0,0-.39,0,.4.4,0,0,0-.2.33v7A8.61,8.61,0,0,1,9.76,20.15Zm6,.88V12.09l6.55,4.47Z"/></svg>
