<svg version="1.1"
	 xmlns="http://www.w3.org/2000/svg" xmlns:xlink="http://www.w3.org/1999/xlink"
	 x="0px" y="0px" viewBox="0 0 500.4 391.9" style="enable-background:new 0 0 500.4 391.9;"
	 xml:space="preserve">
<style type="text/css">
	.st0{fill:#010101;}
</style>
<defs>
</defs>
<g id="Page-1_1_">
	<g id="mobileapp_1_">
		<path id="Shape_1_" class="st0" d="M434.1,81.9c-3,4.4-2.5,5.2,1.9,5.2c6.8,0,9.3-4.1,4.9-7.6C438.5,77.2,436.6,77.8,434.1,81.9z
			 M352.8,5.2c67.1,17.2,116.5,63,139.7,129.6c7.1,19.6,7.6,25.4,7.9,60c0,42.8-3.8,59.2-22.6,95.5c-11.7,22.9-48.6,60.8-72,74.5
			c-64.7,38.2-147,35.7-208.7-5.7c-16.1-10.6-17.2-12-17.2-21.6c0-5.7,0.5-10.4,1.4-10.4c0.8,0,7.9,5.2,15.8,11.2
			c16.6,13.4,43.1,25.9,66,31.4c21.3,4.9,63.6,4.9,85.7-0.3c24-5.7,58.1-24,76.7-41.5c15.3-13.9,15.8-14.7,13.6-24.3
			c-1.4-5.5-3.5-11.2-5.2-12.8c-1.6-1.6-3-6.3-3-10.1s-1.4-8.5-3-10.1c-2.2-2.2-2.2-5.5,0.3-12.3c3-8.2,2.7-10.6-2.5-20.7
			c-3-6-5.7-14.5-5.7-18.3c0-4.4-1.6-6.8-4.1-6.8c-2.2,0-6.5-1.6-9.5-3.3c-4.1-2.7-6-2.7-8.7,0c-1.6,1.6-7.9,3.3-13.4,3.3
			c-8.2,0-11.7-1.9-19.9-10.9c-9.8-10.9-12.8-22.4-6.8-26.2c2.2-1.1,2.2-2.5,0-4.6c-4.9-4.9-3.3-8.5,6.5-15
			c5.5-3.5,9.5-8.2,9.5-11.5c0-6.8,2.7-8.2,25.6-12.5c24.3-4.6,23.5-4.9,23.5,1.6c0,6.5,18.8,12.8,22.4,7.6c1.4-2.7,4.1-2.7,11.2,0
			c9.5,3.5,21,4.4,21,1.6c0-4.9-6.5-12-11.2-12c-3,0-6.3-2.7-7.6-6.3l-2.5-6l-2.5,6.3c-2.2,6-2.7,6-6.3,1.9
			c-2.2-2.7-5.2-7.4-6.8-10.4c-1.6-3.3-5.2-6.3-8.2-6.8c-5.2-0.8-4.9-0.3,0.8,4.6c7.1,6,7.9,13.4,1.9,15.8c-5.5,1.9-9.3-1.4-4.6-4.4
			c2.2-1.4,0.8-3.8-4.6-7.9c-4.9-3.5-8.7-4.9-9.8-3.3c-1.1,1.6-2.7,2.2-4.1,1.4c-1.4-0.8-5.2,2.2-8.5,6.8
			c-7.6,10.4-22.6,11.7-25.1,2.5c-2.5-9.3,0.8-13.4,10.4-13.4c7.9,0,8.7-0.8,7.4-6.3c-2.2-8.5-7.6-13.1-12.5-11.2
			c-6.3,2.5-5.5-3.8,1.9-11.5c6.8-7.4,12.8-8.5,12.8-2.7c0,6.3,8.5,13.4,11.7,10.1c1.6-1.6,5.7-3,9.3-3s6.3-1.4,6.3-3
			s-1.4-2.5-3.3-1.9c-1.6,0.5-5.5-1.1-8.5-4.1c-3.8-3.8-4.4-5.7-1.6-9c1.6-2.2,4.9-3.8,6.8-3.8c6.8,0,3.8-5.5-7.6-13.9
			c-35.7-25.9-87.3-39-128.5-33c-15.3,2.5-16.1,2.2-18.6-4.1C259.3,1.1,260.4,0.8,304.3,0C323.9-0.2,337.8,1.4,352.8,5.2z
			 M167.9,110.2c-1.1,56.2-1.1,102.3,0.3,102.3c6.3,0,30.6-22.4,38.5-35.5c11.7-19.9,16.9-37.6,18.8-64.1c1.6-28.1-1.6-43.9-9-42.8
			c-21.6,3.8-24.6,3.5-29.7-2.2l-5.5-6l19.1-17.7c22.4-20.5,41.5-32.7,45.3-28.9c6,6,11.2,48.6,9.8,81.3c-1.4,34.6-6.3,54-19.6,76.4
			c-9.5,16.6-36.8,40.6-54,47.7l-14.7,6l-1.9,37.1c-0.8,20.2-1.6,46.9-1.6,58.9c0,34.9-3,58.9-7.1,58.9c-4.6,0-12.8-16.4-16.9-32.7
			c-3-13.1-7.4-51.6-10.4-90.8l-1.6-23.7H119c-13.6,0-36.3-12.3-51-27.3c-21.8-22.4-35.2-55.7-35.5-87.6V104l-11.7,1.4
			c-9.3,1.1-12.5,0.3-16.6-4.4c-3-3.3-4.6-6.3-4.1-6.5c0.5-0.5,9.3-7.9,19.1-16.1C38.6,62,57.9,50,66.4,48.3
			c5.2-0.8,5.5,0.8,4.6,44.2c-0.8,46.1,2.7,74.5,12,96.6c6.5,15.3,19.6,28.4,31.9,31.9c6,1.4,11.2,2.5,11.7,1.9
			c0.5-0.5,1.4-34.1,1.6-75l1.1-74.2l-6.8,4.4c-10.4,7.1-20.2,11.7-23.7,11.7c-1.9,0-6.8-3-10.9-6.5l-7.6-6.8l24.6-25.1
			c30.6-30.8,46.7-43.1,57-43.4h7.9L167.9,110.2z M301.3,45.3c5.2,2.5,9.5,6,9.5,7.9c0,1.9,1.6,3.8,3.5,4.6
			c6.8,2.2-16.9,10.6-24.6,8.7c-7.6-1.9-7.6-1.9-1.4-4.9c3.3-1.4,6-3.8,6-5.2c0-3-13.1-2.7-15,0.5c-3.3,5.5-7.1,2.5-6.3-4.6
			c0.5-5.2,2.7-7.9,7.6-9.3C290.9,40.4,290.6,40.4,301.3,45.3z M290.6,72.1c1.1,2.7,3.5,3.5,6.8,2.7c3.8-1.4,5.2-0.3,5.2,3.5
			c0,3,1.9,6,4.1,7.1c4.9,1.9,5.5,8.7,0.8,10.9c-2.7,1.4-2.7,1.9,0,3.3c1.6,0.8,3.3,3.3,3.3,5.5c0,2.7-1.6,3-6,1.4
			c-3.8-1.4-6-4.1-5.5-7.1c0.8-3.5,0-3.8-4.4-1.6c-3.5,1.9-6,1.9-8.2-0.3c-1.9-1.9-4.1-2.2-5.2-1.1c-1.1,1.1-0.3,3,1.9,4.4
			c2.2,1.6,3.5,2.7,2.7,3c-0.8,0-3.8,0.5-6.8,1.1c-5.2,1.1-5.5-0.3-4.9-17.2c0.3-10.1,0.5-18.6,0.8-19.1
			C275.6,65.8,289.6,68.8,290.6,72.1z M291.7,110.2c-1.9,2.2-4.6,3.3-6,2.5c-1.6-1.1-1.4-2.7,0.8-4.1
			C292.6,104.8,295.6,105.9,291.7,110.2z M280.8,111.6c0,1.4-1.1,2.7-2.7,2.7c-1.4,0-2.7-1.4-2.7-2.7c0-1.6,1.4-2.7,2.7-2.7
			C279.7,108.9,280.8,110,280.8,111.6z M255.2,193.7c0.8,1.6,5.2,2.5,9.5,1.4c6-1.1,8.7,0,12.8,4.9c2.7,3.5,7.9,7.1,11.7,7.6
			c4.6,0.5,6.8,2.7,7.6,7.6c1.1,8.2,3.5,9.8,17.7,12.3c6.3,0.8,14.2,4.1,17.7,7.1c6.5,5.2,6.5,5.7,2.2,13.1
			c-2.5,4.1-5.2,12.8-6.3,19.1c-1.9,12-4.1,14.5-13.1,15c-4.4,0.3-6,2.5-7.1,9.8c-1.6,11.5-14.7,29.5-23.2,31.6
			c-4.4,1.1-6,3.5-6,9.5c0,4.4,1.1,7.9,2.5,7.9c1.1,0,2.2,3,2.2,6.5c0,3.8,1.4,7.6,2.7,8.5c4.9,3,2.7,6.8-3.8,6.8
			c-4.1,0-9.8-3.5-15-9.5c-11.7-13.6-11.5-24.6,1.1-36.8c15.3-15,13.6-23.2-9.8-49.4c-11.7-13.1-22.9-22.6-28.6-24.8
			c-7.9-2.7-9.3-4.6-9.3-12.3c0-6,1.6-9.8,5.5-11.7c3-1.6,5.5-4.6,5.5-6.8c0-5.2,13.4-20.5,17.7-20.5
			C251.6,190.7,254.1,192.1,255.2,193.7z M245.1,278.8l17.7,18.6L244,316.2c-10.4,10.6-19.6,18.8-20.5,18.6
			c-0.8-0.5-9.3-9-18.8-19.1l-17.2-18.3l17.2-19.4c9.3-10.6,18.3-18.8,19.9-18.6C226.3,260,235.5,268.7,245.1,278.8z"/>
	</g>
</g>
</svg>
