<?xml version="1.0" encoding="UTF-8"?>
<svg viewBox="0 0 21 15" version="1.1" xmlns="http://www.w3.org/2000/svg" xmlns:xlink="http://www.w3.org/1999/xlink">
    <!-- Generator: Sketch 50.2 (55047) - http://www.bohemiancoding.com/sketch -->
    <title>iocn destination copy</title>
    <desc>Created with Sketch.</desc>
    <defs></defs>
    <g id="Symbols" stroke-width="1" fill-rule="evenodd">
        <g id="filtre-Destinations" transform="translate(-10.000000, -13.000000)" fill="#235578">
            <g id="Destinations">
                <g id="texte" transform="translate(10.000000, 9.000000)">
                    <g id="iocn-destination-copy" transform="translate(0.000000, 4.000000)">
                        <path d="M12.2332351,10.55064 C12.1825202,10.55064 12.1318054,10.55064 12.0800977,10.5248202 L9.02529206,9.1265426 C8.87215465,9.05007461 8.77072492,8.87231031 8.82143979,8.69455109 C8.87215465,8.51679187 8.99943822,8.38967573 9.17742647,8.38967573 L12.2062663,8.28837941 L13.3011086,7.62696869 L11.5957124,5.79669959 C11.5191437,5.7202316 11.4942827,5.61893529 11.4942827,5.5166373 C11.4942827,5.41534099 11.5449976,5.31305317 11.6215663,5.23657501 C11.6722811,5.21075518 12.0541267,4.88105658 12.8178282,4.88105658 C13.7595229,4.88105658 14.8543652,5.36369115 16.0765421,6.27933417 L18.6728723,5.08464579 C18.8260097,5.00817781 19.054723,4.98334948 19.3092901,4.98334948 C19.7925604,4.98334948 20.6835454,5.11046562 20.9132667,5.6447602 C21.0146965,5.87317266 21.117119,6.28034093 20.6586996,6.66168936 C20.4299863,6.83945366 20.0729915,7.0172078 19.6404311,7.22079701 L12.3852677,10.5247999 C12.3345528,10.5506197 12.283838,10.5506197 12.2331231,10.5506197 L12.2332351,10.55064 Z M9.01536311,10.9067108 L8.03176744,10.4494657 C7.82791517,10.3729978 7.75133628,10.1445904 7.85376901,9.94100116 C7.95519874,9.73741703 8.15904592,9.66093887 8.36290328,9.76323686 L10.221447,10.6272199 C10.4252993,10.7036879 10.5018782,10.9320952 10.3994455,11.1356845 C10.3777071,11.1722477 10.3516906,11.2046206 10.3220117,11.2321887 C10.2761846,11.3016427 10.2075635,11.3576256 10.1200784,11.3900083 C8.39526377,11.9225598 6.77069629,12.2245618 5.35157442,12.3215428 C6.566925,13.5049508 8.22272096,14.2371048 10.0435962,14.2371048 C12.6658923,14.2371048 15.0583143,12.7117111 16.1791734,10.322436 C16.2557421,10.1188519 16.4844503,10.0423737 16.6883076,10.1446717 C16.8921599,10.2211397 16.9687388,10.4495471 16.8663061,10.6531363 C15.6441801,13.2966437 12.9711743,15 10.0436522,15 L10.0434486,14.9997051 C7.74905353,14.9997051 5.69606407,13.9738761 4.31893997,12.3561064 C2.10370099,12.3475514 0.54478281,11.7383607 0.11533029,10.6024017 C-0.33834183,9.3689991 0.554893074,7.78741099 2.64556487,6.20213941 C3.2604346,2.67712242 6.33694154,0 10.0434486,0 C11.7343439,0 13.4005671,0.581649103 14.7345997,1.62746418 L15.1347913,1.62675361 C17.7817804,1.49963746 19.5130915,2.10938819 19.9715669,3.38054964 C20.0481356,3.58413377 19.9457131,3.78772807 19.7428536,3.86318422 C19.6911459,3.88999809 19.6662849,3.88999809 19.61557,3.88999809 L19.615682,3.89000826 C19.4625446,3.89000826 19.3104051,3.78871195 19.2596954,3.63577597 C18.948001,2.79821819 17.5764228,2.34340341 15.5479063,2.37819019 C16.064583,2.9346494 16.495626,3.5714585 16.8153926,4.24547585 C16.9168224,4.42324015 16.8153926,4.65265429 16.6373942,4.75394043 C16.4593958,4.85523674 16.2296795,4.75394043 16.1282599,4.57617613 C15.7114887,3.74373002 15.1285358,2.98133203 14.4265798,2.35829256 C14.3586404,2.32793661 14.2998318,2.27794516 14.2582298,2.21638353 C13.0755417,1.27001387 11.5842121,0.736861784 10.0446145,0.736861784 C6.32742519,0.736861784 3.29858541,3.76171757 3.29858541,7.47401746 C3.29816913,9.02656237 3.8277267,10.4634054 4.71593027,11.6097756 C5.92838527,11.5693339 7.38032784,11.3495681 9.01536311,10.9067108 Z M3.75475197,11.6025156 C2.98256047,10.4238606 2.53371808,9.01453015 2.53371808,7.49985255 C2.53371808,7.42455097 2.53482741,7.34950977 2.53703066,7.27474434 C1.18758351,8.44510853 0.561793483,9.57127041 0.828276102,10.348266 C1.087895,11.0481076 2.12865429,11.5168438 3.75475197,11.6025156 Z M10.8072518,9.10171936 L12.282784,9.05096951 C12.3334989,9.05096951 12.4100676,9.02614118 12.4607825,9.00032135 L14.0388951,8.03403526 C14.1403248,7.95755711 14.1910397,7.85526929 14.2168935,7.75397297 C14.2427473,7.65268174 14.1920325,7.5255656 14.1154638,7.44909761 L12.4607774,5.69530158 C12.562202,5.66948175 12.6646246,5.66948175 12.7660543,5.66948175 C13.3270184,5.66948175 14.2935589,5.89788404 15.7195422,7.04192935 C15.8468258,7.14322566 15.9999734,7.14322566 16.1272569,7.0925775 L18.9274954,5.82141605 C18.9782052,5.79658773 19.0806379,5.7707679 19.2586364,5.7707679 C19.7429249,5.7707679 20.1247705,5.89788404 20.1754854,5.97435203 C20.2013392,5.99918036 20.2013392,6.02500019 20.2013392,6.02500019 C20.1496111,6.15211633 19.6663409,6.35570046 19.2844902,6.53346477 L12.2332351,9.73730008 L10.8072518,9.10171936 Z" id="icon-destination"></path>
                        <path d="M9.17842946,13.1941474 C9.1277146,13.1941474 9.07699973,13.1941474 9.02529206,13.1683275 C8.82143979,13.0918595 8.7448609,12.8634522 8.84729362,12.659863 L9.71241458,10.8037639 C9.81384431,10.6001797 10.0176915,10.5237016 10.2215489,10.6259996 C10.4254011,10.7024675 10.50198,10.9308749 10.3995473,11.1344641 L9.53442633,12.9657247 C9.45785763,13.1186607 9.33057406,13.1941372 9.17843965,13.1941372 L9.17842946,13.1941474 Z" id="Path"></path>
                    </g>
                </g>
            </g>
        </g>
    </g>
</svg>
