<svg version="1.1"
	 xmlns="http://www.w3.org/2000/svg" xmlns:xlink="http://www.w3.org/1999/xlink"
	 x="0px" y="0px" viewBox="0 0 490 152.7" style="enable-background:new 0 0 490 152.7;"
	 xml:space="preserve">
<defs>
</defs>
<g>
	<path class="st0" d="M270.4,127.7h10.9v-3.3c0-3.4-1.8-6.1-9.4-6.1c-4.2,0-8.4,1.4-10.8,3.8l-7-5.2c3.8-3.4,9.8-6.1,18-6.1
		c12.9,0,19.4,5,19.4,14.1v22.4c0,1-0.6,1.4-1.4,1.8c-4,1.9-10.1,3.4-16.6,3.4c-13.7,0-20.8-6.2-20.8-12.9
		C252.7,133.1,258.3,127.7,270.4,127.7 M281.3,134.1H271c-5.7,0-8.3,2.3-8.3,5.5c0,3.5,3.4,5.8,10.5,5.8c3.1,0,6.2-0.7,8.1-1.8
		V134.1z"/>
	<path class="st0" d="M323.1,119h-7.3c-4.5,0-6.6,2.2-6.6,6.6v26.2h-10.3V126c0-8.5,5.4-14.3,14.7-14.3h9.5V119z"/>
	<path class="st0" d="M352.5,119h-7.3c-4.5,0-6.6,2.2-6.6,6.6v26.2h-10.3V126c0-8.5,5.4-14.3,14.7-14.3h9.5V119z"/>
	<path class="st0" d="M358.5,98.2h10.2v8.7h-10.2V98.2z M358.5,111.7h10.2v40.2h-10.2V111.7z"/>
	<polygon class="st0" points="418.3,111.7 401.1,151.9 390.9,151.9 374.3,111.7 384.7,111.7 396.4,141.8 408.1,111.7 	"/>
	<path class="st0" d="M439.1,127.7H450v-3.3c0-3.4-1.8-6.1-9.4-6.1c-4.2,0-8.4,1.4-10.8,3.8l-7-5.2c3.8-3.4,9.8-6.1,18-6.1
		c12.9,0,19.4,5,19.4,14.1v22.4c0,1-0.6,1.4-1.4,1.8c-4,1.9-10.1,3.4-16.6,3.4c-13.7,0-20.8-6.2-20.8-12.9
		C421.4,133.1,427.1,127.7,439.1,127.7 M450,134.1h-10.3c-5.7,0-8.3,2.3-8.3,5.5c0,3.5,3.4,5.8,10.5,5.8c3.1,0,6.2-0.7,8.1-1.8
		V134.1z"/>
	<path class="st0" d="M482.8,144.3h5.4v7.6h-7.6c-8.7,0-12.9-3.7-12.9-12.5V98.2h10.2v41.5C477.9,143.3,479.7,144.3,482.8,144.3"/>
	<path class="st0" d="M307.9,76.5c-6.7,6.1-14.8,8.8-25.4,8.8c-17.6,0-29.7-9.1-29.7-26.5v-2.6c0-16.3,10.6-27.1,28.2-27.1
		c18.8,0,28.2,10.5,28.2,27.4v4.7h-42.4v0.4c0,8.8,6.9,13.4,15.9,13.4c7.1,0,12-2.3,16.4-6.1L307.9,76.5z M295.2,52.3
		c-0.3-8.9-6.1-13.5-14.2-13.5c-7.7,0-13.9,5.2-14.2,13.5H295.2z"/>
	<path class="st0" d="M340.6,51.8h14.6v-4.4c0-4.5-2.4-8.2-12.7-8.2c-5.6,0-11.3,1.8-14.5,5l-9.3-7c5-4.5,13.2-8.2,24.1-8.2
		c17.4,0,26.1,6.8,26.1,19v30.1c0,1.4-0.7,1.9-1.9,2.5c-5.4,2.6-13.5,4.6-22.3,4.6c-18.5,0-27.9-8.3-27.9-17.3
		C316.7,59,324.4,51.8,340.6,51.8 M355.2,60.4h-13.8c-7.6,0-11.2,3.1-11.2,7.4c0,4.7,4.6,7.8,14.2,7.8c4.2,0,8.3-1,10.8-2.5V60.4z"
		/>
	<path class="st0" d="M426.9,67.9c0,11.1-10.2,17.4-26,17.4c-8,0-18.1-2-25.2-8.3l8.6-7.7c4.1,3.8,9.9,5.9,16.9,5.9
		c7.6,0,11.8-2,11.8-6.5c0-3.5-1.9-5.6-6.8-6.1l-10.8-1.3c-9.7-1.2-17.4-6.1-17.4-16c0-10.1,9.2-16.1,23.7-16.1
		c9.2,0,16.9,2.5,22.4,7.2l-8.3,7.2c-3.6-2.7-8.4-4.6-13.8-4.6c-6.2,0-10.1,2.1-10.1,5.9c0,3.4,2.3,5.7,6.4,6.2l11.1,1.5
		C420.7,54.1,426.9,58.8,426.9,67.9"/>
	<path class="st0" d="M460.4,64.7l15.2-34.5H490l-26.6,57.2c-4.5,9.8-11.4,13.7-23.3,13.7H435V91.1h5c5.5,0,9.1-1.2,12.2-8.3
		l1.6-3.4l-23.6-49.3h14.5L460.4,64.7z"/>
	<path class="st0" d="M65.4,55C59.1,62,50.8,66.1,42,66.2c-0.2,0-0.4,0-0.6,0c-11.7,0-22.6-6.8-29.2-18.4c-0.8-1.3-0.3-3,1-3.7
		c1.3-0.8,3-0.3,3.7,1c5.7,10,15,15.8,24.9,15.6c9.3-0.2,18-5.8,23.5-14.9V34.3c0-5.4,4.4-9.7,9.8-9.7h3.2C72.1,10.1,57.7,0,40.9,0
		C18.3,0,0,18.3,0,40.9c0,22.6,18.3,40.9,40.9,40.9c9.2,0,17.7-3.1,24.5-8.2V55z M54.6,24.3c2.3,0,4.1,1.8,4.1,4.1
		c0,2.3-1.8,4.1-4.1,4.1c-2.3,0-4.1-1.8-4.1-4.1C50.6,26.1,52.4,24.3,54.6,24.3 M26.7,24.3c2.3,0,4.1,1.8,4.1,4.1
		c0,2.3-1.8,4.1-4.1,4.1c-2.3,0-4.1-1.8-4.1-4.1C22.7,26.1,24.5,24.3,26.7,24.3"/>
	<path class="st0" d="M228.6,142.5l-19.7-26V34.3c0-2.8-2.3-5.1-5.2-5.1h-10.7H85.8H75.2c-2.9,0-5.2,2.3-5.2,5.1v82.1l-19.7,26
		c-7.1,7.3,1,9.5,2.5,9.5h33h107.2h33C227.5,152,235.7,149.8,228.6,142.5 M116.1,142.7l3.8-9H159l3.8,9H116.1z M197.8,115.4h-4.7
		H85.8h-4.7V40.5h4.7h107.2h4.7V115.4z"/>
	<path class="st0" d="M136.7,83.4l-6-12.4l-9.1,4.4l13.5,27.9l4.9-7.4c0.1-0.2,13.2-19.7,36.8-39l-6.4-7.8
		C154.2,62.4,142.8,75.6,136.7,83.4"/>
</g>
</svg>
