<svg xmlns="http://www.w3.org/2000/svg" viewBox="0 0 237.3 123.5"><defs></defs><g id="Layer_2" data-name="Layer 2"><g id="Layer_1-2" data-name="Layer 1"><path class="cls-1" d="M17.7,98.7H28.6V95.4c0-3.4-1.8-6.1-9.4-6.1-4.2,0-8.4,1.4-10.8,3.8l-7-5.2c3.8-3.4,9.8-6.1,18-6.1,12.9,0,19.4,5,19.4,14.1v22.4c0,1-.6,1.4-1.4,1.8a40.61,40.61,0,0,1-16.6,3.4C7.1,123.5,0,117.3,0,110.6c0-6.5,5.6-11.9,17.7-11.9m10.9,6.4H18.3c-5.7,0-8.3,2.3-8.3,5.5,0,3.5,3.4,5.8,10.5,5.8a17.33,17.33,0,0,0,8.1-1.8v-9.5Z"/><path class="cls-1" d="M70.4,90H63.1c-4.5,0-6.6,2.2-6.6,6.6v26.2H46.2V97c0-8.5,5.4-14.3,14.7-14.3h9.5V90Z"/><path class="cls-1" d="M99.8,90H92.5c-4.5,0-6.6,2.2-6.6,6.6v26.2H75.6V97c0-8.5,5.4-14.3,14.7-14.3h9.5V90Z"/><path class="cls-1" d="M105.8,69.2H116v8.7H105.8Zm0,13.5H116v40.2H105.8Z"/><polygon class="cls-1" points="165.6 82.7 148.4 122.9 138.2 122.9 121.6 82.7 132 82.7 143.7 112.8 155.4 82.7 165.6 82.7"/><path class="cls-1" d="M186.4,98.7h10.9V95.4c0-3.4-1.8-6.1-9.4-6.1-4.2,0-8.4,1.4-10.8,3.8l-7-5.2c3.8-3.4,9.8-6.1,18-6.1,12.9,0,19.4,5,19.4,14.1v22.4c0,1-.6,1.4-1.4,1.8a40.61,40.61,0,0,1-16.6,3.4c-13.7,0-20.8-6.2-20.8-12.9,0-6.5,5.7-11.9,17.7-11.9m10.9,6.4H187c-5.7,0-8.3,2.3-8.3,5.5,0,3.5,3.4,5.8,10.5,5.8a17.33,17.33,0,0,0,8.1-1.8v-9.5Z"/><path class="cls-1" d="M230.1,115.3h5.4v7.6h-7.6c-8.7,0-12.9-3.7-12.9-12.5V69.2h10.2v41.5c0,3.6,1.8,4.6,4.9,4.6"/><path class="cls-1" d="M55.2,47.5c-6.7,6.1-14.8,8.8-25.4,8.8C12.2,56.3.1,47.2.1,29.8V27.2C.1,10.9,10.7.1,28.3.1,47.1.1,56.5,10.6,56.5,27.5v4.7H14.1v.4C14.1,41.4,21,46,30,46a23.45,23.45,0,0,0,16.4-6.1ZM42.5,23.3c-.3-8.9-6.1-13.5-14.2-13.5-7.7,0-13.9,5.2-14.2,13.5Z"/><path class="cls-1" d="M87.9,22.8h14.6V18.4c0-4.5-2.4-8.2-12.7-8.2-5.6,0-11.3,1.8-14.5,5L66,8.2C71,3.7,79.2,0,90.1,0c17.4,0,26.1,6.8,26.1,19V49.1c0,1.4-.7,1.9-1.9,2.5A53.61,53.61,0,0,1,92,56.2c-18.5,0-27.9-8.3-27.9-17.3s7.6-16.1,23.8-16.1m14.6,8.6H88.7c-7.6,0-11.2,3.1-11.2,7.4,0,4.7,4.6,7.8,14.2,7.8a22.38,22.38,0,0,0,10.8-2.5Z"/><path class="cls-1" d="M174.2,38.9c0,11.1-10.2,17.4-26,17.4-8,0-18.1-2-25.2-8.3l8.6-7.7c4.1,3.8,9.9,5.9,16.9,5.9,7.6,0,11.8-2,11.8-6.5,0-3.5-1.9-5.6-6.8-6.1l-10.8-1.3c-9.7-1.2-17.4-6.1-17.4-16C125.3,6.2,134.5.2,149,.2c9.2,0,16.9,2.5,22.4,7.2l-8.3,7.2A23.08,23.08,0,0,0,149.3,10c-6.2,0-10.1,2.1-10.1,5.9,0,3.4,2.3,5.7,6.4,6.2l11.1,1.5c11.3,1.5,17.5,6.2,17.5,15.3"/><path class="cls-1" d="M207.7,35.7,222.9,1.2h14.4L210.7,58.4c-4.5,9.8-11.4,13.7-23.3,13.7h-5.1v-10h5c5.5,0,9.1-1.2,12.2-8.3l1.6-3.4L177.5,1.1H192Z"/></g></g></svg>
