<svg viewBox="0 0 501 615" version="1.1" xmlns="http://www.w3.org/2000/svg" xmlns:xlink="http://www.w3.org/1999/xlink">
    <title>electricity</title>
    <defs></defs>
    <g id="Page-1" stroke-width="1" fill-rule="evenodd">
        <path d="M387.792328,194.724343 L484.566764,194.724343 C493.480298,194.724343 500.694584,201.959099 500.694584,210.881086 C500.694584,219.803073 493.480298,227.037829 484.566764,227.037829 L387.792328,227.037829 L387.792328,275.508058 C387.792328,284.430046 380.578043,291.664802 371.664509,291.664802 L258.762253,291.664802 C196.510373,291.664802 145.859997,240.927355 145.859997,178.556301 L145.859997,162.399558 L129.728419,162.399558 C76.3637569,162.399558 32.9539824,205.887183 32.9539824,259.347549 C32.9539824,312.807915 76.3637569,356.295541 129.728419,356.295541 L178.115637,356.295541 C249.258494,356.295541 307.149471,414.286574 307.149471,485.557018 C307.149471,556.831229 249.258494,614.826028 178.115637,614.826028 L16.8224035,614.826028 C7.90886966,614.826028 0.694583944,607.587506 0.694583944,598.665519 C0.694583944,589.743532 7.90886966,582.508776 16.8224035,582.508776 L178.115637,582.508776 C231.480298,582.508776 274.890073,539.02115 274.890073,485.557018 C274.890073,432.100419 231.480298,388.609027 178.115637,388.609027 L129.728419,388.609027 C58.581802,388.609027 0.694583944,330.62176 0.694583944,259.347549 C0.694583944,188.073338 58.581802,130.086071 129.728419,130.086071 L145.859997,130.086071 L145.859997,113.925562 C145.859997,51.5582737 196.510373,0.820827474 258.762253,0.820827474 L371.664509,0.820827474 C380.578043,0.820827474 387.792328,8.05558357 387.792328,16.9775707 L387.792328,65.4628648 L484.566764,65.4628648 C493.480298,65.4628648 500.694584,72.6938547 500.694584,81.619608 C500.694584,90.541595 493.480298,97.7763511 484.566764,97.7763511 L387.792328,97.7763511 L387.792328,194.724343 Z M355.53293,259.347549 L355.53293,33.13808 L258.762253,33.13808 C214.296088,33.13808 178.115637,69.3834171 178.115637,113.925562 L178.115637,178.556301 C178.115637,223.102212 214.296088,259.347549 258.762253,259.347549 L355.53293,259.347549 Z M274.889697,97.7620398 C274.889697,88.8362866 282.103982,81.6015305 291.017516,81.6015305 C299.93105,81.6015305 307.149095,88.8362866 307.149095,97.7620398 L307.149095,194.725096 C307.149095,203.647083 299.93105,210.881839 291.017516,210.881839 C282.103982,210.881839 274.889697,203.647083 274.889697,194.725096 L274.889697,97.7620398 Z M210.374283,130.075526 C210.374283,121.153539 217.588569,113.918783 226.502103,113.918783 C235.415637,113.918783 242.629922,121.153539 242.629922,130.075526 L242.629922,162.407843 C242.629922,171.32983 235.415637,178.568353 226.502103,178.568353 C217.588569,178.568353 210.374283,171.32983 210.374283,162.407843 L210.374283,130.075526 Z" id="electricity"></path>
    </g>
</svg>
