<svg version="1.1" id="Calque_1" xmlns="http://www.w3.org/2000/svg" xmlns:xlink="http://www.w3.org/1999/xlink" x="0px" y="0px"
	 viewBox="0 0 500 500" style="enable-background:new 0 0 500 500;" xml:space="preserve">
<g>
	<path class="st0" d="M405.9,445.5c0,5.7,10.7,10.2,23.9,10.2c13.2,0,23.9-4.6,23.9-10.2c0-5.7-10.7-10.2-23.9-10.2
		C416.5,435.3,405.9,439.9,405.9,445.5z"/>
	<path class="st0" d="M327.9,478.5c0,5.7,10.7,10.2,23.9,10.2c13.2,0,23.9-4.6,23.9-10.2c0-5.7-10.7-10.2-23.9-10.2
		S327.9,472.9,327.9,478.5z"/>
	<path class="st0" d="M273.9,489.8c0,5.7-10.7,10.2-23.9,10.2c-13.2,0-23.9-4.6-23.9-10.2c0-5.7,10.7-10.2,23.9-10.2
		C263.2,479.5,273.9,484.1,273.9,489.8z"/>
	<path class="st0" d="M492.3,396.5c0,5.7-10.7,10.2-23.9,10.2c-13.2,0-23.9-4.6-23.9-10.2c0-5.7,10.7-10.2,23.9-10.2
		C481.6,386.2,492.3,390.8,492.3,396.5z"/>
	<path class="st0" d="M94.1,445.5c0,5.7-10.7,10.2-23.9,10.2s-23.9-4.6-23.9-10.2c0-5.7,10.7-10.2,23.9-10.2
		C83.5,435.3,94.1,439.9,94.1,445.5z"/>
	<path class="st0" d="M172.1,478.5c0,5.7-10.7,10.2-23.9,10.2s-23.9-4.6-23.9-10.2c0-5.7,10.7-10.2,23.9-10.2
		C161.4,468.3,172.1,472.9,172.1,478.5z"/>
	<path class="st0" d="M7.7,396.5c0,5.7,10.7,10.2,23.9,10.2s23.9-4.6,23.9-10.2c0-5.7-10.7-10.2-23.9-10.2
		C18.4,386.2,7.7,390.8,7.7,396.5z"/>
	<g>
		<path class="st0" d="M168.7,183.1c0.1,0,0.2-0.1,0.3-0.1c0.2-0.1,0.5-0.2,0.7-0.3c1-0.5,2.1-1,3.1-1.6c8.2-4.9,14-12.7,16.4-22
			s0.9-19-4-27.2c-6.4-10.6-18.1-17.3-30.6-17.3c-6.4,0-12.7,1.7-18.2,5c-8.3,4.9-14.1,12.8-16.5,22.1c-2.3,9.3-0.9,18.9,4.1,27.1
			c1.2,2,2.6,3.9,4.2,5.6c-40.2,17.1-83.3,35.3-88.1,37.2c-5.2,1.7-8.7,6.8-8.2,12.5c0.6,6.2,5.8,10.8,11.8,10.8
			c0.4,0,0.8,0,1.2-0.1c2.5-0.2,3-0.3,123.5-51.6C168.5,183.2,168.6,183.2,168.7,183.1z M154.7,162.2c-4.2,0-8.1-2.2-10.2-5.7
			c-1.7-2.8-2.2-6-1.4-9.1s2.8-5.7,5.6-7.4c1.8-1.1,3.9-1.6,6-1.6c4.2,0,8.1,2.2,10.2,5.7c1.6,2.7,2.1,5.9,1.3,9.1
			c-0.8,3.1-2.7,5.7-5.5,7.4c-0.4,0.3-0.9,0.5-1.3,0.7c-0.1,0-0.1,0-0.2,0.1C157.8,161.9,156.2,162.2,154.7,162.2z"/>
		<path class="st0" d="M347.5,183.2L347.5,183.2c0.1-0.1,0.2-0.1,0.2-0.1c1.4-0.6,2.7-1.3,4-2c8.2-4.9,14-12.7,16.4-22
			s0.9-19-4-27.2c-6.4-10.6-18.1-17.3-30.6-17.3c-6.4,0-12.7,1.7-18.2,5c-8.3,4.9-14.1,12.8-16.5,22c-2.3,9.3-0.9,18.9,4.1,27.2
			c1.2,2,2.6,3.9,4.2,5.6c-21.4,9.1-48.2,20.4-61.6,26c-2.8,1.2-5.1,1.3-7.6,0.3c-14.7-5.4-33.1-12.1-38-13.5
			c-8.4-2.5-16.7-1.2-23.1,3.6c-6.4,4.8-10.3,12.6-10.3,20.7v74.8c0,15,12.2,27.2,27.3,27.2h15.8c1.7,0,3.4,1.1,3.4,3.1v66
			c0,6.6,5.3,11.9,11.9,11.9c6.6,0,11.9-5.3,11.9-11.9v-66c0-15.1-12-26.9-27.2-26.9h-15.8c-1.9,0-3.4-1.5-3.4-3.4v-74.8
			c0-0.6,0.3-1.4,0.7-1.7c0.3-0.2,1.1-0.2,2.1,0.1c3.3,1,16.7,5.7,36.6,13c8.2,3,16.6,2.8,25-0.7
			C278.4,212.6,344.2,184.6,347.5,183.2C347.4,183.2,347.4,183.2,347.5,183.2z M321.9,147.5c0.8-3.1,2.8-5.7,5.6-7.4
			c1.8-1.1,3.9-1.6,6-1.6c4.2,0,8.1,2.2,10.2,5.7c1.6,2.7,2.1,5.9,1.3,9.1c-0.8,3.1-2.7,5.7-5.5,7.4c-1.8,1.1-3.9,1.6-6,1.6
			c-4.2,0-8.1-2.2-10.2-5.7C321.6,153.8,321.1,150.5,321.9,147.5z"/>
		<path class="st0" d="M457.5,157.6c-2.4-6.1-9.3-9.2-15.4-6.8c-0.4,0.2-10.5,4.1-60.2,25.4c-11.3,4.7-37.7,15.7-29.8,58.3
			c1.7,8.9,3.6,17.6,5.4,26c3.9,17.9,7.7,35.1,8.6,52.3h-12.6c-6.4,0-11.7,5.1-11.9,11.6c-0.8,27.1-5.7,54.2-15.3,85.1
			c-2,6.3,1.5,13,7.8,14.9c1.2,0.4,2.4,0.5,3.5,0.5c5.1,0,9.8-3.3,11.4-8.4c8.9-28.7,14.1-54.4,15.8-79.9h13.3
			c6.4,0,11.7-5.1,11.9-11.5c0.8-24.2-4.1-46.3-9.2-69.7c-1.8-8.2-3.7-16.7-5.3-25.2c-4.4-23.7,4.8-27.5,15.6-32
			c48.7-20.9,59-25,59.5-25.2C456.9,170.6,459.9,163.7,457.5,157.6z"/>
		<path class="st0" d="M323,316.1c-2.3-2.5-5.5-4-8.9-4h-10.8c5.3-17.4,12.5-47.2,13.4-82.8c0.2-6.6-5-12-11.6-12.2
			c-6.5-0.1-12,5-12.2,11.6c-1.3,51.2-17.2,90.4-17.3,90.8c-1.5,3.7-1.1,7.9,1.1,11.2c2.2,3.3,5.9,5.3,9.9,5.3h14.1
			c-2.9,24.5-6.4,46.4-19.8,72.4c-3,5.8-0.7,13,5.1,16c1.7,0.9,3.6,1.3,5.5,1.3c4.3,0,8.5-2.4,10.6-6.4
			c16.6-32.2,19.8-59.1,23.1-87.5l0.7-6.4C326.4,322,325.3,318.6,323,316.1z"/>
		<path class="st0" d="M178.8,335.7l-26.6-21.3c-9.3-7.4-10.1-15.7-10.1-25.7V229c0-6.6-5.3-11.9-11.9-11.9
			c-6.6,0-11.9,5.3-11.9,11.9v59.8c0,9.4,0,29.1,19,44.3l26.6,21.2c1,0.8,1.2,1.8,1.3,2.3c0.1,0.6,0,1.6-0.7,2.5l-37.2,46.4
			c-4.1,5.1-3.3,12.6,1.8,16.7c2.2,1.8,4.8,2.6,7.4,2.6c3.5,0,7-1.5,9.3-4.5l37.2-46.4c4.6-5.7,6.6-12.8,5.8-20
			C188.1,346.8,184.5,340.3,178.8,335.7z"/>
		<path class="st0" d="M307.1,60.2c2,4.5,6.3,7.2,10.9,7.2c1.6,0,3.2-0.3,4.8-1c6-2.6,8.8-9.6,6.2-15.7L310,7.2
			c-2.6-6-9.6-8.8-15.7-6.2c-6,2.6-8.8,9.6-6.2,15.7L307.1,60.2z"/>
		<path class="st0" d="M177.2,66.3c1.6,0.7,3.2,1,4.8,1c4.6,0,9-2.7,10.9-7.2l19-43.5c2.6-6-0.1-13.1-6.2-15.7
			c-6-2.6-13,0.1-15.7,6.2l-19,43.5C168.5,56.7,171.2,63.7,177.2,66.3z"/>
		<path class="st0" d="M250,91.2c6.6,0,11.9-5.3,11.9-11.9V11.9C261.9,5.4,256.6,0,250,0s-11.9,5.3-11.9,11.9v67.4
			C238.1,85.9,243.4,91.2,250,91.2z"/>
	</g>
</g>
</svg>
