<svg viewBox="0 0 350 487" version="1.1" xmlns="http://www.w3.org/2000/svg" xmlns:xlink="http://www.w3.org/1999/xlink">
    <title>espresso</title>
    <defs></defs>
    <g id="Page-1" stroke-width="1" fill-rule="evenodd">
        <g id="espresso" transform="translate(8.401273, -6.000000)" fill-rule="nonzero">
            <path d="M82.8125,437.604167 L82.8125,476.5625 L250.3125,476.5625 L250.3125,437.604167 L82.8125,437.604167 Z M75,421.979167 L258.125,421.979167 C262.439725,421.979167 265.9375,425.476942 265.9375,429.791667 L265.9375,484.375 C265.9375,488.689725 262.439725,492.1875 258.125,492.1875 L75,492.1875 C70.6852754,492.1875 67.1875,488.689725 67.1875,484.375 L67.1875,429.791667 C67.1875,425.476942 70.6852754,421.979167 75,421.979167 Z" id="Rectangle-path"></path>
            <path d="M112.604167,314.791667 C112.604167,310.476942 116.101942,306.979167 120.416667,306.979167 L215.208333,306.979167 C219.523058,306.979167 223.020833,310.476942 223.020833,314.791667 L223.003701,362.607888 C224.369638,383.199151 214.159168,402.838492 196.51958,413.548805 C178.879991,424.259117 156.745009,424.259117 139.10542,413.548805 C121.465832,402.838492 111.255362,383.199151 112.604167,363.125 L112.604167,314.791667 Z M128.212034,363.642112 C127.231955,378.416633 134.558111,392.508138 147.214765,400.192939 C159.871419,407.877739 175.753581,407.877739 188.410235,400.192939 C201.066889,392.508138 208.393045,378.416633 207.395833,363.125 L207.395833,322.604167 L128.226427,322.604167 L128.212034,363.642112 Z" id="Shape"></path>
            <path d="M221.875,336.354167 C217.560275,336.354167 214.0625,332.856391 214.0625,328.541667 C214.0625,324.226942 217.560275,320.729167 221.875,320.729167 C236.199886,320.729167 247.8125,332.341781 247.8125,346.666667 C247.8125,360.991552 236.199886,372.604167 221.875,372.604167 C217.560275,372.604167 214.0625,369.106391 214.0625,364.791667 C214.0625,360.476942 217.560275,356.979167 221.875,356.979167 C227.570436,356.979167 232.1875,352.362103 232.1875,346.666667 C232.1875,340.97123 227.570436,336.354167 221.875,336.354167 Z" id="Shape"></path>
            <path d="M7.8125,78.3333333 L7.8124993,441.461648 C7.80444051,460.45677 22.907149,476.01256 41.6666667,476.5625 L291.439119,476.565814 C310.426184,476.01256 325.528893,460.45677 325.520833,441.458333 L325.520834,78.3300188 C325.533819,47.7236344 301.199188,22.6589643 270.833333,21.7708333 L62.6174098,21.7708333 C32.0757622,22.7191432 7.79952995,47.7603757 7.8125,78.3333333 Z M62.2724522,6.14914783 L271.060881,6.14914783 C310.1055,7.28684889 341.162405,39.275461 341.145833,78.3333333 L341.145833,441.455019 C341.157478,468.904944 319.332496,491.384676 291.666667,492.1875 L41.4391188,492.184186 C14.0008372,491.384676 -7.82414508,468.904944 -7.8125,441.458333 L-7.8124993,78.3366478 C-7.82907122,39.275461 23.2278338,7.28684889 62.2724522,6.14914783 Z" id="Shape"></path>
            <path d="M158.854167,259.583333 C158.854167,255.268609 162.351942,251.770833 166.666667,251.770833 C170.981391,251.770833 174.479167,255.268609 174.479167,259.583333 L174.479167,277.916667 C174.479167,282.231391 170.981391,285.729167 166.666667,285.729167 C162.351942,285.729167 158.854167,282.231391 158.854167,277.916667 L158.854167,259.583333 Z" id="Shape"></path>
            <path d="M166.666667,263.854167 C147.509289,263.854167 131.979167,248.324044 131.979167,229.166667 C131.979167,210.009289 147.509289,194.479167 166.666667,194.479167 C185.824044,194.479167 201.354167,210.009289 201.354167,229.166667 C201.354167,248.324044 185.824044,263.854167 166.666667,263.854167 Z M166.666667,248.229167 C177.194595,248.229167 185.729167,239.694595 185.729167,229.166667 C185.729167,218.638739 177.194595,210.104167 166.666667,210.104167 C156.138739,210.104167 147.604167,218.638739 147.604167,229.166667 C147.604167,239.694595 156.138739,248.229167 166.666667,248.229167 Z" id="Oval"></path>
            <path d="M139.613518,219.066898 C143.695695,220.46428 145.872151,224.906341 144.474769,228.988518 C143.077387,233.070695 138.635326,235.247151 134.553149,233.849769 C88.5361079,218.097537 60.6567752,171.380411 68.6412087,123.401773 C76.6256421,75.4231351 118.132362,40.2529877 166.770833,40.2529877 C215.409304,40.2529877 256.916025,75.4231351 264.900458,123.401773 C272.884891,171.380411 245.005559,218.097537 198.988518,233.849769 C194.906341,235.247151 190.46428,233.070695 189.066898,228.988518 C187.669515,224.906341 189.845971,220.46428 193.928149,219.066898 C232.717382,205.788838 256.217762,166.40948 249.487428,125.966754 C242.757094,85.5240281 207.769754,55.8779877 166.770833,55.8779877 C125.771913,55.8779877 90.7845727,85.5240281 84.0542387,125.966754 C77.3239047,166.40948 100.824285,205.788838 139.613518,219.066898 Z" id="Shape"></path>
            <path d="M75,147.604167 C70.6852754,147.604167 67.1875,144.106391 67.1875,139.791667 C67.1875,135.476942 70.6852754,131.979167 75,131.979167 L258.333333,131.979167 C262.648058,131.979167 266.145833,135.476942 266.145833,139.791667 C266.145833,144.106391 262.648058,147.604167 258.333333,147.604167 L75,147.604167 Z" id="Shape"></path>
        </g>
    </g>
</svg>
