<svg id="Calque_1" data-name="Calque 1" xmlns="http://www.w3.org/2000/svg" viewBox="0 0 24 24"><defs></defs><title>Ventilateur</title><path class="cls-1" d="M14.79,13.23a3.19,3.19,0,0,0-.71-3.14l.3.27c.23.2.47.41.79.65a1.94,1.94,0,0,0,1.15.36,2.32,2.32,0,0,0,1-.23,2.44,2.44,0,0,0,1.26-2.28A3,3,0,0,0,16.82,6a3.19,3.19,0,0,0-3.14.71l.26-.3c.2-.23.42-.47.66-.79a2.09,2.09,0,0,0,.12-2.15A2.41,2.41,0,0,0,12.45,2.2,3,3,0,0,0,9.58,4a3.2,3.2,0,0,0,.7,3.14L10,6.84c-.23-.2-.47-.42-.8-.66a2.07,2.07,0,0,0-2.14-.12A2.4,2.4,0,0,0,5.78,8.34,3,3,0,0,0,7.55,11.2a2.4,2.4,0,0,0,.9.17,3.77,3.77,0,0,0,2.21-.84l-.23.27c-.2.22-.42.47-.66.79a2.07,2.07,0,0,0-.12,2.14A2.4,2.4,0,0,0,11.92,15,3,3,0,0,0,14.79,13.23ZM11.52,8.62a.68.68,0,1,1,.68.68A.68.68,0,0,1,11.52,8.62Zm5-1.93a2.31,2.31,0,0,1,1.29,2.17A1.66,1.66,0,0,1,17,10.47a1.37,1.37,0,0,1-1.36-.06c-.3-.22-.53-.43-.74-.61a4.85,4.85,0,0,0-1.28-.9,1.27,1.27,0,0,0,0-.28,1.38,1.38,0,0,0-.21-.72C14.56,6.78,15.66,6.34,16.54,6.69ZM10.28,4.24A2.3,2.3,0,0,1,12.45,3a1.64,1.64,0,0,1,1.6.85A1.34,1.34,0,0,1,14,5.16c-.23.3-.43.53-.62.74a5,5,0,0,0-.91,1.32l-.27,0a1.35,1.35,0,0,0-.69.19C10.37,6.23,9.92,5.12,10.28,4.24ZM7.82,10.5A2.3,2.3,0,0,1,6.53,8.34a1.65,1.65,0,0,1,.86-1.61,1.34,1.34,0,0,1,1.36.06,9,9,0,0,1,.74.61,5.13,5.13,0,0,0,1.31.91,1.63,1.63,0,0,0,0,.31,1.36,1.36,0,0,0,.17.67C9.8,10.42,8.7,10.86,7.82,10.5ZM14.09,13a2.3,2.3,0,0,1-2.17,1.29,1.65,1.65,0,0,1-1.6-.85,1.36,1.36,0,0,1,0-1.37,8.89,8.89,0,0,1,.62-.74A4.9,4.9,0,0,0,11.88,10a1.12,1.12,0,0,0,.32,0,1.41,1.41,0,0,0,.7-.19C14,11,14.44,12.08,14.09,13Z"/><path class="cls-1" d="M20.47,8.6a8.29,8.29,0,1,0-9.7,8.16v4.18H8.44a1.38,1.38,0,1,0,0,2.75h7.91a1.38,1.38,0,0,0,0-2.75H14V16.68A8.3,8.3,0,0,0,20.47,8.6ZM4.65,8.6a7.54,7.54,0,1,1,7.53,7.54A7.54,7.54,0,0,1,4.65,8.6ZM17,22.32a.62.62,0,0,1-.62.62H8.44a.63.63,0,1,1,0-1.25h7.91A.63.63,0,0,1,17,22.32Zm-3.7-1.38H11.52V16.85c.22,0,.44,0,.66,0a9.81,9.81,0,0,0,1.09-.08Z"/></svg>
