<svg id="Calque_1" data-name="Calque 1" xmlns="http://www.w3.org/2000/svg" viewBox="0 0 100 100"><defs></defs><title>Fir Tree View</title><path class="cls-1" d="M59.61,81l-26.92-8.7V65l21,8.21a1.5,1.5,0,1,0,1.1-2.8L32.69,61.73V52.89l16.8,8a1.49,1.49,0,0,0,2-.71,1.51,1.51,0,0,0-.71-2L32.69,49.57v-11l13.68,7.88a1.5,1.5,0,0,0,1.5-2.6L32.69,35.09V27.25l8,6.74a1.5,1.5,0,0,0,1.94-2.3l-10-8.36V16.76l6.19,6.18A1.5,1.5,0,0,0,41,20.82l-8.31-8.31V6.38l3.88,3.7a1.5,1.5,0,0,0,2.07-2.17L32.23,1.79a1.49,1.49,0,0,0-2.49.78l-5.92,5.7a1.5,1.5,0,0,0,1,2.58,1.48,1.48,0,0,0,1-.42l3.79-3.65V11.9l-9.16,9.15a1.51,1.51,0,0,0,1.06,2.57,1.49,1.49,0,0,0,1.06-.44l7-7v6.7L18.9,31.92a1.5,1.5,0,0,0,1.93,2.3l8.86-7.46v8.56L14.52,44.06a1.5,1.5,0,0,0,1.5,2.6l13.67-7.88V49.4l-18.93,9a1.5,1.5,0,0,0,.64,2.86,1.43,1.43,0,0,0,.64-.15l17.65-8.36v8.91l-22.91,9a1.5,1.5,0,0,0,1.09,2.79l21.82-8.54V72.3L1.81,83.93A1.5,1.5,0,1,0,3,86.69L29.69,75.55V91.74a1.5,1.5,0,1,0,3,0V75.41l26,8.4A1.5,1.5,0,1,0,59.61,81Z"/><path class="cls-1" d="M98.07,82.91,85.43,78.83V72.49l8.88,4.2A1.5,1.5,0,0,0,95.59,74L85.43,69.17V63l5,3.51A1.5,1.5,0,0,0,92.17,64l-6.74-4.71v-3L88,58.83a1.49,1.49,0,0,0,2.12,0,1.51,1.51,0,0,0,0-2.12l-4.65-4.65V45.9L86.62,47a1.5,1.5,0,0,0,2.07-2.17L85,41.31a1.49,1.49,0,0,0-2.43.57l-3.33,3.2a1.51,1.51,0,0,0,0,2.12,1.49,1.49,0,0,0,1.08.46,1.53,1.53,0,0,0,1.05-.42l1.14-1.1V51.7l-5.15,5.15a1.51,1.51,0,0,0,0,2.12,1.53,1.53,0,0,0,1.06.44A1.49,1.49,0,0,0,79.4,59l3-3v3.13l-7.24,5.06A1.5,1.5,0,1,0,76.9,66.6l5.53-3.86v6.33L71.77,74.12A1.5,1.5,0,0,0,72.41,77a1.57,1.57,0,0,0,.64-.14l9.38-4.44V78.8L66.71,83.88a1.5,1.5,0,0,0,.46,2.93,1.47,1.47,0,0,0,.46-.07L82.43,82V94.1a1.5,1.5,0,0,0,3,0V82l11.72,3.79a1.5,1.5,0,1,0,.92-2.86Z"/><path class="cls-1" d="M83.08,92.56c-8.9-.83-20.71-1.28-33.27-1.28s-24.37.45-33.27,1.28C2.59,93.85,1.46,95.39,1.46,97.12a1.5,1.5,0,0,0,2.89.57c2.36-1.46,19-3.41,45.46-3.41s43.1,2,45.47,3.41a1.5,1.5,0,0,0,2.88-.57C98.16,95.39,97,93.85,83.08,92.56Z"/></svg>
