<?xml version="1.0" encoding="utf-8"?>
<!-- Generator: Adobe Illustrator 23.0.3, SVG Export Plug-In . SVG Version: 6.00 Build 0)  -->
<svg version="1.1" id="Calque_1" xmlns="http://www.w3.org/2000/svg" xmlns:xlink="http://www.w3.org/1999/xlink" x="0px" y="0px"
	 viewBox="0 0 128 128" style="enable-background:new 0 0 128 128;" xml:space="preserve">
<style type="text/css">
	.st0{fill:#005589;}
</style>
<title>WIP/Icons/Equipments/Chalet/Fireplace</title>
<desc>Created with Sketch.</desc>
<g>
	<path id="Icon" class="st0" d="M64,93c-12.8,0-23.1-10.4-23.1-23.1c0-8.2,5-21,15.1-38.7l3.7-6.5l0.1,7.5
		C60,45.8,61.9,52.5,64,52.5c1.1,0,2.4-2.3,3.1-6.4c0.3-1.7,0.5-3.5,0.6-5.3c0-0.6,0.1-1.2,0.1-1.8c0-0.2,0-0.4,0-0.6V33l3.6,3.9
		c8.7,9.5,15.7,25.2,15.7,32.9C87.1,82.6,76.8,93,64,93z M64,56.6c-4.8,0-7.2-5.7-8-17c-7.3,13.8-11,23.9-11,30.3
		c0,10.5,8.5,19,19,19s19-8.5,19-19c0-5.6-4.9-17.4-11.4-26.1c-0.1,1-0.3,2.1-0.4,3.1C70.1,52.8,68,56.6,64,56.6z M3.1,126.4
		c-1.1,0-2.1-0.9-2.1-2.1c0-1.1,0.9-2.1,2.1-2.1h121.9c1.1,0,2.1,0.9,2.1,2.1c0,1.1-0.9,2.1-2.1,2.1H3.1z M3.1,13.9
		C1.9,13.9,1,13,1,11.8c0-1.1,0.9-2.1,2.1-2.1h121.9c1.1,0,2.1,0.9,2.1,2.1c0,1.1-0.9,2.1-2.1,2.1H3.1z M14.8,5.7
		c-1.1,0-2.1-0.9-2.1-2.1s0.9-2.1,2.1-2.1h98.5c1.1,0,2.1,0.9,2.1,2.1s-0.9,2.1-2.1,2.1H14.8z M46.4,108.8c-1.1,0-2.1-0.9-2.1-2.1
		c0-1.1,0.9-2.1,2.1-2.1h36.3c1.1,0,2.1,0.9,2.1,2.1c0,1.1-0.9,2.1-2.1,2.1H46.4z M52.3,100.6c-1.1,0-2.1-0.9-2.1-2.1
		c0-1.1,0.9-2.1,2.1-2.1h24.6c1.1,0,2.1,0.9,2.1,2.1c0,1.1-0.9,2.1-2.1,2.1H52.3z M9.8,17.1h4.1v102H9.8V17.1z M114.1,17.1h4.1v102
		h-4.1V17.1z"/>
</g>
</svg>
