<svg version="1.1"
   xmlns="http://www.w3.org/2000/svg" xmlns:xlink="http://www.w3.org/1999/xlink"
   x="0px" y="0px" viewBox="0 0 500 809.1" style="enable-background:new 0 0 500 809.1;"
   xml:space="preserve">

<defs>
</defs>
<g>
  <g>
    <path class="st0" d="M495.6,719.8l-74-172.1c-14.7-34.1-23.9-54.1-33.6-68.7c-6.1-9.2-19.2-28.8-34.5-51.7
      c-28.7-42.9-64.3-96.2-76.6-114.7c-17.9-27-14.7-53.1-9.5-96.3l14.9-124.3l8.4-69.9c1.3-10.7-6.4-20.5-17.1-21.8
      c-10.7-1.3-20.5,6.4-21.8,17.1l-8.4,69.9l-14.9,124.3c-5.6,46.7-10.1,83.7,15.8,122.7c12.3,18.6,48,72,76.7,114.9
      c15.3,22.9,28.4,42.5,34.5,51.6c8,12.1,16.8,31.3,30.2,62.5l74,172.1c3.3,7.7-0.4,17-8.1,20.3c-8.1,3.5-18.7-0.3-22.7-8.2
      l-42.5-83.4l0,0L330,553.2c-2.4-4.7-6.6-8.3-11.7-9.8c-5.1-1.6-10.6-1-15.2,1.6l-105.6,58.2c-16.4,9.1-23.9,16.7-24.9,37.3
      c-0.8,16.1-4.6,93.3-6.4,129.4h-11.7c-7.1,0-14.6-3.6-14.7-9.7c-0.4-17.8-2.3-113.6-2.7-140.4c-0.4-23.7,1.7-28.6,16-37.4
      c16-9.9,58.5-36.4,65.7-41c11.2-7.1,15.1-15.9,16.4-22.1c1.3-6.2,1.4-16.1-6.1-27.4c-9-13.7-94.4-144.1-94.5-144.1
      c-13.9-21.7-34.1-33-55.3-30.9C59.1,318.9,41,333,33.1,353c-0.1,0.2-0.1,0.3-0.2,0.5C18,394.6,12.5,410.1,10,417.1
      c-2,5.7-2,5.7-3.6,9.9l-0.4,1.2c-9.3,24.5-7.6,47.8,4.7,65.7c12.5,18.1,34.8,28.9,59.7,28.9h65.9c10.8,0,19.6-8.8,19.6-19.6
      c0-10.8-8.8-19.6-19.6-19.6H70.3c-11.8,0-22.3-4.6-27.4-12c-6.2-8.9-3.6-21-0.4-29.6l0.4-1.2c1.7-4.4,1.7-4.4,3.9-10.5
      c2.5-7,8-22.4,22.8-63.2c2.5-6.1,8-10.7,13.5-11.2c8.3-0.8,15.2,7.9,18.7,13.3c0,0,77.2,117.7,92.7,141.3
      c-12.4,7.8-47.7,29.8-61.9,38.6c-32.7,20.2-35.1,44.3-34.6,71.4c0.4,26.8,2.3,122.8,2.7,140.7c0.6,26.9,24.3,48,53.9,48h30.3
      c10.4,0,19.1-8.2,19.6-18.6c0,0,6.2-126.8,7.3-148c0-1,0.1-1.8,0.2-2.3c1.1-0.7,2.6-1.6,4.6-2.7l87.7-48.4l47.1,92.6c0,0,0,0,0,0
      l0,0l42.5,83.4c9.9,19.4,30.3,30.9,51.3,30.9c7.4,0,14.9-1.5,21.9-4.5C494.6,779.6,507.4,747.4,495.6,719.8z"/>
    <path class="st0" d="M123.5,301.5c40.6,0,73.7-32.8,73.7-73.2c0-40.4-32.6-73.3-72.8-73.3c-40.6,0-73.7,32.9-73.7,73.3
      C50.7,268.7,83.4,301.5,123.5,301.5z M124.4,194.3c18.5,0,33.6,15.3,33.6,34.1c0,18.4-15.8,34-34.5,34c-18.5,0-33.6-15.3-33.6-34
      C89.9,209.9,105.7,194.3,124.4,194.3z"/>
  </g>
</g>
</svg>
