<svg version="1.1" id="图层_1" xmlns="http://www.w3.org/2000/svg" xmlns:xlink="http://www.w3.org/1999/xlink" x="0px" y="0px"
	 viewBox="0 0 500 500" style="enable-background:new 0 0 500 500;" xml:space="preserve">
<g>
	<path class="st0" d="M499.5,392.5V256.9l-32.4-11c0,0-51-21.4-107.5,6.9c-7.6,2.8-168.8,70.9-168.8,70.9s-21.4,22.7,12.4,39.3
		c24.8,12.4,82.7-20,82.7-20s33.1-13.1,55.8,6.2l-103.3,42.7c0,0-80.6,24.8-85.4-50.3L47.6,296.1c0,0-42.7-19.3-46.8,20.7
		c0,0-4.1,6.9,17.9,21.4c22,15.2,157,105.4,157,105.4s45.5,39.3,133.6-4.1l96.4-41.3C406.5,398.7,451.3,379.5,499.5,392.5z"/>
	<g>
		<path class="st0" d="M263.9,196.2h-73v72.3h-36.5v-72.3h-73v-36.5h73v-73h36.5v73h72.3v36.5H263.9z"/>
	</g>
	<g>
		<path class="st0" d="M354.2,98.4h-43.4v43.4h-22V98.4h-43.4v-22h43.4V33h22v43.4h43.4V98.4z"/>
	</g>
</g>
</svg>
