<svg id="Layer_1" data-name="Layer 1" xmlns="http://www.w3.org/2000/svg" viewBox="0 0 40 40"><defs></defs><title>Untitled-4</title><g id="icon_folder_40"><path class="cls-1" d="M39.76,31.84a.73.73,0,0,0,.09-.31v0h0v-19a.75.75,0,0,0-.75-.75H21.86V8.5a.75.75,0,0,0-.75-.75h-13a.75.75,0,0,0-.75.75v9.25H.89a.75.75,0,0,0-.66,1.11l7.21,13a.75.75,0,0,0,.66.39h31l.19,0,.14-.06.05,0a.74.74,0,0,0,.24-.23l0,0S39.76,31.85,39.76,31.84ZM8.86,9.25h11.5V12.5a.75.75,0,0,0,.75.75H38.36V28.6l-5.8-10.46a.75.75,0,0,0-.66-.39h-23Zm-6.69,10H31.45l6.38,11.5H8.55Z"/></g></svg>
