<svg xmlns="http://www.w3.org/2000/svg" viewBox="0 0 16 16">
  <g transform="translate(2)">
    <path d="M4.06375321,3.32307692 C5.00951157,3.32307692 5.7781491,2.57813765 5.7781491,1.66153846 C5.7781491,0.744939271 5.00951157,0 4.06375321,0 C3.11799486,0 2.34935733,0.744939271 2.34935733,1.66153846 C2.34935733,2.57813765 3.11799486,3.32307692 4.06375321,3.32307692 Z M4.06375321,0.809716599 C4.54832905,0.809716599 4.94267352,1.19190283 4.94267352,1.66153846 C4.94267352,2.13117409 4.54832905,2.51336032 4.06375321,2.51336032 C3.57917738,2.51336032 3.1848329,2.13117409 3.1848329,1.66153846 C3.1848329,1.19190283 3.57917738,0.809716599 4.06375321,0.809716599 Z M2.87737789,15.9935223 C3.65269923,15.9935223 4.28431877,15.3846154 4.28431877,14.6299595 C4.28431877,13.8785425 3.65604113,13.2663968 2.87737789,13.2663968 C2.10205656,13.2663968 1.47043702,13.8753036 1.47043702,14.6299595 C1.47377892,15.3846154 2.10205656,15.9935223 2.87737789,15.9935223 Z"/>
    <path d="M0.334190231,9.44777328 C0.561439589,9.49311741 0.782005141,9.35060729 0.828791774,9.13360324 C1.62750643,5.35060729 2.53650386,4.82267206 2.79717224,4.751417 C2.98431877,4.69959514 3.13804627,4.7902834 3.20822622,4.84534413 L6.26940874,12.4825911 C6.29280206,12.534413 6.31619537,12.5862348 6.34627249,12.6380567 C6.56683805,13.0040486 6.97120823,13.2145749 7.38894602,13.2145749 C7.53933162,13.2145749 7.68971722,13.188664 7.83341902,13.1303644 C7.95372751,13.0850202 8.05732648,13.017004 8.15424165,12.9392713 L8.83933162,14.5910931 C8.86272494,14.6461538 8.88946015,14.6979757 8.91619537,14.7465587 C9.13676093,15.1093117 9.54113111,15.3198381 9.95886889,15.3198381 C10.1092545,15.3198381 10.2596401,15.2939271 10.4033419,15.2356275 C11.0182519,14.9959514 11.3156812,14.3157895 11.0717224,13.7263158 L6.94781491,3.37813765 C6.9344473,3.30364372 6.88431877,2.95708502 7.15835476,2.71093117 C7.46246787,2.4388664 8.58200514,1.94008097 12.4218509,3.22267206 C12.6390746,3.29716599 12.8796915,3.18380567 12.9532134,2.97327935 C13.0300771,2.76275304 12.9131105,2.53279352 12.6958869,2.4582996 C9.51439589,1.39271255 7.51928021,1.28259109 6.59023136,2.11497976 C6.05218509,2.60080972 6.05552699,3.27449393 6.14241645,3.59838057 C6.14575835,3.61133603 6.15244216,3.62753036 6.15578406,3.64048583 L10.296401,14.0242915 C10.3732648,14.205668 10.2796915,14.4129555 10.092545,14.4874494 C9.92544987,14.5522267 9.73161954,14.4874494 9.63804627,14.3384615 C9.62802057,14.3255061 9.62133676,14.3093117 9.61465296,14.2931174 L7.33547558,8.8097166 C7.24858612,8.60242915 7.00462725,8.50202429 6.7907455,8.58623482 C6.57686375,8.67044534 6.47326478,8.90688259 6.56015424,9.11417004 L7.71311054,11.8931174 C7.71645244,11.902834 7.71645244,11.9125506 7.72313625,11.9222672 C7.75989717,12.0097166 7.75989717,12.1068826 7.71979434,12.194332 C7.67969152,12.2817814 7.60951157,12.3497976 7.51928021,12.3854251 C7.35218509,12.4502024 7.15835476,12.3854251 7.06812339,12.2364372 C7.05809769,12.2202429 7.05141388,12.2040486 7.04473008,12.194332 L3.95012853,4.47611336 C3.93341902,4.43076923 3.9066838,4.39190283 3.87326478,4.3562753 C3.67943445,4.14251012 3.1848329,3.81862348 2.58329049,3.97408907 C1.50385604,4.24615385 0.661696658,5.88178138 0.0100257069,8.96842105 C-0.0367609254,9.18866397 0.106940874,9.40242915 0.334190231,9.44777328 Z"/>
  </g>
</svg>
