<svg id="Calque_1" data-name="Calque 1" xmlns="http://www.w3.org/2000/svg" viewBox="0 0 24 24"><defs></defs><title>Réfrigérateur</title><path class="cls-1" d="M18,.17H6a.36.36,0,0,0-.37.37V22.42a.37.37,0,0,0,.37.37H7v.68a.38.38,0,0,0,.75,0v-.68h8.63v.68a.36.36,0,0,0,.37.37.37.37,0,0,0,.38-.37v-.68H18a.37.37,0,0,0,.37-.37V.54A.36.36,0,0,0,18,.17Zm-.38.75V8H6.42V.92ZM6.42,22V8.79H17.58V22Z"/><path class="cls-1" d="M8.41,6.79a.38.38,0,0,0,.38-.37V2.54a.37.37,0,0,0-.38-.37A.36.36,0,0,0,8,2.54V6.42A.37.37,0,0,0,8.41,6.79Z"/><path class="cls-1" d="M8.41,10.75a.37.37,0,0,0-.37.37v4.19a.37.37,0,0,0,.37.38.38.38,0,0,0,.38-.38V11.12A.38.38,0,0,0,8.41,10.75Z"/></svg>
