<?xml version="1.0" encoding="UTF-8"?>
<svg viewBox="0 0 53 57" version="1.1" xmlns="http://www.w3.org/2000/svg" xmlns:xlink="http://www.w3.org/1999/xlink">
    <!-- Generator: Sketch 53.2 (72643) - https://sketchapp.com -->
    <title>Combined Shape</title>
    <desc>Created with Sketch.</desc>
    <g id="Icons---Kids" stroke="none" stroke-width="1" fill="none" fill-rule="evenodd">
        <g id="Icons/Kids_icons_board" transform="translate(-433.000000, -283.000000)" fill="#005589" fill-rule="nonzero">
            <g id="Icons" transform="translate(16.000000, 104.000000)">
                <g id="Assets/Icons/Equipments/Room/Fruit-basket" transform="translate(413.000000, 177.000000)">
                    <path d="M13.3881071,52.6757762 C9.07399096,49.0347773 5.95969012,43.9903484 4.77390116,38.1932 C4.69614377,37.8134925 4.62674409,37.4307396 4.56590273,37.0451421 L4.43803566,36.25 L4.45313674,36.25 C4.31907833,35.185533 4.25,34.1008335 4.25,33 L4.25,32.25 L55.75,32.25 L55.75,33 C55.75,34.1008335 55.6809217,35.185533 55.5468633,36.25 L55.5619643,36.25 L55.4340973,37.0451421 C55.3732559,37.4307396 55.3038562,37.8134925 55.2260988,38.1932 C54.0403099,43.9903484 50.926009,49.0347773 46.6118928,52.6757762 C42.1278191,56.4654405 36.3307033,58.75 30,58.75 C23.6692967,58.75 17.8721808,56.4654405 13.3881071,52.6757762 Z M14.3792001,51.5493739 C18.6189269,55.1182775 24.0850446,57.25 30,57.25 C35.9149554,57.25 41.3810731,55.1182775 45.6207999,51.5493739 C49.7449979,48.0727285 52.6935871,43.2457451 53.784991,37.75 L6.21500896,37.75 C7.30641293,43.2457451 10.2550021,48.0727285 14.3792001,51.5493739 Z M5.96590348,36.25 L54.0340965,36.25 C54.1440681,35.4289618 54.2129556,34.5949166 54.2386229,33.75 L5.7613771,33.75 C5.78704445,34.5949166 5.85593186,35.4289618 5.96590348,36.25 Z M11.1614074,42.4494351 C10.9860739,42.0741605 11.1481583,41.6278044 11.5234329,41.4524709 C11.8987076,41.2771375 12.3450636,41.4392218 12.5203971,41.8144965 C14.4994911,46.0504468 17.5411519,48.920609 21.6727136,50.4595691 C22.0608734,50.6041542 22.2583297,51.0360293 22.1137445,51.4241891 C21.9691594,51.8123489 21.5372843,52.0098052 21.1491245,51.86522 C16.6429414,50.1867177 13.304591,47.0365941 11.1614074,42.4494351 Z M51.7738939,31 L50.2933399,31 C50.2967602,30.7399566 50.3145068,30.4532143 50.3444963,30.1343875 C50.3774995,29.7835233 50.4240554,29.4035963 50.4950682,28.885296 C50.5062611,28.8036021 50.6418332,27.836472 50.680915,27.5437486 C50.8195472,26.5053936 50.894556,25.7294036 50.9134536,24.9973125 C50.97049,22.7877255 50.4726608,21.4317031 49.2288343,20.808233 C48.0591898,20.2219468 46.9367313,20.6514475 45.561063,22.0775104 C45.0880009,22.5679021 44.6242679,23.1306896 43.9964537,23.9534701 C41.7258618,26.9291895 41.5542624,27.1283683 40.6026641,27.4560299 C38.7274512,28.1017175 37.2592908,29.3951346 36.3621984,31 L34.6850872,31 C35.6948095,28.7487662 37.5973535,26.9044103 40.1143118,26.037752 C40.6177868,25.8643917 40.9130627,25.5216591 42.8039589,23.0435492 C43.464027,22.1784984 43.9593456,21.5773785 44.4814994,21.0360967 C45.7598832,19.7108821 47.0246387,18.9916164 48.3355867,19.0427167 C48.0774387,18.3236666 48.0160186,17.3861741 48.1323145,16.5021213 C46.5909927,17.441944 44.8018385,17.7715245 43.1483831,17.3125999 C43.1046061,17.3378128 43.0488856,17.372286 42.976822,17.418676 C42.9359716,17.4450505 42.9359716,17.4450505 42.8930658,17.4728956 C42.6488583,17.6313324 42.5329701,17.7013524 42.3805022,17.7715534 C42.0381476,17.9291843 41.7177083,17.9765469 41.375,17.7786842 C40.912017,17.5113808 40.8654798,17.2344453 40.8614595,16.4876617 C40.8612478,16.4176076 40.8612478,16.4176076 40.8613913,16.3502104 C40.8618605,16.1508176 40.8608309,16.0613172 40.855709,15.9906798 C40.8600148,15.9953479 40.8771603,16.0314432 40.9415815,16.0962266 C38.7007398,14.099237 38.3338747,10.4120931 40.0873412,7.375 C41.8123351,4.38722293 45.1080884,2.86210614 47.9625657,3.7194082 C48.0360052,3.68342237 48.1243332,3.63411676 48.3189056,3.52255781 C48.3536317,3.50265378 48.3536317,3.50265378 48.3890207,3.48244702 C48.6171433,3.35239759 48.763576,3.27560171 48.9161217,3.21355152 C49.2597507,3.07377543 49.5475177,3.03224382 49.875,3.22131582 C50.2548941,3.4406478 50.3519435,3.77158216 50.3464162,4.1798464 C50.3441137,4.34991777 50.3271489,4.48564919 50.2800854,4.78714833 L50.2754477,4.81686433 C50.2576579,4.93096547 50.2460878,5.01108935 50.2390513,5.07188672 C52.3219505,7.13324076 52.6099,10.685292 50.9126588,13.625 C50.8416468,13.7479964 50.7679674,13.868521 50.6917611,13.9865086 C51.5713966,14.5710493 51.8339526,16.3043369 51.576154,17.8031404 C52.6056424,16.9437947 53.8744232,16.2487976 55.376815,15.7170474 C55.7672924,15.5788435 56.1958732,15.7833515 56.3340771,16.1738289 C56.472281,16.5643062 56.2677729,16.992887 55.8772956,17.1310909 C53.7372106,17.8885435 52.1829909,18.9855907 51.1908718,20.4176246 C51.1861279,20.424472 51.1812904,20.431216 51.1763623,20.437856 C52.107247,21.4963284 52.4643671,23.0442826 52.4129541,25.0360193 C52.3924023,25.832195 52.3128297,26.6553991 52.1677222,27.7422542 C51.9156366,29.630376 51.7992863,30.509161 51.7738939,31 Z M26.3057541,31 C26.2692654,30.8391943 26.25,30.671847 26.25,30.5 C26.25,29.2573593 27.2573593,28.25 28.5,28.25 C29.7426407,28.25 30.75,29.2573593 30.75,30.5 C30.75,30.671847 30.7307346,30.8391943 30.6942459,31 L29.0590309,31 C29.1777866,30.8673109 29.25,30.6920886 29.25,30.5 C29.25,30.0857864 28.9142136,29.75 28.5,29.75 C28.0857864,29.75 27.75,30.0857864 27.75,30.5 C27.75,30.6920886 27.8222134,30.8673109 27.9409734,31 L26.3057541,31 Z M23.5192356,31 L21.9689856,31 C23.0147573,27.369885 21.0829858,23.4987369 17.479646,22.1872285 C16.8193247,21.9468912 16.3754157,22.1862662 15.340701,23.2430712 C15.2047536,23.3822395 15.1290344,23.4597239 15.0641703,23.5255833 C14.3367544,24.2641622 13.8428598,24.6700685 13.2056744,24.9585473 C12.5729309,25.2450152 11.9447012,25.3607018 10.9096953,25.4488321 C10.816828,25.4567397 10.7063603,25.4657439 10.5088665,25.4818153 C8.94963481,25.6104239 8.44473863,25.8128507 8.1872285,26.520354 C7.64229181,28.0175552 7.62137286,29.5777384 8.03078886,31 L6.48061664,31 C6.10281136,29.3973741 6.17246531,27.6701637 6.77768957,26.0073237 C7.26780235,24.6607499 8.13780152,24.2252995 9.92908368,24.030165 C8.07440429,23.3601709 6.0976602,21.4271119 6.93498926,20.1377382 C7.67100019,19.0043808 9.74570148,19.6550244 11.1650216,20.7947039 C10.9874507,19.5910203 11.0178988,18.2837552 11.2536955,16.8760943 C11.3221268,16.4675725 11.7087737,16.1918748 12.1172955,16.2603061 C12.5258172,16.3287374 12.801515,16.7153843 12.7330837,17.123906 C12.3580329,19.3628868 12.5640313,21.2540971 13.3355274,22.8160878 C13.3710237,22.8879545 13.3939456,22.9627563 13.4051392,23.0379954 C13.5803688,22.8845103 13.7727579,22.6991546 13.9954647,22.4730302 C14.0579094,22.4096272 14.1310924,22.3347382 14.2688981,22.193672 C15.6870332,20.745261 16.5802404,20.2636049 17.9926763,20.7776896 C22.2048714,22.3108032 24.5244588,26.7420298 23.5192356,31 Z M16.008298,6.63467504 C15.482617,5.48225272 16.4083149,6.20016315 14.5125206,5.25533946 C14.1417966,5.07057849 13.9910438,4.62026898 14.1758048,4.24954501 C14.3605657,3.87882104 14.8108752,3.72806824 15.1815992,3.9128292 C17.3421598,4.9896068 16.6113597,4.45012153 17.319353,5.91077151 C17.1181006,6.01095096 16.9244497,6.11130838 16.7385065,6.21204153 C15.9229125,5.05014003 15.7342635,4.76352412 15.9869116,3.03166235 C16.0313417,2.72710143 16.3973448,2.54082142 16.8044025,2.61559431 C17.2114602,2.6903672 17.505428,2.99787801 17.4609979,3.30243893 C17.25606,4.70725481 17.3632452,4.879842 17.9089042,5.62827993 C21.093569,4.16376054 23.1237428,4.28788259 24.3710273,6.84519491 C25.8936679,9.96707068 25.2389784,14.8422407 22.5206341,16.1680658 C19.8022898,17.4938909 15.5575363,15.0083389 14.0348958,11.8864631 C12.9389222,9.6393843 13.6954868,8.07259301 16.008298,6.63467504 Z M8.5,12.75 C7.25735931,12.75 6.25,11.7426407 6.25,10.5 C6.25,9.25735931 7.25735931,8.25 8.5,8.25 C9.74264069,8.25 10.75,9.25735931 10.75,10.5 C10.75,11.7426407 9.74264069,12.75 8.5,12.75 Z M8.5,11.25 C8.91421356,11.25 9.25,10.9142136 9.25,10.5 C9.25,10.0857864 8.91421356,9.75 8.5,9.75 C8.08578644,9.75 7.75,10.0857864 7.75,10.5 C7.75,10.9142136 8.08578644,11.25 8.5,11.25 Z M29.5,8.75 C28.2573593,8.75 27.25,7.74264069 27.25,6.5 C27.25,5.25735931 28.2573593,4.25 29.5,4.25 C30.7426407,4.25 31.75,5.25735931 31.75,6.5 C31.75,7.74264069 30.7426407,8.75 29.5,8.75 Z M29.5,7.25 C29.9142136,7.25 30.25,6.91421356 30.25,6.5 C30.25,6.08578644 29.9142136,5.75 29.5,5.75 C29.0857864,5.75 28.75,6.08578644 28.75,6.5 C28.75,6.91421356 29.0857864,7.25 29.5,7.25 Z M35.5,12.75 C34.2573593,12.75 33.25,11.7426407 33.25,10.5 C33.25,9.25735931 34.2573593,8.25 35.5,8.25 C36.7426407,8.25 37.75,9.25735931 37.75,10.5 C37.75,11.7426407 36.7426407,12.75 35.5,12.75 Z M35.5,11.25 C35.9142136,11.25 36.25,10.9142136 36.25,10.5 C36.25,10.0857864 35.9142136,9.75 35.5,9.75 C35.0857864,9.75 34.75,10.0857864 34.75,10.5 C34.75,10.9142136 35.0857864,11.25 35.5,11.25 Z M35.125,25.7786842 C32.1093832,27.5197513 28.0767842,26.0708164 26.0873412,22.625 C24.0978982,19.1791836 24.8593832,14.962383 27.875,13.2213158 C30.8906168,11.4802487 34.9232158,12.9291836 36.9126588,16.375 C38.9021018,19.8208164 38.1406168,24.037617 35.125,25.7786842 Z M34.375,24.4796461 C36.6206021,23.1831471 37.2140285,19.8969878 35.6136207,17.125 C34.0132128,14.3530122 30.8706021,13.223855 28.625,14.5203539 C26.3793979,15.8168529 25.7859715,19.1030122 27.3863793,21.875 C28.9867872,24.6469878 32.1293979,25.776145 34.375,24.4796461 Z M50.1298205,4.97226673 L50.0963167,4.93557227 C50.0819686,4.92235019 50.0675417,4.90919576 50.0530361,4.8961096 C50.0834624,4.92355855 50.10878,4.94887398 50.1298205,4.97226673 Z M42.3735619,16.7573487 L42.3707143,16.7303889 C42.3651997,16.6758368 42.3620544,16.5941324 42.3614377,16.4795866 C42.3612521,16.4185027 42.3612521,16.4185027 42.3613872,16.3537399 C42.3617202,16.2122097 42.3614399,16.1147716 42.3593717,16.0347721 C42.2989165,16.0717858 42.2344256,16.1126575 42.1649015,16.1574127 C42.1199203,16.1864545 42.1199203,16.1864545 42.0766636,16.2145286 C41.9069135,16.324659 41.8247487,16.37472 41.7796492,16.3989564 C41.8444758,16.3791305 41.9518854,16.3796983 42.125,16.4796461 C42.3068589,16.5846424 42.357885,16.6816855 42.3735619,16.7573487 Z M43.4079024,15.8251232 C45.5763976,16.5132884 48.2090219,15.3078364 49.6136207,12.875 C51.0235174,10.4329872 50.7433506,7.53907334 49.0482689,6.0098613 C48.7816832,5.76936195 48.7206639,5.49054603 48.7307611,5.13972214 C48.7320488,5.09498315 48.7343474,5.05214141 48.7379472,5.00752929 C48.6708336,5.04336168 48.6155539,5.07066024 48.5512974,5.1002835 C48.2298052,5.24849647 47.9864898,5.30860252 47.6746552,5.202074 C45.4939818,4.45711525 42.8106287,5.65812767 41.3863793,8.125 C39.9626267,10.5910119 40.263449,13.5143185 41.9975371,15.0308258 C42.2394591,15.2423931 42.3141043,15.4839956 42.3460145,15.8140235 C42.3532172,15.8885156 42.3572422,15.9523996 42.3593717,16.0347721 C42.7938971,15.7687337 43.0199355,15.7020031 43.4079024,15.8251232 Z M21.8630774,14.8198747 C23.693678,13.9270311 24.2253126,9.96819353 23.0228362,7.50275163 C22.208311,5.83272745 20.9205493,5.82245984 18.1369226,7.1801253 C15.3532959,8.53779077 14.5685616,9.5588822 15.3830869,11.2289064 C16.5855632,13.6943483 20.0324768,15.7127183 21.8630774,14.8198747 Z M49.7511308,18.7732276 C49.7654598,18.7742296 50.0873444,18.0584448 50.158043,17.0474084 C50.2287415,16.0363719 50.0096075,15.2827554 49.9952784,15.2817534 C49.9809494,15.2807514 49.6590648,15.9965362 49.5883662,17.0075727 C49.5176677,18.0186091 49.7368017,18.7722256 49.7511308,18.7732276 Z M11.1283421,22.8609334 C11.1361653,22.8488867 10.6661786,22.2203407 9.81618152,21.6683462 C8.96618446,21.1163517 8.20081833,20.9426501 8.19299511,20.9546968 C8.18517189,20.9667435 8.65515864,21.5952894 9.5051557,22.147284 C10.3551528,22.6992785 11.1205189,22.8729801 11.1283421,22.8609334 Z" id="Combined-Shape"></path>
                </g>
            </g>
        </g>
    </g>
</svg>
