<?xml version="1.0" encoding="UTF-8"?>
<svg viewBox="0 0 38 50" version="1.1" xmlns="http://www.w3.org/2000/svg" xmlns:xlink="http://www.w3.org/1999/xlink">
    <!-- Generator: Sketch 53.2 (72643) - https://sketchapp.com -->
    <title>Combined Shape</title>
    <desc>Created with Sketch.</desc>
    <g id="Icons---Kids" stroke="none" stroke-width="1" fill="none" fill-rule="evenodd">
        <g id="Icons/Kids_icons_board" transform="translate(-144.000000, -286.000000)" fill="#005589" fill-rule="nonzero">
            <g id="Icons" transform="translate(16.000000, 104.000000)">
                <g id="Assets/Icons/Equipments/Room/Fruit-juice" transform="translate(118.000000, 177.000000)">
                    <path d="M29.996936,15 L46.8669297,15 C47.3087575,15 47.6669297,15.3581722 47.6669297,15.8 C47.6669297,15.8212908 47.6660797,15.8425732 47.6643819,15.8637962 L44.7690708,52.0551847 C44.6360275,53.7182258 43.2476163,55 41.5792619,55 L25.0877093,55 C23.4193549,55 22.0309437,53.7182258 21.8979004,52.0551847 L19.774306,25.5102547 C19.7607143,25.5058334 19.7471075,25.5014018 19.7334856,25.4969599 L19.7654102,25.3990579 L19.7532468,25.2470152 C14.3444116,25.116027 10,20.6903594 10,15.25 C10,9.7271525 14.4771525,5.25 20,5.25 C25.4392707,5.25 29.8642558,9.59267308 29.996936,15 Z M28.496394,15 C28.419775,12.3473247 27.1277924,9.9992642 25.1578252,8.49319743 L21.401121,15 L28.496394,15 Z M19.2337986,18.7539125 L16.7264568,23.0967559 C17.6271759,23.4729587 18.6064618,23.6985956 19.6328621,23.7422139 L19.2337986,18.7539125 Z M20.906158,24.6104811 C23.2383134,25.3310807 25.0437539,25.7017074 26.3074611,25.7255245 C27.714545,25.7520439 29.8736852,25.3758899 32.7068624,24.6104761 C35.5333102,23.539278 37.7404171,23 39.3513263,23 C40.8299171,23 42.9653906,23.4555831 45.7806432,24.362607 L46.4336517,16.2 L20.2333195,16.2 L20.906158,24.6104811 Z M21.0089899,25.8958804 L23.0940787,51.9594904 C23.1772308,52.9988911 24.0449878,53.8 25.0877093,53.8 L41.5792619,53.8 C42.6219834,53.8 43.4897404,52.9988911 43.5728925,51.9594904 L45.6822613,25.5923799 C42.8422066,24.6626119 40.7235224,24.2 39.3513263,24.2 C37.9153008,24.2 35.8345224,24.7084113 33.0765463,25.750616 C30.0871514,26.5613448 27.8307293,26.9544468 26.2848487,26.9253115 C24.9781997,26.900685 23.2237141,26.5566705 21.0089899,25.8958804 Z M15.3980214,22.3976735 L18.8030448,16.5 L11.5912653,16.5 C11.9556879,18.9726885 13.3848681,21.0988412 15.3980214,22.3976735 Z M23.8894554,7.69007833 C22.7239549,7.08923543 21.4015938,6.75 20,6.75 C18.661468,6.75 17.3951993,7.05939577 16.268808,7.61057311 L20.1020829,14.25 L23.8894554,7.69007833 Z M14.9847564,8.38653054 C12.934738,9.88706023 11.5820585,12.2838461 11.503606,15 L18.8030448,15 L14.9847564,8.38653054 Z" id="Combined-Shape"></path>
                </g>
            </g>
        </g>
    </g>
</svg>
