<svg id="Calque_1" data-name="Calque 1" xmlns="http://www.w3.org/2000/svg" viewBox="0 0 100 100"><defs></defs><title>Furnished terrace</title><path class="cls-1" d="M98.55,39.24,50.93,1.81l-.07,0a1.51,1.51,0,0,0-.28-.15l-.13-.06A1.55,1.55,0,0,0,50,1.49h0a1.31,1.31,0,0,0-.44.07l-.11.05a1.68,1.68,0,0,0-.3.15l-.06,0L1.47,38.19a1.49,1.49,0,0,0-.59,1.19v8a1.5,1.5,0,0,0,1.5,1.5H48.5V73.23h-17a1.5,1.5,0,0,0,0,3h17V95.51H2.38a1.5,1.5,0,1,0,0,3H97.62a1.5,1.5,0,0,0,0-3H51.5V76.23h17a1.5,1.5,0,0,0,0-3h-17V48.89H97.62a1.5,1.5,0,0,0,1.5-1.5v-7A1.51,1.51,0,0,0,98.55,39.24Zm-94.67.88L45.17,8.56,28.4,38.65a1.53,1.53,0,0,0-.19.73v6.51H3.88Zm27.33,5.77V39.77L50,6.1,68.79,40.8v5.09Zm64.91,0H71.79V40.42a1.48,1.48,0,0,0-.19-.71L54.77,8.65l41.35,32.5Z"/><path class="cls-1" d="M11.08,95.21A10.22,10.22,0,0,0,21.29,85V78.38a1.5,1.5,0,0,0-1.5-1.5H2.38a1.5,1.5,0,0,0-1.5,1.5V85A10.22,10.22,0,0,0,11.08,95.21ZM3.88,79.88H18.29V85A7.21,7.21,0,1,1,3.88,85Z"/><path class="cls-1" d="M97.62,76.88H80.21a1.5,1.5,0,0,0-1.5,1.5V85a10.21,10.21,0,1,0,20.41,0V78.38A1.5,1.5,0,0,0,97.62,76.88ZM96.12,85a7.21,7.21,0,1,1-14.41,0V79.88H96.12Z"/></svg>
