<svg viewBox="0 0 501 500" version="1.1" xmlns="http://www.w3.org/2000/svg" xmlns:xlink="http://www.w3.org/1999/xlink">
    <title>garden</title>
    <defs></defs>
    <g id="Page-1" stroke-width="1" fill-rule="evenodd">
        <path d="M187.847258,425.49384 C219.327528,421.346714 239.633644,403.974048 252.023638,383.854175 C255.465888,390.301165 259.787122,396.648162 265.339987,402.389931 C277.708927,415.204969 293.699073,422.862415 312.873562,425.42016 L312.873562,470.601723 L187.847258,470.601723 L187.847258,425.49384 Z M106.985967,331.07832 C108.87552,162.535565 157.809154,115.559371 173.230854,104.912626 L173.230854,104.917889 C188.805193,115.485691 237.365127,161.925075 239.365211,329.815236 C239.359948,329.98891 239.354685,330.152059 239.349421,330.32047 C239.049409,335.135977 233.728132,397.06919 173.167694,397.06919 C112.986219,397.06919 107.39651,336.872717 106.985967,331.07832 Z M268.750656,331.07832 C270.498098,175.676901 308.699703,81.324535 328.253156,43.037305 C349.717215,80.7035187 391.987412,174.429605 393.798014,330.088904 C393.655903,332.799272 389.282035,396.979721 327.732081,397.084978 C327.679447,397.084978 327.632077,397.06919 327.57418,397.06919 C327.521546,397.06919 327.474175,397.079715 327.426805,397.084978 C309.747115,397.048138 296.393923,392.1379 286.619828,382.101646 C268.113787,363.123811 268.729603,331.673022 268.750656,331.07832 Z M485.659767,470.601723 L342.274797,470.601723 L342.274797,425.483314 C402.014149,417.604828 421.42549,362.034401 423.178195,330.699395 C420.688617,111.943793 342.480069,9.87082752 339.14835,5.63949654 C336.290335,1.99760469 331.748039,-0.260157735 327.242587,0.024036137 C322.600287,0.129293127 318.300106,2.40810695 315.605256,6.19209573 C313.347266,9.36559397 273.203475,67.1779956 252.065745,187.334112 C227.638403,94.4027159 184.378691,76.5037648 177.841574,74.3091566 C174.799341,73.2776381 171.52552,73.2776381 168.483287,74.3091566 C159.435538,77.3510836 80.0690465,110.343887 77.6057851,331.715125 C79.3216467,362.108081 98.7171982,417.599566 158.451286,425.488577 L158.461813,470.601723 L15.0610527,470.601723 C6.93965895,470.601723 0.360435223,477.159233 0.360435223,485.300861 C0.360435223,493.421438 6.93965895,500 15.0610527,500 L173.167694,500 L485.680821,500 C493.802215,500 500.381438,493.421438 500.360385,485.300861 C500.360385,477.180285 493.781161,470.601723 485.659767,470.601723 Z" id="garden"></path>
    </g>
</svg>
