<svg id="Calque_1" data-name="Calque 1" xmlns="http://www.w3.org/2000/svg" viewBox="0 0 100 100"><defs></defs><title>Garden View</title><path class="cls-1" d="M65.53,24.61a1.5,1.5,0,0,0-1.38-.4c-.63.14-15.65,3.52-21.2,12.58a13.42,13.42,0,0,0-1.7,10.1L34.12,55.7V35.38A13.43,13.43,0,0,0,40,27.09c2.48-10.33-5.74-23.34-6.1-23.89a1.55,1.55,0,0,0-2.52,0c-.35.55-8.58,13.56-6.1,23.89a13.43,13.43,0,0,0,5.86,8.29V59.54a1.52,1.52,0,0,0,0,1V77.65l-4.29-4.19A13.42,13.42,0,0,0,25,63.84C19.48,54.78,4.46,51.4,3.83,51.26A1.51,1.51,0,0,0,2,53.05c.14.63,3.52,15.65,12.58,21.2a13.32,13.32,0,0,0,7.07,2,14.84,14.84,0,0,0,3.33-.4l6.1,6V96.5a1.5,1.5,0,0,0,3,0v-36L43.45,49a14.64,14.64,0,0,0,2.84.29,13.41,13.41,0,0,0,7.07-2C62.42,41.65,65.8,26.63,65.94,26A1.48,1.48,0,0,0,65.53,24.61ZM16.19,71.69c-6-3.64-9.25-12.51-10.56-16.84,4.33,1.3,13.19,4.6,16.84,10.56a10.37,10.37,0,0,1,1.39,7.67A10.38,10.38,0,0,1,16.19,71.69Zm12-45.3C26.55,19.61,30.49,11,32.62,7c2.14,4,6.08,12.57,4.45,19.37a10.4,10.4,0,0,1-4.45,6.4A10.34,10.34,0,0,1,28.18,26.39ZM51.79,44.64A10.32,10.32,0,0,1,44.12,46a10.35,10.35,0,0,1,1.39-7.66c3.64-6,12.51-9.25,16.84-10.56C61,32.12,57.75,41,51.79,44.64Z"/><path class="cls-1" d="M74.79,97.71h0L82.87,88a1.5,1.5,0,1,0-2.3-1.92l-5.45,6.54V72a7.83,7.83,0,1,0-3,0V92.63l-5.44-6.54A1.5,1.5,0,0,0,64.38,88l8.07,9.7h0l0,0,.06,0,.13.15h0a1.54,1.54,0,0,0,.39.23l.1,0a1.62,1.62,0,0,0,.44.07h0a1.62,1.62,0,0,0,.44-.07l.1,0a1.54,1.54,0,0,0,.39-.23h0a1,1,0,0,0,.14-.15l.06,0Zm-6-33.38a4.84,4.84,0,1,1,4.83,4.83A4.84,4.84,0,0,1,68.79,64.33Z"/><path class="cls-1" d="M88.81,89.4a1.49,1.49,0,0,0-2.11.2l-5.18,6.21a1.5,1.5,0,0,0,2.31,1.92L89,91.52A1.51,1.51,0,0,0,88.81,89.4Z"/><path class="cls-1" d="M94.83,89.63a1.5,1.5,0,0,0-2.11.19l-5,6a1.49,1.49,0,0,0,1.15,2.46A1.47,1.47,0,0,0,90,97.73l5-6A1.49,1.49,0,0,0,94.83,89.63Z"/><path class="cls-1" d="M73.62,54.94a1.5,1.5,0,0,0,1.5-1.5V49a1.5,1.5,0,0,0-3,0v4.44A1.5,1.5,0,0,0,73.62,54.94Z"/><path class="cls-1" d="M61.73,52.43a1.49,1.49,0,0,0,0,2.12l3.14,3.14a1.45,1.45,0,0,0,1.06.44A1.47,1.47,0,0,0,67,57.69a1.51,1.51,0,0,0,0-2.12l-3.14-3.14A1.49,1.49,0,0,0,61.73,52.43Z"/><path class="cls-1" d="M64.24,64.33a1.5,1.5,0,0,0-1.5-1.5H58.3a1.5,1.5,0,0,0,0,3h4.44A1.5,1.5,0,0,0,64.24,64.33Z"/><path class="cls-1" d="M67,71a1.49,1.49,0,0,0-2.12,0l-3.14,3.14a1.5,1.5,0,0,0,1.06,2.56,1.53,1.53,0,0,0,1.06-.44L67,73.09A1.51,1.51,0,0,0,67,71Z"/><path class="cls-1" d="M80.26,71a1.51,1.51,0,0,0,0,2.12l3.14,3.14a1.51,1.51,0,0,0,2.13,0,1.51,1.51,0,0,0,0-2.12L82.38,71A1.49,1.49,0,0,0,80.26,71Z"/><path class="cls-1" d="M83,64.33a1.5,1.5,0,0,0,1.5,1.5H89a1.5,1.5,0,0,0,0-3H84.51A1.5,1.5,0,0,0,83,64.33Z"/><path class="cls-1" d="M81.32,58.13a1.45,1.45,0,0,0,1.06-.44l3.15-3.14a1.5,1.5,0,1,0-2.13-2.12l-3.14,3.14a1.51,1.51,0,0,0,0,2.12A1.47,1.47,0,0,0,81.32,58.13Z"/></svg>
