<?xml version="1.0" encoding="UTF-8"?>
<svg viewBox="0 0 260 260" version="1.1" xmlns="http://www.w3.org/2000/svg" xmlns:xlink="http://www.w3.org/1999/xlink">
    <title>Gentil-Bot</title>
    <g id="Page-1" stroke="none" stroke-width="1" fill="none" fill-rule="evenodd">
        <g id="Gentil-Bot-2-Clean">
            <rect id="Background" fill="#14A5C2" x="0" y="0" width="260" height="260"></rect>
            <g id="Body" transform="translate(48.000000, 179.000000)" fill="#FFFFFF">
                <path d="M139,40.2671163 L139,81 L26,81 L26,39.7725761 C21.3991196,46.1241373 17.8463199,53.2845333 15.5953648,61 L0.763367634,61 C4.19561917,38.418393 16.7823314,18.8442568 34.6194946,6.18160102 C35.8836554,5.09842242 37.2760548,4.14852002 38.7894287,3.3391588 C42.8635028,1.16032014 46.9045808,-1.12755596e-14 58.048565,-1.33226763e-14 L106.951435,-1.07330755e-14 C118.095419,-1.27801922e-14 122.136497,1.16032014 126.210571,3.3391588 C128.261895,4.43621886 130.090955,5.79149282 131.679649,7.38687989 C148.639213,20.0685996 160.556517,39.1229329 163.881684,61 L149.049687,61 C146.856961,53.4841227 143.428874,46.4949697 139,40.2671163 Z"></path>
            </g>
            <g id="Logo" transform="translate(141.000000, 200.000000)" fill="#14A5C2" fill-rule="nonzero">
                <path d="M25.065058,0.946106492 C24.7947418,0.13515807 22.9025288,1.3515807 18.7126287,5.13600667 C20.3345255,7.02821966 21.1454739,5.9469551 22.4970546,5.40632281 C23.5783192,7.43369387 23.9837934,16.6244427 16.9555737,19.3276041 C17.0907318,10.1368553 17.2258899,0.270316141 17.2258899,0.270316141 C17.2258899,0 16.9555737,0 16.8204157,0 C14.9282027,0.270316141 11.5492509,3.6492679 8.84608952,6.48758738 C10.3328283,8.92043264 12.0898832,6.75790352 13.576622,6.08211317 C13.576622,6.48758738 13.3063058,13.2454909 13.4414639,20.1385525 C6.27808618,20.6791848 7.35935075,6.08211317 7.76482496,4.18990018 C7.89998303,2.70316141 3.16945057,5.9469551 0.7366053,8.24464229 C1.54755372,9.59622299 2.49366021,9.32590685 3.84524092,8.78527457 C3.30460864,15.40802 8.0351411,21.3549751 13.4414639,21.219817 C13.576622,27.9777206 14.3875704,34.600466 16.2797834,35.0059402 C16.5500995,35.0059402 16.8204157,28.1128786 16.9555737,20.4088686 C29.9307485,16.3541265 25.065058,0.946106492 25.065058,0.946106492 Z" id="Shape"></path>
                <polygon id="Shape" points="19.7366053 26.6330489 23.3669511 23 27 26.6303458 23.3696542 30.2633947"></polygon>
            </g>
            <g id="Neck" transform="translate(102.000000, 169.000000)">
                <rect id="Rectangle" fill="#E8A707" x="1" y="0" width="54" height="10"></rect>
                <path d="M55.2,5.5 C55.6,5.5 56,5.125 56,4.75 C56,4.375 55.7,4.09375 55.3,4 L0.7,4 C0.3,4 0,4.375 0,4.75 C0,5.125 0.3,5.40625 0.7,5.5 L55.2,5.5 Z" id="Path" fill="#EB6437"></path>
                <path d="M55.2,2.5 C55.6,2.5 56,2.125 56,1.75 C56,1.375 55.7,1.09375 55.3,1 L0.7,1 C0.3,1 0,1.375 0,1.75 C0,2.125 0.3,2.40625 0.7,2.5 L55.2,2.5 Z" id="Path" fill="#EB6437"></path>
                <path d="M55.2,8.5 C55.6,8.5 56,8.125 56,7.75 C56,7.375 55.7,7.09375 55.3,7 L0.7,7 C0.3,7 0,7.375 0,7.75 C0,8.125 0.3,8.40625 0.7,8.5 L55.2,8.5 Z" id="Path" fill="#EB6437"></path>
            </g>
            <g id="Head" transform="translate(34.000000, 36.000000)">
                <g id="Helmet" fill="#FFFFFF">
                    <path d="M80.2626134,10 C83.4707667,4.04629025 89.7628525,0 97,0 C104.237148,0 110.529233,4.04629025 113.737387,10 L119.5,10 C147.20048,10 170.623575,28.313665 178.322035,53.493746 C186.733137,55.4503743 193,62.993335 193,72 C193,81.1275429 186.563794,88.7518293 177.982237,90.5820034 C169.952943,115.20625 146.804448,133 119.5,133 L73.5,133 C46.1955519,133 23.0470567,115.20625 15.0177677,90.5820044 C6.43620621,88.7518293 0,81.1275429 0,72 C0,62.993335 6.26686303,55.4503743 14.6779597,53.4937473 C22.3764252,28.313665 45.7995197,10 73.5,10 L80.2626134,10 Z"></path>
                </g>
                <g id="Face" transform="translate(35.000000, 40.000000)">
                    <rect id="Skin" fill="#F0E6D7" x="0" y="0" width="122" height="67" rx="33.5"></rect>
                    <g id="Eyes" transform="translate(29.000000, 18.000000)" fill="#444444">
                        <rect id="Right-eye" x="0" y="0" width="11" height="22" rx="5.5"></rect>
                        <rect id="Left-eye" x="53" y="0" width="11" height="22" rx="5.5"></rect>
                    </g>
                    <path d="M48.1120867,49.1383948 C52.530308,50.4868613 56.7237849,51.1610945 60.6925173,51.1610945 C64.6612498,51.1610945 68.8547266,50.4868613 73.2729479,49.1383948 L73.2729411,49.1383726 C74.9118045,48.6381821 76.6506627,49.5355308 77.1925173,51.1610945 L77.1925173,51.1610945 C77.8105335,53.0151431 76.8955297,55.0322475 75.0934323,55.7884783 C71.3241453,57.3702238 66.5238398,58.1610945 60.6925173,58.1610945 C54.8611949,58.1610945 50.0608893,57.3702238 46.2916006,55.7884823 L46.2916023,55.7884783 C44.4895049,55.0322475 43.5745011,53.0151431 44.1925173,51.1610945 L44.1925173,51.1610945 C44.7343719,49.5355308 46.4732301,48.6381821 48.1120935,49.1383726 Z" id="Mouth" fill="#444444"></path>
                </g>
            </g>
            <g id="Hands" transform="translate(34.000000, 224.000000)" fill="#444444">
                <path d="M24.9184413,35.9999998 L0.639376728,35.9999998 L13.5382432,4.07418492 C14.2061808,2.42098136 14.620524,1.89103597 15.1879414,1.41724263 C15.7553588,0.943449287 16.4213251,0.660763388 17.1563048,0.581721945 C17.8912845,0.502680503 18.5603222,0.572757999 20.2135258,1.2406956 L31.576735,5.83173012 C33.2299385,6.49966772 33.7598839,6.91401085 34.2336772,7.48142829 C34.7074706,8.04884574 34.9901565,8.71481198 35.0691979,9.44979167 C35.1482394,10.1847714 35.0781619,10.8538091 34.4102243,12.5070126 L24.9184413,35.9999998 Z" id="Right-hand"></path>
                <path d="M192.000485,35.9999998 L167.72142,35.9999998 L158.229637,12.5070126 C157.5617,10.8538091 157.491622,10.1847714 157.570664,9.44979167 C157.649705,8.71481198 157.932391,8.04884574 158.406185,7.48142829 C158.879978,6.91401085 159.409923,6.49966772 161.063127,5.83173012 L172.426336,1.2406956 C174.07954,0.572757999 174.748577,0.502680503 175.483557,0.581721945 C176.218537,0.660763388 176.884503,0.943449287 177.45192,1.41724263 C178.019338,1.89103597 178.433681,2.42098136 179.101619,4.07418492 L192.000485,35.9999998 Z" id="Left-hand"></path>
            </g>
        </g>
    </g>
</svg>
