<svg version="1.1" id="Calque_1" xmlns="http://www.w3.org/2000/svg" xmlns:xlink="http://www.w3.org/1999/xlink" x="0px" y="0px"
	 viewBox="0 0 500 500" style="enable-background:new 0 0 500 500;" xml:space="preserve">
<g>
	<polygon class="st0" points="83.5,374.3 104.9,374.3 91.7,361.1 95.2,357.7 111.8,374.3 114.6,374.3 122,366.9 122,366
		105.4,349.4 108.8,345.9 122,359.1 122,337.7 126.9,337.7 126.9,359.1 140.1,345.9 143.5,349.4 126.9,366 126.9,366.6 134.6,374.3
		136.6,374.3 153.2,357.7 156.7,361.1 143.5,374.3 164.9,374.3 164.9,379.2 143.5,379.2 156.7,392.4 153.2,395.8 136.6,379.2
		134.4,379.2 126.9,386.7 126.9,387 143.5,403.6 140.1,407.1 126.9,393.9 126.9,415.3 122,415.3 122,393.9 108.8,407.1 105.4,403.6
		122,387 122,386.4 114.8,379.2 111.8,379.2 95.2,395.8 91.7,392.4 104.9,379.2 83.5,379.2 	"/>
</g>
<path class="st0" d="M432.4,124c-8.1-13.9-22.3-22.3-37.6-22.3h-251c9.5-33.7,32.7-62.4,64.3-78.8h35.2V0H124.4v22.8h43.5
	c-21,18.3-36.6,42.1-44.9,68.8c-2.4,8.2-4.1,16.6-5.2,25c-2.2,17.2-1.7,34.8,2.6,51.4c1.1,4.1,2.4,8.2,4.1,12.2
	c0.8,2,1.7,3.9,2.6,5.8c1,1.9,1.9,3.8,3.1,5.5c2.2,3.6,4.7,7,7.6,10c3,3,5.8,6.3,9.2,8.9c6.3,5.7,13.7,10,21.4,13.2
	c7.7,3.1,16,4.9,24.3,4.7c16.9,0,34-6.6,45.8-18.6c6-5.9,10.7-13,13.6-20.9c2.7-7.8,3.7-16.3,2.5-24.5c-0.5-4.1-1.7-8.1-3.2-11.8
	c-0.4-0.9-0.8-1.8-1.3-2.7l-1.5-2.5l-1.7-2.3l-2.2-2.3c-5.8-6-12.7-10.9-20.5-12.9c-3.9-1.2-7.9-1.5-11.9-1.4
	c-4,0.1-8.1,0.9-11.9,2.3c-3.8,1.3-7.5,3.2-10.5,5.6c-3.1,2.5-5.8,5.5-8.1,8.9c-1.1,1.5-4.6,7.5-6,13.8c-1.6,6.3-1.2,12.4-1.1,12.9
	c0.2,1.9-0.4,2.7-1.2,2.6c-0.4,0.1-0.9-0.1-1.3-0.7c-0.7-0.9-1.4-3.5-1.6-6.9c-0.1-1.1-0.1-2.3,0-3.6c0.1-2.6,0.4-5.4,1.1-8.1
	c1-4.1,2.7-8,4.4-11c1.7-3,3.3-5,3.9-5.7c2.8-3.5,6.1-6.6,10-9c3.8-2.4,8-4.1,12.4-5.3c4.3-1.2,8.9-1.7,13.4-1.5
	c2.3,0,4.5,0.4,6.8,0.7c1.1,0.2,2.2,0.5,3.3,0.8c1.1,0.3,2.2,0.6,3.3,1c8.6,3.1,16.1,8.7,22.1,15.4c3.2,3.5,5.4,7.7,7,11.9
	c1.7,4.3,2.6,8.8,3.1,13.3l0.3,3.4l0,3.4c0.1,2.3-0.3,4.6-0.5,6.9c-0.4,2.3-0.7,4.5-1.3,6.7c-0.7,2.2-1.1,4.5-2.1,6.6
	c-3.3,8.6-8.6,16.3-15.2,22.7c-6.5,6.5-14.5,11.5-23,14.9c-8.5,3.4-17.7,5.3-26.9,5.4c-9.5,0.1-18.9-2-27.6-5.7
	c-1.1-0.5-2.2-0.8-3.3-1.4l-3.1-1.7c-2.1-1.1-4.2-2.1-6.1-3.6l-5.8-4l-5.3-4.5c-0.9-0.8-1.8-1.5-2.6-2.3l-2.4-2.5l-4.8-5
	c-3.1-3.6-5.8-7.5-8.2-11.6c-4.6-8.2-7.9-17.1-9.9-26.1c-2.1-9-3.1-18.3-3.2-27.5c-0.2-9.2,0.5-18.4,2-27.5
	c0.6-3.6,1.3-7.2,2.1-10.7h-9.3c-15.2,0-29.4,8.4-37.6,22.3c-20.1,34.3-55.9,103.8-55.9,176.8c0,30,6.1,59.5,14.6,86.1l97.9-94.4
	l32.7,31.1l79.4-75.5l25.5,24.3l61.9-65.6l132.6,139.9h-59.6c-38.9,0-85.1,0-112.2,2.8c-9.3,1-24.7,3.5-36.2,7.9
	c-11.5,4.3-22.1,10.9-29.8,20.2c-7.7,9.2-11.6,21-12.3,33.1l-0.1,4.5c0,1.5,0.1,3,0.2,4.5c0.3,2.9,0.7,5.9,1.5,8.7
	c1.5,5.7,4.2,10.9,7.7,15.6c7.2,9.4,17.6,16,28.8,20.4c11.5,4.5,23.9,7,36.3,7.4c3.1,0.1,6.2-0.1,9.3-0.2c3.1-0.3,6.2-0.5,9.2-1
	c6.1-0.9,12.2-2.3,17.8-4.5c5.7-2.2,11.2-4.8,15.8-8.5c4.7-3.6,8.6-8.1,11.3-13.1c0.6-1.3,1.4-2.5,1.9-3.9l1.4-4.1
	c0.6-2.9,1.3-5.7,1.3-8.7c0.4-5.9-0.2-11.8-2.3-17.1c-2-5.3-5.5-10-9.9-13.7c-4.4-3.7-9.8-6.5-15.4-8.4c-5.7-1.9-11.7-3.1-17.8-3.8
	l-4.6-0.4l-4.6-0.1c-2.8-0.1-6,0.3-9,0.7c-6.1,0.8-12,2.3-17.5,4.5c-5.5,2.2-10.5,5.4-13.9,9.6c-3.5,4.1-5.3,9.3-5.4,14.9
	c0,2.8,0.2,5.5,1,8c0.8,2.5,2,4.8,3.7,6.8c0.8,1,2.6,3.1,5.8,5.1c3.1,2.1,7.5,3.9,12.1,5.1c9.2,2.4,18.5,2.4,19.2,2.4
	c2.2,0,3.3,0.3,3.6,0.9c0.1,0.2,0.1,0.4,0.1,0.6c0.1,0.4-0.2,1-1.1,1.4c-2.1,1-9.2,1.7-17.4,0.7c-3.1-0.4-6.3-1-9.4-1.9
	c-5.9-1.6-11.3-4.7-15-8c-3.7-3.4-5.4-7-5.9-8.2c-2.7-6-3.1-12.8-1.8-19.3c1.3-6.5,5.1-12.4,10.1-16.6c5-4.2,11-7.1,17.1-9.1
	c6.1-2,12.5-3.2,18.9-3.8c6.5-0.5,12.9-0.1,19.3,0.8c6.4,0.9,12.7,2.4,18.8,4.8c6,2.5,11.8,6,16.5,10.7c4.8,4.7,8.3,10.6,10.2,17.1
	c1.9,6.4,2.2,13.2,1.6,19.8c-0.9,6.6-2.9,13.1-6.4,18.9c-3.4,5.8-8.4,10.6-13.7,14.5c-5.4,3.9-11.4,6.9-17.6,9
	c-24.8,8.5-52.2,7.5-76.6-1.9c-12.4-5-24.3-12.6-32.5-23.9c-2.1-2.8-3.8-5.9-5.3-9c-1.4-3.2-2.6-6.5-3.4-9.9
	c-1.7-6.8-1.7-13.8-1.2-20.5c0.6-6.8,2.1-13.6,4.7-20c2.2-5.3,5.2-10.4,8.9-14.9c-15.5,10.1-29.3,22-41.8,34.2
	c-22.3,22-44.1,42.3-88.3,85.4c6.8,4.3,14.6,6.7,22.7,6.7h289.7c15.2,0,29.4-8.4,37.6-22.3c20.1-34.3,55.9-103.8,55.9-176.8
	C488.3,227.8,452.5,158.3,432.4,124z M416.1,159.6l-20.8,4l17.4,12.2l-21.9-5.2c1,1.7,2.7,3.6,5.6,5.1c8,4.2,6.9,12,6.9,12
	c-0.9-2.5-2-6.6-10.2-7.7c-3.5-0.5-6.1-1.9-7.9-3.4v0c0.2,0.9,1,3.5,2.4,5.3c6.1,7.5,1.8,14.3,1.8,14.3c0.2-2.7,0.9-6.8-6.1-11.2
	c-1.1-0.7-2.6-2-3.4-2.8l-3.3,17l-4-20.9l-12.2,17.4l5.2-21.9c-1.7,1-3.6,2.7-5.1,5.6c-4.2,8-12,6.9-12,6.9c2.5-0.9,6.6-2,7.7-10.2
	c0.5-3.5,1.9-6.1,3.4-7.9c-1.7,0.3-3.7,1.2-5.9,2.8c-7.2,5.6-13.8,1.4-13.8,1.4c2.7,0.2,6.8,0.9,11.2-6.1c0.9-1.4,1.8-2.5,2.8-3.4
	l-17-3.2l0,0h0l20.8-4l-17.4-12.2l21.9,5.2c-1-1.7-2.7-3.6-5.6-5.1c-8-4.2-6.9-12-6.9-12c0.9,2.5,2,6.6,10.2,7.7
	c3.5,0.5,6.1,1.9,7.9,3.4l0,0c-0.3-2-1.6-4.3-2.8-5.8c-5.6-7-1.4-13.8-1.4-13.8c-0.2,2.7-0.9,6.8,6.1,11.2c1.1,0.7,2.6,2,3.4,2.8
	l3.3-17l4,20.9l12.2-17.4l-5.2,21.9c1.7-1,3.6-2.7,5.1-5.6c4.2-8,12-6.9,12-6.9c-2.5,0.9-6.6,2-7.7,10.2c-0.5,3.5-1.9,6.1-3.4,7.9
	c1.8-0.3,3.7-1.2,5.9-2.8c7.1-5.6,13.8-1.4,13.8-1.4c-2.7-0.2-6.8-0.9-11.2,6.1c-0.9,1.4-1.8,2.5-2.8,3.4L416.1,159.6L416.1,159.6
	L416.1,159.6z"/>
</svg>
