<svg viewBox="0 0 500 508" version="1.1" xmlns="http://www.w3.org/2000/svg" xmlns:xlink="http://www.w3.org/1999/xlink">
    <defs>
        <polygon id="path-1" points="0 508 498 508 498 0 0 0"></polygon>
    </defs>
    <g id="Page-1" stroke="none" stroke-width="1" fill="none" fill-rule="evenodd">
        <g id="Group">
            <g id="kanv" fill="#000000">
                <g transform="translate(0.000000, 365.000000)">
                    <polygon id="Path" points="0 0 498.5 0 498.5 4 0 4"></polygon>
                    <polygon id="Path" points="307 82.3 313 76.3 307 70.3 301 76.3"></polygon>
                    <path d="M270.8,45.4 C272,47.6 273.8,47.2 275.9,46.3 C275.1,57.1 282.7,66.9 291.6,66.7 C291.9,77.8 293.1,88.6 296.3,89.4 C296.7,89.5 297.1,78.1 297.3,65.5 C318.6,58.9 310.5,33.5 310.5,33.5 C310.1,32.1 306.9,34.1 300.1,40.3 C302.8,43.3 304.2,41.6 306.4,40.8 C308.2,44.1 308.9,59.2 297.4,63.7 C297.7,48.5 297.8,32.3 297.8,32.3 C297.8,31.9 297.4,31.8 297.1,31.8 C294,32.2 288.4,37.8 284,42.4 C286.4,46.3 289.4,42.8 291.8,41.8 C291.8,42.4 291.2,53.6 291.5,65 C279.7,65.9 281.6,41.8 282.3,38.7 C282.6,36.3 274.8,41.7 270.8,45.4 Z" id="Path"></path>
                    <path d="M42.2,40.9 L42.2,72.9 C42.2,79.7 45.5,83.5 53.8,83.5 L59,83.5 L59,77.4 L55.6,77.4 C51.9,77.4 50.5,76.4 50.5,72.6 L50.5,40.9 L42.2,40.9 Z" id="Path"></path>
                    <path d="M180.3,83.5 L188.7,83.5 L188.7,41.3 L176.9,41.3 L164.5,73.6 L152.1,41.3 L140,41.3 L140,83.5 L148.4,83.5 L148.4,58.3 C148.4,56.7 148.3,53.9 148.2,52.1 L148.5,52.1 L160.6,83.4 L168.3,83.4 L180.4,52.1 L180.7,52.1 C180.5,53.9 180.5,56.6 180.5,58.3 L180.5,83.5 L180.3,83.5 Z" id="Path"></path>
                    <path d="M59.6,51.2 L59.6,70.2 C59.6,80.2 64.9,83.8 75.4,83.8 C85.9,83.8 91.2,80.1 91.2,70.2 L91.2,51.2 L82.8,51.2 L82.8,70.2 C82.8,76 79.3,78.1 75.4,78.1 C71.5,78.1 68,76 68,70.2 L68,51.2 L59.6,51.2 Z" id="Path"></path>
                    <path d="M95.6,40.9 L95.6,70.3 C95.6,80.3 101.6,83.9 112.1,83.9 C122.6,83.9 128.6,79.7 128.6,69.8 L128.6,64.7 C128.6,56.8 124.1,50.9 113.3,50.9 C110.1,50.9 106.6,51.6 103.9,53 L103.9,41 L95.6,41 L95.6,40.9 Z M112.4,56.6 C116.3,56.6 120.8,58.7 120.8,64.5 L120.8,70.3 C120.8,76.1 116.3,78.2 112.4,78.2 C108.5,78.2 104,76.1 104,70.3 L104,64.5 C104,58.7 108.5,56.6 112.4,56.6 Z" id="Shape" fill-rule="nonzero"></path>
                    <path d="M262.2,70.2 L262.2,40.8 L253.8,40.8 L253.8,52.8 C251,51.5 247.6,50.7 244.4,50.7 C233.6,50.7 229.1,56.6 229.1,64.5 L229.1,69.6 C229.1,79.6 235.1,83.7 245.6,83.7 C256.2,83.9 262.2,80.2 262.2,70.2 Z M237,70.2 L237,64.4 C237,58.7 241.6,56.5 245.4,56.5 C249.3,56.5 253.8,58.6 253.8,64.4 L253.8,70.2 C253.8,76 249.3,78.1 245.4,78.1 C241.6,78.1 237,76 237,70.2 Z" id="Shape" fill-rule="nonzero"></path>
                    <path d="M225.6,69.5 L225.6,66.9 C225.6,56.9 219.6,50.8 209.1,50.8 C198.6,50.8 192.6,57 192.6,66.9 L192.6,68.2 C192.6,77.8 198.4,83.8 209.6,83.8 C215.2,83.8 220.1,82.6 225,78.8 L219.9,74.8 C216.4,77.1 213.7,78 209.7,78 C204.8,78 200.8,75.3 200.8,70.1 L200.8,69.4 L225.6,69.4 L225.6,69.5 Z M209.1,56.4 C213,56.4 217.5,58.7 217.5,64.6 L200.6,64.6 C200.7,58.7 205.2,56.4 209.1,56.4 Z" id="Shape" fill-rule="nonzero"></path>
                    <path d="M20,83.9 C31.1,83.9 37.8,78.4 39.4,70.8 L30.5,70.8 C29,75.9 25.3,78.2 20,78.2 C11.8,78.2 8.7,72.8 8.7,64.4 L8.7,60.2 C8.7,51 12.8,46.7 20,46.7 C25.2,46.7 29,49 30.5,54 L39.4,54 C37.8,46.5 31.1,40.9 20,40.9 C7.2,40.9 0,48.4 0,60 L0,65.8 C0,77 7,83.9 20,83.9 Z" id="Path"></path>
                    <path d="M165,140.4 L165,105.2 C165,104.7 165.1,104.5 165.8,104.5 L168.7,104.5 L168.7,103.2 L156.2,103.2 L156.2,104.5 L159.1,104.5 C159.8,104.5 159.9,104.7 159.9,105.2 L159.9,140.4 C159.9,140.7 159.7,141 159.4,141 L156.1,141 L156.1,142.3 L168.7,142.3 L168.7,141 L165.4,141 C165.2,141 165,140.7 165,140.4 Z" id="Path"></path>
                    <path d="M263.1,135 C263.1,135.2 262.5,141 255.1,141 C245.8,141 244.8,127.1 244.8,121.1 C244.8,115 246.9,104.7 254.6,104.6 L254.7,104.6 C259.6,104.6 260.2,107.1 260.2,109.6 C260.2,109.9 260,110.3 259.8,110.7 C259.6,111.1 259.4,111.6 259.4,112 C259.4,113.2 260.6,114 261.6,114 C262.8,114 264,113.1 264,111.1 C264,108.1 261.4,103.3 254.5,103.3 L254.4,103.3 C250.3,103.3 246.8,104.7 244.1,107.4 C240.8,110.7 238.9,115.8 239,121.2 C239.1,131.5 243.3,142.4 255,142.4 C263.4,142.4 264.3,135.3 264.4,135.2 L264.4,134.9 L263.1,134.5 L263.1,135 Z" id="Path"></path>
                    <path d="M190,104.5 L192.1,104.5 C193.1,104.5 193.7,105.2 193.7,106.3 C193.7,106.5 193.7,106.8 193.6,107.2 L188,131.5 L180.6,105.4 C180.6,105.3 180.6,105.2 180.6,105 C180.6,104.7 180.8,104.5 181.3,104.5 L183.3,104.5 L183.3,103.2 L171.8,103.2 L171.8,104.5 L173.7,104.5 C174.4,104.5 174.8,105.1 175,105.6 C175.7,107.8 185.4,141.8 185.5,142.1 L185.6,142.4 L187,142.4 L187.1,142.1 C188.1,137.9 193.2,116.4 194.9,109.3 L195.5,106.8 C195.8,105.7 196.5,104.4 198,104.4 L199.3,104.4 L199.3,103.1 L190,103.1 L190,104.5 Z" id="Path"></path>
                    <path d="M145.3,117.8 C142.5,117.3 137.8,115.7 137.8,111.4 L137.8,111 C137.8,107.2 140.6,104.5 144.4,104.5 C150.8,104.5 150.9,110.8 150.9,111.1 L150.9,111.5 L152.5,111.4 L152.5,103.9 L152.2,103.8 C152.2,103.8 148.5,103 145.2,103 L144.9,103 C138.1,103.1 133.5,107.2 133.5,113.3 C133.5,118.2 136.8,121.4 142.7,122.4 C147.4,123.2 150.6,126.6 150.6,130.9 C150.6,135.8 148.4,141 142.3,141 C134.6,141 134.3,133.3 134.3,133 L134.3,132.7 L132.7,132.6 L132.7,141.7 L133,141.8 C133,141.8 137.2,142.5 141.3,142.5 L141.5,142.5 C150,142.5 155.5,137.3 155.5,129.2 C155.1,123.2 151.5,119 145.3,117.8 Z" id="Path"></path>
                    <path d="M225.3,133.2 C223.8,138.7 220.7,141 214.6,141 L214.2,141 C210.5,141 210.3,140.1 210.3,138.6 C210.3,138.3 210.3,137.9 210.3,137.5 C210.3,137 210.4,136.4 210.4,135.7 L210.3,117.9 L215.3,118.1 L215.4,118.1 C217.7,118.2 218.3,118.2 219.1,119.3 C219.7,120.1 219.8,121.1 220,122.5 L220.1,123.1 L221.3,123.1 L221.3,111.9 L220.1,111.9 L220.1,112.2 C219.9,113.7 219.8,114.7 219,115.6 C218.2,116.5 217.9,116.5 216.2,116.5 C215.9,116.5 215.7,116.5 215.4,116.5 L210.4,116.6 L210.4,104.6 L217.7,104.8 C219.5,104.9 221.5,105 222.3,106 C223.2,107.1 223.3,107.4 223.5,109.2 C223.5,109.6 223.6,110 223.7,110.5 L223.7,110.8 L224.9,110.8 L224.9,103.3 L201.5,103.3 L201.5,104.6 L204.4,104.6 C205.1,104.6 205.2,104.8 205.2,105.3 L205.2,140.5 C205.2,140.8 205,141.1 204.7,141.1 L201.4,141.1 L201.4,142.4 L226,142.4 L226.5,133.3 L225.3,133 L225.3,133.2 Z" id="Path"></path>
                    <path d="M26.7,133.1 L23.9,132.9 L23.8,133.2 C22.3,138.7 19.2,141 13.1,141 L12.7,141 C9,141 8.8,140.1 8.8,138.6 C8.8,138.3 8.8,137.9 8.8,137.5 C8.8,137 8.9,136.4 8.9,135.7 L8.8,117.9 L13.8,118.1 L13.9,118.1 C16.2,118.2 16.8,118.2 17.6,119.3 C18.2,120.1 18.3,121.1 18.5,122.5 L18.6,123.1 L19.8,123.1 L19.8,111.9 L18.6,111.9 L18.6,112.2 C18.4,113.7 18.3,114.7 17.5,115.6 C16.7,116.5 16.4,116.5 14.7,116.5 C14.4,116.5 14.2,116.5 13.9,116.5 L8.9,116.6 L8.9,104.6 L16.2,104.8 C18,104.9 20,105 20.8,106 C21.7,107.1 21.8,107.4 22,109.2 C22,109.6 22.1,110 22.2,110.5 L22.2,110.8 L23.4,110.8 L23.4,103.3 L0.1,103.3 L0.1,104.6 L3,104.6 C3.7,104.6 3.8,104.8 3.8,105.3 L3.8,140.5 C3.8,140.8 3.6,141.1 3.3,141.1 L0,141.1 L0,142.4 L24.6,142.4 L26.7,133.1 Z" id="Path"></path>
                    <path d="M52.6,140.2 C51.6,138.2 44.2,122.3 43.4,120.6 C44,119.2 48.8,108.2 49.8,106.2 C50.3,105.4 50.8,104.6 52.1,104.6 L54,104.6 L54,103.3 L44.8,103.3 L44.8,104.6 L46.9,104.6 C47.3,104.6 48,104.8 48,105.7 C48,105.8 48,106.2 47.8,106.6 L42.6,119.1 L35.8,105.2 L35.8,105.1 C35.8,105 35.8,105 35.8,105 C35.8,104.7 36.2,104.6 36.6,104.6 L38.6,104.6 L38.6,103.3 L26.6,103.3 L26.6,104.6 L28.8,104.6 C29.5,104.6 29.7,104.8 30.1,105.5 C31.1,107.5 37.5,120.8 38.2,122.4 C37.5,124 31.6,137.6 30.6,139.5 C30.1,140.3 29.6,141.1 28.3,141.1 L26.4,141.1 L26.4,142.4 L35.6,142.4 L35.6,141 L33.5,141 C33.1,141 32.4,140.8 32.4,139.9 C32.4,139.8 32.4,139.4 32.6,139 L39,123.7 C40.5,126.8 46.2,138.9 46.9,140.3 L46.9,140.4 C46.9,140.5 46.9,140.5 46.9,140.5 C46.9,140.8 46.5,140.9 46.1,140.9 L44.1,140.9 L44.1,142.2 L55.9,142.2 L55.9,141 L54,141 C53.3,141 53,140.8 52.6,140.2 Z" id="Path"></path>
                    <path d="M102.2,133.1 C100.6,139.1 98.3,141 92.8,141 C88.8,141 88.6,139.8 88.6,137.6 L88.6,105.2 C88.6,104.7 88.7,104.5 89.4,104.5 L92.3,104.5 L92.3,103.2 L79.8,103.2 L79.8,104.5 L82.7,104.5 C83.2,104.5 83.4,105 83.4,105.2 L83.4,140.4 C83.4,140.7 83.2,141 82.9,141 L79.6,141 L79.6,142.3 L102.9,142.3 L103.5,132.9 L102.2,132.8 L102.2,133.1 Z" id="Path"></path>
                    <path d="M121.9,104.5 L124.3,104.5 C124.9,104.5 125.6,104.9 125.6,105.8 L125.6,132.5 C125.6,137.5 123,140.2 118.4,140.2 C114.6,140.2 111.8,136.9 111.8,132.5 L111.7,105.1 C111.7,104.6 111.8,104.4 112.5,104.4 L115.4,104.4 L115.4,103.1 L102.9,103.1 L102.9,104.4 L105.8,104.4 C106.5,104.4 106.6,104.6 106.6,105.1 L106.6,133.3 C106.6,138.6 110.9,142.4 117.1,142.4 C123.4,142.4 127.3,138.9 127.3,133.3 L127.4,105.7 C127.4,105.1 127.6,104.4 128.4,104.4 L131.1,104.4 L131.1,103.1 L122,103.1 L122,104.5 L121.9,104.5 Z" id="Path"></path>
                    <path d="M77.7,135 C77.7,135.2 77.1,141 69.7,141 C60.4,141 59.4,127.1 59.4,121.1 C59.4,115 61.5,104.7 69.2,104.6 L69.3,104.6 C74.2,104.6 74.8,107.1 74.8,109.6 C74.8,109.9 74.6,110.3 74.4,110.7 C74.2,111.1 74,111.5 74,112 C74,113.2 75.2,114 76.2,114 C77.4,114 78.6,113.1 78.6,111.1 C78.6,108.1 76,103.3 69.1,103.3 L69,103.3 C64.9,103.3 61.4,104.7 58.7,107.4 C55.4,110.7 53.5,115.8 53.6,121.2 C53.7,131.5 57.9,142.4 69.6,142.4 C78,142.4 78.9,135.3 79,135.2 L79,134.9 L77.7,134.5 L77.7,135 Z" id="Path"></path>
                    <path d="M401.3,110.8 L402.5,110.8 L402.5,110.5 C402.9,107.7 403.1,107.5 404.2,106.3 L404.3,106.1 C405.1,105.1 406,104.7 407.7,104.7 L411.1,104.7 L411.1,140.5 C411.1,140.8 410.9,141.1 410.6,141.1 L407.3,141.1 L407.3,142.4 L420,142.4 L420,141 L416.8,141 C416.7,140.9 416.5,140.5 416.4,140.2 L416.4,104.6 L419.9,104.6 C421.6,104.6 422.5,104.9 423.3,106 L423.4,106.2 C424.5,107.4 424.7,107.7 425.1,110.4 L425.1,110.7 L426.3,110.7 L426.3,103.2 L401.3,103.2 L401.3,110.8 Z" id="Path"></path>
                    <path d="M280.6,103.1 C271.4,103.1 265.2,111.1 265.2,122.9 C265.2,134.2 271.7,142.5 280.6,142.5 C289.3,142.5 295.4,134.5 295.4,122.9 C295.4,110.9 289.6,103.1 280.6,103.1 Z M280.6,141.2 C272.6,141.1 270.9,131.2 270.9,122.9 C270.9,111.8 272.5,104.4 280.6,104.4 C289,104.4 289.7,112.4 289.7,122.9 C289.7,134.2 288.2,141.2 280.6,141.2 Z" id="Shape" fill-rule="nonzero"></path>
                    <path d="M456.6,103.1 C447.4,103.1 441.2,111.1 441.2,122.9 C441.2,134.2 447.7,142.5 456.6,142.5 C465.3,142.5 471.4,134.5 471.4,122.9 C471.4,110.9 465.6,103.1 456.6,103.1 Z M456.6,141.2 C448.6,141.1 446.9,131.2 446.9,122.9 C446.9,111.8 448.5,104.4 456.6,104.4 C465,104.4 465.7,112.4 465.7,122.9 C465.7,134.2 464.2,141.2 456.6,141.2 Z" id="Shape" fill-rule="nonzero"></path>
                    <path d="M490.8,104.4 L493.3,104.4 C494.5,104.4 494.6,106.3 494.6,106.9 L494.5,129.2 C492.9,125.1 489.2,117.4 488,115.2 L487.8,114.9 C486.2,111.9 482.4,104.7 480.8,103.3 L480.7,103.2 L479.6,103.2 C478.9,103.2 477.9,103.2 476.8,103.2 C475.4,103.2 473.7,103.2 472,103.2 L471.6,103.2 L471.6,104.5 L474.5,104.5 C475.1,104.5 475.5,105 475.5,105.5 C475.5,107.3 475.3,138.2 475.3,138.5 C475.3,140.1 474.8,141 474,141 L471.6,141 L471.6,142.3 L480.8,142.3 L480.8,141 L478.3,141 C477.1,141 477,139.1 477,138.5 L476.8,106.4 C478.6,108.7 482.3,115.5 483.8,118.2 C484.2,119 493.8,137.9 494.4,142.2 L494.4,142.5 L494.7,142.5 C494.9,142.5 495.6,142.4 495.7,142.4 L496,142.4 L496,142 C496,140.2 496.2,107.3 496.2,106.9 C496.2,105.3 496.7,104.4 497.5,104.4 L499.9,104.4 L499.9,103.1 L490.7,103.1 L490.7,104.4 L490.8,104.4 Z" id="Path"></path>
                    <path d="M437.2,140.4 L437.2,105.2 C437.2,104.7 437.3,104.5 438,104.5 L440.9,104.5 L440.9,103.2 L428.4,103.2 L428.4,104.5 L431.3,104.5 C432,104.5 432.1,104.7 432.1,105.2 L432.1,140.4 C432.1,140.7 431.9,141 431.6,141 L428.3,141 L428.3,142.3 L440.9,142.3 L440.9,141 L437.6,141 C437.4,141 437.2,140.7 437.2,140.4 Z" id="Path"></path>
                    <path d="M397.5,135 C397.5,135.2 396.9,141 389.5,141 C380.2,141 379.2,127.1 379.2,121.1 C379.2,115 381.3,104.7 389,104.6 L389.1,104.6 C394,104.6 394.6,107.1 394.6,109.6 C394.6,109.9 394.4,110.3 394.2,110.7 C394,111.1 393.8,111.5 393.8,112 C393.8,113.2 395,114 396,114 C397.2,114 398.4,113.1 398.4,111.1 C398.4,108.1 395.8,103.3 388.9,103.3 L388.8,103.3 C384.7,103.3 381.2,104.7 378.5,107.4 C375.2,110.7 373.3,115.8 373.4,121.2 C373.5,131.5 377.7,142.4 389.4,142.4 C397.8,142.4 398.7,135.3 398.8,135.2 L398.8,134.9 L397.5,134.5 L397.5,135 Z" id="Path"></path>
                    <path d="M343.9,133.1 C342.3,139.1 340,141 334.5,141 C330.5,141 330.3,139.8 330.3,137.6 L330.3,105.2 C330.3,104.7 330.4,104.5 331.1,104.5 L334,104.5 L334,103.2 L321.5,103.2 L321.5,104.5 L324.4,104.5 C324.9,104.5 325.1,105 325.1,105.2 L325.1,140.4 C325.1,140.7 324.9,141 324.6,141 L321.3,141 L321.3,142.3 L344.6,142.3 L345.2,132.9 L343.9,132.8 L343.9,133.1 Z" id="Path"></path>
                    <path d="M318.2,133.1 C316.6,139.1 314.3,141 308.8,141 C304.8,141 304.6,139.8 304.6,137.6 L304.6,105.2 C304.6,104.7 304.7,104.5 305.4,104.5 L308.3,104.5 L308.3,103.2 L295.8,103.2 L295.8,104.5 L298.7,104.5 C299.2,104.5 299.4,105 299.4,105.2 L299.4,140.4 C299.4,140.7 299.2,141 298.9,141 L295.6,141 L295.6,142.3 L318.9,142.3 L319.5,132.9 L318.2,132.8 L318.2,133.1 Z" id="Path"></path>
                    <path d="M370.9,133.2 C369.4,138.7 366.3,141 360.2,141 L359.8,141 C356.1,141 355.9,140.1 355.9,138.6 C355.9,138.3 355.9,137.9 355.9,137.5 C355.9,137 356,136.4 356,135.7 L355.9,117.9 L360.9,118.1 L361,118.1 C363.3,118.2 363.9,118.2 364.7,119.3 C365.3,120.1 365.4,121.1 365.6,122.6 L365.7,123.2 L366.9,123.2 L366.9,112 L365.7,112 L365.7,112.3 C365.5,113.8 365.4,114.8 364.6,115.7 C363.8,116.6 363.5,116.6 361.8,116.6 C361.5,116.6 361.3,116.6 361,116.6 L356,116.7 L356,104.7 L363.3,104.9 C365.1,105 367.1,105.1 367.9,106.1 C368.8,107.2 368.9,107.5 369.1,109.3 C369.1,109.7 369.2,110.1 369.3,110.6 L369.3,110.9 L370.5,110.9 L370.5,103.4 L347.1,103.4 L347.1,104.7 L350,104.7 C350.7,104.7 350.8,104.9 350.8,105.4 L350.8,140.6 C350.8,140.9 350.6,141.2 350.3,141.2 L347,141.2 L347,142.5 L371.6,142.5 L372.1,133.4 L370.9,133.2 Z" id="Path"></path>
                </g>
                <g id="Group-3" transform="translate(2.000000, 0.000000)" fill-rule="nonzero">
                    <path d="M118.417503,56.7350057 C118.417503,69.3738996 110.398165,78.9046301 99.7602175,78.9046301 C89.5176238,78.9046301 88.3022767,72.7465359 88.3022767,71.1742566 C88.3022767,70.3978223 88.4901918,69.2914035 88.9856044,68.1922637 C90.3180934,70.2522409 92.6414074,71.6182799 95.2893022,71.6182799 C99.4283155,71.6182799 102.781502,68.2844653 102.781502,64.1693637 C102.781502,60.0566885 99.4283155,56.7228739 95.2893022,56.7228739 C95.1575175,56.7228739 95.0257329,56.7253003 94.8939483,56.7325794 C87.8825183,56.8975716 83.4750548,61.3960376 81.6642365,66.20993 L81.6642365,47.2333915 C83.4750548,52.0472839 87.8825183,56.5457499 94.8939483,56.7107421 C95.0257329,56.7180212 95.1575175,56.7228739 95.2893022,56.7228739 C99.4283155,56.7228739 102.781502,53.386633 102.781502,49.2739578 C102.781502,45.1588562 99.4283155,41.8250416 95.2893022,41.8250416 C92.6414074,41.8250416 90.3180934,43.1910806 88.9856044,45.2534841 C88.4901918,44.151918 88.3022767,43.0479256 88.3022767,42.2714913 C88.3022767,40.6992119 89.5176238,34.5386914 99.7602175,34.5386914 C110.398165,34.5386914 118.417503,44.0694219 118.417503,56.7107421 L118.417503,56.7350057 Z M99.7602175,27 C89.1198295,27 83.6824936,32.1875514 81.6642365,37.4042191 L81.6642365,27 L66.0428779,27 C51.9809706,27 47,36.0575909 47,42.2714913 C47,48.3980429 51.7271632,56.4875173 61.1741682,56.7107421 C61.3059529,56.7180212 61.4377375,56.7228739 61.5719626,56.7228739 C65.7085354,56.7228739 69.0641624,53.386633 69.0641624,49.2739578 C69.0641624,45.1588562 65.7085354,41.8250416 61.5719626,41.8250416 C58.9240678,41.8250416 56.5983133,43.1910806 55.2658243,45.2534841 C54.7728522,44.151918 54.5824967,43.0479256 54.5824967,42.2714913 C54.5824967,40.6992119 55.7978437,34.5386914 66.0428779,34.5386914 L74.098823,34.5556759 L74.098823,148 L97.3588088,148 L97.3588088,140.395797 L81.6642365,140.395797 L81.6642365,132.869237 L97.3588088,132.869237 L97.3588088,125.265034 L81.6642365,125.265034 L81.6642365,76.0415288 C83.6824936,81.2557701 89.1198295,86.4457479 99.7602175,86.4457479 C113.822125,86.4457479 126,74.4352804 126,56.7350057 L126,56.7107421 C126,39.0080411 113.822125,27 99.7602175,27 Z" id="Fill-1"></path>
                    <path d="M84.0012123,160.374327 C41.8866454,160.374327 7.62567293,126.113355 7.62567293,83.9987877 C7.62567293,41.8866454 41.8866454,7.62567293 84.0012123,7.62567293 C126.113355,7.62567293 160.374327,41.8866454 160.374327,83.9987877 C160.374327,126.113355 126.113355,160.374327 84.0012123,160.374327 M143.399021,24.6034032 C127.531803,8.73618428 106.436936,0 84.0012123,0 C61.5630638,0 40.4681975,8.73618428 24.6034032,24.6034032 C8.73860897,40.4681975 0,61.5630638 0,83.9987877 C0,106.436936 8.73860897,127.531803 24.6034032,143.396597 C40.4681975,159.261391 61.5630638,168 84.0012123,168 C106.436936,168 127.531803,159.261391 143.399021,143.396597 C159.263816,127.531803 168,106.436936 168,83.9987877 C168,61.5630638 159.263816,40.4681975 143.399021,24.6034032" id="Fill-3"></path>
                </g>
            </g>
            <g id="Group-71">
                <path d="M1,226.042577 L1,218.232043 C1,202.101593 10.6873097,192 28.171436,192 C44.0280943,192 53.2010959,199.470945 55,210.165655 L42.4006263,210.165655 C40.686266,203.459946 35.799165,200.064062 28.3428721,200.064062 C18.0567104,200.064062 12.9136296,206.769771 12.9136296,218.571631 L12.9136296,225.023811 C12.9136296,236.144169 17.1149865,242.852204 28.3428721,242.852204 C35.7146212,242.852204 40.857702,239.370259 42.4006263,232.664551 L54.9154562,232.664551 C53.372532,243.784909 43.7721145,251 28.171436,251 C10.1706532,251 1,241.40779 1,226.042577" id="Fill-1" fill="#000000"></path>
                <path d="M103,224.345229 L103,250 L91.7122934,250 L91.7122934,224.17533 C91.7122934,217.975175 88.6100038,214.407292 81.716027,214.407292 C75.7711525,214.407292 71.1177181,217.465477 71.1177181,224.091544 L71.1177181,250 L60,250 L60,193 L71.1177181,193 L71.1177181,209.224205 C74.1326525,207.611327 78.6137374,206.422033 83.2671718,206.422033 C96.2783726,206.422033 103,212.11249 103,224.345229" id="Fill-3" fill="#000000"></path>
                <path d="M137.938272,232.037718 L126.791307,232.037718 C120.654321,232.037718 117.803653,234.534182 117.803653,237.975955 C117.803653,241.761905 121.518519,244.256011 129.208693,244.256011 C132.580247,244.256011 135.864198,243.480434 137.938272,242.278171 L137.938272,232.037718 Z M126.185185,225.154173 L137.938272,225.154173 L137.938272,221.627534 C137.938272,218.013673 136.037037,215.088166 127.740741,215.088166 C123.246914,215.088166 118.66785,216.552098 116.075258,219.13107 L108.555556,213.539368 C112.618468,209.925507 119.186369,207 128.001184,207 C141.998816,207 149,212.421971 149,222.228666 L149,246.321075 C149,247.44083 148.396246,247.869873 147.444444,248.298916 C143.123457,250.363979 136.555556,252 129.469136,252 C114.604938,252 107,245.375766 107,238.148043 C107,230.920321 113.136986,225.154173 126.185185,225.154173 Z" id="Fill-5" fill="#000000"></path>
                <path d="M172.178678,241.930625 L178,241.930625 L178,250 L169.868443,250 C160.536034,250 156,246.09216 156,236.663536 L156,193 L166.955437,193 L166.955437,237.087138 C166.955437,240.911188 168.841151,241.930625 172.178678,241.930625" id="Fill-7" fill="#000000"></path>
                <path d="M212.791604,225.585573 C212.536122,218.445073 207.914006,214.743989 201.498828,214.743989 C195.339132,214.743989 190.463878,218.874116 190.206052,225.585573 L212.791604,225.585573 Z M222.97104,244.944366 C217.669202,249.850071 211.1673,252 202.696547,252 C188.668472,252 179,244.687412 179,230.748232 L179,228.683168 C179,215.604432 187.46841,207 201.498828,207 C216.471483,207 224,215.432343 224,228.94248 L224,232.726073 L190.206052,232.726073 L190.206052,233.072607 C190.206052,240.125884 195.681338,243.826968 202.867649,243.826968 C208.514037,243.826968 212.449398,242.021216 215.958175,238.921264 L222.97104,244.944366 Z" id="Fill-9" fill="#000000"></path>
                <path d="M249.250583,241.930625 L257,241.930625 L257,250 L246.098081,250 C237.326609,250 232.216334,245.754675 232.216334,235.897795 L232.216334,215.085463 L226,215.085463 L226,207.269784 L232.216334,207.269784 L232.216334,193 L243.204592,193 L243.204592,207.269784 L257,207.269784 L257,215.085463 L243.204592,215.085463 L243.204592,236.239935 C243.204592,240.145447 244.908017,241.930625 249.250583,241.930625" id="Fill-11" fill="#000000"></path>
                <path d="M299,238.06082 C299,246.922207 290.835325,252 278.198564,252 C271.753016,252 263.673119,250.363979 258,245.375766 L264.876508,239.180575 C268.142849,242.190948 272.784492,243.911834 278.370477,243.911834 C284.474555,243.911834 287.825675,242.278171 287.825675,238.661952 C287.825675,235.823668 286.280816,234.187647 282.411603,233.758604 L273.731189,232.726073 C265.992763,231.778406 259.803906,227.822725 259.803906,219.906648 C259.803906,211.818482 267.196152,207 278.801436,207 C286.193682,207 292.295405,208.980198 296.765135,212.763791 L290.147674,218.529939 C287.225158,216.377652 283.443079,214.828854 279.058128,214.828854 C274.072659,214.828854 270.980586,216.549741 270.980586,219.562471 C270.980586,222.315889 272.784492,224.121641 276.135612,224.553041 L284.990293,225.757661 C294.014532,226.962282 299,230.745875 299,238.06082" id="Fill-13" fill="#000000"></path>
                <path d="M353.857075,223.916999 C353.857075,217.870811 349.626124,214.291169 342.889257,214.291169 C335.028396,214.291169 331.228112,217.698129 331.228112,225.279783 L331.228112,232.264051 C331.228112,239.759364 335.719356,243.079984 342.628964,243.079984 C348.935163,243.079984 353.857075,239.929712 353.857075,232.264051 L353.857075,223.916999 Z M320,225.109435 C320,214.123154 326.3062,206.457493 341.767629,206.457493 C346.17132,206.457493 350.575012,207.393241 353.857075,209.096721 L353.857075,193 L365,193 L365,232.688755 C365,245.805552 356.017511,251 342.628964,251 C327.860861,251 320,244.869805 320,232.007363 L320,225.109435 Z" id="Fill-15" fill="#000000"></path>
                <path d="M400.793364,225.585573 C400.537869,218.445073 395.917856,214.743989 389.502344,214.743989 C383.342327,214.743989 378.464475,218.874116 378.206636,225.585573 L400.793364,225.585573 Z M410.975675,244.944366 C405.668872,249.850071 399.168976,252 390.697781,252 C376.666632,252 367,244.687412 367,230.748232 L367,228.683168 C367,215.604432 375.468851,207 389.502344,207 C404.471091,207 412,215.432343 412,228.94248 L412,232.726073 L378.206636,232.726073 L378.206636,233.072607 C378.206636,240.125884 383.682206,243.826968 390.871237,243.826968 C396.515575,243.826968 400.451141,242.021216 403.9601,238.921264 L410.975675,244.944366 Z" id="Fill-17" fill="#000000"></path>
                <path d="M55,290.920251 L55,298.259707 C55,312.50341 45.8706717,322 27.6166898,322 C10.8959488,322 1,312.761225 1,296.358024 L1,287.724761 C1,275.295226 7.3970741,262 27.5302112,262 C43.568473,262 51.9288435,269.769937 54.2310422,279.264162 L41.7757964,279.264162 C39.9854571,273.826389 35.2922438,270.200418 27.5302112,270.200418 C17.720741,270.200418 12.8569079,277.71254 12.8569079,288.245122 L12.8569079,295.064217 C12.8569079,308.186778 18.7444598,313.712067 27.9579294,313.712067 C38.0221607,313.712067 42.5447542,308.271928 42.9724723,299.72618 L28.3833102,299.72618 L28.3833102,290.920251 L55,290.920251 Z" id="Fill-19" fill="#000000"></path>
                <path d="M85,285.865454 L77.1929476,285.865454 C72.3878843,285.865454 70.0699819,288.17028 70.0699819,292.96029 L70.0699819,321 L59,321 L59,293.302266 C59,284.155573 64.8370705,278 74.7880651,278 L85,278 L85,285.865454 Z" id="Fill-21" fill="#000000"></path>
                <path d="M116.937648,302.037718 L105.790055,302.037718 C99.652723,302.037718 96.8018942,304.534182 96.8018942,307.975955 C96.8018942,311.759547 100.516969,314.256011 108.207577,314.256011 C111.579321,314.256011 114.863457,313.480434 116.937648,312.278171 L116.937648,302.037718 Z M105.183899,295.154173 L116.937648,295.154173 L116.937648,291.627534 C116.937648,288.013673 115.036306,285.088166 106.739542,285.088166 C102.245462,285.088166 97.6661405,286.552098 95.0734017,289.13107 L87.5532755,283.539368 C91.6164167,279.925507 98.1846882,277 107,277 C120.998421,277 128,282.421971 128,292.228666 L128,316.323432 C128,317.44083 127.396212,317.869873 126.444357,318.298916 C122.123125,320.363979 115.554854,322 108.468035,322 C93.605367,322 86,315.373409 86,308.148043 C86,300.920321 92.1349645,295.154173 105.183899,295.154173 Z" id="Fill-23" fill="#000000"></path>
                <path d="M175,295.097741 L175,321 L163.90873,321 L163.90873,294.926187 C163.90873,288.407146 160.325397,285.060674 153.586486,285.060674 C146.931724,285.060674 143.007121,288.58105 143.007121,294.411526 L143.007121,321 L132,321 L132,277.857769 L141.300772,277.857769 L141.896825,281.288843 C144.968254,279.145596 149.404762,277 155.80474,277 C166.980159,277 175,281.803504 175,295.097741" id="Fill-25" fill="#000000"></path>
                <path d="M213.858856,294.916999 C213.858856,288.870811 209.625316,285.293502 202.888094,285.293502 C195.029186,285.293502 191.228702,288.698129 191.228702,296.279783 L191.228702,303.264051 C191.228702,310.759364 195.720183,314.079984 202.630154,314.079984 C208.934318,314.079984 213.858856,310.929712 213.858856,303.264051 L213.858856,294.916999 Z M180,296.109435 C180,285.123154 186.304165,277.457493 201.766407,277.457493 C206.17033,277.457493 210.57662,278.393241 213.858856,280.096721 L213.858856,264 L225,264 L225,303.688755 C225,316.805552 216.017038,322 202.630154,322 C187.861275,322 180,315.869805 180,303.009696 L180,296.109435 Z" id="Fill-27" fill="#000000"></path>
                <path d="M315,264 L315,321 L303.826226,321 L303.826226,284.812332 C303.826226,282.859575 303.826226,279.119314 304.080972,276.912862 L303.9127,276.912862 L285.914533,321 L277.725262,321 L260.065979,277.50637 C260.236589,279.801266 260.407198,283.19706 260.407198,285.238261 L260.407198,321 L250,321 L250,264 L265.780239,264 L282.586473,305.457085 L299.135625,264 L315,264 Z" id="Fill-29" fill="#000000"></path>
                <path d="M349.937648,302.037718 L338.787687,302.037718 C332.652723,302.037718 329.799526,304.534182 329.799526,307.975955 C329.799526,311.759547 333.516969,314.256011 341.207577,314.256011 C344.579321,314.256011 347.863457,313.480434 349.937648,312.278171 L349.937648,302.037718 Z M338.183899,295.154173 L349.937648,295.154173 L349.937648,291.627534 C349.937648,288.013673 348.036306,285.088166 339.739542,285.088166 C335.245462,285.088166 330.663773,286.552098 328.073402,289.13107 L320.553275,283.539368 C324.616417,279.925507 331.18232,277 340,277 C353.998421,277 361,282.421971 361,292.228666 L361,316.323432 C361,317.44083 360.393844,317.869873 359.444357,318.298916 C355.120758,320.363979 348.554854,322 341.468035,322 C326.605367,322 319,315.373409 319,308.148043 C319,300.920321 325.132597,295.154173 338.183899,295.154173 Z" id="Fill-31" fill="#000000"></path>
                <path d="M404,308.063178 C404,316.924564 395.83297,322 383.198564,322 C376.753016,322 368.673119,320.366337 363,315.375766 L369.876508,309.182933 C373.140494,312.193305 377.782137,313.911834 383.370477,313.911834 C389.474555,313.911834 392.825675,312.278171 392.825675,308.664309 C392.825675,305.826025 391.278461,304.190005 387.409248,303.760962 L378.731189,302.726073 C370.992763,301.780764 364.803906,297.822725 364.803906,289.909005 C364.803906,281.818482 372.196152,277 383.801436,277 C391.193682,277 397.295405,278.980198 401.765135,282.766148 L395.145319,288.532296 C392.225158,286.380009 388.443079,284.831212 384.058128,284.831212 C379.072659,284.831212 375.980586,286.552098 375.980586,289.562471 C375.980586,292.315889 377.782137,294.123998 381.135612,294.555398 L389.990293,295.757661 C399.014532,296.962282 404,300.745875 404,308.063178" id="Fill-33" fill="#000000"></path>
                <path d="M446,308.063178 C446,316.924564 437.835325,322 425.200919,322 C418.753016,322 410.673119,320.366337 405,315.375766 L411.876508,309.182933 C415.142849,312.193305 419.784492,313.911834 425.370477,313.911834 C431.474555,313.911834 434.82803,312.278171 434.82803,308.664309 C434.82803,305.826025 433.280816,304.190005 429.411603,303.760962 L420.731189,302.726073 C412.992763,301.780764 406.803906,297.822725 406.803906,289.909005 C406.803906,281.818482 414.198507,277 425.801436,277 C433.196037,277 439.295405,278.980198 443.76749,282.766148 L437.147674,288.532296 C434.225158,286.380009 430.445434,284.831212 426.058128,284.831212 C421.075014,284.831212 417.980586,286.552098 417.980586,289.562471 C417.980586,292.315889 419.784492,294.123998 423.137967,294.555398 L431.990293,295.757661 C441.016887,296.962282 446,300.745875 446,308.063178" id="Fill-35" fill="#000000"></path>
                <mask id="mask-2" fill="white">
                    <use xlink:href="#path-1"></use>
                </mask>
                <g id="Clip-38"></g>
                <path d="M451,321 L462,321 L462,278.272111 L451,278.272111 L451,321 Z M451,273.261045 L462,273.261045 L462,264 L451,264 L451,273.261045 Z" id="Fill-37" fill="#000000" mask="url(#mask-2)"></path>
                <path d="M471.843605,286.087791 L466,286.087791 L466,278.272111 L471.843605,278.272111 L471.843605,277.336464 C471.843605,269.180972 477.260893,264 485.598807,264 L496,264 L496,271.475868 L487.834027,271.475868 C484.651959,271.475868 482.934914,273.005022 482.934914,276.147121 L482.934914,278.272111 L495.48418,278.272111 L495.48418,286.087791 L482.934914,286.087791 L482.934914,321 L471.843605,321 L471.843605,286.087791 Z" id="Fill-39" fill="#000000" mask="url(#mask-2)"></path>
            </g>
        </g>
    </g>
</svg>
