<svg version="1.1"
   xmlns="http://www.w3.org/2000/svg" xmlns:xlink="http://www.w3.org/1999/xlink"
   x="0px" y="0px" viewBox="0 0 500 611.4" enable-background="new 0 0 500 611.4"
   xml:space="preserve">
<defs>
</defs>
<g>
  <path d="M500,582.1c0,16.2-13.1,29.3-29.3,29.3c-16.2,0-29.3-13.1-29.3-29.3c0-16.2,13.1-29.3,29.3-29.3
    C486.9,552.8,500,565.9,500,582.1z"/>
  <path d="M394.8,86.2c-16.4-22.4-35.6-39-51.7-50.5c29.6-5.2,49.2-8.7,50.1-8.8c7.4-1.3,12.3-8.3,11-15.7
    c-1.3-7.4-8.3-12.3-15.7-11c-14.1,2.5-346,60.9-359.2,63.5C16,66.3,11.7,78.8,7.2,96.2c-1.9,5.4-4.1,16.5-5.7,25.4
    c-1.7,9.3-3.4,19,2.9,25.9c2,2.2,6.3,5.7,13.5,5.2c17.8-1.3,18.6-19.1,18.9-27.7c0.2-4.3,0.3-8.7,0.4-13.3c0.2-6.8,0.4-14.1,0.8-22
    C63.1,85,203.3,60.3,299.9,43.3c0.7,0.6,1.6,1.1,2.4,1.6c12.5,6.5,44.3,25.2,68.8,58.6c21.4,29.3,40.8,70.9,34.3,83.7
    c-1.9,3.8-8.9,4.6-14.5,4.6c-11.3,0-53.9-9.1-78.2-14.9c-1-0.2-1.9-0.4-2.8-0.6c7.8-9.5,12.4-21.6,12.4-34.7
    c0-30.2-24.6-54.9-54.9-54.9c-30.2,0-54.8,24.6-54.8,54.9c0,24,15.6,44.4,37.1,51.8c-9,11-16.8,29.8-12.5,61.4
    c1.8,13.5,9,34.9,16.7,57.6c6.7,20.1,13.7,40.8,16.9,55.8c5.4,25.1,3.1,27.7-7.5,40L146.3,543.2c-4.7,5.5-4.8,13.6-0.1,19.1
    c7.6,8.9,22.1,26,42.9,26c9.4,0,20-3.5,31.8-12.8c0.3-0.3,0.7-0.6,1-0.9c2.5-2.3,39.1-36.9,71.1-67.5v61.6
    c0,22.8,18.6,41.4,41.4,41.4c22.6,0,40.4-18.2,40.4-41.4V385.5c0.2-5.5-0.1-11.2-0.9-17.2c-0.1-0.6-8.3-61.3-20-116.4
    c-1.7-7.9-9.5-13-17.4-11.3c-7.9,1.7-13,9.5-11.3,17.4c11.5,54,19.5,113.7,19.6,114.3c4.3,32.1-11.7,53.8-28,70.9
    c-16.8,17.7-106.9,102.7-114.4,109.8c-10.6,8.2-16.3,8.2-25.2-0.3l108.3-125c14.8-17,22.1-27.7,14.1-65.3
    c-3.6-16.7-10.8-38.2-17.8-59c-6.9-20.4-13.9-41.5-15.4-52.2c-2.6-19.3,0.3-33.9,8.2-41.1c8.3-7.6,21.9-6.5,31.6-4.3
    c6.8,1.6,66.5,15.7,84.9,15.7c24.9,0,35.9-11.2,40.7-20.7C450.2,163.7,400.5,94,394.8,86.2z M338,463.4c2.4-2.5,4.9-5.3,7.4-8.2
    v113.6c0,6-3.8,12-11,12c-6.6,0-12-5.4-12-12V479C329.3,472.2,334.8,466.7,338,463.4z M241.9,141.6c0-13.8,11.7-25.5,25.5-25.5
    c13.8,0,25.5,11.7,25.5,25.5c0,13.8-11.7,25.5-25.5,25.5C253.1,167.1,241.9,155.9,241.9,141.6z"/>
</g>
</svg>
