<svg id="Calque_1" data-name="Calque 1" xmlns="http://www.w3.org/2000/svg" viewBox="0 0 100 100"><defs></defs><title>Golf View</title><path class="cls-1" d="M65.93,93.08a1.5,1.5,0,0,0,1.5-1.5V48.32L96.24,26.57a1.49,1.49,0,0,0,.59-1.18,1.51,1.51,0,0,0-.57-1.2l-29.4-23a1.51,1.51,0,0,0-1.58-.16,1.49,1.49,0,0,0-.85,1.35V91.58A1.5,1.5,0,0,0,65.93,93.08Zm1.5-87.61L92.87,25.35,67.43,44.56Z"/><path class="cls-1" d="M42.19,57.41a9.45,9.45,0,1,0-9.45,9.45A9.46,9.46,0,0,0,42.19,57.41Zm-15.9,0a6.45,6.45,0,1,1,6.45,6.45A6.46,6.46,0,0,1,26.29,57.41Z"/><path class="cls-1" d="M56,33.06a1.5,1.5,0,0,0-1.5-1.5H2.3a1.5,1.5,0,0,0,0,3H54.5A1.5,1.5,0,0,0,56,33.06Z"/><path class="cls-1" d="M71,80.44a1.52,1.52,0,0,0-1.56,1.44,1.5,1.5,0,0,0,1.44,1.56c16.84.67,25.29,4.38,25.29,6.28,0,2.16-10.68,6.38-30.27,6.38s-30.27-4.22-30.27-6.38c0-1.9,8.46-5.61,25.29-6.28a1.5,1.5,0,0,0-.05-3h-.07c-13,.52-28.17,3.26-28.17,9.28,0,6.88,19.9,9.38,33.27,9.38S99.2,96.6,99.2,89.72C99.2,83.7,84,81,71,80.44Z"/></svg>
