<svg version="1.1" id="Calque_1" xmlns="http://www.w3.org/2000/svg" xmlns:xlink="http://www.w3.org/1999/xlink" x="0px" y="0px"
	 viewBox="0 0 453.5 453.5" style="enable-background:new 0 0 453.5 453.5;" xml:space="preserve">
<path class="st0" d="M73.5,88.9c-3.2,2.2-7.9,3.4-14.2,3.4c-10,0-18.4-3.3-25.1-10L22.7,92.6c4.2,3.8,9.6,6.8,16.2,9
	c6.6,2.2,13.5,3.2,20.6,3.2c11.1,0,19.9-2.3,26.4-7c6.5-4.7,9.7-10.7,9.7-18c0-6.4-2-11.7-6-15.7c-4-4-9.6-6.6-16.9-7.6L55.9,54
	c-8.2-1.2-12.4-4.9-12.4-11c0-3.2,1.4-5.7,4.3-7.6c2.9-1.9,7-2.9,12.3-2.9c7.9,0,15.1,2.2,21.5,6.7l11.1-10
	c-8.5-6.2-19.6-9.3-33.4-9.3c-10.2,0-18.3,2.1-24.3,6.2c-6,4.2-9,10.1-9,17.9c0,6.5,2.4,11.8,7.2,15.8c4.8,4,10.6,6.5,17.4,7.5
	l16.6,2.3c7.3,0.9,10.9,4.3,10.9,10.2C78.2,83.6,76.7,86.7,73.5,88.9"/>
<polygon class="st0" points="103.5,41.9 111.3,41.9 119.2,41.9 119.2,72.6 119.2,103.4 111.3,103.4 103.5,103.4 103.5,72.6 "/>
<polygon class="st0" points="103.5,21.3 111.3,21.3 119.2,21.3 119.2,28 119.2,34.6 111.3,34.6 103.5,34.6 103.5,28 "/>
<path class="st0" d="M149.9,103.4h11.6V91.8h-8.3c-2.5,0-4.4-0.5-5.6-1.5c-1.2-1-1.8-2.8-1.8-5.4V21.3h-15.7v62.9
	c0,6.7,1.6,11.6,4.8,14.6C138.1,101.9,143.1,103.4,149.9,103.4"/>
<polygon class="st0" points="193.2,103.4 219.5,41.9 203.8,41.9 186,88 168.1,41.9 152.1,41.9 177.5,103.4 "/>
<path class="st0" d="M225.4,96.8c6.2,5.2,14.4,7.8,24.7,7.8c12.1,0,21.7-3.3,29-10L269,86c-5.3,4.6-11.5,7-18.7,7
	c-5.3,0-9.6-1.3-13-4c-3.4-2.7-5.1-6.4-5.1-11.3v-0.5h48.3v-5.4c0-9.8-2.7-17.4-8.2-22.9c-5.5-5.5-13.5-8.3-24-8.3
	c-10,0-17.8,2.8-23.6,8.4c-5.7,5.6-8.6,13.1-8.6,22.5v2.9C216.2,84.1,219.3,91.6,225.4,96.8 M237,55.9c3.1-2.8,6.8-4.2,11.3-4.2
	c4.7,0,8.6,1.3,11.5,4c2.9,2.7,4.5,6.5,4.6,11.4h-32.3C232.4,62.4,234,58.7,237,55.9"/>
<path class="st0" d="M308.5,41.9c-7,0-12.5,2-16.5,6c-4,4-6,9.3-6,15.9v39.6h15.8V63.3c0-6.8,3.4-10.2,10.2-10.2h11.1V41.9H308.5z"
	/>
<path class="st0" d="M203.2,318c-0.8-0.7-1.7-1.1-2.9-1.1h-38.4c7.7,0,14.2-2.7,19.6-8.1c5.4-5.4,8.1-11.9,8.1-19.6
	c0-7.7-2.7-14.2-8.1-19.6c-5.4-5.4-11.9-8.1-19.6-8.1c-8.8,0-15.8,3.2-20.8,9.5l-25.7,27.4c-2.4,2.4-6.1,2.6-6.1,2.6
	c-3.8,0-6.4-2.6-6.4-2.6L79.1,271c-5-6.4-12-9.5-20.8-9.5c-7.7,0-14.2,2.7-19.6,8.1c-5.4,5.4-8.1,11.9-8.1,19.6
	c0,7.7,2.7,14.2,8.1,19.6c5.4,5.4,11.9,8.1,19.6,8.1H18.1c-1.2,0-2.1,0.4-2.9,1.1c-0.7,0.7-1.1,1.7-1.1,2.8v39.6
	c0,1.2,0.4,2.1,1.1,2.8c0.7,0.8,1.7,1.1,2.9,1.1H30v51.5c0,3.3,1.2,6.1,3.5,8.4c2.3,2.3,5.1,3.5,8.4,3.5h134.7
	c3.3,0,6.1-1.2,8.4-3.5c2.3-2.3,3.5-5.1,3.5-8.4v-51.5h11.9c1.2,0,2.1-0.4,2.9-1.1c0.7-0.7,1.1-1.7,1.1-2.8v-39.6
	C204.3,319.7,203.9,318.8,203.2,318z M49.8,297.6c-2.3-2.3-3.5-5.1-3.5-8.4c0-3.3,1.2-6.1,3.5-8.4c2.3-2.3,5.1-3.5,8.4-3.5
	c3.6,0,6.4,1.3,8.5,3.8L82.4,301H58.3C55,301,52.2,299.9,49.8,297.6z M110.9,410.2c-5.1-1.2-7-18.4-7.5-36
	c-14.1,0.4-26.2-15.2-24.9-32.4c-3.4,1.3-6.2,2.1-8.2-1.5c6.2-5.8,18.8-14.5,18.3-10.5c-1.1,4.9-4.1,43.1,14.7,41.7
	c-0.4-18.1,0.5-35.9,0.5-36.9c-3.8,1.6-8.6,7.1-12.4,0.9c6.9-7.4,15.8-16.3,20.8-16.9c0.5-0.1,1.1,0.1,1.1,0.8
	c0,0-0.2,25.8-0.8,49.9c18.2-7.2,17.1-31.1,14.3-36.4c-3.5,1.3-5.6,4-10-0.8c10.9-9.8,16-13,16.6-10.7c0,0,12.9,40.4-21,50.9
	C112.1,392.3,111.6,410.4,110.9,410.2z M127.8,398.9l-9.5-9.5l9.5-9.5l9.5,9.5L127.8,398.9z M153.3,281.1c2.1-2.6,5-3.8,8.5-3.8
	c3.3,0,6.1,1.2,8.4,3.5c2.3,2.3,3.5,5.1,3.5,8.4c0,3.3-1.1,6.1-3.5,8.4c-2.3,2.3-5.1,3.5-8.4,3.5h-24L153.3,281.1z"/>
<g>
	<polygon class="st0" points="421.9,372.1 404.5,389.5 421.9,406.9 439.4,389.5 	"/>
	<path class="st0" d="M432.3,264.7c-1.1-4.1-10.4,1.8-30.4,19.7c8,8.8,11.9,3.8,18.3,1.4c5.2,9.7,7.2,53.6-26.2,66.8
		c0.9-44.2,1.4-91.4,1.4-91.4c0-1.3-1.1-1.6-2-1.5c-9.2,1.2-25.5,17.4-38.1,31c7,11.4,15.7,1.2,22.7-1.7c0,1.9-1.7,34.5-0.9,67.7
		c-34.4,2.6-28.9-67.6-26.9-76.5c0.9-7.2-22.2,8.7-33.6,19.3c3.6,6.5,8.7,5.2,15,2.7c-2.3,31.5,19.9,60.1,45.7,59.4
		c0.9,32.4,4.3,63.9,13.7,66.1c1.3,0.3,2.3-32.8,3-69.7C455.9,338.8,432.3,264.7,432.3,264.7z"/>
</g>
<path class="st0" d="M294.6,355.9h-5.7V350c0-13.1-10.2-14.7-24.3-14.7h-0.4c-14.1,0-26.8,1.6-26.8,14.7v5.9h-6.2l-18.9,71.5h49.1
	h0.4h51.8L294.6,355.9z M261.3,403.1h-6.9v6.9h-6.6v-6.9h-16.7V398l14.2-21.6h7.2l-14,21.6h9.3v-8.3h6.6v8.3h6.9V403.1z
	 M264.2,355.9h-20.1V350c0-7.9,9.1-8,20.3-8c11.1,0,17.8,0.1,17.8,8v5.9h-17.6H264.2z M278.8,410.6c-7.3,0-12.9-3.6-13.4-9.7h7
	c0.5,3.1,2.7,5,6.4,5c4.4,0,7.2-2.4,7.2-6.8c0-4.4-2.8-7.1-7.2-7.1c-3.2,0-5.6,1.7-6.7,3.4l-6.1-1.8l3.9-17.8h19.8v5.4h-14.7
	l-1.7,7.7c1.6-1,3.9-1.6,6.2-1.6c7.7,0,13.4,3.9,13.4,11.7C292.9,405.8,287.4,410.6,278.8,410.6z"/>
<g>
	<path class="st0" d="M130.4,186.6c0,9.5-7.7,17.3-17.3,17.4c-1,0-1.9-0.1-2.9-0.3l-24,14.6c7.3,6.2,16.6,10.1,26.9,10
		c23-0.1,41.7-18.8,41.6-41.8c0-10.3-4-19.6-10.2-26.9l-14.5,24C130.3,184.6,130.4,185.6,130.4,186.6z"/>
	<path class="st0" d="M95.9,188.1c0-0.5-0.2-1-0.2-1.5c0-9.5,7.7-17.3,17.3-17.4c0.5,0,1.1,0,1.6,0.1l25.6-14.2
		c-7.3-6.4-16.8-10.4-27.3-10.3c-23,0.1-41.7,18.8-41.6,41.8c0,10.4,4.1,19.9,10.4,27.2L95.9,188.1
		C95.9,188.2,95.9,188.2,95.9,188.1z"/>
	<ellipse transform="matrix(1 -2.799989e-03 2.799989e-03 1 -0.5221 0.3173)" class="st0" cx="113.1" cy="186.6" rx="10" ry="10"/>
	<path class="st0" d="M112.9,111.5c-41.5,0.1-75,33.8-74.9,75.3c0.1,41.5,33.8,75,75.3,74.9s75-33.8,74.9-75.3
		C188.1,144.9,154.4,111.4,112.9,111.5z M106,118.6l3.6,0l4.6,10.2h0l0-10.2l3,0l0,17.2l-3.1,0l-5.1-11.1h0l0,11.1l-3,0L106,118.6z
		 M58.5,196.6l-3.2,0l-2.4-11.8h0l-2.6,11.8l-3.1,0l-3.6-17.2l3,0l2.3,11.2h0l2.3-11.3l3.2,0l2.4,11.2h0l2.3-11.3l3.1,0L58.5,196.6z
		 M111.1,255.3c-2.7,0-4.7-1.4-5.6-4.8l3.2-0.7c0.4,2.1,1.6,2.8,2.6,2.8c1.1,0,2-0.8,2-2.1c0-3.2-7.3-3.3-7.4-8.1
		c0-3,1.8-4.8,5.2-4.8c2.9,0,4.7,1.7,5.3,4.2l-3,0.9c-0.5-1.6-1.3-2.3-2.4-2.3c-1.2,0-1.8,0.7-1.8,1.9c0,2.6,7.3,2.8,7.4,8.2
		C116.6,253.3,114.6,255.3,111.1,255.3z M113.2,232.4c-11.8,0-22.6-4.5-30.7-11.8l-3.2,2c-0.2,0.1-0.3,0.1-0.5,0.1
		c-0.3,0-0.5-0.1-0.7-0.3c-0.3-0.3-0.4-0.8-0.2-1.2l1.8-3.4c-7.6-8.2-12.4-19.1-12.4-31.1c-0.1-25.3,20.4-45.9,45.7-45.9
		c12,0,23,4.6,31.2,12.2l3.2-1.8c0.4-0.2,0.9-0.1,1.2,0.2c0.3,0.3,0.4,0.8,0.1,1.2l-1.8,3.1c7.4,8.1,12,18.9,12,30.7
		C158.9,211.7,138.5,232.3,113.2,232.4z M163.7,196.3l0-17.2l9,0l0,2.9l-5.7,0l0,4l4.4,0l0,2.9l-4.4,0l0,4.5l6,0l0,2.9L163.7,196.3z
		"/>
</g>
<g>
	<path class="st0" d="M327.9,272.9c-17.5-16.7-40.7-25.9-65.4-25.9c-24.7,0-47.9,9.2-65.4,25.9c-1.1,1-1.6,2.3-1.6,3.8
		c0,1.4,0.6,2.8,1.6,3.8c2.1,2,5.8,2,7.9,0c15.4-14.7,35.8-22.8,57.5-22.8c21.7,0,42.1,8.1,57.5,22.8c1,1,2.5,1.6,3.9,1.6
		c1.5,0,2.9-0.6,3.9-1.6c1.1-1,1.6-2.3,1.6-3.8C329.5,275.2,328.9,273.9,327.9,272.9z"/>
	<path class="st0" d="M312.5,286.6l-0.4-0.5c-0.1-0.1-0.2-0.2-0.4-0.4c-13.2-12.6-30.6-19.5-49.2-19.5c-18.6,0-36.2,6.9-49.3,19.6
		c-0.5,0.5-0.9,1-1.2,1.8l-0.1,0.3c-0.4,1.2-0.4,2.6,0.1,3.7c0.3,0.7,0.7,1.3,1.2,1.8c0.7,0.6,1.4,1.1,2.4,1.3
		c1.6,0.4,3.3,0.2,4.7-0.6c0.3-0.2,0.6-0.4,0.9-0.7c0.6-0.6,1.2-1.1,1.8-1.7c10.8-9.5,24.9-14.8,39.6-14.8
		c15.6,0,30.4,5.8,41.5,16.4c0.1,0.1,0.2,0.2,0.3,0.3c1,0.8,2.3,1.3,3.6,1.3c1.5,0,2.9-0.5,3.9-1.6l0.2-0.2c1.4-1.5,1.8-3.7,0.9-5.7
		C312.8,287.1,312.7,286.8,312.5,286.6z"/>
	<path class="st0" d="M262.5,286c-12.4,0-24.1,4.6-32.8,13c-1.1,1-1.6,2.4-1.6,3.8c0,1.4,0.6,2.8,1.6,3.8c1.1,1,2.5,1.6,3.9,1.6
		c1.5,0,2.9-0.6,3.9-1.6c6.7-6.4,15.5-9.9,25-9.9c9.4,0,18.3,3.5,24.9,9.9c1,1,2.5,1.6,4,1.6c1.5,0,2.9-0.6,3.9-1.6
		c2.2-2.1,2.2-5.5,0-7.6C286.6,290.7,274.9,286,262.5,286z"/>
	<ellipse class="st0" cx="262.5" cy="317.4" rx="11.5" ry="11"/>
</g>
<g>
	<path class="st0" d="M256.5,163.8c-0.3,0-0.7,0-1,0c-0.3,0-0.7,0-1,0H256.5z"/>
	<path class="st0" d="M267,159.1c-3.2,1.2-6.8,1.9-10.5,1.9c-3.9,0-7.7-0.8-11.1-2.1c-9.9-3.9-16.9-13-16.9-23.6
		c0-14.2,12.5-25.7,28-25.7s28,11.5,28,25.7C284.5,146.1,277.3,155.3,267,159.1z"/>
	<ellipse class="st0" cx="368.8" cy="76.7" rx="41.9" ry="38.5"/>
	<path class="st0" d="M301.1,235.5c1.4,0.5,2.8,0.9,4.2,1.3c1.4,0.3,2.8,0.6,4.2,0.8c1.6,0.2,3.1,0.3,4.7,0.3
		c19.6,0,35.5-14.6,35.5-32.6c0-18-15.9-32.6-35.5-32.6c-2.9,0-5.7,0.3-8.3,0.9c-3.2,0.7-6.3,1.8-9.1,3.3c-1.3,0.7-2.4,1.4-3.6,2.2
		c-1.1,0.8-2.2,1.6-3.2,2.4c0,0,0,0,0,0c-6.9,5.9-11.2,14.4-11.2,23.7c0,12.8,8.1,23.9,19.9,29.2
		C299.5,234.8,300.3,235.2,301.1,235.5z M299.8,211.7h-0.6h0h-5.8c-3.9,0-7-2.9-7-6.4s3.1-6.4,7-6.4h3.3h0h4.2h0.2h4.2h2V186
		c0-3.6,3.1-6.4,7-6.4s7,2.9,7,6.4v12.8h13.9c3.9,0,7,2.9,7,6.4s-3.1,6.4-7,6.4h-13.9v12.8c0,3.6-3.1,6.4-7,6.4c-2,0-3.8-0.8-5.1-2
		c-1.2-1.2-1.9-2.7-1.9-4.4v-12.8h-3.9H299.8z"/>
	<path class="st0" d="M289.3,238.3c-11.4-7.3-18.8-19.3-18.8-33c0-12,5.8-22.8,14.9-30.2c0,0,0,0,0,0c-0.1-0.1-0.2-0.2-0.2-0.3
		c-0.3-0.3-0.6-0.6-0.8-0.9c-0.3-0.3-0.6-0.6-0.9-0.9c-0.3-0.3-0.6-0.5-0.9-0.8c-0.3-0.3-0.6-0.5-0.9-0.8c-0.3-0.2-0.6-0.5-0.9-0.7
		c-0.3-0.2-0.6-0.5-0.9-0.7c-0.3-0.2-0.6-0.4-0.9-0.6c-0.3-0.2-0.6-0.4-1-0.6c-0.3-0.2-0.6-0.4-1-0.5c-0.3-0.2-0.7-0.4-1-0.5
		c-0.3-0.2-0.6-0.3-1-0.5c-0.3-0.2-0.7-0.3-1-0.4c-0.3-0.1-0.7-0.3-1-0.4c-0.3-0.1-0.7-0.3-1-0.4c-0.3-0.1-0.7-0.2-1-0.3
		c-0.3-0.1-0.7-0.2-1-0.3c-0.3-0.1-0.7-0.2-1-0.3c-0.4-0.1-0.7-0.2-1.1-0.2c-0.3-0.1-0.7-0.1-1-0.2c-0.4-0.1-0.7-0.1-1.1-0.2
		c-0.3-0.1-0.7-0.1-1.1-0.2c-0.4-0.1-0.7-0.1-1.1-0.1c-0.4,0-0.7-0.1-1.1-0.1c-0.4,0-0.7-0.1-1.1-0.1c-0.4,0-0.7-0.1-1.1-0.1
		c-0.4,0-0.7,0-1.1-0.1c-0.4,0-0.7,0-1.1,0c-0.4,0-0.8,0-1.1,0c-0.4,0-0.7,0-1.1,0c-0.1,0-0.2,0-0.4,0c-0.1,0-0.1,0-0.2,0
		c-0.1,0-0.1,0-0.2,0c-0.1,0-0.2,0-0.4,0c-0.4,0-0.7,0-1.1,0c-0.4,0-0.8,0-1.1,0c-0.4,0-0.7,0-1.1,0c-0.4,0-0.7,0-1.1,0.1
		c-0.4,0-0.7,0.1-1.1,0.1c-0.4,0-0.7,0.1-1.1,0.1c-0.4,0-0.7,0.1-1.1,0.1c-0.4,0-0.7,0.1-1.1,0.1c-0.4,0.1-0.7,0.1-1.1,0.2
		c-0.4,0.1-0.7,0.1-1.1,0.2c-0.3,0.1-0.7,0.1-1,0.2c-0.4,0.1-0.7,0.2-1.1,0.2c-0.3,0.1-0.7,0.2-1,0.3c-0.4,0.1-0.7,0.2-1,0.3
		c-0.3,0.1-0.7,0.2-1,0.3c-0.3,0.1-0.7,0.2-1,0.4c-0.3,0.1-0.7,0.3-1,0.4c-0.3,0.1-0.7,0.3-1,0.4c-0.3,0.1-0.7,0.3-1,0.5
		c-0.3,0.2-0.7,0.3-1,0.5c-0.3,0.2-0.6,0.3-1,0.5c-0.3,0.2-0.6,0.4-1,0.6c-0.3,0.2-0.6,0.4-0.9,0.6c-0.3,0.2-0.6,0.4-0.9,0.7
		c-0.3,0.2-0.6,0.5-0.9,0.7c-0.3,0.2-0.6,0.5-0.9,0.8c-0.3,0.3-0.6,0.5-0.9,0.8c-0.3,0.3-0.6,0.6-0.9,0.9c-0.3,0.3-0.6,0.6-0.8,0.9
		c-0.3,0.3-0.6,0.6-0.8,1c-0.3,0.3-0.5,0.6-0.8,1c-0.3,0.3-0.5,0.7-0.8,1.1c-0.3,0.4-0.5,0.7-0.8,1.1c-0.3,0.4-0.5,0.8-0.8,1.2
		c-0.2,0.4-0.5,0.8-0.7,1.2c-0.3,0.4-0.5,0.9-0.7,1.3c-0.2,0.4-0.5,0.9-0.7,1.3c-0.2,0.5-0.5,1-0.7,1.5c-0.2,0.5-0.4,0.9-0.7,1.4
		c-0.2,0.5-0.4,1.1-0.7,1.6c-0.2,0.5-0.4,1-0.6,1.5c-0.2,0.6-0.4,1.2-0.6,1.7c-0.2,0.6-0.4,1.1-0.6,1.7c-0.2,0.6-0.4,1.3-0.6,1.9
		c-0.2,0.6-0.4,1.2-0.5,1.8c-0.2,0.7-0.4,1.4-0.5,2.1c-0.2,0.6-0.3,1.2-0.5,1.9c-0.2,0.7-0.3,1.5-0.5,2.2c-0.1,0.7-0.3,1.3-0.4,2
		c-0.1,0.8-0.3,1.6-0.4,2.4c-0.1,0.7-0.3,1.4-0.4,2.2c-0.1,0.8-0.2,1.7-0.4,2.6c-0.1,0.8-0.2,1.5-0.3,2.3c-0.1,0.9-0.2,1.9-0.3,2.8
		c-0.1,0.8-0.2,1.6-0.3,2.4c-0.1,1-0.2,2.1-0.3,3.1c-0.1,0.8-0.1,1.6-0.2,2.5c-0.1,1.1-0.1,2.2-0.2,3.4c0,0.9-0.1,1.7-0.1,2.6
		c-0.1,1.3-0.1,2.6-0.1,3.9c0,0.8-0.1,1.6-0.1,2.4c0,0.2,0,0.3,0,0.5L289.3,238.3L289.3,238.3z"/>
	<path class="st0" d="M358.2,205.2c0,13.7-7.4,25.7-18.8,33h96.2c-1.3-103-34.6-114.2-68.5-114.5c-23.1,0.2-46,5.5-58.6,41.6
		c1.9-0.2,3.8-0.4,5.8-0.4C338.5,165,358.2,183,358.2,205.2z"/>
</g>
</svg>
