<svg version="1.1" id="Calque_1" xmlns="http://www.w3.org/2000/svg" xmlns:xlink="http://www.w3.org/1999/xlink" x="0px" y="0px"
	 viewBox="0 0 453.5 453.5" style="enable-background:new 0 0 453.5 453.5;" xml:space="preserve">
<path class="st0" d="M123.8,328.4H22.5c-2.8,0-5,2.2-5,5v91.9c0,2.8,2.2,5,5,5h101.3c2.8,0,5-2.2,5-5v-91.9
	C128.8,330.6,126.5,328.4,123.8,328.4z M73.7,344.2c4.7,0.7,8.5,4.5,9.2,9.2c1.1,7.5-5.2,13.8-12.6,12.7c-4.7-0.7-8.5-4.5-9.2-9.1
	C59.8,349.4,66.2,343,73.7,344.2z M89.4,411.9H54.5v-4.3h5.2v-32.5h-5.2v-4.3h30.6v2.5v1.8v32.5h4.3V411.9z"/>
<g>
	<path class="st0" d="M271.6,231.1c0,3.8,0.4,7.4,1.2,10.9c3.2,13.5,12.7,24,28.5,31.3c17.1,7.9,36.7,9.8,49.1,10.2
		c1.6,0,3.1,0.1,4.4,0.1h11.9h19.1c0.3,3.8,0.2,17.9-12.7,29.4c-0.4,0.4-0.5,1-0.2,1.5c0.2,0.3,0.6,0.5,1,0.5c0.2,0,0.3,0,0.5-0.1
		c0.7-0.3,66.1-30,66.1-80.3c0-20.5-13.9-35.8-40.2-44.1c-20.3-6.4-41.4-6.7-45.4-6.7c-5.6,0-25.4,0.4-44.2,6.1
		c-25,7.5-38.5,21.3-39,40.1C271.6,230.3,271.6,230.7,271.6,231.1z M376.6,228h11.5v11.3h-11.5V228z M362.2,239.3h-10.1v-6.7V228
		h11.5v11.3H362.2z M327.6,237.1V228h11.5v11.3h-2h-9.6L327.6,237.1L327.6,237.1z"/>
</g>
<polygon class="st0" points="429.2,388.7 416.2,401.7 429.2,414.6 442.2,401.7 "/>
<path class="st0" d="M437.1,315.8c-0.8-2.9-7.3,1.2-21.3,13.8c5.6,6.2,8.4,2.6,12.9,1c3.6,6.8,5,37.6-18.4,46.8
	c0.7-31,1-64.1,1-64.1c0-0.9-0.8-1.1-1.4-1c-6.4,0.9-17.9,12.2-26.7,21.7c4.9,8,11,0.8,15.9-1.2c0,1.3-1.2,24.2-0.6,47.5
	c-24.1,1.8-20.3-47.4-18.9-53.7c0.6-5-15.6,6.1-23.6,13.5c2.5,4.6,6.1,3.6,10.5,1.9c-1.6,22.1,13.9,42.2,32,41.7
	c0.6,22.7,3,44.8,9.6,46.3c0.9,0.2,1.6-23,2.1-48.9C453.7,367.8,437.1,315.8,437.1,315.8z"/>
<path class="st0" d="M328.6,49.4c21.3,0,21.3,16.9,42.5,16.9c21.3,0,21.3-16.9,42.5-16.9c13.9,0,18.9,7.7,26.7,12.7v-9.9
	c-7.9-5-12.4-12.2-26.7-12.2c-21.3,0-21.3,16.9-42.5,16.9c-21.3,0-21.3-16.9-42.5-16.9c-21.3,0-21.3,16.9-42.5,16.9
	c-12,0-17.4-5.7-23.6-10.5v9.9c6.2,4.7,11.3,10,23.6,10C307.3,66.3,307.3,49.4,328.6,49.4"/>
<path class="st0" d="M328.6,30.7c21.3,0,21.3,16.9,42.5,16.9c21.3,0,21.3-16.9,42.5-16.9c13.9,0,18.9,7.7,26.7,12.7v-9.9
	c-7.9-5-12.4-12.2-26.7-12.2c-21.3,0-21.3,16.9-42.5,16.9c-21.3,0-21.3-16.9-42.5-16.9c-21.3,0-21.3,16.9-42.5,16.9
	c-12,0-17.4-5.7-23.6-10.5v9.9c6.2,4.7,11.3,10,23.6,10C307.3,47.6,307.3,30.7,328.6,30.7"/>
<path class="st0" d="M328.6,68.1c21.3,0,21.3,16.9,42.5,16.9c21.3,0,21.3-16.9,42.5-16.9c13.9,0,18.9,7.7,26.7,12.7v-9.9
	c-7.9-5-12.4-12.2-26.7-12.2c-21.3,0-21.3,16.9-42.5,16.9c-21.3,0-21.3-16.9-42.5-16.9c-21.3,0-21.3,16.9-42.5,16.9
	c-12,0-17.4-5.7-23.6-10.5v9.9c6.2,4.7,11.3,10,23.6,10C307.3,85,307.3,68.1,328.6,68.1"/>
<polygon class="st0" points="50.9,113.2 69.3,113.2 69.3,34.8 100.7,34.8 100.7,20.6 19.5,20.6 19.5,34.8 50.9,34.8 "/>
<path class="st0" d="M147.4,95.5c23.8,0,35.8-10.7,35.8-32V20.3h-18.9v44.3c0,11.4-5.6,17.2-16.9,17.2c-11.2,0-16.9-5.7-16.9-17.2
	V20.3h-18.9v43.3C111.6,84.9,123.6,95.5,147.4,95.5"/>
<path class="st0" d="M218.1,46c0-8.1,4.1-12.2,12.2-12.2h13.3V20.3h-17.4c-8.4,0-15,2.4-19.8,7.2c-4.8,4.8-7.2,11.1-7.2,19.1v47.5
	h18.9L218.1,46L218.1,46z"/>
<g>
	<polygon class="st0" points="305,94.1 312,94.1 319,94.1 319,100.1 319,106 312,106 305,106 305,100.1 	"/>
	<g>
		<path class="st0" d="M171.8,186.4v-51.4c0-15.7-9.5-23.6-28.4-23.6c-19.2,0-28.8,8.2-28.8,24.5v8.9c0,7.5,2.3,13.3,6.8,17.6
			c4.5,4.3,11.5,6.4,20.9,6.4c5.9,0,11.1-1.1,15.4-3.4v20.9H171.8z M153.9,155.5c-2.5,2.2-5.9,3.3-10.2,3.3c-5.1,0-8.8-1.2-11.2-3.5
			c-2.4-2.3-3.6-5.9-3.6-10.7v-9c0-4.7,1.3-8.2,3.8-10.5c2.6-2.3,6.1-3.5,10.7-3.5c4.2,0,7.7,1.2,10.3,3.5c2.6,2.3,4,5.8,4,10.5
			v10.8C157.6,150.2,156.4,153.3,153.9,155.5"/>
		<path class="st0" d="M195.3,145.7v-33.2h-14.2v32.4c0,16,8.9,23.9,26.8,23.9c17.9,0,26.8-8,26.8-23.9v-32.4h-14.2v33.2
			c0,8.6-4.2,12.9-12.6,12.9C199.5,158.6,195.3,154.3,195.3,145.7"/>
		<path class="st0" d="M241.1,135.7v8c0,16.8,9.4,25.2,28.2,25.2c18.7,0,28.1-8.3,28.1-24.9v-8.2c0-7.8-2.4-13.8-7.2-18
			s-11.8-6.3-20.9-6.3c-9.2,0-16.1,2.1-21,6.3C243.6,122,241.1,127.9,241.1,135.7 M255.5,134.7c0-4.5,1.3-7.9,3.8-10
			c2.5-2.1,5.9-3.2,10-3.2c9.2,0,13.7,4.4,13.7,13.2v11c0,8.6-4.6,13-13.7,13c-4.2,0-7.5-1-10-3.1c-2.5-2.1-3.8-5.4-3.8-9.8
			L255.5,134.7L255.5,134.7z"/>
		<polygon class="st0" points="305,112.5 312,112.5 319,112.5 319,140.2 319,167.8 312,167.8 305,167.8 305,140.2 		"/>
		<path class="st0" d="M351.7,158.6c-7.1,0-12.9-2-17.2-6l-8.8,7.9c6.4,5.6,15,8.5,25.8,8.5c8.2,0,14.7-1.6,19.4-4.7
			c4.8-3.1,7.1-7.5,7.1-13.1c0-8.9-6-14.1-17.9-15.7l-11.3-1.5c-4.4-0.6-6.6-2.7-6.6-6.4c0-1.9,0.9-3.4,2.7-4.4
			c1.8-1.1,4.4-1.6,7.6-1.6c5.2,0,9.9,1.6,14.2,4.7l8.5-7.4c-5.8-4.9-13.4-7.4-23-7.4c-7.5,0-13.4,1.5-17.7,4.4
			c-4.4,2.9-6.5,7-6.5,12.1c0,4.8,1.6,8.5,4.9,11.3c3.3,2.7,7.6,4.4,12.8,5.1l11.1,1.3c4.6,0.5,6.9,2.6,6.9,6.3
			C363.8,156.3,359.7,158.6,351.7,158.6"/>
		<path class="st0" d="M439,144.3v-4.8c0-8.8-2.5-15.7-7.4-20.6c-4.9-4.9-12.1-7.4-21.5-7.4c-8.9,0-16,2.5-21.1,7.5
			c-5.2,5-7.7,11.7-7.7,20.2v2.6c0,8.7,2.8,15.4,8.3,20.1c5.5,4.7,12.9,7,22.1,7c10.8,0,19.5-3,26-9l-9-7.7
			c-4.8,4.2-10.4,6.3-16.8,6.3c-4.8,0-8.7-1.2-11.7-3.6c-3-2.4-4.6-5.8-4.6-10.2v-0.4L439,144.3L439,144.3z M400,125.1
			c2.7-2.5,6.1-3.8,10.2-3.8c4.2,0,7.7,1.2,10.3,3.6c2.6,2.4,4,5.8,4.2,10.3h-29C395.8,131,397.2,127.6,400,125.1"/>
	</g>
</g>
<g>
	<path class="st0" d="M194.8,308.7c0-0.7,0-1.4-0.1-2.1c0-1.1-0.1-2.3-0.1-3.3c0-0.8-0.1-1.5-0.1-2.2c0-1-0.1-1.9-0.1-2.9
		c0-0.7-0.1-1.4-0.2-2.1c-0.1-0.9-0.1-1.8-0.2-2.7c-0.1-0.7-0.1-1.4-0.2-2c-0.1-0.8-0.2-1.7-0.2-2.4c-0.1-0.7-0.2-1.3-0.2-2
		c-0.1-0.7-0.2-1.5-0.3-2.2c-0.1-0.6-0.2-1.2-0.3-1.8c-0.1-0.7-0.2-1.4-0.3-2.1c-0.1-0.6-0.2-1.2-0.3-1.7c-0.1-0.6-0.2-1.3-0.4-1.9
		c-0.1-0.6-0.2-1.1-0.4-1.6c-0.1-0.6-0.3-1.2-0.4-1.8c-0.1-0.5-0.3-1-0.4-1.5c-0.1-0.5-0.3-1.1-0.4-1.6c-0.1-0.5-0.3-1-0.5-1.4
		c-0.2-0.5-0.3-1-0.5-1.5c-0.2-0.5-0.3-0.9-0.5-1.3c-0.2-0.5-0.3-0.9-0.5-1.4c-0.2-0.4-0.3-0.8-0.5-1.2c-0.2-0.4-0.4-0.8-0.5-1.2
		c-0.2-0.4-0.4-0.7-0.6-1.1c-0.2-0.4-0.4-0.8-0.6-1.1c-0.2-0.4-0.4-0.7-0.6-1c-0.2-0.3-0.4-0.7-0.6-1c-0.2-0.3-0.4-0.6-0.6-0.9
		c-0.2-0.3-0.4-0.6-0.6-0.9c-0.2-0.3-0.4-0.6-0.6-0.8c-0.2-0.3-0.4-0.6-0.7-0.8c-0.2-0.3-0.4-0.5-0.7-0.8c-0.2-0.3-0.5-0.5-0.7-0.7
		c-0.2-0.2-0.5-0.5-0.7-0.7c-0.2-0.2-0.5-0.5-0.7-0.7c-0.2-0.2-0.5-0.4-0.7-0.6c-0.2-0.2-0.5-0.4-0.7-0.6c-0.2-0.2-0.5-0.4-0.7-0.5
		c-0.3-0.2-0.5-0.3-0.8-0.5c-0.2-0.2-0.5-0.3-0.7-0.5c-0.3-0.2-0.5-0.3-0.8-0.4c-0.3-0.1-0.5-0.3-0.8-0.4c-0.3-0.1-0.5-0.3-0.8-0.4
		c-0.3-0.1-0.5-0.2-0.8-0.3c-0.3-0.1-0.5-0.2-0.8-0.3c-0.3-0.1-0.5-0.2-0.8-0.3c-0.3-0.1-0.5-0.2-0.8-0.3c-0.3-0.1-0.5-0.2-0.8-0.2
		c-0.3-0.1-0.6-0.1-0.8-0.2c-0.3-0.1-0.5-0.1-0.8-0.2c-0.3-0.1-0.6-0.1-0.8-0.2c-0.3-0.1-0.6-0.1-0.8-0.1c-0.3,0-0.6-0.1-0.9-0.1
		c-0.3,0-0.6-0.1-0.8-0.1c-0.3,0-0.6-0.1-0.9-0.1c-0.3,0-0.6,0-0.8-0.1c-0.3,0-0.6,0-0.9-0.1c-0.3,0-0.6,0-0.8,0c-0.3,0-0.6,0-0.9,0
		c-0.3,0-0.6,0-0.8,0c-0.1,0-0.2,0-0.3,0c-0.1,0-0.1,0-0.1,0c-0.1,0-0.1,0-0.1,0c-0.1,0-0.2,0-0.3,0c-0.3,0-0.6,0-0.8,0
		c-0.3,0-0.6,0-0.9,0c-0.3,0-0.6,0-0.8,0c-0.3,0-0.6,0-0.9,0.1c-0.3,0-0.6,0-0.8,0.1c-0.3,0-0.6,0.1-0.9,0.1c-0.3,0-0.6,0.1-0.8,0.1
		c-0.3,0-0.6,0.1-0.9,0.1c-0.3,0-0.6,0.1-0.8,0.1c-0.3,0.1-0.6,0.1-0.8,0.2c-0.3,0.1-0.5,0.1-0.8,0.2c-0.3,0.1-0.6,0.1-0.8,0.2
		c-0.3,0.1-0.5,0.1-0.8,0.2c-0.3,0.1-0.5,0.2-0.8,0.3c-0.3,0.1-0.5,0.2-0.8,0.3c-0.3,0.1-0.5,0.2-0.8,0.3c-0.3,0.1-0.5,0.2-0.8,0.3
		c-0.3,0.1-0.5,0.2-0.8,0.4c-0.3,0.1-0.5,0.3-0.8,0.4c-0.3,0.1-0.5,0.3-0.8,0.4c-0.3,0.1-0.5,0.3-0.8,0.5c-0.3,0.2-0.5,0.3-0.8,0.5
		c-0.2,0.2-0.5,0.3-0.7,0.5c-0.2,0.2-0.5,0.4-0.7,0.6c-0.2,0.2-0.5,0.4-0.7,0.6c-0.2,0.2-0.5,0.4-0.7,0.7c-0.2,0.2-0.5,0.4-0.7,0.7
		c-0.2,0.2-0.5,0.5-0.7,0.7c-0.2,0.2-0.4,0.5-0.7,0.8c-0.1,0.1-0.1,0.1-0.2,0.2c0,0,0,0,0,0c7.2,6.3,11.7,15.6,11.7,25.9
		c0,14.7-9.2,27.2-22.2,32.2c-0.7,0.3-1.4,0.5-2.1,0.8c-0.8,0.2-1.6,0.4-2.4,0.6h2.4h2.1h70C194.8,312.5,194.8,310.6,194.8,308.7z"
		/>
	<path class="st0" d="M158,245.4c0.3,0,0.5,0,0.8,0c0.3,0,0.5,0,0.8,0H158z"/>
	<path class="st0" d="M149.7,239.5c2.5,1,5.3,1.6,8.2,1.6c3.1,0,6.1-0.6,8.7-1.8c7.8-3.4,13.3-11.1,13.3-20.2c0-12.2-9.9-22-22-22
		c-12.2,0-22,9.9-22,22C135.9,228.4,141.6,236.3,149.7,239.5z"/>
	<path class="st0" d="M69.7,211.1c0.4,0,0.8,0,1.2,0c0.4,0,0.8,0,1.2,0H69.7z"/>
	<path class="st0" d="M78,280.9c0-19,15.5-34.5,34.5-34.5c1.5,0,3.1,0.1,4.5,0.3c-9.9-30.9-27.9-35.4-46.1-35.6
		C43.8,211.3,17,221.3,17,314.4h87.6C89.3,310.8,78,297.2,78,280.9z"/>
	<circle class="st0" cx="69.7" cy="171.8" r="32.9"/>
	<path class="st0" d="M124.8,305.9c9.2-4.5,15.6-14,15.6-25c0-8-3.4-15.2-8.8-20.3c0,0,0,0,0,0c-0.8-0.7-1.6-1.4-2.5-2.1
		c-0.9-0.7-1.8-1.3-2.8-1.9c-2.2-1.3-4.6-2.2-7.2-2.8c-2.1-0.5-4.3-0.8-6.6-0.8c-15.4,0-27.9,12.5-27.9,27.9s12.5,27.9,27.9,27.9
		c1.3,0,2.5-0.1,3.7-0.3c1.1-0.2,2.2-0.4,3.3-0.7c1.1-0.3,2.3-0.7,3.3-1.1C123.5,306.5,124.2,306.2,124.8,305.9z M121.1,286.4H118
		v11c0,1.5-0.6,2.8-1.5,3.8c-1,1.1-2.4,1.7-4,1.7c-3,0-5.5-2.5-5.5-5.5v-11H96c-3,0-5.5-2.5-5.5-5.5s2.5-5.5,5.5-5.5h11v-11
		c0-3,2.5-5.5,5.5-5.5c3,0,5.5,2.5,5.5,5.5v11h1.6h3.3h0.1h3.3h0h2.6c3,0,5.5,2.5,5.5,5.5s-2.5,5.5-5.5,5.5h-4.6h0h-0.5H121.1z"/>
</g>
<g>
	<path class="st0" d="M356.7,422.7l-14.6-32.6l14.4-29.9c1.2-2.4-0.6-5.2-3.3-5.2h-21.5V348c0-2.7-2.6-4.5-5.1-3.6
		c-14.8,5.5-41.8,12.3-75.9,12.3h-1.7c-34.4,0-61.6-6.9-76.3-12.5c-2.5-0.9-5.2,0.9-5.2,3.6v7.1h-22.2c-2.7,0-4.4,2.8-3.3,5.2
		l14.4,29.9L142,422.7c-1.1,2.4,0.7,5.1,3.3,5.1h22.4v-13.2c18.8,5.6,46.5,11.4,81.4,11.4h1.7c34.2,0,61.5-5.5,80.3-11.1v12.9h22.4
		C356,427.9,357.8,425.1,356.7,422.7z M188.4,396.6l-1.7-13.6l-7.7,11.4l-4.2-1l-1.8-22.2l5.4,1.3l0.9,13.4l7.6-11.4l3.9,0.9
		l1.5,13.6l7-11.5l5,1.2l-11.6,19L188.4,396.6z M218.9,388.2l-0.6,4.3l-10-1.3l-0.6,4.4l11.1,1.4l-0.6,4.3l-16.2-2.1l2.7-21
		l16.2,2.1l-0.6,4.3l-11.1-1.4l-0.5,3.7L218.9,388.2z M236.8,402.5l-15.9-1l1.3-21.1l5.2,0.3l-1,16.8l10.7,0.7L236.8,402.5z
		 M243.3,393.2c0,3.9,1.4,5.6,4.7,5.6c1.6,0,3.7-0.5,4.2-3.1l0.1-0.5l5.6,0l-0.1,0.7c-0.6,4.4-4.3,7-9.9,7h0c-6.4,0-10-3.4-10-9.3
		l0-2.7c0-6.1,3.7-9.8,10-9.8c5.5,0,9.2,2.6,9.9,6.9l0.1,0.8l-5.6,0l-0.1-0.5c-0.5-2-1.9-3-4.2-3c-1.6,0-2.7,0.5-3.5,1.4
		c-0.8,1-1.2,2.4-1.2,4.4L243.3,393.2z M269.7,402.1c-0.4,0-0.9,0-1.3,0c-5.7,0-9.1-3.1-9.5-8.9l-0.2-2.9c-0.2-2.8,0.4-5.1,1.9-6.9
		c1.6-1.9,4.1-3,7.4-3.3c0.4,0,0.9,0,1.3,0c5.6,0,9.1,3.2,9.5,8.7l0.2,2.9C279.5,397.8,276.1,401.6,269.7,402.1z M301.3,397.5
		l-2.1-12.5l-2.9,13.3l-3.7,0.6l-6.9-11.2l2,12l-4.8,0.8l-3.6-20.9l6.5-1.1l7.6,12.3l3-14.1l6.5-1.1l3.6,20.9L301.3,397.5z
		 M310.6,395.5l-5.6-20.4l15.8-4.3l1.2,4.2l-10.8,3l1,3.6l9.8-2.7l1.2,4.2l-9.8,2.7l1.2,4.2l10.8-3l1.2,4.2L310.6,395.5z"/>
	<path class="st0" d="M273.4,389.7c-0.3-3.6-1.8-5.4-4.5-5.4c-0.2,0-0.3,0-0.5,0c-1.6,0.1-2.8,0.7-3.4,1.8c-0.6,1-0.9,2.4-0.8,4.3
		l0.2,2.1c0.3,3.7,1.7,5.5,4.5,5.5h0c0.2,0,0.4,0,0.6,0c3.2-0.2,4.5-2.1,4.2-6.1L273.4,389.7z"/>
</g>
<g>
	<path class="st0" d="M351.5,292c-1.4,0-3.1,0-4.8-0.1c-1.2,0-2.4-0.1-3.6-0.1c-22.1,26.6-77.3,13-77.9,12.8c-2.2-0.6-4.5,0.1-6,1.8
		c-1.5,1.6-2.1,4-1.4,6.1c0.1,0.2,1.3,4,4.1,10.8c-29.3-14.6-41.7-32.3-41.1-57.6c0.3-11.1,5-19.7,14.5-26.2
		c7.4-5.1,16.7-8.3,26.3-10c0.6-4.7,2.1-9.1,4.3-13.2c-13.6,1.8-27.1,5.9-37.6,13.1c-12.6,8.7-19.5,21.2-19.8,36.1
		c-0.4,16.4,3.8,30.1,13,42c10.2,13.3,26.6,24.3,50.1,33.7c0.7,0.3,1.5,0.4,2.3,0.4c1.7,0,3.3-0.7,4.5-1.9c1.7-1.8,2.2-4.5,1.1-6.8
		c-2.6-5.6-4.6-10.4-6.1-14.1c6.4,1,15,1.9,24.3,1.8c26.2-0.2,45.8-8.2,56.7-23.2c1.3-1.8,2.4-3.6,3.4-5.4L351.5,292L351.5,292z"/>
</g>
</svg>
