<?xml version="1.0" encoding="UTF-8"?>
<svg viewBox="0 0 118 49" version="1.1" xmlns="http://www.w3.org/2000/svg" xmlns:xlink="http://www.w3.org/1999/xlink">
    <!-- Generator: Sketch 52.3 (67297) - http://www.bohemiancoding.com/sketch -->
    <title>Shape</title>
    <desc>Created with Sketch.</desc>
    <defs>
        <filter x="-6.4%" y="-12.1%" width="112.7%" height="134.0%" filterUnits="objectBoundingBox" id="filter-2">
            <feOffset dx="0" dy="2" in="SourceAlpha" result="shadowOffsetOuter1"></feOffset>
            <feGaussianBlur stdDeviation="2" in="shadowOffsetOuter1" result="shadowBlurOuter1"></feGaussianBlur>
            <feColorMatrix values="0 0 0 0 0   0 0 0 0 0   0 0 0 0 0  0 0 0 0.5 0" type="matrix" in="shadowBlurOuter1"></feColorMatrix>
        </filter>
    </defs>
    <g id="Page-1" stroke="none" stroke-width="1" fill="none" fill-rule="evenodd">
        <g id="05-Contact-details/Mobile/01-Contact-details-sun-" transform="translate(-122.000000, -2844.000000)" fill-rule="nonzero">
            <g id="Rassurance" transform="translate(117.000000, 2708.000000)">
                <g id="Great-members" transform="translate(5.000000, 137.000000)">
                    <g id="Great-Member" transform="translate(4.000000, 0.000000)">
                        <g id="Shape">
                            <use  xlink:href="#GreatMembersWithShadow"></use>
                            <path fill="black" fill-opacity="1" filter="url(#filter-2)" d="M97.184743,29.1659936 L97.184743,31.4507375 L94.8883897,31.4507375 C93.4984917,31.4507375 92.8337578,32.1121107 92.8337578,33.4949819 L92.8337578,41.611835 L89.6309493,41.611835 L89.6309493,33.6152316 C89.570519,32.4127349 89.9935314,31.270363 90.8395563,30.4286152 C91.7460116,29.5868675 92.9546185,29.1659936 94.2236559,29.2261185 L97.184743,29.1659936 Z M105.886713,34.3367297 C108.606079,34.6974787 109.935547,35.8999754 109.935547,37.8840951 C109.935547,39.0865918 109.331243,40.2289637 108.303927,40.8302121 C106.97446,41.611835 105.403271,41.972584 103.892512,41.8523344 C101.475298,41.8523344 99.4810963,41.1909611 98.0307679,39.9283396 L100.024969,38.1245944 C101.112716,39.0865918 102.502614,39.5675905 103.952942,39.5074657 C105.765853,39.5074657 106.672308,39.026467 106.672308,38.0043448 C106.672308,37.162597 106.128435,36.6815983 105.101119,36.5613487 L102.563044,36.2607245 C101.475298,36.1404748 100.508412,35.7797258 99.6623874,35.1183526 C98.9372232,34.5171042 98.5142107,33.5551068 98.5142107,32.5931094 C98.5142107,31.5108623 99.0580839,30.4286152 100.024969,29.8874917 C101.233576,29.1659936 102.623475,28.8653695 104.073803,28.9254943 C105.947144,28.8052446 107.820485,29.406493 109.270813,30.6089897 L107.337042,32.2924852 C106.430587,31.5709871 105.28241,31.2102381 104.134233,31.2102381 C103.52993,31.2102381 102.925626,31.3304878 102.442183,31.5709871 C102.079601,31.7513617 101.83788,32.1722355 101.83788,32.5931094 C101.83788,33.4348571 102.321323,33.9158558 103.348639,34.0361055 L105.886713,34.3367297 Z M30.6509278,8.96404823 L38.4464429,8.96404823 L38.4464429,11.0684175 C38.5068733,12.9322875 37.7817091,14.7360326 36.391811,16.0587791 C35.001913,17.2612758 33.0681418,17.8625242 30.4092064,17.8625242 C27.931562,17.8625242 26.0582212,17.201151 24.6683231,15.9385294 C23.2784251,14.6759078 22.6136912,12.8721627 22.6136912,10.527294 L22.6136912,8.06217567 C22.6136912,7.1603031 22.7345519,6.25843054 23.0367037,5.41668281 C23.3388554,4.57493509 23.7618679,3.7933122 24.305741,3.07181415 C24.9704749,2.29019126 25.7560694,1.68894289 26.722955,1.32819386 C27.8711317,0.90732 29.140169,0.66682065 30.4092064,0.726945487 C32.6451293,0.726945487 34.3976095,1.20794419 35.7270772,2.10981675 C36.9961145,2.95156448 37.8421394,4.21418606 38.2047215,5.65718216 L34.5789005,5.65718216 C33.974597,3.91356188 32.584699,3.07181415 30.4092064,3.07181415 C29.2005994,3.01168931 27.9919924,3.49268801 27.2063978,4.45468541 C26.4208033,5.53693249 26.0582212,6.85967892 26.1186515,8.18242534 L26.1186515,10.1064201 C26.1186515,13.6537856 27.5689799,15.4575307 30.5300671,15.4575307 C33.3098632,15.4575307 34.7601916,14.1347843 34.8810523,11.4291666 L30.6509278,11.4291666 L30.6509278,8.96404823 Z M48.29659,5.11605863 L48.29659,7.40080245 L46.060667,7.40080245 C44.670769,7.40080245 44.0060351,8.06217567 44.0060351,9.44504693 L44.0060351,17.5619 L40.8032266,17.5619 L40.8032266,9.5652966 C40.7427962,8.36279985 41.1658087,7.22042794 42.0118336,6.37868022 C42.9182888,5.53693249 44.1268958,5.11605863 45.3959332,5.17618346 L48.29659,5.11605863 Z M52.2849931,10.2266698 L58.8719012,10.2266698 C58.8719012,9.32479725 58.5697494,8.48304953 57.9050156,7.88180115 C57.2402818,7.34067762 56.3942569,7.04005343 55.548232,7.10017827 C54.7022071,7.10017827 53.8561822,7.40080245 53.2518787,7.94192599 C52.6475752,8.54317437 52.2849931,9.32479725 52.2849931,10.2266698 Z M59.7783564,14.0746594 L61.8329883,15.8182797 C60.3826599,17.1410261 58.3884584,17.8625242 55.9108141,17.8625242 C54.0979036,17.9827739 52.3454234,17.3815255 50.895095,16.2992784 C49.6260577,15.1569065 48.9008935,13.473411 49.0217542,11.7899156 L49.0217542,11.1886672 C48.9613238,9.50517177 49.5656273,7.82167632 50.7742343,6.61917957 C52.103702,5.41668281 53.7957518,4.81543444 55.6086623,4.93568411 C57.7237245,4.93568411 59.355344,5.47680765 60.5035206,6.61917957 C61.5912669,7.76155148 62.1955704,9.26467242 62.1955704,11.2487921 L62.1955704,12.3310391 L52.2849931,12.3310391 L52.2849931,12.4512888 C52.2245627,13.3531614 52.6475752,14.1949091 53.312309,14.7360326 C54.0979036,15.2771562 55.0043588,15.5777804 55.9712444,15.5176555 C57.3611424,15.4575307 58.7510405,14.976532 59.7783564,14.0746594 Z M72.7708817,15.0366568 L72.7708817,12.0905398 L69.5680731,12.0905398 C68.9033393,12.0304149 68.2386054,12.2107895 67.6343019,12.5715385 C67.2112895,12.8721627 66.9695681,13.2930365 66.9695681,13.8341601 C66.9695681,14.3752836 67.2717198,14.9164071 67.815593,15.1569065 C68.6011875,15.5176555 69.4472124,15.69803 70.2932373,15.6379052 C71.1392622,15.6379052 72.0457175,15.4575307 72.7708817,15.0366568 Z M65.57967,16.6600274 C64.5523541,16.0587791 63.8876202,15.0366568 63.8876202,13.8341601 C63.8876202,12.751913 64.4314934,11.7297908 65.2775183,11.1285424 C66.2444039,10.4070443 67.5738716,10.1064201 69.3867821,10.1064201 L72.7708817,10.1064201 L72.7708817,9.0842979 C72.7708817,8.54317437 72.5895906,8.00205083 72.1061478,7.70142664 C71.3809836,7.28055278 70.5953891,7.1603031 69.8097945,7.22042794 C68.6011875,7.1603031 67.3925805,7.58117697 66.4256949,8.36279985 L64.2502023,6.73942924 C65.8213914,5.41668281 67.815593,4.7553096 69.8702249,4.87555928 C71.8644264,4.87555928 73.3751852,5.2363083 74.4025011,6.01793119 C75.4298171,6.79955408 75.9736902,8.00205083 75.9132599,9.26467242 L75.9132599,16.1790287 C75.9132599,16.4195281 75.7319688,16.6600274 75.4902474,16.7802771 C73.858628,17.5017752 72.1061478,17.8625242 70.2932373,17.8625242 C68.2990358,17.8023993 66.7278467,17.4416503 65.57967,16.6600274 Z M82.5605984,13.5335359 C82.500168,14.0145346 82.6814591,14.4354084 82.9836108,14.7961575 C83.3461929,15.0967817 83.8296357,15.2170313 84.3130785,15.2170313 L86.6094318,15.2170313 L86.6094318,17.5619 L83.4066233,17.5619 C80.6872575,17.5619 79.3577898,16.1790287 79.3577898,13.473411 L79.3577898,7.40080245 L77.5448793,7.40080245 L77.5448793,5.11605863 L79.3577898,5.11605863 L79.3577898,0.967444838 L82.5605984,0.967444838 L82.5605984,5.11605863 L86.6094318,5.11605863 L86.6094318,7.40080245 L82.5605984,7.40080245 L82.5605984,13.5335359 Z M14.3951637,25.0173798 L19.0483006,25.0173798 L19.0483006,41.611835 L15.7850617,41.611835 L15.7850617,31.0899884 C15.7850617,30.0077414 15.7850617,29.2261185 15.8454921,28.8052446 L15.7850617,28.8052446 L10.5276213,41.6719598 L8.11040727,41.6719598 L2.97382753,28.9254943 C3.03425788,29.8273669 3.09468823,30.5488649 3.09468823,31.2102381 L3.09468823,41.6719598 L0.0731707317,41.6719598 L0.0731707317,25.0173798 L4.66587733,25.0173798 L9.56073567,37.1024722 L14.3951637,25.0173798 Z M24.8496142,34.5155481 L31.4365223,34.5155481 C31.4365223,33.6136756 31.1343706,32.7719278 30.4696367,32.1706795 C29.8049029,31.6295559 28.958878,31.3289317 28.1128531,31.3890566 C27.2668282,31.3890566 26.4208033,31.6896808 25.8164998,32.2308043 C25.1517659,32.8320527 24.8496142,33.6136756 24.8496142,34.5155481 Z M32.1012562,38.0644696 L34.1558881,39.8080899 C32.7055597,41.1308363 30.7113581,41.8523344 28.2337138,41.8523344 C26.4208033,41.972584 24.6683231,41.3713357 23.2179947,40.2890886 C21.9489574,39.1467167 21.2237932,37.4632212 21.3446539,35.7797258 L21.3446539,35.1784774 C21.2842236,33.4949819 21.8885271,31.8114865 23.097134,30.6089897 C24.4266017,29.4666178 26.1186515,28.8653695 27.8711317,28.9254943 C29.9861939,28.9254943 31.6178134,29.4666178 32.76599,30.6089897 C33.9141667,31.8716113 34.5184702,33.5551068 34.3976095,35.2386022 L34.3976095,36.3208493 L24.6078928,36.3208493 L24.6078928,36.441099 C24.5474624,37.3429715 24.9704749,38.1847193 25.6352087,38.7258428 C26.4208033,39.2669663 27.3272585,39.5675905 28.2941441,39.5074657 C29.6840422,39.5675905 31.0135099,39.026467 32.1012562,38.0644696 Z M77.8496142,34.5155481 L84.4365223,34.5155481 C84.4365223,33.6136756 84.1343706,32.7719278 83.4696367,32.1706795 C82.8049029,31.6295559 81.958878,31.3289317 81.1128531,31.3890566 C80.2668282,31.3890566 79.4208033,31.6896808 78.8164998,32.2308043 C78.1517659,32.8320527 77.8496142,33.6136756 77.8496142,34.5155481 Z M85.1012562,38.0644696 L87.1558881,39.8080899 C85.7055597,41.1308363 83.7113581,41.8523344 81.2337138,41.8523344 C79.4208033,41.972584 77.6683231,41.3713357 76.2179947,40.2890886 C74.9489574,39.1467167 74.2237932,37.4632212 74.3446539,35.7797258 L74.3446539,35.1784774 C74.2842236,33.4949819 74.8885271,31.8114865 76.097134,30.6089897 C77.4266017,29.4666178 79.1186515,28.8653695 80.8711317,28.9254943 C82.9861939,28.9254943 84.6178134,29.4666178 85.76599,30.6089897 C86.9141667,31.8716113 87.5184702,33.5551068 87.3976095,35.2386022 L87.3976095,36.3208493 L77.6078928,36.3208493 L77.6078928,36.441099 C77.5474624,37.3429715 77.9704749,38.1847193 78.6352087,38.7258428 C79.4208033,39.2669663 80.3272585,39.5675905 81.2941441,39.5074657 C82.6840422,39.5675905 84.0135099,39.026467 85.1012562,38.0644696 Z M51.6202592,28.9254943 C53.1914483,28.8653695 54.7022071,29.2862433 55.9712444,30.2482407 C57.0589907,31.0899884 57.6028638,32.4728597 57.6028638,34.3367297 L57.6028638,41.6719598 L54.339625,41.6719598 L54.339625,34.3367297 C54.4000553,33.4949819 54.0979036,32.6532342 53.4936001,31.991861 C52.9497269,31.5108623 52.2245627,31.2102381 51.4389682,31.270363 C50.713804,31.270363 49.9886398,31.5108623 49.3843363,31.9317362 C48.8404631,32.4127349 48.5383114,33.1342329 48.5383114,33.9158558 L48.5383114,41.611835 L45.2750725,41.611835 L45.2750725,34.1563552 C45.3355028,33.3146074 45.0333511,32.5329845 44.4290476,31.991861 C43.2204406,31.0298636 41.5283908,31.0298636 40.2593534,31.9317362 C39.7154803,32.4728597 39.4133285,33.1943578 39.4737589,33.9759806 L39.4737589,41.611835 L36.2709503,41.611835 L36.2709503,29.1659936 L38.9903161,29.1659936 L39.1716071,30.127991 C40.1989231,29.2862433 41.5283908,28.8653695 42.8578585,28.9254943 C44.9124904,28.9254943 46.3628188,29.5267427 47.269274,30.7292394 C48.4174507,29.5868675 49.9886398,28.9254943 51.6202592,28.9254943 Z M64.1369308,34.1562311 L64.1369308,36.5612246 C64.0765004,37.4630972 64.3786522,38.3048449 65.043386,38.9060933 C65.7081199,39.4472168 66.5541448,39.747841 67.4001697,39.6877162 C68.2461946,39.747841 69.1526498,39.4472168 69.8173837,38.9060933 C70.4216872,38.3048449 70.7842693,37.4029724 70.6634086,36.5612246 L70.6634086,34.577105 C70.7238389,33.6752324 70.4216872,32.8334847 69.8173837,32.1721115 C69.0922195,31.5708631 68.1857642,31.3303638 67.279309,31.3904886 C66.4332841,31.3303638 65.6476895,31.5708631 64.9829557,32.1119867 C64.3786522,32.6531102 64.0765004,33.3746083 64.1369308,34.1562311 Z M73.1334638,34.3367297 L73.1334638,36.3208493 C73.1334638,39.9884644 70.9579712,41.8523344 66.606986,41.8523344 C62.2560008,41.8523344 60.0805082,40.1087141 60.1409385,36.5012238 L60.1409385,25.0173798 L63.3437471,25.0173798 L63.3437471,29.7071172 C64.4314934,29.1659936 65.6401004,28.9254943 66.8487074,28.9254943 C68.9637696,28.9254943 70.5953891,29.406493 71.622705,30.3684904 C72.7104513,31.3906126 73.2543245,32.8336087 73.1334638,34.3367297 Z M5.74655952,9.17944156 L7.55947002,7.37569643 L9.31195017,5.63207614 L11.1248607,7.37569643 L12.8773408,9.17944156 L11.1248607,10.9831867 L9.31195017,12.726807 L7.55947002,10.9831867 L5.74655952,9.17944156 Z M95.295906,9.17944156 L97.1088165,7.37569643 L98.8612966,5.63207614 L100.674207,7.37569643 L102.426687,9.17944156 L100.674207,10.9831867 L98.8612966,12.726807 L97.1088165,10.9831867 L95.295906,9.17944156 Z"></path>
                            <path fill="#FFFFFF" d="M97.184743,29.1659936 L97.184743,31.4507375 L94.8883897,31.4507375 C93.4984917,31.4507375 92.8337578,32.1121107 92.8337578,33.4949819 L92.8337578,41.611835 L89.6309493,41.611835 L89.6309493,33.6152316 C89.570519,32.4127349 89.9935314,31.270363 90.8395563,30.4286152 C91.7460116,29.5868675 92.9546185,29.1659936 94.2236559,29.2261185 L97.184743,29.1659936 Z M105.886713,34.3367297 C108.606079,34.6974787 109.935547,35.8999754 109.935547,37.8840951 C109.935547,39.0865918 109.331243,40.2289637 108.303927,40.8302121 C106.97446,41.611835 105.403271,41.972584 103.892512,41.8523344 C101.475298,41.8523344 99.4810963,41.1909611 98.0307679,39.9283396 L100.024969,38.1245944 C101.112716,39.0865918 102.502614,39.5675905 103.952942,39.5074657 C105.765853,39.5074657 106.672308,39.026467 106.672308,38.0043448 C106.672308,37.162597 106.128435,36.6815983 105.101119,36.5613487 L102.563044,36.2607245 C101.475298,36.1404748 100.508412,35.7797258 99.6623874,35.1183526 C98.9372232,34.5171042 98.5142107,33.5551068 98.5142107,32.5931094 C98.5142107,31.5108623 99.0580839,30.4286152 100.024969,29.8874917 C101.233576,29.1659936 102.623475,28.8653695 104.073803,28.9254943 C105.947144,28.8052446 107.820485,29.406493 109.270813,30.6089897 L107.337042,32.2924852 C106.430587,31.5709871 105.28241,31.2102381 104.134233,31.2102381 C103.52993,31.2102381 102.925626,31.3304878 102.442183,31.5709871 C102.079601,31.7513617 101.83788,32.1722355 101.83788,32.5931094 C101.83788,33.4348571 102.321323,33.9158558 103.348639,34.0361055 L105.886713,34.3367297 Z M30.6509278,8.96404823 L38.4464429,8.96404823 L38.4464429,11.0684175 C38.5068733,12.9322875 37.7817091,14.7360326 36.391811,16.0587791 C35.001913,17.2612758 33.0681418,17.8625242 30.4092064,17.8625242 C27.931562,17.8625242 26.0582212,17.201151 24.6683231,15.9385294 C23.2784251,14.6759078 22.6136912,12.8721627 22.6136912,10.527294 L22.6136912,8.06217567 C22.6136912,7.1603031 22.7345519,6.25843054 23.0367037,5.41668281 C23.3388554,4.57493509 23.7618679,3.7933122 24.305741,3.07181415 C24.9704749,2.29019126 25.7560694,1.68894289 26.722955,1.32819386 C27.8711317,0.90732 29.140169,0.66682065 30.4092064,0.726945487 C32.6451293,0.726945487 34.3976095,1.20794419 35.7270772,2.10981675 C36.9961145,2.95156448 37.8421394,4.21418606 38.2047215,5.65718216 L34.5789005,5.65718216 C33.974597,3.91356188 32.584699,3.07181415 30.4092064,3.07181415 C29.2005994,3.01168931 27.9919924,3.49268801 27.2063978,4.45468541 C26.4208033,5.53693249 26.0582212,6.85967892 26.1186515,8.18242534 L26.1186515,10.1064201 C26.1186515,13.6537856 27.5689799,15.4575307 30.5300671,15.4575307 C33.3098632,15.4575307 34.7601916,14.1347843 34.8810523,11.4291666 L30.6509278,11.4291666 L30.6509278,8.96404823 Z M48.29659,5.11605863 L48.29659,7.40080245 L46.060667,7.40080245 C44.670769,7.40080245 44.0060351,8.06217567 44.0060351,9.44504693 L44.0060351,17.5619 L40.8032266,17.5619 L40.8032266,9.5652966 C40.7427962,8.36279985 41.1658087,7.22042794 42.0118336,6.37868022 C42.9182888,5.53693249 44.1268958,5.11605863 45.3959332,5.17618346 L48.29659,5.11605863 Z M52.2849931,10.2266698 L58.8719012,10.2266698 C58.8719012,9.32479725 58.5697494,8.48304953 57.9050156,7.88180115 C57.2402818,7.34067762 56.3942569,7.04005343 55.548232,7.10017827 C54.7022071,7.10017827 53.8561822,7.40080245 53.2518787,7.94192599 C52.6475752,8.54317437 52.2849931,9.32479725 52.2849931,10.2266698 Z M59.7783564,14.0746594 L61.8329883,15.8182797 C60.3826599,17.1410261 58.3884584,17.8625242 55.9108141,17.8625242 C54.0979036,17.9827739 52.3454234,17.3815255 50.895095,16.2992784 C49.6260577,15.1569065 48.9008935,13.473411 49.0217542,11.7899156 L49.0217542,11.1886672 C48.9613238,9.50517177 49.5656273,7.82167632 50.7742343,6.61917957 C52.103702,5.41668281 53.7957518,4.81543444 55.6086623,4.93568411 C57.7237245,4.93568411 59.355344,5.47680765 60.5035206,6.61917957 C61.5912669,7.76155148 62.1955704,9.26467242 62.1955704,11.2487921 L62.1955704,12.3310391 L52.2849931,12.3310391 L52.2849931,12.4512888 C52.2245627,13.3531614 52.6475752,14.1949091 53.312309,14.7360326 C54.0979036,15.2771562 55.0043588,15.5777804 55.9712444,15.5176555 C57.3611424,15.4575307 58.7510405,14.976532 59.7783564,14.0746594 Z M72.7708817,15.0366568 L72.7708817,12.0905398 L69.5680731,12.0905398 C68.9033393,12.0304149 68.2386054,12.2107895 67.6343019,12.5715385 C67.2112895,12.8721627 66.9695681,13.2930365 66.9695681,13.8341601 C66.9695681,14.3752836 67.2717198,14.9164071 67.815593,15.1569065 C68.6011875,15.5176555 69.4472124,15.69803 70.2932373,15.6379052 C71.1392622,15.6379052 72.0457175,15.4575307 72.7708817,15.0366568 Z M65.57967,16.6600274 C64.5523541,16.0587791 63.8876202,15.0366568 63.8876202,13.8341601 C63.8876202,12.751913 64.4314934,11.7297908 65.2775183,11.1285424 C66.2444039,10.4070443 67.5738716,10.1064201 69.3867821,10.1064201 L72.7708817,10.1064201 L72.7708817,9.0842979 C72.7708817,8.54317437 72.5895906,8.00205083 72.1061478,7.70142664 C71.3809836,7.28055278 70.5953891,7.1603031 69.8097945,7.22042794 C68.6011875,7.1603031 67.3925805,7.58117697 66.4256949,8.36279985 L64.2502023,6.73942924 C65.8213914,5.41668281 67.815593,4.7553096 69.8702249,4.87555928 C71.8644264,4.87555928 73.3751852,5.2363083 74.4025011,6.01793119 C75.4298171,6.79955408 75.9736902,8.00205083 75.9132599,9.26467242 L75.9132599,16.1790287 C75.9132599,16.4195281 75.7319688,16.6600274 75.4902474,16.7802771 C73.858628,17.5017752 72.1061478,17.8625242 70.2932373,17.8625242 C68.2990358,17.8023993 66.7278467,17.4416503 65.57967,16.6600274 Z M82.5605984,13.5335359 C82.500168,14.0145346 82.6814591,14.4354084 82.9836108,14.7961575 C83.3461929,15.0967817 83.8296357,15.2170313 84.3130785,15.2170313 L86.6094318,15.2170313 L86.6094318,17.5619 L83.4066233,17.5619 C80.6872575,17.5619 79.3577898,16.1790287 79.3577898,13.473411 L79.3577898,7.40080245 L77.5448793,7.40080245 L77.5448793,5.11605863 L79.3577898,5.11605863 L79.3577898,0.967444838 L82.5605984,0.967444838 L82.5605984,5.11605863 L86.6094318,5.11605863 L86.6094318,7.40080245 L82.5605984,7.40080245 L82.5605984,13.5335359 Z M14.3951637,25.0173798 L19.0483006,25.0173798 L19.0483006,41.611835 L15.7850617,41.611835 L15.7850617,31.0899884 C15.7850617,30.0077414 15.7850617,29.2261185 15.8454921,28.8052446 L15.7850617,28.8052446 L10.5276213,41.6719598 L8.11040727,41.6719598 L2.97382753,28.9254943 C3.03425788,29.8273669 3.09468823,30.5488649 3.09468823,31.2102381 L3.09468823,41.6719598 L0.0731707317,41.6719598 L0.0731707317,25.0173798 L4.66587733,25.0173798 L9.56073567,37.1024722 L14.3951637,25.0173798 Z M24.8496142,34.5155481 L31.4365223,34.5155481 C31.4365223,33.6136756 31.1343706,32.7719278 30.4696367,32.1706795 C29.8049029,31.6295559 28.958878,31.3289317 28.1128531,31.3890566 C27.2668282,31.3890566 26.4208033,31.6896808 25.8164998,32.2308043 C25.1517659,32.8320527 24.8496142,33.6136756 24.8496142,34.5155481 Z M32.1012562,38.0644696 L34.1558881,39.8080899 C32.7055597,41.1308363 30.7113581,41.8523344 28.2337138,41.8523344 C26.4208033,41.972584 24.6683231,41.3713357 23.2179947,40.2890886 C21.9489574,39.1467167 21.2237932,37.4632212 21.3446539,35.7797258 L21.3446539,35.1784774 C21.2842236,33.4949819 21.8885271,31.8114865 23.097134,30.6089897 C24.4266017,29.4666178 26.1186515,28.8653695 27.8711317,28.9254943 C29.9861939,28.9254943 31.6178134,29.4666178 32.76599,30.6089897 C33.9141667,31.8716113 34.5184702,33.5551068 34.3976095,35.2386022 L34.3976095,36.3208493 L24.6078928,36.3208493 L24.6078928,36.441099 C24.5474624,37.3429715 24.9704749,38.1847193 25.6352087,38.7258428 C26.4208033,39.2669663 27.3272585,39.5675905 28.2941441,39.5074657 C29.6840422,39.5675905 31.0135099,39.026467 32.1012562,38.0644696 Z M77.8496142,34.5155481 L84.4365223,34.5155481 C84.4365223,33.6136756 84.1343706,32.7719278 83.4696367,32.1706795 C82.8049029,31.6295559 81.958878,31.3289317 81.1128531,31.3890566 C80.2668282,31.3890566 79.4208033,31.6896808 78.8164998,32.2308043 C78.1517659,32.8320527 77.8496142,33.6136756 77.8496142,34.5155481 Z M85.1012562,38.0644696 L87.1558881,39.8080899 C85.7055597,41.1308363 83.7113581,41.8523344 81.2337138,41.8523344 C79.4208033,41.972584 77.6683231,41.3713357 76.2179947,40.2890886 C74.9489574,39.1467167 74.2237932,37.4632212 74.3446539,35.7797258 L74.3446539,35.1784774 C74.2842236,33.4949819 74.8885271,31.8114865 76.097134,30.6089897 C77.4266017,29.4666178 79.1186515,28.8653695 80.8711317,28.9254943 C82.9861939,28.9254943 84.6178134,29.4666178 85.76599,30.6089897 C86.9141667,31.8716113 87.5184702,33.5551068 87.3976095,35.2386022 L87.3976095,36.3208493 L77.6078928,36.3208493 L77.6078928,36.441099 C77.5474624,37.3429715 77.9704749,38.1847193 78.6352087,38.7258428 C79.4208033,39.2669663 80.3272585,39.5675905 81.2941441,39.5074657 C82.6840422,39.5675905 84.0135099,39.026467 85.1012562,38.0644696 Z M51.6202592,28.9254943 C53.1914483,28.8653695 54.7022071,29.2862433 55.9712444,30.2482407 C57.0589907,31.0899884 57.6028638,32.4728597 57.6028638,34.3367297 L57.6028638,41.6719598 L54.339625,41.6719598 L54.339625,34.3367297 C54.4000553,33.4949819 54.0979036,32.6532342 53.4936001,31.991861 C52.9497269,31.5108623 52.2245627,31.2102381 51.4389682,31.270363 C50.713804,31.270363 49.9886398,31.5108623 49.3843363,31.9317362 C48.8404631,32.4127349 48.5383114,33.1342329 48.5383114,33.9158558 L48.5383114,41.611835 L45.2750725,41.611835 L45.2750725,34.1563552 C45.3355028,33.3146074 45.0333511,32.5329845 44.4290476,31.991861 C43.2204406,31.0298636 41.5283908,31.0298636 40.2593534,31.9317362 C39.7154803,32.4728597 39.4133285,33.1943578 39.4737589,33.9759806 L39.4737589,41.611835 L36.2709503,41.611835 L36.2709503,29.1659936 L38.9903161,29.1659936 L39.1716071,30.127991 C40.1989231,29.2862433 41.5283908,28.8653695 42.8578585,28.9254943 C44.9124904,28.9254943 46.3628188,29.5267427 47.269274,30.7292394 C48.4174507,29.5868675 49.9886398,28.9254943 51.6202592,28.9254943 Z M64.1369308,34.1562311 L64.1369308,36.5612246 C64.0765004,37.4630972 64.3786522,38.3048449 65.043386,38.9060933 C65.7081199,39.4472168 66.5541448,39.747841 67.4001697,39.6877162 C68.2461946,39.747841 69.1526498,39.4472168 69.8173837,38.9060933 C70.4216872,38.3048449 70.7842693,37.4029724 70.6634086,36.5612246 L70.6634086,34.577105 C70.7238389,33.6752324 70.4216872,32.8334847 69.8173837,32.1721115 C69.0922195,31.5708631 68.1857642,31.3303638 67.279309,31.3904886 C66.4332841,31.3303638 65.6476895,31.5708631 64.9829557,32.1119867 C64.3786522,32.6531102 64.0765004,33.3746083 64.1369308,34.1562311 Z M73.1334638,34.3367297 L73.1334638,36.3208493 C73.1334638,39.9884644 70.9579712,41.8523344 66.606986,41.8523344 C62.2560008,41.8523344 60.0805082,40.1087141 60.1409385,36.5012238 L60.1409385,25.0173798 L63.3437471,25.0173798 L63.3437471,29.7071172 C64.4314934,29.1659936 65.6401004,28.9254943 66.8487074,28.9254943 C68.9637696,28.9254943 70.5953891,29.406493 71.622705,30.3684904 C72.7104513,31.3906126 73.2543245,32.8336087 73.1334638,34.3367297 Z M5.74655952,9.17944156 L7.55947002,7.37569643 L9.31195017,5.63207614 L11.1248607,7.37569643 L12.8773408,9.17944156 L11.1248607,10.9831867 L9.31195017,12.726807 L7.55947002,10.9831867 L5.74655952,9.17944156 Z M95.295906,9.17944156 L97.1088165,7.37569643 L98.8612966,5.63207614 L100.674207,7.37569643 L102.426687,9.17944156 L100.674207,10.9831867 L98.8612966,12.726807 L97.1088165,10.9831867 L95.295906,9.17944156 Z"></path>
                        </g>
                    </g>
                </g>
            </g>
        </g>
    </g>
</svg>
