<svg xmlns="http://www.w3.org/2000/svg" viewBox="0 0 500 278.1"><g><path d="M302 98.1s-9.1-3.8-17-12.5c-6.6 2.9-24.1 4.3-36.4 6.3 1.6 4.1 31.7 22.7 35.6 23.6 3.8-1.3 13.7-10.8 17.8-17.4zM374.3 81.3c-3.6 1.3-18.6 19.9-20.1 23.5-4.4 10.6-5.6 18-12.8 19.6-10.5 2.3-41.3 15.3-45 25.7-9.6 26.4-4.9 51.5.9 68.1 2.2-.1 4.4-.1 6.5-.2 25.5-7.1 51-4.1 63.4-3 17.5 1.5 21.6-6 38.7-11 11-3.2 25.4-1.5 37 2.1 0-47.7-16.2-91.6-43.5-126.5-2.1 1.4-15.9 2.5-25.1 1.7zM293.7 140.3c8-2.1 24.6-12.1 29.9-15.9 0 0-5.8-16.7-6.6-24.2-2.3.6-6.4.7-9.2-.3-5.7 7.3-19.8 19.6-22.1 21.2-.3 3.3 3.5 16.2 8 19.2z"/><path d="M497.8 250.7c-12.7-2.1-139.8-4-157.5-3.7-58 1.1-116.7.6-108.8-4.8 5.6-3.9 27.3-7.2 47.3-13.7-47.6.5-106 .9-126.3 1.2-5.2.1-5.4-3.1-.3-3.4 19.3-1.3 73.1-5.6 133.2-7.7-7.9-27.3 3.1-63.8 2.5-72.5-4.3-6.5-8.7-20.7-8.9-24.8-9.2-4.4-41.2-25.8-46.1-29.4-21.3 1.7-40.8-4.4-42.8-18.4-6.4-46.4 110-54.8 126.9-29 10.4-3.9 38.9.5 42.2 11.6 14.7-1.4 19 1.8 22.7 3.8C344.7 22.9 293.4 0 236.7 0c-113.8 0-206 92.2-206 206 0 4.6.1 8.8.4 13.3 10.6.1 41.3.1 50.5-2.2 5.5-1.4 11.5-3.8 16.5-6.2 5-2.5 9.6-5.6 13-9.8 3.4-4.1 5.4-9.3 5.6-14.5.3-5.2-1.6-10.2-5-13.8-1.7-1.9-3.8-3.4-6.1-4.3-2.2-.9-4.8-1.1-7.3-.9-2.5.3-4.8 1.1-6.7 2.5-.9.7-1.7 1.5-2.4 2.5-.6.9-1.1 2-1.4 3.1-.6 2.2-.5 4.7.2 6.9s2.1 4 4 5.2c1 .6 1.9 1 2.9 1.1 1 .1 2 0 3-.3 2-.6 3.8-2.1 4.6-3.9.2-.4.8-1.9.4-3.4-.2-1.5-1.2-2.9-1.3-3-.5-.6.3-1.3 1-1.3.6 0 1.3.4 2.1 1.2.7.8 1.4 2.1 1.6 3.5.3 1.4.1 2.8-.3 3.9s-.8 1.8-1 2.1c-1.7 2.5-4.4 4.3-7.4 4.9-1.5.3-3.1.3-4.6-.1-1.5-.4-2.9-1.1-4.2-2-2.5-1.8-4.3-4.6-5.2-7.5-.8-3-.8-6.2.1-9.2.9-3.1 2.9-5.8 5.5-7.6 2.6-1.9 5.7-2.9 8.8-3.2 3.1-.3 6.3-.1 9.4 1.2 3 1.2 5.6 3.1 7.8 5.4 2.2 2.4 3.9 5.3 4.9 8.4 1 3.1 1.3 6.4 1.1 9.6-.5 6.3-3.2 12.5-7.5 17.2-4.2 4.7-9.6 8-15.1 10.5-.5.2-1.1.4-1.6.7 9.2-1.7 18.2-4.2 26.8-7.6 10.9-4.4 21.1-10.6 29.1-19 7.9-8.4 13.2-19.2 14.4-30.5.7-5.8.2-11.6-1.7-16.9-1.9-5.3-5.2-10.1-9.6-13.6-4.3-3.5-9.7-6-15.1-6.5-5.5-.4-11.3.8-16 3.5-2.4 1.4-4.5 3.1-6.1 5.2-.8 1.1-1.5 2.2-2.1 3.4-.6 1.2-1 2.4-1.3 3.7-1.2 5.2-.2 11 2.6 15.5 1.4 2.3 3.2 4.2 5.4 5.7 2.1 1.4 4.8 2.4 7.2 2.6 4.9.5 10.1-2.2 12.9-6.4.3-.5 1.1-1.6 1.6-3.2s.7-3.5.4-5.4c-.6-3.8-3.5-6.7-3.7-6.9-1.3-1.3-.8-2.1.3-1.9.8.1 2.3 1.1 3.8 2.8 1.5 1.7 2.8 4.4 3 7.3.3 2.9-.5 5.9-1.6 7.9-1.1 2.1-2.3 3.4-2.8 3.9-2.1 2.3-4.8 4-7.8 5s-6.2 1.1-9.3.3c-3-.8-5.9-2.2-8.3-4.3-2.4-2-4.3-4.6-5.7-7.4-2.7-5.6-3.4-12.3-1.5-18.4 1.9-6.1 6.6-11.1 12.3-14 2.8-1.4 5.8-2.4 8.9-3 3.1-.6 6.3-.8 9.5-.4 6.3.9 12.2 3.7 17.1 7.8 4.9 4.1 8.6 9.5 10.7 15.5 2.1 6 2.7 12.5 2 18.7-.7 6.4-2.6 12.6-5.4 18.3-2.8 5.7-6.7 10.9-11.1 15.5-8.9 9.1-20.1 15.4-31.8 19.8s-23.9 6.9-36.2 8.6c-15.8 2.2-64.7 2-77.1 2.7-15.1.8-14 4.4.8 5.6C87 236 154 261.1 249.7 273.8c132.4 17.1 269.6-19.6 248.1-23.1z"/><path d="M328.4 122.8c3.3-.8 9.6-2.8 13.9-5.3 4.3-2.6 5.1-15.3 5.1-15.3s-13.1-6.2-17.3-10.5c-1.6 2.3-4.8 5.3-7.2 6.7-.9 4.6 3.1 22.8 5.5 24.4z"/></g></svg>
