<svg id="Calque_1" data-name="Calque 1" xmlns="http://www.w3.org/2000/svg" viewBox="0 0 100 100"><defs></defs><title>View of the Grounds</title><path class="cls-1" d="M20.32,76.94a1.5,1.5,0,0,0-1.5-1.5H4.23a1.5,1.5,0,0,0,0,3H18.82A1.5,1.5,0,0,0,20.32,76.94Z"/><path class="cls-1" d="M95.77,75.44H72.45a1.5,1.5,0,1,0,0,3H95.77a1.5,1.5,0,0,0,0-3Z"/><path class="cls-1" d="M64.4,78.44a1.5,1.5,0,0,0,0-3H53L55.35,73a1.5,1.5,0,0,0-2.17-2.08l-4.33,4.53H43.44L45.79,73a1.51,1.51,0,0,0,0-2.12,1.49,1.49,0,0,0-2.12,0l-4.34,4.53h-5.4L36.23,73a1.5,1.5,0,1,0-2.16-2.08l-4.34,4.53H26.87a1.5,1.5,0,0,0,0,3Z"/><path class="cls-1" d="M28.63,92.71H24.34V65.4a18.58,18.58,0,1,0-3,0V92.71H17.06a1.5,1.5,0,1,0,0,3H28.63a1.5,1.5,0,0,0,0-3ZM7.26,46.9A15.59,15.59,0,1,1,24.34,62.4V56.72h0V52.23l7.58-7.06A1.5,1.5,0,1,0,29.87,43l-5.53,5.15V38.9a1.5,1.5,0,0,0-3,0v15L15.5,50.07a1.5,1.5,0,0,0-1.66,2.51l7.5,5V62.4A15.59,15.59,0,0,1,7.26,46.9Z"/><path class="cls-1" d="M74.73,84.16H69.92V65.75a21.38,21.38,0,0,0,14.9-35.21,16.28,16.28,0,0,0-5-11.36,11.92,11.92,0,0,0,.8-4.27,12.21,12.21,0,0,0-24.41,0,11.71,11.71,0,0,0,.8,4.27,16.27,16.27,0,0,0-5,11.35A21.39,21.39,0,0,0,66.92,65.75V84.16h-4.8a1.5,1.5,0,0,0,0,3H74.73a1.5,1.5,0,0,0,0-3ZM49.92,44.33a18.49,18.49,0,0,1,4.74-12.26,1.47,1.47,0,0,0,.38-1,1.1,1.1,0,0,0,0-.25,13.35,13.35,0,0,1,4.77-10.09,1.51,1.51,0,0,0,.38-1.8,9.21,9.21,0,1,1,16.51,0,1.51,1.51,0,0,0,.38,1.8,13.34,13.34,0,0,1,4.76,10.08,2.28,2.28,0,0,0,0,.26,1.52,1.52,0,0,0,.38,1A18.4,18.4,0,0,1,69.92,62.75V48.4l8.3-7.73a1.5,1.5,0,0,0-2-2.19L69.92,44.3V30.65a1.5,1.5,0,1,0-3,0V50.58l-6.58-4.35a1.5,1.5,0,0,0-1.65,2.5l8.23,5.45v8.57A18.51,18.51,0,0,1,49.92,44.33Z"/><path class="cls-1" d="M47.22,92.76c-1.87,0-3.39,1.13-3.39,2.52s1.52,2.51,3.39,2.51,3.4-1.12,3.4-2.51S49.1,92.76,47.22,92.76Z"/><path class="cls-1" d="M59.49,91.32c-1.08,0-2,.64-2,1.44s.88,1.45,2,1.45,1.95-.65,1.95-1.45S60.56,91.32,59.49,91.32Z"/></svg>
