<svg version="1.1" id="图层_1" xmlns="http://www.w3.org/2000/svg" xmlns:xlink="http://www.w3.org/1999/xlink" x="0px" y="0px"
	 viewBox="0 0 500 368" style="enable-background:new 0 0 500 368;" xml:space="preserve">
<g>
	<g>
		<path class="st0" d="M491.6,151.9c-3.6-9.6-24.5-43-44-77.7C434.3,50.3,424.5,35,416.3,24c-2.1-3.8-5-7.2-8.4-10.3
			c-9.2-8.2-22.6-13.4-37.7-13.4c-16.5,0-28.5,3.4-38.8,14.4c-9.8,11.5-16.9,29.5-21.2,37.7c-2.2,4.2-6,11.5-10.5,20.3
			c-1.2,2.6-2.8,6.1-5,10.6c-2.3,4.8-5.2,10.6-8.5,17.2c-3.4,6.6-7.2,14.1-11.9,22c-4.7,7.9-10,16.4-16.5,24.8
			c-6.5,8.3-14.1,16.8-23.3,24.1c-9.2,7.3-20,13.4-31.8,17.3c-3,0.9-5.9,1.8-9,2.5l-1.1,0.3l-1.2,0.2l-2.2,0.4
			c-1.6,0.2-3.3,0.5-4.9,0.6c-6.4,0.6-12.9,0.1-19.2-1.3c-12.6-2.8-24.2-9.7-32.8-18.9c-8.8-9.2-14.5-20.9-16.4-32.8
			c-1-6.2-0.2-12.5,1.8-18.1c2.1-5.6,5.3-10.6,9.4-14.5c4-4,8.7-6.9,13.6-8.8c5-1.8,9.8-3,15-2.4c5,0.5,9.5,2.5,13,5.4
			c3.4,2.9,5.9,6.6,7,10.4c0.6,1.9,1,3.7,0.9,5.7c-0.1,1.9-0.5,3.7-1.3,5.3c-1.5,3.2-3.9,5.4-6.4,6.6c-2.5,1.2-5,1.8-7.2,1.4
			c-2.2-0.4-3.7-1.5-4.7-2.6c-1.9-2.3-1.8-4-1.9-3.9c0.1-0.1,0.1,1.7,2.2,3.7c1,0.9,2.6,1.8,4.5,2c1.9,0.2,4.2-0.5,6.4-1.8
			c2.2-1.3,4.1-3.4,5.2-6.2c1.1-2.8,1-6-0.4-9.2c-2.4-6.4-9.3-12-17.7-12.4c-3.9-0.3-8.6,1-12.7,2.8c-4.2,1.8-8.2,4.6-11.5,8.1
			c-6.7,7-10.4,17.4-8.6,27.6c1.9,10.5,7.3,20.8,15.1,29c7.8,8.2,18.2,14.1,29.3,16.7c5.6,1.3,11.3,1.8,17,1.3
			c1.4-0.1,2.8-0.3,4.1-0.5l2.2-0.4l1-0.2l1.1-0.3c2.8-0.6,5.6-1.4,8.4-2.3c11-3.5,21.2-8.9,30-15.6c8.9-6.7,16.4-14.5,23-22.4
			c3.1-3.8,5.4-5.9,8.1-12.7c-16.3-25.1-19.8-42.1-39.1-63.1C204.3,48.5,171.2,18,124.1,33C67.2,51,18.6,187.1,0.5,244h13.3v24.9
			c6.5,0,14.3,0,23.3,0c0,0,4.8,0,13.4,0V244h49.7v24.9c11.2,0,23.5,0,36.7,0V244h49.7v24.9c12,0,24.3,0,36.7,0V244h49.7v24.9
			c7.7,0,15.5,0,23,0v-76.4V143v-0.7V135v-10.6V99.3h35.8v25.2h23.8V99.3h35.7v25.2h23.8V99.3h35.6v43.1v0.7v49.6v69.3
			c8.1-3.6,15.4-8.4,21.9-14.3c3.7-3.4,7.1-7,10.1-11c15.4-23.5,16.3-33.6,16.6-47.5C499.3,183.4,498,168.8,491.6,151.9z"/>
		<path class="st0" d="M317.8,172.9c-5.7,0-10.3,4.5-10.6,10.1c0,0.2,0,0.3,0,0.5c0,0.2,0,0.4,0,0.5v8.6v12.1h21.2v-12.1V184
			c0-0.2,0-0.3,0-0.5c0-0.2,0-0.3,0-0.5C328.1,177.4,323.5,172.9,317.8,172.9z"/>
		<path class="st0" d="M428.3,172.9c-5.7,0-10.3,4.5-10.6,10.1c0,0.2,0,0.3,0,0.5c0,0.2,0,0.4,0,0.5v8.6v12.1h21.2v-12.1V184
			c0-0.2,0-0.3,0-0.5c0-0.2,0-0.3,0-0.5C438.7,177.4,434,172.9,428.3,172.9z"/>
		<path class="st0" d="M373,160.8c-10.1,0-18.3,8-18.6,18v1v12.7v21.2h37.1v-21.2v-12.7c0-0.2,0-0.4,0-0.5c0-0.2,0-0.4,0-0.5
			C391.3,168.8,383.1,160.8,373,160.8z"/>
	</g>
	<g>
		<path class="st0" d="M123.9,343.3v5.7c0,11.1-7.2,18.6-21.7,18.6c-13.2,0-21.1-7.2-21.1-20v-6.7c0-9.7,5.1-20.1,21-20.1
			c12.7,0,19.3,6.1,21.1,13.5h-9.9c-1.4-4.3-5.1-7.1-11.3-7.1c-7.8,0-11.6,5.9-11.6,14.1v5.3c0,10.3,4.7,14.6,11.9,14.6
			c8,0,11.5-4.3,11.9-10.9h-11.5v-6.9H123.9z"/>
		<path class="st0" d="M150.8,339.1h-6.1c-3.8,0-5.6,1.8-5.6,5.6v22.1h-8.7V345c0-7.2,4.6-12.1,12.4-12.1h8V339.1z"/>
		<path class="st0" d="M187.4,362c-4.2,3.8-9.3,5.5-16,5.5c-11.1,0-18.7-5.7-18.7-16.7v-1.6c0-10.3,6.7-17,17.7-17
			c11.8,0,17.7,6.6,17.7,17.2v3h-26.7v0.3c0,5.5,4.3,8.4,10,8.4c4.5,0,7.6-1.4,10.3-3.8L187.4,362z M179.4,346.8
			c-0.2-5.6-3.8-8.5-8.9-8.5c-4.9,0-8.7,3.2-8.9,8.5H179.4z"/>
		<path class="st0" d="M207.9,346.5h9.2v-2.8c0-2.8-1.5-5.1-8-5.1c-3.5,0-7.1,1.1-9.1,3.2l-5.9-4.4c3.2-2.8,8.3-5.1,15.2-5.1
			c10.9,0,16.4,4.3,16.4,11.9v18.9c0,0.9-0.5,1.2-1.2,1.6c-3.4,1.6-8.5,2.9-14,2.9c-11.6,0-17.5-5.2-17.5-10.9
			C192.9,351,197.7,346.5,207.9,346.5z M217.1,351.9h-8.7c-4.8,0-7,2-7,4.7c0,3,2.9,4.9,8.9,4.9c2.6,0,5.2-0.6,6.8-1.6V351.9z"/>
		<path class="st0" d="M248.3,360.4h6.1v6.4h-8.6c-7,0-11-3.4-11-11.2v-16.5h-4.9v-6.2h4.9v-11.3h8.7v11.3h10.9v6.2h-10.9v16.8
			C243.5,359,244.8,360.4,248.3,360.4z"/>
		<path class="st0" d="M342.7,321.5L328,366.8h-8l-12-32.1l-12,32.1h-7.8l-14.6-45.3h9.4l10,32.3l11.9-32.3h7.1l11.6,32.3l10.5-32.3
			H342.7z"/>
		<path class="st0" d="M358.2,346.5h9.2v-2.8c0-2.8-1.5-5.1-8-5.1c-3.5,0-7.1,1.1-9.1,3.2l-5.9-4.4c3.2-2.8,8.3-5.1,15.2-5.1
			c10.9,0,16.4,4.3,16.4,11.9v18.9c0,0.9-0.5,1.2-1.2,1.6c-3.4,1.6-8.5,2.9-14,2.9c-11.6,0-17.5-5.2-17.5-10.9
			C343.2,351,348,346.5,358.2,346.5z M367.4,351.9h-8.7c-4.8,0-7,2-7,4.7c0,3,2.9,4.9,8.9,4.9c2.6,0,5.2-0.6,6.8-1.6V351.9z"/>
		<path class="st0" d="M395.1,360.4h4.6v6.4h-6.4c-7.4,0-10.9-3.1-10.9-10.6v-34.7h8.6v35C390.9,359.6,392.4,360.4,395.1,360.4z"/>
		<path class="st0" d="M416.5,360.4h4.6v6.4h-6.4c-7.4,0-10.9-3.1-10.9-10.6v-34.7h8.6v35C412.4,359.6,413.9,360.4,416.5,360.4z"/>
	</g>
</g>
</svg>
