<svg xmlns="http://www.w3.org/2000/svg" viewBox="0 0 500 432.5"><g><path d="M143.7 248.8c3-3 8.5-8.3 11.9-11.5-4.4-4.3-13.4-18.4-17.3-24.3 1.8 5.6 5.4 35.8 5.4 35.8z"/><path d="M300.5 432.5h83.3c46.1 0 55.6-24.1 56.8-33.3 3.6-28.4-31.8-42.7-60.7-26.7 11.4-23.6 40.7-28.8 57.2-28.2 30.8 1.2 47.7 18.3 63 37.9-30.5-221.9-94.7-280.5-152.6-240-8.7 6.1-20.2 12.3-36.1-20.1C292.2 83 236 51.7 212 189.5c1.4-.9 2.8-1.8 4.3-2.6 13.3-7.4 28.7-11.9 44.3-10.5 7.8.7 15.4 2.9 22.4 6.6 6.9 3.8 13.1 8.8 18.1 14.9 5 6.2 8.5 13.5 10.3 21.3 1.8 7.8 1.8 16 0 23.8-1.9 8-5.7 15.5-10.9 21.8-5.2 6.3-12.3 11.5-20.2 14.1-7.9 2.7-16.6 3-24.7.9-8.1-2.1-15.6-6.5-21.3-12.8-5.7-6.4-9.1-14.9-9.2-23.4-.1-8.6 2.9-17.2 8.6-23.7 2.7-3.3 6.3-6.2 10.3-8 4-1.9 8.5-2.8 12.9-2.7 8.9.1 17.6 4.3 23 11.6.6.9 2.1 2.9 3.1 5.9 1.1 2.9 1.8 6.7 1.5 10.3-.2 3.6-1.4 7.1-2.7 9.5-1.3 2.4-2.5 3.8-2.7 4.1-2.1 2.5-3.2 1.5-2.8 0 .2-1.1 1.5-3.2 2.5-6.1 1-2.8 1.6-6.5 1.3-10-.3-3.5-1.6-6.8-3-9.2-1.5-2.4-3-3.8-3.6-4.3-5.3-5-12.8-7.4-19.9-6.4-3.6.4-7 1.7-10 3.6-3 1.9-5.5 4.5-7.6 7.5-4.1 5.9-5.9 13.2-5.2 20.3.7 7.1 4 13.8 9.1 18.7 5.1 5 11.6 8.4 18.6 9.8 6.9 1.4 14.2.9 20.8-1.6 3.3-1.2 6.4-2.9 9.2-5 2.8-2.1 5.3-4.6 7.5-7.4 4.4-5.5 7.5-12 9.1-18.9 3.4-14-.1-29.4-9.3-40.4-4.6-5.5-10.4-10.2-16.7-13.4-6.4-3.3-13.4-5.2-20.7-5.7-14.5-1-29.1 3.5-41.8 11-3.2 1.9-6.2 3.9-9.3 6.2-3.1 2.2-6.1 4.5-9.1 6.9-6 4.7-45.6 40.5-53.7 49.6-2.1 18.3-14.1 50.4-16.2 84.8-.7 11.5-.6 31.3 14.2 34.2h153.8c48.7 0 56.4-42.2 56.4-42.2h13.9c-.2 73.6-46.9 93.2-66.1 99.9z"/><path d="M112.3 0C58.6 0 29.7 100.3 0 374.7h95.4c.1-.1 5.8-12.3 8-16.5-5-3.9-10.8-9.6-14.7-14.1 1.2-3.1 2.4-4.9 3.7-8.3-1.7-3.4-5.2-13.2-7.4-29.3-6.8 6.9-32 31.3-51.3 50h-7.5l58.1-56.3c-4.5-38.9-5.1-102.5 16.6-132.3-3.2-2.1-11.5-.2-13.9-4.6-.1-.1 6.6-11.4 17.7-20.7-.6-7.9 6.8-17.2 13.8-17.5 4.4-.2 8.3 1.8 10.2 5 11.4-3.2 22.4-3.1 27.8 1.6 0 12.5-11.9 16.8-20.4 22.3-1.4 5.5-1.5 12.3-6.9 13.9 3.9 18.9 31.8 58.9 35.1 61.2 5.5-4.9 15-13.4 16.2-14.4 5.7-4.9 11.2-10 17.2-14.6 4.5-3.5 9.1-7 14-10.2C184.8 20.6 143.7 0 112.3 0z"/></g></svg>
