<svg viewBox="0 0 531 495" version="1.1" xmlns="http://www.w3.org/2000/svg" xmlns:xlink="http://www.w3.org/1999/xlink">
    <title>hairdresser</title>
    <defs></defs>
    <g id="Page-1" stroke-width="1" fill-rule="evenodd">
        <g id="hairdresser" transform="translate(-1.000000, 0.000000)" fill-rule="nonzero">
            <path d="M190.140845,337.323944 C188.732394,337.323944 187.323944,337.323944 185.915493,337.323944 L173.239437,337.323944 L177.464789,326.056338 C178.169014,323.943662 178.873239,322.535211 178.873239,321.126761 C182.394366,311.971831 186.619718,303.521127 190.140845,294.366197 C197.887324,275.352113 207.042254,255.633803 214.084507,236.619718 C224.647887,210.56338 234.507042,171.126761 234.507042,171.126761 L271.830986,3.52112676 L271.126761,3.52112676 L265.492958,0 L264.788732,0 L171.830986,144.366197 C171.830986,144.366197 150.704225,178.873239 139.43662,204.225352 C130.28169,223.239437 122.535211,242.957746 114.788732,261.971831 C111.267606,271.126761 107.042254,279.577465 103.521127,288.732394 C102.816901,290.84507 102.112676,291.549296 100.704225,293.661972 L95.7746479,304.225352 L86.6197183,295.070423 C85.2112676,294.366197 84.5070423,292.957746 83.8028169,292.253521 C64.7887324,275.352113 40.8450704,272.535211 21.1267606,285.915493 C4.22535211,297.183099 -2.81690141,316.901408 3.52112676,336.619718 C8.45070423,354.929577 26.056338,368.309859 46.4788732,371.830986 C67.6056338,374.647887 89.4366197,362.676056 97.1830986,344.366197 C107.746479,318.309859 119.014085,292.253521 129.577465,266.901408 L148.591549,221.126761 L169.014085,229.577465 L174.647887,232.394366 L195.070423,240.84507 L176.056338,286.619718 C165.492958,312.676056 154.225352,338.732394 143.661972,364.084507 C135.915493,383.098592 142.253521,407.042254 159.859155,419.71831 C176.056338,431.690141 197.887324,434.507042 214.788732,426.056338 C233.098592,416.901408 242.253521,398.591549 238.732394,378.169014 C234.507042,354.225352 215.492958,338.732394 190.140845,337.323944 Z M65.4929577,354.929577 C56.3380282,358.450704 46.4788732,358.450704 38.028169,354.929577 C20.4225352,347.183099 11.971831,328.169014 19.0140845,311.267606 C22.5352113,303.521127 28.1690141,297.887324 35.915493,294.366197 C44.3661972,290.84507 54.2253521,290.84507 63.3802817,295.070423 C80.9859155,302.816901 89.4366197,321.830986 83.0985915,338.028169 C79.5774648,345.774648 73.2394366,351.408451 65.4929577,354.929577 Z M189.43662,188.732394 C180.28169,184.507042 175.352113,173.943662 179.577465,164.084507 C183.802817,154.929577 194.366197,150 204.225352,154.225352 C213.380282,158.450704 218.309859,169.014085 214.084507,178.873239 C209.859155,188.732394 199.295775,192.957746 189.43662,188.732394 Z M177.464789,414.084507 C169.014085,410.56338 161.971831,403.521127 158.450704,394.366197 C154.929577,385.915493 155.633803,377.464789 158.450704,370.422535 C165.492958,354.225352 185.915493,347.183099 202.816901,354.225352 C211.971831,357.746479 219.014085,365.492958 222.535211,373.239437 C225.352113,380.985915 226.056338,389.43662 222.535211,397.183099 C214.788732,413.380282 195.070423,421.126761 177.464789,414.084507 Z M520.422535,463.380282 L437.323944,493.661972 C433.098592,495.070423 428.873239,492.957746 427.464789,488.732394 C426.056338,484.507042 428.169014,480.28169 432.394366,478.873239 L497.183099,455.633803 C496.478873,454.929577 495.774648,453.521127 495.774648,452.816901 L492.253521,442.957746 L427.464789,466.197183 C423.239437,467.605634 419.014085,465.492958 417.605634,461.267606 C416.197183,457.042254 418.309859,452.816901 422.535211,451.408451 L487.323944,428.169014 L482.394366,415.492958 L417.605634,438.732394 C413.380282,440.140845 409.15493,438.028169 407.746479,433.802817 C406.338028,429.577465 408.450704,425.352113 412.676056,423.943662 L477.464789,400.704225 L472.535211,388.028169 L407.746479,411.267606 C403.521127,412.676056 399.295775,410.56338 397.887324,406.338028 C396.478873,402.112676 398.591549,397.887324 402.816901,396.478873 L467.605634,373.239437 L462.676056,360.56338 L397.887324,383.802817 C393.661972,385.211268 389.43662,383.098592 388.028169,378.873239 C386.619718,374.647887 388.732394,370.422535 392.957746,369.014085 L457.746479,345.774648 L452.816901,333.098592 L388.028169,356.338028 C383.802817,357.746479 379.577465,355.633803 378.169014,351.408451 C376.760563,347.183099 378.873239,342.957746 383.098592,341.549296 L447.887324,318.309859 L442.957746,305.633803 L378.169014,328.873239 C373.943662,330.28169 369.71831,328.169014 368.309859,323.943662 C366.901408,319.71831 369.014085,315.492958 373.239437,314.084507 L438.732394,290.84507 L433.802817,278.169014 L369.014085,301.408451 C364.788732,302.816901 360.56338,300.704225 359.15493,296.478873 C357.746479,292.253521 359.859155,288.028169 364.084507,286.619718 L428.873239,263.380282 L423.943662,250.704225 L359.15493,273.943662 C354.929577,275.352113 350.704225,273.239437 349.295775,269.014085 C347.887324,264.788732 350,260.56338 354.225352,259.15493 L419.014085,235.915493 L414.084507,223.239437 L349.295775,246.478873 C345.070423,247.887324 340.84507,245.774648 339.43662,241.549296 C338.028169,237.323944 340.140845,233.098592 344.366197,231.690141 L409.15493,208.450704 L404.225352,195.774648 L339.43662,219.014085 C335.211268,220.422535 330.985915,218.309859 329.577465,214.084507 C328.169014,209.859155 330.28169,205.633803 334.507042,204.225352 L400,181.690141 L395.070423,169.014085 L330.28169,192.253521 C326.056338,193.661972 321.830986,191.549296 320.422535,187.323944 C319.014085,183.098592 321.126761,178.873239 325.352113,177.464789 L390.140845,154.225352 L385.211268,141.549296 L320.422535,164.788732 C316.197183,166.197183 311.971831,164.084507 310.56338,159.859155 C309.15493,155.633803 311.267606,151.408451 315.492958,150 L380.28169,126.760563 L374.647887,114.084507 L309.859155,137.323944 C305.633803,138.732394 301.408451,136.619718 300,132.394366 C298.591549,128.169014 300.704225,123.943662 304.929577,122.535211 L369.71831,99.2957746 L366.197183,89.4366197 C366.197183,88.7323944 365.492958,87.3239437 365.492958,86.6197183 L300.704225,109.859155 C296.478873,111.267606 292.253521,109.15493 290.84507,104.929577 C289.43662,100.704225 291.549296,96.4788732 295.774648,95.0704225 L378.873239,65.4929577 C388.028169,62.6760563 397.887324,67.6056338 401.408451,76.7605634 L530.28169,440.140845 C533.802817,449.295775 529.577465,459.859155 520.422535,463.380282 Z" id="Shape"></path>
        </g>
    </g>
</svg>
