<svg viewBox="0 0 500 433" version="1.1" xmlns="http://www.w3.org/2000/svg" xmlns:xlink="http://www.w3.org/1999/xlink">
    <title>hairdryer</title>
    <defs></defs>
    <g id="Page-1" stroke-width="1" fill-rule="evenodd">
        <path d="M499.721776,140.442667 C499.721776,149.310298 499.802584,157.856001 499.880025,165.969217 C500.337939,213.842067 500.048376,237.359011 488.452387,248.655729 C482.910286,254.053701 474.492757,256.781952 467.536511,253.406594 L414.933687,228.006864 C401.906719,221.717902 382.957177,218.108416 362.943659,218.108416 C345.337555,218.108416 328.73482,220.885444 316.202803,225.935474 L221.202568,264.160263 C201.219353,333.007158 247.643711,412.73129 248.12856,413.553993 C250.448431,417.485407 250.43833,422.311063 248.081422,426.22947 C245.731248,430.147877 241.397904,432.554201 236.707657,432.554201 L144.656924,432.554201 C139.397651,432.554201 134.636697,429.530036 132.572719,424.853963 L54.9395299,249.91092 C21.5051037,224.299823 0,184.764562 0,140.442667 C0,63.4077651 64.8924165,0.736019205 144.656924,0.736019205 C173.609857,0.736019205 197.064461,5.33730185 216.364172,14.8130175 L316.202803,54.9498596 C328.73482,59.9966375 345.337555,62.7769178 362.943659,62.7769178 C382.957177,62.7769178 401.906719,59.1641793 414.933687,52.8784695 L467.536511,27.4754872 C474.492757,24.1293954 482.910286,26.8316328 488.452387,32.2263521 C500.048376,43.5263219 500.337939,67.0432661 499.880025,114.916116 C499.802584,123.029332 499.721776,131.575036 499.721776,140.442667 Z M473.580297,166.203346 C473.502855,158.015339 473.41868,149.398096 473.41868,140.442667 C473.41868,131.487237 473.502855,122.866743 473.580297,114.681987 C473.795785,92.2934143 474.055045,65.219012 471.260426,54.0816318 L426.698026,75.5987252 C409.89327,83.7119409 387.253484,88.1766484 362.943659,88.1766484 C341.94024,88.1766484 321.751638,84.7037368 306.081566,78.3920127 L205.34731,37.8584522 C188.710905,29.7354811 169.710858,26.1390015 144.656924,26.1390015 C79.3975029,26.1390015 26.2997284,77.4099722 26.2997284,140.442667 C26.2997284,203.472109 79.3975029,254.746332 144.656924,254.746332 C169.784932,254.746332 188.781612,251.149852 204.424748,243.436607 L204.428115,243.433355 C204.646971,243.326046 204.882662,243.254506 205.108252,243.160205 L306.081566,202.493321 C321.751638,196.181597 341.94024,192.705433 362.943659,192.705433 C387.253484,192.705433 409.89327,197.173392 426.698026,205.286608 L471.260426,226.803702 C474.055045,215.666321 473.795785,188.588667 473.580297,166.203346 Z M170.956989,102.34112 L118.354165,102.34112 C111.091521,102.34112 105.202617,96.6602429 105.202617,89.6396286 C105.202617,82.6222661 111.091521,76.9381375 118.354165,76.9381375 L170.956989,76.9381375 C178.219633,76.9381375 184.105169,82.6222661 184.105169,89.6396286 C184.105169,96.6602429 178.219633,102.34112 170.956989,102.34112 Z M170.956989,203.945245 L118.354165,203.945245 C111.091521,203.945245 105.202617,198.264368 105.202617,191.243754 C105.202617,184.226391 111.091521,178.542263 118.354165,178.542263 L170.956989,178.542263 C178.219633,178.542263 184.105169,184.226391 184.105169,191.243754 C184.105169,198.264368 178.219633,203.945245 170.956989,203.945245 Z M197.256717,153.142207 L92.0510696,153.142207 C84.7917924,153.142207 78.9028889,147.46133 78.9028889,140.443967 C78.9028889,133.423353 84.7917924,127.742476 92.0510696,127.742476 L197.256717,127.742476 C204.519361,127.742476 210.408265,133.423353 210.408265,140.443967 C210.408265,147.46133 204.519361,153.142207 197.256717,153.142207 Z M153.323612,407.15447 L215.53252,407.15447 C202.892758,379.888213 183.549276,327.332785 191.9163,275.008234 C178.290004,278.442124 162.737777,280.149314 144.656924,280.149314 C126.397619,280.149314 108.93293,276.832489 92.8318796,270.842692 L153.323612,407.15447 Z" id="hairdryer"></path>
    </g>
</svg>
