<svg viewBox="0 0 501 461" version="1.1" xmlns="http://www.w3.org/2000/svg" xmlns:xlink="http://www.w3.org/1999/xlink">
    <defs></defs>
    <g id="Page-1" stroke-width="1" fill-rule="evenodd">
        <g id="hammam" transform="translate(0.000000, -0.000000)" fill-rule="nonzero">
            <path d="M36.8440801,52.5959803 C35.2115479,48.6463058 37.089963,44.1210331 41.0396375,42.488501 C44.989312,40.8559689 49.5145847,42.7343839 51.1471168,46.6840584 C53.1092291,51.4311043 60.4832775,65.3117809 59.3519267,63.030825 C62.926577,70.2378027 64.5279963,76.6404722 64.5279963,85.7522769 C64.5279963,95.5536389 61.0470589,101.974 52.3838539,112.729783 C51.2993703,114.073754 51.2993703,114.073754 50.2679619,115.363518 C46.0955171,120.614942 44.2912789,123.735122 43.8684142,126.188005 C42.8551614,139.02169 46.0585858,151.835388 52.9920137,162.682403 C55.2937636,166.28338 54.2405317,171.068486 50.6395544,173.370236 C47.0385771,175.671986 42.2534713,174.618754 39.9517214,171.017776 C31.2032601,157.331229 27.1612429,141.16316 28.5150418,124.343211 C29.5561964,117.906983 32.4334698,112.931138 38.1504726,105.735739 C39.2533636,104.35659 39.2533636,104.35659 40.3306841,103.021602 C46.8794698,94.8909717 49.0513145,90.8851463 49.0513145,85.7522769 C49.0513145,79.1151416 48.03577,75.0495846 45.4931242,69.9200568 C46.8988572,72.7571657 39.1395399,58.1495121 36.8440801,52.5959803 Z M106.842205,11.6343609 C105.15269,7.70872345 106.965425,3.15674309 110.891063,1.46722822 C114.8167,-0.222286642 119.368681,1.5904489 121.058196,5.51608638 C123.178677,10.4430882 129.938964,22.977469 129.705437,22.5012248 C133.17363,29.5740827 134.688954,36.0309141 134.688954,45.5129042 C134.688954,55.4871748 131.071571,62.1062306 122.535307,72.3023221 C121.022693,74.1016917 120.316786,74.9447989 119.630408,75.7858277 C115.837849,80.4329047 114.264689,83.2854406 114.020045,86.0570391 C112.830186,98.8350333 116.030677,111.636999 123.093727,122.351766 C125.445881,125.920023 124.460034,130.719465 120.891776,133.071619 C117.323519,135.423773 112.524077,134.437926 110.171923,130.869668 C101.172023,117.216665 97.0938829,100.904106 98.6066448,84.6594131 C99.1919503,78.02595 102.039523,72.8625805 107.639994,66.0002443 C108.398094,65.0713338 109.176878,64.141185 110.668443,62.3672721 C117.0231,54.7769892 119.212272,50.7712604 119.212272,45.5129042 C119.212272,38.4068119 118.243569,34.279143 115.809463,29.315151 C116.31096,30.3378799 109.286365,17.3134389 106.842205,11.6343609 Z M415.3345,70.2170831 C413.657309,66.2861649 415.484315,61.7398935 419.415233,60.0627017 C423.346151,58.38551 427.892423,60.2125162 429.569614,64.1434344 C431.57575,68.8453147 438.685689,81.9678956 437.969039,80.539453 C441.575408,87.727755 443.190811,94.15498 443.190811,103.292516 C443.190811,112.900779 439.704937,119.221597 431.092102,129.744994 C429.881663,131.220705 429.881663,131.220705 428.740599,132.628174 C424.515261,137.883014 422.786781,140.998575 422.52928,143.958804 C421.476508,156.780152 424.679227,169.591026 431.641719,180.408559 C433.954757,184.002296 432.916545,188.790683 429.322808,191.103721 C425.729071,193.416759 420.940684,192.378547 418.627646,188.78481 C409.823225,175.105497 405.773226,158.905503 407.107645,142.655164 C407.709464,135.734243 410.659908,130.416109 416.679412,122.929954 C417.912636,121.408817 417.912636,121.408817 419.115363,119.942677 C425.562319,112.065611 427.714129,108.163806 427.714129,103.292516 C427.714129,96.6415462 426.692074,92.5750818 424.135692,87.4796388 C425.13942,89.4802939 417.676665,75.706531 415.3345,70.2170831 Z M256.335673,144.873201 L306.686478,144.873201 C337.447867,144.873201 347.274253,149.655625 357.078952,176.357785 C361.450935,188.264461 365.671404,200.063156 370.271539,213.167486 C372.848965,220.50976 380.39864,242.215076 380.644656,242.91919 C388.031871,264.061909 375.387087,277.984624 348.716512,285.906577 C340.55684,288.330242 320.242078,293.991766 291.334678,301.935648 L290.311267,302.216852 C276.73198,305.947609 262.183827,309.927358 247.635826,313.895603 C239.392193,316.143256 239.392193,316.143256 233.572924,317.727707 C229.208192,318.915406 229.208192,318.915406 228.237269,319.179287 C224.113107,320.300169 219.861158,317.86553 218.740276,313.741368 C217.619394,309.617206 220.054033,305.365257 224.178195,304.244375 C228.054391,303.190886 234.839255,301.344003 243.56306,298.964419 C258.102626,294.998475 272.642039,291.021117 286.211148,287.293156 L287.233648,287.012202 C316.0108,279.104113 336.297618,273.450377 344.309765,271.070531 C363.650618,265.325724 369.737567,258.623603 366.034118,248.024076 C365.781441,247.300896 358.237052,225.610779 355.668482,218.293733 C351.091125,205.254287 346.894753,193.522961 342.550709,181.692374 C335.382648,162.170844 331.641143,160.349883 306.686478,160.349883 L256.335681,160.349883 L207.016647,160.349883 C181.944825,160.349883 178.281006,162.133034 170.927572,181.742192 C169.024713,186.816482 166.95783,192.227903 164.669212,198.138752 C163.524052,201.092305 163.524052,201.092305 162.37633,204.038119 C160.675243,208.399622 158.921653,212.866542 156.69032,218.529157 C153.924565,225.542437 152.393231,229.425006 151.310243,232.176772 C147.192147,242.640452 144.633511,249.248929 142.667819,254.556298 C138.877479,264.790216 145.480006,272.191997 164.684526,277.957059 L175.208669,281.465107 C179.263121,282.816591 181.45431,287.198968 180.102826,291.25342 C178.751342,295.307872 174.368965,297.499061 170.314513,296.147577 L160.013851,292.710281 C133.636306,284.797017 120.441865,270.005354 128.154579,249.181025 C130.167289,243.746709 132.753925,237.065911 136.908751,226.508906 C137.994241,223.750783 139.528252,219.861427 142.291211,212.85524 C144.516509,207.207942 146.264033,202.756473 147.957521,198.414452 C149.098922,195.48486 149.098922,195.48486 150.236603,192.550598 C152.50657,186.68792 154.554264,181.326738 156.436303,176.307966 C166.451305,149.601294 176.166058,144.873201 207.016647,144.873201 L256.335673,144.873201 Z M378.498281,322.95822 C374.224513,322.95822 370.75994,319.493647 370.75994,315.219879 C370.75994,310.946111 374.224513,307.481538 378.498281,307.481538 L492.406659,307.481538 C496.680427,307.481538 500.145,310.946111 500.145,315.219879 C500.145,319.493647 496.680427,322.95822 492.406659,322.95822 L378.498281,322.95822 Z M7.8833409,322.95822 C3.60957323,322.95822 0.145,319.493647 0.145,315.219879 C0.145,310.946111 3.60957323,307.481538 7.8833409,307.481538 L134.173064,307.481538 C138.446832,307.481538 141.911405,310.946111 141.911405,315.219879 C141.911405,319.493647 138.446832,322.95822 134.173064,322.95822 L7.8833409,322.95822 Z M312.522695,322.222725 C308.427195,321.00126 306.09733,316.691009 307.318795,312.59551 C308.540259,308.500011 312.85051,306.170145 316.94601,307.39161 C351.065706,317.56766 369.350611,331.12662 366.365561,354.777402 C365.343673,362.873897 362.930304,379.405468 359.517896,401.948516 C359.343786,403.098368 359.343786,403.098368 359.169577,404.247524 C357.486554,415.346236 355.683557,427.100734 353.88059,438.764766 C352.798813,445.76317 351.957345,451.176839 351.47628,454.258912 C350.817191,458.481552 346.859767,461.370381 342.637127,460.711292 C338.414487,460.052202 335.525658,456.094778 336.184747,451.872138 C336.664707,448.797144 337.505029,443.390844 338.585555,436.400538 C340.386427,424.750053 342.187268,413.009619 343.867828,401.927147 C344.041739,400.77996 344.041739,400.77996 344.215539,399.632153 C347.607026,377.227314 350.010985,360.760197 351.010696,352.839409 C352.651356,339.840331 339.907165,330.390023 312.522695,322.222725 Z M192.976893,307.351137 C197.094745,306.20729 201.360195,308.618196 202.504043,312.736048 C203.647891,316.8539 201.236984,321.11935 197.119132,322.263198 C172.982986,328.967683 156.399076,340.581065 157.946246,352.839409 C158.944978,360.75244 161.377356,377.216741 164.817831,399.615494 C165.006214,400.841506 165.006214,400.841506 165.194735,402.066765 C166.896642,413.124391 168.720377,424.829701 170.544146,436.439327 C171.638409,443.405111 172.489408,448.790375 172.975444,451.852404 C173.645432,456.073329 170.766829,460.038197 166.545904,460.708185 C162.32498,461.378173 158.360111,458.49957 157.690123,454.278646 C157.202869,451.20894 156.350607,445.815686 155.254965,438.841121 C153.428892,427.216831 151.602785,415.496295 149.898173,404.421097 C149.709302,403.193561 149.709302,403.193561 149.520554,401.965175 C146.05698,379.416041 143.614248,362.881655 142.591381,354.777402 C139.659645,331.549027 161.878558,315.989564 192.976893,307.351137 Z M256.335673,133.523635 C224.823759,133.523635 199.278306,107.978181 199.278306,76.4662678 C199.278306,44.9543542 224.823759,19.4089009 256.335673,19.4089009 C287.847586,19.4089009 313.39304,44.9543542 313.39304,76.4662678 C313.39304,107.978181 287.847586,133.523635 256.335673,133.523635 Z M256.335673,118.046953 C279.300051,118.046953 297.916358,99.4306461 297.916358,76.4662678 C297.916358,53.5018895 279.300051,34.8855827 256.335673,34.8855827 C233.371294,34.8855827 214.754988,53.5018895 214.754988,76.4662678 C214.754988,99.4306461 233.371294,118.046953 256.335673,118.046953 Z" id="Shape"></path>
        </g>
    </g>
</svg>
