<svg version="1.1" id="Calque_1" xmlns="http://www.w3.org/2000/svg" xmlns:xlink="http://www.w3.org/1999/xlink" x="0px" y="0px"
	 viewBox="0 0 500 500" style="enable-background:new 0 0 500 500;" xml:space="preserve">
<g id="Immerssive">
	<g id="Home-page-XL-happy-First" transform="translate(-151.000000, -12.000000)">
		<g id="Group-2" transform="translate(151.000000, 0.000000)">
			<g id="Picto-Happy-First" transform="translate(0.000000, 11.000000)">
				<path id="Fill-1" d="M70,114.4c4.1,5.5,11.9,6.6,17.4,2.5l40.1-30.2c5.5-4.1,6.6-11.9,2.5-17.4l-13.4-17.8
					c-4.1-5.5-12-6.6-17.4-2.5L59,79.2c-5.5,4.2-6.6,12-2.4,17.4"/>
				<path id="Fill-3" d="M412.6,116.9c5.5,4.1,13.3,3,17.4-2.5l13.4-17.8c4.1-5.5,3-13.2-2.5-17.4L400.9,49
					c-5.5-4.1-13.3-3-17.4,2.5L370,69.2c-4.1,5.5-3,13.3,2.5,17.4"/>
				<g id="Group-7" transform="translate(11.000000, 0.251400)">
					<g id="Clip-6">
					</g>
					<defs>
						<filter id="Adobe_OpacityMaskFilter" filterUnits="userSpaceOnUse" x="191.6" y="0.7" width="94.7" height="59.5">
							<feColorMatrix  type="matrix" values="1 0 0 0 0  0 1 0 0 0  0 0 1 0 0  0 0 0 1 0"/>
						</filter>
					</defs>
					<mask maskUnits="userSpaceOnUse" x="191.6" y="0.7" width="94.7" height="59.5" id="mask-2_1_">
						<g class="st0">
							<polygon id="path-1_1_" class="st1" points="191.6,0.8 286.4,0.8 286.4,60.2 191.6,60.2 							"/>
						</g>
					</mask>
					<path id="Fill-5" class="st2" d="M239,55.6c15.9,0,31.5,1.6,46.6,4.7c0.4-1.3,0.8-2.6,0.8-4V16.4c0-8.7-7.1-15.7-15.7-15.7
						h-63.4c-8.6,0-15.7,7-15.7,15.7v39.8c0,1.4,0.4,2.7,0.8,4C207.5,57.2,223.1,55.6,239,55.6"/>
				</g>
				<g id="Group-10" transform="translate(0.000000, 5.251400)">
					<g id="Clip-9">
					</g>
					<defs>
						<filter id="Adobe_OpacityMaskFilter_1_" filterUnits="userSpaceOnUse" x="37.4" y="70.5" width="425.1" height="425.2">
							<feColorMatrix  type="matrix" values="1 0 0 0 0  0 1 0 0 0  0 0 1 0 0  0 0 0 1 0"/>
						</filter>
					</defs>
					<mask maskUnits="userSpaceOnUse" x="37.4" y="70.5" width="425.1" height="425.2" id="mask-4_1_">
						<g class="st3">
							<polygon id="path-3_1_" class="st1" points="37.4,70.5 462.6,70.5 462.6,495.7 37.4,495.7 							"/>
						</g>
					</mask>
					<path id="Fill-8" class="st4" d="M371.3,395.1C312.5,458.7,215,465.5,148,412.7c66.6,34.9,150.9,22.6,204.3-35.2
						c53.3-57.8,58.8-142.8,18.8-206.3C428.9,233.6,430,331.4,371.3,395.1L371.3,395.1z M167.4,234.2l74.2,34.1
						c2.5-1.5,5.3-2.6,8.4-2.6c0.7,0,1.3,0.3,2,0.4l77.1-83.6l14.4,13.3l-77.3,83.8c0.3,1.2,0.7,2.3,0.7,3.6
						c0,9.7-7.6,17.5-16.9,17.5c-8,0-14.5-6-16.2-13.8l-75-34.4L167.4,234.2z M250,70.5c-117.2,0-212.6,95.4-212.6,212.6
						c0,117.2,95.3,212.6,212.6,212.6s212.6-95.4,212.6-212.6C462.6,165.9,367.2,70.5,250,70.5L250,70.5z"/>
				</g>
			</g>
		</g>
	</g>
</g>
</svg>
