<svg xmlns="http://www.w3.org/2000/svg" viewBox="0 0 231.45 151.9"><defs></defs><title>Asset 4</title><g id="Layer_2" data-name="Layer 2"><g id="Layer_1-2" data-name="Layer 1"><path class="cls-1" d="M65.4,55C59.1,62,50.8,66.1,42,66.2h-.6c-11.7,0-22.6-6.8-29.2-18.4a2.71,2.71,0,0,1,4.7-2.7c5.7,10,15,15.8,24.9,15.6,9.3-.2,18-5.8,23.5-14.9V34.3a9.73,9.73,0,0,1,9.8-9.7h3.2A40.86,40.86,0,1,0,40.9,81.8a40.78,40.78,0,0,0,24.5-8.2ZM54.6,24.3a4.1,4.1,0,1,1-4.1,4.1,4.18,4.18,0,0,1,4.1-4.1m-27.9,0a4.1,4.1,0,1,1-4.1,4.1,4.18,4.18,0,0,1,4.1-4.1"/><path class="cls-1" d="M228.6,142.5l-19.7-26V34.3a5.14,5.14,0,0,0-5.2-5.1H75.2A5.14,5.14,0,0,0,70,34.3v82.1l-19.7,26c-7.1,7.3,1,9.5,2.5,9.5H226c1.5.1,9.7-2.1,2.6-9.4m-112.5.2,3.8-9H159l3.8,9Zm81.7-27.3H81.1V40.5H197.7v74.9Z"/><path class="cls-1" d="M136.7,83.4l-6-12.4-9.1,4.4,13.5,27.9,4.9-7.4c.1-.2,13.2-19.7,36.8-39l-6.4-7.8a224,224,0,0,0-33.7,34.3"/></g></g></svg>
