<svg viewBox="0 0 486 476" version="1.1" xmlns="http://www.w3.org/2000/svg" xmlns:xlink="http://www.w3.org/1999/xlink">
    <title>homecinema</title>
    <defs></defs>
    <g id="Page-1" stroke-width="1" fill-rule="evenodd">
        <g id="homecinema" transform="translate(-8.000000, 8.000000)" fill-rule="nonzero">
            <path d="M219.479167,206.5625 L219.479167,391.145833 L477.395833,391.145833 L477.395833,206.5625 L219.479167,206.5625 Z M211.666667,190.9375 L485.208333,190.9375 C489.523058,190.9375 493.020833,194.435275 493.020833,198.75 L493.020833,398.958333 C493.020833,403.273058 489.523058,406.770833 485.208333,406.770833 L211.666667,406.770833 C207.351942,406.770833 203.854167,403.273058 203.854167,398.958333 L203.854167,198.75 C203.854167,194.435275 207.351942,190.9375 211.666667,190.9375 Z" id="Rectangle-path"></path>
            <path d="M24.4791667,8.4375 L24.4791667,452.1875 L203.854167,452.1875 L203.854167,8.4375 L24.4791667,8.4375 Z M16.6666667,-7.1875 L211.666667,-7.1875 C215.981391,-7.1875 219.479167,-3.68972461 219.479167,0.625 L219.479167,460 C219.479167,464.314725 215.981391,467.8125 211.666667,467.8125 L16.6666667,467.8125 C12.3519421,467.8125 8.85416667,464.314725 8.85416667,460 L8.85416667,0.625 C8.85416667,-3.68972461 12.3519421,-7.1875 16.6666667,-7.1875 Z" id="Rectangle-path"></path>
            <path d="M327.8125,460 C327.8125,464.314725 324.314725,467.8125 320,467.8125 C315.685275,467.8125 312.1875,464.314725 312.1875,460 L312.1875,399.166667 C312.1875,394.851942 315.685275,391.354167 320,391.354167 C324.314725,391.354167 327.8125,394.851942 327.8125,399.166667 L327.8125,460 Z" id="Shape"></path>
            <path d="M289.583333,467.8125 C285.268609,467.8125 281.770833,464.314725 281.770833,460 C281.770833,455.685275 285.268609,452.1875 289.583333,452.1875 L350.416667,452.1875 C354.731391,452.1875 358.229167,455.685275 358.229167,460 C358.229167,464.314725 354.731391,467.8125 350.416667,467.8125 L289.583333,467.8125 Z" id="Shape"></path>
            <path d="M114.166667,168.854167 C75.3341452,168.854167 43.8541667,137.374188 43.8541667,98.5416667 C43.8541667,59.7091452 75.3341452,28.2291667 114.166667,28.2291667 C152.999188,28.2291667 184.479167,59.7091452 184.479167,98.5416667 C184.479167,137.374188 152.999188,168.854167 114.166667,168.854167 Z M114.166667,153.229167 C144.369739,153.229167 168.854167,128.744739 168.854167,98.5416667 C168.854167,68.3385944 144.369739,43.8541667 114.166667,43.8541667 C83.9635944,43.8541667 59.4791667,68.3385944 59.4791667,98.5416667 C59.4791667,128.744739 83.9635944,153.229167 114.166667,153.229167 Z" id="Oval"></path>
            <path d="M114.166667,281.354167 C90.7520945,281.354167 71.7708333,262.372906 71.7708333,238.958333 C71.7708333,215.543761 90.7520945,196.5625 114.166667,196.5625 C137.581239,196.5625 156.5625,215.543761 156.5625,238.958333 C156.5625,262.372906 137.581239,281.354167 114.166667,281.354167 Z M114.166667,265.729167 C128.95179,265.729167 140.9375,253.743456 140.9375,238.958333 C140.9375,224.17321 128.95179,212.1875 114.166667,212.1875 C99.3815437,212.1875 87.3958333,224.17321 87.3958333,238.958333 C87.3958333,253.743456 99.3815437,265.729167 114.166667,265.729167 Z" id="Oval"></path>
            <path d="M93.3333333,365.104167 C81.4246934,365.104167 71.7708333,355.450307 71.7708333,343.541667 C71.7708333,331.633027 81.4246934,321.979167 93.3333333,321.979167 C105.241973,321.979167 114.895833,331.633027 114.895833,343.541667 C114.895833,355.450307 105.241973,365.104167 93.3333333,365.104167 Z M93.3333333,349.479167 C96.612524,349.479167 99.2708333,346.820857 99.2708333,343.541667 C99.2708333,340.262476 96.612524,337.604167 93.3333333,337.604167 C90.0541426,337.604167 87.3958333,340.262476 87.3958333,343.541667 C87.3958333,346.820857 90.0541426,349.479167 93.3333333,349.479167 Z" id="Oval"></path>
            <path d="M140.208333,341.979167 C131.061117,341.979167 123.645833,334.563883 123.645833,325.416667 C123.645833,316.26945 131.061117,308.854167 140.208333,308.854167 C149.35555,308.854167 156.770833,316.26945 156.770833,325.416667 C156.770833,334.563883 149.35555,341.979167 140.208333,341.979167 Z M140.208333,326.354167 C140.7261,326.354167 141.145833,325.934434 141.145833,325.416667 C141.145833,324.8989 140.7261,324.479167 140.208333,324.479167 C139.690566,324.479167 139.270833,324.8989 139.270833,325.416667 C139.270833,325.934434 139.690566,326.354167 140.208333,326.354167 Z" id="Oval"></path>
        </g>
    </g>
</svg>
