<svg version="1.1" id="Calque_1" xmlns="http://www.w3.org/2000/svg" xmlns:xlink="http://www.w3.org/1999/xlink" x="0px" y="0px"
	 viewBox="0 0 500 500" style="enable-background:new 0 0 500 500;" xml:space="preserve">
<g id="Page-1_1_">
	<g id="Icone" transform="translate(-519.000000, -572.000000)">
		<g id="Page-1" transform="translate(519.000000, 572.000000)">
			<path id="Fill-1" class="st0" d="M154.9,477.3H16.2c-9,0-16.2-7.1-16.2-15.9v-175c0-33.8,13.7-66.1,38-90
				c24.4-23.9,57.4-37.3,91.8-37.3H211c4.3,0,8.4,1.7,11.5,4.7c3,3,4.7,7,4.7,11.3v190.9c0,8.8-7.3,15.9-16.2,15.9
				c-9,0-16.2-7.1-16.2-15.9v-175h-64.9c-25.8,0-50.6,10.1-68.9,28c-18.3,17.9-28.5,42.2-28.5,67.5v159.1h122.4
				c9,0,16.2,7.1,16.2,15.9C171.1,470.2,163.8,477.3,154.9,477.3L154.9,477.3z"/>
			<path id="Fill-3" class="st0" d="M84.1,477.3c-8.8,0-15.9-7-15.9-15.6V305.4c0-20.7,8.4-40.6,23.3-55.2
				c14.9-14.7,35.1-22.9,56.2-22.9h63.6c8.8,0,15.9,7,15.9,15.6c0,8.6-7.1,15.6-15.9,15.6h-63.6c-26.4,0-47.7,21-47.7,46.9v156.2
				c0,4.1-1.7,8.1-4.7,11.1C92.4,475.6,88.3,477.3,84.1,477.3"/>
			<path id="Fill-5" class="st0" d="M215.9,500c-21.1,0-41.3-8.4-56.2-23.3c-14.9-14.9-23.3-35.1-23.3-56.2s8.4-41.3,23.3-56.2
				c14.9-14.9,35.1-23.3,56.2-23.3c21.1,0,41.3,8.4,56.2,23.3c14.9,14.9,23.3,35.1,23.3,56.2s-8.4,41.3-23.3,56.2
				C257.2,491.6,237,500,215.9,500 M215.9,372.7c-19.3,0-36.7,11.6-44.1,29.5c-7.4,17.8-3.3,38.4,10.3,52
				c13.6,13.6,34.2,17.7,52,10.3c17.8-7.4,29.5-24.8,29.5-44.1C263.6,394.1,242.3,372.7,215.9,372.7"/>
			<path id="Fill-7" class="st0" d="M484.4,500h-125c-4.8,0-9.4-2.1-12.3-5.7c-3-3.6-4-8.2-2.9-12.6l15.6-58.8
				c1.7-6.5,8-11.1,15.2-11.1h93.8c7.2,0,13.4,4.6,15.2,11.1l15.6,58.8c1.2,4.4,0.1,9-2.8,12.6C493.7,497.9,489.2,500,484.4,500z
				 M379.4,470.6h85l-7.8-29.4h-69.3L379.4,470.6z"/>
			<path id="Fill-10" class="st0" d="M416.7,431.8c-8.4,0-15.2-6.9-15.2-15.4V138.8c0-38.6-20.2-74.2-53-93.5
				c-32.8-19.3-73.2-19.3-106.1,0c-32.8,19.3-53,54.9-53,93.5v30.8c0,8.5-6.8,15.4-15.2,15.4c-8.4,0-15.2-6.9-15.2-15.4v-30.8
				c0-49.6,26-95.4,68.2-120.2c42.2-24.8,94.2-24.8,136.4,0c42.2,24.8,68.2,70.6,68.2,120.2v277.6c0,4.1-1.6,8-4.4,10.9
				C424.5,430.2,420.7,431.8,416.7,431.8L416.7,431.8z"/>
		</g>
	</g>
</g>
</svg>
