<svg viewBox="0 0 501 499" version="1.1" xmlns="http://www.w3.org/2000/svg" xmlns:xlink="http://www.w3.org/1999/xlink">
    <defs></defs>
    <g id="Page-1" stroke-width="1" fill-rule="evenodd">
        <g id="icebucket" fill-rule="nonzero">
            <path d="M344.248459,492.44952 C343.186531,496.704266 338.876515,499.292556 334.621769,498.230628 C330.367024,497.1687 327.778734,492.858684 328.840662,488.603938 L360.813304,360.501631 C361.875232,356.246886 366.185248,353.658596 370.439994,354.720524 C374.69474,355.782452 377.28303,360.092468 376.221101,364.347214 L344.248459,492.44952 Z M6.43248014,401.305259 C2.14942818,400.363973 -0.559608326,396.12881 0.381677762,391.845758 C1.32296385,387.562706 5.55812663,384.853669 9.8411786,385.794955 C59.709036,396.754412 110.681852,401.879777 161.859597,401.066854 C216.823449,401.066854 268.340201,396.105369 306.310638,387.500171 C340.919608,379.656778 360.576977,369.19278 360.576977,362.424423 C360.576977,355.656066 340.919608,345.192067 306.310638,337.348674 C268.340201,328.743476 216.823449,323.781991 161.733332,323.780987 C110.681852,322.969068 59.709036,328.094434 9.8411786,339.05389 C5.55812663,339.995176 1.32296385,337.286139 0.381677762,333.003088 C-0.559608326,328.720036 2.14942818,324.484873 6.43248014,323.543587 C57.5023588,312.319962 109.70383,307.071054 161.859597,307.90154 C281.343669,307.90154 376.457428,329.457066 376.457428,362.424423 C376.457428,395.391779 281.343669,416.947305 161.985862,416.946301 C109.70383,417.777791 57.5023588,412.528883 6.43248014,401.305259 Z M301.893656,492.477091 C300.8165,496.728008 296.497245,499.300849 292.246329,498.223694 C287.995412,497.146539 285.42257,492.827283 286.499726,488.576367 L298.357129,441.781971 C299.434285,437.531054 303.75354,434.958213 308.004456,436.035368 C312.255373,437.112523 314.828215,441.431779 313.751059,445.682695 L301.893656,492.477091 Z M324.548645,119.608514 C323.46905,123.858812 319.148319,126.429174 314.898021,125.349579 C310.647724,124.269984 308.077362,119.949252 309.156957,115.698955 L332.671252,23.1251777 C336.881235,6.93666622 353.311268,-2.87040721 369.635128,1.12643774 L477.44247,28.6608006 C493.655972,32.8737581 503.400915,49.4145169 499.231036,65.6250829 L471.692042,173.450161 C467.476041,189.522847 451.13088,199.227786 434.960687,195.225201 L332.902321,169.393 C328.65112,168.31697 326.077135,163.998395 327.153165,159.747194 C328.229195,155.495993 332.54777,152.922008 336.798971,153.998038 L438.816816,179.820096 C446.516345,181.725896 454.31874,177.093224 456.318378,169.470647 L483.847877,61.6821192 C485.839991,53.9376742 481.188224,46.0419113 473.480691,44.0390953 L365.782067,16.5321639 C357.967691,14.619033 350.065357,19.3359299 348.051713,27.0784184 L324.548645,119.608514 Z M397.681622,61.6143843 C393.432236,60.5312074 390.865516,56.2083111 391.948693,51.9589251 C393.03187,47.7095391 397.354766,45.1428194 401.604152,46.2259962 L434.053639,54.4976316 C450.126325,58.7136328 459.831265,75.0587944 455.878822,91.0189105 L448.467944,124.050249 C447.507936,128.329144 443.260966,131.019632 438.982072,130.059624 C434.703177,129.099616 432.012689,124.852646 432.972697,120.573751 L440.423574,87.3728579 C442.329374,79.6733286 437.696702,71.8709344 430.077742,69.8722189 L397.681622,61.6143843 Z M223.844867,133.00065 C219.812735,134.724734 215.1464,132.853692 213.422316,128.82156 C211.698232,124.789428 213.569274,120.123093 217.601406,118.399009 L248.318069,105.265004 C263.753435,98.7011636 281.587879,105.886263 288.157932,121.307663 L301.285772,152.009869 C303.009856,156.042001 301.138814,160.708336 297.106682,162.43242 C293.07455,164.156504 288.408215,162.285462 286.684131,158.25333 L273.552202,127.541543 C270.414022,120.175535 261.900716,116.745714 254.547072,119.872811 L223.844867,133.00065 Z M171.155785,116.378576 C163.783795,119.512356 160.348048,128.028965 163.481828,135.400954 L206.970307,237.704425 C210.104087,245.076414 218.620696,248.512161 225.992685,245.378381 L328.296155,201.889902 C335.668145,198.756122 339.103892,190.239514 335.970112,182.867524 L292.481633,80.5640539 C289.347853,73.1920648 280.831244,69.7563176 273.459255,72.8900978 L171.155785,116.378576 Z M164.943145,101.763795 L267.246615,58.2753163 C282.690125,51.7103899 300.531488,58.9079041 307.096415,74.3514141 L350.584893,176.654885 C357.149819,192.098395 349.952305,209.939758 334.508795,216.504684 L232.205325,259.993162 C216.761815,266.558089 198.920452,259.360575 192.355525,243.917064 L148.867047,141.613594 C142.302121,126.170084 149.499635,108.328721 164.943145,101.763795 Z" id="Shape"></path>
        </g>
    </g>
</svg>
