<svg viewBox="0 0 500 501" version="1.1" xmlns="http://www.w3.org/2000/svg" xmlns:xlink="http://www.w3.org/1999/xlink">
    <defs></defs>
    <g id="Page-1" stroke-width="1" fill-rule="evenodd">
        <g id="icemaker" fill-rule="nonzero">
            <path d="M193.714491,262.562364 C193.714491,258.177277 197.269307,254.622462 201.654393,254.622462 L491.513752,254.622462 C495.898838,254.622462 499.453654,258.177277 499.453654,262.562364 L499.453654,466.035588 C499.453654,485.811244 478.832274,500.230099 453.825683,500.230099 L239.554193,500.230099 C214.654751,500.230099 193.714491,485.757874 193.714491,466.035588 L193.714491,262.562364 Z M209.594296,466.035588 C209.594296,475.470829 222.442238,484.350295 239.554193,484.350295 L453.825683,484.350295 C471.025659,484.350295 483.573849,475.576365 483.573849,466.035588 L483.573849,270.502266 L209.594296,270.502266 L209.594296,466.035588 Z M30.8789298,17.8702306 C34.4719791,15.3438678 39.4335161,16.214689 41.9514875,19.8136239 L208.160104,257.375494 C210.66978,260.962571 209.802452,265.904204 206.221241,268.422243 L178.957126,287.589335 C170.279132,293.374664 160.102272,281.903637 142.854864,256.956208 L19.8367346,81.4277558 C2.35293047,56.4508928 -4.62877376,43.4524353 3.77739739,36.9259955 L30.8789298,17.8702306 Z M33.5010924,35.4360519 L17.2727506,46.8397706 C17.7857087,47.931421 18.4246199,49.1945495 19.1766375,50.5946473 C22.3811796,56.5608272 27.2601295,64.3415039 32.8433967,72.3176021 L155.887932,247.884012 C161.413326,255.876099 167.062787,263.185975 171.626033,268.329518 C172.655797,269.490235 173.602064,270.507466 174.437726,271.357755 L190.607614,259.988303 L33.5010924,35.4360519 Z M175.920426,272.79851 C176.15777,273.01593 176.379505,273.211176 176.584483,273.38325 C176.515818,273.325607 176.448373,273.269653 176.381765,273.215637 L175.920426,272.79851 Z M16.3041625,44.6449029 C16.262542,44.5078505 16.214768,44.3679479 16.1632288,44.2234856 C16.1880441,44.2930418 16.2140969,44.3644276 16.2413765,44.4376138 L16.3041625,44.6449029 Z M278.74612,99.8101061 C274.732385,101.57615 270.046947,99.7540354 268.280904,95.7402995 C266.51486,91.7265637 268.336974,87.0411265 272.35071,85.2750827 L293.673389,75.8949258 C305.8468,70.8337961 319.833228,76.4283675 325.162071,88.4979663 L334.478223,109.671039 C336.244267,113.684774 334.422152,118.370212 330.408417,120.136255 C326.394681,121.902299 321.709244,120.080185 319.9432,116.066449 L310.631097,94.9025639 C308.79416,90.7419852 303.969147,88.8119802 299.919193,90.4939543 L278.74612,99.8101061 Z M240.885004,88.205991 C236.741792,89.9672409 234.81083,94.753753 236.57208,98.8969649 L267.799677,172.357606 C269.560927,176.500818 274.347439,178.43178 278.490651,176.67053 L351.951292,145.442933 C356.094504,143.681683 358.025466,138.895171 356.264216,134.751959 L325.036619,61.291318 C323.27537,57.148106 318.488857,55.2171443 314.345646,56.9783943 L240.885004,88.205991 Z M234.672617,73.591805 L308.133259,42.3642083 C320.347663,37.171952 334.458549,42.8645274 339.650805,55.0789313 L370.878402,128.539573 C376.070658,140.753977 370.378083,154.864863 358.163679,160.057119 L284.703038,191.284716 C272.488634,196.476972 258.377747,190.784397 253.185491,178.569993 L221.957894,105.109352 C216.765638,92.8949475 222.458213,78.7840613 234.672617,73.591805 Z M352.266741,88.7861478 C351.184107,93.0354877 346.861688,95.6026097 342.612348,94.5199754 C338.363008,93.437341 335.795886,89.1149219 336.87852,84.865582 L353.79119,18.4862895 C355.288527,12.2586578 359.230843,6.89647339 364.728443,3.60986425 C370.226044,0.323255104 376.815614,-0.61079634 382.950724,1.00315024 L460.306213,20.7132826 C473.106692,24.1059689 480.816415,37.14241 477.611296,50.0395518 L457.920693,127.319876 C454.658652,140.132178 441.659907,147.903167 428.779263,144.698245 L355.943894,126.065941 C351.69561,124.979171 349.132697,120.654255 350.219468,116.405971 C351.306238,112.157687 355.631154,109.594774 359.879438,110.681544 L432.664063,129.301044 C437.016056,130.383834 441.425321,127.74786 442.532182,123.400447 L462.211675,46.164294 C463.313415,41.730779 460.653729,37.2334915 456.311619,36.082264 L378.9706,16.3759522 C376.905795,15.8328518 374.709271,16.1442023 372.876738,17.2397387 C371.044204,18.335275 369.730099,20.1226698 369.205199,22.3027012 L352.266741,88.7861478 Z M401.898623,48.7865657 C397.649048,47.7048556 395.080986,43.3829949 396.162696,39.1334197 C397.244406,34.8838444 401.566267,32.3157823 405.815842,33.3974923 L429.106632,39.326057 C441.918934,42.5880979 449.689922,55.5868426 446.487338,68.4583249 L440.558878,91.7487043 C439.477168,95.9982796 435.155308,98.5663417 430.905732,97.4846317 C426.656157,96.4029216 424.088095,92.0810609 425.169805,87.8314857 L431.0878,64.5826874 C432.17059,60.2306945 429.534616,55.8214286 425.189003,54.7150259 L401.898623,48.7865657 Z M321.070521,335.821194 C310.663248,335.821194 302.226486,327.384432 302.226486,316.977159 C302.226486,306.569887 310.663248,298.133125 321.070521,298.133125 C331.477793,298.133125 339.914555,306.569887 339.914555,316.977159 C339.914555,327.384432 331.477793,335.821194 321.070521,335.821194 Z M377.390893,335.821194 C366.98362,335.821194 358.546858,327.384432 358.546858,316.977159 C358.546858,306.569887 366.98362,298.133125 377.390893,298.133125 C387.798165,298.133125 396.234927,306.569887 396.234927,316.977159 C396.234927,327.384432 387.798165,335.821194 377.390893,335.821194 Z M434.134726,335.821194 C423.727453,335.821194 415.290692,327.384432 415.290692,316.977159 C415.290692,306.569887 423.727453,298.133125 434.134726,298.133125 C444.541999,298.133125 452.97876,306.569887 452.97876,316.977159 C452.97876,327.384432 444.541999,335.821194 434.134726,335.821194 Z" id="Shape"></path>
        </g>
    </g>
</svg>
