<svg viewBox="0 0 498 500" version="1.1" xmlns="http://www.w3.org/2000/svg" xmlns:xlink="http://www.w3.org/1999/xlink">
    <title>Rectangle-path</title>
    <defs></defs>
    <g id="Page-1" stroke-width="1" fill-rule="evenodd">
        <g id="juicer" transform="translate(-2.000000, 0.000000)" fill-rule="nonzero">
            <g id="induction" transform="translate(0.894868, 0.065536)">
                <path d="M179.6875,16.3541667 L179.6875,43.0208333 L320.3125,43.0208333 L320.3125,16.3541667 L179.6875,16.3541667 Z M171.875,0.729166667 L328.125,0.729166667 C332.439725,0.729166667 335.9375,4.22694206 335.9375,8.54166667 L335.9375,50.8333333 C335.9375,55.1480579 332.439725,58.6458333 328.125,58.6458333 L171.875,58.6458333 C167.560275,58.6458333 164.0625,55.1480579 164.0625,50.8333333 L164.0625,8.54166667 C164.0625,4.22694206 167.560275,0.729166667 171.875,0.729166667 Z M448.94025,120.520833 L326.271785,58.8541667 L173.730461,58.8541667 L51.2282144,120.520833 L448.94025,120.520833 Z M481.875,136.145833 L18.3333333,136.145833 C10.100864,136.145833 7.46721317,125.056729 14.8205531,121.355115 L168.36222,44.0634483 L171.875,43.2291667 L328.125,43.2291667 L331.633981,44.0615371 L485.383981,121.353204 C492.741394,125.051849 490.109773,136.145833 481.875,136.145833 Z M120.274863,404.0625 L11.9643425,435.420975 C7.81982769,436.62091 3.48729454,434.233856 2.28735883,430.089342 C1.08742312,425.944827 3.4744761,421.612294 7.61899087,420.412358 L116.993991,388.745692 L119.166667,388.4375 L380.833333,388.4375 L383.002198,388.74459 L492.585531,420.411256 C496.730654,421.609088 499.119908,425.940406 497.922077,430.085531 C496.724246,434.230654 492.392927,436.619908 488.247802,435.422077 L379.72716,404.0625 L120.274863,404.0625 Z M490.208333,483.645833 C494.523058,483.645833 498.020833,487.143608 498.020833,491.458333 C498.020833,495.773058 494.523058,499.270833 490.208333,499.270833 L9.79166667,499.270833 C5.47694206,499.270833 1.97916667,495.773058 1.97916667,491.458333 C1.97916667,487.143608 5.47694206,483.645833 9.79166667,483.645833 L490.208333,483.645833 Z M139.681112,190.546823 C137.998398,186.573749 139.855102,181.988826 143.828177,180.306112 C147.801251,178.623398 152.386174,180.480102 154.068888,184.453177 C156.348183,189.834844 164.607975,205.182311 163.510328,202.994539 C167.647635,211.240806 169.479167,218.553575 169.479167,229.166667 C169.479167,240.041023 165.53418,247.266892 155.895861,259.004727 C154.379108,260.84655 153.66711,261.714194 152.953851,262.600925 C148.218228,268.488298 146.229435,272.096865 145.907332,275.6859 C144.594552,290.5809 148.272454,305.489537 156.362088,318.064998 C158.696412,321.693742 157.647078,326.527762 154.018335,328.862087 C150.389592,331.196413 145.55557,330.147079 143.221246,326.518335 C133.256117,311.02739 128.725533,292.662344 130.343772,274.301685 C131.018045,266.788352 134.249717,260.924646 140.778768,252.807662 C141.547926,251.851438 142.315969,250.915498 143.82026,249.08906 C151.286646,239.996267 153.854167,235.293448 153.854167,229.166667 C153.854167,221.059112 152.619947,216.131235 149.544518,210.001448 C150.935721,212.774323 142.296094,196.721086 139.681112,190.546823 Z M240.067619,190.474608 C238.424787,186.484876 240.327327,181.918783 244.317058,180.275952 C248.30679,178.633122 252.872883,180.535661 254.515715,184.525392 C256.750348,189.952357 265.340317,206.196656 263.764573,203.023373 C267.870029,211.291069 269.6875,218.579562 269.6875,229.166667 C269.6875,240.041023 265.742515,247.266892 256.104194,259.004727 C254.587442,260.84655 253.875444,261.714194 253.162183,262.600925 C248.426562,268.488298 246.437769,272.096865 246.125492,275.563392 C245.075321,290.08809 248.743333,304.563633 256.583596,316.83555 C258.906571,320.471569 257.842137,325.302287 254.206117,327.625263 C250.570098,329.948237 245.739379,328.883804 243.416404,325.247783 C233.764062,310.139523 229.248283,292.318323 230.552104,274.301685 C231.226379,266.788352 234.45805,260.924646 240.987102,252.807662 C241.756258,251.851437 242.524302,250.915498 244.028594,249.08906 C251.494979,239.996267 254.0625,235.293448 254.0625,229.166667 C254.0625,221.0903 252.840423,216.168656 249.793644,210.020321 C251.578252,213.623856 242.6271,196.690492 240.067619,190.474608 Z M340.275952,190.474608 C338.633121,186.484876 340.53566,181.918783 344.525392,180.275952 C348.515123,178.633122 353.081217,180.535661 354.724048,184.525392 C354.997562,185.184969 354.997562,185.184969 355.271125,185.826824 C357.356458,190.687297 365.142419,205.150286 364.041548,202.972932 C368.242021,211.280815 370.104167,218.572156 370.104167,229.166667 C370.104167,240.092902 366.129604,247.331019 356.391669,259.1264 C354.911352,260.914596 354.214042,261.759679 353.516204,262.621308 C348.714975,268.549435 346.685315,272.170908 346.330654,275.605665 C345.168867,290.546535 348.913287,305.458533 356.995567,318.078206 C359.322596,321.711633 358.263552,326.543538 354.630127,328.870567 C350.9967,331.197596 346.164796,330.138552 343.837767,326.505127 C333.921387,311.021683 329.327248,292.725723 330.769937,274.2029 C331.536862,266.725371 334.797706,260.907127 341.374025,252.787279 C342.124235,251.860987 342.87406,250.952256 344.342344,249.178817 C351.890958,240.035319 354.479167,235.321908 354.479167,229.166667 C354.479167,221.112423 353.228665,216.216004 350.097502,210.023054 C351.483181,212.763712 343.319552,197.599178 340.911917,191.987488 C340.593804,191.241103 340.593804,191.241103 340.275952,190.474608 Z M161.666667,455 C130.715709,455 105.625,449.123737 105.625,441.875 C105.625,434.626262 130.715709,428.75 161.666667,428.75 C192.617625,428.75 217.708333,434.626262 217.708333,441.875 C217.708333,449.123737 192.617625,455 161.666667,455 Z M328.125,455 C297.174042,455 272.083333,449.123737 272.083333,441.875 C272.083333,434.626262 297.174042,428.75 328.125,428.75 C359.075958,428.75 384.166667,434.626262 384.166667,441.875 C384.166667,449.123737 359.075958,455 328.125,455 Z" id="Rectangle-path"></path>
            </g>
        </g>
    </g>
</svg>
