<?xml version="1.0" encoding="UTF-8"?>
<svg viewBox="0 0 332 333" version="1.1" xmlns="http://www.w3.org/2000/svg" xmlns:xlink="http://www.w3.org/1999/xlink">
    <title>Combined Shape</title>
    <g id="Page-1" stroke="none" stroke-width="1" fill="none" fill-rule="evenodd">
        <path d="M166.004592,332.0188 C74.3810463,332.0188 0.105487233,257.743241 0.105487233,166.119696 C0.105487233,74.4961507 74.3810463,0.220591599 166.004592,0.220591599 C257.628137,0.220591599 331.903696,74.4961507 331.903696,166.119696 C331.903696,257.743241 257.628137,332.0188 166.004592,332.0188 Z M208.354592,266.369696 L205.154592,253.969696 C202.654592,255.069696 200.354592,256.069696 198.454592,256.769696 C196.554592,257.469696 194.754592,258.069696 193.054592,258.569696 C191.254592,259.069696 189.654592,259.469696 187.954592,259.669696 C186.254592,259.969696 184.454592,260.069696 182.654592,260.069696 C180.554592,260.069696 179.154592,259.169696 178.354592,257.469696 C177.554592,255.769696 177.154592,252.969696 177.154592,249.169696 C177.154592,245.569696 177.554592,240.569696 178.454592,234.269696 C179.254592,227.969696 180.454592,220.969696 181.754592,213.269696 C183.054592,205.569696 184.554592,197.569696 186.054592,189.269696 C187.554592,180.969696 189.054592,172.969696 190.354592,165.269696 C191.654592,157.669696 192.754592,150.569696 193.654592,144.269696 C194.554592,137.969696 194.954592,133.069696 194.954592,129.469696 C194.954592,123.769696 193.954592,119.769696 192.054592,117.469696 C190.154592,115.169696 187.454592,113.969696 184.054592,113.969696 C181.654592,113.969696 177.954592,114.769696 172.954592,116.269696 C167.854592,117.769696 162.254592,119.769696 156.054592,122.069696 C149.854592,124.469696 143.454592,126.969696 136.954592,129.669696 C130.454592,132.369696 124.654592,134.869696 119.454592,137.269696 L122.754592,149.569696 C125.254592,148.769696 127.554592,147.969696 129.754592,147.369696 C131.554592,146.769696 133.454592,146.269696 135.354592,145.769696 C137.254592,145.269696 138.654592,145.069696 139.654592,145.069696 C140.754592,145.069696 141.754592,145.169696 142.754592,145.469696 C143.754592,145.769696 144.554592,146.269696 145.154592,147.069696 C145.754592,147.869696 146.254592,149.069696 146.654592,150.769696 C147.054592,152.369696 147.254592,154.669696 147.254592,157.469696 C147.254592,160.569696 146.754592,164.969696 145.954592,170.769696 C145.154592,176.569696 144.054592,183.069696 142.854592,190.369696 C141.554592,197.769696 140.254592,205.469696 138.754592,213.569696 C137.254592,221.669696 135.854592,229.469696 134.654592,236.969696 C133.454592,244.469696 132.454592,251.469696 131.554592,257.669696 C130.654592,263.869696 130.254592,268.869696 130.254592,272.569696 C130.254592,279.269696 131.654592,284.469696 134.554592,288.369696 C137.454592,292.269696 140.954592,294.169696 145.154592,294.169696 C148.554592,294.169696 152.654592,293.369696 157.554592,291.769696 C162.454592,290.169696 167.654592,287.969696 173.254592,285.369696 C178.854592,282.769696 184.654592,279.769696 190.654592,276.469696 C196.654592,273.169696 202.554592,269.769696 208.354592,266.369696 Z M212.554592,53.869696 C212.554592,49.769696 210.954592,46.069696 207.954592,42.869696 C204.854592,39.669696 200.054592,38.069696 193.554592,38.069696 C188.454592,38.069696 183.854592,39.069696 179.854592,41.169696 C175.754592,43.269696 172.454592,45.869696 169.654592,48.969696 C166.854592,52.069696 164.754592,55.469696 163.354592,59.169696 C161.954592,62.869696 161.254592,66.369696 161.254592,69.669696 C161.254592,73.869696 162.754592,77.569696 165.754592,80.669696 C168.754592,83.769696 173.554592,85.369696 180.054592,85.369696 C185.354592,85.369696 189.954592,84.369696 193.954592,82.369696 C197.954592,80.269696 201.354592,77.769696 204.154592,74.669696 C206.954592,71.669696 209.054592,68.269696 210.454592,64.569696 C211.854592,60.869696 212.554592,57.369696 212.554592,53.869696 Z" id="Combined-Shape" fill="#005589"></path>
    </g>
</svg>
