<!-- Generator: Adobe Illustrator 18.1.1, SVG Export Plug-In  -->
<svg version="1.1"
   xmlns="http://www.w3.org/2000/svg" xmlns:xlink="http://www.w3.org/1999/xlink"
   x="0px" y="0px" viewBox="0 0 500 500" enable-background="new 0 0 500 500" xml:space="preserve">
<defs>
</defs>
<g>
  <path d="M250,500C112.1,500,0,387.9,0,250C0,112.2,112.1,0,250,0c137.8,0,250,112.2,250,250
    C500,387.9,387.9,500,250,500z M250,27.8C127.5,27.8,27.8,127.5,27.8,250c0,122.5,99.7,222.2,222.2,222.2
    c122.5,0,222.2-99.7,222.2-222.2C472.2,127.5,372.5,27.8,250,27.8z"/>
  <path d="M296.9,353.6c-5.8,3.4-11.7,6.8-17.7,10.1c-6,3.3-11.8,6.3-17.4,8.9c-5.6,2.6-10.8,4.8-15.7,6.4
    c-4.9,1.6-9,2.4-12.4,2.4c-4.2,0-7.7-1.9-10.6-5.8c-2.9-3.9-4.3-9.1-4.3-15.8c0-3.7,0.4-8.7,1.3-14.9s1.9-13.2,3.1-20.7
    s2.6-15.3,4.1-23.4c1.5-8.1,2.8-15.8,4.1-23.2c1.2-7.3,2.3-13.8,3.1-19.6s1.3-10.2,1.3-13.3c0-2.8-0.2-5.1-0.6-6.7
    c-0.4-1.7-0.9-2.9-1.5-3.7c-0.6-0.8-1.4-1.3-2.4-1.6c-1-0.3-2-0.4-3.1-0.4c-1,0-2.4,0.2-4.3,0.7s-3.8,1-5.6,1.6
    c-2.2,0.6-4.5,1.4-7,2.2l-3.3-12.3c5.2-2.4,11-4.9,17.5-7.6c6.5-2.7,12.9-5.2,19.1-7.6c6.2-2.3,11.8-4.3,16.9-5.8
    c5-1.5,8.7-2.3,11.1-2.3c3.4,0,6.1,1.2,8,3.5c1.9,2.3,2.9,6.3,2.9,12c0,3.6-0.4,8.5-1.3,14.8c-0.9,6.3-2,13.4-3.3,21
    c-1.3,7.7-2.8,15.7-4.3,24c-1.5,8.3-3,16.3-4.3,24s-2.5,14.7-3.3,21c-0.9,6.3-1.3,11.3-1.3,14.9c0,3.8,0.4,6.6,1.2,8.3
    c0.8,1.7,2.2,2.6,4.3,2.6c1.8,0,3.6-0.1,5.3-0.4c1.7-0.2,3.3-0.6,5.1-1.1c1.7-0.5,3.5-1.1,5.4-1.8c1.9-0.7,4.2-1.7,6.7-2.8
    L296.9,353.6z M301.1,141.1c0,3.5-0.7,7-2.1,10.7c-1.4,3.7-3.5,7.1-6.3,10.1c-2.8,3.1-6.2,5.6-10.2,7.7c-4,2-8.6,3-13.9,3
    c-6.5,0-11.3-1.6-14.3-4.7c-3-3.1-4.5-6.8-4.5-11c0-3.3,0.7-6.8,2.1-10.5c1.4-3.7,3.5-7.1,6.3-10.2c2.8-3.1,6.1-5.7,10.2-7.8
    c4-2.1,8.6-3.1,13.7-3.1c6.5,0,11.3,1.6,14.4,4.8C299.5,133.3,301.1,137,301.1,141.1z"/>
</g>
</svg>
