<svg version="1.1" id="Calque_1" xmlns="http://www.w3.org/2000/svg" xmlns:xlink="http://www.w3.org/1999/xlink" x="0px" y="0px"
	 viewBox="0 0 494 494" style="enable-background:new 0 0 494 494;" xml:space="preserve">
<path d="M247,45.1c65.4,0,73.2,0.2,99,1.4c23.9,1.1,36.9,5.1,45.5,8.4c11.4,4.4,19.6,9.8,28.2,18.3c8.6,8.6,13.9,16.7,18.3,28.2
	c3.4,8.6,7.3,21.6,8.4,45.5c1.2,25.8,1.4,33.6,1.4,99s-0.2,73.2-1.4,99c-1.1,23.9-5.1,36.9-8.4,45.5c-4.4,11.4-9.8,19.6-18.3,28.2
	c-8.6,8.6-16.7,13.9-28.2,18.3c-8.6,3.4-21.6,7.3-45.5,8.4c-25.8,1.2-33.6,1.4-99,1.4s-73.2-0.2-99-1.4c-23.9-1.1-36.9-5.1-45.5-8.4
	c-11.4-4.4-19.6-9.8-28.2-18.3c-8.6-8.6-13.9-16.7-18.3-28.2c-3.4-8.6-7.3-21.6-8.4-45.5c-1.2-25.8-1.4-33.6-1.4-99s0.2-73.2,1.4-99
	c1.1-23.9,5.1-36.9,8.4-45.5c4.4-11.4,9.8-19.6,18.3-28.2c8.6-8.6,16.7-13.9,28.2-18.3c8.6-3.4,21.6-7.3,45.5-8.4
	C173.8,45.4,181.6,45.1,247,45.1 M247,1c-66.5,0-74.9,0.3-101,1.5c-26.1,1.2-43.9,5.3-59.5,11.4c-16.1,6.3-29.8,14.6-43.4,28.3
	c-13.6,13.6-22,27.3-28.3,43.4C8.8,101.1,4.7,118.9,3.5,145C2.3,171.1,2,179.5,2,246c0,66.5,0.3,74.9,1.5,101
	c1.2,26.1,5.3,43.9,11.4,59.5c6.3,16.1,14.6,29.8,28.3,43.4c13.6,13.6,27.3,22,43.4,28.3c15.6,6.1,33.4,10.2,59.5,11.4
	c26.1,1.2,34.5,1.5,101,1.5s74.9-0.3,101-1.5c26.1-1.2,43.9-5.3,59.5-11.4c16.1-6.3,29.8-14.6,43.4-28.3
	c13.6-13.6,22-27.3,28.3-43.4c6.1-15.6,10.2-33.4,11.4-59.5c1.2-26.1,1.5-34.5,1.5-101s-0.3-74.9-1.5-101
	c-1.2-26.1-5.3-43.9-11.4-59.5c-6.3-16.1-14.6-29.8-28.3-43.4c-13.6-13.6-27.3-22-43.4-28.3C391.9,7.8,374.1,3.7,348,2.5
	C321.9,1.3,313.5,1,247,1L247,1z"/>
<path d="M245,119.2c-69.5,0-125.8,56.3-125.8,125.8S175.5,370.8,245,370.8S370.8,314.5,370.8,245S314.5,119.2,245,119.2z M245,326.7
	c-45.1,0-81.7-36.6-81.7-81.7s36.6-81.7,81.7-81.7s81.7,36.6,81.7,81.7S290.1,326.7,245,326.7z"/>
<circle cx="375.8" cy="114.2" r="29.4"/>
</svg>
