<?xml version="1.0" encoding="UTF-8"?>
<svg viewBox="0 0 416 501" version="1.1" xmlns="http://www.w3.org/2000/svg" xmlns:xlink="http://www.w3.org/1999/xlink">
    <!-- Generator: Sketch 52.3 (67297) - http://www.bohemiancoding.com/sketch -->
    <title>insurance</title>
    <desc>Created with Sketch.</desc>
    <g id="Page-1" stroke="none" stroke-width="1" fill="none" fill-rule="evenodd">
        <path d="M307.581676,128.432883 L185.428103,257.286473 L127.753416,202.625928 L107.231523,222.069944 L186.56402,297.251056 L329.182929,146.804748 L307.581676,128.432883 Z M389.334902,235.160192 C369.5293,273.409403 340.304137,322.498671 311.352234,363.921655 C272.666591,419.271203 237.097534,457.747878 207.783748,472.261899 L207.56189,472.371747 L207.340032,472.261899 C178.025776,457.747645 142.455646,419.269364 103.773173,363.921646 C74.8175317,322.491289 45.5881786,273.388245 25.8019006,235.160115 L25.7459473,235.05201 L25.7459473,70.5329464 L25.997507,70.3889127 C41.3791085,61.5819856 62.0879525,52.3070847 87.4571139,44.3290511 C123.833422,32.8895162 164.023115,26.0585019 207.568202,25.5088023 C251.112253,26.0585003 291.306481,32.8894516 327.682994,44.3290511 C353.050942,52.306703 373.753196,61.5793873 389.139336,70.3889127 L389.390895,70.5329464 L389.390895,235.052056 L389.334902,235.160192 Z M409.053169,53.3656276 C408.164341,52.7654597 406.688081,51.8234695 404.716215,50.6360583 C401.688755,48.8129932 398.160323,46.8166531 394.143691,44.6927766 C382.987289,38.7936001 369.994286,32.9121806 355.247377,27.4029751 C313.724995,11.8908871 266.135164,2.10085554 213.114641,0.856349886 L212.626374,0.844889206 L212.626374,0.587730257 C211.944632,0.594013441 211.25381,0.614335224 210.046334,0.657325181 C210.027227,0.658005493 210.027227,0.658005493 210.008117,0.658685942 C208.801445,0.701653572 208.259442,0.717928452 207.554983,0.727404262 C206.879599,0.718073039 206.324537,0.70149445 205.171317,0.660435636 C205.146747,0.659560772 205.146747,0.659560772 205.12218,0.658685871 C203.881036,0.614485875 203.191557,0.594019174 202.510469,0.587726516 L202.510469,0.844889206 L202.022202,0.856349886 C149.001679,2.10085554 101.411847,11.8908871 59.8894652,27.4029751 C45.1425572,32.9121806 32.1495533,38.7936001 20.9931513,44.6927766 C16.9765194,46.8166531 13.4480876,48.8129932 10.4206277,50.6360583 C8.448605,51.8235639 6.9722676,52.7656094 6.08388655,53.3654833 L0.621612851,57.0620176 L0.621612851,240.976852 L1.97728399,243.605675 C2.49206873,244.610029 3.18321025,245.944813 4.06936129,247.637303 C5.36382155,250.109636 6.82999091,252.877175 8.46175284,255.919287 C12.8943861,264.183095 17.8947061,273.257475 23.4027362,282.95639 C38.7139375,309.917398 55.3092198,337.095199 72.6937038,362.974137 C121.618788,435.805129 167.753139,485.249535 207.036246,499.136671 L207.260854,499.216073 L207.332922,499.4187 C207.349837,499.41198 207.36664,499.405463 207.384304,499.398752 L207.55552,499.333699 L207.728244,499.394637 C207.749278,499.402058 207.769815,499.409541 207.790549,499.417344 L207.855806,499.218579 L208.087556,499.136663 C247.376416,485.249513 293.516957,435.805028 342.448053,362.974113 C359.834751,337.095087 376.432117,309.917131 391.744936,282.956369 C397.253681,273.257308 402.254647,264.182761 406.687576,255.919268 C408.319592,252.876999 409.785979,250.109326 411.080402,247.637286 C411.966992,245.944112 412.659394,244.60699 413.172326,243.60625 L414.51523,240.977852 L414.51523,57.0620176 L409.053169,53.3656276 Z" id="insurance" stroke="#005589" fill="#005589"></path>
    </g>
</svg>
