<svg viewBox="0 0 454 500" version="1.1" xmlns="http://www.w3.org/2000/svg" xmlns:xlink="http://www.w3.org/1999/xlink">
    <title>internet</title>
    <defs></defs>
    <g id="Page-1" stroke-width="1" fill-rule="evenodd">
        <g id="internet" fill-rule="nonzero">
            <path d="M277.997577,254.94802 C279.861223,246.55796 282.290056,237.719797 285.14913,228.638033 C287.553302,221.001252 290.126029,213.61601 292.700112,206.751789 C294.250374,202.617757 295.463929,199.558376 295.864904,198.716721 C308.681604,155.587509 304.426848,150.861941 257.949979,155.742509 C208.87846,160.338336 167.470354,194.178154 153.142075,241.518519 C141.645948,276.964911 151.518023,316.678307 174.899192,333.978275 C199.950643,352.514102 235.675693,342.521245 274.833244,296.978586 C272.934421,285.997115 274.243873,271.847045 277.997577,254.94802 Z M295.960462,303.3733 C298.685029,308.893168 302.059194,314.416293 306.085362,319.53278 C324.612722,343.077501 349.178686,350.139244 383.462458,331.380199 C456.416197,291.462116 454.597237,121.259409 371.569382,59.5754753 C278.301026,-9.71643902 128.02034,8.20421685 65.2354187,104.531767 C-3.86767312,210.552949 3.51029818,333.688746 88.9843221,422.262864 C163.309201,499.283464 329.168422,496.900871 408.338226,444.63643 C412.419801,441.941953 417.912876,443.066417 420.607353,447.147992 C423.30183,451.229567 422.177365,456.722642 418.095791,459.417119 C332.437563,515.964934 157.22302,518.481918 76.2397226,434.561402 C-15.1540989,339.852779 -23.0788021,207.592215 50.3978781,94.8608697 C119.031171,-10.4395255 281.024533,-29.7568932 382.131538,45.3585938 C474.964219,114.326832 476.952936,300.413957 391.963932,346.917374 C349.529055,370.136457 315.721047,360.417992 292.16692,330.485214 C288.332054,325.611836 285.023425,320.488743 282.205084,315.31196 C239.504954,361.462332 196.524709,372.01119 164.364763,348.215714 C134.449076,326.080789 122.581213,278.338731 136.242662,236.221532 C152.603712,182.158115 200.05974,143.375772 256.199284,138.118548 C314.782265,131.965998 329.364691,148.162053 312.533699,204.631064 C311.898393,206.163274 310.758727,209.036379 309.283421,212.97053 C306.81489,219.553279 304.345004,226.643305 302.042736,233.956391 C299.327492,242.581285 297.030896,250.938253 295.287162,258.788477 C291.733823,274.785471 290.733377,287.655974 292.641715,295.713518 C293.327846,297.618235 294.345169,300.100778 295.960462,303.3733 Z" id="Shape"></path>
        </g>
    </g>
</svg>
