<svg viewBox="0 0 488 479" version="1.1" xmlns="http://www.w3.org/2000/svg" xmlns:xlink="http://www.w3.org/1999/xlink">
    <title>ipoddock</title>
    <defs></defs>
    <g id="Page-1" stroke-width="1" fill-rule="evenodd">
        <g id="ipoddock" transform="translate(-9.805332, -8.250000)" fill-rule="nonzero">
            <path d="M393.854167,219.375 C393.854167,214.804721 397.760055,211.210382 402.314589,211.589414 C458.453248,216.261318 500.631813,264.836632 497.395833,320.625 L497.395817,377.307594 C497.272435,437.826342 448.243009,486.855768 387.708333,486.979167 L120.400788,486.979151 C91.2156023,486.919832 63.2526636,475.25373 42.6787849,454.553631 C22.1049061,433.853533 10.6100481,405.819765 10.7291667,376.666667 L10.7411598,321.057723 C7.61971871,264.788892 49.8577099,216.260136 106.019163,211.589379 C110.573551,211.210606 114.479167,214.804888 114.479167,219.375 L114.479077,358.295957 C114.524026,367.691225 118.311232,376.681237 125.002617,383.276573 C131.694001,389.871908 140.737825,393.52875 150.208333,393.4375 L358.541758,393.4375 C377.977887,393.437727 393.760363,377.731494 393.854167,358.333333 L393.854167,219.375 Z M409.479161,228.272915 L409.479076,358.371075 C409.343635,386.406933 386.577761,409.062827 358.541667,409.0625 L150.283906,409.062134 C136.731919,409.193233 123.686402,403.91832 114.034229,394.404694 C104.382055,384.891069 98.9190936,371.923175 98.8541667,358.333333 L98.8541667,228.27156 C55.4155157,236.105795 23.8493481,275.268217 26.3541667,320.625 L26.3541015,376.698571 C26.2518633,401.734047 36.1123814,425.78197 53.7610641,443.538927 C71.4097468,461.295884 95.3969122,471.303298 120.416667,471.354167 L387.692406,471.354183 C439.606592,471.248343 481.66501,429.189925 481.770833,377.291667 L481.783838,320.174415 C484.378206,275.266671 452.876917,236.110874 409.479161,228.272915 Z" id="Shape"></path>
            <path d="M170.625,24.4791667 C165.159682,24.4791667 160.729167,28.9096822 160.729167,34.375 L160.729167,332.083333 C160.729167,337.548651 165.159682,341.979167 170.625,341.979167 L333.75,341.979167 C339.215318,341.979167 343.645833,337.548651 343.645833,332.083333 L343.645833,34.375 C343.645833,28.9096822 339.215318,24.4791667 333.75,24.4791667 L170.625,24.4791667 Z M170.625,8.85416667 L333.75,8.85416667 C347.844767,8.85416667 359.270833,20.2802329 359.270833,34.375 L359.270833,332.083333 C359.270833,346.1781 347.844767,357.604167 333.75,357.604167 L170.625,357.604167 C156.530233,357.604167 145.104167,346.1781 145.104167,332.083333 L145.104167,34.375 C145.104167,20.2802329 156.530233,8.85416667 170.625,8.85416667 Z" id="Rectangle-path"></path>
            <path d="M351.458333,185.104167 C355.773058,185.104167 359.270833,188.601942 359.270833,192.916667 C359.270833,197.231391 355.773058,200.729167 351.458333,200.729167 L152.916667,200.729167 C148.601942,200.729167 145.104167,197.231391 145.104167,192.916667 C145.104167,188.601942 148.601942,185.104167 152.916667,185.104167 L351.458333,185.104167 Z" id="Shape"></path>
            <path d="M252.083333,315.104167 C227.748287,315.104167 208.020833,295.376713 208.020833,271.041667 C208.020833,246.70662 227.748287,226.979167 252.083333,226.979167 C276.41838,226.979167 296.145833,246.70662 296.145833,271.041667 C296.145833,295.376713 276.41838,315.104167 252.083333,315.104167 Z M252.083333,299.479167 C267.788931,299.479167 280.520833,286.747264 280.520833,271.041667 C280.520833,255.336069 267.788931,242.604167 252.083333,242.604167 C236.377736,242.604167 223.645833,255.336069 223.645833,271.041667 C223.645833,286.747264 236.377736,299.479167 252.083333,299.479167 Z" id="Oval"></path>
            <path d="M211.767395,78.6492717 C208.716424,75.5983007 208.716424,70.6516993 211.767395,67.6007283 C214.818366,64.5497572 219.764967,64.5497572 222.815938,67.6007283 L292.607605,137.392395 C295.658576,140.443366 295.658576,145.389967 292.607605,148.440938 C289.556634,151.491909 284.610033,151.491909 281.559062,148.440938 L211.767395,78.6492717 Z" id="Shape"></path>
        </g>
    </g>
</svg>
