<svg viewBox="0 0 491 468" version="1.1" xmlns="http://www.w3.org/2000/svg" xmlns:xlink="http://www.w3.org/1999/xlink">
    <defs></defs>
    <g id="Page-1" stroke-width="1" fill-rule="evenodd">
        <g id="ironing" transform="translate(0.837964, 0.072602)" fill-rule="nonzero">
            <path d="M476.534454,113.838789 C485.063261,122.33845 489.75868,133.562724 489.75868,145.448083 L489.75868,377.767419 C489.75868,383.414974 485.414817,387.678969 479.650286,387.678969 C473.890572,387.678969 469.541892,383.414974 469.541892,377.767419 L469.541892,145.448083 C469.541892,131.67391 458.537755,120.884063 444.490025,120.884063 L435.826376,120.884063 L435.826376,193.608104 C435.826376,199.260378 431.482511,203.519654 425.717982,203.519654 L417.044701,203.519654 C401.210304,203.519654 387.287785,212.973165 382.62126,226.194859 L392.007282,226.194859 C397.771811,226.194859 402.115676,230.454135 402.115676,236.106409 L402.115676,280.965728 C402.115676,286.618004 397.771811,290.877277 392.007282,290.877277 L10.1083943,290.877277 C4.34386341,290.877277 0,286.618004 0,280.965728 L0,234.685075 C0,232.527107 9.71349744,203.55743 32.2611389,167.377208 L32.2611389,95.3850822 C32.2611389,89.7375279 36.6098198,85.473533 42.3695332,85.473533 L70.3060718,85.4546439 C76.0706027,85.4546439 80.4144661,89.7186411 80.4144661,95.3661931 L80.4144661,106.349644 C130.02217,56.0599847 215.613637,0 350.581647,0 L379.009398,0 C410.336271,0 435.821561,23.7282203 435.821561,52.8914998 L435.821561,100.58404 L444.490025,100.58404 L444.499658,100.58404 C456.582536,100.58404 467.957489,105.291907 476.534454,113.838789 Z M24.1705726,226.199581 L360.844149,226.199581 C365.717751,202.150264 388.260579,184.33403 415.118375,183.715444 L415.118375,53.3731463 C415.118375,35.4058081 398.701264,20.7863936 378.518186,20.7863936 L350.581647,20.7863936 C126.111729,20.7863936 43.159327,180.816115 24.1705726,226.199581 Z M19.7303915,271.058903 L380.921278,271.058903 L380.921278,246.504326 L19.7303915,246.504326 L19.7303915,271.058903 Z M60.2939952,128.812359 C60.221758,128.40154 60.1735992,127.967113 60.1735992,127.504356 L60.1735992,105.783 L52.4779275,105.783 L52.4731123,138.709741 C54.9532569,135.479869 57.5393497,132.183891 60.2939952,128.812359 Z" id="Combined-Shape"></path>
            <path d="M385.746243,137.88669 C385.746243,154.036046 371.703328,167.168021 354.438633,167.168021 L131.4568,167.168021 C127.604149,167.168021 124.50758,164.613402 123.029126,162.427099 L122.783518,162.011561 C120.992037,158.564475 120.823482,155.372382 122.277858,152.51555 C127.474122,141.758758 177.158878,47.7052893 323.602974,47.7052893 L354.905767,47.7052893 C371.900776,47.7052893 385.72698,60.8372667 385.72698,76.9818989 L385.746243,137.88669 Z M297.602394,120.415166 C303.366923,120.415166 307.710788,124.674439 307.710788,130.326715 L307.710788,146.386352 L354.905767,146.405239 C360.848481,146.405239 365.505374,142.462341 365.505374,137.428652 L365.505374,76.5049741 C365.505374,71.7215545 360.549902,67.5283876 354.900952,67.5283876 L323.598159,67.5283876 C219.008305,67.5283876 168.784178,118.389413 149.08268,146.386352 L199.850996,146.386352 L199.850996,130.326715 C199.850996,124.674439 204.194859,120.415166 209.959388,120.415166 L297.602394,120.415166 Z M220.558997,146.867998 L287.494,146.867998 L287.494,140.719911 L220.558997,140.719911 L220.558997,146.867998 Z" id="Combined-Shape"></path>
            <path d="M321.35447,358.162954 C324.263223,358.809872 326.76263,360.632578 328.385559,363.305249 C333.283242,371.861573 335.734493,380.663443 335.734493,389.573921 C335.734493,418.741924 311.539842,442.470142 281.797372,442.470142 C274.173939,442.470142 266.863532,440.940205 260.000998,437.927546 C245.187552,456.50875 222.278725,467.496922 197.987756,467.496922 C173.677526,467.496922 150.768697,456.50875 135.969701,437.927546 C129.11198,440.940205 121.796759,442.470142 114.17814,442.470142 C84.4356721,442.470142 60.2362059,418.741924 60.2362059,389.573921 C60.2362059,380.663443 62.69227,371.861573 67.5225328,363.404411 C70.792469,358.554881 76.5666303,356.94939 81.4257889,359.324572 L81.878475,359.579563 C86.5642612,362.620553 88.1968228,368.286994 85.7744675,373.046802 C82.485266,378.991843 80.9249438,384.351352 80.9249438,389.555034 C80.9249438,407.527094 95.8298877,422.141789 114.158877,422.141789 C120.47241,422.141789 127.190472,420.068816 132.637156,416.451737 C134.823537,414.591257 138.276476,413.906561 141.055199,414.822635 C143.569055,415.653713 145.731355,417.259204 147.137573,419.341622 C158.098367,436.827312 176.880043,447.192177 197.453202,447.192177 C218.30086,447.192177 237.06809,436.841479 247.667697,419.502172 C249.179862,417.259204 251.337347,415.653713 253.856018,414.822635 C256.446926,413.949059 259.172678,414.435429 261.961034,416.243968 C268.158986,420.14909 274.660337,422.141789 281.238737,422.141789 C299.567727,422.141789 314.477488,407.527094 314.477488,389.555034 C314.477488,384.025531 312.88827,378.552694 309.757991,373.287628 C308.361404,370.586624 308.154323,367.644798 309.050065,364.986292 C309.873569,362.559166 311.530209,360.604245 313.731038,359.442624 C316.023365,358.035458 318.729851,357.586864 321.35447,358.162954 Z" id="icon-ironing-path"></path>
            <path d="M198.556023,402.367328 C198.233363,402.367328 197.905888,402.348439 197.583229,402.310663 C191.992068,402.145391 187.816757,397.942781 187.816757,392.403835 L187.816757,339.517059 C187.816757,333.869505 192.16062,329.60551 197.925151,329.60551 C203.684865,329.60551 208.033546,333.869505 208.033546,339.517059 L208.033546,392.422724 C208.033546,395.388162 206.651407,398.306378 204.339815,400.223525 C202.654281,401.616523 200.602744,402.367328 198.556023,402.367328 Z" id="icon-ironing-path"></path>
            <path d="M127.141832,393.158418 C124.97953,391.973186 123.318074,390.117428 122.431965,387.902793 C121.406197,385.334006 121.526591,382.57634 122.769073,380.135049 L143.409652,335.422111 C144.67621,332.93832 146.669958,331.134503 149.092313,330.199541 C151.707299,329.19847 154.519736,329.316521 157.009511,330.534805 C159.398156,331.705869 161.237796,333.656071 162.186512,336.031253 C163.212281,338.60004 163.091884,341.357706 161.849405,343.799 L141.204008,388.511937 C139.316209,392.157346 135.805481,394.310593 131.952829,394.310593 C130.65256,394.310593 128.759946,394.310593 127.141832,393.158418 Z" id="icon-ironing-path"></path>
            <path d="M263.404814,394.309177 C259.542532,394.309177 256.026987,392.141763 254.230688,388.656903 L233.440819,343.63231 C231.042542,338.872501 233.171133,333.054956 238.348132,330.5145 C243.35658,328.09682 249.284846,330.18396 251.875754,335.260146 L272.655995,380.265848 C275.05427,385.025659 272.930496,390.843204 267.74868,393.383658 C265.894591,394.309177 264.570241,394.309177 263.404814,394.309177 Z" id="icon-ironing-path"></path>
            <path d="M201.286107,199.75572 C201.286107,180.532322 231.153789,180.537044 231.153789,199.75572 C231.153789,209.365059 223.641117,214.394026 216.219949,214.394026 C208.798778,214.394026 201.286107,209.365059 201.286107,199.75572 Z" id="icon-ironing-path"></path>
            <path d="M236.445404,199.75572 C236.445404,180.537044 266.313086,180.537044 266.313086,199.75572 C266.313086,209.365059 258.800414,214.394026 251.379244,214.394026 C243.958075,214.394026 236.445404,209.365059 236.445404,199.75572 Z" id="icon-ironing-path"></path>
            <path d="M272.091098,199.75572 C272.091098,180.537044 301.939517,180.537044 301.939517,199.75572 C301.939517,209.365059 294.431661,214.394026 287.015307,214.394026 C279.598954,214.394026 272.091098,209.365059 272.091098,199.75572 Z" id="icon-ironing-path"></path>
        </g>
    </g>
</svg>
