<svg xmlns="http://www.w3.org/2000/svg" viewBox="0 0 500 655"><g><path d="M249.9 15.3c21.6.2 42.4 1.9 62.1 4.8l4-14.7C294.8 2.1 272.5.2 249.7 0c-28 .3-55 2.9-80.1 7.5l5.7 14.7c23.2-4.2 48.4-6.6 74.6-6.9zM38 123.4c3.1 52.5 98 96 211.9 97.2 113.9-1.1 208.8-44.7 211.9-97.2-2.3-39.6-56.9-74.1-132.5-89.1l-15.4 56.9c2.3 7.2 2.4 17.3-.1 28-4.5 18.8-15.7 32.3-24.9 30-9.2-2.2-13-19.3-8.5-38.1 2.8-11.6 8.1-21.2 14-26.3L309 30.7c-18.8-2.8-38.7-4.3-59.2-4.5-24.7.2-48.5 2.5-70.7 6.4l32.5 84.4c6.1 4.4 12.2 12.5 16.4 22.7 7.5 17.9 6.4 35.3-2.4 38.9-8.8 3.7-21.9-7.9-29.3-25.7-4.6-11-5.9-21.9-4.2-29.5l-33.4-86.7C89.4 52.9 40.3 85.9 38 123.4z"/><path d="M499.7 126c0-51.3-69.5-97.9-163.4-117l-3.9 14.6C413.3 39.8 470.5 78 472.9 123v.6c-3.1 59.2-101 106.6-222.8 107.7h-.2c-121.8-1.2-219.6-48.5-222.7-107.7v-.6c2.2-42.6 53.6-79 127.6-96.6l-5.7-14.7C63.1 31.9 2.5 75.6 0 126c.1 1.3 0 56.2 0 57.4.1 51.8 112 114.2 249.9 113.9 86.9-.2 163.4-25.2 208.1-56.6-.3 19.4-1.6 57.7-7.1 107.9 0 0-4.9-57.2-23.1-77.4 0 0 5.2 66.7 1.9 78.7-.8 2.9-16.4-57.2-44.2-65.8 10.8 19.9 27.6 50.6 42.1 91.9 0 0-46.7-92.9-131.7-49.5 0 0 52.7-21.1 102.1 38.4 0 0-86.9-65.7-122.9-1.8 0 0 39.1-33.3 92.1-4.1 0 0-58-24.9-96.8 31.3 0 0 47.7-53.4 119.2-11.5-21.2-6.9-71.5-3.8-90.7 23.9 30.8-5.5 52.4 1 68 12 0 0-88.7-33.5-100.9 40.3 0 0 20.8-29.9 48.7-35 0 0-34.3 17.6-45.8 56.1l67.1-51.9s-29.5 40.9-46.8 56.5c-21.3 2.9-57.5 18.9-81 18.9-13.2 0-22.6-9-22.6-21 0-13.6 12-19.4 20.4-19.4 9.4 0 15 5.7 15 5.7-1-14.5-14.9-21.1-24.4-21.1-37.5 0-52.4 36.5-101.3 36.5-40.8 0-53-31.2-56.7-47.4-1.8-9.3-2.5-18.8-1.9-28.4.8-18.7 8.1-37.3 22.3-49.5 14-12.1 34-18.2 52.3-14.1 9 2.1 17.5 7 22.9 14.5 5.5 7.4 7.8 17.1 6.7 26.4-1 9.3-5.4 18.5-13.1 23.9-3.8 2.7-8.3 4.5-12.9 5.3-4.7.7-9.5 1-13.9-.7-1.8-.5-10.5-4.3-15.2-12.5-2.4-3.9-3.6-8.6-3.5-12.6 0-4 1-7.2.9-8.7 0-2.1-1.7-3.2-3.6.9-.2.3-1.3 2.7-1.9 6.4-.6 3.7-.3 8.8 1.5 13.4 3.4 9.4 11.8 15.4 14.3 16.6 5 3 11.5 4.8 17.3 4.3 5.6-.2 11.4-1.5 16.7-4.1 5.3-2.6 9.8-6.7 13.2-11.4 3.4-4.8 5.5-10.1 6.8-15.6 2.4-11 .8-22.9-5-32.8-5.9-9.9-15.8-16.8-26.4-19.9-10.7-3.2-21.9-2.9-32.3-.5-10.5 2.5-20.4 7.3-28.8 14.1-8.4 6.8-15.1 15.6-19.5 25.4-4.5 9.7-8.6 24.3-7.7 48.5C30.1 491.5 102.7 578 250 578c79.7 0 129.1-30.5 134.5-29.5 1.8.4 3.7 1.3 4.1 2.8.4 1.5-.2 3.4-2.6 5-54.5 31.4-101.6 39.7-136 39.7-136.6 0-189.7-69-191-69.9C111.2 614.3 182.5 655 250 655c91.5 0 182.2-78.2 215-187.6 28.8-96.1 35-203.2 35-284.7 0-25.9-.3 9.4-.3-56.7zm-96 276c3.8 4.9 7.6 10.7 11 17.6 0 0-6.5-9.9-17.2-19.7 2 .6 4.1 1.3 6.2 2.1zm10.4 36.4c-1.7 4.7-4.4 11.2-7.9 18.4-3.8 1.3-7.4 2.8-10.8 4.6 5-6 10.6-13.7 17-23.6.5.2 1.1.4 1.7.6zm-58.7-42.8c3.7-.2 7.5-.4 11.4-.3 7.8 4.4 16.3 11 25.2 21 0 0-15.1-14.6-36.6-20.7zm-60.6 84.7c13.4-6.5 38.3-21.7 62.1-53.3-5.2 14.8-29.6 46.4-37.1 55.8-7.1-1.6-15.2-2.6-25-2.5zm26.2 2.9c8.9-6.8 34.2-26.8 58-51.5-15.7 28.1-21.7 32.9-32.3 47.8 0 0 37.3-12.7 52.5-48.3 0 0-4 19.4-16.3 38.1-11.5 8.5-20.4 19.1-26.9 29-11-5.5-21.1-11.6-35-15.1zm50.2 21c-3.3-1-6.3-2.1-9.3-3.4 32.5-31.7 66.9-29.1 66.9-29.1-28.8 5.4-46.6 18.3-57.6 32.5zm24.1 3.4c18-15.1 35.5-24.3 46.7-29.4-.2 1.1-15.6 28.7-46.7 29.4zm30.3-54.7c1.8-2.3 3.5-4.8 4.9-7.5 4.4 2.3 8.8 4.9 13 7.9-6.3-.7-12.3-.9-17.9-.4z"/></g></svg>
