<svg xmlns="http://www.w3.org/2000/svg" viewBox="0 0 500 394.3"><path d="M398.5 329.1c61.8-28.1 94.3-93.2 101.5-168.9-23.2 4.8-51.7 11-69.3 15.4-17.6 4.4-44.4 16-64.5 33-10.7 9.1-19.1 21-22.9 34.3-3.9 13.2-3.3 27.6 2.3 39.8 2.8 6.2 6.8 11.9 12 16.1 2.6 2.1 5.4 3.8 8.4 5 3 1.2 6.4 1.9 9.8 2.4 6.8.9 13.7.5 19.9-1.6 6.2-2.1 11.4-6.1 14.7-11.6 3.2-5.3 4.3-12.1 3.3-18.4-.9-6.4-4-12.3-8.7-16.5-2.3-2.1-5.1-3.8-8-5-2.8-1.1-5.8-1.6-8.9-1.5-6 .3-12 3.4-14.9 8.2-.4.6-1.1 1.8-1.6 3.6s-.7 4-.3 6.2c.7 4.5 3.8 8.4 4 8.7 1.4 1.8.3 2.9-1.2 2.6-1.1-.2-2.8-1.5-4.5-3.7-1.7-2.2-3.3-5.4-3.7-8.9-.5-3.5.3-7.2 1.6-9.8 1.2-2.6 2.7-4.3 3.3-4.9 5.1-5.6 12.9-8.5 20.5-8 3.8.2 7.6 1.3 10.9 3.1 3.4 1.7 6.5 4 9.1 6.8 5.3 5.5 8.4 13 9.1 20.6.7 7.6-.9 15.6-5.3 22.2-4.3 6.5-11.2 11.3-18.6 13.5-7.4 2.3-15.2 2.6-22.8 1.6-3.8-.5-7.5-1.4-11.3-2.9-3.7-1.5-7.1-3.6-10.1-6.1-6.1-5-10.7-11.5-13.9-18.5-6.5-14.5-6.6-31.3-1.8-46.1 2.4-7.5 6.2-14.5 10.8-20.7 4.6-6.3 10-11.8 15.8-16.8 11.7-9.9 25-17.5 38.8-23.5 4.2-1.8 8.5-3.5 12.9-5 25.5-28 47.7-74.8 47.7-74.8s-41.7 3.8-77.7 11.4c-9.3-28.6-26.2-80.8-35.9-98.1-19 5.5-42.7 19.4-60.9 33.1C285.2 42.1 245.9 0 245.6 0c-24 21.9-52.1 86.2-59.8 117.9-7-15.2-64.9-100-66.1-100.4-53.9 71.8-54.4 126.5-51.2 152 28.5 7.3 60.8 19.7 77.7 31.4 5.8 4 11.2 8.6 15.9 14 4.7 5.4 8.5 11.7 11 18.5 2.5 6.8 3.8 14.1 3.7 21.4-.1 7.3-1.7 14.6-4.4 21.4-9.9 25.6-35.3 34.1-56.1 28.2-21.1-6-26.6-24.9-25.1-36.1 1-7.9 4.1-15.7 9.9-21.4 2.9-2.9 6.2-5.2 9.8-6.9 3.8-1.8 8-2.7 12.1-2.7 8.3 0 16.8 3.8 21.9 11 .6.8 1.9 2.8 2.9 5.7 1 2.9 1.4 6.6.9 10-.5 3.5-1.7 6.5-2.9 8.6-1.1 2.1-2.1 3.5-2.2 3.7-1.7 2.4-2.9 1.3-3-.2 0-1.1.8-3.2 1.7-5.8.8-2.6 1.6-5.9 1.4-9.1-.1-3.2-1.2-6.2-2.5-8.3-1.3-2.1-2.7-3.4-3.1-3.9-4.7-4.5-11.6-6.5-18-5.6-3.2.4-6.2 1.6-9 3.3-2.8 1.7-5.3 3.8-7.3 6.4-4.1 5-6.2 11.5-6.2 17.9-.1 6.4 1.9 12.8 5.9 17.6 4 4.9 9.7 8 15.9 9.3 6.2 1.3 12.8 1.1 19.1-.4 12.6-2.3 21.9-12.8 26.8-24.5 5.2-12 5.3-25.8.7-38-4.4-12.3-13.9-22.1-25-29.7C110.6 184.7 40.2 167.2.6 160.1c-7.2 125.9 68.5 169.2 137 166.1-.1-.1-.2-.1 0 0s.1.1 0 0c-32.9 9.9-43.2 22.2-62.6 47.2 81.6 30.9 136.6 24.3 167.3-14.7v-46.1c-24.6-15.8-45-33.8-45-71.5v-69.9c0-7.4 6-13.4 13.4-13.4s13.4 6 13.4 13.4v65.2c0 26.2 7.3 36.7 18.2 45.2V96.7c0-10 8.1-18 18-18 10 0 18 8.1 18 18v127c12.2-8.4 16.7-17.1 16.7-37.7v-62.2c0-6.1 5-11.1 11.1-11.1s11.1 5 11.1 11.1v66c0 29.1-16.5 46.9-38.9 60v105.6c21.1 31.5 68.7 59.4 175.8 17.7-14.8-18.8-33.2-33.6-55.6-44z"/></svg>
