<svg viewBox="0 0 500 501" version="1.1" xmlns="http://www.w3.org/2000/svg" xmlns:xlink="http://www.w3.org/1999/xlink">
    <defs></defs>
    <g id="Page-1" stroke-width="1" fill-rule="evenodd">
        <g id="juicer" fill-rule="nonzero">
            <path d="M151.148644,367.27608 C146.795832,367.27608 143.267181,363.747429 143.267181,359.394617 C143.267181,355.041806 146.795832,351.513155 151.148644,351.513155 L194.023801,351.513155 C198.376613,351.513155 201.905264,355.041806 201.905264,359.394617 C201.905264,363.747429 198.376613,367.27608 194.023801,367.27608 L151.148644,367.27608 Z M151.148644,293.925933 C146.795832,293.925933 143.267181,290.397282 143.267181,286.04447 C143.267181,281.691659 146.795832,278.163008 151.148644,278.163008 L194.023801,278.163008 C198.376613,278.163008 201.905264,281.691659 201.905264,286.04447 C201.905264,290.397282 198.376613,293.925933 194.023801,293.925933 L151.148644,293.925933 Z M139.589165,330.495921 C135.236353,330.495921 131.707702,326.967269 131.707702,322.614458 C131.707702,318.261646 135.236353,314.732995 139.589165,314.732995 L205.58328,314.732995 C209.936092,314.732995 213.464743,318.261646 213.464743,322.614458 C213.464743,326.967269 209.936092,330.495921 205.58328,330.495921 L139.589165,330.495921 Z M139.589165,257.145773 C135.236353,257.145773 131.707702,253.617122 131.707702,249.264311 C131.707702,244.911499 135.236353,241.382848 139.589165,241.382848 L205.58328,241.382848 C209.936092,241.382848 213.464743,244.911499 213.464743,249.264311 C213.464743,253.617122 209.936092,257.145773 205.58328,257.145773 L139.589165,257.145773 Z M483.845933,313.873265 L483.543544,312.826716 C483.610844,313.14965 483.70943,313.498182 483.845933,313.873265 Z M483.74531,310.070534 C483.88165,309.94573 484.005083,309.827082 484.115318,309.714915 C484.078314,309.752568 484.040497,309.794812 484.002567,309.841749 L483.74531,310.070534 Z M456.93739,220.744353 C456.512661,219.257804 447.875434,215.325144 435.209068,212.391309 C429.376686,211.04039 423.080865,209.908459 416.778511,208.993136 C412.995867,208.443763 410.069753,208.091012 408.440203,207.924731 C404.109877,207.482861 400.957661,203.614232 401.399531,199.283906 C401.841401,194.953581 405.71003,191.801365 410.040355,192.243234 C411.87921,192.430873 415.022805,192.809842 419.044073,193.393871 C425.748239,194.367552 432.458937,195.574074 438.765973,197.034935 C457.763243,201.435158 469.317225,206.695861 472.087337,216.39138 L498.839968,309.034673 C502.485676,319.242655 493.28253,325.197274 465.541867,338.720558 C462.237964,340.331176 458.73034,341.992106 455.0446,343.694913 C446.256969,347.754789 436.859308,351.871092 427.464017,355.836124 C421.827249,358.214972 417.437077,360.017584 414.912449,361.032575 C410.873806,362.656253 406.283588,360.698537 404.659909,356.659894 C403.036231,352.621251 404.993946,348.031032 409.03259,346.407354 C411.478784,345.423897 415.787549,343.65471 421.335131,341.313501 C430.580421,337.411772 439.823342,333.363248 448.433587,329.385325 C452.024172,327.726478 455.433836,326.111935 458.634637,324.551578 C467.451519,320.25344 474.471635,316.469598 479.208119,313.404998 C480.759287,312.401362 482.018183,311.502913 482.944807,310.75452 L456.93739,220.744353 Z M240.15663,16.3727119 C191.739307,22.5940531 152.514764,85.5714565 152.514764,163.513995 C152.514764,167.866807 148.986113,171.395458 144.633301,171.395458 C140.28049,171.395458 136.751838,167.866807 136.751838,163.513995 C136.751838,73.709177 185.68384,0.105 248.038093,0.105 C310.426181,0.105 359.53452,73.7675091 359.53452,163.513995 C359.53452,167.866807 356.005869,171.395458 351.653057,171.395458 C347.300246,171.395458 343.771595,167.866807 343.771595,163.513995 C343.771595,85.6261177 304.395261,22.5931455 255.919556,16.3721469 L255.919556,163.513995 C255.919556,167.866807 252.390905,171.395458 248.038093,171.395458 C243.685281,171.395458 240.15663,167.866807 240.15663,163.513995 L240.15663,16.3727119 Z M403.145281,449.243293 L92.9309053,449.243293 C72.6669679,449.243293 55.9945001,464.620203 53.9454493,484.342074 L442.130737,484.342074 C440.081686,464.620203 423.409218,449.243293 403.145281,449.243293 Z M92.9309053,433.480368 L403.145281,433.480368 C433.498888,433.480368 458.105348,458.086828 458.105348,488.440435 L458.105348,492.223537 C458.105348,496.576349 454.576697,500.105 450.223886,500.105 L45.8523008,500.105 C41.4994891,500.105 37.970838,496.576349 37.970838,492.223537 L37.970838,488.440435 C37.970838,458.086828 62.5772983,433.480368 92.9309053,433.480368 Z M25.9700768,171.395458 L92.6386708,243.930888 C95.5842386,247.135666 95.3741074,252.121506 92.1693296,255.067074 C88.9645519,258.012642 83.9787118,257.802511 81.033144,254.597733 L2.21851599,168.847418 C-2.42549394,163.794735 1.15859538,155.632533 8.02127939,155.632533 L86.8359074,155.632533 C91.1887191,155.632533 94.7173702,159.161184 94.7173702,163.513995 C94.7173702,167.866807 91.1887191,171.395458 86.8359074,171.395458 L25.9700768,171.395458 Z M78.9544446,163.513995 C78.9544446,159.161184 82.4830957,155.632533 86.8359074,155.632533 L409.240279,155.632533 C413.593091,155.632533 417.121742,159.161184 417.121742,163.513995 L417.121742,389.869607 C417.121742,410.945845 394.198681,426.754853 367.205811,426.754853 L128.870376,426.754853 C101.877506,426.754853 78.9544446,410.945845 78.9544446,389.869607 L78.9544446,163.513995 Z M94.7173702,171.395458 L94.7173702,389.869607 C94.7173702,400.72507 109.604313,410.991927 128.870376,410.991927 L367.205811,410.991927 C386.471873,410.991927 401.358816,400.72507 401.358816,389.869607 L401.358816,171.395458 L94.7173702,171.395458 Z" id="Shape"></path>
        </g>
    </g>
</svg>
