<svg viewBox="0 0 35 12" version="1.1" xmlns="http://www.w3.org/2000/svg" xmlns:xlink="http://www.w3.org/1999/xlink">
    <g id="Activité" stroke="none" stroke-width="1" fill="none" fill-rule="evenodd">
        <g id="Reco-Visuel" transform="translate(-248.000000, -2700.000000)" fill="#78B4C3">
            <g id="02-+-03-+-01-copy-+-01-+-Rectangle-Mask-Copy-Copy" transform="translate(-95.000000, 2363.000000)">
                <g id="01-Golf" transform="translate(210.000000, 40.000000)">
                    <g id="bloc" transform="translate(0.000000, 267.000000)">
                        <g id="bloc-bleu" transform="translate(115.000000, 0.000000)">
                            <g id="Group-8" transform="translate(17.928571, 30.000000)">
                                <path d="M28.3294475,6.5052989 L28.3294475,5.12107534 C28.3294475,4.01403608 27.769665,3.46051645 26.6505119,3.46051645 C26.1401583,3.46051645 25.7307221,3.5942271 25.4217913,3.86164839 C25.1128606,4.12949416 24.9583952,4.54930315 24.9583952,5.12107534 L24.9583952,6.5052989 C24.9583952,7.06815706 25.1128606,7.48117439 25.4217913,7.74392642 C25.7307221,8.00710294 26.1401583,8.13869119 26.6505119,8.13869119 C27.769665,8.13869119 28.3294475,7.5940856 28.3294475,6.5052989 M30.0887052,5.24587195 L30.0887052,6.28372126 C30.0887052,8.3785214 28.9423661,9.42570923 26.6505119,9.42570923 C24.3491838,9.42570923 23.1987257,8.36918288 23.1987257,6.25613017 L23.1987257,5.24587195 C23.1987257,4.26787407 23.4940635,3.51357623 24.085151,2.98297842 C24.6762385,2.45238062 25.5313588,2.18708171 26.6505119,2.18708171 C27.769665,2.18708171 28.6223139,2.45238062 29.2092823,2.98297842 C29.7954269,3.51357623 30.0887052,4.26787407 30.0887052,5.24587195 Z M35.0714286,2.32541917 L35.0714286,3.59885391 L33.8492985,3.59885391 C33.1062171,3.59885391 32.7346764,3.98173329 32.7346764,4.74749204 L32.7346764,9.28728688 L31.0021928,9.28728688 L31.0021928,4.80267421 C31.0021928,4.0555925 31.2213277,3.45580474 31.6600093,3.00373541 C32.098691,2.55166608 32.7029595,2.32541917 33.4732268,2.32541917 L35.0714286,2.32541917 Z M20.4188433,9.28715953 L22.1381458,9.28715953 L22.1381458,2.32529183 L20.4188433,2.32529183 L20.4188433,9.28715953 Z M20.4188433,1.50859568 L22.1381458,1.50859568 L22.1381458,0 L20.4188433,0 L20.4188433,1.50859568 Z M1.5353484,1.50859568 L3.25465098,1.50859568 L3.25465098,0 L1.5353484,0 L1.5353484,1.50859568 Z M1.52216736,9.82709586 L1.52216736,2.32529183 L3.25465098,2.32529183 L3.25465098,9.89628582 C3.25465098,10.5419172 3.0351042,11.053838 2.59642254,11.4324726 C2.15774088,11.8106827 1.59342738,12 0.904305864,12 L0.0714285714,12 L0.0714285714,10.6849664 L0.635330161,10.6849664 C1.22641766,10.6849664 1.52216736,10.3988681 1.52216736,9.82709586 Z M7.82097694,9.42566678 C5.6362187,9.42566678 4.54383958,8.42007782 4.54383958,6.40847542 L4.54383958,2.32541917 L6.27632321,2.32541917 L6.27632321,6.50525646 C6.27632321,7.58512911 6.79120779,8.12464096 7.82097694,8.12464096 C8.8507461,8.12464096 9.36563068,7.58512911 9.36563068,6.50525646 L9.36563068,2.32541917 L11.0981143,2.32541917 L11.0981143,6.40847542 C11.0981143,8.42007782 10.0053233,9.42566678 7.82097694,9.42566678 Z M16.0807141,2.18695437 C18.0953545,2.18695437 19.1024688,3.16070746 19.1024688,5.1073647 L19.1024688,9.28720198 L17.3568041,9.28720198 L17.3568041,5.07977361 C17.3568041,4.018578 16.8147336,3.48798019 15.7314164,3.48798019 C15.2120009,3.48798019 14.8046242,3.62169084 14.5092864,3.88953661 C14.2139486,4.15738238 14.0660738,4.52625398 14.0660738,4.99657588 L14.0660738,9.28720198 L12.3335901,9.28720198 L12.3335901,2.32533428 L13.79751,2.32533428 L13.8914249,2.87885391 C14.5360604,2.41744606 15.2659608,2.18695437 16.0807141,2.18695437 Z" id="Fill-6"></path>
                            </g>
                        </g>
                    </g>
                </g>
            </g>
        </g>
    </g>
</svg>
