<svg xmlns="http://www.w3.org/2000/svg" viewBox="0 0 500 294.3"><path d="M350.1 117.9C342.4 77.9 274.5 0 197.6 0 175.7 0 153 4.1 139 15.3c5.8 4.6 10.4 10 11.4 11.3 10.6 12.9 17.9 28 24.6 43.1 6.7 15.1 12.7 30.5 20.8 44.6 4 7 8.6 13.7 14.1 19.4 5.5 5.7 12.1 10.3 19.3 13.6 7.1 3.3 14.9 5.1 22.7 5.1 7.8.1 15.5-1.6 22.6-4.7 7.3-3.1 14-7.7 19.2-13.5 5.1-5.7 8.9-13.1 11.2-20.6 2.3-7.5 2.9-15.6 1.2-23-.8-3.7-2.3-7.3-4.3-10.5-1.9-3.2-4.5-6-7.5-8.3-6-4.7-13.5-7.5-21-7.8-7.6-.3-15 2-21 6.6-3 2.3-5.5 4.9-7.3 8.1-1.8 3.2-3 6.7-3.5 10.4-1 7.3.9 15.1 5.4 20.5.5.6 1.8 2.1 3.6 3.5 1.9 1.4 4.4 2.6 7.1 3.2 5.4 1.3 11-.1 11.5-.2 2.6-.6 3.1.6 2.1 1.8-.7.9-2.9 2-6.1 2.6-3.1.7-7.2.7-11-.4-3.9-1.1-7.3-3.4-9.6-5.7-2.3-2.3-3.6-4.4-4.1-5.2-4.4-7.4-5.5-16.4-3.5-24.7 1-4.2 2.8-8.2 5.3-11.7 2.6-3.5 5.8-6.4 9.4-8.7 7.2-4.8 16.1-6.8 24.7-5.9 8.6.9 16.9 4.4 23.5 10.1 3.3 2.8 6.2 6.3 8.3 10.1 2.1 3.8 3.7 8 4.5 12.3 1.7 8.6.8 17.5-1.8 25.8-1.3 4.1-3 8.1-5 11.9-2.1 3.8-4.5 7.4-7.5 10.7-5.9 6.5-13.2 11.5-21.2 15-8.2 3.5-17.2 5.3-26.1 5-9-.2-17.8-2.5-25.8-6.5-4-2-7.8-4.3-11.3-7-3.6-2.6-6.9-5.7-9.9-9-6-6.6-10.7-14-14.8-21.5-8.2-15.2-14.1-31.1-20.8-46.3-6.7-15.2-14.1-30.2-24.8-42.3-35-39.1-81.8-21-129.3 23 75.1-30 218.5 87 191.4 170.7-145.7 13-134.9-156-194-161.9-7.5-.8-14.3 2.5-10.7 13 42.8 123.3 88.8 226.9 192.6 187.5.6 19 40.2 35.5 73.4 35.5 20.3 0 47-6.2 57.7-23.7 6.3-10.3 7.6-25.9 7.8-45.8-22.7.2-45.7-6.1-52.3-8.3-8-2.7-11.4-9.3-9.5-11.3 1.9-2 6.4 1.2 11.2 2.5 11.7 3.2 26.9-.8 46-6.7-7.3-21.5-8.3-45.3-8.3-52.3.1-8.4 5.3-13.7 7.8-12.6 2.5 1.2.9 6.5 1.1 11.5.6 12.1 9.1 25.4 20.6 41.7 18.2-13.6 40.5-21.9 47.2-24 8-2.5 14.7.8 14.4 3.5-.3 2.7-5.9 2.8-10.6 4.6-11.3 4.3-21.3 16.5-33.2 32.5 18.5 13.2 33.4 31.8 37.4 37.5 4.9 6.8 3.8 14.2 1.1 14.7-2.7.5-4.5-4.8-7.6-8.6-7.6-9.4-22.3-15.2-41.1-21.6-6.7 20.3-18.6 41.2-26.6 49.9 24 12.7 74.9 12.6 83.2-9 4.3 4.5 13.7 9.7 31.4 3.5 29.6-10.2 52-30 55.3-47.8-83.7-34.4-67.8-93.7-149.9-106.6z"/></svg>
