<svg xmlns="http://www.w3.org/2000/svg" viewBox="0 0 500 645.9"><path d="M472.6 67.4V46.5H310c4.5 5.8 8.3 13 11 21.1 3.9 12.2 4.4 24.1 2 33.4h129v-.5c0-24.1 20.6-33.1 20.6-33.1zM57 63.4v.6h207.6c-.4-15.8 5.4-28.6 15.8-31.7 3.4-1 7-.9 10.6.1h.2V0H32.1v24.4S57 35 57 63.4zM252.2 389.2c0-15.7.6-30.7 1.6-45C229 342.2 113.3 327.9 56 230c0 0 116.2-10.8 198.3 108.1 1.2-14.4 2.8-28.2 4.8-41.4-6-1.3-90.4-21.1-111.2-133.5 0 0 82.1 6.4 111.3 132.6 16.4-105.6 56.7-167.5 69.9-183.7h-11.3c-2.5 3.3-5.6 5.6-9.4 6.7-14.6 4.4-32.7-11.4-40.4-35.4-1-3.2-1.8-6.4-2.4-9.6H58.4L30.1 583l74.5-.7c15.7.1 31.3-.8 46.5-3.7 15.1-2.9 30-7.8 42.4-16.2 12.4-8.3 21.7-20.6 25.7-34.9 2-7.1 2.9-14.6 2.8-22.1-.1-7.3-1.6-14.6-4.4-21.4-5.4-13.6-16.1-24.9-29.8-29.6-13.5-4.6-29.7-4.2-42.2 2.1-12.5 6.2-21.2 20.1-21.2 33.6.1 7 1.9 14.2 5.4 19.9 3.5 5.8 8.8 10 15.3 11.7 1.5.4 5.1 1.2 9.7 1.1 4.4-.1 9.7-1.6 13.7-4.6 4.1-3 6.8-7.4 8-11 1.3-3.7 1.5-6.5 1.6-6.9.4-4.8 2-5.1 3.2-2.7.8 1.7 1.3 6.4-.4 12.1-1.6 5.7-6.1 12.3-12.8 15.9-6.7 3.8-14.7 4.2-20.6 3.3-6.1-.8-10.3-3.1-11.8-4-7.1-4-12.2-10.9-15.1-18.4-2.8-7.5-4-15.7-2.6-23.7 2.7-16 14.6-30 29.9-35.5 7.6-2.8 15.7-3.9 23.7-3.6 8 .3 16.1 1.9 23.5 5.3 15 6.7 26.1 20.4 31.2 35.8 2.6 7.7 3.8 15.9 3.6 23.9-.1 8-1.3 16.1-3.8 23.9-4.9 15.6-16 29.1-29.6 37.8-13.7 8.9-29.2 13.8-44.8 16.8-15.6 3-31.5 3.9-47.2 4l-76.2.2C25.4 604.7 9.8 616 0 623v22.9h319v-15.5c-52.9-46.2-66.8-183.6-66.8-241.2zM234 110.1c15.9-6.8 37.7 8.6 48.6 34.3 11 25.7 7 52.1-8.9 58.9-15.9 6.8-37.6-8.6-48.6-34.4-11-25.7-7-52.1 8.9-58.8z"/><path d="M479.1 559c-24.6.4-49.3.3-74.2-2.5-20.1-2.6-40.8-6.5-59.4-17.5-9.1-5.5-17.5-13.3-22.7-23.1-5.3-9.7-7.3-20.8-7.4-31.4-.1-11.4 4.4-22.8 12.9-30.8 4.2-4 9.5-6.9 14.9-8.6 5.5-1.7 11-2.4 16.7-2.1 5.7.3 11.8 1.9 16.9 5.4 5.1 3.5 8.9 8.6 11.2 13.9 1.2 2.7 2 5.5 2.5 8.4.6 2.8.7 6.4.1 9.5-1.2 6.3-4.6 11.9-9.4 15.9-1.2.9-3.8 3-7.9 4.5-4 1.5-9.9 2.1-15.1 0-5.2-1.9-9.4-6.6-10.5-11.2-1.3-4.6.1-8 .1-8.4.9-2.7 2.2-3.5 2.8-3.5.7 0 1 .9 1 2 0 1.6-.9 5.4 1 9.2 1.8 3.8 6.1 6.6 10.6 7.1 4.6.5 8.9-1.2 11.8-3.3 3-2 4.6-4.2 5.2-5 2.8-3.7 4.3-8.4 4-12.9-.5-4.6-2-9.2-4.5-13.1-2.5-3.9-6-7.1-10.2-8.9-4.2-1.9-8.9-2.4-13.5-2.1-9.4.4-18.6 4.1-24.5 11.1-6 7-8.9 16.3-8.1 25.5.4 9.5 2.7 18.8 7.5 26.7 4.7 7.9 11.9 14.2 20 18.8 16.5 9.2 35.9 12.8 55 15 23.2 2.8 46.7 3.2 70.3 3.2 0-.3-.1-.6-.1-.9v-.4h-.4l-24.4-437H329.4c-.3.6-.7 1.2-1 1.8-37.7 76.8-60.4 156.4-60.4 273.5 0 71.3 19.5 174.4 57.5 209.8H500v-18.8c-6.5-4.7-16.2-11.7-20.9-19.8zM308.5 208.9c14.9-20 36.9-28.7 49.3-19.5 12.4 9.2 10.3 32.8-4.6 52.8s-37 28.7-49.3 19.5c-12.3-9.1-10.3-32.8 4.6-52.8zm49.1 56.5c-16.5 89.3-85.5 102.3-85.5 102.3 22.3-97.4 85.5-102.3 85.5-102.3zm68.6 51.1C376.8 400.8 271 404.2 271 404.2c63-96.3 155.2-87.7 155.2-87.7z"/></svg>
