<svg xmlns="http://www.w3.org/2000/svg" viewBox="0 0 500 514.6"><g><path d="M112.2 328.2c0 3.2 2.5 6 5.7 6 3 0 5.8-2.7 5.8-6 0-3-2.8-5.7-5.8-5.7-3.2 0-5.7 2.7-5.7 5.7z"/><path d="M339 321c-24.8-18.9-44.3-50-47.1-72.9-2.8-22.9.9-41 2.2-49 4.8-30.4 1.8-52.7-17.8-60.8-32.4-13.5-50.6 18.2-39.4 42.2 5.2 11.1 22.1 15.1 31.3 8.5 7.9-5.6 10.3-18.9 3.3-27.4-3-3.6-8-5-13.8-2.4-2.1.9-3.2 2.7-3.5 3.9-.4 1.3-.2 2.3-.2 2.5.4 1.8-.8 2.5-2 1.7-.8-.6-2-2.7-1.4-5.7.3-1.5 1.1-3.1 2.4-4.4 3.2-3.5 12.3-7.5 21.5-.2 9.8 7.8 8.4 27.1-2.4 36.2-9.8 8.2-31.9 6.4-40.7-10.1-7.5-14.2-5.9-37 10.7-48.5 6.2-4.3 20.4-10.5 37.6-2.3 12.5 5.9 23.9 17.9 23.8 44-.1 8.7-2.9 23.8-4 30.8 4.5-9.8 9.1-20.1 23.2-25.3 9.8-3.6 22.6-1.2 28.9 7.3 1.9-19.4 4.9-39.6 10.7-60.3C386.4 41.7 482.2 7.6 482.2 7.6c-91.7-32.9-172.5 49.9-235.4 82-62.9 32.1-89.1 11.3-89.1 11.3l-7.6-7.1c-2.7-2.6-12.7-11.1-17-6.6-4.2 4.5 4.9 14 7.6 16.6l6.1 5.7c-21.3 17.4-40.2 37.4-56.3 59.6l-6-5.7c-2.7-2.6-12.7-11.2-17-6.6-4.2 4.5 4.9 14 7.6 16.6l7.6 7.1s22.2 24.9-6.1 89.6c-28.4 64.7-104.4 155-66.1 244.6 0 0 47.8-116.3 136.1-137.4 20.3-4.9 38-7.3 53.9-8.8-16.8-1.3-42-4-60.9-9.3-4.5 3.1-4.6 11.4-4.1 15-6-4.4-8.1-8.4-8.8-16.3-12.9-3.3-22.4-11.4-27.1-16.2 2.9-.7 7.2-4.3 7.2-4.3s-6.6-2.6-8.7-4.9c4.1-7.7 12.9-19.3 19.9-25.2 21.9-18.4 62.1-24.5 101.4-24.5 0 0-23.4 11.5-23.4 30.5 1.8-2.1 6.2-10.4 12-10.4s9.2 7.1 9.2 16.1c0 9-1.1 19.6-8.3 19.6-4.4 0-10.7-7.6-13.2-9.9-1.5 16.6 12.5 29.7 20.4 38.5 43-2.8 71.5-1.3 101.5-31.3.7-.7 1.4-1.5 2.1-2.3 16.2 10.7 93.6 56.4 180.4 13.7C409.9 359.5 366 341.5 339 321z"/><path d="M330.8 222.6c-5.4-2-9.3-7.5-10-12.1-.5-3.8 0-7.1.1-7.4.2-.9 1.8-1.2 2.4-.3.8 1.1.5 4.6 2.4 7.8 1.6 2.8 4.5 6.7 8.5 7.4 7.9 1.4 15.4-4 16.1-13.2.7-8.4-5.9-17.9-16.6-17.9-14 0-22.5 9.8-27.8 22.1-6 14.1-8.1 39.8-.4 60.1 5.4 14.2 16.8 29.9 29.2 41.2 11.1-25 12.3-56.2 14.6-91.2-4.9 5.1-12.8 5.6-18.5 3.5z"/></g></svg>
