<svg viewBox="0 0 500 508" version="1.1" xmlns="http://www.w3.org/2000/svg" xmlns:xlink="http://www.w3.org/1999/xlink">
    <g id="Page-1" stroke="none" stroke-width="1" fill="none" fill-rule="evenodd">
        <g id="Group" fill="#000000">
            <g id="kanv" transform="translate(0.000000, 192.000000)">
                <polygon id="Path" points="0 173 498.5 173 498.5 177 0 177"></polygon>
                <polygon id="Path" points="307 255.3 313 249.3 307 243.3 301 249.3"></polygon>
                <path d="M270.8,218.4 C272,220.6 273.8,220.2 275.9,219.3 C275.1,230.1 282.7,239.9 291.6,239.7 C291.9,250.8 293.1,261.6 296.3,262.4 C296.7,262.5 297.1,251.1 297.3,238.5 C318.6,231.9 310.5,206.5 310.5,206.5 C310.1,205.1 306.9,207.1 300.1,213.3 C302.8,216.3 304.2,214.6 306.4,213.8 C308.2,217.1 308.9,232.2 297.4,236.7 C297.7,221.5 297.8,205.3 297.8,205.3 C297.8,204.9 297.4,204.8 297.1,204.8 C294,205.2 288.4,210.8 284,215.4 C286.4,219.3 289.4,215.8 291.8,214.8 C291.8,215.4 291.2,226.6 291.5,238 C279.7,238.9 281.6,214.8 282.3,211.7 C282.6,209.3 274.8,214.7 270.8,218.4 Z" id="Path"></path>
                <path d="M42.2,213.9 L42.2,245.9 C42.2,252.7 45.5,256.5 53.8,256.5 L59,256.5 L59,250.4 L55.6,250.4 C51.9,250.4 50.5,249.4 50.5,245.6 L50.5,213.9 L42.2,213.9 Z" id="Path"></path>
                <path d="M180.3,256.5 L188.7,256.5 L188.7,214.3 L176.9,214.3 L164.5,246.6 L152.1,214.3 L140,214.3 L140,256.5 L148.4,256.5 L148.4,231.3 C148.4,229.7 148.3,226.9 148.2,225.1 L148.5,225.1 L160.6,256.4 L168.3,256.4 L180.4,225.1 L180.7,225.1 C180.5,226.9 180.5,229.6 180.5,231.3 L180.5,256.5 L180.3,256.5 Z" id="Path"></path>
                <path d="M59.6,224.2 L59.6,243.2 C59.6,253.2 64.9,256.8 75.4,256.8 C85.9,256.8 91.2,253.1 91.2,243.2 L91.2,224.2 L82.8,224.2 L82.8,243.2 C82.8,249 79.3,251.1 75.4,251.1 C71.5,251.1 68,249 68,243.2 L68,224.2 L59.6,224.2 Z" id="Path"></path>
                <path d="M95.6,213.9 L95.6,243.3 C95.6,253.3 101.6,256.9 112.1,256.9 C122.6,256.9 128.6,252.7 128.6,242.8 L128.6,237.7 C128.6,229.8 124.1,223.9 113.3,223.9 C110.1,223.9 106.6,224.6 103.9,226 L103.9,214 L95.6,214 L95.6,213.9 Z M112.4,229.6 C116.3,229.6 120.8,231.7 120.8,237.5 L120.8,243.3 C120.8,249.1 116.3,251.2 112.4,251.2 C108.5,251.2 104,249.1 104,243.3 L104,237.5 C104,231.7 108.5,229.6 112.4,229.6 Z" id="Shape" fill-rule="nonzero"></path>
                <path d="M262.2,243.2 L262.2,213.8 L253.8,213.8 L253.8,225.8 C251,224.5 247.6,223.7 244.4,223.7 C233.6,223.7 229.1,229.6 229.1,237.5 L229.1,242.6 C229.1,252.6 235.1,256.7 245.6,256.7 C256.2,256.9 262.2,253.2 262.2,243.2 Z M237,243.2 L237,237.4 C237,231.7 241.6,229.5 245.4,229.5 C249.3,229.5 253.8,231.6 253.8,237.4 L253.8,243.2 C253.8,249 249.3,251.1 245.4,251.1 C241.6,251.1 237,249 237,243.2 Z" id="Shape" fill-rule="nonzero"></path>
                <path d="M225.6,242.5 L225.6,239.9 C225.6,229.9 219.6,223.8 209.1,223.8 C198.6,223.8 192.6,230 192.6,239.9 L192.6,241.2 C192.6,250.8 198.4,256.8 209.6,256.8 C215.2,256.8 220.1,255.6 225,251.8 L219.9,247.8 C216.4,250.1 213.7,251 209.7,251 C204.8,251 200.8,248.3 200.8,243.1 L200.8,242.4 L225.6,242.4 L225.6,242.5 Z M209.1,229.4 C213,229.4 217.5,231.7 217.5,237.6 L200.6,237.6 C200.7,231.7 205.2,229.4 209.1,229.4 Z" id="Shape" fill-rule="nonzero"></path>
                <path d="M20,256.9 C31.1,256.9 37.8,251.4 39.4,243.8 L30.5,243.8 C29,248.9 25.3,251.2 20,251.2 C11.8,251.2 8.7,245.8 8.7,237.4 L8.7,233.2 C8.7,224 12.8,219.7 20,219.7 C25.2,219.7 29,222 30.5,227 L39.4,227 C37.8,219.5 31.1,213.9 20,213.9 C7.2,213.9 0,221.4 0,233 L0,238.8 C0,250 7,256.9 20,256.9 Z" id="Path"></path>
                <path d="M165,313.4 L165,278.2 C165,277.7 165.1,277.5 165.8,277.5 L168.7,277.5 L168.7,276.2 L156.2,276.2 L156.2,277.5 L159.1,277.5 C159.8,277.5 159.9,277.7 159.9,278.2 L159.9,313.4 C159.9,313.7 159.7,314 159.4,314 L156.1,314 L156.1,315.3 L168.7,315.3 L168.7,314 L165.4,314 C165.2,314 165,313.7 165,313.4 Z" id="Path"></path>
                <path d="M263.1,308 C263.1,308.2 262.5,314 255.1,314 C245.8,314 244.8,300.1 244.8,294.1 C244.8,288 246.9,277.7 254.6,277.6 L254.7,277.6 C259.6,277.6 260.2,280.1 260.2,282.6 C260.2,282.9 260,283.3 259.8,283.7 C259.6,284.1 259.4,284.6 259.4,285 C259.4,286.2 260.6,287 261.6,287 C262.8,287 264,286.1 264,284.1 C264,281.1 261.4,276.3 254.5,276.3 L254.4,276.3 C250.3,276.3 246.8,277.7 244.1,280.4 C240.8,283.7 238.9,288.8 239,294.2 C239.1,304.5 243.3,315.4 255,315.4 C263.4,315.4 264.3,308.3 264.4,308.2 L264.4,307.9 L263.1,307.5 L263.1,308 Z" id="Path"></path>
                <path d="M190,277.5 L192.1,277.5 C193.1,277.5 193.7,278.2 193.7,279.3 C193.7,279.5 193.7,279.8 193.6,280.2 L188,304.5 L180.6,278.4 C180.6,278.3 180.6,278.2 180.6,278 C180.6,277.7 180.8,277.5 181.3,277.5 L183.3,277.5 L183.3,276.2 L171.8,276.2 L171.8,277.5 L173.7,277.5 C174.4,277.5 174.8,278.1 175,278.6 C175.7,280.8 185.4,314.8 185.5,315.1 L185.6,315.4 L187,315.4 L187.1,315.1 C188.1,310.9 193.2,289.4 194.9,282.3 L195.5,279.8 C195.8,278.7 196.5,277.4 198,277.4 L199.3,277.4 L199.3,276.1 L190,276.1 L190,277.5 Z" id="Path"></path>
                <path d="M145.3,290.8 C142.5,290.3 137.8,288.7 137.8,284.4 L137.8,284 C137.8,280.2 140.6,277.5 144.4,277.5 C150.8,277.5 150.9,283.8 150.9,284.1 L150.9,284.5 L152.5,284.4 L152.5,276.9 L152.2,276.8 C152.2,276.8 148.5,276 145.2,276 L144.9,276 C138.1,276.1 133.5,280.2 133.5,286.3 C133.5,291.2 136.8,294.4 142.7,295.4 C147.4,296.2 150.6,299.6 150.6,303.9 C150.6,308.8 148.4,314 142.3,314 C134.6,314 134.3,306.3 134.3,306 L134.3,305.7 L132.7,305.6 L132.7,314.7 L133,314.8 C133,314.8 137.2,315.5 141.3,315.5 L141.5,315.5 C150,315.5 155.5,310.3 155.5,302.2 C155.1,296.2 151.5,292 145.3,290.8 Z" id="Path"></path>
                <path d="M225.3,306.2 C223.8,311.7 220.7,314 214.6,314 L214.2,314 C210.5,314 210.3,313.1 210.3,311.6 C210.3,311.3 210.3,310.9 210.3,310.5 C210.3,310 210.4,309.4 210.4,308.7 L210.3,290.9 L215.3,291.1 L215.4,291.1 C217.7,291.2 218.3,291.2 219.1,292.3 C219.7,293.1 219.8,294.1 220,295.5 L220.1,296.1 L221.3,296.1 L221.3,284.9 L220.1,284.9 L220.1,285.2 C219.9,286.7 219.8,287.7 219,288.6 C218.2,289.5 217.9,289.5 216.2,289.5 C215.9,289.5 215.7,289.5 215.4,289.5 L210.4,289.6 L210.4,277.6 L217.7,277.8 C219.5,277.9 221.5,278 222.3,279 C223.2,280.1 223.3,280.4 223.5,282.2 C223.5,282.6 223.6,283 223.7,283.5 L223.7,283.8 L224.9,283.8 L224.9,276.3 L201.5,276.3 L201.5,277.6 L204.4,277.6 C205.1,277.6 205.2,277.8 205.2,278.3 L205.2,313.5 C205.2,313.8 205,314.1 204.7,314.1 L201.4,314.1 L201.4,315.4 L226,315.4 L226.5,306.3 L225.3,306 L225.3,306.2 Z" id="Path"></path>
                <path d="M26.7,306.1 L23.9,305.9 L23.8,306.2 C22.3,311.7 19.2,314 13.1,314 L12.7,314 C9,314 8.8,313.1 8.8,311.6 C8.8,311.3 8.8,310.9 8.8,310.5 C8.8,310 8.9,309.4 8.9,308.7 L8.8,290.9 L13.8,291.1 L13.9,291.1 C16.2,291.2 16.8,291.2 17.6,292.3 C18.2,293.1 18.3,294.1 18.5,295.5 L18.6,296.1 L19.8,296.1 L19.8,284.9 L18.6,284.9 L18.6,285.2 C18.4,286.7 18.3,287.7 17.5,288.6 C16.7,289.5 16.4,289.5 14.7,289.5 C14.4,289.5 14.2,289.5 13.9,289.5 L8.9,289.6 L8.9,277.6 L16.2,277.8 C18,277.9 20,278 20.8,279 C21.7,280.1 21.8,280.4 22,282.2 C22,282.6 22.1,283 22.2,283.5 L22.2,283.8 L23.4,283.8 L23.4,276.3 L0.1,276.3 L0.1,277.6 L3,277.6 C3.7,277.6 3.8,277.8 3.8,278.3 L3.8,313.5 C3.8,313.8 3.6,314.1 3.3,314.1 L0,314.1 L0,315.4 L24.6,315.4 L26.7,306.1 Z" id="Path"></path>
                <path d="M52.6,313.2 C51.6,311.2 44.2,295.3 43.4,293.6 C44,292.2 48.8,281.2 49.8,279.2 C50.3,278.4 50.8,277.6 52.1,277.6 L54,277.6 L54,276.3 L44.8,276.3 L44.8,277.6 L46.9,277.6 C47.3,277.6 48,277.8 48,278.7 C48,278.8 48,279.2 47.8,279.6 L42.6,292.1 L35.8,278.2 L35.8,278.1 C35.8,278 35.8,278 35.8,278 C35.8,277.7 36.2,277.6 36.6,277.6 L38.6,277.6 L38.6,276.3 L26.6,276.3 L26.6,277.6 L28.8,277.6 C29.5,277.6 29.7,277.8 30.1,278.5 C31.1,280.5 37.5,293.8 38.2,295.4 C37.5,297 31.6,310.6 30.6,312.5 C30.1,313.3 29.6,314.1 28.3,314.1 L26.4,314.1 L26.4,315.4 L35.6,315.4 L35.6,314 L33.5,314 C33.1,314 32.4,313.8 32.4,312.9 C32.4,312.8 32.4,312.4 32.6,312 L39,296.7 C40.5,299.8 46.2,311.9 46.9,313.3 L46.9,313.4 C46.9,313.5 46.9,313.5 46.9,313.5 C46.9,313.8 46.5,313.9 46.1,313.9 L44.1,313.9 L44.1,315.2 L55.9,315.2 L55.9,314 L54,314 C53.3,314 53,313.8 52.6,313.2 Z" id="Path"></path>
                <path d="M102.2,306.1 C100.6,312.1 98.3,314 92.8,314 C88.8,314 88.6,312.8 88.6,310.6 L88.6,278.2 C88.6,277.7 88.7,277.5 89.4,277.5 L92.3,277.5 L92.3,276.2 L79.8,276.2 L79.8,277.5 L82.7,277.5 C83.2,277.5 83.4,278 83.4,278.2 L83.4,313.4 C83.4,313.7 83.2,314 82.9,314 L79.6,314 L79.6,315.3 L102.9,315.3 L103.5,305.9 L102.2,305.8 L102.2,306.1 Z" id="Path"></path>
                <path d="M121.9,277.5 L124.3,277.5 C124.9,277.5 125.6,277.9 125.6,278.8 L125.6,305.5 C125.6,310.5 123,313.2 118.4,313.2 C114.6,313.2 111.8,309.9 111.8,305.5 L111.7,278.1 C111.7,277.6 111.8,277.4 112.5,277.4 L115.4,277.4 L115.4,276.1 L102.9,276.1 L102.9,277.4 L105.8,277.4 C106.5,277.4 106.6,277.6 106.6,278.1 L106.6,306.3 C106.6,311.6 110.9,315.4 117.1,315.4 C123.4,315.4 127.3,311.9 127.3,306.3 L127.4,278.7 C127.4,278.1 127.6,277.4 128.4,277.4 L131.1,277.4 L131.1,276.1 L122,276.1 L122,277.5 L121.9,277.5 Z" id="Path"></path>
                <path d="M77.7,308 C77.7,308.2 77.1,314 69.7,314 C60.4,314 59.4,300.1 59.4,294.1 C59.4,288 61.5,277.7 69.2,277.6 L69.3,277.6 C74.2,277.6 74.8,280.1 74.8,282.6 C74.8,282.9 74.6,283.3 74.4,283.7 C74.2,284.1 74,284.5 74,285 C74,286.2 75.2,287 76.2,287 C77.4,287 78.6,286.1 78.6,284.1 C78.6,281.1 76,276.3 69.1,276.3 L69,276.3 C64.9,276.3 61.4,277.7 58.7,280.4 C55.4,283.7 53.5,288.8 53.6,294.2 C53.7,304.5 57.9,315.4 69.6,315.4 C78,315.4 78.9,308.3 79,308.2 L79,307.9 L77.7,307.5 L77.7,308 Z" id="Path"></path>
                <path d="M401.3,283.8 L402.5,283.8 L402.5,283.5 C402.9,280.7 403.1,280.5 404.2,279.3 L404.3,279.1 C405.1,278.1 406,277.7 407.7,277.7 L411.1,277.7 L411.1,313.5 C411.1,313.8 410.9,314.1 410.6,314.1 L407.3,314.1 L407.3,315.4 L420,315.4 L420,314 L416.8,314 C416.7,313.9 416.5,313.5 416.4,313.2 L416.4,277.6 L419.9,277.6 C421.6,277.6 422.5,277.9 423.3,279 L423.4,279.2 C424.5,280.4 424.7,280.7 425.1,283.4 L425.1,283.7 L426.3,283.7 L426.3,276.2 L401.3,276.2 L401.3,283.8 Z" id="Path"></path>
                <path d="M280.6,276.1 C271.4,276.1 265.2,284.1 265.2,295.9 C265.2,307.2 271.7,315.5 280.6,315.5 C289.3,315.5 295.4,307.5 295.4,295.9 C295.4,283.9 289.6,276.1 280.6,276.1 Z M280.6,314.2 C272.6,314.1 270.9,304.2 270.9,295.9 C270.9,284.8 272.5,277.4 280.6,277.4 C289,277.4 289.7,285.4 289.7,295.9 C289.7,307.2 288.2,314.2 280.6,314.2 Z" id="Shape" fill-rule="nonzero"></path>
                <path d="M456.6,276.1 C447.4,276.1 441.2,284.1 441.2,295.9 C441.2,307.2 447.7,315.5 456.6,315.5 C465.3,315.5 471.4,307.5 471.4,295.9 C471.4,283.9 465.6,276.1 456.6,276.1 Z M456.6,314.2 C448.6,314.1 446.9,304.2 446.9,295.9 C446.9,284.8 448.5,277.4 456.6,277.4 C465,277.4 465.7,285.4 465.7,295.9 C465.7,307.2 464.2,314.2 456.6,314.2 Z" id="Shape" fill-rule="nonzero"></path>
                <path d="M490.8,277.4 L493.3,277.4 C494.5,277.4 494.6,279.3 494.6,279.9 L494.5,302.2 C492.9,298.1 489.2,290.4 488,288.2 L487.8,287.9 C486.2,284.9 482.4,277.7 480.8,276.3 L480.7,276.2 L479.6,276.2 C478.9,276.2 477.9,276.2 476.8,276.2 C475.4,276.2 473.7,276.2 472,276.2 L471.6,276.2 L471.6,277.5 L474.5,277.5 C475.1,277.5 475.5,278 475.5,278.5 C475.5,280.3 475.3,311.2 475.3,311.5 C475.3,313.1 474.8,314 474,314 L471.6,314 L471.6,315.3 L480.8,315.3 L480.8,314 L478.3,314 C477.1,314 477,312.1 477,311.5 L476.8,279.4 C478.6,281.7 482.3,288.5 483.8,291.2 C484.2,292 493.8,310.9 494.4,315.2 L494.4,315.5 L494.7,315.5 C494.9,315.5 495.6,315.4 495.7,315.4 L496,315.4 L496,315 C496,313.2 496.2,280.3 496.2,279.9 C496.2,278.3 496.7,277.4 497.5,277.4 L499.9,277.4 L499.9,276.1 L490.7,276.1 L490.7,277.4 L490.8,277.4 Z" id="Path"></path>
                <path d="M437.2,313.4 L437.2,278.2 C437.2,277.7 437.3,277.5 438,277.5 L440.9,277.5 L440.9,276.2 L428.4,276.2 L428.4,277.5 L431.3,277.5 C432,277.5 432.1,277.7 432.1,278.2 L432.1,313.4 C432.1,313.7 431.9,314 431.6,314 L428.3,314 L428.3,315.3 L440.9,315.3 L440.9,314 L437.6,314 C437.4,314 437.2,313.7 437.2,313.4 Z" id="Path"></path>
                <path d="M397.5,308 C397.5,308.2 396.9,314 389.5,314 C380.2,314 379.2,300.1 379.2,294.1 C379.2,288 381.3,277.7 389,277.6 L389.1,277.6 C394,277.6 394.6,280.1 394.6,282.6 C394.6,282.9 394.4,283.3 394.2,283.7 C394,284.1 393.8,284.5 393.8,285 C393.8,286.2 395,287 396,287 C397.2,287 398.4,286.1 398.4,284.1 C398.4,281.1 395.8,276.3 388.9,276.3 L388.8,276.3 C384.7,276.3 381.2,277.7 378.5,280.4 C375.2,283.7 373.3,288.8 373.4,294.2 C373.5,304.5 377.7,315.4 389.4,315.4 C397.8,315.4 398.7,308.3 398.8,308.2 L398.8,307.9 L397.5,307.5 L397.5,308 Z" id="Path"></path>
                <path d="M343.9,306.1 C342.3,312.1 340,314 334.5,314 C330.5,314 330.3,312.8 330.3,310.6 L330.3,278.2 C330.3,277.7 330.4,277.5 331.1,277.5 L334,277.5 L334,276.2 L321.5,276.2 L321.5,277.5 L324.4,277.5 C324.9,277.5 325.1,278 325.1,278.2 L325.1,313.4 C325.1,313.7 324.9,314 324.6,314 L321.3,314 L321.3,315.3 L344.6,315.3 L345.2,305.9 L343.9,305.8 L343.9,306.1 Z" id="Path"></path>
                <path d="M318.2,306.1 C316.6,312.1 314.3,314 308.8,314 C304.8,314 304.6,312.8 304.6,310.6 L304.6,278.2 C304.6,277.7 304.7,277.5 305.4,277.5 L308.3,277.5 L308.3,276.2 L295.8,276.2 L295.8,277.5 L298.7,277.5 C299.2,277.5 299.4,278 299.4,278.2 L299.4,313.4 C299.4,313.7 299.2,314 298.9,314 L295.6,314 L295.6,315.3 L318.9,315.3 L319.5,305.9 L318.2,305.8 L318.2,306.1 Z" id="Path"></path>
                <path d="M370.9,306.2 C369.4,311.7 366.3,314 360.2,314 L359.8,314 C356.1,314 355.9,313.1 355.9,311.6 C355.9,311.3 355.9,310.9 355.9,310.5 C355.9,310 356,309.4 356,308.7 L355.9,290.9 L360.9,291.1 L361,291.1 C363.3,291.2 363.9,291.2 364.7,292.3 C365.3,293.1 365.4,294.1 365.6,295.6 L365.7,296.2 L366.9,296.2 L366.9,285 L365.7,285 L365.7,285.3 C365.5,286.8 365.4,287.8 364.6,288.7 C363.8,289.6 363.5,289.6 361.8,289.6 C361.5,289.6 361.3,289.6 361,289.6 L356,289.7 L356,277.7 L363.3,277.9 C365.1,278 367.1,278.1 367.9,279.1 C368.8,280.2 368.9,280.5 369.1,282.3 C369.1,282.7 369.2,283.1 369.3,283.6 L369.3,283.9 L370.5,283.9 L370.5,276.4 L347.1,276.4 L347.1,277.7 L350,277.7 C350.7,277.7 350.8,277.9 350.8,278.4 L350.8,313.6 C350.8,313.9 350.6,314.2 350.3,314.2 L347,314.2 L347,315.5 L371.6,315.5 L372.1,306.4 L370.9,306.2 Z" id="Path"></path>
                <polygon id="Path" points="7.2 57.1 18.3 57.1 18.3 35.7 45.3 35.7 45.3 27.1 18.3 27.1 18.3 9.2 47.2 9.2 47.2 0.5 7.2 0.5"></polygon>
                <polygon id="Path" points="52.9 0.5 63.7 0.5 63.7 9.7 52.9 9.7"></polygon>
                <polygon id="Path" points="52.9 14.6 63.7 14.6 63.7 57.1 52.9 57.1"></polygon>
                <path d="M114.7,31.6 C114.7,19.7 108.4,13.8 95.7,13.8 C90.6,13.8 86,15.2 81.9,18 L81.3,14.6 L72.1,14.6 L72.1,57.1 L83,57.1 L83,30.9 C83,28 83.9,25.8 85.8,24.1 C87.7,22.5 90.2,21.7 93.5,21.7 C100.3,21.7 103.7,24.9 103.7,31.4 L103.7,57.1 L114.7,57.1 L114.7,31.6 Z" id="Path"></path>
                <path d="M163.4,38.8 L163.4,32.5 C163.4,26.5 161.6,21.9 157.9,18.7 C154.2,15.5 148.9,13.8 141.8,13.8 C134.8,13.8 129.4,15.4 125.7,18.7 C122,21.9 120.1,26.5 120.1,32.5 L120.1,38.7 C120.1,51.6 127.3,58 141.8,58 C156.2,58 163.4,51.6 163.4,38.8 Z M131.1,40.1 L131.1,31.7 C131.1,28.2 132.1,25.7 134,24 C135.9,22.4 138.5,21.6 141.7,21.6 C148.7,21.6 152.3,25 152.3,31.7 L152.3,40.1 C152.3,46.7 148.8,50.1 141.7,50.1 C138.5,50.1 135.9,49.3 134,47.7 C132.1,46.1 131.1,43.6 131.1,40.1 Z" id="Shape" fill-rule="nonzero"></path>
                <path d="M182.6,57.1 L190.6,57.1 L190.6,49.1 L184.9,49.1 C183.2,49.1 181.9,48.7 181,48 C180.2,47.3 179.7,46 179.7,44.2 L179.7,0.4 L168.9,0.4 L168.9,43.8 C168.9,48.4 170,51.8 172.2,53.9 C174.5,56.1 177.9,57.1 182.6,57.1 Z" id="Path"></path>
                <path d="M206.1,31.4 C206.1,28.2 207.1,25.9 209,24.2 C210.9,22.6 213.4,21.8 216.5,21.8 C223,21.8 226.3,25 226.3,31.5 L226.3,57.2 L237.4,57.2 L237.4,31.7 C237.4,19.8 231,13.9 218.1,13.9 C213.6,13.9 209.6,14.8 206.2,16.7 L206.2,0.6 L195.3,0.6 L195.3,57.3 L206.2,57.3 L206.2,31.4 L206.1,31.4 Z" id="Path"></path>
                <path d="M265.1,58 C278.8,58 285.7,51.9 285.7,39.6 L285.7,14.7 L274.8,14.7 L274.8,40.2 C274.8,46.8 271.6,50.1 265.1,50.1 C258.6,50.1 255.4,46.8 255.4,40.2 L255.4,14.7 L244.5,14.7 L244.5,39.6 C244.5,51.8 251.4,58 265.1,58 Z" id="Path"></path>
                <polygon id="Path" points="25.2 127.6 37.7 127.6 60.1 71 48.5 71 31.7 116.6 14.7 71 2.7 71"></polygon>
                <polygon id="Path" points="64.4 71 75.2 71 75.2 80.2 64.4 80.2"></polygon>
                <polygon id="Path" points="64.4 85.2 75.2 85.2 75.2 127.7 64.4 127.7"></polygon>
                <path d="M82.6,71 L82.6,114.4 C82.6,119 83.7,122.4 85.9,124.5 C88.1,126.6 91.6,127.7 96.2,127.7 L104.2,127.7 L104.2,119.7 L98.5,119.7 C96.8,119.7 95.5,119.3 94.6,118.6 C93.8,117.9 93.3,116.6 93.3,114.8 L93.3,71 L82.6,71 Z" id="Path"></path>
                <path d="M122.7,127.6 L130.7,127.6 L130.7,119.6 L125,119.6 C123.3,119.6 122,119.2 121.1,118.5 C120.3,117.8 119.8,116.5 119.8,114.7 L119.8,71 L109,71 L109,114.4 C109,119 110.1,122.4 112.3,124.5 C114.5,126.6 118,127.6 122.7,127.6 Z" id="Path"></path>
                <path d="M153.5,102.1 C147.4,102.1 142.8,103.3 139.6,105.6 C136.4,108 134.8,111 134.8,114.8 C134.8,118.6 136.7,121.8 140.6,124.4 C144.5,127 149.8,128.4 156.8,128.4 C163.4,128.4 169.3,127.2 174.4,124.8 C175.4,124.4 175.9,123.7 175.9,122.9 L175.9,99.3 C175.9,94.5 174.2,90.8 170.7,88.2 C167.2,85.6 162.1,84.4 155.4,84.4 C147.5,84.4 141.2,86.5 136.4,90.8 L143.7,96.3 C146.3,93.7 150.1,92.3 155.1,92.3 C158.9,92.3 161.5,92.9 162.9,94 C164.3,95.1 165.1,96.7 165.1,98.7 L165.1,102.2 L153.5,102.2 L153.5,102.1 Z M165,118.9 C162.8,120.2 160,120.8 156.5,120.8 C152.8,120.8 150.1,120.3 148.2,119.2 C146.3,118.1 145.4,116.6 145.4,114.7 C145.4,113 146.1,111.5 147.6,110.5 C149.1,109.4 151.3,108.9 154.1,108.9 L165,108.9 L165,118.9 Z" id="Shape" fill-rule="nonzero"></path>
                <path d="M201.1,120.5 C195.6,120.5 191.2,119 187.8,115.9 L181,122 C186,126.3 192.6,128.5 200.8,128.5 C207.1,128.5 212.1,127.3 215.7,124.9 C219.4,122.5 221.2,119.1 221.2,114.9 C221.2,108.1 216.6,104.1 207.4,102.8 L198.7,101.6 C195.3,101.1 193.6,99.5 193.6,96.7 C193.6,95.2 194.3,94.1 195.7,93.3 C197.1,92.5 199,92.1 201.5,92.1 C205.5,92.1 209.1,93.3 212.4,95.7 L218.9,90 C214.5,86.2 208.6,84.3 201.3,84.3 C195.6,84.3 191,85.4 187.7,87.7 C184.4,90 182.7,93 182.7,97 C182.7,100.7 184,103.5 186.5,105.7 C189,107.8 192.3,109.1 196.4,109.6 L204.9,110.6 C208.4,111 210.2,112.6 210.2,115.4 C210.4,118.8 207.3,120.5 201.1,120.5 Z" id="Path"></path>
            </g>
            <g id="Group-3" transform="translate(2.000000, 0.000000)" fill-rule="nonzero">
                <path d="M118.417503,56.7350057 C118.417503,69.3738996 110.398165,78.9046301 99.7602175,78.9046301 C89.5176238,78.9046301 88.3022767,72.7465359 88.3022767,71.1742566 C88.3022767,70.3978223 88.4901918,69.2914035 88.9856044,68.1922637 C90.3180934,70.2522409 92.6414074,71.6182799 95.2893022,71.6182799 C99.4283155,71.6182799 102.781502,68.2844653 102.781502,64.1693637 C102.781502,60.0566885 99.4283155,56.7228739 95.2893022,56.7228739 C95.1575175,56.7228739 95.0257329,56.7253003 94.8939483,56.7325794 C87.8825183,56.8975716 83.4750548,61.3960376 81.6642365,66.20993 L81.6642365,47.2333915 C83.4750548,52.0472839 87.8825183,56.5457499 94.8939483,56.7107421 C95.0257329,56.7180212 95.1575175,56.7228739 95.2893022,56.7228739 C99.4283155,56.7228739 102.781502,53.386633 102.781502,49.2739578 C102.781502,45.1588562 99.4283155,41.8250416 95.2893022,41.8250416 C92.6414074,41.8250416 90.3180934,43.1910806 88.9856044,45.2534841 C88.4901918,44.151918 88.3022767,43.0479256 88.3022767,42.2714913 C88.3022767,40.6992119 89.5176238,34.5386914 99.7602175,34.5386914 C110.398165,34.5386914 118.417503,44.0694219 118.417503,56.7107421 L118.417503,56.7350057 Z M99.7602175,27 C89.1198295,27 83.6824936,32.1875514 81.6642365,37.4042191 L81.6642365,27 L66.0428779,27 C51.9809706,27 47,36.0575909 47,42.2714913 C47,48.3980429 51.7271632,56.4875173 61.1741682,56.7107421 C61.3059529,56.7180212 61.4377375,56.7228739 61.5719626,56.7228739 C65.7085354,56.7228739 69.0641624,53.386633 69.0641624,49.2739578 C69.0641624,45.1588562 65.7085354,41.8250416 61.5719626,41.8250416 C58.9240678,41.8250416 56.5983133,43.1910806 55.2658243,45.2534841 C54.7728522,44.151918 54.5824967,43.0479256 54.5824967,42.2714913 C54.5824967,40.6992119 55.7978437,34.5386914 66.0428779,34.5386914 L74.098823,34.5556759 L74.098823,148 L97.3588088,148 L97.3588088,140.395797 L81.6642365,140.395797 L81.6642365,132.869237 L97.3588088,132.869237 L97.3588088,125.265034 L81.6642365,125.265034 L81.6642365,76.0415288 C83.6824936,81.2557701 89.1198295,86.4457479 99.7602175,86.4457479 C113.822125,86.4457479 126,74.4352804 126,56.7350057 L126,56.7107421 C126,39.0080411 113.822125,27 99.7602175,27 Z" id="Fill-1"></path>
                <path d="M84.0012123,160.374327 C41.8866454,160.374327 7.62567293,126.113355 7.62567293,83.9987877 C7.62567293,41.8866454 41.8866454,7.62567293 84.0012123,7.62567293 C126.113355,7.62567293 160.374327,41.8866454 160.374327,83.9987877 C160.374327,126.113355 126.113355,160.374327 84.0012123,160.374327 M143.399021,24.6034032 C127.531803,8.73618428 106.436936,0 84.0012123,0 C61.5630638,0 40.4681975,8.73618428 24.6034032,24.6034032 C8.73860897,40.4681975 0,61.5630638 0,83.9987877 C0,106.436936 8.73860897,127.531803 24.6034032,143.396597 C40.4681975,159.261391 61.5630638,168 84.0012123,168 C106.436936,168 127.531803,159.261391 143.399021,143.396597 C159.263816,127.531803 168,106.436936 168,83.9987877 C168,61.5630638 159.263816,40.4681975 143.399021,24.6034032" id="Fill-3"></path>
            </g>
        </g>
    </g>
</svg>
