<svg version="1.1" id="Calque_1" xmlns="http://www.w3.org/2000/svg" xmlns:xlink="http://www.w3.org/1999/xlink" x="0px" y="0px"
	 viewBox="0 0 500 500" style="enable-background:new 0 0 500 500;" xml:space="preserve">
<g>
	<path class="st0" d="M240.2,237L240.2,237c2.9,0,5.8-0.3,8.6-1c9.6-2.3,17.7-8.2,22.8-16.7c5.2-8.7,6.6-19,4-29
		c-4.5-17-19.7-28.9-37.1-28.9c-2.9,0-5.8,0.3-8.6,1c-9.6,2.3-17.7,8.2-22.8,16.7c-5.2,8.7-6.6,19-4,29
		C207.6,225.1,222.9,237,240.2,237z M226,190.4c2-3.4,5.2-5.7,9-6.6c1.1-0.3,2.3-0.4,3.5-0.4c7.2,0,13.9,5.2,15.8,12.5
		c1.1,4.2,0.5,8.5-1.6,12c-2,3.4-5.2,5.7-9,6.6c-1.1,0.3-2.3,0.4-3.5,0.4c-7.2,0-13.9-5.2-15.8-12.5
		C223.3,198.3,223.9,194,226,190.4z"/>
	<path class="st0" d="M344.5,190.4c4.1-4.5,3.9-11.4-0.6-15.6c-4.4-4.2-11.4-3.9-15.6,0.5c-46.7,50.1-70.9,62.9-71.1,62.9
		c-4.7,2.3-7.1,7.6-5.7,12.7c11,42,11.3,55,11.3,57.1c-1.6,7.5-4.9,16.7-11.3,19.2c-7.5,2.9-18.7-2.7-24.1-6.1
		c-1.7-7.7-2.6-32-2.3-52.1c0-0.2,0-0.5,0-0.7c-0.6-11.5-6.9-31.8-26.6-35.2c-11.5-2-32-8-40.2-25.7c-8.2-17.7-2.7-43.7,15.7-75.3
		c3.1-5.3,1.3-12-4-15.1c-5.3-3.1-12-1.3-15.1,4c-22.6,38.6-28.2,70.8-16.7,95.7c9.2,19.8,29.2,33.4,56.4,38.1
		c6.7,1.2,8.2,12.8,8.4,14.5c-0.8,60.3,4.9,65.5,9.7,68.5c3.3,2.4,17.9,12.3,34,12.3c4.1,0,8.4-0.6,12.5-2.2
		c12.9-4.9,21.4-17,25.3-36.3c0.7-3.6,0.9-16.5-9.7-58.3C286.2,245.7,309.5,227.9,344.5,190.4z"/>
	<path class="st0" d="M80.4,104.1c11.1,8.6,46.4,7.5,75,5l207,68.3c1.4,0.5,2.9,0.6,4.5,0.5c19.7-1.8,49.7,1.3,52.7,11.6
		c3.6,12.7,3.4,22.8,2.3,26.3c-3-0.6-13.4-4.7-37.3-29.8c-4.2-4.4-11.2-4.6-15.6-0.4c-4.4,4.2-4.6,11.2-0.4,15.6
		c23.7,25,41.1,36.9,54.4,36.9c3.6,0,7-0.9,10.1-2.6c18-10.3,10.6-42.3,7.8-51.9c-8.6-30.1-58.5-28.9-73.5-27.8l-207-68.4
		c-1.4-0.5-3-0.7-4.5-0.5c-26.9,2.5-54.1,2.4-61.3-0.1c-3-6.3-2.1-25,1.2-32c6.5,5.3,11.9,9.4,16.2,12.8c9,7,13.5,10.5,15.9,13.8
		c3.6,4.9,10.5,6,15.4,2.4c4.9-3.6,6-10.5,2.4-15.4c-4.2-5.7-9.5-9.9-20.1-18.1c-4.4-3.4-9.8-7.6-16.5-13c-9.1-7.4-17-5.9-20.9-4.4
		c-8.6,3.4-14.3,13.1-16.5,28.1C71.3,62.2,66.9,93.6,80.4,104.1z"/>
	<path class="st0" d="M51.4,344.8c35.6,26.6,105.4,60.1,185,67.4c10.2,0.9,20.6,1.3,31.1,1.3c85.5,0,174.8-28.2,186.1-39.2
		c4.2-4.1,5.7-9.7,4.1-15.1c-2.7-8.6-11.3-18.4-82.8-35c-35.6-8.2-70.9-14.3-71.3-14.4c-6-1-11.7,3-12.7,9c-1,6,3,11.7,9,12.7
		c50.1,8.6,107.2,21.8,129.3,31.2c-28.6,11.3-113.3,34.5-190.7,27.5c-73.2-6.7-137.2-36.7-171.2-61.2c22.7-7.5,96.9-8.9,111.8-6.1
		c4.6,1.7,9.8,0.2,12.8-4c3.5-5,2.4-11.8-2.6-15.4c-7.8-5.5-58.5-3.6-68.6-3.2c-65.3,2.9-73,13.5-76.3,18
		C42.5,320.6,35.1,332.6,51.4,344.8z"/>
	<path class="st0" d="M8.7,458.3l2,0.6c0,0,0,0,0,0c16.3,6.7,29.2,9.5,43.2,9.5c19.4,0,35.1-5.9,50.4-11.7
		c15.7-5.9,30.5-11.5,49.4-11.5c18.9,0,33.1,5.6,48.3,11.6c14.4,5.7,29.3,11.6,48.2,11.6c18.6,0,33.7-5.9,48.3-11.6
		c15.2-6,29.6-11.6,48.2-11.6c18.5,0,31.8,5.6,46.2,11.5c13.9,5.8,28.3,11.8,47.8,11.8c14.6,0,25.4-1.5,50.9-10.1
		c5.8-2,8.8-8.2,6.9-14c-2-5.8-8.2-8.8-14-6.9c-23.7,8.1-31.9,9-43.7,9c-15.1,0-26.3-4.7-39.5-10.2c-14.8-6.1-31.6-13.1-54.5-13.1
		c-22.8,0-40.6,7-56.3,13.2c-13.8,5.4-25.7,10.1-40.2,10.1c-14.7,0-26.5-4.7-40.3-10.1c-15.5-6.2-33.1-13.1-56.3-13.1
		c-22.9,0-41.1,6.9-57.2,13c-14.6,5.5-27.2,10.3-42.5,10.3c-10.9,0-21.2-2.3-34.6-7.8c-0.7-0.3-1.3-0.5-2-0.7l-1.9-0.6
		c-5.8-1.8-12,1.4-13.8,7.2C-0.3,450.3,2.9,456.5,8.7,458.3z"/>
</g>
</svg>
