<svg xmlns="http://www.w3.org/2000/svg" viewBox="0 0 500 250"><path d="M491.8 242.5s-46.6-13.8-53.9-16.7c-4.9-1.9-6-4.2-1.2-8 6.1-4.9 46.6-31.8 46.6-31.8s7.4-3.8 5.6-9.6c-1.7-5.5-10.1-4.7-10.1-4.7s-48.6.6-56.4-.1c-5.7-.5-8.8-3.2-4.6-9.5 4.4-6.5 34.6-44.5 34.6-44.5s5.9-5.9 2.4-10.8c-3.3-4.7-11-1.4-11-1.4s-46.1 15.3-53.7 17.2c-5.9 1.5-10.8-1.6-8.8-9.1S400 60.3 400 60.3s3.8-7.4-1.1-11.1c-4.6-3.4-10.9 2.1-10.9 2.1s-38.9 29.2-45.5 33.3c-4.7 2.9-10.3 2.4-10.9-5.6-.5-7.8 1-56.4 1-56.4s1.2-8.2-4.6-10.1c-5.4-1.8-9.7 5.5-9.7 5.5s-27.7 39.9-32.7 46c-3.5 4.3-8.7 5.7-11.7-1.9-2.8-7.3-16.7-53.9-16.7-53.9S256.1 0 250 0c-5.7 0-7.5 8.2-7.5 8.2s-13.9 46.6-16.7 53.9c-2 5.3-4.6 5.7-8 1.2C213 57.2 186 16.7 186 16.7s-3.7-7.4-9.6-5.7c-5.5 1.7-4.7 10.1-4.7 10.1s.5 48.6-.1 56.4c-.5 6.6-3.9 8.4-9.5 4.6-6.4-4.4-44.5-34.6-44.5-34.6s-5.9-5.9-10.8-2.4c-4.7 3.3-1.4 11-1.4 11s15.4 46.1 17.2 53.7c1.6 6.9-2.9 10.5-9.1 8.8-7.5-2-53.2-18.7-53.2-18.7s-7.4-3.8-11.1 1.1c-3.4 4.6 2.1 10.9 2.1 10.9s29.1 38.9 33.3 45.5c3.5 5.4 1.5 10.5-5.6 10.9-7.8.4-56.4-1-56.4-1s-8.2-1.2-10.1 4.5c-1.8 5.5 5.5 9.7 5.5 9.7s39.9 27.8 46 32.7c5.7 4.6 3.6 9.6-1.9 11.7-7.3 2.7-53.9 16.7-53.9 16.7S0 243.9 0 250h78.8c22.6 0 49.1 0 79.4-35.4 28.7-33.4 72.2-80.6 124.3-80.8 58.1-.2 70.4 40.9 71.5 51.7 1 9.5-1.1 17.8-5.5 24-1.7 2.4-4 4.2-6.4 5.7-4.8 3.1-10.6 4.9-16.4 5-1.5 0-3-.1-4.4-.3-1.4-.2-3.1-.6-4.5-1.1-2.9-1.1-5.5-2.8-7.7-5-2.2-2.1-4-4.6-5.3-7.5-1.3-2.8-2-6-1.8-9.3.4-6.5 4.2-12.4 9.8-15.6 5.6-3.2 12.9-3.5 18.7.2.7.4 3 2.1 4.5 4.4 1.5 2.2 2.2 4.7 2.2 4.9.3 1.1-.7 1.4-1.4 1-1.1-.5-2.3-2.9-4.1-4.6-1.7-1.8-3.9-2.9-4.4-3.1-4.6-2.2-10.3-1.4-14.3 1.4-4.1 2.8-6.7 7.7-6.6 12.4.1 4.8 2.6 9.4 6.2 12.6 1.8 1.6 3.9 2.8 6.1 3.6 2.1.7 4.7.9 7.1.9 5 0 10.1-1.1 14-4.1 6.9-5.1 10.8-15.7 8.4-25.7-7.5-30.8-61.5-24.4-64.4 13-1.8 23.4 17.5 51.7 66.3 51.7H500c0-5.7-8.2-7.5-8.2-7.5z"/></svg>
