<svg viewBox="0 0 497 462" version="1.1" xmlns="http://www.w3.org/2000/svg" xmlns:xlink="http://www.w3.org/1999/xlink">
    <title>kettle</title>
    <defs></defs>
    <g id="Page-1" stroke-width="1" fill-rule="evenodd">
        <g id="kettle" fill-rule="nonzero">
            <path d="M94.6458333,412.416667 C94.6458333,431.113807 109.80286,446.270833 128.5,446.270833 L364.541667,446.270833 C383.238807,446.270833 398.395833,431.113807 398.395833,412.416667 L398.395833,411.479167 L94.6458333,411.479167 L94.6458333,412.416667 Z M86.8333333,395.854167 L406.208333,395.854167 C410.523058,395.854167 414.020833,399.351942 414.020833,403.666667 L414.020833,412.416667 C414.020833,439.743256 391.868256,461.895833 364.541667,461.895833 L128.5,461.895833 C101.173411,461.895833 79.0208333,439.743256 79.0208333,412.416667 L79.0208333,403.666667 C79.0208333,399.351942 82.5186087,395.854167 86.8333333,395.854167 Z" id="Shape"></path>
            <path d="M357.494034,36.5974149 L94.6458333,16.8788702 L94.6458333,395.854167 L397.478091,395.854167 L357.494034,36.5974149 Z M407.934167,348.544552 L432.787844,328.712175 C434.329399,327.639535 437.082735,325.655055 440.639565,322.973189 C446.573438,318.499023 452.504925,313.750549 458.018593,308.951573 C462.549373,305.008082 466.594496,301.203269 470.023041,297.616465 C477.743299,289.539844 481.618191,283.070607 481.210209,280.782837 C480.956212,279.256987 480.956212,279.256987 479.813749,272.384877 C478.290509,263.216379 478.290509,263.216379 476.132626,250.208568 C472.324552,227.242831 468.516462,204.20556 464.962131,182.603413 L464.673356,180.848082 C456.238488,129.569273 450.632689,94.8798751 449.099353,84.146521 C448.098112,77.1378341 432.893076,67.7231356 408.826309,59.4184973 C399.104848,56.0639452 388.642425,53.0787896 378.173763,50.5088212 C376.950334,50.2084797 375.780542,49.9265596 374.669701,49.6633247 L378.358026,82.8029272 C379.114385,82.9783589 379.917445,83.1703673 380.762544,83.3792358 C386.835977,84.8802993 392.917398,86.7415889 398.650014,89.0026779 C415.038706,95.466793 425.863493,103.86771 427.872869,115.923966 L451.548698,258.038826 C453.330649,266.184886 448.026563,273.825121 437.73127,282.985703 C434.246116,286.086736 430.191161,289.304955 425.672791,292.607241 C420.487989,296.396594 414.959467,300.106196 409.433936,303.593268 C406.949398,305.16122 404.871117,306.431331 403.348225,307.339866 L407.934167,348.544552 Z M409.96254,366.769488 L413.972892,402.802498 C414.48801,407.430831 410.865244,411.479167 406.208333,411.479167 L86.8333333,411.479167 C82.5186087,411.479167 79.0208333,407.981391 79.0208333,403.666667 L79.0208333,145.202262 L2.00315993,29.8805865 C-1.46392574,24.689179 2.25729264,17.7291667 8.5,17.7291667 L79.0208333,17.7291667 L79.0208333,8.45833333 C79.0208333,3.91334425 82.8855215,0.327720599 87.4177751,0.667724623 L365.126108,21.501058 C368.873978,21.7822185 371.890495,24.6921604 372.306225,28.4274977 L372.838579,33.210698 C375.388508,33.7766718 378.44334,34.4860587 381.89896,35.3343843 C392.79734,38.0098451 403.701958,41.1211683 413.92307,44.648133 C443.918782,54.9986531 462.349268,66.4104949 464.567314,81.9368123 C466.076958,92.504324 471.68565,127.21162 480.091168,178.312001 L480.37983,180.066646 C483.932987,201.661662 487.740062,224.692789 491.547154,247.652601 C493.704531,260.657363 493.704531,260.657363 495.227357,269.823372 C496.369443,276.693214 496.369443,276.693214 496.607507,278.126636 C498.21672,287.138226 492.448071,296.769141 481.317955,308.413017 C477.529328,312.376526 473.144878,316.500505 468.27684,320.737539 C462.460257,325.800165 456.25219,330.770057 450.046508,335.449168 C446.319605,338.259269 443.407816,340.357955 442.125432,341.229533 L411.083765,366.021199 C410.725921,366.306994 410.350678,366.556256 409.96254,366.769488 Z M401.436573,290.163676 C406.568557,286.916048 411.689963,283.473429 416.453053,279.992287 C420.59525,276.96493 424.270235,274.048275 427.344752,271.31262 C433.371326,265.950274 436.347174,261.663733 436.210464,260.9927 L412.460464,118.4927 C411.648559,113.621271 404.586829,108.140793 392.916955,103.537899 C388.878689,101.945105 384.569066,100.556367 380.202257,99.3733393 L401.436573,290.163676 Z M79.0208333,117.06846 L79.0208333,33.3541667 L23.1121755,33.3541667 L79.0208333,117.06846 Z" id="Combined-Shape"></path>
            <path d="M137.25,81.1666667 C129.886203,81.1666667 123.916667,75.19713 123.916667,67.8333333 C123.916667,60.4695367 129.886203,54.5 137.25,54.5 C144.613797,54.5 150.583333,60.4695367 150.583333,67.8333333 C150.583333,75.19713 144.613797,81.1666667 137.25,81.1666667 Z M192.458333,81.1666667 C185.094537,81.1666667 179.125,75.19713 179.125,67.8333333 C179.125,60.4695367 185.094537,54.5 192.458333,54.5 C199.82213,54.5 205.791667,60.4695367 205.791667,67.8333333 C205.791667,75.19713 199.82213,81.1666667 192.458333,81.1666667 Z" id="Combined-Shape"></path>
            <path d="M282.041667,83.3541667 C270.248086,83.3541667 260.6875,92.9147527 260.6875,104.708333 L260.6875,328.875 C260.6875,340.668581 270.248086,350.229167 282.041667,350.229167 L293.083333,350.229167 C304.876914,350.229167 314.4375,340.668581 314.4375,328.875 L314.4375,104.708333 C314.4375,92.9147527 304.876914,83.3541667 293.083333,83.3541667 L282.041667,83.3541667 Z M282.041667,67.7291667 L293.083333,67.7291667 C313.506363,67.7291667 330.0625,84.2853035 330.0625,104.708333 L330.0625,328.875 C330.0625,349.29803 313.506363,365.854167 293.083333,365.854167 L282.041667,365.854167 C261.618637,365.854167 245.0625,349.29803 245.0625,328.875 L245.0625,104.708333 C245.0625,84.2853035 261.618637,67.7291667 282.041667,67.7291667 Z" id="Rectangle-path"></path>
            <path d="M292.25,296.895833 C287.935275,296.895833 284.4375,293.398058 284.4375,289.083333 C284.4375,284.768609 287.935275,281.270833 292.25,281.270833 L322.25,281.270833 C326.564725,281.270833 330.0625,284.768609 330.0625,289.083333 C330.0625,293.398058 326.564725,296.895833 322.25,296.895833 L292.25,296.895833 Z M292.25,224.604167 C287.935275,224.604167 284.4375,221.106391 284.4375,216.791667 C284.4375,212.476942 287.935275,208.979167 292.25,208.979167 L322.25,208.979167 C326.564725,208.979167 330.0625,212.476942 330.0625,216.791667 C330.0625,221.106391 326.564725,224.604167 322.25,224.604167 L292.25,224.604167 Z M292.25,152.3125 C287.935275,152.3125 284.4375,148.814725 284.4375,144.5 C284.4375,140.185275 287.935275,136.6875 292.25,136.6875 L322.25,136.6875 C326.564725,136.6875 330.0625,140.185275 330.0625,144.5 C330.0625,148.814725 326.564725,152.3125 322.25,152.3125 L292.25,152.3125 Z" id="Combined-Shape"></path>
        </g>
    </g>
</svg>
