<svg id="Calque_1" data-name="Calque 1" xmlns="http://www.w3.org/2000/svg" viewBox="0 0 100 100"><defs></defs><title>separate-sleaping-area-kids</title><path class="cls-1" d="M9.63,4.22h-8a1.5,1.5,0,0,0,0,3h8a9.45,9.45,0,0,1,9.44,9.43V84.34a9.45,9.45,0,0,1-9.44,9.44h-8a1.5,1.5,0,1,0,0,3h8A12.45,12.45,0,0,0,22.07,84.34V16.65A12.45,12.45,0,0,0,9.63,4.22Z"/><path class="cls-1" d="M87,4.22H40.74A12.45,12.45,0,0,0,28.3,16.65V84.34A12.45,12.45,0,0,0,40.74,96.78h8a1.5,1.5,0,1,0,0-3h-8a9.44,9.44,0,0,1-9.44-9.44V16.65a9.44,9.44,0,0,1,9.44-9.43H87a9.44,9.44,0,0,1,9.44,9.43V84.34A9.44,9.44,0,0,1,87,93.78H79a1.5,1.5,0,0,0,0,3h8A12.45,12.45,0,0,0,99.43,84.34V16.65A12.45,12.45,0,0,0,87,4.22Z"/><path class="cls-1" d="M74.7,26.25A10.84,10.84,0,1,0,63.87,37.09,10.84,10.84,0,0,0,74.7,26.25ZM56,26.25a7.84,7.84,0,1,1,7.84,7.84A7.85,7.85,0,0,1,56,26.25Z"/><path class="cls-1" d="M79.6,84.83,77.36,64.16,76.53,51,86,55.76a1.5,1.5,0,0,0,2.18-1.34V47.25a1.49,1.49,0,0,0-.82-1.33l-11.83-6a1.52,1.52,0,0,0-.68-.17h-22a1.59,1.59,0,0,0-.77.21L40.27,47a1.49,1.49,0,0,0-.74,1.29v7.17a1.5,1.5,0,0,0,2.27,1.29l9.39-5.55L49.13,84.9a1.49,1.49,0,0,0,1,1.52l6.61,2.09a1.76,1.76,0,0,0,.45.07,1.45,1.45,0,0,0,.81-.24,1.49,1.49,0,0,0,.68-1.07l2.7-20.57,2.45-.11,2.5.12L70,87.34a1.54,1.54,0,0,0,.7,1,1.52,1.52,0,0,0,1.23.15l6.61-2.09A1.49,1.49,0,0,0,79.6,84.83Zm-6.92.3L69.11,65a1.48,1.48,0,0,0-1.4-1.23l-3.77-.18H63.8L60,63.77a1.49,1.49,0,0,0-1.42,1.3L56,85.11l-3.79-1.2,1.17-19.56,1-15.83a1.5,1.5,0,0,0-2.26-1.39l-9.57,5.66V49.11l10.75-6.36H74.51L85.2,48.18V52l-9.65-4.9a1.51,1.51,0,0,0-2.18,1.44l1,15.89,2.1,19.52Z"/></svg>
