<svg version="1.1"
   xmlns="http://www.w3.org/2000/svg" xmlns:xlink="http://www.w3.org/1999/xlink"
   x="0px" y="0px" viewBox="0 0 500 366.5" style="enable-background:new 0 0 500 366.5;"
   xml:space="preserve">
<defs>
</defs>
<g>
  <g>
    <path class="st0" d="M344.1,118.3l-86.3-48.7c-5.5-3.1-12.5-1.2-15.6,4.4c-3.1,5.5-1.2,12.5,4.4,15.6l74.7,42.2
      c-17.3,23.4-54.4,81-53.3,141.7c0.1,6.2,5.2,11.3,11.5,11.3h34.9V354c0,6.3,5.1,11.5,11.5,11.5c6.3,0,11.5-5.1,11.5-11.5v-80.8
      c0-6.3-5.1-11.5-11.5-11.5h-34.7c4.5-64.5,55.5-125.4,56-126c2.2-2.6,3.2-6.1,2.6-9.4C349.1,122.9,347.1,119.9,344.1,118.3z"/>
    <path class="st0" d="M494.4,207.1l-87.6-52.2c-3.3-2-7.3-2.1-10.8-0.5c-3.5,1.6-5.9,4.9-6.4,8.7c-0.3,2-6,44.8,21.9,98.6h-34.6
      c-6.3,0-11.5,5.1-11.5,11.5v80.2c0,6.3,5.1,11.5,11.5,11.5c6.3,0,11.5-5.1,11.5-11.5v-68.7h43c4.2,0,8-2.3,10.1-6
      c2-3.7,1.9-8.2-0.4-11.7c-21.3-33.4-27.3-63.7-28.7-82.1l70.4,42c5.4,3.2,12.5,1.5,15.7-4C501.6,217.4,499.8,210.4,494.4,207.1z"
      />
    <path class="st0" d="M403.4,132.1c5.8,0,11.4-1.2,16.7-3.4c21.9-9.3,32.3-34.6,23.1-56.3c-6.7-15.8-22.1-26.1-39.3-26.1
      c-5.8,0-11.4,1.2-16.7,3.4c-21.9,9.4-32.3,34.6-23.1,56.3C370.9,121.8,386.3,132.1,403.4,132.1z M396.2,70.8
      c2.5-1.1,5.1-1.6,7.7-1.6c7.9,0,15,4.7,18.2,12.1c4.2,9.9-0.8,21.9-11,26.2c-2.5,1.1-5.1,1.6-7.7,1.6c-7.9,0-15-4.7-18.1-12.1
      C381.1,87.2,386.1,75.2,396.2,70.8z"/>
    <path class="st0" d="M202.5,210.5l4.8-86c0.4-6.3-4.5-11.7-10.8-12.1c-6.3-0.4-11.7,4.5-12.1,10.8l-4.9,88.3
      c-0.1,1.5,0.1,3,0.6,4.4L220,331.6c0.8,2.3,0.6,4.7-0.4,6.9c-1.1,2.1-2.9,3.8-5.2,4.5c-2.7,0.9-5,0.3-6.3-0.4
      c-2.2-1.1-3.8-3-4.6-5.4l-39.3-114c-1.6-4.6-6-7.7-10.8-7.7c-4.9,0-9.3,3.1-10.8,7.7l-39.3,114.1c-0.8,2.4-2.5,4.3-4.6,5.4
      c-1.4,0.7-3.6,1.3-6.4,0.3c-2.3-0.8-4.1-2.4-5.1-4.5c-1.1-2.2-1.2-4.6-0.4-6.9l39.9-115.8c0,0,0,0,0-0.1c0.2-0.7,0.4-1.4,0.5-2.1
      c0,0,0,0,0-0.1c0.1-0.7,0.1-1.4,0.1-2.2l-4.4-80.4c-0.7-12.6-6.4-22.8-15.6-27.8c-9.2-5-20.8-4.2-31.8,2.1L5.7,145.5
      c-5.5,3.2-7.4,10.2-4.2,15.7c3.2,5.5,10.2,7.4,15.7,4.2l69.5-40.1c3.9-2.2,6.8-3.2,9.4-1.8c2.4,1.3,3.4,4.4,3.6,8.8l4.3,78.2
      L64.8,324.2c-2.8,8.1-2.2,16.8,1.6,24.4c3.8,7.7,10.3,13.4,18.3,16.1c7.9,2.7,16.4,2.2,23.9-1.5c7.7-3.7,13.4-10.3,16.2-18.5
      l28.4-82.5l28.4,82.5c2.8,8.2,8.6,14.8,16.2,18.6c4.3,2.1,9,3.2,13.7,3.2c3.4,0,6.9-0.6,10.2-1.7c8.1-2.7,14.6-8.5,18.4-16.1
      c3.8-7.7,4.3-16.3,1.5-24.4L202.5,210.5z"/>
    <path class="st0" d="M153.8,90.6c6.6,0,12.9-1.6,18.5-4.2c0.5-0.2,2.3-1.2,2.6-1.3l110.5-63.7c5.5-3.2,7.4-10.2,4.2-15.7
      c-3.2-5.5-10.2-7.4-15.7-4.2l-77.2,44.5c-0.9-22.9-19.7-41.2-42.8-41.2c-23.6,0-42.9,19.2-42.9,42.9S130.2,90.6,153.8,90.6z
       M153.8,27.8c11,0,19.9,8.9,19.9,19.9c0,7.1-3.8,13.4-9.4,16.9l-1.4,0.8c-2.7,1.4-5.9,2.2-9.1,2.2c-11,0-19.9-8.9-19.9-19.9
      C133.9,36.8,142.9,27.8,153.8,27.8z"/>
  </g>
</g>
</svg>
