<svg viewBox="0 0 491 501" version="1.1" xmlns="http://www.w3.org/2000/svg" xmlns:xlink="http://www.w3.org/1999/xlink">
    <defs></defs>
    <g id="Page-1" stroke-width="1" fill-rule="evenodd">
        <g id="kitchen" fill-rule="nonzero">
            <path d="M406.808308,314.457047 C406.808308,310.104235 410.336959,306.575584 414.689771,306.575584 C419.042583,306.575584 422.571234,310.104235 422.571234,314.457047 L422.571234,370.152718 C422.571234,374.505529 419.042583,378.03418 414.689771,378.03418 C410.336959,378.03418 406.808308,374.505529 406.808308,370.152718 L406.808308,314.457047 Z M68.4308386,314.457047 C68.4308386,310.104235 71.9594897,306.575584 76.3123014,306.575584 C80.6651131,306.575584 84.1937642,310.104235 84.1937642,314.457047 L84.1937642,370.152718 C84.1937642,374.505529 80.6651131,378.03418 76.3123014,378.03418 C71.9594897,378.03418 68.4308386,374.505529 68.4308386,370.152718 L68.4308386,314.457047 Z M16.0979256,259.076635 L16.0979256,485.011902 L131.482541,485.011902 L131.482541,259.076635 L16.0979256,259.076635 Z M8.2164628,243.31371 L139.364004,243.31371 C143.716815,243.31371 147.245467,246.842361 147.245467,251.195172 L147.245467,492.893365 C147.245467,497.246177 143.716815,500.774828 139.364004,500.774828 L8.2164628,500.774828 C3.86365109,500.774828 0.335,497.246177 0.335,492.893365 L0.335,251.195172 C0.335,246.842361 3.86365109,243.31371 8.2164628,243.31371 Z M359.309359,485.222074 L474.693974,485.222074 L474.693974,259.286807 L359.309359,259.286807 L359.309359,485.222074 Z M351.427896,243.523882 L482.575437,243.523882 C486.928249,243.523882 490.4569,247.052533 490.4569,251.405345 L490.4569,493.103537 C490.4569,497.456349 486.928249,500.985 482.575437,500.985 L351.427896,500.985 C347.075084,500.985 343.546433,497.456349 343.546433,493.103537 L343.546433,251.405345 C343.546433,247.052533 347.075084,243.523882 351.427896,243.523882 Z M147.245467,259.076635 L147.245467,485.011902 L343.546433,485.011902 L343.546433,259.076635 L147.245467,259.076635 Z M139.364004,243.31371 L351.427896,243.31371 C355.780708,243.31371 359.309359,246.842361 359.309359,251.195172 L359.309359,492.893365 C359.309359,497.246177 355.780708,500.774828 351.427896,500.774828 L139.364004,500.774828 C135.011192,500.774828 131.482541,497.246177 131.482541,492.893365 L131.482541,251.195172 C131.482541,246.842361 135.011192,243.31371 139.364004,243.31371 Z M322.44159,74.5453195 L168.562752,74.5453195 L44.8949735,136.966505 L446.277168,136.966505 L322.44159,74.5453195 Z M479.422852,152.72943 L11.7893926,152.72943 C3.48887016,152.72943 0.82790618,141.552221 8.23798964,137.811989 L163.135005,59.6278782 L166.686408,58.7823939 L324.315664,58.7823939 L327.86323,59.6259429 L482.970418,137.810054 C490.384617,141.547292 487.725701,152.72943 479.422852,152.72943 Z M174.567871,16.7479256 L174.567871,58.9925662 L316.434201,58.9925662 L316.434201,16.7479256 L174.567871,16.7479256 Z M166.686408,0.985 L324.315664,0.985 C328.668476,0.985 332.197127,4.51365109 332.197127,8.8664628 L332.197127,66.874029 C332.197127,71.2268407 328.668476,74.7554918 324.315664,74.7554918 L166.686408,74.7554918 C162.333596,74.7554918 158.804945,71.2268407 158.804945,66.874029 L158.804945,8.8664628 C158.804945,4.51365109 162.333596,0.985 166.686408,0.985 Z M201.049586,435.621402 L288.691452,435.621402 L288.691452,371.518838 L201.049586,371.518838 L201.049586,435.621402 Z M193.168123,355.755912 L296.572915,355.755912 C300.925727,355.755912 304.454378,359.284563 304.454378,363.637375 L304.454378,443.502865 C304.454378,447.855676 300.925727,451.384327 296.572915,451.384327 L193.168123,451.384327 C188.815311,451.384327 185.28666,447.855676 185.28666,443.502865 L185.28666,363.637375 C185.28666,359.284563 188.815311,355.755912 193.168123,355.755912 Z M139.364004,318.555408 C135.011192,318.555408 131.482541,315.026757 131.482541,310.673945 C131.482541,306.321133 135.011192,302.792482 139.364004,302.792482 L351.638069,302.792482 C355.99088,302.792482 359.519531,306.321133 359.519531,310.673945 C359.519531,315.026757 355.99088,318.555408 351.638069,318.555408 L139.364004,318.555408 Z" id="Shape"></path>
        </g>
    </g>
</svg>
