<svg id="Calque_1" data-name="Calque 1" xmlns="http://www.w3.org/2000/svg" viewBox="0 0 24 24"><defs></defs><title>Vaisselle et
 casseroles</title><path class="cls-1" d="M21.72,10.42h-.43a3.92,3.92,0,0,0-3.87-3.35H15.27V5.71h1.14a.38.38,0,1,0,0-.75h-3a.38.38,0,0,0,0,.75h1.15V7.07H13A7.36,7.36,0,1,0,7.39,19.26a7.6,7.6,0,0,0,1.07-.09,2.38,2.38,0,0,0,2.18,1.43H19a2.37,2.37,0,0,0,2.37-2.36V14.77h.37a2.18,2.18,0,1,0,0-4.35Zm-1.18,0H9.07a3.11,3.11,0,0,1,3.06-2.6h5.29A3.19,3.19,0,0,1,20.54,10.42ZM8.27,14H7.9a1.43,1.43,0,1,1,0-2.85h.37Zm-.88,4.49A6.61,6.61,0,1,1,11.93,7.09a3.85,3.85,0,0,0-3.61,3.33H7.9a2.18,2.18,0,1,0,0,4.35h.37v3.47c0,.06,0,.12,0,.18A5.49,5.49,0,0,1,7.39,18.51Zm13.21-.27A1.62,1.62,0,0,1,19,19.85H10.64A1.62,1.62,0,0,1,9,18.24V11.17H20.6ZM21.72,14h-.37V11.17h.37a1.43,1.43,0,1,1,0,2.85Z"/><path class="cls-1" d="M2.83,11.9A4.57,4.57,0,0,1,7.39,7.33a.38.38,0,1,0,0-.75A5.32,5.32,0,0,0,2.08,11.9,5.25,5.25,0,0,0,3.7,15.72a.37.37,0,0,0,.26.1.35.35,0,0,0,.27-.11.37.37,0,0,0,0-.53A4.51,4.51,0,0,1,2.83,11.9Z"/></svg>
