<svg viewBox="0 0 478 501" version="1.1" xmlns="http://www.w3.org/2000/svg" xmlns:xlink="http://www.w3.org/1999/xlink">
    <title>Rectangle-path</title>
    <defs></defs>
    <g id="Page-1" stroke-width="1" fill-rule="evenodd">
        <g id="kitchenstorage" fill-rule="nonzero">
            <path d="M32.2677393,346.679323 L32.2677393,492.112529 C32.2677393,496.532221 28.6848708,500.115089 24.2651785,500.115089 C19.8454862,500.115089 16.2626177,496.532221 16.2626177,492.112529 L16.2626177,338.676762 C16.2626177,334.25707 19.8454862,330.674202 24.2651785,330.674202 L454.482848,330.674202 C458.90254,330.674202 462.485409,334.25707 462.485409,338.676762 L462.485409,492.112529 C462.485409,496.532221 458.90254,500.115089 454.482848,500.115089 C450.063156,500.115089 446.480287,496.532221 446.480287,492.112529 L446.480287,346.679323 L32.2677393,346.679323 Z M328.895994,41.1949016 C328.895994,36.7752093 332.478862,33.1923407 336.898555,33.1923407 C341.318247,33.1923407 344.901115,36.7752093 344.901115,41.1949016 L344.901115,65.7360881 C344.901115,70.1557804 341.318247,73.7386489 336.898555,73.7386489 C332.478862,73.7386489 328.895994,70.1557804 328.895994,65.7360881 L328.895994,41.1949016 Z M113.573757,16.120211 L113.573757,170.836387 L361.119639,170.836387 L361.119639,16.120211 L113.573757,16.120211 Z M105.571196,0.115089346 L369.122199,0.115089346 C373.541892,0.115089346 377.12476,3.69795787 377.12476,8.11765017 L377.12476,178.838948 C377.12476,183.25864 373.541892,186.841508 369.122199,186.841508 L105.571196,186.841508 C101.151504,186.841508 97.5686356,183.25864 97.5686356,178.838948 L97.5686356,8.11765017 C97.5686356,3.69795787 101.151504,0.115089346 105.571196,0.115089346 Z M231.371453,350.20045 C231.371453,345.780758 234.954321,342.197889 239.374013,342.197889 C243.793706,342.197889 247.376574,345.780758 247.376574,350.20045 L247.376574,492.112529 C247.376574,496.532221 243.793706,500.115089 239.374013,500.115089 C234.954321,500.115089 231.371453,496.532221 231.371453,492.112529 L231.371453,350.20045 Z M187.197317,383.704505 C187.197317,379.284812 190.780185,375.701944 195.199878,375.701944 C199.61957,375.701944 203.202438,379.284812 203.202438,383.704505 L203.202438,417.208559 C203.202438,421.628252 199.61957,425.21112 195.199878,425.21112 C190.780185,425.21112 187.197317,421.628252 187.197317,417.208559 L187.197317,383.704505 Z M275.118785,383.704505 C275.118785,379.284812 278.701654,375.701944 283.121346,375.701944 C287.541038,375.701944 291.123907,379.284812 291.123907,383.704505 L291.123907,417.208559 C291.123907,421.628252 287.541038,425.21112 283.121346,425.21112 C278.701654,425.21112 275.118785,421.628252 275.118785,417.208559 L275.118785,383.704505 Z M8.90026176,295.249532 C4.48056946,295.249532 0.897700937,291.666664 0.897700937,287.246972 C0.897700937,282.827279 4.48056946,279.244411 8.90026176,279.244411 L469.847765,279.244411 C474.267457,279.244411 477.850326,282.827279 477.850326,287.246972 C477.850326,291.666664 474.267457,295.249532 469.847765,295.249532 L8.90026176,295.249532 Z" id="Rectangle-path"></path>
        </g>
    </g>
</svg>
