<svg version="1.1"
   xmlns="http://www.w3.org/2000/svg" xmlns:xlink="http://www.w3.org/1999/xlink"
   x="0px" y="0px" viewBox="0 0 500 547.8" style="enable-background:new 0 0 500 547.8;"
   xml:space="preserve">

<defs>
</defs>
<g>
  <g>
    <path class="st0" d="M450,512.6c-11.1,5.3-21.5,10.3-38.7,10.3c-17.2,0-27.3-4.8-39-10.4c-12.6-6-26.9-12.8-49.7-12.8
      c-22.9,0-37.1,6.8-49.7,12.8c-11.7,5.6-21.8,10.4-39,10.4s-27.3-4.8-39-10.4c-7.9-3.8-16.5-7.9-27.4-10.4l108.2-57.7
      c9.1-4.6,15.9-12.5,19.1-22.2c3.3-9.8,2.5-20.2-2.1-29.4c-4.5-9-12.5-15.7-22.4-18.9c-10.4-3.3-21.9-2.3-31.6,2.9l-51,27.2
      l-52.6,3.2L106.6,355c-3.3-6-10.9-8.2-16.9-5c-6,3.3-8.2,10.9-5,16.9l32.3,59.1c2.2,4,6.4,6.5,10.9,6.5c0.3,0,0.5,0,0.8,0
      l63.2-3.8c1.8-0.1,3.6-0.6,5.1-1.5l0,0l53.4-28.5c3.8-2,8.3-2.5,12.3-1.2c3.5,1.1,6.2,3.4,7.7,6.3c1.6,3.2,1.9,6.9,0.7,10.4
      c-1.2,3.5-3.6,6.3-6.8,7.9c-0.1,0-0.2,0.1-0.3,0.1l-52,27.8c-15.2,0.9-93.4,5.7-102.2,6.2c-2.5,0.1-8.5,0.4-16.2-13.6
      c-14.3-26-28.2-50.5-39.5-70.2l-1.4-2.5c-6.6-11.6-19.4-17.1-31.9-13.8c-12.5,3.3-20.9,14.2-20.9,27.1v82.1
      c0,6.9,5.6,12.4,12.4,12.4c6.9,0,12.4-5.6,12.4-12.4v-82.1c0-2.1,1.5-2.8,2.4-3c2.1-0.6,3.2,0.9,3.9,2l1.4,2.5
      c11.2,19.6,25.1,44.1,39.3,69.9c9.7,17.6,22.2,26.5,37.3,26.5c0.7,0,1.3,0,2,0c4.4-0.2,25.8-1.5,48.2-2.9l-66,35.2
      c0,0-0.1,0-0.1,0.1c-10.8,5.1-20.7,9.4-36.8,9.4c-17.2,0-27.7-5-38.7-10.3c-6.2-3-13.6-0.3-16.6,5.9c-3,6.2-0.3,13.6,5.9,16.6
      c12.5,6,26.6,12.7,49.4,12.7c22.8,0,37.1-6.8,49.7-12.8c11.7-5.6,21.8-10.4,39-10.4c17.2,0,27.3,4.8,39,10.4
      c12.6,6,26.9,12.8,49.7,12.8c22.9,0,37.1-6.8,49.7-12.8c11.7-5.6,21.8-10.4,39-10.4c17.2,0,27.3,4.8,39,10.4
      c12.6,6,26.9,12.8,49.7,12.8c22.9,0,37-6.8,49.4-12.7c6.2-3,8.8-10.4,5.9-16.6C463.6,512.3,456.2,509.7,450,512.6z"/>
    <path class="st0" d="M476.3,28.5C459.2,10.4,435.2,0,410.6,0c-20.3,0-50,7.1-76.5,40.8c-6.9,8.8-17.4,22.1-29.9,37.9
      c-0.1,0.2-0.3,0.4-0.5,0.5c0,0.1-0.1,0.1-0.1,0.2C254.1,142.1,174,243.2,162.7,257.4c-10,6.2-58.5,36.1-84.5,52.2
      c0-3-0.2-6-0.9-8.9c-4-17.2-19.1-29.3-36.7-29.3c-2.9,0-5.8,0.3-8.6,1c-20.5,4.8-33.4,25.2-28.7,45.4
      c3.1,13.3,12.8,23.5,25.2,27.4c5.5,1.9,11.6,2.9,17.8,2.9c10.5,0,21.3-2.8,30.1-8.2c12.2-7.5,90.8-56.1,100.3-62
      c12.6-4.9,137.9-54,216.6-84.7c0,0,0.1,0,0.1,0c0.2-0.1,0.3-0.1,0.5-0.2c13.3-5.2,25.2-9.9,35-13.7c37.4-14.6,62-40.1,69-71.7
      C504.2,79.5,495.9,49.2,476.3,28.5z M37.6,296.7c1-0.2,2-0.3,3-0.3c6,0,11.1,4.1,12.5,10c0.8,3.2,0.2,6.6-1.6,9.5
      c-1.9,3.1-4.9,5.2-8.5,6.1c-1,0.2-2,0.3-3,0.3c-1.4,0-2.7-0.2-4-0.7c-0.3-0.1-0.7-0.3-1-0.4c-0.1,0-0.1-0.1-0.2-0.1
      c-0.4-0.2-0.9-0.4-1.3-0.6c0,0,0,0-0.1,0c-2.9-1.7-5.1-4.6-6-8.2C26,305.4,30.6,298.3,37.6,296.7z M323.7,94.1
      c9.3-11.5,26.3-19.3,42.5-19.6c9.5-0.1,22.8,2.2,33.1,14.3c11.3,13.4,15.5,32.8,10.9,50.6c-2.2,8.5-8.4,23.8-25.4,30.5
      c-53.4,20.9-128.6,50.3-175.4,68.6C240.3,199.6,289.5,137.4,323.7,94.1z M473.6,102.2c-3.2,14.4-13,33.6-40.7,48.1
      c0.5-1.5,1-3.1,1.4-4.6c6.6-25.5,0.4-53.4-16-72.9c-12.9-15.3-31.5-23.6-52.5-23.2c-2.3,0-4.6,0.2-6.9,0.5
      c15.1-16.5,32.8-25.1,51.7-25.1c17.5,0,35.4,7.8,47.7,20.8C472,60.2,478.1,82.4,473.6,102.2z"/>
  </g>
</g>
</svg>
