<svg id="Calque_1" data-name="Calque 1" xmlns="http://www.w3.org/2000/svg" viewBox="0 0 100 100"><defs></defs><title>Lakeside</title><path class="cls-1" d="M96.66,49.07H46.59l13-15.49,3.91,4.72a1.5,1.5,0,0,0,2.08.22L70,35l3.09,3.34a1.51,1.51,0,0,0,2.09.11l4.48-3.89L90.53,45.42a1.47,1.47,0,0,0,1.06.44,1.45,1.45,0,0,0,1.06-.44,1.49,1.49,0,0,0,0-2.12l-13-13,6.42-6.43L90.4,27a1.5,1.5,0,0,0,1.75-2.43l-3.91-2.83,4.1-4.09a1.51,1.51,0,0,0,0-2.12,1.49,1.49,0,0,0-2.12,0L77.54,28.2l-8.29-8.3a1.49,1.49,0,0,0-1.12-.43A1.54,1.54,0,0,0,67,20L58.41,30.3h0L42.9,48.81a1.51,1.51,0,0,0-.18.26H3.34a1.5,1.5,0,1,0,0,3H96.66a1.5,1.5,0,0,0,0-3ZM68.29,23.18l8.19,8.2,1.08,1.07-3.23,2.8-3-3.29a1.51,1.51,0,0,0-2-.16l-4.38,3.46-3.33-4Z"/><path class="cls-1" d="M24.33,78.07H11a1.5,1.5,0,0,0,0,3H24.33a1.5,1.5,0,0,0,0-3Z"/><path class="cls-1" d="M42.7,70.19a1.5,1.5,0,0,0-1.5-1.5H27.88a1.5,1.5,0,1,0,0,3H41.2A1.5,1.5,0,0,0,42.7,70.19Z"/><path class="cls-1" d="M77.88,83.72H64.56a1.5,1.5,0,0,0,0,3H77.88a1.5,1.5,0,0,0,0-3Z"/><path class="cls-1" d="M41.12,90.85H33a1.5,1.5,0,0,0,0,3h8.12a1.5,1.5,0,1,0,0-3Z"/><path class="cls-1" d="M49.24,80.89H41.12a1.5,1.5,0,1,0,0,3h8.12a1.5,1.5,0,0,0,0-3Z"/><path class="cls-1" d="M66.91,71.34a1.5,1.5,0,0,0-1.5-1.5H57.29a1.5,1.5,0,1,0,0,3h8.12A1.5,1.5,0,0,0,66.91,71.34Z"/><path class="cls-1" d="M87.78,75.1H79.67a1.5,1.5,0,1,0,0,3h8.11a1.5,1.5,0,0,0,0-3Z"/><path class="cls-1" d="M32.05,63.07a1.5,1.5,0,0,0,0-3H23.7a1.5,1.5,0,1,0,0,3Z"/></svg>
