<svg version="1.1"
	 xmlns="http://www.w3.org/2000/svg" xmlns:xlink="http://www.w3.org/1999/xlink"
	 x="0px" y="0px" viewBox="0 0 500 463.2" style="enable-background:new 0 0 500 463.2;"
	 xml:space="preserve">
<defs>
</defs>
<g>
	<path d="M165,194.2c12.5-27.3,5.8-54.3,1.8-63.4c-11.1-25.6-23.1-37.1-48.1-52.7c-12.8-8-31.8-14.6-45.4-18
		c38.4,15.7,42.7,38.1,39.7,60c-1.4,10.1-10.2,28.3-16.9,52.4c7-5.5,14.4-7.1,20.4-6.6c10,0.9,17,6.3,19.6,11.5
		c4.3,8.7,3.6,17.9-2.8,24.2c-5.4,5.3-12.5,6.4-18.5,4.7c-4.4-1.3-8.2-5.5-9.3-7.5c-1.9-3.6-0.6-4,0.8-3c1.1,0.7,2.7,3.3,5.9,5.1
		c5.3,3.1,11.8,2.5,16.8-1.8c8.1-6.8,5.9-20.9-4.1-25.7c-12.5-6-22.3,0.1-26.3,3.7c-9.8,8.9-8,25.6-3.4,32.8
		C110.2,233.6,147.9,231.5,165,194.2z"/>
	<path d="M299,256.8c-68.2-69.6-59.1-131.3-73.9-187c-7.9-29.9-25.9-58.6-61.5-67.3C144.8-2.2,107.1-3,80,27.6
		c0,0-49.3-3.8-77.5,11.2c-2.9,1.5-4.3,4.8,1.5,5.5C9.8,45,26.5,47,29.5,47.3c13.3,1.6,37.1,4.4,57.7,11.2
		c12,3.9,24.7,8.9,36.4,15.7c11.8,6.7,22.6,15.4,31.2,25c4.2,4.9,13.4,16.8,18.3,30c11.5,30.7,3.3,54.2-2.7,68.3
		c-6,14.1-23.2,33-44.5,33.6c-18.4,0.5-31.9-9-36.8-21.2c-1.6,17.6-0.9,37,4.2,57.9c9.6,39.3,46,52,78.5,53
		c32.6,1.1,45.2-16.7,49.5-27.6c2.3-5.5,7.1-19-1.7-34.1c-15.2-25.8-48.3-16.3-51.3,6.6c-1.5,11.6,8.5,22.2,18.3,21.8
		c11.3-0.4,14.7-8.5,14.8-8.8c1-1.7,2.2-1.2,2.5,0.1c0.4,1.7-2.1,7.6-7.5,10.9c-10.1,6.2-23.5,1-29.4-8.1
		c-6.4-9.8-5.4-25.2,6.4-35.6c5-4.4,20.4-13.8,38.3-3.7c18.4,10.4,33.1,47.7-0.8,74.3c19.4-5.1,40.1-12.7,70.8-12.7
		c16,0,40.1,4.9,51.5,20.3c-10.4-3.2-21.4-5-30.2-5c-47.5,0-75.4,26.8-121.6,26.8c-25.9,0-51.5-6.7-69.6-27.2
		c14.6,36.9,67.6,72.8,126.4,78.3c-13.9,12.1-42.3,29-59.4,36c-30.8,12.8-71.4,22.1-66.4,29.9h63.7c0,0,116.9,0,117.8,0
		s0.6-0.7,0.3-1c-3.6-3.1-20-12.4-48-17c16.8-6.8,70.8-38.3,96.1-75c-17.1-13.1-59.8-20.1-106.4-5c13.2-9.4,44.2-25.3,78.7-25.3
		c37.3,0,72.7,23,129.8,23c36.5,0,51.9-11.1,55.9-15.7C411.5,344.8,337.4,296,299,256.8z M120.4,54c-5.8,0-10.6-4.7-10.6-10.6
		s4.7-10.6,10.6-10.6c5.9,0,10.6,4.7,10.6,10.6S126.3,54,120.4,54z M272.6,396.7c11.4-1.4,21.4-3.9,30.3-7.2
		c-22.7,19.1-59.5,42.7-79.7,51.2c-1.7,0.7-3.3,1.4-5,2c-10.3-0.2-21.7,0.3-34,1.8c14.1-4.7,55.3-30.5,74.3-46.7
		C263.1,397.7,267.8,397.3,272.6,396.7z"/>
</g>
</svg>
