<svg viewBox="0 0 500 406" version="1.1" xmlns="http://www.w3.org/2000/svg" xmlns:xlink="http://www.w3.org/1999/xlink">
    <defs></defs>
    <g id="Page-1" stroke-width="1" fill-rule="evenodd">
        <g id="Group-3-Copy" transform="translate(-0.200072, -0.370531)">
            <path d="M232.922776,0.864562415 C238.003869,0.864562415 242.122909,4.9836021 242.122909,10.0646951 L242.122909,74.4656236 L223.722643,74.4656236 L223.722643,10.0646951 C223.722643,4.9836021 227.841683,0.864562415 232.922776,0.864562415 Z M99.476387,36.6766162 C103.876743,34.1360697 109.503455,35.6437429 112.044002,40.0440984 L144.244466,95.8169386 L128.309369,105.017071 L96.1089047,49.2442311 C93.5683583,44.8438755 95.0760314,39.2171626 99.476387,36.6766162 Z M1.76954738,134.29054 C4.31009386,129.890184 9.93680671,128.382511 14.3371623,130.923057 L70.1100024,163.123522 L60.9098698,179.058619 L5.13702965,146.858154 C0.736674068,144.317608 -0.770999098,138.690895 1.76954738,134.29054 Z M499.621184,267.572013 C499.621184,272.653106 495.502144,276.772145 490.421051,276.772145 L426.020123,276.772145 L426.020123,258.37188 L490.421051,258.37188 C495.502144,258.37188 499.621184,262.49092 499.621184,267.572013 Z M463.906696,401.034152 C461.36615,405.434507 455.739437,406.942181 451.339081,404.401634 L395.566241,372.20117 L404.766374,356.266073 L460.539214,388.466537 C464.939569,391.007083 466.447243,396.633796 463.906696,401.034152 Z M463.906696,134.29054 C466.447243,138.690895 464.939569,144.317608 460.539214,146.858154 L404.766374,179.058619 L395.566241,163.123522 L451.339081,130.923057 C455.739437,128.382511 461.36615,129.890184 463.906696,134.29054 Z M375.398169,29.3036232 C379.798525,31.8441696 381.306198,37.4708825 378.765652,41.8712381 L341.164717,106.997967 L325.22962,97.7978341 L362.830555,32.6711054 C365.371101,28.2707499 370.997814,26.7630767 375.398169,29.3036232 Z" id="Combined-Shape"></path>
            <path d="M339.355192,355.119458 C359.387572,330.720607 370.615728,300.074405 370.615728,267.640363 C370.615728,191.423968 308.830132,129.638373 232.613738,129.638373 C172.443336,129.638373 120.07689,168.467978 101.624959,224.068861 C196.664486,228.55583 284.844869,277.22978 339.355192,355.119458 Z M80.5828709,230.77704 C97.4126687,161.135368 159.993281,111.238108 232.613738,111.238108 C318.992318,111.238108 389.015993,181.261782 389.015993,267.640363 C389.015993,308.82243 373.01742,347.507411 344.924991,376.488343 L336.851556,384.817125 L330.579728,375.059402 C277.961766,293.196269 186.850535,242.895273 89.4540487,242.138014 L77.8591328,242.047863 L80.5828709,230.77704 Z" id="Combined-Shape" fill-rule="nonzero"></path>
        </g>
    </g>
</svg>
