<svg viewBox="0 0 500 487" version="1.1" xmlns="http://www.w3.org/2000/svg" xmlns:xlink="http://www.w3.org/1999/xlink">
    <defs></defs>
    <g id="Page-1" stroke-width="1" fill-rule="evenodd">
        <g id="laundry" fill-rule="nonzero">
            <path d="M56.5252523,86.2041183 C56.293837,90.5654071 52.5707146,93.9133311 48.2094258,93.6819158 C43.848137,93.4505004 40.500213,89.7273781 40.7316283,85.3660893 C40.8563547,83.0154781 41.2694392,79.1170421 42.1430019,74.1675499 C43.595454,65.9381462 45.8640145,57.6961119 49.1543543,49.9242155 C56.38356,32.8485816 67.528325,20.3602437 83.4422104,15.0232705 C114.385721,4.65872023 148.50254,11.4119209 173.952687,33.5703249 C185.127421,46.4212691 259.844708,39.6792633 281.750467,17.7735038 C318.874805,-19.3508334 410.592535,3.99688087 462.464063,76.1061641 C465.014443,79.6515778 464.207808,84.5931945 460.662394,87.1435738 C457.116981,89.6939532 452.175364,88.8873185 449.624985,85.3419047 C402.845793,20.3117401 322.127022,-0.23607296 292.933956,28.9569928 C265.094188,56.7967616 179.876982,64.4862123 162.80649,44.7355257 C142.372574,27.0279419 114.104352,21.4324327 88.4682418,30.019265 C77.4669748,33.7087143 69.3377076,42.8180169 63.7187267,56.0902439 C60.9378938,62.6586674 58.9774512,69.7812616 57.7181166,76.9164864 C56.9646074,81.1857713 56.6179303,84.4574952 56.5252523,86.2041183 Z M40.8259584,218.11098 C36.4585343,218.11098 32.9180375,214.570483 32.9180375,210.203059 C32.9180375,205.835635 36.4585343,202.295138 40.8259584,202.295138 L459.207692,202.295138 C463.575116,202.295138 467.115613,205.835635 467.115613,210.203059 C467.115613,214.570483 463.575116,218.11098 459.207692,218.11098 L40.8259584,218.11098 Z M365.353952,84.5800229 C366.0195,80.2636078 370.058179,77.303995 374.374594,77.9695429 C378.691009,78.6350907 381.650622,82.6737696 380.985074,86.9901847 L351.883925,275.725896 C351.218377,280.042311 347.179699,283.001924 342.863283,282.336376 C338.546868,281.670829 335.587256,277.63215 336.252803,273.315735 L365.353952,84.5800229 Z M115.110533,87.3726707 C114.233744,83.0941623 116.991382,78.914968 121.269891,78.038179 C125.548399,77.16139 129.727593,79.9190284 130.604382,84.1975368 L163.923089,246.78439 C164.799878,251.062899 162.04224,255.242093 157.763731,256.118882 C153.485223,256.995671 149.306028,254.238032 148.429239,249.959524 L115.110533,87.3726707 Z M242.108904,93.3767078 C242.108904,89.0092837 245.649401,85.4687869 250.016825,85.4687869 C254.384249,85.4687869 257.924746,89.0092837 257.924746,93.3767078 L257.924746,221.168709 C257.924746,225.536133 254.384249,229.07663 250.016825,229.07663 C245.649401,229.07663 242.108904,225.536133 242.108904,221.168709 L242.108904,93.3767078 Z M95.4433319,326.713093 C99.810756,326.713093 103.351253,330.25359 103.351253,334.621014 C103.351253,338.988438 99.810756,342.528935 95.4433319,342.528935 L73.7229092,342.528935 C70.1340119,342.528935 66.9951177,340.112118 66.0777154,336.642455 L0.283813712,87.8065449 C-1.04256891,82.7900978 2.74017027,77.8771829 7.92900754,77.8771829 L492.104643,77.8771829 C497.29348,77.8771829 501.07622,82.7900978 499.749837,87.8065449 L433.955935,336.642455 C433.038533,340.112118 429.899639,342.528935 426.310741,342.528935 L407.120853,342.528935 C402.753429,342.528935 399.212933,338.988438 399.212933,334.621014 C399.212933,330.25359 402.753429,326.713093 407.120853,326.713093 L420.221973,326.713093 L481.834059,93.6930247 L18.199592,93.6930247 L79.8116779,326.713093 L95.4433319,326.713093 Z M328.674279,319.121489 C364.137762,319.12149 392.886594,347.870324 392.886594,383.333807 C392.886594,418.79729 364.137762,447.546123 328.674279,447.546124 C324.306855,447.546124 320.766358,444.005628 320.766357,439.638204 C320.766357,435.27078 324.306854,431.730283 328.674278,431.730282 C355.402913,431.730282 377.070752,410.062442 377.070752,383.333807 C377.070752,356.605172 355.402913,334.937332 328.670644,334.93733 C322.447115,334.93447 316.278976,336.106416 310.490179,338.391618 C305.719127,340.275053 300.445182,337.188098 299.751266,332.1059 C295.508491,301.032069 267.750774,278.67093 236.486012,281.1405 C205.22125,283.610071 181.318421,310.051822 182.008706,341.579984 L182.008706,349.382466 C182.008706,355.157445 176.019558,358.984753 170.778836,356.558807 C156.740591,350.060463 140.155905,352.812398 128.968773,363.496445 C117.781642,374.180493 114.270055,390.621105 120.116048,404.943296 C125.962041,419.265487 139.975219,428.552887 155.443327,428.356871 C159.810401,428.30153 163.395476,431.79688 163.450817,436.163954 C163.506157,440.531027 160.010807,444.116102 155.643734,444.171443 C133.67642,444.449819 113.775353,431.26015 105.47306,410.920231 C97.1707671,390.580313 102.157811,367.231881 118.045418,352.058738 C131.028274,339.659719 149.129836,334.783026 166.193888,338.450175 C167.016046,300.173308 196.719247,268.41653 235.240614,265.373768 C271.744535,262.490362 304.476181,286.315559 313.609277,320.877651 C318.536137,319.710963 323.591898,319.119153 328.674279,319.121489 Z M237.891347,365.198308 C237.891347,360.830884 241.431843,357.290387 245.799268,357.290387 C250.166692,357.290387 253.707188,360.830884 253.707188,365.198308 L253.707188,460.93687 C253.707188,465.304294 250.166692,468.844791 245.799268,468.844791 C241.431843,468.844791 237.891347,465.304294 237.891347,460.93687 L237.891347,365.198308 Z M289.24513,411.468874 C290.47747,407.278918 294.87311,404.881296 299.063066,406.113636 C303.253022,407.345976 305.650643,411.741616 304.418303,415.931572 L285.439293,480.460206 C284.206953,484.650162 279.811314,487.047784 275.621358,485.815444 C271.431402,484.583104 269.03378,480.187464 270.26612,475.997508 L289.24513,411.468874 Z M187.180232,415.931572 C185.947892,411.741616 188.345513,407.345976 192.535469,406.113636 C196.725425,404.881296 201.121065,407.278918 202.353405,411.468874 L221.332415,475.997508 C222.564755,480.187464 220.167133,484.583104 215.977177,485.815444 C211.787221,487.047784 207.391582,484.650162 206.159242,480.460206 L187.180232,415.931572 Z" id="Shape"></path>
        </g>
    </g>
</svg>
