<svg xmlns="http://www.w3.org/2000/svg" viewBox="0 0 500 568.2"><path class="st0" d="M258.4 456.8c-5-9.2-16.5-12.6-25.7-7.5-51.6 28.2-138.8 74.7-153 79.2-.1 0-.3.1-.4.1l-3.1 1.1c-7.8 2-16.2-1.3-20.6-8.2-8.1-12.8 2.5-23.1 7.4-26.9 10.3-8 105.7-72.4 112.6-77.4 23.9-17.3 25.8-43.4 25.8-51.1V201c0-24.3-16.8-44.4-40-47.8-20.5-3-45.4 7.9-54.7 38.9-3.2 10.5-30.5 97.1-38.2 121.5l-60 40c-8.7 5.8-11.1 17.6-5.3 26.3s17.6 11.1 26.3 5.3L95 341.4c3.6-2.4 6.3-5.9 7.6-10.1 1.5-4.7 36.6-116 40.3-128.4 2.6-8.5 7.4-13.1 12.9-12.3 3.7.5 7.6 3.5 7.6 10.3v165.2c0 1.3-.3 13.3-10.1 20.3-6.4 4.6-102.3 69.4-113.6 78.1-26.1 20.2-32.6 51.1-16.3 77 10.5 16.7 29 26.5 48.1 26.5 5.1 0 10.2-.7 15.3-2.1.4-.1.7-.2 1.1-.3l3.5-1.2c22.4-7.4 136.5-69.5 159.3-82 9.3-4.9 12.7-16.4 7.7-25.6z"/><path class="st0" d="M460.2 464.6c-11.3-8.7-107.1-73.5-113.6-78.1-9.8-7.1-10.1-19-10.1-20.3V230c0-10.5-8.5-19-19-19s-19 8.5-19 19v136.2c0 7.6 1.9 33.8 25.8 51.1 6.9 5 102.3 69.4 112.6 77.4 4.9 3.8 15.5 14 7.4 26.9-3.5 5.5-9.2 8.8-15.3 8.8H208.2c-20.1 0-20.9 17.6-20.9 18.4-.2 5.1 1.8 10.1 5.3 13.8 3.6 3.7 8.5 5.8 13.6 5.8H429c19.2 0 36.9-9.9 47.4-26.5 16.3-26.1 9.8-57.1-16.2-77.3z"/><path class="st0" d="M491.6 353.6l-60-40L397 202.4c-15.6-50.1-51.7-73.5-92.6-86.3 10.2-12.3 16.4-28.1 16.4-45.3 0-39-31.7-70.8-70.8-70.8-39.1 0-70.8 31.8-70.8 70.8 0 34.7 25.2 63.7 58.2 69.6.7.2 1.3.3 2 .4 67.1 10.1 106.4 24.7 121.3 72.8l36.6 117.6c1.3 4.1 4 7.7 7.6 10.1l65.6 43.7c3.2 2.2 6.9 3.2 10.5 3.2 6.1 0 12.1-3 15.8-8.4 5.8-8.6 3.5-20.4-5.2-26.2zM250 37.9c17.9 0 32.9 15.1 32.9 32.9 0 17.8-15.1 32.9-32.9 32.9-18.5 0-32.9-14.5-32.9-32.9 0-17.8 15.1-32.9 32.9-32.9z"/></svg>
