<svg id="Layer_1" data-name="Layer 1" xmlns="http://www.w3.org/2000/svg" viewBox="0 0 444.44 500"><defs></defs><g id="_Group_" data-name="&lt;Group&gt;"><path id="_Path_" data-name="&lt;Path&gt;" class="cls-1" d="M190.8,332.31a11.24,11.24,0,0,1-1.62-.12,11.11,11.11,0,0,1-9.39-12.6h0s.35-8.33-10.72-19.39a122.36,122.36,0,0,1,0-172.85c47.69-47.66,125.23-47.63,172.86,0a122.36,122.36,0,0,1,0,172.85c-11.11,11.1-10.69,19.45-10.68,19.8a11.32,11.32,0,0,1-9.9,12,10.84,10.84,0,0,1-12.14-9.21c-.27-1.9-2.16-19.16,17-38.31a100,100,0,1,0-141.44,0c19.16,19.15,17.27,36.41,17,38.31A11.12,11.12,0,0,1,190.8,332.31Z" transform="translate(-33.28 -6.38)"/><path id="_Path_2" data-name="&lt;Path&gt;" class="cls-1" d="M316.6,380.45a11.19,11.19,0,0,1-1.35-.08L193.09,365.55a11.11,11.11,0,0,1,2.66-22.06l122.16,14.81a11.11,11.11,0,0,1-1.32,22.14Z" transform="translate(-33.28 -6.38)"/><path id="_Path_3" data-name="&lt;Path&gt;" class="cls-1" d="M316.6,424.89a11.19,11.19,0,0,1-1.35-.08L193.09,410a11.11,11.11,0,0,1,2.66-22.06l122.16,14.81a11.11,11.11,0,0,1-1.32,22.14Z" transform="translate(-33.28 -6.38)"/><path id="_Path_4" data-name="&lt;Path&gt;" class="cls-1" d="M316.6,469.34a11.19,11.19,0,0,1-1.35-.08L193.09,454.44a11.11,11.11,0,0,1,2.66-22.06L317.91,447.2a11.11,11.11,0,0,1-1.32,22.14Z" transform="translate(-33.28 -6.38)"/><path id="_Path_5" data-name="&lt;Path&gt;" class="cls-1" d="M292.54,506.38H218.46a11.11,11.11,0,0,1,0-22.22h74.07a11.11,11.11,0,1,1,0,22.22Z" transform="translate(-33.28 -6.38)"/><path id="_Path_6" data-name="&lt;Path&gt;" class="cls-1" d="M255.5,65.63a7.49,7.49,0,0,1-7.5-7.41V13.78a7.5,7.5,0,0,1,15,0V58.23A7.49,7.49,0,0,1,255.5,65.63Z" transform="translate(-33.28 -6.38)"/><path id="_Path_7" data-name="&lt;Path&gt;" class="cls-1" d="M138.1,108.13a7.38,7.38,0,0,1-5.24-2.17L101.43,74.53a7.41,7.41,0,1,1,10.47-10.47l31.42,31.42a7.41,7.41,0,0,1-5.24,12.64Z" transform="translate(-33.28 -6.38)"/><path id="_Path_8" data-name="&lt;Path&gt;" class="cls-1" d="M85.13,221H40.69a7.5,7.5,0,0,1,0-15H85.13a7.5,7.5,0,0,1,0,15Z" transform="translate(-33.28 -6.38)"/><path id="_Path_9" data-name="&lt;Path&gt;" class="cls-1" d="M372.9,108.13a7.41,7.41,0,0,1-5.24-12.64l31.42-31.42a7.41,7.41,0,1,1,10.47,10.47L378.14,106A7.38,7.38,0,0,1,372.9,108.13Z" transform="translate(-33.28 -6.38)"/><path id="_Path_10" data-name="&lt;Path&gt;" class="cls-1" d="M470.31,221H425.87a7.5,7.5,0,0,1,0-15h44.44a7.5,7.5,0,0,1,0,15Z" transform="translate(-33.28 -6.38)"/></g></svg>
