<?xml version="1.0" encoding="UTF-8"?>
<svg viewBox="0 0 74 108" version="1.1" xmlns="http://www.w3.org/2000/svg" xmlns:xlink="http://www.w3.org/1999/xlink">
    <!-- Generator: Sketch 53.2 (72643) - https://sketchapp.com -->
    <title>Icon</title>
    <desc>Created with Sketch.</desc>
    <g id="Symbols" stroke="none" stroke-width="1" fill="none" fill-rule="evenodd">
        <g id="WIP/Icons/Equipments/Baby/Body-lotion" transform="translate(-27.000000, -10.000000)" fill="#005589" fill-rule="nonzero">
            <path d="M79,102 L79,116 C79,117.104569 78.1045695,118 77,118 L52,118 C50.8954305,118 50,117.104569 50,116 L50,102 L50.1780726,102 L40.0325285,93.5313121 C38.0840961,91.9049166 36.8269754,89.5985005 36.5160003,87.0796028 L27.6929176,15.6126329 C27.3545699,12.8720158 29.3019939,10.3760216 32.0426109,10.0376738 C32.2458577,10.0125816 32.450454,10 32.6552438,10 L95.3447562,10 C98.1061799,10 100.344756,12.2385763 100.344756,15 C100.344756,15.2047898 100.332175,15.4093861 100.307082,15.6126329 L91.4447193,87.3977736 C91.1574095,89.7249829 90.0614201,91.8772196 88.3482888,93.4783539 L79.2305659,102 L79,102 Z M32.7862926,15 L41.7582275,87.1030544 C41.8867345,88.1358025 42.4062258,89.0814331 43.2113942,89.7482552 L51.9676651,97 L77.288937,97 L84.9216263,89.9222174 C85.629559,89.2657524 86.0824646,88.3833353 86.2011922,87.4291795 L95.2137076,15 L32.7862926,15 Z M49.1663898,27 L78.8336102,27 C79.9381797,27 80.8336102,27.8954305 80.8336102,29 C80.8336102,29.0532271 80.8314854,29.1064329 80.8272408,29.1594904 L77.1472408,75.1594904 C77.0640887,76.1988911 76.1963317,77 75.1536102,77 L52.8463898,77 C51.8036683,77 50.9359113,76.1988911 50.8527592,75.1594904 L47.1727592,29.1594904 C47.0846751,28.0584387 47.9058476,27.0944536 49.0068993,27.0063694 C49.0599569,27.0021248 49.1131627,27 49.1663898,27 Z" id="Icon"></path>
        </g>
    </g>
</svg>
