<svg xmlns="http://www.w3.org/2000/svg" viewBox="0 0 500 466.4"><g><path d="M223.9 215.7h16v26.9h-16zM222.8 279.4v1.2h18.3v-1.2l-9.1-5.7M222.8 212.2v1.3h18.3v-1.3l-9.1-5.6M223.9 282.9h16v26.9h-16zM223.9 148.6h16v26.9h-16z"/><path d="M496.3 414.5c-30.3 5.8-58.1 6.6-85.2 4.6 3.8-26.8 5.8-54.9 5.8-83.9C417 150.1 334.2 0 232.2 0 130.2 0 47.4 150.1 47.4 335.2c0 22 1.2 37.4 3.4 56.9-12.7 2.6-24.4 5.6-35.7 8.7-19.9 5.4-21.2 7.9 2.1 4.4 16.4-2.5 37-5.8 67.7-5.4 36.9.4 66.7 2.5 91.4 5.4v-29.7h13.6v-40.7H274v40.7h13.6v56.3c19.2 7.6 68.6 16.4 96.8-21.3 4.2-5.6 6.8-12.3 8.4-19.2.4-1.7.7-3.4 1-5.2.2-1.7.4-3.4.4-5.1.1-3.4-.2-6.9-.8-10.4-1.1-7-3.5-13.9-7.2-19.8s-8.7-10.9-14.7-14.2c-11.9-6.7-27.6-5.7-39.7.8-6.1 3.3-11.3 8-14.6 13.8-1.7 2.9-3 6.1-3.8 9.3-.8 3.1-.9 6.4-.4 9.6.9 6.4 4.3 12.5 9.2 16.9 4.9 4.4 11.2 7.1 17.6 7.2.7 0 2.5 0 4.6-.4 2.1-.4 4.6-1.2 6.9-2.4 4.6-2.3 8.1-6.1 8.4-6.4 1.6-1.8 2.9-.9 2.8.6 0 1.1-1.1 3.1-3 5.2-1.9 2.2-4.7 4.4-7.9 6.1-3.2 1.6-6.8 2.5-9.7 2.8-2.9.3-5.1 0-5.9-.1-15.4-2-28.3-15.8-29.2-31.6-.3-3.9.3-7.9 1.5-11.6 1.1-3.7 2.8-7.3 4.9-10.6 4.3-6.6 10.5-11.8 17.5-15.2 7-3.5 14.8-5.4 22.6-5.5 3.9-.1 7.9.3 11.8 1.3 3.9.9 7.6 2.5 11.1 4.4 7 3.9 12.8 9.7 17 16.5 4.2 6.8 6.9 14.3 8.2 22.1.6 4 .9 8 .8 12.1-.1 2-.3 4.1-.6 6.1s-.7 4-1.2 5.9c-2 7.8-5.5 15.2-10.2 21.8-24 33.1-68.1 31.3-83.6 31.4-52.8.2-123.5-17-155.6-25.6-10.7-2.9-7.9.9-5.2 3.5 26 24.9-58.2 34.1-123.1 33.9-22.2-.1-16.8 2.9.5 4.7 80.6 8.6 129.1-3 151-10.6 17.2-5.9 38.5-10.4 138.6 8.9 93.3 18 161.3-20.5 186.2-42.5.5-.8 3.2-5.6-2.7-4.5zM226.7 40.3c0-2.9 2.4-5.3 5.3-5.3s5.3 2.4 5.3 5.3c0 1.8-.9 3.4-2.3 4.4l13.9 19h-33.7l13.9-19c-1.5-.9-2.4-2.6-2.4-4.4zM215.1 66h33.7v34.2h-33.7V66zm-12.8 36.5h59.3s.9 6.3-5.4 6.3h-48.4c-6.4 0-5.5-6.3-5.5-6.3zm-15.4 228.9c0-12 9.3-14.2 9.3-14.2l13.9-206h43.8l13.9 206s9.3 2.2 9.3 14.2h-90.2zM222.8 145.1v1.3h18.3v-1.3l-9.1-5.6"/></g></svg>
