<?xml version="1.0" encoding="UTF-8"?>
<svg viewBox="0 0 12 22" version="1.1" xmlns="http://www.w3.org/2000/svg" xmlns:xlink="http://www.w3.org/1999/xlink">
    <!-- Generator: Sketch 53.2 (72643) - https://sketchapp.com -->
    <title>Picto/PrepareMyStay</title>
    <desc>Created with Sketch.</desc>
    <defs>
        <path d="M8.74008,21.0582465 C8.42232,21.0582465 8.1636,20.7824791 8.1636,20.4437814 C8.1636,20.1050837 8.42232,19.8298279 8.74008,19.8298279 C9.05784,19.8298279 9.31656,20.1050837 9.31656,20.4437814 C9.31656,20.7824791 9.05784,21.0582465 8.74008,21.0582465 L8.74008,21.0582465 Z M3.22008,21.0582465 C2.90232,21.0582465 2.6436,20.7824791 2.6436,20.4437814 C2.6436,20.1050837 2.90232,19.8298279 3.22008,19.8298279 C3.53784,19.8298279 3.79656,20.1050837 3.79656,20.4437814 C3.79656,20.7824791 3.53784,21.0582465 3.22008,21.0582465 L3.22008,21.0582465 Z M10.63992,5.39373488 L10.63992,17.3315488 C10.63992,17.8605721 10.23624,18.2908512 9.73992,18.2908512 L2.14008,18.2908512 C1.64376,18.2908512 1.24008,17.8605721 1.24008,17.3315488 L1.24008,5.39373488 C1.24008,4.86471163 1.64376,4.43443256 2.14008,4.43443256 L9.73992,4.43443256 C10.23624,4.43443256 10.63992,4.86471163 10.63992,5.39373488 L10.63992,5.39373488 Z M4.66008,3.11238605 L7.21992,3.11238605 L7.21992,1.32168837 L4.66008,1.32168837 L4.66008,3.11238605 Z M9.73992,3.11238605 L8.46024,3.11238605 L8.46024,0.661176744 C8.46024,0.296386047 8.18184,0.000153488372 7.84008,0.000153488372 L4.03992,0.000153488372 C3.69816,0.000153488372 3.42024,0.296386047 3.42024,0.661176744 L3.42024,3.11238605 L2.14008,3.11238605 C0.96024,3.11238605 0.000239999999,4.13564186 0.000239999999,5.39373488 L0.000239999999,17.3315488 C0.000239999999,18.5369442 0.88536,19.5172233 1.998,19.5970372 C1.84872,19.8410837 1.75992,20.1311767 1.75992,20.4437814 C1.75992,21.302293 2.41512,22.0001535 3.22008,22.0001535 C4.02504,22.0001535 4.68024,21.302293 4.68024,20.4437814 C4.68024,20.1373163 4.59384,19.8538744 4.44984,19.612386 L7.51032,19.612386 C7.36632,19.8538744 7.27992,20.1373163 7.27992,20.4437814 C7.27992,21.302293 7.93512,22.0001535 8.74008,22.0001535 C9.54504,22.0001535 10.20024,21.302293 10.20024,20.4437814 C10.20024,20.128107 10.11,19.8344326 9.95784,19.5888512 C11.03448,19.4701535 11.88024,18.5098279 11.88024,17.3315488 L11.88024,5.39373488 C11.88024,4.13564186 10.92024,3.11238605 9.73992,3.11238605 L9.73992,3.11238605 Z M5.94,5.90925116 C5.67744,5.90925116 5.46384,6.13692558 5.46384,6.41678605 L5.46384,16.3080884 C5.46384,16.5879488 5.67744,16.8156233 5.94,16.8156233 C6.20256,16.8156233 6.41616,16.5879488 6.41616,16.3080884 L6.41616,6.41678605 C6.41616,6.13692558 6.20256,5.90925116 5.94,5.90925116 M3.66,5.90925116 C3.39744,5.90925116 3.18384,6.13692558 3.18384,6.41678605 L3.18384,16.3080884 C3.18384,16.5879488 3.39744,16.8156233 3.66,16.8156233 C3.92256,16.8156233 4.13616,16.5879488 4.13616,16.3080884 L4.13616,6.41678605 C4.13616,6.13692558 3.92256,5.90925116 3.66,5.90925116 M8.212032,5.90925116 C7.949472,5.90925116 7.735872,6.13692558 7.735872,6.41678605 L7.735872,16.3080884 C7.735872,16.5879488 7.949472,16.8156233 8.212032,16.8156233 C8.474592,16.8156233 8.688192,16.5879488 8.688192,16.3080884 L8.688192,6.41678605 C8.688192,6.13692558 8.474592,5.90925116 8.212032,5.90925116" id="path-1"></path>
    </defs>
    <g id="UI-design" stroke="none" stroke-width="1" fill="none" fill-rule="evenodd">
        <g id="D_Dashboard-connect-as-quick-login" transform="translate(-1079.000000, -125.000000)">
            <g id="onglet-connexion" transform="translate(1068.000000, 50.000000)">
                <g id="Prepare-My-Stay" transform="translate(11.000000, 75.000000)">
                    <g id="Picto/PrepareMyStay">
                        <g id="icon-sejours">
                            <g id="color/bleuétoilé">
                                <mask id="mask-2" fill="white">
                                    <use xlink:href="#path-1"></use>
                                </mask>
                                <use id="Mask" fill="#FFFFFF" xlink:href="#path-1"></use>
                                <g id="color/GrayDarker" mask="url(#mask-2)" fill="#504747">
                                    <g transform="translate(0.000000, -1.000000)" id="Rectangle-Copy-4">
                                        <rect x="0" y="0" width="12" height="23"></rect>
                                    </g>
                                </g>
                            </g>
                        </g>
                    </g>
                </g>
            </g>
        </g>
    </g>
</svg>
