<svg viewBox="0 0 470 501" version="1.1" xmlns="http://www.w3.org/2000/svg" xmlns:xlink="http://www.w3.org/1999/xlink">
    <defs></defs>
    <g id="Page-1" stroke-width="1" fill-rule="evenodd">
        <g id="luggagetransport" fill-rule="nonzero">
            <path d="M269.582487,215.153478 C272.021716,216.518425 273.670656,219.127153 273.670656,222.121011 C273.670656,222.192395 273.669719,222.26356 273.667855,222.334495 C273.723657,224.446517 272.945619,226.576475 271.333742,228.188352 L233.886934,265.63516 C230.771048,268.751046 225.7192,268.751046 222.603315,265.63516 C219.487429,262.519275 219.487429,257.467427 222.603315,254.351542 L246.855122,230.099734 L29.7344858,230.099734 C25.3279586,230.099734 21.7557624,226.527538 21.7557624,222.121011 C21.7557624,217.714483 25.3279586,214.142287 29.7344858,214.142287 L246.004058,214.142287 L221.752251,189.89048 C218.636366,186.774594 218.636366,181.722746 221.752251,178.606861 C224.868136,175.490975 229.919984,175.490975 233.03587,178.606861 L269.582487,215.153478 Z M0.481968203,304.462186 C0.480104394,304.391241 0.479166668,304.320065 0.479166668,304.24867 C0.479166668,301.245752 2.13810123,298.6303 4.58950146,297.268781 L41.1296902,260.931593 C44.2542427,257.824399 49.3060713,257.838471 52.4132652,260.963023 C55.5204591,264.087576 55.5063872,269.139405 52.3818347,272.246599 L28.2242778,296.269947 L244.415337,296.269947 C248.821864,296.269947 252.39406,299.842143 252.39406,304.24867 C252.39406,308.655197 248.821864,312.227394 244.415337,312.227394 L27.2947004,312.227394 L51.546508,336.479201 C54.6623933,339.595087 54.6623933,344.646935 51.546508,347.76282 C48.4306227,350.878705 43.3787745,350.878705 40.2628892,347.76282 L2.81608065,310.316012 C1.20395486,308.703886 0.426166197,306.573959 0.481968203,304.462186 Z M398.883422,447.546543 C393.77185,447.546543 389.628103,451.69029 389.628103,456.801862 L389.628103,475.099734 C389.628103,480.211306 393.77185,484.355053 398.883422,484.355053 L401.862145,484.355053 C406.973717,484.355053 411.117465,480.211306 411.117465,475.099734 L411.117465,456.801862 C411.117465,451.69029 406.973717,447.546543 401.862145,447.546543 L398.883422,447.546543 Z M398.883422,431.589096 L401.862145,431.589096 C415.786772,431.589096 427.074911,442.877236 427.074911,456.801862 L427.074911,475.099734 C427.074911,489.02436 415.786772,500.3125 401.862145,500.3125 L398.883422,500.3125 C384.958796,500.3125 373.670656,489.02436 373.670656,475.099734 L373.670656,456.801862 C373.670656,442.877236 384.958796,431.589096 398.883422,431.589096 Z M237.819592,447.546543 C232.708021,447.546543 228.564273,451.69029 228.564273,456.801862 L228.564273,475.099734 C228.564273,480.211306 232.708021,484.355053 237.819592,484.355053 L240.798316,484.355053 C245.909887,484.355053 250.053635,480.211306 250.053635,475.099734 L250.053635,456.801862 C250.053635,451.69029 245.909887,447.546543 240.798316,447.546543 L237.819592,447.546543 Z M237.819592,431.589096 L240.798316,431.589096 C254.722942,431.589096 266.011082,442.877236 266.011082,456.801862 L266.011082,475.099734 C266.011082,489.02436 254.722942,500.3125 240.798316,500.3125 L237.819592,500.3125 C223.894966,500.3125 212.606826,489.02436 212.606826,475.099734 L212.606826,456.801862 C212.606826,442.877236 223.894966,431.589096 237.819592,431.589096 Z M411.117465,157.014628 C411.117465,152.6081 414.689661,149.035904 419.096188,149.035904 C423.502715,149.035904 427.074911,152.6081 427.074911,157.014628 L427.074911,369.142287 C427.074911,373.548814 423.502715,377.121011 419.096188,377.121011 C414.689661,377.121011 411.117465,373.548814 411.117465,369.142287 L411.117465,157.014628 Z M248.351507,84.9933511 L248.351507,46.1635638 C248.351507,21.1867321 260.990202,0.3125 279.096188,0.3125 L360.372784,0.3125 C378.418714,0.3125 391.33023,21.5301514 391.33023,46.1635638 L391.33023,84.9933511 L421.862145,84.9933511 C448.242555,84.9933511 469.628103,106.378899 469.628103,132.759309 L469.628103,400.206117 C469.628103,426.586527 448.242555,447.972074 421.862145,447.972074 L217.564159,447.97196 C191.283557,447.83142 170.053259,426.486981 170.053635,400.206117 L170.053635,356.589096 L186.011082,356.589096 L186.011082,400.206231 C186.010831,417.707372 200.148602,431.921153 217.606826,432.014628 L421.862145,432.014628 C439.429501,432.014628 453.670656,417.773472 453.670656,400.206117 L453.670656,132.759309 C453.670656,115.191953 439.429501,100.950798 421.862145,100.950798 L217.649493,100.950684 C200.148602,101.044273 186.010831,115.258053 186.011082,132.759309 L186.011082,168.716755 L170.053635,168.716755 L170.053635,132.759423 C170.053259,106.478444 191.283557,85.1340051 217.606826,84.9933511 L248.351507,84.9933511 Z M264.308954,84.9933511 L375.372784,84.9933511 L375.372784,46.1635638 C375.372784,29.2059747 367.50086,16.2699468 360.372784,16.2699468 L279.096188,16.2699468 C271.931229,16.2699468 264.308954,28.8589955 264.308954,46.1635638 L264.308954,84.9933511 Z" id="Shape"></path>
        </g>
    </g>
</svg>
