<svg viewBox="0 0 501 298" version="1.1" xmlns="http://www.w3.org/2000/svg" xmlns:xlink="http://www.w3.org/1999/xlink">
    <defs></defs>
    <g id="Page-1" stroke-width="1" fill-rule="evenodd">
        <g id="lunch" fill-rule="nonzero">
            <path d="M500.875,289.31172 C500.875,293.771385 497.25973,297.386657 492.800069,297.386657 C488.340408,297.386657 484.725139,293.771385 484.725139,289.31172 L484.725139,231.687411 L438.080486,232.784933 C433.528561,232.892037 429.78825,229.216553 429.815757,224.663447 C430.277939,148.162416 449.460268,72.9375431 485.687936,5.55671683 C489.661842,-1.83445983 500.875,0.988850801 500.875,9.38059945 L500.875,223.396714 L500.875,289.31172 Z M484.725139,44.2361443 C460.704858,98.4675342 447.544754,156.977002 446.092055,216.442083 L484.725139,215.533069 L484.725139,44.2361443 Z M43.2953314,8.94993618 C43.2953314,4.49027207 46.9106035,0.875 51.3702676,0.875 C55.8299317,0.875 59.4452038,4.49027207 59.4452038,8.94993618 L59.4452038,281.129118 C59.4452038,285.588783 55.8299317,289.204055 51.3702676,289.204055 C46.9106035,289.204055 43.2953314,285.588783 43.2953314,281.129118 L43.2953314,8.94993618 Z M87.0076526,8.94993618 C87.0076526,4.49027207 90.6229247,0.875 95.0825888,0.875 C99.5422529,0.875 103.157525,4.49027207 103.157525,8.94993618 L103.157525,79.5787113 C103.157525,107.823251 80.2608018,130.719974 52.0162625,130.719974 C23.7717231,130.719974 0.875,107.823251 0.875,79.5787113 L0.875,8.94993618 C0.875,4.49027207 4.49027207,0.875 8.94993618,0.875 C13.4096003,0.875 17.0248724,4.49027207 17.0248724,8.94993618 L17.0248724,79.5787113 C17.0248724,98.9039225 32.6910513,114.570101 52.0162625,114.570101 C71.3414736,114.570101 87.0076526,98.9039225 87.0076526,79.5787113 L87.0076526,8.94993618 Z M261.53394,71.9344384 C257.074276,71.9344384 253.459004,68.3191663 253.459004,63.8595022 C253.459004,59.3998381 257.074276,55.784566 261.53394,55.784566 C287.261769,55.784566 311.935854,66.0049065 330.128177,84.1972292 C348.320499,102.389552 358.54084,127.063637 358.54084,152.791466 C358.54084,157.25113 354.925568,160.866402 350.465904,160.866402 C346.00624,160.866402 342.390968,157.25113 342.390968,152.791466 C342.390968,131.346849 333.872127,110.780548 318.708493,95.6169135 C303.544858,80.4532794 282.978557,71.9344384 261.53394,71.9344384 Z M261.53394,232.787167 C265.993604,232.787167 269.608876,236.402439 269.608876,240.862103 C269.608876,245.321767 265.993604,248.93704 261.53394,248.93704 C207.958508,248.93704 164.52704,205.505571 164.52704,151.93014 C164.52704,147.470475 168.142312,143.855203 172.601976,143.855203 C177.06164,143.855203 180.676912,147.470475 180.676912,151.93014 C180.676912,196.586243 216.877837,232.787167 261.53394,232.787167 Z M261.53394,297.386657 C181.200524,297.386657 116.077423,232.263556 116.077423,151.93014 C116.077423,71.5967234 181.200524,6.47362242 261.53394,6.47362242 C341.867356,6.47362242 406.990457,71.5967234 406.990457,151.93014 C406.990457,232.263556 341.867356,297.386657 261.53394,297.386657 Z M261.53394,281.236784 C332.948028,281.236784 390.840585,223.344227 390.840585,151.93014 C390.840585,80.5160516 332.948028,22.6234948 261.53394,22.6234948 C190.119852,22.6234948 132.227295,80.5160516 132.227295,151.93014 C132.227295,223.344227 190.119852,281.236784 261.53394,281.236784 Z" id="Shape"></path>
        </g>
    </g>
</svg>
