<svg xmlns="http://www.w3.org/2000/svg" viewBox="0 0 500 337"><g><path d="M209 161.3l-31.4 27.5v16.5h62.8v-16.5M455.2 205.3l-62 105.9H216.8V337h176.4L500 300.4v-18.7"/><path d="M383.6 219.8l-7.9 11.6v19h15.8v-19M239.9 0l-66.1 113.7c1.7-.5 3.5-.7 5.4-.6 3.9.4 7.5 2.4 10.1 4.9 2.7 2.6 4.6 5.7 5.9 8.9.1.2.1.3.2.5.2-1.1.5-2.1.8-3.2 1.7-6.1 4.4-12 8.4-17.1 3.9-5.1 9.1-9.4 15.1-12.2 3-1.4 6.2-2.4 9.5-2.9 3.5-.5 6.7-.4 10 0 3.4.5 6.8 1.6 10 3.4 3.1 1.8 5.9 4.5 7.8 7.7 1.9 3.2 2.9 6.7 3.2 10.4.2 4-.7 7.5-2.5 10.9-1.8 3.3-4.8 6.3-8.6 7.7-1.9.7-3.9 1-5.8 1s-3.8-.3-5.7-.8c-1.8-.6-3.7-1.4-5.3-2.7-1.6-1.2-3.1-2.9-4-4.9-.9-2-1.3-4.2-1.3-6.1 0-2 .4-4.2 1.5-6.2.2-.5.9-1.6 2-2.7s2.7-2.2 4.4-2.7c1.7-.6 3.5-.7 4.8-.6 1.3.1 2.3.4 2.4.5 1.7.6 1 1.7.2 2.1-.6.3-1.8.4-3.1.6-1.3.2-2.7.7-3.9 1.5-1.2.8-2.1 1.8-2.7 2.7-.5.9-.8 1.7-.9 2-.7 2.7-.4 5.9 1.2 8.1 1.6 2.2 4.2 3.6 7 4.2 2.8.5 5.7.3 8.1-.9 2.4-1.2 4.2-3.3 5.3-5.8 1.1-2.5 1.6-5.4 1.3-7.9-.4-2.8-1.3-5.4-2.8-7.7-1.5-2.2-3.5-4-5.9-5.3-2.4-1.3-5-2-7.8-2.4-11.5-2.2-23.1 3.9-30.1 13.1-3.6 4.6-6.1 10-7.7 15.7-1.6 5.7-2.2 11.7-2.2 17.8v2.1h126.7L263.2 253h-172l63.6-106.4h38.8v-.7c0-6-.9-12.1-3.4-17.3-1.2-2.6-2.9-4.9-4.9-6.6-2-1.7-4.4-2.8-6.7-2.8-1.1-.1-2.4 0-3.6.3-1.1.3-2.2.8-3.1 1.6-1.8 1.4-2.9 3.7-3 5.7 0 .9.2 2.1.7 3 .4 1 1.1 1.8 1.8 2.3.4.2.7.4 1.1.6.3.1.7.2 1.2.1.9 0 1.8-.3 2.5-.8.2-.1.7-.5 1-1 .3-.5.4-1 .4-1.1 0-.2 1.2-.1 1.9.2 1.1.4 1.4 2 .7 3.5s-2.1 2.4-2.4 2.5c-1.5.9-3.2 1.3-4.9 1.3-1.8 0-3.5-.7-5-1.9-1.4-1.1-2.5-2.6-3.2-4.2-.7-1.6-1.1-3.4-1-5.3.1-.9.2-1.9.5-2.8-26.3-32-44.4-62.4-44.4-62.4s-28.1 47-65 85.8h28.3S56.3 182.3 32.4 197c32.9-.2 36.6 0 36.6 0s-30.2 41.4-54.2 56c11.1-.1 26.8 0 32.3 0-12.2 20-31.2 45.2-47.1 58.2h115v-9.7h14.9v9.7h47.7v-9.7h14.9v9.7h24.3l14.7-23.9H91.2v-15H115v-11.8h14.9v11.8h47.7v-11.8h14.9v11.8h100.1l37.9-67.1h29.1L239.9 0z"/></g></svg>
