<?xml version="1.0" encoding="UTF-8"?>
<svg viewBox="0 0 42 48" version="1.1" xmlns="http://www.w3.org/2000/svg" xmlns:xlink="http://www.w3.org/1999/xlink">
    <!-- Generator: Sketch 53.2 (72643) - https://sketchapp.com -->
    <title>Manual juicer icon</title>
    <desc>Created with Sketch.</desc>
    <g id="Icons---Kids" stroke="none" stroke-width="1" fill="none" fill-rule="evenodd">
        <g id="Icons/Kids_icons_board" transform="translate(-202.000000, -228.000000)" fill="#005589" fill-rule="nonzero">
            <g id="Icons" transform="translate(16.000000, 104.000000)">
                <g id="Assets/Icons/Equipments/Room/Manual-juicer" transform="translate(177.000000, 118.000000)">
                    <path d="M30.5,7.82248858 L30.5,24.998217 L41.6593338,24.998217 C40.6186971,13.8441045 36.8890953,8.21834755 30.5,7.82248858 Z M29,7.82401899 C22.6178314,8.23271399 18.8249698,13.8608055 17.6497258,24.998217 L29,24.998217 L29,7.82401899 Z M16.1113268,25.3 C17.3430827,12.7461199 21.8824149,6.3 29.7623637,6.3 C37.6451675,6.3 42.1104286,12.7488334 43.1923626,25.3 L50,25.3 C50.5522847,25.3 51,25.7477153 51,26.3 L51,48.3 C51,51.0614237 48.7614237,53.3 46,53.3 L14,53.3 C11.2385763,53.3 9,51.0614237 9,48.3 L9,26.3 C9,25.7477153 9.44771525,25.3 10,25.3 L16.1113268,25.3 Z M10.5,26.8 L10.5,48.3 C10.5,50.2329966 12.0670034,51.8 14,51.8 L46,51.8 C47.9329966,51.8 49.5,50.2329966 49.5,48.3 L49.5,26.8 L10.5,26.8 Z" id="Manual-juicer-icon"></path>
                </g>
            </g>
        </g>
    </g>
</svg>
