<svg xmlns="http://www.w3.org/2000/svg" viewBox="0 0 500 437.6"><g><path d="M444.8 237l-12.9 14.6 12.9 14.7m-16.5-10.6l-12.8 14.6h25.6m58.2-38h-10.6v38h10.4c.5-7 .8-14.2.9-21.7 0-5.5-.3-10.9-.7-16.3zm-130.7 3.9l-9.8 10.1 9.8 10m73.1-24h-26.8l13.4 15.2m-89.8 11.9l12.8-13.1-12.8-13.2m16.5 17l-9.6 10h19.3m.1-27.8h-19.5l9.7 10.1m38.2-10.1h13.2v38h-13.2zm18.6 34l12.9-14.7-12.9-14.6m38.4 29.2l12.9-14.6-12.9-14.6m29.9-4.7h-26.8l13.4 15.2m0 8.2l-12.8 14.6h25.6M393.2 210v11.5h105.2c-.9-7.9-2.1-15.7-3.8-23.3-5.3-23.1-25.7-40.3-50-40.3-28.4 0-51.4 23.3-51.4 52.1zm90.1 26.9l-13 14.7 13 14.8M228.6 160.6h30.8v60.9h-30.8zm36.3 0h31v60.9h-31zm31 73.7l-11.6 12 11.6 11.9m-67.3-.2l11.5-11.7-11.5-11.8m15.3 15.6l-9.7 10h19.3m6-26l-11.9 12.2 11.9 12.1m21-8.3l-9.7 10h19.4m-36.6-27.8h-19.5l9.8 10.1m57.4-81.8H333v60.9h-31.7zm25.6 71.7h-19.6l9.8 10.1m0 7.7l-9.7 10h19.4m-25.5-1.5l12-12.3-12-12.4m31.8-.2l-12.2 12.6 12.2 12.5m-42.9-26.5h-19.5l9.8 10.1m-15.6 16l11.8-12.1-11.8-12.2m73.6-73.5h30.1v60.9h-30.1zM63 120.6c-1.8-2.4-6-10.2-7.5-13-8.9 6.4-13.5 10.6-18 13.6 6.5-.7 19.6-1.2 25.5-.6z"/><path d="M393.2 360h-24.6v-78.7h-30.1V360h-5.4v-78.7h-31.7V360H296v-78.7h-31V360h-5.4v-78.7h-30.8v76c-9.3-11.9-15.2-20.4-25.5-36.5v-181h271.3c-1.3-2.7-2.7-5.4-4.1-8H203.6l64.7-59.4H426C380.8 27.7 318.7 0 250 0c-49.2 0-95 14.3-133.7 38.8 17.1-.7 37.9 3.3 48 23.2 0 0-28-26.5-79.2 2.5 0 0 24.8-9.8 46.9 3.1-17.1-2.4-32.9 4.3-40.2 10.4 0 0 16.6-8 42.8-4.2 11.9 1.7 20.2 9.6 22.1 15 0 0-17.9-10.7-37.9-4 0 0 43.8-3.3 51.1 37.6 0 0-14.3-21.4-33.9-25.4 0 0 24 12.9 31.6 40.2l-46.7-37.6s24.2 35 35.4 43.2c0 0-26.2-8.4-50.2-41.5 4.1 12.5 26.9 41.9 26.9 41.9s-22.2-17-42.6-39c10.7 20 14.9 23.6 22.2 34.2 0 0-26.2-9.5-36.5-34.8 0 0 2.5 13.7 11 27.1 20.8 15.9 28.9 41.7 28.9 41.7-24.9-42.5-61.3-40.5-61.3-40.5 55.5 11.6 52.2 61.3 52.2 61.3-26-46.2-54-53.9-54-53.9 50.5 29.3 35.3 79.5 35.3 79.5-8-39.8-37.9-68.5-37.9-68.5 21.4 30.8 13.4 76.3 13.4 76.3-2-53.6-27.6-77-27.6-77 26.3 33.6 7.4 84.9 7.4 84.9-8.6-31.5-19.1-85.4-19.1-85.4C4.5 185.1.7 227.6.1 246.9c0 1-.1 2.1-.1 3.1 0 10.9.7 21.7 2.1 32.2 2.2 15.1 5.5 30.1 10.8 44.3 6.5 17.4 16.4 33.7 30.1 46.1 5.4 4.9 11.3 9.3 17.6 12.9 11.9 6.6 24.4 10.1 36.3 11 6.6.5 13.3.4 19.8-.3 9.6-1.6 18.8-4.9 27.2-9.8 15.9-9.1 29.1-24.1 30.4-42.3.9-8.9-.7-18-4.8-25.9-4-7.9-10.5-14.4-18.4-18.1-15.4-7.6-37.6-3-45.1 12.5-3.9 7.6-4.5 16.8-1.3 24.6 3 7.8 10.2 13.3 18.2 12.9.5 0 1.2 0 2.2-.2.5 0 1-.2 1.6-.3l.4-.1.3-.1.9-.3c2.5-.9 5.5-2.6 7.4-4.8 4.1-4.3 3.2-10.5 3.1-11-.5-2.8.8-3.3 1.9-2.1.8.9 1.9 3.5 1.8 7.1-.1 3.6-2 8.1-5.5 11.1-3.4 3-7.8 5.1-11.5 5.5-3.7.5-6.6.1-7.5-.1-4.8-.9-9.4-3.4-12.7-7-3.4-3.6-5.7-8.1-6.9-12.8-2.5-9.5-.7-19.9 4.6-28.2 5.3-8.4 14.7-13.8 24.3-15.4 2.5-.5 5-.7 7.6-.7.1 0 .2-.1.3-.1 12.7 0 21.9 4 32.4 12.4 25.2 20.1 41.3 63.7 65.9 86.2 26 23.8 57.4 48.6 105.3 48.6 49.7 0 111.8-24 142.5-92.2 7.5-18.1 12.9-37.3 16-57.2 0-.3.1-.6.1-.8.3-2 .5-4 .8-6h-105V360z"/></g></svg>
