<svg xmlns="http://www.w3.org/2000/svg" viewBox="0 0 500 294.4"><g><path d="M272.7 190.1c-6.6 0-5.9 9.9.7 9.9 6.6 0 5.9-9.9-.7-9.9zM238.5 185.4s2.8 0 7.6.1c-.9-1.4-1.8-2.7-2.7-4.1-1.5-2.5-2.9-5-4.2-7.5-2.6-5.1-4.8-10.5-6.5-16-3.4-11-4.8-22.8-3.1-34.3.8-5.3 2.2-10.2 4.3-15.2 1.7-4.9 5.6-16.5 7.5-25 .9-4.3 1.6-8.6 1.8-12.8.2-4.2-.3-8.4-1.3-12.5-2.1-8.2-6.3-16-12.8-21.1-6.5-5.2-15.3-7-23.6-5.8-5.3.7-14.8 4.2-20.1 13.3-4.3 7.3-5.6 16.4-3.9 24.8.8 4.2 2.4 8.3 4.8 11.8s5.8 6.2 9.7 7.5c7.8 2.2 18 .2 22.8-6.8.5-.7 1.9-2.8 2.6-5.9.6-3.1.5-7.4-1-11.3-.7-1.9-1.8-3.7-3.2-5.2-1.4-1.5-3-2.6-4.6-3.4-3.2-1.6-6-2.1-7.1-2.8-1.5-.8-1.5-2.3 2.2-2 .3.1 2.5.2 5.6 1.2 1.5.5 3.3 1.3 5 2.6 1.7 1.2 3.3 2.9 4.6 4.8 2.5 3.8 3.4 8.3 3.6 11.8.1 1.7 0 3.5-.3 4.9-.2 1.4-.6 2.4-.8 3-1.8 5.3-5.9 9.8-10.8 12.1-2.4 1.2-5 2-7.6 2.4-1.3.2-2.6.3-3.9.4-1.3 0-2.6.1-3.9-.1-5.4-.4-10.7-3.1-14.4-6.9-3.7-3.8-6-8.6-7.6-13.3-3.7-10.9-1.1-23.8.9-28.1V10.5h-32.4v56L0 159.3l10.5 16.4 29.9-19v89.9c30.1 3.1 52.8 11.3 77.4 14v-16H87.2h.1-.1c11.8-6.1 23.7-29.9 23.7-29.9l-14.1.1c.1 0 .1-.1.2-.1h-.1s.1 0 .2-.1c3.9-2.7 8.9-9.4 12.4-14.6h-8.6c11-10.4 13.9-16.6 14.3-17.4h-9.6l22.7-36.7c.3.6 15.9 33.6 24.6 42.3h-.5c.3.1.5.2.5.2h-12.2c.9 1.8 8.2 14 18.8 21.2.1 0 .2.1.2.1h-.1c.1 0 .1.1.2.1l-14.1-.1s7.4 10.1 17.2 17.3h-11.1c3.9 5.3 13 15 17.6 17.4h-.4.1-30.6v16.7c8.5-.3 17.4-1.5 27.2-3.9 32.9-8.1 66.7-38.3 65.4-62.1 0 0-12.6 16.5-29.1-7.9-1.3-2.6 10.6-2.6 10.6-2.6.7 0-7.3-1.3-5.3-17.8.7-7.1 12.6 18.6 31.2 18.6zM390.9 160.3c5.2-6.3 12.5-10.8 20.3-12.9 7.8-2.1 15.8-2.3 23.6-1 7.8 1.2 16.6 5.2 21.5 8.2 6.2 3.9 27.3 17.3 33.2 21l10.5-16.4L250 0l-39.2 25c2.1 0 4.2.2 6.2.5 5 .8 9.9 2.7 14.1 5.5 4.2 2.9 7.7 6.6 10.4 10.8 2.7 4.2 4.7 8.7 6 13.4 1.3 4.7 2.1 9.6 2 14.6-.1 4.9-.8 9.6-1.7 14.3-.3 1.6-.7 3.1-1.2 4.6 6.9-7.1 15.4-12.4 24.4-16.2 1.1-.5 6.1-2.5 11.4-3.4 5.3-1 10.8-1 12.2.1 1 .7 1 2.1-.9 2.3-.3 0-4.4.5-8.6 1.5-4.2 1-8.5 2.5-9.7 3-10.1 3.9-19.5 10-26.6 18-1.8 2-3.4 4.2-4.8 6.4-1.4 2.3-2.7 4.7-3.9 7.1-2.3 4.9-3.9 10.1-4.7 15.4-1.8 10.7-.5 21.8 2.8 32.2 1.7 5.2 3.8 10.3 6.4 15.3.8 1.4 1.6 2.9 2.4 4.3.1-1.1.1-2.2.3-3.3.9-7.4 3.6-14.8 8.3-20.8 4.6-6 10.8-10.5 17.4-13.6.3-.1.6-.3.9-.4-1.3-3.4-2.2-6.7-3-10.2-.9-4.3-1.5-8.8-1.2-13.3.2-4.5 1.4-9.2 4.2-13 1.4-1.9 3.1-3.5 5.2-4.7 2.1-1.2 4.6-1.6 6.9-1.4.5 0 2.8.3 4.5 1.7.9.6 1.6 1.5 2 2.3.4.8.3 1.6-.1 2.1-.6.6-1.8 1.2-1.9 1.1 0 0-.5-.6-1.5-1.2s-2.3-.9-2.6-.9c-1.5-.2-2.9-.1-4.2.5-.7.3-1.2.7-1.8 1.2-.6.6-1.2 1.2-1.7 1.9-2.1 2.7-3.1 6.3-3.2 10.2-.2 7.1 1.8 14.6 4.6 21.5 1-.4 2.1-.7 3.1-1 1.7-.5 3.5-1 5.2-1.4l5.1-1.2c6.7-1.6 13.3-3.5 19.7-6 6.3-2.5 12.5-5.6 17.5-9.9 2.4-2.2 4.5-4.7 5.8-7.7 1.3-2.9 1.6-6.1 1.2-9.4-.2-1.6-.6-3.2-1.1-4.8-.5-1.5-1.3-2.9-2.2-4.2-1.9-2.6-4.6-4.6-7.6-6-.6-.3-2.4-1.1-4.9-1.7-2.5-.6-5.7-1-8.9-.9-3.3 0-6.6.5-9.3 1-2.7.5-4.8 1-5.9.8-1.4-.2-2-1.5.5-2.6.4-.2 5.8-2.6 11.9-3.4 3.1-.4 6.3-.4 8.9-.1 2.7.3 4.8.8 5.7 1.1 3.9 1.1 7.6 3 10.8 5.8 1.6 1.4 2.9 3.1 4 5 1.1 1.8 1.9 4 2.3 5.8 1.1 3.8 1.5 8.1.4 12.3-1 4.2-3.3 7.8-6 10.8-5.5 5.8-12.2 9.4-18.9 12.4-6.8 2.9-13.7 5.1-20.7 6.9-1.7.5-3.5.9-5.3 1.3-1.8.4-3.4.8-5 1.3-3.3.9-6.5 2.1-9.6 3.5-6.1 2.8-11.6 6.7-15.7 11.8-4.1 5.1-6.5 11.4-7.3 18-.4 3.3-.4 6.7-.1 10 .1 1.3.3 2.5.5 3.8 24 .1 69.2-.2 91-3.5 4.7 5.9 6.2 21.3-9.1 25.3-45.1 9-56.6 13-66.7 25.4-10.6 13-10.2 39.7-20.4 61.6h210.7V189.6c0-33.4-34.7-49.8-61.2-29.1-5.4 4.2-8.8 10.8-10.7 17.5-.9 3.4-1.4 6.8-1.4 10.3 0 3.5.5 6.9 1.7 10.2 1.1 3.2 2.9 6.2 5.3 8.7 2.4 2.5 5.3 4.4 8.4 5.8 3.2 1.4 6.6 2.3 10 2.6 3.4.2 7-.1 10.3-1.1 3.3-.9 6.5-2.5 9.1-4.7 2.6-2.2 4.8-5 6.2-8.2.3-.7.8-1.9 1.3-3.7.2-.9.4-1.9.5-3 0-1.1 0-2.4-.1-3.7-.2-2.7-.9-5.6-2.2-8.5-1.3-2.8-3.4-5.5-6.2-7.3-2.8-1.8-6.2-2.7-9.4-2.7s-6.4 1-8.8 2.5c-2.5 1.4-4.3 3.5-5.3 5.3-1.1 1.9-1.5 3.5-1.9 4.4-.5 1.3-1 1.9-1.5 1.5-.4-.5-.9-2.2.1-5.5.1-.3.4-1.4 1.3-2.9.8-1.5 2.3-3.5 4.5-5.2 2.2-1.7 5-3 8.2-3.7 1.6-.3 3.4-.5 5.1-.4 1.7.1 3.5.3 5.2.8 3.5 1 6.7 3 9.1 5.5 2.4 2.5 4 5.4 5 8.1 1 2.7 1.5 5.2 1.8 7.3.1 1 .2 1.9.2 2.7v2c-.1 2.4-.7 4.5-1.4 6.5s-1.7 3.9-2.8 5.7c-2.3 3.6-5.5 6.7-9.1 8.9-3.7 2.2-7.8 3.5-11.8 4-2 .3-4.1.4-6.1.4-2.2 0-4.2-.3-6.2-.8-4-.9-7.9-2.4-11.4-4.6-3.5-2.2-6.7-5.2-9-8.8-2.3-3.6-3.8-7.6-4.5-11.7-.7-4.1-.8-8.1-.3-12.2.8-8.1 4-15.9 9.2-22.2z"/></g></svg>
