<svg version="1.1" id="Calque_1" xmlns="http://www.w3.org/2000/svg" xmlns:xlink="http://www.w3.org/1999/xlink" x="0px" y="0px"
	 viewBox="0 0 200 200" style="enable-background:new 0 0 200 200;" xml:space="preserve">
<g>
	<path class="st0" d="M44.6,105.6c0,2.4,2,4.4,4.4,4.4h101.7c2.4,0,4.4-2,4.4-4.4c0-2.4-2-4.4-4.4-4.4H49
		C46.6,101.2,44.6,103.2,44.6,105.6z"/>
	<path class="st0" d="M93.6,58.5c1.1,0.3,2.2,0.4,3.4,0.5c0.3,0.1,0.7,0.1,1.1,0.1h13.7c1.4,0.1,10.4,1.7,10.4,18.7v16
		c0,2.4,2,4.4,4.4,4.4c2.4,0,4.4-2,4.4-4.4v-16c0-25.6-17.6-27.4-18.9-27.5c0.8-1.4,1.4-2.9,1.8-4.5c2.1-9.1-3.5-18.4-12.4-20.6
		c-1.3-0.3-2.7-0.5-4-0.5c-7.8,0-14.4,5.4-16.2,13.2C79.1,47,84.7,56.3,93.6,58.5z M89.7,39.8c0.8-3.7,4-6.3,7.6-6.3
		c0.6,0,1.3,0.1,1.9,0.2c4.3,1.1,7.1,5.7,6,10.2c-0.8,3.7-4,6.3-7.6,6.3c-0.6,0-1.3-0.1-1.9-0.2C91.4,48.9,88.7,44.3,89.7,39.8z"/>
	<path class="st0" d="M73.1,96.9c2.4,0,4.4-2,4.4-4.4V73.2c0-1.9,1.6-3.5,3.5-3.5c1.9,0,3.5,1.6,3.5,3.5v19.3c0,2.4,2,4.4,4.4,4.4
		c2.4,0,4.4-2,4.4-4.4V73.2C93.2,66.5,87.7,61,81,61c-6.8,0-12.2,5.5-12.2,12.2v19.3C68.7,95,70.7,96.9,73.1,96.9z"/>
	<path class="st0" d="M106.6,77.9v14.6c0,2.4,2,4.4,4.4,4.4c2.4,0,4.4-2,4.4-4.4V77.9c0-2.4-2-4.4-4.4-4.4
		C108.6,73.6,106.6,75.5,106.6,77.9z"/>
	<path class="st0" d="M91.5,163.3c-2.5-3.8-7.5-24.5-10.7-42c-0.1-0.7-0.5-1.4-0.9-2c-1.5-1.8-3.5-4.2-49.5-2.7
		c-0.5-7.3,0-27.1,1-44.9c0.1-2.4-1.7-4.5-4.1-4.6c-2.4-0.1-4.5,1.7-4.6,4.1c-2.9,51.7-0.5,52.6,2.7,53.9c0.6,0.2,1.2,0.3,1.8,0.3
		c18.4-0.7,38.9-0.8,45.5,0c8.3,43.6,12.8,45,15.2,45.7c0.4,0.1,0.8,0.2,1.2,0.2c1.9,0,3.6-1.2,4.2-3.2
		C93.9,166.3,93.1,164.3,91.5,163.3z"/>
	<path class="st0" d="M31.5,63.1c0.6,0,1.2,0,1.8-0.1c4.4-0.5,8.2-2.6,10.9-6c2.6-3.3,3.7-7.4,3.1-11.6c-1.1-8.5-9.1-14.8-18-13.8
		c-4.4,0.5-8.2,2.6-10.9,6c-2.6,3.3-3.7,7.4-3.1,11.6C16.4,57.1,23.3,63.1,31.5,63.1z M25.3,43c1.2-1.5,2.9-2.5,4.9-2.7
		c0.3,0,0.6,0,0.9,0c3.8,0,7,2.7,7.5,6.3c0.2,1.8-0.2,3.6-1.4,5c-1.2,1.5-2.9,2.5-4.9,2.7c-4.2,0.4-7.9-2.4-8.4-6.3
		C23.7,46.2,24.2,44.4,25.3,43z"/>
	<path class="st0" d="M8.8,175.3c0.2,0,0.4,0,0.6,0c2.1,0,4-1.6,4.3-3.8l4.9-35.4l41.4-0.6l5.4,36.1c0.3,2.2,2.2,3.7,4.3,3.7
		c0.2,0,0.4,0,0.7,0c2.4-0.4,4-2.6,3.7-5l-5.4-35.4c1.4-0.8,2.3-2.2,2.3-3.9c0-2.4-2-4.3-4.4-4.3c0,0,0,0-0.1,0l-47.9,0.7
		c-1.9-64.2-3.5-64.5-7.7-65.2c-2.4-0.4-4.6,1.2-5,3.6C5.7,66.9,6,68,6.6,68.9c1.2,5.2,2.7,35.6,3.5,63.1c0,0.4,0.1,0.7,0.2,1.1
		L5,170.3C4.7,172.7,6.4,174.9,8.8,175.3z"/>
	<path class="st0" d="M172.9,125.5c0.6,0,1.2-0.1,1.8-0.3c3.3-1.3,5.6-2.2,2.7-53.9c-0.1-2.4-2.2-4.3-4.6-4.1
		c-2.4,0.1-4.3,2.2-4.1,4.6c1,17.7,1.5,37.5,1,44.9c-46-1.5-48,0.9-49.5,2.7c-0.5,0.6-0.8,1.3-1,2.1c-2.9,17.2-7.5,37.4-9.9,41.2
		c-1.6,1-2.4,3-1.8,4.9c0.6,1.9,2.3,3.2,4.2,3.2c0.4,0,0.8-0.1,1.2-0.2c2.5-0.7,7-2,14.5-44.9C134.1,124.7,154.6,124.8,172.9,125.5z
		"/>
	<path class="st0" d="M166.7,63c0.6,0.1,1.2,0.1,1.8,0.1c8.2,0,15.1-6,16.2-13.9c0.6-4.2-0.6-8.3-3.1-11.6c-2.7-3.4-6.5-5.5-10.9-6
		c-8.9-1-16.9,5.3-18,13.8c-0.6,4.2,0.6,8.3,3.1,11.6C158.5,60.4,162.3,62.5,166.7,63z M161.3,46.6c0.5-3.6,3.7-6.3,7.5-6.3
		c0.3,0,0.6,0,0.9,0c2,0.2,3.7,1.2,4.9,2.7c1.1,1.4,1.6,3.2,1.4,5c-0.5,3.9-4.2,6.7-8.4,6.3c-2-0.2-3.7-1.2-4.9-2.7
		C161.6,50.1,161.1,48.4,161.3,46.6z"/>
	<path class="st0" d="M133.4,126.6C133.4,126.6,133.3,126.6,133.4,126.6c-2.5,0-4.4,1.9-4.4,4.3c0,1.7,0.9,3.1,2.3,3.9l-5.3,35.4
		c-0.4,2.4,1.3,4.6,3.7,5c0.2,0,0.4,0,0.7,0c2.1,0,4-1.6,4.3-3.7l5.5-36.1l41.4,0.6l4.9,35.4c0.3,2.2,2.2,3.8,4.3,3.8
		c0.2,0,0.4,0,0.6,0c2.4-0.3,4.1-2.5,3.7-4.9l-5.2-37.3c0.1-0.3,0.2-0.7,0.2-1.1c0.8-27.4,2.3-57.8,3.5-63.1c0.6-0.9,0.8-2,0.6-3.1
		c-0.4-2.4-2.6-4-5-3.6c-4.2,0.7-5.8,1-7.7,65.2L133.4,126.6z"/>
</g>
</svg>
