<svg viewBox="0 0 501 305" version="1.1" xmlns="http://www.w3.org/2000/svg" xmlns:xlink="http://www.w3.org/1999/xlink">
    <title>Rectangle-path</title>
    <defs></defs>
    <g id="Page-1" stroke-width="1" fill-rule="evenodd">
        <g id="microwave" fill-rule="nonzero">
            <path d="M374.268345,100.735361 L434.412352,100.735361 L434.412352,64.7336669 L374.268345,64.7336669 L374.268345,100.735361 Z M366.326795,48.8505665 L442.353902,48.8505665 C446.739899,48.8505665 450.295452,52.4061196 450.295452,56.7921167 L450.295452,108.676911 C450.295452,113.062908 446.739899,116.618461 442.353902,116.618461 L366.326795,116.618461 C361.940798,116.618461 358.385245,113.062908 358.385245,108.676911 L358.385245,56.7921167 C358.385245,52.4061196 361.940798,48.8505665 366.326795,48.8505665 Z M442.565677,206.305035 C448.413673,206.305035 453.15441,201.564297 453.15441,195.716301 C453.15441,189.868305 448.413673,185.127568 442.565677,185.127568 C436.717681,185.127568 431.976943,189.868305 431.976943,195.716301 C431.976943,201.564297 436.717681,206.305035 442.565677,206.305035 Z M404.446236,206.305035 C410.294232,206.305035 415.034969,201.564297 415.034969,195.716301 C415.034969,189.868305 410.294232,185.127568 404.446236,185.127568 C398.59824,185.127568 393.857502,189.868305 393.857502,195.716301 C393.857502,201.564297 398.59824,206.305035 404.446236,206.305035 Z M366.326795,206.305035 C372.174791,206.305035 376.915528,201.564297 376.915528,195.716301 C376.915528,189.868305 372.174791,185.127568 366.326795,185.127568 C360.478799,185.127568 355.738061,189.868305 355.738061,195.716301 C355.738061,201.564297 360.478799,206.305035 366.326795,206.305035 Z M442.565677,163.950101 C448.413673,163.950101 453.15441,159.209363 453.15441,153.361367 C453.15441,147.513371 448.413673,142.772633 442.565677,142.772633 C436.717681,142.772633 431.976943,147.513371 431.976943,153.361367 C431.976943,159.209363 436.717681,163.950101 442.565677,163.950101 Z M404.446236,163.950101 C410.294232,163.950101 415.034969,159.209363 415.034969,153.361367 C415.034969,147.513371 410.294232,142.772633 404.446236,142.772633 C398.59824,142.772633 393.857502,147.513371 393.857502,153.361367 C393.857502,159.209363 398.59824,163.950101 404.446236,163.950101 Z M366.326795,163.950101 C372.174791,163.950101 376.915528,159.209363 376.915528,153.361367 C376.915528,147.513371 372.174791,142.772633 366.326795,142.772633 C360.478799,142.772633 355.738061,147.513371 355.738061,153.361367 C355.738061,159.209363 360.478799,163.950101 366.326795,163.950101 Z M241.273851,111.006433 C241.273851,106.620436 244.829404,103.064882 249.215401,103.064882 C253.601398,103.064882 257.156952,106.620436 257.156952,111.006433 L257.156952,162.255903 C257.156952,166.6419 253.601398,170.197453 249.215401,170.197453 C244.829404,170.197453 241.273851,166.6419 241.273851,162.255903 L241.273851,111.006433 Z M66.5597469,64.7336669 L66.5597469,208.528669 L305.018027,208.528669 L305.018027,64.7336669 L66.5597469,64.7336669 Z M58.6181967,48.8505665 L312.959578,48.8505665 C317.345575,48.8505665 320.901128,52.4061196 320.901128,56.7921167 L320.901128,216.470219 C320.901128,220.856216 317.345575,224.411769 312.959578,224.411769 L58.6181967,224.411769 C54.2321997,224.411769 50.6766465,220.856216 50.6766465,216.470219 L50.6766465,56.7921167 C50.6766465,52.4061196 54.2321997,48.8505665 58.6181967,48.8505665 Z M15.9456004,16.237267 L15.9456004,257.236843 L484.1794,257.236843 L484.1794,16.237267 L15.9456004,16.237267 Z M39.8761383,273.119944 L8.00405019,273.119944 C3.61805313,273.119944 0.0625,269.564391 0.0625,265.178394 L0.0625,8.29571686 C0.0625,3.9097198 3.61805313,0.354166667 8.00405019,0.354166667 L492.12095,0.354166667 C496.506947,0.354166667 500.0625,3.9097198 500.0625,8.29571686 L500.0625,265.178394 C500.0625,269.564391 496.506947,273.119944 492.12095,273.119944 L460.248862,273.119944 L460.248862,296.73282 C460.248862,301.118817 456.693309,304.67437 452.307312,304.67437 C447.921314,304.67437 444.365761,301.118817 444.365761,296.73282 L444.365761,273.119944 L55.7592387,273.119944 L55.7592387,296.73282 C55.7592387,301.118817 52.2036855,304.67437 47.8176885,304.67437 C43.4316914,304.67437 39.8761383,301.118817 39.8761383,296.73282 L39.8761383,273.119944 Z" id="Rectangle-path"></path>
        </g>
    </g>
</svg>
