<svg version="1.1"
     xmlns="http://www.w3.org/2000/svg" xmlns:xlink="http://www.w3.org/1999/xlink"
     x="0px" y="0px" viewBox="0 0 293.4 490" style="enable-background:new 0 0 293.4 490;"
     xml:space="preserve">
<defs>
</defs>
<g>
    <path class="st0" d="M146.7,490c-9,0-16.4-7.3-16.4-16.4V364.1c0-9,7.3-16.4,16.4-16.4s16.4,7.3,16.4,16.4v109.6
        C163.1,482.7,155.7,490,146.7,490z"/>
    <path class="st0" d="M146.7,380.4C65.8,380.4,0,314.1,0,232.6c0-9,7.3-16.4,16.4-16.4s16.4,7.3,16.4,16.4
        c0,63.5,51.1,115.1,114,115.1c62.9,0,114-51.6,114-115.1c0-9,7.3-16.4,16.4-16.4s16.4,7.3,16.4,16.4
        C293.4,314.1,227.6,380.4,146.7,380.4z"/>
    <path class="st0" d="M149.2,314.4h-4.9c-46.4,0-84.2-37.8-84.2-84.2v-146C60,37.8,97.8,0,144.2,0h4.9c46.4,0,84.2,37.8,84.2,84.2
        v146C233.4,276.7,195.6,314.4,149.2,314.4z M144.2,32.2c-28.7,0-52,23.3-52,52v146c0,28.7,23.3,52,52,52h4.9c28.7,0,52-23.3,52-52
        v-146c0-28.7-23.3-52-52-52H144.2z"/>
</g>
</svg>
