<?xml version="1.0" encoding="UTF-8"?>
<svg viewBox="0 0 50 43" version="1.1" xmlns="http://www.w3.org/2000/svg" xmlns:xlink="http://www.w3.org/1999/xlink">
    <!-- Generator: Sketch 53.2 (72643) - https://sketchapp.com -->
    <title>Combined Shape</title>
    <desc>Created with Sketch.</desc>
    <g id="Icons---Kids" stroke="none" stroke-width="1" fill="none" fill-rule="evenodd">
        <g id="Icons/Kids_icons_board" transform="translate(-374.000000, -230.000000)" fill="#005589" fill-rule="nonzero">
            <g id="Icons" transform="translate(16.000000, 104.000000)">
                <g id="Assets/Icons/Equipments/Room/Microwave--dishes" transform="translate(354.000000, 118.000000)">
                    <path d="M54,49.2673554 C54,49.7133219 53.638473,50.0748491 53.1925069,50.0748491 C52.7465408,50.0748491 52.3850139,49.7133219 52.3850139,49.2673554 L52.3850139,43.5049245 L47.7205486,43.6146767 C47.2653561,43.6253871 46.891325,43.2578387 46.8940757,42.8025281 C46.9402939,35.152425 48.8585268,27.6299377 52.4812936,20.891855 C52.8786842,20.1527374 54,20.4350684 54,21.2742433 L54,42.6758548 L54,49.2673554 Z M52.3850139,24.7597978 C49.9829858,30.1829368 48.6669754,36.0338836 48.5217055,41.9803917 L52.3850139,41.8894903 L52.3850139,24.7597978 Z M8.24203314,21.231177 C8.24203314,20.7852106 8.60356035,20.4236834 9.04952676,20.4236834 C9.49549317,20.4236834 9.85702038,20.7852106 9.85702038,21.231177 L9.85702038,48.4490952 C9.85702038,48.8950617 9.49549317,49.2565889 9.04952676,49.2565889 C8.60356035,49.2565889 8.24203314,48.8950617 8.24203314,48.4490952 L8.24203314,21.231177 Z M12.6132653,21.231177 C12.6132653,20.7852106 12.9747925,20.4236834 13.4207589,20.4236834 C13.8667253,20.4236834 14.2282525,20.7852106 14.2282525,21.231177 L14.2282525,28.2940545 C14.2282525,31.1185085 11.9385802,33.4081808 9.11412625,33.4081808 C6.28967231,33.4081808 4,31.1185085 4,28.2940545 L4,21.231177 C4,20.7852106 4.36152721,20.4236834 4.80749362,20.4236834 C5.25346003,20.4236834 5.61498724,20.7852106 5.61498724,21.231177 L5.61498724,28.2940545 C5.61498724,30.2265756 7.18160513,31.7931935 9.11412625,31.7931935 C11.0466474,31.7931935 12.6132653,30.2265756 12.6132653,28.2940545 L12.6132653,21.231177 Z M30.065894,27.5296272 C29.6199276,27.5296272 29.2584004,27.1681 29.2584004,26.7221336 C29.2584004,26.2761672 29.6199276,25.91464 30.065894,25.91464 C32.6386769,25.91464 35.1060854,26.936674 36.9253177,28.7559063 C38.7445499,30.5751386 39.766584,33.0425471 39.766584,35.61533 C39.766584,36.0612964 39.4050568,36.4228236 38.9590904,36.4228236 C38.513124,36.4228236 38.1515968,36.0612964 38.1515968,35.61533 C38.1515968,33.4708683 37.2997127,31.4142382 35.7833493,29.8978747 C34.2669858,28.3815113 32.2103557,27.5296272 30.065894,27.5296272 Z M30.065894,43.6149001 C30.5118604,43.6149001 30.8733876,43.9764273 30.8733876,44.4223937 C30.8733876,44.8683601 30.5118604,45.2298874 30.065894,45.2298874 C24.7083508,45.2298874 20.365204,40.8867405 20.365204,35.5291974 C20.365204,35.0832309 20.7267312,34.7217037 21.1726976,34.7217037 C21.618664,34.7217037 21.9801912,35.0832309 21.9801912,35.5291974 C21.9801912,39.9948077 25.6002837,43.6149001 30.065894,43.6149001 Z M30.065894,50.0748491 C22.0325524,50.0748491 15.5202423,43.562539 15.5202423,35.5291974 C15.5202423,27.4958557 22.0325524,20.9835456 30.065894,20.9835456 C38.0992356,20.9835456 44.6115457,27.4958557 44.6115457,35.5291974 C44.6115457,43.562539 38.0992356,50.0748491 30.065894,50.0748491 Z M30.065894,48.4598618 C37.2073028,48.4598618 42.9965585,42.6706061 42.9965585,35.5291974 C42.9965585,28.3877885 37.2073028,22.5985328 30.065894,22.5985328 C22.9244852,22.5985328 17.1352295,28.3877885 17.1352295,35.5291974 C17.1352295,42.6706061 22.9244852,48.4598618 30.065894,48.4598618 Z M23.4961767,10.6476144 C23.1099744,10.395594 23.0011985,9.87821227 23.2532189,9.49201 C23.5052394,9.10580773 24.0226211,8.99703185 24.4088233,9.24905227 C25.4228281,9.91075193 26.2078835,10.2266667 26.7191589,10.2266667 C27.2694096,10.2266667 28.3274102,9.88519126 29.7837846,9.2073044 C31.3221613,8.40837817 32.5215463,8 33.4384248,8 C34.3498105,8 35.5793119,8.40500912 37.18803,9.19969462 C37.6014917,9.40393926 37.7710957,9.90468922 37.5668511,10.318151 C37.3626064,10.7316127 36.8618565,10.9012167 36.4483947,10.696972 C35.0520842,10.0072131 34.0283938,9.67 33.4384248,9.67 C32.8539483,9.67 31.873466,10.0038441 30.5213456,10.7051769 C28.8246302,11.4959198 27.5829876,11.8966667 26.7191589,11.8966667 C25.8163548,11.8966667 24.7569709,11.4703592 23.4961767,10.6476144 Z M23.4961767,15.1009477 C23.1099744,14.8489273 23.0011985,14.3315456 23.2532189,13.9453433 C23.5052394,13.5591411 24.0226211,13.4503652 24.4088233,13.7023856 C25.4228281,14.3640853 26.2078835,14.68 26.7191589,14.68 C27.2694096,14.68 28.3274102,14.3385246 29.7837846,13.6606377 C31.3221613,12.8617115 32.5215463,12.4533333 33.4384248,12.4533333 C34.3498105,12.4533333 35.5793119,12.8583425 37.18803,13.653028 C37.6014917,13.8572726 37.7710957,14.3580226 37.5668511,14.7714843 C37.3626064,15.184946 36.8618565,15.35455 36.4483947,15.1503054 C35.0520842,14.4605464 34.0283938,14.1233333 33.4384248,14.1233333 C32.8539483,14.1233333 31.873466,14.4571774 30.5213456,15.1585103 C28.8246302,15.9492532 27.5829876,16.35 26.7191589,16.35 C25.8163548,16.35 24.7569709,15.9236925 23.4961767,15.1009477 Z" id="Combined-Shape"></path>
                </g>
            </g>
        </g>
    </g>
</svg>
