<svg viewBox="0 0 421 496" version="1.1" xmlns="http://www.w3.org/2000/svg" xmlns:xlink="http://www.w3.org/1999/xlink">
    <defs></defs>
    <g id="Page-1" stroke-width="1" fill-rule="evenodd">
        <g id="minifridge" transform="translate(-19.000000, -2.000000)" fill-rule="nonzero">
            <path d="M34.6875,18.2291667 L34.6875,453.020833 L423.645833,453.020833 L423.645833,18.2291667 L34.6875,18.2291667 Z M381.979167,468.645833 L76.3541667,468.645833 L76.3541667,489.583333 C76.3541667,493.898058 72.8563913,497.395833 68.5416667,497.395833 C64.2269421,497.395833 60.7291667,493.898058 60.7291667,489.583333 L60.7291667,468.645833 L26.875,468.645833 C22.5602754,468.645833 19.0625,465.148058 19.0625,460.833333 L19.0625,10.4166667 C19.0625,6.10194206 22.5602754,2.60416667 26.875,2.60416667 L431.458333,2.60416667 C435.773058,2.60416667 439.270833,6.10194206 439.270833,10.4166667 L439.270833,460.833333 C439.270833,465.148058 435.773058,468.645833 431.458333,468.645833 L397.604167,468.645833 L397.604167,489.583333 C397.604167,493.898058 394.106391,497.395833 389.791667,497.395833 C385.476942,497.395833 381.979167,493.898058 381.979167,489.583333 L381.979167,468.645833 Z" id="Combined-Shape"></path>
            <path d="M103.854167,214.791667 C103.854167,219.106391 100.356391,222.604167 96.0416667,222.604167 C91.7269421,222.604167 88.2291667,219.106391 88.2291667,214.791667 L88.2291667,81.4583333 C88.2291667,77.1436087 91.7269421,73.6458333 96.0416667,73.6458333 C100.356391,73.6458333 103.854167,77.1436087 103.854167,81.4583333 L103.854167,214.791667 Z" id="Shape"></path>
            <path d="M236.979167,257.472665 L291.55483,202.813296 C294.603462,199.759988 299.550062,199.756198 302.60337,202.80483 C305.656678,205.853462 305.660469,210.800062 302.611837,213.85337 L247.903282,268.645833 L331.875,268.645833 C336.189725,268.645833 339.6875,272.143609 339.6875,276.458333 C339.6875,280.773058 336.189725,284.270833 331.875,284.270833 L248.111297,284.270833 L302.611837,338.854963 C305.660469,341.908271 305.656678,346.854871 302.60337,349.903503 C299.550062,352.952135 294.603462,352.948345 291.55483,349.895037 L236.979167,295.235669 L236.979167,379.166667 C236.979167,383.481391 233.481391,386.979167 229.166667,386.979167 C224.851942,386.979167 221.354167,383.481391 221.354167,379.166667 L221.354167,295.235669 L166.778503,349.895037 C163.729871,352.948345 158.783271,352.952135 155.729963,349.903503 C152.676655,346.854871 152.672865,341.908271 155.721497,338.854963 L210.222037,284.270833 L126.458333,284.270833 C122.143609,284.270833 118.645833,280.773058 118.645833,276.458333 C118.645833,272.143609 122.143609,268.645833 126.458333,268.645833 L210.430051,268.645833 L155.721497,213.85337 C152.672865,210.800062 152.676655,205.853462 155.729963,202.80483 C158.783271,199.756198 163.729871,199.759988 166.778503,202.813296 L221.354167,257.472665 L221.354167,173.75 C221.354167,169.435275 224.851942,165.9375 229.166667,165.9375 C233.481391,165.9375 236.979167,169.435275 236.979167,173.75 L236.979167,257.472665 Z" id="Combined-Shape"></path>
        </g>
    </g>
</svg>
