<svg version="1.1" id="Calque_1" xmlns="http://www.w3.org/2000/svg" xmlns:xlink="http://www.w3.org/1999/xlink" x="0px" y="0px"
	 viewBox="0 0 500 500" style="enable-background:new 0 0 500 500;" xml:space="preserve">
<g id="Activité">
	<g id="Reco-Visuel" transform="translate(-254.000000, -1515.000000)">
		<g id="_x30_2-_x2B_-03-_x2B_-01-copy-_x2B_-01-_x2B_-Rectangle-Mask" transform="translate(-95.000000, 1192.000000)">
			<g id="_x30_1-Golf" transform="translate(210.000000, 39.000000)">
				<g id="bloc" transform="translate(0.000000, 268.000000)">
					<g id="bloc-bleu" transform="translate(115.000000, 0.000000)">
						<path id="Fill-1" d="M385.8,19.1c0,0-5.5-6.4-11.4-0.7c-5.9,5.7-26.5,52.6-26.5,52.6l-33.1,57.2l-21.4,17l-1,0.5l22.9,28.2
							l-25.7-26.6l-6.5-3.7L232,194.7c0,0-22.7-24.5-21.9-30.2c0.7-5.8,27.7-21.8,27.7-21.8s10.1,5.2,16.1,4c5.9-1.2,9-16,11.9-22.2
							c1.7-3.6,24.5-24.9,24-34.9c-0.5-10-20.6-14.3-29.6-9.9c-9,4.4-14.6,37.6-14.6,37.6l-36.1,1.8l20.6,23.7l-23.7-23.5
							l-22.1-28.3l-28.9,38.4l-2.2,10.9l6.2,79.9l6.9,50.1l57.4-4.5l-57,7.1L149,276l8.3,18.4l12.8,33.6l-2.9,43.7l-4.3,33
							c0,0-4.4,16.9-8.4,32.2c-0.1,0.6,2.5-0.1,2.5-0.1l-0.1,1.4l-0.1,1.2l-0.2,2.9c-0.1,1.8-0.2,3.7-0.2,5.3l0,1.1l0.3,5.9
							c0.1,1.8,0.3,3.6,0.5,5.5c2.4,23.1,9.5,50.6,12.2,52.2c5.2,3.1,36.2,2.6,53.6,3c17.4,0.4,9-4.5,2.8-5.7
							c-6.1-1.3-12.4-3.3-16.1-5.5c8.4-4-0.3-6.2-0.3-6.2s-23.3,1.1-26.3-2.5c-3-3.6-0.2-28.1,1.9-38.3
							c2.1-10.2,16.9-45.9,16.9-45.9l26.2,2.9l-6,25.6c0,0,10.7,28.6,16.3,31.7c18.4,6.7,26.1,8.1,37.2,2c5.7-3.1,10.7-16,15-24.6
							l0.6-16.5c0,0,0.9-3.2-5.9-14.7c-6.8-11.5-16.2-16.5-16.2-16.5s8.5-4.3,11.1-5.6c2.6-1.2,13.1,21.8,16.4,25.5
							c0,0,3.5-1.4,5.1,0.2c5.9,5.7,16.9,21.5,16.9,21.5s9.4,67.4,12.5,71c1.2,1.4,10.9,1.4,16.6,0.3c4.4,1.1,31.1,1.8,31.1,1.8
							c5.6,0.1,3.1-4.4-2.1-6.4c-1.9-3.1-13.5-2.6-16.5-4.3c-11.2-3.3-13-6.7-13-6.7s1-40.9-2.6-51.5
							c-20.3-57.6-67.8-118.5-72.4-133.1c-4.6-14.6-12.8-26.6-10.1-40.7c2.8-14,64.5-83.2,64.5-83.2l-1.1-6.2
							c23-34.1,42.1-112.9,42.1-112.9s31.3-13.8,31.5-24.1C399.2,36.6,385.8,19.1,385.8,19.1z"/>
					</g>
				</g>
			</g>
		</g>
	</g>
</g>
</svg>
