<svg viewBox="0 0 501 335" version="1.1" xmlns="http://www.w3.org/2000/svg" xmlns:xlink="http://www.w3.org/1999/xlink">
    <defs></defs>
    <g id="Page-1" stroke-width="1" fill-rule="evenodd">
        <g id="mixable-rooms" transform="translate(-0.500000, 0.000000)" fill-rule="nonzero">
            <path d="M454.121807,0 L289.82997,0 C274.25049,0.00131536884 259.692299,7.75229711 250.993459,20.6770945 C242.288079,7.75955039 227.73406,0.0107899599 212.156947,0 L47.8651107,0 C22.0030533,0.0589115215 1.05237015,21.0095947 0.993458629,46.871652 L0.993458629,287.283051 C1.05237015,313.145109 22.0030533,334.095792 47.8651107,334.154703 L76.1488047,334.154703 C80.5864902,334.154703 84.183945,330.557248 84.183945,326.119563 C84.183945,321.681877 80.5864902,318.084423 76.1488047,318.084423 L47.8651107,318.084423 C30.8662117,318.054936 17.0932258,304.28195 17.0637393,287.283051 L17.0637393,46.871652 C17.0932258,29.872753 30.8662117,16.0997671 47.8651107,16.0702807 L212.156947,16.0702807 C229.155846,16.0997671 242.928832,29.872753 242.958318,46.871652 L242.958318,287.283051 C242.928832,304.28195 229.155846,318.054936 212.156947,318.084423 L183.873253,318.084423 C179.435567,318.084423 175.838113,321.681877 175.838113,326.119563 C175.838113,330.557248 179.435567,334.154703 183.873253,334.154703 L212.156947,334.154703 C227.73406,334.143913 242.288079,326.395153 250.993459,313.477609 C259.692299,326.402406 274.25049,334.153388 289.82997,334.154703 L318.113664,334.154703 C322.55135,334.154703 326.148805,330.557248 326.148805,326.119563 C326.148805,321.681877 322.55135,318.084423 318.113664,318.084423 L289.82997,318.084423 C272.831071,318.054936 259.058085,304.28195 259.028599,287.283051 L259.028599,46.871652 C259.058085,29.872753 272.831071,16.0997671 289.82997,16.0702807 L454.121807,16.0702807 C471.120706,16.0997671 484.893691,29.872753 484.923178,46.871652 L484.923178,287.283051 C484.893691,304.28195 471.120706,318.054936 454.121807,318.084423 L425.838113,318.084423 C421.400427,318.084423 417.802972,321.681877 417.802972,326.119563 C417.802972,330.557248 421.400427,334.154703 425.838113,334.154703 L454.121807,334.154703 C479.983864,334.095792 500.934547,313.145109 500.993459,287.283051 L500.993459,46.871652 C500.934547,21.0095947 479.983864,0.0589115215 454.121807,0 Z" id="Shape"></path>
        </g>
    </g>
</svg>
