<svg xmlns="http://www.w3.org/2000/svg" viewBox="0 0 500 500"><path d="M201.8 228.1zM394.6 216.7c.2.4.2.5.4.9.5-.5.5-.5 1.3-.9 0 7.1-.5 14.3-.5 21.4 20.3-11.5 53.7-30.8 60.9-35.4 5.9-3.8 14.8-8.8 17.2-14.8-6.2-1.8-15.8 2.4-22.2 4.8-7.2 2.6-35.8 14.8-57.1 24zM395.9 242.9c.2 1.8.4 3.7.7 5.7.5 0 1.8 0 2.4.2-.7 3.7-2.7 7.7-1.1 11.5.5-.5.5-.5 1.3-.9 0 1.5-.5 2.9-.7 4.6 20.7-7.9 62.5-23.6 70.9-27.3 6.4-2.7 16.1-6.2 19.4-11.9-5.9-2.7-15.9-.2-22.7 1.3-8.8 1.4-47.8 11.1-70.2 16.8zM500 302.5c-4.8-4.4-15-5.1-22-5.9-9.5-1.1-57.6-4.4-78.4-5.9.5 7 1.3 13.9 1.8 20.9 22-.9 67.3-2.9 76.4-3.8 7-.5 17.4-.9 22.2-5.3zM474.7 260.7c-9.3.4-55 4.4-76.8 6.4v.4c.5 1.1 1.1 2.7 1.1 3.7.4 4.2.2 9 0 13.2 0 1.3.2 2.4.4 3.7 20.5-4.2 67.6-13.9 77-16.3 6.8-1.8 16.9-3.7 21.1-8.8-5.6-3.6-15.8-2.5-22.8-2.3zM435.5 432.1c-4.2-4-19.8-17.2-34.8-30.1-2.6 6-6.2 10.6-11.7 10.4 0 .5 0 1.6-.2 3.1 21.1 13.6 36.8 23.6 40 25.5 6 3.7 14.5 9.3 20.9 8.8-1.2-6.4-9.1-13-14.2-17.7zM467.6 367.7c-7.1-3.3-39-16.3-60.9-25.1-.4 4.9 0 9.9.2 14.7.5 0 1.3-.5 1.8-.4-.5 2-.9 4.2-1.1 6.2 22 6 49.3 13.6 56.3 15.2 6.8 1.5 16.7 4.4 22.7 1.8-3.1-5.6-12.6-9.4-19-12.4zM475.6 332.5c-8.8-2.6-52.2-12.6-73.9-17.6v1.1c.5 1.6.4 3.7 1.6 4.8.5.5 1.8 0 2.9-.4-2.6 4.9-1.6 10.6-.2 15.9h.5c.5-.4.9-.9 1.5-1.6-.2.5-.4 1.3-.4 1.8 23.3 2.7 58.1 6.6 66.2 7.1 7 .4 17.2 1.8 22.7-1.8-4-5-14.1-7.2-20.9-9.3zM454 401.3c-5.7-3.8-28-17.6-47.1-29-.2 3.1-.4 6.2-1.1 9.2-.4 2.4-1.1 5.9-1.8 9.7 18.7 8.6 39 17.8 44.7 20 6.4 2.6 15.8 7 22.2 5.3-2.1-6.1-11-11.4-16.9-15.2z"/><g><path d="M145 380.6c16.7-18 27.3-34.3 23.1-58.5-4.6-26.2-33-37.8-49.1-30.1-32.3 15.4-16.3 61.6 12.6 49.5 11.5-4.9 10.4-17.4 10.4-17.8 0-2.4 1.5-2.6 2.4-1.5.7.7 1.5 3.1 1.3 6-.4 5.7-2.7 15.4-15.8 19.8-11.7 3.8-22-.5-28.4-8.8-20.9 8.4-61 24.7-69.1 28.6-6.4 2.9-15.9 6.8-19.1 12.5 6 2.6 15.9-.4 22.7-1.8 12.1-2.7 85.4-23.3 85.4-23.3S56.3 394.5 46 401.5c-5.9 3.8-14.7 9.2-16.9 15.2 6.2 1.6 15.6-2.7 22.2-5.3 11.4-4.6 80.6-36.5 80.6-36.5S73.7 424 64.7 432.4c-5.1 4.8-13 11.4-14.3 17.8 6 .5 13.6-4.4 19.4-7.9 29-19.9 58.9-44 75.2-61.7z"/><path d="M0 302.5c4.8 4.4 15.2 4.6 22.2 5.3 8.8.9 49.9 2.7 72.8 3.7 1.5-7.9 5.9-15.6 14.1-21.4-9.9.7-75.7 5.1-87.1 6.4-7 1-17.2 1.6-22 6zM206.7 277.7l13 17.2-7.7 6.8-10.2-13.7 4 17.6-29.7 19.4c1.1 7.1.7 14.3-.9 20.3-6 21.6-19.4 36.5-41.4 55.5 30.4-19.6 65.2-42 88.7-57.2 11.5-7.5 18.7-20.3 18.7-34.1v-30.8c-7.1 5.7-14.1 11.2-14.1 11.2l-20.4-12.2z"/><path d="M432.2 162.3c-10.8 6-75 46.9-75 46.9s51.1-56.5 59-66c4.4-5.3 11.4-13 11.7-19.4-6.6.2-14.1 7.1-19.6 11.5-9.7 7.7-66.7 58.3-66.7 58.3s41.6-63.8 47.8-74.4c3.5-6 9.3-14.7 8.6-21.1-6.4 1.3-12.8 9.3-17.6 14.5-8.2 9.2-56.6 68-56.6 68s31.2-69.6 35.6-81c2.6-6.6 6.8-15.9 5.1-22.2-6 2.2-11.2 11.2-15 17-6.8 10.3-45.3 76.1-45.3 76.1s19.8-73.7 22.4-85.6c1.5-6.8 4.2-16.9 1.5-22.7-5.7 3.1-9.3 12.8-12.1 19.2-5.1 11.2-32.6 82.3-32.6 82.3s7.9-75.9 8.4-88.2c.4-7 1.5-17.2-2-22.7-5.1 4-7.1 14.1-9 20.9-3.3 11.9-19.2 86.3-19.2 86.3s-4.3-76-5.6-88.3c-.7-7-1.1-17.2-5.5-22-4.4 4.8-4.8 15-5.5 22-1.3 12.3-5.5 88.3-5.5 88.3s-16.1-74.4-19.2-86.3c-1.8-6.8-3.8-16.9-9-20.9-3.7 5.5-2.4 15.8-2 22.7.5 12.3 8.4 88.2 8.4 88.2S190 92.8 185.1 81.4c-2.9-6.4-6.4-15.9-12.1-19.2-2.7 5.9 0 15.9 1.5 22.7 2.6 12.1 22.4 85.6 22.4 85.6s-38.5-65.8-45.3-76.1c-3.8-5.9-9-14.8-15-17-1.6 6.2 2.6 15.6 5.1 22.2 4.4 11.5 35.6 81 35.6 81s-48.4-58.8-56.6-68c-4.8-5.1-11.2-13.2-17.6-14.5-.7 6.4 4.9 15 8.6 21.1 6.2 10.6 47.8 74.4 47.8 74.4s-57-50.6-66.7-58.3c-5.5-4.4-13.2-11.4-19.6-11.5.4 6.4 7.3 14.1 11.7 19.4 7.9 9.5 59 66 59 66s-64.3-40.9-75-46.9c-6-3.5-14.7-9.2-21.3-8.2 1.3 6.4 9.5 12.8 14.7 17.4 9.2 8.2 68.7 55.9 68.7 55.9s-70-30.2-81.6-34.5c-6.6-2.4-15.9-6.6-22.2-4.8 2.4 6 11.4 11.2 17.2 14.8 10.4 6.6 76.6 44.4 76.6 44.4S47.1 228.4 35 226c-6.8-1.3-16.9-4-22.7-1.3 3.3 5.7 13 9.2 19.4 11.9 11.4 4.9 82.7 31.7 82.7 31.7s-75.9-7-88.2-7.5c-7-.4-17.2-1.3-22.5 2.4 4 5.1 14.3 7 21.1 8.8 11.2 2.9 77.2 16.3 85.8 18.1 1.1-.7 2-1.5 3.3-2 7.9-4.6 19.4-6.2 29.9-3.3 15.8 4.6 25.8 15.9 30.8 28.6.4-4.4 1.5-7.3 1.5-7.3 7.9-23.8 27.7-36.1 47.7-43.4-2.2-.5-3.7-.9-3.7-.9l.2-8.2-6 6.8-23.1-3.3 4.4-12.6-12.1 11.9-31-4.8c5.7-9 14.1-12.8 14.1-12.8 21.6-7.3 51.9 1.3 71.7 10.1l-12.6-13.4 6.6-9.7-11 4.4-10.3-15 5.3-5.7-9 .4-13.2-19.2c20.7-1.6 54.8 27.5 57.7 42.9 2.9-15.4 37.2-44.7 57.7-42.9l-13.2 19.2-9-.4 5.3 5.7-10.3 15-11-4.4 6.6 9.7-12.6 13.4c19.6-8.6 49.9-17.4 71.7-10.1 0 0 8.4 3.8 14.1 12.8l-31 4.8-12.1-11.9 4.4 12.6-23.1 3.3-6-6.8.2 8.2s-1.5.4-3.7.9c20.2 7.5 39.8 19.8 47.7 43.4 0 0 3.8 9.7 0 20.5L294 305.8l4-17.6-10.3 13.7-7.7-6.8 13-17.2-20.5 12.5s-9.5-7.5-17.6-14.1v163.1h26.2l-6-96.8c15 9.7 35.2 22.7 55.9 36.1-.2-.5-.2-1.1-.4-1.5-1.1-5.1-.5-10.4-2.2-15.4.4 0 .9.4 1.3.4.2-4.6.7-9.5-.7-14.1l1.3 1.3c1.1-3.3 1.8-7-.2-10.1.9.4 1.8.5 2.2.2.9-.7.7-2 1.1-2.9.5-6.6 1.5-13.2 2-19.8-.2-2.6-.4-5.5 0-8.2 0-.7.4-1.6.7-2.4.4-2-.5-3.7-.7-5.1.4.4.4.4.9.5 1.1-2.4-.2-4.9-.7-7.1h1.6c1.3-7 .2-13.4.2-20 .4.4.4.4.9.5 1.6-2.4.2-5.3.4-7.9l.4.4c1.6-2 .2-4.2.9-6.6.9 1.6 2.7 2.6 4 3.8.5.5 0 1.6.5 2.2 0-.4.4-.7.4-.9.9 2.2 1.1 4.6 2.9 6.8 1.5 2.2 1.1 4.6 2 6.8 0 .4 0 .9.9.9.2 3.7 1.3 7.1 1.1 10.8.9 0 .9-.7.7-1.1 2 3.8.4 8.2 1.1 12.5.4-.7.7-1.1.7-1.6.7 4.2 0 8.8.2 13.2.4-.7.7-1.1.7-1.6.7 5.9-2 11.5 0 17.4 0-.9.4-1.6 1.1-2.4-.5 4.2-2.9 9-.5 13.6 0 .4 1.3 0 2.2-.4-.2 4-3.5 8.1-2 12.3.9 0 1.3-.4 2.2-.7-1.6 3.3-1.8 6.6-1.3 10.3.9-.4 1.3-.7 1.6-1.5 1.1 5.5 1.1 11.4 1.3 17 .5 1.6.2 3.7-.5 5.3-1.3 2-3.1 6.2-5.5 7.7-.7.4-1.1 1.5-1.5 2.6 7.1 4.6 14.1 9.2 20.9 13.4-.4-1.6-.9-3.1-1.8-3.5-3.5-2.2-6-9.2-7.5-12.3-1.1-2.7-1.5-5.9-.7-8.4.4-9 .2-18.3 1.8-27.3.5 1.1 1.1 1.6 2.2 2.2.9-5.7.5-11-1.6-16.3 1.1.5 1.6 1.1 2.9 1.1 2-6.8-2.4-13.2-2.7-19.6 1.1.5 2.9 1.1 2.9.7 3.3-7.1 0-14.7-.7-21.6 1.1 1.1 1.6 2.2 1.6 3.7 2.7-9.3-.9-18.5 0-27.9 0 1.1.5 1.6 1.1 2.7.4-6.8-.5-14.3.4-21.1 0 1.1.5 1.6 1.1 2.7.9-6.8-1.1-13.7 1.5-20 0 .5 0 1.6 1.1 1.6-.4-5.9 1.1-11.5 1.5-17.2 1.1 0 1.3-.9 1.3-1.5.2-.4.4-.9.4-1.3-5.5 2.4-9 3.8-9 3.8s3.8-3.1 9.9-7.9c.4-1.8.7-3.7 1.6-5.5 2.6-3.5 2.7-7.1 4-10.8 0 .5.5 1.1.5 1.6.5-1.1.2-2.6.7-3.7 1.8-2 4.4-3.5 5.7-6 1.1 3.7-.9 7.3 1.3 10.6l.5-.5v2.7c17.6-14.1 39-31.5 44.4-36.3 5.1-4.6 13.4-11 14.7-17.4-5.5-1.5-14.1 4.2-20.1 7.7z"/><path d="M26.2 343.7c8.8-.5 50.2-5.3 72.9-7.9-3.5-5.7-5.3-12.8-4.9-19.8-22.5 5.1-61.6 14.3-70 16.7-6.8 1.8-16.9 4-20.7 9.3 5.7 3.4 15.7 2.1 22.7 1.7z"/></g></svg>