<svg viewBox="0 0 26 40" version="1.1" xmlns="http://www.w3.org/2000/svg" xmlns:xlink="http://www.w3.org/1999/xlink">
    <defs></defs>
    <g id="Page-1" stroke-width="1" fill-rule="evenodd">
        <g id="mobile-(2)" transform="translate(0.255798, 0.882825)">
            <rect class="cls-1" id="Rectangle" fill="#13A5C2" x="2.13525637" y="1.96266574" width="21.195257" height="34.4033065"></rect>
            <path class="cls-2" d="M20.68,0 L4.74,0 C2.22385928,0.0329392131 0.207759402,2.09374197 0.23,4.61 L0.23,33.61 C0.207759402,36.126258 2.22385928,38.1870608 4.74,38.22 L20.68,38.22 C23.1961407,38.1870608 25.2122406,36.126258 25.19,33.61 L25.19,4.61 C25.2122406,2.09374197 23.1961407,0.0329392131 20.68,0 Z M23.27,33.65 C23.2780022,34.3448806 23.0096128,35.0144749 22.5238839,35.5114563 C22.0381549,36.0084377 21.3748817,36.2920889 20.68,36.3 L4.74,36.3 C4.04511831,36.2920889 3.38184513,36.0084377 2.89611615,35.5114563 C2.41038716,35.0144749 2.14199779,34.3448806 2.15,33.65 L2.15,4.65 C2.14199779,3.95511935 2.41038716,3.2855251 2.89611615,2.78854371 C3.38184513,2.29156231 4.04511831,2.0079111 4.74,2 L6.49,2 C6.48444418,2.07990354 6.48444418,2.16009646 6.49,2.24 L6.49,2.75 C6.50583962,3.65628082 7.23383143,4.3886847 8.14,4.41 L17.28,4.41 C17.7316845,4.41268069 18.1656454,4.23443502 18.4850402,3.91504022 C18.804435,3.59564543 18.9826807,3.1616845 18.98,2.71 L18.98,2.2 C18.9855558,2.12009646 18.9855558,2.03990354 18.98,1.96 L20.68,1.96 C21.3748817,1.9679111 22.0381549,2.25156231 22.5238839,2.74854371 C23.0096128,3.2455251 23.2780022,3.91511935 23.27,4.61 L23.27,33.65 Z" id="Shape" fill-rule="nonzero"></path>
            <path class="cls-3" d="M16.57,12.53 C16.48,12.2 15.74,12.68 14.15,14.12 C14.78,14.82 15.1,14.42 15.61,14.23 C16.02,15.01 16.18,18.54 13.52,19.6 C13.59,16.05 13.62,12.24 13.62,12.24 C13.62,12.24 13.53,12.11 13.46,12.12 C12.73,12.22 11.46,13.52 10.46,14.62 C11.01,15.54 11.71,14.71 12.26,14.49 C12.26,14.64 12.13,17.26 12.19,19.92 C9.45,20.13 9.89,14.49 10.05,13.77 C10.21,13.05 8.29,14.47 7.38,15.32 C7.66,15.84 8.06,15.74 8.57,15.55 C8.39,18.08 10.15,20.38 12.2,20.33 C12.28,22.94 12.55,25.47 13.29,25.65 C13.4660447,23.7720267 13.5428183,21.8860686 13.52,20 C18.45,18.48 16.57,12.53 16.57,12.53 Z" id="Shape" fill="#FFFFFF"></path>
        </g>
    </g>
</svg>
