<svg version="1.0" xmlns="http://www.w3.org/2000/svg"
 viewBox="0 0 256.000000 256.000000"
 preserveAspectRatio="xMidYMid meet">
<g transform="translate(0.000000,256.000000) scale(0.100000,-0.100000)"
stroke="none">
<path d="M575 2550 c-72 -5 -146 -16 -186 -29 -131 -41 -258 -151 -319 -274
-62 -127 -62 -132 -67 -897 -6 -850 -1 -912 78 -1060 40 -76 147 -178 227
-219 134 -67 113 -66 972 -66 703 0 781 2 843 17 215 56 379 228 418 440 11
57 14 234 14 823 0 832 0 829 -67 965 -42 87 -151 196 -238 238 -129 64 -135
64 -880 67 -371 2 -729 -1 -795 -5z m1079 -570 c246 -63 427 -231 512 -475 26
-72 28 -93 29 -220 0 -157 -14 -217 -83 -350 -43 -84 -178 -223 -264 -273
-237 -140 -539 -131 -765 21 -59 39 -63 44 -63 79 0 21 2 38 5 38 3 0 29 -19
58 -41 61 -49 158 -95 242 -115 78 -18 233 -18 314 1 88 21 213 88 281 152 56
51 58 54 50 89 -5 20 -13 41 -19 47 -6 6 -11 23 -11 37 0 14 -5 31 -11 37 -8
8 -8 20 1 45 11 30 10 39 -9 76 -11 22 -21 53 -21 67 0 16 -6 25 -15 25 -8 0
-24 6 -35 12 -15 10 -22 10 -32 0 -6 -6 -29 -12 -49 -12 -30 0 -43 7 -73 40
-36 40 -47 82 -25 96 8 4 8 9 0 17 -18 18 -12 31 24 55 20 13 35 30 35 42 0
25 10 30 94 46 89 17 86 18 86 -6 0 -24 69 -47 82 -28 5 10 15 10 41 0 35 -13
77 -16 77 -6 0 18 -24 44 -41 44 -11 0 -23 10 -28 23 l-9 22 -9 -23 c-8 -22
-10 -22 -23 -7 -8 10 -19 27 -25 38 -6 12 -19 23 -30 25 -19 3 -18 1 3 -17 26
-22 29 -49 7 -58 -20 -7 -34 5 -17 16 8 5 3 14 -17 29 -18 13 -32 18 -36 12
-4 -6 -10 -8 -15 -5 -5 3 -19 -8 -31 -25 -28 -38 -83 -43 -92 -9 -9 34 3 49
38 49 29 0 32 3 27 23 -8 31 -28 48 -46 41 -23 -9 -20 14 7 42 25 27 47 31 47
10 0 -23 31 -49 43 -37 6 6 21 11 34 11 13 0 23 5 23 11 0 6 -5 9 -12 7 -6 -2
-20 4 -31 15 -14 14 -16 21 -6 33 6 8 18 14 25 14 25 0 14 20 -28 51 -131 95
-320 143 -471 121 -56 -9 -59 -8 -68 15 -18 48 -14 49 147 52 72 1 123 -5 178
-19z m-678 -385 c-4 -206 -4 -375 1 -375 23 0 112 82 141 130 43 73 62 138 69
235 6 103 -6 161 -33 157 -79 -14 -90 -13 -109 8 l-20 22 70 65 c82 75 152
120 166 106 22 -22 41 -178 36 -298 -5 -127 -23 -198 -72 -280 -35 -61 -135
-149 -198 -175 l-54 -22 -7 -136 c-3 -74 -6 -172 -6 -216 0 -128 -11 -216 -26
-216 -17 0 -47 60 -62 120 -11 48 -27 189 -38 333 l-6 87 -31 0 c-50 0 -133
45 -187 100 -80 82 -129 204 -130 321 l0 57 -43 -5 c-34 -4 -46 -1 -61 16 -11
12 -17 23 -15 24 2 2 34 29 70 59 71 60 142 104 173 110 19 3 20 -3 17 -162
-3 -169 10 -273 44 -354 24 -56 72 -104 117 -117 22 -5 41 -9 43 -7 2 2 5 125
6 275 l4 272 -25 -16 c-38 -26 -74 -43 -87 -43 -7 0 -25 11 -40 24 l-28 25 90
92 c112 113 171 158 209 159 l29 0 -7 -375z m489 238 c19 -9 35 -22 35 -29 0
-7 6 -14 13 -17 25 -8 -62 -39 -90 -32 -28 7 -28 7 -5 18 12 5 22 14 22 19 0
11 -48 10 -55 -2 -12 -20 -26 -9 -23 17 2 19 10 29 28 34 37 10 36 10 75 -8z
m-39 -98 c4 -10 13 -13 25 -10 14 5 19 1 19 -13 0 -11 7 -22 15 -26 18 -7 20
-32 3 -40 -10 -5 -10 -7 0 -12 6 -3 12 -12 12 -20 0 -10 -6 -11 -22 -5 -14 5
-22 15 -20 26 3 13 0 14 -16 6 -13 -7 -22 -7 -30 1 -7 7 -15 8 -19 4 -4 -4 -1
-11 7 -16 8 -6 13 -10 10 -11 -3 0 -14 -2 -25 -4 -19 -4 -20 1 -18 63 1 37 2
68 3 70 1 10 52 -1 56 -13z m4 -140 c-7 -8 -17 -12 -22 -9 -6 4 -5 10 3 15 22
14 33 10 19 -6z m-40 -5 c0 -5 -4 -10 -10 -10 -5 0 -10 5 -10 10 0 6 5 10 10
10 6 0 10 -4 10 -10z m-94 -301 c3 -6 19 -9 35 -5 22 4 32 0 47 -18 10 -13 29
-26 43 -28 17 -2 25 -10 28 -28 4 -30 13 -36 65 -45 23 -3 52 -15 65 -26 24
-19 24 -21 8 -48 -9 -15 -19 -47 -23 -70 -7 -44 -15 -53 -48 -55 -16 -1 -22
-9 -26 -36 -6 -42 -54 -108 -85 -116 -16 -4 -22 -13 -22 -35 0 -16 4 -29 9
-29 4 0 8 -11 8 -24 0 -14 5 -28 10 -31 18 -11 10 -25 -14 -25 -15 0 -36 13
-55 35 -43 50 -42 90 4 135 56 55 50 85 -36 181 -43 48 -84 83 -105 91 -29 10
-34 17 -34 45 0 22 6 36 20 43 11 6 20 17 20 25 0 19 49 75 65 75 8 0 17 -5
21 -11z m-37 -312 l65 -68 -69 -69 c-38 -39 -72 -69 -75 -68 -3 2 -34 33 -69
70 l-63 67 63 71 c34 39 67 69 73 68 6 -2 40 -34 75 -71z"/>
<path d="M1952 1699 c-11 -16 -9 -19 7 -19 25 0 34 15 18 28 -9 8 -16 6 -25
-9z"/>
</g>
</svg>
