<svg viewBox="0 0 501 501" version="1.1" xmlns="http://www.w3.org/2000/svg" xmlns:xlink="http://www.w3.org/1999/xlink">
    <defs></defs>
    <g id="Page-1" stroke-width="1" fill-rule="evenodd">
        <g id="moon">
            <rect id="Rectangle" fill-opacity="0" x="0" y="1" width="500" height="500"></rect>
            <path d="M325.953048,26.9815201 C202.737856,26.9815201 102.852209,127.046435 102.852209,250.482763 C102.852209,373.919092 202.737856,473.984007 325.953048,473.984007 C335.594837,473.984007 345.153002,473.372022 354.588081,472.161734 C291.309266,418.305139 253.572328,339.017138 253.572328,253.356519 C253.572328,164.967751 293.764092,83.4408318 360.506134,29.6438001 C349.159117,27.8773072 337.617885,26.9815201 325.953048,26.9815201 Z M399.253764,34.2564821 C325.496485,81.95869 280.023612,163.757795 280.023612,253.356519 C280.023612,340.482425 323.003873,420.309586 393.451418,468.592807 L417.375078,484.989565 L389.33366,492.345195 C368.806034,497.72986 347.554914,500.482763 325.953048,500.482763 C188.129216,500.482763 76.4009245,388.553951 76.4009245,250.482763 C76.4009245,112.411576 188.129216,0.48276345 325.953048,0.48276345 C349.830244,0.48276345 373.273189,3.84627993 395.774398,10.4031376 L423.599075,18.5112551 L399.253764,34.2564821 Z" id="Combined-Shape" fill-rule="nonzero"></path>
        </g>
    </g>
</svg>
