<svg viewBox="0 0 488 488" version="1.1" xmlns="http://www.w3.org/2000/svg" xmlns:xlink="http://www.w3.org/1999/xlink">
    <title>mosquitos</title>
    <defs></defs>
    <g id="Page-1" stroke-width="1" fill-rule="evenodd">
        <g id="mosquitos" transform="translate(-6.000000, -6.083333)" fill-rule="nonzero">
            <path d="M250,184.895833 C234.984758,184.895833 222.8125,172.723575 222.8125,157.708333 C222.8125,142.693092 234.984758,130.520833 250,130.520833 C265.015242,130.520833 277.1875,142.693092 277.1875,157.708333 C277.1875,172.723575 265.015242,184.895833 250,184.895833 Z M250,169.270833 C256.385792,169.270833 261.5625,164.094126 261.5625,157.708333 C261.5625,151.322541 256.385792,146.145833 250,146.145833 C243.614208,146.145833 238.4375,151.322541 238.4375,157.708333 C238.4375,164.094126 243.614208,169.270833 250,169.270833 Z" id="Oval"></path>
            <path d="M249.101759,232.760691 C243.748252,232.141063 238.883227,235.919221 238.229167,240.208333 C238.229167,247.020996 241.116089,292.202738 244.005406,324.512473 C245.916172,345.879577 247.929371,363.860402 249.982895,377.104092 C252.01813,363.862416 254.006902,345.886915 255.889532,324.522552 C258.662652,293.05278 261.422233,249.325801 261.557328,240.790184 C260.615653,235.754214 255.904755,232.235138 249.101759,232.760691 Z M277.115108,239.147255 L277.1875,240.208333 C277.1875,247.678999 274.335749,293.194067 271.454218,325.894114 C265.686853,391.343023 262.470694,411.770833 250,411.770833 C237.539293,411.770833 234.292382,391.320275 228.44251,325.904194 C225.513986,293.15603 222.604167,247.615938 222.675202,239.157202 C224.545185,225.384992 237.091829,215.641322 249.192314,217.229363 C262.888777,215.805742 275.24486,225.504603 277.115108,239.147255 Z" id="Shape"></path>
            <path d="M337.704778,346.8333 L337.21724,346.390585 C310.875426,320.362365 241.187003,213.466682 242.194874,190.285647 C242.549446,182.130479 248.995572,178.366572 256.901764,179.010571 C261.708718,179.402122 267.800338,181.310769 275.387557,184.589565 C288.24765,190.147018 305.611207,199.789132 325.715976,212.299084 C360.780739,234.117714 401.087497,262.927895 411.2083,273.329778 C428.499685,294.064582 427.121549,324.564772 408.030661,343.655661 C388.939772,362.746549 358.439582,364.124685 337.704778,346.8333 Z M396.982117,332.607117 C410.357171,319.232063 411.322691,297.863667 399.61791,283.790651 C391.056868,275.020804 351.491031,246.740213 317.461107,225.565499 C297.958967,213.430525 281.190506,204.118873 269.189266,198.932571 C264.787741,197.030464 261.132206,195.736494 258.414344,195.073612 C265.179551,220.556685 325.870096,312.977721 347.961324,335.039546 C362.482361,346.936264 383.683412,345.905822 396.982117,332.607117 Z M257.766396,191.366586 C257.785927,191.236236 257.799135,191.102145 257.805126,190.964353 C257.803129,191.010284 257.801619,191.056831 257.800594,191.103991 L257.766396,191.366586 Z" id="Shape"></path>
            <path d="M241.912702,195.022847 C239.180653,195.642437 235.442706,196.935932 230.910518,198.881473 C218.926082,204.026054 202.188698,213.323518 182.649869,225.509174 C149.026257,246.478996 109.204119,274.969424 100.791633,283.336888 C88.6773089,297.863667 89.642829,319.232063 103.017883,332.607117 C116.311462,345.900696 137.501297,346.935468 152.021882,335.053296 C174.997631,311.848292 235.774077,220.065896 241.912702,195.022847 Z M162.815938,346.357605 L162.295222,346.8333 C141.560418,364.124685 111.060228,362.746549 91.9693394,343.655661 C72.8784505,324.564772 71.5003151,294.064582 89.2673949,272.809062 C99.2400081,262.836448 139.797142,233.820173 174.381381,212.251243 C194.536724,199.68109 211.881008,190.046498 224.747034,184.523475 C232.362812,181.254236 238.484915,179.372227 243.334468,179.032378 C251.232673,178.478885 257.598969,182.338168 258.010753,190.4366 C259.208208,213.986538 190.050848,319.122695 162.815938,346.357605 Z" id="Shape"></path>
            <path d="M257.8125,138.125 C257.8125,142.439725 254.314725,145.9375 250,145.9375 C245.685275,145.9375 242.1875,142.439725 242.1875,138.125 L242.1875,109.791667 C242.1875,105.476942 245.685275,101.979167 250,101.979167 C254.314725,101.979167 257.8125,105.476942 257.8125,109.791667 L257.8125,138.125 Z" id="Shape"></path>
            <path d="M194.711752,471.15299 C253.35542,485.813907 315.422393,476.544233 367.22929,445.384897 C475.095874,380.638395 510.059397,240.712552 445.32591,132.838157 C380.592422,24.9637618 240.670799,-10.016644 132.788594,54.7038281 C24.9067215,119.424101 -10.0906824,259.34084 54.6159598,367.230718 C85.6659532,419.105441 136.06846,456.492167 194.711752,471.15299 Z M124.750406,41.3050162 C240.031939,-27.8544457 389.550381,9.52516481 458.723752,124.798353 C527.897122,240.07154 490.535551,389.594491 375.276641,458.778206 C319.919545,492.072818 253.591682,501.978854 190.922133,486.311467 C128.253703,470.644359 74.3915866,430.691774 41.2149964,375.265319 C-27.928135,259.975844 9.46986223,110.463885 124.750406,41.3050162 Z" id="Shape"></path>
            <path d="M348.440938,163.232605 C345.389967,166.283576 340.443366,166.283576 337.392395,163.232605 C334.341424,160.181634 334.341424,155.235033 337.392395,152.184062 L410.309062,79.2673949 C413.360033,76.2164239 418.306634,76.2164239 421.357605,79.2673949 C424.408576,82.318366 424.408576,87.2649674 421.357605,90.3159384 L348.440938,163.232605 Z" id="Shape"></path>
            <path d="M89.6909384,421.982605 C86.6399674,425.033576 81.693366,425.033576 78.6423949,421.982605 C75.5914239,418.931634 75.5914239,413.985033 78.6423949,410.934062 L100.725728,388.850728 C103.776699,385.799757 108.723301,385.799757 111.774272,388.850728 C114.825243,391.901699 114.825243,396.848301 111.774272,399.899272 L89.6909384,421.982605 Z" id="Shape"></path>
        </g>
    </g>
</svg>
