<?xml version="1.0" encoding="utf-8"?>
<!-- Generator: Adobe Illustrator 23.0.3, SVG Export Plug-In . SVG Version: 6.00 Build 0)  -->
<svg version="1.1" id="Calque_1" xmlns="http://www.w3.org/2000/svg" xmlns:xlink="http://www.w3.org/1999/xlink" x="0px" y="0px"
	 viewBox="0 0 128 128" style="enable-background:new 0 0 128 128;" xml:space="preserve">
<style type="text/css">
	.st0{fill:#005589;}
</style>
<title>WIP/Icons/Equipments/Chalet/Mountain diner</title>
<desc>Created with Sketch.</desc>
<g>
	<path id="Icon" class="st0" d="M119.3,86.8v0.1c2.7-0.2,5.2,1.1,6.6,3.3c1.4,2.3,1.4,5.1,0,7.4c-1.4,2.3-4,3.6-6.6,3.3H91
		c-1.2,4.4-3.4,8.6-6.4,12c-7.6,8.7-20.3,13.1-37.9,13.1S16.5,121.7,8.8,113c-6.5-8.3-9.1-18.9-7.2-29.3c0.9-6.5,8.3-10.5,22.8-12.4
		l-12-21c-0.5-1-0.2-2.2,0.7-2.7c1-0.5,2.2-0.2,2.7,0.8l13,22.5c4.5-0.7,9.8-0.7,15.8-0.7V43.4c0-0.5,0.2-1,0.5-1.4
		c0.4-0.4,0.9-0.6,1.4-0.6c1.1,0,2,0.9,2,2v26.8c28.2,0.2,42,4.5,43.3,13.5c0.3,1,0.3,2.1,0.3,3.1H119.3z M27,75.6
		c-9.3,1.5-13.8,3.4-13.8,4.8c0,1.5,6.7,4.4,19.8,5.7L27,75.6z M37.5,86.5c2.2,0.2,4.6,0.2,7.2,0.3V74.2c-5.2,0.1-9.7,0.4-13.6,0.8
		L37.5,86.5z M48.6,74.2v12.6c21-0.3,31.9-4.5,31.9-6.3C80.4,78.6,69.6,74.2,48.6,74.2z M81.6,110.4c6-7.4,8.4-17.1,6.7-26.4
		c-0.5-2.1-1.9-3.8-3.8-4.7c0.1,0.3,0.1,0.6,0,0.9c0,8.4-24.7,10.5-37.7,10.5S9.1,88.3,9.1,80.2c0-0.3,0-0.6,0-0.8
		C7.3,80.3,6,82,5.6,84c-1.8,9.3,0.5,18.8,6.3,26.3c6.8,7.8,18.5,11.7,34.9,11.7S74.9,118.2,81.6,110.4z M119.3,96.9
		c1.2,0.2,2.4-0.4,3-1.4c0.6-1,0.6-2.3,0-3.3c-0.6-1-1.8-1.6-3-1.4h-27c0,2.1-0.2,4.1-0.5,6.2H119.3z M75.5,34
		c-0.5-0.2-0.9-0.6-1-1.1c-0.2-0.5-0.1-1.1,0.1-1.5c3.4-5.6,6.8-8.6,10.5-8.9c4.9-0.3,9,3.9,11.3,6.5c4.6,5.1,8,13.1,5.3,17.8
		c-0.3,0.6-1,1-1.7,0.9c-0.4,0-0.7-0.1-1-0.3c-0.5-0.3-0.8-0.7-0.9-1.2c-0.1-0.5-0.1-1,0.2-1.5c1.5-2.7-0.7-8.7-4.7-13.2
		c-2.5-2.7-6-5.5-8-5.3c-2.1,0.3-4.8,2.7-7.3,7c-0.3,0.5-0.7,0.8-1.2,0.9C76.5,34.3,75.9,34.2,75.5,34z M44.5,24.5
		c-5-0.3-9.5-2.9-12.3-7.1c-1.8-3.3-1.6-7.3,0.5-10.4c1.6-3.5,5-5.8,8.9-5.9c5,0.4,9.4,3.1,12.1,7.3c4.3,4.4,9.4,7.9,15,10.5
		l2.4,1.4c3.1-4.9,8-8.2,13.7-9.4c8.5-0.9,15.2,6.5,19.7,11.8c8.2,9.2,14,23.4,9.5,31.1c-3.3,5.8-12.5,8.4-21.9,8.4
		c-3.3,0-6.6-0.3-9.8-0.9c-6.6-1.4-16.6-3.4-20.1-11.1c-1.9-5.5-1.4-11.4,1.2-16.6l-2.4-1.4C56.1,28.7,50.4,26,44.5,24.5z
		 M85.2,14.8c-4.9,0.5-9.9,5.2-14.9,13.9c-5,8.7-6.5,15.4-4.5,19.8c2.4,5.5,9.9,7.4,17.2,8.9c11.7,2.4,24.4,0,27.5-5.5
		s-1.1-17.6-9-26.6C96.6,19.7,91.3,14.2,85.2,14.8z M69,23.5l-2-1.2c-2.9-1.6-5.9-3.3-8.5-5l-3.9,6.6c2.8,1.4,5.7,3.2,8.6,4.8
		l2.1,1.2c0.5-1.1,1.1-2.2,1.8-3.3C67.7,25.6,68.3,24.6,69,23.5z M41.4,5.2c-2.3,0.2-4.3,1.6-5.3,3.7c-1.3,1.9-1.5,4.2-0.6,6.3
		c2.1,3.1,5.4,5,9.1,5.3c2.2,0.2,4.3,0.7,6.3,1.6L55,15c-1.8-1.2-3.3-2.8-4.6-4.5C48.4,7.4,45.1,5.5,41.4,5.2z"/>
</g>
</svg>
