<svg id="Calque_1" data-name="Calque 1" xmlns="http://www.w3.org/2000/svg" viewBox="0 0 100 100"><defs></defs><title>Mountain view</title><path class="cls-1" d="M26.1,66.12a1.5,1.5,0,0,0-1.19-.63,1.53,1.53,0,0,0-1.22.57L1.24,94.91A1.5,1.5,0,1,0,3.6,96.75L14.74,82.44l3.74,5.12a1.5,1.5,0,0,0,2,.4l4.46-2.71,5.21,5.87a1.49,1.49,0,0,0,2.07.17l5-4.07,6.63,9.47A1.5,1.5,0,0,0,46.31,95Zm5.33,21.94-5.09-5.74a1.5,1.5,0,0,0-1.9-.29l-4.35,2.65L16.66,80l8.15-10.47L35.49,84.76Z"/><path class="cls-1" d="M98.33,57.4a1.49,1.49,0,0,0-2,.55l-2.93,5.1L82.47,50.79a1.5,1.5,0,0,0-1-.5,1.55,1.55,0,0,0-1.09.38l-7.61,6.84-7-4.49L84.62,25.43,96.34,42.62a1.5,1.5,0,0,0,2.48-1.69l-12.95-19a1.51,1.51,0,0,0-1.24-.66h0a1.5,1.5,0,0,0-1.24.66L40.73,84.27a1.51,1.51,0,0,0,.39,2.09,1.57,1.57,0,0,0,.85.26A1.51,1.51,0,0,0,43.21,86L64.06,55.5l8,5.15a1.49,1.49,0,0,0,1.81-.15l7.35-6.59L92.49,66.6a1.49,1.49,0,0,0,1.12.5h.15a1.51,1.51,0,0,0,1.15-.75l4-6.91A1.49,1.49,0,0,0,98.33,57.4Z"/><path class="cls-1" d="M16,26A11.64,11.64,0,1,0,4.37,14.31,11.65,11.65,0,0,0,16,26ZM16,5.67a8.64,8.64,0,1,1-8.64,8.64A8.66,8.66,0,0,1,16,5.67Z"/><path class="cls-1" d="M29.29,24.69H68.43a1.49,1.49,0,0,0,1.49-1.59,9.33,9.33,0,0,0-13.14-8A9.32,9.32,0,0,0,42.11,10.6,1.5,1.5,0,1,0,44,13a6.35,6.35,0,0,1,10.26,4.61A1.5,1.5,0,0,0,55.53,19h.28a1.57,1.57,0,0,0,.86-.32,6.34,6.34,0,0,1,10,3H31.08a6.34,6.34,0,0,1,10-3,1.5,1.5,0,1,0,1.85-2.36,9.35,9.35,0,0,0-15.1,6.8,1.49,1.49,0,0,0,.4,1.12A1.52,1.52,0,0,0,29.29,24.69Z"/></svg>