<svg xmlns="http://www.w3.org/2000/svg" viewBox="0 0 500 372.7"><path d="M488.3 144.6c-31.7-3.7-34.2-12.1-34.2-12.1 26.6 5.2 46-12.1 46-12.1-33-30.4-81.6-16.8-81.6-16.8C432 92.6 456.7 87 456.7 87c-33.7-11.9-69.3 13.5-77.8 32.4-.6-19.7 32.7-37.4 32.7-37.4-48.8 1.8-60.1 32.7-64.4 42.2 9.2-62.9 102.3-53.4 102.3-53.4-34.5-21.2-73.4-13.2-73.4-13.2C414.8 46.5 423 7.9 423 7.9c-79.4-7.8-84.5 70.4-84.5 70.4-4.8-37.2 19-63.1 38.8-78.3-38.7 2.3-52 28.9-56.3 47.3C305.6 13.6 278.6 2.1 256.5 3c0 0 43.4 25.2 49.5 67.3-12.9-17.9-36-27.7-56-27.7s-43.1 9.8-55.9 27.6c6-42.1 49.4-67.2 49.4-67.2-22.1-.8-49.1 10.7-64.3 44.3-4.3-18.4-17.6-45-56.3-47.3 19.8 15.2 43.6 41.1 38.8 78.3 0 0-5.1-78.3-84.5-70.4 0 0 8.3 38.6 46.9 49.7 0 0-38.9-8-73.4 13.2 0 0 93.1-9.5 102.3 53.4-4.3-9.5-15.7-40.4-64.4-42.2 0 0 33.3 17.7 32.7 37.4-8.5-18.8-44.1-44.2-77.8-32.4 0 0 24.7 5.7 38.2 16.6 0 0-48.6-13.6-81.6 16.8 0 0 19.4 17.3 46 12.1 0 0-2.5 8.4-34.2 12.1 0 0 37.5 23.5 76.4-7.3-7.4 15.4-34.3 24.3-52.9 24.7 0 0 25.8 25.5 86.3-8.5-18.9 24.4-59.3 26.7-59.3 26.7 26.6 10.8 66.5-.4 79.6-6.4 0 0-47.5 22.6-48.9 67.1 31.6-42.5 57.9-43.6 57.9-43.6s-34.4 22.3-34.7 70.7c6.8-16.1 29-47.1 45.1-48.6 0 13.6 4.3 131-38.8 153.3h54.8V219.6H207c15.7 0 23-8.4 25.8-11.9 2.6-3.6 4.6-7.5 5.7-11.9 1.1-4.5.9-8.8.2-13.1-.8-4.3-2.6-8.5-5.6-11.9-3-3.4-7-5.7-11.3-6.8-4.3-1-8.8-.9-12.9.6-4.1 1.4-7.8 4.3-10 8.1-2.1 3.8-3 8.2-2.4 12.5.6 4.3 3.1 8.2 6.6 10.6.6.5 4.2 2.9 8.3 2.8 2 0 4-.6 5.1-1.6 1.2-1 1.5-2.1 1.2-2.7-.3-.8-1.4-1.3-1.8-.8 0 0-.9 1.2-3.3 1.2-2.3.1-4.9-1.1-5.5-1.5-2.8-1.6-5-4.2-5.8-7.2-.8-3-.3-6.7 1.1-9.7 1.4-3 3.9-5.3 7.1-6.6 3.1-1.3 6.8-1.6 10.2-.9 3.4.7 6.6 2.4 8.9 4.9 2.3 2.5 3.8 5.9 4.5 9.5.7 3.6.8 7.6-.1 10.9-.9 3.5-2.6 7-4.9 9.9-4.3 5.9-11.1 9.8-18.5 9.9-3.7.1-7.5-.5-11.1-1.8-3.5-1.2-6.7-3.3-9.2-6-5.1-5.5-7.5-13.4-7.9-21.2-.5-7.9.8-15.9 3.4-23.4.2-.5.8-2.3 1.7-4.4 9.2-18.6 27.4-44.4 63.5-71.1 36.2 26.7 54.4 52.5 63.5 71.1.8 2.1 1.5 3.9 1.7 4.4 2.6 7.5 3.9 15.5 3.4 23.4-.5 7.8-2.8 15.7-7.9 21.2-2.5 2.7-5.7 4.8-9.2 6-3.5 1.2-7.4 1.9-11.1 1.8-7.4-.1-14.2-4-18.5-9.9-2.3-3-4-6.4-4.9-9.9-.9-3.3-.8-7.3-.1-10.9.7-3.6 2.2-7 4.5-9.5s5.5-4.2 8.9-4.9c3.4-.7 7.1-.4 10.2.9 3.1 1.3 5.7 3.6 7.1 6.6 1.4 3 1.9 6.7 1.1 9.7-.8 3-2.9 5.7-5.8 7.2-.6.4-3.2 1.6-5.5 1.5-2.4 0-3.3-1.2-3.3-1.2-.3-.4-1.4 0-1.8.8-.3.6 0 1.7 1.2 2.7 1.2 1 3.1 1.6 5.1 1.6 4.1.1 7.6-2.3 8.3-2.8 3.5-2.4 6-6.3 6.6-10.6.6-4.3-.3-8.6-2.4-12.5-2.2-3.8-5.9-6.7-10-8.1-4.1-1.4-8.7-1.6-12.9-.6-4.3 1-8.3 3.4-11.3 6.8s-4.7 7.7-5.6 11.9c-.8 4.3-.9 8.7.2 13.1 1.1 4.3 3.1 8.3 5.7 11.9 2.7 3.6 10.1 11.9 25.8 11.9h29.6v153.1h54.8c-43.1-22.2-38.8-139.6-38.8-153.3 16.2 1.4 38.3 32.5 45.1 48.6-.2-48.4-34.7-70.7-34.7-70.7s26.2 1.1 57.9 43.6c-1.4-44.5-48.9-67.1-48.9-67.1 13.2 6 53 17.2 79.6 6.4 0 0-40.4-2.4-59.3-26.7 60.4 34 86.2 8.5 86.2 8.5-18.6-.4-45.5-9.3-52.8-24.8 39.1 30.8 76.6 7.4 76.6 7.4zM250 85.4c-17.3-2.8-41.3 9.3-51.5 17.4 5.6-13 27.3-50 51.5-55.8 24.2 5.8 46 42.8 51.5 55.8-10.2-8.1-34.2-20.1-51.5-17.4z"/></svg>
