<svg version="1.1" xmlns="http://www.w3.org/2000/svg" xmlns:xlink="http://www.w3.org/1999/xlink" x="0px" y="0px"
	 viewBox="0 0 500 500" style="enable-background:new 0 0 500 500;" xml:space="preserve">
<g id="BrandImage">
</g>
<g id="Logo">
	<g>
		<g>
			<rect x="12.4" y="361.8" class="st0" width="480.3" height="3.8"/>
			<g>
				<polygon class="st0" points="308.1,429.6 302.3,435.3 308.1,441.1 313.8,435.3 				"/>
				<path class="st0" d="M311.5,394.1c-0.4-1.4-3.4,0.6-10.1,6.5c2.6,2.9,3.9,1.2,6.1,0.5c1.7,3.2,2.4,17.7-8.7,22.1
					c0.3-14.6,0.4-30.2,0.4-30.2c0-0.4-0.3-0.5-0.7-0.5c-3,0.4-8.4,5.8-12.6,10.3c2.3,3.8,5.2,0.4,7.5-0.5c0,0.6-0.5,11.4-0.3,22.3
					c-11.4,0.9-9.6-22.3-8.9-25.3c0.3-2.4-7.3,2.9-11.1,6.4c1.2,2.1,2.8,1.7,4.9,0.9c-0.8,10.4,6.6,19.9,15.1,19.6
					c0.3,10.7,1.4,21.1,4.5,21.9c0.4,0.1,0.8-10.9,1-23.1C319.3,418.5,311.5,394.1,311.5,394.1z"/>
				<path class="st0" d="M61.1,431.7v-30.5H53V432c0,6.6,3.2,10.2,11.1,10.2h5.1v-5.9H66C62.4,436.4,61.1,435.4,61.1,431.7z"/>
				<path class="st0" d="M170.8,432.7l-11.9-31.1h-11.6v40.6h8V418c0-1.6-0.1-4.2-0.2-5.9h0.2l11.6,30.2h7.5l11.6-30.2h0.2
					c-0.2,1.7-0.2,4.4-0.2,5.9v24.2h8v-40.6h-11.4L170.8,432.7z"/>
				<path class="st0" d="M92.1,429.5c0,5.5-3.4,7.6-7.1,7.6c-3.7,0-7.1-2-7.1-7.6v-18.3h-8v18.3c0,9.6,5.1,13.1,15.2,13.1
					c10.1,0,15.2-3.5,15.2-13.1v-18.3h-8.1V429.5z"/>
				<path class="st0" d="M121.6,410.8c-3.1,0-6.4,0.7-9.1,2v-11.6h-8.1v28.3c0,9.6,5.8,13.1,15.9,13.1c10.1,0,15.9-4,15.9-13.6v-4.9
					C136.3,416.5,132,410.8,121.6,410.8z M128.7,429.5c0,5.5-4.4,7.6-8.1,7.6c-3.7,0-8.1-2-8.1-7.6v-5.6c0-5.5,4.4-7.6,8.1-7.6
					c3.7,0,8.1,2,8.1,7.6V429.5z"/>
				<path class="st0" d="M256.9,412.8c-2.7-1.3-6-2-9.1-2c-10.4,0-14.7,5.7-14.7,13.3v4.9c0,9.6,5.8,13.6,15.9,13.6
					c10.1,0,15.9-3.5,15.9-13.1v-28.3h-8V412.8z M256.9,429.5c0,5.5-4.4,7.6-8.1,7.6c-3.7,0-8.1-2-8.1-7.6v-5.6
					c0-5.5,4.4-7.6,8.1-7.6c3.8,0,8.1,2,8.1,7.6V429.5z"/>
				<path class="st0" d="M213.8,410.8c-10.1,0-15.9,5.9-15.9,15.5v1.3c0,9.3,5.5,15.1,16.4,15.1c5.4,0,10.2-1.1,14.8-4.8l-4.9-3.9
					c-3.4,2.3-5.9,3.1-9.8,3.1c-4.7,0-8.6-2.6-8.6-7.6v-0.7h24v-2.5C229.7,416.7,223.9,410.8,213.8,410.8z M205.7,424.1
					c0-5.7,4.4-7.9,8.1-7.9c3.7,0,8.1,2.2,8.1,7.9H205.7z"/>
				<path class="st0" d="M31.6,406.7c5,0,8.6,2.2,10.1,7.1h8.6c-1.5-7.3-8-12.6-18.7-12.6c-12.3,0-19.2,7.2-19.2,18.4v5.5
					c0,10.8,6.7,17.5,19.2,17.5c10.7,0,17.1-5.3,18.7-12.6h-8.6c-1.5,4.9-5.1,7.1-10.1,7.1c-7.9,0-10.9-5.2-10.9-13.3v-4
					C20.8,410.9,24.7,406.7,31.6,406.7z"/>
			</g>
			<path class="st0" d="M170.9,497v-33.8c0-0.4,0.1-0.7,0.8-0.7h2.8v-1.2h-12v1.2h2.8c0.6,0,0.8,0.2,0.8,0.7V497
				c0,0.3-0.2,0.5-0.4,0.5h-3.2v1.2h12.1v-1.2h-3.2C171.1,497.6,170.9,497.3,170.9,497z"/>
			<path class="st0" d="M265,491.8c0,0.2-0.5,5.8-7.7,5.8c-8.9,0-9.9-13.4-9.9-19.1c0-5.9,2-15.8,9.4-15.9h0.1
				c4.7,0,5.3,2.4,5.3,4.8c0,0.3-0.2,0.7-0.4,1.1c-0.2,0.4-0.4,0.8-0.4,1.2c0,1.1,1.1,1.9,2.2,1.9c1.2,0,2.3-0.8,2.3-2.7
				c0-2.9-2.5-7.5-9.1-7.5h-0.1c-4,0-7.3,1.3-9.9,4c-3.1,3.2-5,8.1-4.9,13.3c0.1,9.8,4.1,20.4,15.4,20.4c8.1,0,9-6.8,9-6.9l0-0.3
				l-1.3-0.4L265,491.8z"/>
			<path class="st0" d="M194.8,462.5h2c0.9,0,1.5,0.7,1.5,1.8c0,0.2,0,0.5-0.1,0.8l-5.4,23.3l-7.1-25.1c0-0.1,0-0.2,0-0.4
				c0-0.3,0.2-0.5,0.7-0.5h1.9v-1.2h-11.1v1.2h1.8c0.7,0,1.1,0.6,1.2,1.1c0.6,2.1,10,34.8,10.1,35.1l0.1,0.3h1.3l0.1-0.3
				c1-4,5.9-24.7,7.5-31.5l0.6-2.4c0.3-1.1,1-2.3,2.4-2.3h1.3v-1.2h-8.7V462.5z"/>
			<path class="st0" d="M151.9,475.3c-2.7-0.5-7.2-2-7.2-6.2v-0.3c0-3.6,2.7-6.3,6.3-6.3c6.1,0,6.2,6.1,6.2,6.3v0.4l1.5-0.1v-7.2
				l-0.3-0.1c0,0-3.5-0.8-6.7-0.8h-0.3c-6.6,0.1-11,4-11,9.9c0,4.7,3.1,7.8,8.8,8.8c4.5,0.8,7.5,4.1,7.5,8.2c0,4.7-2.1,9.7-8,9.7
				c-7.4,0-7.7-7.4-7.7-7.7l0-0.3l-1.5-0.1v8.7l0.3,0.1c0,0,4,0.7,7.9,0.7h0.2c8.2,0,13.4-5,13.4-12.7
				C161.4,480.5,157.9,476.5,151.9,475.3z"/>
			<path class="st0" d="M228.8,490.1c-1.4,5.3-4.4,7.5-10.3,7.5h-0.4c-3.6,0-3.7-0.8-3.7-2.3c0-0.3,0-0.7,0-1.1
				c0-0.5,0.1-1.1,0.1-1.8l-0.1-17.1l4.8,0.1l0.1,0c2.2,0.1,2.8,0.1,3.6,1.1c0.6,0.8,0.7,1.7,0.9,3.1l0.1,0.6h1.1v-10.8h-1.2l0,0.3
				c-0.2,1.4-0.3,2.4-1,3.3c-0.7,0.8-1.1,0.9-2.7,0.9c-0.2,0-0.5,0-0.8,0l-4.8,0.1v-11.5l7,0.2c1.7,0.1,3.6,0.2,4.4,1.2
				c0.9,1.1,0.9,1.4,1.2,3.1c0,0.3,0.1,0.8,0.2,1.2l0,0.3h1.1v-7.2H206v1.2h2.8c0.6,0,0.8,0.2,0.8,0.7V497c0,0.3-0.2,0.5-0.4,0.5
				h-3.2v1.2h23.7l0.5-8.8l-1.2-0.3L228.8,490.1z"/>
			<path class="st0" d="M35.3,489.8l-0.1,0.3c-1.4,5.3-4.4,7.5-10.3,7.5h-0.4c-3.6,0-3.7-0.8-3.7-2.3c0-0.3,0-0.7,0-1.1
				c0-0.5,0.1-1.1,0.1-1.8l-0.1-17.1l4.8,0.1l0.1,0c2.2,0.1,2.8,0.1,3.6,1.1c0.6,0.8,0.7,1.7,0.9,3.1l0.1,0.6h1.1v-10.8h-1.2l0,0.3
				c-0.2,1.4-0.3,2.4-1,3.3c-0.7,0.8-1.1,0.9-2.7,0.9c-0.2,0-0.5,0-0.8,0l-4.8,0.1v-11.5l7,0.2c1.7,0.1,3.6,0.2,4.4,1.2
				c0.9,1.1,0.9,1.4,1.2,3.1c0,0.3,0.1,0.8,0.2,1.2l0,0.3h1.1v-7.2H12.4v1.2h2.8c0.6,0,0.8,0.2,0.8,0.7V497c0,0.3-0.2,0.5-0.4,0.5
				h-3.2v1.2H36l2.1-8.8L35.3,489.8z"/>
			<path class="st0" d="M62.9,496.8c-1-1.9-8.1-17.2-8.9-18.9c0.6-1.4,5.1-12,6.1-13.8c0.5-0.8,1-1.6,2.2-1.6h1.8v-1.2h-8.9v1.2h2
				c0.4,0,1,0.2,1,1.1c0,0.1,0,0.5-0.2,0.9l-5,12l-6.5-13.3l0-0.1c0,0,0-0.1,0-0.1c0-0.3,0.4-0.4,0.8-0.4h1.9v-1.2H38v1.2h2.1
				c0.6,0,0.9,0.2,1.3,0.8c1,1.9,7.1,14.7,7.8,16.2c-0.7,1.5-6.3,14.6-7.3,16.4c-0.5,0.8-1,1.6-2.2,1.6h-1.8v1.2h8.9v-1.2h-2
				c-0.4,0-1-0.2-1-1.1c0-0.1,0-0.5,0.2-0.9L50,481c1.4,3,6.9,14.6,7.6,16l0,0.1c0,0,0,0.1,0,0.1c0,0.3-0.4,0.4-0.8,0.4H55v1.2h11.4
				v-1.2h-2.1C63.6,497.6,63.3,497.4,62.9,496.8z"/>
			<path class="st0" d="M110.5,490c-1.6,5.7-3.8,7.6-9,7.6c-3.9,0-4-1.1-4-3.3v-31.1c0-0.4,0.1-0.7,0.8-0.7h2.8v-1.2H89v1.2h2.8
				c0.4,0,0.7,0.5,0.7,0.7V497c0,0.3-0.2,0.5-0.4,0.5h-3.2v1.2h22.3l0.6-9l-1.2-0.1L110.5,490z"/>
			<path class="st0" d="M129.5,462.5h2.3c0.6,0,1.2,0.4,1.2,1.2v25.7c0,4.8-2.5,7.4-6.9,7.4c-3.6,0-6.4-3.2-6.4-7.4l-0.1-26.3
				c0-0.4,0.1-0.7,0.8-0.7h2.8v-1.2h-12v1.2h2.8c0.6,0,0.8,0.2,0.8,0.7v27.1c0,5.1,4.2,8.7,10.1,8.7c6,0,9.8-3.3,9.8-8.7l0.1-26.5
				c0-0.6,0.2-1.2,1-1.2h2.6v-1.2h-8.8V462.5z"/>
			<path class="st0" d="M87,491.8c0,0.2-0.5,5.8-7.7,5.8c-8.9,0-9.9-13.4-9.9-19.1c0-5.9,2-15.8,9.4-15.9H79c4.7,0,5.3,2.4,5.3,4.8
				c0,0.3-0.2,0.7-0.4,1.1c-0.2,0.4-0.4,0.8-0.4,1.2c0,1.1,1.1,1.9,2.2,1.9c1.2,0,2.3-0.8,2.3-2.7c0-2.9-2.5-7.5-9.1-7.5h-0.1
				c-4,0-7.3,1.3-9.9,4c-3.1,3.2-5,8.1-4.9,13.3c0.1,9.8,4.1,20.4,15.4,20.4c8.1,0,9-6.8,9-6.9l0-0.3l-1.3-0.4L87,491.8z"/>
			<path class="st0" d="M397.8,468.5h1.1l0-0.3c0.4-2.7,0.6-2.8,1.6-4.1l0.1-0.2c0.8-1,1.6-1.3,3.3-1.3l3.3,0V497
				c0,0.3-0.2,0.5-0.4,0.5h-3.2v1.2h12.1v-1.2l-3.1,0c-0.1-0.1-0.3-0.5-0.4-0.8v-34.2l3.4,0c1.7,0,2.5,0.3,3.3,1.3l0.1,0.2
				c1,1.2,1.2,1.4,1.6,4.1l0,0.3h1.1v-7.2h-24V468.5z"/>
			<path class="st0" d="M281.9,461.1c-8.8,0-14.8,7.7-14.8,19c0,10.9,6.2,18.8,14.8,18.8c8.3,0,14.2-7.7,14.2-18.8
				C296.1,468.6,290.5,461.1,281.9,461.1z M272.6,480.2c0-10.7,1.6-17.8,9.3-17.8c8.1,0,8.7,7.7,8.7,17.8c0,10.8-1.4,17.5-8.7,17.5
				C274.2,497.7,272.6,488.2,272.6,480.2z"/>
			<path class="st0" d="M450.9,461.1c-8.8,0-14.8,7.7-14.8,19c0,10.9,6.2,18.8,14.8,18.8c8.3,0,14.2-7.7,14.2-18.8
				C465.1,468.6,459.6,461.1,450.9,461.1z M441.7,480.2c0-10.7,1.6-17.8,9.3-17.8c8.1,0,8.7,7.7,8.7,17.8c0,10.8-1.4,17.5-8.7,17.5
				C443.3,497.7,441.7,488.2,441.7,480.2z"/>
			<path class="st0" d="M483.8,461.2v1.2h2.4c1.1,0,1.2,1.8,1.2,2.4l-0.1,21.4c-1.6-3.9-5.1-11.3-6.3-13.4l-0.2-0.3
				c-1.5-2.9-5.2-9.8-6.7-11.1l-0.1-0.1H473c-0.7,0-1.6,0-2.7,0c-1.4,0-3,0-4.6,0h-0.4v1.2h2.8c0.6,0,0.9,0.5,0.9,1
				c0,1.7-0.2,31.4-0.2,31.7c0,1.6-0.4,2.4-1.3,2.4h-2.3v1.2h8.8v-1.2h-2.4c-1.1,0-1.2-1.8-1.2-2.4l-0.2-30.8
				c1.7,2.2,5.3,8.7,6.7,11.4c0.4,0.8,9.6,19,10.2,23l0,0.3h0.3c0.2,0,0.9-0.1,1-0.1l0.3,0v-0.3c0-1.7,0.2-33.4,0.2-33.7
				c0-1.6,0.4-2.4,1.3-2.4h2.3v-1.2H483.8z"/>
			<path class="st0" d="M432.3,497v-33.8c0-0.4,0.1-0.7,0.8-0.7h2.8v-1.2h-12v1.2h2.8c0.6,0,0.8,0.2,0.8,0.7V497
				c0,0.3-0.2,0.5-0.4,0.5h-3.2v1.2h12.1v-1.2h-3.2C432.5,497.6,432.3,497.3,432.3,497z"/>
			<path class="st0" d="M394.2,491.8c0,0.2-0.5,5.8-7.7,5.8c-8.9,0-9.9-13.4-9.9-19.1c0-5.9,2-15.8,9.4-15.9h0.1
				c4.7,0,5.3,2.4,5.3,4.8c0,0.3-0.2,0.7-0.4,1.1c-0.2,0.4-0.4,0.8-0.4,1.2c0,1.1,1.1,1.9,2.2,1.9c1.2,0,2.3-0.8,2.3-2.7
				c0-2.9-2.5-7.5-9.1-7.5H386c-4,0-7.3,1.3-9.9,4c-3.1,3.2-5,8.1-4.9,13.3c0.1,9.8,4.1,20.4,15.4,20.4c8.1,0,9-6.8,9-6.9l0-0.3
				l-1.3-0.4L394.2,491.8z"/>
			<path class="st0" d="M342.7,490c-1.6,5.7-3.8,7.6-9,7.6c-3.9,0-4-1.1-4-3.3v-31.1c0-0.4,0.1-0.7,0.8-0.7h2.8v-1.2h-12v1.2h2.8
				c0.4,0,0.7,0.5,0.7,0.7V497c0,0.3-0.2,0.5-0.4,0.5h-3.2v1.2h22.3l0.6-9l-1.2-0.1L342.7,490z"/>
			<path class="st0" d="M318,490c-1.6,5.7-3.8,7.6-9,7.6c-3.9,0-4-1.1-4-3.3v-31.1c0-0.4,0.1-0.7,0.8-0.7h2.8v-1.2h-12v1.2h2.8
				c0.4,0,0.7,0.5,0.7,0.7V497c0,0.3-0.2,0.5-0.4,0.5h-3.2v1.2h22.3l0.6-9l-1.2-0.1L318,490z"/>
			<path class="st0" d="M368.6,490.1c-1.4,5.3-4.4,7.5-10.3,7.5H358c-3.6,0-3.7-0.8-3.7-2.3c0-0.3,0-0.7,0-1.1
				c0-0.5,0.1-1.1,0.1-1.8l0-17.1l4.8,0.1l0.1,0c2.2,0.1,2.8,0.1,3.6,1.1c0.6,0.8,0.7,1.7,0.9,3.1l0.1,0.6h1.1v-10.8h-1.2l0,0.3
				c-0.2,1.4-0.3,2.4-1,3.3c-0.7,0.8-1.1,0.9-2.7,0.9c-0.2,0-0.5,0-0.8,0l-4.8,0.1v-11.5l7,0.2c1.7,0.1,3.6,0.2,4.4,1.2
				c0.9,1.1,0.9,1.4,1.2,3.1c0,0.4,0.1,0.8,0.2,1.2l0,0.3h1.1v-7.2h-22.5v1.2h2.8c0.6,0,0.8,0.2,0.8,0.7V497c0,0.3-0.2,0.5-0.4,0.5
				h-3.2v1.2h23.7l0.5-8.8l-1.2-0.3L368.6,490.1z"/>
		</g>
		<path class="st0" d="M113.6,1C54.9,1,7.4,48.6,7.4,107.2c0,23.9,7.9,46,21.2,63.7c3.7-5.1,7-10,10.5-16.4
			c11.1,0,24.8-3.4,32.9-11.9c-18.6,13.9-50,10.1-55.2-6.5c22.7,5,50.2,4.9,67.1-14.1c-27.8,23.9-68.1,9.7-71.3-18.2
			c11.6,15,45.1,23.6,69.7,10.1C45.2,126.7,20.2,103.3,16,80.4c9.8,9.6,30.9,13.4,38.1,9.9c6.8-3.4,12.7-16.7,17-25.8
			C77.9,49.9,84.3,41,99.8,37.7c14-2.9,26.6,5.7,27.4,12.2c0,0-4.2,3-6.4,4.7c-4.3,3.3-6.3-4.2-17.1-3.5
			c-11.2,0.8-16.5,11.7-14,20.8c2.2,8.4,10,13.4,16.2,19.3c0,0,0,0,0.1,0c5.8,6.1,12.9,16.7,15.5,29.1c3.7,17.6,1.3,60.6-60.6,79.1
			c6.7,3.9,13.9,7,21.5,9.3c36.3-12.2,62.6-37.8,71.7-73.2c7.1-27.4,3.4-67.3-3.8-88.9c15.2,44.3,14.2,82.9-0.2,113.4
			c16.1,1.1,27.8,3.9,43,9c-15.9,1.2-30,1.4-43.1-8.9c-10.5,21.9-27.9,39.7-51.5,52.3c5,0.7,10.1,1.1,15.2,1.1
			c58.7,0,106.2-47.6,106.2-106.2C219.8,48.3,172.6,1,113.6,1z M10.8,95C10.8,94.9,10.8,94.9,10.8,95L10.8,95z M101.6,62.5
			c-2.1,0-3.8-1.7-3.8-3.8c0-2.1,1.7-3.8,3.8-3.8c2.1,0,3.8,1.7,3.8,3.8C105.4,60.8,103.7,62.5,101.6,62.5z M106.5,89.1
			c0,0,2.3-9,4.1-11.9c0.7-1.2,2.1-1.6,2.9-1.5c6.1,1.2,13.7,7.4,15.8,9.9C118.8,92.5,106.5,89.1,106.5,89.1z M136.1,94.6
			c-2-18.9-21.4-23.1-21.4-23.6c0.2-3.6,7.6-15.5,15.3-18.6C144.2,58.4,147.5,80.7,136.1,94.6z M128.9,7.7c13.4,6.9,22.7,21,24.4,39
			C146,32.8,138.6,19.3,128.9,7.7z M147.3,11c15,11,18.7,32,10.7,52.9C161.4,43.8,156.9,25.8,147.3,11z M167.4,20.6
			c5.3,13.8,4.8,39.2-7.3,51.2C167.5,53.3,167,38.1,167.4,20.6z M142.9,179.7c8.5,2.2,8.2,12.1,12.3,18.1
			C148.6,193.6,145.1,187.5,142.9,179.7z M145.2,174.1c11.2,1.8,15.1,12.4,23.1,18.9C158.3,188.7,152,182.9,145.2,174.1z
			 M148.8,170.5c11.3-1.6,19.5,8,29.1,11.9C167.1,181.2,157.9,176.9,148.8,170.5z M212.6,93.1c-20.4,21.6-26.4,30.2-51.9,33.9
			C181.6,114.2,190.5,102,212.6,93.1z M161.9,115c16.9-15.1,27.6-27.7,45.4-41.2C194.8,92.8,182.4,113.7,161.9,115z M161.8,103.9
			c11.6-18.4,27.4-27.8,38.4-46.7C191.6,77.7,180.1,96.6,161.8,103.9z M173.6,55.5c3.8-9.4,5.3-14,8-23.2c1,21.6-6.8,37.1-21.2,50.6
			C165.2,74,169.8,64.9,173.6,55.5z M160.8,92.8c11.9-16.4,21.6-31.3,31.9-49.3C192,63.8,175.6,84.6,160.8,92.8z M214.6,112.6
			C202,134.2,178,136.8,159,136.3C181.4,127.9,193.3,125.7,214.6,112.6z M155.7,153.6c17.9-2.7,30.2-2.9,47.8-0.9
			C188.6,162.8,170.3,158.3,155.7,153.6z M156.9,143.3c22.5-3.3,31.3-3.7,53.8-9.3C193.1,148.9,178.7,146.7,156.9,143.3z"/>
		<g>
			<g>
				<path class="st0" d="M69.9,234v50.6H60v-32.1c0-1.7,0-5.1,0.2-7h-0.2l-15.9,39.2h-7.2L21.3,246c0.2,2,0.3,5.1,0.3,6.9v31.8h-9.2
					V234h14l14.9,36.8L55.8,234H69.9z"/>
				<path class="st0" d="M77.4,234h9.7v8.2h-9.7V234z M77.4,246.6h9.7v38h-9.7V246.6z"/>
				<path class="st0" d="M131.2,271.6c-1.1,9.4-9.1,13.7-18.6,13.7c-12.5,0-19.9-5.1-19.9-17.1v-5.7c0-11.1,7.4-16.7,19.6-16.7
					c9.9,0,17.4,3.8,18.5,12.4h-9.8c-0.8-3.5-3.6-5.4-8.8-5.4c-5.7,0-9.7,2.9-9.7,9.3v6.6c0,7.5,3.8,9.7,9.9,9.7
					c4.8,0,8.1-2.4,8.8-6.7H131.2z"/>
				<path class="st0" d="M172.9,261.8v22.8h-9.9v-22.9c0-5.5-2.7-8.7-8.8-8.7c-5.2,0-9.3,2.7-9.3,8.6v23h-9.7V234h9.7v14.4
					c2.6-1.4,6.6-2.5,10.6-2.5C167.1,245.9,172.9,250.9,172.9,261.8z"/>
				<path class="st0" d="M255.8,273.1c0,7.8-7.2,12.2-18.3,12.2c-5.7,0-12.8-1.4-17.7-5.8l6-5.4c2.9,2.6,6.9,4.2,11.8,4.2
					c5.4,0,8.3-1.4,8.3-4.6c0-2.5-1.4-3.9-4.8-4.3l-7.6-0.9c-6.8-0.8-12.2-4.3-12.2-11.2c0-7.1,6.5-11.3,16.7-11.3
					c6.5,0,11.8,1.7,15.8,5.1L248,256c-2.6-1.9-5.9-3.2-9.7-3.2c-4.4,0-7.1,1.5-7.1,4.1c0,2.4,1.6,4,4.5,4.4l7.8,1.1
					C251.4,263.4,255.8,266.7,255.8,273.1z"/>
				<path class="st0" d="M26.5,304.1c7.5,0,12.9,3.5,12.9,11.1c0,6.9-5.5,11-12.9,11h-7.6v10.9h-6.5v-33H26.5z M26.2,309.1h-7.4
					v11.9h7.4c4.2,0,6.5-3,6.5-6C32.7,311.8,30.5,309.1,26.2,309.1z"/>
				<path class="st0" d="M51.9,332.4h3.3v4.7h-4.7c-5.4,0-8-2.3-8-7.7v-25.3h6.3v25.5C48.9,331.8,50,332.4,51.9,332.4z"/>
				<path class="st0" d="M68.6,322.2h6.7v-2c0-2.1-1.1-3.7-5.8-3.7c-2.6,0-5.2,0.8-6.6,2.3l-4.3-3.2c2.3-2.1,6.1-3.7,11.1-3.7
					c8,0,12,3.1,12,8.7v13.8c0,0.6-0.3,0.9-0.9,1.1c-2.5,1.2-6.2,2.1-10.2,2.1c-8.5,0-12.8-3.8-12.8-7.9
					C57.6,325.5,61.1,322.2,68.6,322.2z M75.3,326.2h-6.3c-3.5,0-5.1,1.4-5.1,3.4c0,2.2,2.1,3.6,6.5,3.6c1.9,0,3.8-0.4,5-1.1V326.2z
					"/>
				<path class="st0" d="M96.7,328.1l7-15.8h6.6l-13,28.1c-2.1,4.5-5.2,6.3-10.7,6.3h-2.4v-4.6h2.3c2.5,0,4.2-0.5,5.6-3.8l1.5-3.4
					l-10.8-22.6h6.6L96.7,328.1z"/>
				<path class="st0" d="M122.7,322.2h6.7v-2c0-2.1-1.1-3.7-5.8-3.7c-2.6,0-5.2,0.8-6.6,2.3l-4.3-3.2c2.3-2.1,6.1-3.7,11.1-3.7
					c8,0,12,3.1,12,8.7v13.8c0,0.6-0.3,0.9-0.9,1.1c-2.5,1.2-6.2,2.1-10.2,2.1c-8.5,0-12.8-3.8-12.8-7.9
					C111.8,325.5,115.3,322.2,122.7,322.2z M129.4,326.2h-6.3c-3.5,0-5.1,1.4-5.1,3.4c0,2.2,2.1,3.6,6.5,3.6c1.9,0,3.8-0.4,5-1.1
					V326.2z"/>
				<path class="st0" d="M153.6,304.1h25v5.1h-18.6v8.4h16.8v5.1h-16.8v9.4h18.6v5.1h-25V304.1z"/>
				<path class="st0" d="M204.8,329.6c0,5.1-4.7,8-11.9,8c-3.7,0-8.3-0.9-11.6-3.8l3.9-3.5c1.9,1.7,4.5,2.7,7.7,2.7
					c3.5,0,5.4-0.9,5.4-3c0-1.6-0.9-2.6-3.1-2.8l-5-0.6c-4.4-0.5-8-2.8-8-7.3c0-4.6,4.2-7.4,10.9-7.4c4.2,0,7.7,1.1,10.3,3.3
					l-3.8,3.3c-1.7-1.2-3.8-2.1-6.3-2.1c-2.9,0-4.6,1-4.6,2.7c0,1.6,1,2.6,3,2.9l5.1,0.7C201.9,323.3,204.8,325.4,204.8,329.6z"/>
				<path class="st0" d="M249.8,322.5v14.6h-6.3v-14.5c0-4.4-2.8-6.1-5.7-6.1c-3.1,0-5.8,1.6-5.8,5.2v15.4h-6.4v-14.8
					c0-4.2-2.9-5.8-5.8-5.8c-3.2,0-5.7,1.7-5.7,5.4v15.2h-6.3v-24.8h5.4l0.3,1.9c1.6-1.3,4.3-2.4,7.3-2.4c4.1,0,7.1,1.4,8.8,3.6
					c2.1-2.2,5.4-3.6,8.5-3.6C244.7,311.9,249.8,314.8,249.8,322.5z"/>
				<path class="st0" d="M278.5,333.6c-3.1,2.8-6.8,4-11.7,4c-8.1,0-13.6-4.2-13.6-12.2v-1.2c0-7.5,4.9-12.4,12.9-12.4
					c8.6,0,12.9,4.8,12.9,12.5v2.2h-19.4v0.2c0,4,3.1,6.2,7.3,6.2c3.2,0,5.5-1,7.5-2.8L278.5,333.6z M272.6,322.5
					c-0.1-4.1-2.8-6.2-6.5-6.2c-3.5,0-6.3,2.4-6.5,6.2H272.6z"/>
				<path class="st0" d="M297.2,316.9h-4.5c-2.8,0-4.1,1.3-4.1,4.1v16.1h-6.3v-15.9c0-5.3,3.3-8.8,9.1-8.8h5.9V316.9z"/>
				<path class="st0" d="M310.3,322.2h6.7v-2c0-2.1-1.1-3.7-5.8-3.7c-2.6,0-5.2,0.8-6.6,2.3l-4.3-3.2c2.3-2.1,6.1-3.7,11.1-3.7
					c8,0,12,3.1,12,8.7v13.8c0,0.6-0.3,0.9-0.9,1.1c-2.5,1.2-6.2,2.1-10.2,2.1c-8.5,0-12.8-3.8-12.8-7.9
					C299.4,325.5,302.9,322.2,310.3,322.2z M317,326.2h-6.3c-3.5,0-5.1,1.4-5.1,3.4c0,2.2,2.1,3.6,6.5,3.6c1.9,0,3.8-0.4,5-1.1
					V326.2z"/>
				<path class="st0" d="M336.8,332.4h3.3v4.7h-4.7c-5.4,0-8-2.3-8-7.7v-25.3h6.3v25.5C333.8,331.8,334.9,332.4,336.8,332.4z"/>
				<path class="st0" d="M342.1,322.6c0-6.3,3.6-10.8,12.4-10.8c2.5,0,5,0.5,6.9,1.5v-9.3h6.3V327c0,7.6-5.1,10.6-12.7,10.6
					c-8.4,0-12.9-3.5-12.9-11V322.6z M361.3,321.9c0-3.5-2.4-5.6-6.2-5.6c-4.5,0-6.6,2-6.6,6.3v4c0,4.3,2.6,6.2,6.5,6.2
					c3.6,0,6.4-1.8,6.4-6.2V321.9z"/>
				<path class="st0" d="M381.9,322.2h6.7v-2c0-2.1-1.1-3.7-5.8-3.7c-2.6,0-5.2,0.8-6.6,2.3l-4.3-3.2c2.3-2.1,6.1-3.7,11.1-3.7
					c8,0,12,3.1,12,8.7v13.8c0,0.6-0.3,0.9-0.9,1.1c-2.5,1.2-6.2,2.1-10.2,2.1c-8.5,0-12.8-3.8-12.8-7.9
					C371,325.5,374.5,322.2,381.9,322.2z M388.6,326.2h-6.3c-3.5,0-5.1,1.4-5.1,3.4c0,2.2,2.1,3.6,6.5,3.6c1.9,0,3.8-0.4,5-1.1
					V326.2z"/>
			</g>
			<g>
				<path class="st0" d="M216.1,279.2c-4.7,4.3-10.4,6.2-17.9,6.2c-12.4,0-20.9-6.4-20.9-18.6v-1.8c0-11.5,7.5-19,19.8-19
					c13.2,0,19.8,7.4,19.8,19.2v3.3h-29.8v0.3c0,6.2,4.8,9.4,11.2,9.4c5,0,8.5-1.6,11.5-4.3L216.1,279.2z M193.1,242.8h10l-7.8-8.8
					h-11.5L193.1,242.8z M207.1,262.2c-0.2-6.3-4.3-9.5-10-9.5c-5.4,0-9.7,3.6-10,9.5H207.1z"/>
			</g>
		</g>
	</g>
</g>
</svg>
