<svg viewBox="0 0 468 496" version="1.1" xmlns="http://www.w3.org/2000/svg" xmlns:xlink="http://www.w3.org/1999/xlink">
    <title>Musculation</title>
    <defs></defs>
    <g id="Page-1" stroke-width="1" fill-rule="evenodd">
        <g id="Musculation" transform="translate(-1.000000, -2.000000)" fill="#231F20" fill-rule="nonzero">
            <path d="M71.2328767,116.438356 C77.739726,116.438356 82.8767123,111.30137 82.8767123,104.794521 L82.8767123,64.0410959 C84.5890411,68.1506849 88.6986301,71.2328767 93.4931507,71.2328767 L99.6575342,71.2328767 L198.972603,215.068493 L198.972603,275.684932 L149.315068,452.739726 C147.945205,456.164384 144.178082,467.123288 148.972603,478.424658 C151.027397,483.90411 156.164384,491.09589 167.808219,495.547945 C171.917808,496.917808 175.684932,497.60274 179.109589,497.60274 C194.178082,497.60274 204.452055,485.616438 208.219178,476.027397 C208.219178,475.684932 208.561644,475.342466 208.561644,475.342466 L236.30137,382.876712 L258.90411,474.657534 C258.90411,475 259.246575,475.684932 259.246575,476.027397 C263.013699,485.958904 273.287671,497.60274 288.356164,497.60274 C291.780822,497.60274 295.890411,496.917808 299.657534,495.547945 C310.958904,491.438356 316.09589,483.90411 318.493151,478.424658 C322.945205,467.465753 319.520548,456.506849 318.150685,452.739726 L268.150685,273.972603 C267.808219,272.945205 267.465753,271.917808 266.780822,270.890411 L266.780822,215.068493 L372.60274,71.2328767 L375.342466,71.2328767 C381.849315,71.2328767 386.986301,66.0958904 386.986301,59.5890411 C386.986301,53.0821918 381.849315,47.9452055 375.342466,47.9452055 L93.4931507,47.9452055 C88.6986301,47.9452055 84.5890411,51.0273973 82.8767123,55.1369863 L82.8767123,13.6986301 C82.8767123,7.19178082 77.739726,2.05479452 71.2328767,2.05479452 C64.7260274,2.05479452 59.5890411,7.19178082 59.5890411,13.6986301 L59.5890411,104.794521 C59.2465753,111.30137 64.7260274,116.438356 71.2328767,116.438356 Z M295.547945,459.589041 C295.547945,460.273973 295.890411,460.616438 296.232877,461.30137 C296.575342,461.986301 297.945205,466.438356 296.917808,469.178082 C296.232877,470.890411 294.520548,472.260274 291.780822,473.287671 C286.30137,475.342466 283.219178,471.575342 281.506849,467.808219 L249.657534,338.69863 C249.657534,338.69863 249.657534,338.356164 249.657534,338.356164 L255.821918,317.808219 L295.547945,459.589041 Z M245.547945,204.109589 C244.178082,206.164384 243.150685,208.561644 243.150685,210.958904 L243.150685,277.39726 L186.30137,467.123288 C184.589041,470.890411 181.506849,475 176.027397,472.945205 C173.287671,471.917808 171.575342,470.547945 170.890411,469.178082 C169.863014,466.780822 170.890411,462.671233 171.575342,461.30137 C171.917808,460.616438 171.917808,460.273973 172.260274,459.589041 L222.60274,280.479452 C222.945205,279.452055 222.945205,278.424658 222.945205,277.39726 L222.945205,211.30137 C222.945205,208.90411 222.260274,206.506849 220.890411,204.794521 L128.767123,71.2328767 L343.835616,71.2328767 L245.547945,204.109589 Z M41.0958904,92.4657534 C34.5890411,92.4657534 29.4520548,87.3287671 29.4520548,80.8219178 L29.4520548,38.0136986 C29.4520548,31.5068493 34.5890411,26.369863 41.0958904,26.369863 C47.6027397,26.369863 52.739726,31.5068493 52.739726,38.0136986 L52.739726,80.8219178 C52.739726,87.3287671 47.6027397,92.4657534 41.0958904,92.4657534 Z M13.3561644,77.739726 C6.84931507,77.739726 1.71232877,72.6027397 1.71232877,66.0958904 L1.71232877,52.739726 C1.71232877,46.2328767 6.84931507,41.0958904 13.3561644,41.0958904 C19.8630137,41.0958904 25,46.2328767 25,52.739726 L25,66.0958904 C25,72.6027397 19.8630137,77.739726 13.3561644,77.739726 Z M398.972603,116.438356 C392.465753,116.438356 386.986301,111.30137 387.328767,104.794521 L387.328767,13.6986301 C387.328767,7.19178082 392.465753,2.05479452 398.972603,2.05479452 C405.479452,2.05479452 410.616438,7.19178082 410.616438,13.6986301 L410.616438,104.794521 C410.616438,111.30137 405.479452,116.438356 398.972603,116.438356 Z M428.767123,92.4657534 C422.260274,92.4657534 417.123288,87.3287671 417.123288,80.8219178 L417.123288,38.0136986 C417.123288,31.5068493 422.260274,26.369863 428.767123,26.369863 C435.273973,26.369863 440.410959,31.5068493 440.410959,38.0136986 L440.410959,80.8219178 C440.410959,87.3287671 435.273973,92.4657534 428.767123,92.4657534 Z M456.506849,77.739726 C450,77.739726 444.863014,72.6027397 444.863014,66.0958904 L444.863014,52.739726 C444.863014,46.2328767 450,41.0958904 456.506849,41.0958904 C463.013699,41.0958904 468.150685,46.2328767 468.150685,52.739726 L468.150685,66.0958904 C468.150685,72.6027397 463.013699,77.739726 456.506849,77.739726 Z M198.630137,154.794521 C202.054795,172.260274 217.808219,185.273973 235.273973,185.273973 C237.328767,185.273973 239.383562,184.931507 241.780822,184.589041 C251.369863,182.876712 259.589041,177.39726 265.068493,169.520548 C270.547945,161.30137 272.60274,151.369863 270.547945,141.438356 C267.123288,123.630137 251.369863,110.958904 233.90411,110.958904 C231.849315,110.958904 229.794521,111.30137 227.39726,111.643836 C217.808219,113.356164 209.589041,118.835616 204.109589,126.712329 C198.287671,134.931507 196.575342,144.863014 198.630137,154.794521 Z M223.287671,140.068493 C225,137.328767 228.082192,135.616438 231.164384,134.931507 C231.849315,134.931507 232.534247,134.589041 233.561644,134.589041 C240.068493,134.589041 245.890411,139.726027 247.260274,146.232877 C247.945205,150 247.260274,153.424658 245.205479,156.506849 C243.493151,159.246575 240.410959,160.958904 237.328767,161.643836 C236.643836,161.643836 235.958904,161.986301 234.931507,161.986301 C228.424658,161.986301 222.60274,156.849315 221.232877,150.342466 C220.890411,146.575342 221.575342,142.808219 223.287671,140.068493 Z" id="Shape"></path>
        </g>
    </g>
</svg>
