<svg viewBox="0 0 474 439" version="1.1" xmlns="http://www.w3.org/2000/svg" xmlns:xlink="http://www.w3.org/1999/xlink">
    <title>musicclock</title>
    <defs></defs>
    <g id="Page-1" stroke-width="1" fill-rule="evenodd">
        <g id="musicclock" transform="translate(-11.000000, -10.000000)" fill-rule="nonzero">
            <path d="M352.601712,159.574311 C352.603347,159.716013 352.604167,159.857911 352.604167,160 C352.604167,160.100654 352.603755,160.201212 352.602934,160.301672 L352.604156,161.028536 C352.604675,161.337389 352.587265,161.642085 352.552907,161.941641 C351.544044,181.001661 335.769744,196.145833 316.458333,196.145833 C296.495541,196.145833 280.3125,179.962793 280.3125,160 C280.3125,140.037207 296.495541,123.854167 316.458333,123.854167 C324.056983,123.854167 331.107995,126.198884 336.927328,130.204276 L336.836243,76.0089373 C336.74728,75.3271802 336.749248,74.6540139 336.83287,74.0018176 L336.770844,37.0964636 C336.764295,33.1996672 339.630335,29.8938947 343.488697,29.3479001 L475.988697,10.5979001 C480.691974,9.93234198 484.895833,13.5831977 484.895833,18.3333333 L484.895833,55.9266713 C484.897166,56.0100693 484.89716,56.093251 484.895833,56.1761926 L484.895833,141.041667 C484.895833,161.004459 468.712793,177.1875 448.75,177.1875 C428.787207,177.1875 412.604167,161.004459 412.604167,141.041667 C412.604167,121.078874 428.787207,104.895833 448.75,104.895833 C456.371227,104.895833 463.441557,107.254504 469.270833,111.281689 L469.270833,65.051558 L352.470937,81.7634929 L352.601712,159.574311 Z M352.444416,65.9831574 L469.270833,49.2674278 L469.270833,27.3292104 L352.407245,43.8665107 L352.444416,65.9831574 Z M448.75,161.5625 C460.083343,161.5625 469.270833,152.37501 469.270833,141.041667 C469.270833,129.708323 460.083343,120.520833 448.75,120.520833 C437.416657,120.520833 428.229167,129.708323 428.229167,141.041667 C428.229167,152.37501 437.416657,161.5625 448.75,161.5625 Z M316.458333,180.520833 C327.791677,180.520833 336.979167,171.333343 336.979167,160 C336.979167,148.666657 327.791677,139.479167 316.458333,139.479167 C305.12499,139.479167 295.9375,148.666657 295.9375,160 C295.9375,171.333343 305.12499,180.520833 316.458333,180.520833 Z" id="Combined-Shape"></path>
            <path d="M60.625,274.270833 C41.92786,274.270833 26.7708333,289.42786 26.7708333,308.125 L26.7708333,398.541667 C26.7708333,417.238807 41.92786,432.395833 60.625,432.395833 L435.416667,432.395833 C454.113807,432.395833 469.270833,417.238807 469.270833,398.541667 L469.270833,308.125 C469.270833,289.42786 454.113807,274.270833 435.416667,274.270833 L60.625,274.270833 Z M99.2708333,258.645833 L99.2708333,124.375 C99.2708333,120.060275 102.768609,116.5625 107.083333,116.5625 C111.398058,116.5625 114.895833,120.060275 114.895833,124.375 L114.895833,258.645833 L435.416667,258.645833 C462.743256,258.645833 484.895833,280.798411 484.895833,308.125 L484.895833,398.541667 C484.895833,425.868256 462.743256,448.020833 435.416667,448.020833 L60.625,448.020833 C33.2984108,448.020833 11.1458333,425.868256 11.1458333,398.541667 L11.1458333,308.125 C11.1458333,280.798411 33.2984108,258.645833 60.625,258.645833 L99.2708333,258.645833 Z" id="Combined-Shape"></path>
            <path d="M218.541667,323.020833 C211.350459,323.020833 205.520833,328.850459 205.520833,336.041667 L205.520833,370.208333 C205.520833,377.399541 211.350459,383.229167 218.541667,383.229167 L404.166667,383.229167 C411.357874,383.229167 417.1875,377.399541 417.1875,370.208333 L417.1875,336.041667 C417.1875,328.850459 411.357874,323.020833 404.166667,323.020833 L218.541667,323.020833 Z M218.541667,307.395833 L404.166667,307.395833 C419.987324,307.395833 432.8125,320.22101 432.8125,336.041667 L432.8125,370.208333 C432.8125,386.02899 419.987324,398.854167 404.166667,398.854167 L218.541667,398.854167 C202.72101,398.854167 189.895833,386.02899 189.895833,370.208333 L189.895833,336.041667 C189.895833,320.22101 202.72101,307.395833 218.541667,307.395833 Z" id="Rectangle-path"></path>
            <path d="M84.375,323.020833 C77.1837923,323.020833 71.3541667,328.850459 71.3541667,336.041667 C71.3541667,343.232874 77.1837923,349.0625 84.375,349.0625 L129.583333,349.0625 C136.774541,349.0625 142.604167,343.232874 142.604167,336.041667 C142.604167,328.850459 136.774541,323.020833 129.583333,323.020833 L84.375,323.020833 Z M84.375,307.395833 L129.583333,307.395833 C145.40399,307.395833 158.229167,320.22101 158.229167,336.041667 C158.229167,351.862324 145.40399,364.6875 129.583333,364.6875 L84.375,364.6875 C68.5543431,364.6875 55.7291667,351.862324 55.7291667,336.041667 C55.7291667,320.22101 68.5543431,307.395833 84.375,307.395833 Z" id="Rectangle-path"></path>
        </g>
    </g>
</svg>
