<svg version="1.1" xmlns="http://www.w3.org/2000/svg" xmlns:xlink="http://www.w3.org/1999/xlink" x="0px" y="0px"
     viewBox="0 0 252 66" style="enable-background:new 0 0 252 66;" xml:space="preserve">
<g>
    <g>
        <rect x="246" y="23.2" transform="matrix(0.7077 -0.7065 0.7065 0.7077 54.5324 182.9161)" width="4.7" height="4.7"/>
        <g>
            <path d="M250.3,2c-0.2-0.8-2,0.3-5.8,3.7c1.5,1.7,2.3,0.7,3.5,0.3c1,1.8,1.3,10.1-5,12.6c0.2-8.4,0.2-17.3,0.2-17.3
                c0-0.2-0.2-0.3-0.4-0.3c-1.7,0.2-4.8,3.3-7.2,5.9c1.3,2.2,3,0.2,4.3-0.3c0,0.4-0.3,6.5-0.2,12.8c-6.5,0.5-5.5-12.8-5.1-14.5
                c0.2-1.4-4.2,1.6-6.3,3.7c0.7,1.2,1.6,1,2.8,0.5c-0.4,6,3.7,11.4,8.6,11.2c0.2,6.1,0.8,12.1,2.6,12.5c0.2,0.1,0.4-6.2,0.6-13.2
                C254.8,15.9,250.3,2,250.3,2"/>
        </g>
    </g>
    <g>
        <path d="M0,1.3h18.5V5H4.8v6.2h12.4v3.7H4.8v7h13.7v3.7H0V1.3z"/>
        <path d="M21.6,7.4h5.7l4.2,5.7l4.2-5.7h5.5l-7,8.8l7.7,9.5h-5.7l-4.8-6.2l-4.8,6.2h-5.6l7.6-9.4L21.6,7.4z"/>
        <path d="M64.6,18.1c0,4.7-2.6,8-9.1,8c-1.9,0-3.7-0.4-5.1-1.1v7.9h-4.7V14.8c0-5.6,3.8-7.8,9.4-7.8c6.2,0,9.5,2.6,9.5,8.1V18.1z
             M50.3,18.6c0,2.6,1.8,4.1,4.6,4.1c3.3,0,4.9-1.5,4.9-4.7v-3c0-3.2-1.9-4.6-4.8-4.6c-2.7,0-4.7,1.3-4.7,4.6V18.6z"/>
        <path d="M87,23c-2.3,2.1-5,3-8.6,3c-6,0-10.1-3.1-10.1-9v-0.9c0-5.5,3.6-9.1,9.5-9.1c6.4,0,9.5,3.6,9.5,9.3v1.6H73.1V18
            c0,3,2.3,4.5,5.4,4.5c2.4,0,4.1-0.8,5.6-2.1L87,23z M82.7,14.9c-0.1-3-2.1-4.6-4.8-4.6c-2.6,0-4.7,1.7-4.8,4.6H82.7z M84.7,1.3
            h-5.6l-3.7,4.2h4.8L84.7,1.3z"/>
        <path d="M102.4,10.7h-3.3c-2,0-3,1-3,3v11.9h-4.7V13.9c0-3.9,2.5-6.5,6.7-6.5h4.3V10.7z"/>
        <path d="M106.6,1.3h4.6v4h-4.6V1.3z M106.6,7.4h4.6v18.3h-4.6V7.4z"/>
        <path d="M134.2,23c-2.3,2.1-5,3-8.6,3c-6,0-10.1-3.1-10.1-9v-0.9c0-5.5,3.6-9.1,9.5-9.1c6.4,0,9.5,3.6,9.5,9.3v1.6h-14.3V18
            c0,3,2.3,4.5,5.4,4.5c2.4,0,4.1-0.8,5.6-2.1L134.2,23z M129.9,14.9c-0.1-3-2.1-4.6-4.8-4.6c-2.6,0-4.7,1.7-4.8,4.6H129.9z"/>
        <path d="M157.1,14.7v11h-4.7v-11c0-2.8-1.5-4.2-4.4-4.2c-2.8,0-4.5,1.5-4.5,4v11.3h-4.7V7.4h4l0.3,1.5c1.3-0.9,3.2-1.8,5.9-1.8
            C153.7,7,157.1,9.1,157.1,14.7z"/>
        <path d="M179.9,19.4c-0.5,4.5-4.4,6.6-9,6.6c-6,0-9.6-2.4-9.6-8.2V15c0-5.3,3.6-8,9.4-8c4.8,0,8.3,1.8,8.9,6H175
            c-0.4-1.7-1.7-2.6-4.2-2.6c-2.8,0-4.6,1.4-4.6,4.5V18c0,3.6,1.8,4.6,4.8,4.6c2.3,0,3.9-1.2,4.2-3.2H179.9z"/>
        <path d="M201.6,23c-2.3,2.1-5,3-8.6,3c-6,0-10.1-3.1-10.1-9v-0.9c0-5.5,3.6-9.1,9.5-9.1c6.4,0,9.5,3.6,9.5,9.3v1.6h-14.3V18
            c0,3,2.3,4.5,5.4,4.5c2.4,0,4.1-0.8,5.6-2.1L201.6,23z M197.3,14.9c-0.1-3-2.1-4.6-4.8-4.6c-2.6,0-4.7,1.7-4.8,4.6H197.3z"/>
        <path d="M222.5,20.1c0,3.7-3.4,5.9-8.8,5.9c-2.7,0-6.1-0.7-8.5-2.8l2.9-2.6c1.4,1.3,3.3,2,5.7,2c2.6,0,4-0.7,4-2.2
            c0-1.2-0.7-1.9-2.3-2.1l-3.7-0.4c-3.3-0.4-5.9-2.1-5.9-5.4c0-3.4,3.1-5.4,8-5.4c3.1,0,5.7,0.8,7.6,2.4l-2.8,2.4
            c-1.2-0.9-2.8-1.6-4.7-1.6c-2.1,0-3.4,0.7-3.4,2c0,1.2,0.8,1.9,2.2,2.1l3.7,0.5C220.4,15.4,222.5,17,222.5,20.1z"/>
    </g>
</g>
<g>
    <path d="M117.2,52c0.1-0.1,0.2-0.2,0.3-0.2c0.2,0,0.4,0.1,0.5,0.3c0.2,0.2,0.2,0.4,0.2,0.6c0,0.2-0.1,0.5-0.2,0.7
        c-0.2,0.2-0.5,0.8-1.2,1.7c-0.6,0.9-1.4,1.9-2.2,2.9c-0.9,1-1.8,1.9-2.7,2.8c-1,0.8-3.6,3.7-5.9,4.1c-0.4,0.1-0.9-0.1-1.3-0.4
        c-0.4-0.3-0.8-0.7-1.2-1.2c-0.4-0.6-0.6-1.3-0.9-2.1c-0.2-0.8-0.3-1.9-0.3-3c0-1.8,0.2-3.8,0.7-5.8c-0.8,1.5-1.6,3.1-2.4,4.5
        c-0.8,1.5-1.7,2.8-2.5,4.1c-0.8,1.2-1.6,2.2-2.4,2.9c-0.7,0.7-1.4,1.1-2,1.1c-1.2,0-2.1-0.5-2.6-1.5c-0.6-1-0.8-2.3-0.8-4.1
        c0-1.5,0.2-3.2,0.6-5.1c0.4-1.8,0.9-3.7,1.5-5.5c0.6-1.8,1.4-3.6,2.2-5.3c0.8-1.7,1.7-3.2,2.6-4.5c0.9-1.3,1.7-2.4,2.6-3.2
        c0.9-0.8,1.7-1.2,2.4-1.2c0.7,0,1.3,0.2,1.8,0.5c0.5,0.3,1,0.8,1.3,1.3s0.7,1.1,1,1.8c0.3,0.6,0.5,1.2,0.6,1.8c0.7-1.7,1.3-3,1.8-4
        c0.5-1,0.8-1.5,1-1.5c0.4,0,0.7,0.1,1.1,0.3c0.3,0.2,0.7,0.5,0.9,0.8c0.3,0.3,0.5,0.7,0.6,1c0.2,0.4,0.2,0.7,0.2,1.1
        c0,0.4-0.1,0.7-0.3,1c-0.4,0.6-0.9,1.4-1.4,2.4c-0.5,1-1,2.2-1.5,3.5c-0.5,1.3-1,2.7-1.4,4.1c-0.4,1.5-0.8,2.9-1.1,4.3
        c-0.3,1.4-0.6,2.7-0.8,4c-0.2,1.3-0.3,2.3-0.3,3.2c0,0.8,0.1,1.4,0.2,1.8c0.2,0.4,0.4,0.7,0.8,0.7c0.6,0,4.4-3.2,5.2-4
        c0.8-0.8,1.5-1.6,2.3-2.6c0.7-0.9,1.4-1.8,1.9-2.7C116.8,52.6,117.1,52.2,117.2,52z M93.7,62.7c0.5,0,1.2-0.5,1.9-1.4
        c0.8-0.9,1.6-2.1,2.5-3.5c0.9-1.4,1.8-3,2.6-4.7c0.9-1.7,1.7-3.3,2.5-4.8c0.7-1.5,1.4-2.9,1.9-4.1s0.8-1.9,1-2.3
        c0-0.5-0.1-1.1-0.2-1.6c-0.1-0.6-0.3-1.1-0.5-1.5c-0.2-0.4-0.4-0.8-0.7-1.1c-0.3-0.3-0.5-0.5-0.8-0.5c-0.5,0-1.2,0.5-1.9,1.5
        c-0.7,1-1.5,2.2-2.3,3.8c-0.8,1.5-1.6,3.2-2.4,5.1c-0.8,1.9-1.5,3.8-2.1,5.6c-0.6,1.8-1.1,3.5-1.5,5c-0.4,1.5-0.6,2.7-0.6,3.5
        C93.3,62.3,93.4,62.7,93.7,62.7z"/>
    <path d="M106.9,32.2c0.4,0.6-0.2,0.8-0.7,0.9c-3.3-2.5-4.4-3.1-5.5-3.9c-0.4-0.3-0.3-0.8,0.1-1.1c0.6-0.4,1.3-0.6,2-0.6
        c0.1,0,0.2,0,0.3,0.1C103.9,28.1,104.5,28.7,106.9,32.2z"/>
</g>
<path d="M203.6,45.7c-0.1-0.3-0.4-0.4-0.8-0.4c-0.2,0-0.4,0.1-0.6,0.2c0-0.1,0-0.3,0.1-0.5c0-0.3,1.5-3.6,1.3-3.2
    c-0.1,0-1.2,1.5-1.2,1.6c0,0.1-6.1,12.9-6.8,14.3c-0.7,1.3-1.2,2.4-1.7,3.3c-0.5,0.8-0.6,1.1-0.7,1.1c-0.1-0.1-0.3-0.1-0.4-0.4
    c-1.1-1.4-1.1-3.4-1.2-3.7c0-0.4,0-0.8,0-1.3c0-1,0-1.9,0.1-2.7c0.1-0.8,0.2-1.7,0.4-2.7c0.2-0.9,0.4-1.9,0.7-3
    c0.3-1,0.7-2.3,1.2-3.6c0.5-1.4,0.9-2.6,1.3-3.7c0.4-1.1,0.5-1.7,0.6-1.9c0.1-0.4-0.1-0.7-0.6-1c-0.6-0.3-1.3-0.2-2.2,0.2
    c-0.8,0.4-2.1,1.3-3.9,2.7c-0.5,0.4-1,0.8-1.5,1.1c-0.5,0.3-0.8,0.6-0.9,0.6c-0.3,0.1-0.3,0.1-0.3,0.1c0-0.1,0.1-0.3,0.5-1.2
    c0.7-1.8,1.1-3.4,1.1-4.8c0-1.4-0.4-2.4-1.1-2.9c-1.2-0.8-2.3-0.5-3.5,0.7c-0.6,0.7-1,1.6-1.3,2.7c-0.3,1.1-0.3,2.2-0.2,3.5
    c0.1,1.2,0.4,2,0.7,2.5c0.3,0.5,0.8,0.9,1.6,1.1c0.4,0.2,0.8,0.2,1.1,0.3c0.3,0,0.7,0,1.1-0.2c0.4-0.1,0.8-0.2,1.1-0.4
    c0.3-0.2,0.7-0.3,1-0.6c0.3-0.2,0.7-0.5,1.1-0.8c0.4-0.3,0.9-0.7,1.5-1.2c0.6-0.5,1-0.9,1.4-1.2c0.3-0.2,0.4-0.3,0.5-0.3
    c0,0.1-0.1,0.3-0.2,0.6c-0.2,0.5-0.4,1-0.7,1.6c-5,10.3-2.6,18.8-2.2,19.5c0.6,1.2,1.2,1.9,1.9,2.2c0.4,0.2,1.1,0.4,2.3,0.2
    c0.5-0.1,0.9-0.7,1.4-1.4c0.6-0.8,1.2-1.9,1.9-3.1c0.6-1.1,5.9-12.4,6-12.9C203.7,46.3,203.7,45.9,203.6,45.7z M184,39
    c0-0.5,0.1-0.9,0.2-1.3c0.2-0.8,0.5-1.5,0.7-2c0.3-0.6,0.5-0.7,0.6-0.7c0,0,0,0,0,0c0.2,0.1,0.3,0.4,0.3,0.9c0,0.4,0,0.9-0.1,1.7
    c-0.1,0.7-0.2,1.5-0.4,2.2c-0.2,0.7-0.4,1.3-0.6,1.9c-0.2,0.5-0.3,0.6-0.4,0.7c0,0,0,0,0,0h0c-0.1,0-0.2-0.1-0.2-0.6
    c-0.1-0.4-0.1-0.8-0.2-1.3C184,40,184,39.5,184,39z"/>
<g>
    <path d="M162.5,53.5c0.1-0.1,0.5-0.9,0.7-1c0.2,0,0,0.7,0.2,0.9c0.2,0.1,0.3,0.3,0.4,0.6c0,0.2,0,0.4-0.1,0.6
        c-0.1,0.2-0.4,0.8-0.9,1.8c-0.5,1-1.1,2-1.8,3.1c-0.7,1.1-1.5,2.1-2.4,3.1c-0.9,1-1.7,1.5-2.6,1.7c-0.4,0.1-0.9,0.1-1.4-0.1
        c-0.5-0.2-1-0.4-1.5-0.9c-0.5-0.4-0.9-1-1.3-1.7c-0.4-0.7-0.7-1.6-0.9-2.7c-0.3-1.4-0.4-3-0.4-4.6c0-1.7,0.1-3.3,0.3-5
        c0.2-1.7,0.5-3.3,0.8-4.9c0.3-1.6,0.7-3,1-4.2c0.3-1.2,0.6-2.2,0.9-2.9c0.3-0.7,0.5-1.1,0.6-1.1c0.4-0.1,0.8-0.1,1.2,0
        c0.4,0.1,0.8,0.3,1.1,0.5c0.3,0.2,0.6,0.5,0.9,0.8c0.2,0.3-0.7,3.8-1,4.9c-0.3,1.1-0.6,2.2-0.9,3.5c-0.3,1.3-0.5,2.6-0.7,4
        c-0.2,1.4-0.3,2.8-0.4,4.1c-0.1,1.3-0.1,2.6-0.1,3.8c0,1.2,0.1,2.2,0.3,3c0.1,0.7,1.5,1.6,1.8,1.5c0.6-0.1,1.2-0.6,1.9-1.5
        c0.7-0.9,1.3-1.8,1.9-2.8c0.6-1,1.1-2,1.5-2.8C162.2,54.1,162.4,53.6,162.5,53.5z"/>
</g>
<path d="M152.5,49.1c-0.7,1.9-1.2,3.6-1.8,4.9c-0.5,1.3-1.1,2.1-1.6,2.5c-0.5,0.4-1.1,0.2-1.8-0.5c-0.7-0.7-1.5-2.1-2.4-4.1
    c-0.3,1.6-0.8,3.3-1.3,4.9c-0.5,1.6-2.9,7.4-5.5,8.7c-1.3,0.6-2.5-0.4-3.4-1.4c-0.9-1-1.6-2.4-2.1-4.1c-0.5-1.7-0.9-3.5-1.1-5.6
    c-0.2-2.1-0.3-4.1-0.3-6.2c0-1.8,0-3.9,0.1-6.2c0.1-2.3,0.2-4,0.3-5.1c0.1-1.4,0.5-2.3,1-2.9c0.5-0.5,1-0.8,1.6-0.7
    c0.6,0.1,0.7,0.1,1.2,0.5c0.6,0.5-0.5,4.5-0.7,6.7c-0.2,2.2-0.4,6.6-0.3,8.8c0.2,6.5,1.4,9.1,2,10.4c0.8,1.6,1.6,1.9,1.6,1.9
    c0.4,0.1,2.5-3.1,3.2-4.7c0.7-1.6,1.3-2.7,1.8-4.4c0.5-1.7,0.8-2.8,0.9-3.3c-0.3-0.7-0.6-1.5-0.9-2.3c-0.3-0.8-0.6-1.7-0.7-2.6
    c-0.3-1.7-0.3-3.1,0-4.2c0.3-1,0.7-1.7,1.2-2.1c0.5-0.4,1.1-0.5,1.6-0.3c0.5,0.2,0.9,0.6,1.1,1.4c0.4,1.4,0.4,3.1,0.2,5
    c-0.3,1.9-0.5,3.5-0.7,4.7c0.7,1.9,1.3,3.3,1.8,4.2c0.5,0.8,0.9,1.2,1.3,1.1c0.4-0.1,0.8-0.6,1.1-1.4c0.4-0.9,1.3-3.5,1.9-4.9
    c0.2-0.7,0.1,0.6,0.6,0.8C152.7,48.7,152.8,48.6,152.5,49.1z M144.5,45.3c0.1-0.7,0.2-1.6,0.3-2.7c0.1-1.1,0.1-2,0-2.7
    c-0.3,0.2-0.5,0.5-0.7,0.9c-0.1,0.5-0.2,1-0.1,1.5c0,0.5,0.1,1,0.2,1.6C144.3,44.5,144.4,44.9,144.5,45.3z"/>
<path d="M183.7,49.1c-0.7,1.9-1.2,3.6-1.8,4.9c-0.5,1.3-1.1,2.1-1.6,2.5c-0.5,0.4-1.1,0.2-1.8-0.5c-0.7-0.7-1.5-2.1-2.4-4.1
    c-0.3,1.6-0.8,3.3-1.3,4.9c-0.5,1.6-2.9,7.4-5.5,8.7c-1.3,0.6-2.5-0.4-3.4-1.4c-0.9-1-1.6-2.4-2.1-4.1c-0.5-1.7-0.9-3.5-1.1-5.6
    c-0.2-2.1-0.3-4.1-0.3-6.2c0-1.8,0-3.9,0.1-6.2c0.1-2.3,0.2-4,0.3-5.1c0.1-1.4,0.5-2.3,1-2.9c0.5-0.5,1-0.8,1.6-0.7
    c0.6,0.1,0.7,0.1,1.2,0.5c0.6,0.5-0.5,4.5-0.7,6.7c-0.2,2.2-0.4,6.6-0.3,8.8c0.2,6.5,1.4,9.1,2,10.4c0.8,1.6,1.6,1.9,1.6,1.9
    c0.4,0.1,2.5-3.1,3.2-4.7c0.7-1.6,1.3-2.7,1.8-4.4c0.5-1.7,0.8-2.8,0.9-3.3c-0.3-0.7-0.6-1.5-0.9-2.3c-0.3-0.8-0.6-1.7-0.7-2.6
    c-0.3-1.7-0.3-3.1,0-4.2c0.3-1,0.7-1.7,1.2-2.1c0.5-0.4,1.1-0.5,1.6-0.3c0.5,0.2,0.9,0.6,1.1,1.4c0.4,1.4,0.4,3.1,0.2,5
    c-0.3,1.9-0.5,3.5-0.7,4.7c0.7,1.9,1.3,3.3,1.8,4.2c0.5,0.8,0.9,1.2,1.3,1.1c0.4-0.1,0.8-0.6,1.1-1.4c0.4-0.9,1.3-3.5,1.9-4.9
    c0.2-0.7,0.1,0.6,0.6,0.8C183.9,48.7,184,48.6,183.7,49.1z M175.7,45.3c0.1-0.7,0.2-1.6,0.3-2.7c0.1-1.1,0.1-2,0-2.7
    c-0.3,0.2-0.5,0.5-0.7,0.9c-0.1,0.5-0.2,1-0.1,1.5c0,0.5,0.1,1,0.2,1.6C175.5,44.5,175.6,44.9,175.7,45.3z"/>
<path d="M182.3,49.1c0,0,3-7.5,3.4-11l2.1,0.5c0,0-5.2,13.4-5.6,14.2s-0.5-0.2-0.5-0.2L182.3,49.1z"/>
<path d="M154.6,33.5c0,0.3,0.2,0.5,0.4,0.6c0.7,0.2,2.2,0.6,3-0.3c1-1.1,2.1-2.5,1.1-3.3c-1.1-0.8-3-1.7-3.5-0.4
    C155.3,31.3,154.5,32.3,154.6,33.5z"/>
<path d="M162.4,53.8c0,0,0.3-0.4,0.2-1.6l1.2,1.2l-0.1,0.5c0,0-0.7,0.4-0.7,0.3C162.8,54.1,162.4,53.8,162.4,53.8z"/>
<path d="M222.9,49c-0.1-0.2-0.2-0.3-0.3-0.3c-0.1,0-0.2,0-0.3,0.1c-0.1,0.1-0.2,0.2-0.6,0.8c0,0-5.7,7.6-13.6,11.5
    c-1.1,0.6-2.6,0.7-3.4,0.7c-0.9,0-1.5-0.5-1.8-1.4c-0.3-0.9-0.4-2-0.4-3.3c0-1,0.1-2.2,0.4-3.6c0.8,0,1.8-0.4,2.9-1.1
    c1.1-0.8,2.1-1.8,3.1-3c1-1.3,1.8-2.7,2.5-4.2c0.7-1.6,1.1-3.1,1.1-4.7c0-0.4,0-1.1-0.1-1.8c-0.1-0.8-0.3-1.5-0.5-2.3
    c-0.3-0.8-0.6-1.4-1.1-2c-0.5-0.6-1-0.8-1.8-0.9c-0.6,0-1.2,0.3-1.9,1c-0.7,0.7-1.4,1.6-2.1,2.8c-0.7,1.2-1.4,2.5-2.1,4
    c-0.7,1.5-1.3,3.2-1.8,4.8c-0.5,1.7-0.9,3.4-1.3,5.1c-0.3,1.7-0.5,3.4-0.5,4.9c0,0.9,0,1.8,0.2,2.6c0.1,0.9,0.4,1.7,0.7,2.4
    c0.3,0.7,0.7,1.3,1.2,1.8c0.5,0.5,1,0.8,1.7,0.9c3.7,0.8,6.6-0.5,12.5-5.4c2.6-2.2,6.9-8.2,7-8.4c0.1-0.2,0.2-0.3,0.2-0.6
    C223,49.4,223,49.2,222.9,49z M204.8,46.6c0.6-1.7,1.2-3.3,1.8-4.7c0.6-1.4,1.3-2.6,1.9-3.5c0.6-0.9,1.2-1.4,1.7-1.4
    c0.2,0,0.5,0.2,0.7,0.5c0.3,0.4,0.4,1,0.4,1.8c0,1.1-0.3,2.3-0.9,3.8c-0.6,1.4-1.3,2.8-2.2,4c-0.8,1.3-1.7,2.3-2.6,3.2
    c-0.9,0.9-1.7,1.3-2.3,1.3C203.7,49.9,204.2,48.3,204.8,46.6z"/>
</svg>
