<svg version="1.1" xmlns="http://www.w3.org/2000/svg" xmlns:xlink="http://www.w3.org/1999/xlink" x="0px" y="0px"
    viewBox="0 0 500 230" style="enable-background:new 0 0 500 230;" xml:space="preserve">
<g>
    <path d="M2,148.8h37v7.5H11.6v12.4h24.9v7.5H11.6v14H39v7.5H2V148.8z"/>
    <path d="M41.8,161h11.4l8.4,11.4l8.5-11.4h11l-14,17.6l15.4,19H70.9l-9.6-12.5l-9.6,12.5H40.6l15.3-18.8L41.8,161z"/>
    <path d="M124.3,182.4c0,9.4-5.3,15.9-18.3,15.9c-3.7,0-7.4-0.8-10.2-2.3v15.8h-9.4v-36c0-11.2,7.6-15.6,18.8-15.6
        c12.4,0,19.1,5.2,19.1,16.2V182.4z M95.8,183.4c0,5.2,3.6,8.2,9.2,8.2c6.6,0,9.8-2.9,9.8-9.4v-6c0-6.4-3.8-9.2-9.6-9.2
        c-5.3,0-9.5,2.7-9.5,9.2V183.4z"/>
    <path d="M165.7,192.4c-4.5,4.1-10,6-17.2,6c-11.9,0-20.2-6.2-20.2-18v-1.7c0-11.1,7.2-18.3,19.1-18.3c12.7,0,19.1,7.1,19.1,18.6
        v3.2h-28.7v0.3c0,6,4.7,9.1,10.8,9.1c4.8,0,8.2-1.5,11.1-4.1L165.7,192.4z M157,176c-0.2-6-4.1-9.2-9.6-9.2c-5.2,0-9.4,3.5-9.6,9.2
        H157z"/>
    <path d="M193.1,167.7h-6.6c-4.1,0-6,2-6,6v23.9H171v-23.6c0-7.8,4.9-13,13.4-13h8.7V167.7z"/>
    <path d="M197.8,148.8h9.3v7.9h-9.3V148.8z M197.8,161h9.3v36.6h-9.3V161z"/>
    <path d="M249.7,192.4c-4.5,4.1-10,6-17.2,6c-11.9,0-20.2-6.2-20.2-18v-1.7c0-11.1,7.2-18.3,19.1-18.3c12.7,0,19.1,7.1,19.1,18.6
        v3.2h-28.7v0.3c0,6,4.7,9.1,10.8,9.1c4.8,0,8.2-1.5,11.1-4.1L249.7,192.4z M241,176c-0.2-6-4.1-9.2-9.6-9.2c-5.2,0-9.4,3.5-9.6,9.2
        H241z"/>
    <path d="M292,175.7v22h-9.5v-22.1c0-5.5-3.1-8.4-8.8-8.4c-5.7,0-9,3-9,7.9v22.6h-9.4V161h7.9l0.5,2.9c2.6-1.8,6.4-3.6,11.9-3.6
        C285.2,160.3,292,164.4,292,175.7z"/>
    <path d="M334.1,185.1c-1.1,9-8.7,13.2-18,13.2c-12,0-19.2-4.9-19.2-16.5v-5.5c0-10.7,7.1-16.1,18.9-16.1c9.5,0,16.7,3.6,17.8,11.9
        h-9.5c-0.8-3.4-3.5-5.2-8.4-5.2c-5.5,0-9.3,2.8-9.3,9v6.3c0,7.2,3.6,9.3,9.5,9.3c4.6,0,7.8-2.3,8.5-6.5H334.1z"/>
    <path d="M374.1,192.4c-4.5,4.1-10,6-17.2,6c-11.9,0-20.2-6.2-20.2-18v-1.7c0-11.1,7.2-18.3,19.1-18.3c12.7,0,19.1,7.1,19.1,18.6
        v3.2h-28.7v0.3c0,6,4.7,9.1,10.8,9.1c4.8,0,8.1-1.5,11.1-4.1L374.1,192.4z M365.4,176c-0.2-6-4.1-9.2-9.6-9.2
        c-5.2,0-9.4,3.5-9.6,9.2H365.4z"/>
    <path d="M412.4,186.6c0,7.5-6.9,11.8-17.6,11.8c-5.5,0-12.3-1.4-17.1-5.6l5.8-5.2c2.8,2.5,6.7,4,11.4,4c5.2,0,8-1.4,8-4.4
        c0-2.4-1.3-3.8-4.6-4.1l-7.3-0.9c-6.6-0.8-11.8-4.1-11.8-10.8c0-6.8,6.3-10.9,16.1-10.9c6.3,0,11.4,1.7,15.2,4.9l-5.6,4.9
        c-2.5-1.8-5.7-3.1-9.4-3.1c-4.2,0-6.8,1.5-6.8,4c0,2.3,1.5,3.9,4.4,4.2l7.5,1C408.2,177.2,412.4,180.4,412.4,186.6z"/>
</g>
<path d="M249.8,36.1l8-1.6c1.1-0.2,6.9-0.7,8.9-0.8c2-0.1,9.5-1.4,10.8-1.5c1.3-0.1,2-0.2,2.2-0.3c0.2-0.1,0.2-0.3,0-0.5
    c-0.2-0.2-0.6-0.5-1-0.7c-0.6-0.5-1.6-0.8-2.9-0.8c-1.4,0-6-0.1-9.3-0.1c-3.6,0.2-14.1,0.1-15.1,0 M216.2,111.5
    c-0.9,4.8-2.7,9-5.2,12.6c-2.5,3.6-5.5,6.2-8.8,7.7c-1.4,0.6-2.3,0.9-2.7,0.9c-0.4,0-0.9-0.3-1.6-0.8c-2.2-1.6-3.1-5.2-2.8-10.8
    c0.3-4.4,1.6-8.7,3.8-12.8c2.2-4.1,5.1-7.8,8.8-11.1c1.6-1.4,2.7-2.3,3.2-2.6c0.5-0.3,1.1-0.2,1.8,0.2c0.5,0.2,0.9,0.6,1.5,1.3
    c0.5,0.7,0.9,1.3,1.1,1.9C217,101.4,217.3,105.9,216.2,111.5 M181.8,71.2c-2.6,3.8-3.5,7.2-2.4,10.1c0.9,2.8,2.9,5.1,6,6.8
    c3.1,1.7,8.1,3.2,15,4.5l2.1,0.3l-4.3,4.1c-2.3,2.2-4.3,4.7-6,7.5c-1.7,2.8-3.1,5.6-4.1,8.5c-1,2.9-1.6,5.6-1.8,8.3s0.1,5.1,0.9,7.2
    c1,2.8,2.7,4.9,5,6.4c2.3,1.5,5.1,2.2,8.3,2.2c5.6,0,10.7-2.1,15.2-6.2c4.5-4.1,7.7-9.5,9.5-16.2c0.6-2.3,0.9-4.9,0.9-7.9
    c0.1-3-0.2-5.3-0.8-7.1c-0.2-0.7-0.7-1.5-1.4-2.4c-0.7-0.9-1.5-1.8-2.4-2.6c-0.9-0.9-1.8-1.6-2.7-2.2c-0.9-0.6-1.6-0.9-2.2-0.9
    c-0.6,0-0.8,0-0.8-0.2c0.1-0.1,0.5-0.4,1.3-0.9c1.3-0.7,3.2-1.6,5.7-2.7c2.5-1.1,5.1-2.1,7.8-3.1c2.6-1,5.1-1.8,7.3-2.5
    c2.2-0.7,3.8-1.1,4.8-1.1c0.9,0,1.5-0.3,1.8-0.8c0.3-0.6,0-1.1-0.8-1.6c-2.1-1.1-5.7-1.1-10.9,0.2c-1.4,0.3-3.1,0.8-5.1,1.6
    c-2,0.8-4.1,1.5-6.1,2.3c-2.1,0.8-4.1,1.6-6,2.4c-1.9,0.8-3.4,1.5-4.4,2.1c-0.8,0.5-1.5,0.9-2,1.1c-0.5,0.2-1,0.4-1.6,0.5
    c-0.5,0.1-1.2,0.1-2,0c-0.8-0.1-1.9-0.3-3.3-0.5c-6-0.8-10-1.8-12-2.9c-2-1.1-3-2.9-3-5.4c0-2,0.6-4,1.7-6c1.2-2,2.7-3.6,4.7-4.7
    c1.3-0.9,2.2-1.4,2.9-1.6c0.7-0.2,1.8-0.1,3.5,0.1c1.6,0.2,2.6,0.3,3,0.2c0.4-0.1,0.6-0.5,0.6-1.1c0-1.4-1.2-2.4-3.5-3.1
    c-2.3-0.7-5-0.7-7.9-0.1C187.8,65,184.2,67.4,181.8,71.2"/>
<path d="M260.6,131.3c-1.5,1.7-2.6,2.4-3.3,2c-0.3-0.2-0.8-0.8-1.5-1.7c-0.6-0.9-1.2-2-1.8-3.2c-0.6-1.2-1.1-2.5-1.6-3.8
    s-0.9-2.6-1.3-3.8c-0.7-2.4-1.2-4.8-1.6-7.2c-0.4-2.4-0.7-5.1-0.9-8.1c-0.2-3-0.4-6.5-0.4-10.4c-0.1-3.9,0.2-28.8,1.2-37.9
    c1.8-16.6,10.6-45.5,13.2-53.9c1.7-5.7-5.8-0.2-8.9,4.7c-1.5,2.4-8.1,23.4-8.1,23.4l-8.3,1.7c-9.9,2.1-14.9,3.7-14.9,4.8
    c0,1.1,1,1.7,3.1,1.7c2.1,0,5.4-0.5,10-1.7c2-0.5,3.7-0.9,5.1-1.1c1.4-0.3,2.2-0.3,2.3-0.2c0.2,0.1,0.2,0.9-0.2,2.3
    c-0.3,1.4-0.8,3.1-1.4,5.1c-0.7,2.8-1.3,3.6-1.9,6.3c-0.6,2.7-2,10.4-2.2,13.7c-0.2,3.4-0.4,7-0.5,11.1c-0.2,6.8-0.2,12.9,0.1,18.1
    c0.3,5.3,0.8,10,1.5,14.1c0.7,4.1,1.6,7.7,2.7,10.9c1.1,3.2,2.3,6,3.7,8.5c3.1,5.5,6.6,9,10.4,10.5c3.9,1.5,13.6-4.3,13.1-10.6
    C265.8,123.2,262.1,129.6,260.6,131.3"/>
<path d="M183.4,94.1c-0.9,1.5-2.1,3.7-3.6,6.4c-0.9,1.6-1.9,3.4-2.9,5.2c-1,1.9-1.9,3.7-2.9,5.6s-1.8,3.6-2.6,5.3
    c-0.8,1.7-1.4,3.1-1.9,4.2c-1.1,2.5-4.5,7.1-4.7,7.1c-0.8,0-1.5-1.8-2.8-9c-0.7-4.3-1-9.3-0.7-15c0.3-5.7,1.1-12.8,2.4-21.1
    c0.9-5.7,1.5-9.8,1.8-12.1c0.3-2.4,0.1-3.8-0.4-4.3c-0.2-0.5-0.5-1.1-1-1.8c-0.5-0.7-1.1-1.1-1.8-1.3c-0.7-0.1-1.6,0.1-2.6,0.8
    c-1,0.7-2.2,2.1-3.6,4.4c-0.3,0.5-0.6,1-0.9,1.4c-0.3,0.5-0.7,1-1.1,1.4c-2.5,4-5.3,8.2-8.5,12.6c-3.2,4.4-6.3,8.7-9.4,12.7
    c-3.1,4.1-6,7.6-8.7,10.8c-2.7,3.1-4.8,5.4-6.4,6.7c-2,1.6-3.2,2.5-3.6,2.7c-0.4,0.2-0.8-0.1-1.1-0.9c-0.2-0.6-0.4-1.6-0.5-3.1
    c-0.1-1.5-0.1-3.2-0.1-5.1c0.1-1.9,0.2-3.9,0.4-5.9c0.2-2,0.5-3.8,0.8-5.3c0.7-3.6,1.7-7.6,2.9-11.9c1.2-4.3,2.5-8.6,4-13
    c1.2-4.3,1.7-7.3,1.3-9.1c-0.4-1.8-1.1-2.6-2.3-2.5c-1.1,0.1-2.4,1.1-3.9,3c-1.5,1.9-2.6,4.3-3.4,7.4c-0.8,1.9-1.7,4.1-2.5,6.4
    c-0.8,2.4-1.6,4.9-2.3,7.4c-0.7,2.6-1.4,5.1-2,7.7c-0.6,2.6-1.1,5-1.4,7.3c-0.3,1.8-0.5,3.6-0.6,5.5c-0.1,1.9-0.1,3.6,0,5.2
    c0.1,1.6,0.3,3.1,0.5,4.4c0.3,1.3,0.6,2.3,1,3c2,3,4.8,4.7,8.4,4.9c3.6,0.2,7.2-1.1,10.7-3.9c2.8-2.3,6-5.6,9.5-10
    c3.5-4.4,7.6-10.1,12.3-17.3l4.5-6.9l-0.5,3.1c-0.5,3.9-0.9,7.4-1.2,10.6c-0.3,3.1-0.4,6.1-0.4,8.7c0,2.7,0.1,5.2,0.4,7.6
    c0.3,2.4,0.6,4.7,1.2,7c1.3,6,2.9,8.5,5.4,11.1c2.5,2.6,5.4,3.3,8.9,2.3c0.7-0.2,1.4-0.5,2.1-1.1c0.7-0.5,1.3-1.3,2-2.4
    c0.7-1.1,4.4-6.1,5.4-8.5c0.5-1.1,1.1-2.5,1.9-4.1c0.7-1.6,1.5-3.3,2.3-5.1c0.8-1.8,1.6-3.6,2.4-5.4c0.8-1.8,1.6-3.5,2.3-5.1
    c1.5-3.1,2.7-6,3.7-8.4c1-2.5,3.3-6.5,3.3-6.7c0-1-0.2-1.6-0.7-1.9c-0.5-0.3-1-0.4-1.7-0.2c-0.7,0.1-1.3,0.4-1.9,0.9
    c-0.6,0.4-1.1,0.8-1.4,1.2C186.7,88.7,184.3,92.6,183.4,94.1 M108.5,101.5c0.9-2.2,1.7-4.4,2.6-6.6c0.8-2.1,1.6-4.1,2.3-5.8
    c1.3-3.5,2.5-6.5,3.4-9c0.9-2.5,1.3-3.8,1.2-4c-0.3-1.6-0.8-2.6-1.4-3c-0.5-0.4,2.6-9.2,1.6-8.4c-1,0.9-6.1,12-7.5,15.4
    c-0.8,1.7-1.8,3.8-2.8,6.1c-1,2.4-2.2,5-3.3,7.8"/>
<path d="M415.1,84.8c-1.8,2.8-1.7,6.1-4.2,10c-2.5,3.9-5.1,8.1-7.9,12.5s-5.4,8.4-7.8,12c-2.4,3.7-4.4,6.6-6.1,8.9
    c-1.7,2.3-2.6,3.3-2.7,3.1c-0.2-0.2-0.6-0.6-1.2-1.3c-0.6-0.6-1-1.6-1.3-2.9c-0.2-1.1-0.4-2.1-0.6-3c-0.2-0.8-0.3-1.7-0.3-2.5
    s0-1.8,0.1-2.8c0.1-1,0.2-2.3,0.4-3.9c0.3-2.8,0.8-5.4,1.3-7.8c0.5-2.4,1.2-4.9,2-7.6c0.8-2.6,8.7-25.7,10.1-28.6
    c1.4-3,2.2-4.7,2.3-5.1c0.3-1-0.1-2-1.2-2.9c-1.6-1-3.6-1-6.2-0.1c-2.5,1-6.5,3.2-12,6.7c-1.7,1-3.3,1.9-4.7,2.8
    c-1.5,0.8-2.4,1.4-2.9,1.6c-0.9,0.2-1.3,0.2-1.3-0.1c0.1-0.3,0.6-1.4,1.8-3.3c2.7-4.9,4.3-9.5,4.8-13.6c0.5-4.1-0.2-7-2.1-8.7
    c-3-2.5-6.3-2.2-9.9,0.8c-1.9,1.9-3.4,4.4-4.5,7.3c-1.1,3-1.7,6.3-1.7,9.9c0,3.4,0.4,5.8,1.1,7.2c0.7,1.5,2.1,2.7,4,3.7
    c1.1,0.6,2.1,0.9,3,1.1c0.8,0.2,1.9,0.1,3.3-0.1c1.1-0.1,2.2-0.3,3.2-0.7c1-0.3,2-0.8,3.1-1.3c1.1-0.5,2.2-1.1,3.5-1.9
    c1.3-0.8,2.9-1.8,4.8-3c1.8-1.2,3.3-2.2,4.5-3c1.2-0.8,1.9-1.1,1.9-0.8c0,0.1-0.3,0.8-1,2c-0.7,1.2-1.5,2.7-2.5,4.4
    c-5.2,8.7-6.1,16.5-8.5,23.4c-2.4,7-3.5,14-3.5,21.1c0,3,0.1,5.3,0.3,6.7c0.2,1.4,0.7,2.8,1.3,4.1c1.3,3.3,2.9,5.5,4.7,6.7
    c1.8,1.2,3.9,1.6,6.4,1.2c1-0.2,2.5-1.4,4.5-3.6c2-2.2,4.1-5,6.4-8.3c2.3-3.4,4.7-7,7.2-11c2.5-4,4.8-7.9,7-11.6 M364.9,69.8
    c-0.1-1.1-0.1-2.3,0-3.7c0.1-1.4,0.2-2.8,0.5-4.3c0.3-1.5,0.6-2.7,0.9-3.7c0.9-2.2,1.9-4.1,2.9-5.6c1-1.5,1.8-2.1,2.4-1.9
    c0.4,0.5,0.7,1.4,0.7,2.9c0,1.1-0.3,2.8-0.8,4.9c-0.6,2.1-1.2,4.2-2,6.2c-0.8,2-1.5,3.8-2.3,5.2c-0.7,1.5-1.3,2.1-1.6,1.9
    C365.1,71.5,364.9,70.9,364.9,69.8 M364.4,75.1c-0.6,0.9-1.4,5.3-2.4,8.1c-1.1,2.8-2,6.6-3.6,10.9c-0.8,2.2-3.6,9.6-4.1,10.9
    c-1.8,4.3-3.3,7.8-4.6,10.5c-1.3,2.8-2.1,4.1-2.3,4.1c-0.4,0-1-0.8-1.6-2.4c-0.6-1.6-1.2-3.6-1.8-6.1c-0.7-2.9-1-8.5-1-16.6
    c0-8.1,0.4-18.6,1.2-31.4c0.2-3.9,0.4-13.7,0.5-16.5c0.1-2.8,0.1-17.2,0.1-19c-0.1-1.9-0.1-7.6-0.3-8.7c-0.1-1.1-0.3-4-0.7-4.6
    c-1.1-1.9-2.1-2.9-3-3.1c-0.8-0.2-1.5,0.1-2,0.9c-0.5,0.8-0.9,1.8-1.3,3c-0.3,1.2-0.6,4.4-0.7,5.3c-0.3,2.4-0.6,21.6-0.9,25.2
    c-0.3,3.6-0.6,13.8-0.8,17.9c-0.3,4-0.5,8-0.7,12c-0.2,3.9-0.3,7.4-0.3,10.3c0,2.2,0.1,4.6,0.3,7.2c0.2,2.5,0.4,5,0.7,7.4
    c0.3,2.4,0.6,4.7,1,6.8c0.4,2.1,0.8,3.9,1.3,5.2c1,3.5,2.5,6.2,4.5,8.1c2,1.9,4.2,2.8,6.6,2.7c1.1,0,2.1-0.2,2.9-0.5
    c0.8-0.3,1.6-1.1,2.4-2.3c0.8-1.2,1.8-3,2.8-5.3c1-2.4,2.4-5.5,4-9.4c1.1-2.7,2.8-7.1,4.3-11.3c1.5-4.2,4.6-14.9,5.4-16.6
    c0.8-1.7-0.4,0.6-0.4,0.5c-0.1-0.1-0.3-0.4-0.5-0.8c-0.2-0.4-0.5-0.7-0.9-0.8c-0.4-0.2-0.9-0.2-1.4-0.1
    C366.6,76.8,364.7,74.7,364.4,75.1"/>
<path d="M354.7,35.5c2.8-0.1,6.2-0.2,10.1-0.3c4.3-0.1,7.7-0.2,10.4-0.3c2.6-0.1,4.7-0.3,6.2-0.4c1.5-0.2,2.5-0.4,3-0.6
    c0.5-0.2,0.8-0.5,0.8-0.8c0-0.7-0.5-1.1-1.3-1.3c-0.2-0.1-1.9-0.2-5-0.3c-3.1-0.1-6.9-0.2-11.5-0.3c-4.5-0.1-9.4-0.1-14.6-0.3
    c-5.2-0.1-10-0.2-14.5-0.2c-4.5,0-8.2,0-11.2-0.1c-3-0.1-6.3,0.5-8.2,0.8c-2.6,0.2-5.1,0.7-7.4,1.3c-2.4,0.7-3.9,1.3-4.5,1.9
    c-0.8,0.6-1.2,0.9-1.2,1c0,0.1,0.4,0.5,1.2,1c0.8,0.6,1.9,0.8,3.2,0.8c0.6-0.2,1.3-0.4,2.1-0.4c0.8-0.1,1.6-0.2,2.3-0.4
    c0.7-0.1,2.5-0.3,5.4-0.4c2.9-0.2,6.1-0.3,9.4-0.4l16.7-0.1C346.1,35.6,351.9,35.6,354.7,35.5"/>
<path d="M299.4,89.4c2-0.1,3.7-0.2,5-0.3c1.3-0.1,2.3-0.3,3-0.4c0.7-0.2,1.2-0.4,1.5-0.6c0.2-0.2,0.4-0.5,0.4-0.8
    c0-0.7-0.2-1.1-0.6-1.3c-0.1-0.1-0.9-0.2-2.4-0.3c-1.5-0.1-10-0.4-12.5-0.5c-2.5-0.1-4.8-0.2-7-0.2c-2.2,0-5.2-0.4-7.5,0
    c-2.4,0.4-4.2,1.3-5.3,2c-1.1,0.7-1.9,1.3-2.2,1.9c-0.4,0.6-0.6,0.9-0.6,1c0,0.1,0.2,0.5,0.6,1c0.4,0.6,0.9,0.8,1.5,0.8
    c0.3-0.2,0.6-0.4,1-0.4c0.4-0.1,0.8-0.2,1.1-0.4c0.3-0.1,1.2-0.3,2.6-0.4c1.4-0.2,2.9-0.3,9.6-0.3C298.1,89.5,297.5,89.5,299.4,89.4
    "/>
<rect x="458.8" y="192.3" transform="matrix(0.7077 -0.7065 0.7065 0.7077 -3.6989 385.0918)" width="9.4" height="9.4"/>
<g>
    <path d="M467.5,149.3c-0.5-1.6-4,0.7-11.6,7.5c3,3.3,4.6,1.4,7,0.5c1.9,3.7,2.7,20.5-10,25.5c0.3-16.9,0.5-35,0.5-35
        c0-0.5-0.4-0.6-0.8-0.6c-3.5,0.5-9.7,6.7-14.5,11.9c2.6,4.4,6,0.4,8.6-0.6c0,0.7-0.6,13.2-0.3,25.8c-13.2,1-11-25.8-10.3-29.2
        c0.3-2.7-8.5,3.3-12.8,7.4c1.4,2.5,3.3,2,5.7,1.1c-0.9,12,7.6,23,17.5,22.7c0.4,12.4,1.6,24.4,5.2,25.3c0.5,0.1,0.9-12.6,1.2-26.7
        C476.5,177.6,467.5,149.3,467.5,149.3"/>
    <path d="M480.1,116.2c-6-10.3-14.6-29-14.6-29c-2.7-5-4.1-7.8-6.1-11.8c-2-4-3.7-8-5.2-12.2c-2.2-5.9-3.6-8.9-4.1-8.9l-1-0.7
        c-0.7-0.3-1.5-0.4-2.3-0.2c-1,0.4-1.7,1.1-1.9,2.1c-0.1,0.5-0.2,1.1-0.3,1.6c-0.3,1.1-0.4,2.8-0.3,5c0.2,3.7,0,8.3-0.6,13.8
        c-0.6,5.5-1.3,11.2-2.3,17c-0.9,5.8-2,11.4-3.3,16.7c-1.3,5.3-2.6,9.6-3.9,12.8l-2.3,6.3l-2.2-2.6c-0.7-0.9-1.6-2.4-2.6-4.6
        c-1-2.1-2-4.5-3-7.1c-1-2.6-1.9-5.2-2.6-7.9c-0.8-2.7-2.8-15.9-3-20.7c-0.2-4.8-0.2-9.7,0.1-14.5c0.1-2.2,0.1-4.1,0.1-5.8
        c0-1.7-0.1-2.5-0.4-2.7c-0.3-0.2-0.9-0.2-1.6,0.2c-0.7,0.4-1.5,0.9-2.3,1.6c-0.9,1-1.6,2.7-2.1,5.1c-0.5,2.4-0.9,6.2-1.2,11.2
        c-0.4,7.5-0.2,14.3,0.8,20.5c1,6.2,2.8,12.4,5.4,18.7c2.5,5.9,4.8,9.9,6.9,11.8c2.2,2,4.8,2.5,7.9,1.5c1.5-0.4,2.7-0.9,3.3-1.4
        c0.7-0.5,1.5-1.4,2.5-2.7c2.4-3.2,4.6-8.5,6.6-15.8c2-7.3,3.4-15.7,4.5-25.3l1.2-10.3l2.1,3.7c0.8,1.6,1.8,3.4,2.9,5.3
        c1.2,1.9,6.9,12.9,7.9,14.7"/>
    <path d="M482.9,144.1c2.4,7.2,5.3,14.9,6.7,22.3c1.3,7.4,3.2,20.3,1.3,27.5c-2.5,9.7-5.4,15.6-10.6,20.1
        c-4.4,3.8-10.4,8.1-18.8,10.4c-6.1,1.7-18.8,1.2-24.8-1.3c-5.9-2.5-4.7,0.6-1.9,2c4,2,16.3,5.2,27,3.5c9.7-1.5,17.4-4.6,24.8-12.3
        c5.3-5.6,10.3-11.6,11.8-24c2.7-22-5.8-47.6-14-67.3c-2.5-6.2-15.4-30.2-19.4-37.3c-1.2-1-3.6-0.3-5.8,0.1
        c-2.2,0.3-8.7-11.7-9.2-10.4C454.2,85.5,478,129.6,482.9,144.1"/>
    <path d="M105.4,91.8c-2.9,4.3-6.1,8.6-9.4,13c-3.4,4.4-6.5,8.2-9.6,11.3c-3,3.1-5.2,4.6-6.5,4.3c-0.9-0.2-1.5-1-1.8-2.4
        c-0.3-1.4-0.5-3-0.6-4.7c-0.1-1.7-0.1-3.5,0.2-5.2c0.2-1.7,0.3-3,0.3-3.6c0.6-4.4,1.5-8.7,2.4-13c1-4.3,1.8-8.6,2.4-13
        c0.4-2.5,1-5.5,1.6-8.9c0.6-3.4,0.3-6.1-1-8.2c-1.7-2.8-3.8-3.4-6.3-1.7c-2.5,1.6-5.1,4.4-8,8.3c-2.8,3.9-5.6,8.6-8.4,13.9
        c-2.8,5.3-5.3,10.5-7.5,15.6c0-3,0.2-6.2,0.6-9.7c0.4-3.5,0.9-6.8,1.5-10.1c0.5-3.2,0.9-6.4,1.1-9.4c0.2-3,0-5.6-0.6-7.6
        c-0.6-2.5-1.6-4.5-2.8-5.7c-1.2-1.3-3-1.6-5.4-0.9c-3,0.9-6.1,3.8-9.1,8.7c-3,4.9-6.2,10.2-9.4,16c0.6-4.6,1.1-8.5,1.5-11.6
        c0.3-3.1,0.6-6.1,0.8-8.9c0.2-2.3,0.1-4.9-0.3-7.6c-0.4-2.8-1.5-4.6-3.2-5.6c-1.7-0.9-3.4-0.9-4.9,0c-1.5,0.9-2.9,2.3-4.1,4
        c-1.2,1.7-2.2,3.6-3.1,5.6c-0.9,2-1.5,3.4-1.9,4.3C12,63,10.1,66.8,8.1,70.7C6.2,74.5,4,78.4,1.6,82.3c-0.6,0.9-0.8,1.8-0.5,2.6
        c0.3,0.8,0.8,1.4,1.5,1.7c0.6,0.3,1.5,0.5,2.4,0.5c1,0,1.8-0.5,2.4-1.4c2.4-3.9,4.6-8,6.7-12.2c2.1-4.2,4.2-8.4,6.3-12.8
        c1.9-4.4,3.1-6.7,3.4-6.8c0.3-0.1,0.5,1.4,0.5,4.7c0,10.4-1,20.9-2.9,31.4c-1.9,10.5-4,21-6.2,31.4c-0.2,1.2-0.1,2.1,0.5,2.8
        c0.5,0.7,1.2,1.2,1.9,1.4c0.8,0.2,1.6,0.2,2.4-0.2c0.9-0.3,1.4-1.1,1.6-2.3c0.4-3.2,1.5-7.9,3.2-14.1c1.7-6.1,3.8-12.4,6.2-18.7
        c2.4-6.4,4.9-12.1,7.6-17.2c2.7-5.1,5.4-8.3,8-9.7c1.1-0.5,1.8-0.3,2.3,0.5c0.4,0.8,0.6,2,0.6,3.6c0,1.6-0.1,3.3-0.3,5
        c-0.2,1.7-0.4,3.2-0.6,4.3c-0.6,6.7-1.3,13.4-1.9,20c-0.6,6.6-1.2,13.3-1.6,20c-0.2,2.3,0.6,3.5,2.6,3.6c1.9,0.1,3.2-0.8,3.9-2.6
        c5.2-14.6,11.7-28,19.5-40.3c0.4-0.7,1-1.6,1.6-2.8c0.6-1.2,1.3-2.3,1.9-3.3c0.6-1,1.2-1.8,1.8-2.4c0.5-0.6,0.8-0.5,0.8,0.2
        c-0.6,3.5-1.5,7.3-2.6,11.6c-1.1,4.3-2.1,8.7-2.9,13.2c-0.9,4.5-1.5,8.9-1.8,13.2c-0.3,4.3-0.1,8.3,0.8,12c1.1,5.3,2.9,8.3,5.5,9
        c2.6,0.7,5.5,0,8.8-2.1c3.2-2.1,6.7-5.1,10.2-9.2c3.6-4,6.9-8.2,9.9-12.5c3-4.3,5.6-8.2,7.8-11.8c2.2-3.6,3.6-6,4.2-7.1
        c1.1-1.9,0.7-3.4-1.1-4.5c-1.8-1.2-3.3-0.8-4.4,1C110.4,84.4,108.3,87.6,105.4,91.8"/>
</g>
</svg>
