<svg xmlns="http://www.w3.org/2000/svg" viewBox="0 0 500 547.1"><path d="M334.6 132.7v129.7c0-.1 29.2-40.3 0-129.7zm160.8 249.1c-6.4-26.4-22-79.5-88.4-94.6-10.4 21-33.8 34.7-68.9 24.8-34.6-9.8-55.2.1-65 7.5l-37.9-44.3H329V121.4l5.5 6.2c12.5 13.7 64.2 71.8 64.2 101.7 0 16.4-10.6 33.1-35.6 33.1h-28.6v12.8h36c51.8-.2 115.3-55.8 115.3-148.5 0-56-7-89.1-20-126.7-28.1 40.6-266 72.8-213.6 169.8 2.9 5.3 13.8 13.4 22.8 24.7l43.3-98.2v135.5c0 39.3-32.3 34.3-74.8 34.3l27.2-61.7c-3.3-4.3-7.5-8.5-12.8-12.8-26.5-21.4-82.9-5.7-123 26.6-42.2 33.9-84.6 59.9-135 78.4C38.6 348 122.3 391 202.7 380.8c33.3-4.2 46.1-21.7 65.6-42.4 12.6-13.5 27.8-18.9 38.4-20.7 8.3-1.3 17.4-.9 25.5 2.1 8.1 2.8 15.5 7.3 21.7 13.3 6.2 6 10.9 13.9 12.7 22.5 1.9 8.7.8 17.8-2.3 25.8-3.2 8.1-8.5 15.5-15.7 20.6-7.2 5.2-16.4 7.8-25.4 7.1-18.6-1.5-33.5-19-31.8-37.8.1-1.1.4-3.6 1.5-6.6 1-3 2.9-6.4 5.3-9.2 4.8-5.7 11.1-8.6 11.5-8.8 2.9-1.4 3.5 0 2.6 1.3-1.2 1.9-8.1 6-11.9 12.5-4.1 6.3-4 13.9-3.8 15.3.5 7.6 4.2 14.8 9.7 19.9 5.5 5.2 12.9 8.2 20.4 7.9 7.5-.1 14.8-2.9 20.5-7.8 5.7-4.8 9.9-11.3 12.2-18.4 2.3-7.1 2.8-14.7.8-21.8-1.9-7.1-6.1-13.4-11.5-18.4-5.4-5-12.1-8.8-19.1-11.1-7-2.3-14.4-2.6-21.6-1.4-7.4 1.2-14.6 3.9-21 7.9-8.8 5.3-16 15.3-19.9 22.5-28.7 53 35.3 117.3 117 141.6 60.4 18 93.3 50.3 93.3 50.3s34.8-95.7 18-165.2zm-216-125.3c-1.4 2.4-1 2.2 0 0z"/></svg>
