<svg viewBox="0 0 83 15" version="1.1" xmlns="http://www.w3.org/2000/svg" xmlns:xlink="http://www.w3.org/1999/xlink">
    <defs></defs>
    <g id="Page-1" stroke-width="1" fill-rule="evenodd">
        <path d="M77.376109,5.97889483 L74.9021669,3.50558067 C74.3089366,2.91133627 74.3089366,1.94797078 74.9021669,1.35372637 C75.4964113,0.760496042 76.4597768,0.760496042 77.0540212,1.35372637 L82.1243659,6.42407109 C82.7175963,7.01831549 82.7175963,7.98168099 82.1243659,8.57592539 L77.0540212,13.6462701 C76.756899,13.9433923 76.3674966,14.0914464 75.9780941,14.0914464 C75.5886916,14.0914464 75.1992891,13.9433923 74.9021669,13.6462701 C74.3089366,13.0520257 74.3089366,12.0886602 74.9021669,11.4944158 L77.376109,9.02110166 L9.29717076,9.02110166 C8.67072499,10.7934798 6.98041547,12.0633085 4.99352155,12.0633085 C2.47327489,12.0633085 0.430211303,10.0202449 0.430211303,7.49999824 C0.430211303,4.97975158 2.47327489,2.936688 4.99352155,2.936688 C6.98041547,2.936688 8.67072499,4.20651673 9.29717076,5.97889483 L77.376109,5.97889483 Z" id="Combined-Shape"></path>
    </g>
</svg>
