<?xml version="1.0" encoding="UTF-8"?>
<svg viewBox="0 0 14 16" version="1.1" xmlns="http://www.w3.org/2000/svg" xmlns:xlink="http://www.w3.org/1999/xlink">
    <!-- Generator: Sketch 53.2 (72643) - https://sketchapp.com -->
    <title>Picto/Details</title>
    <desc>Created with Sketch.</desc>
    <defs>
        <path d="M12.836,13.9161 C12.836,14.4391 12.412,14.8631 11.889,14.8631 L2.905,14.8631 C2.408,14.8631 2.012,14.4761 1.973,13.9891 L2.227,13.9891 C2.541,13.9891 2.795,13.7341 2.795,13.4211 C2.795,13.1061 2.541,12.8531 2.227,12.8531 L1.958,12.8531 L1.958,11.8571 L2.227,11.8571 C2.541,11.8571 2.795,11.6031 2.795,11.2891 C2.795,10.9751 2.541,10.7211 2.227,10.7211 L1.958,10.7211 L1.958,9.7261 L2.227,9.7261 C2.541,9.7261 2.795,9.4711 2.795,9.1571 C2.795,8.8431 2.541,8.5881 2.227,8.5881 L1.958,8.5881 L1.958,7.5931 L2.227,7.5931 C2.541,7.5931 2.795,7.3391 2.795,7.0251 C2.795,6.7111 2.541,6.4571 2.227,6.4571 L1.958,6.4571 L1.958,5.4611 L2.227,5.4611 C2.541,5.4611 2.795,5.2071 2.795,4.8931 C2.795,4.5791 2.541,4.3251 2.227,4.3251 L1.958,4.3251 L1.958,3.3301 L2.227,3.3301 C2.541,3.3301 2.795,3.0751 2.795,2.7611 C2.795,2.4471 2.541,2.1931 2.227,2.1931 L1.958,2.1931 L1.958,2.0831 C1.958,1.5611 2.382,1.1371 2.905,1.1371 L11.889,1.1371 C12.412,1.1371 12.836,1.5611 12.836,2.0831 L12.836,13.9161 Z M11.889,0.0001 L2.905,0.0001 C1.754,0.0001 0.821,0.9331 0.821,2.0831 L0.821,2.1931 L0.568,2.1931 C0.254,2.1931 -2.22044605e-14,2.4471 -2.22044605e-14,2.7611 C-2.22044605e-14,3.0751 0.254,3.3301 0.568,3.3301 L0.821,3.3301 L0.821,4.3251 L0.568,4.3251 C0.254,4.3251 -2.22044605e-14,4.5791 -2.22044605e-14,4.8931 C-2.22044605e-14,5.2071 0.254,5.4611 0.568,5.4611 L0.821,5.4611 L0.821,6.4571 L0.568,6.4571 C0.254,6.4571 -2.22044605e-14,6.7111 -2.22044605e-14,7.0251 C-2.22044605e-14,7.3391 0.254,7.5931 0.568,7.5931 L0.821,7.5931 L0.821,8.5881 L0.568,8.5881 C0.254,8.5881 -2.22044605e-14,8.8431 -2.22044605e-14,9.1571 C-2.22044605e-14,9.4711 0.254,9.7261 0.568,9.7261 L0.821,9.7261 L0.821,10.7211 L0.568,10.7211 C0.254,10.7211 -2.22044605e-14,10.9751 -2.22044605e-14,11.2891 C-2.22044605e-14,11.6031 0.254,11.8571 0.568,11.8571 L0.821,11.8571 L0.821,12.8531 L0.568,12.8531 C0.254,12.8531 -2.22044605e-14,13.1061 -2.22044605e-14,13.4211 C-2.22044605e-14,13.7341 0.254,13.9891 0.568,13.9891 L0.829,13.9891 C0.868,15.1051 1.779,16.0001 2.905,16.0001 L11.889,16.0001 C13.04,16.0001 13.973,15.0671 13.973,13.9161 L13.973,2.0831 C13.973,0.9331 13.04,0.0001 11.889,0.0001 L11.889,0.0001 Z M11.4093,2.193 L7.2023,2.193 C6.8893,2.193 6.6353,2.447 6.6353,2.761 C6.6353,3.075 6.8893,3.33 7.2023,3.33 L11.4093,3.33 C11.7233,3.33 11.9773,3.075 11.9773,2.761 C11.9773,2.447 11.7233,2.193 11.4093,2.193" id="path-1"></path>
    </defs>
    <g id="UI-design" stroke="none" stroke-width="1" fill="none" fill-rule="evenodd">
        <g id="D_Dashboard-connect-as-quick-login" transform="translate(-1078.000000, -77.000000)">
            <g id="Cutstomer-account-Navigation" transform="translate(1068.000000, 48.195604)">
                <g id="My-reservation" transform="translate(0.000000, 10.804396)">
                    <g id="Picto/Notebook" transform="translate(10.000000, 18.000000)">
                        <g id="Group-6">
                            <g id="color/bleuétoilé">
                                <mask id="mask-2" fill="white">
                                    <use xlink:href="#path-1"></use>
                                </mask>
                                <use id="Mask" fill="#504747" xlink:href="#path-1"></use>
                                <g mask="url(#mask-2)" fill="#005589" id="Rectangle">
                                    <rect x="0" y="0" width="15" height="16"></rect>
                                </g>
                            </g>
                        </g>
                    </g>
                </g>
            </g>
        </g>
    </g>
</svg>
