<svg version="1.1"
   xmlns="http://www.w3.org/2000/svg" xmlns:xlink="http://www.w3.org/1999/xlink"
   x="0px" y="0px" viewBox="0 0 500 500" style="enable-background:new 0 0 500 500;"
   xml:space="preserve">
<defs>
</defs>
<g>
  <path class="st0" d="M450.3,241.1L450.3,241.1L372.7,207l-15.9,15.9l85.1,37.3v0c13.5,5.9,21.9,21.7,18.4,34.4
    c-1.5,5.3-5,9.7-10.1,12.4c-5.9,3.2-13.1,3.7-20,1.5l-121-39.1l-36.4,35.4v34.6c0,22.8-1.9,44.4-7.4,61l-2.4,9.1l43.2,18.6
    c21.6,9.3,35.8,20.4,40.6,26.4c-6.7,1.2-21.7,0.6-42-5.9c-30.8-9.8-80.8-9.8-111.6,0c-20.2,6.4-35.4,7-42,5.9
    c4.8-6,18.9-17.1,40.5-26.4l43-18.6l-3-9.1c-4.1-12.5-6.8-28-7.8-44.6l-18.9,18.9c1.1,8,2.4,15.9,4.2,23l-25.7,11.1
    c-2.7,1.2-14.7,6.5-26.7,14.2l-26.5,26.5c-1.5,3.8-2.1,7.6-1,11.5c0.8,3.2,3.1,7.6,8.9,10.8c13.9,7.6,40.9,3.3,61.6-3.3
    c26.8-8.5,72.1-8.5,98.9,0c20.7,6.6,47.7,10.9,61.6,3.3c1.9-1,3.4-2.2,4.6-3.4c2.5-2.5,3.8-5.3,4.3-7.4c6.7-25-48-49.5-54.3-52.2
    L289,397.8c4.4-17,6.6-37.3,6.6-58.3v-52.6l128,41.7c12.3,4,25.6,2.9,36.4-2.9c10.1-5.4,17.4-14.4,20.4-25.3
    C486.7,277.7,473.2,251.1,450.3,241.1z"/>
  <path class="st0" d="M38.1,325.6c10.9,5.8,24.1,6.9,36.4,2.9l23-7.5l32.7-32.7l-62.2,20.2c-6.8,2.2-14.1,1.7-20-1.4
    c-5-2.7-8.6-7.1-10.1-12.4c-3.5-12.7,6.8-28.5,20.3-34.4l169-73.3v-55.8c0-52.6,13.3-86.1,23.8-86.1c3.8,0,8.4,5.6,14.2,21.5
    c6.2,16.8,7.6,39.8,7.6,64.6v12.5l21.7-20.7c-0.7-24.1-3.8-46.5-10.1-63.6C273.7,30.1,260.3,24,249.8,24
    c-32.1,0-45.5,55.5-45.5,107.1v42.1L48.8,241.1C26,251.1,12,277.7,18.2,300.3C21.2,311.2,28,320.2,38.1,325.6z"/>
  <path class="st0" d="M11.4,500c-2.9,0-5.8-1.1-8.1-3.3c-4.5-4.5-4.5-11.7,0-16.1L480.5,3.3c4.5-4.5,11.7-4.5,16.1,0
    c4.5,4.5,4.5,11.7,0,16.1L19.5,496.7C17.2,498.9,14.3,500,11.4,500z"/>
</g>
</svg>
