<svg viewBox="0 0 501 287" version="1.1" xmlns="http://www.w3.org/2000/svg" xmlns:xlink="http://www.w3.org/1999/xlink">
    <defs></defs>
    <g id="Page-1" stroke-width="1" fill-rule="evenodd">
        <g id="ofuro" fill-rule="nonzero">
            <path d="M319.411062,69.9855301 L335.028201,70.6557267 L326.066134,279.492742 L310.448994,278.822546 L319.411062,69.9855301 Z M405.147095,60.4341839 L420.613552,62.6997782 L389.350526,276.122037 L373.884069,273.856443 L405.147095,60.4341839 Z M237.703166,74.4890319 L253.334679,74.4890319 L253.334679,278.740803 L237.703166,278.740803 L237.703166,74.4890319 Z M155.384722,70.6635048 L171.001186,69.9777519 L180.171673,278.814767 L164.555209,279.50052 L155.384722,70.6635048 Z M70.0063739,62.6923833 L85.4749899,60.4415788 L116.529596,273.863838 L101.06098,276.114643 L70.0063739,62.6923833 Z M484.446207,38.0061381 L499.713773,41.3595872 C498.429874,47.2049177 498.429874,47.2049177 493.294198,70.5904046 C488.479507,92.5154687 483.664817,114.444334 479.171118,134.916557 C469.19448,180.367784 462.260496,211.985262 459.69923,223.717511 C450.381065,266.400719 423.912162,285.801499 353.35574,286.556113 C309.990527,287.019912 279.050952,287.019912 258.650652,286.741093 C253.522058,286.670998 250.321936,286.600493 248.814071,286.552625 L249.31006,270.928982 C250.720078,270.973745 253.826597,271.042187 258.864275,271.111039 C279.129067,271.388007 309.943618,271.388007 353.188567,270.925494 C416.76547,270.245527 436.737892,255.60644 444.427403,220.383521 C446.990532,208.642735 453.924721,177.024326 463.883001,131.656734 C468.396907,111.092452 473.211694,89.1631425 478.026479,67.2376502 C483.162246,43.8517498 483.162246,43.8517498 484.446207,38.0061381 Z M0.288328101,41.3695181 L15.5515184,37.9962072 C15.8719885,39.446236 15.8719885,39.446236 17.3137446,45.9731479 C19.2360556,54.6778324 19.2360556,54.6778324 21.9593022,67.0167354 C26.7650643,88.7954304 31.5708383,110.601464 36.056308,130.992325 C46.1864748,177.045909 53.0974151,208.667212 55.5835591,220.43496 C62.9871595,255.478669 83.1700642,270.244838 146.811346,270.925494 C190.056296,271.388007 220.870847,271.388007 241.135638,271.111039 C246.173317,271.042187 249.279835,270.973745 250.689853,270.928982 L251.185842,286.552625 C249.677977,286.600493 246.477856,286.670998 241.349261,286.741093 C220.948961,287.019912 190.009386,287.019912 146.644174,286.556113 C76.0081729,285.800648 49.2863416,266.250484 40.2896346,223.666071 C37.8166867,211.960785 30.9072151,180.346201 20.9351728,135.011466 C16.3051465,113.963438 11.500079,92.1606107 6.69499959,70.3850092 C3.97210274,58.0476912 3.97210274,58.0476912 2.05007704,49.3442981 C0.608580682,42.8185621 0.608580682,42.8185621 0.288328101,41.3695181 Z M250.104167,78.136385 C106.763779,78.136385 0.104166667,64.5515118 0.104166667,39.4744425 C0.104166667,14.3973732 106.763779,0.8125 250.104167,0.8125 C393.444554,0.8125 500.104167,14.3973732 500.104167,39.4744425 C500.104167,64.5515118 393.444554,78.136385 250.104167,78.136385 Z M250.104167,62.5048718 C374.273107,62.5048718 484.472654,48.4691293 484.472654,39.4744425 C484.472654,30.4797557 374.273107,16.4440131 250.104167,16.4440131 C125.935226,16.4440131 15.7356798,30.4797557 15.7356798,39.4744425 C15.7356798,48.4691293 125.935226,62.5048718 250.104167,62.5048718 Z" id="Shape"></path>
        </g>
    </g>
</svg>
