<?xml version="1.0" encoding="UTF-8"?>
<svg viewBox="0 0 70 108" version="1.1" xmlns="http://www.w3.org/2000/svg" xmlns:xlink="http://www.w3.org/1999/xlink">
    <!-- Generator: Sketch 53.2 (72643) - https://sketchapp.com -->
    <title>Icon</title>
    <desc>Created with Sketch.</desc>
    <g id="Symbols" stroke="none" stroke-width="1" fill="none" fill-rule="evenodd">
        <g id="WIP/Icons/Equipments/Baby/Maasage-oil" transform="translate(-29.000000, -10.000000)" fill="#005589" fill-rule="nonzero">
            <path d="M58.4823657,27.8037884 L58.4823657,25.5783148 C55.409628,25.5783148 52.9186819,23.0873687 52.9186819,20.014631 L52.9186819,15.5636839 C52.9186819,12.4909461 55.409628,10 58.4823657,10 L69.6097335,10 C72.6824712,10 75.1734173,12.4909461 75.1734173,15.5636839 L75.1734173,20.014631 C75.1734173,23.0873687 72.6824712,25.5783148 69.6097335,25.5783148 L69.6097335,27.8037884 L81.9004934,27.8037884 C91.1187067,27.8037884 98.591545,35.2766267 98.591545,44.49484 C98.591545,44.8378692 98.5809703,45.1808169 98.5598358,45.5231944 L95.0567756,102.27277 C94.5134346,111.074895 87.2163123,117.935467 78.3974332,117.935467 L49.694666,117.935467 C40.8757869,117.935467 33.5786646,111.074895 33.0353236,102.27277 L29.5322634,45.5231944 C28.9643189,36.3224937 35.9625506,28.403442 45.1632513,27.8354975 C45.5056289,27.8143631 45.8485766,27.8037884 46.1916058,27.8037884 L58.4823657,27.8037884 Z M45.5755593,32.3674722 C45.3389825,32.3674722 45.102462,32.3747005 44.8663347,32.3891468 C38.5208923,32.7773615 33.6944257,38.1903769 34.0861197,44.479455 L37.7100501,102.66565 C38.0847758,108.682285 43.1173782,113.371783 49.1994898,113.371783 L78.8926226,113.371783 C84.9747342,113.371783 90.0073366,108.682285 90.3820623,102.66565 L94.0059928,44.479455 C94.0205685,44.2454251 94.0278616,44.0110055 94.0278616,43.7765301 C94.0278616,37.4754814 88.8740732,32.3674722 82.5165531,32.3674722 L45.5755593,32.3674722 Z M47.354998,91.2297844 C45.8186291,91.2297844 44.5731561,89.9843114 44.5731561,88.4479425 C44.5731561,86.9115736 45.8186291,85.6661006 47.354998,85.6661006 L80.7371012,85.6661006 C82.2734701,85.6661006 83.5189431,86.9115736 83.5189431,88.4479425 C83.5189431,89.9843114 82.2734701,91.2297844 80.7371012,91.2297844 L47.354998,91.2297844 Z M64.602418,79.5460483 C55.2605869,79.5460483 47.9113664,70.7269837 47.9113664,60.0731548 C47.9113664,49.4193259 55.2605869,40.6002613 64.602418,40.6002613 C73.9442491,40.6002613 81.2934696,49.4193259 81.2934696,60.0731548 C81.2934696,70.7269837 73.9442491,79.5460483 64.602418,79.5460483 Z M52.9186819,102.357152 C51.382313,102.357152 50.1368399,101.111679 50.1368399,99.5753102 C50.1368399,98.0389414 51.382313,96.7934683 52.9186819,96.7934683 L75.1734173,96.7934683 C76.7097862,96.7934683 77.9552593,98.0389414 77.9552593,99.5753102 C77.9552593,101.111679 76.7097862,102.357152 75.1734173,102.357152 L52.9186819,102.357152 Z" id="Icon"></path>
        </g>
    </g>
</svg>
