<svg version="1.1" id="Calque_1" xmlns="http://www.w3.org/2000/svg" xmlns:xlink="http://www.w3.org/1999/xlink" x="0px" y="0px"
	 viewBox="0 0 500 500" style="enable-background:new 0 0 500 500;" xml:space="preserve">
<g id="Activité">
	<g id="Fiche-Village---Activites---Fiche-activite" transform="translate(-232.000000, -1239.000000)">
		<g id="Modale" transform="translate(130.000000, 129.000000)">
			<g id="A-la-carte" transform="translate(100.000000, 1107.000000)">
				<g id="Title">
					<path id="icon" d="M10.6,373.6L251.8,493l241.5-119.4c5.3-2.4,8.6-7.9,8.6-13.9V28.5c0-11.5-11.6-19-21.4-13.9L251.8,127.3
						L23.4,14.7C13.6,9.5,2,17,2,28.5v331.2C2,365.7,5.4,371.2,10.6,373.6z M242,163.1c0-5.6,4.4-10.1,10-10.1c5.6,0,10,4.4,10,10.1
						v299.9c0,5.6-4.4,10.1-10,10.1c-5.6,0-10-4.4-10-10.1V163.1z"/>
				</g>
			</g>
		</g>
	</g>
</g>
</svg>
