<svg xmlns="http://www.w3.org/2000/svg" viewBox="0 0 500 417.5"><g><path d="M135 359.8c1.5-4.3 2.5-8.9 3.1-13.4.5-4.5.4-9-.7-13.2-1.1-4.2-3-8.2-5.9-11.3-2.8-3.1-6.5-5.4-10.5-6.5-4-1.1-8.3-.8-12.1.6-3.9 1.4-7.3 4.1-9.9 7.4-5.4 6.7-7.9 15.6-8.8 24.6-1.1 9.2-.5 18.6 2.4 27.2 2.1 6.5 5.5 12.6 9.9 17.8 6.6-2.2 12.7-5.7 17.8-10.4 6.8-6.1 11.8-14.1 14.7-22.8zM476.1 61.2V34.3c5.5 0 23.9-1.7 23.9-17.3 0-15.6-16.4-17-21.8-17H286.5C265 0 263.2 15.7 273 21.4c44.7 26.3 68.8 97.2 44 133.3-9.6 14 1.1 21.3 8.5 11.7C366.9 113 426.8 155 426.8 155c-9.9 1-26.8 38.8-33.5 42.2 7.2 1.2 13.1 5.8 13.5 9.3-12.3 1.3-24 15.9-28.4 24.2-4 7.4-8.7 15-14.3 22.7-8.8 12.1-18.4 19.6-28 23.4 4.3 1.2 8.3 3.2 11.8 5.9 6.1 4.5 10.9 10.8 13.9 17.8s4.4 14.7 4 22.3c-.4 7.8-2.7 15.5-6.7 22.2-4 6.7-9.7 12.5-16.5 16.5-6.8 4-14.6 6.2-22.4 6.6-7.8.4-15.7-1.1-22.9-4-7.2-3-13.8-7.3-19.3-13-5.4-5.7-9.4-12.6-12-19.8-2.4-6.7-3.9-13.5-4.8-20.4-.2 1.1-.4 2.2-.6 3.4-8.1 44.2-38.4 75.9-50.8 85.6-10.3 8.1-22.2 14.3-34.9 17.7h303.2v-45.3h-16.8v-28.7l-11.6-8V138c.1 0 .2.1.2.1h14.4c5 0 5 4.2 5 4.2v9s1.9 1 6 1 6-1 6-1v-11.9c0-14.4-14.7-14.4-14.7-14.4H450s-.1 0-.2.1V92.7c0-22.1 10.3-31.5 26.3-31.5z"/><path d="M50.2 92.7c0-22.1-10.2-31.5-26.3-31.5V34.3C18.3 34.3 0 32.5 0 17 0 1.4 16.4 0 21.8 0H209c8 0 17.8 1.7 21.6 11.4 9.8 24.7-81.9 55.9-29.6 143.7 9 15.1 4.5 16.9-1.6 10-9.5-10.7-63.8-54-132.5 10.7 0 0 42.6 14.2 60.9 58.9 18.3 44.7 83 50.9 105.2 17.3 13.6-20.6 14-37.9 14-37.9-26.3 16.6-43.5-7.3-57.7-20.5-26.7-24.8-62.8-15-62.8-15 18.3-6.8 47.9-10.2 75.1 15.1 20.1 18.8 35.8 15 37.8 3.6 4.3-24.7 16.7-39.7 27.2-63.7 15.9-36.5-11-69.5-11-69.5 39.7 43.4 7.3 82.4-2.8 120.8-7.9 29.9 19.3 64.4 19.3 64.4 9.2 14.5 23.2 25.8 38.7 29.2-2 1-4 2.1-5.8 3.4-3.1 2.2-5.7 5-7.9 8-2.2 3.1-3.8 6.7-4.7 10.4-1.7 7.4-.3 15.4 3.7 21.8 2 3.2 4.6 5.9 7.7 8.1 3.1 2.2 6.7 3.6 10.4 4.1 7.4 1 15.2-1.8 20.2-7.4.5-.6 2-2.1 3.2-4.7 1.2-2.5 2-6.1 1.6-9.5-.4-3.5-1.9-6.6-3.8-8.6-1.8-2-3.8-2.9-4.7-2.8-1.4.1-2.1 1.4-.7 2.6.1.1.9.8 1.8 2.1s1.8 3.2 2.2 5.3c.4 2.1.2 4.3-.3 6.1-.5 1.7-1.3 3-1.6 3.5-3.1 4.8-8.7 7.8-14.5 7.8-2.9 0-5.7-.7-8.3-2.1-2.5-1.4-4.9-3.5-6.7-5.8-3.7-4.8-5.3-11.1-4.4-17.1.5-3 1.5-5.9 3.1-8.5 1.6-2.6 3.8-5 6.2-6.9 4.9-3.9 11.2-6.2 17.5-6.3 6.3-.2 12.7 1.8 17.8 5.6 10.6 7.6 16.2 21.3 15.3 34.5-.3 6.5-2.1 12.9-5.2 18.6-3.2 5.7-7.7 10.6-13.2 14.1-11 7.1-25.7 8.2-38.3 3.6-6.3-2.2-12.3-5.8-17.3-10.3-5-4.6-8.8-10.3-11.5-16.6-15.2-35.7 1.3-68.9-21.6-103.5-1.4 41.7-36.8 51.6-36.8 51.6s32.8-2.7 32.8 26.2c0 18.7-3.3 42.8-20.3 67.3-5.1 7.3-11.1 14-17.9 19.7-14.2 12-32.1 19.7-50.7 21-9.2.7-18.6-.2-27.4-2.9-8.8-2.6-17.1-7-23.8-13.2 5.3-2 10.3-4.8 14.7-8.3 8.3-6.5 14.7-15.3 18.4-25 1.9-4.8 3.2-9.8 4.1-14.9.9-5.1 1.1-10.6.1-15.9-1-5.3-3.1-10.6-6.6-15-3.5-4.4-8.2-7.9-13.6-9.7-5.4-1.8-11.4-1.9-16.8-.1-5.4 1.7-10.2 5.1-13.7 9.3-7.1 8.4-10 19-11.1 29-1.1 9.9-.4 20.1 2.7 29.8 2.1 6.5 5.4 12.7 9.5 18.1-8.8 1.6-18 1.2-26.6-1.4-8.9-2.7-17.1-7.8-22.9-15.1-.6-.8-2.3-2.9-4-6-1-1.8-2-4.1-2.9-6.5v-22.5l11.6-8V138c-.1.1-.2.1-.2.1H35.2c-5 0-5 4.2-5 4.2v9s-1.9 1-6 1-6-1-6-1v-11.9c0-14.4 14.7-14.4 14.7-14.4H50s.1 0 .2.1V92.7zM127.1 416.9c-9.4-3-18.4-7.9-25.7-14.8-.7-.6-1.3-1.3-2-1.9-2.1.5-4.2.9-6.3 1.2-10.4 1.3-21.1.1-30.9-3.8-9.8-3.9-18.7-10.8-24.3-20.2-.5-.9-1.6-2.7-2.7-5.2H21.8v45.3h107.3c-.7-.2-1.3-.4-2-.6z"/></g></svg>
