<svg id="Calque_1" data-name="Calque 1" xmlns="http://www.w3.org/2000/svg" viewBox="0 0 24 24"><defs></defs><title>Four électrique</title><path class="cls-1" d="M21.5.52H2.87a.37.37,0,0,0-.38.37V23.11a.37.37,0,0,0,.38.37H21.5a.37.37,0,0,0,.38-.37V.89A.37.37,0,0,0,21.5.52Zm-.37,22.21H3.24V1.27H21.13Z"/><path class="cls-1" d="M5.87,20.48H18.5a.37.37,0,0,0,.38-.37V9.39A.37.37,0,0,0,18.5,9H5.87a.37.37,0,0,0-.38.37V20.11A.37.37,0,0,0,5.87,20.48ZM6.24,9.77H18.13v10H6.24Z"/><path class="cls-1" d="M5.87,6.77H18.5a.38.38,0,0,0,.38-.38A.37.37,0,0,0,18.5,6H5.87a.37.37,0,0,0-.38.37A.38.38,0,0,0,5.87,6.77Z"/><path class="cls-1" d="M14.59,12.35a.37.37,0,0,0-.53,0L9.78,16.62a.37.37,0,0,0,0,.53.35.35,0,0,0,.27.11.34.34,0,0,0,.26-.11l4.28-4.27A.39.39,0,0,0,14.59,12.35Z"/><path class="cls-1" d="M11.85,12.42a.37.37,0,0,0-.53-.53l-2,2a.39.39,0,0,0,0,.53.4.4,0,0,0,.27.11.36.36,0,0,0,.26-.11Z"/><path class="cls-1" d="M14.53,15.09l-2,2a.37.37,0,0,0,0,.53.34.34,0,0,0,.26.11.36.36,0,0,0,.27-.11l2-2a.38.38,0,0,0,0-.53A.39.39,0,0,0,14.53,15.09Z"/><circle class="cls-1" cx="6.65" cy="3.64" r="0.75"/><circle class="cls-1" cx="9.42" cy="3.64" r="0.75"/><circle class="cls-1" cx="12.18" cy="3.64" r="0.75"/><circle class="cls-1" cx="14.95" cy="3.64" r="0.75"/><circle class="cls-1" cx="17.72" cy="3.64" r="0.75"/></svg>
