<svg viewBox="0 0 501 422" version="1.1" xmlns="http://www.w3.org/2000/svg" xmlns:xlink="http://www.w3.org/1999/xlink">
    <defs></defs>
    <g id="Page-1" stroke-width="1" fill-rule="evenodd">
        <g id="overflowingpool" fill-rule="nonzero">
            <path d="M256.93038,279.581468 C256.93038,283.837653 253.48006,287.287973 249.223876,287.287973 C244.967691,287.287973 241.517371,283.837653 241.517371,279.581468 L241.517371,60.3057334 C241.517371,27.107492 268.429863,0.195 301.628105,0.195 C305.884289,0.195 309.334609,3.64531949 309.334609,7.90150428 C309.334609,12.1576891 305.884289,15.6080086 301.628105,15.6080086 C276.942233,15.6080086 256.93038,35.6198616 256.93038,60.3057334 L256.93038,279.581468 Z M395.236443,333.424245 C395.236443,337.68043 391.786124,341.130749 387.529939,341.130749 C383.273754,341.130749 379.823435,337.68043 379.823435,333.424245 L379.823493,60.2756884 C379.952649,27.1477182 406.776153,0.324213918 439.964213,0.195058568 C473.092183,0.324213918 499.915687,27.1477182 500.044843,60.2756884 C500.061436,64.5318408 496.624594,67.9955857 492.368442,68.0121791 C488.11229,68.0287724 484.648545,64.5919308 484.631951,60.3357783 C484.5358,35.6732179 464.566683,15.7041014 439.964213,15.60795 C415.301652,15.7041014 395.332536,35.6732179 395.236443,60.3057334 L395.236443,333.424245 Z M253.128504,223.169857 C248.87232,223.169857 245.422,219.719538 245.422,215.463353 C245.422,211.207168 248.87232,207.756849 253.128504,207.756849 L387.529939,207.756849 C391.786124,207.756849 395.236443,211.207168 395.236443,215.463353 C395.236443,219.719538 391.786124,223.169857 387.529939,223.169857 L253.128504,223.169857 Z M253.128504,128.225724 C248.87232,128.225724 245.422,124.775405 245.422,120.51922 C245.422,116.263035 248.87232,112.812716 253.128504,112.812716 L387.529939,112.812716 C391.786124,112.812716 395.236443,116.263035 395.236443,120.51922 C395.236443,124.775405 391.786124,128.225724 387.529939,128.225724 L253.128504,128.225724 Z M321.044135,396.016335 C317.120009,394.368202 315.274952,389.850993 316.923085,385.926867 C318.571218,382.002741 323.088426,380.157684 327.012552,381.805817 C331.447479,383.668486 347.937674,390.718522 351.730066,392.294957 C359.582241,395.558978 365.345702,397.735077 370.889567,399.469928 C385.010861,403.888929 398.89484,405.659878 420.520449,405.714763 C442.306059,403.100733 462.470812,392.883925 477.463825,376.863452 C480.372101,373.755875 485.248914,373.594309 488.356491,376.502585 C491.464069,379.41086 491.625635,384.287674 488.717359,387.395251 C471.244797,406.065195 447.745189,417.971663 421.438558,421.072887 C397.437553,421.072887 382.037673,419.108579 366.286467,414.179527 C360.223967,412.282378 354.059589,409.954905 345.81391,406.527312 C341.933212,404.91417 325.407384,397.848899 321.044135,396.016335 Z M4.65902531,395.96905 C0.761013677,394.26007 -1.0135467,389.714704 0.695433768,385.816693 C2.40441424,381.918681 6.94977942,380.144121 10.8477911,381.853101 C43.31606,396.087958 45.8152836,397.128701 56.0316976,400.149457 C69.4436003,404.115045 82.888626,405.659878 104.958115,405.659878 C121.762054,405.659878 134.243774,398.781839 158.027566,379.539588 C161.876971,376.419283 163.765559,374.893388 165.767538,373.300908 C184.322681,358.541168 196.852675,351.602972 212.422974,350.184842 C253.584517,347.90495 294.346829,359.282231 328.37788,382.549335 C331.891372,384.951517 332.792267,389.747119 330.390084,393.260612 C327.987902,396.774104 323.1923,397.674999 319.678808,395.272816 C288.450974,373.922278 251.046348,363.48217 213.55061,365.554068 C202.108977,366.599809 191.716108,372.354621 175.362486,385.363155 C173.414118,386.91299 171.57738,388.396993 167.721966,391.522053 C141.289023,412.907595 126.4713,421.072887 104.958115,421.072887 C81.522692,421.072887 66.6629415,419.365502 51.6614606,414.929913 C40.5167623,411.634684 38.0052759,410.588835 4.65902531,395.96905 Z M320.342395,317.998042 C320.065333,317.847593 319.800668,317.681946 319.549013,317.502599 C288.347357,296.211818 250.99447,285.803471 213.591498,287.868658 C202.320744,288.959376 192.131343,294.627298 176.319885,307.316245 C174.279689,308.953535 172.316699,310.556857 168.229052,313.906803 C142.063463,335.299518 126.972088,343.596831 104.958115,343.596831 C81.0295691,343.596831 65.6600711,341.593297 49.9027214,336.58587 C43.8887611,334.674733 37.7932516,332.345439 29.499235,328.869555 C26.2944005,327.526462 9.98564148,320.525677 4.76919938,318.334772 C0.845073173,316.686639 -0.999983867,312.16943 0.648149141,308.245304 C2.29628215,304.321178 6.81349077,302.476121 10.737617,304.124254 C16.0303642,306.347207 32.3317551,313.344829 35.4565744,314.654389 C43.3643304,317.968398 49.0696639,320.148592 54.5706891,321.896728 C68.682259,326.381152 82.5108885,328.183822 104.958115,328.183822 C122.266044,328.183822 134.937018,321.217258 158.473186,301.974331 C162.550437,298.632748 164.572405,296.981256 166.673025,295.295475 C184.66464,280.856917 197.013097,273.988006 212.422974,272.503279 C253.32293,270.237876 293.828714,281.456612 327.728251,304.425617 C333.464692,306.846157 348.539063,313.307726 351.744668,314.647968 C359.649743,317.953026 365.387164,320.13852 370.914857,321.889214 C385.085352,326.377197 398.972513,328.183822 420.498266,328.241401 C442.308249,325.560274 462.474658,315.275405 477.451212,299.195398 C480.352028,296.080855 485.228439,295.907594 488.342982,298.808409 C491.457526,301.709224 491.630787,306.585636 488.729971,309.700179 C471.282039,328.433652 447.787839,340.415694 421.438558,343.596831 C397.495421,343.596831 382.0718,341.590322 366.261176,336.582889 C360.220805,334.669823 354.091384,332.335009 345.799307,328.868148 C342.400198,327.447003 326.352605,320.567048 321.190732,318.396381 C320.902956,318.282135 320.619643,318.149455 320.342395,317.998042 Z" id="Shape"></path>
        </g>
    </g>
</svg>
