<?xml version="1.0" encoding="UTF-8"?>
<svg viewBox="0 0 361 496" version="1.1" xmlns="http://www.w3.org/2000/svg" xmlns:xlink="http://www.w3.org/1999/xlink">
    <!-- Generator: Sketch 52.3 (67297) - http://www.bohemiancoding.com/sketch -->
    <title>Fill-1</title>
    <desc>Created with Sketch.</desc>
    <g id="Page-1" stroke="none" stroke-width="1" fill="none" fill-rule="evenodd">
        <g id="padlock" transform="translate(0.962572, 0.422467)" fill="#005589" fill-rule="nonzero">
            <path d="M330.302714,442.022749 C330.302714,455.409724 319.402724,466.309713 306.015749,466.309713 L53.4313213,466.309713 C40.0443466,466.309713 29.1443571,455.409724 29.1443571,442.022749 L29.1443571,267.156607 C29.1443571,253.769632 40.0443466,242.869642 53.4313213,242.869642 L306.015749,242.869642 C319.402724,242.869642 330.302714,253.769632 330.302714,267.156607 L330.302714,442.022749 Z M89.8617677,119.006125 C89.8617677,69.4607177 130.178128,29.1443571 179.723535,29.1443571 C229.268942,29.1443571 269.585303,69.4607177 269.585303,119.006125 L269.585303,213.725285 L89.8617677,213.725285 L89.8617677,119.006125 Z M140.864393,412.878392 L160.293964,354.589678 L160.779703,354.589678 C152.114114,348.566511 146.40182,338.579711 146.40182,327.232841 C146.40182,308.833037 161.323731,293.911126 179.723535,293.911126 C198.123339,293.911126 213.04525,308.833037 213.04525,327.232841 C213.04525,338.579711 207.332956,348.566511 198.667367,354.589678 L199.153107,354.589678 L218.582678,412.878392 L140.864393,412.878392 Z M306.015749,213.725285 L298.72966,213.725285 L298.72966,119.006125 C298.72966,53.3924622 245.337198,0 179.723535,0 C114.109873,0 60.7174106,53.3924622 60.7174106,119.006125 L60.7174106,213.725285 L53.4313213,213.725285 C23.9566615,213.725285 0,237.681947 0,267.156607 L0,442.022749 C0,471.497409 23.9566615,495.454071 53.4313213,495.454071 L306.015749,495.454071 C335.490409,495.454071 359.447071,471.497409 359.447071,442.022749 L359.447071,267.156607 C359.447071,237.681947 335.490409,213.725285 306.015749,213.725285 Z" id="Fill-1"></path>
        </g>
    </g>
</svg>
