<svg xmlns="http://www.w3.org/2000/svg" viewBox="0 0 500 356.4"><g><path d="M361.8 303.8v-15.1h-40.9v-7.4c-.1-5.6 2.8-8.4 6.2-9.4l26.6-8h-24.9c-4.8 9.2-18.2 13-30.9 14.4l-14.7 27v30.3s-1.9 19.2 18.2 14.7c16.8-3.7 36.6-10.8 43.7-14.4 7.4-3.9 16.9-14.3 16.7-32.1zM268.7 278.1l9.7 17 9.7-16.7c-5 .2-16.5-.2-19.4-.3zM374.1 288.5v10.6c0 19.8 9.7 14 12.2 12.3 5.9-4.1 18.2-15 25.8-23l-38 .1zM328.4 239.5c.6 2.2 1.1 4.5 1.5 6.8l23.6-6.8h-25.1z"/><path d="M466.7 24.1s-37-37.7-164.4-18.8c-135.7 20.1-259.4 89-291 161.4-17.5 40-15.6 88.1 13 112.1 34.1 28.6 83.1-.6 98.4-39.9 2.1-5.3 3.7-10.9 4.7-16.5 1.1-5.6 1.8-11.3 1.2-16.8-.5-5.5-2.1-10.9-4.7-15.6-2.6-4.8-6.3-9-10.6-12.3-4.4-3.4-9.4-6-14.7-7.2-5.2-1.2-10.9-.9-16.2.5-5.3 1.4-10.2 4-13.9 7.8-1.8 1.9-3.3 4.1-4.5 6.4-1.1 2.3-1.8 4.9-2.1 7.5-.6 5.3.5 10.8 2.9 15.4 2.4 4.7 6.3 8.4 11 10.4 2.4 1 4.8 1.6 7.2 1.5 2.4-.1 4.9-.6 7.2-1.7 4.5-2.1 8.2-6.2 9.6-10.8.2-.5.5-1.8.6-3.4.1-1.6-.1-3.5-.7-5.3-1.2-3.6-4-6.5-4.2-6.7-1.3-1.3-.5-2.3.6-2.2.9.1 2.4.9 4 2.6 1.6 1.6 3.1 4 3.9 6.8.8 2.7.8 5.7.4 8s-1.2 3.9-1.5 4.5c-2.6 5.5-7.5 9.9-13.3 11.9-2.9 1-6 1.4-9.1 1.1-3.1-.3-6.1-1.3-8.8-2.7-5.5-2.8-9.9-7.7-12.4-13.4-2.5-5.6-3.4-12-2.5-18.2.9-6.2 4-12.1 8.6-16.5 4.5-4.4 10.4-7.3 16.4-8.8 6-1.5 12.4-1.9 18.6-.4 6.1 1.4 11.8 4.3 16.8 8.1 5 4 9.2 9 12.2 14.7 3 5.7 4.7 12.1 5.1 18.4.2 3.2.1 6.4-.3 9.5-.4 3.1-.9 6.1-1.5 9.1-1.3 6-3.2 11.9-5.6 17.6-1.1 2.6-2.3 5.2-3.7 7.7 13.6-12 23.7-18.6 36.5-20.7 2.4-.4 4.1-.5 5.2-.5 5.4-.3 11 .3 16.2 2.1 6.3 2.1 11.7 5.9 16.2 10.5s8 10.4 9.5 17c.7 3.3.9 6.6.6 10-.4 3.4-1.3 6.7-2.8 9.7-2.9 6-7.4 11.1-13.2 14.6-5.7 3.5-12.8 5.1-19.5 4-3.3-.5-6.8-1.6-9.7-3.5-3-1.9-5.5-4.4-7.4-7.4-3.8-5.8-5.2-13.1-3.4-20.1.2-.8.7-2.7 1.9-4.8 1.1-2.2 3-4.5 5.2-6.3 4.4-3.7 9.5-4.9 9.9-5 2.4-.6 2.6.6 1.8 1.6-.6.7-2.3 1.6-4.3 2.8-2 1.2-4.3 2.9-6.1 5-1.8 2.1-3 4.5-3.7 6.5-.7 2-.8 3.7-.9 4.3-.5 5.6 1.4 11.3 5 15.5 1.8 2.1 4 3.8 6.5 5 2.5 1.1 5.2 1.7 8 1.8 5.5.3 11-1.5 15.5-4.8 4.5-3.2 8-7.7 10.1-12.8 2.1-5 2.2-10.7.8-15.9-1.5-5.2-4.6-9.9-8.5-13.7-3.9-3.8-8.7-6.9-13.7-8.4-5.2-1.6-10.7-1.9-16.1-1.2-4 .5-7.9 1.5-11.5 3.2-.9.5-1.8.9-2.7 1.4-11.4 6-17.5 18.5-19.1 31.1-4.3 34.8 9.9 74.5 69.3 82.5 16.5 2.2 32.1 3.1 47.1 3 28.1-1.3 27.5-21.9 27.5-21.9s.1-28.2 0-29.2l-14.7-27.1c-8.1-1-20-2.2-24.6-6 0 0-16.6-10.6-1.1-42.2 8-17.8 27.4-28.9 46.2-28.9 17.3 0 33.7 9.3 43 24.7 1-1.5 2.4-2.7 4-3.1l26.9-8.1h-33.1v-7.3c-.4-4.1 1.8-8 5.1-9l28-8.5-32.9-.1v-7.2c0-4.1 2.5-8.3 5.9-9.3l26.9-8.1h-33.1v-7.3c-.4-4.1 1.8-8 5.1-9l27.9-8.4h-32.8v-7.2c-.4-4.1 1.5-7.9 4.8-9l26.8-8.4-28.3-.1v-7.1c-.5-4 1.4-7.9 4.7-9l24.6-8.5H327V84c-.5-4.9 3.4-9.4 7.7-9.5h7c-3.4-2.6-9.1-7.2-6.3-16.3 4-12.8 20.5-34.8 34.7-34.9 14.2 0 30.6 21.9 34.5 34.7 3.6 11.5-9.5 16.8-9.5 16.8h15.1v8.3c0 4.5-1.9 5.8-6.7 8.2l-25 8h35.4v8.4c0 4.5-2.5 6.3-6.9 8.2l-27.4 8.2h37.6v8.3c0 4.5-2.6 7.1-6.8 8.2l-28.6 8.1 35.4.1v8.2c0 4.5-2.7 6.5-6.8 8.2l-28.6 8.2h35.4l.1 8.3c0 4.5-.9 6.5-6.8 8.2l-28.6 8.2h35.5v8.3c0 4.5-2.9 6.6-6.9 8.2l-28.6 8.2h35.8v8.3c0 4.5-3.3 6.9-7.1 8.2l-28.6 8.1 35.5.1v8.2c0 4.5-2.9 7.4-6.9 8.2l-28.6 8.2h36l-.1 9.8c4.2-4.9 8.2-9.9 11.8-15 46.8-65.5 110.1-186.2 37-242.8z"/></g></svg>
