<?xml version="1.0" encoding="UTF-8"?>
<svg viewBox="0 0 500 501" version="1.1" xmlns="http://www.w3.org/2000/svg" xmlns:xlink="http://www.w3.org/1999/xlink">
    <!-- Generator: Sketch 53.2 (72643) - https://sketchapp.com -->
    <title>Combined Shape</title>
    <desc>Created with Sketch.</desc>
    <g id="Page-1" stroke="none" stroke-width="1" fill="none" fill-rule="evenodd">
        <g id="Group" transform="translate(0.000000, -0.000000)" fill="#005589" fill-rule="nonzero">
            <path d="M324.074074,125.128587 L324.084142,125.11508 C359.061328,125.11508 411.527108,125.11508 481.481481,125.11508 C491.708977,125.11508 500,133.406104 500,143.633599 L500,481.596562 C500,491.824057 491.708977,500.11508 481.481481,500.11508 L374.962209,500.11508 C364.734714,500.11508 356.443691,491.824057 356.443691,481.596562 L356.443691,324.170259 C356.443691,316.510073 350.233883,310.300266 342.573697,310.300266 C334.913511,310.300266 328.703704,316.510073 328.703704,324.170259 L328.703704,481.596562 C328.703704,491.824057 320.412681,500.11508 310.185185,500.11508 L194.444444,500.11508 C184.216949,500.11508 175.925926,491.824057 175.925926,481.596562 L175.925926,324.189154 L18.5185185,324.189154 C8.29102315,324.189154 0,315.898131 0,305.670636 L0,18.6335989 C0,8.40610352 8.29102315,0.115080368 18.5185185,0.115080368 L75.389827,0.115080368 C76.2943996,-0.0388602915 77.2177696,-0.0378589932 78.1181566,0.115079971 L248.638242,0.115080368 C249.538989,-0.0379011956 250.462292,-0.0386887139 251.366318,0.115080368 L305.555556,0.115080368 C315.783051,0.115080368 324.074074,8.40610352 324.074074,18.6335989 L324.074074,125.128587 Z M324.074074,141.736907 L324.074074,300.457983 C329.176034,296.471928 335.597467,294.096562 342.573697,294.096562 C359.182942,294.096562 372.647395,307.561015 372.647395,324.170259 L372.647395,481.596562 C372.647395,482.874999 373.683772,483.911377 374.962209,483.911377 L481.481481,483.911377 C482.759918,483.911377 483.796296,482.874999 483.796296,481.596562 L483.796296,143.633599 C483.796296,142.355162 482.759918,141.318784 481.481481,141.318784 C411.657255,141.318784 359.289084,141.318784 324.376971,141.318784 L324.074074,141.736907 Z M312.52928,322.831169 C310.376826,323.706766 308.022525,324.189154 305.555556,324.189154 L192.12963,324.189154 C192.12963,359.238122 192.12963,411.707258 192.12963,481.596562 C192.12963,482.874999 193.166008,483.911377 194.444444,483.911377 L310.185185,483.911377 C311.463622,483.911377 312.5,482.874999 312.5,481.596562 L312.5,324.170259 C312.5,323.721532 312.509828,323.275101 312.52928,322.831169 Z M170.138889,109.687703 L170.138889,236.226191 C170.138889,240.700721 166.511566,244.328043 162.037037,244.328043 C157.562508,244.328043 153.935185,240.700721 153.935185,236.226191 L153.935185,109.616634 L73.1545171,16.3187841 L18.5185185,16.3187841 C17.2400816,16.3187841 16.2037037,17.355162 16.2037037,18.6335989 L16.2037037,305.670636 C16.2037037,306.949073 17.2400816,307.985451 18.5185185,307.985451 L305.555556,307.985451 C306.833992,307.985451 307.87037,306.949073 307.87037,305.670636 L307.87037,18.6335989 C307.87037,17.355162 306.833992,16.3187841 305.555556,16.3187841 L253.524255,16.3187841 L170.138889,109.687703 Z M162.531471,93.87992 L231.799316,16.3187841 L94.5879968,16.3187841 L161.735176,93.8705997 C161.835343,93.8669308 161.935974,93.8650804 162.037037,93.8650804 C162.203062,93.8650804 162.367921,93.8700743 162.531471,93.87992 Z M236.111111,171.411377 C220.769868,171.411377 208.333333,158.974842 208.333333,143.633599 C208.333333,128.292356 220.769868,115.855821 236.111111,115.855821 C251.452354,115.855821 263.888889,128.292356 263.888889,143.633599 C263.888889,158.974842 251.452354,171.411377 236.111111,171.411377 Z M236.111111,155.207673 C242.503296,155.207673 247.685185,150.025783 247.685185,143.633599 C247.685185,137.241414 242.503296,132.059525 236.111111,132.059525 C229.718927,132.059525 224.537037,137.241414 224.537037,143.633599 C224.537037,150.025783 229.718927,155.207673 236.111111,155.207673 Z M236.111111,245.485451 C220.769868,245.485451 208.333333,233.048916 208.333333,217.707673 C208.333333,202.36643 220.769868,189.929895 236.111111,189.929895 C251.452354,189.929895 263.888889,202.36643 263.888889,217.707673 C263.888889,233.048916 251.452354,245.485451 236.111111,245.485451 Z M236.111111,229.281747 C242.503296,229.281747 247.685185,224.099858 247.685185,217.707673 C247.685185,211.315488 242.503296,206.133599 236.111111,206.133599 C229.718927,206.133599 224.537037,211.315488 224.537037,217.707673 C224.537037,224.099858 229.718927,229.281747 236.111111,229.281747 Z" id="Combined-Shape"></path>
        </g>
    </g>
</svg>
