<?xml version="1.0" encoding="UTF-8"?>
<svg viewBox="0 0 52 46" version="1.1" xmlns="http://www.w3.org/2000/svg" xmlns:xlink="http://www.w3.org/1999/xlink">
    <!-- Generator: Sketch 53.2 (72643) - https://sketchapp.com -->
    <title>Combined Shape</title>
    <desc>Created with Sketch.</desc>
    <g id="Icons---Kids" stroke="none" stroke-width="1" fill="none" fill-rule="evenodd">
        <g id="Icons/Kids_icons_board" transform="translate(-256.000000, -288.000000)" fill="#005589" fill-rule="nonzero">
            <g id="Icons" transform="translate(16.000000, 104.000000)">
                <g id="Assets/Icons/Equipments/Bathroom/Paper-dispenser" transform="translate(236.000000, 177.000000)">
                    <path d="M6.76650392,8.5 C6.51341641,8.5 6.30023497,8.68912057 6.27006852,8.94039182 C5.7560741,13.2222989 5.5,16.5802891 5.5,19 C5.5,21.457947 5.76388323,25.1489245 6.29311853,30.0536408 C6.32051614,30.3075496 6.53485499,30.5000048 6.79023752,30.5000048 L53.2223295,30.5 C53.4765093,30.5 53.6902355,30.3093082 53.7190955,30.0567601 C54.2402595,25.4967833 54.5,21.9725787 54.5,19.5 C54.5,17.0274189 54.240259,13.5032099 53.719094,8.94322673 C53.6902333,8.69070731 53.4765141,8.50002302 53.2223501,8.50002302 L6.76650392,8.5 Z M6.76650467,7 L53.2223508,7.00002302 C54.2390392,7.00002302 55.0939453,7.76278653 55.2093921,8.77289906 C55.736464,13.384565 56,16.9602653 56,19.5 C56,22.0397323 55.7364645,25.6154282 55.2093936,30.2270877 C55.0939603,31.2372216 54.2390376,32 53.2223295,32 L6.79023768,32.0000048 C5.76871427,32.0000048 4.91136502,31.2301897 4.80177536,30.2145617 C4.26725845,25.2608978 4,21.5227106 4,19 C4,16.5105702 4.26025336,13.097776 4.78076007,8.76161722 C4.90143333,7.75647036 5.75413999,7 6.76650467,7 Z M18.0782253,49.3979445 L18.2084348,49.4077504 L30.1425792,50.3067917 L41.5348763,51.3945868 L51.5,50.6130366 L51.5,33.5 L8.5,33.5 L8.5,50.3444639 L18.0782253,49.3979445 Z M7,32 L53,32 L53,52 L41.5221324,52.9001925 L30,51.8 L18.0957914,50.9035149 L7,52 L7,32 Z" id="Combined-Shape"></path>
                </g>
            </g>
        </g>
    </g>
</svg>
