<?xml version="1.0" encoding="utf-8"?>
<!-- Generator: Adobe Illustrator 23.0.3, SVG Export Plug-In . SVG Version: 6.00 Build 0)  -->
<svg version="1.1" id="Calque_1" xmlns="http://www.w3.org/2000/svg" xmlns:xlink="http://www.w3.org/1999/xlink" x="0px" y="0px"
	 viewBox="0 0 128 128" style="enable-background:new 0 0 128 128;" xml:space="preserve">
<style type="text/css">
	.st0{fill:#005589;}
</style>
<title>WIP/Icons/Equipments/Chalet/Parking</title>
<desc>Created with Sketch.</desc>
<g>
	<path id="Icon" class="st0" d="M3.6,30.9L61.9,1.8c1.3-0.7,2.9-0.7,4.2,0l58.3,29.2c1.6,0.8,2.6,2.4,2.6,4.2v86.9
		c0,2.6-2.1,4.7-4.7,4.7H5.7c-2.6,0-4.7-2.1-4.7-4.7V35.1C1,33.3,2,31.7,3.6,30.9z M5.4,34.6c-0.2,0.1-0.3,0.3-0.3,0.5v86.9
		c0,0.3,0.3,0.6,0.6,0.6h116.7c0.3,0,0.6-0.3,0.6-0.6V35.1c0-0.2-0.1-0.4-0.3-0.5L64.3,5.4c-0.2-0.1-0.4-0.1-0.5,0L5.4,34.6z
		 M92.6,110.8h-2.8c-0.8,0-1.5-0.3-2.1-0.9c-1.5-1.5-1.5-4.4-1.5-7.7l0-1.8c-2.1,0.4-4.5,1-7,1.6c-4.5,1.2-9.2,2.4-13.6,2.4h-4
		c-4.4,0-8.6-1.2-12.7-2.4c-2.2-0.6-4.4-1.3-6.4-1.6v1.1c0,1.2-0.9,9.4-5.1,9.4h-2.8c-3.9,0-5.7-7.5-5.7-9.4l-0.1-8.9
		c-0.5-2.9-0.8-6.3-0.8-10.3c0-4.5,0.5-9.1,1.5-12.9c0.2-0.8,0.5-1.6,0.7-2.3l0.1-0.4l3.3-22.4c0.2-1.1,1-2.5,2.5-2.8
		c8.1-2.2,27.2-2.3,27.3-2.3c0.2,0,19.2,0.1,27.4,2.3c1.5,0.4,2.3,1.7,2.5,2.9l3.5,22.8c0.2,0.7,0.5,1.4,0.7,2.2
		c0.9,3.7,1.5,8.3,1.5,12.9c0,1.3,0.1,2.5,0.2,3.7c0.1,2.2,0.3,4.2,0,6.2l0.7,2.3v7C99.9,103.8,96.1,110.8,92.6,110.8z M90.6,106.8
		h1.8c1.1-0.6,3.4-4.2,3.5-5.3v-6.6L95,92.5l0.1-0.5c0.3-1.6,0.2-3.6,0.1-5.7c-0.1-1.3-0.2-2.6-0.2-4c0-4.3-0.5-8.5-1.3-11.9
		c-0.2-0.7-0.4-1.3-0.6-1.8l-0.3-1l-3.3-22.3c-7.8-1.9-25.7-2.1-25.9-2.1s-18.1,0.2-25.9,2.1l-3.4,22.7l-0.2,0.6
		c-0.2,0.6-0.4,1.2-0.6,1.8c-0.9,3.4-1.4,7.7-1.4,11.9c0,3.8,0.3,7.1,0.8,9.7l0,0.3l0.1,2.2v7c0,1.2,1.2,4.5,2,5.3h2
		c0.7-0.9,1.5-3.9,1.5-5.3V96l2.2,0.2c3.1,0.2,6.2,1.1,9.4,2.1c3.8,1.1,7.7,2.2,11.5,2.2h4c3.9,0,8.3-1.2,12.6-2.3
		c3.6-0.9,6.9-1.8,9.9-2l2.2-0.2l0,6.4C90.3,104.5,90.4,106,90.6,106.8z M82.2,82c-1.6,0-3-0.4-4.1-1.3c-1-0.8-1.7-1.9-1.7-3.2
		c-0.1-3,2.7-5.8,6.7-6.6c2.4-0.5,4.6-0.1,6.1,1.1c1,0.8,1.6,1.9,1.7,3.2c0.2,3-2.7,5.8-6.6,6.5C83.5,81.9,82.8,82,82.2,82z
		 M84.9,74.8c-0.3,0-0.7,0-1.1,0.1c-2.2,0.4-3.4,1.8-3.4,2.4c0.6,0.5,1.6,0.7,2.9,0.5c2.2-0.4,3.4-1.8,3.4-2.3v0c0,0,0-0.1-0.1-0.2
		C86.3,75,85.7,74.8,84.9,74.8z M45,82c-0.6,0-1.3-0.1-1.9-0.2c-3.9-0.8-6.8-3.6-6.6-6.5v0c0.1-1.3,0.7-2.4,1.7-3.2
		c1.5-1.2,3.7-1.6,6.1-1.1c4,0.8,6.8,3.6,6.6,6.6c-0.1,1.2-0.7,2.4-1.7,3.2C48.1,81.5,46.6,82,45,82z M42.3,74.8
		c-0.8,0-1.4,0.2-1.7,0.4c0,0-0.1,0-0.1,0.1c0,0-0.1,0.1-0.1,0.1c0,0.6,1.3,1.9,3.4,2.4c1.3,0.3,2.4,0.1,2.8-0.3
		c0.2-0.8-1.1-2.1-3.2-2.5C43,74.9,42.6,74.8,42.3,74.8z M63.6,70.6c-16.7,0-20.5-0.9-22.3-2.8c-0.7-0.8-1.1-1.7-1.1-2.9l0.5-14
		c0.2-1.2,0.9-2.3,2.3-2.6c6.4-1.5,14.4-1.7,20.6-1.8h0c6.2,0,14.2,0.2,20.7,1.8c1.3,0.3,2.1,1.4,2.2,2.5L87,64.9
		c0,1.2-0.3,2.1-1.1,2.9C84.1,69.7,80.3,70.6,63.6,70.6z M44.7,52.1l-0.5,12.9c0.9,0.9,7.4,1.5,19.3,1.5C75.5,66.5,82,66,83,65
		l-0.6-12.9c-6-1.3-13.2-1.5-18.9-1.5C57.9,50.7,50.7,50.9,44.7,52.1z"/>
</g>
</svg>
