<svg version="1.1" id="Calque_1" xmlns="http://www.w3.org/2000/svg" xmlns:xlink="http://www.w3.org/1999/xlink" x="0px" y="0px"
	 viewBox="0 0 500 533.3" style="enable-background:new 0 0 500 533.3;" xml:space="preserve">
<g>
	<path class="st0" d="M416.7,527.8H88.9V5.6h327.8C462.6,5.6,500,43,500,88.9v355.5C500,490.4,462.6,527.8,416.7,527.8z
		 M122.2,494.4h294.4c27.6,0,50-22.4,50-50V88.9c0-27.6-22.4-50-50-50H122.2V494.4z"/>
	<path class="st0" d="M294.4,255.6c-36.8,0-66.7-29.9-66.7-66.7s29.9-66.7,66.7-66.7s66.7,29.9,66.7,66.7S331.2,255.6,294.4,255.6z
		 M294.4,144.4c-24.5,0-44.5,19.9-44.5,44.4s19.9,44.4,44.5,44.4c24.5,0,44.4-19.9,44.4-44.4S318.9,144.4,294.4,144.4z"/>
	<path class="st0" d="M405.6,422.7h-22.2c0-67-39.9-88.9-88.9-88.9s-88.9,21.9-88.9,88.9h-22.2c0-67,49.8-111.1,111.1-111.1
		C355.7,311.6,405.6,355.7,405.6,422.7z"/>
	<polygon class="st0" points="0,0 16.6,0 33.3,0 33.3,266.6 33.3,533.3 16.6,533.3 0,533.3 0,266.6 	"/>
</g>
</svg>
