<svg viewBox="0 0 40 21" version="1.1" xmlns="http://www.w3.org/2000/svg" xmlns:xlink="http://www.w3.org/1999/xlink">
    <g id="Activité" stroke="none" stroke-width="1" fill="none" fill-rule="evenodd">
        <g id="Reco-Visuel" transform="translate(-245.000000, -2103.000000)">
            <g id="Group-19" transform="translate(245.000000, 2103.000000)">
                <path d="M21.308363,5.59447583 C21.4044484,6.41305712 22.1352313,6.83992467 22.98879,6.83992467 C24.2549822,6.83992467 24.5960854,6.1920904 24.5960854,5.74011299 C24.5960854,5.23791588 24.2549822,4.93157564 23.1601423,4.65536723 L21.7455516,4.28876334 C20.544484,3.97740113 20.0960854,3.22912743 20.0960854,2.32015066 C20.0960854,1.05963591 21.1049822,0 22.98879,0 C25.0658363,0 25.7811388,1.2354049 25.7811388,2.38041431 L24.4738434,2.38041431 C24.36121,1.51161331 23.897331,1.08976773 22.9578292,1.08976773 C22.0717082,1.08976773 21.4951957,1.58694288 21.4951957,2.18957941 C21.4951957,2.61644696 21.7455516,2.93785311 22.4021352,3.1136221 L24.3024911,3.62586315 C25.5788256,3.97740113 26,4.64030132 26,5.62460766 C26,7.17639674 24.5480427,8 23.0539146,8 C21.1530249,8 20.0480427,7.04582549 20,5.59447583 L21.308363,5.59447583 Z" id="Fill-1" fill="#FFFFFF"></path>
                <path d="M29.3137011,5.59447583 C29.4044484,6.41305712 30.1352313,6.83992467 30.9951957,6.83992467 C32.2549822,6.83992467 32.5966192,6.1920904 32.5966192,5.74011299 C32.5966192,5.23791588 32.2549822,4.93157564 31.1660142,4.65536723 L29.7460854,4.28876334 C28.5503559,3.97740113 28.0966192,3.22912743 28.0966192,2.32015066 C28.0966192,1.05963591 29.1103203,0 30.9951957,0 C33.0658363,0 33.7811388,1.2354049 33.7811388,2.38041431 L32.4738434,2.38041431 C32.3670819,1.51161331 31.897331,1.08976773 30.9631673,1.08976773 C30.0770463,1.08976773 29.5005338,1.58694288 29.5005338,2.18957941 C29.5005338,2.61644696 29.7460854,2.93785311 30.4021352,3.1136221 L32.3030249,3.62586315 C33.5788256,3.97740113 34,4.64030132 34,5.62460766 C34,7.17639674 32.5539146,8 31.0592527,8 C29.1530249,8 28.0480427,7.04582549 28,5.59447583 L29.3137011,5.59447583 Z" id="Fill-3" fill="#FFFFFF"></path>
                <path d="M27,13.0035121 L27,14.3448585 C26.8007843,14.2984273 26.5926797,14.2726321 26.3783007,14.2726321 C25.2321569,14.2726321 24.469281,15.1032351 24.469281,16.5374439 L24.469281,21 L23,21 L23,13.1428058 L24.469281,13.1428058 L24.469281,14.1023843 L24.5011765,14.1023843 C25.185098,12.8796956 26.1372549,13.0035121 27,13.0035121" id="Fill-5" fill="#C7D300"></path>
                <polygon id="Fill-7" fill="#C7D300" points="8.5895202 21 6.51641414 14.754432 6.48303872 14.754432 4.39844276 21 2.90475589 21 0 13 1.53143939 13 3.62150673 18.7885752 3.65433502 18.7885752 5.72853535 13 7.26544613 13 9.33964646 18.7885752 9.37247475 18.7885752 11.4619949 13 13 13 10.0832071 21"></polygon>
                <path d="M20.4644809,17.007533 C20.4644809,15.4256121 19.0923497,14.2354049 17.4967213,14.2354049 C15.9071038,14.2354049 14.5349727,15.4256121 14.5349727,17.007533 C14.5349727,18.4739485 15.9071038,19.7645951 17.4967213,19.7645951 C19.0923497,19.7645951 20.4644809,18.4739485 20.4644809,17.007533 M13,17.007533 C13,14.8531073 14.8797814,13 17.4967213,13 C20.1147541,13 22,14.8531073 22,17.007533 C22,19.1920904 20.2131148,21 17.4967213,21 C14.7868852,21 13,19.1920904 13,17.007533" id="Fill-9" fill="#C7D300"></path>
                <path d="M31,19.5066905 L30.5565465,19.5066905 C30.071537,19.5066905 29.5882353,19.190901 29.5882353,18.2702944 L29.5882353,9 L28,9 L28,18.2702944 C28,20.1436218 29.326945,21 30.5565465,21 L31,21 L31,19.5066905 Z" id="Fill-11" fill="#C7D300"></path>
                <path d="M19,4.00753296 C19,1.85310734 17.1153005,0 14.4972678,0 C11.8803279,0 10,1.85310734 10,4.00753296 C10,6.1920904 11.7874317,8 14.4972678,8 C15.4153005,8 16.2295082,7.78907721 16.9016393,7.43251726 L16.9016393,5.58443189 C16.3551913,6.28750785 15.4704918,6.7645951 14.4972678,6.7645951 C12.9016393,6.7645951 11.5300546,5.47394852 11.5300546,4.00753296 C11.5300546,2.42561205 12.9016393,1.2354049 14.4972678,1.2354049 C16.0934426,1.2354049 17.4644809,2.42561205 17.4644809,4.00753296 L17.4644809,7.7740113 L18.9945355,7.7740113 L18.9945355,4.01255493 L19,4.00753296 Z" id="Fill-13" fill="#FFFFFF"></path>
                <path d="M1,4.17801047 C1,1.92670157 2.88584447,0 5.5,0 C8.11907655,0 10,1.92670157 10,4.17801047 C10,6.45549738 8.21148238,8.33507853 5.5,8.33507853 C4.58140948,8.33507853 3.77217497,8.12041885 3.09416768,7.7486911 L3.09963548,5.82198953 C3.64641555,6.55497382 4.53219927,7.05235602 5.5,7.05235602 C7.09659781,7.05235602 8.4690158,5.70680628 8.4690158,4.17801047 C8.4690158,2.52879581 7.09659781,1.28272251 5.5,1.28272251 C3.90340219,1.28272251 2.5309842,2.52879581 2.5309842,4.17801047 L2.5309842,12 L1,12 L1,4.17801047 Z" id="Fill-15" fill="#FFFFFF"></path>
                <path d="M40,16.8219895 C40,19.0680628 38.1143221,21 35.4975411,21 C32.8802137,21 31,19.0680628 31,16.8219895 C31,14.5445026 32.7867768,12.6596859 35.4975411,12.6596859 C36.4149718,12.6596859 37.2296764,12.8795812 37.9017667,13.2513089 L37.9017667,15.1780105 C37.3553518,14.4450262 36.4696133,13.947644 35.4975411,13.947644 C33.9020096,13.947644 32.5305082,15.2931937 32.5305082,16.8219895 C32.5305082,18.4712042 33.9020096,19.7120419 35.4975411,19.7120419 C37.0930727,19.7120419 38.4640277,18.4712042 38.4640277,16.8219895 L38.4640277,9 L40,9 L40,16.8167539 L40,16.8219895 Z" id="Fill-17" fill="#C7D300"></path>
            </g>
        </g>
    </g>
</svg>
