<svg viewBox="0 0 501 329" version="1.1" xmlns="http://www.w3.org/2000/svg" xmlns:xlink="http://www.w3.org/1999/xlink">
    <defs></defs>
    <g id="Page-1" stroke-width="1" fill-rule="evenodd">
        <g id="paymentPlan">
            <path d="M460.5,0 L39.5,0 C17.8,0 0,17.8 0,39.5 L0,289.5 C0,311.2 17.8,329 39.5,329 L460.6,329 C482.3,329 500.1,311.2 500.1,289.5 L500.1,39.5 C500,17.8 482.2,0 460.5,0 Z M480.3,289.5 C480.3,300.4 471.4,309.2 460.6,309.2 L39.5,309.2 C28.6,309.2 19.8,300.3 19.8,289.5 L19.8,39.5 C19.8,28.6 28.7,19.8 39.5,19.8 L460.6,19.8 C471.5,19.8 480.3,28.7 480.3,39.5 L480.3,289.5 Z" id="Shape" fill-rule="nonzero"></path>
            <rect id="Rectangle-path" fill-rule="nonzero" x="13.2" y="75.7" width="473.7" height="19.7"></rect>
            <path d="M158.266613,144.983458 L149.451853,164.321963 C144.654681,159.105038 136.97932,156.496615 126.42554,156.496615 C111.134553,156.496615 100.670878,165.850961 95.0342003,184.559933 L141.176772,184.559933 L136.229713,198.14186 L92.4257509,198.14186 C92.2458569,200.540446 92.1559113,202.909014 92.1559113,205.247636 C92.1559113,207.706187 92.2458569,210.104737 92.4257509,212.443358 L130.473134,212.443358 L125.616022,226.025285 L94.9442538,226.025285 C100.04125,242.815388 109.995233,251.210314 124.806503,251.210314 C136.799434,251.210314 145.644088,246.922906 151.34073,238.34796 L151.34073,262.99331 C144.264901,268.989776 134.850591,271.987963 123.097519,271.987963 C109.065789,271.987963 97.5827301,267.730537 88.6479965,259.215556 C80.3728741,251.300221 74.8262266,240.236908 72.0078878,226.025285 L60.5846781,226.025285 L60.5846781,212.443358 L70.2089572,212.443358 C69.8491692,207.406327 69.8191874,202.639209 70.1190106,198.14186 L60.5846781,198.14186 L60.5846781,184.559933 L72.0078878,184.559933 C75.1260499,170.408274 81.0924436,158.955197 89.9072479,150.200357 C99.5615575,140.546048 111.284472,135.718966 125.076342,135.718966 C138.868213,135.718966 149.931526,138.807099 158.266613,144.983458 Z" id="€"></path>
            <rect id="Rectangle-path" fill-rule="nonzero" x="197.4" y="154.6" width="236.8" height="19.7"></rect>
            <rect id="Rectangle-path" fill-rule="nonzero" x="197.4" y="194.1" width="236.8" height="19.7"></rect>
            <rect id="Rectangle-path" fill-rule="nonzero" x="197.4" y="233.6" width="140.4" height="19.7"></rect>
        </g>
    </g>
</svg>
