<svg xmlns="http://www.w3.org/2000/svg" viewBox="0 0 500 235.9"><g><path d="M277.9 145.3c.7 3.4 1.1 6.9 1.1 10.4 0 2.9-.3 5.8-.8 8.7-.5 2.9-1.3 5.8-2.4 8.5-2.3 5.5-6.3 10.5-11.4 13.8-5.1 3.3-10.9 5.2-16.9 5.6-1.5.1-3 .1-4.5.1-1.5-.1-3.1-.3-4.6-.7-3-.7-5.8-1.9-8.4-3.5-2.6-1.6-5-3.6-7-5.9-2-2.4-3.6-5.2-4.5-8.3-1.8-6.2-.7-12.9 2.6-18.3 1.7-2.7 3.9-5.1 6.7-6.8 2.7-1.8 5.9-2.8 9.1-3.1 3.1-.3 6.5 0 9.5 1.2 3.1 1.2 5.8 3.1 7.9 5.7.5.6 1.6 2 2.5 4.1.9 2.1 1.6 5 1.1 7.9-.4 2.9-2.1 5.5-3.7 6.9-1.6 1.4-2.9 2-3.1 2.1-2.2 1.1-2.6 0-1.9-.9.5-.7 2-1.7 3.3-3.5 1.4-1.7 2.3-4.3 2.1-6.8-.2-2.5-1.3-4.8-2.4-6.4-1.2-1.6-2.3-2.6-2.7-2.9-2-1.7-4.4-2.8-6.9-3.3s-5.2-.4-7.7.2c-5 1.2-9.2 4.9-11.3 9.5-2.2 4.6-2.4 10.1-.5 14.7 1.9 4.7 5.8 8.4 10.3 10.7 2.3 1.2 4.7 2.1 7.1 2.5 2.4.4 5 .3 7.6.1 5.1-.6 10-2.4 14.1-5.3s7.2-7 9-11.7c1.8-4.6 2.5-9.9 2.5-15 .1-10.5-3.6-20.8-9.9-29.3-6.3-8.5-14.9-15.2-24.3-20.2-9.5-5-34.5-14.4-62.4-13.6C145 93.5 104.8 109.2 25 48c7.6 19 20.1 44 17.3 62.8-2.6 19-42.3 50.3-42.3 50.3s161.4-30 215.7 1.3c-37.2-6.5-48.5 13.9-85.1 7.5 26.7 35 110.4 62.8 168.2 23.4-2.9-15.1-10-32.6-20.9-48zM399.8 26.7c-26.4 21.6-42.2 49.2-43.7 76.8-1.1 19.9 5.3 37.7 17.6 48.8 16 14.5 35 18.3 52 10.3 15.5-7.3 26-23 25.4-38.3-.8-19.8-14.5-31.7-27-34.3-10.3-2.2-19.6 1.6-25.8 10.2 2-1.1 4.4-1.7 6.9-1.8 9.5-.4 18.3 6.7 19.7 15.8 1.4 9.1-5.2 16.9-14.8 17.3-9.8.4-17-6.6-19.8-14.4-1.1-3.1-1.4-8.3.7-13.3 5.7-13.8 20-21.1 33.9-18.2 14.1 2.9 29.7 16.2 30.6 38.5.7 17-10.8 34.5-27.9 42.5-6.5 3-13.2 4.5-20 4.5-12.7 0-25.5-5.3-36.9-15.6-13.2-12-20.2-31-19-52.3 1.6-29.5 18.6-58.8 47-81.4C387.3 8.5 361.9.2 315.5 0c-95.6-.3-178.9 46.9-198.6 64.2 32 7 34.6 20.4 49.6 23.2 8.5 1.6 24.3 0 45.6 4.6 10.6 2.3 21.2 5.7 30.9 10.9 8 4.3 18.5 11.6 24.3 19.9-1.7-5.8-2-15.2-.9-21.8 5.1-31.5 31.1-27.1 31.6-50.9.2-8.8-10.9-1.5-13.3 1.3-5.9-6.2-13.4 3.3-20.2 2.3-2.8-.4-6.2-2.6-7.3-6.5 1.1.1 2.2.2 3.2.2 7.8-3.2 17.6-7.2 15.9-18.7.8-.7 2.1-.8 3-1.4 0 .6-.1 1.3-.1 1.9.8-.9 2.7-1.6 4.3-.6 1.3 1-.2 3.2 0 3.8 4.5-.3 4.9-6.9.2-7.5-1 .3-1.9.8-3 1.1.1-1.8-.8-2.9-.3-5.1 1.4-.4 3.8.2 4-1.6-.3-1.9-1.6-2.9-1.9-4.9 1.7-.4 2.8 1.2 3.5.6-1.7-3.4 1.5-6.3 4.1-7-.3 1.8-1.8 4.5.2 5.4 1-4.8 4.8-6.4 9.9-6.6-.4 1.8-3.9 4-1.8 7.1 2.5-4 7.1-5.6 13.6-5-1.7 3-4.7 6.2-4.6 10.1 3.9-2 10.7-1 9 5.1 2.9 3.2 9.4 11.1 8.9 27.6-.9 26.7-24.9 34.1-24.7 66.4.2 31.9 24.2 61.4 2 93.1-3.4 4.9-10.1 14.5-11 21.4C397.5 256 485.7 156.1 500 116.5c-39.3-6.3-65.1-79.2-100.2-89.8z"/></g></svg>
