<svg viewBox="0 0 500 366" version="1.1" xmlns="http://www.w3.org/2000/svg" xmlns:xlink="http://www.w3.org/1999/xlink">
    <defs></defs>
    <g id="Page-1" stroke-width="1" fill-rule="evenodd">
        <path d="M447.231129,71.3653954 L426.63147,41.8675855 C425.682842,40.5091941 426.015009,38.6389865 427.37339,37.6903431 L445.809786,24.815 C455.312786,18.178 468.398786,20.502 475.035786,30.006 C481.671786,39.51 479.348786,52.595 469.844786,59.232 L451.40839,72.1073431 C450.049999,73.055994 448.179771,72.7238335 447.23112,71.3654419 C447.231114,71.3654328 447.231108,71.3654237 447.231101,71.3654145 Z M436.441786,110.902 L436.348786,111.424 L401.95415,135.443815 C400.595755,136.392462 398.725529,136.060296 397.776882,134.701902 C397.772066,134.695007 397.76728,134.688091 397.762522,134.681155 L350.697504,66.0652293 C349.765884,64.7070234 350.103453,62.8517188 351.453776,61.9087084 L385.889786,37.86 C390.653786,34.603 397.149786,35.756 400.502786,40.456 L439.129786,95.768 C442.600786,100.482 441.587786,107.123 436.871786,110.594 C436.730786,110.698 436.583786,110.8 436.441786,110.902 Z M115.662122,331.71459 L68.0264823,263.504458 C67.077829,262.146068 67.409986,260.27584 68.7683759,259.327186 C68.7693337,259.326518 68.770292,259.325849 68.7712506,259.325181 L329.256012,77.8638539 C330.61441,76.9175541 332.482598,77.2504983 333.43045,78.607813 L349.310104,101.347413 C350.258709,102.705805 349.926533,104.575993 348.568161,105.524628 L241.631786,180.205 C236.932786,183.557 235.779786,190.052 239.037786,194.817 C242.387786,199.516 248.883786,200.67 253.650786,197.412 L360.585215,122.732706 C361.943598,121.784058 363.813816,122.116207 364.762474,123.474583 L380.64404,146.215237 C381.591937,147.572523 381.261187,149.441104 379.904984,150.39055 L119.842218,332.454508 C118.484919,333.404721 116.614311,333.074714 115.664097,331.717415 C115.663438,331.716474 115.66278,331.715532 115.662122,331.71459 Z M40.0639974,340.601316 L33.8143734,330.086013 C33.32507,329.262735 33.2582424,328.255318 33.6345118,327.374622 L51.6051832,285.3125 C52.2561373,283.788878 54.0189798,283.081441 55.542602,283.732395 C56.0585306,283.952821 56.5023097,284.313505 56.8235392,284.773485 L91.836889,334.910311 C92.7855331,336.268707 92.4533634,338.138933 91.0949671,339.087577 C90.6349546,339.408829 90.09407,339.594639 89.5337501,339.6239 L42.799353,342.064499 C41.6865909,342.122611 40.6332948,341.559187 40.0639974,340.601316 Z M492.362786,18.159 C492.323786,18.102 492.281786,18.045 492.242786,17.989 C479.049786,-1.005 452.956786,-5.706 433.961786,7.487 C433.905786,7.527 433.849786,7.567 433.792786,7.607 L412.281786,22.628 C401.236786,13.54 385.480786,12.945 373.779786,21.174 L45.6877856,249.843 C44.0797856,251.06 42.8527856,252.709 42.1497856,254.598 L0.960785552,350.107 C-1.47121445,355.433 0.872785552,361.723 6.19778555,364.155 C6.95178555,364.501 7.74478555,364.756 8.55978555,364.916 L11.1687856,365.379 L115.020786,359.599 C117.035786,359.589 119.006786,359.006 120.703786,357.916 L448.366786,128.632 C460.121786,120.482 464.988786,105.484 460.259786,91.983 L481.863786,76.44 C500.855786,63.246 505.557786,37.152 492.362786,18.159 Z"></path>
    </g>
</svg>
