<svg id="Calque_1" data-name="Calque 1" xmlns="http://www.w3.org/2000/svg" viewBox="0 0 100 100"><defs></defs><title>people-baby</title><path class="cls-1" d="M29.23,41.79A16.52,16.52,0,1,0,12.72,25.27,16.54,16.54,0,0,0,29.23,41.79Zm0-30A13.52,13.52,0,1,1,15.72,25.27,13.53,13.53,0,0,1,29.23,11.76Z"/><path class="cls-1" d="M29.23,45.23A25.83,25.83,0,0,0,3.43,71V96.25a1.5,1.5,0,0,0,3,0V71A22.8,22.8,0,1,1,52,71V96.25a1.5,1.5,0,0,0,3,0V71A25.83,25.83,0,0,0,29.23,45.23Z"/><path class="cls-1" d="M74.05,20.85a10.2,10.2,0,1,0-10.2-10.2A10.22,10.22,0,0,0,74.05,20.85Zm0-17.4a7.2,7.2,0,1,1-7.2,7.2A7.21,7.21,0,0,1,74.05,3.45Z"/><path class="cls-1" d="M96.32,35.7a4.58,4.58,0,0,0,1.29-3.31,4.63,4.63,0,0,0-1.49-3.3L84.8,19.29a1.5,1.5,0,0,0-2,2.27L94.1,31.3a1.66,1.66,0,0,1,.51,1.16,1.61,1.61,0,0,1-.46,1.17,1.63,1.63,0,0,1-2.32,0,1.64,1.64,0,0,0-.26-.2L84.12,29a1.5,1.5,0,0,0-2.27,1.44l1,10.18h0c.08.45.82,1.51,7.54,11.17l-4.36,8.47a1.64,1.64,0,0,1-2.24.61,1.64,1.64,0,0,1-.77-1,1.59,1.59,0,0,1,.13-1.2l3.22-5.11a1.49,1.49,0,0,0-.07-1.69l-3.15-4.26a1.5,1.5,0,0,0-1.87-.45c-1.22.6-4.91,2.16-7.29,2.16s-6.13-1.56-7.36-2.16a1.49,1.49,0,0,0-1.86.45l-3.16,4.26a1.51,1.51,0,0,0-.06,1.69l3.18,5.06A1.64,1.64,0,0,1,62,60.28l-4.39-8.52c7.19-10.22,7.58-10.79,7.6-11.25l.89-9.87a.66.66,0,0,0,0-.14v-.26a1.48,1.48,0,0,0-.76-1.3,1.5,1.5,0,0,0-1.52,0l-7.45,4.52a1.28,1.28,0,0,0-.26.2,1.57,1.57,0,0,1-1.18.46,1.65,1.65,0,0,1-1.15-2.78l11.32-9.8a1.5,1.5,0,0,0-2-2.27L51.72,29.14A4.64,4.64,0,0,0,58,36l4.81-2.92-.62,6.86c-.93,1.35-4.91,7-7.62,10.86a1.49,1.49,0,0,0-.1,1.55l4.83,9.4a4.64,4.64,0,1,0,8-4.68l-2.67-4.25,1.82-2.46a21.71,21.71,0,0,0,7.54,2,21.54,21.54,0,0,0,7.47-2l1.82,2.46-2.7,4.29a4.65,4.65,0,0,0,4,7,5.17,5.17,0,0,0,1.22-.16,4.74,4.74,0,0,0,2.85-2.23l4.8-9.34a1.5,1.5,0,0,0-.1-1.54L85.82,39.89l-.69-6.8L89.89,36A4.65,4.65,0,0,0,96.32,35.7Z"/></svg>
