<svg viewBox="0 0 290 501" version="1.1" xmlns="http://www.w3.org/2000/svg" xmlns:xlink="http://www.w3.org/1999/xlink">
    <defs></defs>
    <g id="Page-1" stroke-width="1" fill-rule="evenodd">
        <g id="people" fill-rule="nonzero">
            <path d="M144.800851,205.900778 C64.9432274,206.015106 0.234327482,270.724006 0.12,350.581629 L0.12,492.61588 C0.12,496.914931 3.60506941,500.4 7.90412039,500.4 C12.2031714,500.4 15.6882408,496.914931 15.6882408,492.61588 L15.6882408,350.581629 C15.6882419,279.274705 73.4939261,221.469021 144.800851,221.469021 C216.107776,221.469021 273.91346,279.274705 273.913461,350.581629 L273.913461,492.61588 C273.913461,496.914931 277.398531,500.4 281.697582,500.4 C285.996633,500.4 289.481702,496.914931 289.481702,492.61588 L289.481702,350.581629 C289.367375,270.724006 224.658475,206.015106 144.800851,205.900778 Z M144.800851,185.143124 C195.816256,185.143124 237.172413,143.786967 237.172413,92.771562 C237.172413,41.756157 195.816256,0.4 144.800851,0.4 C93.785446,0.4 52.4292891,41.756157 52.4292891,92.771562 C52.4864867,143.763256 93.8091569,185.085926 144.800851,185.143124 Z M144.800851,15.9682408 C187.218154,15.9682408 221.604172,50.354259 221.604172,92.771562 C221.604172,135.188865 187.218154,169.574883 144.800851,169.574883 C102.383548,169.574883 67.9975298,135.188865 67.9975298,92.771562 C68.0547027,50.3779633 102.407252,16.0254136 144.800851,15.9682408 Z" id="Shape"></path>
        </g>
    </g>
</svg>
