<?xml version="1.0" encoding="UTF-8"?>
<svg viewBox="0 0 437 501" version="1.1" xmlns="http://www.w3.org/2000/svg" xmlns:xlink="http://www.w3.org/1999/xlink">
    <!-- Generator: Sketch 51.3 (57544) - http://www.bohemiancoding.com/sketch -->
    <title>%</title>
    <desc>Created with Sketch.</desc>
    <defs></defs>
    <g id="Page-1" stroke="none" stroke-width="1" fill="none" fill-rule="evenodd">
        <path d="M0.712158203,115.137904 C0.712158203,81.6058587 10.5289583,54.1960292 30.1628531,32.9075927 C49.7967479,11.6191562 74.9454044,0.975097656 105.609577,0.975097656 C135.832539,0.975097656 159.933335,11.5640057 177.912688,32.7421394 C195.892041,53.920273 204.881582,83.4809746 204.881582,121.425131 C204.881582,156.72202 195.395686,185.069409 176.423608,206.468149 C157.451529,227.866888 132.854379,238.566097 102.631417,238.566097 C34.6849047,238.566097 0.712158203,197.423777 0.712158203,115.137904 Z M62.2608015,118.446971 C62.2608015,140.507527 65.7904375,157.4939 72.8498154,169.4066 C79.9091933,181.3193 88.8435844,187.275561 99.6532568,187.275561 C128.773191,187.275561 143.332939,164.443228 143.332939,118.777877 C143.332939,74.6567654 130.427708,52.5965404 104.616857,52.5965404 C76.3793455,52.5965404 62.2608015,74.5464643 62.2608015,118.446971 Z M101.30779,500.975098 L36.4500801,500.975098 L340.222416,0.975097656 L404.74922,0.975097656 L101.30779,500.975098 Z M232.346837,377.546904 C232.346837,344.014859 242.163637,316.60503 261.797532,295.316593 C281.431427,274.028157 306.580083,263.384098 337.244256,263.384098 C367.467218,263.384098 391.568014,273.973006 409.547367,295.15114 C427.52672,316.329274 436.516261,345.779674 436.516261,383.503225 C436.516261,418.800114 427.030365,447.202654 408.058287,468.711696 C389.086209,490.220738 364.489058,500.975098 334.266096,500.975098 C266.319584,500.975098 232.346837,459.832778 232.346837,377.546904 Z M293.895481,380.525065 C293.895481,402.58562 297.369966,419.571994 304.319041,431.484694 C311.268116,443.397394 320.257658,449.353655 331.287936,449.353655 C360.40787,449.353655 374.967618,426.521322 374.967618,380.855971 C374.967618,336.734859 362.062387,314.674634 336.251536,314.674634 C308.014025,314.674634 293.895481,336.624558 293.895481,380.525065 Z" id="%" fill="#FFFFFF"></path>
    </g>
</svg>
