<svg xmlns="http://www.w3.org/2000/svg" viewBox="0 0 16 16">
  <g fill-rule="evenodd" transform="translate(1 3)">
    <path d="M10.0271195,2.87793772 C10.1975624,2.87793772 10.3702604,2.89192895 10.5402336,2.91952544 C11.4014685,3.05885877 12.158502,3.53446404 12.6716161,4.2586307 C12.8578443,4.5215693 13.0026362,4.80631491 13.1066497,5.10418333 C12.0120188,4.19764825 10.6035624,3.90894649 8.97589799,4.27049912 C8.17658255,4.44794649 7.4813745,4.74639386 7.00095839,4.98955175 C7.48362953,3.73275351 8.66085101,2.87793772 10.0271195,2.87793772 M10.0363275,9.58407807 C9.8657906,9.58407807 9.69328054,9.57008684 9.52358926,9.54268333 C9.10903893,9.47552544 8.71995168,9.32885877 8.3692,9.11590263 C8.35397852,9.00792895 8.32832752,8.90034123 8.29121342,8.7950693 C8.14924027,8.38874474 7.86332081,8.06443772 7.48804564,7.87907807 C7.37106577,7.82205175 7.25042148,7.78297281 7.12874362,7.75730614 C6.9986094,7.49774474 6.90220671,7.2242886 6.84254228,6.94166579 C7.41052886,6.64717456 9.83534765,5.48233246 11.5416564,6.11155175 C12.2144081,6.3596307 12.6842067,6.84942018 12.9783946,7.60890263 C12.9829987,7.62038509 12.9905154,7.62926228 12.996247,7.63987632 C12.4762738,8.80529737 11.3414282,9.58427105 10.0363275,9.58407807 M13.2597101,6.72137632 C12.8956161,6.13567456 12.3932134,5.72211316 11.759643,5.48850789 C9.97412617,4.83024474 7.65595168,5.80635 6.77028725,6.2397886 C6.77028725,6.11232368 6.77771007,5.98418333 6.79180403,5.85565702 C7.11587114,5.66122719 8.02859597,5.15522719 9.12914631,4.91380614 C10.8846899,4.52870965 12.2848779,4.97073596 13.2933477,6.22454298 C13.2931597,6.38954298 13.2837638,6.55531491 13.2597101,6.72137632 M6.17439463,5.58615702 C6.17392483,5.58808684 6.17354899,5.58982368 6.17317315,5.59146404 C6.17242148,5.59648158 6.17110604,5.60111316 6.17044832,5.60574474 C6.05591141,6.35142895 6.14930738,7.09643772 6.42658255,7.77535 C5.99511946,7.88998158 5.61411275,8.19151667 5.40787114,8.63576228 L5.40768322,8.63653421 C5.0458443,9.4165693 5.34745503,10.3487711 6.07864966,10.756736 C6.10289128,10.7696658 6.12760268,10.7832711 6.15306577,10.7959114 C6.52721342,10.9790518 6.95078389,11.0011482 7.34466309,10.8576658 C7.73901208,10.7138939 8.05434094,10.4236482 8.23324027,10.0380693 C8.26368322,9.97216579 8.28792483,9.90452544 8.30944161,9.83620965 C8.65662282,10.0104728 9.03067651,10.1330167 9.42295839,10.1966044 C9.62609933,10.2295079 9.83224698,10.2461044 10.0363275,10.2461044 C11.9698309,10.2461044 13.5920456,8.82035 13.8933745,6.85627105 C14.0560188,5.79718333 13.8073074,4.73626228 13.1927168,3.86909561 C12.578502,3.00173596 11.6719785,2.43243772 10.6405826,2.2654114 C10.4376295,2.23250789 10.2310121,2.21581491 10.0271195,2.21581491 C8.10019329,2.21581491 6.48371007,3.63220965 6.17439463,5.58615702"/>
    <path d="M0.731025503,3.36670439 C0.890944966,2.65768684 1.26368322,2.03782719 1.79267651,1.57370439 C1.83768322,1.61027456 1.89208591,1.63555526 1.95334765,1.64298509 C1.9625557,1.64404649 2.58964295,1.72780088 3.28494497,2.16046754 C2.70953557,2.44154649 2.23109262,2.77762544 1.8533745,3.09691491 C1.31498523,3.55225702 0.91781745,4.01850263 0.654072483,4.37272193 C0.63077047,4.03953772 0.655481879,3.70123947 0.731025503,3.36670439 M4.66605906,0.847125439 C5.15803221,0.964265789 5.60340134,1.19130965 5.98158926,1.50355526 C5.24438121,1.52179211 4.58544161,1.65929211 4.00317315,1.86221316 C3.44918658,1.42809912 2.89012617,1.20356404 2.50780403,1.09192368 C3.17764295,0.760476316 3.93129396,0.671897368 4.66605906,0.847125439 M4.27171007,3.05368684 C5.03701208,4.05603772 5.32152215,5.47166053 5.11941477,7.26012544 C4.50623356,7.50704649 3.83423356,7.56281842 3.18431409,7.40814298 C2.33125369,7.20473947 1.60607248,6.67249386 1.14266309,5.90915175 C1.01760268,5.70295 0.91762953,5.4862307 0.839079195,5.26295 C0.978045638,5.02461667 1.96922685,3.41880965 3.87698523,2.61658158 C4.01332081,2.74549386 4.14646174,2.88965175 4.27171007,3.05368684 M3.03877047,8.05289737 C3.33277047,8.12304649 3.63071678,8.15768684 3.92734765,8.15768684 C4.5945557,8.15749386 5.2549047,7.98226579 5.84694497,7.64059035 C6.0022604,7.55114298 6.05732081,7.34909035 5.97003221,7.18987982 C5.92915973,7.11519561 5.86376376,7.06405526 5.79047517,7.03896754 C5.94851544,5.20264298 5.60668993,3.72246754 4.7712,2.63491491 C4.70242148,2.54508158 4.63157584,2.46026579 4.55950872,2.38008158 C5.16348188,2.21102895 5.84205906,2.12833596 6.59758926,2.18121316 C6.72509262,2.36695877 6.83897181,2.56505526 6.93039463,2.77926579 C7.00171007,2.94677456 7.19188456,3.02319561 7.35481074,2.94976579 C7.51792483,2.87652895 7.59224698,2.6812307 7.52083758,2.51372193 C7.02557584,1.35235351 6.01268993,0.488274561 4.81188456,0.202274561 C3.79082416,-0.0410763158 2.73856913,0.138686842 1.84924027,0.708081579 C0.95981745,1.27747632 0.339683221,2.16857281 0.102904698,3.21695 C-0.133873826,4.26542368 0.0409852349,5.34612544 0.59553557,6.25941491 C1.14999195,7.17280088 2.01761611,7.80983596 3.03877047,8.05289737"/>
  </g>
</svg>
