<svg version="1.1" id="Calque_1" xmlns="http://www.w3.org/2000/svg" xmlns:xlink="http://www.w3.org/1999/xlink" x="0px" y="0px"
	 viewBox="0 0 500 500" style="enable-background:new 0 0 500 500;" xml:space="preserve">
<g>
	<g id="D-Layer-Petit-Club-Med" transform="translate(-566.000000, -517.000000)">
		<path id="Fill-1" class="st0" d="M1012,821.8l-19.7-20l-6.2-10.2l-63.5-44.4L893,706.5c0,0-25.4-22.1-36.7-37.5
			c3,1.9,7.4,4,12,3.8c8.2-0.3,14.5-6.6,16.6-10.1c2-3.5,7.8-9.2,7.8-9.2l9.2-4.5c0,0,22.3-13.4,24.5-38.8
			c4-47.9-23.9-56.4-37.4-61.7c-13.5-5.3-43.8-2.8-56.6,4.7c-12.2,7.2-27.2,27.6-32.1,41.6c-3.6,4.7-10.1,11.9-17.4,13.2
			c0,0,11.8,20.4,23.3,26.2c-4.6,6.6-24.3-3.9-34.7-9.1c-2.7-1.3-13.5-6.5-24.1-13.3c-0.9-0.6-2.8,3.5-3.7,2.9
			c-37.6-24.2-87.2-50-87.2-50l-22.5-21.9l-31-25.7l-1.8,4.9l17.3,33.5l-10.1,0.5l-0.5,1.7l26.1,19.8l5.4-2.5
			c0,0,37.8,43.4,48.6,52.5c8,6.8,21.9,16.5,28.6,21.1l24.1-26.4l-20.4,29l-5.6,15.4l48,23.5c0,0-67.8,94.4-81.4,137
			c-9.6,29.9-11,59.6,15.4,71.6l-13.1,79.5c0,0-15.6,14.1-42.2,32.9c-11.5,10.6,49.4,5.3,71.6,0.3c9.6-16.9-1.8-29.9-1.8-29.9
			l38.1-79c6.2-0.8,12.8-1.9,19.9-3.4c4.1-0.8,8.3-1.6,12.7-2.3c10.6-2.1,33.8-4.3,41.6-4c-8.9,1.3-29.6,4.3-39.2,6.6
			c4.1,7.4,9.3,16.7,13.5,23.9c8.3,14.1,29.4,56.3,29.4,56.3s1.9,14.7,8.5,25.5c6.6,10.8,85.2,14.3,77.6,2
			c-51.4-26.7-59-34.5-59-34.5l-16-80.7c21.3-0.8,37.3-0.4,37.3-0.4s-26.8-39.7-32.1-70.6c-5.3-30.9,9.3-76.5,9.3-76.5l21.9,27.1
			l3.3-2.6c0.6-0.7,10.7-13.7,15.3-19.1c4.8-5.5,9.8-8.8,9.8-8.8s-16.7,21.5-21.5,27.8l98.4,47.7l1.3,0.7l14.5,20.9l5.4,1l0.9-10.9
			l22.4,27.9l6.8-1.1L1012,821.8z"/>
	</g>
</g>
</svg>
