<svg xmlns="http://www.w3.org/2000/svg" viewBox="0 0 500 401.9"><path d="M355.1.8c-40 4-62.8 34.9-66 64-3.9 34.5 9.5 57.7 37.3 69.2 22.7 9.4 48.1 1.6 59.4-10.8 4.6-5.1 7.8-11.5 9.4-18.2.4-1.7.6-3.4.8-5.1.1-1.7.1-3.3 0-5.1-.2-3.5-.8-6.9-1.7-10.3-1.9-6.7-5.4-12.9-10.2-17.6-4.8-4.7-11-7.8-17.6-8.8-6.6-1-14-.4-20.1 2-.7.3-2.3.9-4.2 2.1-1.8 1.1-3.8 2.7-5.3 4.6-3.2 3.7-4.4 8.6-4.5 9-.6 2.3-2.2 2.1-3 .7-.6-1-.7-3.3 0-6.1s2.3-6.2 4.7-8.9c2.4-2.8 5.5-4.9 8.2-6.2 2.7-1.3 4.8-1.9 5.6-2.2 3.7-1.1 7.6-1.6 11.4-1.7 3.9-.1 7.8.2 11.6 1.1 7.6 1.8 14.7 6 20 11.9 5.3 5.8 8.9 13.1 10.8 20.7.9 3.8 1.5 7.7 1.6 11.7.1 4-.4 8-1.4 11.9-2 7.7-5.9 15-11.4 20.8-5.5 5.9-12.6 10.3-20.1 12.9-7.6 2.6-15.5 3.7-23.4 3.7-7.9 0-15.9-1.2-23.5-3.9-7.7-2.9-14.9-7.3-20.9-13-6-5.6-10.6-12.5-14.5-19.7-10-18.3-16.3-70.5 26.7-100.7-17.6 5.3-108.1 32.1-172 51.1-71.7 21.3-131 65.4-131 145.2v173.3C3 385.4-.8 396.9.1 401.9h81.8c41.7-1.7 99.4-15.6 104.2-66.3-16.3 2.4-49.7 9.7-83.8 32.8.4-31 21.4-52.1 37.8-52.9 1.4-.1 2.7 0 4.1 0-37.8-16.5-79.6-49.2-84.3-108.8 38.1 53.6 77.6 32.1 103.1 63-7.6-16.3-20.4-30.2-39.2-42.4.5 1.3.4 2.6-.2 3.5-2.1 3.1-9.5 2.4-16.7-1.5-7.1-3.9-11.2-9.6-9.2-12.6 2.1-3 9.5-2.4 16.6 1.4l.1-.1c19.6 10.9 33.9 23.1 43.7 37.2-9.4-27-11.9-53.2-2-81.3h.1c2.2-6.4 6.5-10.7 10-10 3.9.8 5.5 7.4 3.5 14.7-1.9 7.3-6.7 12.5-10.6 11.7-1.6-.3-2.8-1.7-3.5-3.6-6.6 28.6-.4 55.8 12.2 84.4-1.6-7.9-2.5-16.2-2.5-24.9 0-48.2 24.4-46.3 29.6-87.2 5.2 40.9 29.6 39 29.6 87.2 0 8.7-1 17-2.5 24.9 12.6-28.6 18.8-55.8 12.2-84.4-.7 2-1.9 3.3-3.5 3.6-3.9.8-8.6-4.4-10.6-11.7-1.9-7.3-.4-13.9 3.5-14.7 3.6-.8 7.8 3.6 10 10h.1c9.9 28.1 7.4 54.3-2 81.3 9.8-14.1 24.2-26.2 43.8-37.2l.1.1c7.1-3.8 14.5-4.5 16.6-1.4 2.1 3.1-2 8.7-9.2 12.6-7.1 3.9-14.6 4.6-16.7 1.5-.7-1-.7-2.2-.2-3.5-18.7 12.3-31.5 26.1-39.2 42.4 25.5-31 65-9.4 103.1-63-4.7 59.6-46.5 92.3-84.3 108.8h4.1c16.4.8 37.4 21.9 37.8 52.9-35-23.6-69.2-30.8-85-32.9 4.7 48.1 60.3 63.5 102.1 66.5h85.1c1-7.3-5.2-18.6-11.6-23.7V183.9c94-.2 97 46 97 125.6 0 36.6-6.6 48.6-6.6 48.6H500V163.7C500 72.2 454.3-9.1 355.1.8m83 98.5c-4.5 0-8.2-3.7-8.2-8.2 0-4.5 3.7-8.2 8.2-8.2 4.5 0 8.2 3.7 8.2 8.2-.1 4.5-3.7 8.2-8.2 8.2"/></svg>
