<svg xmlns="http://www.w3.org/2000/svg" xmlns:xlink="http://www.w3.org/1999/xlink" viewBox="0 0 27 37">
  <defs>
    <filter id="a" width="167.2%" height="262.5%" x="-33.6%" y="-81.3%" filterUnits="objectBoundingBox">
      <feGaussianBlur in="SourceGraphic" stdDeviation="2"/>
    </filter>
    <path id="b" d="M0,10.0769231 C0,11.8258462 0.469661538,13.4615385 1.26916923,14.8843077 C1.40196923,15.1206154 1.54116923,15.3532308 1.69230769,15.5772308 L9.84615385,29.7692308 L18,15.5772308 C18.1255385,15.3913846 18.2338462,15.1944615 18.3458462,15 L18.4233846,14.8843077 C19.2221538,13.4615385 19.6923077,11.8258462 19.6923077,10.0769231 C19.6923077,4.63901538 15.2836923,0.230769231 9.84615385,0.230769231 C4.40824615,0.230769231 0,4.63901538 0,10.0769231 Z"/>
  </defs>
  <g fill-rule="evenodd" transform="translate(4)">
    <path d="M9.84615385,25.3846154 C14.7746667,25.3846154 18.7692308,27.0376615 18.7692308,29.0769231 C18.7692308,31.1161846 14.7746667,32.7692308 9.84615385,32.7692308 C4.91764103,32.7692308 0.923076923,31.1161846 0.923076923,29.0769231 C0.923076923,27.0376615 4.91764103,25.3846154 9.84615385,25.3846154 Z" filter="url(#a)" opacity=".2"/>
    <g fill-rule="nonzero">
      <use fill-rule="evenodd" xlink:href="#b"/>
      <path stroke="#FFFFFF" stroke-opacity=".7" d="M9.84619414,28.7656278 L17.5856711,15.297353 C17.662057,15.184272 17.7212141,15.0851244 17.8508476,14.8582096 C17.8517403,14.8566469 17.8517403,14.8566469 17.8526336,14.8550833 C17.8822576,14.8032288 17.8822576,14.8032288 17.930502,14.7216311 L17.9873955,14.6395353 C18.7724338,13.2412238 19.1923077,11.6856399 19.1923077,10.0769231 C19.1923077,4.91528818 15.0076804,0.730769231 9.84615385,0.730769231 C4.68438853,0.730769231 0.5,4.91515776 0.5,10.0769231 C0.5,11.6864042 0.919805859,13.241956 1.70505397,14.6393495 C1.84477741,14.887977 1.97469043,15.1017975 2.12584733,15.3281457 L9.84619414,28.7656278 Z"/>
    </g>
    <path fill="#FFFFFF" d="M9.84615385,6.38461538 C11.8855385,6.38461538 13.5384615,8.03766154 13.5384615,10.0769231 C13.5384615,12.1161846 11.8855385,13.7692308 9.84615385,13.7692308 C7.80676923,13.7692308 6.15384615,12.1161846 6.15384615,10.0769231 C6.15384615,8.03766154 7.80676923,6.38461538 9.84615385,6.38461538 Z" opacity=".7"/>
  </g>
</svg>
