<svg xmlns="http://www.w3.org/2000/svg" viewBox="0 0 500 313.5"><g><path d="M258.1 131.7h9.5v9.5h-9.5zM258.1 147.6h9.5v9.5h-9.5zM258.1 163.5h9.5v9.5h-9.5zM258.1 179.4h9.5v9.5h-9.5zM258.1 195.3h9.5v9.5h-9.5zM258.1 211.2h9.5v9.5h-9.5zM224.3 131.7h9.5v9.5h-9.5zM224.3 147.6h9.5v9.5h-9.5zM224.3 163.5h9.5v9.5h-9.5zM224.3 179.4h9.5v9.5h-9.5zM224.3 195.3h9.5v9.5h-9.5zM224.3 211.2h9.5v9.5h-9.5zM341.5 76.5h9.5V86h-9.5zM341.5 92.4h9.5v9.5h-9.5zM341.5 108.3h9.5v9.5h-9.5zM341.5 124.2h9.5v9.5h-9.5zM341.5 140.1h9.5v9.5h-9.5zM341.5 156.1h9.5v9.5h-9.5z"/><path d="M452 224.9c18.9-18.9 35.3-41.5 48-68.3l-65.6-70.2-16.4 18.4-33.6-37.1v127.7h-8.3s-10.2-115.1-11-119.9c-.8-5-4-4.5-4.6 0-3.2 26.5-10 119.9-10 119.9h-8.3S332 80.3 331.2 75.5c-.8-5-4-4.5-4.6 0-3.2 26.5-10 119.9-10 119.9h-7V61.5H379L323.3 0 220.2 96.5l-30.3-28.7S75.8 167.6 33.2 206.7C15.6 222.8-3.4 239.3.6 252.5c1.7 5.7 9.6 6.9 23.2 1 11.7-5.1 29.2-14.7 32.1-16.2 67.8-35.4 102.5-23.1 94.8-8.2-1.4 2.7-20 27.3-27.4 37.1-9.9 13.3-11.1 25.1-5.8 30.4 19.1 19.1 126.4 26.1 212-.8 71-22.3 119.1-58.5 125.6-92.6 1.5-7.7.3-15.7-3.3-22.4-1.7-3.5-4.1-6.5-7-8.7-2.9-2.2-6.5-3.6-10.1-4-3.6-.4-7.5.2-10.5 1.8-3.1 1.7-5.8 4.5-7.4 7.6-.8 1.6-1.3 3.2-1.4 4.8-.1.8 0 1.7.1 2.5s.3 1.6.6 2.3c1.2 3.1 3.7 5.9 6.7 7.3 1.5.7 3.1 1.1 4.7 1.1.8 0 1.6-.1 2.4-.3.8-.2 1.5-.4 2.1-.8 2.5-1.3 4.3-4.4 4.3-7.4 0-.3 0-1.2-.3-2.1-.2-.9-.8-1.9-1.5-2.7-1.4-1.6-3.9-2.1-4.1-2.2-1.1-.2-1-1.4-.3-2 .5-.4 1.8-.7 3.3-.3 1.6.3 3.4 1.3 4.7 2.9 1.3 1.6 2 3.6 2.2 5.3.2 1.7 0 2.9-.1 3.4-.7 4.3-3.7 8.4-8.1 9.9-2.1.7-4.4 1-6.6.7-2.2-.3-4.4-1-6.3-2.2-3.8-2.3-6.9-5.9-8.2-10.4-.8-2.9-.8-6.1.1-9v-21.7h-13.9c5.2-2.9 10.8-13.7 10.8-13.7h-6.5c1.8-1.2 4.2-4.3 5.8-6.7h-4c5.1-4.8 6.4-7.6 6.6-8h-4.4l10.4-16.8c.3.7 7.5 15.5 11.3 19.5h-5.6c.4.8 4.1 6.7 8.7 9.8h-6.5s3.4 4.6 7.9 7.9h-5.1c1.8 2.4 5.8 6.8 8.1 8h-14.1v9.2c.6-.4 1.3-.8 2-1.1 4.2-2 8.8-2.7 13.3-2.1 4.5.5 8.9 2.3 12.6 5.1 3.7 2.8 6.6 6.5 8.6 10.4 4.2 8.2 5.1 17.8 3.3 26.6-1.5 7.3-4.6 14.1-8.4 20.2zm-279.6-61.4l-2.5 4.4-10.6-6.1-12.2 7 12.2 7 10.6-6.1 2.5 4.4-8.1 4.7 8.8 5.1-2.7 4.8-8.7-5v9.3h-5.1v-12.2l-12.2-7v14.1L155 194l-2.5 4.4-8.1-4.7v10.1h-5.5v-10.1l-8 4.7-2.5-4.4 10.6-6.1v-14.1l-12.2 7V193h-5.1v-9.3l-8.8 5.1-2.7-4.8 8.7-5-8-4.6 2.5-4.4 10.6 6.1 12.2-7-12.2-7-10.6 6.1-2.5-4.4 8.1-4.7-8.8-5.1 2.7-4.8 8.7 5v-9.3h5.1v12.2l12.2 7V150l-10.6-6.1 2.5-4.4 8.1 4.7v-10.1h5.5v10.1l8-4.7 2.5 4.4-10.6 6.1v14.1l12.2-7v-12.2h5.1v9.3l8.8-5.1 2.7 4.8-8.7 5 8 4.6zm127.4 106.9h-108v-8.2h108v8.2zm0-19.5h-7.1s-10.2-115.1-11-119.9c-.8-5-4-4.5-4.6 0-3.2 26.5-10 119.9-10 119.9h-8.3s-10.2-115.1-11-119.9c-.8-5-4-4.5-4.6 0-3.2 26.5-10 119.9-10 119.9H225S214.8 135.8 214 131c-.8-5-4-4.5-4.6 0-3.2 26.5-10 119.9-10 119.9h-7.7V114.7h108v136.2zm84.7-37.1h-74.7v-7.1h74.7v7.1z"/></g></svg>
