<svg version="1.1"
	 xmlns="http://www.w3.org/2000/svg" xmlns:xlink="http://www.w3.org/1999/xlink"
	 x="0px" y="0px" viewBox="0 0 395.3 1142.1" style="enable-background:new 0 0 395.3 1142.1;"
	 xml:space="preserve">
<defs>
</defs>
<g id="Page-1_1_">
	<path id="Combined-Shape_1_" class="st0" d="M131.9,195.2c-0.3,0.1-0.6,0-0.9-0.2c-0.3-0.3-0.4-0.7-0.4-1c-0.2-0.2-0.4-0.3-0.5-0.5
		c-1.9-1.7-4-3.1-5.7-3.9c-1.6-0.7-3.1-1.7-4.1-2.5c-0.8-0.7-1-1.2-1.1-1.4c-0.1-0.2,0-0.4,0-0.4c0.4-0.8,3.7-0.7,7.4,0.6l4.8,1.6
		l0.7-1.4c1-1.9,2.4-3.9,4.1-5.7l6.1-6.8l-17.9-8c-0.4-0.2-0.8-0.4-1.2-0.7c-0.5-0.5-0.9-1-1.1-1.6c-0.3-0.9-0.3-1.9,0.1-2.7
		c0.9-1.9,3.6-2.9,5.8-2.1l21.5,7.1l4.4-4.9c4.4-4.9,9.3-7.6,11.1-6c1.1,1,0.4,3.2-0.1,4.4c-0.9,2.2-2.6,4.8-4.8,7.2l-4.4,4.9
		l9.3,20.7c0.9,2.1,0.2,4.8-1.5,6c-0.8,0.5-1.8,0.7-2.7,0.4c-0.6-0.2-1.2-0.5-1.7-0.9c-0.3-0.3-0.6-0.7-0.9-1.1l-9.8-17l-6.1,6.8
		c-1.7,1.9-3.5,3.5-5.3,4.7l-1.3,0.8l2.1,4.6c1.6,3.6,2.1,6.9,1.3,7.3c-0.2,0.1-0.3,0-0.4,0c-0.2-0.1-0.7-0.2-1.5-0.9
		c-1-0.9-2.1-2.3-3-3.8C134,197.6,133.1,196.4,131.9,195.2z M394,0.1c0.5-0.2,1.1,0.1,1.3,0.6c0.2,0.5-0.1,1.1-0.6,1.3
		c-3.1,1.2-6.2,2.4-9.3,3.6c-0.5,0.2-1.1,0-1.3-0.6s0-1.1,0.6-1.3C387.7,2.5,390.9,1.3,394,0.1z M375.4,7.5c0.5-0.2,1.1,0,1.3,0.5
		c0.2,0.5,0,1.1-0.5,1.3c-3.1,1.3-6.1,2.6-9.2,3.9c-0.5,0.2-1.1,0-1.3-0.5s0-1.1,0.5-1.3C369.2,10.1,372.3,8.8,375.4,7.5z M357,15.6
		c0.5-0.2,1.1,0,1.3,0.5c0.2,0.5,0,1.1-0.5,1.3c-3,1.4-6,2.8-9.1,4.2c-0.5,0.2-1.1,0-1.3-0.5c-0.2-0.5,0-1.1,0.5-1.3
		C350.9,18.4,354,17,357,15.6z M338.9,24.2c0.5-0.2,1.1,0,1.3,0.4c0.2,0.5,0,1.1-0.4,1.3c-3,1.5-5.9,3-8.9,4.5
		c-0.5,0.3-1.1,0.1-1.3-0.4c-0.3-0.5-0.1-1.1,0.4-1.3C333,27.2,335.9,25.7,338.9,24.2z M321.2,33.4c0.5-0.3,1.1-0.1,1.4,0.4
		c0.3,0.5,0.1,1.1-0.4,1.4c-2.9,1.6-5.8,3.2-8.7,4.8c-0.5,0.3-1.1,0.1-1.4-0.4c-0.3-0.5-0.1-1.1,0.4-1.4
		C315.3,36.6,318.2,35,321.2,33.4z M303.7,43.3c0.5-0.3,1.1-0.1,1.4,0.4c0.3,0.5,0.1,1.1-0.4,1.4c-2.9,1.7-5.7,3.4-8.6,5.1
		c-0.5,0.3-1.1,0.1-1.4-0.3c-0.3-0.5-0.1-1.1,0.3-1.4C297.9,46.6,300.8,44.9,303.7,43.3z M286.5,53.6c0.5-0.3,1.1-0.2,1.4,0.3
		s0.2,1.1-0.3,1.4c-2.8,1.8-5.6,3.6-8.4,5.4c-0.5,0.3-1.1,0.2-1.4-0.3c-0.3-0.5-0.2-1.1,0.3-1.4C280.9,57.2,283.7,55.4,286.5,53.6z
		 M269.8,64.6c0.5-0.3,1.1-0.2,1.4,0.3c0.3,0.5,0.2,1.1-0.3,1.4c-2.8,1.9-5.5,3.7-8.2,5.7c-0.5,0.3-1.1,0.2-1.4-0.2
		s-0.2-1.1,0.2-1.4C264.2,68.3,267,66.4,269.8,64.6z M253.3,76.1c0.4-0.3,1.1-0.2,1.4,0.2c0.3,0.4,0.2,1.1-0.2,1.4
		c-2.7,1.9-5.4,3.9-8,5.9c-0.4,0.3-1.1,0.2-1.4-0.2c-0.3-0.4-0.2-1.1,0.2-1.4C247.9,80,250.6,78,253.3,76.1z M237.3,88
		c0.4-0.3,1.1-0.3,1.4,0.2c0.3,0.4,0.3,1.1-0.2,1.4c-2.6,2-5.2,4.1-7.8,6.2c-0.4,0.3-1.1,0.3-1.4-0.2c-0.3-0.4-0.3-1.1,0.2-1.4
		C232.1,92.2,234.7,90.1,237.3,88z M221.7,100.6c0.4-0.4,1.1-0.3,1.4,0.1s0.3,1.1-0.1,1.4c-2.6,2.1-5.1,4.3-7.6,6.4
		c-0.4,0.4-1.1,0.3-1.4-0.1c-0.4-0.4-0.3-1.1,0.1-1.4C216.6,104.9,219.1,102.7,221.7,100.6z M206.5,113.6c0.4-0.4,1-0.3,1.4,0.1
		c0.4,0.4,0.3,1-0.1,1.4c-2.5,2.2-5,4.4-7.4,6.7c-0.4,0.4-1,0.3-1.4-0.1c-0.4-0.4-0.3-1,0.1-1.4C201.5,118.1,204,115.8,206.5,113.6z
		 M191.7,127.1c0.4-0.4,1-0.4,1.4,0c0.4,0.4,0.4,1,0,1.4c-2.4,2.3-4.8,4.6-7.2,6.9c-0.4,0.4-1,0.4-1.4,0s-0.4-1,0-1.4
		C186.9,131.7,189.3,129.4,191.7,127.1z M177.3,141.1c0.4-0.4,1-0.4,1.4,0c0.4,0.4,0.4,1,0,1.4c-2.3,2.4-4.7,4.7-7,7.1
		c-0.4,0.4-1,0.4-1.4,0c-0.4-0.4-0.4-1,0-1.4C172.7,145.9,175,143.5,177.3,141.1z M124.7,201.6c0.3-0.4,1-0.5,1.4-0.2
		c0.4,0.3,0.5,1,0.2,1.4c-2,2.6-4,5.3-6,8c-0.3,0.4-1,0.5-1.4,0.2c-0.4-0.3-0.5-1-0.2-1.4C120.7,206.9,122.7,204.2,124.7,201.6z
		 M112.9,217.7c0.3-0.5,0.9-0.6,1.4-0.2c0.5,0.3,0.6,0.9,0.2,1.4c-1.9,2.7-3.8,5.4-5.7,8.2c-0.3,0.5-0.9,0.6-1.4,0.3
		s-0.6-0.9-0.3-1.4C109,223.2,110.9,220.4,112.9,217.7z M101.5,234.2c0.3-0.5,0.9-0.6,1.4-0.3c0.5,0.3,0.6,0.9,0.3,1.4
		c-1.8,2.8-3.7,5.6-5.5,8.4c-0.3,0.5-0.9,0.6-1.4,0.3c-0.5-0.3-0.6-0.9-0.3-1.4C97.9,239.8,99.7,237,101.5,234.2z M90.7,251.1
		c0.3-0.5,0.9-0.6,1.4-0.3c0.5,0.3,0.6,0.9,0.3,1.4c-1.7,2.8-3.5,5.7-5.2,8.5c-0.3,0.5-0.9,0.6-1.4,0.3c-0.5-0.3-0.6-0.9-0.3-1.4
		C87.2,256.8,89,253.9,90.7,251.1z M80.5,268.3c0.3-0.5,0.9-0.6,1.4-0.4c0.5,0.3,0.6,0.9,0.4,1.4c-1.7,2.9-3.3,5.8-4.9,8.7
		c-0.3,0.5-0.9,0.7-1.4,0.4c-0.5-0.3-0.7-0.9-0.4-1.4C77.2,274.1,78.8,271.2,80.5,268.3z M70.8,285.9c0.3-0.5,0.9-0.7,1.4-0.4
		c0.5,0.3,0.7,0.9,0.4,1.4c-1.6,2.9-3.1,5.9-4.6,8.9c-0.3,0.5-0.9,0.7-1.3,0.4c-0.5-0.3-0.7-0.9-0.4-1.3
		C67.7,291.8,69.2,288.8,70.8,285.9z M61.7,303.7c0.2-0.5,0.8-0.7,1.3-0.5c0.5,0.2,0.7,0.8,0.5,1.3c-1.5,3-2.9,6-4.3,9
		c-0.2,0.5-0.8,0.7-1.3,0.5s-0.7-0.8-0.5-1.3C58.8,309.7,60.3,306.7,61.7,303.7z M53.2,321.9c0.2-0.5,0.8-0.7,1.3-0.5
		c0.5,0.2,0.7,0.8,0.5,1.3c-1.4,3-2.7,6.1-4,9.1c-0.2,0.5-0.8,0.7-1.3,0.5c-0.5-0.2-0.7-0.8-0.5-1.3C50.5,328,51.8,324.9,53.2,321.9
		z M45.3,340.3c0.2-0.5,0.8-0.8,1.3-0.5s0.8,0.8,0.5,1.3c-1.3,3.1-2.5,6.2-3.7,9.3c-0.2,0.5-0.8,0.8-1.3,0.6s-0.8-0.8-0.6-1.3
		C42.8,346.5,44,343.4,45.3,340.3z M38,358.9c0.2-0.5,0.8-0.8,1.3-0.6c0.5,0.2,0.8,0.8,0.6,1.3c-1.2,3.1-2.3,6.3-3.4,9.4
		c-0.2,0.5-0.8,0.8-1.3,0.6c-0.5-0.2-0.8-0.8-0.6-1.3C35.7,365.2,36.9,362.1,38,358.9z M31.4,377.9c0.2-0.5,0.7-0.8,1.3-0.6
		c0.5,0.2,0.8,0.7,0.6,1.3c-1.1,3.2-2.1,6.3-3.1,9.5c-0.2,0.5-0.7,0.8-1.3,0.7s-0.8-0.7-0.7-1.3C29.3,384.2,30.3,381,31.4,377.9z
		 M25.4,396.9c0.2-0.5,0.7-0.8,1.2-0.7s0.8,0.7,0.7,1.2c-0.9,3.2-1.9,6.4-2.8,9.6c-0.1,0.5-0.7,0.8-1.2,0.7s-0.8-0.7-0.7-1.2
		C23.5,403.3,24.4,400.1,25.4,396.9z M20,416.2c0.1-0.5,0.7-0.9,1.2-0.7c0.5,0.1,0.9,0.7,0.7,1.2c-0.8,3.2-1.7,6.4-2.5,9.7
		c-0.1,0.5-0.7,0.9-1.2,0.7c-0.5-0.1-0.9-0.7-0.7-1.2C18.3,422.6,19.1,419.4,20,416.2z M15.2,435.6c0.1-0.5,0.7-0.9,1.2-0.8
		c0.5,0.1,0.9,0.7,0.8,1.2c-0.7,3.2-1.4,6.5-2.1,9.8c-0.1,0.5-0.6,0.9-1.2,0.8c-0.5-0.1-0.9-0.6-0.8-1.2
		C13.8,442.1,14.5,438.8,15.2,435.6z M11.1,455.2c0.1-0.5,0.6-0.9,1.2-0.8s0.9,0.6,0.8,1.2c-0.6,3.3-1.2,6.5-1.8,9.8
		c-0.1,0.5-0.6,0.9-1.2,0.8c-0.5-0.1-0.9-0.6-0.8-1.2C9.8,461.8,10.5,458.5,11.1,455.2z M7.6,474.9c0.1-0.5,0.6-0.9,1.1-0.8
		c0.5,0.1,0.9,0.6,0.8,1.1c-0.5,3.3-1,6.6-1.5,9.9C8,485.7,7.5,486,7,486c-0.5-0.1-0.9-0.6-0.8-1.1C6.6,481.5,7.1,478.2,7.6,474.9z
		 M4.8,494.8c0.1-0.5,0.6-0.9,1.1-0.9c0.5,0.1,0.9,0.6,0.9,1.1c-0.4,3.3-0.8,6.6-1.2,9.9c-0.1,0.5-0.6,0.9-1.1,0.9
		c-0.5-0.1-0.9-0.6-0.9-1.1C4,501.4,4.4,498.1,4.8,494.8z M2.6,514.7c0.1-0.5,0.5-1,1.1-0.9s1,0.5,0.9,1.1c-0.3,3.3-0.6,6.6-0.8,9.9
		c0,0.6-0.5,1-1.1,0.9s-1-0.5-0.9-1.1C2,521.3,2.3,518,2.6,514.7z M1.1,534.7c0-0.6,0.5-1,1.1-0.9s1,0.5,0.9,1.1
		c-0.2,3.3-0.4,6.6-0.5,10c0,0.6-0.5,1-1,1c-0.6,0-1-0.5-1-1C0.7,541.4,0.9,538,1.1,534.7z M0.2,554.7c0-0.6,0.5-1,1-1
		c0.6,0,1,0.5,1,1c-0.1,3.3-0.2,6.7-0.2,10c0,0.6-0.5,1-1,1s-1-0.5-1-1C0.1,561.4,0.1,558,0.2,554.7z M0,574.8c0-0.6,0.4-1,1-1
		c0.6,0,1,0.4,1,1c0,3.3,0.1,6.6,0.1,10c0,0.6-0.4,1-1,1c-0.6,0-1-0.4-1-1C0.1,581.4,0,578.1,0,574.8z M0.4,594.7c0-0.6,0.4-1,1-1
		c0.6,0,1,0.4,1,1c0.1,3.3,0.3,6.7,0.4,10c0,0.6-0.4,1-0.9,1.1s-1-0.4-1.1-0.9C0.7,601.4,0.5,598.1,0.4,594.7z M1.5,614.8
		c0-0.6,0.4-1,0.9-1.1c0.6,0,1,0.4,1.1,0.9c0.2,3.3,0.5,6.7,0.8,10c0,0.6-0.4,1-0.9,1.1c-0.6,0-1-0.4-1.1-0.9
		C2,621.4,1.7,618.1,1.5,614.8z M3.2,634.7c-0.1-0.5,0.3-1,0.9-1.1s1,0.3,1.1,0.9c0.3,3.3,0.7,6.6,1.1,9.9c0.1,0.5-0.3,1-0.9,1.1
		c-0.5,0.1-1-0.3-1.1-0.9C3.9,641.4,3.5,638,3.2,634.7z M5.6,654.6c-0.1-0.5,0.3-1.1,0.9-1.1s1.1,0.3,1.1,0.9
		c0.4,3.3,0.9,6.6,1.4,9.9c0.1,0.5-0.3,1.1-0.8,1.1c-0.5,0.1-1.1-0.3-1.1-0.8C6.5,661.2,6,657.9,5.6,654.6z M8.6,674.4
		c-0.1-0.5,0.3-1.1,0.8-1.2c0.5-0.1,1.1,0.3,1.2,0.8c0.6,3.3,1.1,6.5,1.7,9.8c0.1,0.5-0.3,1.1-0.8,1.2c-0.5,0.1-1.1-0.3-1.2-0.8
		C9.7,681,9.1,677.7,8.6,674.4z M12.2,694.1c-0.1-0.5,0.2-1.1,0.8-1.2c0.5-0.1,1.1,0.2,1.2,0.8c0.7,3.3,1.4,6.5,2.1,9.8
		c0.1,0.5-0.2,1.1-0.8,1.2c-0.5,0.1-1.1-0.2-1.2-0.8C13.6,700.7,12.9,697.4,12.2,694.1z M16.6,713.7c-0.1-0.5,0.2-1.1,0.7-1.2
		s1.1,0.2,1.2,0.7c0.8,3.2,1.6,6.5,2.4,9.7c0.1,0.5-0.2,1.1-0.7,1.2c-0.5,0.1-1.1-0.2-1.2-0.7C18.1,720.2,17.3,716.9,16.6,713.7z
		 M21.5,733.1c-0.1-0.5,0.2-1.1,0.7-1.2c0.5-0.1,1.1,0.2,1.2,0.7c0.9,3.2,1.8,6.4,2.7,9.6c0.2,0.5-0.2,1.1-0.7,1.2
		c-0.5,0.2-1.1-0.2-1.2-0.7C23.3,739.5,22.4,736.3,21.5,733.1z M27.1,752.3c-0.2-0.5,0.1-1.1,0.7-1.3c0.5-0.2,1.1,0.1,1.3,0.7
		c1,3.2,2,6.3,3,9.5c0.2,0.5-0.1,1.1-0.6,1.3c-0.5,0.2-1.1-0.1-1.3-0.6C29.1,758.7,28.1,755.5,27.1,752.3z M33.3,771.4
		c-0.2-0.5,0.1-1.1,0.6-1.3s1.1,0.1,1.3,0.6c1.1,3.1,2.2,6.3,3.3,9.4c0.2,0.5-0.1,1.1-0.6,1.3c-0.5,0.2-1.1-0.1-1.3-0.6
		C35.5,777.7,34.4,774.5,33.3,771.4z M40.2,790.2c-0.2-0.5,0.1-1.1,0.6-1.3c0.5-0.2,1.1,0.1,1.3,0.6c1.2,3.1,2.4,6.2,3.6,9.3
		c0.2,0.5,0,1.1-0.6,1.3s-1.1,0-1.3-0.6C42.6,796.4,41.4,793.3,40.2,790.2z M47.6,808.8c-0.2-0.5,0-1.1,0.5-1.3s1.1,0,1.3,0.5
		c1.3,3.1,2.6,6.1,4,9.2c0.2,0.5,0,1.1-0.5,1.3s-1.1,0-1.3-0.5C50.2,814.9,48.9,811.9,47.6,808.8z M55.7,827.1
		c-0.2-0.5,0-1.1,0.5-1.3s1.1,0,1.3,0.5c1.4,3,2.8,6,4.2,9c0.2,0.5,0,1.1-0.5,1.3s-1.1,0-1.3-0.5C58.5,833.2,57.1,830.2,55.7,827.1z
		 M64.4,845.2c-0.2-0.5,0-1.1,0.4-1.3s1.1,0,1.3,0.4c1.5,3,3,5.9,4.6,8.9c0.3,0.5,0.1,1.1-0.4,1.3c-0.5,0.3-1.1,0.1-1.3-0.4
		C67.4,851.2,65.9,848.2,64.4,845.2z M73.6,863c-0.3-0.5-0.1-1.1,0.4-1.4c0.5-0.3,1.1-0.1,1.4,0.4c1.6,2.9,3.2,5.8,4.8,8.7
		c0.3,0.5,0.1,1.1-0.4,1.4c-0.5,0.3-1.1,0.1-1.4-0.4C76.9,868.8,75.2,865.9,73.6,863z M83.5,880.4c-0.3-0.5-0.1-1.1,0.4-1.4
		c0.5-0.3,1.1-0.1,1.4,0.4c1.7,2.9,3.4,5.7,5.1,8.6c0.3,0.5,0.1,1.1-0.3,1.4c-0.5,0.3-1.1,0.1-1.4-0.3
		C86.9,886.2,85.2,883.3,83.5,880.4z M93.9,897.5c-0.3-0.5-0.2-1.1,0.3-1.4s1.1-0.2,1.4,0.3c1.8,2.8,3.6,5.6,5.4,8.4
		c0.3,0.5,0.2,1.1-0.3,1.4c-0.5,0.3-1.1,0.2-1.4-0.3C97.5,903.2,95.7,900.4,93.9,897.5z M104.9,914.3c-0.3-0.5-0.2-1.1,0.3-1.4
		c0.5-0.3,1.1-0.2,1.4,0.3c1.9,2.8,3.8,5.5,5.7,8.2c0.3,0.5,0.2,1.1-0.2,1.4c-0.5,0.3-1.1,0.2-1.4-0.2
		C108.7,919.9,106.8,917.1,104.9,914.3z M116.4,930.7c-0.3-0.4-0.2-1.1,0.2-1.4c0.4-0.3,1.1-0.2,1.4,0.2c2,2.7,3.9,5.4,5.9,8
		c0.3,0.4,0.2,1.1-0.2,1.4s-1.1,0.2-1.4-0.2C120.3,936.1,118.3,933.4,116.4,930.7z M128.4,946.7c-0.3-0.4-0.3-1.1,0.2-1.4
		s1.1-0.3,1.4,0.2c2,2.6,4.1,5.2,6.2,7.8c0.3,0.4,0.3,1.1-0.2,1.4c-0.4,0.3-1.1,0.3-1.4-0.2C132.5,951.9,130.4,949.3,128.4,946.7z
		 M140.9,962.3c-0.4-0.4-0.3-1.1,0.1-1.4c0.4-0.4,1.1-0.3,1.4,0.1c2.1,2.6,4.3,5.1,6.4,7.6c0.4,0.4,0.3,1.1-0.1,1.4
		c-0.4,0.4-1.1,0.3-1.4-0.1C145.2,967.4,143.1,964.9,140.9,962.3z M154,977.5c-0.4-0.4-0.3-1,0.1-1.4c0.4-0.4,1-0.3,1.4,0.1
		c2.2,2.5,4.4,5,6.7,7.4c0.4,0.4,0.3,1-0.1,1.4c-0.4,0.4-1,0.3-1.4-0.1C158.5,982.5,156.2,980,154,977.5z M167.5,992.3
		c-0.4-0.4-0.4-1,0-1.4c0.4-0.4,1-0.4,1.4,0c2.3,2.4,4.6,4.8,6.9,7.2c0.4,0.4,0.4,1,0,1.4c-0.4,0.4-1,0.4-1.4,0
		C172.1,997.1,169.8,994.7,167.5,992.3z M181.6,1006.6c-0.4-0.4-0.4-1,0-1.4c0.4-0.4,1-0.4,1.4,0c2.4,2.3,4.8,4.7,7.2,7
		c0.4,0.4,0.4,1,0,1.4s-1,0.4-1.4,0C186.3,1011.3,183.9,1008.9,181.6,1006.6z M196,1020.5c-0.4-0.4-0.4-1-0.1-1.4
		c0.4-0.4,1-0.4,1.4-0.1c2.4,2.3,4.9,4.5,7.4,6.7c0.4,0.4,0.4,1,0.1,1.4c-0.4,0.4-1,0.4-1.4,0.1C201,1025,198.5,1022.7,196,1020.5z
		 M210.9,1033.8c-0.4-0.4-0.5-1-0.1-1.4s1-0.5,1.4-0.1c2.5,2.2,5.1,4.3,7.6,6.5c0.4,0.4,0.5,1,0.1,1.4c-0.4,0.4-1,0.5-1.4,0.1
		C216,1038.2,213.5,1036,210.9,1033.8z M226.3,1046.7c-0.4-0.3-0.5-1-0.1-1.4c0.3-0.4,1-0.5,1.4-0.1c2.6,2.1,5.2,4.2,7.8,6.2
		c0.4,0.3,0.5,1,0.2,1.4c-0.3,0.4-1,0.5-1.4,0.2C231.5,1050.9,228.9,1048.8,226.3,1046.7z M242.1,1059.1c-0.4-0.3-0.5-1-0.2-1.4
		c0.3-0.4,1-0.5,1.4-0.2c2.7,2,5.3,4,8,6c0.4,0.3,0.5,1,0.2,1.4c-0.3,0.4-1,0.5-1.4,0.2C247.4,1063.1,244.7,1061.1,242.1,1059.1z
		 M258.2,1070.9c-0.5-0.3-0.6-0.9-0.2-1.4c0.3-0.5,0.9-0.6,1.4-0.2c2.7,1.9,5.4,3.8,8.2,5.7c0.5,0.3,0.6,0.9,0.3,1.4
		c-0.3,0.5-0.9,0.6-1.4,0.3C263.7,1074.8,261,1072.9,258.2,1070.9z M274.7,1082.3c-0.5-0.3-0.6-0.9-0.3-1.4c0.3-0.5,0.9-0.6,1.4-0.3
		c2.8,1.8,5.6,3.6,8.4,5.4c0.5,0.3,0.6,0.9,0.3,1.4s-0.9,0.6-1.4,0.3C280.3,1085.9,277.5,1084.1,274.7,1082.3z M291.7,1093.1
		c-0.5-0.3-0.6-0.9-0.3-1.4s0.9-0.6,1.4-0.3c2.8,1.7,5.7,3.5,8.5,5.2c0.5,0.3,0.6,0.9,0.4,1.4c-0.3,0.5-0.9,0.6-1.4,0.4
		C297.4,1096.5,294.5,1094.8,291.7,1093.1z M308.9,1103.3c-0.5-0.3-0.6-0.9-0.4-1.4c0.3-0.5,0.9-0.6,1.4-0.4
		c2.9,1.6,5.8,3.3,8.7,4.9c0.5,0.3,0.7,0.9,0.4,1.4s-0.9,0.7-1.4,0.4C314.7,1106.5,311.8,1104.9,308.9,1103.3z M326.5,1112.9
		c-0.5-0.3-0.7-0.9-0.4-1.4c0.3-0.5,0.9-0.7,1.4-0.4c2.9,1.6,5.9,3.1,8.9,4.6c0.5,0.2,0.7,0.9,0.4,1.3c-0.2,0.5-0.9,0.7-1.3,0.4
		C332.4,1116,329.4,1114.5,326.5,1112.9z M344.4,1122c-0.5-0.2-0.7-0.8-0.5-1.3c0.2-0.5,0.8-0.7,1.3-0.5c3,1.5,6,2.9,9,4.3
		c0.5,0.2,0.7,0.8,0.5,1.3c-0.2,0.5-0.8,0.7-1.3,0.5C350.4,1124.9,347.4,1123.4,344.4,1122z M362.5,1130.4c-0.5-0.2-0.7-0.8-0.5-1.3
		c0.2-0.5,0.8-0.7,1.3-0.5c3,1.4,6.1,2.7,9.2,4c0.5,0.2,0.7,0.8,0.5,1.3c-0.2,0.5-0.8,0.7-1.3,0.5
		C368.6,1133.1,365.6,1131.8,362.5,1130.4z M381,1138.3c-0.5-0.2-0.8-0.8-0.5-1.3c0.2-0.5,0.8-0.8,1.3-0.5c3.1,1.3,6.2,2.5,9.3,3.7
		c0.5,0.2,0.8,0.8,0.6,1.3s-0.8,0.8-1.3,0.6C387.2,1140.8,384.1,1139.6,381,1138.3z"/>
</g>
</svg>
