<svg viewBox="0 0 375 498" version="1.1" xmlns="http://www.w3.org/2000/svg" xmlns:xlink="http://www.w3.org/1999/xlink">
    <g id="Page-1" stroke-width="1" fill-rule="evenodd">
        <g id="Group-3" transform="translate(-1.000000, -1.714473)" fill-rule="nonzero">
            <path d="M94.4966629,66.6837184 C100.553058,60.6273234 100.552324,46.033599 94.4966629,39.9779379 C88.4425398,33.9238149 73.8450055,33.9238149 67.7908824,39.9779379 C61.6051377,46.1636827 61.54388,60.436716 67.7908824,66.6837184 C74.0394145,72.9322505 88.3086546,72.8717267 94.4966629,66.6837184 Z M43.9857737,90.4888271 C24.5456144,71.0486679 24.6983544,35.4602484 43.9857737,16.1728291 C63.1870952,-3.02849243 99.1004501,-3.02849243 118.301772,16.1728291 C137.504095,35.3751528 137.505901,71.2846976 118.301772,90.4888271 C99.011558,109.779041 63.4269216,109.929975 43.9857737,90.4888271 Z" id="Stroke-1"></path>
            <path d="M165.561229,279.440015 C165.667475,279.588279 165.752551,279.696866 165.813789,279.764227 C165.790151,279.738226 165.766265,279.712247 165.742126,279.686297 L165.561229,279.440015 Z M182.165551,276.424798 C191.462024,276.424798 198.998305,283.961079 198.998305,293.257552 C198.998305,302.554025 191.462024,310.090306 182.165551,310.090306 L156.910106,310.090306 C134.726327,310.090306 121.523405,273.782269 90.1595854,158.781597 C87.7135214,149.812696 93.0013257,140.559039 101.970227,138.112975 C110.939128,135.666911 120.192785,140.954715 122.638849,149.923616 C135.155047,195.816342 145.559287,230.150333 153.787834,252.778839 C157.70882,263.561551 161.077197,271.510759 163.745765,276.424798 L182.165551,276.424798 Z" id="Stroke-3"></path>
            <path d="M257.931885,310.090306 C248.635412,310.090306 241.099131,302.554025 241.099131,293.257552 C241.099131,283.961079 248.635412,276.424798 257.931885,276.424798 L308.442774,276.424798 C347.426214,276.424798 375.786417,327.653604 375.786417,381.651608 L375.786417,482.673387 C375.786417,491.96986 368.250137,499.50614 358.953663,499.50614 C349.65719,499.50614 342.12091,491.96986 342.12091,482.673387 L342.12091,381.651608 C342.12091,343.773681 323.473835,310.090306 308.442774,310.090306 L257.931885,310.090306 Z" id="Stroke-5"></path>
            <path d="M2.9494884,187.135888 C-1.20802083,178.820869 2.16230631,168.709888 10.4773248,164.552378 C18.7923432,160.394869 28.9033246,163.765196 33.0608339,172.080215 L96.1994454,298.357438 C97.3762125,300.710972 97.9848282,303.30761 97.976441,305.938928 C97.8902775,332.97082 123.880886,352.191132 156.910106,352.191132 L283.18733,352.191132 C292.483803,352.191132 300.020083,359.727413 300.020083,369.023886 C300.020083,378.320359 292.483803,385.85664 283.18733,385.85664 L156.910106,385.85664 C108.55344,385.85664 66.692114,355.953088 64.4087151,310.054341 L2.9494884,187.135888 Z" id="Stroke-7"></path>
        </g>
    </g>
</svg>
