<?xml version="1.0" encoding="UTF-8"?>
<svg viewBox="0 0 46 45" version="1.1" xmlns="http://www.w3.org/2000/svg" xmlns:xlink="http://www.w3.org/1999/xlink">
    <!-- Generator: Sketch 53.2 (72643) - https://sketchapp.com -->
    <title>Combined Shape</title>
    <desc>Created with Sketch.</desc>
    <g id="Icons---Kids" stroke="none" stroke-width="1" fill="none" fill-rule="evenodd">
        <g id="Icons/Kids_icons_board" transform="translate(-436.000000, -230.000000)" fill="#005589" fill-rule="nonzero">
            <g id="Icons" transform="translate(16.000000, 104.000000)">
                <g id="Assets/Icons/Equipments/Room/Flat-plate" transform="translate(413.000000, 118.000000)">
                    <path d="M30,51.5 C41.5979797,51.5 51,42.0979797 51,30.5 C51,18.9020203 41.5979797,9.5 30,9.5 C18.4020203,9.5 9,18.9020203 9,30.5 C9,42.0979797 18.4020203,51.5 30,51.5 Z M30,53 C17.5735931,53 7.5,42.9264069 7.5,30.5 C7.5,18.0735931 17.5735931,8 30,8 C42.4264069,8 52.5,18.0735931 52.5,30.5 C52.5,42.9264069 42.4264069,53 30,53 Z M15.255731,30.5925397 C15.2046227,30.1814912 15.4964118,29.8068392 15.9074603,29.7557309 C16.3185087,29.7046226 16.6931608,29.9964118 16.744269,30.4074602 C17.7604172,38.5800329 22.148741,42.9344906 30.0670245,43.6449587 C30.4795807,43.6819753 30.7840158,44.0464261 30.7469991,44.4589823 C30.7099825,44.8715386 30.3455317,45.1759736 29.9329755,45.138957 C21.3030132,44.3646335 16.3580037,39.4577861 15.255731,30.5925397 Z M44.7442378,30.2993869 C44.7953461,30.7104353 44.5035569,31.0850873 44.0925085,31.1361956 C43.68146,31.1873039 43.306808,30.8955147 43.2556997,30.4844663 C42.2395515,22.3118937 37.8512278,17.9574359 29.9329442,17.2469678 C29.520388,17.2099512 29.215953,16.8455004 29.2529696,16.4329442 C29.2899862,16.020388 29.654437,15.7159529 30.0669932,15.7529696 C38.6969555,16.527293 43.6419651,21.4341405 44.7442378,30.2993869 Z" id="Combined-Shape"></path>
                </g>
            </g>
        </g>
    </g>
</svg>
