<?xml version="1.0" encoding="UTF-8"?>
<svg viewBox="0 0 298 380" version="1.1" xmlns="http://www.w3.org/2000/svg" xmlns:xlink="http://www.w3.org/1999/xlink">
    <!-- Generator: Sketch 52.3 (67297) - http://www.bohemiancoding.com/sketch -->
    <title>Path Copy</title>
    <desc>Created with Sketch.</desc>
    <g id="Page-1" stroke="none" stroke-width="1" fill="none" fill-rule="evenodd">
        <g id="accessiblebathroom" transform="translate(-0.012558, -0.393840)" fill="#000000" fill-rule="nonzero">
            <path d="M155.34229,343.561164 C143.26009,349.609155 129.856659,352.836299 116.005513,352.836299 C67.3816436,352.836299 27.8451007,313.299756 27.8451007,264.675887 C27.8451007,250.822656 31.0717807,237.418825 37.1200955,225.337078 L27.3536308,215.570808 C19.1013237,230.409816 14.6585673,247.196112 14.6585673,264.675887 C14.6585673,320.648774 60.0323575,366.022245 116.005513,366.022245 C133.485689,366.022245 150.270639,361.579747 165.108819,353.327304 L155.34229,343.561164 Z M116.005513,338.836299 C131.415392,338.836299 145.739408,334.10604 157.611131,326.031319 L187.073267,355.492281 C167.483104,370.844639 142.824009,380.022245 116.005513,380.022245 C52.300505,380.022245 0.658567285,328.380895 0.658567285,264.675887 C0.658567285,237.858564 9.83617361,213.197122 25.1879448,193.606372 L54.6506671,223.068508 C46.5735988,234.940818 41.8451007,249.264833 41.8451007,264.675887 C41.8451007,305.567769 75.1136301,338.836299 116.005513,338.836299 Z M217.350698,265.022924 C217.350698,249.342871 213.790576,234.193816 207.034746,220.431139 C202.617004,211.43151 208.813613,200.841295 218.823549,200.283676 L249.263549,198.587967 C257.742464,198.115635 264.685967,205.239891 263.995941,213.703871 L256.590903,304.535321 C256.206977,309.24304 260.516592,313.43118 264.760447,313.776883 C269.004302,314.122587 273.282263,310.367632 273.644139,305.924472 L283.148853,189.303465 C283.350083,186.839061 282.475711,184.409113 280.751371,182.638995 C279.031051,180.87424 276.61125,179.933146 274.149392,180.067909 L195.508763,184.445409 C183.117583,185.135159 176.022129,170.555621 184.210429,161.229913 L227.488689,111.940017 C230.316837,108.71931 231.251736,104.354469 230.087838,100.270652 C230.009056,99.9942289 229.938807,99.7154448 229.877188,99.4346966 C229.384316,97.1890599 228.04719,95.26292 226.072742,94.0292163 C225.83095,93.8781364 123.212107,34.261749 123.010273,34.1444993 C119.812915,32.287143 115.782579,32.6961216 113.022302,35.1581108 L62.5686239,80.1636506 C59.0431658,83.3082248 58.7344749,88.715409 61.8786389,92.2403803 C65.0250609,95.767188 70.4321769,96.0760736 73.9576416,92.9301821 L112.208233,58.809983 C116.726131,54.7799391 123.322612,54.110504 128.558028,57.1507459 L160.179566,75.5135889 C167.804855,79.9416465 169.48725,90.2314223 163.669325,96.8574675 L107.852386,160.427476 C105.711004,162.8663 102.788812,164.485372 99.5856148,165.007771 C84.4493752,167.476291 70.2252899,173.344285 57.8480361,182.043308 L67.3401712,191.535443 C81.5880137,182.07094 98.4111539,176.862512 116.004926,176.862512 C164.628239,176.862512 204.164164,216.399085 204.164164,265.022924 C204.164164,282.616304 198.95597,299.438701 189.491892,313.686517 L198.985703,323.180902 C210.819285,306.356477 217.350698,286.213967 217.350698,265.022924 Z M194.730663,170.467048 L273.371292,166.089548 C279.868868,165.733855 286.227336,168.19906 290.777988,172.868275 C295.326291,177.536317 297.633019,183.944677 297.102413,190.44284 L287.597873,307.061714 C286.637617,318.851851 276.767992,327.784697 265.14279,327.784697 C264.528249,327.784697 263.907839,327.760632 263.286255,327.710154 C250.870426,326.696485 241.624733,315.812605 242.637228,303.397363 L244.722032,277.824799 C244.866072,276.36469 244.985618,274.899244 245.080404,273.428956 L250.042235,212.566294 L219.602234,214.262003 C220.534177,216.160516 222.421467,220.729283 225.264103,227.968306 C229.209091,239.598012 231.350698,252.059895 231.350698,265.022924 C231.350698,267.494522 231.272831,269.94781 231.119432,272.3805 L230.773125,276.628363 C228.174,302.598405 216.946624,326.016597 200.017941,344.01279 L170.871587,314.864675 C182.851309,301.688154 190.164164,284.194002 190.164164,265.022924 C190.164164,224.131041 156.896222,190.862512 116.004926,190.862512 C96.8338477,190.862512 79.3385221,198.175366 66.1620009,210.156263 L37.0138857,181.008148 C53.3617171,165.630551 74.1868304,154.965017 97.3321713,151.190318 L153.14911,87.6203099 L121.527572,69.2574669 L83.2769807,103.377666 C73.9819836,111.671907 59.724294,110.855455 51.4318137,101.560458 C43.1399203,92.2642867 43.9540249,78.007184 53.2496089,69.7158776 L103.702966,24.7106242 C110.98119,18.2189175 121.608572,17.1395098 130.042508,22.0388114 C130.042508,22.0388114 233.327557,82.0395552 233.491317,82.156359 C238.823204,85.4879075 242.29386,90.7024032 243.551702,96.4334181 C245.93532,104.79692 244.173873,114.156482 238.008512,121.177621 L194.730663,170.467048 Z M249.003327,61.9039818 C262.121269,61.9039818 272.754421,51.2699164 272.754421,38.149953 C272.754421,25.0305115 262.120617,14.3953373 249.003327,14.3953373 C235.883559,14.3953373 225.248711,25.0306416 225.248711,38.149953 C225.248711,51.2700226 235.882556,61.9039818 249.003327,61.9039818 Z M249.003327,75.9039818 C228.15004,75.9039818 211.248711,59.0014793 211.248711,38.149953 C211.248711,17.2996006 228.150627,0.39533725 249.003327,0.39533725 C269.853679,0.39533725 286.754421,17.2996006 286.754421,38.149953 C286.754421,59.0014793 269.853679,75.9039818 249.003327,75.9039818 Z" id="Path-Copy"></path>
        </g>
    </g>
</svg>
