<?xml version="1.0" encoding="utf-8"?>
<!-- Generator: Adobe Illustrator 23.0.3, SVG Export Plug-In . SVG Version: 6.00 Build 0)  -->
<svg version="1.1" id="Calque_1" xmlns="http://www.w3.org/2000/svg" xmlns:xlink="http://www.w3.org/1999/xlink" x="0px" y="0px"
	 viewBox="0 0 128 128" style="enable-background:new 0 0 128 128;" xml:space="preserve">
<style type="text/css">
	.st0{fill:#005589;}
</style>
<title>WIP/Icons/Equipments/Chalet/Pool towel</title>
<desc>Created with Sketch.</desc>
<g>
	<path id="Icon" class="st0" d="M106.3,116.3c0,0.2,0.1,0.3,0.1,0.5v8.3c0,1.2-0.9,2.1-2.1,2.1c-1.2,0-2.1-0.9-2.1-2.1v-6.7h-7.3
		v6.7c0,1.2-0.9,2.1-2.1,2.1c-1.2,0-2.1-0.9-2.1-2.1v-6.7h-6.6v6.7c0,1.2-0.9,2.1-2.1,2.1s-2.1-0.9-2.1-2.1v-6.7H73v6.7
		c0,1.2-0.9,2.1-2.1,2.1c-1.2,0-2.1-0.9-2.1-2.1v-6.7h-6.6v6.7c0,1.2-0.9,2.1-2.1,2.1c-1.2,0-2.1-0.9-2.1-2.1v-6.7h-7.8v6.7
		c0,1.2-0.9,2.1-2.1,2.1c-1.2,0-2.1-0.9-2.1-2.1v-6.7H38v6.7c0,1.2-0.9,2.1-2.1,2.1c-1.2,0-2.1-0.9-2.1-2.1v-6.7h-7.8v6.7
		c0,1.2-0.9,2.1-2.1,2.1c-1.2,0-2.1-0.9-2.1-2.1v-8.3c0-0.1,0-0.1,0-0.2V11.7c0-0.1,0-0.1,0-0.2V3.3c0-1.2,0.9-2.1,2.1-2.1
		c1.2,0,2.1,0.9,2.1,2.1v6.4h7.8V3.3c0-1.2,0.9-2.1,2.1-2.1c1.2,0,2.1,0.9,2.1,2.1v6.4h7.8V3.3c0-1.2,0.9-2.1,2.1-2.1
		c1.2,0,2.1,0.9,2.1,2.1v6.4h7.8V3.3c0-1.2,0.9-2.1,2.1-2.1c1.2,0,2.1,0.9,2.1,2.1v6.4h6.6V3.3c0-1.2,0.9-2.1,2.1-2.1
		c1.2,0,2.1,0.9,2.1,2.1v6.4h6.6V3.3c0-1.2,0.9-2.1,2.1-2.1s2.1,0.9,2.1,2.1v6.4h6.6V3.3c0-1.2,0.9-2.1,2.1-2.1
		c1.2,0,2.1,0.9,2.1,2.1v6.4h7.3V3.3c0-1.2,0.9-2.1,2.1-2.1c1.2,0,2.1,0.9,2.1,2.1v8.3c0,0.2,0,0.3-0.1,0.5V116.3z M102,93.9H26v7.8
		H102V93.9z M102,89.6V38.3H26v51.3H102z M102,105.9H26v8.2H102V105.9z M102,26.2H26v7.8H102V26.2z M102,22v-8.2H26V22H102z"/>
</g>
</svg>
