<svg id="Calque_1" data-name="Calque 1" xmlns="http://www.w3.org/2000/svg" viewBox="0 0 100 100"><defs></defs><title>Pool side</title><path class="cls-1" d="M26.2,45.33h1.87l-1.56,1.56a1.51,1.51,0,0,0,0,2.12,1.53,1.53,0,0,0,1.06.44A1.49,1.49,0,0,0,28.63,49l3.05-3a1.36,1.36,0,0,0,.35-.63H60.58a1.48,1.48,0,0,0,.36.63L64,49a1.49,1.49,0,0,0,1.06.44A1.53,1.53,0,0,0,66.11,49a1.51,1.51,0,0,0,0-2.12L64.52,45.3a1.47,1.47,0,0,0,1.25-1l4.37-13.08a1.5,1.5,0,1,0-2.84-.95l-4,12H26.2a1.5,1.5,0,0,0,0,3Z"/><path class="cls-1" d="M79.94,2.5c-10,0-18.08,7.81-18.08,17.42v3.31a1.5,1.5,0,1,0,3,0c0-1.08,1.65-2.28,4-2.28s4,1.2,4,2.28a1.5,1.5,0,1,0,3,0c0-.83,1-1.73,2.53-2.1V50.56h-74A1.5,1.5,0,0,0,3,52.06V78.81a1.5,1.5,0,0,0,3,0V77h12v1.82a1.5,1.5,0,0,0,3,0V53.56H94.39a1.5,1.5,0,0,0,0-3h-13V21.13C83,21.5,84,22.4,84,23.23a1.5,1.5,0,1,0,3,0C87,22.15,88.62,21,91,21s4,1.2,4,2.28a1.5,1.5,0,1,0,3,0V19.92C98,10.31,89.91,2.5,79.94,2.5Zm-62,64H6v-5h12ZM6,74V69.5h12V74Zm12-15.46H6v-5h12ZM68.88,18a8.81,8.81,0,0,0-4,.91A14.59,14.59,0,0,1,75.48,6.15C73.9,9.28,73,14,72.93,18.89A8.83,8.83,0,0,0,68.88,18Zm11.06,0a8.81,8.81,0,0,0-4,.92c.19-8.31,2.64-13.37,4-13.37s3.81,5.06,4,13.37A8.77,8.77,0,0,0,79.94,18Zm11,0a8.76,8.76,0,0,0-4,.94C86.84,14,86,9.28,84.4,6.15A14.61,14.61,0,0,1,95,18.86,8.89,8.89,0,0,0,91,18Z"/><path class="cls-1" d="M22,88.29H8.67a1.5,1.5,0,0,0,0,3H22a1.5,1.5,0,0,0,0-3Z"/><path class="cls-1" d="M44.1,77.5A1.5,1.5,0,0,0,42.6,76H29.28a1.5,1.5,0,0,0,0,3H42.6A1.5,1.5,0,0,0,44.1,77.5Z"/><path class="cls-1" d="M82.2,88.29H68.88a1.5,1.5,0,0,0,0,3H82.2a1.5,1.5,0,0,0,0-3Z"/><path class="cls-1" d="M80.68,63.5a1.5,1.5,0,0,0-1.5-1.5H56.7a1.5,1.5,0,0,0,0,3H79.18A1.5,1.5,0,0,0,80.68,63.5Z"/><path class="cls-1" d="M45.44,95.42H37.32a1.5,1.5,0,0,0,0,3h8.12a1.5,1.5,0,1,0,0-3Z"/><path class="cls-1" d="M53.56,85.46H45.44a1.5,1.5,0,1,0,0,3h8.12a1.5,1.5,0,0,0,0-3Z"/><path class="cls-1" d="M71.23,75.91a1.5,1.5,0,0,0-1.5-1.5H61.61a1.5,1.5,0,1,0,0,3h8.12A1.5,1.5,0,0,0,71.23,75.91Z"/><path class="cls-1" d="M92.11,79.67H84a1.5,1.5,0,0,0,0,3h8.12a1.5,1.5,0,0,0,0-3Z"/><path class="cls-1" d="M36.37,67.64a1.5,1.5,0,0,0,0-3H28a1.5,1.5,0,0,0,0,3Z"/></svg>