<svg id="Calque_1" data-name="Calque 1" xmlns="http://www.w3.org/2000/svg" viewBox="0 0 100 100"><defs></defs><title>Pool view</title><path class="cls-1" d="M96,30.62H2.32a1.5,1.5,0,0,0-1.5,1.5V60a1.5,1.5,0,0,0,3,0V58H16.41v2a1.5,1.5,0,0,0,3,0V33.62H96a1.5,1.5,0,1,0,0-3ZM16.41,47.23H3.82V41.92H16.41ZM3.82,55v-4.8H16.41V55ZM16.41,38.92H3.82v-5.3H16.41Z"/><path class="cls-1" d="M22,84.29H8.67a1.5,1.5,0,0,0,0,3H22a1.5,1.5,0,0,0,0-3Z"/><path class="cls-1" d="M44.1,73.5A1.5,1.5,0,0,0,42.6,72H29.28a1.5,1.5,0,0,0,0,3H42.6A1.5,1.5,0,0,0,44.1,73.5Z"/><path class="cls-1" d="M82.2,84.29H68.88a1.5,1.5,0,0,0,0,3H82.2a1.5,1.5,0,0,0,0-3Z"/><path class="cls-1" d="M80.68,59.5a1.5,1.5,0,0,0-1.5-1.5H56.7a1.5,1.5,0,0,0,0,3H79.18A1.5,1.5,0,0,0,80.68,59.5Z"/><path class="cls-1" d="M45.44,91.42H37.32a1.5,1.5,0,0,0,0,3h8.12a1.5,1.5,0,1,0,0-3Z"/><path class="cls-1" d="M53.56,81.46H45.44a1.5,1.5,0,1,0,0,3h8.12a1.5,1.5,0,0,0,0-3Z"/><path class="cls-1" d="M15.68,71.91a1.5,1.5,0,0,0-1.5-1.5H6.06a1.5,1.5,0,0,0,0,3h8.12A1.5,1.5,0,0,0,15.68,71.91Z"/><path class="cls-1" d="M29.28,41.41H42.6a1.5,1.5,0,0,0,0-3H29.28a1.5,1.5,0,0,0,0,3Z"/><path class="cls-1" d="M82.2,47.55a1.5,1.5,0,0,0,0-3H68.88a1.5,1.5,0,0,0,0,3Z"/><path class="cls-1" d="M53.56,47.87H45.44a1.5,1.5,0,0,0,0,3h8.12a1.5,1.5,0,0,0,0-3Z"/><path class="cls-1" d="M71.23,71.91a1.5,1.5,0,0,0-1.5-1.5H61.61a1.5,1.5,0,1,0,0,3h8.12A1.5,1.5,0,0,0,71.23,71.91Z"/><path class="cls-1" d="M92.11,75.67H84a1.5,1.5,0,0,0,0,3h8.12a1.5,1.5,0,0,0,0-3Z"/><path class="cls-1" d="M36.37,63.64a1.5,1.5,0,0,0,0-3H28a1.5,1.5,0,0,0,0,3Z"/></svg>