<?xml version="1.0" encoding="UTF-8"?>
<svg viewBox="0 0 500 457" version="1.1" xmlns="http://www.w3.org/2000/svg" xmlns:xlink="http://www.w3.org/1999/xlink">
    <!-- Generator: Sketch 53.2 (72643) - https://sketchapp.com -->
    <title>Icon</title>
    <desc>Created with Sketch.</desc>
    <g id="Page-1" stroke="none" stroke-width="1" fill="none" fill-rule="evenodd">
        <path d="M410.062443,146.582338 C413.12588,145.776457 416.234183,145.031085 419.382804,144.344187 C423.447206,143.457505 427.489607,143.011277 431.504638,143.000211 C415.545368,130.619274 403.731446,119.981257 395.956463,110.926008 C341.925124,47.9976022 277.851851,13.1494705 201.961109,16.3959733 C105.795631,21.9353816 53.1067604,59.7109661 39.1763662,130.817107 L33.7718353,178.368403 L33.7768195,178.366168 C54.6418602,224.483237 106.07027,254.634188 189.050504,268.308668 C234.543065,275.805478 265.176126,273.838824 285.087689,264.175709 C293.424682,260.129753 299.67131,255.091935 305.074444,248.090841 C287.901162,250.637862 269.520154,252 250.437481,252 C156.765089,252 80,219.17792 80,174.5 C80,129.82208 156.765089,97 250.437481,97 C323.197009,97 385.755816,116.802618 410.062445,146.58234 Z M393.055117,151.867914 C370.0214,129.91122 315.086781,113.19403 250.437481,113.19403 C164.814594,113.19403 96.2321411,142.5175 96.2321411,174.5 C96.2321411,206.4825 164.814594,235.80597 250.437481,235.80597 C273.848312,235.80597 295.985244,233.613825 315.794761,229.774557 C316.151409,229.015127 316.508304,228.241241 316.865947,227.452511 C317.47831,226.102032 318.105381,224.689344 318.866781,222.950934 C319.258057,222.057584 320.615036,218.943413 320.855265,218.393933 C323.915451,211.394326 325.888717,207.206353 328.269344,202.93229 C341.893204,178.472658 364.909829,162.086568 393.055117,151.867914 Z M30.6844545,205.532455 L16.207554,332.906208 C16.8253116,403.650121 91.79162,440.799218 250,440.799218 C408.186216,440.799218 483.153683,403.660528 483.792182,332.935938 L465.129609,174.113912 C465.105863,173.911828 465.078366,173.710614 465.047171,173.510356 C450.847753,161.297114 436.978721,157.021113 422.852149,160.102939 C386.985734,167.927488 357.350728,183.990313 342.442817,210.755269 C340.380269,214.458268 338.581634,218.275612 335.71532,224.831773 C335.481239,225.367191 334.121339,228.488064 333.722543,229.398585 C332.935647,231.195207 332.282136,232.667459 331.637231,234.089706 C321.566486,256.299313 311.139507,269.480513 292.189542,278.676962 C268.761986,290.046394 234.916329,292.219298 186.403662,284.224799 C110.80688,271.767053 58.6902512,245.644815 30.6844545,205.532455 Z M23.1481481,128.355565 C38.4348075,48.883611 97.7284602,6.17242665 201.029106,0.222012053 C293.435708,-3.73316928 361.361898,45.7629913 408.25122,100.373339 C418.804213,112.66404 438.618309,129.043174 467.693508,149.510741 C475.22764,154.814423 480.147488,163.073908 481.222629,172.223564 L500,332.022539 C500,415.340846 416.666667,457 250,457 C83.3333333,457 0,415.340846 0,332.022539 L23.1481481,128.355565 Z" id="Icon" fill="#005589" fill-rule="nonzero"></path>
    </g>
</svg>
