<svg xmlns="http://www.w3.org/2000/svg" viewBox="0 0 500 368.6"><path d="M499.5 289.7c3.6-34.2-11.6-57.5-33.4-64.9-17.6-6-40.3-1.6-54.7 15-5.5 6.4-9.6 14-11.5 22.2-.9 4.1-1.3 8.3-1.1 12.4.3 4.1 1.1 8.3 2.5 12.2 2.8 7.9 7.8 14.7 14.8 19 3.4 2.2 7.3 3.7 11.3 4.7 3.9.9 7.9.9 11.9.3 7.9-1.4 15.3-5.8 20-12.3 2.3-3.2 4-6.9 4.9-10.7.4-1.9.7-4 .7-5.8 0-1.9-.2-3.8-.7-5.6-2-7.3-8.1-13.5-15.4-15.8-.8-.3-2.8-.9-5.3-1-2.5-.1-5.5.3-8.1 1.5-5.4 2.3-8.9 7.4-9.1 7.8-1.5 2.3-2.8 1.8-2.9.1 0-1.2.9-3.7 3.1-6.4 2.1-2.7 5.5-5.5 9.6-6.9 4.1-1.5 8.6-1.5 12-.7 3.4.7 5.8 1.9 6.7 2.4 8.2 4.1 14.4 12.3 15.5 21.7.9 9.3-2.4 18.7-8.6 25.7-6.2 7-15 11.4-24.3 12.4-4.6.5-9.4 0-13.9-1.3s-8.8-3.3-12.6-6c-7.8-5.4-13.3-13.6-16.1-22.5-1.4-4.4-2.3-9.1-2.5-13.8-.2-4.7.3-9.4 1.4-14 2.2-9.1 6.9-17.4 13-24.6 27.9-32.8 79.4-13.3 79.6-13.2-7.3-24.6-186.8-171.9-204-187-.8 4.6-1.9 9.1-3.4 13.5-3.7 10.9-9.7 21-17.4 29.7-7.7 8.6-17 15.9-27.4 21.2-5.2 2.6-10.7 4.8-16.5 6.1-2.9.7-6 1.1-9 1.2-3 .1-6.1-.1-9.1-.6-6.2-1.1-12.2-3.7-17.2-7.7s-9-9.3-11.4-15.3c-2.4-6-3-12.8-1.7-19.1 1.3-6.4 4.5-12.5 9.6-16.9 2.5-2.2 5.4-3.9 8.5-5.2 3.3-1.3 6.7-1.8 10-1.7 6.7.2 13.3 2.6 18.4 7.4 2.5 2.3 4.6 5.3 5.9 8.5.7 1.6 1.1 3.2 1.5 5 .3 1.8.4 3.6.1 5.5-.8 7.3-5.4 13.6-11.9 16.9-.8.4-2.5 1.2-5 1.7-2.4.5-5.6.5-8.5-.2-2.9-.8-5.4-2.2-7-3.5-1.7-1.3-2.6-2.3-2.8-2.5-1.7-1.8-.5-2.8.8-2.6 1 .1 2.5 1.1 4.6 2.2 2 1 4.7 2 7.3 2.1 2.6.2 5.2-.4 7-1.3 1.9-.8 3.1-1.8 3.6-2.1 4.3-3.2 6.9-8.5 6.5-13.7-.4-5.2-3.3-10.1-7.6-13.2-4.2-3.1-9.6-4.6-14.8-4.2-2.6.2-5.1.8-7.4 2-2.3 1.1-4.4 2.7-6.2 4.5-3.6 3.7-5.8 8.6-6.6 13.7-.8 5.1 0 10.3 2.1 15 2.1 4.7 5.4 8.8 9.5 11.8 4.1 3.1 8.9 5 14 5.8 2.6.5 5.2.7 7.9.6 2.6-.1 5.2-.4 7.9-1C221.9 97 227 95 232 92.6c9.9-4.9 18.8-11.8 26.1-20.1.7-.8 1.3-1.6 2-2.4L199.2 0 15.3 203.2c-30.3 40.3-12.9 73.4 28.7 99l.6-19.2 99.3 48.7 64.9-46.6 61.3 37.4-.6 41c12 1.3 23.8 2.3 35.3 3 2.3-4 3.6-6.7 3.6-6.7l-17.6.2c6.7-5.3 11.5-12 15.8-18.4h-10.8c13.8-13 17.4-20.7 17.9-21.7h-12l28.4-45.9c17.7 37.9 30.7 53.2 30.7 53.2h-15.3c9.5 17 23.7 26.7 23.8 26.8l-17.6-.2s5.2 7.1 12.9 14.4c62.6 3.2 129.1-23.9 134.9-78.5zM248.9 155.8c1.5-.9 5.1-6.1 6.5-7.9H252c4.3-3.6 5.5-5.7 5.6-6h-3.8l8.9-12.7c.1.2 5.8 10.9 9.7 14.7h-4.8c.3.6 3.7 5.1 7.4 7.4h-5.5s2.9 3.5 6.8 6H272c1.2 1.5 2.8 2.8 3.4 3.2l11.3-8.4 72.2-19.3 48.2 30-77.6 42.9-47.8-40.8-45.7 34.8-83.5-.5.5-17.2 36.6-21.3L240 187l16.9-12.6-9 .8 6.3-7.5-8.5-.2 8.6-11.4c.1-.3-5.4-.3-5.4-.3zm-63.2-7.6l58.7 31.1-4.2 3.2-55-28.6-38 23.1-3.1-3.8 41.6-25zm100.9 165.2l-67.1-41.9-70.1 49.1-114-51.6 53.5-27.3-20.6 1.5 16-25.6H71.9c3.5-2.2 15.3-20.2 18.4-24.2h-7.7c9.9-8.2 14.4-16 14.8-16.7h-8.7l20.3-29c.3.5 14.7 27 22.1 33.6h-11c.8 1.5 7.4 11 16.8 16.8h.1c.1 0 .1.1.2.1l-12.7-.1s8.8 13.4 17.5 19.1h-9.9c3.1 3.7 12.6 20.5 14.9 24.6l65.3 14.3 81.1 49.6-6.8 7.7zm43.6-47.7L244 232.2v-33.5l30.2-22.5 46.6 39.6 80.8-45.2-.5 45.6-70.9 49.5z"/></svg>
