<svg viewBox="0 0 407 501" version="1.1" xmlns="http://www.w3.org/2000/svg" xmlns:xlink="http://www.w3.org/1999/xlink">
    <defs></defs>
    <g id="Page-1" stroke-width="1" fill-rule="evenodd">
        <g id="pressing" fill-rule="nonzero">
            <path d="M144.771309,435.46539 C143.507061,431.194697 145.944265,426.707741 150.214958,425.443492 C154.485651,424.179244 158.972607,426.616449 160.236856,430.887141 L177.87119,490.456782 C179.135438,494.727475 176.698233,499.214431 172.427541,500.47868 C168.156848,501.742928 163.669892,499.305723 162.405643,495.035031 L144.771309,435.46539 Z M239.179513,430.887141 C240.443761,426.616449 244.930717,424.179244 249.20141,425.443492 C253.472103,426.707741 255.909307,431.194697 254.645059,435.46539 L237.010725,495.035031 C235.746476,499.305723 231.25952,501.742928 226.988827,500.47868 C222.718135,499.214431 220.28093,494.727475 221.545178,490.456782 L239.179513,430.887141 Z M191.751228,388.445272 C191.751228,383.991381 195.36182,380.38079 199.81571,380.38079 C204.269601,380.38079 207.880193,383.991381 207.880193,388.445272 L207.880193,477.047048 C207.880193,481.500939 204.269601,485.11153 199.81571,485.11153 C195.36182,485.11153 191.751228,481.500939 191.751228,477.047048 L191.751228,388.445272 Z M319.071615,363.325205 C336.004323,380.57225 340.959461,406.283906 331.649123,428.588497 C322.338785,450.893089 300.574214,465.451458 276.404625,465.541664 C271.950766,465.558287 268.326724,461.961196 268.310101,457.507336 C268.293478,453.053477 271.890569,449.429435 276.344429,449.412812 C294.02844,449.346812 309.952785,438.694982 316.764821,422.375522 C323.576858,406.056062 319.951364,387.243777 307.562315,374.624741 C295.173267,362.005704 276.430843,358.034836 259.988859,364.54558 C255.216314,366.435426 249.916125,363.444649 249.066519,358.382349 C244.427521,330.741293 219.441412,311.223454 191.499513,313.414021 C163.557615,315.604587 141.918359,338.777726 141.643913,366.724933 L141.643913,374.03673 C141.643913,380.220225 134.971294,384.103219 129.595162,381.048255 C116.497184,373.605384 100.103729,375.394033 88.9189702,385.486333 C77.7342118,395.578633 74.275969,411.70269 80.3382202,425.49408 C86.4004713,439.285471 100.618534,447.639593 115.616726,446.22271 C120.050874,445.803816 123.985043,449.058821 124.403938,453.492969 C124.822832,457.927117 121.567827,461.861285 117.133679,462.28018 C95.2132436,464.351009 74.4329986,452.141137 65.5727853,431.98449 C56.7125721,411.827843 61.766927,388.261913 78.1138816,373.511629 C91.2188806,361.686646 109.216479,357.661393 125.702801,362.134581 C128.22609,327.803445 155.475069,300.059783 190.238915,297.334394 C223.434684,294.731939 253.416927,315.730808 262.882592,346.814766 C282.989787,342.248623 304.324119,348.303938 319.071615,363.325205 Z M199.81571,16.9414641 C187.404202,16.9414641 177.342687,27.0029794 177.342687,39.4144875 C177.342687,43.868378 173.732095,47.4789696 169.278205,47.4789696 C164.824315,47.4789696 161.213723,43.868378 161.213723,39.4144875 C161.213723,18.0951985 178.496421,0.8125 199.81571,0.8125 C221.135,0.8125 238.417698,18.0951985 238.417698,39.4144875 L237.987457,42.0133781 L213.901537,112.765768 C212.46621,116.982043 207.884681,119.236446 203.668406,117.801118 C199.452131,116.36579 197.197727,111.784261 198.633055,107.567986 L222.255278,38.177706 C221.613285,26.3414059 211.812235,16.9414641 199.81571,16.9414641 Z M1.67150418,201.680789 C0.908243881,200.517026 0.483983755,199.221109 0.379373174,197.914739 C0.324995844,197.237252 0.356764475,196.557574 0.47154651,195.892451 C0.816214157,193.893333 1.910817,192.021641 3.68241229,190.736129 L98.5207215,121.919215 L102.63,120.406297 L148.750408,116.809751 L201.562113,102.387278 L205.811211,102.387278 L257.861801,116.750398 L304.743323,120.406297 L308.852602,121.919215 L403.690911,190.736129 C405.462507,192.021641 406.55711,193.893333 406.901777,195.892451 C407.016559,196.557574 407.048328,197.237252 406.993951,197.914739 C406.88934,199.221109 406.46508,200.517026 405.70182,201.680789 L368.525953,259.271148 C366.687827,262.118649 363.265435,263.513007 359.960715,262.760813 L312.180827,251.88554 L312.180827,298.768231 C312.180827,303.222122 308.570236,306.832713 304.116345,306.832713 C299.662455,306.832713 296.051863,303.222122 296.051863,298.768231 L296.051863,241.779224 C296.051863,236.603012 300.859017,232.767074 305.906141,233.91586 L358.036405,245.78133 L388.037594,199.305501 L301.221338,136.309578 L259.827553,133.081622 L208.782453,174.696703 C205.815748,177.115343 201.557576,177.115343 198.590871,174.696703 L147.545771,133.081622 L106.151986,136.309578 L19.3357299,199.305501 L49.3369185,245.78133 L101.467183,233.91586 C106.514307,232.767074 111.321461,236.603012 111.321461,241.779224 L111.321461,311.671402 C111.321461,316.125293 107.710869,319.735884 103.256978,319.735884 C98.803088,319.735884 95.1924964,316.125293 95.1924964,311.671402 L95.1924964,251.88554 L47.4126089,262.760813 C44.1078892,263.513007 40.6854963,262.118649 38.8473707,259.271148 L1.67150418,201.680789 Z M239.993456,128.441783 L203.676116,118.523794 L167.284368,128.363926 L203.686662,158.041298 L239.993456,128.441783 Z" id="Shape"></path>
        </g>
    </g>
</svg>
