<svg viewBox="0 0 501 497" version="1.1" xmlns="http://www.w3.org/2000/svg" xmlns:xlink="http://www.w3.org/1999/xlink">
    <defs></defs>
    <g id="Page-1" stroke-width="1" fill-rule="evenodd">
        <g id="priorityspa" fill-rule="nonzero">
            <path d="M428.42315,160.873823 C431.492293,164.064516 431.393757,169.139115 428.203064,172.208257 C425.012372,175.277399 419.937773,175.178863 416.868631,171.988171 L373.68822,127.097644 C372.251717,125.60425 371.449314,123.612611 371.449314,121.540471 L371.449314,62.9690216 C371.449314,58.5418157 375.038274,54.9528562 379.46548,54.9528562 C383.892685,54.9528562 387.481645,58.5418157 387.481645,62.9690216 L387.481645,118.310872 L428.42315,160.873823 Z M379.46548,241.996717 C312.703214,241.996717 258.581705,187.875207 258.581705,121.112942 C258.581705,54.3506762 312.703214,0.229166667 379.46548,0.229166667 C446.227745,0.229166667 500.349255,54.3506762 500.349255,121.112942 C500.349255,187.875207 446.227745,241.996717 379.46548,241.996717 Z M379.46548,225.964386 C437.373333,225.964386 484.316924,179.020795 484.316924,121.112942 C484.316924,63.2050881 437.373333,16.2614976 379.46548,16.2614976 C321.557626,16.2614976 274.614035,63.2050881 274.614035,121.112942 C274.614035,179.020795 321.557626,225.964386 379.46548,225.964386 Z M398.426627,314.27 C379.64515,318.089723 360.874136,323.320605 343.425237,330.153667 C322.139773,338.489145 304.362552,348.639838 291.29036,360.632488 C283.752085,367.630126 276.951604,375.382674 270.995722,383.768375 L257.92473,374.484799 C264.515567,365.2051 272.041046,356.626054 280.417493,348.850545 C295.165118,335.320613 314.597019,324.225108 337.579184,315.225195 C355.974623,308.021463 375.608257,302.550197 395.231428,298.559292 C402.094061,297.163589 408.471384,296.051261 414.205269,295.193484 C417.674064,294.674559 420.179062,294.353703 421.561433,294.20266 C427.083422,293.599307 431.530388,298.659 430.223161,304.057848 C429.915405,305.328878 429.316127,307.635996 428.421483,310.832405 C426.942138,316.117846 425.160078,321.996766 423.070957,328.322898 C417.099326,346.405782 409.850421,364.495419 401.271848,381.434108 C389.42416,404.827775 375.968355,424.161045 360.709244,438.065375 C323.828315,471.671829 237.844669,498.257302 214.013867,496.350838 L215.292369,480.369565 C218.690492,480.641415 245.06083,475.310196 267.463125,468.383581 C301.699407,457.797989 330.785053,443.642758 349.910958,426.214947 C363.530455,413.804658 375.92769,395.992338 386.969177,374.190542 C395.150456,358.036325 402.109803,340.669279 407.847269,323.295478 C409.173898,319.278272 410.370564,315.45257 411.437905,311.861332 C407.368094,312.537403 403.01272,313.337293 398.426627,314.27 Z M22.9553174,323.295478 C28.6927834,340.669279 35.6521309,358.036325 43.8334095,374.190542 C54.8748967,395.992338 67.2721316,413.804658 80.891629,426.214947 C100.017533,443.642758 129.10318,457.797989 163.339462,468.383581 C185.741757,475.310196 212.112095,480.641415 215.510218,480.369565 L216.78872,496.350838 C192.957918,498.257302 106.974271,471.671829 70.0933421,438.065375 C54.8342312,424.161045 41.3784267,404.827775 29.530739,381.434108 C20.9521653,364.495419 13.7032605,346.405782 7.73162926,328.322898 C5.64250857,321.996766 3.86044828,316.117846 2.38110369,310.832405 C1.4864596,307.635996 0.887181292,305.328878 0.579425672,304.057848 C-0.73155097,298.643514 3.74360604,293.575772 9.2785342,294.206833 C10.6601328,294.364355 13.16433,294.696728 16.6322817,295.231179 C22.3651005,296.114672 28.7413169,297.254656 35.6027817,298.678921 C55.2223269,302.751439 74.8521699,308.295355 93.2433748,315.554275 C116.218399,324.622405 135.643241,335.753438 150.336261,349.233642 C159.573072,357.568725 167.854888,366.90459 175.029195,377.069312 L161.930815,386.314208 C155.441515,377.120019 147.950452,368.675547 139.546746,361.091872 C126.434262,349.062071 108.649982,338.871132 87.3573771,330.467043 C69.9042439,323.578376 51.1294389,318.275943 32.344336,314.376633 C27.7767729,313.428523 23.4380165,312.612594 19.3822123,311.9203 C20.4451208,315.494439 21.6359471,319.300251 22.9553174,323.295478 Z M221.653557,494.188059 C218.564181,497.105803 213.734756,497.105803 210.645381,494.188059 C193.798795,478.277395 156.829844,396.657634 156.829844,346.206868 C156.829844,337.539041 157.746711,328.460932 159.505881,319.017133 C163.561677,297.244298 171.916231,274.194011 183.288856,250.809051 C189.015176,239.034306 195.145024,227.92651 201.278671,217.810252 C204.973538,211.716288 207.866043,207.281975 209.556589,204.837727 C212.73263,200.245701 219.512945,200.225955 222.715678,204.799405 C224.427428,207.243756 227.356195,211.678229 231.097409,217.772457 C237.308112,227.889341 243.515018,238.997915 249.313447,250.773737 C260.830363,274.163029 269.291259,297.218523 273.399272,318.99941 C275.181456,328.448641 276.110386,337.532647 276.110386,346.206868 C276.110386,396.64581 238.774999,478.017808 221.653557,494.188059 Z M236.278894,436.065227 C251.1614,403.628996 260.078055,372.446774 260.078055,346.206868 C260.078055,338.580257 259.249881,330.48154 257.644705,321.97082 C253.840711,301.801849 245.857205,280.047221 234.930243,257.856045 C229.365758,246.555331 223.398112,235.874964 217.434263,226.16019 C217.008299,225.466319 216.593921,224.795836 216.191823,224.149322 C215.801959,224.784162 215.400448,225.442036 214.987935,226.122395 C209.097334,235.837796 203.202934,246.51894 197.706622,257.820731 C186.912454,280.016239 179.025623,301.776075 175.267091,321.953097 C173.680721,330.469249 172.862175,338.573863 172.862175,346.206868 C172.862175,372.467447 181.666551,403.667548 196.356884,436.10075 C202.764232,450.246842 210.823225,465.17566 216.182272,474.217351 C221.615321,465.164799 229.784745,450.219142 236.278894,436.065227 Z" id="Shape"></path>
        </g>
    </g>
</svg>
