<svg id="Calque_1" data-name="Calque 1" xmlns="http://www.w3.org/2000/svg" viewBox="0 0 100 100"><defs></defs><title>Private garden</title><path class="cls-1" d="M60.77,30.17a1.52,1.52,0,0,0-1.39-.4C58.8,29.9,44.91,33,39.77,41.42a12.48,12.48,0,0,0-1.6,9.34l-6.33,7.82V40.24a12.4,12.4,0,0,0,5.4-7.68c2.3-9.57-5.31-21.6-5.63-22.1a1.5,1.5,0,0,0-2.53,0c-.32.5-7.93,12.53-5.64,22.1a12.48,12.48,0,0,0,5.4,7.68V62.43a1.56,1.56,0,0,0,0,1V78.87l-3.71-3.62a12.47,12.47,0,0,0-1.68-8.9C18.3,58,4.42,54.83,3.83,54.71a1.51,1.51,0,0,0-1.39.4A1.5,1.5,0,0,0,2,56.49c.13.59,3.25,14.48,11.65,19.62A12.43,12.43,0,0,0,20.27,78a13.91,13.91,0,0,0,3-.36l5.54,5.41V96.52a1.5,1.5,0,0,0,3,0V63.35l8.53-10.53a13.39,13.39,0,0,0,2.57.25,12.34,12.34,0,0,0,6.58-1.9C57.92,46,61,32.14,61.17,31.56A1.52,1.52,0,0,0,60.77,30.17ZM15.26,73.56C9.9,70.28,6.88,62.35,5.64,58.31c4,1.23,12,4.25,15.25,9.61a9.47,9.47,0,0,1,1.28,6.91A9.47,9.47,0,0,1,15.26,73.56Zm11.1-41.69c-1.47-6.11,2-13.85,4-17.58,2,3.73,5.45,11.46,4,17.57a9.4,9.4,0,0,1-4,5.79A9.43,9.43,0,0,1,26.36,31.87ZM48,48.62A9.44,9.44,0,0,1,41,49.89,9.4,9.4,0,0,1,42.32,43c3.28-5.36,11.21-8.38,15.25-9.62C56.33,37.41,53.32,45.33,48,48.62Z"/><path class="cls-1" d="M69.31,97.71h0l7.45-8.94a1.5,1.5,0,0,0-2.31-1.92l-4.81,5.78V74.05a7.34,7.34,0,1,0-3,0V92.63l-4.81-5.78a1.5,1.5,0,0,0-2.11-.19,1.49,1.49,0,0,0-.19,2.11L67,97.71h0l0,0a.12.12,0,0,0,.05,0l.14.15h0a1.8,1.8,0,0,0,.4.23l.1,0a1.62,1.62,0,0,0,.44.07h0a1.68,1.68,0,0,0,.44-.07l.09,0a1.6,1.6,0,0,0,.4-.23h0l.13-.14s0,0,.06-.06ZM63.8,66.87a4.34,4.34,0,1,1,4.34,4.33A4.35,4.35,0,0,1,63.8,66.87Z"/><path class="cls-1" d="M82.21,89.89a1.5,1.5,0,0,0-2.11.19l-4.77,5.73a1.49,1.49,0,0,0,1.15,2.46,1.47,1.47,0,0,0,1.15-.54L82.41,92A1.5,1.5,0,0,0,82.21,89.89Z"/><path class="cls-1" d="M85.65,90.29l-4.6,5.52a1.5,1.5,0,0,0,2.31,1.92L88,92.21a1.5,1.5,0,1,0-2.3-1.92Z"/><path class="cls-1" d="M68.14,58.33a1.5,1.5,0,0,0,1.5-1.5V52.74a1.5,1.5,0,1,0-3,0v4.09A1.5,1.5,0,0,0,68.14,58.33Z"/><path class="cls-1" d="M57.09,55.81a1.5,1.5,0,0,0,0,2.13L60,60.83a1.45,1.45,0,0,0,1.06.44,1.48,1.48,0,0,0,1.06-.44,1.51,1.51,0,0,0,0-2.12l-2.9-2.9A1.51,1.51,0,0,0,57.09,55.81Z"/><path class="cls-1" d="M59.61,66.87a1.5,1.5,0,0,0-1.5-1.5H54a1.5,1.5,0,1,0,0,3h4.1A1.5,1.5,0,0,0,59.61,66.87Z"/><path class="cls-1" d="M62.11,75A1.5,1.5,0,0,0,60,72.9l-2.9,2.9a1.49,1.49,0,0,0,0,2.12,1.5,1.5,0,0,0,2.12,0Z"/><path class="cls-1" d="M74.18,72.9a1.49,1.49,0,0,0,0,2.12l2.89,2.9a1.51,1.51,0,0,0,1.06.44,1.5,1.5,0,0,0,1.06-2.56L76.3,72.9A1.51,1.51,0,0,0,74.18,72.9Z"/><path class="cls-1" d="M83.77,66.87a1.5,1.5,0,0,0-1.5-1.5h-4.1a1.5,1.5,0,0,0,0,3h4.1A1.5,1.5,0,0,0,83.77,66.87Z"/><path class="cls-1" d="M77.07,55.81l-2.89,2.9a1.49,1.49,0,0,0,0,2.12,1.45,1.45,0,0,0,1.06.44,1.48,1.48,0,0,0,1.06-.44l2.89-2.89a1.5,1.5,0,1,0-2.12-2.13Z"/><path class="cls-1" d="M99.92,13.25a13.51,13.51,0,1,0-19,13.07l-1,4.42a1.51,1.51,0,0,0,.42,1.42l2.63,2.54L80.6,37.39a1.51,1.51,0,0,0,.15,2.11l3.37,3-1.84,2.26a1.5,1.5,0,0,0,.15,2l5.07,4.73a1.49,1.49,0,0,0,1,.4h.06a1.52,1.52,0,0,0,1-.48l4-4.39a1.51,1.51,0,0,0,.4-1l-.18-20.72A13.47,13.47,0,0,0,99.92,13.25ZM76,14.62A10.52,10.52,0,0,1,85.84,3.53l.61,0A10.51,10.51,0,1,1,76,14.62ZM91.06,45.41l-2.62,2.84L85.5,45.51l1.86-2.29a1.5,1.5,0,0,0-.18-2.08l-3.34-2.92,2.27-2.65a1.5,1.5,0,0,0-.1-2l-3-2.93.78-3.34a13.14,13.14,0,0,0,2.67.27c.26,0,.52,0,.78,0a13.37,13.37,0,0,0,3.7-.75Z"/><path class="cls-1" d="M86.71,15.8a4.77,4.77,0,0,0,4.5-5,4.78,4.78,0,1,0-7.95,3.84,4.72,4.72,0,0,0,3.17,1.21Zm-2-4.66a1.79,1.79,0,0,1,1.68-1.88h.1a1.78,1.78,0,0,1,1.78,1.67,1.84,1.84,0,0,1-.45,1.29,1.8,1.8,0,0,1-1.23.59,1.74,1.74,0,0,1-1.28-.45A1.77,1.77,0,0,1,84.66,11.14Z"/></svg>
