<svg id="Calque_1" data-name="Calque 1" xmlns="http://www.w3.org/2000/svg" viewBox="0 0 100 100"><defs></defs><title>Private pool</title><path class="cls-1" d="M96,41.36H2.32a1.51,1.51,0,0,0-1.5,1.5V70.74a1.5,1.5,0,0,0,3,0v-2H16.41v2a1.5,1.5,0,0,0,3,0V44.36H96a1.5,1.5,0,0,0,0-3ZM16.41,58H3.82V52.67H16.41ZM3.82,65.78V61H16.41v4.8ZM16.41,49.67H3.82V44.36H16.41Z"/><path class="cls-1" d="M22,95H8.67a1.5,1.5,0,0,0,0,3H22a1.5,1.5,0,0,0,0-3Z"/><path class="cls-1" d="M42.6,82.75H29.28a1.5,1.5,0,0,0,0,3H42.6a1.5,1.5,0,0,0,0-3Z"/><path class="cls-1" d="M82.2,95H68.88a1.5,1.5,0,0,0,0,3H82.2a1.5,1.5,0,1,0,0-3Z"/><path class="cls-1" d="M80.68,70.25a1.5,1.5,0,0,0-1.5-1.5H56.7a1.5,1.5,0,0,0,0,3H79.18A1.5,1.5,0,0,0,80.68,70.25Z"/><path class="cls-1" d="M53.56,92.21H45.44a1.5,1.5,0,1,0,0,3h8.12a1.5,1.5,0,0,0,0-3Z"/><path class="cls-1" d="M15.68,82.66a1.5,1.5,0,0,0-1.5-1.5H6.06a1.5,1.5,0,0,0,0,3h8.12A1.5,1.5,0,0,0,15.68,82.66Z"/><path class="cls-1" d="M29.28,52.16H42.6a1.5,1.5,0,0,0,0-3H29.28a1.5,1.5,0,0,0,0,3Z"/><path class="cls-1" d="M82.2,58.3a1.5,1.5,0,0,0,0-3H68.88a1.5,1.5,0,0,0,0,3Z"/><path class="cls-1" d="M53.56,58.62H45.44a1.5,1.5,0,0,0,0,3h8.12a1.5,1.5,0,0,0,0-3Z"/><path class="cls-1" d="M71.23,82.66a1.5,1.5,0,0,0-1.5-1.5H61.62a1.5,1.5,0,0,0,0,3h8.11A1.5,1.5,0,0,0,71.23,82.66Z"/><path class="cls-1" d="M92.11,86.42H84a1.5,1.5,0,0,0,0,3h8.12a1.5,1.5,0,0,0,0-3Z"/><path class="cls-1" d="M36.37,74.39a1.5,1.5,0,0,0,0-3H28a1.5,1.5,0,0,0,0,3Z"/><path class="cls-1" d="M40.29,34.62l.82,0a14.08,14.08,0,0,0,12-8.33l4.68,1.09a1.32,1.32,0,0,0,.34,0,1.5,1.5,0,0,0,1.08-.46l2.7-2.8,2.88,2.46a1.49,1.49,0,0,0,2.1-.15l3.14-3.58,2.42,2a1.5,1.5,0,0,0,2-.14l5-5.32a1.5,1.5,0,0,0-.08-2.12L74.82,13a1.57,1.57,0,0,0-1-.4l-21.74.18A14,14,0,0,0,39.5,6.48a14.08,14.08,0,0,0,.79,28.14Zm32.93-19,3,2.82-3,3.19-2.45-2a1.49,1.49,0,0,0-2.07.18l-3.12,3.55-2.82-2.42a1.5,1.5,0,0,0-2.05.1l-3.1,3.21-3.61-.85a14.41,14.41,0,0,0,.28-3.66,14.08,14.08,0,0,0-.8-3.95ZM39.67,9.48l.65,0a11.08,11.08,0,0,1,.61,22.14A11.08,11.08,0,1,1,39.67,9.48Z"/><path class="cls-1" d="M37.17,25.47h.29a4.92,4.92,0,0,0,3.4-1.65,4.93,4.93,0,0,0-.4-7,4.91,4.91,0,0,0-3.56-1.25h0a4.94,4.94,0,0,0-4.64,5.21,4.93,4.93,0,0,0,4.92,4.65Zm-1.44-6.22a2,2,0,0,1,1.34-.64,1.95,1.95,0,0,1,2,1.82A1.93,1.93,0,0,1,35.89,22a1.89,1.89,0,0,1-.65-1.33A2,2,0,0,1,35.73,19.25Z"/></svg>
