<?xml version="1.0" encoding="utf-8"?>
<!-- Generator: Adobe Illustrator 23.0.3, SVG Export Plug-In . SVG Version: 6.00 Build 0)  -->
<svg version="1.1" id="Calque_1" xmlns="http://www.w3.org/2000/svg" xmlns:xlink="http://www.w3.org/1999/xlink" x="0px" y="0px"
	 viewBox="0 0 128 128" style="enable-background:new 0 0 128 128;" xml:space="preserve">
<style type="text/css">
	.st0{fill:#005589;}
</style>
<title>WIP/Icons/Equipments/Chalet/Private transfer</title>
<desc>Created with Sketch.</desc>
<g>
	<path id="Icon" class="st0" d="M68.7,89.8v2.7c0,0.7-0.2,1.4-0.6,1.9c0,0.3,0,0.7,0,1.1c0,5.8,1.8,11.2,4.9,15.6l20.5-17.2V68.2
		C81.2,69.1,71.1,78.1,68.7,89.8z M64,95.8c-0.3-0.1-0.5-0.2-0.7-0.4L47.3,85.1c-1.2-0.8-2.7-0.8-3.8,0L27.4,95.5
		c-1.6,1.1-3.8,0.6-4.8-1c-0.4-0.6-0.6-1.2-0.6-1.9V71.3c0-1.9,1.6-3.5,3.5-3.5c0.6,0,1.2,0.2,1.8,0.5l16.4,9.8
		c1.1,0.7,2.5,0.7,3.6,0l16.1-9.7c1.7-1,3.8-0.5,4.8,1.2c0.3,0.5,0.5,1.2,0.5,1.8V79c5.5-9,15.5-15,26.8-15
		c17.4,0,31.5,14.1,31.5,31.5S112.9,127,95.5,127C78.2,127,64.2,113.1,64,95.8z M64.4,90.5c0.1-0.7,0.2-1.4,0.4-2.1V71.6l-15.2,9.8
		c-0.1,0-0.1,0.1-0.2,0.1L64.4,90.5z M75.5,114.3c5,5.3,12.1,8.6,20,8.6c7.7,0,14.7-3.2,19.7-8.3l-20-16.8L75.5,114.3z M117.8,111.4
		c3.2-4.5,5.1-10,5.1-15.9c0-14.5-11.2-26.3-25.4-27.3v26.3L117.8,111.4z M5.1,125c0,1.1-0.9,2-2,2s-2-0.9-2-2
		c0-23.1,3.1-34.8,12.6-43.3c0.8-0.7,2.1-0.7,2.9,0.2c0.7,0.8,0.7,2.1-0.2,2.9C7.9,92.2,5.1,102.9,5.1,125z M26.1,91.5l15.2-9.8
		c0.1,0,0.1-0.1,0.2-0.1l-15.4-9.2V91.5z M45.9,107.1c-1.6,0-2.9-1.3-2.9-2.9c0-1.6,1.3-2.9,2.9-2.9s2.9,1.3,2.9,2.9
		C48.8,105.8,47.5,107.1,45.9,107.1z M45.9,123.7c-1.6,0-2.9-1.3-2.9-2.9c0-1.6,1.3-2.9,2.9-2.9s2.9,1.3,2.9,2.9
		C48.8,122.4,47.5,123.7,45.9,123.7z M45.3,64c-17.4,0-31.5-14.1-31.5-31.5S27.9,1,45.3,1s31.5,14.1,31.5,31.5S62.7,64,45.3,64z
		 M45.3,59.9c15.1,0,27.4-12.3,27.4-27.4S60.5,5.1,45.3,5.1S17.9,17.4,17.9,32.5S30.2,59.9,45.3,59.9z"/>
</g>
</svg>
