<svg id="Calque_1" data-name="Calque 1" xmlns="http://www.w3.org/2000/svg" viewBox="0 0 100 100"><defs></defs><title>Private furnished terrace</title><path class="cls-1" d="M83.3,53.3l-40-31.44-.06,0a1.59,1.59,0,0,0-.29-.15l-.12-.06a1.55,1.55,0,0,0-.43-.07h0a1.37,1.37,0,0,0-.45.07l-.12.05a1.59,1.59,0,0,0-.29.15l-.06,0-40,30.56a1.53,1.53,0,0,0-.59,1.2v6.72a1.5,1.5,0,0,0,1.5,1.5h38.5v15h-14a1.5,1.5,0,0,0,0,3h14V95.51H11.63a8.81,8.81,0,0,0,6.87-8.59V81.36a1.5,1.5,0,0,0-1.5-1.5H2.38a1.5,1.5,0,0,0-1.5,1.5v5.56a8.81,8.81,0,0,0,6.87,8.59H2.38a1.5,1.5,0,1,0,0,3h80a1.5,1.5,0,0,0,0-3H77a8.81,8.81,0,0,0,6.88-8.59V81.36a1.5,1.5,0,0,0-1.5-1.5H67.75a1.5,1.5,0,0,0-1.5,1.5v5.56a8.81,8.81,0,0,0,6.88,8.59H43.88V79.79h14a1.5,1.5,0,1,0,0-3h-14v-15h38.5a1.5,1.5,0,0,0,1.5-1.5V54.48A1.49,1.49,0,0,0,83.3,53.3ZM3.88,86.92V82.86H15.5v4.06a5.81,5.81,0,0,1-11.62,0Zm65.37,0V82.86H80.88v4.06a5.82,5.82,0,0,1-11.63,0ZM3.88,54.35,37.55,28.61,24,52.88a1.42,1.42,0,0,0-.19.73v5.22h-20Zm23,4.48V54L42.36,26.15,57.92,54.86v4Zm54,0h-20V54.48a1.48,1.48,0,0,0-.19-.71L47.15,28.7,80.88,55.21Z"/><path class="cls-1" d="M99.41,12.44h0A13,13,0,0,0,76.78,4.55a13,13,0,0,0,1,18.31A12.72,12.72,0,0,0,81.08,25l-1,4.16a1.49,1.49,0,0,0,.42,1.42L83,32.94l-2.16,2.53a1.5,1.5,0,0,0,.15,2.1l3.17,2.78-1.71,2.11a1.49,1.49,0,0,0,.14,2L87.42,49a1.51,1.51,0,0,0,1,.4h0a1.54,1.54,0,0,0,1-.48l3.87-4.19a1.53,1.53,0,0,0,.4-1L93.65,24A13,13,0,0,0,99.41,12.44ZM76.5,13.75A10,10,0,0,1,85.89,3.23l.58,0a10,10,0,0,1,10,9.4h0A10,10,0,0,1,76.5,13.75Zm14.31,29.4L88.37,45.8l-2.72-2.54,1.74-2.14a1.49,1.49,0,0,0-.18-2.07l-3.14-2.76,2.12-2.47a1.49,1.49,0,0,0-.1-2.05L83.23,29,84,25.91a12.89,12.89,0,0,0,2.49.24c.25,0,.51,0,.76,0a12.73,12.73,0,0,0,3.46-.69Z"/><path class="cls-1" d="M86.72,15a4.63,4.63,0,1,0-4.88-4.36A4.62,4.62,0,0,0,86.45,15Zm-1.89-4.54A1.64,1.64,0,0,1,86.37,8.7h.09a1.64,1.64,0,0,1,1.09.41,1.66,1.66,0,0,1,.54,1.13A1.63,1.63,0,0,1,86.55,12a1.62,1.62,0,0,1-1.72-1.54Z"/></svg>
