<svg version="1.1" id="Calque_1" xmlns="http://www.w3.org/2000/svg" xmlns:xlink="http://www.w3.org/1999/xlink" x="0px" y="0px"
	 viewBox="0 0 500 500" style="enable-background:new 0 0 500 500;" xml:space="preserve">
<g id="Page-1">
	<g id="Icone" transform="translate(-521.000000, -748.000000)">
		<g id="casier-a-ski" transform="translate(521.000000, 748.000000)">
			<path class="st0" d="M55.6,500c-23.9,0-42-10.6-42-24.6c0.1-2.1,11.9-143.7,9.5-225.1C20.8,168.4,13.8,26.4,13.7,25
				c0-14.4,18-25,42-25s42,10.6,42,24.6l-4.1,232.5c0,16.5,4.1,215.7,4.1,217.7c0,0.1,0,0.3,0,0.4c0,0.1,0,0.1,0,0.2
				C97.6,489.4,79.6,500,55.6,500z M55.6,16.3c-17.4,0-25.7,6.7-25.7,8.3c0.1,1,7.2,143.1,9.5,225.1c2.4,82.4-9.4,224.9-9.6,226.3
				c0,1,8.3,7.7,25.7,7.7s25.7-6.7,25.7-8.4c0-0.1,0-0.1,0-0.2c0,0,0,0,0,0c-0.2-8.2-4.1-201.4-4.1-218.2l4.1-232.5
				C81.3,23,73.1,16.3,55.6,16.3z"/>
			<path class="st0" d="M86.2,237.5H30c-4.5,0-8.1-3.6-8.1-8.1c0-4.5,3.6-8.1,8.1-8.1h56.2c4.5,0,8.1,3.6,8.1,8.1
				C94.4,233.9,90.7,237.5,86.2,237.5z"/>
			<path class="st0" d="M82.5,313.4H34.6c-4.5,0-8.1-3.6-8.1-8.1c0-4.5,3.6-8.1,8.1-8.1h47.9c4.5,0,8.1,3.6,8.1,8.1
				C90.7,309.8,87,313.4,82.5,313.4z"/>
			<path class="st0" d="M177.8,500c-24.1,0-42.2-10.6-42.2-24.6c0.1-2.1,11.7-143.3,9.8-225c-1.9-82-9.7-223.9-9.8-225.3
				c0-14.7,17.7-25.1,42.2-25.1c24.3,0,42,10.3,42,24.6l-4.3,232.5c0,15.7,3.7,198.1,4.1,216.3c0.2,0.6,0.3,1.3,0.3,2
				C219.7,489.4,201.7,500,177.8,500z M177.8,16.3c-17.6,0-25.9,6.7-25.9,8.3c0.1,1,7.8,143.2,9.8,225.4c1.9,82.6-9.7,224.6-9.8,226
				c0.3,1.5,9.6,7.7,26,7.7c16,0,24.3-5.7,25.5-7.9c0-0.3,0-0.5-0.1-0.8c-0.2-8.2-4.1-201.4-4.1-218.2l4.3-232.5
				C203.5,22.5,194.4,16.3,177.8,16.3z"/>
			<path class="st0" d="M208.3,237.5h-56.2c-4.5,0-8.1-3.6-8.1-8.1c0-4.5,3.6-8.1,8.1-8.1h56.2c4.5,0,8.1,3.6,8.1,8.1
				C216.5,233.9,212.8,237.5,208.3,237.5z"/>
			<path class="st0" d="M204.7,313.4h-47.9c-4.5,0-8.1-3.6-8.1-8.1c0-4.5,3.6-8.1,8.1-8.1h47.9c4.5,0,8.1,3.6,8.1,8.1
				C212.8,309.8,209.1,313.4,204.7,313.4z"/>
			<path class="st0" d="M426.6,211.9c-4.5,0-8.1-3.6-8.1-8.1v-65.1c0-24-19.5-43.5-43.5-43.5c-24,0-43.5,19.5-43.5,43.5v65.1
				c0,4.5-3.6,8.1-8.1,8.1c-4.5,0-8.1-3.6-8.1-8.1v-65.1c0-33,26.8-59.8,59.8-59.8s59.8,26.8,59.8,59.8v65.1
				C434.7,208.3,431.1,211.9,426.6,211.9z"/>
			<path class="st0" d="M374.3,375.9c-13.9,0-25.3-11.3-25.3-25.3v-51.5c-11.3-10.7-14.8-27.8-8-42.1c7.4-15.7,25-24,41.8-20
				c16.8,4.1,28.5,19.5,27.9,36.8c0,9.8-4.1,19.3-11.1,26.1v50.8C399.6,364.6,388.2,375.9,374.3,375.9z M374.1,252.2
				c-7.7,0-15,4.4-18.4,11.7c-4.1,8.7-1.4,19.2,6.3,24.9c2.1,1.5,3.3,4,3.3,6.5v55.3c0,5,4,9,9,9c5,0,9-4,9-9v-54.4
				c0-2.5,1.2-4.9,3.2-6.4c5-3.8,7.9-9.8,7.9-16.1c0-0.1,0-0.2,0-0.3c0.4-9.6-6.1-18.2-15.5-20.5
				C377.3,252.4,375.7,252.2,374.1,252.2z"/>
			<path class="st0" d="M478.2,421.2H270.4c-4.5,0-8.1-3.6-8.1-8.1V203.8c0-4.5,3.6-8.1,8.1-8.1h207.8c4.5,0,8.1,3.6,8.1,8.1v209.3
				C486.3,417.6,482.7,421.2,478.2,421.2z M278.5,405h191.5v-193H278.5V405z"/>
		</g>
	</g>
</g>
</svg>
