<svg version="1.1" id="Calque_1" xmlns="http://www.w3.org/2000/svg" xmlns:xlink="http://www.w3.org/1999/xlink" x="0px" y="0px"
	 viewBox="0 0 500 500" style="enable-background:new 0 0 500 500;" xml:space="preserve">
<g id="Page-1">
	<g id="Icone" transform="translate(-515.000000, -1074.000000)">
		<g id="ofuro" transform="translate(515.000000, 1074.000000)">
			<path class="st0" d="M250,184.3c-41.7,0-250-1.9-250-38.7c0-36.8,208.3-38.7,250-38.7s250,1.9,250,38.7
				C500,182.4,291.7,184.3,250,184.3z M17.2,145.6c15.7,10,101.6,23,232.8,23s217.1-13.1,232.8-23c-15.7-10-101.6-23-232.8-23
				C118.8,122.6,32.9,135.6,17.2,145.6z"/>
			<path class="st0" d="M208.6,393.1c-15.5,0-35.8-0.1-62-0.4c-77.4-0.8-98.5-25.7-106.4-62.9c-6.2-29.6-40-182.3-40-182.3l15.3-3.4
				c0,0,33.8,152.8,40,182.4c5.5,26.1,16.7,49.7,91.2,50.5c76.7,0.8,103.6,0,103.9,0l0.5,15.6C250.4,392.7,238.7,393.1,208.6,393.1z
				"/>
			<path class="st0" d="M291.2,393.1c-30.1,0-41.8-0.3-42.5-0.4l0.5-15.6c0.3,0,27.1,0.9,103.9,0c74.2-0.8,85.5-24.4,91.2-50.5
				c6.5-29.6,40-182.4,40-182.4l15.3,3.4c0,0-33.6,152.8-40,182.4c-8.1,37.1-29.3,62-106.3,62.8C327,393,306.7,393.1,291.2,393.1z"
				/>
			<polygon class="st0" points="101,382.2 69.9,168.8 85.4,166.6 116.4,380 			"/>
			
				<rect x="159.9" y="176.4" transform="matrix(0.999 -4.386398e-02 4.386398e-02 0.999 -12.1592 7.6253)" class="st0" width="15.6" height="209"/>
			<rect x="237.6" y="180.6" class="st0" width="15.6" height="204.2"/>
			<polygon class="st0" points="389.2,382.3 373.8,380 405,166.6 420.5,168.8 			"/>
			<polygon class="st0" points="326,385.6 310.3,385 319.3,176.1 334.9,176.8 			"/>
		</g>
	</g>
</g>
</svg>
