<svg version="1.1"
	 xmlns="http://www.w3.org/2000/svg" xmlns:xlink="http://www.w3.org/1999/xlink"
	 x="0px" y="0px" viewBox="0 0 497.9 327.6" style="enable-background:new 0 0 497.9 327.6;"
	 xml:space="preserve">
<defs>
</defs>
<path d="M301.4,78.6v39.3h13.1V78.6H301.4z M301.4,144.1v39.3h13.1v-39.3H301.4z M301.4,209.6v39.3h13.1v-39.3H301.4z M458.6,0
	c21.7,0,39.3,17.6,39.3,39.3v248.9c0,21.7-17.6,39.3-39.3,39.3H340.7c0-28.9-7.4-39.3-32.8-39.3s-32.8,10.4-32.8,39.3H39.3
	C17.6,327.6,0,310,0,288.3V39.3C0,17.6,17.6,0,39.3,0h235.8c0,28.9,7.4,39.3,32.8,39.3S340.7,28.9,340.7,0H458.6z M307.9,59
	c-30,0-46-13-50.8-39.3H39.3c-10.9,0-19.7,8.8-19.7,19.7v248.9c0,10.9,8.8,19.7,19.7,19.7h217.8c4.8-26.4,20.8-39.3,50.8-39.3
	c30,0,46,13,50.8,39.3h99.9c10.9,0,19.7-8.8,19.7-19.7V39.3c0-10.9-8.8-19.7-19.7-19.7h-99.9C353.9,46,337.9,59,307.9,59z"/>
<polygon points="152,79.6 170.5,139.7 230.6,139.7 182,176.8 200.6,236.9 152,199.7 103.4,236.9 122,176.8 73.4,139.7 133.4,139.7
	"/>
</svg>
