<svg xmlns="http://www.w3.org/2000/svg" viewBox="0 0 500 420.8"><path d="M460.1 6.6c-61.6-9.7-74.4 25.3-80.6 51.6-7 29.8-.8 63.3-37.7 96.2-29.4 26.2-67 19.9-80.4 16.5-50.8-14.3-121.4-65.3-122.6-145.4-19.2-3.7-44 9.5-46.7 24.3 8 36.1 57.6 88.9 130.1 117.8-1.1 1.6-2 3.1-2.9 4.6C106.3 134.7 76.9 55.1 76.9 55.1 54.5 57.6 47 76.7 45.4 93.7c48.6 63.4 115.5 86 167.3 93.4-.5 1.6-.8 3.1-1.1 4.7C157.3 187.5 85.9 168.7 38 106c-15.5 3.5-29.1 22.6-25 42.3 23.7 24.9 115.5 62.2 197.9 52.8.1 1 .2 3.5.4 4.5-113.7 16.3-193.5-37.5-198.8-42.7-19.7 13.3-13.6 49.1 1.4 57.5 78.4 18.6 150.2 8.2 199.6-6 .7 1.8 1.2 2.8 2 4.4-49.8 17.7-121.2 31.7-202.3 12.9-4.6 17 11.9 41.4 33.6 45.9 151.9-10 197.5-73.3 259.4-95.8 7.5-2.7 15.2-5.1 23.2-6.1s16.4-.8 24.4 1.4c8 2.1 15.5 6.1 21.9 11.2 6.5 5.1 12.1 11.3 16.3 18.6 4.2 7.2 6.8 15.4 7.5 23.8.7 8.6-.5 17.3-3.9 25.4-1.6 4-4 7.9-6.6 11.2-2.6 3.4-5.5 6.6-8.7 9.4-6.5 5.7-14.6 10-23.4 11.4-8.8 1.5-18-.2-25.9-3.9-8-3.7-15.1-9.9-19.3-18.1-2.1-4.1-3.4-8.6-3.7-13.2-.3-4.6.3-9.2 1.6-13.5.7-2.1 1.5-4.2 2.4-6.2 1-2.1 2.3-4.2 3.8-6 3-3.7 6.8-6.6 10.9-8.6 8.3-4 17.9-5.1 27-2.2 1.1.4 3.5 1.2 6.3 2.9s5.8 4.4 8 7.7c2.2 3.2 3.4 6.8 4 9.5.6 2.7.7 4.6.7 4.9.2 3.3-1.5 3.3-2.5 2-.8-1-1.5-3.4-2.6-6.3-1.2-2.9-3-6.3-5.6-8.9-2.5-2.7-5.7-4.5-8.4-5.5s-4.9-1.4-5.6-1.5c-7.4-1.1-15.3.6-21.5 4.7-3.1 2.1-5.7 4.8-7.6 7.9-1.8 3.2-3.1 6.8-3.9 10.4-1.5 7.3-.2 14.9 3.7 21.1 3.9 6.2 10.1 10.8 16.9 13.5 6.8 2.8 14.4 3.6 21.4 2 7.1-1.5 13.6-5.3 18.9-10.3 2.7-2.5 5.1-5.3 7.3-8.3 2.2-3.1 3.9-6.1 5.2-9.5 2.6-6.7 3.5-14.1 2.9-21.3-.6-7.4-2.9-14.6-6.5-21-3.7-6.4-8.7-12.1-14.7-16.7-5.9-4.6-12.6-8.1-19.7-9.8-7.1-1.8-14.7-2.2-22.1-.8C261.6 194.8 200 276.3 62 286c-.2 8.8 27.4 22.3 39.3 20.8 8.1-1 21.8-3.7 21.8-3.7 10.4 20.6 25.9 33.1 44.6 41.5v-.1l79.7-67.9 52.7 47.4 26.4-21 41.6 35.4c15.4 14.5-40.5-13.3-51.3-11.6-9 1.4 15.6 26.5-10.2 7.9-46.4-24.6-73.1 22.3-119.1 18 10.7 3.8 14 3.4 25.9 6 19.8 15.1 66.2 37.2 85.3 42.8-17 5.8-28.8 13.2-33.9 19.4h124.4c-3.6-15.4-72.2-24.5-94.5-40.1 12.9-.7 28.7-4.6 41.3-10.4 180-83 36.2-185.5 111.4-261.3C493.1 63 461 34.7 500 4.7c-9.7-11.6-39.9 1.9-39.9 1.9zm-34.4 28.2c-4.7 0-8.5-3.8-8.5-8.4 0-4.7 3.8-8.5 8.4-8.5 4.7 0 8.4 3.8 8.5 8.4 0 4.7-3.8 8.5-8.4 8.5z"/></svg>
