<svg id="Calque_1" data-name="Calque 1" xmlns="http://www.w3.org/2000/svg" viewBox="0 0 24 24"><defs></defs><title>Appareil fondue et
raclette</title><path class="cls-1" d="M22.57,16.31H17.4c0-.2,0-.4-.06-.59-.24-1.72-2.86-2.54-8.23-2.57l0-5.1a.38.38,0,0,0-.38-.38.36.36,0,0,0-.37.38l0,5.1c-1.13,0-2.14,0-3,.13L2.88,9a.38.38,0,0,0-.51-.15.39.39,0,0,0-.14.52l2.28,4C1.76,13.72.35,14.49.18,15.72a6.93,6.93,0,0,0,1.37,5.57C3,22.94,5.41,23.78,8.76,23.78s5.77-.84,7.21-2.49A5.79,5.79,0,0,0,17.18,19h5.39a1.34,1.34,0,1,0,0-2.67ZM5,14.17l1.14,2c-2.49-.25-3.77-.8-3.77-1.08S3.23,14.45,5,14.17Zm2,2.08H7L5.77,14.06c.74-.09,1.61-.14,2.59-.16v2.4C7.88,16.29,7.42,16.28,7,16.25ZM9.11,13.9c4,0,6.06.85,6.06,1.2s-2.07,1.15-6.06,1.2Zm6.29,6.9C14.12,22.28,11.88,23,8.76,23s-5.35-.75-6.64-2.23a6.19,6.19,0,0,1-1.19-5,1.3,1.3,0,0,1,.68-.88,1.1,1.1,0,0,0,0,.16c0,1.55,4.69,2,7.17,2s7.17-.41,7.17-2a.47.47,0,0,0,0-.17,1.33,1.33,0,0,1,.72.89A6.2,6.2,0,0,1,15.4,20.8Zm7.17-2.57H17.34a7.88,7.88,0,0,0,.09-1.17h5.14a.59.59,0,1,1,0,1.17Z"/><path class="cls-1" d="M14.23,6.26a.37.37,0,0,0,.51-.14c.48-.82,1-1.28,1.39-1.33s1.05.48,1.53,1c.76.85,1.18,2,.9,2.51a.37.37,0,0,0,.14.51.34.34,0,0,0,.19.05.36.36,0,0,0,.32-.18c.52-.9-.12-2.42-1-3.39C17.77,4.8,17,4,16.06,4.05c-.71.07-1.35.63-2,1.7A.37.37,0,0,0,14.23,6.26Z"/><path class="cls-1" d="M8.33,4.45a9.86,9.86,0,0,1,3.16,1.47l.45.26a4,4,0,0,0-.23,3.15c.67,1.48,2.57,1.86,3.82,2.12a9.64,9.64,0,0,0,1.87.18c1.79,0,3.53-.5,4.16-1.6.85-1.47-.25-4.17-1.81-5.92-.85-1-2.14-2.41-3.75-2.24a4,4,0,0,0-2.6,1.78l-.46-.26a9.65,9.65,0,0,1-2.85-2A3.06,3.06,0,0,0,7.78,0h0A1.94,1.94,0,0,0,6.09,1.13,1.92,1.92,0,0,0,6,3.1,3,3,0,0,0,8.33,4.45Zm7.75-1.83c1.15-.12,2.16.92,3.11,2,1.52,1.71,2.31,4,1.72,5.05s-3,1.51-5.23,1.05c-1.4-.28-2.82-.65-3.28-1.69-.39-.85-.1-2.12.85-3.77S15.15,2.72,16.08,2.62ZM13,4.27a7,7,0,0,0-.37.61c-.13.21-.24.42-.34.62l-.39-.23c-.55-.32-1.11-.65-1.64-.92L11,3.1c.5.32,1.06.64,1.62.95ZM7.75.79a2.24,2.24,0,0,1,1.71,1,3.55,3.55,0,0,0,.87.86L9.55,4A3.79,3.79,0,0,0,8.36,3.7a2.29,2.29,0,0,1-1.73-1A1.23,1.23,0,0,1,6.74,1.5,1.23,1.23,0,0,1,7.75.79Z"/></svg>