<svg id="Calque_1" data-name="Calque 1" xmlns="http://www.w3.org/2000/svg" viewBox="0 0 24 24"><defs></defs><title>Salle de bain avec
baignoire et douche
à effet pluie</title><path class="cls-1" d="M20.72,6.42H12.28V3.56A3.41,3.41,0,0,0,8.87.16H.51A.37.37,0,0,0,.13.53.38.38,0,0,0,.51.91H8.87a2.66,2.66,0,0,1,2.66,2.65V6.42H3.28a.38.38,0,0,0-.38.38V9.3a.37.37,0,0,0,.38.37H20.72a.37.37,0,0,0,.38-.37V6.8A.38.38,0,0,0,20.72,6.42Zm-.37,2.5H3.65V7.17h16.7Z"/><path class="cls-1" d="M20.72,11.12H3.28a.38.38,0,1,0,0,.75H20.72a.38.38,0,1,0,0-.75Z"/><path class="cls-1" d="M8.68,13.54a.37.37,0,0,0-.38.37v1.35a.38.38,0,1,0,.75,0V13.91A.37.37,0,0,0,8.68,13.54Z"/><path class="cls-1" d="M12,13.54a.37.37,0,0,0-.38.37v1.35a.38.38,0,0,0,.76,0V13.91A.37.37,0,0,0,12,13.54Z"/><path class="cls-1" d="M15.32,13.54a.37.37,0,0,0-.37.37v1.35a.38.38,0,1,0,.75,0V13.91A.37.37,0,0,0,15.32,13.54Z"/><path class="cls-1" d="M18.65,13.54a.37.37,0,0,0-.38.37v1.35a.38.38,0,0,0,.38.38.37.37,0,0,0,.37-.38V13.91A.36.36,0,0,0,18.65,13.54Z"/><path class="cls-1" d="M8.68,17a.38.38,0,0,0-.38.38V18.7a.38.38,0,1,0,.75,0V17.35A.38.38,0,0,0,8.68,17Z"/><path class="cls-1" d="M12,17a.38.38,0,0,0-.38.38V18.7a.38.38,0,1,0,.76,0V17.35A.38.38,0,0,0,12,17Z"/><path class="cls-1" d="M15.32,17a.38.38,0,0,0-.37.38V18.7a.38.38,0,1,0,.75,0V17.35A.38.38,0,0,0,15.32,17Z"/><path class="cls-1" d="M18.65,17a.38.38,0,0,0-.38.38V18.7a.38.38,0,0,0,.38.38A.37.37,0,0,0,19,18.7V17.35A.37.37,0,0,0,18.65,17Z"/><path class="cls-1" d="M8.68,20.41a.38.38,0,0,0-.38.38v1.35a.38.38,0,1,0,.75,0V20.79A.38.38,0,0,0,8.68,20.41Z"/><path class="cls-1" d="M12,20.41a.38.38,0,0,0-.38.38v1.35a.38.38,0,0,0,.76,0V20.79A.38.38,0,0,0,12,20.41Z"/><path class="cls-1" d="M5.35,13.54a.36.36,0,0,0-.37.37v1.35a.37.37,0,0,0,.37.38.38.38,0,0,0,.38-.38V13.91A.37.37,0,0,0,5.35,13.54Z"/><path class="cls-1" d="M5.35,17a.37.37,0,0,0-.37.38V18.7a.37.37,0,0,0,.37.38.38.38,0,0,0,.38-.38V17.35A.38.38,0,0,0,5.35,17Z"/><path class="cls-1" d="M5.35,20.41a.37.37,0,0,0-.37.38v1.35a.37.37,0,0,0,.37.38.38.38,0,0,0,.38-.38V20.79A.38.38,0,0,0,5.35,20.41Z"/><path class="cls-1" d="M15.32,20.41a.38.38,0,0,0-.37.38v1.35a.38.38,0,1,0,.75,0V20.79A.38.38,0,0,0,15.32,20.41Z"/><path class="cls-1" d="M18.65,20.41a.38.38,0,0,0-.38.38v1.35a.38.38,0,0,0,.38.38.37.37,0,0,0,.37-.38V20.79A.37.37,0,0,0,18.65,20.41Z"/></svg>