<svg xmlns="http://www.w3.org/2000/svg" viewBox="0 0 500 468.6"><path d="M250 135.4s3.6 6.9 18.9 22.6c15.2 15.7 27.3 43.4-5.4 106.8 0 0 24.7-41 38.8-53.7 26.3-23.7 73.4 14 21.8 53.8-37.8 29.2-41.7 37.2-47.7 50.5 0 0 27.7-33.2 54.8-40 32-8.1 49.9 43.1 4.4 55-7.7 2-16.7 4.1-27.6 3.3 19.6 3 45.6 25.8 45.7 52.5 0 7-.7 12.5-3.9 19.4-3.2 6.9-9.1 12.5-16.1 15.3-1.7.7-3.5 1.2-5.4 1.5-.9.2-2 .2-2.9.3h-2.7c-3.5-.2-7.1-.8-10.4-2-3.4-1.2-6.6-3.1-9.3-5.7-2.7-2.6-4.6-5.9-5.6-9.4-1-3.4-1.3-7.1-.6-10.7.8-3.6 2.8-6.9 5.5-9.2 2.7-2.3 5.9-3.9 9.4-4.4 3.5-.4 6.8.1 10.1 1.1.6.2 3.9 1.3 5.9 3.9 1 1.2 1.7 2.8 1.7 4 .1 1.3-.3 2.3-.9 2.7-.9.6-2.5.9-2.6.2-.1-.1-.4-1.5-1.4-2.6-.9-1.1-2.7-2-3.2-2.1-2.2-.9-5-1.3-7.5-1.2-1.9 0-4.5 1.1-6.3 2.6-1.9 1.5-3.2 3.4-3.8 5.5-.6 2.2-.4 4.8.3 7.3 1.3 5.1 5.1 8.7 10.3 10.6 2.6.9 5.5 1.4 8.3 1.5 1.5 0 2.9 0 4.1-.2 1.3-.2 2.6-.6 3.9-1.1 5.5-1.9 15.7-9.7 15.4-23.8-.4-14.7-11.7-29.9-37.9-29.9-27.1 0-39.7 28-39.2 42.5 1.4 40.6 30.4 66.4 72.1 66.5 45.5 0 75-21.9 103.5-88.4 107.4-250.4 33.1-308.3-8-333.1-12.9-7.8 5.4-26.6 6.4-47.1H280c1 20.5 19.3 39.4 6.4 47.1-9.5 5.7-23.9 15.3-36.4 30.3-12.5-15-26.9-24.6-36.4-30.3C200.7 39.4 219 20.5 220 0H57c1 20.5 19.3 39.4 6.4 47.1-41 24.8-115.4 82.7-8 333.1 28.5 66.5 58 88.4 103.5 88.4 41.7 0 70.7-25.9 72.1-66.5.5-14.4-12.1-42.5-39.2-42.5-26.2 0-37.5 15.2-37.9 29.9-.4 14.1 9.8 21.9 15.4 23.8 1.3.5 2.6.9 3.9 1.1 1.1.2 2.6.2 4.1.2 2.9-.1 5.7-.6 8.3-1.5 5.3-1.8 9-5.5 10.3-10.6.7-2.6.8-5.2.3-7.3-.6-2.2-1.9-4.1-3.8-5.5-1.8-1.4-4.4-2.5-6.3-2.6-2.5-.1-5.4.3-7.5 1.2-.5.2-2.3 1-3.2 2.1-1 1.1-1.3 2.4-1.4 2.6-.1.7-1.8.4-2.6-.2-.6-.5-1-1.5-.9-2.7.1-1.3.7-2.8 1.7-4 2.1-2.6 5.3-3.7 5.9-3.9 3.2-1 6.5-1.5 10.1-1.1 3.5.6 6.7 2.1 9.4 4.4 2.7 2.3 4.7 5.6 5.5 9.2.8 3.6.4 7.3-.6 10.7-1 3.5-2.9 6.8-5.6 9.4-2.6 2.6-5.9 4.5-9.3 5.7-3.4 1.2-6.9 1.8-10.4 2-.9 0-1.8.1-2.7 0-.9 0-2-.1-2.9-.3-1.9-.3-3.7-.8-5.4-1.5-7-2.8-12.9-8.4-16.1-15.3-3.2-6.9-4-12.4-3.9-19.4.1-26.7 26.1-49.4 45.7-52.5-10.9.9-19.8-1.2-27.6-3.3-45.5-11.9-27.7-63.1 4.4-55 27.1 6.9 54.8 40 54.8 40-6.1-13.3-9.9-21.3-47.7-50.5-51.6-39.9-4.5-77.5 21.8-53.8 14.1 12.7 38.8 53.7 38.8 53.7-32.7-63.4-20.6-91.1-5.4-106.8 15.4-15.5 19-22.4 19-22.4z"/></svg>
