<svg xmlns="http://www.w3.org/2000/svg" viewBox="0 0 500 473.6"><g><path d="M402.8 90.9c-43.2 28.7-67.5 55.6-90.2 79.9-10.9 15.5-22.6 30.2-34.3 44.9l-9.4 11.6c9-6.7 24.9-15 56.6-23.7 15.9-4.4 28.9 1.7 48.3 10.3 0 0-19.5 11.3-29.5 13.8l-8.8-5.7 3.1 8.1c-2 .9-7.3 3.1-7.3 3.1l-15.2-5.9-1.9 12.4s-8.4 4.2-13.2 4.3c-11.4.3-30.6-.2-40-.4 0 0 7.8 4.7 12.3 7.5 9.4 5.7 23 17.3 43.1 43.4 10.1 13.1 9.3 27.4 8.6 48.7 0 0-17.8-13.9-23.9-22.2l1.9-10.3-6.3 5.9-5.6-5.6-.3-16.3-12.2 2.9s-7-6.2-9-10.6c-3.4-7.8-6.4-16.3-9.3-24.8 0 8.1 0 18.2-.3 29.6 2 84.7 12.8 143.4 30.4 166.9 49.8 46.3 195.8-63 153.5-121.1-21.3-29.4-70.8-53.6-113.9-70.2 44.7 11.9 98.9 21.4 133.4 10.2 78-25.4 18.9-239.4-60.6-186.7zM263.3 225.3c5.8-8 12-15.9 13.3-17.5 12.3-15.7 24.6-31.5 35.4-48.2 5.4-8.4 10.3-16.9 13.9-26 3.7-9.1 6.3-18.6 7.2-28.3.9-9.6.1-19.4-2.8-28.5-2.9-9.1-7.6-17.6-14.1-24.5-6.4-7-14.3-12.7-23-15.9-8.7-3.3-18.2-3.9-27.2-1.8-4.6 1-9.1 2.6-13.4 4.7-4.3 2.1-8.6 4.6-12.3 7.5-7.5 5.8-13.4 13.5-16.8 22.2-1.7 4.4-2.8 9-3.2 13.6-.2 2.3-.3 4.7-.2 6.9.1 2.2.5 4.4 1.2 6.6 2.5 8.7 8.2 16.8 15.2 23 5.9 5.2 13.1 9.1 20.6 10.7 3.7-4.2 8.1-8.5 13-13.3 0 0 1 6.2 1.7 13.6 5.4-1 10.6-3.3 15.3-6.5 3.8-2.6 7-5.7 9.4-9.4 2.4-3.6 3.8-7.8 4.4-12.2.5-4.4.2-9-.9-13.4-.3-1.1-.6-2.2-1-3.2-.3-1-.8-2.2-1.1-2.6-1.1-1.9-2.4-3.7-3.9-5.2-.7-.7-2.3-2.4-4.7-4-2.4-1.6-5.5-2.9-8.9-3.5-6.7-1.2-13.5.7-14 .8-3.1.9-3.8-.6-2.6-2.1.9-1.1 3.5-2.5 7.3-3.4 3.7-1 8.6-1.3 13.4-.2 4.8 1.1 9.1 3.6 12.1 6.2s4.7 5.1 5.3 5.9c.7 1.1 1.4 2 2.1 3.4.6 1.2 1 2.4 1.4 3.6.8 2.4 1.4 5 1.8 7.5.8 5.1.7 10.4-.6 15.4-1.2 5.1-3.7 9.9-7 13.9-3.3 4.1-7.5 7.4-11.9 10-4.6 2.8-9.8 4.8-15.2 5.7.3 4.5.3 8.8-.1 12l-8.5 6.1 8.6.1c.1 2.1.2 8 .2 8l-11 12 10.8 6.3s-.5 9.1-.8 13.9c-.7 9.4-5.9 23-8.4 30.1zM247 260.4c-3.1 9-6.2 18.2-9.9 26.5-1.9 4.4-8.9 10.6-8.9 10.6l-12.2-2.9-.3 16.3-5.6 5.6-6.3-5.9 1.9 10.3c-6.1 8.3-23.9 22.2-23.9 22.2-.7-21.2-1.5-35.6 8.6-48.7 11-14.3 25.6-32.3 43.4-43.5-5.8 2.3-10.8 4.1-12.1 4.6-16.4 6.2-32.7 12.8-48.3 20.6-7.8 3.9-15.5 8.1-22.8 12.7-7.3 4.6-14.2 9.8-20.4 15.8-12.3 11.8-21.5 26.9-25.1 43.4-.9 4.1-1.5 8.3-1.7 12.5-.3 4.2-.2 8.3.4 12.4 1.2 8.2 3.9 16.2 7.9 23.3 4.1 7.3 9.7 13.7 16.6 17.9 6.9 4.2 15.1 6.1 23.1 5.6 15.9-1 30.9-13.4 33.7-29.3 1.8-8 1.7-16.5-1-23.9-2.6-7.4-7.9-13.5-15-16.3-3.5-1.4-7.4-2.1-11.4-2.2-3.8-.1-7.4.7-10.4 2.4s-5.5 4.4-7.4 7.7c-.9 1.6-1.7 3.4-2.4 5.2-.3.9-.6 1.8-.8 2.8-.2.9-.4 1.9-.4 2.3 0 .9-.1 2.9.4 5.3.4 2.4 1.4 5.1 3 7.3 3.1 4.5 8.6 6.6 9 6.8 2.5.9 2.2 2.6.6 3.1-1.2.4-3.8.2-6.9-1.2-3.1-1.3-6.5-4.1-8.8-7.8-2.3-3.7-3.3-8-3.4-11.5 0-.9-.1-1.7 0-2.4 0-.3 0-.8.1-1.1l.2-1c.2-1.2.4-2.1.6-2.5 1.2-4.4 3.1-8.6 5.9-12.2 2.8-3.7 6.7-6.6 11.1-8.2 4.4-1.6 9.2-1.9 13.7-1.4 4.6.4 9.1 1.7 13.2 3.9s7.8 5.3 10.6 9 4.9 8 6.2 12.5c2.6 8.9 2.3 18.5 0 27.4-.6 2.2-1.2 4.5-2.2 6.7-.9 2.2-2.1 4.3-3.4 6.2-2.6 3.9-5.8 7.4-9.5 10.4-7.3 5.9-16.5 9.6-26.1 10.1-9.4.5-19.1-1.8-27.3-6.9-8.2-5-14.6-12.4-19.2-20.5-4.6-8.4-7.6-17.6-8.7-27-.6-4.7-.6-9.6-.2-14.3.4-4.7 1.1-9.4 2.3-14 2.1-8.7 5.7-17 10.3-24.6-6.9 7.1-13.6 14.8-19.8 23.2-44.7 60.3 77.8 167.8 127.7 116.4 18.3-22.5 29.5-81.8 31.5-168.3-.2-12.2-.3-23-.2-31.4z"/><path d="M252 135.8c-8.4-2.5-16.1-7.1-22.4-13.1-7.6-7.2-13.6-16.2-16.3-26.7-.6-2.6-1-5.4-1.1-8.1-.1-2.6.1-5.3.3-7.9.6-5.3 1.9-10.5 3.9-15.4 4-9.9 10.8-18.5 19.3-25 4.3-3.2 8.7-5.9 13.4-8.3 4.7-2.3 9.8-4.2 15-5.3 10.7-2.3 22.3-1.4 32.6 2.8 10.3 4.1 19.1 10.9 26.2 19.1 7.2 8.2 12.3 18.1 15.2 28.6 2.8 10.2 3.3 20.9 2 31.3 6.7-17.5 11.3-36 11.5-54 .4-71.7-196.2-71.7-196.2 0 0 36.3 25.8 85 51 123.9-29.2-35.9-67.5-75.5-102.1-86.7C15.2 62-45.4 248.6 43.8 277.5c33.5 10.9 86.9 2.1 130.9-9.5 16.1-7.5 32.6-13.9 49.1-19.8 2-.7 8.9-3.1 15.5-5.4-11 .6-25.6 1.4-33.7 1.2-4.8-.1-13.2-4.3-13.2-4.3l-1.9-12.4-15.2 5.9s-5.4-2.2-7.4-3.1l3.1-8.1-8.8 5.7c-10-2.6-29.5-13.8-29.5-13.8 19.4-8.6 32.4-14.5 48.3-10.3 46 12.2 59.5 25.5 65.9 33-3.2-13.9-8.4-42.2-4.2-78.8 1.1-8.6 4.4-15.4 9.3-22z"/></g></svg>
