<svg viewBox="0 0 439 502" version="1.1" xmlns="http://www.w3.org/2000/svg" xmlns:xlink="http://www.w3.org/1999/xlink">
    <g id="Page-1" stroke-width="1" fill-rule="evenodd">
        <path d="M238.148732,313.5 C245.216929,313.5 251,318.474689 251,324.554864 C251,330.635039 245.216929,335.609727 238.148732,335.609727 L107.601268,335.609727 C100.533071,335.609727 94.75,330.635039 94.75,324.554864 C94.75,318.474689 100.533071,313.5 107.601268,313.5 L238.148732,313.5 Z M302.21259,219.75 C308.420666,219.75 313.5,224.724689 313.5,230.804864 C313.5,236.885039 308.420666,241.859727 302.21259,241.859727 L106.03741,241.859727 C99.8293344,241.859727 94.75,236.885039 94.75,230.804864 C94.75,224.724689 99.8293344,219.75 106.03741,219.75 L302.21259,219.75 Z M302.21259,126 C308.420666,126 313.5,130.974689 313.5,137.054864 C313.5,143.135039 308.420666,148.109727 302.21259,148.109727 L106.03741,148.109727 C99.8293344,148.109727 94.75,143.135039 94.75,137.054864 C94.75,130.974689 99.8293344,126 106.03741,126 L302.21259,126 Z M380.135539,1 L59.364461,1 C27.1472785,1 1,25.0318667 1,54.6425597 L1,490.220145 C1,494.511549 3.80149413,498.373814 8.00373533,500.090376 C12.2059765,501.806937 17.2253202,501.055942 20.6104589,498.159243 L80.7258538,446.984241 L142.358725,498.159243 C146.794424,501.806937 153.564701,501.806937 158.0004,498.159243 L219.75,446.876956 L281.4996,498.159243 C285.935299,501.806937 292.705576,501.806937 297.141275,498.159243 L358.774146,446.984241 L418.889541,498.159243 C422.27468,501.055942 427.294023,501.806937 431.496265,500.090376 C435.698506,498.373814 438.5,494.511549 438.5,490.220145 L438.5,54.6425597 C438.5,25.0318667 412.352721,1 380.135539,1 Z M415.154216,465.651852 L366.828442,424.561651 C362.392743,420.806672 355.505736,420.699387 351.070037,424.454366 L289.320438,475.736653 L227.570838,424.454366 C223.135139,420.806672 216.364861,420.806672 211.929162,424.454366 L150.179562,475.736653 L88.4299626,424.454366 C83.9942636,420.699387 77.1072572,420.806672 72.6715582,424.561651 L24.3457844,465.651852 L24.3457844,54.6425597 C24.3457844,36.940515 40.1041889,22.4570239 59.364461,22.4570239 L380.135539,22.4570239 C399.395811,22.4570239 415.154216,36.940515 415.154216,54.6425597 L415.154216,465.651852 Z" id="Shape" stroke="#005589" stroke-width="0.5" fill-rule="nonzero"></path>
    </g>
</svg>
