<svg xmlns="http://www.w3.org/2000/svg" viewBox="0 0 16 16">
  <g fill-rule="evenodd" transform="translate(2 3)">
    <path d="M11.319078,10.346 L0.655098,10.346 L0.655098,7.12964706 C1.455678,7.06382353 3.564198,6.72052941 6.056358,4.95588235 C7.668978,3.814 9.180198,3.57429412 10.163958,3.57429412 C10.684038,3.57429412 11.087058,3.64064706 11.319078,3.69141176 L11.319078,10.346 Z M3.196518,0.737235294 C3.255018,0.713235294 3.316158,0.701058824 3.378378,0.701058824 C3.567798,0.701058824 3.737718,0.812529412 3.811278,0.984941176 C3.858978,1.09664706 3.857838,1.22147059 3.807918,1.33647059 C3.757398,1.45317647 3.664338,1.54417647 3.545598,1.59288235 C3.487098,1.61688235 3.425838,1.62911765 3.363498,1.62911765 C3.174198,1.62911765 3.004398,1.51782353 2.930958,1.34564706 C2.832678,1.11517647 2.954238,0.836588235 3.196518,0.737235294 Z M11.752518,3.14041176 C11.727078,3.13188235 11.119338,2.93205882 10.163958,2.93205882 C9.083538,2.93205882 7.427418,3.19282353 5.672838,4.43523529 C5.624598,4.46935294 5.576958,4.50147059 5.529078,4.53447059 L5.529078,3.41870588 C5.529078,2.57552941 5.071758,2.24182353 4.688058,2.11029412 L4.175298,1.93411765 C4.273818,1.83517647 4.354218,1.71847059 4.410918,1.58752941 C4.530318,1.31182353 4.531998,1.00982353 4.415598,0.737058824 C4.239858,0.325058824 3.832698,0.0588235294 3.378378,0.0588235294 C3.228858,0.0588235294 3.082578,0.0877647059 2.943618,0.144823529 C2.364078,0.382470588 2.087298,1.03229412 2.326578,1.59335294 C2.458758,1.90341176 2.708178,2.10635294 3.038118,2.22429412 C3.358578,2.33882353 3.631338,2.42764706 3.938478,2.53329412 L4.471878,2.71658824 C4.680678,2.78817647 4.873998,2.92276471 4.873998,3.41870588 L4.873998,4.95988235 C4.753098,5.03323529 4.634118,5.10194118 4.516038,5.16841176 L4.515558,3.37364706 C4.515558,3.19629412 4.368978,3.05258824 4.188018,3.05258824 L4.187958,3.05258824 C4.007118,3.05264706 3.860478,3.19647059 3.860478,3.37382353 L3.861078,5.51311765 C3.515538,5.68147059 3.187278,5.82035294 2.878938,5.93629412 L2.878938,3.32552941 C2.878938,2.87329412 2.505318,2.50535294 2.046018,2.50535294 C1.584618,2.50535294 1.209258,2.87329412 1.209258,3.32547059 L1.209018,5.41241176 C1.208958,5.58976471 1.355598,5.73364706 1.536438,5.73364706 L1.536558,5.73364706 C1.717398,5.73364706 1.864038,5.58988235 1.864098,5.41252941 L1.864338,3.32552941 C1.864338,3.22741176 1.945878,3.14758824 2.046018,3.14758824 C2.145738,3.14758824 2.223858,3.22576471 2.223858,3.32552941 L2.223858,6.15870588 C1.110978,6.495 0.387498,6.50282353 0.332238,6.50282353 C0.244458,6.50088235 0.160038,6.53476471 0.097638,6.59517647 C0.035178,6.65552941 1.8e-05,6.73788235 1.8e-05,6.82382353 L1.8e-05,10.6671176 C1.8e-05,10.8445294 0.146598,10.9882353 0.327558,10.9882353 L11.646618,10.9882353 C11.827518,10.9882353 11.974158,10.8445294 11.974158,10.6671176 L11.974158,3.44429412 C11.974158,3.30694118 11.885058,3.18476471 11.752518,3.14041176 Z"/>
    <polygon points="9.317 8.501 9.761 8.954 10.215 8.512 9.77 8.059"/>
    <path d="M10.019058,5.26569412 C9.925698,5.26492941 9.688998,5.43457647 9.273138,5.79822353 C9.360318,5.89504706 9.428838,5.92769412 9.492198,5.9284 C9.576738,5.92916471 9.650898,5.87345882 9.746238,5.84004706 C9.876198,6.08969412 9.917838,7.2194 9.052638,7.54857647 C9.085938,6.41334118 9.108018,5.25792941 9.108978,5.19728235 C9.108978,5.16804706 9.085938,5.15816471 9.057918,5.15698824 C8.820798,5.18757647 8.396598,5.59810588 8.070018,5.94434118 C8.129898,6.04592941 8.195358,6.08175294 8.263578,6.08269412 C8.395818,6.08404706 8.535798,5.95528235 8.654478,5.90898824 C8.653518,5.95710588 8.604198,6.79510588 8.614878,7.64687059 C8.598678,7.64745882 8.582298,7.64828235 8.567058,7.64828235 C7.731378,7.6384 7.886958,5.89722353 7.939938,5.67128235 C7.943718,5.63922353 7.929138,5.62451765 7.900218,5.62451765 C7.763658,5.62275294 7.314678,5.93563529 7.069098,6.15792941 C7.118298,6.24916471 7.178778,6.28098824 7.250658,6.28175294 C7.310838,6.28292941 7.378758,6.26110588 7.453398,6.23316471 C7.387158,7.03316471 7.936398,7.7674 8.593038,7.77581176 L8.617278,7.77581176 C8.633418,8.60875294 8.712378,9.41928235 8.953938,9.47963529 C8.986818,9.47963529 9.020298,8.62969412 9.048498,7.68651765 C10.653798,7.20951765 10.092198,5.39381176 10.062678,5.29898824 C10.056858,5.27763529 10.042098,5.26645882 10.019058,5.26569412"/>
  </g>
</svg>
