<?xml version="1.0" encoding="UTF-8"?>
<svg viewBox="0 0 363 500" version="1.1" xmlns="http://www.w3.org/2000/svg" xmlns:xlink="http://www.w3.org/1999/xlink">
    <!-- Generator: Sketch 50.2 (55047) - http://www.bohemiancoding.com/sketch -->
    <title>repartitionBabyExp</title>
    <desc>Created with Sketch.</desc>
    <defs></defs>
    <g id="Page-1" stroke="none" stroke-width="1" fill="none" fill-rule="evenodd">
        <path d="M236.696597,345.389362 C241.100007,340.597668 243.487112,334.136072 243.318523,327.464639 C243.174129,320.659467 240.413205,314.208693 235.669942,309.59407 L177.56126,256.523896 C174.343501,253.533095 169.436746,253.860405 166.601716,257.254964 C163.766686,260.649523 164.076949,265.82588 167.294708,268.816681 L225.300725,321.561936 C226.926429,323.208289 227.867748,325.466968 227.918696,327.843712 C227.978047,330.206003 227.125894,332.492527 225.557389,334.179641 C223.985236,335.859727 221.840641,336.805423 219.602789,336.805423 C217.364937,336.805423 215.220342,335.859727 213.648189,334.179641 C213.238733,333.772472 212.791613,333.409636 212.313537,333.096576 L174.070632,309.106691 C171.568701,307.504625 168.422127,307.537433 165.9507,309.191352 C163.479272,310.845271 162.110345,313.834311 162.418096,316.904758 L167.551372,372.032755 C167.962034,374.469651 171.760658,380.209895 206.256272,432.521924 L183.875189,478.389718 C182.767186,480.438105 180.932368,481.937449 178.775328,482.557133 C176.618289,483.176816 174.316185,482.865943 172.376651,481.693065 C170.427095,480.516474 169.004049,478.566817 168.424029,476.277741 C167.82816,474.103281 168.067896,471.768747 169.091355,469.779353 L185.620503,442.107047 C187.312753,439.27338 187.169761,435.631476 185.261173,432.95515 L169.091355,409.88587 C166.871267,406.731529 162.829457,405.70546 159.492129,407.448974 C153.229532,410.698168 134.287744,419.146074 122.070548,419.146074 C109.853352,419.146074 90.6035672,410.698168 84.2896379,407.448974 C80.9677611,405.712946 76.9440152,406.739921 74.7417448,409.88587 L58.5205932,432.95515 C56.6564562,435.653363 56.5345349,439.276166 58.2125967,442.107047 L74.5364138,469.508587 C75.7618848,473.432483 74.260665,477.729636 70.9145021,479.876093 C67.5683391,482.022551 63.2610633,481.451365 60.5225708,478.498024 L37.9874899,432.359464 C74.8957431,377.014853 76.8977207,373.928119 77.0003862,371.43707 L81.5690017,317.987822 C81.5944807,317.735822 81.5944807,317.481677 81.5690017,317.229677 L81.5690017,315.821693 C81.5819732,312.900346 80.0871672,310.202951 77.6677121,308.781772 C75.259399,307.288681 72.2734459,307.288681 69.8651328,308.781772 L31.6222279,333.259036 C31.1351537,333.558177 30.6865874,333.922187 30.2875762,334.342101 C28.6896066,336.032855 26.4913873,336.936872 24.2303107,336.83315 C20.9009108,336.723314 17.941669,334.564963 16.6683706,331.317779 C15.3950723,328.070594 16.0441669,324.337572 18.3270435,321.778549 L76.4357259,268.708374 C79.6534846,265.717574 79.9637476,260.541217 77.1287178,257.146658 C74.2936879,253.752099 69.3869333,253.424789 66.1691742,256.415589 L7.75249529,309.864836 C-1.97165746,319.255951 -2.63814876,335.185068 6.2638453,345.443515 C15.1658394,355.701962 30.2653147,356.405073 39.9894675,347.013959 L64.6805242,331.201213 L61.4978932,368.350335 C56.7239467,375.661022 36.2935089,406.257603 22.3823314,427.160753 C20.7330681,429.635876 20.5348951,432.876331 21.8690038,435.554505 L46.6627261,486.45855 C50.7176542,494.691078 58.7427368,499.896588 67.5365773,499.998477 C76.3304177,500.100367 84.4619405,495.082056 88.6872874,486.945468 C92.9126344,478.808879 92.5441889,468.878131 87.7289327,461.114834 L74.0230862,438.099708 L83.3656482,424.778011 C95.5415953,430.823907 108.654871,434.493346 122.070548,435.608659 C135.367078,434.468305 148.358251,430.798968 160.416118,424.778011 L169.75868,438.099708 L155.898836,461.331447 C151.581407,469.108158 151.532739,478.726058 155.771223,486.550951 C160.009707,494.375844 167.889033,499.214545 176.431939,499.238715 C178.544723,499.213925 180.647141,498.923048 182.694536,498.372263 C188.893125,496.546368 194.153546,492.204162 197.324372,486.296091 L221.964096,435.716965 C223.265591,433.050313 223.068236,429.844061 221.450768,427.377366 L182.797201,368.079569 L179.255241,331.255366 L203.689634,347.013959 C213.326629,355.891911 227.885039,355.175349 236.696597,345.389362 Z M174.737958,207.298601 C174.737958,176.792432 151.29585,152.062297 122.378545,152.062297 C93.461239,152.062297 70.0191311,176.792432 70.0191311,207.298601 C70.0756198,237.780051 93.4846697,262.475313 122.378545,262.534905 C151.29585,262.534905 174.737958,237.804769 174.737958,207.298601 Z M122.378545,168.308268 C142.79076,168.308268 159.33813,185.764835 159.33813,207.298601 C159.33813,228.832367 142.79076,246.288933 122.378545,246.288933 C101.966329,246.288933 85.4189586,228.832367 85.4189586,207.298601 C85.4472337,185.777202 101.978052,168.338097 122.378545,168.308268 Z M256.105933,204.861705 C197.934533,204.861705 150.028675,159.115887 150.028675,102.762344 C150.028675,45.7458176 197.934533,0 256.105933,0 C314.277333,0 362.183191,45.7458176 362.183191,102.762344 C361.498822,159.115887 314.277333,204.861705 256.105933,204.861705 Z M256.105933,15.2486059 C206.146966,15.2486059 165.769171,54.3645949 165.769171,102.762344 C165.769171,151.160093 206.146966,190.276082 256.105933,190.276082 C306.0649,190.276082 346.442695,151.160093 346.442695,102.762344 C346.442695,54.3645949 305.380531,15.2486059 256.105933,15.2486059 Z" id="repartitionBabyExp" fill="#005589" fill-rule="nonzero"></path>
    </g>
</svg>
