<?xml version="1.0" encoding="UTF-8"?>
<svg viewBox="0 0 341 500" version="1.1" xmlns="http://www.w3.org/2000/svg" xmlns:xlink="http://www.w3.org/1999/xlink">
    <!-- Generator: Sketch 50.2 (55047) - http://www.bohemiancoding.com/sketch -->
    <title>repartitionAdultExp</title>
    <desc>Created with Sketch.</desc>
    <defs></defs>
    <g id="Page-1" stroke="none" stroke-width="1" fill="none" fill-rule="evenodd">
        <path d="M122.980955,247.510379 C55.2134618,247.608398 0.301235219,303.08673 0.204216468,371.552857 L0.204216468,493.326266 C0.204216468,497.012067 3.16166006,500 6.80985161,500 C10.4580432,500 13.4154867,497.012067 13.4154867,493.326266 L13.4154867,371.552857 C13.4154876,310.417693 62.4696184,260.85785 122.980955,260.85785 C183.492291,260.85785 232.546422,310.417693 232.546423,371.552857 L232.546423,493.326266 C232.546423,497.012067 235.503867,500 239.152058,500 C242.80025,500 245.757693,497.012067 245.757693,493.326266 L245.757693,371.552857 C245.660675,303.08673 190.748448,247.608398 122.980955,247.510379 Z M112.643323,72.0063567 C111.82159,76.5263227 111.246263,81.1321836 110.931764,85.8095171 C80.7146814,91.5513654 57.8483198,118.331846 57.8053549,150.518772 C57.8053549,186.885349 86.9854649,216.366285 122.980955,216.366285 C140.357231,216.366285 156.145299,209.496257 167.829282,198.298016 C171.692517,200.757313 175.701897,203.007458 179.841478,205.032505 C165.558191,220.234488 145.365277,229.713754 122.980955,229.713754 C79.709203,229.664715 44.6426228,194.236624 44.5940846,150.518772 C44.5940846,110.32106 74.237377,77.1182872 112.643323,72.0063567 Z M242.093768,190.030251 C188.133826,190.030251 143.696227,147.596312 143.696227,95.3226179 C143.696227,42.4339396 188.133826,0 242.093768,0 C296.05371,0 340.491309,42.4339396 340.491309,95.3226179 C339.856486,147.596312 296.05371,190.030251 242.093768,190.030251 Z M242.093768,14.1446465 C195.7517,14.1446465 158.297152,50.4287398 158.297152,95.3226179 C158.297152,140.216496 195.7517,176.500589 242.093768,176.500589 C288.435835,176.500589 325.890383,140.216496 325.890383,95.3226179 C325.890383,50.4287398 287.801013,14.1446465 242.093768,14.1446465 Z" id="repartitionAdultExp" fill="#005589" fill-rule="nonzero"></path>
    </g>
</svg>
