<?xml version="1.0" encoding="UTF-8"?>
<svg viewBox="0 0 361 500" version="1.1" xmlns="http://www.w3.org/2000/svg" xmlns:xlink="http://www.w3.org/1999/xlink">
    <!-- Generator: Sketch 50.2 (55047) - http://www.bohemiancoding.com/sketch -->
    <title>repartitionChildExp</title>
    <desc>Created with Sketch.</desc>
    <defs></defs>
    <g id="Page-1" stroke="none" stroke-width="1" fill="none" fill-rule="evenodd">
        <path d="M255.145253,203.597047 C197.332958,203.597047 149.722833,158.133629 149.722833,102.127969 C149.722833,45.4634183 197.332958,0 255.145253,0 C312.957547,0 360.567672,45.4634183 360.567672,102.127969 C359.887527,158.133629 312.957547,203.597047 255.145253,203.597047 Z M255.145253,15.1544728 C205.494694,15.1544728 165.36616,54.0289898 165.36616,102.127969 C165.36616,150.226947 205.494694,189.101464 255.145253,189.101464 C304.795811,189.101464 344.924345,150.226947 344.924345,102.127969 C344.924345,54.0289898 304.115667,15.1544728 255.145253,15.1544728 Z M104.497159,285.102224 C162.175108,285.18565 208.911744,332.404106 208.994318,390.676673 L208.994318,494.319883 C208.994318,497.456925 206.477192,500 203.372161,500 C200.267129,500 197.750004,497.456925 197.750004,494.319883 L197.750004,390.676673 C197.750003,338.6436 155.999282,296.46246 104.497159,296.46246 C52.9950354,296.46246 11.2443149,338.6436 11.2443141,390.676673 L11.2443141,494.319883 C11.2443141,497.456925 8.72718864,500 5.62215704,500 C2.51712545,500 4.3527476e-14,497.456925 5.68434189e-14,494.319883 L5.68434189e-14,390.676673 C0.0825741416,332.404106 46.8192096,285.18565 104.497159,285.102224 Z M104.497159,269.955244 C141.343534,269.955244 171.213422,239.777419 171.213422,202.551184 C171.213422,165.32495 141.343534,135.147124 104.497159,135.147124 C67.650784,135.147124 37.7808953,165.32495 37.7808953,202.551184 C37.8222069,239.760117 67.6679094,269.913507 104.497159,269.955244 Z M104.497159,146.507359 C135.133471,146.507359 159.969108,171.599034 159.969108,202.551184 C159.969108,233.503334 135.133471,258.595009 104.497159,258.595009 C73.8608472,258.595009 49.0252094,233.503334 49.0252094,202.551184 C49.0665031,171.616331 73.8779679,146.549078 104.497159,146.507359 Z" id="repartitionChildExp" fill="#005589" fill-rule="nonzero"></path>
    </g>
</svg>
