<?xml version="1.0" encoding="UTF-8"?>
<svg viewBox="0 0 350 500" version="1.1" xmlns="http://www.w3.org/2000/svg" xmlns:xlink="http://www.w3.org/1999/xlink">
    <!-- Generator: Sketch 50.2 (55047) - http://www.bohemiancoding.com/sketch -->
    <title>repartitionBaby</title>
    <desc>Created with Sketch.</desc>
    <defs></defs>
    <g id="Page-1" stroke="none" stroke-width="1" fill="none" fill-rule="evenodd">
        <path d="M341.142208,277.818505 C347.470078,270.932655 349.900442,261.647091 349.658172,252.059982 C349.450672,242.280685 345.483118,233.010672 338.666864,226.37928 L255.16243,150.115377 C250.538385,145.81748 243.487188,146.287838 239.413139,151.165951 C235.339091,156.044064 235.784951,163.48269 240.408996,167.780587 L323.765896,243.577569 C326.102096,245.943442 327.454809,249.189251 327.528022,252.604724 C327.613312,255.999429 326.388735,259.285252 324.134732,261.709701 C321.875487,264.12405 318.793621,265.483051 315.577741,265.483051 C312.36186,265.483051 309.279994,264.12405 307.020749,261.709701 C306.432346,261.124584 305.789817,260.603174 305.102803,260.153294 L250.146262,225.678897 C246.55089,223.376667 242.029141,223.423812 238.477604,225.800558 C234.926067,228.177304 232.958865,232.472671 233.401115,236.885022 L240.777832,316.106097 C241.367969,319.608011 246.82674,327.856964 296.398277,403.031383 L264.235792,468.945185 C262.643549,471.888796 260.006844,474.043413 256.907094,474.933922 C253.807344,475.824431 250.499131,475.377695 247.711946,473.692224 C244.910358,472.001416 242.865386,469.199684 242.031874,465.910193 C241.175588,462.785409 241.520097,459.430592 242.990847,456.571756 L266.743875,416.805577 C269.175704,412.733487 268.97022,407.499929 266.227505,403.653945 L242.990847,370.502493 C239.800495,365.969583 233.992257,364.495082 229.196387,367.000579 C220.196792,371.669798 192.976707,383.809766 175.420121,383.809766 C157.863535,383.809766 130.200847,371.669798 121.127485,367.000579 C116.353819,364.50584 110.57154,365.981643 107.406792,370.502493 L84.0963665,403.653945 C81.4175291,407.531382 81.2423235,412.737491 83.6537635,416.805577 L107.111723,456.182654 C108.872772,461.821446 106.715461,467.996621 101.906895,471.081164 C97.0983289,474.165708 90.9086062,473.344891 86.973286,469.100825 L54.5894991,402.797922 C107.628093,323.265565 110.505013,318.829808 110.652547,315.250074 L117.217825,238.441428 C117.254439,238.079294 117.254439,237.714078 117.217825,237.351944 L117.217825,235.328616 C117.236466,231.130526 115.088371,227.254266 111.61152,225.211976 C108.150681,223.066346 103.85975,223.066346 100.398911,225.211976 L45.4423703,260.386755 C44.7424258,260.816633 44.0978185,261.33973 43.5244239,261.943162 C41.2280795,264.372841 38.069153,265.671949 34.819898,265.522896 C30.035421,265.365057 25.7828755,262.263423 23.9530963,257.597093 C22.1233172,252.930763 23.0560912,247.566266 26.3366737,243.88885 L109.841108,167.624947 C114.465152,163.327049 114.911012,155.888424 110.836964,151.010311 C106.762916,146.132198 99.7117193,145.66184 95.0876745,149.959736 L11.140637,226.768382 C-2.83334838,240.263778 -3.79112228,263.154538 9.0013891,277.896325 C21.7939005,292.638112 43.4924333,293.648511 57.4664187,280.153114 L92.9484267,257.429584 L88.3748622,310.814316 C81.5145156,321.320058 52.1551826,365.288533 32.16428,395.327172 C29.7942245,398.88402 29.5094423,403.540679 31.4266083,407.38932 L67.0561506,480.540411 C72.8832399,492.370873 84.4155955,499.851392 97.0526859,499.997812 C109.689776,500.144231 121.37509,492.932723 127.447078,481.24013 C133.519066,469.547536 132.989595,455.276665 126.069885,444.120506 L106.374051,411.046875 L119.799676,391.903078 C137.296985,400.591266 156.141271,405.864393 175.420121,407.46714 C194.527751,405.828407 213.196572,400.555427 230.524196,391.903078 L243.94982,411.046875 L224.032685,444.431787 C217.828372,455.607223 217.758435,469.428519 223.849301,480.673194 C229.940166,491.917869 241.263064,498.871271 253.539552,498.906004 C256.575705,498.870379 259.596962,498.452378 262.539147,497.660879 C271.44676,495.036997 279.00619,488.797078 283.56279,480.30695 L318.97103,407.622781 C320.84133,403.790698 320.557723,399.183189 318.233359,395.638453 L262.686681,310.425214 L257.596746,257.507404 L292.709919,280.153114 C306.558655,292.911077 328.479656,291.881349 341.142208,277.818505 Z M251.105236,79.3767156 C251.105236,35.5381661 217.418016,-1.64156009e-14 175.862724,0 C134.307432,1.64156009e-14 100.620212,35.5381661 100.620212,79.3767156 C100.701389,123.179744 134.341103,158.667795 175.862724,158.753431 C217.418016,158.753431 251.105236,123.215265 251.105236,79.3767156 Z M175.862724,23.3460928 C205.195871,23.3460928 228.975085,48.4318571 228.975085,79.3767156 C228.975085,110.321574 205.195871,135.407338 175.862724,135.407338 C146.529577,135.407338 122.750363,110.321574 122.750363,79.3767156 C122.790995,48.4496298 146.546424,23.3889579 175.862724,23.3460928 Z" id="repartitionBaby" fill="#005589" fill-rule="nonzero"></path>
    </g>
</svg>
