<svg xmlns="http://www.w3.org/2000/svg" viewBox="0 0 500 487.2"><g><path d="M302.9 289.7c-1.3-6.7-7.8-11-14.5-9.7-6.7 1.3-11 7.8-9.7 14.5l17.2 86h-12.7c-7.8 0-14.4 6.5-14.4 14.2v80c0 6.8 5.5 12.3 12.3 12.3 6.8 0 12.3-5.5 12.3-12.3v-69.6h17.5c3.7 0 7.2-1.7 9.5-4.5 2.3-2.9 3.3-6.6 2.6-10.2l-20.1-100.7zM231.8 380.6h-13c5.8-29.3 18.5-93.8 22.3-112.4 4.2-20.4-7.9-34.2-21.9-37.3-14.1-3.1-31.7 4.5-36.4 24.8-2.6 11.1-22.3 96.1-22.3 96.1-1.5 6.6 2.6 13.3 9.2 14.8.9.2 1.9.3 2.8.3 5.6 0 10.7-3.8 12-9.5 0 0 19.7-85 22.3-96 1.3-5.5 4.5-6.9 7.1-6.3 4 .9 3.6 5.5 3.1 8.2-5 24.3-25.1 126.3-25.3 127.3-.7 3.6.2 7.4 2.6 10.2 2.3 2.9 5.8 4.5 9.5 4.5h17.7v68.5c0 13.3 12.2 13.4 12.3 13.4 6.8 0 12.3-5.5 12.3-12.3V395c.1-8.1-6.2-14.4-14.3-14.4zM450.3 87.9c0-21-17.1-38.1-38.1-38.1s-38.1 17.1-38.1 38.1 17.1 38.1 38.1 38.1 38.1-17.1 38.1-38.1zm-38.2 13.4c-7.4 0-13.5-6-13.5-13.5 0-7.4 6-13.5 13.5-13.5 7.4 0 13.5 6 13.5 13.5s-6 13.5-13.5 13.5zM430.2 40.5c1.3.5 2.7.7 4.1.7 5.1 0 9.9-3.2 11.6-8.3l5.8-16.6c2.2-6.4-1.2-13.5-7.6-15.7-6.4-2.2-13.5 1.1-15.7 7.6l-5.8 16.6c-2.3 6.5 1.1 13.5 7.6 15.7zM386.1 42.9c1.8 0 3.6-.4 5.4-1.2 6.1-3 8.7-10.3 5.7-16.5l-7.6-15.8c-3-6.1-10.3-8.7-16.5-5.7-6.1 3-8.7 10.3-5.7 16.5L375 36c2.1 4.3 6.5 6.9 11.1 6.9zM332.5 71.6l16.5 5.8c1.3.5 2.7.7 4.1.7 5.1 0 9.9-3.2 11.6-8.3 2.2-6.4-1.2-13.5-7.6-15.7l-16.5-5.8c-6.4-2.2-13.5 1.1-15.7 7.6s1.2 13.5 7.6 15.7zM349.4 102.8l-15.8 7.6c-6.1 3-8.7 10.3-5.7 16.5 2.1 4.4 6.5 7 11.1 7 1.8 0 3.6-.4 5.4-1.2l15.8-7.6c6.1-3 8.7-10.3 5.7-16.5-3-6.1-10.3-8.7-16.5-5.8zM394.1 135.2c-6.4-2.2-13.5 1.1-15.7 7.6l-5.8 16.5c-2.2 6.4 1.2 13.5 7.6 15.7 1.3.5 2.7.7 4.1.7 5.1 0 9.9-3.2 11.6-8.3l5.8-16.6c2.2-6.3-1.2-13.3-7.6-15.6zM449.3 139.9c-3-6.1-10.3-8.7-16.5-5.8-6.1 3-8.7 10.3-5.8 16.5l7.6 15.8c2.1 4.4 6.5 7 11.1 7 1.8 0 3.6-.4 5.4-1.2 6.1-3 8.7-10.3 5.8-16.5l-7.6-15.8zM491.7 104.1l-16.5-5.8c-6.4-2.2-13.5 1.2-15.7 7.6-2.2 6.4 1.2 13.5 7.6 15.7l16.5 5.8c1.3.5 2.7.7 4.1.7 5.1 0 9.9-3.2 11.6-8.3 2.3-6.4-1.1-13.4-7.6-15.7zM469.5 74.1c1.8 0 3.6-.4 5.4-1.2l15.8-7.6c6.1-3 8.7-10.3 5.8-16.5-3-6.1-10.3-8.7-16.5-5.8l-15.8 7.6c-6.1 3-8.7 10.3-5.8 16.5 2.1 4.5 6.5 7 11.1 7zM96.5 261.3c-6.8 0-12.3 5.5-12.3 12.3v201.2c0 6.8 5.5 12.3 12.3 12.3 6.8 0 12.3-5.5 12.3-12.3V273.6c0-6.7-5.5-12.3-12.3-12.3z"/><path d="M106.9 215.8l-3.6-1c4.2-6 6.7-13.3 6.7-21.1 0-20.4-16.6-36.9-36.9-36.9s-36.9 16.6-36.9 36.9c0 16.7 11.2 30.9 26.5 35.4.2.1.3.1.5.2l37.2 10.3c12.8 3.5 20.7 13 20.7 24.7v90.3c0 6.8 5.5 12.3 12.3 12.3 6.8 0 12.3-5.5 12.3-12.3v-90.3c0-22.9-15.3-41.9-38.8-48.5zM73 181.4c6.8 0 12.3 5.5 12.3 12.3 0 6.8-5.5 12.3-12.3 12.3-6.8 0-12.3-5.5-12.3-12.3.1-6.8 5.6-12.3 12.3-12.3zM30.8 235C13.8 235 0 248.8 0 265.8V354.6c0 6.8 5.5 12.3 12.3 12.3 6.8 0 12.3-5.5 12.3-12.3v-89c.1-3.3 2.8-6 6.1-6 3.4 0 6.1 2.7 6.1 6.2v209c0 6.8 5.5 12.3 12.3 12.3s12.3-5.5 12.3-12.3v-209c.2-17-13.6-30.8-30.6-30.8zM328.8 259.6c-6.2-22-19.4-33.9-42.3-43.4 4.8-6.2 7.7-14.1 7.7-22.5 0-20.4-16.6-36.9-36.9-36.9-20.4 0-36.9 16.6-36.9 36.9 0 16.8 11.2 30.9 26.5 35.4.2.1.3.1.5.2 43.7 12.2 52.7 19.9 57.6 37.1 7.5 26.4 25.1 90.8 25.3 91.4 1.5 5.5 6.5 9.1 11.9 9.1 1.1 0 2.2-.1 3.3-.4 6.6-1.8 10.4-8.6 8.6-15.2-.1-.6-17.8-65.1-25.3-91.7zm-71.4-78.2c6.8 0 12.3 5.5 12.3 12.3 0 6.8-5.5 12.3-12.3 12.3-6.8 0-12.3-5.5-12.3-12.3 0-6.8 5.5-12.3 12.3-12.3z"/></g></svg>
