<svg xmlns="http://www.w3.org/2000/svg" viewBox="0 0 58 50.52"><defs></defs><title>frequencyrewards</title><g id="Calque_2" data-name="Calque 2"><g id="grid_12" data-name="grid 12"><path class="cls-1" d="M57.25,21.24,31.79.74,31.66.65l0,0a3.7,3.7,0,0,0-4.2.06l-.1.07L.74,21.06a1.92,1.92,0,0,0-.36,2.67A1.89,1.89,0,0,0,3,24.09L28.73,4.46l0,0a1.34,1.34,0,0,1,.8-.26,1.31,1.31,0,0,1,.79.26h0L54.95,24.27a1.9,1.9,0,1,0,2.3-3Z"/><path class="cls-1" d="M50.54,50.52l0-26.09a1.64,1.64,0,0,0-.66-1.31L30.38,7.69h0a1.31,1.31,0,0,0-.79-.26,1.35,1.35,0,0,0-.8.26l0,0L8.63,23.06A1.61,1.61,0,0,0,8,24.37L8,50.46M31.1,45.71c-1.53-.36-2.08-5.49-2.23-10.76-4.2.11-7.81-4.56-7.44-9.68-1,.4-1.85.61-2.44-.45,1.86-1.73,5.62-4.32,5.48-3.15-.33,1.46-1.23,12.89,4.38,12.47-.13-5.41.15-10.71.15-11-1.13.47-2.56,2.13-3.69.28,2.05-2.22,4.71-4.85,6.21-5.05a.25.25,0,0,1,.33.24s-.07,7.7-.22,14.9c5.44-2.15,5.12-9.3,4.27-10.88-1,.38-1.69,1.2-3-.23,3.26-2.92,4.77-3.88,5-3.21,0,0,3.85,12.07-6.26,15.19C31.48,40.36,31.31,45.76,31.1,45.71Zm5.06-3.39-2.84-2.83,2.84-2.83L39,39.49Z"/></g></g></svg>
