<svg xmlns="http://www.w3.org/2000/svg" xmlns:xlink="http://www.w3.org/1999/xlink" viewBox="0 0 16 16">
  <defs>
    <polygon id="a" points=".046 .099 2.98 .099 2.98 15.899 .046 15.899"/>
    <polygon id="c" points="0 .099 3.623 .099 3.623 15.899 0 15.899"/>
  </defs>
  <g fill-rule="evenodd" transform="translate(4)">
    <g transform="translate(4.938 .002)">
      <mask id="b" fill="white">
        <use xlink:href="#a"/>
      </mask>
      <path d="M2.97988148,14.989283 L2.59331358,8.5012327 L2.59331358,0.543899371 C2.59331358,0.459371069 2.56259753,0.377761006 2.50748642,0.314566038 C2.47716543,0.279849057 2.31380741,0.107169811 2.05336296,0.0994213836 C1.92546173,0.0953962264 1.73316543,0.131924528 1.54254815,0.326037736 C1.20151111,0.67290566 -0.190093827,4.36920755 0.0806222222,6.26495597 C0.167140741,6.87255346 0.410597531,7.29066667 0.80457284,7.50722013 C0.969116049,7.59798742 1.17474568,7.53569811 1.26363457,7.36794969 C1.35252346,7.20020126 1.29119012,6.99059119 1.12664691,6.8998239 C0.959239506,6.80784906 0.846054321,6.62118239 0.78057284,6.32885535 C0.459585185,4.89569811 1.51133827,1.92875472 1.91568395,1.03446541 L1.91568395,8.51179874 C1.91568395,8.51874214 1.91568395,8.52578616 1.91617778,8.53283019 L2.30027654,14.9781132 C2.21731358,15.0710943 1.90077037,15.208956 1.72002963,15.208956 C1.53928889,15.208956 1.22254815,15.0710943 1.13958519,14.9781132 L1.52368395,8.53283019 C1.53504198,8.34244025 1.39291852,8.17871698 1.20615309,8.16734591 C1.01998025,8.15567296 0.858498765,8.30057862 0.847338272,8.49086792 L0.459980247,14.989283 C0.459585185,14.9960252 0.459585185,15.0032704 0.459585185,15.0100126 C0.459585185,15.625761 1.37286914,15.8993711 1.72002963,15.8993711 C2.06728889,15.8993711 2.98047407,15.625761 2.98047407,15.0100126 C2.98047407,15.0032704 2.98027654,14.9960252 2.97988148,14.989283" mask="url(#b)"/>
    </g>
    <path d="M2.21382716 4.40411572C2.40108642 4.40411572 2.55279012 4.24965031 2.55279012 4.05885786L2.55279012.445977358C2.55279012.255285535 2.40108642.100719497 2.21382716.100719497 2.02666667.100719497 1.87496296.255285535 1.87496296.445977358L1.87496296 4.05885786C1.87496296 4.24965031 2.02666667 4.40411572 2.21382716 4.40411572M1.37258272 4.40411572C1.55984198 4.40411572 1.71164444 4.24965031 1.71164444 4.05885786L1.71164444.445977358C1.71164444.255285535 1.55984198.100719497 1.37258272.100719497 1.18552099.100719497 1.03391605.255285535 1.03391605.445977358L1.03391605 4.05885786C1.03391605 4.24965031 1.18552099 4.40411572 1.37258272 4.40411572"/>
    <g transform="translate(0 .002)">
      <mask id="d" fill="white">
        <use xlink:href="#c"/>
      </mask>
      <path d="M2.75655309,5.64180126 C3.05946667,5.47214088 3.62341728,5.1563673 3.62341728,4.39349937 C3.62341728,4.37739874 3.62341728,4.37357484 3.36702222,0.421776101 C3.35467654,0.231486792 3.19378765,0.0870842767 3.0065284,0.100065409 C2.8196642,0.112543396 2.67833086,0.277071698 2.69067654,0.467260377 C2.77531852,1.77080755 2.9345284,4.2214239 2.94578765,4.40305912 C2.94154074,4.72537358 2.7290963,4.86927296 2.4302321,5.03661887 C2.24346667,5.14117233 2.03181235,5.25971321 2.00949136,5.51239245 C2.00870123,5.52255597 2.00810864,5.53302138 2.00810864,5.54328553 L2.00810864,10.6755623 C2.00810864,10.7495245 2.03141728,10.8178516 2.0702321,10.8739019 C2.07763951,10.9076126 2.0888,10.9412226 2.1070716,10.9726189 C2.44662716,11.5597887 2.71744198,13.4653987 2.71763951,14.0297258 C2.71763951,14.6797887 2.31121975,15.2084931 1.81176296,15.2084931 C1.31220741,15.2084931 0.905985185,14.6797887 0.905985185,14.0297258 C0.905985185,13.4546314 1.18440494,11.5254742 1.53363951,10.9432352 C1.55398519,10.9097258 1.56613333,10.8737006 1.5739358,10.8373736 C1.59951605,10.7889711 1.61512099,10.7345308 1.61512099,10.6755623 L1.61512099,5.54328553 C1.61512099,5.53302138 1.61472593,5.52275723 1.61403457,5.51259371 C1.59161481,5.25981384 1.37996049,5.14127296 1.19329383,5.03661887 C0.89442963,4.86927296 0.681985185,4.72537358 0.677639506,4.40295849 C0.689195062,4.22122264 0.848207407,1.77070692 0.932750617,0.467260377 C0.945096296,0.277071698 0.803861728,0.112543396 0.616898765,0.100065409 C0.430330864,0.0869836478 0.268849383,0.231486792 0.256701235,0.421776101 C9.87654321e-06,4.37357484 9.87654321e-06,4.37739874 9.87654321e-06,4.39349937 C9.87654321e-06,5.1563673 0.563960494,5.47204025 0.866775309,5.64180126 C0.888898765,5.65397736 0.914380247,5.6683673 0.937491358,5.68185157 L0.937491358,10.6149836 C0.47971358,11.4204176 0.228059259,13.4804931 0.228059259,14.0297258 C0.228059259,15.0603673 0.938676543,15.8994113 1.81176296,15.8994113 C2.68475062,15.8994113 3.3953679,15.0603673 3.3953679,14.0297258 C3.39517037,13.4846189 3.14539259,11.4076377 2.6910716,10.621927 C2.68949136,10.6193107 2.68731852,10.6172981 2.6859358,10.6149836 L2.6859358,5.68185157 C2.70914568,5.6683673 2.7345284,5.65397736 2.75655309,5.64180126" mask="url(#d)"/>
    </g>
  </g>
</svg>
