<?xml version="1.0" encoding="UTF-8"?>
<svg viewBox="0 0 26 26" version="1.1" xmlns="http://www.w3.org/2000/svg" xmlns:xlink="http://www.w3.org/1999/xlink">
  <path d="M16.7605342,10.9206554 C17.1728447,10.9203945 17.3913568,11.2840598 17.4158098,11.5993407 C17.4402628,11.9146216 17.0524054,12.2301634 16.7371245,12.2546164 L12.4683449,12.014781 C12.153064,12.039234 11.983197,11.89382 11.8617145,11.5543469 L9.09258984,4.8863676 C8.87407769,4.52270232 9.06787602,4.15877622 9.40734912,4.03729364 C9.74682222,3.91581106 10.1107483,4.10960939 10.2564231,4.35205292 L12.9040651,10.6805592 L16.7605342,10.9206554 Z" id="path-1-path" fill="#4A90E2"></path>
  <path d="M12.7375,0 C18.8375,0 23.7375,5 23.7375,11 C23.7375,17.1 18.8375,22 12.7375,22 C7.5375,22 3.3375,18.5 2.0375,13.7 L3.4375,13.7 C4.6375,17.7 8.3375,20.7 12.7375,20.7 C18.1375,20.7 22.4375,16.4 22.4375,11 C22.4375,5.7 18.1375,1.3 12.7375,1.3 C8.4375,1.3 4.8375,4.1 3.5375,8 L5.9375,6.7 C6.2375,6.5 6.6375,6.6 6.8375,6.8 C6.9375,7.1 6.8375,7.5 6.5375,7.7 L2.8375,9.8 C2.6375,9.9 2.4375,9.9 2.2375,9.8 L2.1375,9.8 C2.0375,9.7 2.0375,9.6 1.9375,9.5 L0.0375,5.7 C-0.0625,5.4 0.0375,5 0.3375,4.9 C0.6375,4.7 1.0375,4.9 1.2375,5.2 L2.3375,7.5 C3.8375,3.1 7.9375,0 12.7375,0 Z" id="path-1-path" fill="#4A90E2"></path>
</svg>
