<svg version="1.1"
   xmlns="http://www.w3.org/2000/svg" xmlns:xlink="http://www.w3.org/1999/xlink"
   x="0px" y="0px" viewBox="0 0 500 413" style="enable-background:new 0 0 500 413;"
   xml:space="preserve">

<defs>
</defs>
<g>
  <path class="st0" d="M499.5,385.9L441,185c-0.1-0.3-0.2-0.7-0.3-1c-1.8-6.8-4-14-6.9-21.1c12.2,10.4,24.3,24.5,35,43.7
    c2.1,3.8,6,5.9,10,5.9c1.9,0,3.8-0.5,5.6-1.4c5.5-3.1,7.5-10,4.4-15.6c-43.3-77.9-109-84.2-128.9-84.2c-0.2,0-0.3,0-0.5,0
    c-0.1,0-0.2,0-0.3,0c-10.4-0.2-22.2,1-35.7,4.1c-0.9-1.7-1.9-3.4-3-5.1c-3.7-5.6-34-47.4-37.6-52.7c-6.2-9.1-15.1-14.6-24.5-16.3
    c1.1-5.2,1-10.6-0.4-15.9c-2.4-8.9-8.1-16.3-16.2-20.9c-5.1-2.9-11-4.5-16.9-4.5c-12.2,0-23.6,6.5-29.7,17.1
    c-4.6,7.9-5.8,17.2-3.4,26.1c2.4,8.9,8.1,16.3,16.1,20.9c3.1,1.8,6.4,3,9.8,3.7c-0.1,0.2-0.1,0.5-0.2,0.7c-2.2,9.4-0.7,19,4.3,27.2
    c2.2,3.5,5.2,8.5,8.3,13.6c0.7,1.2,1.4,2.8,0.7,4c-0.9,1.7-4.3,3.4-9.7,3.4h-23.3c-25.9-64.5-82.3-81.6-101.6-85.6l-6.3-13.5
    c-2.2-4.7-7.3-7.3-12.4-6.4c-5.1,0.9-8.9,5.1-9.4,10.2l-1.4,16.1C56.4,47.7,23,80.8,12.9,90.8c-14.4,14.3-17,34.5-6.3,49
    c11.2,15.1,28.8,18.3,48.4,8.6c6.2-3,12.4-6.7,17.7-10l22.4,77.2c-14,8.1-42.9,24.8-51.5,29.8c-16.2,9.5-21.8,27.2-14.9,47.3
    c6,17.5,17.2,51.2,18.1,53.9c5.2,17.4,23.6,27.3,40.9,22.2l18.1-5.1c2.9-0.8,5.4-2.8,6.9-5.5c1.5-2.7,1.8-5.8,1-8.8l-17.8-60.4
    l18.1-10.1l30.6,104.2c5.1,17.5,23.6,27.5,41.1,22.4l19-5.6c6.1-1.8,9.5-8.1,7.8-14.2l-33.2-113.3c28.3,5,60.3,7.6,89.2,7.1
    c40.2-0.7,70.9-4,96-10.6L334,364.9c-5.5,17.4,4.1,36,21.5,41.5l18.9,6c1.2,0.4,2.3,0.5,3.5,0.5c4.9,0,9.4-3.1,10.9-8l25.7-80.7
    l17.2,59c5.1,17.5,23.6,27.5,41.1,22.4l19-5.6C497.8,398.3,501.3,391.9,499.5,385.9z M213.9,37.2c-0.8-3-0.4-6.1,1.1-8.7
    c2-3.5,5.8-5.6,9.9-5.6c2,0,3.9,0.5,5.6,1.5c2.7,1.6,4.7,4,5.5,7c0.8,2.9,0.4,6-1.2,8.7c-2,3.5-5.8,5.6-9.9,5.6
    c-2,0-3.8-0.5-5.6-1.5C216.6,42.7,214.7,40.2,213.9,37.2z M466.3,383.7c-5.4,1.6-11.1-1.5-12.6-6.9l-27.7-95
    c-1.4-4.8-5.8-8.2-10.8-8.2c-5.1,0-9.5,3.2-11.1,8l-33.7,105.6l-8-2.6c-5.3-1.7-8.3-7.4-6.6-12.8l37.3-117
    c1.3-4.2,0.1-8.8-3.1-11.8c-2.2-2-5-3.1-7.8-3.1c-1.4,0-2.8,0.3-4.2,0.8c-25.9,10.1-60.8,15.2-109.9,16.1
    c-33.7,0.6-72.1-3.3-102.5-10.3c-4-0.9-8.1,0.3-10.9,3.3c-2.8,3-3.8,7.2-2.7,11.1l35.3,120.5l-8.1,2.4c-5.4,1.6-11.1-1.5-12.6-6.9
    L132,258.9c-1-3.3-3.4-6-6.6-7.4c-3.2-1.3-6.9-1.1-9.9,0.6l-38.7,21.4c-4.7,2.6-7,8.1-5.4,13.3l17.1,58l-7.1,2
    c-5.4,1.6-11.1-1.5-12.6-6.9c0-0.1-0.1-0.3-0.1-0.4c-0.1-0.4-12-36-18.2-54.3c-4.9-14.4,2.1-18.6,4.8-20.1
    c11.4-6.7,58.6-33.9,59.1-34.2c4.6-2.6,6.7-8.1,5.3-13.1L90.3,117.1c-1-3.6-3.8-6.4-7.3-7.6c-3.5-1.2-7.4-0.6-10.4,1.5
    c-0.1,0.1-14.6,10.5-27.7,17C31.2,134.7,27,129,25,126.3c-3.9-5.3-2.3-13,4-19.2c10.8-10.7,48.2-47.8,55.5-55
    c0.8,0.3,1.6,0.5,2.5,0.6c2.8,0.3,67.9,9.2,92,79.2c1.6,4.6,5.9,7.7,10.8,7.7H221c13.5,0,24.4-5.5,29.7-15.1
    c4.6-8.3,4.2-18.5-1.2-27.2c-3.2-5.1-6.2-10.1-8.3-13.6c-1.8-3-2.4-6.5-1.6-9.9c0.8-3.4,2.9-6.3,5.9-8.1c6.3-3.9,13.7-1.9,18.4,4.8
    c3.8,5.5,33.9,47.1,37.4,52.4c1.8,2.8,3,5.2,3.5,7.7c0,0.3,0.1,0.5,0.1,0.8c0.6,4.8-1.4,9.6-6.3,16.9
    c-7.8,11.4-15.5,22.5-20.9,30.5l-3.9,5.6c-4.7,6.8-4.5,12.5-3.6,16.1c2,7.6,8.6,10.8,11.1,12l0.3,0.1
    c26.5,12.8,54.1,25.7,54.3,25.8c5.7,2.7,12.5,0.2,15.2-5.5c2.7-5.7,0.2-12.5-5.5-15.2c-0.3-0.1-25.3-11.8-50.5-24l1.4-2
    c5.5-8,13.2-19.2,21-30.6c4.7-6.9,8.9-14.5,10.1-23.2c31.9-7.7,56.6-3.5,71.7,12.2c8.6,9.3,14.1,21.1,19.2,40.5
    c0.1,0.5,0.3,0.9,0.4,1.3l55.2,189.4L466.3,383.7z"/>
</g>
</svg>
