<svg viewBox="0 0 473 497" version="1.1" xmlns="http://www.w3.org/2000/svg" xmlns:xlink="http://www.w3.org/1999/xlink">
    <title>roller</title>
    <defs></defs>
    <g id="Page-1" stroke-width="1" fill-rule="evenodd">
        <g id="roller" transform="translate(-2.000000, -3.000000)" fill="#231F20" fill-rule="nonzero">
            <path d="M50.3787879,413.636364 C51.1363636,420.075758 56.8181818,424.621212 63.2575758,424.621212 C64.0151515,424.621212 64.3939394,424.621212 65.1515152,424.621212 C72.3484848,423.484848 77.2727273,417.045455 76.1363636,409.848485 L70.4545455,370.454545 C77.6515152,373.863636 85.9848485,376.136364 95.8333333,376.893939 C96.2121212,376.893939 96.2121212,376.893939 96.5909091,376.893939 L170.075758,378.787879 C170.454545,378.787879 171.212121,378.787879 171.969697,378.787879 C182.954545,378.787879 216.287879,373.484848 235.984848,310.606061 L278.787879,338.636364 L256.060606,440.151515 L250,440.151515 C242.80303,440.151515 237.121212,445.833333 237.121212,453.030303 C237.121212,460.227273 242.80303,465.909091 250,465.909091 L353.409091,465.909091 C360.606061,465.909091 366.287879,460.227273 366.287879,453.030303 C366.287879,445.833333 360.606061,440.151515 353.409091,440.151515 L326.893939,440.151515 C331.060606,433.712121 334.848485,426.136364 337.121212,416.287879 L361.742424,320.454545 C361.742424,320.075758 361.742424,319.69697 362.121212,319.318182 C368.181818,281.818182 329.545455,259.469697 303.787879,244.69697 C298.863636,242.045455 292.424242,238.257576 289.015152,235.606061 C293.181818,223.863636 312.5,192.80303 329.924242,168.181818 C334.090909,162.5 332.575758,154.166667 326.893939,150 C321.212121,145.833333 312.878788,147.348485 308.712121,153.030303 C259.469697,223.106061 261.742424,237.121212 262.5,241.666667 C264.393939,251.893939 274.621212,257.954545 290.530303,267.045455 C310.984848,278.787879 339.015152,294.69697 336.363636,314.393939 L311.742424,409.469697 C307.19697,427.272727 298.863636,435.606061 282.954545,437.5 L304.924242,340.151515 C305.30303,338.257576 305.30303,336.363636 304.924242,334.848485 C306.060606,329.545455 304.166667,323.863636 299.621212,320.833333 L215.909091,266.287879 C215.530303,265.909091 214.772727,265.530303 214.015152,265.530303 C213.636364,265.530303 213.636364,265.151515 213.257576,265.151515 C213.257576,265.151515 213.257576,265.151515 213.257576,265.151515 C208.333333,263.257576 204.924242,259.848485 203.409091,255.30303 C201.515152,249.621212 202.651515,243.181818 206.060606,236.742424 C206.060606,236.742424 206.060606,236.742424 206.060606,236.742424 C206.060606,236.742424 206.060606,236.742424 206.060606,236.742424 L263.636364,135.227273 C264.772727,133.333333 273.106061,117.80303 268.181818,100.757576 C266.287879,93.9393939 260.984848,84.0909091 247.727273,77.2727273 C226.515152,66.2878788 199.621212,69.6969697 167.424242,87.5 C143.181818,101.136364 121.212121,120.075758 106.818182,133.712121 C77.6515152,161.363636 77.2727273,167.045455 76.8939394,170.075758 C76.5151515,177.272727 81.8181818,183.333333 89.0151515,184.090909 C94.3181818,184.469697 99.2424242,181.439394 101.515152,176.893939 C111.742424,162.878788 194.318182,78.7878788 235.606061,100.378788 C241.666667,103.409091 242.424242,106.818182 242.80303,107.954545 C244.318182,113.257576 241.666667,120.075758 240.530303,122.348485 L182.954545,223.863636 C182.954545,223.863636 182.954545,223.863636 182.954545,223.863636 C176.515152,234.848485 174.242424,246.969697 176.893939,258.333333 L156.060606,308.712121 L60.2272727,304.545455 C58.3333333,298.863636 52.2727273,295.075758 46.2121212,296.212121 C39.0151515,297.348485 34.0909091,303.787879 35.2272727,310.984848 L50.3787879,413.636364 Z M159.469697,335.227273 C161.363636,335.227273 162.878788,334.848485 164.393939,334.469697 C164.772727,334.469697 164.772727,334.469697 165.151515,334.469697 C170.075758,334.469697 175,331.439394 177.272727,326.515152 L194.318182,284.848485 C196.590909,286.363636 199.242424,287.878788 201.893939,289.015152 L212.878788,296.212121 C212.5,296.590909 212.5,297.348485 212.121212,297.727273 C197.348485,351.136364 174.242424,353.030303 171.590909,353.030303 C171.212121,353.030303 171.212121,353.030303 170.833333,353.030303 C170.833333,353.030303 170.454545,353.030303 170.075758,353.030303 L96.5909091,351.136364 C80.6818182,350 71.969697,344.318182 67.8030303,331.439394 L159.469697,335.227273 Z M248.863636,475.757576 C242.424242,475.757576 237.5,481.060606 237.5,487.5 C237.5,493.939394 242.80303,499.242424 248.863636,499.242424 C255.30303,499.242424 260.227273,493.939394 260.227273,487.5 C260.227273,481.060606 255.30303,475.757576 248.863636,475.757576 Z M281.818182,475.757576 C275.378788,475.757576 270.454545,481.060606 270.454545,487.5 C270.454545,493.939394 275.757576,499.242424 281.818182,499.242424 C288.257576,499.242424 293.181818,493.939394 293.181818,487.5 C293.560606,481.060606 288.257576,475.757576 281.818182,475.757576 Z M315.151515,475.757576 C308.712121,475.757576 303.787879,481.060606 303.787879,487.5 C303.787879,493.939394 309.090909,499.242424 315.151515,499.242424 C321.590909,499.242424 326.515152,493.939394 326.515152,487.5 C326.515152,481.060606 321.212121,475.757576 315.151515,475.757576 Z M348.106061,475.757576 C341.666667,475.757576 336.742424,481.060606 336.742424,487.5 C336.742424,493.939394 342.045455,499.242424 348.106061,499.242424 C354.545455,499.242424 359.469697,493.939394 359.469697,487.5 C359.469697,481.060606 354.545455,475.757576 348.106061,475.757576 Z M15.9090909,325 C22.3484848,323.863636 26.8939394,318.181818 26.1363636,311.742424 C25.3787879,305.30303 19.3181818,301.136364 12.8787879,302.272727 C6.43939394,303.409091 1.89393939,309.090909 2.65151515,315.530303 C3.40909091,321.969697 9.46969697,326.136364 15.9090909,325 Z M17.4242424,335.227273 C10.9848485,336.363636 6.43939394,342.045455 7.1969697,348.484848 C7.95454545,354.924242 14.0151515,359.090909 20.4545455,357.954545 C26.8939394,357.19697 31.4393939,351.136364 30.6818182,344.69697 C29.9242424,338.636364 23.8636364,334.090909 17.4242424,335.227273 Z M27.2727273,400.757576 C33.7121212,399.621212 39.3939394,404.166667 40.530303,410.227273 C41.2878788,416.666667 36.7424242,422.727273 30.3030303,423.484848 C23.8636364,424.621212 17.8030303,420.454545 17.0454545,414.015152 C16.2878788,407.575758 20.8333333,401.893939 27.2727273,400.757576 Z M22.3484848,367.80303 C28.7878788,367.045455 34.8484848,371.212121 35.6060606,377.272727 C36.3636364,383.712121 31.8181818,389.393939 25.3787879,390.530303 C18.9393939,391.666667 12.8787879,387.5 12.1212121,381.060606 C11.3636364,374.621212 15.9090909,368.939394 22.3484848,367.80303 Z M289.015152,84.0909091 C289.393939,84.469697 289.393939,84.8484848 289.772727,84.8484848 C293.939394,90.9090909 298.863636,95.8333333 304.924242,100 L452.651515,242.045455 C455.30303,244.318182 458.333333,245.833333 461.742424,245.833333 C465.151515,245.833333 468.560606,244.318182 471.212121,241.666667 C476.136364,236.363636 476.136364,228.409091 470.833333,223.484848 L348.484848,106.060606 C357.19697,103.030303 365.151515,98.1060606 371.590909,90.9090909 C380.681818,80.3030303 384.848485,66.2878788 383.712121,52.2727273 C381.060606,23.8636364 356.060606,1.51515152 327.651515,3.78787879 C314.015152,4.54545455 301.515152,10.9848485 292.80303,21.5909091 C283.712121,32.1969697 279.545455,46.2121212 280.681818,60.2272727 C281.060606,68.5606061 284.090909,76.8939394 289.015152,84.0909091 Z M312.121212,37.8787879 C316.287879,32.9545455 322.348485,29.9242424 329.166667,29.1666667 C329.924242,29.1666667 330.30303,29.1666667 331.060606,29.1666667 C344.69697,29.1666667 356.439394,40.1515152 357.954545,54.5454545 C358.712121,61.7424242 356.439394,68.5606061 351.893939,73.8636364 C347.727273,78.7878788 341.666667,81.8181818 334.848485,82.5757576 C334.090909,82.5757576 333.712121,82.5757576 332.954545,82.5757576 C328.409091,82.5757576 324.242424,81.4393939 320.454545,79.1666667 L310.227273,69.3181818 C307.954545,65.9090909 306.439394,61.7424242 306.060606,57.5757576 C305.30303,50 307.575758,43.1818182 312.121212,37.8787879 Z" id="Shape"></path>
        </g>
    </g>
</svg>
