<svg viewBox="0 0 505 424" version="1.1" xmlns="http://www.w3.org/2000/svg" xmlns:xlink="http://www.w3.org/1999/xlink">
    <defs></defs>
    <g id="Page-1" stroke-width="1" fill-rule="evenodd">
        <g id="room" transform="translate(0.173287, 0.891588)" fill-rule="nonzero">
            <path d="M462.68937,41.94614 C435.870711,14.895587 400.209517,0 362.276928,0 C324.344339,0 288.680144,14.895587 261.858485,41.94614 C226.182288,77.968714 212.907982,130.291555 224.877061,178.230001 L247.467985,178.230001 C234.82679,136.113506 245.634667,89.295816 277.398184,57.224278 C300.085125,34.345924 330.228361,21.745644 362.276928,21.745644 C394.328495,21.745644 424.468731,34.342935 447.14967,57.218301 C485.496331,95.918733 493.348695,156.083874 466.253989,203.535165 C465.962938,204.052207 465.713895,204.58718 465.521862,205.119166 L465.218809,205.779664 L362.276928,389.789775 L336.247407,343.2321 L327.683919,343.2321 L327.683919,356.884395 C327.683919,361.06556 326.897783,365.05545 325.526544,368.767392 L352.741272,417.420132 C354.667606,420.860104 358.31924,423 362.276928,423 C366.234615,423 369.88625,420.863093 371.809584,417.423121 L485.502332,214.207745 C485.769379,213.723579 486.003419,213.215503 486.192452,212.689495 L486.474501,212.070838 C516.821773,156.663678 507.040073,86.707618 462.68937,41.94614 M362.283229,191.581636 C349.513011,191.581636 337.495923,186.554674 328.449352,177.43023 C309.684092,158.490958 309.684092,127.671677 328.449352,108.732405 C337.498924,99.604973 349.516011,94.578011 362.283229,94.578011 C375.056448,94.578011 387.073535,99.607961 396.120106,108.735394 C414.891367,127.674666 414.891367,158.487969 396.120106,177.427242 C387.076536,186.554674 375.056448,191.581636 362.283229,191.581636 M362.283229,72.832367 C343.625988,72.832367 326.090942,80.157624 312.909653,93.460244 C285.793943,120.82162 285.793943,165.341015 312.909653,192.702391 C326.090942,206.002022 343.622988,213.32728 362.283229,213.32728 C380.94347,213.32728 398.478516,206.002022 411.659806,192.702391 C438.781517,165.341015 438.781517,120.82162 411.659806,93.460244 C398.478516,80.157624 380.94047,72.832367 362.283229,72.832367 M52.655246,230.557027 C52.655246,222.601157 59.019352,216.130663 66.844711,216.130663 C74.67007,216.130663 81.037176,222.601157 81.037176,230.557027 C81.037176,238.512896 74.67007,244.986379 66.844711,244.986379 C59.019352,244.986379 52.655246,238.512896 52.655246,230.557027 M66.844711,261.746903 C83.815659,261.746903 97.621057,247.756887 97.621057,230.557027 C97.621057,213.357166 83.815659,199.36715 66.844711,199.36715 C49.873763,199.36715 36.071366,213.357166 36.071366,230.557027 C36.071366,247.756887 49.873763,261.746903 66.844711,261.746903 M303.286681,270.346833 L303.286681,299.788331 L131.572854,299.788331 L131.578855,221.673172 L255.344354,221.673172 C281.781946,221.673172 303.286681,243.508476 303.286681,270.346833 M255.344354,203.633492 L113.734756,203.633492 L113.734756,280.553179 L17.8471,280.553179 L17.8471,241.497094 C17.8471,236.523929 13.844405,232.477254 8.92355,232.477254 C4.002695,232.477254 0,236.523929 0,241.497094 L0,356.884096 C0,361.857262 4.002695,365.906925 8.92355,365.906925 C13.844405,365.906925 17.8471,361.857262 17.8471,356.884096 L17.8471,298.592859 L113.734756,298.592859 L113.734756,317.828011 L284.332389,317.828011 L284.332389,356.884096 C284.332389,361.857262 288.335084,365.906925 293.255939,365.906925 C298.176794,365.906925 302.179489,361.857262 302.179489,356.884096 L302.179489,317.828011 L319.555507,317.828011 L319.555507,270.346833 C319.555507,232.934522 291.350608,203.633492 255.344354,203.633492" id="icon-pick-your-room"></path>
        </g>
    </g>
</svg>
