<svg version="1.1" id="Calque_1" xmlns="http://www.w3.org/2000/svg" xmlns:xlink="http://www.w3.org/1999/xlink" x="0px" y="0px"
	 viewBox="0 0 500 500" style="enable-background:new 0 0 500 500;" xml:space="preserve">
<g id="Page-1_1_">
	<g id="Icone" transform="translate(-527.000000, -302.000000)">
		<g id="icon" transform="translate(527.000000, 302.000000)">
			<g id="Page-1">
				<path id="Fill-1" class="st0" d="M351.5,365.9l0,111.2H148.6V365.9c0-36.6,16.3-70.3,43.9-90.9l47.8,119.5
					c1.7,4.2,5.5,6.9,9.7,6.9c4.2,0,8-2.7,9.7-6.9L307.6,275C335.1,295.6,351.5,329.3,351.5,365.9z M372.5,365.9
					c0-49.3-24.9-94.4-64.9-117.7c-2.6-1.5-5.7-1.8-8.4-0.7c-2.8,1-5,3.3-6.2,6.3l-43,107.4l-43-107.4c-1.2-2.9-3.5-5.2-6.2-6.2
					c-2.8-1.1-5.9-0.8-8.5,0.7c-40,23.3-64.9,68.4-64.9,117.7l0,122.6c0,6.3,4.7,11.5,10.6,11.5h224c5.8,0,10.6-5.2,10.6-11.5
					L372.5,365.9z"/>
				<path id="Fill-4" class="st0" d="M219.1,262c1.9,3.5,5.4,5.7,9.2,5.7c1.8,0,3.7-0.5,5.3-1.6l16.4-10.4l16.4,10.4
					c4.9,3.1,11.6,1.1,14.5-4.2c2.9-5.5,1.2-12.5-3.9-15.7l-6-3.8l6-3.8c5-3.2,6.7-10.2,3.8-15.7c-1.4-2.7-3.7-4.6-6.4-5.3
					c-2.7-0.8-5.6-0.4-8,1.1L250,229.2l-16.4-10.4c-2.4-1.5-5.3-2-8-1.1c-2.7,0.8-5,2.7-6.4,5.3c-2.9,5.5-1.2,12.5,3.9,15.7l6,3.8
					l-6,3.8C217.9,249.5,216.2,256.5,219.1,262"/>
				<path id="Fill-6" class="st0" d="M191.1,120.4c0-9.4,1.9-18.8,5.6-27.2h106.6c3.7,8.4,5.6,17.8,5.6,27.2
					c0,35.3-26.4,64.1-58.9,64.1S191.1,155.7,191.1,120.4z M202.6,70.2h94.8V23h-94.8V70.2z M250,207.5L250,207.5
					c44.1,0,80-39.1,80-87.1c0-15.7-3.9-31.2-11.3-44.6c-0.1-0.1-0.1-0.2-0.2-0.3v-64C318.5,5.2,313.8,0,308,0H192
					c-5.8,0-10.6,5.2-10.6,11.5v64l-0.2,0.3c-7.4,13.5-11.3,28.9-11.3,44.6c0,23.2,8.3,45.1,23.5,61.5
					C208.6,198.4,228.6,207.5,250,207.5z"/>
				<path id="Fill-8" class="st0" d="M279.6,381.3c0,6.3,4.7,11.5,10.6,11.5h40.6c5.8,0,10.6-5.2,10.6-11.5
					c0-6.3-4.7-11.5-10.6-11.5h-40.6C284.4,369.8,279.6,374.9,279.6,381.3"/>
			</g>
		</g>
	</g>
</g>
</svg>
