<svg viewBox="0 0 499 501" version="1.1" xmlns="http://www.w3.org/2000/svg" xmlns:xlink="http://www.w3.org/1999/xlink">
    <title>Oval</title>
    <defs></defs>
    <g id="Page-1" stroke-width="1" fill-rule="evenodd">
        <g id="saferoom" fill-rule="nonzero">
            <path d="M89.2133376,286.462628 C67.6323641,286.462628 50.1375284,268.967792 50.1375284,247.386819 C50.1375284,225.805845 67.6323641,208.311009 89.2133376,208.311009 C110.794311,208.311009 128.289147,225.805845 128.289147,247.386819 C128.289147,268.967792 110.794311,286.462628 89.2133376,286.462628 Z M89.2133376,270.491589 C101.97375,270.491589 112.318108,260.147231 112.318108,247.386819 C112.318108,234.626406 101.97375,224.282049 89.2133376,224.282049 C76.4529255,224.282049 66.1085676,234.626406 66.1085676,247.386819 C66.1085676,260.147231 76.4529255,270.491589 89.2133376,270.491589 Z M294.175007,388.038437 L482.207375,388.038437 L482.207375,198.515439 L294.175007,198.515439 L294.175007,388.038437 Z M286.189488,182.544399 L490.192895,182.544399 C494.603175,182.544399 498.178414,186.119638 498.178414,190.529919 L498.178414,396.023957 C498.178414,400.434237 494.603175,404.009476 490.192895,404.009476 L286.189488,404.009476 C281.779207,404.009476 278.203968,400.434237 278.203968,396.023957 L278.203968,190.529919 C278.203968,186.119638 281.779207,182.544399 286.189488,182.544399 Z M367.641773,259.083848 C367.581388,265.416169 370.450775,271.323729 375.392858,275.134574 C377.353592,276.646498 378.502094,278.982406 378.502094,281.458369 L378.502094,336.61169 C378.502094,341.492401 382.458692,345.448998 387.339402,345.448998 C392.220113,345.448998 396.17671,341.492401 396.176711,336.611691 L396.176711,281.458369 C396.176711,278.928815 397.375201,276.548847 399.407479,275.042695 C406.945146,269.456418 409.560279,259.366057 405.684835,250.821828 C401.809391,242.2776 392.495047,237.598144 383.326717,239.589281 C374.158386,241.580417 367.624072,249.701812 367.641773,259.083848 Z M379.937211,223.98206 C396.459818,220.393755 413.245561,228.826784 420.229649,244.224672 C426.627638,258.33038 423.209525,274.7744 412.14775,285.174485 L412.14775,336.611691 C412.147749,350.312963 401.040674,361.420037 387.339402,361.420037 C373.638131,361.420037 362.531056,350.312963 362.531055,336.611691 L362.531055,285.087069 C355.554425,278.301288 351.588546,268.916415 351.670705,259.068043 C351.660202,242.179738 363.429573,227.567114 379.937211,223.98206 Z M446.2193,190.529919 C446.2193,194.9402 442.644061,198.515439 438.233781,198.515439 C433.8235,198.515439 430.248261,194.9402 430.248261,190.529919 L430.248261,133.247125 C430.248261,109.666824 411.13265,90.5512138 387.55235,90.5512138 C363.972049,90.5512138 344.856438,109.666824 344.856438,133.247125 L344.856438,190.529919 C344.856438,194.9402 341.281199,198.515439 336.870919,198.515439 C332.460638,198.515439 328.885399,194.9402 328.885399,190.529919 L328.885399,133.247125 C328.885399,100.846263 355.151487,74.5801746 387.55235,74.5801746 C419.953212,74.5801746 446.2193,100.846263 446.2193,133.247125 L446.2193,190.529919 Z M328.885399,428.817824 C328.885399,424.407543 332.460638,420.832304 336.870919,420.832304 C341.281199,420.832304 344.856438,424.407543 344.856438,428.817824 L344.856438,492.70198 C344.856438,497.112261 341.281199,500.6875 336.870919,500.6875 L8.50635292,500.6875 C4.09607223,500.6875 0.520833333,497.112261 0.520833333,492.70198 L0.520833333,8.67301959 C0.520833333,4.2627389 4.09607223,0.6875 8.50635292,0.6875 L336.870919,0.6875 C341.281199,0.6875 344.856438,4.2627389 344.856438,8.67301959 L344.856438,64.2522359 C344.856438,68.6625166 341.281199,72.2377555 336.870919,72.2377555 C332.460638,72.2377555 328.885399,68.6625166 328.885399,64.2522359 L328.885399,16.6585392 L16.4918725,16.6585392 L16.4918725,484.716461 L328.885399,484.716461 L328.885399,428.817824 Z" id="Oval"></path>
        </g>
    </g>
</svg>
