<svg viewBox="0 0 500 431" version="1.1" xmlns="http://www.w3.org/2000/svg" xmlns:xlink="http://www.w3.org/1999/xlink">
    <title>safe</title>
    <defs></defs>
    <g id="Page-1" stroke-width="1" fill-rule="evenodd">
        <path d="M64.1438597,409.202331 L63.2486551,409.202331 C28.8566798,409.202331 0.878284706,381.434278 0.878284706,347.311454 L0.878284706,62.6238335 C0.878284706,28.5010095 28.8566798,0.736019205 63.2486551,0.736019205 L437.47705,0.736019205 C471.865939,0.736019205 499.847421,28.5010095 499.847421,62.6238335 L499.847421,347.311454 C499.847421,381.434278 471.865939,409.202331 437.47705,409.202331 L436.581846,409.202331 C439.106921,411.467282 440.6931,414.743402 440.6931,418.388421 C440.6931,425.227073 435.109766,430.767209 428.217791,430.767209 L378.319643,430.767209 C371.427667,430.767209 365.847421,425.227073 365.847421,418.388421 C365.847421,414.743402 367.432722,411.467282 369.956979,409.202331 L130.768727,409.202331 C133.292983,411.467282 134.878285,414.743402 134.878285,418.388421 C134.878285,425.227073 129.298038,430.767209 122.406062,430.767209 L72.5079143,430.767209 C65.615939,430.767209 60.0326057,425.227073 60.0326057,418.388421 C60.0326057,414.743402 61.6187838,411.467282 64.1438597,409.202331 Z M63.2486551,25.4905324 C42.6097662,25.4905324 25.8258156,42.1446266 25.8258156,62.6238335 L25.8258156,347.311454 C25.8258156,367.787599 42.6097662,384.444756 63.2486551,384.444756 L437.47705,384.444756 C458.115939,384.444756 474.89989,367.787599 474.89989,347.311454 L474.89989,62.6238335 C474.89989,42.1446266 458.115939,25.4905324 437.47705,25.4905324 L63.2486551,25.4905324 Z M125.619025,133.827895 C134.199272,133.827895 141.180754,140.755362 141.180754,149.269224 C141.180754,157.780023 134.199272,164.707489 125.619025,164.707489 C117.041865,164.707489 110.060383,157.780023 110.060383,149.269224 C110.060383,140.755362 117.041865,133.827895 125.619025,133.827895 Z M175.517174,133.827895 C184.097421,133.827895 191.078902,140.755362 191.078902,149.269224 C191.078902,157.780023 184.097421,164.707489 175.517174,164.707489 C166.936927,164.707489 159.955445,157.780023 159.955445,149.269224 C159.955445,140.755362 166.936927,133.827895 175.517174,133.827895 Z M225.415322,133.827895 C233.992482,133.827895 240.973964,140.755362 240.973964,149.269224 C240.973964,157.780023 233.992482,164.707489 225.415322,164.707489 C216.835075,164.707489 209.853593,157.780023 209.853593,149.269224 C209.853593,140.755362 216.835075,133.827895 225.415322,133.827895 Z M125.619025,183.338453 C134.199272,183.338453 141.180754,190.265919 141.180754,198.779781 C141.180754,207.290581 134.199272,214.218047 125.619025,214.218047 C117.041865,214.218047 110.060383,207.290581 110.060383,198.779781 C110.060383,190.265919 117.041865,183.338453 125.619025,183.338453 Z M175.517174,183.338453 C184.097421,183.338453 191.078902,190.265919 191.078902,198.779781 C191.078902,207.290581 184.097421,214.218047 175.517174,214.218047 C166.936927,214.218047 159.955445,207.290581 159.955445,198.779781 C159.955445,190.265919 166.936927,183.338453 175.517174,183.338453 Z M225.415322,183.338453 C233.992482,183.338453 240.973964,190.265919 240.973964,198.779781 C240.973964,207.290581 233.992482,214.218047 225.415322,214.218047 C216.835075,214.218047 209.853593,207.290581 209.853593,198.779781 C209.853593,190.265919 216.835075,183.338453 225.415322,183.338453 Z M125.619025,232.850542 C134.199272,232.850542 141.180754,239.778008 141.180754,248.288808 C141.180754,256.80267 134.199272,263.730136 125.619025,263.730136 C117.041865,263.730136 110.060383,256.80267 110.060383,248.288808 C110.060383,239.778008 117.041865,232.850542 125.619025,232.850542 Z M175.517174,232.850542 C184.097421,232.850542 191.078902,239.778008 191.078902,248.288808 C191.078902,256.80267 184.097421,263.730136 175.517174,263.730136 C166.936927,263.730136 159.955445,256.80267 159.955445,248.288808 C159.955445,239.778008 166.936927,232.850542 175.517174,232.850542 Z M175.517174,282.359569 C184.097421,282.359569 191.078902,289.287035 191.078902,297.800897 C191.078902,306.314759 184.097421,313.242225 175.517174,313.242225 C166.936927,313.242225 159.955445,306.314759 159.955445,297.800897 C159.955445,289.287035 166.936927,282.359569 175.517174,282.359569 Z M225.415322,232.850542 C233.992482,232.850542 240.973964,239.778008 240.973964,248.288808 C240.973964,256.80267 233.992482,263.730136 225.415322,263.730136 C216.835075,263.730136 209.853593,256.80267 209.853593,248.288808 C209.853593,239.778008 216.835075,232.850542 225.415322,232.850542 Z M425.001741,84.3158064 C433.581988,84.3158064 440.56347,91.2432726 440.56347,99.7571346 L440.56347,149.266161 C440.56347,157.780023 433.581988,164.707489 425.001741,164.707489 C416.424581,164.707489 409.4431,157.780023 409.4431,149.266161 L409.4431,99.7571346 C409.4431,91.2432726 416.424581,84.3158064 425.001741,84.3158064 Z M425.001741,232.850542 C433.581988,232.850542 440.56347,239.778008 440.56347,248.288808 L440.56347,297.800897 C440.56347,306.314759 433.581988,313.242225 425.001741,313.242225 C416.424581,313.242225 409.4431,306.314759 409.4431,297.800897 L409.4431,248.288808 C409.4431,239.778008 416.424581,232.850542 425.001741,232.850542 Z" id="safe"></path>
    </g>
</svg>
