<svg xmlns="http://www.w3.org/2000/svg" viewBox="0 0 500 502.7"><g><path d="M223.3 275.9c-1.5-.9-8.2-2.3-13.1-2.5-11.2-.4-25.2.9-6.8 13.8 2.3 1.6 3.9 3 5.4 3.8-1-.6-2-1.5-3.2-2.5-14.7-13.3 16.7-12.7 17.7-12.6zm26.1-4.3c.2-2.8-1.9-5.1-4.7-5.3-2.8-.2-5.1 1.9-5.3 4.7-.2 2.7 1.9 5.1 4.7 5.3 2.8.2 5.1-1.9 5.3-4.7zm118.7 74.7c-7.5-11-12-20.2-13.7-28.5-2 2.9-4.8 4.9-7.7 6.3-6.1 2.8-13.5 2.9-19.6-1.1-1.4-.8-6-4.7-7.6-10.1-.9-2.6-1-5.5-.7-7.6.3-2.1.9-3.5 1-3.7 1-2.4 2.2-1.7 2.4-.5.2.9-.2 2.7-.1 5 .1 2.2.7 4.8 1.9 7 2.3 4.7 6.9 7.1 7.9 7.3 4.9 1.8 10.5 1 14.7-1.8 4.4-2.7 6.3-8 6.6-13 .2-5.1-1.7-10.1-5.5-13.3-3.8-3.2-8.9-4.9-14-5.1-10.3-.5-20.3 4.3-28.5 10.7-4.2 3.2-7.9 7-11.6 10.9-3.7 3.9-7.3 7.9-10.8 12.1-14.5 16.7-27.7 34.5-40.8 52.4l-9 12.6c23.3-17.1 45.2-10.5 89.4 15.1 36.7 21.3 56 39.4 91.5 55.4 29.7 13.4 49-1.6 30.1-20.9-27-27.7-48.4-47.8-75.9-89.2z"/><path d="M473.8 141.8c-37.7 16.9-73.3 26.9-105.2 33.9-59.8 10.1-64.5-7.5-82.9-55.5-11.1-28.9-27.3-73.4-39.3-96.1-8.2-15.6-18.3-27.9-29.9-22.9-9.1 3.9-7.9 14.3-4.8 26.4 8 35.3 8.8 66.1 8.1 94.5-3.3 37.4-14.4 61.8-78.9 72.4-31.1 5.1-28.8 5.4-121.4 13-25.6 2.1-24.8 22-4.7 30.8 24.9 10.8 131.4 28.1 131.4 28.1s-8-4.9-9.6-12.8c-2-10.3 9.8 1.4 19.9 2.2 15.4 1.3 23.5-1 31.5-3.9-9-2.4-16.4-2.7-16.3-7.2 12.1-8.1 47.1-9.3 60 3.8 17 6.3 31 19.9 33 26.2 1.4 4.5.1 13.7-20.9 18.9-18.6 4.7-30 4.3-30 4.3-7.3 9.6-29.5 10.5-29.5 10.5-4.9-.2-3.7-2.3-2.6-3.7 1.1-1.4 7.2-10.5 7.2-10.5-4.1-.7-11-1.6-11-1.6-8-.5-15.8 1.3-15 1.2 4.1 10.6 2.8 18.2-10 70-10.2 41.1-24.1 80.3-28.5 111.1-4.2 29.2 14.5 38.1 31.3 13.4 30.2-44.6 89.7-131.2 106.9-160 8.6-14.4 16.7-29 24.1-44 7.3-15 14-30.4 18.4-46.3 2.3-8.1 4-16.3 4.3-24.5.3-8.2-1-16.4-4.9-23-1-1.6-2.2-3.2-3.5-4.6-1.4-1.5-2.8-2.9-4.3-4.2-3-2.7-6.4-4.9-9.9-6.6-7.1-3.4-15.2-4.3-22.8-2.4-7.5 1.9-14.9 6.3-19.5 12.1-4.4 6-6.7 14.3-5.2 21.4.8 3.6 2.5 6.8 5.1 9.4 2.6 2.6 5.9 4.7 9.4 6 3.5 1.3 7.2 1.8 10.6 1.1 3.4-.7 6.3-2.5 8.6-5.3.5-.7 1.8-2.2 2.6-4.3.9-2.1 1.3-4.8.6-7.2-.6-2.4-2.2-4.5-3.6-5.7-1.5-1.3-2.7-1.7-2.9-1.8-2-.7-2-1.8-.7-2.4 1-.3 3.4 0 6.1 1.9 2.6 1.8 5.1 5.4 5.5 9.5.5 4.1-1 8.3-2.9 11-1.8 2.8-3.7 4.5-4.5 5-3.4 2.8-7.8 4.3-12.2 4.3-4.4 0-8.7-1.2-12.6-3.2-3.9-2-7.4-4.8-10-8.3-2.6-3.6-4.2-7.9-4.6-12.3-.4-4.4.3-8.9 1.7-13s3.5-8.1 6.6-11.4c6.1-6.4 14.1-10.7 22.7-12.5 8.7-1.8 18-.3 25.8 3.8 3.9 2 7.5 4.6 10.8 7.5 3.2 2.9 6.4 6.2 8.6 10.2 4.5 7.9 5.7 17.1 5.4 25.8-.3 8.7-2 17.2-4.3 25.5-4.8 16.8-11.9 32.7-19.7 48.1-6.9 13.7-14.5 27-22.4 40.2 3-3.8 6.1-7.6 9.3-11.4 3.7-4.2 7.5-8.4 11.4-12.4 3.9-4 8.1-8 12.8-11.5 4.7-3.5 9.8-6.5 15.4-8.5s11.7-3.1 17.9-2.4c6.1.8 12.3 3 17 8 1.7 1.8 2.9 3.9 3.9 6.1 5-11.5 15.8-23 31.2-37.8 29.1-28.2 58.2-47.7 97.9-83.9 23.7-21.8 16.4-45.2-12-32.5z"/></g></svg>
