<svg xmlns="http://www.w3.org/2000/svg" viewBox="0 0 500 322.6"><g><path d="M176.7 103.8c-.1-2.9-2.6-5.1-5.5-5-2.9.1-5.1 2.6-5 5.5.1 2.9 2.6 5.1 5.5 5 2.9-.2 5.2-2.7 5-5.5z"/><path d="M150.2 100.7c5.8-3 11.4-12.8 26-13.6 15.3-.8 26.4 9.8 35.6 33.3.7 1.9 1.4 4 2.2 6.3 20.9-16.8 47.4-36.2 66.3-43.2 12.8-4.7 7 14-9.3 35.4 29.5-5.9 55.6-7.7 68.7-8 16.1-.4 14.9 2.5 14.7 3.7-.2 1.3-3.4 5.7-10.3 6.6-.3 7.5-10.9 7-10.9 7s1.4 5.4-11.3 6.5c0 0 1.7 6-12.2 6.7-.2 5.4-9.9 6-13.6 6-.5 5.9-9.1 6.4-14.8 7.1 0 0-.1 4.4-7.2 7.9-10.6 5.2-46.3 4.9-53.5 5.4-3.6 17.3 11.1 43.2 2 84.3-5.6 25.5-20.1 45.2-45.3 56.6 3.1-.6 6.3-1.1 9.4-1.7 27.6-5.3 54.8-12.2 81.3-21.3 26.5-9.1 52.2-20.5 76-35.1 23.7-14.6 45.5-32.6 62.3-54.5 8.6-11.1 15.9-23.3 21.1-36.3 5.3-13 8.5-26.7 9.2-40.6.7-13.9-1.2-27.9-6-40.9-2.4-6.4-5.5-12.8-9.3-18.3-3.9-5.5-8.7-10.3-14.3-13.9-11.2-7.4-25.2-10.4-38.6-9-3.3.4-6.6 1-9.7 2-1.5.5-3 1.1-4.4 1.8-1.4.7-2.8 1.6-4.2 2.5-5.4 3.8-10.1 8.8-13.4 14.4-3.3 5.6-4.9 12-4.2 18.1.7 6.1 3.9 11.9 8.4 16.4 4.5 4.5 10.3 7.8 16.5 9 3.1.6 6.2.7 9.3.3 3.1-.4 6.1-1.4 8.7-2.8 1.2-.7 4-2.4 6.5-5.6 2.5-3.2 4.4-8 4.3-12.6 0-2.3-.5-4.5-1.3-6.3-.8-1.8-1.9-3.2-3.1-4.2-2.4-2-4.7-2.4-5-2.5-1.9-.5-3-.8-3.3-1.3-.3-.5.2-1 1.3-1.4.8-.2 2.2-.3 4 0 1.8.3 4 1.2 6.1 2.8 2.1 1.7 3.9 4.2 4.9 7.3 1 3.1 1.3 6.5.8 9.9-.9 6.8-5 12.9-9.4 16.3-4.4 3.5-8.7 4.5-10.1 4.9-7 1.9-14.6 1.3-21.3-1.5-6.7-2.8-12.6-7.5-16.8-13.4-2.1-3-3.8-6.3-4.8-9.8-1-3.5-1.4-7.3-1.1-10.9.5-7.4 3.7-14.3 8-20.1 2.6-3.5 5.6-6.6 9-9.4C278-33.8 125.5-7.4 54.4 130.5c16.6-10 31.3-15.1 44-18.2 12.8-3.1 22.3-4.9 51.8-11.6z"/><path d="M165 310.7c28.3-9.9 45.3-26.6 45.8-57.2.5-26.9-34.5-48.2-41.1-68.7-8.1-25.2-3.1-53.1-7.3-64.6-2.4-6.5-5.9-9.4-12.7-10.9-4.2-.9-19.3.2-34.2 2 22 2.9 30.5 22.9 31.4 49.4C149.5 246.4 41.3 311.6 0 322.6h43.5c50.8 0 101.1-8.5 121.5-11.9z"/><path d="M374.7 30.7c13.7-.1 27.6 3.9 38.8 12.3 5.9 4.4 10.9 9.9 14.8 16.1 3.9 6.2 6.9 12.7 9.3 19.6 4.7 13.7 6.5 28.3 5.6 42.6-.8 14.4-4.3 28.6-9.7 41.9-5.4 13.3-12.8 25.8-21.5 37.2-18 23.2-41.1 41.8-66 56.8-25 15-51.8 26.4-79.3 35.5-27.5 9.1-55.7 15.8-84.2 20.9-22.3 4-44.7 6.9-67.2 9.1C244.9 321.5 387.2 310 463 216.3c85.9-106.8 8.2-206.1-88.3-185.6z"/></g></svg>
