<svg version="1.1" id="Calque_1" xmlns="http://www.w3.org/2000/svg" xmlns:xlink="http://www.w3.org/1999/xlink" x="0px" y="0px"
	 viewBox="0 0 500 500" style="enable-background:new 0 0 500 500;" xml:space="preserve">
<g >
	<g transform="translate(-282.000000, -12.000000)">
		<g  transform="translate(282.000000, 12.000000)">
			<path id="Fill-1" d="M163.1,455.2c1-60.1,86.9-134.4,86.9-134.4s85.9,74.3,86.9,134.4H163.1z M181.9,148.8
				c18.8-3.5,45.8-0.2,68.1,8.9c10.8,4.4,36.1,11.2,57.5,9.6c-12.8,19.5-25.5,30.9-35.5,40.7c-16.4,16.3-21.7,28.5-22,40.7
				c-0.2-12.2-5.6-24.5-22-40.7C215.3,195.4,198,180.1,181.9,148.8L181.9,148.8z M353.7,361.2c-37-74.6-72.2-75.5-72.2-104
				c0-28.6,35.3-29.5,72.2-104c14-28.2,18.3-55.4,18.7-107.6V26.9H250H127.7c0,2.1,0,16.6,0,18.7c0.4,52.2,4.7,79.4,18.7,107.6
				c37,74.6,72.2,75.5,72.2,104c0,28.6-35.3,29.5-72.2,104c-14,28.2-18.3,55.4-18.7,107.6c0,2,0,16.6,0,18.7H250h122.3v-18.7
				C372,416.6,367.7,389.4,353.7,361.2L353.7,361.2z"/>
			<g id="Clip-4">
			</g>
			<defs>
				<filter id="Adobe_OpacityMaskFilter" filterUnits="userSpaceOnUse" x="98.9" y="0" width="302.3" height="10.6">
					<feColorMatrix  type="matrix" values="1 0 0 0 0  0 1 0 0 0  0 0 1 0 0  0 0 0 1 0"/>
				</filter>
			</defs>
			<mask maskUnits="userSpaceOnUse" x="98.9" y="0" width="302.3" height="10.6" id="mask-2_1_">
				<g class="st0">
					<polygon id="path-1_1_" class="st1" points="98.9,501.9 401.1,501.9 401.1,-1.9 98.9,-1.9 					"/>
				</g>
			</mask>
			<polygon id="Fill-3" class="st2" points="98.9,10.6 401.1,10.6 401.1,0 98.9,0 			"/>
			<defs>
				<filter id="Adobe_OpacityMaskFilter_1_" filterUnits="userSpaceOnUse" x="98.9" y="489.4" width="302.3" height="10.6">
					<feColorMatrix  type="matrix" values="1 0 0 0 0  0 1 0 0 0  0 0 1 0 0  0 0 0 1 0"/>
				</filter>
			</defs>
			<mask maskUnits="userSpaceOnUse" x="98.9" y="489.4" width="302.3" height="10.6" id="mask-2_2_">
				<g class="st3">
					<polygon id="path-1_2_" class="st1" points="98.9,501.9 401.1,501.9 401.1,-1.9 98.9,-1.9 					"/>
				</g>
			</mask>
			<polygon id="Fill-5" class="st4" points="98.9,500 401.1,500 401.1,489.4 98.9,489.4 			"/>
		</g>
	</g>
</g>
</svg>
