<svg xmlns="http://www.w3.org/2000/svg" viewBox="0 0 500 500.6"><g><path d="M304 387.8l.7-8.4-12.5 11.3-3.6-.6.5-4 11.7-10.3-9.2-1.2.7-5.3 13.9 1.8 4.6-4.1c-1-.9-2.1-1.7-3.2-2.3-3.6-2.1-7.7-3.3-11.9-3.3-5.8 0-11.3 2.1-15.6 6-.1.1-.1.2-.2.2-1.3 1.2-2.4 2.7-3.4 4.2-6.4 10.8-3.9 27.8-3 32.9 3.2.9 11.1 3 19.4 3 5.4 0 9.9-.9 13.6-2.6-.2-.3-.4-.6-.5-.9-2.3-5.5-2.8-11.1-2-16.4z"/><path d="M354 388.5c-1 .1-2 .2-3 .2-4.3 0-8.4-1-12-2.7l-.6-.3-8.2-3.5 6.9 15.8-1.6 3.2-3.5-1.2-6.7-15.5-4 8.5-4.9-2.3 6-12.8-2.3-5.4c-1.1.7-2.2 1.5-3.2 2.3-7.4 6.6-10.2 17.4-5.9 26.9 0 .1.1.2.1.3.8 1.6 1.8 3.1 2.9 4.5 8.3 9.5 25.2 12.4 30.4 13 2.9-4.3 12.1-18.8 10.6-31.2-.3 0-.6.1-1 .2zM316.1 332.1l5.4 7.3 3-13.8 2.9-1.6 2.5 2.2-3.3 15.1 8.8-4.9 2.6 4.7-13 7.1-1.5 7.1c.8.1 1.6.2 2.5.2.8 0 1.5-.1 2.2-.2 10-1 18.5-8.3 20.6-18.3v-.3c.3-1.8.4-3.6.2-5.4-1.1-12.5-13.1-24.8-16.9-28.3-4.9 1.7-20.8 8.1-27 19 .3.2.7.3 1 .5 4.2 2.3 7.5 5.7 10 9.6zM276.6 363.1c3.4-3 7.4-5.1 11.7-6.3v-.1l1.3-.3c.5-.1 1-.2 1.6-.3l7.9-1.6-13.9-8.1-.5-3.6 3.4-1 12 7-1.8-9.5 5.3-1 2.7 14.1 7 4.1c.6-1.4 1.1-2.8 1.4-4.2.8-3.6.8-7.4-.1-11.1-1.6-6-5.5-11-10.9-14.2-.1 0-.2-.1-.3-.1-1.5-.8-3.2-1.5-5-1.9-1.8-.4-3.6-.6-5.6-.6-11 0-22.7 5.8-26.5 7.9.1 5.2 1.3 22.3 9.8 31.5 0-.1.2-.4.5-.7zM354.2 337c-.1.4-.1.7-.1 1.1-1 4.9-3.3 9.2-6.5 12.8l.1.1-5.2 7.3 15.1-1.4 2.8 2.6-2.5 2.7-15.7 1.4 7.4 7-3.7 3.9-10.9-10.1-6.7.6c.3 1.4.7 2.8 1.3 4.2 3.9 9.1 13.2 15.1 23.7 13.9.1 0 .2 0 .3-.1 1.8-.2 3.5-.7 5.2-1.4 11.5-4.9 19.5-20.2 21.7-24.8-3-4.1-14-17.3-26.3-19.8z"/><path d="M492.4 279c-2.9 3.2-6 6.2-9.9 8.5-3.8 2.3-7.9 3.9-12.1 5-8.4 2.2-17.7 2.3-26.3-.9-4.4-1.7-8.3-4.3-11.8-7.5-3.4-3.3-6-7.3-7.9-11.5-3.7-8.5-4.6-18.2-1.9-27.3 2.8-9.1 9.4-17 18.4-21 8.9-4.1 20.9-2.8 28.2 5.3.8.9 3.7 4.6 4.4 9.1.9 4.4-.3 8.4-.4 8.6-.5 1.8-2 1.3-2.6.3-.9-1.5-.7-5.7-2.2-9.2-1.4-3.6-4.2-6.1-4.8-6.6-6-5.1-15-5.2-21.6-1.4-6.7 3.7-11.7 10.4-13.4 17.7-3.6 14.8 4.3 31.9 18.4 36.5 6.9 2.7 14.9 2.8 22.3.9 3.7-.9 7.3-2.4 10.5-4.3 3-1.9 6-4.5 8.5-7.4 10.2-11.6 13.8-28.3 9.2-43-.2-.9-1.2-3.9-2.5-6.7-.6-1.3-1.2-2.4-1.7-3.4-10.1-18.3-41.7-48-75.4-43.5-35.5 4.8-47.6 31.1-101.2 48.5 24.1 24.4 49.6 50.1 71 71.4-9.9-1.1-18.6-6.2-29.8-15.6-23.7-19.8-52.8-43.8-83.6-39.6-44.7 6.2-55.4 36.3-148.1 61.5-70.5 19.2-58.6 3.2-55.7 0 3-3.2 123-120.9 161.8-163.8 0 0 25.5 26.2 58.5 59.8C325.8 166 391 103.6 391 103.6s89.6 80.1 107.1 112.3C481.6 94.1 377 0 250.3 0c-53.5 0-103 16.8-143.6 45.4 7.5-2.9 15.3-4.9 23.3-5.9 15.8-1.9 32.5.3 47 8 14.5 7.5 26.2 20.5 32.1 35.9 2.9 7.9 4.4 16.5 3.6 25.1-.8 8.6-3.7 16.8-8 24.1-4.3 7.3-10.2 13.8-17.5 18.6-7.3 4.7-15.7 7.6-24.7 7.7-8.8.1-17.4-2.4-24.9-6.6-7.5-4.2-14.1-10.5-18.3-18.4-4.2-7.9-5.6-17.1-4.1-26 1.5-8.9 6.9-17.5 15.2-22.2 1-.5 3.2-1.8 6.4-2.6 3.1-.8 7.2-1.2 11.1-.4 3.9.7 7.4 2.7 9.6 4.6 2.3 1.8 3.4 3.5 3.6 3.7 2.1 2.8.7 3.6-.8 3-1.1-.5-3-2.2-5.7-3.8-2.7-1.6-6.4-2.8-10-2.9-7.5-.2-13.5 4.4-14.6 5.3-5.8 4.7-9.1 12.1-9.5 19.6-.5 7.5 1.5 15.1 5.6 21.3 8.2 12.5 23.7 19.7 38.3 18.7 7.2-.6 14.4-3.4 20.3-7.6 6-4.2 10.9-10 14.4-16.5s5.8-13.7 6.4-20.9c.5-7.2-.9-14.5-3.5-21.4-5.2-14-15.9-25.9-29.2-32.8-13.3-6.9-29-9-44-7-15.1 2-29.5 8.1-42.3 16.5-3.1 2-6 4.2-8.9 6.5C29.8 114.8 0 179.1 0 250.3 0 370 84.1 470.1 196.4 494.7c-14.1-6.6-26.9-16.2-36.5-28.8-7.8-10.2-13-22.8-13.6-36-.7-13.2 3.7-26.8 12.3-37.1 4.4-5.2 9.8-9.7 16.1-12.8 6.4-3.2 13.4-4.4 20.2-4.5 6.9 0 14 1.4 20.3 4.8 6.3 3.4 11.7 8.6 15 15 3.3 6.4 4.7 13.5 4.4 20.6-.3 7.1-2.4 14.2-6.6 20.2-4.2 6-10.4 10.5-17.5 12.7-7.1 2.2-15.5 1.5-22.1-2.9-1.5-.9-7.1-5.2-8.8-11.8-1-3.2-.8-6.6-.3-8.9.5-2.4 1.3-3.9 1.3-4.1 1.3-2.6 2.6-1.8 2.9-.3.2 1.1-.3 3.1-.3 5.7-.1 2.5.5 5.6 1.8 8.1 2.6 5.3 8.1 7.9 9.1 8.3 5.5 2.4 11.9 2 17.2-.4 5.5-2.4 10.1-6.5 13-11.7 5.8-10.3 5.3-23.8-.6-33.7-3-4.9-7.5-8.9-12.7-11.3-5.2-2.4-11.1-3.4-16.9-3.2-5.8.2-11.6 1.5-16.6 4.2-5.1 2.7-9.6 6.5-13.2 11-7.7 9-11.6 20.9-11 32.7.6 11.8 5.4 23.4 12.8 32.9 14.9 19.2 38.2 31.3 62.2 35.8.9.2 3.2.6 6 .9 5.3.3 10.7.6 16.1.6 132.5 0 240.9-102.9 249.7-233.2-2.1 4.1-4.6 8-7.7 11.5zm-106.2 78.5c-.4 1-9.9 23-25.9 29.3 2.5 17.1-11.7 36.2-12.4 37.1l-.9 1.2-1.5-.1c-1.1-.1-25-2.3-36-15.7-4.5 2.2-10 3.5-16.5 3.5-11.6 0-22.2-3.6-22.6-3.8l-1.4-.5-.3-1.4c-.3-1.1-5.5-24.4 3.8-39-12.1-12.3-11.8-36.2-11.8-37.4v-1.5l1.3-.8c.6-.4 15.8-9.4 30.6-9.4 2.7 0 5.2.3 7.6.9 8-15.3 30.8-22.4 31.9-22.7l1.4-.4 1.1 1c.9.7 18.8 16.5 19.9 33.7 17 2.9 30.9 22.4 31.5 23.3l.9 1.2-.7 1.5z"/></g></svg>
