<svg version="1.1"
   xmlns="http://www.w3.org/2000/svg" xmlns:xlink="http://www.w3.org/1999/xlink"
   x="0px" y="0px" viewBox="0 0 500 494.4" style="enable-background:new 0 0 500 494.4;"
   xml:space="preserve">
<defs>
</defs>
<g>
  <path class="st0" d="M499.6,345.8c-5.8,28.5-39.5,6.8-53.8,11.3c-4.6,1.4-9.7,7.5-21.4,5.5c-31.6-5.5-11.5-66-1.5-90.4
    c1.2,13-0.1,28.3,8.4,34.9c1.7-4.8,2.4-10.8,4.8-14.7c0.8,9.5,8.2,21.9,17.8,22.3c-4.6-12.1-5.9-22.5-7.1-27.4
    c16.3,18.7,40.2,18.9,48.4,18.8c-2.1-6.2-11.4-30.8-58.6-44.1c9.3-3.7,36.4-2.7,50.2-0.6c-0.2-0.8-0.4-1.6-0.6-2.4
    c-4.7-6.8-21.8-15.2-36.3-14.2c6.4-8.3,16-12.9,28.5-15.4c0-0.1,0-0.2-0.1-0.2c-7-4.2-26.9-3.6-38.5,3.6
    c-3-28.2,19.6-59.1,19.6-59.1c-18.6,7.6-26.5,27.3-29.8,40.5c-1.3-13.3,0.1-25.4,4.1-34.4c-6.2,1.7-13.8,11.4-13.2,23
    c-4.6-12.8-6.8-30.6-3.9-40.4c-6.5,6.6-11.4,20.6-6.5,43.9c-16.2-13.8-18.2-29-18.5-41.7c-0.4-16.2,11.5-39.9,37-44.4
    c3.4-0.6,6.4-0.5,9,0C410,60.8,367.8-5.2,319.8,0.3C273.9,5.6,233.3,72.4,201.9,157c-14.3-52.1-21.3-71.3-37.6-77
    C109,60.7,5.4,266.4,0,371.6c44.4-62.6,115.5-50.7,134-41.2c23.3,12,28.8,27.6,29.8,35.9c1.2,8-1.8,18.5-7.7,24.3
    c-2.9,2.9-6.4,5.1-10.3,6.2c-3.8,1.1-8.1,0.8-12-0.4c-3.9-1.2-15.5-9-12.7-20.6c3.1-12.7,14.9-13.4,20.1-10.3
    c3.6,2.2,4.6,6.4,4.4,9.4c-0.2,1.8-0.5,2.9-0.5,3.9c-0.1,2.5,1.8,3.2,2.9,0.6c0.1-0.1,1.3-3.3,1.1-7.6c-0.2-3.6-4.7-21.8-30-21.8
    c-30.8,0-64,24.5-55.5,69.1c10.2,53.8,73.6,53.8,91.1,48.6c-18.5-19.3-30.2-50.1-32.5-73.8c2.4,2.9,5.6,5.1,8.9,6.4
    c4.8,1.8,9.8,2.4,15,1.4c5-1.1,9.4-3.7,13-7c3.6-3.4,6.4-7.7,8-12.3c1.6-4.7,2.6-11.8,2-16.5c-1.2-9.4-6.9-28.5-32.7-39.7
    c26-46.2,70.1-51.5,92.5-51.5c30.9,0,64.7,18,64.7,52.7c0,32-29.4,37-36.1,37c-24.1,0-30.5-17.6-30.5-26.8c0-9.2,5.1-20,15.7-24.3
    c3.3-1.3,7.2-1.8,10.9-1.3c14,2.1,14.4,17,13.5,19.6c-1.1,2.6-2,1.7-2.7,0.6c-1.2-2.1-0.2-16.4-14.4-15.5
    c-10.3,0.5-17,10.5-17,20.8c0,10.3,8.5,21,22.9,21c10,0,30-6.9,30-29.3c0-22.4-19.7-38.4-44.6-37.9c-29.2,0.6-49.3,23.3-53.1,55.2
    c-4.2,34.9,13.2,108.5,155.1,141.6C459.3,515.3,504.7,450.7,499.6,345.8z M355,136.9c3.4-0.2,6.2,2.4,6.4,5.7
    c0.2,3.4-2.4,6.2-5.7,6.4c-3.4,0.2-6.2-2.4-6.4-5.7C349.1,140,351.7,137.1,355,136.9z M339,129.2c3.4-0.2,6.2,2.4,6.4,5.7
    c0.2,3.4-2.4,6.2-5.7,6.4c-3.4,0.2-6.2-2.4-6.4-5.7C333,132.2,335.6,129.4,339,129.2z M327.3,141.3c1.3,0.5,3.9,1.2,8.9,4.6
    c4.9,3.4,33,22.9,55.2,52.1c11.7,15.1,24.3,29.6,32.8,47.6c1.5,3.1,7.5,18.7-1.2,18.3c-3.2-0.2-10.1-9.4-12.8-12.4
    c-4.4-5-9.3-9.2-11.7-13.3c-2.3-4-3.1-9.4-4.9-13.9c-14.2-34-38.9-58.4-49.7-67.6c-8.5-7.3-16.4-12.9-17.5-13.7
    C325.4,142.1,326,140.8,327.3,141.3z M343.4,165.5c0.2,3.4-2.4,6.2-5.7,6.4c-3.4,0.2-6.2-2.4-6.4-5.7c-0.2-3.4,2.4-6.2,5.7-6.4
    C340.3,159.6,343.2,162.1,343.4,165.5z M328.9,156.7c0.2,3.4-2.4,6.2-5.7,6.4c-3.4,0.2-6.2-2.4-6.4-5.7c-0.2-3.4,2.4-6.2,5.7-6.4
    C325.8,150.7,328.7,153.3,328.9,156.7z M319.3,131.4c3.4-0.2,6.2,2.4,6.4,5.7c0.2,3.4-2.4,6.2-5.7,6.4c-3.4,0.2-6.2-2.4-6.4-5.7
    C313.3,134.4,315.9,131.5,319.3,131.4z M308.5,267.3c-8.1-5.6,1.2-19.9,0.4-28.5c-0.4-4.5-4.2-7-6.6-10.1
    c-6-7.7-9.5-27.3,10.8-32.2c28.3-6.9,64,8.6,72.5,29.6c-6.5-1.2-13.4-2.2-22-1.7c-6.2,0.3-13.2,1.4-21.7,3.7
    c30.3,0.8,49.7,17.1,54.9,22.1c-14.9-4-29.5-3.5-41.7,0.3c-10.8,3.3-16.2,8.6-24.6,13.5C326.1,266.4,314.6,271.4,308.5,267.3z
     M394.7,318.8c-1.8,14.7,2.3,39.5-13.7,42.4c-13,2.3-19.8-9.4-33.8-12.3c-33.5-6.8-35.9-37.1-27.4-53.7
    c11.8-23,44.8-30.2,74.9-28.2c-16.9,5.3-33,11.4-36.4,32.1c6.4-8.1,16.9-14.3,28.5-14.6c-5.1,4.1-10.6,16.8-6.5,25.7
    c2.3-6.2,12.2-22.3,26.2-24.5C401.7,294.3,396.1,307.2,394.7,318.8z"/>
</g>
</svg>
