<svg xmlns="http://www.w3.org/2000/svg" viewBox="0 0 500 584.7"><g><path d="M14 102.8C33.2 87 54.2 85.1 72.4 88.5c24 4.4 41 21.5 48.4 37.3 11.6 25 12.4 58.3-5.4 94.3 29.6-32.2 46.1-78 16.4-112 16.8-1.8 26.6 19.3 33.7 8.6 31.7-45.8 78.3-31.5 84.4-29.4 6.1-2.1 52.7-16.4 84.4 29.4 7.1 10.6 16.9-10.5 33.7-8.6-29.6 34.1-13.2 79.9 16.4 112-17.8-36-16.9-69.4-5.4-94.3 7.3-15.8 24.3-32.9 48.4-37.3 18.2-3.4 39.2-1.5 58.4 14.3 6 4.9 10.6 11.2 14 18.1V66h-.2c0-38.5-114.3-66-249.8-66C114.5 0 .2 31.1.2 66H0v54.9c3.5-6.8 8.1-13.2 14-18.1z"/><path d="M53.3 258.1c25.7-5.1 47-21.2 57.8-50C151.8 99.5 34.4 64.2 6.4 132.9c-6.5 16-2.5 36.4 9.9 45.7 3.3 2.5 7 4.5 10.9 5.9 3.9 1.4 8.3 2.3 12 2.3 8.4 0 16.2-2.7 21.8-8.3 2.8-2.8 5.1-6.1 6.8-9.8 1.6-3.6 2.8-7.8 2.6-11-.3-7.1-5-13.8-11.7-16.9-.8-.4-2.6-1.2-5.1-1.7-2.5-.5-5.8-.8-8.4-.3-2.7.5-5.1 1.6-6.6 2.7s-2.2 2.1-2.3 2.2c-1.1 1.7-3.2.9-3.8-.9-.4-1.3.3-4 2.9-6.6 2.5-2.6 6.9-4.6 11.5-5.1s9.3.1 12.9 1.4c3.6 1.2 6 2.8 6.9 3.4 8.3 5.5 13.6 15.8 12.2 26.1-1.5 9.9-6.6 19.2-14.5 25.6-3.9 3.2-8.6 5.6-13.5 7-4.9 1.4-9.9 1.9-15.1 1.5-10.1-.9-19.8-4.7-27.7-11.4-3.1-2.7-5.9-6-8.1-9.5v77.9c15.7 6.8 36.2 8.4 53.3 5zM446.7 258.1c-25.7-5.1-47-21.2-57.8-50-40.7-108.7 76.7-143.9 104.7-75.3 6.5 16 2.5 36.4-9.9 45.7-3.3 2.5-7 4.5-10.9 5.9-3.9 1.4-8.3 2.3-12 2.3-8.4 0-16.2-2.7-21.8-8.3-2.8-2.8-5.1-6.1-6.8-9.8-1.6-3.6-2.8-7.8-2.6-11 .3-7.1 5-13.8 11.7-16.9.8-.4 2.6-1.2 5.1-1.7 2.5-.5 5.8-.8 8.4-.3 2.7.5 5.1 1.6 6.6 2.7s2.2 2.1 2.3 2.2c1.1 1.7 3.2.9 3.8-.9.4-1.3-.3-4-2.9-6.6-2.5-2.6-6.9-4.6-11.5-5.1s-9.3.1-12.9 1.4c-3.6 1.2-6 2.8-6.9 3.4-8.3 5.5-13.6 15.8-12.2 26.1 1.5 9.9 6.6 19.2 14.5 25.6 3.9 3.2 8.6 5.6 13.5 7 4.9 1.4 9.9 1.9 15.1 1.5 10.1-.9 19.8-4.7 27.7-11.4 3.2-2.7 5.9-5.9 8.2-9.5V253c-15.8 6.9-36.3 8.5-53.4 5.1z"/><path d="M354.5 274.8c-1.5-6 3.9-23.7 19.7-25.7-45.5-22.4-63.1-60.1-80.2-72.8-17.1-12.7-33-10.6-33-10.6s9.4-11 26.6-14.7c17-3.7-11.6-59.7-37.6-63.4-26 3.7-54.6 59.7-37.6 63.4 17.2 3.7 26.6 14.7 26.6 14.7s-15.9-2.2-33 10.6c-17.1 12.7-34.7 50.4-80.2 72.8 15.8 2 21.2 19.7 19.7 25.7-34-16.6-107.9 20-145.5-14.5v137.3C0 472 72.7 538.9 139.7 584.7c40.4-36.2 61.8-84.5 61.8-84.5s-95.5.3-96.3 0c0 0 83.1-89.2 109.2-151.8h-69.1s70.8-73.9 104.7-140.5c33.9 66.6 104.7 140.5 104.7 140.5h-69.1c26.1 62.7 109.2 151.8 109.2 151.8-.8.3-96.3 0-96.3 0s21.4 48.3 61.8 84.5c67-45.8 139.7-112.6 139.7-187.1V260.3c-37.6 34.4-111.5-2.1-145.5 14.5z"/></g></svg>
