<svg xmlns="http://www.w3.org/2000/svg" viewBox="0 0 500 491.3"><path d="M11.5 423.4c1.9-5.7 8.6-8.6 14.3-5.7 11.5 4.8 25.8 4.8 37.3 0 17.2-6.7 36.3-6.7 53.5 0 12.4 4.8 25.8 4.8 37.3 0 17.2-6.7 36.3-6.7 53.5 0 5.7 1.9 8.6 8.6 5.7 14.3-1.9 3.8-5.7 6.7-10.5 6.7-1 0-2.9 0-3.8-1-12.4-4.8-25.8-4.8-37.3 0-8.6 3.8-17.2 4.8-26.8 4.8-9.6 0-18.2-1.9-26.8-4.8-12.4-4.8-25.8-4.8-37.3 0-8.6 3.8-17.2 4.8-26.8 4.8s-18.2-1.9-26.8-4.8c-4.6-1.9-7.4-8.6-5.5-14.3zm197.9 33.5c-17.2-6.7-36.3-6.7-53.5 0-12.4 4.8-25.8 4.8-37.3 0-17.2-6.7-36.3-6.7-53.5 0-12.4 4.8-25.8 4.8-37.3 0-5.7-1.9-12.4 0-14.3 5.7-1.9 5.7 0 12.4 5.7 14.3 8.6 3.8 17.2 4.8 26.8 4.8s18.2-1.9 26.8-4.8c12.4-4.8 25.8-4.8 37.3 0 8.6 3.8 18.2 4.8 26.8 4.8 9.6 0 18.2-1.9 26.8-4.8 12.4-4.8 25.8-4.8 37.3 0 1 1 2.9 1 3.8 1 4.8 0 8.6-2.9 10.5-6.7 2.7-5.7-.2-12.4-5.9-14.3zm0-117.6c-17.2-6.7-36.3-6.7-53.5 0-12.4 4.8-25.8 4.8-37.3 0-17.2-6.7-36.3-6.7-53.5 0-13.4 4.8-26.8 4.8-39.2 0-5.7-1.9-12.4 0-14.3 5.7s0 12.4 5.7 14.3c8.6 3.8 17.2 4.8 26.8 4.8s18.2-1.9 26.8-4.8c12.4-4.8 25.8-4.8 37.3 0 8.6 3.8 18.2 4.8 26.8 4.8 9.6 0 18.2-1.9 26.8-4.8 12.4-4.8 25.8-4.8 37.3 0 1 1 2.9 1 3.8 1 4.8 0 8.6-2.9 10.5-6.7 4.6-5.7 1.7-12.4-4-14.3zm0 39.2c-17.2-6.7-36.3-6.7-53.5 0-12.4 4.8-25.8 4.8-37.3 0-17.2-6.7-36.3-6.7-53.5 0-12.4 4.8-25.8 4.8-37.3 0-5.7-1.9-12.4 1-14.3 5.7-1.9 5.7 0 12.4 5.7 14.3 8.6 3.8 17.2 4.8 26.8 4.8s18.2-1.9 26.8-4.8c12.4-4.8 25.8-4.8 37.3 0 8.6 3.8 18.2 4.8 26.8 4.8 9.6 0 18.2-1.9 26.8-4.8 12.4-4.8 25.8-4.8 37.3 0 1 1 2.9 1 3.8 1 4.8 0 8.6-2.9 10.5-6.7 2.7-5.7-.2-12.4-5.9-14.3zm139.5-182.6zM218 12.3c-3.8 1-7.6 2.9-11.5 3.8 3.8-.9 7.6-2.8 11.5-3.8zm-49.7 18.2c3.8-1.9 7.6-2.9 11.5-4.8-3.9 1.9-7.7 2.9-11.5 4.8zm181.6 132.9c-29.6-1-59.3 2.9-88.9 12.4l111.9 306.9-23.9 8.6-111-307.9c-27.7 11.5-52.6 27.7-74.6 46.8-27.7-2.9-56.4-1-85.1 5.7-28.7 6.7-55.4 17.2-78.4 32.5 5.7-102.3 68.8-196.9 167.3-238h1c4.8-1.9 9.6-3.8 14.3-5.7l-3.8-9.6 21-7.6 3.8 9.6c4.8-1.9 9.6-3.8 14.3-4.8h1c101.3-31.5 210.3-1 281.1 74.6-27.7 3.8-54.5 12.4-81.3 25.8-26.6 13.4-49.6 30.6-68.7 50.7zm-99.4 15.3zm80.3-27.8C297.3 75.4 254.3 25.7 219.9 24.7c-7.6 2.9-15.3 5.7-22.9 8.6h-1c-6.7 1.9-14.3 4.8-22 8.6-22 19.1-30.6 76.5-3.8 167.3 22.9-18.2 48.8-32.5 75.5-42.1 27.7-10.4 56.4-15.2 85.1-16.2z"/></svg>
