<svg id="Calque_1" data-name="Calque 1" xmlns="http://www.w3.org/2000/svg" viewBox="0 0 100 100"><defs></defs><title>Sea view</title><path class="cls-1" d="M96.66,63.92h-24a22.71,22.71,0,0,0-45.32,0h-24a1.5,1.5,0,0,0,0,3H96.66a1.5,1.5,0,0,0,0-3ZM50,45.7A19.73,19.73,0,0,1,69.64,63.92H30.36A19.73,19.73,0,0,1,50,45.7Z"/><path class="cls-1" d="M24.33,76.36H11a1.5,1.5,0,0,0,0,3H24.33a1.5,1.5,0,0,0,0-3Z"/><path class="cls-1" d="M77.88,82H64.56a1.5,1.5,0,0,0,0,3H77.88a1.5,1.5,0,0,0,0-3Z"/><path class="cls-1" d="M41.12,89.14H33a1.5,1.5,0,0,0,0,3h8.12a1.5,1.5,0,0,0,0-3Z"/><path class="cls-1" d="M49.24,79.18H41.12a1.5,1.5,0,0,0,0,3h8.12a1.5,1.5,0,1,0,0-3Z"/><path class="cls-1" d="M87.79,73.39H79.67a1.5,1.5,0,0,0,0,3h8.12a1.5,1.5,0,0,0,0-3Z"/><path class="cls-1" d="M64.57,19.15a1.5,1.5,0,0,0,1.86-1,6.16,6.16,0,0,1,10.69-2.23h0a1.55,1.55,0,0,0,.39.33l.07,0h0a1.17,1.17,0,0,0,.26.1h0a2,2,0,0,0,.34.05h.1a1.85,1.85,0,0,0,.41-.07l.06,0a1.52,1.52,0,0,0,.33-.18l.07,0,0,0a1.27,1.27,0,0,0,.25-.27l0-.07a1.33,1.33,0,0,0,.19-.4h0a6.16,6.16,0,0,1,10.69-2.24,1.5,1.5,0,1,0,2.31-1.9,9.13,9.13,0,0,0-15,1.19,9.15,9.15,0,0,0-14.21,4.9A1.5,1.5,0,0,0,64.57,19.15Z"/><path class="cls-1" d="M50,37.61a1.5,1.5,0,0,0,1.5-1.5V27.63a1.5,1.5,0,1,0-3,0v8.48A1.5,1.5,0,0,0,50,37.61Z"/><path class="cls-1" d="M33,41.47a1.53,1.53,0,0,0,1.27.69,1.58,1.58,0,0,0,.81-.23,1.52,1.52,0,0,0,.46-2.08L31,32.73a1.5,1.5,0,1,0-2.53,1.61Z"/><path class="cls-1" d="M14.63,52.09l7.77,3.29a1.52,1.52,0,0,0,.59.12,1.5,1.5,0,0,0,.58-2.88l-7.77-3.3a1.5,1.5,0,0,0-1.17,2.77Z"/><path class="cls-1" d="M85.36,49.45l-7.82,3.17a1.5,1.5,0,0,0,.56,2.89,1.36,1.36,0,0,0,.56-.11l7.83-3.17a1.5,1.5,0,1,0-1.13-2.78Z"/><path class="cls-1" d="M70.34,34.24l-4.59,6.45a1.52,1.52,0,0,0,.36,2.1,1.54,1.54,0,0,0,.87.27,1.49,1.49,0,0,0,1.22-.63L72.79,36a1.5,1.5,0,0,0-2.45-1.74Z"/></svg>
