<svg viewBox="0 0 500 304" version="1.1" xmlns="http://www.w3.org/2000/svg" xmlns:xlink="http://www.w3.org/1999/xlink">
    <defs></defs>
    <g id="Page-1" stroke-width="1" fill-rule="evenodd">
        <path d="M14.7031963,303.315789 C6.57534247,303.315789 0,296.427854 0,287.925475 C0,279.439028 6.57534247,272.529849 14.7031963,272.529849 C22.0547945,272.529849 25.2054795,270.580834 33.7087773,261.658913 C47.2653475,247.468809 56.3825469,241.743909 73.5261289,241.743909 C90.6697108,241.743909 99.8021309,247.468809 113.338407,261.658913 C121.861999,270.580834 124.99239,272.529849 132.343988,272.529849 C139.720954,272.529849 142.851344,270.580834 151.369863,261.658913 C164.906139,247.468809 174.023338,241.743909 191.16692,241.743909 C208.330797,241.743909 217.447996,247.468809 230.984272,261.658913 C239.507864,270.580834 242.638255,272.529849 249.989853,272.529849 C257.361745,272.529849 260.492136,270.580834 269.015728,261.658913 C282.552004,247.468809 291.669203,241.743909 308.83308,241.743909 C325.976662,241.743909 335.088787,247.468809 348.625063,261.658913 C357.148656,270.580834 360.279046,272.529849 367.650939,272.529849 C375.00761,272.529849 378.138001,270.580834 386.661593,261.658913 C400.192796,247.468809 409.330289,241.743909 426.473871,241.743909 C443.617453,241.743909 452.734652,247.468809 466.291223,261.658913 C474.794521,270.580834 477.945205,272.529849 485.296804,272.529849 C493.419584,272.529849 500,279.439028 500,287.925475 C500,296.427854 493.419584,303.315789 485.296804,303.315789 C468.153222,303.315789 459.015728,297.59089 445.479452,283.422029 C436.960934,274.500107 433.825469,272.529849 426.473871,272.529849 C419.101979,272.529849 415.971588,274.500107 407.447996,283.422029 C393.91172,297.59089 384.794521,303.315789 367.650939,303.315789 C350.492136,303.315789 341.374937,297.59089 327.838661,283.422029 C319.315068,274.500107 316.184678,272.529849 308.83308,272.529849 C301.461187,272.529849 298.325723,274.500107 289.807204,283.422029 C276.270928,297.59089 267.153729,303.315789 249.989853,303.315789 C232.846271,303.315789 223.729072,297.59089 210.192796,283.422029 C201.674277,274.500107 198.538813,272.529849 191.16692,272.529849 C183.815322,272.529849 180.684932,274.500107 172.161339,283.422029 C158.625063,297.59089 149.507864,303.315789 132.343988,303.315789 C115.205479,303.315789 106.08828,297.59089 92.5520041,283.422029 C84.028412,274.500107 80.8980213,272.529849 73.5261289,272.529849 C66.1745307,272.529849 63.0390665,274.500107 54.5205479,283.422029 C40.9842719,297.59089 31.8467783,303.315789 14.7031963,303.315789 M14.7031963,189.709988 C6.57534247,189.709988 0,182.827363 0,174.319674 C0,165.811984 6.57534247,158.929359 14.7031963,158.929359 C22.0547945,158.929359 25.2054795,156.953791 33.7087773,148.058423 C47.2653475,133.868319 56.3825469,128.143419 73.5261289,128.143419 C90.6697108,128.143419 99.8021309,133.868319 113.338407,148.058423 C121.861999,156.953791 124.99239,158.929359 132.343988,158.929359 C139.720954,158.929359 142.851344,156.953791 151.369863,148.058423 C164.906139,133.868319 174.023338,128.143419 191.16692,128.143419 C208.330797,128.143419 217.447996,133.868319 230.984272,148.058423 C239.507864,156.953791 242.638255,158.929359 249.989853,158.929359 C257.361745,158.929359 260.492136,156.953791 269.015728,148.058423 C282.552004,133.868319 291.669203,128.143419 308.83308,128.143419 C325.976662,128.143419 335.088787,133.868319 348.625063,148.058423 C357.148656,156.953791 360.279046,158.929359 367.650939,158.929359 C375.00761,158.929359 378.138001,156.953791 386.661593,148.058423 C400.192796,133.868319 409.330289,128.143419 426.473871,128.143419 C443.617453,128.143419 452.734652,133.868319 466.291223,148.058423 C474.794521,156.953791 477.945205,158.929359 485.296804,158.929359 C493.419584,158.929359 500,165.811984 500,174.319674 C500,182.827363 493.419584,189.709988 485.296804,189.709988 C468.153222,189.709988 459.015728,183.985089 445.479452,169.816228 C436.960934,160.899617 433.825469,158.929359 426.473871,158.929359 C419.101979,158.929359 415.971588,160.899617 407.447996,169.816228 C393.91172,183.985089 384.794521,189.709988 367.650939,189.709988 C350.492136,189.709988 341.374937,183.985089 327.838661,169.816228 C319.315068,160.899617 316.184678,158.929359 308.83308,158.929359 C301.461187,158.929359 298.325723,160.899617 289.807204,169.816228 C276.270928,183.985089 267.153729,189.709988 249.989853,189.709988 C232.846271,189.709988 223.729072,183.985089 210.192796,169.816228 C201.674277,160.899617 198.538813,158.929359 191.16692,158.929359 C183.815322,158.929359 180.684932,160.899617 172.161339,169.816228 C158.625063,183.985089 149.507864,189.709988 132.343988,189.709988 C115.205479,189.709988 106.08828,183.985089 92.5520041,169.816228 C84.028412,160.899617 80.8980213,158.929359 73.5261289,158.929359 C66.1745307,158.929359 63.0390665,160.899617 54.5205479,169.816228 C40.9842719,183.985089 31.8467783,189.709988 14.7031963,189.709988 Z M14.7031963,62.2560906 C6.57534247,62.2560906 0,55.3681547 0,46.8657759 C0,38.3580864 6.57534247,31.4701505 14.7031963,31.4701505 C22.0547945,31.4701505 25.2054795,29.4998929 33.7087773,20.599214 C47.2653475,6.40911019 56.3825469,0.684210526 73.5261289,0.684210526 C90.6697108,0.684210526 99.8021309,6.40911019 113.338407,20.599214 C121.861999,29.4998929 124.99239,31.4701505 132.343988,31.4701505 C139.720954,31.4701505 142.851344,29.4998929 151.369863,20.599214 C164.906139,6.40911019 174.023338,0.684210526 191.16692,0.684210526 C208.330797,0.684210526 217.447996,6.40911019 230.984272,20.599214 C239.507864,29.4998929 242.638255,31.4701505 249.989853,31.4701505 C257.361745,31.4701505 260.492136,29.4998929 269.015728,20.599214 C282.552004,6.40911019 291.669203,0.684210526 308.83308,0.684210526 C325.976662,0.684210526 335.088787,6.40911019 348.625063,20.599214 C357.148656,29.4998929 360.279046,31.4701505 367.650939,31.4701505 C375.00761,31.4701505 378.138001,29.4998929 386.661593,20.599214 C400.192796,6.40911019 409.330289,0.684210526 426.473871,0.684210526 C443.617453,0.684210526 452.734652,6.40911019 466.291223,20.599214 C474.794521,29.4998929 477.945205,31.4701505 485.296804,31.4701505 C493.419584,31.4701505 500,38.3580864 500,46.8657759 C500,55.3681547 493.419584,62.2560906 485.296804,62.2560906 C468.153222,62.2560906 459.015728,56.5311909 445.479452,42.3623298 C436.960934,33.4404082 433.825469,31.4701505 426.473871,31.4701505 C419.101979,31.4701505 415.971588,33.4404082 407.447996,42.3623298 C393.91172,56.5311909 384.794521,62.2560906 367.650939,62.2560906 C350.492136,62.2560906 341.374937,56.5311909 327.838661,42.3623298 C319.315068,33.4404082 316.184678,31.4701505 308.83308,31.4701505 C301.461187,31.4701505 298.325723,33.4404082 289.807204,42.3623298 C276.270928,56.5311909 267.153729,62.2560906 249.989853,62.2560906 C232.846271,62.2560906 223.729072,56.5311909 210.192796,42.3623298 C201.674277,33.4404082 198.538813,31.4701505 191.16692,31.4701505 C183.815322,31.4701505 180.684932,33.4404082 172.161339,42.3623298 C158.625063,56.5311909 149.507864,62.2560906 132.343988,62.2560906 C115.205479,62.2560906 106.08828,56.5311909 92.5520041,42.3623298 C84.028412,33.4404082 80.8980213,31.4701505 73.5261289,31.4701505 C66.1745307,31.4701505 63.0390665,33.4404082 54.5205479,42.3623298 C40.9842719,56.5311909 31.8467783,62.2560906 14.7031963,62.2560906 Z" id="seaview"></path>
    </g>
</svg>
