<svg version="1.1"
   xmlns="http://www.w3.org/2000/svg" xmlns:xlink="http://www.w3.org/1999/xlink"
   x="0px" y="0px" viewBox="0 0 429.5 426.6" style="enable-background:new 0 0 429.5 426.6;"
   xml:space="preserve">
<defs>
</defs>
<g id="XMLID_27_">
  <path id="XMLID_28_" class="st0" d="M111.2,147.9c-9.4,0-18.8-3.6-26-10.7c-14.3-14.3-14.3-37.6,0-51.9c14.3-14.3,37.6-14.3,51.9,0
    c6.9,6.9,10.8,16.2,10.8,26c0,9.8-3.8,19-10.8,26l0,0C130,144.4,120.6,147.9,111.2,147.9z M111.2,90c-5.4,0-10.9,2.1-15,6.2
    c-8.3,8.3-8.3,21.8,0,30.1c8.3,8.3,21.8,8.3,30.1,0l0,0c4-4,6.2-9.4,6.2-15c0-5.7-2.2-11-6.2-15C122.1,92.1,116.7,90,111.2,90z"/>
</g>
<g id="XMLID_23_">
  <path id="XMLID_24_" class="st0" d="M421.8,426.6c-0.7,0-1.4-0.1-2-0.3l-87.8-23.9c-3.2-0.9-5.5-3.8-5.7-7.1l-2.1-45.3h-54.7
    c-4,0-7.3-3-7.7-6.9l-4.1-38.6l-38.5,1.4c-2.2,0.1-4.2-0.7-5.8-2.3c-1.5-1.5-2.3-3.6-2.2-5.8l2.3-52.3l-7.3-3.8
    c-24.5,16.5-53.9,24.4-83.5,22.3c-31.6-2.3-61.4-15.9-83.8-38.3c-25-25-38.7-58.2-38.7-93.5c0-35.3,13.8-68.5,38.7-93.5
    S96.9,0,132.2,0c35.3,0,68.5,13.8,93.5,38.7c17.9,17.9,30.2,40.5,35.6,65.2c4.9,22.4,3.8,45.6-2.9,67.4l168.9,168.9
    c1.5,1.5,2.3,3.4,2.3,5.5l0,73.2c0,2.4-1.1,4.7-3,6.1C425.1,426.1,423.5,426.6,421.8,426.6z M341.4,389l72.6,19.8l0-59.9l-170-170
    c-2.1-2.1-2.8-5.2-1.8-8c7.2-20.5,8.5-42.5,3.9-63.7c-4.7-21.8-15.6-41.7-31.4-57.5c-22-22-51.4-34.2-82.5-34.2
    c-31.2,0-60.5,12.1-82.5,34.2S15.5,101,15.5,132.2c0,31.2,12.1,60.5,34.2,82.5c19.8,19.8,46.1,31.8,74,33.8
    c27.6,2,55-5.9,77.3-22.2c2.4-1.7,5.6-2,8.2-0.6l15.8,8.3c2.7,1.4,4.3,4.2,4.1,7.2l-2.1,48.8l37.4-1.3c4.1-0.2,7.5,2.9,8,6.9
    l4.2,38.8h55.1c4.1,0,7.5,3.3,7.7,7.4L341.4,389z"/>
</g>
</svg>
