<svg viewBox="0 0 399 492" version="1.1" xmlns="http://www.w3.org/2000/svg" xmlns:xlink="http://www.w3.org/1999/xlink">
    <defs></defs>
    <g id="Page-1" stroke-width="1" fill-rule="evenodd">
        <g id="3single-room" transform="translate(-0.018105, 0.709060)" fill-rule="nonzero">
            <path d="M96.739726,469.972603 C102.219178,469.972603 107.013699,475.452055 107.013699,480.931507 C107.013699,486.410959 102.219178,491.205479 96.739726,491.205479 L60.4383562,491.205479 C26.8767123,490.520548 0.164383562,463.808219 0.164383562,430.931507 L0.164383562,123.39726 C0.849315068,89.8356164 27.5616438,63.1232877 60.4383562,63.1232877 L170.712329,63.1232877 C167.972603,69.9726027 166.60274,76.8219178 165.232877,83.6712329 L60.4383562,83.6712329 C38.5205479,83.6712329 20.7123288,101.479452 20.7123288,123.39726 L20.7123288,430.246575 C20.7123288,452.164384 38.5205479,469.972603 60.4383562,469.972603 L96.739726,469.972603 Z M309.753425,232.986301 C316.60274,232.30137 323.452055,230.931507 330.30137,228.876712 L330.30137,430.246575 C329.616438,463.808219 302.90411,490.520548 270.027397,490.520548 L233.726027,490.520548 C228.246575,490.520548 223.452055,485.726027 223.452055,480.246575 C223.452055,474.767123 228.246575,469.972603 233.726027,469.972603 L270.027397,469.972603 C291.945205,469.972603 309.753425,452.164384 309.753425,430.246575 L309.753425,232.986301 Z M350.164384,89.1506849 C350.164384,96 346.054795,101.479452 338.520548,105.589041 C342.630137,106.958904 346.054795,109.013699 348.109589,111.753425 C350.849315,114.493151 352.219178,117.917808 352.219178,122.027397 C352.219178,128.876712 349.479452,134.356164 344,138.465753 C338.520548,142.575342 330.986301,144.630137 321.39726,144.630137 C313.178082,144.630137 307.013699,142.575342 301.534247,139.150685 C296.054795,135.726027 293.315068,130.246575 291.945205,123.39726 L307.013699,123.39726 C308.383562,130.246575 313.178082,133.671233 321.39726,133.671233 C326.191781,133.671233 329.616438,132.986301 332.356164,130.931507 C335.09589,128.876712 336.465753,126.136986 336.465753,122.027397 C336.465753,118.60274 335.09589,115.863014 332.356164,113.808219 C329.616438,111.753425 326.191781,111.068493 322.082192,111.068493 L313.178082,111.068493 L313.178082,99.4246575 L320.712329,99.4246575 C325.506849,99.4246575 328.931507,98.739726 330.986301,96.6849315 C333.041096,94.630137 334.410959,91.890411 334.410959,89.1506849 C334.410959,86.4109589 333.041096,83.6712329 330.986301,81.6164384 C328.931507,79.5616438 325.506849,78.8767123 320.712329,78.8767123 C317.287671,78.8767123 314.547945,79.5616438 311.808219,81.6164384 C309.753425,83.6712329 307.69863,86.4109589 307.69863,89.1506849 L292.630137,89.1506849 C293.315068,82.9863014 296.739726,77.5068493 301.534247,73.3972603 C306.328767,69.2876712 312.493151,67.9178082 320.712329,67.9178082 C329.616438,67.9178082 337.150685,69.9726027 341.945205,73.3972603 C348.109589,78.1917808 350.164384,82.9863014 350.164384,89.1506849 Z M261.808219,104.90411 L281.671233,130.246575 L267.287671,130.246575 L254.958904,113.808219 L241.945205,130.246575 L228.931507,130.246575 L248.109589,105.589041 L229.616438,82.3013699 L243.315068,82.3013699 L254.958904,97.369863 L266.60274,82.3013699 L279.616438,82.3013699 L261.808219,104.90411 Z M291.945205,211.753425 C233.726027,211.753425 185.780822,164.493151 185.780822,106.273973 C185.780822,47.369863 233.726027,0.109589041 291.945205,0.109589041 C350.164384,0.109589041 398.109589,47.369863 398.109589,106.273973 C397.424658,164.493151 350.164384,211.753425 291.945205,211.753425 Z M291.945205,15.8630137 C241.945205,15.8630137 201.534247,56.2739726 201.534247,106.273973 C201.534247,156.273973 241.945205,196.684932 291.945205,196.684932 C341.945205,196.684932 382.356164,156.273973 382.356164,106.273973 C382.356164,56.2739726 341.260274,15.8630137 291.945205,15.8630137 Z" id="Combined-Shape"></path>
        </g>
    </g>
</svg>
