<?xml version="1.0" encoding="UTF-8"?>
<svg viewBox="0 0 794 488" version="1.1" xmlns="http://www.w3.org/2000/svg" xmlns:xlink="http://www.w3.org/1999/xlink">
    <!-- Generator: Sketch 53.2 (72643) - https://sketchapp.com -->
    <title>Shape 2</title>
    <desc>Created with Sketch.</desc>
    <g id="Page-1" stroke="none" stroke-width="1" fill="none" fill-rule="evenodd">
        <g id="single" fill="#000000" fill-rule="nonzero">
            <path d="M308.078125,0.324419 C345.826825,0.36736391 376.429563,30.9351673 376.515625,68.683794 L376.515625,419.308794 C376.429563,457.057421 345.826825,487.625224 308.078125,487.668169 L266.828125,487.668169 C260.356038,487.668169 255.109375,482.421506 255.109375,475.949419 C255.109375,469.477332 260.356038,464.230669 266.828125,464.230669 L308.078125,464.230669 C332.900461,464.230706 353.035031,444.131093 353.078125,419.308794 L353.078125,68.683794 C353.035031,43.8614954 332.900461,23.7618816 308.078125,23.761919 L68.546875,23.761919 C43.724539,23.7618816 23.5899693,43.8614954 23.546875,68.683794 L23.546875,419.308794 C23.5899693,444.131093 43.724539,464.230706 68.546875,464.230669 L110.1875,464.230669 C116.659587,464.230669 121.90625,469.477332 121.90625,475.949419 C121.90625,482.421506 116.659587,487.668169 110.1875,487.668169 L68.546875,487.668169 C30.7981746,487.625224 0.1954366,457.057421 0.109375,419.308794 L0.109375,68.683794 C0.1954366,30.9351673 30.7981746,0.36736391 68.546875,0.324419 L308.078125,0.324419 Z M725.078125,0.324419 C762.826825,0.36736391 793.429563,30.9351673 793.515625,68.683794 L793.515625,419.308794 C793.429563,457.057421 762.826825,487.625224 725.078125,487.668169 L683.828125,487.668169 C677.356038,487.668169 672.109375,482.421506 672.109375,475.949419 C672.109375,469.477332 677.356038,464.230669 683.828125,464.230669 L725.078125,464.230669 C749.900461,464.230706 770.035031,444.131093 770.078125,419.308794 L770.078125,68.683794 C770.035031,43.8614954 749.900461,23.7618816 725.078125,23.761919 L485.546875,23.761919 C460.724539,23.7618816 440.589969,43.8614954 440.546875,68.683794 L440.546875,419.308794 C440.589969,444.131093 460.724539,464.230706 485.546875,464.230669 L527.1875,464.230669 C533.659587,464.230669 538.90625,469.477332 538.90625,475.949419 C538.90625,482.421506 533.659587,487.668169 527.1875,487.668169 L485.546875,487.668169 C447.798175,487.625224 417.195437,457.057421 417.109375,419.308794 L417.109375,68.683794 C417.195437,30.9351673 447.798175,0.36736391 485.546875,0.324419 L725.078125,0.324419 Z" id="Shape-2"></path>
        </g>
    </g>
</svg>
