<svg viewBox="0 0 314 498" version="1.1" xmlns="http://www.w3.org/2000/svg" xmlns:xlink="http://www.w3.org/1999/xlink">
    <defs></defs>
    <g id="Page-1" stroke-width="1" fill-rule="evenodd">
        <g id="separatedtoilets" transform="translate(-10.000000, 0.000000)" fill-rule="nonzero">
            <path d="M69.6875,15.9375 L69.6875,219.0625 L263.645833,219.0625 L263.645833,15.9375 L69.6875,15.9375 Z M61.875,0.3125 L271.458333,0.3125 C275.773058,0.3125 279.270833,3.81027539 279.270833,8.125 L279.270833,226.875 C279.270833,231.189725 275.773058,234.6875 271.458333,234.6875 L61.875,234.6875 C57.5602754,234.6875 54.0625,231.189725 54.0625,226.875 L54.0625,8.125 C54.0625,3.81027539 57.5602754,0.3125 61.875,0.3125 Z" id="Rectangle-path"></path>
            <path d="M228.020833,388.958333 C228.020833,384.643609 231.518609,381.145833 235.833333,381.145833 C240.148058,381.145833 243.645833,384.643609 243.645833,388.958333 L243.645833,489.791667 C243.645833,494.106391 240.148058,497.604167 235.833333,497.604167 L97.5,497.604167 C93.1852754,497.604167 89.6875,494.106391 89.6875,489.791667 L89.6875,388.958333 C89.6875,384.643609 93.1852754,381.145833 97.5,381.145833 C101.814725,381.145833 105.3125,384.643609 105.3125,388.958333 L105.3125,481.979167 L228.020833,481.979167 L228.020833,388.958333 Z" id="Shape"></path>
            <path d="M111.145833,48.75 C111.145833,44.4352754 114.643609,40.9375 118.958333,40.9375 C123.273058,40.9375 126.770833,44.4352754 126.770833,48.75 L126.770833,191.25 C126.770833,195.564725 123.273058,199.0625 118.958333,199.0625 C114.643609,199.0625 111.145833,195.564725 111.145833,191.25 L111.145833,48.75 Z" id="Shape"></path>
            <path d="M158.854167,409.791667 C158.854167,405.476942 162.351942,401.979167 166.666667,401.979167 C170.981391,401.979167 174.479167,405.476942 174.479167,409.791667 L174.479167,453.125 C174.479167,457.439725 170.981391,460.9375 166.666667,460.9375 C162.351942,460.9375 158.854167,457.439725 158.854167,453.125 L158.854167,409.791667 Z" id="Shape"></path>
            <path d="M44.1666667,234.6875 C34.0989759,234.6875 25.9375,242.848976 25.9375,252.916667 C25.9375,262.984357 34.0989759,271.145833 44.1666667,271.145833 L289.375,271.145833 C299.442691,271.145833 307.604167,262.984357 307.604167,252.916667 C307.604167,242.848976 299.442691,234.6875 289.375,234.6875 L44.1666667,234.6875 Z M44.1666667,219.0625 L289.375,219.0625 C308.07214,219.0625 323.229167,234.219527 323.229167,252.916667 C323.229167,271.613807 308.07214,286.770833 289.375,286.770833 L44.1666667,286.770833 C25.4695267,286.770833 10.3125,271.613807 10.3125,252.916667 C10.3125,234.219527 25.4695267,219.0625 44.1666667,219.0625 Z" id="Rectangle-path"></path>
            <path d="M283.854167,284.583333 C283.854167,280.268609 287.351942,276.770833 291.666667,276.770833 C295.981391,276.770833 299.479167,280.268609 299.479167,284.583333 C299.479167,357.933652 240.016985,417.395833 166.666667,417.395833 C93.3163483,417.395833 33.8541667,357.933652 33.8541667,284.583333 C33.8541667,280.268609 37.3519421,276.770833 41.6666667,276.770833 C45.9813913,276.770833 49.4791667,280.268609 49.4791667,284.583333 C49.4791667,349.304202 101.945798,401.770833 166.666667,401.770833 C231.387536,401.770833 283.854167,349.304202 283.854167,284.583333 Z" id="Shape"></path>
        </g>
    </g>
</svg>
