<svg viewBox="0 0 404 499" version="1.1" xmlns="http://www.w3.org/2000/svg" xmlns:xlink="http://www.w3.org/1999/xlink">
    <defs></defs>
    <g id="Page-1" stroke-width="1" fill-rule="evenodd">
        <g id="2single-room" transform="translate(-0.239951, -0.290940)" fill-rule="nonzero">
            <path d="M98.2523838,477.412067 C103.811055,477.412067 108.674892,482.970737 108.674892,488.529408 C108.674892,494.088079 103.811055,498.951916 98.2523838,498.951916 L61.4261888,498.951916 C27.3793294,498.257083 0.280808555,471.158562 0.280808555,437.806536 L0.280808555,125.82613 C0.975642422,91.7792705 28.0741632,64.6807497 61.4261888,64.6807497 L173.294441,64.6807497 C170.515106,71.6290883 169.125438,78.577427 167.73577,85.5257657 L61.4261888,85.5257657 C39.1915051,85.5257657 21.1258246,103.591446 21.1258246,125.82613 L21.1258246,437.111702 C21.1258246,459.346386 39.1915051,477.412067 61.4261888,477.412067 L98.2523838,477.412067 Z M314.345716,236.999549 C321.294055,236.304715 328.242394,234.915047 335.190732,232.830545 L335.190732,437.111702 C334.495898,471.158562 307.397378,498.257083 274.045352,498.257083 L237.219157,498.257083 C231.660486,498.257083 226.796649,493.393245 226.796649,487.834575 C226.796649,482.275904 231.660486,477.412067 237.219157,477.412067 L274.045352,477.412067 C296.280036,477.412067 314.345716,459.346386 314.345716,437.111702 L314.345716,236.999549 Z M265.707346,107.065616 L285.857528,132.774469 L271.266017,132.774469 L258.759007,116.098456 L245.557164,132.774469 L232.35532,132.774469 L251.810668,107.760449 L233.050154,84.1360979 L246.946831,84.1360979 L258.759007,99.422443 L270.571183,84.1360979 L283.773026,84.1360979 L265.707346,107.065616 Z M355.340914,91.0844366 C355.340914,95.2534398 353.951247,98.7276091 351.171911,102.201778 C348.392576,105.675948 344.918406,109.844951 339.359736,114.708788 L318.51472,134.164136 L355.340914,134.164136 L355.340914,145.976312 L299.754205,145.976312 L299.754205,134.85897 L328.937228,107.760449 C335.885566,100.812111 340.054569,95.9482737 340.054569,91.0844366 C340.054569,88.3051011 339.359736,85.5257657 337.275234,83.4412641 C335.190732,81.3567625 331.716563,80.6619286 327.54756,80.6619286 C323.378557,80.6619286 319.904387,82.0515963 317.819886,84.1360979 C315.04055,86.2205995 314.345716,89.6947689 313.650882,93.8637721 L299.059371,93.8637721 C299.754205,86.9154334 301.838707,80.6619286 307.397378,76.4929254 C312.956049,72.3239222 319.209553,70.2394206 328.242394,70.2394206 C337.275234,70.2394206 344.223573,72.3239222 349.08741,75.7980915 C353.256413,79.9670947 355.340914,84.8309318 355.340914,91.0844366 Z M296.280036,215.459699 C237.219157,215.459699 188.580786,167.516162 188.580786,108.455283 C188.580786,48.6995707 237.219157,0.756033917 296.280036,0.756033917 C355.340914,0.756033917 403.979285,48.6995707 403.979285,108.455283 C403.284451,167.516162 355.340914,215.459699 296.280036,215.459699 Z M296.280036,16.7372129 C245.557164,16.7372129 204.561965,57.732411 204.561965,108.455283 C204.561965,159.178156 245.557164,200.173354 296.280036,200.173354 C347.002908,200.173354 387.998106,159.178156 387.998106,108.455283 C387.998106,57.732411 346.308074,16.7372129 296.280036,16.7372129 Z" id="Combined-Shape"></path>
        </g>
    </g>
</svg>
