<svg viewBox="0 0 19 20" version="1.1" xmlns="http://www.w3.org/2000/svg" xmlns:xlink="http://www.w3.org/1999/xlink">
    <defs></defs>
    <g id="Page-1" stroke-width="1" fill-rule="evenodd">
        <path d="M15.896378,17.947943 C15.5907461,19.1360438 14.511987,20.0142148 13.228408,20.0142148 C11.9448289,20.0142148 10.8659155,19.1360438 10.5604379,17.947943 L0.833422339,17.947943 C0.451156556,17.947943 0.142087486,17.6423111 0.142087486,17.2591858 C0.142087486,16.8786392 0.452897734,16.5704285 0.833422339,16.5704285 L10.5604379,16.5704285 C10.8660698,15.3823278 11.9448289,14.5041568 13.228408,14.5041568 C14.511987,14.5041568 15.5909004,15.3823278 15.896378,16.5704285 L17.3582625,16.5704285 C17.7405283,16.5704285 18.0495985,16.8760604 18.0495985,17.2591858 C18.0495985,17.6397324 17.7387871,17.947943 17.3582625,17.947943 L15.896378,17.947943 Z M2.29513052,9.68285607 C2.60076242,8.49475533 3.67952157,7.61658433 4.96310059,7.61658433 C6.24667962,7.61658433 7.32559305,8.49475533 7.63107067,9.68285607 L17.3580862,9.68285607 C17.740352,9.68285607 18.0494222,9.98848797 18.0494222,10.3716133 C18.0494222,10.75216 17.7386108,11.0603706 17.3580862,11.0603706 L7.63107067,11.0603706 C7.32543877,12.2484713 6.24667962,13.1266423 4.96310059,13.1266423 C3.67952157,13.1266423 2.60060813,12.2484713 2.29513052,11.0603706 L0.833246017,11.0603706 C0.450980234,11.0603706 0.141911164,10.7547387 0.141911164,10.3716133 C0.141911164,9.99106668 0.452721413,9.68285607 0.833246017,9.68285607 L2.29513052,9.68285607 Z M15.896378,4.17279809 C15.5907461,5.36089883 14.511987,6.23906983 13.228408,6.23906983 C11.9448289,6.23906983 10.8659155,5.36089883 10.5604379,4.17279809 L0.833422339,4.17279809 C0.451156556,4.17279809 0.142087486,3.8671662 0.142087486,3.48404084 C0.142087486,3.1034942 0.452897734,2.7952836 0.833422339,2.7952836 L10.5604379,2.7952836 C10.8660698,1.60718285 11.9448289,0.729011854 13.228408,0.729011854 C14.511987,0.729011854 15.5909004,1.60718285 15.896378,2.7952836 L17.3582625,2.7952836 C17.7405283,2.7952836 18.0495985,3.10091549 18.0495985,3.48404084 C18.0495985,3.86458749 17.7387871,4.17279809 17.3582625,4.17279809 L15.896378,4.17279809 Z M11.8508935,3.48404084 C11.8508935,4.24511209 12.4673367,4.86155534 13.228408,4.86155534 C13.9894792,4.86155534 14.6059225,4.24511209 14.6059225,3.48404084 C14.6059225,2.7229696 13.9894792,2.10652635 13.228408,2.10652635 C12.4673367,2.10652635 11.8508935,2.7229696 11.8508935,3.48404084 Z M6.34083549,10.3716133 C6.34083549,9.61054207 5.72439224,8.99409883 4.963321,8.99409883 C4.20224975,8.99409883 3.5858065,9.61054207 3.5858065,10.3716133 C3.5858065,11.1326846 4.20224975,11.7491278 4.963321,11.7491278 C5.72439224,11.7491278 6.34083549,11.1326846 6.34083549,10.3716133 Z M11.8508935,17.2591858 C11.8508935,18.020257 12.4673367,18.6367003 13.228408,18.6367003 C13.9894792,18.6367003 14.6059225,18.020257 14.6059225,17.2591858 C14.6059225,16.4981145 13.9894792,15.8816713 13.228408,15.8816713 C12.4673367,15.8816713 11.8508935,16.4981145 11.8508935,17.2591858 Z"></path>
    </g>
</svg>
