<svg viewBox="0 0 272 501" version="1.1" xmlns="http://www.w3.org/2000/svg" xmlns:xlink="http://www.w3.org/1999/xlink">
    <defs></defs>
    <g id="Page-1" stroke-width="1" fill-rule="evenodd">
        <g id="shampoo" fill-rule="nonzero">
            <path d="M133.826663,223.264284 C126.937603,233.217962 120.049063,243.677401 113.630326,254.131447 C109.646577,260.619685 105.968748,266.907362 102.660517,272.923057 C91.4414193,293.323893 85.1089036,309.532596 85.1089036,318.763838 C85.108903,337.080143 94.8805355,354.005108 110.742922,363.163261 C126.605308,372.321414 146.148573,372.321414 162.010959,363.163261 C177.873345,354.005108 187.644978,337.080143 187.644977,318.763838 C187.644977,309.532596 181.312461,293.323893 170.093364,272.923057 C166.785133,266.907362 163.107304,260.619685 159.123555,254.131447 C152.704818,243.677401 145.816277,233.217962 138.927218,223.264284 C138.032009,221.970839 137.180332,220.748198 136.37694,219.601494 C135.573548,220.748198 134.721872,221.970839 133.826663,223.264284 Z M170.209473,377.363503 C149.273829,389.450702 123.480052,389.450702 102.544408,377.363503 C81.6087643,365.276303 68.7118762,342.938236 68.7118769,318.763837 C68.7118769,305.86466 75.7774008,287.77975 88.292776,265.021759 C91.7343943,258.763512 95.5428011,252.252597 99.6570047,245.55189 C106.246576,234.819611 113.295508,224.116637 120.343921,213.932717 C124.576783,207.816854 127.877694,203.22089 129.783891,200.641917 C133.061088,196.208063 139.692793,196.208063 142.969989,200.641917 C144.876187,203.22089 148.177098,207.816854 152.40996,213.932717 C159.458373,224.116637 166.507305,234.819611 173.096876,245.55189 C177.211079,252.252597 181.019486,258.763512 184.461105,265.021759 C196.97648,287.77975 204.042004,305.86466 204.042004,318.763837 C204.042004,342.938236 191.145116,365.276303 170.209473,377.363503 Z M99.9755411,84.5049829 L172.77834,84.5049829 L172.77834,63.0795347 L99.9755411,63.0795347 L99.9755411,84.5049829 Z M91.7770278,46.682508 L180.976853,46.682508 C185.504767,46.682508 189.175366,50.3531075 189.175366,54.8810214 L189.175366,92.7034962 C189.175366,97.2314101 185.504767,100.90201 180.976853,100.90201 L91.7770278,100.90201 C87.2491139,100.90201 83.5785144,97.2314101 83.5785144,92.7034962 L83.5785144,54.8810214 C83.5785144,50.3531075 87.2491139,46.682508 91.7770278,46.682508 Z M17.3345267,156.433273 L17.3345267,433.652337 L255.419354,433.652337 L255.419354,156.433273 L17.3345267,156.433273 Z M9.13601334,140.036247 L263.617867,140.036247 C268.145781,140.036247 271.816381,143.706846 271.816381,148.23476 L271.816381,441.850851 C271.816381,446.378765 268.145781,450.049364 263.617867,450.049364 L9.13601334,450.049364 C4.60809945,450.049364 0.9375,446.378765 0.9375,441.850851 L0.9375,148.23476 C0.9375,143.706846 4.60809945,140.036247 9.13601334,140.036247 Z M201.418479,54.0065133 C201.418479,58.5344272 197.74788,62.2050266 193.219966,62.2050266 L79.5339145,62.2050266 C75.0060006,62.2050266 71.3354012,58.5344272 71.3354012,54.0065133 L71.3354012,29.5202868 C71.3354012,13.6424021 84.2069699,0.770833333 100.084855,0.770833333 L172.669026,0.770833333 C188.546911,0.770833333 201.418479,13.6424021 201.418479,29.5202868 L201.418479,54.0065133 Z M185.021453,29.5202868 C185.021453,22.6982298 179.491083,17.16786 172.669026,17.16786 L100.084855,17.16786 C93.2627977,17.16786 87.7324279,22.6982298 87.7324279,29.5202868 L87.7324279,45.8079999 L185.021453,45.8079999 L185.021453,29.5202868 Z M47.3957422,100.90201 C30.7933913,100.90201 17.3345267,114.360874 17.3345267,130.963225 L17.3345267,454.312591 C17.3345267,470.914942 30.7933913,484.373807 47.3957422,484.373807 L225.358138,484.373807 C241.960489,484.373807 255.419354,470.914942 255.419354,454.312591 L255.419354,130.963225 C255.419354,114.360874 241.960489,100.90201 225.358138,100.90201 L47.3957422,100.90201 Z M47.3957422,84.5049829 L225.358138,84.5049829 C251.016317,84.5049829 271.816381,105.305046 271.816381,130.963225 L271.816381,454.312591 C271.816381,479.97077 251.016317,500.770833 225.358138,500.770833 L47.3957422,500.770833 C21.7375635,500.770833 0.9375,479.97077 0.9375,454.312591 L0.9375,130.963225 C0.9375,105.305046 21.7375635,84.5049829 47.3957422,84.5049829 Z" id="Shape"></path>
        </g>
    </g>
</svg>
