<?xml version="1.0" encoding="UTF-8"?>
<svg viewBox="0 0 54 53" version="1.1" xmlns="http://www.w3.org/2000/svg" xmlns:xlink="http://www.w3.org/1999/xlink">
    <!-- Generator: Sketch 52.3 (67297) - http://www.bohemiancoding.com/sketch -->
    <title>share_sms</title>
    <desc>Created with Sketch.</desc>
    <g id="Page-1" stroke="none" stroke-width="1" fill="none" fill-rule="evenodd">
        <g id="SMS" transform="translate(0.333333, 0.000000)" fill="#FFA125">
            <path d="M26.5,53 C11.8644541,53 0,41.1355459 0,26.5 C0,11.8644541 11.8644541,0 26.5,0 C41.1355459,0 53,11.8644541 53,26.5 C53,41.1355459 41.1355459,53 26.5,53 Z M10,24.8615137 C10,29.8115942 12.9586207,34.2012882 17.4193103,35.9291465 L17.4193103,40.7391304 C17.4193103,41.4396135 17.9655172,42 18.6482759,42 C18.9668966,42 19.2855172,41.8599034 19.5131034,41.626409 L24.2924138,36.7230274 L31.3931034,36.7230274 C37.7655172,36.7230274 43,31.3993559 43,24.8615137 C43,18.3236715 37.8110345,13 31.4386207,13 L21.5613793,13 C15.1889655,13 10,18.3236715 10,24.8615137 Z M18.5527344,28.6044922 L19.0214844,27.4667969 C19.522789,27.8183611 20.0159481,27.9941406 20.5009766,27.9941406 C21.246423,27.9941406 21.6191406,27.7337266 21.6191406,27.2128906 C21.6191406,26.9687488 21.5312509,26.7360037 21.3554688,26.5146484 C21.1796866,26.2932932 20.8175483,26.045086 20.269043,25.7700195 C19.7205376,25.4949531 19.3510752,25.2687183 19.1606445,25.0913086 C18.9702139,24.9138989 18.823731,24.7031262 18.7211914,24.4589844 C18.6186518,24.2148425 18.5673828,23.9446629 18.5673828,23.6484375 C18.5673828,23.0950493 18.7700175,22.6360695 19.175293,22.2714844 C19.5805684,21.9068992 20.1005828,21.7246094 20.7353516,21.7246094 C21.5621786,21.7246094 22.1692689,21.8792302 22.5566406,22.1884766 L22.1708984,23.2822266 C21.7249327,22.9632146 21.2545598,22.8037109 20.7597656,22.8037109 C20.4667954,22.8037109 20.2397469,22.8810214 20.0786133,23.0356445 C19.9174797,23.1902677 19.8369141,23.3912748 19.8369141,23.6386719 C19.8369141,24.0488302 20.2910111,24.4752582 21.1992188,24.9179688 C21.6777368,25.1523449 22.0227854,25.3680003 22.234375,25.5649414 C22.4459646,25.7618825 22.6070958,25.9913724 22.7177734,26.253418 C22.8284511,26.5154635 22.8837891,26.8076156 22.8837891,27.1298828 C22.8837891,27.7093128 22.655113,28.186196 22.1977539,28.5605469 C21.7403948,28.9348977 21.127608,29.1220703 20.359375,29.1220703 C19.692054,29.1220703 19.0898464,28.949546 18.5527344,28.6044922 Z M30.6767578,29.0048828 L29.4462891,29.0048828 L28.7041016,25.1474609 L27.2636719,29.0976562 L26.8095703,29.0976562 L25.3691406,25.1474609 L24.5976562,29.0048828 L23.3720703,29.0048828 L24.8125,21.8466797 L25.4863281,21.8466797 L27.0341797,26.6660156 L28.5478516,21.8466797 L29.2167969,21.8466797 L30.6767578,29.0048828 Z M31.1162109,28.6044922 L31.5849609,27.4667969 C32.0862655,27.8183611 32.5794247,27.9941406 33.0644531,27.9941406 C33.8098996,27.9941406 34.1826172,27.7337266 34.1826172,27.2128906 C34.1826172,26.9687488 34.0947274,26.7360037 33.9189453,26.5146484 C33.7431632,26.2932932 33.3810249,26.045086 32.8325195,25.7700195 C32.2840142,25.4949531 31.9145517,25.2687183 31.7241211,25.0913086 C31.5336905,24.9138989 31.3872075,24.7031262 31.284668,24.4589844 C31.1821284,24.2148425 31.1308594,23.9446629 31.1308594,23.6484375 C31.1308594,23.0950493 31.3334941,22.6360695 31.7387695,22.2714844 C32.144045,21.9068992 32.6640593,21.7246094 33.2988281,21.7246094 C34.1256552,21.7246094 34.7327455,21.8792302 35.1201172,22.1884766 L34.734375,23.2822266 C34.2884092,22.9632146 33.8180363,22.8037109 33.3232422,22.8037109 C33.030272,22.8037109 32.8032235,22.8810214 32.6420898,23.0356445 C32.4809562,23.1902677 32.4003906,23.3912748 32.4003906,23.6386719 C32.4003906,24.0488302 32.8544876,24.4752582 33.7626953,24.9179688 C34.2412133,25.1523449 34.586262,25.3680003 34.7978516,25.5649414 C35.0094412,25.7618825 35.1705724,25.9913724 35.28125,26.253418 C35.3919276,26.5154635 35.4472656,26.8076156 35.4472656,27.1298828 C35.4472656,27.7093128 35.2185895,28.186196 34.7612305,28.5605469 C34.3038714,28.9348977 33.6910846,29.1220703 32.9228516,29.1220703 C32.2555305,29.1220703 31.653323,28.949546 31.1162109,28.6044922 Z" id="share_sms"></path>
        </g>
    </g>
</svg>
