<?xml version="1.0" encoding="UTF-8"?>
<svg viewBox="0 0 53 53" version="1.1" xmlns="http://www.w3.org/2000/svg" xmlns:xlink="http://www.w3.org/1999/xlink">
    <!-- Generator: Sketch 52.3 (67297) - http://www.bohemiancoding.com/sketch -->
    <title>share_whatsapp</title>
    <desc>Created with Sketch.</desc>
    <g id="Page-1" stroke="none" stroke-width="1" fill="none" fill-rule="evenodd">
        <g id="Whatsapp" fill="#52CC5D">
            <path d="M26.5,53 C11.8644541,53 0,41.1355459 0,26.5 C0,11.8644541 11.8644541,0 26.5,0 C41.1355459,0 53,11.8644541 53,26.5 C53,41.1355459 41.1355459,53 26.5,53 Z M41,25.6394222 C41,18.1064889 34.8471556,12 27.2544889,12 C19.6627556,12 13.5086667,18.1064889 13.5086667,25.6394222 C13.5086667,28.2163556 14.2295111,30.6268444 15.4811111,32.6820444 L13,40 L20.6100889,37.5817333 C22.5800444,38.6628444 24.8443111,39.2788444 27.2544889,39.2788444 C34.8465333,39.2788444 41,33.1723556 41,25.6394222 Z M27.2544889,14.1721778 C33.6269778,14.1721778 38.8113333,19.3170222 38.8113333,25.6400444 C38.8113333,31.9630667 33.6266667,37.1066667 27.2548,37.1066667 C24.9071556,37.1066667 22.7212889,36.4079111 20.8966222,35.2098222 L16.4555111,36.6213333 L17.8993778,32.3625333 C16.5158667,30.4722222 15.6979556,28.1485333 15.6979556,25.6394222 C15.6979556,19.3164 20.8816889,14.1721778 27.2544889,14.1721778 Z M34.1956889,28.7807111 C34.1107556,28.6416444 33.8864444,28.5576444 33.5498222,28.3905778 C33.2125778,28.2235111 31.5556,27.4143111 31.2476,27.3032444 C30.9386667,27.1918667 30.7134222,27.1358667 30.4891111,27.4703111 C30.2648,27.8050667 29.6189333,28.5576444 29.422,28.7807111 C29.2253778,29.0044 29.0290667,29.0324 28.6918222,28.8650222 C28.3552,28.6979556 27.2697333,28.3445333 25.9826667,27.2058667 C24.9812,26.3198222 24.3048444,25.2259556 24.1082222,24.8908889 C23.9119111,24.5564444 24.0876889,24.3756889 24.256,24.2092444 C24.4078222,24.0592889 24.5932444,23.8188 24.7615556,23.6237333 C24.9304889,23.4283556 24.9864889,23.2892889 25.0981778,23.0659111 C25.2111111,22.8428444 25.1548,22.6477778 25.0701778,22.4800889 C24.9861778,22.3130222 24.3116889,20.6678667 24.0310667,19.9983556 C23.7504444,19.3294667 22.8519556,19.4128444 22.6273333,19.4128444 C22.4027111,19.4128444 22.0374667,19.4965333 21.7285333,19.8309778 C21.4199111,20.1657333 20.5497333,20.9746222 20.5497333,22.6194667 C20.5497333,24.2646222 21.7565333,25.8540889 21.9254667,26.0768444 C22.0937778,26.2996 24.2556889,29.7852889 27.6810222,31.124 C31.1066667,32.4620889 31.1066667,32.0156444 31.7245333,31.9596444 C32.3417778,31.9039556 33.7175111,31.1510667 33.9993778,30.3708 C34.2793778,29.5892889 34.2793778,28.9200889 34.1956889,28.7807111 Z" id="share_whatsapp"></path>
        </g>
    </g>
</svg>
