<?xml version="1.0" encoding="UTF-8"?>
<svg viewBox="0 0 500 500" version="1.1" xmlns="http://www.w3.org/2000/svg" xmlns:xlink="http://www.w3.org/1999/xlink">
    <!-- Generator: Sketch 52.3 (67297) - http://www.bohemiancoding.com/sketch -->
    <title>Shape</title>
    <desc>Created with Sketch.</desc>
    <g id="Page-1" stroke="none" stroke-width="1" fill="none" fill-rule="evenodd">
        <path d="M414.0625,0 C366.785602,0 328.125,38.660625 328.125,85.9375 C328.125,94.1730703 329.355461,102.065312 331.542969,109.619141 L154.296875,198.242187 C138.569508,177.539828 113.797102,164.0625 85.9375,164.0625 C38.6606016,164.0625 0,202.722812 0,250 C0,297.276562 38.6606016,335.9375 85.9375,335.9375 C113.915297,335.9375 138.824922,322.365719 154.541016,301.513672 L331.542969,390.136719 C329.312602,397.758359 328.125,405.743641 328.125,414.0625 C328.125,461.339062 366.785602,500 414.0625,500 C461.339398,500 500,461.339062 500,414.0625 C500,366.785937 461.339398,328.125 414.0625,328.125 C386.202898,328.125 361.430492,341.602367 345.703125,362.304687 L168.457031,273.681641 C170.644539,266.127828 171.875,258.235516 171.875,250 C171.875,241.681031 170.687398,233.695922 168.457031,226.074219 L345.703125,137.695312 C361.430492,158.397609 386.202898,171.875 414.0625,171.875 C461.339398,171.875 500,133.214375 500,85.9375 C500,38.660625 461.339398,0 414.0625,0 Z M414.0625,31.25 C444.450648,31.25 468.75,55.549375 468.75,85.9375 C468.75,116.325625 444.450648,140.625 414.0625,140.625 C383.674352,140.625 359.375,116.325625 359.375,85.9375 C359.375,55.549375 383.674352,31.25 414.0625,31.25 Z M85.9375,195.3125 C116.325648,195.3125 140.625,219.611562 140.625,250 C140.625,280.3875 116.325648,304.6875 85.9375,304.6875 C55.5493516,304.6875 31.25,280.3875 31.25,250 C31.25,219.611562 55.5493516,195.3125 85.9375,195.3125 Z M414.0625,359.375 C444.450648,359.375 468.75,383.674219 468.75,414.0625 C468.75,444.450781 444.450648,468.75 414.0625,468.75 C383.674352,468.75 359.375,444.450781 359.375,414.0625 C359.375,383.674219 383.674352,359.375 414.0625,359.375 Z" id="Shape" fill="#000000" fill-rule="nonzero"></path>
    </g>
</svg>
