<?xml version="1.0" encoding="UTF-8"?>
<svg viewBox="0 0 54 53" version="1.1" xmlns="http://www.w3.org/2000/svg" xmlns:xlink="http://www.w3.org/1999/xlink">
    <!-- Generator: Sketch 52.3 (67297) - http://www.bohemiancoding.com/sketch -->
    <title>share_link</title>
    <desc>Created with Sketch.</desc>
    <g id="Page-1" stroke="none" stroke-width="1" fill="none" fill-rule="evenodd">
        <g id="Link" transform="translate(0.666667, 0.000000)" fill="#4E4E4E">
            <path d="M26.5,53 C11.8644541,53 0,41.1355459 0,26.5 C0,11.8644541 11.8644541,0 26.5,0 C41.1355459,0 53,11.8644541 53,26.5 C53,41.1355459 41.1355459,53 26.5,53 Z M27.6744809,25.1472095 C27.3904889,25.4330008 27.3904889,25.8913454 27.6744809,26.1771367 C28.8479571,27.358048 28.8479571,29.2777029 27.6744809,30.4586142 L21.5123912,36.6597466 C20.3389149,37.8406579 18.4313463,37.8406579 17.2578701,36.6597466 L16.3308774,35.7268806 C15.1574012,34.5459693 15.1574012,32.6263144 16.3308774,31.4454031 L22.4929672,25.2442707 C22.7769591,24.9584794 22.7769591,24.5001348 22.4929672,24.2143435 C22.2089752,23.9285522 21.7535164,23.9285522 21.4695244,24.2143435 L15.3074347,30.4154759 C14.4661755,31.2620652 14,32.3890537 14,33.5861418 C14,34.78323 14.4608171,35.9102184 15.3074347,36.7568078 L16.2344273,37.6896738 C17.1024782,38.5632246 18.2438044,39 19.3851306,39 C20.5264568,39 21.667783,38.5632246 22.5358339,37.6896738 L28.6979236,31.4885414 C30.4340255,29.7414397 30.4340255,26.8943111 28.6979236,25.1472095 C28.41929,24.8614182 27.9584729,24.8614182 27.6744809,25.1472095 Z M38.6974874,17.2429907 L37.7701843,16.3102085 C36.0335008,14.5632638 33.2033501,14.5632638 31.4666667,16.3102085 L25.3025126,22.5107836 C23.5658291,24.2577283 23.5658291,27.104601 25.3025126,28.8515457 C25.5865997,29.1373113 26.0422111,29.1373113 26.3262982,28.8515457 C26.6103853,28.56578 26.6103853,28.1074766 26.3262982,27.821711 C25.1524288,26.6409058 25.1524288,24.7214234 26.3262982,23.5406183 L32.4904523,17.3400431 C33.6643216,16.159238 35.5725293,16.159238 36.7463987,17.3400431 L37.6737018,18.2728253 C38.8475712,19.4536305 38.8475712,21.3731129 37.6737018,22.553918 L31.5095477,28.7544932 C31.2254606,29.0402588 31.2254606,29.4985622 31.5095477,29.7843278 C31.6489112,29.9245147 31.8365159,30 32.0187605,30 C32.201005,30 32.3886097,29.9299065 32.5279732,29.7843278 L38.6921273,23.5837527 C39.5336683,22.7372394 40,21.6103523 40,20.4133717 C40,19.2163911 39.5390285,18.089504 38.6974874,17.2429907 Z" id="share_link"></path>
        </g>
    </g>
</svg>
