<?xml version="1.0" encoding="UTF-8"?>
<svg viewBox="0 0 53 53" version="1.1" xmlns="http://www.w3.org/2000/svg" xmlns:xlink="http://www.w3.org/1999/xlink">
    <!-- Generator: Sketch 52.3 (67297) - http://www.bohemiancoding.com/sketch -->
    <title>share_messenger</title>
    <desc>Created with Sketch.</desc>
    <g id="Page-1" stroke="none" stroke-width="1" fill="none" fill-rule="evenodd">
        <g id="Messenger" fill="#1984FF">
            <path d="M26.5,53 C11.8644541,53 0,41.1355459 0,26.5 C0,11.8644541 11.8644541,0 26.5,0 C41.1355459,0 53,11.8644541 53,26.5 C53,41.1355459 41.1355459,53 26.5,53 Z M26.3526512,10.4697656 C17.3955355,10.4697656 10.4537708,17.0308529 10.4537708,25.8919996 C10.4537708,30.5273069 12.3539589,34.5324173 15.4473628,37.2995262 C15.7064794,37.533051 15.8632289,37.856147 15.8760248,38.2048347 L15.962397,41.0327241 C15.9911877,41.9348336 16.9220879,42.5202451 17.7474222,42.1587615 L20.9016065,40.7672096 C21.17032,40.6488477 21.4678242,40.6264549 21.7493335,40.7032302 C23.1984669,41.1031014 24.7435694,41.3142335 26.3526512,41.3142335 C35.309767,41.3142335 42.2515316,34.7531462 42.2515316,25.8919996 C42.2515316,17.0308529 35.309767,10.4697656 26.3526512,10.4697656 Z M16.806925,30.4025471 L21.4774211,22.9937328 C22.2195821,21.8165119 23.8126691,21.5222067 24.9259106,22.3571378 L28.6399147,25.1434406 C28.9822045,25.3993582 29.4492541,25.3961592 29.7883449,25.1402416 L34.8043297,21.3334674 C35.4729144,20.8248312 36.3494322,21.6277727 35.8983774,22.337944 L31.2310803,29.7435593 C30.4889193,30.9207802 28.8958323,31.2150855 27.7825908,30.3801543 L24.0685867,27.5938515 C23.7262969,27.3379339 23.2592473,27.3411329 22.9201565,27.5970505 L17.9009727,31.4070237 C17.232388,31.9156599 16.3558703,31.1127184 16.806925,30.4025471 Z" id="share_messenger"></path>
        </g>
    </g>
</svg>
