<svg viewBox="0 0 400 501" version="1.1" xmlns="http://www.w3.org/2000/svg" xmlns:xlink="http://www.w3.org/1999/xlink">
    <defs></defs>
    <g id="Page-1" stroke-width="1" fill-rule="evenodd">
        <g id="sheets" fill-rule="nonzero">
            <path d="M249.10658,58.8295039 C234.729016,58.8295039 223.073697,70.4848229 223.073697,84.8623876 L223.073697,98.7746979 C223.073697,113.152262 234.729016,124.807582 249.10658,124.807582 L290.843511,124.807582 C305.221076,124.807582 316.876395,113.152262 316.876395,98.7746979 L316.876395,84.8623876 C316.876395,70.4848229 305.221076,58.8295039 290.843511,58.8295039 L249.10658,58.8295039 Z M249.10658,43.0200604 L290.843511,43.0200604 C313.95239,43.0200604 332.685838,61.7535084 332.685838,84.8623876 L332.685838,98.7746979 C332.685838,121.883577 313.95239,140.617025 290.843511,140.617025 L249.10658,140.617025 C225.997701,140.617025 207.264253,121.883577 207.264253,98.7746979 L207.264253,84.8623876 C207.264253,61.7535084 225.997701,43.0200604 249.10658,43.0200604 Z M82.8966308,84.8623876 L82.8966308,98.7746979 C82.8966308,113.152262 94.5519498,124.807582 108.929514,124.807582 L148.769312,124.807582 C163.146877,124.807582 174.802196,113.152262 174.802196,98.7746979 L174.802196,84.8623876 C174.802196,70.4848229 163.146877,58.8295039 148.769312,58.8295039 L108.929514,58.8295039 C94.5519498,58.8295039 82.8966308,70.4848229 82.8966308,84.8623876 Z M108.929514,43.0200604 L148.769312,43.0200604 C171.878191,43.0200604 190.611639,61.7535084 190.611639,84.8623876 L190.611639,98.7746979 C190.611639,121.883577 171.878191,140.617025 148.769312,140.617025 L108.929514,140.617025 C85.8206352,140.617025 67.0871873,121.883577 67.0871873,98.7746979 L67.0871873,84.8623876 C67.0871873,61.7535084 85.8206352,43.0200604 108.929514,43.0200604 Z M10.9232122,253.250352 C6.75168063,254.537709 2.32637715,252.199624 1.03902023,248.028092 C-0.248336691,243.856561 2.08974882,239.431257 6.26128039,238.1439 C66.7800325,219.46749 109.582443,231.584586 199.327436,277.97207 C201.165936,278.92238 201.165936,278.92238 203.002779,279.871411 C289.330067,324.46259 331.427219,335.158041 388.377666,313.559057 C392.459614,312.01094 397.023683,314.065016 398.5718,318.146964 C400.119916,322.228912 398.06584,326.792981 393.983892,328.341098 C331.48068,352.04602 285.826623,340.446881 195.747372,293.917676 C193.907055,292.96685 193.907055,292.96685 192.068208,292.016361 C105.861952,247.457983 66.1352865,236.211611 10.9232122,253.250352 Z M10.9232122,182.845631 C6.75168063,184.132987 2.32637715,181.794902 1.03902023,177.62337 C-0.248336691,173.451839 2.08974882,169.026535 6.26128039,167.739178 C66.6946873,149.089106 109.459142,161.15556 199.069794,207.360733 C201.033607,208.373346 201.033607,208.373346 202.995516,209.384462 C289.180324,253.789237 331.380911,264.39176 388.349012,242.532888 C392.424922,240.968946 396.996926,243.005299 398.560868,247.08121 C400.124811,251.157121 398.088458,255.729125 394.012547,257.293067 C331.486917,281.284383 285.701091,269.781101 195.754635,223.438221 C193.788748,222.425055 193.788748,222.425055 191.824538,221.412237 C105.749058,177.029875 66.0582158,165.830674 10.9232122,182.845631 Z M37.9978112,170.233383 C37.9978112,174.59904 34.4587467,178.138104 30.0930895,178.138104 C25.7274322,178.138104 22.1883677,174.59904 22.1883677,170.233383 L22.1883677,50.2924044 C22.1883677,22.6432417 44.6024427,0.229166667 72.2516055,0.229166667 L327.52142,0.229166667 C355.170583,0.229166667 377.584658,22.6432417 377.584658,50.2924044 L377.584658,256.869133 C377.584658,261.23479 374.045593,264.773855 369.679936,264.773855 C365.314279,264.773855 361.775214,261.23479 361.775214,256.869133 L361.775214,50.2924044 C361.775214,31.3745562 346.439268,16.0386102 327.52142,16.0386102 L72.2516055,16.0386102 C53.3337573,16.0386102 37.9978112,31.3745562 37.9978112,50.2924044 L37.9978112,170.233383 Z M383.276057,249.912978 C383.276057,245.547321 386.815122,242.008256 391.180779,242.008256 C395.546436,242.008256 399.085501,245.547321 399.085501,249.912978 L399.085501,450.165929 C399.085501,477.815092 376.671426,500.229167 349.022263,500.229167 L50.7507623,500.229167 C23.1015996,500.229167 0.68752454,477.815092 0.68752454,450.165929 L0.68752454,175.292404 C0.68752454,170.926747 4.22658902,167.387683 8.59224629,167.387683 C12.9579036,167.387683 16.496968,170.926747 16.496968,175.292404 L16.496968,450.165929 C16.496968,469.083777 31.8329141,484.419723 50.7507623,484.419723 L349.022263,484.419723 C367.940111,484.419723 383.276057,469.083777 383.276057,450.165929 L383.276057,249.912978 Z" id="Rectangle-path"></path>
        </g>
    </g>
</svg>
