<svg id="Calque_1" data-name="Calque 1" xmlns="http://www.w3.org/2000/svg" viewBox="0 0 24 24"><defs></defs><path class="cls-1" d="M23.55,20.35H19.12a8.48,8.48,0,0,0,1.38-2.67.13.13,0,0,0,0-.06,8.23,8.23,0,0,0,.36-2.39.38.38,0,0,0-.38-.37H17.15v-2.5h1.39a.38.38,0,1,0,0-.75H15a.38.38,0,0,0,0,.75h1.4v2.5H12.33V9.66a2,2,0,1,1,4.07,0,.38.38,0,0,0,.75,0,2.79,2.79,0,1,0-5.57,0v5.2H7.44v-2.5h1.4a.38.38,0,0,0,0-.75H5.3a.38.38,0,1,0,0,.75H6.69v2.5H3.42a.38.38,0,0,0-.38.37,8.36,8.36,0,0,0,1.75,5.12H.45a.38.38,0,1,0,0,.75h5a9.07,9.07,0,0,0,13.05,0h5.07a.38.38,0,1,0,0-.75Zm-3.44-4.74a7.73,7.73,0,0,1-.24,1.54H4a7.73,7.73,0,0,1-.24-1.54ZM12,23.12A8.17,8.17,0,0,1,4.27,17.9H19.63A8.15,8.15,0,0,1,12,23.12Z"/><path class="cls-1" d="M1.57,6.46a.15.15,0,0,0,.13-.08L2.82,4.55h0L4,6.38a.14.14,0,0,0,.13.08H5a.14.14,0,0,0,.13-.23L3.47,3.59,5.08,1.08A.14.14,0,0,0,4.94.86H4a.17.17,0,0,0-.13.07l-1,1.7h0l-1-1.7A.15.15,0,0,0,1.69.86H.76a.14.14,0,0,0-.14.22l1.6,2.51L.56,6.23a.15.15,0,0,0,.14.23Z"/><path class="cls-1" d="M6.46,6.46H9.71a.16.16,0,0,0,.16-.16V5.73a.16.16,0,0,0-.16-.15H8v0C8.38,5,9,4.24,9.35,3.75A2.22,2.22,0,0,0,9.9,2.42,1.66,1.66,0,0,0,8.06.78a2.3,2.3,0,0,0-1.62.81.15.15,0,0,0,0,.21l.4.39a.13.13,0,0,0,.22,0A1.39,1.39,0,0,1,8,1.72a.77.77,0,0,1,.87.74,1.57,1.57,0,0,1-.41.91c-.53.7-1.52,2-2.08,2.66a.35.35,0,0,0-.06.19V6.3A.16.16,0,0,0,6.46,6.46Z"/></svg>
