<svg viewBox="0 0 499 579" version="1.1" xmlns="http://www.w3.org/2000/svg" xmlns:xlink="http://www.w3.org/1999/xlink">
    <defs></defs>
    <g id="Page-1" stroke-width="1" fill-rule="evenodd">
        <path d="M439.128152,326.81976 C447.315203,326.81976 453.98067,333.602239 453.98067,341.938348 C453.98067,350.289114 447.315203,357.078921 439.128152,357.078921 L15.4590874,357.078921 C7.26843991,357.078921 0.606569411,350.289114 0.606569411,341.938348 C0.606569411,333.602239 7.26843991,326.81976 15.4590874,326.81976 L439.128152,326.81976 Z M483.907649,0.171425904 C492.094699,0.171425904 498.756569,6.95390425 498.756569,15.2900135 C498.756569,23.6407797 492.094699,30.4305865 483.907649,30.4305865 L281.598296,30.4305865 C259.227792,30.4305865 241.026354,48.9678949 241.026354,71.7557031 L241.026354,121.325323 L243.44362,121.464564 C351.098296,127.792678 435.425634,196.863298 435.425634,278.711066 C435.425634,287.05084 428.760167,293.833318 420.573116,293.833318 L34.0119651,293.833318 C25.8249147,293.833318 19.1594471,287.05084 19.1594471,278.711066 C19.1594471,197.698741 102.511965,128.668428 208.91844,121.559834 L211.31772,121.394944 L211.31772,71.7557031 C211.31772,32.2810195 242.846497,0.171425904 281.598296,0.171425904 L483.907649,0.171425904 Z M50.6810298,260.448574 L50.0515334,263.574157 L404.533548,263.574157 L403.904051,260.448574 C391.386066,198.112798 315.458008,151.104471 227.296138,151.104471 C139.13067,151.104471 63.1990155,198.112798 50.6810298,260.448574 Z M93.7551306,397.789181 C104.690382,397.789181 113.586066,406.847142 113.586066,417.979054 C113.586066,429.121959 104.690382,438.187249 93.7551306,438.187249 C82.8198788,438.187249 73.9241953,429.121959 73.9241953,417.979054 C73.9241953,406.847142 82.8198788,397.789181 93.7551306,397.789181 Z M93.7551306,467.906669 C104.690382,467.906669 113.586066,476.971959 113.586066,488.114864 C113.586066,499.246776 104.690382,508.304737 93.7551306,508.304737 C82.8198788,508.304737 73.9241953,499.246776 73.9241953,488.114864 C73.9241953,476.971959 82.8198788,467.906669 93.7551306,467.906669 Z M93.7551306,538.033318 C104.690382,538.033318 113.586066,547.094944 113.586066,558.234184 C113.586066,569.388081 104.690382,578.4607 93.7551306,578.4607 C82.8198788,578.4607 73.9241953,569.388081 73.9241953,558.234184 C73.9241953,547.094944 82.8198788,538.033318 93.7551306,538.033318 Z M360.823836,397.789181 C371.75549,397.789181 380.651174,406.847142 380.651174,417.979054 C380.651174,429.121959 371.75549,438.187249 360.823836,438.187249 C349.888584,438.187249 340.9929,429.121959 340.9929,417.979054 C340.9929,406.847142 349.888584,397.789181 360.823836,397.789181 Z M360.823836,467.906669 C371.75549,467.906669 380.651174,476.971959 380.651174,488.114864 C380.651174,499.246776 371.75549,508.304737 360.823836,508.304737 C349.888584,508.304737 340.9929,499.246776 340.9929,488.114864 C340.9929,476.971959 349.888584,467.906669 360.823836,467.906669 Z M360.823836,538.033318 C371.75549,538.033318 380.651174,547.094944 380.651174,558.234184 C380.651174,569.388081 371.75549,578.4607 360.823836,578.4607 C349.888584,578.4607 340.9929,569.388081 340.9929,558.234184 C340.9929,547.094944 349.888584,538.033318 360.823836,538.033318 Z M271.802253,397.789181 C282.733908,397.789181 291.629591,406.847142 291.629591,417.979054 C291.629591,429.121959 282.733908,438.187249 271.802253,438.187249 C260.867001,438.187249 251.971318,429.121959 251.971318,417.979054 C251.971318,406.847142 260.867001,397.789181 271.802253,397.789181 Z M271.802253,467.906669 C282.733908,467.906669 291.629591,476.971959 291.629591,488.114864 C291.629591,499.246776 282.733908,508.304737 271.802253,508.304737 C260.867001,508.304737 251.971318,499.246776 251.971318,488.114864 C251.971318,476.971959 260.867001,467.906669 271.802253,467.906669 Z M271.802253,538.033318 C282.733908,538.033318 291.629591,547.094944 291.629591,558.234184 C291.629591,569.388081 282.733908,578.4607 271.802253,578.4607 C260.867001,578.4607 251.971318,569.388081 251.971318,558.234184 C251.971318,547.094944 260.867001,538.033318 271.802253,538.033318 Z M182.773476,397.789181 C193.708728,397.789181 202.604411,406.847142 202.604411,417.979054 C202.604411,429.121959 193.708728,438.187249 182.773476,438.187249 C171.841821,438.187249 162.946138,429.121959 162.946138,417.979054 C162.946138,406.847142 171.841821,397.789181 182.773476,397.789181 Z M182.773476,467.906669 C193.708728,467.906669 202.604411,476.971959 202.604411,488.114864 C202.604411,499.246776 193.708728,508.304737 182.773476,508.304737 C171.841821,508.304737 162.946138,499.246776 162.946138,488.114864 C162.946138,476.971959 171.841821,467.906669 182.773476,467.906669 Z M182.773476,538.033318 C193.708728,538.033318 202.604411,547.094944 202.604411,558.234184 C202.604411,569.388081 193.708728,578.4607 182.773476,578.4607 C171.841821,578.4607 162.946138,569.388081 162.946138,558.234184 C162.946138,547.094944 171.841821,538.033318 182.773476,538.033318 Z" id="shower" transform="translate(249.681569, 289.316063) scale(-1, 1) translate(-249.681569, -289.316063) "></path>
    </g>
</svg>
