<svg id="Calque_1" data-name="Calque 1" xmlns="http://www.w3.org/2000/svg" viewBox="0 0 24 24"><defs></defs><path class="cls-1" d="M23.46,13.82a1.38,1.38,0,0,0-1.38-1.38h-.37V5.24a.37.37,0,0,0-.37-.37H13a.38.38,0,0,0-.38.37v7.2h-.37a1.37,1.37,0,0,0-.42,2.68A5.35,5.35,0,0,0,14,19.2v4.4a.38.38,0,0,0,.37.38h5.51a.38.38,0,0,0,.38-.38V19.2a5.34,5.34,0,0,0,2.2-4.08A1.37,1.37,0,0,0,23.46,13.82ZM13.37,5.62H21v6.82H13.37Zm6.18,17.61H14.79V19.64a5.23,5.23,0,0,0,2,.55v1.62a.38.38,0,0,0,.38.37.37.37,0,0,0,.37-.37V20.19a5.22,5.22,0,0,0,2-.55Zm-2.38-3.75a4.61,4.61,0,0,1-4.58-4.29h9.16A4.61,4.61,0,0,1,17.17,19.48Zm4.91-5H12.25a.63.63,0,0,1,0-1.25h9.83a.63.63,0,1,1,0,1.25Z"/><path class="cls-1" d="M6.39,6V3.15A2.38,2.38,0,0,0,4,.77H.62a.38.38,0,0,0-.38.38.37.37,0,0,0,.38.37H4A1.63,1.63,0,0,1,5.64,3.15V6A4.83,4.83,0,0,0,1.49,9.7a.37.37,0,0,0,.06.32.36.36,0,0,0,.3.15h8.34a.37.37,0,0,0,.3-.15.37.37,0,0,0,.06-.32A4.84,4.84,0,0,0,6.39,6Zm-4,3.38A4,4,0,0,1,6,6.76,4,4,0,0,1,9.67,9.42Z"/><path class="cls-1" d="M3.61,11.16a.38.38,0,0,0-.38.38V13A.38.38,0,1,0,4,13V11.54A.38.38,0,0,0,3.61,11.16Z"/><path class="cls-1" d="M6,11.16a.38.38,0,0,0-.38.38V13a.38.38,0,0,0,.38.38A.37.37,0,0,0,6.39,13V11.54A.37.37,0,0,0,6,11.16Z"/><path class="cls-1" d="M8.48,11.16a.37.37,0,0,0-.37.38V13a.37.37,0,0,0,.37.38A.38.38,0,0,0,8.86,13V11.54A.38.38,0,0,0,8.48,11.16Z"/><path class="cls-1" d="M3.61,14.35a.38.38,0,0,0-.38.38v1.45a.38.38,0,1,0,.75,0V14.73A.38.38,0,0,0,3.61,14.35Z"/><path class="cls-1" d="M6,14.35a.38.38,0,0,0-.38.38v1.45a.38.38,0,0,0,.38.38.37.37,0,0,0,.37-.38V14.73A.37.37,0,0,0,6,14.35Z"/><path class="cls-1" d="M8.48,14.35a.37.37,0,0,0-.37.38v1.45a.37.37,0,0,0,.37.38.38.38,0,0,0,.38-.38V14.73A.38.38,0,0,0,8.48,14.35Z"/></svg>
