<svg id="Calque_1" data-name="Calque 1" xmlns="http://www.w3.org/2000/svg" viewBox="0 0 24 24"><defs></defs><path class="cls-1" d="M12,.12a.38.38,0,0,0-.38.38v23a.38.38,0,0,0,.76,0V.5A.38.38,0,0,0,12,.12Z"/><path class="cls-1" d="M6.19,7.77V4.88A2.38,2.38,0,0,0,3.82,2.5H.42A.38.38,0,0,0,0,2.88a.37.37,0,0,0,.38.37h3.4A1.63,1.63,0,0,1,5.44,4.88V7.77a4.83,4.83,0,0,0-4.15,3.66.37.37,0,0,0,.06.32.36.36,0,0,0,.3.15H10a.38.38,0,0,0,.3-.15.37.37,0,0,0,.06-.32A4.84,4.84,0,0,0,6.19,7.77Zm-4,3.38A4,4,0,0,1,5.82,8.49a4,4,0,0,1,3.65,2.66Z"/><path class="cls-1" d="M3.41,12.89a.38.38,0,0,0-.38.38v1.45a.38.38,0,1,0,.75,0V13.27A.38.38,0,0,0,3.41,12.89Z"/><path class="cls-1" d="M5.82,12.89a.38.38,0,0,0-.38.38v1.45a.38.38,0,0,0,.38.38.37.37,0,0,0,.37-.38V13.27A.37.37,0,0,0,5.82,12.89Z"/><path class="cls-1" d="M8.28,12.89a.37.37,0,0,0-.37.38v1.45a.37.37,0,0,0,.37.38.38.38,0,0,0,.38-.38V13.27A.38.38,0,0,0,8.28,12.89Z"/><path class="cls-1" d="M3.41,16.08a.38.38,0,0,0-.38.38v1.45a.38.38,0,1,0,.75,0V16.46A.38.38,0,0,0,3.41,16.08Z"/><path class="cls-1" d="M5.82,16.08a.38.38,0,0,0-.38.38v1.45a.38.38,0,0,0,.38.38.37.37,0,0,0,.37-.38V16.46A.37.37,0,0,0,5.82,16.08Z"/><path class="cls-1" d="M8.28,16.08a.37.37,0,0,0-.37.38v1.45a.37.37,0,0,0,.37.38.38.38,0,0,0,.38-.38V16.46A.38.38,0,0,0,8.28,16.08Z"/><path class="cls-1" d="M24,13.07a.38.38,0,0,0-.38-.38H15.23a.82.82,0,0,1,0-1.64H23.6a.38.38,0,1,0,0-.75H15.23A1.57,1.57,0,0,0,15,13.41c.36,1.53.6,2.44.89,3.38l.09.29a2.06,2.06,0,0,0,1.64,1.78v1.9a.38.38,0,0,0,.37.38h1.47a.38.38,0,0,0,.34-.22L20.65,19h3a.37.37,0,0,0,.38-.37.38.38,0,0,0-.38-.38H18.91c-1.87,0-2-.54-2.24-1.35l-.09-.32c-.27-.89-.5-1.74-.83-3.13H23.6A.38.38,0,0,0,24,13.07ZM19.83,19l-.64,1.4h-.85V19l.57,0Z"/><path class="cls-1" d="M17.66,8.49A1.48,1.48,0,1,0,16.18,7,1.48,1.48,0,0,0,17.66,8.49Zm0-2.21a.73.73,0,1,1-.73.73A.73.73,0,0,1,17.66,6.28Z"/><path class="cls-1" d="M21.33,5.44a1.77,1.77,0,1,0-1.77-1.77A1.78,1.78,0,0,0,21.33,5.44Zm0-2.79a1,1,0,1,1-1,1A1,1,0,0,1,21.33,2.65Z"/></svg>
