<svg id="Calque_1" data-name="Calque 1" xmlns="http://www.w3.org/2000/svg" viewBox="0 0 24 24"><defs></defs><path class="cls-1" d="M23.59,17.63a8.58,8.58,0,0,0,.35-2.39.37.37,0,0,0-.38-.37H20.22v-2.5h1.4A.38.38,0,0,0,22,12a.37.37,0,0,0-.37-.37H18.08a.37.37,0,0,0-.38.37.38.38,0,0,0,.38.38h1.39v2.5H15.4V9.66a2,2,0,0,1,4.07,0,.38.38,0,1,0,.75,0,2.79,2.79,0,0,0-5.57,0v5.21H11v-2.5h1.39a.38.38,0,0,0,.38-.38.37.37,0,0,0-.38-.37H8.84a.36.36,0,0,0-.37.37.37.37,0,0,0,.37.38h1.4v2.5H6.49a.37.37,0,0,0-.38.37,8.44,8.44,0,0,0,1.75,5.12H.41a.36.36,0,0,0-.37.37.37.37,0,0,0,.37.38H8.5A9,9,0,0,0,15,23.88a8.9,8.9,0,0,0,8.54-6.19S23.58,17.65,23.59,17.63Zm-.41-2a7.85,7.85,0,0,1-.24,1.54H7.11a7.85,7.85,0,0,1-.24-1.54ZM15,23.13a8.15,8.15,0,0,1-7.68-5.22H22.71A8.17,8.17,0,0,1,15,23.13Z"/><path class="cls-1" d="M.43,7.06H8.77a.38.38,0,0,0,.3-.15.39.39,0,0,0,.06-.33A4.85,4.85,0,0,0,5,2.92V.43A.36.36,0,0,0,4.6.06a.37.37,0,0,0-.38.37V2.92A4.84,4.84,0,0,0,.07,6.58a.39.39,0,0,0,.06.33A.38.38,0,0,0,.43,7.06ZM4.6,3.64A4,4,0,0,1,8.25,6.31H1A4,4,0,0,1,4.6,3.64Z"/><path class="cls-1" d="M2.56,8.42a.38.38,0,1,0-.75,0V9.87a.38.38,0,1,0,.75,0Z"/><path class="cls-1" d="M5,8.42A.37.37,0,0,0,4.6,8a.38.38,0,0,0-.38.38V9.87a.38.38,0,0,0,.38.38A.37.37,0,0,0,5,9.87Z"/><path class="cls-1" d="M7.44,8.42a.38.38,0,1,0-.75,0V9.87a.38.38,0,1,0,.75,0Z"/><path class="cls-1" d="M2.19,11.24a.38.38,0,0,0-.38.37v1.46a.38.38,0,0,0,.75,0V11.61A.38.38,0,0,0,2.19,11.24Z"/><path class="cls-1" d="M4.6,11.24a.38.38,0,0,0-.38.37v1.46a.38.38,0,0,0,.38.37A.37.37,0,0,0,5,13.07V11.61A.37.37,0,0,0,4.6,11.24Z"/><path class="cls-1" d="M7.06,11.24a.38.38,0,0,0-.37.37v1.46a.38.38,0,0,0,.75,0V11.61A.38.38,0,0,0,7.06,11.24Z"/></svg>
