<?xml version="1.0" encoding="utf-8"?>
<!-- Generator: Adobe Illustrator 23.0.3, SVG Export Plug-In . SVG Version: 6.00 Build 0)  -->
<svg version="1.1" id="Calque_1" xmlns="http://www.w3.org/2000/svg" xmlns:xlink="http://www.w3.org/1999/xlink" x="0px" y="0px"
	 viewBox="0 0 128 128" style="enable-background:new 0 0 128 128;" xml:space="preserve">
<style type="text/css">
	.st0{fill:#005589;}
</style>
<title>WIP/Icons/Equipments/Chalet/Shuttle bus</title>
<desc>Created with Sketch.</desc>
<g>
	<path id="Combined-Shape" class="st0" d="M17.6,114.8H6.8c-3.2,0-5.8-2.6-5.8-5.8V50.7c0-3.2,2.6-5.8,5.8-5.8h114.3
		c3.2,0,5.8,2.6,5.8,5.8V109c0,3.2-2.6,5.8-5.8,5.8h-10.7c-1.2,6.8-7.2,12.1-14.4,12.1c-7.2,0-13.2-5.2-14.4-12.1H46.3
		c-1.2,6.8-7.2,12.1-14.4,12.1S18.8,121.7,17.6,114.8z M17.4,110.7c0.8-7.3,7-13,14.5-13s13.7,5.7,14.5,13l35.2,0
		c0.8-7.3,7-13,14.5-13c7.5,0,13.7,5.7,14.5,13l10.6,0c1,0,1.8-0.8,1.8-1.8V78.7H5.1V109c0,1,0.8,1.8,1.8,1.8L17.4,110.7
		c-0.1,0.5-0.1,1-0.1,1.6L17.4,110.7z M46.5,112.3c0,0.9-0.1,1.7-0.2,2.5L46.5,112.3z M31.9,122.8c5.8,0,10.5-4.7,10.5-10.5
		c0-5.8-4.7-10.5-10.5-10.5s-10.5,4.7-10.5,10.5C21.4,118.1,26.1,122.8,31.9,122.8z M96.1,122.8c5.8,0,10.5-4.7,10.5-10.5
		c0-5.8-4.7-10.5-10.5-10.5c-5.8,0-10.5,4.7-10.5,10.5C85.6,118.1,90.3,122.8,96.1,122.8z M84.9,48.9H42.4v25.8h42.6V48.9z M89,48.9
		v25.8h33.9v-24c0-1-0.8-1.8-1.8-1.8H89z M38.3,48.9H6.8c-1,0-1.8,0.8-1.8,1.8v24h33.2V48.9z M26.3,14.3h24c1.1,0,2,0.9,2,2
		c0,1.1-0.9,2-2,2h-24l5,8.6c0.6,1,0.2,2.2-0.7,2.8c-1,0.6-2.2,0.2-2.8-0.7L21,17.4c-0.2-0.3-0.3-0.7-0.3-1c0-0.4,0.1-0.7,0.3-1
		l6.7-11.6c0.6-1,1.8-1.3,2.8-0.7c1,0.6,1.3,1.8,0.7,2.8L26.3,14.3z M101.7,18.4h-24c-1.1,0-2-0.9-2-2c0-1.1,0.9-2,2-2h24l-5-8.6
		c-0.6-1-0.2-2.2,0.7-2.8c1-0.6,2.2-0.2,2.8,0.7l6.7,11.6c0.2,0.3,0.3,0.7,0.3,1c0,0.4-0.1,0.7-0.3,1L100.3,29
		c-0.6,1-1.8,1.3-2.8,0.7c-1-0.6-1.3-1.8-0.7-2.8L101.7,18.4z"/>
</g>
</svg>
