<svg xmlns="http://www.w3.org/2000/svg" viewBox="0 0 500 310.2"><g><path d="M373.7 168.2h3.3v15.4h-3.3zM392.8 168.2h3.3v15.4h-3.3zM406 310.1v-79.3h-22v79.3h3.8v-75.4h4v75.4c4.7.1 9.4 0 14.2 0z"/><path d="M254.4 206.6l-16-13h100.7v22.3h25v-22.3h97.1c-11.6-22.8-22.8-36.1-31.6-37.7.6 5.3 2.9 26.4 3.5 32.1H359v22.5h-14l.1-22.5h-72.5c.5-5.8 2.3-28.7 2.6-32.7h93.4c-27.7-17.4-75.1-51-97.6-63.3-37.6-20.6-57.3-10.2-75.9 21.9-18.6 32.1-21.4 26.5-28.6 18.3-10.4-11.9-15.8 4.4-23 19.2-6 12.2-11.6 31.9-28.2 34.7-6.9 1.2-10.5-9.3-17-12.3C78.3 164.2 16.7 278.2 0 310c48-.2 101.2-13.3 122.9-38.2 13.7-15.7 8-38.3-.9-47.2-20.8-20.8-50.1-6.4-49.6 15.3.4 15.7 13 25.1 25.9 19.6 2.4-1 4.2-2.8 5.5-4.9.3-.5 1-1.6 1.4-3.2.5-1.6.7-3.6.4-5.6-.4-4-2.7-7.5-2.9-7.7-1.1-1.5-.1-2.4 1-2.1.9.2 2.3 1.4 3.6 3.4 1.3 2 2.4 4.8 2.6 7.8.3 3-.4 6-1.5 8.3-1 2.2-2.3 3.6-2.8 4.1-2.2 2.4-5 4.1-8 5.2-14.6 5.4-32.3-6.4-30.9-27.1 1.9-27.5 38.3-40.1 60.1-17 18.2 19.4 11.9 51.5-9.9 64.4 53.7-21.1 89.2-44.5 119.6-21.1-27.2-5-39.7 37.8 9 39.2 2.5-26.1 6.8-74.2 8.9-96.6z"/><path d="M383.3 168.2h3.3v15.4h-3.3zM462.3 195.6l-13.4 10.9c2.2 24.5 7.2 79.8 9.4 103.6 15.9 0 30.3 0 41.7-.1-10.9-48.6-24.5-87.7-37.7-114.4zM364.2 168.2h3.3v15.4h-3.3zM375.5 92.8s-17.6-19-45.1-9.3c33.6 10 48.4 28.1 54.5 39.2-1.5 3.1-2.4 4.9-2.4 8.9 0 6.5 3.5 10.5 5.8 12.4.6 3.7 1 7.5 1.4 11.2h16.4c-.1-3.6-.2-7.3-.3-11.2 2.5-2.6 5.8-5.9 5.8-12.4 0-3.6-.7-5-1.9-7.9 6.9-10.8 23.4-25.9 59.3-26.3-23.7-16.9-50.4-4.6-50.4-4.6C429.3 66.6 473 55 473 55c-14.6-5.7-30.3-2.1-43.6 3.6 8.3-18.3 31.4-24.1 31.4-24.1-18.3-7.1-34.2 5-34.2 5 9.5-14.9 27.6-20.9 27.6-20.9-32-4.6-44.2 16.8-47.1 23.6.2-17.8 9.2-42.2 9.2-42.2-1.9 1.4-27.7 20.1-31.1 59.5-8.2-12.6-15.4-25.3-25.3-41.8 0 0-1.9 24.2 9.1 44.2-13.3-5.7-33.2-12.7-47.8-7-.1 0 43.5 11.7 54.3 37.9zM402.3 168.2h3.3v15.4h-3.3zM319.3 310.1v-79.3h-22v79.3c1.5.1 3-.1 4.5 0v-75.4h4v75.4c4.4.2 8.9-.1 13.5 0zM307.2 168.2h3.3v15.4h-3.3zM316.7 168.2h3.3v15.4h-3.3zM297.7 168.2h3.3v15.4h-3.3zM344.3 234.8h4v75.4h14.5v-79.3H340.5v79.3h3.7v-75.4zM335.7 168.2h3.3v15.4h-3.3zM345.2 168.2h3.3v15.4h-3.3zM354.7 168.2h3.3v15.4h-3.3zM326.2 168.2h3.3v15.4h-3.3z"/></g></svg>
