<svg viewBox="0 0 377 488" version="1.1" xmlns="http://www.w3.org/2000/svg" xmlns:xlink="http://www.w3.org/1999/xlink">
    <defs></defs>
    <g id="Page-1" stroke-width="1" fill-rule="evenodd">
        <g id="single-room" transform="translate(-7.000000, -6.003706)" fill-rule="nonzero">
            <path d="M315.078125,6.328125 L75.546875,6.328125 C37.7981746,6.37106991 7.1954366,36.9388733 7.109375,74.6875 L7.109375,425.3125 C7.1954366,463.061127 37.7981746,493.62893 75.546875,493.671875 L117.1875,493.671875 C123.659587,493.671875 128.90625,488.425212 128.90625,481.953125 C128.90625,475.481038 123.659587,470.234375 117.1875,470.234375 L75.546875,470.234375 C50.724539,470.234412 30.5899693,450.134799 30.546875,425.3125 L30.546875,74.6875 C30.5899693,49.8652014 50.724539,29.7655876 75.546875,29.765625 L315.078125,29.765625 C339.900461,29.7655876 360.035031,49.8652014 360.078125,74.6875 L360.078125,425.3125 C360.035031,450.134799 339.900461,470.234412 315.078125,470.234375 L273.828125,470.234375 C267.356038,470.234375 262.109375,475.481038 262.109375,481.953125 C262.109375,488.425212 267.356038,493.671875 273.828125,493.671875 L315.078125,493.671875 C352.826825,493.62893 383.429563,463.061127 383.515625,425.3125 L383.515625,74.6875 C383.429563,36.9388733 352.826825,6.37106991 315.078125,6.328125 Z" id="Shape"></path>
        </g>
    </g>
</svg>
