<?xml version="1.0" encoding="UTF-8"?>
<svg viewBox="0 0 45 43" version="1.1" xmlns="http://www.w3.org/2000/svg" xmlns:xlink="http://www.w3.org/1999/xlink">
    <!-- Generator: Sketch 53.2 (72643) - https://sketchapp.com -->
    <title>Sink</title>
    <desc>Created with Sketch.</desc>
    <g id="Icons---Kids" stroke="none" stroke-width="1" fill="none" fill-rule="evenodd">
        <g id="Icons/Kids_icons_board" transform="translate(-24.000000, -231.000000)" fill="#005589" fill-rule="nonzero">
            <g id="Icons" transform="translate(16.000000, 104.000000)">
                <g id="Assets/Icons/Equipments/Bathroom/Sink" transform="translate(0.000000, 118.000000)">
                    <path d="M52.1166573,35.7351029 C52.6940735,33.7761612 52.9914674,31.7453854 52.9999999,29.7031343 C53.000092,29.4510346 52.8982508,29.2096076 52.7176286,29.0337385 C52.5370063,28.8578695 52.2929499,28.7625014 52.0409422,28.7693149 L43.6113292,28.7693149 L43.6113292,22.4597244 L47.1446999,22.4597244 C47.6646712,22.4599045 48.0900742,22.0456962 48.1037577,21.525905 C48.1037577,21.0101708 47.6856725,20.5920856 47.1699383,20.5920856 L38.2103197,20.5920856 C37.9583119,20.5852721 37.7142555,20.6806401 37.5336332,20.8565092 C37.353011,21.0323782 37.2511698,21.2738052 37.2512619,21.525905 C37.2512619,22.055578 37.6806467,22.4849627 38.2103197,22.4849627 L41.718452,22.4849627 L41.718452,28.7945533 L31.4464386,28.7945533 L31.4464386,15.6201282 C31.4464386,12.78359 33.7459071,10.4841215 36.5824453,10.4841215 C39.4189835,10.4841215 41.718452,12.78359 41.718452,15.6201282 C41.6570086,15.9951428 41.822785,16.3710655 42.1411247,16.5786013 C42.4594644,16.786137 42.8703168,16.786137 43.1886565,16.5786013 C43.5069962,16.3710655 43.6727726,15.9951428 43.6113292,15.6201282 C43.3884035,11.9015425 40.3077071,9 36.5824453,9 C32.8571835,9 29.7764871,11.9015425 29.5535614,15.6201282 L29.5535614,28.7693149 L20.3415592,28.7693149 L20.3415592,22.4597244 L23.8496915,22.4597244 C24.3793645,22.4597244 24.8087493,22.0303396 24.8087493,21.5006666 C24.8088414,21.2485668 24.7070002,21.0071398 24.526378,20.8312708 C24.3457557,20.6554018 24.1016993,20.5600337 23.8496915,20.5668472 L14.890073,20.5668472 C14.6403171,20.5598076 14.3986843,20.6559295 14.2220101,20.8326037 C14.0453359,21.009278 13.9492139,21.2509107 13.9562536,21.5006666 C13.94944,21.7526743 14.0448081,21.9967308 14.2206771,22.177353 C14.3965462,22.3579753 14.6379732,22.4598165 14.890073,22.4597244 L18.4234437,22.4597244 L18.4234437,28.7693149 L8.95905783,28.7693149 C8.70705011,28.7625014 8.46299366,28.8578695 8.28237141,29.0337385 C8.10174916,29.2096076 7.99990797,29.4510346 8.00000006,29.7031343 C8.01422555,34.378467 9.56625406,38.919259 12.4167135,42.6251758 L14.0319686,44.518053 C18.3186719,48.9872077 24.2442344,51.5124089 30.4369041,51.5090793 C40.2656755,51.5781629 48.9978286,45.2488856 51.9904654,35.8865331 C51.9904654,35.8865331 52.0914189,35.7855796 52.1166573,35.7351029 Z M51.0818844,30.6874305 C51.0094112,31.9998855 50.8065044,33.3018704 50.4761637,34.5741383 L10.5238363,34.5741383 C10.1934956,33.3018704 9.99058882,31.9998855 9.91811559,30.6874305 L51.0818844,30.6874305 Z M30.4369041,49.6162022 C21.8612154,49.6948749 14.1366498,44.4445842 11.0538419,36.4417771 L49.8956814,36.4417771 C46.7911731,44.4612205 39.0357572,49.7119691 30.4369041,49.6162022 Z" id="Sink"></path>
                </g>
            </g>
        </g>
    </g>
</svg>
