<?xml version="1.0" encoding="UTF-8"?>
<svg viewBox="0 0 345 501" version="1.1" xmlns="http://www.w3.org/2000/svg" xmlns:xlink="http://www.w3.org/1999/xlink">
    <!-- Generator: Sketch 52.3 (67297) - http://www.bohemiancoding.com/sketch -->
    <title>Picto/Duration</title>
    <desc>Created with Sketch.</desc>
    <g id="Page-1" stroke="none" stroke-width="1" fill="none" fill-rule="evenodd">
        <g id="07-icon/Size" fill-rule="nonzero" transform="translate(-93.034478, 0.426234)">
            <path d="M397.657451,368.570759 C385.03987,377.082712 371.5606,399.087016 368.695766,429.336941 C366.754169,449.908382 352.883223,468.285252 332.532827,475.449567 C318.639499,480.339413 305.46238,479.258107 294.008638,474.980824 C294.003043,474.975498 294.003043,474.975498 294.003043,474.970171 C303.520783,465.408872 316.815405,452.369285 316.921718,426.615034 C317.050411,397.632846 347.131172,368.570759 377.575633,368.570759 L397.657451,368.570759 Z M116.142709,21.3171688 L236.55528,21.3171688 L236.55528,426.29011 C236.55528,446.755018 245.362407,465.307666 259.580267,478.682831 L171.190054,478.682831 C141.965387,478.682831 118.224191,456.827673 116.484028,429.427494 L187.1201,429.427494 L187.1201,407.481783 L116.142709,407.481783 L116.142709,371.479098 L142.698381,371.479098 L142.698381,349.533387 L116.142709,349.533387 L116.142709,313.541356 L142.357063,313.541356 L142.357063,291.595645 L116.142709,291.595645 L116.142709,255.571654 L187.461418,255.571654 L187.461418,233.631269 L116.142709,233.631269 L116.142709,197.639238 L142.357063,197.639238 L142.357063,175.6882 L116.142709,175.6882 L116.142709,139.685516 L142.698381,139.685516 L142.698381,117.750458 L116.142709,117.750458 L116.142709,81.76908 L187.1201,81.76908 L187.1201,59.8286956 L116.142709,59.8286956 L116.142709,21.3171688 Z M426.574373,352.574892 L370.782842,352.574892 C328.078905,352.574892 294.747228,385.946222 294.534604,426.593727 C294.450673,443.55904 286.863338,451.165466 278.084187,459.965057 C277.01547,461.03571 276.002706,462.117015 274.973156,463.182341 C265.080525,453.700942 258.953584,440.677334 258.953584,426.29011 L258.953584,26.6331444 C258.953584,11.9209954 246.431125,0 230.976686,0 L121.726898,0 C106.27246,0 93.75,11.9209954 93.75,26.6331444 L93.75,426.29011 C93.75,467.001534 128.413377,500 171.173268,500 L313.995334,500 C356.67689,500 396.32575,474.069971 396.32575,426.130311 C396.32575,397.568927 418.942275,383.053863 433.786817,370.685431 C441.334984,364.405335 436.595698,352.574892 426.574373,352.574892 Z" id="Fill-1" fill="#005589"></path>
        </g>
    </g>
</svg>
