<svg id="Calque_1" data-name="Calque 1" xmlns="http://www.w3.org/2000/svg" viewBox="0 0 100 100"><defs></defs><title>View of the Ski Resort</title><path class="cls-1" d="M32.81,62.68v-23a6.08,6.08,0,0,0-6.07-6.07H19.19V21.71L87.89,6A1.5,1.5,0,1,0,87.22,3L3.8,22.16a1.5,1.5,0,0,0,.33,3,1.32,1.32,0,0,0,.34,0L16.19,22.4V33.57H8.64a6.07,6.07,0,0,0-6.07,6.07v23a6.07,6.07,0,0,0,6.07,6.07h18.1A6.08,6.08,0,0,0,32.81,62.68Zm-3-23v11H19.19v-14h7.55A3.08,3.08,0,0,1,29.81,39.64ZM8.64,36.57h7.55v14H5.57v-11A3.08,3.08,0,0,1,8.64,36.57ZM5.57,62.68V53.61H29.81v9.07a3.08,3.08,0,0,1-3.07,3.07H8.64A3.08,3.08,0,0,1,5.57,62.68Z"/><path class="cls-1" d="M97,86,76.08,65.07l3.38-3.38L88.6,69.5a1.49,1.49,0,0,0,1.78.12l5.87-3.79a1.5,1.5,0,0,0-1.63-2.52L89.7,66.49l-8.12-6.93L96.49,44.65a1.5,1.5,0,1,0-2.12-2.12L74,63,60.39,49.38a1.5,1.5,0,0,0-1.13-.44,1.48,1.48,0,0,0-1.08.54L20.4,94.53a1.5,1.5,0,1,0,2.3,1.93L37.23,79.13,48.51,89.38a1.46,1.46,0,0,0,1,.39,1.5,1.5,0,0,0,1.06-.43l11-11,6.62,6.63a1.55,1.55,0,0,0,2.12,0L81,74.26,94.87,88.1a1.49,1.49,0,0,0,1.06.44A1.5,1.5,0,0,0,97,86ZM69.3,81.73l-6.62-6.62a1.5,1.5,0,0,0-2.12,0L49.47,86.2,39.16,76.83,59.43,52.66,72.9,66.13l6,6Z"/></svg>
