<?xml version="1.0" encoding="UTF-8"?>
<svg viewBox="0 0 469 501" version="1.1" xmlns="http://www.w3.org/2000/svg" xmlns:xlink="http://www.w3.org/1999/xlink">
    <g id="Page-1" stroke="none" stroke-width="1" fill="none" fill-rule="evenodd">
        <path d="M15.1064402,210.068445 C14.7937232,210.086977 14.4850676,210.09439 14.1764119,210.09439 C6.74024666,210.09439 0.489969063,204.823989 0.00261798388,197.959865 C-0.505039391,190.810355 5.43658252,184.643022 13.2707511,184.17973 L29.2193152,183.238323 L28.1796329,171.070441 C27.5663828,163.928343 33.418657,157.686884 41.2447031,157.130934 C49.0382591,156.545334 55.9099093,161.908393 56.5190982,169.054198 L57.5872093,181.563061 L359.838288,163.713376 C367.664334,163.23526 374.434452,168.672446 374.94211,175.821956 C375.449767,182.971467 369.508145,189.142506 361.673977,189.605798 L59.7965342,207.429539 L60.9783606,221.231911 C61.5875494,228.374009 55.7393365,234.619175 47.9132904,235.171419 C47.5355933,235.201069 47.1619575,235.212188 46.7923829,235.212188 C39.4415041,235.212188 33.2155941,230.04927 32.634834,223.248155 L31.4286401,209.1048 L15.1064402,210.068445 Z M348.545286,53.2254891 C344.65855,70.3940838 355.019091,87.7205599 371.649086,91.8416704 C374.015458,92.4327137 376.426787,92.7282354 378.817681,92.7282354 C392.819736,92.7282354 404.835511,82.8424282 408.051978,68.6857256 C411.955061,51.5090344 401.594521,34.1825583 384.960439,30.0573996 C382.594067,29.4704045 380.182738,29.1748828 377.791844,29.1748828 C363.789789,29.1748828 351.76584,39.0647382 348.545286,53.2254891 Z M248.650878,157.087188 C245.070667,157.087188 241.48637,155.763413 238.711298,153.103718 C233.030371,147.666929 232.875065,138.696024 238.367991,133.073016 L278.428746,92.0157448 C278.616748,91.8214292 278.812924,91.6311618 279.0091,91.4489909 C290.759219,80.7049564 305.860677,75.0778999 320.884482,74.6528344 C318.755156,65.8195702 318.50585,56.4074073 320.635176,47.0114374 C326.814717,19.8193953 350.319043,0.83718815 377.791844,0.83718815 C382.524588,0.83718815 387.27368,1.42013501 391.904249,2.56983576 C423.480396,10.3950877 443.245119,42.8457963 435.962088,74.9038255 C429.798895,102.083723 406.298656,121.06593 378.821768,121.06593 L378.813594,121.06593 C374.084937,121.06593 369.339932,120.482983 364.701189,119.333282 C359.020262,117.920446 353.731686,115.689865 348.896768,112.827757 C346.726572,112.33792 344.625855,111.398728 342.811227,109.868492 C331.1265,100.011023 311.002121,101.023083 298.687996,112.026205 L258.933765,152.763666 C256.134171,155.637917 252.390481,157.087188 248.650878,157.087188 Z M467.826269,480.649005 C470.505426,487.122837 466.973457,494.366938 459.944565,496.831795 C451.217837,499.887788 438.815057,500.837188 426.790006,500.837188 C408.962713,500.837188 391.964868,498.755674 388.989759,498.368748 C387.728063,498.207529 386.489732,497.885092 385.321495,497.405018 L180.658098,413.409993 C180.642522,413.402828 180.626945,413.399245 180.611369,413.39208 L23.6782308,348.986937 C16.8051046,346.167399 13.7170654,338.751331 16.7817399,332.427969 C19.8503084,326.104608 27.9072479,323.256408 34.7803742,326.083112 L164.902478,379.485963 L271.971377,311.086175 L212.959844,241.647422 C208.321944,236.191059 209.369463,228.312831 215.300212,224.045905 C221.227066,219.77898 229.79803,220.746293 234.432036,226.202656 L302.329956,306.091973 C302.411733,306.188705 302.458462,306.296184 302.536345,306.392915 C302.614227,306.493229 302.715474,306.564882 302.785569,306.665196 C302.980275,306.919564 303.097098,307.195427 303.264546,307.45696 C303.505981,307.829554 303.751311,308.194984 303.942123,308.581909 C304.132935,308.958086 304.269229,309.341429 304.413312,309.728354 C304.561288,310.11528 304.713159,310.498622 304.818301,310.896295 C304.923442,311.297551 304.97796,311.698807 305.036371,312.107228 C305.098677,312.497736 305.160983,312.891827 305.180454,313.285917 C305.19603,313.694338 305.168772,314.095594 305.145407,314.504015 C305.122042,314.898106 305.102571,315.292196 305.036371,315.686287 C304.974065,316.080377 304.861136,316.467303 304.755995,316.85781 C304.650853,317.248318 304.549606,317.635244 304.401629,318.015004 C304.253653,318.394764 304.066735,318.753028 303.879817,319.118457 C303.696793,319.483887 303.517664,319.849316 303.28791,320.200415 C303.058157,320.555096 302.789463,320.884699 302.520768,321.221468 C302.259862,321.543905 302.010638,321.873508 301.710791,322.178033 C301.403155,322.493305 301.044896,322.779917 300.698319,323.07011 C300.452989,323.270738 300.254389,323.50361 299.985694,323.69349 C299.872765,323.779473 299.740365,323.833213 299.623541,323.915614 C299.530082,323.976519 299.463882,324.055337 299.362635,324.116242 L194.085032,391.376749 C208.508862,397.177045 229.315159,401.046298 246.383098,386.375382 C246.710204,386.092353 247.052887,385.827238 247.403358,385.580036 L335.317068,323.671994 C340.776628,318.828263 343.732267,312.848835 343.416843,307.195427 C343.14036,302.380357 340.585816,298.149258 336.014116,294.960707 C335.982963,294.935629 335.959598,294.903385 335.924551,294.878306 C335.68701,294.713505 335.48841,294.498546 335.26255,294.312249 C334.721267,293.875167 334.207243,293.423754 333.763313,292.929349 C333.697113,292.857697 333.619231,292.80754 333.556925,292.735887 L288.252703,239.891928 C283.587545,234.453478 284.600016,226.568085 290.511294,222.279663 C296.426466,217.994824 305.001324,218.922728 309.654801,224.361178 L354.156833,276.270067 C364.117998,283.872432 369.982547,294.294336 370.636759,305.894928 C371.376643,319.064718 365.1772,332.331238 353.619444,342.290981 C353.440314,342.441452 353.241714,342.545348 353.05869,342.688654 C352.891243,342.817629 352.762737,342.971683 352.587502,343.093493 L264.475191,405.137674 C259.915174,408.985431 255.078674,412.019928 250.07862,414.445376 L394.636237,473.766751 C411.143422,475.730038 439.239516,477.249078 450.236518,473.397739 C457.273197,470.929299 465.147113,474.175172 467.826269,480.649005 Z" id="Combined-Shape" fill="#005589"></path>
    </g>
</svg>
