<svg version="1.1"
   xmlns="http://www.w3.org/2000/svg" xmlns:xlink="http://www.w3.org/1999/xlink"
   x="0px" y="0px" viewBox="0 0 500 326.3" style="enable-background:new 0 0 500 326.3;"
   xml:space="preserve">
<defs>
</defs>
<g>
  <g>
    <path class="st0" d="M488.9,304H11.1C5,304,0,309,0,315.1c0,6.1,5,11.1,11.1,11.1h477.7c6.1,0,11.1-5,11.1-11.1
      C500,309,495,304,488.9,304z"/>
    <path class="st0" d="M41.7,288.3h162c6.1,0,11.1-5,11.1-11.1c0-6.1-5-11.1-11.1-11.1h-67.7l-61.1-82c-3.7-4.9-10.6-5.9-15.6-2.3
      c-4.9,3.7-5.9,10.6-2.3,15.6l51.2,68.7H41.7c-6.1,0-11.1,5-11.1,11.1C30.5,283.4,35.5,288.3,41.7,288.3z"/>
    <path class="st0" d="M420.5,249h17.4c4.7,0,8.5,3.8,8.5,8.5c0,4.7-3.8,8.5-8.5,8.5l-125.6,0h0c-6.1,0-11.1,5-11.1,11.1
      c0,6.1,5,11.1,11.1,11.1l125.6,0c17,0,30.8-13.8,30.8-30.8c0-17-13.8-30.8-30.8-30.8h-17.4c-6.1,0-11.1,5-11.1,11.1
      C409.3,244.1,414.3,249,420.5,249z"/>
    <path class="st0" d="M163.6,249h204.6c20,0,32.7-11.2,34.6-30.6c2.6-25.6-9.6-42.6-35.3-49.3c-8.2-2.1-86.5-23.2-89.3-24
      c-12.2-3.4-14.5-8-14.5-14.8V45.7c0-4.9-3.2-9.3-7.9-10.7L140,0.5c-3.4-1-7-0.4-9.8,1.7c-2.8,2.1-4.5,5.4-4.5,8.9l0,201.2
      C125.7,234.6,140.6,249,163.6,249z M147.9,26.1l93.5,27.9v31.8h-52.9c-6.1,0-11.1,5-11.1,11.1c0,6.1,5,11.1,11.1,11.1h52.9v22.3
      c0,3.2,0.3,6.2,1,9l-39,39c-4.3,4.3-4.3,11.4,0,15.7c2.2,2.2,5,3.3,7.9,3.3c2.8,0,5.7-1.1,7.9-3.3l35.6-35.6
      c4.6,3.5,10.4,6.2,17.4,8.2c2.4,0.7,14.2,3.9,28.6,7.8v26.9c0,6.1,5,11.1,11.1,11.1c6.1,0,11.1-5,11.1-11.1v-20.9
      c16.6,4.4,32.3,8.7,38.8,10.3c17.2,4.5,20,13.5,18.8,25.6c-0.7,7-2.8,10.6-12.5,10.6H163.6c-10.7,0-15.7-4.6-15.7-14.5L147.9,26.1
      z"/>
  </g>
</g>
</svg>
