<?xml version="1.0" encoding="UTF-8"?>
<svg viewBox="0 0 145 161" version="1.1" xmlns="http://www.w3.org/2000/svg" xmlns:xlink="http://www.w3.org/1999/xlink">
    <g id="Page-1" stroke="none" stroke-width="1" fill="none" fill-rule="evenodd">
        <g id="local-Ski" fill="#005589" fill-rule="nonzero">
            <path d="M3,97.5 C1.24344979e-14,112.8 -2.1,126.8 4.5,130.7 C5,131 5.6,131.2 6.3,131.2 L71.1,131.3 C71.1,131.3 71.1,131.3 71.1,131.3 C72.3,131.3 73.4,130.7 74,129.7 C77.2,124.6 78.3,120.3 77.3,116.5 C76.1,111.7 71.9,108.9 67.6,106.5 C67.9,105.3 68,104.5 68,104.5 L63,102 C62.8,102 62.4,102.7 62,103.8 C60.6,103.2 59.1,102.6 57.5,102 C58,100.6 58.2,99.6 57.8,99.5 C56.6,99.2 53.1,97.9 53.1,97.9 C53.1,97.9 52.2,98.6 51.2,99.6 C48.4,98.6 45.5,97.6 43,96.8 C43.2,94.7 43.8,91.1 44.4,87.9 C46.1,87.9 47.4,87.5 47.8,86.6 C49,84.1 47.8,77.6 47.8,77.6 C47.8,77.6 47.2,77.5 46.2,77.4 C46.3,77 46.3,76.5 46.4,76.1 C46.8,73.3 47.4,71.2 47.8,69.6 C48.8,66.1 49.9,62.1 44.3,59.3 C43,58.7 41.6,58.4 40.1,58.4 C36.4,58.4 32.9,60.2 30.9,61.4 C27.1,60.6 17.5,58.6 11.6,58.6 C9.3,58.6 6.8,58.8 5.3,60.5 C4.6,61.3 2.3,63.9 1.5,87.2 C1.5,88.3 1.8,89.3 2.6,90 C3,90.3 3.5,90.6 4,90.7 C4,91.1 4,91.6 3.9,92.4 C3.8,93.6 3.4,95.4 3,97.5 Z M7.2,115.2 C7.6,109.7 8.9,103.4 9.7,98.8 C10.1,96.5 10.5,94.7 10.7,93.5 C11.1,90.1 10.6,87.6 9.2,85.9 C9,85.7 8.8,85.4 8.5,85.2 C8.9,77.2 9.6,68.5 10.4,65.5 C10.7,65.5 11.1,65.5 11.6,65.5 C17.5,65.5 28.8,67.9 30.7,68.4 C31.7,68.7 32.8,68.5 33.6,67.9 C34.5,67.2 37.7,65.3 40.1,65.3 C40.6,65.3 41,65.4 41.3,65.5 C41.5,65.6 41.6,65.7 41.7,65.7 C41.6,66.2 41.4,67.1 41.2,67.8 C40.7,69.5 40.1,71.9 39.6,75.2 C39.5,75.7 39.4,76.2 39.4,76.7 C36.7,76.5 34.3,76.6 34.2,77.4 C33.9,79.3 31.4,85.8 35.4,86.7 C36.1,86.9 36.8,87 37.6,87.2 C35.6,98.9 35.3,101.4 38.6,102.7 C38.8,102.8 39.4,103 40.3,103.3 C41.8,103.8 44.3,104.6 47.2,105.7 C47,106.8 47.3,107.8 48.6,108.4 C53.6,110.9 52.3,113.4 53.6,110.9 C53.9,110.3 54.3,109.5 54.8,108.5 C56.5,109.2 58.2,109.8 59.7,110.5 C59.1,112.3 58.6,113.8 58.6,114.1 C58.6,115 62.9,117.8 64.2,118.1 C64.7,118.2 65.4,116.2 66.1,113.7 C68.8,115.3 70.5,116.7 70.9,118.4 C71.3,119.9 70.8,122 69.4,124.6 L8,124.5 C7.4,123.5 6.7,121.1 7.2,115.2 Z M114.8,84.8 C113.6,81.8 115.7,78.4 117.4,76.2 C117.2,68.8 115.9,34.2 115.1,21 C114.3,6.7 123,1.2 127.8,0.3 C128.1,0.2 128.3,0.2 128.5,0.2 L130.3,0.2 C130.6,0.2 130.8,0.3 131,0.3 C135.8,1.2 144.6,6.8 143.7,21 C143,34.2 141.7,68.7 141.4,76.2 C143.3,78.4 145.4,81.8 144.2,84.8 C143.8,85.9 142.9,87.1 141,87.7 L140.7,99.9 C142,101.3 143.6,103.5 143.3,106.3 C143.1,107.7 142.4,109.5 140.2,111.1 C140.4,118.4 140.8,144.1 142.4,156.2 C142.6,157.2 142.3,158.2 141.6,158.9 C140.9,159.7 140,160.1 139,160.1 L120,160.1 C119,160.1 118.1,159.6 117.4,158.9 C116.8,158.2 116.5,157.2 116.6,156.2 C118.2,144.2 118.7,118.5 118.8,111.1 C116.6,109.5 115.9,107.7 115.7,106.3 C115.4,103.5 117,101.3 118.3,99.9 L118,87.7 C116.1,87.1 115.2,85.9 114.8,84.8 Z M129.1,7.1 C127.6,7.5 121.5,9.9 122.2,20.6 C123.1,35.5 124.6,77 124.6,77.4 C124.6,78.4 124.3,79.3 123.6,80 C123.2,80.4 122.8,80.9 122.4,81.4 C122.9,81.6 123.4,81.8 123.8,82.2 C124.5,82.8 124.9,83.7 124.9,84.6 L125.4,101.3 C125.4,102.4 124.9,103.4 124,104.1 C123.5,104.4 123,105 122.8,105.4 C123,105.5 123.3,105.7 123.8,105.9 C125,106.5 125.8,107.7 125.8,109.1 C125.8,110.3 125.5,137.5 124,153.2 L135.2,153.2 C133.7,137.5 133.4,110.3 133.4,109.1 C133.3,107.7 134.1,106.5 135.4,105.9 C135.9,105.7 136.2,105.5 136.4,105.4 C136.2,105 135.7,104.5 135.2,104.1 C134.3,103.5 133.8,102.4 133.8,101.3 L134.3,84.6 C134.3,83.7 134.7,82.8 135.4,82.2 C135.8,81.8 136.3,81.5 136.8,81.4 C136.4,80.9 136,80.4 135.6,80 C134.9,79.3 134.6,78.4 134.6,77.4 C134.6,77 136.1,35.5 137,20.6 C137.6,10 131.6,7.5 130.1,7.1 L129.1,7.1 Z M81.9,84.8 C80.6,81.8 82.7,78.4 84.4,76.2 C84.2,68.8 82.9,34.2 82.1,21 C81.3,6.7 90,1.2 94.8,0.3 C95.1,0.2 95.3,0.2 95.5,0.2 L97.3,0.2 C97.6,0.2 97.8,0.3 98,0.3 C102.8,1.2 111.6,6.8 110.7,21 C110,34.2 108.7,68.7 108.4,76.2 C110.3,78.4 112.4,81.8 111.2,84.8 C110.8,85.9 109.9,87.1 108,87.7 L107.7,99.9 C109,101.3 110.6,103.5 110.3,106.3 C110.1,107.7 109.4,109.5 107.2,111.1 C107.4,118.4 107.8,144.1 109.4,156.2 C109.6,157.2 109.3,158.2 108.6,158.9 C107.9,159.7 107,160.1 106,160.1 L87.1,160.1 C86.1,160.1 85.2,159.6 84.5,158.9 C83.9,158.2 83.6,157.2 83.7,156.2 C85.3,144.2 85.8,118.5 85.9,111.1 C83.7,109.5 83,107.7 82.8,106.3 C82.5,103.5 84.1,101.3 85.4,99.9 L85.1,87.7 C83.2,87.1 82.3,85.9 81.9,84.8 Z M96.1,7.1 C94.6,7.5 88.6,9.9 89.2,20.6 C90.1,35.5 91.6,77 91.6,77.4 C91.6,78.4 91.3,79.3 90.6,80 C90.2,80.4 89.8,80.9 89.4,81.4 C89.9,81.6 90.4,81.8 90.8,82.2 C91.5,82.8 91.9,83.7 91.9,84.6 L92.4,101.3 C92.4,102.4 91.9,103.4 91,104.1 C90.5,104.4 90,105 89.8,105.4 C90,105.5 90.3,105.7 90.8,105.9 C92,106.5 92.8,107.7 92.8,109.1 C92.8,110.3 92.5,137.5 91,153.2 L102.2,153.2 C100.7,137.5 100.4,110.3 100.4,109.1 C100.3,107.7 101.1,106.5 102.4,105.9 C102.9,105.7 103.2,105.5 103.4,105.4 C103.2,105 102.7,104.5 102.2,104.1 C101.3,103.5 100.8,102.4 100.8,101.3 L101.3,84.6 C101.3,83.7 101.7,82.8 102.4,82.2 C102.8,81.8 103.3,81.5 103.8,81.4 C103.4,80.9 103,80.4 102.6,80 C101.9,79.3 101.6,78.4 101.6,77.4 C101.6,77 103.1,35.5 104,20.6 C104.6,10 98.6,7.5 97.1,7.1 L96.1,7.1 Z M74.5,131.6 C76.4,131.6 77.9,133.2 77.9,135 C77.9,136.9 76.4,138.4 74.5,138.4 L3.9,138.4 C2,138.4 0.5,136.9 0.5,135 C0.5,133.1 2,131.6 3.9,131.6 L74.5,131.6 Z" id="Shape"></path>
        </g>
    </g>
</svg>
