<svg viewBox="0 0 474 501" version="1.1" xmlns="http://www.w3.org/2000/svg" xmlns:xlink="http://www.w3.org/1999/xlink">
    <defs></defs>
    <g id="Page-1" stroke-width="1" fill-rule="evenodd">
        <g id="skilocker" fill-rule="nonzero">
            <path d="M265.421502,212.826419 L265.421502,405.884987 L456.961632,405.884987 L456.961632,212.826419 L265.421502,212.826419 Z M302.080938,196.557439 L302.080938,139.616007 C302.080938,106.610703 328.837023,79.8546186 361.842326,79.8546186 C394.84763,79.8546186 421.603715,106.610703 421.603715,139.616007 L421.603715,196.557439 L465.096123,196.557439 C469.588677,196.557439 473.230613,200.199374 473.230613,204.691929 L473.230613,414.019478 C473.230613,418.512032 469.588677,422.153968 465.096123,422.153968 L257.287012,422.153968 C252.794457,422.153968 249.152522,418.512032 249.152522,414.019478 L249.152522,204.691929 C249.152522,200.199374 252.794457,196.557439 257.287012,196.557439 L302.080938,196.557439 Z M318.349919,196.557439 L405.334734,196.557439 L405.334734,139.616007 C405.334734,115.595813 385.86252,96.1235991 361.842326,96.1235991 C337.822133,96.1235991 318.349919,115.595813 318.349919,139.616007 L318.349919,196.557439 Z M386.462717,300.795862 L386.462717,351.546593 C386.462717,365.503463 375.148438,376.817742 361.191567,376.817742 C347.234697,376.817742 335.920418,365.503463 335.920418,351.546593 L335.920418,300.013174 C324.542484,289.298665 321.133701,272.317561 327.911719,257.882784 C335.303402,242.141119 352.76287,233.787306 369.658249,237.908368 C386.498967,242.016096 398.130375,257.384174 397.525559,274.692615 C397.499932,284.582129 393.471608,293.977993 386.462717,300.795862 Z M381.25666,274.556513 L381.262984,274.218955 C381.643945,264.576436 375.178185,256.000723 365.803005,253.713962 C356.427824,251.427201 346.739632,256.062699 342.638016,264.797689 C338.5364,273.532678 341.157282,283.948045 348.904686,289.701394 C350.971162,291.235993 352.189398,293.658089 352.189398,296.232059 L352.189398,351.546593 C352.189398,356.518353 356.219806,360.548762 361.191567,360.548762 C366.163328,360.548762 370.193736,356.518353 370.193736,351.546593 L370.193736,297.099738 C370.193736,294.577746 371.363516,292.198392 373.360616,290.65825 C378.351447,286.80937 381.269388,280.85906 381.25666,274.556513 Z M143.621068,314.344857 C139.128513,314.344857 135.486578,310.702922 135.486578,306.210367 C135.486578,301.717812 139.128513,298.075877 143.621068,298.075877 L191.560331,298.075877 C196.052886,298.075877 199.694821,301.717812 199.694821,306.210367 C199.694821,310.702922 196.052886,314.344857 191.560331,314.344857 L143.621068,314.344857 Z M139.065754,238.422948 C134.573199,238.422948 130.931264,234.781013 130.931264,230.288458 C130.931264,225.795903 134.573199,222.153968 139.065754,222.153968 L195.247966,222.153968 C199.740521,222.153968 203.382457,225.795903 203.382457,230.288458 C203.382457,234.781013 199.740521,238.422948 195.247966,238.422948 L139.065754,238.422948 Z M189.974946,467.333899 C189.781739,457.841375 189.781739,457.841375 189.508033,444.322151 C189.02502,420.425718 188.542006,396.264861 188.091188,373.344301 C188.023303,369.890861 188.023303,369.890861 187.955506,366.433326 C186.744174,304.618222 186.028877,265.044799 186.030295,257.685387 L190.367272,25.5162238 C190.367272,22.4540206 179.54844,17.1648138 164.662283,17.1648138 C149.739476,17.1648138 138.740374,22.4947752 138.72819,25.0711659 C138.808172,26.5308671 138.808172,26.5308671 139.167091,33.2196123 C139.515967,39.7596443 139.904687,47.1652617 140.323293,55.2893217 C141.519283,78.5003913 142.715269,102.818771 143.831596,127.067858 C144.466415,140.857547 145.057767,154.249707 145.597389,167.122395 C146.969467,199.853371 147.965864,228.211741 148.499518,250.921656 C149.03492,273.706016 148.589015,302.049344 147.325624,334.718826 C146.454208,357.252405 145.219721,381.172658 143.715614,405.744027 C142.621739,423.613769 141.449802,440.786825 140.277764,456.646613 C139.574205,466.167042 139.026588,473.138523 138.740374,476.275443 C138.740374,479.250565 149.883953,484.626853 164.662283,484.626853 C178.412127,484.626853 188.874729,479.984771 190.220537,476.913349 C190.119852,474.436866 190.119852,474.436866 189.974946,467.333899 Z M206.636253,476.275443 C206.636253,491.465985 187.262201,500.895833 164.662283,500.895833 C142.016042,500.895833 122.471394,491.466398 122.498898,475.607081 C122.808985,471.845842 123.353025,464.919897 124.053027,455.447606 C125.220257,439.65286 126.387588,422.547314 127.477029,404.750001 C128.974142,380.292887 130.202486,356.491672 131.068795,334.090143 C132.320263,301.728974 132.761257,273.697849 132.235027,251.30385 C131.704092,228.709599 130.710936,200.443503 129.342684,167.80379 C128.804039,154.954406 128.213662,141.584331 127.579827,127.816021 C126.464979,103.599042 125.270421,79.3096914 124.075867,56.1264983 C123.657783,48.0125664 123.269576,40.6167317 122.921209,34.0862427 C122.562965,27.4100757 122.562965,27.4100757 122.471394,25.5162238 C122.471394,10.2992136 141.876551,0.895833333 164.662283,0.895833333 C187.401841,0.895833333 206.636253,10.2993235 206.634835,25.6681019 L202.297858,257.837265 C202.297858,264.873102 203.016021,304.605114 204.221363,366.114579 C204.289149,369.571508 204.289149,369.571508 204.357022,373.024372 C204.807777,395.941665 205.290734,420.09968 205.773691,443.993377 C206.047368,457.511165 206.047368,457.511165 206.240551,467.002507 C206.336188,471.690429 206.368696,473.283876 206.389004,474.277209 C206.550473,474.916525 206.636253,475.585967 206.636253,476.275443 Z M21.4952549,314.344857 C17.0027,314.344857 13.3607646,310.702922 13.3607646,306.210367 C13.3607646,301.717812 17.0027,298.075877 21.4952549,298.075877 L69.4345174,298.075877 C73.9270723,298.075877 77.5690076,301.717812 77.5690076,306.210367 C77.5690076,310.702922 73.9270723,314.344857 69.4345174,314.344857 L21.4952549,314.344857 Z M16.9399403,238.422948 C12.4473854,238.422948 8.80545011,234.781013 8.80545011,230.288458 C8.80545011,225.795903 12.4473854,222.153968 16.9399403,222.153968 L73.1221529,222.153968 C77.6147078,222.153968 81.2566432,225.795903 81.2566432,230.288458 C81.2566432,234.781013 77.6147078,238.422948 73.1221529,238.422948 L16.9399403,238.422948 Z M42.5364696,500.895833 C19.9365521,500.895833 0.5625,491.465985 0.590854346,475.596847 C0.89706607,471.939009 1.43440244,465.194581 2.12581561,455.957453 C3.27877201,440.55421 4.43183727,423.844865 5.50796978,406.423969 C7.04905139,381.476278 8.30062188,357.178074 9.15979362,334.327382 C10.3848171,301.746428 10.7564509,273.567679 10.110339,251.129976 C9.4593603,228.52326 8.41760331,200.209715 7.06180302,167.495484 C6.64141327,157.35186 6.19442141,146.874052 5.72427624,136.12055 C4.5973678,110.34508 3.38989827,84.1583592 2.18242705,58.9258696 C1.75981447,50.0945475 1.36739726,42.013497 1.01524348,34.8533418 C0.653076922,27.5236786 0.653076922,27.5236786 0.5625,25.5162238 C0.5625,10.3256817 19.9365521,0.895833333 42.5364696,0.895833333 C65.1363872,0.895833333 84.5104393,10.3256817 84.5091595,25.6605104 L80.3889642,257.837265 C80.3889642,264.873102 81.1071269,304.605114 82.3124696,366.114579 C82.3802554,369.571508 82.3802554,369.571508 82.4481287,373.024372 C82.8988829,395.941665 83.3818399,420.09968 83.8647976,443.993377 C84.1384748,457.511165 84.1384748,457.511165 84.3316569,467.002507 C84.4765415,474.104394 84.4765415,474.104394 84.5087312,475.674912 C84.5104393,491.465985 65.1363872,500.895833 42.5364696,500.895833 Z M68.0660519,467.333899 C67.8728457,457.841375 67.8728457,457.841375 67.5991395,444.322151 C67.1161265,420.425718 66.6331127,396.264861 66.1822943,373.344301 C66.1144096,369.890861 66.1144096,369.890861 66.0466119,366.433326 C64.8352799,304.618222 64.1199837,265.044799 64.1212635,257.692978 L68.2414588,25.5162238 C68.2414588,22.5008649 57.2782993,17.1648138 42.5364696,17.1648138 C27.79464,17.1648138 16.8314805,22.5008649 16.8212387,25.1081565 C16.9019665,26.715385 16.9019665,26.715385 17.264583,34.05416 C17.6170794,41.2212825 18.0098439,49.3094836 18.4328116,58.1482265 C19.6412839,83.4016372 20.849758,109.610144 21.9777303,135.409946 C22.4483964,146.175364 22.8959109,156.665424 23.3168298,166.821814 C24.6752264,199.598693 25.7193122,227.975531 26.3725786,250.661691 C27.0307118,273.516863 26.6546878,302.028497 25.4172864,334.938653 C24.5527807,357.93121 23.2946412,382.356946 21.7459989,407.427033 C20.665259,424.922515 19.5073895,441.701479 18.3494112,457.171814 C17.6542635,466.458834 17.1131637,473.250499 16.8314805,476.275443 C16.8314805,479.290802 27.79464,484.626853 42.5364696,484.626853 C57.2782993,484.626853 68.2414588,479.290802 68.2414588,476.275443 C68.2109585,474.436866 68.2109585,474.436866 68.0660519,467.333899 Z" id="Rectangle-path"></path>
        </g>
    </g>
</svg>
