<?xml version="1.0" encoding="UTF-8"?>
<svg viewBox="0 0 45 45" version="1.1" xmlns="http://www.w3.org/2000/svg" xmlns:xlink="http://www.w3.org/1999/xlink">
    <!-- Generator: Sketch 53.2 (72643) - https://sketchapp.com -->
    <title>Combined Shape Copy</title>
    <desc>Created with Sketch.</desc>
    <g id="Icons---Kids" stroke="none" stroke-width="1" fill="none" fill-rule="evenodd">
        <g id="Icons/Kids_icons_board" transform="translate(-554.000000, -293.000000)" fill="#005589" fill-rule="nonzero">
            <path d="M554,306.75 L560.25,298.833333 L560.25,295.083333 C560.25,293.93274 561.18274,293 562.333333,293 L590.25,293 C591.400593,293 592.333333,293.93274 592.333333,295.083333 L592.333333,298.833333 L599,306.75 L599,335.916667 C599,337.06726 598.06726,338 596.916667,338 L556.083333,338 C554.93274,338 554,337.06726 554,335.916667 L554,306.75 Z M556.083333,306.75 L564.357367,306.75 L561.114709,300.5 L561.017544,300.5 L556.083333,306.75 Z M561.916667,298.833333 L562.333333,298.833333 L590.666667,298.833333 L590.666667,295.083333 C590.666667,294.853215 590.480119,294.666667 590.25,294.666667 L562.333333,294.666667 C562.103215,294.666667 561.916667,294.853215 561.916667,295.083333 L561.916667,298.833333 Z M591.55794,300.5 L562.865872,300.5 L565.84841,306.003874 L566.248021,306.75 L596.821098,306.75 L591.55794,300.5 Z M565.25,308.416667 L555.666667,308.416667 L555.666667,335.916667 C555.666667,336.146785 555.853215,336.333333 556.083333,336.333333 L596.916667,336.333333 C597.146785,336.333333 597.333333,336.146785 597.333333,335.916667 L597.333333,308.416667 L565.25,308.416667 Z M565.25,308.416667 L566.916667,308.416667 L566.916667,336.333333 L565.25,336.333333 L565.25,308.416667 Z M576.499992,322.791667 C579.306522,322.791667 584.943478,322.791667 587.750008,322.791667 C587.75,319.685065 585.231602,317.166667 582.125,317.166667 C579.018398,317.166667 576.5,319.685065 576.5,322.791667 Z M582.125,330.083333 C578.097924,330.083333 574.833333,326.818743 574.833333,322.791667 C574.833333,318.76459 578.097924,315.5 582.125,315.5 C586.152076,315.5 589.416667,318.76459 589.416667,322.791667 C589.416667,326.818743 586.152076,330.083333 582.125,330.083333 Z" id="Combined-Shape-Copy"></path>
        </g>
    </g>
</svg>
