<svg viewBox="0 0 501 410" version="1.1" xmlns="http://www.w3.org/2000/svg" xmlns:xlink="http://www.w3.org/1999/xlink">
    <defs></defs>
    <g id="Page-1" stroke-width="1" fill-rule="evenodd">
        <g id="skinjay" fill-rule="nonzero">
            <path d="M247.896946,129.645355 C240.719551,140.015635 233.542697,150.912844 226.85531,161.804433 C222.704825,168.564231 218.873064,175.115073 215.426371,181.382549 C203.737708,202.637243 197.140151,219.524345 197.140151,229.141952 C197.140151,248.224869 207.320766,265.858212 223.847057,275.399671 C240.373348,284.94113 260.734578,284.94113 277.260869,275.399671 C293.78716,265.858212 303.967775,248.224869 303.967774,229.141952 C303.967774,219.524345 297.370217,202.637243 285.681555,181.382549 C282.234862,175.115073 278.4031,168.564231 274.252615,161.804433 C267.565228,150.912844 260.388374,140.015635 253.21098,129.645355 C252.278302,128.297774 251.39098,127.023961 250.553963,125.829262 C249.716946,127.023961 248.829623,128.297774 247.896946,129.645355 Z M285.802524,290.19425 C263.990638,302.787348 237.117287,302.787348 215.305402,290.19425 C193.493517,277.601152 180.056842,254.328147 180.056843,229.141951 C180.056843,215.702891 187.418087,196.861055 200.457282,173.15055 C204.042946,166.630369 208.01075,159.846946 212.297149,152.865788 C219.162521,141.68432 226.506479,130.533383 233.849897,119.923224 C238.259921,113.551388 241.698989,108.763064 243.684968,106.07615 C247.099328,101.456722 254.008597,101.456722 257.422957,106.07615 C259.408937,108.763064 262.848005,113.551388 267.258029,119.923224 C274.601447,130.533383 281.945405,141.68432 288.810776,152.865788 C293.097176,159.846946 297.06498,166.630369 300.650644,173.15055 C313.689838,196.861055 321.051083,215.702891 321.051083,229.141951 C321.051084,254.328147 307.614409,277.601152 285.802524,290.19425 Z M9.10986771,409.200024 C0.345189492,409.200024 -2.73409987,397.576183 4.88107142,393.236972 L65.2420952,358.842578 L69.4708915,357.722321 L431.637034,357.722321 L435.865831,358.842578 L496.226854,393.236972 C503.842026,397.576183 500.762736,409.200024 491.998058,409.200024 L9.10986771,409.200024 Z M41.3532913,392.116716 L459.754634,392.116716 L429.374252,374.80563 L71.7336741,374.80563 L41.3532913,392.116716 Z M105.383088,98.0564157 L106.755809,94.1523011 L153.450186,23.3135147 C154.693568,21.4272137 156.633614,20.1103357 158.845683,19.6511212 L248.817775,0.97337048 L252.290151,0.97337048 L342.262243,19.6511212 C344.474312,20.1103357 346.414358,21.4272137 347.65774,23.3135147 L394.352117,94.1523011 L395.724837,98.0564157 L420.780357,365.46714 C421.249798,370.47736 417.308115,374.80563 412.275951,374.80563 L88.8319746,374.80563 C83.7998104,374.80563 79.8581278,370.47736 80.3275692,365.46714 L105.383088,98.0564157 Z M98.2113663,357.722321 L402.896559,357.722321 L378.914985,101.773518 L335.335842,35.6607697 L250.553963,18.0604808 L165.772084,35.6607697 L122.192941,101.773518 L98.2113663,357.722321 Z" id="Shape"></path>
        </g>
    </g>
</svg>
