<svg viewBox="0 0 447 501" version="1.1" xmlns="http://www.w3.org/2000/svg" xmlns:xlink="http://www.w3.org/1999/xlink">
    <defs></defs>
    <g id="Page-1" stroke-width="1" fill-rule="evenodd">
        <g id="slippers" fill-rule="nonzero">
            <path d="M425.363549,72.4688901 C429.832455,71.6590475 434.111725,74.6253039 434.921568,79.0942091 C435.73141,83.5631143 432.765154,87.8423849 428.296249,88.6522275 C401.382588,93.5294461 374.137744,96.3581459 346.094551,97.1034294 C318.532661,95.5108215 291.253044,90.6879059 264.815854,82.733715 C260.466747,81.4251937 258.001865,76.8387798 259.310387,72.4896729 C260.618908,68.140566 265.205322,65.6756844 269.554429,66.9842056 C294.758925,74.5675142 320.766566,79.1655503 346.341691,80.6733453 C372.851867,79.9404911 399.268265,77.1978049 425.363549,72.4688901 Z M427.049071,259.113647 C429.928583,262.625821 429.415708,267.807307 425.903533,270.686819 C422.391359,273.566331 417.209873,273.053456 414.330361,269.541281 C396.243606,247.480651 371.642017,231.706691 345.011264,224.668712 C313.757217,220.375573 271.016596,242.893283 266.287122,258.586538 C264.976613,262.935046 260.389073,265.397831 256.040564,264.087321 C251.692056,262.776812 249.229271,258.189272 250.539781,253.840764 C257.795455,229.765117 308.499366,203.051983 348.214513,208.566783 C379.167497,216.676308 406.761981,234.369241 427.049071,259.113647 Z M275.162729,61.7588728 C267.790821,78.3043027 265.370146,95.3318082 265.535919,107.43246 C261.326267,157.092488 261.326267,205.996791 265.524151,254.818996 C269.353753,315.555243 269.353753,376.472411 265.540449,436.691172 C265.540449,462.486111 300.409326,483.290775 324.636716,483.434748 C339.093207,486.176021 354.030323,482.565807 365.639086,473.524715 C377.247849,464.483622 384.406226,450.885508 385.298436,436.057913 C387.892693,402.469112 393.314288,367.630505 403.618226,312.931317 C404.610717,307.662612 405.597242,302.46717 407.06464,294.768521 C427.116121,189.569145 432.630686,149.652917 429.161237,108.440071 C425.356191,63.0706658 391.79361,25.829347 347.133474,17.2969733 C310.215104,17.51651 287.555044,33.9456956 275.162729,61.7588728 Z M347.884689,0.847826087 L349.369036,0.982898821 C401.696051,10.5857337 441.104371,54.0507921 445.550401,107.062957 C449.199811,150.41352 443.60909,190.880987 423.220701,297.84794 C421.755336,305.535926 420.770698,310.721424 419.780879,315.97595 C409.581084,370.122285 404.232254,404.493314 401.706129,437.184442 C400.54004,456.589693 391.082398,474.55551 375.744911,486.500594 C360.407424,498.445677 340.672518,503.215489 323.104665,499.737694 C292.511305,499.737694 249.093531,473.832293 249.109829,436.173686 C252.895968,376.126736 252.895968,315.900918 249.123792,256.04132 C244.859173,206.468416 244.859173,156.620864 249.096453,107.972012 C248.895032,93.3862943 251.626668,74.1714205 260.139546,55.0652103 C275.143457,21.3905979 303.69791,0.847826087 347.884689,0.847826087 Z M18.3571341,88.6522275 C13.8882289,87.8423849 10.9219726,83.5631143 11.7318151,79.0942091 C12.5416577,74.6253039 16.8209283,71.6590475 21.2898335,72.4688901 C47.3851178,77.1978049 73.8015161,79.9404911 99.6100626,80.6838992 C125.886816,79.1655503 151.894458,74.5675142 177.098954,66.9842056 C181.448061,65.6756844 186.034475,68.140566 187.342996,72.4896729 C188.651517,76.8387798 186.186636,81.4251937 181.837529,82.733715 C155.400338,90.6879059 128.120722,95.5108215 99.8572025,97.1139832 C72.5156393,96.3581459 45.2707944,93.5294461 18.3571341,88.6522275 Z M32.3230216,269.541281 C29.4435099,273.053456 24.2620243,273.566331 20.7498496,270.686819 C17.2376749,267.807307 16.7248002,262.625821 19.604312,259.113647 C39.8914023,234.369241 67.4858856,216.676308 99.403944,208.374795 C138.154017,203.051983 188.857928,229.765117 196.113602,253.840764 C197.424112,258.189272 194.961327,262.776812 190.612819,264.087321 C186.26431,265.397831 181.67677,262.935046 180.366261,258.586538 C175.636787,242.893283 132.896166,220.375573 102.607194,224.476724 C75.011366,231.706691 50.4097768,247.480651 32.3230216,269.541281 Z M197.543554,255.853968 C193.757414,315.900918 193.757414,376.126736 197.559852,436.691172 C197.559852,473.832293 154.142078,499.737694 125.080769,499.593721 C105.980864,503.215489 86.2459591,498.445677 70.9084719,486.500594 C55.5709846,474.55551 46.1133427,456.589693 44.9568652,437.324431 C42.4211285,404.493314 37.0722986,370.122285 26.8725038,315.97595 C25.8826844,310.721424 24.8980472,305.535926 23.4326819,297.84794 C3.04429273,190.880987 -2.54642779,150.41352 1.10276614,107.065525 C5.54901197,54.0507921 44.9573316,10.5857337 97.2843468,0.982898821 L98.7686937,0.847826087 C142.955473,0.847826087 171.509926,21.3905979 186.513837,55.0652103 C194.988312,74.0852289 197.733588,93.212933 197.565307,107.464308 C201.794176,156.899959 201.78231,206.606672 197.543554,255.853968 Z M17.4919298,108.442639 C14.0226972,149.652917 19.537262,189.569145 39.5887431,294.768521 C41.0561408,302.46717 42.0426663,307.662612 43.0351565,312.931317 C53.3390949,367.630505 58.7606894,402.469112 61.3645578,436.197903 C62.2471568,450.885508 69.4055341,464.483622 81.0142967,473.524715 C92.6230594,482.565807 107.560176,486.176021 123.548718,483.290775 C146.244057,483.290775 181.112933,462.486111 181.129232,437.208658 C177.29963,376.472411 177.29963,315.555243 181.143195,254.631644 C185.327116,205.996791 185.327116,157.092488 181.115856,107.533583 C181.283237,95.3318082 178.862562,78.3043027 171.490654,61.7588728 C159.098339,33.9456956 136.438279,17.51651 99.5199085,17.2969733 C54.8597727,25.829347 21.297191,63.0706798 17.4919298,108.442639 Z" id="Shape"></path>
        </g>
    </g>
</svg>
