<?xml version="1.0" encoding="UTF-8"?>
<svg viewBox="0 0 501 501" version="1.1" xmlns="http://www.w3.org/2000/svg" xmlns:xlink="http://www.w3.org/1999/xlink">
    <g id="Page-1" stroke="none" stroke-width="1" fill="none" fill-rule="evenodd">
        <g id="warning" fill="#005589" fill-rule="nonzero">
            <path d="M225.600494,125.964844 L276.329194,125.964844 C279.579749,125.964844 282.214844,128.038148 282.214844,130.595698 L282.214844,184.383272 C282.214844,184.564544 282.201316,184.745659 282.17433,184.925683 L266.642161,288.543066 C266.29266,290.874635 263.780904,292.63151 260.797024,292.63151 L241.510207,292.63151 C238.532655,292.63151 236.02413,290.881869 235.667037,288.556028 L219.757323,184.932094 C219.729029,184.747808 219.714844,184.562349 219.714844,184.376723 L219.714844,130.595698 C219.714844,128.038148 222.349939,125.964844 225.600494,125.964844 Z M224.643264,320.409288 L277.286423,320.409288 C280.008315,320.409288 282.214844,322.43925 282.214844,324.943334 L282.214844,371.430798 C282.214844,373.934882 280.008315,375.964844 277.286423,375.964844 L224.643264,375.964844 C221.921373,375.964844 219.714844,373.934882 219.714844,371.430798 L219.714844,324.943334 C219.714844,322.43925 221.921373,320.409288 224.643264,320.409288 Z M250.964844,500.964844 C112.893656,500.964844 0.96484375,389.036032 0.96484375,250.964844 C0.96484375,112.893656 112.893656,0.96484375 250.964844,0.96484375 C389.036032,0.96484375 500.964844,112.893656 500.964844,250.964844 C500.964844,389.036032 389.036032,500.964844 250.964844,500.964844 Z M250.964844,477.111172 C375.862012,477.111172 477.111172,375.862012 477.111172,250.964844 C477.111172,126.067676 375.862012,24.8185164 250.964844,24.8185164 C126.067676,24.8185164 24.8185164,126.067676 24.8185164,250.964844 C24.8185164,375.862012 126.067676,477.111172 250.964844,477.111172 Z" id="Oval"></path>
        </g>
    </g>
</svg>
