<?xml version="1.0" encoding="UTF-8"?>
<svg viewBox="0 0 493 501" version="1.1" xmlns="http://www.w3.org/2000/svg" xmlns:xlink="http://www.w3.org/1999/xlink">
    <!-- Generator: Sketch 51.3 (57544) - http://www.bohemiancoding.com/sketch -->
    <title>smallCircleCheck</title>
    <desc>Created with Sketch.</desc>
    <defs></defs>
    <g id="Page-1" stroke="none" stroke-width="1" fill="none" fill-rule="evenodd">
        <path d="M221.400425,345.652344 L152.024484,263.155134 C146.266084,256.307632 146.266084,245.206733 152.024484,238.35923 C157.782883,231.511728 167.09852,231.511728 172.856919,238.35923 L221.400425,296.083907 L328.903655,168.248288 C334.662054,161.400785 343.977691,161.400785 349.736091,168.248288 C355.49449,175.09579 355.49449,186.196689 349.736091,193.044191 L221.400425,345.652344 Z M246.912033,500.414248 C110.95447,500.414248 0.880287087,388.408939 0.880287087,250.414248 C0.880287087,112.419557 110.95447,0.414248265 246.912033,0.414248265 C382.869596,0.414248265 492.943779,112.419557 492.943779,250.414248 C492.943779,388.408939 382.869596,500.414248 246.912033,500.414248 Z M246.912033,460.731709 C360.797571,460.731709 453.261239,366.645871 453.261239,250.414248 C453.261239,134.182626 360.797571,40.0967879 246.912033,40.0967879 C133.026495,40.0967879 40.5628268,134.182626 40.5628268,250.414248 C40.5628268,366.645871 133.026495,460.731709 246.912033,460.731709 Z" id="smallCircleCheck" fill="#14A53A" fill-rule="nonzero"></path>
    </g>
</svg>
