<svg viewBox="0 0 30 30" xmlns="http://www.w3.org/2000/svg">
    <g fill-rule="nonzero">
        <path d="M21.305 18.427a.652.652 0 00-.921.051A7.224 7.224 0 0115 20.87a7.225 7.225 0 01-5.384-2.392.652.652 0 10-.971.87A8.532 8.532 0 0015 22.174a8.532 8.532 0 006.355-2.826.653.653 0 00-.05-.92z"/>
        <path d="M15 0C6.73 0 0 6.73 0 15s6.73 15 15 15 15-6.73 15-15S23.27 0 15 0zm0 28.696C7.448 28.696 1.304 22.552 1.304 15S7.448 1.304 15 1.304 28.696 7.448 28.696 15 22.552 28.696 15 28.696z"/>
        <path d="M20.217 10.435a3.265 3.265 0 00-3.26 3.26.652.652 0 001.304 0c0-1.078.878-1.956 1.956-1.956 1.08 0 1.957.878 1.957 1.957a.652.652 0 001.304 0 3.265 3.265 0 00-3.26-3.261zM11.74 13.696a.652.652 0 001.303 0 3.265 3.265 0 00-3.26-3.261 3.265 3.265 0 00-3.261 3.26.652.652 0 001.304 0c0-1.078.878-1.956 1.957-1.956 1.078 0 1.956.878 1.956 1.957z"/>
    </g>
</svg>
