<svg xmlns="http://www.w3.org/2000/svg" viewBox="0 0 500 500"><path d="M480.9 296.7c-5.4-3.5-11.6-7.1-17.9-10.7-18-8.3-37.2-13.6-56.7-15.6-11.2-1.1-22.5-1-33.4.8-10.8 1.9-21.6 5.6-29.3 12.6-16.5 13.3-13.1 44.9 6.8 51.9 4.7 1.9 9.8 2 15 1.1 5-.9 9.6-3.3 12.1-6.9 1.3-1.8 2-3.9 2.3-6.1.2-2.2 0-4.9-.6-7.1-1.2-4.6-4.2-8.2-8.3-9.6-.5-.2-1.6-.5-3.1-.7-1.3-.1-3.8-.1-5.6.1-1.9.2-3 .7-3.9 1.3-.9.6-1.7 1.4-1.8 1.5-1.3 1.3-2.5.4-2.4-.9 0-.9.8-2.5 2.3-4.1 1.5-1.6 4.3-2.5 7-2.9 2.7-.4 5.6-.4 7.8.1s3.8 1.3 4.4 1.6c5.4 2.9 8.8 8.7 9.7 14.6 1.1 5.8-.1 12.6-4.4 17.3-4.2 4.7-10.3 7.1-16.2 8-5.9 1-12.3.4-18-2.1-5.7-2.4-10.6-6.6-14.1-11.7-3.5-5.2-5.4-11.2-6.1-17.3-.6-6-.2-12.3 1.9-18.3 2-6 5.8-11.3 10.4-15.5 9.7-8.5 22-12.2 33.9-14 12-1.7 24.1-1.5 36 0 8.9 1.1 17.7 2.9 26.3 5.3-23.3-13-46-23.2-68.7-23-47.7.4-81.4 50.2-137 84-67.2 40.8-95.4 22.9-95.4 22.9l105.5-116.2c-8.3-7.6-17.2-13.4-25.2-13.4-29.2 0-52.5 40.4-95.2 55.5-23.5 8.3-16.6 5.3-10-3.1l79.8-98.4 53.3 56.4 87.7-96.5s63.2 69.2 91.3 104.2c10.9-10.9 38.6-24.1 58.1-36.3 13-8.2 22.3-15.9 20.6-22.2-1.7-6.3-13.6-8.4-28.9-9-29.3-1.2-70.8 2.9-76.8-7.4-.3-.5-.5-1.1-.7-1.7-.1-.4-.1-.9-.2-1.3 0-.2-.1-.4-.1-.6-.1-1.9.3-4.1 1-6.6 4.3-15.7 22.4-41.9 33-62.3 5.3-10.2 8.7-18.9 7.6-24.1-.3-1.2-.8-2.3-1.6-3.1-13.2-13.2-83.7 48-99.7 38.8-1-.6-1.9-1.5-2.6-2.7-7.5-11.8-3.5-51.7-4.9-78.3-.7-13.3-2.8-23.3-8.4-24.8-17.7-4.8-48.3 83.4-67 83.4-18.1 0-48.4-88.4-66.8-83.5-18.4 4.9-.7 96.7-16.4 105.7-16.3 9.4-86.6-51.9-99.6-39-.4.4-.8.9-1 1.4-8.4 16.1 48.8 82.8 39.8 98.3-1.4 2.5-4.9 4.2-9.7 5.3-21.2 4.9-68.9-1.1-88.1 4.7-4.4 1.3-7.2 3.3-8 6.1-4.6 17.2 78 46.4 83.1 65.2.2.6.2 1.2.2 1.8 0 11.9-38.1 29.1-62.9 44.6-13 8.2-22.3 15.9-20.7 22.2 1.7 6.3 13.6 8.4 29 9 29.3 1.2 70.8-2.9 76.8 7.4.3.5.5 1.1.7 1.7 4.9 18.9-52.2 85.4-39.6 98 2 2.1 5.5 2.3 9.9 1.3 19.5-4.5 57.9-33.4 78.7-39.8 4.7-1.4 8.6-1.7 11.1-.3 15.5 9-.9 95.3 14.4 105.1.5.3 1 .6 1.6.7 17.7 4.8 48.3-83.4 67-83.4 18.1 0 48.5 88.4 66.8 83.5 18.4-4.9.7-96.6 16.4-105.7 16.3-9.4 86.6 51.9 99.6 39 4.1-4.1 1-13.8-5-25.7-12-23.8-35.3-56.4-34.7-70.4.1-1.4.4-2.6 1-3.6 9.3-16 100.9 2 105.8-16 .3-1.1.2-2.3-.1-3.5-1.9-4.9-9.2-10.8-18.9-17zM249.7 183.5v-21.7l-13.4 13.4-3.5-3.5 16.9-16.9v-.9l-7.5-7.5h-2.8l-16.9 16.9-3.5-3.5 13.4-13.4h-21.7v-5h21.7L219 128l3.5-3.5 16.9 16.9h2.8l7.5-7.5v-.9l-16.9-16.9 3.5-3.5 13.4 13.4v-21.7h5V126l13.4-13.4 3.5 3.5-16.9 16.9v.9l7.5 7.5h2.8l16.9-16.9 3.5 3.5-13.4 13.4h21.7v5H272l13.4 13.4-3.5 3.5-16.9-16.9h-2.8l-7.5 7.5v.9l16.9 16.9-3.5 3.5-13.4-13.4v21.7h-5z"/></svg>
