<svg viewBox="0 0 491 501" version="1.1" xmlns="http://www.w3.org/2000/svg" xmlns:xlink="http://www.w3.org/1999/xlink">
    <defs></defs>
    <g id="Page-1" stroke-width="1" fill-rule="evenodd">
        <g id="snacks" fill-rule="nonzero">
            <path d="M397.587859,346.241408 C392.585828,346.241408 388.798934,341.721074 389.675355,336.796422 L407.677853,235.639531 C408.226465,232.556852 410.515483,230.073438 413.543329,229.275925 L461.549989,216.631314 C467.019762,215.190615 472.226874,219.700928 471.581334,225.320296 L458.508092,339.121798 C458.042026,343.178862 454.60752,346.241408 450.523774,346.241408 L397.587859,346.241408 Z M443.35734,330.16775 L454.270386,235.170581 L422.603123,243.511511 L407.18125,330.16775 L443.35734,330.16775 Z M345.419334,243.481944 L311.764315,235.032386 L322.872399,330.16775 L354.969466,330.16775 L345.419334,243.481944 Z M363.940334,346.241408 L315.719358,346.241408 C311.641313,346.241408 308.209702,343.187163 307.736759,339.136634 L294.449201,225.335132 C293.797071,219.749951 298.934958,215.238895 304.388822,216.608163 L354.752952,229.252774 C358.010961,230.070742 360.41658,232.82868 360.784427,236.1676 L371.92883,337.324491 C372.453045,342.082753 368.727385,346.241408 363.940334,346.241408 Z M363.940334,346.241408 C359.824083,346.241408 356.373224,343.131342 355.946756,339.037243 L340.944674,195.017264 C340.504341,190.790063 343.431349,186.950806 347.62423,186.255919 L423.920529,173.611308 C429.389671,172.704905 434.11251,177.477284 433.149089,182.936671 L405.502396,339.601262 C404.824668,343.441721 401.487659,346.241408 397.587859,346.241408 L363.940334,346.241408 Z M390.845112,330.16775 L415.346747,191.32515 L357.715627,200.876375 L371.183478,330.16775 L390.845112,330.16775 Z M473.031712,346.241408 L284.839992,346.241408 L309.998903,484.903502 L447.680748,484.903502 L473.031712,346.241408 Z M454.381452,500.977161 L303.289063,500.977161 C299.403866,500.977161 296.07495,498.197893 295.381343,494.375111 L267.306019,339.639359 C266.411067,334.706876 270.200723,330.16775 275.213739,330.16775 L482.671091,330.16775 C487.688485,330.16775 491.479231,334.714373 490.57688,339.649959 L462.287241,494.385711 C461.589241,498.203563 458.262586,500.977161 454.381452,500.977161 Z M206.744369,5.85592758 C208.489659,1.77483743 213.212873,-0.118703239 217.293963,1.62658612 C221.375053,3.37187547 223.268594,8.09508928 221.523304,12.1761794 L136.569528,210.166936 L94.5637009,489.634278 C93.9039575,494.023591 89.8108884,497.047005 85.4215752,496.387262 C81.032262,495.727518 78.0088483,491.634449 78.6685917,487.245136 L121.232506,205.812239 L206.744369,5.85592758 Z M16.5349953,217.009194 L16.5349953,200.935536 L214.133837,200.935536 L214.133837,217.009194 L16.5349953,217.009194 Z M215.335732,108.994209 L17.0476241,108.994209 L44.9993266,484.903502 L187.384029,484.903502 L215.335732,108.994209 Z M194.845447,500.977161 L37.5379091,500.977161 C33.3304887,500.977161 29.8351984,497.732122 29.5232061,493.536285 L0.376305441,101.553334 C0.0297596306,96.8928023 3.71761046,92.9205507 8.39100838,92.9205507 L223.992347,92.9205507 C228.665745,92.9205507 232.353596,96.8928023 232.00705,101.553334 L202.86015,493.536285 C202.548157,497.732122 199.052867,500.977161 194.845447,500.977161 Z" id="Shape"></path>
        </g>
    </g>
</svg>
