<svg version="1.1" id="Calque_1" xmlns="http://www.w3.org/2000/svg" xmlns:xlink="http://www.w3.org/1999/xlink" x="0px" y="0px"
	 viewBox="0 0 500 500" style="enable-background:new 0 0 500 500;" xml:space="preserve">

<g>
	<path class="st0" d="M34.9,132.6l1.9,0.6c15.5,6.8,27.8,9.7,41.1,9.7c18.5,0,33.4-6,47.9-11.9c14.8-6,28.7-11.6,46.5-11.6
		c17.8,0,31.2,5.7,45.4,11.7c13.7,5.8,27.8,11.8,45.9,11.8c17.8,0,32.1-6,45.9-11.8c14.3-6,27.8-11.7,45.4-11.7
		c17.3,0,30,5.6,43.5,11.6c7.3,3.2,14.8,6.5,23.2,8.8l4.8,48.4c0.9,14.8-10.3,27.7-25.1,28.7c-5.8,0.4-10.1,5.4-9.7,11.2
		c0.4,5.5,5,9.7,10.4,9.7c0.2,0,0.5,0,0.7,0c26.4-1.8,46.3-24.8,44.5-51.2l-4.3-43.8c0.3,0,0.6,0,0.9,0c13.9,0,24.1-1.5,48.3-10.3
		c5.4-2,8.2-8,6.3-13.4c-2-5.4-8-8.2-13.4-6.3c-22.3,8.1-30,9-41.2,9c-1,0-2-0.1-3-0.1l-3.5-35.1c-0.6-5.8-5.7-10-11.4-9.4
		c-5.8,0.6-10,5.7-9.4,11.5l2.8,28.2c-4.1-1.6-8.2-3.4-12.6-5.3c-14.1-6.2-30-13.3-51.8-13.3c-21.8,0-38.6,7.1-53.5,13.3
		c-13,5.4-24.2,10.1-37.8,10.1c-13.8,0-24.9-4.7-37.8-10.2c-14.7-6.2-31.4-13.3-53.5-13.3c-21.8,0-39.1,7-54.4,13.2
		c-13.7,5.5-25.6,10.3-40,10.3c-10.2,0-19.9-2.3-32.5-7.9c-0.7-0.3-1.3-0.6-1.9-0.7l-1.8-0.6c-5.5-1.8-11.4,1.1-13.3,6.6
		C26.5,124.8,29.5,130.7,34.9,132.6z"/>
	<path class="st0" d="M11.5,267c1.2,0,2.4-0.2,3.5-0.6c30.4-10.8,51.3-25.7,65.5-40.2c7.9,4.3,39.3,21.2,71.3,37.8
		c4.2,2.2,8.1,4.2,11.9,6.1c-8.3,2.6-18.4,5.8-28.6,9c-12,3.8-24.1,7.6-33.1,10.6c-4.6,1.5-8.4,2.8-11,3.7
		c-5,1.7-11.2,3.9-11.2,11.5c0,0.7,0.1,1.9,0.2,3.6c2.9,35.4-6.9,68.2-29.1,97.5c-3.5,4.6-2.6,11.2,2,14.7c1.9,1.4,4.1,2.1,6.3,2.1
		c3.2,0,6.3-1.4,8.3-4.1c15-19.8,25-41.1,30.1-63.5c19.2-5.6,88.6-27.3,147-54.8c1-0.5,1.8-1.1,2.6-1.8
		c18.5-8.3,60.3-31.1,74.4-38.9c5.1-2.8,6.9-9.2,4.1-14.2c-2.8-5.1-9.2-6.9-14.2-4.1c-31.2,17.1-66.5,35.7-75.6,39.4
		c-13.7-3.6-80.5-37.7-141.7-70.8c4.8-6.7,8.2-12.8,10.6-17.8c98.7,52.2,102.8,52.7,105.1,52.9c3.7,0.4,7.8,0.8,111-51.3
		c0.1,0,9.2-4.5,18.1-1.7c3.3,1,6.2,3.2,8.9,6.1c1.3,2.4,2.9,4.5,4.6,6.6c0.2,0.4,0.4,0.6,0.6,1c1.3,2.6,3.7,4.4,6.3,5.2
		c6.2,4.4,13.7,6.9,21.9,6.9c21,0,38.1-17.1,38.1-38.1c0-21-17.1-38.1-38.1-38.1c-18.3,0-33.6,13-37.3,30.2
		c-16.5-4.6-31.2,2.6-32.7,3.4c-35.4,17.9-86.9,43.3-99.9,48.4c-13.7-6.2-71.3-36.4-107.2-55.4c-2.8-1.5-6.2-1.6-9.1-0.3
		c-2.9,1.3-5.1,3.9-5.9,7c-0.1,0.5-12.9,47.7-81.3,71.9c-5.5,1.9-8.3,7.9-6.4,13.4C3.1,264.3,7.2,267,11.5,267z M101.3,311.9
		c16.5-5.5,59.9-19.2,88.1-28c0.4-0.1,0.8-0.3,1.1-0.5c7.8,3.8,14.2,6.8,19.6,9.3c-43.2,18.3-87.6,32.9-109.2,39.5
		C101.5,325.5,101.7,318.8,101.3,311.9z M381.3,162.4c9.5,0,17.2,7.7,17.2,17.2c0,9.5-7.7,17.2-17.2,17.2c-4.5,0-8.6-1.8-11.7-4.7
		c-1.3-2.1-2.7-4.1-4.2-6c-0.8-2-1.3-4.2-1.3-6.5C364.1,170.2,371.9,162.4,381.3,162.4z"/>
	<path class="st0" d="M455,251.5c-0.4,0.1-43.1,13.8-71.9,3.8c-27.4-9.5-31-34.3-31.2-35.5c-0.7-5.7-5.9-9.8-11.6-9.1
		c-5.7,0.7-9.9,5.9-9.2,11.6c0.2,1.6,5,38.9,45.1,52.8c10.1,3.5,21.1,4.8,31.9,4.8c27,0,51.9-8,53.3-8.4c5.5-1.8,8.5-7.7,6.7-13.2
		C466.4,252.7,460.5,249.7,455,251.5z"/>
</g>
</svg>
