<svg version="1.1" id="Calque_1" xmlns="http://www.w3.org/2000/svg" xmlns:xlink="http://www.w3.org/1999/xlink" x="0px" y="0px"
	 viewBox="0 0 500 500" style="enable-background:new 0 0 500 500;" xml:space="preserve">

<g>
	<g>
		<path class="st0" d="M329.7,97.8c-9.7,12.5-3.7,32.5-2.4,36.3c0.1,0.3,0.2,0.7,0.4,1c14.8,34.1,29.4,90.9,13.5,104.3
			c-9.5,8-17.8,13.2-25.2,17.8c-14.9,9.2-28.9,18-28.4,41.3c0.4,18.9,11.5,67.2,18.1,94.7c-12.6-3.6-25.7-9.6-28.7-18.4
			c-12.4-36.4-23.3-92.8-17.9-102.7c4-5.6,13.8-12.8,22.3-19.2c15.4-11.4,27.5-20.5,28-32.5c0.5-11.6-15-76.1-21.7-103.2
			c-1.7-6.8-8.5-10.9-15.3-9.2c-6.8,1.7-10.9,8.5-9.2,15.3c8.9,36.1,18,76.3,20.4,91.1c-18.5-1-69.5-1.2-82.9,24.6
			c-11.3,21.7-25.2,65.8-27.8,74c-2.2,4.2-6.4,14.7-2.1,27.2c4.6,13.5,17.4,24.1,38,31.3c1.4,0.5,2.8,0.7,4.2,0.7
			c4.7,0,9.2-2.7,11.4-7.1l15.1-31.3c5.8,26.3,13.3,48.8,13.5,49.3c11,32.3,62.5,38.3,68.4,38.9c0.4,0,0.8,0.1,1.3,0.1
			c3.6,0,7.2-1.6,9.6-4.4c2.7-3.1,3.7-7.4,2.7-11.3c-6-23.6-21.7-89.1-22.1-108.4c-0.2-8.3,1.9-10.2,16.5-19.3
			c7.7-4.8,17.2-10.7,28.1-19.9c35.4-30,1.4-114.9-6.4-133.1c-1.1-3.4-1.9-8.6-1.6-11.3c0,0,0.1,0,0.1,0c21,1.6,82.7,21.7,90.9,90.4
			c0.8,6.9,7.1,11.9,14,11c6.9-0.8,11.9-7.1,11-14c-9.1-76.4-74.8-109.6-114-112.6C339.2,88.2,332.5,94.2,329.7,97.8z M207.1,343.3
			c-8.4-4.4-11.2-8.6-12.1-11.1c-1.5-3.9,0.4-7.5,0.4-7.5c0,0,0,0,0,0c0.8-1.1,1-1.8,1.4-3.1c0.2-0.5,15.3-49.6,26.4-71
			c2.7-5.3,16.9-8.9,33.5-10.5c-7.1,5.5-13.6,11.2-17.9,17.2c-4.9,6.7-6.3,18.4-5.7,31.9L207.1,343.3z"/>
		<path class="st0" d="M117.2,116.5c1.4,0,2.8-0.2,4.2-0.7c55.5-19.7,164.9-20,172.8-20c0.4,0,0.4,0,0.5,0c1.5,0,2.9-0.3,4.3-0.8
			c0,0,0.1,0,0.1,0c20.7,0,39.7-14,46.1-34c3.9-12.4,2.8-25.4-3.2-36.6c-5.8-11-15.6-18.9-27.5-22.4c-4.2-1.2-8.6-1.9-13.1-1.9
			c-20.7,0-39.7,14-46.1,34c-3.9,12.4-2.8,25.4,3.2,36.6c0.1,0.2,0.3,0.4,0.4,0.6c-40.2,1.5-105,6.3-145.9,20.8
			c-6.6,2.3-10,9.5-7.7,16.1C107.2,113.2,112,116.5,117.2,116.5z M279.4,41.7c3.1-9.7,12.1-16.4,22-16.4c2,0,4,0.3,6,0.9
			c5.3,1.6,9.7,5.1,12.3,10c2.8,5.2,3.3,11.3,1.4,17.1c-3.1,9.7-12.1,16.4-22,16.4c-2,0-4-0.3-6-0.9c-5.3-1.6-9.7-5.1-12.3-10
			C278,53.6,277.5,47.5,279.4,41.7z"/>
		<path class="st0" d="M65.2,361.8l330.4,134.3c6.4,2.6,13.1,3.8,19.6,3.8c20.8,0,40.5-12.4,48.7-32.8c10.8-26.8-2.2-57.5-29.3-68.4
			l-76.4-28.6c-6.5-2.4-13.8,0.9-16.2,7.4c-2.4,6.5,0.9,13.8,7.4,16.2l76.1,28.4c13.9,5.6,20.7,21.5,15.1,35.5
			c-5.6,13.9-21.5,20.7-35.4,15.1L74.6,338.5c-6.7-2.7-12-7.9-14.9-14.6c-2.8-6.7-2.9-14.1-0.2-20.9c5.6-13.9,21.4-20.6,35.3-15.1
			L143,309c6.4,2.8,13.8-0.1,16.6-6.5c2.8-6.4-0.1-13.8-6.5-16.6l-48.3-21.2l-0.3-0.1c-26.8-10.8-57.5,2.2-68.3,29
			c-5.2,13-5.1,27.3,0.4,40.2C42,346.6,52.2,356.6,65.2,361.8z"/>
	</g>
</g>
</svg>
