<?xml version="1.0" encoding="UTF-8"?>
<svg viewBox="0 0 28 45" version="1.1" xmlns="http://www.w3.org/2000/svg" xmlns:xlink="http://www.w3.org/1999/xlink">
    <!-- Generator: Sketch 53.2 (72643) - https://sketchapp.com -->
    <title>Combined Shape</title>
    <desc>Created with Sketch.</desc>
    <g id="Icons---Kids" stroke="none" stroke-width="1" fill="none" fill-rule="evenodd">
        <g id="Icons/Kids_icons_board" transform="translate(-209.000000, -289.000000)" fill="#005589" fill-rule="nonzero">
            <g id="Icons" transform="translate(16.000000, 104.000000)">
                <g id="Assets/Icons/Equipments/Bathroom/Wash-dispenser" transform="translate(177.000000, 177.000000)">
                    <path d="M30.25,9.5 L30.25,13.75 L34,13.75 C35.1045695,13.75 36,14.6454305 36,15.75 L36,19.2078023 C40.057107,20.4820659 43,24.2723582 43,28.75 L43,50.75 C43,51.8545695 42.1045695,52.75 41,52.75 L18,52.75 C16.8954305,52.75 16,51.8545695 16,50.75 L16,28.75 C16,24.2723582 18.942893,20.4820659 23,19.2078023 L23,15.75 C23,14.6454305 23.8954305,13.75 25,13.75 L28.75,13.75 L28.75,9.5 L20.849032,9.5 L20.849032,8 L29.451369,8.00155137 C29.4674468,8.00052239 29.4836624,8 29.5,8 C29.5164305,8 29.5327375,8.00052834 29.5489051,8.00156896 L39.1608427,8.0033024 C42.1482769,8.28458025 43.75,9.99880135 43.75,12.934045 L42.25,12.934045 C42.25,10.7813488 41.2454153,9.70620655 39.0905384,9.5 L30.25,9.5 Z M35.5505256,20.6388763 L34.5,20.3089253 L34.5,15.75 C34.5,15.4738576 34.2761424,15.25 34,15.25 L25,15.25 C24.7238576,15.25 24.5,15.4738576 24.5,15.75 L24.5,20.3089253 L23.4494744,20.6388763 C19.9373194,21.7419804 17.5,25.0101978 17.5,28.75 L17.5,50.75 C17.5,51.0261424 17.7238576,51.25 18,51.25 L41,51.25 C41.2761424,51.25 41.5,51.0261424 41.5,50.75 L41.5,28.75 C41.5,25.0101978 39.0626806,21.7419804 35.5505256,20.6388763 Z" id="Combined-Shape"></path>
                </g>
            </g>
        </g>
    </g>
</svg>
