<?xml version="1.0" encoding="UTF-8"?>
<svg viewBox="0 0 44 54" version="1.1" xmlns="http://www.w3.org/2000/svg" xmlns:xlink="http://www.w3.org/1999/xlink">
    <!-- Generator: Sketch 53.2 (72643) - https://sketchapp.com -->
    <title>Soap</title>
    <desc>Created with Sketch.</desc>
    <g id="Icons---Kids" stroke="none" stroke-width="1" fill="none" fill-rule="evenodd">
        <g id="Icons/Kids_icons_board" transform="translate(-378.000000, -284.000000)" fill="#005589" fill-rule="nonzero">
            <g id="Icons" transform="translate(16.000000, 104.000000)">
                <g id="Assets/Icons/Equipments/Bathroom/Soap" transform="translate(354.000000, 177.000000)">
                    <path d="M13.2418004,30.5493938 C10.8412029,31.192632 9.4165817,33.6601483 10.0598199,36.0607457 L14.2009246,51.5155589 C14.8441627,53.9161564 17.311679,55.3407776 19.7122765,54.6975395 L46.7581996,47.4506062 C49.1587971,46.807368 50.5834183,44.3398517 49.9401801,41.9392543 L45.7990754,26.4844411 C45.1558373,24.0838436 42.688321,22.6592224 40.2877235,23.3024605 L13.2418004,30.5493938 Z M12.8535718,29.1005051 L39.8994949,21.8535718 C43.1002916,20.9959209 46.3903133,22.8954159 47.2479642,26.0962125 L51.3890689,41.5510257 C52.2467198,44.7518223 50.3472248,48.0418441 47.1464282,48.8994949 L20.1005051,56.1464282 C16.8997084,57.0040791 13.6096867,55.1045841 12.7520358,51.9037875 L8.61093111,36.4489743 C7.75328024,33.2481777 9.65277518,29.9581559 12.8535718,29.1005051 Z M17.8603421,45.807309 C17.7705984,45.4029342 18.0256572,45.002372 18.4300319,44.9126283 C18.8344067,44.8228845 19.2349689,45.0779434 19.3247126,45.4823181 C19.7464855,47.3827775 20.7743545,47.9775912 22.7613929,47.4451658 L36.9768637,43.6361419 C37.3769633,43.5289356 37.788216,43.7663724 37.8954224,44.166472 C38.0026288,44.5665716 37.7651919,44.9778243 37.3650923,45.0850307 L23.1496215,48.8940546 C20.3510484,49.64393 18.4702641,48.5555459 17.8603421,45.807309 Z M40.885055,17.1713599 C39.8234943,17.1778604 38.8048306,16.7528349 38.0626609,15.993749 C37.3204912,15.2346632 36.9184887,14.2066413 36.9488395,13.1454266 C36.9979791,10.9837041 38.781445,9.26629342 40.943342,9.29887072 C43.1052389,9.33144802 44.8361547,11.1018163 44.8201459,13.2640382 C44.804137,15.42626 43.0471973,17.1708013 40.885055,17.1713599 Z M40.885055,10.9982623 L40.885055,10.8864308 C40.272009,10.8856639 39.6855238,11.1365968 39.2627331,11.5805554 C38.8399424,12.0245141 38.6179161,12.6225729 38.6485689,13.2348918 C38.6485689,14.4701482 39.6498778,15.4715214 40.885055,15.4715214 C42.1202321,15.4715214 43.1215411,14.4701482 43.1215411,13.2348918 C43.1215411,11.9996354 42.1202321,10.9982623 40.885055,10.9982623 Z M29.8615258,21.8952445 C27.696189,21.8952794 25.9373786,20.146461 25.9250756,17.9811577 C25.9160177,16.387007 26.8693388,14.9447833 28.3395492,14.3284417 C29.8097596,13.7121002 31.5065524,14.0433432 32.6370115,15.16738 C33.7674706,16.2914169 34.1083763,17.9862959 33.5004224,19.4599953 C32.8924685,20.9336947 31.4557011,21.8952187 29.8615258,21.8952445 Z M29.8615258,15.7221705 C28.626275,15.7221705 27.6249063,16.7235398 27.6249063,17.9587915 C27.6249063,19.1940432 28.626275,20.1954125 29.8615258,20.1954125 C31.0967766,20.1954125 32.0981453,19.1940432 32.0981453,17.9587915 C32.0981453,16.7235398 31.0967766,15.7221705 29.8615258,15.7221705 Z M17.2646962,18.7459731 C16.2227467,18.7519271 15.2214286,18.3421846 14.4825509,17.6075106 C13.7436733,16.8728366 13.3282289,15.8738768 13.3282459,14.8319181 C13.3191881,13.2377804 14.2725092,11.7955684 15.7427196,11.1792318 C17.2129299,10.5628953 18.9097227,10.8941356 20.0401819,12.0181633 C21.170641,13.142191 21.5115467,14.8370563 20.9035928,16.3107437 C20.2956388,17.7844311 18.8588715,18.7459473 17.2646962,18.7459731 Z M17.2646962,12.5729493 C16.0294454,12.5729493 15.0280767,13.5743104 15.0280767,14.8095521 C15.0280767,16.0447937 16.0294454,17.0461549 17.2646962,17.0461549 C18.499947,17.0461549 19.5013156,16.0447937 19.5013156,14.8095521 C19.5013156,13.5743104 18.499947,12.5729493 17.2646962,12.5729493 Z M32.2234084,12.4476222 C29.6231947,12.4476509 27.5118753,10.3462426 27.4996677,7.74605612 C27.4906884,5.83348777 28.6358803,4.10424485 30.4002914,3.36610639 C32.1647025,2.62796793 34.2000943,3.02661891 35.5556769,4.375838 C36.9112594,5.72505709 37.319484,7.75855151 36.5896572,9.52641761 C35.8598304,11.2942837 34.1359967,12.4476012 32.2234084,12.4476222 Z M32.2234084,4.68560272 C30.5331676,4.68560272 29.1629567,6.05581438 29.1629567,7.74605612 C29.1629567,9.43629787 30.5331676,10.8065095 32.2234084,10.8065095 C33.9136492,10.8065095 35.2838601,9.43629787 35.2838601,7.74605612 C35.2838601,6.05581438 33.9136492,4.68560272 32.2234084,4.68560272 Z" id="Soap"></path>
                </g>
            </g>
        </g>
    </g>
</svg>
