<svg xmlns="http://www.w3.org/2000/svg" viewBox="0 0 64.32 43.96"><defs></defs><g id="Calque_2" data-name="Calque 2"><g id="grid_12" data-name="grid 12"><g id="_Groupe_" data-name="&lt;Groupe&gt;"><g id="_Groupe_2" data-name="&lt;Groupe&gt;"><path id="_Tracé_transparent_" data-name="&lt;Tracé transparent&gt;" class="cls-1" d="M17.1,13.22a13.08,13.08,0,0,0,.35,3C18.35,20,21,23,25.41,25a36.39,36.39,0,0,0,13.74,2.84l1.24,0H49a10.25,10.25,0,0,1-3.56,8.22.33.33,0,0,0,.22.57l.13,0c.19-.08,18.48-8.39,18.48-22.44,0-5.74-3.89-10-11.24-12.31A46.12,46.12,0,0,0,40.38,0,46.69,46.69,0,0,0,28,1.7c-7,2.09-10.76,6-10.9,11.2C17.11,13,17.1,13.11,17.1,13.22Zm29.35-.87h3.23v3.17H46.45Zm-4,3.17H39.6V12.35h3.23v3.17Zm-9.66-.6V12.35H36v3.17H32.76Z"/><path class="cls-1" d="M40.38,30.7c-.4,0-.84.08-1.32.07-.83,0-1.76,0-2.73-.11C32.92,33.26,27.66,35,21.76,35a29.26,29.26,0,0,1-6-.59l-.88-.17-.58.68c-.65.76-.57,1,.87,4.77l.18.48c-6.71-2-13.21-6-12.28-16.32.41-4.48,4.79-8.28,11-10.17,0-.14,0-.28,0-.42s0-.25,0-.4a13.5,13.5,0,0,1,.3-2.39C6.39,12.51.7,17.46.14,23.54c-.35,3.91-1.43,15.79,17.23,20.22l.89.21.6-.68c.67-.76.58-1-.83-4.7l-.32-.84a33.06,33.06,0,0,0,4.05.16c8,0,14.92-3.2,18.68-7.2Z"/></g></g></g></g></svg>
