<svg version="1.1"
   xmlns="http://www.w3.org/2000/svg" xmlns:xlink="http://www.w3.org/1999/xlink"
   x="0px" y="0px" viewBox="0 0 500 451" style="enable-background:new 0 0 500 451;"
   xml:space="preserve">
<defs>
</defs>
<g>
  <path class="st0" d="M267.1,451C267.1,451,267.1,451,267.1,451c-34.5,0-71.2-9.1-108.9-27c-23.9-11.3-143.7-72.4-157-161.7
    c-6-40.3,10.9-78.9,50.2-114.8C163,45.6,295.4,0,377.2,0c30.2,0,53.9,5.9,70.6,17.5c32.8,22.9,52.3,73.6,52.2,135.6
    c-0.2,66.2-21.9,135.1-61.1,194.1C393.1,416.1,335.3,451,267.1,451z M377.2,23.9c-74.7,0-203.4,44.2-309.7,141.2
    c-33.1,30.2-47.5,61.7-42.7,93.6c9,59.9,82.9,114.8,143.6,143.6c34.5,16.4,67.7,24.7,98.6,24.7c59.7,0,110.8-31.3,151.9-93
    c36.7-55.1,56.9-119.4,57.1-180.9c0.1-53.4-15.9-97.8-41.9-115.9C421.7,28.5,402.1,23.9,377.2,23.9z"/>
  <g>
    <path class="st0" d="M146.9,282.1c-11.6,0-50-5.9-50-21.3c0-5.5,4.8-10.7,10.6-10.7c1.9,0,3.5,0.5,5,1.4
      c11.8,6.2,21.3,9.3,34.8,9.3c8.1,0,24.9-1.4,24.9-12.6c0-21.6-68.9-10-68.9-54c0-25.6,25.6-31.7,46.5-31.7
      c10.7,0,28.4,2.4,37.9,7.1c4,1.9,6.7,5.2,6.7,9.7c0,5.9-5,10.9-10.9,10.9c-1.4,0-2.8-0.4-4.2-0.9c-9.5-3.5-18.8-5.5-29.2-5.5
      c-7.3,0-23.9,0.2-23.9,10.7c0,10.9,27.9,17.1,35.5,19.4c17.6,5.4,33.4,12.3,33.4,33.2C195.2,274.3,169.8,282.1,146.9,282.1z"/>
    <path class="st0" d="M267.7,236.2h-31.3v33.6c0,6.4-5.2,11.4-11.6,11.4c-6.4,0-11.4-5-11.4-11.4V176c0-6.4,5-11.4,11.4-11.4h42.9
      c29.9,0,42.2,17.3,42.2,36C309.9,219.3,297.6,236.2,267.7,236.2z M271,185.7h-34.6v29.2c0,0,20.8,0,34.6,0
      c11.2,0,15.7-7.4,15.7-14.4C286.7,193.7,282.2,185.7,271,185.7z"/>
    <path class="st0" d="M401.1,281.2c-4.3,0-8-2.4-9.7-6.2l-9.5-21.1h-50l-9.5,21.1c-1.7,3.8-5.5,6.2-9.7,6.2
      c-6.1,0-10.9-5-10.9-10.9c0-1.4,0.3-2.9,1-4.3l44.3-96.7c1.6-3.6,5.4-6.2,9.5-6.2c4.1,0,8.1,2.2,10,6.2l44.1,96.7
      c0.5,1.4,0.9,2.9,0.9,4.5C411.6,276.3,406.9,281.2,401.1,281.2z M356.8,198.3l-16.1,36H373L356.8,198.3z"/>
  </g>
</g>
</svg>
