<svg version="1.1" id="Calque_1" xmlns="http://www.w3.org/2000/svg" xmlns:xlink="http://www.w3.org/1999/xlink" x="0px" y="0px"
	 viewBox="0 0 500 500" style="enable-background:new 0 0 500 500;" xml:space="preserve">
<g id="Immerssive">
	<g id="Home-page-XL-Offers" transform="translate(-145.000000, -12.000000)">
		<g id="Group-2" transform="translate(145.000000, 0.000000)">
			<g id="Picto-Offers" transform="translate(0.000000, 12.000000)">
				<path id="Shape" d="M296.3,500c-13.1,0.1-25.6-5.1-34.7-14.4L14.4,238.5C5.1,229.3-0.1,216.8,0,203.7V49.2C0,22,22,0,49.2,0
					h154.6c13.1-0.1,25.6,5.1,34.7,14.4l247.1,247.1c19.2,19.2,19.2,50.3,0,69.5L331,485.6C321.8,494.8,309.3,500,296.3,500z
					 M49.2,25.4c-13.1,0-23.7,10.6-23.7,23.7v154.6c0,6.3,2.5,12.4,6.9,16.9l247.1,246.9c4.4,4.6,10.6,7.2,16.9,7.2
					s12.5-2.6,16.9-7.2L468,313.1c4.6-4.4,7.2-10.6,7.2-16.9s-2.6-12.5-7.2-16.9L220.5,32.4c-4.5-4.5-10.6-7-16.9-6.9H49.2z
					 M115.8,141.2c-14,0-25.4-11.4-25.4-25.4s11.4-25.4,25.4-25.4c14,0,25.4,11.4,25.4,25.4S129.8,141.2,115.8,141.2z"/>
			</g>
		</g>
	</g>
</g>
</svg>
