<?xml version="1.0" encoding="UTF-8"?>
<svg viewBox="0 0 34 49" version="1.1" xmlns="http://www.w3.org/2000/svg" xmlns:xlink="http://www.w3.org/1999/xlink">
    <!-- Generator: Sketch 53.2 (72643) - https://sketchapp.com -->
    <title>Combined Shape</title>
    <desc>Created with Sketch.</desc>
    <g id="Icons---Kids" stroke="none" stroke-width="1" fill="none" fill-rule="evenodd">
        <g id="Icons/Kids_icons_board" transform="translate(-206.000000, -169.000000)" fill="#005589" fill-rule="nonzero">
            <g id="Icons" transform="translate(16.000000, 104.000000)">
                <g id="Assets/Icons/Equipments/Baby/Baby-Spoon" transform="translate(177.000000, 59.000000)">
                    <path d="M33.4680178,26.8332524 L34.1031368,26.9800317 C37.7302051,27.8182658 40.7944856,25.6104686 43.1901034,20.9088039 C45.8582635,15.6722449 44.8962703,10.8354585 40.265707,8.47606862 C35.6351436,6.11667875 31.1566559,8.18140163 28.4884958,13.4179606 C26.1068797,18.0921453 26.0372547,21.7021792 28.6897722,24.1409516 C28.7162202,24.1652684 28.7456069,24.1911037 28.7777901,24.2183007 L29.2842649,24.646306 L28.92154,25.2014059 L15.187976,46.2164511 C13.7959046,48.6399847 14.4868175,50.5872066 17.4618532,52.3585428 C20.3777007,54.0946382 22.471528,53.7312304 24.0803907,51.2606715 L33.4680178,26.8332524 Z M25.4527655,51.8710714 L25.3847231,52.0057906 C23.3147827,55.2459976 20.3028392,55.7958112 16.6944734,53.6473904 C13.0591928,51.4829445 12.0564149,48.6567836 13.9097833,45.4326336 L27.3237652,24.9044053 C24.426692,21.927267 24.5989669,17.747557 27.151986,12.7369749 C30.1654755,6.82266873 35.4989242,4.36378213 40.9466927,7.13955883 C46.3944613,9.91533554 47.5401027,15.6754835 44.5266132,21.5897896 C41.9843942,26.5791753 38.5556675,29.2036538 34.4092204,28.5655997 L25.4527655,51.8710714 Z M31.9067153,13.8533622 C31.7377132,14.2315304 31.2941441,14.401093 30.9159759,14.2320909 C30.5378077,14.0630887 30.3682451,13.6195196 30.5372473,13.2413514 C31.6552355,10.7396811 33.8388959,9.24733922 36.993696,8.78670729 C37.4035637,8.72686257 37.7843408,9.01061222 37.8441855,9.42047986 C37.9040302,9.8303475 37.6202806,10.2111246 37.2104129,10.2709693 C34.5394612,10.6609546 32.8030727,11.8476251 31.9067153,13.8533622 Z" id="Combined-Shape"></path>
                </g>
            </g>
        </g>
    </g>
</svg>
