<svg xmlns="http://www.w3.org/2000/svg" viewBox="0 0 461.8 497.3"><path class="st0" d="M97.5 202.2c1.2 0 2.4 0 3.6-.2 20.9-2 36.3-20.6 34.4-41.4-1.9-20.5-20.5-36.3-41.5-34.3-20.9 2-36.3 20.6-34.3 41.5 1.8 19.6 18.1 34.4 37.8 34.4zM96 147.6c.5 0 1-.1 1.5-.1 8.5 0 15.8 6.6 16.6 15.1.8 9-6 17.2-15 18.1-.5 0-1.1.1-1.6.1-8.6 0-15.7-6.5-16.4-15-.9-9 6-17.3 14.9-18.2z"/><path class="st0" d="M13.8 257.3c22.1 17.5 61 1 81.6-10 2.9 7.8 6.7 17 10.7 26.6 5.5 13.3 11.3 27 14.3 36.8 4.2 13.5 2.7 19.2 2.4 20.2-.1.1-.1.2-.2.3L42.5 469c-2.5 4.3-1.7 9.7 1.8 13.1 5.5 5.3 15.7 15.2 28.8 15.2 7.1 0 15.1-2.9 23.6-11.1.6-.6 1.2-1.2 1.6-2 12.4-19.3 31.8-49.1 47.9-73.5l6.8 52.8c1.5 14.8 14.1 26 28.8 26 .9 0 1.8 0 2.7-.1 7.8-.7 14.6-4.5 19.4-10.5 4.6-5.9 6.7-13.3 6-21L194.4 315c-.2-1.6-.7-3-1.4-4.3-.3-2.4-.7-4.8-1.3-7.3-.2-.9-5.6-22.3-17.1-58.9-.1-.3-.2-.6-.3-.8-5.5-13.4-11.6-30.1-12.7-34.9 2.1-10.9 20.5-88.4 32.7-139.6 1.4-5.8-2.2-11.6-7.9-12.9-5.8-1.4-11.6 2.2-12.9 7.9-12.3 51.3-33 138.1-33.4 143.5-.1 2.1-.5 7.7 14.1 43.7 11.1 35.6 16.6 57.1 16.6 57.1 4.9 21.1-4.5 36.7-14.3 49.2-10.6 13.5-67.8 102.2-75.4 113.8-5.8 5.2-9.2 5.8-15.7.7l75.5-130c2.5-3.8 7.1-14.9-.1-38-3.4-10.7-9.3-24.9-15-38.6-6-14.4-12.2-29.2-13.9-36.6-.8-3.4-3.1-6.2-6.3-7.5-3.2-1.3-6.9-1-9.8.8-20.7 12.9-56.8 27.6-68.7 18.1-4.2-3.3-12.2-16.2 4.1-64.3 1.9-5.6-1.1-11.7-6.7-13.6-5.6-1.9-11.7 1.1-13.6 6.7-15.4 45.6-14.5 74.4 2.9 88.1zM173.3 371c1.6-2 3.2-4.2 4.8-6.5l10.4 95.6c.2 2.1-.3 4.1-1.5 5.6-.8 1-2.2 2.2-4.5 2.4-4.1.4-7.7-2.6-8.1-6.7v-.4l-9.9-77.5c4-5.9 7.2-10.4 8.8-12.5zM147.2 53.3c14.7 0 26.7-11.9 26.7-26.7 0-14.7-11.9-26.7-26.7-26.7-14.7 0-26.7 11.9-26.7 26.7 0 14.8 12 26.7 26.7 26.7zm76.9 14.1l224.4 53.2c.8.2 1.7.3 2.5.3 4.9 0 9.3-3.3 10.4-8.3 1.4-5.8-2.2-11.5-8-12.9L229.1 46.6c-5.8-1.4-11.5 2.2-12.9 8-1.4 5.7 2.2 11.5 7.9 12.8zm229.6 151.3l-224.4-56.1c-5.8-1.4-11.6 2.1-13 7.8-1.4 5.7 2.1 11.6 7.8 13l224.4 56.1c.9.2 1.7.3 2.6.3 4.8 0 9.2-3.3 10.4-8.1 1.4-5.7-2.1-11.5-7.8-13z"/></svg>
