<svg xmlns="http://www.w3.org/2000/svg" viewBox="0 0 388.3 493.8"><path class="st0" d="M121.6 102.6c28.3 0 51.3-23 51.3-51.3 0-28.3-23-51.3-51.3-51.3-28.3 0-51.3 23-51.3 51.3 0 28.3 23 51.3 51.3 51.3zm0-77.6c14.5 0 26.3 11.8 26.3 26.3s-11.8 26.3-26.3 26.3-26.3-11.8-26.3-26.3S107.1 25 121.6 25zM86.1 493.8c23.2 0 42.1-18.8 42.1-42.1 0-23.2-18.8-42.1-42.1-42.1-23.2 0-42.1 18.8-42.1 42.1.1 23.3 18.9 42.1 42.1 42.1"/><path class="st0" d="M10 291.7c6.8 1.4 13.4-3 14.8-9.7 23.9-116.8 51.1-133.1 58.9-135.3 5.6-1.6 10.2 1.2 12.3 2.9l91.6 235.8c.7 1.6 1.4 3.2 2.3 4.8 6.6 11.3 18.7 17.8 31.2 17.8 4.5 0 9-.8 13.3-2.6 3.6-1.4 6.7-3.5 9.6-5.9l20.5 51c.7 1.7 1.5 3.3 2.3 4.8 6.6 11.2 18.7 17.7 31.2 17.7 4.5 0 9-.8 13.3-2.6 18.4-7.4 27.3-28.4 20-46.6L207.9 104.3c-.4-2.3-1.9-13 6.3-20.6 9.1-8.4 42.6-23.8 157.5 15.8 6.5 2.3 13.7-1.2 15.9-7.7 2.3-6.5-1.2-13.6-7.7-15.9C284.7 43 225 39.6 197.2 65.3c-16.1 15-16 35.8-13.4 45.8.1.4.3.9.4 1.3L308.1 433c2.3 5.6-.5 12-6.1 14.3-5 2-10.8 0-13.6-4.6-.3-.4-.5-.9-.7-1.4L219.5 272c-2.6-6.4-9.9-9.5-16.3-6.9-6.4 2.6-9.5 9.9-6.9 16.3l34.5 85.8c.1.3.1.6.3.9 1.1 2.7 1.1 5.7-.1 8.4-1.2 2.7-3.3 4.8-6 5.9-5 2-10.8 0-13.5-4.6-.3-.5-.5-1-.7-1.3l-92.6-238.3c-.5-1.4-1.3-2.6-2.3-3.7-5.8-6.6-20.6-16.6-38.6-11.8-32.3 8.4-57.5 58.9-77 154.2-1.4 6.8 2.9 13.4 9.7 14.8z"/></svg>
