<svg xmlns="http://www.w3.org/2000/svg" viewBox="0 0 500 809.1"><path class="st0" d="M495.6 719.8l-74-172.1c-14.7-34.1-23.9-54.1-33.6-68.7-6.1-9.2-19.2-28.8-34.5-51.7-28.7-42.9-64.3-96.2-76.6-114.7-17.9-27-14.7-53.1-9.5-96.3L282.3 92l8.4-69.9C292 11.4 284.3 1.6 273.6.3c-10.7-1.3-20.5 6.4-21.8 17.1l-8.4 69.9-14.9 124.3c-5.6 46.7-10.1 83.7 15.8 122.7 12.3 18.6 48 72 76.7 114.9 15.3 22.9 28.4 42.5 34.5 51.6 8 12.1 16.8 31.3 30.2 62.5l74 172.1c3.3 7.7-.4 17-8.1 20.3-8.1 3.5-18.7-.3-22.7-8.2l-42.5-83.4L330 553.2c-2.4-4.7-6.6-8.3-11.7-9.8-5.1-1.6-10.6-1-15.2 1.6l-105.6 58.2c-16.4 9.1-23.9 16.7-24.9 37.3-.8 16.1-4.6 93.3-6.4 129.4h-11.7c-7.1 0-14.6-3.6-14.7-9.7-.4-17.8-2.3-113.6-2.7-140.4-.4-23.7 1.7-28.6 16-37.4 16-9.9 58.5-36.4 65.7-41 11.2-7.1 15.1-15.9 16.4-22.1 1.3-6.2 1.4-16.1-6.1-27.4-9-13.7-94.4-144.1-94.5-144.1-13.9-21.7-34.1-33-55.3-30.9-20.2 2-38.3 16.1-46.2 36.1-.1.2-.1.3-.2.5C18 394.6 12.5 410.1 10 417.1c-2 5.7-2 5.7-3.6 9.9l-.4 1.2c-9.3 24.5-7.6 47.8 4.7 65.7 12.5 18.1 34.8 28.9 59.7 28.9h65.9c10.8 0 19.6-8.8 19.6-19.6s-8.8-19.6-19.6-19.6h-66c-11.8 0-22.3-4.6-27.4-12-6.2-8.9-3.6-21-.4-29.6l.4-1.2c1.7-4.4 1.7-4.4 3.9-10.5 2.5-7 8-22.4 22.8-63.2 2.5-6.1 8-10.7 13.5-11.2 8.3-.8 15.2 7.9 18.7 13.3 0 0 77.2 117.7 92.7 141.3-12.4 7.8-47.7 29.8-61.9 38.6-32.7 20.2-35.1 44.3-34.6 71.4.4 26.8 2.3 122.8 2.7 140.7.6 26.9 24.3 48 53.9 48h30.3c10.4 0 19.1-8.2 19.6-18.6 0 0 6.2-126.8 7.3-148 0-1 .1-1.8.2-2.3 1.1-.7 2.6-1.6 4.6-2.7l87.7-48.4 47.1 92.6 42.5 83.4c9.9 19.4 30.3 30.9 51.3 30.9 7.4 0 14.9-1.5 21.9-4.5 27.5-12 40.3-44.2 28.5-71.8z"/><path class="st0" d="M123.5 301.5c40.6 0 73.7-32.8 73.7-73.2 0-40.4-32.6-73.3-72.8-73.3-40.6 0-73.7 32.9-73.7 73.3s32.7 73.2 72.8 73.2zm.9-107.2c18.5 0 33.6 15.3 33.6 34.1 0 18.4-15.8 34-34.5 34-18.5 0-33.6-15.3-33.6-34 0-18.5 15.8-34.1 34.5-34.1z"/></svg>
