<svg version="1.1" id="Calque_1" xmlns="http://www.w3.org/2000/svg" xmlns:xlink="http://www.w3.org/1999/xlink" x="0px" y="0px"
	 viewBox="0 0 500 500" style="enable-background:new 0 0 500 500;" xml:space="preserve">
<g>
	<g>
		<g>
			<g>
				<g>
					<g>
						<path class="st0" d="M157.3,396.9"/>
					</g>
				</g>
			</g>
		</g>
		<g>
			<g>
				<path class="st0" d="M439.8,492.3c-18.9,0-30.6-5.6-41-10.6c-9.6-4.6-18-8.6-32.2-8.6c-14.2,0-22.5,4-32.2,8.6
					c-10.4,5-22.2,10.6-41,10.6c-18.9,0-30.7-5.6-41.1-10.6c-9.6-4.6-18-8.6-32.2-8.6c-14.2,0-22.5,4-32.2,8.6
					c-10.4,5-22.2,10.6-41,10.6c-18.9,0-30.5-5.6-40.8-10.5c-5.1-2.4-7.3-8.6-4.8-13.7c2.4-5.1,8.6-7.3,13.7-4.8
					c9.1,4.4,17.7,8.5,32,8.5c14.2,0,22.5-4,32.2-8.6c10.4-5,22.2-10.6,41-10.6c18.9,0,30.6,5.6,41,10.6c9.6,4.6,18,8.6,32.2,8.6
					c14.2,0,22.5-4,32.2-8.6c10.4-5,22.2-10.6,41-10.6c18.9,0,30.7,5.6,41,10.6c9.6,4.6,18,8.6,32.2,8.6c14.2,0,22.8-4.1,32-8.5
					c5.1-2.4,11.2-0.3,13.7,4.8c2.4,5.1,0.3,11.3-4.8,13.7C470.3,486.7,458.7,492.3,439.8,492.3z"/>
			</g>
		</g>
	</g>
	<g>
		<path class="st0" d="M170.2,128.7c-23.2,0-42.1-18.9-42.1-42.1c0-23.2,18.9-42.1,42.1-42.1c23.2,0,42.1,18.9,42.1,42.1
			C212.3,109.8,193.4,128.7,170.2,128.7z M170.2,66.1c-11.3,0-20.4,9.2-20.4,20.4c0,11.3,9.2,20.4,20.4,20.4
			c11.3,0,20.4-9.2,20.4-20.4C190.6,75.3,181.4,66.1,170.2,66.1z"/>
	</g>
	<g>
		<path class="st0" d="M215.2,393.8c-6,0-10.9-4.9-10.9-10.9v-93.5c0-6,4.9-10.9,10.9-10.9c6,0,10.9,4.9,10.9,10.9v93.5
			C226.1,388.9,221.2,393.8,215.2,393.8z"/>
	</g>
	<g>
		<path class="st0" d="M254.5,393.8c-6,0-10.8-4.9-10.8-10.9V242.9c0-43.6-7.8-73.8-14.3-91.4c-1.3-3.5-0.7-7.5,1.6-10.5
			c18.1-23.1,64-95,37.5-121.5c-4.2-4.2-4.2-11.1,0-15.3c4.2-4.2,11.1-4.2,15.3,0c13.7,13.7,24.5,41.3-1.5,95.1
			c-10.8,22.4-24.3,41.7-30.7,50.3c6.6,19.8,13.6,50.8,13.6,93.3v140.1C265.4,388.9,260.5,393.8,254.5,393.8z"/>
	</g>
	<g>
		<path class="st0" d="M175.9,409.7c-6,0-10.9-4.9-10.9-10.9V242.9c0-40.5-4-62-7.3-72.8c-10.5,10.6-25.6,29.5-26.7,50.9
			c-0.9,15.9,6.3,31.2,21.4,45.5c4.3,4.1,4.5,11,0.4,15.3c-4.1,4.3-11,4.5-15.3,0.4c-19.9-18.9-29.3-40-28.1-62.5
			c2.4-43,43.4-74.6,45.2-75.9c3.9-3,9.3-2.9,13.2,0c5.7,4.4,19,22.9,19,99v155.9C186.8,404.8,181.9,409.7,175.9,409.7z"/>
	</g>
	<g>
		<path class="st0" d="M324.8,442.4C324.8,442.4,324.8,442.4,324.8,442.4l-204.7-1c-5.1,0-9.4-3.5-10.5-8.5
			c-1.1-4.9,1.3-10,5.9-12.2c4.2-2,102.5-49,164.9-49c21.8,0,37.6,5.8,47.1,17.2c8.9,10.7,11.6,25.8,8,44.7
			C334.5,438.6,330,442.4,324.8,442.4z M172.8,419.9l142.4,0.7c0.4-7.8-1.1-13.8-4.5-17.9c-5.1-6.2-15.3-9.3-30.4-9.3
			C249,393.4,205.7,407.2,172.8,419.9z"/>
	</g>
	<g>
		<path class="st0" d="M50.4,499c-9.3,0-18.7-4.4-26-12.6c-10.6-11.8-13.8-27.5-8-39.1c17.1-34.2,52.8-56.8,63.9-63.2
			c0,0,0.1-0.1,0.1-0.1l182-367.7c2.7-5.4,9.2-7.6,14.5-4.9c5.4,2.7,7.6,9.2,4.9,14.5L98.3,396.7c-0.3,0.5-0.5,1-0.9,1.5
			c-2.1,57.5-14.6,90.8-37.1,99C57.1,498.4,53.8,499,50.4,499z M74.8,413.8c-13.1,9.7-29.7,24.7-39,43.3c-1.5,2.9-0.1,9.5,4.8,14.9
			c1.5,1.7,6.8,7,12.3,4.9C56,475.7,70.4,467.5,74.8,413.8z"/>
	</g>
	<g>
		<path class="st0" d="M256.6,58.4"/>
	</g>
</g>
</svg>
