<?xml version="1.0" encoding="UTF-8"?>
<svg viewBox="0 0 500 495" version="1.1" xmlns="http://www.w3.org/2000/svg" xmlns:xlink="http://www.w3.org/1999/xlink">
    <!-- Generator: Sketch 52.3 (67297) - http://www.bohemiancoding.com/sketch -->
    <title>Path</title>
    <desc>Created with Sketch.</desc>
    <g id="Page-1" stroke="none" stroke-width="1" fill="none" fill-rule="evenodd">
        <path d="M490.541336,425.786963 L365.241336,300.486963 C359.541336,294.786963 350.341336,294.786963 344.741336,300.486963 C339.041336,306.186963 339.041336,315.386963 344.741336,320.986963 C344.741336,320.986963 344.741336,320.986963 344.741336,320.986963 L470.041336,446.286963 C472.941336,449.186963 468.841336,455.886963 465.241336,459.486963 C461.641336,463.086963 454.941336,467.186963 452.041336,464.286963 C452.041336,464.286963 303.641336,315.986963 297.841336,310.086963 C296.841336,309.086963 293.841336,306.086963 293.241336,303.586963 C292.641336,300.786963 296.441336,296.586963 298.141336,294.886963 C355.441336,237.586963 367.041336,121.086963 296.841336,50.8869633 C264.041336,18.1869633 220.141336,0.3869633 173.341336,0.9869633 C126.741336,1.4869633 83.0413355,19.8869633 50.1413355,52.7869633 C-17.2586645,120.186963 -16.6586645,230.586963 51.6413355,298.786963 C96.6413355,343.786963 165.241336,361.286963 226.541336,343.286963 C234.241336,340.986963 238.641336,332.986963 236.341336,325.286963 C234.041336,317.586963 226.041336,313.186963 218.341336,315.486963 C167.141336,330.486963 109.741336,315.886963 72.1413355,278.286963 C15.2413355,221.386963 14.5413355,129.386963 70.6413355,73.2869633 C127.841336,16.0869633 220.041336,15.2869633 276.141336,71.3869633 C302.441336,97.6869633 316.541336,134.886963 315.741336,175.986963 C314.941336,214.386963 300.641336,251.086963 277.441336,274.286963 C259.741336,291.986963 259.641336,312.986963 277.141336,330.486963 C282.941336,336.386963 431.341336,484.686963 431.341336,484.686963 C437.641336,490.986963 445.541336,494.186963 454.141336,494.186963 C456.441336,494.186963 458.841336,493.986963 461.341336,493.486963 C469.941336,491.786963 478.541336,486.886963 485.641336,479.886963 C492.641336,472.886963 497.541336,464.186963 499.241336,455.586963 C501.641336,444.386963 498.441336,433.786963 490.541336,425.786963 Z" id="Path" fill="#000000"></path>
    </g>
</svg>
