<svg viewBox="0 0 422 501" version="1.1" xmlns="http://www.w3.org/2000/svg" xmlns:xlink="http://www.w3.org/1999/xlink">
    <defs></defs>
    <g id="Page-1" stroke-width="1" fill-rule="evenodd">
        <g id="icon-confort">
            <path d="M53.1838819,397.794206 L76.781003,347.384794 L100.378124,397.794206 L153.151686,405.881221 L114.956346,445.114315 L123.985244,500.542526 L76.781003,474.383616 L29.5867607,500.542526 L38.6056604,445.124859 L0.410320225,405.881221 L53.1838819,397.794206 Z M60.0830402,437.754815 L56.1535196,461.994773 L76.781003,450.554862 L97.4184852,461.994773 L93.4789658,437.765359 L110.16693,420.610765 L87.0997441,417.068083 L76.781003,395.01067 L66.4522631,417.068083 L43.3950761,420.610765 L60.0830402,437.754815 Z M53.1838819,224.367273 L76.781003,173.957861 L100.378124,224.367273 L153.141687,232.454288 L114.956346,271.697925 L123.985244,327.115593 L76.781003,300.956682 L29.5867607,327.115593 L38.6056604,271.697925 L0.420319005,232.454288 L53.1838819,224.367273 Z M60.0830402,264.359513 L56.1535196,288.567839 L76.781003,277.127929 L97.4184852,288.567839 L93.4789658,264.359513 L110.176929,247.183832 L87.0997441,243.651693 L76.781003,221.583737 L66.4522631,243.651693 L43.3850773,247.183832 L60.0830402,264.359513 Z M76.7790032,0.542526056 L100.386123,50.9624815 L153.149686,59.0389528 L114.964345,98.2825902 L123.983244,153.700258 L76.7790032,127.541347 L29.5847609,153.700258 L38.6036606,98.2931339 L0.418319249,59.0389528 L53.1818821,50.9624815 L76.7790032,0.542526056 Z M60.0810404,90.9230902 L56.1515198,115.152504 L76.7790032,103.712594 L97.4264843,115.152504 L93.4769661,90.9336339 L110.16493,73.7579527 L87.0977444,70.2363582 L76.7790032,48.1789457 L66.4602621,70.2363582 L43.3930763,73.7579527 L60.0810404,90.9230902 Z M182.672084,100.495712 L182.672084,79.4083196 L421.462952,79.4083196 L421.462952,100.495712 L182.672084,100.495712 Z M182.672084,273.918428 L182.672084,252.820492 L421.462952,252.820492 L421.462952,273.918428 L182.672084,273.918428 Z M182.672084,447.3306 L182.672084,426.243207 L421.462952,426.243207 L421.462952,447.3306 L182.672084,447.3306 Z" id="icon"></path>
        </g>
    </g>
</svg>
