<svg viewBox="0 0 500 274" version="1.1" xmlns="http://www.w3.org/2000/svg" xmlns:xlink="http://www.w3.org/1999/xlink">
    <defs></defs>
    <g id="Page-1" stroke-width="1" fill-rule="evenodd">
        <g id="np_speaker_1073082_000000" fill-rule="nonzero">
            <path d="M313.227893,0 C303.007205,0 294.58324,8.42396483 294.58324,18.6446527 L294.58324,254.810253 C294.58324,265.030941 303.007205,273.454906 313.227893,273.454906 L481.029767,273.454906 C491.250455,273.454906 499.67442,265.030941 499.67442,254.810253 L499.67442,18.6446527 C499.67442,8.42396483 491.250455,0 481.029767,0 L313.227893,0 Z M313.227893,12.4297685 L481.029767,12.4297685 C484.586235,12.4297685 487.244651,15.088092 487.244651,18.6446527 L487.244651,254.810253 C487.244651,258.366721 484.586328,261.025138 481.029767,261.025138 L313.227893,261.025138 C309.671425,261.025138 307.013009,258.366814 307.013009,254.810253 L307.013009,18.6446527 C307.013009,15.0881852 309.671332,12.4297685 313.227893,12.4297685 Z M325.657661,24.8595369 C322.222384,24.8595369 319.442777,27.6392371 319.442777,31.0744211 C319.442777,34.5096052 322.222477,37.2893054 325.657661,37.2893054 C329.092845,37.2893054 331.872546,34.5096052 331.872546,31.0744211 C331.872546,27.6392371 329.092845,24.8595369 325.657661,24.8595369 Z M397.12883,24.8595369 C376.602621,24.8595369 359.839525,41.6226334 359.839525,62.1488423 C359.839525,82.6750512 376.602621,99.4381476 397.12883,99.4381476 C417.655039,99.4381476 434.418135,82.6750512 434.418135,62.1488423 C434.418135,41.6226334 417.655039,24.8595369 397.12883,24.8595369 Z M468.599999,24.8595369 C465.164721,24.8595369 462.385114,27.6392371 462.385114,31.0744211 C462.385114,34.5096052 465.164815,37.2893054 468.599999,37.2893054 C472.035183,37.2893054 474.814883,34.5096052 474.814883,31.0744211 C474.814883,27.6392371 472.035183,24.8595369 468.599999,24.8595369 Z M397.12883,37.2893054 C410.930223,37.2893054 421.988367,48.3474489 421.988367,62.1488423 C421.988367,75.9502357 410.930223,87.0083792 397.12883,87.0083792 C383.327437,87.0083792 372.269293,75.9502357 372.269293,62.1488423 C372.269293,48.3474489 383.327437,37.2893054 397.12883,37.2893054 Z M397.12883,49.7190738 C390.258586,49.7190738 384.699062,55.2785985 384.699062,62.1488423 C384.699062,69.019086 390.258586,74.5786107 397.12883,74.5786107 C403.999074,74.5786107 409.558598,69.019086 409.558598,62.1488423 C409.558598,55.2785985 403.999074,49.7190738 397.12883,49.7190738 Z M397.12883,124.297685 C362.875496,124.297685 334.979988,152.191949 334.979988,186.446527 C334.979988,220.701104 362.874253,248.595369 397.12883,248.595369 C431.383407,248.595369 459.277672,220.701104 459.277672,186.446527 C459.277672,152.191949 431.383407,124.297685 397.12883,124.297685 Z M397.12883,136.727453 C424.658903,136.727453 446.847904,158.916454 446.847904,186.446527 C446.847904,213.976599 424.658903,236.165601 397.12883,236.165601 C369.598757,236.165601 347.409756,213.976599 347.409756,186.446527 C347.409756,158.916454 369.598757,136.727453 397.12883,136.727453 Z M397.12883,149.157221 C376.602621,149.157221 359.839525,165.920318 359.839525,186.446527 C359.839525,206.972736 376.602621,223.735832 397.12883,223.735832 C417.655039,223.735832 434.418135,206.972736 434.418135,186.446527 C434.418135,165.920318 417.655039,149.157221 397.12883,149.157221 Z M397.12883,161.58699 C410.930223,161.58699 421.988367,172.645133 421.988367,186.446527 C421.988367,200.24792 410.930223,211.306064 397.12883,211.306064 C383.327437,211.306064 372.269293,200.24792 372.269293,186.446527 C372.269293,172.645133 383.327437,161.58699 397.12883,161.58699 Z M325.657661,236.165601 C322.222384,236.165601 319.442777,238.945301 319.442777,242.380485 C319.442777,245.815669 322.222477,248.595369 325.657661,248.595369 C329.092845,248.595369 331.872546,245.815669 331.872546,242.380485 C331.872546,238.945301 329.092845,236.165601 325.657661,236.165601 Z M468.599999,236.165601 C465.164721,236.165601 462.385114,238.945301 462.385114,242.380485 C462.385114,245.815669 465.164815,248.595369 468.599999,248.595369 C472.035183,248.595369 474.814883,245.815669 474.814883,242.380485 C474.814883,238.945301 472.035183,236.165601 468.599999,236.165601 Z" id="Shape-Copy-2"></path>
            <path d="M18.8514864,0 C8.63079857,0 0.206833741,8.42396483 0.206833741,18.6446527 L0.206833741,254.810253 C0.206833741,265.030941 8.63079857,273.454906 18.8514864,273.454906 L186.653361,273.454906 C196.874048,273.454906 205.298013,265.030941 205.298013,254.810253 L205.298013,18.6446527 C205.298013,8.42396483 196.874048,0 186.653361,0 L18.8514864,0 Z M18.8514864,12.4297685 L186.653361,12.4297685 C190.209828,12.4297685 192.868245,15.088092 192.868245,18.6446527 L192.868245,254.810253 C192.868245,258.366721 190.209921,261.025138 186.653361,261.025138 L18.8514864,261.025138 C15.2950189,261.025138 12.6366022,258.366814 12.6366022,254.810253 L12.6366022,18.6446527 C12.6366022,15.0881852 15.2949257,12.4297685 18.8514864,12.4297685 Z M31.2812549,24.8595369 C27.8459776,24.8595369 25.0663707,27.6392371 25.0663707,31.0744211 C25.0663707,34.5096052 27.8460708,37.2893054 31.2812549,37.2893054 C34.7164389,37.2893054 37.4961391,34.5096052 37.4961391,31.0744211 C37.4961391,27.6392371 34.7164389,24.8595369 31.2812549,24.8595369 Z M102.752423,24.8595369 C82.2262146,24.8595369 65.4631181,41.6226334 65.4631181,62.1488423 C65.4631181,82.6750512 82.2262146,99.4381476 102.752423,99.4381476 C123.278632,99.4381476 140.041729,82.6750512 140.041729,62.1488423 C140.041729,41.6226334 123.278632,24.8595369 102.752423,24.8595369 Z M174.223592,24.8595369 C170.788315,24.8595369 168.008708,27.6392371 168.008708,31.0744211 C168.008708,34.5096052 170.788408,37.2893054 174.223592,37.2893054 C177.658776,37.2893054 180.438476,34.5096052 180.438476,31.0744211 C180.438476,27.6392371 177.658776,24.8595369 174.223592,24.8595369 Z M102.752423,37.2893054 C116.553817,37.2893054 127.61196,48.3474489 127.61196,62.1488423 C127.61196,75.9502357 116.553817,87.0083792 102.752423,87.0083792 C88.9510301,87.0083792 77.8928866,75.9502357 77.8928866,62.1488423 C77.8928866,48.3474489 88.9510301,37.2893054 102.752423,37.2893054 Z M102.752423,49.7190738 C95.8821797,49.7190738 90.322655,55.2785985 90.322655,62.1488423 C90.322655,69.019086 95.8821797,74.5786107 102.752423,74.5786107 C109.622667,74.5786107 115.182192,69.019086 115.182192,62.1488423 C115.182192,55.2785985 109.622667,49.7190738 102.752423,49.7190738 Z M102.752423,124.297685 C68.4990891,124.297685 40.6035812,152.191949 40.6035812,186.446527 C40.6035812,220.701104 68.4978461,248.595369 102.752423,248.595369 C137.007001,248.595369 164.901266,220.701104 164.901266,186.446527 C164.901266,152.191949 137.007001,124.297685 102.752423,124.297685 Z M102.752423,136.727453 C130.282496,136.727453 152.471497,158.916454 152.471497,186.446527 C152.471497,213.976599 130.282496,236.165601 102.752423,236.165601 C75.2223508,236.165601 53.0333497,213.976599 53.0333497,186.446527 C53.0333497,158.916454 75.2223508,136.727453 102.752423,136.727453 Z M102.752423,149.157221 C82.2262146,149.157221 65.4631181,165.920318 65.4631181,186.446527 C65.4631181,206.972736 82.2262146,223.735832 102.752423,223.735832 C123.278632,223.735832 140.041729,206.972736 140.041729,186.446527 C140.041729,165.920318 123.278632,149.157221 102.752423,149.157221 Z M102.752423,161.58699 C116.553817,161.58699 127.61196,172.645133 127.61196,186.446527 C127.61196,200.24792 116.553817,211.306064 102.752423,211.306064 C88.9510301,211.306064 77.8928866,200.24792 77.8928866,186.446527 C77.8928866,172.645133 88.9510301,161.58699 102.752423,161.58699 Z M31.2812549,236.165601 C27.8459776,236.165601 25.0663707,238.945301 25.0663707,242.380485 C25.0663707,245.815669 27.8460708,248.595369 31.2812549,248.595369 C34.7164389,248.595369 37.4961391,245.815669 37.4961391,242.380485 C37.4961391,238.945301 34.7164389,236.165601 31.2812549,236.165601 Z M174.223592,236.165601 C170.788315,236.165601 168.008708,238.945301 168.008708,242.380485 C168.008708,245.815669 170.788408,248.595369 174.223592,248.595369 C177.658776,248.595369 180.438476,245.815669 180.438476,242.380485 C180.438476,238.945301 177.658776,236.165601 174.223592,236.165601 Z" id="Shape-Copy-3"></path>
        </g>
    </g>
</svg>
