<?xml version="1.0" encoding="UTF-8"?>
<svg viewBox="0 0 26 49" version="1.1" xmlns="http://www.w3.org/2000/svg" xmlns:xlink="http://www.w3.org/1999/xlink">
    <!-- Generator: Sketch 53.2 (72643) - https://sketchapp.com -->
    <title>Sterelizer</title>
    <desc>Created with Sketch.</desc>
    <g id="Icons---Kids" stroke="none" stroke-width="1" fill="none" fill-rule="evenodd">
        <g id="Icons/Kids_icons_board" transform="translate(-92.000000, -227.000000)" fill="#005589" fill-rule="nonzero">
            <g id="Icons" transform="translate(16.000000, 104.000000)">
                <g id="Assets/Icons/Equipments/Baby/Sterelizer" transform="translate(59.000000, 118.000000)">
                    <path d="M18.5,20.5 L18.5,51 C18.5,51.8284271 19.1715729,52.5 20,52.5 L40,52.5 C40.8284271,52.5 41.5,51.8284271 41.5,51 L41.5,20.5 L18.5,20.5 Z M18,19 L42,19 C42.5522847,19 43,19.4477153 43,20 L43,51 C43,52.6568542 41.6568542,54 40,54 L20,54 C18.3431458,54 17,52.6568542 17,51 L17,20 C17,19.4477153 17.4477153,19 18,19 Z M23.517997,16 C23.7732401,13.8805239 24.3186595,12.943157 25.8415865,11.7935685 C27.1889831,10.77648 27.8572058,9.41582731 27.8572149,7.66291695 C27.8483999,6.09241226 28.5501355,5.11147616 29.9198068,5.00892329 L29.9198068,5 C29.9610651,5 30.0017823,5.00072792 30.0419572,5.00217706 C30.0821322,5.00072792 30.1228493,5 30.1641076,5 L30.1641076,5.00892329 C31.5337789,5.11147616 32.2355145,6.09241226 32.2266996,7.66291695 C32.2267086,9.41582731 32.8949313,10.77648 34.2423279,11.7935685 C35.7801047,12.9543665 36.206076,13.8740582 36.4805494,16 L38.25,16 C38.6642136,16 39,16.3357864 39,16.75 C39,17.1642136 38.6642136,17.5 38.25,17.5 L21.75,17.5 C21.3357864,17.5 21,17.1642136 21,16.75 C21,16.3357864 21.3357864,16 21.75,16 L23.517997,16 Z M26.1671786,16 L33.9167359,16 C33.9707994,14.3294225 33.7861352,13.6472732 32.6347433,12.7781398 C30.9328439,11.4934531 30.2829006,9.76050703 30.0419572,8.46741062 C29.8010139,9.76050703 29.1510705,11.4934531 27.4491711,12.7781398 C26.2977792,13.6472732 26.113115,14.3294225 26.1671786,16 Z" id="Sterelizer"></path>
                </g>
            </g>
        </g>
    </g>
</svg>
