<svg version="1.1"
	 xmlns="http://www.w3.org/2000/svg" xmlns:xlink="http://www.w3.org/1999/xlink"
	 x="0px" y="0px" viewBox="0 0 333 499.5" style="enable-background:new 0 0 333 499.5;"
	 xml:space="preserve">
<path id="Rectangle-4_3_" class="st0" d="M33.3,0L33.3,0c18.4,0,33.3,14.9,33.3,33.3v432.9c0,18.4-14.9,33.3-33.3,33.3l0,0
	C14.9,499.5,0,484.5,0,466.2V33.3C0,14.9,14.9,0,33.3,0z"/>
<path id="Rectangle-4_2_" class="st0" d="M299.7,0L299.7,0C318.1,0,333,14.9,333,33.3v432.9c0,18.4-14.9,33.3-33.3,33.3l0,0
	c-18.4,0-33.3-14.9-33.3-33.3V33.3C266.4,14.9,281.3,0,299.7,0z"/>
</svg>
