<svg version="1.1" id="Calque_1" xmlns="http://www.w3.org/2000/svg" xmlns:xlink="http://www.w3.org/1999/xlink" x="0px" y="0px"
	 viewBox="0 0 44.6 44.6" style="enable-background:new 0 0 44.6 44.6;" xml:space="preserve">
<path d="M29.5,4.5c-4.3-4.3-11.3-4.3-15.6,0c-4.3,4.3-4.3,11.3,0,15.6c6.6,7.6,6.3,12.7,7.8,12.7c1.5,0,1.2-5.1,7.8-12.7
	C33.8,15.8,33.8,8.8,29.5,4.5 M21.8,17.5c-3,0-5.5-2.5-5.5-5.5c0-3,2.5-5.5,5.5-5.5c3,0,5.5,2.5,5.5,5.5
	C27.3,15.1,24.8,17.5,21.8,17.5"/>
<path d="M17.3,43.2c0,0-0.1,0-0.1,0c-3-0.8-6-1.8-8.9-2.9C8.1,40.3,8,40.1,8,39.8l1.7-18.7c0-0.2,0.1-0.3,0.2-0.4
	c0.1-0.1,0.3-0.1,0.4,0c2.5,1,5,1.9,7.5,2.7c2.5-0.7,5.1-1.4,7.6-2.3c0.1,0,0.2,0,0.3,0c2.6,0.7,5.2,1.3,7.8,1.8
	c0.2,0,0.4,0.2,0.4,0.4L35.7,42c0,0.1,0,0.1,0,0.2c0,0.3-0.2,0.5-0.5,0.5c0,0,0,0,0,0c0,0-0.1,0-0.1,0c-2.9-0.5-5.9-1.1-8.9-1.8
	c-2.9,0.9-5.8,1.6-8.8,2.3C17.4,43.2,17.4,43.2,17.3,43.2z M9,39.5c2.8,1,5.6,1.9,8.3,2.7c2.9-0.7,5.8-1.4,8.7-2.3
	c0.1,0,0.2,0,0.3,0c2.7,0.6,5.5,1.2,8.3,1.7L33,23.9c-2.5-0.5-4.9-1.1-7.4-1.7c-2.5,0.8-5.1,1.6-7.6,2.3c-0.1,0-0.2,0-0.3,0
	c-2.4-0.8-4.8-1.6-7.1-2.5L9,39.5z"/>
<polygon points="17.7,23.4 18.2,23.4 18.7,23.4 18.4,33.4 18.1,43.4 17.6,43.4 17.1,43.4 17.4,33.4 "/>
<polygon points="24.8,22.4 24.9,31.4 25.1,40.4 24.6,40.4 24.1,40.4 23.9,31.4 23.8,22.4 24.3,22.4 "/>
</svg>
