<?xml version="1.0" encoding="UTF-8"?>
<svg viewBox="0 0 49 44" version="1.1" xmlns="http://www.w3.org/2000/svg" xmlns:xlink="http://www.w3.org/1999/xlink">
    <!-- Generator: Sketch 53.2 (72643) - https://sketchapp.com -->
    <title>Stroller</title>
    <desc>Created with Sketch.</desc>
    <g id="Icons---Kids" stroke="none" stroke-width="1" fill="none" fill-rule="evenodd">
        <g id="Icons/Kids_icons_board" transform="translate(-313.000000, -113.000000)" fill="#005589" fill-rule="nonzero">
            <g id="Icons" transform="translate(16.000000, 104.000000)">
                <g id="Assets/Icons/Equipments/Baby/Stroller" transform="translate(295.000000, 0.000000)">
                    <path d="M10.5952947,19.6001141 L6.1168697,16.4936951 C4.42923778,15.5307599 3.76070915,15.6702232 3.47786424,16.8037283 C3.37758002,17.2056188 2.97048701,17.450119 2.56859653,17.3498348 C2.16670606,17.2495506 1.92220588,16.8424575 2.02249009,16.4405671 C2.58801236,14.1742282 4.41173822,13.7937768 6.91571613,15.2258046 L10.9212359,18.0012575 L18.2555398,9.52114631 C18.3950888,9.35979623 18.5749547,9.25394273 18.7672446,9.20560674 C18.9054078,9.09971364 19.0730258,9.02854057 19.2584728,9.00680111 C19.3043133,9.00142734 19.350471,8.99923363 19.3966146,9.00023573 L33.8189447,9.31344741 C34.3710969,9.32543841 34.8089841,9.78276684 34.7969931,10.3349191 C34.7947686,10.4373517 34.7768154,10.5388341 34.7437621,10.6358128 C33.5253374,14.2106897 32.3054216,16.6561629 31.0840149,17.9722324 C29.8263011,19.3274229 26.6370586,21.5645916 21.5162876,24.6837383 C21.4486174,24.7249501 21.377992,24.757173 21.3058039,24.7807454 L21.337104,25.1351216 C21.3402014,25.1701908 21.3414493,25.2049967 21.3409282,25.239443 L34.5304011,34.3072057 C34.5856416,34.2735134 34.6442959,34.2450953 34.7056353,34.2225142 L49.227887,28.8763798 C49.7461678,28.685583 50.3209888,28.9510612 50.5117856,29.4693421 C50.6039617,29.7197293 50.5922534,29.9965697 50.4792654,30.23828 L45.0281321,41.8996496 C44.9960168,41.9683525 44.9570886,42.031694 44.9125287,42.0892457 C44.8946115,42.2466822 44.8389152,42.4021384 44.7428849,42.5418188 C44.5563289,42.8131731 44.2481397,42.97529 43.918843,42.97529 L27.2692081,42.97529 C28.2715953,44.0102188 28.8885237,45.4207087 28.8885237,46.97529 C28.8885237,50.1509273 26.314161,52.72529 23.1385237,52.72529 C19.9628864,52.72529 17.3885237,50.1509273 17.3885237,46.97529 C17.3885237,43.7996526 19.9628864,41.22529 23.1385237,41.22529 C23.5743276,41.22529 23.9988077,41.273773 24.4068645,41.3656397 L16.6282496,24.2526869 C16.5606915,24.104059 16.5325318,23.9475603 16.5393691,23.7949286 L10.8167115,19.8108633 C10.7302882,19.7506961 10.6562849,19.6793426 10.5952947,19.6001141 Z M20.0457648,10.5146871 L20.3730571,14.2202638 L21.4017423,22.9953911 C26.0128162,20.1619546 28.9056045,18.1144187 29.9845507,16.9518508 C30.9616887,15.8989817 32.0205231,13.8351996 33.0991572,10.7981694 L20.0457648,10.5146871 Z M18.5419099,11.4830556 L12.1295794,18.8971574 L17.8751983,22.8972082 C17.9556133,22.9259461 18.0329665,22.9652194 18.1051449,23.014842 L19.7434766,24.1411951 L18.8807613,14.373604 L18.5419099,11.4830556 Z M18.7754866,25.3516944 L26.1043936,41.47529 L42.3090026,41.47529 L20.0692905,26.1854879 C19.9630081,26.1554836 19.8616315,26.1078593 19.7696192,26.0438011 L18.7754866,25.3516944 Z M48.6058745,30.7037773 L36.1241232,35.2987342 L43.920672,40.7266248 L48.6058745,30.7037773 Z M23.1385237,51.22529 C25.4857339,51.22529 27.3885237,49.3225001 27.3885237,46.97529 C27.3885237,44.6280798 25.4857339,42.72529 23.1385237,42.72529 C20.7913135,42.72529 18.8885237,44.6280798 18.8885237,46.97529 C18.8885237,49.3225001 20.7913135,51.22529 23.1385237,51.22529 Z M46.6385237,51.72529 C44.2913135,51.72529 42.3885237,49.8225001 42.3885237,47.47529 C42.3885237,45.1280798 44.2913135,43.22529 46.6385237,43.22529 C48.9857339,43.22529 50.8885237,45.1280798 50.8885237,47.47529 C50.8885237,49.8225001 48.9857339,51.72529 46.6385237,51.72529 Z M46.6385237,50.22529 C48.1573068,50.22529 49.3885237,48.994073 49.3885237,47.47529 C49.3885237,45.9565069 48.1573068,44.72529 46.6385237,44.72529 C45.1197406,44.72529 43.8885237,45.9565069 43.8885237,47.47529 C43.8885237,48.994073 45.1197406,50.22529 46.6385237,50.22529 Z" id="Stroller"></path>
                </g>
            </g>
        </g>
    </g>
</svg>
