<svg viewBox="0 0 501 335" version="1.1" xmlns="http://www.w3.org/2000/svg" xmlns:xlink="http://www.w3.org/1999/xlink">
    <defs></defs>
    <g id="Page-1" stroke-width="1" fill-rule="evenodd">
        <g id="suite" transform="translate(0.000000, -0.590506)" fill-rule="nonzero">
            <path d="M453.458348,0.81 L47.201652,0.81 C21.3395947,0.868911521 0.388911521,21.8195947 0.33,47.681652 L0.33,288.093051 C0.388911521,313.955109 21.3395947,334.905792 47.201652,334.964703 L75.485346,334.964703 C79.9230315,334.964703 83.5204864,331.367248 83.5204864,326.929563 C83.5204864,322.491877 79.9230315,318.894423 75.485346,318.894423 L47.201652,318.894423 C30.202753,318.864936 16.4297671,305.09195 16.4002807,288.093051 L16.4002807,47.681652 C16.4297671,30.682753 30.202753,16.9097671 47.201652,16.8802807 L357.090231,16.8802807 L357.090231,65.4125284 C357.090231,69.8502139 360.687686,73.4476687 365.125372,73.4476687 C369.563057,73.4476687 373.160512,69.8502139 373.160512,65.4125284 L373.160512,16.8802807 L453.511916,16.8802807 C470.510815,16.9097671 484.2838,30.682753 484.313287,47.681652 L484.313287,288.093051 C484.2838,305.09195 470.510815,318.864936 453.511916,318.894423 L373.160512,318.894423 L373.160512,155.941776 C373.160512,151.504091 369.563057,147.906636 365.125372,147.906636 C360.687686,147.906636 357.090231,151.504091 357.090231,155.941776 L357.090231,318.894423 L189.477204,318.894423 C185.039518,318.894423 181.442063,322.491877 181.442063,326.929563 C181.442063,331.367248 185.039518,334.964703 189.477204,334.964703 L453.458348,334.964703 C479.320405,334.905792 500.271088,313.955109 500.33,288.093051 L500.33,47.681652 C500.271088,21.8195947 479.320405,0.868911521 453.458348,0.81 Z" id="Shape"></path>
        </g>
    </g>
</svg>
