<svg viewBox="0 0 492 482" version="1.1" xmlns="http://www.w3.org/2000/svg" xmlns:xlink="http://www.w3.org/1999/xlink">
    <defs></defs>
    <g id="Page-1" stroke-width="1" fill-rule="evenodd">
        <g id="Group-3" transform="translate(-4.000000, -9.000000)">
            <path d="M250.235404,9.00274845 C254.93442,9.00274845 258.743725,12.8120535 258.743725,17.5110694 L258.743725,108.728185 L241.727083,108.728185 L241.727083,17.5110694 C241.727083,12.8120535 245.536388,9.00274845 250.235404,9.00274845 Z M372.706913,41.7399918 C376.77638,44.0894997 378.170683,49.2931072 375.821175,53.3625744 L330.212617,132.358914 L315.475773,123.850593 L361.084331,44.8542534 C363.433839,40.7847862 368.637446,39.3904838 372.706913,41.7399918 Z M462.909751,129.468233 C465.259259,133.5377 463.864956,138.741308 459.795489,141.090816 L380.79915,186.699374 L372.290829,171.962529 L451.287168,126.353972 C455.356635,124.004464 460.560243,125.398766 462.909751,129.468233 Z M495.789505,250.005887 C495.789505,254.704903 491.9802,258.514208 487.281184,258.514208 L396.064068,258.514208 L396.064068,241.497566 L487.281184,241.497566 C491.9802,241.497566 495.789505,245.306871 495.789505,250.005887 Z M462.824196,370.434776 C460.474688,374.504243 455.271081,375.898546 451.201613,373.549038 L372.205274,327.94048 L380.713595,313.203636 L459.709934,358.812193 C463.779402,361.161701 465.173704,366.365309 462.824196,370.434776 Z M372.699872,458.165122 C368.630405,460.51463 363.426798,459.120328 361.07729,455.050861 L315.468732,376.054521 L330.205576,367.5462 L375.814134,446.54254 C378.163642,450.612007 376.76934,455.815614 372.699872,458.165122 Z M250.190972,490.969832 C245.491956,490.969832 241.682651,487.160527 241.682651,482.461511 L241.682651,391.244395 L258.699293,391.244395 L258.699293,482.461511 C258.699293,487.160527 254.889988,490.969832 250.190972,490.969832 Z M127.391056,458.648047 C123.321589,456.298539 121.927286,451.094932 124.276794,447.025465 L169.885352,368.029125 L184.622196,376.537446 L139.013639,455.533786 C136.664131,459.603253 131.460523,460.997555 127.391056,458.648047 Z M37.0069034,370.478747 C34.6573954,366.40928 36.0516978,361.205672 40.121165,358.856164 L119.117504,313.247606 L127.625825,327.984451 L48.629486,373.593009 C44.5600188,375.942517 39.3564113,374.548214 37.0069034,370.478747 Z M4.65971726,250.011158 C4.65971726,245.312142 8.46902231,241.502837 13.1680382,241.502837 L104.385154,241.502837 L104.385154,258.519479 L13.1680382,258.519479 C8.46902231,258.519479 4.65971726,254.710173 4.65971726,250.011158 Z M36.9657803,129.478207 C39.3152882,125.408739 44.5188957,124.014437 48.5883629,126.363945 L127.584702,171.972503 L119.076381,186.709347 L40.0800419,141.100789 C36.0105747,138.751281 34.6162723,133.547674 36.9657803,129.478207 Z M126.885942,41.2623372 C130.95541,38.9128293 136.159017,40.3071317 138.508525,44.3765989 L184.117083,123.372938 L169.380239,131.881259 L123.771681,52.8849199 C121.422173,48.8154527 122.816475,43.6118452 126.885942,41.2623372 Z" id="Combined-Shape"></path>
            <path d="M250.235404,358.041777 C189.148197,358.041777 139.627231,309.672461 139.627231,250.005887 C139.627231,190.339313 189.148197,141.969997 250.235404,141.969997 C311.322611,141.969997 360.843576,190.339313 360.843576,250.005887 C360.843576,309.672461 311.322611,358.041777 250.235404,358.041777 Z M250.235404,341.420871 C301.924579,341.420871 343.826934,300.492988 343.826934,250.005887 C343.826934,199.518786 301.924579,158.590903 250.235404,158.590903 C198.546228,158.590903 156.643873,199.518786 156.643873,250.005887 C156.643873,300.492988 198.546228,341.420871 250.235404,341.420871 Z" id="Oval-2" fill-rule="nonzero"></path>
        </g>
    </g>
</svg>
