<svg version="1.1"
   xmlns="http://www.w3.org/2000/svg" xmlns:xlink="http://www.w3.org/1999/xlink"
   x="0px" y="0px" viewBox="0 0 500 510.2" style="enable-background:new 0 0 500 510.2;"
   xml:space="preserve">
<defs>
</defs>
<g>
  <path class="st0" d="M498.7,479c-3.2-6.6-11.1-9.4-17.7-6.2c-11.8,5.6-22.9,10.9-41.2,10.9c-18.3,0-29.1-5.1-41.5-11.1
    c-13.4-6.4-28.6-13.7-53-13.7c-16.4,0-28.6,3.3-38.9,7.4c-0.5-3.5-1.5-7.2-3-10.9c-0.7-1.7-21.2-52.2-25.2-62.2
    c-7.6-18.9-23.9-29.8-44.8-29.8l-41.6,0L147,311.2c-4.8-5.6-13.1-6.2-18.7-1.5c-5.6,4.8-6.2,13.1-1.5,18.7l48.8,57
    c2.5,2.9,6.2,4.6,10.1,4.6l47.7,0c9.9,0,16.6,4.4,20.2,13.2c2,5.1,22.7,56.1,25.2,62.3c3.5,8.6,0.3,10.9-1.1,11.9
    c-1.9,1.4-5.7,2.7-9.7,3.7l-23.8-58.6c-3.5-8.5-12.6-14.6-21.8-14.6h-49c-12.7,0-28.6,0-38.5-10.6c-2.9-3.6-30-37.2-52.8-67
    c-5.3-6.9-6.9-15.4-4.3-22.6c2.4-6.6,7.9-11.2,15.5-13.1c19.4-4.6,82.6-20.1,83.2-20.3c3.8-0.9,6.9-3.5,8.7-6.9l17.9-35.6
    l127.6,206.4c2.5,4,6.8,6.3,11.3,6.3c2.1,0,4.3-0.5,6.3-1.6l109.1-59.1c4.3-2.3,6.9-6.8,6.9-11.7c0-187.1-103.9-278.5-191.1-322.2
    C179.8,3.1,87.8,0.1,83.9,0C79-0.1,74.5,2.4,72,6.6c-2.4,4.2-2.3,9.4,0.2,13.6l114.5,185.2l-22.5,44.7
    c-13.4,3.3-46.4,11.4-66.4,16.2c0.8-3.5,1.2-7.1,1.2-10.8c0-27.3-22.2-49.6-49.6-49.6C22.2,206,0,228.2,0,255.5
    C0,282.8,22.2,305,49.5,305c0.5,0,1-0.1,1.6-0.1c-3,14.1,0.6,29.2,10,41.5c24.3,31.7,53.2,67.6,53.5,67.9c0.2,0.2,0.3,0.4,0.5,0.6
    c17.3,19.1,41.8,19.6,57.1,19.6c0.4,0,48.2,0,48.2,0l19.8,48.6c-12.3-1.6-21-5.7-30.9-10.4c-13.4-6.4-28.6-13.7-53-13.7
    s-39.5,7.3-53,13.7c-12.4,5.9-23.2,11.1-41.5,11.1c-18.3,0-29.5-5.3-41.2-10.9c-6.6-3.2-14.5-0.4-17.7,6.2
    c-3.2,6.6-0.4,14.5,6.2,17.7c13.3,6.3,28.3,13.5,52.7,13.5c24.3,0,39.5-7.3,53-13.7c12.4-5.9,23.2-11.1,41.5-11.1
    c18.3,0,29.1,5.1,41.5,11.1c13.4,6.4,28.6,13.7,53,13.7c24.3,0,39.5-7.3,53-13.7c12.4-5.9,23.2-11.1,41.5-11.1s29.1,5.1,41.5,11.1
    c13.4,6.4,28.6,13.7,53,13.7c24.3,0,39.4-7.2,52.7-13.5C499.1,493.5,501.9,485.6,498.7,479z M262.1,74
    c114.4,57.7,173.4,155.3,175.6,290.3l-91.1,49.4L108.7,28.7C141.8,32.8,202.3,43.9,262.1,74z M26.5,255.5c0-12.5,10.5-23,23-23
    c12.5,0,23,10.6,23,23c0,12.5-10.6,23-23,23C36.6,278.5,26.5,268.4,26.5,255.5z"/>
</g>
</svg>
