<svg viewBox="0 0 16 16" xmlns="http://www.w3.org/2000/svg">
    <path d="M7.999 3.119c-1.083 0-1.963.87-1.963 1.94 0 1.068.88 1.939 1.963 1.939 1.082 0 1.963-.87 1.963-1.94 0-1.07-.881-1.94-1.963-1.94M8 9.053c3.691 0 4 2.418 4 4.683 0 .198-.162.36-.364.36a.362.362 0 01-.363-.36c0-2.169-.247-3.964-3.273-3.964-3.026 0-3.273 1.795-3.273 3.964 0 .198-.162.36-.363.36a.362.362 0 01-.364-.36c0-2.265.31-4.683 4-4.683zM7.999 2.4c1.483 0 2.69 1.192 2.69 2.658S9.482 7.716 8 7.716c-1.484 0-2.69-1.192-2.69-2.658S6.514 2.4 7.998 2.4z"
          fill="#FFF" fill-rule="nonzero"/>
</svg>
