<svg version="1.1" id="Calque_1" xmlns="http://www.w3.org/2000/svg" xmlns:xlink="http://www.w3.org/1999/xlink" x="0px" y="0px"
	 viewBox="0 0 200 200" style="enable-background:new 0 0 200 200;" xml:space="preserve">

<g>
	<path class="st0" d="M27.3,120.4c2.3,0,4.2-1.9,4.2-4.2v-14.5c0.7,1.2,2,2.1,3.6,2.1h25.7c0.9,0,1.7-0.3,2.4-0.8v3.5
		c0,2.3,1.9,4.2,4.2,4.2s4.2-1.9,4.2-4.2V49.2c0-2.3-1.9-4.2-4.2-4.2c-2.3,0-4.2,1.9-4.2,4.2v25.7c-0.7-0.5-1.5-0.8-2.4-0.8H35.1
		c-1.6,0-3,0.8-3.6,2.1v-27c0-2.3-1.9-4.2-4.2-4.2s-4.2,1.9-4.2,4.2v66.9C23,118.5,24.9,120.4,27.3,120.4z M35.1,82.7h25.7
		c0.9,0,1.7-0.3,2.4-0.8v14.4c-0.7-0.5-1.5-0.8-2.4-0.8H35.1c-1.6,0-3,0.8-3.6,2.1V80.5C32.1,81.7,33.5,82.7,35.1,82.7z"/>
	<path class="st0" d="M80.9,95.7h109.7c2.3,0,4.2-1.9,4.2-4.2s-1.9-4.2-4.2-4.2H80.9c-2.3,0-4.2,1.9-4.2,4.2S78.6,95.7,80.9,95.7z"
		/>
	<path class="st0" d="M9.3,95.7h6.2c2.3,0,4.2-1.9,4.2-4.2s-1.9-4.2-4.2-4.2H9.3c-2.3,0-4.2,1.9-4.2,4.2S6.9,95.7,9.3,95.7z"/>
	<path class="st0" d="M189.1,122c-9,3.2-12.1,3.6-16.5,3.6c-5.6,0-9.9-1.9-14.9-4.2c-5.6-2.6-12.1-5.4-20.8-5.4
		c-8.7,0-15.6,2.8-21.6,5.4c-5.2,2.1-9.8,4-15.2,4c-5.5,0-10.1-1.9-15.3-4.2c-5.9-2.6-12.6-5.4-21.5-5.4s-15.7,2.8-21.9,5.2
		c-5.5,2.3-10.3,4.2-16.1,4.2c-4.2,0-8.1-0.9-13.2-3.2c-0.3-0.1-0.5-0.3-0.8-0.3l-0.7-0.3c-2.1-0.8-4.6,0.4-5.4,2.7
		c-0.8,2.1,0.4,4.6,2.7,5.4l0.8,0.3c6.2,2.7,11.1,3.9,16.5,3.9c7.4,0,13.4-2.4,19.3-4.8s11.5-4.7,18.7-4.7c7.1,0,12.5,2.3,18.3,4.7
		c5.5,2.3,11.1,4.7,18.5,4.7c7.1,0,12.9-2.4,18.5-4.7c5.8-2.4,11.3-4.7,18.3-4.7s12.1,2.3,17.5,4.7c5.4,2.4,10.9,4.8,18.3,4.8
		c5.6,0,9.7-0.5,19.5-4.2c2.1-0.8,3.4-3.2,2.6-5.4C193.8,122.4,191.4,121.2,189.1,122z"/>
	<path class="st0" d="M189.1,143c-9,3.2-12.1,3.6-16.5,3.6c-5.6,0-9.9-1.9-14.9-4.2c-5.6-2.6-12.1-5.4-20.8-5.4
		c-8.7,0-15.6,2.8-21.6,5.4c-5.2,2.1-9.8,4-15.2,4c-5.5,0-10.1-1.9-15.2-4c-5.9-2.6-12.6-5.4-21.5-5.4s-15.7,2.8-21.9,5.2
		c-5.5,2.3-10.3,4.2-16.1,4.2c-4.2,0-8.1-0.9-13.2-3.2c-0.3-0.1-0.5-0.3-0.8-0.3l-0.7-0.3c-2.1-0.8-4.6,0.4-5.4,2.7
		c-0.8,2.1,0.4,4.6,2.7,5.4l0.8,0.3c6.2,2.7,11.1,3.9,16.5,3.9c7.4,0,13.4-2.4,19.3-4.8c5.9-2.4,11.5-4.7,18.7-4.7
		s12.6,2.3,18.3,4.7c5.5,2.3,11.1,4.7,18.5,4.7c7.1,0,12.9-2.4,18.5-4.7c5.8-2.4,11.3-4.7,18.3-4.7s12.1,2.3,17.5,4.7
		c5.4,2.4,10.9,4.8,18.3,4.8c5.6,0,9.7-0.5,19.5-4.2c2.1-0.8,3.4-3.2,2.6-5.4C193.8,143.2,191.4,142.2,189.1,143z"/>
</g>
</svg>
