<svg xmlns="http://www.w3.org/2000/svg" viewBox="0 0 500 272.2"><path d="M9.4 196.1c6.6 2.6 43.3 17.1 78.8 17.1 21 0 42-5.2 55.1-22.3 6.6-7.9 15.8-6.6 42 3.9 22.3 9.2 53.8 22.3 76.1-3.9 6.6-7.9 15.8-6.6 42 3.9 22.3 9.2 53.8 22.3 76.1-3.9 18.4-22.3 80.1-3.9 99.8 3.9 7.9 2.6 15.7 0 19.7-7.9 2.6-7.9 0-15.7-7.9-19.7-10.5-3.9-99.8-39.4-133.9 3.9-6.6 7.9-15.7 6.6-42-3.9-22.3-9.2-53.8-22.3-76.1 3.9-6.6 7.9-15.7 6.6-42-3.9-22.3-9.2-53.8-22.3-76.1 3.9-18.4 22.3-80.1 3.9-99.8-3.9-7.9-2.6-15.7 0-19.7 7.9-3.9 9.2 0 18.4 7.9 21z"/><path d="M489.8 227.6c-10.5-3.9-99.8-39.4-133.9 3.9-6.6 7.9-15.8 6.6-42-3.9-22.3-9.2-53.8-22.3-76.1 3.9-6.6 9.2-15.7 6.6-40.7-3.9-22.3-9.2-53.8-22.3-76.1 3.9-18.4 22.3-80.1 3.9-99.8-3.9-7.9-2.6-15.7 0-19.7 7.9-2.6 7.9 0 15.7 7.9 19.7 6.6 2.6 43.3 17.1 78.8 17.1 21 0 42-5.2 55.1-22.3 6.6-7.9 15.8-6.6 42 3.9 22.3 9.2 53.8 22.3 76.1-3.9 6.6-7.9 15.8-6.6 42 3.9 22.3 9.2 53.8 22.3 76.1-3.9 18.4-22.3 80.1-3.9 99.8 3.9 7.9 2.6 15.7 0 19.7-7.9 2.6-6.6-1.3-15.8-9.2-18.4z"/><circle cx="337.6" cy="87.1" r="44.6"/><path d="M132.8 152.8c28.9-36.8 87.9 36.8 116.8 0 3.9-5.2 9.2-7.9 14.4-9.2 0 0 35.4 2.6 49.9 17.1L289 108.1v-5.3c0-13.1-7.9-23.6-18.4-31.5l-38-64.2c-2.6-3.9-5.2-5.2-9.2-6.6-3.9-1.3-7.9 0-11.8 2.6l-87.9 59.1c-6.6 3.9-9.2 13.1-3.9 19.7 3.9 6.6 13.1 9.2 19.7 3.9L214.2 36l15.7 26.3C212.9 74 142 120 117 133.1 88.2 147.5 58 162 58 162c0 2.6 0 3.9 1.3 6.6 27.6 2.6 57.8 3.9 73.5-15.8z"/></svg>
