<svg id="Calque_1" data-name="Calque 1" xmlns="http://www.w3.org/2000/svg" viewBox="0 0 24 24"><defs></defs><title>Tables basses</title><path class="cls-1" d="M23.52,7.41l0,0a.44.44,0,0,0-.18-.12h0L16.25,5.29a.2.2,0,0,0-.13,0L.77,6.78h0a.42.42,0,0,0-.2.1h0a.42.42,0,0,0-.1.2s0,0,0,0v8a.38.38,0,0,0,.18.32l1,.66a.36.36,0,0,0,.2.06.39.39,0,0,0,.18,0l1-.57a.36.36,0,0,0,.2-.33V11.28l2.47.87v5.71a.38.38,0,0,0,.18.31l1,.67a.36.36,0,0,0,.2.06.41.41,0,0,0,.18,0l1-.56a.38.38,0,0,0,.2-.33V12.48l5.82-.67v1.71a.37.37,0,0,0,.2.33l1.06.57a.33.33,0,0,0,.17,0,.46.46,0,0,0,.2-.05l1.06-.67a.37.37,0,0,0,.17-.32V11.49l3.42-.39v4.12a.38.38,0,0,0,.2.33l1,.57a.39.39,0,0,0,.18,0,.36.36,0,0,0,.2-.06l1.06-.66a.37.37,0,0,0,.17-.32V7.6A.31.31,0,0,0,23.52,7.41ZM16.12,6l5.12,1.42L7.24,9,2.52,7.37ZM1.88,15.35l-.7-.44V7.69l1.36.48V15Zm1.41-4.87v-2l2.47.87v2Zm3.92,7.61-.7-.44V9.57l.56.2a.25.25,0,0,0,.12,0h0l.63-.07v8Zm9.34-4.87-.69.43-.67-.35V11.73l1.36-.16Zm-7.93-1.5V9.63l12.1-1.37v2.09Zm14.21,3.19-.69.44L21.47,15V8.18L22.83,8v6.89Z"/></svg>