<svg xmlns="http://www.w3.org/2000/svg" viewBox="0 0 16 16">
  <g fill-rule="evenodd" transform="translate(0 2)">
    <path d="M6.45097831 1.20455433C6.51324337.932711811 6.74620723.742790551 7.0170506.742790551 7.06341205.742790551 7.10986988.748459843 7.15555663.759703937 7.47873735.838979528 7.67950843 1.17271181 7.60384578 1.50351496 7.54148434 1.77526299 7.30890602 1.96499528 7.03815904 1.96499528 6.99179759 1.96499528 6.94533976 1.95932598 6.89936386 1.94808189 6.57647229 1.8688063 6.37521928 1.53526299 6.45097831 1.20455433M10.7580627 4.20663307C10.8457735 4.14096378 10.9511229 4.10468031 11.0544482 4.10468031 11.1710747 4.10468031 11.2744 4.1511685 11.3370506 4.23186142 11.4617735 4.39173543 11.4048096 4.64042835 11.2101108 4.78631811 11.1224964 4.8519874 11.0173398 4.88817638 10.9141108 4.88817638 10.8341108 4.88817638 10.7616289 4.86512126 10.7028337 4.82534173 10.6787373 4.78575118 10.647412 4.75334173 10.6114602 4.72820787 10.5166169 4.5688063 10.5760867 4.34297953 10.7580627 4.20663307M6.41917108 2.44868031C6.67449639 3.13182992 7.75420723 5.73630236 9.37223133 5.73630236 9.46948434 5.73630236 9.56876145 5.72694803 9.66977349 5.70729449 9.71883373 5.69746772 9.76268916 5.67696378 9.80056867 5.64946772 9.9677012 5.59608189 10.1925687 5.48468031 10.3720386 5.38915276 10.5304 5.48411339 10.7167133 5.53645984 10.9141108 5.53645984 11.1615325 5.53645984 11.4093398 5.45302677 11.6117494 5.3015622 12.095894 4.93863307 12.2085687 4.28231811 11.862641 3.83812913 11.6735325 3.59557795 11.3787855 3.45639685 11.0544482 3.45639685 10.8067373 3.45639685 10.5590265 3.53982992 10.3566169 3.69148346 9.9677012 3.98288504 9.82350843 4.46203465 9.95893012 4.86975118 9.7850506 4.95847559 9.63468916 5.02650709 9.58119518 5.03794016 9.54032771 5.04521575 9.50312289 5.06042835 9.46948434 5.08055433 8.51738795 5.18458583 7.62977349 3.61976693 7.19131566 2.60033386 7.70562892 2.53712126 8.13001446 2.16455433 8.2490506 1.64571969 8.4030747.974381102 7.98456867.294822047 7.31623133.130790551 7.21791807.106696063 7.11729157.0944125984 7.0170506.0944125984 6.43468916.0944125984 5.93666506.49239685 5.80567711 1.06234961 5.67825542 1.61831811 5.94447229 2.17910551 6.41917108 2.44868031M2.45793735 9.09445984C1.94468434 9.18148346 1.63634699 8.98419213 1.46651566 8.79937323L3.63133494 7.86979843C3.7362988 8.07408189 3.84685301 8.28394016 3.96049157 8.49521575 3.75200964 8.6451685 3.23673253 8.96227087 2.45793735 9.09445984M.131190361 3.24072756C.276539759 3.34882205.484057831 3.32085354.594419277 3.1779874 1.0622747 2.57260157 1.97822651 2.15165669 3.10844337 2.02334173 4.09437108 1.91137323 4.77176867 2.06661732 4.89986506 2.17064882 4.95653976 2.21647559 4.95837108 2.24784567 4.95914217 2.26286929 4.9649253 2.36387717 4.85813012 2.52261732 4.78545542 2.59669606 4.78323855 2.59915276 4.7809253 2.60160945 4.77841928 2.60416063 4.58044337 2.81430236 2.84126265 4.68545197 2.76164819 5.64696378 2.7389012 5.92135748 2.98044337 6.53855433 3.34073253 7.28671181L.851093976 8.35575118C.688877108 8.42548346.611479518 8.60775118.675286747 8.76970394.821310843 9.14019213 1.31769639 9.76419213 2.2156241 9.76419213 2.32772048 9.76419213 2.44608193 9.75436535 2.57080482 9.73348346 3.39837108 9.59279055 3.97475663 9.2748378 4.2749012 9.0715937 4.88463614 10.1734205 5.51856386 11.2353732 5.83914217 11.765452 5.90034699 11.8662709 6.00993735 11.9240031 6.12347952 11.9240031 6.16810602 11.9240031 6.21302169 11.9153102 6.25600964 11.8969795 7.31432289 11.4428693 7.37967229 10.6640976 7.26506988 10.3116567 7.06102169 9.71127874 5.26863614 6.1004126 5.19249157 5.94686929 5.1736 5.90860157 5.15470843 5.87902677 5.12820241 5.85427087 5.13784096 5.82951496 5.15914217 5.78812913 5.2035759 5.73219213 5.50420241 5.35329449 6.68270843 4.04718425 6.69456386 4.03395591 6.81543133 3.89987717 6.80280482 3.69502677 6.66593735 3.57644409 6.52916627 3.45767244 6.32010602 3.47033386 6.19923855 3.60431811 6.15017831 3.65874331 4.9949012 4.93896378 4.68145542 5.33420787 4.50410602 5.55767244 4.43278072 5.77594016 4.4696 5.98324724 4.49244337 6.11297953 4.55634699 6.21653858 4.62641928 6.28797165 5.16020241 7.36419213 6.48232289 10.0600346 6.63653976 10.5126331 6.6376 10.5167906 6.74121446 10.8594992 6.24839518 11.1696094 4.8149494 8.78028661 3.39933494 6.14529449 3.42073253 5.69940472 3.4642988 5.17140472 4.52232289 3.83184567 5.26140723 3.04702677 5.31702169 2.99052283 5.64116627 2.64242835 5.61976867 2.23055433 5.60849157 2.01370394 5.50535904 1.8203811 5.32184096 1.67127874 4.91210602 1.33849134 3.84781687 1.28661732 3.0322988 1.37921575 2.26343133 1.46652283.855816867 1.76557795.0670939759 2.78661732-.0431710843 2.92938898-.0145445783 3.13263307.131190361 3.24072756M12.3946892 5.48452913C12.5527614 5.48452913 12.6810506 5.35895433 12.6810506 5.20389921 12.6810506 5.04903307 12.5527614 4.92355276 12.3946892 4.92355276 12.2365205 4.92355276 12.1084241 5.04903307 12.1084241 5.20389921 12.1084241 5.35895433 12.2365205 5.48452913 12.3946892 5.48452913"/>
    <path d="M6.87934458,6.06104882 C6.69669398,6.06104882 6.54864578,6.20618268 6.54864578,6.3852378 C6.54864578,6.56429291 6.69669398,6.70933228 6.87934458,6.70933228 L15.6661398,6.70933228 C15.8487904,6.70933228 15.9968386,6.56429291 15.9968386,6.3852378 C15.9968386,6.20618268 15.8487904,6.06104882 15.6661398,6.06104882 L14.8630554,6.06104882 L14.8630554,4.74586772 C14.8630554,4.5668126 14.7150072,4.42167874 14.5323566,4.42167874 C14.349706,4.42167874 14.2017542,4.5668126 14.2017542,4.74586772 L14.2017542,6.06104882 L6.87934458,6.06104882 Z"/>
  </g>
</svg>
