<svg viewBox="0 0 24 18" version="1.1" xmlns="http://www.w3.org/2000/svg" xmlns:xlink="http://www.w3.org/1999/xlink">
    <defs></defs>
    <g id="Page-1" stroke-width="1" fill-rule="evenodd">
        <g id="Group-4" transform="translate(2.000000, 2.000000)">
            <path d="M19.6175092,2.1249259 C19.7853672,2.0458577 20.2896191,0.668260239 19.773564,0.346431824 C19.2575089,0.0246034085 18.2456209,-0.0487194781 18.0829708,0.027895572 L12.8811455,2.17801527 C12.8031181,2.20455996 12.7250908,2.23110465 12.6470634,2.20455996 L7.23716511,0.903870265 C7.21115599,0.877325577 7.18514686,0.877325577 7.15913774,0.903870265 L5.9367088,1.51439808 C5.85868142,1.56748746 5.85868142,1.62057683 5.85868142,1.64712152 C5.85868142,1.67366621 5.85868142,1.72675558 5.9367088,1.75330027 L9.42193172,3.37252622 C9.55197735,3.42561559 9.65601386,3.55833903 9.65601386,3.71760716 C9.65601386,3.87687528 9.57798648,4.00959872 9.44794085,4.08923278 L4.50620686,6.66406749 C4.29813385,6.77024624 4.03804258,6.79679092 3.80396045,6.71715686 L0.500801409,5.5491906 C0.396764904,5.52264592 0.292728399,5.52264592 0.21470102,5.57573529 C0.110664515,5.62882467 0.0326371359,5.73500342 0.00662800958,5.86772686 C-0.0193811167,6.00045029 0.0326371359,6.13317373 0.136673641,6.2128078 C1.87713461,8.07093593 2.96865856,9 3.4112455,9 C3.85383244,9 9.25592035,6.70830863 19.6175092,2.1249259 Z M-1.30149127,5.61138148 C-1.20458015,5.11684828 -0.905801488,4.68201614 -0.466137058,4.42904103 C-0.0465320781,4.17194049 0.403087949,4.14855388 0.830355523,4.25757027 L0.945176401,4.29244088 L4.05963852,5.39378137 L7.14901676,3.78637636 L5.4087239,2.97784061 C5.09300946,2.84530387 4.8287066,2.6078146 4.67137219,2.28666635 C4.54936272,2.03762274 4.51868061,1.80798753 4.52568142,1.64712152 C4.52568142,1.18823617 4.71737742,0.731735219 5.1868525,0.412307101 L5.34110903,0.321858811 L6.48205031,-0.247970953 C6.84992208,-0.471972789 7.2955486,-0.508810341 7.68899422,-0.358483608 L12.6453851,0.833170328 L17.5149352,-1.17801679 C18.1909531,-1.49644969 19.6849113,-1.2798261 20.4789395,-0.784644848 C21.9010012,0.102198218 21.3392097,2.78741344 20.1855448,3.33083826 C8.72668802,8.40000134 4.17012826,10.333 3.4112455,10.333 C2.40184308,10.333 1.30239569,9.4036175 -0.788758043,7.17468273 C-1.2165618,6.7820305 -1.41515454,6.19140019 -1.30149127,5.61138148 Z" id="Shape" fill-rule="nonzero" transform="translate(9.995485, 4.502622) rotate(-360.000000) translate(-9.995485, -4.502622) "></path>
            <rect id="Rectangle-5" transform="translate(10.000000, 15.500000) rotate(-360.000000) translate(-10.000000, -15.500000) " x="-1.77635684e-15" y="15" width="20" height="1"></rect>
        </g>
    </g>
</svg>
