<svg viewBox="0 0 499 432" version="1.1" xmlns="http://www.w3.org/2000/svg" xmlns:xlink="http://www.w3.org/1999/xlink">
    <defs></defs>
    <g id="Page-1" stroke-width="1" fill-rule="evenodd">
        <path d="M442.08178,287.649653 L57.4958908,287.649653 C51.250492,287.649653 46.1860749,293.000074 46.1860749,299.615908 C46.1860749,306.228498 51.250492,311.578919 57.4958908,311.578919 L442.08178,311.578919 C448.327179,311.578919 453.394664,306.228498 453.394664,299.615908 C453.394664,293.000074 448.327179,287.649653 442.08178,287.649653 M476.015829,323.543553 C476.015829,330.146408 470.94221,335.509808 464.702946,335.509808 L295.034234,335.509808 L204.543437,335.509808 L34.8747252,335.509808 C28.6354614,335.509808 23.5618417,330.146408 23.5618417,323.543553 L23.5618417,36.3923522 C23.5618417,29.7894969 28.6354614,24.4260965 34.8747252,24.4260965 L464.702946,24.4260965 C470.94221,24.4260965 476.015829,29.7894969 476.015829,36.3923522 L476.015829,323.543553 Z M292.997425,407.294364 L206.580247,407.294364 L214.126259,359.439075 L285.451412,359.439075 L292.997425,407.294364 Z M464.702946,0.496829777 L34.8747252,0.496829777 C16.1600012,0.496829777 0.939142353,16.6000095 0.939142353,36.3923522 L0.939142353,323.543553 C0.939142353,343.335895 16.1600012,359.439075 34.8747252,359.439075 L191.190676,359.439075 L183.647731,407.294364 L114.052639,407.294364 C107.807241,407.294364 102.739756,412.64803 102.739756,419.26062 C102.739756,425.873209 107.807241,431.226875 114.052639,431.226875 L385.525032,431.226875 C391.770431,431.226875 396.837915,425.873209 396.837915,419.26062 C396.837915,412.64803 391.770431,407.294364 385.525032,407.294364 L315.92994,407.294364 L308.386995,359.439075 L464.702946,359.439075 C483.41767,359.439075 498.638529,343.335895 498.638529,323.543553 L498.638529,36.3923522 C498.638529,16.6000095 483.41767,0.496829777 464.702946,0.496829777 Z" id="television"></path>
    </g>
</svg>
