<svg version="1.1"
   xmlns="http://www.w3.org/2000/svg" xmlns:xlink="http://www.w3.org/1999/xlink"
   x="0px" y="0px" viewBox="0 0 500 452.7" style="enable-background:new 0 0 500 452.7;"
   xml:space="preserve">
<defs>
</defs>
<g>
  <g>
    <path class="st0" d="M496.3,254.2c-6.7-17.1-21.7-31.8-41.1-40.3c-10.7-4.7-22.2-7.1-33.2-7.1c-18.6,0-34.7,7-44.6,18.7
      c-20.4-8.9-53.1-23.2-56.2-24.6l-1.2-0.6c-20.8-9.6-23-10.6-26.7-27.8c-1.3-6-2.3-12-3.3-17.9c-3.5-20.2-7.1-40.8-19.9-61.3
      c8.3-2,15.9-6.2,22.1-12.3c9.2-9,14.3-20.9,14.2-33.6c0-12.7-4.9-24.6-13.8-33.5C283.8,4.9,271.9,0,259.2,0
      c-26.4,0-47.9,21.2-47.9,47.3c0,14.9,6.8,28.4,18,37.2c26.9,23.5,31,47.1,35.7,74.4c1.1,6.1,2.2,12.4,3.5,18.9
      c6.3,29.7,18.6,35.3,40.9,45.6l1.2,0.6c3.5,1.6,39,17.1,56.6,24.8c-1,8,0.1,16.3,3.3,24.5c6.7,17.2,21.7,31.8,41.1,40.3
      c10.7,4.7,22.2,7.1,33.2,7.1c23.8,0,43.5-11.3,51.4-29.5C501.2,279.8,501.2,266.7,496.3,254.2z M259.2,25.4
      c5.9,0,11.4,2.3,15.5,6.4c4.1,4.1,6.4,9.6,6.4,15.5c0,5.8-2.3,11.2-6.6,15.4c-4.3,4.2-9.9,6.5-15.9,6.5c-2.2,0-4.3-0.3-6.4-0.9
      c-2.6-0.8-4.9-2-6.9-3.5c-0.3-0.2-0.5-0.4-0.8-0.7c-0.1-0.1-0.3-0.2-0.4-0.3c-4.6-4.1-7.4-10-7.4-16.5
      C236.7,35.3,246.8,25.4,259.2,25.4z M473,280.9c-3.9,8.8-14.6,14.3-28.1,14.3c-7.6,0-15.5-1.7-23-5c-13.1-5.7-23.4-15.5-27.6-26.3
      c-1.7-4.4-3.2-11-0.3-17.5c3.9-8.8,14.6-14.3,28.2-14.3c7.6,0,15.5,1.7,23,5c13,5.7,23.3,15.5,27.5,26.3
      C474.4,267.8,475.8,274.4,473,280.9z"/>
    <path class="st0" d="M413.4,166.2c14,0,25.3-11.3,25.3-25.3c0-14-11.3-25.3-25.3-25.3c-14,0-25.3,11.3-25.3,25.3
      C388.1,154.8,399.4,166.2,413.4,166.2z"/>
    <path class="st0" d="M250.3,182.5c-6.5-2.8-13.9,0.2-16.7,6.7l-77.3,181.3c-2.2,5.1-8.1,7.4-13.1,5.3c-2.4-1-4.3-3-5.3-5.5
      c-1-2.5-1-5.2,0-7.6l30.8-72.4c2.8-6.5-0.2-13.9-6.7-16.7c-6.5-2.8-13.9,0.2-16.7,6.7L85.2,421.2c-2.2,5.1-8.1,7.4-13.1,5.3
      c-2.4-1-4.3-3-5.3-5.5c-1-2.5-1-5.2,0-7.6c0,0,108.1-253.6,117.9-277c10.9-25.7,9-45.5-5.4-58.9c-15.7-14.5-37.6-10-52.7-5.3
      c-20,6.1-116.7,36.7-117.7,37c-6.7,2.1-10.4,9.3-8.3,16c2.1,6.7,9.3,10.4,16,8.3c1-0.3,97.6-30.8,117.5-36.9
      c14.1-4.3,23.5-4.5,28-0.3c2.4,2.2,8.7,8-0.8,30.3c-8.1,19.3-117.9,276.9-117.9,276.9c-3.7,8.7-3.8,18.3-0.2,27.1
      c3.5,8.8,10.3,15.7,19,19.4c4.5,1.9,9.2,2.8,13.8,2.8c13.8,0,26.9-8.1,32.7-21.5l15.9-37.3c2.6,2.2,5.5,4,8.7,5.3
      c4.5,1.9,9.2,2.8,13.8,2.8c13.8,0,26.9-8.1,32.7-21.5L257,199.2C259.8,192.7,256.8,185.3,250.3,182.5z"/>
  </g>
</g>
</svg>
