<svg id="Calque_1" data-name="Calque 1" xmlns="http://www.w3.org/2000/svg" viewBox="0 0 100 100"><path class="cls-1" d="M70.29,48.89H97.62a1.5,1.5,0,0,0,1.5-1.5v-7a1.51,1.51,0,0,0-.57-1.18L50.93,1.81l-.07,0a1.51,1.51,0,0,0-.28-.15l-.13-.06A1.55,1.55,0,0,0,50,1.49h0a1.56,1.56,0,0,0-.71.2l0,0-.15.08L1.47,38.19a1.49,1.49,0,0,0-.59,1.19v8a1.5,1.5,0,0,0,1.5,1.5H48.5V73.23h-17a1.5,1.5,0,0,0,0,3h17V95.51H2.38a1.5,1.5,0,1,0,0,3H97.62a1.5,1.5,0,0,0,0-3H51.5V76.23h17a1.5,1.5,0,0,0,0-3h-17V48.89Zm25.83-3H71.79V40.42a1.48,1.48,0,0,0-.19-.71L54.77,8.65l41.35,32.5ZM3.88,40.12,45.17,8.56,28.4,38.65a1.53,1.53,0,0,0-.19.73v6.51H3.88Zm27.33-.35L50,6.1,68.79,40.8v5.09H31.21Z"/></svg>
