<svg version="1.1" id="Calque_1" xmlns="http://www.w3.org/2000/svg" xmlns:xlink="http://www.w3.org/1999/xlink" x="0px" y="0px"
	 viewBox="0 0 500 500" style="enable-background:new 0 0 500 500;" xml:space="preserve">

<g>
	<polyline class="st0" points="277.5,242.7 277.5,242.7 277.5,242.7 277.5,242.7 	"/>
	<g>
		<path class="st0" d="M0,449.1h253.1C153.7,440.1,47.1,399.5,0,449.1z"/>
		<path class="st0" d="M161.8,398.4c73.9,10.4,153.8,28.5,216.5,9.8c35.7-10.6,50.1-28.1,54.5-44.5c2.1-8.2,2-18.5-0.3-26.6
			c-0.3-1-0.6-2-1-3c-0.4-0.9-0.7-1.9-1.2-2.8c-0.4-0.9-0.9-1.9-1.4-2.7c-0.5-0.9-1.1-1.8-1.7-2.6c-2.4-3.3-5.4-6.2-8.9-8.2
			s-7.4-3.1-11.5-3.1c-4,0-8.1,1.1-11.8,2.9c-3.6,1.8-6.7,4.5-8.7,7.9c-2.1,3.4-3.1,7.4-3.2,11.5s0.6,8.3,2.2,12
			c1.6,3.6,4.4,6.5,8,7.7c3.6,1.3,7.6,1.2,11.1-0.7c4.9-2.8,6.2-5.9,7.5-9c0.5-1.2,0.9-3.2,2-2.8c1,0.3,1,1.5,0.8,3.5
			c-0.4,4.4-3.7,9.3-8.1,12s-10,3.3-14.8,1.6c-4.9-1.6-9-5.5-11-10.1c-2.1-4.5-2.9-9.3-2.8-14.2c0-1.7,0.2-3.5,0.5-5.2
			C332.4,396,243.5,398.2,161.8,398.4z"/>
		<path class="st0" d="M392.2,309c-0.5,1-1.2,2-1.8,3l-1.9,3l-0.6,0.8c1.5-1.2,3.1-2.2,4.8-3c4.4-2.1,9.1-3.5,14-3.5
			c4.9-0.1,9.9,1.2,14.2,3.6c1.3,0.7,2.5,1.5,3.6,2.4l-25.4-45.1c1.4,7.4,1.3,15.1-0.5,22.5c-0.2,1.2-0.6,2.3-0.9,3.4
			c-0.4,1.1-0.7,2.3-1.1,3.4l-1.3,3.3c-0.2,0.5-0.4,1.1-0.7,1.6l-0.8,1.6L392.2,309z"/>
		<path class="st0" d="M439.6,341.8c1.2,7.1,1.1,14.6-0.6,21.6c-0.2,1.2-0.6,2.3-0.9,3.4c-0.4,1.1-0.7,2.3-1.1,3.4l-0.1,0.2
			c-7.6,22.8-29.1,47.6-71.7,66.2c-15,6.5-31.1,10.4-47.9,12.4H500L439.6,341.8z"/>
	</g>
	<path class="st0" d="M392.2,266.2c-0.3-1-0.6-2-1-3c-0.4-0.9-0.7-1.9-1.2-2.8c-0.4-0.9-0.9-1.9-1.4-2.7c-0.5-0.9-1.1-1.8-1.7-2.6
		c-2.4-3.3-5.4-6.2-8.9-8.2s-7.4-3.1-11.5-3.1c-4,0-8.1,1.1-11.8,2.9c-3.6,1.8-6.7,4.5-8.7,7.9c-2.1,3.4-3.1,7.4-3.2,11.5
		c-0.1,4.1,0.6,8.3,2.2,12c1.6,3.6,4.4,6.5,8,7.7c3.6,1.3,7.6,1.2,11.1-0.7c4.9-2.8,6.2-5.9,7.5-9c0.5-1.2,0.9-3.2,2-2.8
		c1,0.3,1,1.5,0.8,3.5c-0.4,4.4-3.7,9.3-8.1,12s-10,3.3-14.8,1.6c-4.9-1.6-9-5.5-11-10.1c-2.1-4.5-2.9-9.3-2.8-14.2
		c0-2.4,0.4-4.8,1-7.2c0.4-1.2,0.7-2.4,1.2-3.5c0.6-1.1,1-2.3,1.7-3.3c2.5-4.3,6.4-7.8,10.8-9.9c4.4-2.1,9.1-3.5,14-3.5
		c4.9-0.1,9.9,1.2,14.2,3.6c1.5,0.8,2.9,1.8,4.2,2.8L332,151l-48.1,85.3C260.6,366.9,64.5,326.4,20.5,389.9
		c59-42.2,187.4-15.3,285.7-38.8c44.7-10.7,74.8-30.3,84.8-53.2c0.4-0.9,0.7-1.8,1.1-2.8C395.4,286.4,394.5,274.3,392.2,266.2z"/>
	<path class="st0" d="M189.2,50.9L34,354.8c55.7-46.2,209.1-32.6,249.5-119.2L189.2,50.9z M174.1,166.1h10.7l-7.5-7.5l2.6-2.6
		l7.5,7.5v-10.7h3.7v10.7l7.5-7.5l2.6,2.6l-7.5,7.5h10.7v3.7h-10.7l7.5,7.5l-2.6,2.6l-7.5-7.5v10.7h-3.7v-10.7l-7.5,7.5l-2.6-2.6
		l7.5-7.5h-10.7V166.1z M138.7,183.1l1.9-3.2l9.2,5.3l-2.8-10.3l3.6-1l2.8,10.3l5.3-9.2l3.2,1.9l-5.3,9.2l10.3-2.8l1,3.6l-10.3,2.8
		l9.2,5.3l-1.9,3.2l-9.2-5.3l2.8,10.3l-3.6,1l-2.8-10.3l-5.3,9.2l-3.2-1.9l5.3-9.2l-10.3,2.8l-1-3.6l10.3-2.8L138.7,183.1z
		 M166.9,237l-10.3-2.8l5.3,9.2l-3.2,1.9l-5.3-9.2l-2.8,10.3l-3.6-1l2.8-10.3l-9.2,5.3l-1.9-3.2l9.2-5.3l-10.3-2.8l1-3.6l10.3,2.8
		l-5.3-9.2l3.2-1.9l5.3,9.2l2.8-10.3l3.6,1l-2.8,10.3l9.2-5.3l1.9,3.2l-9.2,5.3l10.3,2.8L166.9,237z M204.4,254.2h-10.7l7.5,7.5
		l-2.6,2.6l-7.5-7.5v10.7h-3.7v-10.7l-7.5,7.5l-2.6-2.6l7.5-7.5h-10.7v-3.7h10.7l-7.5-7.5l2.6-2.6l7.5,7.5v-10.7h3.7v10.7l7.5-7.5
		l2.6,2.6l-7.5,7.5h10.7V254.2z M208.2,223.2l-17-9.8v19.7h-3.7v-19.7l-17,9.8l-1.9-3.2l17-9.8l-17-9.8l1.9-3.2l17,9.8v-19.7h3.7
		V207l17-9.8l1.9,3.2l-17,9.8l17,9.8L208.2,223.2z M211.6,183.3l10.3,2.8l-5.3-9.2l3.2-1.9l5.3,9.2l2.8-10.3l3.6,1l-2.8,10.3
		l9.2-5.3l1.9,3.2l-9.2,5.3l10.3,2.8l-1,3.6l-10.3-2.8l5.3,9.2l-3.2,1.9l-5.3-9.2l-2.8,10.3l-3.6-1l2.8-10.3l-9.2,5.3l-1.9-3.2
		l9.2-5.3l-10.3-2.8L211.6,183.3z M239.9,237.2l-1.9,3.2l-9.2-5.3l2.8,10.3l-3.6,1l-2.8-10.3l-5.3,9.2l-3.2-1.9l5.3-9.2l-10.3,2.8
		l-1-3.6l10.3-2.8l-9.2-5.3l1.9-3.2l9.2,5.3l-2.8-10.3l3.6-1l2.8,10.3l5.3-9.2l3.2,1.9l-5.3,9.2l10.3-2.8l1,3.6l-10.3,2.8
		L239.9,237.2z"/>
</g>
</svg>
