<?xml version="1.0" encoding="UTF-8"?>
<svg viewBox="0 0 501 501" version="1.1" xmlns="http://www.w3.org/2000/svg" xmlns:xlink="http://www.w3.org/1999/xlink">
    <!-- Generator: Sketch 50.2 (55047) - http://www.bohemiancoding.com/sketch -->
    <title>Oval 2</title>
    <desc>Created with Sketch.</desc>
    <defs></defs>
    <g id="Page-1" stroke="none" stroke-width="1" fill="none" fill-rule="evenodd">
        <path d="M258.088072,290.17585 L228.29076,290.17585 C228.08275,289.447814 227.120717,286.795724 225.404633,282.219499 C223.688548,277.643275 222.830519,273.639138 222.830519,270.20697 C222.830519,263.654649 223.74055,257.362434 225.56064,251.330138 C227.380729,245.297842 230.05882,239.65565 233.594993,234.403393 C237.131167,229.151135 244.125405,220.752849 254.577918,209.208283 C265.030431,197.663717 270.256608,188.147392 270.256608,180.659025 C270.256608,166.098311 260.740284,158.818063 241.707351,158.818063 C232.450897,158.818063 222.778567,163.446221 212.690073,172.702675 L196.621365,142.593348 C210.038023,132.088833 227.666623,126.836654 249.507694,126.836654 C266.356521,126.836654 280.423,131.516814 291.707553,140.877273 C302.992107,150.237732 308.634299,162.666155 308.634299,178.162915 C308.634299,188.771436 306.580229,197.741741 302.472028,205.074101 C298.363826,212.40646 291.13558,221.012753 280.787072,230.893238 C270.438565,240.773723 263.704335,248.990003 260.584182,255.542324 C257.464029,262.094645 255.903976,269.27089 255.903976,277.071272 C255.903976,278.735354 256.632001,283.103503 258.088072,290.17585 Z M244.827488,311.392784 C251.899835,311.392784 257.90604,313.888869 262.846282,318.881114 C267.786524,323.873359 270.256608,329.905564 270.256608,336.977911 C270.256608,344.050258 267.786524,350.082464 262.846282,355.074709 C257.90604,360.066953 251.899835,362.563038 244.827488,362.563038 C237.755141,362.563038 231.722936,360.066953 226.730691,355.074709 C221.738446,350.082464 219.242361,344.050258 219.242361,336.977911 C219.242361,329.905564 221.738446,323.873359 226.730691,318.881114 C231.722936,313.888869 237.755141,311.392784 244.827488,311.392784 Z M250.521739,500.521739 C112.450552,500.521739 0.52173913,388.592927 0.52173913,250.521739 C0.52173913,112.450552 112.450552,0.52173913 250.521739,0.52173913 C388.592927,0.52173913 500.521739,112.450552 500.521739,250.521739 C500.521739,388.592927 388.592927,500.521739 250.521739,500.521739 Z M250.521739,477.700162 C375.988918,477.700162 477.700162,375.988918 477.700162,250.521739 C477.700162,125.05456 375.988918,23.3433159 250.521739,23.3433159 C125.05456,23.3433159 23.3433159,125.05456 23.3433159,250.521739 C23.3433159,375.988918 125.05456,477.700162 250.521739,477.700162 Z" id="Oval-2" fill="#005589" fill-rule="nonzero"></path>
    </g>
</svg>
