<svg viewBox="0 0 482 488" version="1.1" xmlns="http://www.w3.org/2000/svg" xmlns:xlink="http://www.w3.org/1999/xlink">
    <defs></defs>
    <g id="Page-1" stroke-width="1" fill-rule="evenodd">
        <g id="toweldryer" fill-rule="nonzero">
            <path d="M72.5625,148.166667 C72.5625,152.481391 69.0647246,155.979167 64.75,155.979167 C60.4352754,155.979167 56.9375,152.481391 56.9375,148.166667 L56.9375,87.9583333 C56.9375,83.6436087 60.4352754,80.1458333 64.75,80.1458333 C69.0647246,80.1458333 72.5625,83.6436087 72.5625,87.9583333 L72.5625,148.166667 Z" id="Shape"></path>
            <path d="M72.5625,282.958333 C72.5625,287.273058 69.0647246,290.770833 64.75,290.770833 C60.4352754,290.770833 56.9375,287.273058 56.9375,282.958333 L56.9375,222.75 C56.9375,218.435275 60.4352754,214.9375 64.75,214.9375 C69.0647246,214.9375 72.5625,218.435275 72.5625,222.75 L72.5625,282.958333 Z" id="Shape"></path>
            <path d="M107.25,395.145833 C111.564725,395.145833 115.0625,398.643609 115.0625,402.958333 C115.0625,407.273058 111.564725,410.770833 107.25,410.770833 L64.75,410.770833 C60.4352754,410.770833 56.9375,407.273058 56.9375,402.958333 L56.9375,360.25 C56.9375,355.935275 60.4352754,352.4375 64.75,352.4375 C69.0647246,352.4375 72.5625,355.935275 72.5625,360.25 L72.5625,395.145833 L107.25,395.145833 Z M448.083333,66.3958333 C443.768609,66.3958333 440.270833,62.8980579 440.270833,58.5833333 C440.270833,54.2686087 443.768609,50.7708333 448.083333,50.7708333 L474.125,50.7708333 C478.439725,50.7708333 481.9375,54.2686087 481.9375,58.5833333 C481.9375,62.8980579 478.439725,66.3958333 474.125,66.3958333 L448.083333,66.3958333 Z M7.875,66.3958333 C3.56027539,66.3958333 0.0625,62.8980579 0.0625,58.5833333 C0.0625,54.2686087 3.56027539,50.7708333 7.875,50.7708333 L93.9166667,50.7708333 C98.2313913,50.7708333 101.729167,54.2686087 101.729167,58.5833333 C101.729167,62.8980579 98.2313913,66.3958333 93.9166667,66.3958333 L7.875,66.3958333 Z M448.083333,197.645833 C443.768609,197.645833 440.270833,194.148058 440.270833,189.833333 C440.270833,185.518609 443.768609,182.020833 448.083333,182.020833 L474.125,182.020833 C478.439725,182.020833 481.9375,185.518609 481.9375,189.833333 C481.9375,194.148058 478.439725,197.645833 474.125,197.645833 L448.083333,197.645833 Z M7.875,197.645833 C3.56027539,197.645833 0.0625,194.148058 0.0625,189.833333 C0.0625,185.518609 3.56027539,182.020833 7.875,182.020833 L93.9166667,182.020833 C98.2313913,182.020833 101.729167,185.518609 101.729167,189.833333 C101.729167,194.148058 98.2313913,197.645833 93.9166667,197.645833 L7.875,197.645833 Z M448.083333,328.6875 C443.768609,328.6875 440.270833,325.189725 440.270833,320.875 C440.270833,316.560275 443.768609,313.0625 448.083333,313.0625 L474.125,313.0625 C478.439725,313.0625 481.9375,316.560275 481.9375,320.875 C481.9375,325.189725 478.439725,328.6875 474.125,328.6875 L448.083333,328.6875 Z M7.875,328.6875 C3.56027539,328.6875 0.0625,325.189725 0.0625,320.875 C0.0625,316.560275 3.56027539,313.0625 7.875,313.0625 L93.9166667,313.0625 C98.2313913,313.0625 101.729167,316.560275 101.729167,320.875 C101.729167,325.189725 98.2313913,328.6875 93.9166667,328.6875 L7.875,328.6875 Z" id="Combined-Shape"></path>
            <path d="M139.437503,389.3125 L139.437503,407.229167 L404.22917,407.229167 L404.22917,389.3125 L139.437503,389.3125 Z M139.437503,373.6875 L404.22917,373.6875 L404.22917,42.672128 C404.129402,28.5350163 392.640391,17.1247256 378.5,17.1249984 L130.97183,17.1249984 C136.432112,24.2624518 139.437503,33.0387939 139.437503,42.125 L139.437503,373.6875 Z M139.437503,422.854167 L139.437503,471.8125 L404.22917,471.8125 L404.22917,422.854167 L139.437503,422.854167 Z M419.85417,42.6468534 C419.85417,42.6468653 419.85417,42.6468772 419.85417,42.646889 L419.85417,479.625 C419.85417,483.939725 416.356395,487.4375 412.04167,487.4375 L131.625003,487.4375 C127.310279,487.4375 123.812503,483.939725 123.812503,479.625 L123.812503,42.125 C123.812503,35.3564542 121.123709,28.8651303 116.337624,24.0790457 C112.779307,20.5207281 108.278418,18.1216875 103.428177,17.1249984 L101.951515,17.1249984 C101.542668,17.1249984 101.172562,16.9847057 100.841197,16.7307075 C100.002582,16.6467315 99.1569467,16.6041532 98.3071669,16.6041513 C93.7210502,16.6132484 89.2117589,17.7823239 85.4834461,19.8372354 C80.6857422,22.7622016 76.8865123,27.0717758 74.5861508,32.1983465 C72.8197528,36.1349296 68.1965731,37.8942122 64.25999,36.1278142 C60.3234069,34.3614162 58.5641243,29.7382366 60.3305223,25.8016535 C63.9232218,17.7949869 69.8568505,11.0643036 77.6344318,6.33074454 C83.953519,2.83446538 91.054357,0.993507381 98.2916699,0.979166667 C100.491831,0.979166667 102.673825,1.1553825 104.81878,1.49999838 L378.499849,1.49999839 C400.898795,1.49956632 419.158744,19.3128755 419.835396,41.579133 C419.847843,41.7594735 419.85417,41.9414979 419.85417,42.125 L419.85417,42.6468618 Z M180.442619,151.557941 C178.799788,147.56821 180.702327,143.002116 184.692059,141.359286 C188.68179,139.716455 193.247884,141.618994 194.890714,145.608725 C195.16457,146.269193 195.16457,146.269193 195.4385,146.912253 C197.527734,151.784911 205.132831,165.973128 204.272368,164.256635 C208.422045,172.534612 210.270833,179.803472 210.270833,190.25 C210.270833,201.12199 206.270599,208.252401 196.405461,219.965352 C195.045613,221.576165 194.400123,222.3428 193.755567,223.12018 C188.730717,229.180493 186.647548,232.799544 186.288988,236.272331 C185.1272,251.213203 188.871622,266.125199 196.953899,278.744874 C199.280929,282.3783 198.221885,287.210203 194.58846,289.537233 C190.955034,291.864262 186.12313,290.805219 183.796101,287.171793 C173.879721,271.688349 169.285582,253.39239 170.72827,234.869566 C171.509984,227.247855 174.856904,221.433313 181.727342,213.147094 C182.415878,212.316672 183.105482,211.497644 184.454528,209.899775 C192.064827,200.864013 194.645833,196.263372 194.645833,190.25 C194.645833,182.330014 193.401399,177.437284 190.304165,171.258773 C191.437675,173.519954 183.484163,158.681727 181.077875,153.069613 C180.760132,152.323697 180.760132,152.323697 180.442619,151.557941 Z M262.764445,151.630156 C261.081731,147.657082 262.938436,143.072159 266.91151,141.389445 C270.884585,139.706731 275.469507,141.563436 277.152221,145.53651 C279.434507,150.925241 287.507985,165.988591 286.657499,164.278605 C290.744256,172.495433 292.5625,179.785465 292.5625,190.25 C292.5625,200.782312 288.677828,207.827694 279.302681,219.120485 C277.621429,221.138402 276.844863,222.07496 276.063779,223.04214 C271.440804,228.766557 269.645833,232.249802 269.619378,236.309051 C268.388693,251.225634 272.06695,266.135712 280.093947,278.768462 C282.407949,282.410199 281.331607,287.238279 277.689871,289.55228 C274.048135,291.866282 269.220055,290.789941 266.906053,287.148204 C257.05197,271.640018 252.536477,253.336144 254.020833,235.666667 C254.020833,227.711794 257.21609,221.511211 263.907833,213.225134 C264.762957,212.166274 265.61369,211.140268 267.280652,209.139932 C274.45168,200.502102 276.9375,195.993729 276.9375,190.25 C276.9375,182.277104 275.709374,177.353081 272.667356,171.236803 C273.800357,173.514814 265.376953,157.798576 262.764445,151.630156 Z M345.234286,151.557941 C343.591455,147.56821 345.493994,143.002116 349.483725,141.359286 C353.473457,139.716455 358.03955,141.618994 359.682381,145.608725 C359.956237,146.269193 359.956237,146.269193 360.230166,146.912253 C362.3194,151.784911 369.924498,165.973128 369.064035,164.256635 C373.213712,172.534612 375.0625,179.803472 375.0625,190.25 C375.0625,201.106429 371.099185,208.234593 361.32302,219.946709 C359.978672,221.553558 359.978672,221.553558 358.703169,223.093872 C353.71726,229.160942 351.649226,232.783178 351.285497,236.315663 C350.041791,251.235417 353.78585,266.145968 361.930352,278.708331 C364.277563,282.328752 363.245423,287.166474 359.625002,289.513685 C356.004582,291.860897 351.16686,290.828756 348.819648,287.208336 C338.79275,271.742499 334.183346,253.38575 335.72827,234.869566 C336.508217,227.265079 339.824538,221.456422 346.631513,213.173402 C347.993999,211.528046 347.993999,211.528046 349.32766,209.934119 C356.877395,200.889327 359.4375,196.284887 359.4375,190.25 C359.4375,182.330014 358.193065,177.437284 355.095832,171.258773 C356.229342,173.519954 348.27583,158.681727 345.869542,153.069613 C345.551798,152.323697 345.551798,152.323697 345.234286,151.557941 Z" id="Combined-Shape"></path>
        </g>
    </g>
</svg>
