<svg xmlns="http://www.w3.org/2000/svg" viewBox="0 0 500 459.5"><g><path d="M313.8 345.2c47.1 1.1 27.3 109 27.3 109h-55.4c0-.1-16.3-110 28.1-109zM256.7 75.5V88h12.5c-2-5.8-6.7-10.4-12.5-12.5zm12.5 26h-12.5V114c5.8-2.1 10.5-6.7 12.5-12.5zM243.3 114v-12.5h-12.5c2 5.8 6.6 10.4 12.5 12.5z"/><path d="M499.9 177.8c-1-22.2-13.7-39-29.6-39-14.5 0-26.3 14.1-29 33.5h-47.5c.5-2.9.8-5.7.8-8.6 0-29.6-27.3-53.6-60.8-53.6-2.2 0-4.5.1-6.7.3C323.4 48.7 291.5 0 250 0c-40.2 0-74.1 47.2-77.2 110.4-50-3.3-72.7 34.7-66.5 61.9H58.8c-2.7-19.4-14.4-33.5-29-33.5-15.8 0-29.8 18.4-29.8 39v53.9c8.3-49.2 48.4-57.3 48.4-57.3-30.1 14.5-37.8 56.3-37.8 56.3 25.5-57 68.2-49.4 68.2-49.4-42.4 16.4-59.9 50.5-59.9 50.5 33.5-28.3 68.7-16.7 68.7-16.7C12 229.3 2 271.5 1.5 278.5c6.1-7.4 19.1-15.6 33.6-22.8 1.2-18.3 39.6-28.7 39.6-28.7s-19.7 9.6-24.2 15.7c7-4.6 16.2-8.9 26.9-9.6 29.4-1.8 30.3 23.3 30.3 23.3-12.1-23.6-40.8-12.3-40.8-12.3 29.4-4 38.8 23 38.8 23-19.2-16.5-42.6-14.9-42.6-14.9 47 6.2 32.4 56.1 32.4 56.1.6-47.1-38.9-54-53.4-47.9-8.4 3.8-30.4 13.9-41.5 32.9 0 2 .1 5.5.1 7.2 0 0 15.7-34.3 72.3-31 0 0-35.5 5.8-42.8 20.7 0 0 28.6-20.9 52.7 6.4 0 0-15-11.3-37.5-3.2 0 0 43.2 2 52.8 48.2 0 0-33.2-38.1-68.4-37.1 0 0 39 3.8 52.8 68.6 0 0-28.6-40.9-59.2-56.8 0 0 26.3 23 25.8 72.8 0 0-19.5-48.9-41-64.4 0 0-4.5 3.7-6 9.6 4.6 93.9 49.1 121.1 116 124.9 31.2 1.8 45.9-2.4 55.9-7 16.6-7.6 28.7-21.8 35.8-34.7 4-7.3 7.2-15.2 9.3-23.1 2.2-7.9 3.8-16.1 4.7-24.3.8-8.2.9-16.4.6-24.5-.2-8.1-.6-16 .1-23.6.7-7.6 2.7-14.9 6.1-21.7.9-1.7 1.8-3.3 2.8-5 .5-.8 1-1.7 1.5-2.4s1-1.4 1.6-2c2.3-2.6 5.2-4.8 8.4-6.5 6.3-3.3 13.7-4.8 20.8-4.1 7.1.7 14 3.7 18.8 9 2.4 2.6 4.4 5.7 6 9 1.6 3.3 2.7 6.8 3.3 10.4 1.2 7.2 0 14.9-3.4 21.4-1.7 3.2-3.9 6.3-6.7 8.4-2.8 2-6.4 3.4-10 4.3-7.2 1.7-15.1 1-21.3-3.1-6.3-3.8-9.2-11.6-9.3-19.1 0-3.7.8-7.5 2.5-10.8 1.7-3.3 4.4-6.1 7.7-7.7.7-.3 2.7-1.2 5.5-1.5 2.8-.3 6.5.2 9.7 2 3.2 1.7 5.8 4.8 6.6 7.9.8 3.2.2 5.9.4 7.1.1.8.4 1.4 1 1.4.5 0 1.3-.7 1.9-2.5.1-.3.9-2.5.6-5.8-.2-1.7-.7-3.6-1.6-5.4-.9-1.8-2.3-3.5-3.9-4.8-3.1-2.7-7.1-4.2-10.4-4.7-3.3-.5-6-.1-7.2.1-2.5.5-4.9 1.4-7 2.7-2.2 1.3-3.9 3-5.5 4.9-3.1 3.8-4.8 8.4-5.5 13-.6 4.6-.2 9.2 1.1 13.6s3.6 8.7 7.4 12c3.5 3.1 7.8 5.2 12.3 6.3 4.5 1.1 9.1 1.1 13.5.5 4.4-.7 8.7-2 12.7-4.2 4.4-2.4 7.5-6.1 9.8-9.8 4.7-7.6 6.5-16.7 5.6-25.5-.5-4.4-1.6-8.7-3.4-12.7-1.8-4-3.9-7.7-6.8-11.2-5.8-6.9-14.4-11.1-23.2-12.1-8.7-1.1-17.6.6-25.4 4.6-3.8 2-7.3 4.6-10.2 7.9-1.5 1.6-2.7 3.6-3.7 5.3-1.1 1.7-2.1 3.5-3 5.4-3.8 7.3-6 15.5-6.8 23.6-.8 8.1-.3 16.1 0 23.9.1 1.7.1 3.4.2 5-1-3.8-2.4-7.5-4.1-11.1-.9-1.8-1.7-3.5-2.9-5.3-1.1-1.8-2.5-3.5-3.9-5-2.9-2.9-6.1-5.3-9.7-7.2-3.6-1.9-7.5-3.2-11.6-3.6-4.1-.5-8.4.2-12.1 1.9-3.7 1.6-7.2 4.1-9.6 7.5-2.4 3.4-3.6 7.6-3.6 11.6s1 8 3.1 11.4c2 3.4 5.4 6.2 9.3 7.2 1.9.5 4 .6 5.9.4 2-.2 3.9-.8 5.6-1.8.4-.2 1.4-.8 2.4-1.9 1.1-1.1 2.1-2.7 2.7-4.4 1.2-3.5.2-7.1-1.2-7.7-.9-.4-2.3-.2-2.2.8 0 .2.1 2.3-.6 4.2-.7 2-2.2 3.4-2.6 3.8-.9.8-2.1 1.3-3.3 1.6-.6.1-1.3.2-2 .2s-1.4 0-2-.1c-2.6-.4-4.9-1.9-6.5-4.2-3.3-4.7-3.7-12-.5-16.8 1.6-2.4 4-4.3 6.9-5.6.7-.3 1.5-.6 2.2-.8.7-.2 1.5-.4 2.2-.5 1.5-.2 3.1-.3 4.6-.1 6.3.6 12.6 4.2 17.3 9.1 1.2 1.2 2.2 2.4 3.1 3.7.9 1.3 1.8 2.9 2.5 4.4 1.6 3.1 2.8 6.4 3.9 9.7 2 6.7 3.1 13.9 3.2 21 .3 12-1.9 24.2-6.3 35.5-.7 1.7-1.5 3.4-2.3 5-6.8 13.8-17.5 25.7-30.8 33.6-5.1 3-17.4 7.6-28.1 8.1l3.4-120.5-27.3-.3s35.7-101.1 49.8-104c47.1-9.8 218.9-6.1 228.5 1.8 9.6 7.9 48 105.8 48 105.8l-26.8.7 5.6 114.4c60.4-19.5 70.6-74.7 70.6-172.6h.6V178c.5 0 .4-.1.4-.2zM250 119.5c-13.6 0-24.7-11.1-24.7-24.7s11.1-24.7 24.7-24.7 24.7 11.1 24.7 24.7-11.1 24.7-24.7 24.7z"/><path d="M243.3 75.5c-5.8 2-10.5 6.7-12.5 12.5h12.5V75.5z"/></g></svg>
