<svg viewBox="0 0 500 286" version="1.1" xmlns="http://www.w3.org/2000/svg" xmlns:xlink="http://www.w3.org/1999/xlink">
    <defs></defs>
    <g id="Page-1" stroke-width="1" fill-rule="evenodd">
        <g id="train-transport" fill-rule="nonzero">
            <path d="M483.333333,252.566667 L11.1111111,252.566667 C5,252.566667 0,257.566667 0,263.677778 C0,269.788889 5,274.788889 11.1111111,274.788889 L22.2222222,274.788889 C22.2222222,280.9 27.2222222,285.9 33.3333333,285.9 C39.4444444,285.9 44.4444444,280.9 44.4444444,274.788889 L61.1111111,274.788889 C61.1111111,280.9 66.1111111,285.9 72.2222222,285.9 C78.3333333,285.9 83.3333333,280.9 83.3333333,274.788889 L100,274.788889 C100,280.9 105,285.9 111.111111,285.9 C117.222222,285.9 122.222222,280.9 122.222222,274.788889 L138.888889,274.788889 C138.888889,280.9 143.888889,285.9 150,285.9 C156.111111,285.9 161.111111,280.9 161.111111,274.788889 L177.777778,274.788889 C177.777778,280.9 182.777778,285.9 188.888889,285.9 C195,285.9 200,280.9 200,274.788889 L216.666667,274.788889 C216.666667,280.9 221.666667,285.9 227.777778,285.9 C233.888889,285.9 238.888889,280.9 238.888889,274.788889 L255.555556,274.788889 C255.555556,280.9 260.555556,285.9 266.666667,285.9 C272.777778,285.9 277.777778,280.9 277.777778,274.788889 L294.444444,274.788889 C294.444444,280.9 299.444444,285.9 305.555556,285.9 C311.666667,285.9 316.666667,280.9 316.666667,274.788889 L333.333333,274.788889 C333.333333,280.9 338.333333,285.9 344.444444,285.9 C350.555556,285.9 355.555556,280.9 355.555556,274.788889 L372.222222,274.788889 C372.222222,280.9 377.222222,285.9 383.333333,285.9 C389.444444,285.9 394.444444,280.9 394.444444,274.788889 L411.111111,274.788889 C411.111111,280.9 416.111111,285.9 422.222222,285.9 C428.333333,285.9 433.333333,280.9 433.333333,274.788889 L450,274.788889 C450,280.9 455,285.9 461.111111,285.9 C467.222222,285.9 472.222222,280.9 472.222222,274.788889 L483.333333,274.788889 C489.444444,274.788889 494.444444,269.788889 494.444444,263.677778 C494.444444,257.566667 489.444444,252.566667 483.333333,252.566667 Z M305.555556,47.0111111 L287.777778,47.0111111 L236.111111,3.12222222 C234.444444,2.01111111 232.777778,0.9 230.555556,0.9 L171.111111,0.9 C166.666667,0.9 162.777778,4.78888889 162.777778,9.23333333 C162.777778,13.6777778 166.666667,17.5666667 171.111111,17.5666667 L227.222222,17.5666667 L261.666667,47.0111111 L11.1111111,47.0111111 C5,47.0111111 0,52.0111111 0,58.1222222 L0,224.788889 C0,230.9 5,235.9 11.1111111,235.9 L40,235.9 C43.8888889,248.677778 55.5555556,258.122222 69.4444444,258.122222 C83.3333333,258.122222 95,248.677778 98.8888889,235.9 L167.777778,235.9 C171.666667,248.677778 183.333333,258.122222 197.222222,258.122222 C211.111111,258.122222 222.777778,248.677778 226.666667,235.9 L317.777778,235.9 C321.666667,248.677778 333.333333,258.122222 347.222222,258.122222 C361.111111,258.122222 372.777778,248.677778 376.666667,235.9 L394.444444,235.9 C460.555556,235.9 500,208.677778 500,163.677778 C500,107.011111 400,47.0111111 305.555556,47.0111111 Z M366.666667,124.788889 L366.666667,77.5666667 C415.555556,90.9 453.888889,117.011111 470,141.455556 L366.666667,141.455556 L366.666667,124.788889 Z M42.2222222,213.677778 L22.2222222,213.677778 L22.2222222,202.566667 L51.6666667,202.566667 C47.7777778,205.344444 44.4444444,209.233333 42.2222222,213.677778 Z M69.4444444,235.9 C65,235.9 61.1111111,232.011111 61.1111111,227.566667 C61.1111111,223.122222 65,219.233333 69.4444444,219.233333 C73.8888889,219.233333 77.7777778,223.122222 77.7777778,227.566667 C77.7777778,232.011111 73.8888889,235.9 69.4444444,235.9 Z M170,213.677778 L96.6666667,213.677778 C94.4444444,209.233333 91.1111111,205.344444 87.2222222,202.566667 L180,202.566667 C175.555556,205.344444 172.222222,209.233333 170,213.677778 Z M197.222222,235.9 C192.777778,235.9 188.888889,232.011111 188.888889,227.566667 C188.888889,223.122222 192.777778,219.233333 197.222222,219.233333 C201.666667,219.233333 205.555556,223.122222 205.555556,227.566667 C205.555556,232.011111 201.666667,235.9 197.222222,235.9 Z M320,213.677778 L224.444444,213.677778 C222.222222,209.233333 218.888889,205.344444 215,202.566667 L272.222222,202.566667 L294.444444,202.566667 L329.444444,202.566667 C325.555556,205.344444 322.222222,209.233333 320,213.677778 Z M347.222222,235.9 C342.777778,235.9 338.888889,232.011111 338.888889,227.566667 C338.888889,223.122222 342.777778,219.233333 347.222222,219.233333 C351.666667,219.233333 355.555556,223.122222 355.555556,227.566667 C355.555556,232.011111 351.666667,235.9 347.222222,235.9 Z M394.444444,213.677778 L374.444444,213.677778 C372.222222,209.233333 368.888889,205.344444 365,202.566667 L452.777778,202.566667 C433.333333,212.011111 408.888889,213.677778 394.444444,213.677778 Z M474.444444,180.344444 L22.2222222,180.344444 L22.2222222,69.2333333 L272.222222,69.2333333 L294.444444,69.2333333 L305.555556,69.2333333 C318.888889,69.2333333 332.222222,70.3444444 344.444444,72.5666667 C344.444444,73.1222222 344.444444,74.2333333 344.444444,74.7888889 L344.444444,124.788889 L344.444444,147.011111 C344.444444,156.455556 351.666667,163.677778 361.111111,163.677778 L477.777778,163.677778 C477.777778,169.788889 476.666667,175.344444 474.444444,180.344444 Z M44.4444444,147.011111 L94.4444444,147.011111 C103.888889,147.011111 111.111111,139.788889 111.111111,130.344444 L111.111111,108.122222 C111.111111,98.6777778 103.888889,91.4555556 94.4444444,91.4555556 L44.4444444,91.4555556 C35,91.4555556 27.7777778,98.6777778 27.7777778,108.122222 L27.7777778,130.344444 C27.7777778,139.233333 35,147.011111 44.4444444,147.011111 Z M50,113.677778 L88.8888889,113.677778 L88.8888889,124.788889 L50,124.788889 L50,113.677778 Z M135.555556,147.011111 L185.555556,147.011111 C195,147.011111 202.222222,139.788889 202.222222,130.344444 L202.222222,108.122222 C202.222222,98.6777778 195,91.4555556 185.555556,91.4555556 L135.555556,91.4555556 C126.111111,91.4555556 118.888889,98.6777778 118.888889,108.122222 L118.888889,130.344444 C118.888889,139.233333 126.111111,147.011111 135.555556,147.011111 Z M141.111111,113.677778 L180,113.677778 L180,124.788889 L141.111111,124.788889 L141.111111,113.677778 Z" id="Shape"></path>
        </g>
    </g>
</svg>
