<svg version="1.1" xmlns="http://www.w3.org/2000/svg" xmlns:xlink="http://www.w3.org/1999/xlink" x="0px" y="0px"
	 viewBox="0 0 500 614.5" enable-background="new 0 0 500 614.5" xml:space="preserve">
<g>
	<path d="M500,127.8C500,57.3,442.7,0,372.2,0H127.8C57.3,0,0,57.3,0,127.8v390.9h104l-75.4,68.5L51,611.9
		l102.7-93.2h194.3l105.6,95.7l22.4-24.7l-78.4-71.1H500V127.8z M127.8,33.4h244.4c52,0,94.4,42.3,94.4,94.4V168H33.4v-40.2
		C33.4,75.8,75.7,33.4,127.8,33.4z M33.4,485.3v-284h433.2v284H33.4z"/>
	<path d="M128.7,317.3c-29.8,0-54,24.2-54,54s24.2,54,54,54c29.7,0,54-24.2,54-54S158.5,317.3,128.7,317.3z
		 M128.7,392.1c-11.4,0-20.7-9.3-20.7-20.7c0-11.4,9.3-20.7,20.7-20.7s20.6,9.2,20.7,20.7C149.4,382.8,140.1,392.1,128.7,392.1z"/>
	<path d="M371.3,317.3c-29.8,0-54,24.2-54,54s24.2,54,54,54s54-24.2,54-54S401.1,317.3,371.3,317.3z M371.3,392.1
		c-11.4,0-20.7-9.3-20.7-20.7c0-11.4,9.3-20.7,20.7-20.7c11.4,0,20.7,9.2,20.7,20.7C392,382.8,382.7,392.1,371.3,392.1z"/>
</g>
</svg>
