<svg version="1.1"
	 xmlns="http://www.w3.org/2000/svg" xmlns:xlink="http://www.w3.org/1999/xlink"
	 x="0px" y="0px" viewBox="0 0 499.3 498.8" style="enable-background:new 0 0 499.3 498.8;"
	 xml:space="preserve">
<defs>
</defs>
<path class="st0" d="M448.5,498.8h-19.3c-5.4,0-10.6-2.2-14.5-6.2c-10.1-10.2-10.5-30.3-10.1-53.6l0.1-12.6
	c-14.9,2.5-31.5,6.8-48.8,11.4c-31.5,8.2-64,16.8-94.7,16.8h-27.9c-30.7,0-59.8-8.5-88-16.7c-15.5-4.5-30.5-8.9-44.5-11.4v7.3
	c0,8.5-6.6,65.1-35.6,65.1H45.9c-27,0-39.8-52.2-39.8-65.1l-0.4-62C1.9,351.9,0,327.8,0,300c0-31.6,3.7-63.4,10.5-89.7
	c1.5-5.8,3.2-11.3,5.2-16l1-2.5L39.6,36c1.1-7.8,6.9-17.1,17.3-19.8C113.4,1,245.8,0,247.1,0s133.8,1,190.3,16.2
	c10.3,2.7,16.1,12,17.2,19.9l24.1,158.7c1.7,4.6,3.4,9.9,4.8,15.5c6.6,25.6,10.2,57.4,10.2,89.7c0,8.8,0.6,17.5,1.1,25.8
	c1,15.1,1.9,29.5-0.2,43.2l4.7,16.2v48.5C499.3,450,472.9,498.8,448.5,498.8z M434.3,470.6h12.8c7.7-4.3,23.4-29.4,24-37v-46
	l-5.6-16.4l0.7-3.7c2.2-11.3,1.4-25.2,0.4-39.9c-0.6-8.9-1.1-18.2-1.1-27.6c0-30-3.3-59.3-9.3-82.6c-1.2-4.6-2.6-9-4-12.8l-2.3-7
	L427.1,42.7c-54.2-13.4-178.8-14.5-180-14.5c-1.2,0-125.9,1.1-180,14.5L43.5,200.6l-1.6,4.2c-1.6,3.9-2.9,8.2-4.1,12.6
	c-6.2,23.9-9.6,53.3-9.6,82.6c0,26.5,1.8,49.2,5.4,67.5l0.3,2.3l0.4,15.1v48.9c0,8.5,8.2,31.2,13.8,36.9h14.2
	c4.7-6.2,10.2-27.1,10.2-36.9v-38.4l15.1,1.1c21.3,1.5,42.8,7.8,65.5,14.4c26.2,7.6,53.4,15.6,80.1,15.6h27.9
	c27.1,0,57.8-8.1,87.6-15.8c24.8-6.5,48.2-12.6,69.1-14.1l15.1-1.1l-0.1,44.2C432.5,454.9,433,465.3,434.3,470.6z M376.3,298.3
	c-11.1,0-21.2-3-28.7-8.7c-7.2-5.6-11.5-13.4-12-22.1c-0.9-20.8,19.1-40.3,46.4-45.7c16.6-3.3,32.1-0.5,42.5,7.6
	c7.1,5.6,11.2,13.4,11.6,22.1c1.1,20.5-18.7,40-46.2,45.4C385.3,297.8,380.7,298.3,376.3,298.3z M395.3,248.6c-2.4,0-5,0.2-7.8,0.8
	c-15,3-23.8,12.4-23.7,16.6c4.1,3.5,11.4,5,20.5,3.2c15.1-3,23.8-12.2,23.5-16.2v-0.2c0-0.2,0-0.5-0.9-1.2
	C404.9,249.9,400.8,248.6,395.3,248.6z M117.2,298.2c-4.4,0-8.9-0.5-13.5-1.4c-27.2-5.4-47.1-24.9-46.2-45.3v-0.2
	c0.5-8.7,4.7-16.5,11.9-22.1c10.4-8.1,25.8-10.8,42.4-7.5c27.5,5.4,47.4,25.1,46.2,45.7c-0.4,8.5-4.6,16.4-11.8,22
	C138.8,295.2,128.4,298.2,117.2,298.2z M98.5,248.6c-5.5,0-9.6,1.3-11.8,2.9c-0.2,0.1-0.4,0.3-0.6,0.5c-0.2,0.3-0.4,0.5-0.5,0.7
	c-0.2,4.1,8.7,13.5,23.7,16.4c9.2,1.9,16.4,0.4,19.5-2c1.2-5.3-7.8-14.8-22.6-17.7C103.5,248.8,100.8,248.6,98.5,248.6z
	 M246.8,219.4c-116.1-0.3-142.5-6.5-155.1-19.5c-5.2-5.3-7.8-12.1-7.6-20l3.6-97.1c1.1-8.4,6.3-16.2,15.7-18
	c44.8-10.6,100.1-12.1,143.3-12.3h0.1c43.3,0.2,98.7,1.7,144,12.4c9.2,1.8,14.3,9.9,15,17.1l3.8,97.8c0.2,8.2-2.4,14.9-7.6,20.2
	C389.4,212.8,363,219,246.8,219.4z M115.7,90.9l-3.3,89.8c6.3,6.5,51.7,10.2,134.4,10.4c82.8-0.2,128.3-3.9,135-11l-3.9-89.3
	c-41.6-8.7-91.6-10.1-131.1-10.2C207.2,80.8,157,82.2,115.7,90.9z"/>
</svg>
