<svg version="1.1"
   xmlns="http://www.w3.org/2000/svg" xmlns:xlink="http://www.w3.org/1999/xlink"
   x="0px" y="0px" viewBox="0 0 500 578.9" style="enable-background:new 0 0 500 578.9;"
   xml:space="preserve">

<defs>
</defs>
<g>
  <g>
    <path class="st0" d="M467.9,224.7c-3.7,0-7.2,0.7-10.6,1.8V16c0-8.9-7.2-16-16-16c-8.9,0-16,7.2-16,16v224.8h-102v-120
      c0-24.6-20-44.7-44.7-44.7c-10.9,0-20.9,3.9-28.6,10.4c-7.8-6.5-17.7-10.4-28.6-10.4c-24.6,0-44.7,20-44.7,44.7v120h-102V16
      c0-8.9-7.2-16-16-16c-8.9,0-16,7.2-16,16v210.5c-3.3-1.2-6.9-1.8-10.6-1.8C14.4,224.7,0,239.1,0,256.8C0,274.6,14.4,289,32.1,289
      c11.9,0,22.3-6.5,27.8-16.1h116.8l0,84.2c0,34,11.8,58.2,35.1,71.9c-13.3,11-21.7,27.6-21.7,46.2c0,33,26.9,59.9,59.9,59.9
      c33,0,59.9-26.9,59.9-59.9c0-25.3-15.7-46.9-37.9-55.7l0,0L235,404.7c-18.4-7.3-26.2-21.5-26.2-47.7v-30.8c4,1.2,8.2,1.8,12.6,1.8
      c10.9,0,20.9-3.9,28.6-10.4c7.8,6.5,17.7,10.4,28.6,10.4c4.4,0,8.6-0.7,12.6-1.8V357c0,35.9,18.4,58,39.6,83.6
      c2.5,3.1,108.1,132.4,108.1,132.4c3.2,3.9,7.8,5.9,12.4,5.9c3.6,0,7.1-1.2,10.1-3.6c6.9-5.6,7.9-15.7,2.3-22.6
      c0,0-105.7-129.5-108.3-132.7c-19.4-23.4-32.2-38.8-32.2-63.1l0-74.3v-9.8h116.8c5.5,9.6,15.9,16.1,27.8,16.1
      c17.7,0,32.1-14.4,32.1-32.1C500,239.1,485.6,224.7,467.9,224.7z M250,502.9c-15.6,0-27.9-12.2-27.9-27.8
      c0-15.1,12.8-27.9,27.9-27.9c15.1,0,27.9,12.8,27.9,27.9C277.9,490.2,265.1,502.9,250,502.9z M221.4,296L221.4,296
      c-6.9,0-12.4-5.5-12.6-12.3v-0.3c0-0.2,0-0.4,0-0.5v-162c0-6.9,5.6-12.6,12.6-12.6c6.9,0,12.6,5.6,12.6,12.6v162.6
      C234,290.3,228.3,296,221.4,296z M291.2,283.4c0,6.9-5.6,12.6-12.6,12.6h0c-6.9,0-12.6-5.6-12.6-12.6V120.8
      c0-6.9,5.7-12.6,12.6-12.6c6.9,0,12.6,5.6,12.6,12.6V283.4z"/>
    <path class="st0" d="M164.9,420.4c-6.9-5.6-17-4.6-22.6,2.3L36.2,552.8c-5.6,6.9-4.6,17,2.3,22.6c3,2.4,6.6,3.6,10.1,3.6
      c4.7,0,9.3-2,12.4-5.9l106.2-130.1C172.8,436.1,171.8,426,164.9,420.4z"/>
  </g>
</g>
</svg>
