<?xml version="1.0" encoding="UTF-8"?>
<svg viewBox="0 0 32 46" version="1.1" xmlns="http://www.w3.org/2000/svg" xmlns:xlink="http://www.w3.org/1999/xlink">
    <!-- Generator: Sketch 53.2 (72643) - https://sketchapp.com -->
    <title>Bin icon</title>
    <desc>Created with Sketch.</desc>
    <g id="Icons---Kids" stroke="none" stroke-width="1" fill="none" fill-rule="evenodd">
        <g id="Icons/Kids_icons_board" transform="translate(-325.000000, -288.000000)" fill="#005589" fill-rule="nonzero">
            <g id="Icons" transform="translate(16.000000, 104.000000)">
                <g id="Assets/Icons/Equipments/Room/Bin" transform="translate(295.000000, 177.000000)">
                    <path d="M17,14.5 C16.7238576,14.5 16.5,14.7238576 16.5,15 L16.5,51 C16.5,51.2761424 16.7238576,51.5 17,51.5 L43,51.5 C43.2761424,51.5 43.5,51.2761424 43.5,51 L43.5,15 C43.5,14.7238576 43.2761424,14.5 43,14.5 L17,14.5 Z M17,13 L43,13 C44.1045695,13 45,13.8954305 45,15 L45,51 C45,52.1045695 44.1045695,53 43,53 L17,53 C15.8954305,53 15,52.1045695 15,51 L15,15 C15,13.8954305 15.8954305,13 17,13 Z M14.75,10 L45.25,10 C45.6642136,10 46,10.3357864 46,10.75 C46,11.1642136 45.6642136,11.5 45.25,11.5 L14.75,11.5 C14.3357864,11.5 14,11.1642136 14,10.75 C14,10.3357864 14.3357864,10 14.75,10 Z M25.75,7 L33.25,7 C33.6642136,7 34,7.33578644 34,7.75 C34,8.16421356 33.6642136,8.5 33.25,8.5 L25.75,8.5 C25.3357864,8.5 25,8.16421356 25,7.75 C25,7.33578644 25.3357864,7 25.75,7 Z M22.75,21 C23.1642136,21 23.5,21.3357864 23.5,21.75 L23.5,45.25 C23.5,45.6642136 23.1642136,46 22.75,46 C22.3357864,46 22,45.6642136 22,45.25 L22,21.75 C22,21.3357864 22.3357864,21 22.75,21 Z M30,21 C30.4142136,21 30.75,21.3357864 30.75,21.75 L30.75,45.25 C30.75,45.6642136 30.4142136,46 30,46 C29.5857864,46 29.25,45.6642136 29.25,45.25 L29.25,21.75 C29.25,21.3357864 29.5857864,21 30,21 Z M37.25,21 C37.6642136,21 38,21.3357864 38,21.75 L38,45.25 C38,45.6642136 37.6642136,46 37.25,46 C36.8357864,46 36.5,45.6642136 36.5,45.25 L36.5,21.75 C36.5,21.3357864 36.8357864,21 37.25,21 Z" id="Bin-icon"></path>
                </g>
            </g>
        </g>
    </g>
</svg>
