<svg version="1.1" id="Layer_1" xmlns="http://www.w3.org/2000/svg" xmlns:xlink="http://www.w3.org/1999/xlink" x="0px" y="0px"
	 viewBox="0 0 500 500" style="enable-background:new 0 0 500 500;" xml:space="preserve">
<g>
	<path class="st0" d="M245,284.7c-10.9,0-19.8-8.8-19.8-19.5c0-10.8,8.9-19.5,19.8-19.5c10.9,0,19.8,8.8,19.8,19.5
		C264.8,275.9,255.9,284.7,245,284.7z M245,254c-6.2,0-11.3,5-11.3,11.1c0,6.1,5.1,11.1,11.3,11.1c6.2,0,11.3-5,11.3-11.1
		C256.3,259,251.2,254,245,254z"/>
</g>
<g>
	<path class="st0" d="M252.3,310c0.4,20-4.9,50.6-37.8,62.6c-0.5,0.2-1,0.3-1.5,0.3c-1.7,0-3.4-1-4-2.7c-0.8-2.2,0.3-4.6,2.5-5.4
		c18-6.6,28.7-20.3,31.6-40.9c2.3-15.9-1.1-30.1-1.1-30.2c-0.5-2.1,0.7-4.2,2.7-4.9c2-0.7,4.3,0.2,5.3,2.1
		C250,290.8,252.3,298.7,252.3,310z"/>
</g>
<g>
	<path class="st0" d="M273.9,372.8c-0.2,0-0.3,0-0.5,0c-2.3-0.3-4-2.4-3.7-4.7c2.7-21.6-15-25.5-15.8-25.6c-2.3-0.5-3.8-2.7-3.3-4.9
		c0.5-2.3,2.7-3.7,5-3.3c9.1,1.8,25.4,11.4,22.5,34.9C277.9,371.3,276,372.8,273.9,372.8z"/>
</g>
<g>
	<path class="st0" d="M210.3,254c0.2,0,0.3,0,0.5,0c2.3,0.3,4,2.4,3.7,4.7c-2.7,21.6,15,25.5,15.8,25.6c2.3,0.5,3.8,2.7,3.3,4.9
		c-0.5,2.3-2.7,3.7-5,3.3c-9.1-1.8-25.4-11.4-22.5-34.9C206.3,255.5,208.2,254,210.3,254z"/>
</g>
<g>
	<path class="st0" d="M260.9,291.4c-0.1-0.1-0.2-0.2-0.3-0.4c-1.4-1.8-1.1-4.5,0.7-5.9c17.4-13.4,5.8-47.7,5.4-48.3
		c-1.3-1.9-0.8-4.5,1.2-5.8c2-1.3,4.6-0.7,5.9,1.2c5.1,7.6,11.6,45-7.2,59.5C264.8,293,262.4,292.9,260.9,291.4z"/>
</g>
<g>
	<path class="st1" d="M141.5,213c2.2,0.9,86.6,42.7,212.5-5.2"/>
	<path class="st1" d="M137.5,356.5c0,0,57.4,61.9,237.2,0.9"/>
</g>
<g>
	<path class="st2" d="M376.2,215.3"/>
</g>
<g>
	<path class="st2" d="M369.9,249.6"/>
</g>
<g>
	<path class="st0" d="M405.6,427.8C405.6,427.8,405.6,427.8,405.6,427.8c-2.3,0-4.2-1.9-4.2-4.1l-2-274.4c0-2.3,1.9-4.1,4.2-4.1
		c0,0,0,0,0,0c2.3,0,4.2,1.9,4.1,4.1l2,274.4C409.7,425.9,407.9,427.8,405.6,427.8z"/>
	<path class="st0" d="M401.4,200.5c-1.1,0-2.1-0.4-2.9-1.2L370.9,172c-1.6-1.6-1.6-4.2,0-5.8s4.3-1.6,5.9,0l27.6,27.2
		c1.6,1.6,1.6,4.2,0,5.8C403.5,200.1,402.5,200.5,401.4,200.5z"/>
	<path class="st0" d="M403.5,178.8c-1.1,0-2.1-0.4-2.9-1.2c-1.6-1.6-1.6-4.2,0-5.8l29.5-29.1c1.6-1.6,4.3-1.6,5.9,0
		c1.6,1.6,1.6,4.2,0,5.8l-29.5,29.1C405.7,178.4,404.6,178.8,403.5,178.8z"/>
</g>
<g>
	<path class="st0" d="M96.3,427.8C96.3,427.8,96.3,427.8,96.3,427.8c-2.3,0-4.2-1.9-4.2-4.1l0.3-274.4c0-2.3,1.9-4.1,4.2-4.1
		c0,0,0,0,0,0c2.3,0,4.2,1.9,4.1,4.1l-0.3,274.4C100.5,425.9,98.6,427.8,96.3,427.8z"/>
	<path class="st0" d="M94.5,200.5c-1.1,0-2.1-0.4-2.9-1.2L64,172c-1.6-1.6-1.6-4.2,0-5.8c1.6-1.6,4.3-1.6,5.9,0l27.6,27.2
		c1.6,1.6,1.6,4.2,0,5.8C96.6,200.1,95.5,200.5,94.5,200.5z"/>
	<path class="st0" d="M96.6,178.8c-1.1,0-2.1-0.4-2.9-1.2c-1.6-1.6-1.6-4.2,0-5.8l29.5-29.1c1.6-1.6,4.3-1.6,5.9,0
		c1.6,1.6,1.6,4.2,0,5.8l-29.5,29.1C98.7,178.4,97.7,178.8,96.6,178.8z"/>
</g>
<g>
	<path class="st0" d="M308.1,166.2c0-23.1,17.3-43,40.4-46.4c2.1-0.3,4.3-0.6,6.5-0.5c0.9,0,1.2-0.3,1.2-1.2
		c0.2-9,2.7-17.3,7.8-24.7c8.6-12.5,20.6-19.8,35.9-21c24.3-1.9,45.5,14,50.5,37.5c0.6,2.6,0.9,5.3,0.9,8c0,1,0.3,1.4,1.4,1.5
		c18.6,0.9,32.4,9.5,41.2,25.6c9.4,17.3,5.8,40-8.2,54c-8,8-17.6,12.7-28.9,14c-9.4,1.1-18.4-0.6-26.8-4.8c-2.8-1.4-3.8-4.4-2.5-7
		c1.3-2.6,4.4-3.5,7.1-2.2c5.8,2.9,11.9,4.3,18.3,4c14.8-0.9,25.7-7.9,32.1-20.9c10.6-21.6-2.7-47.3-26.6-51.8
		c-3.7-0.7-7.5-0.8-11.3-0.4c-4.4,0.6-6.9-2-6.4-6.4c2.4-19.4-11.4-37.5-31-40.5c-20.3-3.2-39.4,10.4-42.6,30.4
		c-0.6,3.5-0.6,7.1-0.1,10.6c0.5,3.6-2.1,6.4-5.8,6c-6.3-0.7-12.5-0.4-18.4,2c-14.2,5.8-22.5,16.2-23.9,31.3
		c-1.7,18.9,11.3,35.6,30.3,39.1c8.2,1.5,16,0.4,23.4-3.3c1.3-0.6,2.6-1.1,4-0.7c2.1,0.5,3.7,2.1,4.1,4.2c0.4,2.1-0.7,4.3-2.7,5.4
		c-4.6,2.4-9.4,4-14.5,4.8c-20.7,3.1-40.1-6.5-49.8-24.7C309.8,181.2,308.1,173.9,308.1,166.2z"/>
</g>
<g>
	<path class="st0" d="M1,166.2c0-23.1,17.3-43,40.4-46.4c2.1-0.3,4.3-0.6,6.5-0.5c0.9,0,1.2-0.3,1.2-1.2c0.2-9,2.7-17.3,7.8-24.7
		c8.6-12.5,20.6-19.8,35.9-21c24.3-1.9,45.5,14,50.5,37.5c0.6,2.6,0.9,5.3,0.9,8c0,1,0.3,1.4,1.4,1.5c18.6,0.9,32.4,9.5,41.2,25.6
		c9.4,17.3,5.8,40-8.2,54c-8,8-17.6,12.7-28.9,14c-9.4,1.1-18.4-0.6-26.8-4.8c-2.8-1.4-3.8-4.4-2.5-7c1.3-2.6,4.4-3.5,7.1-2.2
		c5.8,2.9,11.9,4.3,18.3,4c14.8-0.9,25.7-7.9,32.1-20.9c10.6-21.6-2.7-47.3-26.6-51.8c-3.7-0.7-7.5-0.8-11.3-0.4
		c-4.4,0.6-6.9-2-6.4-6.4c2.4-19.4-11.4-37.5-31-40.5c-20.3-3.2-39.4,10.4-42.6,30.4c-0.6,3.5-0.6,7.1-0.1,10.6
		c0.5,3.6-2.1,6.4-5.8,6c-6.3-0.7-12.5-0.4-18.4,2c-14.2,5.8-22.5,16.2-23.9,31.3c-1.7,18.9,11.3,35.6,30.3,39.1
		c8.2,1.5,16,0.4,23.4-3.3c1.3-0.6,2.6-1.1,4-0.7c2.1,0.5,3.7,2.1,4.1,4.2c0.4,2.1-0.7,4.3-2.7,5.4c-4.6,2.4-9.4,4-14.5,4.8
		c-20.7,3.1-40.1-6.5-49.8-24.7C2.7,181.2,1,173.9,1,166.2z"/>
</g>
</svg>
