<svg xmlns="http://www.w3.org/2000/svg" viewBox="0 0 500 311.2"><g><path d="M287.2 3.4C172.5-15.8 56 47.9 14.8 144.8c-40.3 94.7 9.7 155.9 52.1 164.7 48.2 9.9 79.1-23.1 79.8-53.1 1.4-59.1-56.9-67.5-76.7-64.3 24.6-30.6 64.3-30.4 97.6-14.8 48 22.3 55.1 71.3 123.6 101 53.4 23.1 107.1 28.4 138.1 30.9-9.9-26.8-19-48-40.9-68.5-28.2-26.4-89.6-31.5-121-60 0 0-.1 21 3.1 26.6 3.2 5.5-31.5-13.9-39.8-46.2 0 0-3.2-11-4.1-16.2 0 0-34.6-26.9-44.3-36.8-9.6-9.8-35.3-30.9-34.2-36.1 1.1-5.2 28.6 7.5 36.6 5.9 12.3-2.3 62.1-20.5 136.4 27.7 6.8 4.4 21.4-4.5 40.8-6.5 36.6-3.8 49.6 9.5 52.8 17.7 1.2 3.1 1.6 6.1 1 9.7-.6 3.2-1.9 6.4-4.1 9.1-2.5 2.7-5.9 4.6-9.7 4.9-3.7.3-7.4-.6-10.5-2.6-3.1-1.9-5.7-5.3-6.6-9.1-.5-1.8-.6-4.1 0-6.1.5-2 1.5-3.9 2.8-5.4.3-.4 1.5-1.6 2.8-2.5 1.3-.9 2.8-1.4 3-1.5.7-.3 1 1 1 1.8-.1 1.2-1.2 2.3-2 3.4-.9 1.1-1.5 2.1-1.7 2.3-1.5 2.2-1.7 4.9-.8 7.3.9 2.4 2.6 4.2 4.8 5.3 2.2 1.1 4.7 1.5 6.9 1.1 2.2-.4 4.1-1.7 5.5-3.4 1.5-1.7 2.6-4 3-6.3.2-1.2.3-2.3.2-3.4-.1-1.2-.4-2.3-.8-3.4-1.6-4.5-4.7-7.5-9.9-9.2-16.9-5.5-37.7 11.6-29.3 32.1 7.9 19 67.7 61.2 76.4 168.1l48.5-4c28.1-143.2-69-278.3-208-301.6zM209.3 89.6c-8.1-.5-8 11.8.1 12.2 8.2.5 8.1-11.8-.1-12.2z"/></g></svg>
