<svg xmlns="http://www.w3.org/2000/svg" viewBox="0 0 500 312.6"><path d="M500 25.8c-7.4 1.1-37.3 13-37.3 13 14-8.6 22.1-18.3 22.1-18.3-15.2.9-36.9 12.2-36.9 12.2 17.6-10.6 14.4-25.1 14.4-25.1-8.7 10-27.4 20.5-27.4 20.5 6.6-13.3-2.5-28.1-2.5-28.1 1.6 21.8-24.1 41.9-24.1 41.9 13.4-22.1 0-38 0-38 1.6 21-26.5 46.8-31.2 50.9-24.1 20.9-36.4 38.1-40.8 63.9-1.4 8.2-1.7 16.6-.2 24.6s5 15.6 10.7 20.9c2.8 2.8 6.1 4.8 9.9 5.8 3.7 1.1 7.7 1.2 11.6.6 7.7-1.3 15-6 17.7-13.1 1.5-3.5 2.1-7.4 1.5-10.9-.6-3.5-2.6-6.7-5.4-8.6-2.7-1.8-6.7-2.5-10.2-2-3.6.5-6.8 2.2-8.8 5-.1.2-.3.4-.5.8s-.5.8-.8 1.4c-.5 1-.8 2.1-.8 3.3 0 2.3 1.3 5.5 1.3 5.7.5 1.5-.6 1.9-1.5 1.4-.6-.3-1.4-1.4-2.2-2.9-.7-1.5-1.4-3.5-1.3-5.6.1-2.1 1-4.1 1.9-5.5.9-1.4 1.8-2.4 2.1-2.7 3.1-3.2 7.6-5 12-5.2 2.2-.1 4.5.1 6.7.7s4.3 1.6 6.1 3.1c3.6 2.9 5.8 7.4 6.3 12s-.5 9.2-2.3 13.3c-.9 2-2.2 4.1-3.7 5.8-1.5 1.7-3.3 3.3-5.2 4.6-3.8 2.6-8.1 4.3-12.6 5-4.5.8-9.2.6-13.7-.7-2.2-.6-4.4-1.6-6.5-2.7-2.1-1.2-3.9-2.7-5.6-4.2-3.4-3.3-6.1-7.3-8-11.5-2-4.2-3.2-8.7-4-13.2-1.5-9-.9-18.2.9-27 .8-3.8 1.8-7.5 3-11.2-14.3 18.2-40.7 37.4-45.1 37.6-5.2.3-23.4-14.5-37.2-16.6-13.9-2.1-11.9 3.9-18.3 4-10.4.2-12.8 6.4-12.8 6.4s10.5-.1 19.5 8.4c11.3 10.7 2.2 28 2.2 28s-26.5 15.3-70.7 24.4C137.7 205 62.6 216 42.6 200.8c0 0 4.6 16 33.7 19.8 0 0-28.5 5.7-59.4-5.4 0 0 5.4 20.8 45.7 19.5 0 0-15.1 11.2-51.9 11 0 0 21.8 14.4 51.3 6 0 0-29.1 17.8-62.1 20.2 0 0 29 9.4 69-1.7 0 0 32.4 24.7 84.9 28.9 30.5 2.5 98-7.8 146.8-43.5 19.6-14.4 65.6 9.6 84.6 57.3 0 0 46.3-10.7 48.5-36.3-31-18.4-50-42.4-59.1-60.7-21.1-2.7-29.5-22.2-55-7-14.4 8.6-12.1-4.7-28 4-24.6 13.4-49.4 55-85.1 52.7 22.2-6.9 41.8-23.2 58.6-41.4-10.6-2.7-16.6-8.8-16.6-8.8-5.8-6.4-26 15.5-39 7.5-9.7 9.6-38 35.5-46.4 33.6 13.2-5.8 71.7-61.7 71.7-61.7 8.7 7.7 15.5 20 33 26.4 21.5-24.1 38.1-50.8 48.8-63.1 10.3 12 33.6 54 54.9 50.4 63.9-10.7 91.1-93.5 91.1-93.5 11.4-34.8 7.3-63 7.3-63 10.5-5.2 31-20.6 30.1-26.2z"/></svg>
