<svg viewBox="0 0 465 501" version="1.1" xmlns="http://www.w3.org/2000/svg" xmlns:xlink="http://www.w3.org/1999/xlink">
    <defs></defs>
    <g id="Page-1" stroke-width="1" fill-rule="evenodd">
        <g id="umbrella" fill-rule="nonzero">
            <path d="M309.552264,450.164333 C309.552264,445.737119 313.14123,442.148153 317.568444,442.148153 C321.995658,442.148153 325.584624,445.737119 325.584624,450.164333 C325.584624,478.203355 302.854506,500.933473 274.815484,500.933473 C246.776462,500.933473 224.046344,478.203355 224.046344,450.164333 C224.046344,445.737119 227.63531,442.148153 232.062524,442.148153 C236.489738,442.148153 240.078704,445.737119 240.078704,450.164333 C240.078704,469.348927 255.63089,484.901113 274.815484,484.901113 C294.000078,484.901113 309.552264,469.348927 309.552264,450.164333 Z M224.046344,219.683125 C224.046344,215.255911 227.63531,211.666945 232.062524,211.666945 C236.489738,211.666945 240.078704,215.255911 240.078704,219.683125 L240.078704,451.190404 C240.078704,455.617618 236.489738,459.206584 232.062524,459.206584 C227.63531,459.206584 224.046344,455.617618 224.046344,451.190404 L224.046344,219.683125 Z M383.307899,119.49481 C381.310908,115.543575 382.895136,110.721586 386.84637,108.724596 C390.797604,106.727605 395.619593,108.311832 397.616584,112.263067 C406.927749,130.686085 413.708162,150.282224 417.773985,170.520171 C418.645993,174.860658 415.834235,179.086219 411.493748,179.958227 C407.153261,180.830235 402.927699,178.018477 402.055691,173.677991 C398.274192,154.855285 391.967934,136.629505 383.307899,119.49481 Z M165.474789,268.72077 C165.474789,273.147984 161.885823,276.73695 157.458609,276.73695 C153.031395,276.73695 149.442429,273.147984 149.442429,268.72077 L149.442429,224.043927 C149.442429,100.849667 184.081166,0.980357945 232.062524,0.980357945 C280.043882,0.980357945 314.68262,100.849667 314.68262,224.043927 L314.68262,268.72077 C314.68262,273.147984 311.093653,276.73695 306.666439,276.73695 C302.239226,276.73695 298.650259,273.147984 298.650259,268.72077 L298.650259,224.043927 C298.650259,109.483473 266.577642,17.012718 232.062524,17.012718 C197.547407,17.012718 165.474789,109.483473 165.474789,224.043927 L165.474789,268.72077 Z M298.650259,268.72077 C298.650259,245.70393 269.376655,225.647163 232.062524,225.647163 C194.748393,225.647163 165.474789,245.70393 165.474789,268.72077 C165.474789,273.147984 161.885823,276.73695 157.458609,276.73695 C153.031395,276.73695 149.442429,273.147984 149.442429,268.72077 C149.442429,245.758927 120.030427,225.647163 82.8546935,225.647163 C45.6351559,225.647163 16.0531934,245.795508 16.0531934,268.72077 C16.0531934,279.40901 0.0208333333,279.40901 0.0208333333,268.72077 C0.0208333333,255.435019 6.005946,243.361145 16.0531934,233.639392 L16.0531934,268.72077 L0.0208333333,268.72077 L0.0224745728,223.881723 C1.24398169,163.526888 26.3978082,106.130794 69.9475978,64.3263209 C113.497387,22.5218473 171.873761,-0.264674677 231.896969,0.982067706 C292.251288,-0.264674677 350.627661,22.5218473 394.177451,64.3263209 C437.72724,106.130794 462.881067,163.526888 464.104215,224.043927 L464.104215,268.72077 C464.104215,279.40901 448.071855,279.40901 448.071855,268.72077 C448.071855,245.740777 418.628322,225.647163 381.270355,225.647163 C343.956224,225.647163 314.68262,245.70393 314.68262,268.72077 C314.68262,273.147984 311.093653,276.73695 306.666439,276.73695 C302.239226,276.73695 298.650259,273.147984 298.650259,268.72077 Z M306.666439,243.061487 C320.030482,223.012477 348.639204,209.614803 381.270355,209.614803 C408.455433,209.614803 432.903404,218.904907 448.073151,233.58165 L448.073496,224.206131 C446.938051,168.103633 423.556453,114.751417 383.07499,75.8923032 C342.593528,37.0331894 288.330098,15.8521058 231.896969,17.0110082 C175.79495,15.8521058 121.53152,37.0331894 81.0500579,75.8923032 C40.5685954,114.751417 17.1869972,168.103633 16.0531934,224.043927 L16.0531934,233.639392 C31.2473152,218.937504 55.7313436,209.614803 82.8546935,209.614803 C115.387796,209.614803 144.045188,223.039944 157.440151,243.089196 C170.796297,223.024822 199.416343,209.614803 232.062524,209.614803 C264.693675,209.614803 293.302397,223.012477 306.666439,243.061487 Z" id="Shape"></path>
        </g>
    </g>
</svg>
