<?xml version="1.0" encoding="UTF-8"?>
<svg viewBox="0 0 58 31" version="1.1" xmlns="http://www.w3.org/2000/svg" xmlns:xlink="http://www.w3.org/1999/xlink">
    <!-- Generator: Sketch 52.3 (67297) - http://www.bohemiancoding.com/sketch -->
    <title>Shape</title>
    <desc>Created with Sketch.</desc>
    <g id="Page-1" stroke="none" stroke-width="1" fill="none" fill-rule="evenodd">
        <g id="duration" transform="translate(-0.889829, 0.252101)" fill="#000000" fill-rule="nonzero">
            <path d="M8.35255676,6.26235992 L25.3525568,6.26235992 C26.1809839,6.26235992 26.8525568,6.93393279 26.8525568,7.76235992 C26.8525568,8.59078704 26.1809839,9.26235992 25.3525568,9.26235992 L8.35255676,9.26235992 C7.52412963,9.26235992 6.85255676,8.59078704 6.85255676,7.76235992 C6.85255676,6.93393279 7.52412963,6.26235992 8.35255676,6.26235992 Z M8.35255676,18.7047785 L24.3525568,18.7047785 C25.1809839,18.7047785 25.8525568,19.3763514 25.8525568,20.2047785 C25.8525568,21.0332057 25.1809839,21.7047785 24.3525568,21.7047785 L8.35255676,21.7047785 C7.52412963,21.7047785 6.85255676,21.0332057 6.85255676,20.2047785 C6.85255676,19.3763514 7.52412963,18.7047785 8.35255676,18.7047785 Z M2.37474526,12.7243777 L23.3747453,12.7243777 C24.2031724,12.7243777 24.8747453,13.3959506 24.8747453,14.2243777 C24.8747453,15.0528048 24.2031724,15.7243777 23.3747453,15.7243777 L2.37474526,15.7243777 C1.54631814,15.7243777 0.874745262,15.0528048 0.874745262,14.2243777 C0.874745262,13.3959506 1.54631814,12.7243777 2.37474526,12.7243777 Z M43.5675499,16.0337442 C43.2841115,16.0337442 43.0124831,15.8961925 42.8412391,15.6569721 L36.9835133,7.42181145 C36.69417,7.01513685 36.7827445,6.44698851 37.1842822,6.15394358 C37.5858198,5.86089865 38.1467915,5.95658679 38.4361348,6.35728088 L43.9513726,14.1199813 L49.0060231,13.0793728 C49.4961352,12.9836847 49.9626275,13.2946711 50.0630119,13.7850728 C50.1633963,14.2754746 49.8504331,14.7539153 49.366226,14.8555839 L43.7446988,16.0098221 C43.6856492,16.0277637 43.6265995,16.0337442 43.5675499,16.0337442 Z M43.7624137,29.9025441 C35.6253713,29.9025441 29,23.1983937 29,14.9512721 C29,6.70415039 35.6253713,0 43.7624137,0 C51.8994562,0 58.5248274,6.70415039 58.5248274,14.9512721 C58.5248274,23.1983937 51.8994562,29.9025441 43.7624137,29.9025441 Z M43.7624137,1.81209417 C36.6115005,1.81209417 30.7892045,7.70887587 30.7892045,14.9512721 C30.7892045,22.1936682 36.6115005,28.0904499 43.7624137,28.0904499 C50.9133269,28.0904499 56.7356229,22.1936682 56.7356229,14.9512721 C56.7356229,7.70887587 50.9133269,1.81209417 43.7624137,1.81209417 Z" id="Shape"></path>
        </g>
    </g>
</svg>
