<svg id="Calque_1" data-name="Calque 1" xmlns="http://www.w3.org/2000/svg" viewBox="0 0 100 100"><defs></defs><path class="cls-1" d="M96.14,76H36.24L54,54.79l5.39,6.5a1.5,1.5,0,0,0,1.15.54,1.52,1.52,0,0,0,.93-.32l6.06-4.78,4.27,4.62a1.51,1.51,0,0,0,2.09.11l6.1-5.3,14.3,14.3a1.47,1.47,0,0,0,1.06.44,1.45,1.45,0,0,0,1.06-.44,1.49,1.49,0,0,0,0-2.12L79.36,51.26l8.87-8.88,5.87,4.24a1.48,1.48,0,0,0,.87.28,1.5,1.5,0,0,0,.88-2.72l-5.47-3.94L96,34.58a1.5,1.5,0,0,0-2.13-2.12L77.24,49.13l-11-11a1.5,1.5,0,0,0-1.13-.43,1.47,1.47,0,0,0-1.08.53L32.81,75.42a1.53,1.53,0,0,0-.3.58H25a1.5,1.5,0,0,0,0,3H96.14a1.5,1.5,0,0,0,0-3ZM65.25,41.39,76.18,52.32,77.89,54l-4.84,4.21-4.23-4.56a1.5,1.5,0,0,0-2-.16l-6,4.73L56,52.45Z"/><path class="cls-1" d="M26.36,83.33H22.47V68a18.51,18.51,0,0,0,12.74-30.4A14.21,14.21,0,0,0,31,27.92a10.39,10.39,0,0,0,.65-3.59,10.66,10.66,0,0,0-21.32,0A10.43,10.43,0,0,0,11,27.92,14.11,14.11,0,0,0,6.73,37.6,18.52,18.52,0,0,0,19.47,68V83.33H15.58a1.5,1.5,0,1,0,0,3H26.36a1.5,1.5,0,0,0,0-3Zm-21-33.85a15.53,15.53,0,0,1,4-10.33,1.49,1.49,0,0,0,.38-1,1,1,0,0,0,0-.25,11.23,11.23,0,0,1,4-8.45,1.49,1.49,0,0,0,.38-1.8,7.65,7.65,0,1,1,14.53-3.32,7.51,7.51,0,0,1-.8,3.32,1.52,1.52,0,0,0,.38,1.8,11.16,11.16,0,0,1,4,8.45c0,.07,0,.17,0,.22a1.54,1.54,0,0,0,.38,1A15.51,15.51,0,0,1,22.47,65v-7.8h0V53.06l7-6.54a1.5,1.5,0,1,0-2-2.2l-5,4.64v-.91a1.5,1.5,0,0,0-3,0v6.38l-5.29-3.5a1.5,1.5,0,1,0-1.66,2.5l7,4.59v7A15.62,15.62,0,0,1,5.36,49.48Z"/></svg>
