<svg viewBox="0 0 501 403" version="1.1" xmlns="http://www.w3.org/2000/svg" xmlns:xlink="http://www.w3.org/1999/xlink">
    <defs></defs>
    <g id="Page-1" stroke-width="1" fill-rule="evenodd">
        <g id="ventilatedlocker" fill-rule="nonzero">
            <path d="M355.202443,42.6045506 C351.059279,44.2907218 346.33367,42.298936 344.647498,38.1557723 C342.961327,34.0126087 344.953113,29.2869991 349.096277,27.6008278 C349.788897,27.3169416 349.788897,27.3169416 350.462766,27.0330353 C355.639805,24.8373232 370.80891,16.7227969 368.640743,17.8084419 C377.126385,13.5595104 384.593041,11.6686109 395.345818,11.6686109 C406.522911,11.6686109 413.928607,15.7330766 426.317983,25.8423577 C428.082981,27.2857561 428.913392,27.9627308 429.775215,28.6537052 C436.2239,33.8239951 440.113284,35.9770333 443.968356,36.3187238 C459.583594,37.6236112 475.192961,33.7383103 488.374491,25.2656683 C492.137355,22.8470263 497.148457,23.9367338 499.567099,27.6995983 C501.985741,31.4624627 500.896033,36.4735639 497.133169,38.892206 C480.95129,49.2933704 461.788957,54.0630341 442.579024,52.4576543 C434.602814,51.7509015 428.415623,48.3258714 419.642437,41.2918924 C418.720539,40.5527521 417.831421,39.8279181 416.077056,38.3930704 C406.449254,30.5371333 401.584629,27.8672825 395.345818,27.8672825 C387.204835,27.8672825 382.200802,29.1345332 375.893352,32.2928 C378.652273,30.9113528 362.758885,39.4133252 356.787671,41.9458666 C356.005606,42.2753563 356.005606,42.2753563 355.202443,42.6045506 Z M355.202443,106.103343 C351.059279,107.789515 346.33367,105.797729 344.647498,101.654565 C342.961327,97.5114016 344.953113,92.785792 349.096277,91.0996207 C349.788897,90.8157345 349.788897,90.8157345 350.462766,90.5318282 C355.639805,88.3361161 370.80891,80.2215898 368.640743,81.3072348 C377.126385,77.0583033 384.593041,75.1674038 395.345818,75.1674038 C406.522911,75.1674038 413.928607,79.2318695 426.317983,89.3411506 C428.082981,90.784549 428.913392,91.4615237 429.775215,92.1524981 C436.2239,97.3227879 440.113284,99.4758262 444.013937,99.8214553 C459.606698,101.213201 475.215116,97.3281366 488.336075,88.7893074 C492.085217,86.3494487 497.102394,87.4108328 499.542253,91.1599751 C501.982111,94.9091175 500.920727,99.9262941 497.171585,102.366153 C481.008672,112.884618 461.781611,117.670393 442.579024,115.956447 C434.602814,115.249694 428.415623,111.824664 419.642437,104.790685 C418.720539,104.051545 417.831421,103.326711 416.077056,101.891863 C406.449254,94.0359262 401.584629,91.3660754 395.345818,91.3660754 C387.204835,91.3660754 382.200802,92.6333261 375.893352,95.7915929 C378.652273,94.4101457 362.758885,102.912118 356.787671,105.44466 C356.005606,105.774149 356.005606,105.774149 355.202443,106.103343 Z M355.771493,169.560523 L355.276822,169.787417 C351.150615,171.514666 346.40545,169.569927 344.6782,165.443719 C342.950951,161.317512 344.89569,156.572348 348.527227,155.071991 L349.021898,154.845098 C354.792868,152.429343 371.783003,143.24818 368.611836,144.851925 C377.076022,140.571356 384.567376,138.666197 395.345818,138.666197 C406.522911,138.666197 413.928607,142.730662 426.317983,152.839943 C428.082981,154.283342 428.913392,154.960317 429.775215,155.651291 C436.2239,160.821581 440.113284,162.974619 443.923464,163.312684 C459.582823,164.533613 475.196807,160.442613 488.245603,151.699897 C491.96175,149.210071 496.992684,150.204202 499.482509,153.920349 C501.972334,157.636496 500.978204,162.66743 497.262057,165.157256 C481.188038,175.926877 461.954119,180.966332 442.579024,179.45524 C434.602814,178.748487 428.415623,175.323457 419.642437,168.289478 C418.720539,167.550338 417.831421,166.825504 416.077056,165.390656 C406.449254,157.534719 401.584629,154.864868 395.345818,154.864868 C387.200881,154.864868 382.196366,156.136061 375.93612,159.300182 C379.7128,157.391719 361.913123,167.009406 355.771493,169.560523 Z M309.653912,315.189802 C308.126373,319.394039 303.479851,321.56393 299.275615,320.036391 C295.071378,318.508852 292.901487,313.86233 294.429026,309.658094 L317.971095,244.863407 C319.498634,240.659171 324.145156,238.489279 328.349393,240.016818 C332.553629,241.544357 334.723521,246.190879 333.195981,250.395116 L309.653912,315.189802 Z M258.690212,301.560466 C257.175072,305.769187 252.534967,307.952766 248.326246,306.437627 C244.117525,304.922487 241.933946,300.282382 243.449086,296.073661 L266.775173,231.278974 C268.290312,227.070254 272.930418,224.886675 277.139139,226.401814 C281.347859,227.916954 283.531439,232.557059 282.016299,236.76578 L258.690212,301.560466 Z M169.572957,185.236129 C165.145239,184.600295 162.071309,180.495474 162.707143,176.067755 C163.342978,171.640037 167.447798,168.566107 171.875517,169.201941 L254.596734,181.080967 C259.024452,181.716801 262.098382,185.821622 261.462548,190.249341 C260.826714,194.67706 256.721893,197.750989 252.294174,197.115155 L169.572957,185.236129 Z M176.892854,137.284651 C172.467019,136.635837 169.405138,132.522022 170.053951,128.096186 C170.702765,123.670351 174.816581,120.60847 179.242416,121.257283 L261.74765,133.352291 C266.173486,134.001105 269.235367,138.114921 268.586553,142.540756 C267.93774,146.966592 263.823924,150.028473 259.398089,149.379659 L176.892854,137.284651 Z M183.383292,85.8824667 C178.956573,85.2397112 175.889064,81.1300899 176.531819,76.7033706 C177.174575,72.2766513 181.284196,69.2091425 185.710916,69.851898 L277.935353,83.2427999 C282.362072,83.8855554 285.429581,87.9951767 284.786825,92.4218961 C284.14407,96.8486154 280.034449,99.9161241 275.607729,99.2733686 L183.383292,85.8824667 Z M31.3396967,261.389874 C26.9605806,262.30219 22.6710274,259.491793 21.7587115,255.112677 C20.8463957,250.733561 23.6567926,246.444008 28.0359087,245.531692 C29.2164173,245.285753 31.2477217,244.94831 34.019349,244.620659 C54.8466694,242.158535 78.328375,244.296394 100.76791,254.61463 C143.836086,274.418409 170.480136,319.317224 172.987544,394.443026 C173.136757,398.913676 169.63354,402.658815 165.162889,402.808028 C160.692239,402.957241 156.9471,399.454024 156.797887,394.983374 C154.485316,325.695179 131.184391,286.429981 94.0005324,269.331952 C74.6693008,260.442988 54.0425867,258.565058 35.9210503,260.707315 C33.6375496,260.977261 32.0714998,261.237415 31.3396967,261.389874 Z M86.610178,17.6592021 L17.4879401,351.540557 L36.6517059,386.613864 L412.46654,386.613864 C412.671699,385.587027 412.883599,384.460764 413.096472,383.242653 C415.714199,368.2634 416.114202,352.509504 412.934069,338.010945 C407.043758,311.156398 390.010856,293.42755 357.310023,287.763211 C309.64416,278.564069 262.748188,265.747778 217.02901,249.425543 C213.301603,248.094819 211.081834,244.265144 211.77983,240.369354 L247.454495,41.2549454 L86.610178,17.6592021 Z M360.22681,271.830064 C399.544312,278.638704 421.509849,301.50173 428.756596,334.540411 C432.453961,351.397086 432.003163,369.151491 429.053316,386.03122 C428.180953,391.023085 427.295919,394.77182 426.674316,396.94272 C425.679353,400.417554 422.502361,402.812536 418.887887,402.812536 L31.8476256,402.812536 C28.8858165,402.812536 26.1602023,401.195851 24.7400567,398.596717 L1.84593407,356.696153 C0.924792159,355.01029 0.632887855,353.05189 1.02234831,351.170678 L72.2965036,6.89490968 C73.1660549,2.69471355 77.1594028,-0.0992666519 81.4032426,0.523301527 L258.076755,26.4411762 C262.601824,27.1050005 265.680133,31.3813123 264.873557,35.8831283 L228.938517,236.450797 C271.835584,251.413778 315.757396,263.246367 360.22681,271.830064 Z" id="Shape"></path>
        </g>
    </g>
</svg>
