<svg xmlns="http://www.w3.org/2000/svg" viewBox="0 0 500 500.2"><g><path d="M251.8 305.3c-1.1 5.9-5.1 9.2-10.7 7.8-6.8-1.7-14-8.8-15.9-16.1-.5 1.8-.6 3.7-.3 5.8 1.6 7.6 9.1 15 16.2 16.9 7.1 1.8 11.8-4.1 10.8-13.4 0-.3-.1-.7-.1-1zM279.1 263c.1-1.5 0-3-.2-4.4-1.3 9.2-8.2 16.6-16.1 16.7-6.7.1-12.2-4.7-13.5-11.3-.1.4-.3.8-.3 1.2-1.1 9.1 5.4 16.7 13.8 16.6 8.5 0 15.8-8.6 16.3-18.8zM283.7 353c-1 4.4-4.1 6.5-8.4 4.6-6-2.6-13.5-10.8-16.5-18.3l-.3-1.2c-.9 2-.9 4.7.3 7.8 3 7.5 10.5 15.8 16.5 18.3 6 2.6 9.9-2.4 8.5-11-.1 0-.1-.1-.1-.2zM244 242.8c6.7-2.3 14.4-10.6 17.2-18.3 1.6-4.4 1.7-7.2.5-8.1-.1.5-.3 1-.5 1.6-2.8 7.7-10.5 16-17.2 18.3-2.3.8-4 .8-5.2.4-3.4 5.4-1.1 8.2 5.2 6.1zM349.8 236.6c7.2 1.4 11-3.1 8.9-10-1.3 2.8-4.4 4.3-8.9 3.4-7.5-1.5-14.9-9.8-16.4-18.3-.4 1.8-.5 3.9-.1 6.4 1.5 8.6 8.9 17 16.5 18.5zM310 305.7c-1.3 8.8-8 15.3-15.7 14.9-8-.4-15-7.6-16.4-16.7-.2 1.4-.3 2.8-.2 4.3.5 10.1 8 18.6 16.7 19 8.6.4 15.9-7.7 15.9-18.2 0-1.1-.1-2.2-.3-3.3zM294.9 233c8.3-.5 15.2-8.3 15.1-17.2 0-1.1-.1-2.2-.3-3.3-1.4 7.5-7.6 13.5-14.9 13.9-6.2.4-10.9-3.3-12.2-8.7 0 .2-.1.4-.1.6-1.4 8.6 4.1 15.3 12.4 14.7zM319.7 363.7c-5.9.8-11-4.3-12.3-11.5-.2 1.1-.3 2.2-.3 3.3 0 8.9 5.9 15.6 12.6 14.7 6.7-.9 13.4-8.7 14.9-17.2.4-2.2.3-4.2-.2-6-1.6 8.4-8.1 15.8-14.7 16.7zM365.2 265c1 9.2 7.7 17.2 15.3 17.4 7.6.1 13.1-6.2 11.6-13.8 0-.3-.1-.5-.2-.8-1.4 4.8-5.8 8.2-11.4 8.1-7.3-.1-13.8-7.5-15.2-16.3-.2 1.5-.3 3.4-.1 5.4zM339.2 260.8c-1.3 8.1-7.7 14.3-15.5 14.3-8.2 0-15.2-7.1-16.5-16.1-.2 1.1-.3 2.1-.3 3.3-.1 10.5 7.7 19.3 16.8 19.4 9.2.1 16.4-8.5 15.8-18.6-.1-.8-.1-1.6-.3-2.3zM378.3 328.1c-.2.3-.3.6-.6 1-4.4 6.1-12.4 14.1-17.6 18-2.2 1.7-3.8 2-4.6 1.3-2 6.5-.1 8.9 4.6 5.2 5.2-3.9 13.2-11.9 17.6-18 2.9-3.9 2.9-6.7.6-7.5zM497.9 267.5c-1.8 6.5-3.7 11.4-4.3 13.1-12.7 33.3-35 62.8-63.1 84.8-15.8 12.5-33.5 22.5-52.3 29.7v12.7c0 7.8-4.2 16-13.4 18.3-22.8 5.8-27.9 29.6-30 59.2 93.7-33.8 161.5-121.9 165.2-226.4-.7 3.2-1.4 6-2.1 8.6z"/><path d="M249.9 426.2c-9.2-2.3-13.4-10.5-13.4-18.3v-3.4c-3.5-.4-7.1-.9-10.6-1.4-35.2-5.3-70.2-14.6-102.6-30.4-16.4-8.2-32.2-18.2-46-30.8C63.6 329.4 51.7 314 45.2 296c-3.2-9-5.1-18.5-5.3-28.1-.2-9.5 1-19.1 3.7-28.3 5.3-18.5 16.9-34.9 32.1-46.6 15.1-11.7 33.3-19 52.2-21.3 4.7-.6 9.6-.8 14.2-.7 4.7.1 9.3.3 14 .7 5.6.6 11.2 1.4 16.8 2.8v-32.2l-62.7-31.4 74.2-37.1V178c8.8 3.3 17.6 8.2 24.3 16 3.4 4 6.1 8.7 7.6 13.9.8 2.6 1.2 5.2 1.4 7.9.2 2.6.1 5.6-.5 8.3-1.2 5.5-4 10.5-7.5 14.5s-7.8 7.1-12.2 9.5c-9 4.8-18.7 6.9-28.3 7.6-4.7.4-20.2.9-35.1-2.4-7.5-1.6-14.6-4.3-19.8-7.1-5.2-2.8-8.3-5.6-8.8-6-2.8-2.3-3.7-4.1-3.6-4.9.1-.8 1.2-.8 2.7-.1 2.2.9 6.8 4.2 13.2 6.9 6.4 2.8 14.7 4.9 23 5.9s16.7 1.1 23.4.9c6.7-.2 11.6-1.1 13.4-1.5 8.5-1.7 16.8-4.8 23.3-10.3 3.2-2.7 5.9-6.1 7.6-9.8 1.8-3.8 2.3-7.9 1.8-12-.8-8.4-5.6-15.9-12.3-21.1-4-3.2-8.6-5.8-13.4-7.8v39.3h-11.5v-43c-7.7-1.9-15.7-3-23.7-3.4-8.7-.4-17.4-.2-25.8 1.4-16.9 3.1-33 10.6-45.9 21.9-12.9 11.2-22.3 26.2-26.2 42.7-2 8.2-2.7 16.8-2.2 25.2.5 8.4 2.4 16.7 5.6 24.6 6.3 15.7 17.2 29.4 30 40.8 12.9 11.4 27.7 20.6 43.2 28.3 31.8 15.7 66.6 25.1 101.9 30.4 17.7 2.7 35.5 4.3 53.3 5.1 8.9.4 17.9.5 26.8.5 8.8-.1 17.6-.8 26.3-2.1 34.8-5.1 67.7-20.4 94.9-42.6 61.1-50 77.8-120.8 56.9-182.8C454.3 72.5 361 0 250.1 0 112 0 0 112 0 250.1s112 250.1 250.1 250.1c10.4 0 20.6-.7 30.7-1.9-2-35.4-4.8-65.5-30.9-72.1zm57.3-226.5c48.7 0 88.3 39.5 88.3 88.2s-39.5 88.2-88.3 88.2c-48.7 0-88.2-39.5-88.2-88.2-.1-48.7 39.4-88.2 88.2-88.2z"/><path d="M368.2 306c.2-1.9.1-3.7-.3-5.3-1.6 8.6-8.8 16.1-16.4 17.2-6.8 1-12.1-4-13.3-11.8-.1.7-.2 1.4-.2 2.2-.5 10.2 5.5 17.3 13.5 16.2 8-1.2 15.6-9.4 16.7-18.5z"/></g></svg>
