<svg version="1.1"
  xmlns="http://www.w3.org/2000/svg" xmlns:xlink="http://www.w3.org/1999/xlink"
  x="0px" y="0px" viewBox="0 0 490 201.9"
  xml:space="preserve">
<g>
  <g>
    <polygon points="205.7,201.9 190.5,187.6 233.3,142.1 190.5,96.6 205.7,82.3 261.9,142.1"/>
    <path d="M245,156.4c-121.8,0-245-26.9-245-78.2S123.2,0,245,0s245,26.9,245,78.2c0,39-70.6,58.5-112.7,66.6l-3.9-20.5
    c65.8-12.7,95.8-32.8,95.8-46.1c0-23.9-85.3-57.3-224.2-57.3c-138.9,0-224.1,33.4-224.1,57.3s85.3,57.3,224.1,57.3V156.4z"/>
  </g>
</g>
</svg>
