<svg version="1.1"
	 xmlns="http://www.w3.org/2000/svg" xmlns:xlink="http://www.w3.org/1999/xlink"
	 x="0px" y="0px" viewBox="0 0 491 491" style="enable-background:new 0 0 491 491;"
	 xml:space="preserve">
<defs>
</defs>
<g>
	<path d="M245.5,491C110.1,491,0,380.9,0,245.5C0,110.1,110.1,0,245.5,0S491,110.1,491,245.5
		C491,380.9,380.9,491,245.5,491z M245.5,23.9c-122.2,0-221.6,99.4-221.6,221.6c0,122.2,99.4,221.6,221.6,221.6
		s221.6-99.4,221.6-221.6C467.1,123.3,367.7,23.9,245.5,23.9z"/>
	<path d="M186.7,370.6c-4.3,0-8.6-1-12.3-3c-9.1-5-14.4-15.4-14.4-28.6V152.1c0-13.2,5.4-23.6,14.4-28.6
		c9.2-5.1,21-3.8,32.3,3.4l142.8,90.7c11.1,7,17.4,17.3,17.4,28c0,10.7-6.3,20.9-17.3,27.9l-143,90.6
		C199.9,368.4,193.1,370.6,186.7,370.6z M186.8,139.1c-1.2,0-2.4,0.2-3.3,0.7c-2.9,1.6-4.6,6.1-4.6,12.2v186.8
		c0,6.1,1.7,10.7,4.6,12.2c3,1.6,7.8,0.5,13.1-2.8l143-90.6c5.5-3.5,8.6-7.8,8.6-12.1c0-4.3-3.2-8.7-8.8-12.3l-142.8-90.7
		C193.1,140.3,189.6,139.1,186.8,139.1z"/>
</g>
</svg>
