<svg id="Calque_1" data-name="Calque 1" xmlns="http://www.w3.org/2000/svg" viewBox="0 0 445.62 499.68"><path class="cls-1" d="M443.81 306.24a185.12 185.12 0 0 1-21.69 4.52c-12.65 1.81-25.31 3.62-37.06 3.62-5.42 0-8.14 1.81-9.94 7.23-29.83 59.65-70.51 112.07-119.32 156.36-4.52 4.52-9.94 8.14-14.46 11.75-18.08 12.65-36.16 13.56-55.14.9-16.27-9.94-29.83-22.6-42.48-37.06-38.87-43.39-66-93.1-86.77-147.33-28.92-73.22-45.19-149.14-56-226l-.9-4.52h85.87l.9 9c2.71 25.31 7.23 49.71 11.75 74.12 17.99 90.46 49.67 173.62 106.61 246.85 11.75 14.46 11.75 14.46 23.5.9 28-30.73 51.52-66 71.41-103 2.71-4.52 1.81-6.33-2.71-9-47.91-28-73.22-71.41-82.25-124.74-5.42-31.64-5.42-63.27 6.33-94.91C241.34 20.61 287.44-4.7 344.38.68c63.27 6.33 89.49 49.71 94 98.52a211.84 211.84 0 0 1-13.55 100.38l-2.71 8.1a50 50 0 0 1-8.14.9c-21.69 1.81-42.48-1.81-58.75-19a69.45 69.45 0 0 1-5.42-6.33s.9-5.42 1.81-7.23c7.23-23.5 10.85-47.91 5.42-72.31-4.52-19-15.37-28.92-31.64-28.92-10.85 0-19 6.33-24.41 15.37-6.33 9.94-8.14 20.79-9 31.64-1.81 28 2.71 55.14 17.17 79.54 25.31 40.68 64.18 53.33 109.37 49.71a211.71 211.71 0 0 0 27.12-4.52l-1.81 59.66z"/></svg>
