<svg xmlns="http://www.w3.org/2000/svg" viewBox="0 0 500 399.5"><path d="M500 333.5L265.6 0l-83.4 118.7-24.1-35.9L0 318.2c41 13.8 74.9 18.5 102.4 18 42.8-.8 81.4-17.7 97.3-44.2 4.4-8.3 7-17.4 7.1-26.6.1-5.5-.8-10.9-2.7-15.9-1.9-5-4.8-9.6-8.5-13.4-3.7-4-8.2-7.1-13.2-9.1-4.8-1.9-10.4-2.4-15.7-1.8-5.3.6-10.4 2.4-14.4 5.5-2 1.6-3.8 3.5-5.1 5.6-1.3 2.1-2.4 4.5-3 7-1.3 5-1.3 10.5.3 15.3 1.5 4.8 4.6 8.9 8.9 11.1 4.3 2.2 9.6 2.9 14.3 1.7 4.7-1.2 8.8-4.3 10.7-8.4.2-.5.7-1.6 1-3 0-.2.1-.5.1-.8-1.5 1.4-3.6 2.3-5.8 2.3-4.8 0-8.7-3.9-8.7-8.7 0-4.8 3.9-8.7 8.7-8.7 3.4 0 6.3 2 7.7 4.8 1.3 1.8 2.4 4.2 2.8 6.9.5 2.8.1 5.7-.6 7.9s-1.8 3.7-2.1 4.2c-3.4 5.1-9.2 8.3-15.2 9.2-6.1.9-12.4-.3-17.7-3.7-5.3-3.4-8.9-9.1-10.4-15-1.5-6-1.3-12.4.4-18.3.9-3 2.2-5.9 4.1-8.5 1.8-2.6 4.1-4.9 6.7-6.7 5.1-3.8 11.3-5.8 17.5-6.4 6.2-.6 12.5-.1 18.6 2.3 5.9 2.3 11.2 6 15.5 10.5 4.4 4.7 7.8 10.3 9.9 16.4 2.1 6.1 3 12.5 2.7 18.9-.4 9-2.9 17.6-6.7 25.6-13.2 27.1-41.3 44.3-81 53.6 93.3 68.1 184.8 60 212.2 38.5 5.7-4.5 8-8.9 8.4-13.9.7-9.9-4.6-16.7-15.3-32.1-7-10.1-33.7-46.1-49.4-71.3-.7-1.2 0-1.1.7-.2 33 41.5 92.9 71.2 108.2 77.5 28 11.4 50.7 19 68.1 12 11-4.4 11.6-16.9 3.4-32.3-3.2-6 13.9.2 37.8 9.5zM198 164.6c-6 0-10.8-4.8-10.8-10.8 0-6 4.8-10.8 10.8-10.8 6 0 10.8 4.8 10.8 10.8 0 6-4.9 10.8-10.8 10.8zm99.4-47.1c3.5-3.5 9.2-3.5 12.7 0s3.5 9.2 0 12.7-9.2 3.5-12.7 0-3.5-9.1 0-12.7zm4.5 36.3c0 4-3.2 7.2-7.2 7.2s-7.2-3.2-7.2-7.2 3.2-7.2 7.2-7.2 7.2 3.3 7.2 7.2zm-9.4-22.7c2.8 2.8 2.8 7.4 0 10.2-2.8 2.8-7.4 2.8-10.2 0-2.8-2.8-2.8-7.4 0-10.2 2.8-2.8 7.4-2.8 10.2 0zm-22.7 60.6c4.9 0 9 4 9 9s-4 9-9 9-9-4-9-9 4-9 9-9zm-7.2-12.9c0-4 3.2-7.2 7.2-7.2 3.9 0 7.2 3.2 7.2 7.2s-3.2 7.2-7.2 7.2-7.2-3.2-7.2-7.2zm7.2-14.2c-6 0-10.8-4.8-10.8-10.8 0-6 4.8-10.8 10.8-10.8 5.9 0 10.8 4.8 10.8 10.8-.1 6-4.9 10.8-10.8 10.8zm0-48.6c-5 0-9-4-9-9s4-9 9-9c4.9 0 9 4 9 9-.1 5-4.1 9-9 9zm7.2 12.9c0 4-3.2 7.2-7.2 7.2s-7.2-3.2-7.2-7.2 3.2-7.2 7.2-7.2c3.9 0 7.2 3.2 7.2 7.2zm-7.2-57.6c5.9 0 10.8 4.8 10.8 10.8 0 5.9-4.8 10.8-10.8 10.8-6 0-10.8-4.8-10.8-10.8 0-6 4.8-10.8 10.8-10.8zm-12.6 59.8c2.8 2.8 2.8 7.4 0 10.2-2.8 2.8-7.4 2.8-10.2 0-2.8-2.8-2.8-7.4 0-10.2 2.8-2.8 7.4-2.8 10.2 0zm-5.2 22.7c0 4-3.2 7.2-7.2 7.2s-7.2-3.2-7.2-7.2 3.2-7.2 7.2-7.2 7.2 3.3 7.2 7.2zm-19.9-37.6c3.5-3.5 9.2-3.5 12.7 0s3.5 9.2 0 12.7-9.2 3.5-12.7 0-3.5-9.2 0-12.7zM214 153.8c0-5 4-9 9-9s9 4 9 9-4 9-9 9-9-4-9-9zm29.8 37.7c-3.5 3.5-9.2 3.5-12.7 0s-3.5-9.2 0-12.7 9.2-3.5 12.7 0c3.6 3.5 3.6 9.2 0 12.7zm3.2-14.9c-2.8-2.8-2.8-7.4 0-10.2 2.8-2.8 7.4-2.8 10.2 0 2.8 2.8 2.8 7.4 0 10.2-2.8 2.8-7.4 2.8-10.2 0zm22.8 59.8c-6 0-10.8-4.8-10.8-10.8 0-6 4.8-10.8 10.8-10.8 5.9 0 10.8 4.8 10.8 10.8-.1 6-4.9 10.8-10.8 10.8zm12.5-59.8c-2.8-2.8-2.8-7.4 0-10.2 2.8-2.8 7.4-2.8 10.2 0 2.8 2.8 2.8 7.4 0 10.2-2.8 2.8-7.4 2.8-10.2 0zm26.4 16.2c-3.5 3.5-9.2 3.5-12.7 0s-3.5-9.2 0-12.7 9.2-3.5 12.7 0 3.5 9.2 0 12.7zm7.9-30c-5 0-9-4-9-9s4-9 9-9 9 4 9 9-4.1 9-9 9zm24.9 1.8c-6 0-10.8-4.8-10.8-10.8 0-6 4.8-10.8 10.8-10.8 6 0 10.8 4.8 10.8 10.8 0 6-4.8 10.8-10.8 10.8z"/></svg>
