<svg id="Calque_1" data-name="Calque 1" xmlns="http://www.w3.org/2000/svg" viewBox="0 0 493.64 282.18"><defs><clipPath id="clip-path" transform="translate(-1.36 -108.1)"><path class="cls-1" d="M1.75 108.14h496.49v283.71H1.75z"/></clipPath></defs><title>vk-social-network-logo</title><path class="cls-2 cls-3" d="M490.98 254.2a23.23 23.23 0 0 1-1.58-3.15c-8.67-15.37-24.82-34.28-48.86-56.74l-.4-.41-.39-.39-.39-.39h-.39c-11-10.64-17.73-17.34-20.88-20.88-5.12-6.7-6.7-13.79-3.55-20.88 2-5.12 9.85-16.55 23.25-33.49 7.09-9.06 12.61-16.16 16.55-21.67 29.55-39.4 42.56-64.62 38.62-75.66l-1.58-2.36c-1.18-1.58-3.55-3.15-7.88-4.33a43.92 43.92 0 0 0-16.55-.79l-74.08.39a10.92 10.92 0 0 0-5.12 0 26 26 0 0 0-3.55.79l-1.18.79-1.18.79a9.1 9.1 0 0 0-2.76 2.76 9.39 9.39 0 0 0-2.36 4.33 413.7 413.7 0 0 1-27.58 57.92c-6.3 10.64-12.22 19.7-17.34 27.58a135.24 135.24 0 0 1-13.4 17.34c-3.55 3.55-6.7 6.7-9.85 8.67-2.76 2.36-5.12 3.15-6.7 2.76s-3.15-.79-4.33-1.18a18.24 18.24 0 0 1-5.91-6.3c-1.58-2.76-2.36-5.91-3.15-9.85-.39-3.94-.79-7.49-.79-10.25V97.37c0-5.12.39-9.06.39-10.64 0-6.7 0-13.4.39-21.28.39-7.49.39-13.79.79-18.13 0-4.33.39-9.06.39-14.19a88 88 0 0 0-.79-11.82 34 34 0 0 0-2.76-8.27 16.44 16.44 0 0 0-5.12-6.3 25 25 0 0 0-8.67-3.55c-9.06-2-20.49-3.15-34.68-3.15-31.92-.39-52 1.58-61.47 6.3a36.14 36.14 0 0 0-9.85 7.88c-3.15 3.94-3.55 5.91-1.18 6.3 10.25 1.58 17.73 5.12 21.67 11l1.58 3.15q1.77 3.55 3.55 11.82a123.67 123.67 0 0 1 2.36 18.91 213.9 213.9 0 0 1 0 31.92c-.79 9.06-1.58 15.76-2.36 20.88a41.14 41.14 0 0 1-3.55 12.22 34.55 34.55 0 0 1-3.15 5.52 1.68 1.68 0 0 1-1.18 1.18 22.31 22.31 0 0 1-7.09 1.18c-2.36 0-5.12-1.18-8.67-3.55a48.52 48.52 0 0 1-10.63-9.79 142.55 142.55 0 0 1-12.61-17.73 236.79 236.79 0 0 1-14.19-26.79l-3.96-7.54c-2.76-4.73-5.91-11.82-10.64-20.88-4.33-9.06-8.27-18.13-11.82-26.4a16.74 16.74 0 0 0-6.3-8.27l-1.18-.79A17.23 17.23 0 0 0 93 14.2a32.83 32.83 0 0 0-5.91-1.58l-70.53.39c-7.09 0-12.22 1.58-14.58 4.73L.8 19.32a9.89 9.89 0 0 0-.79 3.94 17.89 17.89 0 0 0 1.58 7.09c10.25 24 21.28 47.29 33.49 69.75s22.45 40.62 31.56 54.41 18.13 26.79 27.19 38.62c9.06 12.22 15.37 20.1 18.52 23.25 3.15 3.55 5.52 5.91 7.09 7.88l6.3 6.3a143 143 0 0 0 18.13 14.58 277.33 277.33 0 0 0 26.4 16.94 148.35 148.35 0 0 0 33.84 13.82 124.44 124.44 0 0 0 37.43 4.33h29.55c5.91-.39 10.64-2.36 13.79-5.52l1.18-1.18a28.59 28.59 0 0 0 2-4.73c.79-2 .79-4.33.79-7.09a104 104 0 0 1 1.58-20.1 53.28 53.28 0 0 1 4.33-13.4 28.4 28.4 0 0 1 5.52-7.49 20.83 20.83 0 0 1 4.33-3.55 6.66 6.66 0 0 1 2-.79c3.94-1.18 9.06 0 14.58 3.94a92.88 92.88 0 0 1 15.76 15q7.09 8.87 17.73 20.1a107.59 107.59 0 0 0 18.08 16.48l5.12 3.15a62.53 62.53 0 0 0 13.4 5.52q8.27 2.36 14.19 1.18l65.81-1.18c6.3 0 11.43-1.18 15-3.15s5.91-4.33 6.3-7.09a16.17 16.17 0 0 0 0-8.67c-.39-3.94-.79-6.3-1.58-7.49z"/></svg>
