<svg xmlns="http://www.w3.org/2000/svg" viewBox="0 0 500 383.6"><g><path d="M218.7 219.9c1.1-4.2 1-8.1.7-12.2-.7-8.2-4.1-16.3-9.8-22.2-5.7-6-13.2-9.8-20.7-11.9-4-1.2-8.1-1.9-12.2-2.4.9-11 3.9-73.5-43-76.8l.1-.2V72.3H250S238.1 5.8 176.6.4C8.3-14.3 0 383.6 0 383.6h185.5v-13.9c11.5-3 16.8-9 19.2-16.1H59.6c.3-3.5.6-6.5.7-7.6.5-4.6 1-9.1 1.6-13.7h144.9v-.1c0-4.6 0-9 .7-12.9 1.8-9.9 5.3-14.7 10.5-17.2H66.9c1.4-7.2 3.1-14.3 5-21.3h114.4l-.2-.1c-8.9-7.7-17.6-17.7-23.5-30H81.7c2.9-7.3 6.1-14.4 9.8-21.3H156v-.1c-.5-3.6-.8-7.3-.8-11.2 0-8 1.5-14.1 3.6-18.9h-45.2c.8-.8 1.7-1.6 2.5-2.4.6-.5 1.2-1.1 1.8-1.6 1-.9 2-1.7 3.1-2.5l2.4-1.8c.8-.6 1.6-1.2 2.5-1.8 11.4-8 25.1-12.3 39.2-12.3 7.1-.1 14.2.5 20.9 2.2 6.7 1.7 13.2 4.6 18.2 9.2s8.4 10.9 9.5 17.7c1.2 6.7.5 14.1-3.1 19.8-3.5 5.7-10.3 9.4-17.1 9.3-3.4 0-6.9-.9-9.6-2.8-2.8-1.9-4.6-4.9-5.3-8.3-.1-.7-.6-2.7-.3-5.3.2-2.6 1.1-5.9 3.3-8.5 2.1-2.7 5.6-4.1 8.5-4.2 2.9-.4 5.4 0 6.6 0 .8 0 1.5-.3 1.5-.8s-.7-1.4-2.5-2c-.3-.1-2.4-.8-5-.9h-2c-.9 0-1.8.1-2.7.3-1.9.4-3.8 1.2-5.4 2.4-3.3 2.4-5.3 5.9-6.2 8.9-.9 3-1 5.5-1 6.5 0 4.4 1.2 9.2 4.4 12.9 3.1 3.7 7.6 5.9 12 6.6 8.6 1.6 18-1.8 23.7-8.5 2.3-3.3 4.2-7.3 5.2-11.4zM281.3 219.9c-1.1-4.2-1-8.1-.7-12.2.7-8.2 4.1-16.3 9.9-22.2 5.7-6 13.2-9.8 20.7-11.9 4-1.2 8.1-1.9 12.2-2.4-.9-11-3.9-73.5 43-76.8l-.1-.2V72.3H250S261.9 5.8 323.4.4C491.7-14.3 500 383.6 500 383.6H314.5v-13.9c-11.5-3-16.8-9-19.2-16.1h145.1c-.3-3.5-.6-6.5-.7-7.6-.5-4.6-1-9.1-1.6-13.7h-145v-.1c0-4.6 0-9-.7-12.9-1.8-9.9-5.3-14.7-10.5-17.2h151.2c-1.4-7.2-3.1-14.3-5-21.3H313.7l.2-.1c8.9-7.7 17.6-17.7 23.5-30h80.9c-2.9-7.3-6.1-14.4-9.8-21.3H344v-.1c.5-3.6.8-7.3.8-11.2 0-8-1.5-14.1-3.6-18.9h45.2c-.8-.8-1.7-1.6-2.5-2.4-.6-.5-1.2-1.1-1.8-1.6-1-.9-2-1.7-3.1-2.5l-2.4-1.8c-.8-.6-1.6-1.2-2.5-1.8-11.4-8-25.1-12.3-39.2-12.3-7.1-.1-14.2.5-20.9 2.2-6.7 1.7-13.2 4.6-18.2 9.2s-8.4 10.9-9.5 17.7c-1.2 6.7-.5 14.1 3.1 19.8 3.5 5.7 10.3 9.4 17.1 9.3 3.4 0 6.9-.9 9.6-2.8 2.8-1.9 4.6-4.9 5.3-8.3.1-.7.6-2.7.3-5.3-.2-2.6-1.1-5.9-3.3-8.5-2.1-2.7-5.6-4.1-8.5-4.2-2.9-.4-5.4 0-6.6 0-.8 0-1.5-.3-1.5-.8s.7-1.4 2.5-2c.3-.1 2.4-.8 5-.9h2c.9 0 1.8.1 2.7.3 1.9.4 3.8 1.2 5.4 2.4 3.3 2.4 5.3 5.9 6.2 8.9.9 3 1 5.5 1 6.5 0 4.4-1.2 9.2-4.4 12.9-3.1 3.7-7.6 5.9-12 6.6-8.6 1.6-18-1.8-23.7-8.5-2.3-3.3-4.2-7.3-5.2-11.4z"/></g></svg>
