<svg xmlns="http://www.w3.org/2000/svg" viewBox="0 0 500 361.4"><g><path d="M147.3 324.8v36.7h18.5v-36.7c0-5.1-4.1-9.2-9.2-9.2-5.2-.1-9.3 4.1-9.3 9.2zm77.7-85.1l-32.2-16.4-32.2 16.4m41.4 85.1c0-5.1-4.1-9.2-9.2-9.2s-9.2 4.1-9.2 9.2v36.7H202v-36.7z"/><path d="M117.3 318.6c0-6.9-5.6-12.6-12.6-12.6v-74l72.3-38v-13.3h-3v-5.3l15.5-17.1-51-79.9-73.7 115.5h36s-44.5 65.4-70 80.4c35.1-.2 35.1 0 35.1 0s-21 52.2-65.9 87.1h117.3v-42.8zm121 6.2c0-5.1-4.1-9.2-9.2-9.2s-9.2 4.1-9.2 9.2v36.7h18.5v-36.7zM331 172.1c9.5 2.1 19 3.7 28.6 5.7 4.8 1 9.5 2.1 14.3 3.2 4.7 1.2 9.5 2.4 14.2 3.9 4 1.4 7.9 2.9 11.7 5.1C345 96.2 289 .3 288.8 0c-.1.2-49.1 84.1-52.9 90.5-4.6 7.8-3.8 21.7-1.2 29.4 11.9 35.2 39 39.7 96.3 52.2zm-62.7 146.5v42.9H500c-11.8-20.2-49.3-84.4-89.5-153.1-.5 1.8-1.3 3.4-2.2 4.9-1.5 2.3-3.2 4.3-5.1 6.1-3.8 3.5-8 6.5-12.3 8.8l-1.6 1-1.7 1.1-3.4 2.1c-2.3 1.4-4.6 2.7-6.9 4-4.6 2.6-9.2 5.2-13.6 7.9-9.6 5.6-18.9 11.6-26.6 19.2-3.8 3.8-7.2 7.9-9.8 12.5-2.6 4.6-4.5 9.5-5.4 14.7-.5 2.6-.7 5.2-.7 7.8 0 2.6.2 5.1.7 7.7 1 5.1 2.9 10.1 5.5 14.6 5.3 9 13.8 16.1 23.8 18.6 4.9 1.3 10.2 1.4 15.4.8 5.2-.6 10.2-2.1 14.6-4.6 4.4-2.5 8.2-6 11-10.2 2.8-4.2 4.7-9.1 5.6-14.1.2-1.3.4-2.5.5-3.8.1-1.3.2-2.6.1-3.7-.1-2.4-.6-4.8-1.4-7.2-1.6-4.7-4.5-9-8.2-12.2-3.7-3.2-8.3-5.2-13.2-5.7-2.4-.3-4.9-.2-7.4.1-2.5.3-4.7 1-6.8 2.1-1 .5-3.3 1.7-5.5 4-2.3 2.3-4.4 5.7-5.1 9.2-.4 1.7-.5 3.5-.2 5 .2 1.5.7 2.8 1.3 3.9 1.2 2.1 2.7 3.1 2.9 3.3 1.2.9 1.8 1.6 1.9 2.1 0 .5-.5.8-1.4.7-1.3-.1-4.4-1.3-6.7-4.9-1.1-1.8-1.9-4.1-2.1-6.6-.2-2.5.2-5.2 1.2-7.7 1.8-5.1 5.5-9.3 9.1-11.7 3.6-2.5 6.9-3.3 8-3.6 5.5-1.3 11.4-1.3 16.8.3 5.5 1.6 10.4 5 14.1 9.3 3.7 4.4 6.3 9.6 7.4 15.3.6 2.8.6 5.8.4 8.6-.2 2.8-.7 5.6-1.4 8.4-1.5 5.5-4.1 10.7-7.8 15.2-3.7 4.4-8.4 8-13.7 10.4-5.2 2.4-10.9 3.6-16.6 4-5.7.4-11.6-.1-17.1-2-11.1-3.6-20.2-12.1-25.6-22.2-2.7-5.1-4.7-10.6-5.6-16.4-.5-2.9-.6-5.9-.5-8.7.1-2.9.4-5.8 1-8.6 1.1-5.7 3.3-11.2 6.3-16.2s6.7-9.5 10.8-13.5c8.2-8 17.7-14.2 27.3-19.8 4.6-2.7 9.2-5.2 13.8-7.8 2.3-1.3 4.5-2.6 6.8-3.9l3.3-2 1.6-1 1.8-1.1.9-.5.8-.4 1.5-.9c1-.6 2-1.3 2.9-1.9 1.9-1.4 3.7-2.8 5.4-4.4 3.3-3.1 5.9-6.9 5.6-10.1-.1-3.2-3.3-6.3-7.1-8.6-3.9-2.3-8.3-4.1-12.9-5.6-9.2-2.9-18.9-5.1-28.5-7.2-9.7-2.1-19.4-4-29.2-6-19.5-4.1-39.1-8.3-58.2-15.1-9.8-3.6-18.6-7.5-27.5-13.9-12.5-9-19-23.4-19-34.6-8 13.7-17.8 30.6-26.3 45.1l15.4 17v5.3h-3v13.3l72.3 38v74c-7-.4-12.7 5.2-12.7 12.2z"/></g></svg>
