<svg version="1.1" id="Calque_1" xmlns="http://www.w3.org/2000/svg" xmlns:xlink="http://www.w3.org/1999/xlink" x="0px" y="0px"
	 viewBox="0 0 500 500" style="enable-background:new 0 0 500 500;" xml:space="preserve">
<g id="Page-1">
	<g id="Group-99" transform="translate(0.000000, -1.000000)">
		<polygon id="Fill-1" points="4.7,365.1 493.8,365.1 493.8,361.2 4.7,361.2 		"/>
		<polygon id="Fill-2" points="305.9,441.9 311.8,436 305.9,430.2 300.1,436 		"/>
		<g id="Group-98" transform="translate(0.000000, 0.105000)">
			<path id="Fill-3" d="M270.4,405.6c1.2,2.2,2.9,1.7,5,0.9c-0.8,10.6,6.7,20.2,15.4,20c0.3,10.9,1.4,21.5,4.6,22.3
				c0.4,0.1,0.8-11.1,1-23.5c20.9-6.5,12.9-31.4,12.9-31.4c-0.4-1.4-3.5,0.6-10.2,6.7c2.7,2.9,4,1.3,6.2,0.5
				c1.7,3.3,2.4,18-8.8,22.5c0.3-14.9,0.4-30.8,0.4-30.8c0-0.4-0.4-0.5-0.7-0.5c-3.1,0.4-8.6,5.9-12.8,10.4c2.3,3.8,5.3,0.4,7.6-0.5
				c0,0.6-0.5,11.6-0.3,22.8c-11.6,0.9-9.7-22.7-9.1-25.8C282,396.7,274.3,402,270.4,405.6"/>
			<path id="Fill-5" d="M46.1,401.2v31.4c0,6.7,3.3,10.4,11.3,10.4h5.1v-6h-3.3c-3.6,0-5-1-5-4.7v-31.1H46.1z"/>
			<path id="Fill-7" d="M181.6,443h8.2v-41.4h-11.6l-12.1,31.6L154,401.6h-11.8V443h8.2v-24.7c0-1.6-0.1-4.3-0.2-6h0.3l11.8,30.7
				h7.6l11.8-30.7h0.2c-0.2,1.7-0.2,4.4-0.2,6V443z"/>
			<path id="Fill-9" d="M63.2,411.4V430c0,9.8,5.2,13.4,15.5,13.4s15.5-3.6,15.5-13.4v-18.6h-8.2V430c0,5.6-3.5,7.7-7.3,7.7
				c-3.8,0-7.3-2.1-7.3-7.7v-18.6H63.2z"/>
			<path id="Fill-11" d="M115,416.6c3.8,0,8.3,2.1,8.3,7.7v5.7c0,5.6-4.5,7.7-8.3,7.7c-3.8,0-8.3-2.1-8.3-7.7v-5.7
				C106.7,418.7,111.2,416.6,115,416.6z M98.5,401.2V430c0,9.8,5.9,13.4,16.2,13.4c10.3,0,16.2-4.1,16.2-13.9v-5
				c0-7.7-4.4-13.6-15-13.6c-3.2,0-6.5,0.7-9.2,2v-11.8H98.5z"/>
			<path id="Fill-13" d="M237.2,430v-5.7c0-5.6,4.5-7.7,8.3-7.7c3.8,0,8.3,2.1,8.3,7.7v5.7c0,5.6-4.5,7.7-8.3,7.7
				C241.7,437.7,237.2,435.6,237.2,430 M262,430v-28.8h-8.2V413c-2.7-1.3-6.1-2-9.3-2c-10.6,0-15,5.8-15,13.6v5
				c0,9.8,5.9,13.9,16.2,13.9S262,439.8,262,430"/>
			<path id="Fill-15" d="M209.9,416.4c3.8,0,8.3,2.3,8.3,8h-16.5C201.6,418.7,206.1,416.4,209.9,416.4z M226.1,429.3v-2.5
				c0-9.8-5.9-15.8-16.2-15.8c-10.3,0-16.2,6.1-16.2,15.8v1.3c0,9.4,5.7,15.3,16.7,15.3c5.5,0,10.3-1.2,15.1-4.9l-5-3.9
				c-3.4,2.3-6,3.1-10,3.1c-4.8,0-8.8-2.6-8.8-7.7v-0.7H226.1z"/>
			<path id="Fill-17" d="M24.3,406.8c5.1,0,8.8,2.2,10.3,7.2h8.7c-1.6-7.4-8.1-12.8-19-12.8c-12.5,0-19.6,7.3-19.6,18.8v5.6
				c0,11,6.8,17.8,19.6,17.8c10.9,0,17.5-5.4,19-12.8h-8.7c-1.5,5-5.1,7.2-10.3,7.2c-8.1,0-11.1-5.3-11.1-13.6v-4.1
				C13.3,411,17.3,406.8,24.3,406.8"/>
			<path id="Fill-19" d="M166.6,498.9v-34.6c0-0.5,0.1-0.7,0.8-0.7h2.8v-1.3h-12.3v1.3h2.8c0.7,0,0.8,0.2,0.8,0.7v34.6
				c0,0.3-0.2,0.6-0.5,0.6h-3.2v1.3h12.4v-1.3h-3.2C166.8,499.4,166.6,499.2,166.6,498.9"/>
			<path id="Fill-21" d="M262.8,493.5c0,0.2-0.5,5.9-7.9,5.9c-9.1,0-10.1-13.7-10.1-19.5c0-6,2-16.1,9.6-16.2h0.1
				c4.8,0,5.4,2.5,5.4,4.9c0,0.3-0.2,0.7-0.4,1.1c-0.2,0.4-0.4,0.8-0.4,1.3c0,1.2,1.1,1.9,2.2,1.9c1.2,0,2.4-0.9,2.4-2.8
				c0-3-2.5-7.7-9.3-7.7h-0.1c-4.1,0-7.5,1.4-10.2,4.1c-3.2,3.2-5.1,8.3-5,13.6c0.1,10.1,4.2,20.8,15.7,20.8c8.2,0,9.2-7,9.2-7
				l0-0.3l-1.3-0.4L262.8,493.5z"/>
			<path id="Fill-23" d="M191.1,463.6h2c1,0,1.5,0.7,1.5,1.8c0,0.2,0,0.5-0.1,0.8l-5.5,23.8l-7.3-25.6c0-0.1,0-0.2,0-0.4
				c0-0.3,0.2-0.5,0.7-0.5h2v-1.3h-11.3v1.3h1.9c0.7,0,1.1,0.6,1.3,1.1c0.6,2.1,10.2,35.5,10.3,35.9l0.1,0.3h1.4l0.1-0.3
				c1-4.1,6-25.3,7.7-32.2l0.6-2.4c0.3-1.1,1-2.3,2.4-2.3h1.3v-1.3h-8.9V463.6z"/>
			<g id="Group-27" transform="translate(56.000000, 200.000000)">
				<g id="Clip-26">
				</g>
				<defs>
					<filter id="Adobe_OpacityMaskFilter" filterUnits="userSpaceOnUse" x="78.6" y="262.2" width="22.3" height="38.7">
						<feColorMatrix  type="matrix" values="1 0 0 0 0  0 1 0 0 0  0 0 1 0 0  0 0 0 1 0"/>
					</filter>
				</defs>
				<mask maskUnits="userSpaceOnUse" x="78.6" y="262.2" width="22.3" height="38.7" id="mask-2_1_">
					<g class="st0">
						<polygon id="path-1_1_" class="st1" points="78.6,262.2 100.9,262.2 100.9,300.9 78.6,300.9 						"/>
					</g>
				</mask>
				<path id="Fill-25" class="st2" d="M91.2,276.7c-2.7-0.5-7.3-2-7.4-6.3V270c0-3.7,2.7-6.4,6.5-6.4c6.3,0,6.3,6.2,6.3,6.5v0.4
					l1.5-0.1V263l-0.3-0.1c0,0-3.6-0.8-6.8-0.8h-0.3c-6.7,0.1-11.2,4.1-11.2,10.1c0,4.8,3.2,7.9,9,9c4.6,0.8,7.7,4.2,7.7,8.4
					c0,4.8-2.1,9.9-8.2,9.9c-7.6,0-7.8-7.5-7.8-7.9l0-0.3l-1.6-0.1v8.9l0.3,0.1c0,0,4.1,0.7,8.1,0.7h0.2c8.3,0,13.7-5.1,13.7-13
					C100.9,282,97.4,277.9,91.2,276.7"/>
			</g>
			<path id="Fill-28" d="M225.8,491.8c-1.5,5.4-4.5,7.6-10.5,7.7h-0.4c-3.6,0-3.8-0.8-3.8-2.3c0-0.3,0-0.7,0-1.1
				c0-0.5,0.1-1.1,0.1-1.8l-0.1-17.5l4.9,0.2l0.1,0c2.3,0.1,2.9,0.1,3.7,1.2c0.6,0.8,0.7,1.7,0.9,3.2l0.1,0.6h1.2v-11h-1.2l0,0.3
				c-0.2,1.4-0.3,2.5-1.1,3.3c-0.7,0.9-1.1,0.9-2.7,0.9c-0.2,0-0.5,0-0.8,0l-4.9,0.1v-11.8l7.2,0.2c1.8,0.1,3.7,0.2,4.5,1.2
				c0.9,1.1,1,1.4,1.2,3.2c0,0.4,0.1,0.8,0.2,1.3l0,0.3h1.2v-7.4h-23v1.3h2.8c0.7,0,0.8,0.2,0.8,0.7v34.6c0,0.3-0.2,0.6-0.5,0.6
				h-3.2v1.3h24.2l0.5-9l-1.2-0.3L225.8,491.8z"/>
			<path id="Fill-30" d="M28.2,491.5l-0.1,0.3c-1.5,5.4-4.5,7.6-10.5,7.7h-0.4c-3.6,0-3.8-0.8-3.8-2.3c0-0.3,0-0.7,0-1.1
				c0-0.5,0.1-1.1,0.1-1.8l-0.1-17.5l4.9,0.2l0.1,0c2.3,0.1,2.9,0.1,3.7,1.2c0.6,0.8,0.7,1.7,0.9,3.2l0.1,0.6h1.2v-11H23l0,0.3
				c-0.2,1.4-0.3,2.5-1.1,3.3c-0.7,0.9-1.1,0.9-2.7,0.9c-0.2,0-0.5,0-0.8,0l-4.9,0.1v-11.8l7.2,0.2c1.8,0.1,3.7,0.2,4.5,1.2
				c0.9,1.1,1,1.4,1.2,3.2c0,0.4,0.1,0.8,0.2,1.3l0,0.3h1.2v-7.4h-23v1.3h2.8c0.7,0,0.8,0.2,0.8,0.7v34.6c0,0.3-0.2,0.6-0.5,0.6H4.7
				v1.3h24.1l2.1-9L28.2,491.5z"/>
			<path id="Fill-32" d="M56.4,498.6c-1-1.9-8.3-17.6-9.1-19.3c0.6-1.4,5.3-12.2,6.2-14.1c0.5-0.8,1-1.6,2.2-1.6h1.9v-1.3h-9.1v1.3
				h2c0.4,0,1,0.2,1,1.1c0,0.1,0,0.5-0.2,0.9l-5.1,12.3l-6.7-13.6l0-0.1c0-0.1,0-0.1,0-0.1c0-0.3,0.4-0.4,0.8-0.4h2v-1.3H30.9v1.3
				H33c0.7,0,0.9,0.2,1.3,0.8c1,1.9,7.2,15,8,16.6c-0.7,1.6-6.4,14.9-7.4,16.8c-0.5,0.8-1,1.6-2.2,1.6h-1.9v1.3h9v-1.3h-2
				c-0.4,0-1-0.2-1-1.1c0-0.1,0-0.5,0.2-0.9l6.3-15c1.5,3.1,7.1,14.9,7.7,16.3l0,0.1c0,0,0,0.1,0,0.1c0,0.3-0.4,0.4-0.8,0.4h-2v1.3
				h11.6v-1.3h-2.1C57,499.4,56.8,499.3,56.4,498.6"/>
			<path id="Fill-34" d="M105,491.7c-1.6,5.9-3.8,7.7-9.2,7.7c-3.9,0-4.1-1.2-4.1-3.4v-31.8c0-0.5,0.1-0.7,0.8-0.7h2.8v-1.3H83v1.3
				h2.9c0.4,0,0.7,0.5,0.7,0.7v34.6c0,0.3-0.2,0.6-0.5,0.6h-3.2v1.3h22.8l0.6-9.2l-1.2-0.1L105,491.7z"/>
			<path id="Fill-36" d="M124.3,463.6h2.4c0.6,0,1.3,0.4,1.3,1.3v26.2c0,4.9-2.5,7.6-7,7.6c-3.7,0-6.5-3.2-6.5-7.5l-0.1-26.9
				c0-0.5,0.1-0.7,0.8-0.7h2.8v-1.3h-12.3v1.3h2.8c0.7,0,0.8,0.2,0.8,0.7v27.6c0,5.2,4.2,8.9,10.3,8.9c6.2,0,10-3.4,10-8.9l0.1-27
				c0-0.6,0.2-1.3,1-1.3h2.6v-1.3h-8.9V463.6z"/>
			<path id="Fill-38" d="M81,493.5c0,0.2-0.5,5.9-7.9,5.9c-9.1,0-10.1-13.7-10.1-19.5c0-6,2-16.1,9.6-16.2h0.1
				c4.8,0,5.4,2.5,5.4,4.9c0,0.3-0.2,0.7-0.4,1.1c-0.2,0.4-0.4,0.8-0.4,1.2c0,1.2,1.1,1.9,2.2,1.9c1.2,0,2.4-0.9,2.4-2.8
				c0-3-2.5-7.7-9.3-7.7h-0.1c-4.1,0-7.5,1.4-10.2,4.1c-3.2,3.2-5.1,8.3-5,13.6c0.1,10.1,4.2,20.8,15.7,20.8c8.2,0,9.2-7,9.2-7
				l0-0.3l-1.3-0.4L81,493.5z"/>
			<path id="Fill-40" d="M398.4,469.8h1.2l0-0.3c0.4-2.7,0.6-2.9,1.6-4.2l0.1-0.2c0.8-1,1.6-1.3,3.4-1.3l3.4,0v35.1
				c0,0.3-0.2,0.6-0.5,0.6h-3.2v1.3h12.4v-1.3l-3.2,0c-0.1-0.1-0.3-0.5-0.4-0.8v-34.9l3.4,0c1.7,0,2.5,0.3,3.3,1.3l0.1,0.2
				c1,1.2,1.2,1.4,1.6,4.2l0,0.3h1.2v-7.4h-24.5V469.8z"/>
			<path id="Fill-42" d="M280,499.6c-7.8-0.1-9.5-9.8-9.5-17.9c0-10.9,1.6-18.2,9.5-18.2c8.2,0,8.9,7.9,8.9,18.2
				C288.9,492.7,287.5,499.6,280,499.6 M280,462.2c-9,0-15.1,7.8-15.1,19.5c0,11.1,6.3,19.2,15.1,19.2c8.5,0,14.5-7.9,14.5-19.2
				C294.5,469.9,288.8,462.2,280,462.2"/>
			<path id="Fill-44" d="M452.7,499.6c-7.8-0.1-9.5-9.8-9.5-17.9c0-10.9,1.6-18.2,9.5-18.2c8.2,0,8.9,7.9,8.9,18.2
				C461.6,492.7,460.1,499.6,452.7,499.6 M452.7,462.2c-9,0-15.1,7.8-15.1,19.5c0,11.1,6.3,19.2,15.1,19.2c8.5,0,14.5-7.9,14.5-19.2
				C467.2,469.9,461.5,462.2,452.7,462.2"/>
			<g id="Group-48" transform="translate(199.000000, 200.000000)">
				<g id="Clip-47">
				</g>
				<defs>
					<filter id="Adobe_OpacityMaskFilter_1_" filterUnits="userSpaceOnUse" x="268.3" y="262.3" width="27.9" height="38.6">
						<feColorMatrix  type="matrix" values="1 0 0 0 0  0 1 0 0 0  0 0 1 0 0  0 0 0 1 0"/>
					</filter>
				</defs>
				<mask maskUnits="userSpaceOnUse" x="268.3" y="262.3" width="27.9" height="38.6" id="mask-4_1_">
					<g class="st3">
						<polygon id="path-3_1_" class="st1" points="268.3,262.3 296.3,262.3 296.3,300.8 268.3,300.8 						"/>
					</g>
				</mask>
				<path id="Fill-46" class="st4" d="M287.3,263.5h2.4c1.2,0,1.3,1.8,1.3,2.5l-0.1,21.8c-1.6-4-5.2-11.5-6.4-13.7l-0.2-0.3
					c-1.6-3-5.3-10-6.8-11.4l-0.1-0.1h-1.1c-0.7,0-1.7,0-2.7,0c-1.4,0-3.1,0-4.7,0h-0.4v1.3h2.8c0.6,0,0.9,0.5,0.9,1
					c0,1.8-0.2,32-0.2,32.3c0,1.6-0.4,2.4-1.3,2.5h-2.4v1.3h9v-1.3h-2.4c-1.2,0-1.3-1.9-1.3-2.5l-0.2-31.5c1.7,2.3,5.4,8.9,6.8,11.6
					c0.4,0.8,9.8,19.4,10.4,23.5l0,0.3h0.3c0.2,0,0.9-0.1,1-0.1l0.3,0v-0.3c0-1.8,0.2-34.1,0.2-34.4c0-1.6,0.4-2.4,1.3-2.5h2.4v-1.3
					h-9V263.5z"/>
			</g>
			<path id="Fill-49" d="M433.7,498.9v-34.6c0-0.5,0.1-0.7,0.8-0.7h2.9v-1.3H425v1.3h2.9c0.7,0,0.8,0.2,0.8,0.7v34.6
				c0,0.3-0.2,0.6-0.4,0.6h-3.2v1.3h12.4v-1.3h-3.2C433.9,499.4,433.7,499.2,433.7,498.9"/>
			<path id="Fill-51" d="M394.7,493.5c0,0.2-0.5,5.9-7.9,5.9c-9.1,0-10.1-13.7-10.1-19.5c0-6,2-16.1,9.6-16.2h0.1
				c4.8,0,5.4,2.5,5.4,4.9c0,0.3-0.2,0.7-0.4,1.1c-0.2,0.4-0.4,0.8-0.4,1.2c0,1.2,1.1,1.9,2.2,1.9c1.2,0,2.4-0.9,2.4-2.8
				c0-3-2.5-7.7-9.3-7.7h-0.1c-4.1,0-7.5,1.4-10.2,4.1c-3.2,3.2-5.1,8.3-5,13.6c0.1,10.1,4.2,20.8,15.7,20.8c8.2,0,9.2-7,9.2-7
				l0-0.3l-1.3-0.4L394.7,493.5z"/>
			<path id="Fill-53" d="M342.1,491.7c-1.6,5.9-3.8,7.7-9.2,7.7c-3.9,0-4.1-1.2-4.1-3.4v-31.8c0-0.5,0.1-0.7,0.8-0.7h2.8v-1.3h-12.2
				v1.3h2.8c0.5,0,0.7,0.5,0.7,0.7v34.6c0,0.3-0.2,0.6-0.5,0.6H320v1.3h22.8l0.6-9.2l-1.2-0.1L342.1,491.7z"/>
			<path id="Fill-55" d="M316.9,491.7c-1.6,5.9-3.8,7.7-9.2,7.7c-3.9,0-4.1-1.2-4.1-3.4v-31.8c0-0.5,0.1-0.7,0.8-0.7h2.9v-1.3h-12.2
				v1.3h2.8c0.5,0,0.7,0.5,0.7,0.7v34.6c0,0.3-0.2,0.6-0.5,0.6h-3.2v1.3h22.8l0.6-9.2l-1.2-0.1L316.9,491.7z"/>
			<path id="Fill-57" d="M368.6,491.8c-1.5,5.4-4.5,7.6-10.5,7.7h-0.4c-3.6,0-3.8-0.8-3.8-2.3c0-0.3,0-0.7,0-1.1
				c0-0.5,0.1-1.1,0.1-1.8l-0.1-17.5l4.9,0.2l0.1,0c2.3,0.1,2.9,0.1,3.7,1.2c0.6,0.8,0.7,1.7,0.9,3.2l0.1,0.6h1.2v-11h-1.2l0,0.3
				c-0.2,1.4-0.3,2.5-1.1,3.3c-0.7,0.9-1.1,0.9-2.7,0.9c-0.2,0-0.5,0-0.8,0l-4.9,0.1v-11.8l7.2,0.2c1.8,0.1,3.7,0.2,4.5,1.2
				c0.9,1.1,1,1.4,1.2,3.2c0,0.4,0.1,0.8,0.2,1.3l0,0.3h1.2v-7.4h-23v1.3h2.8c0.7,0,0.8,0.2,0.8,0.7v34.6c0,0.3-0.2,0.6-0.5,0.6
				h-3.2v1.3h24.2l0.5-9l-1.2-0.3L368.6,491.8z"/>
			<path id="Fill-59" d="M7.8,214.7v7.6c0,7.6,2.2,13.6,6.7,17.9c4.5,4.3,11,6.5,19.5,6.5c7.5,0,13.4-1.6,17.9-4.8
				c4.5-3.2,7.1-7.6,7.9-13.1H47.8c-0.7,3.3-2.3,5.7-4.6,7.4c-2.4,1.7-5.4,2.5-8.9,2.5c-5.2,0-9-1.5-11.4-4.4c-2.3-3-3.5-7.3-3.5-13
				V215c0-5.8,1.3-10.3,3.8-13.4c2.5-3.1,6.2-4.7,11.1-4.7c7.4,0,11.9,3.3,13.6,9.9H60c-0.9-5.4-3.6-9.7-8-12.9
				c-4.5-3.2-10.4-4.8-17.9-4.8c-8.3,0-14.8,2.3-19.4,6.8C10.1,200.5,7.8,206.8,7.8,214.7"/>
			<path id="Fill-61" d="M77.1,205.9v-15.8H66.4v55.6h10.7v-25.3c0-3.1,0.9-5.4,2.8-7c1.9-1.6,4.3-2.4,7.4-2.4
				c6.4,0,9.6,3.2,9.6,9.5v25.2h10.9v-25c0-11.7-6.3-17.5-19-17.5C84.4,203.2,80.5,204.1,77.1,205.9"/>
			<path id="Fill-63" d="M144.2,237.2c-2.2,1.3-4.9,1.9-8.4,1.9c-3.6,0-6.3-0.5-8.2-1.6c-1.9-1.1-2.8-2.6-2.8-4.4
				c0-1.7,0.7-3.1,2.2-4.1c1.5-1,3.6-1.6,6.4-1.6h10.7V237.2z M132.9,220.7c-6,0-10.5,1.2-13.7,3.5c-3.1,2.3-4.7,5.3-4.7,9
				s1.9,6.8,5.7,9.4c3.8,2.6,9.1,3.9,15.9,3.9c6.5,0,12.3-1.2,17.2-3.6c1-0.4,1.5-1.1,1.5-1.9v-23.2c0-4.8-1.7-8.4-5.1-10.9
				c-3.4-2.5-8.4-3.8-15-3.8c-7.7,0-13.9,2.1-18.6,6.3l7.2,5.4c2.6-2.6,6.3-3.9,11.2-3.9c3.7,0,6.3,0.6,7.7,1.7
				c1.4,1.1,2.1,2.7,2.1,4.6v3.4H132.9z"/>
			<path id="Fill-65" d="M162.5,190.1v42.6c0,4.5,1.1,7.8,3.3,9.9c2.2,2.1,5.6,3.1,10.1,3.1h7.9v-7.9h-5.6c-1.7,0-3-0.3-3.8-1
				c-0.8-0.7-1.2-1.9-1.2-3.7v-43H162.5z"/>
			<path id="Fill-67" d="M201.1,213.5c2.1-1.9,4.6-2.9,7.7-2.9c3.2,0,5.8,0.9,7.8,2.7c2,1.8,3,4.4,3.1,7.7h-21.9
				C198,217.9,199.1,215.4,201.1,213.5 M193.3,241.2c4.2,3.5,9.7,5.3,16.7,5.3c8.2,0,14.7-2.3,19.6-6.8l-6.8-5.8
				c-3.6,3.1-7.8,4.7-12.7,4.7c-3.6,0-6.5-0.9-8.8-2.7c-2.3-1.8-3.4-4.3-3.4-7.7V228h32.7v-3.6c0-6.6-1.9-11.8-5.6-15.5
				c-3.7-3.7-9.1-5.6-16.2-5.6c-6.7,0-12.1,1.9-15.9,5.7c-3.9,3.8-5.8,8.8-5.8,15.2v2C187,232.6,189.1,237.7,193.3,241.2"/>
			<path id="Fill-69" d="M240.4,231.9c0,9.2,4.5,13.8,13.5,13.8h10.6v-7.9H257c-2.1,0-3.6-0.4-4.5-1.3c-0.9-0.9-1.4-2.3-1.4-4.2
				v-20.6h13.4V204h-13.4v-13.9h-10.7V204h-6v7.6h6V231.9z"/>
			<path id="Fill-71" d="M287.1,238.7c-5.4,0-9.7-1.5-13-4.6l-6.6,6c4.9,4.3,11.3,6.4,19.5,6.4c6.2,0,11.1-1.2,14.7-3.6
				c3.6-2.4,5.4-5.7,5.4-9.9c0-6.7-4.5-10.6-13.5-11.8l-8.5-1.2c-3.3-0.4-5-2-5-4.8c0-1.4,0.7-2.6,2.1-3.4c1.4-0.8,3.3-1.2,5.7-1.2
				c3.9,0,7.5,1.2,10.7,3.6l6.4-5.5c-4.4-3.7-10.1-5.6-17.3-5.6c-5.6,0-10.1,1.1-13.4,3.3c-3.3,2.2-4.9,5.2-4.9,9.1
				c0,3.6,1.2,6.4,3.7,8.5c2.5,2.1,5.7,3.4,9.7,3.8l8.4,1c3.5,0.4,5.2,2,5.2,4.7C296.2,237,293.1,238.7,287.1,238.7"/>
			<path id="Fill-73" d="M17.3,290.7c0-3.6,0.9-6.3,2.7-8.1c1.8-1.7,4.6-2.6,8.4-2.6c3.3,0,5.8,0.8,7.7,2.5c1.9,1.7,2.8,3.9,2.8,6.9
				v8.1c0,3.5-1,6.2-3,7.9c-2,1.7-4.6,2.6-7.8,2.6c-3.4,0-6.1-0.9-8-2.6c-1.9-1.7-2.9-4.4-2.9-7.9V290.7z M6.5,297.2
				c0,12.3,7.2,18.5,21.7,18.5c14.3,0,21.5-5.9,21.5-17.8v-38.6H39v15.7c-3.3-1.7-7.1-2.6-11.6-2.6c-7.1,0-12.4,1.6-15.8,4.8
				c-3.4,3.2-5.1,7.7-5.1,13.3V297.2z"/>
			<path id="Fill-75" d="M69.1,282.7c2.1-1.9,4.6-2.9,7.7-2.9c3.2,0,5.8,0.9,7.8,2.7c2,1.8,3,4.4,3.1,7.7H65.8
				C65.9,287.1,67,284.6,69.1,282.7z M98.6,297.1v-3.6c0-6.6-1.9-11.8-5.6-15.5c-3.7-3.7-9.1-5.6-16.2-5.6c-6.7,0-12.1,1.9-15.9,5.7
				s-5.8,8.8-5.8,15.2v2c0,6.6,2.1,11.6,6.3,15.2c4.2,3.5,9.7,5.3,16.7,5.3c8.2,0,14.7-2.3,19.6-6.8l-6.8-5.8
				c-3.6,3.1-7.8,4.7-12.7,4.7c-3.6,0-6.5-0.9-8.8-2.7c-2.3-1.8-3.4-4.3-3.4-7.7v-0.3H98.6z"/>
			<polygon id="Fill-77" points="134.7,259.3 123,259.3 145,314.9 157.4,314.9 179.3,259.3 167.9,259.3 151.4,304.1 			"/>
			<path id="Fill-79" d="M209.4,306.3c-2.2,1.3-4.9,1.9-8.4,1.9c-3.6,0-6.3-0.5-8.2-1.6c-1.9-1.1-2.8-2.6-2.8-4.4
				c0-1.7,0.7-3.1,2.2-4.1c1.5-1,3.6-1.6,6.4-1.6h10.7V306.3z M198.1,289.9c-6,0-10.5,1.2-13.7,3.5c-3.1,2.3-4.7,5.3-4.7,9
				c0,3.7,1.9,6.8,5.7,9.4c3.8,2.6,9.1,3.9,15.9,3.9c6.5,0,12.3-1.2,17.2-3.6c1-0.4,1.5-1.1,1.5-1.9V287c0-4.7-1.7-8.4-5.1-10.9
				c-3.4-2.5-8.4-3.8-15-3.8c-7.7,0-13.9,2.1-18.6,6.3l7.2,5.4c2.6-2.6,6.3-3.9,11.2-3.9c3.7,0,6.3,0.6,7.7,1.7
				c1.4,1.1,2.1,2.7,2.1,4.6v3.4H198.1z"/>
			<path id="Fill-81" d="M227.7,259.3v42.6c0,4.5,1.1,7.8,3.3,9.9c2.2,2.1,5.6,3.1,10.1,3.1h7.9V307h-5.6c-1.7,0-3-0.3-3.8-1
				c-0.8-0.7-1.2-1.9-1.2-3.7v-43H227.7z"/>
			<path id="Fill-83" d="M297.3,274c-2.6,1.1-4.7,2.6-6.5,4.4c-3-4-7.9-6-14.7-6c-4.9,0-8.9,1.4-12.3,4.1l-0.6-3.2h-9v41.7h10.7
				v-25.6c0-3,0.9-5.2,2.7-6.8c1.8-1.5,4.1-2.3,7-2.3c2.7,0,5,0.8,6.9,2.4c1.9,1.6,2.8,4.1,2.8,7.3v24.9h10.8v-25.9
				c0-2.9,0.9-5.1,2.7-6.6c1.8-1.5,4.1-2.2,7-2.2c2.7,0,5,0.8,6.8,2.5c1.9,1.7,2.8,4.3,2.8,7.7v24.4h10.7v-24.5
				c0-6.2-1.8-10.7-5.4-13.6c-3.6-2.9-8.4-4.3-14.4-4.3C302.5,272.4,299.9,272.9,297.3,274"/>
			<path id="Fill-85" d="M342.2,289.9c0-3.4,1-5.9,2.9-7.5c1.9-1.6,4.4-2.4,7.6-2.4c6.9,0,10.4,3.3,10.4,9.9v8.3
				c0,6.5-3.5,9.8-10.4,9.8c-3.1,0-5.7-0.8-7.6-2.4c-1.9-1.6-2.9-4-2.9-7.4V289.9z M352.7,315.7c14.1,0,21.2-6.3,21.2-18.8v-6.2
				c0-5.9-1.8-10.4-5.4-13.5c-3.6-3.2-8.9-4.8-15.8-4.8c-6.9,0-12.2,1.6-15.8,4.8c-3.6,3.2-5.5,7.7-5.5,13.5v6
				C331.4,309.4,338.5,315.7,352.7,315.7z"/>
			<path id="Fill-87" d="M391,287.7c0-4.6,2.3-6.9,6.9-6.9h7.5v-7.6h-9.9c-4.7,0-8.5,1.4-11.2,4.1c-2.7,2.7-4.1,6.3-4.1,10.8v26.8
				H391V287.7z"/>
			<path id="Fill-89" d="M422,282.7c2.1-1.9,4.6-2.9,7.7-2.9c3.2,0,5.8,0.9,7.8,2.7c2,1.8,3,4.4,3.1,7.7h-21.9
				C418.8,287.1,419.9,284.6,422,282.7 M414.1,310.4c4.2,3.5,9.7,5.3,16.7,5.3c8.2,0,14.7-2.3,19.6-6.8l-6.8-5.8
				c-3.6,3.1-7.8,4.7-12.7,4.7c-3.6,0-6.5-0.9-8.8-2.7c-2.3-1.8-3.4-4.3-3.4-7.7v-0.3h32.7v-3.6c0-6.6-1.9-11.8-5.6-15.5
				c-3.7-3.7-9.1-5.6-16.2-5.6c-6.7,0-12.1,1.9-15.9,5.7c-3.9,3.8-5.8,8.8-5.8,15.2v2C407.8,301.8,409.9,306.9,414.1,310.4"/>
			<path id="Fill-91" d="M470.7,314.9h7.9V307h-5.6c-1.7,0-3-0.3-3.8-1c-0.8-0.7-1.2-1.9-1.2-3.7v-43h-10.6v42.6
				c0,4.5,1.1,7.8,3.3,9.9C462.7,313.8,466.1,314.9,470.7,314.9"/>
			<path id="Fill-93" d="M118.9,54.7c0,12.1-7.6,21.1-17.7,21.1c-9.7,0-10.9-5.9-10.9-7.4c0-0.7,0.2-1.8,0.6-2.8
				c1.3,2,3.5,3.3,6,3.3c3.9,0,7.1-3.2,7.1-7.1c0-3.9-3.2-7.1-7.1-7.1c-0.1,0-0.2,0-0.4,0c-6.6,0.2-10.8,4.4-12.5,9V45.6
				c1.7,4.6,5.9,8.9,12.5,9c0.1,0,0.2,0,0.4,0c3.9,0,7.1-3.2,7.1-7.1c0-3.9-3.2-7.1-7.1-7.1c-2.5,0-4.7,1.3-6,3.3
				c-0.5-1-0.6-2.1-0.6-2.8c0-1.5,1.2-7.4,10.9-7.4C111.3,33.5,118.9,42.6,118.9,54.7L118.9,54.7z M101.2,26.3
				c-10.1,0-15.2,4.9-17.2,9.9v-9.9H69.3c-13.3,0-18.1,8.6-18.1,14.6c0,5.8,4.5,13.6,13.4,13.8c0.1,0,0.2,0,0.4,0
				c3.9,0,7.1-3.2,7.1-7.1c0-3.9-3.2-7.1-7.1-7.1c-2.5,0-4.7,1.3-6,3.3c-0.5-1-0.6-2.1-0.6-2.8c0-1.5,1.2-7.4,10.9-7.4l7.6,0v108.2
				H99v-7.3H84.1v-7.2H99V120H84.1V73.1c1.9,5,7.1,9.9,17.2,9.9c13.3,0,24.9-11.5,24.9-28.3v0C126.1,37.8,114.6,26.3,101.2,26.3z"/>
			<g id="Group-97" transform="translate(1.000000, 0.000000)">
				<g id="Clip-96">
				</g>
				<defs>
					<filter id="Adobe_OpacityMaskFilter_2_" filterUnits="userSpaceOnUse" x="7.5" y="0.9" width="160.3" height="160.3">
						<feColorMatrix  type="matrix" values="1 0 0 0 0  0 1 0 0 0  0 0 1 0 0  0 0 0 1 0"/>
					</filter>
				</defs>
				<mask maskUnits="userSpaceOnUse" x="7.5" y="0.9" width="160.3" height="160.3" id="mask-6_1_">
					<g class="st5">
						<polygon id="path-5_1_" class="st1" points="7.5,0.9 167.8,0.9 167.8,161.2 7.5,161.2 						"/>
					</g>
				</mask>
				<path id="Fill-95" class="st6" d="M87.7,153.9c-40.2,0-72.9-32.7-72.9-72.9c0-40.2,32.7-72.9,72.9-72.9
					c40.2,0,72.9,32.7,72.9,72.9C160.5,121.2,127.9,153.9,87.7,153.9 M144.3,24.4C129.2,9.2,109.1,0.9,87.7,0.9
					C66.3,0.9,46.1,9.2,31,24.4C15.9,39.5,7.5,59.6,7.5,81c0,21.4,8.3,41.5,23.5,56.7c15.1,15.1,35.3,23.5,56.7,23.5
					c21.4,0,41.5-8.3,56.7-23.5c15.1-15.1,23.5-35.3,23.5-56.7C167.8,59.6,159.5,39.5,144.3,24.4"/>
			</g>
		</g>
	</g>
</g>
</svg>
