<svg xmlns="http://www.w3.org/2000/svg" viewBox="0 0 16 16">
  <g transform="translate(1)">
    <path d="M2.95454545,6.51543086 C2.99090909,6.51543086 3.02727273,6.51543086 3.06363636,6.50901804 C3.6969697,6.44488978 4.16363636,5.84849699 4.10606061,5.18156313 C4.04848485,4.5242485 3.48484848,4.01763527 2.84848485,4.08176353 C2.21515152,4.14589178 1.74848485,4.74228457 1.80909091,5.41242485 C1.86363636,6.04088176 2.35757576,6.51543086 2.95454545,6.51543086 Z M2.90909091,4.76472946 C2.92424242,4.76472946 2.93939394,4.76152305 2.95454545,4.76152305 C3.21212121,4.76152305 3.43333333,4.97314629 3.45757576,5.24569138 C3.48181818,5.53426854 3.27575758,5.79719439 3.0030303,5.8260521 C2.98787879,5.8260521 2.96969697,5.82925852 2.95454545,5.82925852 C2.69393939,5.82925852 2.47878788,5.62084168 2.45757576,5.34829659 C2.43030303,5.05971944 2.63939394,4.79358717 2.90909091,4.76472946 Z"/>
    <path d="M0.418181818,8.28216433 C1.08787879,8.84328657 2.26666667,8.31422846 2.89090909,7.96152305 C2.97878788,8.21162325 3.09393939,8.50661323 3.21515152,8.81442886 C3.38181818,9.24088176 3.55757576,9.68016032 3.64848485,9.99438878 C3.77575758,10.4272545 3.73030303,10.61002 3.72121212,10.6420842 C3.71818182,10.6452906 3.71818182,10.648497 3.71515152,10.6517034 L1.28787879,15.0701403 C1.21212121,15.208016 1.23636364,15.3811623 1.34242424,15.4901804 C1.50909091,15.6601202 1.81818182,15.9775551 2.21515152,15.9775551 C2.43030303,15.9775551 2.67272727,15.8845691 2.93030303,15.6216433 C2.94848485,15.6024048 2.96666667,15.5831663 2.97878788,15.557515 C3.35454545,14.9386774 3.94242424,13.9831663 4.43030303,13.2008016 L4.63636364,14.8937876 C4.68181818,15.3683367 5.06363636,15.7274549 5.50909091,15.7274549 C5.53636364,15.7274549 5.56363636,15.7274549 5.59090909,15.7242485 C5.82727273,15.7018036 6.03333333,15.5799599 6.17878788,15.3875752 C6.31818182,15.1983968 6.38181818,14.9611222 6.36060606,14.7142285 L5.89090909,10.1322645 C5.88484848,10.0809619 5.86969697,10.0360721 5.84848485,9.99438878 C5.83939394,9.91743487 5.82727273,9.84048096 5.80909091,9.76032064 C5.8030303,9.73146293 5.63939394,9.04529058 5.29090909,7.87174349 C5.28787879,7.86212425 5.28484848,7.85250501 5.28181818,7.84609218 C5.11515152,7.41643287 4.93030303,6.88096192 4.8969697,6.72705411 C4.96060606,6.37755511 5.51818182,3.89258517 5.88787879,2.2509018 C5.93030303,2.06492986 5.82121212,1.87895792 5.64848485,1.83727455 C5.47272727,1.79238477 5.2969697,1.90781563 5.25757576,2.09058116 C4.88484848,3.73547094 4.25757576,6.51863727 4.24545455,6.69178357 C4.24242424,6.75911824 4.23030303,6.93867735 4.67272727,8.09298597 C5.00909091,9.23446894 5.17575758,9.9238477 5.17575758,9.9238477 C5.32424242,10.6004008 5.03939394,11.1006012 4.74242424,11.5014028 C4.42121212,11.9342685 2.68787879,14.7783567 2.45757576,15.1503006 C2.28181818,15.3170341 2.17878788,15.3362725 1.98181818,15.1727455 L4.26969697,11.0044088 C4.34545455,10.8825651 4.48484848,10.5266533 4.26666667,9.78597194 C4.16363636,9.44288577 3.98484848,8.98757515 3.81212121,8.54829659 C3.63030303,8.08657315 3.44242424,7.61202405 3.39090909,7.3747495 C3.36666667,7.26573146 3.2969697,7.1759519 3.2,7.13426854 C3.1030303,7.09258517 2.99090909,7.10220441 2.9030303,7.15991984 C2.27575758,7.57354709 1.18181818,8.04488978 0.821212121,7.74028056 C0.693939394,7.63446894 0.451515152,7.22084168 0.945454545,5.67855711 C1.0030303,5.498998 0.912121212,5.30340681 0.742424242,5.24248497 C0.572727273,5.18156313 0.387878788,5.27775551 0.33030303,5.45731463 C-0.136363636,6.91943888 -0.109090909,7.84288577 0.418181818,8.28216433 Z M5.25151515,11.9278557 C5.3,11.8637275 5.34848485,11.7931864 5.3969697,11.7194389 L5.71212121,14.7847695 C5.71818182,14.8521042 5.7030303,14.9162325 5.66666667,14.9643287 C5.64242424,14.9963928 5.6,15.0348697 5.53030303,15.0412826 C5.40606061,15.0541082 5.2969697,14.9579158 5.28484848,14.8264529 L5.28484848,14.8136273 L4.98484848,12.3286573 C5.10606061,12.139479 5.2030303,11.9951904 5.25151515,11.9278557 Z M4.46060606,1.74108216 C4.90606061,1.74108216 5.26969697,1.35951904 5.26969697,0.88496994 C5.26969697,0.413627255 4.90909091,0.0288577154 4.46060606,0.0288577154 C4.01515152,0.0288577154 3.65151515,0.410420842 3.65151515,0.88496994 C3.65151515,1.35951904 4.01515152,1.74108216 4.46060606,1.74108216 Z M6.79090909,2.19318637 L13.5909091,3.898998 C13.6151515,3.90541082 13.6424242,3.90861723 13.6666667,3.90861723 C13.8151515,3.90861723 13.9484848,3.80280561 13.9818182,3.64248497 C14.0242424,3.45651303 13.9151515,3.27374749 13.7393939,3.22885772 L6.94242424,1.52625251 C6.76666667,1.48136273 6.59393939,1.59679359 6.55151515,1.78276553 C6.50909091,1.96553106 6.61818182,2.15150301 6.79090909,2.19318637 Z M13.7484848,7.04448898 L6.94848485,5.24569138 C6.77272727,5.2008016 6.5969697,5.31302605 6.55454545,5.49579158 C6.51212121,5.67855711 6.61818182,5.86773547 6.79090909,5.91262525 L13.5909091,7.71142285 C13.6181818,7.71783567 13.6424242,7.72104208 13.669697,7.72104208 C13.8151515,7.72104208 13.9484848,7.61523046 13.9848485,7.46132265 C14.0272727,7.27855711 13.9212121,7.09258517 13.7484848,7.04448898 Z"/>
  </g>
</svg>
