<svg xmlns="http://www.w3.org/2000/svg" viewBox="0 0 500 420.3"><g><path d="M62.8 280.3v.1h257.7c1 0 1.9 0 2.9-.1v-20.7H62.8v20.7zM167.5 293l17.1 27.7h-7.4c.3.6 2.5 5.4 11.1 13.4h-9.4s5.5 8.8 12.3 15.8h.1c6.8-7 12.3-15.8 12.3-15.8h-9.4c8.5-8 10.8-12.8 11.1-13.4h-7.4L215 293h-47.5zm23.7 68.9h.2c6-6.6 10.7-11.9 10.7-11.9h-21.5c-.1-.1 4.6 5.2 10.6 11.9z"/><path d="M214.9 293l17.1 27.7h-7.4c.3.6 2.5 5.4 11.1 13.4h-9.4s5.5 8.8 12.3 15.8h.1c6.8-7 12.3-15.8 12.3-15.8h-9.4c8.5-8 10.8-12.8 11.1-13.4h-7.4l17.1-27.7h-47.5zm23.6 68.9h.2c6-6.6 10.7-11.9 10.7-11.9h-21.5c0-.1 4.7 5.2 10.6 11.9z"/><path d="M262.3 293l17.1 27.7H272c.3.6 2.5 5.4 11.1 13.4h-9.4s5.5 8.8 12.3 15.8h.1c6.8-7 12.3-15.8 12.3-15.8H289c8.5-8 10.8-12.8 11.1-13.4h-7.4l17.1-27.7h-47.5zm23.6 68.9h.2c6-6.6 10.7-11.9 10.7-11.9h-21.5c0-.1 4.6 5.2 10.6 11.9z"/><path d="M326.8 320.7h-7.4c.3.6 2.5 5.4 11.1 13.4h-9.4s5.5 8.8 12.3 15.8h.1c6.8-7 12.3-15.8 12.3-15.8h-9.4c8.5-8 10.8-12.8 11.1-13.4H340l17.1-27.7h-47.4l17.1 27.7zm46 19.6c1.6-2 3.2-4 4.5-6.3h-8.9c0 .1 1.7 2.8 4.4 6.3zm-39.5 21.6h.2c6-6.6 10.7-11.9 10.7-11.9h-21.5c-.1-.1 4.6 5.2 10.6 11.9zM120.2 293l17.1 27.7h-7.4c.3.6 2.5 5.4 11.1 13.4h-9.4s5.5 8.8 12.3 15.8h.1c6.8-7 12.3-15.8 12.3-15.8h-9.4c8.5-8 10.8-12.8 11.1-13.4h-7.4l17.1-27.7h-47.5zm23.6 68.9h.2c6-6.6 10.7-11.9 10.7-11.9h-21.5c-.1-.1 4.6 5.2 10.6 11.9zm-71-68.9l17.1 27.7h-7.4c.3.6 2.5 5.4 11.1 13.4h-9.4s5.5 8.8 12.3 15.8h.1c6.8-7 12.3-15.8 12.3-15.8h-9.4c8.5-8 10.8-12.8 11.1-13.4H103l17.1-27.7H72.8zm23.6 68.9h.2c6-6.6 10.7-11.9 10.7-11.9H85.7c0-.1 4.7 5.2 10.7 11.9zM387.6 298c.4-7.1.5-11.4.5-11.4-1.6 3.2-6.4 6.4-14.7 6.4h-16.3l.4.7 16.7 27h-7.4c.3.6 2.5 5.3 10.7 13.1 5.7-9.5 9.4-23.3 10.1-35.8z"/></g><path d="M487.8 328.6L279.6 0l-41.3 65.2c-.1.2-.2.4-.2.6-2 6.2-2.4 12.8-.9 19 1.5 6.2 4.8 11.9 8.9 16.9 4.1 5 9 9.4 14.3 13.5 10.5 8.1 22.1 14.6 33.8 21 11.7 6.5 23.8 12.3 35.3 20.1 3.5 2.5 6.9 5.2 9.9 9 1.4 1.9 2.8 4.2 3.2 7.1.5 2.8-.3 6-2 8.3-3.5 4.5-7.9 6.1-12 7.7-4.2 1.5-8.3 2.4-12.5 3.2-16.7 3-33.3 4-49.9 4.9-16.6.9-33.2 1.3-49.7 1.8l-12.4.3c-2.1 0-4 .1-6.3.1-1.9 0-3.9.1-5.9.2-7.8.7-15.6 2.5-22.5 5.9-1.6.8-7.4 3.8-11.5 8.1-4.2 4.2-6.7 9.3-6.9 9.7-1.1 2.4-2.3 2.1-2.6.6-.4-2.1 2.5-9.6 8.2-15.1 5.6-5.6 13-8.7 14.5-9.3 7.6-3.1 15.8-4.7 24-5.1 8.1-.1 16.2-.5 24.3-.7 16.2-.6 32.4-1.2 48.5-2.2 16.1-1.1 32.3-2.2 48-5.4 3.9-.8 7.7-1.8 11.3-3.1 3.5-1.3 7-3.2 8.4-5.6 1.4-2.2.7-5.1-1.5-7.8s-5.3-5.1-8.4-7.4c-10.7-7.4-22.8-13.4-34.5-20-11.8-6.5-23.6-13.4-34.4-21.9-5.4-4.3-10.6-9-15-14.5s-8.1-11.9-9.8-19.2c-.7-3.1-1-6.2-.9-9.4l-40.6 64-56.7-89.4L22 227.6c-18.4 29-5.3 52.7 29 52.7h.5v-20.6h-17v-12.3h319v12.3h-18.9v20.6H369c11.6 0 21-9.4 21.1-21v-11.9h11.2v41.5c0 53.3-28 85.8-82.7 85.8l-262.6.1c-4.2.1-8.1 0-12.1-.4-7.9-.9-15.6-3.4-22-7.9-13-8.8-18.9-26.4-15.2-41.8 1.7-7.7 6.4-14.6 13.1-18.8 3.3-2.1 7.1-3.7 10.9-4.6 3.8-.9 7.8-.5 11.8.1 7.8 1.4 15.3 6.1 18.4 13.5 1.6 3.6 1.9 7.7 1.3 11.7-.5 4-2 7.9-4.6 10.9-.5.6-2.1 2.4-4.8 3.8-2.7 1.4-6.6 2.2-10.5 1.9-3.9-.2-7.8-1.9-10-4.6-2.2-2.6-2.9-5.4-3.5-6.5-.8-1.5-2.3-1.6-1.8 2.3.1.3.3 2.6 2.1 5.6 1.8 3 5.6 5.8 9.6 6.7 4 1.1 8 1 11.5.3 3.4-.7 5.9-2.3 7-3 4.4-2.9 7.3-7.6 8.8-12.3 1.4-4.8 1.9-9.5.8-14.6-1.1-5-3.8-9.4-7.4-12.8-3.6-3.4-7.9-5.7-12.5-7.1-4.6-1.4-9-1.9-14-1.6-4.9.5-9.3 2-13.5 4.2-8.3 4.3-15 12.2-17.6 21.3-2.6 9-2.5 18.4.1 27.2s8.1 16.9 15.4 22.4c7.4 5.6 16.3 8.6 25.1 9.8 4.4.6 9 .7 13.2.7h4.9c6 23.7 29.5 39.3 67 39.3h303.8c61.2-.2 85.6-41 56.5-91.9z"/></svg>
