<svg xmlns="http://www.w3.org/2000/svg" viewBox="0 0 500 558.8"><g><path d="M238.7 288.2c-.6.9-1.2 1.7-1.8 2.5 11.2-7.5 32.1-22.2 32.1-22.2s-16.7 3.8-26.3 6.3c-.2 4.8-1.5 9.4-4 13.4z"/><path d="M450.7 80.7C413.4 58.2 250 0 250 0S86.6 58.2 49.3 80.7C12 103.1 0 114.7 0 152.6v128.6c25.4-26.6 50-55.8 74.4-88.4-8 29.4-33.3 79-74.4 124.2v85.3c0 37.9 12 49.4 49.3 71.9C86.6 496.7 250 558.8 250 558.8s163.4-62.1 200.7-84.6c37.3-22.5 49.3-34 49.3-71.9V152.6c0-37.9-12-49.5-49.3-71.9zM238.4 441.5C104.2 330.6 76.9 204.7 76.9 204.7s28.7 56 84.9 124.8c20.4 25.4 34.2 41.2 71.7 77.5h.1c12.2 11.6 25.1 23.2 38.7 34.4h-33.9zm10.3-55.8c-1.2-4.1-4.9-8.4-10.3-11.8l-.6-.3c0-.1.1-.2.1-.2 21.1-15.5 42.6-33.8 62.6-52 2.3 5.5 4.6 10.8 6.7 15.9-16.3 16.9-35.4 33.5-58.5 48.4zm128.6-55.9c-4.9-3.9-6.2-13.3-3.6-22.5-21.4-9.8-78.9-35.8-78.9-35.8s25.8 24.8 39 36.8c7.6-9.7 19.7-12.1 27-5.7 7.9 6.9 8.2 20.3 1.5 30.6-6.8 10.3-18.6 14.3-27.2 8.5-8.5-5.7-10.2-19.6-3-30.9-14.1-12.8-44-38.7-44-38.7s29.1 71.8 39.1 96.2c6.5-3 13.6-3.6 18.3-.9 7.2 4.1 6.3 13.4-.8 20.2-7.1 6.9-17.9 9.7-25.3 6.8-7.4-2.8-8.6-11.3-1.3-19.6 1.9-2.1 4.2-4 6.7-5.4-10.6-24.9-43.4-99.9-43.4-99.9s-36.4 81-47.3 105.5c.9.4 1.8.9 2.7 1.5 6.5 4.1 9.1 8.6 9.3 11.5.1 1.5-.4 2.7-1.4 3.6-1.6 1.3-4.1 2.1-7.2 2.1-4.2 0-9.1-1.3-13.5-3.7-5-2.7-8.7-6.7-9.6-10.4-.4-1.8-.2-3.3.7-4.7 1.2-1.9 4-2.9 7.6-2.9 2.9 0 6 .7 9.1 1.9 10.5-24.4 44-104.5 44-104.5s-56.3 36.9-77.9 51.1c3.4 7.2 4.2 15.4 1.5 20.5-3.8 7.3-12.6 6.2-19.3-1.5-6.7-7.7-9.7-19.4-7.1-27.2 2.6-7.8 10.9-8.7 18.9-.6 1.8 1.9 3.4 4 4.7 6.4 10.5-7.1 15.4-10.8 30-20.6-5.9 1.6-12.5.1-17.6-4.6-9.2-8.3-11.5-23.4-5.2-34.7 6.2-11.2 19.3-14.4 29.4-6.2 5.7 4.6 9 11.9 9.5 19.4 10.7-2.8 30.1-8.8 30.1-8.8s-70.5-23.3-94.1-30.9c-.6 2.1-1.4 4.2-2.3 6.2-5.3 10.7-13.7 13.1-18.2 6.8s-4.6-18.1-.6-27.9c4.1-9.7 11.8-14.3 17.6-9 4.2 3.9 5.7 12.5 4.1 21 23.5 7.4 93.4 28.6 93.4 28.6s-31.1-31.2-45.7-45.3c-7.6 7.7-18.3 9.2-25.1 3.4-7.9-6.7-8.2-20-1.4-30.2 6.9-10.1 18.7-14.1 27.3-8.5 8.5 5.6 10.2 19.6 2.7 30.9-.5.7-1 1.5-1.6 2.1 15 14.4 48.1 45.2 48.1 45.2s-19.3-81-25.8-107.3c-5.6 1.4-11.4 1.2-15.6-1.1-7.9-4.2-7.5-12.9-.6-18.8 7-6 18-8 25.8-5.1 7.8 2.9 9.8 10.7 2.9 18-2.6 2.8-6.2 4.9-10 6.2 6.9 26.6 29.1 107.6 29.1 107.6s34.1-56.5 47.2-79.1c-10-7.6-13.1-19.9-7.7-26.5 5.4-6.7 16.4-6.4 25.4.1 8.9 6.5 13 17.6 8.6 25.4-4 7.2-14.6 8.5-24.1 2.6-12.3 21.6-42.8 76.1-42.8 76.1s56.9-46.4 76.5-62.5c-5-7.8-6.6-17.2-3.4-22.7 3.9-7 13-5.8 20.2 1.7 7.2 7.5 10.6 19 7.8 26.6-2.7 7.6-11.6 8.2-20 0-1.1-1-2.1-2.2-3-3.4-18.3 15.4-68.4 58.1-68.4 58.1s67.4-34.9 87.5-45.5c11.4-6 18.9-9.9 24-12.6-2.9-9.8-2-19 2.1-20.8 4.3-1.9 10.4 4.9 13.7 15.1 3.3 10.2 2.5 20-1.8 21.9-4.1 1.8-10-4.4-13.3-14-5 2.8-12.3 6.8-23.6 13-20 10.8-87 47.1-87 47.1s72.7-19.7 94.1-25.7c-1.3-6.1-1.4-12.6.4-17.2 3-8.2 9.5-7.5 13.9 0s5.9 18.9 4 26.9c-1.9 8-7.4 10-13 2.6-2-2.6-3.5-6.1-4.6-9.8-23 6.7-106.3 31.1-106.3 31.1s63 30.8 85.4 41.3c.5-1.5 1.2-2.9 2-4.3 6-10.9 15.3-13.9 20.2-7.8 4.9 6 4.8 17.9 0 27.8-4.8 10.1-13.4 14.8-19.5 9.8zm-36-33.3c-1 1.4-1.4 2.2-2.5 3.6-1.9 1.2-3 2-4.6 3.7-2.5-2.2-5-4.6-7.6-6.9 2.2-2.1 2.9-2.8 5-4.8 3.3 1.4 6.5 2.9 9.7 4.4zm-14.7 19.1c-3.9 4.7-7.3 8.8-11.8 13.6-2.1-5-4.2-10.1-6.4-15.3 4.1-3.8 6.7-6.2 10.6-9.8 3 2.7 5.9 5.4 8.8 7.9-.7 1.5-.6 2.2-1.2 3.6zm58-27.8c-1.7.8-3.3 2-4.9 3.4-8.9-14.6-13.4-25.5-13.4-25.5s7.1 9.1 18.3 22.1zm-18.7-31.6c-1.9 4.5-7.5 16-18.3 31.8-2.6-1.3-5.4-2.5-8.1-3.8 13.5-13.5 22.7-23.4 26.4-28zm34.4 63.4c1.5-3.7 2.5-7.5 2.9-11.2 18.8 19.9 42.4 42.4 65.4 57.1-29-7.7-51.7-26.6-68.3-45.9z"/></g></svg>
