<svg version="1.1"
   xmlns="http://www.w3.org/2000/svg" xmlns:xlink="http://www.w3.org/1999/xlink"
   x="0px" y="0px" viewBox="0 0 500 471.1" style="enable-background:new 0 0 500 471.1;"
   xml:space="preserve">
<defs>
</defs>
<g>
  <path class="st0" d="M103,265.2c-8.3,0-16.6,1-24.7,3C23.2,281.8-10.6,337.7,3,392.8c11.4,46.1,52.4,78.3,99.8,78.3
    c8.3,0,16.6-1,24.7-3c26.7-6.6,49.2-23.2,63.4-46.7c14.2-23.5,18.4-51.2,11.8-77.8C191.4,297.4,150.4,265.2,103,265.2z
     M171.4,409.5c-11.1,18.3-28.6,31.2-49.3,36.3c-6.3,1.6-12.8,2.4-19.2,2.4c-36.9,0-68.8-25-77.6-60.9
    c-10.6-42.8,15.7-86.3,58.5-96.8c6.3-1.6,12.8-2.3,19.2-2.3c36.9,0,68.8,25,77.6,60.9C185.7,369.7,182.4,391.2,171.4,409.5z"/>
  <path class="st0" d="M497,277.9c-11.4-46.1-52.4-78.3-99.8-78.3c-8.3,0-16.6,1-24.7,3c-26.7,6.6-49.2,23.2-63.4,46.7
    c-14.2,23.5-18.4,51.2-11.8,77.9c11.4,46.1,52.4,78.3,99.8,78.3c8.3,0,16.6-1,24.7-3c26.7-6.6,49.2-23.2,63.4-46.7
    C499.3,332.3,503.5,304.6,497,277.9z M465.5,343.9c-11.1,18.3-28.6,31.2-49.3,36.3c-6.3,1.6-12.8,2.3-19.2,2.3
    c-36.9,0-68.8-25-77.6-60.9c-5.1-20.7-1.9-42.2,9.2-60.5c11.1-18.3,28.6-31.2,49.3-36.3c6.3-1.6,12.8-2.4,19.2-2.4
    c36.8,0,68.7,25,77.6,60.9C479.9,304.2,476.6,325.7,465.5,343.9z"/>
  <path class="st0" d="M265,245.7c-1.9-1.5-36.4-28.9-36.4-28.9l33.8-57.3c3.2-5.4,1.4-12.5-4-15.7c-5.4-3.2-12.5-1.4-15.7,4
    l-37.4,63.3c-3.7,6.3-2.2,14.6,3.5,19.2l-0.1,0.1c0,0,37.5,29.7,42.1,33.3c5.2,4,7.4,8.1,7.4,13.5c0,4.9-0.3,79.8-0.3,79.8
    c0,8-1.5,13.3-4.5,16c-2.4,2.2-6.5,3.5-12,3.9l0-90.9c0-3.5-1.6-6.9-4.4-9l-63.2-49.8c-9.6-7.7-12.5-23.2-6.2-33.8
    c0,0,41.1-69.5,53.2-90.3c5.4-9.3,13.9-15,23.9-16.1c11.3-1.3,22.8,3.4,31.6,12.9c13.8,14.8,65.8,70.1,65.8,70.1
    c0.1,0.1,0.3,0.3,0.4,0.4c8.5,8.2,18.4,12.3,29.6,12.3c4.8,0,9.9-0.8,15.2-2.3c12.1-3.6,27.3-8.5,27.5-8.6c6-1.9,9.3-8.4,7.4-14.4
    c-1.9-6-8.4-9.3-14.4-7.4c-0.1,0-15.2,4.9-26.9,8.4c-11.8,3.4-17.9-0.2-22.2-4.3c-3.6-3.9-52.3-55.6-65.6-69.9
    c-0.2-0.2-0.3-0.3-0.5-0.5c17.5-5.4,30.3-21.7,30.3-40.9c0-23.6-19.2-42.8-42.8-42.8c-23.6,0-42.8,19.2-42.8,42.8
    c0,7.8,2.1,15.1,5.8,21.4c-0.3,0-0.6,0-0.9,0.1C225,66.2,210,76.1,201,91.6c-5,8.7-53.1,90.2-53.1,90.2
    c-11.9,20.2-6.7,48.6,11.6,63.3l59.1,46.5l0,96.5c0,5.9,4.5,10.8,10.4,11.4c3.2,0.3,6.2,0.5,9.1,0.5c13.4,0,23.6-3.3,30.9-9.9
    c8.1-7.3,12-18.1,12-32.9c0,0,0.3-74.4,0.3-79.9C281.1,264.7,275.7,254.1,265,245.7z M280.1,22.9c10.8,0,19.9,9.1,19.9,19.9
    c0,10.8-9.1,19.9-19.9,19.9c-11.1,0-19.9-8.7-19.9-19.9C260.2,32,269.3,22.9,280.1,22.9z"/>
</g>
</svg>
