<svg version="1.1"
   xmlns="http://www.w3.org/2000/svg" xmlns:xlink="http://www.w3.org/1999/xlink"
   x="0px" y="0px" viewBox="0 0 500 572.9" style="enable-background:new 0 0 500 572.9;"
   xml:space="preserve">
<defs>
</defs>
<g>
  <path class="st0" d="M499.5,512l-98.4-393.9c-2.1-8.4-10.6-13.5-19-11.4c-8.4,2.1-13.5,10.6-11.4,19l5.1,20.4
    c-25.7,5.7-74.9,16.7-84,18.6c-17.2,3.6-22.2,1-29-5.2c-6.3-5.8-37.2-33.7-42.9-39c-3.8-3.5-7.7-6.6-11.7-9.4
    c19.7-9.4,33.3-29.5,33.3-52.7c0-32.3-26.2-58.5-58.5-58.5c-32.2,0-58.5,26.2-58.5,58.5c0,16,6.5,30.6,17,41.1
    c-8.1,3.1-15.4,7.8-21.6,14c-5.2-5.1-11.6-8.7-18.8-10.4l-19-4.6c-3.1-0.8-6.4-1.1-9.6-1.1c-18.9,0-35.3,12.8-39.7,31.2L11.3,217
    c-2.6,10.6-0.8,21.5,4.8,30.9c5.7,9.3,14.6,15.9,25.2,18.5l19,4.6c3.1,0.8,6.3,1.1,9.5,1.1c-4.1,16.7-7.1,29.1-7.8,31.9L0.5,547.1
    c-1.9,7.6,2,15.4,9.3,18.4c9.4,3.8,21.4,7.4,33.5,7.4c6.9,0,13.8-1.2,20.3-4.1c10.6-4.9,18.4-14,22.5-26.3l3-9
    c7.6-22.7,20.6-62,30.2-91.7l72.4,119.2c2.9,4.8,8,7.5,13.4,7.5c1.7,0,3.4-0.3,5-0.8c9.4-3.2,32-12.9,40.5-34.5
    c3.5-8.8,5.6-22.9-3.6-40l-5.3-9.9c-18.6-34.4-53.2-98.3-59.2-109c-3.1-5.6-7.7-17.5-3.2-35.3c5.3-21.2,33.3-135.5,33.6-136.6
    c2.1-8.4-3.1-16.9-11.5-18.9c-8.4-2.1-16.9,3.1-18.9,11.5c-0.3,1.2-28.3,115.4-33.6,136.5c-7.1,28.3,0.9,48.6,6.3,58.2
    c5.9,10.5,41.7,76.8,59,108.6l5.3,9.9c3.8,7,2.9,11.2,2,13.6c-1.5,3.8-5.2,7.7-10.3,11L98.7,347.5c-7.4-12.2-9.3-23.1-6.3-35.5
    c0,0,0.1-0.2,0.1-0.6l0.1-0.5c0,0,0-0.1,0-0.1c3.2-13.2,31.6-129.3,36.8-151.3c3.9-16.2,13-27.5,24.9-31.2
    c13.3-4.1,29,1.4,44.3,15.4c5.8,5.4,36.7,33.3,43,39c18.1,16.6,35.7,17.1,56.5,12.7c9.5-2,59.6-13.2,85.2-18.9l85.7,343.1
    c1.8,7.1,8.2,11.9,15.2,11.9c1.3,0,2.5-0.2,3.8-0.5C496.5,528.8,501.6,520.3,499.5,512z M183.1,31.3c14.7,0,27.2,12.5,27.2,27.2
    c0,14.7-12.5,27.2-27.2,27.2c-15.2,0-27.2-11.9-27.2-27.2C155.9,43.8,168.3,31.3,183.1,31.3z M72.5,128.7c0.7,0,1.5,0.1,2.2,0.3
    l19,4.6c2.4,0.6,4.5,2.1,5.9,4.3c1.3,2.2,1.7,4.7,1.2,7.2l-13.2,54.2L50,190.2L63.2,136C64.2,131.8,68.1,128.7,72.5,128.7z
     M67.8,240.5l-19-4.6c-2.4-0.6-4.5-2.1-5.9-4.3c-1.3-2.2-1.7-4.7-1.2-7.2l0.9-3.7l37.6,9.1l-0.9,3.7
    C78.1,238.4,72.9,241.7,67.8,240.5z M97.6,406.2c-8,26.2-28.2,86.9-38.3,117.4l-3,9c-1.8,5.3-4.2,7-5.9,7.8
    c-3.6,1.7-9.2,1.7-16,0.2l42.7-168.2L97.6,406.2z"/>
</g>
</svg>
