<svg version="1.1" id="Calque_1" xmlns="http://www.w3.org/2000/svg" xmlns:xlink="http://www.w3.org/1999/xlink" x="0px" y="0px"
	 viewBox="0 0 500 500" style="enable-background:new 0 0 500 500;" xml:space="preserve">
<g>
	<g id="warning">
		<path id="_Compound_Path_" d="M228.5,121.3h43.1c2.8,0,5,2.2,5,5v58.1c0,0.2,0,0.4,0,0.6l-13.2,111.9c-0.3,2.5-2.4,4.4-5,4.4H242
			c-2.5,0-4.7-1.9-5-4.4L223.5,185c0-0.2,0-0.4,0-0.6v-58.1C223.5,123.6,225.7,121.3,228.5,121.3z M228.6,329.7h42.7
			c2.2,0,4,1.8,4,4v41c0,2.2-1.8,4-4,4h-42.7c-2.2,0-4-1.8-4-4v-41C224.6,331.5,226.4,329.7,228.6,329.7z"/>
		<path d="M250,0.5C112.2,0.5,0.5,112.2,0.5,250S112.2,499.5,250,499.5S499.5,387.8,499.5,250S387.8,0.5,250,0.5z M250,475.7
			C125.3,475.7,24.3,374.7,24.3,250S125.3,24.3,250,24.3S475.7,125.3,475.7,250S374.7,475.7,250,475.7z"/>
	</g>
</g>
</svg>
