<svg viewBox="0 0 423 500" version="1.1" xmlns="http://www.w3.org/2000/svg" xmlns:xlink="http://www.w3.org/1999/xlink">
    <defs></defs>
    <g id="Page-1" stroke="none" stroke-width="1" fill-rule="evenodd">
        <g id="washingmachine" transform="translate(-0.069753, -0.455137)" fill-rule="nonzero">
            <path d="M8.46782107,104.93911 L8.46782107,88.6134676 L414.214447,88.6134676 L414.214447,104.93911 L8.46782107,104.93911 Z M211.341134,402.936498 C154.89845,402.936498 109.142614,357.180662 109.142614,300.737978 C109.142614,244.295294 154.89845,198.539458 211.341134,198.539458 C267.783818,198.539458 313.539654,244.295294 313.539654,300.737978 C313.539654,357.180662 267.783818,402.936498 211.341134,402.936498 Z M211.341134,386.610855 C258.767415,386.610855 297.214012,348.164259 297.214012,300.737978 C297.214012,253.311697 258.767415,214.8651 211.341134,214.8651 C163.914853,214.8651 125.468256,253.311697 125.468256,300.737978 C125.468256,348.164259 163.914853,386.610855 211.341134,386.610855 Z M211.341134,461.926485 C122.31918,461.926485 50.1526273,389.759932 50.1526273,300.737978 C50.1526273,211.716024 122.31918,139.549471 211.341134,139.549471 C300.363088,139.549471 372.529641,211.716024 372.529641,300.737978 C372.529641,389.759932 300.363088,461.926485 211.341134,461.926485 Z M211.341134,445.600842 C291.346685,445.600842 356.203999,380.743529 356.203999,300.737978 C356.203999,220.732427 291.346685,155.875113 211.341134,155.875113 C131.335583,155.875113 66.4782695,220.732427 66.4782695,300.737978 C66.4782695,380.743529 131.335583,445.600842 211.341134,445.600842 Z M16.6306421,16.7806421 L16.6306421,484.129358 L405.833951,484.129358 L405.833951,16.7806421 L16.6306421,16.7806421 Z M8.46782107,0.455 L413.996772,0.455 C418.504973,0.455 422.159593,4.10961948 422.159593,8.61782107 L422.159593,492.292179 C422.159593,496.800381 418.504973,500.455 413.996772,500.455 L8.46782107,500.455 C3.95961948,500.455 0.305,496.800381 0.305,492.292179 L0.305,8.61782107 C0.305,4.10961948 3.95961948,0.455 8.46782107,0.455 Z M194.902522,296.040076 C167.814886,297.83614 143.448319,313.139533 130.067315,336.759748 L115.862668,328.712724 C131.952377,300.311089 161.251448,281.909843 194.362466,279.732318 C213.549653,279.732318 223.69432,285.706812 235.991197,300.174023 C235.119711,299.148723 240.138658,305.103559 241.419953,306.563178 C254.44525,321.401275 268.251882,327.838544 298.411226,327.838544 L298.411226,344.164186 C263.485676,344.164186 245.233411,335.654164 229.150866,317.333326 C227.750738,315.738335 222.629933,309.663038 223.535238,310.727526 C214.071495,299.597482 208.053963,296.05795 194.902522,296.040076 Z M47.4704738,64.1250044 C41.438117,64.1250044 36.5479256,59.2348129 36.5479256,53.2024561 C36.5479256,47.1700992 41.438117,42.2799078 47.4704738,42.2799078 C53.5028307,42.2799078 58.3930221,47.1700992 58.3930221,53.2024561 C58.3930221,59.2348129 53.5028307,64.1250044 47.4704738,64.1250044 Z M101.453931,64.202578 C95.4215737,64.202578 90.5313822,59.3123866 90.5313822,53.2800298 C90.5313822,47.2476729 95.4215737,42.3574815 101.453931,42.3574815 C107.486287,42.3574815 112.376479,47.2476729 112.376479,53.2800298 C112.376479,59.3123866 107.486287,64.202578 101.453931,64.202578 Z M155.577489,64.202578 C149.545132,64.202578 144.65494,59.3123866 144.65494,53.2800298 C144.65494,47.2476729 149.545132,42.3574815 155.577489,42.3574815 C161.609846,42.3574815 166.500037,47.2476729 166.500037,53.2800298 C166.500037,59.3123866 161.609846,64.202578 155.577489,64.202578 Z" id="Shape"></path>
        </g>
    </g>
</svg>
