<svg version="1.1"
   xmlns="http://www.w3.org/2000/svg" xmlns:xlink="http://www.w3.org/1999/xlink"
   x="0px" y="0px" viewBox="0 0 500 432.1" style="enable-background:new 0 0 500 432.1;"
   xml:space="preserve">
<defs>
</defs>
<g>
  <path class="st0" d="M499.1,405.4c-2.5-6.4-9.8-9.6-16.2-7.1c-13.5,5.3-25.1,8.8-38.1,8.8c-16.4,0-30.4-5.7-45.2-11.7
    c-8.9-3.6-18.1-7.3-27.9-9.8l0,0l-71.5-18.5l-30.9-86.7l66.7-11.8c12.9-2.3,23.8-9.7,30-20.3c6.2-10.7,7.2-23.8,2.7-36.1
    l-34.3-95.5c-7.1-19.9-26.9-33.6-47.6-34.7c9.7-8.6,15.9-21.1,15.9-35c0-25.8-21-46.8-46.8-46.8C230,0,209,21,209,46.8
    c0,20.2,12.9,37.4,30.9,44L25.3,141.1c-6.7,1.6-10.9,8.3-9.3,15.1c1.6,6.7,8.3,10.9,15.1,9.3l247.5-58.1c13-3,27.7,5,32.2,17.5
    l34.3,95.6c2,5.4,1.6,10.8-0.8,15.1c-2.5,4.3-7,7.2-12.7,8.2l-78.1,13.8c-4.5,0.8-8.3,3.5-10.6,7.3c-2.3,3.9-2.7,8.6-1.1,12.8
    l28.2,79.1c-13-0.4-20.7-6.9-26.1-20.9l-28.9-79.3c-1.4-3.8-1.2-7.4,0.5-10.3c1.7-2.9,4.8-4.8,8.7-5.5l61.8-10.6
    c4.5-0.8,8.4-3.4,10.6-7.3c2.3-3.9,2.7-8.6,1.2-12.9L274,143.8c-2.3-6.5-9.5-9.9-16-7.6c-6.5,2.3-9.9,9.5-7.6,16l19.8,55.5
    l-50.3,8.6c-11.2,1.9-20.8,8.4-26.2,17.6c-5.4,9.3-6.2,20.8-2.3,31.5c0,0,29,79.6,29,79.7c0.2,0.6,0.5,1.1,0.7,1.6
    C134.3,324.3,41,300.1,33.9,298.3c-9.9-2.6-9-8-8.6-10.6c1.1-6.8-3.5-13.3-10.4-14.4c-6.8-1.1-13.3,3.5-14.4,10.4
    c-3,18.6,7.6,33.9,27.1,38.9c9.7,2.5,178.5,46.1,273.8,70.7c-1.8,0.7-3.5,1.4-5.3,2.1c-14.9,6-28.9,11.7-45.2,11.7
    s-30.4-5.7-45.3-11.7c-15.8-6.4-32.1-13-51.7-13s-36,6.6-51.7,13c-14.9,6-28.9,11.7-45.3,11.7c-14.5,0-27.5-4.6-38.5-9
    c-6.4-2.5-13.7,0.6-16.2,7.1c-2.5,6.4,0.6,13.7,7.1,16.2c13.2,5.2,28.8,10.7,47.7,10.7c21.2,0,38.2-6.9,54.6-13.5
    c14.2-5.7,27.6-11.1,42.4-11.1c14.8,0,28.2,5.4,42.4,11.1c16.4,6.6,33.4,13.5,54.6,13.5c21.2,0,38.2-6.9,54.6-13.5
    c14.2-5.7,27.6-11.1,42.4-11.1c14.8,0,28.2,5.4,42.4,11.1c16.4,6.6,33.4,13.5,54.6,13.5c17.9,0,33.3-5.1,47.2-10.5
    C498.5,419.1,501.7,411.8,499.1,405.4z M255.8,25.1c11.8,0,21.8,10,21.8,21.8c0,11.8-10,21.8-21.8,21.8c-12.2,0-21.8-9.6-21.8-21.8
    C234.1,35,244,25.1,255.8,25.1z"/>
</g>
</svg>
