<?xml version="1.0" encoding="UTF-8"?>
<svg viewBox="0 0 37 50" version="1.1" xmlns="http://www.w3.org/2000/svg" xmlns:xlink="http://www.w3.org/1999/xlink">
    <!-- Generator: Sketch 53.2 (72643) - https://sketchapp.com -->
    <title>Combined Shape</title>
    <desc>Created with Sketch.</desc>
    <g id="Page-1" stroke="none" stroke-width="1" fill="none" fill-rule="evenodd">
        <path d="M20.44,29.13 L35.7,29.13 C36.2,29.13 36.6,29.53 36.6,30.01 C36.6,30.49 36.2,30.88 35.7,30.88 L35.62,30.88 L33.9,48.46 C33.86,48.91 33.47,49.25 33.01,49.25 L23.13,49.25 C22.67,49.25 22.28,48.91 22.24,48.46 L20.52,30.88 L20.44,30.88 C19.94,30.88 19.54,30.49 19.54,30.01 C19.54,29.52 19.94,29.13 20.44,29.13 Z M33.83,30.88 L22.33,30.88 L23.95,47.51 L32.2,47.51 L33.83,30.88 Z M2.31,37.34 L2.31,46.63 C2.31,46.97 2.61,47.26 2.95,47.26 L2.95,47.27 L15.53,47.27 L15.53,47.26 C15.89,47.26 16.18,46.98 16.18,46.63 L16.18,37.34 C16.18,31.41 15.39,25.49 13.84,19.76 L11.15,9.85 C10.61,7.86 10.34,5.81 10.34,3.76 C10.34,3.41 10.51,3.08 10.79,2.87 L10.79,2.25 L7.34,2.25 L7.34,2.81 C7.28280237,2.8437986 7.73199087,3.18380397 7.75896323,3.76 C7.83573501,5.4000343 7.66560474,8.65118256 7.34,9.85 L4.65,19.76 C3.1,25.49 2.31,31.41 2.31,37.34 Z M13.38,9.27 L16.07,19.18 C17.67,25.1 18.48,31.21 18.48,37.33 L18.48,46.62 C18.48,48.2 17.15,49.49 15.53,49.49 L2.95,49.49 C1.32,49.49 1.42108547e-14,48.2 1.42108547e-14,46.62 L1.42108547e-14,37.33 C1.42108547e-14,31.2 0.81,25.09 2.42,19.18 L5.11,9.27 C5.52,7.75 5.77,6.18 5.83,4.62 C5.56,4.41 5.4,4.09 5.4,3.75 L5.4,1.12 C5.4,0.5 5.92,3.55271368e-15 6.55,3.55271368e-15 L11.94,3.55271368e-15 C12.57,3.55271368e-15 13.09,0.5 13.09,1.12 L13.09,3.75 C13.09,4.09 12.93,4.41 12.66,4.62 C12.73,6.19 12.97,7.76 13.38,9.27 Z" id="Combined-Shape" fill="#000000" fill-rule="nonzero"></path>
    </g>
</svg>
