<svg xmlns="http://www.w3.org/2000/svg" viewBox="0 0 488.3 405"><g id="bubbles_2_"><path class="st0" d="M277 25.2C226.3-3.3 163-7.6 108.4 12.1 72.6 25.1 40.1 49 20.1 81.7 1.8 111.2-5 148 3.8 181.7c8.8 37.4 34.7 68.9 66.4 89.8-6 17.3-11.8 34.6-17.4 52 20-10.4 39.7-21.2 59.6-31.8 24 7.7 49.3 11.4 74.4 10.5-6.6-19.3-8.1-40-5.1-60.1 4.8-27.9 19.9-53.4 40.7-72.3 35.1-32.8 84.9-46.7 132.2-43.4-8.8-43.3-39.3-80-77.6-101.2zM141 104c-3.5 17-26.4 25.2-39.7 13.8-15.4-10.9-11.1-37.9 7-43.3 17.9-6.8 38.1 11.1 32.7 29.5zm123.3-5c.2 19.5-25.9 31.8-40.5 18.5-15.2-10.9-10.9-37.4 6.9-42.9 15.9-6.2 34.9 7.2 33.6 24.4z"/><path class="st0" d="M478.9 217.8c-12.4-28-35.7-50.2-62.8-64-47.9-24.3-107.5-24.1-155.2.6-33.2 17-60.9 47.6-68.8 84.7-6.5 27.3-.7 56.8 13.8 80.6 21.6 35.8 60.6 58.6 101.1 65.9 29.4 6 59.7 2.5 88.2-5.9 17.1 6.7 32.4 17.5 49 25.3-4.2-14.3-8.8-28.6-13.7-42.7 18.6-13.2 35.5-29.7 45.6-50.5 15.2-28.6 16.2-64.3 2.8-94zm-166.6 10.7c-4.2 13.2-23.5 17.3-32.8 7.2-10.3-9.3-6.3-28.9 7.2-33 14.9-6.4 32.2 10.8 25.6 25.8zm97.5 1.9c-5.1 11.9-23 14.7-31.8 5.4-4.3-3.8-5.4-9.7-7-14.9 2.2-9.3 8.5-19 19-19.4 14.7-1.9 27.5 15.8 19.8 28.9z"/></g></svg>
