<?xml version="1.0" encoding="UTF-8"?>
<svg viewBox="0 0 501 487" version="1.1" xmlns="http://www.w3.org/2000/svg" xmlns:xlink="http://www.w3.org/1999/xlink">
    <!-- Generator: Sketch 52.3 (67297) - http://www.bohemiancoding.com/sketch -->
    <title>Combined Shape</title>
    <desc>Created with Sketch.</desc>
    <g id="Page-1" stroke="none" stroke-width="1" fill="none" fill-rule="evenodd">
        <g id="scan" transform="translate(0.556158, 0.598008)" fill="#000000">
            <g id="Group">
                <path d="M79.6947093,224.594181 L420.208467,224.594181 L420.208467,260.819049 L79.6947093,260.819049 L79.6947093,224.594181 Z M217.349207,-1.42108547e-14 L217.349207,28.9798943 L28.9798943,28.9798943 L28.9798943,217.349207 L1.42108547e-14,217.349207 L1.42108547e-14,28.9798943 L1.42108547e-14,-1.42108547e-14 L28.9798943,-1.42108547e-14 L217.349207,-1.42108547e-14 Z M282.553969,-1.42108547e-14 L470.923282,-1.42108547e-14 L499.903177,-1.42108547e-14 L499.903177,28.9798943 L499.903177,217.349207 L470.923282,217.349207 L470.923282,28.9798943 L282.553969,28.9798943 L282.553969,-1.42108547e-14 Z M282.553969,485.41323 L282.553969,456.433335 L470.923282,456.433335 L470.923282,268.064022 L499.903177,268.064022 L499.903177,456.433335 L499.903177,485.41323 L470.923282,485.41323 L282.553969,485.41323 Z M217.349207,485.41323 L28.9798943,485.41323 L1.42108547e-14,485.41323 L1.42108547e-14,456.433335 L1.42108547e-14,268.064022 L28.9798943,268.064022 L28.9798943,456.433335 L217.349207,456.433335 L217.349207,485.41323 Z" id="Combined-Shape"></path>
            </g>
        </g>
    </g>
</svg>
