<svg id="Calque_1" data-name="Calque 1" xmlns="http://www.w3.org/2000/svg" viewBox="0 0 488.59 395.48"><defs></defs><title>weibo</title><path class="cls-1" d="M413.5 93.8l-.27-.34-.2-.28c-1.75-2.2-7.9-9.79-12.39-13.12-17.56-16-47.83-13.81-53.35-12.57s-14.49 6.61-12.15 19.52 13.92 11.45 24.63 10.65c9.35-.74 18.62 5.68 20.83 7.31a32.82 32.82 0 0 1 5 5.65s.26.38.68 1.07c1.85 3.06 6.71 12.12 5.35 20.77-1.67 10.61-4 22.06 8.74 25.39s18.73-5.2 20.39-10.61 6.7-34.67-7.26-53.44z"/><path class="cls-1" d="M460.85 49.02s-7.71-10.64-12.34-14.67a18.23 18.23 0 0 0-1.57-1.35C390.61-15 333.22 3.28 328.41 4c-5.25.78-13 5.48-12.47 20.75S334.6 40.8 334.6 40.8c40.63-11.94 71.37 6.26 87.06 19.36 0 0 45.82 41.64 24.32 100.58 0 0-.37 18.16 14.83 19.65s20.39-5.93 21.5-11.12c1.01-4.81 22.9-60.95-21.46-120.25zM384.21 196.86s-23.18-8.15-24.75-10.75-.56-8.43 2-13.62 4.36-20.57 3.8-26.5-1-19.46-21.69-29.56-65.06.83-70.71 3.24-28.41 9.79-28.41 9.79-8.19 4.45-5.36-8.89 15.76-66.29-32.74-65.48S98.02 102.46 77 123.04s-91.35 90.95-74.38 168.15c0 0 7.68 22.64 20.62 36s30.72 33.55 71.55 48.51 78.82 19.76 121.26 19.76 103.89-13.34 147.54-44.87 61.85-64.27 63.46-86.91-7.68-52.41-42.84-66.82zM206.43 366.19c-80.77 11.27-152.22-22.48-159.6-75.37s52.11-104.91 132.88-116.17 152.22 22.48 159.6 75.37-52.12 104.91-132.88 116.17z"/><path class="cls-1" d="M262.24 262.07c-7.56-36.08-47.83-58.17-89.95-49.34s-70.15 45.23-62.55 81.3 47.83 58.17 89.95 49.35 70.12-45.23 62.55-81.31zm-101.75 35.19a26.69 26.69 0 1 1 26.65-26.69 26.69 26.69 0 0 1-26.65 26.69zm62.83 2.2a12.79 12.79 0 1 1 12.82-12.77 12.79 12.79 0 0 1-12.82 12.77z"/></svg>
