<?xml version="1.0" encoding="UTF-8"?>
<svg viewBox="0 0 500 418" version="1.1" xmlns="http://www.w3.org/2000/svg" xmlns:xlink="http://www.w3.org/1999/xlink">
    <!-- Generator: Sketch 52.3 (67297) - http://www.bohemiancoding.com/sketch -->
    <title>Rectangle 5</title>
    <desc>Created with Sketch.</desc>
    <g id="Page-1" stroke="none" stroke-width="1" fill="none" fill-rule="evenodd">
        <path d="M41.6666667,125.407211 L41.6666667,375.407211 L458.333333,375.407211 L458.333333,125.407211 L41.6666667,125.407211 Z M41.6666667,83.7405439 L458.333333,83.7405439 C481.345198,83.7405439 500,102.395346 500,125.407211 L500,375.407211 C500,398.419075 481.345198,417.073877 458.333333,417.073877 L41.6666667,417.073877 C18.6548021,417.073877 5.96615595e-14,398.419075 5.68434189e-14,375.407211 L5.68434189e-14,125.407211 C5.40252782e-14,102.395346 18.6548021,83.7405439 41.6666667,83.7405439 Z M125,125.407211 L125,375.407211 L166.666667,375.407211 L166.666667,125.407211 L125,125.407211 Z M333.333333,125.407211 L333.333333,375.407211 L375,375.407211 L375,125.407211 L333.333333,125.407211 Z M250,42.6134711 C219.154902,42.6134711 192.223909,59.5887713 177.815183,84.8197316 L322.184817,84.8197316 C307.776091,59.5887713 280.845098,42.6134711 250,42.6134711 Z M125,125.407211 C125,56.3716168 180.964406,0.407210553 250,0.407210553 C319.035594,0.407210553 375,56.3716168 375,125.407211 L125,125.407211 Z" id="Rectangle-5" fill="#005589" fill-rule="nonzero"></path>
    </g>
</svg>
