<svg viewBox="0 0 499 501" version="1.1" xmlns="http://www.w3.org/2000/svg" xmlns:xlink="http://www.w3.org/1999/xlink">
    <defs></defs>
    <g id="Page-1" stroke-width="1" fill-rule="evenodd">
        <g id="welcomegift" fill-rule="nonzero">
            <path d="M252.871837,188.31456 C247.959821,190.71201 242.139822,187.608943 241.39298,182.194343 C237.266877,152.280098 249.975581,103.703858 270.576138,69.4442372 C295.570558,27.8774305 327.995068,14.2195176 356.133859,44.8001039 C367.632078,57.2961023 371.307701,71.640477 367.603586,86.728083 C362.124886,109.043927 341.250435,131.499426 309.831392,154.013205 C297.366575,162.945053 284.048939,171.270843 270.73466,178.7833 C262.738228,183.295212 256.495301,186.546025 252.871837,188.31456 Z M262.84118,164.793735 C275.685167,157.546636 288.525796,149.519057 300.47536,140.95642 C328.981733,120.529758 347.71185,100.381008 352.003987,82.8982699 C354.426171,73.0322279 352.165493,64.2097759 344.31361,55.6765307 C325.467398,35.1949035 304.637874,43.9687543 284.341968,77.7217295 C268.111766,104.713261 257.124415,141.856641 256.680093,168.212512 C258.578135,167.177873 260.638683,166.036473 262.84118,164.793735 Z M208.352835,57.0073258 C183.428082,16.0093384 157.238264,5.04575092 133.814772,30.4144465 C124.000108,41.0441694 121.23604,52.1839101 124.461587,64.5949519 C129.974276,85.8063073 152.632,109.917886 186.910563,134.344527 C201.331727,144.620937 216.820563,154.254186 232.312802,162.953362 C235.751583,164.884301 239.033269,166.680001 242.124428,168.331585 C242.185992,136.410559 228.595391,90.3037057 208.352835,57.0073258 Z M245.838556,188.320521 C244.729631,187.781605 242.702173,186.765668 239.886648,185.306229 C235.222846,182.888727 230.033338,180.095339 224.44826,176.959215 C208.487681,167.997058 192.523699,158.068293 177.588899,147.425869 C140.437982,120.952411 115.658918,94.5833751 108.915201,68.6353531 C104.318012,50.9465981 108.479369,34.1755044 122.013185,19.5177734 C154.706823,-15.8909073 192.434334,-0.0974080565 222.078232,48.6629615 C246.737381,89.2240644 262.070371,146.796048 257.308703,182.168438 C256.578788,187.59066 250.759365,190.711943 245.838556,188.320521 Z M16.4378436,254.878945 L177.173366,254.878945 C181.608997,254.878945 185.204787,258.474735 185.204787,262.910367 C185.204787,267.345999 181.608997,270.941789 177.173366,270.941789 L8.40642182,270.941789 C3.97079003,270.941789 0.375,267.345999 0.375,262.910367 L0.375,181.09695 C0.375,176.661318 3.97079003,173.065528 8.40642182,173.065528 L490.291731,173.065528 C494.727363,173.065528 498.323153,176.661318 498.323153,181.09695 L498.323153,262.910367 C498.323153,267.345999 494.727363,270.941789 490.291731,270.941789 L321.524787,270.941789 C317.089155,270.941789 313.493365,267.345999 313.493365,262.910367 C313.493365,258.474735 317.089155,254.878945 321.524787,254.878945 L482.260309,254.878945 L482.260309,189.128372 L16.4378436,189.128372 L16.4378436,254.878945 Z M194.19998,189.128372 L194.19998,484.256352 L304.284002,484.256352 L304.284002,189.128372 L194.19998,189.128372 Z M320.346845,484.256352 L449.920451,484.256352 L449.920451,262.910367 C449.920451,258.474735 453.516241,254.878945 457.951872,254.878945 C462.387504,254.878945 465.983294,258.474735 465.983294,262.910367 L465.983294,492.287774 C465.983294,496.723406 462.387504,500.319196 457.951872,500.319196 L40.7462803,500.319196 C36.3106485,500.319196 32.7148585,496.723406 32.7148585,492.287774 L32.7148585,262.910367 C32.7148585,258.474735 36.3106485,254.878945 40.7462803,254.878945 C45.1819121,254.878945 48.7777022,258.474735 48.7777022,262.910367 L48.7777022,484.256352 L178.137136,484.256352 L178.137136,181.09695 C178.137136,176.661318 181.732926,173.065528 186.168558,173.065528 L312.315423,173.065528 C316.751055,173.065528 320.346845,176.661318 320.346845,181.09695 L320.346845,484.256352 Z" id="Shape"></path>
        </g>
    </g>
</svg>
