<svg version="1.1"
   xmlns="http://www.w3.org/2000/svg" xmlns:xlink="http://www.w3.org/1999/xlink"
   x="0px" y="0px" viewBox="0 0 500 451.4" style="enable-background:new 0 0 500 451.4;"
   xml:space="preserve">
<defs>
</defs>
<g id="XMLID_1_">
  <path id="XMLID_10_" class="st0" d="M267.4,451.4L267.4,451.4c-34.5,0-71.2-9.1-109-27C134.4,413,14.5,351.9,1.2,262.6
    c-6-40.3,10.9-79,50.3-115C163.1,45.7,295.7,0,377.6,0c30.2,0,54,5.9,70.7,17.5c65.2,45.4,75.7,202.8-9,330.1
    C393.5,416.5,335.6,451.4,267.4,451.4z M377.6,24C302.8,24,174,68.2,67.6,165.3c-33.1,30.3-47.5,61.8-42.8,93.7
    c9,60,83,114.9,143.7,143.7c34.6,16.4,67.8,24.7,98.7,24.7c59.8,0,110.9-31.3,152-93.1c81.1-122,65.4-262.2,15.2-297.1
    C422.2,28.6,402.5,24,377.6,24z"/>
  <path id="XMLID_8_" class="st0" d="M147.1,282.3c-11.6,0-50-5.9-50-21.3c0-5.5,4.9-10.7,10.6-10.7c1.9,0,3.5,0.5,5,1.4
    c11.8,6.2,21.3,9.3,34.8,9.3c8.1,0,24.9-1.4,24.9-12.6c0-21.6-68.9-10.1-68.9-54c0-25.6,25.6-31.7,46.6-31.7
    c10.8,0,28.4,2.4,37.9,7.1c4,1.9,6.7,5.2,6.7,9.7c0,5.9-5,10.9-10.9,10.9c-1.4,0-2.7-0.4-4.1-0.9c-9.5-3.5-18.9-5.5-29.3-5.5
    c-7.2,0-23.9,0.2-23.9,10.7c0,10.9,27.9,17.1,35.5,19.4c17.7,5.4,33.4,12.3,33.4,33.3C195.4,274.6,169.9,282.3,147.1,282.3z"/>
  <path id="XMLID_5_" class="st0" d="M268,236.5h-31.4v33.6c0,6.4-5.2,11.4-11.6,11.4c-6.4,0-11.4-5-11.4-11.4v-93.9
    c0-6.4,5-11.4,11.4-11.4h43c29.9,0,42.2,17.3,42.2,36C310.2,219.5,297.9,236.5,268,236.5z M271.2,185.9h-34.6v29.3
    c0,0,20.8,0,34.6,0c11.3,0,15.7-7.4,15.7-14.4C287,193.9,282.5,185.9,271.2,185.9z"/>
  <path id="XMLID_2_" class="st0" d="M401.4,281.5c-4.3,0-7.9-2.4-9.7-6.2l-9.5-21.1h-50.1l-9.5,21.1c-1.7,3.8-5.5,6.2-9.7,6.2
    c-6.1,0-10.9-5-10.9-10.9c0-1.4,0.3-2.9,1-4.3l44.3-96.8c1.6-3.6,5.4-6.2,9.5-6.2c4.2,0,8.1,2.2,10,6.2l44.1,96.8
    c0.5,1.4,0.9,2.9,0.9,4.5C412,276.6,407.4,281.5,401.4,281.5z M357.1,198.5l-16.1,36h32.4L357.1,198.5z"/>
</g>
</svg>
