<svg version="1.1"
   xmlns="http://www.w3.org/2000/svg" xmlns:xlink="http://www.w3.org/1999/xlink"
   x="0px" y="0px" viewBox="0 0 500 528" style="enable-background:new 0 0 500 528;"
   xml:space="preserve">
<defs>
</defs>
<g>
  <g>
    <g>
      <path class="st0" d="M438.4,269.5c-3.6-7.7-12.1-13.1-20.6-13.1h-84.6V154.1c0-8-6.5-14.5-14.5-14.5c-8,0-14.5,6.5-14.5,14.5
        v116.8c0,8,6.5,14.5,14.5,14.5h84.8l-91.6,93.7c-5.6,5.7-5.5,14.9,0.2,20.5c2.8,2.8,6.5,4.1,10.1,4.1c3.8,0,7.5-1.5,10.4-4.4
        l101.9-104.3c6.2-6.4,8-16.8,4.2-24.9L438.4,269.5z"/>
      <path class="st0" d="M266.8,332.1c-8,0-14.5,6.5-14.5,14.5v140.9c0,6.3-5.1,11.4-11.4,11.4c-6.3,0-11.4-5.1-11.4-11.4l0-340.4
        c0-12.2-5.1-23.4-13.9-30.9c-8.8-7.5-20.8-10.6-32.7-8.6L12.1,136c-7.9,1.3-13.2,8.8-11.9,16.7c1.3,7.9,8.8,13.3,16.7,11.9
        l170.8-28.3c3.6-0.6,6.9,0.2,9.2,2.1c2.3,2,3.6,5.1,3.6,8.8l0,340.4c0,22.3,18.1,40.4,40.4,40.4c22.3,0,40.4-18.1,40.4-40.4
        V346.6C281.3,338.6,274.8,332.1,266.8,332.1z"/>
    </g>
  </g>
  <path class="st0" d="M499.8,68c-1.3-7.9-8.8-13.2-16.7-12c-1.3,0.2-126.6,20.8-157.9,26.1c-4.4,0.7-9,1.4-13.6,2
    c2-3,3.8-6.2,5.2-9.6c5.6-13.5,5.6-28.3,0-41.6c-8.5-20-28-32.9-49.6-32.9c-7.3,0-14.4,1.5-21.1,4.3
    c-27.7,11.8-40.8,43.7-29.2,71.1c3.9,9.3,10.2,17,18,22.6c16.4,12.5,35.6,16.6,55.8,16.6c12.9,0,26.2-1.7,39.4-3.9
    c31.3-5.2,156.5-25.8,157.9-26.1C495.7,83.4,501.1,75.9,499.8,68z M257.4,31c3.1-1.3,6.4-2,9.8-2c10,0,19,6,22.9,15.3
    c2.6,6,2.6,12.8,0,19.1c-2.6,6.3-7.5,11.3-13.8,13.9c-2.3,1-4.7,1.6-7.1,1.9c-0.9,0.1-1.8,0.1-2.7,0.1c-5.2,0-10.1-1.6-14.1-4.4
    c-1-0.8-2-1.6-3-2.4c-2.4-2.3-4.5-5.1-5.9-8.4C238.1,51.4,244.3,36.6,257.4,31z"/>
</g>
</svg>
