<svg xmlns="http://www.w3.org/2000/svg" viewBox="0 0 500 500"><g><path d="M333 408.8c2.8-.8 5.5-1.7 8.3-2.6.5-10 1.1-28.1-1.4-28-.8 0-4.5 21.7-6.9 30.6zM19.4 308.8c-4.4-10.1-7-21.1-7-32.2 0-3.8.3-7.4.9-11.2.6-3.8 1.6-7.6 3.1-11.2 2.9-7.2 7.9-13.8 14.2-18.5 6.3-4.7 13.8-7.7 21.7-8.7 3.9-.4 8-.4 12 .5 3.9.8 7.6 2.2 11.2 4.1 7 3.6 13.3 9.5 16.6 17.3 1.6 3.8 2.5 8.1 2.4 12.3-.1 4.2-1.1 8.3-2.7 12.1-3.2 7.5-9.4 14.2-17.5 17.1-4 1.5-8.3 2-12.6 1.7-4.3-.4-8.6-1.7-12.3-4.3-.9-.6-2.9-2.1-4.8-4.5s-3.7-5.9-4.2-9.8c-.6-3.9.6-8 2.2-10.6 1.6-2.6 3.3-3.9 3.5-4.1 2.9-2.2 3.7-.5 3.1 1-.4 1.2-2 3-3 5.8-1 2.7-1.1 6.2.1 9.2 2.3 6.3 8.4 9.2 9.5 9.6 6 2.5 13.3 2 19-1.2 5.7-3.1 9.9-8.8 11.8-14.9 2-6.2 1.4-13-1.7-18.6-3.1-5.6-8.3-9.8-14.2-12.5-11.8-5.8-26.1-2.7-36 5.3-4.9 4-8.7 9.3-10.9 15.2-2.2 5.9-2.9 12.5-2.9 19.1-.2 13.4 3.8 26.6 10.6 38.4 6.8 11.8 15.9 22.5 25.7 32.1 10 9.5 21.2 18 32.8 25.7 4.1 2.7 8.2 5.3 12.4 7.8-.6-5.4-.6-9.8.7-10.1 3.5-.8 6.5-6.5 6.3-9.1 0 0 .1 0 .2.1-1.7-4-4.3-10.7-4.3-10.7s-3.3 1.7-7.1-1.4c-3.8-3.1 5.6-7.6 5.7-7.8 2.8-7.4 8.3-15.2 25-16.2 17.1-1.1 36.9 8.6 41.2 7.4 11.2-3.1 15.2-14.2 17.7-20 0 0 3.9-8.5-3.9-12.6 4.8-1.1 9.9 4.7 9.9 10.5l3-.7s3.1-6.5-6.6-13.4c5.9-1.3 14 8.2 12.8 13.9-1.2 5.7 17.4 15.4 12.3 23.6-.2.4-1.6 1.8-2 2-2 .8-13.7-3.2-15.5-2.8-10.4 2-8 21.1-23.8 35.1-2.6 2.3-5 4.7-4.4 9.6.7 6.1 4.2 26.3 5.4 33.1 14.9 3.9 30.3 6.8 46 8.3 18.4-23.8 19.9-95.8 19.6-114.6-.1-6.3-.1-33.5.2-67.9-15.6 11.6-13.3 17.1-32.2 24-50.9 18.5-108.1-24.7-63.3-13.9 34.8 8.4 78-5.6 95.5-12.2.1-10.6.2-21.7.3-33.2-18.7 13.5-15.5 19.6-36.9 27.4-56.5 20.6-119.8-27.4-70.2-15.4 39.4 9.5 88.5-6.9 107.1-14 .1-11.1.3-22.4.5-33.5-22 15.4-17.8 22.3-41.8 31-62 22.5-131.5-30.1-77-16.9 44.2 10.7 99.6-8.4 118.9-15.9.2-10.9.5-21.7.7-32-22.8 15.8-18.3 22.7-42.6 31.6-62 22.5-131.5-30.1-77-16.9C167.7 158 224 138.3 242.5 131c.3-11.1.7-21.6 1.1-31.2-22.2 15.2-17.7 21.7-40.6 30.1-58.1 21.1-123.1-28.2-72.1-15.8 42.6 10.3 96.3-8.9 112.8-15.5.6-12.9 1.3-24 2.1-32.2-22.7 15-17.6 21.2-39.6 29.2-54.1 19.7-114.8-26.2-67.2-14.7 41.4 10 94.1-9.9 106.9-15.2 1-9.7 2.1-15.2 3.5-14.7 1.3.4 2.3 5.5 3.1 13.9 7.6 3.2 64.7 26.7 109 16 47.6-11.5-13.1 34.4-67.2 14.7-22.6-8.2-16.5-14.6-41.7-30.6.8 8.1 1.4 19.3 1.8 32.6 13 5.4 70.2 27.3 115.1 16.4 51-12.3-14.1 36.9-72.1 15.8-23.7-8.6-18-15.4-43-31.7.3 9.7.6 20.4.7 31.7 14.9 6.1 75 28.7 122.4 17.3 54.5-13.2-15 39.4-77 16.9-25.2-9.2-19.4-16.3-45.3-33.4.2 10.5.3 21.5.3 32.6 15.5 6.3 75 28.5 122 17.2 54.5-13.2-15 39.4-77 16.9-25-9.1-19.4-16.2-45-33.2.1 11.4.1 22.9.1 34.3 14.8 6 68.3 25.7 110.7 15.4 49.6-12-13.7 35.9-70.2 15.4-22.7-8.2-17.8-14.7-40.5-29.9 0 11.7 0 23.2-.1 34.1 13.8 5.6 61.6 22.9 99.5 13.8 44.8-10.8-12.4 32.4-63.3 13.9-20.4-7.4-16.1-13.2-36.2-26.8-.1 32-.4 58.8-.4 70.8 0 38.8 5.7 102.1 16.3 115.1 18.5-1.3 36.5-4.3 53.9-8.9 1.3-6.8 4.7-27 5.4-33.1.6-4.9-1.8-7.2-4.4-9.6-15.8-14-13.4-33-23.8-35.1-1.8-.4-13.5 3.7-15.5 2.8-.5-.2-1.8-1.7-2-2-5.1-8.2 13.5-17.9 12.3-23.6-1.2-5.7 6.9-15.3 12.8-13.9-9.7 6.9-6.6 13.4-6.6 13.4l3 .7c0-5.7 5.1-11.6 9.9-10.5-7.8 4.2-3.9 12.6-3.9 12.6 2.6 5.8 6.5 16.9 17.7 20 4.4 1.2 24.1-8.4 41.2-7.4 16.7 1 22.2 8.8 25 16.2.1.2 9.5 4.7 5.7 7.8-3.8 3.1-7.1 1.4-7.1 1.4s-2.7 6.6-4.3 10.7c.1 0 .2-.1.2-.1-.2 2.6 2.8 8.3 6.3 9.1 1.3.3 1.3 4.7.7 10.1 4.2-2.5 8.3-5.1 12.4-7.8 11.6-7.7 22.8-16.2 32.8-25.7 9.8-9.7 19-20.4 25.7-32.1 6.8-11.8 10.9-24.9 10.6-38.4 0-6.6-.7-13.2-2.9-19.1-2.2-5.9-6-11.2-10.9-15.2-9.9-8-24.2-11.1-36-5.3-5.9 2.7-11.2 6.9-14.2 12.5-3.1 5.6-3.7 12.3-1.7 18.6 1.9 6.2 6.1 11.8 11.8 14.9 5.7 3.1 12.9 3.7 19 1.2 1.2-.4 7.3-3.4 9.5-9.6 1.2-3 1.1-6.5.1-9.2-1-2.7-2.6-4.6-3-5.8-.6-1.5.3-3.2 3.1-1 .2.2 1.9 1.5 3.5 4.1 1.6 2.6 2.8 6.7 2.2 10.6-.5 3.9-2.3 7.4-4.2 9.8-1.9 2.4-3.9 3.9-4.8 4.5-3.7 2.6-8.1 4-12.3 4.3-4.2.4-8.5-.2-12.6-1.7-8.1-3-14.3-9.6-17.5-17.1-1.6-3.8-2.6-7.9-2.7-12.1-.1-4.2.7-8.5 2.4-12.3 3.3-7.8 9.7-13.7 16.6-17.3 3.5-1.8 7.2-3.2 11.2-4.1 4-.9 8.1-.9 12-.5 7.9.9 15.4 3.9 21.7 8.7 6.3 4.7 11.3 11.3 14.2 18.5 1.5 3.6 2.5 7.4 3.1 11.2.6 3.7.9 7.4.9 11.2.1 11.2-2.6 22.2-7 32.3 6-7.6 11.7-15.6 16.9-23.8 1.6-11.4 2.5-23.1 2.5-35C500 111.9 388.1 0 250 0 111.9 0 0 111.9 0 250c0 11.9.9 23.5 2.5 35 5.2 8.2 10.9 16.1 16.9 23.8z"/><path d="M382.3 373.4c-.3 2-1.7 10.1-3.3 17.4 2.2-1.1 4.5-2.2 6.7-3.3 1.1-.6 2.1-1.2 3.2-1.7.6-.3 1.2-.7 1.8-1 .5-2.9.7-5.5.3-7.1-1.4-5.4-5.8-4.5-8.7-4.3zM351.2 402.7c.2-.1.2-.2.4-.2.1 0 .4-.1.9-.3 6.8-2.5 13.6-5.3 20.1-8.3 1.2-5.2 2.3-11 2.3-13.3 0-2.6-.9-7.1-3.5-10 0 0-14 2.8-19.5 1.7 0 0-3 2.8-2.7 9.3.1 2.7-.5 14.3-1.2 22.4 1-.4 2.1-.9 3.2-1.3zM158.8 406.1c2.7.9 5.5 1.8 8.3 2.6-2.4-8.8-6.1-30.5-6.8-30.7-2.6.1-2 18.2-1.5 28.1zM109 377.7c-.4 1.6-.2 4.2.3 7.1.7.4 1.4.8 2.2 1.2.9.5 1.8 1 2.8 1.5 2.2 1.2 4.5 2.2 6.8 3.3-1.6-7.3-3-15.3-3.3-17.4-3-.2-7.4-1.1-8.8 4.3z"/><path d="M250 450.4c-97.1 0-183.2-47.2-236.6-119.8C46.9 429.1 140.1 500 250 500c109.8 0 203.1-70.9 236.6-169.4-53.4 72.7-139.5 119.8-236.6 119.8z"/><path d="M148.1 372.2c-5.5 1.1-19.5-1.7-19.5-1.7-2.6 2.9-3.5 7.5-3.5 10 0 2.4 1.1 8.1 2.3 13.3 6.6 3 13.3 5.8 20.1 8.3.5.1.8.2.9.3l.4.2 3.3 1.2c-.7-8.1-1.3-19.7-1.2-22.4.2-6.4-2.8-9.2-2.8-9.2z"/></g></svg>
