<?xml version="1.0" encoding="UTF-8"?>
<svg viewBox="0 0 45 45" version="1.1" xmlns="http://www.w3.org/2000/svg" xmlns:xlink="http://www.w3.org/1999/xlink">
    <!-- Generator: Sketch 53.2 (72643) - https://sketchapp.com -->
    <title>Combined Shape</title>
    <desc>Created with Sketch.</desc>
    <g id="Icons---Kids" stroke="none" stroke-width="1" fill="none" fill-rule="evenodd">
        <g id="Icons/Kids_icons_board" transform="translate(-496.000000, -293.000000)" fill="#005589" fill-rule="nonzero">
            <g id="Combined-Shape-3" transform="translate(496.000000, 293.000000)">
                <path d="M0,13.75 L6.25,5.83333333 L6.25,2.08333333 C6.25,0.932740105 7.1827401,0 8.33333333,0 L36.25,0 C37.4005932,0 38.3333333,0.932740105 38.3333333,2.08333333 L38.3333333,5.83333333 L45,13.75 L45,42.9166667 C45,44.0672599 44.0672599,45 42.9166667,45 L2.08333333,45 C0.932740105,45 0,44.0672599 0,42.9166667 L0,13.75 Z M2.08333333,13.75 L10.3573667,13.75 L7.11470877,7.5 L7.01754386,7.5 L2.08333333,13.75 Z M7.91666667,5.83333333 L8.33333333,5.83333333 L36.6666667,5.83333333 L36.6666667,2.08333333 C36.6666667,1.85321469 36.4801186,1.66666667 36.25,1.66666667 L8.33333333,1.66666667 C8.10321469,1.66666667 7.91666667,1.85321469 7.91666667,2.08333333 L7.91666667,5.83333333 Z M37.5579399,7.5 L8.8658724,7.5 L11.8484103,13.0038739 L12.2480205,13.75 L42.8210978,13.75 L37.5579399,7.5 Z M11.25,15.4166667 L1.66666667,15.4166667 L1.66666667,42.9166667 C1.66666667,43.1467853 1.85321469,43.3333333 2.08333333,43.3333333 L42.9166667,43.3333333 C43.1467853,43.3333333 43.3333333,43.1467853 43.3333333,42.9166667 L43.3333333,15.4166667 L11.25,15.4166667 Z M11.25,15.4166667 L12.9166667,15.4166667 L12.9166667,43.3333333 L11.25,43.3333333 L11.25,15.4166667 Z M28.125,37.0833333 C24.0979237,37.0833333 20.8333333,33.818743 20.8333333,29.7916667 C20.8333333,25.7645904 24.0979237,22.5 28.125,22.5 C32.1520763,22.5 35.4166667,25.7645904 35.4166667,29.7916667 C35.4166667,33.818743 32.1520763,37.0833333 28.125,37.0833333 Z" id="Combined-Shape"></path>
            </g>
        </g>
    </g>
</svg>
