<svg version="1.1"
	 xmlns="http://www.w3.org/2000/svg" xmlns:xlink="http://www.w3.org/1999/xlink"
	 x="0px" y="0px" viewBox="0 0 500 401.6" style="enable-background:new 0 0 500 401.6;"
	 xml:space="preserve">
<defs>
</defs>
<g>
	<g id="XMLID_3_">
		<g>
			<path d="M129,306.5c-26.7,0-48.5-21.7-48.5-48.4s21.7-48.4,48.5-48.4s48.4,21.7,48.4,48.4S155.7,306.5,129,306.5z M129,221.6
				c-20.1,0-36.4,16.3-36.4,36.4s16.3,36.4,36.4,36.4s36.4-16.3,36.4-36.4S149.1,221.6,129,221.6z"/>
		</g>
		<g>
			<path d="M70.1,401.6c-3.3,0-6-2.7-6-6c0-39.6,5-78.3,64.9-78.3c12,0,22,1.5,30.4,4.5c3.1,1.1,4.7,4.6,3.6,7.7
				c-1.1,3.1-4.6,4.8-7.7,3.6c-7-2.5-15.9-3.8-26.3-3.8c-49.1,0-52.9,27.5-52.9,66.2C76.1,398.9,73.4,401.6,70.1,401.6z"/>
		</g>
	</g>
	<g id="XMLID_2_">
		<g>
			<path d="M371,306.5c-26.7,0-48.4-21.7-48.4-48.4s21.7-48.4,48.4-48.4s48.5,21.7,48.5,48.4S397.7,306.5,371,306.5z M371,221.6
				c-20.1,0-36.4,16.3-36.4,36.4s16.3,36.4,36.4,36.4s36.4-16.3,36.4-36.4S391.1,221.6,371,221.6z"/>
		</g>
		<g>
			<path d="M429.9,401.6c-3.3,0-6-2.7-6-6c0-38.8-3.8-66.2-52.9-66.2c-10.4,0-19.3,1.3-26.4,3.8c-3.1,1.1-6.6-0.5-7.7-3.6
				c-1.1-3.1,0.5-6.6,3.6-7.7c8.5-3,18.4-4.5,30.4-4.5c59.9,0,64.9,38.7,64.9,78.3C435.9,398.9,433.2,401.6,429.9,401.6z"/>
		</g>
	</g>
	<g>
		<path d="M62.5,228.4c-1.6,0-3.2-0.6-4.4-1.9l-47.9-50.2c-0.3-0.3-0.6-0.7-0.8-1.1c-5-6.1-9.4-12.4-9.4-21.9V96.9
			c0-17.1,14-31.1,31.1-31.1h94.1c17.1,0,31.1,13.9,31.1,31.1v56.4c0,17.1-14,31.1-31.1,31.1H68.5v37.9c0,2.5-1.5,4.7-3.8,5.6
			C64,228.2,63.2,228.4,62.5,228.4z M19.6,168.8l36.8,38.6v-28.9c0-3.3,2.7-6,6-6h62.7c10.5,0,19.1-8.6,19.1-19.1V96.9
			c0-10.5-8.6-19.1-19.1-19.1H31.1C20.6,77.9,12,86.4,12,96.9v56.4c0,5.4,2.2,9,7.3,14.9C19.4,168.5,19.5,168.6,19.6,168.8z"/>
	</g>
	<g>
		<path d="M437.5,228.4c-0.8,0-1.5-0.1-2.2-0.4c-2.3-0.9-3.8-3.1-3.8-5.6v-37.9h-56.7c-17.1,0-31.1-13.9-31.1-31.1V96.9
			c0-17.1,13.9-31.1,31.1-31.1h94.1c17.1,0,31.1,13.9,31.1,31.1v56.4c0,9.4-4.4,15.8-9.5,21.9c-0.2,0.4-0.5,0.7-0.8,1.1l-47.8,50.2
			C440.7,227.7,439.2,228.4,437.5,228.4z M374.8,77.9c-10.5,0-19.1,8.6-19.1,19.1v56.4c0,10.5,8.6,19.1,19.1,19.1h62.7
			c3.3,0,6,2.7,6,6v28.9l36.8-38.6c0.1-0.2,0.2-0.3,0.3-0.5c4.9-5.9,7.3-9.6,7.3-14.9V96.9c0-10.5-8.6-19.1-19.1-19.1H374.8z"/>
	</g>
	<g id="XMLID_1_">
		<g>
			<path d="M250,294.8c-29.6,0-53.6-24.1-53.6-53.7c0-29.6,24.1-53.6,53.6-53.6s53.6,24.1,53.6,53.6
				C303.6,270.7,279.6,294.8,250,294.8z M250,199.5c-23,0-41.6,18.7-41.6,41.6c0,23,18.7,41.6,41.6,41.6s41.6-18.7,41.6-41.6
				C291.6,218.2,272.9,199.5,250,199.5z"/>
		</g>
		<g>
			<path d="M316.2,401.6c-3.3,0-6-2.7-6-6c0-44-4.3-75.1-60.1-75.1s-60.1,31.1-60.1,75.1c0,3.3-2.7,6-6,6s-6-2.7-6-6
				c0-44.1,5.6-87.1,72.2-87.1s72.2,43,72.2,87.1C322.2,398.9,319.5,401.6,316.2,401.6z"/>
		</g>
	</g>
	<g>
		<path d="M249.5,173.8c-1.8,0-3.5-0.8-4.7-2.2l-31.8-39.4h-11.1c-16.6,0-30-13.5-30-30V30c0-16.6,13.5-30,30-30h96.2
			c16.6,0,30,13.5,30,30v72.1c0,16.6-13.5,30-30,30H286l-31.8,39.4C253.1,173,251.4,173.8,249.5,173.8z M201.9,12
			c-9.9,0-18,8.1-18,18v72.1c0,9.9,8.1,18,18,18h14c1.8,0,3.5,0.8,4.7,2.2l28.9,35.8l28.9-35.8c1.1-1.4,2.9-2.2,4.7-2.2h14.9
			c9.9,0,18-8.1,18-18V30c0-9.9-8.1-18-18-18H201.9z"/>
	</g>
	<g>
		<path d="M249.7,33.5c6.9,0,12.3,1.5,16.2,4.6c3.9,3,5.9,6.9,5.9,11.6c0,4.3-1.9,8.6-5.7,13l-7.4,8.6c-1.4,1.6-2.1,3.4-2.1,5.5v4.4
			h-12.3V75c0-2.1,0.2-3.7,0.6-4.8c0.4-1.1,1.2-2.3,2.5-3.7l7-7.6c2.9-3.2,4.3-6.3,4.3-9.3c0-2.1-0.8-3.8-2.4-5.2
			c-1.6-1.4-3.8-2.2-6.6-2.2c-3.1,0-5.7,1-7.6,2.9c-1.9,2-2.8,4.9-2.8,8.8h-12.4c0-6.3,2-11.3,6.1-15
			C237.1,35.3,242.7,33.5,249.7,33.5z M243.9,86.3v12.7h13V86.3H243.9z"/>
	</g>
</g>
</svg>
