<svg viewBox="0 0 486 375" version="1.1" xmlns="http://www.w3.org/2000/svg" xmlns:xlink="http://www.w3.org/1999/xlink">
    <g id="Page-1" stroke-width="1" fill-rule="evenodd">
        <g id="wifi" transform="translate(4.000000, 4.000000)" fill-rule="nonzero">
            <path d="M13.9046915,109.685513 C10.8567167,112.739478 5.9101176,112.744333 2.8561534,109.696358 C-0.1978109,106.648383 -0.2026663,101.701784 2.8453085,98.64782 C65.434763,35.9353736 150.398133,0.693530424 239,0.693530424 C327.601867,0.693530424 412.565237,35.9353736 475.154691,98.64782 C478.202666,101.701784 478.197811,106.648383 475.143847,109.696358 C472.089882,112.744333 467.143283,112.739478 464.095309,109.685513 C404.436987,49.9099594 323.452544,16.3185304 239,16.3185304 C154.547456,16.3185304 73.5630132,49.9099594 13.9046915,109.685513 Z" id="Shape" stroke-width="9"></path>
            <path d="M71.8271902,167.804664 C68.782446,170.861849 63.8358549,170.871934 60.7786697,167.82719 C57.7214845,164.782446 57.711399,159.835855 60.7561432,156.77867 C107.962409,109.379515 172.103727,82.7346727 239,82.7346727 C305.896273,82.7346727 370.037591,109.379515 417.243857,156.77867 C420.288601,159.835855 420.278516,164.782446 417.22133,167.82719 C414.164145,170.871934 409.217554,170.861849 406.17281,167.804664 C361.89861,123.349556 301.741225,98.3596727 239,98.3596727 C176.258775,98.3596727 116.10139,123.349556 71.8271902,167.804664 Z" id="Shape" stroke-width="9"></path>
            <path d="M133.070354,229.061519 C130.021823,232.114929 125.075224,232.118884 122.021814,229.070354 C118.968404,226.021823 118.964449,221.075224 122.012979,218.021814 C153.022652,186.962511 195.110593,169.509398 239,169.509398 C282.889407,169.509398 324.977348,186.962511 355.987021,218.021814 C359.035551,221.075224 359.031596,226.021823 355.978186,229.070354 C352.924776,232.118884 347.978177,232.114929 344.929646,229.061519 C316.850945,200.937878 278.74107,185.134398 239,185.134398 C199.25893,185.134398 161.149055,200.937878 133.070354,229.061519 Z" id="Shape" stroke-width="9"></path>
            <path d="M239,368.4375 C209.487284,368.4375 185.5625,344.512716 185.5625,315 C185.5625,285.487284 209.487284,261.5625 239,261.5625 C268.512716,261.5625 292.4375,285.487284 292.4375,315 C292.4375,344.512716 268.512716,368.4375 239,368.4375 Z M239,352.8125 C259.883267,352.8125 276.8125,335.883267 276.8125,315 C276.8125,294.116733 259.883267,277.1875 239,277.1875 C218.116733,277.1875 201.1875,294.116733 201.1875,315 C201.1875,335.883267 218.116733,352.8125 239,352.8125 Z" id="Oval" stroke-width="5"></path>
        </g>
    </g>
</svg>
