<svg viewBox="0 0 487 497" version="1.1" xmlns="http://www.w3.org/2000/svg" xmlns:xlink="http://www.w3.org/1999/xlink">
    <defs></defs>
    <g id="Page-1" stroke-width="1" fill-rule="evenodd">
        <g id="Windsurfing" transform="translate(0.000000, -1.000000)" fill-rule="nonzero">
            <path d="M485.141509,467.924528 C482.075472,461.556604 474.292453,458.726415 467.924528,461.792453 C456.603774,467.216981 445.754717,472.40566 427.830189,472.40566 C410.141509,472.40566 399.528302,467.45283 387.5,461.556604 C374.528302,455.424528 359.669811,448.349057 336.084906,448.349057 C320.283019,448.349057 308.254717,451.650943 298.349057,455.424528 C297.877358,451.886792 296.933962,448.349057 295.283019,444.811321 C294.575472,443.160377 274.764151,394.103774 270.754717,384.433962 C263.443396,366.037736 247.40566,355.424528 227.358491,355.424528 L187.028302,355.424528 L143.396226,304.481132 C138.679245,299.056604 130.660377,298.349057 125.235849,303.066038 C119.811321,307.783019 119.103774,315.801887 123.820755,321.226415 L171.226415,376.650943 C173.584906,379.481132 177.358491,381.132075 180.896226,381.132075 L227.122642,381.132075 C236.792453,381.132075 243.396226,385.377358 246.698113,393.867925 C248.584906,398.820755 268.867925,448.349057 271.226415,454.481132 C274.528302,462.735849 271.462264,465.09434 270.283019,466.037736 C268.396226,467.45283 264.858491,468.632075 260.849057,469.575472 L237.735849,412.735849 C234.433962,404.481132 225.471698,398.584906 216.509434,398.584906 L169.103774,398.584906 C156.839623,398.584906 141.273585,398.584906 131.603774,388.207547 C128.773585,384.669811 102.358491,352.122642 80.4245283,323.113208 C75.2358491,316.509434 73.8207547,308.254717 76.1792453,301.179245 C78.5377358,294.811321 83.7264151,290.330189 91.2735849,288.443396 C110.141509,283.962264 171.462264,268.867925 172.169811,268.632075 C175.943396,267.688679 179.009434,265.330189 180.660377,261.792453 L198.113208,227.122642 L321.933962,427.59434 C324.292453,431.603774 328.537736,433.726415 332.783019,433.726415 C334.90566,433.726415 337.028302,433.254717 338.915094,432.075472 L444.811321,374.528302 C449.056604,372.169811 451.650943,367.924528 451.650943,363.207547 C451.650943,181.367925 350.707547,92.6886792 266.037736,50.2358491 C175.235849,4.71698113 85.8490566,1.88679245 82.0754717,1.6509434 C77.3584906,1.41509434 72.8773585,4.00943396 70.5188679,8.01886792 C68.1603774,12.0283019 68.1603774,17.2169811 70.754717,21.2264151 L181.839623,201.179245 L159.90566,244.575472 C146.933962,247.877358 114.858491,255.660377 95.5188679,260.377358 C96.2264151,257.075472 96.6981132,253.537736 96.6981132,250 C96.6981132,223.349057 75,201.886792 48.5849057,201.886792 C22.1698113,201.886792 0.471698113,223.584906 0.471698113,250 C0.471698113,276.415094 22.1698113,298.113208 48.5849057,298.113208 C49.0566038,298.113208 49.5283019,298.113208 50,298.113208 C47.1698113,311.792453 50.4716981,326.415094 59.6698113,338.443396 C83.254717,369.339623 111.320755,404.009434 111.556604,404.481132 C111.792453,404.716981 111.792453,404.95283 112.028302,404.95283 C128.773585,423.584906 152.59434,424.056604 167.45283,424.056604 C167.924528,424.056604 214.150943,424.056604 214.150943,424.056604 L233.254717,471.226415 C221.226415,469.811321 212.735849,465.566038 203.301887,461.084906 C190.330189,454.95283 175.471698,447.877358 151.886792,447.877358 C128.301887,447.877358 113.443396,454.95283 100.471698,461.084906 C88.4433962,466.981132 77.8301887,471.933962 60.1415094,471.933962 C42.2169811,471.933962 31.6037736,466.745283 20.0471698,461.320755 C13.6792453,458.254717 5.89622642,460.849057 2.83018868,467.45283 C-0.235849057,473.820755 2.59433962,481.603774 8.96226415,484.669811 C21.9339623,490.801887 36.5566038,497.877358 60.1415094,497.877358 C83.7264151,497.877358 98.5849057,490.801887 111.556604,484.669811 C123.584906,478.773585 134.198113,473.820755 151.886792,473.820755 C169.575472,473.820755 180.188679,478.773585 192.216981,484.669811 C205.188679,490.801887 220.04717,497.877358 243.632075,497.877358 C267.216981,497.877358 282.075472,490.801887 295.04717,484.669811 C307.075472,478.773585 317.688679,473.820755 335.377358,473.820755 C353.066038,473.820755 363.679245,478.773585 375.707547,484.669811 C388.679245,490.801887 403.537736,497.877358 427.122642,497.877358 C450.707547,497.877358 465.330189,490.801887 478.301887,484.669811 C485.377358,482.075472 488.207547,474.528302 485.141509,467.924528 Z M255.188679,74.7641509 C366.273585,130.896226 423.584906,225.707547 425.707547,356.603774 L337.264151,404.481132 L106.132075,30.6603774 C138.443396,34.6698113 197.169811,45.2830189 255.188679,74.7641509 Z M26.4150943,250.943396 C26.4150943,238.915094 36.5566038,228.537736 48.8207547,228.537736 C60.8490566,228.537736 71.2264151,238.679245 71.2264151,250.943396 C71.2264151,262.971698 61.0849057,273.349057 48.8207547,273.349057 C36.3207547,273.349057 26.4150943,263.443396 26.4150943,250.943396 Z" id="Shape"></path>
        </g>
    </g>
</svg>
