<svg viewBox="0 0 439 519" version="1.1" xmlns="http://www.w3.org/2000/svg" xmlns:xlink="http://www.w3.org/1999/xlink">
    <defs></defs>
    <g id="Page-1" stroke-width="1" fill-rule="evenodd">
        <g id="wineCellar" transform="translate(14.000000, 16.000000)" fill-rule="nonzero">
            <path d="M10.5312153,-7.07616449 L14.9045255,-15.8227848 L396.386937,-15.8227848 L400.795066,-7.20689564 C416.27087,23.0412674 424.683544,57.2177559 424.683544,91.7721519 C424.683544,212.536151 326.460202,310.759494 205.696203,310.759494 C84.9322033,310.759494 -13.2911392,212.536151 -13.2911392,91.7721519 C-13.2911392,57.4644854 -5.01557642,24.017419 10.5312153,-7.07616449 Z M18.3544304,91.7721519 C18.3544304,195.058786 102.409569,279.113924 205.696203,279.113924 C308.982836,279.113924 393.037975,195.058786 393.037975,91.7721519 C393.037975,65.516976 387.331394,39.45533 376.75138,15.8227848 L34.7158285,15.8227848 C23.9892668,40.0660289 18.3544304,65.660685 18.3544304,91.7721519 Z M189.873418,294.936709 L221.518987,294.936709 L221.518987,502.531646 L66.4556962,502.531646 L66.4556962,470.886076 L189.873418,470.886076 L189.873418,294.936709 Z M205.696203,470.886076 L189.873418,486.708861 L189.873418,470.886076 L205.696203,470.886076 Z M205.696203,470.886076 L189.873418,486.708861 L189.873418,470.886076 L205.696203,470.886076 Z M189.873418,294.936709 L221.518987,294.936709 L221.518987,502.531646 L66.4556962,502.531646 L66.4556962,470.886076 L189.873418,470.886076 L189.873418,294.936709 Z M189.873418,495.56962 L189.873418,470.886076 L344.936709,470.886076 L344.936709,502.531646 L205.696203,502.531646 L205.696203,495.56962 L189.873418,495.56962 Z M189.873418,495.56962 L189.873418,470.886076 L344.936709,470.886076 L344.936709,502.531646 L205.696203,502.531646 L205.696203,495.56962 L189.873418,495.56962 Z M403.164557,122.78481 C403.164557,122.78481 357.594937,296.835443 196.835443,296.835443 C36.0759494,296.835443 8.2278481,122.78481 8.2278481,122.78481 L403.164557,122.78481 Z" id="Shape"></path>
        </g>
    </g>
</svg>
