<svg xmlns="http://www.w3.org/2000/svg" viewBox="0 0 500 448.2"><path d="M498.8 429.8L342.2 85.3c-2.1-4.7-6.8-7.7-11.9-7.7-5.1 0-9.8 3-11.9 7.7l-33.1 72.8L216.9 7.7C214.8 3 210.1 0 205 0c-5.1 0-9.8 3-11.9 7.7l-52.2 114.9c-.1.1-.1.2-.1.3L1.2 429.8c-3 6.6-.1 14.3 6.5 17.3 1.8.8 3.6 1.2 5.4 1.2 5 0 9.7-2.8 11.9-7.7l127.7-280.7L221 310.4c2.1 4.7 6.8 7.7 11.9 7.7s9.8-3 11.9-7.7l40.5-89.1 48.8 107.4c2.1 4.7 6.8 7.7 11.9 7.7 5.1 0 9.8-3 11.9-7.7l33.1-72.9 84 184.8c2.2 4.8 6.9 7.7 11.9 7.7 1.8 0 3.6-.4 5.4-1.2 6.6-3 9.5-10.8 6.5-17.3zM232.9 273.5l-66-145.1L205 44.6l66 145.1-38.1 83.8zM346 291.7l-46.3-101.9 30.7-67.4 46.3 101.9-30.7 67.4z"/></svg>
