<svg xmlns="http://www.w3.org/2000/svg" viewBox="0 0 500 473"><g><path d="M270.7 167.4H307c-2.5-7.6-9.6-13.2-18.1-13.2-8.5-.1-15.7 5.5-18.2 13.2zM185.1 180.7h10.5v15h-10.5zM200.6 128.8c0-5.6-4.6-10.2-10.2-10.2-5.7 0-10.2 4.6-10.2 10.2 0 5.7 4.6 10.3 10.2 10.3 5.7 0 10.2-4.6 10.2-10.3zM185.1 329.9h10.5v15h-10.5zM185.1 280.2h10.5v15h-10.5zM185.1 230.5h10.5v15h-10.5z"/><path d="M489.4 267.8L319 63.6l-27.5 31V150c11.7 1.4 20.7 11.3 20.7 23.3 0 1.4-.1 2.7-.4 4-2.7-.4-5.4-.4-8 .1-5.8 1.1-11.2 4.7-13.9 10-2.7 5.1-3.6 11.1-2.6 16.7s3.6 10.7 6.7 15.3c3.1 4.6 6.8 8.7 10.4 12.8.6.6 3.8 4.4 6.1 6.8-1.2.5-2.3 1-3.5 1.4h-37.1c-4.6-1.6-8.9-3.8-12.5-6.4 4.1 1.9 8.9 2.4 13.3 1.5 5.6-1.1 10.7-4.7 13.3-9.7 2.6-5 3.4-10.7 2.5-16.1-.9-5.4-3.4-10.4-6.4-14.8-3-4.4-6.5-8.4-9.9-12.4-.5-.5-2.6-3.1-4.6-5.3l.1-.1c-.2-1.2-.3-2.5-.3-3.8 0-12.2 9.3-22.2 21.2-23.4V94.7L203.5 0 15.2 290.9c-.7 1.3-1.3 2.6-1.9 4 5.9-7 13.1-13 21.7-16.7 6.9-3 14.6-4.4 22-4.3 7.4 0 14.9 1.1 22.1 3.6 7.3 2.6 14.1 6.9 19.6 12.6 5.4 5.7 9.4 12.7 11.7 20.2 2.3 7.5 3 15.3 2.2 23-.8 7.7-3 15.4-7.2 22.2-4.2 6.8-10.7 12.5-18.4 15.3-7.7 2.8-15.8 3.3-23.7 1.8-8-1.5-15.6-6.3-20.4-13-2.5-3.3-4.3-6.9-5.7-10.7-1.3-3.8-2.3-7.7-2-12.3 0-1.9.9-9.1 4.7-14.8 3.6-6 10.1-9.1 10.6-9.2 3.1-1.2 3.5.3 2.5 1.5-.7.9-2.7 2.2-4.8 4.2-2 2-4.1 4.8-5.4 7.9-2.8 6.2-2.6 12.9-2.3 14.2 1 6.8 4.1 13.4 8.8 18.4 4.7 5 11.1 8 17.9 8.8 6.8.8 13.8-.1 19.9-3 6.1-2.9 11-7.8 14.2-13.7 6.3-11.9 6.9-26.8 2.7-39.4-2.2-6.3-5.7-12.2-10.4-16.8-4.7-4.7-10.5-8.2-16.7-10.3-6.4-2.3-13.3-3.3-20.2-3.4-6.8-.1-13.6 1.2-19.7 3.9-12.4 5.4-21.9 16.4-28.2 28.7-3.1 6.2-5.6 12.8-7 19.5-.7 3.8-1.2 7.8-1.5 11.8 0 .8-.1 1.5-.1 2.3.3 52.9 34.2 126 241.5 126 51.8 0 95-12.3 129.7-30.3-57.6 15.2-120.2 12.7-166.5 7v-47h-.1c-3.6-3.7-8.6-6.1-14.1-6.1-5.6 0-10.5 2.3-14.1 6.1h-.1V445.7c-16.2-2.8-28.6-5.6-35.4-7.2V377H155V165.1h-6V150h21v-29.5l20.4-20.4 20.4 20.4V150h21v15.1h-6.1v215.2s.1 0 .1.1c83 42.4 288.1 92.6 201.1-43-23.3-36.3-73.4-119-73.4-119 36 29.9 69.1 52 124.1 74.2 19.4 7.9 32.7 3.3 11.8-24.8zM217.9 121.5L190.4 94l-27.5 27.5V97.8h17.5c5.4-5.5 10.1-10.1 10.1-10.1l10.1 10.1h17.5v23.7zm31.3 95.9c0-2.5.4-5.1 1.5-7.3s3-3.9 5.3-4.9c4.6-2 10.5-.9 13.8 3.2.3.4 1.9 2.3 2.3 4.8.6 2.4-.3 5-.4 5.9 0 .6.5 1 1.2 0 .2-.1 1.5-2.5 1.3-5.2-.1-2.6-1.4-5-1.8-5.6-3.3-5.5-10.5-7.6-16.3-5.7-2.9.9-5.6 2.9-7.2 5.5-1.7 2.7-2.2 5.7-2.4 8.6-.1 2.8.4 5.7 1.6 8.2-3.6-5.1-5.7-10.9-5.7-17.1 0-12.6 8.6-23.5 21.3-29.8 1.4 2 3.2 4.3 3.7 4.8 6.8 8.2 14.2 16.5 16.1 26.6.9 4.9.2 10.2-2.1 14.7-2.3 4.4-6.6 7.5-11.5 8.4-4.8 1.1-10 .2-14.1-2.5-4-2.7-6.6-7.6-6.6-12.6zm27.1 47.7h-7.5v-21.7h7.5v21.7zm10.4 0h-7.2v-21.7h7.2v21.7zm10.7 0h-7.5v-21.7h7.5v21.7zm10.6 0h-7.5v-21.7h7.5v21.7zm4.2-26.9c-1.5-2.1-4.3-5.8-5-6.4-7.1-8.5-14.9-17-16.9-27.5-1-5.1-.2-10.6 2.2-15.2 2.4-4.6 6.9-7.7 12.1-8.6 5-1.1 10.4-.2 14.7 2.6 4.3 2.7 7 7.7 7 12.9 0 2.6-.4 5.3-1.5 7.5-1.1 2.3-3.2 4.1-5.5 5.1-4.8 2-10.9.9-14.3-3.3-.3-.4-2-2.4-2.4-5-.7-2.5.2-5.2.3-6.1 0-.7-.5-1.1-1.2 0-.2.1-1.5 2.6-1.3 5.4.1 2.7 1.5 5.2 1.9 5.8 3.5 5.7 10.9 7.8 16.9 5.9 3-.9 5.9-2.9 7.6-5.7 1.8-2.8 2.3-5.9 2.5-8.9.1-2.4-.3-4.8-1.1-7.1 4.1 5.3 6.5 11.5 6.5 18.1-.3 13-9.2 24.3-22.5 30.5z"/></g></svg>
