<svg version="1.1" id="Calque_1" xmlns="http://www.w3.org/2000/svg" xmlns:xlink="http://www.w3.org/1999/xlink" x="0px" y="0px"
	 viewBox="0 0 218.3 171.8" style="enable-background:new 0 0 218.3 171.8;" xml:space="preserve">
<g>
	<path d="M156.1,3.3c-8.5,3.9-12.8,21-13,20.3c-0.8-0.7-1.6-1.4-2.4-2.1c-8.1-6.5-18.2,11.9-18.2,11.9s-1.4,2.4-1.7,4.4
		c-0.6,4.3,0.1,11.5,1.3,15.7c2.5,9.2,7.4,15.3,9,17.2c0.6-0.9,1.3-1.7,2.3-2.3c3.6-2.4,8.4-1.4,10.8,2.2c2.2,3.4,1.5,7.8-1.6,10.3
		c1.5,0.6,2.8,1.6,3.7,3c1.3,2,1.6,4.3,1,6.4c0.6-0.9,1.3-1.7,2.3-2.4c3.6-2.4,8.4-1.4,10.8,2.2c2,3.1,1.6,7-0.8,9.6
		c1.9-3.2,1.2-7.4-1.8-9.9c-3.3-2.7-8.2-2.2-10.9,1.2c-0.2,0.3-0.4,0.6-0.6,0.9c0.1-0.1,0.1-0.2,0.2-0.3c2.7-3.3,7.6-3.8,10.9-1.2
		c2.9,2.3,3.6,6.3,2.1,9.5c-0.4,0.4-0.8,0.7-1.2,1c-0.4,0.2-0.7,0.4-1.1,0.6c0.4,0.5,0.7,1.1,0.8,1.8c0.5,1.8,0.1,3.5-1,4.9
		c0.7-2.1,0.1-4.6-1.8-6.1c-2.4-1.9-5.9-1.6-7.9,0.8c-0.2,0.2-0.3,0.4-0.4,0.6c0-0.1,0.1-0.1,0.1-0.2c1.9-2.4,5.5-2.8,7.9-0.8
		c1.8,1.5,2.5,3.9,1.8,6c-0.7,0.8-1.6,1.4-2.7,1.7c-3,0.8-6.1-1-6.9-4c-0.2-0.7-0.2-1.5-0.2-2.2c-0.3-0.2-0.5-0.4-0.7-0.6
		c-0.2-0.2-0.3-0.3-0.4-0.5c0.1,0.9-0.1,1.8-0.6,2.6c0.4-1.7-0.1-3.6-1.6-4.7c-1.7-1.4-4.2-1.4-5.9,0c0.2-0.2,0.3-0.5,0.5-0.7
		c0.3-0.3,0.6-0.5,0.9-0.7c-1-1.1-1.5-2.5-1.5-3.9c-1.7-0.5-3.3-1.6-4.3-3.2c-0.2-0.3-0.4-0.7-0.6-1.1c-0.2,0.1-0.3,0.2-0.5,0.2
		c-2.9,1-6.2-0.5-7.2-3.4c-0.1-0.2-0.1-0.4-0.2-0.5c-2.2-0.3-4.2-1.5-5.5-3.4c-1.7-2.6-1.7-5.8-0.2-8.3c2.4-2.4,6.2-2.6,8.8-0.4
		c2.1,1.7,2.9,4.4,2.2,6.8c-1.6-0.2-3.4,0.4-4.5,1.8c-0.1,0.2-0.3,0.4-0.4,0.6c0-0.1,0.1-0.1,0.1-0.2c1.7-2.1,4.8-2.4,6.9-0.7
		c1.9,1.6,2.3,4.3,1.1,6.3c1.6-2.1,1.2-5-0.8-6.7c-0.7-0.5-1.4-0.9-2.2-1c0.9-2.6,0.2-5.6-2-7.4c-2.7-2.2-6.5-1.9-8.9,0.5
		c0.5-0.8,1.2-1.5,2.1-2c3.6-2.4,8.4-1.4,10.8,2.2c1.2,1.8,1.5,4,1.1,6c0.4,0.2,0.7,0.5,1,0.9c0.3-0.3,0.7-0.6,1-0.8
		c0.2-0.1,0.4-0.3,0.7-0.4c0.2-1.8-0.1-3.7-1.2-5.3c-1.2-1.7-2.9-2.8-4.8-3.2c-0.3-0.3-6.9-7.1-10.1-18.7c-0.5-2-0.9-4-1.2-5.9
		c-4.2,9-8.6,15.8-17.7,25.6C89.9,85.8,56.4,104.1,38,105.7c0,0,3.2-5.4,3.2-5.4l-5.3,0.5c0,0,1.4-3.5,0.4-3.6
		c-1.9-0.2-5.8-1.3-6-1.4c0.2-0.4,9.7-3.2,10.4-3.6c0.5-0.3-2.2-3-2.2-3c-0.6-0.3,6.5-1.3,8.4-2.4c1.9-1.1,2-3.7,1.9-3.8
		c8.9,2.8,22.7,4.7,39.6-2.6c-7.6,2.7-15.8,3.3-21.5,0.5c0.4-0.4,1-0.9,0.8-1.1c-0.1-0.1-0.2-0.1-0.3-0.1c-0.5,0-8.9-1.1-13.5,1.5
		c0,0,0.9-4.5,9.2-6.5l0.1,0l0-0.1c0.4-0.5-1.2-1.2-1.8-1.4c0.8-0.5,5.1-3.2,7.4-2.9l0.6,0.1L69,70.2c-0.9-0.6-1.8-1.3-2-1.4
		c0.8-0.5,5-2.2,9-2c0.3,0,0.5-0.1,0.5-0.1c0.5-0.5-3.2-2.4-3.8-3c18.4-1.9,25.8,6.7,27.4,9.2c8.9-9.5,15.4-22.4,17.6-28.9
		c0.6-1.6,1.1-4.5,0.2-7.5C110.7,12.7,98.5,0.4,93,0c-4-0.3-7.5,1.1-16.9,18.5c-1.2-5.2-7.5-6.9-11.6-2.3
		C21.9,64.3,0.1,168.2,0.1,168.2H214C195.5,78.9,168.5-2.4,156.1,3.3z M130.2,66.5c-2.2-1-3.3-3.6-2.3-5.8c0.1-0.2,0.2-0.4,0.3-0.6
		c1.6-1,3.8-1,5.4,0.3c1.6,1.3,2.1,3.3,1.5,5.2C133.9,66.8,132,67.2,130.2,66.5z M136.1,64.2c-0.2,0.4-0.4,0.8-0.7,1.1
		c0.7-1.8,0.2-4-1.4-5.3c-1.6-1.3-3.7-1.4-5.4-0.3c1.2-1.5,3.3-2.1,5.2-1.3C136,59.3,137,61.9,136.1,64.2z M154.1,85.8
		c-1.8,1.2-3.9,1.2-5.7,0.4c0.1-1.2-0.2-2.5-0.9-3.6c-0.6-0.9-1.4-1.6-2.3-2c0-0.6,0.2-1.2,0.4-1.8c2-2,5.3-2.2,7.6-0.4
		c2.1,1.7,2.7,4.6,1.5,6.9C154.6,85.5,154.4,85.7,154.1,85.8z M154.9,85.2c1.4-2.4,0.9-5.5-1.3-7.3c-2.4-1.9-5.8-1.6-7.8,0.6
		c0.4-0.9,1.1-1.7,2-2.3c2.7-1.8,6.2-1,8,1.6C157.3,80.2,156.9,83.3,154.9,85.2z M137.4,101.3c1.7-1.3,4.1-1.4,5.8,0
		c1.4,1.2,2,3,1.6,4.7c-0.1,0.2-0.3,0.3-0.4,0.5c-1.7,1.7-4.5,1.7-6.3,0C136.8,105.1,136.5,102.9,137.4,101.3z M129.8,92.8
		c2.3-0.8,4.8,0.4,5.6,2.7c0.5,1.4,0.2,2.9-0.6,4c0.3-1.7-0.2-3.4-1.6-4.6c-1.8-1.4-4.3-1.4-5.9,0.1C127.8,94,128.7,93.2,129.8,92.8
		z M133,95.3c1.4,1.1,2,2.9,1.6,4.5c-0.5,0.6-1.1,1.1-1.9,1.3c-2.3,0.8-4.8-0.4-5.6-2.7c-0.1-0.2-0.1-0.4-0.2-0.6
		c0-0.8-0.1-1.3-0.4-2c0.2-0.2,0.4-0.4,0.6-0.6C128.9,94,131.3,93.9,133,95.3z M126.3,102.8c-0.9-0.2-1.6-0.8-1.9-1.7
		c0.9,0.1,1.8-0.4,2.2-1.2c0.1-0.2,0.2-0.4,0.2-0.7c0,0,0,0,0,0c0,0.8,0.5,1.6,1.2,1.9c0.2,0.1,0.5,0.2,0.7,0.2c0,0,0,0,0,0
		C128.4,102.4,127.4,103,126.3,102.8z M128.8,101.7c0,0.3-0.1,0.6-0.2,0.8c-0.6,1.1-1.9,1.5-3,1c-0.8-0.4-1.3-1.3-1.2-2.2
		c0.2,0.9,0.9,1.7,1.9,1.8C127.4,103.2,128.4,102.6,128.8,101.7z M121.3,92.1c2.3-0.8,4.8,0.4,5.6,2.7c0,0.1,0.1,0.3,0.1,0.4
		c-0.1,0.1-0.3,0.3-0.4,0.4c0,0.1-0.1,0.1-0.1,0.2c-0.3-0.7-0.8-1.4-1.4-2c-1.9-1.5-4.6-1.3-6.2,0.3
		C119.4,93.3,120.2,92.5,121.3,92.1z M118.8,94.5c1.7-1.6,4.3-1.7,6.1-0.2c1.3,1.1,1.9,2.8,1.7,4.4c-0.5,0.8-1.3,1.5-2.3,1.8
		c-2.3,0.8-4.8-0.4-5.6-2.7C118.2,96.6,118.3,95.5,118.8,94.5z M76,131.2c-0.3-0.8,0.2-2.5-2-3.1l-0.2-0.1l0,0.2
		c0.1,2.5-0.7,4.1-1.4,4.9c-0.6,0.7-1.2,1.1-1.5,1.2c-0.3-0.5-1.6-2-3-2.5l-0.2-0.1l0,0.2c-0.4,2.3-2.2,4.4-2.7,4.9
		c-0.5-0.3-2.4-1.2-4.4,0.3c-3.3,3.1-6.8,4.7-7.6,5.1c0,0,0-0.1,0-0.1c0,0-0.1,0-0.1,0.1c-0.3-0.9-1.4-4.6-1.3-9.1
		c-0.2-2.4-2.2-3.3-2.7-3.4c0.1-0.6,0.4-3.4,1.8-5.2l0.1-0.2l-0.2-0.1c-1.3-0.8-3.3-0.6-3.9-0.6c-0.1-0.3-0.2-1-0.1-1.9
		c0.1-1.1,0.7-2.7,2.7-4.3l0.2-0.2l-0.2-0.1c-1.9-1.2-3.9-0.6-4.7-0.2c3.1-10.2,20.1-17.7,30.2-23.1c-12.4,10.7-14.3,25.5-16.6,34.1
		c-0.1,0.5-0.3,1.1-0.4,1.5l0.7,0.2c0.1-0.5,0.3-1,0.4-1.5c2.5-9.2,7.4-27.4,22.5-37.8c1.6-0.9,3.3-1.9,5-2.9
		c0.2-0.1,0.3-0.2,0.5-0.3l0,0c0.1-0.1,0.2-0.1,0.3-0.2c-13.9,16-8.2,35.6-7.9,37.2C79.9,127.8,77.6,130.4,76,131.2z M149.1,112.5
		c-1.3,2.1-4,2.7-6.1,1.5c-1.7-1-2.4-3-2-4.8c0.1,0,0.1,0,0.2,0c0.3,1.8,1.6,3.3,3.4,3.8c1.9,0.5,3.9-0.3,5-1.8
		C149.5,111.7,149.3,112.1,149.1,112.5z M149.7,110.8c-1.1,1.5-3.1,2.3-5,1.8c-1.7-0.4-2.9-1.8-3.3-3.3c1.6,0.2,3.3-0.6,4.2-2.1
		c0.3-0.4,0.4-0.9,0.5-1.3c0,0,0,0,0.1,0c-0.1,1.6,0.7,3.1,2.1,4c0.4,0.3,0.9,0.5,1.4,0.6C149.7,110.6,149.7,110.7,149.7,110.8z
		 M171,106.9c0.5,0,1,0.1,1.5,0.3c1.6,0.7,2.3,2.6,1.6,4.3c-0.6,1.3-1.9,2-3.3,1.9c1.4-0.3,2.4-1.5,2.4-2.9c0-1.4-1-2.6-2.3-2.9
		C170.9,107.3,171,107.1,171,106.9z M170.9,107.5c1.2,0.4,2.1,1.5,2.1,2.9c0,1.3-0.9,2.5-2.1,2.9c0.1-1.3-0.6-2.5-1.9-3.1
		c-0.3-0.1-0.7-0.2-1-0.3c0,0,0,0,0,0c1.1-0.1,2.2-0.8,2.7-1.9C170.8,107.8,170.8,107.7,170.9,107.5z M163.1,98.7c3-0.8,6.1,1,6.9,4
		c0.5,2,0,4-1.3,5.3c1.2-2.4,0.7-5.3-1.5-7c-2.2-1.8-5.4-1.6-7.5,0.3C160.5,100,161.7,99.1,163.1,98.7z M159.6,101.6
		c2-1.8,5.1-1.9,7.3-0.2c2.1,1.7,2.6,4.5,1.6,6.8c-0.7,0.6-1.5,1.1-2.4,1.4c-3,0.8-6.1-1-6.9-4C158.8,104.2,159,102.8,159.6,101.6z
		 M163,112.9c-0.8,2.3-3.3,3.6-5.6,2.8c-1.9-0.6-3-2.4-3-4.2c0,0,0,0,0,0c0.6,1.8,2.3,3.2,4.3,3.3c2,0.1,3.8-1.2,4.5-3
		C163.2,112.2,163.1,112.6,163,112.9z M158.7,114.4c-1.9-0.1-3.4-1.2-4.1-2.8c1.7-0.1,3.3-1.3,3.9-3c0.2-0.5,0.2-0.9,0.2-1.4
		c0,0,0,0,0.1,0c0.3,1.6,1.4,2.9,3,3.4c0.5,0.2,1,0.2,1.5,0.2c0,0.2,0,0.3,0.1,0.5C162.5,113.1,160.7,114.4,158.7,114.4z
		 M169.4,116.1c-0.3,0.3-0.6,0.6-1,0.8c-1.6,0.8-3.5,0.1-4.3-1.5c-0.5-1-0.4-2.2,0.1-3.1c1.2-0.8,2.9-0.7,4,0.2
		C169.3,113.5,169.7,114.9,169.4,116.1z M169.6,115.9c0.3-1.3-0.1-2.6-1.2-3.5c-1.2-1-2.8-1-4-0.2c0.3-0.4,0.7-0.7,1.2-1
		c1.6-0.8,3.5-0.1,4.3,1.5C170.4,113.7,170.2,114.9,169.6,115.9z M172.3,118.8c-1.4-0.6-2.1-2.2-1.5-3.7c0.1-0.1,0.1-0.3,0.2-0.4
		c1-0.6,2.4-0.6,3.4,0.2c1,0.8,1.3,2.1,0.9,3.2C174.6,119,173.4,119.3,172.3,118.8z M175.5,118.1c0.5-1.2,0.2-2.5-0.9-3.4
		c-1-0.8-2.4-0.9-3.4-0.2c0.8-0.9,2.1-1.3,3.3-0.8c1.4,0.6,2.1,2.2,1.5,3.7C175.9,117.6,175.7,117.9,175.5,118.1z M147.4,101.1
		c1.4-2.4,0.9-5.4-1.3-7.2c-0.3-0.2-0.6-0.4-0.9-0.6c0,0,0,0,0,0c0,0,0,0,0,0c-2.3-1.3-5.3-0.7-7,1.4c0,0.1-0.1,0.1-0.1,0.2
		c0.1-0.2,0.3-0.4,0.4-0.6c1.7-2.1,4.6-2.7,7-1.4c1.3-2.7,0.7-6.1-1.8-8.1c-2.8-2.3-7-1.9-9.3,1c-0.1,0.1-0.1,0.1-0.2,0.2
		c0.2-0.3,0.3-0.5,0.5-0.8c2.3-2.8,6.5-3.3,9.3-1c2.6,2.1,3.2,5.8,1.5,8.6c0.3,0.2,0.6,0.3,0.9,0.6
		C148.8,95.4,149.2,98.8,147.4,101.1z M142.4,80.8c1.9-3.1,1.2-7.2-1.7-9.5c-3.2-2.6-7.8-2.1-10.4,1.1c-0.1,0.1-0.1,0.2-0.2,0.3
		c0.2-0.3,0.4-0.6,0.6-0.8c2.6-3.2,7.2-3.7,10.4-1.1C144.2,73.2,144.8,77.7,142.4,80.8z M137.3,156.4c0,0,8.4-5.2,8.7-15.2
		c0.3-10.1-5.8-16.8-14-16.8c-8.3,0-13.5,5.8-13.5,11.7c0,5.9,6.1,13.7,14.7,8.6c0.5-0.3,1.5-0.7,0.6,0.4c-0.9,1.1-3.7,2.4-6.3,2.4
		c-3.4,0-10.3-3.2-10.3-11.7c0-8,7.5-12.9,14.7-12.9c6.5,0,14.7,4.1,15.9,15.8c1.1,11.8-8,18.2-9.4,19.1c-2.8,1.9-6,3.2-9.4,3.8
		c-3.4,0.6-6.8,0.5-10.1-0.2c-6.6-1.3-12.7-4.8-17.7-9.2c-5-4.4-9-9.9-12.1-15.8c-3.1-5.9-5.2-12.3-6.3-18.9
		c-0.1-0.8-0.6-3.5-0.8-6.1c0-0.1,0-0.3,0-0.4c-0.9-7.9,0.5-17.2,8.9-26.7c1.7-1.2,3.5-2.5,5.3-3.9c2.4-1.8,4.7-3.8,6.9-5.9
		c2.6,0.6,4.3,1.4,4.9,1.7c-0.6,0.6-2.5,2.6-2.3,3.7c0,0.2,0.2,0.4,0.6,0.6c1.4,0.4,3.5,1.4,4.2,1.7l-2.7,2.9l0.2,0.1
		c0,0,1.7,0.8,2.6,1.6c-0.3,0.4-0.9,0.8-1.5,1.1c-0.6,0.4-1,0.6-0.9,0.9c0,0.2,0.4,0.3,0.7,0.4c1.4,0.2,2.3,1.2,2.7,1.7
		c-0.4,0.1-1,0.3-1.6,1l-0.1,0.1l0,0.1c0.7,1.7,2.9,4.2,3.8,5c-5.4,2.6-8,2-10.7,1.3c-1-0.2-2.1-0.5-3.3-0.6l-0.4,0l0.3,0.3
		c1.2,1.3,3.4,2.2,5.1,2.9c0.4,0.2,0.8,0.3,1.2,0.5c4,1.8,4.3,7.8,4.4,9c-1.1-0.1-4.4-0.3-4.9,0.4c-0.1,0.1-0.1,0.3,0,0.5
		c2,3.1,0.4,7.7,0.1,8.6c-0.3-0.1-0.8-0.3-2.1-0.6l-0.5-0.1l0.3,0.4c1.4,1.7-0.7,6.9-1.1,8c-0.5-0.3-2.1-1.2-2.7-0.5l-0.1,0.1l0,0.1
		c0.6,1.9-1.2,7.6-2.3,9.2c-0.2,0.3-0.3,0.4-0.3,0.4c-1-0.9-6.2-9.1-6.5-9.5c-0.1-0.1-0.1-0.2-0.3-0.2c-0.4,0-0.9,0.8-1.3,1.4
		c-1.1-1.3-2.1-3-2.9-4.7c1.3,4.5,3.1,8.8,5.3,12.8c3.1,5.6,7.1,10.7,11.9,14.8c2.4,2,5,3.9,7.9,5.3c3.4,1.7,7.1,2.7,8.9,3
		c3.1,0.5,6.3,0.6,9.3,0C131.8,159.3,134.7,158.1,137.3,156.4z"/>
</g>
</svg>
