<svg xmlns="http://www.w3.org/2000/svg" viewBox="0 0 500 633.5"><path d="M391.6 360.9c3.9.7 7.7 2.2 11.3 4 14.4-5.5 24.8-12.6 24.8-12.6-15.8 5.3-27.6 7.6-36.1 8.6zm44.6 36.7c.4-.6.8-1.3 1.2-1.9-.9-10.8-10.5-21-15.6-25.6-3.5.5-6.9.6-10.2.5 12.4 9.3 21.5 22.2 24.6 27zM123.6 494c.2-.1-.1-264.8-.1-264.8h270.1v53h-10.1v-42.9H133.6l.3 251.5c0 31.5 29.3 53.4 53.1 45.3 19.1-6.5 28.1-19.5 24.8-36.3-5.5-28.6-30.8-33.3-53.5-24 0 0 2.4-25.3 31.6-30.8 46.8-8.9 72 65.2 151.4 91.8 78.6 23.3 99.5-10.3 99.5-10.3v-56.1l-13.4 38.5c-10.7-35.4 8.5-70.5 8.5-70.5-20.5 21.9-21.9 57.1-21.9 57.1-11.4-24.3-4-44.2 9.1-59.4-11.3 8.1-23 11.8-23 11.8 15.1-18.4 23.1-39 23.1-39-30.3 39.9-48.4 45.8-48.4 45.8 22.5-19.1 30-45.8 30-45.8-17.3 31.8-57.1 43.1-57.1 43.1 11.8-13.2 18.3-17.6 35.8-42.6-32.1 27.3-66.6 48.2-66.6 48.2s36.3-36.6 43.5-52.3c-38.5 41.2-78.2 51.2-78.2 51.2 17.3-10.2 56.2-53.8 56.2-53.8L265.8 449c13.5-34.4 50.3-50 50.3-50-29.6 4.5-52.6 31.2-52.6 31.2 15.5-66 107.9-36 107.9-36-25.9-15.9-67.5-9.4-67.5-9.4 48.7-27.9 93.9 10.8 93.9 10.8-33.6-33.2-63.7-25.4-63.7-25.4 49.4-24.2 87.5 28.4 87.5 28.4-17-31.6-44.4-37.2-44.4-37.2.1 0 .2 0 .3-.1-2.6-.2-3.8-.5-3.8-.5 24.1-2.5 41.5-17.1 41.5-17.1-26.4 13.5-58.6 2.6-58.6 2.6 14.1-3.5 20.5-3.4 44-12.2-34.4 3.6-67.4 1.7-67.4 1.7s41.5-7.9 53.6-15.2c-45.1 10-76.6-1.6-76.6-1.6 16.4 1.1 62.9-10.3 62.9-10.3l-70.5-2.4c25.1-17 57.2-10.5 57.2-10.5-22.1-10.7-50-3.3-50-3.3 41-37.4 89.6 25.7 89.6 25.7-10.1-22.8-41.3-37.7-41.3-37.7 45.8 3.8 58.5 50.9 58.5 50.9-7.3-38-31.3-46.7-31.3-46.7 44.6 6.5 46 59.7 46 59.7 3.2-29.3-12.7-45.7-12.7-45.7 15.2 5.1 20.5 22.8 22.3 36.5V195.3h-29.2c-1.9 1.6-4 3.2-6.1 4.6-7.7 5.2-16.6 8.9-25.8 10.8-9.2 1.8-18.7 1.8-27.9.3-18.5-3.1-35.3-11.8-50.1-22.5-14.8-10.7-27.9-23.8-39.7-37.3-12-13.5-25.3-25.8-40-36.2-14.6-10.3-30.7-18.8-47.8-23.4-16.9-4.6-35.4-5.2-50.8 2.1-7.7 3.6-14.2 9.1-19.1 16.1-5 6.9-8.5 14.9-9.8 23.2-2.7 16.7 3.1 34.5 14 47.7 2.7 3.3 5.8 6.3 9 8.8 3.2 2.4 7 4.4 10.9 5.9 7.9 3 16.5 4.2 24.8 3.2 8.2-1 16.1-4.6 21.9-10.1 5.9-5.6 9.9-13.3 11.5-21.3 1.6-8 .7-16.5-3.1-23.6-1.9-3.5-4.4-6.8-7.3-9.4-2.9-2.5-6.3-4.4-10.1-5.4-1.7-.5-5.9-1.4-11.2-.7-5.2.6-11.4 3.2-15.7 7.6-4.4 4.3-6.4 9.9-6.6 14.4-.3 4.5.5 7.8.6 8.2 1.4 5.5.3 6.3-1.6 4-1.2-1.7-3.5-6.7-3.2-13.6.1-6.9 4.1-15.4 11.4-20.4 7.1-5.2 16.2-6.9 23.2-6 7.1.8 11.9 3.7 13.5 4.7 7.8 5.2 13.3 13.2 15.7 22.2 2.4 9 1.6 18.6-1.7 27.3-3.3 8.6-9.2 16.4-17 21.5-7.8 5.1-17.2 7.6-26.5 7.5-9.3-.1-18.5-2.3-26.8-6.6-2.1-1-4-2.2-5.9-3.6H82.3l1.5 374.9c28.9 14.5 82.4 21.5 135.8 11.9-45 20.3-126.5 29.8-150.4 32.3-18.7 4.4-44.3 4.3-60.6 3.4-9.3-.5-13.4 7.2 0 8.9 251.9 31.8 231.2-63 491.4-8.9-116.9-118.5-364.4 4.8-376.4-123.8zm54.9-408.9c17.7 5.1 34.1 13.8 49 24.4 14.9 10.6 28.4 23 40.5 36.5 11.9 13.8 24.7 26.5 39.2 37 14.4 10.4 30.8 18.5 48 21 17.2 2.6 35.1-1.5 48.9-11.9 13.7-10.3 24-25.9 26.6-42.7 2.7-16.8-3.2-34.5-14.4-47.4-.4-.5-1-1-1.4-1.5-2.8-2.8-6.1-5.6-9.7-8.4-2.8-1.8-5.9-3.5-9.1-4.7-7.9-3.1-16.5-4.4-24.7-3.4-8.2 1-16 4.6-21.7 10.3-5.8 5.7-9.7 13.4-11.3 21.5-1.6 8.1-.7 16.6 3 23.7 1.8 3.5 4.4 6.8 7.3 9.4 2.9 2.5 6.3 4.4 10.1 5.4 1.7.5 5.9 1.4 11.2.7 5.2-.6 11.4-3.2 15.7-7.5 4.4-4.3 6.4-9.9 6.6-14.4.3-4.5-.5-7.8-.6-8.2-1.4-5.5-.3-6.3 1.6-4 1.2 1.7 3.5 6.7 3.2 13.6-.1 6.9-4.2 15.4-11.4 20.4-7.1 5.2-16.2 6.9-23.2 6-7.1-.8-11.9-3.7-13.5-4.7-7.8-5.2-13.3-13.2-15.6-22.2-2.3-9-1.5-18.6 1.7-27.3 3.2-8.6 8.9-16.6 16.7-21.7 7.7-5.2 17.2-7.8 26.4-7.6 2 0 4.1.2 6.1.5-60-39.4-121-77.9-121-77.9s-66.5 42-129.2 82.7c15-3.4 30.7-1.7 45 2.4z"/></svg>
