<svg version="1.1" id="Calque_1" xmlns="http://www.w3.org/2000/svg" xmlns:xlink="http://www.w3.org/1999/xlink" x="0px" y="0px"
	 viewBox="0 0 500 500" style="enable-background:new 0 0 500 500;" xml:space="preserve">
<g>
	<g>
		<path class="st0" d="M256.7,386.6c-4-7.3-13.1-10-20.3-5.9c-40.9,22.3-109.9,59.1-121.1,62.7c-0.1,0-0.3,0.1-0.4,0.1l-2.4,0.9
			c-6.2,1.6-12.9-1-16.3-6.5c-6.4-10.2,2-18.3,5.8-21.3c8.2-6.3,83.7-57.3,89.1-61.3c18.9-13.7,20.4-34.4,20.4-40.5V184.1
			c0-19.3-13.3-35.2-31.7-37.8c-16.2-2.3-35.9,6.2-43.3,30.8c-2.5,8.3-24.1,76.9-30.2,96.2l-47.5,31.6c-6.9,4.6-8.8,14-4.2,20.8
			c4.6,6.9,13.9,8.8,20.8,4.2l51.8-34.6c2.9-1.9,5-4.7,6-8c1.2-3.7,29-91.8,31.9-101.6c2.1-6.8,5.9-10.4,10.2-9.7c3,0.4,6,2.8,6,8.2
			v130.7c0,1-0.3,10.5-8,16.1c-5,3.6-81,54.9-89.9,61.8c-20.7,16-25.8,40.5-12.9,60.9c8.3,13.2,22.9,21,38.1,21
			c4,0,8.1-0.5,12.1-1.6c0.4-0.1,0.5-0.2,0.9-0.3l2.8-1c17.7-5.9,108.1-55,126.1-64.9C257.9,403,260.6,393.9,256.7,386.6z"/>
		<path class="st0" d="M416.4,392.8c-8.9-6.9-84.8-58.2-89.9-61.8c-7.7-5.6-8-15-8-16.1V207.1c0-8.3-6.8-15-15-15s-15,6.8-15,15
			v107.8c0,6,1.5,26.7,20.4,40.5c5.5,4,81,54.9,89.1,61.3c3.9,3,12.2,11.1,5.8,21.3c-2.8,4.3-7.3,6.9-12.1,6.9H216.9
			c-15.9,0-16.6,14-16.6,14.6c-0.2,4,1.4,8,4.2,10.9c2.9,3,6.8,4.6,10.8,4.6h176.4c15.2,0,29.2-7.8,37.5-21
			C442.1,433.3,437,408.8,416.4,392.8z"/>
		<path class="st0" d="M441.2,304.9l-47.5-31.7l-27.4-88C354,145.5,325.4,127,293,116.9c8.1-9.7,13-22.2,13-35.8
			c0.1-30.9-25-56.1-56-56.1s-56.1,25.2-56.1,56.1c0,27.4,20,50.4,46.1,55.1c0.5,0.2,1,0.3,1.6,0.4c53.1,8,84.2,19.5,96,57.6
			l29,93.1c1,3.2,3.2,6.1,6,8l51.9,34.6c2.5,1.7,5.5,2.5,8.3,2.5c4.9,0,9.5-2.3,12.5-6.7C450,318.9,448.2,309.6,441.2,304.9z
			 M250,55c14.1,0,26,12,26,26s-12,26.1-26,26.1c-14.7,0-26-11.5-26-26C223.9,66.9,235.9,55,250,55z"/>
	</g>
</g>
</svg>
