<svg viewBox="0 0 501 447" version="1.1" xmlns="http://www.w3.org/2000/svg" xmlns:xlink="http://www.w3.org/1999/xlink">
    <defs></defs>
    <g id="Page-1" stroke="none" stroke-width="1" fill-rule="evenodd">
        <g id="yogamat" transform="translate(0.000000, -0.413115)" fill-rule="nonzero">
            <path d="M484.265043,59.7827088 C484.265043,35.9528636 464.947136,16.6349572 441.117291,16.6349572 C417.287446,16.6349572 397.96954,35.9528636 397.96954,59.7827088 L397.96954,347.289737 C408.769141,335.801124 424.105342,328.626392 441.117291,328.626392 C458.12924,328.626392 473.465441,335.801124 484.265043,347.289737 L484.265043,59.7827088 Z M440.846282,447.037322 C440.756312,447.040306 440.665968,447.041809 440.575273,447.041809 L8.35497859,447.041809 C3.92014387,447.041809 0.325,443.446666 0.325,439.011831 L0.325,66.8490899 C0.325,62.4142552 3.92014387,58.8191113 8.35497859,58.8191113 L381.917265,58.8191113 C382.431931,26.5640121 408.739582,0.575 441.117291,0.575 C473.816806,0.575 500.325,27.0831941 500.325,59.7827088 L500.325,387.83409 C500.325,420.533615 473.816806,447.041809 441.117291,447.041809 C441.026596,447.041809 440.936251,447.040306 440.846282,447.037322 Z M440.846282,430.986339 C440.936251,430.983356 441.026596,430.981852 441.117291,430.981852 C464.947136,430.981852 484.265043,411.663946 484.265043,387.834101 C484.265043,364.004255 464.947136,344.686349 441.117291,344.686349 C417.287446,344.686349 397.96954,364.004255 397.96954,387.834101 C397.96954,398.540739 381.909582,398.540739 381.909582,387.834101 L381.909582,74.8790685 L16.3849572,74.8790685 L16.3849572,430.981852 L440.575273,430.981852 C440.665968,430.981852 440.756312,430.983356 440.846282,430.986339 Z M53.965257,261.495771 C48.052144,261.495771 43.2586188,256.702246 43.2586188,250.789133 C43.2586188,244.87602 48.052144,240.082495 53.965257,240.082495 C59.8783699,240.082495 64.6718951,244.87602 64.6718951,250.789133 C64.6718951,256.702246 59.8783699,261.495771 53.965257,261.495771 Z M53.965257,327.876927 C48.052144,327.876927 43.2586188,323.083402 43.2586188,317.170289 C43.2586188,311.257176 48.052144,306.463651 53.965257,306.463651 C59.8783699,306.463651 64.6718951,311.257176 64.6718951,317.170289 C64.6718951,323.083402 59.8783699,327.876927 53.965257,327.876927 Z M96.7918094,361.067505 C90.8786965,361.067505 86.0851713,356.27398 86.0851713,350.360867 C86.0851713,344.447754 90.8786965,339.654229 96.7918094,339.654229 C102.704922,339.654229 107.498448,344.447754 107.498448,350.360867 C107.498448,356.27398 102.704922,361.067505 96.7918094,361.067505 Z M96.7918094,294.686349 C90.8786965,294.686349 86.0851713,289.892824 86.0851713,283.979711 C86.0851713,278.066598 90.8786965,273.273073 96.7918094,273.273073 C102.704922,273.273073 107.498448,278.066598 107.498448,283.979711 C107.498448,289.892824 102.704922,294.686349 96.7918094,294.686349 Z M53.965257,394.258084 C48.052144,394.258084 43.2586188,389.464558 43.2586188,383.551445 C43.2586188,377.638332 48.052144,372.844807 53.965257,372.844807 C59.8783699,372.844807 64.6718951,377.638332 64.6718951,383.551445 C64.6718951,389.464558 59.8783699,394.258084 53.965257,394.258084 Z M139.618362,261.495771 C133.705249,261.495771 128.911724,256.702246 128.911724,250.789133 C128.911724,244.87602 133.705249,240.082495 139.618362,240.082495 C145.531475,240.082495 150.325,244.87602 150.325,250.789133 C150.325,256.702246 145.531475,261.495771 139.618362,261.495771 Z M139.618362,327.876927 C133.705249,327.876927 128.911724,323.083402 128.911724,317.170289 C128.911724,311.257176 133.705249,306.463651 139.618362,306.463651 C145.531475,306.463651 150.325,311.257176 150.325,317.170289 C150.325,323.083402 145.531475,327.876927 139.618362,327.876927 Z M182.444914,361.067505 C176.531801,361.067505 171.738276,356.27398 171.738276,350.360867 C171.738276,344.447754 176.531801,339.654229 182.444914,339.654229 C188.358027,339.654229 193.151552,344.447754 193.151552,350.360867 C193.151552,356.27398 188.358027,361.067505 182.444914,361.067505 Z M182.444914,294.686349 C176.531801,294.686349 171.738276,289.892824 171.738276,283.979711 C171.738276,278.066598 176.531801,273.273073 182.444914,273.273073 C188.358027,273.273073 193.151552,278.066598 193.151552,283.979711 C193.151552,289.892824 188.358027,294.686349 182.444914,294.686349 Z M139.618362,394.258084 C133.705249,394.258084 128.911724,389.464558 128.911724,383.551445 C128.911724,377.638332 133.705249,372.844807 139.618362,372.844807 C145.531475,372.844807 150.325,377.638332 150.325,383.551445 C150.325,389.464558 145.531475,394.258084 139.618362,394.258084 Z M225.271467,261.495771 C219.358354,261.495771 214.564829,256.702246 214.564829,250.789133 C214.564829,244.87602 219.358354,240.082495 225.271467,240.082495 C231.18458,240.082495 235.978105,244.87602 235.978105,250.789133 C235.978105,256.702246 231.18458,261.495771 225.271467,261.495771 Z M225.271467,327.876927 C219.358354,327.876927 214.564829,323.083402 214.564829,317.170289 C214.564829,311.257176 219.358354,306.463651 225.271467,306.463651 C231.18458,306.463651 235.978105,311.257176 235.978105,317.170289 C235.978105,323.083402 231.18458,327.876927 225.271467,327.876927 Z M268.098019,361.067505 C262.184906,361.067505 257.391381,356.27398 257.391381,350.360867 C257.391381,344.447754 262.184906,339.654229 268.098019,339.654229 C274.011132,339.654229 278.804657,344.447754 278.804657,350.360867 C278.804657,356.27398 274.011132,361.067505 268.098019,361.067505 Z M268.098019,294.686349 C262.184906,294.686349 257.391381,289.892824 257.391381,283.979711 C257.391381,278.066598 262.184906,273.273073 268.098019,273.273073 C274.011132,273.273073 278.804657,278.066598 278.804657,283.979711 C278.804657,289.892824 274.011132,294.686349 268.098019,294.686349 Z M225.271467,394.258084 C219.358354,394.258084 214.564829,389.464558 214.564829,383.551445 C214.564829,377.638332 219.358354,372.844807 225.271467,372.844807 C231.18458,372.844807 235.978105,377.638332 235.978105,383.551445 C235.978105,389.464558 231.18458,394.258084 225.271467,394.258084 Z M310.924572,261.495771 C305.011459,261.495771 300.217934,256.702246 300.217934,250.789133 C300.217934,244.87602 305.011459,240.082495 310.924572,240.082495 C316.837685,240.082495 321.63121,244.87602 321.63121,250.789133 C321.63121,256.702246 316.837685,261.495771 310.924572,261.495771 Z M310.924572,327.876927 C305.011459,327.876927 300.217934,323.083402 300.217934,317.170289 C300.217934,311.257176 305.011459,306.463651 310.924572,306.463651 C316.837685,306.463651 321.63121,311.257176 321.63121,317.170289 C321.63121,323.083402 316.837685,327.876927 310.924572,327.876927 Z M53.965257,122.309475 C48.052144,122.309475 43.2586188,117.51595 43.2586188,111.602837 C43.2586188,105.689724 48.052144,100.896199 53.965257,100.896199 C59.8783699,100.896199 64.6718951,105.689724 64.6718951,111.602837 C64.6718951,117.51595 59.8783699,122.309475 53.965257,122.309475 Z M53.965257,188.690632 C48.052144,188.690632 43.2586188,183.897107 43.2586188,177.983994 C43.2586188,172.070881 48.052144,167.277355 53.965257,167.277355 C59.8783699,167.277355 64.6718951,172.070881 64.6718951,177.983994 C64.6718951,183.897107 59.8783699,188.690632 53.965257,188.690632 Z M96.7918094,221.88121 C90.8786965,221.88121 86.0851713,217.087685 86.0851713,211.174572 C86.0851713,205.261459 90.8786965,200.467934 96.7918094,200.467934 C102.704922,200.467934 107.498448,205.261459 107.498448,211.174572 C107.498448,217.087685 102.704922,221.88121 96.7918094,221.88121 Z M96.7918094,155.500054 C90.8786965,155.500054 86.0851713,150.706528 86.0851713,144.793415 C86.0851713,138.880302 90.8786965,134.086777 96.7918094,134.086777 C102.704922,134.086777 107.498448,138.880302 107.498448,144.793415 C107.498448,150.706528 102.704922,155.500054 96.7918094,155.500054 Z M139.618362,122.309475 C133.705249,122.309475 128.911724,117.51595 128.911724,111.602837 C128.911724,105.689724 133.705249,100.896199 139.618362,100.896199 C145.531475,100.896199 150.325,105.689724 150.325,111.602837 C150.325,117.51595 145.531475,122.309475 139.618362,122.309475 Z M139.618362,188.690632 C133.705249,188.690632 128.911724,183.897107 128.911724,177.983994 C128.911724,172.070881 133.705249,167.277355 139.618362,167.277355 C145.531475,167.277355 150.325,172.070881 150.325,177.983994 C150.325,183.897107 145.531475,188.690632 139.618362,188.690632 Z M182.444914,221.88121 C176.531801,221.88121 171.738276,217.087685 171.738276,211.174572 C171.738276,205.261459 176.531801,200.467934 182.444914,200.467934 C188.358027,200.467934 193.151552,205.261459 193.151552,211.174572 C193.151552,217.087685 188.358027,221.88121 182.444914,221.88121 Z M182.444914,155.500054 C176.531801,155.500054 171.738276,150.706528 171.738276,144.793415 C171.738276,138.880302 176.531801,134.086777 182.444914,134.086777 C188.358027,134.086777 193.151552,138.880302 193.151552,144.793415 C193.151552,150.706528 188.358027,155.500054 182.444914,155.500054 Z M225.271467,122.309475 C219.358354,122.309475 214.564829,117.51595 214.564829,111.602837 C214.564829,105.689724 219.358354,100.896199 225.271467,100.896199 C231.18458,100.896199 235.978105,105.689724 235.978105,111.602837 C235.978105,117.51595 231.18458,122.309475 225.271467,122.309475 Z M225.271467,188.690632 C219.358354,188.690632 214.564829,183.897107 214.564829,177.983994 C214.564829,172.070881 219.358354,167.277355 225.271467,167.277355 C231.18458,167.277355 235.978105,172.070881 235.978105,177.983994 C235.978105,183.897107 231.18458,188.690632 225.271467,188.690632 Z M268.098019,221.88121 C262.184906,221.88121 257.391381,217.087685 257.391381,211.174572 C257.391381,205.261459 262.184906,200.467934 268.098019,200.467934 C274.011132,200.467934 278.804657,205.261459 278.804657,211.174572 C278.804657,217.087685 274.011132,221.88121 268.098019,221.88121 Z M268.098019,155.500054 C262.184906,155.500054 257.391381,150.706528 257.391381,144.793415 C257.391381,138.880302 262.184906,134.086777 268.098019,134.086777 C274.011132,134.086777 278.804657,138.880302 278.804657,144.793415 C278.804657,150.706528 274.011132,155.500054 268.098019,155.500054 Z M310.924572,122.309475 C305.011459,122.309475 300.217934,117.51595 300.217934,111.602837 C300.217934,105.689724 305.011459,100.896199 310.924572,100.896199 C316.837685,100.896199 321.63121,105.689724 321.63121,111.602837 C321.63121,117.51595 316.837685,122.309475 310.924572,122.309475 Z M310.924572,188.690632 C305.011459,188.690632 300.217934,183.897107 300.217934,177.983994 C300.217934,172.070881 305.011459,167.277355 310.924572,167.277355 C316.837685,167.277355 321.63121,172.070881 321.63121,177.983994 C321.63121,183.897107 316.837685,188.690632 310.924572,188.690632 Z M310.924572,394.258084 C305.011459,394.258084 300.217934,389.464558 300.217934,383.551445 C300.217934,377.638332 305.011459,372.844807 310.924572,372.844807 C316.837685,372.844807 321.63121,377.638332 321.63121,383.551445 C321.63121,389.464558 316.837685,394.258084 310.924572,394.258084 Z" id="Shape"></path>
        </g>
    </g>
</svg>
