<svg version="1.1" id="Calque_1" xmlns="http://www.w3.org/2000/svg" xmlns:xlink="http://www.w3.org/1999/xlink" x="0px" y="0px"
   viewBox="0 0 200 200" style="enable-background:new 0 0 200 200;" xml:space="preserve">
<g>
  <g>
    <path class="st0" d="M178.2,151.6c2.7,0,5.1-2.3,5.1-5.1c0-2.7-2.3-5.1-5.1-5.1H21.8c-2.9,0-5.1,2.3-5.1,5.1
      c0,2.7,2.3,5.1,5.1,5.1H178.2z"/>
    <path class="st0" d="M34.8,189.6H26l10.7-14.5c0.4-0.4,0.6-1,0.6-1.6c0-1.3-1.2-2.5-2.5-2.5H21.1c-1.4,0-2.5,1.2-2.5,2.5
      c0,1.3,1.2,2.5,2.5,2.5h8.7L19,190.5c-0.4,0.4-0.6,1-0.6,1.4c0,1.4,1.2,2.5,2.6,2.5h13.7c1.4,0,2.5-1.2,2.5-2.5
      C37.4,190.8,36.2,189.6,34.8,189.6z"/>
    <path class="st0" d="M55.6,189.6h-10v-4.3h5.1c1.4,0,2.5-1.2,2.5-2.5c0-1.4-1.2-2.5-2.5-2.5h-4.9v-4h9.4c1.4,0,2.6-1.2,2.6-2.5
      c0-1.4-1.2-2.5-2.6-2.5h-12c-1.4,0-2.7,1.2-2.7,2.6v18.2c0,1.4,1.2,2.6,2.7,2.6h12.6c1.4,0,2.6-1.2,2.6-2.5
      C58.2,190.8,57.1,189.6,55.6,189.6z"/>
    <path class="st0" d="M78.2,170.8c-1.4,0-2.5,1.2-2.5,2.6V185l-10.4-13.2c-0.4-0.6-1.2-1-1.9-1c-1.4,0-2.6,1.2-2.6,2.6v18.9
      c0,1.3,1.2,2.5,2.5,2.5c1.4,0,2.6-1.2,2.6-2.5v-11.6L76.3,194c0.4,0.6,1.2,0.9,1.9,0.9c1.4,0,2.6-1.2,2.6-2.5v-18.9
      C80.6,172,79.5,170.8,78.2,170.8z"/>
    <path class="st0" d="M110.3,189.6h-9l10.7-14.5c0.4-0.4,0.6-1,0.6-1.6c0-1.3-1.2-2.5-2.5-2.5H96.4c-1.4,0-2.5,1.2-2.5,2.5
      c0,1.3,1.2,2.5,2.5,2.5h8.7l-10.7,14.5c-0.4,0.4-0.6,1-0.6,1.4c0,1.4,1.2,2.5,2.6,2.5h13.7c1.4,0,2.5-1.2,2.5-2.5
      C112.7,190.8,111.6,189.6,110.3,189.6z"/>
    <path class="st0" d="M125.9,170.7c-6.8,0-12,5.2-12,12.1s5.2,12.1,12,12.1c6.8,0,12-5.2,12-12.1
      C137.9,176,132.7,170.7,125.9,170.7z M125.9,190.1c-4.3,0-6.7-3.6-6.7-7.2c0-3.6,2.3-7.2,6.7-7.2c4.3,0,6.7,3.6,6.7,7.2
      C132.5,186.5,130.2,190.1,125.9,190.1z"/>
    <path class="st0" d="M158.3,170.8c-1.4,0-2.5,1.2-2.5,2.6V185l-10.4-13.2c-0.4-0.6-1.2-1-1.9-1c-1.4,0-2.6,1.2-2.6,2.6v18.9
      c0,1.3,1.2,2.5,2.5,2.5c1.4,0,2.6-1.2,2.6-2.5v-11.6l10.4,13.2c0.4,0.6,1.2,0.9,1.9,0.9c1.4,0,2.6-1.2,2.6-2.5v-18.9
      C160.9,172,159.7,170.8,158.3,170.8z"/>
    <path class="st0" d="M180.2,189.6h-10v-4.3h4.9c1.4,0,2.5-1.2,2.5-2.5c0-1.4-1.2-2.5-2.5-2.5h-4.9v-4h9.4c1.4,0,2.6-1.2,2.6-2.5
      c0-1.4-1.2-2.5-2.6-2.5h-12c-1.4,0-2.7,1.2-2.7,2.6v18.2c0,1.4,1.2,2.6,2.7,2.6h12.6c1.4,0,2.6-1.2,2.6-2.5
      C182.7,190.8,181.5,189.6,180.2,189.6z"/>
    <path class="st0" d="M100,126C100,126.2,100,126.2,100,126C100.1,126,100.1,126,100,126c37.3,0,67.5-30.4,67.5-67.5
      c0-11-2.7-21.8-7.8-31.4c-0.9-1.7-2.6-2.7-4.5-2.7c-10,0-19.5,2.2-28.2,6.2c-5.8-10-14-18.6-24.4-24.9c-1.6-1-3.6-1-5.3,0
      C86.8,12,78.6,20.6,72.8,30.6c-8.7-4-18.2-6.2-28.2-6.2c-1.9,0-3.6,1-4.5,2.7c-5.1,9.7-7.8,20.5-7.8,31.4
      C32.6,95.8,62.8,126,100,126z M77.6,44.9c6.8,4.6,12.4,10.8,16.8,18.2c-4.2,8.8-6.5,18.5-6.5,28.9c0,4.5,0.4,9.1,1.4,13.4
      C79.5,94.7,74,80.6,74,65.6C74,58.4,75.1,51.4,77.6,44.9z M126.2,65.6c0,19.1-8.8,36.6-24,47.9c-2.7-6.8-4.2-14-4.2-21.4
      c0-19.4,9.7-36.6,24.6-47C125,51.4,126.2,58.4,126.2,65.6z M152.2,34.8c3.5,7.5,5.2,15.5,5.2,23.9c0,25.4-16.6,47-39.5,54.5
      c11.9-12.7,18.5-29.5,18.5-47.4c0-9-1.7-17.6-4.9-25.7C137.9,37,144.8,35.1,152.2,34.8z M100,16.2c7.5,5.2,13.7,11.9,18.2,19.4
      c-7.1,4.6-13.3,10.7-18.1,17.6c-4.9-7.1-11.1-13-18.2-17.6C86.4,28,92.5,21.4,100,16.2z M48,34.8c7.2,0.4,14.2,2.2,20.7,5.1
      c-3.2,8-4.9,16.6-4.9,25.7c0,18.1,6.8,34.7,18.5,47.6C59.4,105.5,42.8,84,42.8,58.7C42.8,50.3,44.5,42.2,48,34.8z"/>
  </g>
</g>
</svg>
