<svg xmlns='http://www.w3.org/2000/svg' viewBox='0 0 696 830' fill='none'><symbol id='AEXC_Fill'>
  <g fill="none">
    <path fill="#9BADFA" d="m590.5 423.3-1 35-3 25-2 24c-3 27-10 53-23 77a321.6 321.6 0 0 1-77 99c-20 17-43 28-68 34l-33 7-18 2c-8 1-17 2-25 1-20-1-39-5-58-9-29-6-55-20-76-40a298.2 298.2 0 0 1-82-116c-6-15-10-30-12-45l-6-53v-12a544 544 0 0 1 7-114c3-16 8-32 14-48l18-47c5-12 11-23 17-33 10-13 19-27 30-39a170.5 170.5 0 0 1 83-57l19-6c15-5 30-7 46-6h15c15-1 30 0 44 5l37 14a187 187 0 0 1 65 47c18.6 23.4 35 48.5 49 75l18 49a283.7 283.7 0 0 1 20 98l2 33Z"/>
    <path fill="#FFF" d="m576.5 433.3-1 26-3 24-3 24c-2 19-6 37-14 55a282.7 282.7 0 0 1-79 105c-19 16-41 27-66 33l-29 5a230 230 0 0 1-37 4c-10 0-21-2-31-4l-28-5c-25-6-48-17-67-35-13-12-26-24-37-38-18-23-33-47-44-74-5-12-8-25-10-38l-4-33-2-25-1-8v-20c0-17 0-33 2-49 2-27 7-52 16-77l21-53c3-9 8-17 13-25 10-15 20-30 32-43 15-17 32-30 52-40a302.9 302.9 0 0 1 60-21l17-1h29c10 0 20 1 30 4 16 5 32 10 47 18 22 11 41 25 56 44l24 33c9 11 15 24 20 37l17 43c11 28.8 17 59.2 18 90l2 44Zm-5 12-1-21a727.2 727.2 0 0 0-9-75c-3-18-9-35-15-52l-14-36c-6-16-14-31-23-45l-7-10-21-27c-14-16-30-29-50-36l-30-9c-16-4-33-7-50-8l-17 1-16 2c-18 3-36 8-53 14-13 5-24 11-35 20a651.7 651.7 0 0 0-44 54c-9 14-16 28-22 43l-15 38-5 13c-8 25-13 50-15 76l-2 19-2 40a196 196 0 0 0 7 59l9 35c9 27 23 52 41 75 15 19 32 35 50 50 16 13 34 23 54 29l32 7c17.4 4 35.4 4.2 53 1l26-5c28-6 53-19 75-39l23-22a228.3 228.3 0 0 0 61-101l9-34c4-19 6-37 6-56Z"/>
    <path fill="#FFF" d="M173.5 420.3c0-11 0-22 2-33l5-27 4-16c8-29 21-56 39-80l16-20 10-12c12.3-14 26.8-25.8 43-35a165 165 0 0 1 54-16l8 1c19.3 3 38 9.4 55 19 11 8 21 16 30 26l26 31c23 28 38 59 46 94 3.4 18.3 6.4 36.6 9 55 0 21.7-1.2 43.4-4 65-3 19-9 38-18 56l-11 25-13 20-16 20c-8 8-16 16-25 22-14 9-29 18-45 24-11 4-22 7-34 9l-19-1c-18-3-35-9-51-18l-18-11c-13-7-24-17-34-29l-10-12c-7-9-13-18-17-28l-15-32c-7-16-11-33-14-50-2-16-3-31-3-47Zm340 9-1-20-2-21c-3-17-8-34-13-51-6-17-14-33-23-49l-11-21a149.6 149.6 0 0 0-36-42l-17-12-18-10c-13-6-26-10-38-14-5-2-10-2-15 0l-22 8c-10 3-20 7-30 13l-23 16-6 5c-9 9-17 18-23 29l-21 36c-8 15-15 32-20 48l-8 29-6 42c0 18 0 36 2 53 2 14 5 28 10 41 8.9 21 19.6 41 32 60a224 224 0 0 0 80 61c7 4 15 7 23 9l10 2c6 2 12 2 17 1a145.9 145.9 0 0 0 55-23c21-12 39-27 56-45 6-7 13-15 17-24l15-32c6-12 9-24 12-37 3-17 4-34 4-52Z"/>
    <path fill="#9BADFA" d="M513.5 429.3c0 18-1 35-4 52-3 13-6 25-12 37l-15 32a236.5 236.5 0 0 1-128 92c-5 1-11 1-17-1l-10-2a285.4 285.4 0 0 1-103-69l-11-16-21-45c-5-13-8-27-10-41a318.7 318.7 0 0 1 4-95l8-29c5-16 12-33 20-48l21-36a141 141 0 0 1 29-34l23-16c10-6 20-10 30-13l22-8c5-2 10-2 15 0 12 4 25 8 38 14l18 10 17 12 13 11c9 9 16 20 23 31l11 21c9 16 17 32 23 49a492.4 492.4 0 0 1 15 72l1 20Zm-99 54c0 8-1 16 1 24l1 9 1 1v-1l1-8 2-31-1-8c0-1 1-2 2-1l17 9 1 3 2 21 2 9 1 1 1-1v-28l1-1 9 5 19 9 4 1h1v-1l-4-3c-7-7-14-12-22-17-1-1-3-1-3-3l4-2 16-8c2 0 3-2 5-3v-1l-1-1-7 2-21 9h-3l-16-9v-2l3-1c9-5 18-10 26-17l7-6v-2l-2 1a683 683 0 0 0-43 21l-19-8-3-2v-1l2-1 18-10 9-5 3-2v-1h-1l-2 1a162.6 162.6 0 0 0-32 14c-3 2-2 3-5 1l-16-11-15-10-1-1v-1l1-1c10-7 21-13 33-18l3 1a238 238 0 0 0 37 17v-1l-3-3c-8-6-16-11-25-15l-2-1-1-1 3-2 13-7h5l26 15 13 5 3 1 1-1-3-3-11-8-24-13c-2 0-2-1-1-2l16-11 4-1a306 306 0 0 0 26 12l5 1h1l-1-1-5-4-21-11c-2-1-2-1-1-3l11-5 7-3c6-1 10-4 14-8l2-3c0-1 0-2-2-3h-1l-12 5-9 6c-4 3.2-8.3 6-13 8l-1-1v-1c1-8 2-16 1-25v-2l-1-4c-2 1-2 3-2 4-2 10-4 20-3 30 0 2-1 3-3 4l-18 7c-1 1-1 1-1-1l1-8c.5-12.7-.5-25.5-3-38h-1l-1 2-1 18-2 29c0 2 0 3-2 4l-13 8-1 1h-1v-24l-1-14-1-1-1 1-1 3-1 8v28c0 3-1 5-3 6-10 8-21 14-32 19h-2c-2 1-2 0-2-1v-10c1-12 4-23 3-35l3-3 19-11 8-6 2-2v-1l-2 1a95 95 0 0 0-29 14l-1-1v-1l-2-16c0-3 0-3 2-4l34-19 7-6 1-1h-2l-10 3c-11 5-21 11-31 18-1 1-2 1-2-1l-1-20c0-2 1-3 3-4 8-4 16-9 22-15l3-3-1-1-3 1a91 91 0 0 0-21 13h-1l1-7c1.2-10 .2-20.3-3-30l-2-1-1 1-1 3c-3 9-3 18-2 27l1 6-1 1h-1l-2-1c-5-5-12-9-18-12-1 0-3-2-4 0l2 3c7 6 14 11 22 15 2 1 3 2 3 5v19c0 1-1 2-2 1l-1-1c-11-7-22-13-34-18l-7-2h-1l1 1 8 6c10 7 21 14 33 19 2 1 2 1 2 3l-2 17c-1 2-1 2-3 1-7-5-14-8-21-11l-8-3-1 1h1l7 6 22 12 2 5 1 12 2 22 1 10c0 1-1 2-2 1h-2l-13-7c-7-3-14-8-20-12-2-1-2-3-2-5v-6c-.5-10.7-1.2-21.3-2-32l-1-3-1 3-1 4-1 13 1 18c0 1-1 2-2 1l-13-9c-2-1-3-2-3-4l-1-31-1-16-1-2h-1v2c-2.4 14.5-3 29.3-2 44 0 2 0 2-2 1l-17-7-1-1-2-2v-2c0-10-2-20-4-30v-2l-1-1-1 1-1 4 1 26c1 2 0 3-2 2l-11-8-9-6c-4.2-2.6-9.1-4-14-4-1 0-2 1-1 2l2 3c4 4 8 7 13 9l8 2c4 1 7 3 11 6v1l-2 1-21 12-5 3v1h5c8.9-3.5 17.6-7.5 26-12h5l15 11 1 1v1l-2 1a209 209 0 0 0-36 21l-1 2 3 1 8-4 32-17h5l13 8c1 0 3 0 2 1l-2 2a95.2 95.2 0 0 0-28 18v1h1l6-2c10-5 20-9 29-15h4c12 4 22 10 32 17h1v3l-18 12-14 9h-4l-9-6-21-9-5-1 4 4 25 14 2 1v1l-1 1-21 10-2-1-11-6-23-12-9-3 2 3 14 11 19 10 1 1v2l-15 9h-3a117 117 0 0 0-28-10h-1v1l3 2 13 7 7 3c2 1 2 1 1 3l-9 5c-7 5-13.2 10.7-19 17h1l4-1c9-3 16-8 24-12l5-2v5l-1 17 1 8h1l2-6 2-24c0-2 1-4 3-5l14-7c1-1 2-2 3-1v3c-1 11 0 21 1 32l1 12 1 2 1-2 1-4 1-20v-25c0-2 0-3 2-4l13-10 5-4h2v1l-2 10c-1 10-1 21 1 31l1 3 1-3c3-14 4-29 3-43 0-2 0-3 2-4l14-7c7-3 14-5 20-9l2-1v7l-3 30a598.2 598.2 0 0 0-20 19c-4 2-6 5-9 8l-3 2v2h1l3-2 12-8 14-11c1-1 2 0 2 1l2 16 1 3c0 2 0 3-2 3l-1 1-40 28-2 4 4-2 20-11c7.6-4 14.7-9 21-15h1v1l-2 25c0 1 0 2-2 3l-1 1c-8 5-15 11-21 17l-3 4 1 1 4-2c6-3 12-8 18-13l2-2h1v18l1 11 3 9 1 1 2-1 1-3 2-13v-21l1-1h1l2 2c6 5.8 12.7 11 20 15h2v-2l-3-4c-7-6-13-12-21-17-2-1-3-2-3-4l-1-17v-8h2a217 217 0 0 0 39 26l5 2c0-3-2-4-4-5-13-9-25-19-39-27-2-1-3-2-2-4l1-8 2-11c0-2 0-2 2-1l1 1a274 274 0 0 0 28 20h1v-1l-11-11-18-14c-2-1-3-3-3-5l-2-25-2-11 2-1v1l21 9 14 7 2 3c-1 13 0 26 2 39l1 7 1 1 1-1 1-8v-24l-2-11v-1h1l3 2 16 12 2 4v17Zm13 60c5 0 8-3 8-7a8 8 0 1 0-14.7-6.5 8 8 0 0 0-.4 5.5c0 5 3 8 7 8Zm-140 56c0-4-4-8-8-8-3 0-7 4-7 7 0 4 3 8 7 8s8-3 8-7Zm165-296c0-4-3-6-7-6-3-1-6 2-6 6-1 4 2 7 6 7s7-3 7-7Zm-250 126c-3 0-6 3-5 6 0 3 2 5 5 5s5-2 5-5-2-6-5-6Zm44-133c0 3 2 6 5 6 2 0 5-2 5-5s-2-6-5-6-5 3-5 5Zm-48 63c0 3 2 6 5 6s5-2 5-4c0-3-2-6-5-6s-5 2-5 4Zm300 102c0-3-2-5-4-5-3 0-5 2-5 5s2 5 5 5c2 0 4-2 4-5Zm-171-5c0-3-2-4-5-4-2 0-4 2-4 4s2 4 5 4c2 0 4-2 4-4Zm56 164c0-2-2-4-4-4s-3 2-3 4 1 4 3 4c3 0 4-1 4-4Zm-84-69c0-2-2-4-4-4s-4 2-4 4 2 4 4 4 4-2 4-4Zm145 22c-2 0-3 2-3 4s1 3 3 3 4-1 4-3-2-4-4-4Zm-174 3c0-2-1-3-3-3s-4 1-3 3c0 2 1 4 3 3 2 0 3-1 3-3Zm226-183c-2 0-4 1-4 3 1 2 2 3 4 3 1 0 3-1 3-3s-2-3-3-3Zm-23 26c0 2 1 4 3 4s3-1 3-3-1-4-3-4-3 2-3 3Zm-216 108c0-2-1-3-3-3s-3 1-3 3a3 3 0 0 0 3 3 3 3 0 0 0 3-3Zm112-307c2 0 3-2 3-3 0-2-1-3-3-3-1 0-3 1-3 3 0 1 1 3 3 3Zm15 48c1 1 3-1 3-2 0-2-2-3-3-3-2 0-3 1-3 2 0 2 1 3 3 3Zm-81-22c-2 0-3 1-3 3l3 2c2 0 3-1 3-3l-3-2Zm-86 175c2 0 3-1 3-2s-1-2-3-2l-2 2 2 2Zm199 140 2-2c0-2-1-3-2-3l-3 2c0 2 1 3 3 3Zm-47-172c0-2-1-3-2-3-2 0-3 1-3 3 0 1 1 2 3 2l2-2Zm4-25-3 2c0 2 2 3 3 3s2-1 2-3l-2-2Zm-49 5c-2 0-3 1-3 3 0 1 1 2 3 2l2-2-2-3Zm-44-123-1-2-2 2 2 1 1-1Z"/>
    <path fill="#FFF" d="M414.5 483.3v-17l-2-4-16-12-3-2h-1v1l2 11v24l-1 8-1 1-1-1-1-7c-2-13-3-26-2-39l-2-3-14-7-21-9v-1l-2 1 2 11 2 25c0 2 1 4 3 5l18 14 11 11v1h-1l-3-2c-9-6-17-11-25-18l-1-1c-2-1-2-1-2 1l-2 11-1 8c0 2 0 3 2 4 14 8 26 18 39 27 2 1 4 2 4 4-2 1-4 0-5-1a217.2 217.2 0 0 1-41-25v6l1 18c0 2 1 3 3 4 9 5.8 17 13 24 21v2h-2l-3-2c-6-3-12-8-17-13l-2-2h-2v22a40 40 0 0 1-3 16l-2 1-1-1-3-9-1-11v-18h-1l-2 2c-6 5-12 10-18 13l-4 2-1-1 3-4c6-6 13-12 21-17l1-1c2-1 2-2 2-3l2-25v-1h-1l-2 1-19 14-20 11c-1 1-3 2-4 1l2-3 40-28 1-1c2 0 2-1 2-3l-1-3-2-16c0-1-1-2-2-1l-14 11-12 8-3 2h-1v-2l3-2 8-8c6.8-6.5 13.8-12.9 21-19l3-30v-7l-2 1c-6 4-13 6-20 9l-14 7c-2 1-2 2-2 4 1 14 0 29-3 43l-1 3-1-3c-2-10-2-21-1-31l2-10v-1h-2l-5 4-13 10c-2 1-2 2-2 4v25l-1 20-1 4-1 2-1-2-1-12c-1-11-2-22-1-32v-3c-1-1-2 0-3 1l-14 7c-2 1-3 3-3 5l-2 24-2 6h-1l-1-8 1-17v-5l-5 2c-8 4-15 9-24 12l-4 1h-1v-1l2-2 17-14 9-5c1-2 1-2-1-3l-7-3-13-7-3-2v-1l1-1 3 1a96.9 96.9 0 0 1 25 10h3l15-9v-2l-1-1-19-10-14-11-2-3v-1h2l7 4 23 12 11 6 2 1 21-10 1-1v-1l-2-1-25-15c-2 0-3-2-4-3l5 1a153 153 0 0 1 30 15h4l14-9 18-12v-3h-1c-10-7-20-13-32-17h-4a213.4 213.4 0 0 1-35 17h-1v-1l3-3c8-7 16-11 25-15l2-2c1-1-1-1-2-1l-13-8h-5a371.1 371.1 0 0 1-40 21l-3-1 1-2 5-4 31-17 2-1v-1l-1-1-15-11h-5a306 306 0 0 1-26 12h-5v-1c2-1 3-3 5-3l21-12 2-1v-1c-4-3-7-5-11-6l-8-2c-5-2-9-5-13-9l-2-3c-1-1 0-2 1-3l2 1c5 0 9 2 12 4l9 6 11 8c2 1 3 0 2-2-.7-10-.7-20 0-30l1-1 1 1v2c2 10 4 20 4 30v2l2 2 1 1 19 6-1-21c.4-8.4 1.4-16.7 3-25l1-1v1l1 2 1 16a1337 1337 0 0 1 4 35l13 9c1 1 2 0 2-1l-1-18 1-13 1-4 1-3 1 3 1 8c1.2 11.7 2.2 23.3 3 35 6 4 13 9 20 12l13 7h2c1 1 2 0 2-1l-1-10-2-22-1-12-2-5-22-12-7-6h-1l1-1 8 3c7 3 14 6 21 11 2 1 2 1 3-1l2-17c0-2 0-2-2-3-12-5-23-12-33-19l-8-6-1-1h1l7 2c12 5 23 10 34 18l1 1c1 1 2 0 2-1v-19c0-3-1-4-3-5-8-4-15-9-22-15l-2-3c1-2 3 0 4 0 6 3 13 7 18 12l2 1h1l1-1-1-6c-1-9-1-18 2-27l1-3 1-1 2 1 1 3c3 9 3 18 2 27l-1 7h1l2-2 19-11 3-1h1v1l-3 3c-6 6-14 11-22 15-2 1-3 2-3 4l1 20c0 2 1 2 2 1 10-8 20-13 31-18l10-3h2l-1 1-7 6-34 19c-2 1-2 1-2 4l2 16v1l1 1 3-2c8.6-5.8 18-10.2 28-13v1l-2 2-8 6c-7.3 4.8-14.6 9.4-22 14 1 12-2 23-3 35v10c0 1 0 2 2 1h2c11-5 22-11 32-19 2-1 3-3 3-6v-9c.5-10 1.2-20 2-30l1-1 1 1 1 14v24h1l1-1 13-8c2-1 2-2 2-4l2-29 1-18 1-2h1l1 5 2 33-1 8c0 2 0 2 1 1l18-8c2 0 3-1 3-3-1-10 1-20 3-30 0-1 0-3 2-4l1 4v2c1 9 0 17-1 25v1l1 1 3-1 10-7 9-6c3.8-2.8 8.3-4.5 13-5 2 1 2 2 2 3l-2 3c-4 4-8 7-14 8l-7 3-11 5c-1 2-1 2 1 3l21 11 5 4 1 1h-1l-5-1c-8.8-3.7-17.5-7.7-26-12l-4 1-16 11c-1 1-1 2 1 2l24 13 11 8 3 3-1 1-3-1-13-5a884.2 884.2 0 0 1-31-15l-13 7-3 2 1 1 2 1c9 4 17 9 25 15l3 3v1h-2l-35-17-3-1c-12 5-23 11-33 18l-1 1v1l1 1 15 10 16 11c3 2 2 1 5-1l8-4c8-4 15-8 24-10l2-1h1v1l-3 2-9 5-18 10-2 1v1l3 2 19 8 3 1c13.9-7.8 27.9-15.4 42-23v2l-7 6c-8 7-17 12-26 17l-3 1v2l16 9h3l21-9 7-2 1 1v1c-2 1-3 3-5 3l-16 8-4 2c0 2 2 2 3 3 8 5 15 10 22 17l4 3v1h-1l-4-1-19-9-9-5-1 1v28l-1 1-1-1-2-9-2-21-1-3-17-9c-1-1-2 0-2 1l1 8-2 31-1 8v1l-1-1-1-9c-2-8-1-16-1-24Z"/>
    <path fill="#FFF" d="M427.5 543.3c-4 0-7-3-7-8 0-4 3-7 8-7 4 0 7 3 7 8 0 4-3 7-8 7Zm-140 56c0 4-4 7-8 7s-7-4-7-8c0-3 3-7 7-7s8 4 8 8Zm165-296c0 4-3 7-7 7s-7-3-6-7c0-4 3-7 6-6 4 0 7 2 7 6Zm-250 126c3 0 5 3 5 6s-2 5-5 5-5-2-6-5c0-3 3-6 6-6Zm44-133c0-2 2-5 5-5s5 3 5 6c0 2-3 5-5 5-3 0-5-3-5-6Zm-48 63c0-2 2-4 5-4s5 3 5 6c0 2-2 4-5 4s-5-3-5-6Zm300 102c0 3-2 5-4 5-3 0-5-2-5-5s2-5 5-5c2 0 4 2 4 5Zm-171-5c0 2-2 4-4 4-3 0-5-2-5-4s2-4 4-4c3 0 5 1 5 4Zm56 164c0 3-1 4-4 4-2 0-3-2-3-4s1-4 3-4 4 2 4 4Zm-84-69c0 2-2 4-4 4s-4-2-4-4 2-4 4-4 4 2 4 4Zm145 22c2 0 4 2 4 4s-2 3-4 3-3-1-3-3 1-4 3-4Zm-174 3c0 2-1 3-3 3s-3-1-3-3c-1-2 1-3 3-3s3 1 3 3Zm226-183c1 0 3 1 3 3s-2 3-3 3c-2 0-4-1-4-3s2-3 4-3Zm-23 26c0-1 1-3 3-3s3 2 3 4-1 3-3 3-3-2-3-4Zm-216 108c0 2-1 3-3 3s-3-1-3-3 1-3 3-3 3 1 3 3Zm112-307c-2 0-3-2-3-3 0-2 2-3 3-3 2 0 3 1 3 3 0 1-1 3-3 3Zm15 48c-2 0-3-1-3-3 0-1 1-2 3-2 1 0 3 1 3 3 0 1-2 3-3 2Zm-81-22 3 2c0 2-1 3-3 3s-3-1-3-2c0-2 1-3 3-3Zm-86 175-2-2 2-2c2 0 3 1 3 2s-1 2-3 2Zm199 140c-2 0-3-1-3-3l3-2c1 0 2 1 2 3l-2 2Zm-47-172-2 2c-2 0-3-1-3-2 0-2 1-3 3-3 1 0 2 1 2 3Zm4-25 2 2c0 2-1 3-2 3s-3-1-3-3l3-2Zm-49 5c1 0 2 1 2 3l-2 2c-2 0-3-1-3-2 0-2 1-3 3-3Zm-44-123-1 1-2-1 2-2 1 2ZM344.9 598c0 .4-.3 6.8-.2 13.3-6.8.5-5.7-13.3-5.3-15 .2-1.4-4.4 1.7-6.6 3.8.7 1.3 1.7 1 2.9.5-.4 6.2 3.9 11.8 9 11.7.2 6.4.9 12.5 2.7 13 .2.1.4-6.5.6-13.7 12.2-3.8 7.6-18.3 7.6-18.3-.2-.8-2 .3-6 4 1.6 1.6 2.3.6 3.6.2 1 2 1.4 10.5-5.1 13.1l.3-18c0-.2-.2-.3-.4-.3-1.8.2-5 3.4-7.5 6.1 1.3 2.1 3 .1 4.4-.4m5.9 19.1 2.8 2.8 2.8-2.8-2.8-2.8-2.8 2.8Z"/>
  </g>
</symbol></svg>
