<svg xmlns='http://www.w3.org/2000/svg' viewBox='0 0 696 830' fill='none'><symbol id='ALHC_Fill'>
  <g fill="none">
    <path fill="#9BADFA" d="M590 422c0 15 0 30-2 45l-4 38-5 33c-4 16-11 32-18 48-14 27-31 52-53 73l-22 22c-22 19-47 32-75 38l-45 7c-13 2-26 2-40 0l-42-7c-29-7-55-20-78-41a290.4 290.4 0 0 1-85-123c-4-12-7-25-9-38l-6-53v-12c-1.6-37.5.7-75 7-112 3-18 8-35 15-52l17-45c5-11 10-22 17-33l31-41c20.6-25.2 48-44 79-54l31-10c9-3 19-3 28-3h33l29 3 48 18c25 11 47 28 64 50l29 40c7 11 13 22 18 35l15 39a309.3 309.3 0 0 1 22 116l1 19Z"/>
    <path fill="#FFF" d="M120 432c0-23 1-42 3-61 3-29 11-58 22-86l13-32c4-11 9-21 16-31 9-13 18-26 29-39 13-16 29-28 47-38 19-10 39-17 59-22 6-2 12-3 18-2h40c8-1 16 0 23 3 17 5 35 10 51 19 20 10 38 24 53 42a486.4 486.4 0 0 1 44 67l20 53c7 20 11 40 14 60 3 27 4 54 4 80l-3 31-3 24c-2 31-12 60-28 87-13 23-28 43-47 61l-16 17c-20 18-44 29-70 35l-35 7-21 2c-7 1-14 0-22-1l-40-7c-29-6-55-18-76-38-9-9-18-17-26-27-24-27-43-57-55-92-4-11-6-23-7-34l-6-45-1-33Zm451 13-2-34-3-34c-3-23-8-46-15-67a2406.9 2406.9 0 0 0-32-78c-11-19-24-37-38-53-13-16-29-28-48-35-24-8-47-15-72-17l-12-1-11 1-22 2c-17 3-33 8-48 13a125.2 125.2 0 0 0-58 42l-25 34c-8 13-15 26-21 41l-15 41a323.8 323.8 0 0 0-23 115l-1 17c-1 17 0 34 3 51l8 39c9 39 28 73 54 103 12 13 24 25 38 37 16 14 35 25 56 31 10 4 21 5 32 8l11 2c9 1 19 2 28 1 7 0 15-1 22-3l11-2 28-7c21-7 40-19 56-34l28-27c25-26 43-57 55-90 4-12 6-25 9-37 4-19 7-39 7-59Z"/>
    <path fill="#FFF" d="M173 421c-1-21 2-42 8-62l5-21c8-27 20-52 37-74l16-19 12-14c10-12 22-22 35-30 9-6 20-10 30-14l27-6 14 1c17.9 3.5 35.2 9.9 51 19 13 8 24 18 34 30l16 18c21 24 36 51 46 80l9 33c3 10 5 20 6 31l1 11c1.3 26.8-.7 53.7-6 80-3 12-7 24-12 35l-15 33a605.4 605.4 0 0 1-48 58c-16 12-32 21-50 29-11 4-22 7-33 8h-23c-17-4-32-9-46-17a274.6 274.6 0 0 1-46-31 225.5 225.5 0 0 1-33-43l-20-44a309.2 309.2 0 0 1-15-92v1Zm173 222 7-1c10-2 19-4 28-8 11-4 21-10 31-16 20-13 39-28 55-46 6-7 11-14 15-23l11-21a185.2 185.2 0 0 0 20-75c0-2-1-3-3-2l-9 5c-12.6 7.5-26 13.6-40 18l-22 13-9 5c-18 8-37 13-56 15l-22 3c-7 0-12 3-17 8l-18 16-19 13-4 2-1-1v-1l2-1 9-10c8-10 17-19 27-26 5-4 10-7 16-8l18-4c20-5 41-8 61-14 8-2.6 15.7-6 23-10 2-1 2-1 0-2l-9-10c-4-5-9-9-15-11l-19-8c-4-1-8-4-12-8a78.2 78.2 0 0 1-18-41l3-1 2 3c4 4 8 9 11 15 7 13 17 24 29 33l8 5 8 4c6 2 12 6 16 11 2 2 2 4 4 4s3-2 5-4c4-4 9-7 14-9l14-6 13-4h1l-1-1-10-7c-14-9-25-21-34-36l-11-19c-1-3-4-6-7-8-6-5-13-8-21-10s-14-7-20-13c-9-9-18-17-26-27-6-7-14-11-22-17l-2 1c-3 7-4 13-2 20l1 4c2 6 2 12 0 18-1 6-3 11-8 16l-8 8-12 14-8 10c-4 5-9 9-14 11l-5 2c-5 3-8 6-11 11l-2 4c-4 7-10 13-18 16s-15 5-23 6l-11 1c-2 0-3 1-4 3l-4 8-5 10c-4 8-5 15-2 23l3 14 4 18 1 8c1 9 1 19-1 29l2 6a266.7 266.7 0 0 0 62 52c16 10 32 17 51 21 3 1 7 2 10 1v1ZM227 393l-5-3c-4-2-6-5-7-9l-4-14c-2-7-4-13-3-20l2-9 18-24c4-4 8-7 13-8l8-1h9c8 0 17 1 25 5 5 3 8 6 11 10l9 13h3l8-7c10-9 20-18 31-24 4-3 8-3 11-2 11 3 20 8 26 18a170.7 170.7 0 0 0 35 35l29 20 5 5c6 5 12 11 16 18 1 2 3 3 5 3l7 1 15 1c4 0 8-1 12-4l3-3c2-1 2-2 2-3l-2-7-7-29c-6-24-16-46-28-68l-11-20a149.6 149.6 0 0 0-36-42 2158 2158 0 0 0-36-22c-11-6-23-9-35-13-6-3-13-3-19 0l-14 4a170.2 170.2 0 0 0-89 67l-9 16c-3 5-3 5 0 9l1 1c3 3 3 6 5 10l-1 1h-1l-5-8-2-5h-1l-1 1-14 28c-2 2-1 2 1 4l1 1v2h-1l-3-1h-1l-1 2-8 25c-1 2-1 2 2 2l2 1v2l-4 1c-1 0-2 0-3 2l-3 11v4c2 1 3-1 4-1l5-1 1 1-1 1-2 1-4 1c-3 0-5 1-5 5-1.5 5.6-3 11.3-4 17 0 1 1 2 2 1l10-5c2-2 5-3 7-3s2 1 1 2c-1 2-3 3-6 4l-12 6c-2 1-3 2-3 4l-1 13v9c0 2 1 2 3 1l1-1c14-9 27-20 40-30l3-3v1Zm116-84-4 4-34 33-8 11-8 15c-2 4-5 8-9 11l-12 7c-6 2-11 5-15 10l-14 10-25 9-7 2c-7 5-15 8-23 11h-2l-2 3 2 27v2l2-1c2-4 6-7 9-9 8-6 16-10 25-14l10-3 12-1c7-1 14-2 20-5 6-1 11-4 14-9s7-9 12-11l7-4 9-6c5-3 8-7 9-12l1-2c1-5 4-9 8-13l8-6 9-8c5-5 7-12 6-18l-2-7c-2-7-3-13 1-20l1-6Zm-85-3c-5 0-9 1-12 4-4 3-9 5-13 6s-7 3-9 6l-4 7-4 8-4 12c-2 3-2 6-1 10l2 9c1 4 3 7 7 10 2 1 4 3 4 6l4 5h3l6-6 18-17c5-6 11-10 19-13l10-4 16-10v-3l-5-10c-1-3-3-4-5-5l-17-10c-5-3-10-4-15-5Zm-45 247h1v-4l-1-8 1-19c1-9-1-17-7-24l-4-6c-3-6-4-12-2-18 2-5 4-10 8-14l5-6 1-2-9 2c-8 2-15 7-20 14-2 3-3 7-2 11 6.6 25.3 16 49.8 28 73l1 1Zm21-150h3c7-4 14-7 20-13l5-4 12-9c7-6 11-14 16-21l1-1h-2l-9 2c-8 1-14 5-19 11l-5 6-9 13-11 14-2 2Zm243 5v1c5 6 10 11 17 15l19 10v-3l-1-28c0-3-1-4-4-2l-3 2-4 4c-3 3-6 4-10 4l-5-1-9-2Z"/>
    <path fill="#9BADFA" d="m346 643-10-2c-19-4-35-11-51-21a266.7 266.7 0 0 1-62-52l-2-6a100 100 0 0 0 0-37l-4-18-3-14c-3-8-2-15 2-23l5-10 4-8c1-2 2-3 4-3l11-1c8-1 15-3 23-6s14-9 18-16l2-4c3-5 6-8 11-10l5-3c5-2 10-6 14-11l8-10c3-5 7-10 12-14l8-8c5-5 7-10 8-16 2-6 2-12 0-18l-1-4c-2-7-1-13 2-20l2-1c8 6 16 10 22 17 8 10 17 18 26 27 5 6 12 11 20 13s15 5 21 10c3 2 6 5 7 8l11 19c9 15 20 27 34 36l10 7 1 1h-2l-12 4-14 6c-5 2-10 5-14 9-2 2-3 4-5 4s-2-2-4-4c-4-5-10-9-16-11l-8-4-8-5c-12-9-22-20-29-33a74.4 74.4 0 0 0-13-18l-3 1 1 4a92 92 0 0 0 17 38c4 3 8 6 12 7l19 8c6 2 11 6 15 11l9 10c2 1 2 1 0 2-2 2-3 3-5 3l-19 7c-20 6-40 9-60 14l-18 4c-6 1-11 4-16 8-10 7-19 16-27 26l-9 10-2 1v1l1 1 4-2 19-13 18-16c5-5 10-8 17-8l22-3c19-2 38-7 55-15l10-5 22-13 9-3c11-4 21-9 31-15l9-5c2-1 3 0 3 2l-2 17c-3 20-9 39-18 58l-11 21c-4 9-9 16-15 23a234 234 0 0 1-114 70l-7 1Zm-5-240-2-1-5 2c-6 6-11 12-14 20-1 4-4 7-8 8l-9 5c-8 3-14 8-17 16-1 1-2 3-1 4s3-1 4-1v-1l13-8 10-8c3-3 6-6 10-7 7-3 11-7 13-14l5-12 1-3Zm17-85-2 2c-1 1 0 1 1 2l4 8 5 10c3 8 10 10 17 12h1l1-1-1-2-5-9a60.5 60.5 0 0 0-17-20l-4-2Zm-29 294 9-2c2 0 3-1 4-3 0-2-1-4-3-4l-3-2-5-1c-6-1-13-1-18-3l-8-2-4-1h-1v1l4 3 8 6c4 5 10 7 17 8Zm50-231c0-3-1-7-4-8l-3-1-1 3 3 7 2 2c1 1 3 0 3-1v-2Z"/>
    <path fill="#9BADFA" d="m227 393-3 2c-13 10-26 21-40 30l-1 1c-2 1-3 1-3-1v-9l1-13c0-2 1-3 3-4l12-6c3-1 5-2 6-4 1-1 1-2-1-2s-5 1-7 3l-10 5c-1 1-2 0-2-1 .8-5.8 2-11.5 4-17 0-4 2-5 6-5l3-1 2-1 1-1-1-1-5 1c-1 0-2 2-4 1v-4l4-11c0-2 1-2 2-2l4-1v-2l-2-1c-3 0-3 0-2-2l8-25 1-2h2l2 1h1v-2l-1-1c-2-2-3-2-1-4l14-28 1-1h1l2 5 5 8h1l1-1c-2-4-2-7-5-10l-1-1c-3-4-3-4 0-9l9-16c9.9-17.5 24-32.3 41-43 15-11 31-18 48-24l14-4c7-3 13-3 19 0 12 4 24 7 36 13l18 10c10.4 7.9 20.7 15.9 31 24 8 9 16 19 22 30l11 20c12 22 22 44 28 68l7 29 2 7c0 1 0 2-2 3l-3 3c-4 3-8 4-12 4l-15-1-7-1c-2 0-4-1-5-3a112 112 0 0 0-21-23l-29-20a170.7 170.7 0 0 1-35-35c-6-10-15-15-26-18-3-1-7-1-11 2a188 188 0 0 0-39 31h-3l-9-13c-3-4-6-7-11-10-8-4-17-5-25-5h-9l-8 1c-5 1-9 4-13 8l-18 24-2 9c0 7 1 13 3 20l4 14c1 4 3 7 7 9l5 3Zm108-135-9 11c-3.1 5.1-6.4 10.1-10 15-6 5-9 12-13 18v3l3-1 2-2 4-5 7-12 4-7 5-6c3-4 5-7 6-12l1-2Zm-53-17h-1l-5 16-4 15c-2 5-2 11-3 17l1 1h1l1-1 4-16c0-6 1-11 3-16l3-15v-1Zm-34 27-1 1-1 11 1 6 1 2h2v-5c1-5-1-10-2-15Zm46 13-5 6-2 7 1 2 1-1 4-7 1-7Zm-84 116h-2l-4 2-5 8-1 1v2l1-1 9-9 1-1 1-2Zm106-83h1l9-4 1-2v-1h-2l-9 6v1Z"/>
    <path fill="#9BADFA" d="m343 309-1 6c-4 7-3 13-1 20l2 7c1 6-1 13-5 17l-10 9-8 6c-4 4-7 8-8 13l-1 2c-1 5-4 9-9 12l-9 5-7 4c-5 3-9 7-12 12s-8 8-14 9c-6 3-13 4-20 5l-12 1-10 3c-9 4-17 8-25 14-3 2-7 5-9 9h-2v-1l-2-27 2-3h2c8-3 16-6 24-11l6-2 25-9 14-10c4-5 9-8 15-10l12-7c4-3 7-7 9-11l8-15 8-11 34-33 4-4Zm-85-3c5 1 10 2 15 5l17 10c2 1 4 2 6 5l4 10v3l-16 10-10 4c-8 3-14 7-19 13l-18 17-6 6h-3l-4-5c0-3-2-5-4-6-4-3-6-6-7-10l-2-9c-1-4-1-7 1-10l4-12 4-8 4-7c2-3 5-5 9-6s9-3 13-6c3-3 7-4 12-4Z"/>
    <path fill="#9BADFA" d="m213 553-1-2a355.8 355.8 0 0 1-28-72c-1-4 0-8 2-11 5-7 12-12 20-14l9-2-1 2-5 6c-4 4-6 9-8 14-2 6-1 12 2 18l4 6c6 7 8 15 7 24l-1 19 1 8v4h-1Zm21-150 2-2 11-14 9-13 5-6c5-6 11-10 19-11l9-2h2l-1 1c-5 7-9 15-16 21l-12 9-5 4c-6 6-13 9-20 13h-3Zm243 5 9 2 5 1c4 0 7-1 10-4 2.2-2.1 4.6-4.1 7-6 3-2 4-1 4 2l1 28v3c0 2 0 3-2 2l-18-12c-6-4-11-9-16-15v-1Z"/>
    <path fill="#FFF" d="m341 403-1 3-5 12c-2 7-6 11-13 14-4 1-7 4-10 7l-10 8-13 8v1c-1 0-3 2-4 1s0-3 1-4c3-8 9-13 17-16l9-5c4-1 7-4 8-8 3-8 8-14 14-20l5-2 2 1Zm17-85 4 2 2 1c6 6 12 12 15 19l5 9 1 2-1 1h-1c-7-2-14-4-17-12l-5-10-4-8c-1-1-2-1-1-2l2-2Zm-29 294c-7-1-13-3-17-8l-8-6-4-3v-1h1l4 1 8 2c5 2 12 2 18 3l5 1 3 2c2 0 3 2 3 4-1 2-2 3-4 3l-9 2Zm50-231v2c0 1-2 2-3 1l-2-2-3-7c0-1 0-2 2-3l2 1c3 1 4 5 4 8Zm-44-123-1 2c-1 5-3 8-6 12l-5 6-4 7-7 12-4 5-2 2-3 1v-3c4-6 7-13 13-18l4-5 6-10 9-11Zm-53-17v1l-3 15c-2 5-3 10-3 16l-4 16-1 1h-1l-1-1c1-6 1-12 3-17l4-15 5-16h1Zm-34 27c1 5 3 10 2 15v5h-2l-1-2-1-6 1-11 1-1Zm46 13-1 7-4 7-1 1-1-2 2-7 5-6Zm-84 116-1 2-1 1-9 9-1 1v-2l1-1 5-8 4-2h2Zm106-83v-1l9-6h2v1l-1 2-9 4h-1Zm131.7 12.6 2.8 2.8 2.8-2.8-2.8-2.8-2.8 2.8Zm-6-19c0 .4-.2 6.8-.1 13.3-6.8.5-5.7-13.3-5.3-15 .2-1.4-4.4 1.7-6.6 3.8.7 1.3 1.7 1 2.9.5-.5 6.2 3.9 11.8 9 11.7.2 6.4.9 12.5 2.7 13 .2.1.5-6.4.6-13.7 12.2-3.8 7.5-18.3 7.5-18.3-.2-.8-2 .4-6 3.9 1.6 1.7 2.4.7 3.6.3 1 1.9 1.4 10.5-5.1 13.1l.3-18c0-.2-.2-.3-.4-.3-1.8.2-5 3.4-7.5 6.1 1.4 2.1 3 .1 4.5-.4"/>
  </g>
</symbol></svg>
