<svg xmlns='http://www.w3.org/2000/svg' viewBox='0 0 696 830' fill='none'><symbol id='ANJJ_Fill'>
  <g fill="none">
    <path fill="#00807D" d="m105.4 420 3-51c4-31 11-62 23-91l14-34a494.7 494.7 0 0 1 48-75c16-19 35-33 57-44a277.3 277.3 0 0 1 58-21c8-2 17-2 26-2h27c13 0 25 1 38 5l38 14a185.4 185.4 0 0 1 66 49 477.3 477.3 0 0 1 46 70l22 57a427.4 427.4 0 0 1 18 99l1 24c0 18 0 36-2 55l-5 38c-3 25-10 48-21 71a304.9 304.9 0 0 1-77 98c-20 18-44 30-71 36l-33 6-21 3-16 1c-9 0-17-2-26-3l-30-5c-31-7-59-20-82-42a297 297 0 0 1-83-119c-5-12-8-26-10-40l-5-41c-2-18-3-37-3-58Z"/>
    <path fill="#FFF" d="M576.4 422c1 14 0 28-1 41l-6 49c-3 25-11 48-23 70-14 24-29 47-49 66l-22 20c-18 16-39 26-62 32l-30 6-16 2c-10 2-20 2-30 1l-26-4-24-4c-27-6-52-18-72-38a277.6 277.6 0 0 1-79-113c-5-12-8-24-9-37l-5-40a399.5 399.5 0 0 1 22-187l14-34c4-11 9-20 15-29 9-14 19-27 30-40 14-17 31-30 50-40 12-6 25-11 37-15 8-2 15-5 23-6l12-2 21 1h4l21-1 18 3c15 4 30 9 44 16 26 11 48 28 65 50l23 32c7 10 13 21 18 32l17 45c8 21 13 42 16 65 3 19 4 39 4 59Zm-5 18-1-18c-2.4-23.7-5.1-47.4-8-71-3-16-8-31-13-47l-17-45c-6-14-13-28-22-41a1717.2 1717.2 0 0 0-39-50c-11-10-23-18-37-24l-44-13c-14-3-27-4-41-5h-4l-7 1-22 2c-17 3-34 8-50 14-21.1 7-39.6 20.2-53 38a482.8 482.8 0 0 0-47 73l-10 27-12 33c-10.3 28.2-16 58-17 88-1.6 28-1.3 56.1 1 84l7 34c9 38 27 72 52 101 13 16 27 29 42 42 18 15 38 26 61 32l30 7 8 1 14 1h19l10-1 17-4 26-6c21-7 40-18 57-34l24-23a232 232 0 0 0 62-102l8-35c5-20 7-40 6-59Z"/>
    <path fill="#FFF" d="M173.4 425c-.3-18.8 1.4-37.6 5-56 3-12 5-24 9-35 9-27 22-53 40-75l20-24a167.6 167.6 0 0 1 45-38 163 163 0 0 1 51-16l15 1c15 3 30 8 44 15l19 13c10 8 19 16 26 26l20 24c21 27 36 57 44 91l6 27c6 40.4 3.7 81.6-7 121l-12 30-8 19a190 190 0 0 1-45 58l-5 4c-18 13-38 25-60 32l-24 6c-8 1-16 1-24-1-17-3-33-9-49-18l-11-6a174.6 174.6 0 0 1-70-78l-16-37a225.6 225.6 0 0 1-13-83Zm224-220-5-2-36-13c-6-3-12-3-19 0l-12 4-20 8c-3 1-5 2-5 5l-3 6v2l10-4 11-3-2 2-6 5c-3 3-7 4-11 3-4 0-4 0-5 3l-7 17v2l1-1c6-2 11-4 15-9 1-1 1-2 3-2 0 3-2 6-3 8-2 4-4 6-8 7l5 2 4 1v1c-4 2-8 3-12 0l-2-1h-5l-1 1-8 21-1 3 3 13 2 10 2-3 12-24c1-3 3-5 6-5 9-3 18-1 24 6l8 6h-1c-2 0-5-1-7-3l-7-3c-4-2-8-3-12-2l5 2c5 1 8 3 10 7l2 2c1 3 3 5 6 6l5 3 1 2h-3l-5-1c-5 0-9-3-11-7l-2-3c-2-3-6-6-10-6l1 2c3 5 4 11 3 18l-1 3c-1 6-1 13 1 19v5l-2-2c-2-3-4-7-4-10v-13c2-8-1-16-5-24-4 11-9 22-15 31l1 3a292 292 0 0 0 15 52l1 3-8 1-2-6-7-28c-5-20-8-40-9-60l-2-16v-2c2 0 4-2 6-1 1 5-1 10-1 14l21-53 1-1c-6 2-25 14-30 19l4 7c1 2 3 4 3 7-2 0-4 2-6 1l-5-13-8 8-1 2c.5 10.3 1.2 20.7 2 31l7 21c6 20 11 41 13 62l1 11-7 1-1-7c0-15-2-29-4-43l-6-26-2-3-6-1v-3c-2-10-2-21-1-31v-7l-1-1v1l-11 13c-2 2-2 5-2 7 1 7 0 14-1 20h-5l1-4 1-4v-9l-1 2-15 26c-11 20-19 40-24 61v3c7-2 12-4 17-8l2-2 2-1-6 12c-3 3-6 4-9 5l5 5v1l4 1 2 1 4 4c-4-2-4-2-7-1-4 1-7 0-10-2l-2-2-3-2 1 3 3 6v5c-1 5 0 9 2 13v3c-5-6-8-12-9-19l-1-5-1 2a325.9 325.9 0 0 0 4 126c4 13 10 26 17 39l1 1 1-1 4-7 4-6c2-3 5-5 8-6l7 2 4 2 7 5h2l-6-18-2-11-2-4-2 1c-4 4-10 3-13-1l-3-4-8-10v-1l3-1 6 4 6 6 3 3c3 1 5 1 7-1l-1-1-5-2c-5-2-9-6-10-11l-2-7-1-14v-1l2 4 2 9c2 5 6 9 10 13l-2-5c-2-4-4-9-4-13l2-17 1-2 1 3c0 6 2 12 5 18l3 5c2 4 4 9 3 14l1 9 11 37 1 3c2-3 2-5 2-8 0-18-2.7-35.8-8-53l-2-7 5-1 1 2 2 10 1 6 5 22c2 10 4 21 4 31v3l-6 2-2-3-4 11-3 10h-1l-3-3 4-9 4-9-1-1-4-4-8-4-3-1-2 7-1 14-1 1-1-2-1-10c0-3 0-6-2-9l-1-2-2 12c-2 5-2 9-1 14l1 2v2l-1-2c-3-4-4-8-4-13v-7l-9 8c6 13 21 34 28 37l3-20 3 3c3 2 3 4 2 7l-3 13-1 2 8 7 2 1 1-6 1-5 2-5c2 2 5 3 6 6l-6 14 10 7v-2l-2-23-2-4-4-4 1-4c1.3-5.3 1-11-1-17l-1-4c2-1 3-2 5-1 5 21 8 42 10 63 4 4 16 11 19 12v-2l-2-22-3-24-4-26v-7l8-3v35l2 20 3 22 2 11c8 5 23 11 30 12v-2c-1-9-3-18-7-27l-3-9-1-3 8-1 2 5 4 30 2 9c5 1 10 3 16 2l-4-10-1-6c-3-10-6-20-7-30v-3l8-3v4l1 9c-1 6 0 11 1 17l6 22 11-2 1-2 7-25c2-5 2-11 2-17v-10l2-8c4 0 7 0 10 2l-1 7-6 22-2 8-3 7-2 7-3 8 14-5 2-2 8-21c3-8 5-17 6-26l1-4 9 1-3 8-4 8c-3.2 7.8-6 15.8-8 24l-3 8h1l4-2 39-24 15-13 2-2c-3-13-8-25-9-39l9-4 1 3 1 8 1 22 1 7 18-20c-1-10-1-20-4-29l8-4v5c-.5 5.3-.5 10.7 0 16v5l4-6a412.4 412.4 0 0 0 28-66c5.9-25.6 7.6-51.9 5-78l-4-27-8-31c-6-21-14-41-25-60l-2-3-3 10-4 21-3 26-2 4-8-1 1-2 4-13 5-19 6-32-1-3-3-7-3-2-6-2 1-4 1-3-16 9 3 17-5 2h-2v-16c-2 0-3 2-4 3-3 5-8 7-13 9l-3 1c0 4 2 7 1 10l-5 2-1-10c-5 2-9 4-12 8l-16 18-3 3-3-3-2-3 2-2c8-4 14-9 20-15l7-6 7-5 17-11 3-2c7-5 14-9 22-12h1l-1-2-1-2-13 7-24 15c-6 3-11 7-16 12l-24 20-2 1-4-3c2-3 4-4 7-5l11-7 7-6 16-17v-2l-4-16a368.6 368.6 0 0 0-10-36c-3-4-7-5-11-6l-4 1 4 5c3 3 4 7 3 12l-1 14-1 1c-1-7-1-15-4-23 0 6-3 11-5 14l-6 8c-3 4-6 9-7 14l-1 3c0-6 0-11 3-15l4-5c5-7 6-16 6-24-2 0-4 1-5 3-4 3-8 5-14 6l-4 1h-1l-1-1c7-3 14-7 20-13l-8 1-9 1-2-1 1-1 12-5c5-1 9-1 13 3 7-3 12-1 18 3l-2-8Zm46 38c-2 5-3 10-1 15l11-6-10-13h-7v-3c0-4 0-4-3-7l-11-8-2-1v3l2 14-1 4h-4l-4 1c-1-5 0-9 2-13l2-8 1-3c-7-5-14-9-18-10 4 15 9 31 12 47l1-10h8l-4 24 11-5 10-4v-8l-2-8 7-1Z"/>
    <path fill="#00807D" d="m397.4 205 2 8c-6-4-11-6-18-3-4-4-8-4-13-3l-12 5-1 1 2 1 9-1 8-1c-6 6-13 10-20 13v1h2l4-1c6-1 10-3 14-6 1-2 3-3 5-3 0 9-1 17-6 24l-4 5c-3 4-3 9-3 15l1-3c1-5 4-10 7-14l6-8c2-3 5-8 5-13 3 7 3 15 4 22l1-1 1-14c1-5 0-8-3-12l-4-5 4-1c4 1 8 3 11 6l2 3c5 16.4 9 33.1 12 50v1l-16 17-7 6-11 7c-3 1-5 2-7 5l4 3 2-1 24-20c5-5 10-9 16-12l24-15 13-7 1 2 1 2h-1c-8 3-15 7-22 12l-3 2-17 11-7 5-7 6c-6 6-12 11-20 15l-2 2 2 3 3 3 3-3 16-18c3-4 7-6 12-8l1 10 5-1c1-4-1-7-1-11l3-1c5-2 10-4 13-9 1-1 2-3 4-3v16h2l5-2-3-16 16-10-1 4-2 3 7 2 3 2 4 10-6 32-5 19-4 13-1 3h8l1-4 4-26 4-21 3-10 2 3c11 19 19 39 25 60l8 31 4 27c1.5 26.1-.2 52.3-5 78-2 8-4 16-8 24-5 14-12 29-20 42l-4 6v-5c-.5-5.3-.5-10.7 0-16v-5l-8 4c3 9 3 19 4 29l-18 20-1-7-1-21-1-9-1-3-9 4c1 14 6 26 9 39l-2 2-16 13a302.6 302.6 0 0 1-42 26h-1c0-3 2-5 3-8 2.3-8.1 5-16.1 8-24l4-8 3-8-9-1-1 4c-1 9-3 18-6 26l-10 23-14 5 3-8 2-7 3-7 2-8 2-7 2-7 1-8 2-7c-3-2-6-2-10-2l-2 8v10c0 6 0 12-2 18l-7 24-1 2-11 2-6-22c-1-5-2-11-1-17l-1-9v-4l-8 3v3c1 10 4 20 7 30l1 6 4 10c-6 1-11-1-16-2l-2-9-4-30-2-5-8 1 1 3 3 9c4 9 6 18 7 27v2c-8-1-23-7-30-12l-2-11-3-22-2-20v-25l-1-10-7 3v7l4 26 3 24 2 22v2l-20-12c-1-21-4-42-9-63-2-1-3 0-5 1l1 4c2 6 2.3 11.7 1 17l-1 4 4 4 2 4 2 23v2l-10-7 6-14c-1-3-4-4-6-6l-2 5-1 5-1 6-2-1-8-7 1-2 3-13c1-3 1-5-2-7l-3-3-4 20c-6-3-21-24-27-37l8-8c1 3 2 3 1 7 0 5 1 9 4 14l1 1v-2l-1-2c-1-5-1-9 1-14l2-12 1 2c2 3 2 6 2 9l1 10 1 2 1-1 1-14 2-7 3 1 8 4 4 4 1 1-4 9-4 9 3 3 1 1 3-11 4-11 2 3 6-2v-3c-2.3-17.7-5-35.4-8-53l-2-6-2-10-1-2-5 1 2 7c4 10.2 6.3 21 7 32l1 21c0 3 0 5-2 8l-1-3a327.3 327.3 0 0 1-15-60l-3-5c-3-6-5-12-5-18l-1-3-1 2-2 17c0 5 2 9 4 13l2 5c-4-3-8-8-10-13l-2-9-2-4v1l1 14 1 7c2 5 5 9 11 11l5 2 1 1c-2 2-4 2-7 1l-4-3-5-5-6-4h-4l1 1 8 10 3 4c3 4 9 5 13 2l2-2 2 4 2 11 6 18h-2l-7-5-4-2-7-2c-3 1-6 3-8 6l-4 6-4 7-1 1-1-1a186.7 186.7 0 0 1-25-75c-2.8-30-1.5-60.3 4-90l1-2 1 5c1 7 4 13 9 19v-3c-2-4-3-8-2-13v-4c0-3-1-5-3-7l-1-3 3 2 2 2c3 2 6 3 10 2 3-1 3-1 7 1l-4-4-2-1-4-1v-1l-5-4 9-6 6-12-2 1-2 2c-5 4-10 6-17 8v-3c5-21 13-41 24-61l15-26 1-2v9l-1 4-1 4h5l1-20c0-2 0-5 2-7l11-13v-1l1 1v7c-1 10-1 21 1 31v3l6 1 1 3 7 26c2 14 4 28 4 43l1 7 7-1-1-11c-2-21-7-42-13-62l-7-21-1-7v-26l8-8 5 13h6c0-4-2-6-3-8l-4-7c5-5 24-17 29-19v1l-21 54c0-5 2-10 1-15l-6 1v2l1 16c2 20 5 40 10 60l7 28 2 7 8-2-1-3-6-15c-4-12-7-24-9-37l-1-3c6-9 11-20 15-31 4 8 7 16 5 24l-1 13 5 10 2 2v-5c-2-6-2-13-1-19l1-3c1-7 0-13-3-18l-1-2c4 0 7 3 10 6l2 3c2 4 6 7 11 7l5 1h3l-1-2-5-3c-3-1-5-3-7-6l-1-2c-2-4-5-6-10-7l-6-2c5-1 9 0 13 2l7 3 7 4 1-1-8-6c-6-7-15-9-24-6-3 0-5 3-6 5l-12 24-2 4-2-11c-.8-5.3-1.5-10.7-2-16l8-21 1-1h5l2 1c4 3 8 2 12 0v-1l-4-1-5-2c3-1 6-3 8-7 1-2 3-5 3-8-2 0-2 1-3 2-4 5-9 7-15 9l-1 1v-2l7-17c1-3 1-3 5-3 4 1 8 0 11-3l6-5 1-2-10 3-10 4v-2l3-6c0-3 2-4 5-5l20-8 12-4c6-3 13-3 19 0l36 13 5 2Zm11 372 2-10c.6-17.5 2.6-34.9 6-52l3 4 3 3c1 1 3 2 3 4-4 2-5 6-4 11v19l2-2 4-8c2-3 2-6 1-10v-4c-1-1 0-2 1-3l2 1 6 7c2 1 2 2 2 4l1 4 9-5-1-3-2-8c-3-8-4-15-4-23l-2-20-4-30 1-7 1-9c0-8 1-17 3-25l9-32 1-2v22l1 2 9-4-3-8-4-18v-5l5-9 1-4c-3-1-5-2-8-1v2c-1 11-4 22-8 32l-9 28-6 25-4 19-1 5 7 2 2-3 5 34c0 7 1 6-3 11l-3 4h-1v-10l-3-4v10l-2 10-10-10 1-4 11-31 1-4-6-1-7 28a444.6 444.6 0 0 0-17 73v4l9 1Zm97-121-5-3-3-4-4-3c-3-2-7-3-10-1l-17 9-2 1-2-11c3-2 6-3 10-2h5c2 1 4-1 6-2l2-3c1-2 3-4 6-5l1-1c-3-1-5 0-6 1-6 3-11 5-17 6l-5 2 4-4c5-3 8-8 9-14 0-3 1-6 3-7l1-1c-3 0-5 1-7 3l-3 5-8 14-2 2v-32l-9 4v2l3 18 3 17c1 10 3 19 3 29 1.2 15.3 2.5 30.7 4 46l1 8c3 0 7-2 10-4l-1-9-6-29-4-21-1-10 15-8 3-1c1 5 0 8-3 11l-2 3c-2 3-3 5-2 8l1 7 1 2 1-4c0-5 2-9 5-12l4-5 1-2 1 7c1 6 3 11 7 15l3 1-1-3c-3-4-3-8-3-13l-2-7v-3c6 5 7 5 12 3Zm-184 21-3-11c-4-10-6-21-9-32l1-6 2-7 16-37c3-6 7-12 12-17l3-4-6-4c-4 4-7 10-10 16l-19 44-1 2-2-10v-5c4-6 6-13 9-20 4-11 9-21 17-30v-1c-2-2-3-4-6-5l-7 11-10 25-4 11-2 2v-1c-2-7-2-13-2-19v-10l-1-3-7 1v3l3 14 4 23 6 30 4 25 5 17 7-2Zm38-88 1-1-1-1-3-6c-2-3-3-7-2-10l1-6 4 6 6 4c1 2 3 3 6 2l-3-4c-4-3-7-7-8-12l-1-3c-1-3-3-5-6-6l-1-1 5-8 7 4c3 3 6 7 7 11l1 5c2 5 5 9 9 12l2 1-1-2-4-12c-1-6-5-11-10-15l-3-3h3l6 3 11 5 4 4c1 4 3 8 3 13l1 3 2-1 2-9c-1-5-3-8-7-10l-4-1-7-5-9-6-2-1h3l7 2c5 1 10 1 15-2l3-1c3-1 6-2 10 0h2c-2-2-5-4-9-4l-15-2c-5-1-11-2-16 0h-2l7-7 8-6-6-6-2 2-10 13-4 4-16 20-4 4 6 4 4-3v12l3 11 7 8v1Zm32 92 2 3 7 11v4l-2 9c-2 11-6 22-10 34l-7 18-5 11-1 3h10l1-7 2-15c1-6 3-11 6-16 4-9 7-19 9-28 3-13 6-26 12-38v-2l-10-2-2 12c-1 4 0 8-2 12l-5-8-5-9c-3-6-11-8-16-5l-3 2c-5 4-12 8-19 10l-2 1h2l13-1c4 0 8-2 10-6l2-2 1 1c0 5-2 10-4 14-3 4-4 10-5 15v4l3-4c1-4 3-8 7-12s5-9 4-15l-1-5 3 5v8c-1 5 1 10 3 14l1 2v-9c0-3 0-6 2-9h-1Zm26-16 3-9 6-30c4-19 9-37 15-55l5-14v-3l-11-1c-3 8-3 17-4 26-1-7 0-13-2-20l-3 1-6 2v4l3 12 4 23-1 3-3 13c-2 11-6 21-11 31l-4 10c-1 1-2 2-1 4l10 3Zm-113 17v-3l-5-22-7-27c-4.2-17.8-9-35.5-14-53l-1-8h-5v3l2 8c6 15 9 32 13 48v4l-6 14-2 3 2 3c0 1 0 3 2 3l3-8 3-8 3 12c1 3 0 5-1 8l-2 7-1 3 4 8 2-6c2 5 0 10 2 14l8-3Zm-16 52v-3l-3-12-5-14v-7l5-9 5-8-3-7-2-1-4 9-4 10c-1-4-2-7-1-10v-7c0-4 1-7 3-10l1-3 1-2-4-8c-2 4-5 6-8 7l-2 1c0 10 2 20 4 29 4 14 6 27 8 41l1 6 8-2Zm26-52v2l2 12 2 15 5 23 4 22 7 29 1 2 6-1-1-4c-4-9-6-20-8-30-3-14-5-27-9-40l-1-14v-18l-8 2Zm151-208-9-3-1 2-1 8-1 11-5 27-1 2-1-6v-24l-7 2 1 9c2 6 3 13 3 19l1 9v5l-5 9-2 4h11v-2c1-7 1-13 3-19l5-24 7-24 2-5Zm-168 215 3 6c4 11 8 21 10 31l4 32v29l1 4c2 0 5 0 7-2l-1-14-6-37c-1-9-2-18-5-26l-3-9c-2-6-3-11-3-17l-7 2v1Zm-41-117v2l2 18 1 13 5 40c0 2 0 5 2 8l7-2-1-3-7-30-3-23 1-18v-6l-7 1Zm-23 3 1 3 1 5c6 23.8 8.4 48.5 7 73v3l7-1v-5l-1-16-4-27-5-29v-7h-3l-3 1Zm2-84-6 1 1 3 3 19 2 22-1 15-2 13 1 3 6-1v-2c1-8 2-16 1-24l-1-6-2-21-2-21v-1Zm18 0v19l-1 21 2 24 1 9h7v-3l-3-13c-3-11-4-23-3-35l1-20v-3l-4 1Zm117 16-7 8-11 13-21 17c-1 1-2 1-2 3l5 4 3-3 8-9 27-27 1-2-3-4Zm46-6 3 19 2 19-1 18 4-1 4-1-1-6c-3-9-4-19-5-28l-1-17v-4h-2l-3 1Z"/>
    <path fill="#00807D" d="m443.4 243-7 1 2 8v8l-10 4-11 5 4-24h-8l-1 10c-3-16-8-32-12-47 4 1 11 5 18 10l-1 3-2 8c-2 4-3 8-2 13l8-1 1-4-2-14v-3l2 1 11 8c3 3 3 3 3 7v2l7 1 10 13-11 6c-2-5-1-10 1-15Z"/>
    <path fill="#FFF" d="m408.4 577-9-1v-4l4-26c3-16 8-32 13-47l7-28 6 1-1 4-11 31-1 4 10 10 2-10v-10l3 4v10h1l3-4c4-5 3-4 3-11l-5-34-2 3-7-2 1-5 4-19 6-25 9-28c4-10 7-21 8-32v-2c3-1 5 0 8 1l-1 4-5 9v5l4 18 3 8-9 4-1-2v-22l-1 2-9 32c-2 8-3 17-3 25l-1 9-1 7 4 30 2 20c0 8 1 15 4 23l2 8 1 3-9 5-1-4c0-2 0-3-2-4l-6-7-2-1c-1 1-2 2-1 3v4c1 4 1 7-1 10l-4 8-2 2v-19c-1-5 0-9 4-11 0-2-2-3-3-4l-3-3-3-4-3 13a323 323 0 0 0-5 49Zm30-45v-20l-4 7-4 6 8 7Z"/>
    <path fill="#FFF" d="M505.4 456c-5 2-6 2-12-3v3l2 7c0 5 0 9 3 13l1 3-3-1c-4-4-6-9-7-15l-1-7-1 2-4 5c-3 3-5 7-5 12l-1 4-1-2-1-7c-1-3 0-6 2-8l2-3c3-3 4-6 3-11l-3 1-15 8 1 10 4 21 6 29 1 9c-3 2-7 4-10 4l-1-8-2-12-2-34c0-10-2-19-3-29l-3-17-3-18v-2l9-4v32l2-2 8-14 3-5c2-2 4-3 7-3l-1 1c-2 1-3 4-3 7-1 6-4 11-9 14l-4 4 5-2c6-1 12-3 17-6 1-1 3-2 6-1l-1 1c-3 1-4 3-6 5l-2 3c-2 1-4 3-6 2h-5c-4-1-7 0-10 2l2 11 2-1 17-9c3-2 7-1 10 1l4 3 3 4 5 3Zm-184 21-7 2-5-17-4-25-6-30-4-23-3-14v-3l7-1 1 3v10c0 6 0 12 2 19v1l2-2 4-11 10-25 7-11c3 1 4 3 6 5v1c-8 9-13 19-17 30-3 7-5 14-9 20v5l2 10 1-2 19-44c3-6 6-12 10-16l6 4-3 4c-5 5-9 11-12 17-6 12-12 24-16 37l-2 7-1 6c2.8 14.6 6.8 29 12 43Z"/>
    <path fill="#FFF" d="m359.4 388-7-8-3-11v-12l-4 3-6-4 4-4c9.9-12.4 19.9-24.7 30-37l2-2 6 6-8 6-7 7h2c5-2 11-1 16 0l15 2c4 0 7 2 9 4h-2c-4-2-7-1-10 0l-3 1c-5 3-10 3-15 2l-7-2h-3l2 1 9 6 7 5 4 1c4 2 6 5 7 10l-2 9-2 1-1-3c0-5-2-9-3-13l-4-4-11-5-6-3h-3l3 3c5 4 9 9 10 15l4 12 1 2-2-1c-4-3-7-7-9-12l-1-5c-1-4-4-8-7-11l-7-4-5 8 1 1c3 1 5 3 6 6l1 3c1 5 4 9 8 12l3 4c-3 1-5 0-6-2l-6-4-4-6-1 6c-1 3 0 7 2 10l3 6 1 1-1 1v-1Zm32 93-1 9v9l-1-2c-2-4-4-9-4-14l1-8c0-2-1-3-3-5l1 5c1 6 0 11-4 15s-6 8-8 12c0 1 0 3-2 3v-3c1-5 2-11 5-15l4-14-1-1-2 2c-2 4-6 6-10 6l-13 1h-2l2-1c7-2 14-6 19-10l3-2c5-3 13-1 16 5l5 9 5 8c2-4 1-8 2-12l2-12 10 2v2c-6 12-9 25-12 38l-9 28c-3 5-5 10-6 16l-2 15-1 7h-10l1-3 5-11 7-18c4-12 8-23 10-34l2-9c1-2 0-3-1-4l-6-11-2-3Zm26-16-10-3c-1-2 0-3 1-4l4-10c5-10 9-20 11-31l3-13 1-3-4-24-3-11v-4l6-2 3-1c2 6 1 13 2 20 1-9 1-18 4-26l11 1v3l-5 14c-6 18-11 36-15 55l-6 30-3 9Zm-113 17-8 3c-2-4 0-9-2-14l-2 6-4-8 1-3 2-7c1-2 2-5 1-8l-3-12-3 8-3 8c-2 0-2-2-2-3l-2-3 2-3 6-14v-4c-4-16-7-33-13-48l-2-8v-3h5l1 8 2 9 12 44 7 27c3 7 5 14 5 22v3Zm-16 52-8 2-1-6c-2-14-4-27-8-41-2-9-4-19-4-29l2-1c3-1 6-3 8-7l4 8-1 2-1 3c-2 3-3 6-3 10v7c-1 3-1 6 1 10l4-10 4-10 2 2 3 7-5 8-5 9v7l5 14 3 12v3Zm26-52 8-2v18l1 14c4 13 6 26 9 40 2 10 4 21 8 30l1 4-6 1-1-2-7-29-4-22-5-23-2-15-2-12v-2Zm151-208-2 5-7 24-5 24-3 19v2h-11l2-4 5-9v-5l-1-9c0-7-1-13-3-19l-1-9 7-2v24l1 6 1-2 5-27 1-11 1-8 1-2 9 3Zm-168 214 7-2c0 6 2 11 3 17l3 9c3 8 4 17 5 26l6 37c1 5 2 10 1 14-2 2-5 2-7 2l-1-4v-29l-4-32c-2-10-6-20-10-31l-3-7Zm-41-116 7-1v6l-1 18 3 23c2 10 4 21 8 30v3l-7 2c-2-3-2-6-2-8-3-23.6-5.7-47.3-8-71v-2Zm-23 3 3-1h3v7l5 29 4 27 1 16v5l-7 1v-3a236 236 0 0 0-8-78l-1-3Zm2-84v1l2 21 2 21 1 6c1 8 0 16-1 24v2l-6 1-1-3 2-13 1-15-2-22-3-19-1-3 6-1Zm18 0 4-1v3l-1 20c-1 12 0 24 3 35l3 13v3h-7l-1-9-2-24 1-21v-19Zm117 16 3 4-1 2-27 27-8 9-3 3-5-4c0-2 1-2 2-3a197.8 197.8 0 0 0 39-38Zm46-6 3-1h2v4l1 17c1 9 2 19 5 28l1 6-4 1-4 1 1-19-2-18-3-19Z"/>
    <path fill="#00807D" d="m438.4 532-8-7 4-6 4-7z"/>
    <path fill="#FFF" d="m361.7 547 2.8 2.8 2.8-2.8-2.8-2.8-2.8 2.8Zm-6-19.1c0 .4-.2 6.8-.1 13.3-6.8.5-5.7-13.3-5.3-15 .2-1.4-4.4 1.7-6.6 3.8.7 1.3 1.7 1 2.9.5-.4 6.2 3.9 11.8 9 11.7.2 6.4.9 12.5 2.7 13 .2.1.4-6.5.6-13.7 12.2-3.8 7.5-18.3 7.5-18.3-.2-.8-2 .4-6 3.9 1.6 1.7 2.4.7 3.6.3 1 1.9 1.4 10.5-5.1 13.1l.3-18c0-.2-.2-.3-.4-.3-1.8.2-5 3.4-7.5 6.1 1.5 2.2 3.2.2 4.5-.4"/>
  </g>
</symbol></svg>
