<svg xmlns='http://www.w3.org/2000/svg' viewBox='0 0 696 830' fill='none'><symbol id='BALC_Fill'>
  <g fill="none">
    <path fill="#FDBE00" d="M590.4 427.2c0 19-2 39-4 58l-5 38c-3 24-12 47-24 68-14 26-31 50-52 71l-14 14c-24 23-52 37-84 43l-47 7c-11 2-23 1-34-1-15-2-30-4-45-8-28-6-54-19-75-39l-28-29c-25-28-45-60-57-95-4-12-7-25-9-38l-5-52c-2-18-2-36-2-54a453 453 0 0 1 23-122l17-44c4-12 11-24 18-35l28-38c16-20 36-35 59-46 17-8 35-14 52-20 11-3 22-3 32-3h26c14-1 28 2 42 6 15 6 31 11 46 18 21 11 39 25 54 43 17.4 22.3 32.8 46 46 71l24 64c9 24 13 48 15 73l3 50"/>
    <path fill="#FFF" d="m570.4 434.2-3-46c-2-26-7-51-16-75a2340.4 2340.4 0 0 0-34-84c-11-17-22-33-35-49-12-15-27-27-45-34a281.9 281.9 0 0 0-91-20c-19 1-37 4-55 9l-22 7c-24 7-43 21-58 41l-28 39c-7 11-13 22-17 34l-15 39c-11 27-19 54-21 83l-4 50c-1 16-1 31 1 47 1 12 4 25 7 38 8 39 25 74 50 104 14 18 31 34 48 48 13 11 28 20 44 25 22 8 46 13 70 14 9 0 18 0 26-2l22-5c31-6 57-20 80-41l22-21c24-24 42-53 54-84 6-15 10-30 13-46 6-23 9-47 7-71m6-13c0 20-1 41-3 61l-5 36c-3 21-11 41-21 60-13 25-29 49-50 69l-16 16c-21 20-47 32-75 38l-46 7c-11 2-23 1-34-1l-40-7c-27-6-50-18-71-37-25-23-47-48-63-78a202.5 202.5 0 0 1-28-94 958 958 0 0 1-4-88c1.8-35.7 8.2-71 19-105l19-47a454 454 0 0 1 45-69c13-16 31-29 50-39 17-9 35-15 53-20 10-3 19-3 28-3h27c13-1 25 1 38 6 16 5 33 11 48 19 17 10 33 22 45 37 17.5 22.2 32.9 46 46 71l22 57c8 23 12 47 14 71l2 40"/>
    <path fill="#FFF" d="M180.4 433.2v13c2 26 6 51 17 75l13 26c5 10 11 19 19 28 17 18 36 32 57 45 16 10 33 17 51 21 6 1 11 2 16 1 13-3 25-7 37-13a289.4 289.4 0 0 0 79-60l9-13c10-17 19-36 26-56 8.8-35 11.2-71.2 7-107l-8-33a287 287 0 0 0-41-94c-11-19-24-35-43-47l-10-6c-6-4-12-8-18-10l-37-14c-5-2-11-2-16 0l-16 6a192.5 192.5 0 0 0-68 40c-9 9-17 19-23 31l-10 17c-19 32-30 67-37 103-4 16-4 31-4 47m341-10a264 264 0 0 1-38 136c-14 25-33 46-57 61a205.4 205.4 0 0 1-70 27c-10 2-19 1-28-1-13-3-25-7-37-13l-27-16c-12-7-22-16-31-26-13-15-24-31-32-50-7-15-15-30-19-46a261.7 261.7 0 0 1 0-141 263 263 0 0 1 55-108l12-14a143 143 0 0 1 94-51c21 1.5 41.4 7.3 60 17 14 7 26 17 36 29 10 10 19 21 27 32 23 28 37 59 45 94l7 32c3 12 3 24 3 38"/>
    <path fill="#FDBE00" d="m208.4 434.2-2-2-1 2 1 1 2-1m249-54-2 2 2 2 1-2c1-1 0-1-1-2m-132 244 1-2c1-1 0-2-2-2l-2 2 3 2m-40-388c2 0 3-1 3-2 0-2-1-3-3-3l-2 2c-1 2 1 3 2 3m56 198c2 0 3-2 3-3 0-2-2-3-3-3l-3 3 3 3m-42 149c-2 0-3 1-3 2 0 2 1 3 3 3l2-2c0-2-1-3-2-3m64-188c0-2-2-4-4-4s-3 2-4 4c0 2 2 4 4 4 2-1 4-2 4-4m-154-19c0-3-2-4-4-4s-4 2-4 4 1 4 3 4c3 0 5-2 5-4m126-71c0-2-2-4-4-4s-4 2-4 4 2 4 4 4 4-2 4-4m-20-92c-3 0-4 2-4 4 0 3 1 4 3 4 3 1 5-1 5-3 0-3-2-5-4-5m98 357c-2 1-4 3-4 5s2 4 4 4 4-2 4-4c0-3-2-5-4-5m50-209c0-3-1-5-4-5-2 0-4 2-4 5 0 2 2 4 4 4 3 0 4-2 4-4m-235-6c0-3-2-5-4-5-3 0-5 2-5 4 0 3 2 5 4 5 3 0 5-2 5-4m184-106c0 3 2 5 4 5 3 0 5-2 5-5 0-2-2-5-5-4-2 0-4 2-4 4m-83 319c3 0 5-2 5-5s-2-5-5-5-5 2-5 5c0 2 2 5 5 5m34-99c-3 0-5 3-5 5 0 3 3 6 5 6 3 0 5-3 5-6 0-2-2-5-5-5m139-55c0-3-2-5-5-5s-5 2-6 5c0 3 3 5 6 5s5-2 5-5m-259 35h-3l-25 7-20 8c-4 1-4 3-3 6l3 6c6 13 12 25 21 36 23 26 51 38 86 32l14-2c23.6 1.6 47.3 2.3 71 2a87.7 87.7 0 0 0 90-40c7.5-11 13.8-22.7 19-35 1-2 0-4-3-5l-2-1-26-9-20-6 1-1c7-5 11-12 14-20l6-19c1-3 0-4-3-5l-13-5c-11-3-22-6-34-5h-1l2-2c14-12 20-28 21-46 1-3 0-4-3-4l-12-2c-12-1-23 0-33 6h-1c2-5 6-8 12-11l10-4c8-4 12-12 11-21-1-4-2-8-5-11l-9-11-13-11c-6-5-11-12-15-20l-1-2-1 3v14l-2 31v45c1 14 1 28-1 42-2 17-2 34-1 51l4 32c1 9 1 17-1 25-1 8-3 11-11 12l-11 1c-12 2-23 0-35-1-6-1-9-4-10-10l-1-12c0-11 1-22 3-32 2-21 3-42 1-63-2-15-2-29-1-43v-33l-1-24-1-32-2-6-4 8c-4 8-10 13-16 18l-13 11c-4 4-7 9-8 14-4 11 1 21 11 26l6 2 7 3c3 2 6 5 8 9h-1c-11-7-22-8-34-6l-12 2c-3 0-3 1-3 4l1 6c2 16 9 30 21 40l2 3h-13c-12 0-24 4-35 9-4 1-4 2-3 5l7 21c2 7 6 13 12 18l2 2m-63-16c0-16 0-31 4-47a328.3 328.3 0 0 1 78-158c18-15 38-26 60-33l16-6c5-2 11-2 16 0l37 14c6 2 12 6 18 10l10 6c19 12 32 28 43 47l8 14c15 25 26 51 33 80l8 34c4 35.5 1.7 71.4-7 106a306.8 306.8 0 0 1-35 69c-9 10-18 20-29 28-15 13-32 23-50 32-12 6-24 10-37 13-5 1-10 0-16-1-18-4-35-11-52-21-20-13-39-27-56-45-8-9-14-18-19-28l-13-26c-11-24-15-49-17-75v-13"/>
    <path fill="#FFF" d="m298.4 403.2 8 9v-9h-8Zm91 0h-7v8l7-8m-8 66 1 1 6-6 7-5-13-5-1 15m-88-10 12 11v-16l-12 5m14-195c-4 10-12 18-19 25l-7 7-5 8c-5 9-2 17 7 22l9 4c5 3 9 7 12 13l2 1c-1-27 1-53 1-80m75 80c4-8 11-12 19-16l7-5c5-3 6-8 6-13l-4-10-7-8-9-9c-5-5-10-11-13-19l-1-1c0 27 3 54 2 81m-1 54h2l2-1c11-2 20-7 28-15 12-10 17-25 23-39l-2-1h-25c-8 0-15 3-22 8l-2 2c-2 6-5 11-5 18l1 25v3m-74 0v-23c1-7 0-14-3-21l-4-4c-5-4-11-7-18-8h-29l-2 1c4 10 8 19 14 28 6 10 14 17 25 22 5 2 10 4 17 5m-84 8 13 22c5 9 13 14 22 17 12 4 24 6 37 5l10-1v-4l1-24-3-9c-9-10-21-14-34-15-15-1-29 2-43 7l-3 2m242-1-10-3c-14-4-28-7-42-5-12 2-22 7-29 17l-2 6v26l1 3h3c16 3 32 1 47-5 6-3 11-6 15-11 7-8 11-18 17-28m29 62-4-2-16-5-32-8-5 1c-10 4-21 6-33 6l-4 1c-6 4-12 8-16 13-2 2-3 5-3 7v7l1 14c0 10-5 16-15 16h-50c-7-2-11-7-11-14v-6l1-18-2-5-16-13-6-2c-11 0-22-2-32-6l-5-1-7 1c-14 3-29 8-43 13l-2 1 1 2c9 15 19 30 32 42s28 21 45 24c13 2 27 3 40 2h90c18-1 35-7 50-19a161 161 0 0 0 40-48l2-3m-251-18-2-2c-6-5-10-11-12-18l-7-21c-1-3-1-4 3-5 11-5 23-9 35-9l13-1-2-2a61 61 0 0 1-21-40l-1-6c0-3 0-4 3-4l12-2c12-2 23-1 34 6h1c-2-4-5-7-8-9l-7-3-6-2c-10-5-15-15-11-26 1-5 4-10 8-14l13-11c6-5 12-10 16-18 2-2 3-8 5-8s1 4 1 6l1 32 1 24v33c-1 14-1 28 1 43 2 21 1 42-1 63a121.6 121.6 0 0 0-1 45c0 4 3 8 9 9 12 1 23 3 35 1l11-1c8-1 10-4 11-12 2-8 2-16 1-25l-4-32c-1-17-1-34 1-51 2-14 2-28 1-42v-45l2-31v-14l1-3 1 2c4 8 9 15 15 20l13 11 9 11c3 3 4 7 5 11 1 9-3 17-11 21l-10 4c-6 3-10 6-12 11h1c10-6 21-7 33-6l12 2c3 0 4 1 3 4a63 63 0 0 1-23 48h1c12-1 23 2 34 5l13 5c3 1 4 2 3 5l-6 19c-3 8-7 15-14 20l-1 1 20 6 26 9 2 1c3 1 4 3 3 5l-1 3c-5 11-11 22-18 32s-15 19-25 26a83.9 83.9 0 0 1-65 14l-22-1-49-1-14 2c-35 6-63-6-86-32a159.3 159.3 0 0 1-24-42c-1-3-1-5 3-6l20-8 25-7h3m259-35c0 3-2 5-5 5s-6-2-6-5c1-3 3-5 6-5s5 2 5 5"/>
    <path fill="#FFF" d="M363.4 469.2c3 0 5 3 5 5 0 3-2 6-5 6-2 0-5-3-5-6 0-2 2-5 5-5m-34 99c-3 0-5-3-5-5 0-3 3-5 5-5a5 5 0 0 1 5 5 5 5 0 0 1-5 5m83-319c0-2 2-4 4-4 3 0 5 2 5 4 0 3-2 5-5 5-2 0-4-2-4-5m-184 106c0 2-2 4-5 4-2 0-4-2-4-5 0-2 2-4 5-4 2 0 4 2 4 5m235 6c0 2-1 4-4 4-2 0-4-2-4-4 0-3 2-5 4-5 3 0 4 2 4 5m-50 210c2-1 4 1 4 4 0 2-2 4-4 4s-4-2-4-4 2-4 4-4m-98-358c2 0 4 2 4 5 0 2-2 4-5 3-2 0-3-1-3-3 0-3 1-5 4-5m20 92c0 2-2 4-4 4s-4-2-4-4 2-4 4-4 4 2 4 4m-126 71a4 4 0 0 1-4 4 4 4 0 0 1-4-4c0-2 2-4 4-4s4 1 4 4m154 19c0 2-2 3-4 4-2 0-4-2-4-4 1-2 2-4 4-4s4 2 4 4m-64 188c1 0 2 1 2 3l-2 2c-2 0-3-1-3-3 0-1 1-2 3-2m42-149c-1 0-2-1-2-3 0-1 0-2 2-3 1 0 3 1 3 3 0 1-1 3-3 3m-56-198c-1 0-3-1-2-3l2-2c2 0 3 1 3 3 0 1-1 2-3 2m42 386c0-1-1-2-3-2l-2 2c1 1 1 2 3 2s2-2 2-2Zm130-243 2 3-2 2-2-2 2-3m-249 55-2 1-1-1 1-2 2 2"/>
    <path fill="#FDBE00" d="M476.4 474.2c0-1-10 2-15 5s-10 6-13 11l-10 11c-6 7-14 12-24 13l-15 3-5 4c1 2 3 3 5 3l15 1c12 0 22-5 29-14l8-11 7-11c4-7 19-14 18-15Zm-183 47c0-2-2-3-4-3l-9-2a49.1 49.1 0 0 1-36-21l-11-12c-4-3-8-6-14-7l-8-1s14 7 18 14l6 8 5 9c12 17 29 22 49 18 2 0 3-1 4-3m201-54-2 3c-6 11-13 21-21 30l-19 19a88 88 0 0 1-50 18h-90c-13 1-27 1-40-2-17-3-32-12-45-24s-23-27-32-42l-1-2 2-1c14-5 29-10 43-13l7-1 5 1c10 4 21 6 32 6l6 2 16 13 2 5-1 18v6c0 7 4 12 11 14h50c10 0 15-6 15-16l-1-14v-7c0-2 1-5 3-7 4-5 10-9 16-13l4-1c12 0 23-2 33-6l5-1 32 8 16 5 4 2m-44-56c-5 1-9 4-12 8-5 5-11 9-17 12l-7 4c-2 1-3 1-3 4l3 1c12-1 23-5 29-16l7-13m15-6c-6 10-11 20-18 28-3 5-8 8-14 11-15 6-31 8-47 5h-3l-1-3v-26l2-6c7-10 17-15 29-17 14-2 28 1 42 5l10 3m-227 6 6 12c6 12 17 16 29 17 2 0 3 0 4-2l-4-3-8-5c-6-2-10-6-15-10-1-2-3-4-6-5l-7-4m-14-5 3-2c14-5 28-8 43-7 13 1 25 5 34 15l3 9-1 24v4l-10 1c-13 1-25-1-37-5-9-3-17-8-22-17l-13-22m66-28c1-3-1-4-2-5l-14-17-5-4c-1-1-2-2-3-1l5 13c3 7 7 11 14 14h5m17 20-16-5c-11-5-19-12-25-22-6-9-10-18-14-28l2-1h29c7 1 13 4 18 8l4 4c2 7 4 14 3 21l-1 23m117-48-4 2-6 6-10 11-4 5-1 3 5 1c7-3 12-8 15-15l5-13m-42 48v-3l-1-25c0-6 3-12 5-18l2-2c7-5 14-8 22-8 8-1 17 0 25 1h2c-6 14-11 29-23 39-8 8-17 13-28 15l-2 1h-2m8-111c-1 1 1 9 3 13 3 6 6 11 7 18l2 2 3-2c2-4 2-8 0-12l-5-8-10-11Zm-7 57c1-27-2-54-2-81l1 1c3 8 8 14 13 19l9 9 7 8 4 10c0 5-1 10-6 13l-7 5c-8 4-15 8-19 16m-84-56-13 14-2 5c-2 3-1 6 0 9 1 2 1 4 3 4s2-2 3-4c0-4 2-8 4-12l4-8 1-8Zm9-24c0 27-2 53-1 80l-2-1c-3-6-7-10-12-13l-9-4c-9-5-12-13-7-22l5-8 7-7c7-7 15-15 19-25"/>
    <path fill="#FDBE00" d="m293.4 459.2 12-5v16l-12-11m88 10 1-15 13 5-7 5-7 5m8-66-7 8v-8h7Zm-91 0h8v9l-8-9"/>
    <path fill="#FFF" d="M293.4 521.2c-1 2-2 3-4 3-20 4-37-1-49-18l-5-9-6-8c-4-7-12-14-10-13 6 1 10 4 14 7l11 12 1 1c9 11 21 18 35 20l9 2c1 0 4 1 4 3m168-42c-5 3-10 6-13 11l-10 11c-6 7-14 12-24 13l-15 3-5 4c1 2 3 3 5 3l15 1c12 0 22-5 29-14l8-11 7-11c4-7 8-13 3-10Zm-11-68c-1-2-9 4-12 8-5 5-11 9-17 12l-7 4c-8 5-1 5 0 5 12-1 23-5 29-16 2-5 8-11 7-13Zm-212 0c-2 2 4 8 6 12 6 12 17 16 29 17 9-1 2-4 0-5l-8-5c-6-2-10-6-15-10-1-2-3-4-6-5-2-2-5-6-7-4h1Zm51-33h-5c-7-3-11-7-14-14-2-4-6-12-5-13s2 0 3 1l5 4 14 17c2 1 3 2 2 5m130-26-6 6-10 11-4 5c0 1-2 2-1 3l5 1c7-3 12-8 15-15l6-13-5 2Zm-27-52c3 6 6 11 7 18l2 2 3-2c2-4 2-8 0-12l-5-8c-3-3-9-2-7 2Zm-107 2-2 5c-2 3-1 6 0 9 1 2 1 4 3 4s2-2 3-4c0-4 2-8 4-12l4-8c1-2-8 1-12 6Zm61.3 278.2c0 .4-.3 6.8-.2 13.3-6.8.5-5.7-13.3-5.3-15 .2-1.4-4.4 1.7-6.6 3.8.7 1.3 1.7 1 2.9.5-.4 6.2 3.9 11.8 9 11.7.2 6.4.9 12.5 2.7 13 .2 0 .4-6.5.6-13.7 12.2-3.8 7.6-18.3 7.6-18.3-.2-.8-2 .3-6 3.9 1.6 1.7 2.4.7 3.6.3 1 1.9 1.4 10.5-5.1 13l.3-18-.4-.2c-1.8.2-5 3.4-7.5 6 1.3 2.3 3 .3 4.4-.3m5.9 19 2.8 2.9 2.8-2.8-2.8-2.8-2.8 2.8Z"/>
  </g>
</symbol></svg>
