<svg xmlns='http://www.w3.org/2000/svg' viewBox='0 0 696 830' fill='none'><symbol id='BUCC_Fill'>
  <g fill="none">
    <path fill="#FDBE00" d="M591.3 427c0 20-1 40-4 59l-4 34c-3 20-9 40-18 59-14 30-33 58-57 82l-17 17c-23 22-51 35-82 41-22.2 4-44.5 7-67 9-23-2-45-6-67-12-25-7-48-19-68-37l-27-28c-25-28-45-60-58-97-5-13-7-27-9-41l-5-45a374.3 374.3 0 0 1 1-94c3-31 10-62 22-91l15-38c5-13 11-25 19-37 9-14 19-27 30-40 13-16 30-29 48-39l32-14 28-9c11-4 23-4 35-4h21c12 0 23 0 34 3 18 6 36 11 52 20 24 11 44 26 60 46a516.8 516.8 0 0 1 46 72l19 51c9 23 14 46 17 70 3 21 4 42 4 63"/>
    <path fill="#FFF" d="m572.3 435-4-46c-2-27-7-53-16-78a2367.9 2367.9 0 0 0-33-81c-11-18-23-35-37-51-13-16-30-29-51-36l-20-6a168 168 0 0 0-91-8c-18 3-35 8-52 14-12 4-22 9-32 17-9 6-17 14-23 22-10 13-20 26-28 39-8 12-14 24-19 37l-16 41a298.4 298.4 0 0 0-22 105l-2 43 3 39 7 34c10 41 30 77 58 108l32 32c17 15 35 26 56 33 18 5 37 9 56 11h24c8 0 16-2 24-4 11-2 22-4 33-8 21-8 40-20 56-35l26-25c24-26 42-55 54-88l10-38c5-24 8-47 7-71m-452-4 4-63c3-26 9-50 18-75l16-40a496.6 496.6 0 0 1 44-68c15-19 34-33 55-44 18-8 36-14 54-19 9-2 19-2 28-2h20c11-1 22 0 32 3 17 5 34 11 50 19 21 10 40 24 55 43l26 35c8 11 14 22 18 34l20 52c7 20 11 40 14 61a499 499 0 0 1-3 137c-2 27-10 52-23 75-13 25-29 48-49 68l-16 16c-21 20-46 32-74 38-15 4-30 6-46 8-11 2-23 1-34-1l-40-6c-27-6-51-18-72-37-14-14-29-28-41-44-14-19-26-39-36-61-7-16-11-33-13-51l-5-47-2-31"/>
    <path fill="#FFF" d="M417.3 371c3 0 5-1 6-3l1-1-2-1-7 2-1 1 1 1 2 1m-124-6c3 0 5-1 6-3 1-1 0-2-1-2l-11-3c-2 0-2 0-2 2 1 3 4 6 8 6m145 123-5 2-4 4-2 4 1 1 13-5c3-2 3-3 0-5l-3-1m-182-32v6l1 7c0 2 1 3 3 2l3-3c2-3 0-12-3-15h-1c-3-2-4 0-3 2v1m183-90v-7h-1l-5 10-2 5c-1 3-2 6-5 9v1h1l10-7c2-3 3-5 3-8l-1-3m-180 45 7-1 9-3 8-2 4-3-5-1a29 29 0 0 0-25 8c-1 1 0 2 2 2m73 76-1-1-12 4-5 4-3 3c-3 2-4 4-4 7-1 4-2 7-6 10h-1v1h1l2-1c4-2 6-5 8-9 1-4 4-7 8-9 5-2 9-5 12-9h1m11-206h2c2 0 2-1 2-2l-1-4c0-3 1-3-3-4l-10-1-6-2 1 7 1 2 2 2 12 2m-85 139-1 1c0 3 1 5 3 7 5 6 9 12 17 14h1v-1c-3-8-7-14-14-18l-6-3m156-54a33 33 0 0 0 24-13l1-3h-2l-9 3c-9 3-9 2-14 10l-2 1v1l1 1h1m-149 47h-7v2c1 2 2 4 5 4l5 1 8 1 6 2c3 0 6 0 9 2h1l-1-1-1-2c-3-4-7-6-12-7-4-2-9-2-13-2m29 67v-4l-1 1-4 5c-6 7-6 15-3 23l2 3 4 2c1 1 2 0 2-1 0-3 0-6-2-9-3-4-3-8 0-13 2-2 2-4 2-7m60-199 14-1 3-3 2-8-2-1-15 4h-4l-1 5c-2 5-1 4 3 4m-40 199v-1l-1 1c-8 6-13 14-15 24l-1 6v3l3-1 2-2 3-7c0-3 1-6 4-9 4-4 4-9 5-14m37 27v14c0 2 0 2 2 2h6c2 0 2 0 2-2v-8c0-6-2-12-5-18l-3-3c-1-1-2-1-2 1v14m-2 0v-13c0-1 1-3-1-3l-3 1-1 2c-2 4-5 9-5 14l-1 13 2 2h7c2 0 2 0 2-2v-14m-1-239c12 1 22-2 31-7v-2l-6-6-11-8-5-5a389 389 0 0 1-10-8l-7 7-9 7-4 3-9 9 1 2 2 2c9 4 19 7 27 6m1 93 20-2 22-1c5-1 9-1 13-3l16-5 32-12 1-1-1-1-2-1c-13-7-26-15-38-26l-11-8c-10-5-19-11-27-18l-3-1-10 3c-5 1-11 2-16 1l-17-4-3 1-16 12-10 5-14 10c-7 8-16 14-25 19l-12 7-2 1 2 1 31 12c13 5 27 8 41 8l9 1 20 2m-92 122h-1v7c0 2 1 4 4 5l22 10h1v-1l-1-11c1-8 5-14 11-19 2-2 3-1 4 1 1 5 1 10-2 14l-1 2c-2 3 0 6 2 9h1l1-3c3.3-8.6 9.2-16 17-21 1-1 2 0 2 1v2l-1 8 1 1h1c5-3 11-3 17-3h1v2l-5 5-11 8c-3 1-5 3-7 7s-5 7-9 9v1l7 3 22 2c1 0 2 0 2-2v-18c-1-5 1-9 5-12 6-5 13-5 20 1 3 2 5 6 4 10v13l1 6c0 2 0 2 2 2l12-1c9 0 17-3 24-9l4-2c4-4 9-6 13-8l5-2v-5l1-1c0-3 1-5 3-6l6-1c3-1 5 0 8 2h1v-1l1-26c1-8 1-16-1-23-3-8-3-17-2-25l1-8c2-8 2-16-1-24-1-1 0-3-2-5l-3 4c-4 4-9 6-14 6h-2l1-2c3-3 4-7 6-11 0-3 2-6 4-8l3-4v-1h-2l-6 4-2 2-2 4c-3 3-7 4-9 0-2-2-3-3-6-3-2 0-2-1-1-2l5-7 1-2h-2l-24 7c-8 2-15 4-23 4l-20 1c-10 0-20-2-29-5l-11-3-3 1c-1 3-3 4-5 4l-5 2c-3 0-5-1-7-4l-1-6c0-2 0-2-3-3l-18-5h-1c-1 0-2 0-2 2v2c0 13-1 26-4 38-1 4 0 8 1 13h1l4-3c10-6 20-4 30-2v2c-4 5-9 8-15 7l-6 1v1l3 1c5 0 9 2 13 4s6 5 8 9l1 3-1 1-2-1c-3-2-6-2-9-2-4 0-7-1-11-3l-4-1v1l1 1c6.5 4.9 10.8 12 12 20l-2 2-10-4c-3-1-5-3-6-5l-4-6-2-1v1l-1 15-1 4 2 1c4-1 7 1 9 5 3 6-1 15-7 17l-2 2v8m91 160 6-1h2c19-4 37-12 53-22 20-12 39-26 55-44 9-9 16-19 22-30a272.3 272.3 0 0 0 22-55c1-3 0-3-2-3h-6l-15 2c-10 2-20 3-29 6-5 1-11 3-15 7-12 9-26 15-41 17l-21 6c-9 4-18 5-28 5h-3c-10 0-19-1-27-5-7-3-15-5-23-6-16-3-31-9-44-20-4-4-9-7-14-7l-15-2-14-1c-9-2-17-6-24-12h-2v1l6 25c9 23.6 20.8 46.1 35 67l18 18a241.9 241.9 0 0 0 92 52l12 2m-167-204 2 28c0 2 1 4 4 5 8 5 16 8 25 11 11 2 23 3 34 7l1-1v-2c0-9 1-18 3-26v-11l-1-8c-1-13 0-26 2-38v-14c-2-10-2-21-2-31v-12c0-2 0-3-2-3l-4-4c-2-3-2-3 0-5l1-1c13-9 25-19 39-27l11-8 12-8 18-11c2-1 2-1 1-4l-2-7c0-2-1-4-3-4l-4-3c-2-2-2-3 0-5l7-7 7-7 5-4 11-9h5l10 8 6 5 14 14 3 2c1 1 0 2-1 3l-1 1c-4 1-6 5-7 8l-1 5c-1 2-1 3 1 4l22 14 21 14 18 12 19 13 1 1c3 3 3 3 0 6l-4 3-1 3 1 11c1 10 0 20-2 30v15l2 12c1 8 1 16-1 24s-2 16 0 25c2 7 3 15 3 23v2c0 1 0 2 1 1l3-1c16-5.8 33.2-7.5 50-5 1 0 2 0 2-2l1-6a305 305 0 0 0-1-90c-1-9-4-16-6-25-6-28-18-55-33-80l-7-12c-8.8-16.4-20.7-31-35-43-12.2-7.5-24.6-14.8-37-22-12-6-25-10-37-14-5-2-10-1-15 0l-18 6a192 192 0 0 0-63 36c-9 9-17 19-24 30l-16 29c-11 19-19 38-25 59l-6 23-4 19c-3 14-3 28-3 48m341-17c-.2 36-7.3 71.7-21 105l-8 16a177 177 0 0 1-66 77c-12 8-26 15-40 21-10 3-21 6-31 7h-21c-18-4-34-9-50-18l-23-14a178.7 178.7 0 0 1-51-55c-10-20-20-40-27-62l-9-45c-2.3-26-1.3-52.2 3-78 3-15 6-30 11-45 10-30 26-58 47-82l16-18a142.1 142.1 0 0 1 90-50c23.1 1.8 45.5 8.2 66 19 13 8 24 17 33 28l23 26c24 30 40 63 49 100l6 27c3 14 3 27 3 41"/>
    <path fill="#FDBE00" d="M181.3 439c-.3-22.5 2-45 7-67l6-23c6-21 14-40 25-59l16-29a145 145 0 0 1 28-33c18-14 37-26 59-33l18-6c5-2 10-2 15 0 12 4 25 8 37 14l19 10a1826 1826 0 0 1 31 24c8 9 16 19 22 30l7 13c15 25 27 52 33 80 2 8 5 16 6 25 4.8 29.8 5.2 60.1 1 90l-1 6c0 2-1 2-2 2-7-2-14-2-21-1-10 0-20 2-29 6l-3 1-1-1v-2l-3-24c-2-8-2-16 0-24s2-16 1-24l-2-12v-15c3-13.5 3.3-27.4 1-41l1-3 4-3c3-3 3-3 0-6l-1-1-19-13-18-12-21-14-22-14c-2-1-2-2-1-4l1-5c1-4 3-7 7-8l1-1c1-1 2-2 1-3l-3-3c-5-3-10-8-14-13l-6-5-10-8c-2-2-3-2-5 0l-11 9-5 4-7 7-7 6c-2 2-2 4 0 6l4 2c2 1 3 2 4 5l1 7c1 3 1 2-1 4l-18 11-12 8-11 8c-14 8-26 18-39 27l-1 1c-2 2-2 2 0 4l4 5c2 0 2 1 2 3v11c0 11 0 22 2 32v13c-2.7 15.5-3 31.4-1 47v11c-2 8-2 17-3 26v2l-1 1c-11-4-23-5-34-7-9-3-17-6-25-11-3-1-4-3-4-5l-2-28"/>
    <path fill="#FDBE00" d="m330.3 585-12 1a101.5 101.5 0 0 0-32 12h-1l1 1 3-2 23-7c10-3 20-4 30-2l21 6 18 6c11 3 21 1 30-4 8-3 14-8 21-14v-1h-1l-15 8c-10 4-20 5-31 4l-26-5c-8-2-17-3-29-3m87-26c10 0 21-3 31-9l11-6c1-1 3-2 3-4l-5 1-24 8a98.4 98.4 0 0 1-53 2c-11-3-22-3-33-2l-39 4c-10 1-19 0-28-2-15-2-29-8-41-16l-3-2h-1l2 3c9 9 19 15 31 20 13 5 27 7 41 4l28-6 19-4c8-1 16 1 23 3 12 3 24 5 38 5m-81 83a241.8 241.8 0 0 1-110-71 323.2 323.2 0 0 1-41-91v-2l2 1c7 6 15 10 24 12l14 1 15 2c6 0 10 3 15 7 12 11 27 17 44 20 7 1 15 3 22 6 8 4 18 5 27 5h3c10 0 19-1 28-5l21-6c15-2 29-8 41-17 4-4 10-6 15-7 9-3 19-4 29-6 7-.8 14-1.5 21-2 2 0 3 0 2 3a206.2 206.2 0 0 1-22 55c-6 11-13 21-22 30-16 18-34 32-55 44-16 10-34 18-53 22h-2c-2 0-9 1-17-1h-1Z"/>
    <path fill="#FDBE00" d="m413.3 466-2-5c-2-3-6-4-9-2-3 1-5 6-5 9 1 4 4 5 6 7 3 1 5 0 6-1 2-3 4-5 4-8m-54-68c1-4 0-7-1-10-2-3-5-5-8-5-4 0-7 2-9 5l-1 7-1 10v7c1 4 4 7 8 8h5c5 0 8-3 8-8v-8l-1-6m0 46h1l-2-8c0-3-2-5-5-6-6-2-12 1-13 8v2l-1 15c-1 5 1 7 5 9h11c4-1 6-4 5-9l-1-11m-102 31 2-2c6-2 10-11 7-17-2-4-5-6-9-5-1 0-2 0-1-1v-4l1-15h2c1 0 4 3 4 6 1 2 3 4 6 5l12 2-1-2c-1-7-5-14-11-18l-1-1 1-1 3 1c4 2 7 3 11 3 3 0 6 0 9 2l2 1 1-2-1-2c-2-4-4-7-8-9s-8-4-13-4l-3-1v-1l6-1c6 1 11-3 15-7v-2c-10-2-20-4-30 2l-3 3c-1 1-2 1-2-1-1-4-2-8-1-12 3-13 4-25 4-38v-3l2-1h2l17 5c3 1 3 1 3 3l1 6c2 3 4 4 7 4l5-2c2 0 4-1 5-4l3-1 11 3c9 3 19 5 29 5l20-1c8 0 15-2 23-4l24-7c1 0 2 1 1 2l-5 7c-1 1-1 2 1 2 3 0 4 1 6 3 2 3 6 3 9 0l2-4 2-2 6-4 2 1-3 4c-2 2-4 5-4 8-2 4-3 8-6 11-1 0-2 3 1 2 3 0 10-3 14-6 1-2 4-4 5 1 1 6 3 16 1 24a87.2 87.2 0 0 0 1 33c2 7 2 15 1 23l-1 26c1 2-1 1-1 1-3-2-5-3-8-2l-5 1c-3 1-4 3-4 5l-1 2v5l-5 2-13 7-4 3c-7 6-15 9-24 9l-12 1c-2 0-2 0-2-2l-1-6v-13c1-4-1-8-4-11-7-5-13-5-20 0-4 3-6 7-5 12v18c0 2-1 2-2 2l-22-2-7-3v-1c4-2 7-5 9-9s4-6 7-7l11-8 5-5c1-2-1-2-1-2-6 0-11 0-17 3-1 1-2 0-2-1l1-10c0-1-1-2-2-1l-3 2c-7 5-11 11-14 19l-1 2-1 1c-1-1-4-6-1-9v-2c4-4 3-9 2-14-1-2-2-3-4-1-6 5-10 11-11 19l1 11c1 1 0 1-1 1l-22-10c-3-1-4-3-4-5l1-7v-8"/>
    <path fill="#FDBE00" d="m341.3 301-2-4c-2 1-2 2-2 3l-1 3-2 10c-1 10-2 21-6 30v5h1l2-7c2-10 4-20 8-30l2-10m15-1 1 4 3 10 5 20 3 13 1 1v-1l-1-7-4-21-1-10c0-4-1-7-3-10 0-2-1-3-3-2l-1 3m-31-5h-2l-15 15c-6 8-13 15-20 21l-3 3v1l4-3 19-16 7-6 10-14v-1m87 43-1-2-13-17-22-21-3-3h-1v1l4 5 13 15c4 5 9 11 15 15l6 6 2 1m-63 23-20-2-9-1c-14 0-28-3-41-8a1190 1190 0 0 0-33-13l2-1 12-7c9-5 18-11 25-19l15-10a143 143 0 0 0 25-17l3-1 17 4c5 1 11 0 16-1l11-3 2 1c8 7 17 13 27 18 4 2 8 4 11 8 12 11 25 19 38 26l2 1c2 1 0 2 0 2l-32 12-15 5-14 3-22 1-20 2m-12-98h1l2-1-1-2-10-4h-4l2 3 3 2 7 2m22 0c3-1 7-1 9-3 1 0 3-1 3-3 1-1 0-2-1-2h-1l-11 7 1 1m-11 5c-8 0-18-2-27-6l-2-2v-2l8-9 4-3 9-7 7-7h2l8 8 6 5 10 8 6 6v2c-9 5-19 8-31 7m1 253c0 2 0 2-2 2h-7l-2-2 1-13c0-5 4-12 5-14l4-3c2 0 1 12 1 16v14m2-28c0-2 1-2 2-1l3 3c3 6 5 12 5 18v8c0 2 0 2-2 2h-6c-2 0-2 0-2-2v-28m-37-13c0 1-1 10-5 14-3 2-4 5-4 9a15 15 0 0 1-5 9l-3 1v-9c3-10 8-18 16-24h1m40-199c-4 0-5 1-3-4l1-5h4l15-4 2 1-2 8-4 3-13 1m-62 206c-3 5-3 9 0 13 2 3 2 6 2 9 0 1-1 2-2 1l-4-2-2-3c-3-8-3-16 3-23l4-5s1-1 1 1l-2 9m-27-74c4 0 9 0 13 2 5 1 12 7 13 9 2 1 0 1 0 1-3-2-6-2-9-2l-6-2-8-1-5-1c-3 0-4-2-5-4v-2h7m149-47h-1c-2 1-1-1-1-2l2-1c5-8 5-7 14-10l9-3s3 0 1 3v1c-7 7-14 11-24 12m-150 57c7 4 14 17 14 18l-1 1c-8-2-12-8-17-14-2-2-4-6-3-7s4-1 7 2m67-144-2-2-1-2c0-3-2-6-1-7l6 2 10 1c4 1 3 1 3 4l1 4c0 1 0 2-2 2l-14-2"/>
    <path fill="#FDBE00" d="M331.3 487c0 1-7 7-12 9-4 2-7 5-8 9-2 4-4 7-8 9l-2 1-1-1h1c4-2 5-6 6-10 0-3 1-5 4-7l3-3 5-4 12-4v1m-72-76c-2 1-3-1-2-2l2-2c6-5 22-6 23-6l5 1-4 3-8 2-9 3-7 1m180-45 1 3c0 3-1 5-3 8l-10 7s-2 0-1-1l5-9 2-5 5-10h1v7m-180 87h1c3 3 5 12 3 15l-3 3c-2 1-3 0-3-2l-1-7v-6c-1-3 0-5 3-3m179 35 3 1c3 2 3 3 0 5l-13 5-1-1 2-4 4-4 5-2m-145-123c-4 0-7-3-8-6 0-2 0-2 2-2l11 3c1 0 2 1 1 2-1 2-3 3-6 3m124 6c-2-1-4-3-2-3l7-2c1 0 2 1 1 2 0 2-4 4-6 3"/>
    <path fill="#FFF" d="M417.3 559c-14-1-26-3-38-6-7-2-15-4-23-3l-19 4-28 6c-14 3-28 1-41-4-12-5-22-11-31-20l-2-3h1l3 2a110.1 110.1 0 0 0 69 18l39-4c11-1 22-1 33 2l23 2c10 1 20-1 30-4l24-8 5-1c0 2-2 3-3 4l-11 6c-10 6-21 9-31 9m-87 26c12 0 20 1 29 3l26 5c11 1 21 0 31-4l15-8s3-1 1 1-13 11-21 14c-9 5-19 7-30 4l-18-6-21-6c-10-2-20-1-30 2l-23 7-3 2v-1l1-1c10-5 20-9 31-11l12-1m28-134c0-6-3-10-4-15-1-2-2-3-4-3-3 0-4 1-4 3l-4 9v10c1 4 5 8 8 7 4-1 6-3 7-7l1-4m2 4c1 5-1 8-5 9h-11c-4-2-6-4-5-9l1-15v-2c1-7 7-10 13-8 3 1 5 3 5 6l2 8v11m-2-48v-4l-1-5-3-8c-1-2-2-3-4-3-3 0-4 1-5 3l-3 8-1 3v11l2 3c4 2 9 2 13 0l2-3v-5m2-3v8c0 5-3 8-8 8h-5c-4-1-7-4-8-8v-7l1-10c0-2 0-5 2-7 1-3 4-5 8-5 3 0 6 2 8 5l2 16m50 64-1-4v-2c-1-2-4-3-6-2s-3 3-2 5v5c1 2 3 4 5 3s4-3 4-5m3-2c0 3-2 6-4 8-1 1-3 2-6 1-2-2-5-3-6-7 0-3 2-8 5-9 3-2 7-1 9 2l2 5m-1-128-2-1-6-6c-6-4-11-10-15-15l-13-15-4-4c0-1-1-2 1-2l3 3 22 21 13 17c3 3 1 2 1 2m-87-42-10 14-7 6-19 16-4 3c-1 1-1 0 0 0l3-4c7-6 14-13 20-21l15-15c1 0 3-1 2 1m32 0c2-1 3 1 3 3 2 3 3 6 3 10l1 10 4 21 1 7c0 2-1 0-1 0l-3-13-5-20-3-10c-1-1-2-8 0-8m-18 15c-4 10-6 20-8 30l-2 7h-1v-5c4-9 5-20 6-30l2-10c0-1 1-6 3-6 4 0 1 11 0 14m19-49c-2 0-3-1 11-7h1c1 0 2 1 1 2l-3 3c-2 2-8 3-10 2m-28-1-3-2-2-3h4l10 4c0 1 3 2 2 3s-8-1-11-2"/>
    <path fill="#FDBE00" d="m358.3 451-1 4c-1 4-3 6-7 7-3 1-7-3-8-7v-10l4-9c0-2 1-3 4-3 2 0 3 1 4 3 1 5 4 9 4 15m0-39-2 3c-4 2-9 2-13 0l-2-3v-11l1-3 3-8c1-2 2-3 5-3 2 0 3 1 4 3l3 8 1 5v9m52 56c0 2-2 4-4 5s-4-1-5-3v-5c-1-2 0-4 2-5s5 0 6 2v2l1 4"/>
    <path fill="#FFF" d="M482 431.2c0 .4-.4 6.8-.3 13.3-6.8.5-5.7-13.3-5.3-15 .2-1.4-4.4 1.7-6.6 3.8.7 1.3 1.7 1 3 .5-.6 6.2 3.8 11.8 9 11.7.1 6.4.8 12.5 2.6 13 .2.1.5-6.5.6-13.7 12.2-3.8 7.5-18.3 7.5-18.3-.2-.8-2 .3-6 3.9 1.6 1.7 2.4.7 3.6.3 1 1.9 1.4 10.5-5 13.1l.2-18c0-.2-.2-.3-.4-.3-1.8.2-5 3.4-7.5 6.1 1.4 2.2 3.1.2 4.5-.4m6 19.2 2.7 2.8 2.8-2.8-2.8-2.8-2.8 2.8Z"/>
  </g>
</symbol></svg>
