<svg xmlns='http://www.w3.org/2000/svg' viewBox='0 0 696 830' fill='none'><symbol id='CANC_Fill'>
  <g fill="none">
    <path fill="#9D432C" d="m347.4 103.3 11-1c15-1 30 1 45 7l24 8c28.6 11 54 28.8 74 52a483.8 483.8 0 0 1 48 73l22 56c7 18 11 37 14 57 5.3 40.8 6 82 2 123l-2 24a234 234 0 0 1-33 99 284.2 284.2 0 0 1-67 81c-20 18-44 30-70 36l-34 6-21 3h-16l-24-2-36-6c-29-7-55-20-77-40-12-12-25-23-35-36-22-27-40-57-51-90l-9-36-6-52v-10l-1-34c1.5-28.5 4.5-57 9-85 3-17 8-33 14-49l15-40c6-14 13-28 22-41l29-38a193.8 193.8 0 0 1 80-53l25-8c12-4 24-6 37-5l11 1"/>
    <path fill="#FFF" d="m571.4 446.3-1-22a734.2 734.2 0 0 0-8-71c-3-16-7-32-13-48l-20-52a413 413 0 0 0-48-74c-14-17-32-30-53-37l-33-9c-29-8.2-59.6-8.8-89-2-15 4-30 8-44 14-9 3-18 7-26 13-8 7-16 14-22 22l-28 38c-9 13-16 26-22 41-7.4 21.4-15 42.8-23 64a311.7 311.7 0 0 0-14 83l-2 32c-1 16.4 0 32.8 3 49l8 35c9 37 27 71 52 100 12 15 26 28 40 41 17 14 37 25 58 31l30 7 16 3h30l8-1 28-6c26-5 49-17 69-35l27-25a234.3 234.3 0 0 0 63-104l7-29c4-19 7-39 7-58m-451-18 2-44c3-30.7 9.8-61 20-90l15-39c5-12 11-23 18-34 8-12 17-25 27-37 14-16 30-29 49-39s38-17 59-22c5-2 11-2 17-2h44l18 2c18 6 36 12 53 20a166.7 166.7 0 0 1 54 44c15.9 20.4 30 42 42 65l19 49c9.6 25 15.4 51.3 17 78 2 22 2 43 2 64l-2 27-3 24c-2 19-5 37-11 54-5 15-12 28-19 42a268.8 268.8 0 0 1-63 75c-19 18-41 29-66 35l-29 5a309.7 309.7 0 0 1-43 4c-19-2-38-5-56-9-26-7-50-19-69-37-11-11-22-21-32-33-21-25-37-53-48-84-4-12-7-24-8-36-2.5-19.6-4.8-39.3-7-59v-23"/>
    <path fill="#FFF" d="M241.4 584.3h-1l-1 1 2 2 19 16 1 1h1l1-1c-1-4-2-7-5-9l-9-7c-2-2-5-3-8-3m62-371 3-1c5-1 10-4 14-7 3-3 4-5 5-9v-1l-1-1-2 1c-9.6 3.4-19 7.4-28 12l-1 2 10 4m210 201v-5c-.3-6-1-12-2-18-1-2-1-2-3-2l-4 3c-2 1-3 3-2 6l-1 6 1 10c1 4 4 7 9 7 1 0 2 0 2-2v-5m-167 229 7-1c21-4.2 41-12.4 59-24 19-12 36-25 51-41 7-8 14-16 18-26 7-11 13-24 18-36 8-19 12.6-39.4 13-60l1-27c0-3 0-3-2-4-6-1-10-5-11-11l-3-9c-1-5 0-9 4-12l7-5 2-2-1-5-7-25c-6-23-15-45-27-66l-16-28-10-15-22-22-35-21c-12-6-25-10-38-14-5-2-9-2-14 0l-11 3c-2 1-2 2-2 3l-5 13c-2 5-6 7-10 8-6 1-12 0-17-3l-4-3-2-1-2 2-23 15-7 6-23 28-17 31c-9 16-17 33-22 51l-9 33a315.5 315.5 0 0 0 4 128c6 18 14 34 23 51 6 10 14 19 22 27l3 1h7c8 0 14 4 17 11l2 10c0 3 1 4 3 5l17 11a158 158 0 0 0 62 24m-173-222c0-20 2-39 7-58l9-33c9-26 22-51 40-73l24-29a159.7 159.7 0 0 1 37-30c15-7 30-13 46-16 9-1 17-1 25 1 16.5 3.7 32.3 9.8 47 18 14 9 26 19 36 32l21 25c20 24 34 52 42 81 6 22 10.3 44.4 13 67v29a241 241 0 0 1-31 114c-6 13-15 25-24 37-12 14-26 26-43 35l-31 17c-12 5-23 8-36 9h-22c-17-4-32-9-47-17l-19-11a174.6 174.6 0 0 1-64-73l-8-19a223.2 223.2 0 0 1-19-66c-2-13-3-27-3-40"/>
    <path fill="#9D432C" d="M256.4 453.3c0 6 3 11 8 13h7c3-2 6-4 7-7 2-3 2-6 0-9l-8-7c-6-2-14 3-14 10m182 85c-9 0-13 4-15 12l-2 9c0 4 1 7 4 9 6 3 16 4 22-4 3-4 5-9 5-14 0-6-4-10-9-11l-5-1m-204-169-9 2c-4 1-6 4-8 7v12c1 6 5 10 11 11h7c10 0 16-5 18-15v-2c1-3 0-6-2-8l-6-5-11-2m188-49v32c1 7 3 12 9 15 4 3 9 4 14 5 10 1 18-5 20-15v-10c-2-11-5-22-9-32l-6-11c-7-9-14-16-23-22l-10-5h-4c-1 1 0 3 1 4l4 10c3 10 4 20 4 29m-127 253h4l1-1-1-1-3-3a62.7 62.7 0 0 1-21-39c-1-5-1-10 1-14l2-3c3-10 0-19-9-25l-6-2c-11-1-24 5-28 16l-3 9c-1 3-2 6-1 9 1 7 4 14 8 19l10 10 12 13c3 3 6 5 10 6l7 3c6 2 11 3 17 3m28 24c11 0 21-3 31-6 9-4 17-9 24-16l9-11c13-16 17-42 11-61l-5-14c-2-7-5-13-6-20-2-9.1-1-18.6 3-27 1-3 4-4 7-2l4 3c3 3 4 6 5 10l2 6c1 5 4 9 8 12l1 1c4 2 6 6 4 11l-2 4c-1 4 0 6 4 7h1l7 1c5 1 9-1 11-5l4-6 3-5c2-4 1-7-4-9l-4-2-4-2-7-8-5-10-1-8c-2-8-5-15-11-21a124 124 0 0 1-11-12l-3-8v-15c2-7 3-13 3-20 2-11-1-22-8-32l-5-6-8-12-3-9c-1-8 0-15 2-22l2-3 3-13v-7c0-4 1-7 3-10l2-4c1-3 0-6-4-7l-7-2c-2-1-4-1-7 1l-2 1-7 4c-5 1-7 7-3 11l4 4 2 4c3 4 1 10-3 13s-9 2-12-2l-3-4-3-7-9-9c-3-1-5-2-8-1h-4l-4-4c-3-3-8-4-11-2s-4 2-7 0h-1c-5-3-12-1-14 4s-2 10 1 14l2 2v5c-2 5 0 9 5 11l2 1c2 0 2 0 2 4v1c0 5 2 8 5 11s7 5 11 6l5 1c5 1 8 7 5 12-1 2-3 4-6 5l-8 2c-9 0-17-2-24-7l-4-3c-2-2-5-1-7 0l-3 2c-2 2-3 5-2 8v5c-2 3-1 5 1 8l4 5c2 3 5 4 8 2l6-3c3-3 7-3 11-2l8 2c8 1 15 0 22-5l5-4 5-3c3-2 5 0 6 2v5l-3 9c-2 7.2-.5 15 4 21l5 7 2 5c1 4 0 7-3 10l-8 3h-6c-5 1-9 4-12 9l-4 6c-2 4-6 8-11 9l-9 4-6 2c-2 2-4 3-5 6-1 4-1 7 1 11l4 7 3 4 5 2 4 1c3 0 4-1 5-3l1-4c1-5 3-10 6-14l9-9 6-5 6-3c4 0 7 1 9 5l2 8-1 13c-1 8-1 17 1 25l9 28c4 10 7 21 8 32 1 9 0 17-4 25-9 15-21 28-38 35l-7 4-3 1-2 4 3 2h5m24 46-11-2c-19-4-36-11-52-22l-17-10c-2-2-3-3-3-6l-2-10c-3-7-9-11-17-11h-7l-3-1c-8-8-16-17-22-27-9-17-17-33-23-51-4-11-6-23-8-34-3.4-31.4-2-63 4-94l9-33c5-18 13-35 22-51l17-31a147.5 147.5 0 0 1 30-34l23-15 2-2 2 1 4 3c5 3 11 4 17 3 4-1 8-3 10-8l5-13c0-1 0-2 2-2l11-4c5-2 9-2 14 0 13 4 26 8 38 14l18 10 17 11c10.9 11.8 21.5 23.8 32 36l16 29c12 21 21 43 27 66l7 25 1 5-2 2-7 5c-4 3-5 7-4 12l3 9c1 6 5 10 11 11 2 1 3 1 2 4l-1 27-2 21c-2 13-6 26-11 39l-17 36c-5 10-12 18-19 26a234.2 234.2 0 0 1-109 65l-7 1"/>
    <path fill="#9D432C" d="M513.4 414.3v5c0 2-1 2-2 2-5 0-8-3-9-7l-1-10 1-6 2-6 4-3c2 0 2 0 3 2 .9 6 1.6 12 2 18v5m-210-201c-3-1-7-2-9-4v-2l2-2 26-10 2-1 1 1v1c-1 4-2 6-5 9-4 3-9 6-14 7l-3 1m-62 371c3 0 6 1 8 3l9 7c3 2 4 5 5 9l-1 1h-1l-1-1a189.8 189.8 0 0 1-21-18l1-1h1"/>
    <path fill="#FFF" d="M379.4 451.3v-6c1-10 9-16 18-14 5 0 9 3 11 7l3 7 2 9c1 5 3 8 7 11l3 3c3 3 4 8 3 12l-1 3-2 5c0 2 1 3 2 3l7 1c3 1 6 0 7-3l5-7c2-3 2-6-2-8l-5-4c-8-5-13-12-15-20l-1-5c-2-7-5-13-10-18l-5-5c-6-7-11-15-12-24v-17l1-17c-1-11-4-21-9-30l-10-16c-5-7-7-14-5-23l5-13c3-6 4-11 4-18l1-2c0-6 1-10 5-14l1-3c1-1 0-3-1-3h-1c-2-1-5-1-7-3-2-1-3 0-5 1l-1 2c-2 2-4 3-7 3-2 0-4 1-5 3l2 5 5 4c7 5 8 18-1 23l-7 3c-5 1-10 0-14-5l-3-5-1-5-2-5c-3-6-8-9-14-8-2 1-4 1-5-1h-4c-3 3-6 2-8-1l-2-2-5-2-7-1c-3 1-4 3-5 5-1 3 0 6 1 9l3 4 3 3c3 1 4 3 3 6v2l1 2 1 4 1 5c0 5 3 8 7 9l5 1h5c4 1 8 3 10 7 3 5 3 12-1 17l-6 5c-11 4-22 4-32-3l-5-4-2-2c-4-2-9 0-10 4v13l6 5h4l2-2c3-2 6-4 11-3l6 1 8 2c5 0 10-1 14-4 4.9-3.2 9.9-6.2 15-9 6-2 11 0 14 6l2 7-1 9-1 5c1 7 3 12 6 17s4 10 3 16c0 5-3 9-8 11l-5 2-8 1c-5 0-9 2-12 6l-3 4-8 9c-3 4-8 6-14 8l-5 1c-3 0-4 2-5 5l1 5 4 7 1 2 8 4c1 0 2 0 2-2l1-3c1-5 4-10 7-14l6-7 8-8c2-3 5-4 8-6 10-4 22 3 23 14v6l-1 14c-1 13 1 26 6 39l4 11c4 11 5 22 4 34 0 11-4 21-10 30l-10 12c-9.2 9.3-20 16.8-32 22l-1 1h3c7-1 14-4 21-7a91 91 0 0 0 40-40c5-13 6-27 5-40l-5-20-6-20-2-15m-56 146h-5l-3-2c0-2 0-3 2-4l3-1 7-4c17-7 29-20 38-35 4-8 5-16 4-25-1-11-4-22-8-32l-9-28c-2-8-2-17-1-25l1-13-2-8c-2-4-5-5-9-5l-6 3-6 5-9 9c-3 4-5 9-6 14l-1 4c-1 2-2 3-5 3l-4-1-5-2-3-4-4-7c-2-4-2-8-1-12l5-5 6-2 9-4c5-1 9-5 11-9l4-7c3-4 7-7 12-8h6l8-3c3-3 4-6 3-10l-2-5-5-7-4-9v-12l3-9v-5c-1-2-3-4-6-2l-5 3-5 4c-7 5-14 6-22 5l-8-2c-4-1-8-1-11 1l-6 4c-3 2-6 1-8-2l-4-5c-2-3-3-5-1-8v-5c-1-3 0-6 2-8l3-2c2-1 5-2 7 0l4 3c7 5 15 7 24 7l8-2c3-1 5-3 6-5 3-5 0-11-5-12l-5-1c-4-1-8-3-11-6s-5-6-5-11v-1c0-4 0-4-2-4l-2-1c-5-2-7-6-5-11v-5l-2-2c-3-4-3-9-1-14s9-7 14-4h1c3 2 4 2 7 0s8-1 11 2l4 4 4-1 8 2 9 9 3 7 3 4c3 4 8 5 12 2s6-9 3-13l-2-4-4-4c-4-4-2-10 3-11l8-4 1-1c3-2 5-2 7-1l7 2c4 1 5 4 4 7l-2 4c-2 3-3 6-3 10v7l-3 13-1 3c-3 7-4 14-3 21 0 4 2 7 3 10l8 12 5 6c7 10 10 20 8 32 0 7-1 13-3 19v16l3 7a85 85 0 0 0 11 13c6 6 9 13 11 21l1 8 5 10 7 8 4 2 4 2c5 2 6 5 4 9l-3 5-4 6c-2 4-6 6-11 5l-7-1h-1c-4-1-5-3-4-7l2-4c2-5 0-9-4-11l-1-2c-4-2-7-6-8-11l-2-6c-1-4-2-7-5-10l-4-3c-3-2-6-1-7 2l-2 4c-3 7-3 15-1 23 1 7 4 13 6 20l5 14a71 71 0 0 1-20 72c-7 7-15 12-24 15-10 4-20 7-31 7m-51-90v-8c-1-9-10-14-18-11l-10 5-4 5c-2 4-3 9-3 13 0 6 3 20 6 25l11 14 9 6 13 7c4 3 9 6 15 7l3-1-2-2c-9-8-15-18-17-30-3-10-3-20-3-30m23 66c-6 0-11-1-17-3l-7-3c-4-1-7-3-10-6l-12-13-10-10c-4-5-7-12-8-19-1-3 0-6 1-9l3-9c4-11 17-17 28-16l6 2c9 6 12 15 9 25l-2 3c-2 4-2 9-1 14 2 16 10 28 21 39l3 3 1 1-1 1h-4m130-222v2c0 6 3 10 8 13l8 2c7 0 12-3 17-9 2-3 4-7 4-11l-1-7c-1-8-4-14-8-21l-9-15c-6-11-14-19-25-24h-1v1l2 7 7 31v17l-2 14m-3-31a81.9 81.9 0 0 0-8-39c-1-1-2-3-1-4h4a76.5 76.5 0 0 1 39 38c4 10 7 21 9 32v10c-2 10-10 16-20 15-5-1-10-2-14-5-6-3-8-8-8-15l-1-32m-188 51-10 2c-3 2-4 4-4 7l1 7 8 8 6 3c8 3 13-2 15-8 1-2 1-5-1-7l-5-7c-2-4-6-5-10-5m0-2 11 2 6 5c2 2 3 5 2 8v2c-2 10-8 15-18 15h-7c-6-1-10-5-11-11v-12c2-3 4-6 8-7l9-2m191 183c0 5 1 9 3 13l4 3c5 1 8 0 12-3 3-2 5-5 4-9l-4-12-2-2c-3-3-7-4-10-2-5 3-7 7-7 12m13-14 5 1c5 1 9 5 9 11 0 5-2 10-5 14-6 8-16 7-22 4-3-2-4-5-4-9l2-9c2-8 6-12 15-12m-164-81c0-4-1-8-3-10s-4-3-7-3c-3 1-7 6-7 9 0 5 4 10 8 11 4 2 6 1 8-3l1-4m-18-4c0-7 8-12 14-10l8 7c2 3 2 6 0 9-1 3-4 5-7 7h-7c-5-2-8-7-8-13"/>
    <path fill="#9D432C" d="M430.4 488.3c2 0 5-2 6-5l-2-1-6 3-1 1 1 2h2m-154-162 3 6 2-1c0-3-1-6 1-8l-1-2h-3l-2 5m23 109c0 5 2 9 7 10h1v-1l-4-7-2-3-1-2-1 2v1m78-190-1-1c-4 0-7 2-9 4-2 1-1 2 0 3h4l6-5v-1m2 206 2 15 6 20 5 20a77 77 0 0 1-8 45 83.8 83.8 0 0 1-58 42h-3l1-1 3-1a103 103 0 0 0 39-33c6-9 10-19 10-30 1-12 0-23-4-34l-4-11c-5-13-7-26-6-39 .4-6.7.8-13.3 1-20-1-11-13-18-23-14-3 2-6 3-8 6l-8 8-6 7c-3 4-6 9-7 14l-1 3c0 2-1 2-2 2l-8-4-1-2-4-7-1-5c1-3 2-5 5-5l5-1c6-2 11-4 14-8l8-9 3-4c3-4 7-6 12-6l8-1 5-2c5-2 8-6 8-11 1-6 0-11-3-16s-5-10-6-17l1-5 1-9-2-7c-3-6-8-8-14-6l-6 4-9 5c-4 3-9 4-14 4l-8-2-6-1c-5-1-8 1-11 3l-2 2h-4l-5-5c-2-1-2-3-1-4v-9c1-4 6-6 10-4l2 2 5 4c10 7 21 7 32 3l6-5c4-5 4-12 1-17-2-4-6-6-10-7h-5l-5-1c-4-1-7-4-7-9l-1-5-1-4-1-2v-2c1-3 0-5-3-6l-3-3-3-4c-1-3-2-6-1-9 1-2 2-4 5-5l7 1 5 2 2 2c2 3 5 4 8 1h4c1 2 3 2 5 1 6-1 11 2 14 8l2 5 1 5 3 5c4 5 9 6 15 5l6-3c9-5 8-18 1-23l-5-4-2-5c1-2 3-3 5-3 3 0 5-1 7-3l1-2c2-1 3-2 5-1 2 2 5 2 7 3h1c1 0 2 2 1 3l-1 3c-4 4-5 8-5 14l-1 2c0 7-1 12-4 18l-5 13c-2 9 0 16 5 23l10 16a79.7 79.7 0 0 1 8 47v17c1 9 6 17 12 24l5 5c5 5 8 11 10 18l1 5c2 8 7 15 15 20l5 4c4 2 4 5 2 8l-5 7c-1 3-4 4-7 3l-7-1c-1 0-2-1-2-3l2-5 1-3c1-4 0-9-3-12l-3-3c-4-3-6-6-7-11l-2-9-3-7c-2-4-6-7-11-7-9-2-17 4-18 14v6m-107 56c0 10 0 20 3 30 2 12 8 22 17 30l2 2h-3c-6 0-11-3-15-6l-13-7-9-6-11-14c-3-5-6-19-6-25 0-4 1-9 3-13l4-5 10-5c8-3 17 2 18 11v8m153-156c0 6 3 12 8 15l8 2c7 0 12-3 17-9 2-3 4-7 4-11l-1-7c-1-8-4-14-8-21l-9-15c-6-11-14-19-25-24h-1v1l2 7 7 31v17l-2 14s0-1 0 0Zm-191 20c4 0 8 1 10 5l5 7c2 2 2 5 1 7-2 6-7 11-15 8l-6-3-8-8-1-7c0-3 1-5 4-7l10-2m191 181c0-5 2-9 7-12 3-2 7-1 10 2l2 2 4 12c1 4-1 7-4 9-4 3-7 4-12 3l-4-3c-2-4-3-8-3-13m-151-95-1 4c-2 4-4 5-8 3-4-1-7-6-8-11 0-3 4-8 7-9 3 0 5 1 7 3s3 6 3 10"/>
    <path fill="#FFF" d="M377.4 245.3v1l-6 5h-4c-1-1-2-2 0-3 2-2 5-4 9-4l1 1m-78 190v-1l1-2 1 2 2 3 4 7v1h-1c-5-1-7-5-7-10m-23-109 2-5h3l1 2c-2 2-1 5-1 8l-2 1-3-6m154 162h-2l-1-2 1-1 6-3 2 1c-1 3-4 5-6 5m-213.8-50c0 .5-.3 6.9-.2 13.4-6.8.5-5.7-13.3-5.3-15 .2-1.4-4.4 1.7-6.6 3.8.7 1.3 1.7 1 2.9.5-.4 6.2 3.9 11.8 9 11.7.2 6.4.8 12.5 2.7 13 .2 0 .4-6.5.6-13.7 12.2-3.8 7.6-18.3 7.6-18.3-.2-.8-2 .3-6 3.9 1.6 1.7 2.3.7 3.6.3 1 1.9 1.4 10.5-5.2 13l.3-18-.4-.2c-1.8.2-5 3.4-7.5 6 1.4 2.3 3 .3 4.5-.3m5.9 19 2.8 2.9 2.8-2.8-2.8-2.8-2.8 2.8Z"/>
  </g>
</symbol></svg>
