<svg xmlns='http://www.w3.org/2000/svg' viewBox='0 0 696 830' fill='none'><symbol id='CARC_Fill'>
  <g fill="none">
    <path fill="#D7CDC1" d="M105.4 422.2c1.7-45.5 9.4-90.6 23-134l17-44a528.6 528.6 0 0 1 47-74c16-19 35-34 57-45 17-8 35-14 54-20 10-3 21-3 31-3h27c14-1 28 2 41 6 15 5 30 10 44 17 22 12 42 26 57 46 11 12 20 25 29 38 7 11 14 23 18 35l23 60c8 24 12 49 15 74 3.5 48.7 1.5 97.7-6 146a290 290 0 0 1-76 139l-15 13c-24 23-52 37-84 43l-47 8c-11 1-22 0-34-1l-44-8c-29-7-54-20-75-40l-29-29c-25-28-45-61-57-97-5-14-8-29-9-43l-5-48-2-39Z"/>
    <path fill="#FFF" d="M119.4 425.2c1.3-42.8 8.4-85.1 21-126l18-48a446.5 446.5 0 0 1 45-69c15-17 34-31 55-41 16-8 32-13 49-18 7-2 14-3 22-3h35c12-1 23 2 34 5 17 6 33 11 48 20 18 9 34 22 47 38 17 21.6 32.1 44.7 45 69l22 58a430.8 430.8 0 0 1 9 204c-3 22-10 43-20 62-14 26-30 50-51 71l-17 16c-21 20-46 32-75 38l-46 8c-11 1-22 0-33-1l-43-8c-26-6-49-19-69-37-25-23-46-48-63-78a201.8 201.8 0 0 1-28-95l-3-36-2-29Zm452 9-4-46c-2-25-6-49-14-72a2089 2089 0 0 0-38-90c-9-16-20-31-32-45-12-15-27-27-45-35a279.4 279.4 0 0 0-92-20c-19 1-37 4-55 9l-22 7c-23 7-43 22-58 41l-27 38c-8 11-14 24-19 37l-16 41c-9 25-16 51-19 78l-4 52c-1 18-1 35 2 53l8 37c9 42 29 78 57 109l31 30c15 14 32 25 52 32 23 8 46 13 70 14 9 0 18 0 27-2l22-5c30-6 57-20 79-41l22-21c24-24 42-53 55-84 6-15 9-30 13-46 5-23 8-47 7-71Z"/>
    <path fill="#FFF" d="M521.4 422.2c.6 48.5-12.2 96.3-37 138-15 24-33 45-58 60a203.8 203.8 0 0 1-70 28c-9 1-18 0-28-2-12-3-24-7-36-13l-13-7c-25-13-45-31-61-54l-8-12c-10-19-19-38-26-59s-10-44-11-66v-35c1-13 4-26 7-39a252.7 252.7 0 0 1 57-115l10-11a129.4 129.4 0 0 1 66-47c9-3 19-6 29-7 7-1 14 0 20 2 30 5.6 57 21 77 44l28 32c22 28 37 60 45 94l7 32c2 12 2 24 2 37Zm-13 64 1-4 4-35c1-19 1-39-3-59l-7-28c-6-25-15-48-27-70l-14-24c-10-19-24-35-43-47l-9-7-18-9-38-14c-5-2-10-2-15 0l-18 6a194.5 194.5 0 0 0-64 37c-9 10-18 20-24 31l-12 22a290.8 290.8 0 0 0-36 196l1 6c18-7 35-6 51 6l10 6c4 3 9 5 14 6 4 0 8 1 12-1l-1-1c-15-11-18-27-17-45 0-4 1-4 5-5l24-6-3-4a89.5 89.5 0 0 1-15-73c2-4 5-8 9-10l10-4 31-9c7-2 15-3 23-2h6c1-7-2-13-3-20h-2c-10 1-20 4-30 8l-6 2c-3 1-5 0-6-2l-4-7c-7-17-6-33 1-49 1-3 3-4 6-5l13-5c9-4 19-6 29-6h3l-1-16v-17l3-4 2 1 2 6h1c9-4 18-3 27 1l11 3c5 2 11 2 16 0h2l-1 3c-8 9-19 13-31 11l-10-2c-5-1-11-1-16 1v13h4c8 0 16 2 24 5l16 5c3 1 6 4 7 7 4 10 6 20 5 31-1 8-3 16-8 23-2 4-3 4-8 3l-11-5c-8-3-17-4-25-5-2 7-5 13-4 20h2c7-1 13 0 20 1 14 2 27 6 40 10l10 5c3 2 5 4 6 7l2 6c4 20 1 38-8 55-2 6-6 10-9 16l-1 2 24 6c2 0 4 2 4 4l1 8c-1 15-5 29-18 39l-1 1h3c9 1 18-2 26-7l12-8c9-6 19-8 30-7l14 3Zm-99-39 2-5 5-17c5-18 9-36 9-55 0-3-1-6-4-7-8-5-16-7-25-8l-30-2-31-1-35 4c-9 0-18 3-26 8-2 1-3 2-3 5l2 25 9 40 5 12h2c9-1 17-4 24-10l15-15c9-9 15-21 18-34l1-3 1-1h1l1 4c5 24 21 40 39 53 6 4 13 6 20 7Zm52 131c14-13 23-30 31-48-6-2-11-2-17-1l-19 5-13 6c-12 4-23 4-35 0l-14-5c-10-5-20-8-31-9-8-1-14-3-22-1-14 1-27 4-40 10l-14 6c-11 3-21 3-32-1l-13-5-16-5c-7-2-13-2-20-1l-4 2c8 18 17 35 32 48l2-1c10-5 19-7 30-8l24 1 14-1c10-2 19-5 27-9 12-5 23-5 34 0l17 7c8 2 15 3 23 3l15-1c8 0 17 0 25 2l16 6Zm-274-86c3 12 8 23 13 33l2-1c9-3 17-4 26-2 7 1 13 2 19 5l14 7c11 5 23 5 34 1l16-8c6-2 11-5 17-6 19-5 38-4 56 6l15 7c8 3 15 5 23 4l16-5 15-7c10-4 20-6 30-5l11 3c5-7 12-28 12-33l-5-1c-6-1-13-1-19 1-9 2-18 5-27 10l-15 7c-13 6-26 7-39 1l-13-6c-11-5-23-9-35-12h-10c-12 3-24 7-36 13l-15 6c-10 4-21 4-32 0l-15-7-22-10c-9-3-17-4-26-3-3 0-7 0-10 2Zm158-77h-1c-6 11-15 18-25 24l-30 15c-8 3-16 4-24 3l-6-1c3 19 10 34 23 47l4-2 15-7c13-6 27-9 41-9 19-1 37 2 54 10l13 6 5 2c13-13 21-28 23-47l-3 1c-8 1-17 1-26-3l-34-17c-9-5-16-12-21-21l-1-1-1 16v22l-1 11-1 3h-1l-2-3-1-12v-37Zm113 166c-7-4-15-6-23-5l-22 4c-14 2-28 0-40-7l-4-2c-6-4-12-6-19-7h-4c-6 1-13 3-19 6l-8 5c-8 4-16 6-24 6s-16-2-23-4c-6-1-12-2-19-1-6 1-11 3-16 6l1 1c13 13 27 24 42 33 2 2 4 2 5 1l21-10 16-8c18-7 35-7 52 0l18 9 17 8h5l21-14c8-6 16-13 23-21Zm-62-307-11-2-25-1-50 1-7 1-2 1c-4 19-5 37 0 55l2-1c8-6 17-11 28-12h27c13 0 24 4 35 12l2 1 1-3c2-7 3-15 3-22l-3-30Zm10 347-1-1-25-10-27-9h-9c-11 2-21 6-31 10l-22 9-3 1 4 2c15 9 31 15 48 19 5 1 10 1 16-1l12-3c13-4 26-10 38-17Zm-54-378c7-3 14-2 20 1l5 2h13l10-5c-8 1-16 0-23-3l-8-4c-6-2-11-2-17 1v8Z"/>
    <path fill="#D7CDC1" d="m508.4 486.2-14-3c-11-1-21 1-30 6l-12 9c-8 5-17 8-26 7h-3l1-1c13-10 17-24 18-39l-1-8c0-2-2-4-4-4l-24-6 1-3 9-15c9-17 12-35 8-55l-2-6c-1-3-3-5-6-7l-10-5c-13-4-26-8-40-10-7-1-14-2-20-1h-2c-1-7 2-13 4-20 8 1 17 2 25 5l11 5c4 1 6 1 8-3 5-7 7-15 8-23 1-11-1-21-5-31-1-3-4-6-7-7l-16-5c-8-3-16-5-24-5h-4v-13c5-2 11-2 16-1l10 2c12 2 23-2 31-11l1-3h-2c-5 2-11 2-16 0l-11-3c-9-4-18-5-27-1h-1l-3-6-1-1-3 4v16l1 16-3 1c-10 0-20 2-29 6l-13 5c-3 1-5 2-6 5-7 16-8 32-1 49l4 7c1 2 3 3 6 2l6-3c10-3 20-6 30-7h2c1 7 4 13 3 20h-6c-8-1-16 0-23 2l-31 9-10 4c-5 2-7 6-9 10a90 90 0 0 0 15 73l3 4-24 6c-4 1-5 1-5 5-1 18 2 34 17 45l1 1c-4 2-8 1-12 1-5-1-10-3-14-6l-10-6a51.2 51.2 0 0 0-51-6l-1-6c-4-19-4-38-5-57 0-24 6-47 12-70 6-24 16-47 29-69l12-22a147.8 147.8 0 0 1 29-35c18-14 37-26 59-33l18-6c5-2 10-2 15 0l37 14c7 2 13 6 19 9l9 7c19 12 33 28 43 47l14 24c12 22 21 45 27 70l7 28c5.4 31 5.1 63-1 94l-1 4Zm-73-198-1 1v1l1 2c1 13 4 26 10 39l13 27c3 6 7 13 8 20l2 17 1 20v3h1l2-5c3-16 2-32-7-48l-8-14c-10-18-18-36-21-57l-1-6Zm-173 0-1 1-1 4c-2 19-9 36-18 53l-11 18c-8 16-10 33-6 50l1 4h1l1-4v-24c1-9 3-19 8-27l7-15a155.1 155.1 0 0 0 19-60Z"/>
    <path fill="#D7CDC1" d="M409.4 447.2c-7-1-14-3-20-7a89 89 0 0 1-39-53l-1-4h-1l-1 1-1 3c-3 13-9 25-18 34l-15 15c-7 6-15 9-24 10h-2l-5-12-9-40-2-25c0-3 1-4 3-5 8-5 17-8 26-8l35-4 31 1 30 2c9 1 17 3 25 8 3 1 4 4 4 7 0 19-4 37-9 55l-5 17-2 5Zm52 131-16-6c-9-2-17-2-25-2l-15 1c-8 0-16-1-23-3l-17-7c-11-5-22-5-34 0-8 4-17 7-27 9l-14 1-25-1c-10 0-19 3-29 8l-2 1c-15-13-24-30-32-48l4-2c7-1 13-1 20 1l16 5 13 5c11 4 21 4 32 0l14-5c13-6 26-9 40-11 8-1 14 1 21 2 12 1 22 4 32 9l14 5c12 4 23 4 35 0l13-6 19-5c6-1 11-1 17 1-8 18-17 35-31 48Z"/>
    <path fill="#D7CDC1" d="M187.4 492.2c3-2 7-2 10-2 9-1 17 0 26 3l22 10 15 7c11 4 22 4 32 0l15-6c11-6 24-10 36-13h10c12 3 24 7 35 12l13 6c13 6 26 5 39-1l15-7c9-5 18-8 27-10 6-2 13-2 19-1l5 1c0 5-7 26-12 33l-11-3c-10-1-20 1-30 5l-15 7-16 5c-8 1-15-1-23-4l-15-7a77.2 77.2 0 0 0-56-6c-6 1-11 4-17 6l-16 8c-11 4-23 4-34-1l-14-7c-6-3-12-4-19-5-9-2-17-1-26 2l-2 1c-5-10-10-21-13-33Z"/>
    <path fill="#D7CDC1" d="M345.4 415.2v37l1 12 2 3h1l1-3 1-11v-22l1-16 1 1c5 9 12 16 21 21l34 17c9 4 18 4 26 3l3-1c-2 19-10 34-23 47l-5-2-13-6c-17-9-35-11-54-10-14 0-28 3-41 9l-15 7-4 2a80 80 0 0 1-23-47l6 1c8 1 16 0 24-3l30-15c10-6 19-13 25-24h1Zm113 166c-7 8-15 15-23 21l-21 14h-5l-17-8-18-9c-17-7-35-7-52 0l-16 8-21 10c-1 1-3 0-5-1-15-9-29-20-42-33l-2-1c6-3 11-5 17-6s12 0 18 1l24 4c8 0 16-2 24-6l8-5c6-3 13-5 19-6h4c7 1 13 3 19 7l4 2c12 7 26 9 40 7l22-4c8-1 15 1 23 5Zm-62-307 3 30c0 7-1 15-3 22l-1 3-2-1c-11-8-22-12-35-12h-27c-11 1-20 6-28 12l-2 1c-5-18-4-36 0-55l2-1 7-1 50-1 25 1 11 2Z"/>
    <path fill="#D7CDC1" d="M406.4 621.2a148.7 148.7 0 0 1-50 20c-6 2-11 2-16 1-17-4-33-10-48-19l-4-2 3-1 22-9c10-4 20-8 31-10h9l27 9 25 10 1 1Zm-54-378v-8c6-3 11-3 17-1l8 4c7 3 15 4 23 2-2 3-6 5-10 6h-13l-5-2c-6-3-13-4-20-1Z"/>
    <path fill="#FFF" d="m435.4 288.2 1 6c3 20 11 39 21 57l8 14c9 16 10 32 7 48l-2 5h-1v-3l-1-20-2-17c-1-7-5-14-8-20l-13-27c-6-13-9-26-10-39l-1-2v-1l1-1Zm-173 0c-1.5 21.5-8 42.4-19 61l-7 14c-5 8-7 18-8 27v24l-1 4h-1l-1-4c-4-17-2-34 6-50l11-18c9-17 16-34 18-53l1-4 1-1Zm220.1 170.2 2.8 2.8 2.8-2.8-2.8-2.8-2.8 2.8Zm-5.9-19.1c0 .4-.3 6.8-.2 13.3-6.8.5-5.7-13.3-5.3-15 .2-1.4-4.4 1.7-6.6 3.8.7 1.3 1.7 1 3 .5-.6 6.2 3.8 11.8 9 11.7.1 6.4.8 12.5 2.6 13 .2 0 .5-6.5.6-13.7 12.2-3.8 7.5-18.3 7.5-18.3-.2-.8-2 .4-6 3.9 1.6 1.7 2.4.7 3.6.3 1 1.9 1.4 10.5-5 13l.2-18-.4-.2c-1.8.2-5 3.4-7.5 6 1.5 2.3 3.2.3 4.5-.3"/>
  </g>
</symbol></svg>
