<svg xmlns='http://www.w3.org/2000/svg' viewBox='0 0 696 830' fill='none'><symbol id='CHEC_Fill'>
  <g fill="none">
    <path fill="#A7BFB9" d="M590.4 424c.6 29.5-1.7 59-7 88-3 26-10 50-22 73-14 28-32 54-54 76l-19 18c-22 20-48 33-77 40l-46 8c-14 1-27 1-41-1l-36-6a166 166 0 0 1-85-44l-20-21c-26-27-45-58-59-93-6-15-10-30-12-46a1995 1995 0 0 1-7-81c0-22 1-45 3-67 4-29 11-57 21-85l16-40a487 487 0 0 1 48-75c15-17 33-31 54-42a251.2 251.2 0 0 1 79-24l19 1h5l17-1c10 0 19 1 28 4 17 5 34 11 50 19 23 11 42 26 59 46l28 38c7 11 13 22 18 35l18 45c9 23 14 47 18 72l4 63"/>
    <path fill="#FFF" d="m571.4 435-1-7-4-50c-3-24-8-48-16-70l-21-56-14-26c-10-16-20-30-31-44-15-19-34-33-57-40-13-5-27-9-40-12a171.6 171.6 0 0 0-71-1c-17 3-33 8-50 14-11 4-22 9-31 16s-17 15-24 23l-28 40c-7 11-13 23-18 35l-14 37c-12 29-19 59-22 90-2 21-4 41-4 62 0 14 1 27 3 41l8 34c9 40 28 75 56 106 10 12 22 23 34 34 20.8 18.1 46 30.5 73 36 25 7.5 51.4 8.8 77 4l15-2 30-8c20-8 38-20 53-35l21-20a243.4 243.4 0 0 0 63-107l6-25c5-23 8-46 7-69m5-11c0 14 0 31-2 48l-4 36c-2 20-8 40-17 59-14 29-31 56-54 79l-18 17c-20 20-45 32-72 38l-30 5c-14 1.7-28 2.7-42 3-18-2-36-4-54-9-25-6-48-18-67-35-13-13-27-26-38-41-16-20-30-42-39-66-7-15-11-30-13-46l-5-47c-2-19-2-38-1-58l2-29c2-29 8-57 19-84l16-41 16-31 29-38c14-18 32-32 53-42a279.4 279.4 0 0 1 57-20l16-2 18 1h4l20-1a307.8 307.8 0 0 1 70 22c22 10 40 24 55 43l26 35c7 11 14 23 19 35l18 48c7 20 12 40 14 61 3 19 4 38 4 60"/>
    <path fill="#FFF" d="M376.4 211c6 0 11-3 14-8l-1-1-2-1-33-12c-6-2-6-1-5 4s3 9 8 11l3 1 8 4 8 2m111 269c0 7 7 16 16 13 3-1 4-2 5-5l3-21v-2c-3-3-4-7-4-11l-5-8c-3-4-7-4-10 0l-1 1c-2 5-4 9-3 15 1 5 1 10-1 16v2m-111 133 1 8c0 4 2 8 4 10 2 1 3 2 5 1l19-10 1-2 1-12c0-4 0-8-3-11l-2-2c-4-6-11-7-17-3-3 2-6 6-7 9l-1 5-1 7m137-183v-15c-1-13-2-25-5-38l-6-22c-6-22-14-43-25-63l-18-32a143.2 143.2 0 0 0-30-34l-23-16-11-6-3 1c-3 4-7 6-12 7l-5 1c-3 1-7 2-10 1-6-1-10-4-14-7-4-4-6-9-6-15v-3l-1-1-5 1a550.2 550.2 0 0 0-48 19c-11.1 6.6-21.8 14-32 22-9 9-17 18-24 29l-20 36c-9 16-16 32-21 50l-8 29-5 32c-1 21-1 41 1 62 2 14 5 28 10 41 8.9 20.9 19.6 41 32 60a239.3 239.3 0 0 0 112 72l11 2 10-2 7-2 15-6-9-11c-3-4-3-9-2-14 2-7 7-13 13-18 8-6 16-5 25-2 4 1 6 5 6 9l-1 16-1 4 1 1 2-1a231.3 231.3 0 0 0 67-63c8-15 15-29 21-44l4-11c0-1 0-2-2-1h-1c-4 1-7 0-10-3-3-2-6-5-7-9l-3-8-1-7c-1-3-1-6 1-9l4-11 4-7c4-5 11-5 15 0l5 8 1 3h1v-1l1-3v-21m-341-11c-.3-20 2.4-39.8 8-59l10-35c10-28 25-54 45-76l16-19c6-8 15-15 23-21 8-7 17-13 27-17 13.4-5.6 27.6-9.3 42-11 5-1 10 0 15 1 16 3 31 8 45 16a168 168 0 0 1 45 39l16 18c19 23 32 48 42 76l9 34 4 24a283 283 0 0 1-17 133l-14 29c-9.6 14.8-20 29.2-31 43-6 8-13 14-21 19-15 11-31 20-49 27-10 4-21 6-32 8-7 1-15 1-23-1-16-3-32-9-46-17l-22-12c-12-8-22-17-31-27l-12-14c-6-8-12-17-16-27l-15-32c-7-16-11-32-14-49-2-16-4-32-4-50"/>
    <path fill="#A7BFB9" d="M338.4 583c6 0 16-1 25-4 15-5 30-11 44-20l25-17 5-4c8-7.6 15.5-16 22-25 8-12 13-24 17-38 5-17 7-36 7-54 0-8-2-15-4-23l-5-19-5-23c-4-17-11-32-22-45l-4-5v-2c6-5 6-12 5-19 0-3-2-6-3-8-3-5-7-9-12-9-5-1-10 0-15 2l-5 4h-2l-1-1a144 144 0 0 0-38-19l-31-11c-13-5-27-7-41-6-4 0-8 1-11 3a54.4 54.4 0 0 0-22 37c-2 10-5 19-10 27-5 10-8 20-8 31l1 15c0 4 1 7 3 10l4 6c3 5 4 11 3 17-1 7-5 12-10 17l-21 19c-7 6-13 14-16 23-4 13-4 26-2 39a124.6 124.6 0 0 0 33 68c3 4 7 7 12 10l4 2 3 2-2 3-1 2c-3 7 0 14 6 16l7 5 6 4c4 2 8 1 11-2l4-7v-4c0-3 1-3 4-2l9 2c9 2 19 3 31 3m175-153v21l-1 4h-1l-1-3-5-8c-4-5-11-5-15 0l-4 7-4 11c-2 3-2 6-1 9l1 7 3 8c1 4 4 7 7 10 3 2 6 3 10 2h1c1-1 2 0 2 1l-4 11c-6 15-13 29-21 44a230.9 230.9 0 0 1-67 64h-2l-1-1 1-4 1-16c0-4-2-7-6-9-9-3-17-3-25 3-6 4-11 10-13 17-1 5-1 10 2 14l9 11v2l-15 4-7 2-10 2-11-2c-18-4-34-11-50-20-11-7-22-14-33-23a242.3 242.3 0 0 1-40-44c-8-15-15-29-21-45-5-13-8-27-10-41-3.3-31.4-2-63 4-94l8-29c5-18 12-34 21-50l20-36a137.8 137.8 0 0 1 27-31l29-20 29-13 19-6 5-1 1 1v3c0 6 2 11 6 15 4 3 8 6 14 7h10l5-2c5-1 9-3 12-7l3-1 11 6c9.8 6.8 19.5 13.8 29 21 9 9 17 18 24 29l18 32c11 20 19 41 25 63l6 22c3 13 4 25 5 38v15"/>
    <path fill="#A7BFB9" d="m376.4 613 1-7 1-5c1-3 4-7 7-9 6-4 13-3 17 3l2 2c3 3 3 7 3 11l-1 12-1 2-19 10c-2 1-3 0-5-1-2-2-4-6-4-10l-1-8m111-133v-2c2-6 2-11 1-16-1-6 1-10 3-15l1-1c3-4 7-4 10 0l5 8c0 4 1 8 4 11v2l-3 21c-1 3-3 4-5 5-9 3-16-6-16-13m-111-269-8-2-8-4-3-1c-5-2-7-6-8-11s-1-6 5-4l33 12 2 1 1 1c-3 5-8 8-14 8"/>
    <path fill="#FFF" d="M289.4 579v-1c0-3 0-3-2-5l-16-7c-5-2-6-2-7 3l-1 3c0 3 1 5 3 6l3 1c3 1 4 3 5 5l2 3 3 4c2 2 5 1 7 0l2-6 1-6m158-290v-1c0-3-1-5-3-7-1-2-3-2-5-2l-6-3-2-2c-3-3-6-3-9-2l-5 3h-1c-2 1-2 2 0 3l12 10 9 11 3 2h1l3-2c2-3 3-7 3-10m-159-24-1-11-1-1h-1c-5 7-9 14-11 22-1 6-2 12-5 18l-8 26c-2 4-2 7-2 11v12c-1 5 0 9 2 13a49.7 49.7 0 0 1 7 16l1-1c8-14 12-28 11-44l-1-17c0-5 0-10 2-15l6-18 1-11m68 211 1-4c1-4 5-6 9-5l5 1c5 3 6 6 6 11l-2 5-5 10-14 13a61.7 61.7 0 0 1-47 13l-19-4h-1l1 1 4 2 18 5c12 2 23 1 34-5l17-9c6-4 11-9 15-15 3.8-6.2 7.8-12.2 12-18l2-4c3-3 5-5 9-5l5-1c2-1 4-1 5 1l2 5 2 6c1 1 2 3 1 5-1 5-1 5 4 6 2 1 3 0 3-1 1-2 2-3 5-3v-3l-3-2c-5-2-8-6-9-11l-1-4c0-2-2-4-4-5l-2-1-8-1c-3 0-3 0-4-3v-3l-2-12-1-7-4-7-4-7-7-13-2-3 1-2h2c4-1 6-4 8-7 2-2 2-4 1-7-2-3-1-6 0-8 1-3 0-4-2-5h-6l-4 2c-2 1-3 3-1 5l3 2 3 2c3 3 3 8-1 10s-9 3-13 3c-4-1-7-3-8-6l-1-4c-1-3-3-5-6-6l-9-2h-11c-4 1-6 3-4 7 2 7 7 12 13 16 1 1 3 2 4 1l3-1c5-1 8 1 10 5 2 5 1 13-3 16l-2 1c-3 2-7 3-11 0h-2l-2 3 2 5c1 2 2 3 4 1 2-3 5-4 8-6l4-2c3-1 4-3 5-6l1-4c1-1 2-2 3-1l1 2c2 2 2 5 3 7 1 10 2 20 8 29l1 4c0 3-2 4-5 3l-2-1h-5c-2 1-5 1-7 3-3 1-5 3-5 6l-2 5c-1 4-2 6-6 7-1 1-2 2-1 4 1 1 1 2 3 2l3 1 5-1c2-1 2-2 1-4l-2-6m9-55-1 2c-1 4-4 7-9 8l-5 2-4 3c-2 2-5 2-6-1l-1-2-1-4c-1-1-1-3 1-4 1-2 2-2 4-2l4 2c5 0 8-2 8-7v-9c-1-3-3-4-6-3l-2 2c-5 1-9 1-12-2l-5-6c-2-4-4-9-4-14 0-3 0-3-3-3h-33c-6 0-11 2-16 4l-13 11-14 16-10 9a59.1 59.1 0 0 0-15 57c4.5 18 13 34.8 25 49l11 14c4 7 10 12 17 16 13 7 26 13 40 14 8 1 16 2 24 1 11-2 22-4 33-9l13-6 11-7 20-13c7-4 12-9 18-15 9-8 16-19 20-30l9-24c5-16 8-33 9-50 0-11-2-23-5-34l-6-18-7-24a145.1 145.1 0 0 0-42-54l-17-11c-9-6-19-10-29-13l-14-4c-6-1-11-3-17-6l-6-2-20-6-12-1c-4 0-4 0-2 4 3 6 4 13 3 21l-1 6-7 21-3 15v23c0 10-2 19-6 28l-10 18v1h1l13-3 6-2 5-2c6-1 12-1 17 1l12 3 3-1c1-2 4-2 6-3 4.3-.8 8.7-1.4 13-2 5 0 10 2 12 7l3 6 2 3c5 3 9 4 14 2 3 0 4-4 2-7l-3-2-3-3c-2-2-1-5 2-6l4-3h5l3 1c3 0 4 2 3 4v4c-1 2 0 4 1 6l1 4c0 5-3 10-8 11l-3 1v1l8 9c4 3 6 7 6 12l2 10c2 6 3 12 2 18l2 2 6-1c7-1 11 4 11 11v5c1 3 2 6 6 8l3 1c2 2 2 5 0 7l-3 3-2 2c-3 1-8-2-9-5v-2c0-2 0-4-2-5s-3-3-3-6v-3c0-1-1-2-2-1l-4 1c-4 0-6 3-8 6l-3 4-5 9c-4 8-9 15-17 20-6 5-13 8-20 11-10 3-19 6-29 7-5 0-10 1-15-1-10-1-18-5-25-11-6-5-10-10-13-17l-4-10c-3-7-4-15-2-23 2-11 7-21 18-27l11-7c5-3 11-4 17-4 14 2 22 10 25 21 2 5 2 10 2 16 0 16-14 29-30 28l-3-1v-1h5l7-3c7-2 12-7 13-14l3-12v-10c0-5-2-9-6-12-2-2-4-3-7-3l-6-1c-5-1-11-2-16-1-7 1-13 4-17 10a48 48 0 0 0-2 54c4 6 9 10 15 13l11 4 5 1c12 1 23 0 33-5 12-5 22-14 30-24l4-7v-4l-1-4c-2-2-5-3-8-3-2 0-4 1-4 4l-1 3v7c0 3-2 6-6 6h-6c-4-1-6-4-4-8l3-3c2 0 3-1 3-3l1-4v-5c1-9 13-14 20-10l3 1h1v-2l-1-1c-3-4-5-8-6-14l-2-14-1-5m-27 161c-13.5-.1-27-1.8-40-5-3-1-4-1-4 2v4l-4 7c-3 3-7 4-11 2l-6-4-7-5c-6-2-9-9-6-16l1-2 2-3-3-3-4-1c-5-3-9-6-12-10l-4-5c-9-9-16-21-20-32-5-10-8-20-9-31-2-13-2-26 2-39 3-9 9-17 16-23l21-19c5-5 9-10 10-17 1-6 0-12-3-17l-4-6c-2-3-3-6-3-10l-1-15c0-11 3-21 8-31 5-8 8-17 10-27a55.8 55.8 0 0 1 22-37c3-2 7-3 11-3 14-1 28 1 41 6a401.2 401.2 0 0 0 45 16l24 14 1 1h2l5-4c5-3 10-3 15-2 5 0 9 3 12 9 1 2 3 5 3 8 1 7 1 14-5 19v2l4 5c11 13 18 28 22 45l5 23 5 19c2 8 4 15 4 23 0 18-1 37-7 54-7 24.2-20.5 46-39 63l-5 4-25 17c-14 9-29 15-44 20-9 3-18 4-25 4"/>
    <path fill="#A7BFB9" d="m403.4 403-2-1-1 1 1 1 2-1m33 93-1-1-1 1 1 1 1-1Zm-14-150-1-1-2 1 2 2 1-2Zm-66-52-2 1 2 2 1-2-1-1Zm7 256 2-2-2-2-2 1c0 2 1 3 2 3m84-105-2-3c-2 0-3 1-3 3l2 2c2 0 3-1 3-2m-110-105c0-2-1-3-2-3-2 0-3 1-3 3l2 2c2 1 3-1 3-2m-30 139c0-2-1-3-3-3l-2 3 2 3c2 0 3-2 3-3m110-147c2 0 3-1 3-3s-1-3-3-3-3 2-3 3c0 2 2 3 3 3m-153 88c0-2-1-4-3-4-2 1-3 2-3 4s2 4 3 3c2 0 4-1 3-3m23-6c2 0 4-2 4-4s-1-4-4-4c-2 0-3 2-3 4s1 4 3 4m79 13 2 14c1 6 3 10 6 14l1 1v2h-1l-3-1c-7-4-19 1-20 10v5l-1 4c0 2-1 3-3 3l-3 3c-2 4 0 7 4 8h6c4 0 6-3 6-6v-7l1-3c0-2 2-4 4-4 3 0 6 1 8 4l1 3c-.1 4-1.5 7.8-4 11-8 10-18 19-30 24a62 62 0 0 1-38 4l-11-4c-6-3-11-7-15-13a48 48 0 0 1 2-54c4-6 10-9 17-10 5-1 11 0 16 1l6 1c3 0 5 1 7 3 4 3 6 7 6 12v10l-3 12c-1 7-6 12-13 14l-7 3h-5v1l3 1c16 1 30-12 30-28 0-6 0-11-2-16-3-11-11-19-25-21-6 0-12 1-17 4l-11 7c-11 6-16 16-18 27-2 8-1 16 2 23l4 10a53.2 53.2 0 0 0 38 29h15c10-1 19-4 29-7 7-2 14-6 20-11 8-5 13-12 17-20l5-9 3-4c2-3 4-6 8-6l4-1c1-1 2 0 2 1v3c0 3 1 5 3 6s2 3 2 5v2c1 3 6 6 9 5l2-2 3-3c2-2 2-5 0-6l-3-2c-4-2-5-5-6-8v-5c0-7-4-12-11-11l-6 1-2-2c1-6 0-12-2-18l-2-10c0-5-2-9-6-12l-8-9v-1l3-1c5-1 8-6 8-11l-1-4c-1-2-2-4-1-6v-3c1-3 0-5-3-5l-3-1h-5c-1 2-2 3-4 3-3 1-4 4-2 6l3 3 3 2c2 3 1 7-2 7-5 2-9 1-14-2l-2-3-3-6c-2-5-7-7-12-7l-4 1-9 1c-2 1-5 1-6 3l-3 1-12-3c-5-2-11-2-17-1l-5 2-6 2-13 3h-1v-1l10-18c4-9 6-18 6-28v-23l3-15a133 133 0 0 0 8-27c1-8 0-15-3-21-2-4-2-4 2-4l12 1 20 6 6 2c6 3 11 5 17 6l14 4c10 3 20 7 29 13l17 11 19 17c9 12 17 24 23 37l7 24 6 18c3 11 5 23 5 34-1 17-4 34-9 50l-9 24c-4 11-11 22-20 30-6 6-11 11-18 15l-20 13-11 7-13 6c-11 5-22 7-33 9-8 1-16 0-24-1-15-1-27-7-40-14-7-4-13-9-17-16l-11-14-6-7c-9-13-15-27-19-42-5.5-20.3.2-42 15-57l10-9 14-16 13-11c5-2 10-4 16-4h33c3 0 3 0 3 3 0 5 2 10 4 14l5 6c3 3 7 3 12 2l2-2c3-1 5 0 6 3v9c0 5-3 7-8 7l-4-1c-2-1-3-1-4 1-2 1-2 3-1 4l1 4 1 2c1 3 4 3 6 1l4-3 5-2c5-1 8-4 9-8l1-2 1 5Z"/>
    <path fill="#A7BFB9" d="m421.4 487-2-1-1 1v1h2l1-1m-70-3h-1l-2-1v1l1 1h1l1-1m-8-52v-3h-2l1 3h1m40-55h-1v1l3 2 1-1s-1-2-3-2Zm-27 100 2 6c1 2 0 3-1 4l-5 1-3-1c-2 0-2-1-3-2-1-2 0-3 1-4 4-1 5-3 6-7l2-5c0-3 2-5 5-6l7-3h5l2 1c3 1 5 0 5-3l-1-4c-6-9-7-19-8-29-1-2-1-5-3-7l-1-2c-1-1-2 0-2 1l-2 4c-1 3-2 5-5 7l-4 1c-3 2-6 3-8 6-2 2-3 1-4-1l-2-4 2-4h2c4 3 8 2 11 0l2-1c4-3 5-11 3-16-2-4-5-6-9-5l-3 1c-2 1-4 0-5-1-6-4-11-9-13-16-1-4 0-6 4-7h11l9 2c3 1 5 3 6 6l1 4c1 3 4 5 8 6 4 0 9-1 13-3s4-7 1-10l-3-2-3-2c-2-2-1-4 1-4v-1l4-2h6c2 1 3 2 2 5-1 2-2 5 0 9 1 2 1 4-1 6-2 3-4 6-8 7h-2l-1 2 2 3 7 13 4 7 4 7 1 7 2 12v3c1 3 1 3 4 3l8 1 2 1c2 1 4 3 4 5l1 4c1 5 4 9 9 11l3 2v3c-2 0-4 1-5 3 0 1-1 2-3 1-5-1-5-1-4-6 1-2 0-4-1-5l-2-6-2-5c-1-2-3-2-5-1l-5 1c-4 0-6 2-9 5l-2 4-5 9-7 9c-4 6-9 11-15 15l-17 9c-11 6-22 7-34 5l-18-5-4-2v-1l19 4c17 2 33-2 47-13l14-13 6-10 1-5c0-5-1-8-6-11l-5-1c-4-1-8 1-9 5l-1 5m-68-212-1 11-6 18-2 15 1 17c1 16-3 30-11 44l-1 1-1-1-5-15c-3-4-4-8-3-13v-12c0-4 0-7 2-11l9-26 4-18c2-8 6-15 11-22h1l1 1 1 11m159 24c0 3-1 7-3 10l-3 3-1-1-3-2-9-11-12-10c-2-1-2-2 0-3h1l5-3c3-1 6-1 9 2l2 3 6 2c2 0 4 0 5 2 2 2 3 4 3 7v1m-158 289c0-3 0-3-2-5l-16-7c-5-2-6-2-7 3l-1 3c0 3 1 5 3 6l3 1c3 1 4 3 5 5l2 3 3 4c2 2 5 1 7 0l2-5 1-8Z"/>
    <path fill="#FFF" d="M287.4 414c-2 0-3-2-3-4s1-4 3-4c3 0 4 2 4 4s-2 4-4 4m-23 6c1 2-1 3-3 3s-3-1-3-3 1-3 3-4c2 0 3 2 3 4m153-88c-1 0-3-1-3-3 0-1 1-3 3-3s3 1 3 3-1 3-3 3m-110 147c0 1-1 3-3 3l-2-3 2-3c2 0 3 1 3 3m30-139c0 1-1 2-3 2l-2-2c0-2 1-3 3-3 1 0 2 1 2 3m110 105c0 1-1 2-3 2l-2-2c0-2 1-3 3-3 1 0 2 1 2 3m-84 105c-1-1-2-1-2-3l2-2 2 3-2 2m-9-255 2 2 1-2h-3Zm67 50-2 1 2 2v-3Zm14 150-1 1 1 1v-2Zm-34-93-1 1 1 1 2-1-2-1Zm-18-25h-1v1l3 1c0 1 0-2-2-2Zm-40 56v-4h-2l1 3 1 1Zm7 51-2-1v1l1 1h1c1 0 3-1 0-1Zm71 3-1 1h-2v-1l1-1 2 1ZM218.3 367c0 .4-.3 6.8-.2 13.3-6.8.5-5.7-13.3-5.3-15 .2-1.4-4.4 1.7-6.6 3.8.7 1.3 1.7 1 2.9.5-.4 6.2 3.9 11.8 9 11.7.2 6.4.8 12.5 2.7 13 .2.1.4-6.5.6-13.7 12.2-3.8 7.6-18.3 7.6-18.3-.2-.8-2 .3-6 3.9 1.6 1.7 2.3.7 3.6.3 1 1.9 1.4 10.5-5.2 13.1l.3-18c0-.2-.2-.3-.4-.3-1.8.2-5 3.4-7.5 6.1 1.4 2.2 3 .2 4.5-.4m5.9 19.2 2.8 2.8 2.8-2.8-2.8-2.8-2.8 2.8Z"/>
  </g>
</symbol></svg>
