<svg xmlns='http://www.w3.org/2000/svg' viewBox='0 0 696 830' fill='none'><symbol id='COLC_Fill'>
  <g fill="none">
    <path fill="#9BADFA" d="m591 427.3-2 37-3 31-3 21c-2 20-7 39-16 57-11 25-25 48-43 69-9 11-19 21-29 30a164.7 164.7 0 0 1-85 46l-40 7-13 2h-12l-24-2-30-6a170.6 170.6 0 0 1-87-44l-23-23-25-32c-8-12-16-25-22-38a207.5 207.5 0 0 1-22-75l-3-31-2-24a386 386 0 0 1 20-158l21-56 13-24c11-17 24-34 37-50l21-19c16-13 35-23 55-30l25-8c14-5 29-6 43-4l12-1c16-1 31 0 46 5l39 15a180.9 180.9 0 0 1 68 52l24 32c8 13 15 26 21 40l18 48c9.3 24 15 49.3 17 75l3 48 1 10Z"/>
    <path fill="#FFF" d="m577 426.3-1 27-3 27-2 17a217.3 217.3 0 0 1-29 91 288.8 288.8 0 0 1-63 77 153.9 153.9 0 0 1-87 39l-22 3c-17.3 2.7-35 2-52-2l-25-4c-30.2-5.9-58-20.5-80-42a286 286 0 0 1-74-104c-5-12-8-25-10-38l-4-31-3-26-1-26v-25l4-48c4-26 11-51 21-75l11-28c5-14 12-28 21-41l27-35c13-16 29-28 46-37 13-7 26-12 39-16l23-7c8-1 15-2 23-1h24c11-1 22 0 33 3 18 6 35 12 52 20a171.2 171.2 0 0 1 53 45c15 19.6 28.3 40.3 40 62l20 51a249 249 0 0 1 15 66l2 28 2 30Zm-5 16-2-25a506 506 0 0 0-7-66c-3-17-8-33-14-48l-17-46c-6-13-12-26-20-37-8-13-17-25-26-36-7-9-14-16-23-23-6-6-13-10-21-13l-13-6-30-9c-19.9-5-40.5-7-61-6a275.7 275.7 0 0 0-78 19l-20 10c-9 7-17 14-24 23a447.7 447.7 0 0 0-49 75l-6 16-13 35c-10 27-16 54-18 82l-2 23-1 14-1 25 1 19c0 8 1 15 3 22l6 27c8.8 41.6 29 80 58 111l28 28 11 9c18 15 38 25 61 30l29 7 19 2c20 .6 40-2 59-8 25-6 48-17 67-34l26-25c30.3-29 52.4-65.6 64-106l8-32c4-17 6-35 6-57Z"/>
    <path fill="#FFF" d="M521 418.3c0 26-2 49-8 71-3 12-7 24-12 35l-12 25c-4 10-10 20-17 28l-14 16c-8 9-17 17-27 23l-27 16c-14 7-30 12-46 15-8 1-15 1-23-1a174.4 174.4 0 0 1-73-31 207.8 207.8 0 0 1-73-105c-9.3-23.3-14.3-48-15-73v-23c0-15 2-30 5-45l7-27a234 234 0 0 1 51-94l16-18 11-12c9.1-7 18.4-13.6 28-20a177.5 177.5 0 0 1 55-17l8 1c9 1 19 3 28 7l11 5c12 4 21 11 31 19l23 23 15 18c20 24 34 50 43 79 4 10 6 20 9 31l5 25 1 10v19Zm-7 13-4-50-8-29c-5-21-13-40-24-59l-18-33a141.8 141.8 0 0 0-31-35l-16-11c-7-5-15-9-23-12l-35-13c-5-2-10-2-16 0l-17 6a184 184 0 0 0-62 35c-9 9-18 19-24 30l-21 36c-8 14-14 30-19 46-4.7 17.2-9 34.6-13 52-2 11-2 22-2 33v16a225 225 0 0 0 12 64c8.5 21 19 41 31 60a229 229 0 0 0 95 69l19 5c6 2 11 2 17 0a161.2 161.2 0 0 0 55-22c20-12 38-26 53-42 8-9 16-18 21-29l11-23c10-22 16-44 18-68l1-26Z"/>
    <path fill="#9BADFA" d="m514 431.3-1 26c-2 24-8 46-18 68l-11 23c-5 11-13 20-21 29a238.6 238.6 0 0 1-108 64c-6 2-11 2-17 0l-18-5-23-10a228.6 228.6 0 0 1-83-72c-8-16-15-31-21-47-5-11-7-23-9-35l-3-29v-16c0-29 5.1-57.8 15-85 5-16 11-31 20-46l20-36a143 143 0 0 1 27-32l28-20 31-13 17-6c6-2 11-2 16 0l35 13c8 3 16 7 23 12l16 11 7 6c9 9 17 18 24 29l18 33c11 19 19 38 24 59l8 29 3 27 1 23Zm-263 35h-3c-9-1-16 2-22 7-8 7-14 15-18 25v2l2-1 10-11 7-5c8-3 15-4 23-2l10 3 11 1 5-1h2l-2 1c-2 2-4 3-7 3l-8 2c-10 2-17 8-22 18l-4 13c-1 4-2 8-1 12v2l1 1 1-1 2-5c1-5 3-10 6-14 3-5 8-8 13-10 7-2 13-2 20-2h8c5 0 8-2 12-4h1l-5 5-7 4-7 4c-7 3-11 9-12 16l-3 13 2 18 1 1 1-2 1-2c-1-4 0-8 2-11 2-4 3-7 6-10 5-8 13-14 22-16l6-2 12-6 2-2 2-1-1 3c0 2-2 3-3 5l-5 4-11 11c-2 4-3 9-3 14l1 12c1 6 2 11 5 16l2 2c1 0 2-1 1-3-1-6-1-11 1-17 2-10 7-18 15-23l8-6c5-2 9-6 12-10l1-1h1v2l-5 8c-2 4-5 7-6 11a40 40 0 0 0 11 43l2 1 1-1v-1l-1-3-3-7c-3-6-3-11-1-17 1-6 4-11 7-15l7-8a39.2 39.2 0 0 0 11-17h1c1 3 0 6-1 9l-3 9v17a46 46 0 0 0 21 28h3l1-1-7-9c-6-10-7-20-2-30l4-8 4-7c2-3 3-7 3-11v-3l1 3v13c0 8 3 15 9 21 5 5 10 10 16 13l8 3 2 1 1-1v-2l-4-3c-5-3-9-8-12-13-2-4-3-8-3-13l1-7 2-11 1-11-1-7v-1h1l2 5 2 8c2 8 6 15 12 20 9 7 19 10 30 10h2v-1l-2-1c-6-2-11-5-15-9-3-1-4-3-6-5-4-6-6-13-6-20-.2-4-.5-8-1-12 0-6-2-11-6-16v-1h1l7 8 4 8c5 8 12 14 21 16l11 2c6 1 12 0 17-2l2-1v-1l-1-1-13-2c-8-2-15-7-19-15l-4-7-2-7c-2-6-4-11-8-16l-1-1 1-1 2 1 5 6 6 6c4 3 8 6 13 7l6 1c6 0 13 0 19-2l10-4 2-3-3-1-4 1h-7l-5-1c-7 0-14-3-19-8l-5-7-5-8c-2-4-5-7-9-10l-3-2c2-1 3 0 4 1l5 3 7 4c8 5 17 5 26 2a60 60 0 0 0 22-14l1-1-2-1-4 2-14 4c-4 0-9 0-13-2-5-2-10-5-14-9l-8-7c-4-4-8-6-14-7h-2l-1-1h1l6-1 8 3 14 3c8 0 15-2 22-7 6-4 10-10 14-16l1-1-1-1h-2l-12 6c-7 4-14 4-21 3l-15-6c-4-2-9-5-14-6v-1l4-1 12-1a43.9 43.9 0 0 0 33-31l-1-2h-1l-1 1-7 7c-4 5-10 8-16 10-4 1-8 2-12 0l-12-3c-5-1-9-2-13-1h-5v-1l9-3c11-2.3 20.6-8.8 27-18 6-7 7-15 8-24l-1-3h-1l-1 2-6 11c-3 5-8 9-14 11-5.9 2-11.9 3.6-18 5l-11 1c-5 0-10 2-13 5l-3 2 1-3 3-3 8-5c7-3 13-8 17-15 6.8-10.7 8.3-24 4-36l-1-1v1l-1 3c0 4-2 9-4 13-4 9-10 15-20 18l-6 2-14 6-7 7-1 3-1 1v-1c0-3 2-6 4-8l6-5c6-4 10-10 12-17 5-12 3-24-4-36l-2-2-1 1v2l2 9v6c-2 11-7 20-17 26l-8 4c-5 4-10 8-13 13l-1 1v-1l2-5 4-6 5-8c4-6 5-12 4-19 0-6-2-11-5-16-3.6-5-8-9.4-13-13-1-1-2 0-2 1l1 3 3 8c2 5 2 10 2 15 0 6-2 12-6 17l-7 7-11 14c0 1 0 2-1 1v-1l1-4 2-10c2.1-7.8 1-16-3-23s-9-13-15-19l-6-4h-2l-1 2 2 2 8 12c4 11 4 21-1 30l-3 5a42.8 42.8 0 0 0-6 19h-1v-14c0-11-5-20-13-27a77.2 77.2 0 0 0-22-12h-1v1l2 2 9 9c4 4 6 9 7 14v15l-1 3-2 17v2l-1-1-1-5-3-7c-2-6-5-10-9-14-9-7-20-10-31-11h-2l-1 1 1 1 4 1c13 4 21 13 24 26l1 16 1 9 2 5-1 1-1-1-4-5-7-10c-4-6-10-9-18-11-7-2-15-2-23-1l-5 2v1l1 1 5 1 14 6c8 3 13 8 16 16l4 9c2 7 5 13 10 17v1h-1l-6-5-5-6c-5-5-11-9-18-10h-14a71 71 0 0 0-20 7v1h5c5-1 10 0 14 1 6 1 10 3 14 7l10 12a48.1 48.1 0 0 0 11 15v1l-4-2-7-5-8-3h-16c-9 2-17 7-24 13l-2 2 1 1 3-1 10-4c6-1 12-1 18 2l13 8 8 7c3 3 6 6 10 7l3 1-3 1-2-1-11-2c-10-2-19 0-26 5a62.7 62.7 0 0 0-19 18v2h1l7-5c4-4 9-5 15-6 8 0 16 1 24 5l11 4c4 2 8 2 12 2h4c-1 2-2 2-3 2l-5 1h-7Z"/>
    <path fill="#FFF" d="M251 466.3h7l5-1c1 0 2 0 2-2h-3c-4 0-8 0-12-2l-11-4c-8-4-16-5-24-5-6 1-11 2-16 6l-7 5v-2l1-2c5-7 11-12 17-16 8-5 17-7 27-5l11 2 2 1 3-1-3-1c-4-1-7-4-10-7l-8-7-13-8c-6-3-12-3-18-2l-10 4-3 1h-1v-1l2-2c7-6 15-11 24-13h16l8 3 7 5 3 2h1v-1c-5-4-8-9-11-15l-10-12c-4-4-8-6-14-7-4-1-9-2-14-1h-6l1-1 1-1c6-2 12-5 19-6h14c7 1 13 5 18 10l5 6 6 5h1v-1c-5-4-8-10-10-17l-4-9c-3-8-8-13-16-16l-14-6-6-1v-2l5-2c8-1 16-1 23 1 8 2 14 5 18 11l7 10 4 5 1 1v-1l-1-5-1-9-1-16c-3-13-11-22-24-26l-5-2 1-1h2c11 1 22 4 31 11 4 4 7 8 9 14l3 7 1 5 1 1v-2l2-17 1-3v-15c-1-5-3-10-7-14l-9-9-2-2v-1h2c7 3 14 7 20 12 9 7 14 16 14 27v14h1v-1c1-7 3-13 6-18l3-5c5-9 5-19 1-30l-8-12-2-2 1-2h2l6 4c6 6 11 12 15 19l4 11c1 4 0 8-1 12l-2 10-1 4v1c1 1 1 0 1-1l11-14 7-7c4-5 6-11 6-17 0-5 0-10-2-15l-3-8-1-3c0-1 1-2 2-1l3 2 10 11c3 5 5 10 5 16 1 7 0 13-4 19l-5 8-4 6-3 5 1 1 1-1c3-5 8-9 13-13l8-4c10-6 15-15 17-26v-6l-2-9v-2l1-1 2 2c7 12 9 24 4 36-2 7-6 13-12 17l-6 5c-2 2-4 5-4 8v1l1-1 1-3 7-7 14-6 6-2c10-3 16-9 20-18l4-13v-3l1-1 1 1 1 2c3 12 2 23-5 34-4 7-10 12-17 15l-8 5-3 3-1 3 3-2c3-3 8-5 13-5l11-1 6-1 12-4c6-2 11-6 14-11l6-11 1-2h1l1 3c-1 9-2 17-8 24l-1 1c-6 9-15 15-26 17l-9 3v1h5c4-1 8 0 13 1l12 3c4 2 8 1 12 0 6-2 12-5 16-10l7-7 1-1h1l1 2v1c-6 16-17 26-33 30l-12 1-4 1-1 1h1c5 1 10 4 14 6l14 6c8 1 15 1 22-3l12-6h2l1 1-1 1c-4 6-8 12-14 16-7 5-14 7-22 7l-14-3-8-3-6 1h-1l1 1h2c6 1 10 3 14 7l8 7c4 4 9 7 14 9 4 2 9 2 13 2l14-4 4-2 1 1v1l-2 2c-6 6-13 10-20 12-9 3-18 3-26-2l-7-4-5-3c-1-1-2-2-4-1l3 2c4 3 7 6 9 10l5 8 5 7c5 5 12 8 19 8l4 1h7l5-1 3 1-2 3-10 4c-6 2-13 2-19 2l-6-1c-5-1-9-4-13-7l-6-6-5-6-2-1-1 1 1 1c4 5 6 10 8 16l2 7 4 7c4 8 10 13 19 15l13 2v1h1v1l-2 1c-5 2-11 3-17 2l-11-2c-9-2-16-8-21-16l-4-8-7-8h-1v1a39.6 39.6 0 0 1 7 21v7c0 7 2 14 6 20l5 5c5 4 10 7 16 9l2 1v1h-2c-11 0-21-3-30-10-7-5-10-12-12-20l-2-8-2-5h-1v1l1 7-1 11-2 11-1 7c0 5 1 9 3 13 3 5 7 10 12 13l4 3v2l-1 1-2-1-8-3c-6-3-11-8-16-13-6-6-9-13-9-21v-13l-1-3v3c0 4-1 8-3 11l-4 7-4 8c-5 10-4 20 2 30l6 9v1h-3l-6-4c-7-7-12-15-15-24v-17l3-9 1-9h-1v1c-2 7-6 12-11 16l-7 8c-3 4-6 9-8 15-1 6-1 11 2 17l3 7 1 3v1l-1 1-2-1-4-4a40 40 0 0 1-1-50l5-8v-2h-1l-1 1c-3 4-7 8-12 10l-8 6c-8 5-13 13-15 23-2 6-2 11-1 17l-1 3-2-2a51.5 51.5 0 0 1-6-28c0-5 1-10 3-14l11-11 4-4c2-2 4-3 4-5l1-3-2 1-2 2c-4 3-8 5-13 6l-5 2c-9 2-17 8-22 16-3 3-4 6-6 10-2 3-3 7-3 11v2l-1 2-1-1-2-18 3-13c1-7 5-13 12-16l7-4 7-4 5-5h-1c-4 2-7 4-12 4h-8c-7 0-13 0-20 2-5 2-10 5-13 10-3 4-5 9-6 14l-2 5-1 1-1-1v-2c-1-4 0-8 1-12l4-13c4-10 12-16 22-18l8-2c3 0 5-1 7-3l2-1h-2l-5 1-11-1-10-3c-8-2-15-1-23 2l-7 5-10 11-2 1v-2c4-10 10-18 18-25 6-5 13-8 21-7h4Zm195-95c5 0 10 0 16-3l6-3c4-2 8-6 11-10l3-4v-1h-1l-2 2c-10 9-21 13-34 9l-12-3-8-1c-4 0-8 1-11 3l-2 1h-2v-2l1-1c1-3 3-4 5-6l8-3 11-3c4-1 7-3 10-6l10-11 4-8v-1l-2 3c-4 6-9 10-16 13l-15 3-12-1c-7 0-13 3-18 7l-1 2h-1l-1-1c0-4 2-8 5-11l5-3 9-5 6-5 8-11c3-5 4-11 4-16v-2h-2v2l-5 12c-5 6-11 11-19 13l-8 1c-5 1-10 4-14 7-3 3-6 5-8 9l-1 1-1-2v-7c1-4 3-7 6-10l5-6c3-2 5-4 6-7l5-14a35 35 0 0 0 0-17l-1-1v3l-3 15c-3 7-7 13-15 17l-8 5c-7 4-12 9-15 17l-2 2-1-2v-5l1-6 5-13 4-6c3-8 4-17 1-25l-7-13-2-1v1l1 2c1 4 3 9 3 14 1 10-1 19-8 27l-6 5-5 5c-4 5-6 10-7 16v3l-1 1-1-1-2-3c-1-3-2-6-1-10l1-8 3-9c1-5 1-10-1-15-3-7-8-14-13-19l-2-2h-1v1l2 2 3 5c3 5 4 11 4 16 0 6-1 11-3 15l-5 10c-3 6-5 12-4 18v8c0 1 0 2-2 2l-1-1c-5-3-8-8-7-14l1-7-1-12c-1-6-3-12-7-16l-14-11h-1v1l3 3c8 9 11 20 9 32l-2 9-1 8 2 13 2 5-1 1h-1c-4-2-6-4-8-7l-3-9-3-9c-2-5-5-10-9-13a53 53 0 0 0-13-9h-1v1l2 1c9 7 13 15 14 26v12c0 8 2 14 6 20l1 3v1h-3c-4-1-7-3-9-6l-6-8-6-9-9-8c-5-2-11-4-16-4h-6l-2 1h1l3 1 13 6c6 3 10 8 13 14l2 5 3 9c1 5 3 9 6 12l6 5 1 2v1l-2 1c-3 1-5 0-8-2l-6-5-6-7c-3-3-8-5-12-7-7-2-15-3-22-1l-7 2v1h10a30 30 0 0 1 24 15l6 9c4 6 9 11 16 14l2 2v1c-2 2-5 2-8 1l-9-3-8-4c-7-5-15-6-23-4-6 1-11 3-16 6l-1 1v1l3-1 10-2c7 0 14 2 19 5l15 12c5 5 11 8 18 8l2 1h1l1 1-1 1c-5 4-10 5-15 4l-14-4c-9-2-17 0-24 5l-8 7-2 1v1h1l3-2 9-3 14-2c8 1 15 3 21 8l4 3c2 2 5 3 8 3l8-1h5l-1 1c-2 4-6 6-10 7h-16c-5-1-10 1-14 3-8 5-14 11-19 19l-1 3v1h1l4-5a37 37 0 0 1 39-10l7 2h12l9-3h1l1 2c-1 3-3 5-6 7l-10 5-9 2c-8 2-14 7-18 13a48 48 0 0 0-7 19l1 1v-1l1-2c1-5 4-9 7-13 5-5 10-8 17-9l8-1h14c6 0 11-1 15-5l3-2h1v1c1 5-1 9-5 12l-8 6-8 3c-5 3-9 7-11 12l-4 13v8l1 1 1-2c1-6 5-12 9-18 5-6 11-11 19-12l7-2a31.8 31.8 0 0 0 18-11h2l1 5-5 9-5 5-6 5c-3 4-5 8-6 13a50.4 50.4 0 0 0 1 25h1l1-7c1-10 4-19 12-26 4-4 9-8 14-10 6-3 10-8 13-14l2-3c2 1 1 2 2 4v2c0 4-1 7-3 10l-4 7c-3 4-4 7-5 12-1 6-1 12 1 18l5 12h1v-1l-2-9c-2-8-1-16 4-23l9-11 6-5c5-4 7-10 7-16v-2l1-2 2 1c2 1 3 4 3 6l-1 11-2 9c-2 5-2 10-1 15 2 9 6 15 12 21l1 1v-1l-1-2c-3-4-5-8-6-13s-1-11 2-16l5-10 4-6c3-5 4-10 3-16l-1-7 1-1h2l4 5c2 3 3 6 3 10v11c0 4 1 9 3 13a47.2 47.2 0 0 0 15 17h1v-1l-2-2c-4-4-7-10-8-15v-12l2-12a41 41 0 0 0-2-27l2-1 5 4 5 11 3 9c5.4 13.3 17 23 31 26l1-1-3-2-7-4c-8-6-12-13-13-22v-15c-1-7-3-14-8-20l-2-1v-2h1l9 3c3 2 5 4 7 8l3 5c4 8 10 13 17 16l12 3 8 1 2-1h-2l-3-1c-10-3-18-8-23-17l-3-10-2-6a36.7 36.7 0 0 0-15-20c-1 0-2 0-1-1l2-1c4-1 8 0 12 3l8 8 6 6 8 4c7 2 13 3 20 2 4 0 7-1 11-3l-1-1h-12c-8 0-14-3-19-9l-6-7-4-6c-4-7-10-13-18-16l-3-1-1-2 1-1 7-1 11 4 8 5c5 3 11 4 16 4 8.6-.4 17-3.2 24-8l1-1h-1l-3 1c-9 3-18 3-27-1l-10-8-7-7c-4-4-10-7-16-8h-6v-2c1-2 4-4 7-4h10l9 3 17 1c7-1 12-5 17-10l3-2c-2-1-3 0-4 1-8 4-16 4-25 3l-11-4-11-5c-5-2-10-4-15-3h-3v-2c2-3 4-5 7-6h13Z"/>
    <path fill="#9BADFA" d="M446 371.3c-5-1-9-1-13 1-3 0-5 2-7 5v2h3c5-1 10 1 15 3l11 5 11 4c9 2 17 1 25-3 1-1 2-2 4-1l-3 3c-5 4-10 8-17 9l-16-1-10-3h-10c-3 0-5 2-7 4v2h6c6 1 12 4 16 8l7 7 10 8c9 4 18 4 27 1l3-1 1 1h-1l-1 2c-7 4-14 6-23 6-5 0-11-1-16-4l-8-5-11-4-7 1-1 1 1 2 3 1c8 3 14 9 19 16l3 6 6 8c5 5 12 8 19 8h12l1 1c-4 2-7 3-11 3-7 1-13 0-20-2l-8-4-6-6-8-8c-4-3-8-4-12-3l-2 1c-1 1 0 1 1 1a36.7 36.7 0 0 1 15 20l2 6 4 10c4 9 12 14 22 17l3 1h2l-2 1-8-1-12-3c-7-3-13-8-17-15l-3-6-7-8-9-3-1 1v1l2 1c5 6 7 13 8 20v15c1 9 5 16 13 22l7 4 3 2-1 1h-1c-14-4-24-12-30-26l-3-9-5-11-5-4-2 1 1 3c3 8 3 16 1 24l-2 12v12c1 6 4 11 8 15l2 2v1h-1l-1-1c-6-4-10-9-14-16-2-4-3-9-3-13v-11c0-4-1-7-3-10l-4-5h-2l-1 1 1 7c1 6 0 11-3 16l-4 6-5 10c-3 5-3 11-2 16s3 9 6 13l1 2v1h-1c-6-6-10-13-12-22-1-5-1-10 1-15l3-20c0-2-1-5-3-6l-2-1-1 2v2c0 6-2 12-7 16l-6 5c-3 4-7 7-9 12-5 7-6 14-4 22l2 9v1h-1l-5-12a33 33 0 0 1 4-30l4-7c2-3 3-6 3-10v-2c0-2 0-3-2-4l-2 3c-3 6-7 11-13 14-5 2-10 6-14 10-8 7-11 16-12 26v7h-1l-1-1c-2-8-3-16-1-24 1-5 3-9 6-13l6-5 5-5 5-9-1-5h-2l-1 1c-4 5-10 9-17 10l-7 2c-8 2-14 6-19 12l-9 18-1 2h-1l1-9c0-4 1-9 3-13 2-5 6-9 11-12l8-3 8-6c4-3 6-7 5-12v-1h-1l-3 2c-4 4-9 5-14 5h-14l-9 1c-7 1-12 5-17 9l-7 13-1 2v1l-1-1 1-4 6-15c4-6 10-11 18-13l9-2 10-5c3-2 5-4 6-7l-1-2h-1l-8 3h-13l-7-2-13-2c-10 1-19 4-26 12l-4 5h-1v-1l2-3c4-8 10-14 18-19 4-2 9-4 14-3h16c5-1 8-3 11-6v-2h-4l-9 1c-3 0-6-1-8-3l-4-3c-6-5-13-7-21-8l-14 2-9 3-3 2h-1l1-1 1-1 8-7c7-5 15-7 24-5l14 4c5 1 10 0 15-4l1-1-1-1h-1l-2-1c-7 0-13-3-18-8l-14-11a33 33 0 0 0-30-4l-3 1v-1l1-1c5-3 10-5 16-6 8-2 16-1 23 4l8 4 9 3c3 1 6 1 8-1v-1l-2-2c-7-3-12-8-16-14l-6-9-7-8c-5-4-11-7-17-7h-10v-1l7-2c7-2 15-1 22 1 5 2 9 4 12 7l6 7 6 5c3 2 5 3 8 2l2-1 1-1-2-2-6-5c-3-3-5-7-6-12a233 233 0 0 0-5-14c-3-6-7-11-13-14l-13-6-2-1h-2l2-1h6c6 0 11 2 16 4l9 8 7 9 5 8c3 3 5 5 9 6l3 1 1-2-2-3c-4-6-6-12-6-20v-12c-1-11-5-19-14-26l-2-1v-1h1l3 2 10 7c4 3 7 8 9 13l3 10 3 8c2 3 4 5 8 7h1c1 0 2 0 1-1l-2-5-2-13 1-7 2-10c2-12-1-23-9-32l-3-3v-1l1 1c5 2 10 6 14 10 4 5 6 10 7 16l1 12-1 7c0 6 2 11 7 14l1 1c2 0 2-1 2-2v-8c-1-6 1-12 4-18l5-10c2-4 3-9 3-15 0-5-1-11-4-16l-3-5-2-2v-1h1l2 2c5 5 10 12 13 19 2 5 2 10 1 16l-3 8-1 8c-1 4 0 7 1 10l2 4h2v-4c1-6 3-11 7-16l5-5 6-5c7-8 9-17 8-27 0-5-2-9-3-14l-1-2v-1l2 1 7 13c3 8 2 17-1 25l-4 7-5 12-1 6v5l1 2 2-2c3-8 8-13 15-17l8-5c8-4 12-10 15-17a35.5 35.5 0 0 0 3-17v-1l1 1v17l-5 14-6 8-5 5c-3 3-5 6-6 10v7l1 2 1-1c2-4 5-6 8-9 4-3 9-6 14-6l8-2c8-2 14-7 19-13l5-12 1-2h1v2c0 5-1 11-4 16l-8 11-6 5-9 5-5 3c-3 3-5 7-5 11l1 1h1l1-2c5-4 11-7 18-6h12l15-3c7-3 12-7 16-13l2-3v1l-4 8-10 11c-3 3-6 5-10 6l-11 3-8 3c-2 2-4 3-5 6l-1 1v2h2l2-1c4-2 7-3 11-3l8 1 12 3c13 4 24 0 34-9l2-2h1v1l-3 5a39.3 39.3 0 0 1-17 12c-6 3-11 3-16 3Zm-93-22c-9 0-18 2-26 4-6 2-10 5-14 9l-3 3-12 12c-5 4-9 9-12 14-3 4-4 8-5 12-3 13-2 25 2 37l4 10c4 11 11 21 20 28 5 4 10 6 15 7l18 3 18 1c7 1 13 0 19-2a106 106 0 0 0 26-18c4-4.2 6.8-9.4 8-15 0-2-1-3-2-2l-6 2-8 5-12 4c-7 2-14 2-21-1l-14-8c-6-6-12-12-17-20l-4-12-1-20c1-7 2-13 5-19 3-7 8-12 15-15l9-4 13-4 5-1c3-1 3-2 1-4l-4-2c-5-3-11-4-17-4Z"/>
    <path fill="#FFF" d="M353 349.3a32 32 0 0 1 21 6c2 2 2 3-1 4l-5 1-13 4-9 4c-7 3-12 8-15 15-3 6-4 12-5 19l1 20 4 12c5 8 11 14 17 20l14 8c7 3 14 3 21 1l12-4 8-5 6-2c1-1 2 0 2 2l-1 3c-1 5-3 9-7 12l-5 5-21 13c-6 2-12 3-19 2l-18-1-18-3c-5-1-10-3-15-7-9-7-16-17-20-28l-4-10c-4-12-5-24-2-37 1-4 2-8 5-12 3-5 7-10 12-14l12-12 3-3c4-4 8-7 14-9 8-2 17-4 26-4Zm5 3c-12 1-22 3-31 8l-11 6-9 6a58.8 58.8 0 0 0-19 30c-2 5-2 10-2 15l1 11c2 10 6 19 11 28 5.7 10 14 18.3 24 24a64 64 0 0 0 34 5l17-4a65.1 65.1 0 0 0 29-15c3-2 4-5 6-9v-1h-2l-1 1c-4 4-9 6-14 9-6 2-11 2-17 2-8-2-16-4-23-8l-10-5a55.8 55.8 0 0 1-21-44c-1-7 1-14 4-21 4-7.5 8.6-14.5 14-21 3-4 8-7 13-9a55.6 55.6 0 0 1 19-3l1-1h-1l-1-1-11-3Z"/>
    <path fill="#9BADFA" d="M358 352.3c4.3.3 8.4 1.7 12 4h1l-1 1h-1l-18 3c-5 2-10 5-13 9-5.3 6.5-10 13.6-14 21-3 7-5 14-4 21 0 18 7 33 21 44l10 5c7 4 15 6 23 8 6 0 11 0 17-2 5-2 10-5 14-9l1-1h2v1c-2 4-3 7-6 9a61.3 61.3 0 0 1-29 15l-17 4-11 1c-9-.8-18-3.5-26-8-9-5-16-13-21-22a97.5 97.5 0 0 1-12-39c0-5 0-10 2-15l2-9a60.6 60.6 0 0 1 26-27l11-6c9-5 19-7 31-8Z"/>
    <path fill="#FFF" d="M345 601.5c0 .4-.4 6.8-.3 13.3-6.8.5-5.7-13.3-5.3-15 .2-1.4-4.4 1.7-6.6 3.8.7 1.3 1.7 1 3 .5-.5 6.2 3.8 11.8 9 11.7.1 6.4.8 12.5 2.6 13 .2.1.4-6.5.6-13.7 12.2-3.8 7.6-18.3 7.6-18.3-.2-.8-2 .3-6 4 1.6 1.6 2.3.6 3.6.2 1 2 1.4 10.5-5 13.1l.2-18c0-.2-.2-.3-.4-.3-1.8.2-5 3.4-7.5 6.1 1.4 2.2 3.1.2 4.4-.4m6 19.1 2.8 2.8 2.8-2.8-2.8-2.8-2.8 2.8Z"/>
  </g>
</symbol></svg>
