<svg xmlns='http://www.w3.org/2000/svg' viewBox='0 0 696 830' fill='none'><symbol id='CSKC_Fill'>
  <g fill="none">
    <path fill="#FDBE00" d="M590.5 423a443 443 0 0 1-7 89c-3 26-10 51-22 74-15 28-32 53-55 75l-18 18c-22 20-48 33-77 40l-45 7c-11 2-21 2-32 1l-36-5c-10-2-20-4-30-8-24-7-45-19-62-36a298.2 298.2 0 0 1-82-116c-5-13-9-27-11-41-3.8-33.6-6.5-67.3-8-101l3-45c3-31 9-61 20-89l17-42c5-12 10-24 18-34 9-14 19-28 30-41 15-18 32-31 52-42a248.5 248.5 0 0 1 81-25l19 1h5l22-1a346 346 0 0 1 73 23 182 182 0 0 1 57 45 496.8 496.8 0 0 1 48 73l20 53c7 19 12 39 15 60 3 18 4 37 5 56v11"/>
    <path fill="#FFF" d="M125.5 439c-.7 16.1.3 32.2 3 48l8 34c10 43 31 80 61 111l24 24 9 8c18 14 38 25 60 31l30 7 8 1 14 1h18l11-1c17.4-3.9 34.8-8.2 52-13 19-8 36-19 52-34l19-19a235.7 235.7 0 0 0 63-105c6.5-25 11-50.4 14-76l-1-39-2-25c-3-30.4-9.7-60.3-20-89l-18-47c-4-12-11-24-18-35-8-13-18-26-27-38-15-19-34-34-58-41-13-5-27-9-40-12a172 172 0 0 0-70-1c-18 3-36 8-54 15-10 4-20 9-28 16-9 6-17 14-24 23-10 12-19 25-28 39-7 11-13 22-18 35l-17 43a348.2 348.2 0 0 0-20 94l-3 45m-6-20c1-23 3-49 7-74 4-17 8-33 15-50l16-41c4-12 10-23 18-34 8-13 17-25 27-36 14-18 32-32 53-42 11-6 23-10 35-14l23-7 13-1 20 1h4l18-1c8 0 15 1 22 3 17 5 34 11 50 19 22 10 40 24 55 43l25 33c8 12 15 25 20 38l15 38c8 21 14 43 17 65a507 507 0 0 1 1 120l-3 28c-2 21-8 42-17 61-14 29-31 55-54 77l-18 18c-20 19-45 32-72 38l-30 5c-14 1.7-28 2.7-42 3l-54-9c-25-6-47-18-66-35a280.1 280.1 0 0 1-80-113c-6-13-9-27-11-41-3.1-30.6-5.5-61.3-7-92"/>
    <path fill="#FFF" d="M334.5 564c1.3 0 2-.7 2-2l-3 2m53-46-3 4c3 0 3-1 3-4m31-26-2 2-2 2c2-1 4-1 4-4m-86 145-6 1 3 1h2l1-2m105-172 4-3h-4v3m-1-3c-2 .7-3 2.3-3 5 3 0 2-3 3-5m-130 126-4 4-1 1h4l1-5m126-113 2-2v-5c-2 2-2 4-2 7m23 85v-7l-3 5 3 2m-33-18-1 4h4l1-5-4 1m-104 36 11-2 2-2c-5 0-9 1-13 4m105-40 4-2 1-5-5 3v4Zm13-67h1l5-5v-2l-6 4v3Zm-16 65-4 3-9 4c-1 1-2 1-2 3l3-2 10-4 2-1v-3m-47 101 4-1 1-6-5 2v5m54-154-6 6-1 4 7-4v-6Zm-101 138v3l10-3c2-1 2-2 2-4l-12 4m-33-21h10l1-4h-6l-5 4m136-101-2 8 6-4v-6l-4 2m-14 60c2 0 6-3 6-4l2-7h-2l-6 11m-131 48c-4 2-5 4-7 7l6 3 1-10m29 16-1 2v2l11-2 1-3-11 1m132-133-5 2-2 2-2 6 7-4 2-2v-4m-109 77c-6 0-11 2-16 7l12-3 2-1 2-3m22 45c-3 1-5 3-8 3l-8 2-1 3 7-2 7-1c2-1 2-3 3-5m90-116-2 2-1 13c3-1 4-2 5-4l-2-11m-61 29v7l5-1 3-7-8 1m43 81-10-1-3 5c5 1 9 0 13-4m-4-105-6 4v1l-1 3-1 4 6-3 1-2 1-7m-55 63h1l6-1c4-1 4-1 6-4v-1l-12 3-1 3m19-11 11-5 1-3-10 2-1 1-1 5m37-54-1-6-7 3v3l1 3 7-3m-20 2-12 8-1 3 11-2 2-9m-23 31 1-3v-4c-2 0-4 0-5 2l-5 5-1 2 10-2m18-15 11-3 2-1 2-6-11 5-4 5m34-33-7 7v6l6-3v-1c1-3 2-5 1-9m-103 91h7c6 0 6 0 10-5l2-1v-2h-1c-5 3-10 6-16 6l-2 2m95-30 11-4 2-7-12 7-1 4m-20 58-1 7h7l2-5c-3-2-4-2-8-2m21-115 8-6-2-7-5 3v1l-1 9m0 40 4-9v-1l-10 7-1 1 1 5 6-3m-33 99-11 1c-3 0-4 1-5 4v2c3 0 13-5 16-7m43-137c7-3 9-6 7-11-3 0-5 2-7 3v8m-38 132 8-2c3-2 4-3 3-6h-7l-4 8m42-96c-4 0-7 1-11 3l-1 1-1 5 12-5 1-4m-150 97 1 1 4 2c2.7 2 5.3 2.7 8 2v-1l2-1 1-3h-16m145-79-12 5-2 5c4-2 8-1 12-2l2-8m-104 96 6 2c3-3 5-5 5-9l-11 3v4m119-117-1-5c0-2 0-4-2-6l-4 2v9h7m-102 49h1l4-2 10-4c2-1 3-2 3-4v-1l-10 3-2 1-6 7m31-26 8-2 1-11-5 1-4 12m-59 82-12 1-3 3 9 3h2l4-7m85-90h1c4-1 7-4 11-6v-5l-5 2-5 2-2 7m10-34-1-7c-3 1-5 1-7 3l-2 8v1l10-5m25-37-3 3-4 4 2 7 8-4-3-10m-24 76c-5 0-10 2-14 4l-2 2v5l5-3 9-4c2-1 2-2 2-4m-100 48-12 4-1 5h10l3-9m39-3h1l17-7v-2l-11 1h-2l-2 2-3 6m47 15c-3 1-6 2-9 1l-2 1c-2 1-3 3-3 5h6l7-1 1-4v-2m-9-32-16 7-1 2c5 1 10 0 15-2l2-7m-10-10 15-6v-5h-2l-8 4-4 4-1 3m58-62c-4 1-6 3-8 5l2 10 5-2v-6l1-7m-56 23 6-1 5-2c0-2 2-3 3-5v-2l-10 3-3 2-1 5m-56 111 3-10-10 4-2 8 9-2m42-76 11-2 2-2 2-6h-4c-3 0-5 1-7 4l-3 4-1 2m58-31 6-2 6-1-1-9-5 2-2 1-4 9m-8-5h1l9-5 1-2-1-8-7 5-3 10m-12 6 7-3 2-2 3-6v-3l-7 3-2 1c-1 3-3 6-3 10m-52 34 10-3 2-1 5-8-12 4-1 1-3 6-1 1m-24 10 6-2 14-6 4-7-5 3-5 3-6 2-6 2-2 5m56 33h-3l-8 1c-3 1-4 2-4 5v4l10-3 5-7m-15 13-1 4-1 4-1 4 4-1 3-2 5-12c-4 0-6 2-9 3m31-49-10 2-2 8c9 1 9 0 12-7l1-2-1-1m12-9-6 4c-2 1-3 3-3 5l-2 7v2l3-1 5-4c2-4 3-8 3-13m-77 19h-11l-2 1c-2 2-5 4-6 7l15-2 4-6m9 44h-7l-7 1-3 7v1l12-2 5-7m91-44-1 5c0 6-2 11-4 15l-1 3 6-6 7-15-7-2m8-1c3-4 4-8 4-12l-4-3-7 12 7 3m-143 15h2l9-4 2-2 4-5 2-2c-6 0-11 2-16 4l-1 2-2 7m29 3 15-5h1c1-2 3-5 3-8l-8 3-9 2-2 6v2m68-13-4 10-4 10 8-1 2-10 4-10-6 1m-40-12-5 1-11 5-5 3-3 6 17-5 3-6 4-4m42-38-7 1-7 1-1 7v3l6-1c7-3 7-3 9-10v-1m-23 33c-2 3-2 6-3 10l8-4 8-3 3-9-8 3-8 3m28-47h-3l-9 4c-4 1-5 4-6 9l14-3 4-10m-49 60h11c4-1 4-2 6-6v-6l-10 2-3 5-4 5m92-36-2-15-7 3-1 1-3 9 13 2m-55 25 6-2c3-1 5-3 6-6l3-4 2-5v-2l-1 1-14 9-2 9m-60-3 5-2 17-11 3-7-2 1-11 7-5 2-2 2c-2 2-4 4-5 8m110-8 4-12c-4-1-9-3-13-1-2 4-2 6-2 10 4-1 8 0 11 3m-74 50c-5 0-10 1-14 3l-1 2-2 3-1 3c5 2 12 0 16-2l2-9m73-47c-3-4-6-4-11-2l-2 7-3 6 5 2 4 1 7-14m-51 64 3-5 1-5h-13l-3 6-2 7 13-3h1m-79-23c5 0 10-2 14-4l1-1 3-7v-1c-5-1-10 0-14 2l-2 1-2 10m65-66c-5 0-9 2-13 3-1 1-3 2-3 4l-3 9 12-3 2-2 5-11m51 23-5-2c-2-1-4 0-6 1s-2 3-2 4v2l-2 8v2l10-2c3-4 5-8 5-13m-40 24-3 6-3 6-5 8-1 2c4-1 7-3 11-1 3-5 7-14 8-20l-5-1h-2m-52 61c10 2 18-2 26-4 1-2 2-4 1-5h-22l-2 5-3 4m-58-23 4 2h3l3-4c3-4 5-8 6-13v-1c-3 0-9 0-14 2l-1 5-1 9m65 10c5 2 16 2 21 0l3-8v-2l-7 1-7 1h-4l-2 1-4 7m-17-29-15 3-1 9-3 8c4 1 7 0 11-1 1-5 3-10 6-14l2-5m7 14 3-10 5-9c-3 0-8 1-13 4l-6 12-2 7 13-4m-35-11-4 9-7 9 17-1c2-5 4-11 4-16l-10-1m121-28h-2l-7 3-3 3-4 10-2 7v2l9 1 1-1 1-7c2-6 3-12 7-18m-82 39c5 0 9-2 13-4 1-1 3-2 3-4 2-6 6-11 10-16l3-3 1-3-4 2-15 7c-2 0-2 1-3 2-4 6-7 12-8 19m88-11c4-9 8-17 9-26l-10-3-6 12-3 16 10 1m-70 4 15-4 3-1c3-2 5-5 7-9l4-8 2-4-8 1-8 1-7 11c-3 3-6 7-8 13m91-120 3-2 8-8 29-31 1-2c-16 7-32 12-49 16l5 13 3 14m43-50-6 1c-4 1-8 1-11 3-6 3-13 5-20 5l-15 1-24 4-23 5-12 2-40 2-32-1-15-2-24-5-21-3-18-2c-6 0-12-1-17-3-6-3-11-4-17-4h-2l2 1 10 4c11 4 22 5 34 6l21 3 33 6c9 2 19 4 29 3 18.6-1.5 37.3-1.8 56-1l24-5c20.7-4.8 41.8-8.2 63-10l21-7 4-3m-42 55v3l5 19c2 10 3 20 1 30-2 5-3 10-2 15v5l-3 18-1 4 5-5c9-9 17-19 24-30l8-15 14-35 3-11v-2h-1c-9 2-17 2-25 1l-12-2h-5c-4 1-8 2-11 5m-161-285-4 3-24 16-8 7c-9 9-18 20-24 32l-2 3 1 1 12 9c4 3 9 4 13 3l21-2c3 0 6-2 9-4l8-10 9-15c3-5 3-10 2-15l-1-5c-3-8-7-15-12-23m-92 239 2 2 28 30 9 8c5 5 11 7 17 9l17 1 12-2a298 298 0 0 1 64 3c18.2-3.2 36.6-4.8 55-5l4-1 13-12c4-4 6-10 8-16l-2 1-33 2-19 1h-84l-15-1a228.2 228.2 0 0 1-74-19l-2-1m25 34-1-1-20-22-12-15-2-4c-1-2 0-3 2-3h3c7 2 14 2 22 2s15 2 22 5c2 2 5 2 8 3l10 2 25 3h13c6-1 12 0 17 3l10 2 26 2 23-2c3-1 7-1 10-3 5-2 11-3 18-3l10 1 35-6c4 0 7-1 10-3l4-2c5-2 9-3 15-3l17-1 6-1 5-1c2 0 3 1 2 3l-2 4-13 16-22 25-1 1c15 0 30 1 44-2l1-2 1-12c2-16 3-32 2-48v-2h-11l-23-1h-61l-34 1h-35c-19.3-.7-38.7-.7-58 0l-28 1h-38l-42-1h-2l-1 4v17c0 14 1 28 4 42l1 3c13 1 26-1 40-2m-38 12 4 15a361.7 361.7 0 0 0 32 61c13 15 26 28 42 39l3 2 5-4 6-2 3-2c7-4 13-9 17-15l8-10c4-5 10-9 17-10 4-1 8-3 11-6l7-8c4-5 9-9 15-12s11-7 16-12l17-19 1-2h-6c-9 1-18 0-26-1-5-1-10-2-15-1l-20 1c-15.7 1.1-31.5.4-47-2l-21-5c-7-2-13-5-18-9l-7-4c-4-2-9-2-14-1l-11 3c-5 1-11 3-17 3l-2 1m325-82v-4l-2-18c-3-18-8-35-14-53-5-16-13-31-21-46l-12-22a149.1 149.1 0 0 0-36-43l-17-11-12-7-5-1-8 2-22 3-24 6-10 2h-4l-1-2 1-2 5-2 12-1 17-3 27-6 1-1-4-2-29-10c-5-2-11-2-16 0l-14 5-24 9-3 3 1 1c6 7 9 15 9 25l-1 15c0 9-4 16-10 22l-10 8c-5 4-10 6-16 8-7 2-14 2-20-2l-13-5-8-3-2-1-1 2-11 18c-7 15-14 30-19 45l-11 41c-3 10-4 20-4 30v2l1 1 15-1 32-1h8l31-1 24 2 66-2h19l27 2 50-1 45-1h13m-340 10c-.3-20.3 2.3-40.5 8-60l9-33c11-29 26-55 46-78l16-19c8-9.9 17.5-18.7 28-26 6-3 11-7 17-9a171 171 0 0 1 47-14c5-1 10 0 15 1 16 3 30 8 44 15l16 11c8.9 7.7 17.6 15.7 26 24l12 14a246.9 246.9 0 0 1 56 107l7 32 2 19-1 44c-3 26-8 52-20 77l-12 26a519.6 519.6 0 0 1-31 44 245 245 0 0 1-70 45c-10 4-21 6-32 8-7 1-15 0-23-1-16-3-32-9-46-17l-23-13a132.8 132.8 0 0 1-39-36c-8-11-15-22-21-34l-13-29c-7-16-11-32-14-49-2-16-4-32-4-49"/>
    <path fill="#FDBE00" d="M446.5 379c4 1 7 2 9 4 1 2 2 1 4 0 2-4 5-6 9-7l2-1c-6 0-10 2-13 6-4-2-7-3-11-2m24-63v-1h-3c-3-1-7 0-10 2l-3 2c-2 2-3 2-5 1l-3-2-9-1-3 2h5c3 0 6 1 8 4l2 1c1 2 3 2 5 0l1-1c2-4 5-6 9-7h6m-47 54c-6-5-12-8-19-7l3 1c4 1 8 3 10 7l2 2c3 3 5 3 7 0l3-5c3-4 6-7 11-8l6-2 2-1c-6 0-11 2-16 5l-6 5-3 3m-96-21h2l9-1c4 0 7 2 9 5l2 2c2 3 5 3 7 0l2-3c3-5 7-8 14-9l8-1-2-1c-6-1-12 0-17 4l-5 4-3 2c-4-2-8-5-12-5-7 0-10 1-14 3m-113 13 1-1v-1c3-4 4-8 5-13l8-27 5-13c1.8-3.9 3.5-7.9 5-12 1-2 0-4-1-4-1-1-3 0-4 2l-1 6-5 19-11 30-2 4-1 8 1 2m84-7v-8l-5-18-6-21-1-11-3-4c0-1-2-2-3-1l-1 2 1 6 5 10c2 5 4 11 4 16l2 17 5 10 2 2m90-66-2-3-11-5-11-4c-9-4-18-8-26-14l-9-5-5-3h-4c-2 0-2 2-1 3l3 3 14 6c13 3.8 25.2 9.9 36 18 4 3 8 4 12 5l4-1m124 121h-13l-45 1-50 1-27-1-19-1-66 2-24-2-31 1h-8l-32 1c-4 0-16 2-17 0s2-22 5-32l11-40c5-16 12-31 19-46l10-18c1-3 2-2 4-1l8 3 13 5c6 4 13 4 20 2 6-2 11-4 16-8l10-8c6-6 10-13 10-22l1-15c0-10-10-26-10-26l3-2 24-10 14-5c6-2 11-2 16 0l29 10 4 2-1 1-27 6-17 3-12 1-5 2-1 2 1 2h4l10-2 24-6 22-3 8-2 5 1 12 7 17 11 14 13c9 9 16 19 22 30l12 22c8 15 16 30 21 46 6 18 11 35 14 53l2 18v4m-325 82 19-4 11-3c5-1 10-1 14 1l7 4c5 4 11 7 18 9l21 5 11 2h36l20-1c5-1 10 0 15 1 8 1 17 2 26 1h6a111.5 111.5 0 0 1-34 33c-6 3-11 7-15 12l-7 8c-3 3-7 5-11 6-7 1-13 5-17 10l-8 10a57.5 57.5 0 0 1-20 17l-6 2-5 4-3-2c-19.7-14.4-37-32-51-52-9-16-16-32-23-48-1-5-5-14-4-15m38-12c-1 2-37 4-40 2s-5-31-5-45v-17l1-4h2l42 1h38l28-1 14-1 44 1h35l34-1h61l23 1h11v3c1 16 0 31-2 47l-1 15c-1 2-44 2-45 1s16-18 23-26a171 171 0 0 0 15-20c1-2 0-3-2-3l-5 1-6 1-17 1-15 3-4 2c-3 2-6 3-10 3l-35 6h-10c-7-1-13 0-18 2-3 2-7 3-10 3l-22 2h-3l-34-4c-5-3-11-4-17-3h-13l-25-3-10-2-8-2c-7-4-14-6-22-6-8.4.3-16.8-.4-25-2-2 0-3 1-2 3l2 4 12 15c7 7 22 21 21 23"/>
    <path fill="#FDBE00" d="m200.5 446 2 1a239.4 239.4 0 0 0 89 20h84l19-1 33-2 2-1c-2 6-4 12-8 16l-13 12-4 1-18 1c-13.7.5-27.4 1.8-41 4-20-3-40-4-60-2l-12 1-17-1c-6-2-12-4-17-9l-9-8-28-30-2-2m92-239c5.7 8.6 10 18.1 13 28 1 5 1 10-2 15l-9 15-8 10c-3 2-6 4-9 4l-21 2c-4 1-9 0-13-3l-13-9c-1-1 1-3 2-4 8.2-14.8 19-28 32-39l24-16 4-3m161 285s6-5 10-5h6l12 2c8 1 16 1 25-1h1v2l-3 12-14 34-8 15c-6 11-15 21-24 30l-5 5 1-4 3-18v-5l2-15c2-10 2-20-1-30l-5-19v-3"/>
    <path fill="#FDBE00" d="m495.5 438-4 3-21 6-25 4a449.7 449.7 0 0 0-62 11l-14 1h-42c-10 1-19-1-29-3l-32-6-22-3c-12-1-23-2-34-6l-10-4-2-1h2c6 0 11 1 17 4 5 2 11 3 17 3l18 2 21 3 24 5 15 2 32 1c13-1 27 0 40-2l12-2 23-5 24-4 15-1c7 0 14-2 20-5l11-3c2 0 6-2 6 0m-43 49-3-14-5-13c17-4 48-18 49-16 2 1-20 23-30 33l-8 8-3 2m-91 120c2-6 5-10 8-13l7-11h8l8-2-2 4-4 8c-2 4-4 7-7 9l-3 1-15 4m70-4-10-1 3-16 6-12c4 0 7 1 10 3-1 9-4 18-9 26m-89 11c1-7 7-21 12-22l16-6 3-2-1 3-3 3-10 16c0 2-1 3-3 4-4 2-9 4-14 4m83-39c-4 6-5 12-6 18l-2 7-1 1-9-1v-2l2-7 4-10 3-3 8-3h1m-121 28 10 1c0 6-2 11-4 16l-17 1 7-9 4-9m36 11-14 4 2-6 6-14 13-3-4 9-3 10m-8-14-2 5c-3 4-5 9-6 14-3 1-7 2-10 1l2-8 1-9 15-3"/>
    <path fill="#FEBE26" d="m349.5 629 4-7 2-1h4l7-1 7-1v2l-3 8c-5 2-16 2-21 0"/>
    <path fill="#FDBE00" d="m284.5 619 1-8 1-6c5-2 11-2 14-1-1 5-3 9-6 13l-3 4h-3l-4-2m58 23 3-4 2-5h22v5c-9 2-17 6-27 4m53-61h1l5 1c-1 6-4 15-8 20-4-2-7 0-11 1l1-2c3-2 4-5 5-8l3-6 4-6m39-24c0 5-2 9-4 13l-11 2v-2l2-8v-2c1-1 0-3 2-4s4-2 6-1l5 2m-51-23c-1 5-3 8-5 11l-1 2-12 3 2-9c0-2 2-3 3-4l13-3m-65 66 2-9 2-3c5-2 15-2 15-1l-5 9c-4 2-9 4-14 4m79 23h-1l-13 3 2-7 3-6h13l-1 5-3 5m51-63-7 13-4-1-5-1 3-7 2-7c5-2 8-2 11 3m-73 46-2 9c-4 2-11 4-16 3l2-4 1-3 1-2c4-2 9-3 14-3"/>
    <path fill="#FDBE00" d="M449.5 557c-3-3-7-5-11-4 0-4 0-6 2-10 5-1 9 1 13 2 0 4-2 8-4 12m-110 7c1-4 3-6 5-8l2-2 5-2 11-7 2-1-3 7-1 2-16 9-5 2m60 3 2-9 1-1 13-8 1-1v2l-2 5-3 4c-1 3-3 5-6 6l-6 2m55-25-13-2 3-9 1-1 8-3 1 15m-91 36c0-2 2-3 3-5l3-5 11-2-1 2v4c-1 5-2 5-6 6h-10m48-60-4 10-13 3c0-5 2-8 5-9l9-4h3m-28 48 8-3 8-4-3 9-8 3-8 4 3-9m23-34v1c-2 7-2 8-9 10l-6 1v-3l1-7 7-1 7-1m-42 38-4 4-3 6-17 5 4-6 5-3 11-5 4-1m40 12 6-1-4 10-2 10-8 1 4-10 4-10m-68 13c-1-1 2-6 3-8l8-2c3 0 6-2 8-3 0 3-1 6-3 8l-1 1c-5 1-14 5-15 4m-29-3 1-7 3-3 16-4-3 3-3 5-2 2-10 4h-2m143-15-7-3 7-12 4 3c0 4-1 8-4 12m-8 1 7 2-7 15-6 6 1-3c2-4 4-9 4-14l1-6"/>
    <path fill="#FEBE26" d="m351.5 622-5 7-12 2v-1l3-7 7-1h7"/>
    <path fill="#FDBE00" d="m342.5 578-4 6-15 2c1-3 4-5 6-7l2-1h11m77-19c0 5-1 9-3 13l-5 4-3 1v-2l2-7c1-2 1-4 3-5l6-4m-11 8c1 1-1 4-1 4-3 7-3 8-12 7l2-8 11-3m-32 50c3-1 5-3 9-3l-5 12-2 2-5 1 1-4 1-4 1-4m15-13-5 7-10 3v-4c1-3 1-4 5-4l7-2h3m-56-33 3-5 5-2 6-2 5-3 5-3-4 7h-1l-13 6-6 2m24-10 1-1 3-6 1-1 12-4-5 8-2 1-10 3m52-34c0-4 2-7 3-10l2-1 7-3v3l-3 6-1 2-8 3m15-15 7-6 1 8-1 2c-3 2-9 6-10 5l3-9m6 14 3-9 2-1 5-2 1 9-6 1-5 2m-58 31 1-2 2-4c2-3 4-4 7-4h4l-2 6-2 2-10 2m-43 76-9 2 2-8 10-4-3 10m56-111 2-5 2-2 11-3-1 2-3 5-5 3h-6m56-23-1 7v6l-5 2-2-10c2-2 4-4 8-5m-58 62 1-3 4-4 8-4h2v6l-15 5m10 10-2 7c-5 2-10 3-15 2l1-2 16-7m9 32v2l-1 5h-13c0-2 2-4 3-5l2-1c3 1 6 0 9-1m-44-21c0-1 1-2 3-2h1l11 1-18 8 3-7m-42 8-3 10-10 1 1-6 12-5m101-47c0 2-1 3-3 4l-9 4-4 3v-5l1-1c4-3 9-4 15-5m24-76 2 10-7 4-3-7 4-4 3-3m-25 37-10 5v-1l2-8c2-2 4-2 7-3l1 7m-8 27 5-2 5-2v5l-12 7 2-8m-87 97-3 7h-2c-4 0-7-2-9-3 0-2 1-3 2-3l12-1m59-82 4-12 5-1-1 11-8 2m-25 19 2-1 10-3 1 1c0 2-1 3-4 4l-10 4-5 3 6-8m96-42h-6l-1-9 5-2 1 6 1 5m-119 117 1-4 11-3c-1 4-3 6-6 9l-6-2m104-96-2 8c-4 1-8 0-11 2-1-2 0-4 1-5 4-1 8-2 12-5m-145 79h16l-1 3-2 1v1c-2.7.7-5.3 0-8-2l-4-2-1-1m150-97-1 4-12 5 1-5 1-1c4-2 7-3 11-3m-42 96 4-8h7c1 3 0 4-2 6l-9 2m38-132v-8c2-1 4-3 7-3 2 5 0 8-7 11m-43 137c-3 2-12 7-16 7v-2c1-3 2-4 5-4l11-1m34-99-7 3-1-5 2-1 9-8v2l-3 9m-1-40 1-9v-1l5-3 2 7-8 6m-21 115c4 0 5 0 8 2l-2 5h-7l1-7m20-58 1-4 12-7-2 7-11 4m-95 30 2-1c6-1 18-8 18-8 1 1-2 4-3 4-4 5-4 5-10 5h-7m104-91-2 9v1l-6 3v-6l8-7m-35 33 4-5 11-5-2 6-2 2-11 2m-18 15-10 2 1-2 5-5c1-2 3-2 5-2v4l-1 3m23-31-2 9-10-1 12-8m20-2-7 3-1-3v-3l7-3 1 6m-37 54 1-5 1-1 10-2-1 3-11 5m-19 11 1-3 13-3-1 1c-2 3-2 3-6 4l-6 1h-1m55-63-1 7-1 2-6 3 1-4 1-3v-1l6-4m4 105c-4 4-8 5-13 4l3-5 10 1m-43-81 8-1-3 7-5 1v-7m61-29 2 11c-1 2-2 3-5 4l1-13 2-2m-90 116c0 2-1 4-3 5l-7 1-7 2 1-3 8-2c3 0 5-2 8-3m-22-45-2 3-2 1-12 3c5-5 10-7 16-7m109-77v4l-2 2-7 4 2-6 2-2 5-2m-132 133 11-1-1 3-11 2v-2l1-2m-29-16-1 10-6-3c2-3 3-5 7-7m131-48 6-11h2l-2 7c0 1-4 4-6 4m14-60 4-2v6l-6 4 2-8m-136 101 5-4h6l-1 4h-10Zm33 21 12-4c0 2 0 3-2 4l-10 3v-3m101-138v6l-7 4 1-4 6-6m-54 154v-5l5-2-1 6-4 1m47-101v3l-2 1-10 4-3 2c0-2 1-2 2-3l9-4 4-3m16-64v-4l6-4v2l-4 5-2 1Zm-13 66v-4l5-3-1 5-4 2m-105 40c4-3 8-4 13-4l-2 2-11 2m104-36 4-1-1 5h-4l1-4m33 18-3-2 3-5v7m-23-85c0-3 0-5 2-7v5l-2 2"/>
    <path fill="#FEBE26" d="m306.5 587-2 7h-4l2-3 4-4"/>
    <path fill="#FDBE00" d="M435.5 462c-1 2 0 5-3 5 0-2.7 1-4.3 3-5m1 3v-3h4l-4 3m-105 172-1 2h-2l-3-1 6-1m86-145c0 3-2 3-4 4l2-2 2-2m-31 26c0 3 0 4-3 4l3-4m-52 46 2-2c0 1.3-1 2-3 2"/>
    <path fill="#FFF" d="M388.5 289c-1 2-3 1-4 1-4-1-8-2-12-5l-6-4c-9-6-19-11-30-14l-14-6-3-3c-1-1-1-3 1-3l4 1 5 2 9 5c8 6 17 10 26 14l11 4 11 5c1 1 3 2 2 3m-90 69c-1 1-6-12-7-15l-2-17c0-5-2-11-4-16l-5-10-1-6 1-2c1-1 3 0 3 1l3 4 1 11 6 21 5 18c1 3 2 10 0 11m-84 4c-3-1 0-8 0-10l2-4 11-30 5-19 1-6c1-2 3-3 4-2 1 0 2 2 1 4l-1 4-4 8-5 13-8 27c-1 5-3 16-6 15m113-13c4-2 7-3 14-3 4 0 8 3 12 5l3-2 5-4c5-4 15-7 19-3l-8 1c-7 1-11 4-14 9l-2 3c-2 3-5 3-7 0l-2-2c-2-3-5-5-9-5l-9 1h-2m96 21 3-3 6-5c5-3 10-5 16-5l-2 1-6 2c-5 1-8 4-11 8l-3 5c-2 3-4 3-7 0l-2-2c-2-4-6-6-10-7l-3-1c7-1 13 2 19 7m47-54h-6c-4 1-7 3-9 7l-1 1c-2 2-4 2-5 0l-2-2c-2-2-5-3-8-3h-5l3-2 9 1 3 2c2 1 3 1 5-1l3-2c3-2 7-3 10-2h3v1m-24 63c4-1 7 0 11 2 3-4 4-7 14-6-3 2-10 4-12 8-2 1-3 2-4 0-2-2-5-3-9-4M239.3 525.6c0 .4-.3 6.8-.2 13.3-6.8.5-5.7-13.3-5.3-15 .2-1.4-4.4 1.7-6.6 3.8.7 1.3 1.7 1 2.9.5-.4 6.2 3.9 11.8 9 11.7.2 6.4.9 12.5 2.7 13 .2.1.4-6.5.6-13.7 12.2-3.8 7.6-18.3 7.6-18.3-.2-.8-2 .3-6 3.9 1.6 1.7 2.4.7 3.6.3 1 1.9 1.4 10.5-5.1 13.1l.3-18c0-.2-.2-.3-.4-.3-1.8.2-5 3.4-7.5 6.1 1.3 2.2 3 .2 4.4-.4m5.9 19.1 2.8 2.8 2.8-2.8-2.8-2.8-2.8 2.8Z"/>
  </g>
</symbol></svg>
