<svg xmlns='http://www.w3.org/2000/svg' viewBox='0 0 696 830' fill='none'><symbol id='DBAC_Fill'>
  <g fill="none">
    <path fill="#A7BFB9" d="M105.1 422.4c.7-32.6 4.4-65.1 11-97l13-40 17-43c4-11 9-20 15-30l33-44c13-16 29-28 46-38l33-15 27-9c12-4 26-5 39-4h17c14-1 28 0 42 5l27 9a190.1 190.1 0 0 1 85 63 474.6 474.6 0 0 1 39 62l20 53c6 14 10 29 13 44l4 28a369 369 0 0 1 4 82l-4 37-4 33c-2 18-7 36-14 52a306 306 0 0 1-82 111 163.8 163.8 0 0 1-81 39c-20.3 3.2-40.6 5.9-61 8l-27-3-27-5c-30.9-5.8-59.6-20-83-41a569.8 569.8 0 0 1-53-60c-9-14-17-28-24-43-8-18-14-36-17-55l-3-25-3-24-2-23v-27"/>
    <path fill="#FFF" d="M125.1 440.4a270.6 270.6 0 0 0 16 102c10 28 25 54 45 78 13 16 28 30 43 43 17 15 36 25 57 31 13 4 28 7 42 9l16 1c10 1 20 0 31-2l14-3 26-7c21-7 39-18 56-32 14-13 27.3-26.7 40-41a260 260 0 0 0 60-167 495 495 0 0 0-22-147l-19-49c-4-12-11-24-18-35a554.6 554.6 0 0 0-41-53 106 106 0 0 0-43-25l-30-10c-10-2-20-5-31-5l-9-1-14-1-10 1-16 2-23 5-32 10c-9 4-18 8-26 14-9 7-17 14-24 23a505.5 505.5 0 0 0-47 74l-18 46a309.6 309.6 0 0 0-19 86l-2 20-2 33m-6-13 2-32c1.7-26.7 6.1-53.2 13-79a426.6 426.6 0 0 1 22-60c5-13 12-25 20-37l26-36a159.1 159.1 0 0 1 66-47c12-5 24-9 37-12 11-3 22-4 33-3h19c13-1 25 0 37 4l38 13c24 10.5 45 26.2 62 46l28 38c7 10 12 21 17 32l16 43c6 16 11 33 14 50l4 24c4 29.2 4.6 58.7 2 88l-2 17-2 19-6 40a294 294 0 0 1-88 132 151.4 151.4 0 0 1-77 36l-32 5-12 1h-18l-15-2-27-4a163.4 163.4 0 0 1-78-37c-21-20.5-40-43-57-67-10-14-18-29-24-46-5-12-8-25-10-38l-4-32-2-26-2-30"/>
    <path fill="#FFF" d="M301.1 381.4v-2l-2-1h-1c-2 1-4 1-5 3l4 2 1 1c2 .7 3-.3 3-3m0 9-1-2-10-5h-2l-2 2v1h2l11 4h2m10-9 1 8 3 2c1 0 2-1 1-3v-2l-2-8v-1h-2l-1 1v3m75-1h-1c-1 0-3 0-4 2l-5 7-6 7v1h2c5-2 8-6 11-10l3-6v-1m-33 1h-1v2l4 3 4 7c1 2 1 2 3 1l1-2 6-8c1-1 0-1-1-2h-7l-9-1m-11 49-1-4-3-4-13-15-9-6h-1l1 1 3 7 5 5 11 15 3 4c1 2 2 1 3-1l1-2m86-49h-1l-1-1-13-3-9-2-3 2-6 7-4 6c-1 1-2 2-1 3s2 0 3-1c5-2 10-5 16-6l9-1 9-3 1-1m-78 18-3-5-4-4c-2-3-5-6-5-9 0-2-1-2-2-2l-11-1c-1-1-2 0-1 1v3c1 8 5 14 11 19l9 9 1 2 1 1 1-1 2-11 1-2m-5-151c7 0 16-2 23-8l16-13c7-5 11-11 12-20 1-2 1-2-1-3l-9-4-30-11c-6-2-12-2-18 0a516.7 516.7 0 0 1-38 15c-3 1-3 1-2 5l6 15c6 7 12 13 19 18 6 4 13 6 22 6m-37 136v-7h-1c-2-1-3 0-3 2l1 17c1 6 3 12 6 17l10 12 10 14c5 6 9 13 10 22l1 12-3 18c-2 8-3 15-2 23l2 14c1 7 2 14 1 22l-1 12 1 19a806 806 0 0 1-4 56c-1 5-1 4 3 5 6 1 13 1 19-1 1 0 2-1 1-2l-3-13c-4-20.1-5.3-40.6-4-61 1-8 1-16-2-24l-1-2c-3-8-3-16-2-24 1.6-13.3 2.6-26.6 3-40l-1-25 1-15c1-7 4-13 9-18 6-6 14-10 22-12l13-4 19-7 10-3c5-1 10-4 14-7l1-1h-1l-2-1c-2-1-4 0-6 1-4 3-8 4-12 4l-7 1a81.7 81.7 0 0 0-22 8c-1 1-2 0-2-1l1-1 5-11 5-6v-1c-4 0-7 1-9 5l-3 6-3 5c-3 6-9 9-16 8l-1-1 1-1 6-9 4-5c1-1 2-1 1-2h-2l-3 2-2 3a250 250 0 0 1-8 10c-2 1-3 1-4-1l-1-1c-1-4-3-6-6-9-1-1-3-2-3-4l-2-1-2-1c-1 0-2 1-1 2l2 4 4 5c3 3 3 7 2 11l-3 12c-1 2-2 2-4 0h-1c-3-5-7-9-12-13s-8-10-9-16l-1-7v-1h-5l-1 1 1 3 2 7v2c0 2 0 4-3 4l-1-1-1 1c0 2 1 4 3 4l9 5c6 5 12 11 17 18l2 8-1 5c-1 3-4 4-6 2l-3-3-18-22-4-7c-3-7-4-13-4-20m61-80-14 4v3l1 2 1 6-1 3c-2-1-1-2-1-3l-1-2c0-3-2-4-4-6-4-2-7-2-10-1l-5 2c-4 2-8 4-13 4-4 1-8 2-12 5l-6 4c-4 2.6-8.4 4.6-13 6v2l5 5v1h-1l-3-2-6-4-10-2c-5 1-9 3-12 7l-2 2c-2 4-5 6-10 7-5 2-8 5-10 10l-2 8-3 12-1 3c-2 5 0 9 4 12 3 3 7 3 12 1l5-4 5-3 2-1h1-1l-11 12c-1 0-2 0-1 1l1 2h4c8 1 14-2 19-9l3-5c2-4 5-8 10-10l9-3c8-2 15-2 23-1l18 2 14 2 15 1 24-4 6-1c7-1 13 0 20 2 6 3 13 4 20 5 8 1 15-2 22-7 3-2 5-6 7-10 2-6-1-12-6-15h-1v2l-4 11-1 1v-3l1-9v-3c0-6-4-10-10-11-5-2-9-4-11-10-2-3-5-4-8-3l-3 1c-6 1-11 0-15-5l-3-3-2-3-6-3h-6c-5 0-9 0-14-2l-5-2-4-1m-114 172v11l-1 6h-1v-1l-1-12-1-19-1-1-3 1a228.5 228.5 0 0 1-59-1l-5-1-1 1v4l1 10c2 12 5 24 9 35 8.7 20.5 19 40.2 31 59a223.3 223.3 0 0 0 76 60l24 10 3 1 2-1v-2c3-9 4-18 5-27l1-11-1-25v-27c1-5 2-10 1-15v-9c-1-8-2-16-1-24 0-13.7.3-27.3 1-41 0-2-1-2-3-3h-7l-13-1c-10-1-21 1-31 2l-22 4-3 1-1 1v1l1 14m207-44-12 1c-9 0-17 2-26 4l-25 7-33 8-9 2c-2 0-2 0-2 2l-2 9v18l1 10-1 31c-1 6-1 12 1 19l4 38 1 20 1 14c1 7 3 15 7 22v1h4l17-7c35-17.8 65.8-43.1 90-74a270.5 270.5 0 0 0 17-33l6-16a231.5 231.5 0 0 0 12-67c0-5 0-4-4-4l-16-3-31-2m-243 25h13l18-2c2 0 2-1 2-2 0-7.7-.5-15.3-1-23v-10l1 1 1 6 1 12v13c-1 2-1 3 2 2h2l30-3h25l15 2c5 0 5 0 3-5-3-6-6-11-10-15l-10-13c-5-7-8-15-9-24l-2-3-11-4c-6-2-5-2-8 2l-6 10c-2 3-5 4-8 5-6 1-11 0-17-2l-5-3c0-2-2-2-3-3-7-2-10-8-11-15v-6l2-15v-2c1-4 2-8 5-12 2-2 4-4 7-4l7-2c3 0 6-1 8-3l3-4 4-3c5-3 11-5 17-3 2 1 4 0 6-1s2-2 2-3l7-18c5-10 8-20 11-31l4-13 3-3 2 4-1 2-2 6-5 12-7 15-9 24v1l1 1 2-2 5-5c5-5 11-7 18-7l8-2 7-3c5-2 10-2 15 1 1 1 2 0 3-1 5-4 12-6 19-5l7 2 10 1h3c7 0 13 2 17 8l3 3v1-3l-13-24-6-9c-4-5.4-7.7-11.1-11-17v-3l1-1 4 3c4 5 7 10 9 16 2 8 5 15 10 21l9 15 2 3 2 2 6-1h6c4 0 8 2 10 6l2 3 6 6 3 2c2 2 4 3 5 6l3 2 4 3c5 4 8 9 7 15 0 5-2 9-5 13-6 5-13 9-21 9l-4 2-7 5c-5 4-10 7-16 8l-8 2-17 3c-12 3-22 9-30 18-5 5-7 10-8 16v10l-1 2 2 1 4-1 23-6 31-9c30.8-7.4 63-8.1 94-2 5 1 5 1 4-4l-1-24-2-16a331 331 0 0 0-33-96l-19-32-8-13-3-2-22-7-10-2-5-2-1-2 2-1 4 1 9 4c6.8 2.7 13.8 4.7 21 6v-1l-1-1-16-15-20-14-8-4c-1-1-1-1-2 1l-5 15c-3 7-7 13-14 17l-5 2a109 109 0 0 1-23 7c-6 1-12 0-17-1-8-1-16-3-22-8-11-7-17-17-18-30v-2l-1-1-6 3-20 14-16 14-6 8c-7 8-12 17-17 26v1h2l20-13c9.4-5.3 18.1-11.7 26-19l5-3c1-1 2-2 3-1l1 1-4 5-12 8-17 10-26 17-3 3-5 8c-9 17-17 34-23 53l-9 33-3 18c-2 12-3 23-3 35l1 24c0 2 0 2 2 2 12 2 23 3 36 3m-47-36a281 281 0 0 1 6-50l7-30a232.8 232.8 0 0 1 45-86l18-21a171.6 171.6 0 0 1 49-39l29-11 20-3 9 1c9 1 19 4 28 7l11 5c9 3 16 8 24 13 9.7 8.9 19.1 18.3 28 28l11 12 4 6 20 26c13 22 23 45 29 70 4.1 19.2 7.8 38.6 11 58-.2 18-1.2 36-3 54-6 41-21.4 80-45 114l-14 18c-8 8-16 16-26 22-11 7-22 14-34 19-13 7-27 11-41 13-7 2-13 2-19 1-16-2-31.6-6.6-46-14l-28-16c-12-7-23-17-32-28-9-11.3-17.8-23-26-35l-18-40a211.9 211.9 0 0 1-16-71l-1-23"/>
    <path fill="#A7BFB9" d="M205.1 423.4v1l1 4 3 5c5 6 11 10 19 10l5 1c4 0 8 2 11 5 1 1 1 1 2-1 2-3 2-5 2-8l-3-9 1-10c1-3 1-3-2-3l-5-1c-4 0-7 1-11 3l-8 4c-4 2-9 2-13 0l-2-1m14 34c-13 0-24-1-36-3-2 0-2 0-2-2l-1-24c0-17.8 2-35.6 6-53l9-33c6-19 14-36 23-53l5-8 3-3 26-17 17-10 12-8 4-5-1-1-3 1c-3.9 2-7.6 4.3-11 7-6 6-13 11-20 15l-20 13h-2c5-10 10-19 17-27l6-8 16-14 20-13 6-4 1 1v2c1 13 7 23 18 30 6 5 14 7 22 8a59.3 59.3 0 0 0 23 0c7.6-2 15-4.6 22-8 7-4 11-10 14-17l5-15c1-2 1-2 2-1l8 4 20 15a83.2 83.2 0 0 1 17 16h-1c-10-2-19.8-5.4-29-10l-4-1-2 1 1 2 5 2 10 2 22 7 3 2 8 13 19 32a245.3 245.3 0 0 1 28 75c3 12.2 5.4 24.5 7 37l1 24c1 5 1 5-4 4l-21-3c-24.4-2.4-49-.7-73 5l-31 9-23 6-4 1-2-1 1-2v-10c1-6 3-11 8-16 8-9 18-15 30-18l17-3 8-2c6-1 11-4 16-8l7-5 4-2c8 0 15-4 21-9 3-4 5-8 5-13 1-6-2-11-7-15l-4-3-3-2c-1-3-3-4-5-6l-3-2-6-6-2-3c-2-4-6-6-10-6h-6l-6 1-2-2-2-3-9-15c-5-6-8-13-10-21-2-6-5-11-9-16l-4-3-1 1v3l4 7 7 10 6 9 13 24v2c0 1 0 1 0 0l-3-3c-4-6-10-8-17-8h-3l-10-1-7-2c-7-1-14 1-19 5-1 1-2 2-3 1-5-3-10-3-15-1l-7 3-8 2c-7 0-13 2-18 7l-5 5-2 2-1-2 9-24 7-15 5-12 2-6 1-2-2-4-3 3-4 13c-3 11-6 21-11 31l-7 18c0 1 0 2-2 3s-4 2-6 1c-6-2-12 0-17 3l-4 3-3 4c-2 2-5 3-8 3l-7 2c-3 0-5 2-7 4-3 4-4 8-5 12v2l-2 15v6c1 7 4 13 11 15 1 1 3 1 3 3l5 3c6 2 11 3 17 2 3-1 6-2 8-5l6-10c3-4 2-4 8-2l11 4 2 3c1 9 4 17 9 24l10 13c4 4 7 9 10 15 2 5 2 5-3 5l-15-2h-25c-10.7.6-21.4 1.6-32 3-3 0-3 0-2-2v-13l-1-13-1-5-1-1v10c.6 7.7 1 15.3 1 23 0 1 0 2-2 2l-18 2h-13"/>
    <path fill="#A7BFB9" d="m406.1 582.4-8-1-3-2v-1l4-2 1-1h-1l-5 1c-2 1-3 3-1 4 5 4 10 7 16 5l7-4 1-3c-1-2-5-3-7-2v1h1l4 1 1 1-1 1-1 1-8 1m-2-24 1 14c0 1-1 3 1 3l1-3v-1l1-13 1-7c1-7 0-15-1-22-1-6 0-12 1-18 2-6 2-12 1-19a151 151 0 0 1-2-19l-1 1-1 6-1 14v16l1 12-1 10c-1 7-2 14-1 21v5m19-88c-4 0-7 1-9 3v1l1 1c2 3 3 6 2 10l-2 6c-2 7-2 14 1 20l1 3 2 1 2-2 11-4h9c8-1 16-3 22-9a35.4 35.4 0 0 0 10-20l-1-1-2 1c-8 5-16 5-24 1l-9-5-8-4-6-2m39-38 31 2 16 3c4 0 4-1 4 4-.7 22.8-4.7 45.4-12 67l-6 16-1 4-16 29c-4 7-9 12-14 18a233.5 233.5 0 0 1-93 63h-4v-1c-4-7-6-15-7-22l-1-14-1-20-4-38c-2-7-2-13-1-19l1-31-1-10v-18l2-9c0-2 0-2 2-2l10-2 32-8c16.8-4.3 34-8 51-11l12-1m-213 70c5 0 10-2 14-4l1-1v-3l-4-1v1h3v3l-2 1-7 1-8-2c-1 0-3 1-4-1 0-2 2-1 4-2h1l-2-1-3 1c-3 2-3 4-1 6l2 1 6 1m5-40v-1l1-1 3-1 22-4c10-1 21-3 31-2l13 1h7c3 1 3 1 3 3l1 14c-.9 17-1.2 34-1 51v9c1 5 0 10-1 15v27l1 25-1 11c-.8 9.8-2.4 19.5-5 29l-2 1-3-1-24-10c-15-8-30-18-44-29a223.9 223.9 0 0 1-42-46c-7-14-15-29-21-44-4-11-7-23-9-35l-1-10v-4l1-1 6 1c20.5 3.4 41.5 3.4 62 0v1l1 19 1 12 1 1 1-6v-11l-1-14m85-147-7 2-8 4h-1v2h3l6-1 6-2h10l-1-1c-2-3-4-4-8-4m-83 44 4-1 5-3 8-7c3-3 6-6 11-6v-1c-5 0-9 0-13 3l-10 6c-3 2-7 5-11 6v1c1 2 3 2 6 2m158-19 18-1 2-1v-1l-6-2-16-3c-7-1-13-3-18-8l-2-2v4l1 4c3 4 7 7 12 9l9 1m-86 22 7-1 7-2 11-1c6-1 11-1 17 1l6 1v-1l-3-2-11-5c-5-2-10-2-15-2l-12 4-11 3h-10l2 2 7 3h5m41-57h4l5 2c5 2 9 3 14 2h6l6 3 2 3 3 3c4 5 9 6 15 5l3-1c3-1 6 0 8 4 2 5 6 8 11 9 6 1 10 5 10 11v3l-1 9v3l1-1 4-11v-2h1c5 3 8 9 6 15-2 5-4 8-7 10-7 5-14 8-22 7-7-1-14-2-20-5a45.2 45.2 0 0 0-26-1l-24 4-15-1-14-2-18-2c-8 0-15-1-23 1l-9 3c-5 2-8 6-10 10l-3 5a20 20 0 0 1-23 9l-1-2c-1-1 0-1 1-1 5-4 8-7 11-12h1-1l-2 1-5 3-5 4c-5 2-9 2-12-1-4-3-6-7-4-12l1-3 3-12 2-8c2-5 5-8 10-10 5-1 8-3 10-7l2-2c3-4 7-6 12-7l10 2 6 4 3 2h1v-1l-5-5v-2h2l11-6 6-4c4-3 8-4 12-5 5 0 9-2 13-4l4-2c4-1 7-1 11 1 2 2 4 4 4 6l2 5 1-3-1-6-1-2v-3c4-2 8-3 14-3"/>
    <path fill="#A7BFB9" d="M308.1 384.4a43.4 43.4 0 0 0 8 27l18 22 3 3c2 2 5 1 6-2l1-5c0-3-1-6-3-8-4-7-10-13-16-18l-9-5c-2 0-3-2-3-4h2c3 0 3-2 3-4v-2l-2-7-1-3 1-1h5v2l1 6c1 6 4 12 9 16 5 3.6 9.4 8 13 13 2 2 3 2 4 0l3-12c1-4 1-7-2-11l-4-5-2-4c-1-1 0-2 1-2l2 1 2 1c0 2 2 3 3 5 3 2 5 4 6 8l1 1c1 2 2 2 4 1l3-3 5-7 2-3 3-2h2c1 1 0 1-1 2l-4 5-6 9-1 1 1 1c7 1 13-2 16-8l3-5 3-6c2-4 5-5 9-5v1l-5 6a24.9 24.9 0 0 0-6 12c0 1 1 2 2 1l3-1a81.8 81.8 0 0 1 26-8c4 0 8-1 12-4 4-2 7 0 8 0h1l-1 1c-4 3-9 6-14 7l-10 3-19 7-13 4c-8 2-16 6-22 12-5 5-8 11-9 18l-1 15 1 25v11c-.4 9.7-1.4 19.4-3 29-1 8-1 16 2 24l1 3c3 7 3 15 2 23a205 205 0 0 0 4 61l3 13c1 1 0 2-1 2-6 2-13 2-19 1-4-1-4 0-3-5l1-7c1.5-16.3 2.5-32.6 3-49l-1-19 1-12c1-8 0-15-1-22l-2-14c-1-8 0-15 2-23 2.4-9.8 3.1-20 2-30-1-9-5-16-10-22l-10-14-10-12c-3-5-5-11-6-17l-1-17c0-2 1-3 3-2l1 1v6m36-136c-8 0-15-2-21-6-7-5-13-11-19-18l-6-15c-1-4-1-4 2-5 12.3-6 25-11 38-15 6-2 12-2 18 0l29 11 10 4c2 1 2 1 1 3-1 9-5 15-12 20l-16 13c-8 6-16 8-24 8"/>
    <path fill="#A7BFB9" d="M349.1 399.4v2a486 486 0 0 1-4 11l-1-2-9-9c-6-5-10-11-11-19l-1-3c0-1 1-2 2-1l11 1 2 2c0 3 3 6 5 9l4 4c2 2 3 4 2 5m78-17-9 3-9 1c-6 1-11 4-16 6-1 1-2 2-3 1s0-2 1-3l4-6 6-7 3-1c3-1 6 0 9 1l13 3 1 1v1m-86 50c-1 2-2 3-3 1l-3-4-11-15a34.6 34.6 0 0 1-8-12v-1l9 6a121 121 0 0 1 16 19v6m12-51 9 1h7c1 1 2 1 1 2l-10 9-4-7-4-3v-2h1m33 0-3 6c-3 4-6 8-11 10h-2v-1l6-7 5-7c1-2 4-3 4-2l1 1m-75 0v-3l1-1c3 0 3 7 4 9v2c1 2 0 3-1 3l-3-2-1-8m-11 9h-1l-11-4-2-1 2-2h2l10 5c1 0 2 2 0 2m1-9c0 2.7-1 3.7-3 3l-1-1-4-2c-1-2 6-3 6-3l2 1v2"/>
    <path fill="#FFF" d="m209.1 427.4-1 1 6 6c4 4 9 6 14 6l6 1c4 1 7 2 9 4 0 1 1 2 2 1v-1l-1-7-1-5c-2-4-2-8 0-12l1-1-1-1-2 1c-4 0-7 1-10 3l-10 4h-12m-4-5 2 2c4 2 9 2 13 0l8-4a22.8 22.8 0 0 1 16-2c3 0 3 0 2 3l-1 10 3 9c0 3 0 5-2 8-1 2-1 2-2 1-3-3-7-5-10-5l-5-1c-9 0-15-4-20-10l-3-5-1-4v-2Zm213 84 1 5h1l13-4 11-4 12-4c4-1 7-3 9-6l6-10-1-1-7 3c-7 2-13 2-20-2l-5-3-6-4-8-3h-6v2c3 4 4 8 3 13l-1 9-2 9m5-36 6 2 8 4 9 5c8 4 16 4 24-1l2-1 1 1-1 5-9 15c-6 6-14 8-22 9h-9l-11 4-2 2-2-1-1-3c-3-6-3-13-1-20l2-6c1-4 0-7-2-10l-1-1v-1c2-2 5-3 9-3m-19 88v-5c-1-7 0-14 1-21l1-10-1-12v-16l1-14 1-6h1v3l2 15c1 7 1 13-1 19-1 6-2 12-1 18 1 7 2 15 1 22l-1 7-1 13-1 4c-2 0-1-2-1-3l-1-14m-6 23-3-2v-1l6-2-2-1-5 1c-2 1-3 3-1 4 5 4 10 7 16 5l7-4 1-3c-1-2-5-3-7-2v1h1l4 1 1 1-1 1-1 1h-16Zm-149-79c-2.8.2-5.6-.5-8-2-2-2-2-4 1-6l3-1h3l-2 1-4 2 4 1 8 2 7-1 2-1v-3h-3v-1l4 1v3l-1 1c-4 2-9 4-14 4m86-141 7-2 11-1c6-1 12-1 17 1l6 1v-1l-3-2-11-5c-5-2-10-2-15-2l-12 4-11 3h-10c0 1 3 4 8 5 3 0 5 1 13-1Zm79-21-9-1a20.1 20.1 0 0 1-13-14v-3l2 2c5 5 11 7 18 8l16 3 6 2v1l-2 1-18 1m-158 19c-3 0-5 0-6-2v-1c4-1 8-4 11-6l10-6c4-3 8-3 13-3v1c-5 0-8 3-11 6l-8 7-5 3-4 1m83-44c4 0 6 1 8 4l1 1h-10l-6 2-6 1h-3v-2h1l8-4 7-2"/>
    <path fill="#A7BFB9" d="m208.1 428.4 6 6c4 4 9 6 14 6l6 1c4 1 7 2 9 4 0 1 1 2 2 1v-1l-1-7-1-5c-2-4-2-8 0-12l1-1-1-1h-2l-10 4-10 4h-12l-1 1Zm210 78 2-9 1-9c1-5 0-9-3-13v-2h6l8 3 6 4 5 3c7 4 13 4 20 2l7-3 1 1-6 10c-2 3-5 5-9 6l-12 4-11 4-13 4h-1l-1-5"/>
    <path fill="#FFF" d="m299.8 594.3 2.8 2.8 2.8-2.8-2.8-2.8-2.8 2.8Zm-5.9-19.1c0 .4-.3 6.8-.2 13.3-6.8.5-5.7-13.3-5.3-15 .2-1.4-4.4 1.7-6.6 3.8.7 1.3 1.7 1 3 .5-.5 6.2 3.8 11.8 9 11.7.1 6.4.8 12.5 2.6 13 .2 0 .4-6.5.6-13.7 12.2-3.8 7.6-18.3 7.6-18.3-.2-.8-2 .3-6 3.9 1.6 1.7 2.3.7 3.6.3 1 1.9 1.4 10.5-5 13l.2-18-.4-.2c-1.8.2-5 3.4-7.5 6 1.4 2.3 3.1.3 4.4-.3"/>
  </g>
</symbol></svg>
