<svg xmlns='http://www.w3.org/2000/svg' viewBox='0 0 696 830' fill='none'><symbol id='DDOC_Fill'>
  <g fill="none">
    <path fill="#D7CDC1" d="m590.3 427.4-1 34-3 24-2 25c-3 23-9 45-18 66a301.7 301.7 0 0 1-83 107 159.7 159.7 0 0 1-82 38l-32 5-13 1-8 1-22-2-32-5a175.3 175.3 0 0 1-85-40l-32-32a291.3 291.3 0 0 1-54-88c-5-14-8-28-10-42l-5-42a422.6 422.6 0 0 1 18-184l20-52c4-11 10-20 16-30 10-15 21-30 33-44a197.1 197.1 0 0 1 86-55l21-6c12-4 24-5 36-4h18c14-1 27 0 40 5 15 4 29 9 43 15 24.1 11 45.6 27 63 47a486.4 486.4 0 0 1 47 72l21 54a269.2 269.2 0 0 1 18 84l2 48"/>
    <path fill="#FFF" d="m571.3 439.4-2-26c-2-21.7-4.8-43.4-8-65-3-15-7-29-12-43l-19-49c-5-13-11-24-18-35l-26-36c-6-9-14-17-23-23-6-6-13-10-20-13l-12-6-34-10-24-5-16-1-15-1-7 1-21 3-31 8c-8 2-16 4-24 8-8 3-16 8-24 13l-23 23-29 40c-7 11-13 23-18 36l-16 40c-11 29-18 60-21 91l-2 37c-2.3 30.6.8 61.4 9 91 9.5 42.7 30.2 82 60 114l28 27 11 9c17 14 36 24 58 29l27 6c18.8 4 38.2 4 57 0l9-2c9-2 17-3 25-6 22-6 42-17 59-33l28-26c32.1-33 54.6-74.2 65-119 3-15 7-31 8-46l1-31m6-17-1 34-3 26-2 17c-2.8 30.3-12 59.6-27 86a278.8 278.8 0 0 1-66 82 152.6 152.6 0 0 1-82 37c-13.3 1.8-26.7 3.4-40 5l-4 1h-6l-23-2-31-6a156.6 156.6 0 0 1-75-37 280.8 280.8 0 0 1-80-113c-5-12-9-25-10-39a1564 1564 0 0 1-8-89l2-42c3-32 10-63 22-93l13-34a480.2 480.2 0 0 1 46-72c15-17 33-31 54-41 10-6 21-10 33-13l18-6c11-3 21-4 32-3h17c13-1 26 0 39 5 14 4 27 8 40 14a174.1 174.1 0 0 1 61 48 452.3 452.3 0 0 1 42 64l19 50a385.5 385.5 0 0 1 19 121"/>
    <path fill="#FFF" d="M513.3 414.4v-4c-1-10-2-20-5-30l-8-32a227.5 227.5 0 0 0-15-39v3l1 11c.5 26.2-1.9 52.3-7 78-2 5-2 10-2 15l1 1h1c10.8.6 21.5 2.3 32 5 2 1 2 0 2-1v-7m-333 1v6c0 1 1 2 2 1l7-1 27-4h1l1-1c0-6 0-11-2-17l-4-12c-3-18.8-4-38-3-57l1-18 1-7v-1l-1 1-1 1c-4 10-9 20-12 31l-11 39-6 39m277-98c1-7-1-12-4-18l-2-3c-4-7-9-14-15-20l-19-14-3 1-15 14c-6 8-10 17-13 26l-2 12c0 10 4 16 13 20l19 8c8 3 15 9 20 15l2 2h1l8-11 8-17c2-5 3-10 2-15m-220-1 1 5 1 7c2 9 6 17 11 25l6 7h1l1-1c6-8 14-13 23-17l18-8c6-2 9-6 11-12v-13c-2-11-6-20-12-28-5-7-11-13-17-18-1-2-2-2-4 0-4 2-9 5-13 9-9 8-17 17-22 28-3 5-5 11-5 16m110 327 11-2 8-2c6-1 12-3 17-6 2 0 2-1 1-2-3-10-6-20-7-30-3-14-2-28 2-41 3-10 7-19 12-28l19-36 13-22a142 142 0 0 0 15-90c-4-15-12-27-27-34l-8-3-11-4-9-4c-5-4-8-8-9-14l-1-10c1-13 5-25 13-35l13-14 5-4v-1l-11 2-30 2h-40l-20-2-11-2h-1v1l8 6c12 11 20 25 22 42v16c-1 5-4 10-9 12l-7 4-11 4c-5 2-11 4-15 7-10 6-16 14-20 25l-4 17c-1.9 27 4 54 17 78l10 19 22 39 10 23c5 14 7 27 5 41-1 13-4 25-8 36-1 2-1 2 1 3l2 1 21 6 12 2m132-321v-7l-2-20-2-7-16-28-10-14-8-9a2093.5 2093.5 0 0 0-50-34c-12-6-25-10-37-14-5-2-10-2-15 0l-34 12-24 13-14 10-8 7c-9 8-17 17-23 27l-15 26-2 7-2 16v28l4 39v17l1 15 2 12c1 4 0 6-4 7l-5 1-18 4-13 1c-4 0-4 0-4 4l3 36c2 14 5 27 10 41a407.7 407.7 0 0 0 31 57 233 233 0 0 0 72 57c2 1 2 1 2-1l4-13c4.7-16.6 6.1-34 4-51a178.8 178.8 0 0 0-33-74l-11-16c-14-24-20-49-17-77 1-7 2-15 6-22 1-3 1-3-1-4l-5-5c-4-4-7-9-9-14-4-8-5-16-4-25a98.4 98.4 0 0 0 2-21c1-8 3-16 8-23l6-7c6-8 14-13 24-15l4-1c5-2 9-2 14-1l17 1 18 1 30-1h38l11-1c5-1 10-1 15 1l5 1c8 2 15 6 21 12l9 11c3 6 5 11 6 18l1 7 1 18c1 3 2 7 1 11-1 13-8 24-18 33-2 1-2 1-1 3 4 8 5 18 6 27a120.1 120.1 0 0 1-22 80l-10 15c-11 17-19 34-25 53-4 13-6 25-5 38 1 10 2 20 5 30l3 11 2 1 3-2 18-11c18-11 33-24 47-40 7-7 12-15 16-23l15-30c6-14 10-28 13-43 2.1-14.2 3.1-28.6 3-43 0-3 0-3-2-3h-7l-30-6c-3-2-4-4-3-7l2-11 1-16v-13l3-31 2-25m42 99c-.4 34.9-7.2 69.5-20 102l-12 27a152.5 152.5 0 0 1-31 44c-7 8-15 15-23 20-12 9-25 16-39 22-12 6-25 9-38 12h-20l-15-3c-10-2-20-6-29-10l-34-19c-10-7-19-15-27-25a469 469 0 0 1-28-39l-17-39c-9-23-14.2-47.3-15-72-.9-20.4.1-40.8 3-61l7-30 6-21c10-28 23-53 42-75l21-25c7-8 15-14 22-20 8-7 18-12 27-16l12-5c11.6-4.1 23.7-6.4 36-7 12 1 24 4 35 8l10 4c9 4 17 9 25 15a375 375 0 0 1 21 19l24 28c18 23 32 48 41 75 5.1 16.8 9.4 33.8 13 51l3 33v7"/>
    <path fill="#D7CDC1" d="M474.3 460.4c1 5 1 10-1 14-4 17-12 31-28 40l-9 6c-6 5-12 11-15 19l-5 10-3 12-2 16v4l1 1v-1l1-6 1-12c2-13 8-23 19-30l14-11 12-10c7-8 12-18 16-28 2-7 3-13 2-20l-1-11-1-1-1 1v7m-254-1 1-7h-1l-1 2c-2 9-2 18 0 26 6 18 15 33 30 43l15 11c8 6 13 14 16 24l2 16 1 7 1 1v-3l-3-21-6-18c-4-9-11-16-19-22l-7-4c-8-5-14-11-19-19s-8-16-9-26l-1-10m259-137-2 24-3 31v14l-2 16-1 11c-1 3 0 5 3 7l5 1 25 5h7c2 0 2 0 2 3v3c0 14-1 27-3 40-3 15-7 29-13 43l-15 30c-4 8-9 16-16 23-14 16-29 29-47 40l-18 11-3 2-2-1-3-11c-3-10-4-20-5-30-1-13 1-25 5-38 6-19 14-36 25-53l10-15a120.2 120.2 0 0 0 22-80c-1-9-2-19-6-27-1-2-1-2 1-3 10-9 17-20 18-33 1-4 0-8-1-11l-1-18-1-8c-1-6-3-11-6-17l-9-11c-6-6-13-10-21-12l-5-1c-5-2-10-2-15-1h-11c-13 2-25 1-38 1h-48l-17-1c-5-1-9-1-14 1l-5 1c-9 2-17 7-23 15l-6 7c-5 7.3-7.9 16-8 25 0 7 0 13-2 19-1 9 0 17 4 25a58.3 58.3 0 0 0 14 19c2 1 2 1 1 4-4 7-5 15-6 22-3 28 3 53 17 77l11 16 16 26a179.6 179.6 0 0 1 18 58c1 14-1 28-5 41l-4 13c0 2 0 2-2 1h-1a233 233 0 0 1-82-73c-7-14-14-27-20-42-5-13-8-26-10-41-2-11-3-23-3-35 0-4 0-4 4-4l13-1 18-4 5-1c4-1 5-3 4-7l-2-12-1-15v-17l-4-39v-28l2-16 2-7 15-26c8.3-13 18.8-24.5 31-34l14-10 24-13 34-12c5-2 10-2 15 0l37 13 20 11c10.1 7.9 20.1 15.9 30 24l8 9 10 14 16 28 2 7 2 20v7"/>
    <path fill="#D7CDC1" d="m338.3 417.4-2-2c-4 1-6 3-6 7l2 1c4-1 5-2 6-6m20-2v1c-1 4 1 5 4 7h3v-4c-1-2-4-4-7-4m-14 10 3 6h1l2-4 1-2c0-2-2-5-3-5-2 0-4 3-4 5m13-29c4 0 9-4 9-8l-1-2c-4 1-8 5-9 9l1 1m-18 0v-1c-1-4-5-8-9-9l-1 2c1 3 4 7 8 8 .6.2 1.4.2 2 0m-10 13h1c2 0 5-3 5-4l-7-3-2 1-3 3 3 3h3m22-22-3-6h-1c-2 2-3 4-3 7l2 4h3l2-5m15 22 4-1c2-1 2-3 0-4l-2-1c-2-1-5-1-7 2v1c1 2 3 3 5 3m-24 4c2 0 3 0 4 2l1 1h1l2-2 2-1h1c1 0 2 0 1-1-1-2 0-4 2-5h1v-1l-3-2 1-4-1-1h-2l-3-1v-1h-3c-1 2-2 2-4 2h-1l-1 1 1 1c0 2 0 3-2 4l-1 1v1l2 1 1 3v2h1m5 230-12-2-21-6-2-1c-2-1-2-1-1-3 4-11 7-23 8-36 2-14 0-27-5-41l-10-23-21-39-11-19a141.7 141.7 0 0 1-16-78c0-6 1-11 3-17 4-11 10-19 20-25l15-7 11-4 7-4c5-2 8-7 9-12v-16c-2-17-10-31-22-42l-8-6v-1h1l11 2 20 2h40l30-2 11-2v1l-5 4-13 14a63 63 0 0 0-12 45c1 6 4 10 9 14l9 4 11 4 8 3c15 7 23 19 27 34 4.5 30.8-.7 62.3-15 90l-13 22-19 36c-5 9-9 18-12 28-4 13-5 27-2 41 1 10 4 20 7 30 1 1 1 2-1 2-5 3-11 5-17 6l-8 2-11 2"/>
    <path fill="#D7CDC1" d="M237.3 316.4c0-5 2-11 5-16 5-11 13-20 22-28 4-4 9-7 13-9 2-2 3-2 4 0 6 5 12 11 17 18 6 8 10 17 12 28v13c-2 5-5 10-11 12l-18 8c-9 4-17 9-23 17v1h-2l-6-7a90 90 0 0 1-12-32l-1-5m220 0c1 6 0 11-2 16l-8 17-8 11h-1l-2-2c-5-6-12-12-20-15l-19-8c-9-4-13-10-13-20l2-12c3-9 7-18 13-26l15-14 3-1 19 14c6.5 7 12.2 14.7 17 23 3 6 5 11 4 17m-277 99 6-39 11-39c3-11 8-21 12-31l1-1 1-1v1l-1 7-1 18c-.5 23.2 1.8 46.4 7 69 2 6 2 11 2 17l-1 1h-1a186 186 0 0 0-34 5c-1 1-2 0-2-1v-6m333-1v7c0 1 0 2-2 1l-8-1-24-4h-1l-1-1c0-5 0-10 2-15 4.8-25.7 7.2-51.8 7-78l-1-11v-3l2 3c5 12 10 24 13 36l8 32a156 156 0 0 1 5 34"/>
    <path fill="#FFF" d="m220.3 459.4 1 10c1 10 4 18 9 26s11 14 19 19l7 4c8 6 15 13 19 22l6 18 3 21v3l-1-1-1-7-2-16c-3-10-8-18-16-24l-15-11a77.4 77.4 0 0 1-30-43c-2-8-2-17 0-26l1-2h1l-1 7m254 1v-7l1-1 1 1 1 11c1 7 0 13-2 20-4 10-9 20-16 28l-12 10-14 11c-11 7-17 17-19 30l-1 12-1 6v1l-1-1v-4l2-16 3-12 5-10c3-8 9-14 15-19l9-6a59 59 0 0 0 29-54m-132-47h-1v-2l-1-3-2-1v-1l1-1c2-1 2-2 2-4l-1-1 1-1h1c2 0 3 0 4-2h3v1l3 1h2l1 1-1 4 3 2v1h-1c-2 1-3 3-2 5 1 1 0 1-1 1h-1l-2 1-2 2h-1l-1-1c-1-2-2-3-4-2m24-4c-2 0-4-1-5-3v-1c2-3 5-3 7-2l2 1c2 1 2 3 0 4l-4 1m-15-22-2 5h-3l-2-4c0-3 1-5 3-7h1l3 6m-22 22h-3l-3-3 3-3 2-1 7 3c0 1-3 4-5 4h-1m10-13h-2c-4-1-7-5-8-8l1-2c4 1 8 5 9 9v1m18 0-1-1c1-4 5-8 9-9l1 2c0 4-5 8-9 8m-13 29c0-2 2-5 4-5 1 0 3 3 3 5l-1 2-2 4h-1l-3-6m14-10c3 0 6 2 6 4l1 1v3h-3c-3-2-5-3-5-7l1-1m-20 2c-1 4-2 5-6 6l-2-1c0-4 2-6 6-7l2 2"/>
    <path fill="#FFF" d="m447.1 567.6 2.8 2.8 2.8-2.8-2.8-2.8-2.8 2.8Zm-5.9-19.1c0 .4-.3 6.8-.2 13.3-6.8.5-5.7-13.3-5.3-15 .2-1.4-4.4 1.7-6.6 3.8.7 1.3 1.7 1 3 .5-.6 6.2 3.8 11.8 9 11.7.1 6.4.8 12.5 2.6 13 .2 0 .5-6.5.6-13.7 12.2-3.8 7.5-18.3 7.5-18.3-.2-.8-2 .3-6 3.9 1.6 1.7 2.3.7 3.6.3 1 1.9 1.4 10.5-5 13l.2-18-.4-.2c-1.8.2-5 3.4-7.5 6 1.4 2.3 3.2.3 4.5-.3"/>
  </g>
</symbol></svg>
