<svg xmlns='http://www.w3.org/2000/svg' viewBox='0 0 696 830' fill='none'><symbol id='Foshan_Fill'>
  <g fill="none">
    <path fill="#00807D" d="M105.5 429.4c0-19 1-36 3-54 3-32 10-63 22-94l14-35c5-14 13-27 21-39l28-38c14-17 31-30 50-41l32-14 27-8c12-4 24-5 36-4h19c13-1 27 0 40 5l40 14a185.5 185.5 0 0 1 66 50l29 38c7 11 13 22 18 35l19 48a284.4 284.4 0 0 1 19 92c2.2 31 1.9 62-1 93l-3 30c-2.8 31-12.4 61-28 88a317.7 317.7 0 0 1-40 57l-27 26c-20 20-44 32-71 39a262 262 0 0 1-48 9l-14 2h-8l-16-1c-16-2-33-4-49-8-29-7-55-20-77-41l-34-34c-20-25-37-52-48-82-5-13-9-27-11-41l-4-33-2-22c-2-13-2-26-2-37"/>
    <path fill="#FFF" d="M125.5 440.4c-.8 15.7.2 31.5 3 47l8 35c9 38 27 72 53 102 12 14 25 27 39 39 19 16 40 27 64 33l27 6c12.4 2.9 25.3 3.9 38 3l14-2 25-5a160.5 160.5 0 0 0 76-39l22-22a234.9 234.9 0 0 0 64-107 587.6 587.6 0 0 0 13-78c.7-25.1-1-50.2-5-75a358 358 0 0 0-18-75l-17-44c-5-13-12-26-20-38a602.1 602.1 0 0 0-32-44c-13-14-29-26-47-32a389.4 389.4 0 0 0-54-15l-20-2h-26l-14 2c-20.2 3.5-40 9.2-59 17-9 3-18 8-26 15-8 6-15 14-22 22l-27 37c-8 12-14 25-20 39l-15 40a334.3 334.3 0 0 0-22 105l-2 36m452-18c0 13 0 26-2 39l-2 25-3 21c-2 22-8 43-18 63-14 29-31 54-53 76l-20 19c-18 17-40 29-65 35l-27 6c-10.3 1.4-20.7 2.8-31 4h-10l-25-2-25-5a164.5 164.5 0 0 1-75-34 277.7 277.7 0 0 1-84-115c-5-12-8-25-10-38l-4-32a1384 1384 0 0 1-4-50 532 532 0 0 1 8-90c3-17 8-33 14-49l15-41c13-24.6 28.1-48 45-70 20.4-25.2 48-43.6 79-53l24-8c11-3 23-4 35-3h17c13-1 26 0 39 4 14 5 27 9 40 15a173.2 173.2 0 0 1 57 43 447.9 447.9 0 0 1 47 71l17 45a271.4 271.4 0 0 1 19 88l2 36"/>
    <path fill="#FFF" d="M302.5 536.4v-1l-1-1-1 5v1l2-4m93 1v-1c-1-1-1 0-1 1l-1 2 1 2v1-1l1-4m-115-78v4c1 1 1-1 1-4v-3h-1v3m-2-47-5 2v1l4 2h4l-2-4h-1m27 107c0-3 0-4-4-5h-1v1l2 6 2 3 1-3v-2m19-156h-1v2l1 1c2 2 4 5 5 9l2 5 1 1 1-1-7-16-2-1m131 120 1-1 12-3 3-1v-2l-10 1-7 5 1 1m-172-47v-3c0-2-1-2-2-2l-2 1c-1 5 0 9 2 14v1l1-1 1-10m113 86v-2l-2-11-1-1c-1 1-2 1-2 3v4l3 10 1 1 1-1v-3m-44-122v1c-.1 6.8.9 13.5 3 20l1 1a913 913 0 0 0 7-14c-4-2-8-4-10-7l-1-1m35-19v8l1 1 1-1c4-3 9-5 15-6l9-1c5-1 9-1 13-3 1 0 3 0 3-2h-3l-15 2c-7 1-15 2-23 1-1-1-1 0-1 1m-11 72 3-1 3-4 4-5 8-11 2-3-1-3-7-6c-2-1-4 0-5 2l-1 3-3 9-5 17v1l2 1m-35-45v4l1 8 2 2 6 3h2v-1l-1-2c-2-6-4-14-4-21l-3-17c-1-8-4-15-8-22l-3-1-3 1c-2 0-2 0-1 1l6 14c4 10 6 20 6 31m-19 12h10c2 0 3-1 4-4v-1c.6-9.4-.1-18.8-2-28h-1l-1 1v3c-1 7-5 13-12 16l-7 2-12 1h-5l-3 1 1 2c4 3 8 5 13 6l15 1m49-35-2-15-2-2-6-4a42.4 42.4 0 0 0-21-4l-1 2 1 2c3 3 4 7 6 10l4 16c0 2 1 4 3 5 3 4 7 7 12 9h1c4-6 5-13 5-19m-66 62 1 6c0 8 4 14 8 20l4 3c2 1 4 1 6-1l10-7c5-4 8-10 9-16 0-3 0-4-2-5-5-3-10-4-15-4l-17-2c-2 0-4 1-4 3v3m-15 1v-6l-1-7c0-2-2-3-3-3l-2 1c1 5 0 10-1 14v15c-1 4-1 7 1 10v3l-1-2-1-2-1-1v1l-2 6v4l-1-1 1-10v-5l-1-6 1-6v-5l-1-2c-1-4-2-8-1-12v-2c-1-2-2-3-4-3l-2 2-1 2 1 7 2 13c2 10 1 19-3 27l-1 1 1 3 6 3c5 2 9 3 14 3h11l3-1c1-1 0-2-1-3l-7-11c-3-5-5-11-6-16v-11m135-6v-3c0-2-1-2-2-2l-14 2-5 7c-2 7-7 12-12 17l-5 4c-5 6-7 13-6 20v3l2 1 1-1c4-3 8-4 12-5l13-1 18-2c3 0 7-1 10-3l3-2c1-1 1-2-1-3l-6-5c-6-8-9-17-8-27m-144 169h-7v1l1 1 20 12a135.3 135.3 0 0 0 44 16h15l18-5c15-4 29-12 42-21h1l-1-1c-8-2-16-3-24-2l-18 4-22 6h-21c-6-1-12-2-17-5-10-4-20-6-31-6m-35-22h-1v1c7 7 14 12 22 17l3 1 8-1 24 2 18 4c10 2 20 3 30 2l29-5 15-2c8-1 15 1 23 3 2 1 3 1 5-1l21-15 2-2h-2l-30 6c-9 1-19 1-28-2l-15-4c-3-1-7-2-10-1l-9 1c-7 1-15 1-22-1l-8-2-9-2-15 1c-7 2-15 2-22 3l-22-1-7-2m267-153v-24c-1-4-3-7-7-8-5-1-9-4-12-8a32.5 32.5 0 0 0-4-5c-1-1-3-1-3 1l-1 3-9 17c-6 7-12 12-20 14l-11 3-11 5c-4 1-6 4-6 8l1 8c2 6 5 12 9 16 3 3 7 5 11 6h9l15-1c9.7-.2 18.7 5.3 23 14v1h-1a32.5 32.5 0 0 1-5-4h-4l-5 3-9 8h-1v3l1 1c4 2 8 3 13 1l11-3 8-6c2-1 3-3 3-6l2-12c2-12 3-23 3-35m-238 148h8c4 0 8-1 11-3 5-3 9-6 12-10 2-1 3-4 3-6l1-5c0-4 1-8 3-11l2-6 2-5c2-9-4-17-10-21l-1 1-2 8v2c1 5 0 9-3 12v6l1 5v1l-1-3-2-2v2l-1 3v5l-1-5 1-5v-10l2-6 1-4-3-13-1-2-7-2-1 1 2 7c3 6 3 13 1 19l-1 10 1 6v2l-1-1c-1-5-2-11 0-16 1-5 1-9-1-14l-2-5-1-8c0-2-1-2-2-3-5-1-10-4-15-7l-5-3-3-1c-2-2-4-1-7 0l-10 5a76.7 76.7 0 0 1-29 2c-9-2-18-6-26-12l-2-1-1 1v1l7 21 18 36 5 9c4 7 10 13 17 17l7 3c11 4 22 5 34 5m162-85h-12c-4 0-7 0-10 2l-8 2-2 4 1 8c1 5 1 9-2 13l-1 4c-1 2-2 5-1 7l1 6 1 11-1 1v-1l-2-11v-11l1-3 2-12-1-7v-3c0-4 0-4-3-3l-2 1c-2 0-2 1-2 3l1 6c1 4 1 8-1 12v11l-1 6 1 6v3l-1-3-1-2v-1l-1 1v1l-3 9v1-5l2-8 1-5v-8c1-3 1-5-1-8l-2-4-2-6 1-6-1-1-9 3c-4 1-7 4-9 8l-2 10c-1 8 0 16 2 24 2 9 6 17 14 24l10 11 2 1 11-1c17.6-3.1 35-7.5 52-13l8-5 10-14c7-10 12-20 17-31l5-13 3-8c1-1 0-2-1-1l-15 2c-7 1-13-1-18-6l-2-2c-2-1-4-1-4 1v5l1 7 1 12-3 10-1 1-1 1v-1l1-4c3-7 3-13 0-20l-1-9c1-2 0-3-2-2-2 0-3 0-3 3v3l2 7c1 6 1 12-1 17l-2 13h-1v-12l2-7c1-3 0-7-1-10l-1-12-1-2h-14m-257-62c1 12 1 24 3 35 1 7 4 12 9 15 4 3 9 6 14 7 13 3 25 2 38-3 4-2 8-5 11-9 4-4 6-9 6-14l-1-9v-3l1-1v1l2 3 2 7 1 2v-2l1-10-1-9c-.7-6.7-.3-13.4 1-20l-1-3-3-1h-2l-2 3-4 8-2 7h-1v-1c0-5 1-11 3-16 3-8 9-14 17-17l12-3h15l11-1 7-1c4-1 7-5 9-9 2-9 0-16-7-22-2-3-5-4-9-6-5-2-11-2-17-2-5 0-10 1-15 5h-2l1-1c3-4 7-5 12-6 7-2 14-2 22 0l3 1v-1a34.8 34.8 0 0 0-42 1l-7 6c-9 8-20 11-32 11h-11c-9-.1-17.8 2.7-25 8l-12 15-2 5c-2 8-4 15-3 23v7m162 149h8l3-1-1-2-8-7c-8-10-11-21-9-33l5-16 6-11c3-5 5-9 6-14l1-9 1-1 1 1v8c0 5-2 10-4 15l-5 10-4 13c-3 12-1 23 6 32 3.5 5 7.5 9.8 12 14l3 1 15 3 10 1 1-1v-1l-10-10-5-5c-5-5-8-10-10-17-2-8-3-17-1-26l3-12c3-6 8-10 14-12l8-1 17-4 7-3 13-2 27-2c8-1 15-2 22-7l10-7v-2c-3-1-5-2-8 1-4 3-8 5-13 5l-10 2h-1l-2-1v-2l3-4-1-1-5-1-4 1-10 7-18 4h-14c-5 1-9 1-13 3l-6 2c-2 1-3 1-3-1l-1-10c0-8 3-15 8-21l5-5 9-10 4-7 2-4c0-2-2-3-4-4-2-2-3-2-5 1l-3 4-3 6-5 7c-3 5-7 7-13 7l-2 2a40.5 40.5 0 0 1-8 10h-1v-1l1-3c4-7 7-15 9-23l3-13c3-12 10-20 21-26l16-7 14-4a49.7 49.7 0 0 0 19-9v-1l-7-4c-2-1-3 0-5 1-4 4-9 7-14 7l-12 2-8 1c-4 0-8 2-11 4-1 1-2 3-3 2-2-1-1-2-1-4-.9-4.7-1.9-9.3-3-14l-5-3c-1-1-1-2-2-1v5c2 7 2 15 0 22l-6 12-5 10-6 15-1 3-1 3v1l-1-1v-1l-1-10-1-3h-2l-17-4h-23c-8-1-15-5-20-12-1-2-2-3-5-3l-3 1-1 1 2 3c1 2 1 4-2 4h-4l-6-3c-2-1-2-1-5 1l-1 1v2c6 4 13 7 20 8 4 0 8 1 11 3l8 3c3 2 7 2 10 2l11 1c7 1 14 3 20 7 5 4 8 9 10 15v1h-1l-2-3-4-4h-1l-1 2c-1 7-4 12-10 16l-4 4-7 5-1 2-4 1-2-1-9-8c-4-4-6-9-8-14v-17c-1-5-1-5-4-6-3-2-4-1-4 2v13c0 7 1 14 5 20l3 5 7 10c2 3 2 5-3 6l-2 1-5 1c-8 0-17-1-24-5l-3-2c-5-3-4-2-7 1l-2 3v1l14 7 9 3 19 7c7 2 11 6 14 12l4 9-1 11-2 6-5 16c-1 5-3 9-6 12l-4 5h-1l1 1 16 2 22 2m39-293-9 1c-6 0-12 2-18 4-4 2-4 3 0 6s8 7 11 12l3 5v3c-1 1-2 0-2-1l-4-4-9-9-12-7c-7-3-14-5-22-5-12-1-24 2-33 12l-7 10-13 17c-6 6-7 14-6 22 0 2 1 2 3 2l3-3 15-7c13-4 24-3 35 6l1 1c2 1 5 2 8 1l5-2c8-2 16-3 24-1 7 1 13 4 18 7l9 6c5 4 12 6 19 6l14-1 13-1c9-1 17 2 23 7 4.3 3.9 7.8 8.6 10 14l-1 1v-1l-2-2-7-7h-2l-1 1c-6 5-13 8-20 11l-8 2-17 6a46.6 46.6 0 0 0-13 9c-1 1-1 3 1 3l12 7 2 2c5 3 10 4 15 4 11-1 21-5 29-12l8-7 4-4h1l-3 5-6 10-1 1h1c8-3 16-8 21-15 6-10 11-21 11-33 1-8-1-16-6-23l-4-5a67.1 67.1 0 0 0-40-16l-10-1h-1v-1h2c4-2 8-2 12-2l3-1-1-2-6-6-8-8a63 63 0 0 0-44-17m2-6 10 1 11 2c11 3 21 8 29 16l7 8c7 8 15 14 25 19 13 6 20 17 24 31v17c0 3 0 4 3 5l7 6 5 3 6 3h1l-1-10a472 472 0 0 0-34-98l-17-30c-3-5-5-9-9-13a623.5 623.5 0 0 0-23-23c-11.3-7.1-22.6-14.1-34-21a258 258 0 0 0-37-14c-6-3-12-3-19 0l-9 3c-15.6 5.3-30.6 12-45 20l-17 12-9 7c-9 9-17 18-23 29l-16 29c-8 13-14 26-19 40l-8 28-8 29-1 7 1 2 1-1 5-6c8-9 18-14 29-15l12-1c7 0 13-1 19-4 4-1 4-2 3-6-3-11-1-20 4-29l4-5c5.1-6 9.8-12.3 14-19 5-7 12-12 21-15 13-4 26-4 40 0l9 4 3-1 5-2c10-5 20-8 31-8m-211 129c0-15.8 1.7-31.6 5-47l9-33c8-26 20-51 37-73l15-19 10-12a167.3 167.3 0 0 1 43-36c17-8.1 35.3-13.5 54-16h4c16.4 1.3 32.3 5.7 47 13 7 3 14 7 20 12 9.4 7.9 18.4 16.3 27 25l15 18c25.4 29.8 43.5 65 53 103l7 29c2 8 2 17 3 26 .7 20-.4 40-3 60a211 211 0 0 1-18 59l-11 24-16 26c-11 13.6-23.4 26-37 37-13 10-27 18-43 25-11 5-23 8-35 10h-25a162.7 162.7 0 0 1-66-28 143.6 143.6 0 0 1-44-41c-8-9-15-20-20-31l-15-34a313.5 313.5 0 0 1-16-97"/>
    <path fill="#00807D" d="M383.5 288.4a69.5 69.5 0 0 0-36 11h-3l-9-4c-13-4-27-4-40 0-8 3-16 8-21 15l-3 5c-4.2 6.7-8.9 13-14 19-6 9-8 19-5 29 2 4 1 5-3 6-6 3-12 4-18 4l-13 1c-11 1-21 6-29 15l-5 6-1 1-1-2 2-7c1-10 4-20 7-29l8-28c5-14 12-27 19-40l16-29a142.8 142.8 0 0 1 32-36l17-12a276.7 276.7 0 0 1 54-23c7-3 13-3 19 0l12 4a259.9 259.9 0 0 1 42 19c10.1 7.9 20.1 15.9 30 24a556 556 0 0 1 19 24l17 30a247.7 247.7 0 0 1 29 77l5 21 2 10-2 1-6-4-5-3-7-6c-3-1-3-2-3-5v-17c-3-14-11-25-24-31-10-5-18-11-25-19l-7-8c-8-8-18-13-29-16l-11-2-10-1"/>
    <path fill="#00807D" d="M420.5 416.4h-5l-5 1c0 2 2 3 4 3 3 2 7 3 11 3 3 0 6 0 9-2l4-3 1-3-3-1-4 1-12 1m-29-115h-4l-5 2v1l3 2h4c7 1 14 4 20 7l4 3 3 1 2-2-2-3-3-4c-6-5-13-8-22-7m-1 57-1-1-6-5c-5-4-11-7-17-8l-11-1h-12c-8.4.4-16.9-.7-25-3l-1 2 3 3 7 3c7 2 13 2 20 2l13-1c7 0 13 1 19 4l10 5h1m-9-64c18 0 33 6 45 17l7 8 6 6 2 2-3 1c-5 0-9 0-13 2l-2 1 11 1c15 1 29 7 40 16l4 5c5 7 7 15 6 23 0 12-4 23-11 33-5 7-21 15-21 15-1-1 8-14 9-15v-1h-1l-4 4-7 7c-9 7-18 11-29 12-6 0-11-1-16-4l-2-2-12-7c-2 0-2-2-1-3l2-2 11-7 18-6 7-2a59.9 59.9 0 0 0 22-12h2c3.2 2.8 6 6.2 8 10 1 1 1-1 1-1l-1-1c-2-5-5-9-9-13-6-5-14-8-23-7l-13 1-14 1c-7 0-13-2-19-6l-9-6c-5-3-11-6-18-7-9.7-2-19.9-1-29 3-3 1-5 0-8-1l-1-1c-10-9-22-10-35-6-5 2-10 4-15 8l-3 2c-2 0-3 0-3-2-1-8 0-16 6-22l13-17 8-10c9-9 20-13 32-12 8 0 15 2 22 5 4 2 9 4 12 7l10 9 3 4c1 1 1 2 2 1v-3a42.8 42.8 0 0 0-14-17c-3-3-3-4 1-6 5-2 11-4 17-4l9-1"/>
    <path fill="#00807D" d="M343.5 587.4c-9 0-16 0-23-2a72.9 72.9 0 0 0-16-3l4-4c3-4 6-8 6-13l5-16 2-6c2-3 2-7 1-11l-4-9c-3-6-7-10-13-12-9.6-3.6-19.2-7-29-10l-14-7v-1l2-3c3-3 2-4 7-1l3 2a40.7 40.7 0 0 0 29 4l2-1c6-1 5-3 3-6l-6-10-4-5c-4-6-5-13-5-20v-13c0-3 1-4 4-2 4 1 4 1 4 6v5l1 12c1 5 3 10 7 14l10 8 1 1 4-1 2-2 6-5 4-4c6-4 9-9 10-16l1-2h1l4 4c3 4 4 4 3 2-2-6-5-11-10-14-6-5-13-7-20-8l-11-1c-3 0-7 0-10-2l-8-3c-3-2-7-3-11-3-7-1-14-4-20-8v-2l1-1c3-2 3-2 5-1l6 3h4c3 0 4-2 2-4l-2-3 1-1 3-1c3 0 4 1 5 3 5 7 12 11 20 12h23l18 4 1 1c1 0 2 0 1 2l1 12h1l1-1v-3l1-3 6-15a451 451 0 0 0 11-22c2-7 2-15 1-22l-1-3v-2l2 1 5 3 3 15c0 1-1 2 1 3s3-1 3-2c4-2 7-4 11-4l9-1 11-2c6 0 10-3 15-7 1-1 2-2 4-1l7 4 1 1-4 2c-5 4-10 6-16 7l-14 4-16 7c-11 6-18 14-21 26l-3 13c-1.8 9.2-5.2 18-10 26v1h1l2-2 6-8 2-2c6 0 10-2 13-7l5-7 3-6 3-4c4-5 9 2 10 3l-3 4-4 7-9 10-5 5c-5 6-8 13-8 21l1 10c0 2 2 2 4 1l5-2c4-2 9-2 13-3h15l17-4c4-2 8-4 10-7l4-1 5 1 1 1-3 4v2l2 1h2l9-2c5 0 9-2 13-5 3-3 6-2 9-1v2l-11 7c-7 5-14 6-22 7l-27 2-13 2-7 3-17 4-7 1c-7 2-12 6-15 12l-3 12c-2 9-1 18 1 26 2 7 6 12 10 17l5 5 10 10c0 1 1 2-1 2l-9-1-16-3-3-1-3-2-9-12c-7-9-9-20-6-32l5-13 4-10a45 45 0 0 0 4-22c0-3-2-2-2-1l-1 9c-1 5-3 9-6 14l-6 11-5 16c-2 12 1 23 9 33 3 2 10 8 9 9l-2 1h-8"/>
    <path fill="#00807D" d="M219.5 489.4c6 0 12-2 17-5l3-1v-1l-1-1h-4l-7 1c-8.5 1.3-17.1.3-25-3l-4-1-1 1 1 2 4 4c5 3 11 4 17 4m17-100-1-1-5-1c-3-1-6 0-9 1-11 2-19 9-25 18l-2 4 1 1 5-3 6-4c6-5 13-9 20-11l6-1 3-2 1-1m-56 50v-8a68.8 68.8 0 0 1 5-28c3-5 8-10 13-15l4-3c6-3 13-5 20-5h11c12 0 23-3 32-11l7-6c4-3 10-6 15-7 10-2 19 0 27 6v1l-3-1c-8-2-15-2-22 0-5 1-9 2-12 6l-1 1h2c5-4 10-5 16-5 5 0 11 0 16 2 4 2 7 3 9 6 7 6 9 13 7 22-1 4-4 8-9 9l-7 1-11 1h-15l-12 3c-8 3-14 9-17 17-2 5-3 11-3 16 0 2 1 2 1 1l3-7 5-11h3l2 1 1 3-1 1v20l1 8-1 10v2l-3-9c-2-6-3-4-3-3v3l1 9c0 5-2 10-6 14-3 4-7 7-11 9-13 5-25 6-38 3-5-1-10-4-14-7-5-3-8-8-9-15-2-11-2-23-3-35m271 63 1 1c0 4 0 8 2 12v10l-2 7v12h1l2-12c2-6 2-12 1-18l-2-7v-3c0-3 1-3 3-3 3 0 3 0 2 2l1 9c3 7 3 13 0 20l-1 4 1 1v-1l1-1 3-10v-12l-2-7v-5c0-2 3-2 4-1l2 2c5 5 11 7 18 6l15-2c1-1 2 0 1 1l-3 8-5 13a263 263 0 0 1-27 45l-8 6-14 4-38 8-11 1-2-1-10-11c-8-7-12-15-14-24-2-8-3-16-2-24l2-9c2-5 5-8 9-9l9-3 1 1v6l1 7 2 3c2 3 2 5 1 8v9l-1 4-2 8c-1 5 0 5 1 4l2-9v-1h1l1 2 1 3v-3l-1-6 1-6v-6l1-5v-12l-1-6c0-2 0-2 2-3l2-1c3-1 3-1 3 3v3l1 7-2 12-1 3v11l2 11v1l1-1-1-11-1-5c-1-3 0-6 1-8l2-4c2-4 3-8 2-13l-2-8c0-2 1-3 3-4l7-2c3-2 6-2 10-2l26 1"/>
    <path fill="#00807D" d="M275.5 585.4c-12 0-23-1-34-5l-7-3c-7-4-13-10-17-17l-5-9a458 458 0 0 1-25-57l1-2 2 1c8 6 17 10 26 12h15l14-2 10-5c3-1 5-2 7 0l3 1 5 3c5 3 10 6 15 7 2 1 2 1 2 3l1 8 2 5c2 5 2 9 1 14-2 5-1 11 0 16l1 1v-8c-1-3 0-7 1-10 1-6 1-13-2-19l-2-7 1-1 7 2 1 2 3 13-1 4c-1 2-3 5-2 9v17l1-8 1-2 2 5s1 0 0 0l-1-6c-1-2 0-4 1-6 2-3 3-7 2-12v-2l2-8 1-1c6 4 12 12 10 21l-1 5-3 6c-2 3-3 7-3 11v5c-1 2-2 5-4 6-3 4-7 7-12 10-3 2-7 3-10 3h-9m163-138 1 5c2 6 5 10 10 13l3 1 1-2-1-4-4-6c-3-4-4-9-2-14v-1c0-2-1-3-2-3l-4 2c-2 3-2 5-2 9m75-10-2 35-3 12c0 3-1 5-3 7l-8 5-11 3c-4.7 1.5-9.9.8-14-2v-3h1l9-8 5-3h4c1.8 1.6 3.8 2.9 6 4v-2c-5-8-13-13-23-13l-15 1h-9c-4-1-8-3-11-6-4-4-7-10-8-16l-2-8c0-4 2-7 6-8l11-5 11-3c8-2 15-7 20-14 4-5 7-11 9-17l1-3c1-2 2-2 3-1l2 2 2 3c3 4 7 7 12 8 4 1 6 4 7 8v24m-267 153 7 2 22 1 22-2 15-2 10 2 7 2c7 2 15 2 22 1l9-1 10 1 15 4c9 3 19 3 28 2 10.8-1 21.5-3.1 32-6l-2 2-21 16h-5c-8-2-15-4-23-3l-15 2-29 5c-10 1-20 0-30-2l-18-4-24-2-8 1-3-1c-8-5-20-16-21-17v-1"/>
    <path fill="#00807D" d="M281.5 612.4c11 0 21 2 31 6 5 3 11 4 17 5h22l21-6 18-4c8-1 16 0 24 2v1a173.6 173.6 0 0 1-60 26h-15a164.7 164.7 0 0 1-44-16l-20-12-1-1v-1h7m144-169c-1 10 2 19 8 27l6 5c2 1 2 2 1 3l-3 2c-3 2-6 3-10 3l-18 2-13 1c-4 1-8 2-11 5l-2 1-2-1v-3a30 30 0 0 1 11-24c5-5 10-10 13-17l4-7 5-2 11 2v3m-135 17c1 5 3 11 6 16l7 11c1 1 2 2 1 3l-3 1h-11c-5 0-9-1-14-3l-6-3-1-3 1-1c4-8 5-17 3-27l-2-13-1-7 1-2 2-2c2 0 4 1 4 3v2c-1 4 0 8 1 12l1 2v5l-1 6 1 6v5l-1 10c0 1 1 2 1 0v-3l2-7 1 1 1 2 1 2v-3c-2-3-2-6-1-10v-15c1-4 2-9 1-14l2-1c1 0 3 1 3 3l1 7v17m15-12v-3c0-2 2-3 4-3l17 2c5 0 10 1 15 4 2 1 2 2 2 5-1 6-4 12-9 16l-10 7c-2 2-4 2-6 1l-4-3c-4-6-8-12-8-20l-1-7m66-61c1 6-1 13-5 19h-1c-5-2-9-5-12-9-2-1-3-3-3-5a83 83 0 0 0-10-26l-1-2 1-2h2c7 0 13 1 19 4l6 4 2 2 2 15m-49 35-15-1c-5-1-9-3-12-6l-2-2 3-1h5l12-1 7-2c7-3 11-9 12-16v-3l1-1h1l1 3c1 8 2 17 1 25v1c-1 3-1 4-4 4h-10"/>
    <path fill="#00807D" d="M341.5 409.4c0-11-2-21-6-31l-6-14c-1-1-1-1 1-2h3l3 1c4 7 7 14 8 22l3 17c0 7 2 14 4 21l1 2v1h-2l-6-3-2-2-1-8v-4m33 44v-1c3-6 4-12 5-17l3-9 1-3c1-2 3-3 5-2l7 6 1 3-2 3-8 11-4 5c-6 8-8 4-8 4m13-71 1-2c8 2 16 1 23 0l15-2c3 0 4 0 0 2s-8 2-13 3l-9 1c-6 1-11 3-15 6l-1 1-1-1v-8m-35 19 1 1 10 7v2l-6 12-2-1-1-3c-2-5-2-11-2-17v-1m44 122v3l-1 1-1-1-3-10v-4c0-2 1-2 2-3l1 1 2 11v2m-113-86-1 10h-1c-1-1-3-9-2-14l2-1c1 0 2 0 2 2v3m171 46 7-5 10-1v2l-3 1-12 3h-2m-130-119 2 1a95.5 95.5 0 0 1 6 17l-1-1-2-5c-1-4-3-7-5-9l-1-1v-2h1m-19 158-1 3-2-3-2-6 1-1c4 1 4 1 4 7m-27-109 3 4h-4l-4-2v-1l5-2m3 44v3c0 3 0 5-1 4l1-7m113 85c0 1 0 0 0 0l-1-2 1-3c2 2 1 4 0 5m-94-1-1-1 2-5 1 1-2 5"/>
    <path fill="#FFF" d="m389.5 358.4-2-1-8-4c-6-3-12-4-19-4l-13 1c-7 0-13 0-20-2l-7-3-2-5h3c7 3 15 3 22 3h12l11 1c6 1 12 4 17 8l6 5c1 0 2 1 0 1m2-57c9-1 16 2 22 7l3 4 2 3-2 2-3-1-4-3c-6-3-13-6-20-7h-4l-3-2v-1l5-2h4m29 115 12-1 4-1 3 1-1 3-4 3c-3 2-6 2-9 2-4 0-8-1-11-3-2 0-5-2-4-3 0-1 3-2 5-1h5m-184-25-4 1-6 1c-7 2-14 6-20 11l-6 4-5 4c-3 0 0-5 1-6 6-9 14-16 25-18 3-1 6-2 9-1l5 1s3 2 1 3m-17 98c-6 0-12-1-17-4l-4-4-1-2 1-1 4 1 10 3h15l7-1h4l1 1v1l-3 1c-5 3-11 5-17 5m221-51 4-2c1 0 2 1 2 3v1c-2 5-1 10 2 14l4 6 1 4-1 2-3-1c-5-3-8-7-10-13-3-7-1-11 1-14M254.4 548.8l2.8 2.8 2.8-2.8-2.8-2.8-2.8 2.8Zm-5.9-19.1c0 .4-.3 6.8-.2 13.3-6.8.5-5.7-13.3-5.3-15 .2-1.4-4.4 1.7-6.6 3.8.7 1.3 1.7 1 2.9.5-.4 6.2 3.9 11.8 9 11.7.2 6.4.9 12.5 2.7 13 .2 0 .4-6.5.6-13.7 12.2-3.8 7.6-18.3 7.6-18.3-.2-.8-2 .3-6 3.9 1.6 1.7 2.3.7 3.6.3 1 1.9 1.4 10.5-5.1 13l.3-18-.4-.2c-1.8.2-5 3.4-7.5 6 1.3 2.3 3 .3 4.4-.3"/>
  </g>
</symbol></svg>
