<svg xmlns='http://www.w3.org/2000/svg' viewBox='0 0 696 830' fill='none'><symbol id='GMAC_Fill'>
  <g fill="none">
    <path fill="#A7BFB9" d="m590 425-1 37-3 23-2 24c-3 25-10 49-21 72a304.3 304.3 0 0 1-78 101 159.7 159.7 0 0 1-82 38 1466 1466 0 0 1-59 8l-26-3-26-5a170.5 170.5 0 0 1-85-41l-27-27a282.4 282.4 0 0 1-56-91c-5-12-9-25-10-37l-5-32a465.6 465.6 0 0 1 35-245c5-15 12-28 21-41l28-37a169.7 169.7 0 0 1 71-50l36-13c9-3 18-4 27-4l18 1h4l17-1c11 0 21 1 32 5l37 13c25.8 11 48.7 27.8 67 49a472 472 0 0 1 47 71l20 52c9.8 25 15.9 51.3 18 78 2 17 3 35 3 55"/>
    <path fill="#FFF" d="m571 441-2-30a1055 1055 0 0 0-8-64c-3-15-7-30-13-44l-18-47a179.6 179.6 0 0 0-29-52l-21-27c-13-15-29-27-49-34a404 404 0 0 0-54-14c-9-2-19-2-28-3h-3l-15 1-15 2c-12 2-23 6-35 9l-24 9c-7 3-14 6-20 11-9 6-17 14-24 23l-26 35c-10 14-17 29-23 44l-15 39a366 366 0 0 0-23 168l2 18 7 31a230.8 230.8 0 0 0 59 113l29 29 10 8c17 14 36 24 57 29l30 7 8 1 14 1h18l12-2 20-4c9-1 18-4 27-7 19-7 37-18 52-31l23-23a239.5 239.5 0 0 0 63-106l8-33c4-17 6-35 6-57m-451-19c.8-42.8 7.8-85.3 21-126l16-43c4-10 10-20 16-30 9-14 19-28 31-41 13-16 29-28 47-38 11-6 24-11 37-15l21-7 18-2 19 1h4l21-1c22.3 4.6 44 11.3 65 20a173.5 173.5 0 0 1 59 45l25 34c8 12 15 24 20 36l15 41c6 14 10 29 13 44l5 27c3.9 25.5 4.9 51.3 3 77l-1 19-2 17-2 18a215.4 215.4 0 0 1-28 89 279 279 0 0 1-68 81c-18 16-39 26-62 32l-25 5-22 3c-10 2-19 2-29 1l-31-4-26-6c-24-7-47-18-65-36l-26-26a264.5 264.5 0 0 1-53-85l-9-39a1559 1559 0 0 1-7-61v-30"/>
    <path fill="#FFF" d="M211 312v-8l-1 1-4 9-1 2h4l2-2v-2m20-39h4l1-1v-9h-2l-1 1-4 5 2 4m270 91v10c0 2 0 2 2 2 1 0 2 0 2-2v-7l-3-13-1-1v11m-19 0h-3l-1 1c1 4 3 7 6 10l4 1 1-1-2-8c0-3-1-3-3-3h-2m-140-14h-2l-1 1c1 4 2 7 6 10l4 1v-1l-1-9c-1-2-1-2-4-2h-2m-137-23c-5 0-5 0-3 4l4 7 4 1c1 0 2 0 1-1l-1-7c-1-4-1-4-5-4m171 23h-3c-1 0-2 0-2 2v10l3-2c3-2 4-4 5-7 1-4 1-4-3-3m-143-11 3-1c2-2 4-4 4-6l2-5h-7l-2 2v10m248 15 4-1c3 0 4-1 4-4v-13c0-2-1-3-3-3h-7l-2 1c-3 6-5 12-2 18l2 2h4m-137-36h-1c-3.3 0-5.7 1.7-7 5l-1 2v13l2 1h7c4 0 6 0 5-6v-10l1-2c0-2-1-3-3-3h-3m26 10v8c0 2 0 2 2 3h9c2 0 2 0 3-2 2-6 0-12-3-18l-2-1h-8c-2 0-2 1-2 2l1 8m-139-21v5c0 3 1 4 4 4l2 1h6c2 0 2-1 3-2 2-7 0-13-3-18l-2-2c-2 0-10 0-10 3v9m-12 7h1l-1-21v-4c-2 0-2 2-2 3l-1 1-1 6c1 3 2 7 1 11-2 6-5 9-10 9-2 0-3 1-4 3v1c-1 1 0 2 1 2h6c2 0 4 1 4 3l2 4v5c0 2 1 2 3 2l1-2v-23m278 43v-13l-2-12s-1-5-3-7h-8l-2 2-1 1-1 2h7c3 0 4 1 5 3l2 9-2 9c-1 2-3 4-6 5h-6l-3 1-1 1 1 2c0 2 1 2 3 2h4c5 0 7 1 8 7v2l2 5h2l1-1v-18m-136-21v25l1 1h3v-4l2-7c1-2 2-3 5-3h5c2.7 0 4-1 4-3l1-1-2-2h-6c-5-1-7-3-9-8-1-5-1-10 1-16l4-2 6-1h2l-2-2-1-1-14 1v23m-4 1v-23l-1-2h-12c-2 0-3 1-3 3v1h8l3 2c3 6 3 12 1 18-2 3-4 5-7 5l-7 1c-3 0-3 0-2 3v1c1 1 1 2 3 2h7c2 0 3 1 4 3l2 4v5l2 2h1l1-2v-23m-134-23v24l1 1h3v-4l2-7c1-2 2-3 5-3h6c3 0 3 0 3-3l1-1-2-1-6-1c-5-1-7-3-9-7v-13c2-5 2-6 8-6h5v-1l-1-1c-1-2-2-3-4-3h-8c-4 0-4 0-4 4v22m19-63-2 1-4 7c-1 1-1 1 1 1l29 4 25 5c12 4 25 6 37 8l33 3 10 1 18 5c12 4 25 6 39 7l21 2 9 1 16 4c2 0 5 2 7 1l-3-7-1-2-2-1-7-1-52-8a437.8 437.8 0 0 1-66-15l-45-6-21-3-27-5-15-2m106-63-10 1-13 5a267.5 267.5 0 0 0-41 19l-14 9c-11 7-19 16-26 25l-1 1 1 1 3 1 30 3 20 2 37 8 43 7c16 2 31 5 47 9 16.8 4.1 33.8 7.1 51 9l-2-3-10-18a149 149 0 0 0-35-42l-16-11-23-13-35-12-6-1M180 431c0 15 1 27 3 40 2 12 4 25 9 37a383.7 383.7 0 0 0 33 62c9 11 19 21 31 30l29 20c16 10 34 18 52 22h5c6 1 12 0 18-2 2 0 2-1 3-2 2-7 6-14 11-20 6-8 14-15 22-21l11-8 7-6 2-3v-3l-3-3-6-3-6-3-4-4c-2-2-3-5-1-8l3-5 6-5 10-7 10-7 5-4c3-3 5-6 5-10v-2c0-5 2-8 5-11h1v1c-4 4-3 8-1 12l1 2c2 4 1 8-2 11-2 3-5 4-7 5l-9 4-10 4-11 7-4 5c-2 3-1 5 1 8l5 2 6 3 7 4c6 4 5 10 3 14l-6 7-7 5-9 5a79.6 79.6 0 0 0-32 34l1 1 2-1 11-4a238.6 238.6 0 0 0 97-76c14.2-23.3 25-48.6 32-75 3-14.1 4.4-28.6 4-43l-2 1c-3 5-7 9-12 12l-3 3c-5 3-8 6-10 11l-3 5c-4 6-10 11-17 14l-5 1h-2l-1-2 3-1 8-8c0 1 5-4 5-6l-5-3c-8-4-15-9-22-15l-11-11-12-13-3-2h-4l-5 7c-9 12-19 23-31 33-10 9-21 18-34 23-7 3-13 8-18 14a97.3 97.3 0 0 1-4 5l-1-1 2-4 7-10 6-7v-2l-9-2c-11-4-20-9-27-17l-10-11-4-7-4-3c-1-2-2-1-3 0l-2 3a117.8 117.8 0 0 1-35 36l-1 1c-1 0-1 0 0 0l1 3 13 11c6.3 5.4 11.9 11.4 17 18v1h-1l-2-3-16-12-14-10c-11-7-20-16-27-26l-9-15-19-32-3-5-2-2-1 1-1 1v17m333-13v-9l-3-22-1-7-2-1h-3l-17-1-4-1-9-7c-5-5-6-10-5-16 0-5 1-9 3-14 1-5 3-10 7-14 1-2 3-3 5-3l6-1 1-1-7-16-3-2h-13c-6 0-13 0-20-2l-11-3-23-5c-8-1-15-3-23-3l-12-1c-2 0-2 1-2 2v6c0 3-1 3-4 3l-7 1c-6 0-5-1-5 5l12 2c4 0 5 0 7 4l1 2a62 62 0 0 1 9 28c0 5-1 9-4 12-5 5-11 10-19 10-7 2-13 1-19 0l-5-2-10-7c-3-5-5-10-4-15l2-12 7-15c2-4 5-5 9-5h8c2 0 2-1 2-2l1-5c0-2 0-3 2-3l2-1h6c6 0 5 0 5-5v-1c0-2 0-2-2-2l-16-4-14-4-22-4c-8-2-17-4-26-4l-20-3-24-5-7-1-2 1 1 1v6c-1 3-2 4-5 4h-7c-4 0-5 1-6 4v4l1 1h11c3 0 4 1 6 3l3 4a61.3 61.3 0 0 1 8 27c0 5-2 10-6 14l-5 4c-3 3-7 5-11 5h-2c-7 1-13 0-19-1-3 0-6-2-8-4-3-3-3-3-5 1l-7 26-7 29-1 10 1 2 6 5 11 11 14 20 12 19 11 15 1 2 2 1 12-10 18-18 7-6c6-5 9-5 15-1l8 6 13 11c9 8 20 14 30 21l1 1h2l1-1c24-17 46-36 68-56l1-2c2-2 5-2 8-1l3 1c5 1 9 4 13 7l12 12c8.7 8.7 18 16.7 28 24l9-8 7-6 17-18 1-4v-12m8 0c-.4 36.7-7.5 72.9-21 107l-11 24c-5 11-11 21-19 30l-14 16c-6 7-13 14-21 19-12 8-25 16-38 22-12 5-24 9-37 11-7 1-13 2-20 1l-15-3c-12-2-23-6-33-12l-29-16c-11-7-20-15-28-24a236.6 236.6 0 0 1-27-36c-8-15-15-31-21-47a213 213 0 0 1-14-71v-17c-1-20 1-39 6-58l8-30c9-27 22-52 40-75l12-15 7-8a161.2 161.2 0 0 1 45-38c16.4-8.3 33.9-14 52-17h8c15.3 1.6 30.3 6 44 13 8 3 15 7 22 13 9.7 8.3 19 17 28 26l12 15a252.9 252.9 0 0 1 54 103l7 28 2 23 1 16"/>
    <path fill="#A7BFB9" d="m513 430-1 4-17 18-7 6-9 8h-2a659.3 659.3 0 0 0-26-24l-12-12c-4-3-8-6-13-7l-3-1c-3-1-5-1-8 1l-1 2c-22 20-44 39-68 56l-1 1h-2l-1-1-30-21-13-11-8-6c-6-4-9-4-15 1l-7 6-18 18-12 10-2-1-1-2-11-15-12-19a206.9 206.9 0 0 0-25-31l-6-5-1-2 1-10 7-29 7-26c2-4 2-4 5-1 2 2 5 4 8 4 6 1 12 2 19 1h2c4 0 8-2 11-5l5-4c4-4 6-9 6-14l-1-7a62 62 0 0 0-10-24c-2-2-3-3-6-3h-11l-1-1v-4c1-3 2-4 6-4h7c3 0 4-1 5-4v-7l1-1 7 1 24 5 20 3c9 0 18 2 26 4l22 4 14 4 16 4c2 0 2 0 2 2v1c0 5 1 5-5 5h-6l-2 1c-2 0-2 1-2 3l-1 5c0 1 0 2-2 2h-8c-4 0-7 1-9 5l-7 15-2 12c-1 5 1 10 5 15 2 3 6 5 9 7l5 2c6 1 12 2 19 0 8 0 14-5 19-10 3-3 4-7 4-12l-1-7c-2-8-4-15-8-21l-1-2c-2-4-3-4-7-4l-12-2c0-6 0-5 5-5l7-1c3 0 4 0 4-3v-6c0-1 0-2 2-2l12 1c8 0 15 2 23 3l23 5 11 3c7 2 14 2 21 2h12l3 2 7 16-1 1-6 1c-2 0-4 1-5 3-3 4-6 9-7 14-2 5-3 9-3 14-1 6 0 11 5 16l9 7 4 1 17 1h3l2 1 1 7 3 24v19"/>
    <path fill="#A7BFB9" d="M419 442v-3h-2l-4 4c-4.4 5.6-8.8 11.3-13 17l2 2h2c3-2 7-3 10-6s5-7 5-11v-3m-152 91c1-1-1-3-2-4-5-2-8-6-12-9l-3-3-3-2c-2 0-3 0-3 2v5l4 5c4 4 16 7 19 6m21 8c0-5-2-10-5-14l-1 1 1 2c3 4 3 9 1 13l-2 3-1 5c-1 5 1 9 5 12l6 3 7 2 10 1 5 5v4l-2 6c-3 7-2 14 4 19l5 5 8 6 5 2-4-4-9-10c-3-4-4-9-4-14l1-9c1-6-1-8-6-10l-5-2-9-2-6-3c-4-2-5-6-5-10l1-5v-6M180 431l1-17v-1l1-1 2 2 3 5 19 32 9 15c7 10 16 19 27 26l14 10 16 12 2 3c1 0 2 0 1-1l-2-3-15-15c-4-4-14-13-14-15l15-12c9-7.8 16.7-16.9 23-27 1-2 2-2 3 0l4 3 4 6 10 12c7 8 16 13 27 17l9 2v2l-6 7-7 10c-3 6-1 6 1 3l2-3c5-6 11-11 18-14 13-5 24-14 34-23 12-10 22-21 31-33l5-7h4l3 2 12 13 11 11c7 6 14 11 22 15l5 3c1 2-9 11-13 14s-1 3 0 3l5-1c7-3 13-8 17-14l3-5c2-5 5-8 10-11l3-3c5-3 9-7 12-12l2-1v2l-4 41-7 25-8 20-16 30-14 17a236.8 236.8 0 0 1-84 59l-11 4-2 1-1-1 1-2c8-14 18-25 31-32l9-5 7-5 6-7c2-4 3-10-3-14l-7-4-6-3-5-2c-2-3-3-5-1-8l4-5 11-7 10-4 9-4 7-5c3-3 4-7 2-11l-1-2c-2-4-3-8 1-12 0-1 0-2-1-1s-5 6-5 11v2c0 4-2 7-5 10l-5 4-10 7-10 7-6 5-3 5c-2 3-1 6 1 8l4 4 6 3 6 3 3 3v3l-2 3-7 6-11 8c-8 6-16 13-22 21-5 6-9 13-11 20-1 1-1 2-3 2-6 2-12 3-18 2h-5c-18-4-36-12-52-22l-29-20c-12-9-22-19-31-30l-13-18c-7-15-15-29-20-44-5-12-7-25-9-37-2-13-3-25-3-40m168-243 6 1c12 4 22 6 33 11 8 3 15 7 22 12l15 11c5 3 11 6 14 10 9 9 18 20 24 32l13 23c2 2-7 0-8 0l-46-9c-15-5-31-7-46-10-14-1-28-4-42-7l-36-7-21-2-29-4h-3l-1-1 1-1c7-9 15-18 25-25l14-10 18-9a259.7 259.7 0 0 1 47-15"/>
    <path fill="#A7BFB9" d="m242 251 15 2 27 5 21 3 45 6 25 6c13 4 27 6 41 9l52 8 7 1 2 1 1 2c1 2 4 6 3 7l-7-1-16-4-9-1-21-2c-14-1-27-3-39-7l-18-5-10-1-33-3c-12-2-25-4-37-8l-25-5-29-4c-2 0-2 0-1-1l6-8m-19 44v-3c0-4 0-4 4-4h8c2 0 3 1 4 3l1 2h-5c-6 0-6 1-8 6v13c2 4 4 6 9 7l7 1 1 1-1 1c0 2-1 3-3 3h-6c-2 0-4 1-5 3l-2 7v4h-3l-1-1v-43m134 65-1 2h-1l-2-2v-5l-2-4c-1-2-2-3-4-3l-10-2v-1c-1-3-1-3 2-3l7-1c3 0 5-2 7-5 2-6 2-12-1-18l-3-2h-6l-2-1h-1c0-3 2-3 4-3h12l2 48m3-47 1-2 13 1s3 0 3 2c1 1-2 1-2 1l-6 1-4 2c-2 5-2 11-1 16 2 5 4 7 9 8h6l2 2-1 1c0 2-1 3-3 3h-6c-3 0-4 1-5 3l-2 7v4h-3l-1-1v-48m136 62-1 1h-2l-1-1-1-4v-2c-1-6-3-7-8-7h-4c-2 0-3 0-3-2l-1-2 1-1 3-1h6c3-1 5-3 6-5l2-9-2-9c-1-2-2-3-5-3h-7l1-2 1-2 2-1h8c3 3 6 16 5 19v31m-278-38-1 2c-2 0-3 0-3-2v-5l-2-4c0-2-2-3-4-3h-6c-1 0-2-1-1-2v-1c1-2 2-3 4-3 6 0 8-3 10-9 1-4 0-8-1-11-2-5 3-12 5-10 1 2-1 40-1 48"/>
    <path fill="#A7BFB9" d="M231 298c0-4 8-3 10-3l2 2c3 5 5 11 3 18-1 1-1 2-3 2h-6l-2-1c-3 0-4-1-5-4l1-14m138 22c0-1 0-2 2-2h8l2 1c3 6 5 12 3 18-1 2-1 2-3 2h-9l-3-3 1-8-1-8m-22-2c2 0 3 1 3 3l-1 2v10c1 5-1 6-5 6h-7l-2-1a20 20 0 0 1 1-15c1.3-3.3 3.7-5 7-5h4m134 36h-4l-2-2c-3-6-1-12 2-18l2-1h7c2 0 3 1 3 3v13c0 3-1 4-4 4l-4 1m-248-15c-2 0-2 0-2-2l4-10h7l-1 5-5 6-3 1m143 11c4-1 4-1 3 3-1 3-2 5-5 7l-3 2c-2 0-2-1-2-2l2-8c0-2 1-2 2-2h3m-171-23c4 0 4 0 5 4l1 6c1 2 0 2-1 2l-4-1-4-7c-2-4-2-4 3-4m139 23c3 0 3 0 4 2l1 9v1l-4-1c-3-3-5-6-6-10l1-1h4m140 14c2 0 3 0 3 3l2 8-1 1-4-1c-3-3-5-6-6-10l1-1h5m17-10h1l3 13v7c0 2-1 2-2 2-2 0-2 0-2-2v-20m-270-81c-1 0-4 0-2-4l4-5 1-1h2v9l-5 1m-20 41-2 2h-4l1-2 5-9v9"/>
    <path fill="#FFF" d="M288 541v6l-1 5c0 4 1 8 5 10l6 3 9 2 5 2c5 2 6 4 6 10l-1 9c0 5 1 10 4 14l9 10 4 4s0 1 0 0l-5-2c-4.5-3.4-9-7.1-13-11-6-5-7-12-4-19l2-6v-4l-5-5-10-1-7-2-6-3c-4-3-6-7-5-12l1-5 2-3c2-4 2-9-1-13l-1-2 1-1c3 4 6 10 5 15m-40-12-5-7v-6c0-2 1-3 3-2l4 2 4 4c5 4 16 10 16 12s-17 3-22-3m171-85c0 4-2 8-5 11s-7 4-10 6h-2l-2-2 2-3 11-14 4-4h2v6m-175-22 2.9 2.8 2.8-2.8-2.8-2.8-2.8 2.8Zm-5.8-19.1c0 .4-.3 6.8-.2 13.3-6.8.5-5.7-13.3-5.3-15 .2-1.4-4.4 1.7-6.6 3.8.7 1.3 1.7 1 2.9.5-.4 6.2 3.9 11.8 9 11.7.2 6.4.9 12.5 2.7 13 .2.1.4-6.5.6-13.7 12.2-3.8 7.6-18.3 7.6-18.3-.2-.8-2 .3-6 3.9 1.6 1.7 2.3.7 3.6.3 1 1.9 1.4 10.5-5.1 13.1l.3-18c0-.2-.2-.3-.4-.3-1.8.2-5 3.4-7.5 6.1 1.3 2.2 3 .2 4.4-.4"/>
  </g>
</symbol></svg>
