<svg xmlns='http://www.w3.org/2000/svg' viewBox='0 0 696 830' fill='none'><symbol id='GUIC_Fill'>
  <g fill="none">
    <path fill="#A6BFBA" d="M105.2 420c1-25 3-53 8-80 3-18 8-35 15-53l17-43c5-12 11-24 18-35l29-38c15-20 34-34 57-46l33-13 20-7 24-3h43l24 3c18 6 35 12 52 20 18 8 34 20 47 33l16 18 23 31c8 12 14 24 20 37l18 48c8 21 13 43 16 66 5.4 42.8 5.8 86.1 1 129l-3 29c-3 20-8 39-16 58a301 301 0 0 1-83 108c-20 18-44 30-70 36-11 3-22 5-34 6a270.3 270.3 0 0 1-36 3c-8 1-16 0-24-2l-35-6c-29-6-55-19-76-39a298.5 298.5 0 0 1-85-120c-6-13-9-27-11-41l-6-52c-2-15-2-30-2-47"/>
    <path fill="#FFF" d="M125.2 439v7c-.5 19.2 1.5 38.3 6 57l10 36c9 28 23 53 41 77 11 13 38 40 51 50 16 13 34 23 54 28l29 7 12 2c9 1 18 2 27 1l21-2 12-3c9-2 18-3 26-6 22-7 40-18 57-33l24-24a236.4 236.4 0 0 0 61-100c4-12 7-25 9-37 5-19 7-38 6-58l-1-16c-2.7-26-5.7-52-9-78-3-16-8-32-14-47l-16-42c-5-14-12-27-20-39a630.8 630.8 0 0 0-31-42c-13-15-29-27-48-34l-30-9a226 226 0 0 0-56-8h-9l-22 3-45 12a115.3 115.3 0 0 0-60 43l-27 37c-7 11-13 23-17 35l-17 42-5 14a297 297 0 0 0-17 90l-2 37m-5-9 2-55c4-30 11-59 22-87l14-36c4-10 9-20 15-29l30-40c13-15 27-27 44-37 20-11 41-18 62-24l18-2 19 1h5l21-1 18 3c17 5 33 11 49 18a166 166 0 0 1 55 43 448 448 0 0 1 44 69l18 46c8 20 13 42 16 63 3.8 30.5 5 61.3 4 92l-3 25-3 24c-2 27-10 52-23 76-13 25-29 48-50 68l-17 17c-19 18-42 30-68 36l-28 5-17 3c-10 1-20 2-30 1l-25-4-28-5c-26-6-49-18-69-37-12-12-24-23-35-36-18-23-33-49-44-77-4-12-7-25-9-37l-5-41c-2-15-2-31-2-42"/>
    <path fill="#FFF" d="M507.2 375v-2l-10-34c-5-18-13-34-21-50l-17-28c-7.5-12.7-17-24.2-28-34l-27-18-12-6c-12-6-25-10-38-14-5-2-10-2-15 0l-22 8a156.4 156.4 0 0 0-48 26c-8 5-15 12-21 19l-1 2h1c8-2 15 0 22 5l8 7c12 11 20 25 26 40 6 18 9 36 11 54l2 24 1 7 1-2 2-7c4-12 8-23 15-34l10-13c4-4 8-7 13-8l17-1a38.4 38.4 0 0 1 27 21l7 9 5 7c4 3 7 4 12 4l11-3 16-6c8-3 16-2 23 1l5 3c9 6 16 12 22 20l3 3m-86-11c-8-1-13-5-17-10l-4-7-6-9-6-7-8-6c-6-4-13-4-20-1-6 3-11 6-14 12a130.2 130.2 0 0 0-21 55c-2 9-2 19-3 29l-1 6-3 3-3-2-1-3-3-31-3-29-4-30a215.2 215.2 0 0 0-20-61c-3-6-8-11-14-15-4-3-8-5-13-6-9-2-19 2-23 10l-18 31c-9 16-16 32-21 50-4.7 17.2-9 34.6-13 52a241.5 241.5 0 0 0 0 70c2 15 5 30 11 45 8.9 20.9 19.6 41 32 60a242.7 242.7 0 0 0 63 52 157.3 157.3 0 0 0 55 21l16-2c13-3 26-8 38-14l22-14c17-11 33-24 46-39 7-8 14-16 18-26l13-26a173 173 0 0 0 17-72c.4-18.1-.6-36.1-3-54-4-7-7-14-13-19a346.6 346.6 0 0 0-21-21c-9-4-17-5-26-2-8 2-16 6-22 11-5 2-8 6-12 9l-14 11-8 5-6 1h-2l12-9 11-8 12-10m100 54c-.2 35.9-7 71.5-20 105l-13 27c-4 10-9 18-16 26l-13 16c-7 8-15 16-24 22-15 10-30 18-46 25l-33 9c-8 1-16 0-24-1-16-3-32-9-47-17l-31-19-17-16-17-20c-6-7-10-15-14-23l-20-44a310.2 310.2 0 0 1-10-132c4-14 7-29 12-43 8-25 19-48 35-68l16-21 10-12a167.4 167.4 0 0 1 41-34c15-7 30-13 46-16 9-1 17-1 26 1 16.5 3.7 32.3 9.8 47 18 11 8 22 16 31 26l26 32c22 27 36 57 45 91 3.6 16.9 6.6 33.9 9 51l1 17"/>
    <path fill="#A6BFBA" d="m370.2 608 6 1c5 0 10 2 14 3h4v-1l-5-3c-11-4-22-5-34-3l-21 3h-31v1l2 1 12 4c7 2 13 1 20 1l19-5 14-2m-106-29 1 1 7 3c15 5 29 6 44 2l15-4c9-3 18-3 27-1l25 4c10 1 20 1 30-1 11-3 21-7 31-12l5-3v-2l-9 3-16 4c-10 2-21 4-33 4l-29-2c-10-1-21-1-31 2l-13 4c-10 3-21 4-31 2l-20-4h-3m150-31 21-3c8-2 16-5 23-10l3-2 1-2h-2l-7 3c-10 5-20 8-31 10-11 1-21 1-31-2l-19-6c-13-3-26-4-38 0a485.2 485.2 0 0 0-44 12 74 74 0 0 1-53-11l-4-2c0 2 1 3 3 4l2 2c18 12 37 16 59 13l27-8 17-6c10-3 20-4 30-1l18 5c8 2 17 4 25 4m-36-47c12 1 22 0 32-2l19-4 19-3 22-8 5-4v-1l-1-1-7 3c-6 2-13 5-20 6-9 3-18 4-28 4l-36 5c-9 1-19 3-28 2h-14c-10 1-20-1-30-2-15-3-29-5-44-5l-23-4-19-7-5-2-2 1 1 1 6 4c10 5 21 9 32 10l22 4c11 2 22 4 34 3l17 1h25l22-1m-9-12 3-3 22-20a700.2 700.2 0 0 0 63-60l12-10 9-4c5-2 9 0 12 5l2 8-2 7c-2 2-4 4-7 4-4 0-6-2-5-5 1-2 2-4 5-4v-1c-2-1-3 0-4 1-3 2-5 6-4 9s4 4 8 5h1c6-1 11-5 12-11 2-7 0-13-5-18-3-4-8-5-13-4l-7 2-10 6a3338.9 3338.9 0 0 0-57 49c-15 13-28 27-40 42-1 2-2 2-4 2h-24l-18 1-12-1-4-1c-9-2-17-4-26-4l-14-1-15-2-3 1 4 2 24 4 15 1 11 1 21 3c8 2 17 3 25 2h14l21-3 17-2h8c14.3-1.9 28.7-3.9 43-6l4-1 1-1h-1l-2-1-9 1-19 2c-10 0-20 2-30 4-7 2-14 2-22 1m-1 25h17l35-3c20.6-1.7 40.4-8.2 58-19l17-11 3-2v-1h-1l-4 1c-9.5 3.5-19 7.5-28 12-13 5-26 8-39 10l-16 2-21 2h-80l-12-1c-14-2-27-3-40-6-14-2-28-6-41-13l-11-6-5-1h-2c-1 1 0 1 1 2l3 1 14 10 14 7c13 6 26 11 40 12 13 1.2 26 2.2 39 3l22 1 15-1h5l17 1m54-150-12 10-11 8-12 8 2 1 6-1 8-5 14-11 11-10c7-4 15-8 23-10a33.9 33.9 0 0 1 32 7l15 16c6 5 9 12 13 19l3 9c1.4 26.4-.3 52.9-5 79-2 13-7 26-12 38l-13 26c-4 10-11 18-18 26a223 223 0 0 1-68 52c-12 7-25 12-38 15-5 1-11 2-16 1h-4c-18-4-35-11-51-20a300 300 0 0 1-63-52 387.8 387.8 0 0 1-32-60c-6-15-9-30-11-45-3-29-1.5-58.3 4-87 2-12 6-24 9-35 5-18 12-34 21-50l18-31c4-8 14-12 23-10 5 1 9 3 13 6 6 4 11 9 14 15l7 14c6 15 10 31 13 47l4 30 3 29 4 34 3 2 3-3 1-6c1-10 1-20 3-29a143.6 143.6 0 0 1 21-55c3-6 8-10 14-12 7-3 14-3 20 1l7 5 7 8 6 9 4 7c4 5 9 9 17 10"/>
    <path fill="#A6BFBA" d="m507.2 375-3-3a85.3 85.3 0 0 0-27-23c-7-3-15-4-23-1l-16 6-11 3c-5 0-8-1-12-4l-5-7-7-10-9-11c-5-4-11-8-18-9l-17 1c-5 1-9 4-13 8s-8 8-10 13c-7 11-12 22-15 34l-2 7-1 2-1-7-2-24c-2-18-5-36-11-54-6.5-18.6-18.4-35-34-47-7-5-14-7-22-5h-1l1-2c6-7 13-14 21-19l8-6c12-9 26-15 40-20l22-8c5-2 10-2 15 0 13 4 26 8 38 14l12 6 27 18 4 4c9 9 18 18 24 30l17 28c8 16 16 32 21 50l10 34v2"/>
    <path fill="#FFF" d="m368.2 514-18-1h-5l-15 1a429 429 0 0 1-61-4 129 129 0 0 1-54-19l-14-10-3-1c-1-1-2-1-1-2h2l5 1 11 6c13 7 27 11 41 13 13 3 27 4 40 6l12 1h81l20-2 16-2a198 198 0 0 0 67-22l4-1h1v1l-3 2-17 11a131.4 131.4 0 0 1-58 19l-35 3h-16"/>
    <path fill="#FFF" d="M368.2 489c8 1 15 1 22-1 10-2 20-4 30-4l19-2 11 1-4 1-23 4-20 2h-8l-16 2-22 3h-14c-8 1-16 0-25-2l-21-3-11-1-15-1-24-4-4-2 3-1 15 2 14 1c9 0 17 2 26 4l4 1 12 1 18-1h24c2 0 3 0 4-2 12-15 26-29 40-42 18.8-16.5 37.8-32.9 57-49l10-6 7-2c5-1 10 0 13 4 5 5 7 11 5 18-1 6-6 10-12 11h-1c-4-1-7-2-8-5s1-7 4-9c1-1 2-2 4-1v1c-3 0-4 2-5 4-1 3 1 5 5 5 3 0 5-2 7-4l2-7-2-8c-3-5-7-7-12-5l-9 4-12 10-13 13c-16 17-33 32-50 47l-22 19-3 4"/>
    <path fill="#FFF" d="m378.2 501-23 1h-25l-17-1c-12 1-23-1-34-3l-22-4c-11-1-22-5-32-10l-6-4-1-1 2-1 5 2 19 7 23 4c15 0 29 2 44 5 10 1 20 3 30 2h14c9 1 19-1 28-2l36-5c19-.8 37.7-5.2 55-13h1v2l-5 4-22 8-19 3-19 4c-10 2-20 3-32 2m36 47c-8 0-17-2-25-4l-18-5c-10-3-20-2-30 1l-17 6-27 8c-22 3-41-1-59-13l-2-2c-2-1-3-2-3-4l4 2c10 6 21 11 33 12l20-1 24-6 20-6c12-4 25-3 38 0l19 6c10 3 20 3 31 2 11-2 21-5 31-10l7-3h2l-1 2-3 2c-7 5-15 8-23 11l-21 2m-150 31h3l20 4c10 2 21 1 31-2l13-4c10-3 21-3 31-2l29 2c12 0 23-2 33-4l16-4 9-2c0-1 0 0 0 0v1l-5 3c-10 5-20 9-31 12-10 2-20 2-30 1l-25-4c-9-2-18-2-27 1l-15 4c-15 4-29 3-44-2l-7-3-1-1m106 29-14 2-19 5c-7 0-13 1-20-1l-12-4-2-1v-1h31l21-3c12-2 23-1 34 3l5 3v1h-4c-4-1-9-3-14-3l-6-1M219.6 435.4l2.8 2.8 2.8-2.8-2.8-2.8-2.8 2.8Zm-6-19c0 .4-.2 6.8-.1 13.3-6.8.5-5.7-13.3-5.3-15 .2-1.4-4.4 1.7-6.6 3.8.7 1.3 1.7 1 2.9.5-.4 6.2 3.9 11.8 9 11.7.2 6.4.8 12.5 2.7 13 .2.1.4-6.5.6-13.7 12.2-3.8 7.6-18.3 7.6-18.3-.2-.8-2 .3-6 3.9 1.6 1.7 2.3.7 3.6.3 1 1.9 1.4 10.5-5.2 13.1l.3-18c0-.2-.2-.3-.4-.3-1.8.2-5 3.4-7.5 6.1 1.4 2.1 3.2.1 4.5-.4"/>
  </g>
</symbol></svg>
