<svg xmlns='http://www.w3.org/2000/svg' viewBox='0 0 696 830' fill='none'><symbol id='Heilongtan_Fill'>
  <g fill="none">
    <path fill="#00807D" d="m591 428.4-1 32-2 25-3 18c-1 12-2 24-5 35l-12 36a300.2 300.2 0 0 1-83 109 159 159 0 0 1-84 38l-31 5-13 2h-8c-8 0-15 0-23-2l-30-5a175.1 175.1 0 0 1-88-41l-29-29-28-37c-10-16-19-33-26-51-5-13-8-26-11-39l-4-32-2-24c-1.3-11.3-2-22.6-2-34-.4-49.6 7.4-99 23-146l17-44c5-12 11-24 18-35l30-40c15-18 33-32 53-42l30-13 23-8c13-4 26-5 39-4h19c13-1 25 0 37 4 17 5 34 11 50 19a183.3 183.3 0 0 1 60 47l28 37c7 11 14 23 19 36l17 44a302.2 302.2 0 0 1 20 91l2 48"/>
    <path fill="#FFF" d="M126 437.4a279 279 0 0 0 117 236c15 11 32 19 50 23l27 6 10 2h29c5 0 10 0 16-2l19-4a160.4 160.4 0 0 0 77-38 594.3 594.3 0 0 0 42-42c23-29 40-61 48-98 4-17 9-34 10-52a250 250 0 0 0-1-54 1121 1121 0 0 0-8-66c-3-15-7-29-12-43l-17-46a619.3 619.3 0 0 0-63-94 104.2 104.2 0 0 0-39-22l-30-9c-11-3-22-6-34-7h-10l-14-1-8 1a213.5 213.5 0 0 0-44 9l-32 10c-10 5-20 10-28 18l-20 20-26 36c-8 12-14 25-19 38l-14 36a325.6 325.6 0 0 0-25 122l-1 21m452-10-1 30-2 17-2 19c-1 11-2 22-5 33-2 13-6 26-12 38a283 283 0 0 1-78 103 154.1 154.1 0 0 1-85 38l-22 3-14 2h-8l-21-1-31-6a164.5 164.5 0 0 1-75-34 275.1 275.1 0 0 1-85-118c-5-12-8-24-9-37l-4-33-3-27v-2l-1-36 1-23c2.5-33.8 9.6-67.1 21-99l15-39a488.3 488.3 0 0 1 46-72c14-16 30-29 49-39 11-6 23-11 35-15l21-6c10-3 21-4 32-3h17c13-1 26 0 39 4s25 8 37 14c22.4 9.7 42.5 24 59 42a439.2 439.2 0 0 1 47 70l20 54a246.1 246.1 0 0 1 17 78l2 45"/>
    <path fill="#FFF" d="m344 319.4 2 5 1-1v-1l-3-3m0 19-2-3h-1c-1 2 1 4 2 5v-1l1-1m-1-14c0 3 1 4 2 5h1v-3l-2-3h-1v2m-2 21v-1c2-2 1-4-1-6l-1 1v1l2 4v1m2-17h-1v4l1 2h2c1-3 0-4-2-6m5-11-1-2-2-3h-1l1 4 2 2v1l1-1v-1m-11 36-2-4c-2 1-2 2-1 4l1 2v1l2-3m1-10h-1c-1 2-2 4 0 5l1 2 2-2-1-3-1-2m-6 17h1v-4l-1-2h-1l-1 1v1l2 4m-1 2-1-3c-1-2-2-2-3 0-2 2-1 2 0 4l1 2h1l2-2v-1m-116 69h-2l-8 3 1 1c4.4-.7 8.7-1.7 13-3h1-1l-4-1m109-69-4 5 5 1h2v-2l-2-3-1-1m184 35h-1l-1 1 4 6 1 1h2v-5c0-3 0-3-5-3m-273 30h-1l-8-2-4-1-3 3-2 2 3 1 5 1h1l8-3 1-1m184-34h-2v1l4 3 2 1 9 1h4l-2-3-1-1-3-1-11-1m-4 4h3l-2-2-2-1-4-2-9-2h-5l6 6h1l12 1m81 0h-5l-1 1 1 1 4 4 3 1 10 1v-1l-4-6-2-1h-6m-9 7h6l-3-4-1-1-4-2h-5l-6 1 4 4 2 2h7m-17-1h6v-1l-3-3c-1-2-3-2-6-2l-6-1h-5v1l4 4 4 2h6m-32-9h-3v1l2 3c2 2 4 2 6 2l10 1 5 1v-1l-5-5-3-1-12-1m-95-94 1 6c0 2 0 3 2 5l3 3c1 1 3-1 4-1l4-2 1-1-13-10-1-1h-1v1m-117 115c-2 0-2 0-2 2l-1 3 1 2 11 3c2 1 4 1 6-1l2-2v-2l-13-3-4-2m169-19h3v-1l-5-5-3-2-18-3h-1l1 1 8 8 2 1 13 1m-148 18-1-1-26-11 3 10 3 2 18 5h1l2-5m121-20h9l-1-1-8-8-4-2-20-4h-1v1l15 13 3 1h7m-162-14v1l1 1 7 11 4 5 6 3 20 9c5 2 4 2 5-3v-2l-27-15-14-9-2-1m-4-10 1 4c0 2 1 3 3 4l12 7 31 18c2 2 1 2 3 0l1-1v-2l-39-26-9-6-2-1-1 1v2m144 24h9l-1-1-15-14-4-2-28-8-5-1 4 3 28 22 3 1h8m-110 62h9l1-2v-11l1-7v-13h-1c-4 4-8 6-13 8l-5 2-2 1 1 12v9l1 1h8m249-37v-11c0-2 0-2-2-2h-9l-1 1v44c0 7-1 6 5 5l5-1c2 0 2-1 2-2l1-7-1-10-1-12 1-5m-162-25h9v-1l-3-2-28-22-6-3-19-5h-3l2 3c12 9 26 18 37 29l3 1h8m125-1v-1h6-1l-18-6c-11-2-21-6-30-12l-6-1-3 1-9 1c-9 1-18 2-27 1h-7l3 1 23 5c19 5 39 8 59 10l10 1m-233-36h-1c-4 1-7 3-9 7v1l1 1 44 29 6 4 2 1 8-3v-1l-6-4-29-23-15-11-1-1m15-2c-4-.1-8 .2-12 1v1l32 25 21 14 10-1 1-1h-1l-3-3-22-19-16-14c-3-3-6-4-10-3m259 38h3-3l-6-2-24-7-21-9h-1l-22-10-13-8c-4-2-7-5-10-9l-10-14-10-20v-1h-1v3l4 14c1 3 2 7 4 9 5 8 9 15 16 21 6 6 12 11 20 13l22 10c5 2 10 4 15 4l12 3 14 2 11 1m-191 1h11v-1l-1-1-39-31-5-2-15-3-9-1-1 1h1l4 4 43 34h11m-74 46h-1v-4c0-2 0-2-2-2l-9 2-17 2-11 1-2 1v2l1 17 1 4 1 1 2-1c11.3-3.7 23-6.1 35-7 1 0 2 0 1-1v-9l1-6m291-12v-20l-2-1h-1l-17-1h-6l-1 2 1 16v11c-1 4-2 8-1 13v5h6c7-2.6 14-5.2 21-8v-17m-143-141 1 6c1 10 3 20 7 30 4 9 9 17 17 23l12 9c5 4 11 7 17 9h1v-1l-10-14-3-5c-4-5-6-10-9-16-2-6-5-13-6-20l-2-3-17-14-7-5-1 1m-1 85 16-1 9-2v-1l-8-9c-4-4-6-7-8-12-2-4-5-8-6-13a83 83 0 0 1-6-23l-1-1-3 1-1 3 1 14-1 12v27l-1 1c-1 1-2 0-2-1l1-13-1-12v-27c0-2 0-2-2-2l-5 2c-2 1-2 1-2 3l-3 18c-2 10-7 19-13 27l-4 4 1 1c13 3 26 4 39 4m57 51-1 12v9l1 14 2 2h1c12 0 25-1 37-3 2 0 2 0 2-2v-28l-1-10v-10l-1-2h-8l-30-4h-2l-1 2v2l1 18m-77 36 48 1h23c2 0 2-1 2-2l1-9-1-16-1-18 1-9-1-4-1-1h-3l-20-1-21-2H274l-11 2-7 2-4 5c-2 3-3 6-3 10l1 25-1 10-1 3 1 1 3 1 16 1 14 1h69m-170-38v12c0 2 1 2 2 2 6-2 11-3 16-6l6-4 4-3c3-2 3-5 2-9l-2-6-5-8-6-11-4-9c-2-9 0-16 7-22 3-3 7-5 11-6 6-3 12-4 18-4 9-1 18 0 26 1l31 8 24 8 4-1c5-4 9-9 13-15l6-14c3-6 5-13 6-21l1-12v-4l1-1 2 1 15 11c2 2 3 2 5 1l2-1c1-1 2-1 2-3v-10l1-9c1-3 1-4 4-2l24 19 4 6c2 9 6 17 11 25l3 7c2 5 6 10 10 14l14 12 6 5c4 3 9 6 14 7l32 9 19 4 2-2-2-8c-4.4-17.1-9.1-34.1-14-51-5-14-12-28-19-42-8.1-13.8-16.4-27.5-25-41l-11-13-13-11a2158 2158 0 0 0-36-22c-12-6-25-10-37-14-4-1-7-2-11-1l-5 2-13 4a255 255 0 0 0-39 18c-10.8 7.9-21.4 15.9-32 24l-11 13-8 10-20 36c-8 16-15 32-20 48-4.5 17.6-8.8 35.3-13 53l-2 26m58 40c-18 0-36 3-53 9-2 0-2 1-2 3 2 13 6 26 11 39a442.4 442.4 0 0 0 31 57 228.4 228.4 0 0 0 101 69l11 3 7 1 16-2c15-4 30-10 44-18l16-10a223.2 223.2 0 0 0 58-55 270.5 270.5 0 0 0 17-33l6-16c6-14.7 9.7-30.2 11-46l1-8c0-1-1-2-2-1h-1l-19 6c-20.2 5.6-41 8.7-62 9h-43l-35-1-31-2h-9l-45-2-28-2m283-41a287 287 0 0 1-20 104l-12 25c-4 10-10 19-17 28a255.2 255.2 0 0 1-36 36c-13 9-27 17-42 23-10 5-20 8-31 10l-2 1-13 1-19-2c-14-3-28-8-42-15l-24-14c-11-7-20-16-29-25a279 279 0 0 1-26-36c-8-15-15-30-21-46a212.1 212.1 0 0 1-14-69l-1-29 1-16 4-25 9-33c10-35.4 28-68 53-95l11-13 11-12 18-14 18-11a199.5 199.5 0 0 1 48-13h4c12 1 23 4 34 8l12 5c8 3 15 7 22 12 9.3 8.4 18.3 17 27 26l13 15a245 245 0 0 1 60 127c3 13 4 26 4 40v7"/>
    <path fill="#00807D" d="M303 591.4h5c3 0 5-1 6-3l5-9 1-11c1-4-1-8-4-12l-1-1v-1h5c3 1 4 2 5 5l6 15c4 7 10 13 17 18l9 6 6 4 2 1c2-1 1-2 1-3v-3l-3-11c-5-11-11-20-19-27l-5-3v-1h1l6-1 4 2 9 9c4 4 9 8 15 10l18 6 12 6 9 5 1-1v-2l-2-6c-2-5-5-9-9-12a72 72 0 0 0-42-20h-1l2-1 23-7 2 1a54.5 54.5 0 0 0 30 22l5 1c4.8 1.3 9.5 2.9 14 5l2-2-3-5a51.8 51.8 0 0 0-20-21h5c11-1 22-3 32-7l7-4c5-1 9-3 14-3l2-1v-1l-1-1-10-3c-13-3-26-3-39 0l-23 8c-2 1-4 3-6 2l3-5c3-6 5-12 5-19v-4l1-11 1-2v-1h-1l-8 4c-3 3-6 6-7 10l-1 7c0 4-1 7-3 10l-2 4c-1 4-1 8 1 11v2l-11 3h-1l1-1 4-5c3-4 5-9 4-15 0-4-2-7-4-11-3-4-8-6-14-4l-5 3h-1v-1c1-3 2-6 1-9l-1-7h-4l-1 2-3 4c-2 5-5 8-10 10l-5 4c-7 4-13 9-18 15l-7 10-3 4c-1 2-1 2-3 2h-2l-17-3-11-3h-1l1-1h7l10-1c3 0 7 0 10-2 6-2 11-6 15-11l6-9 4-7c3-5 7-9 13-12l2-2 1-2-2-1h-2l-7-1c-7 1-12 3-17 8l-5 6c-4 5-9 8-14 11l-8 3c-8 5-15 10-19 18l-3 1a377.6 377.6 0 0 1-34-13l-6-2h-2v1l2 1c5 4 10 6 16 9l10 4 2 2c0 5 3 9 6 12l5 4 5 8 2 6c1 7 5 12 10 16 6 4.5 11.7 9.6 17 15 1 1 2 0 2-1v-7h3m-64-129 28 2 45 2h9l31 2 35 1 42-1c21.3 0 42.4-2.5 63-8l19-6h1c1-1 2 0 2 1l-1 8c-2 15.7-5.7 31-11 46l-6 15-1 4a286.5 286.5 0 0 1-28 45 222 222 0 0 1-106 68l-16 2-7-1-11-3-22-8a282.7 282.7 0 0 1-79-61 442.4 442.4 0 0 1-31-57c-5-13-9-26-11-39 0-2 0-3 2-3 16.9-6.3 34.9-9.4 53-9m21-202h-5l-1 1v1l3 3 6 3c6 2 13 2 19 1l12-3h1v1l-12 11-2-1c-8-3-15-4-23-1l-9 3h-1l-1 1 1 1c5.9 4 12.9 6 20 6v1l-4 2c-5 3-9 8-13 13l-2 3a34.3 34.3 0 0 1-8 9l1 1 3-1 11-4c7-3 13-8 18-14l5-7 2-3h1c0 6 2 12 5 17l3 6v2h2c3-4 4-9 2-14l-1-2-2-7v-2c0-2-1-5-4-7v-1l4-4v3c-1 7 3 12 9 15 3 1 6 0 8-2l2-3h1l1 3 4 5 2-1 1-3c-1-5 1-9 3-13 5-8 6-17 6-26 0-2 0-2 2-3l16-6h1l-1 2-8 4c-5 4-8 9-8 16l-1 6v5c0 4 0 8-2 12l-1 2v1h1c6-2 11-6 12-13l1-6 4-9 3-5c3-3 4-7 5-12v-4l1-1 2-1c6-1 12-3 19-3l6-2v-1l-8 1-10 1-3-1-8-4c-5-1-6 0-11-6l-12-6-12-2h-2l-1 1 2 3v2l-3 1c-2 2-3 3-3 6l1 6c2 5 4 9 9 11v1h-1c-2 2-4 2-6 0l-10-7c-3-2-7-3-11-3l-11-1h-2l-2 1v1l3 4c6 5 14 9 22 11l4 1h1c-1 2-4 3-6 3l-9-2h-9l-11 2-11 1m-79 162c.6-27 5.7-53.7 15-79 5-17 12-32 20-48l20-36 8-10 11-13 11-10a1647 1647 0 0 1 36-22l24-10 13-4 5-2c4-1 7 0 11 1 12 4 25 8 37 14l19 10 17 12 13 11 11 13 8 12 17 29c11 19.8 19.5 41 25 63l8 30 2 8-2 2-20-4-31-9c-5-1-10-4-14-7l-6-5-14-12c-4-4-8-9-10-14l-4-7c-4-8-8-16-10-25l-4-6-24-19c-3-3-3-1-4 2l-1 9v10c0 2-1 2-2 3l-2 1c-2 1-3 1-5-1l-15-11-2-1-1 1v4l-1 12c-1 8-3 15-6 21l-7 13c-3 6-7 11-12 16l-4 1-25-8c-18.2-5.2-37-8.3-56-9l-18 3-11 7c-7 6-9 13-7 22l4 9 6 11 5 8 2 6c1 4 1 7-2 9l-4 3-6 4-16 6c-1 0-2 0-2-2v-12"/>
    <path fill="#00807D" d="M396 412.4v1c-5 3-8 7-10 12v1h1l1-1c3.6-3.6 6.6-7.6 9-12l-1-1m-99-2-2 1c-6 4-10 10-13 16l-1 1h1l3-2 10-12 2-3v-1m5 25 1-1 4-3 20-21 1-2v-1h-1c-9 7-16 15-23 23l-2 4v1m108-15h-1l-3 2c-6 6-12 14-17 22-1 1-2 3-1 5l4-3 12-16 6-9v-1m-52-10h-1l-2 1-5 6c-8 8-14 17-20 27l-2 6v1h1l6-6 12-16 8-12 3-5v-1m-7 49h-69l-14-1-16-2h-3l-1-1 1-3 1-10-1-25c0-4 2-7 3-10l4-5 7-2 11-2h103l21 1 20 1 3 1 1 1 1 4-1 9 1 18c.9 8.3.9 16.7 0 25 0 1 0 2-2 2h-23l-47-1m76-36-1-18v-2l1-2h2l30 3 8 1 1 2v10l1 10v27c0 3 0 3-2 3a220.5 220.5 0 0 1-38 3l-2-2-1-15v-8l1-12m-57-51c-13 0-26-1-39-4l-1-1 4-5c6-7 11-16 13-26l3-18c0-2 0-2 2-3l5-2c2 0 2 0 2 2v27l1 12-1 13 2 1 1-1v-27l1-13-1-14 1-2 3-1 1 1c0 8 3 15 6 23l6 13c2 5 4 8 8 11l8 9v2l-9 2-16 1m1-85 1-1 7 5 17 14 2 3 6 20c3 6 5 11 9 16l3 5 10 14v1h-1c-6-2-12-5-17-9l-12-9c-8-6-13-14-17-23-4-10-6-20-7-30l-1-6m144 141-1 17c0 2 0 2-2 3l-19 5h-6v-5c-1-5 0-9 1-13v-11l-1-16 1-2h6l20 2v20m-292 18v9c1 1 0 1-1 1a144 144 0 0 0-35 7l-2 1-1-1-1-4 1-20h1l10-1 17-2 9-2c2 0 2 0 2 2v10m75-52h-11c-1 1-2 0-3-1l-40-33-4-4h-1l1-1 9 1 15 3 5 2 39 31 1 1v1h-11"/>
    <path fill="#00807D" d="m488 394.4-11-1-14-2-12-3-15-4-22-10c-8-3-14-7-20-13s-11-13-16-21c-2-2-3-6-3-9l-5-14v-3h1v1l10 20 10 14c3 4 6 7 10 9l13 8 22 9 1 1 21 9 24 7 6 2c1 0 1 0 0 0m-259-38c2 0 7 0 10 3l16 14 22 19 3 3h1l-1 1-10 1-3-1-18-13-32-25v-1c4-1 10-2 12-1m-15 2 1 1 15 11 29 23 6 4v1l-8 3-2-1-6-4-43-29-2-1v-1c2-4 5-6 9-7h1m233 35h-10c-20-2-40-5-59-10l-23-5-3-1h7a122 122 0 0 0 39-3l6 1c9 6 19 10 30 12l18 6h1-6m-125 2h-8l-3-1c-11-11-25-20-37-30l1-2 19 4 6 4 28 22 3 2v1h-9m162 25-1 5 1 11 1 11-1 7-2 2-5 1c-6 1-5 2-5-5v-44l1-1h9c2 0 2 0 2 2v11m-249 37h-8l-1-1v-9l-1-12 2-1 5-2c5-2 10-4 13-8h1v13l-1 7v11l-1 2h-9m102-62-3-1-28-22c-1-1-1-2 1-2l28 8 4 2 16 14-1 1h-17m-135-26 1-1 2 1 9 6c13.3 9 26.3 18.3 39 28l-1 1c-1 2-1 2-3 0l-31-18-12-7c-2-1-3-3-3-5l-1-5m4 12 2 1 14 8 27 16v2c-1 5 0 5-5 3l-20-9-6-3-4-5-7-11-1-2m155 14-3-1-15-13 1-1 20 4 4 2 8 7-1 2h-14m-114 20s0 3-2 5h-1l-18-5-3-2c0-4-2-7-3-10l1-1 5 3 20 9 1 1m135-19-2-1-8-8v-1l18 3 3 2 5 5v1h-3l-13-1m-156 20 4 2 13 3v2l-2 2c-2 2-4 2-6 1l-11-3-1-2 3-5m117-115 1-1 1 1 13 10-1 1-4 2c-1 0-3 2-4 1l-3-3c-2-2-2-3-2-6l-1-5m107 95 3 1 5 5v1l-5-1-10-1c-2 0-4 0-6-2l-2-3v-1h3l12 1m14 8-4-2-4-4v-1h5l6 1c3 0 5 0 6 2l3 3-1 1h-11m23 1h-7l-2-2c-1-1-5-4-4-5h11c2 0 3 0 4 2l1 1c1 1 4 3 3 4h-6m10-7h5l2 1 4 6v1l-10-1-3-1-4-5v-1h6Zm-82 0-12-1h-1l-6-6h5l9 2c2 0 3 0 5 2l1 1-1 2m4-4 11 1 3 1 1 1c1 1 0 3-2 3l-9-1-2-1-4-3v-1h2m-185 35-8 3h-1l-8-2c0-1 4-5 9-4 5 0 5 1 8 2v1m274-31c5 0 5 0 5 3v5h-2l-1-1-4-6 1-1h1m-184-35 1 1 2 3v1l-2 1-5-1v-1l4-4m-109 69 4 1-14 2 8-3h2m116-69v1l-2 2h-1l-1-2c-1-2-2-2 0-4 1-2 2-2 3 0l1 3m1-2-2-4v-1l1-2 1 1 1 2v4h-1m6-17 1 2 1 3-2 2-1-2c-2-1 0-4 0-5h1m-1 10-2 3v-1l-1-2c-1-2-1-3 1-4l2 4m11-36v1l-1 1v-1l-2-2-1-4v-1l1 1 2 3 1 2m-5 11s3 3 2 6h-2l-1-2v-4h1m-2 16-2-4v-1l1-1c2 2 3 4 1 6 0 0 0 1 0 0m2-21 1-1 2 3v3h-1s-2-2-2-5m0 15v1l-2-5h1l1 4m1-20 3 3v1l-1 1-2-5"/>
    <path fill="#FFF" d="M285 560.4h1l1-4 4-6v-1l-20-6h-1v1l6 5 9 10v1m53-13h8v-1c-4-3-5-6-5-11h-1l-6 3a94.6 94.6 0 0 1-16 7v1h2l18 1m64-49v-1l1-2-3 1-1 2c-3 2-4 5-4 9l1 3c0 5-1 9-5 12l-2 2-2 5c-2 2-1 5 1 8h1l1-1c5-6 9-12 10-19v-9l2-10m-74 59-1 1 7 13c2 4 5 7 9 9l6 3c5 3 10 7 14 13l1 1v1-1c-1-5-3-9-6-13-7-9-15-17-24-23l-5-3-1-1m67-14h-5l1 1c6 7 13 12 22 15l7 2 11 4c1 1 2 2 3 1l-2-2-7-9c-6-6-13-9-20-11l-10-1m-98 47v-2l-1-2c-6-15-14-28-26-38-2-3-6-5-9-7l-4-3h-1v3l5 7 4 3 7 10 2 3c2 5 5 8 9 12l3 2c4.4 3.6 8 8 11 13v1-2m60-35v2l4 6c3 5 7 8 13 9 4 1 8 2 12 1h5c5 0 9 2 12 6l3 4 5 4-3-6-2-3-13-10c-11-7-23-11-36-13m92-30-21 3c-8 1-15 4-22 7l-9 4h-1 5l19-1c10-1 21-3 31-6 4.9-1.8 9.9-3.2 15-4l1-1h-1l-17-2m-92-25v-2h-1l-1 4c-1 6-5 11-11 13l-4 2-5 1c-5 2-10 6-14 10a105 105 0 0 0-10 14v1h1l7-2 16-7c5-3 9-6 12-11l8-12 2-11m-20-7v-1l-3 1c-9 0-16 4-20 12l-2 5c-2 3-5 5-9 6l-6 1-8 3a54.5 54.5 0 0 0-16 13v1l16-3c8-1 15-4 21-10l4-4 6-8a66.4 66.4 0 0 1 17-16c1 0 0 0 0 0m-19 81-1-5-4-10-1-2c-2-3-4-5-7-5l-6-1h-2l-2 2-5 5-2 3c0 2 0 4 2 6l8 19 1 1 1 2 6-1 6-3c3-2 5-4 5-7l1-4m62-50-1-5c-1-3-2-4-5-5l-8-3h-3c-3 1-6 2-8 5l-7 12c-2 2-2 5-2 8l2 5c1 3 3 4 5 5l4 1 6-1 3-1 10-10c2-3 4-7 4-11m-77 67h-3v7c0 1-1 2-2 1l-2-1-15-14c-5-4-9-9-10-16l-2-6-5-8-5-4c-3-3-6-7-6-12l-2-2-10-4a102 102 0 0 1-18-10v-1h2l6 2c11 5.2 22.4 9.5 34 13l3-1c4-8 11-13 19-18l8-3c5-3 10-6 14-11l5-6c5-5 11-7 17-8 3 .2 6 .6 9 1l2 1-1 2-2 2c-6 3-10 7-13 12l-4 7-6 9a31.8 31.8 0 0 1-25 13l-10 1h-7v1l11 3 17 3h2c2 0 2 0 3-2l3-4 7-10c5-6 11-11 18-15l5-4c5-2 8-5 11-10l2-4 1-2h4l1 7c1 3 0 6-1 9v1h1l5-3c6-2 11 0 14 4 2 4 4 7 4 11 1 6-1 11-4 15l-4 5-1 1h1l11-5c-2-3-2-7-1-11l2-4c2-3 3-6 3-10l1-7c1-4 4-7 7-10l8-4h1v1l-1 2-1 11v4c0 7-2 13-5 19l-3 5c2 1 4-1 6-2l23-8a83.7 83.7 0 0 1 49 3l1 1v1l-2 1c-5 0-9 2-14 3l-7 4c-10 4-21 6-32 7h-5l1 1a52 52 0 0 1 22 25l-2 2-1-1-13-4-5-1c-7-2-13-5-18-9l-12-13-2-1-23 7-2 1h1l4 1c15 2 27 9 38 19 4 3 7 7 9 11l2 7v2l-1 1-3-1-6-4-12-6-18-6c-6-2-11-6-15-10l-9-9-4-2-6 1h-1v1l5 3a65.2 65.2 0 0 1 22 41c0 1 1 2-1 3l-2-1-6-4-9-6c-7-5-13-11-17-18l-6-15c-1-3-2-4-5-5h-5v1l1 1c3 4 5 8 4 12l-1 11-5 8c-1 3-3 4-6 4h-5m44-351v-1l-12-3h-1v7h1l12-3m-27 15h-1c-5 2.3-9.5 5-14 8h1l5 4h1l8-11v-1m-31 33c0-3-1-5-3-6l-1 1v1c-1 6-1 11 3 17l3 6 1 2v-1c1-3 1-5-1-7l-1-2c-2-3-2-5-1-8v-3m20-37h2v-1l-4-3c-4-2-7-4-12-3h-4l-9-2-3-1 2 3 4 2c8 3 15 5 24 5m-43 34c6 0 11-2 16-5v-1c-7-2-13-2-19 0l-9 1-2 1 2 2 12 2m88-47 3-1-3-2-4-1-11-4-9-4-11-3h-1l1 1c7 6 16 10 25 13l10 1m-80 28a54 54 0 0 0 21-4l1-1h-1l-4-2c-2-1-4-2-7-1l-8 2-3 3c-3 2-7 2-10 1l-3-1-4-1c1 2 2 2 4 2l4 2h10m-27 47h1a87.4 87.4 0 0 0 29-24l3-5c-2 0-3 2-4 3-6.6 4.4-13 9-19 14l-10 11v1m79-55v-4h-1l-8 9c-3 4-4 9-5 14l1 10 2 5v-2c-1-4 0-8 2-11l2-3c4-4 6-8 6-13l1-5m24-12h-1l-8 7c-4 3-6 7-7 11l-1 5c-1 6-2 13-5 19l1 1c5-3 8-7 7-13v-3c0-4 1-6 4-8l3-3c4-5 6-10 7-16m-25 1 4-2 2-2 1-4c1-3 0-5-2-6l-12-8h-2l-2 2-3 4v5l2 4 7 5 5 2m-32 33c0 3 1 6 3 8 1 2 3 2 5 2l4-1c4-1 5-3 5-7l1-8-2-5-3-2c-2-2-4-2-7 0l-2 2-2 1-2 10m-33-20 11-1 11-3 9 1 9 2 6-3h-1l-4-1c-9-2-16-6-22-11l-3-4v-1l2-1h2l11 1c4 0 8 1 11 3l10 7c2 1 4 2 6 0h1v-1c-5-2-8-6-9-11l-1-6c0-3 1-4 3-6l3-1v-2l-2-3 1-1h2l12 2 12 6c5 6 6 5 11 6 3 0 5 2 8 4l3 1 10-2h8v1l-6 2c-7 0-13 2-19 3l-2 1-1 1v4c-1 5-2 9-5 12l-3 5-4 9-1 6c-1 7-6 11-12 13h-1v-1l1-2c2-4 2-8 2-12v-5l1-6c0-7 3-12 8-16l8-4 1-2h-1l-18 9c0 9-1 18-6 26-2 4-4 8-3 13l-1 3-2 1-4-5-1-3h-1l-2 2c-2 3-5 4-8 3-6-3-10-8-9-15v-3h-1l-3 5c3 2 4 4 4 7v2l2 7 1 2c2 5 1 10-2 14h-2v-2l-3-6c-3-5-5-11-5-17h-1l-2 3-5 7a55.8 55.8 0 0 1-29 18l-3 1-1-1 1-1 7-8 2-3c4-5 8-10 14-13l3-2v-1h-2c-6 0-12-3-18-6l-1-1 1-1h1l9-3c8-3 15-2 23 1l2 1 2-1 10-10v-1h-1l-12 3c-6 1-13 1-19-1l-6-3-3-3v-1l1-1h5m98 151v1l-3 5-8 12-12 16-6 6h-1v-1l2-6c6-10 12-19 20-27l5-6 2-1 1 1m52 9v1l-6 9-12 16-4 3c-1-2 0-4 1-5 5-8 11-16 17-22l3-2h1m-108 15v-1c0-1 0 0 0 0l2-4c6.8-8.8 14.9-16.6 24-23v1l-2 2-19 21-4 3-1 1m-5-25v1l-2 3-10 12-3 3-1-1 1-1c3-6 7-12 13-16l2-1m99 2 1 1-1 1-8 11-2 1v-1c2-5 5-9 9-12l1-1"/>
    <path fill="#00807D" d="M380 524.4c0 4-2 8-4 11l-10 10-3 1-7 1-3-1c-2-1-4-2-5-5l-2-5c0-3 0-6 2-8l7-12c2-3 5-4 8-5h3l8 3c3 1 4 3 5 5l1 5m-63 50v4c0 3-2 5-5 7l-6 3-6 1-1-2-1-1c-2-7-5-13-9-19l-1-6 2-3 5-5 2-2h2l6 1c3 0 5 2 7 5l1 2 3 10 1 5m20-81c-7 4-12 10-17 16l-7 8-3 4c-6 6-13 9-21 10l-16 3v-1c5-6 10-10 16-13l8-3 6-1c4-1 6-3 9-6l2-5c4-8 11-12 20-12l3-1v1m20 7-2 11-8 12c-3 5-7 8-12 11l-16 7-7 2h-1v-1l1-1 9-13c4-4 8-7 14-10l5-1 4-2c6-2 10-7 11-13l1-4h1v2m92 25 17 2h1l-1 1h-1l-14 4c-10 3-21 5-31 6l-19 1h-5 1c10.2-4 20.6-7.6 31-11l21-3m-92 30c13 2 25 6 36 13l13 10 2 3 3 6-5-4-3-4c-3-4-7-6-12-6h-5c-4 1-8 0-12-1-6-1-10-4-13-9l-4-6v-2m-60 35v2-1l-1-1-10-12-3-2c-4-4-7-7-9-12l-2-3-7-10-4-3a21.1 21.1 0 0 1-5-9l1-1 4 3c3 2 7 4 9 7a97 97 0 0 1 27 40v2m98-47 10 1c7 2 14 5 20 11l7 9 2 2h-3l-11-5-7-2c-9-3-16-8-22-15l-1-1h5m-67 14 1 1 5 3c9 6 17 14 24 23 3 4 5 8 6 13v1-1l-1-1c-4-6-9-10-14-13l-6-3c-4-2-7-5-9-9l-7-13 1-1m74-59-2 10v9a40 40 0 0 1-11 20h-1c-2-3-3-5-1-8l2-5 2-2c4-3 5-7 5-11l-1-4c0-4 1-6 4-9l1-2 3-1-1 2v1m-64 49-18-1h-2v-1l3-1c4-2 9-3 13-6l6-3h1c0 5 1 8 5 11v1h-8m-53 13v-1l-9-10-6-5v-1h1l20 7-4 6-1 4h-1m8-279 2-11 2-1 2-2c3-2 5-2 7 0l3 2 2 5-1 8c0 4-1 6-5 7l-4 1c-2 0-4 0-5-2-2-2-3-5-3-7m32-34-5-2-7-5-2-4v-5l3-4 2-2h2l12 8c2 2 3 3 2 6l-1 4-2 2-4 2m25-1a29.2 29.2 0 0 1-10 19c-3 2-4 4-4 8v3c1 6-2 10-7 13l-1-1c3-6 4-13 5-19l1-5c1-4 3-8 7-11l8-7h1m-25 17c0 5-2 9-6 13l-2 3c-2 3-3 7-2 11v2l-2-5-1-10c1-5 2-10 5-14l8-9h1v4l-1 5m-78 50v-1l10-11 8-7 11-7c1-1 2 0 1 1l-13 14c-5 5-10 8-16 11h-1m27-46-10-1-4-2c-2 0-4-1-3-2l3 1 3 1c3 1 7 1 10-1l3-3 8-2c3-1 5 0 7 1l4 2v1l-3 1c-6 2-12 4-18 4m80-29-10-1c-9-3-18-7-25-13l-1-1h1l11 3 9 4 11 4 4 1 3 2-3 1m-88 47-12-2-2-2h2l9-2c6-2 12-2 19 0v1c-5 3-10 5-16 5m43-34c-9 0-16-2-24-5l-4-2c-1-1-2-1-2-3l3 1 9 2h4c5 0 8 1 12 3l4 3v1h-2m-20 37v3c-1 3-1 5 1 8l1 2c2 2 2 4 1 7v1l-1-2-3-6c-4-6-4-11-3-17v-1l1-1c2 1 3 3 3 6m31-33v1l-8 11h-1l-5-4h-1l1-1 13-7h1m27-15-12 3h-1v-7h1l12 3v1"/>
    <path fill="#FFF" d="M453.2 321.5c0 .4-.3 6.8-.2 13.3-6.8.5-5.7-13.3-5.3-15 .2-1.4-4.4 1.7-6.6 3.8.7 1.3 1.7 1 2.9.5-.5 6.2 3.9 11.8 9 11.7.2 6.4.9 12.5 2.7 13 .2 0 .5-6.4.6-13.7 12.2-3.8 7.5-18.3 7.5-18.3-.2-.8-2 .3-6 3.9 1.6 1.7 2.3.7 3.6.3 1 1.9 1.4 10.5-5.1 13l.3-18-.4-.2c-1.8.2-5 3.4-7.5 6 1.4 2.3 3 .3 4.5-.3"/>
    <path fill="#FFF" d="m459 340.6 2.8 2.8 2.8-2.8-2.8-2.8z"/>
  </g>
</symbol></svg>
