<svg xmlns='http://www.w3.org/2000/svg' viewBox='0 0 696 830' fill='none'><symbol id='LAKJ_Fill'>
  <g fill="none">
    <path fill="#00807D" d="m591.4 428.3-1 35-4 32-3 26c-3 19-8 37-16 54-15 31-33 60-58 84l-21 21c-21 19-45 31-71 38l-33 6-18 2c-8 1-16 2-25 1-20-1-41-5-60-9-28-7-53-20-74-40a297 297 0 0 1-83-119c-5-13-8-26-10-40l-5-41a406.8 406.8 0 0 1 24-201l10-27c6-16 14-31 24-45l28-37c14-16 30-29 49-40l33-14 23-7c13-5 26-6 40-5h17c14-1 28 0 41 5l45 16c23 11.3 43.5 27.3 60 47 11 12 21 25 30 39 7 11 13 23 18 35l21 55c7 19 11 39 14 59 3 21 5 43 5 70"/>
    <path fill="#FFF" d="m572.4 440.3-1-15c-2.5-24.7-5.1-49.4-8-74-3-16-8-31-13-46l-19-51-13-26c-11-17-22-33-35-48-14-17-31-30-52-37l-28-9c-21.2-5.6-43.1-8-65-7-12 1-24 2-36 5l-38 12c-11 4-21 10-30 17l-22 22-28 40c-7 10-13 21-17 33l-17 42-5 17c-7 20-12 41-14 62l-3 24a574.3 574.3 0 0 0 1 85l7 34c10 40 29 75 55 105 12 13 25 26 38 37 17 15 36 26 58 32l42 9c8 2 17 2 25 1l18-1 26-6c27-5 51-18 72-36l26-24c13-13 24-27 34-43 12-18 22-38 28-60l8-32c4-20 7-41 6-62m-451-13 2-52c4-31 11-60 23-89l12-33c13-25 28.5-48.8 46-71a158.7 158.7 0 0 1 76-50c9-3 19-7 29-9s20-3 30-2h19c13-1 26 0 38 4l42 15c23 11 43.2 27.1 59 47 15.9 20.7 30 42.8 42 66l20 51c7 19 11 39 14 59 3.4 30.2 4.4 60.6 3 91l-2 20-2 23c-3 34-13 65-31 94-12 21-26 40-44 57l-15 15c-20 19-44 31-70 37l-30 6a240.6 240.6 0 0 1-36 3c-11 0-22-2-33-4-9-1-18-2-26-5-27-6-50-18-70-36-13-13-26-25-37-39-17-22-31-45-41-71-6-13-9-27-11-41l-5-41c-2-17-2-33-2-45"/>
    <path fill="#FFF" d="M326.4 428.3v-4l-1-6-6-2h-1l-1 1v1l1 22 1 26c1 7 0 6 7 6 2-1 2-1 2-3v-13l-1-12c-2-5-2-11-1-16m-103 31v7c0 7-1 5 6 6 1 0 2 0 2-2l1-26 1-19v-8l-1-1-4 1c-3 0-3 1-3 3v13l-1 9-1 17m26-43v-5c0-2-1-2-2-2l-10 5c-1 1-2 1-2 3v7l-1 21-1 19v6c0 2 0 2 2 2l9 1c2 0 3 0 3-3v-7l1-21 1-26m55 45v10l2 2 12-2v-2l-1-19-1-26v-8l-2-2-11-5c-1-1-1 0-1 1v10l1 13 1 28m-17-22v33c0 2 0 2 2 2l8-1c5 0 5 1 5-4v-1l-2-32v-27l-1-3-12-8h-1v1l1 9v31m-24 1 1-37v-5h-1l-11 8-1 3-1 18-1 42v3l1 1h13v-33m2 5v26c0 3 0 3 2 3h17l2-2-1-2v-52l-1-20-1-4-7-8h-2l-7 8-1 3v22l-1 26m83 198 10-2c18-3 34-10 49-20l3-1v-3c-2-3-1-6 1-8v-2h-4l-10 4-12 5-12 7-14 4c-3 0-7 0-10-2s-4-6-2-10l1-1 2-3h-4l-3 1-12 6-21 12-1 1v1l3 2a171 171 0 0 0 36 9m-17-177v5h9c2-1 2-1 2-4-3.7-17.4-5-35.2-4-53v-6l-1-2-3-1-10-2c-20-5-36-16-48-32-1-1-1-2-2 0-4 7-10 12-16 17-11 9-23 14-37 16l-7 1c-2 1-2 1-2 3 .9 12.7.9 25.3 0 38l-3 19v3l1 2 9 1 1-1v-25c-1-5-1-10 1-15l2-11c0-2 1-3 3-4h1c17-6 32-16 45-29l2-3h2l4 4c12 13 27 22 44 28l4 4 2 12 1 12-1 12 1 11m183-25v-8l-1 2-5 9a100 100 0 0 1-109 50c-8-2-16-4-24-4h-17l-22 8-16 9c-14 8-30 13-46 17-28.3 7-58.3.4-81-18l-1 1 1 2 15 33c1 1 1 2 3 2l7 1c12 0 24-1 35-5l24-6c5-2 11-3 17-3l2 1-1 2-3 3-2 6c-1 3 1 5 4 5l5-1c4 0 8-2 11-4l12-9 12-9a79.5 79.5 0 0 1 35-12h1v2l-3 2-4 7c-1 3 0 5 3 7l4 1c6 0 11-2 16-4l15-8 12-7 13-5c3-1 6-2 10-1h2v2l-2 2-2 3c-1 3 0 6 4 7h4c4 0 7-2 10-4l8-8 11-10c8-5 16-9 25-11 3 0 3 1 3 3l-1 2c-1 4 0 8 4 10 2 1 2 0 3-1l3-12c4-16 6-32 6-49m-265 40-27-3-12-3c-3-1-4-3-3-6v-10c.2-10.7.2-21.3 0-32h-22c-4 1-4 1-4 5v2l2 34 4 20 2 3c10 8 20 15 32 20 15 6 31 9 48 8 12-1 24-4 35-9a422.5 422.5 0 0 1 40-21c15-7 30-9 46-7l25 3c10 1 19 0 28-1a98 98 0 0 0 68-55c4-10 4-8 3-19l-1-3h-1l-9 3-35 10-43 7-24 2h-36l-18-2c-6 0-5-1-5 4l2 38c0 2 0 4-3 5l-6 3-24 4c-12.4.4-24.8-.2-37-2l-25 2m94-191h8c6 1 13 1 19-1l16-6 17-4c7-1 13 0 19 3l10 7 9 10 2 2h2l1-1c8-7 16-11 26-14h1l1-1-1-2-9-15a149.1 149.1 0 0 0-36-43 1647 1647 0 0 0-36-22c-12-6-24-10-37-14-5-2-10-2-15 0l-21 7c-12 5-23 9-33 16-9.1 6.5-18.1 13.2-27 20-9 9-18 19-25 30l-14 26a320.8 320.8 0 0 0-15 32l3-1 14-2c9 0 17 1 25 4l17 5c4 2 3 2 8-1l9-7 17-13c6-3 11-7 18-9 8-4 17-6 27-6m31 134h17c32.4-2.9 64.4-8.3 96-16l23-7c3-2 3-2 3-5l-3-14-7-28c-6-21-14-41-24-60-1-2-1-2-4-2l-2 1c-8 2-15 5-21 10-5 3-5 2-1 7 8 9 18 17 29 24l8 5 1 1h-2l-5-1-20-9c-7-4-14-9-20-15l-10-11-8-8-7-7c-4-3-8-5-13-5l-11 1-11 6-10 6c-7 4-15 5-23 4l-15-1c-9 1-16 3-24 7l-16 9-18 11-1 1v2l3 1c11 4 22 7 34 7l9 1h1l-1 1h-3l-7 1-25-2c-9-1-17-4-25-6l-23-7c-10-3-20-3-31-1-7 1-5 1-7 6l-12 39-5 28-2 22c0 2 1 2 2 2 8-1 16-1 24 1 1 0 2 0 2-2v-1l-1-12c0-2 0-2-3-2h-6l-1-1 1-1 6-3 21-8c11-4 20-9 29-16l16-15c4-4 5-4 8 0l9 8c13 12 27 21 44 27l14 4 5 3c1 0 2 0 1 1l-1 1h-6c-2 0-2 0-2 2l-1 10c0 3 0 4 3 4l7 1 22 1m-74 149h-1c-7 2-14 4-20 8a630 630 0 0 0-26 13l-1 1v1l3 2c13 11 27 20 42 28 6 4 4 3 10 0l20-10c7-3.8 15-6.2 23-7 2 0 2 1 2 2l-3 5c-1 2 0 3 3 4h3l8-2 14-5a92 92 0 0 1 37-7l1 2-2 1-1 3c0 1 0 3 2 4a225 225 0 0 0 55-45l2-3v-1h-1c-3 0-6 0-9-2-2 0-4-2-5-4-1-3 0-5 2-7v-1h-1l-15 3c-9 2-17 6-24 11-8.5 4.3-17.2 8.3-26 12h-13c-6-2-9-8-5-15l1-2h-3l-3 1-22 11-14 9-12 6-11 2c-3 0-5 0-8-2-4-3-5-7-3-11l2-4 2-2 1 2-2 4c0 3 1 5 4 6l8 1c5-1 11-3 16-6l15-7c10.5-4.5 21-8.5 32-12l1 2-2 5c-1 4 1 6 5 7h5c5-1 9-2 14-5l13-7 18-7a109 109 0 0 1 30-4l2 1-1 1-2 2c-2 3-1 4 1 6l3 1h10c2 0 3-1 3-2l2-3c6-9 11-19 15-29l8-18v-3l-2-2c-4-2-6-7-5-11l1-3-3 1c-5 2-11 5-15 9l-12 9-9 9-10 5h-11c-4-2-5-6-3-11l2-3-1-1-10 4-16 9-13 7c-4 3-8 5-13 6l-11 1-7-2c-3-2-4-4-4-8l2-6 4-4 1-2h-2l-1 1c-10 2-18 7-26 13l-15 11-12 10-9 4h-9c-6-1-9-6-6-12 0-2 1-3 3-5l1-1 1-2h-1l-17 4-18 6c-13 5-27 7-41 6l-1-1c-2 0-2 1-2 2l2 3 11 16 19 20c2 2 3 2 6 2l7-2 15-7 15-6c4-2 8-3 13-3m222-155a294 294 0 0 1-21 106l-12 27-14 23a266.2 266.2 0 0 1-35 37c-16 11-33 21-51 28-11 5-22 7-34 9-6 1-13 0-20-1-18-3-34-9-50-18l-22-13c-11-7-20-15-28-24l-12-14c-7-9-13-19-18-30l-16-36a305.5 305.5 0 0 1-11-136l10-42c9-28 23-54 42-77l25-29a161.8 161.8 0 0 1 37-30 168.4 168.4 0 0 1 55-17l8 1c9 1 17 3 26 6a462 462 0 0 1 35 18c12 9 23 19 32 30l19 23c18 22 31 47 40 74l9 34 4 22 1 10 1 19"/>
    <path fill="#00807D" d="m374.4 424.3-22-1-7-1c-3 0-3-1-3-4l3-12h6l2-1-2-1-5-3-14-4c-16-6-31-15-44-27l-9-8c-3-4-4-4-7 0l-17 15c-9 7-18 12-29 16l-21 8-6 3v2h7c2 0 2 0 2 2l1 12v1c0 2-1 2-2 2-8-2-16-2-24-1-1 0-2 0-2-2l2-22 5-28 12-39c2-5 0-5 7-6 11-2 21-2 31 1l23 7c8 2 16 5 25 6l25 2 7-1h3v-1l-9-1c-12 0-23-3-34-7l-3-1v-2l1-1 18-11c5-3 11-7 17-9 11.8-5.7 25-7.8 38-6 8 1 16 0 23-4l10-6 11-6 12-1c4 0 8 2 12 5l8 7 7 8 10 11c6 6 13 11 20 15l20 9 5 1s3 1 1-1l-8-5c-11-7-20-15-29-25-4-4-4-3 1-6 6-5 13-8 21-10l2-1c3 0 3 0 4 2 10 19 18 39 24 60l7 28 3 14c0 3 0 3-3 5l-22 7c-15 5-30 8-45 10l-29 4-23 2h-17"/>
    <path fill="#00807D" d="M343.4 290.3c-10 0-19 2-27 6-7 2-12 6-18 9l-17 13-9 7c-5 3-4 3-8 1l-17-5a65 65 0 0 0-42-1v-1l1-3 14-28 14-26a144.7 144.7 0 0 1 32-36l20-14c10-7 21-11 33-16l21-7c5-2 10-2 15 0 13 4 25 8 37 14l19 10 31 24c9 9 16 20 22 31l9 14 1 3-1 1h-1c-10 3-18 7-26 14l-1 1h-2l-2-2-9-10-10-7c-6-3-12-4-19-3l-17 4-16 6c-6 2-13 2-19 1h-8m-143 173 2-1-2-1h-9l-3 1 1 1h11m5 18-6 1v1l2 1 11 1 4-1v-2l-11-1m47 25 10-1v-2l-5-1-13 1-2 1 2 1 8 1m139-37 3-1-4-2a44.2 44.2 0 0 0-17 0s-2 1 0 1l1 1 17 1m-13-14h14v-1l-3-1c-10-2-19-3-29-2-4 1-2 2-2 2l5 1 15 1m-130 37-14 1-1 1 1 1h4c7 2 15 2 23 3l11-1h3v-1l-5-2-22-2m1-11c9.4 0 18.7-.7 28-2 11 2 22 2 34 2a97.2 97.2 0 0 0 30-7c3-1 3-3 3-5l-2-38c0-5 0-4 5-4l18 2h36l24-2 43-7 35-10 9-4 2 1v3c1 11 1 9-3 19-7 16-18 29-33 39a98 98 0 0 1-63 17l-25-3c-16-2-31 0-46 7l-17 9c-7 5-15 9-23 12a98.8 98.8 0 0 1-84 0c-11-4-21-11-31-19l-2-3-4-20-2-34v-2c0-4 0-4 4-5h22c2 0 2 0 2 2 .5 10 0 20-1 30l-1 10c-1 3 0 4 3 6l12 3 27 3m38 95-15 6-15 7-7 2c-3 0-4 0-6-2l-19-20a103 103 0 0 1-13-19c0-1 0-2 2-2l1 1c14 1 28-1 41-6l18-6 17-4s2 0 0 2l-1 1c-1 2-3 3-3 5-3 6 0 11 6 12h9l9-4 12-10 15-11c8-6 16-11 26-13 2-1 4-1 2 1l-4 4-2 6c0 4 1 6 4 8l7 2 11-1c5-1 9-3 13-6l13-7 16-9 10-4c2 0 1 1 1 1l-2 4c-2 4-1 8 3 10h11l10-5 9-9 12-9c4-4 10-7 15-9 3-2 3 1 2 2-1 4 1 9 5 11l2 2v4l-7 17-16 29-2 3c0 1-1 2-3 2h-10c-4-1-6-4-4-7l2-2 1-1-2-1-2-1c-16.1.4-31.8 4.5-46 12l-13 7c-4 3-9 4-14 5h-5c-4-1-6-3-5-7l2-5-1-2-15 4-17 8-15 7c-5 3-11 5-16 6h-8c-3-2-4-4-4-7l2-4c1-2 0-3-2-3l-15 5"/>
    <path fill="#00807D" d="M514.4 441.3c0 17-2 33-6 49l-3 12c-1 1-1 2-3 1-4-2-5-6-4-10l1-2c0-2 0-3-3-3a70 70 0 0 0-36 21l-8 8c-3 2-6 4-10 4h-4c-4-1-5-4-4-7l2-3 2-2v-2h-2c-4-1-7 0-10 1l-13 5-12 7-15 8c-5 2-10 4-16 4l-4-1c-3-1-4-4-3-7 0-2 2-4 4-6l3-3v-2h-5c-11 2-21 6-31 12l-12 9-12 9c-3 2-7 4-11 4l-5 1c-3 0-4-2-4-5l2-6 3-3 1-2-2-1c-6 0-12 1-17 3l-24 6c-11 4-23 5-35 5l-7-1-3-2-15-33v-3h1l2 1a96.2 96.2 0 0 0 78 17c16-4 32-10 46-17l16-9 22-8h17c8 0 16 2 24 4 11 1 21 2 31 1 11 0 21-3 31-8 20-9 36-23 47-43l5-9c1-2 1 0 1 0v6m-213 133-2 4c-2 4-1 8 3 11 3 2 5 2 8 2l11-2 12-6 14-9 22-11 6-1c1 1-1 2-1 2-4 7-1 13 6 15h12l13-4 13-8a101 101 0 0 1 39-14c2 0 1 1 1 1-2 2-3 4-2 7 1 2 3 4 6 4 2 2 5 2 8 2 2 0 1 1 1 1l-2 3c-15 17-32 32-52 44-1 1-2 2-3 1-2-1-2-3-2-4l1-3 2-1c1-1 0-2-1-2h-8c-9 1-22 4-29 7a281 281 0 0 1-22 7h-3c-3-1-3-2-3-4l3-5c0-1 0-2-2-2l-5 1c-7 1-13 3-18 6l-20 10c-6 3-4 4-10 0-15-8-29-17-42-28l-3-2 2-2c5-1 11-4 16-7l9-6c6-4 18-7 20-7s3-1 2 0m29-119 1-12-1-12-2-12-4-4c-17-6-32-15-44-28l-4-4h-2l-2 3a114.8 114.8 0 0 1-46 29c-2 1-3 2-3 4l-2 11c-2 5-2 10-1 15v25l-1 1-9-1-1-2v-3l3-19c1.6-13.3 2.3-26.6 2-40l7-2c14-2 26-7 37-16 6-5 12-10 16-17 1-2 2-1 3 0 11 16 27 27 47 32l10 2 3 1 1 2v6c-1 17.8.3 35.6 4 53 0 3 0 3-2 4h-9v-5l-1-11"/>
    <path fill="#00807D" d="m348.4 643.3-10-2c-10-2-19.6-5.2-29-9v-1l1-1 21-12c4-2 17-8 19-7l-2 3-1 1c-2 4-1 8 2 10s7 2 10 2l14-4 12-7c14-7 24-9 26-9v2c-2 2-3 5-1 8v3l-3 1c-18 11.3-38 18.8-59 22m-83-198 1-26v-22l1-3 7-8h2l7 8 1 4 1 20v52l1 2-2 2h-17c-2 0-2 0-2-3v-26m-2-5v33l-1 1-13-2v-3l1-42 1-18 1-3 11-8h1v5l-1 37m24-1-1-31v-10h2l11 8 1 3v27l2 32v1c0 5 0 4-5 4l-8 1c-2 0-2 0-2-2v-33m17 22-1-28-1-13v-10l1-1 11 5c1 1 2 1 2 3v7l1 26 1 19v2l-1 1-13-1v-10m-56-19-1 21v8c0 2-1 2-3 2l-9-1c-2 0-2 0-2-2v-6l1-19 1-21v-7c0-2 1-2 2-3l10-5 1 32m-24 1 1-9v-13c0-2 0-3 3-3l4-1 1 1v8l-1 19-3 28c-7-1-6 1-6-6l1-24m103 2 1 12v14l-2 2c-7 0-6 1-7-6l-1-26-1-22v-1l1-1h1l6 2c1 1 0 21 2 26"/>
    <path fill="#FFF" d="m248.4 492.3 22 2 5 2-3 1-11 1c-9.1-.4-18.1-1.4-27-3l-1-1 1-1 14-1m114-37c-5-1-9-4-4-4 5-1 21-1 31 1s1 4-1 4l-26-1m12 13-2-1 1-1h17l4 2-3 1-17-1m-122 38h-8c-4-1-1-2 0-3l13-1 5 1v2l-10 1m-47-25c4-1 10 1 11 1v2l-4 1c-8 1-13-1-13-2v-1l6-1m-16-18-1-1 3-1h9l2 1-2 1h-11m291-80 2.9 2.7 2.8-2.8-2.8-2.8-2.8 2.8Zm-5.8-19c0 .3-.3 6.7-.2 13.2-6.8.5-5.7-13.3-5.3-15 .2-1.4-4.4 1.7-6.6 3.8.7 1.3 1.7 1 2.9.5-.5 6.2 3.9 11.8 9 11.7.2 6.4.9 12.5 2.7 13 .2.1.5-6.5.6-13.7 12.2-3.8 7.5-18.3 7.5-18.3-.2-.8-2 .3-6 4 1.6 1.6 2.3.6 3.6.2 1 2 1.4 10.5-5.1 13.1l.3-18c0-.2-.2-.3-.4-.3-1.8.2-5 3.4-7.5 6.1 1.4 2.1 3.2.1 4.5-.4"/>
  </g>
</symbol></svg>
