<svg xmlns='http://www.w3.org/2000/svg' viewBox='0 0 696 830' fill='none'><symbol id='LAPC_Fill'>
  <g fill="none">
    <path fill="#9D432C" d="M105.4 430.3c.9-48.9 8.9-97.4 24-144l14-37c6-16 14-30 23-44l29-38c14-16 31-29 50-39 18-10 38-17 58-23 13-4 26-3 40-2l10-1c15-1 30 0 44 5 15 5 30 9 44 16 25 11 47 28 64 50a519 519 0 0 1 44 67l23 60a408 408 0 0 1 18 104v42l-3 38-4 29c-3 27-11 51-23 75a302.5 302.5 0 0 1-77 96c-21 18-46 29-73 35l-46 8h-29l-23-3-35-7c-27-7-51-20-71-39a299 299 0 0 1-83-118c-5-13-8-27-10-42-3-17-4-35-6-53l-1-14-1-21"/>
    <path fill="#FFF" d="m571.4 448.3-1-26-3-39c-2-25-8-50-16-74a2449.6 2449.6 0 0 0-32-77c-11-19-24-37-38-54-11-13-24-24-40-30-26-11-52-19-80-21-15-2-30 0-45 2-17 3-33 8-49 14-22 7-40 21-55 39l-25 35c-10 14-18 29-23 44l-14 37a338.8 338.8 0 0 0-23 116l-1 17c-2 18-1 35 2 53l7 35c10 41 29 76 57 107 11 13 23 24 35 35 16 15 35 26 56 32l33 8c18.4 3.7 37.4 4.4 56 2l25-6c28-5 52-18 73-37 9-7 17-16 25-24a228.3 228.3 0 0 0 61-101c6-20 11-40 14-62l1-25m-204-327c8 0 17 1 25 3 17 6 34 11 50 19 20 11 38 25 53 43 15.3 20 29 41 41 63l23 59a375.6 375.6 0 0 1 16 97l1 40-3 31-3 30c-3 21-8 41-17 61-16 33-37 62-64 88l-22 20c-20 13-41 22-64 27l-36 6c-13 1-26 1-40-1l-40-7c-27-6-51-18-71-37a275.6 275.6 0 0 1-80-115c-5-14-8-29-10-44a3163 3163 0 0 1-5-53c-2.2-50 3.9-100 18-148 10-25.3 20.7-50.3 32-75 10-17 22-33 35-48 11-12 23-22 37-30 21-13 45-22 69-28 8-2 16-1 24-1h31Z"/>
    <path fill="#FFF" d="m240.4 253.3 4-1c9-2 19-3 29-3l34 6 31 8c17 4 33 5 50 1 18.6-4.4 36-13 51-25 2-2 2-3 0-5l-9-8-24-16-12-6c-12-6-26-10-40-15-5-2-10-2-15 0l-16 6a193.4 193.4 0 0 0-68 39l-13 16-3 3m275 177c-1-12-1-25-3-37 0-5-1-5-5-2l-1 1a151 151 0 0 1-122 28h-3v1l1 1c4 5 7 10 12 14l4 4 21 9c12 5 25 10 36 17 10 6 21 10 33 11l5 1 3 1-2 3-9 6c-9 5-19 7-30 6-7 0-15-1-22-4-2-1-4-1-6 1-8 7-17 13-27 17l-2 2 2 1 31 16a118.7 118.7 0 0 0 54 12c3 0 5-1 6-4l5-10a191.2 191.2 0 0 0 19-95m-251-21v-8c0-3 0-3-3-3a136.2 136.2 0 0 0-77 33c-2 2-3 4-3 7l1 16a202 202 0 0 0 26 88l1 1h2l1-1c20-16 42-28 66-36l27-8c2-1 3-1 1-3-6-5-10-12-13-19l-4-7-5-5c-7-7-13-16-16-26-3-9-4-19-4-29m83 234 10-1c18-4 34-11 50-20 19-12 37-25 53-41 9-10 18-20 24-32 2-5 2-5-3-5-16 1-31-2-45-9l-21-10-22-11h-7l-18 4c-18 1-35-3-50-13-4-3-9-4-14-3v1c-33 6-63 20-90 40l-2 1c-2 1-2 3-1 4l2 3c4 9 11 17 17 24 16 18 35 32 56 45 16 10 33 18 52 21l9 2m33-346 2-1c13-2 25-6 36-12l39-25c1 0 2-1 1-3a924 924 0 0 0-14-14l-2 2-19 13a112.2 112.2 0 0 1-96 9l-33-9c-18-5-36-5-53 0-3 1-5 2-6 5l-15 26c-10 17-18 34-23 53l-9 30c-5 18-7 37-7 56l1 3 3-2a135.2 135.2 0 0 1 77-34c3-1 3-1 4-4l8-22 5-11 3-10-1-7c-2-5-6-8-9-12-7-5-15-9-24-12-9.4-2.9-19.2-4.6-29-5-2 0-2-2-1-3l4-2c15-7 30-7 44 0 9 5 15 12 19 21l1 3-4-4-14-14c-10-7-20-10-31-8l-14 4-2 1 3 1h5c10 0 21 1 31 5 8 3 15 7 21 13 4 4 7 9 7 15l-1 16-5 23c-5 19-6 37-3 56 1 11 5 20 12 28l6 8c2 3 5 7 9 9 12 10 26 17 41 22 9 2 18 3 27 2 14-2 28-7 41-13l8-6v-2l-9-5c-4-2-9-3-14-3h-20c-16 0-28-7-37-20l-4-10-1-2c0-1 1-2 2-1l2 1 11 8 20 14c10 5 19 8 30 7l8 1 37 6c11 1 22 3 32 1l11-2 1-1-1-1h-5l-29-3c-8-1-16-2-24-5-11-4-20-10-29-17l-16-14c-10-7-18-17-24-28l-3-5-8-18c-3-9-4-18-5-28l-8-37c-2-6-4-12-8-17-6-10-14-16-25-19-10-2-20-1-29 4l-12 6-3 2c3-5 6-8 10-10 11-8 23-11 36-11 20 1 35 11 43 29 5 11 5 22 4 34-1 10-2 19-1 29 1 13 5 24 12 35 3 4 6 7 12 8 18 3 36 4 54 2a149 149 0 0 0 75-31c2-1 3-3 2-5l-1-5-4-13c-1-2-1-2-3-1l-2 2c-6 5-13 9-20 12-14 6-28 8-43 5l-23-6c-9-2-18-4-27-2l-13 1-3 1v-1l2-1c12-5 24-7 37-4l21 6c11 3 22 4 34 1 13-3 25-10 36-18 2-2 2-3 1-5-5-21-13-40-23-59l-16-27-1-2c0-1-1-2-3-1l-5 3-24 16c-9 5-18 9-28 12-7 2-14 3-22 3m-206 124c1.3-35.6 8.4-70.7 21-104 11-27 27-51 46-72l7-9c9-12 21-22 32-30 10-8 22-13 34-17 10-4 20-6 31-7 7-1 14 0 21 2 31.6 7 59.9 24.6 80 50l20 24c23 28 38 60 46 95 3.7 18.2 6.7 36.6 9 55 1.4 29.6-1.7 59.3-9 88-4 14-10 26-16 39l-3 7c-25 56.5-77 96.4-138 106-8 1-16 0-23-2a193 193 0 0 1-118-83 287.6 287.6 0 0 1-39-117l-1-25"/>
    <path fill="#9D432C" d="M289.4 309.3c2 0 3-1 3-2 0-2-1-3-2-3-2 0-3 1-3 2 0 2 1 3 2 3m90-11 22-4c10-3 19-7 28-12l24-16 5-3c1-1 2 0 3 1l1 2 16 27c10 19 18 38 23 59 1 2 1 3-1 5-11 8-23 15-36 18-12 3-23 2-34-1l-21-6c-13-3-25-1-37 4l-2 2 3-1 13-1c9-2 18 0 27 2l23 6c15 3 29 1 43-5 7-3 14-7 20-12l2-2c2-1 2-1 3 1l4 13 1 5c1 2 0 4-2 5l-25 16c-16 8-33 13-50 15-18 2-36 1-54-2-6-1-9-4-12-8-7-11-11-22-12-35-1-10 0-19 1-29 1-12 1-23-4-34-8-18-23-28-43-29-13 0-25 3-37 11l-9 10 3-2 12-6c9-5 19-6 29-4 11 3 19 9 25 19 4 5 6 11 8 17 3 12 6 25 7 37 2 10 3 19 6 28l8 18 3 5c6 11 14 21 24 28l16 14c9 7 18 13 29 17 7 3 16 4 24 5l29 3h5l2 1c1 1-1 1-2 1l-11 2c-11 2-21 0-32-1l-38-6-7-1c-11 1-21-2-30-7l-20-14-11-8-2-1c-1-1-2 0-2 1l1 2 4 10c9 13 21 20 37 20h20c5 0 10 1 14 3l9 5v2l-8 6c-13 6-27 11-41 13-9 1-18 0-27-2-15-5-29-12-41-21l-10-10-5-8c-7-8-11-17-12-28-3-19-2-37 3-56l5-23 1-16c0-6-3-11-7-15-6-6-13-10-21-13-10-4-21-5-31-5h-5l-3-1 2-1 14-4c11-2 21 1 31 8l14 14 4 4-1-3c-4-9-10-16-19-21a49 49 0 0 0-48 2c-1 1-1 3 1 4h6l23 4c9 3 17 7 24 12 3 4 7 7 9 12l1 7-3 10-5 11-8 22c-1 3-1 3-4 4a141.3 141.3 0 0 0-80 36l-1-3c0-19 2-38 7-56l9-30c5-19 13-36 23-53l15-26c1-3 3-4 6-5 17-5 35-5 53 0l33 9c31.7 11.6 67 8.3 96-9l19-13 2-2h3l10 17-39 25c-11 6-37 13-38 13s-1 1 0 1Zm4 222h-8c-7 1-13 4-19 6-11 5-22 10-35 13-8 2-17 2-25 3h-4l-2 1 1 2 1 1c15 7 31 11 47 6 7-1 13-4 20-7l15-7c9-3 17-4 26-4l8-1c2 0 2-1 1-3l-4-3c-7-5-14-7-22-7m-111 67h3c10-4 20-4 31-1l24 9c6 2 11 5 17 6 6 3 12 4 19 3 6 0 12-2 18-4l22-10c9-5 19-9 29-12l3-1h-3c-11 2-21 5-30 10l-23 9a51.6 51.6 0 0 1-39 0l-21-9c-11-4-21-6-32-5-7 1-13 2-18 5-1 0-1 1 0 0m74 56-9-2c-19-3-36-11-52-21-21-13-40-27-56-45-6-7-13-15-17-24l-2-3c-1-1-1-3 1-4l2-1c27-20 57-34 90-40v-1c5-1 10 0 14 3a76 76 0 0 0 68 9h7l22 11 21 10c14 7 29 10 45 9 5 0 5 0 3 5-6 12-15 22-24 32-16 16-34 29-53 41-16 9-32 16-50 20l-10 1"/>
    <path fill="#9D432C" d="M263.4 409.3c0 10 1 20 4 29 3 10 9 19 16 26l5 5 4 7c3 7 7 14 13 19 2 2 1 2-1 3l-27 8c-24.3 8.3-47 20.8-67 37h-2l-1-1c-7-15-15-30-19-46-4-14-6-28-7-42l-1-16c0-3 1-5 3-7a136.2 136.2 0 0 1 77-33c3 0 3 0 3 3v8m251 21c2 32.8-4.6 65.5-19 95l-5 10c-1 3-3 4-6 4-6 1-13 0-20-1-12-2-24-6-34-11l-31-16-2-1 2-2c10-4 19-10 27-17 2-2 4-2 6-1 7 3 15 4 22 4 11 1 21-1 30-6l9-6 2-3-3-1-5-1c-12-1-23-5-33-11-11-7-24-12-36-17-8.5-4-16.8-8.3-25-13-5-4-8-9-12-14l-1-1v-1h4c42.5 8.5 86.5-1.7 121-28l2-1c3-3 4-3 4 2 2 12 2 25 3 37m-274-177 2-3 13-16 7-6c18-14 38-26 61-33l16-6c5-2 10-2 15 0 14 5 28 9 40 15l12 6 24 16 9 8c2 2 2 3 0 5a148.9 148.9 0 0 1-51 25c-17 4-33 3-50-1l-31-8-34-6c-10 0-20 1-29 3l-4 1"/>
    <path fill="#FFF" d="M289.4 309.3c-1 0-2-1-2-3 0-1 1-2 3-2 1 0 2 1 2 3 0 1-1 2-3 2m110 220v-1l-21-3c-8 1-16 3-23 7l-15 7c-12 6-24 10-37 8h-1l1 1a68.8 68.8 0 0 0 55-6l14-8c8-3 15-5 24-5h3m-16-9c8 0 15 2 22 7l4 3c1 2 1 3-1 3l-8 1c-9 0-17 1-26 4l-15 7c-7 3-13 6-20 7-16 5-32 1-47-6l-1-1-1-2 2-1h4a138 138 0 0 0 60-16c6-2 12-5 19-6h8m-111 67c5-3 11-4 18-5 11-1 21 1 32 5l21 9c6 2 13 4 21 4 6 0 12-1 18-4l23-9c10.5-4.8 21.6-8.2 33-10l-3 1c-10 3-20 7-29 12l-22 10c-6 2-12 4-18 4-7 1-13 0-19-3-6-1-11-4-17-6l-24-9c-11-3-21-3-31 1h-3Z"/>
    <path fill="#9D432C" d="M396.4 529.3c-9 0-16 2-24 5l-14 8a69 69 0 0 1-54 7c-2-1-2-2-1-2 13 2 25-2 37-8l15-7c7-4 15-6 23-7l21 3-3 1"/>
    <path fill="#FFF" d="M434.4 320c0 .4-.3 6.8-.2 13.3-6.8.5-5.7-13.3-5.3-15 .2-1.4-4.4 1.7-6.6 3.8.7 1.3 1.7 1 2.9.5-.5 6.2 3.9 11.8 9 11.7.2 6.4.9 12.5 2.7 13 .2.1.5-6.4.6-13.7 12.2-3.8 7.5-18.3 7.5-18.3-.2-.8-2 .3-6 4 1.6 1.6 2.4.6 3.6.2 1 2 1.4 10.5-5.1 13.1l.3-18c0-.2-.2-.3-.4-.3-1.8.2-5 3.4-7.5 6.1 1.4 2.1 3 .1 4.5-.4m5.9 19.1 2.8 2.8 2.8-2.8-2.8-2.8-2.8 2.8Z"/>
  </g>
</symbol></svg>
