<svg xmlns='http://www.w3.org/2000/svg' viewBox='0 0 696 830' fill='none'><symbol id='LJIC_Fill'>
  <g fill="none">
    <path fill="#A7BFB9" d="M590.4 431v16l-1 18-1 10-2 12-1 8-1 9-2 15-2 14a168.2 168.2 0 0 1-18 50 279.9 279.9 0 0 1-46 68l-28 28a175.7 175.7 0 0 1-86 42l-20 3-20 3a170 170 0 0 1-56-4l-33-7a171.4 171.4 0 0 1-64-35 510.5 510.5 0 0 1-50-55 337.2 337.2 0 0 1-38-72c-3-7-5-15-6-23l-3-16-2-16-1-10-1-9-1-10-1-13v-6l-1-24 1-28 1-21 3-22 2-10 5-25 13-40 16-39c5-12 11-23 18-34 13-18.9 27.5-37 43-54 20.9-19 45.9-33.1 73-41l32-10 9-1h21l3 1h5l26-1 18 4c11 3.4 22 7.1 33 11a190.3 190.3 0 0 1 79 57 490 490 0 0 1 39 58l9 21 12 30a353.6 353.6 0 0 1 19 70l2 14 1 10 1 15v6l1 33"/>
    <path fill="#FFF" d="M125.4 447c-.4 15.1.9 30.2 4 45l7 31a217.7 217.7 0 0 0 32 73c9 14 20 28 32 40l21 20a148.9 148.9 0 0 0 77 41l25 5 5 1 15 1 3 1h4l7-1 12-1h1l28-6c16.5-3.5 32.4-9.6 47-18 10-6 19-13 27-21l22-21 11-11 20-25a259.3 259.3 0 0 0 44-123l1-8 1-18v-16l-2-23v-2l-1-15-1-12c-.5-7.1-1.5-14.1-3-21l-3-19c-4-16-9-32-15-47l-14-36c-5-15-12-28-20-41a626.7 626.7 0 0 0-39-50 192 192 0 0 0-20-16 374.4 374.4 0 0 0-82-26l-9-1-18-1-20 2a363.8 363.8 0 0 0-64 17c-7 3-14 6-20 11-11 8-21 17-29 28-9 10-16 21-24 32-10 15-18 30-24 46l-9 25a448.7 448.7 0 0 0-19 61l-3 15-2 12-1 10-1 12-1 16v2l-2 20v12m-5-21v-18l1-20 1-11 1-11 2-12 5-26a366 366 0 0 1 26-71c5-15 13-29 23-43l13-18 16-20a160.7 160.7 0 0 1 62-41l34-11c8-3 16-4 24-4h14l3 1h5l9-1h9c9 0 17 1 25 4 11 3 23 7 34 12 32 12.8 59.4 34.7 79 63a375 375 0 0 1 32 53l17 43c5 14 10 28 13 42l3 19 2 15 1 10 2 15v2c1 24.7.4 49.4-2 74l-2 17-1 10-1 7a256.8 256.8 0 0 1-14 54 322 322 0 0 1-54 82l-18 19a146 146 0 0 1-68 38l-18 4-22 4-15 2h-22l-10-1-17-2-31-6a158.2 158.2 0 0 1-82-52l-18-19a288.2 288.2 0 0 1-52-101l-2-16-2-14-1-11-2-10v-7l-1-11-1-33"/>
    <path fill="#FFF" d="M342.4 414v-1l-3-15-1-1-5 1-1 2 1 12 1 3v1l7-1 1-1m-80-1v6l1 2 8-1 1-13v-1l-1-1-8-1-1 1v8m63-14h-2c-2 0-2 1-2 3l1 11v5l1 1 8-3v-2c-1-4.3-1.7-8.6-2-13l-1-2h-3m-27 6 1 15v1l1 1 6-1c1 0 2 0 1-1v-3l-1-16-1-1-5 1-2 1v3m-2 7v-7c0-4 0-4-4-4l-3 1c-1 0-2 0-2 2v17l6 1h1c2 0 2 0 2-2v-8m-37-3v-5l-1-1h-9v10l1 7h7l2-1v-10m54-10h-3l-1 2v7l1 12 1 1 6-1 2-2-2-15v-3l-4-1m-29 13v-8l-1-2-9 4v15l10-1v-8m-23 42v1h-2c-2 0-3 0-3 2l1 10 1 6v3l2 2c1 0 2 0 2-2l6-15 1-2v-1c1-1 0-2-1-3l-7-1m65-2-8 1c-2 1-2 2-1 4l3 4c1 3 3 6 3 10-1 1 0 2 1 2l6-2c1 0 2-1 2-3v-6l-1-5-1-2c-1-2-2-3-4-3m-119 48h-1l-7 2-7 1-1 2 5 13 3 7h2l5-2 7-2 1-2-4-14-1-4-2-1m253-2-2 1-4 18v1l11 3 5 1h1l1-1 6-15v-3l-2-1-15-4h-1m-223 15v-1l-4-16v-1l-1-1h-1l-18 4-1 2v2l5 15v1l2 1 17-5h1v-1m4 0 2-1 16-3 1-1h1v-2l-2-16v-1l-1-1h-1l-20 5-1 2 3 10 1 7 1 1m241-9-1 1-5 14-2 4c1 2 3 2 4 2l13 6h1l1-1 7-17 1-2-1-2-11-3-7-2m-34 12c1 1 2 0 2-1l3-11 2-5v-3l-7-2-14-3-1 9-3 11 1 1 17 4m-174-9v1h8l2-2-1-6v-16h-4l-15 3h-1l-1 1v2c1 5.6 1.3 11.3 1 17l2 1 9-1m119-1 9 1 1-1v-2c0-7 1-13 3-20l-1-1h-19l-2 1v13l-1 7 2 1 8 1m-96 2h9l1-1v-3l-1-20v-1l-1-2-10 2h-8l-1 2c1.3 6.9 1.6 14 1 21l1 2h9m59-25-1-2h-19l-1 18-1 6 1 1h2l13-1h3l1-2 1-8 1-12m19 22h1c5 0 4 1 4-4v-11l1-6-1-1-19-2-2 2-1 20 1 2h16m-28-35h9c1 0 2 0 2-2v-12l1-4v-4c0-3-2-4-5-3h-2a74.7 74.7 0 0 1-14 4l-2 2v10l1 7c0 2 1 2 3 2h7m-95-8v-4c0-3-1-4-4-4h-1l-9-1-2-1c-3 1-4 1-4 4l-1 3-1 6 1 5 1 7 2 3h3l8-1 3-1 2-1 1-2v-7l1-6m160 21h-2l-2 1v12l-2 10 1 1 1 1 14 2 3 1 1-1 2-8 2-13-8-3c-3-2-6-2-10-3m-99 25v-1h15l3-1 1-1-1-2v-10l1-12c1-1 0-1-1-1h-11l-10 1-1 1 1 14v10l1 2h2m-25-51-10-1-4 2-5 10v9l2 1h14l13-1 16-2 3-1 1-1-2-10c-1-4-5-7-9-8l-6 1h-3l-10 1m17 169-2-8-5-14c-5-10-11-19-18-28-4-6-9-9-14-11-8-3-15-4-22-1l-17 7v2l7 7a655 655 0 0 0 25 22 290 290 0 0 0 43 27l3 2v-5m-41-176h9l14-2 11-1c8-1 16-1.3 24-1 6-1 12-2 18-5l18-5 6-2 5-2-1-2-2-1c-7-1-13-4-19-8-2-1-4-2-7-1l-4 2c-7 2-14 4-21 3l-10-1h-2l-9 1-9 2c-11.7 1-23.5.3-35-2-2-1-3-1-4 1h-1c-5 6-12 10-19 13h-1v2l1 1 4 2 18 4 4 1 12 1m24-52 10-1 16-3c11.5-3.3 23.2-5.6 35-7l1-1-1-1-1-2-5-2c-7-3-13-6-18-11l-5-7c-2-3-4-4-8-3l-16 3h-13l-8-1-5-1c-4 0-7 1-9 4-2 5-5 8-8 12s-7 8-12 10l-5 1-2 1v2l2 1 5 1 16 2a322 322 0 0 1 31 3m148 158-11 1-20 5c-11 3-22 8-31 16-8 7-13 14-16 23a65.5 65.5 0 0 0-4 24l1 14 1 1c0 1 0 2 1 1l13-3c8-2 17-6 25-10a323.2 323.2 0 0 0 53-36l18-18 5-6-1-2h-1c-5.4-3.1-11.1-5.8-17-8l-16-2m-121-44-15 1-19 2-10 2-24 6-42 11-1 1c4 8 7 16 12 23 3 5 1 4 7 2 4-2 9-3 14-3h10l12 2a72 72 0 0 1 42 24c5 6 8 13 10 21l1 12v17l1 1 3 2c9.8 3 19.9 5.3 30 7l1-2 1-9 3-22a67 67 0 0 1 43-55c5-3 11-4 17-5 7-2 13-2 20-1l13 3 12 3a81 81 0 0 1 18 6l2-1 10-16-1-2-4-2-28-14c-11-5-22-8-34-9l-18-1h-15l-44-1-10-2-13-1h-4m32-324-8 1-32 12c-5 2-11 4-17 8a350 350 0 0 0-37 27l-7 9-12 16-14 25c-8 13-14 27-20 42l-1 1 1 2 3-1 5-2 9-6 14-13 9-7 5-1 9 1 9 1c3 1 6 0 8-1l7-7 5-5 11-9h7l17 5 3 2 1-1 13-14 12-13c5-4 10-4 15 0l7 8c4 5 10 10 16 13 8 4 14 9 19 15 4 5 9 10 15 14l8 7h4l1-1 10-7 7-1 6 2 9 4c7 2 12 6 17 10 4 4 8 7 13 9h1v-1l-2-5c-4-11-9-23-15-33l-28-47-7-7c-4-6-10-11-16-16l-15-10-19-11-12-5-27-9-7-1m-167 242v3l1 27 1 2 2 14c0 6 2 11 3 16 0 2 1 2 2 1l11-3 26-8 1-2-1-4 1-9v-5c-1-4-2-8-1-12v-1l-11-5-4-2v-2l6-3 11-6 11-7 5-3 1-1 1-9-1-9-1-2-10-3c-4.6-1.4-9-3.4-13-6v-2l4-2c8-4 16-9 23-15 4-3 8-7 11-13l1-1 4-2h4l14-1 2-1 4-2 1-1-1-2-2-2v-3l3-1 1-1-1-3-1-1c-1-1 0-4 1-5h4c2 1 2 3 2 5l-2 2v2l1 1 3 1 1 3-2 1c-1 0-2 1-1 2l1 2 4 1 2 1 13-1h3c2 0 4 1 5 3 3 6 8 10 13 14 7 5 15 10 24 13l4 2v2l-4 1-8 3-10 6 1 6 1 10c0 1 0 2 2 3l8 4c8 4 15 7 24 8l3 1v2l-5 3-10 6-2 1-1 3 1 5v19c0 2 0 3 2 3l8 1 14 2c9.7 1.3 19.4 3 29 5l15 1 9 1c18.6 3.4 36.8 9.1 54 17l8 3 1-1c4.3-14.4 7.3-29.1 9-44 1.5-25.8-.2-51.6-5-77l-8-31c0-2-1-3-3-4l-13-11-4-6-6-6c-1-2-4-3-7-3h-5c-4 0-8-1-11-3l-2-1c-2-2-5-2-7 0l-10 6v1l5 6 3 3 1 1h-1l-3-1-12-7a70.7 70.7 0 0 1-24-24l-6-8-6-3-7-2c-6-1-11-3-15-7l-9-10-3-4h-3l-4 4c-7 7-13 14-21 20v2l16 7 3 2 3 2h1l-1 1-5-1-15-4c-5-2-11-4-16-8l-13-7-3 1-3 3-10 10-11 9-1 2v1h2l15 4h1v1c-7.3.7-14.7.3-22-1l-8-3-12-5c-4-1-8 0-11 3l-5 5-13 14-11 9-11 5-2 2-1 4-5 19c-3 10-6 21-7 32l-1 15-1 17m341-9-1 23-2 17a226.4 226.4 0 0 1-15 59l-15 33a317.5 317.5 0 0 1-30 42c-10 9-20 18-32 25l-28 15c-11 5-22 9-35 12l-7 1c-8 1-15 1-23-1a171.2 171.2 0 0 1-73-32c-10-7-18-14-26-23a297.2 297.2 0 0 1-25-34 462 462 0 0 1-30-75 259.4 259.4 0 0 1-6-80l2-17a335.8 335.8 0 0 1 22-76 262 262 0 0 1 38-61l6-7 21-23 13-11c7-6 15-11 25-15l12-4c12.4-5 25.6-7.7 39-8l11 2c18 4 35.3 11.1 51 21l13 10c7.4 5.9 14 12.6 20 20l11 14a240.6 240.6 0 0 1 56 108c2.6 12.3 5 24.6 7 37l1 28"/>
    <path fill="#A7BFB9" d="m180.4 430 1-17 1-15c1-11 4-22 7-32l5-20 1-3 2-2 11-5 11-9 13-14 5-5c3-3 7-4 11-3l12 5c4.4 2.2 9 3.6 14 4h16v-1h-1l-15-4h-2v-1l2-2 10-9 10-10 3-3 3-1 13 7c5 4 11 6 16 8l15 4 5 1 1-1h-1l-3-2-3-2-16-9c8-6 14-13 21-20l4-4h3l3 4 9 10c4 4 9 6 15 7l7 2 6 3 6 8 5 7c5 6 12 12 19 17l12 7 3 1h1v-1l-4-4-5-5v-1l10-6c2-2 5-2 7 0l2 1c3 2 7 3 11 3h5c3 0 6 1 7 3l6 6 4 6 13 11c2 1 3 2 3 4l8 31c3 10.4 4.7 21.2 5 32 1.7 30.3-1.7 60.8-10 90l-8-3a204.5 204.5 0 0 0-54-17l-9-2h-15l-11-1-18-4-14-2-8-1c-2 0-2-1-2-3v-19l-1-6 1-2 2-1 10-6 5-3v-2l-3-1c-9-1-16-4-24-8l-8-4c-2-1-2-2-2-3l-1-10-1-6 1-2 9-4 8-3 4-1v-2l-4-2c-9-3-17-8-24-13-5-4-10-8-13-14-1-2-3-3-5-3h-3l-13 1-2-1-4-1-1-2c-1-1 0-2 1-2l2-2-1-2-3-1-1-1 1-2 1-2c0-2 0-4-2-5h-4c-1 1-2 4-1 5l1 1 1 3-1 1-3 1v3l2 1 1 2-1 2-4 2-2 1c-6 .9-12 1.3-18 1l-4 2-1 1c-3 6-7 10-11 13-7 6-15 11-23 15l-4 2v2l3 2 10 4 10 3 1 2 1 9-1 9-1 1-5 3-11 7-11 6-6 3v2l4 2 11 5v1c-1 4 0 8 1 12v5l-1 9 1 4-1 2-26 8-11 3c-1 1-2 1-2-1l-3-16-2-14v-2l-2-27v-3"/>
    <path fill="#A7BFB9" d="m347.4 188 7 1 27 9 12 5 19 11 15 10c6 5 12 10 16 16l7 7 9 13 19 34c6 10 11 21 15 33l2 5v1h-1c-5-2-9-5-13-9-5-4-10-8-17-10l-9-4-6-2-7 1-10 7-1 1h-4l-8-7c-6-4-11-9-15-14-5-6-11-11-19-15-6-3-12-8-16-13l-7-8c-5-4-10-4-15 0l-12 13-13 14-1 1-3-2-17-5h-7l-11 8-5 6-7 6c-2 2-5 3-8 2l-9-2h-10l-4 1-9 7-14 13-9 6-5 2-3 1-1-2 1-1c6-15 12-29 20-42l14-25 29-34 27-18 17-9 32-11 8-1m-32 324h4l13 1 10 2 44 1h15l18 1c12 1 23 4 34 9l28 14 4 2 1 2-10 16-2 1-2-1-16-5-12-3-13-3c-7-1-13-1-20 1l-17 4a68 68 0 0 0-43 56l-3 22-1 9-1 1h-7c-8.8-2.2-17.5-4.8-26-8l-1-1v-17l-1-12c-2-8-5-15-10-21-7-9-16-15-26-19l-16-5-12-2h-10c-5 0-9 1-14 3-6 2-4 2-7-3-5-7-8-14-12-22l1-2 42-10 24-7 10-1 19-2 15-1"/>
    <path fill="#A7BFB9" d="M436.4 556c6 .2 12 .8 18 2l15 8h1l1 2-5 6-18 18a323.2 323.2 0 0 1-53 36c-8 4-17 8-25 10l-13 3-1-1-1-1-1-14v-10l4-14c3-9 8-17 16-23 9-8 20-13 31-16 7-3 13-4 20-5l11-1m-148-158-14-1-17-3c-5 0-11 0-16-2h-5l-2-1v-2l2-1 5-1c5-2 9-6 12-10s6-7 8-12c2-3 5-4 9-4l5 1 8 1h13l16-3c4-1 6 0 8 3l5 7c5 5 11 8 18 11l6 3 1 2-1 1h-3l-32 7-16 3-10 1m-24 52-12-1-4-1a2014 2014 0 0 1-23-7v-2h1c7-3 14-7 19-13h1c1-2 2-2 4-1l4 1c10 2 21 2 31 1l9-2 9-1h2l10 1c7 0 15-1 21-4l4-1c3-1 5-1 7 1 6 4 12 6 19 8l3 1v2l-5 2-6 1-18 6c-7 2.8-14.5 4.5-22 5l-20 1-11 1-13 2h-10m41 176 1 5-4-2a228.4 228.4 0 0 1-43-27l-13-11-12-11-7-7v-2l17-7c7-3 14-2 22 1 5 2 10 5 14 10a163.5 163.5 0 0 1 23 43l2 8m-17-170h13l6-1c4 0 8 4 9 8l2 10-1 1-3 1-16 2-13 1h-14l-2-1v-9l5-10 4-2h10m25 52h-2l-1-2v-10l-1-14 1-1 10-1h11c1 0 2 0 1 1l-1 12 1 10v2l-1 1-3 1-15 1m99-25c4 1 7 1 10 3l9 2v2l-3 12-2 8-1 1-3-1-14-2-1-1-1-1 2-10v-12l2-1h2m-160-21-1 6v6l-1 3-2 1-3 1-8 1h-3l-2-3-1-7-1-5 1-6 1-3c0-3 2-4 4-4h2l9 2h1c3 0 4 1 4 4v4m95 8h-7c-2 0-3 0-3-2l-1-7v-10l2-2h2l12-4h2c3-1 5 0 5 3v4l-1 4v12c0 2-1 2-2 2h-9m12 35-1-2 1-20 2-2 19 2 1 1-1 6v11c0 5 1 4-4 4h-17m-3-22-1 11-1 9-1 2h-3l-13 1h-2l-1-1 1-6 1-18 1-1h2l16 1 1 2m-59 25h-9l-1-2v-8l-1-13 1-2h8l10-2 1 2 1 21v3l-1 1h-9m96-2-8-1-2-1 1-7v-13l2-1 20 1c-2 7.2-3 14.6-3 22l-1 1-9-1m-128 2-2-1v-2l-1-15v-2l1-1h1l15-3h4v16l1 6-2 2h-17m183 8-17-4-1-1 3-11 1-9 1-1 13 4 7 2v3l-2 5-3 11c0 1-1 2-2 1m34-12 7 2 11 3 1 2-1 2-7 17v1h-2l-13-6c-1 0-3 0-4-2l2-4 5-14 1-1m-241 8h-1l-1-7-3-10 1-2 20-5h1l1 1v1c0 6.1.7 12.1 2 18h-1l-1 1-16 3h-2m-3 1-1 1h-1l-17 5-2-1v-1l-5-15v-2l1-2 20-2 4 15 1 2m222-15h1l15 4 2 1v3l-6 15-1 1h-1l-5-1-11-3v-2l4-17 2-1m-253 2 2 1 1 4 4 14-1 2-6 2-6 2h-2l-3-7-5-13 1-2 7-1 7-2h1m119-48c2 0 3 1 4 3l2 2v11c0 2-1 3-2 3l-5 2c-2 0-2-1-2-2 0-4-1-7-3-10l-3-4c-1-2-1-3 1-4l8-1m-58 3c1 1 2 2 1 3v1l-1 2-6 15c0 2-1 2-2 2l-2-2v-3l-1-6-1-10c0-2 1-2 3-2h9m17-43-1 8-1 2-9-2v-14c0-2 0-2 2-2h8l1 8"/>
    <path fill="#A7BFB9" d="m317.4 400 1 4 1 14-2 2-6 1-1-1-1-13v-6l1-2h3l4 1m-58 9v10l-2 1h-7l-1-7v-10c0-1 1-2 2-1l7 1 1 1v5m37 3v8c0 2 0 2-2 2h-1l-6-1v-18l2-1 3-1c4-1 4 0 4 4v7m2-7v-3l2-1 5-1 1 1 1 16v2c1 2 0 2-1 2l-6 1-1-1v-1l-1-15m30-6 1 2v1l2 12v2l-1 1-8 1v-5l-1-11c0-2 0-3 2-3h5m-66 6 1-1 8 1 1 1v1l-2 14h-7l-1-2v-14m79 10-7 1v-1l-1-4-1-11 1-2 5-1 1 1 3 15-1 2"/>
    <path fill="#FFF" d="M471.4 433.7c0 .4-.3 6.8-.2 13.3-6.8.5-5.7-13.3-5.3-15 .2-1.4-4.4 1.7-6.6 3.8.7 1.3 1.7 1 2.9.5-.5 6.2 3.9 11.8 9 11.7.2 6.4.9 12.5 2.7 13 .2.1.5-6.5.6-13.7 12.2-3.8 7.5-18.3 7.5-18.3-.2-.8-2 .3-6 3.9 1.6 1.7 2.4.7 3.6.3 1 1.9 1.4 10.5-5.1 13.1l.3-18c0-.2-.2-.3-.4-.3-1.8.2-5 3.4-7.5 6.1 1.4 2.2 3 .2 4.5-.4m5.9 19.1 2.8 2.8 2.8-2.8-2.8-2.8-2.8 2.8Z"/>
  </g>
</symbol></svg>
