<svg xmlns='http://www.w3.org/2000/svg' viewBox='0 0 696 830' fill='none'><symbol id='LPAC_Fill'>
  <g fill="none">
    <path fill="#FFF" d="m350.3 573.3-1 1-1-1c-2-3-2-6-2-9l3-3 3 2c0 1 1 5-2 10Z"/>
    <path fill="#D7CDC1" d="m591.3 428.3-1 35-3 25-2 17c-2 25-8 50-20 73a315.8 315.8 0 0 1-79 104c-24 20.3-53 33.8-84 39l-31 5-13 1-7 1-25-2-31-5a172.8 172.8 0 0 1-92-47l-22-22a323.6 323.6 0 0 1-47-69 209.2 209.2 0 0 1-21-69l-4-35a417 417 0 0 1 22-198l15-38c5-11 10-22 17-31 10-16 20-30 32-44 15-18 34-32 55-42 9-5 18-9 28-12l21-7c14-5 28-6 42-5h14c15-1 30 0 45 5l33 12a185.8 185.8 0 0 1 73 54c10 12 20 25 29 39 7 11 13 23 18 36l16 41a301.8 301.8 0 0 1 19 88c2 14 3 27 3 41v10Z"/>
    <path fill="#FFF" d="m577.3 427.3-1 27-2 20-1 17c-2 15-4 31-8 46a292.5 292.5 0 0 1-87 129 162.3 162.3 0 0 1-78 36l-32 6a137.9 137.9 0 0 1-50-2l-24-4a157 157 0 0 1-80-41c-10-10-20-19-28-29a282.2 282.2 0 0 1-49-82c-4-12-7-25-9-38l-4-33-2-19a417.2 417.2 0 0 1 21-167l14-36c6-15 14-29 23-42a456.7 456.7 0 0 1 41-49c17-15 37-26 58-33l27-9c10-3 21-4 32-3h34c10 0 21 3 31 6l28 10c25.2 11 47.5 27.8 65 49l27 36c7 11 13 22 17 34l16 40a281.7 281.7 0 0 1 18 79l3 39v13Zm-451 18 2 34c3 19 7 37 12 54 5 20 14 38 25 56 9 15 20 30 33 43a1669 1669 0 0 0 44 40c15 11 31 19 49 23l29 6 24 3c10 1 19 0 28-1 15.8-3.5 31.5-7.5 47-12 21-7 39-18 55-33l26-26 10-11c21.7-25.5 38-55 48-87a415.6 415.6 0 0 0 14-85l-1-31-3-31a345.7 345.7 0 0 0-19-84l-17-45c-5-14-12-26-20-38a626.3 626.3 0 0 0-44-56 99.4 99.4 0 0 0-38-21 349.5 349.5 0 0 0-55-15l-16-1c-8-1-16-1-24 0l-16 2a331.7 331.7 0 0 0-74 24c-11 7-21 15-29 26a448.1 448.1 0 0 0-49 77l-16 39a316.7 316.7 0 0 0-23 106l-2 31v13Z"/>
    <path fill="#FFF" d="M522.3 418.3c0 26-3 49-9 72-3 12-7 24-12 35l-11 24c-5 11-11 21-19 30l-14 17c-7 7-15 14-24 20-11 6-21 13-32 18-14 6-28 11-42 13h-22c-12-2-24-5-35-10-16-7-32-16-47-27-7-5-14-11-20-18a587.3 587.3 0 0 1-27-39l-17-37c-7-15-11-31-13-47a329.2 329.2 0 0 1-4-65l4-31 7-27a229.8 229.8 0 0 1 52-98l13-15c6-8 13-14 20-20l18-13 2-1c15-8 31-14 48-17l9-1 8 1c10 1 20 4 29 7l11 5c20.8 10.4 39.2 25 54 43l15 18c25 30.4 42.2 66.4 50 105 2.9 13.6 5.3 27.2 7 41l1 17Zm-341 13v12l4 34c2 18 8 34 16 51 1 2 1 2 4 1l17-6 19-8a52 52 0 0 1 22-4l1 1-2 2-6 5-2 6c-1 1 0 3 2 3l4-1 9-3 12-5c5-3 11-4 17-5l12 2h1v1l-4 3c-4 4-3 7 2 9l7 1c3 0 4 0 4-3l1-32v-4l2-27v-5l1-20 1-18c1.4-10.3 2-20.6 2-31l2-25 1-27v-11l1-10-2-3h-2c-4-2-6-6-7-10-1-5-1-10 1-14 0-3 1-4 3-6l4-2 2-3v-13c2-6 6-12 13-15l1-1 1-2c-1-3 0-5 1-7l2-6h2l2 7 1 5c-1 2 0 3 1 3l1 1c9 5 13 13 13 23v4c0 2 1 4 3 5l2 1 5 7v13c-1 4-3 7-7 9l-2 1-2 3 1 7 1 38 1 12 1 18c.2 18 1.2 36 3 54l1 20 1 28 1 18v1l2 1 2-1 18-1 10 1 1 1-1 1-2 1-4 3c-3 4-2 7 2 8h9l15-4a90.6 90.6 0 0 1 44-6v2l-2 1c-1 1-3 2-3 4-2 2-2 4 1 6l6 3 13 2c2 0 3-1 4-3l12-27c9.8-40.2 11.8-82 6-123l-8-29c-5-21-13-40-23-59-9-15.9-18.3-31.5-28-47l-9-10c-4-4-8-9-14-12l-15-11-11-7c-2-1-2-1-3 1l-5 5-9 9-8 6-10 7-3 2-1-1h1v-1l13-12 6-5 8-6 6-5c2-1 1-2-1-3l-13-5-28-10-5-1c-3-1-7 0-11 1l-1 3 5 13c3 6 5 11 6 17v3h-1l-1-2a63.1 63.1 0 0 1-8-23l-2-8-3-1h-1l-29 11-4 2v2l12 10 13 11 6 6 3 3c-2 1-3-1-4-2l-7-4-14-11-9-10c-4-4-3-4-8-1a305 305 0 0 0-31 22c-10 9-18 18-25 29l-20 37c-8 14-15 28-19 44l-11 38-4 22-1 31Zm166 209c14 0 26-3 37-7l1-3-4-17-5-28-3-15-2-27c-.7-15.3-.3-30.7 1-46v-11l-2-25v-23l-1-11-1-11-1-9c0-2-1-3-3-4-8-2-15-3-23-1l-7 1c-2 1-3 2-3 4l-2 18-1 14-1 27-1 25v19l1 29v10l-4 29-5 27-5 25c0 2 0 2 2 3l17 5c6 2 11 2 15 2Zm51-126-18 2c-2 1-3 1-2 3l1 20 3 28 10-4 17-7c10-4 20-5 30-5h3l1 1-1 1-2 3c-2 3-2 5 1 6l6 3c8 2 16 2 25 0l4-2 12-22c0-1 0-2-2-2h-9c-4 0-8-1-12-4s-4-10 0-13l4-3 1-1h-1c-8 0-15 0-23 2-6 1-12 4-17 7l-10 5a22 22 0 0 1-16 0c-6-2-7-8-3-13l2-2 1-1 1-2h-6Zm-137 52 15-3 14-5c8-4 17-7 26-7 2 0 3-1 3-3v-11l-1-1-5-1c-3-1-6-1-9-4s-4-7 0-11l2-2 1-1-2-1-9 1c-6 1-11 3-16 6l-11 6-9 4h-6c-4-1-6-5-5-8l4-6 6-6 1-1h-1l-13 3c-6 1-12 4-19 7l-16 7-6 3-1 1 4 9c4.2 6.1 8.6 12.1 13 18l13-5c5-2 10-4 15-4l11-1 2 1-1 1-3 2-4 5c-1 2 0 5 3 6l4 1Zm33 23h6v2l-1 1-3 3c-1 2-1 3 1 4l3 2 12 1c2 0 2-1 2-3l3-16v-8l1-19c0-3 0-3-3-3h-1c-8 1-14 3-21 7l-10 5-12 6-12 1-7-3c-2-2-3-4-3-7s2-5 4-7l3-3h1-4c-4 0-9 1-13 3l-18 7v1l-1 1 3 4c9 11 19 20 29 29l2 2h2l3-1 15-5c6-3 12-4 19-4Zm87-12 2 19c0 5 0 5 5 3l14-6a59.2 59.2 0 0 1 25-4l2 1-1 1-3 4c-1 2 0 4 2 5l3 2c3 1 5 1 8-1 11-10 22-20 31-31h1v-2l-2 1-10 2-14-1c-2-1-5-1-7-3-4-4-4-9 0-12l3-2v-1h-2c-4-1-8 0-12 1-7 1-14 3-20 6-8 4-16 8-24 10l-1 3v5Zm-32-179c5-1 10 0 15 2 2 0 2 0 2-2l-2-12-1-20c-.4-18 .3-36 2-54-5-4-10-5-16-6h-2c-5 1-9 2-13 5-2 1-2 1-1 3l1 3 1 12v43l-3 24v3l1 1h1c5-2 10-3 15-2Zm-42 208h-5c-3 0-5-1-7-3-3-2-4-6-1-10l1-1 1-1-1-1h-2l-14 3-18 8h-1v1l1 1a331.4 331.4 0 0 0 45 28l2-1v-1l4-18c1-5 2-5-4-5h-1Zm115-15-6 1-16 5-14 7c-2 1-2 1-1 3l5 21c0 2 1 2 2 1l4-1c11.4-7 22.4-14.7 33-23l-4-2c-3-3-4-6-1-10 0 0 2-1 1-2h-3Zm-56-315v-1c0-3-1-4-3-6l-10-6h-7c-5 1-9 4-12 7l-2 3v6l2 1 3-1c7-1 13-2 19-1l7 1c2 1 3 1 3-1v-2Zm-17 12c8 0 16 2 23 6l3 1v-3l-1-3-1-2-8-4c-7-2-15-3-23-2-6 1-12 2-17 6l-1 1c-1 2-2 4-1 7h1l5-3c6-3 13-4 20-4Zm12-27v-1c-3-4-7-6-11-9h-3l-9 7-2 3v1h1l2-1c6-3 13-3 19 0l3 1v-1Zm-24 33-4 1v2l5 8 2 1 1-1 1-2-4-8-1-1Zm28 2v-1l-3-1-3 1c-1 3-3 5-3 8v1l3 2 1-2 5-7v-1Zm-14 4h1v3l1 1 1-1 1-1 2-6c1-2 2-3-2-3h-1l-2 1-1 6Zm-5-1v-5l-2-1h-4v2l4 8 1 1 1-1v-4Zm-15 11 2-1v-1a19.6 19.6 0 0 0-7-7c-1-1-3 0-3 1l2 3 5 4 1 1Zm43-8c0-1-1-2-2-1-3 1-5 4-7 7v1l3 1 5-5 1-3Zm-6-5h-1l-6 9 1 1h2c1-3 3-6 6-8v-1l-2-1Zm-39 0-1 1c-1 1 0 1 1 2l4 5 1 2h2l1-1-6-8-2-1Zm21-3c1-1 0-2-1-2l-2 2 1 9 1 1 1-1v-9Z"/>
    <path fill="#D7CDC1" d="M181.3 431.3c0-11 0-21 2-31 0-7 1-15 3-22l11-38c4-16 11-30 19-44l20-37a137 137 0 0 1 56-51c5-3 4-3 8 1l9 10 14 11 7 4 4 2-3-3-6-6-13-11-12-10v-2l4-2 29-11h1l3 1a144 144 0 0 1 3 13c1 6 4 12 7 18l1 2c1 1 1 0 1-1v-2c-1-6-3-11-6-17l-5-13 1-3a24.4 24.4 0 0 1 16 0l28 10 13 5c3 1 3 2 1 3l-6 5-8 6-6 5-13 12v2l3-2 10-7 8-6 9-9 5-5c1-2 2-2 3-1l11 7 15 11c6 3 10 8 14 12l9 10 9 13 19 34c10 19 18 38 23 59l8 29 4 27v35c-.7 30.6-8.2 60.7-22 88-1 2-2 3-4 3l-13-2-6-3c-3-1-3-4-1-6 0-2 2-3 3-4l2-1v-2h-3c-14-1-28 0-41 6l-15 4h-9c-4-1-5-4-2-7l6-5 1-1-1-1-10-1-18 1-2 1-2-1v-1l-1-18c-1.4-34-3.1-68-5-102l-1-18-1-12-1-38-1-7 2-3 2-1c4-2 6-5 7-9v-13l-5-7-2-1c-2-1-3-3-3-5v-4a25 25 0 0 0-14-24c-1 0-2-1-1-3l-1-5-2-7h-2l-2 6c-1 2-2 4-1 7 1 1 0 2-1 2l-1 1a25.2 25.2 0 0 0-13 20v8l-2 3-4 2c-2 2-3 3-3 6-2 4-2 9-1 14 1 4 3 8 8 10h1l2 3-1 10v11l-1 27-2 25v10l-2 21-1 18-1 20v5l-2 27v4l-1 32c0 3-1 4-4 3l-7-1c-5-2-6-5-2-9l4-3v-1h-1l-12-2c-6 1-12 2-17 5l-12 5-9 3-4 1c-2 0-3-2-2-3l2-6 6-5 2-2-1-1h-2c-7 0-14 1-20 4l-19 8-17 6c-3 1-3 1-4-1a185.8 185.8 0 0 1-20-85v-12Zm97-147 3-1 22-15c7.7-6.3 16.1-11.7 25-16l4-3 1-3h-3l-6 3-14 11-8 5-8 5-14 10-2 3-1 1h1Zm142 0v-1l-2-2-17-13-4-2-12-8-10-8-5-3-3-1h-2v2l2 2 4 3 9 5 10 6c8 7 17 12 26 18l4 2Zm-113-46h-9v1l2 1a74 74 0 0 0 23 1v-1l-4-1-12-1Zm72 1-4 1-1 1h1l1 1 21-2h1l1-2h-1l-19 1Z"/>
    <path fill="#D7CDC1" d="M347.3 640.3a88 88 0 0 1-32-7c-2-1-2-1-2-3 3-8 3-16 5-25l5-27 4-29v-10l-1-29v-19l1-25 1-27 1-14 2-18c0-2 1-3 3-4l7-2c8-1 15 0 23 2 2 1 3 2 3 4l1 9 1 11 1 11v23l2 25v19a344.3 344.3 0 0 0 1 65l3 15c2.8 16 5.5 32 8 48-11 4-23 7-37 7Zm-1-185 1 5 2 1 1-1c2-3 2-6 1-9l-2-2-3 2v4Zm6 112-1-4-2-1-2 1-1 3 1 6 1 2h2v-2l1-5h1Zm0-148-1-3c-1-2-3-2-4 0v1c-1 3 0 5 1 8h2l2-6Zm-5 109v5l2 1 1-1 1-6v-3l-2-1-2 1-1 4h1Zm4 78v-3l-2-1c-1-1-2 0-2 1-1 3 0 6 1 8l1 1 1-1 1-5Zm0-116-1-4h-2l-1 1 1 8 1 1 1-1 1-5Zm47 24h6l-1 2-1 1-2 2c-4 5-3 11 3 13a22 22 0 0 0 16 0l10-5c5-3 11-6 17-7a96.6 96.6 0 0 1 24-2l-1 1-4 3c-4 3-4 9 0 13 4 3 8 4 12 4h9c2 0 2 1 2 2l-12 22-4 2c-9 2-17 2-25 0l-6-3c-3-1-3-3-1-6l2-3 1-1-1-1h-3c-10 0-20 1-30 5l-17 7-10 4c-1 0-2 0-2-2v-7l-1-19-1-20c-1-2 0-2 2-3l18-2Zm-137 52-4-1c-3-1-4-4-3-6l4-5 3-2 1-1-2-1-11 1c-5 0-10 2-15 4l-13 5c-2 1-2 1-3-1l-10-17-4-9 1-1 6-3 16-7c7-3 13-6 19-7l13-3h1l-1 1-6 6-4 6c-1 4 1 7 4 8h7l9-4 11-6c5-3 10-5 16-6l9-1 2 1-1 1-2 2c-4 4-3 8 0 11s6 3 9 4l5 1 1 1v11c-1 2-1 3-3 3-9 0-18 3-26 7-9.6 3-19.2 5.7-29 8Z"/>
    <path fill="#D7CDC1" d="M294.3 589.3c-7 0-13 1-19 4l-15 5-3 1h-2l-2-2c-11.7-10-22.4-21-32-33l1-1v-1l18-7c4-2 9-3 13-3h4-1l-3 3c-2 2-4 4-4 7s1 5 3 7l7 3 12-1 12-6 10-5c6.9-3.6 14.3-6 22-7 3 0 3 0 3 3l-1 19v8l-3 16c0 2 0 3-2 3l-12-1-3-2c-2-1-2-2-1-4l4-4v-2h-6Zm87-12v-5l1-3c8-2 16-6 24-10a86 86 0 0 1 32-7h2v1l-3 2c-4 3-4 8 0 12 2 2 5 2 7 3l14 1 10-2 1-1 1 1v1h-1c-9 11-20 21-31 31-3 2-5 2-8 1l-3-2c-2-1-3-3-2-5l3-4 1-1-2-1h-3c-7 0-15 1-22 4l-14 6c-5 2-5 2-5-3l-2-19Zm-32-179c-5.4-.3-10.8.4-16 2l-1-1v-3l3-24v-43l-1-12-1-3c-1-2-1-2 1-3 4.6-2.8 9.7-4.5 15-5 6 1 11 2 16 5v2l-2 5v48l1 20 2 12c0 2-1 2-2 2l-15-3v1Zm2-80-2-1-2 1-1 2 1 6 2 2 2-2v-8Zm0 35v-3c-1-1-1-2-2-1l-2 1c-1 3-1 6 1 9h1l1-1 1-5Zm-4 32v4l2 2 2-2v-3l-1-4-1-1-2 1v3Z"/>
    <path fill="#D7CDC1" d="M307.3 606.3h1c6 0 5 0 4 5l-4 18v1l-2 1-3-1a327.1 327.1 0 0 1-43-29h1l18-8c5.1-2 10.5-3 16-3l1 1-1 1-1 1c-4 4-2 8 1 10 2 2 4 3 7 3h5Zm118-15c1 1-1 1-1 2-3 4-2 7 1 10l4 2v2l-1 1a359.4 359.4 0 0 1-36 21c-1 1-2 1-2-1l-5-21c-1-2-1-2 1-3l14-7 16-5 9-1Zm-59-315v2c0 2-1 2-3 1l-7-1c-6-1-12-1-19 1l-3 1-2-1v-6l2-3c3-3 7-6 12-7h7l10 6c2 2 3 3 3 6v1Zm-17 12c-7 0-14 1-20 4l-5 3h-1c-1-3 0-5 1-7l1-1c5-4 11-5 17-6 8-1 16 0 23 2l8 4 1 2 1 3v3l-3-1c-7-4-15-6-23-6Zm12-27v1l-3-1c-6-3-13-3-19 0l-2 1h-1v-1l2-3 9-7h3c4 3 8 5 11 9v1Z"/>
    <path fill="#D7CDC1" d="m337.3 294.3 1 1 4 8-1 2-1 1-2-1-5-8v-2l4-1Zm28 2v1l-5 7-1 2-3-2v-1c0-3 2-5 3-8l3-1 3 1v1Zm-13-2 2-1h1c4 0 3 1 2 3l-2 6-1 1-1 1-1-1v-9Zm-6 5v4l-1 1-1-1-4-8v-2h4l2 1v5Zm-15 11-1-1-5-4-2-3c0-1 2-2 3-1l2 1 5 6v1l-2 1Zm43-8-1 3-5 5-3-1v-1c2-3 4-6 7-7 1-1 2 0 2 1Zm-6-5 2 1v1c-3 2-5 5-6 8h-2l-1-1 6-9h1Zm-39 0 2 1 6 8-1 1h-2l-1-2-4-5c-1-1-2-1-1-2l1-1Zm21 6-1 1-1-1-1-9 2-2c2 0 1 8 1 11Z"/>
    <path fill="#FFF" d="m277.3 284.3 1-1 2-3 14-10 8-5 8-5 14-11 6-3h3l-1 3-4 3-7 4c-7 3-12 7-18 12l-22 15-4 1Zm143 0-4-2c-9-6-18-11-26-18l-10-6-9-5-4-3-2-2v-2h2l3 1 5 3 10 8 12 8 4 2 17 13 2 2v1Zm-101-45 4 1v1l-1 1-22-2-2-2h9l12 1Zm79-1 2 1-3 1a77.3 77.3 0 0 1-22 1h-1l1-1 4-1 19-1Zm-52 217v-4l3-2 2 2c1 3 1 6-1 9l-1 1-2-1-1-5Zm6-36-2 6h-2c-1-3-2-5-1-8v-1c1-2 3-2 4 0l1 3Zm-5 109v-4l2-1 2 1v3l-1 6-1 1-2-1v-5Zm3 83-1 1-1-1c-1-2-2-5-1-8l2-2 3 2-2 8Zm1-121-2 7-1-2-1-8 1-1h2l1 4Zm0-164-2 2-2-2-1-6 1-2 2-1 2 1v8Zm0 27-1 5-1 1h-1c-2-3-2-6-1-9l2-1c1-1 1 0 2 1v3Zm-4 32v-3l2-1 1 1 1 4v3l-2 2-2-2v-4Z"/>
    <path fill="#FFF" d="M323.3 240.3c1 0 2 1 0 2h-1M423.7 474l2.8 2.8 2.8-2.8-2.8-2.8-2.8 2.8Zm-5.9-19c0 .3-.3 6.7-.2 13.2-6.8.5-5.7-13.3-5.3-15 .2-1.4-4.4 1.7-6.6 3.8.7 1.3 1.7 1 2.9.5-.5 6.2 3.9 11.8 9 11.7.2 6.4.9 12.5 2.7 13 .2.1.5-6.5.6-13.7 12.2-3.8 7.5-18.3 7.5-18.3-.2-.8-2 .4-6 4 1.6 1.6 2.4.6 3.6.2 1 2 1.4 10.5-5.1 13.1l.3-18c0-.2-.2-.3-.4-.3-1.8.2-5 3.4-7.5 6.1 1.4 2.2 3.2.2 4.5-.4"/>
  </g>
</symbol></svg>
