<svg xmlns='http://www.w3.org/2000/svg' viewBox='0 0 696 830' fill='none'><symbol id='MAUC_Fill'>
  <g fill="none">
    <path fill="#A7BFB9" d="M590.4 421c0 21-1 41-3 61l-4 35c-3 23-10 44-20 65-15 29-33 55-56 78l-19 19c-22 20-48 33-77 40l-45 7c-14 2-28 2-42 0l-39-7c-30-7-57-20-79-41l-28-28c-24-26-42-56-55-89-5-15-9-30-11-45-3-30.3-5.2-60.6-7-91l3-57c4-29 11-57 21-84l16-40c5-12 11-24 18-35 9-14 19-27 30-40 14-17 31-30 50-41a242 242 0 0 1 82-26l20 1h5l17-1c10 0 19 1 28 4 16 5 33 11 49 18 23 11 43 27 60 47l28 39c7 10 13 21 18 33l21 55c7 20 12 41 15 63l4 60"/>
    <path fill="#FFF" d="m571.4 434-4-50c-3-26-8-52-17-76l-22-56c-3-8-6-16-11-23-10-17-22-34-35-50-14-17-31-29-52-36l-41-12a168 168 0 0 0-73-2c-17 3-34 8-50 14-12 4-24 10-34 18-7 7-14 13-20 21-11 13-21 27-30 41-6 10-12 21-16 32l-18 46c-10 27-17 55-19 83l-4 52c-1 16 0 32 3 48l8 37c9 41 29 76 57 107l32 32a154.7 154.7 0 0 0 82 39c11 2 23 5 35 5 15.2.6 30.3-1.1 45-5 32.7-5 63-20.1 87-43a1234 1234 0 0 0 47-50c14-20 26-42 34-66l9-36c5-23 8-46 7-70m5-11c1 18 0 37-3 55l-3 29c-3 21-8 42-18 62-13 28-31 54-53 77l-17 16c-21 21-47 33-76 39l-41 7c-13 2-26 2-40 0l-35-6c-28-6-54-19-75-39-13-12-26-24-37-38-18-23-33-48-43-76-4-12-7-25-9-38l-6-54a339.1 339.1 0 0 1 2-83c3-29 10-57 21-84l14-38 16-30 30-40c19-22.7 43.9-39.7 72-49l31-10 21-3 19 1h4l16-1c9 0 19 1 28 4 16 5 31 10 47 18 21 10 39 24 54 43l25 34c8 11 15 24 20 37l18 49c7 19 12 39 14 59 3 19 4 38 4 59"/>
    <path fill="#FFF" d="m343.4 431-2 1 2 1 3 2c2 1 3-1 4-2l1-1h-3l-5-1m131 13v-8l-1-1h-1l-6 9a267 267 0 0 0 8 7v-7m-133 13h3l-1-1-7-8h-3l-8 6-1 1h1c5 0 9 0 13 2h3m131-25h-1c-5.7.2-11.4-.1-17-1l-1 1 10 9h2l7-8v-1m-217 23h5l11 1-9-8-1-1h-3l-5 5-3 3h5m200 1 11-1h5v-2l-6-7h-3l-8 9v1h1m-165-2v1h7v-2l-9-7h-2l-9 8-1 1h1l13-1m-46 2h2l-1-1-10-8-2-1-9 7v1l1 1 19 1m39-22h-8l6 5 1 1 5 3 4-4 5-5v-1h-4l-9 1m83 23 4-1v-1l-12-7-5 5-3 3h12l4 1m81-1h2l-1-1-9-9h-2l-9 8v1h1l18 1m-180-24h-1l-16 2h-1v1l9 8 2-1 10-8v-1l-1-1h-2m164-1h-4v1l10 9h2l9-8v-2h-17m-131 12v-7l-1-2-1 1-9 10 11 7v-9m-64-10-13 2 10 8h2l9-8v-1l-8-1m181 23h4l1-1v-1l-11-8h-2l-10 7v1l15 2h3m-198-8 1 6h1l11-9v-1l-12-8-1 12m101-4v10h1l11-8v-2l-10-11h-1l-1 1v10m54 0v-9l-1-2-2 1-3 4-6 6v2l10 8h1l1-1v-9m27-12h-3v2l14 7 7-6 2-3h-3l-4-1-8 1h-5m-30 0h-1l-10-1c-4 0-7 3-10 5v2l8 5h3l9-10 1-1m-37-1-10 1h-1v1l12 10 9-5v-2l-5-3c-1-1-2-2-5-2m59 13v9c0 1 1 2 2 1l13-9v-2l-13-10h-1l-1 11m-46 12h1l9-11-11-6-9 6v2l9 9h1m-89-11-1-1-9-9-2 1-10 8v2l13 8 8-9h1m15-11h-1l-10 12 11 9 2-1 10-9v-2l-11-8-1-1m179 21 1-1 8-9v-3l-11-9-9 12 10 9 1 1m-27-1h1l10-9v-2l-13-10-11 12 12 9h1m-59-25v-1h5c2 0 3 0 3-2-1-5-1-10-4-15a27.1 27.1 0 0 0-25-16c-7 1-12 3-17 9-6 6-7 14-8 22l2 1 12 1h22l10 1m-22 31h-22c-2 0-2 0-2 2l1 39 4-1c12-3 24-5 36-5h11c2 0 2 0 2-2v-31c0-2 0-2-3-2h-27m3 182h5l10-2c20-5 39-15 56-27l1-1h-1l-16 1-9 2-20 5c-9 1-18-1-27-4-8-4-17-4-26-2l-29 7-2 1 2 1 2 1c13 8 27 13 42 17 4 1 8 2 13 1m-36-428-2-12c-1-3-1-3-4-1-8 3-16 7-23 12l-15 10c-11 7-18 17-26 27v2c6 4 13 8 20 9 6 2 11 1 17-2l12-5 10-6 5-9 5-17 1-8m124 179-19 1c-9 1-15 6-19 14-3 5-4 12-4 18 0 2 0 2 2 2h10l8 1 13-1h45c1 0 2 0 2-2l-2-16-2-5c-3-5-8-9-14-11l-10-1h-10m-149 36v1h10c3 0 3-1 3-3-1.4-7.1-3.1-14.1-5-21-5-7-11-11-19-12l-28-1-11 1c-5 2-9 5-11 9l-4 8c-2 6-2 12-2 18l2 2h9l9-1h32l15-1m13 54v-22c0-2 0-2-2-2-6 2-13 2-19 0h-11c-7 1-13 2-20-1h-5l-17 1h-4c-2 0-3 0-3 2v6l1 23v3l1 1h2c8-2 15-2 23-1 7 0 14 2 21 4l19 5 11 2c2 0 2 0 3-2v-19m94-5v17c0 3 0 3 3 4l7 1c8 2 15 4 23 4 16 1 31-2 45-6 2-1 2-1 2-3v-35l-1-1h-77c-2 0-3 0-2 2v17m-48-104 29 1c33.3 2.9 66.7 3.2 100 1h3v-1l-6-5-15-14-14-11c-2-2-5-2-8-2h-9c-11 2-21 3-32 3h-30l-16-1h-2l-15 1h-34l-19-1-14-2c-10-1-11-1-19 6l-12 11-17 15-1 1h39c21 1 42 1 62-1l30-1m114 201c4 0 4 0 6-2 8.2-9.6 15-20.4 20-32h-1l-9 3c-15 3-29 2-42-5l-7-3c-9-4-18-5-28-1l-16 6-18 6c-13 4-27 3-39-4l-15-8-13-6c-6-3-13-4-20-2l-11 3-20 7c-12 3-24 4-36 2h-4l-1 1 11 20 3 1h13l16 4c9 2 17 3 26 1l20-4h24l14 4 14 5c5 2 11 1 16-1l7-4 8-3c9-4 18-6 28-4l11 3c14.4 4.1 28.7 8.4 43 13m-114-196-48 2-46 1h-43l-2 1v22c0 8-1 15 1 23l1 27-4 24 1 4 8 8 1 1v-1l1-22v-7l-1-25 1-19c1-6 3-13 8-18 3-3 6-6 10-7l14-2c12 .1 24 .5 36 1 6 1 10 5 14 9 3 3 4 7 5 12v5l2 43v41c0 2 0 2 2 2l6-1 1-2v-59c1-11 3-22 7-33l5-11c3-4 8-7 13-8l10-1c8 0 15 4 20 11l4 10c5 12 6 23 7 36v37l-1 11 2 2 6 1c1 0 2-1 1-2v-1l1-46 1-12 1-22c0-4 1-8 3-11 4-5 8-9 15-11l11-1h24l13 1c7 2 12 6 16 12l3 8c2 7 3 15 2 22l-1 23c0 11 2 23 1 34l1 1 1-1 7-8c1-1 2-2 1-4l-3-22c-1-8-1-17 1-26l1-24v-22c0-4-1-3-4-3-26 0-52 1-78-1l-27-1-32-1m-122 185h-2c-1 0-2 0-1 1l3 4a252 252 0 0 0 56 48l5 1 11-3 25-7c10-2 20-2 29 1 10 3 20 4 31 3 8 0 17-1 25-3h15c2 1 4 0 6-1 11-8 21-16 30-26l1-1v-1l-8-2-12-5-21-9c-11-3-21-3-31 2l-11 5-10 5h-14l-8-3-17-7c-7-2-14-3-21-2l-8 2-14 5c-12 4-24 3-36-1l-10-4-13-2m233-25c11 0 21-2 31-5 2 0 4-2 5-4l11-29 1-3-1-1h-3l-24 5-21 6c-12 3-24 4-36 2l-21-5c-19-6-37-7-55-3l-23 5c-8 2-16 3-24 2l-20-5-16-5c-11-3-21-4-32-2l-14 4c-7 2-15 4-23 3 0 0 0-1 0 0h-1l1 3 8 20c2 5 1 4 7 5 13 3 25 2 37-1l26-5a56.7 56.7 0 0 1 38 4l19 8c9 3 18 5 26 4l20-5 23-6c10-2 19-2 29 1l10 3c8 3 15 4 22 4m-277-109c0 22.9 2.6 45.7 8 68l3 2 18-3c1 0 2-1 1-2l-3-3c-4-5-6-11-7-17v-4c0-15 0-29 2-43l1-22v-21l-2-1h-1c-1 1-3 2-4 0-1-1 1-2 2-3 10-7 18-16 26-25l10-10 8-5c5-3 9-3 14-2h5c12 1 25 0 37-1 2 0 2 0 1-2l-9-33-6-14-2-6v-4c0-2 1-2 3-1l2 3 1 5 3 11 11 38c1 4 0 3 4 3l33 2h16l35-2 25 1c8 1 16 1 24-1 4 0 8 0 11 2l10 7 12 12 23 22 3 3-1 1-4-1c-2-1-2 0-2 1v35l2 15 1 32-1 10c0 5-3 10-6 15l-2 2h4l14-1c3 0 3 0 4-4v-1c4-13 5-27 6-41 1-15 0-29-1-43l-2-16-8-33c-5-22-14-42-24-62l-20-34c-7.6-12.4-17-23.5-28-33l-32-20-10 1a1494 1494 0 0 0-37 4l-16 2-4 1-3-1v-3l3-2 10-1h27l8-1 17-1 1-1-1-1-3-1-35-13c-5-2-11-2-17 0l-15 5-10 4c-2 1-2 1-1 3l3 11c2 9 1 17-3 24a109.9 109.9 0 0 1-20 23c-4 3-7 4-11 5-6.7.2-13.3.2-20 0-7-2-13-5-19-9-3-2-3-3-5 1l-2 3-20 35c-8 16-16 33-21 50l-8 32a182.1 182.1 0 0 0-6 54m341-6c-.3 33.5-6.8 66.8-19 98l-14 29c-8.1 13-16.8 25.7-26 38-10 12-22 22-35 30a213.5 213.5 0 0 1-71 29c-8 1-16 0-24-1-16-3-32-9-46-17l-25-14c-9-6-17-14-25-22a221.7 221.7 0 0 1-28-38l-20-44c-6-15-10-32-13-48l-3-42c0-20 2-40 8-60l4-19c9-31 23-60 44-85l25-31c11-11.9 23.9-22 38-30 14-7 29-12 44-15 9-2 18-1 27 1a177 177 0 0 1 46 17c12 8 22 17 32 27l24 28c19 23 33 50 42 78 6 18 10 36 13 54 2 12 2 25 2 37"/>
    <path fill="#A7BFB9" d="m399.4 323-1-1-7-7-47-38-7-6-10-10-5-4-4-1h-2v2l2 3 4 3 10 7 18 13 13 11 32 26 3 2h1m-153-47v-1h-2l-3 4-6 12-11 25-21 44-1 3v1l1-1 14-26 8-16 12-24 8-16 1-5m-66 154a251 251 0 0 1 6-54l9-32c4-17 12-34 20-50l20-35 2-3c3-4 2-3 5-1 7 5.2 15.3 8.3 24 9h15c4-1 8-2 11-5l3-2c6-6 12-13 17-21 5-7 5-15 3-24l-3-11c-1-2-1-2 1-3l10-4 15-5c6-2 12-2 17 0l35 13 3 2c2 1 0 1 0 1l-17 1-8 1-27 1h-9l-4 2c-1 1-1 2 1 3l2 1h4l16-3a270 270 0 0 1 37-4h13l5 3c9.7 6.9 19.4 13.9 29 21 9 9 17 18 23 28l20 34c10 20 19 41 24 62l8 33 2 16c2.3 28.1 1 56.3-4 84l-1 2c-1 3-1 3-4 3l-14 1-3 1-1-1 2-2c4-5 6-10 6-15l1-10-1-32-2-15v-35l2-1 4 1 1-1-3-3-23-22-12-12c-2-3-6-5-9-7-4-1-8-2-12-1h-48l-36 1h-15l-34-1c-3-1-3 0-4-4l-11-38-2-11-2-5-2-3c-1-1-3-1-3 1v4l2 6 6 14 9 33c1 2 1 2-1 3h-42c-5-1-9-1-13 2l-9 5-10 10c-8 9-16 18-26 25-1 1-3 2-2 4 1 1 3 0 4-1h2l1 1v22l-1 21c-2 14-2 29-2 43l1 4c0 7 2 12 6 17l3 3c1 1 0 2-1 2l-18 3-3-2-5-23-3-45"/>
    <path fill="#A7BFB9" d="M457.4 539c-7 0-14-1-22-4l-10-3c-10-3-19-3-29-1l-23 7-20 4c-8 1-17-1-26-4l-19-7c-6-3-11-4-16-5-8-2-15-1-22 0l-26 5c-12 3-24 4-37 1-6-1-5 0-7-5l-8-20-1-2 1-1c8 1 16-1 23-3l14-3c11-3 21-2 32 1l16 5 20 5c8 1 16 0 24-2l23-5c18-4 36-3 55 3l21 5c12 2 24 1 36-1l21-7c8.8-2.7 17.8-4.3 27-5l1 1-1 3-11 29c-1 2-3 4-5 4-10 3-20 5-31 5m-233 25 13 2 10 4c12 5 24 5 36 1l14-4 8-2c7-2 14-1 21 1l17 7 8 3h14l10-5 11-5c10-5 20-5 31-2l21 9 12 5 8 2v1l-1 1c-9 10-19 18-30 26-2 1-4 2-6 1h-15c-8 2-17 3-25 3-11 1-21 0-31-3-9-3-19-3-29 0l-25 6-11 3-5-1a240.1 240.1 0 0 1-59-52c-1-1 0-1 1-1h2"/>
    <path fill="#A7BFB9" d="m346.4 379 32 1 27 1c26 2 52 1 78 1 3 0 4-1 4 3v22l-1 24c-2 9-2 18-1 27l3 21c1 2 0 3-1 4l-7 8h-2c1-11-1-23-1-34l1-22c1-8 0-16-2-23l-3-8c-4-6-9-10-16-11l-13-2h-24l-11 1c-7 2-11 6-15 11-2 3-3 7-3 11l-1 22-1 12-1 46v1l-1 2-6-1-2-2 1-11v-37c-.1-16-3.8-31.7-11-46-5-7-12-11-20-11l-10 1c-5 1-10 4-13 8l-5 11c-4 11-6 22-7 33v49l-1 12-6 1c-2 0-2 0-2-2v-41l-2-43v-5c-1-4-2-9-5-12-4-4-8-8-14-9l-9-1c-13.7.4-27.3 1-41 2-4 1-7 4-10 7-5 5-7 12-8 19l-1 18 1 25v7l-1 22c0 2-1 1-1 0l-8-8-1-4c3.5-16.8 4.5-33.9 3-51-2-8-1-15-1-23v-21c0-2 0-2 2-2h43l46-1 48-2m114 196-16-4c-12.6-4.2-25.3-8.2-38-12-10-2-19 0-28 4l-8 3-7 4c-5 2-11 3-16 1l-14-5-14-4c-8-1-16-1-24 1l-20 3c-9 2-17 1-26-1l-16-4h-13l-3-1-11-20 1-1 4 1c12 1 24 0 36-3l20-7 11-3c7-2 14-1 20 2l13 6 15 8c12 7 26 8 39 4l18-6 16-6c10-4 19-3 28 1l7 4c13 6 27 7 42 4l9-3h1v2c-5 11-12 21-20 30-2 2-2 2-6 2m-114-201-30 2h-62l-35 1h-3l-1-1 1-1 16-15 13-11c8-7 9-7 19-6l14 2 19 1h34l15-1h2l16 1h30l32-2 9-1c3 0 6 0 8 2l14 11 15 14 6 6v1h-3l-37-1c-21 1-42 1-63-1l-29-1"/>
    <path fill="#A7BFB9" d="m394.4 479-1-18c0-2 1-2 3-2h77l1 2v34c0 3 0 3-2 3-14 4-29 7-45 6-8 0-15-2-23-3l-7-2c-3-1-3-1-3-4v-16m-94 4v19c-1 2-1 2-3 2l-11-2-19-5-21-4c-8-1-15-1-23 1h-2l-2-1 1-3-1-23v-6c0-2 1-2 3-2h4c6 1 11 0 17-1l5 1c7 2 13 1 20 0h11c6 2 13 2 19 0 2 0 2 0 2 2v22m-28-53h-32l-9 1h-9l-2-2c0-6 0-12 2-18l3-8c3-4 7-7 12-8l10-2 29 1c8 1 14 5 19 12l2 5 3 16c0 2 0 3-3 3h-25m164-37h10l10 1c6 2 11 6 13 11l3 5 2 16c0 2-1 2-2 2h-24l-14 1h-20l-8-1h-10c-2 0-2 0-2-2 0-6 1-13 4-18 4-8 10-12 19-14l19-1m-125-171-5 17-5 9-10 6-12 6c-6 2-11 3-17 2-7-2-14-6-20-10v-2c8-10 15-20 26-27l15-10c7-5 15-9 23-12 3-1 3-1 4 2s2 16 1 19m36 420c-4 1-8 0-12-1-15-4-40-16-42-17l-2-1c-2-1-1-2 0-2l29-7c9-2 18-2 26 2 9 3 18 5 27 4l20-4 9-3 16-1s2 1 0 2c-17 11-36 21-56 26l-10 2h-5m-3-181h5l22-1c3 0 3 0 3 2v31c0 2 0 2-2 2h-11c-12 0-24 2-36 5l-4 1-2-1 1-38c0-2 0-2 2-2h11l11 1Zm12-33h-34l-2-2c0-8 2-16 8-22 5-5 10-8 17-9h6c9 2 16 8 19 17 3 4 3 9 4 14 0 2-1 2-3 2h-15m68 26-12-9v-2l13-9 11 11-10 9h-2m27 1-10-10-1-2 10-10h2l9 12-10 10m-177-20 11 8v2l-10 10h-2l-11-9v-2l10-9h2m-16 10-1 1-8 8h-3l-10-10 10-8h2l9 8 1 1m88 11-9-9v-2l9-6h2l9 8-9 9h-2m48-22c0-1 0-2 1-1l13 10v2l-13 9c-.5-7-.8-14-1-21m-55 0 5 3v2l-8 6-3-1-9-11c1 0 13-1 15 1m31 0-12 10-8-5v-2c3-2 6-5 10-4h10s2 0 0 1m44-2c1 1 7 0 7 2s-7 7-9 9h-4c-3-3-11-9-9-10l15-1m-40 13v9l-1 1h-1l-10-8v-2l6-6 4-4s2-1 2 1v9m-54 0v-10h2l10 12-11 8h-1v-10Zm-100-8 1-1 11 11-11 8h-1v-18m179 18c-1-1 7-6 10-8h2l11 8-1 2c-1 0-23 0-22-2m-155-20v1l-9 8h-2l-10-8v-1h21m56 9v10h-1l-10-10 11-7v7m148-11c2 0-6 6-8 9h-3l-10-9 1-1 20 1m-178 2c1 1-6 6-10 9h-2l-9-7c0-1-1-2 1-2h20m159 22c-2 0-1-2-1-2l9-8h2l9 9v2l-19-1m-79 0 8-8h2a389 389 0 0 1 10 8h-20m-58-23h3l-5 6-3 4-5-3-7-6 17-1m-67 22c-2 0-1-1-1-1l9-7h2l10 8v1h-1l-19-1m52 0v-1l9-8h2l9 7v2h-20m177 0 11-9 7 10h-17l-1-1m-204 0 8-8h3l1 1c3 3 10 7 9 8s-21 0-21-1m223-23-8 9h-2l-10-9 1-1h15l4 1m-149 23 1-1 8-6h3l7 8 1 1s-20 2-20-2m150-4v1h-1l-7-8v-2a231 231 0 0 1 7-7l1 1v15m-122-20c3 0-4 5-6 4l-5-3 11-1"/>
    <path fill="#FFF" d="m246.4 276-1 5-8 16-12 24-8 16-14 26-1 1v-1l1-3 21-44 11-25 6-12 3-4c2-2 3 0 2 1m153 47h-1l-3-3-32-25-13-11-18-13c-4.8-3.1-9.5-6.5-14-10l-2-3c0-1-1-4 2-2l4 1 5 4 10 10 7 6 47 38 7 7 1 1m22.4-54.9c0 .4-.3 6.8-.2 13.3-6.8.5-5.7-13.3-5.3-15 .2-1.4-4.4 1.7-6.6 3.8.7 1.3 1.7 1 2.9.5-.5 6.2 3.9 11.8 9 11.7.2 6.4.9 12.5 2.7 13 .2.1.5-6.4.6-13.7 12.2-3.8 7.5-18.3 7.5-18.3-.2-.8-2 .4-6 3.9 1.6 1.7 2.4.7 3.6.3 1 1.9 1.4 10.5-5.1 13.1l.3-18c0-.2-.2-.3-.4-.3-1.8.2-5 3.4-7.5 6.1 1.4 2.2 3 .2 4.5-.4m5.9 19.1 2.8 2.8 2.8-2.8-2.8-2.8-2.8 2.8Z"/>
  </g>
</symbol></svg>
