<svg xmlns='http://www.w3.org/2000/svg' viewBox='0 0 696 830' fill='none'><symbol id='MPAC_Fill'>
  <g fill="none">
    <path fill="#FDBE00" d="M105.6 422c1-28 3-55 8-82 3-17 8-34 14-50l18-47c5-12 11-23 18-34 9-13 19-27 30-39a170 170 0 0 1 82-55l23-8c10-4 20-5 31-5l17 1h4l17-1c10 0 19 1 28 4 17 5 33 11 49 18 23.2 11.6 43.6 28 60 48l28 37c7 11 14 22 18 35l20 52c8 20 12 41 15 62a540 540 0 0 1-2 157c-3 22-9 43-19 63-15 31-34 60-58 84l-17 16c-22 21-48 34-78 40-15 4-30 6-45 8-14 2-28 2-42-1l-36-6c-31-6-59-19-82-41-13-13-27-26-38-40-18-24-34-49-44-77-6-14-9-28-11-42l-7-60-1-37"/>
    <path fill="#FFF" d="m571.6 436-1-15-2-26a413 413 0 0 0-18-88l-21-54a462.8 462.8 0 0 0-46-72c-14-18-32-31-54-39l-32-9c-26.3-7.4-54-8.8-81-4-16 3-31 7-46 12a113.9 113.9 0 0 0-58 42 535 535 0 0 0-45 71l-19 50c-11 28-17 57-19 87l-2 22a387.3 387.3 0 0 0 0 59l5 30 9 36c9 29 23 54 42 78 15 18 32 35 50 50 16 13 34 23 54 28l30 7 11 2c16.7 2.2 33.6 1.5 50-2l10-2 29-7c20-7 38-18 54-33l24-23a243 243 0 0 0 63-105l7-29c4-21 7-42 6-66m-451-10 3-52c3-30 10-58 21-86l13-35c12.9-24.6 28-48 45-70 14-16 30-29 49-38 12-7 26-12 39-17l24-7 11-1 21 1h4l21-1a316.9 316.9 0 0 1 68 21c22 11 41 26 57 45l26 35 17 32 19 50a498 498 0 0 1 12 200c-2 28-11 54-24 78s-29 47-49 66l-17 17c-19 18-42 29-68 36l-28 5-17 3c-10 1-19 2-29 1-19-2-38-5-57-10-25-7-47-18-66-36-12-12-24-23-35-37-18-23-33-48-44-76-4-12-7-24-9-37l-5-41c-2-21-2-29-2-46"/>
    <path fill="#FFF" d="M365.6 375c-10-2-11-2-17-11-9 10-5 8-17 11v1l1 2c7 11 13 22 15 35l1 2h1c0-7 2-14 5-21l11-19m-21-40 1-6-3-15c-5-16-15-28-30-35-10-5-20-8-31-10h-2l2 2 12 14 3 4c2 4 6 6 10 7l8 3c9 3 15 8 18 17l3 7c2 4 4 8 7 10l2 2m7 0 2-1 7-10 3-8c3-9 10-15 19-18l7-2c5-1 8-3 11-7l2-2 13-16 1-2h-1l-4 1c-12 2-23 6-33 12-8 4-15 11-20 20-3 6-5 12-6 19-1 4-2 9-1 14m110-2-1-2-6-5a60 60 0 0 0-57-11c-12 3-22 8-32 16l-11 8-1 2 2 1c5 2 10 3 16 1l5-1 7-5c6-6 13-8 21-7l11 1c8 2 16 2 24 2h22m-118 8-11-9c-9-7-19-13-30-16-9-4-19-5-29-4-15 2-27 9-37 19l-1 2h21c9 0 17 0 25-2l11-2c8 0 15 2 21 7l5 5c2 2 5 2 7 3 6 0 11 0 16-2l2-1m10-152 1 2 9 15c9 11 20 19 33 24l9 3 25 8 21 9h1l-2-2-11-13-8-7-28-20-11-5c-12-6-25-10-37-14h-2m-113 64c5.6-3.1 11.3-6.1 17-9l31-10 11-4c12-4 22-11 30-20l14-21v-1l-4 1-17 6c-17 5-33 13-47 23l-8 6c-5 3-9 7-12 11l-13 15-2 3m229 187-1-2-8-15-5-11-11-24a72 72 0 0 0-57-36c-11-1.2-22-2.2-33-3l-2-1v2c3 6 7 11 14 13l7 3h4c5-1 9 0 13 2l6 3c4 3 8 4 13 5h5c10 2 17 7 21 16l4 10 3 12 5 12c5 8 12 12 21 14h1m-125-92-12 3-18 1-13 1c-18 3-33 12-44 27-5 6-8 12-11 19l-7 17c-3 8-7 16-12 23v1h1c10-2 18-8 22-17l5-13c1-3 1-7 3-10l4-10c4-8 10-12 18-13l6-1c5-1 10-2 14-5l5-2c4-3 8-4 13-3h4l8-2c6-3 10-7 13-13l1-3m70 268-1-2-9-19c-4-9-10-17-16-24l-7-8-12-14c-9-11-16-24-20-39v-1l-2-2-1 4-5 13c-5 12-12 22-20 31l-12 14c-7 8-13 16-17 26l-6 11-4 11 1 1c18 12 36 20 57 24h14a174 174 0 0 0 58-25l2-1m-146-353c1-2 3-2 5-2l10 2c11 3 22 7 32 12 15 7 25 18 32 33l1 2 1-2c7-15 18-27 32-34 12.3-5.2 25-9.2 38-12h6l2 1v1l-2 2c-7 7-12 14-16 23l-3 7c-3 7-8 12-16 14l-8 1c-6 2-10 5-12 10v2l3-2 15-8c16-6 32-7 49-3 12 4 22 11 30 20l5 6v3c-2 2-5 1-7 1-7-2-15-1-22 1l-14 4c-8 2-15 1-23-2l-5-2-5-2c-3-1-6-1-9 2l-5 6h3l5 1a87.9 87.9 0 0 1 71 56l8 21 9 18 1 2-5 1-13-2-15-9-11-14-7-14-5-8c-3-5-7-8-13-10l-4-2c-6-2-11-5-16-10l-4-3-4-2-5 1-6 8c-3 5-6 11-7 18l-6 25-2 9a178.9 178.9 0 0 0 52 149c7 8 13 16 17 25l1 1 3-2c14-10 27-22 38-34 6-7 12-15 16-24l12-23c10-22 16-46 18-70 1.5-23 .5-46.2-3-69-3-16-8-32-13-47-6-20-15-39-25-56-4-7-9-13-14-17l-4-3c-7-6-15-11-24-14a593.2 593.2 0 0 0-45-15c-16-8-28-21-34-38l-3-6-1 1-2 5c-7 18-18 30-35 39l-22 7-17 5c-10 3-20 8-29 15l-14 13c-5 8-11 16-15 25-7 12-13 26-17 39l-10 36c-5.4 29.7-6.8 60-4 90 2 15 5 29 10 43 6 16 14 31 22 46 3 6 8 12 12 17a259.5 259.5 0 0 0 42 37l2 1c3-8 8-15 13-21l11-13c14-15 24-32 32-50a173.6 173.6 0 0 0 15-81l-3-19-7-28c-1-7-4-13-8-18l-5-6-5-1-3 2-4 3c-5 4-10 8-17 10l-5 2c-4 2-8 5-10 8l-6 9-7 13c-3 6-6 11-11 15-8 8-18 11-30 12l-3-1 3-6 11-24 8-19a86 86 0 0 1 72-49h2l-2-3c-4-6-8-7-15-4l-8 4c-6 2-12 3-18 1l-18-4c-7-2-14-3-21-1h-5c-3 0-3-1-2-3l1-2c2-4 6-8 10-11 7-6 15-11 24-14 17-4 34-3 50 4l15 8 3 1c-3-5-5-9-10-10l-6-2-8-2c-5-2-10-6-13-11l-4-9c-3-8-8-16-15-22l-3-4m253 157c-.3 34.2-6.8 68.1-19 100l-14 32a553.5 553.5 0 0 1-49 59c-15 11-32 20-50 28-10 4-22 7-33 8-8 2-16 1-24 0-16-4-31-9-46-17l-28-17c-8-6-15-12-21-19a554.2 554.2 0 0 1-31-42l-20-46a305.5 305.5 0 0 1-9-130c3-15 6-29 11-43 8-25 19-48 35-69l16-20 10-12c12.3-14 26.8-25.8 43-35 14-7 28-12 44-15 9-2 17-1 26 1 16 3.8 31.6 9.9 46 18 13 8 25 18 35 30l15 17c22 25 38 53 48 85a357.3 357.3 0 0 1 15 87"/>
    <path fill="#FDBE00" d="m347.6 276 3-3a91.5 91.5 0 0 0 11-36c0-3-2-6-6-8-5-2-10-2-15 0-3 2-4 4-5 7v9c3 10 6 19 11 28l1 3m61 188-1 1c-3 9-4 18-3 27l3 15c1 5 2 9 5 14 4 8 10 13 19 14 11 2 20-1 24-16 3-9-1-18-10-23l-8-3c-5-3-10-6-15-11-4-3-7-8-11-13l-3-5m-120 0-4 6c-7 11-16 19-28 24l-8 4c-6 4-9 10-8 17 0 4 1 9 4 12 3 6 8 8 14 8 12 1 21-4 26-15l4-12 3-14c1-7 1-14-1-22l-2-8m-20-201 3 4c7 6 12 14 16 22l3 9c3 5 8 9 13 11l8 2 6 2c5 1 7 5 10 10l-3-1-15-8c-16-7-33-8-50-4-9 3-17 8-24 14-4 3-8 7-10 11l-1 2c-1 2-1 3 2 3h5c7-2 14-1 21 1l18 4c6 2 12 1 18-1l8-4c7-3 11-2 15 4l2 3h-2c-15 1-28 6-40 14-14 8-25 20-32 35l-8 19-11 24-3 6 4 1c11-1 21-4 29-12 5-4 8-9 12-14l6-14 6-9 10-8 5-2c7-2 12-6 17-10l4-3 3-2 5 1 5 6c4 5 7 11 8 18l7 28 3 19c0 14 0 28-3 42-2 13-7 26-12 39-8 18-18 35-32 50l-11 13c-5 6-10 13-13 21l-2-1a183 183 0 0 1-42-37c-4-5-9-11-12-17-8-15-16-30-22-46-5-14-8-28-10-43-2.8-30-1.4-60.3 4-90l10-36a195.4 195.4 0 0 1 32-64l14-13c9-7 19-12 29-15l17-5 22-7c17-9 28-21 35-39l2-5 1-1 3 6c6 17 18 30 34 38 7 4 15 6 23 9l22 6a72.1 72.1 0 0 1 28 17c6 4 10 10 14 17 10 18 20 36 26 56a533.8 533.8 0 0 1 15 66v50c-2 24-8 48-18 70l-12 23c-4 9-9 17-16 24-11 13-24 24-38 34l-3 2h-1c-4-10-10-18-16-25l-8-9c-15-16-26-35-34-56-4-10-8-21-10-32-2-18-4-35-1-53l2-9 6-25c1-7 4-13 7-18l6-8 5-1 4 2 4 3c5 5 10 8 16 10l5 2c5 2 9 5 12 10l5 9 7 13 11 14 15 9 13 2 5-1-1-2-9-18-8-21c-5-10-10-19-17-27a88 88 0 0 0-54-29l-5-1h-3l5-6c3-3 6-3 9-2l5 2 5 2c8 3 15 4 23 2l14-4c7-2 15-3 22-1 2 0 5 1 7-1v-3l-5-6c-8-9-18-16-30-20-17-4-33-3-49 3l-15 8-3 2v-2c2-5 6-8 12-9l8-2c8-2 13-7 16-14l3-7c3.8-9.7 10-18.3 18-25v-1l-2-1h-6l-11 2-26 10c-15 7-26 19-33 34l-1 2-1-2c-7-15-17-26-32-33-10-5-21-9-32-12l-10-2c-2 0-3 0-5 2"/>
    <path fill="#FDBE00" d="m414.6 616-2 1a186.8 186.8 0 0 1-58 25h-14c-21-4-39-12-57-24l-1-1 4-11 6-11c4-10 10-18 17-26l12-14c8-9 15-19 20-31l5-13 1-4 2 2v1c4 15 11 28 20 39l12 14 7 8c7 7 12 15 16 24l9 19 1 2m-70-268-1 3c-3 6-7 10-13 13l-8 2h-4c-5-1-9 0-13 3l-5 2c-4 3-9 4-14 5l-6 1c-8 1-14 5-18 13l-4 10c-2 3-2 7-3 10l-5 13c-4 9-12 15-22 17h-1v-1c5-7 9-15 12-23l7-17 11-19c11-15 26-24 45-27l12-1 18-1 12-3m125 92h-1c-9-2-16-6-21-14l-5-12-3-12-4-10c-4-9-11-14-21-16h-5c-5-1-9-2-13-5l-5-3c-5-2-9-3-14-2h-3l-8-2c-7-3-11-8-14-14v-2l2 1 10 2 23 1c11 0 20 4 29 9 12 6 21 15 28 27l11 24 5 11 8 15 1 2m-229-187 2-3 13-15c3-4 7-8 12-11l8-6c14-10 30-18 47-23l17-6 4-1v1l-14 21c-8 9-18 16-29 20l-12 4-31 10c-6.2 2-12 5-17 9m113-64h2c12 4 25 8 37 14l11 5a296.5 296.5 0 0 1 36 27l11 13 2 2h-1l-21-9-25-8-9-3c-13-5-24-13-33-24l-9-15-1-2m-10 152-2 1c-5 2-10 2-16 2l-7-3-5-5c-6-5-13-7-21-7l-11 2c-8 2-16 2-25 2h-21l1-2c10-10 23-17 37-19 10-1 20 0 29 4 11 3 21 9 30 16l11 9m118-8h-22c-8 0-16 0-24-2l-11-1c-8-1-15 1-21 7l-7 5-5 1c-6 2-11 1-16-1l-2-1 1-2 11-8c10-8 20-13 32-16 21-7 40-3 57 11l6 5 1 2m-110 2a69 69 0 0 1 8-33c4-9 11-16 19-20 10-6 21-10 33-12l4-1h1l-1 2-13 16-2 2c-3 4-6 6-11 7l-7 2c-9 3-16 9-19 18l-3 8-7 10-2 1m-7 0-2-2c-3-2-5-6-7-10l-3-7c-3-9-9-14-18-17l-8-3c-4-1-8-3-10-7l-3-4-12-14-2-2h2c11 2 21 5 31 10 15 7 25 19 30 35l3 15-1 6m21 40-11 19c-3 7-5 14-5 21h-1l-1-2a85.7 85.7 0 0 0-16-37v-1c12-3 8-1 17-11 6 9 7 9 17 11"/>
    <path fill="#FFF" d="m287.6 474-2 1c-3 6-8 9-13 12l-8 4-8 5c-5 3-9 8-11 14-1 4-2 9-1 13 2 7 6 10 13 10 8 1 14-3 20-9 4-5 7-10 9-16l2-13v-17l-1-4m1-10 2 8c2 8 2 15 1 22l-3 14-4 12c-5 11-14 16-26 15-6 0-11-2-14-8-3-3-4-8-4-12-1-7 2-13 8-17l8-4c12-5 21-13 28-24l4-6m121 10-1 5v13c-1 14 4 25 13 34 5 5 11 8 18 7 6 0 10-3 12-9l1-9c-1-7-5-13-10-17l-11-7-9-5c-5-2-9-6-12-10l-1-2m-1-10 3 5c4 5 7 10 11 13 5 5 10 8 15 11l8 3c9 5 13 14 10 23-4 15-13 18-24 16-9-2-15-6-19-14-3-5-4-9-5-14l-3-15c-1-10 0-18 3-27l1-1m-61-196h1c2-7 6-13 9-19 3-5 1-10-2-14s-7-5-12-2l-4 4c-2 4-2 9 0 13l7 14 1 4m0 8-1-3c-5-9-8-18-11-28v-9c1-3 2-5 5-7 5-2 10-2 15 0 4 2 6 5 6 8l-1 9c-2 9-5 18-10 27l-3 3"/>
    <path fill="#FDBE00" d="m287.6 474 1 4v17l-2 13c-2 6-5 11-9 16-6 6-12 10-20 9-7 0-11-3-13-10-1-4 0-9 1-13 2-6 6-11 11-14l8-5 8-4c5-3 10-6 14-12l1-1m122 0 1 2c3 4 7 8 12 10l9 5 11 7c5 4 9 10 10 17l-1 9c-2 6-6 9-12 9-7 1-13-2-18-7-9-9-14-20-13-34v-13l1-5m-62-206-1-4-7-14c-2-4-2-9 0-13l4-4c5-3 9-2 12 2s5 9 2 14l-9 19h-1"/>
    <path fill="#FFF" d="M345.4 588.7c0 .4-.3 6.8-.2 13.3-6.8.5-5.7-13.3-5.3-15 .2-1.4-4.4 1.7-6.6 3.8.7 1.3 1.7 1 2.9.5-.4 6.2 3.9 11.8 9 11.7.2 6.4.9 12.5 2.7 13 .2.1.4-6.5.6-13.7 12.2-3.8 7.6-18.3 7.6-18.3-.2-.8-2 .3-6 3.9 1.6 1.7 2.3.7 3.6.3 1 1.9 1.4 10.5-5.1 13.1l.3-18c0-.2-.2-.3-.4-.3-1.8.2-5 3.4-7.5 6.1 1.3 2.2 3 .2 4.4-.4m5.9 19.1 2.8 2.8 2.8-2.8-2.8-2.8-2.8 2.8Z"/>
  </g>
</symbol></svg>
