<svg xmlns='http://www.w3.org/2000/svg' viewBox='0 0 696 830' fill='none'><symbol id='OPIC_Fill'>
  <g fill="none">
    <path fill="#9BADFA" d="M590.9 426.4c0 18-1 34-3 50l-3 31a220.3 220.3 0 0 1-32 94 289.4 289.4 0 0 1-69 82 159.3 159.3 0 0 1-83 38c-19 2.7-38 5-57 7l-32-4-24-4c-31.2-6.1-60-21-83-43l-23-24a290.3 290.3 0 0 1-56-88c-6-14-10-29-12-45l-4-33c-1.7-16.6-3-33.3-4-50-.4-24.7 1-49.5 4-74 3-27 10-52 19-77l18-44a473.2 473.2 0 0 1 48-74c14-16 30-29 48-39 10-6 21-10 32-14l25-9c12-3 25-5 38-4h21c12-1 24 0 36 4 16 5 33 10 49 18 23 11.3 43.5 27.3 60 47 10 12 20 25 28 38 8 11 14 22 19 35l20 52c13.4 42 20 85.9 20 130"/>
    <path fill="#FFF" d="m571.9 447.4-2-30a704 704 0 0 0-8-71c-3-15-8-30-13-44l-18-46c-4-11-9-21-15-31a526.7 526.7 0 0 0-36-48c-13-15-29-27-49-34l-26-8a226 226 0 0 0-69-8l-16 2a349.5 349.5 0 0 0-55 15 112.8 112.8 0 0 0-54 40l-24 33c-9 14-17 28-22 44l-13 33c-12 29-19 60-22 92-2.2 24.9-3.5 50-4 75l3 25 7 33a247.8 247.8 0 0 0 66 118l17 16 9 9a155.3 155.3 0 0 0 84 38l20 4h34l6-1c18.4-4.4 36.7-9.1 55-14 17-8 32-18 46-31l22-20a236.8 236.8 0 0 0 62-103l9-35c4-17 6-35 6-53m6-18-2 33-2 25-3 21c-2 20-7 39-16 58-14 30-31 57-55 80l-18 18c-21 20-46 32-73 38l-26 5-18 2c-8 1-15 2-23 1-9 0-18-2-26-3l-24-4c-29-6-55-19-76-39l-28-28a273 273 0 0 1-48-76c-7-16-11-32-13-48-2.8-26.6-5.1-53.3-7-80l2-56c3-31 11-61 23-90l13-34c4-10 9-20 15-29 9-14 19-26 29-39 15-18 33-32 55-43a267.6 267.6 0 0 1 52-19c11-3 21-3 31-2h17c13-1 25 0 37 3 14 5 28 9 41 15a172.5 172.5 0 0 1 61 46 496.6 496.6 0 0 1 44 68l20 52a243.3 243.3 0 0 1 15 72l3 40v13"/>
    <path fill="#FFF" d="M319.9 539.4c0 3.3.7 6 2 8l2 3 2 1v-1l-5-12-1-1v2m13 12h-1c-2-1-3-2-2 2l2 8h1l4-7 1-3h-5m86-100h-4l-3 1c-2 5-5 9-9 12l-5 5-1 1-1 1h1l9-5c7-4 12-9 18-14v-1h-5m-100 117-2 17v1l1-1 11-16v-5l-8-13-1-1v1l-1 8v9m-107-38-1-5-4-6c-4.2-5.4-8.6-10.8-13-16l-2-2h-1s-1 0 0 0l1 3c3 11 8 21 13 32 1 2 2 2 4 0 2-1 3-3 3-6m158-139-2-26c-1-6 0-5-5-8l-2-1h-8l-1 1 1 2c4 6 7 13 9 19l5 14 3 6v-7m-77 113v-1l-2-1c-9-5-19-8-30-10v1c6 4 11 10 16 15l7 7 5 4c1 1 2 0 2-1l2-12v-2m77-59 1-5-1-1v1l-2 3c-2 3-5 5-8 6l-3 1v3l5 34v1l1 1v-1l1-1 4-19 2-23m45-180v12l1 2c5 3 13 1 15-5l1-6-3-7-9-12c-3 0-6 3-6 6l1 10m11 321-2-10-4-6h-1l-11 11-1 1c-1 4-1 8 1 12 1 3 3 5 6 6 3 2 6 1 8-1l2-5 2-8m82-194 2-1 1-1v-2l-7-28-3-3-8 2-3 3v6c0 6 2 12 6 18 2 4 6 6 12 6m-106 59c-10 0-18 3-26 8l-2 3-2 17 1 1 18-8 10-11 4-7 1-3h-4m-113-136-25 2v1c7 2 13 5 19 9l3 2 10 5 4 2c1 0 2-1 1-2l-3-6-2-5c-1-1 0-2 1-2 5 0 9 0 13 2a74 74 0 0 1 33 22l2 2 5 1v-1l-24-20-1-1c-12-8-24-12-36-11m118 174v-2c0-3-1-5-4-6-6-2-14 0-18 6-3 4-5 9-6 14-1 4 0 7 4 8 5 2 10 1 15-3l7-10c2-2 2-4 2-7m-72 58h4l3-3 3-6c2-4 2-4 1-9l-2-3c-2-3-5-6-9-7l-7-2-5-1-3 1-1 2v4l2 8c3 4 5 8 6 13 1 2 2 3 5 3h3m-16-309h-1l3 12c3 13 8 25 17 35l1 1 21 26h1l-6-20c-2-8-6-15-11-21l-17-24-8-9m-65 28v-6l-2-9c-1-2-2-4-5-5h-1l-2 2-16 25v3c1 4 3 8 7 10 5 3 13 4 17-4l2-9v-7m102 332h1l6-2c14-5 27-12 39-20l16-14 12-14 1-1-1-1h-1c-14 4-26 11-37 21l-11 10c-7 7-15 14-24 20h-1v1m25-258 2-1c6-7 10-16 12-24l6-27 2-21 3-19v-1 1c-8 10-13 22-16 34l-5 31c0 8-1 17-4 26v1m93 77-7 1c-8 1-16 2-23 5l-32 12-17 11-1 1-1 1h1l12-2 20-3a76.2 76.2 0 0 0 37-15l13-10v-1h-2m-112-21v-1l-10-18-17-25c-5-7-11-13-18-18l-15-8h-1l5 8 12 21c3 7 9 12 15 17l7 6c7.8 5.8 15 12 22 19v-1m60 26 1 2c7-4 14-6 21-7 2 0 3-1 3-2l4-10c2.9-11 5.6-22 8-33l2-6v-1h-1c-8 7-16 13-22 21a85.7 85.7 0 0 0-13 22l-3 14m-10 72-2 6c-1 4-3 6-6 8l-10 4c-3 0-4 1-6 3l-20 20h-1v1l19-8c8-4 15-9 21-15l22-21c5-4 9-9 12-15l6-15v-1h-1c-5 4.6-10.8 8.3-17 11-7 3-13 7-18 12l-1 3 2 7m-61-51 14-4c4-2 5-4 4-8 0-3-1-5-3-7l-6-10-1-2c-4-7-11-9-16-8l-4 2c-3 2-5 4-6 8-1 3 0 6 1 9 2 6 5 11.9 9 17 2 2 5 3 8 3m20-172v-6c0-13-2-26-8-38l-9-21h-1l-2 14a89.2 89.2 0 0 0 4 37l4 15c2.6 8.9 6 17.6 10 26l1-5 1-22m21 130c19-14 32-31 41-52l5-13c3-9 5-18 10-26v-1h-1l-15 15c-7 8-12 16-16 26l-8 20c-4 10-9 20-15 28l-2 3h1m-97-16h-3l12 18 4 9c3 6 6 11 11 15l7 7c6 6 12 12 17 20 5.5 7.7 10.5 15.7 15 24v-3l-2-13-2-11-2-3-11-5c-4-2-7-5-10-9-3-5-4-11-3-17l2-5-1-3-11-12c-6-7-14-11-23-12m22 165-1-24-2-14-8-24-3-8h-1l-2 12-2 13v24l4 12c4 13 9 27 11 41h1l1-13 2-19m55-223v19l1 1v-1l5-15 4-25 6-28c4.2-14.1 11-27.3 20-39 2-2 4-1 5 1v5l1 3h1l1-1c4-2 9-2 13 2 3 2 5 6 5 10v12c0 5-3 9-7 11-3 1-6 2-9 1l-2-1-2 1v2c-1 12-5 23-11 33-7 13-16 25-28 34-2 2-2 3-2 5l1 17 2 28v20l1 1v-1l5-11 4-7 15-34a156.3 156.3 0 0 1 45-63l5-3h2v2l-1 3-3 12-3 19c-1 10-4 19-9 28-7 13-16 23-29 31l-19 11-4 4c-5 10-9 21-9 33l-1 3v4c0 2 1 2 2 1l7-4 2-2c8-6 16-13 25-18l2-2 1-2c0-5 2-9 3-13l6-11c8.4-17.4 21.6-32 38-42l5-2 2 1-1 5-2 8-1 14-1 11-4 12-2 4h20l4 1v2l-1 1-12 11-14 11c-6 5-14 8-22 10l-3 2c-7 7-15 12-23 17-10 6-21 11-32 14-2 1-3 1-3 3l-1 5-7 29-2 7 1 1 17-14c2-1 2-2-1-3-5-2-7-6-6-12 0-5 2-8 6-12l2-1 9-6c5-3 10-4 15-2 1 1 2 0 3-1 7-6 14-11 23-14 6-3 12-5 17-9l3-1 2 2-1 3c-3.1 13-8.2 25.5-15 37-6 9-14 15-23 20a710.1 710.1 0 0 1-55 28c-2 0-2 1-3 3a369.1 369.1 0 0 1-35 66h2c9-6 18-12 25-19l18-16a152 152 0 0 1 63-35h8c2 0 2 1 1 2l-6 8-9 13v3l1 1c5 2 7 6 9 11 3 11-3 19-9 22-4 2-8 1-11-1-5-3-8-7-8-13v-3h-2c-10 7-20 11-32 13l-14 3c-12 3-23 7-33 13l-2 1c-6 4-5 3-9 8l-2 3-2 5c1 2 3 2 5 3 9 4 18 6 27 8l3 1 18-2c15-4 29-10 42-18l18-10c17-11 32-25 46-40 6-7 12-15 17-24 7.3-15.5 14.3-31.2 21-47a317.2 317.2 0 0 0 8-105c-1-2-1-3-3-2h-1c-4 1-9 0-13-2-6-2-10-7-10-14v-9l2-9c1-2 2-4 5-5l6-1c4-1 3-1 2-4-4-19-11-37-20-53l-22-39-9-12a760.6 760.6 0 0 0-22-22l-36-22c-12-6-25-10-37-14-5-2-10-2-15 0l-27 10c-8 3-17 6-24 11l-25 17-14 14v2c7 4 10 9 12 16 2 4 2 8 1 12-2 8-7 14-14 18l-6 2c-5 0-9-1-12-4l-5-7h-2l-9 17c-8 15-15 31-20 48l-8 32a183.1 183.1 0 0 0-6 50c0 18.4 1.7 36.9 5 55l2 11c0 2 1 3 4 3l5 2c5 2 10 6 14 11 2 2 3 5 4 9v12c-1 4-2 7-6 9-2 1-2 2-1 3 5 10 10 19 17 27a228 228 0 0 0 66 54c3 1 3 1 4-1l9-14 6-9 1-6v-1c-1-8-3-16-7-23l-7-15a65.4 65.4 0 0 1-7-26c0-2 0-3-2-3-6-2-10-6-14-11l-6-7-17-17h-1v-1l12-2c9 1 17 4 25 8l6 4c1 1 1 0 2-1v-1c2-7 3-15 3-22 1-1 0-2 2-3l2 1 1 1a50 50 0 0 1 15 35l1 5h1l3-2c5-2 10-2 14 2l3 3c3 4 6 7 8 12h1c4.4-10.7 8-21.8 11-33l-6-17a71.8 71.8 0 0 0-28-34l-6-4c-9-8-17-18-21-30-3.4-9.4-7.7-18.5-13-27l1-2h4c7-1 15 1 22 4 8 3 16 8 22 14 1 2 2 2 4 2 3-1 6-2 9-1 9 2 17 7 22 16l1 1v-2l-1-3-2-4c-8-10-18-19-29-25l-8-6a62 62 0 0 1-23-29l-2-2-4-1c-6-2-12-5-17-9l-21-15-5-4v-1l7-2c14-3.7 28.8-4 43-1 10 2 19 7 27 14l14 13 12 12 4 3 1-1-1-23-2-4c-4-7-10-14-16-19a665.7 665.7 0 0 1-22-19c-6-7-10-16-11-26l-1-23 1-6c0-1 1-2 2-1l4 2 17 16c7 7 12 15 15 25l12 36 1 2v1-1l2-9-1-4-3-9-9-19c-6-10-8-21-9-33 0-9 0-18 2-26l3-12 2-4 1-1 1 1c2 7 7 13 11 20l6 8a74.3 74.3 0 0 1 12 44c-1 12-5 22-10 32l-2 7v17m150 91c0 26-2 49-8 71-3 13-7 25-13 37l-11 25c-4 9-10 18-16 26l-16 19a267.3 267.3 0 0 1-61 41c-12 5-25 9-38 11l-19 1-17-4-27-9-35-20c-9-6-18-14-26-23a502.7 502.7 0 0 1-27-38l-19-40a304 304 0 0 1-12-142l10-36c10.2-34.2 28-65.6 52-92 9-9.4 17.7-19 26-29l14-11 19-11a195 195 0 0 1 48-13h4c16 1.4 31.6 5.8 46 13l21 11c9.7 7.5 18.7 15.9 27 25l15 18a245.2 245.2 0 0 1 54 105l7 32 2 16v17"/>
    <path fill="#9BADFA" d="M257.9 386.4c0-4-2-8-4-12l-7-7c-4-2-8-2-12 1-5 3-7 8-7 14l1 7c3 6 7 10 13 12 7 2 12-1 14-7 1-3 2-5 1-8m115-59v-17l2-7c5-10 9-20 10-32a67 67 0 0 0-12-44l-6-8c-4-7-9-13-11-20l-1-1-1 1-2 4-3 12c-2 8-2 17-2 26 1 12 3 23 9 33l9 19 3 9 1 4-2 9v1-1l-1-2-12-36c-3-10-8-18-15-25a226.3 226.3 0 0 0-21-18c-1-1-2 0-2 1l-1 6 1 23c1 10 5 19 11 26l9 10 13 9c6 6 12 12 16 19l2 4 1 23-1 1-4-3a766.9 766.9 0 0 1-26-25c-8-7-17-12-27-14-5-2-10-2-16-3-9 0-18 1-27 4l-7 2v1l5 4 21 15a55 55 0 0 0 21 10l2 2 3 5c4 9 11 17 20 24l8 6c11 6 21 15 29 25l2 4 1 3v2l-1-1c-5-9-13-14-22-16-3-1-6 0-9 1-2 0-3 0-4-2-6-6-14-11-22-14-7-3-15-5-22-4h-4l-1 2 2 3 11 24c4 13 12 22 21 30l6 4 5 4c10 8 18 18 23 30l6 17v5l-11 28h-1a46.6 46.6 0 0 0-11-15c-4-4-9-4-14-2l-3 2h-1l-1-5-2-14c-2.6-8.4-7.5-16-14-22l-2-1c-2 1-1 2-1 3a119 119 0 0 1-4 23c0 1-1 2-2 1l-6-4c-8-4-16-7-25-7-4-1-8 0-12 1v1h1l17 17 6 7c4 5 8 9 14 11 2 0 2 1 2 3l1 8 6 18 7 15c4 7 6 15 7 23v1l-1 6-6 9-9 14c-1 2-1 2-4 1l-30-20c-14-10-25-22-36-34-7-8-12-17-17-27-1-1-1-2 1-3 4-2 5-5 6-9v-12c-1-4-2-7-4-9-4-5-9-9-14-11l-5-2c-3 0-4-1-4-3l-2-11-4-24c-2-27.1-.3-54.3 5-81l8-32c5-17 12-33 20-48l9-17h2l5 7c3 3 7 4 12 4l6-2c7-4 12-10 14-18 1-4 1-8-1-12-2-7-5-12-12-16v-2l14-14 25-17c7-5 16-8 24-11l27-10c5-2 10-2 15 0 12 4 25 8 37 14l19 10c10.4 7.9 20.7 15.9 31 24 5.8 7.2 11.5 14.6 17 22l22 39c9 16 16 34 20 53 1 3 2 3-2 4l-6 1c-3 1-4 3-5 5l-2 9v9c0 7 4 12 10 14 4 2 9 3 13 2h1c2-1 2 0 2 1 4 35.5 1.7 71.4-7 106l-8 20-13 27c-5 9-11 17-17 24-14 15-29 29-46 40l-18 10c-13 8-27 14-42 18l-18 2-3-1c-9-2-18-4-27-8-2-1-4-1-5-3l2-5 2-3c4-5 3-4 9-8l2-1c10-6 21-10 33-13l14-3a80.8 80.8 0 0 0 33-13h1v3c0 6 3 10 8 13 3 2 7 3 11 1 6-3 12-11 9-22-2-5-4-9-9-12h-1v-3l9-13 6-8c1-1 1-2-1-2h-8c-23.4 6.2-45 17.8-63 34l-18 17c-7 7-16 13-25 19h-2l2-4a358.5 358.5 0 0 0 36-65c10-3 19-7 29-12l26-16a67.9 67.9 0 0 0 30-33c3.9-8.7 7-17.7 9-27l-2-2-3 1c-5 4-11 6-17 9-9 3-16 8-23 14-1 1-2 2-3 1-5-2-10-1-15 2l-9 6-2 1c-4 4-6 7-6 12-1 6 1 10 6 12 3 1 3 2 1 3l-17 14-1-1 2-7 7-29 1-5c0-2 1-2 3-3 11-3 22-8 32-14 8-5 16-10 23-17l3-2c8-2 16-5 22-10l14-11 12-11 1-1v-2l-4-1h-20l2-4 4-12 1-11 1-14 2-8 1-5-1-1-6 2-6 4a100.7 100.7 0 0 0-38 49c-1 4-3 8-3 13l-1 2-2 2c-9.5 6-18.5 12.7-27 20l-7 4c-1 1-2 1-2-1v-4l1-3c0-12 4-23 9-33l4-4 19-11a81 81 0 0 0 38-59l3-19 3-12 1-3v-2h-2l-5 3a156.6 156.6 0 0 0-46 63l-14 34-4 7-5 11v1l-1-1v-20l-2-28-1-17c0-2 0-3 2-5 12-9 21-21 28-34 6-10 10-21 11-33v-2l2-1 2 1c3 1 6 0 9-1 4-2 7-6 7-11v-12c0-4-2-8-5-10-4-4-9-4-13-1h-2l-1-3v-5c-1-2-3-3-5-1l-2 3c-8 11-14 23-18 36l-6 28-4 25-5 15v1l-1-1v-18"/>
    <path fill="#9BADFA" d="m316.9 550.4-2 19-1 13h-1v-1c-2-14-7-27-11-40l-4-12v-24l3-13 1-12h1l3 8 8 24 2 14 1 24m-22-165c9 1 17 5 23 12l11 12 1 3-2 5c-1 6 0 12 3 17 3 4 6 7 10 9l11 5 2 3 2 11 2 13v3h-1l-1-2-13-22c-5-8-11-14-17-20l-7-7c-5-4-8-9-11-15l-4-9-12-18h3m97 16h-1l2-3c6-8 11-18 15-28l8-20c6.8-16 17.4-30.1 31-41h1v1c-5 8-7 17-10 26l-5 13c-9 21-22 38-40 52h-1m-22-108-1 5h-1v-1c-4-8-7-16-9-25l-4-15-4-16v-21l2-14h1l9 21c6 12 8 25 8 38v6l-1 22"/>
    <path fill="#9BADFA" d="M350.9 443.4c-3 0-6-1-8-3l-2-3-7-14c-1-3-2-6-1-9 1-4 3-6 6-8l4-2c5-1 12 1 16 8l1 2 6 10c2 2 3 4 3 7 1 3 0 6-4 8l-14 4m61 51-2-7 1-3c5-5 11-9 18-12l2-2c6-2 11-5 15-9h1s1 0 0 0a57.2 57.2 0 0 1-18 30l-22 22c-6 6-13 11-21 15l-19 8v-1h1l20-20c2-2 3-3 6-3l10-4c3-2 5-4 6-8l2-6m10-72 3-14 2-5 11-16c6-8 14-15 22-22h1v1l-2 6-4 15a686 686 0 0 1-8 28c0 1-1 2-3 2-7 1-14 3-21 7l-1-2m-60-26v1l-1-1c-8.6-8.8-18-17-28-24-6-5-12-10-15-17l-12-21-5-8h1l15 8c7 5 13 11 18 18l17 25 10 18v1m112 21 2 1-13 10c-6 5-12 8-18 11-6 2-13 4-19 4l-20 3-12 2h-1l1-1 1-1 17-11 32-12c7-3 15-4 23-5l7-1m-93-77v-1c3-9 3-18 4-26l5-31c3-12 8-24 16-34v-1 1l-3 19-2 21-6 27c-2 8-6 17-12 24l-2 1m-25 258v-1h1c9-6 17-13 24-20l11-10a87.5 87.5 0 0 1 38-21l1 1-1 1-12 14-16 14c-12 8-25 15-39 20l-6 2h-1m-102-332v7l-2 9c-4 8-12 7-17 4-4-2-6-6-7-10v-3l16-25 2-2h1c3 1 4 3 5 5l2 9v6m65-28 8 9 17 24c5 6 9 13 11 21l6 20h-1l-21-26-1-1c-9-10-14-22-17-35l-3-12h1m16 309h-3c-3 0-4-1-5-3-1-5-3-9-6-13l-2-8v-4l1-2 3-1h5l7 3c4 1 7 4 9 7l2 3c1 5 1 5-1 9l-3 6-3 3h-4"/>
    <path fill="#9BADFA" d="M406.9 489.4c0 3 0 5-2 7l-7 10c-5 4-10 5-15 3-4-1-5-4-4-8 1-5 3-10 6-14 4-6 12-8 18-6 3 1 4 3 4 6v2m-118-174c12-1 24 3 36 11l1 1 24 20v1l-5-1-2-2-12-11c-6-5-14-9-21-11-4-2-8-3-13-2l-1 2 2 5 3 6c1 1 0 2-1 2l-4-2-10-5-3-2c-6-4-12-7-19-9v-1c8-2 16-2 25-2m113 136h4l-1 3-4 7c-2 4-6 8-10 11l-18 8-1-1 2-17 2-3c8-5 16-8 26-8m106-59c-6-1-10-2-12-6-4-6-6-12-6-18v-6l3-3 8-2c2 1 3 1 3 3l7 28v2l-1 1-2 1m-82 194-2 8-2 5c-2 2-5 3-8 1-3-1-5-3-6-6-2-4-2-8-1-12l1-1 11-11h1l4 6 2 10m-12-331c0-3 3-6 6-6l3 2 1 2c2.8 5 5.4 10 8 15l-1 6c-2 6-10 8-15 5l-1-2v-12l-1-10m-44 190-2 23-4 19-1 1v1l-1-1v-1l-5-34v-3l3-1c3-1 6-3 8-6l2-3v-1l1 1-1 5m-77 59v2l-2 12c0 1-1 2-2 1l-5-4-7-7c-5-5-10-11-16-15v-1c11 2 21 5 30 10l2 1v1m77-113v7l-3-6-5-14a90 90 0 0 0-10-21l1-1h8l2 1c5 3 4 2 5 8l2 26m-158 139c0 3-1 5-3 6-2 2-3 2-4 0a258 258 0 0 1-14-35h1l2 2 4 4c4.5 5.9 8.8 11.9 13 18l1 5m107 38v-9l1-8v-1l1 1 8 13v5l-11 16-1 1v-1l2-17m100-117h5v1c-6 5-11 10-18 14l-9 5h-1l1-1 1-1 5-5c4-3 7-7 9-12l3-1h4Zm-86 100h5l-1 3-4 7h-1l-2-8c-1-4 0-3 2-2h1m-13-12v-2l1 1 5 12v1l-2-1-2-3c-1.3-2-2-4.7-2-8"/>
    <path fill="#FFF" d="M252.9 392.4v-2l-7-18-3-2c-1-2-4-2-5-1-4 3-6 6-7 10-2 9 4 18 13 20 5 1 9-1 9-7m4-6c1 3 0 5-1 8-2 6-7 9-14 7-6-2-10-6-13-12l-1-7c0-6 2-11 7-14 4-3 8-3 12-1l7 7c2 4 4 8 4 12"/>
    <path fill="#9BADFA" d="M252.9 392.4c0 6-4 8-8 7-10-2-16-11-14-20 1-4 3-7 7-10 1-1 4-1 5 1l3 2 7 18v2"/>
    <path fill="#FFF" d="M224.2 440.3c0 .4-.3 6.8-.2 13.3-6.8.5-5.7-13.3-5.3-15 .2-1.4-4.4 1.7-6.6 3.8.7 1.3 1.7 1 2.9.5-.4 6.2 3.9 11.8 9 11.7.2 6.4.8 12.5 2.7 13 .2 0 .4-6.5.6-13.7 12.2-3.8 7.5-18.3 7.5-18.3-.2-.8-2 .3-6 3.9 1.6 1.7 2.3.7 3.6.3 1 1.9 1.4 10.5-5.2 13l.3-18-.4-.2c-1.8.2-5 3.4-7.5 6 1.6 2.3 3.3.3 4.6-.3m5.9 19 2.8 2.9 2.8-2.8-2.8-2.8-2.8 2.8Z"/>
  </g>
</symbol></svg>
