<svg xmlns='http://www.w3.org/2000/svg' viewBox='0 0 696 830' fill='none'><symbol id='PCAC_Fill'>
  <g fill="none">
    <path fill="#A7BFB9" d="M591 423.2c0 20-1 39-3 59l-4 35c-4 26-13 51-25 74-14 26-31 50-53 71l-15 15c-24 23-52 37-83 43l-41 7c-14 2-28 1-42-1l-39-7c-30-6-57-20-79-41-15-14-30-28-42-44-12-17-24-35-33-54-10-22-17-45-19-69l-5-46-2-26a482.8 482.8 0 0 1 22-150l18-45c5-12 11-24 18-34l28-39c17-20 37-36 60-47 17-8 35-14 53-19l21-3 20 1h6c10-1 20-2 30 0l10 2c19 5 36 11 53 20 23 11 43 26 60 46l28 38c7 11 13 22 18 34l21 55c8 22 13 45 15 69 3 18 3 37 4 56Z"/>
    <path fill="#FFF" d="M577 421.2c1 22 0 40-3 58l-4 33c-2 20-8 39-17 57-13 28-31 54-53 77l-18 17c-21 20-46 33-75 39l-41 7c-13 2-26 1-39-1l-39-7c-27-6-52-18-72-37-15-15-30-29-42-46-14-18-25-38-34-58-7-17-11-35-13-53l-5-46c-2-16-2-32-2-49 1-20 3-40 6-59 3-21 9-41 17-60l15-41c4-10 10-20 16-30l30-40c12-15 28-27 45-36 14-8 29-14 44-19l24-6a146 146 0 0 1 35-1c11 0 22-1 34 2l4 1c20 6 39 12 58 22 18 10 34 23 47 39l28 37c7 10 12 21 17 33l20 53c8 20 12 42 14 63l3 51Zm-451 13c-1 19 0 32 3 50l7 34c9 42 29 78 58 110l32 32c16 14 33 25 52 31 21 7 43 12 65 13 11 1 22 0 33-2l8-2 31-7c23-7 43-20 60-36l25-25c23-24 41-52 53-84 5-13 8-27 11-40 6-23 9-46 8-69l-4-54c-3-28-9-56-19-82a9311 9311 0 0 0-30-73c-11-18-23-35-37-51-13-16-30-29-50-36l-36-11a190.2 190.2 0 0 0-127 10c-12 4-23 10-33 17-9 7-17 15-24 23l-28 41c-7 10-13 22-18 34l-15 40c-10 26-18 53-20 80l-5 57Z"/>
    <path fill="#FFF" d="M522 424.2a269 269 0 0 1-35 131c-6 13-15 24-24 34-10 12-22 22-35 30-14 9-27 16-42 22-10 3-19 6-29 7-8 1-16 1-24-1-16-3-31-8-45-16l-28-17c-8-4-14-10-20-16-15-16-29-33-38-54l-17-41a296 296 0 0 1-7-133l12-42c10-29 26-56 46-79l16-19c20.3-23.5 47.6-40 78-47 13-3 25-2 37 1a183.8 183.8 0 0 1 45 19c13 9 25 19 35 31l19 23c23 28 38 60 46 95l7 32c3 13 3 25 3 40Zm-341 9 1 21c1 16 3 32 8 47l17 39c7 16 18 31 31 43l6 6c14 13 30 23 46 33 15 10 32 16 50 20h14c11-2 21-5 31-9 2-1 3-2 3-4v-2c3-11 15-17 25-12 2 1 4 0 6-1 18-11 34-25 48-41 7-7 12-15 17-24l13-27c5-12 10-25 12-38 7.7-37.7 7-76.6-2-114l-7-26c-1-2-2-3-4-3l-5-2-7-7c-3-5-2-12 2-15 2-3 2-5 1-8l-2-3-21-39c-6-11-14-22-23-31-7-8-16-13-24-19h-2c-3 4-8 6-12 7-9 2-19-5-19-14v-7c1-4 1-4-2-5l-27-9c-5-2-10-2-14 0l-37 13-2 1v3c5 7 3 17-4 22-5 4-11 3-15-2-2-2-3-5-3-7-1-2-1-2-3-1-17 10-31 25-41 42l-13 23c-14 23-25 47-31 73l-8 32c-3 14-3 28-3 45Zm223-211c3-1 7-2 9-5 2-2 2-2 0-3-8-5-16-10-25-13-1-1-2 0-2 1-1 3 0 5 1 8 3 5 8 9 14 11l3 1Zm-101-8c0-3 0-5-2-8-1-1-2-2-4-1l-14 9c-2 1-2 2-2 3 2 6 6 9 11 9 8-1 11-5 11-12Zm110 403-1-1-10 1c-7 1-11 5-13 12v1h2l21-12h1v-1Zm73-291c0 4 0 7 2 8l8 3c1 0 2 0 1-1l-7-19h-2c-2 3-2 6-2 9Z"/>
    <path fill="#A7BFB9" d="M181 433.2c0-17 0-31 3-45l8-32c6-26 17-50 30-73l14-23c10-17 24-32 41-42 2-1 2-1 3 1 0 2 1 5 3 7 4 5 10 6 15 2a16 16 0 0 0 4-23v-2l2-1 37-13c4-2 9-2 14 0l27 9c3 1 3 1 2 5v7c0 9 10 16 19 14 4-1 9-3 12-7h2c8 6 17 11 24 19 9 9 17 20 23 31l21 39 2 3c1 3 1 5-1 8-4 3-5 10-2 15l7 7 5 2c2 0 3 1 4 3l7 26c9 37.4 9.7 76.3 2 114-2 13-7 26-12 38l-13 27c-5 9-10 17-17 24-14 16-30 30-48 41-2 1-4 2-6 0-10-4-22 2-25 13v2c0 2-1 3-3 4-10 4-20 7-31 9h-15c-17-4-34-10-49-20-16-10-32-20-46-33l-6-6c-13-12-24-27-31-43l-17-39c-5-15-7-31-8-47l-1-21Zm128-121-11 2-11 1-12 1c-10 1-19 4-26 10l-12 12a33 33 0 0 0-2 35l7 13 1 4-4-2c-9-8-17-17-25-27v-2c-2-2-3-2-4 0l-3 5c-3 6-4 12-3 19l2 7c1 5 1 11-2 16l-5 9c-3 5-4 10-3 15 2 12 7 23 16 31 2 2 3 2 5 0l8-9 2-1v2l-3 8c-2 12 4 25 17 27l3 1c5 1 8 2 11 5l9 5c4 3 9 5 15 5 8 1 17 0 25-2l14-2 9-1 15-3h1l-1 1-7 5c-3 3-3 4 0 7 2 3 5 4 9 4s8 0 12-2l14-3 9-1c6-1 12-5 16-9l9-9 7-4c16-5 32-11 45-23 6-6 12-10 20-12 5.7-2 11.4-4.4 17-7v-3l-5-1-7-2 8-1 6-1c2 0 2-1 2-2-1-3-3-4-5-5l-7-4c-10-5-18-11-25-20l-8-10c-6-8-10-16-13-25l-3-8c-5-12-13-21-24-27-15-7-31-12-48-11l-9-1c-6 0-12-2-17-5-9-3-17-6-29-5Zm-95 210c3 0 6 0 9-2 6-2 8-8 6-13-1-8-10-13-18-12-6 1-10 4-11 11v3c0 8 4 12 12 13h2Zm107 48-1-2c0-6-5-11-10-12-11-1-19 4-20 15 0 9 5 14 13 15l6-1c7-2 12-7 12-15Zm95-294c0-4-1-8-4-11-6-8-16-6-21 0-6 7-4 19 4 24 5 4 12 3 17-2 3-3 4-7 4-11Zm-149 25c7 0 12-5 11-12 0-6-6-11-13-10-3 0-6 1-8 4-4 8 1 18 10 18Zm193 204c0-4-4-8-8-8s-8 4-8 8c0 5 3 8 7 8 5 0 9-4 9-8Zm-104-259c0-2-1-3-3-3-1 0-3 1-3 3 0 1 2 3 4 3l2-3Zm48 329c0-2-1-3-2-3-2 0-4 2-4 4l3 2c2 0 3-1 3-3Zm-146-6c0-2 0-3-2-3s-3 2-3 3c0 2 1 3 2 3 2 0 3-1 3-3Zm238-175c0-1-1-2-3-2l-3 3c0 2 1 3 3 3 1 0 3-2 3-4Zm-276-59c2 0 3-2 3-3-1-2-2-3-4-3-1 0-2 1-2 3l3 3Zm201 208 2-3-2-2c-2 0-3 1-3 2 0 2 2 3 3 3Zm-107 65-2 2c0 2 1 3 2 3l2-2c1-2-1-3-2-3Zm150-305-2-2c-1-1-2 1-3 2 0 1 1 2 3 2l2-2Zm-146 221c2 0 3-1 3-2-1-1-1-2-3-2l-2 2c0 2 1 2 2 2Zm-51-266-2 2c0 1 0 2 2 2l2-1-2-3Zm185 69-1-3c-2 0-2 1-2 2l1 2 2-1Z"/>
    <path fill="#A7BFB9" d="m404 222.2-3-1c-6-2-11-6-14-11-1-3-2-5-1-8 0-1 1-2 2-1 9 3 17 8 25 13 2 1 2 1 0 3-2 3-6 4-9 5Zm-101-8c0 7-3 11-11 12-5 0-9-3-11-9 0-1 0-2 2-3l14-9c2-1 3 0 4 1 2 3 2 5 2 8Zm109 404-21 12s-2 1-2-1c2-7 6-11 13-12l10-1s2 1 0 2Zm74-292c0-3 0-6 2-9h2l7 19c1 1 0 1-1 1l-8-3c-2-1-2-4-2-8Z"/>
    <path fill="#FFF" d="M309 312.2c12-1 20 2 29 5 8 3.8 17 5.8 26 6 17-1 33 4 48 11 11 6 19 15 24 27l3 8c3 9 7 17 13 25l8 10c7 9 15 15 25 20l7 4c2 1 4 2 5 5 0 1 0 2-2 2l-6 1-6 1 5 2 5 1v3l-2 1a97.8 97.8 0 0 1-15 6c-8 2-14 6-20 12-13 12-29 18-45 23l-7 4-9 9c-4 5-10 8-16 9l-9 2c-5 0-9 0-14 2-4 2-8 2-12 2s-7-1-9-4c-3-3-3-4 0-7l7-5v-1l-16 3-8 1-14 2c-8 2-17 3-25 2-6 0-11-2-15-5l-9-5c-3-3-7-4-11-5l-3-1c-13-2-19-15-17-27l2-8-9 8c-2 2-3 2-5 0-9-8-14-19-16-31-1-5 0-10 3-15l5-9c3-5 3-11 2-16l-2-7c-1-7-1-13 3-19l3-4c1-3 2-3 4-1v2c8 10 16 19 25 27 5 4 3-1 3-2l-7-12c-3-6-5-12-4-18 0-6 2-13 6-18l12-12c7-6 16-9 25-10l13-1 11-1 11-2Zm68 172h26c8-2 16-4 23-8 2-1 2-1 1-3-7-10-16-15-28-17l-28-4c-11-2-18-9-22-20-2-5-1-10-1-15 1-7 2-13 0-19l-6-12-6-12-3-15c2-9 6-17 12-23l8-7 1-1-2-1c-11-2-21-2-32-2-10 1-18 3-26 8-5 4-10 8-12 13l-10 13c-8 6-12 15-14 25-1 11-4 21-6 31-3 10-4 20-3 30 1 7 3 13 7 19 4 5 9 10 15 14 9 5 17 9 27 12 8 2 15 3 23 2 7 0 13-2 19-4 10-3 20-4 30-4h7Zm-22-124 2 10 7 11c3 6 4 11 4 18l1 10c1 6 3 12 9 16 3 3 8 5 12 6l15 5a81.5 81.5 0 0 1 35 23c3 2 3 2 6 0 9-7 18-12 29-14 5 0 9-2 13-3l1-1h-1l-11-3-2-1v-2h3l11-1 4-1-3-3-3-2-9-4c-8-3-14-7-19-14l-20-29-14-22c-5-9-12-15-21-19-9-5-18-7-28-9l-3 1-11 11-5 8-2 9Zm-5 62c-1 14 9 24 19 26l8 1 19 3c12 2 22 8 31 18l3 3 4-3 1-1 1-3-2-2c-6-8-13-14-21-19a114 114 0 0 0-32-13c-11-5-18-13-20-25v-4c0-11-2-22-7-32l-1-4c-3-14-1-26 10-36l1-1-1-1-4-1-3 1c-7 6-13 13-16 22-3 8-3 16 1 23l6 8c4 5 6 11 5 18l-2 22Zm-72-104h-2c-8 0-14 3-19 10l-9 9-7 5c-6 6-9 13-7 22l4 9c4 5 7 10 8 17l1 3 2 1 1-1 5-14c2-8 6-16 10-23l7-11c3-7 7-12 13-16 14-8 29-11 45-9l6 1h1l-1-1c-7-3-14-6-22-5l-8 2c-6 2-13 3-20 2l-8-1Zm-78 110c0 11 5 20 12 29 1 1 2 1 2-1 2-8 6-12 13-16l10-5 2-4c0-10 2-20 7-29 1-3 1-3-2-4-13-6-23-14-28-27l-2-5-1-1-1 1 1 15c1 9 0 17-5 25l-5 10c-2 3-3 7-3 12Zm93 72 7-1h2l-2-1c-10-3-19-8-28-13-10-6-18-14-24-23-3-3-5-8-6-12l-3-10v-1l-1 1c-8 8-11 18-8 29 2 8 7 14 15 17l14 7c3.5 2.4 7.6 4 12 5l22 2Zm106-12-17 1-31 5-4 3-6 6-4 2v1c3 4 6 5 11 5l6-2 14-4c11-3 22-8 31-16l1-1h-1Zm-185 34h-2c-8-1-12-5-12-13v-3c1-7 5-10 11-11 8-1 17 4 18 12 2 5 0 11-6 13-3 2-6 2-9 2Zm-9-15 1 8c2 4 5 6 9 6s7-2 9-5c3-7-2-18-9-20-5-1-9 2-10 7v4Zm116 63c0 8-5 13-12 15l-6 1c-8-1-13-6-13-15 1-11 9-16 20-15 5 1 10 6 11 12v2Zm-4 5c0-5-2-11-5-14-2-4-5-4-11-3-4 1-7 4-7 9l2 9c2 5 6 7 12 7 5 1 9-3 9-8Zm99-299c0 4-1 8-4 11-5 5-12 6-17 2-8-5-10-17-4-24 5-6 15-8 22 0 2 3 3 7 3 11Zm-4 2c0-4-2-9-4-12-4-5-9-5-13-2-3 2-5 5-5 8-2 7 2 15 8 18 6 2 11-1 13-6l1-6Zm-145 23c-9 0-14-10-10-18 2-3 5-4 8-4 7-1 13 4 13 10 1 7-4 12-11 12Zm-10-12 2 7c3 4 8 4 12 0 3-4 3-11-2-15l-3-1c-6 0-9 3-9 9Zm203 216c0 4-4 8-9 8-4 0-7-3-7-8 0-4 4-8 8-8s8 4 8 8Zm-6 5 4-3c1-2 0-4-1-6l-4-2c-2-1-4 0-5 1-2 2-2 4-1 6s3 4 7 4Zm-98-264-2 3c-2 0-4-2-4-3 0-2 2-3 3-3 2 0 3 1 3 3Zm48 329c0 2-1 3-3 3-1 0-3-1-3-3 0-1 2-3 4-3 1 0 2 1 2 3Zm-146-6c0 2-1 3-3 3-1 0-2-1-2-3 0-1 1-3 3-3s2 1 2 3Zm238-175c0 2-1 4-3 4s-3-1-3-3l3-3c2 0 3 1 3 2Zm-276-59-3-3c0-2 1-3 2-3 2 0 3 1 4 3 0 1-1 3-3 3Zm201 208c-1 0-3-1-3-3 0-1 1-2 3-2l2 2-2 3Zm-107 65c1 0 3 1 2 3l-2 2c-1 0-2-1-2-3l2-2Zm150-305-2 2c-2 0-2-1-2-2s1-3 2-2l2 2Zm-146 221c-1 0-2 0-2-2l2-2c2 0 2 1 3 2 0 1-1 2-3 2Zm-51-266 2 3-2 1c-2 0-2-1-2-2l2-2Zm185 69-2 1-1-2c0-1 0-2 2-2l1 3Z"/>
    <path fill="#A7BFB9" d="M377 484.2h-7c-10 0-20 1-30 4-6 2-12 4-19 4-8 1-15 0-23-2-10-3-18-7-27-12-6-4-11-9-15-14-4-6-6-12-7-19-1-10 0-20 3-30 2-10 5-20 6-31 2-10 6-19 14-25l10-13c2-5 7-9 12-13 8-5 16-7 26-8 11 0 21 0 32 2 3 0 1 2 1 2l-8 7c-6 6-10 14-12 23l3 15 6 12 6 12c2 6 1 12 0 19 0 5-1 10 1 15 4 11 11 18 22 20l28 4c12 2 21 7 28 17 1 2 1 2-1 3-7 4-15 6-23 8h-26Z"/>
    <path fill="#A7BFB9" d="m355 360.2 2-9 5-8 11-11 3-1c10 2 19 4 28 9 9 4 16 10 21 19l14 22 20 29c5 7 11 11 19 14l9 4 3 2 3 3-4 1-11 1-4 1c-1 1 2 2 3 2l11 3s2 0 0 1c-4 1-8 3-13 3-11 2-20 7-29 14-3 2-3 2-6 0l-3-3c-9-9-20-16-32-20l-15-5c-4-1-9-3-12-6-6-4-8-10-9-16l-1-10c0-7-1-12-4-18l-7-11-2-10Zm88 58c2 0 5-2 5-5-1-2-3-4-5-4-3 0-5 2-5 4 0 3 2 5 5 5Z"/>
    <path fill="#A7BFB9" d="m350 422.2 2-22c1-7-1-13-5-18l-6-8c-4-7-5-15-2-23 4-9 10-16 17-22l3-1 4 1c2 0 1 1 0 2-11 9-13 22-10 36l1 4c5 10 7 21 7 32v4c2 12 9 20 20 25l6 2c9 2 17 6 26 11a73.3 73.3 0 0 1 23 21l-1 3-1 1-4 3-3-3c-9-10-19-16-31-18l-19-3-8-1c-10-2-20-13-19-26Zm-64-103c7 1 14 0 20-2l8-2c8-1 21 5 22 5v1l-6-1c-16-2-31 1-45 9-6 4-10 9-13 16l-7 11c-4 7-8 15-10 23l-5 14-1 1-2-1-1-3c-1-7-4-12-8-17l-4-9c-2-9 1-16 7-22l7-5 9-9c5-7 11-10 19-10l10 1Zm-86 109c0-5 1-9 3-12l5-10c5-8 6-16 5-25l-1-15c0-2 1 0 2 0l2 5c5 13 15 21 28 27 3 1 3 1 2 4-5 9-7 19-7 29l-2 4-10 5c-7 4-11 8-13 16 0 2-1 2-2 1-7-9-12-18-12-29Zm8 0 1 8 1 2c0 2 1 0 1 0l1-4c0-6 1-11 3-16l3-8v-10l-2 1c-1 6-3 11-6 16l-2 11Zm26-22c0-2 0-5-2-7-1-2-2-4-4-3v18l-3 11-1 8v1l1-1c1-6 3-11 6-16 2-3 3-7 3-11Zm59 94-22-2-6-2-6-3-14-7c-8-3-13-9-15-17-3-11 0-21 8-29l1-1v1l3 10c1 4 3 9 6 12 6 9 14 17 24 23 9 5 18 10 28 13 1 0 2 2 0 1l-7 1Zm106-12s2 0 0 1c-9 8-20 13-31 16l-14 4-6 2c-5 0-8-1-11-5v-1l4-2 5-6 5-3 31-5 17-1Zm-194 15c1-5 5-8 10-7 7 2 12 13 9 20-2 3-5 5-9 5s-7-2-9-6l-1-12Zm112 72c0 5-4 9-9 9-6-1-9-3-12-8l-2-9c0-5 3-8 7-9 6-1 9-1 11 3 3 3 5 9 5 14Zm95-297-1 6c-2 5-7 8-13 6-6-3-10-11-8-18 0-3 2-6 5-8 4-4 9-3 13 2 2 3 4 8 4 12Zm-155 11c0-6 3-9 9-9l3 1c5 4 5 11 2 15-4 4-9 4-12 0l-2-7Zm197 221c-4 0-6-2-7-4s-1-4 1-6c1-1 3-2 5-1l4 2c1 2 2 4 1 6l-4 3Z"/>
    <path fill="#FFF" d="M443 418.2c-3 0-5-2-5-5 0-2 2-4 5-4 2 0 4 2 5 4 0 3-3 5-5 5Zm-235 10 2-11c3-5 5-10 6-16 1-3 2-1 2 0v9l-3 8c-2 5-3 10-3 16l-1 4-2-2-1-8Zm26-22c0 4-1 8-3 11-3 5-5 10-6 16 0 1-1 3-1 0l1-8 3-11v-18c2-1 3 1 4 3 2 2 2 5 2 7Zm133 168.5 2.8 2.8 2.8-2.8-2.8-2.8-2.8 2.8Zm-5.9-19c0 .4-.3 6.8-.2 13.3-6.8.5-5.7-13.3-5.3-15 .2-1.4-4.4 1.7-6.6 3.8.7 1.3 1.7 1 3 .5-.5 6.2 3.8 11.8 9 11.7.1 6.4.8 12.5 2.6 13 .2 0 .5-6.5.6-13.7 12.2-3.8 7.5-18.3 7.5-18.3-.2-.8-2 .4-6 3.9 1.6 1.7 2.4.7 3.6.3 1 1.9 1.4 10.5-5 13l.2-18-.4-.2c-1.8.2-5 3.4-7.5 6 1.4 2.2 3.1.2 4.5-.3"/>
  </g>
</symbol></svg>
