<svg xmlns='http://www.w3.org/2000/svg' viewBox='0 0 696 830' fill='none'><symbol id='PRAC_Fill'>
  <g fill="none">
    <path fill="#FDBE00" d="M591 428.4v23l-2 23-2 17-6 42a313.3 313.3 0 0 1-90 144 160.5 160.5 0 0 1-90 44l-30 5-13 1-8 1-25-2-26-4a182 182 0 0 1-91-43 562.4 562.4 0 0 1-51-57c-10-14-19-30-26-46-8-17-14-34-17-53l-3-23c-1.6-16.3-3-32.6-4-49a419.7 419.7 0 0 1 19-157l12-29 9-24a464.3 464.3 0 0 1 48-73c14-16 30-29 48-39 12-7 26-12 39-17l21-7c8-2 17-3 25-3 9.7-.5 19.3-.5 29 0h20c9 1 17 3 26 6l30 11c26.9 11 50.9 28 70 50l32 43c7 11 13 23 18 36l15 40c7 17 12 34 15 52l4 23c3.4 21.5 4.7 43.3 4 65"/>
    <path fill="#FFF" d="m126 445.4 1 24 2 16c3.2 17.8 7.2 35.5 12 53a235.8 235.8 0 0 0 57 94l23 23c20 19 44.4 32.7 71 40l35 8 18 1c9 1 18 0 27-1a753 753 0 0 0 57-16c17-7 33-18 46-31l14-12 20-22a253.5 253.5 0 0 0 49-88 427 427 0 0 0 14-80l-1-21-1-19-1-14c-2-17.7-4.3-35.4-7-53-3-17-8-32-14-48l-15-38c-5-16-13-30-23-44a761.3 761.3 0 0 0-41-52 116 116 0 0 0-40-23c-19.6-6.3-39.7-11-60-14l-10-1-14-1-9 1-21 3c-23.7 5.3-46.8 13-69 23-12 7-22 15-30 26-12 14-23 29-33 45-7 10-12 22-17 34l-17 43a334.4 334.4 0 0 0-20 90l-1 10-2 31v13m451-17-1 27-1 19c-2.7 20-5.7 40-9 60l-11 30a291.2 291.2 0 0 1-48 74l-24 24c-20 19-44 32-71 38l-25 5-17 3a140 140 0 0 1-52-2l-25-4c-29.7-5.8-57.1-20-79-41l-22-23c-10-10-18-21-26-32-7-11-14-22-19-33a195.8 195.8 0 0 1-20-66l-3-24-2-19a366.2 366.2 0 0 1 0-71l3-33c4-25 11-48 20-72l13-34c5-11 10-22 17-32 9-14 20-28 31-42 7-8 15-14 23-21 14-11 29-19 46-25l31-10c10-3 20-4 30-4l20 1 6-1c11 0 21 1 31 4l38 13a174.3 174.3 0 0 1 65 48l29 40c7 10 12 21 16 32l14 36c6 16 11 32 14 48l4 20c1.3 9.3 2.3 18.6 3 28l1 24v15"/>
    <path fill="#FFF" d="M402 456.4v-4c0-4 0-4-4-5l-2 1v13c0 2 1 3 2 3h3l1-2v-6m106 18 1 9h1l1-8 3-29c0-3 0-4-4-3l-1 1v25l-1 5m-293 30v-3c0-1 0-2-2-2a185 185 0 0 0-13-2c-2 0-2 1-2 2l-1 12v1l1 2h2l11 2c1 0 2 0 2-2v-3l2-7m174 16 1 3h14l-1-13-1-7-1-1-12 2v16m-184-63v1h8l1-2 1-12-2-2-9-1-5-1c-1 0-2 0-2 2 0 4.7-.2 9.4-1 14l1 1h8m156-11h-6l-1 1-1 6v7c0 2 0 2 2 2l15 1c2 0 2 0 2-2l-1-2v-7l1-3c0-2 0-3-3-3h-8m-77 57h-1l-2 1v12c-1 2-1 2 2 3h1l14 1h1l2-2v-13c1-1 0-2-1-2h-16m10-59h-6l-2 1-1 7v3l1 3c0 2 0 2 2 2h15l2-1v-7l1-7c0-1 0-2-2-2l-10 1m-43-3h-7c-2 0-3 1-3 3l1 13 2 2c4.7.4 9.3.8 14 1v-2l1-3v-12l-1-2h-7m89 20 8 1 2-2v-9l-1-6-5-1-12 1v7l-1 7c0 2 0 2 2 2h7m-71 57h8c1 0 2 0 1-1v-14l-1-1-17-1v1l-1 7v3l1 5 1 1h8m86 4h8l2-2v-9l1-5-2-1h-6l-10-1-2 2-1 6v2l1 7 2 1h7m-18 0h3c3 0 4 0 3-3v-7l-1-7-1-1-14-1c-2 0-2 0-2 2v4c-1 3 0 6 1 10v1l1 1 10 1m-109-64 8 1 1-2 1-6 1-3v-5l-1-1h-4l-12 1h-3l-2 1 2 14h9m87 45h-7c-5 0-4 0-5 4v11l2 2 14 1c3 0 3 0 3-3l1-3v-11l-2-1h-6m69-39h8l1-2v-14c0-2 0-2-2-2h-12c-5 0-5 0-5 5v11l1 2h9m-7 58 8 1 2-2-1-3v-6l1-7c0-2-1-2-2-2l-13 1c-5 0-4 0-4 5v11c-1 1 0 2 1 2h8m-126-23v1h-7c-6 0-5 0-5 5v11l-1 2 2 2h3l10-1h1l2-2 1-5v-11l-1-2h-5m16-38 14-2c1-3 2-5 1-8v-6l-2-2-11-1h-5l-2 1v14c0 4 0 4 4 4h1m53-19-7 1h-3l-1 2v14l2 2h11c8 0 7 2 7-7v-1l-1-9c1-1 0-1-1-1l-7-1m-103 63h-1l1 5v6l2 2 14 2c4 0 4 0 3-4l1-10v-4l-1-2h-17l-2 1v4m-26-79v-4l-1-1c-2 2-5 3-8 3l-1 1v18c.7 19 3.7 37.8 9 56l1 4c2-1 1-3 1-4v-17c1-10 1-19-1-29l-1-17 1-10m321 11h2l-1-1-14-10-7-6c-6-6-13-10-21-14l-12-9c-4-5-9-8-14-12l-5-2h-4l-14-2c-10-1-19-3-28-6l-9-3-21-5-29-7c-11-4-21-7-32-9h-4l3 2c15 7 29 15 40 26 6 5 11 10 18 14l9 5 27 17 19 16c4 3 9 5 15 5l16-2 12 1 11 2h12l19-1 12 1m-6 10v-2c0-2 0-2-2-2l-7-1-16-2-13 1-14 1-17-2-15-1h-3l-8 1-1 1v3c0 11 0 21-3 31-1 7-1 13 1 20l1 4c1 8 2 16 0 24l1 1 8-1c6-2 12-3 19-3l15-1h7l16-3 18-2h5c2 0 3 0 3-2l3-7v-2l1-11c-1-4 0-9 1-14v-10l-1-12 1-9m-142 53h35c3 0 3 0 4-3l1-6 1-7-2-16c0-2-1-2-2-2l-10 1h-11l-16 1-16-2-25-2-21 1c-10 1-21 0-32-2l-19-1-22 1-13-1-19-2-1 1v11l2 21c0 2 0 2 2 2h9l37 2h12l20 1 7-1 21 2 24 2h4l30-1m22-57h6l5-1 5-2 1-5v-3h-5c-2 0-4-2-5-4v-1c-1-2-1-2-3-2-3 1-6-1-7-4l-1-2c-1-2-1-2-3-2-3 0-6-2-7-5-1-2-2-2-3-2-3 0-4-1-6-3l-2-4-2-2c-4 0-6-2-8-5v-2h-3c-3 0-6-1-7-5-.7-1.3-1.7-2-3-2h-2c-3 1-5-1-6-3l-1-2-1-1c0-1.3-.7-2-2-2-4 0-7-1-9-5v-1l-1-2h-7c-2-1-4-3-5-6l-2-1h-2c-3 0-5-2-6-5v-2l-1-1-3 1v1l-1 1c-1 4-4 6-8 6l-2-1-1 1v2c-2 4-4 5-8 5h-1l-2 1-1 2c-1 3-4 5-7 5l-3-1-2 2-1 1c-2 3-5 5-9 4h-1l-2 1v1c-2 3-5 5-8 5h-2l-3 1-1 2c-1 3-4 4-7 4l-3-1-1 3c-2 4-4 6-8 5h-1c-1 0-2 0-2 2v1c-1 3-3 6-6 7h-3l-1 1 2 16v2c0 2 1 2 2 2h5l9-1h18c8 2 16 2 24 2h51l23 1h19l20 1 18 2m128-20h1l-2-22-3-19-11-42c-4-13-9-25-15-37h-3l-2 4-3 7c-3 6-8 11-13 14l-8 4-4 2c0-2 1-3 3-4l7-7 8-7 12-16c1-1 0-4-1-4h-1l-2 2-10 7c-6 4-12 7-19 8l-9 2c-6 1-11 3-16 6l-5 4-8 5-5 2h-3l-1-2 2-1 4-4-1-1-7-3-13-7-6-4c-3-2-6-3-9-2-6 0-12 2-17 3l-1 1h1l6 4v1h-1l-7-3-9-5-7-5c-5-3-10-4-16-3h-4c-7 1-12 0-17-3l-5-3-8-7-9-6h-2l-2 14-2 12c-2 10-7 18-11 27v-1l5-15 3-14v-3h-1l-6 6a176.9 176.9 0 0 0-40 47l-2 3-1 1v-1a57.1 57.1 0 0 1 8-16c5-8 13-16 20-23l13-12 5-7 6-13 1-3c-2 0-2 1-3 2l-2 2-6 6-24 15-34 18-2 4-2 5-10 36a177.3 177.3 0 0 0-6 41v1l1-1 12-8 10-5 23-14c13-10 28-19 43-27l17-10c3-1 5-2 8-1l8 1 28 5c11 2 22 4 32 9l15 4 15 2 24 6c6 3 12 4 18 5l9 4 16 9 10 8 5 4c8 6.3 16.4 12.3 25 18l3 2 9 7h1v-9m-166-235h-4l-9 3c-10 3-20 6-30 11l-19 10-17 11-18 16-6 8c-4 4-6 8-9 13a8964 8964 0 0 0-29 53l-1 3v1h1l1-1c7-6 14-10 22-13a451.4 451.4 0 0 0 36-20l5-4c3-2 6-2 9 0l1 1 17 9c6 3 14 6 21 7 8 1 14 4 21 8l9 5 4 1 15-6c5-1 10-1 15 2l6 3a2027 2027 0 0 1 26 11c6-3 13-5 19-6 9-2 17-5 24-10l16-11 2-1 1-2-1-2-13-22c-8.5-15.8-20-29.7-34-41-11.6-7.5-23.2-14.8-35-22l-39-14-7-1m0 455 13-2c14-4 28-9 40-16l17-11a218.7 218.7 0 0 0 61-56l13-25 7-15v-1l-1-1-3 1-10 2-16 1-18 3-14 2-32 2-2 1-16 1-16-1c-9 0-17-2-25-3l-20-1c-14.7.2-29.4.9-44 2l-19-2-15-1-13-1-12 1-21 1h-1l-1 2 1 1 13 26 11 16a258 258 0 0 0 89 65c11 4 22.4 7 34 9m174-216a279 279 0 0 1-21 97l-12 27c-4 9-10 18-16 26l-16 19-19 16c-14 10-28 18-44 25l-31 10h-4c-6 2-12 1-18 1l-9-2c-16-3-31-8-45-16l-25-15c-11-7-20-15-28-24-9.1-12-17.8-24.3-26-37l-18-38c-9-22-14-45.3-15-69a332.2 332.2 0 0 1 1-59c2-15.6 5.4-31 10-46 11.3-41 33-78.1 63-108a140 140 0 0 1 31-29l15-9 29-11 23-4 9 1c16 2 31 8 45 14l19 12 16 14 8 9 16 19a244 244 0 0 1 52 102l7 32 2 17 1 26"/>
    <path fill="#FDBE00" d="M352 578.4h5c5 0 10 0 14-2 4-1 8-2 11-5l4-6c2-4 1-9-2-12l-7-4-10-2h-28l-30 2-10 1-19 1-16-1c-7-1-14-2-21-5 0 0-1 0 0 0 0 3 2 4 4 6l8 4 19 4c12 0 24 0 36-2l38-6h23c3 0 7 1 10 3 5 3 6 8 2 12l-1 2-5 4-18 3c-7 0-15-1-22-3a146.4 146.4 0 0 0-35 0c-4 1-8 2-11 5-4 3-5 9-3 14 1 3 3 5 6 6l8 5 12 4 19 4c11.5 2 22.6 5.7 33 11l5 2-4-4c-10-7-20-12-31-15l-18-5c-5-1-10-2-14-5l-6-3-3-3c-1-2 0-4 1-5l5-3 9-2h42m-4 65-10-2a179.3 179.3 0 0 1-49-19 363.5 363.5 0 0 1-45-33l-19-20-11-16-13-26-1-1 1-2h1l21-1 12-1 13 1 15 1 19 2 20-1c14.7-.5 29.3-.5 44 0 8 1 16 3 25 3 10.7.8 21.3.8 32 0l2-1 32-2 14-2 18-3 16-1 10-2 3-1 1 1v1l-7 15-13 25-16 19c-13 15-28 27-45 37l-17 11c-12 7-26 12-40 16l-13 2m0-455 7 1 39 14 14 8 21 14c7 5 12 11 18 17 6 7 11 15 16 24l13 22 1 2-1 2-2 1-16 11c-7 5-15 8-24 10-6 1-13 3-19 6h-4l-22-11-6-3c-5-3-10-3-15-2l-15 6-5-1-8-5c-7-4-13-7-21-8-7-1-15-4-21-7l-17-9-1-1c-3-2-6-2-9 0l-5 4-20 13-16 7c-8 3-15 7-22 13l-1 1c-1 1-1-1-1-1l1-3 14-28 15-25c3-5 5-9 9-13l6-8 18-16 17-11 19-10c10-5 20-8 30-11l9-3h4"/>
    <path fill="#FDBE00" d="M514 432.4h-1l-9-7-3-2c-2-3-6-5-9-7a436 436 0 0 1-31-23l-16-10-9-3c-6-1-12-2-18-5l-24-6a594.3 594.3 0 0 1-30-7c-10-4-21-6-32-8l-28-5-8-1c-3-1-5 0-8 1l-17 10c-15 8-29 17-43 27a200.3 200.3 0 0 1-33 19l-12 8c-1 2-1 0-1 0v-5l6-36 10-36 2-5c0-2 1-3 3-4l33-18c9-4 16-9 24-15l6-6c1 0 4-5 5-4s-5 12-7 16l-5 7-13 12a143.5 143.5 0 0 0-26 34l-2 5h1l2-3 6-9c10-14 21-27 34-38l7-6v2l-3 15-5 15v1c5-9 9-17 11-27l2-12 2-14h2l9 6 8 7 5 3c5 3 11 4 17 3h4c6-1 11 0 16 3l7 5c5.6 2.9 11.2 5.5 17 8v-1l-6-4h-1l1-1c5-1 11-3 17-3 3-1 6 0 9 2a240 240 0 0 1 19 11l7 3 1 1-4 3-2 2 1 2h3l6-2 7-5 5-4c5-3 10-5 16-6l9-2c7-1 14-4 20-8l9-7 2-2h1c1 0 2 3 1 4l-11 16-9 7-7 7c-1 1-4 2-3 4 1 1 3-1 4-2l8-4c6-3 10-8 13-14l3-7 3-4c0-2 1-1 2 0 6 12 11 24 15 37 5 19.9 9.7 39.9 14 60l2 23-1 9"/>
    <path fill="#FDBE00" d="m304 394.4-8 1-3 3c-1 6-2 12 0 17l1 4c0 2 1 3 3 2l9 2h13l9-2h2l1-2 2-13-1-7c0-2-1-3-3-3l-10-1-11-1h-4m-60 21c0 6-1 6 6 6h2l7 1 4 1c4 1 8 1 12-1l6-2 2-2v-4l1-9v-7c0-2-1-3-3-4h-17l-6-1-10 1c-2 0-4 1-4 4v17m142 28-18-2-20-1h-19l-23-1h-51c-8 0-16 0-24-2h-18l-9 1h-5c-1 0-2 0-2-2v-2l-2-16 1-1h3c3-1 5-4 6-7v-2l2-1h1c4 1 6-1 8-5l1-3h3c3 1 6 0 7-3l1-2 3-1h2c3 0 6-2 8-5v-1l2-1h1c4 1 7-1 9-4l1-1 2-2 3 1c3 0 6-2 7-5l1-2 2-1h1c4 0 6-1 8-5v-2l1-1 2 1c4 0 7-2 8-6l1-1v-1c1-1 3-2 4 0v2c1 3 3 5 6 5h2l2 1c1 3 3 5 5 6h7l1 2v1c2 4 5 5 9 5 1.3 0 2 .7 2 2l1 1 1 2c1 2 3 3 6 3h2c1.3 0 2.3.7 3 2 1 4 4 5 7 5h3v2c2 3 4 5 8 5l2 2 2 4c2 2 3 3 6 3 1 0 2 0 3 2 1 3 4 5 7 5 2 0 2 0 3 2l1 2c1 3 4 5 7 4 2 0 2 0 2 2l1 1c1 2 3 4 5 4h5v3l-1 5-5 2-5 1h-6m-165 38 2-2-2-2c-2 0-3 1-3 2s1 2 3 2m146 3-2-3c-2 0-3 1-3 2s0 3 2 3l3-2m-113-6c-2-1-3 1-3 2l2 3c2 0 3-1 3-3l-2-2m73 7c2 0 3-1 3-3 0-1-1-3-3-3l-3 3 3 3m-34-4c0-2-1-3-3-3s-3 1-3 3c0 1 1 3 3 3s3-2 3-3m41 20h-4l-24-2-21-2-7 1-20-1h-12a353.3 353.3 0 0 0-46-2c-2 0-2 0-2-2l-2-21v-11l1-1 19 2 13 1 22-1 19 1c11 2 21 2 32 2l21-1 25 2 16 2 16-1h11l10-1c1 0 2 0 2 2l2 16-1 7-1 6c-1 3-1 3-4 3h-35l-30 1m117-11v3l1-3v-3l1-1 5-3 1 1-1 3-2 5-2 1-1 1h2l2-2 1 1-7 8 5-3h2v2l-1 2-2 2-1 1h2v-1c1-1 2 0 2 1v4h2v-2l1-2h3l-3-2-1-5 1-1 1 1 1 1v-1l-3-2 1-3h1l3 1-3-3-1-2-1-5 1-1 4 2 2 3v4l1 1v-3l1-2 2 1 1 2v6l1-3v-2l1-1 3 3v3l1-1v-1l1-1h1l2 1-1-2-1-1v-1h1l1-2-2 1h-4v-2l3-3h1-1l-4 2h-5v-2l2-1v-1l-1 1c-4 1-4 1-6-1l-3-1v-2l3-2h4l5 2-3-2-1-2h3l7 3v-1l-5-3v-1c1-2 2-2 4-1l4 1v-1l-3-1-1-1 1-1 3-2h1l-1-1-4 2h-1v-2l-1-2v2l-1 3-3 2v-1l-1-4v-2 1l-1 6-1 2h-2v-4l-1-1v3c0 4 0 4-4 6h-1l-2 1v-6l2-3 3-2c-1-1-2 1-3 1h-1v-1c-1-1-1-2 1-3l5-3h-1l-5 2-1-1 1-3 3-2h-2c-1 1-1 1-1-1l-1-3h-1l-1 4h-2l2 2 1 3-1 1-4-2h-1v1l5 3 1 2-2 1-3-1 1 1c2 1 4 3 3 6l1 4-5-2-2-3v-4l-1-1v4h-2l-2-2v-6 1l-1 4c0 1 0 2-1 1l-2-2-1-3v1c-1 3-2 2-3 1l-2-1h-2l1 1 4 2v1l-3 2 4-1 3 1v2l-3 1-2 1v1h1l5-2h3v1l-1 1-2 1v1l6-2h2l4 2v1l-5 3h-3l-1-1h-1v1l2 2-2 1-4-1-4-2h-1v1h1l3 2v2l-2 1-3-1h-1 1l2 1v2l-3 2 1 1 3-2 1 1v3h1v-4l1-1 1-1 1 1 1 5 1-6c0-2 1-3 3-4v1l1 2m55-43-1 9 1 12v10c-1 5-2 10-1 14l-1 11v2l-3 7c0 2-1 2-3 2h-5l-18 2-16 3h-7l-15 1c-7 0-13 1-19 3l-8 1-1-1c2-9.3 1.7-19-1-28-2-7-2-13-1-20 2.5-11.2 3.5-22.6 3-34l1-1 8-1h3l15 1 17 2 14-1 13-1 16 2 7 1c2 0 2 0 2 2v2m6-10-12-1-19 1h-12l-11-2-12-1-16 2c-6 0-11-2-15-5l-19-16-27-17-9-5c-7-4-12-9-18-14a151 151 0 0 0-43-28h4c11 2 21 5 32 9l29 7 21 5 9 3c9 3 18 5 28 6l14 2h4l5 2c5 4 10 7 14 12l12 9c8 3 15 8 21 14l7 6 14 10 1 1h-2m-322-1 1 17c2 9 2 19 1 29v17l-1 4-1-4a229.8 229.8 0 0 1-9-57v-17l1-1c3 0 6-1 8-3l1 1v4l-1 10m27 69v-4l2-1h17l1 2v14c0 4 0 4-4 4l-14-2-2-2v-11m110-63c1 0 2 1 1 2a19 19 0 0 0 1 10c0 8 1 7-7 7h-11l-2-2v-14l1-2h3l7-1h7m-60 19h-1c-4 0-4 0-4-4v-14l2-1h5l11 1 2 2v6c1 2 0 5-1 8l-1 1h-13m-16 39h5l1 2v11l-1 5-2 2h-1l-15-1 1-2v-11c0-5 0-5 5-5h3l4-1m118 23-1-2v-11c0-5-1-5 4-5l13-1 2 1-1 8v6l1 3c0 1-1 2-2 1h-16m15-58h-9l-1-2v-11c0-5 0-5 5-5h12c2 0 2 0 2 2v14l-1 2h-8Zm-69 39h6l2 1v11l-1 3c0 3 0 3-3 3l-14-1-2-2v-11c1-4 0-4 5-4l7-1m-87-44h-9l-2-2 2-13h3l12-1h4l1 1v5l-1 3-1 6-1 2-8-1m109 64-10-1-1-1v-1c-1-4-2-7-1-10v-4c0-2 0-2 2-3l4 1 11 2 1 7v7c1 3 0 3-3 3h-3m11 0-2-2-1-6v-2l1-7 2-1 10 1h6l2 1-1 5v9l-2 2h-15m-87-4-1-1-1-6v-2l1-7v-1l1-1 17 3v14c1 1 0 1-1 1h-16m79-57h-7c-2 0-2 0-2-2l1-7v-7c0-2 0-2 2-2l10 1 5 1c2 1 0 4 1 7v8l-2 2-8-1m-89-20h7l1 1v9l-1 9h-2l-12-1-2-2-1-13c0-2 1-3 3-3h7m43 3 10-1c2 0 2 1 2 2v7l-1 7-2 1h-15c-2 0-2 0-2-2l-1-3v-3l1-7 2-1h6m6 59 2 2-1 5v8l-2 2h-1l-14-1h-1c-3-1-3-1-2-3v-12c0-1 1-2 2-1h17m61-57h9c2 0 2 1 2 3l-1 2v8l1 2c0 2 0 2-2 2l-15-1c-2 0-2 0-2-2v-7l1-6 1-1h6m-164 11-1-1v-3l1-11c0-2 1-2 2-2l5 1 9 1v15l-5 1h-3l-8-1m192 63v-16l2-1h11l1 7 1 13-2 1-13-4m-174-16-1 7-1 3c0 2-1 2-2 2l-11-2h-2l-1-2v-1l1-12c0-2 1-2 2-2 4.4.4 8.7 1 13 2 2 0 2 1 2 2v3m293-30 1-5 1-10-1-12v-3l1-1c4-1 4 0 4 3l-3 29-1 8h-1l-1-9m-106-18v6l-1 2h-3c-1 0-2-1-2-3v-13l2-1c4 1 4 1 4 5v4"/>
    <path fill="#FFF" d="m352 578.4-15-1-27 1-9 2c-2 0-3 1-5 3-1 1-2 3-1 5l3 2a45 45 0 0 0 20 9l18 5c11 3 21 8 31 15l5 4c-1 1-4-1-6-2l-8-3c-8-4-17-6-25-8l-19-4-12-4-8-5c-3-1-5-4-6-6-2-5-1-11 3-14 3-3 7-4 11-5l8-1 27 1 22 3 18-3a19 19 0 0 0 6-6c4-4 3-9-2-12-3-2-7-3-10-3h-23l-38 6c-12 2-24 2-36 2l-19-4-8-4c-2-2-4-3-4-6-1 0 0 0 0 0 7 3 14 4 21 5l16 1 19-1 10-1 30-3 28 1 10 2 7 4c3 3 4 8 2 12l-4 6c-3 3-7 4-11 5-4 2-9 2-14 2h-5m-98-159 9-1h15l2-1v-9l-2-7c0-2 0-3-2-3l-14 1h-12l-1 1-2 11-1 6 2 1h6m-10-3v-17c0-3 2-4 4-4l10-1 6 1h17c2 1 3 2 3 4v7l-1 9v4l-2 2-6 2c-4 2-8 2-12 1l-4-1c-3-1-6-1.3-9-1-7 0-6 0-6-6m56-15h-2l-1 1v2l-1 11v3l2 1h29l1-1v-10l1-6c0-2 0-2-2-2l-13-1-7 1-7 1m4-6h4l11 1 10 1c2 0 3 1 3 3l1 7-2 13-1 2h-2l-9 2h-13l-9-2c-2 1-3 0-3-2l-1-4c-2-5-1-11 0-17l3-3 8-1m-11 87c0 1-1 3-3 3s-3-2-3-3c0-2 1-3 3-3 2-1 3 1 3 3m34 4-3-3 3-3c2 0 3 2 3 3 0 2-1 3-3 3m-73-7 2 2c0 2-1 3-3 3l-2-3c0-1 1-3 3-2m113 6-3 2c-2 0-2-2-2-3s1-2 3-2l2 3m-146-3c-2 0-3-1-3-2s1-2 3-2l2 2-2 2m229 7v-1c-2 1-3 2-3 4l-1 6c0 1 0 1 0 0l-1-5v-1l-2 1-1 1v4h-1v-3l-1-1-3 1h-1l3-2v-2l-2-1c-1 0-2-1 0 0l3 1 2-1v-2l-3-2h-2c-1-1 0-2 2-1l4 2 4 1 2-1-3-3h1l2 1h3l5-3v-1l-4-2h-2l-6 2v-1l2-1 1-1v-1l-3-1-6 2 2-1 3-1v-2l-3-1-4 1c0 1-1 0 0 0l3-2v-1l-4-2c-2-1-2-3 1-1l2 1c1 1 2 2 3-1v-1l1 3 2 2c1 1 1 0 1-1l1-4c0-1 0-2 0 0v5l2 2h2v-3l1-1v5l2 3c2 1 3 2 4 1v-3c0-4-3-6-3-6l-1-1 3 1 2-1-1-2-5-3v-1h1l4 2 1-1-1-3-2-2s-1 0 0 0c0-1 0 0 0 0h2l1-4h1l1 3c0 2 0 2 1 1h2l-3 2-1 3 1 1 5-2h1l-5 3c-2 1-2 3-1 3l1 1 4-2-4 3-2 3v5h3c4-2 4-4 4-6v-2h1v4h2l1-2 1-6v-1 2l1 5 3-2 1-3v-2l1 2v2h1l4-2 1 1h-1l-3 2v2l3 1v1l-4-1c-2-1-3-1-4 1v1l5 3v1l-7-3h-3l1 2 3 2-5-2h-4l-3 2v2l3 1c2 2 2 2 6 1l1-1v1l-2 1v2h5l4-2h1-1l-3 3v2h3l3-1c1 1-1 1-1 2h-1v1l3 3-3-1h-1l-1 1-1 2v-3l-3-3-1 1v2l-1 3v-6l-1-2-2-1-1 2v2s0 1 0 0h-1v-4l-2-3-4-2-1 1 1 5 1 2 3 3c1 1 0 0 0 0l-3-1h-1l-1 3 5 3 2 2-2-1-3-2-1-1-1 1 1 5 3 2 1 1h-1l-3-2-1 3v2h-1l-1-1v-3l-2-1-2 1 1-1 2-2 1-2v-2c-1-1-6 2-6 3l-1-1 6-4c1 0 2-1 1-3l-1-1-2 2-2 1 1-2c1-1 4-4 4-6l1-3-1-1-5 2-1 2v3l-1 2-1-4"/>
    <path fill="#FDBE00" d="m248 418.4-2-1 1-6 2-11 1-1h12l14-1c2 0 2 1 2 3l2 7v9l-2 1h-15l-9 1-6-1m52-18 7-1 7-1 13 1c1 0 2 0 2 2l-1 6v10l-1 2-6-1h-23l-2-1v-3l1-11v-2l1-1h2"/>
    <path fill="#FFF" d="m449 484.4-2-1h-1m-24 74.2c0 .4-.2 6.8-.1 13.3-6.8.5-5.7-13.3-5.3-15 .2-1.4-4.4 1.7-6.6 3.8.7 1.3 1.7 1 2.9.5-.5 6.2 3.9 11.8 9 11.7.2 6.4.9 12.5 2.7 13 .2 0 .5-6.5.6-13.7 12.2-3.8 7.5-18.3 7.5-18.3-.2-.8-2 .4-6 3.9 1.6 1.7 2.4.7 3.6.3 1 1.9 1.4 10.5-5.1 13l.3-18-.4-.2c-1.8.2-5 3.4-7.5 6 1.4 2.3 3 .3 4.5-.3m5.9 19.2 2.8 2.8 2.8-2.8-2.8-2.8-2.8 2.8Z"/>
  </g>
</symbol></svg>
