<svg xmlns='http://www.w3.org/2000/svg' viewBox='0 0 696 830' fill='none'><symbol id='QCHC_Fill'>
  <g fill="none">
    <path fill="#A7BFB9" d="m119.8 422.4 1 28 1 13 3 25 3 30a263.1 263.1 0 0 0 61 118 519.5 519.5 0 0 0 50 45c19 12 40 19 62 23l26 4 22 2h4l4-1 12-1 32-5a162 162 0 0 0 82-41 961 961 0 0 0 33-34c20-24.6 36-52.3 47-82 5-16 7-31 9-47l3-24c5-36.2 4.7-73-1-109l-4-22c-3-16-7-31-13-47l-17-42c-4-13-11-24-18-35a501 501 0 0 0-41-52c-14-12-29-22-46-29-13-6-26-10-39-14-12-5-26-6-39-5h-17c-12-1-23 0-35 4l-23 7-26 11c-20 10-38 24-53 41l-26 35c-8 12-15 25-20 39l-12 29a322 322 0 0 0-25 136m-14 10a619 619 0 0 1 9-98c3-16 8-31 14-47l17-44c5-11 10-22 17-32 10-16 21-30 33-44 18-21.4 41-38 67-48 13-5 26-10 40-13 12-4 24-5 36-4h19c12-1 25 0 37 4l42 14c24 10.7 45.5 26.4 63 46a455.3 455.3 0 0 1 50 76l21 53c9.3 24 15 49.3 17 75l2 33c1.3 23.3 1 46.7-1 70l-3 24-6 39c-3 12-6 24-11 35a307.8 307.8 0 0 1-80 108c-20 19-45 32-73 39l-28 5c-10.3 1.5-20.6 2.8-31 4l-4 1h-9l-2-1-29-3-26-5c-29-6-55.9-19.3-78-39l-30-30a277 277 0 0 1-69-158l-2-24-1-11-1-25"/>
    <path fill="#FFF" d="m119.8 422.4 2-40c3-33 11-65 23-96l12-29c5-14 12-27 20-39l26-35c20.5-25 48.1-43 79-52l23-7c12-4 23-5 35-4h17c13-1 27 0 39 5 13 4 26 8 39 14 24.5 11.3 46.1 28 63 49 9 10 16 21 24 32 7 11 14 22 18 35l17 42c6 16 10 31 13 47l4 22c3.6 25.5 4.7 51.3 3 77l-2 32-3 24a226.2 226.2 0 0 1-69 143l-20 20a149 149 0 0 1-82 41l-32 5-12 1-4 1h-4l-22-2-26-4c-31.2-5.2-60.3-19-84-40-10-8-19-18-28-27a257.2 257.2 0 0 1-65-149l-2-25-1-13-1-28"/>
    <path fill="#A7BFB9" d="m521.8 421.4-1-20-1-17-8-35-7-23c-10-28-25-53-44-75l-28-31-10-9c-9-8-20-15-32-19l-4-2a131 131 0 0 0-41-9l-19 3a188.1 188.1 0 0 0-46 20 325.8 325.8 0 0 0-29 26l-15 18a244.3 244.3 0 0 0-59 124 257.4 257.4 0 0 0-4 42c.4 18.7 1.7 37.4 4 56 2 14 5 27 10 40a491.2 491.2 0 0 0 31 62l16 20c8 10 18 18 30 26l27 15c10 5 21 9 32 12l16 3h20l3-1c11-2 21-5 30-9 17-7 32-16 47-26l19-17 13-16c8-10 14-19 19-30l10-22c5-12 10-24 13-36 6-23 8-46 8-70m50 19-1 30c-1 15-5 31-9 46a236.3 236.3 0 0 1-64 118c-9 10-18 19-28 27-17 15-37 27-59 33-8 3-16 4-25 6l-8 2a132 132 0 0 1-58 0l-27-6c-27.7-6.6-53-20.8-73-41l-26-27a232.6 232.6 0 0 1-58-111l-6-28a222.4 222.4 0 0 1-4-54l1-19 1-14a422 422 0 0 1 16-87 717.6 717.6 0 0 1 38-90l31-43c7-9 15-16 24-23 7-6 15-10 23-13l24-9 31-7 21-3 7-1 15 1h10l30 6c13.8 3.8 27.5 8 41 13 18.6 9.4 35 22.7 48 39 16 21.9 30.4 45 43 69l20 51c12 31.3 18.8 64.5 20 98l2 35v2"/>
    <path fill="#FFF" d="m514.8 430.4-1-20-4-28c-3-14-7-29-12-43-5-17-12-32-20-47l-14-25a147.3 147.3 0 0 0-40-45l-12-9-20-11-37-13c-4-1-7-2-11-1l-6 2-11 4a267 267 0 0 0-41 18 959.7 959.7 0 0 0-26 19c-9 9-18 18-25 30l-17 31c-9 16-16 32-21 49l-11 38-4 23c-1.3 23-.6 46 2 69 2 14 5 28 11 42a424.1 424.1 0 0 0 30 56 229.5 229.5 0 0 0 67 55l4 2a144.3 144.3 0 0 0 51 17l14-2c15-4 29-10 43-18l12-7c19-12 36-26 50-42 7-8 13-16 18-25l13-26c8-19 14-39 16-59l2-34m7-9c-.5 36.3-7.6 72.2-21 106l-10 22c-5 11-11 20-19 30a525 525 0 0 1-32 33c-15 10-30 19-47 26-9 4-19 7-30 9l-3 1h-20l-16-3c-11-3-22-7-32-12l-27-15c-12-8-22-16-30-26-9.6-11-18.2-22.7-26-35-7-15-15-30-21-47-8.6-22.4-13.3-46-14-70-.4-17 0-34 1-51 2.1-15 5.4-29.6 10-44a244.4 244.4 0 0 1 52-96l15-19c8.4-10 18.2-18.7 29-26l12-7a188.8 188.8 0 0 1 53-16h4c13 1 25 4 37 9l4 2c12 4 23 11 32 19l10 9 11 11 17 20a243.8 243.8 0 0 1 51 98c2 11 6 23 7 35l2 17 1 20"/>
    <path fill="#A7BFB9" d="M413.8 331.4c0-2-2-4-4-4-3 0-4 2-4 4s2 4 4 4 4-2 4-4m-53-107c-3 0-5 2-5 4 0 3 2 5 4 5s4-2 5-4c0-2-2-4-4-5m125 188c0 3 2 5 4 5 3 0 5-2 5-4a4.5 4.5 0 0 0-4-5 4.5 4.5 0 0 0-5 4m-263-5c0-2-2-4-4-4-3 0-5 2-5 4 0 3 2 5 5 5 2 0 4-2 4-5m68 30c0-2-2-4-5-4-2 0-4 2-4 4 0 3 2 5 4 5 3 0 5-2 5-5m62-181c0-3-2-6-5-6s-6 3-6 6 3 5 6 5 5-2 5-5m-95 234c-3 1-6 3-6 6a6 6 0 0 0 12 1c0-4-2-6-6-7m17-226c0-5-3-8-7-8-5 0-8 3-8 8 0 4 3 7 8 7 4 0 7-3 7-7m128-1h-1l-2-2v-3l-1 1h-1c-2-1-3-2-3-5v-2l-1 2v2l-2-1-3-2v1l1 1 2 2-1 1-2 1c-1 0 0 0 0 0h4l3 2v1l-1 1v1h2c1-1 2 0 3 1v1h-1l-6 1c-3 0-5 0-6-3h-2l2 2-1 1-3 1 3 1v1l-1 2 3-1 4-2h10v1c-3 2-5 5-8 4-2 0-3 2 0 2v2l-3 5-1 1c-1 1 0 1 1 1l6-6 1 1c1 4 2 1 2 1v-3l1-4 2-3h1l1 11-1 2-2 2v2h1l2-2 1 1v1l1 1v-1l1-2 2 1h1v-1l-1-1c-2-1-3-3-3-5l-1-5 1-3v-1l4 3v2c1 2 2 0 2 0l3 3 1 4s1 1 1-1v-2h3l-1-1 2-1v-1h-3c-2 0-5-3-5-3l2-1h-1c-3 0-4-1-6-3v-1h1l11-1 2 1 2 1v-1l-1-1 2-1 1-1c0-1 2-1-1-1-2 0-2 0-1-2 1-1 0-2-2 1l-4 1-8 1h-3l2-2c1-2 2-2 4-2 1 0 4-1 3-2h-2v-2l4-6s1-1-1-1l-5 5-1 1-1-2c0-1-1-2-1 0v5c0 2-2 3-3 4l-2-3-1-9 1-3 2-2h-1c-2 1-2 1-3-1h-1v1l-1 1-1-1-1 1 2 2 2 6v7Zm-179 182v3h-3l2 2 1 2 1 6h-1l-1 1 3 6c0 1 0 2-1 1l-4-4c-3-1-4-3-4-6l-1-2-1 3v1l-2-2c-2-1-4-4-5-3s0 1 4 4l1 2 1 1h-3c-1 0-1 1 1 1 3 0 6 1 8 4l3 3h-3l-4-2v1l-1 1h-7l-2-2-1 1-1 1h-1v1h2v2l-1 1h1c2-2 4-2 7-2h3c2 1 2 1 1 3h-1l1 1 2-2 3-1h2v2c-2 2-3 3-6 2l-1 1c-2 0-2 1 0 1h1l1 1-3 3c-1 2-3 3-5 3-3 0-2 1-1 1l1 1-1 2h2l1 1v1l1-1 1-2v-2l5-5h1l1 2h1v-3c-1-2 0-3 1-5l3-2 1 1 1 3-1 3-1 2v2l1-1c2-2 3 3 1 6l-2 3s-1 0 0 0h1l1-1c1-1 2 0 2 1v4l1 1 1-1v-4c0-1 1-2 2-1h1l-1-2c-2-1-3-7-3-7h3l-2-2-3-4 1-2 1 1 7 7 1 2v1l1 2v-3l3 1 3 2c1 1 2 2 0-1l-3-3v-1l2-1 1-1h-6l-3-3-3-2-2-1v-2c2 0 5 0 6 2 2 3 2 1 2 1l-1-2h1c2 0 5-1 7 2l2 1h1v-1l-2-1 3-1c2 0 1-1 0-1l-2-1v-1l1-1s-1-2-2 0c-2 2-4 3-6 2h-3v-1l1-1-1-1-1 2h-2l-6-1v-1l3-4 3-2c5 0 5 0 2-1h-2l1-2 3-3 2-2 4-1-3-1 1-1c1-1-1-2-1-1l-2 1v-2l-1 1v4l-5 5h-1v-3h-2v4c1 2 0 2-1 3l-1 2-1 1-1-5 2-2h-1c-1 1-2 0-2-1l-1-6 1-2 2-1-1-1-2 1-1-5h-1v2m251-96c1 0 2-1 0-1l-2-1-12 2v-1l2-4-1-1-1 1-3 4-2 1h-4v-2l5-5 3-4c1-2 2-3 4-2l1-1-1-1-1-1 2-2v-2h-1l-1 2h-2l-1-1v1l-3 6-2 3-4 4c0 1-1 2-2 0v-4c-1-3-1-4 2-7l1-2h-4v-2l2-4c2-4 1-4 0-3s-2 4-2 0v-2h-1v2c-1 2-1 2-2 1l-2-1 1 2 2 2 1 2v3l-1 1-2-1h-1v1l1 1c3 1 3 4 2 6l-1 6-1 1-1-2c-1-3-3-5-6-7-2-2-3-4-3-7v-1l-1 1c0 1 0 2-1 1l-3-3 2 4v1h-1v1l1 1c2 0 3 0 4 2l2 3 5 6 2 2-1 1c-3 0-6 1-8-2l-3-2 3 3-1 2h-17c-1 0-2 1 0 1 3 2 6 2 10 1h7l1 1-2 2v1h1l3-3 3-1h3l1 1-2 3-6 6c-1 2-2 3-5 3v1l1 1v1l-1 2-1 1 1 1 3-3 1 1 2 1v-2c-1-1 0-3 1-4l3-3 3-6 1-1 1 1 1 8-3 7 1 1v-1l2-1v4c0 3-2 4-2 4h1l1 1v1h1v-1h4v-1l-3-2-1-1v-2l1-3 2 1h1v-1c-1-1-3-3-3-5l1-10h1l7 7 2 2c2 2 0 5 0 6h1l2-2 1 1 2 2 1-1-1-2-2-1 2-1c1 0 2-2-1-2s-4-1-5-3l-8-9 4-1h2l3 4 1-1-1-2v-1l14-2Zm-105 256c5 0 8-1 12-3l10-6 12-6 3-1 1-1v-1h-2l-13 5-9 4c-8 2-15 2-23-2l-7-3c-8-4-16-5-24-2l-9 3-12 5c-7 2-15 3-23 2h-3l1 2 11 4h10l12-4 9-4 9-4c5-1 9-1 13 2l5 3 6 4c4 2 7 3 11 3m-89-46a59.6 59.6 0 0 0-30 8v1h3l9-2c7-2 14-2 21 0l7 2c9 2 18 2 26-2l6-2 10-5 13-4c4-1 8-2 12-1l10 4 8 6c9 5 18 7 28 6 10 0 19-3 27-5l4-1v-1l-1-1h-3l-17 1c-11 0-22-2-32-6l-11-4c-8-3-17-4-26-2l-12 3-16 4c-8 3-16 3-24 2l-12-1m1-204h-7c0-1-2-1-1-2l6-5c1-1 2-3 4-3h5c2 0 1-1 1-2l-4-1 2-2 7-5 4-1c3.6 1 7.3 1.4 11 1v-1l-2-1-8-1-1-1 4-7 1-1c0-1 0-2-1-1l-2 1-6 5h-1l-3-9c-1-2-2-3-2 0l2 12-7 8h-2v-3s-1-2-1 0l-1 5-1 2a75.5 75.5 0 0 1-4 4h-1l1-11c0-2 0-3 2-4 2-2 4-3 5-6h-2l-3 3h-1l-1-1 1-14 1-2c2 0 3-1 4-3v-1h-1l-3 1c-1 1-1 0-1-1h-1l-1 2-4-3h-1l3 5 1 3-2 11v2h-1l-1-1-2-2-2-2c0-1-2-1-1 1l4 7 1 4-3 13h-1l-5-6-2-2 1-7-2 1c-.7 1.3-1.7 1.7-3 1l-2-2-3-3 1-4 1-4c0-2 1-5-1-5s-1 3-2 4l-1 4-1 1-1 1-1-1-3-3-1-1h-1l4 6-1 2h-4c-2 1-4 1-5 3v1h3l8-1 2 1 5 6-1 1h-2l-2 1 9 1 3 3 4 6 1 1h-1l-8-2-13-3c-2 0-4 0-5-2l-4-4h-1l-1 1c1 1 4 4 3 5h-12v1l4 1 8 2v1l-4 3c-2 1 0 1 0 1l7-2h17l9 2-5 4-7 1h-2c-1 1 3 2 4 2v1l-6 8-4 1-7-1h-4l-1 1 1 1 4 1h5v1l-7 5c0 1-2 2-1 3l6-2 4-4h1l1 1v3l1 6h2v-11c-1-2 0-2 1-3l8-5c1-1 2-2 3-1l2 4v-4c0-2 0-4 2-5 1-1 2-3 3-2s0 12-2 18l-1 1-6 5-1 2 1 1 1-1 3-2 2 1v8c0 2-1 2-2 3l-3 3-1 1h2l3-1h1v1h2v-1h2l3 3h1v-1l-1-1-3-4v-2l1-7 1-1h1l2 2 2 1v-3l-4-5-1-2c-1-7 0-13 2-20h1l9 9c2 2 3 3 3 6v4l1-1 1-3 3 3 3 5 1 2-1 3-1 9 1 1h1l2-10h2l4 4 2 1c1 1 1 0 1-1l-1-2-3-5v-1h11l-1-1-2-1-9-1-3-1-6-6-1-1 2-1h3c2-1 0-2 0-2h-6l-3-2a43.7 43.7 0 0 0-8-11c-1 0 0 0 0 0h3l15 3h7c2 0 2 1 3 2l4 3 2 2 1-1v-1l-3-3v-2h7v-1l-6-2v-1l3-3 1-2-1-1-1 1-5 4-4 1c-6.9-1.6-13.9-2.6-21-3m71 139c0-16.1 3-32 9-47l6-8c4-4 8-5 13-3l7 5 8 9 9 9a67.1 67.1 0 0 0 50 22c10 0 20-3 29-7l6-5 5-4-1-2-3-1c-4 0-8-1-11-3l-7-5-21-20c-5-6-11-11-17-15l-9-8-3-3c-6-7-14-12-23-14l-1-2v-1c2-6 1-12-2-17l-4-7c-4-5-6-11-7-17-2-10-5-19-10-27l-5-9c-3-6-5-12-5-19l2-10 1-4c1-1-1-3-2-2l-4 2-9 9a74 74 0 0 0-17 58l4 15 5 24c2 10 1 19-3 28l-10 20-14 21-18 32c-4 9-8 20-9 31l-2 2-8 2-21 4a71.7 71.7 0 0 1-39-6l-8-4h-1v1l4 4c16 16 36 22 59 19l23-7 20-7c6-3 14-4 21-4 8-1 15 0 23 2l17 6 18 7c10 2 19 3 29 2 9 0 17-3 25-7 10-5 18-12 26-18 1-1 2-2 1-3h-3l-3 1-12 5c-14 5-28 8-43 10-13 2-26 1-39-3l-23-6c-2-1-2-1-2-3l-1-22m162-63-2 33c-2 21-8 41-16 60l-13 25c-5 10-11 18-18 26-14 16-31 30-50 42l-12 7c-14 8-28 14-43 18l-14 2-12-2c-14-4-27-8-39-15l-4-3-34-22c-12-10-23-21-33-33-5-4-8-10-11-16-7-13-14-26-19-39-6-14-9-28-11-42a292.8 292.8 0 0 1 2-92l11-38c5-17 12-34 21-49l18-31a139 139 0 0 1 31-36 977.3 977.3 0 0 1 35-22l25-10 11-3 6-2c4-1 7 0 11 1l37 13 20 11 12 9c9 5 16 12 23 20l17 25 14 25c8 15 15 30 20 47a720.8 720.8 0 0 1 16 71l1 20"/>
    <path fill="#FFF" d="m343.8 493.4 1-11a99.3 99.3 0 0 1 13-40l8-8c4-3 9-4 14-3 3 0 6 2 9 4l9 6 8 8 20 14c10 6 20 9 31 10h11l16-5 3-2-1-1-1 1c-6 0-12-1-18-4-5-3-10-7-13-12-4-4-6-8-9-13-3-6-7-11-13-15l-9-9-6-7c-5-5-11-8-18-10-3-1-3-1-3-4v-2c0-8-2-15-7-21-4-5-7-11-9-17-2-7-6-14-10-20l-5-10c-3-6-4-13-4-21l3-12v-2h-1l-1 1a111.2 111.2 0 0 0-18 46v13l4 25 3 12a49.6 49.6 0 0 1-7 40l-5 7-13 21c-7 12-12 25-16 38l-5 19-2 6c0 1 0 2 2 2l14-2h27v-5l-2-17m9 1 1 21c0 2 0 2 2 3l23 6c13 4 26 5 39 3 15-1 29-5 43-10l12-5 3-1h3c1 1 0 2-1 3-8 6-16 13-26 18-8 4-16 7-25 8-10 1-19-1-29-3l-18-7-17-6a83.2 83.2 0 0 0-44 2l-20 7-23 7c-23 4-43-3-59-19l-4-4v-1h1l8 4c12.1 6 25.6 8.5 39 7l21-5 8-2 2-2c1-11 5-21 9-31l18-32 14-21 10-19c4-10 5-19 3-29l-5-24-4-15c-2-9-1-17 1-25a74.3 74.3 0 0 1 25-42l4-2c1 0 3 1 2 2l-1 4-2 10c0 7 2 13 5 20l5 8c5 8 8 17 10 27 1 7 3 12 7 17l4 7c3 5 4 11 2 17v1l1 2c9 2 17 7 23 14l3 3 9 8c7 4 12 9 17 15 8.7 9 18.1 17.3 28 25 3 2 7 3 11 3l3 1 1 2-5 5-6 4c-9 4-19 7-29 7-10 1-19-2-28-6-8-4-16-9-22-16l-9-9-8-9-7-5c-5-2-9-1-13 3l-5 8c-3 4-4 9-5 13-3 12-6 23-5 35"/>
    <path fill="#FFF" d="M281.8 355.4c7-1 13 0 19 2h2l4-1 5-4h2v1l-1 1-3 3v1l6 2 1 1h-8l-1 1 1 1 3 3v1l-1 1-2-1-4-4c-1-1-1-2-3-2h-7l-15-2-3-1h-1l1 1 8 10 3 2h6l1 1-1 1h-3l-2 1 1 1 6 6 3 1 9 1 2 1 1 1-1 1h-7l-2-1h-1v1l3 5 1 2-1 1-2-1-4-4h-2l-1 6-1 4h-2c-.3-4.4.3-9 2-13l-1-2-4-5c0-1 0-3-2-3l-1 3-1 1v-4c0-3-1-4-3-6l-9-9h-1c-2 7-3 13-2 20l1 3 4 4v3l-2-1-2-2h-1l-1 1-1 7v2l3 4 1 1v1h-1l-3-3-2 1h-2v-1h-1l-3 1h-2l1-1 3-3 2-2v-9l-2-1-3 3h-1l-1-1 1-2 6-4 1-2a47.6 47.6 0 0 0 2-18h-1l-2 2c-2 1-2 3-2 5v4h-2v-2c0-3-1-2-3-1l-8 5c-1 1-2 2-1 3v11h-2l-1-6v-3l-1-1h-1l-4 4-3 2c-1 0-3 2-3 0-1-1 1-2 1-3l7-4v-2h-5l-4-1-1-1 1-1h4l7 1 4-1 6-8v-1h-2c-1-1-3-1-2-2h4c2 1 4 0 5-1l5-4 1-1h-1l-9-1h-17c-2 2-5 2-7 2h-1l1-1 4-3-1-1-7-2-4-1v-1h12l-1-3-2-2v-1h2l4 4c1 2 3 2 5 2l13 3 8 2h1l-1-1-4-6-4-2-6-1-2-1 2-1h2l1-1-5-6-2-1-8 1h-3l-1-1h1c1-2 3-2 5-3h4l1-1-4-7v-1l1 1 1 1 3 3 1 1h1l1-2 1-4c1-1 0-3 2-4l1 5-1 4-1 4 3 3 2 2c1.3.7 2.3.3 3-1h2v5l1 3 5 6h1l3-13-1-4-4-7v-1h1l2 2 2 2 1 1c0 1 0 0 0 0l1-2 2-11-1-3-3-5h1l2 1 2 2 1-2v-1l1 1v1l1 1 3-2h1v1l-4 4-1 1-1 14 1 1h1l3-3h2c-1 3-3 5-5 6s-2 2-2 4l-1 11h1l5-6 1-5v-1l1 1v3l1 1 1-1a700 700 0 0 0 8-10l-3-10v-2h1l1 2 3 9h1l6-5 2-1h1v1l-1 1-4 7 1 1 8 2h2l1 1h-1l-3 1-8-1h-4l-7 5-2 2 2 1h2v1l-1 1h-3c-2-1-4 1-6 3l-6 5v1l1 1h7m-1 204 12 1c8 1 16 1 24-1l16-5 12-3c9-2 18-1 27 2l10 4c10 4 21 6 32 6l17-1h3l1 1v1l-4 1c-8 3-17 5-27 5-10 1-19-1-28-6l-8-6-10-4c-4-1-8 0-12 1l-13 4-10 5-6 3c-8 3-17 3-26 1l-7-2c-7-2-14-2-21 0l-9 2h-3v-1h1c9-5 18-8 29-8m89 46c-4 0-7-1-11-3l-6-4-5-3c-4-3-8-3-13-2l-9 4-9 4-12 4h-10l-11-4-1-1v-1h3c8 1 16 0 23-2l12-5 9-3c8-2 16-2 24 2l7 3c8 4 15 4 23 2l9-4c4.8-2.2 9.8-4 15-5v1l-1 1-3 1-12 6-10 6c-4 2-7 3-12 3m95-254h-4v1l1 2v1h-1l-3-3-2-1-4 1 2 3 4 5 1 1c2 2 3 4 6 3l2 1v1h-1l-2 1 2 1 1 2-1 1-2-2-1-1h-1l-1 2v1l-1-1v-6l-2-2-7-7-1-1v1l-1 10 1 3 2 2v1h-1l-2-1-1 3v2l1 1 3 2v1h-4v1h-1v-1h-2v-1l1-1 1-3v-3h-2v1h-1v-1l1-2c2-1 2-3 2-4l-1-9v-1h-1l-1 1-3 6-3 3c-1 2-2 3-1 4v2l-2-1-1-1-3 3h-1v-1l1-1 1-2v-1l-1-1v-1c3 0 4-1 5-3l6-6 2-2-1-2h-3c-2 0-3 0-3 2l-3 2h-1v-1l2-2-1-1h-7c-4 2-7 1-10 0l-1-1 1-1h17l1-2-2-1-1-2 2 1 1 1c2 3 5 2 8 2h1v-1l-2-2-5-6-2-3c-1-2-2-2-4-2l-1-1h-1l1-1h1v-1l-2-4 3 3c1 1 1 0 1-1h1c0 3 1 5 3 7 3 2 5 4 6 7l1 2h1v-1l1-6c1-2 1-4-2-6l-1-1v-1h1l2 1 1-1v-3l-1-2-2-2-1-1h4v-3h1v2c0 2 0 2 2 1v-1h1v1l-1 2-2 4v2l1 1c1-1 2-2 3-1l-1 2c-3 3-3 4-2 7v4l1 1 1-1 4-4 2-3 3-6v-1l1 1h2l1-2h1v2l-2 2 1 1 1 1-1 1c-2-1-3 0-4 2l-3 4-5 6v1h4l2-1 3-4 1-1 1 1-2 4-1 1h1c4-1 8-2 12-1h3l-1 1-7 2h-3m-241 94v-3 1l1 3 1 2 2-1 1 1-2 2-1 1 1 6c1 1 1 2 2 1h1v1c-2 1-2 3-1 5v1l1-1 2-2v-7h2v3l1 1 5-6v-4l1-1v1h3v2h1l1 1h-1l-2 1-3 2-3 3c-1 1 0 1 1 2h1l-1 1h-2l-2 2-4 4v1l6 1h2l1-2h1v1l-1 1v1h3c2 1 4 0 6-1l1-1h1l-1 1v1l3 1-1 1-2 1 1 1v1h-1l-2-1c-2-3-5-2-7-2l-1 1 1 1-2-1c-1-2-4-2-6-1v1l2 1 3 2c1 1 2 3 4 3h4l1 1h-1l-2 1v1l4 3v2h-1l-3-3-3-1v4l-1-1v-3l-1-2-7-7-1-1-1 2 1 2 2 2 1 1 1 1-1 1-2 1c0 2 1 4 3 5l1 2h-1c-1-1-2 0-2 1v4l-1 1-1-1v-4c0-1-1-2-2-1l-1 1-1 1v-1l2-3 1-3-1-3v-1l-1 1-1 1v-2l1-2 1-2-1-4-1-1-3 2c-1 2-2 3-1 5l1 2-1 1h-1l-1-2h-1l-5 5v2l-1 2v1l-1-1-1-1-1 1-1-1 1-2-1-1c-1 0-1 0 0 0l1-1c2 0 4-1 5-3l3-3-1-1h-2l1-1 1-1c3 1 4 0 6-2v-2h-2l-3 1-2 2h-1v-1h1c1-2 1-2-1-3h-3c-2 0-5 0-7 2h-1 1v-3h-3l1-1h1l1-1 1-1c2 3 6 2 9 2l1-1v-1h1l1 1 3 1h2l-2-2-1-1c-2-3-5-4-8-4h-1v-1h3l-1-1-1-2-4-4 5 3 2 2v-4h1l1 2c0 3 1 5 4 7l4 3h1v-1c0-2 0-4-3-6l1-1h1l-1-6-1-2-2-2v-1l2 1h1v-3m179-182h-1l-1-2-1-2c0-1 0-2-1 0h-1c-2-1-3-2-3-5v-2l-1 2v2l-2-1-3-2v1l1 1 2 2-1 1-2 1h4l3 2v1l-1 1v1h2c1-1 2 0 3 1v1h-1l-6 1c-3 0-5 0-6-3h-2l2 2-1 1-3 1 3 1v1l-1 2 3-1 4-2h10v1c-2 2-5 5-8 4l-2 1 2 1v2l-3 5-1 1v1h1l6-6 1 1 1 1 1 1v-4l1-4 2-3h1l1 11-1 2-2 2v2h1l2-2 1 1v1l1 1v-1l1-2 2 1h1v-1l-1-1c-2-1-3-3-3-5l-1-5 1-3v-1l4 3v2l2 1v-1c1 1 3 1 3 3l1 4h1v-3l2 1h1v-1l-1-1 2-1h1l-1-1h-3c-2 0-5-3-5-3l1-1h1-1c-3 0-4-1-6-3v-1h1l11-1 2 1 2 1v-2l1-1 1-1h1-1l-1-1c-2 0-2 0-1-2v-1l-2 2-3 1-9 1h-3l2-2c1-2 2-2 4-2l3-1 1-1h-3v-2l4-6v-1h-1l-5 5-1 1-1-2v-1l-1 1v5c0 2-2 3-3 4l-2-3-1-9 1-2 3-2v-1h-2c-2 1-2 1-3-1v-1l-1 1v1l-1 1-1-1h-1v1l1 1c2 2 3 4 3 7v7Zm-128 1c0 4-3 7-7 7-5 0-8-3-8-7 0-5 3-8 8-8 4 0 7 3 7 8m-17 226c4 1 6 3 6 7 0 3-2 5-6 5-3 0-6-2-6-6 0-3 3-5 6-6m95-234c0 3-2 5-5 5s-6-2-6-5 3-6 6-6 5 3 5 6m-62 181c0 3-2 5-5 5-2 0-4-2-4-5 0-2 2-4 4-4 3 0 5 2 5 4m-68-30c0 3-2 5-4 5-3 0-5-2-5-5 0-2 2-4 5-4 2 0 4 2 4 4m263 5a4.5 4.5 0 0 1 5-4c2.5.3 4.3 2.5 4 5 0 2-2 4-5 4-2 0-4-2-4-5m-125-188c2 1 4 3 4 5-1 2-3 4-5 4-2-1-4-2-4-5 0-2 2-4 5-4m53 107c0 2-2 4-4 4s-4-2-4-4 1-4 3-4c3 0 5 2 5 4"/>
    <path fill="#A7BFB9" d="M343.8 493.4c.1 7.4.7 14.7 2 22l-1 1c-8.7-.2-17.3-.6-26-1l-14 2c-2 0-2-1-2-2l2-6 5-19c4-13 9-26 16-38l13-21 5-7a49.6 49.6 0 0 0 7-40l-3-12a210.3 210.3 0 0 1-4-38l2-10c3-13 9-25 16-36l1-1h1v2l-3 12c0 8 1 15 4 21l5 10c4 6 8 13 10 20 2 6 5 12 9 17a28.9 28.9 0 0 1 7 23c0 3 0 3 3 4 7 2 13 5 18 10l6 7 9 9c6 4 10 9 13 15 3 5 5 9 9 13 3 5 8 9 13 12a29.1 29.1 0 0 0 19 3l1 1-3 2-16 5h-11c-11-1-21-4-31-10l-20-14-8-8-9-6c-3-2-6-4-9-4-5-1-10 0-14 3l-8 8-7 16-6 24-1 11"/>
    <path fill="#FFF" d="M383 475.3c0 .4-.4 6.8-.3 13.3-6.8.5-5.7-13.3-5.3-15 .2-1.4-4.4 1.7-6.6 3.8.7 1.3 1.7 1 3 .5-.6 6.2 3.8 11.8 9 11.7.1 6.4.8 12.5 2.6 13 .2 0 .5-6.5.6-13.7 12.2-3.8 7.5-18.3 7.5-18.3-.2-.8-2 .3-6 3.9 1.6 1.7 2.4.7 3.6.3 1 1.9 1.4 10.5-5 13l.2-18-.4-.2c-1.8.2-5 3.4-7.5 6 1.5 2.3 3.2.3 4.5-.3m6 19 2.7 2.9 2.8-2.8-2.8-2.8-2.8 2.8Z"/>
  </g>
</symbol></svg>
