<svg xmlns='http://www.w3.org/2000/svg' viewBox='0 0 696 830' fill='none'><symbol id='RBIC_Fill'>
  <g fill="none">
    <path fill="#9D432C" d="m591.2 424-3 53-5 41c-2 20-8 40-17 59-15 31-33 59-58 83l-18 18c-22 21-49 34-78 41l-46 8c-13 2-27 1-41-1l-39-7c-30-6-57-20-79-41l-26-26c-25-27-43-57-57-91-5-14-9-29-11-45l-6-53a430 430 0 0 1 24-181l15-38a482.6 482.6 0 0 1 49-76 169 169 0 0 1 77-52l29-10c9-3 18-4 27-4l18 1h5l21-1c7 0 14 1 20 3 18 5 36 11 53 19a174.6 174.6 0 0 1 58 45c18.4 23 34.5 47.8 48 74l21 55c7 20 12 41 15 63l4 63"/>
    <path fill="#FFF" d="M126.2 434c-1 17 0 33 3 50l8 37c9 41 29 76 57 107l32 32a154.7 154.7 0 0 0 82 39c12 2 23 5 35 5 11 1 22 0 33-2l12-3c32.7-5 63.1-20.1 87-43a1251 1251 0 0 0 46-49c15-21 27-43 35-67l9-36c5-21 7-42 7-63l-5-63c-3-26-9-51-18-76-9.8-23.8-19.8-47.4-30-71-11-19-23-36-37-52-13-16-28-27-47-34a289.1 289.1 0 0 0-87-19l-31 3c-17 3-34 8-51 14-11 4-21 9-30 16s-17 15-24 23l-28 40c-7 11-13 22-18 35l-14 37c-12 29-19 59-22 90l-4 50m451-13c1 22 0 40-3 58l-3 28c-2 22-8 42-18 62-13 28-31 54-53 77l-17 17c-22 20-47 33-76 39l-41 7c-13 2-26 1-40-1l-35-6c-28-6-53-18-75-38a280.2 280.2 0 0 1-79-113c-5-13-8-26-10-40l-6-53c-3-28.3-2.3-56.9 2-85 3-27 9-54 20-80l15-41c4-10 10-20 16-30l29-38c14-18 31-31 51-41 13-7 26-11 39-16l21-6 12-1 21 1h4l15-1c11 0 21 1 30 4 16 5 31 10 45 18 22 10 40 24 55 43l26 35c7 11 13 22 18 34l19 51c7 19 12 39 14 59 3 21 4 41 4 57"/>
    <path fill="#FFF" d="m456.2 498-9-7c-4-4-8-3-13-1-2 1-3 3-3 6 0 2 2 4 4 5h2c7 1 13 0 19-3m-215 0c5 2 10 4 16 4l6-2c3-1 4-4 3-7l-3-3c-4-2-8-2-11-1-4 2-8 5-11 9m108 57-1 1-2 9c-1 7-3 15-6 22-4 9-9 16-17 22-10 7-21 11-33 11l-2 1 2 1a154 154 0 0 0 54 20c5 1 11 0 16-1 16-4 31-10 45-18l3-3-9-1c-21-4-36-15-43-36l-1-2-6-24v-2m-41-222-3-2-16-15-13-10-11-5c-9-3-17-2-24 6-4 5-8 11-11 18-4 9-5 19-2 29 2 8 5 16 9 22 8 13 17 24 27 35l14 10 4 2h2v-5c-2-13-2-26-2-40 1-9 3-17 6-25 4-9 9-16 19-19l1-1m105 90c3 0 5-1 7-3l9-6c12-11 23-24 31-38 4-6 7-13 9-20 2-6 3-13 2-20-2-12-9-22-17-31l-2-2c-3-2-7-4-12-4-4 0-9 2-13 4-5 2-10 5-14 9l-22 19-2 2h1l2 2c6 2 11 6 14 12l4 9c3 8 4 16 5 24 1 14 0 27-2 41v2m-64-214-1 1c-5 7-11 13-18 19l-14 9-10 8c-5 5-7 11-9 17-2 9-1 18 0 27 2 13 7 26 14 38 3 5 2 4 6 3l1-1-2-4-7-18-2-6c0-3 1-5 4-6l5-1 11-1h45l13 2c4 1 6 3 5 8l-1 4-8 19-2 4h2c3 1 3 1 5-2l10-22c4-12 6-24 5-37-1-11-5-20-14-27l-3-3-12-8c-9-6-17-13-23-23m98 296h-6c-5 1-9-1-13-5s-4-9 1-13l9-4c9-1 16 2 22 6l4 3h2c5-2 10-5 13-9 7-7 10-15 9-24s-5-17-9-24c-4-9-11-13-21-13a84.5 84.5 0 0 0-45 11l-3 4a449.5 449.5 0 0 1-30 94c-6 8-14 14-25 15-2 0-2 0-2 2l2 12c2 14 7 27 16 38 7 9 16 14 27 17l14 1 6-1c18-12 35-26 49-42l11-14 2-6-4-25c-3-8-7-16-13-23-1-1-2-2-3-1l-13 1m-103 41h-2c-5 0-10-2-14-5-5-3-10-8-12-13a568.3 568.3 0 0 1-28-90c-1-3-3-4-5-5-14-9-30-12-46-11-8 0-14 4-18 11s-7 14-9 22c-3 13 3 26 13 32l7 5c2 1 2 1 4-1l4-2c6-5 13-7 21-6l10 4c4 4 4 9 0 13-3 4-7 6-13 5l-18-1c-2-1-3 0-4 1l-10 16c-4 12-6 24-6 36l1 4 7 9c14 16 30 31 48 42 7 4 7 5 15 4 13 0 25-4 33-14a71.7 71.7 0 0 0 20-41l2-15m-29-243 2 3 7 14 3 7c2 7 0 11-7 11l-7 1c-8 2-14 7-17 14a158 158 0 0 0-3 48 384.4 384.4 0 0 0 36 126l4 6c3 4 6 6 11 6h8c6 0 11-3 14-8l2-3a317 317 0 0 0 37-157l-4-18c-3-7-9-12-17-14l-6-1h-3c-4-1-6-4-5-8l2-6 8-17 3-4-3-1h-63l-2 1m172 240 1-2 10-22c8-17 12-34 14-53a330 330 0 0 0-4-92l-5-19c-6-22-14-43-25-63l-18-32a145 145 0 0 0-28-33l-28-18c-3-3-8-5-12-6-12-6-24-10-37-14-5-2-10-2-16 0l-14 5a170.6 170.6 0 0 0-89 66c-7 10-12 21-18 31-9 16-17 33-22 51l-9 35c-3 10-4 20-5 30-1 18-1 36 1 54 1 14 3 28 8 41 5 15 12 29 19 43l1 1v-3l2-13c2-10 5-20 12-28l2-3-6-5-9-11c-4-5-6-10-6-16l-1-19c1-12 7-21 18-25l15-6c7-2 13-2 20-1l2 1v-1l-1-1a203.7 203.7 0 0 1-33-52c-5-11-7-23-5-36 1-8 4-16 10-22 8-9 19-12 32-10 7 2 13 5 18 9l15 12 3 3v-1l-1-3c-6.6-18.3-8-38-4-57 2-9 7-18 14-24l16-12c8-5 16-11 22-19 2-2 3-2 5 0l1 1 11 10 16 12 13 11c7 7 11 15 12 24 3 18 1 36-5 54l-2 4 4-2 17-14c5-3 9-6 14-7 15-4 28 0 37 12l5 10c3 7 3 15 3 23-1 10-4 20-9 30-8 15-18 30-29 43l-3 3 4-1h5c13-1 25 4 35 10 5 3 8 8 10 13l2 13v10c0 9-3 16-8 23-5 4-8 10-14 14 5 7 9 13 12 21l5 23m35-122c-.3 34.2-6.8 68.1-19 100l-14 30c-8 13-16.8 25.7-26 38-10 12-22 22-36 31-13 8-26 15-40 20-10 4-20 6-30 8-8 1-16 1-24-1-17-3-32-9-47-17-12.6-7-24.6-15.1-36-24-18-16-34-34-44-55-7-14-13-27-18-41-6-15-9-31-12-47a298.4 298.4 0 0 1 2-89l10-42c10-29 24-55 44-78l22-26c9-11 20-20 32-27 8-6 17-9 26-12 10-4 20-7 31-8 5-1 10 0 16 1 17.6 3.6 34.5 10 50 19 12 7 22 16 31 26 10 10 19 21 28 33 18 22 31 48 40 76 5 16 9 33 12 49 2 13 2 26 2 36"/>
    <path fill="#9D432C" d="m487.2 543-5-23c-3-8-7-14-12-21 6-4 9-10 14-14 5-7 8-14 8-23v-10l-2-13c-2-5-5-10-10-13-10-6-22-11-35-10h-5l-4 1 3-3c11-13 21-28 29-43 5-10 8-20 9-30 0-8 0-15-3-23l-5-10c-9-12-22-16-37-12-5 1-9 4-14 7a149.2 149.2 0 0 0-21 16l2-4c6-18 8-36 5-54-1-9-5-17-12-24l-13-10-16-13-11-10h-1c-2-3-3-3-5 0-6 7-14 13-22 18l-16 12c-7 6-12 15-14 24l-2 11c-1 16 1 32 6 46l1 3v1l-3-3-15-12c-5-4-12-7-18-9-13-2-24 1-32 10-6 6-9 14-10 22a68.9 68.9 0 0 0 8 44 204.8 204.8 0 0 0 31 45v1l-2-1c-7-1-13-1-20 1l-15 6c-11 4-17 13-18 25l1 19c0 6 2 11 6 16l9 11 6 5-2 3c-7 8-10 18-12 28l-2 13v3l-1-1c-7-14-14-28-19-43a325.9 325.9 0 0 1-4-126l9-34c5-18 13-35 22-51 6-10 11-21 18-31a118.7 118.7 0 0 1 39-41c15-12 32-19 50-25l14-5c6-2 11-2 16 0 13 4 25 8 37 14l12 6 28 18 4 4c9 9 17 18 24 29l18 32a258.5 258.5 0 0 1 30 82l6 39c1 18 0 36-2 53-2 19-6 36-14 53l-10 22-1 2"/>
    <path fill="#9D432C" d="m315.2 303 2-1h63l3 1-3 4-8 17-2 6c-1 4 1 7 5 8h3l6 1c8 2 14 7 17 14l4 18v28a377 377 0 0 1-39 132c-3 5-8 8-14 8h-8c-5 0-8-2-11-6l-4-6a310.6 310.6 0 0 1-36-157c0-6 1-11 3-17 3-7 9-12 17-14l7-1c7 0 9-4 7-11l-3-7-7-14-2-3"/>
    <path fill="#9D432C" d="m344.2 546-2 15-1 8c-3 13-10 23-19 33s-20 14-33 14c-8 1-8 0-15-4-18-11-34-26-48-42l-7-9-1-4c0-12 2-24 6-36l10-16 4-1 18 1c6 1 10-1 13-5 4-4 4-9 0-12-3-3-6-4-10-5-8 0-15 1-21 6l-4 3h-4l-7-5c-10-6-16-19-13-32 2-8 5-15 9-22s10-11 18-11c16-1 32 3 46 11 2 1 4 2 4 5a555.4 555.4 0 0 0 29 90c2 5 7 10 12 13 4 3 9 5 14 5h2m97-41c-5 1-9-1-13-4-4-5-4-10 1-14l9-4c8-1 16 2 22 6l4 3 2 1c5-3 10-6 13-10 7-7 10-15 9-24s-5-17-9-24c-4-9-11-13-21-13a84.5 84.5 0 0 0-45 11l-3 4a449.5 449.5 0 0 1-30 94c-6 9-14 14-25 15-2 0-2 0-2 2l2 12c2 14 7 27 16 38 7 9 16 14 27 17l14 1 6-1c18-12 35-26 49-42l11-14 2-6-4-25c-3-8-7-16-13-23-1-1-2-2-3-1l-19 1Zm-92-296c6 10 14 17 23 23l11 8 4 3c9 7 13 16 14 27 1 13-1 25-5 37l-10 22c-2 3-2 3-5 2h-2l2-4 8-19 1-4c1-5-1-7-5-8l-13-2h-46l-10 1-5 1c-3 1-4 3-4 6l2 6 7 18 2 4-1 1c-4 1-3 2-6-3-7-12-12-24-14-38-1-9-2-18 0-27 2-6 4-12 9-17l10-8 14-9c7-6 13-12 18-19l1-1m64 215v-3c2-14 3-27 2-41a80.9 80.9 0 0 0-9-33c-3-6-8-10-14-12l-2-1-1-1 2-2 22-19c4-4 9-7 14-9 4-2 9-4 13-4 5 0 9 2 12 4l2 2c8 9 15 19 17 31 1 7 0 14-2 20-2 7-5 14-9 20-8 14-19 27-31 38l-9 6-7 4m-105-91-1 1c-10 3-15 10-19 19-4 8-5 16-6 25 0 14 0 27 2 41v4h-2l-4-2-14-10c-10-11-19-22-27-35-4-6-7-14-9-22-3-10-2-20 2-29 3-7 7-13 11-18 7-8 15-9 24-6l11 5 13 10 16 15 3 2"/>
    <path fill="#9D432C" d="M349.2 555v2l6 24 1 2c7 21 22 32 43 36l9 1-3 3c-14 8-29 14-45 18a55.2 55.2 0 0 1-19 1c-19-4-36-10-51-20l-2-1 2-1c12 0 23-4 33-11 8-6 13-13 17-22 3-7 5-15 6-22l2-9 1-1m-108-57c3-4 7-7 11-9 3-1 7-1 11 1l3 3c1 3 0 6-3 7l-6 2c-6 0-11-2-16-4m215 0c-6 3-12 4-19 3h-2c-2-1-4-3-4-5 0-3 1-5 3-6 5-2 9-3 13 1l9 7"/>
    <path fill="#FFF" d="M417.6 544.7c0 .4-.3 6.8-.2 13.3-6.8.5-5.7-13.3-5.3-15 .2-1.4-4.4 1.7-6.6 3.8.7 1.3 1.7 1 3 .5-.6 6.2 3.8 11.8 9 11.7.1 6.4.8 12.5 2.6 13 .2.1.5-6.5.6-13.7 12.2-3.8 7.5-18.3 7.5-18.3-.2-.8-2 .4-6 3.9 1.6 1.7 2.4.7 3.6.3 1 1.9 1.4 10.5-5 13.1l.2-18c0-.2-.2-.3-.4-.3-1.8.2-5 3.4-7.5 6.1 1.4 2.2 3.1.2 4.5-.4m5.8 19.1 2.8 2.8 2.8-2.8-2.8-2.8-2.8 2.8Z"/>
  </g>
</symbol></svg>
