<svg xmlns='http://www.w3.org/2000/svg' viewBox='0 0 696 830' fill='none'><symbol id='RDPC_Fill'>
  <g fill="none">
    <path fill="#A7BFB9" d="m349 103.3 11-1c13-1 27 1 39 5 16 5 31 10 46 17 22 11 42 26 58 45a461.3 461.3 0 0 1 47 72l23 59a539.2 539.2 0 0 1 16 178l-3 24c-2 15-4 30-9 45-17 52.9-49 99.8-92 135-19 18-43 30-69 36-11 3-23 4-34 6l-20 3h-16c-9 1-17-1-26-2l-35-6c-29-7-55-20-77-40-12-12-25-24-36-37-20-25-36-52-48-82-5-14-8-28-10-42-2.7-22.3-5-44.6-7-67l-1-31a578 578 0 0 1 9-85c3-17 9-34 15-50l14-37a477.7 477.7 0 0 1 51-80c14-17 32-30 51-40 12-7 25-12 37-16l23-7c10-3 21-3 31-2h12"/>
    <path fill="#FFF" d="m572 446.3-1-22a691.8 691.8 0 0 0-8-76l-14-47-17-43c-5-13-11-26-19-38l-11-16-22-28c-13-14-27-25-45-31l-22-8c-11-3-23-7-36-8l-27-3h-5l-6 1-23 2c-16 4-33 8-49 14-20.7 7-38.8 19.8-52 37l-32 43c-7 11-13 23-17 36l-10 25-11 29a300.9 300.9 0 0 0-17 93 564 564 0 0 0 1 78l8 38c9 37 27 71 52 100 12 15 26 28 40 40 18 16 39 27 62 33l26 6 12 2 13 1h21l9-1 24-5c29-6 54-18 75-38l25-23c28-27.2 48.8-61 61-98l9-38c4-18 6-37 6-55m-451-18 2-44c3-31 9.6-61.6 20-91l14-35c5-14 13-28 21-40l28-37c13-14 28-26 45-35a770.6 770.6 0 0 1 57-22l21-3h43l18 3c18 5 36 11 53 19a170.4 170.4 0 0 1 52 42 415.2 415.2 0 0 1 43 66l21 55c7 18 11 36 13 55a575 575 0 0 1 5 84l-2 25-3 24c-2 16-4 33-9 48a269.4 269.4 0 0 1-67 106l-21 21c-19 16-41 26-65 31l-36 7a155.9 155.9 0 0 1-51 0l-31-6c-29-6-55-19-77-39l-31-32c-20-25-37-53-48-84-4-12-6-24-8-36-2.4-20-4.4-40-6-60l-1-22"/>
    <path fill="#FFF" d="m515 430.3-1-19c-1-9-1-19-4-28l-7-28c-6-23-15-45-27-66l-15-27a141.7 141.7 0 0 0-32-37l-19-13-16-8c-12-7-26-11-39-15-5-2-10-2-15 0l-22 8c-14 5-28 11-40 20l-10 7-10 8c-8 8-16 17-22 28l-19 32c-9 17-16 34-21 52l-8 28c-4 14-6 27-7 42 0 18 0 37 2 55 2 13 5 25 9 36a334 334 0 0 0 33 64c7 9 16 18 26 26 11 10 24 18 37 26 16 10 33 17 52 21h15a159 159 0 0 0 58-24c19-11 36-25 51-41 8-10 16-20 21-31l12-25c6-13 11-26 13-40 3-17 4-33 5-51m-341-10c0-20 3-41 8-60l7-27c9-28 23-53 41-76l25-29a159.7 159.7 0 0 1 37-30c14-7 29-13 45-16 9-1 17 0 26 1 14 3 27 8 40 15 7 3 12 7 18 11 10 8 19 17 28 28l18 21c18 23 31 48 40 76a368.1 368.1 0 0 1 14 72v29c-.9 40-11.5 79-31 114-6 13-15 25-24 37a215 215 0 0 1-84 56l-25 5c-8 1-16 1-24-1-17-3-34-9-49-18l-17-10a177 177 0 0 1-61-70l-11-22a216.2 216.2 0 0 1-20-79l-1-27"/>
    <path fill="#A7BFB9" d="M303 239.3c-4 0-7 0-11 2-8 4-15 9-20 16l-1 3v1h1l2-2 7-7c8-7 18-9 28-4l12 6 11 5c4 1 8 2 12 1 6 0 11-2 15-4l11-7 8-5c7-4 15-5 23-2 5 1 10 4 14 6l15 10 4 3h1l-1-1-13-11c-6-4-11-8-17-10l-12-3c-6 0-11 1-16 4l-11 5-11 4c-5 2-11 2-16 1l-9-4-11-4c-5-2-9-3-15-3m33 346 13 2 13 7 10 4 14 4c10 1 19-2 28-7l9-7 5-5v-1l-1-1-7 3c-6 2-12 5-19 6-9 3-18 3-27 0l-8-3-12-5c-8-2-16-3-24-1l-15 4-12 4c-7 2-15 1-22-2l-12-9-11-11-1-1v2l1 1c6 9 14 16 23 21 5 3 10 4 15 4l12-2 14-5 14-2m-145-144 1 14c1 10 6 19 15 24 5 3 10 6 16 7 7 2 12 5 17 11l9 7c2 2 5 3 8 3l3 1v1c2 4 4 6 8 8 7 3 12 9 15 16l2 5c4 6 9 10 16 12 5 2 10 2 15 2 8-1 16 0 24 3 9 5 19 6 29 4l10-4c4-3 7-6 7-11l1-10v-12l3-17 1-2h1l2 1c5 6 12 10 20 13 5 2 11 3 17 1 3 0 6-2 9-4l17-8c9.5-3.5 18.5-8.2 27-14 7-5 12-11 14-20l6-18 2-7c1-4 0-8-2-11l-5-5-6-5c-7-7-13-14-16-23l-5-8-1-1 1-2 1-1c6-3 9-6 8-13v-21c2-9-1-17-7-24l-3-2-6-6-13-16-4-6c-5-7-12-11-21-10l-12 2-12 3c-6 2-12 2-18 1l-8-2c-8 0-13 3-15 9l-3 9-4 15-1 2-1-2-1-8-2-17v-4c-1-5-3-8-7-9-3-2-6-2-9-2l-14 1h-14l-6-1h-10c-6 1-11 3-16 7a391.6 391.6 0 0 0-43 34l-5 8c-3 8 0 15 7 19l6 3c3 2 5 4 5 8 1 6 3 13 6 19 1 1 1 1-1 1l-13 3c-10 1-19 5-27 11l-9 7c-4 3-7 6-7 11-2 7-2 13-2 20m324-11c-1 18-2 34-5 51-3 14-7 27-13 40l-12 25c-5 12-13 22-21 31a241.4 241.4 0 0 1-110 65h-15c-18-4-35-11-51-21a279 279 0 0 1-64-52c-3-5-7-9-9-14-9-16-17-32-23-50-5-11-7-23-9-36-2-18-3-37-2-55 1-15 3-28 7-42l7-28c5-18 13-35 22-52l19-32a144.7 144.7 0 0 1 32-36l10-7c12-9 25-15 40-20l22-8c5-2 10-2 15 0l39 15 16 8 19 13 8 7c9 9 18 19 24 30l15 27c12 21 21 43 27 66l7 29 4 27 1 19"/>
    <path fill="#FFF" d="m337 426.3 2-1c6-7 10-14 12-23l5-16c2-9 6-16 12-23l2-3v-2h-2l-1 1a142.1 142.1 0 0 0-19 29c-5 8-9 17-12 27l-2 8 3 3m-92-30-11 1c-8 1-15 3-20 9l-8 6-4 1c-3 1-5 3-4 7l1 18 2 15c1 8 5 14 13 17l3 1 6 2c5 2 10 6 13 11l5 6c4 5 9 7 15 9h3l3-4c5-4 8-9 11-14l4-8c4-7 8-13 13-18l9-7 2-1 9-8 17-11 1-1-1-1h-1c-8-2-16-3-24-1-6 0-11 2-17 3l-5 1v-1l1-1c8-3 16-6 25-7l7-1-2-1c-9-3-19-3-29-1-8 2-15 6-22 10l-13 8h-1l1-1c9-7 19-13 30-17 8-3 16-4 24-4l8 1h1l-1-1c-4-2-9-5-14-6l-35-9-15-2m105-58v-4l-2-13-2-17c-1-5-3-8-9-8-4-1-7 0-10 1l-11 4c-6 2-13 1-19-1l-4-2c-6-2-11-1-17 2-5 3-9 7-12 12l-4 6c-3 7-8 13-15 17l-6 4-5 4c-3 5-3 9 2 13l5 4c3 2 5 5 6 8l3 11 4 7c2 2 3 3 5 3 9-1 17 1 24 5l22 12 12 8 10 6 1 1h2v-11a74.3 74.3 0 0 0-33-42l-6-4v-1h1l1 1 11 6c11 6 19 16 24 28l3 6 1 1 1-1 4-8 2-6-1-8 3-18 8-18c1-3 2-5 1-8m-8 45v5h1l8-10c2-6 6-11 9-16l3-5c2-2 4-4 1-6-2-1-1-3 0-4s3-2 4-1l3 2c1-1-1-2-1-3v-1c1-2 0-2-1-2l-1-1c-1-1-2-2-1-3l2-2c1 0 3 0 3 2s1 3 3 3l2 1h4c2 0 3 0 3 2v3h-6l-3 2v1c0 1 1 2 2 1l1-1h4l1 4-4 2-1-1-3 1-8 13c-4 6-6 12-7 19 0 0-1 0 0 0v1h1l2-2 17-10h2-1l-6 4-15 12-4 7-2 10v2h1a95 95 0 0 1 37-9c10 0 18-3 25-9l5-5c5-3 11-6 16-6l13-2 17-1c4-1 4-1 5-5l1-7 1-13c1-4-1-8-4-11l-5-5c-7-7-13-15-17-24l-4-7-4-4c-4-5-9-5-15-4l-6 3-8 5-9 3c-6 2-13 1-19-3l-5-4c-2-1-3-3-5-3-5-2-8 0-10 5l-1 7v18a45 45 0 0 1-13 30c-6 6-9 13-8 22m14 98v12l-1-1v-15c-1-12-5-22-11-32l-10-14h-3l-13 8-9 7-14 12c-5 5-10 10-13 16l-5 9a62.9 62.9 0 0 1-14 18c-1 1-2 3-1 4 2 4 4 7 8 8l3 2c7 3 11 8 14 15l3 6c3 4 6 6 9 7 4 1 7 0 10-1l10-3c7-3 14-2 21 1l6 3c4 2 8 4 13 4l15 1h3c2 0 3-1 3-3v-6c-1-7 0-14 2-21l3-11c3-11 0-22-6-32l-2-2c-6-9-14-18-23-25l-1-1h-1v1l1 2c3 10 4 20 3 31m41-58-3-1-10-1c-9.8.2-19.4 2.6-28 7l-1 1h15c10 1 19 4 29 6l6 2v1h-1l-5-1a164.7 164.7 0 0 0-50-3c-1 1-2 1-1 2l7 7c8 7 17 15 24 24 6 6 10 14 11 23 1 3 2 4 4 5l9 4c7 2 13 5 20 9l3 2c4 1 7 1 10-1h2l16-7 11-4c8-4 13-9 16-17l2-5c3-9 8-18 13-25l3-5c1-3 1-6-1-9l-4-4-11-10c-6-5-10-11-12-19 0-3-2-6-4-8-1-2-3-2-4-2l-18 2c-6 0-11 1-17 4l-7 3c-6 2-12 4-19 3h-7c-10 1-21 3-31 7l-14 8-1 2h2l2-1c10-2 21-3 31-2 5 0 9 1 13 3m-206 18 1-20c1-5 3-8 7-11l9-7c8-6 17-10 28-11l13-3c1 0 2 0 1-1-4-6-5-13-6-19-1-4-2-6-6-8l-6-3c-6-4-9-11-6-19 1-3 2-6 5-8l5-6 38-28a38.3 38.3 0 0 1 26-7l6 1h14c4-1 9-2 14-1 3 0 5 0 8 2 4 1 7 4 7 9l1 4 2 17 1 8 1 2 1-2 4-15 3-9c2-6 6-9 14-9l9 2c6 1 12 1 18-1l12-3 12-2c8-1 16 3 21 10l4 6c3 6 8 11 13 16l6 6 2 2c7 7 9 15 7 24v19l1 2c0 7-2 10-8 13l-2 1v2l1 1 5 8c3 9 9 16 16 23l6 5 4 5c3 3 4 7 3 11l-2 7-6 18c-2 9-7 15-14 20s-14 9-22 12l-6 2-16 8-10 5c-6 1-11 0-17-2a59.6 59.6 0 0 1-21-14l-2 1v1l-3 17-1 12v10c-1 5-3 9-8 11l-9 4c-11 2-20 1-30-4-7-3-15-4-24-3-5 0-10 0-15-2-6-2-12-5-15-12l-3-5c-3-7-8-13-15-16-4-1-6-4-8-8 0-2-1-2-3-2-3 0-5-1-8-3l-8-7c-5-6-11-9-18-11-6-1-11-3-16-7-9-5-14-14-15-24v-14m145 144-14 2-14 5-12 2c-5 0-10-1-15-4-9-5-17-12-23-21l-1-1-1-2 2 1 11 11 12 8c7 4 14 5 22 3l12-4 14-4c9-2 17-1 25 1l12 5 8 3c9 3 18 3 27 0 7-1 13-3 18-6l8-3h1v1l-5 5-9 7c-9 6-18 9-29 8l-13-4-10-5-13-6-13-2m-33-346c6 0 10 1 15 3l11 4 9 3c5 2 11 2 17 0l10-4 11-6c5-2 10-3 16-3l12 3c6 2 11 6 17 10l13 11h1v1h-1l-4-3-14-10-15-6c-8-3-16-2-23 2l-8 5-11 7c-4 2-9 4-15 4-4 1-8 0-12-1l-11-5-12-6c-10-5-20-4-28 4l-7 6-2 3h-1v-1l1-3c6-7 12-13 20-16 4-2 7-2 11-2"/>
    <path fill="#A7BFB9" d="m472 449.3-3 17v9h1l4-5 8-17v-3c2-8-1-14-7-18l-5-3-5-4c-2-3-4-6-2-10v-2l-1 1c-3 2-3 5-2 8 0 3 2 5 3 8l5 6c4 4 5 8 4 13m-75-26c-4-2-8-3-13-3-10-1-20 0-31 2l-2 1h-1v-2c5-3 9-6 15-8 10-4 20-7 31-7h7c6 1 12-1 18-3l7-3c6-3 12-4 18-4l17-2 4 1 5 9c1 8 6 14 12 19l11 10 4 4c1 3 2 6 0 9l-2 5c-6 7-10 16-13 25l-2 5c-4 8-9 13-17 17l-11 4-16 6-1 1c-4 2-7 2-10 0l-4-1c-6-4-13-7-20-9l-9-4c-2-1-3-3-3-5-2-9-6-17-12-23a251 251 0 0 0-30-31c-2-1-1-2 0-2a147 147 0 0 1 56 4h1l-1-1-6-2c-9-3-19-5-29-6h-14v-1l1-1c9-4 18-6 27-6l11 1 2 1"/>
    <path fill="#A7BFB9" d="M339 481.3v-5l-2-12-2-4h-2l-1 1v4l1 16c0 10-1 19-3 28l-1 9 1 1 1-1 2-6 4-13 2-18m17 0c1-11 0-21-4-31v-3h1l1 1c9 7 16 16 23 25l1 2c7 10 9 21 6 32l-3 11c-2 7-2 14-1 21v6c0 2-1 3-3 3l-3 1-15-2c-5 0-9-2-14-4l-5-3c-7-3-14-4-22-1l-9 3c-3 1-6 2-10 1s-7-3-9-7l-3-6c-3-7-8-12-14-15l-3-1c-4-2-6-5-8-9v-4l3-2c5-5 9-10 12-16l5-8c3-7 7-12 13-17l14-12 9-7 12-8h3l11 14c6 10 9 20 10 32l1 12v3l1 1v-12m-14-98c-1-9 2-16 8-23l9-13 4-16v-18l1-7c2-5 5-7 10-5l5 2 5 5c6 4 13 4 19 3l9-4 8-4 6-3c6-2 11-1 15 3l4 5 4 7c4 9 10 17 17 24l5 5c3 3 5 7 4 11l-1 12-1 8c-1 4-1 4-5 4l-17 2-13 1c-6 1-11 4-16 7l-5 4c-7 7-15 9-24 10-8 0-15 1-22 3-6 1-11 3-16 6h-1v-2l2-10 4-7 15-12 6-4 1-1h-1c-7 3-13 7-18 11l-2 2h-1v-1c1-7 3-13 7-19l8-13c1-2 1-1 3-1l1 1c2 0 3-1 4-3l-1-3h-4l-1 1c-1 1-2 0-2-1v-1l3-2h6v-3c0-2-1-2-3-2h-4l-2-1c-2 0-3-1-3-3s-2-2-3-2l-2 2c-1 1 0 3 1 3l1 1c1 0 2 0 1 2v1c0 1 2 2 1 3l-3-2c-1-1-3 0-4 1s-2 3 0 4c3 2 1 4-1 6l-3 5c-3 5-7 10-9 16l-8 10h-1v-5"/>
    <path fill="#A7BFB9" d="M334 385.3c-1-11-3-21-9-30-4-7-8-14-14-20l-1-2-1-1v1l5 8c6 11 12 23 15 35l2 8 1 3 2-2m-85-34h3l13-7c4-4 7-8 9-13l1-8 3-8c2-6 7-10 13-10l2-1-2-1-2 1c-6 1-9 4-12 9l-5 8c-2 6-5 11-10 15l-11 10-3 3v2h1m101-13c1 3 0 5-1 8l-7 18c-3 8.3-4 17.2-3 26 0 2 0 4-2 6l-4 8-1 1-1-1-3-7c-5-12-13-21-24-28l-11-6h-2v1l6 3 14 11c9 9 15 20 19 32v11l-2-1h-1l-10-6-12-8c-7-5-14-9-22-12-7-4-15-6-23-6-3 0-4 0-6-2l-4-7-3-11c-1-4-3-7-6-9l-5-3c-5-4-5-8-1-13l4-4 6-4c7-5 12-10 16-17l3-7c3-5 7-8 12-11 6-3 11-4 17-2l4 1c7 3 13 3 19 1l11-3 10-2c6 1 9 3 9 9l2 17 2 13v4m-105 58 16 2 34 9c5 1 10 4 15 7l-1 1-8-1c-8-1-16 0-24 3-11 4-20 11-30 17v1h1l12-8c7-4 14-7 23-9 9.8-2.4 20.2-2 30 1v1h-7c-9 2-17 4-25 8h-1v1h1l5-1 16-3c8-1 16 0 24 2h1l1 1-1 1c-6 2-11 6-16 11l-9 7-3 2-9 6-13 18-4 8c-2 5-6 10-10 14l-4 4-2 1c-6-2-12-5-16-10l-5-6c-3-5-7-8-13-10l-6-2-3-2c-8-3-12-8-13-16l-1-16-2-13v-5c0-3 1-6 5-7l3-1 8-5c5-6 12-9 20-10l11-1m92 30c-1 0-3-2-3-4l2-7a99 99 0 0 1 14-30c4-9 10-18 17-26l1-1h2v2l-2 3c-6 7-10 14-12 23l-5 16c-2 9-6 16-12 23l-2 1"/>
    <path fill="#FFF" d="M472 449.3c1-5 0-9-4-13l-5-6c-1-3-3-5-3-8-1-3-1-6 2-8l1-1v2c-2 4 0 7 2 10l5 4 4 3c7 4 10 10 8 18l-1 3c-1 6-4 12-7 17l-4 5h-1v-9l3-17m-133 32-2 18c-1.9 6.4-3.9 12.7-6 19l-1 1-1-1 1-9c2-9 3-18 3-28l-1-16v-4l1-1h2l2 4 2 12v5m-90-130h-1v-2l4-3 11-10c4-4 7-9 10-15l4-8c3-5 7-8 12-10h2l2 1-2 1c-6 0-11 4-13 10l-2 8-2 8c-2 5-5 9-9 13l-13 7h-3m85 34-2 2-1-3-2-8c-3-12-9-24-15-35l-5-8v-1l1 1 1 2c6 6 10 13 15 20 5 9 7 19 8 30m102.2 152.9c0 .4-.3 6.8-.2 13.3-6.8.5-5.7-13.3-5.3-15 .2-1.4-4.4 1.7-6.6 3.8.7 1.3 1.7 1 3 .5-.6 6.2 3.8 11.8 9 11.7.1 6.4.8 12.5 2.6 13 .3 0 .5-6.5.6-13.7 12.2-3.8 7.6-18.3 7.6-18.3-.2-.8-2 .3-6 3.9 1.6 1.7 2.4.7 3.6.3 1 1.9 1.4 10.5-5.2 13l.3-18c0-.2-.2-.2-.4-.2-1.8.2-5 3.4-7.5 6 1.4 2.3 3.1.3 4.5-.3m6 19 2.7 2.9 2.8-2.8-2.8-2.8-2.8 2.8Z"/>
  </g>
</symbol></svg>
