<svg xmlns='http://www.w3.org/2000/svg' viewBox='0 0 696 830' fill='none'><symbol id='SCHC_Fill'>
  <g fill="none">
    <path fill="#FDBE00" d="m590.4 428.3-1 30-2 19-2 17c-1 14-3 27-6 40-3 16-9 31-16 46a316.1 316.1 0 0 1-54 78l-23 22a163.8 163.8 0 0 1-81 39c-16 2.8-32 5.5-48 8h-8c-8 0-17 0-25-2l-26-4a159 159 0 0 1-92-44 553.7 553.7 0 0 1-50-55c-10-15-19-31-27-47-8-17-13-35-16-54l-3-25-3-24-2-25v-25l1-30a391.9 391.9 0 0 1 23-107l15-40c5-13 12-25 20-37 9-13 18-26 29-38a171 171 0 0 1 69-51l39-13c9-3 17-4 26-4l16 1 11-1c14-1 28.3.4 42 4l32 12a185 185 0 0 1 76 54 475 475 0 0 1 45 69l20 52c11.4 29 17.9 59.8 19 91l1 13 1 31"/>
    <path fill="#FFF" d="M570.4 438.3v-15l-2-27a726.6 726.6 0 0 0-7-51c-4-15-8-29-14-44l-15-41c-6-14-12-28-21-40l-27-38a112.7 112.7 0 0 0-55-39 377.3 377.3 0 0 0-61-15l-10-1-17-1-14 2-14 2a423.4 423.4 0 0 0-54 16l-21 11-25 23-29 41c-8 11-14 23-19 36-7.8 22.1-15.8 44.1-24 66a269.5 269.5 0 0 0-14 78l-1 30c-2.6 29.3.4 58.8 9 87a228.3 228.3 0 0 0 63 115 1990 1990 0 0 0 40 37c17 12 35 21 56 26l28 6 16 2c10 1 19 0 29-1h2l26-6 20-5c21-7 39-18 56-33a597.8 597.8 0 0 0 39-39 254.9 254.9 0 0 0 58-139c2-9 2-18 2-28v-15m6-16v27l-2 22-2 17-6 40c-3 15-8 29-15 43a292.6 292.6 0 0 1-47 68l-24 25a146.3 146.3 0 0 1-77 38l-28 5-14 2a145 145 0 0 1-40-2l-25-4c-29-5-56-17.8-78-37l-31-32a263 263 0 0 1-64-152l-2-17-1-17v-25c.3-17 1.3-34 3-51l2-19c4-23 11-45 19-66l13-33c4-12 10-23 17-33 10-15 21-29 32-42a177.5 177.5 0 0 1 72-47c14.2-4 28.6-7.8 43-11l18-1h34c10 1 20 4 29 7l18 6c29 9.6 54.7 27.3 74 51a482.8 482.8 0 0 1 44 69l18 46a268.8 268.8 0 0 1 18 83l1 12 1 28"/>
    <path fill="#FFF" d="m513.4 432.3-1-25c0-9-1-18-4-26l-9-36-11-30-2-4v5c1 14.3.6 28.7-1 43l-2 18v17l2 14 2 19v18l-2 24v21l2 12c1.5 12 1.9 24 1 36l2-3 13-31c5-14 7-29 9-44l1-28m-333-3a284 284 0 0 0 11 75c4 13 10 25 16 37l1 1v-17c-1-11 0-22 2-33v-26a215.7 215.7 0 0 1-1-44l2-16 2-19-2-24a171.6 171.6 0 0 1-1-54v-4 1l-2 2-11 30-10 33a167.4 167.4 0 0 0-7 58m277-145v1h14l1-1-2-3-8-15a138.5 138.5 0 0 0-36-42l-16-11-19-11-37-13c-4-1-8-2-12-1l-8 3-24 8c-12 5-23 11-33 18l-10 7-5 4-12 12c-6 7-12 14-16 22l-12 20-1 2v1h2l41-4 1-6 1-9c0-4 0-4 4-5l21-2c2 0 3-1 3-2l6-10c4-5 9-8 15-10l16-5 15-2h3c6 0 11 1 17 3l14 4c6 2 12 5 16 10l4 8 2 2 2 2 20 2c5 1 6 1 6 7l1 11v2l3 3h23m-111 358 14-2c14-3 28-8 41-16l21-13a218.4 218.4 0 0 0 49-46h-2l-23 1-15 2c-7 1-15 2-22 0h-22c-9 1-18 3-28 3a141 141 0 0 1-42-2c-8-1-16-2-23-1h-6c-6 1-12 2-18 1l-9-1-17-2c-7.3-1-14.6-1.6-22-2h-2l1 1 1 2a297.2 297.2 0 0 0 101 71l14 3 9 1m97-83h20c6 0 12-3 14-9 1-3 2-7 1-10v-8l-1-15 3-22 1-12-2-17a181.8 181.8 0 0 1-1-62v-28l-2-15-1-23v-32l1-6v-3c0-4-2-6-6-7h-2l-30-2-6-1c-3 0-4-2-5-5l-1-11v-4l-1-1-22-1c-3 0-5-1-7-4l-6-6c-4-5-8-9-13-12-4-4-9-6-16-6l-21 1-8-1c-3 0-7 1-9 3l-7 5-15 15-3 3-4 2-14 1h-9l-2 1c1 5 0 10-1 15v2l-3 3-6 1-30 2h-4c-3 1-5 3-5 6v5l1 11v22c0 13-1 25-3 38-1 10-2 20-1 31l1 7c1.4 15.6 1.4 31.4 0 47l-2 13v22l1 13c1 12 2 23 0 35l1 9c2 6 8 10 14 10h32c8-1 16 0 24 2 10 4 21 4 32 3a127 127 0 0 1 32-2c8 0 16 0 24 2l10 1 21-3c7-3 14-4 22-3h14m-271-139c.6-16.5 2.6-32.9 6-49l6-28a232.3 232.3 0 0 1 46-88l10-11 9-11 14-15c9-7.7 18.8-14.7 29-21a185.7 185.7 0 0 1 51-16l13 1a155.6 155.6 0 0 1 61 25 393 393 0 0 1 26 24l18 22a239.2 239.2 0 0 1 50 100c3.5 17.2 6.5 34.6 9 52a551 551 0 0 1-2 53c-3.3 22-9 43.4-17 64l-13 28c-5 12-13 23-21 33l-11 13-23 19c-14 9-28 17-43 23-9 4-19 7-28 8l-3 1c-6 2-13 1-20 1l-16-3c-11-3-22-7-32-12l-26-15c-13-8-24-18-34-29a524.8 524.8 0 0 1-25-36l-18-40c-8.8-22-14-45.3-15-69l-1-24"/>
    <path fill="#FDBE00" d="m409.4 533.3-3 1h4l1 2-1 14h-4l1 1c4 1 8 0 11-1h1l-1-1h-3l-1-2-1-11 1-2h4l1-1h-10m-131-254c0 3 2 5 5 5s5-2 5-5c0-2-2-5-5-5-2 0-5 3-5 5m135 5c2 0 4-2 4-5 0-2-2-5-4-5-3 0-5 3-5 5 0 3 2 5 5 5m-174 22c0-3-2-5-5-5s-5 2-5 5 2 5 5 5 5-2 5-5m223-5c-3 0-5 2-5 5s2 5 5 5 5-2 5-5-2-5-5-5m-141 232h-7c-2 0-2 1-1 2l2 8-4 7v1h16c-2-1-2-2-2-3v-10c0-2 1-3.3 3-4v-1h-7m128-200h-2l1 1c2 0 3 1 3 2l1 2 4 10c1 1 0 2-1 2h-6c-2 0-2 1-1 1l18-1h1l-1-1h-4c-1 0-2 0-1-1l2-10c1-2 2-4 5-4v-1h-19m2 47 1 2v12l-1 2 1 1 16-1c3 0 4-1 1-1h-4c-1 0-2-1-1-2v-2l3-9 2-2h1l-1-1-18 1m-1 130 17-1h1l1-1-5-1c-2 0-2 0-2-2l-1-16 1-1 3-1 1-1c-6.7.2-13.4 1-20 2h4l2 1v2l1 15-2 2-3 1-1 1h3m-214-130h-7l2 14-2 1h-1l1 1h16l-1-2v-12c1-2 1-2-1-2h-7m4-47h-5l-6 1-1 1 2 2 4 11-1 1-3 1c-1 1 0 1 1 1h1l13-1h1l1-1-2-2v-14h-5m212 197a7 7 0 0 0 0 13c3 0 6-3 6-7 0-3-3-6-6-6m-208 0c-3 0-6 3-7 6 0 4 3 7 7 7s7-3 7-6c0-4-3-7-7-7m134 3h-3l-5 1-1 1 1 2-1 9-1 5 1 1 16-1s1 0 0 0l-1-2-1-13 2-2h1v-1h-8m81-81h10c1-2 0-1-1-1l-1-2-1-13c0-1 0-2 2-3l-2-1-17 1v1h1c2 0 2 0 2 3v13l-3 1v1h10m-230 52h16c1 0 1-2-2-2l-2-1v-2l-2-5 2-6c0-2 2-3 4-3 0 0 1-1-2-1l-16 1c2 1 2 1 2 4v10l-2 4c-1 0-1 1 2 1m8-73h-3l-8 1 2 8 2 8-1 1v1h-1l1 1h1l16-1-1-3v-13l1-2h1v-1h-9m202-107v-4l-1-6c0-3-2-4-5-4h-7l-15-2h-10l-2-2-1-5c-2-9-6-16-13-21l-14-13-2-1c-6-5-13-7-20-6h-4c-7-1-14 1-19 5l-5 3-11 10-5 5c-6 6-10 14-10 22l-1 2-1 1h-2l-20 1-10 1h-1c-2 0-4 2-5 4v1l-1 8 2 18 1 10-1 7-2 15 1 28c1 6 2 13 1 19v15l-2 20v25c2.2 11.5 3.2 23.3 3 35 0 5 0 6 5 7h2l17 2h2l1 1-1 2v2l2-2 1-1c0-2 1-2 2-2l18-2 15 2c7 2 14 2 21 1h12l5 1 17-2c8-2 16-2 24-1l12 1 6-1 14-2c4 0 5-1 5-5v-13l2-20c2-12 2-24 0-35l-2-23 2-28c1.8-13.7 1-27.6-2-41l1-15 2-17m-156 217v3l-3 5-2 1-1 1h1l11 1 3-1v-1c-2 0-3-1-3-2l-3-4v-4l3-4 2-2 1-1h-15v1h2l4 7m158 18-14-1c-8 0-15 1-22 3-7 3-14 4-21 3l-10-1a135 135 0 0 0-33-1l-23 1c-11 2-22 2-32-2-8-3-16-3-24-3l-20 1h-12c-6 0-12-4-14-10v-9c1-12 1-23-1-35l-1-13v-22l2-13c1.9-15.6 1.9-31.4 0-47v-39c2-12 3-24 3-37v-22l-1-11v-5c0-3 2-5 5-6h4l30-2 6-1c2-1 3-2 3-4v-2l2-14c-1-1 0-1 1-1h9l14-1 5-2 3-4 14-15 7-4 9-3 9 1 21-1c6 0 11 2 15 5 7 5.6 13.4 12 19 19l7 4 22 1 1 1v4l1 11c1 3 3 5 5 5l6 1 30 2h2c4 1 6 3 6 7v9c-1 18.3-1 36.7 0 55l2 15v28c-1.3 12-2 24-2 36 1 8 1 17 3 25a80.8 80.8 0 0 1 1 29l-2 23v22c1 4 0 7-1 11-2 5-7 9-13 9h-21"/>
    <path fill="#FDBE00" d="m346.4 642.3-9-1-14-4a221.2 221.2 0 0 1-101-70l-1-2-1-1c1-1 7 1 10 1l14 1 17 2 9 1c6 1 12 0 18-1h5c8-1 16 0 24 1a268 268 0 0 0 42 2c10 0 19-2 28-3h22c7 2 15 1 22 0l15-2 23-1h2l1 1-3 3a219.6 219.6 0 0 1-68 55c-13 8-27 13-41 16l-14 2m88-358c-2 0-3-2-3-5l-1-11c0-6-1-6-6-7l-20-2-2-2-2-2-4-8c-4-5-10-8-16-10l-15-4c-5-2-10-3-16-3h-3l-15 2-16 5c-6 2-11 5-15 10l-6 10c0 1-1 2-3 2l-21 2c-4 1-4 1-4 5l-1 9-1 6-2 2-1 1h-40l1-2 12-20a129.3 129.3 0 0 1 33-38l10-7c10-7 21-13 33-18l24-8 8-3c4-1 8 0 12 1l36 13 20 11 16 11 17 15c7 9 14 18 19 27l8 15c1 1 3 3 2 4s-35-1-38-1m-254 145c0-19.5 2.5-39 7-58l10-33 11-30 2-2c0-1 0 0 0 0v3c-2.7 26-1.7 52.3 3 78l-2 19-2 16a175.2 175.2 0 0 0 1 44v26c-2 11-3 22-2 33v17l-1-1c-1-1-12-24-16-37-4-10-6-20-8-30-2-15-3-29-3-45m333 3-1 28c-2 15-4 30-9 44a301 301 0 0 1-16 34v-36l-2-12v-21l2-24v-18l-2-19-2-14v-17l2-18c2.2-14.2 2.5-28.7 1-43v-5l3 4 10 30 9 36c3 8 4 17 4 26l1 25"/>
    <path fill="#FFF" d="M338.4 314.3c0 5 4 8 9 7l8-4c1-2 2-4 1-6l-1-2c-1-3-3-4-6-4l-6 2c-3 1-5 3-5 7m-7 44v-1l1-1 4-16 4-12 1-3v-2l-2 1-3 5-1 4c-1 3-3 5-6 6l-1 1-1-1c4-2 5-5 6-8l1-4 1-5 2-2-3 1-8 6c-4 3-8 5-13 6l-6 4c-1 1-2 1-1 2l10 11c3 4 8 6 13 8h2m-69 148h-1v8c1 2 1 2 3 2h4c6-1 12-2 18-1l2-2 2-9c2-9 4.8-18.2 8-27l-1-2-4 1-5 4-7 7c-4 3-7 5-12 5-3-1-5 1-6 3l-1 4v7m38-183c0 4 1 8 3 11 1 2 1 2 3 1l5-3 16-10 8-4v-1h-1l-7 1-6 2-3 1-1-1h1c3 0 5-1 7-3l3-1 5-2 2-1 1-1-1-2-7-4h-4l-4-2-1-1v-1h1c3 2 6 2 9 2l6 1c2 2 2 2 4-1v-4c0-2-2-4-4-6l-3-4v-1c0-1 0 0 0 0l4 3c3 2 5 4 6 7 1 2 1 2 2 1h3l2-1c1-3 3-6 3-10l2-4v8l-1 7v3h1l3 1c3-1 5-3 6-5l4-4 2-1v1c-3 2-4 5-6 8l-4 4c-1 1-2 1-1 3v3l2 1 6-1c3 0 6 0 8 2v1h-9c-2 1-4 2-7 1l-1 1c-1 2-1 4 1 7l4 3 4 5 1 3v1l-1-1v-1c-1-3-3-5-6-6-3 0-5-1-7-4h-2l-1 2 1 5v6c0 2 0 4-2 5v-2c2-4 2-7-1-10l-1-4-2-2-1 2v1l-6 23-1 7c-1 1-1 2 1 2l9 1h3l4-1 11-2c6-1 11-4 15-8l11-12 1-2c3-5 5-10 3-17l-1-6c-2.6-8.7-5.2-17.4-8-26-3-5-7-9-11-11l-6-2-10-4-6-3c-3-1-5-2-8-1l-5 2-15 7-3 1c-6 2-10 6-13 13l-2 5-6 20-1 9m64 194 15 1c8 1 15 1 22-2 5-1 9-2 14-1l12 1h6l1-1v-14c0-3-1-5-4-7l-4-3c-4-2-7-5-10-9l-1-2h-3l-7 4-15 7-4 3-1-1 7-6 3-3-2-1c-5-3-8-6-11-11l-4-5c-2-3-4-4-8-5-4.2-.2-8.1-2-11-5-2-2-4-2-6 0l-2 2-6 7 16 13 4 3v1l-1 1-2-1c-7-2-14-6-20-11l-5-5-3-3h-5l-4 3-9 7a16 16 0 0 1-11 3l-2 2v1c-2 9-6 17-9 26l-3 8 1 2c4 1 9 3 14 3l15-1h33l10-1m-102-31v1c0 2 0 2 2 1l4-1c3 1 5 0 7-1l5-3 10-7c2-2 4-3 7-3l6-11 12-42c3-14.7 7.3-29 13-43l2-11-1-3-5-3-9-6c-6-2-11-5-14-11h-2l-8 4-2 1h-1v-1l9-7c2-1 2-3 1-5l-1-7-1-13-1-1-1-1h-1l-20 2h-8l-1 2v2l1 10-3 14v10l2 20c1 12 1 24-2 36-2 11-2 22 0 33 1 10 2 21 1 31l-1 12m169-168-1-2h-1l-19-1-7-1c-2 0-3 0-3 2l-2 14-1 9c-2 6-5 11-11 14l-6 3-8 4-7 5c-4 2-8 4-12 3h-10c-3 1-5 0-8-1-1 0-2 0-2 2-3.6 9-6.3 18.4-8 28-2 12-5 24-9 35-5 10-8 21-10 32l-1 8c0 1 0 2 2 1l7-2 10-7 5-2c2-1 5-2 7-1l4 3c2 1 2 1 4-1l7-6c4-3 6-5 11-1l9 4 10 6 6 7 10 9h3l7-4c3-1 6-1 9 1l15 10 2 1s0 1 0 0l1-1v-1l-2-22 2-20c1.9-12.6 1.6-25.5-1-38-2-9-2-19-2-28l3-23-1-15-2-13v-11m9 7c1 7 0 12-1 17s-2 11-1 16c2.2 13.2 2.9 26.6 2 40l-2 29 2 22c2 11 2 23 0 35l-2 20v13c0 4-1 5-5 5l-14 2-6 1-12-1c-8-1-16-1-24 1l-17 2-5-1h-13c-6 1-13 1-20-1l-15-2-18 2c-1 0-2 0-3 2l-2 4v-5l-1-1h-1l-17-2h-2c-5-1-5-2-5-7l-1-10c0-8 0-16-2-24v-26l2-19v-16l-1-19-1-28 2-15 1-7-1-10-2-18 1-7v-2c1-2 3-4 5-4h1l10-1 20-1h2l1-1v-2c1-8 5-16 11-22l5-5 11-9 5-4c5-4 12-5 19-5h4a27 27 0 0 1 22 7l14 13c7 5 11 12 13 21l1 6 2 1 10 1 14 1h8c3 0 5 2 5 4l1 6v4m-202 117v8h1c1 0 0 0 0 0v-1l1-14h-1v-1l-1 1v7m5 0v-7l-1-1-1 1v14l2 1v-8m-13-8c-2 0-2 0-2 2l3 8v1l1-1 1-7c0-3 0-3-3-3m4 8-1 7v1h2l1-1-1-14-1 7m3-10h8l-1 3 1 2-1 15-15-2 1-1-2-8-2-8h-1l9-1h3m217 11v7l1 1h2l1-1-1-15h-2l-2 2 1 6m10 1h1l-1-7c0-2-1-2-3-2l-1 1v1l1 14h3l1-1-1-6m-12 9h-3l-1-1h1l3-1v-13c0-3-1-3-3-3v-1l17 2v1l1 13 1 2c1 0 2 0 1 1h-17m-82 95v2l1 2h2c2 0 3-1 2-3l-3-7-1-1v1l-1 6m13 0-1-6v-1l-1 1-3 8v2h3l2-2v-2m-7-12h-3l-1 1 5 11 3-8c2-5 1-4-4-4m6-2c6 0 5 1 4 1h-1l-2 2 1 13s0 2 2 2l-17 1h-2l1-1 1-5 1-9-2-2-2-1h2l15-1m-139-3c4 0 7 3 7 7 0 3-3 6-7 6s-7-3-7-6c0-4 4-7 7-7m207 0c4 0 7 3 7 7 0 3-3 6-6 6-4 0-7-3-7-6 0-4 3-7 6-7m-216-194h-2l2 9h1v-1l1-6c1-2 1-2-2-2m5 13h2c2 0 2-1 2-3l-1-8v-1c0-2-1-2-2-2l-2 2-2 10 1 2h2m0-16h5l2 1-2 1v2l2 12 1 1h-3l-14 1c-1 0-2 0-1-1l3-1 1-1-4-11-1-1-2-1 7-2h6m-1 55v-4l-1-2-1 1-1 7-1 3 1 1h3v-6m1 0v6l1 1 2-1v-1l-3-11v6m-7-7-3 1-1 1 3 5 1 3c2 0 2-2 2-3l1-5-1-1-2-1m3-1h7l3 1-2 1v12l3 2-4 1-14-1v-1h2l1-2-4-11-2-1 3-1h7m224 118v-9l-2-1h-3l-1 2v15c0 2 1 3 3 3h1l2-2v-8m-13 12s-1-1 1-1l3-1c1 0 2-1 1-2v-16c0-2 0-2-2-2h-3l-2-1h1l19-1h1l-1 1-3 1-1 1c.9 6.3 1.9 12.7 3 19h4l1 1h-2l-17 1h-3m18-128-1-2h-6l-1 2 4 8 1 2 1-2 1-5 1-3m-11 6-1 5c0 2 0 2 2 2h4c1 0 2-1 1-2l-5-12h-1v7m17 8-19 1-3-1s3 0 3-2v-12l-1-2-2-1c7-.8 14-.8 21 0l-1 1-2 2-3 9v2c-1 1 0 2 1 2h4l2 1m-13-62h-4c-1 0-2 1-1 2l4 9 1 2h1l3-13h-4m8-1c4 0 4 1 2 1-3 0-4 2-5 4l-2 10c-1 1 0 1 1 1l4 1c2 0 3 0 1 1h-19s-3-1 2-1h5c1 0 2-1 1-2l-4-10-2-3c-1-1-3 0-4-2 0-2 20 0 20 0m-150 201h-1l-1 2 1 2 2-1v-3h-1m-1 16h1c3 0 3 0 2-2l-2-4c-2 0-1 2-2 3l-1 1c-1 2 0 2 2 2m9-7v-7l-1-1h-4l-2 5v2l3 8h2l2-1v-6m4-10v1c-2 1-3 1-3 4v10c0 1 0 2 2 3h-18l2-1 4-11-2-4-2-1 3-1h14m134-232c3 0 5 2 5 5s-2 5-5 5-5-2-5-5 2-5 5-5m-176 249c4 0 4 0 2-3l-1-2h-1l-2 2-1 3h3m-5-16h-2l2-1h13l-1 1-3 2-2 4v4l2 4 3 3c2 0 1 0 0 0l-2 1-11-1h-1l1-1 2-1 3-5v-3l-1-4 2 3h1c1-2 3-3 2-5l-5-1h-3m-42-228c0 3-2 5-5 5s-5-2-5-5 2-5 5-5 5 2 5 5m174-22c-3 0-5-2-5-5 0-2 2-5 5-5 2 0 4 3 4 5 0 3-2 5-4 5m-135-5c0-2 2-5 5-5s5 3 5 5c0 3-2 5-5 5s-5-2-5-5m132 255 1 2-1 14h-4l1 1c4 1 8 0 11-1h1l-1-1h-3l-1-2-1-11 1-2h4c2-1 1-1 0-1"/>
    <path fill="#FDBE00" d="m431.4 328.3 2 13 1 15-3 23a112 112 0 0 0 3 36v30l-2 20 2 22v1l-1 1c0 1 0 0 0 0h-2l-15-11c-3-2-6-2-9-1l-7 4h-3l-10-9-6-6-10-7-9-4c-5-4-7-2-11 1l-8 6c-1 2-1 2-3 1l-4-3c-2-1-5 0-7 1l-5 2-10 7-8 2c-1 1-1 0-1-1l1-8c2-11 5-22 9-32 5-11 8-23 10-35 1.6-9.6 4.3-19 8-28 0-2 1-2 2-2 3 1 5 2 8 1h10c4 1 8-1 12-3l7-5 8-4 6-3c5-3 9-8 11-14l1-9 2-14c0-2 1-2 3-2l7 1 21 1v13m-168 145c1-10 0-20-1-31-2-11-2-22 0-33 3-12 3-24 2-36l-2-20v-10l3-14-1-10v-2l1-2h8l20-2h1l1 1 1 1 1 13 1 7c1 3 0 4-1 5l-9 7 1 1 2-1 8-4c1-1 1-1 2 1 3 5 8 8 14 10l9 6 5 4 1 2-2 11-6 16-7 27a380 380 0 0 1-18 53c-3 0-5 1-7 3l-10 7-5 3c-2 1-4 2-7 1l-4 1c-2 1-2 1-2-1l1-14"/>
    <path fill="#FEBE26" d="m364.4 517.3-10 1h-33l-15 1c-5 0-10-2-14-3l-1-2 3-8c3-9 7-17 9-26v-1l2-2c5 1 8-1 11-3l9-7 4-3h5l3 3 5 5a57.1 57.1 0 0 0 22 12l1-1v-1l-4-3-16-13v-2l8-7c2-2 4-2 6 0 3 4 7 5 11 5 4 1 6 2 8 5l4 5c3 5 6 8 11 11l2 1-3 3-6 7 4-3 15-7 7-4h3l1 2c3 4 6 7 10 9l4 3c3 2 4 4 4 7v14l-1 1h-6l-12-1c-5-1-9 0-14 1-7 3-14 3-22 2l-15-1"/>
    <path fill="#FDBE00" d="m301.4 314.3 6-20 2-5c3-7 7-11 13-13l3-1 15-7 5-2c3-1 5 0 8 1l6 3 10 4 6 2c4 2 8 6 11 11l4 11 5 21a22 22 0 0 1-4 19l-11 12c-4 4-9 7-15 8l-11 2-4 1h-3l-9-1c-2 0-2-1-1-2l1-7 6-23v-1l1-2 2 2 1 4c3 3 3 6 1 10v2c-1 0 0 0 0 0 2-1 2-3 2-5v-6l-1-5 1-2h2c2 3 4 4 7 4 3 1 5 3 6 6v1h1l-1-3-4-5-4-3c-2-3-2-5-1-7l1-1c3 1 5 0 7-1h9v-1c-2-2-5-2-8-2l-6 1-2-1v-3c-1-2 0-2 1-3l4-4c2-3 3-6 6-8v-1l-6 5c-1 2-3 4-6 5l-3-1h-1v-3l1-7v-8s0-1 0 0l-2 4c0 4-2 7-3 10l-2 1h-3c-1 1-2 1-2-1-1-3-3-5-6-7l-4-3s0-1 0 0v1c0 2 2 3 3 4 2 2 4 4 4 6v4c-2 3-2 3-4 1l-6-1c-3 0-6 0-9-2l-1 1 1 1 4 2h4l7 4 1 2-1 1-2 1-5 2-3 1c-2 2-4 3-7 3h-1 4l5-2 8-1h1l-1 1-7 4-16 10-5 3c-2 1-2 1-4-1-1-3-2-17-1-20m-39 185 1-4c1-2 3-4 6-3 5 0 8-2 12-5l7-7 5-4 4-1 1 2-1 3a236.8 236.8 0 0 0-9 33l-2 2c-6-1-12 0-18 1h-4c-2 0-2 0-3-2l1-15"/>
    <path fill="#FDBE00" d="M329.4 358.3c-5-2-10-4-13-8l-10-11c-1-1 0-1 1-2l6-4c5-1 9-3 13-6l8-6 3-1-2 2-1 5-1 4c-1 3-2 6-6 8l1 1 1-1c3-1 5-3 6-6l1-4 3-5 2-1v2l-1 3-4 12-4 16v1c-1 1-1 2-3 1m9-44c0-4 2-6 5-7l6-2c3 0 5 1 6 4l1 2c1 2 0 4-1 6l-8 4c-5 1-9-2-9-7m-103 120h1v14l-1 1-2-1 2-14m-5-1c3 0 3 0 3 3l-1 7h-1l-3-8c0-2 0-2 2-2m13 15-1 1-1-1v-2c.5-4 .5-8 0-12h2v14m-5-7v-7h2l-2 13v-6m-8 46 2-1c1-1 1 0 2 1l1 2 1 5-2 5-1 3h-2v-1l-1-14m8-2 1 1-1 4h-1l-1-3c-1-1 0-1 1-2h1m0 17h-2l-1-1 2-4 3 4-1 1h-1m227-53-1 1h-3l-1-1v-14l1-1c2 0 3 0 3 2l1 13m-12-13 2-2h2l1 1v1l-1 14h-2l-1-1v-5l-1-8m-77 99c5 0 6-1 4 4l-3 8h-1l-3-12h3m7 14-2 2h-3v-2l3-8 1-1v1l1 8m-12-8v-1l1 1 3 7c1 2 0 3-2 3h-2l-1-2 1-8m-131-192h-2l-1-1 2-11 2-2 2 2v1l1 8c0 2 0 3-2 3h-2Zm-5-13c3 0 3 0 2 2l-1 6v1l-1-1-3-7c-1-1 0-1 1-1h2Zm-2 45 2 1 1 1c0 2-2 9-3 8l-4-8 1-1 3-1m7 1h2l1 2-2 11-1-1v-12m-1 12h-3l-1-1 1-3 1-7 2-1c2 0 0 10 0 11m221 113-2 2h-1c-2 0-3-1-3-3v-15c-1-2 0-2 1-2h3l2 1v17m-6-125h1l4 14h-4c-2 0-2 0-2-2l1-12m11 1-1 3-1 5-1 2-1-2-3-10h6l1 2m-3-48 1 1-6 10-4-9c-1-1 0-2 1-2h8m-139 215-1 1h-2a165 165 0 0 1-3-10l2-5h4l1 1-1 13m-8 1c-2 0-3 0-2-2l3-4 2 4c1 2 1 2-2 2h-1m1-16h1v4h-2l-1-2 1-2h1m-33 16 3-5h1l1 2 1 3h-6m0-15 1-1 5 1-2 5h-1l-2-3-1-2"/>
    <path fill="#FFF" d="M346.6 595.8c0 .4-.3 6.8-.2 13.3-6.8.5-5.7-13.3-5.3-15 .2-1.4-4.4 1.7-6.6 3.8.7 1.3 1.7 1 2.9.5-.4 6.2 3.9 11.8 9 11.7.2 6.4.9 12.5 2.7 13 .2.1.4-6.5.6-13.7 12.2-3.8 7.6-18.3 7.6-18.3-.2-.8-2 .3-6 4 1.6 1.6 2.4.6 3.6.2 1 2 1.4 10.5-5.1 13.1l.3-18c0-.2-.2-.3-.4-.3-1.8.2-5 3.4-7.5 6.1 1.4 2.2 3 .2 4.4-.4m6 19.1 2.8 2.8 2.8-2.8-2.8-2.8-2.8 2.8Z"/>
  </g>
</symbol></svg>
