<svg xmlns='http://www.w3.org/2000/svg' viewBox='0 0 696 830' fill='none'><symbol id='SMRC_Fill'>
  <g fill="none">
    <path fill="#9BADFA" d="M590.4 429.3v19l-1 16-2 15-1 13-1 10-1 10-2 8-1 10c-3 14.8-7.7 29.3-14 43a285.3 285.3 0 0 1-38 64l-11 12-22 23c-10.5 10-22 19-34 27l-15 8a157 157 0 0 1-51 15l-16 3-13 2-12 1h-13l-2-1c-5 1-9 0-13-1h-6l-14-3-20-3c-29.4-6.3-56.6-20-79-40l-15-15a525.1 525.1 0 0 1-33-37c-17-24.5-30.8-51-41-79l-5-20-2-13-1-10-1-10-1-10-1-9v-1l-2-12v-16l-1-33 1-16 1-13 1-15 1-9a529 529 0 0 0 5-28l11-38 9-24 9-24c9.5-25 23.4-48 41-68l15-17c10.2-11.3 22-21.1 35-29l8-5 31-14 23-8c12.9-4.3 26.5-6 40-5l8 1 13-1h12l18 2 20 6 13 4a181.5 181.5 0 0 1 54 28 156.5 156.5 0 0 1 32 32 621.3 621.3 0 0 1 33 46l11 24 17 42c9 23.5 15.2 48 18 73l2 11 1 11 1 17 1 31"/>
    <path fill="#FFF" d="m125.4 447.3 1 20 1 14 4 20 6 25a265.2 265.2 0 0 0 61 108l12 11 16 16 7 6c14 10.6 29.5 19 46 25l27 7 14 3 18 2 20 1 2-1h4l9-1a843 843 0 0 1 35-8 169.1 169.1 0 0 0 81-53l7-6 8-9 11-12a269.8 269.8 0 0 0 51-120l3-14 1-13 1-14v-19l-1-21-1-9-1-13v-1l-1-11-1-9-3-13-2-14a310.4 310.4 0 0 0-18-55l-9-24-7-18a597.1 597.1 0 0 0-56-79l-7-6-17-12-25-10a495 495 0 0 0-48-12h-7l-7-1-7-1-22 1h-1l-9 1-15 3-13 4a259.6 259.6 0 0 0-48 18 123.8 123.8 0 0 0-37 34 590.2 590.2 0 0 0-41 66l-12 31-8 20a383.6 383.6 0 0 0-17 74l-2 14v1l-1 13-1 10-1 15v16m-5-19v-29l2-17 1-10 1-9 1-5a286.6 286.6 0 0 1 21-77c5.9-13.6 11.5-27.2 17-41l8-13a389 389 0 0 1 43-56 184 184 0 0 1 56-36l32-11 15-3h1l17-1 7 1h12l5-1h2c10-.2 20.3 1.2 30 4 13 3 25 8 37 12 18 7.3 34.6 17.8 49 31l7 6a669.7 669.7 0 0 1 44 58l11 23 15 39 10 28 3 15c1.9 7.6 3.6 15.3 5 23l1 8 1 11 1 13 1 7v8l1 19-1 16v15l-2 16-1 14-2 16a206.4 206.4 0 0 1-18 64l-4 10a316 316 0 0 1-68 87c-8 8-17 14-26 20a164.8 164.8 0 0 1-56 20l-11 2-6 1-14 2c-4 1-8 2-12 1l-6 1h-4l-4-1c-4 1-9 0-13-1l-12-2-11-1-15-3c-20.4-4-39.8-12.2-57-24l-17-12-21-21a224.7 224.7 0 0 1-35-45l-11-19-7-13-3-8a166.7 166.7 0 0 1-13-48l-2-8v-6l-1-10-2-11-1-11v-7l-1-7v-24"/>
    <path fill="#FFF" d="M358.4 449.3v-3l-1-1h-4c-4 0-3 0-3 4l1 3 5 5 1 1h1v-9m-21 2v7h1l6-7 1-5-1-1h-7v6m-1 25v7l7-1 1-1v-24l-2 3-5 5-1 2v9m13-6v11l2 2 5 2c2 1 2 1 2-2v-15l-2-2-4-5-1-1-1-1h-1v11m-1-200h11l1-1-6-8-4-7c-3-3-3-3-5 0l-2 3-7 10-1 2 2 1h11m-1 15v-5l-1-3h-1c-6 2-11 9-9 16l1 12v2c0 2 1 2 3 3h5c1 0 2 0 2-2l-1-9v-5l1-9m1 21c0 5 0 4 4 4l4-1 2-2v-12l1-4-1-7c-2-3-5-6-8-7h-2c0 6-1 12 1 17v5l-1 7m45 92h8l3-2 3-7 3-15v-1h-12l-4 1-1 4c-1 6-4 11-7 16l-2 3 4 1h5m-92 0v-1h9s1 0 0 0v-1c-5-6-8-14-9-22l-1-1-13-1-2 1-1 1 2 6 2 10 3 7 2 1h8m47-126-14 1c-2 0-3 1-3 2l-14 18v1h4l10-1h2l1-1v-5l2-6c2-4 6-5 10-7l3 1c3 0 5 1 7 3s4 4 4 7l1 7 1 1 12 1h3l1-1-1-1-5-6a686 686 0 0 1-11-13l-13-1m-53 99h4c2 0 2 0 2-2v-3l1-3 4-13 1-2-3-1-10 1h-3l-9-1-7-1-1 1c4 6 6 13 8 19l1 3 1 1 11 1m101-24-7 1h-1v1c3 7 6 13 6 21l1 1 15-1 1-1 1-2 5-13 3-7v-1h-3l-13 2h-1l-7-1m-56 220v-12l-1-7-4-4h-2l-4 5-1 5v25l-2 10-1 1 1 2 7 2c4 1 7 0 10-1v-2c-2-5-3-11-3-17v-7m27 16-1-10-1-8-2-5h-3c-2 0-3 1-3 2l-1 3-1 12-1 17-2 6-3 9 1 2 8 2c4 1 8 0 12-3v-1l-3-7-1-12 1-7m-22-61c4.8.4 9.5-.3 14-2l4-4c2-4 3-8 2-12v-1l-3-9c-2-4-5-7-10-7h-6c-5 1-9 4-13 7l-1 2-4 8c-1 4 0 8 2 12 1 3 3 5 6 5l9 1m26-226h-7c-2 0-3 0-3 3v7c0 3-2 6-5 6h-18c-2-1-4-3-4-5-1-3-2-6-1-9v-1l-1-1h-15c-2 0-3 0-4 2l-14 17v2h34l14 1h1l12-1h36v-1l-1-2-6-7-8-10-2-1h-8m5 124h17l1-1 1-3 1-3c1-4.5 2.8-9 5-13h-18l-2 1c-6 5-12 8-19 11l-11 2c-4 1-8 0-13-1a50.1 50.1 0 0 1-24-12l-2-1h-18v1c3 5 5 11 6 17 0 1 1 2 3 2h26l16 2h4l15-2h12m27 21h3l1-1-1-1-10-15-2-1-8 1-10 1-10 1h-15l-7-1-7 2h-7l-10-2h-9l-2-1-8-1-3 1a82.6 82.6 0 0 1-10 16l1 1h1l8-1 14 1 5 1h14l8-1 26 1h16l5-1h17m7-97h8l1-1-18-21-2-2h-32l-10 1-5-1h-9l-14 1-5-1h-26l-4 1-10 13-6 6-2 3v1h18l12 2c1 0 2 0 3-2l5-6c8-7.5 18-12.4 29-14 5-1 10-1 15 1l5 2a52.2 52.2 0 0 1 23 18l2 1 4-1h5c3-1 7-2 11-1h2m-63 68c5 0 10-1 15-4l8-5 10-10 7-9a29 29 0 0 0-4-35l-11-11c-5-5-10-8-16-11-6-2-11-2-16 0-6 2-11 5-16 9l-13 14c-4 4-6 9-7 14-1 7 0 15 5 21 5 8 11 15 19 20 6 4 12 7 19 7m11 127v-12h-1l-8 2-1 1v8l1 1 1 2v3c-1 2-3 2-5 1l-1-4 1-1 1-3v-7l-4-2-3-1-2-1-1 1v7c0 4 1 7 3 9l3 6 1 6v25l2 9c1 3 1 4-2 5l-3 2-1 1c-3 0-3 0-2 2l1 2-2 3c-2 0-3-1-3-2v-3c1-2 1-2-1-2l-2-1-5-2-2-1v-3c2-5 3-9 3-14v-23c0-4 1-7 4-9 2-3 3-5 3-9v-10l-2-3-4-5c-2-4-2-9-1-13l1-7c0-4 1-7 4-10l1-4v-10h-1l-2 1c-4 5-9 9-15 12l-5 3c-4 3-8 7-10 11l-5 5-1 2-2 2c-1-1 0-2 1-2l2-4 3-5v-2l-12-5c-4-1-8-4-11-7l-2-2h-3l-5 4-12 12-9 8-8 5v1c3 5 5 10 10 13l4 3 6 7-5-4-14-9a26.5 26.5 0 0 1-11-11l-4-7h-1l-1 1c-2 4-4 6-7 8l-4 3-8 7v4l12 24 4 7 14 18a486 486 0 0 0 22 21 228.6 228.6 0 0 0 41 28 165 165 0 0 0 37 15l13 3 12-1 25-7 16-8a359.4 359.4 0 0 0 53-37l2-1 18-19c11.9-16 21.6-33.5 29-52l2-6 2-6-4-5-4-3a222.2 222.2 0 0 0-21-19h-2l-1 1c-3 5-7 8-12 11l-8 4-5 4-1-1 2-2 3-3v-1l-2-1-10-5-7-4h-5l-3 2a69 69 0 0 1-18 10v1l1 2c3 3 6 5 8 9l11 9 9 6 1 1h-5c-7-2-13-5-18-11l-6-6-5-7-5-5-7-6-22-15-3-2-1 1v2l-1 12 2 5c4 4 5 9 5 14l-3 12-2 5-1 3-1 24c0 4 1 8 4 11l3 7 1 14 1 16 2 11 1 1c1 2 0 4-1 5l-6 2-3 1v2l1 2c0 1-1 2-3 2l-2-2 1-3-1-1-4-1c-3-1-5-1-7-3-1 0-2-1-1-2l1-2 3-15 1-14 1-10c0-4 1-7 3-10s3-6 2-10v-10m155-109v-19l-2-17-3-16-5-19a843.6 843.6 0 0 0-15-44c-4-11-10-21-15-31l-12-21c-4-6-8-13-13-18l-6-7-12-12-18-12-20-11-21-8-15-6c-6-2-12-2-17 0l-36 13-17 9c-9.4 6.5-18.8 13.2-28 20a146.1 146.1 0 0 0-25 32l-5 10-11 18a313.8 313.8 0 0 0-34 98l-2 20v10l-1 11 1 13v13c1.5 10 3 20 5 30 2 12 6 23 11 34v1l1-1 8-10 8-7 3-2 4-1 10 8c2 2 2 2 4 0l2-1 4-6 11-12 15-9h7l7 4c6 2 11 4 15 8l3 1h2l5-6c6-6 12-13 19-17l6-5 1-3v-16l-1-1h-38l-7-2-1-2 2-5 6-10 3-8a50.7 50.7 0 0 1-8-19l-3-12-2-2-5-14-7-21-1-1-8 8-6 5-1 1h-1l3-6 12-18 11-17c21-27.7 43-54.8 66-81h3l3 2c6 6.3 11.7 13 17 20l11 14 13 16a1267 1267 0 0 1 32 45l11 16 3 6c1 1 2 2 1 3s-2-1-2-1l-5-4-8-9h-1l-1 3-2 8c-3 9-6 19-11 28l-3 7-1 6-6 15-2 4 2 3 8 14 2 4-1 2-7 2-15 1h-1l-6-1h-17l-1 1v14l1 3h2l16 13 8 7 10 8h3a102 102 0 0 0 22-12c3-2 6-3 9-1l2 1 9 4 8 6h2l1-1 13-11c2-2 4-2 7-1h1c8.7 5 16.5 11.4 23 19l3 3c3 3 2 2 3-1l1-4c2.9-10.1 4.9-20.5 6-31v-3l1-7v-22m-340-10v-16l1-13 2-13 3-13a1579 1579 0 0 1 14-47 295.8 295.8 0 0 1 27-49l10-14 5-6 16-19c4-4 8-9 13-12 4-5 9-9 14-12 18.3-11 38.2-19.1 59-24l9-1h2l6 1c15.6 2.3 30.8 7 45 14 7 3 14 7 20 12l15 13 10 11 10 12c16 19 29.8 39.8 41 62a215 215 0 0 1 18 51l4 19 2 11 1 10 1 5v26l-1 16-1 14-2 13-3 13a590.7 590.7 0 0 1-23 62l-4 8c-3 7-8 14-12 20l-17 20c-8 9-18 17-28 23-10 7-21 13-33 19-10 4-21 8-32 10l-9 2h-8c-11 0-7 1-18-1a134.3 134.3 0 0 1-46-18l-14-8a155.4 155.4 0 0 1-62-65l-10-22-7-14a200.4 200.4 0 0 1-14-46l-2-12-1-9v-7l-1-7v-19"/>
    <path fill="#9BADFA" d="M513.4 431.3v21l-1 7v3a144 144 0 0 1-7 35c-1 3 0 4-3 1l-3-3c-7.1-7-14.8-13.3-23-19h-1c-3-1-5-1-7 1-4.4 4.3-9.1 8.3-14 12h-2l-8-5-9-5-2-1c-3-2-6-1-9 1l-5 3c-5 4-11 7-17 9h-3l-10-8-8-7-16-13h-2l-1-2v-15l1-1h17l7 1 15-1 7-2 1-2-2-4-8-13v-1c-1-1-2-3 0-6a63 63 0 0 0 7-22l3-7c5-9 8-19 11-28l2-8 1-2 1-1 8 9c2 1 6 6 7 5s0-2-1-3l-3-5-11-17a1590 1590 0 0 0-32-45l-13-16a919 919 0 0 0-28-34l-3-2h-3l-3 2a1221 1221 0 0 0-62 79 596 596 0 0 0-24 40l5-5 8-7h1l7 21 5 14 2 3c2 3 3 7 3 11l2 6c1 5 3 9 6 14v1l-3 6-6 10-2 5 1 2 7 2a50.6 50.6 0 0 0 19 0h19l1 1v16l-1 3-5 5c-8 5-14 11-20 17l-5 6h-2l-3-1c-4-4-9-6-15-8l-7-3c-2-2-5-2-7-1l-15 9-10 12-5 6-2 2c-2 1-2 1-4-1l-10-7h-4l-3 2a365.7 365.7 0 0 0-16 17l-1 1v-1a177.5 177.5 0 0 1-16-64v-13l-1-13 1-11v-10l2-20 4-18 15-49 15-31 11-18 5-10a151 151 0 0 1 32-37c12.5-8.3 25.2-16.3 38-24l36-13c6-2 11-2 17 1l15 5 21 8 20 11c10 7.8 20 15.8 30 24l6 7c5 5 9 12 13 18l12 21c12.7 23.8 22.8 49 30 75 2.9 12 5.5 24 8 36l2 17v19"/>
    <path fill="#9BADFA" d="M358.4 539.3v10c1 4 0 7-2 10s-3 6-3 10l-1 10-1 14c0 5.9-1.3 11.7-4 17-1 1 0 2 1 2 2 2 4 3 7 3l4 1 1 1-1 3 2 2c2 0 3-1 3-2l-1-2v-2l3-1 6-2c1-1 2-3 1-4l-1-2-2-10-1-17-1-14-3-7c-3-3-4-7-4-11l2-27 2-5 3-12c0-3-1-10-5-13l-2-6 1-12v-2l1-1 3 2c7 6 14 10 22 15l7 6 5 5 5 7 6 6c5 6 11 9 18 11h4v-1l-4-3-5-3-11-9-8-9-1-2v-1h2l16-10 3-2h5l7 4 10 5 2 1v1l-3 3-2 3 6-4 8-4c5-3 9-6 12-11l1-1h3c7 6 13.7 12.3 20 19l4 4 4 4-2 7-2 5c-7.4 18.5-17.1 36-29 52l-19 19-1 1-24 20a365.7 365.7 0 0 1-45 25l-25 7-12 1-13-3a137 137 0 0 1-37-15 346.3 346.3 0 0 1-50-36c-9.4-10-18.4-20.3-27-31l-4-7-12-24v-4l8-6 4-4c3-2 5-4 7-8l1-1h1l4 7 5 7 6 4 14 9 5 4h1v-1l-1-1-6-5-4-3c-5-3-7-8-10-13v-1l8-5 9-8 12-12 5-4h3l2 2c3 3 7 6 11 7l12 5v2l-3 5-2 4-1 2 1-2 2-2 5-5c2-4 6-8 10-10l5-4c6-3 11-7 15-12l2-1h1v10l-1 4c-3 3-4 7-4 10l-1 7c-1 4-1 9 1 13l4 5 2 3v11c0 3-1 5-3 8-3 2-4 6-4 9v23c0 5-1 9-3 14v3l2 1 5 2 2 1c2 0 2 0 1 2v3c0 1 1 2 3 2l2-3-1-2c-1-2-1-2 1-2l2-1 3-1c3-2 3-3 2-6l-2-9v-25l-1-6-3-6c-2-2-3-5-3-9v-7l1-1 2 1 3 1 4 2v7l-1 3-1 1 1 4c2 1 4 1 5-1v-3l-1-1-1-2v-8l1-1 8-2h1v12m16-187c2 0 4-2 5-4v-1h-1l-4 3-1 1 1 1m-59-4-1 1c1 3 6 6 6 5v-1c-1-2-2-4-4-4l-1-1m13-12-1 1 3 5 1 1 1-1-2-5-2-1m36 60-1 1 4 5h1v-1c0-2-1-4-3-5h-1m2-61-1-1-1 1-4 5 1 1 2-1c2-1 2-3 3-5m-33 63-1-1-5 4 1 2h1l4-4v-1m-25-26 5-2-1-1-4-1c-1 0-2 0-3 2l3 2s1 0 0 0m74 14c0 1 0 1 0 0l-5-4h-1v2c1 2 2 3 5 4l1-2m-33 24c1-3 1-5-1-7h-2l-1 3 2 4h2m-30-26v-1h-1c-3 0-4 1-6 3l1 2h2l4-3v-1m66-19-3 1h-1v2c2 2 5 1 7 0l1-1-1-1-3-1m-36-34v-2l-2-1-2 1c0 3 0 5 2 7h1l1-5m-2 52v2l1 5 1-4v-5l1 1 2 5h2l-2-4-2-5-1-3v-19l1-2v-3l-2-3-1 3-1 2c0 2-1 3 1 4v14-1l-2-3-1-3-1-3v-4h-2l-1-2v-2l-4-5-1 1 2 6h1l1 1 1 2-1 1v2l3 1 1 4 2 4 2 7v7m0 28c-7 0-13-3-19-7-8-5-14-12-19-20-5-6-6-13-5-21 1-5 3-10 7-14l13-14c5-4 10-7 16-9 5-2 11-2 16 0 6 3 11 6 16 11l11 11a28 28 0 0 1 4 35c-6.4 9.8-15 18-25 24-5 3-10 4-15 4"/>
    <path fill="#9BADFA" d="m408.4 344.3-11 1h-5l-4 1-2-1-2-4c-6-6-13-11-21-14l-5-2a37.5 37.5 0 0 0-22 0c-8 3-15 7-22 13l-5 6c-1 2-2 2-3 2l-16-2h-14v-1l2-3 6-6 10-13 4-1h26l5 1c5 0 10 1 14-1l9 1h5l10-1h32l2 2 18 22h-11m-10 97h-12l-5 1h-16l-26-1-8 1h-14l-5-1h-23l-1-1 1-1c3-4 7-9 9-14 1-2 2-2 3-2l8 1 2 1 9 1 10 1h7l7-1h7l6 1h9l10-2 9-1h11l10 16v1h-8m-34-21-15 2h-4l-16-2h-26c-2 0-3-1-3-2-1-6-6-16-6-17v-1h18l2 1 8 6a49.9 49.9 0 0 0 29 7l11-2c7-2 13-6 19-11l2-1h18l-1 3-4 10-1 3-1 3-1 1h-29m15-124 2 1 8 10 6 7 1 2v1h-36l-12 1h-1l-14-1h-34v-2l14-17 4-2h15l1 1v10c1 3 3 4 5 5h18c3 0 5-3 5-6v-7c0-3 1-3 3-3h15m-33 211c2 1 3 0 3-2l-2-3c-1 0-3 1-3 3l2 2m-2 18c-8-2-13-6-14-9-2-4-3-8-2-12l4-8 1-2c4-3 8-6 13-7h5s7 1 11 7l3 9s1 7-3 13c-3 7-11 10-18 9m23 58v19l3 7v1c-4 3-8 4-12 3l-8-2-1-2 3-8 2-7 3-31c0-3 1-3 3-3h3l2 5 1 8 1 10m-27-16v7c0 6 1 12 3 17v2c-3 1-6 2-10 1l-8-4 1-1 2-10v-25l1-5 4-4 2-1 4 4 1 7v12m64-219 13-2h3v1l-3 7-5 13-1 2-1 1-15 1-1-1c0-8-3-14-6-21l1-1h15m-120 22-1-1-1-3c-2-6-4-13-8-19l1-1 7 1a135 135 0 0 0 22 1h3l-1 3-4 12-1 3v3c0 2 0 2-2 2h-4l-11-1m64-98 13 1 3 2 8 11 5 6 1 1-1 1h-3l-12-1-1-1-1-7c0-3-2-5-4-7s-4-3-7-3l-3-1c-4 2-8 3-10 7l-2 6v5l-1 1h-2l-10 1h-4v-1l14-18c0-1 1-2 3-2l14-1m-47 126h-8l-2-1-3-7-2-10-2-6 1-1h2l14 1c1 8 4 16 9 22v2h-9m92 0h-5l-4-1 2-3c3-5 6-10 7-16l1-4 4-1h12v1l-3 15-3 7-3 2h-8Z"/>
    <path fill="#9BADFA" d="m348.4 306.3 1-7v-5c-2-5-1-11-1-17h2c3 1 6 4 8 7l1 7-1 4v12l-2 2-4 1c-4 0-4 1-4-4m-1-21-1 9v5l1 9c0 2-1 2-2 2h-5c-2-1-3-1-3-3v-2l-1-12c-2-7 3-14 9-16h1l1 3v5m-12-16c-1-1 6-9 8-12l2-3c2-3 2-3 5 0l4 7 5 9c-4 0-23 1-24-1m14 190h1l1 1 1 1 4 5 2 2v9l-2 8-5-2-2-2v-22m-13 8 1-2 5-5 2-3v24l-1 1h-7v-15m1-22h7l1 1-1 6-7 6v-13m21 9v4h-1l-1-1-5-5-1-3c0-4-1-4 3-4h4l1 1v8"/>
    <path fill="#FFF" d="m347.4 377.3-2-7-2-4-2-2-1-1 2-1-3-1v-2l1-1-1-2-1-1h-1l-2-6v-1l1 1 4 4v3l1 1h2v4h2c1 1-1 2-1 3l1 3 2 3s0 1 0 0v-13c-2-1-1-2-1-4l1-2 1-4 2 7c1 1 0 2-1 2v19l1 3 4 10c1 2-1 1-1 0l-3-6h-1v5c0 6-1 4-1 3l-1-5v-8m2-45-1 4h-1c-2-2-2-4-2-7l2-1 2 1v3m36 33 3 1 1 1-1 1c-1 0-4 2-7 0v-2h1l3-1m-66 20-4 4-2-1-1-2c2-2 3-4 6-4 2 0 2 2 1 3m28 25-2-4 1-3h2c2 2 2 4 1 7h-2m34-22c-3-1-4-2-5-4l1-2c3 0 4 3 5 4s-1 2-1 2m-73-16-3-2c1-2 2-2 3-2l4 1 1 1-5 2m26 26-5 5c-2 0-2-1-2-2l5-5c2 0 2 1 2 2m33-62c0 2-6 6-7 5s1-6 4-7c0 0 2 0 3 2m-2 60c2 1 3 3 3 5v1h-1l-4-5 1-1h1m-35-59 2 5-1 1-1-1-3-5s1-2 3 0m-14 12c2 0 6 5 4 5-3 1-6-3-6-4s0-2 2-1m57 2 1-1 4-3h1v1l-1 2-4 2-1-1m-27 156-2-2c0-2 2-3 3-3l2 3c0 2-1 3-3 2m67.2 71.5 2.8 2.8 2.8-2.8-2.8-2.8-2.8 2.8Zm-6-19.1c0 .4-.2 6.8-.1 13.3-6.8.5-5.7-13.3-5.3-15 .2-1.4-4.4 1.7-6.6 3.8.7 1.3 1.7 1 2.9.5-.5 6.2 3.9 11.8 9 11.7.2 6.4.9 12.5 2.7 13 .2 0 .5-6.5.6-13.7 12.2-3.8 7.5-18.3 7.5-18.3-.2-.8-2 .3-6 3.9 1.6 1.7 2.3.7 3.6.3 1 1.9 1.4 10.5-5.1 13l.3-18-.4-.2c-1.8.2-5 3.4-7.5 6 1.4 2.3 3 .3 4.5-.3"/>
  </g>
</symbol></svg>
