<svg xmlns='http://www.w3.org/2000/svg' viewBox='0 0 696 830' fill='none'><symbol id='Taicang_Fill'>
  <g fill="none">
    <path fill="#00807D" d="m590.8 428.4-1 34-3 24-2 24c-3 24-9 48-20 70a315.5 315.5 0 0 1-76 99 163 163 0 0 1-91 43l-27 4-14 1-10 1-20-2-36-6a168 168 0 0 1-80-38l-34-34a292.4 292.4 0 0 1-53-89c-5-13-8-27-10-40l-5-41a399.3 399.3 0 0 1 0-107c3-28.7 9.7-57 20-84l17-42c5-13 11-25 18-36l31-41c21-25 48.8-43.4 80-53l28-9c12-4 24-5 37-4h18c12-1 25 0 37 4 17 5 33 10 49 18 23 11 43 26 59 45 18.4 23 34.5 47.8 48 74l18 48a292.2 292.2 0 0 1 20 87l2 50"/>
    <path fill="#FFF" d="m571.8 439.4-2-28c-2.1-21.1-4.8-42.1-8-63-2-14-7-28-11-41-11-26.5-22.4-52.8-34-79-10-17-21-33-34-48-14-17-31-29-51-37a437.3 437.3 0 0 0-64-15l-10-1a178 178 0 0 0-64 8l-35 11c-8 4-16 8-22 13-9 7-17 15-25 24l-26 37c-9 12-16 26-21 40l-14 38a364.3 364.3 0 0 0-22 101l-2 26c-2.8 33 .6 66.2 10 98 9 38 28 71 53 101l32 32a164.8 164.8 0 0 0 70 40c9 2 19 3 28 6l19 2c11 .8 22 .4 33-1l25-5c28-6 53-19 74-38l27-26c12-11 21-24 30-37 12-18 21-36 28-56a383 383 0 0 0 16-102m6-13-1 29-3 25-2 19a207.8 207.8 0 0 1-35 100c-11 18-24 34-38 48l-20 19c-19 17-40 28-64 34l-28 5c-10 1.4-20 2.8-30 4l-4 1h-5l-26-3-25-4c-28-4.8-54.2-17-76-35a272.3 272.3 0 0 1-85-120c-4-11-7-23-8-35l-4-34-3-27v-31c0-13 0-26 2-38l3-27c3-24 10-47 19-69l12-30c5-14 12-27 20-39 9-12 17-24 27-35 13-16 30-29 48-39 12-6 25-11 38-15l22-7c9-2 18-2 27-2l19 1c13-2 25 0 38 4s27 9 40 15c19 8 35 19 50 34l13 16a422.7 422.7 0 0 1 41 63l18 47c9.2 24 15 49.3 17 75l3 51"/>
    <path fill="#FFF" d="M287.8 311.4c0-2 0-3-2-2l-3 1v1l4 2h1v-2m1-10c0-2-1-2-2-2-4 1-7 3-9 5-4 2-4 2 0 4h3l6-3 1-2 1-2m168 182-1-15-2-2c-2 0-2 1-2 3v16c1 5 1 11-1 16v6l2 15c.8 4.6.8 9.4 0 14l1 1 2-1v-36l1-17m-184 53 1-1 1-7c0-5 1-10 3-14l2-6 1-10c0-1 0-2-1-1l-13 3-1 2 6 31 1 2v1m104-122-1 28v1l1 1h2c3-1 3-1 3-4l1-20 1-33v-2l-1-1-4-1c-1-1-1 0-2 1v30m-7-2v17l2 16c2 0 2-1 2-2v-2l1-40v-19c0-2 1-3 3-2l5 1 1-1c0-2 0-3-2-3l-21-13-5-2v6l2 2c3.7 1.9 7.4 3.9 11 6l1 3 1 9-1 24m-111 88h-3l-2 2-1 8v25l1 2h3l11 1c5 1 4 0 3-3-3-10-6-20-7-30-1-5 0-5-5-5m66-12h-1l-15 2-1 1c-1 0-2 0-1 1l6 26 1 11 1 8 2 4c2-1 1-3 1-4 0-7 1-14 4-21 1.5-4 2.5-8 3-12l1-15-1-1m6-13h-1v8l2 1h3c6-1 12 0 18 1l10 2c2 1 2 0 2-1v-16l-5-1h-9l-12-2-7-2-1 2v8m-40-173c0 2 0 2 3 3l7 4 9 5 11 6 21 15c14.8 8.6 29 18 43 28 1-2 0-3-2-5l-11-9-16-11c-10-5-19-12-28-19l-17-13c-4-4-10-6-15-7-4-1-4-1-5 3m74 157v-4c0-6 1-5-5-7l-18-5-7-3c-4-2-4-2-4 2v18l1 1h3c6 0 12 1 18 4l10 2c2 1 2 0 2-1v-7m1-46 1-6 1-25c0-3-1-5-4-6l-3-2-4-1h-1v37l-1 14v17l1 2 9 2 1-3v-29m18-43c1-2 0-3-1-3l-9-7a226.5 226.5 0 0 0-36-23 166.8 166.8 0 0 1-32-22l-12-6c-3-1-3-1-3 2v1c-1 3 0 4 2 5 8 4 16 9 23 15 14 11 29 20 46 29l15 8 5 3c2 1 2 0 2-1v-1m-56 105v-8c0-2-1-2-3-2l-1 1-15 3c-7 1-15 3-22 6-5 3-11 4-17 5l-13 2c-3 0-3 0-3 3v10h3c8-3 16-5 24-4l10-1 15-2 19-3c3-1 3-1 3-3v-7m42 13-1 10v21l1 23 1 1 9-1c1 0 2 0 1-1v-32l3-32v-16l-2-11-1-4-4 1-6 2-1 2v37m-56 57v-2l-4-13-3-15-2-15v-8l-2-1-18 4-1 2-2 10-1 9-2 15-2 6v2l2 1 29 5h6m170-58v-7c1-2 0-4-2-5l-10-4-10-3-1-1-2 1v7l1 35-1 8v16c0 2 0 2 2 2l20-1h2l1-1v-9l-1-11v-13l1-14m-119 30h1l-1-25-1-2h-15a46 46 0 0 1-18-3l-1 1v3l-2 10c-2 6-2 12-2 18l-2 14-3 10-1 2 1 1h22l20-2c2 0 2 0 2-2v-25m-141-66v15c0 1 0 2 1 1l19-8 2-2v-2l-1-21v-27l1-39v-6l-2-18 2-23 2-20v-3h-1l-2 3c-5 8-11 17-19 24l-1 3 1 16v12l1 32c0 7-1 15-3 22l-1 5 1 15v21m11 86 13-1 2-1v-1l1-17v-8l-1-6c-1-7 0-13 1-20l3-3 4-1 15-5 16-4c5 0 11-1 16-3l17-3 4-1 1-2v-2c-.7-6-.7-12 0-18l-1-1-14 5-21 6c-7 1-13 3-19 6l-8 3-15 5-23 7c-2 0-2 0-3 4v16l-1 38v6l1 1h12m113 106 10-2 7-1c9.7-2.6 19-6.3 28-11v-1h-4a376 376 0 0 1-55-5l-8-3-4-3c-3-4-3-8 0-11l4-3 8-4 17-4 26-4 13-3 5-3v-2l-3-1-13-2-40 1c-22 1-44 0-66-3-16-2-32-6-47-12l-3-1c-1 2 1 2 1 3 9 11 19 21 30 30a286.6 286.6 0 0 0 73 40l10 3 11 2m53-99 3-1h13c9.8-.2 19.5-1.5 29-4 2-1 2-1 2-3-2-10 0-20 1-30v-7c-2-4-2-8-1-12l1-6 1-13c0-2-1-2-3-3l-13-4a90.6 90.6 0 0 0-16-6l-23-8-2-1-2 1-3 14v13c1.4 23 2 46 2 69h11m-14 75 21 1c2 0 4 0 5-2 18-11 35-23 49-39a134.5 134.5 0 0 0 26-37c1-1 0-2-1-2l-12 2c-14 5-29 8-44 10-7 1-14 1-21-1-4-1-7-2-11-1-5 0-10 0-15-2h-7c-7 1-15 2-22 5-5 2-11 3-17 3h-13c-8 0-15-2-22-4l-9-4c-7-2-15-4-22-4l-18 1-22 1c-8 0-16-1-24-5-1 0-1 0 0 0l6 13 2 2 8 2c25 8 50 13 77 14l38 2 26 1 19 2 10 3 4 2c2 2 2 4 0 6l-3 2-7 3-21 6-25 6-10 4-3 2v1l6 2c6 2 13 3 20 3l32 2m-136-207v14l3 31 11-2 22-5 11-4 24-8h13l12 3h2l1-1 1-1v-28l1-24v-25l-1-3-2-1a484.3 484.3 0 0 0-53-32l-19-13-21-13-3-2-2 1 1 13c1 11 2 21 1 32 0 7 0 14-2 21l-1 7 1 32v8m138-18c.6 15.4 1.9 30.7 4 46l4 1c10 2 19 6 27 11 3 3 7 4 11 6l11 4c3 2 6 3 10 3 5-1 9 1 13 3l15 7c2 0 2 2 3 3v2l1 21c1 5 1 10-1 16v4l-1 13h1l1 1c2 0 4 0 5-3l4-9 2-4a198 198 0 0 0 15-74c.7-19.4-.3-38.8-3-58l-13-47c-5-17-12-33-21-49l-17-29-10-15-8-9c-16.1-11.6-32.5-23-49-34-13-6-25-10-38-14-5-2-10-2-14 0l-29 10c-9 4-19 8-27 14l-18 12-8 6c-9 9-17 19-24 30l-16 29c-10 17-18 34-23 53-4.2 15.6-8.2 31.3-12 47a245 245 0 0 0-1 75c2.8 23 9.6 45.3 20 66 1 2 2 4 5 4l5 1 2-1-1-9 1-43v-8l2-28c0-9 1-17 3-26l1-11-2-11v-34l1-21 1-11c0-5 1-9 4-13 6-8 12-16 20-23 3-4 5-6 11-2l13 8 3 1h1l2-2 8-6c4-3 9-3 13-2l8 4 11 8 17 11 23 16 30 23 4 7v30m133 28c1.6 36.9-6 73.7-22 107l-10 21a174.9 174.9 0 0 1-86 83l-17 8c-10 4-21 6-32 8h-6a153.8 153.8 0 0 1-61-18l-18-9c-15-9-29-21-40-35l-8-10c-6-8-11-15-15-24l-16-34a277 277 0 0 1-12-149l9-33c8-27 21-53 39-75l19-23 1-2a160.4 160.4 0 0 1 52-42l28-10c6-1 13-3 20-3l10 1a152.7 152.7 0 0 1 63 26c7.2 6 14.2 12.5 21 19l24 28a239.5 239.5 0 0 1 49 105c2.9 13.6 5.3 27.2 7 41l1 20"/>
    <path fill="#00807D" d="m206.8 405.4-2-1c-1 0-2 0-2 2l2 1 2-2m91-163 2-2c1-1 0-2-2-2l-2 1c0 2 1 3 2 3m85 62-2-2-2 2 2 2 2-2m101 38c0-2-1-2-3-2l-1 2 2 2 2-2m19 144c1-2-1-3-2-4-2 0-4 2-4 3 0 2 2 4 4 4l2-3m-120-258c0-2-1-4-3-4s-4 2-4 4 2 3 4 3c1 0 3-1 3-3m15 61c2 0 4-1 3-3 0-2-1-4-3-4s-4 2-4 4 2 3 4 3m-196 164c0-3-2-5-4-5-3 0-5 2-5 5 0 2 2 4 4 4 3 0 5-2 5-4m225-48c0-3-2-5-5-5s-5 2-5 5 2 5 5 5 5-2 5-5m19-56c0-2-2-5-5-5s-5 2-5 5 2 5 5 6c3 0 5-3 5-6m-115-80c0-3-2-6-6-6-3 0-6 3-6 6s3 6 6 6c4 0 6-2 6-6m58 124v-30l-4-7-30-23-23-16-17-11-11-8-8-4c-4-1-9-1-13 2l-8 7-2 1h-1l-3-1-13-8c-6-4-8-2-11 2-8 7-14 15-20 24-3 3-4 7-4 12l-1 11-1 21c-1 15-.2 30 2 45l-1 11c-2 9-3 17-3 26l-2 28v8l-1 43 1 9-2 1-5-1c-3 0-4-1-5-4a201.2 201.2 0 0 1-21-97 245.3 245.3 0 0 1 14-91c5-19 13-36 23-53l16-29a142.8 142.8 0 0 1 32-36l18-12c8-6 18-10 27-14l29-10c4-2 9-2 14 0 13 4 25 8 38 14l18 10c10.4 7.9 20.7 15.9 31 24l18 24 17 29c9 16 16 32 21 49 6.8 23.3 12 47 16 71a316 316 0 0 1-6 80c-2 10-5 19-9 28l-2 4-4 9c-1 3-3 3-5 3h-1v-18c2-5 2-11 1-16l-1-21v-2l-3-3-15-7c-4-2-8-4-13-3l-10-2-11-5c-4-1-8-3-11-6-8-5-17-8-27-11h-4c-2-1-2-1-2-3l-2-44"/>
    <path fill="#00807D" d="M281.8 406.4v4l1 1v-2l1-5c0-4 0-4 4-6v-1h1v1l-1 7 1 1v-1l1-3v-4c0-2 1-3 2-3l1-1 6-2v6l-1 2-1 2-1 1-4 3c2 1 3-1 4-2h1c1-1 1 0 1 1l1 1c0 2 0 3-2 4l-7 4v1l5-3 4-2v4l-2 4c-2 0-3 2-4 3h1l3-2h1v2l1 5v1l1-1v-2l1-5c2 0 3 2 4 3h1v-1l-4-4-2-2v-4h1l2 1 6 4h1l-1-1-7-5-1-4c0-2 1-3 3-1l1 1h1v-1l-3-2-1-3-1-7 1-1 6 3c2 1 2 2 2 4v7l1 1v-8l1-1h1l2 2 1 4v7h1v-7l2-1c2 1 3 2 3 4v2l1 2v-2l1-2 1-1 5 3h1l-1-1-4-3c-1-1-1-1 1-2l3-2h-1l-4 1h-2l-3-2 1-1 6-4-7 3h-5l-2-2 2-2h1l2-1h-2l-4 2h-3l-5-4v-3l4-2c2-1 4-1 6 1h1l4 2c0-2-2-2-3-3-1 0-2 0-2-2l2-1h3l8 4v-1l-4-2-3-2v-1l3-2h2l4 2h1v-1l-4-2v-1l3-2 4-2v-1l-4 2-3 2h-1l-1-1 1-5h-1l-1 6-1 2h-4v-9l-1 1v2l-1 5c0 3-1 4-3 5l-1-1v-7l-1 1-1 7v2l-8 4-1-1 2-11 2-1 3-2c-1-1-2 0-3 1l-2 1-1-1v-3l1-2 7-4-2 1-5 2h-1c-1-4-1-5 2-6l3-2c-2-1-3 0-4 1l-1-1v-7l-1 1-1 5c0 2 0 2-2 1l-1-1-1 1h1l2 2 2 3v2l-2 1-7-4h-1v1l7 4c2 1 2 1 2 4l-1 1h-1c-1 0-2-2-4-1l3 2 1 1 1 1 1 9c0 2-1 2-2 2l-4-2c-4-3-3-3-3-7v-5l-1-1v1l-1 3v3l-1 1c-1-1-3-2-3-4v-9l-1 1v7c0 1-1 2-2 1l-2-1-2-2v-6l-1 1v4l-2 1-2-2-4-2v1l3 2 3 2v2l-5 2c2 1 4-1 5-1l1-1 3 1h1c2 2 2 2 0 3l-6 4h-1l1 1 7-4h4l2 1v1l-5 3-1 1h1l9-3 6 5-6 4h-3l-3-2h-1v1l3 2v1l-1 1c-2 1-4 1-7-1l-4-2-1-1h-1l1 2 6 3v1l-2 1-3 1-4-2h-1v1l4 1v2h-1l-4 4 5-2 2 1v4l1-2v-3l1-1 4-2v4m-31 5v-47c2-7 2-14 2-21 1-11 0-21-1-31l1-15 3 2 21 14c13 7.8 25.7 16.2 38 25l34 19 2 1 1 3v25l-1 25v27l-1 1c0 1 0 2-1 1h-2l-12-3h-13l-24 8-11 4-22 5-11 3c-2 0-2 0-3-2v-44m136 207-32-2c-7 0-14-1-20-3l-6-2v-1l3-2 10-4 25-6 21-6 7-3 3-2c2-2 2-4 0-6l-4-2-10-3-19-2-26-1-38-2c-27-1-52-6-77-14l-8-2-2-2-7-12v-1h1c8 4 16 5 24 5l22-1 18-1c7 0 15 2 22 4l9 4c7 2 14 4 22 4h13c6 0 12-1 17-3l22-5h7c5 2 10 2 15 2 4-1 7 0 11 1 7 2 14 2 21 1 15-2 30-5 44-10l12-1c1 0 2 0 1 1l-5 10a234.2 234.2 0 0 1-70 67l-5 1-21-1"/>
    <path fill="#00807D" d="m400.8 544.4-11-1c-2 0-3-1-3-3 2.5-22 2.8-44 1-66v-13l3-14 2-1 2 1 23 8 3 2 13 4 13 4c2 1 3 1 2 3 .4 10.3.4 20.7 0 31v7c-1 10-3 20-1 30 0 2 0 2-2 3-9.6 1.6-19.3 2.9-29 4h-13l-3 1m-53 99-11-2-10-2c-8-3-16-5-23-9a285.4 285.4 0 0 1-80-62c0-1-2-1-1-3l3 1c15 6 31 10 47 12 22 3 44 4 66 3l40-1 13 2 3 1v2l-5 3-13 3-26 5c-8.5 1.9-16.8 4.2-25 7l-4 3c-3 3-3 7 0 11l4 3 8 3 19 4c13.3 1.4 26.6 2 40 2l-3 2c-8 4-17 7-25 9l-7 1-10 2m-123-106h-2l-1-1v-6l1-38v-16c1-4 1-4 3-4l23-7 15-5 8-3c6-3 12-5 19-6l21-6 14-5 1 1v3c-.6 5.7-.6 11.3 0 17l-1 2-4 1-17 3c-5 2-11 3-16 3l-16 4-15 5-4 1-3 3c-1 7-2 13-1 20l1 6v8l-1 17v1l-2 1-13 1h-10m-1-86v-21l-1-15 1-5c2-7 3-15 3-22l-1-32v-12l-1-16 1-3c8-7 14-16 19-24l2-3h1v3l-2 20-2 23 2 18v6l-1 39v27l1 21v2l-2 2-19 8c-1 1-1 0-1-1v-15m141 91c0 2 0 2-2 2l-20 2h-22l-1-1 1-2 3-10 2-14c0-6 0-12 2-18l2-10v-3l1-1 2 1c5 2 11 2 16 2h15l1 2 1 25-1 25m119-55-1 14v13l1 11v9l-1 1h-2l-20 1c-2 0-2 0-2-2v-16l1-8-1-35v-7l2-1 1 1 10 3 10 4c2 1 3 3 2 5v7"/>
    <path fill="#00807D" d="M313.8 545.4h-6l-29-5-2-1v-2c1.2-7 2.6-14 4-21l1-9 2-10 1-2 18-4 2 1v8l2 15 3 15 4 13v2m56-57v-37l1-2 6-2c1 0 3-2 5-1v5l2 10v16l-3 32v24l-1 9-9 1-2-1v-44l1-10m-42-13v7c0 2 0 2-3 3l-19 3c-8.3.9-16.7 1.9-25 3-8-1-16 1-24 4h-3v-10c0-3-1-3 3-3l13-2c6 0 12-2 17-5 7-3 15-5 22-6l15-3 1-1c2 0 3 0 3 2v8Zm56-105v1c0 1 0 2-2 1l-5-3-15-8c-17-9-32-18-46-29-7-6-15-11-23-15-2-1-3-2-2-5v-1c0-3 0-3 3-2a37.6 37.6 0 0 1 15 8c9.2 8 19.3 15 30 21a237.1 237.1 0 0 1 45 32m-18 43v29l-1 3c0 1 0 2-1 1l-9-5v-31l1-35v-2h1l4 1 3 2c3 1 4 3 4 6l-1 25-1 6m-1 46v7c0 1 0 2-2 1l-10-2a50.4 50.4 0 0 0-21-4l-1-1v-18c0-4 0-4 4-2l7 3 18 5c6 2 5 1 5 7v4Zm-74-157c1-4 1-4 5-3 5 1 11 3 15 7l17 13c9 7 18 14 28 19l16 11 11 9c2 2 3 3 2 5l-1 1-1-1-3-2-38-26-21-15-11-6-9-5-7-4c-3 0-3-1-3-3m40 173v-8l1-2 7 2 12 2 9 1h5v16c0 1 0 2-2 1l-10-2c-6.8-1.8-14-2.2-21-1l-2-1v-8h1m-6 13 1 1v1l-1 14-1 6-2 6c-3 7-4 14-4 21 0 1 1 3-1 4l-2-4-1-8-1-11-6-26c-1-1 0-1 1-1l1-1 15-2h1m-66 12c5 0 4 0 5 5 1 10 4 20 7 30 1 3 2 4-3 3l-11-1h-3l-1-2v-25l1-8 2-2h3"/>
    <path fill="#00807D" d="m369.8 412.4 1-24-1-9-1-3a78.2 78.2 0 0 0-11-6l-2-2v-6l5 2 21 13c2 0 2 1 2 3l-1 1-5-1c-2-1-3 0-3 2v19l-1 40v2c0 2 0 2-2 2-2 1-2 1-2-2v-31"/>
    <path fill="#00807D" d="M376.8 414.4v-30c1-1 1-2 2-1l4 1 1 1v2l-1 33-1 20c0 3 0 3-3 4h-2l-1-1v-1l1-28m-104 122v-1l-1-2-6-31 1-2 13-3c1-1 1 0 1 1l-1 10-2 6c-1 4-3 9-3 14l-1 7-1 1m184-53-1 17v36l-2 1-1-1v-14l-2-15 1-6v-32c0-2 0-3 2-3l2 2 1 15m-168-182v1l-2 3-6 3h-3c-3-2-4-2 0-4 2-2 5-4 9-5 1 0 2 0 2 2m-1 10v2h-1l-4-2v-1l3-1c2-1 2 0 2 2"/>
    <path fill="#FFF" d="M330.8 269.4c0 4-2 6-6 6-3 0-6-3-6-6s3-6 6-6c4 0 6 3 6 6m115 81c0 2-2 5-5 5-3-1-5-3-5-6s2-5 5-5 5 3 5 6m-19 55c0 3-2 5-5 5s-5-2-5-5 2-5 5-5 5 2 5 5m-225 48c0 2-2 4-5 4-2 0-4-2-4-4 0-3 2-5 5-5 2 0 4 2 4 5m196-164c-2 0-4-1-4-3s2-4 4-4a4 4 0 0 1 1.6 5.4c-.4.7-1 1.2-1.6 1.6m-15-61c0 2-2 3-3 3-2 0-4-1-4-3s2-4 4-4 3 2 3 4m120 258-2 3a3.5 3.5 0 0 1-3.5-3.5c0-2 1.6-3.5 3.5-3.5 1 1 3 2 2 4m-19-144-2 2-2-2 1-2c2 0 3 0 3 2m-101-38-2 2-2-2 2-2 2 2m-85-62c-1 0-2-1-2-3l2-1c2 0 3 1 2 2l-2 2m-91 163-2 2-2-1c0-2 1-2 2-2l2 1m75 1v-4l-4 2-1 1v3l-1 2v-4l-1-1-6 2 4-4h1v-2l-4-1v-1h1l4 1h3l2-1v-1l-6-3-1-2h2l5 3c2 2 4 2 6 0h1v-2l-3-1v-1h1l3 2h3l6-5-6-4h-3l-6 3h-1l1-1 5-3v-1l-2-1h-3l-8 4-1-1h1l6-4c2-1 2-1 0-3h-1l-2-1-2 1c-1 0-3 2-5 1l5-2v-2l-3-2-3-2v-1l4 2 3 2 1-1v-4l1-1v1l1 5 1 2 2 1c1 1 2 0 2-1v-7l1-1v9c0 2 2 3 3 4l1-1v-3l1-3v-1l1 1v5c0 4-1 3 3 7l4 1c1 1 2 1 2-1l-2-10v-1l-4-2c2-1 3 1 4 1h1l1-1c0-3 0-3-2-4l-6-4-1-1h1l9 3v-2l-1-3-3-2h-1l1-1 1 1c2 1 2 1 2-1l1-5 1-1v7l1 1c2-1 2-2 4-1l-3 2c-3 1-3 2-2 6h1l5-3h2l-2 2-6 4v3h3c1-1 2-2 3-1l-3 2-2 1-1 1v11l8-4v-2l1-7 1-1v7h1c2 0 3-1 3-4l1-5v-3h1v9h1l3-1 1-1 1-6v-1l1 1-1 5 1 1 1-1 3-1 4-2v1l-4 2-3 2v1l4 2v1h-1l-4-2h-2l-3 2v1l3 1 4 3v1l-8-4h-3l-2 1 2 2c1 1 3 1 3 3l-3-2h-2c-2-2-4-2-6-1l-4 2v3l5 4h3l4-2h2l-1 1h-2l-2 2 2 2h5l7-3c0-1 0 0 0 0l-6 4-1 1 3 2h2l4-1h1l-3 2c-2 0-2 1-1 2l4 3 1 1h-1l-5-3-1 1v2l-1 2-1-2v-2c0-2-1-3-3-4l-2 1v7h-1v-7l-1-4-2-2h-1l-1 1v8l-1-1v-8c0-1 0-2-2-3l-6-3-1 1 1 7 1 3 3 2v1h-1l-1-1c-2-2-3-1-3 1l1 4 7 5 1 1h-1l-6-4-2-2-1 1v4l2 2 4 4v1h-1c-1-1-2-3-4-3l-1 5v2l-1 1v-1l-1-5v-2h-1l-3 2h-1l4-4c1 0 2-1 2-3v-4l-4 2-5 3v-1l7-4c2-1 2-3 2-4l-1-2h-2l-4 2 4-3 1-1 1-2 1-2v-6l-6 2-1 1c-1 0-2 1-2 3-.1 2.4-.5 4.7-1 7v1l-1-1 1-7v-1h-1c-4 3-4 3-4 7l-1 5v2l-1-2v-3Zm189.8-1.4c0 .5-.3 6.9-.2 13.4-6.8.5-5.7-13.3-5.3-15 .2-1.4-4.4 1.7-6.6 3.8.7 1.3 1.7 1 2.9.5-.5 6.2 3.9 11.8 9 11.7.2 6.4.9 12.5 2.7 13 .2 0 .5-6.5.6-13.7 12.2-3.8 7.5-18.3 7.5-18.3-.2-.8-2 .3-6 3.9 1.6 1.7 2.4.7 3.6.3 1 1.9 1.4 10.5-5.1 13l.3-18-.4-.2c-1.8.2-5 3.4-7.5 6 1.4 2.3 3 .3 4.5-.3m5.9 19 2.8 2.9 2.8-2.8-2.8-2.8-2.8 2.8Z"/>
  </g>
</symbol></svg>
