<svg xmlns='http://www.w3.org/2000/svg' viewBox='0 0 696 830' fill='none'><symbol id='Thaiwoo_Fill'>
  <g fill="none">
    <path fill="#FDBE00" d="M591 416.4c0 21 0 36-2 51l-3 31-3 25c-3 17-8 34-15 50a301.2 301.2 0 0 1-82 109c-20 18-43 29-69 36l-28 5a367 367 0 0 1-48 4c-20-1-41-4-61-9-27-7-51-19-71-38-15-14-29-27-40-42-19-24-34-49-44-76-6-15-10-30-12-45l-6-53a346 346 0 0 1 1-82c3-34 10-68 23-100l14-37c5-13 12-25 20-37l28-37c15-20 35-34 57-46 12-6 25-10 37-14l22-7c10-2 20-2 30-2h19c12-1 24 0 36 3 15 5 30 10 45 17a183.2 183.2 0 0 1 66 50 501 501 0 0 1 46 71l20 53a266.9 266.9 0 0 1 18 86l2 34"/>
    <path fill="#FFF" d="m572 439.4-1-23a2147 2147 0 0 0-8-67l-14-47-17-45-11-23c-12-20-25-39-40-57-13-15-29-26-48-33-9-4-19-6-29-9a226.3 226.3 0 0 0-68-8c-8 1-15 1-22 3l-42 11a117.2 117.2 0 0 0-60 43l-27 36c-8 13-14 25-20 39l-13 36c-13 31-20 64-23 97l-2 40c-1.6 18.3-1 36.8 2 55l8 34c9 39 27 73 53 103 12 14 26 27 40 39 17 15 37 26 60 32l27 6a135 135 0 0 0 59 1l14-3 29-7c20-7 37-18 53-32l23-23a236.6 236.6 0 0 0 64-107l8-36c3-14 5-28 5-42v-13m-451-18 3-50c3-29 10-57 21-84l13-33c4-11 10-22 17-33l27-36c15-18 33-32 53-42 12-6 25-11 38-15l19-6c9-2 18-2 26-2h22c10 0 21 0 31 3l43 16a172.9 172.9 0 0 1 62 46l26 35c7 11 13 22 18 35l19 48a430 430 0 0 1 16 168l-3 24c-2 17-4 33-9 49a278.8 278.8 0 0 1-86 124c-18 15-39 26-62 32l-27 5-24 4h-20c-12 0-24-2-36-4l-25-5c-25-7-48-19-67-37a281.3 281.3 0 0 1-78-110c-5-12-8-24-10-37l-4-33-2-25-1-24v-13"/>
    <path fill="#FFF" d="m273 222.4 9-1h2c6-4 10-9 13-14v-1l-4 2-20 13h-1v1h1m145 0 5 1 1-1-22-14-4-2h-1v1c3 5 7 9 11 12 2 2 4 3 6 2l4 1m-183 42v-2l-1 1-16 28-11 21-1 4h2l9-11 7-10 6-9c3-7 5-14 5-22m254 50-2-3-8-17-18-32-1-1-1-1v1l1 11c2 9 5 17 12 24l5 8 9 12 1 1 1-2 1-1m-98-44 7-1 16-4h1v-1l-1-1c-10-2-20-6-30-10h-3c-5 3-8 7-12 12l1 2 7 1 14 2m-87 0c7 0 14-2 21-4v-1l-11-12h-5l-21 8-8 3h-1l1 1 14 4 10 1m-22 44v-9l-3-3c-3 0-6-2-9-4l-3-2-1 1v2c1 7 0 13-3 19l-2 4c-1 2-1 3 2 4l5 1 9 3 2 1 2-1v-1l1-15m130 0 2 15c0 2 0 2 2 2 4-2 8-4 12-4l5-2 1-2-3-5c-2-6-4-12-3-19v-3l-3 2-10 5c-2 0-2 1-2 2l-1 9m11-48-7 1-8 4-10 3c-2 1-4 2-5 5l-7 20c0 2 1 2 2 2h3l26-4 10-4c2 0 2-1 3-3l2-10 1-1h-1l-1 2-5 10-6 4c-2 0-3-1-3-3s0-3 2-4l3-1c3 0 5-2 6-4l2-6c1-1 2-2 1-4l-3 3-1 1c-2 2-4 4-8 5-2 1-4 2-5 5l-5 4c-2 1-4-1-4-3l1-4c2-2 3-2 5-2l7-2 8-5 6-5-1-1c-6 1-11 4-16 7l-4 3c-2 0-4 0-5-2l-1-3 2-1 5-1c3 2 5 1 7 0l11-5v-1h-7m-152 0h-6l-1 1 11 5h10l4 2-1 4-3 1-5-2c-3-3-7-4-11-6-2-1-4-2-7-1l6 4 8 6 7 2h2c3 1 5 3 5 5 0 3-3 5-5 4s-4-2-4-4c-1-3-3-4-5-5-4-1-7-3-10-6l-2-2-1-1v1l4 9c1 2 2 4 5 4l3 1c2 1 3 3 2 5s-3 2-5 1-3-2-3-4l-6-11h-1v1l3 10 3 4 13 4 12 1 12 2c3 1 4 0 3-3l-1-2-5-15c-1-4-3-6-6-7-8.4-2.3-16.8-5-25-8m-3-39c-3 0-6 1-8 4l-2 1a199.5 199.5 0 0 0-18 21l1 2h1l18 6c9 3 19 2 28-2l22-9 5-2 1-2-2-1c-4 0-7-2-11-4l-5-4-12-6c-5-3-11-4-18-4m156 36 8-2 21-6 2-1v-1l-2-3-13-15-6-6-5-2c-9-1-17 1-25 6l-12 7-12 6-2 1 1 1 4 2 27 10c4 2 8 3 14 3m8 33 1 6 1 11c1 9 5 17 9 25h2c5-5 9-9 15-12l5-6c3-5 4-9 5-14l-1-3a71.1 71.1 0 0 1-13-38c0-2-1-3-2-2l-10 3-3 2-2 2c-4 8-7 16-7 26m-169 0c-1-9-3-18-8-25l-1-2c-1-2-2-3-4-3l-8-2-2-1-2 1v2l-2 14c-2 8-5 15-10 22-2 3-2 2-1 6v3c2 6 5 11 10 15 5 3 10 7 14 12h2c3.2-7.6 6.2-15.3 9-23l2-11 1-8m86 148 1-4 3-8v-1l1 1 1 3 1 6c0 5 2 9 4 13l4 5c7 6 11 13 13 22l5 8 6 9c2 2 2 2 3 0l9-8c4-4 8-7 13-9l4-1 4-3v-2l-11-7-21-19c-6-6-11-13-14-22-4-8-4-9-12-13-6-3-10-7-14-12l-6-7-3-3-1 4-1 6c0 3 1 5 3 7l4 4c2 3 3 6 2 9l-2 6c-1 2-2 4-1 7s0 5-1 8l-1 3c-1 3-1 6 1 8l4 6 9 14 3 4 2 3v1h-1l-2-2-16-18-3-6v-10l2-3v-5l1-12c1-2 0-4-1-6l-1-3c-3-4-4-10-4-15l1-4v-3h-1l-1 1c-5 10-13 17-23 21-6 2-11 6-15 11l-17 18v3l14 15 12 10c4 4 9 7 15 7 5 1 9 2 12 5l8 5 18 12c3 3 7 6 11 7l3 1h2l8-6 3-3-3-3-2-2c-5-6-8-12-8-20 0-6-3-10-8-14l-7-4-5-5c-3-2-4-6-4-10m-1 199 13-2c15-4 29-10 42-18l17-10c17-10 32-24 46-39 7-8 14-16 18-26l13-27c5-11 9-22 12-34l1-6v-1h-1l-5 4h-4l-2-1c-6-5-12-10-16-17l-2-4c-2-2-4-5-7-6-4-1-6-4-9-7l-3-3-1-1v2c0 4 2 8 4 12l4 6c2 4 1 8-2 11l-3 2c-2 2-3 4-2 7l1 4c1 5 0 10-4 13l-5 6-13 16-2 3v-2c4-9 9-19 16-26 2-2 3-5 3-8 0-5 2-10 5-14 2-2 2-4 2-7l-3-5-3-6-2-10v-2l-2 2-1 2-13 19-8 8c-3 3-8 5-12 5l-4 1c-4 0-7 2-10 5l-3 4-9 12-14 13c-6 7-13 12-21 16l-25 14-5 3h-1l7-6 24-18 9-8v-2l-9-5-11-6-10-6c-4-3-8-5-11-9-2-3-6-5-9-7l-21-9-13-8-8-10-6-8-3-5h-1l-1 1v12c0 4 0 9 2 13 3.2 7 8 13.2 14 18 3 3 4 7 5 11v1h-1l-1-1-6-10c-1-2-2-4-5-5l-1-1v1l-2 11-1 4c-2 6 0 11 4 16l5 8 1 5v4h-1l-1-2-6-11-1-3-4-11c-2-3-3-7-2-11l2-6 1-4c0-3 0-5-2-7-5-4-7-9-6-15l1-6 2-11v-1h-1l-5 7-6 7c-6 8-13 14-22 17l-6 3c-4 2-6 5-7 8l-3 7c-1 3-3 7-6 9l-3 3-7 7v3l1 2a513.7 513.7 0 0 0 29 53 228 228 0 0 0 79 60l6 3c8 4 17 6 26 8l11 2m166-213v-17l-4-31-8-29c-2-11-6-21-10-31l-1-3h-5l-11-10c-2-2-2-1-3 0-3.8 7.6-7.4 15.3-11 23-4 4-10 7-15 9-1 1-2 1-3-1l-6-10c-3-4-2-4-7-2l-2 2-3 2-9 2c-2 0-3-1-3-3-2-8-3-16-3-25v-2l-1-1h-3l-15 1-4-1c-2 0-3-1-2-3v-4l2-7 3-12c1-1 1-1-1-2l-9-2-11-5c-2-1-3-2-2-4l6-8 6-4v-2l-3-3c-2-1-2-2-1-3l1-2 10-10c5-5 12-8 19-10h1l1-1-3-3-8-10c-2-4-4-6-8-7l-31-12c-6-2-12-2-18 0l-11 4-24 9-5 5-6 9-5 4c-1 1-1 2 1 2l11 4a66.5 66.5 0 0 1 19 18v3l-4 3v1l6 5c3 2 5 5 6 8 1 2 1 3-1 4l-7 2c-4 3-9 5-14 5l-1 2 1 3 4 15 1 5c0 2-1 3-2 3l-5 1-17-1-2 2c1 8 0 17-2 25-1 3-2 4-6 4h-2l-8-4-5-3c-1-1-1-1-2 1l-1 2-6 9c-1 3-2 3-5 1l-8-4c-6-3-10-8-12-15l-5-12-2-1-1 1-11 10-2 1c-1-1-2-1-2 1-2 5-5 11-6 17-5.1 18.2-9.7 36.6-14 55-3 15-3 29-3 44l1 3 2 1h1c2 1 3 2 2 4l-2 4h-2l-1 2 1 10c1 14.3 3.7 28.3 8 42h2l8-7 9-9 11-13c10-8 19-17 27-28l6-6c5-4 10-4 15-1l5 4c2 2 2 2 4 0 9-7 16-15 23-24 2-4 6-7 10-10 9.2-6.7 17.9-14 26-22h3l5 4 7 9c5 6 10 11 17 15l7 7 3 4c6 10 14 18 23 25a131 131 0 0 1 23 21h1l4-4 11-16 8-9 5-4c2-1 4-1 6 1l3 2 4 4c2 2 4 4 6 4 6 2 10 5 13 9l12 17 2 2h2l8-8c2-1 2-2 2-4 2-12 2-24 2-36m-340-10c-.5-18.8 1.6-37.7 6-56l8-30c8-25 20-48 36-69l16-21 10-12 14-14 15-12c6-5 13-9 20-12 15-6.5 30.8-10.8 47-13l10 1c16.2 2.9 32 8 47 15l12 8c9.4 6.9 18 14.6 26 23l25 29c19 23 32 49 41 77 4 11 6 23 9 35a169 169 0 0 1 6 40l-1 38c-3 27-8 53-20 78l-11 25c-5 9-10 18-17 26-6 8-12 16-19 22-5 6-11 11-17 15-13 9-27 17-41 23-12 6-24 9-37 11-9 2-19 1-28-1-14-3-28-8-41-14l-26-15c-10-7-20-15-28-24l-12-14c-8-10-14-20-19-32l-15-31a317.1 317.1 0 0 1-17-95"/>
    <path fill="#FDBE00" d="m366 232.4 1-2-2-2-1 3 2 1m-8-13c2 0 2-1 2-2l-2-2-2 2 2 2m121 179 2-2c0-2-1-3-2-2-2 0-2 1-2 2l2 2m17-20-2-2-2 2 2 2c1 0 2 0 2-2m-185-19-2-2c-2 0-3 1-3 3l2 2c2 0 3-2 3-3m-83 81c-2-1-3 1-3 2 0 2 1 3 3 3 1 0 2-1 2-3l-2-3m14-68c0-1-1-2-3-2-1-1-2 0-3 2 0 2 1 3 3 3 1 0 3-1 3-3m-22 19c-2 0-3 2-3 3 0 2 1 3 2 3 2 0 3-1 3-3 1-1-1-3-2-3m129-107c0-2-1-4-3-4s-3 2-3 4 1 4 3 4 3-2 3-4m37 68c2 0 4-1 4-3s-2-4-4-4-3 2-3 4 2 3 3 3m41 73c0 2 1 4 4 4 2 0 4-2 4-4-1-3-2-4-5-4-2 0-3 2-3 4m-133-34c2 0 4-1 4-4 0-2-2-4-4-4a4 4 0 0 0-4 4 4 4 0 0 0 4 4m211 62c-3 0-5 2-5 5 0 2 2 4 5 4 2 0 4-2 4-4 0-3-2-5-4-5m9-22c-.6 13.4-2 26.8-4 40l-8 9h-2l-2-3-12-17c-3-4-7-7-13-9l-6-3-4-5-3-2c-2-2-4-2-6-1l-5 4-8 9-12 16-3 4h-1l-1-1c-7-8-14-14-22-20-9-7-17-15-23-25l-3-4-7-7c-7-3-12-9-17-15l-7-9-5-4-3 1-4 2-22 19-11 10c-6 9-13 17-22 24-2 2-2 2-4 0l-5-4c-5-2-10-3-15 1l-6 7c-8 10-17 19-27 27l-11 13c-2 4-5 7-9 9l-9 7h-1l-1-4c-4-12-6-25-7-38l-1-10 1-2h2l2-4-2-4h-1l-3-1v-3a261.2 261.2 0 0 1 16-99l7-17c0-1 1-2 2-1l2-1 11-10 1-1 2 1 5 13c2 6 6 11 12 14l8 5c3 1 3 1 5-2l6-9 1-2c0-1 1-2 2-1l5 3c2.8 2.4 6.3 3.8 10 4 4 0 5 0 6-4 1-8 3-16 2-25l2-2 16 1 5-1c2 0 3-1 3-3l-1-5-4-15-1-3 1-1 14-5 7-3c2-1 2-2 1-4l-6-8-6-5v-1l3-2c2-2 2-3 1-4v-1c-6-6-12-13-19-17l-11-4c-2 0-2-1-1-2l4-4c3-2 5-5 7-9l5-5c11.4-4.7 23-8.7 35-12 6-3 12-3 18 0l31 11c4 1 6 3 8 7l8 11 3 2-1 1h-1c-8 2-14 5-19 11l-10 9-1 2c-1 1-1 2 1 3l3 3v2l-6 4-6 8c-1 2 0 3 2 4l21 10-3 11c-1.2 3.6-2.2 7.3-3 11 0 2 1 3 3 3l4 1 15-1h3l1 1v2c0 9 1 17 3 25 0 2 1 3 3 3 3 0 6 0 9-2l3-2 2-2c4-2 4-2 7 2l6 10c1 2 1 2 3 1 5-2 11-5 15-9l6-9 5-14h3l11 10h5l1 3 10 31 8 29 4 31v17"/>
    <path fill="#FDBE00" d="m348 643.4-11-2c-9-2-18-4-26-8l-6-3a286 286 0 0 1-79-60c-5-6-10-12-13-19l-16-34-1-2v-3l7-7 3-3c3-2 5-5 6-9l3-7c1-3 3-6 7-7l6-4c9-3 16-9 22-17l6-7 6-7v1l-2 11-1 6c-1 6 1 12 6 16 2 1 2 3 2 6l-1 5-1 5c-2 4-1 8 1 11l4 12 1 2 7 13h1v-4l-1-5-5-8c-4-5-6-10-4-16l1-4c2-3 3-7 2-11v-1l1 1c3 1 4 3 5 6 1.9 3.6 4.3 7 7 10h1v-1c-1-4-2-8-5-11l-4-3-10-15c-2-4-2-8-2-13v-12l1-1h1l3 5 6 8 8 10 13 9 21 9c3 1 7 3 9 6 3 4 7 7 11 9l10 6 11 6 9 5v2l-9 8-24 18-7 6h1l5-3 25-14c8-4 15-9 21-16l14-13a81.6 81.6 0 0 0 12-16c3-3 6-5 10-5l4-1c4 0 9-2 12-5l8-8 13-19 1-2 2-2v2l2 10 3 6 3 6c0 2 0 4-2 6-3 4-5 9-5 14 1 3-1 6-3 8-7 7-12 17-16 27v1l2-3 13-16 5-5c4-4 5-9 4-14l-1-4c-1-3 0-5 2-7l3-2c3-3 4-7 2-11l-4-6c-2-4-4-8-4-12v-2l1 1 3 3c3 3 5 6 9 7 3 1 5 4 7 6l2 4c4 7 10 12 16 17l2 1h4l5-4h1v1l-1 6c-3 12-7 23-12 34l-13 27c-4 10-11 18-18 26-14 15-29 29-46 40l-17 10c-13 7-27 13-42 17l-13 2"/>
    <path fill="#FDBE00" d="M349 444.4c0 4 1 8 4 11l5 4 7 4c5 4 8 8 8 14 0 8 4 14 8 20l2 2 3 3-3 3-8 6-2 1-3-2c-4-1-8-4-11-7l-18-12-8-5-12-5c-6 0-11-2-15-7l-12-10-14-15v-3l17-18c4-5 9-9 15-11a48 48 0 0 0 24-22h1v3l-1 4c0 6 1 11 4 15l1 3c1 2 2 4 1 7l-1 11v5l-2 3v10l3 6 16 19 2 1h1v-1l-2-3-3-4-9-14-4-6c-2-2-2-5-1-8l1-3 1-8c-1-3 0-5 1-7l2-5c1-4 0-7-2-10l-4-4c-2-2-3-4-3-7l1-6 1-4 3 3 6 7c4 5 8 9 14 12 8 5 8 5 12 13 3 9 8 16 14 22a4271 4271 0 0 0 32 28c-2.4 2-5.1 3.7-8 5-5 1-9 4-13 8l-9 8c-1 2-1 2-3 0l-6-9-5-8c-2-9-6-16-13-22l-4-5c-2-4-4-8-4-13-.5-3-1.2-6-2-9l-1-1v1l-3 8-1 4m-86-148-2 8-1 11-3 11-8 12c-4-5-9-8-14-12s-8-9-10-15v-3c-1-4-1-3 1-6a73.5 73.5 0 0 0 12-36v-2l2-1 2 1 8 2 4 3 1 2c5 7 7 16 8 25m169 0c0-10 3-18 7-25l2-3 3-2 10-3c1-1 2 0 2 2l3 15c2 9 5 16 10 23l1 3c-1 5-2 9-5 14l-6 6-14 12h-2c-4-8-8-16-9-25l-1-11-1-6m-8-33c-13.7-4.2-27.4-8.5-41-13l-4-2-1-1 2-1 12-6 12-7c8-5 16-7 25-6l5 2 6 6 13 15 2 3v1l-2 1-21 6-8 2m-156-36c7 0 13 1 18 4l12 6 5 4 11 5h2l-1 2-5 2-22 9c-10 4-19 5-28 2l-18-6h-1l-1-2 1-1 17-20 2-1c2-3 5-4 8-4m3 39 7 1 18 7c3 1 5 3 6 7l5 15 1 2c1 3 0 4-3 3l-12-2-12-1-13-4c-2-1-3-2-3-4l-3-10v-1h1l6 11c0 2 1 3 3 4s4 1 5-1c1-1 0-4-2-5l-3-1c-3 0-4-1-5-4l-4-9v-1l1 1 2 2c3 3 6 5 10 6 2 1 4 2 5 5 0 2 2 3 4 4s5-1 5-4c0-2-2-4-5-5h-2l-7-2-8-6-6-4c3-1 5 0 7 1 4 2 8 3 11 6l5 2 3-1 1-4-4-2h-10l-11-5 1-1h6m152 0h7v1l-11 5c-2 1-4 2-7 1h-5l-2 2 1 2c1 2 3 3 5 2l4-3c5-3 10-6 16-7l1 1-6 5-8 5-7 2c-2 0-3 0-5 2l-1 4c0 2 2 4 4 3s4-2 4-4c2-3 4-4 6-5 4-1 6-3 8-5l1-1 3-3c1 2 0 3-1 4l-2 6c-1 2-3 4-6 4l-3 2c-2 0-2 1-2 3s1 3 3 3l6-4 5-10 1-2h1l-1 1-2 11c-1 1-1 2-3 2l-10 4-26 4h-3c-1 0-2 0-2-2l1-2 6-18c0-2 3-4 5-5l9-3 9-4 7-1m-11 48 1-9c0-1 0-2 2-2 3.7-1.3 7-3.3 10-6l3-1v3c-1 7 1 13 3 19l3 5-1 2-5 2c-4 0-8 2-12 4l-2-1-2-16m-130 0-1 15v1l-2 1-2-1-9-3-5-1c-3-1-3-2-2-4l2-4c3-6 4-12 3-19v-2l1-1 3 2c3 2 6 4 9 4l3 3v9m21-44-9-1-14-4h-1l1-1 8-3 21-8h5l11 12v1c-7 2-14 4-21 4m87 0-14-2-7-1-1-2c4-4 7-9 12-12h3a161 161 0 0 0 31 11v1h-1l-16 4-7 1m97 44v1l-1 2-1-1-9-12-5-8c-7-7-10-15-12-24l-1-11v-1l1 1 1 1 18 32 8 17 1 3"/>
    <path fill="#FDBE00" d="M235 264.4a45.7 45.7 0 0 1-11 31l-7 10-9 11-1 1-1-1 1-4 11-21 16-28 1-1v2m183-42-4-1c-2 1-4 0-6-2-4-3-8-7-11-12v-1h1l4 2 22 14-1 1-5-1m-145 0h-1v-1h1l20-13 4-2v1c-3 5-7 10-13 14h-2l-9 1"/>
    <path fill="#FFF" d="M505 452.4c2 0 4 2 4 5 0 2-2 4-4 4-3 0-5-2-5-4 0-3 2-5 5-5m-211-62c-3 0-5-1-5-4 0-2 2-4 5-4 2 0 4 2 4 5 0 2-2 4-4 3m133 34c0-2 1-4 4-4 2 0 3 1 4 4 0 2-2 4-4 4-3 0-4-2-4-4m-41-73c-1 0-3-1-3-3s1-4 3-4 4 2 4 4-2 3-4 3m-37-68c0 2-1 4-3 4s-3-2-3-4 1-4 3-4 3 2 3 4m-129 107 3 3c-1 2-2 3-4 3-1 0-2-1-2-3 0-1 1-3 3-3m22-18-3 2c-2 0-3-1-3-3 1-2 2-3 3-2 2 0 3 1 3 3m-14 68 2 2c0 2-1 3-2 3-2 0-3-1-3-3 0-1 1-3 3-2m83-81c0 1-1 3-3 3l-2-2c0-2 1-3 3-3l2 2m185 19c0 2-1 2-2 2l-2-2 2-2 2 2m-17 20-2-2c0-1 0-2 2-2 1-1 2 0 2 2l-2 2m-121-179-2-2 2-2 2 2c0 1 0 2-2 2m8 13-2-1 1-3 2 2-1 2m-12.7 371.8 2.8 2.8 2.8-2.8-2.8-2.8-2.8 2.8Zm-6-19.1c0 .4-.2 6.8-.1 13.3-6.8.5-5.7-13.3-5.3-15 .2-1.4-4.4 1.7-6.6 3.8.7 1.3 1.7 1 2.9.5-.4 6.2 3.9 11.8 9 11.7.2 6.4.9 12.5 2.7 13 .2 0 .4-6.5.6-13.7 12.2-3.8 7.6-18.3 7.6-18.3-.2-.8-2 .3-6 3.9 1.6 1.7 2.3.7 3.6.3 1 1.9 1.4 10.5-5.1 13l.3-18-.4-.2c-1.8.2-5 3.4-7.5 6 1.3 2.3 3 .3 4.4-.3"/>
  </g>
</symbol></svg>
