<svg xmlns='http://www.w3.org/2000/svg' viewBox='0 0 696 830' fill='none'><symbol id='TIGC_Fill'>
  <g fill="none">
    <path fill="#A7BFB9" d="M105.2 422v-10c1-18 2-36 5-54 3-22 8-44 16-65l11-29 8-21c5-11 10-22 17-32a457.8 457.8 0 0 1 56-66c16-13 35-23 56-30l29-10c9-3 19-3 29-3l14 1 17-1c11 0 22 1 32 4l40 14c24 10.3 45.5 25.6 63 45 14 16 26 32 38 50 6 10 11 21 16 33l15 39a296 296 0 0 1 20 85l2 33a444 444 0 0 1-2 72l-2 17-5 40a312 312 0 0 1-94 147 158.1 158.1 0 0 1-83 39c-19.6 2.7-39.3 5-59 7l-26-2-26-5a169.2 169.2 0 0 1-89-45l-21-21a283 283 0 0 1-58-92c-5-13-9-27-11-41l-4-32-3-36-1-27v-4"/>
    <path fill="#FFF" d="m571.2 445-1-26-3-35a324 324 0 0 0-19-80l-18-48c-4-12-10-24-18-35a592 592 0 0 0-44-56c-9-8-20-15-31-19l-31-11a234.2 234.2 0 0 0-60-9l-9 1-17 1-26 6-34 11c-9 4-17 8-24 14-10 7-18 15-25 24l-25 34c-9 13-16 28-22 43l-14 37c-13 32-20 65-22 98l-1 12-2 31c-1 16.4 0 32.8 3 49l6 28a247.9 247.9 0 0 0 85 139 168.1 168.1 0 0 0 71 41l30 6 8 2 14 1h19l9-1 28-6c27-6 50-18 70-36 6-4 11-10 16-15a253.3 253.3 0 0 0 80-143c4-19 7-38 7-58m-451-19 1-34a387 387 0 0 1 56-174l27-37c13-14 27-26 44-35 11-6 23-11 35-15l23-7c7-3 15-4 22-4l17 1h28l18 3 42 15c23 10.4 43.5 25.8 60 45a448.3 448.3 0 0 1 44 66l20 53a238.9 238.9 0 0 1 15 60 369 369 0 0 1 4 72l-1 24-2 17-2 18-5 36a294.6 294.6 0 0 1-87 134 151.2 151.2 0 0 1-82 39l-27 4c-10 2-20 2-31 2l-28-4-24-5c-27-6-51-18-71-37-11-10-22-20-31-31a280.2 280.2 0 0 1-49-84l-9-33-4-33-2-26v-1l-1-29"/>
    <path fill="#FFF" d="M347.2 642c4 1 8 0 11-1a149.2 149.2 0 0 0 54-24c18-11 35-24 50-40 7-7 14-15 19-24a621 621 0 0 0 15-32c1-2 3-3 2-5l-4-4-5-4c-2 1-2 3-3 5l-11 14c-3 3-6 5-10 6l-6 3-5 4-3 1h-2v-1l4-4 6-5v-2c-12.1-7.5-23-17-32-28h-2l-2 2-26 21v1l2 2 15 12 10 7 1 1h-1l-9-4-13-9-13-11c-7-3-12-8-17-13l-13-15-15-14v1c-5 9-12 18-19 26-8 8-17 16-28 19l-11 6-6 5-1 1v-2l8-9 5-4v-1a31 31 0 0 1-9-11l-2-1-4 5c-7 9-15 17-25 23l-1 1v2l2 2 10 12c5 6 11 11 19 15l7 3-8-2-13-8-12-8c-7-6-13-12-18-20l-9-13c-3-4-3-4-5 0-5 7-9 14-15 19v3c4 8 8 16 14 23a233.9 233.9 0 0 0 112 73c4 1 8 2 12 1m167-213-1-20-4-26-11-40c-4-18-12-35-21-51l-16-28a144.2 144.2 0 0 0-32-38l-19-13-20-11-36-13c-5-2-10-2-15 0l-24 8c-10 4-19 8-27 13-9 5-16 11-24 17l-5 3c-9 9-18 19-25 31l-17 31c-9 15-16 31-21 48l-9 31c-4 14-6 29-7 43-1 27.6 1.8 55.1 8 82 4 13 10 26 16 39v1h2l1-1 16-14c4-3 4-2 7 0l14 13 2 3h2l4-5 27-22h1c2-2 3-2 5 0 5 3 9 5 12 10h2l4-3 11-9 29-27 1-2h3l3 1 5 4c8 5 15 12 21 19l14 15 2 3h3l10-8 19-13c2-2 4-2 7-1l5 3 7 6 10 10 9 7c3 2 3 2 5-1l19-16c4-3 4-3 8 0l6 4v-1c6-14 9-29 11-44 2-12 2-25 3-38m-341-9c.3-17.8 2.3-35.6 6-53l8-32c9-27 22-52 39-75l20-23 8-10c12-12.4 25.8-22.8 41-31a164.5 164.5 0 0 1 48-15l15 1c15 3 29 8 43 15a363.3 363.3 0 0 1 39 31l23 27c19 23 33 49 42 77l9 30c3 14.2 5 28.5 6 43a505 505 0 0 1-2 59 266.3 266.3 0 0 1-19 63l-10 21c-5 11-11 21-18 30l-14 16c-8 9-18 17-29 24l-37 20c-10 4-21 7-31 9h-21l-14-2a303.3 303.3 0 0 1-61-28c-12-7-22-16-31-27a225.4 225.4 0 0 1-25-34l-20-45a208.3 208.3 0 0 1-14-68l-1-23"/>
    <path fill="#A7BFB9" d="M336.2 322v1c-1 2-3 2-3 4l3 4h1l3-4c0-2-2-3-3-4v-1h-1m-89-2 4-5-4-4-3 3v1l-1 1 3 4h1m49-52 1-1 3-3-1-1-1-2-2-2-2 2-1 2v1l3 4m85-40v1l-3 3v2l2 3h2l3-4-4-4v-1m-124 256-4-4-3 3-1 1v1l3 3h1l3-3 1-1m-37-34c-1 1-2 3-4 3l1 2 3 3h1c0-1 1-3 3-3v-2l-3-3h-1m233-130 4-4v-1l-2-1-2-3-2 3-1 1v2l3 3m31 122-1-1-3-3h-1c0 2-1 3-3 4v1l3 3h1l3-3 1-1m-121-142-4-4-1 1-3 4 3 3h2l3-3v-1m67-22c-1-1-3-2-3-4h-1l-3 4v2l3 3 4-4v-1m-102 130c2 1 3 0 4-1l2-2 7-7c-6 1-10 5-14 9l1 1m47-19h8l7 2v3h3c3 1 5 3 6 6v4l-1-1c-2-3-4-4-7-4l-4 1-7 3c-5 2-11 4-17 3v1l5 1v2c-4 3-8 7-14 8l-15 2a41 41 0 0 0-26 11l-8 6c-3 3-7 5-11 6h-2l1-1 11-11 10-8 3-1v-1h-2l-9 5-6 4-6 1-1-1c4-2 7-5 9-8 3-2 6-4 9-4l1-1-1-1c-3 0-5 1-8 3l-5 4-9 6-2 2 1 1 5 2 2 1h1l-1 2-3 2-5 4-3 2 4 1 2 1 12-3 6-4 9-6c7-4 14-7 23-7h4c10 0 18-4 25-11l6-6 3-3 10-4c5-2 6-1 10 3h1c3-5 1-10-4-12l-3-3-1-3a38 38 0 0 1 10-10c1-1 2 0 3 1l2 3c1 3 3 5 6 6l7 2 1 1c2 3 4 4 7 3l2 1c2 3 4 3 6 3l2-1c1.3-.7 2.3-.3 3 1l1 2c2 6 7 10 14 12h1v-2l-1-2-4-14 1-1 7 8 2 8h2c2-7 2-13-1-20v-2l2 1c4 2 8 2 12 2h1v-2l-4-3c-6-6-12-13-16-21-2-5-5-9-8-12-7-6-15-8-24-7-6 1-11 3-16 6-6 3-11 8-17 12l-11 11-12 9h-7c-8-2-16-6-23-11l-6-5-13-9c-9-5-19-7-29-4-6 1-11 4-16 8l-33 19c-7 4-15 8-22 10l-2 1v1l3 2 7 2 1 1-1 1a50.7 50.7 0 0 0-15 23l1 1h1l2-3c5-4 11-8 18-9l8-2c7-1 13-3 18-6l4-2c1 1-1 3-1 4v1c0 5-1 9 1 14 0 1 0 2 2 2l1-2 2-5 8-10 1-1v1l-2 7c-1 2 0 3 2 2l5-2 2-3c2-1 5-2 8 0l2 2 4 1 5 2h3l11 1v-1l-5-2-5-1c-3-1-4-1-1-4l3-4 4-9-1-1-3 4-4 6-3 3h-4c-2-2-5-3-8-2-1 0-2-1-1-2l1-2v-2l-4 5-7 7-2 2v-1l1-2 7-16 5-10v-2l-2 3-4 6-9 10c-4 4.3-7.1 9.4-9 15h-1v-3c0-8 2-15 7-21l5-7 1-1h-1l-2 2-10 8c-5 5-11 8-17 11l-7 2c-7 2-14 4-20 8h-1v-1l10-11c3-3 6-4 10-5 11-2 20-8 29-14l1-1-1-1-3 2-14 6c-6 2-12 4-18 4l-9 1v-1l2-1 13-4 21-10c11.3-5.8 22.6-11.5 34-17 5-2 11-2 16-1s9 4 12 7l12 10 15 9c8 3 15 4 23 3m139 40c-1 14-1 26-3 38a179.5 179.5 0 0 1-11 45h-1l-5-4c-4-3-4-3-8 0l-19 17c-2 2-2 2-5 0l-9-7a329 329 0 0 0-22-19c-3-1-5-1-7 1l-19 13-10 8h-3l-2-3-14-15a158 158 0 0 0-26-23l-3-1h-3l-1 2-29 27-11 9-4 3h-2c-3-5-7-7-12-10-2-2-3-2-5 0h-1l-27 22-5 5h-1l-2-3-14-13c-3-2-3-3-7 0l-16 14-1 1h-2v-1a239.6 239.6 0 0 1-22-67 312.9 312.9 0 0 1 5-97l9-31c5-17 12-33 21-48l17-31a141 141 0 0 1 30-34c8-6 15-12 24-17 8-5 17-9 27-13l24-8c5-2 10-2 15 0l36 13 20 11 19 13 8 7c9 9 18 19 24 31l16 28c9 16 17 33 21 51l11 40 4 26 1 20"/>
    <path fill="#A7BFB9" d="M347.2 642c-4 1-8 0-12-1-17-3.9-33.2-10.7-48-20-11-7-23-14-33-23-11-9-22-19-31-30-6-7-10-15-14-23v-3c6-5 11-12 15-19 3-4 2-4 5 0s7 9 9 14c5 7 11 14 18 19l12 8 13 8 8 2-7-3c-8-4-14-9-19-15l-10-12-2-2v-2h1c10-7 18-15 25-24l4-5 2 1v1l9 10v1l-5 4-8 9v2l1-1 6-5 11-6c11-3 20-11 28-19a124 124 0 0 0 19-27h2l13 14 13 15c5 5 10 10 17 13l13 11 13 9 9 4h1v-1l-10-7c-6.4-4.2-12.4-8.9-18-14v-1l26-21 2-2h2l1 1 13 14c5 5 11 9 18 13v2l-6 5-4 4v1l2 1 3-2 5-4 6-3c4-1 7-3 10-6l11-14c1-2 1-4 3-5l5 4 4 4c1 2-1 4-2 5l-5 12-10 20a234 234 0 0 1-122 88c-4 1-8 2-12 1"/>
    <path fill="#FFF" d="M437.2 381v-3h1l1 4 2 11 6 12 4 3h1v-1c-2-3-3-7-3-11l-3-9a32.8 32.8 0 0 1-6-15v-1l1 3 8 11c6 4 9 9 12 15l1 1 1-1c0-5-2-9-5-13l-4-6-5-7-1-3 2 2 5 5 8 6h2l-1-1-9-15-3-7-6-7c-4-4-8-6-13-5-6 0-13 2-18 5-8 4-14 9-20 16l-4 4-10 8-2 1v2l7 1c2 0 2-2 3-3l2-3 11-10 5-3 1-1h1v1l-5 5v1l5 4 1 3c2 3 5 4 8 5 2 1 2 1 3-1l1-4 1-3 1 3-1 8c0 1 1 3 3 3s3-1 3-3l1-3v-1 1l1 4 1 4 2 1c3-1 4-2 4-5l-1-8m-62 8a45.9 45.9 0 0 1-38-12l-12-10a29 29 0 0 0-28-6l-13 5a2090 2090 0 0 0-42 22c-4 2-9 4-13 4l-2 1v1l9-1c6 0 12-2 18-4l14-6 3-2 1 1-1 1c-9 6-18 12-29 14-4 1-7 2-10 5l-10 11 1 1 20-8 7-2c6-2 12-6 17-11l10-8 2-2h1l-1 1-5 7c-5 6-7 13-7 21l1 3v-1c2-6 6-10 9-14l9-10 4-6 2-3v2l-5 10-7 16c-1 1-2 2-1 3l2-2 7-7 4-5v2l-1 2c-1 1 0 2 1 2 3-1 6 0 8 2h4l3-3 4-6 3-4 1 1-4 9-3 4c-3 3-2 3 1 4l5 1 5 2v1l-11-1h-3l-5-2-4-1-2-2c-3-2-6-1-8 0l-2 3-5 2c-2 1-3 0-2-2l2-7h-1l-8 10-2 5-1 2c-2 0-2-1-2-2-2-4-1-12-1-14 0-1-1-4-3-3-2 0-11 5-18 6l-8 2c-7 1-13 5-18 9l-2 3h-1l-1-1 2-4a50.1 50.1 0 0 1 14-20l-1-1-7-2-3-2v-1l2-1 22-9 33-20c5-4 10-7 16-8 10-3 20-1 29 4l13 9 6 5c7 5 15 9 23 11h7l12-9 11-11c6-4 11-9 17-12 5-3 10-5 16-6 9-1 17 1 24 7 3 3 6 7 8 12 4 8 10 15 16 21l4 3v2h-1c-4 0-8 0-12-2l-2-1v2c3 7 3 13 1 20h-2l-2-8-7-8-1 1 4 14 1 2v2h-1c-7-2-12-6-14-12l-1-2c-.7-1.3-1.7-1.7-3-1l-2 1c-2 0-4 0-6-3l-2-1c-3 1-5 0-7-3l-2-1-6-2c-3-1-5-3-6-6l-2-3c-1-1-2-2-3-1l-1 1-9 9v3l4 3c5 2 7 7 4 12h-1c-4-4-5-5-10-3l-10 4-3 3-6 6c-7 7-15 11-25 11h-4c-9 0-16 3-23 7l-9 6-6 4-12 3-2-1-4-1 3-2 5-4 3-2 1-2h-1l-2-1-5-2-1-1 2-2 9-6 5-4c3-2 5-3 8-3l1 1-1 1c-3 0-6 2-9 4-2 3-5 6-9 8l1 1 6-1 6-4 9-5h2v1l-3 1-10 8-11 11-1 1h2c4-1 8-3 11-6l8-6 7-5c6-4 12-5 19-6l15-2c6-1 10-5 14-8v-2l-5-1v-1c6 1 12-1 17-3l7-3 4-1c3 0 5 1 7 4h1v-3c-1-3-3-5-6-6h-3v-3l-7-2h-8"/>
    <path fill="#FFF" d="m328.2 408-1-1c4-4 8-8 14-9 1 0 0 0 0 0l-7 7-2 2c-1 1-2 2-4 1m102-130v1l-4 4-4-4 4-5 4 4m-67 22v1l-3 3h-2l-3-3 4-5 4 4m121 142-1 1-3 3h-1l-3-3v-1l3-4h1l3 3 1 1m-31-122-4-5 4-4 4 4v1l-4 4m-233 129 4 5-4 5-4-5 4-5m33 39h-1l-3-4 4-5 4 5-4 4m128-260v1l4 4-3 4h-2l-3-4c-1-1 4-5 4-5m-85 40-4-4 4-5 4 5-3 3-1 1m-49 52h-1l-3-4 4-5 4 5-4 4m89 2c1 0 4 3 4 5l-3 4h-1l-3-4c0-2 3-5 3-5"/>
    <path fill="#A7BFB9" d="M438.2 389c0 3-1 4-4 5l-2-1-1-4v-4l-1-1v1l-1 3c0 2-1 3-3 3s-3-2-3-3l1-8v-3l-2 3-1 4c-1 2-1 2-3 1-3-1-6-2-8-5l-1-3-5-4v-1l5-5v-1h-1l-1 1-5 3-11 10-2 3c-1 1-1 3-3 3l-7-1v-2l2-1 10-8 4-4c5-7 12-12 20-16 5-3 12-5 18-5 5-1 9 1 13 5l6 7 3 7a63.2 63.2 0 0 0 10 16h-2l-8-6-5-5-2-2 1 3 5 7 4 6c3 4 5 8 5 13l-1 1-1-1c-3-6-6-11-12-15l-8-11-1-3v1c1 5 2 11 6 15l3 9c0 4 1 8 3 11v1h-1l-4-3-6-12-2-11-1-4h-1v3l1 8"/>
    <path fill="#FFF" d="m220.2 449-4 5 4 4m171-10c0 .4-.3 6.8-.2 13.3-6.8.5-5.7-13.3-5.3-15 .2-1.4-4.4 1.7-6.6 3.8.7 1.3 1.7 1 2.9.5-.5 6.2 3.9 11.8 9 11.7.2 6.4.9 12.5 2.7 13 .2.1.5-6.5.6-13.7 12.2-3.8 7.5-18.3 7.5-18.3-.2-.8-2 .3-6 3.9 1.6 1.7 2.4.7 3.6.3 1 1.9 1.4 10.5-5.1 13.1l.3-18c0-.2-.2-.3-.4-.3-1.8.2-5 3.4-7.5 6.1 1.4 2.1 3 .1 4.5-.4m5.9 19.1 2.8 2.8 2.8-2.8-2.8-2.8-2.8 2.8Z"/>
  </g>
</symbol></svg>
