<svg xmlns='http://www.w3.org/2000/svg' viewBox="0 0 142 170" fill='none'>
    <symbol id='TOMC_Fill'>
        <g fill="none">
            <path fill="#FDBE00"
                d="M120 87c-.05 3.93-.36 7.85-.83 11.75-.31 2.6-.59 5.19-.97 7.77a41.64 41.64 0 0 1-4.74 13.67 58.9 58.9 0 0 1-10.49 14.34c-1.07 1.05-2.12 2.12-3.2 3.16a32.96 32.96 0 0 1-16.76 8.65c-2.78.56-5.57 1-8.38 1.4-2.6.37-5.23.35-7.83-.07-3.08-.5-6.17-.94-9.21-1.64A31.73 31.73 0 0 1 42.48 138c-2-1.9-3.98-3.84-5.81-5.9a57.79 57.79 0 0 1-11.44-19.3 36.2 36.2 0 0 1-1.72-7.63c-.43-3.53-.86-7.06-1.2-10.6a83.5 83.5 0 0 1-.22-11.22c.2-5.2.7-10.36 1.77-15.46a62.42 62.42 0 0 1 2.75-9.23c1.1-2.9 2.25-5.8 3.37-8.7a34.12 34.12 0 0 1 3.9-7.38c1.59-2.26 3.21-4.49 4.88-6.7 4.2-5.54 9.67-9.36 16.1-11.82 1.94-.74 3.91-1.38 5.87-2.05 2.39-.8 4.85-1.1 7.36-.98 1.91.1 3.82.1 5.73 0 2.7-.15 5.33.27 7.9 1.14 3.02 1.04 6.06 2.04 8.94 3.47a33.9 33.9 0 0 1 11.8 9.4c1.94 2.48 3.8 5.04 5.62 7.61a31.77 31.77 0 0 1 3.8 7.18c1.53 4.03 3.1 8.06 4.54 12.13 1.7 4.85 2.53 9.9 2.97 15 .28 3.34.41 6.69.6 10.03h.01Zm-2.77-1.1c-.17-2.73-.29-5.47-.52-8.2-.41-4.9-1.17-9.75-2.81-14.4-1.43-4.05-3-8.04-4.54-12.05-.76-2-1.79-3.86-2.96-5.65a91.45 91.45 0 0 0-6.1-8.25 32.41 32.41 0 0 0-9.42-7.66c-3.1-1.71-6.42-2.83-9.76-3.95a18.49 18.49 0 0 0-6.87-1.07c-2.39.13-4.77.02-7.15 0-1.5-.02-3 .15-4.43.57a61.45 61.45 0 0 0-10.44 3.9 32.46 32.46 0 0 0-10.52 8.27 90.11 90.11 0 0 0-6.05 8.2 31.26 31.26 0 0 0-3 5.72c-1.25 3.18-2.52 6.36-3.7 9.58a57.39 57.39 0 0 0-2.76 10.2 92.02 92.02 0 0 0-1.28 15.75c0 2.63.15 5.27.35 7.9.2 2.52.54 5.03.8 7.54.51 4.73 1.7 9.27 3.76 13.56 1.6 3.34 3.5 6.48 5.64 9.5 2.49 3.52 5.54 6.53 8.64 9.5a29.89 29.89 0 0 0 13.96 7.54c2.9.69 5.87 1.1 8.81 1.6 2.18.37 4.4.49 6.59.19 3.11-.43 6.23-.87 9.3-1.5a30.58 30.58 0 0 0 15.13-7.79c1.13-1.06 2.22-2.17 3.32-3.26a55.58 55.58 0 0 0 9.92-13.6c2.27-4.23 3.9-8.69 4.53-13.48.29-2.14.5-4.29.78-6.43.51-4.06.78-8.13.79-12.23Zm-1.21 2.54c.25 4.89-.32 9.69-1.42 14.44-.72 3.1-1.4 6.22-2.58 9.2a50.38 50.38 0 0 1-11.06 17.12c-1.28 1.28-2.58 2.55-3.88 3.82a32.6 32.6 0 0 1-17.38 9.08c-1.11.2-2.21.44-3.31.67-2.15.44-4.3.55-6.5.47-4.16-.17-8.19-1.16-12.15-2.34a29.14 29.14 0 0 1-10.76-6.07 75.57 75.57 0 0 1-8.11-8.06 48.9 48.9 0 0 1-10.9-21.64c-.5-2.32-1-4.64-1.4-6.97-.56-3.18-.66-6.4-.47-9.62.23-3.87.52-7.73.9-11.59a62.26 62.26 0 0 1 4.07-16.44c1.02-2.63 2.02-5.26 3.02-7.9 1-2.67 2.26-5.22 3.88-7.57a301.5 301.5 0 0 1 5.39-7.5c.64-.86 1.38-1.65 2.13-2.42a22.4 22.4 0 0 1 8.76-5.71 67.25 67.25 0 0 1 10.99-3c5.28-.91 10.5-.53 15.65.88 2.2.6 4.37 1.27 6.54 1.98 4.42 1.45 7.97 4.18 10.88 7.77a82.3 82.3 0 0 1 6.53 9.2c.9 1.5 1.77 3.06 2.42 4.69a409 409 0 0 1 5.1 13.52 58.36 58.36 0 0 1 2.94 14.61c.27 3.13.48 6.25.72 9.38ZM106 86.07a42.51 42.51 0 0 0-.5-7.56c-.4-2.18-.9-4.33-1.4-6.49a48.49 48.49 0 0 0-9.8-20.04c-1.27-1.55-2.58-3.06-3.86-4.6a28.67 28.67 0 0 0-15.84-9.81 13.34 13.34 0 0 0-4.51-.52 28.15 28.15 0 0 0-11.88 4.1 28.9 28.9 0 0 0-7.17 6.36c-.78.96-1.58 1.9-2.39 2.83a50.5 50.5 0 0 0-8.04 12.42 54.16 54.16 0 0 0-3.15 9.34c-.97 3.97-1.8 7.96-1.85 12.08-.06 5.81.48 11.53 2.1 17.12.9 3.1 2.33 5.98 3.6 8.94a38 38 0 0 0 7.04 10.6 27.53 27.53 0 0 0 5.12 4.41 58.02 58.02 0 0 0 6.48 3.73 31.96 31.96 0 0 0 7.11 2.48c1.86.42 3.74.67 5.61.33 1.68-.3 3.34-.7 4.97-1.2 3.26-.99 6.19-2.7 9.1-4.44 4.99-3 8.75-7.22 11.64-12.2a61.35 61.35 0 0 0 5.1-11.45c1.82-5.43 2.45-11.04 2.52-16.43ZM43.3 87.94c.1.08-1.1 2.4-1.66 4.7a8.47 8.47 0 0 0-.08 3.63c.2.14.35-.3.4-.56.17-.86.33-1.71.47-2.57.16-.94.43-1.84.85-2.7.6-1.2 1.18-2.41 1.76-3.62.05-.09.1-.3.2-.31.09-.01.28.29.39.43 1.1 1.4 2.4 2.57 3.9 3.51 1.16.72 2.36 1.39 3.56 2.04.4.22.87.35 1.32.49.16.05.37.02.46-.1.08-.12-.04-.38-.18-.52-.46-.46-.93-.92-1.42-1.35-1.06-.93-3.14-2.36-3.23-2.8-.09-.44 6.49-7.1 6.82-7.07.33.04 3.7 2.87 3.7 2.96-.01.1-1.1 1.24-1.74 1.76-.66.55-1.4 1-2.13 1.47-.7.45-2.09 1.12-2.05 1.32.03.2.48.02.71-.06 1.03-.3 2.04-.66 3.08-.92.85-.21 1.64-.55 2.08-1.31 1.38-2.42 3.52-4.17 5.35-6.19 1.4-1.53 4.33-5.15 4.49-5.11.16.04 1.02 3.43 1.1 5.13.04.68-.08 1.3-.36 1.91a28.44 28.44 0 0 0-1.66 5.44c-.06.27-.1.65.03.73.14.08.37-.38.5-.68.6-1.45 1.18-2.92 1.78-4.39.1-.24.3-.9.4-.89.1.01.24.75.33 1.04.38 1.21.73 2.43 1.14 3.62.2.54.47 1.07.8 1.54.72 1.05 1.71 1.33 2.89.85.31-.13.61-.3.93-.42.62-.26.86-.21 1.32.29.23.25.43.53.62.81.4.56.77 1.13 1.15 1.7a17.7 17.7 0 0 0 3.8 4.1c1.5 1.15 3 2.3 4.71 3.13.26.13.63.23.75.09s.03-.33-.09-.48c-.32-.42-.63-.85-1-1.22-1.93-1.9-3.87-3.8-5.81-5.68-1.06-1.02-2.17-1.98-3.2-3.03-.82-.82-1.74-1.15-2.86-.87l-.39.06c-.68.16-1.19-.08-1.53-.67-.36-.61-.74-1.22-1.04-1.86a36.43 36.43 0 0 1-2.35-6.87c-.24-.96-.97-2.98-.8-3.12.19-.15.86.56.9.6 4.2 3.54 7.94 7.4 11.9 11.2 1.8 1.74 3.72 3.34 5.6 4.98.49.43 1.55.97 1.63.89.08-.08.11-.3.03-.43-.33-.5-.66-1.01-1.05-1.47a74.74 74.74 0 0 0-7.74-7.98 1.94 1.94 0 0 1-.38-.42c-.02-.07.2-.15.3-.2l5.02-2.61c.75-.4.8-.42 1.43.18.98.94 2.07 1.7 3.27 2.31a5.5 5.5 0 0 1 2.53 2.72c.82 1.82 1.98 3.41 3.2 4.97.12.16.3.32.44.22s-1-2.24-.89-2.3c.12-.06.4.12.54.2 1.14.69 2.03 1.65 2.83 2.7l1.32 1.77c.22.3.44.6.63.9.71 1.1.96 2.24.7 3.6a47.58 47.58 0 0 1-2.56 8.53c-1.02 2.55-2.26 4.99-3.66 7.34a20.8 20.8 0 0 1-1.96 2.77 41.4 41.4 0 0 1-8.64 7.9 126.77 126.77 0 0 1-6.57 4.04 27.36 27.36 0 0 1-8.2 2.89 7.45 7.45 0 0 1-3.13-.08 33.81 33.81 0 0 1-10.29-4.2c-4.32-2.62-8.32-5.6-11.68-9.4-.84-.95-1.6-1.96-2.37-2.95-.16-.2-.46-.54-.42-.72.04-.17 1.92-.81 3.03-.96a24.3 24.3 0 0 1 10.89 1.08c2.3.78 4.58 1.67 6.86 2.54 2.05.78 4.1 1.6 6.27 2.06 1.73.36 3.47.5 5.22.06a5.23 5.23 0 0 0 2.94-1.71c.65-.8.85-1.69.38-2.65-.04-.09-.16-.15-.22-.11-.06.03-.09.25-.06.42.14.92-.26 1.59-.94 2.13a5.66 5.66 0 0 1-3.2 1.14c-1.65.13-3.27-.07-4.82-.58a147.7 147.7 0 0 1-6.22-2.22 55.62 55.62 0 0 0-9-2.82 21.88 21.88 0 0 0-9.82.07c-.6.16-1.7.68-1.88.58-.19-.1-2.82-5.59-2.8-5.69 0-.1.49-.32.73-.46a20.93 20.93 0 0 1 10.82-2.84c3.39 0 6.67.62 9.92 1.54 2.57.73 5.13 1.51 7.71 2.2 2.64.68 5.31.93 8.02.4a13.62 13.62 0 0 0 6.5-3.28c.23-.2.46-.39.37-.53-.1-.15-.8.26-1.26.54a15.46 15.46 0 0 1-4.76 2.01 17 17 0 0 1-7.72-.1c-2.8-.66-5.58-1.46-8.37-2.2a37.43 37.43 0 0 0-10.09-1.43c-4.13.05-8.04 1-11.76 2.8-.17.07-.46.27-.55.25-.08-.02-.2-.36-.28-.55a36.75 36.75 0 0 1-2.58-9.9c-.06-.44-.01-.84.22-1.22.33-.5.6-1.05.98-1.53 1.3-1.67 4.39-4.5 4.54-4.36v-.01Zm48.94-7.03c-.08.02-1.1-.77-1.65-1.14-.15-.1-.31-.19-.46-.3a2.48 2.48 0 0 0-2.86-.16c-1.64.88-3.35 1.63-5 2.48-.48.24-.77.19-1.19-.15-2.95-2.44-5.94-4.85-8.92-7.27-.24-.2-.5-.38-.77-.54-.45-.28-.9-.24-1.3.11-.26.23-.5.47-.74.72l-6.27 6.66c-.4.42-.81.83-1.24 1.22-.6.54-.67.54-1.35.06-.58-.4-1.13-.86-1.69-1.3-.45-.35-.9-.72-1.37-1.04-.48-.34-1-.35-1.45.05-.57.5-1.16 1-1.68 1.55-1.22 1.27-2.4 2.58-3.62 3.85a14 14 0 0 1-1.64 1.54c-.11 0-.46-.38-.68-.56-.84-.67-1.67-1.36-2.53-2.01-.52-.4-.68-.36-1.19.03l-.3.26c-1.36 1.2-2.74 2.37-4.1 3.58-.88.78-2.87 2.74-3 2.69-.12-.06-.05-1.47-.06-2.15-.04-3.48-.04-6.97.7-10.4 1.58-7.3 3.68-14.44 7.6-20.9.96-1.58 1.83-3.2 2.75-4.8.2-.34.5-.98.63-1.03.14-.04 3.32.62 4.97.84.76.1 1.45-.23 2-.76.3-.29.56-.63.85-.93.54-.58 1.05-1.19 1.64-1.7a3.72 3.72 0 0 0 1.45-3.33c-.1-1.09-.55-3.26-.54-3.37 0-.11 1.08-.6 1.7-.89a52.6 52.6 0 0 1 6.66-2.58c.9-.29 1.79-.62 2.71-.77a4.1 4.1 0 0 1 1.93.17c2.52.88 5.04 1.79 7.51 2.8 1.3.54 2.52 1.3 3.74 2.01.7.41 1.34.93 2.03 1.37 3.68 2.34 6.39 5.57 8.5 9.35 1.2 2.1 2.4 4.2 3.55 6.34a52.9 52.9 0 0 1 4.79 12.76c.5 2.1 1.1 4.18 1.48 6.3.31 1.76.36 3.56.52 5.34.01.1.03.35-.03.39-.06.04-.42-.17-.57-.28a407.95 407.95 0 0 1-3.94-3.14c-1.18-.96-2.34-1.96-3.53-2.9-.7-.54-.9-.5-1.58.05-.8.63-2.38 1.87-2.46 1.88ZM45.23 65.32l.19.06c.16-.21.38-.4.48-.65.19-.46.36-.94.44-1.43.2-1.13.6-2.17 1.2-3.14.31-.52.67-1.02.91-1.57.28-.62.47-1.27.67-1.92.08-.28.09-.59-.28-.72-.44.1-.63.46-.78.82-.29.7-.56 1.42-.78 2.15-.43 1.44-.9 2.85-1.65 4.17-.22.38-.35.82-.43 1.26-.07.3.01.65.03.97Zm17.9-21.52.05.16c.2.02.4.1.58.06.77-.13 1.56-.21 2.3-.45 1.8-.59 3.62-.97 5.52-1.02a8.47 8.47 0 0 0 1.85-.33c.27-.07.5-.29.8-.47-.52-.35-.97-.3-1.4-.23-.58.08-1.15.17-1.7.32-1.64.47-3.3.76-5 .93-.77.08-1.52.33-2.27.56-.27.07-.5.3-.74.46Zm-3.98 22c.02-.44.1-.75.04-1.03a8.88 8.88 0 0 0-.53-1.57c-.53-1.18-.94-2.39-1.15-3.67a11.6 11.6 0 0 0-.98-3.32c-.1-.24-.24-.53-.7-.49.02.39-.03.77.08 1.1.35 1.07.71 2.14 1.16 3.17a12.3 12.3 0 0 1 1.14 4c.03.48.3.95.48 1.4.05.12.22.2.46.4Zm11.68-9.48c-.33-.35-.52-.64-.79-.82-.56-.38-1.13-.78-1.75-1.04a19.63 19.63 0 0 1-3.7-2.05c-.59-.42-1.26-.73-1.92-1.05-.25-.12-.56-.29-.98-.02.2.23.32.5.53.64.47.33.95.68 1.48.88 1.82.68 3.56 1.49 5.1 2.7.52.42 1.16.69 2.03.76ZM52.7 76.82a.83.83 0 0 0-1.65-.1c-.03.48.32.9.78.92.45.03.86-.35.87-.82ZM64.84 61.7a.8.8 0 0 0-.81.79c-.01.43.35.8.79.8.44 0 .79-.34.8-.79 0-.46-.33-.8-.78-.8ZM74.9 47.62c.4.02.75-.3.78-.7a.76.76 0 0 0-.76-.83c-.4 0-.74.34-.74.76s.3.75.72.77ZM81.5 77.8c-.01.4.32.76.72.78.4.02.76-.31.77-.71a.78.78 0 0 0-.71-.78.76.76 0 0 0-.78.7Zm15.98-4.7a.7.7 0 0 0-.68.7c0 .38.3.7.68.71.4.02.75-.34.73-.75a.7.7 0 0 0-.73-.66Zm-53.34 1.25a.7.7 0 0 0-.69-.72c-.37 0-.7.35-.7.72.02.36.3.65.66.67a.7.7 0 0 0 .73-.67Zm43.39-7.53a.7.7 0 0 0-.75-.65.7.7 0 0 0-.6.7c.02.38.38.7.74.65a.7.7 0 0 0 .6-.7ZM84.8 62.4a.65.65 0 0 0-.67.63c0 .32.26.6.6.61a.6.6 0 0 0 .65-.54.64.64 0 0 0-.58-.7Zm12.9 6.19c0-.34-.27-.59-.6-.56-.33.03-.51.23-.54.56-.03.32.24.59.57.6.33 0 .58-.26.57-.6Zm-38.38 2c.33 0 .59-.26.57-.6a.57.57 0 0 0-.56-.54.56.56 0 0 0-.57.61c.01.31.25.53.56.54Zm31.11-14.74c-.02-.34-.3-.6-.61-.55-.32.05-.51.24-.51.58 0 .33.26.6.58.6.31-.02.56-.3.54-.63ZM41.51 82.42c0-.3-.23-.56-.52-.58a.56.56 0 0 0-.59.58c.02.3.26.53.57.53.31 0 .54-.22.54-.53Zm37.88-25.44c.44 0 .67-.26.64-.57-.03-.3-.22-.46-.5-.48-.3-.01-.59.3-.5.57.06.2.27.36.36.48Zm-11.5 9.75c-.43.01-.63.22-.62.5.02.3.18.49.48.5.31.03.59-.24.5-.53-.06-.2-.27-.36-.36-.47Zm-14.86-3.88c-.2-.19-.3-.36-.44-.4-.24-.06-.43.1-.4.34.02.13.2.32.33.34.12.02.28-.14.51-.28Zm24 7.72c-.25-.18-.4-.36-.55-.38-.11-.01-.32.19-.35.33-.06.25.13.41.36.38.15-.02.28-.16.55-.33Zm26.58 21.21a11.34 11.34 0 0 0-6.22-5.06 1.12 1.12 0 0 1-.72-.67c-.77-1.8-3.66-4.35-3.66-4.5 0-.14 1.4-1.1 2.11-1.59.3-.2.56-.04.77.17.78.74 1.59 1.46 2.33 2.24 1.5 1.55 2.96 3.13 4.71 4.41.47.34 1.45.94 1.5 1.05.06.1.08 4.75-.18 4.75s-.5-.56-.64-.8ZM58.33 43.34c.18.03.17.62.15.9-.06.7-.12 1.4-.26 2.1-.11.61-.38 1.2-.48 1.82-.24 1.49-1.26 2.25-2.5 2.78-.73.3-1.5.5-2.24.73-.52.16-1.04.17-1.54-.03-.55-.23-1.62-.51-1.7-.75.9-2.49 7.42-7.45 8.57-7.55Z" />
            <path fill="#fff"
                d="M117.23 85.9c0 4.1-.27 8.17-.79 12.23-.27 2.15-.49 4.3-.77 6.44a39.48 39.48 0 0 1-4.53 13.48c-2.68 5-5.88 9.61-9.92 13.6-1.1 1.08-2.2 2.19-3.32 3.25a30.56 30.56 0 0 1-15.13 7.8c-3.08.63-6.2 1.06-9.3 1.49-2.2.3-4.41.18-6.6-.19-2.94-.49-5.9-.9-8.8-1.6a29.9 29.9 0 0 1-13.97-7.54c-3.1-2.96-6.15-5.98-8.64-9.5a65.82 65.82 0 0 1-5.64-9.5 41.11 41.11 0 0 1-3.75-13.56c-.27-2.51-.61-5.02-.8-7.54a92 92 0 0 1 .93-23.64c.6-3.5 1.53-6.9 2.75-10.21 1.19-3.21 2.46-6.4 3.7-9.58.8-2.02 1.82-3.92 3-5.73a90.5 90.5 0 0 1 6.05-8.19 32.43 32.43 0 0 1 10.52-8.26 61.5 61.5 0 0 1 10.44-3.91c1.44-.42 2.93-.59 4.43-.57 2.39.02 4.77.13 7.15 0 2.36-.12 4.64.33 6.88 1.07 3.33 1.12 6.66 2.24 9.75 3.95a32.44 32.44 0 0 1 9.43 7.66 91.25 91.25 0 0 1 6.09 8.25 29.79 29.79 0 0 1 2.97 5.66c1.54 4 3.1 8 4.53 12.04 1.64 4.65 2.4 9.5 2.81 14.4.23 2.73.36 5.47.53 8.2Zm-1.21 2.54c-.24-3.13-.45-6.26-.72-9.38a58.3 58.3 0 0 0-2.94-14.6 410.78 410.78 0 0 0-5.1-13.53 31.67 31.67 0 0 0-2.43-4.7 82.28 82.28 0 0 0-6.53-9.2c-2.9-3.59-6.45-6.31-10.88-7.76-2.16-.7-4.34-1.38-6.54-1.98a35.68 35.68 0 0 0-15.65-.88c-3.75.65-7.4 1.72-10.98 3a22.4 22.4 0 0 0-8.76 5.7c-.75.78-1.5 1.57-2.14 2.43a301.05 301.05 0 0 0-5.38 7.5 34.78 34.78 0 0 0-3.89 7.57l-3.01 7.9a62.25 62.25 0 0 0-4.08 16.44c-.37 3.86-.67 7.72-.9 11.59-.18 3.22-.08 6.44.47 9.62.4 2.33.91 4.65 1.41 6.97a48.9 48.9 0 0 0 10.9 21.64 75.75 75.75 0 0 0 8.1 8.05 29.17 29.17 0 0 0 10.76 6.08c3.97 1.18 8 2.17 12.16 2.33 2.19.09 4.35-.02 6.5-.46 1.1-.23 2.2-.48 3.3-.68a32.6 32.6 0 0 0 17.39-9.07c1.3-1.27 2.6-2.54 3.87-3.83a50.36 50.36 0 0 0 11.07-17.12c1.18-2.97 1.86-6.09 2.58-9.2a52.07 52.07 0 0 0 1.42-14.43Z" />
            <path fill="#fff"
                d="M106 86.07c-.07 5.39-.7 11-2.51 16.43-1.33 3.98-3 7.84-5.1 11.46-2.9 4.97-6.66 9.2-11.66 12.2-2.9 1.74-5.84 3.44-9.1 4.44-1.62.5-3.28.9-4.96 1.2a14.1 14.1 0 0 1-5.61-.34 31.82 31.82 0 0 1-7.11-2.48 58.51 58.51 0 0 1-6.48-3.72 27.6 27.6 0 0 1-5.12-4.42 38 38 0 0 1-7.05-10.6c-1.26-2.95-2.69-5.84-3.59-8.93a58.77 58.77 0 0 1-2.1-17.13c.04-4.12.88-8.1 1.85-12.08.78-3.2 1.8-6.33 3.15-9.34a50.46 50.46 0 0 1 8.04-12.42c.8-.93 1.61-1.87 2.4-2.83a28.9 28.9 0 0 1 7.16-6.35 28.15 28.15 0 0 1 11.87-4.1c1.54-.18 3.04.16 4.52.5a28.67 28.67 0 0 1 15.84 9.83c1.28 1.54 2.6 3.04 3.86 4.6a48.51 48.51 0 0 1 9.8 20.03c.5 2.16 1 4.32 1.4 6.49.44 2.4.49 4.82.5 7.56ZM43.3 87.94c-1.58 1.4-3.24 2.7-4.54 4.37-.37.47-.64 1.01-.97 1.53-.23.37-.28.77-.22 1.2a36.6 36.6 0 0 0 2.58 9.92c.07.18.18.35.28.54l.55-.25a27.66 27.66 0 0 1 11.76-2.8c3.44-.04 6.78.55 10.1 1.43 2.78.74 5.55 1.54 8.35 2.2 2.55.6 5.14.69 7.73.1 1.7-.38 3.27-1.09 4.76-2 .46-.29.91-.58 1.47-.67-.17.27-.37.51-.6.72a13.45 13.45 0 0 1-6.48 3.22c-2.7.52-5.38.27-8.02-.42-2.59-.67-5.14-1.46-7.72-2.19a36.35 36.35 0 0 0-9.91-1.53c-3.86 0-7.48.86-10.82 2.83l-.74.46c.93 1.97 1.78 3.88 2.8 5.69.69-.21 1.28-.42 1.89-.58 3.27-.84 6.54-.7 9.82-.07 3.1.6 6.05 1.71 9 2.83 2.05.78 4.12 1.53 6.22 2.21 1.55.51 3.17.71 4.8.58 1.18-.09 2.29-.39 3.22-1.14.67-.54 1.08-1.21.93-2.13-.02-.16 0-.34 0-.68.17.22.25.28.3.37.46.97.26 1.85-.39 2.65a5.24 5.24 0 0 1-2.94 1.71c-1.75.44-3.5.3-5.23-.06-2.16-.45-4.2-1.27-6.27-2.06-2.28-.87-4.55-1.76-6.86-2.54-3.45-1.16-7-1.52-10.63-1.03-1.1.15-2.2.4-3.28.92.16.27.26.5.42.7.78 1 1.54 2.02 2.37 2.96 3.36 3.8 7.36 6.78 11.68 9.4a33.8 33.8 0 0 0 10.3 4.2c1.03.23 2.1.3 3.12.08 2.85-.6 5.65-1.41 8.2-2.89 2.22-1.28 4.42-2.62 6.57-4.04 3.28-2.18 6.1-4.9 8.64-7.9.73-.86 1.38-1.8 1.96-2.77a51.65 51.65 0 0 0 3.66-7.34c1.1-2.77 1.98-5.6 2.55-8.53a4.6 4.6 0 0 0-.69-3.59c-.2-.3-.4-.61-.63-.9-.43-.6-.88-1.18-1.32-1.77a10.22 10.22 0 0 0-2.83-2.71c-.14-.08-.3-.11-.54-.2.38.87.93 1.56.96 2.44-.22-.09-.4-.2-.52-.36a25.13 25.13 0 0 1-3.2-4.96 5.5 5.5 0 0 0-2.52-2.73c-1.2-.61-2.3-1.37-3.27-2.3-.62-.6-.68-.59-1.43-.2-1.68.89-3.35 1.75-5.03 2.63-.09.04-.17.11-.29.2.14.15.25.3.38.41a74.75 74.75 0 0 1 7.74 7.98c.39.46.72.97 1.05 1.48.08.12.07.32.1.54a3.98 3.98 0 0 1-1.76-1c-1.88-1.65-3.8-3.25-5.6-4.98-3.96-3.81-7.86-7.69-12.06-11.23-.19-.15-.31-.41-.68-.4l.74 2.95c.6 2.35 1.3 4.67 2.34 6.87.3.64.68 1.24 1.05 1.85.34.6.85.83 1.53.68l.39-.07c1.12-.28 2.03.05 2.85.87 1.04 1.05 2.15 2.01 3.2 3.04 1.95 1.88 3.89 3.77 5.81 5.68.38.36.69.8 1.01 1.2.12.16.18.36.27.54l-.09.14c-.28-.1-.58-.15-.84-.28a27.53 27.53 0 0 1-4.71-3.13 17.7 17.7 0 0 1-3.8-4.1c-.38-.56-.75-1.13-1.15-1.7-.2-.28-.4-.56-.62-.81-.46-.5-.7-.55-1.32-.3-.32.14-.61.3-.93.43-1.18.48-2.17.2-2.9-.85-.32-.47-.6-1-.79-1.54-.41-1.2-.76-2.4-1.14-3.61l-.32-1.04c-.2.41-.32.64-.41.88l-1.78 4.4c-.13.29-.17.66-.65.85.04-.36.06-.64.11-.91.41-1.86.9-3.7 1.67-5.44.27-.62.35-1.24.32-1.92-.09-1.7-.6-3.3-1-4.95 0-.02-.07-.04-.15-.08l-.3.34c-1.36 1.56-2.7 3.15-4.1 4.69-1.83 2.01-3.97 3.76-5.35 6.18-.44.76-1.23 1.1-2.08 1.31-1.04.26-2.05.62-3.08.93l-.7.2-.07-.18c.63-.53 1.42-.84 2.1-1.29.73-.47 1.48-.92 2.14-1.46.64-.53 1.17-1.18 1.73-1.76-1.28-1.03-2.48-2-3.7-2.96a54.12 54.12 0 0 0-6.81 7.07c1.1.94 2.17 1.86 3.23 2.8.49.43.96.88 1.42 1.35.14.13.2.34.35.62-.29 0-.47.04-.63 0-.44-.15-.91-.27-1.32-.5a66 66 0 0 1-3.55-2.03 15.25 15.25 0 0 1-3.91-3.52l-.4-.43c-.08.15-.14.22-.19.31-.58 1.2-1.16 2.42-1.76 3.62-.42.86-.7 1.76-.85 2.7-.14.86-.3 1.72-.47 2.57-.05.26-.07.57-.42.78-.68-3.15.62-5.81 1.76-8.55v.01Zm48.94-7.02c.83-.64 1.65-1.25 2.45-1.89.68-.54.88-.6 1.58-.04 1.2.94 2.35 1.93 3.54 2.9 1.3 1.05 2.62 2.09 3.93 3.13.15.12.35.17.57.28.02-.18.05-.28.04-.38-.16-1.79-.21-3.59-.52-5.34-.38-2.13-.98-4.21-1.49-6.3a52.9 52.9 0 0 0-4.79-12.77c-1.15-2.12-2.35-4.23-3.54-6.34-2.12-3.78-4.83-7-8.51-9.35-.69-.43-1.32-.96-2.03-1.36-1.22-.71-2.43-1.48-3.73-2.01a146.2 146.2 0 0 0-7.51-2.8c-.6-.2-1.31-.27-1.93-.17-.93.14-1.82.48-2.72.76a52.7 52.7 0 0 0-6.66 2.59c-.61.29-1.2.63-1.7.89.2 1.2.44 2.28.55 3.37a3.72 3.72 0 0 1-1.45 3.33c-.6.5-1.1 1.12-1.65 1.69-.29.3-.54.65-.84.94-.56.53-1.25.85-2 .75-1.65-.21-3.37-.02-4.97-.83l-.64 1.02c-.91 1.6-1.79 3.23-2.74 4.8-3.92 6.47-6.03 13.6-7.61 20.91-.74 3.42-.74 6.91-.7 10.4.01.67.05 1.35.07 2.14l.39-.3 2.6-2.4 4.1-3.56.3-.26c.51-.4.67-.43 1.2-.04.85.65 1.68 1.34 2.52 2.01l.68.57c.58-.54 1.14-1.02 1.64-1.55 1.22-1.27 2.4-2.58 3.62-3.85.53-.55 1.1-1.04 1.68-1.54.46-.4.97-.4 1.45-.06.47.33.92.7 1.37 1.05.57.43 1.11.89 1.69 1.3.68.48.75.47 1.35-.07.43-.39.84-.8 1.24-1.22 2.1-2.21 4.18-4.44 6.28-6.66.23-.24.47-.49.73-.71.4-.36.85-.4 1.3-.12.27.17.53.35.78.55 2.97 2.41 5.96 4.82 8.92 7.26.4.34.7.4 1.17.15 1.66-.85 3.37-1.6 5.01-2.48a2.48 2.48 0 0 1 2.86.17l.47.3 1.64 1.14Zm11.86 11.54.16-.05.17-4.58c-.56-.4-1.04-.71-1.5-1.05-1.75-1.28-3.22-2.86-4.72-4.42-.74-.77-1.54-1.5-2.32-2.23-.22-.2-.48-.37-.78-.17-.7.48-1.37 1.01-2.1 1.6a9.8 9.8 0 0 1 3.65 4.5c.14.33.36.54.72.66 2.7.9 4.74 2.63 6.22 5.06.15.24.34.45.5.68ZM58.33 43.34c-3.32 2.06-6.4 4.24-8.57 7.56l1.7.74c.5.2 1.02.2 1.54.04.75-.24 1.51-.43 2.23-.74 1.25-.52 2.27-1.3 2.51-2.77.1-.62.37-1.21.48-1.83.14-.7.2-1.4.26-2.1.02-.27-.1-.55-.15-.9Z" />
            <path fill="#fff"
                d="M45.22 65.54c-.32-.16.07-1.96.28-2.34a21.44 21.44 0 0 0 1.79-4.28c.22-.73.48-1.44.77-2.15.15-.36.36-.85.78-.82.42.02.36.44.28.72-.2.65-.39 1.3-.67 1.92-.24.55-.6 1.05-.91 1.56-.6.98-1 2.02-1.2 3.15a6.7 6.7 0 0 1-.43 1.43c-.1.24-.38.97-.7.8ZM63.86 43.33c.75-.23 1.5-.48 2.27-.56a28.6 28.6 0 0 0 5-.93c.55-.15 1.12-.24 1.7-.32.43-.07 1.3-.12 1.4.23.08.35-.53.4-.8.47-.6.15-1.23.3-1.85.33-1.9.05-3.72.43-5.52 1.02-.74.24-1.53.32-2.3.45-.18.03-.75.18-.85-.07-.1-.26.68-.54.95-.62ZM59.15 65.8c-.21.1-.41-.29-.46-.4-.2-.46-.45-.93-.48-1.4-.11-1.43-.58-2.72-1.14-4a36.6 36.6 0 0 1-1.16-3.18c-.11-.33-.34-1.17-.09-1.32.26-.15.6.47.7.71a11.6 11.6 0 0 1 .98 3.32c.22 1.28.63 2.5 1.16 3.68a9 9 0 0 1 .53 1.56c.07.28.18.92-.04 1.02ZM70.83 56.32c-.2.3-1.5-.34-2.03-.75a18.37 18.37 0 0 0-5.1-2.7c-.53-.2-1-.56-1.48-.89-.2-.15-.69-.31-.53-.64.16-.33.73-.1.98.03.66.31 1.33.63 1.93 1.04 1.16.82 2.38 1.5 3.7 2.05.61.26 1.18.66 1.74 1.04.27.18 1 .52.8.82ZM52.7 76.82a.85.85 0 0 1-.87.82.85.85 0 0 1-.78-.91.83.83 0 0 1 1.65.1ZM64.84 61.7c.45 0 .78.34.77.8 0 .45-.35.8-.8.8a.81.81 0 0 1-.78-.81.8.8 0 0 1 .8-.8ZM74.9 47.62a.75.75 0 0 1-.72-.77c0-.42.34-.75.74-.76.44 0 .79.38.76.82a.75.75 0 0 1-.78.71Zm6.62 30.18c.01-.4.38-.73.77-.71.4.02.73.39.72.78a.76.76 0 0 1-.78.7.77.77 0 0 1-.71-.77Zm15.98-4.7a.7.7 0 0 1 .72.66.72.72 0 0 1-.73.75.72.72 0 0 1-.68-.71c0-.39.3-.7.69-.7Zm-53.35 1.25a.7.7 0 0 1-.73.67.69.69 0 0 1-.65-.67c0-.37.32-.72.7-.72.37 0 .7.34.68.72Zm43.39-7.53a.7.7 0 0 1-.6.7.7.7 0 0 1-.75-.64.7.7 0 0 1 .6-.7.7.7 0 0 1 .75.64Zm-2.73-4.41c.35.02.62.35.58.7a.6.6 0 0 1-.65.54.62.62 0 0 1-.6-.61c0-.35.33-.66.67-.63Zm12.9 6.19c.01.34-.24.6-.57.6a.56.56 0 0 1-.56-.6c.02-.33.2-.52.53-.56.34-.03.6.22.6.56Zm-38.38 2a.55.55 0 0 1-.56-.53.56.56 0 0 1 .57-.6c.3 0 .54.24.56.54.02.33-.24.6-.57.6Zm31.11-14.74a.58.58 0 0 1-.54.62.58.58 0 0 1-.58-.6c0-.33.19-.52.5-.57.33-.05.6.21.62.55ZM41.51 82.42c0 .31-.23.54-.54.53a.56.56 0 0 1-.57-.52.57.57 0 0 1 .6-.59c.28.02.51.28.51.58ZM79.4 56.98c-.38-.12-.48-.26-.49-.5-.01-.26.34-.56.62-.54.3.02.48.17.51.48.03.3-.27.69-.64.56Zm-11.5 9.75c.38.11.47.38.46.62 0 .23-.29.4-.6.39-.3-.02-.46-.2-.48-.5 0-.3.24-.62.62-.51Zm-14.86-3.88c-.05.21-.39.3-.51.28-.13-.02-.31-.2-.33-.34-.03-.24.17-.44.42-.45.26 0 .47.3.42.51Zm24 7.72c0 .29-.26.47-.53.47-.26 0-.43-.28-.44-.54-.01-.27.1-.4.38-.46.27-.06.6.25.6.54ZM89.52 109.2c0 .07-.07 1.37-.03 2.7-1.37.1-1.15-2.7-1.07-3.06.03-.28-.88.35-1.34.77.15.26.35.21.6.11-.1 1.26.79 2.4 1.81 2.37.04 1.3.17 2.55.54 2.64.06.01.1-1.3.12-2.78 2.46-.77 1.53-3.72 1.53-3.72-.05-.17-.41.07-1.2.79.31.35.47.15.72.05.2.39.29 2.14-1.04 2.67.04-1.77.05-3.65.05-3.65 0-.05-.04-.07-.08-.06-.36.05-1 .7-1.5 1.24.27.45.62.05.9-.07m1.18 3.88.58.57.57-.57-.57-.58-.58.58Z" />
        </g>
    </symbol>
</svg>