<svg xmlns='http://www.w3.org/2000/svg' viewBox='0 0 696 830' fill='none'><symbol id='TRAC_Fill'>
  <g fill="none">
    <path fill="#FDBE00" d="M590.4 418.4c0 23-1 41-3 59l-4 35c-2 24-9 47-20 69-14 29-32 56-55 79l-19 18c-22 21-48 34-77 41l-30 5-18 3-23 1-35-5-24-5c-29-7-55-19-76-40a298.2 298.2 0 0 1-82-116c-5-13-9-27-11-41-3.8-33.2-6.5-66.6-8-100 0-16 1-31 3-46 3-32 10-63 22-93l15-38c5-12 10-23 17-33 10-15 20-29 31-42a169.2 169.2 0 0 1 81-54l28-9c11-4 24-5 36-4h18c14-1 28 0 41 5 14 4 27 9 41 15a185.4 185.4 0 0 1 66 49l28 38c7 11 13 23 18 35l18 46a296.5 296.5 0 0 1 20 93l2 35"/>
    <path fill="#FFF" d="M125.4 439.4a227 227 0 0 0 3 48l8 35c9 38 27 71 52 101 12 14 26 28 41 40 17 15 37 26 59 32l30 7c13.5 3 27.3 3.6 41 2l13-1 20-5c10-2 20-4 30-8 18-7 35-17 49-31l24-23a232.9 232.9 0 0 0 62-103c6.6-25.3 11.2-51 14-77l-1-39-2-25a389.5 389.5 0 0 0-18-84l-20-51c-4-13-10-25-18-36a566.8 566.8 0 0 0-33-44c-13-15-28-27-47-33l-25-8a230 230 0 0 0-69-9l-19 2c-19 3-37 8-54 14-20 8-38 20.7-52 37a498 498 0 0 0-48 77l-13 34c-13 33-21 67-24 102l-3 46m-6-21 4-47c3-29 10-57 21-84l13-33c4-11 10-23 17-33l27-37c15-17 32-30 52-41 11-6 23-10 36-14l22-7c9-2 18-2 27-2h20c11-1 22 0 33 3 14 5 28 9 42 16a172.9 172.9 0 0 1 62 46l26 35c7 11 13 22 18 34l19 50c7 18 11 37 14 56 6.6 48.8 5.9 98.4-2 147-3 23-9 46-20 67-14 27-30 51-52 73l-18 18c-19 17-41 28-66 35l-27 5-23 4-22 1-35-5-25-5c-25-7-48-18-67-36-12-12-25-24-35-37-19-23-34-48-44-75-5-13-8-27-10-41l-5-45c-2-15-2-29-2-48"/>
    <path fill="#FFF" d="M505.4 384.4c0 4 2 8 5 11h1v-1l-3-14v-1l-2 1-1 4m-44-96h-1l-1 1v1l5 5c1 2 3 4 6 5 3 0 5 2 7 5 3 4 3 4 8 6h1v-1l-7-14-2-2c-5-3-10-5-16-6m-59-64 3-1c3-2 5-5 6-8l-1-2-15-7c-3 2-4 5-3 9 0 3 3 6 6 8l4 1m-222 195v1c0 3 1 5 4 7 2 3 7 3 10 0l1-2 1-8c0-4-3-7-7-7l-5 1c-2 1-4 3-4 6v2m300-55 1 11h1l5-8c2-3 3-6 2-9l-1-2c-1-3-1-6 2-9l2-2 3-7 1-4-2-1-3 3c-7 8-11 17-11 28m-243-76h-3l-1 1c-7 1-13 4-19 9l-2 3-5 10-1 3c1 1 2-1 3-1l5-3 5-4c2-4 5-6 9-7 2 0 3-1 4-3l6-6v-1l-1-1m-20 77c0-11-4-21-11-29l-4-4h-1l-1 1c1 3 2 7 4 9l4 6c2 3 2 5 1 7l-1 2c-1 4 0 7 2 10l5 8 1 1v-1l1-10m236-87 6-1c2 0 4-2 5-4v-2h-2c-5 3-10 3-15 0h-1c-4-2-7-2-11-1l-2 1c-3 2-7 2-10 0h-3c-6 3-10 8-13 14l2-1c5-4 10-5 17-3h1c3 1 6 1 9-2l1-2c3-2 5-2 8-1l3 1 5 1m-177 2 10 2 3 3h1v-1c-3-6-7-10-12-13h-4c-3 2-6 2-9 1l-3-2c-4-1-7-1-11 1l-3 1c-4 2-8 1-12 0l-3-2h-1v1c1 3 3 5 6 6s7 2 11 0l3-1c3-1 6-1 8 2l2 2 7 2 3-1 4-1m154 26v8l1 1v-1l1-1 2-8c1-3 3-6 7-7l2-1c3 0 5-2 5-5l2-5c1-2 2-3 4-3h2c4 0 7-2 9-4l3-3-1-2-1 1c-2 3-5 4-9 5-4 0-7 0-11-2-3-2-5-1-8 2l-5 10-3 15m-163 2-2-17-5-9c-4-4-5-5-10-2-5 2-9 1-13 0-3-1-5-3-6-5l-1-2h-1c0 3 1 5 3 7s6 4 10 4c3 0 5 1 6 4l1 4c0 3 2 5 5 5l2 1c3 1 6 3 7 7l2 6 1 4 1-4v-3m51-103-1-5c-1-2-2-3-4-2l-18 8-8 5v2c2 3 6 5 10 6h9l10-7 2-7m162 118 7-1c3-2 3-5 0-7l-2-2c-9-5-19-7-29-4-5 1-10 3-14 7l-1 1h1l9 2h7l3-1c4-2 7-1 10 1l3 2c2 2 4 2 6 2m-248-15c-9 0-16 2-23 7l-3 2v1c4 5 12 8 18 2l2-1c2-2 5-3 8-2l5 2h7l9-2h1v-1l-2-1c-6-5-14-7-22-7m222-37 7-2c2-1 2-1 1-2l-1-3c-1-3-3-4-6-6-15-6-30-5-44 0l-6 4h1c6-1 11 0 15 3l3 3c2 1 5 2 7 1l6-1h7l4 1 6 2m-191-17-8 1c-7 1-14 4-21 8l-2 2v2c3 2 6 3 10 3 3 1 6 0 9-1 4-2 7-2 11-1l2 1c4 1 7 0 10-2l2-1c4-4 9-5 15-4h1v-1l-7-3c-7-3-14-4-22-4m-69 176h-1l-3 1c-4 1-7 0-9-3h-1v2l2 38c2.3 16.9 7 33.4 14 49v1l1-1-1-12v-18l1-8-1-12-2-22v-15m154 127h16l2-2c-1-6 0-12 1-17v-12c-2-5-2-11-1-17l1-22-1-2-11-5-2-2c-4-3-5-3-8 0l-3 2-11 5-1 2 1 20c1 7 1 13-1 20v11c1 5 2 11 1 17l2 2h15m-2 86 7-1 7-1c13-3 25-8 37-15l32-19c16-12 30-26 43-41l3-4-1-1h-1l-23 2c-12 1-23 1-35-1h-23c-13 2-25 2-37 1h-13c-12 1-24 1-36-1l-15-1-16 2h-27l-22-2-7 1c0 2 2 4 4 6l1 1a218 218 0 0 0 66 54c14 8.2 29.2 14.3 45 18l11 2m87-275c7 0 14 1 19 4 6 4 10 8 13 14l2 5c0 3 0 3 4 3h14l10 2c2 0 4 2 4 4l1 4 3 31c1 11 0 22-2 33-1 5-2 10-1 15 2 8 2 16 1 24v1l1-1 2-7c5-15 7-30 8-45 2-17 1-35 0-53v-2l-2-2-4-1c-5-3-7-9-5-14l4-6c2-2 2-3 1-6l-7-26-1-4h-1c-1 0 0 0 0 0l-6 8c-1 2-2 4-1 7 2 5 2 10-2 13-3 3-4 6-5 10l-1 1-1-1c-2-4-3-7-3-11-1-14 4-25 13-34l3-4-2-5-1-3h-1l-1 1c-5 3-12 4-17-1l-3-2-5-1-3 3h-9l-4-2h-10l-1-1v-1l2-2c8-7 17-10 27-10l9 1h1v-1c-1-2-3-3-5-3-4-1-7-3-8-6-2-3-4-6-7-7l-1-1 1-1c3-2 7-2 10-1l9 3v-1l-6-10-1 1c-4 4-8 7-13 6h-1l-2 2-1 3-1 3c-1 3-3 5-6 7h-1c-4 1-6 4-7 7l-3 8-1 3h-2l-1-5v-16l4-12-1-1-9-2c-4-1-7-1-10 1l-6 4-2 1h-1l-1-1 1-1c2-7 7-13 14-17l1-1v-1c-3-3-6-4-10-4l-7 2h-2l-1-1 1-1c3-4 7-6 11-8 14-5 29-5 43 0l1 1h1v-1l-1-2a168.4 168.4 0 0 0-26-28l-14-10c-1-1-2-1-3 1-1 4-4 6-8 8h-10c-6-3-9-9-6-15l3-4 2-1v-2l-3-1-36-13c-4-1-8-2-11-1l-3 1-22 9c2 3 2 6 1 9 0 4-2 8-5 11-4 5-8 7-14 5l-7-2-8-7-2-1c-8.4 5.9-16.7 11.9-25 18-8 8-15 16-21 25l-2 3c2 1 3 0 4-1l4-2a58 58 0 0 1 48 3l6 5 1 2h-2l-7-1c-4-1-8 0-11 3v1a30 30 0 0 1 16 19l-1 1h-1l-5-4c-4-3-9-3-14-1l-8 1-1 1c3 6 4 11 5 17 0 4 0 9-2 14v2h-2l-1-3-3-9c-1-3-3-5-6-6-5-1-8-4-8-9l-1-3c-1-3-2-3-4-3l-5-1c-5-1-9-4-10-9l-1-1v1l-10 16v1l1 1 7-4c4-3 9-4 13-3l4 1 1 1v1c-4 1-6 4-8 7v1c-2 2-4 4-7 4l-2 1c-2 0-3 2-4 3v1h3a40 40 0 0 1 36 11v2h-2c-3-1-7-1-10 1l-3 1c-3 1-6 1-9-1l-3-2c-2-1-3 0-5 1l-3 2c-5 5-13 4-18-1l-2-2-1 1-4 8 1 1 6 6c6 7 10 15 12 24 1 5 0 11-2 17l-1 3-1 1-1-1-5-10c-3-4-4-8-2-12 1-3 1-6-2-9s-5-7-6-11l-1-1v-1l-1 1-1 3-7 24c-2 9-5 18-6 28l-2 17c0 2 0 2 2 1 4-2 8-3 13-1h1l1-7c0-4 2-5 6-6l9-1h12l4-1 2-4 1-2c3-7 7-12 14-15 6-3 12-5 19-4h4c2 0 3-1 4-3 0-2 0-3-2-5l-3-2c-3-1-2-2 0-4l3-1c5-2 10-2 15-1 3 1 6 0 8-2l3-2 8-5 3-1 4-2c3-3 4-8 1-12l-3-3 1-2 1-1c6-2 12-6 16-11l5-6 7-5c6-3 11-3 17 0l7 5 5 6c5 5 10 9 16 11 3 1 3 2 1 4l-1 2-2 2c-2 4 0 8 3 10l5 3c4 1 7 3 9 5l3 3c2 1 5 2 8 1 5-1 10-1 15 1l4 2v3l-4 2-2 5c1 2 2 3 4 3h5m15 189h28c2 0 3-1 4-3l10-18 1-4 1-9 4-39v-14l-2-10c-2-15-2-29-2-44v-14l-1-2h-8c-5 1-9 0-13-2-3-1-5-2-6-5-5-7-10-12-18-14l-9-3-8-1c-3-1-6-3-8-7-1-3-1-6 1-9l2-1-1-2h-8l-4 1c-3 0-6 0-8-2l-4-2c-2-2-4-4-7-4l-4-1c-4-2-7-4-9-8-2-2-2-5-1-7l2-6-1-1c-9-2-15-5-21-11l-5-6c-4-4-5-4-9 0l-7 7c-4 4-8 7-13 9l-7 1 2 7v6l-2 3c-3 4-6 5-10 6-2 1-5 1-7 3l-3 3c-4 2-7 4-12 2l-3-1-8 1v2l1 1c3 3 3 7 0 11-1 2-3 3-6 4l-4 2-8 1c-11 2-19 8-24 17l-4 4-14 2h-8c-2 0-2 1-2 2v15c0 17 0 34-4 52v16c2 9 3 18 3 28l3 25 2 8 5 8c1 2 2 4 4 3h41l28 1c13 2 25 1 37-1l1-2v-33l-1-10 1-10 2-16c0-2 1-4 3-5l10-6c6-4 12-4 18 0l9 6c2 1 3 3 4 6 0 12 .4 24 1 36v4l1 23-1 6 1 1h4c10 2 20 2 30 2 14-2 27-2 41-2m-276-137c-.4-20.3 2.3-40.5 8-60 3-11 5-22 9-32a246.5 246.5 0 0 1 60-96 166 166 0 0 1 42-35c15-7 30-13 47-15 8-1 15-1 22 1 15 2 29 8 42 14l14 9c9.3 8 18.4 16.3 27 25l15 17a246.6 246.6 0 0 1 56 114 389 389 0 0 1 7 43l-1 43c-3 25-8 51-19 74l-13 30-15 24a573.7 573.7 0 0 1-33 35c-16 11-33 21-52 28-10 5-22 7-33 9h-21c-17-4-34-10-50-18l-17-10a141.2 141.2 0 0 1-46-43c-6-8-12-17-16-26l-14-30c-7-16-12-34-15-52-2-16-4-32-4-49"/>
    <path fill="#FDBE00" d="m363.4 408.4-1-12-2-13-5-7c-4-4-9-4-13 0-2 2-4 5-5 9-2 4-2 8-3 13v21c-1 3 1 5 3 7l6 3h11l8-5 1-4v-12m85 149c-14 0-27 0-41 2-10 1-20 0-30-1l-4-1-1-1v-33l1-14-2-22c-1-3-2-5-4-6l-9-6c-6-3-12-3-18 0l-10 6-4 5-1 16-1 10 1 10v34l-1 1c-12 2-25 3-37 1l-28-1h-41c-2 1-3 0-4-3l-5-8-2-8-3-25c0-10-1-19-3-28v-16c4.6-22 6-44.6 4-67l2-1h8c5 0 9-1 14-3l4-4c5-9 13-15 23-17l8-1 5-2c3 0 5-2 6-4 2-4 3-8-1-11v-3h11c5 2 8 1 12-2l3-3 7-3a17 17 0 0 0 12-9v-6l-2-7 6-1c6-2 10-5 14-9l7-6c4-4 5-4 9 0l5 5c5.5 6 12.9 9.9 21 11l1 1-2 6c-1 2-1 5 1 7 2 4 5 6 8 8l5 1 7 4 4 2c2 2 5 2 8 2l4-1h8l1 2-2 1c-2 3-2 6-1 9 2 4 5 6 8 7l8 1 9 3c8 2 13 7 17 14 2 3 4 5 7 5 4 2 8 3 13 3h8l1 1v14c-.6 18 .8 36.2 4 54v14a414 414 0 0 0-6 52l-10 19-4 2h-28"/>
    <path fill="#FDBE00" d="M304.4 294.4c0 5 2 8 7 9l7-1c4-1 6-5 4-9l-3-5c-1-2-3-3-5-3-5 0-8 2-10 6v3m108 30c-3 0-5 1-7 3-5 6-2 14 5 15h6c2 0 4-2 4-4 3-6-2-14-8-14m21 44h-5c-2 0-3-1-4-3l2-5 4-2v-3l-4-2c-5-2-10-2-15-1-3 1-6 0-8-1l-3-3c-2-2-5-4-9-5l-5-2c-3-2-5-7-3-11l2-2 1-2c1-2 2-3-1-4-6-2-12-6-16-11l-5-6-7-5c-6-3-11-3-17 0l-7 5-5 6c-4 5-10 9-16 11l-1 1c-1 0-2 1-1 2l3 3c3 4 2 9-1 12l-4 2-3 1-8 5-3 2c-2 3-5 3-8 2a25 25 0 0 0-18 2c-2 2-3 3 0 5l3 1c2 2 2 3 2 5-1 2-2 3-4 3h-4c-7 0-13 1-19 4-7 3-11 8-14 15l-1 2-2 4-4 1h-12l-9 1c-4 1-6 3-6 6l-1 7h-2c-4-2-8-1-12 2-2 0-2 0-2-2l2-17c1-10 4-19 6-28l7-24 1-3 1-1v1l1 1c1 4 3 8 6 11s3 6 2 9c-2 4-2 8 2 12l5 10 1 1h1l1-4c2-6 3-12 2-17-2-9-6-17-12-24l-6-6-1-1 4-8h1l2 1c5 5 13 6 18 1l3-2 5-1 3 2c3 2 6 2 9 1l3-1c3-2 7-2 10-1h2v-1l-2-3c-10-8-21-11-34-9h-3l4-4h2c3-1 5-2 7-5 2-4 4-7 8-8v-1l-1-1-4-1c-4-1-9 1-13 3l-7 4h-1v-1l10-17v-1l1 1c1 5 5 8 10 10h5c2 0 3 0 4 3l1 3c0 5 3 8 8 9 3 1 5 3 6 6l3 9 1 3h2v-2c2-5 2-9 2-14-1-6-2-11-5-16l1-2 8-1c5-2 10-1 14 1l5 4h1l1-1-1-2c-3-8-8-13-15-16v-2c3-3 7-4 11-3l7 1h2l-1-2-6-5c-4-2-8-4-12-4-12-4-24-3-36 1l-4 2-4 2 2-4a158.5 158.5 0 0 1 25-28l23-14c4 4.5 9.2 7.6 15 9 6 2 10 0 14-5 3-3 5-7 5-11 1-3 1-6-1-9l1-2 21-7h14l36 13 3 2v1l-2 1-3 4c-3 6 0 13 6 15h10c4-2 7-4 8-8 1-2 2-2 3-1l14 10 6 5c7.8 8 14.9 16.7 21 26l-2-1c-14-5-29-5-43 0-4 2-8 4-11 8l-1 1 1 1h2l7-1c4-1 7 0 11 3l-1 1-1 1c-7 4-12 10-14 17l-1 1 1 1h1l2-1 6-4c3-2 6-2 10-1 3 1 6 3 9 2l1 1-4 12v16l1 5h2l1-3 3-8c1-3 3-6 7-7h1c3-1 5-4 6-7l1-3 1-3 2-2h1c5 1 9-2 13-6h2l5 10-9-3c-3-1-7-1-10 1l-1 1 1 1c3 1 5 4 7 7 1 3 4 5 8 6 2 0 4 1 5 3v1h-1l-9-1c-10 0-19 3-27 10l-2 2v1l1 1h2c3-1 5-1 8 1l4 1h9l3-3 5 1 3 2c5 5 12 4 17 1l1-1h1l1 3 2 5-3 4c-9 9-14 20-13 34 0 4 1 7 3 11h2c1-4 2-7 5-10 4-3 4-8 2-13-1-3 0-5 1-7l6-8h1l1 4 7 26c1 3 1 4-1 6l-4 6c-2 6 0 11 5 14l4 1 2 2v2c1 18 2 36 0 53-1 16-3 30-8 45l-2 7-1 1v-1c1-8 1-16-1-24-1-5 0-10 1-15 2-11 3-22 2-33l-3-31-1-4c0-2-2-4-4-4l-10-2h-14c-4 0-4 0-4-3l-2-5c-3-6-7-10-13-14-5-3-12-4-19-4m-36 216 12-1c7.5-.8 14.9-2.5 22-5l1-1h-2l-24 3h-25l-22-4h-35l-24 4c-9 2-19 2-28-1l-9-2h-1v1l4 4c8 5 17 8 27 9 8 0 16-2 24-4l14-5c8-3 16-4 25-3l14 2c8 2 17 3 27 3m14 24h1v-2l-4-4-7-3h-20l-18 5-14 4c-9 3-18 4-28 2-8.5-1.8-16.8-4.1-25-7h-1 1v1l30 11a76.1 76.1 0 0 0 49 0l12-4c8-3 16-5 24-3m-64 35-12-2c-24.8-5.5-48-16.4-68-32-16-12-30-25-43-40l-1-1c-2-2-4-4-4-6l7-1 22 2h27l16-2 15 1a217 217 0 0 0 49 1c12 1 24 1 37-1h23c12 2 24 2 35 1l23-2h1l1 1-3 4a219.7 219.7 0 0 1-75 60c-11 7-24 12-37 15l-7 1-6 1m1-86h-15l-2-2c1-6 0-12-1-17v-11c2-7 2-13 1-20l-1-20 1-2 11-5 3-2c3-3 4-3 8 0l2 2 11 5 1 2-1 22c-1 6-1 12 1 17v12c-1 5-2 11-1 17l-2 2h-16Zm-154-127v15l2 22 1 12-1 8v18l1 12-1 1v-1l-1-2c-7-15-11-31-13-47l-2-38v-2h1c2 3 5 4 9 3l3-2c1 0 2 0 1 1"/>
    <path fill="#FDBE00" d="M263.4 254.4c8 0 15 1 22 4l7 3 1 1h-2c-6-1-11 0-15 4l-2 1c-3 2-6 3-10 2l-2-1c-4-1-7-1-11 1-3 1-6 2-9 1-4 0-7-1-10-3v-2l2-2c7-4 14-7 21-8l8-1m191 17-6-2-4-1h-7l-6 1c-2 1-5 0-7-1l-3-3c-4-3-9-4-15-3h-1l6-4c14-5 29-6 44 0 3 2 5 3 6 6l1 3c1 1 1 1-1 2l-7 2m-222 37c8 0 16 2 22 7l2 1v1h-1l-9 2h-7l-5-2c-3-1-6 0-8 2l-2 1c-6 6-14 3-18-2v-1l3-2c7-5 14-7 23-7m248 15c-2 0-4 0-6-2l-3-2c-3-3-6-3-10-2l-3 2h-7l-9-2h-1l1-1c4-4 9-6 14-7 10-3 20-1 29 4l2 2c3 2 3 5 0 6-2 2-4 2-7 2m-162-118-2 6c-3 4-6 6-10 8h-9c-4-1-8-3-10-6v-2l8-5 18-8c2-1 3 0 4 2l1 5m-51 103v3l-1 4-1-4-2-6c-1-4-4-6-7-7l-2-1c-3 0-5-2-5-5l-1-4c-1-3-3-4-6-4-4 0-8-2-10-4-3-2-4-4-3-7h1l1 2c1 2 3 4 6 5 4 1 8 2 13 0 5-3 6-2 10 2l5 9 2 17m163-2 3-15 5-10c3-3 5-4 8-2 4 2 7 2 11 2 4-1 7-2 9-5l1-1 1 2-3 3c-2 2-5 3-9 3l-2 1c-2 0-3 1-4 3l-2 5c0 3-2 5-5 5l-2 1c-4 1-6 4-7 7l-2 8-1 1v1l-1-1v-8"/>
    <path fill="#FDBE00" d="m276.4 280.4-4 1-3 1-7-2-2-2c-2-3-5-3-8-2l-3 1c-4 2-8 1-12 0-2-1-4-3-5-6v-1h1l3 2c4 1 8 2 12 0l3-1c4-2 7-2 11-1l3 2c3 1 6 1 9-1h4c5 3 9 7 12 13v1h-1l-3-3-10-2m172-3-3-1c-3-1-5-1-8 1l-1 2c-3 3-6 3-9 2h-1c-7-2-12-1-17 3l-2 1c3-6 7-11 13-14h3c3 2 7 2 10 0l2-1c4-1 7-1 11 1h1c5 3 10 3 15 0h2v2c-1 2-3 4-5 4l-6 1-5-1m-231 87-1 11h-1l-5-8c-2-3-3-6-2-10l1-2c1-2 1-4-1-7l-4-6-4-9 1-1h1l4 4c7 8 11 18 11 28m20-76h1v2l-6 6c-1 2-2 3-4 3-4 1-7 3-9 7l-5 4-5 3-3 1 1-3c2.2-4.4 4.6-8.7 7-13a40 40 0 0 1 20-10h3m243 76a42.2 42.2 0 0 1 14-31l2 1-1 4-5 9c-3 3-3 6-2 9l1 2c1 3 0 6-2 9l-5 8h-1l-1-11m-296 47 5-1c4 0 7 3 7 7l-1 8-2 2c-2 3-7 3-9 0-5-3-5-10-3-14l3-2Zm214-188c-3-2-6-5-6-8-1-4 0-7 3-9h3l12 7 1 2c-1 3-3 6-6 8l-3 1-4-1m63 65c6 1 11 3 16 6l2 2 6 15c-5-2-5-2-8-6-2-3-4-5-7-5-3-1-5-3-6-5l-5-5v-1l1-1h1m44 96c-1 2 1 8 5 11h1v-1l-3-14v-2l-2 2-1 4Z"/>
    <path fill="#FFF" d="M360.4 420.4v-1l-3-21-2-11c0-3-1-6-3-8-3-3-4-3-7 0-2 2-3 5-3 8l-1 6c-1 9-1 18-4 26l1 2 9 4h2l11-4v-1m3-12v12c1 2 0 3-1 4l-8 5h-11l-6-3c-2-2-4-4-3-7v-21c1-5 1-9 3-13 1-4 3-7 5-9 4-4 9-4 13 0l5 7 2 13 1 12m53-73v-5c-2-4-7-5-10-2-2 2-3 5-2 8s4 5 7 6c2 0 4-1 5-4v-3m-4-11c6 0 11 8 8 14 0 2-2 4-4 4h-6c-7-2-10-9-5-15 2-2 4-3 7-3m-99-38-4 1c-2 1-3 3-2 5l1 6c1 3 3 4 6 4 2-1 4-2 4-4 2-3 2-6 0-9-1-2-3-3-5-3m-9 8v-3c2-4 5-6 10-6 2 0 4 1 5 3l3 5c2 4 0 8-4 9l-7 1c-5-1-7-4-7-9m107 314c-8-2-16 0-24 3l-13 4a77.2 77.2 0 0 1-48 0l-30-11v-1h-1 1l4 1 21 6c10 2 19 1 28-2l14-4 18-5h20l7 3 4 4v2h-1m-14-24c-10 0-19-1-27-3l-14-2c-9-1-17 0-25 3l-14 5c-8 2-16 4-24 4-10-1-19-4-27-9l-4-4v-1h1l9 2c9 3 19 3 28 1l24-4c12-1 23-1 35 1a527 527 0 0 0 47 3l24-3h2l-1 1-2 1-20 4-12 1"/>
    <path fill="#FDBE00" d="M360.4 420.4v1l-11 4h-2l-9-4-1-2c3-8 3-17 4-26l1-6c0-3 1-6 3-8 3-3 4-3 7 0 2 2 3 5 3 8l2 11 3 21v1m56-82c-1 3-3 4-5 4-3-1-6-3-7-6s0-6 2-8c3-3 8-2 10 2v8m-98-49c2 3 2 6 0 9 0 2-2 3-4 4-3 0-5-1-6-4l-1-6c-1-2 0-4 2-5 1 0 3-2 5-1l4 3"/>
    <path fill="#FFF" d="m459.6 526.5 2.8 2.8 2.8-2.8-2.8-2.8-2.8 2.8Zm-6-19.1c0 .4-.2 6.8-.1 13.3-6.8.5-5.7-13.3-5.3-15 .2-1.4-4.4 1.7-6.6 3.8.7 1.3 1.7 1 2.9.5-.5 6.2 3.9 11.8 9 11.7.2 6.4.9 12.5 2.7 13 .2 0 .5-6.5.6-13.7 12.2-3.8 7.5-18.3 7.5-18.3-.2-.8-2 .3-6 3.9 1.6 1.7 2.4.7 3.6.3 1 1.9 1.4 10.5-5.1 13l.3-18-.4-.2c-1.8.2-5 3.4-7.5 6 1.5 2.3 3.2.3 4.5-.3"/>
  </g>
</symbol></svg>
