<svg xmlns='http://www.w3.org/2000/svg' viewBox='0 0 696 830' fill='none'><symbol id='TURC_Fill'>
  <g fill="none">
    <path fill="#9BADFA" d="M590.4 427.2c0 20-2 39-4 59l-5 37c-3 24-12 47-24 68-14 26-31 50-52 71l-14 13c-24 23-52 38-84 44l-47 7c-11 2-23 1-34-1l-45-7c-28-7-54-20-75-40l-28-29c-25-28-44-59-57-95-4-12-7-25-9-38l-5-52c-2-18-2-36-2-54a453 453 0 0 1 23-122l17-44c5-12 11-24 18-35 9-13 18-26 29-38 16-20 35-35 58-46 17-8 34-14 52-20 11-3 21-3 32-3h26c15-1 28 2 42 6 15 5 30 10 44 17 22 12 41 26 57 45l29 39c7 11 13 22 18 35l22 60c9 24 13 48 15 74l3 49"/>
    <path fill="#FFF" d="m570.4 434.2-3-46c-2-26-7-51-16-75a2340.4 2340.4 0 0 0-34-84c-11-17-22-33-35-49-12-14-26-26-44-34a284.5 284.5 0 0 0-92-20c-18 0-35 3-52 8l-25 8c-24 7-43 21-58 41l-28 39c-7 11-13 22-17 34l-15 39c-11 27-18 54-21 83l-4 51c-1 15-1 30 1 46 1 12 4 25 7 37 8 40 25 75 50 106 15 17 31 33 48 47 13 11 28 20 44 25 22 8 46 13 70 14 9 0 18 0 26-2l22-5c31-6 57-20 80-41l22-21c24-24 42-53 54-84 6-15 10-30 13-46 6-23 9-47 7-71m6-12c0 20-1 39-3 59l-4 33c-3 20-9 39-18 56-14 28-31 54-53 76l-18 17c-21 20-46 32-74 38l-46 7c-11 2-22 1-33-1l-43-7c-27-7-50-19-69-37a321.7 321.7 0 0 1-71-94c-11-21-16-44-19-67l-4-39c-2.6-38.4-1-77 5-115 3-17 7-33 13-50l19-47a446.5 446.5 0 0 1 45-69c14-17 32-30 52-40 16-8 34-14 51-19 7-2 15-3 22-3h36c11-1 22 1 32 5 17 5 34 11 49 19 19 10 35 23 48 39 17 21.6 32 44.7 45 69l18 46c10 27 16 55 18 83l2 40"/>
    <path fill="#FFF" d="M353.4 384.2v-1l3-12h-1c-6 3-7 3-4 10l1 2 1 1m-48-66-2-1c-8 1-15 3-22 8l-19 12-7 7-1 1 2 1c7 0 13 2 18 6 2 1 3 1 4-1 8-11 16-22 26-32l1-1m41 324h7c14-3 28-7 40-14 15-8 28-17 41-26l18-15c2-2 2-2-1-3-4-2-9-4-13-8-5-5-7-11-4-18 1-2 0-2-1-2l-10 2c-9 2-18 5-26 10l-20 10c-8 4-17 7-27 7-7 0-14-1-21-5-8-5-9-13-4-21l1-2 1-1h-3c-11 1-21 5-30 10l-20 10c-9 5-18 9-28 10l-3 1 2 3c13 12 27 21 41 30 16 10 32 17 49 21l11 2m-101-105 1 15 2 4 3-3c10-10 18-22 26-34 2-4 2-4 6-2 5 2 9 6 12 11l5 10 1 1 1-2c0-13-2-26-8-38l-6-12c-5-11-6-22-3-33 11-46 38-79 83-97 2 0 2-1 3-3l6-15 3-3h1v2l-4 8c-3 7-3 14 0 20l5 14 1 1v-1l4-12c2-14 7-26 15-38l12-12c10-6 20-10 32-11l12-3 4-4c2-2 1-3-1-4l-8-1c-7-1-14-3-21-7l-10-6c-4-3-7-4-12-4-7-1-14 0-21 1-15 4-30 10-45 17-22 11-41 27-55 48a129.3 129.3 0 0 0-24 77l2 26-1 26c-2 12-7 24-13 35-5 9-8 19-8 29m119-52v-1l-19 3c-15 3-29 10-42 18-3 1-3 1-2 5 3 8 5 17 4 26l-1 8c-1 2-2 2-4 1l-5-5-4-7c-2-4-5-8-9-11-2-2-2-2-3 1-4 7-7 13-12 19l-17 18c-2 2-3 2-5-1l-3-7c-2-10-4-20-1-30 1-2 0-3-1-3l-7-4c-4-4-6-9-4-15 1-5 4-8 8-12l3-2v-1l-3 1c-16 2-30 7-44 14-3 2-3 2-2 5l1 2 16 35c6 13 14 25 24 35 3 3 6 4 9 3 11-1 20-4 29-9l21-9c8-4 18-7 27-9l12-1 2 1-1 3-3 4c-2 6-1 11 5 13 2 2 6 3 9 3 9 2 18 0 26-3l23-9c9-4 18-8 27-10l20-2c2 0 3 1 2 4l-2 4c-1 4 1 7 4 10 5 4 10 6 15 8 2 0 3 0 4-2 6-6 12-12 16-20l15-27c1-2 0-3-1-4-4-3-7-7-9-11-2-5-3-10-2-15 2-4 4-8 7-10l1-2h-1l-13 2c-13 3-25 9-36 15l-17 10c-7 4-14 6-22 7-9 0-17 0-24-5-11-5-12-16-5-25l5-4v-1l-1-1h-9m-185-50 1 23c1 12 3 24 7 35 1 4 1 4 4 2l19-7a91.5 91.5 0 0 1 34-5c2 1 2 2 1 3l-2 1c-4 3-7 6-9 10-3 7-1 12 6 15 2 1.3 4 .7 6-2l3-5c3-6 7-12 9-19 4-12 5-24 3-37-2-16-3-31-1-47 1-15 4-31 12-44v-4c-6-4-12-7-20-8-3 0-3 0-2-3 3-5 6-10 11-14l12-9c9-7 20-10 31-9 5 0 9-1 12-4 20-16 42-26 66-32 19-5 36-3 53 6l11 5 12 6 5 2c2 2 3 5 1 7l-4 5c-6 4-11 6-17 7-12 3-22 8-32 15-4 3-8 7-10 12-3 7-6 14-7 21l-4 13-9 15-1 2-1-2-3-8c-3-6-6-12-7-18 0-2 0-2-1-1l-6 3c-1 1-3 2-3 4-3 5-5 11-5 17v1c-1 2-2 3-3 2s-3-2-3-4l-4-7c0-2-1-2-2-1a104.2 104.2 0 0 0-51 73c-2 10-3 19-2 28l7 21c1 1 1 2 3 1l1-1c15-7 31-13 48-16 9-1 17-2 26-1l6 2c2 1 2 1 0 3l-2 2-6 7c-3 5-2 10 3 13l8 3c11 3 20 2 30-2l19-10 30-12c9-3 19-5 29-3l4 1-3 3c-7 7-11 20 1 29 2 2 2 2 3 0l7-19c5-16 8-34 8-52 1-20 1-40-2-59l-7-29c-6-25-15-48-27-69l-14-25c-11-19-25-35-43-47l-9-6c-7-4-13-8-19-10l-37-14c-5-2-11-2-16 0l-10 4c-20 6-39 15-57 28-15 11-27 24-37 40l-13 22c-19 32-29 67-37 103-4 16-4 31-4 50m341-14c.2 48.3-13 95.7-38 137-14 25-32 46-57 60a203.8 203.8 0 0 1-70 28c-10 2-19 1-28-1-13-3-26-7-37-14l-28-15a186.2 186.2 0 0 1-63-76c-6-14-13-29-17-44a287.9 287.9 0 0 1-1-144 248 248 0 0 1 68-122 142 142 0 0 1 93-50 141.8 141.8 0 0 1 101 51l19 22c24 30 40 62 48 99l7 32c3 12 3 24 3 37"/>
    <path fill="#9BADFA" d="M180.4 436.2c0-19 0-34 4-50 7-36 18-71 37-103l13-22c10-16 22-29 37-40 18-13 36-22 57-28l10-4c5-2 11-2 16 0l37 14c6 2 12 6 18 10l10 6c18 12 32 28 43 47l14 25c12 21 21 44 27 69l7 29c6 37 4 74.9-6 111l-7 19c-1 2-1 2-3 0-12-9-8-22-1-29l2-3-3-2c-10-1-20 1-29 4l-30 12-19 10c-10 4-20 5-30 2l-8-3c-5-3-6-8-3-13l6-7 2-2c2-2 2-3 0-3l-6-2c-9-1-17 0-26 1-17 3-33 9-48 16l-1 1c-2 1-2 0-3-1-3-7-6-14-7-21-2-9 0-18 2-28 2-12 6-24 12-35 10-16 23-29 39-38 1-1 2-1 2 1l3 7 4 4c1 1 2 0 3-2v-1c0-6 2-12 5-17 0-2 1-3 3-4l6-3c0-1 1-1 1 1 1 6 4 12 7 18l2 8 2 2 1-2 9-15 4-13c1-7 3-14 7-21 2-5 6-9 10-12 10-7 20-12 32-15 6-1 11-3 16-7l5-5c2-2 1-5-1-7l-5-2-12-6-11-5a69 69 0 0 0-53-6c-24 6-46 16-66 32-3 3-7 4-12 4-11-1-22 2-31 9l-12 9c-5 4-8 9-11 14-1 3-1 3 2 3 7 1 14 4 20 8v4c-8 13-11 28-12 44-2 16-1 31 1 47 2 13 1 25-3 37-2 7-6 13-9 19l-3 5c-2 2-4.3 2.7-7 2-6-3-8-8-5-15 2-4 5-7 9-10l2-1c1-1 1-2-1-3h-4c-10 0-20 2-30 5l-19 7c-4 2-3 2-4-2-4-11-6-23-7-35l-1-23"/>
    <path fill="#9BADFA" d="M364.4 486.2h10l1 1v1l-5 4c-7 9-6 20 4 25 8 5 16 5 25 5 8-1 15-3 22-7l17-10c11-6 23-12 36-15l13-2h1l-1 2c-3 2-5 6-7 10-1 5 0 10 2 15 2 4 5 8 9 11 1 1 2 2 1 4l-15 27c-4 8-10 14-16 20-1 2-2 2-4 2-5-2-10-4-15-8-3-3-5-6-4-10l2-4c1-3 0-4-2-4l-20 2c-9 2-18 6-27 10l-23 9c-8 3-17 5-26 3-3 0-7-1-9-3-6-2-7-7-5-13l3-4 1-3-3-1-11 1c-9 2-19 5-27 9l-21 9c-9 5-18 7-29 9-3 1-6 0-9-3-10-10-18-22-24-35l-16-35-1-2c-1-3-1-3 2-5a144.4 144.4 0 0 1 47-15v1l-3 2c-4 4-7 7-8 12-2 6-1 11 4 15l6 4c2 0 2 1 2 3-3 10-1 20 1 30l3 7c1 3 3 3 5 1l17-18c5-6 8-12 12-19 1-3 1-3 3-1 4 3 7 7 9 11l4 7 5 5c2 1 3 1 4-1l1-8c1-9-1-18-4-26-1-4-1-4 2-5a138 138 0 0 1 61-20"/>
    <path fill="#9BADFA" d="M245.4 538.2c0-10 3-20 8-29a107.5 107.5 0 0 0 14-61l-2-26c-.4-27.6 8-54.6 24-77 14-21 33-37 55-48 15-7 30-13 45-17 7-1 14-2 21-1 5 0 8 1 12 4l10 6c7 4 14 6 21 7l8 1c2 1 3 2 1 4l-4 4-12 3c-12 1-22 5-32 11l-12 12c-8 12-13 24-15 38l-4 12v1l-1-1-5-14c-3-6-3-13 0-20l4-8v-2h-1l-3 3-6 15c-1 2-1 3-3 3-45 18-72 51-83 97-3 11-2 22 3 33l6 12c6 12 8 25 8 38l-1 2-1-1-5-10c-3-5-7-9-12-11-4-2-4-2-6 2-8 12-16 24-26 34l-3 3-2-4-1-15m101 104h7c14-3 28-8 40-14 15-8 28-17 41-26l18-15c2-2 2-2-1-3-4-2-9-4-13-8-5-5-7-11-4-18 1-2 0-2-1-2l-10 2c-9 1-18 5-26 10l-20 10c-8 4-17 6-27 7-7 0-14-1-21-5-8-5-9-13-4-21l1-2 1-1h-3c-11 1-21 5-30 10l-20 10c-9 5-18 9-28 10l-3 1 2 3c13 12 27 21 41 30a155.3 155.3 0 0 0 60 22Zm-41-324-1 1c-10 10-18 21-26 32-1 2-2 2-4 1-5-4-11-6-18-6l-2-1 1-1 7-7 19-12c7-5 14-7 22-8l2 1"/>
    <path fill="#9BADFA" d="m353.4 384.2-1-1-1-2c-3-7-2-7 4-10h1l-3 12v1"/>
    <path fill="#FFF" d="M422.8 420.4c0 .4-.3 6.8-.2 13.3-6.8.5-5.7-13.3-5.3-15 .2-1.4-4.4 1.7-6.6 3.8.7 1.3 1.7 1 2.9.5-.5 6.2 3.9 11.8 9 11.7.2 6.4.9 12.5 2.7 13 .2 0 .5-6.5.6-13.7 12.2-3.8 7.5-18.3 7.5-18.3-.2-.8-2 .4-6 3.9 1.6 1.7 2.4.7 3.6.3 1 1.9 1.4 10.5-5.1 13l.3-18-.4-.2c-1.8.2-5 3.4-7.5 6 1.4 2.3 3 .3 4.5-.3m5.9 19 2.8 2.9 2.8-2.8-2.8-2.8-2.8 2.8Z"/>
  </g>
</symbol></svg>
