<svg xmlns='http://www.w3.org/2000/svg' viewBox='0 0 696 830' fill='none'><symbol id='VERC_Fill'>
  <g fill="none">
    <path fill="#A7BFB9" d="m590.4 427-1 34-2 18-2 17c-1 13-3 26-6 38-3 14-7 27-13 40a311.9 311.9 0 0 1-80 107 158.9 158.9 0 0 1-83 39l-31 5c-12 2-23 3-35 2l-23-3-22-4a173.8 173.8 0 0 1-87-43l-24-24a269 269 0 0 1-72-162l-2-24-1-11-1-33a775 775 0 0 1 7-79 255 255 0 0 1 19-64l15-39a496.8 496.8 0 0 1 48-73c18.7-22.1 42.8-39 70-49l37-13c8-3 17-4 26-4l18 1h5l17-1c10 0 19 1 28 4 14 4 28 9 41 15a182.7 182.7 0 0 1 65 47c12 14 23 29 33 44 6 10 12 21 16 32l18 47a281.6 281.6 0 0 1 18 71l3 31 1 34"/>
    <path fill="#FFF" d="m571.4 439-2-21c-1.3-23.8-4-47.5-8-71l-12-42-19-49c-5-12-10-24-17-34a574.4 574.4 0 0 0-40-52c-11-11-25-20-40-26a340 340 0 0 0-71-17c-10-.9-20-.9-30 0l-16 2c-12 2-23 6-34 9l-24 8-21 11c-8 7-16 14-23 23a473.2 473.2 0 0 0-48 74l-19 49a318.9 318.9 0 0 0-20 97l-1 16-1 19a264 264 0 0 0 4 54l6 27c9 43.8 30.6 84.1 62 116 11.5 11.2 23.2 22.2 35 33 18 15 38 25 60 30l25 6c8 2 17 3 25 3l26-1h2l24-5a160.3 160.3 0 0 0 77-39l23-23c26.8-25.9 47-57.7 59-93 4-10 7-20 9-31l8-43 1-30m-452-18 2-39c3-32 10-63 22-93l14-36c13-24.6 28-48 45-70 18-21.7 41.5-38.3 68-48 11-5 23-9 35-12 8-2 15-3 23-3l18 1 4-1h22c23 4.5 45.5 11.5 67 21 19 9 36 21 50 37a370 370 0 0 1 49 73l19 50c10 25.9 15.7 53.3 17 81a542 542 0 0 1-6 137c-2 16-7 31-14 45a290.5 290.5 0 0 1-75 101c-18 17-40 27-63 34-9 3-18 4-26 5l-23 4a135 135 0 0 1-47-1l-22-4a165.9 165.9 0 0 1-79-37 270.7 270.7 0 0 1-92-153c-2.7-19.9-5.1-40-7-60l-1-19v-13"/>
    <path fill="#FFF" d="M320.4 538h1l5-1 1-1v-1h-1l-5 2-1 1m16 0 3-1v-1l-5-1h-1c0 2 1 3 3 3m19-77 5 1 1-1-1-3-10-29-2-5h-1l-2 5a211 211 0 0 1-11 30l1 2h20m-26 118c3 0 5 0 8-2l4-2c3-3 6-6 7-10v-1h-1c-4 1-7-3-7-7v-2l1 1 2 3 2 1h3l2-2-1-7h-1l-6-1c-2-2-2-4-2-6v-1h1l1 2c1 2 3 3 5 1l1-1-5-7h-2l-2 3c-4 1-7-1-8-4l-1-2h-1l-1 3c-1 2-2 3-4 3s-4 0-6-2h-2l-5 7v1h5l2-2v-1l1-1v1c1 3 0 5-3 6-1 2-3 2-5 0h-2v6c-1 1 0 1 1 2h5c2 0 2-2 2-3l1-1v1l1 1c-1 5-4 7-9 6v-1l-1 1c1 6 5 11 10 14 3 2 6 3 10 3m136-170c9 0 17-2 24-5l8-5v-1h-10c-9 0-17-3-24-8l-22-20-4-5c-4-5-9-9-14-12a46.3 46.3 0 0 0-27-8l-1 1v2c1 6 0 13-3 19l-6 10c-7 9-12 18-16 28v1h1l12-5c6-2 12-4 18-4 8-1 15 0 22 2 7 1 13 4 19 6 8 2 16 4 23 4m48 21-1-20c0-10-1-19-3-28l-8-30c-5-21-13-40-23-59-5-9-11-17-15-26a150.7 150.7 0 0 0-34-41l-21-15-3-1h-2c-1 5-4 9-7 13-4 5-9 9-15 13l-23 13-35 11-30 8-17 8-11 8-5 7c-2 6 0 10 4 14l6 4 9 2h22l26-5 39-8 21-2 11 1c8 0 16 2 24 5 12 4 22 11 29 21 8 10 12 22 14 35l1 21v5l1 2 2 2 16 6h17l1 1-1 2a43 43 0 0 1-38 22c-4-1-4-1-4 3l-4 11c-3 6-8 12-13 16-8 7-17 12-26 15-12 4-25 5-38 4h-4l-1 1 1 3 12 27 11 28 2 6v3h-2l-3-6-15-29c-5-10-11-21-15-32l-4-2-21-1h-7l-3 2a431.9 431.9 0 0 1-30 62l-2 3-1 2-2 1v-2l1-3c0-2 1-5 3-7l5-15 15-36 2-5v-1h-4l-10 2c-12 3-22 8-31 15a53 53 0 0 0-15 63c8 19 22 31 42 38 6 2 13 2 20 1l11-4h1l-1-1-3 1h-3c-7-1-12-3-17-8l-3-5c-7-7-7-17-2-25l13-11 8-4c5-2 9-1 13 2l5 4 3 3c4 5 5 10 6 16l-2 13c-4 11-12 18-23 22-10 4-19 3-28 0-22-6-37-20-46-40a60 60 0 0 1 20-70c10-9 23-14 36-16l12-2 2-1 1-2 17-34 2-4-1-3-3-4-8-14-3-9-9-30-7-20-1-4 1-1 1 1 2 5a279.5 279.5 0 0 0 26 56l4 12h1l4-12 7-15a271.8 271.8 0 0 0 22-47l1 1-1 2-4 14-11 35-3 9c-2 6-5 12-10 18l-3 4v2l3 6 8 16 12 21h14l20-2c12-3 23-9 32-17 6-5 10-11 14-17l2-8-1-2-18-7c-7-4-14-6-22-7h-18c-8 2-16 4-23 8l-5 2c-2 1-3 0-3-2v-4c2-9 6-17 11-24l2-4c3-4 4-8 5-13l2-9c1-4 3-9 3-14 0-2 1-4 3-4l6-2c12 0 23 3 32 10l14 13 7 10c3.3 4 7 7.7 11 11l1-2a129 129 0 0 0-8-43c-6-11-15-21-27-27-10-5-20-7-31-8-12-1-23 0-34 2-11 1-21 4-31 6-13 3-26 6-40 7-7 1-14 0-21-2l-10-5c-6-5-8-11-6-18l4-9 11-10 17-8 30-8 33-9c10-3 20-8 29-13 6-4 12-9 16-14l8-11-1-2-11-5-36-13c-5-2-10-2-15 0l-12 4a266.3 266.3 0 0 0-43 19 1826 1826 0 0 0-31 24l-8 10c-4 4-7 8-9 13l-22 38c-8 15-15 30-19 46-5 19.6-9.6 39.3-14 59-1.2 22.7-.5 45.4 2 68 2 15 5 29 11 42a406.6 406.6 0 0 0 29 56c30.6 36 71.4 61.8 117 74h3l16-1a157 157 0 0 0 53-24c19-11 36-25 52-42 8-8 15-18 20-29l10-21c10-19 15-40 18-62l1-33m8-9c-.3 34.9-7.1 69.5-20 102l-11 24c-5 12-12 23-20 33l-12 14c-8 8-17 16-27 22a187 187 0 0 1-71 31l-19 1-10-2c-16-3-32-9-46-17l-25-14c-10-7-18-14-26-23-10-11.9-19-24.6-27-38-7-14-14-28-19-42-9.1-23-14.2-47.3-15-72-1-24.1.7-48.3 5-72l8-32c9-28 22-54 40-77l13-15 10-12 15-15 14-12 19-11a185.6 185.6 0 0 1 45-13h10a129 129 0 0 1 43 12l22 13a490 490 0 0 1 27 25l18 22a241.8 241.8 0 0 1 50 101l6 27 3 32v8"/>
    <path fill="#A7BFB9" d="m289.4 403 15 1 18 7 5 2c1 1 2 0 3-1v-4a74.5 74.5 0 0 0-14-29l-4-11-3-14-2-9v-2c0-2-1-4-3-4l-5-1h-12c-7 1-13 4-19 8-6 3-11 8-15 13l-7 9c-3 5-7 9-12 13-5 5-10 8-17 10l-2 1c-7 2-14 4-21 2h-2v3c7 12 22 21 36 22 7 0 13-1 19-4l12-5c9-5 20-7 30-7m224 27-1 33c-3 22-9 43-18 62l-10 21c-5 11-12 21-21 29-15 17-32 31-51 42l-7 4c-14 9-30 16-46 20l-16 1h-3c-20-4.2-39-12-56-23a279 279 0 0 1-61-51l-10-15c-7-14-14-27-19-41-6-13-9-27-11-42a293 293 0 0 1 31-173l21-38 10-13 8-9c16-11.7 32.4-23 49-34l24-10 13-4c5-2 10-2 15 0l36 13 12 7-8 11c-5 6-10 10-16 14-9 5-19 10-29 13l-33 9-30 8-17 8-11 10c-2 3-4 6-4 9-2 7 0 13 6 18 3 3 6 4 10 5 7 2 14 3 21 2 14-1 27-4 40-7 10-2 20-5 31-6 11-2 22-3 34-2 10 1 21 3 31 8a63 63 0 0 1 29 32 126 126 0 0 1 5 40l-1-1-10-10-7-9c-4-6-9-10-14-14-10-7-20-10-32-9l-6 1c-2 0-3 2-3 4 0 5-2 10-3 14l-2 9c-1 5-2 9-5 13l-2 4c-5 7-9 15-11 24v4c0 2 1 3 3 2l4-2c8-4 16-6 24-8h18c8 1 15 3 22 7 6 3 11 6 18 7l1 2-2 8c-4 6-8 12-14 17-9 9-20 14-32 17l-20 2h-14l-3-3-9-17-8-17-3-6v-2l3-4c5-5 8-12 10-18l3-9 11-34 4-15 1-2-1-1h-1l-1 2-1 4a268.8 268.8 0 0 1-26 56l-4 12h-1l-4-12-6-13c-8-14-15-28-20-43l-2-5-1-1-1 2 1 3 7 20 9 30 3 9 8 14 3 4 1 3-2 4-17 34-1 2-2 1-12 2c-13 2-26 7-36 16a58.9 58.9 0 0 0-20 70c9 20 24 34 45 40 10 3 19 4 29 0a35 35 0 0 0 25-35c-1-6-2-11-6-15l-3-4-5-4c-4-3-8-4-13-2l-8 4-13 11c-5 8-5 18 2 25l3 5c5 5 10 7 17 8h3l3-1v1c0 1 0 0 0 0l-11 4c-7 1-14 1-20-1-20-7-34-19-42-38-10-23-3-47 15-63 9-7 19-12 30-15l11-2h4v1l-2 5-15 36-6 15-3 12 2-1 1-1 2-4c11.7-21 22.7-42.3 33-64h7l21 1 4 2c4 11 10 22 15 32l15 29 3 6h2v-3l-2-6-11-28-12-27-1-3 1-1h4c13 1 26 0 38-4 9-3 18-8 26-15 5-4 10-10 13-16l4-11c0-4 0-4 4-3l12-2c11-3 20-10 26-20l1-2-1-1h-17a69.2 69.2 0 0 1-18-8l-1-2v-5l-1-21c-2-13-6-25-14-35-7-10-17-17-29-21-8-3-16-5-24-5h-11l-21 1-39 8-26 5h-22l-9-2-6-4c-4-4-6-8-4-14l5-7 11-8 17-8 30-8 35-11 23-13a54.8 54.8 0 0 0 22-26h2l3 1 20 15c5 2 8 6 12 10 9 9 16 19 23 31l15 27c10 18 18 37 23 58l8 30c2 9 3 19 3 28l1 20"/>
    <path fill="#A7BFB9" d="M465.4 409c-7 0-15-1-23-4-6-2-12-5-19-6a63 63 0 0 0-40 2l-12 5h-1v-1c4-10 9-19 16-28l6-10a38 38 0 0 0 3-21l1-1c4-1 7 0 11 1 6 1 11 4 16 7l14 12 4 5 22 20c7 5 15 8 24 8h10v1l-8 5c-7 3-15 5-24 5m-138 160v-1h-1v2l-2 1h-3c-1 1-3 0-3-2h-1c-1-1-1 0-1 1l1 3c2 1 4 3 7 2 2-1 3-3 3-6m10 6 1-1c2 0 5-3 4-6h-1l-2 2c-3 1-3 1-5-1l-1-1h-1v1c0 2 1 4 3 5l2 1m-7-12c3 0 6-4 5-7v-1h-1l-1 4h-5l-2-1v-2l-1-1-1 2 2 4 4 2m-1-13c3 0 5-1 6-3v-4c-1-1-1 0-1 1l-1 1-1 1c-2 0-4 1-6-1l-1-2-1 3c1 2 3 4 5 4m-10 26c-5-3-9-8-10-14l1-1v1c5 1 8-1 9-6l-1-1v-1l-1 1c0 1 0 3-2 3h-5c-1-1-2-1-1-2v-6h2c2 2 4 2 5 0 3-1 4-3 3-6v-1l-1 1v1l-2 2h-5v-1l5-7h2c2 2 4 2 6 2s3-1 4-3l1-3h1l1 2c1 3 4 5 8 4l2-3h2l5 7-1 1c-2 2-4 1-5-1l-1-2h-1v1c0 2 0 4 2 6l6 1h1l1 7-2 2h-3l-2-1-2-3-1-1v1c0 5 3 9 7 8h1v1c-1 4-4 8-6 10s-4 4-11 5-9-2-12-4Zm41-114 1-1-1-3-10-29-2-5h-1l-2 5a211 211 0 0 1-11 30l1 2 25 1Z"/>
    <path fill="#A7BFB9" d="M336.4 538c-2 0-3-1-3-3h1l5 1v1l-3 1m-16 0 1-1 5-2h1v1l-1 1-5 1h-1"/>
    <path fill="#FFF" d="M300.4 349v-4h-7c-8 1-16 4-23 9-6 4-12 10-17 16-6 7-13 14-21 20a45.3 45.3 0 0 1-34 8l3 3c9 6 19 8 30 8 8 0 17-2 25-5l15-5c12-3 23-3 35 0l18 7v1-2a96.8 96.8 0 0 0-17-31c-6-8-8-16-7-25m-11 54c-10 0-21 2-30 7l-12 5c-6 3-12 4-19 4-14-1-29-10-36-22v-3h2c7 2 14 0 21-2l2-1c7-2 12-5 17-10 7.3-6.5 13.7-13.9 19-22 4-5 9-10 15-13a48.6 48.6 0 0 1 31-8l5 1c2 0 3 2 3 4v2l2 9 3 14 4 11 3 5c5 7 9 15 11 24v4c-1 1-2 2-3 1l-5-2a63.5 63.5 0 0 0-33-8m41 147c-3 0-5-2-6-4l1-3 1 2c2 2 4 1 6 1l1-1 1-1c0-1 0-2 1-1v4c-1 2-3 3-5 3m0 13-4-2-2-4 1-2 1 1v2l2 1h5l1-4h1v1c1 3-2 7-5 7m7 12-2-1c-2-1-3-3-3-5v-1h1l1 1c2 2 2 2 5 1l2-2h1c1 3-2 6-4 6l-1 1m-10-6c0 3-1 5-3 6-3 1-5-1-7-2l-1-3c0-1 0-2 1-1h1c0 2 2 3 3 2h3l2-1v-2h1v1"/>
    <path fill="#A7BFB9" d="M300.4 349c-1 9 1 17 7 25l4 6a97.6 97.6 0 0 1 13 27v-1l-18-7c-12-3-23-3-35 0l-15 5c-8 3-17 5-25 5-11 0-21-2-30-8l-3-3h16c7-2 13-4 18-8 8-6 15-13 21-20 5-6 11-12 17-16a49.3 49.3 0 0 1 27-9h3v4"/>
    <path fill="#FFF" d="M441 509c0 .4-.3 6.8-.2 13.3-6.8.5-5.7-13.3-5.3-15 .2-1.4-4.4 1.7-6.6 3.8.7 1.3 1.7 1 2.9.5-.5 6.2 3.9 11.8 9 11.7.2 6.4.9 12.5 2.7 13 .2.1.5-6.5.6-13.7 12.2-3.8 7.5-18.3 7.5-18.3-.2-.8-2 .3-6 3.9 1.6 1.7 2.4.7 3.6.3 1 1.9 1.4 10.5-5.1 13.1l.3-18c0-.2-.2-.3-.4-.3-1.8.2-5 3.4-7.5 6.1 1.4 2.2 3 .2 4.5-.4m5.9 19.1 2.8 2.8 2.8-2.8-2.8-2.8-2.8 2.8Z"/>
  </g>
</symbol></svg>
