<svg xmlns='http://www.w3.org/2000/svg' viewBox='0 0 696 830' fill='none'><symbol id='VMOC_Fill'>
  <g fill="none">
    <path fill="#9BADFA" d="m591.6 427-1 34-2 24-3 24c-3 26-10 50-21 73a318.6 318.6 0 0 1-72 95 161.6 161.6 0 0 1-88 43c-20 3-40 5.7-60 8l-24-3-26-4a173.4 173.4 0 0 1-82-38 291.8 291.8 0 0 1-89-124c-4-13-8-27-9-41l-5-41a392 392 0 0 1 0-106c4-33 11-64 24-93l12-32c5-14 12-27 21-39 9-14 19-27 30-40 14-16 30-29 49-39l31-14 28-9 22-3 20 1h5l22-1a340.3 340.3 0 0 1 73 23 177 177 0 0 1 58 45 454.3 454.3 0 0 1 47 72l20 53a269.2 269.2 0 0 1 18 84l2 48"/>
    <path fill="#FFF" d="m126.6 433 1 34c1 8 1 15 3 22l7 34c9 36 26 69 51 98 12 15 27 29 42 42 19 16 40 27 64 33l27 6 16 2c12 1.1 24 .8 36-1a905 905 0 0 0 49-13c19-7 35-17 50-31l24-22a233.4 233.4 0 0 0 62-103l8-36c4-17 6-35 6-53a702.5 702.5 0 0 0-10-97c-3-15-7-29-12-43l-18-48c-5-13-12-25-19-37a604.5 604.5 0 0 0-39-50c-11-11-25-20-40-26l-22-7c-13-4-27-8-41-9-10-1-19-3-28-2l-14 1-30 6c-11 3-23 6-34 11a110 110 0 0 0-50 36c-10 12-20 25-29 39-9 13-16 26-21 41l-13 34-9 25c-9 27.1-14.1 55.4-15 84l-2 30m452-12-1 35-3 25-2 18a207.4 207.4 0 0 1-35 100c-11 18-24 34-39 49l-18 17a153.9 153.9 0 0 1-89 40 1054 1054 0 0 1-47 5l-23-3-26-4a161.5 161.5 0 0 1-76-36l-33-34a280.5 280.5 0 0 1-52-90l-6-30-4-33-3-28c-1-32.4.7-64.9 5-97 3-23 10-46 19-68l13-34c13.3-25.5 29-49.6 47-72 13-15 28-27 45-36 12-7 25-12 39-16l21-7 17-2 20 1h4l17-1 24 3c16 5 32 10 47 17 22.4 11 42.2 26.7 58 46 9 11 17 22 25 35 7 10 13 21 18 32l18 49a258.9 258.9 0 0 1 17 72l3 47"/>
    <path fill="#FFF" d="m407.6 356 1-1 6-11s0-1 0 0l-8 11 1 1m41-5h-1l-3-5-7-8h-1v1l8 13h3l1-1m-170 52v-1l-13-7 8 9c2 2 2 2 4 1l1-1v-1m206-98v-1l-3-7-1-1h-1l-5 2v1l10 6m-257 100h1l8-7 4-3v-1l-17 9 4 2m193-58 1-9h-1l-3 5-6 13v1h6l2-2 1-8m-223 72h12l-1-2-4-5-3-1-15 6-1 1 1 1h11m123 7h1l1-1-18-9-2 1-8 6v1h2l15 1 9 1m122-73-1-1-12-19v-1h-1v3l4 14 1 8 2 1 6-4 1-1m-117 13v-1l-5-8c0-2-1-2-2-1-4 6-10 10-16 14l-1 1v1h1l21-5 1-1h1m106-8-1-2-3-14-1-9-1-1-1 1-1 3-2 18v2l1 1 8 2 1-1m-25 1-2-1h-2l-1 2c-5 7-10 15-17 21l1 2 5 1c1 1 2 1 2-1l4-6 9-16 1-2m-181 48v-1l-3-2h-3l-12 5c-2 1-2 1-1 3l8 7 11-11v-1m19 15h2l2-1-2-1-3-1-7-4-6-5h-2c-4 2-7 5-10 9v1l26 2m56-7-1-1-14-8c-2.7-1.3-5.3-1-8 1v2l5 6 8 7h2l8-6v-1m190-6-1-1-4-3c-4-3-6-8-7-13l-2-4c-2-5-2-5-6-2l-2 2-1 2 2 2 11 18c3 4 2 3 6 1l3-1 1-1m-38-53v1l-2 1v4l11 19c4 4 2 4 8 2l1-1 1-2-6-9-11-13-2-2m-171 68h7v-1l-12-12-2-1h-1l-1 1-9 6-6 3-1 1h1l13 2 11 1m-28-20v3l1 12 8-5 6-5 3-1v-2l-9-9-7-7v-1l-1 1-1 2v12m123 10 1-1 9-18 2-3c0-2-2-2-3-2l-4-4h-2l-5 7-7 15 9 5v1m-126-10v-3l1-12-1-1-1 1-4 4-14 14v2l7 3 7 4 3 3 2 1v-16m-69 35 1 15 1 5c1 1 3-1 5-1l3-1v-3l1-7v-21c1-4 1-4-3-4l-6-1-2 1v17m229-48c2 1 2 0 2-1l4-21v-4l-3-2-4-2h-1l-1 2-10 18-2 5 5 3 10 2m32 2 5-1 13-5v-1l1-1-1-1-12-20-1-2-2-1-8 2c-2 0-2 0-2 2v2l5 23 1 2 1 1m-16 0h10c2 0 2 0 2-2l-6-24v-2l-1-1-12 2-1 5-3 19 1 2 10 1m-15 5-2-2-17-4-1 1-1 1-10 19-1 1 1 2h1c8 3 16 5 25 6l1-2 2-11 2-11m69 16-1-2-4-5-9-15c-2-1-2-2-3-1-5 3-11 4-16 4h-4l-1 2 4 14 2 10c1 2 1 2 3 1h1a127 127 0 0 0 27-8h1m-49 11 13-2h1l1-1-1-2-5-19c-2-7 0-6-7-4l-14 1h-4c-1-1-1 0-2 1v1l-2 14v9l20 2m-234 7-1 9v5l1 9c-1 2 0 2 1 2h11l14 1c1 1 1 0 1-1l2-8v-19l1-5-1-1-2-1c-7 1-14 0-21-1h-6c-1 0-2 0-1 1l1 9m306-40v-18l-1-1-2 1c-6 3-13 6-20 7l-1 1v1l1 2c6 6 9 14 14 21v3l-1 2-5 5c-2 1-2 2-2 4 0 12 0 24 2 36 0 8 1 15-1 23v6l1-1 15-18v-7c-.6-14.7-.2-29.4 1-44l-1-13v-10m-53-71-2 1-17 3-1 2 2 2 7 8 26 29 9 10 2 1c9.4-3.8 19-6.8 29-9l1-3-2-2-8-6-11-8-14-10-18-16-1-1-2-1m-213 102h-4c-3 0-3 0-3 4 1 5 1 10-1 15v6l1 10c0 2 0 2 2 3 10 2 20 6 29 10l7 3 1-1 2-15v-9c-1-4-2-9-1-13l1-8c0-2 0-2-2-2l-22-2-10-1m139 57v9l2 3 14 7 11 3 2-1v-14l-2-12-1-9 2-13 1-6 1-14c0-5 1-4-4-5a69.2 69.2 0 0 1-24-7l-1 1v31l1 12-2 15m-2-45v-12c0-3 0-3-3-2l-30 7-4 1c-1 0-2 0-2 2v8l-1 11v11c1 7 3 14 1 21 0 1 1 2 2 1h1l23-6 10-3c1 0 2-1 1-2v-14l2-23m109 3v-11l-1-6-1-1v1c-9.6 3.6-19.8 5-30 4l-2 2v12l2 13c3 7 3 13 1 20l-1 10c-2 6 0 13 0 19l1 1 3-2 21-9 7-2 1-2v-2l-1-11-1-15 1-21m-62-111-3 1-15 5c-10 3-21 6-32 6-7 1-15 3-22 6l-4 2c-6 2-13 4-19 4h-2l1 2 8 9c10 13 22 23 36 31l2-1 5-7 26-32 11-14c2-4.1 4.8-7.8 8-11v-1m-13 167v6c0 2 0 2 2 2l14 2h21c2 0 2-1 3-3v-13l-2-13-1-5v-14l1-5 1-8-1-16-1-1-16 1-18 2c-2 0-2 0-2 2v17l1 5c2 4 2 8 2 13l-2 14c-2 5-2 10-2 14m-79-58v-5l-2-2h-3l-22-1-12-2h-14l-1 1v4c1 7 1 13-1 18v10c1 4 2 9 1 14 0 4-1 3 4 5l3 1 23 3 14 1 10 2 1-2-1-5c-1-6 0-12 1-17l1-10c-2-5-2-10-2-15m6-11h2l21-4 12-3h1v-1l-1-2-7-6c-2-2-2-5 0-7l1-3 3-2-1-2-15-7c-9-5-17-10-23-18-1-1-2-2-3-1a491 491 0 0 1-55 11l-11 2h-1l1 1 22 11 38 23 13 7 3 1m180 5-2-25c0-11-2-21-5-32l-1-2h-2v8l2 17c1 6 2 12 0 19v17l2 25v5l-1 4-3 3-13 17-12 9-7 4-15 6c-7 1.2-14 2.6-21 4h-25l-12-3-23-10c-3-2-3-2-4-7v-11c0-1-1-2-2-1l-16 6-12 3-4 1v1h2c7 3 13 7 19 12l13 14c7 6 13 13 21 18 10 7 22 12 34 14 15.6 1.9 31.5 1.6 47-1l11-4c2 0 3-1 4-3l1-2 11-27c5-13 8-26 10-39s2-26 3-40m-38-139-1-3-12-22c-9.1-15.7-21-29.5-35-41l-13-9-29-16-32-11c-5-2-10-2-16 0l-15 6c-17 5-34 13-48 23l-1 1c-15 10-17 12-29 26l-10 14-20 36-10 20-1 3 1 1 3-2 28-20c3-2 5-2 8-1l19 10 4 2h3l10-8 11-9c8-6 16-11 25-14l3-2 18-16 10-8c4-3 5-3 9-1l1 1 7 6 19 19c4 3 6 6 8 10l3 5 3 4 2 1 1-1c10-6.8 19.4-14.5 28-23 2-2 4-2 6-1l5 3 5 5 7 6c4 5 9 8 15 11 5 1 5 1 8-2l2-2v-1m-295 119v1c0 2 0 3 2 2l12-7 48-21 9-4 21-4 4-2c15.7-8.7 31-18.1 46-28l13-3 14-3 22-6c10-3 19-6 29-7l46-9 5 1 3 2 16 10c6 4 11 8 15 13l16 14h1v-1a691 691 0 0 0-13-40l-4-4-11-10c-3-3-6-5-10-6l-4-1c-7-1-12-4-16-10l-6-7-6-6c-2-2-3-2-5 0l-5 7-7 9c-4 5-9 9-15 11l-6 4-9 6c-5 4-11 6-17 8v-1l1-1c5-2 9-6 14-10l7-6 3-2 1-2-6-10c-1-2-3-5-6-6l-5-3c-6-3-11-7-14-12l-3-5-4-6-4-4h-3l-6 6-14 16c-2 4-5 7-9 9-4 3-8 6-10 10l-7 10-4 6-6 5h-2c-1-1 1-1 1-1l5-6 14-23-1-1-8 5c-5 3-9 7-13 12-5 7-10 12-18 15l-8 7-5 7-7 6-5 3h-1l2-2 7-10 10-12v-2c-5-1-9-3-13-6l-9-6c-3-2-4-2-7 0l-2 2-4 4c-5 6-11 10-17 14l-7 4c-4 2-6 4-7 7l-2 7-11 39c-3 11-5 23-5 34m14 51h-4l-7 2c-2 0-2 0-2 2l1 6c1 12 4 25 9 37 8.5 20.9 18.9 41 31 60a222.4 222.4 0 0 0 79 61l20 8 18 5h3c5 1 11 0 16-1 15-4 29-9 42-17l26-16c16-11 30-24 43-39l14-21v-1h-1l-18 5a168.7 168.7 0 0 1-46 0c-12-2-23-8-33-15l-19-20-12-13c-6-7-14-11-23-12l-15-1-16-1c-11 0-21-1-31-5l-20-8-23-10c-10-3-21-5-32-6m326-40a286 286 0 0 1-20 103l-12 27-16 25-16 19c-7 7-14 14-22 19l-38 22c-12 5-24 9-37 11-8 2-15 2-23 1-15-3-30-7-43-14-12-5-22-11-33-18a140.8 140.8 0 0 1-38-37c-7-9-14-20-19-31l-16-36c-9.1-23-14.1-47.3-15-72v-26c-1-17 2-34 6-50l8-30c9-27 22-52 40-75l12-14 8-10c7-9 16-17 25-25 10-8 20-14 31-18l24-8c5-2 10-2 16-3 5-1 10 0 15 1 16 3 30 8 44 15 5 3 11 6 15 10 9.3 7.7 18.3 15.7 27 24l14 17a246.7 246.7 0 0 1 54 106l5 23c3 12 4 24 4 37v7"/>
    <path fill="#9BADFA" d="M349.6 617h7l11-2 1-1-1-1h-2l-14-2c-9-1-18-3-26-7l-11-7c-10-7-19-15-27-24l-14-13c-3-4-7-8-12-10-4-3-8-6-13-7l-8-1-1 1h1l11 4 12 8 11 12 19 21c7 7 14 14 22 19 11 7 21 10 34 10m-123-120c7-1 14 1 20 4 9 4 17 9 24 16l16 15a172.4 172.4 0 0 0 65 43c15 5 34 6 29 5-19-3-36-11-51-22-11-8-21-17-30-26l-22-19c-9-6-18-12-29-16l-21-3-12 3-3 1h2c4-1 8-2 12-1m-31-35c12 0 22 2 33 5l23 10 20 8c10 4 20 5 31 5l16 1 15 1c9 1 17 5 23 12l12 13 19 20c11.8 10 26.5 16 42 17 12 0 25 0 37-2l18-5s2-1 0 1c-1 2-8 15-14 21a223.7 223.7 0 0 1-68 55c-14 8-28 13-42 17a58.5 58.5 0 0 1-20 1l-17-5-20-8a220.4 220.4 0 0 1-88-75c-8-15-16-30-22-46-5-12-8-25-9-37l-1-6c0-2 0-2 2-2 2-1 5-2 7-1h3m-13-52c0-11 2-22 5-34l13-46c1-3 3-5 6-7l8-4c6-4 12-8 17-14l4-4 2-2c3-2 4-2 7 0l9 6 12 6 1 2-10 12-7 10-2 2c0 1 1 2 6-3l6-6 6-7c2-3 5-5 8-6 8-4 13-9 18-16 4-4 8-9 13-12l8-4h1l-14 23-6 7h2l6-5 4-6 7-9c2-5 6-8 10-11 4-2 7-5 9-9l14-16 6-6h3l4 4 4 6 3 5c3 5 8 10 13 12l6 3 6 6 6 10-1 2-3 2-8 6-13 11-1 1c6-2 12-4 17-8l9-6 6-4c6-2 11-6 15-11l7-9 5-7c2-2 3-2 5 0l6 7 6 7c4 5 9 8 16 9l4 1c4 1 7 3 9 6l12 10 4 4c5.3 13.3 9.3 27 12 41-6-4-11-8-16-14-4-5-9-9-15-13l-16-10-3-2-5-1-46 9c-10 1-19 4-29 7l-22 6-14 3-13 4-6 2c-14.3 9.5-29 18.5-44 27l-21 4-9 4-48 21-12 7c-2 1-2 0-2-1v-2"/>
    <path fill="#9BADFA" d="m477.6 292-2 2c-4 3-3 3-8 2-6-3-11-6-15-11l-7-6-5-5-5-3c-2-1-4-1-6 1l-3 3-25 20-2 1-1-1-3-4-3-5c-2-4-4-7-8-10l-19-18-7-7-2-1c-3-2-4-2-8 1l-10 8-18 16-3 2c-9 3-17 8-25 14l-11 9-10 8h-3l-4-2-20-9c-2-2-4-2-7 0l-13 8-16 12-2 2h-1v-1l1-3 10-20 20-36 10-14c12-14 14-15 29-26l1-1c14-10 31-18 48-23l15-6c6-2 11-2 16 0l32 11 29 16 13 9 12 11c8 9 16 19 23 30l12 23s2 2 1 3m38 138c-1 14-1 27-3 40s-5 26-10 39l-11 27-1 2c-1 2-2 3-4 3l-12 4-13 2c-11 1-22 1-33-1-12-2-24-7-34-14-8-5-14-12-21-18l-13-14a62.7 62.7 0 0 0-21-12v-1l4-1 12-3 16-6c1-1 2 0 2 1v12c0 4 0 4 4 6l23 10 12 3h25l10-2 11-2 15-6 7-4 12-9 13-17 3-3 1-4v-5l-2-24v-18c2-7 1-13 0-19l-2-17v-8h2l1 2c3 11 5 21 5 32l2 25m-180-5-4-1-12-7-38-23c-7.1-4.4-14.4-8.4-22-12l11-2c19.5-2.4 38.8-5.8 58-10 6 8 14 13 23 18l15 7 1 2-3 2-1 3c-2 2-2 5 0 7l7 6 1 2v1h-1l-12 3-21 4h-2m-27 29c0-3-2-5-4-5-3 0-5 2-5 5 0 2 2 5 5 4 2 0 4-2 4-4m21-18c0 5 0 10 2 15l-1 10c-1 5-2 11-1 17l1 5-1 2-10-2-14-1-23-3-3-1c-5-2-4-1-4-5 1-5 0-10-1-14v-9c2-6 2-12 1-19v-4c-1-1 0-1 1-1h14l12 2 22 1h3l2 2v5"/>
    <path fill="#9BADFA" d="M408.6 494c0-4 0-9 2-14l2-14c0-5 0-9-2-13l-1-5v-17l1-2 19-2 16-1 1 1 1 16-1 8-1 5v14l1 5 2 13-1 13c0 2 0 3-2 3h-21l-14-2c-2 0-2 0-2-2v-6m13-166c1-1 0 0 0 0l-1 2c-3 2-5 5-7 9l-11 14-26 32-5 7c-1 2-1 2-2 1-14-8-26-18-36-31l-8-9-1-2h2c6 0 13-2 19-4l4-2c7-3 15-5 22-6 11 0 22-3 32-6l15-5h3m62 110-1 21 1 15 1 11v2l-1 2-7 2-21 9-3 2-1-1c0-6-2-13-1-19l2-10c2-7 2-13-1-20l-2-13v-12l2-2h2c9.6.4 19-1.3 28-5l1 1 1 6v11m-109-3-2 23v14c1 1 0 2-1 2l-10 3c-8.1 1.4-16.2 3.4-24 6-1 1-2 0-2-1 2-7 0-14-1-21v-11l1-11v-8c0-2 1-2 2-2l4-1 30-7c3-1 3-1 3 2v12m2 45 2-15-1-12v-31l1-1h1c7 4 15 6 23 7 4 1 4 0 4 5-.8 6.7-1.4 13.3-2 20l-2 13 1 9 2 12v14l-2 1-11-4-14-6-2-3v-9m-124-34c0-2-2-3-4-3l-2 3c0 2 1 3 3 3l3-3m-5-22 22 2c2 0 2 0 2 2l-1 8c-1 4 0 9 1 13v9l-2 15-1 1-7-3c-9-4-19-8-29-10-2-1-2-1-2-3l-1-10v-6c2-5 2-10 1-15 0-4 0-4 3-4h4l10 1m205-102 1 1 18 16 14 10 11 8 8 6 2 2-1 3-3 1c-9 2-18 4-26 8l-3-1-8-10-26-29-7-8-2-2 1-2 17-3h4"/>
    <path fill="#9BADFA" d="m503.6 402 1 13v8c-1 12-2 24-1 36v7a931.2 931.2 0 0 1-16 18v-5c2-8 1-15 0-23l-1-36c0-2 0-3 2-4l5-5 1-2v-3c-5-7-8-15-14-21l-1-2v-1l1-1c7-1 14-4 20-7l2-1 1 1v28m-294 42 2-2-2-2-2 2 2 2m-12-11-1-10c-1-1 0-1 1-1h6a99 99 0 0 0 23 2l1 1-1 5v19l-2 8c0 1 0 2-1 1l-14-1h-11c-1 0-2 0-1-2l-1-9v-5l1-8m214-10-1-2 1-7 2-14v-1l2-2 4 1 14-1c7-2 5-3 7 4l5 19 1 2-1 1h-1c-10 2-27 1-33 0m68-9-1 1c-8 3-17 6-26 7h-1c-2 1-2 1-3-1l-2-10-4-14 1-2h4c5 0 11-1 16-4 1-1 1 0 3 1l9 15 4 5v2m-68-16-2 11-2 11-1 2c-9-1-17-3-25-6h-1l-1-2 1-1 10-19 1-1 1-1 17 4 2 2m5-6-1-2 3-19 1-5 1-2 12 1v2l6 24c0 2 0 2-2 2h-10l-10-1m25 0-1-2-5-23v-2c0-2 0-2 2-2l8-2 2 1 1 2 12 20 1 1-1 1v1l-13 5h-6m-31 0-10-3-5-3 2-5 10-18 1-2h1l4 2c1 1 3 0 3 2 1 1-3 18-4 25 0 1 0 2-2 1m-229 48v-17l2-1 6 1c4 0 3 0 3 4v21l-1 10-3 1-5 1-1-5-1-15m69-21c0 3-1 2-2 1l-3-3-7-4-7-3v-2l14-14 4-4 1 13v16m126-4c-2 0-9-5-9-8l7-13 5-6 2-1c1 1 7 4 7 6l-2 3c-3 6-8 18-10 19m-123-22 1-2h1l7 7 9 9v2l-3 1-6 5-8 5h-1v-27m17 31-13-2v-1l6-3 9-6 1-1h1l2 1 12 13-18-1m184-65 11 13 6 9-1 2-1 1c-6 2-4 2-8-2l-11-19v-4l2-1c0-1 1-1 2 1"/>
    <path fill="#9BADFA" d="m489.6 410-3 1c-4 2-3 3-6-1l-11-18-2-2 1-2 2-2c4-3 4-3 6 2l2 4c1 6 3 10 7 13l4 3c1 0 2 1 0 2m-189 6-10 6-8-7-5-6v-2c2.7-2 5.3-2.3 8-1l14 8c1 0 2 1 1 2m-56 6-26-2v-1c3-4 6-7 10-9h2l6 5 7 4 3 1 2 1-4 1m-19-14-11 11-2-1-5-9 12-5h3l3 2v2m180-47-9 16-4 6c0 2-1 2-2 1l-5-1-1-2c7-6 12-14 17-21l1-2h2s2 1 1 3m26-3-1 1-8-2-1-1v-2l5-21 1 9 3 14 1 2m-106 8h-1l-1 1-22 4 1-1c6-4 12-8 16-14 1-1 2-1 2 1l5 8v1m116-12-6 4-2-1-1-8-4-14v-3h1v1l12 19v2m-121 72-9-1-15-1h-2v-1l8-6 2-1 18 9-1 1h-1m-123-7h-11v-2l15-6 3 1 4 5 1 2h-12m223-72-1 8-2 2h-6v-1l6-13 3-5h1l-1 9m-193 58-4-3h1l16-7-4 3-8 7h-1m257-100-10-7 5-2h1l1 1 3 8m-206 99-1 1c-2 1-2 1-4-1l-8-9s-1-1 0 0l13 7v2m169-52h-3l-7-14 7 8 3 5v1m-41 3v-1a389 389 0 0 1 8-10l-6 11h-2"/>
    <path fill="#FFF" d="M226.6 497c-4-1-8 0-12 1h-2l3-1 12-3 21 3c11 4 20 10 29 16l22 19c9 9 19 18 30 26 15 11 32 19 51 22l9 3a136.5 136.5 0 0 1-70-24c-12-8-23-17-33-27l-16-15c-7-7-15-12-24-16-6-3-13-5-20-4m123 120c-13 1-23-3-34-10-8-5-15-12-22-19l-19-21-11-12-12-8-11-4h-1 9c5 1 9 4 13 7 5 2 9 6 12 10l14 13c11.2 12 24 22.4 38 31 8 4 17 6 26 7l14 2h2l1 1-1 1-11 2h-7m-41-163c0 2-2 4-4 4-3 1-5-2-5-4 0-3 2-5 5-5 2 0 4 2 4 5m-56-8-3 3c-2 0-3-1-3-3l2-3c2 0 4 1 4 3m-43-2-2-2 2-2 2 2-2 2m205 128.2c0 .4-.2 6.8-.1 13.3-6.8.5-5.7-13.3-5.3-15 .2-1.4-4.4 1.7-6.6 3.8.7 1.3 1.7 1 2.9.5-.5 6.2 3.9 11.8 9 11.7.2 6.4.9 12.5 2.7 13 .2.1.5-6.5.6-13.7 12.2-3.8 7.5-18.3 7.5-18.3-.2-.8-2 .3-6 3.9 1.6 1.7 2.4.7 3.6.3 1 1.9 1.4 10.5-5.1 13.1l.3-18c0-.2-.2-.3-.4-.3-1.8.2-5 3.4-7.5 6.1 1.4 2.2 3 .2 4.5-.4m5.9 19.1 2.8 2.8 2.8-2.8-2.8-2.8-2.8 2.8Z"/>
  </g>
</symbol></svg>
