<svg xmlns='http://www.w3.org/2000/svg' viewBox='0 0 696 830' fill='none'><symbol id='VTHC_Fill'>
  <g fill="none">
    <path fill="#9BADFA" d="m589.8 428-1 29-3 25-1 18a231.6 231.6 0 0 1-26 89 328.4 328.4 0 0 1-72 90 172.5 172.5 0 0 1-84 40l-31 5a149.8 149.8 0 0 1-53-1l-26-4c-31.6-5.5-61-19.7-85-41a525.2 525.2 0 0 1-48-52 322.5 322.5 0 0 1-42-88c-3-9-4-19-5-29l-3-24-3-29c-4.4-59.4 3.8-119 24-175l16-40 15-30 34-44c18.4-22 42.2-38.9 69-49l36-12c9-3 17-4 26-4l19 1h4l18-1c9 0 17 1 25 3 18 6 36 12 53 20 17 9 33 20 47 34l16 18 23 32c7 11 13 22 18 34l19 48a291 291 0 0 1 19 94l1 13 1 30"/>
    <path fill="#FFF" d="m570.8 439-2-34-4-35-4-25c-4-16-8-31-14-46l-16-41c-5-14-12-27-20-39a697 697 0 0 0-43-54 102.2 102.2 0 0 0-38-22l-31-10a166.1 166.1 0 0 0-37-6l-13-1h-3l-14 1-16 2-24 6-31 10c-8 3-15 7-22 12-10 7-19 16-27 25l-27 38c-8 12-14 25-20 38l-14 37-8 23a265.3 265.3 0 0 0-14 70l-2 25-1 20c-1.5 23.9.9 47.9 7 71l8 32a224.7 224.7 0 0 0 51 89l29 28c16.5 17 36.7 30 59 38l23 6 31 5 16 1h8l12-2 28-5a150.1 150.1 0 0 0 76-41 1165 1165 0 0 0 38-39 266.2 266.2 0 0 0 59-174v-3m5-18v25l-2 24-2 17-5 37c-3 15-8 28-14 42a295 295 0 0 1-47 71l-24 24c-21 20-46 32-73 38l-26 5-16 3h-30c-11 0-21-3-32-4-9-2-18-3-26-6-23-7-44-17-61-34a282.7 282.7 0 0 1-82-117c-4-10-6-21-8-32l-4-32-3-26c-.9-16.7-.9-33.3 0-50l2-28 3-25c4-25 11-48 20-70l12-31c13.3-25.5 29-49.6 47-72a155 155 0 0 1 62-43c13-6 26-10 40-14l21-3 18 1h5l23-1 17 3 43 16c24.4 10.9 46 27.4 63 48l24 33c7 11 13 22 18 34l17 44c9.9 25.3 16 51.9 18 79l2 44"/>
    <path fill="#FFF" d="m504.8 366-1-1-3 2v1l4-1v-1m-1-4h-1l-2 2v1l3-2v-1m-4-6-1 2h1l2-4-1-2-1 1v3m5 16c1 0 2 0 1-1l-1-1-5 1 5 1m5 14-1-7c-1-1-1-2-3-2l-2-1 1 3 3 5 1 2h1m-11-40v-3c-3-9.3-6.7-18.3-11-27l1 4c4 11 7 23 8 35v1l1-1 1-9m14 64-1-8c0-3-2-5-1-8l-1-2-10-13h-1l4 11 2 2 1 3 1 3 4 13 1 1h1v-2m-166 231 12-1c16-4 32-11 46-20l12-7c19-12 36-26 50-43 6-6 11-12 14-19l15-30 2-6v-5c-1-5-4-10-9-13l-7-6-3-3h-7l-2 1c1.2 6.6 2.2 13.3 3 20v2h-1l-1-1-2-4c-2-3-2-7-3-11l-2-10c-2-7-7-12-13-14l-4-2c-5-2-10-5-13-9l-5-6-2-3h-3l-1 1c-4 3-8 7-10 12s-5 9-10 13l-3 2-5 6-1 2 5 12c0 2 2 3 3 5l2 3v1h-2l-3-4-5-7-6-8-4-4-6-6h-2l-4 5c-3 4-7 8-12 10l-4 1-12 9-2 2-2 1h-1v-2l1-1 10-10 14-12 9-7c3-2 4-2 8 0l8 6 2-1 4-7v-2c-2-4-4-8-9-11l-4-2c-7-4-13-10-17-17l-5-8h-3l-2 2c-6 7-13 13-22 18-3 1-5 3-7 6l-4 6c-3 4-5 8-9 11a207.7 207.7 0 0 1-22 22h-1v-2l4-6c5-4 8-8 11-14l7-11 1-1v-1h-1l-1 1-8 6c-4 5-9 10-15 13l-5 4-8 9c-3 7-9 13-14 19l-2 1h-1v-1l2-4c3-5 7-10 9-16l4-8v-2c-7-1-12-5-18-8l-1-2c-2-1-4-1-5 1-8 5-16 10-23 17a49 49 0 0 1-21 13l-7 4c-4 2-4 1-2 6a494.8 494.8 0 0 0 28 51c20.8 24.9 46.7 45 76 59 7 4 15 8 23 10l13 4 11 1m-166-212c-.1 19.1 1.5 38.2 5 57l5 17 1 2 2 1 15-12 14-8 7-4 10-7 6-4 8-1 5 2 22 8 4-3c3-2 5-4 6-7 3-5 7-9 13-12l7-4 16-10 14-10 10-7c4-3 8-2 11 2l1 1c5 6 10 11 17 16l13 14 6 6h3l5-5c4-5 9-10 15-14l2-1h5l2 3c5 5 10 10 17 13l4 2c4 2 7 5 9 8l6 8c1 2 2 2 4 2 6-2 11 0 15 3l10 11 5 7 1 1h1l1-3a324 324 0 0 0 10-74l-1-4-1-3c-1-1-2-2-1-3v-4l-5-13-3-3c-3 0-4-2-2-5v-2l-5-13h-1v10l2 21c.8 7.7 2.2 15.4 4 23 0 1 0 2 2 3h1a3.5 3.5 0 0 1 0 5 3.5 3.5 0 0 1-5 0c-1-1-2-2-1-3v-6l-2-15-1-12-1-15-1-6-1 6-7 33v7c1 2 0 4-1 5-2 1-4 1-5-1v-5l1-1c1 0 2-1 2-3l9-41v-2l-1 1-15 24-1 3-2 2-2 2-13 20c-1 2-3 4-3 7v1l-4 1v-4l1-1 3-4 14-21v-3c0-2 0-3 2-3l3-3 15-22 1-1v-1l-11 10-2 4-5 3-14 14c-1 2-3 4-3 7v1c-1 1-3 2-5 1-1-1-2-2-1-4l2-2c3 0 4-2 6-3l10-11 4-5 2-4 4-2 11-10v-1h-1l-14 6c-11 5-23 8-34 12-2 0-4 1-4 3l-1 1h-5c-2-2-2-4 0-5 1-2 3-2 4-1h4l27-8c7.9-2.8 15.6-6.1 23-10h-2l-24 6c-2 0-3 0-4 2 0 2-2 2-4 1l-4-1-16 4-6 3a3.2 3.2 0 0 1-4.5.5 3.2 3.2 0 0 1-.5-4.5c1-2 3-2 4-2l5 1 7-2 11-2 5-2h5l14-4h1-3l-24-3-20-3c-2 0-4-1-6 1-2 1-4 1-5-1v-6c2-1 4-1 6 1l1 1 2 1 2 1 25 4c9 2 18 2 27 2h2v-1l-3-1-10-2-17-6h-4c-1 0-2 0-3-2l-2-2-23-8c-2-1-4-2-7 0-2 1-5 0-5-3-1-2 0-4 2-5 1-1 4 0 5 1l5 4c20.6 7.5 41.3 14.9 62 22l9 1h1-1l-1-1-12-6a107.3 107.3 0 0 1-25-20c-1-1-2-2-3-1h-2c-2 0-3-1-4-3 0-3 1-5 3-6 2 0 4 0 5 2l1 3 1 3 15 13 21 13 3 1h1v-1c-4.7-6.5-10-12.6-16-18-1-1-2-2-4-1h-2c-2 0-3-2-2-3l-2-4-15-9c-1-1-3-2-5 0-1 1-3 0-4-1-2-2-2-4-1-5 1-2 3-3 5-2l2 2c1 2 1 3 3 3 6 2 12 6 17 10l5 3 4 4 5 5 11 13 1 1v-1c0-5-1-11-3-16l-1-2c-1 0-2-1-1-2v-3l-1-3-3-2c-2 0-3-2-2-3v-3l-11-15c-1-1-3-3-5-1-2 0-3-2-4-3-.8-1.7-.2-3.7 1.5-4.5 1.7-.8 3.7-.2 4.5 1.5l1 1 2 4c8 7 14 16 18 25l1 2 1 1v-1l-1-3-5-17-3-6c-2-1-2-4-1-5l2-1v-2l-6-13-15-27a145 145 0 0 0-38-43l-14-10c-5-4-11-7-16-9l-16-7-23-8c-6-2-12-2-18 0l-12 4-27 11c-8 3-14 8-21 12l-1 3v1c-1 2-2 4-5 3h-4l-10 8v1l1 1 19 1c2 0 4 0 5-2l1-1c2-1 4 0 5 2 1 1 1 4-1 5h-4l-6-1-15-2h-7l-2 1-9 11 2 1c2 1 4 2 7 1 2-1 4 0 5 2s0 5-2 5c-2 1-5 1-6-1v-2l-1-1c-2-1-4-3-7-3l-4 5v2l15 4 2-1 1-1h5c2 2 2 4 0 6h-5l-1-1-2-1-16-4c-1 0-2 0-3 2l-6 14 9 6c2 1 3 2 5 0h1c1-1 2 0 3 1v3c-1 2-3 3-5 1l-3-3-10-6c-2-1-2-2-4 2v3l4 2c2 1 2 3 2 5l-4 3c-3-1-4-2-4-5l1-1v-1l-1-1h-1l-8 14v3l2 9c1 2 1 5 3 6v3l-3 1c-1 0-2-2-1-3l-1-7-2-6h-1v1c-6 11-10 22-14 33l-10 36-5 30-1 26m-8-10 1-23 4-26 6-24a229.8 229.8 0 0 1 48-93c12.5-13.8 25.1-27.5 38-41l18-13 4-2c16.5-7.9 34-13.2 52-16h8c18 2 33 8 49 15l18 12c8.4 6.9 16.4 14.3 24 22l17 20c25.4 29.7 43.2 65 52 103l6 28 2 15c3.7 44-3.2 88.2-20 129l-10 22c-6 11-12 22-21 32l-13 15c-6 7-12 13-20 18-12 8-26 16-40 22-11 6-23 9-35 12l-21 1-11-2c-13-3-25-7-37-13l-29-17c-10-7-20-15-29-25-9.6-11-18.3-22.7-26-35l-19-43c-8.9-22-13.9-45.3-15-69l-1-24"/>
    <path fill="#9BADFA" d="M352.8 259v11h-1l-2-5-2-8-6-17c-1-2-2-3 0-5l-2-3-4 1 1 4h1l2 3 3 9 7 20v1l-1-1-10-15-9-11c-2-2-4-4-4-6-1-2-3-2-4-1-2 1-1 4 1 4s4 2 5 4l4 4 15 20 3 5 1 2-1-1-6-4c-2-1-3-2-3-4l-2-2c-2 1-3 0-4-1l-5-3c-2-2-5-3-6-6l-1-1-2 1 1 3c3 0 5 2 7 4l5 3 3 3 2 2h2l6 5v1l-11-4-2-2-2-2c-2 1-3 0-4-1l-6-3c-2 0-2-1-3-2 0-2-1-2-3-2l-4-2v-2h-2l-1 1 1 2h1l4 4c0 1 1 2 3 2h2l8 5 3 2 4 1 11 6v1h-2l-23 3c-2 0-3 0-4-2h-5l-1 3c1 2 3 4 5 2s5-2 7-2l9-1 11-2h2v1c-4 1-7 3-11 3l-2 1-4 2-3 1-3 1-11 3h-6c-2 0-3 1-3 3-1 1 0 2 2 3l2-1 6-3 6-2 6-2 6-2v-1h4l3-2 12-4h1v1l-22 16-8 6c-2 2-3 3-6 3l-2 2 1 2c1 2 3 1 4 0l4-5 19-16h2l-8 10-1 2-3 6c0 2-1 4-3 4-2 1-2 3-1 4 0 1 2 2 3 1 2 0 2-1 2-3v-1l-1-2 4-7c1-1 2-1 2-3l1-1c3-6 8-11 13-16h1l-1 3-7 17-3 4v4l-2 7c0 2-1 4-3 5v4l3 1c1 0 2-1 2-3v-6l1-6c1-1 1-3 3-3v-7l7-17 1-2 1 1-2 13-1 2v2c1 3 0 5-2 7v3l1 2c0 2 0 5-2 6l-1 1c-1 1 0 3 1 4l4-1v-9l1-4-1-4 1-5v-5l1-5v-4h1l4 21v6l2 3 2 4v3l-1 1 2 3h4c1-1 2-2 1-3 0-2-1-3-2-3-3 0-3-1-3-3l-1-3v-5l-3-4-2-13-1-6c2 1 2 4 3 6l1 2v2c-1 2 0 3 1 4 3 1 4 3 3 6 0 2 0 3 2 4l3 3 7 14c2 2 4 5 4 8l2 2 2-2-1-2-3-4-5-8-5-10v-3c0-2-1-3-2-3l-3-3-1-5-1-1c-2-1-2-4-3-6l-1-4 3 3 5 6 11 10c2 2 3 3 3 5v1c1 1 3 2 4 1l2-3c0-2-1-3-3-3l-4-2-8-7-2-2-1-1-1-1h1l18 9 9 3 3-1v-3l-3-1-1 1-4 1c-4-1-9-3-13-6l-1-1c-1-2-1-2-3-2h-1c-2 0-3-1-4-3l-2-2h-2l-8-9v-1h2l14 5 6 1h2l4 1 13-1 5 1c1 1 2 0 3-1l1-3-4-2-2 2c0 1-1 2-3 1h-13l-3-1c-1-2-2-2-4-1l-4 1-14-4-2-1-1-1h1l6-1c9-1 18 0 27 2 2 1 4 1 5 3h5l1-3c-1-2-3-4-5-2l-4 1c-9.2-1.9-18.6-2.9-28-3l-6 1h-1l1-1 2-1 12-4 8-2 8-1 8-2 16-3 5 1h2l3-3c0-2-1-3-2-3h-4l-31 8-5 1-15 4-1 1h-1v-1l10-6 26-10c2-1 3-2 6-1 2 0 3-1 3-2 1-2 0-3-2-4l-3 1-1 1c0 2-1 2-3 3l-4 1-22 10-5 3h-1v-1l4-4c2-1 3-4 6-4l1-2 3-3 6-6c2-2 4-5 7-5 1 0 2-2 1-3l-1-2c-2 0-3 1-3 2l-2 3-11 11h-2c-2 0-2 1-2 3l-2 3-13 13-1 1v-1l5-8 17-20c2-2 3-5 6-5 2 0 2-3 1-4l-2-1c-2 0-3 1-2 3l-2 4c-8 8.4-15.4 17.5-22 27l-3 3 1-4 1-6 2-4v-3l3-15 3-6v-3c-2-1-3-1-4 1v6l-3 13c0 2 0 4-2 6v1c1 4-1 7-2 10l-1 4v-22l2-4-1-5v-16l1-6-1-3h-2l-1 2 1 8v14l-1 6v14m-115 141h8v1l-15 4h-5l-1-1-3 2 1 4h4l1-1 2-2 3-1c8-2 17-4 25-8h1v1l-6 5-2 1c-2 0-2 1-3 2-2 2-3 4-7 4-1 0-2 0-2 2l-3 3-14 10c-2 1-5 3-8 3l-1 2 1 2h3c1-3 3-4 6-6l14-9 4-2c2 1 3 0 3-2l1-2c1-1 3-3 5-3 2 1 2 0 3-1l1-3 6-5h1v1l-13 15-2 1-2 2-2 4-2 2c-1 1-2 2-3 1h-1l-4 2 2 5 5-2v-1l2-4 3-3 3-1c2 0 2-1 2-3l1-3 12-15h1s0-1 0 0v1l-2 5-3 5-1 6-1 2-2 3c0 3-1 6-4 8v3c0 2 2 2 3 2 1-1 3-2 2-4v-6l2-2c1-1 2-2 1-3-1-2 0-4 2-6l1-3 1-3 3-10 1-1 1-1v1l-2 19c0 1 0 3-2 4l-1 3c2 1 1 3 1 5l-1 4c-1 2-1 5-4 6-1 2 0 4 1 4h4l1-3c-2-2-1-3-1-5l2-7c0-1 0-3 2-4v-14l1-12v-1h1l5 19-1 4 1 2v4c0 3 1 5-2 7v4h4c1-1 2-2 1-4l-2-2 1-9v-2l-1-4-2-11v-1l1 1 1 3 8 18 2 4c1 2 2 4 1 6v1l3 2 3-2-1-3h-1c-2 0-2-2-3-3l-7-16-9-19v-2 1l8 8 3 4 1 1 4 4 1 1 3 3 8 9c1 1 3 2 3 4v1c1 1 2 2 4 1l2-2c0-2-1-3-2-3l-5-3-5-5-3-3-3-3-4-3-1-3-2-1-2-1-5-7v-1 1l2 1 17 11c2 1 4 2 4 5l1 1h3c2-1 2-2 2-3 0-2-2-3-3-3l-2 1-3-1-5-3-17-12v-1l10 1h2c2-1 4 1 6 1l5-1h14c1-2 2-2 3-2h3l1-1v-1l-2-1-1 1c-2 1-3 2-5 0-1-1-2 0-3 1l-3 1h-9l-4-1-3 1h-1l-11-2h-1l1-1 6-1 4 1 5-2 9-2 5 1 2-1 1-2c-1-1-2-2-3-1l-5 2-9 2-3-1h-3c-1 2-3 2-5 2l-8 2h-1l1-1 4-3 30-13 4-2h2l1 1c2 0 3-1 3-3l-2-3-3 2-2 2c-7 2-13 4-19 8l-12 6-1 1h-1v-1l21-19c1-2 2-3 5-3h1c1-1 2-3 1-5l-3-1c-1 1-3 1-2 3 0 2-1 2-3 3l-18 17-5 5h-1l10-20 1-1 2-3v-2l6-13c2-3 3-6 6-8v-3h-2l-2 1c0 4-2 8-4 11l-5 10-3 3-1 2c1 2 0 3-1 5l-7 16-1 1-1 1v1-1l2-11 1-2 1-2v-4l4-13c0-2 1-5 3-6v-3l-3-1c-1 1-2 2-1 3v6l-5 15v1l-1 4v2l-2 6-1 4c-1 1-1 1-1-4v-3l-7-31c0-2-1-4 1-5v-1c0-1-1-3-3-3l-3 2c0 2 1 3 2 3l1 3 7 31 1 9v1l-1-1v-1l-6-19v-6l-3-3-3-9c-1-3-2-5-1-8 1-2-2-3-3-2-2 0-3 2-1 4l2 4 4 11 1 5 1 2 1 2 3 8v2l-1-1-5-7-15-19c-2-1-3-3-3-5v-1l-3-2c-1 0-3 1-3 3l2 3 1 1c2-1 2 0 3 1l9 11 13 16 3 6h-1l-16-14-2-3-2-2-3-1-14-11c-1-1-3-3-3-5v-1l-3-2c-1 0-3 1-3 3-1 1 0 3 2 3l4 2 19 15 1 1 3 2 13 10 7 8 1 2h-1a107.8 107.8 0 0 0-34-15v-2c-1-1-3-2-4-1-2 1-3 3-2 5l4 2 1-1h4l12 4 14 7 5 3 1 1-1 1-4-1-14-3-2-2c-1-2-2-2-4-1h-3l-11-6c-2-1-3-2-3-4l-3-2c-2 0-3 1-3 3-1 1 1 3 3 3l4 1c3 3 7 5 11 6l5 3h2l2 1 19 3 1 1-1 1-10 4h-5c-1 2-3 1-5 1h-4l-3 1-13-2c-2 0-4 0-4-3l-3-1-2 2c0 2 1 3 3 3h4c5 2 11 2 17 2m-57 29c.1-18.5 2.1-36.9 6-55l10-37c4-11.7 9-23.1 15-34l2 6v8l2 2c1 1 2 0 3-1v-3c-2-1-2-4-3-6l-2-9v-3l8-14h1l1 1v1l-1 1c0 3 1 4 4 5l4-3c0-2 0-4-2-4l-4-3v-3c2-4 2-3 4-1 4.2 2.8 8.6 5.5 13 8 2 2 4 1 5-1v-3c-1-1-2-2-3-1h-1c-2 2-3 1-5 0l-9-6v-3l9-13 16 4 2 1 1 1h5c2-2 2-4 0-6h-5l-1 1-2 1-15-4v-2l4-5c3 0 5 2 7 3l1 1v2c1 2 4 2 6 2 2-1 3-4 2-6s-3-3-5-2c-3 1-5 0-7-1l-2-1v-1l11-11h7l15 2 6 1h4c2-1 2-4 1-5-1-2-3-3-5-1h-1c-1 2-3 2-6 2l-19-1v-2l10-8h4c2 1 4-1 5-3v-1c-1-1 0-2 1-3 7-4 13-9 21-12 12.6-6 25.6-11.1 39-15 6-2 12-2 18 0l23 8 15 7c6 2 12 6 17 9l14 10c8 5 14 11 20 18 7 8 13 16 18 25l15 27 6 13v2l-2 1c-1 2-1 4 1 6 2 1 3 3 3 6l5 16 1 3v1l-1-1-1-2c-4-9-10-18-18-25l-2-4-1-1c-1-1-2-2-4-1l-2 4c1 2 2 3 4 3 2-2 4 0 5 1l11 15v3c-1 1 0 3 2 3l3 2 1 4v2c-1 1 0 2 1 3l1 1c2 5 3 11 3 16v1h-1l-11-14-5-5-4-4-5-3-17-10c-2 0-2-1-3-2 0-2-1-3-3-3-1 0-3 0-4 2-1 1-1 3 1 5 1 1 3 2 4 1 2-2 4-1 5 0l15 9 2 4c-1 1 0 3 2 3h2l4 1c5.9 5.5 11.2 11.5 16 18v1h-1l-3-1c-7-4-15-8-21-13l-15-13-1-3-1-3c-1-1-3-2-5-1-2 0-3 3-3 5 1 2 2 3 4 3h2c8.9 7.5 18.3 14.5 28 21l11 6 2 1-9-1-18-5c-6.7-2.5-13.4-5.1-20-8l-24-9-5-4-5-1c-2 1-3 3-2 5 0 3 3 4 5 3h7l22 8 3 2c1 2 2 2 3 2h4l17 6 10 3h3v1h-2c-10 0-19 0-27-2l-25-4-2-1-2-1-1-1c-2-2-4-2-6 0v5c1 2 3 2 5 1 2-2 4-1 6-1 14.6 2.3 29.3 4.3 44 6h3l-1 1-14 3h-5l-5 2-11 2-7 2h-5c-1-1-3-1-4 1-1 1 0 3 1 4h4c1-2 4-2 6-3l16-4 4 1c2 1 4 1 4-1 1-2 2-2 4-2l24-6h2l-3 2-20 8-27 9-4-1c-1-1-3 0-4 1-2 1-2 3 0 5h5l1-1c12.9-4.3 25.6-9.3 38-15l14-6h1v1l-11 10-4 3-2 3-4 5-10 11c-2 1-3 3-6 3l-2 2c-1 2 0 3 1 4 2 1 4 0 5-1v-1c0-3 2-5 3-7l14-14 5-3 2-4 11-10v1l-1 1-15 23-3 2c-2 0-2 1-2 3l-1 3-13 21-4 4v5c1 1 3 0 4-1v-1c0-3 2-4 3-6 5.9-9.4 11.9-18.7 18-28l15-24 1-1v2l-9 41-2 4h-1v5c1 2 3 2 5 1 1-1 2-3 1-5v-7l7-33 1-6 1 6 1 16 1 12 2 14v6c-1 1 0 3 1 3h4c2-1 2-3 0-5-2-1-2-2-2-3l-1-5-3-18-2-21v-10h1l5 13v2c-2 3-1 5 2 5l3 3 5 13v4c-1 1 0 3 1 3l1 3v4l-1 31a191 191 0 0 1-10 46l-1-1-5-7-10-11c-4-3-9-5-15-3-2 1-3 0-4-2l-6-8c-2-3-5-6-9-8l-4-2c-7-3-12-8-17-13l-2-2c-2-2-3-2-5-1l-2 1c-6 4-11 9-15 14l-5 5h-3l-6-6-13-14c-6.6-5-12.6-10.7-18-17-3-4-7-4-11-2l-10 7-14 11c-5 4-11 7-16 9l-7 4c-6 3-10 7-13 13-1 2-3 5-6 6l-4 3h-2l-20-8-5-1h-8l-6 4-10 8-8 3-13 8-15 12h-2l-1-3-5-17-4-26-1-31"/>
    <path fill="#9BADFA" d="m346.8 641-11-1-13-4a310 310 0 0 1-66-37c-12-9-23-20-33-32a494.8 494.8 0 0 1-28-51c-2-4-2-4 2-6l7-4 3-1c7-2 13-6 18-12 7-7 15-12 23-17 1-2 3-2 5 0l1 1c6 3 11 7 18 8l1 2-5 8c-3.1 7-6.8 13.7-11 20v1l1 1 2-2c5-6 11-12 14-19l8-9 5-4c6-3 11-8 15-13l8-6 1-1h1v1l-1 1-7 11c-3 6-6 10-11 14l-4 6v2h1l3-3 20-19 8-11 4-6 7-6c9.3-5 17.5-11.8 24-20h3l2 3 3 5c4 7 10 13 17 17l4 2c5 3 7 7 9 11v3l-4 6-2 1-8-6c-4-2-5-2-8 0-12 9.9-23.3 20.6-34 32h1l2-1 2-2c4-4 8-6 12-8l4-2c5-2 9-6 12-10l4-5h2l6 6 4 4 6 8 5 7 3 4h2v-1l-2-3c-1-2-3-3-3-5l-5-12 1-2 5-6 3-2c5-4 8-8 10-13 2.5-5.2 6.3-9.7 11-13h3l2 3 5 6c3 4 8 7 13 10l4 1c6 2 11 7 13 14l2 10c1 4 1 8 3 11l2 4 1 1h1v-2l-2-13 1-8c2-1 5-1 7 1l3 2 7 6c5 3 8 8 9 13v5l-2 6a516 516 0 0 1-28 49c-15 17-32 31-51 43l-12 7c-14 9-30 16-46 20l-12 1m166-231v2h-1l-1-1-4-13-1-3-1-3-2-2-4-11h1l10 13 1 2c-1 3 1 5 1 8l1 8m-14-64-1 9-1 1v-1c-1-12-4-24-8-35l-1-4v-1h1v1l10 27v3m11 40h-1l-1-2-3-5-1-3 2 1c2 0 2 1 3 2l1 7m-5-14-5-1 5-1 1 1c1 1 0 1-1 1m-5-16v-3l1-1 1 2-2 4h-1l1-2m4 6v1l-3 2v-1l2-2h1m1 4v1l-4 1v-1l3-2 1 1"/>
    <path fill="#FFF" d="M237.8 400c-6 0-12 0-17-2h-4c-2 0-3-1-3-3l2-2 3 1c0 3 2 3 4 3l13 2 3-1c1-2 1-1 2 0h2c2 0 4 1 5-1h5l11-4v-1l-1-1-19-3-2-1h-2l-5-3c-4-1-8-3-11-6l-4-1c-2 0-3-2-3-3 0-2 1-3 3-3l3 2c0 2 1 3 3 4l11 6h3c2-1 3-1 4 1l2 2c5.9 1.9 11.9 3.2 18 4l1-1-1-1c-6-4-12.3-7.4-19-10l-12-4h-4l-1 1-4-2c-1-2 0-4 2-5 1-1 3 0 4 1l1 2 1 1 8 2c8 3 17 7 24 12h1l-1-2-7-8-13-10-3-2-1-1-19-15-4-2c-2 0-3-2-2-3 0-2 2-3 3-3 2 0 2 1 3 2v1c0 2 2 4 3 5l14 11 3 1 2 1 2 4c6 4 12 9 16 14h1l-3-6-13-16-9-11c0-1-1-2-3-1l-1-1-2-3c0-2 2-3 3-3l3 2 1 1c-1 2 0 4 2 5l15 19 5 7h1v-1l-3-8-1-2-1-2c1-2 0-3-1-5l-5-19c1-1 4 0 3 2-1 3 0 5 1 8l3 9 3 3v6l6 19v1l1 1v-1l-1-9a468.3 468.3 0 0 0-7-39c2 0 3 1 3 3v1c-2 1-1 3-1 5a329 329 0 0 1 8 38l1-4 2-6v-2l1-4v-2l5-14v-6c-1-1 0-2 1-3l3 1v3c-2 1-3 4-3 6l-4 13v6l-2 2-2 11v1-1l1-1 1-1 7-16c1-2 2-3 1-5l1-2 3-3 5-10c2-3 4-7 4-11l2-1h2v3c-3 2-4 5-6 8l-6 13v2l-2 3-1 1-9 20 5-5 18-17c2-1 3-1 3-3-1-2 1-2 2-3l3 1c1 2 0 4-1 5h-1c-2-1-4 1-5 2l-21 20s-1 0 0 0h2l12-6c6-4 12-7 19-8l2-2 3-2 2 3c0 2-1 3-3 3l-1-1h-2l-4 2-30 13-4 3v1l8-2c2 0 4 0 5-2l3-1v1l3 1 10-2 4-2c1-1 3 0 3 1l-1 2h-7l-9 2-5 2-4-1-6 1-1 1h1l11 2h1l3-1 4 1h9l3-1c1-1 2-2 3-1 2 2 3 1 5 0l1-1 2 1v1l-1 1h-3l-3 1c-2 2-3 2-4 1l-3-1-7 1-5 1-6-2h-12v1l17 12 6 3h4c1 0 3 1 3 3l-1 3h-4l-1-1c0-3-2-4-4-5-6.6-3.6-12.9-7.6-19-12v-1 1c3.2 4.1 6.6 8.1 10 12l4 3 3 3 3 3 5 5 5 3c1 0 2 1 2 3l-2 2c-2 1-3 0-3-1l-1-1c0-2-2-3-3-4l-8-9-3-3-1-1-4-4-1-1-3-4-7-8-1-1v2l9 19 7 16c1 1 1 3 3 3h1l1 3-3 2-3-2v-1c1-2 0-4-1-6l-2-5-8-17-1-3-1-1v1l2 11 1 4v2l-1 9 2 2c1 2 0 3-1 4h-4v-4c3-2 2-4 2-7v-4l-1-2 1-4-5-19h-1v1l-1 12v14c-2 1-2 3-2 4l-2 7c0 1-1 3 1 5l-1 3h-4c-1 0-2-2-1-4h1c2-1 2-4 3-6l1-4c0-2 1-4-1-5l1-3c2-1 2-3 2-4l2-19v-1l-1 1-1 1-3 10-1 3-1 3c-2 2-3 4-2 6 1 1 0 2-1 3l-2 2v6c1 2-1 3-2 4l-3-2v-4c3-1 4-4 4-7l2-3 1-2 1-6c2-1 2-3 3-5l2-5v-2 1h-1l-12 15-1 3c0 2 0 3-2 3l-3 1-3 3-2 3v2c-1 1-3 2-4 1-2 0-3-2-3-4 0-1 2-3 4-2h1l3-1 2-2 2-4 2-2 2-1 13-15v-1h-1l-6 5-1 3-3 1c-2 0-3 2-5 3l-1 2c0 2-1 2-3 2l-4 2-14 9c-3 2-5 3-6 6h-3l-1-2 1-2c3 0 6-2 8-3l14-10 3-3c0-2 1-2 3-2 3 0 5-2 6-4 1-1 1-2 3-2l2-1 6-5v-1h-1c-8 4-17 6-25 8l-2 1c-2 0-2 1-3 2l-1 1h-4l-1-4 3-2 1 1h5l15-4 1-1h-9m115-141v-14l1-6v-14l-1-8 1-2h2l1 3-1 6v16l1 5-2 4v1l-1 17v4h1l1-4 2-10v-1c2-2 2-4 2-6l3-13v-6c1-2 2-2 4-1v3l-3 6-3 15v3l-2 4-1 6-1 4 3-3a316 316 0 0 1 22-27c1-1 2-2 1-4 0-2 1-3 3-3l2 1c1 1 1 4-1 4-3 0-4 3-6 5l-17 20-5 8v1l1-1 13-13 2-3c0-2 0-3 2-3h2l11-11 2-3c0-1 1-2 3-2l1 2c1 1 0 3-1 3-3 0-5 3-7 5l-6 6-3 3-1 2c-3 0-4 3-6 4l-4 4v1h1l5-3 22-10 4-1c2-1 3-1 3-3l1-1 3-1c2 1 3 2 2 4 0 1-1 2-3 2-3-1-4 0-6 1l-26 10-10 6v1h1l1-1 15-4 5-1 3-1 3-1 3 1 17-4c2 0 4-1 5-3h4c1 0 2 1 2 3l-3 3h-2l-5-1-16 3-8 2-8 1a353 353 0 0 0-20 6l-2 1-1 1h1l6-1c9.4.1 18.8 1.1 28 3l4-1c2-2 4 0 5 2l-1 3h-5c-1-2-3-2-5-3-9-2-18-3-27-2l-6 1h-1l1 1 2 1 18 3c2-1 3-1 4 1l3 1h13c2 1 3 0 3-1l2-2 4 2-1 3c-1 1-2 2-3 1l-5-1-13 1-4-1h-2l-6-1-14-5h-2v1l8 9h2l2 2c1 2 2 3 4 3h1c2 0 2 0 3 2l1 1c4 3 9 4 13 6l4-1 1-1 3 1v3l-3 1-9-3-18-9h-1l1 1v1l3 2 8 7 4 2c2 0 3 1 3 3l-2 3c-1 1-3 0-4-1v-1c-4.5-4.6-8.8-9.2-13-14l-6-7-3-3 1 4c1 2 1 5 3 6l1 1 1 5 3 3c1 0 2 1 2 3v3l5 10 5 8c0 2 1 3 3 4l1 2-2 2-2-2c0-3-2-6-4-8l-7-14-3-3c-2-1-2-2-2-4 1-3 0-5-3-6-1-1-2-2-1-4v-2l-1-2c-1-2-1-5-3-6l1 6 2 13 3 4v5l1 3c0 2 0 3 3 3 1 0 2 1 2 3 1 1 0 2-1 3h-4l-2-3 1-1v-3l-2-4-2-3v-6l-4-21h-1v4l-1 5 1 5-2 5 1 4-1 4v9l-4 1c-1-1-2-3-1-4l1-1c2-1 2-4 2-6l-1-2v-3c2-2 3-4 2-7v-2l1-2 2-13-1-1-1 2-7 20v4c-2 0-2 2-3 3l-1 6v6c0 2-1 3-2 3l-3-1v-4c2-1 3-3 3-5l2-7v-4l3-4 7-17 1-3h-1c-5 5-10 10-13 16l-1 1c0 2-1 2-2 3l-4 7 1 2v1c0 2 0 3-2 3-1 1-3 0-3-1-1-1-1-3 1-4 2 0 3-2 3-4l3-6 1-2 8-10h-2l-27 21-1-2c.3-1 1-1.7 2-2 3 0 4-1 6-3l8-6 22-16v-1h-1l-12 4-3 2h-4v1l-6 2-6 2-6 2-6 3-3 1c-1-1-2-2-1-3 0-2 1-3 3-3h6l11-3 3-1 2-1 5-2 2-1c4 0 7-2 11-3v-1h-2l-11 2-9 1c-2 0-5 0-7 2s-4 0-5-2l1-3h5c1 2 2 2 4 2l23-3h2v-1l-11-6-4-1-3-2-8-5h-2c-2 0-3-1-3-2l-4-4h-2v-2l1-1h2v2l4 2c2 0 3 0 3 2 1 1 1 2 3 2l6 3c1 1 2 2 4 1l2 2 2 2 11 4v-1l-6-5h-2l-2-2-3-3-5-3c-2-2-4-4-7-4l-1-3 2-1 1 1c1 3 4 4 6 6l4 3c2 1 3 2 5 1l2 2c0 2 1 3 3 4l6 4 1 1-1-2-3-5-15-20-4-4c-1-2-3-4-5-4s-3-3-1-4c1-1 3-1 4 1 0 2 2 4 4 6l9 11 10 15 1 1v-1l-7-20-3-9-2-3h-1l-1-4 4-1 2 3c-2 2-1 3 0 5l6 17 2 8 2 5h1v-11M347 583.3c0 .4-.3 6.8-.2 13.3-6.8.5-5.7-13.3-5.3-15 .2-1.4-4.4 1.7-6.6 3.8.7 1.3 1.7 1 2.9.5-.4 6.2 3.9 11.8 9 11.7.2 6.4.9 12.5 2.7 13 .2.1.4-6.5.6-13.7 12.2-3.8 7.6-18.3 7.6-18.3-.2-.8-2 .3-6 3.9 1.6 1.7 2.4.7 3.6.3 1 1.9 1.4 10.5-5.1 13.1l.3-18c0-.2-.2-.3-.4-.3-1.8.2-5 3.4-7.5 6.1 1.3 2.2 3 .2 4.4-.4m5.9 19.1 2.8 2.8 2.8-2.8-2.8-2.8-2.8 2.8Z"/>
  </g>
</symbol></svg>
