<svg xmlns='http://www.w3.org/2000/svg' viewBox='0 0 696 830' fill='none'><symbol id='XLIJ_Fill'>
  <g fill="none">
    <path fill="#FB9100" d="m348.6 103.4 12-1c12-1 23 0 34 4 18 5 36 11 52 19 18 9 34 20 48 34l17 20 24 33c6 10 12 21 16 32l18 46a291.7 291.7 0 0 1 20 95l2 32-1 36-2 28-2 17c-2 14-3 28-7 42a307.5 307.5 0 0 1-90 139 160 160 0 0 1-89 42c-18.3 2.3-36.6 4.3-55 6l-27-2-25-5a170.2 170.2 0 0 1-83-39l-32-32a281.2 281.2 0 0 1-64-129l-4-34-3-25c-3.1-35.4-1.7-71 4-106 4-25 11-49 20-73l15-38c4-12 10-23 17-34 10-15 21-29 33-43 14-16 30-29 48-39 14-7 27-12 42-17l20-6c10-3 20-3 30-3l12 1"/>
    <path fill="#FFF" d="M126.6 445.4v5l1 19 2 16 7 35c9 38 27 71 51 100 13 16 28 30 44 44 18 15 37 25 60 31l30 7 8 1 13 1h21l8-1 29-6c27-6 51-19 72-38l23-22a233.6 233.6 0 0 0 64-108l8-37c3-14 5-28 5-42l-1-32a769.4 769.4 0 0 0-9-71c-3-15-7-29-12-43l-20-50c-3-10-8-19-13-27a505 505 0 0 0-47-61c-10-9-22-17-36-22a379.5 379.5 0 0 0-83-18h-6l-5 1-23 2c-18 4-35 9-52 15-12 4-23 10-32 18-8 6-14 13-20 20a516.8 516.8 0 0 0-46 72l-19 50a302.5 302.5 0 0 0-19 94l-1 14-2 26v7m451-16-2 34c0 11-2 22-3 32l-4 27c-3 16-8 32-15 46a283.5 283.5 0 0 1-76 99c-18 15-38 26-61 32l-27 5c-9.3 1.5-18.6 2.8-28 4l-11 1-25-2-29-5c-29.4-5-56.7-18.2-79-38l-28-28a259.4 259.4 0 0 1-52-85c-3-11-7-22-8-34l-4-31-3-25a392.5 392.5 0 0 1-1-52c2-38.4 9-76.4 21-113l16-41c5-12 11-24 18-35 12.3-18.1 26-35.1 41-51 17-15 36-26 57-34l33-11c7-2 15-4 22-3h44l17 2c17 5 34 11 50 19a172.9 172.9 0 0 1 52 39c17.6 21.8 33 45.2 46 70l19 49c9.3 24 15 49.3 17 75l3 40v14"/>
    <path fill="#FFF" d="M181.6 433.4v11a240 240 0 0 0 13 66 409.3 409.3 0 0 0 31 59 239 239 0 0 0 76 59c13 7 26 11 40 14h14a177.4 177.4 0 0 0 53-21c21-13 40-28 57-46 6-7 12-14 16-21 8.9-17.2 17-35 24-53 6-18 8-37 9-56 .8-21.4-.6-43-4-64l-11-40c-5-16-12-31-19-46l-19-33a141.7 141.7 0 0 0-32-37c-11.8-7.6-23.8-15-36-22l-33-13c-8-3-16-3-25 1-11 4-23 7-34 13l-15 8-18 12-14 13c-9 9-16 18-22 29l-18 33c-8 14-14 30-19 46a4892 4892 0 0 0-13 55l-1 33m341-15a294 294 0 0 1-21 106l-11 24c-5 11-12 22-20 32l-11 13c-6 7-14 14-22 20-13 9-26 16-41 23-12 6-26 9-39 11l-5 1c-12 1-24-2-35-6l-22-8-31-17a140.8 140.8 0 0 1-41-40c-6-8-12-17-17-27l-16-36a216.8 216.8 0 0 1-16-77v-36c1-15 5-29 8-43l6-22c8-26 20-50 36-71l17-21 6-7c8-11 18-20 28-28a159.7 159.7 0 0 1 70-28l13 1c16 3 31 9 45 16 6 2 11 6 16 10 8 6.6 15.7 13.6 23 21l23 28c19 22 32 48 42 76l9 34 4 22 1 10 1 19"/>
    <path fill="#FB9100" d="M349.6 602.4h4l17-2c8-1 16-4 24-7 6-2 13-5 18-9 8-5 15-10 24-14 10-5 20-12 28-20 11-9 20-21 26-34l1-4v-1h-1l-3 4-15 16a3699.7 3699.7 0 0 1-42 37c-10 6-20 9-30 11l-27 4-19 2h-13l-12-1-35-6c-14-3-26-8-36-17l-19-18c-11-9-21-18-29-29l-3-3h-1v1l1 4c6 11 13 21 21 30 10 10 21 18 33 24 9 4 17 9 24 14 6 4 11 7 17 9l24 7 17 2h6m151-187v-12l-1-8-1-1v1l-2 4-2 12c-3 14-7 29-13 43a428.2 428.2 0 0 1-36 64c-4 4-9 8-16 10l-26 9-2 1h-6l-6-5-4-7c-4-7-7-14-9-22-2.4-10.7-5-21.4-8-32l-4-25c-1-4-2-9 0-13l1-2 1 1c5 6 11 10 19 12s17 3 25 1a71.9 71.9 0 0 0 46-28c6-9 8-19 6-30l-4-11-3-10c-1-4-2-7-1-11l2-11c2-10 2-19-2-27-7-18-18-31-34-41l-10-6c-5-3-9-6-12-11l-5-7-7-8c-3-4-8-7-13-8h-11c-3 0-5 1-7 3l-1 1h1l2-1c5-3 11-3 17 0 4 1 8 4 11 7l9 12 5 9c4 6 8 11 14 15l9 6a79 79 0 0 1 30 64v18l2 12c1 9 0 18-6 25l-5 7a63.1 63.1 0 0 1-55 19c-7-1-13-3-19-7v-3l2-2 8-7c2-2 4-3 7-3l6-1c9-1.2 17.6-4.6 25-10v-1h-1l-2 1c-4 2-8 4-13 4l-11 1h-1l1-1 2-3 10-5 9-6 8-8c1-2 3-3 3-6v-1h-1l-4 3-3 2h-1l2-8 1-3v-1h-1v1c-3 4-5 8-5 12 0 3-1 4-3 5-6 4-12 8-19 10l-2 1 1-2 5-8c7-9 8-20 7-31h-1l-1 3-1 6c-1 12-7 22-15 30l-1 1h-1v-7c1-7 0-14-2-21-1-8-1-17 1-25l3-11 1-4v-2l-2 1-6 18-1 5v1l-1-1-1-3-2-10-1-7-1-1v2c0 8 1 16 4 24a78.9 78.9 0 0 1 5 23c1 7 1 14-2 20-1 3-2 6-5 8l-3 2-1-4-3-10v-4c2-3 2-6 2-10h-1v-1h-1l-2 6h-2l-4-14v-13l1-4c-2 1-1 3-2 4v2c-1 12 1 24 4 36l3 11 1 12c-2 7-3 13-3 20-1 8-2 16-1 25s3 19 6 28l6 15c4.4 10.8 9.8 21.2 16 31 2 3 1 4-2 5l-1 1-21 5-9 2-13-1-23-6-3-1c-1-1-2-2-1-3l2-3 9-16a284 284 0 0 0 18-57c1-9 1-19-1-28l-4-18v-8l3-11 4-16 2-13-1-15-1-1v18a53 53 0 0 1-4 13h-1l-2-5-1-1-1 2c0 3 0 6 2 9v4l-3 11c-1 4-1 3-4 1s-5-5-6-9c-2-6-3-12-2-18 1-8 2-16 5-24 3-5 4-11 4-17l1-8-1-1v1l-2 8-2 11-1 2-1-2c-1-7-3-14-6-20l-2-3v3l3 11c2 8 3 16 2 24l-2 9a55.7 55.7 0 0 0 0 23h-1l-1-1c-8-7-13-16-15-27l-1-9-1-3v-1l-1 1v1c-1 6-1 12 1 18 1 7 5 12 9 17l3 4v1h-1c-8-3-15-7-21-12-1 0-2-1-2-3 0-5-2-9-5-13l-1-1-1 1 2 5 1 6s0 1 0 0l-3-1-4-4h-1l-1 1 5 8 11 9 8 4 8 6 1 2h-6a44.4 44.4 0 0 1-21-6v1c7 5 15 9 23 10l7 1c2 0 5 0 6 2l10 9 2 2v2l-7 4c-10 4-20 5-31 3-15-2-28-9-38-20a37 37 0 0 1-9-36l2-18v-9c0-9 1-17 4-26 5-15 14-27 27-36l7-5c6-5 11-10 15-17l4-8 10-13 12-7c5-2 10-1 15 1l3 1h1-1c-3-4-8-5-13-5-6 1-11 3-16 7l-10 10-5 8-11 10-7 4c-8 4-15 10-22 16-8 10-14 20-17 32-2 6-2 12-1 18l2 10c2 7 1 13-1 20l-3 6-3 10c-1 4-2 9-1 14 1 8 5 15 10 21a69 69 0 0 0 64 24c8.9-1.6 17-6.2 23-13h2v4c1 4 0 8-1 11l-3 19-3 19-6 19a86.4 86.4 0 0 1-15 30c-3 3-7 4-11 3-9-4-17-8-27-10-6-2-12-6-16-11l-6-8-18-30c-9-17-16-34-21-53l-5-24-2-7-1-1-1 1v29l2 22c3 19 10 35 21 51 6 8 12 14 21 19l4 3c6 4 12 8 16 14 6 8 13 14 22 18a137.2 137.2 0 0 0 55 15h21l14-2c14-2 28-7 40-13 8-4 15-10 21-17l3-4 9-8 9-6c8-5 14-11 20-18 15-20.7 23-45.5 23-71l1-12m-319 18a376 376 0 0 1 6-56l8-32c5-16 11-32 19-46l18-33a149.6 149.6 0 0 1 36-42l18-12 15-8c11-6 23-9 34-13 9-4 17-4 25-1l33 13a856 856 0 0 1 44 29c9 9 18 19 24 30l19 33c8 15 14 30 19 46l11 40 4 28c1.5 30.9-1.6 61.9-9 92a248 248 0 0 1-40 74 242.6 242.6 0 0 1-88 61l-22 6h-14c-14-3-27-7-40-14a278 278 0 0 1-76-59l-11-16c-8-14-15-28-20-43a238.7 238.7 0 0 1-12-66l-1-11"/>
    <path fill="#FFF" d="M499.6 427.4c-.3 25.6-8.7 50.5-24 71-5 7-11 13-19 18l-9 6-9 8-3 4c-6 7-13 13-21 17-12 6-26 11-40 13l-14 2h-21a148.8 148.8 0 0 1-55-15c-9-4-16-10-22-18-4-6-10-10-16-14l-4-3c-9-5-15-11-21-19-11-16-18-32-21-51l-2-22v-29h2l2 7 5 24c4 19 12 36 21 53 7.8 12.8 15.8 25.5 24 38 4 5 10 9 16 11 9 2 18 6 27 10 4 1 8 0 11-3l1-2c7-8 11-18 14-28l6-19c2-6 3-13 3-19l3-19c1-3 2-7 1-11v-4h-2c-6 7-14 11-23 13s-19 2-28-1c-14-4-27-11-37-23-4-6-8-13-9-21-1-5 0-9 1-14l3-10 3-6c2-7 3-13 1-20l-2-10c-1-6-1-12 1-18 3-12 9-22 17-31 7-7 14-13 22-17l7-4c4-3 8-6 10-10l6-8 10-10c4-4 10-6 16-7 5 0 12 3 13 5 2 1 0 0 0 0l-3-1c-5-2-10-3-16-1l-11 7-10 13-4 8c-4 7-9 12-15 17l-7 5a73.9 73.9 0 0 0-31 62v9l-2 19-1 14c1 8 5 15 10 21 10 11 23 18 38 20 11 2 21 1 31-3l7-4v-2l-2-2-10-9c-2-2-4-2-6-2l-7-1c-9-1-16-5-23-10 0 0-2-1 0-1l2 1c6 3 12 4 19 5h4c1 0 2-1 1-2l-9-6-7-4-11-9-5-8 1-1 5 4 3 1v-1l-1-5-2-5s0-2 2 0c1 1 5 8 5 13 0 2 0 3 2 3 6 5 13 9 20 12l2-1-3-4c-5-5-8-10-9-17a60.6 60.6 0 0 1-1-19h1l1 3 1 9c2 11 7 20 15 27l1 1h1v-2c-2-7-1-14 0-21l2-9c1-8 0-16-2-24l-3-11v-3l2 3c3 6 5 13 6 20 0 1 1 2 2 0l2-11 2-8c0-1 1-2 1 0l-1 8c-1 6-1 12-4 17-3 8-4 16-5 24-1 6 0 12 2 18 1 4 3 7 6 9s3 3 4-1l3-11v-4c-2-3-2-6-2-9 0-1 1-5 2-1l2 5h1v-1l4-12v-17c0-1 0-2 1 0l1 15-2 13-4 16-3 11v8l4 18c1 9 2 19 1 28 0 6-2 12-4 18a283.5 283.5 0 0 1-24 61l3 1 23 6 13 1 9-2 21-5 1-1c3-1 4-2 2-5a210.3 210.3 0 0 1-16-30l-6-16c-3-9-5-19-6-28s0-17 1-25c0-7 1-13 3-20l-1-12-3-11c-3-12-5-24-4-36v-2l1-5v18l4 14h2l2-6s1-1 1 1c1 3 1 7-1 10v4l3 10 1 4 3-2c3-2 4-5 5-8 3-6 3-13 2-20-1.1-7.8-2.8-15.5-5-23-3-8-4-16-4-24v-1s0-2 1 0l1 7 2 10 1 3h1l1-5 6-18c1 0 3-3 2 1l-2 4-2 11c-3 8-2 17-1 25 2 7 3 14 2 21v7h1v-1c9-8 15-18 16-30l1-6 1-3h1c1 11 0 22-7 31l-5 8-1 2 2-1c6-2 13-6 19-10 2-1 3-2 3-5 0-4 2-8 5-12v-1h1v1l-1 3-2 8h1l3-2 4-3h1v1l-3 6-8 8-10 6-9 6-2 2-1 1h1l11-1c5.3-.7 10.4-2.4 15-5 0 0 2 0 1 1l-1 1c-8 5-15 8-24 9l-6 1c-3 0-5 1-7 3l-8 7-2 2v3c6 4 12 7 19 7a63 63 0 0 0 60-26c5-7 7-16 6-25l-2-12-1-17c1-9 0-17-3-26-5-15-13-29-27-39l-8-6c-6-4-10-9-14-15a333 333 0 0 0-14-21c-3-3-7-6-11-7-6-3-12-3-17 0l-2 1s-3 2 0-1c2-2 4-3 7-3h11c5 1 9 4 13 8l7 8 5 7c3 5 7 8 12 11l10 6c16 10 27 23 34 41 3 8 4 17 2 27l-2 11c-1 4-1 7 1 11l3 11 4 10c2 11 0 21-6 30a71.9 71.9 0 0 1-46 28c-8 2-17 1-25-1s-14-6-19-12l-1-1-1 2c-2 4-1 9 0 13l4 25c3 10.6 5.6 21.3 8 32 2 8 5 15 9 22l4 7 6 5h6l2-1c9-3 17-7 26-9 6-2 12-6 16-10l4-6c12-19 24-38 32-58a214.7 214.7 0 0 0 15-55l2-4s1-2 1 0l1 8v12l-1 12"/>
    <path fill="#FFF" d="M349.6 602.4h-6l-17-2-24-7c-6-2-11-5-17-9-7-5-15-10-24-14-12-6-23-14-33-24-8-9-18-25-21-30-2-5-1-6 0-5l3 3c8 11 18 20 29 29l19 18c10 9 22 14 36 17l35 6 12 1h13l19-2 27-4a82.3 82.3 0 0 0 42-20c15-14.5 30-29.2 45-44l3-4h1v1l-1 4c-12.2 23-31 41.8-54 54-9 4-16 9-24 14-5 4-12 7-18 10l-24 6-17 2h-4m-68.6-128c0 .4-.3 6.8-.2 13.3-6.8.5-5.7-13.3-5.3-15 .2-1.4-4.4 1.7-6.6 3.8.7 1.3 1.7 1 2.9.5-.4 6.2 3.9 11.8 9 11.7.2 6.4.9 12.5 2.7 13 .2 0 .4-6.5.6-13.7 12.2-3.8 7.6-18.3 7.6-18.3-.2-.8-2 .3-6 3.9 1.6 1.7 2.4.7 3.6.3 1 1.9 1.4 10.5-5.1 13l.3-18-.4-.2c-1.8.2-5 3.4-7.5 6 1.3 2.3 3 .3 4.4-.3m5.9 19 2.8 2.9 2.8-2.8-2.8-2.8-2.8 2.8Z"/>
  </g>
</symbol></svg>
