<svg xmlns='http://www.w3.org/2000/svg' viewBox='0 0 696 830' fill='none'><symbol id='YABC_Fill'>
  <g fill="none">
    <path fill="#9D432C" d="m590.6 425-1 37-3 24-2 23c-3 25-10 49-21 71a303.1 303.1 0 0 1-78 102 161 161 0 0 1-86 39l-26 4c-12 2-24 3-36 2-8 0-15-2-23-3l-26-5a168 168 0 0 1-80-39l-30-30c-23-25.6-41.3-55-54-87-5-14-9-29-11-43l-5-41-2-19c-1.7-31.4-.7-62.8 3-94 3-28 10-55 20-81l14-37c6-15 14-29 23-43 9-13 18-26 29-38 13-16 30-29 49-39l31-14 25-8c9-3 18-4 27-4l18 1 12-1h11c9 0 18 1 26 4 16 5 33 10 48 17 19 9 36 21 50 35l15 17 23 31c9 13 16 27 22 41l15 40a301.8 301.8 0 0 1 20 82c2 18 3 36 3 56"/>
    <path fill="#FFF" d="m125.6 439 1 30 2 16 7 35c9 38 27 71 52 101 13 16 27 30 43 43 18 15 40 26 63 32l27 6 17 2h18c8 0 16-1 23-3l9-2 27-6c21-7 40-18 57-33l23-23c30-29.1 51.8-65.7 63-106l8-33c5-18 7-38 6-57a846.2 846.2 0 0 0-10-94c-3-15-7-29-12-43l-18-47c-5-12-11-24-19-36a581.7 581.7 0 0 0-47-59l-24-15-25-9-32-8a243.3 243.3 0 0 0-39-4l-14 1-15 2-32 8c-9 3-17 5-25 9-8 3-15 7-22 12-9 6-17 14-24 23l-28 38c-8 12-15 26-21 40l-15 40a315.7 315.7 0 0 0-22 114l-2 26m-5-17c.7-30.9 4-61.7 10-92l10-33 18-46 14-26c10-15 20-29 32-43 13-16 29-28 46-37 10-6 20-10 30-13l26-9c7-2 15-3 22-3l18 1h4l22-1a351.7 351.7 0 0 1 64 20 173.5 173.5 0 0 1 59 45l25 34c8 12 15 24 20 37l15 39a290 290 0 0 1 19 80c4.7 48 2.7 96.5-6 144-3 16-8 32-15 47a282.7 282.7 0 0 1-78 102c-18 16-39 26-63 32l-28 5-17 3c-10 1-20 2-30 1l-32-5-24-5c-26-7-48-19-67-37l-27-27a282 282 0 0 1-52-87c-4-12-6-23-8-35l-4-34-3-28v-29"/>
    <path fill="#FFF" d="M464.6 436h-1v-8l-1-2c-3-1-5 0-5 3v14c1 2 2 3 4 3s3-1 3-3v-7m-207 1v-8c0-1-2-3-4-3-2 1-3 2-3 4l1 15c1 1 2 2 4 1 1 0 2-1 2-3v-6m187 0v-7c0-3-2-4-5-3-1 0-2 1-2 3v14l2 2h2c2 0 3-1 3-3v-6m10 0v-7c0-1 0-3-2-3-2-2-5 0-5 3v12c0 2 0 3 3 4s4-1 4-4v-5m-217-2v-7l-2-2c-3-1-4 0-5 3v15c1 2 2 3 4 3 2-1 3-1 3-3v-9m197 1v-7c0-2-1-3-2-3-2-1-5 0-5 4v15l2 2h2c2-1 3-2 3-4v-7m-166 1v-8c-1-3-4-3-6-3l-2 4v13c0 2 1 3 2 3 3 1 5 0 6-3v-6m-20-1v-7c-1-2-2-4-5-3-2 0-3 1-3 4v13l1 2c0 1 2 2 4 1 1 0 3-1 3-3v-7m99-151h21l-1-1-1-1c-7-6-13-12-18-20v-1h-1l-1 1c-5 8-11 15-18 20l-1 2h20m-106 74h8l18 2c1 0 2-1 1-2v-6l-2-6-4-6c-2-3-5-5-9-5h-9l-4 2-3 3c-2.5 5-3.9 10.4-4 16l1 2h7m212 0h7l2-1v-3l-3-11-4-6-5-2h-9c-4 0-7 1-9 4l-3 5c-3 4-3 9-3 14l1 2 10-1 16-1m-93 240v-7l-2-5c-4-3-8-5-12-5l-8 3c-2 2-3 3-3 5v6l-1 15-1 13c.4 5.7.8 11.3 1 17 9 2 18 2 27-1l1-2-1-20v-4l-1-15m-110-176h12c4 0 7-1 11-3l6-5 3-3 5-9 1-7v-8c1-3-1-5-3-8l-6-8-7-8-4-1h-9l-26-1c-4 0-8 1-11 5l-5 5c-3 2-5 5-6 9v22l1 3 6 7c4 5 10 8 16 9l16 1m234-30v-8c-1-6-3-10-8-14l-5-5c-2-3-6-4-9-4h-18l-18 1-3 1-7 7-8 10-2 7v7l2 8c1 6 4 10 9 13l3 2c4 4 10 6 16 5h18l10-2c4-1 8-3 11-6l6-7c2-3 3-5 3-9v-6m-137-103-23 1h-2l-1 2v6c-1 6 0 11 2 17v2c1 5 0 10-3 15l-2 1-4 1h-4l-2 2v8l2 3c3 1 4 1 4 4v7l1 12 1 17-2 9v17l2 19v25l-1 9-1 6c-2 10-1 20 1 30 1 7 2 14 1 21v8l-1 5-2 16v5c0 2-1 3-3 3l-6 1-4 1-1 1 1 3 1 8c0 4 0 8-2 11v15l2 12c.4 5.3.8 10.7 1 16 9 5 17 8 26 10 1 0 2 0 2-2v-22a65.8 65.8 0 0 1 1-25c1-4 3-6 6-8 6-3 12-3 18-1 5 2 8 6 9 10 1 7 2 14 1 22l-1 4v21h1l1 1 3-1c7-2 14-4 20-8 5-2 4-1 4-6 0-9 0-17 3-25v-8l-1-6c-2-6-3-11-1-17 1-6 2-5-4-6l-6-1c-1 0-2-1-2-3l-1-4-1-11-2-16v-1c-1-7-1-14 1-21a107 107 0 0 0 1-37l-2-13v-21l2-18v-22c-2-8-2-16 0-24v-18c0-3 1-3 4-4 2-1 3-2 3-4v-6c0-2-1-3-3-3h-5c-4 0-5 0-6-5-2-5-3-11-1-16l1-7v-14l-1-2h-1l-24-1m167 140-1-21-4-27-8-30c-5-21-14-42-25-61l-17-31-4-6-9-12-2-1v2l1 12v19l-1 13 1 8v34c0 2 0 2 2 3l3 1 8 5c4 3 5 6 6 10v4l1 6 1 2 7 3 7 7 3 5 5 11c1 5 1 10-1 14l-4 9c-2 7-6 12-14 15l-2 2c-.5 7-.5 14 0 21 0 2-1 3-3 3h-37c-2 0-4-2-4-4v-17c0-3-1-4-3-5-4-1-6-4-7-7l-7-12c-4-5-4-11-3-18l3-7c1-5 3-9 7-12l9-6 2-3 1-11c0-4 2-8 6-10l6-4 4-2 1-5v-15l-1-10v-27c-1-6-2-12-1-18v-18c0-3-1-5-3-6l-9-8a736 736 0 0 0-35-22c-13-6-26-10-39-14-5-2-10-2-15 0-18.6 6.9-37 14.6-55 23l-18 13-10 8-2 4v18c1 8 1 15-1 22v30c-1 4-2 9-1 13v9l2 4 9 5c4 2 6 5 6 9l2 12c0 2 0 2 2 3l9 7c3 3 6 6 7 11l2 7 1 6c0 5-1 9-4 13l-6 10c-1 4-4 6-8 8l-2 3v18c-1 3-2 5-5 5h-35c-3 0-4-1-4-4v-18c0-3-1-4-4-5l-2-1c-5-2-9-6-11-11l-4-11c-1-3-2-6-1-9 0-5 1-10 4-14l5-8c1-2 2-4 5-5l7-4c2 0 2-1 2-2l1-7c0-6 2-11 8-14l4-3 6-2 1-2 1-14c-2-8-2-17 0-25 1-6 1-12-1-18v-12l1-15v-5h-1l-14 19-19 33c-9 16-16 32-21 50l-9 32-4 20a258.1 258.1 0 0 0 1 76c2 13 4 25 9 37 6 16 13 31 22 46a460.6 460.6 0 0 0 28 33c14 15 31 26 49 36l1 1c1 0 2 0 1-1 0-9 0-17 2-26 1-2 0-5-1-7l-1-4c-2-8-1-15 1-23 1-2 2-3 5-3l4-1 3-1 2-2v-20l-1-8-1-21 1-12c2-7 2-14 0-21l-1-25 2-28 1-8v-6l-1-18v-18l2-16v-3h-4c-2-1-3-1-4-4v-3l1-10c0-2 1-3 3-3h5l3-1c2 0 2-1 2-3v-12c2-8 1-16 1-23l-1-1-3 2-5 2h-1v-1l4-6 16-17 12-13 5-5c3-2 4-2 6 0l5 4 29 32 4 5-1 1-5-2-4-2-1 1v15l1 6c1 5 2 9 1 14-1 2 0 3 2 3l2 1h5c2 0 3 1 3 3 2 4 2 9 1 13v1l-3 3h-3l-2 1 2 17 1 13-1 8c-1 7-2 14-1 21l1 16 1 17 1 15-1 15-1 14 2 11-1 30-1 9v15c0 3 1 4 5 5l4 1c3 0 4 1 5 3l2 7c0 6 1 12-1 17s-2 9-1 14l1 19v3h1c22.6-12 43.2-27.6 61-46 8-10 16-20 22-31 6-12 12-25 16-38 5-12 8-25 10-38s3-26 3-40m7-12c-.3 34.8-6.8 69.4-19 102l-14 32a488.7 488.7 0 0 1-31 42c-7 8-15 15-24 21-11 7-22 14-34 19-12 6-25 10-39 13l-20 1-15-3c-12-3-22-7-33-12l-27-15c-13-8-24-17-33-29a483.3 483.3 0 0 1-27-38l-18-41c-8.7-23-13.5-47.4-14-72v-24c0-15 2-30 5-45l8-30c8-28 21-53 38-76l16-19 7-8c7-10 15-17 24-25 10-8 21-15 33-19l30-10c9-1 19-1 28 1 14 3 27 8 40 14a519 519 0 0 1 41 33l18 22c26.1 31.1 44 68.2 52 108 3 13.6 5.3 27.2 7 41l1 17"/>
    <path fill="#9D432C" d="M514.6 430c-1 13-1 27-3 40s-5 26-10 38c-4 13-10 26-16 38-6 11-14 21-22 31a240.9 240.9 0 0 1-62 46v-3l-1-19c-1-5-1-9 1-14s1-11 1-17l-2-7c-1-2-2-4-5-3l-4-1c-4-1-5-2-5-5v-15l1-9 1-30-2-11 1-14 1-15-1-15-1-17-1-16c-1-7 0-14 1-21l1-8-1-13-2-17 2-1h3l3-3v-1c1-4 1-9-1-13 0-2-1-3-3-3h-5l-2-1c-2 0-3-1-2-3 1-5 0-9-1-14l-1-6v-15l1-1 3 2 6 2 1-1-4-5-34-36c-2-2-4-2-6 0l-5 5-12 13-19 24 5-2 3-2 1 1c0 7 1 15-1 23v12c0 2 0 3-2 3l-3 1h-5c-2 0-3 1-3 3l-1 10v3c1 3 2 3 4 4h3l1 3-2 16v18l1 18v6l-1 8-2 28 1 25c2 7 2 14 0 21l-1 12 1 21 1 8v20c0 1-1 2-3 2l-2 1-4 1c-3 0-4 1-5 3-2 8-3 15-1 23l1 4 1 7c-2 9-2 17-2 26l-1 1-1-1a251.5 251.5 0 0 1-65-52 370.1 370.1 0 0 1-34-64c-5-11-8-23-9-36a292 292 0 0 1 3-96l9-32c5-18 12-34 21-50l18-33 15-19h1v5l-1 15v12c2 6 2 12 1 18-2 8-2 17-1 25v14l-1 2-6 2-4 3c-6 3-8 8-8 14l-1 7-2 2-8 4-5 5-4 8c-3 4-4 9-4 14-1 3 0 6 1 9l4 11c2 5 6 9 11 11l2 1c3 1 4 2 4 5v18c0 3 1 4 3 4h36c3 0 4-2 5-5v-18l2-3c4-2 6-4 8-8l6-10c2-4 4-8 4-13l-1-6-2-7c-1-5-4-8-7-11l-10-7-1-3-2-12c0-4-2-7-6-9l-9-5-2-4v-9c-1-4 0-9 1-13l-1-18 1-12c2-7 2-14 1-22v-18l2-4 10-8 18-13c9-6 19-10 29-14l26-9c5-2 10-2 15 0 13 4 26 8 39 14l16 9 19 13 9 8c2 1 3 3 3 6v18c-1 6 0 12 1 18v27l1 10v15l-1 5-4 2-6 4c-4 2-6 6-6 10l-1 11-2 3-9 6c-4 3-6 7-8 12l-2 7c-2 7-1 13 3 18l7 12c1 3 3 6 6 7s4 2 4 5v17c0 2 2 4 4 4h37c2 0 3-1 3-3v-21l2-2c8-3 12-8 14-15l4-9c2-4 2-9 1-14l-5-11-3-5-7-7-7-3-1-2-1-6v-4c-1-4-2-7-6-10l-8-5-4-1-1-3v-34l-1-8v-13c2-6 2-12 1-19l-1-12v-2l2 1c4.5 5.9 8.8 11.9 13 18l17 31c11 19 20 40 25 61l8 30 4 27 1 21"/>
    <path fill="#9D432C" d="M347.6 363c-3 0-7 3-7 7l1 2 5 7h3l5-7v-2c1-4-3-7-7-7m0 100-4 1-4 6c0 2 0 4 2 6l5 4h3l5-4 1-4c0-3-2-6-5-8l-3-1m0-50-6 3c-2 1-2 4-1 6l6 6h2c3-1 5-4 6-6 2-2 1-4 0-6-2-2-4-3-7-3m0 99c-4 0-8 5-8 9l1 2 4 7c2 2 4 2 6 0l5-6v-6l-3-4-5-2m-30 73c0-4-1-7-3-10v-1l-1 1c3 6 3 12-1 17v1c-3 6-4 12-1 18l5 10v-2l-1-12c-1-5 0-10 1-14l1-8m61 31h1v5l1-1 4-10c2-5 2-11-1-16l-2-5c-2-4-2-8-1-13l1-2v-1 1h-1l-3 12 1 6c2 5 2 11 1 16l-1 8m-19-272h4l11-2h5l2-1c0-2-1-1-2-1h-6l-10-1h-32l-9 1h-8l-1 1h1l1 1h6l10 2 8-1h16l4 1m-12-21 5-2c4-4 5-8 6-13 1-1 0-3-1-5-1-3-3-5-6-6-3-2-5-2-8 0l-6 5c-1 3-2 5-1 8l2 5 4 6 5 2m0-33 24 1h1l1 1v15l-1 7c-2 5-1 11 1 16s2 5 6 5h5c2 0 3 1 3 3v6c0 2-1 3-3 4-3 1-4 1-4 4v18c-2 8-2 16 0 24v22l-2 18v21l2 13 1 16-2 21c-2 7-2 14-1 20v2l2 16 1 11 1 4c0 2 1 3 2 3l6 1c6 1 5 0 4 6-2 5-1 11 1 17l1 6v8c-3 8-3 16-3 25 0 5 1 4-4 6-7.4 3.7-15 6.7-23 9l-1-1v-1l-1-20 1-4c1-8 0-15-1-22-1-5-4-8-9-10-6-2-12-2-18 1-3 2-5 4-6 8l-1 4v43c0 2-1 2-2 2-9-2-17-5-26-10l-1-3a346 346 0 0 0-2-25v-15c2-3 2-7 2-11l-1-8-1-3 1-1 4-1 6-1c2 0 3-1 3-3v-5l2-16 1-5v-8c1-7 0-14-1-21-2-10-3-20-1-30l1-6 1-9v-25l-2-19v-17l2-9c1-6 0-11-1-17l-1-12v-7c0-3-1-3-3-4l-3-3v-8l2-2h4l4-1 2-1c3-5 4-10 3-15v-2c-2-6-2-11-2-17v-6l1-2h2l23-1m99 95v4h-2l-2-2v-3h-1v2l-1 1-2-1c-1-1-2-1-2-3v-2h-1l-1 2h-2l-1-1-1 1 3 2v1l-1 1v1h1l2-1h2l2 1v2l-1 2 2-1 1-1 4 2-2 1-6 4h-3l-3-1h-1l1 1 2 1v2l-1 1-1 1h1l2-1h1v3l1 1v-4l1-2 6-4 2-1v4l-1 1-1 1 1 1v-1l2 1c0 2 0 4-2 5l-1 1v1h3v3l1 1v-4l2-1 1 1v-1l-1-1c-2-1-2-3-2-6h1l1 1 1-1-1-1c-2-1-2-3-2-5h1c3.1 2.3 6.1 4.6 9 7v3h1v-2l1-1 3 2h1v-1l-3-2v-1l2-2v-1l-3 2h-2l-8-6v-1h4l1 1h1v-1l-2-1v-1l4-2 2 1h3l-1-1-1-1v-1l3-2v-1h-1l-3 2-1-1v-2l-1 1v2l-2 2c-2 1-2 1-3-1v-1l-1 1v2l-2 2c-1 1-2 1-2-1v-2c0-3 0-5 3-7v-1l-2 1-1-1v-5l-1 2v3l-2 1c0-1 0-1 0 0-1 0 0 0 0 0v1c2 1 2 2 2 4v1m38 8v6c0 4-1 6-3 9l-6 7c-3 3-7 5-11 6l-10 2h-18c-6 1-12-1-16-5l-3-2c-5-3-8-7-9-13l-2-8v-7l2-7 8-10 7-7 3-1 18-1h18c4 0 7 1 10 4l4 5c5 4 7 8 8 14v8m-236-7v3h-2l-2-2v-3h-1v1c0 2 0 2-2 2-2-1-3-2-3-5v-1l-1-1v1l-1 3-2-1-1-1h-1v1h1l3 2-2 2v1l2-1h4l1 1v2l-1 1v1h1l1-1 2-1 2 2c1 1 0 1-1 1l-3 2-4 3-4-2h-1v1l2 1v2l-2 1v1h1l2-1 1 3 1 1v-1l1-5 3-3 3-1 2-1 1 2-1 2-2 2v1h1v-1l2 1c0 2 0 4-2 5l-1 1v1l1-1 2 1v2l1 2v-5h1l1 1h1v-1l-1-2c-2-1-2-3-2-5h3l-1-1c-2-1-2-3-2-5h1c3.1 2.3 6.1 4.6 9 7v3l1-1v-1l2-1 2 2h1v-1l-3-2v-2l2-1v-1h-1l-4 2-3-2-5-5 4-1 2 2c1-1-1-2-2-2v-2l4-1h2l2 1c1-1 0-1-1-2v-1l2-2 1-1-2 1h-1c-1.3.7-2 .3-2-1v-1h-1v3l-2 2h-3v-2l-1 1v1l-2 4-2-1v-3c0-3 0-5 3-7v-1h-1c-2 1-2 1-2-1v-4l-1 1v4l-1 1h-1v1c2 1 2 2 2 4v2m2 37-16-1c-6-1-12-4-16-10l-6-6-1-3v-22c1-4 3-7 6-9l5-5c3-4 7-5 11-5 9-1 18 0 26 1h9l4 1 7 8 6 8c2 3 4 5 3 8v8l-2 7a21 21 0 0 1-7 12l-6 5c-4 2-7 3-11 3h-12"/>
    <path fill="#9D432C" d="m360.6 599 1 15v26c-9 3-18 3-27 1-2-1-2-1-2-3 1.6-14 2.6-28 3-42v-6c0-2 1-3 3-5l8-3c4 0 8 2 12 5l2 5v7m77-239-10 1-1-2c0-5 0-10 4-14l2-5c2-3 5-4 9-4h9l5 2 4 6 3 11v3l-2 1h-7l-16 1m-196-1h-7l-1-2c0-6 1-11 4-16l3-3 5-2h8c4 0 7 2 9 5l4 6 2 6v6c1 1 0 2-1 2l-18-2h-8m106-74h-20l1-2a81 81 0 0 0 19-21h1v1c5 8 11 14 18 20l1 1 1 1h-21m-99 158c0 2-2 3-3 3-2 1-4 0-4-1l-1-2v-13c0-3 1-4 3-4 3-1 4 1 5 3v14m20-6v6c-1 3-3 4-6 3-1 0-2-1-2-3v-1l2-16c2 0 5 0 6 3v8m166-1v7c0 2-1 3-3 4h-2l-2-2v-15c-1-4 3-5 5-4 1 0 2 1 2 3v7Zm-197 8c0 2-2 2-3 3-2 0-3-1-4-3v-15c1-3 2-4 5-3l2 2v16m217-7v5c0 3-1 5-4 4s-3-2-3-4l-1-12c1-3 4-5 6-3 2 0 2 2 2 3v7m-10 0v6c0 2-1 3-3 3h-2l-2-2v-14c0-2 1-3 2-3 3-1 5 0 5 3v7Zm-187 0v6c0 2-1 3-2 3-2 1-4 0-4-1l-1-2v-13c0-2 1-3 3-4 2 0 4 2 4 3v8m207-1v7c0 2-1 3-3 3s-3-1-4-3v-14c0-3 2-4 5-3l1 2 1 8"/>
    <path fill="#FFF" d="m355.6 314-1-2-3-8c0-3-2-4-4-4s-3 2-4 4l-3 8v5c4 5 9 6 13 1l1-1 1-3m-8 9-5-2-4-6-2-5c-1-2 0-5 1-8l6-5c3-2 5-2 8 0 3 1 5 3 6 6 1 2 2 4 1 5-1 5-2 9-6 13l-5 2m12 21-4-1h-15l-9 1-10-2h-6l-1-1h-1l1-1h8l9-1h32l10 1h6l2 1-2 1h-5l-11 2h-4m19 272 1-8c1-5 1-11-1-16l-1-6 3-12h1v-1 1l-1 3c-1 4-1 8 1 12l2 5c3 5 3 11 1 16l-4 10-1 1v-1l-1-4m-61-31-1 8c-1 4-2 9-1 14l1 12v2h-1l-1-1-4-9c-2-6-2-12 2-18v-1c3-5 4-11 1-17l1-1v1c2 3 3 9 3 10m35-64-1-3c0-3-2-4-4-4s-3 1-4 3v7c0 3 2 4 4 5h1c2-1 4-3 4-6v-2m-5-9 5 2 3 4v6l-5 6c-2 2-4 2-6 0l-4-7-1-2c0-4 4-9 8-9m3-92 1-3c0-2-2-3-4-2-2 0-4 1-3 2v6l3 4 3-4v-3m-3-7c3 0 5 1 7 3v6c-1 2-3 5-6 6h-2c-3-1-4-4-6-6-1-2-1-5 1-6l6-3m5 56-1-2c-2-3-5-3-8 0l-1 4 2 5 2 2h2l2-1 2-8m-5-6 3 1c3 2 5 5 5 8l-1 4-5 4h-3l-5-4c-2-2-2-4-2-6l4-6 4-1m4-96v-1l-4-2c-2 0-4 2-4 4l1 5 1 1 2 3 3-2v-3l1-5m-4-4c4 0 8 3 7 7v2l-5 7h-3l-5-6-1-3c0-4 4-7 7-7m99 21c0-2 0-3-2-4v-2h2v-3l1-2v5l1 1 2-1v1c-3 2-3 4-3 7v2c0 2 1 2 2 1l2-2v-2l1-1v1c1 2 1 2 3 1l2-2v-2l1-1v2l1 1 3-2h1v1l-3 2v1l1 1 1 1h-2l-3-1-4 2v1l2 1v1h-1l-1-1h-4v1l8 6h2l3-2v1l-2 2v1l3 2v1h-1l-3-2-1 1v2h-1v-3l-1-2-9-5c0 2 0 4 2 5l1 1-1 1-1-1h-1c0 3 0 5 2 6l1 1v1l-1-1-2 1v4l-1-1v-3h-3v-1l1-1c2-1 2-3 2-5l-2-1v1l-1-1 1-1 1-1v-4l-2 1-6 4-1 2v4l-1-1v-3h-1l-2 1h-1l1-1 1-1v-2l-2-1-1-1h1l3 1h3l6-4c1 0 2 0 1-1l-3-2-1 1-2 1 1-2v-2l-2-1h-2l-2 1h-1v-1l1-1v-1l-3-2 1-1 1 1h2l1-2h1v2l2 3 2 1 1-1v-2h1v3l2 2c1 1 2 1 2-1v-4m-191 6-4 1v1l1 1 4 3 3 2 4-2h1v1l-2 2v1l3 2v1h-1l-2-2-2 1v1l-1 1v-5l-10-5c0 2 0 4 2 5l1 1-1 1-1-1h-1c0 2 0 4 2 5l1 2v1h-1l-1-1h-1v5l-1-2v-2h-3v-1l1-1c2-1 2-3 2-5l-2-1v1h-1v-1l2-2 1-2-1-2-2 1-3 2-3 2-1 5v1-1h-1l-1-3-2 1h-1v-1l2-1v-2l-2-1v-1h1l4 2 4-3 3-2c1 0 2 0 1-1l-2-2-2 1-1 1h-1v-1l1-1v-2l-1-1h-4l-2 1 2-3-3-1-1-1v-1h1l1 1 2 1 1-3v-1l1 1v1c0 3 1 4 3 5 2 0 2 0 2-2v-1l1 1v2l2 2h2v-5c0-2 0-3-2-4v-1h1l1-1v-4h1v3c0 2 0 2 2 1h1v1c-3 2-3 4-3 7v3l2 1 2-4v-1l1-1v2l2 1 1-1 2-2v-3h1v1c.7 1.3 1.3 1.7 2 1h2l1-1-1 1-2 2v1l1 2h-2l-2-1-4 2v1"/>
    <path fill="#9D432C" d="m355.6 314-2 4c-4 5-9 4-13-1v-5l3-8c1-2 2-4 4-4s4 1 4 4l3 8 1 2m-3 209c0 3-2 5-4 6h-1c-2-1-4-2-4-5v-7c1-2 2-3 4-3s4 1 4 4l1 5m-2-100-3 4-3-4v-6c0-1 1-2 3-2 2-1 4 0 4 2l-1 6m2 46-2 8-2 1h-2l-2-2-2-5 1-4c3-3 6-3 8 0l1 2m-2-97v3l-3 2-3-4-1-5c0-2 2-4 4-4l4 2-1 6"/>
    <path fill="#FFF" d="M444.7 511c0 .4-.3 6.8-.2 13.3-6.8.5-5.7-13.3-5.3-15 .2-1.4-4.4 1.7-6.6 3.8.7 1.3 1.7 1 3 .5-.6 6.2 3.8 11.8 9 11.7.1 6.4.8 12.5 2.6 13 .2.1.5-6.5.6-13.7 12.2-3.8 7.5-18.3 7.5-18.3-.2-.8-2 .3-6 3.9 1.6 1.7 2.4.7 3.6.3 1 1.9 1.4 10.5-5 13.1l.2-18c0-.2-.2-.3-.4-.3-1.8.2-5 3.4-7.5 6.1 1.4 2.2 3.2.2 4.5-.4m6 19.1 2.7 2.8 2.8-2.8-2.8-2.8-2.8 2.8Z"/>
  </g>
</symbol></svg>
