<svg xmlns='http://www.w3.org/2000/svg' viewBox='0 0 696 830' fill='none'><symbol id='YANJ_Fill'>
  <g fill="none">
    <path fill="#00807D" d="M105.6 422.3c1.7-45.5 9.4-90.6 23-134l17-44c5-12 11-23 18-34 9-14 19-27 29-39 16-20 35-35 58-46 19-9 38-16 58-21 10-2 20-2 30-2h19c13-1 27 0 40 5 17 5 33 10 49 18 22 11 42 26 57 46l28 37c8 11 14 23 19 36l23 60a481.1 481.1 0 0 1 9 219c-12 52.2-38.3 100-76 138l-17 17c-23 21-50 35-80 41l-45 7c-12 2-23 2-35 0-16-3-33-5-49-9-28-6-53-19-74-39a363.7 363.7 0 0 1-72-93c-12-24-20-50-22-77l-5-47-2-39"/>
    <path fill="#FFF" d="m571.6 434.3-4-46c-2-27-7-54-17-80a2220.6 2220.6 0 0 0-33-78c-10-18-22-35-35-51-14-16-31-29-52-36l-34-10c-26-7-53-9-79-4-16 3-31 8-46 12-25 8-45 23-60 43l-27 36c-8 12-14 25-19 38l-15 38c-10 27-17 54-20 82l-4 50c-1 18-1 36 2 54l7 34c9 43 29 80 58 112l33 31c17 17 37 28 60 35l37 8c12 2 24 3 36 2 18-2 35-6 51-10 25-7 46-21 65-38l22-22c25-25 42-53 55-85 5-14 8-29 12-44 5-23 8-47 7-71m6-13c0 21-1 41-4 61l-5 36c-3 20-9 38-18 56-14 26-30 51-51 72l-17 16c-22 21-48 34-78 40-13 2-27 5-41 6-11 2-23 2-34 0l-44-8c-26-6-49-18-69-36-26-24-48-50-65-82-14-25-23-52-26-81l-4-42a396 396 0 0 1 20-162l16-44c5-11 10-22 17-31l27-37c15-19 34-33 56-44 17-8 35-14 54-19 9-2 18-2 28-2h17c14-1 27 0 39 4 15 5 31 10 45 17 21 11 40 25 55 44l27 36c7 10 12 21 17 32l22 58c8 23 11 46 13 70l3 40"/>
    <path fill="#FFF" d="m349.6 512.3 5-3-5-1v4m21-117 8 4-2-7-6 3m-33-65 1-5c0-2-1-3-3-3-2-1-3 1-3 2l-1 6 1 2 3 1c2 0 2.7-1 2-3m-3 114 7 2h1l7-6-5-4h-2l-8 8m34-102v-2c0-2 0-3-3-2-4 1-9 4-13 7v1l1 1 9 1c6 0 6 0 6-6m9 12c2-6 4-10 8-14v-2l-4-9-2-1-1 2-3 21 2 3m0-71-6 2-11 7-3 3 1 3h2l6-3c5-4 10-7 16-7 2 0 2-1 1-2-1-2-3-3-6-3m-6 39-22 11-4 2-1 2c4 4 4 4 9 2l2-1 12-8c3-2 4-4 4-8m-20 75-8-5-8-8c-2 5-5 9-11 12 6 2 11.3 5 16 9h2l9-8m68 51c6-1 11-3 14-8l-1-3c-8-1-13-6-17-12l-3-6c0-2-1-1-2-1-2 1-1 1-1 2l5 13 2 12c1 2 1 3 3 3m-131-77 1-2c4-8 9-14 19-16l1-1 2-8c1-2 0-2-1-3-6-3-16-1-20 5-5 7-5 16-2 25m34 123-6-4c-2-2-2-2-4 0-4 5-9 6-14 6h-3c-2 0-2 1-3 2-2 5-1 13 3 17l7 4 2 1v-2c0-9 4-16 11-21l7-3m-56-95c0 4 0 8 2 11s4 5 7 6c2 0 2 0 2-2v-1c-1-9 2-17 9-22l2-1v-3l-2-9c0-1 0-2-2-1-4 1-7 3-10 6l-5 8c-2 3-4 5-3 8m43 1v-1c-7-1-13-2-18-7h-2c-5 4-9 9-9 17 0 6 3 12 6 17l3 1c2-2 5-4 6-8 0-3 2-5 4-8l10-11m26-36v-1l1-1c3-6 6-12 12-15 2-1 1-2 0-2-4-6-11-9-17-7h-4c-8 1-12 6-14 12-2 3-2 3 1 3 8 1 15 4 20 10l1 1m44 108c2-5 3-9 1-14l-4-9c-1-1-1-2-3-2-7 1-13 0-19-3-3-2-4-1-6 0l-3 3v2c5 3 7 8 9 12 0 2 2 3 3 3 8 0 16 2 22 8m-62-23-2-1c-5 0-9-2-13-6-4-5-8-9-9-15-6 3-9 8-8 14l1 9c0 4 2 8 6 10l13 2c2 1 2 0 3-2 2-4 4-7 7-9l2-2m67 14-3 11-1 5 2 10v5c0 1 0 2 2 2 5 3 13 1 17-3 2-2 3-4 2-7v-7c2-5 0-9-1-12l-2-2c-6 1-11 1-16-2m-102 18v2c0 6 4 10 10 10l4-1c5-1 10-2 15-5v-3c-2-5-4-10-4-15-1-3-1-3-3-3-5 0-10-1-14-4-4-2-4-2-6 2l-1 2c-1 3-2 6-1 10v5m109-185-8 20v3c1 6 4 11 7 16 2 2 3 3 6 3l9 1c3 1 3 1 3-2l-3-6v-3l2 1 4 1c-2-5-4-9-8-13l-1-2 2-1h3l-3-4-5-5c-2-2-2-3 1-4l3-2-6-1-6-3m-40 309c6 0 10-2 13-6 4-5 6-11 7-17 1-7-3-14-9-17-1-1-2-2-3 0l-6 12c-2 5-5 7-9 8l-5 1-2 2c1 5 2 9 5 12 2 3 5 5 9 5m32-228c5-4 9-6 14-6l11 1c2 0 3 0 3-2l5-12-1-4-5-7c-3-5-11-7-16-5l-9 5c-5 2-7 9-4 14l2 7v9m-26 184c0-2-1-3-3-4l-6-4c-4-4-7-8-9-14l-2-1-9 3-2 2c-2 4-3 8-2 12l2 11 1 7c0 7 6 12 14 7l8-5c5-3 7-8 8-14m-15-65 6 9 2 2 13 2c5 0 8-2 10-6l3-5c3-4 4-9 4-13 0-3-2-6-4-7l-7-6c-3-3-7-4-10-4s-4 0-3 3c0 7-2 13-7 19l-7 6m95-63 6-2c7-3 11-11 9-19l-1-7c-2-7-8-12-16-13-6 0-6 0-6 6-1 8-4 15-13 19-1 0-2 1-1 2 2 5 6 10 11 12l11 2m-49-18c1 8-1 15-3 22-1 4-3 7-6 9v3c3 2 4 6 4 10l1 2c6 3 11 4 18 3l5-5 3-11 1-6c0-7-2-14-5-20-1-1-1-2-3-2-5 1-10-1-15-5m-42 99c0-5-1-10-6-15l-6-2h-4c-3 0-6 1-8 3l-4 5c-3.1 5.4-5.8 11.1-8 17-1 7 2 12 8 15 8 4 19 1 24-7 3-5 4-10 4-16m-34-156-6 1c-11 3-17 17-10 26l6 8c8 8 21 6 25-5l4-13 1-5c0-4-1-6-4-8-5-3-10-4-16-4m73 179v-6c-2-5-4-10-9-13-2 0-3-2-4-3-5-5-14-6-22 1l-1 2c-1 6-3 11-7 16v2c3 5 6 11 12 13l7 3c3 1 6 2 9 1l10-6c4-2 5-6 5-10m-33-66-3-12c-5-9-13-12-21-11-5 1-9 4-11 8-3 7-4 14-3 21 2 8 7 13 15 15 7 2 14-1 18-7 3-4 5-9 5-14m-49-41c-2 9 5 15 13 16 10 1 17-4 23-10v-4c-2-6-3-12-1-17 1-4 0-6-2-8-6-6-13-7-21-4l-9 7c-3 4-4 8-4 13l1 7m95-57c-8 0-13 3-17 9s-3 12 1 17c7 10 22 15 35 12 8-2 11-8 9-16-4-13-14-21-28-22m-13 47c0-6-3-13-9-17-5-4-11-6-18-4-5 2-8 5-11 9-4 5-4 10-2 15l3 11 3 5c5 6 15 7 22 2l7-7c4-3 5-8 5-14m-23-68-9 2-6 2c-5 2-9 6-9 12-1 13 2 20 12 25 4 2 7 3 11 2 6-2 12-4 16-10 5-8 4-15 1-23-4-6-9-10-16-10m-36-123 2 5v2l-2-1c-4-5-9-6-15-8l2 3 3 5 1 3-3 1-2-1c0 3 1 5 3 7l4 4 5 9-1 6c-1 2-2 2-4 1-3-1-6-4-8-7l-4-4 1 5v1h-2l-2-2c-3-2-6-4-10-4l2 4v3l-2-1c-4-2-9-2-14-1l3 3c2 1 4 2 3 4s-3 1-5 0l-4-1c-1 4-1 4-4 4l-11-3 4 4 5 6c1 1 1 2-1 3l-4 1 5 3c4 3 4 3 0 6l8 4 4 3-3 2h-1l4 2c5 2 10 2 15 0l5-2c4-1 8 0 11 2 3 3 3 6 0 9l-5 3c-5 2-11 2-16 0-8-3-15 0-21 7-1 2-1 2 1 3l4 2c2 1 1 3 0 3l-3 1c-2 0-5 0-8 3l4 2 3 2c0 2-2 2-3 2l-5 6 6 1c2 1 3 2 2 5l-4 7-3 3c4 1 7 0 10-2h2l1 3-2 4 1 1c4-1 3-1 4-4l2-9c3-9 10-14 19-14l8 2 5-1c3-3 7-7 12-7l1-2 1-5 4-4c2 0 4 1 5 3 2 2 3 5 2 8l13-6c8-4 15-8 21-14l2-3 5-13c0-2 0-2-2-2-4 0-8 1-11 4l-7 4c-4 2-8 0-8-5 0-2 0-2-2-2-6-2-8-6-6-11l1-4 9-15c2-3 2-6 2-10l-1-2-1 3c-1 0-1 2-2 1l-1-2v-5c0-3-1-7-3-9l-1 5-1 1-1-1-1-4c-2-3-3-7-7-9l1 5-1 1h-2l-1-2c-2-3-5-6-10-8m29 19h1c2-2 3-2 4 0v2c4 10 4 19-5 27l-5 7-1 3c-1 2 0 3 1 4 3 1 5 0 7-1 6-6 13-10 22-12h1c4-2 5-5 5-9l-1-5-6-20c-4-14-5-29-1-43 1-3 1-3-2-4l-21-7c-4-1-7-2-11-1l-15 5c-21 6-39 16-57 28-15 11-27 24-37 40l-17 31a252.3 252.3 0 0 0-30 80c-4 14-6 28-6 42v33c1 21 4 42 11 62a340.4 340.4 0 0 0 34 61 238.3 238.3 0 0 0 111 71c6 1 11 2 17 1 12-3 23-6 34-11a280 280 0 0 0 82-63l8-11c10-18 19-36 26-56 5-16 7-33 9-49 1-20 1-39-2-58l-7-31c-8.5-38.6-25-75-48-107-8-12-17-23-28-31l-19-13-16-9c-3-1-3-1-4 2-1 14-1 29 3 43 4 13 4 26 1 39 0 3 0 3 2 5l13 4 2 1-1 3-7 5 7 7 2 4-5 1 9 14v2h-6l1 6c0 2 1 3 3 4 4 2 6 6 5 11v2c0 6-2 11-5 15l-1 1 9 4c4 2 7 5 7 10 1 3 1 3 4 2 10 0 18 4 24 13l2 9-2 9c-1 3-3 7-6 10l-12 7-4 4c-2 7-8 11-15 11-2 0-3 0-3 2-1 3-3 5-6 7l-5 3c-1 1-2 2-1 3l5 11c2 4 2 7-1 11l-2 3c-5 10-12 11-19 10-2 0-4-2-5-1-2 0-3 2-4 4l-1 1-5 3c6 1 9 4 11 8l2 5c3 5 4 10 4 15s-2 9-6 12c-5 3-9 6-14 7l-8 2-2 2 2 2c7 3 11 7 13 14v17c0 4-2 6-5 9-4 3-8 5-13 6s-9 2-13-1c-6-4-9-10-9-17 0-2 0-3-2-4l-7-5-6-9c-3-5-3-11-1-17l4-11c1-2 1-2-1-2-8-2-12-6-15-13v-1c-1-3-1-3-4-2-4 0-8-1-10-4-5-6-7-13-5-20 0-2 2-3 1-4l-3-3-1-1-9-11-1-8 8-14c2-2 2-2 0-5-3-4-5-9-3-14l5-10c1-2 1-2-1-4l-4-4c-1-3-3-4-6-5-5-1-8-4-9-9-1-4-2-7-1-11l1-6c0-6 3-11 9-13l12-6-3-6-2-2h-5c-1 0-2-1-1-2l3-4-4 1c-4 .4-8 .8-12 1l1-2 2-2 5-8c2-4 1-4-2-4h-2c-2 0-3-1-2-4l3-4 4-3-6-2c-2-1-2-3 0-4l3-2 8-2-4-2c-2 0-3-1-2-3l1-2c6-8 12-12 22-11l11 1 7-1 2-3c1-2-1-3-2-3h-8l-7 2c-6 2-12-1-18-4v-3l3-1-10-4c-1-1-3-2-2-3l3-2h1l-3-2-4-3-1-2 2-1 4-1-6-6-4-5 1-2h1l9 2c3 1 3 1 2-2 0-2 0-3 2-2l2 1c2 1 3 2 6 1l-2-2c-1-1-4-1-3-3 0-3 3-2 5-2h11l-3-3v-2l2-1 4 1 7 2c0-3 1-4 3-2l6 5 6 6c1 1 2 0 3-2 0-3-1-5-3-8l-5-6c-3-3-5-7-6-11 0-1 1-2 2-1l3 1-1-2-3-7-2-4 1-2 2 1 4 3 6 3c2 0 3 3 4-1l1-1 4 2 6 4 1-3h2l2 2 7 8v-1l1-2 3 1c2 3 4 7 4 11m166 175a265 265 0 0 1-38 138c-14 24-32 45-57 60a204.8 204.8 0 0 1-71 28c-8 1-17 0-25-2-14-3-28-7-40-14l-24-13a183.5 183.5 0 0 1-65-77c-6-14-13-28-18-43-10-32-13.3-65.7-10-99 1-13 4-26 7-39a251.8 251.8 0 0 1 55-113l16-18c23-27 53-43 88-48 11-2 21 0 31 3a168 168 0 0 1 42 18c13 9 24 19 34 31l17 20c24 29 40 62 49 99l7 32c2 12 2 24 2 37"/>
    <path fill="#00807D" d="m259.6 574.3-2 2c0 2 1 3 3 2l1-2c0-2-1-2-2-2Zm210-241c0-2-1-3-2-3-2 0-3 1-3 2 0 2 1 3 2 3 2 0 3-1 3-2m-161 269c-1 0-2 1-2 3l2 2c2 0 3-1 3-3 0-1-1-2-3-2m-64-245c0-2-1-4-3-4s-3 2-3 4c0 1 1 3 3 3s3-1 3-3m236 142c0-2-1-4-3-4s-4 2-3 4c0 2 1 3 3 3s3-1 3-3m-202 93c-2 0-4 1-4 3 0 3 2 5 4 5s4-2 4-5c0-2-2-3-4-3m8-57c-1-3-3-5-5-5-3 0-6 3-6 6s2 5 5 5 6-3 5-6m-86-130c3 0 6-3 6-6s-3-5-6-5-5 2-5 5 2 6 5 6m236-131c-3 0-6 2-6 5 0 4 3 6 6 6s6-2 6-6c0-3-3-5-6-5m22 243c0-3-2-6-5-6s-6 2-6 5 2 6 5 6c3 1 6-2 6-5m-212-183c0-3-2-6-6-6-3 0-6 2-6 6 0 3 3 6 6 6s6-3 6-6m171 253c-4 0-7 3-7 7a7 7 0 0 0 7.5 6.5 7 7 0 0 0 6.5-7.5c-1-3-3-6-7-6m80-166c-4 0-7 3-7 7 0 3 3 6 7 6 3 0 7-3 7-6 0-4-3-7-7-7m-36-69c0-4-3-8-7-8s-7 4-7 7c0 4 3 7 6 7 5 1 8-2 8-6m-104-105-5-11-2-2-1 3-1 1-7-8-1-2h-3l-1 3-6-4-3-2-2 1c0 3-2 1-3 1l-7-3-4-4h-2l-1 2 2 4 4 7 1 2-4-1c-1-1-2 0-1 1 1 4 2 8 5 11l6 6 2 8c0 2-1 3-3 2l-6-6-6-5c-2-2-3-1-3 2l-7-3h-4l-2 1 1 2 2 3h-11c-2 0-5-1-5 1-1 3 2 3 3 4l2 2-6-1-2-1c-1-1-2 0-2 2 1 3 1 3-2 2l-8-2h-2v2l4 5 5 6-4 1-2 1 1 2 4 3 3 2h-1l-3 2 2 3 10 4-3 1v3c6 3 12 6 18 4l7-3 8 1c2 0 3 1 3 3l-3 3-7 1-11-1c-9-1-16 3-22 11l-1 2c0 2 0 2 2 3l4 2-8 2-3 2c-1 1-1 3 1 4l5 2-4 3-3 4c-1 3 0 4 3 4h1c4 0 4 0 2 4l-5 8-2 2-1 2h2l10-1 4-1-3 4c-1 1 0 2 1 2h5l2 2 3 6-12 5c-5 3-9 8-9 14l-1 6c-1 4 0 7 1 11 1 5 4 7 9 9 3 1 6 2 7 5 0 2 2 3 3 4 2 2 2 2 1 4l-5 10c-1 5 0 10 4 14 2 3 1 3-1 5-3 4-6 9-7 14-1 3-1 6 1 8l8 11 1 1 4 3-2 4c-2 7 0 14 5 20 3 3 6 4 10 3 3 0 3 0 4 3l1 1c2 7 6 11 14 13 2 0 2 0 1 2l-4 11c-2 6-1 12 2 17l6 9c1 2 3 4 6 5 2 1 2 2 2 4 0 7 3 13 9 17 4 3 9 2 13 1 5-1 10-3 14-6 2-3 4-5 4-9 1-5 2-11 0-17-2-7-6-11-13-14l-2-2 2-2 8-2c5-1 10-4 14-7s6-7 6-12l-3-15-3-5c-2-4-5-7-11-8l5-3 2-1 3-4c1-1 3 1 5 1 8 1 15-1 19-10l3-3c2-4 2-7 0-11l-5-11 1-3 6-3 5-7c1-2 1-2 3-2 8 0 13-4 16-11 0-2 2-3 3-4l12-7c3-3 5-7 6-11l2-8c0-3 0-7-2-9-6-9-13-13-24-13-3 0-3 0-3-2-1-5-4-8-8-10l-8-4v-1c4-4 6-9 5-15v-2c1-5-1-9-5-11-2-1-3-2-3-4l-1-6h6v-2l-8-14 4-1-2-4-7-7 7-5 2-3-3-1-12-4c-3-2-3-2-3-5 4-13 3-26-1-39-4-14-4-29-2-43 0-3 0-3 3-2l16 9 19 13c11 8 21 19 28 31 23.2 32 39.5 68.4 48 107l7 31c4.9 35.8 2.5 72.2-7 107-8.6 23.6-20 46.1-34 67a280 280 0 0 1-82 63c-11 5-22 8-34 11-5 1-11 0-16-1a237.8 237.8 0 0 1-123-87c-9-15-16-30-22-45-8-20-11-41-12-62v-33c0-14 3-28 6-42l7-23c5-20 13-39 23-57 6-11 11-21 18-31 9-16 21-29 36-40 18-12 37-22 57-28l15-5c4-1 7 0 11 1l21 7c3 1 3 1 2 4-4 14-3 29 1 43l6 20 1 5c1 4-1 7-5 9h-1c-9 2-16 6-22 12-2 1-4 2-6 1s-3-2-2-4l1-3 6-7c8-8 8-17 5-27l-1-2c-1-2-2-2-3 0h-1"/>
    <path fill="#00807D" d="M327.6 228.3c4 2 7 4 9 8l1 2h2l1-1-1-5c4 2 6 6 7 9l1 4 1 1 1-1 1-5c3 2 3 6 4 9l-1 5 1 2 2-2 2-3v3c1 3 0 7-2 10l-8 15-2 3c-2 6 0 10 6 11 2 1 2 1 2 3 0 5 4 7 8 5l7-5c3-2 7-3 11-3 2 0 2 0 2 2l-5 13-2 2c-6 7-13 11-20 15l-14 6c1-3 0-6-2-9-1-1-3-3-5-2-2 0-3 2-4 4v5l-2 2c-5 0-9 4-12 7l-5 1-8-2c-9 0-16 5-19 14l-2 9c0 3 0 3-4 3h-1l2-4-1-3h-2c-3 1-6 3-10 2l3-3 4-7c1-3 0-4-2-5l-6-1c1-3 3-4 5-6l3-2-3-3-4-1c3-3 6-3 9-4h2c1 0 2-2 1-3l-5-2c-2-1-2-1 0-3 5-7 12-10 20-7 6 2 11 1 16 0l5-3c3-3 3-6 0-9-3-2-7-3-11-2l-5 2c-5 2-10 2-15 0l-4-2h1l3-2-3-3-9-4c5-3 5-3 0-6l-5-3 4-1c2-1 3-2 1-3l-5-6-4-4 11 2c3 1 4 1 4-3l4 1c2 0 4 2 5 0s-1-3-2-4l-3-3c5-1 9-1 13 1l3 1v-3l-3-4c4 0 7 2 10 4l2 2h2v-1l-1-5 4 4c2 3 5 6 8 7 2 1 3 0 4-2l1-5c-1-4-2-6-5-9l-4-4c-2-2-3-4-3-7l2 1 3-1-1-3-3-5-2-3c6 2 11 3 15 8l2 1v-2l-1-5m35 123c7 0 12 4 16 10 4 8 4 15-1 23-4 6-10 8-16 10-4 1-7 0-11-2-10-5-13-12-12-25 0-6 4-10 10-12l5-2c3-2 6-2 9-2m23 68c0 6-1 11-5 14l-7 6c-7 5-16 5-22-1l-3-5-3-11c-2-6-1-10 2-15 3-4 6-7 11-9 7-2 13 0 18 4 6 4 9 11 9 17m13-47c14 1 24 9 28 22 2 7-1 14-9 16-13 3-28-2-35-12-4-5-4-11-1-17 4-6 9-9 17-9m-95 57-1-8c0-4 1-8 4-12l9-7c8-3 15-2 21 4 2 2 3 4 2 7-2 6-1 12 1 18v4c-6 6-13 10-23 10-8-1-15-7-13-16m49 41c0 5-2 10-4 14-5 6-12 9-19 7-8-2-13-7-15-15-1-7 0-14 3-21 2-4 6-7 11-8 8-1 17 2 21 11l3 12m33 66c0 4-1 8-5 10l-10 5c-3 2-6 1-9 0l-7-3c-6-2-9-8-12-13v-2c4-5 6-10 7-16l1-2c8-7 17-6 22-1l4 3c5 3 7 7 9 13v6m-73-179c6 0 11 1 16 4 3 2 4 4 4 8l-1 5-4 13c-4 10-17 13-25 5l-6-8c-7-9-1-23 10-26l6-1m34 156c0 6-1 11-4 16-5 8-16 11-24 7-6-3-9-9-7-15l2-6 5-11 4-5c3-2 5-4 8-3h4l6 2c5 4 6 10 6 15"/>
    <path fill="#00807D" d="M388.6 414.3c5 4 10 6 15 5 2 0 2 1 3 2 3 6 5 13 5 20l-1 6-3 10c-1 3-3 5-5 5-7 2-12 1-18-2l-1-2c0-4-1-8-4-10v-3c3-2 5-5 6-9 2-7 4-14 3-22m49 18-11-2c-5-2-9-7-11-12-1-1 0-2 1-2 9-4 12-11 13-19 0-6 0-7 6-6 8 1 14 6 16 13l1 7c2 8-2 16-9 19l-6 2m-95 63 7-6c5-6 7-12 7-19-1-3 0-3 3-3 4 0 7 1 10 4l7 6c2 1 4 4 4 7 0 4-1 9-4 13l-3 5c-2 4-5 6-10 6l-13-2-2-2-6-9m15 65c-1 6-3 11-8 14l-7 4c-9 6-14 1-15-6l-1-7-2-11c-1-4 0-8 2-12l2-2 9-3c2-1 2 0 2 1 2 5 5 10 9 14l6 4c2 1 3 2 3 4m26-184v-9l-2-7c-3-6-1-12 4-14l9-5c5-2 13 0 16 5l5 7 1 4-4 12c-1 2-2 2-4 2l-11-1c-5 0-9 2-14 6"/>
    <path fill="#00807D" d="M351.6 604.3c-4 0-7-2-9-5-3-3-4-7-5-12l2-2 5-1c4-1 7-3 9-8l6-12c1-2 2-1 3 0 6 2 10 10 9 17 0 6-3 12-7 17-3 4-7 6-13 6m40-309 6 3 6 1-3 2c-3 1-3 2-1 4l5 5 4 4h-4l-2 1 1 2c4 4 6 8 8 13l-4-1-2-1v3l3 6c0 3 0 3-3 2l-9-1c-3 0-4-1-6-3-3-5-6-10-7-16v-3l8-21m-109 188c0 6 4 10 10 10l4-1c5-1 10-2 15-5v-3c-2-5-4-10-4-15 0-3-1-3-3-3-5 0-10-1-14-4-4-2-4-2-6 2l-1 2c-1 3-2 6-1 10v7Zm102-20c5 3 10 3 16 2l2 2c1 3 3 7 2 12l-1 7c1 3 0 5-2 7-4 4-12 6-17 3-2 0-2-1-2-2v-5l-2-10 1-5 3-11m-67-14-2 1-7 10c-1 2-1 3-3 2l-13-2c-4-2-6-6-6-10l-1-9c-1-6 2-11 8-14 1 6 5 10 9 15 4 4 8 6 13 6l2 1m62 24c-6-7-14-9-21-9-2 0-3-1-4-3-2-4-4-9-9-12v-2l3-3c2-1 4-2 6 0 6 3 12 4 19 3 2 0 2 1 3 2l4 9c2 5 1 10-1 15m-44-109-1-1c-5-6-12-9-20-10-3 0-3 0-1-3 2-6 6-11 14-12h4c6-2 13 1 17 7 1 0 2 1 0 2-6 3-9 9-12 15l-1 1v1m-26 36-10 11-4 8c-1 4-4 6-6 8l-3-1c-3-5-6-11-6-17 0-8 4-13 9-17h2c5 5 11 6 18 7v1"/>
    <path fill="#00807D" d="M266.6 399.3c-1-3 1-5 3-8l5-8c3-3 6-5 11-6 1-1 1 0 1 1l2 9v3l-2 1c-7 5-10 13-9 22v1c0 2 0 2-2 2-3-1-5-3-7-6s-2-7-2-11m56 95-7 3c-7 5-11 12-11 21v2l-2-1-7-4c-4-4-5-12-3-17 1-1 1-2 3-2h3c5 0 10-1 14-6 2-2 2-2 4 0l6 4m-34-123c-3-9-3-18 2-25 4-6 14-8 20-5 1 1 2 1 1 3l-2 8-1 1c-10 2-15 8-19 16l-1 2m131 77c-2 0-2-1-3-3l-2-12-5-13c0-1-1-1 1-2 1 0 2-1 2 1l3 6c4 6 9 11 17 12l1 3c-3 5-8 7-14 8m-68-51-9 8h-2c-4.7-4-10-7-16-9 6-3 9-7 11-12l8 8 8 5m20-75c0 4-1 6-4 8l-12 8-2 1c-5 2-5 2-9-2l1-2 4-2 22-11m0-37-11 7-3 3 1 3h2l6-3c5-4 10-7 16-7 2 0 2-1 1-2s-3-3-6-3l-6 2Zm6 69-2-3 3-21 1-2 2 1 4 9v2c-4 4-6 8-8 14m-9-12c0 6 0 6-6 6l-9-1-1-1v-1c4-3 9-6 13-7 3-1 3 0 3 2v2m-34 102 8-8h2l5 4-7 6h-1l-7-2m4-119c0-2-1-3-3-3-2-1-3 1-3 2l-1 6 1 2 6 1v-8Zm32 70 6-3 2 7-8-4m-21 117v-4l5 1-5 3"/>
    <path fill="#FFF" d="M460.6 352.3c0 4-4 7-8 6-3 0-6-3-6-7 0-3 3-7 7-7s7 4 7 8m36 69a7 7 0 1 1 0 13c-4 0-7-3-7-6 0-4 3-7 7-7m-80 166c4 0 6 3 7 6 0 4-3 7-7 7-3 0-6-2-7-6 0-4 3-7 7-7m-171-253c0 3-3 6-6 6s-6-3-6-6c0-4 3-6 6-6 4 0 6 3 6 6m212 183c0 3-3 6-6 5-3 0-5-3-5-6s3-5 6-5 5 3 5 6m-22-243c3 0 6 2 6 5 0 4-3 6-6 6s-6-2-6-6c0-3 3-5 6-5m-236 131c-3 0-5-3-5-6s2-5 5-5 6 2 6 5-3 6-6 6m86 130c1 3-2 6-5 6s-5-2-5-5 3-6 5-6c3 0 5 2 6 5m-8 57c2 0 4 1 4 3 0 3-2 5-4 5-2-1-4-2-4-5 0-2 2-3 4-3m202-93c0 2-1 3-3 3s-3-1-3-3c-1-2 1-4 3-4s3 2 3 4m-236-142c0 2-1 3-3 3s-3-2-3-3c0-2 1-4 3-4s3 2 3 4m64 245c2 0 3 1 3 2 0 2-1 3-3 3l-2-2c-1-2 1-3 2-3m161-269c0 1-1 2-3 2-1 0-2-1-2-3 0-1 1-2 3-2 1 0 2 1 2 3m-210 241-2 2c0 2 1 3 3 2l1-2c0-2-1-2-2-2ZM230 462.1c0 .4-.3 6.8-.2 13.3-6.8.5-5.7-13.3-5.3-15 .2-1.4-4.4 1.7-6.6 3.8.7 1.3 1.7 1 2.9.5-.4 6.2 3.9 11.8 9 11.7.2 6.4.8 12.5 2.7 13 .2.1.4-6.5.6-13.7 12.2-3.8 7.6-18.3 7.6-18.3-.2-.8-2 .3-6 4 1.6 1.6 2.4.6 3.6.2 1 2 1.4 10.5-5.2 13.1l.3-18c0-.2-.2-.3-.4-.3-1.8.2-5 3.4-7.5 6.1 1.5 2.2 3.2.2 4.5-.4m5.9 19.1 2.8 2.8 2.8-2.8-2.8-2.8-2.8 2.8Z"/>
  </g>
</symbol></svg>
