<svg xmlns='http://www.w3.org/2000/svg' viewBox='0 0 696 830' fill='none'><symbol id='YASC_Fill'>
  <g fill="none">
    <path fill="#9D432C" d="M329.4 639h-1c-14-4-27-10-39-17-1-1-2-1 0-3l7-8c1-2 1-2 2-1l4 3 13 12 14 13v1m78-19v1h-1a154.5 154.5 0 0 1-38 17h-1 1v-1l17-16c3-4 8-7 12-10h3l7 8v1"/>
    <path fill="#9D432C" d="M590.4 427c0 18-1 36-3 53l-4 35c-3 20-8 40-17 59a301.2 301.2 0 0 1-80 107c-21 19-47 32-76 38l-35 6a171 171 0 0 1-51 1l-31-6a173.7 173.7 0 0 1-82-37c-14-13-27-26-39-41-20-24-36-50-48-79-5-14-9-29-11-44l-6-52c-2-18-2-36-2-54l2-31c3-33 10-66 22-97l16-41c5-12 11-24 18-35l30-40c14-17 32-31 51-41 10-6 20-10 31-14l28-9c8-2 15-3 23-3l19 1h5l18-1c9 0 18 1 27 4 15 5 29 9 43 16 25 11.3 47.2 28 65 49 11 12 20 25 29 38 8 11 14 24 19 36l17 44a302.6 302.6 0 0 1 20 89l2 49"/>
    <path fill="#FFF" d="M125.4 437v10l3 39 7 34c9 39 28 73 54 103 12 14 26 28 40 40a154.4 154.4 0 0 0 79 36l24 5c13.7 1 27.5.3 41-2l18-3 30-9c19-7 35-17 50-31l24-22a235.9 235.9 0 0 0 62-103 537.7 537.7 0 0 0 13-69v-40l-3-37a354 354 0 0 0-17-82l-19-49c-5-12-11-24-18-35a545.7 545.7 0 0 0-34-46c-12-13-26-24-43-31-30-11.6-61.8-18-94-19-14 1-28 3-42 7-12 3-24 6-36 11a109.4 109.4 0 0 0-51 36 503.2 503.2 0 0 0-47 76l-15 39-7 20a290.7 290.7 0 0 0-17 89l-2 33m452-11-1 30-3 24-3 24c-2 23-8 45-18 65-14 29-31 55-54 77l-19 19c-19 17-41 29-66 35l-29 6-17 2c-10 2-21 2-32 1-17-2-35-5-52-9-25-6-49-18-68-37-11-10-22-20-32-32-20-25-37-52-48-83-4-11-7-23-8-35l-5-40c-7.2-61.1-.4-123 20-181l15-39c5-11 10-22 17-32l28-37c15-18 33-32 53-42a253.4 253.4 0 0 1 71-22l20 1h4l21-1c7 0 13 1 19 3 17 5 33 10 49 18 22 11 41 26 57 45l26 35c7 10 12 21 17 32l19 50c7 19 11 39 14 59s4 40 5 64"/>
    <path fill="#FFF" d="M462.4 433h-1l3 3 1-1-1-1-2-1m-174-36c-4 0-8 2-11 5s-2 4 1 6l1 1 2-1c1-4 4-7 7-10l1-1h-1m191 51h-2l-6 3v1a58 58 0 0 1 13 9h1v-1l-5-11-1-1m-189-48h-2c-3 3-4 6-5 10v5l3 6 1 6v2l1-1v-13c-1-4 0-9 2-13v-2m45-29 2-1 5-1c6-1 5-1 3-6l-1-2-4-5c-2-1-3-1-3 2l-2 10-1 2 1 1m131 78c3.7-.1 7.5-.8 11-2v-2l-7-8c-2-1-4 0-4 1v1l1 2c2 2 1 3-1 3l-4 1-5 1-1 1h1l9 2m-119-78-9 2-1 1h1l4 1 15 7c5 4 8 9 10 15v2h1c3-6 2-11-1-16l-10-8-5-3-5-1m-77 176-5 1-29 4h-2v1l3 2 11 8 3 2c1 1 1 1 2-1l3-5c1-3 4-5 7-7h2l6-4-1-1m156 0h-1v1c2 2 4 4 6 4 4 1 7 4 8 8l2 4c1 2 2 2 4 0l16-11v-1h-1l-24-3-10-2m-19 72-7-8h-3c-4 3-9 6-12 10l-17 16v1c-1 0 0 0 0 0l3-1c12.6-3.8 24.7-9.1 36-16v-2m69-67h-3c-3 0-5 1-6 3l-4 3-13 11c-2 1-2 2 0 3l9 6h2c7-7 13-14 18-22l1-4h-4m-147 86-14-13c-5.3-5.4-11-10.4-17-15-1-1-1-1-2 1l-7 8c-2 2-1 2 0 3a238.5 238.5 0 0 0 40 16m-110-86h-5l-1 1 1 1c5 10 12 18 20 25h2l8-6c3-2 3-2 0-5l-20-16h-5m183-83-1 1v1c3 2 6 4 10 4l8-1 12-6c3-2 7-4 11-4l13-3c8-1 15-2 23 1h2v-1l-1-1c-7-5-15-9-24-9-4-1-8 0-11 4l-3 2-9 7c-8 6-18 8-28 6l-2-1m-117-112h4l1-1v-1l-12-9c-7-2-14-1-19 4l-5 6-10 14h-1v1h1l3-1 21-10c5-2 11-3 17-3m-8-20v1c0 3 1 5 3 6 4 1 7 4 10 7l3 4 1 1 1-2-3-8 1-3v-4l1-10a65 65 0 0 1 6-26v-1h-1l-5 7c-4.2 7.2-9.2 13.9-15 20l-2 8m187 63v-4h-1l-1 1a62.2 62.2 0 0 1-23 17v1l1 1c5 3 11 6 15 11h4l7-5c2-3 3-7 1-10l-3-12m-160-30 1 3 1 1 1-1c4-5 9-9 15-12 4-1 7-3 10-6 2-3 4-4 7-3h2l2-3-1-2-4-3-6-5c-2-4-2-4-5 0v1l-10 12-5 4c-3 2-5 4-6 7l-2 7m90-4-9 2c-6.4 2-12.5 5.1-18 9v2a231 231 0 0 0 7 7l2-1 8-5c6-4 13-5 20-3a53.8 53.8 0 0 1 20 10h1l-1-2c-5-7-11-12-19-16-3-2-7-3-11-3m-18-32c0 9-2 16-4 23l-2 5v1l2-2 2-1c1-1 2-1 3 1 1 1 0 2-1 3h-1l-5 3-6 6v2l1 1 2-1c7-6 15-11 24-12 2 0 2-1 3-3 0-7-2-12-6-17l-10-12h-1v-1l-1 1v3m-3 0v-7l-1-1-1 1-4 6c-3 4-8 8-13 10l-3 1c-3 2-6 5-7 8-1 2-1 2 1 3l7 10 2 4 4 2-1-5-2-1-1-1v-4h3l1 2 2 4 1 1v-1c1-3 2-5-1-8h-1l1-5 4-1c2 1 3 3 2 5l-1 2v6h1l1-3c4-9 6-18 6-28m-128 81-1-7-1-3-8-5h-2l-1 1 1 1c3 5 4 11 4 17 1 5 0 10-3 14l-4 7-3 8c-1 4-1 8 2 11 2 4 6 8 10 9 3 1 5 2 8 1h1l1-1-3-2c-6-4-9-10-8-17l1-9 3-9c2-5 3-11 3-16m71-86c0-3-2-9-5-13-2-5-5-9-6-14v-1h-1l-3 6c-4 10-5 21-6 31l1 4c2 2 2 3 1 5-2 4 0 7 1 11h1l3-11c1-2 0-3-1-5l-1-2c0-1 0-3 2-4l3 2 1 3-2 11-1 5v1l1-1 7-10 2-2c2-4 3-9 3-16m-13 62c0 4 1 7 5 10l4 3c1 1 2 1 3-1 1-4 4-7 7-10l6-6 6-8-1-3h-2c-1-1-2-2-1-3l1-3 3-9v-2l-1 1c-3 4-7 6-11 8l-7 3-8 7c-3 4-4 8-4 13m-7-7 4-2c2-1 3-3 2-6l-1-5-2-2c-2-3-7-4-11-2l-1 1-4-2c0-2 1-4 3-4h3l6 2h1v-2l-4-2h-10l-21 6-17 8-2 1 1 1 4 1 21-1 15 3 7 3 6 2m128 46a77.7 77.7 0 0 1 33 6h1l-1-1c-2-3-4-5-7-6-6.1-3-11.8-6.7-17-11l-13-5c-6 0-13 2-18 5l-5 4-4 7c-1 4 0 5 4 4l27-3m-12 187 2-1 7-4c11-7 22-16 32-25l2-2v-2l-9-9h-2l-7 6-14 13c-4 5-9 8-14 10l-4 2c-2 1-2 2-1 3l7 8 1 1m-144-165-1 10v4l2 1h1c5-2 9-6 11-11 3-7 3-13 2-20l-2-7-11-17a48.7 48.7 0 0 0-21-16l2 2c8 8 13 18 15 29l2 25m24 154-1-1-6-2c-4-2-8-4-11-8l-3-4-8-7-11-9c-2-2-2-2-4 0l-8 9v2l2 2c12 11 24 20 38 28 2 2 2 2 4-1l5-5 3-3v-1m108-226-11 1c-5 1-10 3-14 6l-2 4-1 8c-1 5-4 10-8 15l-15 11-5 3c-2 1-1 2 0 3l3 1c3 0 7 0 10-2l6-4 9-12 6-8c6-7 12-12 21-15 5-2 10-2 15-1l9 3 3 1h1v-1l-2-2-13-8c-3-2-8-3-12-3m-135 65-2-17a48.9 48.9 0 0 0-18-32h-1v1l1 2c4 15 6 31 2 46l-1 8 2 7c3 4 8 6 12 8 2 0 2 0 3-2v-2l2-19m46 33h-5c-2 0-2 0-2 3 2 7 6 13 13 17a36.6 36.6 0 0 0 21 4l13-1c7-1 13-2 20 0h1v-1l-2-2c-5-5-11-9-18-11l-9-2c-8-1-15-3-23-6l-9-1m23-21-8 1-12 4c-4 1-6 4-8 7l1 2 12 3 21 6 6 1c11 2 21 8 28 17l2 3h2v-1l-5-7-4-5c-5-4-9-9-11-15l-3-6c-4-6-9-9-16-10h-5m86-22h-10l-14 3-3 3v3c-1 5 0 11 2 17 1 3 4 5 7 6h5l8-2c10-4 19-8 28-15l2-2 12-6h2v-1l-2-1-8-3-29-2m-85-9 9-1c7-3 13-8 17-13 2-2 3-5 3-7 0-7-2-13-7-18s-11-8-18-9c-1-1-2 0-2 1-1 5-4 8-7 11l-5 5c-3 4-6 7-7 11v5l2 5c3 7 9 10 15 10m-51 120h-2l-6 2-7 9-1 2c-1 3-4 5-8 6l-3 2c-2 1-2 1 0 2 6.9 5.1 13.9 10.1 21 15l3 2c5 2 9 5 11 9l3 3h2c2-5 6-9 10-12l6-5c5-4 9-8 12-14 2-4 5-9 9-13l7-7v-1h-1l-25 1-25-1h-6m92 1-19-1h-3v1l2 2c5 5 10 10 13 17 4 6 9 12 15 16l6 6 7 8c2 4 2 4 4 1 4-6 9-10 15-12 9-4 16-10 23-16v-2l-5-2c-4-1-6-3-8-7v-2l-8-9-3-1h-9l-18 1h-12m-28 95h2l8-10c4-5 9-8 14-12l18-13v-2c-5-3-8-7-10-12l-4-10c-2-4-4-7-9-9-5-3-10-7-13-12l-6-11v-1l-1 1-6 11c-4 5-8 9-13 11-5 3-7 6-9 11l-3 8c-3 6-6 10-11 13v2l19 14c4 2 8 5 11 9l10 11c1 1 1 2 3 1m136-337-1-1-2-5-24-41c-7-11.6-15.8-22-26-31l-27-18-7-4-42-16-2 1c3 15 9 28 19 40 4 5 8 9 14 12l15 8 22 10a138.2 138.2 0 0 1 58 43l2 2h1m-142-115c0-1-1-2-2-1h-1l-26 9a147.8 147.8 0 0 0-43 24c-8 5-15 11-21 19l-4 5-10 14-18 32-6 11-1 2h1l2-2 13-13c9-9 20-17 32-23 8-5 17-8 25-12l20-10c8-4 16-9 22-15l7-8c5-10 9-21 10-32m-162 247 1 20c1.6 19.9 6.3 39.5 14 58 1 2 1 2 3 2l7-2c14-3 27-9 38-18l13-11 2-2 4-11-2-2-5-1-3 1c-4 2-8 2-12 1-10-3-16-12-16-22 0-8 1-16 5-24l4-6c2-5 2-10-1-14l-2-4-1-2c-1-1 0-2 1-2h8l3 2 1-1-1-3-1-3c-1-2 0-3 2-3l4 1c8 3 15 6 21 10l3 2 3-1h1c5-7 14-9 21-6v3c-3 2-4 5-4 9v7c1 5 1 11-1 16l-4 20c-2 9-7 15-15 19l-3 1-1 1v5l3-2 2-2 22-18 10-10a31 31 0 0 0 0-35c-4-6-6-13-5-20v-1c0-2 0-2-2-2-4 2-8 1-12-1l-5-3-7-1-4 1h-14a57.5 57.5 0 0 1-17-6v-3l1-2 5-11 3-6c5-9 13-13 22-14h4v-4c-2-8 0-14 5-20l3-4a219 219 0 0 1 25-20c1-1 2 0 3 1v1l5 10 4 5c3 5 4 10 4 16l-3 12-2 3 1 1 2-1 8-6c1-2 3-2 5-1l4 3c3 1 5 3 7 6h2c3-4 7-6 11-9l6-4 9-8c1-3 2-3 5-1 6 7 12 14 16 22 3 5 5 11 4 18l2 2 9 3c8 4 14 10 19 18l3 5 1 7-2 2-4-2c-8-3-15-3-22 1-2 0-4 2-5 3-9 5-16 11-22 18l-11 11-11 7-11 3-4 1v1l15 2c8 0 15-1 23-4l11-4c2 0 2 0 2-2-1-5 0-10 3-14l7-6c5-3 11-4 16-3l11 1h7a54.7 54.7 0 0 0 29-20l3-3c2 1 2 2 2 4l3 13 2 5c1 7-1 13-7 17l-1 1v2l5 2 1 1 10-2 1-1 3 1v3l-3 1h-1c-2-2-4-1-6-1l-1 2 7 7c1 1 2 2 3 1l5-1 2-1 2 3c0 1-1 2-2 1h-6c-2 0-2 1-1 2v1c3 5 4 10 5 16 1 3 0 4-4 3-9-3-18-3-27 0-6 1-12 2-18 1-3-1-5 0-7 2l-6 4-8 3c-10 3-18-1-22-9l-3-4-4-5-2-14c1-6 0-5-4-3l-3 1-16 5h-17l-13-2c-4-1-8 0-12 2l-6 3c-8 4.8-15.3 10.5-22 17l1 2h5l2-2 1-3c2-4 4-6 8-8l6-2 15-3c10 0 18 4 24 11l2 2 16 22c4 4 6 9 7 14v7c0 2-1 2-3 1-8-4-16-5-25-3l-13 2c-7 0-14-1-20-4-11-5-18-12-20-25l-3-1h-2l-12 4-7 5-8 8c-10 9-21 16-33 21l-9 4-11 6-4 3-2 4c-1 3 1 6 4 5h1l22-1 31 3c9 1 18 1 27-1s18-4 26-4h53l9 1 18 3c7 2 14 2 21 1l25-2c12-2 24-2 35 0l5 1 3-5a261.7 261.7 0 0 0 19-53c5-25.4 6-51.3 3-77a184.2 184.2 0 0 0-21-74l-9-14c-9-10-20-19-32-26l-30-18-26-14c-8-5-15-10-22-17a83.8 83.8 0 0 1-24-38v-1h-1v1c-4 13-10 23-18 33l-21 17-23 14-33 18c-12 7-24 16-34 26-7 7-12 15-17 23-8.8 19.5-15.1 40-19 61l-2 41m341-17a290 290 0 0 1-19 100c-8.6 18.2-17.6 36.2-27 54a262.4 262.4 0 0 1-36 37c-16 11-32 21-50 28l-33 9c-8 1-16 1-24-1-16-3-31-9-46-16l-19-11a141.2 141.2 0 0 1-46-43l-16-26-18-40a305.5 305.5 0 0 1-11-135l11-42c9-27 22-52 39-74l13-15 10-12c12-13.9 26.2-25.7 42-35 14-7 28-13 43-16 10-2 19-1 28 1 14 3 28 8 41 14l14 10c7.9 6.4 15.5 13.1 23 20l26 31c18 22 31 47 40 74 5.5 17.7 9.9 35.7 13 54 2 12 2 23 2 34"/>
    <path fill="#9D432C" d="m180.4 437 2-41 6-24c3-13 8-25 13-37 5-8 10-16 17-23 10-10 22-19 34-26l33-18 23-14 21-17c8-10 14-20 18-33v-1h1v1c5 15 13 28 24 38 7 7 14 12 22 17l25 14c11 6 21 11 31 18 12 7 23 16 32 26l9 14a184.2 184.2 0 0 1 21 74c2 25.7 1 51.5-3 77-2 9-4 18-8 26-3 10-6 19-11 27-1 2-1 4-3 5-1 1-3 0-5-1-11-2-23-2-35 0l-25 2c-7 1-14 1-21-1l-18-3-9-1h-53c-8 0-17 2-26 4s-18 2-27 1l-31-3-22 1h-1c-3 1-5-2-4-5l2-4 4-3 11-6 9-4a112 112 0 0 0 41-29l7-5c4.5-1.8 9.2-3.1 14-4l2 1c2 13 10 20 21 25 6 3 13 4 20 4l13-2c9-2 17-1 24 3l1 1c2 0 3 0 3-2v-7c-1-5-3-10-7-14l-16-22-2-2c-6-7-14-11-24-11-7.3.3-14.4 2-21 5-4 2-6 4-8 8l-1 3-2 2h-6v-2l1-1a124 124 0 0 1 27-19c4-2 8-3 12-2l13 2h17l16-5 3-1c4-2 5-3 4 3l2 14 4 5 3 4c4 8 12 12 22 9l8-3 6-4c2-2 4-3 7-2 6 1 12 0 18-1 9-3 18-3 27 0 4 1 5 0 4-3-1-6-2-11-5-16l-1-1c0-1 0-2 2-2h6c1 1 2 0 2-1l-2-3-2 1-5 1c-1 1-3 0-4-1l-6-7 1-2c2 0 4-1 6 1h1l3-1v-3l-3-1-1 1-10 2-1-1-5-2v-2l1-1c6-4 8-10 7-17l-2-5-3-13c0-2 0-3-2-4l-3 3c-4 5-9 10-16 14-4 3-8 5-13 6h-7l-11-1c-5-1-11 0-16 3l-7 6c-3 4-4 9-3 14 0 2 0 2-2 2l-11 4c-8 3-15 4-23 4l-15-2v-1l4-1 11-3 11-7 11-11a96.8 96.8 0 0 1 27-21c7-4 14-4 22-1l4 2 2-2-2-7-2-5c-5-8-11-14-19-18l-9-3-2-2c1-7-1-13-4-18-4-8-10-15-17-22-2-2-3-2-4 1l-9 8-6 4c-4 3-8 5-11 9h-2c-2-3-4-5-7-6l-4-3c-2-1-4-1-6 1l-7 6-2 1-1-1 2-3 3-12c0-6-1-11-4-16l-4-5-5-10v-1c-1-1-2-2-3-1h-1l-4 3a240.6 240.6 0 0 0-23 21c-5 6-7 12-5 20v4h-4c-9 1-17 5-22 14l-3 6-5 11-1 2v3l2 1 15 5h14l4-1 7 1 5 3c4 2 8 3 12 1 2 0 2 0 2 2v1c-1 7 1 14 5 20l5 12c1 8-1 16-5 23l-10 10a353 353 0 0 0-24 20c-1 1-2 3-3 2s1-6 4-7c8-4 13-10 15-19l4-20c2-5 2-11 1-16v-7c0-4 1-7 4-9v-3c-7-3-16-1-21 6h-1l-3 1-3-2c-8-4.5-16.3-8.2-25-11-2 0-3 1-2 3l1 3 1 3-1 1-3-2h-8c-1 0-2 1-1 2l1 2 2 4c3 4 3 9 1 14l-4 6c-4 8-5 15-5 24 0 10 6 19 16 22 4 1 8 1 12-1l3-1 5 1 2 2-4 11-2 2-13 11c-11 9-24 15-38 18l-7 2c-2 0-2 0-3-2-8-18.4-12.7-38-14-58l-1-20"/>
    <path fill="#9D432C" d="M342.4 190c-1 11-5 22-10 32l-7 8c-6 6-14 11-22 15l-20 10c-8 4-17 7-25 12-12 6-23 14-32 23l-13 13-2 2h-1l1-2 6-11c8.9-15.4 17.9-30.7 27-46l5-5c6-8 13-14 21-19l6-4c12-9 24-15 37-20l26-9h1c1-1 2 0 2 1m142 115h-1l-2-2a138.2 138.2 0 0 0-58-43l-22-10-15-8c-6-3-10-7-14-12a84.5 84.5 0 0 1-19-40l2-1 42 16 7 4c10.4 6.9 20.7 13.9 31 21 8 9 16 17 22 28l24 41 2 5 1 1m-136 337c-2 1-2 0-3-1l-10-11c-3-4-7-7-11-9l-19-14v-2c5-3 8-7 10-13l4-8c1-5 4-8 9-11 5-2 9-6 13-11l6-11 1-1 6 12c3 5 8 9 13 12 5 2 7 5 9 9l3 9c3 6 6 10 11 13v2l-18 13c-5 4-10 7-14 12l-8 10h-2m40-95 18-1h9l3 1 7 9 1 2c2 4 4 6 8 7l5 2v2c-8 6-14 12-23 16-6 2-11 6-15 11-2 4-2 4-4 0l-7-8-7-6c-5-4-10-10-14-16-3-7-8-12-13-17l-2-2v-1h3l31 1m-98-1 24 1 26-1 1 1-7 7c-4 4-7 9-9 13-3 6-7 10-12 14l-6 5c-4 3-8 7-10 12h-2l-3-3c-2-4-6-7-11-9l-3-2-11-6-10-11 3-2c4-1 7-3 8-6l1-2 7-9c2-1 4-3 14-2m45-120c-6 0-12-3-15-10l-2-5v-5c1-4 4-7 7-11l5-5c3-3 6-6 7-11 0-1 1-2 2-1 7 1 13 4 18 9s7 11 7 18c0 2-1 5-3 7-5 5-10 10-17 13l-9 1m85 9c11 0 20 1 29 3l8 2 2 1v1h-2l-12 6-2 2a97 97 0 0 1-36 17h-5c-3-1-6-3-7-6-2-6-3-12-2-17v-3l3-3 14-3h10m-86 22h5c7 1 12 4 16 10l3 6c2 6 6 11 11 15l4 5 5 7-1 1h-1l-2-3c-7-9-17-15-28-17l-6-1-21-5-12-4c-1 0-2-1-1-2 2-3 4-6 7-7l13-4 8-1"/>
    <path fill="#9D432C" d="M311.4 478c2 0 6 0 9 2l23 5 9 2c7 2 13 6 18 11l2 2c1 2-1 1-1 1-7-2-14-1-20 0l-13 1c-7.2.5-14.5-.8-21-4-7-4-11-9-13-17 0-3 0-3 2-3h5m-46-33c-.3 7-1 14-2 21-1 2-1 2-3 2-4-1-9-4-12-8l-2-7 1-8c4-15 2-31-2-46l-1-2v-1h1l2 2c9 8 14 18 16 30l2 17m135-65 12 3 13 8 2 2v1h-1l-3-1-9-3c-5-1-10-1-15 1-9 3-15 8-21 15l-6 9-9 11-6 4c-4 2.3-8.7 2.7-13 1-1-1-2-2 0-3l5-3 15-11c4-5 6-10 8-15l1-7c0-2 0-4 2-5 4-3 9-5 14-6l11-1m-110 229-6 7c-2 2-2 2-4 0-14-8-26-17-38-28l-2-2v-2l8-9c2-2 2-2 3 0l12 9 8 7 3 4c3 4 7 6 11 8l7 3-2 3"/>
    <path fill="#9D432C" d="m268.4 452-2-25c-2-11-7-21-15-29l-2-2h2c7 4 14 9 19 16a278 278 0 0 1 13 24c1 7 1 14-2 20a19 19 0 0 1-12 11l-2-1v-3l1-11m144 165-8-9c-1-1-1-2 1-3l4-2c5-2 10-5 14-10s8-9 14-13l7-6h2l9 9v2l-2 2c-10 9-21 18-32 25l-9 5m12-187-27 3c-4 1-5 0-4-4l4-7 5-4c5-3 12-5 18-5l13 5 4 3 13 8c3 1 5 3 7 6 1 0 1 1-1 1h-1c-10-5-20-6-31-6m-134-48-7-3-15-3-21 1-4-1-1-1 2-1 17-8 21-6h10l4 2v2h-1l-6-2h-3c-2 0-3 2-3 4l4 2 1-1c4-2 9-1 11 2l2 2 1 5c1 3 0 5-2 6h-10m13 9c0-5 1-9 4-13l8-7 7-3c4-2 8-4 11-8h1v1l-3 9-1 3c-1 1 0 2 1 3h2l1 3-6 8-6 6c-3 3-6 6-7 10-1 2-2 2-3 1l-4-3c-4-3-5-6-5-10m13-62c0 7-1 12-3 16l-2 2-7 10h-1l1-5 2-11-1-3-3-2c-2 1-2 3-2 4l1 2c1 2 2 3 1 5l-3 11h-1c-1-4-3-7-1-11 1-2 1-3-1-5l-1-3c1-11 2-22 6-32l3-6c1-1 1 0 1 1 1 5 4 9 6 14 3 4 5 10 5 13m-71 86c0 5-1 11-3 16l-3 9-1 9c-1 7 2 13 8 17l3 2-1 1h-1c-3 1-5 0-8-1-4-1-8-4-11-9-2-3-2-7-1-11l3-8 4-7c3-4 4-9 3-13a32 32 0 0 0-5-19l1-1h2c3 1 6 3 8 6l1 2 1 7m128-81a59.6 59.6 0 0 1-7 31h-1v-6l1-2c1-2 0-4-2-5l-4 1-1 5h1c3 3 2 5 1 8v1l-1-1-2-4-1-2h-3v4l1 1 2 1 1 5-4-2-2-4c-2-4-4-7-8-10v-3c1-3 4-6 7-8l3-1c5-2 10-6 13-10l4-6 1-1 1 1v7"/>
    <path fill="#9D432C" d="M376.4 335v-5l1 1h1l10 12c4 5 6 11 6 17-1 2-1 3-3 3-9 2-17 6-24 12l-2 1h-1v-3l6-6 5-3h1c1-1 2-2 1-3-1-2-2-2-3-1l-2 1-2 2v-1l2-5c2-7 4-14 4-22m18 31c4 0 8 1 11 3a54 54 0 0 1 20 18h-1l-3-2-17-8c-7-1-14-1-20 3l-8 5-2 1h-2l-4-9 1-1 16-8 9-2m-88-3c1-3 3-5 6-7l5-4c4-4 8-8 10-12v-1c3-4 3-4 5 0l6 5 4 3 1 2-2 3h-2c-3-1-5 0-7 3l-10 7a38 38 0 0 0-16 12l-1-1c-1-1-1-6 1-10m158 37c0 3 0 5 2 8l1 4c2 3 1 7-1 10l-7 5h-4a69.8 69.8 0 0 0-16-12v-1l1-1a62.2 62.2 0 0 0 23-17h1v4m-187-63 2-8 2-3 13-17 5-7c1-1 1 0 1 1v1c-4 8-6 16-6 25l-1 10v4l-1 3 3 8-1 2-1-1-3-4c-3-3-6-6-10-7-2-1-3-3-3-6v-1m8 20c-6 0-12 1-17 3-8.7 2.9-17 6.6-25 11l1-1 10-14 5-6c5-5 12-6 19-4l12 9v1l-1 1h-4m117 112 2 1c10 2 20 0 28-6l9-7 3-2c3-4 7-5 11-4a47 47 0 0 1 25 10v1h-2c-7-3-15-2-23-1l-13 3c-4 0-8 2-11 4l-12 6-8 1c-4 0-7-2-10-4l1-2m-177 83 3 2 16 15c3 2 3 2 0 4l-8 6h-2a122.2 122.2 0 0 1-21-26l1-1h11m246 0c2-1 9 0 9 1l-1 3c-5 8-11 15-18 22h-2l-9-6v-3l13-11 4-3 4-3m-45-5 10 2 24 3c2 0 1 1 1 1l-20 11-2-4c-1-4-4-7-8-8-2 0-5-3-6-4v-1h1m-156 0 1 1-6 4h-2c-3 2-6 4-7 8l-3 4c-1 2-1 2-2 1l-3-2-11-8-3-2v-1h2l29-4 5-1m77-176 5 2 5 2 10 8c3 5 4 10 1 16s-1 0-1 0v-2c-2-6-5-11-10-15l-15-7-4-1h-1l1-1 9-2m119 78-9-1-1-1 1-1 5-1 4-1c2 0 2-1 1-3l-1-2v-1c0-1 2-2 4-1l7 8v2h-1l-10 2m-131-78-1-1 1-1 2-11c0-3 1-3 3-2l4 5 1 2c2 5 3 5-3 6l-5 1-2 1m-45 29v2c-2 4-3 9-2 13v13l-1 1v-2l-1-6-3-6v-5c1-4 2-7 5-9l2-1m190 49c3 3 4 7 5 11v1h-1l-1-1c-3-3-7-6-12-8v-1l6-3 3 1m-192-52c2 0 1 1 0 1-3 3-6 6-7 10 0 1-1 2-2 1l-1-1c-3-2-4-3-1-6s7-5 11-5m176 37 1 1-1 1-3-3 3 1"/>
    <path fill="#9E422B" d="M288.4 400h2v2"/>
    <path fill="#FFF" d="M449.5 491.8c0 .4-.3 6.8-.2 13.3-6.8.5-5.7-13.3-5.3-15 .2-1.4-4.4 1.7-6.6 3.8.7 1.3 1.7 1 2.9.5-.5 6.2 3.9 11.8 9 11.7.2 6.4.9 12.5 2.7 13 .2.1.5-6.5.6-13.7 12.2-3.8 7.5-18.3 7.5-18.3-.2-.8-2 .3-6 3.9 1.6 1.7 2.4.7 3.6.3 1 1.9 1.4 10.5-5.1 13.1l.3-18c0-.2-.2-.3-.4-.3-1.8.2-5 3.4-7.5 6.1 1.4 2.2 3.2.2 4.5-.4m5.9 19.1 2.8 2.8 2.8-2.8-2.8-2.8-2.8 2.8Z"/>
  </g>
</symbol></svg>
