<svg xmlns="http://www.w3.org/2000/svg" viewBox="0 0 30 30" fill="none">
<symbol id="_360Videos">
<mask id="mask0_1245_5486" style="mask-type:alpha" maskUnits="userSpaceOnUse" x="3" y="3" width="24" height="24">
<rect x="3" y="3" width="24" height="24" fill="white"/>
</mask>
<g mask="url(#mask0_1245_5486)">
<path fill-rule="evenodd" clip-rule="evenodd" d="M22.0084 9.74994C22.8475 9.74994 23.4066 9.40014 23.4066 7.68898V6.67444C23.4066 4.82276 22.7339 4.56763 22.0084 4.56763C21.1762 4.56763 20.6211 4.9264 20.6211 6.67444V7.68898C20.6211 9.40612 21.1513 9.74994 22.0084 9.74994ZM25.4314 7.80261C25.4314 10.0768 24.2145 11.3296 22.0071 11.3296C19.8056 11.3296 18.5938 10.0768 18.5938 7.80261V6.54989C18.5938 4.22681 19.7737 3 22.0071 3C24.2474 3 25.4314 4.22681 25.4314 6.54989V7.80261ZM6.57451 8.86572C6.69809 9.46866 7.06085 9.73874 7.7485 9.73874C8.22587 9.73874 9.02514 9.61117 9.02514 8.75908C9.02514 8.11229 8.40526 7.88207 7.82524 7.88207H6.68513V6.21177H7.71561C8.43715 6.21177 8.85073 5.89984 8.85073 5.35669C8.85073 4.84843 8.48698 4.5913 7.76943 4.5913C7.19938 4.5913 6.79775 4.92716 6.72201 5.46931L6.69111 5.68358H4.67899L4.72084 5.39855C4.93611 3.9196 6.10412 3.00073 7.76943 3.00073C9.67093 3.00073 10.8519 3.8907 10.8519 5.32281C10.8519 5.98953 10.534 6.56656 9.94599 6.98414C10.6267 7.37182 11.0313 8.01562 11.0313 8.74812C11.0313 10.3656 9.80447 11.3323 7.7485 11.3323C6.00745 11.3323 4.81851 10.4443 4.56936 8.95641L4.51953 8.6664H6.53365L6.57451 8.86572ZM15 13.9675C9.03737 13.9675 3 15.7315 3 19.1C3 21.2586 6.01869 23.6355 12.7537 24.1418L11.6584 25.2141C11.4531 25.4144 11.3395 25.6785 11.3395 25.9556C11.3395 26.2346 11.4531 26.4977 11.6594 26.699C11.8547 26.8874 12.1408 27 12.4258 27C12.6959 27 12.951 26.9013 13.1982 26.693L16.0135 23.9335C16.2208 23.7351 16.3344 23.471 16.3344 23.189C16.3344 22.911 16.2218 22.6479 16.0155 22.4465L13.1673 19.7308C12.7457 19.3232 12.0581 19.3212 11.6345 19.7288C11.4282 19.9291 11.3146 20.1922 11.3146 20.4703C11.3146 20.7513 11.4282 21.0154 11.6355 21.2137L12.5225 22.0678C7.93414 21.6612 5.13371 20.1005 5.13371 19.1239C5.13371 18.516 6.16319 17.7446 7.75675 17.1586C9.69911 16.445 12.2614 16.0524 14.9751 16.0524C21.436 16.0524 24.8165 18.0525 24.8165 19.1239C24.8165 19.8843 23.0505 21.2357 19.1309 21.8585C18.8498 21.8974 18.6057 22.0419 18.4412 22.2632C18.2708 22.4924 18.2021 22.7764 18.2509 23.0943C18.3944 23.6185 18.9575 23.9733 19.5206 23.8946C24.2036 23.1402 27 21.3483 27 19.1C27 15.7315 20.9626 13.9675 15 13.9675ZM14.6852 7.20532C13.9068 7.20532 13.4414 7.68469 13.4414 8.48994C13.4414 9.27127 13.9068 9.73868 14.6852 9.73868C15.309 9.73868 15.9748 9.4108 15.9748 8.48994C15.9748 7.7096 15.4685 7.20532 14.6852 7.20532ZM17.9456 8.47701C17.9456 10.1842 16.6351 11.3323 14.6848 11.3323C12.7613 11.3323 11.4688 10.1902 11.4688 8.48996C11.4688 7.71461 11.6691 7.09173 12.1584 6.3383L14.2423 3.13623H16.5235L14.8861 5.60381C16.7497 5.66361 17.9456 6.7778 17.9456 8.47701Z" fill="currentColor"/>
</g>
</symbol>
</svg>
