<svg xmlns="http://www.w3.org/2000/svg" viewBox="0 0 30 30" fill="none">
<symbol id="CalendarOptions">
<path fill-rule="evenodd" clip-rule="evenodd" d="M20.449 3C21.061 3 21.557 3.495 21.557 4.105V4.963H22.629C24.901 4.963 26.75 6.807 26.75 9.073V14.076C26.1412 13.5698 25.4645 13.1424 24.7356 12.8095V9.07302C24.7356 7.91502 23.7906 6.97302 22.6296 6.97302H21.5576V7.67502C21.5576 8.28602 21.0616 8.78102 20.4496 8.78102C19.8376 8.78102 19.3416 8.28602 19.3416 7.67502V6.97302H10.6596V7.67502C10.6596 8.28602 10.1626 8.78102 9.55162 8.78102C8.93962 8.78102 8.44263 8.28602 8.44263 7.67502V6.97302H7.37162C6.21062 6.97302 5.26562 7.91502 5.26562 9.07302V22.89C5.26562 24.049 6.21062 24.991 7.37162 24.991H12.9311C13.2936 25.7226 13.7527 26.3978 14.2917 27H7.371C5.098 27 3.25 25.156 3.25 22.89V9.073C3.25 6.807 5.098 4.963 7.371 4.963H8.442V4.105C8.442 3.495 8.939 3 9.551 3C10.162 3 10.659 3.495 10.659 4.105V4.963H19.341V4.105C19.341 3.495 19.837 3 20.449 3ZM28 21C28 17.134 24.866 14 21 14C17.134 14 14 17.134 14 21C14 24.866 17.134 28 21 28C24.866 28 28 24.866 28 21ZM16 21C16 18.2386 18.2386 16 21 16C23.7614 16 26 18.2386 26 21C26 23.7614 23.7614 26 21 26C18.2386 26 16 23.7614 16 21ZM21 17C21.5128 17 21.9355 17.386 21.9933 17.8834L22 18L21.999 20.365L23.2581 20.9586C23.722 21.1772 23.9398 21.7066 23.78 22.1811L23.7364 22.2895C23.5178 22.7534 22.9884 22.9712 22.5139 22.8114L22.4055 22.7678L20.5737 21.9046C20.2624 21.7579 20.0512 21.4632 20.0081 21.1276L20 21V18C20 17.4477 20.4477 17 21 17Z" fill="currentColor"/>
</symbol>
</svg>
