<svg xmlns="http://www.w3.org/2000/svg" viewBox="0 0 30 30" fill="none">
<symbol id="CalendarFavorites">
<path fill-rule="evenodd" clip-rule="evenodd" d="M20.449 3C21.061 3 21.557 3.495 21.557 4.105V4.963H22.629C24.901 4.963 26.75 6.807 26.75 9.073V22.89C26.75 25.156 24.901 27 22.629 27H7.371C5.098 27 3.25 25.156 3.25 22.89V9.073C3.25 6.807 5.098 4.963 7.371 4.963H8.442V4.105C8.442 3.495 8.939 3 9.551 3C10.162 3 10.659 3.495 10.659 4.105V4.963H19.341V4.105C19.341 3.495 19.837 3 20.449 3ZM8.44263 6.97302H7.37162C6.21062 6.97302 5.26562 7.91502 5.26562 9.07302V22.89C5.26562 24.049 6.21062 24.991 7.37162 24.991H22.6296C23.7906 24.991 24.7356 24.049 24.7356 22.89V9.07302C24.7356 7.91502 23.7906 6.97302 22.6296 6.97302H21.5576V7.67502C21.5576 8.28602 21.0616 8.78102 20.4496 8.78102C19.8376 8.78102 19.3416 8.28602 19.3416 7.67502V6.97302H10.6596V7.67502C10.6596 8.28602 10.1626 8.78102 9.55162 8.78102C8.93962 8.78102 8.44263 8.28602 8.44263 7.67502V6.97302ZM15.0013 9.82202C15.3013 9.82202 15.5673 10.003 15.6793 10.285L17.1313 13.958L21.0143 14.191C21.3143 14.21 21.5693 14.406 21.6633 14.691C21.7583 14.977 21.6713 15.286 21.4433 15.482L18.4473 18.035L19.3983 21.809C19.4713 22.1 19.3643 22.402 19.1233 22.579C18.9943 22.674 18.8433 22.723 18.6913 22.723C18.5583 22.723 18.4263 22.686 18.3073 22.613L15.0013 20.555L11.6953 22.613C11.4473 22.766 11.1153 22.753 10.8793 22.581C10.6383 22.402 10.5313 22.1 10.6043 21.809L11.5553 18.035L8.5583 15.482C8.3303 15.286 8.2443 14.977 8.3383 14.691C8.4333 14.406 8.6873 14.21 8.9873 14.191L12.8703 13.958L14.3233 10.285C14.4343 10.003 14.7003 9.82202 15.0013 9.82202ZM14.9987 12.54L14.0527 14.932C13.9487 15.195 13.6997 15.378 13.4177 15.393L10.8867 15.546L12.8427 17.212C13.0567 17.395 13.1467 17.678 13.0787 17.951L12.4587 20.411L14.6147 19.07C14.7327 18.995 14.8657 18.96 14.9987 18.96C15.1317 18.96 15.2637 18.995 15.3827 19.07L17.5387 20.411L16.9187 17.951C16.8497 17.678 16.9397 17.395 17.1537 17.212L19.1107 15.546L16.5787 15.393C16.2977 15.378 16.0487 15.195 15.9447 14.932L14.9987 12.54Z" fill="currentColor"/>
</symbol>
</svg>
