<svg xmlns="http://www.w3.org/2000/svg" viewBox="0 0 30 30" fill="none">
<symbol id="CallBack">
<path fill-rule="evenodd" clip-rule="evenodd" d="M7.80676 17.074C7.61376 16.879 7.35776 16.772 7.08376 16.772H5.81276C5.39076 16.772 5.04576 16.426 5.04576 16.002V7.327C5.04576 6.901 5.39076 6.555 5.81276 6.555H16.8808C17.3038 6.555 17.6488 6.901 17.6488 7.327V16.002C17.6488 16.426 17.3038 16.772 16.8808 16.772H10.4948C10.2288 16.772 9.97676 16.874 9.78476 17.058L8.10576 18.682V17.801C8.10576 17.526 7.99976 17.267 7.80676 17.074ZM24.9558 19.376C24.9558 19.801 24.6108 20.147 24.1888 20.147H22.9158C22.6438 20.147 22.3868 20.254 22.1938 20.448C22.0038 20.64 21.8938 20.905 21.8938 21.176V22.056L20.0518 20.276L13.1188 20.147C12.6958 20.147 12.3508 19.801 12.3508 19.376V18.828H16.8808C18.4318 18.828 19.6938 17.56 19.6938 16.002V9.93H24.1888C24.6108 9.93 24.9558 10.276 24.9558 10.702V19.376ZM24.1878 7.874H19.6938V7.327C19.6938 5.768 18.4318 4.5 16.8808 4.5H5.81276C4.26176 4.5 2.99976 5.768 2.99976 7.327V16.002C2.99976 17.56 4.26176 18.828 5.81276 18.828H6.05976L6.05476 21.098C6.05476 21.666 6.51476 22.126 7.08076 22.126C7.34576 22.126 7.59776 22.025 7.78976 21.84L10.3068 19.408C10.3238 20.951 11.5788 22.202 13.1188 22.202H19.0938L22.2118 25.214C22.4038 25.399 22.6558 25.5 22.9238 25.5C23.1928 25.5 23.4448 25.396 23.6328 25.205C23.8338 25.002 23.9448 24.721 23.9428 24.414L23.9408 22.202H24.1878C25.7378 22.202 26.9998 20.934 26.9998 19.376V10.702C26.9998 9.143 25.7378 7.874 24.1878 7.874Z" fill="currentColor"/>
</symbol>
</svg>
