<svg xmlns="http://www.w3.org/2000/svg" viewBox="0 0 30 30" fill="none">
<symbol id="ClockSpeed">
<path fill-rule="evenodd" clip-rule="evenodd" d="M27 15C27 11.134 23.866 8 20 8C16.134 8 13 11.134 13 15C13 18.866 16.134 22 20 22C23.866 22 27 18.866 27 15ZM15 15C15 12.2386 17.2386 10 20 10C22.7614 10 25 12.2386 25 15C25 17.7614 22.7614 20 20 20C17.2386 20 15 17.7614 15 15ZM5 11C5 10.4477 5.44772 10 6 10H12C12.5523 10 13 10.4477 13 11C13 11.5523 12.5523 12 12 12H6C5.44772 12 5 11.5523 5 11ZM3 15C3 14.4477 3.44772 14 4 14H10C10.5523 14 11 14.4477 11 15C11 15.5523 10.5523 16 10 16H4C3.44772 16 3 15.5523 3 15ZM6 18C5.44772 18 5 18.4477 5 19C5 19.5523 5.44772 20 6 20H12C12.5523 20 13 19.5523 13 19C13 18.4477 12.5523 18 12 18H6ZM20.9933 11.8834C20.9355 11.386 20.5128 11 20 11C19.4477 11 19 11.4477 19 12V15L19.0081 15.1276C19.0512 15.4632 19.2624 15.7579 19.5737 15.9046L21.4055 16.7678L21.5139 16.8114C21.9884 16.9712 22.5178 16.7534 22.7364 16.2895L22.78 16.1811C22.9398 15.7066 22.722 15.1772 22.2581 14.9586L20.999 14.365L21 12L20.9933 11.8834Z" fill="currentColor"/>
</symbol>
</svg>
