<svg xmlns="http://www.w3.org/2000/svg" viewBox="0 0 30 30" fill="none">
<symbol id="CreditCard">
<g id="State=Credit card">
<path id="Credit card" fill-rule="evenodd" clip-rule="evenodd" d="M23.261 5.75C25.322 5.75 27 7.438 27 9.513V20.487C27 22.562 25.322 24.25 23.261 24.25H6.739C4.678 24.25 3 22.562 3 20.487V9.513C3 7.438 4.678 5.75 6.739 5.75H23.261ZM23.261 7.755H6.739C5.777 7.755 4.993 8.544 4.993 9.513V20.487C4.993 21.456 5.777 22.244 6.739 22.244H23.261C24.224 22.244 25.007 21.456 25.007 20.487V9.513C25.007 8.544 24.224 7.755 23.261 7.755ZM16.9 18.93C17.35 18.93 17.717 19.296 17.717 19.747C17.717 20.197 17.35 20.564 16.9 20.564H7.553C7.103 20.564 6.736 20.197 6.736 19.747C6.736 19.296 7.103 18.93 7.553 18.93H16.9ZM11.251 16.056C11.702 16.056 12.069 16.423 12.069 16.874C12.069 17.324 11.702 17.691 11.251 17.691H7.554C7.103 17.691 6.737 17.324 6.737 16.874C6.737 16.423 7.103 16.056 7.554 16.056H11.251ZM10.157 9.092C11.192 9.092 12.034 9.934 12.034 10.969V12.512C12.034 13.547 11.192 14.389 10.157 14.389H8.613C7.578 14.389 6.736 13.547 6.736 12.512V10.969C6.736 9.934 7.578 9.092 8.613 9.092H10.157ZM10.157 10.536H8.613C8.375 10.536 8.181 10.731 8.181 10.969V12.512C8.181 12.75 8.375 12.944 8.613 12.944H10.157C10.395 12.944 10.589 12.75 10.589 12.512V10.969C10.589 10.731 10.395 10.536 10.157 10.536Z" fill="currentColor"/>
</g>
</symbol>
</svg>
