<svg xmlns="http://www.w3.org/2000/svg" viewBox="0 0 30 30" fill="none">
<symbol id="DocumentUserDetails">
<g id="State=User details">
<path id="Vector 1 (Stroke)" fill-rule="evenodd" clip-rule="evenodd" d="M3 5C3 3.34315 4.34315 2 6 2H24C25.6569 2 27 3.34315 27 5V25C27 26.6569 25.6569 28 24 28H6C4.34315 28 3 26.6569 3 25V5ZM6 4C5.44772 4 5 4.44771 5 5V25C5 25.5523 5.44772 26 6 26H24C24.5523 26 25 25.5523 25 25V5C25 4.44771 24.5523 4 24 4H6Z" fill="currentColor"/>
<path id="Fill 11" fill-rule="evenodd" clip-rule="evenodd" d="M8.0522 16H21.9478C22.538 16 23 15.5607 23 15C23 14.4393 22.538 14 21.9478 14H8.0522C7.46204 14 7 14.4393 7 15C7 15.5607 7.46204 16 8.0522 16Z" fill="currentColor"/>
<path id="Fill 22" fill-rule="evenodd" clip-rule="evenodd" d="M12.0522 20H19.9478C20.538 20 21 19.5607 21 19C21 18.4393 20.538 18 19.9478 18H12.0522C11.462 18 11 18.4393 11 19C11 19.5607 11.462 20 12.0522 20Z" fill="currentColor"/>
<path id="Fill 26" fill-rule="evenodd" clip-rule="evenodd" d="M15.0522 8H21.9478C22.538 8 23 7.56067 23 7C23 6.43933 22.538 6 21.9478 6H15.0522C14.462 6 14 6.43933 14 7C14 7.56067 14.462 8 15.0522 8Z" fill="currentColor"/>
<path id="Fill 27" fill-rule="evenodd" clip-rule="evenodd" d="M15.0522 12H19.9478C20.538 12 21 11.5607 21 11C21 10.4393 20.538 10 19.9478 10H15.0522C14.462 10 14 10.4393 14 11C14 11.5607 14.462 12 15.0522 12Z" fill="currentColor"/>
<path id="Fill 23" fill-rule="evenodd" clip-rule="evenodd" d="M12.0522 24H21.9478C22.538 24 23 23.5607 23 23C23 22.4393 22.538 22 21.9478 22H12.0522C11.462 22 11 22.4393 11 23C11 23.5607 11.462 24 12.0522 24Z" fill="currentColor"/>
<path id="Fill 24" fill-rule="evenodd" clip-rule="evenodd" d="M8.0522 20H7.9478C8.53796 20 9 19.5607 9 19C9 18.4393 8.53796 18 7.9478 18H8.0522C7.46204 18 7 18.4393 7 19C7 19.5607 7.46204 20 8.0522 20Z" fill="currentColor"/>
<path id="Fill 25" fill-rule="evenodd" clip-rule="evenodd" d="M8.0522 24H7.9478C8.53796 24 9 23.5607 9 23C9 22.4393 8.53796 22 7.9478 22H8.0522C7.46204 22 7 22.4393 7 23C7 23.5607 7.46204 24 8.0522 24Z" fill="currentColor"/>
<path id="Credit card" fill-rule="evenodd" clip-rule="evenodd" d="M10.6087 6.09204C11.7808 6.09204 12.7344 7.04579 12.7344 8.21815V9.96593C12.7344 11.1383 11.7808 12.092 10.6087 12.092H8.86008C7.68794 12.092 6.73438 11.1383 6.73438 9.96593V8.21815C6.73438 7.04579 7.68794 6.09204 8.86008 6.09204H10.6087ZM10.6089 7.72766H8.86034C8.5908 7.72766 8.37109 7.94854 8.37109 8.21813V9.96591C8.37109 10.2355 8.5908 10.4552 8.86034 10.4552H10.6089C10.8785 10.4552 11.0982 10.2355 11.0982 9.96591V8.21813C11.0982 7.94854 10.8785 7.72766 10.6089 7.72766Z" fill="currentColor"/>
</g>
</symbol>
</svg>
