<svg xmlns="http://www.w3.org/2000/svg" viewBox="0 0 30 30" fill="none">
<symbol id="DocumentPDF">
<g id="State=PDF">
<path id="Vector 1 (Stroke)" fill-rule="evenodd" clip-rule="evenodd" d="M3 5C3 3.34315 4.34315 2 6 2H24C25.6569 2 27 3.34315 27 5V25C27 26.6569 25.6569 28 24 28H6C4.34315 28 3 26.6569 3 25V5ZM6 4C5.44772 4 5 4.44771 5 5V25C5 25.5523 5.44772 26 6 26H24C24.5523 26 25 25.5523 25 25V5C25 4.44771 24.5523 4 24 4H6Z" fill="currentColor"/>
<path id="Fill 10" fill-rule="evenodd" clip-rule="evenodd" d="M8.0522 16H21.9478C22.538 16 23 15.5607 23 15C23 14.4393 22.538 14 21.9478 14H8.0522C7.46204 14 7 14.4393 7 15C7 15.5607 7.46204 16 8.0522 16Z" fill="currentColor"/>
<path id="Fill 11" fill-rule="evenodd" clip-rule="evenodd" d="M8.0522 20H21.9478C22.538 20 23 19.5607 23 19C23 18.4393 22.538 18 21.9478 18H8.0522C7.46204 18 7 18.4393 7 19C7 19.5607 7.46204 20 8.0522 20Z" fill="currentColor"/>
<path id="Fill 12" fill-rule="evenodd" clip-rule="evenodd" d="M8.0522 24H14.9478C15.538 24 16 23.5607 16 23C16 22.4393 15.538 22 14.9478 22H8.0522C7.46204 22 7 22.4393 7 23C7 23.5607 7.46204 24 8.0522 24Z" fill="currentColor"/>
<g id="PDF">
<path d="M9.33556 9.68537H8.21909V11.3942C8.21909 11.6385 8.16162 11.8238 8.04669 11.9501C7.93176 12.0764 7.78673 12.1395 7.6116 12.1395C7.42825 12.1395 7.28049 12.0778 7.16829 11.9542C7.0561 11.828 7 11.644 7 11.4025V6.74943C7 6.4804 7.06157 6.28824 7.18471 6.17294C7.30785 6.05765 7.50351 6 7.77168 6H9.33556C9.79802 6 10.1538 6.03569 10.4028 6.10706C10.6491 6.17569 10.8611 6.28961 11.039 6.44883C11.2196 6.60805 11.3564 6.80296 11.4495 7.03355C11.5425 7.26414 11.589 7.52356 11.589 7.8118C11.589 8.42672 11.4002 8.89339 11.0226 9.21183C10.6449 9.52752 10.0826 9.68537 9.33556 9.68537ZM9.04002 6.91825H8.21909V8.763H9.04002C9.32735 8.763 9.56679 8.7328 9.75834 8.67241C9.95263 8.61201 10.1004 8.51319 10.2016 8.37593C10.3029 8.23867 10.3535 8.05886 10.3535 7.83651C10.3535 7.57023 10.2755 7.35336 10.1195 7.18591C9.94442 7.00747 9.58457 6.91825 9.04002 6.91825Z" fill="currentColor"/>
<path d="M13.3622 6H14.9507C15.3639 6 15.7183 6.03843 16.0139 6.1153C16.3094 6.19216 16.5776 6.33628 16.8184 6.54766C17.445 7.08571 17.7583 7.90376 17.7583 9.00182C17.7583 9.36419 17.7269 9.69498 17.6639 9.9942C17.601 10.2934 17.5038 10.5638 17.3725 10.8054C17.2411 11.0442 17.0729 11.2583 16.8676 11.4478C16.7062 11.5932 16.5297 11.7099 16.3381 11.7978C16.1466 11.8856 15.94 11.9474 15.7183 11.9831C15.4994 12.0187 15.2518 12.0366 14.9754 12.0366H13.3869C13.1652 12.0366 12.9983 12.0036 12.8861 11.9378C12.7739 11.8691 12.7 11.7744 12.6644 11.6536C12.6316 11.5301 12.6152 11.3709 12.6152 11.176V6.74943C12.6152 6.48589 12.674 6.2951 12.7917 6.17706C12.9094 6.05902 13.0995 6 13.3622 6ZM13.8343 6.96767V11.0648H14.7578C14.9603 11.0648 15.119 11.0593 15.234 11.0483C15.3489 11.0374 15.4679 11.0099 15.5911 10.966C15.7142 10.9221 15.8209 10.8603 15.9112 10.7807C16.319 10.4348 16.5228 9.8391 16.5228 8.99359C16.5228 8.39789 16.4325 7.9518 16.2519 7.65533C16.0741 7.35885 15.8538 7.17081 15.5911 7.0912C15.3284 7.00884 15.0109 6.96767 14.6388 6.96767H13.8343Z" fill="currentColor"/>
<path d="M22.4253 6.94296H20.0241V8.48711H22.0313C22.2174 8.48711 22.3556 8.52966 22.4459 8.61476C22.5389 8.69711 22.5854 8.80829 22.5854 8.94829C22.5854 9.0883 22.5389 9.19948 22.4459 9.28183C22.3528 9.36419 22.2146 9.40536 22.0313 9.40536H20.0241V11.3942C20.0241 11.6468 19.9667 11.8348 19.8517 11.9584C19.7395 12.0791 19.5945 12.1395 19.4166 12.1395C19.236 12.1395 19.0883 12.0778 18.9733 11.9542C18.8611 11.8307 18.805 11.644 18.805 11.3942V6.74943C18.805 6.57374 18.831 6.43099 18.883 6.32118C18.935 6.20863 19.0157 6.12765 19.1252 6.07824C19.2374 6.02608 19.3797 6 19.5521 6H22.4253C22.6196 6 22.7633 6.04392 22.8563 6.13177C22.9521 6.21687 23 6.32942 23 6.46942C23 6.61217 22.9521 6.72747 22.8563 6.81531C22.7633 6.90041 22.6196 6.94296 22.4253 6.94296Z" fill="currentColor"/>
</g>
</g>
</symbol>
</svg>
