<svg xmlns="http://www.w3.org/2000/svg" viewBox="0 0 30 30" fill="none">
<symbol id="DocumentTicket">
<g id="State=Ticket">
<path id="Shape" fill-rule="evenodd" clip-rule="evenodd" d="M5 24.8627V5.25807C5 4.65625 5.59312 4.16667 6.32249 4.16667H23.6775C24.4069 4.16667 25 4.65625 25 5.25807V24.8627L23.3283 23.5351C22.8703 23.1748 22.1867 23.1727 21.739 23.5265L18.7631 25.8323L15.7872 23.5255C15.3395 23.1791 14.6605 23.1802 14.2117 23.5265L11.2358 25.8333L8.26444 23.5297C8.04002 23.3523 7.7572 23.2636 7.47438 23.2636C7.18813 23.2636 6.90073 23.3544 6.67058 23.5361L5 24.8627ZM6.60781 2C4.61897 2 3 3.43799 3 5.20434V26.9347C3 27.3634 3.27906 27.7477 3.71093 27.9155C3.8571 27.9725 4.01214 28 4.16606 28C4.44733 28 4.72417 27.9081 4.9379 27.7329L7.72957 25.4682L10.5999 27.7392C11.0329 28.0781 11.6884 28.0781 12.1225 27.7371L14.9994 25.4587L17.8808 27.7392C18.3127 28.0771 18.966 28.0771 19.4035 27.7371L22.2704 25.4682L25.061 27.7318C25.3943 28.0032 25.8727 28.076 26.2891 27.9155C26.7209 27.7477 27 27.3623 27 26.9347V5.20434C27 3.43799 25.381 2 23.3922 2H6.60781ZM8.0522 8H21.9478C22.538 8 23 7.56067 23 7C23 6.43933 22.538 6 21.9478 6H8.0522C7.46204 6 7 6.43933 7 7C7 7.56067 7.46204 8 8.0522 8ZM21.9478 12H8.0522C7.46204 12 7 11.5607 7 11C7 10.4393 7.46204 10 8.0522 10H21.9478C22.538 10 23 10.4393 23 11C23 11.5607 22.538 12 21.9478 12ZM8.0522 16H21.9478C22.538 16 23 15.5607 23 15C23 14.4393 22.538 14 21.9478 14H8.0522C7.46204 14 7 14.4393 7 15C7 15.5607 7.46204 16 8.0522 16ZM14.9478 20H8.0522C7.46204 20 7 19.5607 7 19C7 18.4393 7.46204 18 8.0522 18H14.9478C15.538 18 16 18.4393 16 19C16 19.5607 15.538 20 14.9478 20Z" fill="currentColor"/>
</g>
</symbol>
</svg>
