<svg xmlns="http://www.w3.org/2000/svg" viewBox="0 0 30 30" fill="none">
<symbol id="DocumentInsurrance">
<g id="State=Insurrance">
<path id="Vector 1 (Stroke)" fill-rule="evenodd" clip-rule="evenodd" d="M3 5C3 3.34315 4.34315 2 6 2H24C25.6569 2 27 3.34315 27 5V25C27 26.6569 25.6569 28 24 28H6C4.34315 28 3 26.6569 3 25V5ZM6 4C5.44772 4 5 4.44771 5 5V25C5 25.5523 5.44772 26 6 26H24C24.5523 26 25 25.5523 25 25V5C25 4.44771 24.5523 4 24 4H6Z" fill="currentColor"/>
<path id="Fill 10" fill-rule="evenodd" clip-rule="evenodd" d="M8.0522 18H21.9478C22.538 18 23 17.5607 23 17C23 16.4393 22.538 16 21.9478 16H8.0522C7.46204 16 7 16.4393 7 17C7 17.5607 7.46204 18 8.0522 18Z" fill="currentColor"/>
<path id="Fill 11" fill-rule="evenodd" clip-rule="evenodd" d="M8.0522 21H21.9478C22.538 21 23 20.5607 23 20C23 19.4393 22.538 19 21.9478 19H8.0522C7.46204 19 7 19.4393 7 20C7 20.5607 7.46204 21 8.0522 21Z" fill="currentColor"/>
<path id="Fill 12" fill-rule="evenodd" clip-rule="evenodd" d="M8.0522 24H14.9478C15.538 24 16 23.5607 16 23C16 22.4393 15.538 22 14.9478 22H8.0522C7.46204 22 7 22.4393 7 23C7 23.5607 7.46204 24 8.0522 24Z" fill="currentColor"/>
<path id="Fill 13" fill-rule="evenodd" clip-rule="evenodd" d="M12.0522 11H17.9478C18.538 11 19 10.5607 19 10C19 9.43933 18.538 9 17.9478 9H12.0522C11.462 9 11 9.43933 11 10C11 10.5607 11.462 11 12.0522 11Z" fill="currentColor"/>
<path id="Fill 14" fill-rule="evenodd" clip-rule="evenodd" d="M16 12.9478V7.0522C16 6.46204 15.5607 6 15 6C14.4393 6 14 6.46204 14 7.0522V12.9478C14 13.538 14.4393 14 15 14C15.5607 14 16 13.538 16 12.9478Z" fill="currentColor"/>
</g>
</symbol>
</svg>
