<svg xmlns="http://www.w3.org/2000/svg" viewBox="0 0 30 30" fill="none">
<symbol id="DocumentPassport">
<g id="State=Passport">
<path id="Vector 1 (Stroke)" fill-rule="evenodd" clip-rule="evenodd" d="M3 5C3 3.34315 4.34315 2 6 2H24C25.6569 2 27 3.34315 27 5V25C27 26.6569 25.6569 28 24 28H6C4.34315 28 3 26.6569 3 25V5ZM6 4C5.44772 4 5 4.44771 5 5V25C5 25.5523 5.44772 26 6 26H24C24.5523 26 25 25.5523 25 25V5C25 4.44771 24.5523 4 24 4H6Z" fill="currentColor"/>
<path id="Fill 22" fill-rule="evenodd" clip-rule="evenodd" d="M11.0522 21H18.9478C19.538 21 20 20.5607 20 20C20 19.4393 19.538 19 18.9478 19H11.0522C10.462 19 10 19.4393 10 20C10 20.5607 10.462 21 11.0522 21Z" fill="currentColor"/>
<path id="Fill 23" fill-rule="evenodd" clip-rule="evenodd" d="M13.0522 24H16.9478C17.538 24 18 23.5607 18 23C18 22.4393 17.538 22 16.9478 22H13.0522C12.462 22 12 22.4393 12 23C12 23.5607 12.462 24 13.0522 24Z" fill="currentColor"/>
<path id="Union" fill-rule="evenodd" clip-rule="evenodd" d="M14.8396 7.00316C14.8928 7.00106 14.9463 7 15 7C15.0537 7 15.1072 7.00106 15.1604 7.00316C15.8993 8.05785 16.3128 9.26957 16.4008 10.5H13.5992C13.6872 9.26957 14.1007 8.05785 14.8396 7.00316ZM16.5063 7.29332C17.035 8.29951 17.3339 9.39398 17.4031 10.5H18.9691C18.7873 9.0423 17.8211 7.82818 16.5063 7.29332ZM18.9691 11.5H17.4031C17.3339 12.606 17.035 13.7005 16.5063 14.7067C17.8211 14.1718 18.7873 12.9577 18.9691 11.5ZM15.1604 14.9968C15.1072 14.9989 15.0537 15 15 15C14.9463 15 14.8928 14.9989 14.8396 14.9968C14.1007 13.9422 13.6872 12.7304 13.5992 11.5H16.4008C16.3128 12.7304 15.8993 13.9422 15.1604 14.9968ZM13.4937 14.7067C12.1789 14.1718 11.2127 12.9577 11.0309 11.5H12.5969C12.6661 12.606 12.965 13.7005 13.4937 14.7067ZM11.0309 10.5H12.5969C12.6661 9.39398 12.965 8.29951 13.4937 7.29332C12.1789 7.82818 11.2127 9.0423 11.0309 10.5ZM15 5C11.6863 5 9 7.68629 9 11C9 14.3137 11.6863 17 15 17C18.3137 17 21 14.3137 21 11C21 7.68629 18.3137 5 15 5Z" fill="currentColor"/>
</g>
</symbol>
</svg>
