<svg xmlns="http://www.w3.org/2000/svg" viewBox="0 0 30 30" fill="none">
<symbol id="DocumentDefault">
<g id="State=Document">
<path id="Union" fill-rule="evenodd" clip-rule="evenodd" d="M6 2C4.34315 2 3 3.34315 3 5V25C3 26.6569 4.34315 28 6 28H24C25.6569 28 27 26.6569 27 25V5C27 3.34315 25.6569 2 24 2H6ZM5 5C5 4.44771 5.44772 4 6 4H24C24.5523 4 25 4.44771 25 5V25C25 25.5523 24.5523 26 24 26H6C5.44772 26 5 25.5523 5 25V5ZM22.4564 18.6712C22.7144 18.8212 22.8964 19.0622 22.9684 19.3502C23.0394 19.6352 22.9924 19.9312 22.8374 20.1812L20.8064 23.4712C20.6334 23.7532 20.3284 23.9482 19.9934 23.9882C19.9484 23.9942 19.9044 23.9962 19.8584 23.9962C19.5694 23.9962 19.2914 23.8852 19.0824 23.6812L17.7294 22.3662C17.5164 22.1602 17.3984 21.8832 17.3984 21.5872C17.3974 21.2912 17.5154 21.0142 17.7294 20.8062C18.1564 20.3902 18.8534 20.3902 19.2824 20.8062L19.6414 21.1562L20.9474 19.0422C21.2614 18.5352 21.9394 18.3682 22.4564 18.6712ZM8.0522 8H21.9478C22.538 8 23 7.56067 23 7C23 6.43933 22.538 6 21.9478 6H8.0522C7.46204 6 7 6.43933 7 7C7 7.56067 7.46204 8 8.0522 8ZM21.9478 12H8.0522C7.46204 12 7 11.5607 7 11C7 10.4393 7.46204 10 8.0522 10H21.9478C22.538 10 23 10.4393 23 11C23 11.5607 22.538 12 21.9478 12ZM8.0522 16H21.9478C22.538 16 23 15.5607 23 15C23 14.4393 22.538 14 21.9478 14H8.0522C7.46204 14 7 14.4393 7 15C7 15.5607 7.46204 16 8.0522 16ZM14.9478 20H8.0522C7.46204 20 7 19.5607 7 19C7 18.4393 7.46204 18 8.0522 18H14.9478C15.538 18 16 18.4393 16 19C16 19.5607 15.538 20 14.9478 20Z" fill="currentColor"/>
</g>
</symbol>
</svg>
