<svg xmlns="http://www.w3.org/2000/svg" viewBox="0 0 30 30" fill="none">
<symbol id="DocumentList">
<g id="State=List">
<path id="Vector 1 (Stroke)" fill-rule="evenodd" clip-rule="evenodd" d="M3 5C3 3.34315 4.34315 2 6 2H24C25.6569 2 27 3.34315 27 5V25C27 26.6569 25.6569 28 24 28H6C4.34315 28 3 26.6569 3 25V5ZM6 4C5.44772 4 5 4.44771 5 5V25C5 25.5523 5.44772 26 6 26H24C24.5523 26 25 25.5523 25 25V5C25 4.44771 24.5523 4 24 4H6Z" fill="currentColor"/>
<path id="Fill 12" fill-rule="evenodd" clip-rule="evenodd" d="M12.0522 16H21.9478C22.538 16 23 15.5607 23 15C23 14.4393 22.538 14 21.9478 14H12.0522C11.462 14 11 14.4393 11 15C11 15.5607 11.462 16 12.0522 16Z" fill="currentColor"/>
<path id="Fill 18" fill-rule="evenodd" clip-rule="evenodd" d="M12.0522 20H19.9478C20.538 20 21 19.5607 21 19C21 18.4393 20.538 18 19.9478 18H12.0522C11.462 18 11 18.4393 11 19C11 19.5607 11.462 20 12.0522 20Z" fill="currentColor"/>
<path id="Fill 20" fill-rule="evenodd" clip-rule="evenodd" d="M12.0522 24H21.9478C22.538 24 23 23.5607 23 23C23 22.4393 22.538 22 21.9478 22H12.0522C11.462 22 11 22.4393 11 23C11 23.5607 11.462 24 12.0522 24Z" fill="currentColor"/>
<path id="Fill 14" fill-rule="evenodd" clip-rule="evenodd" d="M12.0522 12H17.9478C18.538 12 19 11.5607 19 11C19 10.4393 18.538 10 17.9478 10H12.0522C11.462 10 11 10.4393 11 11C11 11.5607 11.462 12 12.0522 12Z" fill="currentColor"/>
<path id="Fill 16" fill-rule="evenodd" clip-rule="evenodd" d="M12.0522 8H21.9478C22.538 8 23 7.56067 23 7C23 6.43933 22.538 6 21.9478 6H12.0522C11.462 6 11 6.43933 11 7C11 7.56067 11.462 8 12.0522 8Z" fill="currentColor"/>
<path id="Fill 13" fill-rule="evenodd" clip-rule="evenodd" d="M8.0522 16H7.9478C8.53796 16 9 15.5607 9 15C9 14.4393 8.53796 14 7.9478 14H8.0522C7.46204 14 7 14.4393 7 15C7 15.5607 7.46204 16 8.0522 16Z" fill="currentColor"/>
<path id="Fill 19" fill-rule="evenodd" clip-rule="evenodd" d="M8.0522 20H7.9478C8.53796 20 9 19.5607 9 19C9 18.4393 8.53796 18 7.9478 18H8.0522C7.46204 18 7 18.4393 7 19C7 19.5607 7.46204 20 8.0522 20Z" fill="currentColor"/>
<path id="Fill 21" fill-rule="evenodd" clip-rule="evenodd" d="M8.0522 24H7.9478C8.53796 24 9 23.5607 9 23C9 22.4393 8.53796 22 7.9478 22H8.0522C7.46204 22 7 22.4393 7 23C7 23.5607 7.46204 24 8.0522 24Z" fill="currentColor"/>
<path id="Fill 15" fill-rule="evenodd" clip-rule="evenodd" d="M8.0522 12H7.9478C8.53796 12 9 11.5607 9 11C9 10.4393 8.53796 10 7.9478 10H8.0522C7.46204 10 7 10.4393 7 11C7 11.5607 7.46204 12 8.0522 12Z" fill="currentColor"/>
<path id="Fill 17" fill-rule="evenodd" clip-rule="evenodd" d="M8.0522 8H7.9478C8.53796 8 9 7.56067 9 7C9 6.43933 8.53796 6 7.9478 6H8.0522C7.46204 6 7 6.43933 7 7C7 7.56067 7.46204 8 8.0522 8Z" fill="currentColor"/>
</g>
</symbol>
</svg>
