<svg xmlns="http://www.w3.org/2000/svg" viewBox="0 0 30 30" fill="none">
<symbol id="Filters">
<path fill-rule="evenodd" clip-rule="evenodd" d="M22.5274 11.4266C22.5274 10.6376 21.8884 9.99658 21.1034 9.99658C20.3184 9.99658 19.6794 10.6376 19.6794 11.4266C19.6794 12.2146 20.3184 12.8556 21.1034 12.8556C21.8884 12.8556 22.5274 12.2146 22.5274 11.4266ZM24.3408 12.5806C23.9898 13.5356 23.2428 14.2846 22.2908 14.6366C20.5028 15.2986 18.5108 14.3766 17.8508 12.5806L17.8028 12.4466H4.01676C3.45676 12.4466 2.99976 11.9896 2.99976 11.4266C2.99976 10.8626 3.45676 10.4056 4.01676 10.4056H17.8148L17.8638 10.2716C18.2138 9.3166 18.9608 8.5676 19.9128 8.2156C20.7788 7.8966 21.7188 7.9316 22.5568 8.3206C23.3958 8.7086 24.0338 9.4016 24.3528 10.2716L24.4018 10.4056H25.9838C26.5438 10.4056 26.9998 10.8626 26.9998 11.4266C26.9998 11.9896 26.5438 12.4466 25.9838 12.4466H24.3888L24.3408 12.5806ZM11.5428 19.5016C11.5428 18.7126 10.9038 18.0716 10.1188 18.0716C9.33376 18.0716 8.69476 18.7126 8.69476 19.5016C8.69476 20.2886 9.33376 20.9296 10.1188 20.9296C10.9038 20.9296 11.5428 20.2886 11.5428 19.5016ZM6.81976 20.5206H4.01676C3.45676 20.5206 2.99976 20.0636 2.99976 19.5016C2.99976 18.9376 3.45676 18.4806 4.01676 18.4806H6.83176L6.87976 18.3466C7.23076 17.3906 7.97776 16.6416 8.92976 16.2896C9.79576 15.9696 10.7348 16.0066 11.5738 16.3946C12.4128 16.7836 13.0498 17.4766 13.3698 18.3466L13.4178 18.4806H25.9838C26.5438 18.4806 26.9998 18.9376 26.9998 19.5016C26.9998 20.0636 26.5438 20.5206 25.9838 20.5206H13.4058L13.3578 20.6546C13.0068 21.6106 12.2598 22.3596 11.3078 22.7116C10.4408 23.0306 9.50176 22.9946 8.66376 22.6066C7.82476 22.2176 7.18776 21.5246 6.86776 20.6546L6.81976 20.5206Z" fill="currentColor"/>
</symbol>
</svg>
