<svg xmlns="http://www.w3.org/2000/svg" viewBox="0 0 30 30" fill="none">
<symbol id="GridList">
<path fill-rule="evenodd" clip-rule="evenodd" d="M11 19H5L5 25H11V19ZM5 17C3.89543 17 3 17.8954 3 19V25C3 26.1046 3.89543 27 5 27H11C12.1046 27 13 26.1046 13 25V19C13 17.8954 12.1046 17 11 17H5ZM11 5H5L5 11H11V5ZM5 3C3.89543 3 3 3.89543 3 5V11C3 12.1046 3.89543 13 5 13H11C12.1046 13 13 12.1046 13 11V5C13 3.89543 12.1046 3 11 3H5ZM18 3C17.4477 3 17 3.44772 17 4C17 4.55228 17.4477 5 18 5H26C26.5523 5 27 4.55228 27 4C27 3.44772 26.5523 3 26 3H18ZM17 18C17 17.4477 17.4477 17 18 17H26C26.5523 17 27 17.4477 27 18C27 18.5523 26.5523 19 26 19H18C17.4477 19 17 18.5523 17 18ZM18 7C17.4477 7 17 7.44772 17 8C17 8.55228 17.4477 9 18 9H26C26.5523 9 27 8.55228 27 8C27 7.44772 26.5523 7 26 7H18ZM17 22C17 21.4477 17.4477 21 18 21H26C26.5523 21 27 21.4477 27 22C27 22.5523 26.5523 23 26 23H18C17.4477 23 17 22.5523 17 22ZM18 11C17.4477 11 17 11.4477 17 12C17 12.5523 17.4477 13 18 13H22C22.5523 13 23 12.5523 23 12C23 11.4477 22.5523 11 22 11H18ZM17 26C17 25.4477 17.4477 25 18 25H22C22.5523 25 23 25.4477 23 26C23 26.5523 22.5523 27 22 27H18C17.4477 27 17 26.5523 17 26Z" fill="currentColor"/>
</symbol>
</svg>
