<svg xmlns="http://www.w3.org/2000/svg" viewBox="0 0 30 30" fill="none">
<symbol id="GridDefault">
<path fill-rule="evenodd" clip-rule="evenodd" d="M25 5H19V11H25V5ZM19 3C17.8954 3 17 3.89543 17 5V11C17 12.1046 17.8954 13 19 13H25C26.1046 13 27 12.1046 27 11V5C27 3.89543 26.1046 3 25 3H19ZM5 19H11V25H5L5 19ZM3 19C3 17.8954 3.89543 17 5 17H11C12.1046 17 13 17.8954 13 19V25C13 26.1046 12.1046 27 11 27H5C3.89543 27 3 26.1046 3 25V19ZM19 19H25V25H19V19ZM17 19C17 17.8954 17.8954 17 19 17H25C26.1046 17 27 17.8954 27 19V25C27 26.1046 26.1046 27 25 27H19C17.8954 27 17 26.1046 17 25V19ZM5 5H11V11H5L5 5ZM3 5C3 3.89543 3.89543 3 5 3H11C12.1046 3 13 3.89543 13 5V11C13 12.1046 12.1046 13 11 13H5C3.89543 13 3 12.1046 3 11V5Z" fill="currentColor"/>
</symbol>
</svg>
