<svg xmlns="http://www.w3.org/2000/svg" viewBox="0 0 30 30" fill="none">
<symbol id="Internet">
<path fill-rule="evenodd" clip-rule="evenodd" d="M16.813 15.809C16.68 16.331 16.506 16.776 16.296 17.129C16.088 17.486 15.851 17.779 15.591 17.999C15.329 18.224 15.047 18.382 14.752 18.469C14.469 18.555 14.183 18.598 13.901 18.598C13.297 18.598 12.829 18.389 12.511 17.976C12.206 17.585 12.051 17.039 12.051 16.353C12.051 15.695 12.172 15.05 12.409 14.436C12.644 13.826 12.971 13.276 13.379 12.803C13.794 12.323 14.286 11.94 14.844 11.664C15.716 11.229 16.766 11.157 17.701 11.331L17.964 11.381L16.813 15.809ZM20.513 10.024C20.081 9.851 19.635 9.715 19.186 9.618C18.657 9.503 18.017 9.445 17.282 9.445C16.431 9.445 15.646 9.543 14.949 9.739C14.251 9.935 13.613 10.205 13.054 10.54C12.493 10.877 12 11.276 11.589 11.723C11.173 12.178 10.824 12.668 10.552 13.18C10.278 13.694 10.068 14.236 9.927 14.793C9.788 15.36 9.72 15.9 9.72 16.442C9.72 17.023 9.794 17.569 9.939 18.064C10.084 18.55 10.304 18.973 10.59 19.32C10.874 19.669 11.234 19.948 11.66 20.149C12.084 20.348 12.595 20.45 13.175 20.45C13.886 20.45 14.558 20.303 15.175 20.015C15.789 19.727 16.383 19.238 16.941 18.56L17.242 18.195L17.376 18.648C17.567 19.293 17.891 19.745 18.366 20.027C18.854 20.319 19.417 20.466 20.04 20.466C20.885 20.466 21.677 20.279 22.392 19.91C23.117 19.536 23.754 19.017 24.286 18.368C24.823 17.712 25.248 16.931 25.547 16.044C25.847 15.155 26 14.184 26 13.159C26 11.63 25.709 10.236 25.135 9.015C24.56 7.795 23.78 6.747 22.815 5.9C21.847 5.05 20.722 4.39 19.472 3.938C18.218 3.482 16.888 3.25 15.518 3.25C14.438 3.25 13.391 3.394 12.408 3.676C11.422 3.959 10.493 4.361 9.645 4.87C8.8 5.376 8.019 5.995 7.323 6.708C6.626 7.424 6.024 8.217 5.537 9.063C5.044 9.914 4.661 10.836 4.398 11.804C4.134 12.773 4 13.786 4 14.815C4 16.657 4.31 18.336 4.921 19.807C5.534 21.278 6.392 22.539 7.47 23.557C8.552 24.579 9.853 25.373 11.337 25.921C12.824 26.471 14.465 26.75 16.216 26.75C17.942 26.75 19.496 26.54 20.839 26.125C21.961 25.778 22.969 25.338 23.858 24.824C24.207 24.712 24.465 24.397 24.465 24.011C24.465 23.534 24.076 23.146 23.597 23.146C23.532 23.146 23.474 23.17 23.412 23.184C23.41 23.184 23.408 23.183 23.406 23.183C23.341 23.183 23.222 23.205 23.022 23.315C22.656 23.528 22.236 23.729 21.778 23.912C21.302 24.102 20.782 24.27 20.234 24.41C19.652 24.559 19.028 24.675 18.378 24.755C17.707 24.841 16.978 24.884 16.216 24.884C14.81 24.884 13.482 24.67 12.27 24.249C11.053 23.826 9.979 23.183 9.076 22.34C8.176 21.498 7.458 20.434 6.941 19.177C6.427 17.926 6.166 16.458 6.166 14.815C6.166 13.457 6.404 12.172 6.872 10.997C7.343 9.817 8.004 8.781 8.837 7.915C9.67 7.047 10.67 6.354 11.808 5.855C12.943 5.355 14.191 5.102 15.518 5.102C16.722 5.102 17.851 5.273 18.873 5.61C19.9 5.95 20.796 6.464 21.536 7.14C22.278 7.821 22.862 8.674 23.273 9.678C23.684 10.677 23.892 11.849 23.892 13.159C23.892 13.943 23.808 14.679 23.642 15.348C23.472 16.022 23.24 16.611 22.953 17.1C22.661 17.601 22.31 17.997 21.913 18.28C21.301 18.708 20.581 18.795 19.951 18.644C19.731 18.59 19.54 18.488 19.384 18.338C19.232 18.19 19.112 18 19.026 17.772C18.941 17.542 18.899 17.265 18.899 16.945C18.899 16.496 18.98 15.958 19.146 15.3L20.513 10.024Z" fill="currentColor"/>
</symbol>
</svg>
