<svg xmlns="http://www.w3.org/2000/svg" viewBox="0 0 30 30" fill="none">
<symbol id="Invisible">
<g id="Property 1=Invisible">
<path id="Union" fill-rule="evenodd" clip-rule="evenodd" d="M25.7073 5.70711C26.0978 5.31658 26.0978 4.68342 25.7073 4.29289C25.3168 3.90237 24.6836 3.90237 24.2931 4.29289L20.1014 8.48451C18.5533 7.60604 16.8243 7 15.0002 7C9.89545 7 5.53518 11.7462 3.80105 13.9271C3.29548 14.563 3.29548 15.437 3.80105 16.0729C4.67618 17.1735 6.22012 18.9274 8.19103 20.3949L4.29307 24.2929C3.90254 24.6834 3.90254 25.3166 4.29307 25.7071C4.68359 26.0976 5.31676 26.0976 5.70728 25.7071L25.7073 5.70711ZM9.62217 18.9638L10.5555 18.0305C9.58904 16.9654 9.00017 15.5515 9.00017 14C9.00017 12.8421 9.32816 11.7608 9.89629 10.844C9.70813 10.9729 9.52159 11.107 9.33689 11.2455C7.67617 12.4915 6.33158 13.9795 5.50449 15C6.33158 16.0205 7.67617 17.5085 9.33689 18.7545C9.43151 18.8255 9.52662 18.8953 9.62217 18.9638ZM11.7399 22.3816L13.3348 20.7867C13.8877 20.9251 14.4442 21 15.0002 21C16.9399 21 18.8863 20.0878 20.6635 18.7545C22.3242 17.5085 23.6688 16.0205 24.4959 15C23.8815 14.2419 22.9816 13.2259 21.8787 12.2428L23.295 10.8265C24.5585 11.9644 25.5583 13.121 26.1993 13.9271C26.7049 14.563 26.7049 15.437 26.1993 16.0729C24.4652 18.2538 20.1049 23 15.0002 23C13.8701 23 12.7766 22.7674 11.7399 22.3816ZM21.0002 14C21.0002 13.7209 20.9811 13.4462 20.9442 13.1773L14.1774 19.9441C14.4464 19.9809 14.7211 20 15.0002 20C18.3139 20 21.0002 17.3137 21.0002 14Z" fill="currentColor"/>
</g>
</symbol>
</svg>
