<svg xmlns="http://www.w3.org/2000/svg" viewBox="0 0 30 30" fill="none">
<symbol id="Padlock">
<path fill-rule="evenodd" clip-rule="evenodd" d="M20.95 25.0371C21.287 25.0351 21.565 24.7531 21.568 24.4081L21.563 14.9511C21.561 14.6081 21.284 14.3241 20.944 14.3221H9.055C8.716 14.3241 8.439 14.6081 8.437 14.9521V24.4081C8.439 24.7521 8.716 25.0351 9.056 25.0371H20.95ZM10.668 9.36113V12.3551L19.333 12.3541V9.35513C19.334 8.17913 18.883 7.07313 18.066 6.24113C17.247 5.41113 16.161 4.95513 15.008 4.95513H15C13.86 4.95613 12.743 5.42713 11.937 6.24613C11.118 7.07912 10.668 8.18513 10.668 9.36113ZM21.269 12.3881C21.851 12.4621 22.389 12.7371 22.798 13.1751C23.248 13.6561 23.498 14.2871 23.5 14.9511V24.4081C23.498 25.1001 23.232 25.7501 22.75 26.2381C22.268 26.7281 21.627 26.9991 20.945 27.0001H9.055C8.372 26.9991 7.731 26.7281 7.249 26.2381C6.767 25.7501 6.501 25.1001 6.5 24.4081V14.9571C6.502 14.2921 6.752 13.6611 7.202 13.1801C7.611 12.7431 8.148 12.4681 8.731 12.3931V9.36112C8.731 7.09513 9.932 4.98413 11.865 3.85013C13.797 2.71712 16.199 2.71613 18.135 3.85013C20.068 4.98413 21.269 7.09513 21.269 9.36112V12.3881ZM15.0173 16.2137C15.5753 16.2137 16.0993 16.4637 16.4543 16.9007C16.8133 17.3427 16.9543 17.9187 16.8433 18.4797C16.7393 19.0007 16.4293 19.4457 15.9853 19.7197V22.3687C15.9853 22.9187 15.5433 23.3657 15.0003 23.3657C14.4573 23.3657 14.0163 22.9187 14.0163 22.3687V19.7197C13.5723 19.4467 13.2623 19.0007 13.1563 18.4807C13.0453 17.9177 13.1873 17.3417 13.5463 16.9007C13.9023 16.4637 14.4253 16.2137 14.9843 16.2137H15.0173Z" fill="currentColor"/>
</symbol>
</svg>
