<svg xmlns="http://www.w3.org/2000/svg" viewBox="0 0 30 30" fill="none">
<symbol id="PaymentPlan">
<g id="State=Payment plan">
<path id="Union" fill-rule="evenodd" clip-rule="evenodd" d="M27 9.513C27 7.438 25.322 5.75 23.261 5.75H6.739C4.678 5.75 3 7.438 3 9.513V20.487C3 22.562 4.678 24.25 6.739 24.25H23.261C25.322 24.25 27 22.562 27 20.487V9.513ZM6.739 7.755H23.261C24.224 7.755 25.007 8.544 25.007 9.513V20.487C25.007 21.456 24.224 22.244 23.261 22.244H6.739C5.777 22.244 4.993 21.456 4.993 20.487V9.513C4.993 8.544 5.777 7.755 6.739 7.755ZM16.5 14C15.9477 14 15.5 14.4477 15.5 15C15.5 15.5523 15.9477 16 16.5 16H20.5C21.0523 16 21.5 15.5523 21.5 15C21.5 14.4477 21.0523 14 20.5 14H16.5ZM15.5 18C15.5 17.4477 15.9477 17 16.5 17H22.5C23.0523 17 23.5 17.4477 23.5 18C23.5 18.5523 23.0523 19 22.5 19H16.5C15.9477 19 15.5 18.5523 15.5 18ZM16.5 11C15.9477 11 15.5 11.4477 15.5 12C15.5 12.5523 15.9477 13 16.5 13H22.5C23.0523 13 23.5 12.5523 23.5 12C23.5 11.4477 23.0523 11 22.5 11H16.5ZM10.0002 9.5C10.5525 9.5 11.0002 9.94772 11.0002 10.5V11.1168C11.5226 11.2472 11.9312 11.4741 12.2404 11.7318C12.4746 11.927 12.6369 12.1273 12.7448 12.2891C12.7987 12.37 12.8394 12.4418 12.8692 12.4997C12.8841 12.5286 12.8963 12.5542 12.9061 12.5759C12.911 12.5867 12.9153 12.5966 12.9191 12.6054L12.9243 12.6178L12.9266 12.6234L12.9277 12.6261L12.9282 12.6273C12.9282 12.6273 12.9287 12.6286 12.0002 13L12.9287 12.6286C13.1338 13.1414 12.8844 13.7234 12.3716 13.9285C11.8721 14.1283 11.3069 13.8967 11.0884 13.4106C11.0867 13.4077 11.0841 13.4036 11.0807 13.3984C11.0635 13.3727 11.0258 13.323 10.96 13.2682C10.8445 13.1719 10.5725 13 10.0002 13C9.33888 13 9.12898 13.1563 9.08416 13.1983C9.05546 13.2252 9.01243 13.2804 9.00237 13.4314C9.02848 13.4555 9.07528 13.4927 9.15521 13.5426C9.42745 13.7128 9.82232 13.8653 10.3514 14.0637C10.4173 14.0884 10.4876 14.1142 10.561 14.1411L10.5616 14.1413C10.9735 14.2925 11.4852 14.4803 11.889 14.722C12.4011 15.0287 13.0002 15.5775 13.0002 16.5C13.0002 17.1195 12.8062 17.8051 12.2185 18.3156C11.8806 18.6091 11.4669 18.7966 11.0002 18.8998V19.5C11.0002 20.0523 10.5525 20.5 10.0002 20.5C9.44793 20.5 9.00022 20.0523 9.00022 19.5V18.8738C8.50452 18.7414 8.11169 18.5198 7.81302 18.2809C7.58085 18.0951 7.41428 17.9062 7.30178 17.7563C7.24537 17.681 7.20185 17.6147 7.16985 17.5619C7.15381 17.5355 7.14058 17.5124 7.12998 17.4931C7.12468 17.4835 7.12003 17.4748 7.11601 17.4671L7.11044 17.4564L7.108 17.4516L7.10687 17.4494L7.10632 17.4483C7.10632 17.4483 7.10579 17.4472 8.00022 17L7.10579 17.4472C6.8588 16.9532 7.05903 16.3526 7.55301 16.1056C8.03826 15.8629 8.62648 16.0519 8.88124 16.5269C8.88434 16.5318 8.8911 16.542 8.90178 16.5562C8.92991 16.5938 8.98209 16.6549 9.06241 16.7191C9.21038 16.8375 9.49314 17 10.0002 17C10.6203 17 10.8456 16.859 10.9069 16.8057C10.942 16.7753 10.9935 16.7166 10.9996 16.5364C10.9956 16.5326 10.9908 16.5284 10.9853 16.5238C10.959 16.5015 10.9193 16.4725 10.8614 16.4379C10.6337 16.3015 10.3362 16.1913 9.91841 16.0365L9.91839 16.0365C9.83373 16.0052 9.7441 15.972 9.64908 15.9363L9.60005 15.9179C9.13667 15.7443 8.55656 15.527 8.09522 15.2386C7.62348 14.9438 7.00022 14.4002 7.00022 13.5C7.00022 12.9537 7.14896 12.2711 7.71628 11.7392C8.06071 11.4163 8.49557 11.2095 9.00022 11.0991V10.5C9.00022 9.94772 9.44793 9.5 10.0002 9.5ZM8.97312 13.3987C8.97312 13.3987 8.97694 13.4023 8.98097 13.4098C8.97453 13.4024 8.97312 13.3987 8.97312 13.3987Z" fill="currentColor"/>
</g>
</symbol>
</svg>
