<svg xmlns='http://www.w3.org/2000/svg' viewBox='0 0 30 30' fill='none'>
<symbol id='PeopleDouble'>
<path fill-rule="evenodd" clip-rule="evenodd" d="M21.0000388,14.25 C21.0000388,15.3546 20.1045388,16.25 19.0000388,16.25 C17.8954388,16.25 17.0000388,15.3546 17.0000388,14.25 C17.0000388,13.1454 17.8954388,12.25 19.0000388,12.25 C20.1045388,12.25 21.0000388,13.1454 21.0000388,14.25 Z M20.3029388,18.033 C19.8945388,18.1736 19.4561388,18.25 19.0000388,18.25 C18.5438388,18.25 18.1054388,18.1736 17.6970388,18.033 C17.8839388,18.2147 18.0000388,18.4688 18.0000388,18.75 C18.0000388,19.3023 17.5522388,19.75 17.0000388,19.75 C16.4627388,19.75 16.1024388,19.9003 15.8266388,20.1192 C15.5318388,20.3532 15.2723388,20.7158 15.0400388,21.2265 C14.8077388,21.7374 14.6275388,22.3398 14.4590388,23.0038 C14.3960388,23.2521 14.3305388,23.5276 14.2637388,23.8086 L14.2636388,23.8087 L14.2636388,23.8087 C14.1657388,24.2207 14.0649388,24.6445 13.9650388,25.0123 C13.8201388,25.5452 13.2706388,25.8598 12.7377388,25.715 C12.2047388,25.5702 11.8901388,25.0207 12.0350388,24.4877 C12.1324388,24.1291 12.2146388,23.7815 12.3022388,23.4112 L12.3022388,23.4111 C12.3688388,23.1294 12.4385388,22.8346 12.5204388,22.5119 C12.6969388,21.8164 12.9117388,21.0751 13.2195388,20.3985 C13.5273388,19.7217 13.9528388,19.0531 14.5831388,18.5527 C15.2325388,18.0372 16.0373388,17.75 17.0000388,17.75 C17.0221388,17.75 17.0440388,17.7507 17.0658388,17.7521 C15.8340388,17.0704 15.0000388,15.7576 15.0000388,14.25 C15.0000388,12.0409 16.7908388,10.25 19.0000388,10.25 C21.2091388,10.25 23.0000388,12.0409 23.0000388,14.25 C23.0000388,15.7576 22.1659388,17.0704 20.9341388,17.7521 C20.9559388,17.7507 20.9778388,17.75 21.0000388,17.75 C21.9627388,17.75 22.7674388,18.0372 23.4168388,18.5527 C24.0471388,19.0531 24.4727388,19.7217 24.7804388,20.3985 C25.0882388,21.0751 25.3030388,21.8164 25.4795388,22.5119 C25.5614388,22.8346 25.6311388,23.1294 25.6977388,23.4111 L25.6977388,23.4112 L25.6977388,23.4112 L25.6977388,23.4113 L25.6978388,23.4114 C25.7853388,23.7816 25.8675388,24.1292 25.9650388,24.4877 C26.1098388,25.0207 25.7952388,25.5702 25.2622388,25.715 C24.7293388,25.8598 24.1798388,25.5452 24.0350388,25.0123 C23.9350388,24.6445 23.8342388,24.2207 23.7363388,23.8087 L23.7362388,23.8086 L23.7362388,23.8083 C23.6694388,23.5274 23.6039388,23.252 23.5409388,23.0038 C23.3724388,22.3398 23.1922388,21.7374 22.9599388,21.2265 C22.7276388,20.7158 22.4681388,20.3532 22.1733388,20.1192 C21.8976388,19.9003 21.5373388,19.75 21.0000388,19.75 C20.4477388,19.75 20.0000388,19.3023 20.0000388,18.75 C20.0000388,18.4688 20.1160388,18.2147 20.3029388,18.033 Z" fill="currentcolor"/>
<path fill-rule="evenodd" clip-rule="evenodd" d="M15.0002388,9 C15.0002388,10.6569 13.6570388,12 12.0002388,12 C10.3433388,12 9.00022882,10.6569 9.00022882,9 C9.00022882,7.34315 10.3433388,6 12.0002388,6 C13.6570388,6 15.0002388,7.34315 15.0002388,9 Z M13.2457388,13.8436 C12.8476388,13.9457 12.4302388,14 12.0002388,14 C11.5702388,14 11.1528388,13.9457 10.7546388,13.8436 C10.9076388,14.0193 11.0002388,14.2488 11.0002388,14.5 C11.0002388,15.0523 10.5525388,15.5 10.0002388,15.5 C9.00026882,15.5 8.46302882,15.567 8.11075882,15.7135 C7.83531882,15.8281 7.59958882,16.0218 7.33138882,16.5559 C7.03979882,17.1366 6.76561882,18.0082 6.39543882,19.3809 C6.26425882,19.8673 6.12061882,20.4179 5.96057882,21.0313 C5.68407882,22.0912 5.35865882,23.3385 4.96411882,24.7663 C4.81702882,25.2987 4.26623882,25.611 3.73390882,25.4639 C3.20156882,25.3168 2.88926882,24.766 3.03635882,24.2337 C3.42991882,22.8094 3.74363882,21.6064 4.01579882,20.5627 C4.17729882,19.9434 4.32417882,19.3802 4.46441882,18.8602 C4.82860882,17.5097 5.14818882,16.4468 5.54408882,15.6584 C5.96338882,14.8234 6.50891882,14.2136 7.34284882,13.8668 C8.05404882,13.5711 8.89156882,13.5073 9.81943882,13.5006 C8.15066882,12.6905 7.00022882,10.9796 7.00022882,9 C7.00022882,6.23858 9.23883882,4 12.0002388,4 C14.7616388,4 17.0002388,6.23858 17.0002388,9 C17.0002388,9.74777 16.8360388,10.4572 16.5418388,11.0942 C15.9853388,11.5284 15.5465388,12.1065 15.2816388,12.7727 C14.9502388,13.0612 14.5804388,13.3067 14.1810388,13.5006 C14.4856388,13.5028 14.7804388,13.5112 15.0642388,13.5318 C15.0220388,13.7648 15.0000388,14.0048 15.0000388,14.25 C15.0000388,14.7071 15.0766388,15.1463 15.2178388,15.5554 C14.9099388,15.5179 14.5168388,15.5 14.0002388,15.5 C13.4479388,15.5 13.0002388,15.0523 13.0002388,14.5 C13.0002388,14.2488 13.0928388,14.0193 13.2457388,13.8436 Z" fill="currentcolor"/>
</symbol>
</svg>