<svg xmlns='http://www.w3.org/2000/svg' viewBox='0 0 30 30' fill='none'>
<symbol id='PeopleFamily'>
<path d="M26.0687527,16.39528 C25.7284527,14.75958 24.2768527,13.57268 22.6050527,13.57268 L22.3447527,13.57268 C23.4059527,12.96428 24.1267527,11.83728 24.1267527,10.53068 C24.1267527,8.58583 22.5450527,7 20.5929527,7 C18.6408527,7 17.0591527,8.58583 17.0591527,10.53068 C17.0591527,11.83728 17.7799527,12.96428 18.8410527,13.57268 L18.5507527,13.57268 C18.5507527,13.57268 18.5407527,13.57268 18.5307527,13.57268 C18.3405527,13.57268 18.1503527,13.59268 17.9701527,13.62258 C17.5496527,12.40578 16.3984527,11.51808 15.0369527,11.51808 C13.6755527,11.51808 12.5342527,12.39578 12.1038527,13.61258 C11.9436527,13.59268 11.7734527,13.57268 11.6033527,13.57268 L11.3029527,13.57268 C12.3641527,12.96428 13.0848527,11.83728 13.0848527,10.53068 C13.0848527,8.58583 11.5031527,7 9.5511527,7 C7.5990127,7 6.0173227,8.58583 6.0173227,10.53068 C6.0173227,11.83728 6.7380927,12.96428 7.7992327,13.57268 L7.5389527,13.57268 C7.5389527,13.57268 7.5189327,13.57268 7.5089227,13.57268 C5.8371327,13.57268 4.3755627,14.75958 4.0452127,16.37538 L3.0241127,20.98318 C2.9039927,21.52178 3.2443527,22.05038 3.7849327,22.18008 C3.8550027,22.19998 3.9350927,22.19998 4.0051627,22.19998 C4.4656627,22.19998 4.8761027,21.88088 4.9762027,21.42208 L6.0073127,16.80418 C6.1574727,16.08608 6.8081727,15.56748 7.5289427,15.57748 L7.8993327,15.57748 C8.4499227,15.57748 8.9004027,15.13858 8.9004027,14.58998 C8.9004027,14.34068 8.8003027,14.11128 8.6501427,13.93178 C8.9404527,14.01158 9.2407527,14.06138 9.5511527,14.06138 C9.8814527,14.06138 10.2017527,14.00158 10.5021527,13.91178 C10.3419527,14.09138 10.2418527,14.32078 10.2418527,14.58008 C10.2418527,15.12858 10.6923527,15.61728 11.2529527,15.56748 L11.6233527,15.56748 C11.7935527,15.56748 11.9636527,15.59738 12.1138527,15.64728 C12.3340527,16.26558 12.7345527,16.79418 13.2650527,17.16328 C13.2350527,17.16328 13.1950527,17.16328 13.1649527,17.16328 C11.9236527,17.37268 10.9225527,18.34018 10.6823527,19.54698 L10.3619527,20.97328 C10.2418527,21.51178 10.5822527,22.04038 11.1227527,22.17008 C11.1928527,22.18998 11.2729527,22.18998 11.3430527,22.18998 C11.8035527,22.18998 12.2139527,21.87088 12.3140527,21.41208 L12.6344527,19.96588 C12.7244527,19.53698 13.0648527,19.20788 13.4953527,19.12808 C14.0359527,19.03828 14.4063527,18.51968 14.3162527,17.97118 C14.2861527,17.82148 14.2261527,17.68188 14.1360527,17.56218 C14.4163527,17.65198 14.7166527,17.70188 15.0269527,17.70188 C15.3372527,17.70188 15.6276527,17.64198 15.9179527,17.56218 C15.8378527,17.68188 15.7677527,17.81158 15.7377527,17.97118 C15.6476527,18.51968 16.0080527,19.02838 16.5586527,19.12808 C16.9890527,19.19788 17.3394527,19.53698 17.4295527,19.98578 L17.7498527,21.41208 C17.8499527,21.88088 18.2704527,22.18998 18.7209527,22.18998 C18.7909527,22.18998 18.8710527,22.18998 18.9411527,22.17008 C19.4817527,22.05038 19.8220527,21.51178 19.7019527,20.97328 L19.3816527,19.56698 C19.3215527,19.28768 19.2214527,19.02838 19.0913527,18.77898 L21.8542527,18.77898 L22.4048527,21.38218 C22.4949527,21.86088 22.9154527,22.18998 23.3859527,22.18998 C23.4459527,22.18998 23.5160527,22.18998 23.5861527,22.17008 C24.1267527,22.06038 24.4770527,21.54178 24.3769527,20.99318 L23.8163527,18.33018 C23.5861527,17.41258 22.7752527,16.77428 21.8242527,16.77428 L18.3605527,16.77428 C17.9701527,16.77428 17.6397527,17.00368 17.4795527,17.32288 C17.2893527,17.25298 17.0991527,17.18318 16.8889527,17.15328 C16.8589527,17.15328 16.8188527,17.15328 16.7888527,17.15328 C17.3194527,16.78428 17.7198527,16.26558 17.9400527,15.65718 C17.9500527,15.65718 17.9601527,15.65718 17.9801527,15.65718 C18.1603527,15.58738 18.3605527,15.56748 18.5307527,15.55748 L18.9011527,15.55748 C19.4517527,15.55748 19.9021527,15.11868 19.9021527,14.57008 C19.9021527,14.31078 19.8020527,14.08138 19.6419527,13.90188 C19.9422527,13.98168 20.2525527,14.04148 20.5729527,14.04148 C20.8732527,14.04148 21.1635527,13.99158 21.4438527,13.92178 C21.2936527,14.10128 21.1935527,14.32078 21.1935527,14.57008 C21.1935527,15.11868 21.6440527,15.55748 22.1946527,15.55748 L22.5750527,15.55748 C22.5750527,15.55748 22.5750527,15.55748 22.5850527,15.55748 C23.3158527,15.55748 23.9465527,16.07608 24.0866527,16.78428 L25.0176527,21.39208 C25.1177527,21.87088 25.5282527,22.18998 25.9987527,22.18998 C26.0687527,22.18998 26.1288527,22.18998 26.1989527,22.17008 C26.7395527,22.06038 27.0898527,21.53178 26.9797527,20.99318 L26.0487527,16.38528 L26.0687527,16.39528 Z M8.0194627,10.53068 C8.0194627,9.68298 8.7102027,9.00473 9.5511527,9.00473 C10.3920527,9.00473 11.0827527,9.69288 11.0827527,10.53068 C11.0827527,11.36848 10.3920527,12.05668 9.5511527,12.05668 C8.7102027,12.05668 8.0194627,11.36848 8.0194627,10.53068 Z M15.0369527,15.72708 C14.4263527,15.72708 13.9257527,15.22838 13.9257527,14.61998 C13.9257527,14.01158 14.4263527,13.51288 15.0369527,13.51288 C15.6476527,13.51288 16.1481527,14.01158 16.1481527,14.61998 C16.1481527,15.22838 15.6476527,15.72708 15.0369527,15.72708 Z M19.0612527,10.53068 C19.0612527,9.68298 19.7520527,9.00473 20.5929527,9.00473 C21.4338527,9.00473 22.1245527,9.69288 22.1245527,10.53068 C22.1245527,11.36848 21.4338527,12.05668 20.5929527,12.05668 C19.7520527,12.05668 19.0612527,11.36848 19.0612527,10.53068 Z" fill="currentcolor"/>
</symbol>
</svg>
