<svg xmlns='http://www.w3.org/2000/svg' viewBox='0 0 30 30' fill='none'>
<symbol id='PeopleTeenagers'>
<path fill-rule="evenodd" clip-rule="evenodd" d="M25.35005,8.06859606 C27.45005,8.66859606 26.95005,13.8685761 26.95005,13.8685761 L25.25005,13.8685761 C25.25005,13.8685761 26.15005,10.8685761 24.75005,9.66859606 C24.25005,9.26859606 23.75005,9.46859606 23.45005,9.66859606 C24.15005,10.2685961 24.55005,11.1685761 24.55005,12.1685761 C24.55005,13.2685761 23.95005,14.3685761 23.05005,14.9685761 C24.45005,15.0685761 25.65005,16.0685761 25.95005,17.4685761 L26.75005,21.2685761 C26.85005,21.8685761 26.45005,22.3685761 25.95005,22.4685761 L25.75005,22.4685761 C25.25005,22.4685761 24.85005,22.1685761 24.75005,21.6685761 L23.95005,17.8685761 C23.85005,17.3685761 23.35005,16.9685761 22.85005,16.9685761 C22.35005,16.9685761 21.85005,16.5685761 21.85005,15.9685761 C21.85005,15.8221761 21.90365,15.7293761 21.97155,15.6116761 C21.99645,15.5685761 22.02325,15.5221761 22.05005,15.4685761 C21.90005,15.4685761 21.75005,15.4935761 21.60005,15.5185761 C21.45005,15.5435761 21.30005,15.5685761 21.15005,15.5685761 C20.85005,15.5685761 20.65005,15.5685761 20.35005,15.4685761 C20.45005,15.5685761 20.55005,15.7685761 20.55005,15.9685761 C20.55005,16.5685761 20.15005,16.9685761 19.55005,16.9685761 C19.05005,16.9685761 18.55005,17.3685761 18.45005,17.8685761 L17.65005,21.6685761 C17.55005,22.1685761 17.15005,22.4685761 16.65005,22.4685761 L16.45005,22.4685761 C15.85005,22.3685761 15.55005,21.7685761 15.65005,21.2685761 L16.45005,17.4685761 C16.65005,16.0685761 17.85005,15.0685761 19.25005,14.9685761 C18.35005,14.3685761 17.75005,13.3685761 17.75005,12.1685761 C17.75005,10.2685961 19.25005,8.76859606 21.15005,8.76859606 C21.75005,8.76859606 22.25005,8.86859606 22.75005,9.16859606 C23.85005,8.06859606 24.65005,7.86859606 25.35005,8.06859606 Z M19.74005,12.1685761 C19.74005,12.9685761 20.34005,13.5685761 21.14005,13.5685761 C21.84005,13.5685761 22.54005,12.9685761 22.54005,12.1685761 C22.54005,11.3685761 21.94005,10.7685761 21.14005,10.7685761 C20.34005,10.7685761 19.74005,11.3685761 19.74005,12.1685761 Z M10.41895,14.9685761 C11.81895,15.0685761 13.01895,16.0685761 13.31895,17.4685761 L14.11895,21.3685761 C14.21895,21.9685761 13.81895,22.4685761 13.31895,22.5685761 L13.11895,22.5685761 C12.61895,22.5685761 12.21895,22.2685761 12.11895,21.7685761 L11.31895,17.9685761 C11.21895,17.4685761 10.71895,17.0685761 10.21895,17.0685761 C9.71895004,17.0685761 9.21895004,16.6685761 9.21895004,16.0685761 C9.21895004,15.9221761 9.27255004,15.8293761 9.34045004,15.7116761 C9.36535004,15.6685761 9.39215004,15.6221761 9.41895004,15.5685761 C9.26895004,15.5685761 9.11895004,15.5935761 8.96895004,15.6185761 C8.81895004,15.6435761 8.66895004,15.6685761 8.51895004,15.6685761 C8.21895004,15.6685761 8.01895004,15.6685761 7.71895004,15.5685761 C7.81895004,15.6685761 7.91895004,15.8685761 7.91895004,16.0685761 C7.91895004,16.6685761 7.51895004,17.0685761 6.91895004,17.0685761 C6.41895004,17.0685761 5.91895004,17.4685761 5.81895004,17.9685761 L5.01895004,21.7685761 C4.91895004,22.2685761 4.51895004,22.5685761 4.01895004,22.5685761 L3.81895004,22.5685761 C3.21895004,22.4685761 2.91895004,21.8685761 3.01895004,21.3685761 L3.81895004,17.4685761 C4.01895004,16.0685761 5.21895004,15.0685761 6.61895004,14.9685761 C5.71895004,14.3685761 5.11895004,13.3685761 5.11895004,12.1685761 C5.11895004,10.2685561 6.61895004,8.76855606 8.51895004,8.76855606 C10.41895,8.76855606 11.91895,10.2685561 11.91895,12.1685761 C11.91895,13.2685761 11.31895,14.3685761 10.41895,14.9685761 Z M7.10895004,12.1685761 C7.10895004,12.9685761 7.70895004,13.5685761 8.50895004,13.5685761 C9.30895004,13.5685761 9.90895004,12.9685761 9.90895004,12.1685761 C9.90895004,11.3685761 9.30895004,10.7685761 8.50895004,10.7685761 C7.70895004,10.7685761 7.10895004,11.3685761 7.10895004,12.1685761 Z" fill="currentcolor"/>
</symbol>
</svg>
