<svg xmlns='http://www.w3.org/2000/svg' viewBox='0 0 30 30' fill='none'>
<symbol id='PeopleKids'>
<path fill-rule="evenodd" clip-rule="evenodd" d="M11.5450997,15.72242 C12.7771997,15.93392 13.7788997,16.91122 14.0292997,18.13022 L14.0592997,18.13022 L14.3798997,19.57092 C14.5000997,20.11492 14.1594997,20.65892 13.6185997,20.77982 C13.5484997,20.80002 13.4683997,20.80002 13.3981997,20.80002 C12.9474997,20.80002 12.5267997,20.48772 12.4265997,20.01412 L12.1060997,18.55332 C12.0258997,18.12012 11.6752997,17.77762 11.2445997,17.70712 C10.6936997,17.60632 10.3330997,17.09252 10.4231997,16.53842 C10.4532997,16.38732 10.5133997,16.25632 10.5934997,16.13542 L10.6034997,16.12532 C10.3129997,16.21602 10.0124997,16.27652 9.70199967,16.27652 C9.39149967,16.27652 9.09097967,16.21602 8.81050967,16.13542 C8.89063967,16.24622 8.95073967,16.38732 8.98078967,16.53842 C9.07094967,17.09252 8.70031967,17.61642 8.15940967,17.70712 C7.72867967,17.78772 7.38810967,18.12012 7.29795967,18.55332 L6.97741967,20.01412 C6.87724967,20.47762 6.46655967,20.80002 6.00577967,20.80002 C5.93565967,20.80002 5.85552967,20.80002 5.78540967,20.77982 C5.24449967,20.65892 4.90392967,20.11492 5.02412967,19.57092 L5.34466967,18.13022 C5.58506967,16.91122 6.58675967,15.93392 7.82884967,15.72242 L7.92901967,15.72242 C7.10763967,15.15822 6.57673967,14.21122 6.57673967,13.14332 C6.57673967,11.41042 7.97910967,10 9.69199967,10 C11.4048997,10 12.8071997,11.41042 12.8071997,13.14332 C12.8071997,14.21122 12.2662997,15.15822 11.4549997,15.72242 L11.5450997,15.72242 Z M8.56007967,13.14332 C8.56007967,13.75782 9.06092967,14.26152 9.67199967,14.26152 C10.2829997,14.26152 10.7837997,13.76792 10.7837997,13.14332 C10.7837997,12.51862 10.2829997,12.01492 9.67199967,12.01492 C9.06092967,12.01492 8.56007967,12.52872 8.56007967,13.14332 Z M25.2880997,13.49592 C25.4884997,13.75782 25.7688997,13.89892 26.0994997,13.90892 L26.1094997,13.90892 L26.3999997,13.90892 C26.1895997,14.24142 25.9391997,14.48322 25.6186997,14.65452 C25.1678997,14.89622 24.4166997,14.89622 23.9958997,14.28172 C23.9558997,14.22632 23.9207997,14.17092 23.8857997,14.11552 C23.8506997,14.06012 23.8155997,14.00462 23.7755997,13.94922 C23.7421997,13.90652 23.7087997,13.86282 23.6750997,13.81882 C23.5976997,13.71752 23.5187997,13.61432 23.4349997,13.51602 C23.3247997,14.42272 22.8439997,15.21862 22.1327997,15.72242 L22.2229997,15.72242 C23.4549997,15.93392 24.4566997,16.91122 24.7070997,18.13022 L25.0276997,19.57092 C25.1478997,20.11492 24.8072997,20.65892 24.2663997,20.77982 C24.1962997,20.80002 24.1161997,20.80002 24.0459997,20.80002 C23.5952997,20.80002 23.1745997,20.48772 23.0743997,20.01422 L22.7538997,18.55332 C22.6736997,18.12012 22.3230997,17.77762 21.8923997,17.70712 C21.3414997,17.60632 20.9808997,17.09252 21.0709997,16.53842 C21.1010997,16.38732 21.1611997,16.25632 21.2412997,16.13542 L21.2512997,16.12542 C20.9607997,16.21602 20.6602997,16.27652 20.3497997,16.27652 C20.0392997,16.27652 19.7387997,16.21602 19.4582997,16.13542 C19.5383997,16.24622 19.5984997,16.38732 19.6285997,16.53842 C19.7186997,17.09252 19.3480997,17.61642 18.8071997,17.70712 C18.3764997,17.78772 18.0358997,18.12012 17.9457997,18.55332 L17.6251997,20.01422 C17.5249997,20.47762 17.1143997,20.80002 16.6535997,20.80002 C16.5834997,20.80002 16.5032997,20.80002 16.4331997,20.77982 C15.8922997,20.65892 15.5516997,20.11492 15.6718997,19.57092 L15.9924997,18.13022 C16.2328997,16.91122 17.2345997,15.93392 18.4765997,15.72242 L18.5767997,15.72242 C17.8655997,15.22872 17.3847997,14.42272 17.2745997,13.51602 C17.1543997,13.65712 17.0441997,13.79812 16.9339997,13.94922 C16.8939997,14.00462 16.8588997,14.06012 16.8238997,14.11552 C16.7887997,14.17092 16.7536997,14.22632 16.7136997,14.28172 C16.2929997,14.89622 15.5516997,14.89622 15.0908997,14.65452 C14.7703997,14.48322 14.5199997,14.24142 14.3095997,13.90892 L14.6000997,13.90892 C14.9406997,13.89892 15.2110997,13.76792 15.4114997,13.49592 C15.5416997,13.31452 15.6618997,13.12312 15.7820997,12.93172 C16.1827997,12.29702 16.7236997,12.13582 17.3346997,12.37762 C17.6752997,11.02762 18.8973997,10.01008 20.3497997,10.01008 C21.8022997,10.01008 23.0242997,11.01752 23.3648997,12.37762 C23.9858997,12.13582 24.5167997,12.30712 24.9174997,12.93172 C24.9434997,12.97312 24.9690997,13.01462 24.9944997,13.05592 C25.0867997,13.20552 25.1781997,13.35382 25.2880997,13.49592 Z M19.2478997,13.14332 C19.2478997,13.75782 19.7487997,14.26152 20.3597997,14.26152 C20.9707997,14.26152 21.4716997,13.76792 21.4716997,13.14332 C21.4716997,12.51862 20.9707997,12.01492 20.3597997,12.01492 C19.7487997,12.01492 19.2478997,12.52872 19.2478997,13.14332 Z" fill="currentcolor"/>
</symbol>
</svg>
