<svg xmlns='http://www.w3.org/2000/svg' viewBox='0 0 30 30' fill='none'>
<!--<symbol id='PeopleSingle'>-->
<path fill-rule="evenodd" clip-rule="evenodd" d="M18.0002013,9 C18.0002013,10.6569 16.6571013,12 15.0002013,12 C13.3434013,12 12.0002013,10.6569 12.0002013,9 C12.0002013,7.34315 13.3434013,6 15.0002013,6 C16.6571013,6 18.0002013,7.34315 18.0002013,9 Z M16.2458013,13.8436 C15.8476013,13.9457 15.4303013,14 15.0002013,14 C14.5702013,14 14.1529013,13.9457 13.7547013,13.8436 C13.9076013,14.0193 14.0003013,14.2488 14.0003013,14.5 C14.0003013,15.0523 13.5525013,15.5 13.0003013,15.5 C12.0003013,15.5 11.4630013,15.567 11.1108013,15.7135 C10.8353013,15.8281 10.5996013,16.0218 10.3314013,16.5559 C10.0398013,17.1366 9.76563126,18.0082 9.39545126,19.3809 C9.26428126,19.8673 9.12063126,20.4179 8.96059126,21.0313 C8.68409126,22.0912 8.35867126,23.3385 7.96413126,24.7663 C7.81704126,25.2987 7.26625126,25.611 6.73392126,25.4639 C6.20158126,25.3168 5.88928126,24.766 6.03637126,24.2337 C6.42993126,22.8094 6.74365126,21.6064 7.01581126,20.5627 C7.17732126,19.9434 7.32419126,19.3802 7.46443126,18.8602 C7.82862126,17.5097 8.14820126,16.4468 8.54410126,15.6584 C8.96340126,14.8234 9.50893126,14.2136 10.3429013,13.8668 C11.0541013,13.5711 11.8916013,13.5073 12.8195013,13.5006 C11.1507013,12.6905 10.0002013,10.9796 10.0002013,9 C10.0002013,6.23858 12.2388013,4 15.0002013,4 C17.7617013,4 20.0002013,6.23858 20.0002013,9 C20.0002013,10.9796 18.8498013,12.6905 17.1810013,13.5006 C18.1089013,13.5073 18.9464013,13.5711 19.6576013,13.8668 C20.4916013,14.2136 21.0371013,14.8234 21.4564013,15.6584 C21.8523013,16.4468 22.1719013,17.5097 22.5361013,18.8602 C22.6763013,19.3802 22.8232013,19.9434 22.9847013,20.5627 L22.9847013,20.5628 C23.2569013,21.6064 23.5706013,22.8094 23.9641013,24.2337 C24.1112013,24.766 23.7989013,25.3168 23.2666013,25.4639 C22.7342013,25.611 22.1834013,25.2987 22.0364013,24.7663 C21.6418013,23.3385 21.3164013,22.0912 21.0399013,21.0313 C20.8799013,20.4179 20.7362013,19.8673 20.6050013,19.3809 C20.2349013,18.0082 19.9607013,17.1366 19.6691013,16.5559 C19.4009013,16.0218 19.1652013,15.8281 18.8897013,15.7135 C18.5374013,15.567 18.0002013,15.5 17.0002013,15.5 C16.4480013,15.5 16.0002013,15.0523 16.0002013,14.5 C16.0002013,14.2488 16.0929013,14.0193 16.2458013,13.8436 Z" fill="currentcolor"/>
<!--</symbol>-->
</svg>
