<svg xmlns="http://www.w3.org/2000/svg" viewBox="0 0 30 30" fill="none">
<!--<symbol id="Phone">-->
<path fill-rule="evenodd" clip-rule="evenodd" d="M6.26398 4.45001L4.5409 6.17338C3.83128 6.83682 3.4173 7.7238 3.37059 8.72513C3.26967 9.9323 3.49741 11.0692 4.03798 12.5574C4.84632 14.7761 6.15492 16.9238 7.89319 19.0044C10.1193 21.6546 12.7662 23.7298 15.8535 25.2393C17.5446 26.0416 18.9647 26.4864 20.4452 26.5879C21.7748 26.673 22.9026 26.3014 23.7731 25.4089L24.0335 25.1298L24.3855 24.7709L25.4753 23.6963C26.6417 22.5285 26.6417 20.9499 25.4745 19.7836L22.7053 17.0147L22.5671 16.8843C21.4445 15.8839 19.9142 15.9274 18.8264 17.0154L17.392 18.4491L17.1577 18.3303L16.9851 18.237L16.8546 18.1578L16.7969 18.1189C15.2841 17.1783 13.982 15.976 12.6739 14.385L12.4611 14.1199C12.051 13.5973 11.7324 13.1191 11.4904 12.6475L11.438 12.5421L12.8783 11.134C14.0422 9.92174 14.0422 8.39753 12.8935 7.20083L10.5356 4.82741C10.486 4.77811 10.438 4.73096 10.3911 4.6853L10.1167 4.42423C8.96168 3.31934 7.39446 3.31934 6.26398 4.45001ZM8.74509 5.87972L8.99875 6.12116L9.27806 6.39855L10.0899 7.22508L11.4649 8.60036C11.8565 9.0086 11.8565 9.31067 11.4507 9.73348L9.752 11.3971L9.82295 11.3355C9.29717 11.7582 9.19176 12.3532 9.4183 12.9236C9.79774 13.8535 10.3495 14.7037 11.1279 15.6538C12.5668 17.4039 14.0264 18.7515 15.6967 19.7883L15.8456 19.8874L16.0157 19.9875L16.2277 20.1012L16.8594 20.4245C17.4986 20.7461 18.0546 20.6138 18.5165 20.154L20.2407 18.4295C20.5927 18.0774 20.9395 18.0774 21.2915 18.4295L24.0605 21.198C24.4465 21.5838 24.4465 21.8962 24.0601 22.283L23.115 23.2137L22.6953 23.6368L22.4506 23.8936C21.9732 24.4383 21.3979 24.6448 20.5775 24.5923C19.3902 24.5109 18.195 24.1365 16.7213 23.4374C13.8965 22.0562 11.4717 20.1551 9.42631 17.7201C7.82936 15.8086 6.6398 13.8563 5.91748 11.8736C5.46702 10.6335 5.29121 9.75588 5.36607 8.8545C5.39071 8.34047 5.57625 7.94293 5.93192 7.61002L7.67832 5.8641C8.03292 5.50943 8.35795 5.50943 8.74509 5.87972Z" fill="currentColor"/>
<!--</symbol>-->
</svg>
