<svg xmlns="http://www.w3.org/2000/svg" viewBox="0 0 30 30" fill="none">
<symbol id="PromoCode">
<g id="State=Promo Code">
<path id="Union" fill-rule="evenodd" clip-rule="evenodd" d="M25 20V10C25 8.89543 24.1046 8 23 8H21.2314C19.824 10.5181 16.176 10.5181 14.7686 8H7C5.89543 8 5 8.89543 5 10V20C5 21.1046 5.89543 22 7 22H14.7686C16.176 19.4819 19.824 19.4819 21.2314 22H23C24.1046 22 25 21.1046 25 20ZM7 6C4.79086 6 3 7.79086 3 10V20C3 22.2091 4.79086 24 7 24H14.9443C15.5913 24 16.1828 23.6344 16.4721 23.0557C17.1017 21.7967 18.8983 21.7967 19.5279 23.0557C19.8172 23.6344 20.4087 24 21.0557 24H23C25.2091 24 27 22.2091 27 20V10C27 7.79086 25.2091 6 23 6H21.0557C20.4087 6 19.8172 6.36556 19.5279 6.94427C18.8983 8.2033 17.1017 8.2033 16.4721 6.94427C16.1828 6.36556 15.5913 6 14.9443 6H7ZM14.3191 13.7208C14.2796 13.5984 14.1716 13.5131 14.0303 13.4926L12.1487 13.2179L11.3076 11.5054C11.2444 11.3768 11.13 11.3 11.0012 11.3C10.8729 11.3 10.7585 11.3768 10.6956 11.5054L9.85401 13.2179L7.97268 13.4926C7.83134 13.5131 7.72334 13.599 7.68334 13.7219C7.64388 13.844 7.68148 13.9768 7.78361 14.0768L9.14494 15.4102L8.82361 17.2923C8.79934 17.4334 8.84708 17.563 8.95134 17.639C9.05561 17.7152 9.19294 17.7198 9.31881 17.6534L11.0015 16.7648L12.6844 17.6534C12.8108 17.7203 12.9487 17.7142 13.0524 17.6387C13.1561 17.563 13.2033 17.4334 13.1793 17.2923L12.858 15.4102L14.2196 14.0768C14.3215 13.9768 14.3588 13.8438 14.3191 13.7208ZM19 13C19 12.4477 18.5523 12 18 12C17.4477 12 17 12.4477 17 13V17C17 17.5523 17.4477 18 18 18C18.5523 18 19 17.5523 19 17V13Z" fill="currentColor"/>
</g>
</symbol>
</svg>
