<svg xmlns="http://www.w3.org/2000/svg" viewBox="0 0 30 30" fill="none">
<symbol id="Questions">
<path fill-rule="evenodd" clip-rule="evenodd" d="M18.772 19.667H14.864V20.946C14.866 21.248 14.978 21.518 15.186 21.723C15.389 21.92 15.657 22.029 15.942 22.029H19.316C19.583 22.029 19.833 22.132 20.021 22.319L21.845 24.129V23.009C21.845 22.463 22.291 22.017 22.84 22.017H24.43C25.025 22.017 25.508 21.537 25.508 20.946V13.111C25.508 12.52 25.025 12.039 24.43 12.039H22.209V16.25C22.205 18.132 20.663 19.664 18.772 19.667ZM5.937 17.681H8.108C8.657 17.681 9.103 18.127 9.103 18.674V20.398L11.545 17.972C11.732 17.785 11.982 17.681 12.249 17.681H18.772C19.567 17.681 20.216 17.039 20.218 16.249V5.922C20.218 5.129 19.57 4.485 18.772 4.485H5.947C5.144 4.485 4.49 5.129 4.49 5.922V16.25C4.496 17.039 5.146 17.681 5.937 17.681ZM22.209 10.055H24.43C26.122 10.056 27.499 11.426 27.5 13.111V20.946C27.499 22.63 26.122 24 24.43 24.001H23.836V26.507C23.836 26.77 23.729 27.026 23.542 27.211C23.357 27.397 23.108 27.5 22.84 27.5C22.571 27.499 22.322 27.395 22.135 27.208L18.907 24.001H15.955C14.271 23.992 12.899 22.622 12.897 20.946V19.667H12.664L8.824 23.504C8.635 23.692 8.383 23.795 8.116 23.795C7.568 23.795 7.122 23.349 7.122 22.802V19.667H5.947C5.023 19.667 4.162 19.313 3.514 18.669C2.862 18.025 2.502 17.166 2.5 16.251V5.922C2.502 5.003 2.862 4.142 3.514 3.497C4.162 2.855 5.023 2.5 5.939 2.5H18.772C20.663 2.502 22.205 4.035 22.209 5.918V10.055ZM12.929 14.2214C12.712 13.9954 12.449 13.8824 12.138 13.8824C11.827 13.8824 11.563 13.9954 11.343 14.2214C11.124 14.4464 11.015 14.7194 11.015 15.0394C11.015 15.3584 11.124 15.6314 11.343 15.8574C11.563 16.0824 11.827 16.1954 12.138 16.1954C12.449 16.1954 12.712 16.0824 12.929 15.8574C13.146 15.6314 13.255 15.3584 13.255 15.0394C13.255 14.7194 13.146 14.4464 12.929 14.2214ZM14.196 6.1744C13.701 5.7514 13.083 5.5394 12.344 5.5394C11.385 5.5394 10.61 5.7774 10.021 6.2524L10.727 7.6134C11.17 7.1944 11.595 6.9854 12.001 6.9854C12.837 6.9854 13.255 7.3144 13.255 7.9724C13.255 8.3114 13.025 8.7414 12.566 9.2634C12.107 9.7854 11.8 10.1644 11.645 10.4024C11.49 10.6394 11.372 10.8944 11.292 11.1674C11.212 11.4404 11.172 11.7244 11.172 12.0204C11.172 12.1754 11.21 12.3564 11.285 12.5634C11.361 12.7704 11.403 12.8904 11.412 12.9234H12.72C12.656 12.6034 12.624 12.4064 12.624 12.3314C12.624 11.9784 12.693 11.6544 12.83 11.3574C12.967 11.0614 13.263 10.6904 13.717 10.2434C14.171 9.7974 14.489 9.4084 14.669 9.0764C14.849 8.7454 14.94 8.3394 14.94 7.8604C14.94 7.1594 14.692 6.5974 14.196 6.1744Z" fill="currentColor"/>
</symbol>
</svg>
