<svg xmlns="http://www.w3.org/2000/svg" viewBox="0 0 30 30" fill="none">
<symbol id="SMS">
<path fill-rule="evenodd" clip-rule="evenodd" d="M16.2266 24.5515V21.1155H4.95963V24.5515C4.95963 24.8215 5.17863 25.0415 5.44863 25.0415H15.7366C16.0066 25.0415 16.2266 24.8215 16.2266 24.5515ZM13.0396 9.41251V15.4015C13.0396 15.6715 13.2596 15.8915 13.5296 15.8915H24.5516C24.8216 15.8915 25.0416 15.6725 25.0416 15.4025V9.62351L20.4826 14.3445C20.1346 14.7085 19.6626 14.9105 19.1576 14.9135H19.1476C18.6436 14.9135 18.1706 14.7135 17.8146 14.3485L13.0396 9.41251ZM14.6866 8.29851C17.0326 10.7365 18.6666 12.4115 19.1476 12.8725C19.6266 12.4095 21.2566 10.7345 23.5986 8.29851H14.6866ZM13.5296 6.33951H16.2266V5.44951C16.2266 5.17951 16.0066 4.95951 15.7366 4.95951H5.44963C5.17963 4.95951 4.95963 5.17951 4.95963 5.44951V19.1565H16.2266V17.8495H13.5296C12.1786 17.8495 11.0796 16.7515 11.0796 15.4015V8.78851C11.0796 7.43751 12.1786 6.33951 13.5296 6.33951ZM24.5516 6.33951C25.2046 6.33951 25.8196 6.59451 26.2826 7.05751C26.7456 7.52051 27.0006 8.13551 26.9996 8.78851V15.4015C26.9996 16.7525 25.9016 17.8505 24.5516 17.8505H18.1866V24.5515C18.1866 25.9015 17.0876 26.9995 15.7366 26.9995H5.44863C4.09863 26.9995 2.99963 25.9015 2.99963 24.5515V5.44951C2.99963 4.09851 4.09863 2.99951 5.44963 2.99951H15.7366C17.0876 2.99951 18.1866 4.09851 18.1866 5.44951V6.33951H24.5516ZM12.0596 24.0582H9.12063C8.57963 24.0582 8.14063 23.6192 8.14063 23.0782C8.14063 22.5382 8.57963 22.0992 9.12063 22.0992H12.0596C12.6006 22.0992 13.0396 22.5382 13.0396 23.0782C13.0396 23.6192 12.6006 24.0582 12.0596 24.0582Z" fill="currentColor"/>
</symbol>
</svg>
