<svg xmlns="http://www.w3.org/2000/svg" viewBox="0 0 30 30" fill="none">
<symbol id="Visible">
<g id="Property 1=Visible">
<path id="Union" fill-rule="evenodd" clip-rule="evenodd" d="M20.6632 11.2455C22.3239 12.4915 23.6685 13.9795 24.4956 15C23.6685 16.0205 22.3239 17.5085 20.6632 18.7545C18.8861 20.0878 16.9397 21 14.9999 21C13.0602 21 11.1138 20.0878 9.33665 18.7545C7.67593 17.5085 6.33134 16.0205 5.50424 15C6.33134 13.9795 7.67593 12.4915 9.33665 11.2455C9.52135 11.107 9.70788 10.9729 9.89604 10.844C9.32791 11.7608 8.99993 12.8421 8.99993 14C8.99993 17.3137 11.6862 20 14.9999 20C18.3136 20 20.9999 17.3137 20.9999 14C20.9999 12.8421 20.6719 11.7608 20.1038 10.844C20.292 10.9729 20.4785 11.107 20.6632 11.2455ZM26.199 13.9271C26.7046 14.563 26.7046 15.437 26.199 16.0729C24.4649 18.2538 20.1047 23 14.9999 23C9.8952 23 5.53494 18.2538 3.80081 16.0729C3.29524 15.437 3.29524 14.563 3.80081 13.9271C5.53494 11.7462 9.8952 7 14.9999 7C20.1047 7 24.4649 11.7462 26.199 13.9271Z" fill="currentColor"/>
</g>
</symbol>
</svg>
