<svg xmlns="http://www.w3.org/2000/svg" viewBox="0 0 30 30" fill="none">
<symbol id="VoiceMail">
<path fill-rule="evenodd" clip-rule="evenodd" d="M23.261 5.75C25.322 5.75 27 7.438 27 9.513V20.487C27 22.562 25.322 24.25 23.261 24.25H6.739C4.678 24.25 3 22.562 3 20.487V9.513C3 7.438 4.678 5.75 6.739 5.75H23.261ZM23.261 7.755H6.739C5.777 7.755 4.993 8.544 4.993 9.513V20.487C4.993 21.456 5.777 22.244 6.739 22.244H23.261C24.224 22.244 25.007 21.456 25.007 20.487V9.513C25.007 8.544 24.224 7.755 23.261 7.755ZM10 11C7.79086 11 6 12.7909 6 15C6 17.2091 7.79086 19 10 19C10.0196 19 10.0393 18.9999 10.0588 18.9996C10.0695 18.9999 10.0802 19 10.0909 19H19.9091L19.9229 18.9993C19.9485 18.9998 19.9742 19 20 19C22.2091 19 24 17.2091 24 15C24 12.7909 22.2091 11 20 11C17.7909 11 16 12.7909 16 15C16 15.7286 16.1948 16.4117 16.5351 17H13.4649C13.8052 16.4117 14 15.7286 14 15C14 12.7909 12.2091 11 10 11ZM10 13C11.1046 13 12 13.8954 12 15C12 16.1046 11.1046 17 10 17C8.89543 17 8 16.1046 8 15C8 13.8954 8.89543 13 10 13ZM22 15C22 13.8954 21.1046 13 20 13C18.8954 13 18 13.8954 18 15C18 16.1046 18.8954 17 20 17C21.1046 17 22 16.1046 22 15Z" fill="currentColor"/>
</symbol>
</svg>
