<svg version="1.1" id="Calque_1" xmlns="http://www.w3.org/2000/svg" xmlns:xlink="http://www.w3.org/1999/xlink" x="0px" y="0px"
	 viewBox="0 0 500 500" style="enable-background:new 0 0 500 500;" xml:space="preserve">
<path d="M344.1,320.7c-6.1-6-17-7.2-24.3-2.8l-57.7,36.2c-7.4,4.5-16.9,2.4-21.4-4.9l-81.3-129.6c-4.5-7.3-2.3-16.9,4.9-21.5
	l54.3-34.1c7.2-4.5,10.5-14.7,7.3-22.6L171.5,9.1c-3.2-7.9-12.2-11.4-19.9-7.7c0,0-74,35.4-84.5,81.2
	C24.3,269.8,141.2,456.2,328.3,499c45.8,10.4,109.5-63.3,109.5-63.3c5.6-6.5,5.2-16.7-0.8-22.7L344.1,320.7z"/>
</svg>
