<svg xmlns='http://www.w3.org/2000/svg' viewBox='0 0 30 30' fill='none'>
<symbol id='ActionsAgainstSexualTourism'>
<path fill-rule="evenodd" clip-rule="evenodd" d="M14.997 14.1581H14.8666C14.345 14.0981 13.0912 13.8682 11.8675 12.699C10.3428 11.2499 9.49017 8.85136 9.3999 5.76328C9.3698 4.87384 9.98168 4.08433 10.8544 3.88445L14.5758 3.04497C14.8466 2.98501 15.1274 2.98501 15.3983 3.04497L19.1197 3.87446C19.9923 4.07433 20.6042 4.86384 20.5741 5.75329C20.3434 13.3386 15.7193 14.0681 15.1977 14.1281H14.987L14.997 14.1581ZM14.997 4.52405H14.9168L11.1954 5.36353C11.0249 5.40351 10.9045 5.55341 10.9145 5.7333C10.9948 8.41164 11.6869 10.4504 12.9207 11.6296C13.8234 12.4991 14.7362 12.649 14.987 12.669H15.0271H15.0572C15.4484 12.629 18.899 12.0594 19.0896 5.74329C19.0896 5.56341 18.9792 5.4135 18.8087 5.37352L15.0873 4.54404H15.0071L14.997 4.52405ZM10.8343 21.9631C12.068 22.173 13.0711 23.1424 13.3219 24.3516H13.3319L13.6529 25.7808C13.7733 26.3204 13.4322 26.8601 12.8906 26.98C12.8203 27 12.7401 27 12.6699 27C12.2085 27 11.7872 26.6902 11.6869 26.2205L11.3659 24.7714C11.2856 24.3417 10.9346 24.0019 10.5032 23.9319C9.95156 23.832 9.59045 23.3223 9.68073 22.7726C9.71082 22.6227 9.77101 22.4928 9.85125 22.3729L9.86128 22.3629C9.57039 22.4528 9.26947 22.5128 8.95852 22.5128C8.64756 22.5128 8.34664 22.4528 8.06578 22.3729C8.15606 22.4828 8.21624 22.6227 8.24633 22.7726C8.33661 23.3223 7.96547 23.842 7.42381 23.9319C7.00252 24.0119 6.65145 24.3417 6.56117 24.7714L6.24019 26.2205C6.12985 26.6802 5.71859 27 5.25718 27C5.18696 27 5.10671 27 5.0365 26.98C4.49484 26.8601 4.1538 26.3204 4.27416 25.7808L4.59515 24.3516C4.84592 23.1424 5.84899 22.173 7.0928 21.9631H7.19311C6.38062 21.4035 5.83896 20.4641 5.83896 19.4047C5.83896 17.6858 7.24326 16.2867 8.96855 16.2867C10.6938 16.2867 12.0981 17.6858 12.0981 19.4047C12.0981 20.4641 11.5565 21.4035 10.744 21.9631H10.8343ZM7.83507 19.4047C7.83507 20.0143 8.34664 20.514 8.95852 20.514C9.57039 20.514 10.0719 20.0243 10.0719 19.4047C10.0719 18.7851 9.58042 18.2854 8.95852 18.2854C8.33661 18.2854 7.83507 18.7951 7.83507 19.4047ZM24.6266 19.7543C24.8272 20.0141 25.108 20.154 25.439 20.164H25.4591H25.75C25.5394 20.4938 25.2886 20.7337 24.9676 20.9036C24.5062 21.1434 23.7539 21.1434 23.3326 20.5338C23.2925 20.4788 23.2574 20.4239 23.2223 20.3689C23.1871 20.3139 23.152 20.259 23.1119 20.204C23.0785 20.1616 23.0451 20.1183 23.0114 20.0747L23.0113 20.0746C22.9338 19.9741 22.8548 19.8718 22.7709 19.7743C22.6605 20.6737 22.1891 21.4632 21.4669 21.9629H21.5572C22.801 22.1728 23.804 23.1422 24.0548 24.3514L24.3758 25.7805C24.4962 26.3202 24.1551 26.8599 23.6135 26.9798C23.5432 26.9998 23.463 26.9998 23.3928 26.9998C22.9314 26.9998 22.5101 26.69 22.4098 26.2202L22.0888 24.7712C22.0085 24.3414 21.6575 24.0016 21.2261 23.9317C20.6744 23.8317 20.3133 23.3221 20.4036 22.7724C20.4337 22.6225 20.4939 22.4926 20.5741 22.3726L20.5842 22.3626C20.2933 22.4526 19.9924 22.5126 19.6814 22.5126C19.3705 22.5126 19.0695 22.4526 18.7887 22.3726C18.8789 22.4826 18.9391 22.6225 18.9692 22.7724C19.0595 23.3221 18.6884 23.8417 18.1467 23.9317C17.7254 24.0116 17.3743 24.3414 17.2841 24.7712L16.9631 26.2202C16.8527 26.68 16.4415 26.9998 15.9801 26.9998C15.9099 26.9998 15.8296 26.9998 15.7594 26.9798C15.2177 26.8599 14.8767 26.3202 14.9971 25.7805L15.318 24.3514C15.5688 23.1422 16.5719 22.1728 17.8157 21.9629H17.916C17.2038 21.4732 16.7223 20.6737 16.612 19.7743C16.4916 19.9142 16.3813 20.0541 16.271 20.204C16.2308 20.259 16.1957 20.3139 16.1606 20.3689C16.1255 20.4239 16.0904 20.4788 16.0503 20.5338C15.619 21.1434 14.8767 21.1434 14.4153 20.9036C14.0943 20.7337 13.8435 20.4938 13.6329 20.164H13.9238C14.2648 20.154 14.5356 20.0241 14.7363 19.7543C14.8667 19.5744 14.987 19.3845 15.1074 19.1946C15.5086 18.565 16.0503 18.4051 16.6622 18.645C17.0032 17.3058 18.227 16.2964 19.6814 16.2964C21.1359 16.2964 22.3596 17.2958 22.7007 18.645C23.3125 18.4051 23.8542 18.575 24.2554 19.1946C24.2815 19.2357 24.307 19.2768 24.3326 19.3178C24.425 19.4662 24.5165 19.6133 24.6266 19.7543ZM18.558 19.4045C18.558 20.0141 19.0695 20.5138 19.6814 20.5138C20.2933 20.5138 20.7948 20.0241 20.7948 19.4045C20.7948 18.7849 20.3033 18.2852 19.6814 18.2852C19.0595 18.2852 18.558 18.7949 18.558 19.4045ZM14.2547 6.89242L14.6058 5.8031H14.6158C14.7362 5.43333 15.2578 5.43333 15.3782 5.8031L15.7292 6.89242C15.7794 7.05232 15.9399 7.16226 16.1104 7.16226H17.2639C17.6451 7.16226 17.8056 7.65195 17.4946 7.88181L16.5618 8.55139C16.4214 8.65133 16.3712 8.83122 16.4214 8.99112L16.7724 10.0804C16.8928 10.4402 16.4715 10.75 16.1606 10.5202L15.2277 9.85058C15.0873 9.75065 14.8967 9.75065 14.7563 9.85058L13.8234 10.5202C13.5124 10.75 13.0912 10.4502 13.2115 10.0804L13.5626 8.99112C13.6228 8.83122 13.5626 8.65133 13.4222 8.55139L12.4893 7.88181C12.1683 7.65195 12.3288 7.16226 12.72 7.16226H13.8735C14.0441 7.16226 14.2046 7.05232 14.2547 6.89242Z" fill="currentcolor"/>
</symbol>
</svg>
