<svg xmlns='http://www.w3.org/2000/svg' viewBox='0 0 30 30' fill='none'>
<symbol id='Biodiversity'>
<path fill-rule="evenodd" clip-rule="evenodd" d="M12.9314 9.6694C12.9314 5.99872 15.9214 3 19.5914 3C23.2614 3 26.2514 5.99872 26.2514 9.6694C26.2514 13.3401 23.2614 16.3388 19.5914 16.3388C15.9214 16.3388 12.9314 13.3401 12.9314 9.6694ZM14.9314 9.67943C14.9314 12.2469 17.0214 14.343 19.5914 14.343L19.6014 14.353C21.9114 14.353 23.8114 12.6681 24.1814 10.4617C23.9993 10.4866 23.8481 10.2333 23.6894 9.96764C23.4646 9.59117 23.2249 9.18971 22.8614 9.51896C22.4766 9.86817 22.7335 10.0565 22.9986 10.2507C23.1675 10.3744 23.3397 10.5006 23.3514 10.6723C23.3814 11.1036 22.1414 12.6782 21.9114 12.3472C21.7912 12.1742 21.7966 11.845 21.8021 11.5157C21.8071 11.2151 21.8121 10.9144 21.7214 10.7325C21.6376 10.5688 21.3242 10.4617 21 10.3509C20.5893 10.2106 20.1614 10.0644 20.1614 9.78975C20.1614 9.29832 20.8514 9.04759 21.2614 9.04759C21.6714 9.04759 21.9614 8.51605 21.8314 8.31546C21.7764 8.22636 21.537 8.27548 21.2792 8.3284C20.9275 8.40056 20.5414 8.47979 20.5414 8.2252C20.5414 7.7881 21.3165 7.75444 21.5547 7.74409L21.5614 7.7438C21.7041 7.73758 21.8353 7.60386 21.9669 7.46973C22.0474 7.38776 22.1279 7.30563 22.2114 7.25237C22.3477 7.16539 22.4955 7.13614 22.6286 7.10979C22.7104 7.0936 22.7867 7.0785 22.8514 7.05179C22.9814 6.99161 23.0014 6.76094 23.0014 6.5403C22.1514 5.61761 20.9414 5.02589 19.5914 5.02589C19.1614 5.02589 18.7614 5.0961 18.3714 5.20642C18.3048 5.28706 18.2297 5.36982 18.1549 5.45227C17.9042 5.72869 17.6567 6.00157 17.7414 6.17925C17.7944 6.2855 17.9189 6.35011 18.0522 6.41926C18.2712 6.53288 18.5138 6.65874 18.5014 7.00164C18.4848 7.30772 18.034 7.45631 17.6035 7.5982C17.2582 7.71202 16.926 7.82153 16.8414 8.00456C16.6614 8.41575 17.1314 10.0605 17.7414 10.0405C18.2955 10.0223 18.404 10.1116 18.6067 10.2785C18.6271 10.2953 18.6485 10.313 18.6714 10.3313C18.7019 10.3558 18.7328 10.3816 18.7644 10.408C18.9917 10.5975 19.2514 10.8142 19.6114 10.7526C20.0314 10.6723 20.3714 11.1938 20.2514 11.5649C20.2004 11.7225 20.0989 11.7571 19.9638 11.8032C19.7808 11.8655 19.536 11.9489 19.2714 12.3873C19.0547 12.7464 18.9578 13.1188 18.8815 13.4123C18.7958 13.7418 18.7359 13.9719 18.5614 13.9719C18.3852 13.9719 18.286 13.4918 18.1922 13.0381C18.1104 12.6418 18.0326 12.2656 17.9114 12.2469C17.6514 12.2168 16.3914 11.7956 16.4014 11.3744C16.4053 11.2067 16.4757 11.0103 16.5479 10.8086C16.6615 10.4915 16.7798 10.1615 16.6514 9.9101C16.5165 9.64601 16.328 9.53912 16.1309 9.42736C16.0212 9.36511 15.9087 9.30135 15.8014 9.20806C15.6384 9.0664 15.747 8.83003 15.848 8.60989C15.933 8.4248 16.0127 8.25119 15.9214 8.155C15.8014 8.02462 15.5114 7.92433 15.3014 7.86415C15.0614 8.42578 14.9314 9.03756 14.9314 9.67943ZM23.9615 18.1944C25.1115 17.8133 26.3715 18.395 26.8215 19.5283L26.8315 19.4881C27.2815 20.6014 26.8115 21.855 25.7415 22.3966C23.1815 23.6904 18.4915 25.9871 15.7715 26.7794C15.2515 26.9398 14.7515 27 14.2815 27C12.7115 27 11.4215 26.2779 10.3415 25.6661L10.3056 25.6458C9.76927 25.3426 9.2706 25.0607 8.7815 24.8939C8.1815 24.6933 7.4815 24.7836 6.8515 25.1546L4.5615 26.5186C4.0915 26.7994 3.4715 26.649 3.1915 26.1676C2.9115 25.6962 3.0615 25.0744 3.5415 24.7936L5.8315 23.4296C6.9615 22.7577 8.2815 22.6072 9.4415 23.0084C10.1015 23.2491 10.7215 23.5901 11.3215 23.9311C12.6215 24.6732 13.7515 25.295 15.2115 24.8738C17.8715 24.0915 22.8315 21.6444 24.8415 20.6214C24.9815 20.5512 25.0415 20.3908 24.9815 20.2403C24.9215 20.0899 24.7515 20.0197 24.6015 20.0698L18.3915 22.1359C17.9215 22.6774 17.2615 22.9984 16.5615 22.9984C16.2115 22.9984 15.8615 22.9282 15.5215 22.7677L10.0815 20.2102C9.5815 19.9796 9.3715 19.3778 9.6015 18.8764C9.8315 18.3749 10.4315 18.1543 10.9315 18.395L16.3715 20.9524C16.5715 21.0427 16.8215 20.9624 16.9315 20.7719C17.0115 20.6315 16.9915 20.5011 16.9715 20.4309C16.9515 20.3707 16.8915 20.2403 16.7415 20.1701L11.1915 17.5325C10.4215 17.1614 9.4915 17.2216 8.7715 17.6929L4.5415 20.461C4.0815 20.7619 3.4615 20.6315 3.1615 20.1701C2.8615 19.7088 2.9915 19.087 3.4515 18.7861L7.6815 16.0181C8.9815 15.1756 10.6515 15.0653 12.0515 15.7272L17.6015 18.3649C18.2115 18.6557 18.6815 19.1973 18.8815 19.8492V19.8793L23.9615 18.1944Z" fill="currentcolor"/>
</symbol>
</svg>
