<svg xmlns='http://www.w3.org/2000/svg' viewBox='0 0 30 30' fill='none'>
<symbol id='ByeByePlastic'>
<path d="M17.1164 10.2257V10.0734C17.6028 9.9921 17.9754 9.59594 17.9754 9.09819V7.00564C17.9754 6.44695 17.5097 6 16.9508 6H13.0492C12.4799 6 12.0246 6.45711 12.0246 7.00564V9.09819C12.0246 9.59594 12.3972 9.9921 12.8836 10.0734V10.2257C11.7141 10.8962 11 12.0745 11 13.3646V22.3036C11 23.2381 11.7969 24 12.7697 24H17.2303C18.2031 24 19 23.2381 19 22.3036V13.3646C19 12.0745 18.2859 10.8962 17.1164 10.2257ZM14.053 11.912C14.6016 11.6479 14.9534 11.0892 14.9534 10.4797V10.1038H15.0466V10.4797C15.0466 11.0892 15.3984 11.6479 15.947 11.912C16.2471 12.0542 16.4955 12.2675 16.6611 12.5214H13.3286C13.4942 12.2675 13.7426 12.0643 14.053 11.912ZM16.9301 14.0451V15.2743H13.0699V14.0451H16.9301ZM13.0699 16.798H16.9301V18.0982H13.0699V16.798ZM13.577 7.51354H16.423V8.58014H13.577V7.51354ZM13.0699 21.9582V19.6117H16.9301V21.9582H13.0699Z" fill="currentcolor"/>
<path d="M26.94 13.8001C26.28 7.22014 20.38 2.39014 13.81 3.06014C10.62 3.38014 7.74997 4.92014 5.71997 7.40014C3.68997 9.88014 2.74997 13.0001 3.06997 16.1901C3.38997 19.3801 4.92997 22.2501 7.40997 24.2801C9.56997 26.0501 12.23 26.9901 14.99 26.9901C15.39 26.9901 15.8 26.9701 16.21 26.9301C22.79 26.2701 27.61 20.3801 26.95 13.8001H26.94ZM16 24.9401C13.35 25.2101 10.74 24.4201 8.66997 22.7301C6.59997 21.0401 5.31997 18.6401 5.04997 15.9901C4.77997 13.3301 5.56997 10.7301 7.25997 8.66014C7.40997 8.48014 7.56997 8.31014 7.72997 8.13014L20.75 23.1501C19.39 24.1101 17.77 24.7501 15.99 24.9301L16 24.9401ZM22.27 21.8401L9.23997 6.83014C10.63 5.85014 12.26 5.23014 14 5.05014C14.34 5.02014 14.67 5.00014 15 5.00014C20.07 5.00014 24.43 8.85014 24.94 14.0001C25.24 17.0001 24.17 19.8101 22.25 21.8501L22.27 21.8401Z" fill="#BF2F17"/>
</symbol>
</svg>
