<svg xmlns='http://www.w3.org/2000/svg' viewBox='0 0 30 30' fill='none'>
<symbol id='ClimateActions'>
<path fill-rule="evenodd" clip-rule="evenodd" d="M6.87516 20.78C7.005 20.46 7.27466 20.2 7.6442 20.14L7.63421 20.13C8.18352 20.04 8.71286 20.42 8.80275 20.97L9.21224 23.41C9.30213 23.96 8.9226 24.49 8.37329 24.58L5.93633 24.99C5.87641 25 5.82647 25 5.76654 25C5.27715 25 4.84769 24.65 4.76779 24.15C4.6779 23.6 5.05743 23.07 5.60674 22.98L5.98627 22.92C4.07865 20.74 3 17.93 3 15C3 8.38 8.37329 3 14.985 3C15.5144 3 16.0537 3.03 16.573 3.1C17.1224 3.17 17.5119 3.68 17.442 4.24C17.372 4.8 16.8727 5.19 16.3034 5.12C15.8739 5.06 15.4245 5.03 14.985 5.03C14.1561 5.03 13.367 5.14 12.598 5.33C12.4228 5.55601 12.1919 5.79883 11.9608 6.04187C11.4148 6.61612 10.8675 7.19167 11.0499 7.55C11.1613 7.77676 11.4334 7.91193 11.7234 8.05601C12.1881 8.28681 12.6987 8.54045 12.6679 9.23C12.6402 9.85076 11.6829 10.152 10.767 10.4403C10.0303 10.6721 9.3204 10.8956 9.14232 11.27C8.74282 12.11 9.75156 15.47 11.0499 15.42C12.235 15.3744 12.4716 15.562 12.9063 15.9068C12.9479 15.9398 12.9913 15.9742 13.0375 16.01C13.1099 16.0661 13.1833 16.126 13.2582 16.1871C13.731 16.5727 14.2664 17.0095 15.025 16.88C15.8939 16.72 16.643 17.77 16.3733 18.53C16.2587 18.853 16.0394 18.9249 15.75 19.0199C15.3585 19.1483 14.8387 19.3188 14.2759 20.21C13.8129 20.9432 13.6047 21.7056 13.4408 22.3054C13.2583 22.9735 13.1309 23.44 12.7678 23.44C12.4026 23.44 12.1944 22.4766 11.9962 21.559C11.8204 20.7453 11.6524 19.9676 11.3895 19.93C10.8402 19.85 8.15356 19.02 8.18352 18.15C8.19501 17.8165 8.34154 17.4242 8.49256 17.0198C8.73547 16.3694 8.99 15.688 8.71286 15.17C8.41734 14.6297 8.0185 14.4121 7.60141 14.1845C7.37009 14.0583 7.13316 13.9291 6.90512 13.74C6.56307 13.4465 6.79655 12.9667 7.01353 12.5209C7.1957 12.1466 7.36623 11.7962 7.17478 11.6C6.9251 11.34 6.31586 11.13 5.86642 11.01C5.32709 12.24 5.02747 13.58 5.02747 15C5.02747 17.09 5.68664 19.11 6.87516 20.78ZM22.5456 4.10967C22.6355 4.59967 22.3358 5.04967 21.8864 5.20967L21.9164 5.19967C25.0524 7.41967 27 11.0897 27 14.9997C27 21.6197 21.6267 26.9997 15.015 26.9997C13.4669 26.9997 11.9588 26.7097 10.5406 26.1397C10.0212 25.9297 9.77153 25.3397 9.98126 24.8197C10.191 24.2997 10.7803 24.0497 11.2996 24.2597C12.4781 24.7397 13.7266 24.9797 15.015 24.9797C20.1885 24.9797 24.4532 20.9997 24.9226 15.9297C24.613 16.1697 24.2534 16.3897 23.9139 16.4497C23.5669 16.5076 23.2781 16.0199 22.9731 15.5052C22.5406 14.7751 22.0758 13.9904 21.367 14.6297C20.6285 15.3019 21.1284 15.6679 21.6403 16.0427C21.9659 16.2811 22.2964 16.523 22.3159 16.8497C22.3658 17.6897 19.9788 20.7097 19.5393 20.0697C19.3091 19.7344 19.3201 19.0972 19.3311 18.4616C19.341 17.8838 19.351 17.3072 19.1798 16.9597C19.02 16.6353 18.4107 16.4274 17.7829 16.2133C16.9977 15.9454 16.1835 15.6676 16.1835 15.1397C16.1835 14.1897 17.5318 13.7097 18.3109 13.7097C19.0899 13.7097 19.6492 12.6997 19.3995 12.3097C19.2906 12.1462 18.8342 12.2393 18.3407 12.3399C17.6572 12.4794 16.9026 12.6333 16.9026 12.1397C16.9026 11.3308 18.2682 11.2464 18.7877 11.2143C18.8141 11.2126 18.8384 11.2111 18.8602 11.2097C19.1447 11.197 19.4052 10.9319 19.6645 10.6679C19.8148 10.515 19.9647 10.3624 20.1186 10.2597C20.379 10.0858 20.6587 10.0315 20.9146 9.98175C21.0709 9.95139 21.2183 9.92274 21.3471 9.86967C21.6439 9.74728 21.6355 9.15112 21.6286 8.66902C21.6277 8.59962 21.6267 8.53259 21.6267 8.46967C21.6267 8.22967 21.7266 7.97967 21.8165 7.78967C21.397 7.38967 20.9575 7.02967 20.4781 6.70967L20.5181 6.96967C20.608 7.51967 20.2285 8.04967 19.6791 8.13967C19.6192 8.14967 19.5693 8.14967 19.5094 8.14967C19.02 8.14967 18.5905 7.79967 18.5106 7.29967L18.1011 4.85967C18.0112 4.30967 18.3908 3.77967 18.9401 3.68967L21.377 3.27967C21.9263 3.17967 22.4557 3.55967 22.5456 4.10967Z" fill="currentcolor"/>
</symbol>
</svg>
