<svg xmlns='http://www.w3.org/2000/svg' viewBox='0 0 30 30' fill='none'>
<symbol id='CulturalRespect'>
<path d="M27 10.9254C27 7.1108 23.9613 4 20.2128 4C17.9038 4 16.3444 5.19332 15.015 6.51924C13.7355 4.92814 11.8463 4 9.78717 4C6.04873 4 3 7.1006 3 10.9254C3 12.7204 3.68971 14.4339 4.89921 15.7191C4.9092 15.7293 4.9192 15.7497 4.9292 15.7701L7.0783 18.0139C6.77843 18.3913 6.6085 18.8503 6.6085 19.35C6.6085 19.9212 6.8284 20.4516 7.21824 20.8493L7.52811 21.1655C7.68805 21.3287 7.87797 21.4511 8.06789 21.5531C8.0379 22.1548 8.24781 22.7566 8.68763 23.2156L9.02749 23.5624C9.40733 23.9499 9.89713 24.1641 10.4169 24.1947C10.5169 24.4905 10.6868 24.7659 10.9167 25.0107L11.2566 25.3574C11.6664 25.7756 12.2062 26 12.7859 26C13.3657 26 13.9055 25.7654 14.3153 25.3574L15.6647 23.9805C15.7647 23.8785 15.8546 23.7663 15.9246 23.6541L17.1341 24.8883C17.5539 25.3166 18.1037 25.5308 18.6535 25.5308C19.2032 25.5308 19.763 25.3166 20.1928 24.8781C20.3728 24.6945 20.5127 24.4803 20.6127 24.2559C20.6526 24.2559 20.6826 24.2661 20.7126 24.2661C21.2924 24.2661 21.8322 24.0417 22.252 23.6134C22.6618 23.1952 22.8817 22.6444 22.8817 22.0529C22.8817 21.9203 22.8617 21.7979 22.8417 21.6755C23.0117 21.5735 23.1716 21.4715 23.3115 21.3185C24.1512 20.4618 24.1512 19.0644 23.3115 18.2077L22.9917 17.8813L24.9808 15.8516C26.2603 14.5461 26.97 12.802 26.97 10.956L27 10.9254ZM10.317 18.4423L9.01749 19.7376C9.01749 19.7376 8.96751 19.7172 8.95752 19.7172L8.64765 19.401C8.64765 19.401 8.61766 19.3194 8.64765 19.2888L9.89713 18.0139C9.89713 18.0139 9.92711 17.9935 9.9571 17.9935C9.98709 17.9935 9.99708 17.9935 10.0071 18.0139L10.317 18.3301V18.4423ZM10.127 21.5225L10.4869 21.1553L11.7364 19.8804L11.8863 19.7274C11.8863 19.7274 11.9563 19.6866 12.0062 19.6866C12.0562 19.6866 12.0962 19.6968 12.1262 19.7274L12.4661 20.0742C12.526 20.1456 12.526 20.2476 12.4661 20.319L10.7168 22.1038C10.6368 22.1854 10.5668 22.1854 10.4769 22.1038L10.137 21.7571C10.0771 21.6857 10.0771 21.5837 10.137 21.5123L10.127 21.5225ZM14.2753 22.522L12.9259 23.8989C12.8659 23.9499 12.7459 23.9499 12.686 23.8989L12.3461 23.5522C12.2861 23.491 12.2861 23.3788 12.3461 23.3074L13.6955 21.9305C13.7755 21.8489 13.8455 21.8489 13.9354 21.9305L14.2753 22.2772C14.3353 22.3486 14.3353 22.4506 14.2753 22.522ZM20.8526 22.1548C20.8026 22.2058 20.6826 22.2058 20.6327 22.1548L14.3453 15.7395C13.9554 15.3417 13.3257 15.3417 12.9359 15.7395C12.546 16.1372 12.546 16.7798 12.9359 17.1776L18.7934 23.1544C18.7934 23.1544 18.8034 23.1748 18.8134 23.185C18.8734 23.2462 18.8734 23.3482 18.8134 23.4196C18.7534 23.4808 18.6535 23.4808 18.5835 23.4196L15.2549 20.0232C15.035 19.7988 14.7451 19.7172 14.4652 19.7376C14.3853 19.3296 14.1853 18.942 13.8755 18.6259L13.5356 18.2791C13.1758 17.9221 12.706 17.7181 12.2262 17.6773C12.1262 17.3815 11.9663 17.1062 11.7464 16.8818L11.4365 16.5656C10.6368 15.7497 9.32736 15.7395 8.5177 16.5554L6.64848 14.6175C6.64848 14.6175 6.61849 14.5767 6.6085 14.5563C5.60891 13.6282 5.03915 12.3125 5.03915 10.9356C5.03915 8.24293 7.18825 6.05007 9.82716 6.05007C11.3365 6.05007 12.716 6.76402 13.6256 7.96755L9.51728 12.0983C9.25739 12.3635 9.11745 12.7102 9.11745 13.0876C9.11745 13.465 9.25739 13.8118 9.51728 14.0668L9.64723 14.2095C10.8667 15.4539 12.8659 15.4539 14.0854 14.2095L15.3648 12.904L21.9621 19.6356C22.0221 19.6968 22.0221 19.7988 21.9521 19.8804C21.8921 19.9416 21.7922 19.9416 21.7322 19.8804L16.0845 14.1178C15.6947 13.72 15.065 13.72 14.6751 14.1178C14.2853 14.5155 14.2853 15.1581 14.6751 15.5559L14.7551 15.6375C14.7551 15.6375 14.7751 15.6681 14.7851 15.6783L20.9025 21.9203C20.9025 21.9203 20.9525 22.0019 20.9525 22.0325C20.9525 22.063 20.9525 22.1038 20.8925 22.1548H20.8526ZM23.6014 14.3829L21.6122 16.4126L16.4744 11.1701C15.8646 10.548 14.8051 10.548 14.1953 11.1701L12.646 12.751C12.3261 13.0774 11.8263 13.1794 11.4165 13.006L16.3045 8.08994C17.5539 6.82522 18.6435 6.03987 20.2228 6.03987C22.8617 6.03987 25.0108 8.23273 25.0108 10.9254C25.0108 12.2309 24.511 13.4548 23.6114 14.3727L23.6014 14.3829Z" fill="currentcolor"/>
</symbol>
</svg>
