<svg xmlns='http://www.w3.org/2000/svg' viewBox='0 0 30 30' fill='none'>
<symbol id='EqualOpportunities'>
<path fill-rule="evenodd" clip-rule="evenodd" d="M10.4814 4.75999H25.9914L26.0014 4.75C26.5514 4.75 27.0014 5.19956 27.0014 5.74902C27.0014 6.29849 26.5514 6.74805 26.0014 6.74805H20.6214L23.1414 9.62524C23.4814 10.0248 23.5714 10.5843 23.3514 11.0538C23.1314 11.5234 22.6614 11.8331 22.1414 11.8331H14.3414C13.8214 11.8331 13.3414 11.5234 13.1314 11.0538C12.9214 10.5843 13.0014 10.0248 13.3414 9.63523L15.8614 6.75804H10.4814C9.93145 6.75804 9.48145 6.30848 9.48145 5.75901C9.48145 5.20955 9.93145 4.75999 10.4814 4.75999ZM18.2414 7.07773L15.8214 9.83503H15.8314H20.6614L18.2414 7.07773ZM23.9615 16.4786C25.1115 16.0989 26.3715 16.6784 26.8215 17.8073L26.8315 17.7673C27.2815 18.8762 26.8115 20.125 25.7415 20.6645C23.1815 21.9532 18.4915 24.241 15.7715 25.0302C15.2515 25.1901 14.7515 25.25 14.2815 25.25C12.7115 25.25 11.4215 24.5307 10.3415 23.9213L10.3056 23.9011C9.76926 23.599 9.2706 23.3182 8.7815 23.1521C8.1815 22.9522 7.4815 23.0422 6.8515 23.4118L4.5615 24.7705C4.0915 25.0502 3.4715 24.9003 3.1915 24.4208C2.9115 23.9513 3.0615 23.3319 3.5415 23.0521L5.8315 21.6935C6.9615 21.0241 8.2815 20.8743 9.4415 21.2739C10.1015 21.5137 10.7215 21.8533 11.3215 22.193C12.6215 22.9323 13.7515 23.5517 15.2115 23.1321C17.8715 22.3528 22.8315 19.9152 24.8415 18.8962C24.9815 18.8263 25.0415 18.6664 24.9815 18.5166C24.9215 18.3667 24.7515 18.2968 24.6015 18.3467L18.3915 20.4047C17.9215 20.9442 17.2615 21.2639 16.5615 21.2639C16.2115 21.2639 15.8615 21.194 15.5215 21.0341L10.0815 18.4866C9.5815 18.2568 9.3715 17.6574 9.6015 17.1579C9.8315 16.6584 10.4315 16.4386 10.9315 16.6784L16.3715 19.2259C16.5715 19.3158 16.8215 19.2359 16.9315 19.0461C17.0115 18.9062 16.9915 18.7763 16.9715 18.7064C16.9515 18.6465 16.8915 18.5166 16.7415 18.4466L11.1915 15.8192C10.4215 15.4496 9.4915 15.5095 8.7715 15.9791L4.5415 18.7364C4.0815 19.0361 3.4615 18.9062 3.1615 18.4466C2.8615 17.9871 2.9915 17.3677 3.4515 17.068L7.6815 14.3107C8.9815 13.4715 10.6515 13.3616 12.0515 14.021L17.6015 16.6484C18.2115 16.9381 18.6815 17.4776 18.8815 18.127V18.1569L23.9615 16.4786Z" fill="currentcolor"/>
</symbol>
</svg>
