<svg xmlns='http://www.w3.org/2000/svg' viewBox='0 0 30 30' fill='none'>
<symbol id='FarmersProgram'>
<path d="M27 18.3109V15.9238C27 15.4444 26.7602 15.015 26.4005 14.7453C26.8401 12.9176 26.2906 11.2097 24.8818 10.3908C24.1823 9.98127 23.353 9.87141 22.4938 10.0012C22.6436 9.75156 22.8335 9.52185 23.0733 9.39201C23.5629 9.13233 23.7427 8.5231 23.4729 8.03371C23.2132 7.54432 22.6037 7.36454 22.1141 7.63421C21.3247 8.06367 20.8351 8.7628 20.5154 9.45193C19.836 8.90262 19.0566 8.59301 18.2373 8.58302C18.1774 8.58302 18.1174 8.58302 18.0475 8.59301C17.9376 8.42322 17.8376 8.25343 17.6978 8.10362C17.2381 7.57428 16.6286 7.22472 15.9692 7.03496V6.63546C15.9692 6.63546 15.9692 6.61548 15.9692 6.60549V5.99625C15.9692 5.44694 16.4188 4.9975 16.9684 4.9975H18.2073C18.7569 4.9975 19.2065 4.54806 19.2065 3.99875C19.2065 3.44944 18.7569 3 18.2073 3H16.9684C16.199 3 15.4996 3.29963 14.97 3.77903C14.4405 3.29963 13.741 3 12.9717 3H11.7327C11.1832 3 10.7336 3.44944 10.7336 3.99875C10.7336 4.54806 11.1832 4.9975 11.7327 4.9975H12.9717C13.5212 4.9975 13.9709 5.44694 13.9709 5.99625V6.60549C13.9709 6.60549 13.9709 6.62547 13.9709 6.63546V7.03496C13.3114 7.22472 12.7019 7.58427 12.2423 8.11361C12.0525 8.32335 11.9026 8.56305 11.7627 8.81273C11.2731 8.96255 10.8335 9.21223 10.4838 9.57179C9.95421 9.41199 9.38468 9.402 8.83514 9.54182C8.28559 9.68165 7.796 9.9613 7.39634 10.3608C6.86678 10.201 6.29725 10.191 5.74771 10.3308C4.87843 10.5506 4.14904 11.1298 3.73938 11.9288C3.32973 12.7278 3.27977 13.6567 3.60949 14.4856L3.68943 14.6954C3.27977 14.9551 3 15.4145 3 15.9338V18.3208C3 19.0599 3.54954 19.6692 4.25895 19.769V21.6966C3.54954 21.7965 3 22.4057 3 23.1448V25.5318C3 26.3408 3.65945 27 4.46878 27H25.5012C26.3106 27 26.97 26.3408 26.97 25.5318V23.1448C26.97 22.4257 26.4505 21.8265 25.761 21.6966V19.7591C26.4505 19.6392 26.97 19.0399 26.97 18.3109H27ZM21.7344 21.6667V19.779H23.7927V21.6667H21.7344ZM25.0017 16.4532V17.7815H5.01832V16.4532H25.0017ZM8.23564 19.779V21.6667H6.28726V19.779H8.23564ZM10.234 19.779H13.9908V21.6667H10.234V19.779ZM15.9892 19.779H19.746V21.6667H15.9892V19.779ZM20.0958 12.0886C20.0958 12.0886 20.1457 12.1486 20.1657 12.1785C20.2057 12.2385 20.2456 12.2984 20.3056 12.3583C20.3455 12.3983 20.3955 12.4382 20.4455 12.4682C20.5054 12.5081 20.5654 12.5381 20.6353 12.568C20.6653 12.578 20.6953 12.608 20.7252 12.618C20.7552 12.618 20.7952 12.618 20.8351 12.618C20.8651 12.618 20.8951 12.638 20.9351 12.6479C20.955 12.6479 20.975 12.6479 20.995 12.6479C21.025 12.6479 21.045 12.638 21.0749 12.638C21.1349 12.638 21.1948 12.618 21.2548 12.608C21.3247 12.588 21.3947 12.568 21.4546 12.5281C21.4846 12.5081 21.5146 12.5081 21.5445 12.4981C22.4038 11.9388 23.3031 11.799 23.8926 12.1386C24.5321 12.5081 24.7319 13.4469 24.4321 14.4757H18.1674L18.607 11C18.617 10.9001 18.607 10.7903 18.607 10.6904C19.1765 10.8502 19.7261 11.3496 20.0958 12.1086V12.0886ZM13.751 9.44195C14.3805 8.72285 15.5795 8.72285 16.219 9.44195C16.5387 9.8015 16.6786 10.2609 16.6187 10.7303L16.149 14.4557H13.821L13.3514 10.7303C13.2914 10.2609 13.4313 9.8015 13.751 9.44195ZM5.52789 12.8277C5.67777 12.5381 5.92756 12.3383 6.24729 12.2584C6.56703 12.1785 6.88676 12.2385 7.15654 12.4182L8.09575 13.0674L8.61532 12.0487C8.7652 11.7591 9.01499 11.5493 9.33472 11.4694C9.64446 11.3895 9.97419 11.4494 10.244 11.6292L11.1832 12.2784L11.4629 11.7291L11.8027 14.4457H5.7577L5.47794 13.7466C5.35803 13.4469 5.37802 13.1174 5.52789 12.8277ZM25.0017 24.9925H5.01832V23.6642H25.0017V24.9925Z" fill="currentcolor"/>
</symbol>
</svg>
