<svg xmlns='http://www.w3.org/2000/svg' viewBox='0 0 30 30' fill='none'>
<symbol id='HealthyCorner'>
<path d="M26.1286 12.5343C25.2786 10.9337 23.8786 9.81325 22.1586 9.40309C20.1186 8.91289 17.8786 9.42309 15.8986 10.7936C15.7186 9.62317 15.4586 6.47194 17.4386 4.76126C17.8586 4.40112 17.9086 3.77087 17.5486 3.35071C17.1886 2.93054 16.5586 2.88052 16.1386 3.24067C15.6586 3.66083 15.2786 4.13102 14.9586 4.62121C14.7786 4.37111 14.5886 4.14102 14.3286 3.93094C12.7686 2.67044 10.2886 3.03058 9.8086 3.11061C9.5886 3.15063 9.3986 3.26067 9.2586 3.41073C9.0986 3.5708 8.9886 3.78088 8.9686 4.02097C8.9286 4.48115 8.7886 6.85208 10.4086 8.1626C11.3586 8.9329 12.6286 9.11297 13.6186 9.11297C13.6786 9.11297 13.7186 9.11297 13.7786 9.11297C13.7786 9.6932 13.8086 10.2134 13.8586 10.6336C11.9386 9.38308 9.7986 8.9229 7.8486 9.39308C6.1386 9.81325 4.7286 10.9237 3.8786 12.5243C2.7686 14.6351 2.7086 17.3562 3.7086 20.0073C5.4986 24.7291 10.1886 27.7903 14.1786 26.8199C14.4586 26.7499 14.7286 26.6599 14.9986 26.5498C15.2686 26.6599 15.5486 26.7499 15.8186 26.8199C16.3186 26.94 16.8186 27 17.3386 27C20.9286 27 24.7286 24.1389 26.2886 20.0073C27.2886 17.3562 27.2286 14.6251 26.1186 12.5243L26.1286 12.5343ZM11.6786 6.62199C11.2286 6.26185 11.0386 5.59159 10.9786 5.02137C11.7086 5.00136 12.5786 5.09139 13.0886 5.50155C13.5686 5.89171 13.7386 6.57197 13.7986 7.12219C13.0886 7.1422 12.1886 7.04216 11.6786 6.62199ZM24.4286 19.307C22.9886 23.1185 19.3486 25.6195 16.2986 24.8892C16.0186 24.8191 15.7386 24.7191 15.4486 24.569C15.3086 24.499 15.1586 24.469 15.0086 24.469C14.8586 24.469 14.7086 24.499 14.5586 24.569C14.2686 24.7191 13.9886 24.8191 13.7086 24.8892C10.6586 25.6295 7.0186 23.1185 5.5786 19.307C4.7786 17.1962 4.8086 15.0653 5.6486 13.4647C6.2286 12.3542 7.1586 11.624 8.3186 11.3438C10.2086 10.8837 12.4986 11.724 14.2886 13.5547C14.4786 13.7448 14.7386 13.8548 14.9986 13.8548C15.2586 13.8548 15.5286 13.7448 15.7086 13.5547C17.4986 11.734 19.7886 10.8837 21.6786 11.3438C22.8386 11.624 23.7686 12.3643 24.3486 13.4647C25.1886 15.0653 25.2186 17.1962 24.4186 19.307H24.4286Z" fill="currentcolor"/>
</symbol>
</svg>
