<svg xmlns='http://www.w3.org/2000/svg' viewBox='0 0 30 30' fill='none'>
<symbol id='LocalDevelopment'>
<path fill-rule="evenodd" clip-rule="evenodd" d="M23.1384 12.97L23.1335 12.97C23.4319 12.9691 23.7301 12.8892 23.9787 12.74C24.1788 12.62 24.3489 12.47 24.4589 12.31C24.7991 11.88 26.4998 9.65 26.89 7.75C26.96 7.44 27 7.15 27 6.86C27 4.73 25.2693 3 23.1384 3C21.0075 3 19.2768 4.73 19.2768 6.86C19.2768 7.05 19.2968 7.25 19.3368 7.51C19.6469 9.41 21.2876 11.64 21.7478 12.22L21.7676 12.25C21.7984 12.2969 21.8247 12.3369 21.8579 12.37C22.0079 12.55 22.198 12.71 22.4181 12.81C22.6367 12.9093 22.885 12.9692 23.1335 12.97L23.1284 12.97H23.1384ZM23.1384 4.49C21.8379 4.49 20.7774 5.55 20.7774 6.85C20.7774 6.97 20.7874 7.09 20.8074 7.22C21.0075 8.49 22.0579 10.17 22.9583 11.33L23.0584 11.44H23.2084C23.4585 11.14 25.0792 9.04 25.4193 7.41C25.4694 7.19 25.4994 7.02 25.4994 6.85C25.4994 5.55 24.4389 4.49 23.1384 4.49ZM20.1271 10.9703C20.1071 10.9103 20.0671 10.8603 20.0271 10.8103C20.0216 10.8012 20.0161 10.7917 20.0105 10.782L20.0105 10.7819C19.9854 10.7387 19.9579 10.6911 19.917 10.6503C19.8808 10.6069 19.8341 10.5791 19.7883 10.552C19.7708 10.5416 19.7535 10.5313 19.737 10.5203C19.7236 10.5103 19.7114 10.5003 19.6992 10.4903C19.6747 10.4703 19.6503 10.4503 19.6169 10.4303L12.0037 6.91031C11.7336 6.79031 11.4235 6.79031 11.1634 6.91031L3.58024 10.4303C3.2301 10.5903 3 10.9503 3 11.3403V12.9003C3 13.8203 3.60025 14.5903 4.4306 14.8703V19.5203C3.9604 19.6003 3.60025 19.9903 3.60025 20.4903V26.0003C3.60025 26.5503 4.05044 27.0003 4.60067 27.0003H18.6065C19.1567 27.0003 19.6069 26.5503 19.6069 26.0003V20.4903C19.6069 20.0003 19.2468 19.6103 18.7766 19.5203V14.8703C19.6069 14.6003 20.2072 13.8203 20.2072 12.9003V11.3403C20.2072 11.3083 20.199 11.2805 20.1905 11.2514C20.1857 11.2351 20.1808 11.2183 20.1771 11.2003C20.1671 11.1203 20.1571 11.0503 20.1371 10.9803L20.1271 10.9703ZM17.6061 21.4803V22.2403H5.60108V21.4803H17.6061ZM6.43143 19.4803V14.9203C6.65152 14.8703 6.8516 14.7803 7.04168 14.6703C7.36181 14.8603 7.72196 14.9803 8.12213 14.9803H9.0025C9.40266 14.9803 9.76281 14.8603 10.0829 14.6703C10.4031 14.8603 10.7632 14.9803 11.1634 14.9803H12.0438C12.4439 14.9803 12.8041 14.8603 13.1242 14.6703C13.4443 14.8603 13.8045 14.9803 14.2047 14.9803H15.085C15.4852 14.9803 15.8553 14.8603 16.1655 14.6703C16.3556 14.7803 16.5556 14.8703 16.7757 14.9203V19.4803H6.43143ZM5.00083 11.9703L11.5836 8.91031L18.1963 11.9703V12.8903C18.1963 12.8903 18.1563 12.9703 18.1163 12.9703H17.2359C17.2359 12.9703 17.1559 12.9303 17.1559 12.8903C17.1559 12.3403 16.7057 11.8903 16.1555 11.8903C15.6052 11.8903 15.1551 12.3403 15.1551 12.8903C15.1551 12.9303 15.115 12.9703 15.075 12.9703H14.1947C14.1947 12.9703 14.1246 12.9403 14.1146 12.8903C14.1146 12.3403 13.6644 11.8903 13.1142 11.8903C12.564 11.8903 12.1138 12.3403 12.1138 12.8903C12.1138 12.9303 12.0838 12.9703 12.0338 12.9703H11.1534C11.1534 12.9703 11.0834 12.9403 11.0734 12.8903C11.0734 12.3403 10.6232 11.8903 10.0729 11.8903C9.52271 11.8903 9.07253 12.3403 9.07253 12.8903C9.07253 12.9303 9.04251 12.9703 8.99249 12.9703H8.11213C8.11213 12.9703 8.0421 12.9403 8.03209 12.8903V12.7503C8.03209 12.2003 7.58191 11.7503 7.03168 11.7503C6.48145 11.7503 6.03126 12.2003 6.03126 12.7503V12.8703V12.8803C6.03126 12.9203 6.00125 12.9603 5.95123 12.9603H5.07086C5.07086 12.9603 4.99083 12.9203 4.99083 12.8803V11.9603L5.00083 11.9703ZM5.60108 24.9903V24.2303H17.6061V24.9903H5.60108ZM24.599 6.84014C24.599 7.64095 23.9496 8.29014 23.1484 8.29014C22.3473 8.29014 21.6978 7.64095 21.6978 6.84014C21.6978 6.03932 22.3473 5.39014 23.1484 5.39014C23.9496 5.39014 24.599 6.03932 24.599 6.84014Z" fill="currentcolor"/>
</symbol>
</svg>
