<svg xmlns='http://www.w3.org/2000/svg' viewBox='0 0 30 30' fill='none'>
<symbol id='LocalChildrenWelcome'>
<path fill-rule="evenodd" clip-rule="evenodd" d="M13.5884 12.2363C13.6135 12.2677 13.6387 12.303 13.6614 12.3348L13.6614 12.3349C13.6749 12.3537 13.6875 12.3714 13.6987 12.3863C13.849 12.5762 14.0395 12.7161 14.2601 12.8261C14.4807 12.936 14.7313 12.986 14.982 12.986C15.2828 12.986 15.5735 12.9061 15.8342 12.7561C16.0347 12.6362 16.2052 12.4862 16.3155 12.3263C16.7867 11.7265 18.3708 9.60737 18.7518 7.75811C18.832 7.44823 18.8621 7.15835 18.8621 6.86846C18.8621 4.73931 17.1276 3 14.982 3C12.8364 3 11.1019 4.72931 11.1019 6.86846C11.1019 7.05838 11.122 7.25831 11.1621 7.5182C11.4729 9.42744 13.1171 11.6466 13.5783 12.2363H13.5884ZM14.992 4.5094C16.2954 4.5094 17.3582 5.56898 17.3582 6.86846C17.3582 7.0284 17.3381 7.20833 17.278 7.42824C16.9371 9.04759 15.3129 11.1568 15.0622 11.4666H14.9118L14.8115 11.3667C13.8992 10.2071 12.8565 8.51781 12.6459 7.24831C12.6259 7.11836 12.6158 6.98841 12.6158 6.86846C12.6158 5.56898 13.6786 4.5094 14.992 4.5094ZM24.6271 19.7431C24.8276 20.003 25.1083 20.143 25.4392 20.153H25.4592H25.75C25.5395 20.4828 25.2888 20.7227 24.968 20.8927C24.5068 21.1326 23.7548 21.1326 23.3337 20.5228C23.2936 20.4678 23.2585 20.4129 23.2234 20.3579C23.1883 20.3029 23.1533 20.2479 23.1131 20.1929C23.0797 20.1505 23.0463 20.1072 23.0126 20.0635C22.9351 19.963 22.8561 19.8606 22.7723 19.7631C22.662 20.6628 22.1908 21.4524 21.4689 21.9522H21.5591C22.8023 22.1622 23.8049 23.1318 24.0556 24.3413L24.3764 25.7707C24.4967 26.3105 24.1559 26.8503 23.6145 26.9702C23.5443 26.9902 23.4641 26.9902 23.3939 26.9902C22.9327 26.9902 22.5116 26.6804 22.4113 26.2105L22.0905 24.7611C22.0103 24.3313 21.6594 23.9914 21.2283 23.9215C20.6768 23.8215 20.3159 23.3117 20.4061 22.7619C20.4362 22.612 20.4963 22.482 20.5766 22.3621L20.5866 22.3521C20.2958 22.442 19.995 22.502 19.6842 22.502C19.3734 22.502 19.0727 22.442 18.7919 22.3621C18.8822 22.472 18.9423 22.612 18.9724 22.7619C19.0626 23.3117 18.6917 23.8315 18.1503 23.9215C17.7292 24.0014 17.3782 24.3313 17.288 24.7611L16.9672 26.2105C16.8569 26.6704 16.4458 26.9902 15.9846 26.9902C15.9144 26.9902 15.8342 26.9902 15.7641 26.9702C15.2226 26.8503 14.8818 26.3105 15.0021 25.7707L15.3229 24.3413C15.5736 23.1318 16.5762 22.1622 17.8194 21.9522H17.9197C17.2078 21.4624 16.7266 20.6628 16.6163 19.7631C16.496 19.9031 16.3857 20.043 16.2754 20.1929C16.2353 20.2479 16.2002 20.3029 16.1651 20.3579C16.13 20.4129 16.0949 20.4678 16.0548 20.5228C15.6237 21.1326 14.8818 21.1326 14.4206 20.8927C14.0997 20.7227 13.8491 20.4828 13.6385 20.153H13.9293C14.2702 20.143 14.5409 20.013 14.7414 19.7431C14.8717 19.5632 14.992 19.3733 15.1124 19.1833C15.5134 18.5536 16.0548 18.3937 16.6664 18.6336C17.0073 17.2841 18.2305 16.2745 19.6842 16.2745C21.138 16.2745 22.3612 17.2841 22.7021 18.6336C23.3137 18.3937 23.8551 18.5636 24.2561 19.1833C24.2822 19.2245 24.3077 19.2656 24.3332 19.3066L24.3333 19.3066C24.4256 19.455 24.5171 19.6021 24.6271 19.7431ZM18.5613 19.3933C18.5613 20.003 19.0626 20.5028 19.6842 20.5028C20.2958 20.5028 20.7971 20.013 20.7971 19.3933C20.7971 18.7735 20.3059 18.2737 19.6842 18.2737C19.0626 18.2737 18.5613 18.7835 18.5613 19.3933ZM10.8312 21.962C12.0744 22.1719 13.077 23.1415 13.3277 24.3511L13.6485 25.7805C13.7688 26.3203 13.4279 26.8601 12.8865 26.98C12.8163 27 12.7361 27 12.666 27C12.2048 27 11.7837 26.6901 11.6834 26.2203L11.3626 24.7709C11.2824 24.3411 10.9315 24.0012 10.5003 23.9312C9.9489 23.8313 9.58796 23.3215 9.67819 22.7717C9.70827 22.6217 9.76843 22.4918 9.84864 22.3718L9.85866 22.3618C9.56791 22.4518 9.26713 22.5118 8.95632 22.5118C8.64551 22.5118 8.34473 22.4518 8.064 22.3718C8.15423 22.4818 8.21439 22.6217 8.24447 22.7717C8.3347 23.3215 7.96374 23.8413 7.42233 23.9312C7.00124 24.0112 6.65033 24.3411 6.56009 24.7709L6.23926 26.2203C6.12897 26.6801 5.7179 27 5.25671 27C5.18652 27 5.10631 27 5.03613 26.98C4.49473 26.8601 4.15384 26.3203 4.27415 25.7805L4.59499 24.3511C4.84564 23.1415 5.84824 22.1719 7.09147 21.962H7.19173C6.37962 21.4022 5.83822 20.4626 5.83822 19.403C5.83822 17.6837 7.24186 16.2843 8.96634 16.2843C10.6908 16.2843 12.0945 17.6837 12.0945 19.403C12.0945 20.4626 11.5531 21.4022 10.741 21.962H10.8312ZM7.84343 19.403C7.84343 20.0128 8.34473 20.5126 8.96634 20.5126C9.57793 20.5126 10.0792 20.0228 10.0792 19.403C10.0792 18.7833 9.58796 18.2835 8.96634 18.2835C8.34473 18.2835 7.84343 18.7933 7.84343 19.403ZM16.4459 6.85813C16.4459 7.65781 15.7942 8.30756 14.9921 8.30756C14.19 8.30756 13.5383 7.65781 13.5383 6.85813C13.5383 6.05845 14.19 5.40871 14.9921 5.40871C15.7942 5.40871 16.4459 6.05845 16.4459 6.85813Z" fill="currentcolor"/>
</symbol>
</svg>
