<svg xmlns='http://www.w3.org/2000/svg' viewBox='0 0 30 30' fill='none'>
<symbol id='MaterialDonations'>
<path fill-rule="evenodd" clip-rule="evenodd" d="M22.7714 17.5561H25.4314C26.2914 17.5561 26.9914 16.8558 26.9914 15.9954V4.56065C26.9914 3.70029 26.2914 3 25.4314 3H22.7714C21.9114 3 21.2114 3.70029 21.2114 4.56065V15.9954C21.2114 16.8558 21.9114 17.5561 22.7714 17.5561ZM25.0014 5.00083V15.5852H23.1914V15.035H23.2314C23.6414 15.035 23.9714 14.7049 23.9714 14.2947C23.9714 13.8845 23.6414 13.5544 23.2314 13.5544H23.1914V13.0342H23.2314C23.6414 13.0342 23.9714 12.704 23.9714 12.2939C23.9714 11.8837 23.6414 11.5536 23.2314 11.5536H23.1914V11.0334H23.2314C23.6414 11.0334 23.9714 10.7032 23.9714 10.293C23.9714 9.88287 23.6414 9.55273 23.2314 9.55273H23.1914V9.03252H23.2314C23.6414 9.03252 23.9714 8.70238 23.9714 8.29221C23.9714 7.88204 23.6414 7.5519 23.2314 7.5519H23.1914V7.03168H23.2314C23.6414 7.03168 23.9714 6.70154 23.9714 6.29137C23.9714 5.8812 23.6414 5.55106 23.2314 5.55106H23.1914V5.00083H25.0014ZM26.8215 19.5269C26.3715 18.4064 25.1115 17.8162 23.9615 18.1963L18.8815 19.877V19.847C18.6815 19.1967 18.2115 18.6665 17.6015 18.3764L12.0515 15.7453C10.6515 15.085 8.9815 15.1951 7.6815 16.0354L3.4515 18.7866C2.9915 19.0867 2.8615 19.707 3.1615 20.1672C3.4615 20.6273 4.0815 20.7574 4.5415 20.4573L8.7715 17.7061C9.4915 17.2359 10.4215 17.1759 11.1915 17.5461L16.7415 20.1772C16.8915 20.2472 16.9515 20.3672 16.9715 20.4373C16.9915 20.5073 17.0115 20.6373 16.9315 20.7774C16.8215 20.9675 16.5715 21.0475 16.3715 20.9575L10.9315 18.4164C10.4315 18.1863 9.8315 18.3964 9.6015 18.8966C9.3715 19.3968 9.5815 19.9871 10.0815 20.2272L15.5215 22.7682C15.8615 22.9283 16.2115 22.9983 16.5615 22.9983C17.2615 22.9983 17.9215 22.6782 18.3915 22.138L24.6015 20.0871C24.7515 20.0371 24.9215 20.1071 24.9815 20.2572C25.0415 20.4072 24.9815 20.5673 24.8415 20.6373C22.8315 21.6478 17.8715 24.0888 15.2115 24.8691C13.7515 25.2893 12.6215 24.669 11.3215 23.9387L11.2143 23.8797L11.2142 23.8796C10.6476 23.5674 10.0622 23.2448 9.4415 23.0283C8.2815 22.6282 6.9615 22.7782 5.8315 23.4485L3.5415 24.8091C3.0615 25.0892 2.9115 25.6995 3.1915 26.1797C3.4715 26.6499 4.0915 26.8099 4.5615 26.5298L6.8515 25.1692C7.4815 24.7991 8.1815 24.709 8.7815 24.9091C9.27058 25.0755 9.76922 25.3567 10.3055 25.6591L10.3056 25.6592L10.3415 25.6794C11.4215 26.2897 12.7115 27 14.2815 27C14.7515 27 15.2515 26.94 15.7715 26.7799C18.4915 25.9896 23.1815 23.7086 25.7415 22.4181C26.8115 21.8779 27.2815 20.6373 26.8315 19.5169L26.8215 19.5269ZM20.0514 15.1952C20.0514 16.4957 18.9614 17.5562 17.6314 17.5562V17.5662C16.9714 17.5662 16.3614 17.3161 15.9014 16.8559C15.4614 16.4057 15.2214 15.8255 15.2214 15.2052V6.8317V5.73124C15.2214 5.37109 15.3414 5.02094 15.5714 4.74083L16.5414 3.55033C16.8314 3.20018 17.2914 2.9901 17.6914 3.01011C18.1314 3.01011 18.5514 3.22019 18.8214 3.57034L19.7214 4.74083C19.9314 5.01094 20.0514 5.35108 20.0514 5.70123V6.79168V6.8217V15.1952ZM17.3114 15.4453C17.3514 15.4953 17.4614 15.5753 17.6314 15.5753V15.5653C17.8714 15.5653 18.0714 15.3953 18.0714 15.1852V8.92257H17.2014V15.1952C17.2014 15.3088 17.2641 15.3865 17.3047 15.437C17.307 15.4398 17.3093 15.4426 17.3114 15.4453ZM18.0714 5.84129L17.6614 5.31106H17.6514L17.2014 5.8713V7.33191V7.44195H18.0714V7.36192V7.33191V5.84129Z" fill="currentcolor"/>
</symbol>
</svg>
