<svg xmlns='http://www.w3.org/2000/svg' viewBox='0 0 30 30' fill='none'>
<symbol id='WellBeingAtWork'>
<path d="M26 15.7864H24.67C25.85 14.6644 27 13.1417 27 11.4588C27 8.96435 25.08 8.0327 23.86 8.0327C23.22 8.0327 22.53 8.13288 21.73 8.71391C20.92 8.13288 20.23 8.0327 19.6 8.0327C18.39 8.0327 16.47 8.96435 16.47 11.4588C16.47 13.1517 17.62 14.6744 18.8 15.7864H14.52V10.9779C14.52 10.0563 13.82 9.29493 12.92 9.19476V8.01267C12.92 7.1812 12.22 6.5 11.35 6.5H6.74C5.88 6.5 5.17 7.1812 5.17 8.01267V9.19476C4.27 9.29493 3.57 10.0463 3.57 10.9779V15.8966C3.23 16.0569 3 16.3975 3 16.7882C3 17.3391 3.45 17.7899 4 17.7899H12.9L9.75 21.8872C9.52 22.1877 9.48 22.5984 9.65 22.939C9.82 23.2796 10.17 23.5 10.55 23.5H19.31C19.69 23.5 20.04 23.2796 20.21 22.939C20.38 22.5984 20.34 22.1877 20.11 21.8872L16.96 17.7899H21.7C21.7 17.7899 21.72 17.7899 21.73 17.7899C21.74 17.7899 21.75 17.7899 21.76 17.7899H26C26.55 17.7899 27 17.3391 27 16.7882C27 16.2372 26.55 15.7864 26 15.7864ZM18.46 11.4588C18.46 10.0763 19.55 10.0362 19.59 10.0362C19.97 10.0362 20.32 10.0362 21.01 10.7375C21.39 11.1181 22.06 11.1181 22.44 10.7375C23.13 10.0362 23.48 10.0362 23.86 10.0362C23.92 10.0362 25 10.0863 25 11.4588C25 13.0015 22.94 14.7546 21.73 15.5961C20.52 14.7546 18.46 12.9915 18.46 11.4588ZM12.58 21.5065L14.93 18.4411L17.28 21.5065H12.58ZM9.04 11.8394C8.63 11.8394 8.29 12.18 8.29 12.5907V12.6509C8.29 12.6509 8.25 12.6408 8.23 12.6408H5.57V11.1983H12.51V12.6408H9.85C9.85 12.6408 9.81 12.6509 9.79 12.6509V12.6008C9.79 12.19 9.45 11.8494 9.04 11.8494V11.8394ZM10.91 8.51355V9.18474H7.17V8.51355H10.91ZM5.57 15.7964V14.1335H8.23C8.23 14.1335 8.27 14.1235 8.29 14.1235V14.1836C8.29 14.5943 8.63 14.9349 9.04 14.9349C9.45 14.9349 9.79 14.5943 9.79 14.1836V14.1335C9.79 14.1335 9.83 14.1435 9.85 14.1435H12.51V15.8064H5.57V15.7964Z" fill="currentcolor"/>
</symbol>
</svg>
