<svg viewBox="0 0 113 37">
    <path d="M88.246 7.285c1.166 0 2.406.276 3.407.789V3.49h3.015v11.208c0 3.794-2.17 5.2-5.966 5.2-3.794 0-5.971-1.595-5.971-5.39v-1.956c0-3.005 1.633-5.267 5.515-5.267zm3.407 5.207c0-2.194-1.639-3-3.044-3-1.4 0-3.045.806-3.045 3v2.2c0 2.193 1.645 3 3.045 3 1.405 0 3.044-.807 3.044-3v-2.2zm-12.3 3.978l1.849 1.528c-1.732 1.448-3.501 1.9-5.544 1.9-4.046 0-6.13-2.29-6.13-5.964v-.495c0-3.8 2.177-6.154 5.972-6.154 3.794 0 5.966 2.353 5.966 6.154v.984h-9.011v.269c0 1.967 1.447 3 3.226 3 1.447 0 2.4-.33 3.672-1.222zm-6.898-3.93h6.09c0-2.242-1.647-3.115-3.045-3.115-1.405 0-3.045.873-3.045 3.116zm-8.619-8.884l-4.46 12.3-4.462-12.3h-4.357v16.078h3.016v-9.6c0-.618-.023-1.675-.082-2.347h.087l4.357 11.947h2.787l4.356-11.947h.088a32.297 32.297 0 0 0-.081 2.346v9.6h3.02V3.657h-4.269zm-17.371 8.896v1.957c0 3.794-2.177 5.389-5.972 5.389-3.794 0-5.971-1.406-5.971-5.2V3.49h3.014v4.584c1.002-.513 2.249-.789 3.407-.789 3.89 0 5.522 2.262 5.522 5.267zm-8.93 2.14c0 2.193 1.647 3 3.046 3 1.405 0 3.045-.807 3.045-3v-2.2c0-2.194-1.64-3-3.045-3-1.399 0-3.045.806-3.045 3v2.2zm-10.332 5.206c3.794 0 5.69-1.406 5.69-5.2V7.45h-3.015v7.242c0 2.193-1.27 3-2.675 3-1.4 0-2.676-.807-2.676-3V7.45h-3.015v7.248c0 3.794 1.897 5.2 5.69 5.2zm-8.946-4.326c0 1.442.509 1.833 1.832 1.833h1.218v2.329H19.41c-2.962 0-4.17-1.443-4.17-4.052V3.49h3.017v12.082zM7.22 19.898c4.004 0 6.423-2.114 6.996-4.987h-3.214c-.55 1.925-1.897 2.8-3.782 2.8-2.98 0-4.075-2.078-4.075-5.274v-1.595c0-3.52 1.47-5.164 4.075-5.164 1.885 0 3.232.874 3.782 2.8h3.214C13.643 5.605 11.224 3.49 7.22 3.49 2.612 3.49 0 6.339 0 10.787v2.194c0 4.277 2.513 6.917 7.22 6.917zM111.202.661s2.932 9.692-4.76 12.209c-.094 4.822-.223 9.167-.375 9.13-1.165-.293-1.587-4.412-1.705-8.653-3.196.092-5.937-3.653-5.656-7.772-.784.31-1.405.483-1.849-.368 1.417-1.386 4.262-3.47 4.163-2.523-.253 1.173-.938 10.351 3.332 10.01-.094-4.333.104-8.604.11-8.843-.862.367-1.955 1.705-2.81.213 1.556-1.783 3.577-3.891 4.719-4.062.111-.012.245.036.245.195 0 0-.058 6.19-.163 11.972 4.14-1.73 3.888-7.475 3.256-8.739-.797.311-1.288.96-2.278-.183C109.907.9 111.055.117 111.201.66zM112.825 19l-2.155 2.273L108.516 19l2.154-2.281zM3.982 26.33c2.314 0 3.767 1.155 3.767 3.41 0 1.98-1.507 3.19-3.767 3.19h-2.53v3.52H.27V26.33h3.713zm.054.935h-2.53v4.62h2.53c1.668 0 2.529-.99 2.529-2.2 0-1.375-.861-2.42-2.53-2.42zm15.12-.935c2.153 0 3.66.99 3.66 3.135 0 1.485-.97 2.53-2.422 2.915l3.013 4.07h-1.399l-2.852-3.905h-2.959v3.905h-1.184V26.33h4.143zm-.054.935h-2.905V31.5h2.905c1.615 0 2.476-.88 2.476-2.09.053-1.265-.861-2.145-2.476-2.145zm19.426 3.3v1.485c0 2.695-1.453 4.565-4.52 4.565-2.96 0-4.52-1.87-4.52-4.565v-1.485c0-2.42 1.345-4.455 4.52-4.455 3.12 0 4.52 2.035 4.52 4.455zm-1.238 1.32v-1.21c0-2.2-.969-3.63-3.282-3.63-2.314 0-3.337 1.485-3.337 3.63v1.21c0 2.31.969 3.74 3.337 3.74 2.313 0 3.282-1.375 3.282-3.74zm12.107-5.555c2.314 0 3.767 1.155 3.767 3.41 0 1.98-1.507 3.19-3.767 3.19h-2.529v3.52h-1.184V26.33h3.713zm.054.935h-2.53v4.62h2.53c1.668 0 2.529-.99 2.529-2.2 0-1.375-.861-2.42-2.529-2.42zm18.134 8.195v.99h-7.157V26.33h7.157v.99h-5.973v3.41h5.542v.99h-5.542v3.74zm11.192-9.13c2.153 0 3.66.99 3.66 3.135 0 1.485-.97 2.53-2.422 2.915l3.013 4.07H81.63l-2.852-3.905h-2.907v3.905h-1.183V26.33h4.09zm0 .935h-2.906V31.5h2.906c1.614 0 2.475-.88 2.475-2.09 0-1.265-.86-2.145-2.475-2.145zm18.457 0h-3.66v9.13h-1.183v-9.13h-3.66v-.99h8.449v.99zm11.354 9.13h-1.184v-3.85l-4.09-6.27h1.292l3.444 5.28 3.443-5.28h1.238l-4.143 6.27z"/>
</svg>
