<svg viewBox="0 0 500 145.9">
    <path d="M500 71.2l-9.5-9.5-9.6 9.5 9.6 9.5"/>
    <path d="M496.1 2.8c-.6-2.3-5.7 1-16.7 10.8 4.4 4.8 6.6 2.1 10.1.8 2.8 5.3 3.9 29.4-14.4 36.6.5-24.2.7-50.2.7-50.2 0-.7-.6-.9-1.1-.8-5 .7-14 9.5-20.9 17 3.8 6.2 8.6.6 12.4-.9 0 1-.9 18.9-.5 37.1-18.9 1.4-15.8-37-14.7-41.9.4-4-12.2 4.8-18.4 10.6 2 3.6 4.7 2.8 8.2 1.5-1.3 17.3 10.9 33 25 32.6.5 17.8 2.4 35 7.5 36.2.7.2 1.3-18 1.7-38.2 34.1-10.7 21.1-51.2 21.1-51.2zM80.8 65.2V14.6H67.4v51.1c0 11 5.3 17 18.5 17h8.4v-9.8h-5.4c-5.9 0-8.1-1.6-8.1-7.7zm201.6-49.9l-19.7 51.5L243 15.3h-19.3v67.4H237V42.4c0-2.6-.1-7-.4-9.8h.4l19.3 50h12.4l19.3-50h.4c-.3 2.8-.4 7.2-.4 9.8v40.2h13.4V15.3h-19zm-162 68c16.8 0 25.2-5.9 25.2-21.8V31.2h-13.3v30.3c0 9.2-5.6 12.6-11.8 12.6-6.2 0-11.8-3.4-11.8-12.6V31.2H95.2v30.4c0 15.9 8.4 21.7 25.2 21.7zm85.2-30.7v8.2c0 15.9-9.6 22.6-26.4 22.6-16.8 0-26.4-5.9-26.4-21.8v-47h13.3v19.2c4.4-2.1 9.9-3.3 15.1-3.3 17.2 0 24.4 9.5 24.4 22.1zm-39.5 8.9c0 9.2 7.3 12.6 13.5 12.6s13.5-3.4 13.5-12.6v-9.2c0-9.2-7.3-12.5-13.5-12.5s-13.5 3.4-13.5 12.5v9.2zm224.4-31c5.1 0 10.6 1.2 15.1 3.3V14.6h13.3v46.9c0 15.9-9.6 21.8-26.4 21.8-16.8 0-26.4-6.7-26.4-22.6v-8.2c0-12.5 7.2-22 24.4-22zm15 21.8c0-9.2-7.3-12.5-13.5-12.5s-13.5 3.4-13.5 12.5v9.2c0 9.2 7.3 12.6 13.5 12.6s13.5-3.4 13.5-12.6v-9.2zM351.1 69c-5.6 3.7-9.8 5.1-16.2 5.1-7.9 0-14.3-4.3-14.3-12.6v-1.1h39.9v-4.1c0-15.9-9.6-25.8-26.4-25.8-16.8 0-26.4 9.9-26.4 25.8v2.1c0 15.4 9.2 25 27.1 25 9 0 16.8-1.9 24.5-8l-8.2-6.4zm-30.5-16.5c0-9.4 7.3-13 13.5-13s13.5 3.7 13.5 13h-27zM31.9 83.3C11.1 83.3 0 72.3 0 54.4v-9.2c0-18.6 11.5-30.6 31.9-30.6 17.7 0 28.4 8.9 31 20.9H48.7c-2.4-8.1-8.4-11.7-16.7-11.7-11.5 0-18 6.9-18 21.6v6.7c0 13.4 4.8 22.1 18 22.1 8.4 0 14.3-3.7 16.7-11.7h14.2c-2.5 12-13.2 20.8-31 20.8zm293.8 51.1c0 1.5-.1 2.9-.4 4.3-.3 1.4-.7 2.6-1.5 3.7-.7 1.1-1.7 1.9-3.1 2.6-1.3.6-3.1 1-5.2 1-2.5 0-4.7-.6-6.4-1.8-1.7-1.2-2.9-3.1-3.4-5.6l6.4-1.6c.1.8.4 1.4 1.1 2 .6.5 1.3.8 2.1.8s1.4-.2 1.9-.6c.5-.4.8-.9 1-1.5.2-.6.3-1.3.4-2 0-.7.1-1.4.1-2v-20.4h7v21.1zm4.3-5.3c0-2.5.4-4.9 1.3-6.9.9-2.1 2-3.8 3.6-5.3 1.5-1.5 3.3-2.6 5.4-3.4 2.1-.8 4.4-1.2 6.9-1.2s4.8.4 6.9 1.2c2.1.8 3.9 1.9 5.4 3.4 1.5 1.5 2.7 3.2 3.6 5.3.9 2.1 1.3 4.4 1.3 6.9 0 2.6-.4 4.9-1.3 6.9-.9 2.1-2 3.8-3.6 5.3-1.5 1.5-3.3 2.6-5.4 3.4-2.1.8-4.4 1.2-6.9 1.2s-4.8-.4-6.9-1.2c-2.1-.8-3.9-1.9-5.4-3.4-1.5-1.5-2.7-3.2-3.6-5.3-.8-2-1.3-4.3-1.3-6.9zm7.3 0c0 1.5.2 2.9.7 4.1.5 1.2 1.1 2.3 2 3.2.9.9 1.9 1.6 3.1 2.1 1.2.5 2.6.8 4.1.8 1.5 0 2.9-.3 4.1-.8 1.2-.5 2.3-1.2 3.1-2.1s1.5-2 2-3.2c.5-1.2.7-2.6.7-4.1 0-1.5-.2-2.8-.7-4.1-.5-1.3-1.1-2.3-2-3.3-.9-.9-1.9-1.6-3.1-2.1-1.2-.5-2.6-.8-4.1-.8-1.5 0-2.9.3-4.1.8-1.2.5-2.3 1.2-3.1 2.1-.9.9-1.5 2-2 3.3-.4 1.3-.7 2.7-.7 4.1zm31.9-15.9h11.9c1.4 0 2.8.1 4.2.3 1.4.2 2.6.6 3.8 1.2 1.1.6 2 1.4 2.7 2.5.7 1.1 1 2.4 1 4.2 0 1.8-.5 3.3-1.5 4.5-1 1.2-2.3 2-4 2.5v.1c1.1.1 2 .4 2.9.9.9.4 1.6 1 2.2 1.7.6.7 1.1 1.5 1.4 2.4.3.9.5 1.9.5 2.9 0 1.7-.4 3.1-1.1 4.2-.7 1.1-1.7 2-2.8 2.7-1.1.7-2.4 1.2-3.8 1.5-1.4.3-2.8.5-4.3.5h-13.1v-32.1zm7 12.7h5.1c.5 0 1.1-.1 1.6-.2s1-.3 1.4-.6c.4-.3.8-.6 1-1.1s.4-1 .4-1.6c0-.7-.1-1.2-.4-1.6-.3-.4-.7-.8-1.1-1-.5-.2-1-.4-1.5-.5-.6-.1-1.1-.2-1.7-.2h-4.8v6.8zm0 13.2h6.3c.5 0 1.1-.1 1.6-.2.6-.1 1.1-.3 1.5-.6.4-.3.8-.7 1.1-1.2.3-.5.4-1.1.4-1.8s-.2-1.4-.6-1.8c-.4-.5-.8-.8-1.4-1.1-.6-.2-1.2-.4-1.8-.5-.7-.1-1.3-.1-1.8-.1h-5.3v7.3zm37.9-18.1c-.6-.7-1.3-1.3-2.3-1.6-1-.3-1.9-.5-2.8-.5-.5 0-1 .1-1.6.2-.5.1-1.1.3-1.5.6-.5.3-.9.6-1.2 1-.3.4-.5.9-.5 1.5 0 1 .4 1.7 1.1 2.2.7.5 1.6.9 2.7 1.3s2.3.7 3.5 1.1c1.3.4 2.4.9 3.5 1.5 1.1.7 2 1.5 2.7 2.7.7 1.1 1.1 2.6 1.1 4.5 0 1.8-.3 3.3-1 4.6-.7 1.3-1.6 2.4-2.7 3.3-1.1.9-2.4 1.5-3.9 1.9-1.5.4-3.1.6-4.7.6-2.1 0-4-.3-5.8-.9-1.8-.6-3.4-1.7-4.9-3.1l5-5.5c.7 1 1.6 1.7 2.7 2.2 1.1.5 2.2.8 3.4.8.6 0 1.1-.1 1.7-.2.6-.1 1.1-.3 1.6-.6s.8-.6 1.1-1c.3-.4.4-.9.4-1.5 0-1-.4-1.7-1.1-2.3-.7-.6-1.7-1-2.8-1.4-1.1-.4-2.3-.8-3.6-1.2-1.3-.4-2.5-.9-3.6-1.6-1.1-.7-2-1.5-2.8-2.6-.7-1.1-1.1-2.5-1.1-4.3 0-1.7.3-3.2 1-4.5.7-1.3 1.6-2.4 2.7-3.2 1.1-.9 2.4-1.5 3.9-2 1.5-.4 3-.7 4.5-.7 1.8 0 3.5.3 5.2.8 1.7.5 3.2 1.4 4.5 2.6l-4.4 5.3z"/>
</svg>
