<?xml version="1.0" encoding="UTF-8"?>
<svg viewBox="0 0 15 16" version="1.1" xmlns="http://www.w3.org/2000/svg" xmlns:xlink="http://www.w3.org/1999/xlink">
    <!-- Generator: Sketch 53.2 (72643) - https://sketchapp.com -->
    <title>Picto/Details</title>
    <desc>Created with Sketch.</desc>
    <g id="UI-design" stroke="none" stroke-width="1" fill="none" fill-rule="evenodd">
        <g id="D_Dashboard-connect-as-quick-login" transform="translate(-1078.000000, -78.000000)" fill="#504747">
            <g id="onglet-connexion" transform="translate(1068.000000, 50.000000)">
                <g id="Mes-séjours" transform="translate(0.000000, 10.000000)">
                    <g id="Picto/Details" transform="translate(10.000000, 18.000000)">
                        <g id="icon-Details">
                            <path d="M11.9346436,0 L2.08382666,0 C0.932960976,0 0,0.932960976 0,2.08382666 L0,13.9161733 C0,15.067039 0.932960976,16 2.08382666,16 L11.9346436,16 C13.0855093,16 14.0184703,15.067039 14.0184703,13.9161733 L14.0184703,2.08382666 C14.0184703,0.932960976 13.0855093,0 11.9346436,0 Z M12.8818376,13.9161733 C12.8818376,14.4392941 12.4577644,14.8633673 11.9346436,14.8633673 L2.08382666,14.8633673 C1.5607059,14.8633673 1.13663273,14.4392941 1.13663273,13.9161733 L1.13663273,2.08382666 C1.13663273,1.5607059 1.5607059,1.13663273 2.08382666,1.13663273 L11.9346436,1.13663273 C12.4577644,1.13663273 12.8818376,1.5607059 12.8818376,2.08382666 L12.8818376,13.9161733 Z M3.66564054,7.52640303 L2.72791854,7.52640303 C2.41404608,7.52640303 2.15960218,7.78084693 2.15960218,8.09471939 C2.15960218,8.40859185 2.41404608,8.66303576 2.72791854,8.66303576 L3.66564054,8.66303576 C3.979513,8.66303576 4.2339569,8.40859185 4.2339569,8.09471939 C4.2339569,7.78084693 3.979513,7.52640303 3.66564054,7.52640303 Z M11.2905517,7.52640303 L5.73810088,7.52640303 C5.42422842,7.52640303 5.16978451,7.78084693 5.16978451,8.09471939 C5.16978451,8.40859185 5.42422842,8.66303576 5.73810088,8.66303576 L11.2905517,8.66303576 C11.6044242,8.66303576 11.8588681,8.40859185 11.8588681,8.09471939 C11.8588681,7.78084693 11.6044242,7.52640303 11.2905517,7.52640303 Z M3.66564054,4.11650485 L2.72791854,4.11650485 C2.41404608,4.11650485 2.15960218,4.37094876 2.15960218,4.68482122 C2.15960218,4.99869368 2.41404608,5.25313758 2.72791854,5.25313758 L3.66564054,5.25313758 C3.979513,5.25313758 4.2339569,4.99869368 4.2339569,4.68482122 C4.2339569,4.37094876 3.979513,4.11650485 3.66564054,4.11650485 L3.66564054,4.11650485 Z M11.2905517,4.11650485 L5.73810088,4.11650485 C5.42422842,4.11650485 5.16978451,4.37094876 5.16978451,4.68482122 C5.16978451,4.99869368 5.42422842,5.25313758 5.73810088,5.25313758 L11.2905517,5.25313758 C11.6044242,5.25313758 11.8588681,4.99869368 11.8588681,4.68482122 C11.8588681,4.37094876 11.6044242,4.11650485 11.2905517,4.11650485 L11.2905517,4.11650485 Z M3.66564054,10.9363012 L2.72791854,10.9363012 C2.41404608,10.9363012 2.15960218,11.1907451 2.15960218,11.5046176 C2.15960218,11.81849 2.41404608,12.0729339 2.72791854,12.0729339 L3.66564054,12.0729339 C3.979513,12.0729339 4.2339569,11.81849 4.2339569,11.5046176 C4.2339569,11.1907451 3.979513,10.9363012 3.66564054,10.9363012 Z M11.2905517,10.9363012 L5.73810088,10.9363012 C5.42422842,10.9363012 5.16978451,11.1907451 5.16978451,11.5046176 C5.16978451,11.81849 5.42422842,12.0729339 5.73810088,12.0729339 L11.2905517,12.0729339 C11.6044242,12.0729339 11.8588681,11.81849 11.8588681,11.5046176 C11.8588681,11.1907451 11.6044242,10.9363012 11.2905517,10.9363012 Z" id="Shape" fill-rule="nonzero"></path>
                        </g>
                    </g>
                </g>
            </g>
        </g>
    </g>
</svg>
