<!-- Generator: Adobe Illustrator 18.1.1, SVG Export Plug-In  -->
<svg version="1.1"
   xmlns="http://www.w3.org/2000/svg" xmlns:xlink="http://www.w3.org/1999/xlink"
   x="0px" y="0px" viewBox="0 0 500 500" enable-background="new 0 0 500 500" xml:space="preserve">
<defs>
</defs>
<g>
  <path d="M250,500C112.2,500,0,387.9,0,250C0,112.1,112.2,0,250,0s250,112.1,250,250C500,387.9,387.8,500,250,500z
     M250,30.3C128.9,30.3,30.3,128.9,30.3,250S128.9,469.7,250,469.7S469.7,371.1,469.7,250S371.1,30.3,250,30.3z"/>
  <path d="M246.7,268.1c-4.8,0-9.4-2.3-12.3-6.3l-99.2-137.7c-4.9-6.8-3.4-16.3,3.4-21.2c6.8-4.9,16.3-3.3,21.2,3.4
    l93.4,129.8l85.6-17.4c8.3-1.6,16.2,3.6,17.9,11.8c1.7,8.2-3.6,16.2-11.8,17.9l-95.2,19.3C248.7,268,247.7,268.1,246.7,268.1z"/>
</g>
</svg>
