<svg version="1.1"
     xmlns="http://www.w3.org/2000/svg"
     x="0px" y="0px" viewBox="0 0 495.1 270.9" style="enable-background:new 0 0 495.1 270.9;"
     xml:space="preserve">
<g>
	<path class="st0" d="M121.1,46.2C63.3,80.8,14.8,122.5,11.4,125.5L0,135.4l11.4,9.9c5.9,5.1,145.3,125.5,236.1,125.5
		c23.7,0,50.7-8.3,77.8-20.5L303,228.1c-16.2,9.8-35.2,15.5-55.4,15.5c-59.6,0-108.1-48.5-108.1-108.1c0-20.3,5.7-39.2,15.5-55.5
		L121.1,46.2z M40.6,135.4c17.1-13.9,50.7-40.1,88.4-63.3c-10.1,18.9-15.9,40.4-15.9,63.3c0,22.9,5.8,44.5,15.9,63.4
		C91.3,175.6,57.7,149.4,40.6,135.4z"/>
    <path class="st0" d="M483.7,125.5c-3.4-3-51.9-44.8-109.7-79.3L340.2,80c9.8,16.2,15.5,35.2,15.5,55.5
		c0,59.6-48.5,108.1-108.1,108.1c-20.3,0-39.2-5.7-55.5-15.5l-22.3,22.3c27.1,12.2,54.1,20.5,77.8,20.5
		c90.8,0,230.2-120.4,236.1-125.5l11.4-9.9L483.7,125.5z M366,198.8c10.1-18.9,15.9-40.4,15.9-63.3c0-22.9-5.8-44.5-15.9-63.4
		c37.7,23.2,71.4,49.4,88.5,63.4C437.4,149.4,403.8,175.6,366,198.8z"/>
    <path class="st0" d="M374,224.7c57.8-34.6,106.3-76.3,109.7-79.3l11.4-9.9l-11.4-9.9C477.8,120.4,338.3,0,247.5,0
		c-23.7,0-50.7,8.3-77.8,20.5l22.3,22.3c16.2-9.8,35.2-15.5,55.5-15.5c59.6,0,108.2,48.5,108.2,108.1c0,20.3-5.7,39.2-15.5,55.5
		L374,224.7z M454.5,135.5c-17.1,13.9-50.7,40.1-88.5,63.3c10.1-18.9,15.9-40.4,15.9-63.3c0-22.9-5.8-44.5-15.9-63.4
		C403.8,95.3,437.4,121.5,454.5,135.5z"/>
    <path class="st0" d="M154.9,190.9c-9.8-16.2-15.5-35.2-15.5-55.5c0-59.6,48.5-108.1,108.1-108.1c20.3,0,39.2,5.7,55.4,15.5
		l22.3-22.3C298.2,8.3,271.2,0,247.5,0C156.7,0,17.3,120.4,11.4,125.5L0,135.5l11.4,9.9c3.4,3,51.9,44.7,109.7,79.3L154.9,190.9z
		 M129,72.1c-10.1,18.9-15.9,40.5-15.9,63.4c0,22.9,5.8,44.5,15.9,63.3c-37.7-23.2-71.4-49.4-88.4-63.3
		C57.7,121.5,91.3,95.3,129,72.1z"/>
</g>
    <circle class="st0" cx="247.5" cy="135.4" r="52.4"/>
</svg>
