<svg viewBox="0 0 25 25" xmlns="http://www.w3.org/2000/svg">
    <g fill-rule="nonzero">
        <path d="M24.446 9.554L12.756.995a.64.64 0 00-.756 0L.31 9.554a.64.64 0 10.757 1.034l11.311-8.281 11.31 8.28a.638.638 0 00.896-.138.64.64 0 00-.138-.895z"/>
        <path d="M21.348 10.733a.64.64 0 00-.64.64v10.2h-5.126v-5.568a3.207 3.207 0 00-3.204-3.204 3.208 3.208 0 00-3.204 3.204v5.567H4.05V11.374a.64.64 0 00-1.282 0v10.84c0 .353.287.64.64.64h6.408a.64.64 0 00.64-.64v-6.209c0-1.06.863-1.922 1.923-1.922s1.922.862 1.922 1.922v6.208a.64.64 0 00.64.64h6.408a.64.64 0 00.641-.64v-10.84a.64.64 0 00-.64-.64z"/>
    </g>
</svg>
