<svg version="1.1" id="Calque_1" xmlns="http://www.w3.org/2000/svg" xmlns:xlink="http://www.w3.org/1999/xlink" x="0px" y="0px"
	 viewBox="0 0 380 173" style="enable-background:new 0 0 380 173;" xml:space="preserve">
<style type="text/css">
	.st0{opacity:0.2;enable-background:new    ;}
</style>
<path class="st0" d="M351.7,112.4l-16.3,16.3l16.3,16.3l16.3-16.3L351.7,112.4z M362.1,9.4c-0.7-3.7-9.6,1.5-28.9,18.5
	c7.4,8.1,11.1,3.7,17.8,1.5c5.2,8.9,6.7,51.1-25.2,63.7c0.7-42.2,1.5-87.4,1.5-87.4C326.6,5,325.8,5,325.1,5
	c-8.9,1.5-24.4,16.3-36.3,29.6c6.7,11.1,14.8,0.7,21.5-1.5c0,1.5-1.5,32.6-0.7,64.4c-32.6,2.2-27.4-64.4-25.9-72.6
	c0.7-7.4-20.7,8.1-31.9,17.8c3.7,5.9,8.1,5.2,14.1,3c-2.2,29.6,18.5,57,43.7,56.3c0.7,31.1,4.4,60.7,13.3,63c1.5,0,2.2-31.1,3-66.7
	C384.3,80.6,362.1,9.4,362.1,9.4z"/>
</svg>
