<svg id="Calque_1" data-name="Calque 1" xmlns="http://www.w3.org/2000/svg" viewBox="0 0 496.51 360.48"><defs></defs><title>mail</title><path class="cls-1" d="M447.32,69.51H52.84a51.07,51.07,0,0,0-51,51V379a51.07,51.07,0,0,0,51,51H447.32a51.07,51.07,0,0,0,51-51V120.52A51.07,51.07,0,0,0,447.32,69.51ZM322.91,259.36l152-151.95a30.25,30.25,0,0,1,3.06,13.11V379a30.23,30.23,0,0,1-3.35,13.64ZM447.32,89.92A30.26,30.26,0,0,1,460.44,93L301.49,251.93a9.52,9.52,0,0,0-1.34,1c-0.2.23-.26,0.51-0.43,0.75l-49.64,49.64L39.72,93a30.26,30.26,0,0,1,13.12-3.07H447.32ZM25.51,392.49A30.22,30.22,0,0,1,22.23,379V120.52a30.25,30.25,0,0,1,3.06-13.11L177.22,259.33Zm27.32,17.09a30.31,30.31,0,0,1-12.66-2.82l151.49-133,58.41,58.41,58.37-58.37,151.39,133a30.33,30.33,0,0,1-12.52,2.75H52.84Z" transform="translate(-1.82 -69.51)"/></svg>