<?xml version="1.0" encoding="UTF-8"?>
<svg viewBox="0 0 501 461" version="1.1" xmlns="http://www.w3.org/2000/svg" xmlns:xlink="http://www.w3.org/1999/xlink">
    <!-- Generator: Sketch 50.2 (55047) - http://www.bohemiancoding.com/sketch -->
    <title>Shape</title>
    <desc>Created with Sketch.</desc>
    <defs></defs>
    <g id="Page-1" stroke="none" stroke-width="1" fill="none" fill-rule="evenodd">
        <g id="Group" fill="#13A3C0" fill-rule="nonzero">
            <path d="M391.816026,380.728168 C389.670277,380.728168 387.631816,379.580024 386.344367,377.742994 L342.141945,312.183979 C339.996196,308.969176 340.639921,304.376601 343.643969,302.080313 C346.648017,299.784025 350.939514,300.472911 353.085263,303.687714 L394.712787,365.572669 L432.799825,357.306033 C436.447598,356.502333 439.988083,359.028249 440.739095,362.931938 C441.490107,366.835627 439.129784,370.624502 435.482011,371.428203 L393.103475,380.613354 C392.674326,380.728168 392.245176,380.728168 391.816026,380.728168 Z M400.878444,460.728168 C345.772471,460.728168 300.878444,415.908891 300.878444,360.776361 C300.878444,305.643831 345.772471,260.728168 400.878444,260.728168 C455.984417,260.728168 500.878444,305.547445 500.878444,360.776361 C500.878444,416.005277 455.984417,460.728168 400.878444,460.728168 Z M400.878444,272.872747 C352.41987,272.872747 313.017172,312.294433 313.017172,360.776361 C313.017172,409.258289 352.41987,448.679976 400.878444,448.679976 C449.337018,448.679976 488.739715,409.161903 488.739715,360.776361 C488.739715,312.390819 449.240679,272.872747 400.878444,272.872747 Z M277.083572,385.728168 L71.6476746,385.728168 C52.1604951,385.728168 36.2630592,370.003531 36.2630592,350.728168 L36.2630592,193.177444 L425.493828,193.177444 L425.493828,236.496284 C438.006649,238.42382 449.801521,242.075994 460.878444,247.249907 L460.878444,105.728168 C460.878444,67.2788929 429.083572,35.7281683 390.109213,35.7281683 L354.724598,35.7281683 L354.724598,0.728168305 L319.339982,0.728168305 L319.339982,35.7281683 L142.416905,35.7281683 L142.416905,0.728168305 L107.03229,0.728168305 L107.03229,35.7281683 L71.6476746,35.7281683 C32.7758797,35.7281683 0.87844381,67.1774437 0.87844381,105.728168 L0.87844381,158.177444 L0.87844381,193.177444 L0.87844381,350.728168 C0.87844381,389.177444 32.6733156,420.728168 71.6476746,420.728168 L288.570752,420.728168 C283.134854,409.771647 279.237418,398.003531 277.083572,385.728168 Z M36.2630592,105.728168 C36.2630592,86.452806 52.1604951,70.7281683 71.6476746,70.7281683 L107.03229,70.7281683 L107.03229,105.728168 L142.416905,105.728168 L142.416905,70.7281683 L319.339982,70.7281683 L319.339982,105.728168 L354.724598,105.728168 L354.724598,70.7281683 L390.109213,70.7281683 C409.596393,70.7281683 425.493828,86.452806 425.493828,105.728168 L425.493828,158.177444 L36.2630592,158.177444 L36.2630592,105.728168 Z" id="Shape"></path>
        </g>
    </g>
</svg>
