<svg xmlns="http://www.w3.org/2000/svg" viewBox="0 0 34 34">
    <path d="M17.455 20.038h-1.79c-.013-.044-.071-.204-.174-.479a2.101 2.101 0 01-.155-.721c0-.394.055-.772.164-1.135.11-.362.27-.701.483-1.017.212-.316.633-.82 1.26-1.514.629-.694.943-1.266.943-1.716 0-.875-.572-1.312-1.716-1.312-.556 0-1.137.278-1.743.834l-.966-1.81c.806-.63 1.866-.946 3.178-.946 1.013 0 1.858.281 2.536.844.678.562 1.017 1.309 1.017 2.24 0 .638-.123 1.177-.37 1.617-.247.441-.681.958-1.303 1.552-.622.594-1.027 1.087-1.214 1.481a2.97 2.97 0 00-.282 1.294c0 .1.044.362.132.788zM17 1c8.837 0 16 7.163 16 16s-7.163 16-16 16S1 25.837 1 17 8.163 1 17 1zm0 1.527C9.007 2.527 2.527 9.007 2.527 17S9.007 31.473 17 31.473 31.473 24.993 31.473 17 24.993 2.527 17 2.527zm-.342 18.785c.425 0 .786.15 1.083.45.297.3.445.663.445 1.088 0 .425-.148.787-.445 1.087-.297.3-.658.45-1.083.45-.425 0-.788-.15-1.088-.45-.3-.3-.45-.662-.45-1.087 0-.425.15-.787.45-1.088.3-.3.663-.45 1.088-.45z"
          fill="#FFF" fill-rule="nonzero"/>
</svg>
