<svg version="1.1" id="Calque_1" xmlns="http://www.w3.org/2000/svg" xmlns:xlink="http://www.w3.org/1999/xlink" x="0px" y="0px"
	 viewBox="0 0 19 19" style="enable-background:new 0 0 19 19;" xml:space="preserve">
				<path class="st0" d="M7.4,0C3.3,0,0,3.3,0,7.4c0,4.1,3.3,7.4,7.4,7.4c1.6,0,3-0.5,4.2-1.3l5.1,5.1c0.5,0.5,1.3,0.5,1.9,0
					c0.5-0.5,0.5-1.3,0-1.9l-5.1-5.1c0.8-1.2,1.3-2.7,1.3-4.2C14.9,3.3,11.5,0,7.4,0L7.4,0z M7.4,2.6c2.7,0,4.8,2.1,4.8,4.8
					s-2.1,4.8-4.8,4.8c-2.7,0-4.8-2.1-4.8-4.8S4.8,2.6,7.4,2.6z"/>
</svg>
