<?xml version="1.0" encoding="UTF-8"?>
<svg viewBox="0 0 410 500" version="1.1" xmlns="http://www.w3.org/2000/svg" xmlns:xlink="http://www.w3.org/1999/xlink">
    <g id="Page-1" stroke-width="1" fill-rule="evenodd">
        <g id="Summary">
            <path d="M176.724561,62.1050187 C181.689642,65.0841685 183.305041,71.5319999 180.319,76.4902563 L138.360574,146.423351 C136.703216,149.192702 133.84305,151.045929 130.647217,151.437554 C127.451383,151.82918 124.227577,150.724237 121.954829,148.444418 L93.9825456,120.47118 C89.884606,116.3731 89.884606,109.73645 93.9825456,105.63837 C98.0734921,101.540291 104.71691,101.540291 108.814849,105.63837 L127.283549,124.114694 L162.332821,65.7065731 C165.318862,60.73433 171.759481,59.1188755 176.724561,62.1050187 Z M338.485248,212.121212 C344.011694,212.121212 348.484848,215.515152 348.484848,219.69697 C348.484848,223.878788 344.011694,227.272727 338.485248,227.272727 L191.817782,227.272727 C186.298003,227.272727 181.818182,223.878788 181.818182,219.69697 C181.818182,215.515152 186.298003,212.121212 191.817782,212.121212 L338.485248,212.121212 Z M338.485248,106.060606 C344.011694,106.060606 348.484848,109.454545 348.484848,113.636364 C348.484848,117.818182 344.011694,121.212121 338.485248,121.212121 L191.817782,121.212121 C186.298003,121.212121 181.818182,117.818182 181.818182,113.636364 C181.818182,109.454545 186.298003,106.060606 191.817782,106.060606 L338.485248,106.060606 Z M338.485248,318.181818 C344.011694,318.181818 348.484848,321.575758 348.484848,325.757576 C348.484848,329.939394 344.011694,333.333333 338.485248,333.333333 L191.817782,333.333333 C186.298003,333.333333 181.818182,329.939394 181.818182,325.757576 C181.818182,321.575758 186.298003,318.181818 191.817782,318.181818 L338.485248,318.181818 Z M176.724561,168.165625 C181.689642,171.144775 183.305041,177.592606 180.319,182.550862 L138.360574,252.483957 C136.703216,255.253308 133.84305,257.106535 130.647217,257.49816 C127.451383,257.889786 124.227577,256.784843 121.954829,254.505024 L93.9825456,226.531786 C89.884606,222.433706 89.884606,215.797056 93.9825456,211.698976 C98.0734921,207.600897 104.71691,207.600897 108.814849,211.698976 L127.283549,230.1753 L162.332821,171.767179 C165.318862,166.794936 171.759481,165.179482 176.724561,168.165625 Z M176.724561,274.226231 C181.689642,277.205381 183.305041,283.653212 180.319,288.611468 L138.360574,358.544563 C136.703216,361.313914 133.84305,363.167141 130.647217,363.558766 C127.451383,363.950392 124.227577,362.845449 121.954829,360.56563 L93.9825456,332.592392 C89.884606,328.494313 89.884606,321.857662 93.9825456,317.759582 C98.0734921,313.661503 104.71691,313.661503 108.814849,317.759582 L127.283549,336.235906 L162.332821,277.827785 C165.318862,272.855542 171.759481,271.240088 176.724561,274.226231 Z M389.282991,368.421053 L306.804985,368.421053 C286.779326,368.460526 270.56085,384.638158 270.521261,404.605263 L270.521261,480.263158 L26.3929619,480.263158 C22.8167155,480.263158 19.7947214,477.25 19.7947214,473.684211 L19.7947214,26.3157895 C19.7947214,22.75 22.8167155,19.7368421 26.3929619,19.7368421 L382.697947,19.7368421 C386.274194,19.7368421 389.296188,22.75 389.296188,26.3157895 L389.282991,368.421053 Z M302.555718,467.592105 C299.652493,470.328947 295.192082,472.967105 290.322581,475.144737 L290.322581,404.605263 C290.322581,400.085526 292.150293,396.019737 295.172287,392.993421 C298.194282,389.980263 302.271994,388.157895 306.804985,388.157895 L383.483138,388.157895 C381.351906,392.309211 378.837977,396.013158 376.291056,398.401316 L302.555718,467.592105 Z M26.3929619,0 C11.8768328,0 0,11.8421053 0,26.3157895 L0,473.684211 C0,488.157895 11.8768328,500 26.3929619,500 L270.521261,500 C285.03739,500 305.557918,491.888158 316.128299,481.967105 L389.863636,412.769737 C400.427419,402.848684 409.077713,382.894737 409.077713,368.421053 L409.090909,26.3157895 C409.090909,11.8421053 397.214076,0 382.697947,0 L26.3929619,0 Z" id="Fill-1"></path>
        </g>
    </g>
</svg>
