<svg version="1.1" id="Calque_1" xmlns="http://www.w3.org/2000/svg" xmlns:xlink="http://www.w3.org/1999/xlink" x="0px" y="0px" viewBox="0 0 500 500" style="enable-background:new 0 0 500 500;" xml:space="preserve">
<path d="M322.1,322.3v168.2h168.2V322.3H322.1z M378,444.8c-16,0-28.3-7.8-29.5-21.3h15.4c1.1,6.7,5.9,10.9,14.1,10.9
  c9.7,0,15.8-5.3,15.8-14.9c0-9.7-6.1-15.7-15.8-15.7c-7,0-12.4,3.7-14.7,7.5l-13.4-3.9l8.6-39.2h43.6V380h-32.3l-3.8,17
  c3.5-2.2,8.5-3.4,13.6-3.4c17,0,29.4,8.6,29.4,25.9C409,434.3,396.9,444.8,378,444.8z M444.4,444.6c-4.2-1-5.8-15.3-6.2-30.1
  c-11.8,0.3-21.8-12.7-20.8-27.1c-2.9,1.1-5.2,1.7-6.8-1.3c5.2-4.8,15.7-12.1,15.3-8.8c-0.9,4.1-3.4,36.1,12.3,34.9
  c-0.3-15.1,0.4-30,0.4-30.8c-3.1,1.3-7.2,6-10.3,0.8c5.7-6.3,13.1-13.6,17.3-14.2c0.4,0,0.9,0.1,0.9,0.7c0,0-0.2,21.5-0.6,41.7
  c15.3-6.1,14.3-26.1,12-30.5c-2.9,1.1-4.8,3.4-8.4-0.6c9.1-8.2,13.4-10.9,13.9-9c0,0,10.7,33.7-17.6,42.5
  C445.4,429.6,445,444.7,444.4,444.6z M458.6,435.1l-7.9-7.9l7.9-7.9l8,7.9L458.6,435.1z"/>
<g>
  <polygon points="419.9,240.9 397.3,218.3 374.6,240.9 397.3,263.5  "/>
  <g>
    <path d="M410.7,78.7c-1.5-5.4-13.6,2.4-39.5,25.7c10.4,11.4,15.5,4.9,23.8,1.8c6.7,12.6,9.3,69.6-34.1,86.8
      c1.1-57.4,1.7-118.8,1.7-118.8c0-1.6-1.4-2.1-2.6-2c-11.9,1.6-33.1,22.6-49.4,40.3c8.9,14.8,20.4,1.5,29.4-2.1
      c0,2.4-2.1,44.8-1.2,87.8c-44.7,3.4-37.6-87.7-34.9-99.4c1-9.4-28.8,11.3-43.6,25.1c4.6,8.4,11.2,6.7,19.4,3.6
      c-3,40.9,25.7,78.1,59.3,77.2c1.2,42.1,5.6,83,17.8,85.9c1.6,0.4,3-42.7,3.9-90.6C441.4,174.9,410.7,78.7,410.7,78.7"/>
  </g>
  <polygon points="226.4,159.9 184.9,159.9 184.9,212.2 126.3,212.2 214.2,76.5 168.8,76.5 80,212.2 80,244.3 184.9,244.3
    184.9,287.7 226.4,287.7 226.4,244.3 269.6,244.3 269.6,212.2 226.4,212.2   "/>
</g>
</svg>
