<svg version="1.1" id="Calque_1" xmlns="http://www.w3.org/2000/svg" xmlns:xlink="http://www.w3.org/1999/xlink" x="0px" y="0px"
	 viewBox="0 0 500 500" style="enable-background:new 0 0 500 500;" xml:space="preserve">
<path d="M363.8,335.7l-51,51l51,51l51-51L363.8,335.7L363.8,335.7z M396.2,13.9c-2.3-11.6-30.1,4.7-90.3,57.9
	c23.1,25.4,34.7,11.6,55.5,4.7c16.2,27.8,20.9,159.7-78.7,199.1c2.3-131.9,4.7-273.2,4.7-273.2c-2.3-2.3-4.7-2.3-7-2.3
	C252.7,4.7,204.1,51,167,92.6c20.9,34.7,46.3,2.3,67.2-4.7c0,4.7-4.7,101.8-2.3,201.4C130,296.3,146.2,88,150.8,62.5
	c2.3-23.1-64.8,25.4-99.5,55.5c11.6,18.5,25.4,16.2,44,9.2c-7,92.6,57.9,178.2,136.6,175.9c2.3,97.3,13.9,189.8,41.7,196.8
	c4.7,0,7-97.3,9.2-208.3C465.7,236.1,396.2,13.9,396.2,13.9L396.2,13.9z"/>
</svg>
