<svg version="1.1"
   xmlns="http://www.w3.org/2000/svg" xmlns:xlink="http://www.w3.org/1999/xlink"
   x="0px" y="0px" viewBox="0 0 280.5 469" style="enable-background:new 0 0 280.5 469;"
   xml:space="preserve">
<defs>
</defs>
<path d="M184.4,252.4c-0.7,0-1.5-0.1-2.2-0.4c-2.2-0.9-3.7-3-3.7-5.4v-64.4H84.1c-25.3,0-46-20.6-46-46V46c0-25.3,20.6-46,46-46
  h150.4c25.3,0,46,20.6,46,46v90.3c0,14.1-6.5,23.3-14.5,32.9c-0.2,0.4-0.5,0.9-0.9,1.2l-76.5,80.2
  C187.5,251.8,186,252.4,184.4,252.4z M84.1,11.7c-18.9,0-34.3,15.4-34.3,34.3v90.3c0,18.9,15.4,34.3,34.3,34.3h100.3
  c3.2,0,5.9,2.6,5.9,5.9v55.6l65.6-68.7c0.1-0.2,0.3-0.4,0.5-0.6c8.5-10.1,12.5-16.6,12.5-26.3V46c0-18.9-15.4-34.3-34.3-34.3H84.1z"
  />
<g id="XMLID_1_">
  <path d="M88.6,345.6c-36.1,0-65.5-29.4-65.5-65.5s29.4-65.5,65.5-65.5s65.5,29.4,65.5,65.5S124.7,345.6,88.6,345.6z M88.6,226.4
    c-29.6,0-53.8,24.1-53.8,53.8s24.1,53.8,53.8,53.8s53.8-24.1,53.8-53.8S118.3,226.4,88.6,226.4z"/>
  <path d="M171.4,469c-3.2,0-5.9-2.6-5.9-5.9c0-54.2-5.7-95.6-76.9-95.6S11.7,409,11.7,463.1c0,3.2-2.6,5.9-5.9,5.9S0,466.4,0,463.1
    c0-56.6,6.8-107.4,88.6-107.4s88.6,50.8,88.6,107.4C177.3,466.4,174.7,469,171.4,469z"/>
</g>
</svg>
