<svg version="1.1"
   xmlns="http://www.w3.org/2000/svg" xmlns:xlink="http://www.w3.org/1999/xlink"
   x="0px" y="0px" viewBox="0 0 500 461.53845"
   style="enable-background:new 0 0 500 461.53845;" xml:space="preserve">
<defs>
</defs>
<path d="M423.07693,38.46154h-38.46155V0h-38.46155v38.46154H153.84616V0h-38.46155v38.46154H76.92308
  C34.61515,38.46154,0,73.07669,0,115.38461v57.69231v38.46155v173.07692c0,42.30792,34.61515,76.92307,76.92308,76.92307h346.15387
  c42.30792,0,76.92307-34.61514,76.92307-76.92307V115.38461C500,73.07669,465.38486,38.46154,423.07693,38.46154z
   M461.53845,384.61539c0,21.20853-17.25415,38.46155-38.46152,38.46155H76.92308c-21.20737,0-38.46154-17.25302-38.46154-38.46155
  V211.53847h423.0769V384.61539z M461.53845,173.07692H38.46154v-57.69231c0-21.20737,17.25417-38.46153,38.46154-38.46153h38.46153
  v38.46153h38.46155V76.92308h192.30768v38.46153h38.46155V76.92308h38.46155c21.20737,0,38.46152,17.25417,38.46152,38.46153
  V173.07692z"/>
</svg>
