<?xml version="1.0" encoding="UTF-8"?>
<svg viewBox="0 0 469 500" version="1.1" xmlns="http://www.w3.org/2000/svg" xmlns:xlink="http://www.w3.org/1999/xlink">
    <!-- Generator: Sketch 52.3 (67297) - http://www.bohemiancoding.com/sketch -->
    <title>reset</title>
    <desc>Created with Sketch.</desc>
    <g id="Page-1" stroke="none" stroke-width="1" fill="none" fill-rule="evenodd">
        <path d="M425.777072,144.450223 C419.211322,134.974307 405.532676,132.868547 396.231197,139.185825 C386.382572,145.503103 383.646842,159.190538 390.759738,168.666455 C415.928447,202.885044 429.059947,246.05311 424.682781,291.853374 C416.475593,378.715945 343.705196,448.732442 253.426131,457.155479 C134.148337,468.210715 33.4735012,372.925107 43.8692723,258.161225 C52.07646,164.981377 133.601191,92.3326808 230.446006,90.2269215 L230.446006,123.91907 C230.446006,136.027186 244.671798,143.397344 255.067569,137.080066 L345.346633,82.8567639 C355.742404,76.539486 355.742404,62.3256108 345.346633,56.5347727 L255.067569,2.31147079 C244.124652,-4.0058071 230.446006,3.36435044 230.446006,15.4724664 L230.446006,49.1646152 C113.356795,50.7439346 15.9648342,133.921427 1.7390422,246.579549 C-15.7696248,386.612543 101.319586,505.587943 245.218943,499.797105 C364.496738,494.532707 462.435844,401.352858 468.454448,286.588976 C471.190178,233.418554 454.775802,184.45965 425.777072,144.450223 Z" id="reset" fill="#13A3C0"></path>
    </g>
</svg>
