<svg xmlns='http://www.w3.org/2000/svg' viewBox='0 0 30 30' fill='none'>
<symbol id='Amenities'>
<path d="M25.49 20.8651V8.3955C25.49 7.49625 24.8 6.76686 23.93 6.73689V5.28809C23.94 4.02914 22.95 3 21.74 3H18.69C17.49 3 16.51 4.01915 16.49 5.26811V6.73689C15.62 6.77685 14.93 7.49625 14.93 8.3955V20.8551H12.64C12.65 20.7752 12.67 20.6953 12.67 20.6053V18.7868C12.67 18.7868 12.7 18.7569 12.7 18.7369L14.59 5.40799C14.63 5.13822 14.55 4.85845 14.37 4.64863C14.3 4.56869 14.23 4.50874 14.14 4.45878C13.61 4.12906 11.68 3.03997 9 3.02997H8.96C5.94 3.03997 3.87 4.42881 3.79 4.48876C3.49 4.68859 3.34 5.04829 3.39 5.40799L5.28 18.7369C5.28 18.7369 5.3 18.7769 5.3 18.8068V20.5853C5.28 20.6753 5.3 20.7752 5.3 20.8651H4.67C3.75 20.8651 3 21.6145 3 22.5337V25.3314C3 26.2506 3.75 27 4.67 27H25.33C25.78 27 26.22 26.8202 26.53 26.5004C26.84 26.1807 27.01 25.761 27 25.3414V22.5437C27 21.6744 26.33 20.975 25.49 20.8951V20.8651ZM16.84 8.6353H23.58V20.8152H16.84V8.6353ZM18.7 4.90841H21.75C21.91 4.90841 22.04 5.07827 22.04 5.2781V6.73689H18.39V5.29808C18.4 5.06828 18.55 4.9184 18.69 4.9184L18.7 4.90841ZM8.99 4.92839H9C10.63 4.92839 11.93 5.43797 12.62 5.78768L10.94 17.6578H7.05L5.37 5.78768C6.04 5.45795 7.34 4.93838 8.99 4.93838V4.92839ZM7.27 20.7752C7.27 20.7752 7.2 20.6853 7.2 20.6053V19.5562H10.79V20.5953C10.78 20.7452 10.65 20.8651 10.5 20.8651H7.48C7.37 20.8651 7.31 20.8152 7.27 20.7752ZM25.11 25.0816H4.91V22.7635H25.1V25.0816H25.11Z" fill="currentColor"/>
</symbol>
</svg>
