<svg xmlns='http://www.w3.org/2000/svg' viewBox='0 0 30 30' fill='none'>
<symbol id='BabyBed'>
<path d="M27 13.6289C27 12.598 26.16 11.7674 25.14 11.7674H5.02C5.2 8.3345 7.8 5.53218 11.16 5.06178V5.12183C11.16 5.48213 11.36 5.77237 11.64 5.95252L11.39 6.71316C11.34 6.85327 11.2 6.96336 11.05 6.96336H9.56C9.22 6.96336 9.07 7.41374 9.35 7.6139L10.54 8.49464C10.67 8.58471 10.72 8.75485 10.67 8.90498L10.21 10.3161C10.11 10.6564 10.48 10.9367 10.77 10.7265L11.97 9.85577C12.1 9.76569 12.27 9.76569 12.4 9.85577L13.6 10.7265C13.88 10.9267 14.26 10.6464 14.16 10.3161L13.7 8.90498C13.65 8.75485 13.7 8.59472 13.83 8.49464L15.03 7.6139C15.31 7.40373 15.17 6.96336 14.82 6.96336H13.33C13.18 6.96336 13.04 6.87329 12.99 6.71316L12.73 5.9225C12.98 5.74235 13.15 5.46212 13.15 5.13184V4.0009C13.15 3.45045 12.7 3.00007 12.15 3.00007C7.11 2.98006 3 7.08346 3 12.1377V25.9992C3 26.5496 3.45 27 4 27C4.55 27 5 26.5496 5 25.9992V25.1184H24.99V25.9992C24.99 26.5496 25.44 27 25.99 27C26.54 27 26.99 26.5496 26.99 25.9992V23.357C26.99 23.357 26.99 23.2969 26.99 23.2669V13.6189L27 13.6289ZM12.24 13.769H13.93V23.1268H12.24V13.769ZM10.24 23.1268H8.58V13.769H10.24V23.1268ZM15.93 13.769H17.59V23.1268H15.93V13.769ZM19.59 13.769H21.43V23.1268H19.59V13.769ZM5.01 19.9441V13.769H6.58V23.1268H5.01V19.9441ZM23.43 23.1268V13.769H25V17.9725C25 17.9725 25 18.0025 25 18.0125V23.1268H23.44H23.43Z" fill="currentColor"/>
</symbol>
</svg>
