<svg xmlns='http://www.w3.org/2000/svg' viewBox='0 0 30 30' fill='none'>
<symbol id='Balcony'>
<path d="M26.4198 25.11V18.51C26.7499 18.35 26.99 18.01 26.99 17.62C26.99 17.07 26.5398 16.62 25.9896 16.62H23.5186V6.54C23.5186 4.59 21.9279 3 19.9671 3H10.0229C8.06211 3 6.47145 4.59 6.47145 6.54V16.62H4.00042C3.45019 16.62 3 17.07 3 17.62C3 18.02 3.2401 18.35 3.57024 18.51V25.11C3.2401 25.27 3 25.61 3 26C3 26.55 3.45019 27 4.00042 27H25.9996C26.5498 27 27 26.55 27 26C27 25.6 26.7699 25.27 26.4298 25.11H26.4198ZM7.02168 18.62V25H5.56107V18.62H7.02168ZM9.03251 18.62H10.5031V25H9.03251V18.62ZM12.514 18.62H13.9846V25H12.514V18.62ZM15.9954 18.62H17.466V25H15.9954V18.62ZM19.4769 18.62H20.9475V25H19.4769V18.62ZM22.9583 18.62H24.4189V25H22.9583V18.62ZM21.5077 6.54V16.62H15.9954V5H19.9571C20.8074 5 21.5077 5.69 21.5077 6.54ZM10.0129 5H13.9846V16.62H8.46228V6.54C8.46228 5.69 9.15256 5 10.0129 5Z" fill="currentColor"/>
</symbol>
</svg>
