<svg xmlns='http://www.w3.org/2000/svg' viewBox='0 0 30 30' fill='none'>
<symbol id='Balneotherapy'>
<path fill-rule="evenodd" clip-rule="evenodd" d="M10.273 12.3352H10.3631H10.4031C11.0934 12.3352 13.4343 12.2053 15.055 10.5961C16.6357 9.00692 16.6457 6.94798 16.5757 6.17838C16.5757 6.03845 16.5556 5.89852 16.4956 5.75859C16.4256 5.58868 16.3055 5.44875 16.1655 5.34881C16.1055 5.29883 16.0354 5.25885 15.9554 5.22887C15.8353 5.17889 15.7053 5.14891 15.5752 5.14891C15.3651 5.12892 14.975 5.10893 14.4848 5.14891C14.3447 4.72913 14.1747 4.31934 13.9646 3.94953C13.9346 3.88956 13.8945 3.82959 13.8545 3.77961C13.5944 3.4298 13.0542 3.28987 12.644 3.46977C12.4739 3.52974 12.1238 3.67967 11.7236 3.90955C11.4935 3.64968 11.2834 3.44979 11.1434 3.33984C10.9133 3.07998 10.5131 2.94005 10.163 3.02001C10.103 3.03 10.0429 3.04999 9.99291 3.06998C9.88286 3.11996 9.78282 3.17992 9.70279 3.25988C9.57273 3.35983 9.32263 3.58971 9.04251 3.89955C8.66236 3.67967 8.32221 3.53974 8.15214 3.46977C7.85202 3.32985 7.45185 3.35983 7.18174 3.53974C7.04168 3.62969 6.92163 3.74963 6.8416 3.89955C6.74155 4.06947 6.48145 4.52923 6.28136 5.1589C5.82117 5.11892 5.45102 5.12892 5.23093 5.14891C5.09087 5.14891 4.95081 5.1689 4.81075 5.22887C4.64068 5.29883 4.50062 5.41877 4.40058 5.5587C4.35056 5.61867 4.31054 5.68863 4.28053 5.76859C4.23051 5.88853 4.2005 6.01846 4.2005 6.15839C4.13047 6.89801 4.11046 9.00692 5.72113 10.5961C7.26177 12.1353 9.46269 12.3252 10.273 12.3352ZM6.21133 7.16787C6.62151 7.21784 7.13172 7.34777 7.61192 7.61763C7.63193 8.4572 7.85202 9.21681 8.14214 9.86647C7.78199 9.69656 7.43184 9.48667 7.13172 9.18682C6.50146 8.55715 6.28136 7.77755 6.21133 7.16787ZM13.6444 9.19682C13.3443 9.49667 12.9842 9.71655 12.624 9.88646C12.9241 9.2368 13.1442 8.47719 13.1642 7.63762C13.6444 7.35777 14.1546 7.22784 14.5748 7.17786C14.5048 7.77755 14.2847 8.56714 13.6444 9.20681V9.19682ZM11.1734 7.51769C11.1734 8.41722 10.7732 9.21681 10.3931 9.77652C10.0129 9.20681 9.60275 8.39723 9.60275 7.50769C9.60275 6.61815 10.0129 5.88853 10.3831 5.41877C10.7532 5.88853 11.1734 6.60816 11.1734 7.51769ZM26.0196 16.0332H15.1551C15.1551 15.2936 14.4948 14.6839 13.6945 14.6839H9.46269C8.66236 14.6839 8.01209 15.2836 8.00208 16.0332H4.00042C3.45019 16.0332 3 16.483 3 17.0327C3 17.5824 3.45019 18.0322 4.00042 18.0322H4.65069V20.6908C4.65069 22.3 5.57107 23.6793 6.90163 24.3889L6.50146 25.6982C6.34139 26.228 6.64152 26.7877 7.16173 26.9476C7.26178 26.9776 7.36182 26.9876 7.45185 26.9876C7.88203 26.9876 8.2722 26.7077 8.41226 26.2779L8.84243 24.8886H21.5577C21.5966 24.8886 21.6354 24.8839 21.6754 24.8791L21.6754 24.8791C21.7178 24.874 21.7615 24.8687 21.8078 24.8687L22.238 26.2879C22.3681 26.7177 22.7682 26.9976 23.1984 26.9976C23.2985 26.9976 23.3985 26.9876 23.4885 26.9576C24.0188 26.7977 24.3189 26.2379 24.1488 25.7082L23.7086 24.289C24.9191 23.5493 25.7395 22.23 25.7395 20.7108V18.0522H25.9996C26.5498 18.0522 27 17.6024 27 17.0527C27 16.503 26.5498 16.0532 25.9996 16.0532L26.0196 16.0332ZM10.0129 16.6829H13.1542V19.5814H10.0129V16.6829ZM23.7486 18.0322V20.6908C23.7486 21.9002 22.7682 22.8797 21.5577 22.8797H8.84243C7.63193 22.8797 6.65152 21.9002 6.65152 20.6908V18.0322H8.01209V20.2211C8.01209 20.9707 8.66236 21.5804 9.4727 21.5804H13.7045C14.5048 21.5804 15.1651 20.9707 15.1651 20.2211V18.0322H23.7486ZM24.1388 10.5461C24.1388 9.66652 23.4285 8.95689 22.5481 8.95689C21.6677 8.95689 20.9574 9.66652 20.9574 10.5461C20.9574 11.4256 21.6677 12.1352 22.5481 12.1352C23.4285 12.1352 24.1388 11.4256 24.1388 10.5461ZM25.6595 4.28933C25.6595 4.99897 25.0793 5.57867 24.369 5.57867C23.6587 5.57867 23.0784 4.99897 23.0784 4.28933C23.0784 3.5797 23.6587 3 24.369 3C25.0793 3 25.6595 3.5797 25.6595 4.28933ZM19.747 7.9975C20.4173 7.9975 20.9575 7.45778 20.9575 6.78812C20.9575 6.11847 20.4173 5.57875 19.747 5.57875C19.0767 5.57875 18.5365 6.11847 18.5365 6.78812C18.5365 7.45778 19.0767 7.9975 19.747 7.9975Z" fill="currentColor"/>
</symbol>
</svg>
