<svg xmlns='http://www.w3.org/2000/svg' viewBox='0 0 30 30' fill='none'>
<symbol id='Bathrobe'>
<path fill-rule="evenodd" clip-rule="evenodd" d="M16.4899 17.3999C17.2905 17.3999 17.9409 16.7499 17.9409 15.9399C17.8927 7.77338 16.8051 4.84686 16.689 4.53449L16.689 4.53446C16.6845 4.52248 16.6815 4.51436 16.68 4.50992C16.62 4.37992 16.5399 4.25992 16.4398 4.16992C16.3898 4.11992 16.3298 4.08992 16.2697 4.05992C16.253 4.04992 16.2375 4.03881 16.2219 4.0277C16.1908 4.00548 16.1596 3.98326 16.1196 3.96992C16.1096 3.96992 16.0996 3.96242 16.0896 3.95492C16.0796 3.94742 16.0696 3.93992 16.0596 3.93992L13.3876 3.06992C12.9173 2.91992 12.4269 3.00992 12.0466 3.26992H8.77423C8.77423 3.26992 8.7342 3.22992 8.70417 3.20992C8.35392 2.98992 7.93361 2.94992 7.54332 3.07992L4.89138 3.93992C4.89138 3.93992 4.88138 3.94992 4.87137 3.94992C4.61118 4.03992 4.39102 4.21992 4.27093 4.49992C4.22089 4.61992 3.05004 7.44992 3 15.9399C3 16.7399 3.65048 17.3999 4.45106 17.3999H5.4618V21.0199C5.4618 22.0599 6.31242 22.9099 7.35319 22.9099H11.5463H11.5963H13.5978C14.6385 22.9099 15.4891 22.0599 15.4891 21.0199V17.4099H16.4999L16.4899 17.3999ZM15.4791 15.3899V10.1699C15.4791 9.79992 15.5092 9.42992 15.5592 9.06992C15.7393 10.6099 15.8894 12.6699 15.9295 15.3899H15.4891H15.4791ZM14.3983 5.50992C13.998 6.59992 13.4677 8.37992 13.4677 10.1699V11.3299H12.0166L11.4262 9.75992L13.1674 5.10992L14.3983 5.50992ZM9.74494 5.27992H10.9658L10.3554 6.90992L9.74494 5.27992ZM7.56334 5.17992C7.56334 5.17992 7.58335 5.22992 7.58335 5.24992L9.86502 11.3199H7.44325V10.1699C7.44325 8.37992 6.91286 6.59992 6.51257 5.50992L7.56334 5.16992V5.17992ZM4.99146 15.3899C5.02148 12.6699 5.17159 10.6099 5.36173 9.06992C5.41177 9.43992 5.44179 9.80992 5.44179 10.1799V15.3899H5.00146H4.99146ZM7.44325 13.3299H10.5255V20.8999H8.6041H8.55407H7.44325V13.3299ZM12.527 20.8999V13.3299H13.4577V20.8999H12.527ZM26.3071 18.6099C25.3665 17.6299 23.6552 17.6399 22.7245 18.6099C22.2542 19.0999 22.014 19.7499 22.044 20.4299L22.2442 24.8199C22.3042 26.0399 23.305 26.9899 24.5258 26.9899C25.7467 26.9899 26.7475 26.0399 26.7975 24.8199L26.9977 20.4299C27.0277 19.7599 26.7675 19.0899 26.3071 18.6099ZM24.0555 20.3299C24.0555 20.1645 24.1313 20.0465 24.1815 19.9941C24.2346 19.9426 24.3524 19.8499 24.5258 19.8499C24.706 19.8499 24.8161 19.9399 24.8661 19.9899C24.9161 20.0499 25.0062 20.1699 25.0062 20.3399L24.9862 20.7699C24.6459 20.7999 24.3457 20.7899 24.0755 20.7699L24.0555 20.3299ZM24.2556 24.7299L24.1656 22.8799C24.2757 22.8699 24.3857 22.8599 24.4858 22.8599H24.5359C24.6459 22.8599 24.766 22.8699 24.8761 22.8899L24.786 24.7299C24.776 25.0199 24.2556 25.0199 24.2456 24.7299H24.2556ZM16.5698 20.4399C16.5398 19.7599 16.78 19.1099 17.2503 18.6199H17.2303C18.171 17.6499 19.8822 17.6399 20.8229 18.6199C21.2833 19.0999 21.5435 19.7699 21.5134 20.4399L21.3133 24.8299C21.2632 26.0499 20.2525 26.9999 19.0416 26.9999C17.8307 26.9999 16.83 26.0499 16.77 24.8299L16.5698 20.4399ZM19.0516 19.8499C18.8715 19.8499 18.7514 19.9499 18.7014 19.9999V19.9899C18.6513 20.0399 18.5713 20.1599 18.5713 20.3299L18.5913 20.7699C18.8615 20.7899 19.1617 20.7999 19.502 20.7699L19.522 20.3399C19.532 20.1599 19.4419 20.0399 19.3919 19.9899C19.3418 19.9399 19.2318 19.8499 19.0516 19.8499ZM18.6914 22.8799L18.7814 24.7299H18.7714C18.7814 25.0199 19.3018 25.0199 19.3118 24.7299L19.4019 22.8899C19.2918 22.8699 19.1717 22.8599 19.0616 22.8599H19.0116C18.9115 22.8599 18.8014 22.8699 18.6914 22.8799Z" fill="currentColor"/>
</symbol>
</svg>
