<svg xmlns='http://www.w3.org/2000/svg' viewBox='0 0 30 30' fill='none'>
<symbol id='BeachTowel'>
<path d="M20.9329 3C20.346 3 19.8659 3.45 19.8659 4V4.26H18.0412V4C18.0412 3.45 17.561 3 16.9741 3C16.3872 3 15.907 3.45 15.907 4V4.26H14.093V4C14.093 3.45 13.6128 3 13.0259 3C12.439 3 11.9588 3.45 11.9588 4V4.26H10.1341V4C10.1341 3.45 9.65396 3 9.06707 3C8.48018 3 8 3.45 8 4V26C8 26.55 8.48018 27 9.06707 27C9.65396 27 10.1341 26.55 10.1341 26V25.74H11.9588V26C11.9588 26.55 12.439 27 13.0259 27C13.6128 27 14.093 26.55 14.093 26V25.74H15.907V26C15.907 26.55 16.3872 27 16.9741 27C17.561 27 18.0412 26.55 18.0412 26V25.74H19.8659V26C19.8659 26.55 20.346 27 20.9329 27C21.5198 27 22 26.55 22 26V4C22 3.45 21.5198 3 20.9329 3ZM10.1448 11.52C10.6997 11.26 12.471 10.59 14.5732 11.65C15.7896 12.27 16.9314 12.47 17.9345 12.47C18.6814 12.47 19.343 12.35 19.8765 12.2V18.54C19.2149 18.83 17.5396 19.33 15.5976 18.35C13.3887 17.23 11.404 17.47 10.1555 17.84V11.53L10.1448 11.52ZM19.8659 6.26V10.08C19.2043 10.37 17.529 10.87 15.5869 9.89C13.378 8.77 11.3933 9.01 10.1448 9.38V6.27H19.8659V6.26ZM10.1448 23.74V19.98C10.6784 19.72 12.4604 19.04 14.5732 20.11C15.7896 20.73 16.9314 20.93 17.9345 20.93C18.6814 20.93 19.343 20.81 19.8765 20.66V23.73H10.1555L10.1448 23.74Z" fill="currentColor"/>
</symbol>
</svg>
