<svg xmlns='http://www.w3.org/2000/svg' viewBox='0 0 30 30' fill='none'>
<symbol id='Bedroom'>
<path fill-rule="evenodd" clip-rule="evenodd" d="M26.31 12.05C27 12.14 27 12.64 27 14.86V24.75C27 25.99 25.89 27 24.53 27H5.47C4.11 27 3 26 3 24.76V13.08C3 12.67 3.24 12.33 3.59 12.17V5.79C3.59 4.25 4.73 3 6.12 3H23.78C25.18 3 26.31 4.25 26.31 5.79V12.05ZM5.01 14.07V15.76H24.99V14.03L5.01 14.07ZM23.77 5H6.12C5.87 5 5.59 5.32 5.59 5.79V12.07L24.3 12.03V5.79C24.3 5.33 24.02 5 23.77 5ZM5.48 25H24.53C24.82 25 25 24.83 25 24.76V17.77H5.01V24.76C5.01 24.84 5.19 25 5.48 25ZM8.32989 11.44H12.4199C12.9899 11.44 13.5299 11.21 13.9399 10.8C14.3599 10.37 14.5999 9.78001 14.5899 9.18001V7.77001C14.5899 6.52001 13.6099 5.51001 12.4099 5.51001H8.31989C7.11989 5.51001 6.13989 6.52001 6.13989 7.77001V9.18001C6.13989 10.43 7.11989 11.44 8.31989 11.44H8.32989ZM8.14989 7.77001C8.14989 7.61001 8.24989 7.51001 8.32989 7.51001H12.4199C12.4999 7.51001 12.5999 7.62001 12.5999 7.77001V9.19001C12.5999 9.30001 12.5499 9.37001 12.5199 9.39001C12.4899 9.42001 12.4499 9.44001 12.4199 9.44001H8.32989C8.24989 9.44001 8.14989 9.33001 8.14989 9.18001V7.77001ZM17.3499 11.44H21.4399C22.0099 11.44 22.5499 11.21 22.9599 10.8C23.3799 10.37 23.6199 9.78001 23.6099 9.18001V7.77001C23.6099 6.52001 22.6299 5.51001 21.4299 5.51001H17.3399C16.1399 5.51001 15.1599 6.52001 15.1599 7.77001V9.18001C15.1599 10.43 16.1399 11.44 17.3399 11.44H17.3499ZM17.1699 7.77001C17.1699 7.61001 17.2699 7.51001 17.3499 7.51001H21.4399C21.5199 7.51001 21.6199 7.62001 21.6199 7.77001V9.19001C21.6199 9.30001 21.5699 9.37001 21.5399 9.39001C21.5099 9.42001 21.4699 9.44001 21.4399 9.44001H17.3499C17.2699 9.44001 17.1699 9.33001 17.1699 9.18001V7.77001Z" fill="currentColor"/>
</symbol>
</svg>
