<svg xmlns='http://www.w3.org/2000/svg' viewBox='0 0 30 30' fill='none'>
<symbol id='ChildrenSeparatedRoom'>
<path fill-rule="evenodd" clip-rule="evenodd" d="M4 3C3.44772 3 3 3.44772 3 4C3 4.55228 3.44772 5 4 5H5C5.55228 5 6 5.44772 6 6V24C6 24.5523 5.55228 25 5 25H4C3.44772 25 3 25.4477 3 26C3 26.5523 3.44772 27 4 27H5C5.76836 27 6.46925 26.7111 7 26.2361C7.53076 26.7111 8.23164 27 9 27H12.1818C12.7341 27 13.1818 26.5523 13.1818 26C13.1818 25.4477 12.7341 25 12.1818 25H9C8.44772 25 8 24.5523 8 24V6C8 5.44772 8.44771 5 9 5H24C24.5523 5 25 5.44772 25 6V24C25 24.5523 24.5523 25 24 25H20.8182C20.2659 25 19.8182 25.4477 19.8182 26C19.8182 26.5523 20.2659 27 20.8182 27H24C25.6569 27 27 25.6569 27 24V6C27 4.34315 25.6569 3 24 3H9C8.23165 3 7.53076 3.28885 7 3.76389C6.46924 3.28885 5.76835 3 5 3H4Z" fill="currentColor"/>
<path d="M21.4627 14.0015L19.1976 12.3102C18.8851 12.0763 18.4946 11.9443 18.098 11.9443H17.7856C18.3864 11.5365 18.777 10.8468 18.777 10.0731C18.777 8.81962 17.7556 7.80005 16.4998 7.80005C15.2441 7.80005 14.2287 8.81962 14.2287 10.0731C14.2287 10.8528 14.6253 11.5365 15.2201 11.9443H14.9317C14.5412 11.9443 14.1506 12.0763 13.8322 12.3102L11.5491 14.0195C11.0383 14.4333 10.9482 15.189 11.3568 15.7048C11.7473 16.1966 12.4383 16.3105 12.9309 15.9926L14.0305 15.3749L13.5979 20.8326C13.5678 21.1805 13.682 21.5343 13.9163 21.7922C14.1506 22.0501 14.4931 22.2 14.8416 22.2C15.4304 22.2 15.9471 21.7802 16.0612 21.2225L16.4938 19.4352L16.9204 21.2105C17.0406 21.7862 17.5573 22.2 18.1461 22.2C18.4946 22.2 18.8371 22.0501 19.0714 21.7922C19.3057 21.5343 19.4259 21.1865 19.3958 20.8446L18.9632 15.3809L20.0327 15.9806C20.5614 16.3225 21.2524 16.2085 21.6429 15.7168C22.0515 15.201 21.9674 14.4453 21.4326 14.0135L21.4627 14.0015ZM16.5059 8.99955C17.0947 8.99955 17.5813 9.47935 17.5813 10.0731C17.5813 10.6669 17.1007 11.1407 16.5059 11.1407C15.911 11.1407 15.4364 10.6609 15.4364 10.0731C15.4364 9.48535 15.917 8.99955 16.5059 8.99955ZM14.9137 20.9526C14.9137 20.9526 14.8896 20.9946 14.8656 20.9946L14.8175 20.9286L15.0819 17.6L15.7128 18.0378C15.6407 18.1098 15.5866 18.1997 15.5626 18.3017L14.9197 20.9526H14.9137ZM18.1762 20.9946C18.1762 20.9946 18.1281 20.9766 18.1221 20.9346L17.4852 18.3017C17.4612 18.1937 17.4011 18.1038 17.329 18.0318L17.9659 17.588L18.2302 20.9226C18.2302 20.9226 18.1822 20.9826 18.1822 20.9886L18.1762 20.9946ZM20.6816 14.9431L18.6027 13.7736C18.4105 13.6656 18.1701 13.6716 17.9839 13.7916C17.7976 13.9115 17.6895 14.1214 17.7075 14.3433L17.8577 16.2085L16.5419 17.1202C16.5419 17.1202 16.5239 17.1442 16.5119 17.1502C16.4998 17.1442 16.4938 17.1262 16.4818 17.1202L15.184 16.2205L15.3342 14.3433C15.3523 14.1214 15.2441 13.9115 15.0579 13.7916C14.8716 13.6716 14.6313 13.6656 14.439 13.7736L12.3602 14.9431C12.3602 14.9431 12.3121 14.9551 12.3001 14.9611L14.5652 13.2698C14.6733 13.1918 14.8055 13.1438 14.9437 13.1438H15.4905C15.8209 13.1438 16.0913 12.8739 16.0913 12.5441C16.0913 12.4541 16.0673 12.3641 16.0312 12.2862C16.1874 12.3222 16.3436 12.3402 16.5119 12.3402C16.6801 12.3402 16.8363 12.3222 16.9925 12.2862C16.9565 12.3641 16.9324 12.4481 16.9324 12.5441C16.9324 12.8739 17.2028 13.1438 17.5333 13.1438H18.1101C18.2422 13.1438 18.3804 13.1858 18.4886 13.2698L20.7056 14.9311L20.6936 14.9431H20.6816Z" fill="currentColor"/>
</symbol>
</svg>
