<svg xmlns='http://www.w3.org/2000/svg' viewBox='0 0 30 30' fill='none'>
<symbol id='CreditCard'>
<g clip-path="url(#clip0_3061_5031)">
<path fill-rule="evenodd" clip-rule="evenodd" d="M6.13128 5.84009H23.8685C25.5892 5.84009 26.9998 7.24009 26.9998 8.97009V21.0201C27.0098 21.8501 26.6896 22.6401 26.0994 23.2301C25.5092 23.8201 24.7188 24.1501 23.8785 24.1501H6.13128C4.41057 24.1501 3 22.7501 3 21.0201V8.97009C3 7.25009 4.40057 5.84009 6.13128 5.84009ZM23.8785 7.84009H6.13128C5.51102 7.84009 5.00081 8.35009 5.00081 8.97009V10.2101L25.009 10.1501V8.97009C25.009 8.35009 24.4988 7.84009 23.8785 7.84009ZM23.8885 22.1501C24.1886 22.1501 24.4787 22.0301 24.6888 21.8201C24.8989 21.6101 25.009 21.3301 25.009 21.0301V12.1601L5.00081 12.2201V21.0201C5.00081 21.6401 5.51102 22.1501 6.13128 22.1501H23.8885ZM19.2865 15.2601C19.7467 14.9901 20.2769 14.8201 20.8471 14.8201C22.5478 14.8201 23.9284 16.2001 23.9284 17.9001C23.9284 19.6001 22.5478 20.9801 20.8471 20.9801C20.2769 20.9801 19.7467 20.8101 19.2865 20.5401C18.8063 20.8201 18.2761 20.9801 17.7159 20.9801C16.0152 20.9801 14.6346 19.6001 14.6346 17.9001C14.6346 16.2001 16.0152 14.8201 17.7159 14.8201C18.2761 14.8201 18.8163 14.9801 19.2865 15.2601ZM17.7159 16.8201C17.1156 16.8201 16.6354 17.3001 16.6354 17.9001V17.9101C16.6354 18.5101 17.1156 18.9901 17.7159 18.9901C17.7959 18.9901 17.8759 18.9701 17.956 18.9501C17.8459 18.6201 17.7659 18.2801 17.7659 17.9101C17.7659 17.5401 17.8359 17.1901 17.956 16.8601C17.8759 16.8401 17.7959 16.8201 17.7159 16.8201ZM19.7667 17.9001C19.7667 18.5001 20.2469 18.9801 20.8471 18.9801C21.4374 18.9801 21.9276 18.4901 21.9276 17.9001C21.9276 17.3101 21.4474 16.8201 20.8471 16.8201C20.2469 16.8201 19.7667 17.3001 19.7667 17.9001ZM7.03167 18.28H10.8632C11.4135 18.28 11.8636 17.83 11.8636 17.28C11.8636 16.73 11.4135 16.28 10.8632 16.28H7.03167C6.48145 16.28 6.03126 16.73 6.03126 17.28C6.03126 17.83 6.48145 18.28 7.03167 18.28ZM7.03167 18.98H12.3238C12.874 18.98 13.3242 19.43 13.3242 19.98C13.3242 20.53 12.874 20.98 12.3238 20.98H7.03167C6.48145 20.98 6.03126 20.53 6.03126 19.98C6.03126 19.43 6.48145 18.98 7.03167 18.98Z" fill="currentColor"/>
</g>
<defs>
<clipPath id="clip0_3061_5031">
<rect width="30" height="30" fill="white"/>
</clipPath>
</defs>
</symbol>
</svg>
