<svg xmlns='http://www.w3.org/2000/svg' viewBox='0 0 30 30' fill='none'>
<symbol id='Daybed'>
<path d="M26.97 20.0129C26.97 19.1833 26.2997 18.5135 25.4694 18.5135H15.986V11.7264H25.3294C25.9396 11.7264 26.4998 11.3865 26.7899 10.8467C27.07 10.317 27.04 9.67722 26.6899 9.17743C25.4094 7.3182 21.7281 3 15.2157 3C8.7034 3 4.74197 7.27822 3.33146 9.11745C2.96133 9.60725 2.89131 10.247 3.17141 10.8067C3.45151 11.3765 4.02171 11.7264 4.65194 11.7264H13.9953V18.5135H10.7942L10.7041 17.8838C10.5741 16.9442 9.76378 16.2445 8.82345 16.2445H4.01171C3.73161 16.2445 3.47152 16.3644 3.28145 16.5643C3.09138 16.7643 2.99134 17.0342 3.01135 17.314L3.35147 22.312C3.4315 22.9417 3.76162 23.4815 4.21178 23.8613L3.54154 25.6506C3.35147 26.1703 3.61157 26.7401 4.13175 26.94C4.2518 26.98 4.36184 27 4.48188 27C4.89203 27 5.27217 26.7501 5.42222 26.3503L6.14248 24.4311H8.34327L7.88311 25.6506C7.69304 26.1703 7.95313 26.7401 8.47332 26.94C8.59336 26.98 8.7034 27 8.82345 27C9.23359 27 9.61373 26.7501 9.76378 26.3503L10.484 24.4311H19.5273L20.2476 26.3503C20.3976 26.7501 20.7778 27 21.1879 27C21.3079 27 21.418 26.98 21.538 26.94C22.0582 26.7501 22.3183 26.1703 22.1282 25.6506L21.6681 24.4311H23.8689L24.5891 26.3503C24.7392 26.7501 25.1193 27 25.5295 27C25.6495 27 25.7596 26.98 25.8796 26.94C26.3998 26.7501 26.6599 26.1703 26.4698 25.6506L26.0096 24.4311C26.5598 24.4311 27 23.9813 27 23.4315C27 23.4115 27 23.3915 27 23.3715C27 23.3515 27 23.3315 27 23.3115V20.0229L26.97 20.0129ZM19.3973 9.7172H15.986V5.69888C16.9664 6.38859 18.3369 7.64806 19.3973 9.7172ZM24.6091 9.7172H21.6081C20.8378 7.92795 19.8474 6.56851 18.8871 5.56893C21.6481 6.47855 23.5187 8.2878 24.6191 9.7172H24.6091ZM11.0142 5.74885C10.1039 6.72845 9.18358 8.0279 8.45331 9.7172H5.42222C6.4726 8.49771 8.35328 6.73844 11.0142 5.74885ZM10.6541 9.7172C11.6845 7.70804 13.005 6.46855 13.9853 5.76885V9.7172H10.6541ZM8.72341 18.2337L8.91348 19.6431C8.9835 20.1329 9.40366 20.5027 9.90384 20.5027H24.9693V22.4119H5.76234C5.54226 22.4119 5.35219 22.242 5.33219 22.092L5.07209 18.2337H8.72341Z" fill="currentColor"/>
</symbol>
</svg>
