<svg xmlns='http://www.w3.org/2000/svg' viewBox='0 0 30 30' fill='none'>
<symbol id='Dressing'>
<g clip-path="url(#clip0_3061_5035)">
<path d="M25.69 18.7684L15.99 13.6475V12.6693C15.99 12.4097 16.11 12.1602 16.33 12.0104C17.12 11.4315 17.59 10.5031 17.59 9.52487V9.29528C17.59 7.80794 16.38 6.6001 14.89 6.6001C13.4 6.6001 12.19 7.80794 12.19 9.29528V9.94413C12.19 10.4931 12.64 10.9423 13.19 10.9423C13.74 10.9423 14.19 10.4931 14.19 9.94413V9.29528C14.19 8.91596 14.5 8.59653 14.89 8.59653C15.28 8.59653 15.59 8.90598 15.59 9.29528V9.52487C15.59 9.86427 15.42 10.1937 15.15 10.3933C14.42 10.9124 13.99 11.7709 13.99 12.6693V13.6575L4.3 18.7784C3.5 19.2076 3 20.0361 3 20.9445C3 22.3021 4.1 23.4001 5.46 23.4001H16.35C16.35 23.4001 16.38 23.4001 16.4 23.4001H24.54C25.9 23.4001 27 22.3021 27 20.9445C27 20.0461 26.5 19.2076 25.69 18.7784V18.7684ZM24.54 21.3937H13.65C13.65 21.3937 13.62 21.3937 13.6 21.3937H5.46C5.21 21.3937 5 21.1841 5 20.9345C5 20.7648 5.1 20.6051 5.25 20.5252L15.01 15.3744L24.76 20.5152C24.92 20.5951 25.01 20.7548 25.01 20.9245C25.01 21.1741 24.8 21.3837 24.55 21.3837L24.54 21.3937Z" fill="currentColor"/>
</g>
<defs>
<clipPath id="clip0_3061_5035">
<rect width="30" height="30" fill="white"/>
</clipPath>
</defs>
</symbol>
</svg>
