<svg xmlns='http://www.w3.org/2000/svg' viewBox='0 0 30 30' fill='none'>
<symbol id='Dryer'>
<path fill-rule="evenodd" clip-rule="evenodd" d="M25.5406 3.11001C25.8505 2.94993 26.2203 2.96994 26.5102 3.15003L26.5202 3.16003C26.8201 3.34012 27 3.66027 27 4.01044V16.1863C27 16.5364 26.8201 16.8566 26.5302 17.0367C26.3703 17.1367 26.1803 17.1868 26.0004 17.1868C25.8405 17.1868 25.6905 17.1467 25.5506 17.0767L22.092 15.3459L15.5548 16.0562L17.0841 24.0601C17.1841 24.5803 17.0741 25.1106 16.7743 25.5508C16.4744 25.981 16.0246 26.2811 15.5048 26.3812L12.4561 26.9614C12.3361 26.9915 12.2062 27.0015 12.0862 27.0015C11.1566 27.0015 10.317 26.3412 10.137 25.3907L8.44773 16.5665C7.24823 16.3564 6.1087 15.8161 5.17909 14.9857C3.79967 13.7451 3 11.9542 3 10.0934C3 8.23246 3.79967 6.45161 5.18909 5.20101C6.56851 3.96042 8.42774 3.36013 10.277 3.56022L22.102 4.84084L25.5406 3.11001ZM6.51853 6.69173C5.54894 7.55214 4.99917 8.80274 4.99917 10.0934C4.99917 11.384 5.54894 12.6246 6.51853 13.495C7.47813 14.3654 8.7676 14.7756 10.0571 14.6355L21.2524 13.425V6.76176L10.0571 5.55118C9.89713 5.52116 9.7272 5.52116 9.56726 5.52116C8.44773 5.52116 7.35818 5.94137 6.51853 6.69173ZM15.1331 24.4206L13.5656 16.2763L10.4969 16.6065L12.1062 25.0105L15.1331 24.4206ZM23.2516 13.6951L24.9908 14.5655V5.62121L23.2516 6.49163V13.6951ZM9.48739 6.70173C11.3566 6.70173 12.876 8.22246 12.876 10.0934C12.876 11.9642 11.3566 13.485 9.48739 13.485C7.61817 13.485 6.09881 11.9642 6.09881 10.0934C6.09881 8.22246 7.61817 6.70173 9.48739 6.70173ZM9.48739 8.70269C8.71771 8.70269 8.09797 9.32298 8.09797 10.0934C8.09797 10.8637 8.71771 11.484 9.48739 11.484C10.2571 11.484 10.8768 10.8637 10.8768 10.0934C10.8768 9.32298 10.2571 8.70269 9.48739 8.70269Z" fill="currentColor"/>
</symbol>
</svg>
