<svg xmlns='http://www.w3.org/2000/svg' viewBox='0 0 30 30' fill='none'>
<symbol id='Electricity'>
<path d="M12.9814 27C12.7551 27 12.5288 26.95 12.3128 26.85C11.6648 26.55 11.3356 25.86 11.4899 25.18L13.1562 18.27H6.52168C5.92509 18.27 5.39021 17.94 5.14334 17.41C4.89648 16.88 4.96848 16.27 5.35935 15.83L15.8409 3.54002C16.2832 3.01002 17.0444 2.85002 17.6821 3.15002C18.3199 3.45002 18.6593 4.14002 18.505 4.82002L16.8387 11.73H23.4732C24.0698 11.73 24.5944 12.06 24.8516 12.58C25.1087 13.11 25.0264 13.72 24.6458 14.17L14.1437 26.46C13.8557 26.81 13.4134 27 12.9711 27H12.9814ZM7.65316 16.26H13.8248C14.2877 16.26 14.7197 16.46 15.0077 16.81C15.306 17.16 15.4089 17.62 15.3163 18.07L14.01 23.48L22.352 13.71H16.1804C15.7175 13.71 15.2855 13.51 14.9975 13.16C14.6992 12.81 14.5963 12.35 14.6889 11.9L15.9952 6.49002L7.66344 16.26H7.65316Z" fill="currentColor"/>
</symbol>
</svg>
