<svg xmlns='http://www.w3.org/2000/svg' viewBox='0 0 30 30' fill='none'>
<symbol id='Fireplace'>
<path fill-rule="evenodd" clip-rule="evenodd" d="M26.21 25.04V4.96C26.66 4.86 27 4.48 27 4C27 3.45 26.55 3 26 3H4C3.45 3 3 3.45 3 4C3 4.48 3.34 4.86 3.79 4.96V25.04C3.34 25.14 3 25.52 3 26C3 26.55 3.45 27 4 27H26C26.55 27 27 26.55 27 26C27 25.52 26.66 25.14 26.21 25.04ZM24.2 25H5.79V5H24.2V25ZM18.6501 21.52H11.3501C10.8001 21.52 10.3501 21.97 10.3501 22.52C10.3501 23.07 10.8001 23.52 11.3501 23.52H18.6501C19.2001 23.52 19.6501 23.07 19.6501 22.52C19.6501 21.97 19.2001 21.52 18.6501 21.52ZM18.8199 18.4001C17.8399 19.4401 16.3999 20.0701 14.9699 20.0701C12.1799 20.0701 9.90991 17.6901 9.90991 14.8101C9.90991 11.9301 11.3599 10.8701 11.5299 10.7601C11.8299 10.5601 12.2199 10.5401 12.5499 10.7101C12.8699 10.8801 13.0799 11.2101 13.0799 11.5801C13.0799 11.8201 13.1399 12.0601 13.2299 12.2801C13.3899 8.69006 15.7499 7.26006 15.8699 7.19006C16.1999 7.00006 16.6099 7.01006 16.9299 7.22006C17.2499 7.43006 17.4199 7.80006 17.3699 8.18006C17.1512 9.86038 17.8123 10.7103 18.5767 11.6931L18.5899 11.7101C18.5992 11.7221 18.6085 11.7341 18.6179 11.7462C19.2612 12.5773 19.9912 13.5204 20.0799 14.9201C20.1599 16.2001 19.7199 17.4401 18.8199 18.4001ZM11.9573 14.0501C12.8066 15.1938 13.9601 15.8402 14.0399 15.8801C14.3899 16.0701 14.8099 16.0401 15.1299 15.7901C15.4399 15.5501 15.5899 15.1401 15.4899 14.7601C15.0199 12.8501 15.2299 11.5001 15.6099 10.5701C15.9399 11.5501 16.5099 12.2901 17.0099 12.9301L17.0242 12.9483C17.5874 13.6696 18.0303 14.2368 18.0799 15.0401C18.1399 15.9701 17.7199 16.6301 17.3599 17.0201C16.7499 17.6701 15.8599 18.0601 14.9699 18.0601C13.4899 18.0601 11.9099 16.7501 11.9099 14.8001C11.9099 14.5185 11.9288 14.2746 11.9573 14.0501Z" fill="currentColor"/>
</symbol>
</svg>
