<svg xmlns='http://www.w3.org/2000/svg' viewBox='0 0 30 30' fill='none'>
<symbol id='Household'>
<path fill-rule="evenodd" clip-rule="evenodd" d="M13.2371 4.56935V7.37818H13.2471L16.9733 11.7564C17.374 12.1962 17.6144 12.8459 17.6144 13.5256V24.4011C17.6144 25.8305 16.5627 26.99 15.2805 26.99H5.3339C4.04174 26.99 3 25.8305 3 24.4011V15.7947C3 15.3849 3.08013 14.975 3.25042 14.6152L7.09685 7.48814V4.56935C7.09685 3.69971 7.79802 3 8.66947 3H11.6645C12.5359 3 13.2371 3.70971 13.2371 4.56935ZM11.2237 4.99917H9.10019V6.92837H11.2237V4.99917ZM15.2705 24.9909C15.3807 24.9909 15.591 24.771 15.591 24.4011V24.3911V13.5156C15.591 13.3057 15.5209 13.1458 15.4508 13.0658L11.9349 8.92754H8.59936L5.04341 15.5048C5.0334 15.5448 5.00335 15.6747 5.00335 15.7947V24.4011C5.00335 24.771 5.2137 24.9909 5.32388 24.9909H15.2705ZM10.4123 11.7364H10.6026V11.7464C12.7462 11.7464 14.4891 13.4756 14.4891 15.6148V22.0121C14.4891 22.5619 14.0383 23.0117 13.4874 23.0117H12.9165C10.9832 23.0117 9.41061 21.4423 9.41061 19.5131V12.7359C9.41061 12.1862 9.86137 11.7364 10.4123 11.7364ZM11.424 19.5131C11.424 20.1829 11.8647 20.7526 12.4858 20.9425V15.6048C12.4858 14.8651 12.055 14.2153 11.424 13.9155V19.5131ZM25.0167 11.8463H23.7345V11.7963V7.9579H24.5259C25.0768 7.9579 25.5275 7.50809 25.5275 6.95832C25.5275 6.40855 25.0768 5.95873 24.5259 5.95873H19.5676C19.0167 5.95873 18.5659 6.40855 18.5659 6.95832V8.11784C18.5659 8.66761 19.0167 9.11742 19.5676 9.11742C20.1185 9.11742 20.5693 8.66761 20.5693 8.11784V7.9579H21.7212V11.7963V11.8463H20.409C19.3172 11.8463 18.4257 12.7359 18.4257 13.8255V25.0208C18.4257 26.1104 19.3172 27 20.409 27H25.0167C26.1085 27 27 26.1104 27 25.0208V13.8255C27 12.7359 26.1085 11.8463 25.0167 11.8463ZM25.0267 24.9908L20.4691 25.0108L20.4491 13.8355L25.0267 13.8155V24.9908ZM24.0853 20.1128C24.0853 20.8625 23.4843 21.4622 22.7331 21.4622C21.9818 21.4622 21.3808 20.8625 21.3808 20.1128C21.3808 20.0028 21.3908 19.9029 21.4209 19.8029C21.6412 18.7833 22.7431 17.3839 22.7431 17.3839C22.7453 17.3884 22.7616 17.4103 22.789 17.447C23.0064 17.7389 23.923 18.9696 24.0653 19.8929C24.0853 19.9728 24.0853 20.0428 24.0853 20.1128V20.1128Z" fill="currentColor"/>
</symbol>
</svg>
