<svg xmlns='http://www.w3.org/2000/svg' viewBox='0 0 30 30' fill='none'>
<symbol id='LoungeAreaOutside'>
<path d="M26.97 19.4339V16.3117C26.97 15.7631 26.5203 15.3142 25.9707 15.3142H22.9429V8.63092H26.5303C26.7502 8.63092 26.9201 8.4015 26.8301 8.19202C25.9907 6.33666 24.1221 5.0399 21.9436 5.0399C19.7652 5.0399 17.8965 6.33666 17.0571 8.19202C16.9672 8.39152 17.1271 8.63092 17.3569 8.63092H20.9543V15.3142H20.065V14.8554C20.065 13.3691 18.8558 12.1621 17.3669 12.1621H15.7181C15.6282 12.1621 15.5582 12.1022 15.5482 12.0125L15.0786 7.84289C14.8987 6.21696 13.5297 5 11.8909 5H6.20494C5.2856 5 4.40623 5.399 3.79667 6.08728C3.18711 6.77556 2.90731 7.69327 3.02722 8.61097L4.28632 18.4065C4.42622 19.4638 5.27561 20.2718 6.31486 20.4015L5.39552 23.6135C5.24563 24.1421 5.55541 24.6908 6.08502 24.8504C6.17496 24.8803 6.2649 24.8903 6.35483 24.8903C6.79451 24.8903 7.19423 24.601 7.31414 24.1621L8.38337 20.4314H12.0108L11.1014 23.6234C10.9515 24.1521 11.2613 24.7007 11.7909 24.8603C11.8809 24.8903 11.9708 24.9002 12.0607 24.9002C12.5004 24.9002 12.9001 24.611 13.02 24.1721L14.0893 20.4414H17.5568L16.6474 23.6334C16.4975 24.1621 16.8073 24.7107 17.3369 24.8703C17.4269 24.9002 17.5168 24.9102 17.6167 24.9102C18.0464 24.9102 18.4461 24.6209 18.5761 24.182L19.6453 20.4514H20.9643V24.0025C20.9643 24.5511 21.414 25 21.9636 25C22.5132 25 22.9629 24.5511 22.9629 24.0025V20.4514H23.9322L24.9914 24.1621C25.1213 24.601 25.5211 24.8903 25.9508 24.8903C26.0407 24.8903 26.1306 24.8803 26.2306 24.8504C26.7602 24.7007 27.07 24.1421 26.9201 23.6135L26.0207 20.4514C26.5603 20.4414 27 20.0025 27 19.4539L26.97 19.4339ZM24.9715 18.4364H18.586V17.3092H24.9715V18.4364ZM13.08 8.07232L13.5497 12.2419C13.6696 13.3392 14.5989 14.1671 15.7081 14.1671H17.3569C17.7367 14.1671 18.0564 14.4763 18.0564 14.8653V15.3242H12.8502V15.2544C12.8502 13.7681 11.641 12.5611 10.1521 12.5611H8.81306C8.81306 12.5611 8.73312 12.5312 8.72313 12.4813L8.03363 6.99501H11.8809C12.5004 6.99501 13.02 7.45387 13.08 8.06234V8.07232ZM4.99581 8.3616C4.95584 8.01247 5.05576 7.67332 5.2856 7.41396C5.47546 7.19451 5.73528 7.08479 6.01507 7.04489L6.63463 12.1122L6.74455 12.8105C6.90444 13.8279 7.77381 14.5661 8.81306 14.5661H10.1521C10.5318 14.5661 10.8516 14.8753 10.8516 15.2643V16.3317C10.8516 16.8803 11.3013 17.3292 11.8509 17.3292H16.5875V18.4564H6.57467C6.40479 18.4564 6.27489 18.3367 6.24491 18.1771L4.98581 8.38155L4.99581 8.3616Z" fill="currentColor"/>
</symbol>
</svg>
