<svg xmlns='http://www.w3.org/2000/svg' viewBox='0 0 30 30' fill='none'>
<symbol id='LoungeAreaInside'>
<path d="M26.97 20.6526V17.5128C26.97 16.9611 26.5203 16.5097 25.9707 16.5097H22.9429V10.5411H25.561C25.8808 10.5411 26.1806 10.3907 26.3705 10.1298C26.5603 9.86904 26.6103 9.53801 26.5104 9.22704L24.9715 4.44215C24.8415 4.03087 24.4518 3.75 24.0221 3.75H19.8651C19.4354 3.75 19.0457 4.03087 18.9158 4.44215L17.3769 9.22704C17.277 9.52798 17.3269 9.86904 17.5168 10.1298C17.7067 10.3907 18.0065 10.5411 18.3262 10.5411H20.9543V16.5097H20.065V16.0483C20.065 14.5536 18.8558 13.3398 17.3669 13.3398H15.7181C15.6282 13.3398 15.5582 13.2796 15.5482 13.1894L15.0786 8.99632C14.8987 7.36124 13.5297 6.13743 11.8909 6.13743H6.20494C5.2856 6.13743 4.40623 6.53868 3.79667 7.23083C3.18711 7.92298 2.90731 8.84585 3.02722 9.76872L4.28632 19.6194C4.42622 20.6827 5.27561 21.4952 6.31486 21.6256L5.39552 24.8557C5.24563 25.3873 5.55541 25.939 6.08502 26.0995C6.17496 26.1296 6.2649 26.1397 6.35483 26.1397C6.79451 26.1397 7.19423 25.8488 7.31414 25.4074L8.38337 21.6557H12.0108L11.1014 24.8657C10.9515 25.3973 11.2613 25.9491 11.7909 26.1096C11.8809 26.1397 11.9708 26.1497 12.0607 26.1497C12.5004 26.1497 12.9001 25.8588 13.02 25.4174L14.0893 21.6657H17.5568L16.6474 24.8757C16.4975 25.4074 16.8073 25.9591 17.3369 26.1196C17.4269 26.1497 17.5168 26.1597 17.6167 26.1597C18.0464 26.1597 18.4461 25.8688 18.5761 25.4274L19.6453 21.6758H20.9643V25.2469C20.9643 25.7986 21.414 26.25 21.9636 26.25C22.5132 26.25 22.9629 25.7986 22.9629 25.2469V21.6758H23.9322L24.9914 25.4074C25.1213 25.8488 25.5211 26.1397 25.9508 26.1397C26.0407 26.1397 26.1306 26.1296 26.2306 26.0995C26.7602 25.9491 27.07 25.3873 26.9201 24.8557L26.0207 21.6758C26.5603 21.6657 27 21.2244 27 20.6726L26.97 20.6526ZM20.5846 5.75624H23.2827L24.182 8.53489H19.6853L20.5846 5.75624ZM24.9715 19.6495H18.586V18.5159H24.9715V19.6495ZM13.08 9.22704L13.5497 13.4201C13.6696 14.5235 14.5989 15.3561 15.7081 15.3561H17.3569C17.7367 15.3561 18.0564 15.6671 18.0564 16.0583V16.5197H12.8502V16.4495C12.8502 14.9549 11.641 13.7411 10.1521 13.7411H8.81306C8.81306 13.7411 8.73312 13.711 8.72313 13.6608L8.03363 8.14367H11.8809C12.5004 8.14367 13.02 8.6051 13.08 9.21701V9.22704ZM4.99581 9.51794C4.95584 9.16685 5.05576 8.82579 5.2856 8.56498C5.47546 8.34429 5.73528 8.23395 6.01507 8.19383L6.63463 13.2897L6.74455 13.9919C6.90444 15.015 7.77381 15.7574 8.81306 15.7574H10.1521C10.5318 15.7574 10.8516 16.0683 10.8516 16.4595V17.5329C10.8516 18.0846 11.3013 18.536 11.8509 18.536H16.5875V19.6695H6.57467C6.40479 19.6695 6.27489 19.5492 6.24491 19.3887L4.98581 9.53801L4.99581 9.51794Z" fill="currentColor"/>
</symbol>
</svg>
