<svg xmlns='http://www.w3.org/2000/svg' viewBox='0 0 30 30' fill='none'>
<symbol id='MagnifyingMirror'>
<path fill-rule="evenodd" clip-rule="evenodd" d="M24.6942 10.3819C24.4388 10.3819 24.2303 10.5895 24.2303 10.8458C24.2303 11.1012 24.4388 11.3087 24.6942 11.3087C24.9496 11.3087 25.1581 11.1012 25.1581 10.8458C25.1581 10.5895 24.9496 10.3819 24.6942 10.3819ZM21.0031 10.8458C21.0031 7.53552 18.3106 4.84214 15.0001 4.84214C11.6897 4.84214 8.99625 7.53552 8.99625 10.8458C8.99625 14.1561 11.6897 16.8485 15.0001 16.8485C18.3106 16.8485 21.0031 14.1561 21.0031 10.8458ZM5.76904 10.8458C5.76904 10.5895 5.56053 10.3819 5.30514 10.3819C5.04976 10.3819 4.84125 10.5895 4.84125 10.8458C4.84125 11.1012 5.04976 11.3087 5.30514 11.3087C5.56053 11.3087 5.76904 11.1012 5.76904 10.8458ZM6.45485 12.8458C7.37021 16.7959 10.8949 19.6184 15.0001 19.6184C19.1054 19.6184 22.6291 16.7959 23.5445 12.8458C23.2202 12.6593 22.9476 12.3981 22.7477 12.0835C22.1576 15.8519 18.9074 18.6907 15.0001 18.6907C11.0929 18.6907 7.84176 15.8519 7.25161 12.0844C7.05265 12.3981 6.78005 12.6593 6.45485 12.8458ZM22.7487 9.60912C23.1628 8.95969 23.8898 8.5398 24.6942 8.5398C25.9654 8.5398 27.0003 9.57373 27.0003 10.8458C27.0003 11.8721 26.3317 12.752 25.3876 13.0447C24.4273 17.5984 20.5478 21.0187 15.9203 21.4185V25.1582H17.5588C18.0676 25.1582 18.4799 25.5714 18.4799 26.0793C18.4799 26.5872 18.0676 27.0004 17.5588 27.0004H12.4626C11.9547 27.0004 11.5415 26.5872 11.5415 26.0793C11.5415 25.5714 11.9547 25.1582 12.4626 25.1582H14.079V21.4223C9.45058 21.0197 5.57009 17.5975 4.61169 13.0476C3.66763 12.7511 3 11.8692 3 10.8458C3 9.57373 4.03397 8.5398 5.30514 8.5398C6.11051 8.5398 6.83649 8.95969 7.25065 9.60912C7.8408 5.84068 11.0919 3 15.0001 3C18.9084 3 22.1585 5.84068 22.7487 9.60912ZM15.0459 12.9595L17.1167 10.8878C17.2937 10.7099 17.5452 10.6468 17.7757 10.6162C18.0225 10.6191 18.253 10.7166 18.4242 10.8945C18.5945 11.0657 18.6901 11.3001 18.6882 11.5468C18.6863 11.7936 18.5878 12.0232 18.4118 12.1934L16.3372 14.268C16.1621 14.443 15.9316 14.5386 15.6858 14.5386H15.6772C15.4304 14.5358 15.2009 14.4382 15.0296 14.2603C14.8603 14.091 14.7637 13.8557 14.7657 13.6061C14.7685 13.3593 14.867 13.1298 15.0459 12.9595ZM12.2163 11.0746H12.2239C12.4697 11.0746 12.7012 10.978 12.8753 10.8029L14.948 8.73124C15.1259 8.56003 15.2244 8.32952 15.2263 8.08276C15.2282 7.83408 15.1326 7.59975 14.9633 7.43141C14.793 7.25351 14.5635 7.15404 14.3167 7.15117C14.0345 7.13395 13.8327 7.2449 13.6558 7.4228L11.5811 9.49736C11.4042 9.66761 11.3066 9.89716 11.3047 10.143C11.3028 10.3907 11.3985 10.625 11.5678 10.7962C11.739 10.9741 11.9695 11.0717 12.2163 11.0746ZM11.9154 13.9135C11.7461 13.7423 11.6505 13.508 11.6524 13.2603C11.6543 13.0144 11.7518 12.7859 11.9288 12.6146L16.7734 7.77115C16.9494 7.59324 17.2134 7.49951 17.4325 7.49951C17.6792 7.50142 17.9097 7.59994 18.081 7.77784C18.2503 7.94809 18.3459 8.18242 18.344 8.43014C18.3421 8.67691 18.2445 8.9055 18.0676 9.07671L13.2239 13.9193C13.0489 14.0952 12.8174 14.1918 12.5716 14.1918H12.5639C12.3171 14.189 12.0866 14.0905 11.9154 13.9135Z" fill="currentColor"/>
</symbol>
</svg>
