<svg xmlns='http://www.w3.org/2000/svg' viewBox='0 0 30 30' fill='none'>
<symbol id='Multimedia'>
<path fill-rule="evenodd" clip-rule="evenodd" d="M10.41 3H25.04C26.11 3 26.99 3.86964 26.99 4.94919V13.0958C26.99 14.1653 26.12 15.045 25.04 15.045H13.78V25.3907C13.78 26.2503 13.08 26.95 12.22 26.95H4.56C3.7 26.95 3 26.2503 3 25.3907V11.6564C3 10.7968 3.7 10.097 4.56 10.097H8.46V4.94919C8.46 3.87963 9.33 3 10.41 3ZM11.8 13.0558V12.0862H5V13.0558H11.8ZM5 22.8517V24.9608H11.8V22.8517H5ZM5 20.8526H11.8V15.045H5V20.8526ZM13.79 11.6464V13.0458H25.05L25.01 4.93919L10.41 4.97918L10.45 10.087H12.23C13.09 10.087 13.79 10.7868 13.79 11.6464ZM16.4901 5.83872C16.7501 5.70877 17.0501 5.74875 17.2801 5.91868V5.90869L20.5101 8.42764C20.6901 8.56758 20.8001 8.78749 20.8001 9.01739C20.8001 9.2473 20.6901 9.46721 20.5101 9.60715L17.2801 12.1261C17.1501 12.2361 16.9801 12.286 16.8201 12.286C16.7101 12.286 16.5901 12.256 16.4901 12.2061C16.2301 12.0861 16.0701 11.8262 16.0701 11.5363V6.50844C16.0701 6.22855 16.2301 5.96866 16.4901 5.83872ZM17.5701 8.0378V10.007L18.8301 9.02739L17.5701 8.0378ZM8.37995 23.2516C8.00995 23.2516 7.69995 23.5516 7.69995 23.9316C7.69995 24.3116 7.99995 24.6116 8.37995 24.6116C8.75995 24.6116 9.05995 24.3116 9.05995 23.9316C9.05995 23.5516 8.75995 23.2516 8.37995 23.2516ZM19.07 17.7738L25.39 16.7443V16.7843C25.79 16.7243 26.2 16.8342 26.51 17.0941C26.82 17.364 27 17.7439 27 18.1537V24.7609C27 25.8505 26.12 26.7301 25.03 26.7301C23.94 26.7301 23.06 25.8405 23.06 24.7609C23.06 23.6814 23.93 22.8017 25.01 22.7918V18.8534L19.9 19.683V25.0408V25.1108C19.86 26.1604 19.03 27 17.94 27C16.85 27 15.97 26.1104 15.97 25.0308C15.97 23.9513 16.83 23.0716 17.91 23.0616V19.1433C17.91 18.4636 18.4 17.8838 19.07 17.7738Z" fill="currentColor"/>
</symbol>
</svg>
