<svg xmlns='http://www.w3.org/2000/svg' viewBox='0 0 30 30' fill='none'>
<symbol id='SeparatedWC'>
<path d="M23.75 4C23.75 3.45 23.2995 3 22.7489 3H15.1802C15.1802 3 15.1301 3.01 15.1001 3.02C15.0701 3.02 15.03 3.02 15 3.02C14.97 3.02 14.9299 3.02 14.8999 3.02C14.8699 3.02 14.8498 3 14.8198 3H7.25114C6.70051 3 6.25 3.45 6.25 4V7.19C6.25 8.1 6.31007 12.14 7.27117 14.57C6.88072 14.91 6.63043 15.41 6.63043 15.97V17.8C6.63043 18.61 7.16104 19.3 7.88186 19.56C8.23227 20.3 8.95309 21.6 10.0343 22.42C9.77403 23.31 9.4036 24.79 9.4036 26C9.4036 26.55 9.85412 27 10.4047 27H19.5953C20.1459 27 20.5964 26.55 20.5964 26C20.5964 24.78 20.226 23.3 19.9657 22.42C21.0469 21.6 21.7677 20.3 22.1181 19.56C22.3884 19.46 22.6387 19.32 22.839 19.11C23.1894 18.75 23.3796 18.28 23.3696 17.8V15.97C23.3696 15.41 23.1193 14.91 22.7288 14.57C23.6899 12.14 23.75 8.1 23.75 7.19V4ZM21.3673 16.09V17.67H8.63272V16.09H21.3673ZM11.3558 10.24C11.3558 7.4 13.0277 5 15.01 5C16.9923 5 18.6642 7.35 18.6642 10.24C18.6642 11.72 18.2137 13.1 17.4528 14.09H12.5872C11.8164 13.09 11.3658 11.71 11.3658 10.24H11.3558ZM19.7955 14.09C20.3461 12.95 20.6565 11.62 20.6565 10.24C20.6565 8.17 19.9757 6.31 18.8844 4.99H21.7477V7.18C21.7477 9.2 21.4674 12.64 20.7566 14.09H19.7855H19.7955ZM8.25229 5H11.1156C10.0243 6.32 9.34354 8.18 9.34354 10.25C9.34354 11.62 9.65389 12.95 10.2145 14.1H9.24342C8.53261 12.65 8.25229 9.22 8.25229 7.19V5ZM18.3638 21.05C17.8833 21.26 17.653 21.8 17.8232 22.3C17.8232 22.32 18.3038 23.69 18.504 25H11.486C11.6862 23.69 12.1668 22.32 12.1668 22.3C12.337 21.81 12.1067 21.26 11.6261 21.05C11.0955 20.82 10.615 20.25 10.2346 19.67H19.7454C19.365 20.25 18.8844 20.82 18.3538 21.05H18.3638Z" fill="currentColor"/>
</symbol>
</svg>
