<svg xmlns='http://www.w3.org/2000/svg' viewBox='0 0 30 30' fill='none'>
<symbol id='Shower'>
<path fill-rule="evenodd" clip-rule="evenodd" d="M18.8938 6.75H20.6978C21.249 6.75 21.7 7.2 21.7 7.75C21.7 8.3 21.249 8.75 20.6978 8.75H15.0251C14.4739 8.75 14.0229 8.3 14.0229 7.75C14.0229 7.2 14.4739 6.75 15.0251 6.75H16.8893V5.01H14.5841C12.2188 5.01 10.3045 6.93 10.3045 9.28V26C10.3045 26.55 9.85353 27 9.30229 27C8.75106 27 8.30005 26.55 8.30005 26V9.27C8.30005 5.81 11.1164 3 14.5841 3H17.1298C18.102 3 18.8938 3.79 18.8938 4.76V6.75ZM14.3835 10.7C14.3835 10.15 14.8345 9.69995 15.3857 9.69995C15.937 9.69995 16.388 10.15 16.388 10.7V11.1C16.388 11.65 15.937 12.1 15.3857 12.1C14.8345 12.1 14.3835 11.65 14.3835 11.1V10.7ZM15.3857 12.8101C14.8345 12.8101 14.3835 13.2601 14.3835 13.8101V14.2101C14.3835 14.7601 14.8345 15.2101 15.3857 15.2101C15.937 15.2101 16.388 14.7601 16.388 14.2101V13.8101C16.388 13.2601 15.937 12.8101 15.3857 12.8101ZM14.3835 16.9199C14.3835 16.3699 14.8345 15.9199 15.3857 15.9199C15.937 15.9199 16.388 16.3699 16.388 16.9199V17.1599C16.388 17.7099 15.937 18.1599 15.3857 18.1599C14.8345 18.1599 14.3835 17.7099 14.3835 17.1599V16.9199ZM17.8913 9.69995C17.3401 9.69995 16.8891 10.15 16.8891 10.7V11.1C16.8891 11.65 17.3401 12.1 17.8913 12.1C18.4426 12.1 18.8936 11.65 18.8936 11.1V10.7C18.8936 10.15 18.4426 9.69995 17.8913 9.69995ZM16.8891 13.8101C16.8891 13.2601 17.3401 12.8101 17.8913 12.8101C18.4426 12.8101 18.8936 13.2601 18.8936 13.8101V14.2101C18.8936 14.7601 18.4426 15.2101 17.8913 15.2101C17.3401 15.2101 16.8891 14.7601 16.8891 14.2101V13.8101ZM17.8913 15.9199C17.3401 15.9199 16.8891 16.3699 16.8891 16.9199V17.1599C16.8891 17.7099 17.3401 18.1599 17.8913 18.1599C18.4426 18.1599 18.8936 17.7099 18.8936 17.1599V16.9199C18.8936 16.3699 18.4426 15.9199 17.8913 15.9199ZM19.3947 10.7C19.3947 10.15 19.8457 9.69995 20.397 9.69995C20.9482 9.69995 21.3992 10.15 21.3992 10.7V11.1C21.3992 11.65 20.9482 12.1 20.397 12.1C19.8457 12.1 19.3947 11.65 19.3947 11.1V10.7ZM20.397 12.8101C19.8457 12.8101 19.3947 13.2601 19.3947 13.8101V14.2101C19.3947 14.7601 19.8457 15.2101 20.397 15.2101C20.9482 15.2101 21.3992 14.7601 21.3992 14.2101V13.8101C21.3992 13.2601 20.9482 12.8101 20.397 12.8101ZM19.3947 16.9199C19.3947 16.3699 19.8457 15.9199 20.397 15.9199C20.9482 15.9199 21.3992 16.3699 21.3992 16.9199V17.1599C21.3992 17.7099 20.9482 18.1599 20.397 18.1599C19.8457 18.1599 19.3947 17.7099 19.3947 17.1599V16.9199Z" fill="currentColor"/>
</symbol>
</svg>
