<svg xmlns='http://www.w3.org/2000/svg' viewBox='0 0 30 30' fill='none'>
<symbol id='ShowerPMR'>
<path fill-rule="evenodd" clip-rule="evenodd" d="M13.5605 6.74844H15.3589C15.9084 6.74844 16.358 7.19825 16.358 7.74802C16.358 8.2978 15.9084 8.74761 15.3589 8.74761H9.70399C9.15448 8.74761 8.70488 8.2978 8.70488 7.74802C8.70488 7.19825 9.15448 6.74844 9.70399 6.74844H11.5623V5.00916H9.26438C6.9065 5.00916 4.99821 6.92837 4.99821 9.27739V25.9904C4.99821 26.5402 4.54861 26.99 3.9991 26.99C3.4496 26.99 3 26.5402 3 25.9904V9.26739C3 5.80883 5.80748 3 9.26438 3H11.8021C12.7712 3 13.5605 3.78967 13.5605 4.75927V6.74844ZM9.06451 10.697C9.06451 10.1472 9.5141 9.69741 10.0636 9.69741C10.6131 9.69741 11.0627 10.1472 11.0627 10.697V11.0968C11.0627 11.6466 10.6131 12.0964 10.0636 12.0964C9.5141 12.0964 9.06451 11.6466 9.06451 11.0968V10.697ZM10.0636 12.806C9.5141 12.806 9.06451 13.2558 9.06451 13.8056V14.2054C9.06451 14.7552 9.5141 15.205 10.0636 15.205C10.6131 15.205 11.0627 14.7552 11.0627 14.2054V13.8056C11.0627 13.2558 10.6131 12.806 10.0636 12.806ZM9.06451 16.9141C9.06451 16.3644 9.5141 15.9145 10.0636 15.9145C10.6131 15.9145 11.0627 16.3644 11.0627 16.9141V17.154C11.0627 17.7038 10.6131 18.1536 10.0636 18.1536C9.5141 18.1536 9.06451 17.7038 9.06451 17.154V16.9141ZM12.5614 9.69741C12.0119 9.69741 11.5623 10.1472 11.5623 10.697V11.0968C11.5623 11.6466 12.0119 12.0964 12.5614 12.0964C13.1109 12.0964 13.5605 11.6466 13.5605 11.0968V10.697C13.5605 10.1472 13.1109 9.69741 12.5614 9.69741ZM11.5623 13.8056C11.5623 13.2558 12.0119 12.806 12.5614 12.806C13.1109 12.806 13.5605 13.2558 13.5605 13.8056V14.2054C13.5605 14.7552 13.1109 15.205 12.5614 15.205C12.0119 15.205 11.5623 14.7552 11.5623 14.2054V13.8056ZM12.5614 15.9145C12.0119 15.9145 11.5623 16.3644 11.5623 16.9141V17.154C11.5623 17.7038 12.0119 18.1536 12.5614 18.1536C13.1109 18.1536 13.5605 17.7038 13.5605 17.154V16.9141C13.5605 16.3644 13.1109 15.9145 12.5614 15.9145ZM14.0501 10.697C14.0501 10.1472 14.4997 9.69741 15.0492 9.69741C15.5988 9.69741 16.0484 10.1472 16.0484 10.697V11.0968C16.0484 11.6466 15.5988 12.0964 15.0492 12.0964C14.4997 12.0964 14.0501 11.6466 14.0501 11.0968V10.697ZM15.0492 12.806C14.4997 12.806 14.0501 13.2558 14.0501 13.8056V14.2054C14.0501 14.7552 14.4997 15.205 15.0492 15.205C15.5988 15.205 16.0484 14.7552 16.0484 14.2054V13.8056C16.0484 13.2558 15.5988 12.806 15.0492 12.806ZM14.0501 16.9141C14.0501 16.3644 14.4997 15.9145 15.0492 15.9145C15.5988 15.9145 16.0484 16.3644 16.0484 16.9141V17.154C16.0484 17.7038 15.5988 18.1536 15.0492 18.1536C14.4997 18.1536 14.0501 17.7038 14.0501 17.154V16.9141ZM23.2419 24.571C22.8922 24.3411 22.4326 24.4411 22.2028 24.7809C21.9031 25.2307 21.4035 25.5006 20.864 25.5006C19.9848 25.5006 19.2654 24.7809 19.2654 23.9013C19.2654 23.2815 19.6151 22.7318 20.1646 22.4619C20.5343 22.282 20.6942 21.8321 20.5143 21.4623C20.3345 21.0925 19.8849 20.9325 19.5152 21.1124C18.4562 21.6322 17.7668 22.7218 17.7668 23.9013C17.7668 25.6106 19.1555 27 20.864 27C21.9031 27 22.8722 26.4802 23.4517 25.6106C23.6815 25.2607 23.5816 24.8009 23.2419 24.571ZM25.8794 24.8907C26.2491 24.6908 26.6987 24.8307 26.8985 25.1906H26.9085C27.1083 25.5604 26.9685 26.0102 26.6088 26.2101L26.2191 26.4201C26.0293 26.52 25.8295 26.57 25.6197 26.57C25.4898 26.57 25.3599 26.55 25.24 26.51C24.9103 26.4101 24.6506 26.1902 24.4907 25.8803L23.6015 24.121L22.3226 24.091C21.5733 24.091 20.9739 23.5113 20.9439 22.7616L20.8639 20.3726C20.8573 20.3593 20.8595 20.3459 20.8617 20.3326C20.8628 20.3259 20.8639 20.3193 20.8639 20.3126C20.5542 20.0827 20.3344 19.7328 20.3344 19.313C20.3344 18.6133 20.9039 18.0435 21.6033 18.0435C22.3027 18.0435 22.8721 18.6133 22.8721 19.313C22.8721 19.7328 22.6623 20.0827 22.3526 20.3126C22.3526 20.3226 22.3726 20.3226 22.3726 20.3226V20.7524H24.2709C24.6805 20.7524 25.0202 21.0923 25.0202 21.5021C25.0202 21.9119 24.6805 22.2518 24.2709 22.2518H22.4325V22.5817H23.5415C24.131 22.5817 24.6605 22.9115 24.9303 23.4413L25.7096 24.9807L25.8794 24.8907Z" fill="currentColor"/>
</symbol>
</svg>
