<svg xmlns='http://www.w3.org/2000/svg' viewBox='0 0 30 30' fill='none'>
<symbol id='WIFI'>
<path fill-rule="evenodd" clip-rule="evenodd" d="M25.9976 11.5531L26.0025 11.5532H25.9925L25.9976 11.5531ZM26.7025 11.2628C26.5038 11.4617 26.2558 11.552 25.9976 11.5531C25.7394 11.5519 25.4913 11.4518 25.2925 11.2628C19.6125 5.58573 10.3825 5.58573 4.7025 11.2628C4.3125 11.6533 3.6825 11.6533 3.2925 11.2628C2.9025 10.8723 2.9025 10.2415 3.2925 9.85104C9.7525 3.38299 20.2525 3.38299 26.7025 9.85104C27.0925 10.2415 27.0925 10.8723 26.7025 11.2628ZM22.6075 14.9574L22.6124 14.9575H22.6024L22.6075 14.9574ZM23.3124 14.6671C23.1137 14.866 22.8657 14.9563 22.6075 14.9574C22.3493 14.9562 22.1012 14.8561 21.9024 14.6671C18.0924 10.8624 11.9124 10.8624 8.1024 14.6671C7.7124 15.0576 7.0824 15.0576 6.6924 14.6671C6.3024 14.2766 6.3024 13.6458 6.6924 13.2553C11.2724 8.66963 18.7324 8.66963 23.3124 13.2553C23.7024 13.6458 23.7024 14.2766 23.3124 14.6671ZM19.2125 18.3517L19.2077 18.3516C19.4658 18.3505 19.7139 18.2602 19.9125 18.0613C20.3025 17.6708 20.3025 17.04 19.9125 16.6495C17.2025 13.9362 12.7925 13.9362 10.0825 16.6495C9.69254 17.04 9.69254 17.6708 10.0825 18.0613C10.4725 18.4518 11.1025 18.4518 11.4925 18.0613C13.4325 16.1289 16.5725 16.1289 18.5025 18.0613C18.7013 18.2503 18.9494 18.3504 19.2077 18.3516L19.2025 18.3517H19.2125ZM12.1326 22.1264C12.1326 23.7084 13.4226 25 15.0026 25C16.5826 25 17.8726 23.7084 17.8726 22.1264C17.8726 20.5445 16.5826 19.2528 15.0026 19.2528C13.4226 19.2528 12.1326 20.5445 12.1326 22.1264ZM14.1326 22.1264C14.1326 21.6458 14.5226 21.2553 15.0026 21.2553C15.4826 21.2553 15.8726 21.6458 15.8726 22.1264C15.8726 22.607 15.4826 22.9975 15.0026 22.9975C14.5226 22.9975 14.1326 22.607 14.1326 22.1264Z" fill="currentColor"/>
</symbol>
</svg>
