<svg xmlns='http://www.w3.org/2000/svg' viewBox='0 0 30 30' fill='none'>
<symbol id='BabyCleaning'>
<path d="M25.7807 17.5616C26.1804 16.9627 26.3803 16.2641 26.3803 15.5754C26.3803 13.3895 24.5813 11.6927 22.4924 11.6927C21.493 11.6927 20.5035 12.0919 19.8039 12.7906V8.90796C19.8039 7.5106 18.7045 6.42265 17.3152 6.42265C16.0159 6.42265 14.9265 7.52058 14.8266 8.80815L14.6267 12.8904L12.5378 12.7906L13.3374 11.0938C13.7372 10.2953 13.7372 9.39703 13.3374 8.70833C12.9376 7.90984 12.238 7.41079 11.4384 7.21116H11.3385L6.05133 6.41267C4.75203 6.11324 3.36278 6.91173 3.06294 8.30909C2.7631 9.60664 3.56267 10.7944 4.86197 11.1936L6.56105 11.5929L5.76148 12.8904C5.06186 14.188 5.06186 15.8748 5.96138 17.2722C5.96138 17.372 6.06132 17.372 6.06132 17.4718H4.76202C3.86251 17.4718 3.06294 18.2703 3.06294 19.1686V21.9533C3.06294 22.8516 3.86251 23.6501 4.76202 23.6501H25.3009C25.8006 23.6501 26.2004 23.4505 26.5003 23.151C26.8001 22.8516 27 22.3525 27 21.9533V19.1686C27 18.3701 26.5003 17.7712 25.8006 17.5716L25.7807 17.5616ZM22.4924 13.6789C23.5918 13.6789 24.3914 14.5772 24.3914 15.5754C24.3914 16.5735 23.4919 17.4718 22.4924 17.4718C21.493 17.4718 20.5935 16.5735 20.5935 15.5754C20.5935 14.5772 21.393 13.6789 22.4924 13.6789ZM5.35171 9.20739C5.15181 9.20739 5.05187 8.90796 5.05187 8.70833C5.15181 8.4089 5.35171 8.30909 5.75149 8.4089L10.8387 9.00777C11.1386 9.10758 11.3385 9.3072 11.3385 9.50683C11.4384 9.70645 11.4384 10.0059 11.3385 10.2055L10.2391 12.591C10.0392 12.9902 10.0392 13.4893 10.339 13.8885C10.6388 14.2878 11.0386 14.5872 11.5384 14.5872L15.5262 14.7868C15.826 14.7868 16.0259 14.687 16.2258 14.4874C16.4257 14.2878 16.5257 14.0882 16.5257 13.7887L16.7256 8.70833C16.7256 8.4089 16.9254 8.20928 17.2253 8.20928C17.5251 8.20928 17.725 8.4089 17.725 8.70833V12.9902C17.725 13.5891 18.1248 13.9884 18.7245 13.9884H18.8244C18.6245 14.4874 18.4246 14.9865 18.4246 15.5853C18.4246 15.785 18.4246 15.9846 18.5246 16.1842C18.1248 16.1842 17.825 16.3838 17.6251 16.7831C17.4252 17.1823 17.0254 17.4818 16.6256 17.4818H9.74933C8.84981 17.4818 8.05025 16.9827 7.56051 16.284C7.06078 15.4855 7.06078 14.5872 7.46057 13.8985L9.0597 11.4132C9.25959 11.1138 9.25959 10.8144 9.15965 10.5149C9.0597 10.2155 8.75986 9.91605 8.46002 9.91605L5.37169 9.21737L5.35171 9.20739ZM24.9911 21.6539H5.05187V19.468H24.9911V21.6539Z" fill="currentcolor"/>
</symbol>
</svg>
