<svg xmlns='http://www.w3.org/2000/svg' viewBox='0 0 30 30' fill='none'>
<symbol id='InclusiveToilets'>
<path d="M25.1744 3.2C25.0745 3.1 24.9747 3.1 24.9747 3.1H20.2804C19.6812 3.1 19.2816 3.5 19.2816 4.1C19.2816 4.7 19.6812 5.1 20.2804 5.1H22.278L18.2829 9.1C17.2841 8.4 16.1854 8 14.9869 8C13.7884 8 12.6897 8.4 11.7908 9.1L10.4924 7.8L11.3913 6.9C11.7908 6.5 11.7908 5.9 11.3913 5.5C10.9918 5.1 10.3925 5.1 9.99304 5.5L8.99427 6.4L7.69586 5H9.79328C10.3925 5 10.7921 4.6 10.7921 4C10.7921 3.4 10.3925 3 9.79328 3H5.2988C4.89929 3 4.49978 3.3 4.3999 3.7V4V8.4C4.3999 9 4.79941 9.4 5.39868 9.4C5.99794 9.4 6.39745 9 6.39745 8.4V6.4L7.69586 7.7L6.79696 8.6C6.39745 9 6.39745 9.6 6.79696 10C6.99672 10.2 7.29635 10.3 7.4961 10.3C7.69586 10.3 7.99549 10.2 8.19525 10L8.99427 9.2L10.2927 10.5H10.3925C9.89316 11.3 9.49365 12.3 9.49365 13.4C9.49365 16.1 11.3913 18.3 13.8883 18.8V22.2H11.5911C10.9918 22.2 10.5923 22.6 10.5923 23.2C10.5923 23.8 10.9918 24.2 11.5911 24.2H13.9881V26C13.9881 26.6 14.3876 27 14.9869 27C15.5862 27 15.9857 26.6 15.9857 26V24.2H18.2829C18.8821 24.2 19.2816 23.8 19.2816 23.2C19.2816 22.6 18.8821 22.2 18.2829 22.2H15.9857V18.8C18.4826 18.3 20.3803 16.1 20.3803 13.4C20.3803 12.3 20.0807 11.3 19.4814 10.5L23.5764 6.4V8.5C23.5764 9.1 23.9759 9.5 24.5751 9.5C25.1744 9.5 25.5739 9.1 25.5739 8.5V4C25.6738 3.7 25.474 3.4 25.1744 3.2ZM14.9869 16.9C13.0892 16.9 11.5911 15.4 11.5911 13.5C11.5911 11.6 13.0892 10 14.9869 10C16.8846 10 18.3827 11.5 18.3827 13.4C18.3827 15.3 16.8846 16.9 14.9869 16.9Z" fill="currentcolor"/>
</symbol>
</svg>
