<svg xmlns='http://www.w3.org/2000/svg' viewBox='0 0 30 30' fill='none'>
<symbol id='Luggage'>
<path fill-rule="evenodd" clip-rule="evenodd" d="M19.6201 6.86H20.0701C21.7801 6.86 23.1801 8.26 23.1801 9.98V23.88C23.1801 25.6 21.7901 27 20.0701 27H9.94007C8.22007 27 6.82007 25.6 6.82007 23.88V9.98C6.82007 8.26 8.22007 6.86 9.94007 6.86H10.4001V4.99C10.4001 3.89 11.2901 3 12.3901 3H17.6301C18.7301 3 19.6201 3.89 19.6201 4.99V6.86ZM17.5901 4.99L12.4001 5.03L12.4301 6.86H17.5901V4.99ZM20.0901 24.96C20.6801 24.96 21.1701 24.48 21.1701 23.88V9.98C21.1701 9.39 20.6901 8.9 20.0901 8.9H9.96007C9.37007 8.9 8.88007 9.38 8.88007 9.98V23.88C8.88007 24.47 9.36007 24.96 9.96007 24.96H20.0901ZM17.23 11.2602C17.23 10.7002 17.69 10.2402 18.25 10.2402C18.82 10.2402 19.27 10.7002 19.27 11.2602V23.2502C19.27 23.8102 18.82 24.2702 18.25 24.2702C17.68 24.2702 17.23 23.8102 17.23 23.2502V11.2602ZM14.9499 10.2402C14.3899 10.2402 13.9299 10.7002 13.9299 11.2602V23.2502C13.9299 23.8102 14.3799 24.2702 14.9499 24.2702C15.5199 24.2702 15.9699 23.8102 15.9699 23.2502V11.2602C15.9699 10.7002 15.5199 10.2402 14.9499 10.2402ZM10.75 11.2602C10.75 10.7002 11.21 10.2402 11.77 10.2402C12.34 10.2402 12.79 10.7002 12.79 11.2602V23.2502C12.79 23.8102 12.34 24.2702 11.77 24.2702C11.2 24.2702 10.75 23.8102 10.75 23.2502V11.2602Z" fill="currentcolor"/>
</symbol>
</svg>
