<svg xmlns='http://www.w3.org/2000/svg' viewBox='0 0 30 30' fill='none'>
<symbol id='MeetingPoint'>
<path fill-rule="evenodd" clip-rule="evenodd" d="M9.36127 10.7749H7.5427C6.99313 10.7749 6.54348 11.225 6.54348 11.7752C6.54348 12.3254 6.99313 12.7755 7.5427 12.7755H11.7794C12.3289 12.7755 12.7786 12.3254 12.7786 11.7752V7.54389C12.7786 6.99372 12.3289 6.54358 11.7794 6.54358C11.2298 6.54358 10.7802 6.99372 10.7802 7.54389V9.36445L4.71492 3.29259C4.32522 2.90247 3.69572 2.90247 3.29603 3.29259C2.89634 3.68271 2.90634 4.3129 3.29603 4.70302L9.36127 10.7749ZM22.4411 12.7755H18.2144L18.2044 12.7655C17.6548 12.7655 17.2052 12.3153 17.2052 11.7652V7.53389C17.2052 6.98372 17.6548 6.53358 18.2044 6.53358C18.754 6.53358 19.2036 6.98372 19.2036 7.53389V9.35444L25.2688 3.29259C25.6685 2.90247 26.298 2.90247 26.6877 3.29259C27.0774 3.68271 27.0774 4.3129 26.6877 4.70302L20.6225 10.7749H22.4411C22.9906 10.7749 23.4403 11.225 23.4403 11.7752C23.4403 12.3254 22.9906 12.7755 22.4411 12.7755ZM11.7795 17.237H7.54284C6.99327 17.237 6.54363 17.6871 6.54363 18.2373C6.54363 18.7875 6.99327 19.2376 7.54284 19.2376H9.36142L3.29617 25.2995C2.90648 25.6896 2.90648 26.3198 3.29617 26.7099C3.49602 26.91 3.74582 27 4.00562 27C4.26541 27 4.51522 26.9 4.71506 26.7099L10.7803 20.6381V22.4586C10.7803 23.0088 11.2299 23.4589 11.7795 23.4589C12.3291 23.4589 12.7787 23.0088 12.7787 22.4586V18.2273C12.7787 17.6771 12.3291 17.227 11.7795 17.227V17.237ZM20.6425 19.2374H22.4511C23.0006 19.2374 23.4503 18.7873 23.4503 18.2371C23.4503 17.6869 23.0006 17.2368 22.4511 17.2368H18.2244C17.6748 17.2368 17.2252 17.6869 17.2252 18.2371V22.4684C17.2252 23.0185 17.6748 23.4687 18.2244 23.4687C18.774 23.4687 19.2236 23.0185 19.2236 22.4684V20.6478L25.2888 26.7097C25.4887 26.9097 25.7385 26.9998 25.9983 26.9998C26.2581 26.9998 26.5079 26.8997 26.7077 26.7097C27.0974 26.3196 27.0974 25.6894 26.7077 25.2992L20.6425 19.2374ZM17.355 15.016C17.355 16.3198 16.2992 17.3767 14.9968 17.3767C13.6945 17.3767 12.6387 16.3198 12.6387 15.016C12.6387 13.7122 13.6945 12.6553 14.9968 12.6553C16.2992 12.6553 17.355 13.7122 17.355 15.016Z" fill="currentcolor"/>
</symbol>
</svg>
