<svg xmlns='http://www.w3.org/2000/svg' viewBox='0 0 30 30' fill='none'>
<symbol id='PMRElevator'>
<path fill-rule="evenodd" clip-rule="evenodd" d="M4.9 3H25C26.12 3 27 3.83 27 4.9V25C27 26.12 26.17 27 25.1 27H4.9C3.85 27 3 26.15 3 25.1V4.9C3 3.85 3.85 3 4.9 3ZM8.5 13.2V25H21.5V13.2C21.5 12.65 20.92 12.2 20.2 12.2H9.8C9.08 12.2 8.5 12.65 8.5 13.2ZM23.5 25H24.99H25V5H5V25H6.5V13.2C6.5 11.52 7.95 10.2 9.8 10.2H20.2C22.05 10.2 23.5 11.52 23.5 13.2V25ZM11.31 9.00982L11.9 8.41982L12.49 9.00982C12.69 9.20982 12.94 9.29982 13.2 9.29982C13.46 9.29982 13.71 9.19982 13.91 9.00982C14.3 8.61982 14.3 7.98982 13.91 7.59982L12.61 6.29982C12.22 5.90982 11.59 5.90982 11.2 6.29982L9.90004 7.59982C9.51004 7.98982 9.51004 8.61982 9.90004 9.00982C10.29 9.39982 10.92 9.39982 11.31 9.00982ZM17.39 9.00982C17.59 9.20982 17.84 9.29982 18.1 9.29982C18.36 9.29982 18.61 9.19982 18.81 9.00982L20.11 7.70982C20.5 7.31982 20.5 6.68982 20.11 6.29982C19.72 5.90982 19.09 5.90982 18.7 6.29982L18.11 6.88982L17.52 6.29982C17.13 5.90982 16.5 5.90982 16.11 6.29982C15.72 6.68982 15.72 7.31982 16.11 7.70982L17.41 9.00982H17.39ZM15.87 20.7201C15.52 20.4901 15.06 20.5901 14.83 20.9301C14.53 21.3801 14.03 21.6501 13.49 21.6501C12.61 21.6501 11.89 20.9301 11.89 20.0501C11.89 19.4301 12.24 18.8801 12.79 18.6101C13.16 18.4301 13.32 17.9801 13.14 17.6101C12.96 17.2401 12.51 17.0801 12.14 17.2601C11.08 17.7801 10.39 18.8701 10.39 20.0501C10.39 21.7601 11.78 23.1501 13.49 23.1501C14.53 23.1501 15.5 22.6301 16.08 21.7601C16.31 21.4101 16.21 20.9501 15.87 20.7201ZM18.5001 21.0399C18.8701 20.8399 19.3201 20.9799 19.5201 21.3399H19.5301C19.7301 21.7099 19.5901 22.1599 19.2301 22.3599L18.8401 22.5699C18.6501 22.6699 18.4501 22.7199 18.2401 22.7199C18.1101 22.7199 17.9801 22.6999 17.8601 22.6599C17.5301 22.5599 17.2701 22.3399 17.1101 22.0299L16.2201 20.2699L14.9401 20.2399C14.1901 20.2399 13.5901 19.6599 13.5601 18.9099L13.4801 16.5199C13.4734 16.5066 13.4756 16.4933 13.4779 16.4799C13.479 16.4733 13.4801 16.4666 13.4801 16.4599C13.1701 16.2299 12.9501 15.8799 12.9501 15.4599C12.9501 14.7599 13.5201 14.1899 14.2201 14.1899C14.9201 14.1899 15.4901 14.7599 15.4901 15.4599C15.4901 15.8799 15.2801 16.2299 14.9701 16.4599C14.9701 16.4699 14.9901 16.4699 14.9901 16.4699V16.8999H16.8901C17.3001 16.8999 17.6401 17.2399 17.6401 17.6499C17.6401 18.0599 17.3001 18.3999 16.8901 18.3999H15.0501V18.7299H16.1601C16.7501 18.7299 17.2801 19.0599 17.5501 19.5899L18.3301 21.1299L18.5001 21.0399Z" fill="currentcolor"/>
</symbol>
</svg>
