<svg xmlns='http://www.w3.org/2000/svg' viewBox='0 0 30 30' fill='none'>
<symbol id='SkiRoom'>
<path fill-rule="evenodd" clip-rule="evenodd" d="M12.3 3C10.32 3 9.79004 6.88 9.79004 7.4V25.21C9.79004 26.14 10.54 26.89 11.47 26.89H13.14C14.07 26.89 14.82 26.14 14.82 25.21V7.4C14.82 6.88 14.29 3 12.31 3H12.3ZM11.79 24.89V7.4C11.79 6.96 12.04 6.01 12.3 5.41C12.56 6.01 12.81 6.96 12.81 7.4V24.88V24.89H11.79ZM5.51 3.1001C3.53 3.1001 3 6.9801 3 7.5001V25.3101C3 26.2401 3.75 26.9901 4.68 26.9901H6.35C7.28 26.9901 8.03 26.2301 8.03 25.3101V7.5101C8.03 6.9901 7.5 3.1101 5.52 3.1101L5.51 3.1001ZM6.02 24.9901H5V7.5101C5 7.0701 5.25 6.1201 5.51 5.5201C5.77 6.1201 6.02 7.0701 6.02 7.5101V24.9901ZM24.14 21.7598L25.71 22.8598V22.8698C26.5 23.2898 27 24.1198 27 25.0298V25.9998C27 26.5498 26.55 26.9998 26 26.9998H18.49C17.99 26.9998 17.57 26.6398 17.5 26.1498C17.4992 26.1434 17.4981 26.1356 17.4969 26.1265C17.4541 25.8055 17.1872 23.8044 17.79 22.2098C18.0743 21.4452 18.2624 20.1812 18.4016 19.2462L18.41 19.1898C18.4148 19.1586 18.4195 19.128 18.4241 19.098C18.5542 18.2518 18.6145 17.8598 18.74 17.5798C19.06 16.8598 19.78 16.5298 20.31 16.4698C20.66 16.4298 21.01 16.5798 21.22 16.8598C21.32 16.9998 21.44 17.1198 21.55 17.2297L21.55 17.2298C22.84 16.5798 24.14 17.3898 24.29 17.4898C24.63 17.7098 24.8 18.1098 24.73 18.5098L24.14 21.7598ZM19.67 22.9098C19.43 23.5298 19.39 24.3498 19.41 24.9898L19.4 24.9998H24.99C24.98 24.8498 24.89 24.7098 24.76 24.6398L24.51 24.5098C24.47 24.4898 24.39 24.4398 24.39 24.4398L22.93 23.3798L21.86 23.8998C21.72 23.9698 21.58 23.9998 21.43 23.9998C21.06 23.9998 20.7 23.7898 20.53 23.4298C20.29 22.9298 20.5 22.3298 21 22.0898L22.15 21.5298L22.61 18.9998C22.54 18.9998 22.47 19.0098 22.42 19.0398C21.81 19.3898 21.05 19.3398 20.47 18.9398C20.4542 19.0296 20.4411 19.125 20.4279 19.2216C20.4161 19.3078 20.4042 19.3949 20.39 19.4798C20.3838 19.5222 20.3775 19.565 20.3712 19.6082C20.215 20.675 20.0256 21.9679 19.67 22.9098Z" fill="currentcolor"/>
</symbol>
</svg>
