<svg xmlns='http://www.w3.org/2000/svg' viewBox='0 0 30 30' fill='none'>
<symbol id='Theater'>
<path fill-rule="evenodd" clip-rule="evenodd" d="M4.56 3H25.44C26.3 3 27 3.7 27 4.56V18.88C27 19.74 26.3 20.44 25.44 20.44H4.56C3.7 20.44 3 19.74 3 18.88V4.56C3 3.7 3.7 3 4.56 3ZM22.5 12.27H25V5H18.56C18.89 6.8 19.83 9.92 22.5 12.27ZM13.47 5C13.17 6.99 12.17 10.67 9.02 13.57H9.03C9.45 14.88 9.68 16.24 9.68 17.63V18.43H20.33V17.63C20.33 16.25 20.55 14.88 20.98 13.57C17.83 10.68 16.84 6.99 16.53 5H13.47ZM7.5 12.27C10.18 9.91 11.11 6.8 11.44 5H5V12.27H7.5ZM7.14 14.27H5V18.43H7.67V17.63C7.67 16.49 7.49 15.36 7.14 14.27ZM22.32 17.63V18.43H24.99V14.27H22.85C22.5 15.36 22.32 16.48 22.32 17.63ZM5.14 21.5601H7.63C8.81 21.5601 9.77 22.5201 9.77 23.7001V26.0001C9.77 26.5501 9.32 27.0001 8.77 27.0001C8.22 27.0001 7.77 26.5501 7.77 26.0001V23.7001C7.77 23.6201 7.71 23.5601 7.63 23.5601H5.14C5.06 23.5601 5 23.6201 5 23.7001V26.0001C5 26.5501 4.55 27.0001 4 27.0001C3.45 27.0001 3 26.5501 3 26.0001V23.7001C3 22.5201 3.96 21.5601 5.14 21.5601ZM22.37 21.5601H24.86C26.04 21.5601 27 22.5201 27 23.7001V26.0001C27 26.5501 26.55 27.0001 26 27.0001C25.45 27.0001 25 26.5501 25 26.0001V23.7001C25 23.6201 24.94 23.5601 24.86 23.5601H22.37C22.29 23.5601 22.23 23.6201 22.23 23.7001V26.0001C22.23 26.5501 21.78 27.0001 21.23 27.0001C20.68 27.0001 20.23 26.5501 20.23 26.0001V23.7001C20.23 22.5201 21.19 21.5601 22.37 21.5601ZM16.25 21.5601H13.76C12.58 21.5601 11.62 22.5201 11.62 23.7001V26.0001C11.62 26.5501 12.07 27.0001 12.62 27.0001C13.17 27.0001 13.62 26.5501 13.62 26.0001V23.7001C13.62 23.6201 13.68 23.5601 13.76 23.5601H16.25C16.33 23.5601 16.39 23.6201 16.39 23.7001V26.0001C16.39 26.5501 16.84 27.0001 17.39 27.0001C17.94 27.0001 18.39 26.5501 18.39 26.0001V23.7001C18.39 22.5201 17.43 21.5601 16.25 21.5601Z" fill="currentcolor"/>
</symbol>
</svg>
