<svg xmlns='http://www.w3.org/2000/svg' viewBox='0 0 30 30' fill='none'>
<symbol id='ZenPool'>
<path fill-rule="evenodd" clip-rule="evenodd" d="M4.54005 21.4124C4.73005 21.2924 9.15005 18.5535 14.52 21.4523C14.91 21.6623 15.3 21.8422 15.68 22.0021C15.69 22.0021 15.7 22.0071 15.71 22.0121C15.72 22.0171 15.73 22.0221 15.74 22.0221C17.46 22.7418 19.09 23.0117 20.52 23.0117C23.99 23.0117 26.39 21.5023 26.54 21.4024C27 21.1025 27.13 20.4827 26.83 20.0229C26.63 19.7231 26.3 19.5731 25.96 19.5831V3.99959C25.96 3.44981 25.51 3 24.96 3C24.41 3 23.96 3.44981 23.96 3.99959V7.828H17.1V3.99959C17.1 3.44981 16.65 3 16.1 3C15.55 3 15.1 3.44981 15.1 3.99959V19.5131C8.82005 16.3645 3.68005 19.5931 3.46005 19.7331C3.00005 20.0329 2.87005 20.6527 3.17005 21.1125C3.47005 21.5723 4.09005 21.7122 4.55005 21.4124H4.54005ZM23.96 17.3041H17.1V14.5652H23.96V17.3041ZM17.1 20.4128V19.3032H23.96V20.4228C22.47 20.9526 19.99 21.4324 17.1 20.4128ZM23.96 9.82717V12.566H17.1V9.82717H23.96ZM13.11 10.6467C13.11 10.5568 13.1 10.4568 13.07 10.3668C13 10.1769 12.86 10.027 12.68 9.94701C12.67 9.94701 12.65 9.93701 12.64 9.92702C12.55 9.88703 12.46 9.87704 12.37 9.86704C12.21 9.85704 11.86 9.83705 11.43 9.87704C11.28 9.39724 11.09 9.02739 10.99 8.84746C10.96 8.77749 10.92 8.71752 10.87 8.66754C10.73 8.49761 10.52 8.40765 10.31 8.40765H10.18C10.11 8.40765 10.04 8.43763 9.98004 8.46762C9.82004 8.5276 9.52004 8.64755 9.18004 8.85746C8.88004 8.5076 8.62004 8.29769 8.55004 8.24771C8.32004 8.06779 8.02004 8.0378 7.76004 8.15775C7.69004 8.19773 7.62004 8.23772 7.57004 8.2877C7.46004 8.37766 7.24004 8.57758 7.01004 8.84746C6.68004 8.65754 6.40004 8.5276 6.24004 8.46762C6.17004 8.42764 6.09004 8.40765 6.00004 8.39765C5.81004 8.36766 5.62004 8.41764 5.47004 8.5176C5.40004 8.56758 5.33004 8.62755 5.28004 8.69753C5.25004 8.73751 5.23004 8.7675 5.21004 8.80748C5.11004 8.96741 4.91004 9.34726 4.75004 9.85704C4.35004 9.81706 4.02004 9.82706 3.85004 9.84705C3.74004 9.84705 3.63004 9.85704 3.53004 9.90702C3.34004 9.98699 3.19004 10.1369 3.12004 10.3268C3.12004 10.3268 3.12004 10.3468 3.11004 10.3568C3.08004 10.4368 3.07004 10.5168 3.07004 10.5967C3.03004 11.0266 2.95004 12.8658 4.30004 14.2152C5.65004 15.5647 7.53004 15.6247 8.01004 15.6346H8.09004H8.15004C8.60004 15.6346 10.56 15.5547 11.89 14.2152C13.2 12.9058 13.16 11.1265 13.12 10.6367L13.11 10.6467ZM8.79004 11.7263C8.79004 12.5359 8.41004 13.2456 8.07004 13.7254C7.73004 13.2456 7.35004 12.5359 7.35004 11.7263C7.35004 10.9166 7.74004 10.2869 8.07004 9.88703C8.40004 10.2869 8.79004 10.9266 8.79004 11.7263ZM4.54004 11.3564C4.92004 11.3864 5.40004 11.5064 5.86004 11.7862C5.87004 12.5659 6.11004 13.2656 6.40004 13.8354C6.03004 13.6955 5.65004 13.4855 5.33004 13.1657C4.76004 12.5959 4.59004 11.8762 4.54004 11.3564ZM10.82 13.1657C10.5 13.4855 10.12 13.6955 9.75004 13.8354C10.04 13.2556 10.28 12.5659 10.29 11.7862C10.75 11.5064 11.24 11.3964 11.61 11.3564C11.56 11.8662 11.39 12.5959 10.82 13.1657ZM25.45 23.7114C25.92 23.4015 26.54 23.5414 26.84 24.0012V24.0112C27.14 24.4711 27 25.0908 26.54 25.3907C26.39 25.4906 23.99 27 20.52 27C18.75 27 16.7 26.6102 14.52 25.4307C9.15004 22.5319 4.73004 25.2707 4.54004 25.3907C4.08004 25.6905 3.46004 25.5506 3.16004 25.0908C2.86004 24.631 2.99004 24.0112 3.45004 23.7114C3.67004 23.5614 9.02004 20.1928 15.47 23.6714C20.8209 26.5583 25.3012 23.8029 25.4468 23.7133C25.4484 23.7124 25.4495 23.7117 25.45 23.7114Z" fill="currentcolor"/>
</symbol>
</svg>
