<svg version="1.1" id="Calque_1" xmlns="http://www.w3.org/2000/svg" xmlns:xlink="http://www.w3.org/1999/xlink" x="0px" y="0px"
	 viewBox="0 0 500 461.5" style="enable-background:new 0 0 500 461.5;" xml:space="preserve">

<path class="st0" d="M423.1,38.5h-38.5V0h-38.5v38.5H153.8V0h-38.5v38.5H76.9C34.6,38.5,0,73.1,0,115.4v57.7v38.5v173.1
	c0,42.3,34.6,76.9,76.9,76.9h346.2c42.3,0,76.9-34.6,76.9-76.9V115.4C500,73.1,465.4,38.5,423.1,38.5z M461.5,384.6
	c0,21.2-17.3,38.5-38.5,38.5H76.9c-21.2,0-38.5-17.3-38.5-38.5V211.5h423.1V384.6z M461.5,173.1H38.5v-57.7
	c0-21.2,17.3-38.5,38.5-38.5h38.5v38.5h38.5V76.9h192.3v38.5h38.5V76.9h38.5c21.2,0,38.5,17.3,38.5,38.5V173.1z"/>
<rect x="233.9" y="239.2" class="st0" width="32.1" height="150"/>
<rect x="175" y="298.2" class="st0" width="150" height="32.1"/>
</svg>
