<?xml version="1.0" encoding="utf-8"?>
<!-- Generator: Adobe Illustrator 21.0.0, SVG Export Plug-In . SVG Version: 6.00 Build 0)  -->
<svg version="1.1" id="Calque_1" xmlns="http://www.w3.org/2000/svg" xmlns:xlink="http://www.w3.org/1999/xlink" x="0px" y="0px"
	 viewBox="0 0 500 500" style="enable-background:new 0 0 500 500;" xml:space="preserve">
<style type="text/css">
	.st0{fill:#020001;}
	.st1{fill:#035689;}
</style>
<g>
	<path class="st0" d="M420.2,500H79.8C35.8,500,0,464.2,0,420.2V79.8C0,35.8,35.8,0,79.8,0h340.4c44,0,79.8,35.8,79.8,79.8v340.4
		C500,464.2,464.2,500,420.2,500z M79.8,31.9c-26.4,0-47.9,21.5-47.9,47.9v340.4c0,26.4,21.5,47.9,47.9,47.9h340.4
		c26.4,0,47.9-21.5,47.9-47.9V79.8c0-26.4-21.5-47.9-47.9-47.9C420.2,31.9,79.8,31.9,79.8,31.9z"/>
</g>
<polygon class="st1" points="199.4,411.5 50,261.2 120.9,189.6 199.4,268.9 378.7,88.5 450,159.8 "/>
</svg>
