<svg xmlns="http://www.w3.org/2000/svg" viewBox="0 0 30 30" fill="none">
<symbol id="CrossDefault">
<path fill-rule="evenodd" clip-rule="evenodd" d="M18.4518 9.94973L14.9 13.5029L11.3453 9.94973C11.1587 9.76305 10.9112 9.66123 10.6481 9.66123C10.3844 9.66052 10.1362 9.76305 9.9488 9.95044C9.56484 10.3358 9.56484 10.9623 9.9495 11.347L13.5027 14.9002L9.94809 18.4548C9.76283 18.6401 9.661 18.8876 9.6603 19.1513C9.661 19.4151 9.76353 19.6633 9.9488 19.8485C10.1362 20.0359 10.3844 20.1384 10.6474 20.1384C10.9119 20.1384 11.1594 20.0366 11.3467 19.8492L14.8992 16.2967L18.4525 19.8499C18.8364 20.2339 19.4636 20.2332 19.849 19.8492C20.0357 19.6625 20.1389 19.4151 20.1396 19.1513C20.1389 18.8876 20.0364 18.6394 19.8497 18.4541L16.2965 14.8995L19.849 11.347C20.0357 11.1589 20.1389 10.9114 20.1389 10.6483C20.1389 10.3853 20.035 10.1371 19.8476 9.94831C19.4629 9.56506 18.8364 9.56506 18.4518 9.94973Z" fill="currentColor"/>
</symbol>
</svg>
