<svg xmlns="http://www.w3.org/2000/svg" viewBox="0 0 30 30" fill="none">
<symbol id="CrossOutlined">
<path fill-rule="evenodd" clip-rule="evenodd" d="M7.91772 22.0819C11.8231 25.9872 18.1771 25.9872 22.0825 22.0819C25.9864 18.178 25.9857 11.8246 22.0804 7.91925C18.1764 4.01531 11.8238 4.01531 7.91984 7.91925C4.01449 11.8246 4.01379 18.178 7.91772 22.0819ZM6.51482 23.4848C1.8366 18.8066 1.8359 11.1932 6.51482 6.51423C11.1937 1.8353 18.8072 1.83601 23.4854 6.51423C28.1643 11.1932 28.1643 18.8059 23.4854 23.4848C18.8065 28.1637 11.1937 28.1637 6.51482 23.4848ZM15.0007 13.6033L18.5525 10.05C18.9371 9.66538 19.5636 9.66538 19.9483 10.0486C20.1357 10.2374 20.2396 10.4856 20.2396 10.7487C20.2396 11.0117 20.1364 11.2592 19.9497 11.4473L16.3972 14.9998L19.9504 18.5544C20.1371 18.7397 20.2396 18.9879 20.2403 19.2516C20.2396 19.5154 20.1364 19.7629 19.9497 19.9495C19.5643 20.3335 18.9371 20.3342 18.5532 19.9502L15 16.397L11.4475 19.9495C11.2601 20.1369 11.0126 20.2387 10.7481 20.2387C10.4851 20.2387 10.2369 20.1362 10.0495 19.9488C9.86425 19.7636 9.76171 19.5154 9.76101 19.2516C9.76171 18.9879 9.86354 18.7404 10.0488 18.5551L13.6034 15.0005L10.0502 11.4473C9.66555 11.0626 9.66555 10.4361 10.0495 10.0508C10.2369 9.86337 10.4851 9.76084 10.7488 9.76155C11.0119 9.76155 11.2594 9.86337 11.446 10.05L15.0007 13.6033Z" fill="currentColor"/>
</symbol>
</svg>
