<svg xmlns="http://www.w3.org/2000/svg" viewBox="0 0 30 30" fill="none">
<symbol id="Delete">
<path fill-rule="evenodd" clip-rule="evenodd" d="M9 3C8.44772 3 8 3.44772 8 4V7H4C3.44772 7 3 7.44772 3 8C3 8.55228 3.44772 9 4 9H5V26.05C5 26.5747 5.44772 27 6 27H24C24.5523 27 25 26.5747 25 26.05V9H26C26.5523 9 27 8.55228 27 8C27 7.44772 26.5523 7 26 7H22V4C22 3.44772 21.5523 3 21 3H9ZM20 7V5H10V7H20ZM23 9H7V25.1H23V9ZM9 12C9 11.4477 9.44772 11 10 11C10.5523 11 11 11.4477 11 12V22C11 22.5523 10.5523 23 10 23C9.44772 23 9 22.5523 9 22V12ZM15 11C14.4477 11 14 11.4477 14 12V22C14 22.5523 14.4477 23 15 23C15.5523 23 16 22.5523 16 22V12C16 11.4477 15.5523 11 15 11ZM19 12C19 11.4477 19.4477 11 20 11C20.5523 11 21 11.4477 21 12V22C21 22.5523 20.5523 23 20 23C19.4477 23 19 22.5523 19 22V12Z" fill="currentColor"/>
</symbol>
</svg>
