<svg xmlns="http://www.w3.org/2000/svg" viewBox="0 0 30 30" fill="none">
<symbol id="Edit">
<path fill-rule="evenodd" clip-rule="evenodd" d="M18.8018 10.045L20.9328 7.975C21.1058 7.807 21.2008 7.584 21.2008 7.345C21.2008 7.107 21.1058 6.884 20.9328 6.716L19.4478 5.274C19.1048 4.94 18.5008 4.939 18.1558 5.274L16.0608 7.31L16.0228 7.346L18.7668 10.011L18.8018 10.045ZM9.26976 19.303L17.2978 11.505L17.3358 11.469L14.5918 8.804L14.5568 8.77L6.50176 16.594L6.49176 16.603L5.49576 20.271L9.25676 19.307L9.26976 19.303ZM18.8018 3C19.6008 3 20.3528 3.302 20.9178 3.851L22.4018 5.293C22.9648 5.841 23.2758 6.57 23.2758 7.346C23.2758 8.122 22.9648 8.851 22.4018 9.398L10.5398 20.919C10.4088 21.046 10.2468 21.137 10.0698 21.181L4.30276 22.66C4.21776 22.682 4.12876 22.693 4.03876 22.693C3.75976 22.693 3.49876 22.588 3.30376 22.397C3.04376 22.146 2.94076 21.775 3.03376 21.429L4.55576 15.827C4.60176 15.657 4.69476 15.5 4.82476 15.373L16.6878 3.851C17.2518 3.302 18.0018 3 18.8018 3ZM25.9618 26.9998H4.03776C3.46576 26.9998 2.99976 26.5478 2.99976 25.9928C2.99976 25.4378 3.46576 24.9858 4.03776 24.9858H25.9618C26.5338 24.9858 26.9998 25.4378 26.9998 25.9928C26.9998 26.5478 26.5338 26.9998 25.9618 26.9998Z" fill="currentColor"/>
</symbol>
</svg>
