<svg xmlns="http://www.w3.org/2000/svg" viewBox="0 0 30 30" fill="none">
<symbol id="MinusOutlined">
<path fill-rule="evenodd" clip-rule="evenodd" d="M4.984 14.9995C4.984 20.5225 9.477 25.0155 15 25.0155C20.521 25.0155 25.013 20.5225 25.013 14.9995C25.013 9.47851 20.521 4.98651 15 4.98651C9.477 4.98651 4.984 9.47851 4.984 14.9995ZM3 14.9995C3 8.38351 8.383 2.99951 15 2.99951C21.617 2.99951 27 8.38351 27 14.9995C27 21.6165 21.617 26.9995 15 26.9995C8.383 26.9995 3 21.6165 3 14.9995ZM8.9847 14.0126C8.7227 14.0126 8.4757 14.1156 8.2887 14.3016C8.1027 14.4886 7.9997 14.7366 7.9997 14.9986C7.9997 15.2636 8.1027 15.5116 8.2887 15.6976C8.4757 15.8846 8.7227 15.9876 8.9877 15.9876H21.0117C21.2767 15.9866 21.5247 15.8846 21.7107 15.6986C21.8967 15.5126 21.9987 15.2636 21.9997 14.9976C21.9987 14.4546 21.5557 14.0116 21.0117 14.0116L8.9847 14.0126Z" fill="currentColor"/>
</symbol>
</svg>
