<svg xmlns="http://www.w3.org/2000/svg" viewBox="0 0 30 30" fill="none">
<symbol id="New">
<path fill="currentColor" fill-rule="evenodd" d="m9.63 8.17 1.21-3.21 3.13 1.42c.65.3 1.4.3 2.06 0l3.13-1.42 1.2 3.21c.26.68.8 1.21 1.47 1.46l3.21 1.21-1.42 3.13c-.3.65-.3 1.4 0 2.06l1.42 3.13-3.21 1.2a2.5 2.5 0 0 0-1.46 1.47l-1.21 3.21-3.13-1.42a2.5 2.5 0 0 0-2.06 0l-3.13 1.42-1.2-3.21a2.5 2.5 0 0 0-1.47-1.46l-3.21-1.21 1.42-3.13c.3-.65.3-1.4 0-2.06l-1.42-3.13 3.21-1.2a2.5 2.5 0 0 0 1.46-1.47ZM9.6 3.54a.83.83 0 0 1 1.12-.47l3.94 1.8c.21.1.47.1.68 0l3.94-1.8c.44-.2.96.02 1.12.47l1.52 4.05c.09.22.27.4.49.49l4.05 1.52c.45.16.66.68.47 1.12l-1.8 3.94a.8.8 0 0 0 0 .68l1.8 3.94c.2.44-.02.96-.47 1.12l-4.05 1.52a.83.83 0 0 0-.49.49l-1.52 4.05a.83.83 0 0 1-1.12.47l-3.94-1.8a.83.83 0 0 0-.68 0l-3.94 1.8a.83.83 0 0 1-1.12-.47l-1.52-4.05a.83.83 0 0 0-.49-.49L3.54 20.4a.83.83 0 0 1-.47-1.12l1.8-3.94a.8.8 0 0 0 0-.68l-1.8-3.94a.83.83 0 0 1 .47-1.12l4.05-1.52a.9.9 0 0 0 .49-.49L9.6 3.54Zm5.1 5.33h.49a1 1 0 0 1 1.02 1.01l-.26 6.27a1 1 0 0 1-1.02.94 1 1 0 0 1-1.02-.94l-.23-6.27a1 1 0 0 1 1.02-1.01Zm.2 12.06c.7 0 1.25-.53 1.25-1.2a1.2 1.2 0 0 0-1.24-1.18h-.04c-.69 0-1.25.53-1.25 1.19 0 .66.56 1.19 1.25 1.19h.04Z" clip-rule="evenodd"/>
</symbol>
</svg>
