<!-- Generator: Adobe Illustrator 19.2.0, SVG Export Plug-In  -->
<svg version="1.1"
	 xmlns="http://www.w3.org/2000/svg" xmlns:xlink="http://www.w3.org/1999/xlink"
	 x="0px" y="0px" viewBox="0 0 496 480.7" style="enable-background:new 0 0 496 480.7;"
	 xml:space="preserve">

<defs>
</defs>
<g id="XMLID_1_">
	<path class="st0" d="M484.5,22.9H255.6c-6.3,0-11.4-5.1-11.4-11.4S249.3,0,255.6,0h228.9c6.3,0,11.4,5.1,11.4,11.4
		S490.9,22.9,484.5,22.9z"/>
	<path class="st0" d="M484.5,114.5H255.6c-6.3,0-11.4-5.1-11.4-11.4c0-6.3,5.1-11.4,11.4-11.4h228.9c6.3,0,11.4,5.1,11.4,11.4
		C496,109.3,490.9,114.5,484.5,114.5z"/>
	<path class="st0" d="M484.5,206H255.6c-6.3,0-11.4-5.1-11.4-11.4s5.1-11.4,11.4-11.4h228.9c6.3,0,11.4,5.1,11.4,11.4
		S490.9,206,484.5,206z"/>
	<path class="st0" d="M484.5,297.6H11.4c-6.3,0-11.4-5.1-11.4-11.4c0-6.3,5.1-11.4,11.4-11.4h473.1c6.3,0,11.4,5.1,11.4,11.4
		C496,292.5,490.9,297.6,484.5,297.6z"/>
	<path class="st0" d="M484.5,389.2H11.4C5.1,389.2,0,384,0,377.7c0-6.3,5.1-11.4,11.4-11.4h473.1c6.3,0,11.4,5.1,11.4,11.4
		C496,384,490.9,389.2,484.5,389.2z"/>
	<path class="st0" d="M377.7,480.7H11.4c-6.3,0-11.4-5.1-11.4-11.4c0-6.3,5.1-11.4,11.4-11.4h366.3c6.3,0,11.4,5.1,11.4,11.4
		C389.2,475.6,384,480.7,377.7,480.7z"/>
	<path class="st0" d="M125.9,99.2c-27.3,0-49.6-22.3-49.6-49.6S98.6,0,125.9,0s49.6,22.3,49.6,49.6S153.3,99.2,125.9,99.2z
		 M125.9,22.9c-14.7,0-26.7,12-26.7,26.7s12,26.7,26.7,26.7s26.7-12,26.7-26.7S140.6,22.9,125.9,22.9z"/>
	<path class="st0" d="M194.6,221.3c-6.3,0-11.4-5.1-11.4-11.4c0-35.8-25.7-64.9-57.2-64.9s-57.2,29.1-57.2,64.9
		c0,6.3-5.1,11.4-11.4,11.4s-11.4-5.1-11.4-11.4c0-48.4,35.9-87.8,80.1-87.8s80.1,39.4,80.1,87.8C206,216.2,200.9,221.3,194.6,221.3
		z"/>
</g>
</svg>
