<svg version="1.1" id="Calque_1" xmlns="http://www.w3.org/2000/svg" xmlns:xlink="http://www.w3.org/1999/xlink" x="0px" y="0px"
	 viewBox="0 0 500 500" style="enable-background:new 0 0 500 500;" xml:space="preserve">
<g id="Page-1">
	<g id="Icone" transform="translate(-505.000000, -1659.000000)">
		<g id="usb" transform="translate(505.000000, 1659.000000)">
			<path id="Shape" class="st0" d="M336.3,86.5c-4.1,4.1-4.1,10.7,0,14.7l20.8,20.8c2,2,4.7,3,7.4,3c2.7,0,5.3-1,7.4-3.1l20.8-20.8
				c4.1-4.1,4.1-10.7,0-14.7l-19.1-19.1c-0.4-0.7-0.9-1.3-1.5-1.9c-4.1-4.1-10.7-4.1-14.7,0L336.3,86.5z M364.5,87.7l6.1,6.1
				l-6.1,6.1l-6.1-6.1L364.5,87.7z M378,142.8l20.8,20.8c2.1,2,4.7,3,7.4,3s5.3-1,7.4-3l20.8-20.8c4.1-4.1,4.1-10.7,0-14.7
				l-20.8-20.8c-4.1-4.1-10.7-4.1-14.7,0L378,128C374,132.1,374,138.7,378,142.8z M406.3,129.3l6.1,6.1l-6.1,6.1l-6.1-6.1
				L406.3,129.3z M497,128L372,3C367.9-1,361.3-1,357.2,3l-96.8,96.8L247,86.4c-4.1-4.1-10.7-4.1-14.7,0L116.7,201.8
				c-21,21-32.5,48.9-32.5,78.5c0,29.6,11.5,57.5,32.5,78.5l4.9,4.9L3,482.2C-1,486.3-1,492.9,3,497c2,2,4.7,3,7.4,3s5.3-1,7.4-3
				l118.5-118.5l4.8,4.8c21.6,21.6,50.1,32.5,78.5,32.5s56.8-10.8,78.5-32.4l115.5-115.5c4.1-4.1,4.1-10.7,0-14.7l-13.5-13.5
				l96.8-96.8C501,138.7,501,132.1,497,128z M283.4,368.5c-35.1,35.2-92.4,35.1-127.5,0l-24.4-24.4c-17-17-26.4-39.7-26.4-63.8
				c0-24.1,9.4-46.8,26.4-63.8l108.1-108.1l13.4,13.4c0,0,0,0.1,0.1,0.1l125,125c0,0,0,0,0.1,0l13.4,13.4L283.4,368.5z M385.4,224.8
				L275.2,114.6l89.4-89.4l110.3,110.3L385.4,224.8z"/>
		</g>
	</g>
</g>
</svg>
