<svg version="1.1"
   xmlns="http://www.w3.org/2000/svg" xmlns:xlink="http://www.w3.org/1999/xlink"
   x="0px" y="0px" viewBox="0 0 500 493.4" style="enable-background:new 0 0 500 493.4;"
   xml:space="preserve">
<defs>
</defs>
<g>
  <path class="st0" d="M490.5,424.8L365.2,299.5c-5.7-5.7-14.9-5.7-20.5,0c-5.7,5.7-5.7,14.9,0,20.5c0,0,0,0,0,0L470,445.3
    c2.9,2.9-1.2,9.6-4.8,13.2c-3.6,3.6-10.3,7.7-13.2,4.8c0,0-148.4-148.3-154.2-154.2c-1-1-4-4-4.6-6.5c-0.6-2.8,3.2-7,4.9-8.7
    c57.3-57.3,68.9-173.8-1.3-244C264,17.2,220.1-0.6,173.3,0C126.7,0.5,83,18.9,50.1,51.8c-67.4,67.4-66.8,177.8,1.5,246
    c45,45,113.6,62.5,174.9,44.5c7.7-2.3,12.1-10.3,9.8-18c-2.3-7.7-10.3-12.1-18-9.8c-51.2,15-108.6,0.4-146.2-37.2
    c-56.9-56.9-57.6-148.9-1.5-205c57.2-57.2,149.4-58,205.5-1.9c26.3,26.3,40.4,63.5,39.6,104.6c-0.8,38.4-15.1,75.1-38.3,98.3
    c-17.7,17.7-17.8,38.7-0.3,56.2c5.8,5.9,154.2,154.2,154.2,154.2c6.3,6.3,14.2,9.5,22.8,9.5c2.3,0,4.7-0.2,7.2-0.7
    c8.6-1.7,17.2-6.6,24.3-13.6c7-7,11.9-15.7,13.6-24.3C501.6,443.4,498.4,432.8,490.5,424.8z"/>
  <path class="st0" d="M244.9,159.7h-51.1v-51.1c0-8-6.5-14.5-14.5-14.5c-8,0-14.5,6.5-14.5,14.5v51.1h-51.1c-8,0-14.5,6.5-14.5,14.5
    c0,8,6.5,14.5,14.5,14.5h51.1v51.1c0,8,6.5,14.5,14.5,14.5c8,0,14.5-6.5,14.5-14.5v-51.1h51.1c8,0,14.5-6.5,14.5-14.5
    C259.4,166.2,252.9,159.7,244.9,159.7z"/>
</g>
</svg>
