<svg viewBox="0 0 102 102" xmlns="http://www.w3.org/2000/svg">
 <g>
  <path stroke="null" d="m21.340817,40.060204c0.482653,-0.482653 1.447959,-0.965306 2.413265,-0.965306s1.930612,0.482653 2.413265,0.965306l20.271428,20.271428l0,-56.470406c0,-1.930612 1.447959,-3.861224 3.861224,-3.861224s3.861224,1.447959 3.861224,3.861224l0,56.470406l20.271428,-20.271428c1.447959,-1.447959 3.861224,-1.447959 5.309184,0s1.447959,3.861224 0,5.309184l-27.028571,26.063264c-0.482653,0.482653 -0.965306,0.482653 -0.965306,0.965306c-0.965306,0.482653 -1.930612,0.482653 -2.895918,0c-0.482653,0 -0.965306,-0.482653 -0.965306,-0.965306l-26.545918,-26.545918c-1.447959,-1.447959 -1.447959,-3.378571 0,-4.82653zm-18.340816,31.372448l0,14.479591c0,7.239796 5.791837,13.514285 13.514285,13.514285l67.571426,0c7.239796,0 13.514285,-5.791837 13.514285,-13.514285l0,-14.479591c0,-1.930612 -1.447959,-3.861224 -3.861224,-3.861224s-3.861224,1.447959 -3.861224,3.861224l0,14.479591c0,3.378571 -2.895918,5.791837 -5.791837,5.791837l-67.571426,0c-3.378571,0 -5.791837,-2.895918 -5.791837,-5.791837l0,-14.479591c0,-1.930612 -1.447959,-3.861224 -3.861224,-3.861224s-3.861224,1.930612 -3.861224,3.861224z" class="st0" id="XMLID_13_"/>
 </g>
</svg>
