<?xml version="1.0" encoding="UTF-8"?>
<svg viewBox="0 0 376 501" version="1.1" xmlns="http://www.w3.org/2000/svg" xmlns:xlink="http://www.w3.org/1999/xlink">
    <!-- Generator: Sketch 52.3 (67297) - http://www.bohemiancoding.com/sketch -->
    <title>Picto/Duration</title>
    <desc>Created with Sketch.</desc>
    <g id="Page-1" stroke="none" stroke-width="1" fill="none" fill-rule="evenodd">
        <g id="07-icon/level" fill-rule="nonzero" transform="translate(-62.034478, 0.426234)">
            <path d="M337.980086,193.550596 C328.295045,202.468164 323.873811,215.305354 326.165967,227.894358 L339.638049,302.076202 L269.106674,267.047789 C263.235854,264.138025 256.631182,262.589005 249.999331,262.589005 C243.367479,262.589005 236.753747,264.138025 230.882927,267.047789 L160.360612,302.076202 L173.823634,227.894358 C176.11579,215.305354 171.694556,202.468164 162.018575,193.550596 L104.959282,141.012255 L183.807651,130.194783 C197.189134,128.354786 208.749575,120.421402 214.729113,108.970629 L249.999331,41.4726825 L285.260488,108.970629 C291.249086,120.421402 302.800468,128.354786 316.18195,130.194783 L395.030319,141.012255 L337.980086,193.550596 Z M272.884655,459.160619 C265.419292,457.252157 257.709311,456.293646 249.981211,456.293646 C242.25311,456.293646 234.561249,457.252157 227.114006,459.152061 L175.481597,473.68376 L203.839105,317.677667 L250.316427,294.27119 L296.74845,317.865946 L324.372106,474.436875 L272.884655,459.160619 Z M433.290306,141.654115 C441.534821,134.054498 436.977688,120.832192 425.580325,119.266055 L320.08677,104.785705 C315.565876,104.169519 311.661056,101.482268 309.631637,97.6054361 L262.456702,7.30864028 C259.910869,2.43050801 254.94604,0 249.999331,0 C245.043561,0 240.087792,2.43050801 237.541959,7.30864028 L190.367024,97.6054361 C188.337605,101.482268 184.423725,104.169519 179.902831,104.785705 L74.4092762,119.266055 C63.0119134,120.832192 58.4638402,134.054498 66.7083554,141.654115 L143.03807,211.933452 C146.317757,214.954471 147.812641,219.293441 147.042549,223.555388 L129.022395,322.803985 C127.48221,331.285088 134.612357,338.165822 142.711914,338.165822 C144.850052,338.165822 147.051609,337.695125 149.180687,336.633918 L174.584666,324.010681 L148.727692,469.173627 C146.97007,477.971382 150.086678,486.880392 157.062806,492.990894 C164.120474,499.169862 173.914233,501.446323 183.771412,498.930234 L234.45253,483.876489 C244.644926,481.326167 256.105708,481.49733 265.283393,483.799466 L316.761784,499.075722 C319.189839,499.691907 321.645074,500 324.082189,500 C330.994898,500 337.708289,497.560934 342.926795,492.990894 C349.902923,486.880392 353.019531,477.971382 351.316269,469.421813 L325.404935,324.010681 L350.817974,336.633918 C352.937992,337.695125 355.148609,338.165822 357.286747,338.165822 C365.377244,338.165822 372.516451,331.285088 370.976266,322.803985 L352.947052,223.555388 C352.17696,219.293441 353.671844,214.954471 356.951531,211.933452 L433.290306,141.654115 Z" id="Fill-1" fill="#005589"></path>
        </g>
    </g>
</svg>
