<svg xmlns="http://www.w3.org/2000/svg" viewBox="0 0 500 335.3"><path d="M500 271.5l-38-38.7-38 38.7 38 39 38-39zM455.3 9.9c-2.3-8.3-20.4 3.7-59.5 39.4 15.6 17.5 23.4 7.5 36 2.8 9.9 19.5 13.8 106.9-51.5 133.3C382 97.3 382.9 3 382.9 3L379 0c-17.9 2.4-49.8 34.7-74.3 61.9 13.5 22.7 30.8 2.3 44.3-3.3 0 3.7-3.1 68.7-1.7 134.9-67.3 5.1-56.4-134.8-52.5-152.7 1.5-14.4-43.3 17.4-65.6 38.6 6.9 13 16.8 10.3 29.2 5.5-4.5 62.9 38.7 119.9 89.1 118.5 1.9 64.8 8.4 127.6 26.7 131.9 2.6.6 4.6-65.6 6-139.1C501.5 157.7 455.3 9.9 455.3 9.9zM0 321.9h200v-40.2H40l104.8-91.2c7.1-6.5 13.8-13.2 20.4-19.9 6.7-6.7 12.5-14.1 17.7-21.6 5-7.5 9.2-15.7 12.3-24.5 3.1-8.6 4.8-17.8 4.8-27.9 0-13.8-2.7-25.8-7.7-36.3-5.2-10.3-12.3-18.9-21-25.8-9-6.9-19.4-12.2-31.1-15.7-11.9-3.5-24.4-5.4-37.7-5.4C89 13.4 76.4 15.1 65 18c-11.7 3.2-21.9 8-30.6 14.2-9 6.3-16.5 14.2-22.3 23.9-6 9.6-10 21-12.1 33.9l40 3.8c2.9-12.6 9.8-22.4 20.6-29.5 10.8-7.1 24.4-10.7 41-10.7 7.9 0 15.4 1.3 22.7 3.4 7.1 2.1 13.3 5.3 18.5 9 5.2 4 9.4 8.8 12.5 14.4 2.9 5.9 4.6 12.2 4.6 19.1 0 6.1-1 11.7-2.9 17.2-2.1 5.4-4.6 10.7-7.7 15.5-3.4 5-6.9 9.6-11.1 14-4.2 4.6-8.5 8.6-12.7 12.4L0 268.2v53.7z"/></svg>
