<svg xmlns="http://www.w3.org/2000/svg" viewBox="0 0 30 30" fill="none">
<symbol id="Boat">
<path fill-rule="evenodd" clip-rule="evenodd" d="M17.3572 6.26839H17.1981V4.80245H17.3572V6.26839ZM11.9398 8.1657C10.8052 8.1657 10.0526 8.72595 10.0526 9.09646V10.9732C10.1721 10.9374 10.2992 10.8898 10.4183 10.8451L10.4276 10.8416L10.4475 10.8343C10.5744 10.7877 10.6954 10.7433 10.8043 10.7119L13.2753 9.99948C13.3384 9.98158 13.4077 9.96368 13.4805 9.94667L13.4814 9.94645C13.6565 9.90259 13.9205 9.83645 14.003 9.75247C14.3735 9.373 14.7209 9.21191 15.0381 9.21102C15.4504 9.22265 15.7596 9.51441 16.0075 9.79811C16.0617 9.86076 16.1399 9.87776 16.3194 9.9064C16.4136 9.92072 16.5104 9.93683 16.6055 9.96368L18.1826 10.4183C18.2105 10.4271 18.3023 10.4496 18.433 10.4816L18.4412 10.4836C19.16 10.6635 19.6371 10.787 19.9526 10.8828V9.09646C19.9526 8.72595 19.2 8.1657 18.0662 8.1657H11.9398ZM7.12312 13.6491L10.1015 20.8526L8.45147 21.5462L4.69478 12.4722L8.26132 11.4457V9.09646C8.26132 7.5634 9.87755 6.36326 11.9398 6.36326H15.4024V3H19.144V6.47781C20.6874 6.817 21.7438 7.86679 21.7438 9.09646V11.4457L25.3104 12.4722L21.5528 21.5462L19.9037 20.8526L22.882 13.6491L15.8982 11.6408V21.2232H14.1069V11.6408L7.12312 13.6491ZM23.979 24.0538C24.5006 23.2107 25.2132 22.0589 26.689 22.0589H27V23.8623H26.689C26.2528 23.8623 25.9791 24.2301 25.4993 25.0105L25.4987 25.0115C24.9807 25.8509 24.2716 27 22.7937 27C21.3179 27 20.6044 25.8473 20.0837 25.006C19.5746 24.1907 19.324 23.8578 18.894 23.8578C18.4621 23.8578 18.1991 24.2077 17.7025 25.006L17.7005 25.0091C17.1809 25.8492 16.4691 27 14.9933 27C13.5222 27 12.8096 25.8486 12.289 25.0074L12.2887 25.0069C11.7938 24.2077 11.5325 23.8578 11.1025 23.8578C10.6707 23.8578 10.4076 24.2077 9.91185 25.006L9.91096 25.0075C9.39036 25.8486 8.67774 27 7.20717 27C5.74151 27 5.02712 25.8551 4.50559 25.0193L4.50516 25.0186L4.45452 24.9362C3.96139 24.1433 3.71438 23.8623 3.31098 23.8623H3V22.0589H3.31098C4.78327 22.0589 5.49498 23.2098 6.01477 24.0511C6.51057 24.8503 6.7718 25.2011 7.20184 25.2011C7.63633 25.2011 7.89667 24.8512 8.38803 24.0538C8.9087 23.2107 9.62219 22.0589 11.098 22.0589C12.5694 22.0589 13.282 23.2098 13.8018 24.0511C14.2967 24.8503 14.558 25.2011 14.9889 25.2011C15.4198 25.2011 15.6828 24.8503 16.1795 24.0529C16.6993 23.2116 17.4119 22.0589 18.8886 22.0589C20.3645 22.0589 21.078 23.2107 21.5986 24.0529C22.0971 24.8503 22.361 25.2011 22.7893 25.2011C23.2246 25.2011 23.4992 24.8333 23.979 24.0538Z" fill="currentColor"/>
</symbol>
</svg>
