<svg xmlns="http://www.w3.org/2000/svg" viewBox="0 0 30 30" fill="none">
<symbol id="Bus">
<path fill-rule="evenodd" clip-rule="evenodd" d="M5 9.5V18.5H6.03544C6.27806 16.8039 7.73676 15.5 9.5 15.5C11.2632 15.5 12.7219 16.8039 12.9646 18.5H17.0354C17.2781 16.8039 18.7368 15.5 20.5 15.5C22.2632 15.5 23.7219 16.8039 23.9646 18.5H25V16.4059C25 15.0103 24.7913 13.6226 24.3809 12.2887L23.5229 9.5H5ZM4 20.5H6.33682C6.89855 21.6825 8.1038 22.5 9.5 22.5C10.8962 22.5 12.1015 21.6825 12.6632 20.5H17.3368C17.8985 21.6825 19.1038 22.5 20.5 22.5C21.8962 22.5 23.1015 21.6825 23.6632 20.5H26C26.5523 20.5 27 20.0523 27 19.5V16.4059C27 14.8109 26.7615 13.2249 26.2925 11.7005L25.2172 8.20591C25.0881 7.78632 24.7004 7.5 24.2614 7.5H4C3.44772 7.5 3 7.94772 3 8.5V19.5C3 20.0523 3.44772 20.5 4 20.5ZM8 19C8 18.1716 8.67157 17.5 9.5 17.5C10.3284 17.5 11 18.1716 11 19C11 19.8284 10.3284 20.5 9.5 20.5C8.67157 20.5 8 19.8284 8 19ZM19 19C19 18.1716 19.6716 17.5 20.5 17.5C21.3284 17.5 22 18.1716 22 19C22 19.8284 21.3284 20.5 20.5 20.5C19.6716 20.5 19 19.8284 19 19ZM8 12C7.44772 12 7 12.4477 7 13C7 13.5523 7.44772 14 8 14H18.5C19.0523 14 19.5 13.5523 19.5 13C19.5 12.4477 19.0523 12 18.5 12H8Z" fill="currentColor"/>
</symbol>
</svg>
