<svg xmlns="http://www.w3.org/2000/svg" viewBox="0 0 30 30" fill="none">
<symbol id="CableCar">
<path fill-rule="evenodd" clip-rule="evenodd" d="M7.79892 18.4039H5.77538V15.9224C5.77538 15.8148 5.81778 15.7134 5.89626 15.637C5.9549 15.5783 6.02798 15.5409 6.10737 15.5267H7.79892V18.4039ZM9.3398 22.4023H6.18856C6.09745 22.3685 5.97385 22.3605 5.89536 22.2841C5.81868 22.2094 5.77447 22.1045 5.77538 21.9942V20.0097H11.4346V21.9933C11.4337 22.2147 11.2506 22.3952 11.0259 22.3952H9.32717L9.3398 22.4023ZM11.4346 15.9224L11.4463 18.4039H9.44265V15.5196H11.0368C11.2596 15.5249 11.4346 15.7019 11.4346 15.9224ZM24.939 12.1845C25.1619 12.1863 25.3441 12.3668 25.3441 12.5855L25.3459 13.1341L25.3567 13.1314V15.0688H23.3521V12.1845H24.939ZM19.6903 16.6746H25.3441V18.6573C25.3441 18.8778 25.1637 19.0583 24.9408 19.0601H20.0989C19.8734 19.0601 19.6903 18.8796 19.6903 18.6573V16.6746ZM21.7039 15.0688H19.6993V12.5855C19.7002 12.3676 19.8806 12.188 20.1016 12.1845H21.7039V15.0688ZM24.9426 10.5787H23.3305V8.2741L26.3256 7.59658C26.6233 7.5459 26.8669 7.33874 26.9599 7.05511C27.0537 6.77325 26.9815 6.46384 26.7731 6.25045C26.5638 6.03528 26.2535 5.94992 25.9855 6.02905L3.72748 11.0544C3.51096 11.0784 3.31609 11.1833 3.17896 11.3505C3.04364 11.5185 2.98139 11.7284 3.00485 11.9417C3.0283 12.156 3.13566 12.3472 3.30617 12.4823C3.46585 12.6086 3.66793 12.6682 3.87002 12.6575L3.96835 12.6619L7.7917 11.7986V13.9138H6.18676C5.06357 13.9138 4.14878 14.8145 4.14698 15.9224V21.9951C4.14878 23.1003 5.06267 24.0001 6.18405 24.0001H11.0286C11.652 24.0001 12.2114 23.7218 12.5858 23.2852L12.7238 23.2843L12.63 23.2319C12.9024 22.8905 13.0648 22.4601 13.0657 21.9942V15.9215C13.0639 14.8163 12.15 13.9147 11.0286 13.9138H9.42009V11.4145L21.7021 8.63953V10.5787H20.0989C18.9776 10.5787 18.0628 11.4785 18.061 12.5846V18.6582C18.0628 19.7625 18.9767 20.6632 20.0989 20.6659H24.9435C26.0649 20.6632 26.9788 19.7625 26.9806 18.6573V12.5837C26.9788 11.4785 26.0649 10.5787 24.9426 10.5787Z" fill="currentColor"/>
</symbol>
</svg>
