<svg xmlns="http://www.w3.org/2000/svg" viewBox="0 0 30 30" fill="none">
<symbol id="GlobeTrident">
<path fill-rule="evenodd" clip-rule="evenodd" d="M23.2417 2.47612C23.2417 2.47612 25.4014 9.52638 19.732 11.3592C19.659 14.8715 19.5698 18.0254 19.4496 17.9997C18.5936 17.7903 18.2908 14.792 18.2027 11.7052C15.8863 11.7733 13.8956 9.15246 14.022 6.219C13.945 6.26941 13.8592 6.30665 13.7681 6.3283H13.688C11.8304 6.71013 10.1456 7.68003 8.88338 9.09411C7.62119 10.5082 6.8489 12.2911 6.68116 14.1783C6.51156 16.2832 7.10875 18.3784 8.36279 20.0783L8.88332 19.8883H8.95339C11.2266 18.8806 13.3012 17.4753 15.0794 15.7383C15.2286 15.5882 15.4284 15.4991 15.6399 15.4883C15.8452 15.4961 16.0407 15.5778 16.1904 15.7183C16.3414 15.8717 16.4261 16.0782 16.4261 16.2933C16.4261 16.5085 16.3414 16.715 16.1904 16.8683C14.2444 18.7626 11.977 20.2964 9.4939 21.3983C11.1585 22.8973 13.3401 23.6931 15.5798 23.6183C17.6213 23.5472 19.5745 22.7695 21.1053 21.4183C22.0786 20.5508 22.8418 19.4737 23.3374 18.2683V18.2083C23.4036 18.0348 23.5268 17.8889 23.6868 17.7944C23.8468 17.7 24.0342 17.6626 24.2183 17.6884C24.3337 17.6979 24.4459 17.7312 24.5478 17.7861C24.6498 17.841 24.7392 17.9163 24.8106 18.0074C24.8821 18.0984 24.9339 18.2033 24.9628 18.3153C24.9918 18.4273 24.9973 18.5441 24.979 18.6583V18.7083C24.967 18.802 24.94 18.8932 24.8989 18.9783C24.123 20.7884 22.8462 22.3398 21.2186 23.4504C19.591 24.561 17.68 25.1848 15.71 25.2483H15.0393H14.4487C11.9092 25.0338 9.53689 23.895 7.78227 22.0483C7.13238 22.2504 6.45995 22.3713 5.78032 22.4083C5.329 22.4631 4.87116 22.3997 4.45175 22.2244C4.03235 22.0491 3.66577 21.7679 3.38797 21.4083C2.31693 19.9283 3.66825 17.7683 4.95951 16.0483C4.94552 15.7852 4.94552 15.5214 4.95951 15.2583C4.87074 12.7954 5.66796 10.3823 7.20676 8.45611C8.74555 6.52991 10.9241 5.21804 13.3477 4.7583H13.4678C13.5924 4.74022 13.7184 4.75192 13.8358 4.79099C14.7969 4.05298 15.7872 3.47161 15.7337 3.94842C15.5522 4.80493 15.0421 11.4801 18.1898 11.2327C18.1347 8.5787 18.2301 5.958 18.2618 5.08907L18.2618 5.08828C18.2677 4.92505 18.2714 4.8238 18.2714 4.79598C18.1241 4.85866 17.9673 4.95968 17.8055 5.06397L17.8054 5.06398C17.2735 5.40672 16.6867 5.78479 16.2009 4.95384C17.3511 3.65844 18.8417 2.1212 19.6762 2.0014C19.7631 1.99244 19.863 2.02491 19.863 2.14583C19.863 2.14583 19.819 6.64783 19.7395 10.852C22.7917 9.5902 22.6091 5.41737 22.1419 4.49032C22.0271 4.53441 21.9208 4.58822 21.8186 4.63993C21.3995 4.85216 21.0499 5.02914 20.4601 4.35485C22.2934 2.65078 23.1364 2.07977 23.2417 2.47612ZM22.7759 14.954L24.5554 16.8126L26.3328 14.954L24.5554 13.1033L22.7759 14.954ZM4.56912 20.4483H4.64921H4.68923C4.91945 20.7583 5.60011 20.8483 6.56105 20.5483C6.06769 19.8027 5.674 18.9959 5.38992 18.1483C4.41721 19.6922 4.60037 20.2381 4.6422 20.3628C4.64643 20.3754 4.64921 20.3837 4.64921 20.3883L4.56912 20.4483Z" fill="currentColor"/>
</symbol>
</svg>
