<svg xmlns="http://www.w3.org/2000/svg" viewBox="0 0 30 30" fill="none">
<symbol id="GlobePlane">
<path fill-rule="evenodd" clip-rule="evenodd" d="M23.6868 17.7944C23.8468 17.7 24.0342 17.6626 24.2183 17.6884C24.3337 17.6979 24.4459 17.7312 24.5478 17.7861C24.6498 17.841 24.7392 17.9163 24.8106 18.0074C24.8821 18.0984 24.9339 18.2033 24.9628 18.3153C24.9918 18.4273 24.9973 18.5441 24.979 18.6583V18.7083C24.967 18.802 24.94 18.8932 24.8989 18.9783C24.123 20.7884 22.8462 22.3398 21.2186 23.4504C19.591 24.561 17.68 25.1848 15.71 25.2483H15.0393H14.4487C11.9092 25.0338 9.53689 23.895 7.78227 22.0483C7.13238 22.2504 6.45995 22.3713 5.78032 22.4083C5.329 22.4631 4.87116 22.3997 4.45175 22.2244C4.03235 22.0491 3.66577 21.7679 3.38797 21.4083C2.31693 19.9283 3.66825 17.7683 4.95951 16.0483C4.94552 15.7852 4.94552 15.5214 4.95951 15.2583C4.87074 12.7954 5.66796 10.3823 7.20676 8.45611C8.74555 6.52991 10.9241 5.21804 13.3477 4.7583H13.4678C13.6719 4.7287 13.8795 4.77893 14.0474 4.89843C14.2154 5.01794 14.3307 5.19757 14.3694 5.3999C14.4081 5.60223 14.3671 5.81167 14.2551 5.98462C14.1431 6.15756 13.9687 6.28065 13.7681 6.3283H13.688C11.8304 6.71013 10.1456 7.68003 8.88338 9.09411C7.62119 10.5082 6.8489 12.2911 6.68116 14.1783C6.51156 16.2832 7.10875 18.3784 8.36279 20.0783L8.88332 19.8883H8.95339C11.2266 18.8806 13.3012 17.4753 15.0794 15.7383C15.2286 15.5882 15.4284 15.4991 15.6399 15.4883C15.8452 15.4961 16.0407 15.5778 16.1904 15.7183C16.3414 15.8717 16.4261 16.0782 16.4261 16.2933C16.4261 16.5085 16.3414 16.715 16.1904 16.8683C14.2444 18.7626 11.977 20.2964 9.4939 21.3983C11.1585 22.8973 13.3401 23.6931 15.5798 23.6183C17.6213 23.5472 19.5745 22.7695 21.1053 21.4183C22.0786 20.5508 22.8418 19.4737 23.3374 18.2683V18.2083C23.4036 18.0348 23.5268 17.8889 23.6868 17.7944ZM4.56912 20.4483H4.64921H4.68923C4.91945 20.7583 5.60011 20.8483 6.56105 20.5483C6.06769 19.8027 5.674 18.9959 5.38992 18.1483C4.41721 19.6922 4.60037 20.2381 4.6422 20.3628C4.64643 20.3754 4.64921 20.3837 4.64921 20.3883L4.56912 20.4483ZM25.42 8.7982L24.6993 9.51817L26.3809 13.8782C26.5408 14.2846 26.5533 14.7341 26.4161 15.1487C26.279 15.5633 26.0009 15.9169 25.6302 16.1482C25.4013 16.2782 25.1428 16.3471 24.8795 16.3482C24.5701 16.3473 24.2673 16.2597 24.0054 16.0953C23.7435 15.9308 23.533 15.6963 23.3981 15.4182L21.8265 12.3182L21.0558 13.0782C20.7039 13.454 20.311 13.7894 19.8846 14.0782L20.0848 14.5782C20.225 14.9282 20.8856 16.6882 19.9848 17.2082C19.8589 17.2763 19.7175 17.3108 19.5743 17.3082C18.8236 17.3082 18.203 16.3382 17.8927 15.7582C17.4335 14.968 16.7741 14.3127 15.9809 13.8582C15.6005 13.6482 14.6696 13.1082 14.4694 12.4382C14.4341 12.3278 14.4222 12.2112 14.4342 12.0959C14.4463 11.9806 14.4821 11.869 14.5394 11.7682C14.6477 11.6063 14.7981 11.477 14.9745 11.3942C15.1509 11.3113 15.3466 11.2781 15.5404 11.2982C16.102 11.3236 16.6545 11.4489 17.172 11.6682L17.6725 11.8682C17.9616 11.4422 18.2973 11.0498 18.6735 10.6982L19.4342 9.93822L16.3312 8.34819C16.1276 8.24814 15.9464 8.108 15.7984 7.93614C15.6505 7.76429 15.5389 7.56427 15.4703 7.34819C15.4068 7.14852 15.3856 6.93785 15.408 6.72954C15.4304 6.52122 15.4959 6.3198 15.6005 6.13817C15.7646 5.86433 15.9981 5.63872 16.2777 5.48418C16.5572 5.32963 16.8726 5.25165 17.192 5.25816C17.4254 5.25496 17.6569 5.29919 17.8727 5.38817L22.277 7.09819L22.9977 6.37822C23.7223 5.54009 24.7172 4.9812 25.8104 4.7982C26.1297 4.79052 26.4391 4.90914 26.6713 5.12822C27.5021 5.96822 26.6412 7.5782 25.42 8.7982ZM24.9246 15.0903C24.9608 15.0903 24.9965 15.0828 25.0297 15.0682C25.1292 14.9895 25.2013 14.8813 25.2355 14.7591C25.2696 14.6369 25.2642 14.507 25.2198 14.3882L23.2179 9.19817L24.4691 7.83818C25.0185 7.35604 25.4325 6.73908 25.6703 6.0482C24.9806 6.28938 24.3638 6.70243 23.8785 7.24822L22.5672 8.55821L17.3722 6.55821C17.254 6.51435 17.1251 6.5081 17.0033 6.54033C16.8814 6.57256 16.7725 6.64167 16.6915 6.73821C16.6662 6.80592 16.6662 6.88045 16.6915 6.94817C16.7332 7.05231 16.8115 7.13771 16.9118 7.18822L21.5963 9.56816L19.5944 11.5682C19.1958 11.9663 18.8585 12.4213 18.5934 12.9182L18.3331 13.4482L17.152 12.9782C17.7887 13.4308 18.3467 13.9849 18.8036 14.6182L18.3431 13.4482L18.8637 13.1882C19.36 12.9217 19.8151 12.5849 20.215 12.1882L22.2169 10.1882L24.5892 14.8582C24.61 14.9078 24.6414 14.9523 24.6812 14.9886C24.7209 15.0248 24.7681 15.052 24.8194 15.0682C24.8525 15.0828 24.8884 15.0903 24.9246 15.0903Z" fill="currentColor"/>
</symbol>
</svg>
