<svg xmlns="http://www.w3.org/2000/svg" viewBox="0 0 30 30" fill="none">
<symbol id="Parking">
<path fill-rule="evenodd" clip-rule="evenodd" d="M7 3H23C24.0609 3 25.0783 3.42142 25.8284 4.17157C26.5786 4.92172 27 5.93913 27 7V23C27 24.0609 26.5786 25.0783 25.8284 25.8284C25.0783 26.5786 24.0609 27 23 27H7C5.93913 27 4.92172 26.5786 4.17157 25.8284C3.42142 25.0783 3 24.0609 3 23V7C3 5.93913 3.42142 4.92172 4.17157 4.17157C4.92172 3.42142 5.93913 3 7 3ZM24.4142 24.4142C24.7893 24.0391 25 23.5304 25 23V7C25 6.46957 24.7893 5.96086 24.4142 5.58578C24.0391 5.21071 23.5304 5 23 5H7C6.46957 5 5.96086 5.21071 5.58578 5.58578C5.21071 5.96086 5 6.46957 5 7V23C5 23.5304 5.21071 24.0391 5.58578 24.4142C5.96086 24.7893 6.46957 25 7 25H23C23.5304 25 24.0391 24.7893 24.4142 24.4142ZM13.51 8.00997C14.9709 7.89265 16.4312 8.24286 17.68 9.00997C18.1433 9.39089 18.5079 9.8779 18.743 10.4297C18.978 10.9816 19.0764 11.582 19.03 12.18C19.03 15.36 17.4 16.96 14.14 16.96C13.8056 16.9569 13.4716 16.9336 13.14 16.89V22.01H11V8.10998C12.43 8.00998 13.26 8.00997 13.51 8.00997ZM14.08 14.73C14.8977 14.7951 15.7147 14.5952 16.41 14.16C16.6681 13.9347 16.8689 13.6512 16.9958 13.333C17.1227 13.0148 17.1722 12.671 17.14 12.33C17.14 10.88 16.05 10.16 13.85 10.16C13.6125 10.1613 13.3754 10.178 13.14 10.21V14.66C13.54 14.73 13.85 14.73 14.08 14.73Z" fill="currentColor"/>
</symbol>
</svg>
