<svg xmlns="http://www.w3.org/2000/svg" viewBox="0 0 30 30" fill="none">
<symbol id="PlaneInBound">
<path fill-rule="evenodd" clip-rule="evenodd" d="M6.94074 6.0144C6.92138 9.53001 7.24091 10.0286 7.30563 10.0933C7.60038 10.328 10.695 11.7366 23.7024 17.0635C23.8827 17.0256 24.4319 16.7741 24.6387 16.4806C24.6648 16.4429 24.7069 16.3722 24.6949 16.3222C24.5718 15.8459 24.0196 15.1982 23.8662 15.0888L23.8643 15.0882C23.863 15.0869 23.8617 15.0856 23.8604 15.0855L23.854 15.0828L23.863 15.0881L18.595 12.785C18.4744 12.7244 18.3269 12.648 18.2416 12.4769L15.2425 7.71212L14.3631 7.39802L15.6503 10.7034C15.7577 10.9494 15.7067 11.2503 15.5185 11.4385C15.3352 11.6218 15.0807 11.6873 14.8194 11.6185L9.41747 9.78717C9.09899 9.6759 8.82948 9.44318 8.67914 9.14693L7.07507 5.92926C7.02013 5.90006 6.9875 5.90422 6.95283 5.92595L6.94074 6.0144ZM24.5141 13.2759C25.3813 13.6073 26.3497 14.9767 26.5941 15.9309C26.7982 16.7261 26.4932 17.5541 25.7596 18.2023C24.962 18.9067 23.8843 19.1974 23.1386 18.9114C10.3821 13.6909 6.5303 12.0155 5.95687 11.442C5.10643 10.5916 4.96317 8.99904 4.97861 5.96629C4.93092 5.29816 5.25058 4.63936 5.81479 4.26802C6.30662 3.94447 6.91816 3.85588 7.4951 4.02452C8.00631 4.16053 8.44304 4.49916 8.74874 4.99859L8.81629 5.12132L10.2712 8.039L12.8934 8.92989L12.4169 7.70421C12.2489 7.3143 12.2225 6.87596 12.3485 6.48078C12.4634 6.11994 12.6584 5.90294 12.7647 5.80696C13.1779 5.39249 13.7503 5.23295 14.366 5.36675L14.5621 5.42181L15.8076 5.86547C16.2998 5.99718 16.7252 6.35755 16.955 6.84359L19.6705 11.1555L24.5141 13.2759ZM4 22C3.44772 22 3 22.4477 3 23C3 23.5522 3.44772 24 4 24H26C26.5523 24 27 23.5522 27 23C27 22.4477 26.5523 22 26 22H4Z" fill="currentColor"/>
</symbol>
</svg>
