<svg xmlns="http://www.w3.org/2000/svg" viewBox="0 0 30 30" fill="none">
<symbol id="PlaneNoPlane">
<path fill-rule="evenodd" clip-rule="evenodd" d="M26.7071 4.70711C27.0976 4.31658 27.0976 3.68342 26.7071 3.29289C26.3166 2.90237 25.6834 2.90237 25.2929 3.29289L3.29289 25.2929C2.90237 25.6834 2.90237 26.3166 3.29289 26.7071C3.68342 27.0976 4.31658 27.0976 4.70711 26.7071L26.7071 4.70711ZM13.543 7.2089L16.2525 10.212L13.0575 13.407L7.91051 14.4488C7.52034 14.5187 7.12017 14.4289 6.81003 14.1792L5.59951 13.2006L6.41986 14.5687C7.12017 15.737 8.49077 16.3362 9.84135 16.0666L10.5424 15.9221L8.40115 18.0633C6.89122 17.8313 5.51847 16.9418 4.69912 15.5873L3.19846 13.1007C2.96836 12.7312 2.93835 12.2719 3.10842 11.8724C3.2785 11.473 3.62865 11.1834 4.04883 11.0835L4.72913 10.9237C5.30938 10.7839 5.94966 10.9337 6.42987 11.3132L7.80047 12.4117L11.1419 11.7326L9.14105 8.33733C8.95097 8.00779 8.93096 7.60834 9.09103 7.2788C9.2511 6.94926 9.56123 6.70959 9.93139 6.64967L11.322 6.42998C12.1524 6.29017 12.9827 6.58976 13.543 7.2089ZM24.2476 13.1207L19.4343 14.1012L14.8955 18.64L14.2533 20.8999H14.2633C14.1832 21.1994 13.9331 21.4291 13.633 21.499L13.0227 21.539L13.3055 20.23L10.9142 22.6214C10.9703 22.8013 11.0634 22.9708 11.1919 23.1168C11.4521 23.4164 11.8422 23.5961 12.2424 23.5961H12.3324L13.8231 23.4963H13.9331C15.0136 23.2865 15.864 22.5076 16.1641 21.4491L17.5647 16.516L24.6278 15.078C25.5282 14.8982 26.2985 14.339 26.7587 13.5501C27.0388 13.0707 27.0789 12.5015 26.8588 11.9823L26.8888 11.9723C26.6787 11.453 26.2385 11.0835 25.6983 10.9437L23.2326 10.3029L21.5699 11.9656C21.6527 11.9815 21.7349 12.0004 21.8166 12.0222L24.8579 12.8111C24.6878 12.9809 24.4777 13.0907 24.2476 13.1407V13.1207ZM11.5221 8.41722L11.6521 8.39724C11.8022 8.37727 11.9523 8.4272 12.0623 8.53705L14.3533 11.0835L13.2228 11.3132L11.5121 8.41722H11.5221Z" fill="currentColor"/>
</symbol>
</svg>
