<svg xmlns="http://www.w3.org/2000/svg" viewBox="0 0 30 30" fill="none">
<symbol id="Train">
<path fill-rule="evenodd" clip-rule="evenodd" d="M15 3C12.5549 3 10.3556 3.14773 8.40074 3.44451C6.44412 3.74058 4.99804 5.42374 5 7.40316L5 18C5 20.2091 6.79086 22 9 22H9.00156C8.69726 21.9998 8.39661 22.1149 8.19999 22.3334L5.20006 25.6666L5.13103 25.7542C4.88455 26.1137 4.99222 26.5784 5.40005 26.8333C5.84187 27.1094 6.46865 27.0348 6.80002 26.6666L7.84998 25.5H22.15L23.2 26.6666C23.5313 27.0348 24.1581 27.1094 24.6 26.8333C25.0078 26.5784 25.1154 26.1137 24.869 25.7542L24.7999 25.6666L21.8 22.3334C21.6034 22.1149 21.3027 21.9998 20.9984 22H21C23.2091 22 25 20.2091 25 18V7.40217C25.002 5.42374 23.5559 3.74058 21.5988 3.44444C19.6444 3.14773 17.4451 3 15 3ZM20.9984 22C20.7899 22.0001 20.5797 22.0544 20.4001 22.1667C19.9922 22.4216 19.8846 22.8863 20.131 23.2458L20.2001 23.3334L20.35 23.5H9.64997L9.79995 23.3334L9.86898 23.2458C10.1155 22.8863 10.0078 22.4216 9.59995 22.1667C9.42031 22.0544 9.21008 22.0001 9.00156 22H20.9984ZM15 5C17.3495 5 19.4496 5.14106 21.2991 5.42185C22.278 5.56998 23.001 6.4115 23 7.40118V18C23 19.1046 22.1046 20 21 20H9C7.89543 20 7 19.1046 7 18V7.40217C6.99902 6.4115 7.722 5.56998 8.70046 5.42193C10.5504 5.14106 12.6505 5 15 5ZM22 7.125C22 6.50368 21.5523 6 21 6H9C8.44772 6 8 6.50368 8 7.125V13.875C8 14.4963 8.44772 15 9 15H21C21.5523 15 22 14.4963 22 13.875V7.125ZM10 13V8H20V13H10ZM20.5 16C19.6716 16 19 16.6716 19 17.5C19 18.3284 19.6716 19 20.5 19C21.3284 19 22 18.3284 22 17.5C22 16.6716 21.3284 16 20.5 16ZM8 17.5C8 16.6716 8.67157 16 9.5 16C10.3284 16 11 16.6716 11 17.5C11 18.3284 10.3284 19 9.5 19C8.67157 19 8 18.3284 8 17.5Z" fill="currentColor"/>
</symbol>
</svg>
