<svg viewBox="0 0 16 16" version="1.1" xmlns="http://www.w3.org/2000/svg" xmlns:xlink="http://www.w3.org/1999/xlink">
    <symbol id="GoogleMonogram">
        <path d="M13.9986,8.135 C13.9986,7.74 13.9629,7.365 13.9016,7 L8.12891,7 L8.12891,9.255 L11.43414,9.255 C11.28599,9.995 10.85177,10.62 10.20809,11.045 L10.20809,12.545 L12.18,12.545 C13.3345,11.5 13.9986,9.96 13.9986,8.135 Z" id="Vector" fill="#4285F4" fill-rule="nonzero"></path>
        <path d="M8.13142,14 C9.78659,14 11.17101,13.46 12.1825,12.545 L10.2106,11.04502 C9.65888,11.40502 8.95901,11.62502 8.13142,11.62502 C6.53244,11.62502 5.17868,10.57002 4.69336,9.14502 L2.660156,9.14502 L2.660156,10.69002 C3.66654,12.65 5.73551,14 8.13142,14 Z" id="Vector_2" fill="#34A853" fill-rule="nonzero"></path>
        <path d="M4.69221,9.14506 C4.5645,8.78506 4.49808,8.40006 4.49808,8.00006 C4.49808,7.60006 4.5696,7.21506 4.69221,6.85506 L4.69221,5.31006 L2.659003,5.31006 C2.240102,6.12006 2,7.03006 2,8.00006 C2,8.97006 2.240102,9.88006 2.659003,10.69006 L4.69221,9.14506 Z" id="Vector_3" fill="#FBBC05" fill-rule="nonzero"></path>
        <path d="M8.13142,4.375 C9.03564,4.375 9.84279,4.68 10.48136,5.275 L12.2285,3.565 C11.17101,2.595001 9.78659,2 8.13142,2 C5.73551,2 3.66654,3.35 2.660156,5.31 L4.69336,6.855 C5.17868,5.43 6.53244,4.375 8.13142,4.375 Z" id="Vector_4" fill="#EA4335" fill-rule="nonzero"></path>
    </symbol>
</svg>