<svg xmlns="http://www.w3.org/2000/svg" viewBox="0 0 101 22">
  <symbol id="TripAdvisor">
    <path fill="#000" d="M100.436 14.574a.562.562 0 1 0 0 1.125.562.562 0 0 0 0-1.125Zm0 1.034a.473.473 0 1 1 0-.946.473.473 0 0 1 0 .946Zm.183-.568c0-.102-.073-.163-.18-.163h-.179v.512h.088v-.185h.096l.093.185h.095l-.102-.204a.151.151 0 0 0 .089-.145Zm-.183.084h-.087v-.17h.087c.059 0 .095.03.095.085 0 .055-.037.085-.095.085Zm-67.73-6.233V7.533H30.62v8.08h2.085v-4.845c0-.877.563-1.308 1.441-1.308h1.141V7.533h-.974c-.763 0-1.427.398-1.608 1.358Zm4.534-4.553c-.712 0-1.26.562-1.26 1.275 0 .695.548 1.258 1.26 1.258.714 0 1.26-.563 1.26-1.258 0-.713-.546-1.275-1.26-1.275ZM36.2 15.613h2.08v-8.08H36.2v8.08Zm11.987-4.04a4.178 4.178 0 0 1-4.18 4.177 4.025 4.025 0 0 1-2.455-.82v3.055h-2.08V7.533h2.08v.684a4.025 4.025 0 0 1 2.454-.82c2.31 0 4.18 1.87 4.18 4.176Zm-2.093 0a2.27 2.27 0 0 0-4.542 0 2.27 2.27 0 0 0 4.542 0Zm38.24-.709-1.214-.332c-.799-.208-1.109-.452-1.109-.874 0-.41.437-.698 1.062-.698.596 0 1.063.39 1.063.888v.047h1.917v-.047c0-1.466-1.197-2.451-2.98-2.451-1.764 0-3.047.984-3.047 2.34 0 1.056.7 1.852 1.922 2.182l1.162.317c.883.244 1.211.515 1.211 1 0 .512-.474.856-1.18.856-.736 0-1.231-.465-1.231-1.156v-.046h-2.035v.046c0 1.657 1.336 2.816 3.25 2.816 1.843 0 3.18-1.131 3.18-2.689 0-.764-.341-1.764-1.972-2.199Zm-28.77-3.33h2.08v8.08h-2.08v-.685a4.025 4.025 0 0 1-2.454.82 4.179 4.179 0 0 1-4.18-4.176 4.179 4.179 0 0 1 4.18-4.176c.932 0 1.777.305 2.454.82v-.684Zm0 4.04a2.27 2.27 0 0 0-4.542 0 2.27 2.27 0 0 0 4.542 0Zm9.59-6.916h2.08v10.956h-2.08v-.684a4.025 4.025 0 0 1-2.454.82 4.178 4.178 0 0 1-4.181-4.176 4.178 4.178 0 0 1 4.18-4.176 4.03 4.03 0 0 1 2.455.82v-3.56Zm0 6.915a2.27 2.27 0 0 0-4.542 0 2.27 2.27 0 0 0 2.27 2.269 2.27 2.27 0 0 0 2.272-2.269Zm11.735 4.04h2.08v-8.08h-2.08v8.08Zm1.04-11.275c-.713 0-1.26.562-1.26 1.275 0 .695.547 1.258 1.26 1.258s1.26-.563 1.26-1.258c0-.713-.547-1.275-1.26-1.275Zm17.366 7.235a4.179 4.179 0 0 1-4.18 4.177 4.18 4.18 0 0 1-4.182-4.177 4.178 4.178 0 0 1 4.181-4.176c2.31 0 4.18 1.87 4.18 4.176Zm-1.91 0a2.27 2.27 0 0 0-4.542 0 2.27 2.27 0 0 0 2.271 2.269 2.27 2.27 0 0 0 2.271-2.269ZM31.641 4.658h-7.978v1.853h2.953v9.102h2.073V6.511h2.953V4.658h-.001ZM71.986 13.4l-1.85-5.867H67.95l2.775 8.08h2.503l2.791-8.08h-2.184l-1.85 5.867Zm26.356-4.509V7.533h-2.085v8.08h2.085v-4.845c0-.877.563-1.308 1.441-1.308h1.141V7.533h-.974c-.763 0-1.425.398-1.608 1.358Z"/>
    <path fill="#14DD9B" d="M11.634 21.625c5.874 0 10.636-4.757 10.636-10.625S17.508.375 11.634.375.998 5.132.998 11 5.76 21.625 11.634 21.625Z"/>
    <path fill="#000" d="m18.203 8.927 1.284-1.395H16.64a8.843 8.843 0 0 0-5.007-1.538 8.822 8.822 0 0 0-4.997 1.538H3.783l1.284 1.395a3.909 3.909 0 0 0-1.28 2.897 3.921 3.921 0 0 0 3.923 3.919 3.917 3.917 0 0 0 2.667-1.045l1.257 1.368 1.257-1.367a3.923 3.923 0 0 0 6.59-2.875 3.9 3.9 0 0 0-1.278-2.897ZM7.711 14.476a2.653 2.653 0 1 1 0-5.304 2.653 2.653 0 1 1 0 5.304Zm3.924-2.73c0-1.744-1.27-3.243-2.947-3.882a7.625 7.625 0 0 1 2.946-.59c1.044 0 2.04.21 2.947.59-1.676.64-2.946 2.138-2.946 3.883Zm3.923 2.73a2.653 2.653 0 1 1 0-5.304 2.653 2.653 0 1 1 0 5.304Zm0-4.044a1.39 1.39 0 1 0-.002 2.782 1.39 1.39 0 0 0 .002-2.782Zm-6.456 1.392a1.39 1.39 0 0 1-1.391 1.39 1.39 1.39 0 1 1 1.391-1.39Z"/>
  </symbol>
</svg>