<svg xmlns="http://www.w3.org/2000/svg" viewBox="0 0 30 30" fill="none">
<symbol id="VK">
<path fill="currentColor" d="m26.87 20.5-.08-.15a12.7 12.7 0 0 0-2.37-2.76l-.02-.02-.02-.02-.02-.02h-.02c-.53-.52-.86-.84-1.01-1.02-.25-.32-.33-.67-.18-1.01.1-.25.48-.8 1.13-1.63.35-.44.62-.78.8-1.05 1.45-1.92 2.08-3.14 1.89-3.68l-.08-.12a.69.69 0 0 0-.38-.2 2.13 2.13 0 0 0-.8-.04l-3.61.01a.53.53 0 0 0-.25 0l-.17.04-.06.04-.06.04a.44.44 0 0 0-.13.13.46.46 0 0 0-.11.21 20.1 20.1 0 0 1-1.35 2.82c-.3.52-.59.96-.84 1.34-.2.3-.41.58-.65.84-.17.18-.33.33-.48.43-.13.11-.25.15-.32.13a3.09 3.09 0 0 1-.22-.06.89.89 0 0 1-.28-.3 1.56 1.56 0 0 1-.16-.48l-.03-.5v-.6l.01-.51c0-.33 0-.65.02-1.04.02-.36.02-.67.04-.88l.02-.69c0-.2-.01-.38-.04-.57a1.65 1.65 0 0 0-.13-.4.8.8 0 0 0-.25-.31 1.22 1.22 0 0 0-.42-.17c-.44-.1-1-.16-1.69-.16-1.55-.02-2.53.08-2.99.3-.18.1-.34.24-.48.4-.15.18-.17.28-.05.3.5.07.86.25 1.05.53l.08.16a6.01 6.01 0 0 1 .29 1.5 10.41 10.41 0 0 1-.12 2.56 2 2 0 0 1-.35.9.08.08 0 0 1-.03.02c-.11.03-.23.05-.35.05a.77.77 0 0 1-.42-.17 2.6 2.6 0 0 1-.52-.47 11.52 11.52 0 0 1-1.3-2.16l-.2-.38c-.13-.23-.28-.57-.5-1.01-.22-.44-.41-.88-.58-1.28a.81.81 0 0 0-.31-.4l-.06-.04a.84.84 0 0 0-.19-.12 1.6 1.6 0 0 0-.29-.08l-3.43.02c-.34 0-.59.08-.7.23l-.06.08a.48.48 0 0 0-.04.2c0 .11.03.23.08.34a39.9 39.9 0 0 0 4.48 7.91c.44.6.75.98.9 1.13l.35.38.3.31a13.5 13.5 0 0 0 2.16 1.53 6.9 6.9 0 0 0 3.47.88h1.44a.98.98 0 0 0 .67-.26l.06-.06.1-.23c.03-.1.03-.21.03-.35 0-.32.02-.65.08-.97.04-.23.11-.45.21-.65a1.38 1.38 0 0 1 .48-.54.32.32 0 0 1 .1-.04c.19-.06.44 0 .7.2.29.2.55.45.77.72.23.29.52.61.86.98.27.3.56.57.88.8l.25.15c.2.12.43.2.65.27.27.08.5.1.7.06l3.2-.06c.3 0 .55-.06.72-.15.18-.1.29-.21.3-.35a.79.79 0 0 0 0-.42.94.94 0 0 0-.07-.36Z"/></symbol>
</svg>
