<svg xmlns='http://www.w3.org/2000/svg' viewBox='0 0 696 830' fill='none'><symbol id='ALBV_EC_Outline'>
  <g fill="#1E2346">
    <path d="M454.6 141.7v-1l-2-2-25.1-26.2-50.3-53.3L350 32.1c-4-4-3-4-7 0a1168.4 1168.4 0 0 0-59.4 62.3l-30.2 31.2-18 18.1-2 3v1h1l2-2 26-14c13.2-6 26.2-10.1 38.3-14.1 13.1-4 26.2-5 39.3-4h18c12.1-1 23.2 0 34.3 3l20 7a218.4 218.4 0 0 1 41.3 18.1h1M234.3 674v1l3 3 38.3 41.3 62.3 70.4 7 7h3.1l1-1 20.1-22 30.2-34.3 48.3-52.3 5-5 2-2v-1h-1l-2 1a151 151 0 0 1-50.3 18l-30.2 5.1c-14 2-28.1 2-42.2 0l-31.2-5c-20.1-3-39.2-10-57.3-21.1l-5-3h-1m343-246.6-1 26.2-2 22.1-4 33.2c-3 16.1-7 31.2-13.1 46.3l-11.1 21.1-1 3v1h1l2-3 17.1-21 44.3-59.4a887.5 887.5 0 0 1 61.4-76.5v-3l-1-1-17.2-19.1a1315.5 1315.5 0 0 1-87.5-127.8c-6-10-14-19.1-21.1-28.2l-12-15-3.1-2 1 3 10 20 15.2 40.3a298 298 0 0 1 21 97.6l1 42.2Zm-417.5 167-2-4-11.1-19a182.7 182.7 0 0 1-21.1-72.5c-1.9-20.1-3.9-40.3-6-60.4a468.5 468.5 0 0 1 20-146.9l15.1-38.2c5-14 11.1-28.2 20.2-40.2l1-2 1-1h-1l-2 2a721.6 721.6 0 0 0-48.3 62.3l-21.2 32.2a1142 1142 0 0 1-47.3 67.4c-11 15.1-21 30.2-34.2 43.3-2 1-2 1 0 3l7 8 16.2 20.2A848.9 848.9 0 0 1 97.5 516l55.3 71.4 6 6 1 1m412.6-160-1-23-4-44.3a296 296 0 0 0-16.2-65.4l-20-53.3a239 239 0 0 0-18.2-35.2 650 650 0 0 0-44.3-55.4 100 100 0 0 0-39.2-22.1c-14-6-29.2-10-44.3-13a178 178 0 0 0-68.4-1.1l-54.3 15a98.7 98.7 0 0 0-29.2 17.2c-8 6-16 13-22.1 22.1L185 211.1a178 178 0 0 0-21.1 41.3l-7 18.1-12.1 33.2a316.4 316.4 0 0 0-19.1 103.6 427 427 0 0 0 2 71.5l7 34.2a233.4 233.4 0 0 0 62.4 115.7c11.6 10.8 23.3 21.6 35.2 32.2a137 137 0 0 0 53.3 28.1l26.2 6 16 3c13.2 2 25.2 2 37.3 1l5-1 29.2-6a153 153 0 0 0 72.5-37.2c12-11 23-21.1 33.2-33.2a242.6 242.6 0 0 0 62.3-130.8c4-17 5-35.2 5-56.3M678 420.4l-2 4-11 18.1a363.7 363.7 0 0 1-31.3 45.3 991.2 991.2 0 0 1-67.4 81.5L510 631.7l-38.2 44.2a3272 3272 0 0 1-73.5 84.6l-32.2 33.2-15 13c-3.1 3-5.1 3-9.1 0l-17.1-16c-35.1-34.6-68-71.2-98.6-109.7-19.1-24.2-40.3-46.3-60.4-69.4l-52.3-56.4A768.6 768.6 0 0 1 17 424.4v-8l5-8 44.3-70.5a482 482 0 0 1 43.3-56.3c15-17.1 28.1-34.2 41.2-51.3a1077 1077 0 0 1 103.6-125.8l58.4-53.3L336.9 29l8-7h3.1l3 2 42.3 38.2c13 12.1 27.1 24.2 39.2 37.3 13 13 26.2 25.1 38.2 39.2a910 910 0 0 1 80.5 102.6l28.2 36.2c27.3 28.5 51 60.3 70.4 94.6l23.2 38.2 4 7 1 3.1"/>
    <path d="m222.2 404.3-1 1 3 3 1-1c1-2 1-3-3-3m7 3v1h2.1l2-2v-1l-1-1c-3 0-3 0-3 2m119.7-1c-5 0-5 1-5 4l1 2h1l3-2c1-1 3-2 2-3l-2-1m130.8 1v3h1l5-6h-4c-2 0-2 0-2 2v1m-145.9-1c-1 1 1 2 2 2l4 4h1c1-5 1-6-5-6h-2Zm138.9-2h-4l3 3 3 3h2v-2c.7-2.7-.7-4-4-4M431.5 350l9 1 1-1v-1l-9-11h-3l-8 12h10m-15-13.1v10h2l10-10v-3l-10-13.1-2-1v7l1 5-1 5.1Zm48.2 30.2v8c0 3 1 3 3 3l7-1 5.1-1 1-2h-1l-16.1-18 1 11m-50.3-25.2v-20l-1-1.1h-1l-12 16.1 11 10 1 1 1-1 1-5Zm-3 9v-1l-16.1-12-10 10-1 1v2h27Zm-151 90.6v-23.1c0-3 0-3-3-3l-1 1c-2 0-2 0-2 2v34.2c0 3 0 3 4 4h1l1-1v-20.1m39.3 2v18.1l1 2h2c2 0 3 0 2-2l1-13v-5l1-13.2v-3c0-5-1-6-6-5l-1 1v20.1m-9 15.1v4l2 2h2c4-1 3-1 3-5v-35.2c0-2 0-2-2-2h-3l-1 2-1 34.2Zm-18.2-15v17c0 3 0 3 3 4h1c2 0 2 0 2-2v-4l1-28.2v-4c1.1-5 0-4-4-4h-2c-1 0-2 0-2 2l1 19.1m-2-1-1-15v-5.1l-6-1-1 1v39.2l1 1 5 1 2-1v-20.1m19.1 1v-20.1l-1-1h-5c-2 0-2 0-2 2v1l-1 33.2v4l2 2h4c3 0 3 0 3-3v-18m74.5-72.5v-10l-2-1.1c-2-1-3-1-4 1l-3 2-15.1 16.1c7 1.5 14 2.8 21 4 2 0 3.1 0 3.1-2v-10m70.4 0v-9c0-2.1 0-2.1-2-2.1l-14 1-2 2 1 5v12.1l17 1v-10m-40.2 0-1 8c0 3 0 3 4 3h17.1l1-2v-1l-1-14v-3l-1-2.1h-18.1c-2 0-2 0-2 2l1 9m56.3 12.1 4 1h7l1.1-2v-1l-2-19V354l-2-1h-15.1l-6 1-1 1v19.1c1 2 1 3 3 3h11m-72.4-22-11-1.1c-1 0-2 0-2 2v17.1c0 4-1.1 5 4 4l20-1c2 0 3 0 3-3v-16l-1-1-1-2.1h-3l-9 1m58.3 82.5v18.1c0 2 1 2 3 2h10.1c5 0 5 0 4-5v-20.1l1-12.1c0-2 0-2-2-2h-13c-3 0-3 1-3 3v16.1m49.2 20.1h5l2-1c0-5 2-9 0-13v-12.1l1-8v-19.2l-1-2-4 2-7 8-2 4c1 4.1 0 8.1-1 12.2v9l1 10-1 7.1c0 2 0 3 2 3h5m-70.4-19 1 18v1l1 2 2-1 11.1-1h3l1-1v-20.1l-2-18.1h-14c-2 0-3 0-3 3v17.1m-24.2 1v-17c0-2.1 0-3.1-3-3.1h-12.1c-5 0-5 0-5 4l1 26.2-1 6 2 1 15 2c2 0 3 0 3-2v-17m61.4-88.6 5-1c0-1 0-2-4-6s-27.1-26.2-33.2-35.3l-3-5h-3l-7 10a117 117 0 0 1-24.2 21.2l-16 12-3.1 3-1 1h14l3.1-2 6-6 17.1-17 7-7.1 3.1-3h4l2 3c8 9 26.2 32.2 32.2 32.2h1m-39.2 88.5 1-18v-2.1l-1-1h-2l-18.1 3v35.2c0 2 0 2 2 2l16 1c2.1 0 2.1-1 2.1-3v-17m-196.2 14h7c2 0 2 0 2-2l-1-9v-9.1l1-15.1c0-5 0-7-5-10-1-1-7-4-12-4l-2 2v10l1 6v12l-1 18.2 2 1h8m118.7 3h3l1-1c-1-5 1-10 1-14l1-7.1-1-10v-5.1c1-2 0-4-2-6l-8-7c0-1-1-2-3-2h-19.1l-28.2 1c-11 1-23.1 1-34.2-1h-6l-4 2-6.1 5-1 3-1 8v29.2c0 2 0 2 2 2l18.1 2h2l1-2 1-14v-24.2c0-2 1-3 3-3h11.1l20.1 1h7l12.1 1c3 0 3 0 3 3 .3 6.7.3 13.4 0 20.1l-1 4 1 14.1 2 1H336Zm92.6-41.2h25.1c2 0 2 1 2 3l1 3 1 21.1v13.1c0 1 0 2 2 2h14.2l2-2v-3l1-14v-9.1l-1-14.1-1-2-8-8c-1-2.1-3.1-2.1-6.1-2.1l-27.2-1h-10l-22.2 2-37.2 2h-7l-3 1-7.1 6c-2 1-2 3-2 6.1v1l-1 16.1-1 5 1 13.1c-1 1 0 2 1 2h21c2 0 2 0 2-2v-11l1-21.2c1-7 1-6 6-6l14.2-1 15 1h5l19.2-1M233.3 305.7l12-1c7.1-1 13.2-4 18.2-10 6-9 11.8-18 17.1-27.2l2-12c-2-12.2-6-24.2-13-34.3-3-4-3-4-6.1-1-12 9-21.1 20.1-29.2 33.2l-10 18.1-14.1 26.2-1 2v2h3c7 3 14 4 21.1 4m10 74.5h-13c-4 0-6 1-9 3l-16.2 14-1 1v1l3 1H347l65.4-1 17.1-1c13-2 25.1-2 38.2-1l28.2 1h2c2 0 2-1 1-2l-9-12c0-1-2-2-3-1h-5l-11.2-2h-5l-25.1 1c-13.1 1-27.2 1-40.3-1l-17-2-20.2 1c-10 2-21.1 2-32.2 3a407 407 0 0 1-60.4-2l-27.1-1m54.3-6 11-1c8.4-.6 16.9-.9 25.2-1L347 360c8-7 16-13 23.1-21a536 536 0 0 1 43.3-42.3l1-6v-6.1c-2-2-2-5-1-8l1-10.1c0-2 2-1 2-1l1 10v14.1l1 8c0 2 0 3 2 4l16.1 16.2a724 724 0 0 1 38.3 42.2l17 17.1 13.2 18.2 2 4c1 1 1 2-1 3h-5c-3 1-3 1-3 3v15.1l1 12v9.1c-2.1 4-2.1 9-2.1 13.1 0 2 1 3 3 3h9c4.1 0 4.1 0 4.1-4 2.2-27.9 1-56-4-83.5l-7-25.2a246 246 0 0 0-22.2-56.3l-21.1-37.2-9-12-7.1-8.1c-4-5-9-10.1-15.1-14.1-11-6.9-22-13.6-33.2-20.1L355 182c-5-2-9-2-13-1l-11.1 4-3 2-11 7c-4.1 1-7.1 4-9.1 7l-15.1 12.2-3 1s-1 1-1-1l1-1c5-6 11-11.1 17-14.1l5-4 4.1-3-8 2c-8 3-15.1 7-23.2 12l-12 8-2 2v1l1 1c11 10.1 15 23.2 13 37.3-1 10-4 19.1-7 29.2v1c-3 7-8 13-15.1 16l-14.1 6.1-9 3a45 45 0 0 1-30.2-2l-1-1h-3l-1 3c-7.8 25-15.2 50.2-22.2 75.5l-2 28.2 1 39.2c0 3 0 3 3 3l16.1-1h1l2-2v-11l-1-7.1v-12c2-3.1 2-6.1 2-9.1v-6c0-3-1-3-4-4.1l-4-1h-1c-2-1-2-3-1-4l1-1 7-7c5-4.1 9-8.1 15.1-11.1 3-2 6-3 10-3h26.2l16.1-1 28.2-1M347 637.6l7-1c20-4 39-11.6 56.4-22.1a236.7 236.7 0 0 0 52.3-42.3c8-8 16-17 21.1-28.1L498 514a173 173 0 0 0 14.1-48.3l-1-1h-2l-30.2 2-13-1c-15.2 1-29.3-1-43.3-2h-30.2l-28.2 2-64.4-3-29.2-2-11 1a278.7 278.7 0 0 1-59.4 0l-13-1H183l-1 1v3c2 13 5 26.1 10 39.2a400.4 400.4 0 0 0 30.2 58.4 292 292 0 0 0 101.7 70.4l12 4 11.1 1M172 413.4c-.6-21.9 2.6-43.6 9-64.4l6-21.2c8-26.1 21.2-50.3 37.3-72.4l15-18.1 15.1-18.1a157 157 0 0 1 34.2-27.2c8-5 17.1-8 26.2-11 10-4 20.1-6 30.2-7l10 1c26.3 4.1 51 15.3 71.5 32.1l21.1 21.1 17.1 22.2a219.2 219.2 0 0 1 42.3 76.4l8 31.2 5 26.2a307 307 0 0 1 0 66.4 243 243 0 0 1-20 71.4l-10.1 22.2c-5 10-11.1 20-18.1 28.1l-13.1 15.1c-7 9-16.1 16.1-25.2 23.2-14 8-27.1 16-42.2 22a139 139 0 0 1-35.2 10.1c-8.1 1-16.1 1-23.2-1a177 177 0 0 1-50.3-18l-19.1-12.1A193 193 0 0 1 191 514a224 224 0 0 1-15.1-50.3c-2-16.1-4-32.2-4-50.3"/>
    <path d="m246.4 484.8 25.1 4 19.2 4c9 2 19 2 28.1 1l25.2-4a75.8 75.8 0 0 1 35.2 2l21.1 5c11 3 23.2 3 34.2 0l20.1-5c6-2 12.1-3 18.2-2l12 2v1h-2c-7-2-14 0-21.1 2l-13 5-14.2 4.1c-9 2-19 1-28.1-1l-18.2-6c-6-3-13-5-19-6a46 46 0 0 0-20.2 1l-16 4-19.2 5c-12 2-24.2 1-35.2-4l-12-5-19.2-4c-11-1-21.1 1-32.2 6l-9 5v-1l5-3c7-4 14-7 22.1-8l13-2.1m180.2 75.4c-6 0-13.1-1-19.1-3l-18.1-4c-13.1-3-25.2-2-38.3 3l-17 6c-8.1 3-17.2 5-26.2 6.1a76 76 0 0 1-42.3-8l-13-10.1-4.1-9 1-1 3 2a87 87 0 0 0 39.3 17h30.1l32.2-6c16-3.6 32.4-3.6 48.3 0l17.1 3 13.1 2c2 0 2 1 0 2h-6m-90.6-238.4c-2-1-5-1-7-3-3-1-7-3-9-6-4-3-7.1-6-12.1-7l-10.1-6.1-11-9v-1l4 1 19 13 11.1 6a58.4 58.4 0 0 1 16.1 10.1c2 2 1 3-1 2m18.1-68.4-10-1c-5 1-10 0-15.1-1-8-3-16.1-4-24.2-5l-6 1v1h2l11 3 20.2 2 7 1 6 2c3.1 1 1 2 9.1 2 8 0 8-3 0-5Zm-139.8 68.4c-1-3-2-1-3 0-2 8-4 15.1-4 23.1l-3 12.1-3 7-1 5 1 3.1c2 0 2-2 3-3l1-7 1-6c0-4.1 2-7.1 3-11.2 3-5 4-11 5-17v-6Zm38.2-5c0-2 2-1 3 0 3 7 6 13 7 20.1l5.1 12 3 9.1 1 4h-2l-3-5-2-8-4-11c-5-6.1-6-13.2-8-21.2M378.8 578c0 .4-.3 6.8-.2 13.3-6.9.5-5.7-13.3-5.3-15 .2-1.5-4.5 1.7-6.7 3.8.7 1.3 1.7 1 3 .5-.6 6.2 3.9 11.8 9 11.7.2 6.5.9 12.6 2.7 13.1.2.1.5-6.5.6-13.8 12.3-3.8 7.6-18.4 7.6-18.4-.2-.8-2 .3-6 4 1.5 1.7 2.3.7 3.5.3 1 1.9 1.4 10.5-5 13.1l.2-18c0-.3-.2-.4-.4-.4-1.8.2-5 3.4-7.5 6.2 1.4 2.2 3 .2 4.5-.4m6 19.2 2.7 2.8 2.9-2.8-2.9-2.8-2.8 2.8Z"/>
  </g>
</symbol></svg>
