<svg xmlns='http://www.w3.org/2000/svg' viewBox='0 0 696 830' fill='none'><symbol id='ARPC_EC_Outline'>
  <g fill="#1E2346">
    <path d="m236 145.2 24-12a300.3 300.3 0 0 1 57-19 129 129 0 0 1 34 0l16-1c9 0 18 1 26 4l18 6c14 4 27 10 40 17h2l-1-1-2-2-23-24-49-52-29-29c-2-2-2-2-4 0l-1 1-38 38-67 72-3 2m2 530h-1l1 1 1 2c37.1 36.7 72.5 75 106 115 2 3 2 3 4 0l21-22 22-25c19.3-22.6 39.3-44.6 60-66l1-1h-1l-3 1c-12 7-25 12-39 15l-40 7c-14 2-27 2-41 0l-36-6c-18.8-3.3-36.8-10-53-20l-2-1m294-447v1l5 11 16 39c11 28 19 57 22 88 3 29.9 3.3 60 1 90l-3 33-5 33c-4 17-11 33-19 48l-1 4 3-3c16-19 31-39 46-60 23-32 47-63 72-93 2-1 2-1 0-3l-12-14a2148 2148 0 0 1-80-112l-16-25c-7-11-15-20-23-30l-5-6-1-1m-358-13-1-1-2 3-24 29-25 35a1164.2 1164.2 0 0 1-60 89c-12 16-23 32-37 46-2 2-1 2 0 4l23 27 39 51 58 76 11 14h1v-1l-7-11c-12-23-21-47-24-73l-4-37c-6.2-57.2-.7-115 16-170l14-37c6-15 12-30 21-43l1-1m-48 218 1 33c3 21 7 43 14 63 9 33 26 62 49 88 12 14 25 26 38 38 21.5 19 47.8 31.8 76 37 13 2 26 6 40 6 10 0 20 0 30-2l24-5c28-6 52-19 74-38l25-25a245.6 245.6 0 0 0 59-95l8-33c6-23 9-46 7-69l-3-50c-2-29-9-57-19-84l-17-45c-5-13-11-26-19-38a562.7 562.7 0 0 0-45-56c-9-8-19-15-31-19a347.8 347.8 0 0 0-71-19c-14-1-28-1-41 1-21 3-40 9-59 16-20 6-36 18-49 33-20 25-37.1 52.2-51 81l-17 44c-8 20-13 41-17 62l-6 75m552-13-2 5-30 48c-27 36-55 71-85 104l-54 58c-14 15-27 30-39 46-16 19-32 39-49 57l-43 46-23 21c-5 5-7 5-12 0l-17-15c-32-32-62-65-91-101-26-32-53-63-82-93-36-38-69-78-100-119-12-17-22-34-33-52-1-3-2-6 1-10l15-25 38-60c12-18 26-35 41-51 14-16 27-32 39-50a939.3 939.3 0 0 1 189-203c6-6 6-5 12 0l36 33a852.7 852.7 0 0 1 159 178c9 14 19 27 30 39 23 24 42 50 60 78l34 56 5 7 1 3"/>
    <path d="M514 424.2v-12c-1-15-2-30-6-45l-6-20c-5-20-13-40-23-58l-17-31a146.2 146.2 0 0 0-29-36c-10-8-20-15-31-21l-8-4-39-15c-5-1-11-1-16 1l-18 6a196.7 196.7 0 0 0-62 36c-9 8-17 17-23 28l-18 31c-8 15-15 30-20 45l-10 37c-4 13-6 27-7 41 0 17 0 34 2 51 2 16 5 31 10 45l19 39c4 9 10 17 17 25 21 24 47 42 75 56 12 6 24 10 36 12h16c16-3 31-9 46-17 22-13 43-28 60-47 9-9 16-18 22-29l10-22c8-16 14-32 17-50 2-15 3-31 3-46m8-9c1.8 37.3-5.7 74.4-22 108l-10 21c-5 9-10 19-17 27l-22 25a209.5 209.5 0 0 1-67 40c-9 2-19 5-29 6-6 1-13 1-19-1-21-3-40-11-58-21l-25-16a175.8 175.8 0 0 1-50-64l-16-36c-10.3-28.2-15-58-14-88-1-20 2-41 7-60l7-29c9-27 22-51 39-73l21-25c8-11 19-20 30-29 17.9-12 37.9-20.5 59-25h23c13 2 24 7 36 11 9 4 17 9 24 14 11 9 21 18 30 29l21 26c17 21 29 45 37 72l10 38c4 16 5 33 5 50"/>
    <path d="m358 522.2 18-3c14-3 25-10 36-20 17.2-17 29.3-38.5 35-62l-1-1-2 3a85.2 85.2 0 0 1-37 24c-7 3-14 4-21 5-18 2-35-1-50-10l-11-6c-14-8-29-14-45-17-8-2-16-2-24 0-10 2-18 6-25 12-9 8-16 18-21 29v2h1l2-2 12-5c4-3 9-4 14-4 7 0 14 1 20 5l13 9 19 14c10 7 19 13 30 18 12 5 24 9 37 9m86-135-1 7c0 2-2 2-4 1l-2-2-3-3c-1 2 1 3 1 4v13c0 2-1 4-3 5-2 0-3-2-4-3l-5-7-1-1v2l1 3 1 13-1 4c-1 2-4 2-6 1l-2-3-3-7h-1v17l-2 4c-1 2-4 2-5 0l-1-1a37 37 0 0 0-9-16v-1h1l9 7 1 1v-2l1-15c0-2-1-3 1-4 1-1 2 1 3 2l6 7 1 1v-1l-1-15v-5l3 1 1 1 7 8 2 1v-2l-3-20 1-3h3l5 5 4 3c1-2 0-4-1-6-2-10-5-21-11-30-4-6-9-11-14-15-1-2-2-2-3 0l-1 4-1 2-2 2v-3l3-16v-20a53.5 53.5 0 0 0-15-26c-2-2-2-1-4 1l-2 4-9 13-6 7-3 2h-3v-2c1-1 0-2-1-3-4-2-5-6-6-10 0-3 2-4 4-3l5 2 3 3c1 1 2 0 2-1v-2c-5.1-4-10.8-7-17-9l-1 1 3 12-2 16-4 5c-4 2-6 5-9 8l-3 5c-6 10-13 18-24 22-4 2-7 4-9 7l-4 5-10 7-5 2-5 2c-3 3-3 6 0 9l5 3c5 1 9 4 12 7 7 5 15 7 23 6 5 0 10-2 15-4l7-3c5-3 9-3 14 0l9 4c7 3 15 5 23 5l5 1 3 1-2 2h-2a39 39 0 0 1-30-2c-2-1-2-1-2 1v7c-1 9-5 17-11 24l-13 11c-2 1-4 1-5 3l5 4a78.6 78.6 0 0 0 51 7c16-3 31-9 43-20l12-12c2-1 2-3 2-5 0-11-1-22-3-32l-1-3m-86 143c-14 0-27-4-39-9-14-6-26-13-38-22l-15-12-11-7c-9-6-19-7-30-4l-12 5-5 1c-2 1-3 1-3-2v-1c4-13 9-25 19-35a65 65 0 0 1 58-16c17 4 32 9 46 17 3 2 3 1 5-1 6-4 11-9 16-15 4-6 7-11 8-18v-13c0-4-4-5-7-4l-6 3c-7 4-14 6-22 7-8 0-16-2-23-8l-12-7-5-3c-6-4-6-11-1-15l4-3 6-3c4-1 8-4 10-7 5-6 11-10 17-14 6-3 11-8 15-14l6-8c3-4 6-9 12-12l1-2v-25c0-4 1-6 5-6 7 1 13 3 17 8 3 3 3 3 6 0l7-9c3-3 5-3 9-1l1 1c14 11 21 24 19 42l-2 6 1 4a83.2 83.2 0 0 1 21 20c8 13 14 27 17 41 6 24 4 46-5 69-6 15-14 30-25 42a89 89 0 0 1-65 30m-64 2c0 3-2 5-4 5-3 0-5-2-5-5 0-2 2-4 4-4 3 0 5 2 5 4m83 64c0 2-2 4-4 4s-4-2-4-4c0-3 2-4 4-4 3 0 4 2 4 4m-167-211c2 0 5 2 5 4s-2 4-4 4-4-2-4-4 1-4 3-4m55-142c2 0 4 2 4 4s-2 4-4 4-4-2-4-4 2-4 4-4m223 189c2 0 4 2 4 4s-2 3-4 3-3-1-4-3c0-2 2-4 4-4m-55-159c0 2-2 4-3 4-2 0-4-2-4-4s2-3 4-3c1 0 3 1 3 3m17 229-3 3c-2 0-4-2-4-3 0-2 2-3 4-3 1 0 3 1 3 3m-139-191c-2 0-3-2-3-3 0-2 1-4 3-4s3 2 3 4c0 1-1 3-3 3m46 260 3 3c0 2-1 3-3 3-1 0-2-1-2-3l2-3m-82 12c-1.6-.6-2.3-2.3-1.8-3.9.2-.4.4-.8.8-1 2 0 3 1 3 2 0 2-1 3-2 3m169-256.1c2 0 3 1 3 2 0 2-1 3-3 3-1 0-2-1-2-3l2-2m-83-72-2-2c0-2 1-3 2-3 2 0 3 1 3 2 0 2-1 3-3 3m-100 38-2 2-2-2 2-2 2 2m-7 236-3 2-2-2c0-1 1-2 3-2l2 2m103-316-2-2c0-1 1-2 3-2l2 2c0 1-1 2-3 2"/>
    <path d="M406 314.2c-1 5-3 9-6 12l-3 1c-1 0-2-1-2-3v-2c-1-5-1-9-3-13-.6-2-.9-4-1-6 0-3 0-5 3-6 2-1 4 1 5 3l4 7 3 7m-55 40-4-1c-1 0-2-1-1-2l8-7 1-1c2 0 4 0 5 2 2 1 2 3 1 5s-4 4-6 4h-4m-81 92c7 0 13 2 19 5l15 8c10.1 6.8 20.1 13.8 30 21 1 2 1 3-1 3l-6 1c-3 1-6 0-8-2l-13-7-11-10-10-7c-7-5-15-7-23-7h-7l-2-1 2-1 8-2 7-1m-28.1-108.5c0 .4-.3 6.8-.2 13.3-6.8.5-5.7-13.3-5.3-15 .2-1.4-4.4 1.7-6.6 3.8.7 1.3 1.7 1 2.9.5-.4 6.2 3.9 11.8 9 11.7.2 6.4.9 12.5 2.7 13 .2 0 .4-6.5.6-13.7 12.2-3.8 7.6-18.3 7.6-18.3-.2-.8-2 .3-6 3.9 1.6 1.7 2.4.7 3.6.3 1 1.9 1.4 10.5-5.1 13l.3-18-.4-.2c-1.8.2-5 3.4-7.5 6 1.3 2.3 3 .3 4.4-.3m5.9 19 2.8 2.9 2.8-2.8-2.8-2.8-2.8 2.8Z"/>
  </g>
</symbol></svg>
