<svg xmlns='http://www.w3.org/2000/svg' viewBox='0 0 696 830' fill='none'><symbol id='CANC_EC_Outline'>
  <g fill="#1E2346">
    <path d="M452.3 140.8h1l-3-4-36.1-37c-20-22-41.1-45-63.2-66-4-3-3-3-7 0a1270.2 1270.2 0 0 0-95.3 99l-10 10-1 2 3-1 19-10c14-7 29.1-11 43.2-16 10-3 19-4 29-4l15.1 1h4l18-1c8 0 15.1 1 22.1 3l38.1 13 23.1 11m1 540.2-1-1-3 2c-13 6-25 11-39.1 14l-43.1 7c-12 2-24.1 2-35.1 0l-29.1-4-24.1-5c-13-4-26-10-38.1-17l-4-1 3 3 29 31 70.3 78 7 7h3l1-1 20-21 30.2-35c16-19 33-37 50.1-54l3-3m80.3-452.2-1 1 1 2 10 21 12 32c11 29 18 58 21 89l1.1 26c2 18 1 36 0 54l-6 52.1c-2 16-6 31-12 46l-10 21-1 4 2-3 47-61c22.7-33 46.9-65 72.3-96l-11-13c-15.1-18-28.1-36-41.2-54-13-18-26-36-37-55-13.1-23-29.2-43-45.2-63l-2-3m-360.1-13h-1l-4 5a8360 8360 0 0 0-45.2 59c-15 25-31 49-49.1 73-16 22-31.1 45-50.2 65v2c20.5 23.4 40 47.8 58.2 73 17 24 35.1 48 54.2 71l18 23c1 1 1 2 3 2l-7-12c-12-22-21-45-24-70-2.7-20.6-5-41.3-7-62a409.3 409.3 0 0 1 19-148l16-44c5-12 11-24 18-35l1-2m-48 217v8c2 30 7.1 59.9 15 89 9 31 25 59 45.1 84 14 16 29.1 30 45.1 44 15 13 33.1 23 53.2 29l24 6c22.3 5.7 45.6 6.7 68.3 3l22-4c28.1-6 52.2-19 73.3-38l26-24c27-27 47.3-59.8 59.2-96l9-36c5-21 7-42 7-64l-5-64c-3-24-8-47-17-69l-18-49c-5-12-10-23-17-34a502.8 502.8 0 0 0-41.2-53.1c-11-11-24-20-39.1-26a322.5 322.5 0 0 0-69.2-17c-7-1-14-2-20.1-1-16 0-31.1 2-46.1 6l-32.1 10a117 117 0 0 0-52.2 36l-30 40a180 180 0 0 0-20.2 39l-17 45c-11 29-17 59-20 90l-3 46M347 809c-2 0-3-2-5-3l-13-12c-28.1-28-55.2-56-80.3-86l-44.1-53-36.1-40-52.2-56a725.6 725.6 0 0 1-72.2-91.1c-10-14-18-29-26.1-43l-1-2v-6l8-14 38.1-60c14-22 29.1-42 46.2-60 16-18 31-37 45.1-57A922 922 0 0 1 299 63.7l16-13 27-25c6.1-5 5.1-5 10.1 0l45.2 39 25 23c45.4 43 86 90.6 121.4 142 12 18 26 35 41.1 51 20 22 37.1 46 53.2 72l36 57 4.1 7v7l-4 7c-13 22-27 43-43.1 63.1-15 19-29.1 39-45.2 57l-38 41-52.3 57-29 35-50.2 58L363 797l-11 10-5 2"/>
    <path d="M261.7 598v-2c-1-3-2-6-5-7l-7-7-7-3-2 1 1 1 18 16 2 1M303 206.7h1c7-2 14-5 18-11l3-5c0-2-1-2-2-2l-2 1-22 9-4 2c-2 1-2 2 0 3 2 2 5 2 8 3m211.6 199-2-19c-1-4-1-3-4-2l-2 1c-2 2-4 4-4 7v15c2 5 6 8 10 8l2-2v-8m-334 17 2 34c2 16 5 33.1 11 48.1l15 33c6.1 13 14.1 24 24.2 35 5 4 4 3 9 3 10-1 18 4 21 13l2 8c0 2 1 4 3 5l15.1 10a161.9 161.9 0 0 0 64.2 25l14-2c10-3 20.1-5 29.1-10 27.1-14 52.2-31 73.3-53 8-9 15-18 21-29l13-27c5-12 10-24 12-37 3.9-19.1 5.6-38.5 5.1-58l-1-1-2-1c-6-1-10-5-11-11l-3-11c-1-4 0-7 3-10l8-5c3-2 3-1 2-5l-1-3-7-26c-5-22-13-42-24.1-61l-18-32a142 142 0 0 0-30.1-35c-11.6-7.8-23.2-15-35.2-22-13-6.1-27-10.1-40-15.1H344l-14 4c-2 0-2 2-3 3l-4 13c-3 5-7.1 7-12.1 8l-11-1c-3-1-6-2-8-5h-4l-16.1 11a119 119 0 0 0-36.1 38l-17 31c-9.1 16-17.1 33-22.2 51-4.7 17.3-9 34.7-13 52l-3 35m343-13c0 35.6-6.6 70.8-19 104.1l-14 32a173 173 0 0 1-52.2 61c-17 12-35.1 23-55.2 30l-27 6c-7.1 1-14.1 1-21.1-1-17-3-34.1-9-50.2-17-16-8.8-30.8-19.6-44.1-32a193.8 193.8 0 0 1-39.1-55l-15-36a308.4 308.4 0 0 1-10.1-129l8-37c9-29 22-56 41.1-80l14-18 10.1-12a143 143 0 0 1 91.3-51.1l18 1c11 2 21.1 5 32.1 9a164.3 164.3 0 0 1 58.2 44l17 21c19.1 23 32.2 49 41.2 77l10 37c4 17 6 34 6 46"/>
    <path d="M325 587h3l19-7c16-8 28-20 37.1-35l5-12c4-13 4-26.1 1-40.1l-7-26c-2-6-4-12-4-18-1-6-1-12 3-18 6-9 20-9 26 1 2 2 2 4 3 7l3.1 9c1 5 3 9 7 11l3 3c3 4 4 9 3 13l-2 4-1 4c0 1 0 2 2 2l5 1c4 1 6 0 8-3l4-6 1-2c1.1-3 1.1-5-2-6-6-4-12-8-16-15l-5-12c-2-9-6-16-12-22l-5-5c-5-7-9-14-10-23v-18c2-14 0-27-6-40-3-7-7.1-14-12.1-20-4-5-6-10-6-17l3-14 4-9 3-11v-7c1-5 2-10 5-14l2-3c1-1 0-2-1-2h-1l-6-2c-3-1-4-1-6 1-2 3-5 4-9 4l-3 3 1 3 5 4c6 4 7 10 6 17-1 3-3 5-5 6-2 3-5 4-9 5-6 1-11.1-1-14.1-5l-4-8-2-6-3-6c-3-3-7-4-11-3-2 1-3 1-5-1h-4.1c-3 2-6 2-8-1l-2-2-5-2-6-1c-3 1-5 3-5 6-1 3 0 6 2 8l2 4 2 2c3 1 5 4 4 7l1 4 1 3 1 7 3 6 8 2h5l8 4c6 6 6 17 0 22l-4 3c-11 6-22 5-33-2l-5-4-3.1-2h-5c-2 2-4 3-3 6l-1 6c0 2 0 4 2 5l3 2c3 4 3 5 7 1 3-4 8-5 12-4l10 2c7.1 1 13.1 1 19.1-3a67 67 0 0 1 14-9c5-2 9.1 0 12.1 3 2 2 3 4 3 7v10c-2 6-1 11 1 17l4 8c3 6 4 11 3 17-1 4-3 7-6 9l-6 2-10 2c-4 0-7 2-10 5l-3 4-7 8a28 28 0 0 1-19.1 10l-3 1c-2 0-3 1-4 3-1 3-1 5 1 7l3 6 2 3 7 3 2-1 1-4 4-10c5-7 11-14 18-20l7-5c5-2 9.1-1 14.1 1 7 4 10 10 10 18l-1 15 1 18c0 7 2 14 5 21l5 15c3 12 4 23 3 35-2 13-8 24-17 34-8 10-19 18-30 24l-5 2M386 455l2 11 7 19c2 6 5 12 6 19 3 19-1 38-12 54-3 5-7 9-12 13a73.3 73.3 0 0 1-35.1 19l-17 3-8-1c-3.1-1-3.1-3-1.1-5l3-3 8-3c16-8 28.1-20 38.2-35 4-7 5-15 4-23-1-12-4-24-8-35l-10-30-1-22 1-10c1-4 0-7-1-10-2.1-5-6.1-6-11.1-5l-4 2c-7 5-12 12-17 18l-3.1 9-1 5c-1 2-3 3-5 3l-5-1-5-2-4-5-3-6c-2-3-2-7-1-11 0-2 2-5 4-6l7-3 10-4c4-1 7-4 10-8l3-5c3-7 9-10 16-11 2.8-.2 5.4-.6 8.1-1 5-2 7-7 5-13l-3-6-4-6c-4-6-5-12-3-18l2-8 1-7c-1-2-3-3-6-2l-5 3-5 4c-7 5-14 6-22.1 5l-8-2c-4-1-7-1-10 1l-6 4c-4.1 2-7.1 1-9.1-2l-4-5c-2-3-3-6-2-9v-4c-1-3 0-6 2-8l4-3h8l3 3c6 4 14 6 21 7 4 0 7.1 0 11.1-2 3-1 5-3 6-6 2-4 0-8-4-10h-4l-13-7c-3-3-5-7-5-11v-3l-2-2-3-2c-4-2-6-6-5-10l1-3-1-2-1-3c-4-4-4-10-1-14 4-5 10-7 15-4h1c2 2 3 2 5 1 4-3 10-2 13 2 2 3 4 3 7 3 3-1 6 0 9 2 4 2 7 6 9.1 10l5 8c1 2 3 4 6 4 2 1 5 1 7-1 4-5 5-11 0-15l-4-4c-5-5-3-12 4-13l6-4 4-2h5.1l8 2c4 1 5 4 4 8l-2 3c-2 4-4 8-3 12 0 8-2 15-5 23-3 7-3 15-1 23 1 6 4 11 8 16l6 7c7 9 10 18 10 29l-3 22c-2 6-2 12-1 18 1 2 1 5 3 6l6 9 6.1 5c5 6 8 13 9 20l2 9 3 6c2 5 6 8 10 12l4 2 4.1 1c3 2 5 5 3 10l-1 3-7 10c-3 3-6 4-10 3l-8-1h-2c-3-1-4-3-4-6l2-6c2-4 1-7-3-10-6.1-4-9.1-10-10.1-17-1-4-2-8-5-11l-4-3c-3-3-6-2-8 2l-1 2-3 15m-91.4 109-3-2-6-6c-8-11-12-23-14-36a187 187 0 0 1-1-29c-2-7-10-10-16-8-4 1-8.1 3-11.1 6l-3 4c-2 4-4 9-3 14 0 8 2 15 5 22v1l11 13c2 3 5 6 9 7l14 8c5.1 3 11.1 6 18.1 6m-1 4c-9 0-17-3-25-6l-7-5-16.1-16-8-10c-4-4-6-8-7-13v-14l3-7c3-10 11-15 22-18 11-2 21 6 23 15 1.1 4 1.1 8-1 12l-1 4c-2 4-2 8-2 13 2 16 10.1 29 22.1 39l3 3c1 1 1 3-1 3h-5m124.4-292 3 9 7 28v20l-2 14c0 4 1 8 5 11 3 3 8 4 13 4 13.1-3 20.2-13 17.1-25-1-8-4-16-9-22l-8-16c-6-10-14-18-26-23m4 51-1-26c-1-9-3-17-7.1-25l-1-1v-4h4l5 2c12 7 22 16 30.1 27l5 10c4 10 7 20 8 30v14c-2 8-8 13-17 13-7 0-12-2-18-5-4-3-7-7-7-13l-1-6v-15m-188.6 38c-3 0-7 1-10 3l-3 2c-1 3-1 6 1 9 2 4 5 8 8 10l5 3c7 1 13-2 15-9 1-2 0-4-1-6l-5-8c-3-3-6-4-10-4m-1 30h-1c-7 0-12-2-15.1-8-2-7-2-13 2-18l4-4a24 24 0 0 1 27.1 3c3 3 4 6 4 10l-2 8c-3 6-8 9-15 9l-4 1v-1m202.6 166 9-2c3-2 4-4 4-7-1-6-3-11-6-15-2-4-7-4-10-3-4 3-8 9-6 14l2 9c1 3 4 4 7 4m18-16-4 12c-5 6-14 10-24 5-2-1-3-4-4-6v-5l2-8c2-8 7-13 16-12l3 1c7 1 11 6 11 13m-179.5-95c0-4-1-7-3-9s-4-3-7-2-5 3-6 7c0 5 3 10 8 12 3 1 5 0 7-3l1-5m-8-14c7 0 13 6 14 12l-1 4c-1 4-4 6-8 8h-5c-8-1-14-12-8-19 2-3 5-5 8-5"/>
    <path d="m369 246.8-2-1c-1-1-2-3-1-4 3-2 6-4 10-4 1 0 2 1 2 3-2 2-4 5-8 6h-1m-71.2 183 1-2 1-2 2 2 1 2c1 3 2 7 5 9v1l-1 1c-5-1-9-6-9-11m-22-110c0-2 1-4 3-5 2 0 4 1 3 3v7l-2 2-2-1-2-6M430.3 484l-2-1-1-2 1-2 5-2 2-1c1 0 2 1 1 2 0 3-3 6-6 6M217 432.4c0 .4-.3 6.8-.2 13.3-6.8.5-5.7-13.3-5.3-15 .2-1.4-4.4 1.7-6.6 3.8.7 1.3 1.7 1 2.9.5-.4 6.2 3.9 11.8 9 11.7.2 6.4 1 12.5 2.7 13 .2 0 .4-6.5.6-13.7 12.3-3.8 7.6-18.3 7.6-18.3-.2-.8-2 .3-6 3.9 1.6 1.7 2.4.7 3.6.3 1 1.9 1.4 10.5-5 13l.2-18-.4-.2c-1.8.2-5 3.4-7.5 6 1.3 2.3 3 .3 4.4-.3m6 19 2.7 2.9 2.8-2.8-2.8-2.8-2.8 2.8Z"/>
  </g>
</symbol></svg>
