<svg xmlns='http://www.w3.org/2000/svg' viewBox='0 0 696 830' fill='none'><symbol id='CFAC_EC_Outline'>
  <g fill="#1E2346">
    <path d="m453.6 140.3-4-5-35.2-37A1399.6 1399.6 0 0 0 346 31l-2 1-43.3 44.1-38.2 42.2-23.2 23-3 4-1 1 2-1h1c9-6 19.2-12 30.2-16l36.2-13 21.2-3H359c14-1 28.1 1 41.2 6l16.1 5c12.9 4 25.4 9.5 37.2 16M348 796.1l1-1 8-9 20.2-22.1 50.3-56.2 24.1-26 2-2v-1l-3 2c-15 8-31.2 13-47.3 16l-28.1 5c-13 2-26.2 2.3-39.3 1l-40.2-6c-16.1-3-31.2-8-45.3-15l-14-8h-1l1 1 3 3 27.1 29 71.4 80.3 9.1 8 1 1m325-378-2-2-16.1-19c-33-42.1-63.6-86-91.6-131.4-9-14-20.1-26.1-30.2-38.1l-1-2v3l11 22 14.2 36.1a310.2 310.2 0 0 1 18 79.2 479 479 0 0 1 1 103.3l-5 40.1c-2 14-6 27-11 40.1-3 9-8 17-12 26l-1 2 3-2 32.1-42 40.3-53.2 36.2-46 13-15.1 1-1M175 212.5h-1l-2 3-22.1 26a559.6 559.6 0 0 0-32.2 45.2A731.6 731.6 0 0 1 56.2 376 313 313 0 0 1 23 417v2l6 7 25.2 31.2c16.1 19 30.2 38 44.3 58.1 18.1 25 37.2 48.2 56.3 72.2l3 3h1v-1l-2-2-12-22a181 181 0 0 1-18.1-60.2l-4-34a397.4 397.4 0 0 1 18-183.6l14.1-35c5-13.1 11.1-26.1 19.1-38.2l1-2m-50.2 219.6a252 252 0 0 0 7 63.2l8 34a229.3 229.3 0 0 0 53.4 92.3l30.1 29a154.5 154.5 0 0 0 69.5 39.2c15.4 3 30.8 5.7 46.2 8 12.8 1 25.7.3 38.3-2l8-2c8-2 17.1-3 25.2-6 23.1-6 42.2-17 60.3-32.1l23.2-22 16-17.1a244 244 0 0 0 49.4-89.2 464.3 464.3 0 0 0 14-90.3 577.9 577.9 0 0 0-21-137.4l-19.2-49c-5-12.1-10-23.1-17-34.2-9.1-14-19.2-27-30.3-41-6-8.1-14-15.1-22.1-22.1a93.8 93.8 0 0 0-31.2-17l-36.2-11.1-29.2-5-13-1H341l-6 1-16.2 2a287 287 0 0 0-74.4 25c-12.1 7-23.2 16-31.2 27.1L188 208.5c-10 14-18 30-24.1 46.1l-14.1 37.1A360 360 0 0 0 126.7 400l-2 32.1M347 21h1l4 3 41.3 37.1a880.3 880.3 0 0 1 155 174.5c10 14 21 28 33.1 41a462.2 462.2 0 0 1 56.4 75.3L672 407l6 9v8a444.4 444.4 0 0 1-54.3 79.3 853 853 0 0 1-68.4 80.2L510 632.6l-38.2 43.2c-17.2 21-33.2 42-51.4 61.1L382.2 777l-19.1 19-11 9.1v1c-4.1 2-5.1 3-9.1 0l-12.1-11-34.2-34.1c-21.1-22-41.3-46.1-61.4-70.2l-32.2-39.1-42.2-46.1c-39.3-42-76.6-85.9-111.7-131.4-11-14-20.1-30-29.2-45.1l-3-7v-6l8-14 40.3-62.2c13-20.1 27.2-39.2 43.3-57.2l26.1-30 21.1-30.2a1077.7 1077.7 0 0 1 155-169.4L342 25l4-3.1 1-1"/>
    <path d="M471.8 373h2l-2-3h-1l-1 2v1h2m-245.5 0c1-1-2-3-3-3l-2 3h5m6-89.3-4-3-4-5h-2v1l-12.1 22v1c-1 1 0 0 0 0l2-2c6-6 19.1-13 20.1-13v-1m254.5 17-1-1-13-25c-1-1-1-1-2 1l-5 6-3.1 3 3 1 13 8 6.1 6 1 1h1M257.5 569.5c1-2 4-5-2-4l-4 1h-16.2c-2.6-1-5.3-1.5-8-2v1l1 1 17 17s1 1 12.2-14m-34.3-209.6c0 3 2 7 4 9s4.1 2 6.1 1c4-4 6-8 5-13l-4-8v-2l2-1-2-1c-2 0-2-1-1-3 0-2-1-3-3-3s-2 1-2 3c1 2 1 3-1 3h-1v5c-2 2-4 6-3 10m233.4-1c0 4 2 7 4 9 4 5 7 3 9-1v-1l2-7c0-3-1-7-3-10v-2l1-2h-3l-1-2v-3l-3 1v2l1 1-1 1h-4l1 2c2 1 2 1 1 3l-4 9m8 211.6 4-5c2-1 0-1 0-1l-9 2h-16.1l-7-1-1 1 14 17c2 3 11-9 15.1-13M273.6 250.6c5 0 9-1 14-4l8-3v-1l-12-4c-13-3-27.2-2-40.2 4l-3 3-5 8c-1 1 0 1 1 2h3c4 0 7-1 10-3 4-3 10-4 15.1-3l9 1m153-14-10 1-16.2 5v1l7 3c6.1 3 12.1 4 19.2 3h8c3-1 6 0 9 2l4.1 2c4 2 8 2 12 2l1-2-5-8-3-2c-8-4-17-6-26.1-7m21.1 21c-2 0-12 1-17.1 3-10 3-18.1 8-24.1 17a54 54 0 0 0-9.1 18.1h1l10-5 5.1-1c4-2 8-4 12-8l4.1-5c4-3 8-5 13-6l3-1 7.1-2 8-8-1-1-10-1h-2m-212.3 1v1c2 4 6 8 11 9l7.1 2c5 1 9 3 12.1 6l4 5c4 4 9 6 14.1 8l5 1 8 5 2.1 1v-2l-5-10a45 45 0 0 0-23.2-22c-6-3-13-4-20-5h-5.1l-10 1m31.1 50c-2-8-5-14-8-20a95.5 95.5 0 0 0-18.1-20c-3-1-5-3-6-5l-2.1-4-5 8c-2 2-1 4 0 6 1 3 4 6 7 8 5 2 7 6 9 11l3 7c1 4 4.1 7 7.1 9l4 5c3 2 5 5.1 6 8.1l2.1 6s0 2 0 0c1-4 2-7 1-19m163 19h1v-1c1-7 5-12 10-16s8.1-9 10.1-14l2-6c2-4 4-6 7-8.1l3.1-3c3-2 5-4 6-7v-5l-4-7c-1-2-1-2-2 0-2 4-5 6-8 8l-3 3-5.1 5c-6 6-11 14-14 22-6.1 16-3.1 25.1-3.1 29.1M209.2 532.4c-3 0-3 1-2 3l4 7 9 16c1 1 3 2 4 1l10.1-1h12l9.1 1 5 1c2 1 3 1 3-1l1.1-1c4.5-8.3 9.6-16.3 15-24l-2-1-32.1 2c-7 1-14.1 0-21.1-1l-15.1-2m209.2 1-3 1 1 2 13.1 20 2 3 3 2 9-3h17.2l9 1c4 1 4 1 6-2 5.2-7.6 9.5-15.6 13.2-24l-1-1h-2l-15.2 2c-7 1-13 2-20 1l-32.3-2M265.5 429a431 431 0 0 0 23.1-2l-1-12c-.8-10-1-20.1-1-30.1-2-6-6-10-12-10h-7c-11.2 2-22.2 3-32.3 2l-2 1 1 5 2 13-2 18-2 8c0 8.1-1 8.1 7 7l13.1-1 13.1 1m156-54c-6 0-10.1 3-12.1 8-2 6 0 26-2 40v6h23.1c10.4-1.2 20.8-1.2 31.2 0l2-2v-1l-2-12c-2-5-3-11-2-17l1-9 1-10-1-1h-1c-12.7-1.3-25.5-2-38.3-2m-181 151.4 13 1 9 1 19.2 2 3-1c5-7 10-13 14.1-21.1 1-1 1-1-1-1h-9c-9.1 0-18.2-1-26.2-3-11-2-21.1-2-31.2-1l-16.1 1a88.8 88.8 0 0 1-21.1-3l-1 1v2l8 18c3 7 2 5 8 6l12.1-1 19.2-1m168-19h-11.1c-1 0-2 0-1 1l15 21 2.1 1 5-1 20.2-2c10-1 20-2 30.1 0l20.2 1c2 0 3-1 4-3l8-17 2-5c0-1 0-2-2-2l-1 1c-12 2-25.1 2-37.2 1-9-1-18.1-1-27.2 1l-27.1 3m-132.8-10h11l1-1-1-18 1-26.1 2-12v-4c0-4.1 0-4.1-4-5.1h-6l-12 1-14.2 1-13-1h-4c-4.1 0-4.1 0-4.1 4l1 10c2.7 16.4 2.3 33-1 49.2 0 1 0 2 2 2h1c7 1 15.1 2 23.2 1l17-1m166 2 12.1-1 8-1c1.1 0 2.1-1 1.1-2l-1-14a110 110 0 0 1 0-36.2l1-10c1-3 1-3-2-3h-5c-6 1-12.1 2-17.1 1l-21.2-1h-10l-2 1v7c2 9 3 19 3 29.1v26l1 2h4l15 1 13.2 1m-8-128.3 22 1h3l-1-3-2-3c-2-4-2-8 0-12l-1-3c-2-2-5-3-8-3h-22.1l-13.1-1-27.2 3-16 1-19.2-3h-2l-12 2h-25.2c-5-2-10-2-16.1-2h-45.3c-3 0-5 1-7 3-1 1-2 2-1 4 2 3 1 7 0 11l-2 3-1 2v1h36.2l26.1-1c13.7-1.8 27.6-1.8 41.3 0h10l12-1c11.2-1 22.2-1 34.3 1l26.2 1 10-1M385.2 428l15.1-1v-2a194 194 0 0 1-2-41.1c-1-4-3-7-8-8l-7-1-28.3-1h-14l-29.2 1-6 1a9 9 0 0 0-9.1 9v28l-1 12-1 2 2 2 27.2-1a328 328 0 0 0 43.2 1l18.1-1M347 501.4l42.3-2 8-1c2 0 2-1 2-3l-1-15v-11.1l2-20 1-7v-8l-2-1.1h-3l-9 1-23.2-2H340l-17.1 1c-9.1 1-18.2 1-27.2 0l-1 1-1 3 2 11 2 21.1v9l-1 13-1 5 1 2h3l11 1c12.2 2 25.2 1 36.3 2m1 4.1h-2l-24.2 1h-16a2886.5 2886.5 0 0 1-35.3 51.1l-16 20-5 8.1v3l5 3a304.4 304.4 0 0 0 64.3 38.1c7 3 15.1 4 22.2 6l3 1c6 0 11 0 16-2l6.1-2c9-2 17.1-5 25.2-9 13-6 26.1-14 38.2-23l15-11 2.1-2v-1l-1-1c-6-10.1-13-20.1-21.1-29.2l-1-1-13.1-19-17.1-28.1c0-1-1-2-3-2h-6l-31.3-1h-5m-94.6-249.7 10 3c11.2 3 19.2 8 26.2 16a68 68 0 0 1 11.1 23.1v3l-3-2-1-1c-2-2-5-3-8-3l-5-1c-6.1-1-11.2-3-15.2-8l-6-6c-5-6-6-7-14.1-8h-1v1l3 3c6 7 11 14 14.1 21 5 12 6 24.1 2 36.1l-1 2h-1l-1-3-1-4c-2-6-5-10-9-13l-4-2c-4.1-4-7.1-8-8.1-13l-1-7-2-5c-1-1-2-2-3-1l-7.1 3-21.1 18-4 8-8.1 20-8 32.1c-4.9 19-7 38.6-6.1 58.2 0 22 2.7 43.8 8 65.2 1 3 1 3 3 3h13.1l19.2 2 1-2-2-17v-12.1l3-26a47 47 0 0 0-1-26.2c-2-6-1-13 0-20l2-13c1-4 1-4-4-4h-6c-1 0-2.1-1-1-2l3-4c1-3 2-3 1-10-1-4.1 0-6.1 2-9.1l2-2v-2c-1-2-1-3 1-3h1l1-1v-2c-1-2 1-4 3-4 3 0 4 2 4 4v2l3 1 1 1-2 3s0 2 2 1l2-2 5-1 19.2-2 13 1h27.2l17.1-1c4-1 9.1 0 14.1 1h22.2l6-1c7-1 15 0 22.1 1h33.2l9-1 20.2 1c3 0 5 1 8 4h2v-1l-1-2c-1-1 0-2 1-2 3 0 2-1 2-3s2.1-4 4.1-4c2 0 4 2 4 4v3h2l1 2c-1 1-2 1-1 2l1 2 1 1c2 3 3 6 2 10 0 1-2 4 0 6 1.8 2.3 3.5 4.6 5.1 7l-1 2h-9c-2 0-2 1-2 2l1 3 1 8c2 9.1 2 18.1 0 27.2-2 6-2 12-1 18l3 21 1 15.1-2 24c-1 1 0 2 1 1l16-1H503c3 0 3 0 4-3l1-2c8-39.7 8.6-80.4 2-120.3l-9-32-7-18.1c-1-5-4-10-8-13-6.3-6.3-13-12-20.2-17l-5-2c-2-1-3 0-3 1a35 35 0 0 0-3 10c-1 6-5 12-10.1 15-7 5-11 10-12 18 0 4-2.1 4-2.1 4l-1-1-1-1-2-14c-1-8 2-17 6-24 4-8.6 9.5-16.4 16.1-23.1h-3c-2 0-8 3-11 6l-7.1 8c-4 5-10 7-16.1 8l-5 1c-3 0-5 1-7 3l-3.1 2-2 1v-3l1-3 5-11c5-10 13.1-18 23.2-23l12-3 7-2v-1c-4-2-8-3-13-2l-8 1c-6 1-12.1 0-17.2-4l-2-2-5-3.1-1-1 1-2 4-1c6-3 13.1-5 21.2-5 8-1 16 1 24.1 4l4 1c1-1-1-3-2-4l-5-6-15.1-13-17.1-11.1c-5-4-12-7-18.1-10-12.1-6-25.2-10-38.3-14-5-2-10-2-15 0l-12.1 4a243 243 0 0 0-39.3 17l-18 12c-10.1 6-18.2 15-25.2 24v1l4-1c6-3 13-5 21.1-4l10.1 1c5 1 11 2 16 5l3.1 2.1-9 6c-5 4-11.1 5-17.1 4l-8.1-1c-4-1-11 2-13 2-1 1 1 1 1 1M523 411a302 302 0 0 1-19.2 103.3c-8.6 17.9-17.7 35.6-27.1 53.2l-19.1 23a258.2 258.2 0 0 1-64.4 42.1c-12.1 4-25.2 8-37.2 9-8.1 1-16.1 1-24.2-1a180 180 0 0 1-54.3-21l-17.1-10a192.6 192.6 0 0 1-59.4-72.2l-14-33.1c-5.1-13-8.1-27-10.1-40.1-4-22-5-44.1-4-66.2 0-10 2-20 4-30l8-32.2a229 229 0 0 1 51.3-94.2l15.1-18 5-6 26.2-22.1 14-7 21.2-9c9-3 18.1-4 28.2-5 12.7.2 25.2 2.5 37.2 7 10.2 4.6 20.3 9.7 30.2 15 12 9 24.1 18 34.2 30l9 11 10.1 13.1c22.4 28 38.2 60.5 46.3 95.3 5 15.2 8 31 9 47.1l1 18"/>
    <path d="M348 485.2h8c2 0 2 0 2-2l1-11c-2-8-1-15-1-22l1-5c0-2 0-2-2-2l-5-2-2-1h-4l-2 1-6 2-1 2c0 7 .3 14 1 21l-1 7v10c0 2 1 2 2 2h9m-23.1 2h-3c-2 0-2-2-1-2h6c7 0 5 1 7-6v-36c0-2 1-3 3-3l6-3H353l6 3c2 0 2 1 2 2v2l1 10v29c1 2 1 2 3.1 2h7c5 0 6 3 0 2H325m22.1 9h4l32.2-1 5 1-6 1-19.1 1H332a348 348 0 0 1-20.1-3l35.2 1m1-6h35.2c2 0 3 2 0 2h-63.4c-12 0-12-2-3-2H348m35.2-22c-3.5-4.6-6.8-9.2-10-14l1-3h4l2 3 6 14c0 2 0 4-3 0m-62.4-11-9 12 4-14 1-3 1-1h3c1 0 3 2 0 6M354 409v-14c-3-2-4-4-5-6h-2l-5 6-1 3v23l2 1h10l1-2v-11m-15-9c0-2 0-2-2-2l-3-1 1-1 1-1 10-9h4l10 9 1 1v2h-4v23c0 3 0 3-3 4h-13c-2-1-2-1-2-4v-21m-16.1 7c0 3-2 3-3 3l-3-2-2.1-5-6-11c-1-1 0-3 2 0 4 3 10 10 12 15m51.4-2c3-5 6-10 11-14h2l-1 2-7 13c-2 4-5 5-6 4-2-2 0-5 1-5m2-41-10-2-5.1-2c-1-1.1-4-3.1-3-4.1h5c6 2 12 3 19.1 3l17.1-2 7-2c12.3-2.2 25-.4 36.3 5v1l-4-1-13.1-3c-8-1-17.1-1-25.2 2-4 0-7 2-11 3l-13.1 2m-97.6-10 13 2 3 1a84 84 0 0 0 35.3 0l6-1c1-1 3 0 1 1l-4 3-11 4-15.1-2-13.1-4c-11-3-22.2-2-33.2 1l-8 1 3-1c8-3 15-4 23-5m166 115.3v-14l-6-6h-1l-5 6-1 2v23l1 2h11l1-2v-11m-16-10-1-1-2-1s-1 0 0 0v-2a418 418 0 0 1 14-9l11.1 9 1 1-1 2h-3v24l-2 2a47 47 0 0 1-14 0c-2.1 0-3.1-1-3.1-3v-22m-163 11v-12l-1-3-5-6-6 6-1 3v23l1 1h11l1-1v-11m-16-11-1.1-1h-2l-1-1 2-2 13-9 2 2 9.1 10h-1c-2 0-2 0-2 3v21c0 2-1 3-3 3h-13c-2 0-3-1-3-3v-23m182-42.1 1 2 12-2V395c0-1 1-2-1-3l-5-7-6 6-1 3v23m-3-21-1-1c-3 0-3-1-2-3l11-9h3l11.1 9c1 1 2 2 1 3h-4v24l-2 2-8 1-6-1c-2.1 0-3.1-1-3.1-3v-22m-176 22 1 1h10l2-1v-23l-1-3-5-6h-1l-6 7v25m16-10v11c0 2-1 3-2 3h-13c-3 0-4-1-4-4v-22l-1.1-1h-2l-1-1 15-11 1 1 10.1 11c-3 0-3 2-3 3v10Z"/>
    <path d="m342 449.1-1-1 1-1h1c3-1 11-1 11 1s-10 2-12 1m7.3 136.3c0 .4-.3 6.8-.2 13.3-6.8.5-5.7-13.3-5.3-15 .2-1.4-4.4 1.7-6.7 3.8.7 1.3 1.7 1 3 .5-.5 6.2 3.9 11.8 9 11.7.2 6.5 1 12.6 2.7 13 .2.2.5-6.4.6-13.7 12.3-3.8 7.6-18.3 7.6-18.3-.2-.8-2 .3-6 4 1.5 1.6 2.4.6 3.6.2 1 2 1.4 10.5-5.2 13.1l.3-18c0-.2-.2-.3-.4-.3-1.8.2-5 3.4-7.5 6.1 1.4 2.2 3.1.2 4.5-.4m6 19.2 2.8 2.8 2.8-2.8-2.8-2.8-2.9 2.8Z"/>
  </g>
</symbol></svg>
