<svg xmlns='http://www.w3.org/2000/svg' viewBox='0 0 696 830' fill='none'><symbol id='GMAV_EC_Outline'>
  <g fill="#1E2346">
    <path d="m235.3 147.4 2-1a158 158 0 0 1 34.2-17l27.2-10c13-4 26.2-6 39.2-5h21.2c14-1 27.1 1 40.2 5l16.1 6c13.3 4 26 9.5 38.2 16l-3-4-48.3-50.2L351 34c-4-4-3-4-7-1l-43.3 44.2-43.2 47.2-20.2 21-2 2m0 527.9 3 3 22.2 24 75.4 83.4 10 11c1.1 1 1.1 1 3.1-1 32.7-38.8 67-76.3 102.6-112.4l2-3c-1-1-2 1-3 1-13 7-26.1 12-40.2 15l-40.3 7c-12 2-24.1 2-36.2 1l-38.2-6c-16.1-3-31.2-8-45.3-15l-13-8h-2M531 226.7v1l7 14 15.1 38.2c18.6 43.8 27.2 91 25.2 138.5l-1 39.1-6 48.2a179.4 179.4 0 0 1-23.2 70.2l-1 3 3-3 16.1-21 41.3-54.2c20-28.6 41.1-56.4 63.4-83.3l-17.1-19-26.2-35.2a913.5 913.5 0 0 1-49.3-72.3l-16.1-25-29.2-37.2-1-2h-1m-356.1-13-3 2-29.2 36.1a295 295 0 0 0-34.2 51.2l-35.3 50.2c-16 22-31.1 45.1-50.3 65.2v2l6 7 25.2 31.1c17.1 20.1 32.2 42.2 48.3 63.2l52.3 67.3 3 3h1l-2-3-12-22.1c-8-17-14.1-34.1-17.1-52.2l-4-29c-2-17.1-4-34.2-4-51.3-1-26 1-51.1 4-76.2 3-22.1 8-43.2 15-64.2l17.1-43.2a170.7 170.7 0 0 1 19.2-37.1m-50.3 219.7v3c0 17.1 1 34.2 5 51.2l5 26.1a237 237 0 0 0 55.3 105.4c10.1 12 21.2 22 32.2 33.1a157 157 0 0 0 71.5 39.1l33.2 7h3c9 1 18.1 2 27.2 1l18-2 6.1-1 29.2-7c23.1-6 43.2-18 61.4-34l26.1-25.2a244 244 0 0 0 59.4-95.3l9-39.1c6.3-25.6 8.3-52 6-78.3l-5-49.2c-3-25-9-49.2-18-72.2L534 254.8c-5-12-10-24-18-35.1-9.1-16-20.2-30.1-31.3-44.2-15-18-32.2-31-54.3-39.1l-45.3-12c-22.2-4.6-45-5-67.4-1-18 3-36.2 8-53.3 15-11 3-21.1 9-29.2 16-9 6-16 14.1-23.1 22.1a567.3 567.3 0 0 0-42.3 63.3l-8 22-17.1 43.2c-5 14-8 28-11 42.1a788 788 0 0 0-9.1 86.3M347 22l2 1 3 3 39.3 34.1a917.1 917.1 0 0 1 157 177.7l31.1 38a625 625 0 0 1 58.4 76.4l35.2 58.2 5 7v6l-2 3a518 518 0 0 1-44.3 67.2l-40.2 50.2-48.3 53.2-48.3 53.2-35.2 42.1A1475.4 1475.4 0 0 1 367 793.7l-14 13h-1c-4.1 3-6.1 3-10.1 0l-11.1-10-21.1-21a1360 1360 0 0 1-80.5-90.4 1174.8 1174.8 0 0 0-74.5-84.3A1249.4 1249.4 0 0 1 40.1 461.5l-23.1-37v-6.1l4-8 32.2-51.2c18.5-27.4 38.4-53.8 59.4-79.3 14-16 27.1-33.1 39.2-50.2A948 948 0 0 1 342 26l4-3 1-1"/>
    <path d="M402.3 414.4h3l1-1c0-3 0-4-3-3l-3 1v2l1 1h1m-125.7 17c0-2-1-3-3-3l-2 1 1 7 1 1c2 1 3 0 3-2v-4m2 6 1 1c1 0 4 2 4 0v-7l-1-1c-4-1-4-1-4 3v4m124.7-31 4-2v-6l-7 4c-2 1 0 6 3 4m58.4 91.3c-.7-2.7-2.3-3.8-5-3h-3l-2 2c2 6 0 6 7 5l2-1 1-1v-2m-244.5-13v-4.1h-4l-1 1-1 9h6v-6M337 430.4c-5 0-5-1-4 5v1l1 1h7l2-2v-1c0-2.7-1.2-4-4-4h-2m62.4-9c0 6 0 5 5 6l2-1v-9l-1-1h-5v1l-1 5m-140.8 60.2v2c0 1 0 2 2 2l3-1c6-1 5 0 5-6 0-2 0-2-2-2h-5c-3 1-3 1-3 4v1m92.5-52.2h-3c-2 0-3 0-3 3 0 5 0 5 5 5l6-1v-6l-1-1h-4m-58.3 0h-3l-2 1v6l2 1h4c4 0 4 0 4-4 0-5 1-4-5-4m7 0v7l1 1 9-1 1-1v-6h-11m114.7 8c6 0 5 1 5-6 0-2 0-2-2-2h-4c-4-1-4 0-4 3v1c0 2.8 1.3 4 4 4h1m13 0h4.1l1-1v-7h-9l-1 1v2c0 6-1 5 5 5m-149 38.2h-1c-7 1-6 0-6 6l13.1-1c0-6 1-5-5-5h-1m142.8 27c0 5.1-1 5.1 5 4.1l1-1c6.1-1 5.1 0 5.1-6 0-3-1-3-3-2h-4c-4 1-4 1-4 5m15-2v1c0 2 0 2 2 2l6-1c6.1-1 5.1 0 5.1-6l-2-2-8 1c-3 0-3 1-3 4v1M253.3 396.3h-1c-8 5-15 8-23.1 11-1 0-2 0-2 2l3 1h2c5-1.8 10-3.9 15-6l6.1-7v-1M365 429.4l-6 1-1 1v6l2 1c3.3-.2 6.7-.5 10-1v-6l-1-1-4-1m-44.3 8h3c5 0 4 0 5-5v-1l-2-1h-8c-6 0-5-1-5 6l1 1h6m60.4-7h-5c-2 0-2 0-2 2v5l1 1c4.3-.2 8.7-.5 13-1v-5c0-2 0-2-2-2h-5m24.2 7v-6l-1-1h-13.1c-2 1-1 9 1 8l13-1m-158 41.2h-5c-3 0-3 0-3 3v6c0 2 0 2 2 2l7.1-2c7-1 6 0 6-7 0-2-1-2-2-2h-5m164 22h-6c-3 1-3 1-3 3l1 7.1 1 1 11-2c5-1 4 0 4-5v-3l-1-2-7 1m-187.1 28-1-2-8.1 1-1 2v15.1l1 1 8-2 2-2-1-13m4-39.2h7.1l1-1v-8l-1-2h-13l-2 2v8l2 1h6m194.2-76.2h13l7-5v-1c-9 0-17 0-25-2h-2c-3.1 0-5.1 2-5.1 5v2l2 2 10-1m-30.1 88.3h-8l-1 2c.2 3.7.6 7.3 1 11l13-2c2-1 3-1 3-4v-5c0-2-1-2-2-2h-6m-120.8 26v7l2 1.1 10.1-2 2-2-1-12-2-1-9 2c-3 0-3 0-2 3v4m108.6-18.1v-5l-1-2-16.1 4-1 2v9a433 433 0 0 0 16-1c2.1-1 2.1-1 2.1-4v-3m-40.2 6v6l2 1 17-5v-8c0-2 0-2-2-2l-7 2-9 1-1 2v3m81.4-88.3h10.1c1 0 2 0 2-2v-8l-2-1-14-1-7.1 2c-1 2-2 5-1 8 0 2 0 2 3 3l9-1m-194 106.4v7c0 1 1 2 2 1l14-2c2 0 2-1 2-2v-11c0-1 0-2-2-2l-15 2-2 1 1 6m101.6-23-6 1h-6c-2.1 1-2.1 1-2.1 3l4 12h1c5-1 17.1-2 17.1-5v-10l-1-1h-7m-60.4 18v-2c0-6 1-6-5-5h-2l-12 3c-2.1 0-2.1 0-2.1 2l3 12 16.1-2c2 0 2-1 2-2v-6m15.1-71.3v-14c0-2 0-2-2-2l-7-1c-2 0-2 0-2 2v29l1 1h8c3 0 3 0 3-2l-1-13m29.2 63.2v-6l-2-2-6 2-14.1 2c-2 1-2 1-2 3v11c0 2 0 2 2 2l8-2 12-2c2-1 2-1 2-3v-5M329 413.4v-11c0-2-1-3-3-3-1-1-2 0-3 1l-8.1 7-2 4 1 12v2l1 1 14-1v-12m-30.1-5-9-1c-2 0-2 1-2 2l1 9v7c-1 2 0 2 2 2l14-1h5l1-1v-14c0-2 0-2-2-2l-10-1m86.5 19h10l2.1-2v-19c0-2 0-2-2-2l-18.1-2h-1l-1 2-1 17-1 4c0 1 0 2 2 2h10m-72.4-20 7-7v-1h-25.1c-10 0-21.1-2-31.2-4.1l-5-1c-2 0-2 2-4 4l-3 5 6 1c18.5-.6 37 .4 55.3 3m-65.4 14.1v-13l-1-1-14.1 5-1 1v25l1 2c5-.5 10-1.2 15-2v-17m143-20h6l2-1 8-6.1v-1l-22-1-17.2-2c-15.2-.7-30.3-2.3-45.3-5l-19 6-2 1h1l6 1 15 2 18.2 2 37.2 2 12 2M352 427.4h15.1l3-1 1-1v-22l-2-2h-2l-25.1-2h-7c-2 0-3 1-3 3l1 22c0 2 0 2 2 2l17 1m96.6 14h-8c-5 0-5-1-5 4v35.2l1 9c0 3 0 3 3 2 5 0 18-1 21-3 3.1-1 2.1-14 2.1-18l-1-6c-2-7-2-15.1-1-22.1l-1-2-11 1m-243.6 17v-12c0-1 0-2-2-1h-1c-6 2.7-12.6 4-19.1 4-1 0-2 0-2 2l1 5c2 20 7 39.2 15 58.2l9.1 19s1 2.1 1 0v-30c2-8 2-16-1-23.1v-6l-1-16m44.3 35-6-1-9 1-21.2 3-1 3 2 23.1c0 3 0 3 3 2l12-2 28.3-6 24.1-3c3 0 3 0 3-3v-20l-2-1-1 1c-10 2-21.1 3-32.2 3m-8-20.1h8l17.1-1c2 0 2 0 2-2v-17l1-24.2v-2l2-1h10.1l2-1v-17c1-1 0-1-1-1h-3c-10 .2-20.1.5-30.2 1v14l1 16c1 6-1 8-6 8h-2c-10.1 0-19.2 2-29.2 1-2 0-2 0-2 2v2.1c2 6 2 12 2 19v2l1 2h3l24.2-1M383.2 600l-30.2 1c-21 0-42.2 4-62.3 12l-3 1v2l2 1c17 10.2 35.8 17 55.3 20.1 5 1 11 0 16-1 10.1-3 21.2-6 30.3-11a328 328 0 0 0 41.2-27l-11 1-38.3 1m-22.1-157.6-18.1-1h-53.4l-2 1v61.2l1 7c0 2 0 2 2 2l26.2-3 15.1-3c12-3 25.2-4 37.2-5l25.2-3 21.1-4 14.1-1c2-1 3-1 3-4v-20.1a87.2 87.2 0 0 1 0-26.1c0-2 0-2-2-2h-32.2l-37.2 1M234.3 572.9l16.1-2 35.2-8 38.3-9c16-3 33.2-4 49.3-4 40.7-1.6 80.8-10 118.7-25.1l4-3 6-16.1 1-1-1-1-2 1-21.1 5-22.1 1c-12.1 1-23.2 2-35.3 5l-19 3c-7.1 1-15.2 3-22.2 6l-8 3c-14.1 6-29.2 9.1-45.3 9.1l-23.2 1-23.1 2-30.2 6-31.2 8c-2 0-2 1-1 2l13.1 15.1 3 2m155-18h-9.1c-20.4-.4-40.7 2.3-60.4 8l-37.2 12c-10 3-19.1 5-29.2 6l-10 1h-1l1 1 2 2c10 10.1 22.1 18.1 33.2 25.2 2 2 4 2 7 1a323 323 0 0 1 88.6-20.1l49.3-6 30.1-5c3-1 5-2 6-4l10.1-11.1c7-7 16.1-24 17.1-25l-2-1-2 1a175.4 175.4 0 0 1-93.5 15m98.5-249v-1l-4-9-20.1-35a145.2 145.2 0 0 0-33.2-40.2 525.4 525.4 0 0 0-36.2-23c-13.1-6.1-26.2-10.1-39.3-14.1-5-2-10-2-15 0l-19.2 6c-18.2 6-35.3 15.1-50.3 27-14 9.1-25.1 21.2-33.2 35.2L213.2 294l-4 9c-1 1-1 1 1 2 3 0 7 0 11-2l13.1-8 13-10c5.1-3 10.2-5.1 16.2-4.1l11 1c2 1 4 0 6.1-1l7-5c8-5 17.1-10 25.2-17l5-1 6 3 11.1 6h3l6-6 12.2-12.1 4-4c3-2 5-2 8 0l3 2 5 5c4.1 6 10.1 9 17.2 10 5 0 8 3 11 6l6 6 13.2 15.1 7 7c2 3 2 3 6 0l13.1-7c5-2 10-1 15.1 2l2 2 20.1 13h1M515 422.5c0-11 0-22-2-33.1l-4-19c-4-15.1-7-30.2-12.1-44.2-1-3-3-5-5-6-9-5-17.1-11.1-23.2-20.1l-5-6c-4-4-6-4-10 0l-12.1 10c-3 3-6 6-10 7l-13.2 6-7 3-3 1h-1v-1l4-4 14-11c2-1 2-1 0-3-5-4-10-9-13-14l-6-10.1-6-8c-2-4-5.1-5-10.1-5h-1c-6 1-11.1-1-16.1-6l-4-5-3-4.1c-2.1-2-3.1-2-5.1 0l-4 3-6 7c-3.1 4-6.1 7-10.1 9-2 1-2 2 0 3l17 14.1c2 1 6.1 3 5 5-1 2-5 0-7-1-9-3-17-7-23-14a62 62 0 0 0-16.2-12c-2-2-2-2-4 0l-11 11-18.2 15-4 2-11 10-3.1 5.1-2 2c-1 2-2 0-1 0v-3c1-5 3-10 6-14l1-2v-2l-11-2-7 1-4.1 2c-9 6-19.1 11-27.2 19-4 3-8 5-13 5-2 0-4 1-5 4l-7.1 20.1-8 32.1c-3 11-5.1 21-6.1 32.1-.2 14.8.5 29.5 2 44.2l4-1 13.1-3 25.2-1h1c2 0 2-1 2-2v-2c-1-8-1-16.1 0-24.1l-1-1-6-2v-1l4-4c7-5 15-8 23.1-12.1 6-2 11-3 18.1-3l19.1 2c5 1 10 0 15.1-2l22.2-7c4-1 9-2 13-1l36.2 3c14 2.4 27.7 5.4 41.3 9-3 1-4 4-3 7 0 1 0 3 2 3 2-2 5-2 8-2l13.1 1 12 1c2.1 0 4.1 0 4.1 2 1 2-2 3-3 4l-8 5c-2 1-3 2-2 5v5.1l-1 11c-1 2 0 2 2 2h23c2.1 0 4.1 1 5.1 3l2 5v16.1c-2 8-1 16 0 24.1l1 10v2c0 2 1 2 3 2h1l31.2-5c2 0 3-1 3-3l4-15c3.1-18 4.1-36.1 4.1-54.2m-342-7c0-13 0-27.1 3-40.2a243.9 243.9 0 0 1 61.3-133.4l13.1-16c23-27.8 55.7-45.6 91.6-50.3h15c18.2 3 35.3 10 51.4 18.1l22.1 17 16.1 16.1 19.1 24.1a219 219 0 0 1 42.3 76.3l10 38.1a290.6 290.6 0 0 1-14 150.5l-14.1 30.1a174.3 174.3 0 0 1-51.3 61.2 240.1 240.1 0 0 1-54.4 29.1c-9 3-18 6-28.1 7-8.1 1-16.1 0-24.2-1a175 175 0 0 1-65.4-28 200 200 0 0 1-61.4-68.3l-17-40.1a290.2 290.2 0 0 1-15.2-90.3"/>
    <path d="m335 476.6-1-6c-1-1-1 0-2 1l1 10c0 1 1 2 1 0l1-5m72.4-3v-4l-1-2-2 2v7l1 3c1 0 2-1 2-3v-3m-67.4 5v-6l-2-1-1 1-1 10 1 2h1l1-1 1-5m30.1-2-1 4 2 2c2 0 2 0 2-2-.2-3.7-.5-7.3-1-11l-2 1v6m39.3-3v3c0 3 0 3 3 3 2 0 2-1 2-2l-1-10c-3-1-5 0-4 3v3m-17.1 2v4l1 1 7-1 2-1v-9c0-1-1-2-2-1l-7 1-1 1v5m-25.2-2v-2c0-1 0-2-2-1l-6 1-2 2v9l2 1 6-1c1 0 2 0 2-2v-7m8 2v5l2 2 13.2-3v-8l-2-1h-13.1v5m-33.2 3-1 5 2 2 11-1c1 0 2 0 2-2a354 354 0 0 0-2-10l-10-1c-2 0-2 1-2 2v5m50.3-13h8l2-1v-9c0-2 0-2-2-2l-5 1h-19.1l-1 1v10l1 1h3l13-1m-24-4v-5c0-1-1-2-3-2l-5.1 1-12.1 1-4 1-5-1c-2 0-2 0-2 2 .2 3.2.5 6.6 1 10l10 1 15-2h3.1l1-1 1-5m-18 26H346c-5 0-8-1-12-3-2 0-3.1-1-3.1-3l2-14 2-2v-8c0-3 0-3 3-4l9.1-1.1 9 1 11.1-1c2 0 3 1 3 3v10l1 2 2-2v-9c0-4 0-4 4-5l9.1-1h9l7.1 1c2 0 2 1 2 2v8c0 4 0 4 3 4h7.1l2 1v12.1c0 2-1 3-3 4l-4 1-14.1 1-29.2 2-16 1m1-79.2c3 0 5 3 5 6 0 2-2 5-5 5-3.1-1-5.1-3-5.1-6 0-2 2-5 5-5m35.2 12c-3 0-5-2-5-4 0-3 2-5 5-5 2 0 5 2 5 5 0 2-2 4-5 4m-87.5 0c-1 0-2-1-2-3l2-2c2 0 3 1 3 3 0 1-1 2-3 2m124.8 2c0 1-1 2-3 2-1 0-2-1-2-3 0-1 1-2 3-2 1 0 2 1 2 3m30.8-75.7c0 .4-.3 6.9-.2 13.4-6.8.5-5.7-13.4-5.3-15 .2-1.5-4.4 1.6-6.6 3.7.7 1.3 1.7 1 2.9.5-.5 6.3 4 11.9 9 11.8.2 6.4 1 12.5 2.8 13 .2.1.5-6.5.6-13.7 12.2-3.8 7.5-18.4 7.5-18.4-.2-.8-2 .3-6 4 1.6 1.6 2.4.6 3.6.2 1 2 1.4 10.6-5.1 13.2l.3-18c0-.3-.2-.4-.4-.4-1.8.2-5 3.4-7.6 6.1 1.4 2.2 3.2.2 4.5-.4m6 19.2 2.8 2.8 2.8-2.8-2.8-2.8-2.8 2.8Z"/>
  </g>
</symbol></svg>
