<svg xmlns='http://www.w3.org/2000/svg' viewBox='0 0 696 830' fill='none'><symbol id='KANC_EC_Outline'>
  <g fill="#1E2346">
    <path d="m454.3 140.2-3-4-28-29L391 73l-40-41c-3.1-3-2.1-3-5.1 0l-1 1a1381.7 1381.7 0 0 0-57.2 59l-23 24-24.1 26-2 2-1 1h1l2-1c10-6 20-12 31-16a377.8 377.8 0 0 1 53.2-15H347l5 1 18-1 22.1 3 21.1 7c14 4 27 10 40.1 17h1M348 796l1-1 12-11 15-17 9.1-11 19-21 24.1-27.1 24.1-26 2-2-4 1c-14 8-30 13-46.1 16a1617 1617 0 0 1-49.2 7c-9 1-18 0-26-1l-27.1-4-26.1-6c-12-4-24-9-35.1-16l-2-1h-1l2 2 16 17c14.5 14.6 28.5 29.6 42.1 45l18.1 22 13 14 11 12 8.1 8m200.6-218.2 1-1 36.1-46 38.1-52.1 30.1-38 18-21v-3.1l-5-4-19-24c-18-23.9-35.5-48.3-52.2-73.1l-24-37-13-19.1-24.1-30c0-1 0-2-1-1v2h1l10 23 12 30a359.7 359.7 0 0 1 22.1 117.2l1 20-1 21v6l-3 27-4 34.1c-1 10-3 20-6 29-4 13-10 25-16 37.1l-1 2v1m-390.3 12v-1l-1-2a262.7 262.7 0 0 1-26-58l-6-42.1-2-17a327.8 327.8 0 0 1-3-70.1c1-11 1-22 3-32l4-26c2-18.1 8-35.1 14-52.2l15-39c4-11 10-22 16-32l2-4-3 3-24 29c-9 11-18 23-26 36-10.1 18-21.2 35-33.2 52.1l-37.1 51c-7 9-14 19-22 27.1l-4 5-1 2h1l22 27 43.1 56.1 27.1 37 32.1 40.1 8 9 1 1m-32-156.2a315 315 0 0 0 19 109.2c12.1 32.2 31 61.5 55.2 86l21 20.1a167 167 0 0 0 79.3 43c12.7 2.2 25.4 4.5 38 7a277 277 0 0 0 34.2-2 924 924 0 0 0 49.1-12c20-8 38.1-19 53.2-33l24-24a263.8 263.8 0 0 0 73.3-188.3v-20l-2-29a436 436 0 0 0-20-95.2l-16.1-41c-5-13-11-26-19-38-14-19.9-29-39-45.2-57.1-8-8-18-14-28.1-19a177 177 0 0 0-41.1-13c-11-3-21.1-5-32.1-6l-11-1H338l-23.1 3c-23 5-45.6 12.3-67.2 22-13 8-24 18-33.1 29a481.7 481.7 0 0 0-47.1 75l-16.1 42.1a365.4 365.4 0 0 0-22 91.2l-1 24-2 27M348 809l-4-2-10-9-29.1-29-7-7-30.1-33.1-30.1-36-35.1-42.1-15-16-26.2-28-29-31.1A879.1 879.1 0 0 1 27 438.5l-8-13-1-2v-7l9-15 32.1-52a475 475 0 0 1 46.2-62.2l20-23 19-24 33.2-45A1209.5 1209.5 0 0 1 347 22h3l3 3 22 20 19.1 17c27 23.9 52.7 49 77.3 75.1 24 25.8 46.2 53.2 66.2 82.2l18 25c8 12 17 22 26.1 32 18 20 34.1 41 49.2 64.1l44 70 4.1 7.1v4l-1 3c-13 23-27 45-43.1 65l-25.1 32.1c-11 14-21 27-33.1 39l-37.1 41.1-18 19-34.2 38.1-26 32a3110 3110 0 0 1-61.2 69.1L364 797l-11 9.1-3 2-2 1"/>
    <path d="M181.5 424.5a238.2 238.2 0 0 0 15 85.1c7.8 17.2 16.5 34 26.1 50l12 13.1a217.8 217.8 0 0 0 60.2 46l24.1 11 18 5a41.5 41.5 0 0 0 26.1 0c12-3 25.1-8 36.2-14l13-8c19-11 36.1-25 52.2-41 8-9 15-18 21-28 8.2-18.9 15.9-37.9 23-57.1 7.4-27 9.8-55.2 7.1-83.1l-4-28-9-33c-4-16.1-10-31.1-18-46.2l-18.1-33-5-9c-9-14.3-20.6-27-34.2-37l-16-11-15-9c-13.1-6-27.1-10-40.2-15.1h-11l-8 2-25.1 9c-11 4-21 9-31.1 16l-9 6-17 14-10.1 13-7 10-10 16.1a401.3 401.3 0 0 0-31.2 68.1l-9 32c-3 13-5 26-5 39l-1 17.1m342-9v16a292 292 0 0 1-13 70.1l-10 24-9 18c-5 11-11.1 21-19.1 31.1l-13 15c-8 9-17.1 16-27.1 23l-27.1 15c-13 6-27.1 11-42.2 14l-20 1h-6c-17-4-34.1-9-50.2-18l-22-13c-10-6-18.1-13-26.1-21a255 255 0 0 1-31.1-42l-18-39a209.2 209.2 0 0 1-15.1-70.2 294.2 294.2 0 0 1 2-65 603 603 0 0 1 11-46.1 235 235 0 0 1 43.1-79.1l17-21 12.1-13a229.7 229.7 0 0 1 33.1-25 180 180 0 0 1 53.2-16.1h6c12 1 24 4 35.1 9l9 3c9 4 17.1 9 24.1 15 9.7 8.3 19 17 28.1 26l12 14c26.4 31 45 67.7 54.2 107.2l7 31 2 19v17.1"/>
    <path d="M422.2 501.6c0-6-1-12-4-17-4-10-11-18-19-26h-2l-3 5v1l5 4c8 5 13 13 15 23 1 4 2 9 1 14-1 9-4 17-10 24l-7 8-14 12-9.1 8c-4 4-7 9-8 15.1l-1 3h1l1-2c3-7 8-11 13-15l20-15c7-5 12.1-11 15.1-18 3-4 4-8 5-12l1-12m-186.5 0 1 15c.5 11 2.9 21.8 7 32h1l1-1c2-6 6-11 10-16l11-14 5-7c6-7 13.1-13.1 22.1-15.1l5-2c9-2 19.1-6 27.1-12l8-6c8-5 16.1-7 25.1-6h10c5 0 10-2 14.1-4 8-4 14-10 16-19 2-7 2-15 0-22l-2-8.1v-12l5-14 6-16c2-6 2-14 3-21 0-9 3.1-16.1 9.1-23.1l7-8 10-11 5-6 10.1-9 2-1v-2l-9-1c-8-1-17 0-26 1-12.1 1-23.2 4-35.2 7l-15 6c-19.5 9.9-40 17.6-61.2 23-7 1-13 0-18-5-7.1-5-7.1-4-13.1-5-3 0-7-1-9-3l-8-4-7-5c-3.1-1-6.1-1-9.1 1v2l3 2v2l-1 1-2 1 1 1 4 2 6 1 4 2c5 3 6 9 2 13l-3 2-2 2c-2 0-3 2-4 3l-2 5-2 3c-3 6-10 7-14 1l-2-4-4-6c0-1-1-3-2-2l-1 2v1h-3l-2-3h-1c-2.1 4-2.1 7 0 10l6 6c5 4 9 9 10 15 2 5 4 9 8 12s6 7 7 12l1 10-2 16.1c-2 16.2-5.4 32.3-10 48l-3 33.1m-7-1 2-23 1-7 3-17 5-24 4-30.1 1-2c0-4-2-7-4-9l-4-2c-4-3-6-7-6-11a26 26 0 0 0-9-18l-5.1-4-4-5c-2-5-1-10.1 2-15.1 2-2 3-3 6-3 3-1 6 0 8 3l3 6 1 5c1 3 3 5 6 5s5-1 7-4l2-2c1.1-3 3.1-5 5.1-6l1-2 2-1c3-5 1-11-5-12l-7-1h-4c-5-3-7-9-4-14 4-4 10-7 16-5 3.7 1.3 7.1 3.3 10 6 4 4 10 6 16 6h4.1c4 0 8 1 10 4l4 3c3 2 6 3 9 2l10.1-3 40.1-16 5-2 12-4 27.2-9a354 354 0 0 1 34-4c8 0 15.1 1 23.1 4l3 3c2 2 1 4-1 5l-8 6-7 8-16 18-7 8c-4.1 5-5.1 10-4.1 17l1 8c2 7 1 15-2 22l-5 10-5 10c-3 5-4 10.1-3 16.1l2 9c1 7 1 15-2 21l1 4 13 13 8 13c3 7 4 13.1 4 20.1l-3 16c-3 8-7 15-12 21l-13 12-16 12-6.1 4c-5 5.1-8 10.1-9 16.1l-1 2v1c-2 1-4 1-4-1-2-8-1.4-16.4 2-24 2-4 4-8 8-11l8-5 15-13c6-5 11-11 13-18 2-9 2-17.1-1-26.1a33 33 0 0 0-14-17l-5-2-4 2c-6 3-12 4-18 4h-10c-6 0-10.1 2-14.1 5l-9 7-8 7c-8 5-16.1 7-25.1 8h-7c-6 0-11.1 3-15.1 7l-7 10-11 15-5 5-8.1 14v1c-1 3-4 3-6 2l-3-3c-4-7-7-14-8-22l-2-15-1-14"/>
    <path d="M481.4 381.5v-5a88 88 0 0 0-8-24c-3-6-9-8-15-6-7 2-11.1 6-13.1 13-2 6-1 11 4 16l1 2c6 5 9 12 11 20 2 7 0 14-4 21l-4 7-3 8c-2 8-1 15 1 23h1l13-17 6-8c2-3 3-7 3-10v-6c-1-4 0-8 1-12l3-6c2.1-5 3.1-10 3.1-16m4 2-2 19-7 24c-3 8-8 15-14 21l-9 12v1h-2l-1-2-2.1-6c-2-11-1-21 2-31l4-14 2-13c0-5-2-10-5-14l-7-7-3-4c-5-8-3-17 5-22 5-4 11-5 18-4 4 1 7 2 9 5l4 6c4.1 7 6.1 15 7.1 24l1 5M332 291.3l6-1c6-1 11.1-2 16.1-5 11-5 20-13 26.1-24l2-3h-1a59.3 59.3 0 0 1-31.1 5c-6-1-12-4-17-7l-9-8-8.1-6c-3-2-5-3-9-3-8 0-15 4-19 12-2 3-2 7-1 11 1 3 2 5 6 5l5 1c5 1 8 3 10 8l2 4c1 3 4 6 8 8s9 3 14 3m1 2c-10 0-19-3-26-11l-3-4-7-4-4-1c-8-2-10.1-7-10.1-14 0-6 3-11 7-15 5-4 10-6 15-7l9.1 1c7 2 13 4 19 9l8 6c7.5 5.6 17 7.7 26.2 6 6-1 12-2 18-5l1 1v1c-1 4-3 9-6 12a67.2 67.2 0 0 1-38.1 24l-9 1M309 567.7c0-2-2-4-4-5-3-2-10 0-12 3s-3 7-2 11c1 5 6 9 11 8 3 0 5-2 6-4l1-4v-9Zm7 6-2 6c-1 3-4 5-7 6-5 2-11 1-15-3l-5-10c-1-3 0-5 2-7l6-4c4-3 9-3 13 0l6 7 2 5m57.2-54-1-3c-2-3-9-3-11 0l-1 3 2 5c1 2 2 3 4 3s4 0 5-2l2-6m-5 10c-4 0-7-2-9-4-2-1-2-4-2-6 1-4 3-7 7-7 4-1 8 0 10 4l1 2c3 6-1 10-5 11h-2m62.1 50c0-4-2-5-5-7-1 0-3 0-4 2-4 4-1 9 3 10 3 1 5-1 6-4v-1m-5-9c2 0 5 1 8 4 2 2 3 5 1 7-2 3-5 5-9 5s-8-4-8-9l1-3c1-3 3-4 7-4M331 435.5c2 0 1-1 1-1l-3-2-15-6c-3 0-6-2-9-4l-13-12a153.2 153.2 0 0 1-19.1-17l-1-1v2c4 8 9 15 14 21 4 4 9 7 14 9l14.1 7c5 3 16 4 17 4Zm-24-85-1 1 3 3 16 11 17 13c2 1 4 4 5.1 7l2 3 7 11 2 2h1v-2c-2-6-4-12-9-16l-6-8c-4-8-10-13-17-17l-16.1-7-4-1Zm-37.1-14.1-3 8-10 12-6.1 3h-3v-1l2-2 6-5c3-2 5-5 6-8l3-5 2-3 2-1 1 2m17.1 5c0 3-2 2-2 1l-4-4-1-2v-2l2-1 2 2 3 6m-28 34 1-1-1-1c-2-2-4-3-7-3h-1.1c-1 0-2 1-1 2l2 2 7 1Z"/>
    <path d="M459.3 362.4v1h-2c-1-1-3-3-3-5v-2h3l2 6M303 257.3v-2l-4-4h-3l-1 3 2 3c1 0 5 2 6 0ZM459.5 500c0 .4-.3 6.8-.2 13.3-6.8.5-5.7-13.3-5.3-15 .2-1.4-4.4 1.7-6.6 3.8.7 1.3 1.7 1 3 .5-.6 6.2 3.8 11.8 9 11.7.1 6.4.8 12.5 2.6 13 .2.1.5-6.5.6-13.7 12.3-3.8 7.6-18.3 7.6-18.3-.2-.8-2 .3-6 4 1.6 1.6 2.4.6 3.6.2 1 2 1.4 10.5-5.2 13.1l.3-18c0-.2-.2-.3-.4-.3-1.8.2-5 3.4-7.5 6.1 1.4 2.2 3.1.2 4.5-.4m6 19.1 2.8 2.8 2.8-2.8-2.8-2.8-2.8 2.8Z"/>
  </g>
</symbol></svg>
