<svg xmlns='http://www.w3.org/2000/svg' viewBox='0 0 696 830' fill='none'><symbol id='MPAC_EC_Outline'>
  <g fill="#1E2346">
    <path d="m346.5 31.7-2 2-45 45-10 11-21.1 23-25 26-4 4-1 1h2c11-7 22-12 33-16a715 715 0 0 1 48-14c9.7-1 19.5-1 29.1 0h26l23 5 30.1 11 18 9h1l-2-4-11-10-27-29v-1l-23-25-36.1-35-3-3m103.2 649.7-4 2c-13 7-28 11-43.1 14l-27 5a149 149 0 0 1-48.1 1l-31-5c-20-3.3-39-10.5-56.2-21l-2-1 1 2 23 24 12 13 21.1 24 19 21 26 29 6.1 6 8-8 11-12 4-4 23-26 20.1-23 28-31 4-4 5-6m83.2-449.5 1 2 5 11 19 48c10.2 26.3 16.3 54 18 82.1a684 684 0 0 1 1 77.1v2l-2 17-4 35a180.5 180.5 0 0 1-20 64.1l-3 4 2-1 21-27 20-27 18.1-24 29-37 20-26.1 10-11 2-2-2-3c-9-8-16-18-23-27a1413 1413 0 0 1-69-99.2c-6-10-12-21-20-30l-21.1-27-2-1m-362.6-12h-1l-7 8-17 22c-8 9-15 19-21 29-12 20-24 39-38.1 57l-35 50.1c-8 11-17 22-27 32v1l7 8 16 20.1 27 35 36 47.1c12 18 26 34 39.1 51l6 6-1-2-12-24c-5-10-9-20-12-31-4-15-5-30-7-46l-2-17-2-29.1v-42l1-12a977 977 0 0 1 9-59.1l12-36c8.1-20.5 16.5-40.9 25-61.1l4-7M569.8 421l-1-17-1-14a1128 1128 0 0 0-9-58.1l-9-30-19-49.1c-5-15-13-29-22-42l-20-29c-7.1-9-15.1-17-23.1-24.1-9-8-19-13-29-18l-39.1-12a192 192 0 0 0-51.1-7l-9 1-24 3a370.4 370.4 0 0 0-60.1 18c-16 8-28 19-39.1 32a461.8 461.8 0 0 0-47 72.1l-11 29a503 503 0 0 0-22.1 72.1l-4 28-2 24-1 14c-1 11-2 22.1-1 33.1v9c0 9 1 17 3 26l6 29a224.6 224.6 0 0 0 31 74.2c9 15 20 29 32 42l20.1 20 10 9c18.4 15.5 40 26.7 63.1 33l28 6 10 2 26.1 1 18-2 18-4 19.1-5c19-5.2 36.8-14.4 52-27l25.1-22c9.6-9.4 18.6-19.4 27-30a256 256 0 0 0 51.1-118.1c3-16 5-32 5-48l-1-21.1Zm108.2-1-2 5-14 24a3314 3314 0 0 1-64.1 85.1l-21 25-24 26-23.1 25-21 23.1-9 10-22.1 26-28 34-19 21.1-16.1 19-33 35-13 13-16 14.1-3.1 2c-2 2-5 2-7 0l-10-9c-21.8-22-43-44.4-64.1-67-8-8-15-16.1-21-25.1l-20-23-26.1-31-21-24-22-23.1-30.1-32L83 519.1l-34-44c-9-12-17-25-24-38.1l-8.1-13v-8l11-18a1557 1557 0 0 1 67.2-100l26-29 20-25.1a1289 1289 0 0 1 62.2-83l19-21.1 30-32 7-8 22.1-20 29-26.1 17-16 14-12 3.1-3c2-1 3-1 5 1l10 9 22 20 24 21 40.1 38 27 30 22.1 25.1a656.9 656.9 0 0 1 45 60l21.1 28.1 16 19 24 28A558.8 558.8 0 0 1 635 350l37 59 4.1 8 2 3"/>
    <path d="M363.5 370c-4 0-7-1-10-3l-6-7-5 5-5 4-7 2 5 7c2.7 4.8 5 9.8 7 15l3 8 2 8c2-15 8-27 16-39m-83.1-106 1 2 14 17c3 4 6 6 11 7l8 3c8 3 14 9 18 17l3 8 6 9 2 1c1.1-4 0-7-1-10-1-10-4-19-10-26-6-9-14-14-23-19-9-4-18-7-29-9m134.2 0c-13 2-24 6-34 12-5 2-10 5-14 9-5 6-9 12-11 19-3 7-5.1 14-5.1 22l1 2 1-1 7-10 3-8c3-7 7-12 14-15l10-3c6-2 10-5 14-9l7-10 7.1-8m44 62-4-4c-5-4-11-8-17-10-10-5-20-6-31-4-15 2-28 8-40 17l-12 9-1 1c2 2 4 2 7 3 6 1 12 0 18-5l3-3c6-5 12-7 19-7l14 2 17 2 9-1h18m-117.1 9-2-1-10-8-10-7-19-8c-11-4-21.1-5-32.1-3-13 3-23 9-32 17l-1 2h23l18-1 12-2c8-2 15 0 22 5l3 2c5 5 11 8 18 7l8-2 2-1m11.1-152.2 2 4 8 12a73 73 0 0 0 42 28l28.1 10 18 7 1 1.1-1-2-7-9-16-14-14-10c-11-8-22-13-34-17l-23-9-4-1m-109.3 61 3-1 9-4 11-4 31.1-11c10-3 19-9 27-17 6-6 11-14 16-21l1-2h-3l-30 11-23 11c-10.1 7.5-20.1 15-30 23l-8 9-4 6M465.6 431l-11-22-12-27a72 72 0 0 0-62.1-35l-12-1.1h-8l-8-2v1c5 10 13 15 24 15 6 0 12 1 17 4 5 4 11 5 16 6l5 1c9 1 16 6 20 14l4 12 5 16c2 5 5 10 9 14 4 3 8 6.1 14 7.1l-1-3Zm-123.1-87h-3l-6 2-19 1c-7 0-13 0-19 2-12.1 3-23.1 9-32.1 18-7 8-13 17-17 27l-7 16c-4 8-7 16-12 23.1v1a31.2 31.2 0 0 0 23-20l5-18 5-11c3-7 9-12 16-14l6-1c7-1 14-2 19-6 5-3 10-5 16-4a26 26 0 0 0 24-14.1l1-2m-60 267.3 2 1 8 5c15 8.9 31.2 15.3 48 19h13.1c8-2 17-4 25-8 12-4 22-10 32.1-16l2-1-1-2c-2-7-6-13-9-20-5-10-11-18-19-27l-14-17c-10-12.1-17-25.1-21.1-40.1l-1-2-2 4c-3 12-9 23-16 33l-20 24-12 15c-5 7-8 16-12 24-1.1 2-3.1 5-3.1 8M370.5 315l3-1 15-7a70.3 70.3 0 0 1 76.2 15c3 2 5 5 7 9l1 2-2 2h-6c-8-2-15-1-23 2l-12 3c-6 2-12 2-18.1 0l-10-4-6-2c-5-1-10 1-12 7h2l22 5c16 6 29 16 40 30 6 7 10 16 14 24l9 23 7.1 14.1c2 3 2 4-1 4h-3l-13-2c-8-2-14-7-20-13l-10-16-7-12a28.1 28.1 0 0 0-17.1-15c-7-3-14-6-19-12l-6-3c-2-1-3-1-5 1l-5 6c-4 7-7 14-8 21l-4 18c-3 10-5 20-5 30a223 223 0 0 0 7 52 237.8 237.8 0 0 0 29 60.1l17 20c7 8 13 16 17 25l1 1 1-1c10-6 19-14 28-22l10-11c8-8 14.1-17 19.1-27l10-20a185 185 0 0 0 19-81.1c0-13 1-27-1-41l-3-22a1178 1178 0 0 0-13-49.1c-6-16-13-31-22-46-4-7-8-13-14-19l-6-5a70 70 0 0 0-21-12.1l-24.1-7-19-7c-17-7-30-18-38-35l-3.1-9-2-1-2 5c-3 9-8 17-15 24-10 9-21 16-34 19l-19.1 6c-11 3-22 7-32 14l-5 4c-5 5-11 10-15 17-12 18.7-21.4 39-28.1 60l-9 31.1a299 299 0 0 0-4 102.1l10 36c8.3 19 18 37.5 29 55.1 5 7 11 13 18 19 8 8 17 16 27 22l1 1 6-10 20.1-25a164 164 0 0 0 34-57c11.6-28.7 14.4-60 8-90.1l-7-30c-2-7-5-12-9-18l-4-4-3-1-6 4c-5 5-10 8-16 11l-5 1c-5 2-10 5-13 9l-4 7-7 13c-3 7-8 13-13 18-5 4-10 7-16 9l-13 2h-4.1l-1-3 3-4 9-21 10-23a89 89 0 0 1 72.1-49.1h2l-2-2c-4-6-8-7-13-4l-7 3c-7 3-14 4-22 3l-16-5-16-2-9 1h-2c-2 0-3-1-2-3l5-8c11-12 25-20 43-22 12-1 23 0 34 4l17 9 3 1c-2-5-5-7-10-8l-5-2-8-2c-5-2-9-4-11-9l-5-9a64.4 64.4 0 0 0-18-27c-1-1-1-2 1-3l3-1 12 2c10.1 3.3 20.1 7 30 11 14 7 24 17 31.1 31l3 4 1-3c7-14 17-25 32-32 10-5 21-8 32.1-11l10-2 2 1c3 0 3 2 2 4l-4 3-11 16-4 10c-4 9-10 15-20 17l-7 1-6 3-4 5m-198.4 82 3-25a612 612 0 0 1 19-65c12.5-29 30.1-55.5 52.1-78.1l12-13c6-7 14-13 21.1-18 7-5 14-8 21-11 14-6.2 28.9-10.3 44.1-12 25.4 1.5 50 9.8 71.1 24l15 12c8 7 14 15 21 23l15 17c18.4 22.4 32 48.3 40.1 76 5.4 15.7 9.5 31.8 12 48.1l3 21v27l-1 18.1c-1.2 16.5-4 33-8 49-4 13-9 25-15 36.1l-8 19c-5 10-11 19-17 27l-18 21c-7 7-16 14-25 20-9 6.1-19.1 11.1-30.1 16.1-11 6-22 9-34 12l-7 1c-9.1 2-17.1 1-25.1 0-15-3-30-8-44-15l-37.1-22-21-21-14.1-17c-6-8-10-16-14-25l-11-23.1a217.2 217.2 0 0 1-19-80.1l-1-42Z"/>
    <path d="m286.4 469.1-3 3c-3 5-7 8-13 11l-8 4-7 4c-6 4-9 9-11 16-1 5-1 9 1 13 2 5.1 5 7.1 10 7.1 6 1 12-2 17-6 6-5 10-12 12-19 2-5 3-9 2-14v-19Zm1-11 1 3c3 7 4 14 3 22v1l-4 23c-2 6-4 12-9 16-7 6.1-15 9.1-24 7.1-5-1-9-3-12-7-3-6-5-11-4-18 1-5 3-9 8-13l4-3 6-2c12-5 20-14 27-25l3-4h1Zm120.2 12v24l1 3c2 9 6 16 11 22 5 6.1 11 8.1 19 8.1 6 0 10-3 11-9 2-5 1-10-1-15-3-6-7-10-12-13l-11-6c-6-3-17-14-18-14Zm0-12 2 3 7 9c6 8 14 14 23 17 4 2 8 4 11 8 5 5 6 11 5 17-1 5-3 10-7 14.1-3 2-6 4-9 4-14 2-24-4-29-14-2-4-4-8-4-13l-4-17v-14l3-11c0-1 0-2 2-3m-60.1-197.3 8-17c3-5 2-9-1-14-3-4-8-5-13-1-4 3-5 9-3 14l8 17 1 1m0 10-2-2c-4-7-8-13-9-21l-2-8-1-6c0-8 3-10 9-12h10c6 2 9 6 8 12v4c-2 10-5 20-10 29l-3 4m-2.9 311.8c0 .4-.3 6.8-.2 13.3-6.8.5-5.7-13.3-5.3-15 .2-1.4-4.4 1.7-6.6 3.8.7 1.3 1.7 1 2.9.5-.5 6.2 3.9 11.8 9 11.7.2 6.4.9 12.5 2.7 13 .2 0 .5-6.5.6-13.7 12.2-3.8 7.5-18.3 7.5-18.3-.2-.8-2 .3-6 3.9 1.6 1.7 2.3.7 3.6.3 1 1.9 1.4 10.5-5.2 13l.3-18-.4-.2c-1.8.2-5 3.4-7.5 6 1.5 2.3 3.2.3 4.6-.3m5.9 19 2.8 2.9 2.8-2.8-2.8-2.8-2.8 2.8Z"/>
  </g>
</symbol></svg>
