<svg xmlns='http://www.w3.org/2000/svg' viewBox='0 0 696 830' fill='none'><symbol id='MPEC_EC_Outline'>
  <g fill="#1E2346">
    <path d="M236.7 145.8v1l2-1 21-12c13-6 27.1-11 42.2-15 12-5 26-6 39-5H357c10 0 20 0 30.1 2l21 7a185 185 0 0 1 44.2 18l1 1-2-3-17-17-35.1-39a1315 1315 0 0 0-50.2-50c-2-2-2-2-4 0l-41.1 42-31.1 33-33.1 35-3 3m0 529.2v1l3 3 35 37 60.3 68 11 12h3l22-24 60.3-68 21-22 1-2-2 1-2 1c-12 6-24 11-37.1 14-26 5.2-52.7 7.8-79.2 8l-36.2-6c-20-3-40-11-58.1-21l-2-2m311-97v1l1-2 26-33 36.1-48.1c19-26.8 39.1-52.8 60.2-78l-15-17a1286 1286 0 0 1-96.4-139l-25-32-2-2v3l9 19 15 37a293.3 293.3 0 0 1 20 92c2.3 29.6 2 59.4-1 89l-4 40c-3 16-7 32-13 47l-11 23M174.5 215h-1l-3 3-24.1 30c-11 13-20 27-29.1 41-9 16-19 31-30 46l-21.2 30a2493.8 2493.8 0 0 1-42 55l3 4 21 26 32 40 39.2 53 36.1 46 3 3-3-7a231.1 231.1 0 0 1-31-97l-3-24-2-27c-.8-30.1 1.3-60.2 6-90 3-18 8-36 14-54l15-38c5-14 11-27 19-38l1-2m-49 225 2 35 12 54c9 31 25 58 45.1 83 14 18 30.1 33 47.1 48 16.1 13 33.1 22 52.2 28l28 7c7.1 1 13.1 3 20.2 3 11 1 22 2 34 0h6l25.2-6c28-5 52.1-18 73.2-36l18-17a255 255 0 0 0 80.3-153c4.8-23.4 5.8-47.3 3-71l-3-35a336 336 0 0 0-19-84l-17.1-45a448.4 448.4 0 0 0-48.2-76.1c-14-17-31-30-52.1-37a286.3 286.3 0 0 0-84.3-18l-10 1c-24.6 3-48.9 8.7-72.2 17-10 4-21.1 8-29.1 15-10 7-18 15-25.1 24l-28.1 39c-7 11-13 22-17 34l-16.1 40a326 326 0 0 0-24 120l-1 30M347 809l-5-2-14-13-35.2-36c-24-25-47.1-53-69.2-80-18-22-37-44-57.1-65l-49.2-53c-15-16-28-33-41.1-50.1l-23-30c-14.1-18-25.2-36-35.2-55l-1-2v-5l3-5c15-27 32.1-53 49.2-79 12-18 25-35 40-51 10.1-12 21.1-24 30.2-37l16-22A969.4 969.4 0 0 1 342 25.7c6-5 5-5 11 0a999.3 999.3 0 0 0 68.2 62c48 45 90.7 95.4 127.4 150l31.1 39c22 24 42.1 50 59.2 77l34 56 5.1 8v5l-1 2-18 31-24.1 33.1-44.2 56a1302.4 1302.4 0 0 1-77.2 84c-17 18-32 36-47.1 55A1328.3 1328.3 0 0 1 363 797l-11 10-5 2"/>
    <path d="m180.5 424.9 2 37c2 14 5 28 10 42l20 41c3.1 8 8.1 14 14.1 21 13.3 14.6 28 27.7 44.2 39l15 10c16 10 34.1 17 52.2 21 7 2 13 2 20 0 18-4 35.1-11 50.2-21l5-3c19-11 35.1-24 50.2-39 9-10 17-21 23-33l9-20c13-25 18.1-52 19.1-79 .6-20.7-.7-41.5-4-62l-8-31c-5-21-13-41-23.1-59l-20-35c-7.3-11.6-16-22-26.1-31-10-7-20.1-15-31.1-21l-6-3-41.2-16.1-9-1-8 2-14 5c-17.1 6-33.2 13-47.2 23l-9 7-8 6c-9 9-18.1 19-24.1 30l-18 30c-9.1 17-17.1 34-22.2 52-4.7 17-9 34-13 51l-2 37m343-12c-.4 37.2-7.8 73.8-22 108.1l-8 18c-7 16-16.1 29-27.1 42-8 9-16 18-25.1 25a188.7 188.7 0 0 1-84.3 37h-4c-10 1-20-1-30-3l-24.1-8c-14-7-27.1-14-40.2-23-9-6-18-14-25-23a469.2 469.2 0 0 1-28.1-39l-16-36c-15.8-46-20.2-95-13.1-143l10-39c10-28 23-54 42.1-78l9-11 12.1-13c8-10 17-18 27-26a163.2 163.2 0 0 1 68.3-26.1l12 1c18.2 5.1 36 11.4 53.2 19 10 7 21 15 29 25 12.1 13 24.2 26 34.2 40 18 25 31 53 39.1 83 4 19.3 7.3 38.7 10 58l1 12"/>
    <path d="m372 590 4-9 3.1-12v-8l1-24c-1-8-3-15-7-22l-11-17.1-7-11c-1-2-2-3-5-3l-8.1-1-14-3h-1l1 1 10 13 6 10c8 11 14 22 20 34 4 10 6 21 7 32v19l1 1m-6-104v1l1 2c6 5 9 12 11 19l6.1 18v3c5 14 5 28 0 42l-8 20c-1 0-2 1-1 2l1-1c8.1-6.9 15.5-14.6 22-23l14.1-31c2-4 3-9 2-14-2-9-4-17-8-25l-4-4c-7-3-15-5-22.1-6l-14-3m63.1 23 1-1v-7c-1-7-2-14-5-21-3-9-8-17-13-25l-8-9c-4-7-8-14-9-22l-3-24-3-22c-5-22-14.1-41-27.2-59l-10-9-2-2-1-1 1-1 4 1c2 1 2 1 3-1v-2c3-7 3-15 2-23-2-15-10-28-23-37-5-4-11-6-17-7h-14.1l-17 6c-5.1 3-8.1 6-11.1 11v2l3-1c6-2 13-4 20-4 13.1 1 22.1 7 28.1 18 2 5 3 10 2 15l-3 13c-2 8-5 15-10 22l-14 19-12 16-9.1 17c-9 23-8 46 6 67a80.4 80.4 0 0 0 47.2 36l26 4 26.1 5c15 4 28.1 11 39.1 22l3 4m-10-4v3l1 4a1548 1548 0 0 1-4 37 86.3 86.3 0 0 1-42.1 51l-4 2-2-2-1-3c1-19-3-37-10-54-7-16-15.1-30-24.1-44-8-13-18.1-24-30.1-33-8-6-15-13-21.1-22a76.6 76.6 0 0 1-7-79c4-8 8-15 14-22l16-20 8.1-11c4-5 6-12 8-18v-10c-1-7-4-13-8-19l-7-6c-3-2-7-3-10-3-7 0-14.1 1-20.1 4h-2c-1 1-1 0-1-1v-1c1-5 3-9 6-13l5-5c11-7 23-11 36.1-11 5 1 11 2 16 5 15.1 8 25.1 21 28.2 39 2 11 1 22-4 33l-1 2 1 2c10 7 16 17 22 27 9 17 15 35 17 55l2 15c1 8 5 16 9 23l7.1 10c5 6 8 13 9 22l5 15c2 9 4 17 3 26v9l-1 3-3-2-9-7-2-1m-204.6-92c0-11.1 1-22.1 3-33l1-1 1 1v5c.5 30.5 7.7 60.6 21 88 6 12 14.1 23 23.1 32l14 16a136 136 0 0 1 24.2 48v8l-1-1-1-3-10-22c-6-12-14.1-22-23.1-32l-13-11a124 124 0 0 1-39.2-95m257.8 41v-39c-8-40.8-28-78.5-57.2-108a66.9 66.9 0 0 1-15-44l1-10h1l1 6 3 13c2 9 6 17 12 24l8 8c5 5 11 10 15 16 11.1 11 17.1 25 23.2 39a205.5 205.5 0 0 1 11 79l-2 15v1h-1"/>
    <path d="M282.8 314.8c5 0 11-2 16-5v-2c-5-3-9-7-11-12l-2-2h-1l-5 5-7 4-6 4c-2 2-2 3 1 4l5 2c3 2 6 2 10 2m-35.1-11v2c1 8 4 15 8 21l1 1v-1l2-13c1-9 5-15 13-18l7-3 4.1-2v-2l-3-4-3-3c-4-4-6-8-6-13v-2h-1l-2 1c-8 6-14 14-18.1 23l-2 12m32.1 18c-5 0-10-2-14-5-3-3-3-3-4 2l-2 9-1 3-3 1-2-2-9.1-14c-6-11-5-22 1-33 5-8 12-14 21-18h2c4-1 4-1 5 3 0 3 2 6 6.1 8l3 2c4 2 7 6 7 12l1 3c0 4 2 6 4 9l7 6v4l-2 2c-6 5-12 8-20 8m14-58c2 0 4 2 4 4s-1 3-3 4c-2 0-4-2-4-4s1-4 3-4m10 116c0 8 1 16 3 23 3 8 8.1 15 15.1 21l14 7 11.1 6a71.3 71.3 0 0 1 30 27l-2-1-4-3c-4-4-8-6-13-8l-18-8-15-7c-6-3-11.1-7-15.1-11-8-8-11-17-12-27 0-8.3 2-16.5 6-24h1v1l-1 4M465.7 498c0 .4-.3 6.8-.2 13.3-6.9.5-5.8-13.3-5.4-15 .2-1.4-4.4 1.7-6.6 3.8.7 1.3 1.7 1 3 .5-.5 6.2 4 11.8 9 11.7.3 6.4 1 12.5 2.8 13 .2.1.5-6.5.6-13.7 12.2-3.8 7.5-18.3 7.5-18.3-.2-.8-2 .4-6 3.9 1.6 1.7 2.3.7 3.6.3 1 1.9 1.4 10.5-5.1 13.1l.3-18c0-.2-.2-.3-.4-.3-1.8.2-5 3.4-7.6 6.1 1.3 2.2 3 .2 4.5-.4m5.9 19.1 2.8 2.8 2.8-2.8-2.8-2.8-2.8 2.8Z"/>
  </g>
</symbol></svg>
