<svg xmlns='http://www.w3.org/2000/svg' viewBox='0 0 696 830' fill='none'><symbol id='PCAC_EC_Outline'>
  <g fill="#1E2346">
    <path d="M238.4 146.2v1l3-2 21-11c13-7 28.1-12 42.1-16 9-3 19-4 28-4l16 1h4l18.1-1c8 0 15 1 22 3l20 6c14 5 27 11 40.1 18h2l-3-3-48-50.1c-16-19-34.1-36-51.1-54-4-3-4-3-7 0l-38 38c-22.1 24-44.1 49-67.2 72l-2 2m215.3 535.7v-1l-3 2c-13 6-25 11-39 14l-42.1 7c-12 2-24 2-36 1l-30-5c-22.1-3-43.1-10-62.2-22l-2-1 2 3 25 26 71.2 80.2 10 10h2l2-1 21-23c25-28 49-57.1 76.1-84.2l5-6m96.1-105.1h1l2-3c14-18 28-35 41-54 24.3-35.2 50-69.3 77.2-102.2l-12-14a976.2 976.2 0 0 1-77.1-108.2l-18-28-28-36-2-2 1 4 8 15 15 41c14 35 21 72.4 21 110.2 2 46.4-2.3 92.9-13 138.2l-14 35-2 4M175.3 216.2h-1l-1 1-29 36-20.1 28.1-17 27c-14 22-30 44.1-46 65.1-11.1 16-22.1 31-35.1 44.1v4l28 33 51 67.1c16 23 34.1 45 52.1 67.1l1 2-1-4-11-20c-9-19-16-39-18-61l-5-37.1c-3.7-37.7-3-75.6 2-113.2 3-20 8-39 14-58l17-44.1c5-13 11-24 18-35l1-2m-48 213.2v9l2 38 8 36.1a246 246 0 0 0 55 107.2c12 13 24.1 26 38.1 37 16 14 34 25 54.1 31l26 7c22 5.2 44.9 5.9 67.1 2l22-4c27-6 50.1-18 71.1-36l28-26c26.8-26.8 47-59.3 59.1-95.1l10-43.1c4.3-19.7 6-40 5-60-1-22.1-2-43.1-5-64.2-3-25-9-48-17-71l-16-42.1c-5-13-11-25-18-37l-29-40.1c-15-20-35-34-59.1-42l-36-10c-13-3-27.1-5-40.1-5h-13l-23 3a347.7 347.7 0 0 0-71.2 24c-12 8-22 17-31 28l-27 37c-8 12-15 25-20 39l-16 41.1c-9 24-16.1 50.1-19.1 76.1l-5 60.1M348.6 22l2 1 2 2c15 15 31 28 47 42a885.5 885.5 0 0 1 148.2 167.3c10 15 21 29 33 43 24.1 25 44.1 53 62.2 82.1l34 55.1 2 4v4l-2 4c-13 24-28 47-45 68.1-14 18-28.1 37-43.1 54l-30 34.1-49.1 53c-13 13.1-25 27.1-36 42.1-20 24-39.1 47-61.1 70.1a1968 1968 0 0 1-49.1 51l-10 8.1-2 2h-5l-3-2-14-12a1233 1233 0 0 1-127.2-143.2l-27-30-56.1-61.1c-17-18-32-38-47-57l-31.1-41.1-22-37c-1-3-2-6 0-9.1l13-21 33-52c14-23.1 31-44.1 49-64.2 15.1-16 28.1-33 40.1-51A933.4 933.4 0 0 1 347.6 23l1-1"/>
    <path d="M486.8 322.4v3c1 2 2 4 5 5l5 1c2 1 2 0 2-2l-9-18c-2 3-3 7-3 11m-77.1 289.3-7 1c-7 0-12 6-12 12v1l3-1 17-10 3-2c-1-2-3-1-4-1M303.5 210.2c0-4 0-6-2-9l-3-1-16 11c0 5 4 9 9 9 3 0 7-1 9-3 2-1 3-2 3-4v-3m83.1-10 2 6c3 4 7 8 13 9 4 2 10 0 13-4v-2l-4-3-20-10c-3-1-4-1-4 3v1M182.4 425.5l2 33c2 16 5 32.1 11 48.1a404.3 404.3 0 0 0 31 58 252.4 252.4 0 0 0 63.1 51.2c15 10 31 17 48 20 8 2 15 3 23 0l8.1-2 17-5c2-1 3-2 3-5l2-6c5-10 16-12 24-8h5c16-11 31.1-23 45.1-37.1 10-10 17-22 23-34l8-17c10-20 16-41.1 18-63.1a327 327 0 0 0-4-87.2l-5-20-3-12c-1-2-1-3-4-3s-6-1-8-3l-3-4c-6-7-5-14 2-20l1-3-5-10-19-34c-6-10.1-13-20.1-21-29.1s-17-15-26-21h-3c-3 5-9 6-15 7h-3c-9-1-15-10-13-19l1-5-1-2h-2l-27.1-10.1c-4-1-9-1-13 1a318.2 318.2 0 0 0-39 14l-1 2 2 2c4 8 0 18-7 22-5 2-10.1 1-13.1-2l-4-6-1-3h-2a126.6 126.6 0 0 0-41 43.1l-20 36c-8.1 15-15.1 31-19.1 47.1l-9 31a197 197 0 0 0-6 55.1m342.4-12a233 233 0 0 1-23 111.1l-9 20c-6 12-14 23-22 34.1l-20 21a203.7 203.7 0 0 1-66.2 38c-9 3-18 5-28 6-8 1-16 0-24-1-19-4-37-12-53.1-21l-20-13a177.4 177.4 0 0 1-55.1-67l-16-36a304 304 0 0 1-9-142.3l10-35c8-27 21-52 38-74.1l21-24a171.2 171.2 0 0 1 51.1-42c12-5.1 25-10.1 38-12.1h24c11.1 2 23.1 6 34.1 11 11 4 21 11 31 19 9 7 17.1 15 24.1 25l16 19c19 23.1 33 49.2 42 77.2l9 32 5.1 24 2 30.1"/>
    <path d="M400.6 482.6h-2l-20 2-27 5-4 2c-2 3-4 6-7 7l-2 1-1 2c3 3 6 5 10 4l7-2 13-4 15-5c6-2 12-6 18-12m-98 12-2-1c-9.1-3-18.1-7-26.1-12-10-6-18-13-25-22-4-5-6-10-8-16l-1-7-1-2-2 1c-4 5-6 10-7 16-2 10 0 18 7 24 3 2 5 4 9 5l13 7 5 3 10 2 13 1 15 1m-89.1-134.2v16c1 9 0 16-4 24l-6 10c-2 4.1-3 9.1-3 15.1 2 10 6 18 12 26 1 1 2 1 2-1 2-7 7-12 13-15l9-5c2-2 3-3 3-6 0-10.1 2.3-20 7-29v-2l-3-1c-12-5-22-13-27-26l-2-4-1-2m122.2-45.1-2-1c-8-4-17-5-26-2-7 3-15 2-23.1 1l-15 1c-4 1-7 3-10 7-4 5-8 9-14 13l-3 3c-8 7-10 17-6 26l4 5 6 15 1 4 1 1h2l1-3 4-12c2-7 5-14 9-20l8-15c3-5 6-9 11-13 12-8 26-12 40-11l12 1m29.1 9-4-1c-2 0-3 0-5 2-5 4-10 10-13 16-2 3-3 7-3 10-1 6 0 12 3 17l6 9c3 5 5 11 4 17l-1 13-1 12.1c0 11 8 20 18 23l10 2 19 2c12 2 22 8 30 18 1 1 1 4 3 3l4-2 1-1 1-4-2-1c-6-9-14-15-23-20-8-4-16-8-25-10-6-2-12-5-16-10-4-3-7-7-8-12l-1-12c-1-9-2-18-5-26l-3-9c-4-14-1-26.1 11-35.1v-1m125.2 112.1-1-1-11-2-2-1v-2l5-1 10-1h2l-1-2-4-3-10-4c-7-3-13-7-17-13l-20.1-28-15-25c-5-8-12-15.1-21-19.1-9-4-18-6-28-8l-3 1-10.1 10-5 8c-4 6-4 12 0 19l4 7c5 8 7 17 7 26l1 9c1 5 3 9.1 7 12.1 4 4 8 6 13 8l13 4c14 4 25 11 35 21l4.1 3h3l2-1c8-7 17-12 28-13l14-4m-109 43h4c8 0 15 0 23-2 6-1 13-3 19-7 2-1 2-1 1-3-7-9-16-15-28-16l-25-3c-11.1-2-19.1-8-24.1-18-2-5-3-10-2-15l1-9c1-8.8-1-17.7-6-25-2-3-5-7-6-11-5-9-5-19 0-28 3-6.1 7-10.1 11-14.1l5-4v-1l-1-1-14-2-22 1c-9 1-17 4-24 9-4.1 2-7.1 6-9.1 10-3 6-7 10-11 14l-3 3c-4 4-6 8-8 13l-2 9-3 18-4 14c-3 10.1-4 20.1-2 30.1 0 6 2 11 6 16 4 6 10 11 16 15 8 5 16 9 25 12 10 3 20 4 29 2l17-4c8-3 17-4 25.1-4l12 1m102.1-47 10 2 2 2-2 2-7 4-13 4-13 8c-14 13-30 21-48 26l-6 3-7 7.1c-2 2-3 4-6 5-5 5-12 8-19 8-7.1 0-13.1 1-18.1 4l-11 1c-4 0-7-2-9-4l-2-2c-1-2 0-3 1-4l4-2 5-4h-4l-12 2-10 1-12 2-19.1 2c-9 0-17-1-25-7l-6-4-10-4-4-1c-12-3-19-14-17-26l3-11-2 2-8 8c-1 2-2 2-5.1 0-4-4-8-9-11-15l-5-14c-1-5 0-11.1 2-15.1l3-8 4-6c2-4 2-7 1-11l-2-11c-1-5 0-11 3-16l3-7h4l1 3c7 9 15 18 24 26l4 3-4-10-5-9a31.1 31.1 0 0 1 4-34.1l9-10c8-7 17-11 28-12h10.1l14-2c9-3 18-3 27 0l16 5c7 3 14 5 22.1 4 11 0 22 2 33 6l15 6c11 6 19 15 24 26l3 9c3.1 8 6.1 15 11.1 21 5 7 10 14 17 20 10 7.3 20 14.3 30 21.1 1 3 0 4-2 4l-4 1-9 1m-277.3 70.1 2 7c1 4 4 6 8 6 5 0 8-2 9-6 2-4 1-8-1-11s-4-6-7-7c-5-1-9 1-10 6l-1 5m26 2c-1 5-3 9-7 11-6 3-12 2-17 1-3-1-5-4-6-6-2-5-2-10 0-14 2-3 4-5 7-6 8-3 18 1 21 10l2 4m86.1 65.1c0-4-1-8-3-11-3-5-6-6-11-6-5 1-8 4-8 9-1 3 0 6 1 10 2 4 5 6 10 7 6 1 11-2 11-9m-12 11h-3c-6 0-10-4-11-11-1-4 0-7 1-11 2-3 5-6 9-7l7-1c4 0 8 2 10 5 4 5 4 11 2 17-3 5-7 8-13 8l-2 1v-1m107.2-307.4c0-5-2-9-5-13-2-3-6-4-10-3l-5 5c-3 5-3 13 1 18 2 2 4 4 6 4 5 2 10 0 11-5l2-6m4-2c0 4-1 8-4 11-5 5-12 6-17 2-9-6-9-19-4-24 6-7 16-7 21-1 3 3 4 7 4 12m-159.2 12 2 7c3 4 8 4 12 1 3-4 3-11-1-14l-4-2c-6 0-9 3-9 8m11 13c-10 0-15-10-11-17 0-2 1-3 3-4 6-4 16-1 19 7 1 8-4 14-11 14m185.2 208.3c3 0 4-1 5-3s0-4-2-6l-3-1c-3-1-6 1-6 4s2 6 6 6m-9-4c0-4 4-8 8-8 5 0 8 4 8 7 0 5-4 9-8 9-5 0-8-3-8-8m-40 69.1c0 2-1 4-3 4-1 0-3-1-3-3s2-4 4-4l2 4m-50.1-326.4c-2 0-4-2-4-3 0-2 2-4 3-4 2 0 4 2 4 4l-3 3m-98.1 323.4c-2 0-3-1-3-3-1-2 1-3 3-3s3 1 3 2c0 2-2 4-3 4m238.3-180.2 2 2c0 2-2 4-3 4-2 0-3-2-3-3 0-2 2-3 4-3m-274.4-58.1-3-2c0-2 1-3 3-3 1 0 3 1 3 3 0 1-1 2-3 2m201.3 209.3-3-3c0-2 2-3 3-3 2 0 3 1 3 3 0 1-2 3-3 2m-104.2 68c0 1-1 3-3 3l-2-3c0-2 1-3 2-3l3 3m4-88-2 2c-2 0-3-1-3-2 0-2 1-2 3-2l2 2m141.2-222.4 2 2c0 2-1 3-2 3l-3-2c0-2 1-3 3-3m-195.2-42c1 0 2 1 2 3l-2 1-2-2 2-2m186.2 68-2 2c-2 0-3-1-2-2l2-2 2 2"/>
    <path d="M448.7 408.5c0 3-2 5-5 5s-5-2-5-5 2-5 5-5 5 2 5 5m-240.3 14 2-11 6-15 1-1h1l1 3-1 9-3 7c-2 4-3 9-3 14v5l-1 1-1-1-1-2-1-9m16 3 2-11 2-7v-16l1-1 3 3c2 3 3 6 2 10l-3 10-4 9-1 6-1 1-1-1v-3M363 548.7c0 .4-.3 6.8-.2 13.3-6.8.5-5.7-13.3-5.3-15 .2-1.4-4.4 1.7-6.6 3.8.7 1.3 1.7 1 2.9.5-.5 6.2 3.9 11.8 9 11.7.2 6.4.9 12.5 2.7 13 .2.1.5-6.5.6-13.7 12.2-3.8 7.5-18.3 7.5-18.3-.2-.8-2 .3-6 3.9 1.6 1.7 2.4.7 3.6.3 1 1.9 1.4 10.5-5.1 13l.3-18-.4-.2c-1.8.2-5 3.4-7.5 6 1.4 2.3 3.2.3 4.5-.3m5.9 19 2.8 2.9 2.8-2.8-2.8-2.8-2.8 2.8Z"/>
  </g>
</symbol></svg>
