<svg xmlns='http://www.w3.org/2000/svg' viewBox='0 0 696 830' fill='none'><symbol id='QCHC_EC_Outline'>
  <g fill="#1E2346">
    <path d="m454.3 142.2-1-1-3-4-36.1-37.1-31-34-8.1-8L349 32h-4l-1 2a1479 1479 0 0 0-89.3 93l-17 17-2 2v1h1l3-2 20-11c14-7 29.1-11 44.2-16 11-4 22-5 34-4H360c13-1 26 .6 38.2 5a848 848 0 0 1 53.1 22l2 1h1M347 798l1-1 12-12 15-17 23.2-26 32-36.1 23.1-24 1-1h-2l-1 1c-15 8-30 13-46.1 16-18.7 3-37.4 5.7-56.2 8l-22-2-32.2-6a158 158 0 0 1-55.1-21l-3-1v1l2 2 48.1 52 45.2 51 14 15 1 1m325-378.4-1-2c-5-4-9-8-12-13l-26.1-34-34.1-48.1-24.1-37-16-24.1-24.1-31-2-2h-1l1 3c7 12.7 12.7 26.1 17 40l13 35c8.9 26.2 14 53.5 15.1 81.2 1.7 23 1.7 46 0 69l-3 22-4 33.1c-3 21.5-10.2 42.3-21 61.1l-2 5v1l1-1 1-2c19-22 36-45 53-69l51.2-66.2 17-20 1-1M158.5 592.7v-1l-8-14a218.8 218.8 0 0 1-28-106.1l-2-17c-1.6-35.5 0-71 5-106.2 3-19 8-38 14-56l16-41.1c5-11 10-22 16-31l2-3 1-2h-1l-8 9-22 28c-8 9-15 19-21 29l-19.1 30c-14 22.1-30.1 43.1-45.2 64.1-11 15-22 30-35 43.1-1 1-1 1 1 2l5 7 21 25 38.1 50.1 48.2 64 21 25.1 1 1m414.3-152.2-1-19-2-36c-3-29-9.3-57.6-19-85.1l-19.1-50.1a506 506 0 0 0-47.2-74.1 108.3 108.3 0 0 0-52.1-38l-30.1-10a227 227 0 0 0-56.2-8l-7 1-22 2c-18.1 4-36.2 9-53.3 15-9 3-17 8-25 13-9 7-18 15-26.1 25a503.9 503.9 0 0 0-46.1 73l-18.1 48.1a322 322 0 0 0-21 104.2l-2 31 1 29 2 22c5.2 21.6 10.8 43 17 64.2 12 29.3 29.3 56.1 51.1 79a1638 1638 0 0 0 48.2 43.1c15 10 31 18 49.1 22l25.1 5c22.5 5.4 46 5 68.2-1l23-6c23.2-7 44.2-19 62.3-35a526.4 526.4 0 0 0 43.1-44 248.6 248.6 0 0 0 52.2-119.2c3-17 5-34 5-51M347 22h1l4 4 43.1 38a684.8 684.8 0 0 1 64.2 62.1c28.2 29 53.7 60.5 76.3 94.2l15 20c9 13 19 25 29.1 36 20 23 39.1 47 55.2 72.1l39 62 4.1 8.1v4l-1 3-26 42-25.2 33.1a1111.7 1111.7 0 0 1-57.1 69.1l-41.2 45-36 40.1-24.1 28-38.2 45.1-30 33-36.2 37-11 10.1-2 1h-6l-2-2-14-12c-45.1-44-87-91.2-125.4-141.2l-17-19-44.2-47c-19.6-22-38.6-44.3-57.2-67.2l-29-38c-13.1-16-25.2-34-35.2-53l-3-6v-5.1l4-8 49.2-77.1c10-16 22-31 35-45l19.1-22A1209 1209 0 0 1 274.8 86c20-19.8 41.1-38.6 63.2-56l8-7.1 1-1"/>
    <path d="m515.5 425.5-1-15c0-13-2-26-5-39l-7-24c-5-19.1-12-38.1-22.1-56.2l-16-29c-9-16.6-21.4-31.2-36.2-43l-18-12c-5-4-10-7-16-9L355 183.1h-15l-6 2-24.1 9-23 11c-10.6 7.8-21 15.9-31.2 24l-13 14-7 11.1-21.1 38c-8 15-15 30-19 47.1l-8 27c-4.1 14-6.1 29-7.1 44 0 17.1 0 35.1 2 53.2 2 15 6 30 12 45a438 438 0 0 0 29.1 54A236 236 0 0 0 335 635.7l14 2 12-2c18-3.7 35-11 50.2-21 19-12 36.1-25 52.2-41.1 8-9 15-18 21-29l15-33c6-12 10-26.1 12.1-40.1 3-15 3-31 4-46m8-10.1c-.9 28.1-5.3 56-13 83.1l-10 26-10 21a143.8 143.8 0 0 1-29.2 41.1c-9 11-20 20-33 28-11 7-22.1 13-34.2 18-12 6-25 9-37 11h-7c-8.1 1-16.1-1-24.2-3-15-3-29-9-42-16l-20.2-12c-9-6-17-12-25-20a252.5 252.5 0 0 1-32.1-45l-17-37a217.3 217.3 0 0 1-16.1-78.2l-1-27c0-14 2-28 6-42l5-21 12-36.1a235 235 0 0 1 43.2-67.1l10-11c8-10.5 17.4-19.6 28-27 6.1-5 14.1-10 22.2-13 13.5-6 27.6-10.3 42-13.1 7.1-1 13.1 0 19.1 1 12 2 24.1 7 35.1 11 10 5 19.1 10 28.1 18l8 6 14.1 15 17 20a237 237 0 0 1 50.2 97.2l7 31 3 23 1 18.1"/>
    <path d="M333 509.6c2 0 10 2 12 1l-1-33c1-14 5-26 12-37 2-4 4-7 7-9l6-5h13.1c4 1 8 4 11 6l9 8c7 7 14.1 12 22.1 17 10 6 21.1 10 32.1 10h11l16.1-5 3-2h-8c-7-1-13-4-18-8s-9-9-12-14l-5.1-8c-2-5-6-9-10-12.1l-11-10-3-4c-5.1-7-12.1-11-21.1-13l-2-1-1-1v-9c0-5-2-9-4-13l-2-3c-5-5-8.1-11-10.1-18-2-6.1-5-13.1-9-18.1l-5-11c-4-7-5-14-4-22l1-10 1-2v-1l-1 1-1 1c-8 11-14.1 24-17.1 37-1 5-2 10-1 15l1 8c1.2 13.5 3.6 27 7 40 2 12 0 23-7 33.1l-3 4-3 5-9 15c-9 15-16.1 30-21.1 47l-5 20.1-1 2 1 1 7-1 23-1m70.3 13c13 0 24-1 35-4l33.2-11 5-2h2l1 1-3 3-19 15a68.4 68.4 0 0 1-42.2 10c-11-1-21-3-32-7l-16.1-7c-9-3-18.1-4-27.1-4l-22 4-19.1 8-24.1 6a65 65 0 0 1-60.2-19l-3-4v-1h1l8 5c12 5 24 8 37.1 6l14-2 17.1-5c1 0 2 0 2-2 1-10 4-19 8-28l17.1-31 16-25 7-13.1c4-6 6-13 7.1-20 1-5 0-10-1-15l-5-24-4-12a72 72 0 0 1 1-29.1c4-15 11-28 22-38l6-4h3v3l-1 5a37 37 0 0 0 4 27l4 9c5.1 8 9.1 16 10.1 26l1 4c0 4 2 9 5 13l4 5 4 8c1 4 1 8-1 12 0 2 0 2 2 3 9 2 16.1 7 22.1 14l14 12.1c6 3 10.1 8 14.1 12l18 17 9 8c4.1 3 8.1 5 14.1 5h2l1 2-1 2c-2 3-5 5-8 6a65.7 65.7 0 0 1-32 9c-9.1 0-17.1-2-25.2-5-9-5-17-10-24-17l-12-13-6-6-8.1-5c-3-1-6 0-9 2l-5 5-5 10c-5 15-8 31-7 47.1l1 17 2 2 24 7 6 2c7 1 13 2 18 1"/>
    <path d="m281.8 349.4 19 2h5l4-4 2-1h1.1v1c-1 1-5 5-4 6l6 2c2 0 0 1 0 1h-3l-4 1 3 3 1 1c0 1 0 2-1 1h-2l-4-4c-1-2-3-2-5-2h-7c-5 0-9-1-13.1-3h-4v1l8 9c1 2 2 2 3 2l6 1c2 0 1 1 0 1l-2 1h-3l3 3 4 4 3 2 10 1c2 0 3 1 3 2h-12l2 3 2 5-1 1-3-3-4-3-1 4-2 7h-1v-1l-1-2 2-10v-2l-6-8h-1l-1 3s-1 2-1 0v-5l-1-3-11-11-2 5-1 15 1 3 4 5 1 2-1 1h-1l-1-1-2-2h-1l-2 8 1 2 2 2 1 3v1h-1l-1-1-2-2h-1l-1 1h-2v-1l-1-1-4 2-1-1 1-1 3-3 2-2v-9h-1l-5 2h-1v-1l6-5 3-4 1-16-3 2c-3 2-2 7-2 8s-1 2-2 0l-1-3-2 1-8.1 4-1 4v10l-1 1-1-1-1-3v-5l-1-1-4 3-6 3h-1v-1l2-2 3-3c1-1 3-1 3-3l-4-1-6-1v-1h1l5-1 6 1c2 1 3 1 4-1l6-7-1-1-3-2v-1l5 1 3-1 6-5v-1h-11l-10-1-5 1-7 2-1-1v-1l3-1 2-2-2-1-6-1-3-1c-2-1 0-2 0-2h5l5 1c2 0 1-2 1-2l-3-4h1l4 2c2 3 4 4 8 4l15 3c5 2 5 1 4 0l-3-3c-2-3-3-4-7-4l-5-2s-2-1 0-1l3-1v-1l-3-5-3-1h-12l1-1 5-2 3-1h1l1-1-3-5-1-2c0-1 0 0 0 0l2 1 4 4h2l2-8 1-1h1v2l-1 11 6 7 1-3 1-1 1 1v4l1 4 5 5h1l1-1 2-11-1-5-4-6c-1-2 1-2 1-2l6 6v-4l2-10-1-2-3-5 1-1 4 3 1-2c1-1 1 0 1 1v2l5.1-3 1 1-4 4-2 3-1 13 2 1 4-4h1v1l-5 6-2 4v11c1 1 2-1 2-2 2-1 4-3 3-7l1-3 2 4 2-2 6-6 1-3-2-6v-6l2 4 2 7h1l3-2 4-3h2v1l-3 5-1 2v1l8 2 2 1h1l-1 1h-3l-8-1-4 1-8 5 1 2c1 1 3 1 2 2l-3 1c-4-1-4-1-7 2l-4 5c-2 1 0 2 0 2h7m-2 204.3 13 1c7 2 15 1 23.1-1l16-5 13-3c8.1-1 16.1-1 23.2 2l11 4a96.7 96.7 0 0 0 46.1 6h9v1l-3 2-28 5c-10 1-20-1-29.1-7l-7-5-12-5-10.1 1-13 5-9 4-7.1 3c-8 3-17 4-25 1l-8.1-2c-7-2-14-2-21 0l-9 2-2 1h-1.1v-1l2-1c6-3 13-6 20-7l8.1-1m89.3 47c-3 0-7-1-10-3l-6-4-6.1-4c-4-2-8-3-13-1-2 0-5 1-7 3l-9 4-13.1 5c-5 1-10 0-15-2l-6-3-2.1-1 1-1h3c7 2 14 1 21-1l12.1-5 10-4a31 31 0 0 1 24.1 2l7 4c8 4 16 4 24.1 1l10-4c4.3-1.8 8.6-3.2 13-4h1-1l-2 1-17 10-10 5-9 2m90.2-238.3v3l2-2 1-1 2 3h1v-1l-1-2c-1-1 0-1 1-1l1-1v-1h-2c-2 0-4-1-5-3l-2-2-3-5-3-2 4-2 3 1 2 3c1 0 2 1 1-1l-1-2v-1h2l10-1 3-1-1-1-10 1h-4l2-4v-1h-1l-4 4-3 2-3-1c-1-1 1-2 1-3l4-3 3-5 3-2h2l-1-1-1-1 2-4c1 0 1-1 0 0l-3 2h-1v-1h-1v2l-1 3-6 6-2 4h-1v-1l-1-5v-4l3-5-2 1h-1s-1-4 1-6l2-3h-1l-2 1-1-4-1 1v1c-.7 1.3-1.7 1.7-3 1-2-1 0 2 1 3 2 1 2 4 2 6h-3l-1 1 2 2c2 0 2 2 2 3l-1 8-1 1v-1l-7-8c-2-2-4-4-3-7l-1-1-1 2-1-1-2-2h-1v1l2 3-2 1 3 1c2 0 2 1 3 2l1 2 7 9 1 1-3 1c-2 0-3 0-5-2l-2-2h-2l1 1 1 2v1h-13l-5.1 1 5 2h6l5-1h3l-2 4v1h1l3-3 2-1h4l1 1-1 1-7 7c-1 2-2 4-5 3-2 0-1 1 0 2h1v1l-2 4 4-2c1-1 1-1 2 1h1c0-3 0-4 2-6l2-3 5.1-6 1 10-1 3-2 3h1l1-1 1 1v3l-1 2-1 1v1h1l1 1 1 1h1v-2l2 1 1-1s-3-2-3-4v-4h1l2 1c1-1 0-2-1-3l-1-1-1-2 2-10 7 7c2 1 3 3 2 5Zm-228.7 90.1 1-2h1v2h1l4-4 1-2 1-3c0-1 0 0 0 0l1 1c0 1 0 1 0 0l2-1v3c3 0 2 1 2 1h-3l-3 2-3 4v1l3 2h-4l-2 1-1 2-3 4 7 1 2-2c1 0 2-1 1 1v1l3 1c2 0 4 0 5-2 0 0 1.1-2 2.1-1s-1 1-1 2v1h2l1 1-1 1h-1l-1 1 1 2-3-2c-2-2-4-2-7-2v3l-2-1c-1-3-6-2-6-2l1 2 4 2 3 4h5c2 0 1 1 1 1h-2c-2 1-2 1 0 2l2 2 1 2h-2l-1-2-2-1h-1l-1 3-1-5-4-3-4-5-1 1v2l2 3 2 1v1h-2c-1 1 1 5 2 6l2 2v1h-1l-2-1-1 1v5.1h-1l-1-3c0-2-1-2.3-3-1h-1s-1 0 0 0l1-3c2-1 3-5 1-7l-2 2v-1l1-3 1-4-2-4c-1-1-3 3-4 5v2l1 3s-1 2-2 0l-1-1-1-1-4.1 6-1 1-1 3-1-2-2 1h-1l1-1v-2h-1v-1c4 0 6-3 8-6l1-1h-3v-2h3c3 0 5-4 5-4s-4-1-5 1l-2 1-1-1 1-1v-1h-9l-2 2h-1v-1l2-2-4-1 4-1-1-2 1 1c3 3 7 2 10 2v-2h1l6 2-1-1-2-3c-2-2-4-4-8-3l-1-1 2-1h1l-1-1-4-4-1-1h2l4 3 1 1v-2l1-1c0-1 0 0 0 0l1 3c0 2 1 2 2 3l6 5h1c0-2 0-5-2-6l-2-1h2l1-1v-3c0-5-3-6-4-6v-1h1l1 1 1-1v-4l1-1 1 5h3c1 1-1 1-1 1l1 9h2l-1 1-1 1v5l3-3 1-2-1-2m171.6-197.3v3h-1l-1-3-1-2-1 2-2-2-1-3v-2l-1-1c-1-1 0 3-1 3l-2-1-3-2 2 3 1 2-3 2h5l3 3-3 1 3 1c1-1 2 0 3 1l1 1h-10l-3-1-2-2h-1l1 2c.6 1.3.2 2-1 2H382v1h3v1l-1 2c-1 1 1 1 1 1l2-2 4-1h10c-2 3-4 5-8 5-2 0-2 2 1 2l-1 1-5 8h1l7-6h2v2h1v-3l1-4 2-3h1l1 11-1 2-2 3v1l1-1 2-1 2 2 1-1 1-1 2 1c1-1 0-2-1-2l-1-1-1-3-1-2 1-8 4 3v2l1.1-1 4 4 1 4c1 1 0 0 0 0l1-3 3 1h1l-3-2 1-1h1l1-1-3-1c-2 1-4 0-5-2v-1l1-1h-2l-4-2v-2h7l8 1s2 1 1-1v-1l2-2h-2l-1-2v-1l-2 1-4 2-8 1h-2l-1-1 3-2 2-2h5l-1-2h-2v-1l1-1 3-6-4 3-2 3h-1l-1-3h-1v5l-1 3-2 1-1-3-1-8v-3l3-2h-3v1l-1-1-1-2h-1v3l-2-1h-1l3 3 1 5v5Zm-143.5 3c0-4 3-8 8-8 4 0 8 4 8 9 0 4-4 7-8 7s-8-3-8-8m-2 227.3c4 0 7 3 7 6s-3 6-6 6c-4 0-7-3-7-6s3-6 6-6M347 245.3c3 0 5 2 5 5s-2 6-5 6-6-3-6-6 3-5 6-5m-66.2 187.2c0-3 2-5 4-5 3 0 5 2 5 4 0 3-2 5-4 5-3 1-5-2-5-4m-63.2-35c2 0 4 3 4 5s-2 5-4 5c-3 0-5-3-5-5 0-3 2-5 5-5M360 219.3c2 0 4 2 4 4s-2 4-5 4c-2 0-4-2-4-4s2-4 5-4m134.4 188.2c0 2-2 4-5 4-2 0-4-2-4-4s2-4 5-4c2 0 4 2 4 4m-85.2-77.1c-2-1-4-2-4-4 0-3 2-4 4-4s4 2 4 4-2 4-4 4m-25.6 139.4c0 .4-.3 6.8-.2 13.3-6.8.5-5.7-13.3-5.3-15 .2-1.4-4.4 1.7-6.6 3.8.7 1.3 1.7 1 2.9.5-.5 6.2 3.9 11.8 9 11.7.2 6.4 1 12.5 2.7 13 .2.1.5-6.5.6-13.7 12.3-3.8 7.5-18.3 7.5-18.3-.2-.8-2 .3-6 3.9 1.6 1.7 2.4.7 3.6.3 1 1.9 1.4 10.5-5 13l.2-18-.4-.2c-1.8.2-5 3.4-7.5 6 1.4 2.3 3.2.3 4.5-.3m6 19 2.7 2.9 2.8-2.8-2.8-2.8-2.8 2.8Z"/>
  </g>
</symbol></svg>
