<svg xmlns='http://www.w3.org/2000/svg' viewBox='0 0 696 830' fill='none'><symbol id='RDPC_EC_Outline'>
  <g fill="#1E2346">
    <path d="M236.7 145v1l2-2 21-11c15-7 30.1-12 46.2-17 10-3 21-4 32-3H359c12-1 23.1 0 34.1 4 20.1 6 40.2 12 58.2 22l1 1v-1l-2-2-50.1-53A781 781 0 0 0 350 33c-3-3-2-3-6 0l-37.1 38c-23 24-45.2 49-69.2 72l-1 2m1 529.2-1 1 2 2 26 27 74.3 83 7 7h2l2-1 20-22 21.1-24c19-22 39.2-44 60.2-65 0-1 2-1 1-3l-2 1c-15 8-30 13-46.1 16l-39.1 6a92 92 0 0 1-33.1 0l-37.2-6c-15-2-29-7-42-13l-15.1-9m294.9-446.1v1l1 1 8 19 14 36c7 18 13 37 17 57 11.2 66 8.1 133.4-9 198-4 11-8 21-14 31l-2 4 4-3c18-22 35.1-44 51.2-67 21.1-30.6 43.6-60.3 67.2-89l-12-14a1013 1013 0 0 1-77.3-109l-18-28-28.1-36-2-1m-358.1-14h-1l-2 3-18 21c-10.1 13-21.2 25-29.2 39a1613.3 1613.3 0 0 1-68.2 100c-10 14-20 27-32 39v3l28 34 47.1 62c18.1 24 36.2 48 55.2 70l2 3-1-3-8-15c-11-20-18-42-21-64-2.9-21.9-5.2-44-7-66a357 357 0 0 1 4-84c3-21 8-41 15-61l16-43c5-12 11-25 18-36l2-2m398.3 219-2-29-3-35c-3-26-9-50-18-74l-16.1-41c-5-12-10-24-17-36-13-19-27-37-42.2-54-12-12-26-22-42.1-27a567.8 567.8 0 0 0-69.3-17 182.6 182.6 0 0 0-72.2 9l-26 8c-10 4-20.1 9-29.1 16l-23.1 22-26 36c-9.1 14-17.1 28-22.2 43l-14 36c-11 29-18 58-21 88l-3 50c-2 26 .6 52 8 77a253.3 253.3 0 0 0 142.4 179.1c10 4 19 6 29 8l37.2 6c10 0 20 0 30-2l27.2-6c26-5 49.1-17 69.2-35l28-26c31.3-31.5 53.5-71 64.2-114l7-34c3-16 4-32 4-48M347 21l2 1 2 2c15 15 31.1 28 47.2 42a941.9 941.9 0 0 1 150.4 170c9 13 19 26 30.1 38a597 597 0 0 1 60.2 79.1l36 59 3.1 5v4l-2 4c-13 24-28 46-45.1 68l-43.2 54-44.1 48-50.2 55.1-36 43c-25.1 31-52.2 61-80.3 89l-23 22c-6.1 5-7.1 5-13.1 0l-16-14a1149.6 1149.6 0 0 1-99.4-111c-20-25-42.1-49-65.2-73-19-21-39-42-57.1-64-22.1-26-44.2-53-63.2-82-8-11-15-24-22.1-36l-1-3v-4l5-9c15-26 31.1-51 47.2-75.1 12-18 25-35 40-51a495.9 495.9 0 0 0 58.3-75A896.8 896.8 0 0 1 309.9 54l32-29.1 4.1-3 1-1"/>
    <path d="M514.5 424.1v-15c-1-13-2-26-5-39l-7-24c-5-20-12-38-22.1-56l-19-34c-8-13.6-18.2-25.7-30.1-36l-23.1-16-15-7c-12.1-6-25.1-10-38.2-15-5-1-10-1-15 1l-17 6a164.8 164.8 0 0 0-51.2 26c-15 10-26.1 23-36.1 38l-18 31c-9.1 17-16.1 34-22.2 51l-9 34-5 32c-1 18-1 36 1 55 2 16 5 32 11 48a409 409 0 0 0 31.1 59 241 241 0 0 0 84.3 62c10 5 20 8 31 10.1H355c18-4 34.1-10 50.2-19 21-13 40.1-27 57.1-44 9-9 16.1-19 22.1-30l14-30c6-13 11-28 13.1-43l3-45m9-18c.1 36.7-6.3 73.3-19 108-8.5 16.8-17.2 33.5-26.1 50a169.3 169.3 0 0 1-56.2 53c-13 7-25 14-39 18-8.1 3-17.1 6-26.2 7-8 1-16 0-24-1-16-3-32.1-9-47.2-17l-28-17c-13.1-9-23.1-21-33.2-33-9-10-16-22-22-34l-11-26c-10.1-21-14.1-43-17.1-66a316.2 316.2 0 0 1 2-76l8-37.1c9-30 22-57 42.1-82l20-24c9.1-11 19.2-21 30.2-29 7-5 14-10 22-13 11-5 23.1-9 35.2-11l13-2 13 1c16 3 31.1 9 45.2 16 7 3 12 8 18 12 9 8 18 16 26.1 26l17 21c19.1 22 32.2 48 41.2 76 5 12 7 25 10 37 4 17 6 34 6 43"/>
    <path d="m336 419.1 1-1c5-4 9-9 11-15l2-9 6-20 7-13 4-6 2-2v-1h-1l-1 1a141 141 0 0 0-19 28c-7 10-11 22-14 34v1l2 3m-29.1-12-15-7-29.2-7c-11-3-22-3-32-2-6 1-11 3-15.1 6-4 5-9 8-15 10-3 1-4 3-4 6v3l2 22 2 12c1 5 4 10 10 12l5 2 6 3c6 2 10 5 13 10l3 4c4 6 10.1 9 17.1 11h3l3-4 10-12 5-10c3-6 7.1-12 12.1-17 3-3 6-6 10-7l3-2c7.9-5.8 15.6-11.8 23.1-18l2-1-3-1c-9-2-18-2-28 0l-15.1 3h-2v-1l3-2 20-6 9-1c-8-3-16-4-25-2-8 2-16 5-23 9l-17.1 11-3 1h-1l1-1 2-1 19-13 14-7c9.1-3 18.1-4 27.2-3h3m24-9 6-10v-3c-1-10 0-19 3-28l8.1-18 1-6-2-12a88 88 0 0 1-3-24c0-5-3-7-7-7h-4l-9 2-9.1 3c-6 2-12 2-19-1l-3-2c-6-2-12.1-1-18.1 2-5 3-9 7-12 12l-3 6c-4 7-9 13-16.1 17l-7 5-4 4c-2 4-2 8 1 11l6 3c3 3 6 6 7 11 0 3 1 7 3 10l4 6c1 2 2 3 5 3 8-1 15 1 23.1 4l19 11 17.1 11 6 3 4 3 1-5v-2l-1-4c-5-17-15-31-31-41l-9-6 1-1 2 1 11 6c13 7 22 18 27 32l2 4m28.1-16 2-1c5-5 11-8 17-11l3.1-1h1v1l-2 1-6 5c-6 3-10 7-15 11-1 2-3 4-3 7l-2 9-1 2c12.2-5.9 25.5-9.3 39-10 9 0 17-2 23.1-8l4-3c6-5 13-8 20-9l14.1-1 14-2c4 0 4 0 5-5a407 407 0 0 0 2-19c0-4-1-7-3-9l-6-7-14-16-5-10-5-8c-5-5-10-6-16-4l-8 4-10.1 5c-9 4-18 3-26.1-3l-5-4-6-2c-3 0-4 1-5 3l-1 4-1 7-1 17c0 9-4 18-9 25l-5.1 6c-6 7-7 16-7 25h1l7-9 11-19 3-3c1-2 2-4-1-5v-4c1-2 2-3 4-2h2l1-1-1-2-2-1-1-4 3-2 4 1v2l2 2 2 1h3.1c2-1 4 0 5 2l-1 4c-2 1-2 2-1 3v5h-5l-3 1-8 13c-4 6-6 12-7 19m-7 59v3c4.2 14.2 5.6 29.2 4 44h-2v-3l-1-13a65 65 0 0 0-11.1-33l-9-14h-4l-12 8-9.1 7-15 13-11.1 14-5 9a62.9 62.9 0 0 1-15 19v4c2 3 4 6 8 8l2 1c7 4 12 8 15 15l3 7c2 3 5 5 9 6 3 1 6 0 9-1l8.1-3c6-2 12-3 17-1l10 4 13.1 5 17 2 3-1c2 0 3.1-1 3.1-3v-4c-2-8-1-15 1-23l3-11c1-5 2-11 1-16-1-6-4-11-7-16-6-7-11-14-18-20l-7-7m4-19h12c12.3 1.3 24.3 4 36 8l2 2h-2l-6-1-29-4-20.1 1c-2 1-2 1-1 2l11 10 21.1 21c5 7 9 14 10 23 0 2 1 3 3 4l9 4a92 92 0 0 1 24.1 11h10l2-1c4-3 10.1-5 15.1-7l11-4c8-3 14.1-10 17.1-18l2-5c3-8 6-15 11-22l4-6c2-3 1-7-1-10l-5-5-13-12c-4-3-6-7-7-12l-2-5-3-6c-1-2-3-2-5-2l-14 1a88 88 0 0 0-23.2 6l-11 4c-5 2-11 2-17 1-8 0-16.1 2-24.1 4s-15 5-21 10l-1 1v1l2-1c9-1 19-3 28-2l15 2c1 0 2 0 1 1l-2 1-1-1-13-1c-8 1-16 3-23 6l-2 1m-3-98 2-4 4-15 2-7c2-5 6-8 11-8l9 1c9 3 18 2 26-1l17.1-4c9-1 17 2 23.1 9l5 7c3 6 7 11 12 16l10 9 6.1 9c1 4 2 8 1 12-1 6-2 11-1 16l1 7c0 7-2 11-8 14l-1 1-1 1 1 1 5 10c2 6 6 11 10 15l11 10 5 5c3 4 4 9 3 14l-2 7-5 16c-3 10-9 17-17 23l-23 11-20.1 10c-7 5-14 5-22 3-9.1-2-17.1-7-24.2-13l-2-1h-1c-2 11-5 21-4 32v6c0 6-3 11-9 14l-9 3a45 45 0 0 1-28.1-3h-1c-11-5-11-5-24.1-4l-14-1c-8-2-14-7-18.1-14l-3-7c-3-5-6-9-11-12l-3-1c-3-2-6-4-7-8l-4-2-6.1-2-8-6-5-5c-3-4-7-6-11-7l-9.1-3c-5-1-10-4-14-7-6-5-10-12-12-20v-9a233 233 0 0 1 1-29c1-4 3-7 6-9l11-8c8-7 17-10 27-11l12-2c2.1 0 2.1-1 1.1-2-3-5.6-5.1-11.7-6-18 0-4-2-6-5-8l-6-3c-7-5-10-12-7-20 2-4 4-8 8-11l17-14 22-16c5-4 11.1-7 18.1-8h12c5 2 11 2 17.1 1l8-1h12c7 2 11.1 6 12.1 14l3 27m36.1 272c-6 0-12-1-17-4l-11-5-9-4c-9.1-4-19.1-5-28.2-2l-12 4-11 3c-8 1-15 0-21.1-4-10-5-17-12-23-20l-2-4v-1h1l2 2c6.1 7 13.3 13 21 18 8 4 16 5 24 3l12.1-4 15-4c8-2 15-1 22.1 1l11 4 8 3c10.1 4 21.1 4 32.2 1l15-6 7-3h2c1 0 2 1 1 2l-1 1c-1 1-1 3-3 3l-14 11c-6 3-13 5-21 5m-86.3-364 14 2 10 4 8 4c7 2 14.1 2 21.1 0l10-5 11-5a30 30 0 0 1 26.2 0l12 6c7 4 13 10 19 15l2 3c-2 1-2-1-3-1l-4-3c-7-5-14-10-21-13-5-3-10-4-15-5-6 0-11.1 1-16.1 4l-8 5-10 7c-10.1 5-21.1 6-32.2 1l-12-6-10-4c-7-3-14-2-21 2-4.1 2-7.1 6-10.1 9l-3 3h-1l-1-1 1-2 2-3c4-5 9-9 14-12 5-4 11-6 17-5"/>
    <path d="m467.4 466.1 2-10 2-16c0-4-1-6-3-9l-5-6-4-8v-6l2-5h2v3c-1 3-1 6 1 8l5 5 6 4c6 4 8 9 7 15v4c-2 7-5 13-9 20l-3 4c-1 1-2 1-2-1l-1-1v-1m-135.4 8-1-14v-6l1-2 2 1 2 3 3 12c1 7 0 15-2 22l-4 16-3 7h-1l-1-1 1-7 3-31m-84.3-129h-1l-1-1 4-5 9-8c6-5 10-10 13-17l4-8c2-4 6.1-7 10.1-9l5-1 2 1v1l-1 1h-1c-6 0-11 3-14 9l-2 9-2 7c-1 7-5 12-11 15l-11 5-3.1 1m85.3 32v3l-1 1-2-1v-3l-3-8c-3-12-8-23-15.1-34l-4-7-1-2 1-1 2 1 17 25c4 8 6 17 6 26m102.7 155.3c0 .4-.3 6.8-.2 13.3-6.9.5-5.8-13.3-5.4-15 .3-1.4-4.4 1.7-6.6 3.8.7 1.3 1.7 1 3 .5-.6 6.2 3.9 11.8 9 11.7.2 6.4.9 12.5 2.7 13 .2 0 .5-6.5.6-13.7 12.2-3.8 7.5-18.3 7.5-18.3-.2-.8-2 .3-6 3.9 1.6 1.7 2.4.7 3.6.3 1 1.9 1.4 10.5-5.1 13l.3-18-.4-.2c-1.8.2-5 3.4-7.5 6 1.4 2.3 3 .3 4.5-.3m5.9 19 2.8 2.9 2.8-2.8-2.8-2.8-2.8 2.8Z"/>
  </g>
</symbol></svg>
