<svg xmlns='http://www.w3.org/2000/svg' viewBox='0 0 696 830' fill='none'><symbol id='SEYC_EC_Outline'>
  <g fill="#1E2346">
    <path d="m348.3 809-6-2-13.1-11c-31.3-31-61.2-63.5-89.4-97.4l-38.1-46.2-26.1-29.1-43.2-47.2c-32.8-34.8-63-72-90.3-111.4-9-13-17-27.1-24.1-40.2l-1-2v-5l5-10 45.2-71.3 37.1-49.2 23.1-26 26.1-35.2A1115 1115 0 0 1 278 82.2l35.1-32L337.2 29l8-7h4l3 3 42.2 38.2c24 19.7 46.5 41.1 67.3 64.2A782.3 782.3 0 0 1 552 241.8l26.1 33.2c20.1 21 37.2 44.1 53.2 68.2l43.2 69.3 2 3c2 3 2 6 0 9l-16 27.1a487.8 487.8 0 0 1-32.2 44.2c-18.8 23.7-37.8 47-57.2 70.3l-44.2 47.2-35.1 39.1-28.1 34.1C432 725.5 398 762.7 362.3 798l-11 9-3 2ZM572 441.6l-2-32.1-4-43.2c-3-24-9-47.2-18-70.3l-15-41c-6-16-14.1-31.1-24.1-45.2l-20.1-28c-6-8.1-12-15.1-19-21.2-10.1-9-20.2-16-33.2-21-24.1-9-49.2-16.1-75.3-19.1h-23l-23.2 3a372 372 0 0 0-65.2 21c-15 8.1-27.1 18.1-37.2 31.2l-25 35.1a141 141 0 0 0-22.1 42.2l-12 30-10.1 27.2c-8 23-12 48.2-14 73.3l-2 22c-2 23.5-1.7 47 1 70.3 3.5 20.3 8.3 40.5 14 60.3a232.2 232.2 0 0 0 58.2 93.3l17 17 14.1 13.1c15 12 31.1 21.1 50.2 27.1 10 4 21 6 32.1 8 20.1 5 40.9 5.7 61.3 2l23-5a161 161 0 0 0 68.3-33c10-8.1 19-18.1 28.1-27.2A238 238 0 0 0 556 532c4-12 7-25 9-38.1 4-17 7.1-34.1 7.1-52.2ZM172.6 216.7h-1l-2 2-23.1 29.2a390 390 0 0 0-28.1 39.1l-13 21-32.2 46.3c-15 22-30.1 43.1-49.2 63.2v2l1 1 26.1 32.1 40.2 53.2c20.6 27.9 42 55 64.2 81.4v1-1l-4-7c-14-25.2-24-53.3-26-82.4l-4.1-29.1c-2-15-2-29.1-2-43.2-1-12 0-24 1-36.1 2.5-31.6 8.2-63 17-93.4l20.1-51.2 9-19 5-8 1-1ZM578 415.5l-1 29.1-3 33.1-3 29.1a223 223 0 0 1-17 57.3l-5 9v1h1l1-2 41-53.2c24.5-34.8 50.3-68.7 77.4-101.4l-1-1-15-17A1121.7 1121.7 0 0 1 580 294l-18-27-27.1-36.2-1-1h-1v1l1 2 7 16 12 30.2A321.7 321.7 0 0 1 578 415.5ZM347.2 796l1-1 11-11.1c30.5-33.1 60.6-66.6 90.4-100.4l2-3-3 1c-12 7-25 12-38.1 14a353 353 0 0 1-55.2 9.1c-8 1-15 0-23.1-1l-27.1-4c-23.1-3-44.2-10-64.3-22.1l-2-1v1l1 1 48.2 52.2 45.2 51.2 12 13 2 1Zm0-765-1 1-3 2L291 87.2l-37 40.2-14 14a19 19 0 0 0-2 2l1 1 3-2 17-9c16.7-8 34.1-14 52.2-18 9-3 18-2 27.1-2h41.2c24.9 5 48.9 13.9 71.2 26l1 1v-1l-2-3-46.1-48.1L355.3 38l-7-6-1-1Z"/>
    <path d="M523 410.5c-.2 38.6-8 76.9-23.2 112.4l-8 19a192.7 192.7 0 0 1-49.2 62.3 226 226 0 0 1-59.2 32.1c-9 3-18 6-28.1 7h-18c-21.2-4-41.2-12-59.3-22l-20-13a175 175 0 0 1-60.3-78.4l-12-29c-9.9-26.7-14.7-55-14.1-83.4 0-20 2-41.1 8-60.2l8-31.1a235.8 235.8 0 0 1 54.3-92.4l8-9c6-8 14-14 21-21.1a153 153 0 0 1 65.3-28.1c8-2 16-2 24.1 0 11 2 22 6 34.1 11 21 10.3 39.5 25 54.2 43.2l22.1 26c20 26.2 34 56.4 41.2 88.4l7 29.1c3 14 4 24.1 4 37.2Zm-342.4 14 3 38.2c1 13 4 26 9 38.1a377.4 377.4 0 0 0 31.2 61.3c21.3 25.9 48 46.8 78.3 61.2 12 6 25 10 38.1 13h15c16.1-4 32.2-10 46.3-18 22-13 43.1-27.1 60.2-46.2 8-9 16-17 21-28.1l8-15 11.1-27.2c8-20 11-42.1 12-63.2.6-20.2-.7-40.4-4-60.2l-8-31.2c-5-18-11-35-20-52.2l-19.1-34a142 142 0 0 0-35.1-42.3l-18.1-12-17-10-36.2-13c-6-2-12-2-18 0l-10.1 3c-10 4-20.1 7-29.1 12-13 6-25.1 14-36.2 23-11 9.1-20 20.1-27 32.2L218.7 284c-8 15-16.1 29.1-21.1 45.2l-9 34.1-5 20-3 41.2Z"/>
    <path d="M261 308c12 0 22 1 31 5.1 6 1 11 4 17.1 6l8 2c5 2 11-4 11-9l-2-11-4-7c-2-5-2-11.1 0-16.1 3-5 4-10 4-16 1-6.1 4-11.1 10.1-15.1 12-8 28.1-1 31.1 15l1 5 1 7 2 4c3 5 2 10.1 0 16.1l-2 5-3 10c-1 4.1 0 7.1 2 10.1 3 2 5 3 9 2l7-2 20.2-7c10-4 20-5 31-4 8.1 0 15.1 2 23.2 5 8 4 15 10 21 18l7 14.1c6.1 12 11.1 23.1 18.1 34.2 2 1 3 3 2 5-2 2-4 2-6 2-4 0-7-1-11-3l-10-6-15.1-12-8-7.1c-9-6-18.1-5-27.1 0l-6 5-1 3 1 1c4 8 6 17 7 26.1l1 22.1c-.4 19-3.4 38-9 56.2-3 15-11.1 26.1-23.2 34.1l-6 6c-3 2-3 2-1 4l8 7.1 8 7c8.1 7 11.1 16.1 10.1 25.1l-1 5c-1 2-2 2-3 1l-2-2-5-5c-3-2-7-3-11-2l-11.1 3c-10 2-20-4-22-16v-1c0-2-1-2-2.1-1l-4 5-7 6h-6l-7-7-5.1-4h-1v4c-2 9-11 16-22.1 14l-8-2c-8-3-14 0-19.1 5l-2 3c-1 1-3 1-3-1l-1-4c-1-9 1-18 9-25l10-8 7-8.1c2-1 1-2 0-3l-7-5c-13-9-20-21.1-24-35.2-5.4-23.7-8-48-8-72.3 1-11 3-22 8-33v-3.1c-6-5-12-9-20.1-9-4 0-8 1-12 4l-8 6-16.2 13-10 6a31 31 0 0 1-13 3c-4 0-6-2-4-6l1-1c7-11 13-23 19-36l7-12.1c8-12 20.1-19 34.2-22.1l13-1h-1Zm10 105.5c0 20.7 5.3 41 15 59.2 9.2 13.6 18.5 27 28.1 40.2 8 9 18 16 29.1 23 3 2 5 2 8 0l1-1 21.1-16c7-5 12-11 16.1-17l17-26.2a111 111 0 0 0 16.1-59.2v-19c-1-14.1-6-26.2-16-37.2-9-10-19.1-18-31.1-25.1-12-6-24.1-9-38.2-6-5 1-11 2-16 5-14.1 7-26.1 17-36.2 29.1-7 8-11 17-12 26.1-2 7-2 14-2 24ZM429.6 319c-6 0-12 1-17.1 3l-22 9v1h1c9 6.1 16 13.1 23 22.2l1 1h3v-2c4-5 8-8 15-9 8.1-1 15.1 0 22.2 5l10 7 11 11 10 8c4 3 7.1 5 12.1 6h1l-1-1c-7-7-11-15-16-23l-6-12a54.1 54.1 0 0 0-47.2-26.2Zm-125.5 12-1-1-17-7a63 63 0 0 0-23.2-4 55 55 0 0 0-43.1 23.1l-7 12a81.7 81.7 0 0 1-18.1 26.2v1h1l5-2c5-2 9-5 13-9l10-10.1 11.1-10c7-5 16-6 24.1-6 7 1 13 4 16 10l1 1 2 1 1-3c7.1-8 14.1-15 23.2-20.1l1-1 1-1Zm51.2-13c1 0 2 0 2-2-1-3 0-7 2-10l5-10c4-6 4-11.1 0-16.1l-1-2-4-10-1-4c-1-5.1-4-8.1-9-10.1h-6c-4 2-7 5-8.1 10-1 7-3 12-7 17-3 4.1-2 9.1 0 13.1l5 8c2 5 4 9.1 4 14.1 0 2 0 2 2 2h16Zm28 200.8-2 2-11 9c-2 2-2 2-1 4v2c4 9 9 11.1 18.1 10.1l7-1c6 0 11 1 16 5h1v-1c-1-7-5-12-11-16l-4-2h-1c-5-2-8-5-11-10.1l-1-1v-1ZM310.2 546c4 0 7-1 10-3 3-3 4-6 5-9 1-1 1-3-1-4l-12-9.1c-1-2-2-2-2 0-3 5-7 8-12 10l-7 4c-5 4-7 9-8 14.1v1h1l1-1c5-3 10-4 16-4l9 1ZM263 268c0-7 2-13.1 7-19.1l2-5v-4c1-4 3-7.1 6-8.1l12.1-5c10-2 18.1 7 15 17-2 3-4 6-8 7l-9 2c-5 1-10 3-13 8.1l-8 14-2 3-2-4v-6Zm39.2-29.2c0-5-4-10-9-10s-9 1-11.1 6l-4 7c-1 4-2 6-5 9l-4 6.1c-2 3-3 7-3 11v1l1-1c2-6 6-11 11-14l2-2c4-5 9-7 16-7 4 0 6-2 6-6ZM431.6 269l-1 7-2 2-1-1-1-3-8-13c-3-5-7.1-7-12.1-8l-9-2c-6-1-10.1-6-9.1-13 1-6.1 5-11.1 12-11.1 2-1 5 0 7 1l6.1 2c5 3 8 6 8 12 0 3 2 6 4 9 4 5 5 11.1 6 18.1Zm-4-2c-1-6-2-12-7-17-3-2-4-4-5-7l-3.1-7c-2-4.1-5-6.1-9-7.1-6-1-13 4-12 11 1 4 3 5 6 5h3c4 0 8 2 11 5l3 3c5 4.1 10 9.1 12 15.1h1v-1Zm-44.2 304.2c4 0 7 1 11 5 2 3 4 6 3 10l-4 9c-2 4.1-5 6.1-8 8.1-7 2-14 0-16-8l-1-9c-1-8 6-15.1 15-15.1Zm-1 4h-2c-5 0-10 5-9 11 0 6 4 10 9 13.1l6 1c3-2 7-6 6-12l-2-8c-1-4-3-5-8-5Zm-68.4 29c-5 0-9-3-12-6-3-4-4-9-5-13s1-6 3-9c4-4.1 12-6.1 18-3.1 5 2 9 9 8 15l-1 7c-1 5.1-6 9.1-11 9.1Zm-2-29c-3 0-6 0-8 3l-2 10c-1 5 1 8 4 10 3 3 7 3 10 0 3-2 5-5 6-8 2-6 1-10-4-14l-6-1Z"/>
    <path d="m305 471.7 1-8c2.1-8 3.1-15 3.1-23.1 1-9 0-17-3-26.1l-4-19c-1-5.1-2-10.1-1-15.1s3-9 6-13c2-1 4-3.1 7-3.1h2l-1 2-1 2c-7 5-9 12-9 20.1 0 6 2 12 4 17l5 14.1c2 5 3 10 3 16 0 6.1 0 13.1-2 19.1l-6 14.1-2 3-1 1-1-1Zm71.4-33.1c0-7 1-13 3-18l5-13.1 4-15c1-5.1 1-10.1-1-14.1-1-5-4-8-8-11-1-1-2-1-1-3.1h3c3 1 5 3 7 6 3 4 4 8 5 13l-2 18.1-6 22.1-1 22.1 4 22.1 1 4-1 1-1-1-2-2c-4-8-7-16-8-24l-1-7.1Zm-26.1 53.2-1 10-1 3-1 1-2-1v-3l-1-10v-7c1-2 2-2 3-2l3 3v6Zm109.2 19.7 2.8 2.8 2.8-2.8-2.8-2.8-2.8 2.8Zm-6-19.1c0 .4-.3 6.8-.1 13.3-6.9.5-5.8-13.3-5.4-15 .2-1.4-4.4 1.7-6.6 3.8.7 1.3 1.7 1 3 .5-.6 6.2 3.8 11.8 9 11.7.2 6.5.9 12.6 2.7 13.1.2.1.5-6.5.6-13.8 12.2-3.8 7.5-18.3 7.5-18.3-.2-.8-2 .4-6 3.9 1.6 1.7 2.4.7 3.6.3 1 1.9 1.4 10.5-5.1 13.1l.3-18c0-.2-.2-.3-.4-.3-1.8.2-5 3.4-7.6 6 1.4 2.2 3.2.2 4.6-.3"/>
  </g>
</symbol></svg>
