<svg xmlns='http://www.w3.org/2000/svg' viewBox='0 0 696 830' fill='none'><symbol id='TIGC_EC_Outline'>
  <g fill="#1E2346">
    <path d="m455 141.5-2-3-22.1-23.1-33.2-36.2A1391.8 1391.8 0 0 0 346.5 30l-1 1-46.2 46.2-31.2 34.1-28 29.2-4.1 4v2h1l2-1c8-6 16-10 25.1-14 13-6.1 26.1-10.1 40.2-15.1 7-2 15-3 23.1-3h42.2c7 0 15 1 22.1 3a381.2 381.2 0 0 1 60.3 24l3 1m-219 532h-1l3 3.1 21.1 22 36.2 40.2 29.1 33.2 13 15 9.1 9h2l9-9 17.1-20 43.2-49.2c12-13.4 24.4-26.4 37.2-39.2v-1h-1l-3 2c-12 7-25.1 12-38.2 15l-23.1 4-34.2 5.1-21-1-39.2-6a166 166 0 0 1-59.3-23.1m436-256-1-1-5-5-17.1-21a1541.4 1541.4 0 0 1-69.3-99.5l-16.1-25-31.2-40.2-1-1h-1l1 3 10 21a4301 4301 0 0 1 19.2 50.3c8 22 12 45.1 15 68.2 2 16 2 33.1 3 49.2l-1 31.1-1 11-2 17.1-4 33.2c-3 23.8-10.8 46.6-23 67.2l-1.1 3 2-2 44.2-57.2 60.3-79.3 18-21 1-2M160.8 593.1v-1l-2-3a288.1 288.1 0 0 1-28.2-64.3l-6-38.1-2-23.1-2-25.1a456 456 0 0 1 20-147.6l16.1-41.1a177.5 177.5 0 0 1 20.1-38.2v-1h-1l-3 4-28.1 33.2-25.1 37.1a878 878 0 0 1-63.3 92.4l-25.1 31-7 8.1v3l5 5c23.8 30 47.2 60 70.3 90.4 18 26 37.1 50.2 57.2 74.3l3 3 1 1m412-158.6-1-23.1a564.5 564.5 0 0 0-9.1-73.3c-2-13-6-26-11-39.1l-19.2-50.2c-5-11-10-22.1-17-32.2a572.4 572.4 0 0 0-40.2-53.2c-11-11-24.1-20-39.2-26a293.4 293.4 0 0 0-52.2-15.1l-32.2-4-8 1h-5c-31.9 4.3-63 13.1-92.5 26-12 7.1-23 17.1-32.1 28.2l-28.1 38.1a179 179 0 0 0-20.1 39.2L149.6 293a349 349 0 0 0-21 90.4l-2.1 36.1c-1.6 21.1-.6 42.4 3 63.3l6 29a224 224 0 0 0 33.2 78.4 561 561 0 0 0 58.3 65.2c20.6 18 45.6 30.3 72.3 36.2l25.1 5 14 2a197 197 0 0 0 35.2-2l26.1-5a154 154 0 0 0 76.4-41.2 877.5 877.5 0 0 0 38.2-39.1c28.4-35 46.8-77 53.2-121.5 4-17 6-34.1 5-55.2M347.5 21l1 1 3 2 16 15 29.2 25.2c12 11 25.1 22 36.2 34l31.1 32.2a747.5 747.5 0 0 1 89.4 112.4c7 11 16.1 21.1 24.1 31.2A616.7 616.7 0 0 1 673 408.5l4 8 1 5-2 3a469 469 0 0 1-44.2 66.3l-31.2 40.1c-25.6 29-51.4 57.8-77.3 86.4a830 830 0 0 0-55.3 63.2A1268.8 1268.8 0 0 1 366.6 792l-14 13c-4.1 4.1-6.1 4.1-10.1 0l-14-12a1338 1338 0 0 1-127.7-144.5l-18-20-45.3-48.3-36.1-40.1c-28-34.9-54-71-78.4-108.4l-4-7-2-3 1-4 3-6.1c16-27.1 32.2-54.2 50.2-80.3 11.1-17 24.2-32.1 37.2-48.2l22.1-25.1 20.1-27.1c30.2-41 62.8-80.2 97.4-117.4l26.2-27.2 35.1-31L342.5 25l4-3 1-1"/>
    <path d="m348.5 636.3 10-1 3-1c10.1-2 20.2-6 30.2-10l19-11a233.7 233.7 0 0 0 70.4-64.3l18-36.1-1-4-6-6-1-1-2 1-3 4c-3 5-7 11-12 15l-6 5-11.1 5-3 3-4 1v-1l1-3 6-5 3-2v-1l-6-4c-9-7-19.1-14-26.1-24-1-2.1-2-2.1-3-1l-1 1-19.1 16-5 4c-3 3-3 3 0 5v1a187 187 0 0 0 26 19h-1c-3-1-7-2-11-5-4-2-8-5-11-9l-14.1-10c-6-3-12-8-17-14l-11.1-12.1-14.1-16h-2v2c-7 12-16 23-27.1 32-5 5-11 9-17.1 11.1-6 2-11 5-16 10l-5.1 3c-1 0 0-3 3-5l8-8 2-1v-2c-4-3-6-6-8-10l-1-1h-2l-3 3c-7 10-16 18-26.1 25-2 1-2 1-1 2l1 1 12 14.1c4 5 9 9 15 12l9.1 4 2 1v1l-10-3-13-8-11.1-9c-7-5-13-11-17-18L229 516.8l-1-2h-3l-1 2c-4 7-8.1 13-14.1 19v3c3 8.1 7 15.1 13 21.2a227.9 227.9 0 0 0 114.6 75.2l11 1M180.7 423.5c.5 23.4 3.6 46.6 9 69.3 4.4 12.8 9.8 25.2 16.2 37.1l2-2 16-14c3-2 3-2 5 0l2 2 13.1 12 2 3h2l1-2 23.2-19 5-4 4-3h4c4 3 9 6 12 11h2l12.1-9 31.2-30.2 2-2h3l6 3c6 4 11 8 15.1 13l15 16.1 9.1 10h2l12-9 17.1-12c3-2 5-2 8-1l7.1 4 8 8 8 8 9.1 7.1h3l4-4c5-6 11.1-10 18.1-15 1-2 2-2 4 0l3 3c2 1 3 3 5.1 3l2-6c6-14.1 9-30.2 10-45.2 2-13 2-26.1 2-39.2l-1-14c0-9-1-17.1-3-26.1l-8-31.2c-5-18-12-36.1-20-52.2L459 251l-8-11-8-9.1c-4-5-8.1-9-14.1-13l-18.1-12.1c-5-4-11-7-16-9-13.1-6-26.2-11-40.3-15-4-2.1-9-1-14 0l-7 2a326.3 326.3 0 0 0-48.3 21l-15 11c-7 4-14.1 10-19.1 17.1-6 6-11 12-15.1 19L214.9 290c-9 16-16 32.1-20 50.2l-8.1 28.1c-3 11-4 21.1-5 32.1l-1 23.1m342.5-9c-1 34.3-7.6 68.4-20 100.4l-13.2 29c-4 9.1-10 18.2-16 26.2l-14 17c-8.1 8-16.2 16.1-26.2 22.1l-35.2 20.1c-12 5-24 9-36.1 11-7 2-14.1 2-21.1 2l-2-1a163 163 0 0 1-72.4-28c-12-8-23-17.1-33.1-28.1a496 496 0 0 1-28.1-41.2l-14.1-31.1a306.8 306.8 0 0 1-13-150.6l6-24a234 234 0 0 1 51.2-96.5l14-17a150 150 0 0 1 82.4-49.2c15.1-2 16.1-2 30.2 0 20 4.4 39.1 12.6 56.2 24 10 9.1 20.1 17.1 29.2 28.2l14 16a244 244 0 0 1 51.3 101.4l7 33.2 2 15 1 21.1"/>
    <path d="M438 371.3v-1l1 1 1 4 2 12.1 5 11 4 3 2 1v-2c-2-3-3-7-3-10l-4-10c-3-4-5-10-5-15 0-5.1 0 0 1 0l1 3c2 4 4 8 7 10 5 5 10 10 12 16l1 1v-7l-5-9-6-7-3-6-1-1h2v1l11 9 3 2h1v-1l-10-17.1a43.9 43.9 0 0 0-8-11c-4-4-8-6-13.1-6-6 1-12 2-18 5-8.1 5-15.2 11-22.2 18l-13 11-1 1v1l1 1h5l3-1 3-5 15-13 3-1-2 3-3 3v2c3 1 4 2 5 4l1 2c2.1 3 5.1 5 8.1 6l3-1v-3l2-4v-1l1 2-1 3v6c0 2 2 3 4 3l2-3 1-4 1 4v5c1 1.1 2 2.1 3.1 1.1 3-1 4-2 4-5l-1-11Zm-63.4 12-16-1c-7-2-12.1-5-18.1-9l-10-9-6.1-4c-7-7-16-9-26.1-6l-16.1 6-23.1 13c-6 4-12 7-19 9l-11.1 4h-2l1 1.1 11-1c8-1 16-4 23.1-7l7-4 3-1v1l-2 2-13 8-14 5c-5.1 1-9.1 3-12.1 6-4 3-7 7-9 11h2c4-4 9-5 14-7l7-2c8-2 16.1-6 22.1-11l10-9 2-2h1l-6 8a41.6 41.6 0 0 0-7 21h2l5-8 4-5c5.1-4 8.1-9 12.1-14l2-3c1-1 0 0 0 0v2l-4 9-8 16-1 2h1l2-1 6-8 3-2 1-1v1l-1 3v1h2c2 0 4 0 6 2s4.1 2 6.1 0l5-7 5-6v2l-1 3-5 8-2 3v1l5 1 4 1 4 2v1h-12l-5-2h-2l-5-2-2-1c-2-2-6-2-8 0l-3 3-5.1 2-2-2 2-3v-4c1 0 1 0 0 0s-8 9-9 13l-1 3.1-1 1-1-1-2-7 1-11v-3l-2 1c-5.1 4-11.1 6-18.2 7l-10 2c-7 2-13 5-18 10-1.1 1-2.1 3-3.1 2-2-1 0-3 0-4 3-8 8-14 14-20l1-1v-1h-2l-6-2.1-3-1v-2l3-1 19.1-8c12-7 23.1-13.1 34.2-21.1l10-5c13-6 25.1-6 37.2 2l17 12c5 4 10.1 8 16.1 10l9 3h5.1c3-2 6-3 8-6a457 457 0 0 0 27.2-23l18-9c7-1 13.1-1 19.1 1 4 1 6 3 9 6s6 7 8.1 12c3 6 7 11 12 16l6 7 2 1v2c-4 0-8 0-11-2l-2-1-2-1v2c3 7.1 3 13.1 1 20.2l-1 1-1-1v-2c-2-5-4-9-8-12.1l-2-1v2c1 5 2 10 5 15v1h-1c-6-1-11-4-14-10l-2-5h-1l-2 1c-3.1 1-5.1 1-7.1-2-1-1-1-2-3-1l-6-3-2-2-5.1-1c-4-1-6-3-7-6l-2-3c-1-2-2-2-4-1-4 3-7 6-9.1 10v2l4 3c5 2 7 8 4 12h-1l-2-2c-2-1-3-2-6-1l-8 2c-3 2-7 4-9 7l-7.1 7a27 27 0 0 1-19.1 8.1l-8 1c-7 0-14.1 2-20.1 5l-10 6-6.1 5-12 3.1-6-1-1-2 3-1 8-6 1-1-1-1c-3 0-5-1-8-3v-2l13-8.1 4-4 8-1h1l-1 1h-2l-7 5-2 2-6 4-2 1 1 1 6-1 6-4c3-3 7-4 11-5h1l-1 1c-6 3-11 7-15 12l-9 8 1 1c3-1 7-2 10-5l7-5 5-4c6-5 13.1-7 21.2-8l15-2c6-1 11-5 16.1-9 1-1 0-1-1-2l-5-2h4l9-1 7-3 7-2c3.1-1 6.1 0 9.1 3 0 0 1 1 1-1 0-3-2-5-5-6.1l-4-1c-2-1 0-2 0-2v-1l-5-2h-11"/>
    <path d="m328.4 402.5-1-2c4-3 7-7 13-9l1 1-7 6-4 3-2 1m13-82.4-5 5-4-5 4-5 5 5m-41-63.1-4 5-4-5 4-5 4 5M225 447.7l-5 5-4-5 5-5 4 5m28.2 25.1 3 4v2l-3 4-4-5 4-5m128.6-251 4 5-4 4.1h-1l-3-4 4-5M247 315l-4-6 4-5 4 5-4 6m116.6-21-4 5-4-5 4-5 4 5m67.3-22.1-4 5-4-5 4-5 4 5M458 309l-4 5-5-5 5-5 4 5m27.1 126.5c0 1-4 6-5 5l-4-4 4-6 5 5m-93.6 6.4c0 .4-.3 6.8-.2 13.4-6.8.5-5.7-13.4-5.3-15.1.2-1.4-4.4 1.7-6.7 3.8.7 1.3 1.8 1 3 .5-.5 6.2 3.9 11.9 9 11.8.2 6.4.9 12.5 2.7 13 .2.1.5-6.5.6-13.7 12.3-3.9 7.5-18.4 7.5-18.4-.2-.8-2 .3-6 3.9 1.6 1.7 2.4.7 3.6.3 1 2 1.4 10.5-5 13.2l.2-18.1c0-.2-.2-.3-.4-.3-1.8.2-5 3.4-7.5 6.1 1.4 2.2 3 .2 4.5-.4m6 19.2 2.7 2.8 2.9-2.8-2.9-2.8-2.8 2.8Z"/>
  </g>
</symbol></svg>
