<svg xmlns='http://www.w3.org/2000/svg' viewBox='0 0 696 830' fill='none'><symbol id='VDIC_EC_Outline'>
  <g fill="#1E2346">
    <path d="m454.5 140.3-1-2-24-24-5-5-32-36.2-13.1-12-28-29c-4-4-3-4-7 0l-43 43-16 18-30 32.2-11 11-8.1 8v1h1l1-1a174 174 0 0 1 48-22l20-7c10-3 20-3 30-3h37.1l20 3 23 8c12 4 24 10 35 16l3 1M347.5 796h1l14-15 6-7 17-19.1 20-22 25-28.2 22-23 2-2v-1h-1l-3 2a167.7 167.7 0 0 1-53 17l-27 5-22 1h-12l-4-1-18-3-26-4a160 160 0 0 1-51.1-21v1l6 7 26 27 8 9 23 25.1 19 22 9 11.1 10 10 9 9M578.6 421l-1 25-1 13.1-3 24c-2 17.6-5 35-9 52.2-4 14-10 27-16 39.1l-2 2v1h1l6-7c18-22 35-46.1 52-69.2l27-35 16-21.1 22.1-26v-2l-11-12.1-20-26-21-29.2a975.2 975.2 0 0 1-59-89.2l-25-32-2-2h-1l2 3 8 19 10 26a429 429 0 0 1 18 54.2l4 27 4 35.1 1 30.1M176.2 211.5v-1l-1 1-10 12-19 23-25 35.2a932.5 932.5 0 0 1-78.1 112.2l-18 22.1-1 1v2l5 6 24 29.1c13 15 24 31 36 47.1l42 56.2 24 29 4 5h1l-2-3a275.3 275.3 0 0 1-26-58.1c-4-14-6-28-7-42.1l-2-18-2-16.1c-1.5-18-1.9-36-1-54.1l2-22c.5-9.2 1.5-18.2 3-27.2 2.6-20.5 7.7-40.8 15-60.1l16-41.1c5-13 11-24 18-35.1l2-3M572.6 431l-1-12-1-16-1-15a189 189 0 0 0-4-31.1l-5-26.1c-3-14-8-27-13-40.1l-15-39.1c-5-14-11-27-20-39.1a673.1 673.1 0 0 0-43-55.2l-13-10a369.1 369.1 0 0 0-92.1-28l-13-1h-5l-8 1-11 1-29 6c-11 3-22 5-33 10a116 116 0 0 0-52.1 38l-28 38.2c-8 12-14 24-19 37l-17 43.2a313 313 0 0 0-19 83.2l-2 22-1 13-1 20.1a230 230 0 0 0 3 51.2 1250 1250 0 0 0 17 63.1 252 252 0 0 0 55 84.2l18 18c21.7 21.1 48.7 36 78 43.2l25 5c5 2 11 2 17 3a228 228 0 0 0 32.1-2l24-5 21-5c23.8-8.2 45.5-22 63-40.1l20-19 19.1-22.1c38-50 57.1-111.7 54-174.5Zm102.1-4a421.6 421.6 0 0 1-43 65.2l-18 22-23 29.1-25 28.1-28 31-30.1 32.2c-11 11-21 23-31 36l-32 38.1-29 34.1-16 17-36.1 37.2-12 9-1 2h-5l-3-2-12-11-38-39.1-16-17-23-26.1-25.1-31.1-19-23a470.5 470.5 0 0 0-30-33.2l-25-27c-23-25.9-45.7-52-68.1-78.2l-31-39.1c-12-16-22-33.1-32-50.2l-4-6-1-2c-1-3-2-4 0-8l10-16c22.4-35.6 46-70.4 71-104.3 14.3-18.4 29-36.4 44-54.1l27-37.1A995 995 0 0 1 304.5 59l34-32 8-6.1h2l5 3 13 13 23 20 18 15.1c34.1 31.1 65.7 65 94 101.3l30.1 38 19 28.2c9 13 20 25 30 37a577 577 0 0 1 59 79.3c13 20.1 25.8 40.5 38.1 61.1 0 1 2 2-3 10Z"/>
    <path d="M325.4 291.7v-4l-1 1-12 17 2 1 5 2 2-1 4-16m-2 61.1-6 2-1 1-8 17 10-1h1c3-1 3-1 4-4l1-9 1-3c0-2-1-2-2-3m58-49c4 0 8-3 10-7.1v-1l-2-2-8-7-12-12-4-5h-1v2l5 15 5 12c2 4 1 4 7 5m-40-82.2c0-2 0-2-1-1l-4 20-2 27.1-3 15-3 7-1 6.1-2 16-2 16-4 17.1v3l1 1 5-1 1-2 1-9 4-28 3-23.1 5-39.1a416 416 0 0 0 2-25Zm-83 122.3h4c3-1 4-3 4-5l-1-3-5-9a31 31 0 0 0-11-10l-2 1-3 4-10.1 17-2 3v3l9 4h7l2-2c3-2 5-3 9-3m201.2-21 3-1 2-2v-3l-5-5a129 129 0 0 1-16-24.1h-3l-2 3c-4.9 9-10.3 17.6-16 26l1 2c4 1.2 8 2.2 12 3 4 1 8 0 11-1s6 0 9 1l4 1m-65-22-5 2-2 2c-2 2-4.1 3-7.1 3h-2l-1 2 1 5c4.1 10.8 7.1 21.8 9 33.1h1l1-2 9-11c4-5 8-11 14-14 1-1 2-3 1-4l-2-1-7-8-6-6-4-1m-7 71 7 1 2-2v-2l-2-1-9-12-6-3-8 1-8 1h-16l-12-2h-4l-3 2v2c-1 4-2 7-1 10 0 2 0 3 2 3h10l35 1 13 1m-70-46v-2l1-10v-2l-4-2h-2c-3-2-4-1-6 2l-3 3c-2 4-5 7-9 10a78 78 0 0 0-13 12c-2 2-2 3 0 5l7 10 7 6 8 4h1l6-8c2-2 3-5 3-8 2-6 3-13 3-20m54 23h8c1 0 2-1 2-3l-1-3-5-16-10-42.1c-2-8-4-16-8-23l-7-21.1-4-18v-3.1s-1-1-2 1v7l-1 19-2 19.1-3 24-3 21.1-4 32.1v4l1 1h3l12-1c6-2 11-1 16 0l2 1 6 1m-42 166.5v10l1 19v2c0 2 1 3 3 3l5-1c5-1 10-2 15-1l7 2h12c4.8-1.7 9.9-2.7 15-3 2 0 3-1 3-2l1-4v-12l1-13 2-25.1v-6l-2-1h-25l-7-1-6 1c-4 1-7 2-11 1l-11-1h-4v3l1 29m-27 95.3v10c0 2 0 3 2 3l10 5 6 2 1-1v-1l1-21 1-18v-27.1c-1-9-2-17-1-25v-10.1l1-28 1-23.1v-11l-2-30.1V414l1-20v-16c-1-1.1-2-2.1-4-1.1l-1 1-9 3h-1c-2 0-3 1-4 3v2l-1 16c-1 11.1-1 21.1 1 31.1 1 9 1 17-1 25.1v22a130 130 0 0 1 0 42.2l-2 22 1 8 1 18.1v13l-1 26.1m26 2v20l2 2c6 1 12 3 19 3h1l8-1 8-2c8.3-2.1 16.3-5.2 24-9l1-2v-2l1-19v-39.1c0-5-1-7-6-7h-1l-14-2h-9l-5 1c-6 1-11 2-17 1l-7-1c-3 0-4 2-4 5l-1 1-1 13v17l1 21.1m67-220.6v-10l-1-3h-3l-3-1-9 1c-6 1-12 0-18-1l-14-1h-6l-10-1c-2 0-3 2-3 3 0 10-1 20 1 29l1 11.1c1 13-1 25-2 37.1v19c0 2 2 4 4 4h3a43.8 43.8 0 0 1 21 0h13l20-1c4 0 5-1 6-4v-9l-1-22-1-14v-11l2-26.2m-48-210.5-7 1-31 11-25 13-18 12.1-9 9a715 715 0 0 0-23.1 29.1l-11 18a355.8 355.8 0 0 0-36 96.3l-4 19v3l2-1 6-11a80 80 0 0 1 22-25l14-14 12-18.1 4-6c2-3 5-4 8-2 2 0 5 1 7 3 6 3 12 8 17 14l2 4 2-1 1-2a86 86 0 0 1 19-20c5-3 9-8 12-12 4.5-8 9.2-15.6 14-23.1 2-9 3.7-18 5-27.1l10-38.1 1-5c1-1 2-2 3 0l2 2 1 3 9 23c3 8 6 15 6 24.1l2 3 16.1 13c7 5 13 11 18 19.1l3 3 9 10 8 7 1 1h1l1-2 4-8c4.2-7.8 9.6-15 16-21 1-2 2-2 4 0l2 2 6 6c7 6 13 14 19 22 4 5.4 8.8 10 14 14a31 31 0 0 1 9 11.1c1 2 3 4 5 4 1 1 1 0 1-1l-1-5c-5-18-12-35-21-52.1l-16-28.1-7-10a158.8 158.8 0 0 0-25-28.1 605.7 605.7 0 0 0-38-24c-13-6-25-10-38-14l-8-1M228.3 347.7l-1 1-3 5c-5 8-10 15-17 21.1l-13 13-9 10c-2 2-4 4-4 8v2c-.4 19.8.6 39.6 3 59.2 2 14 6 27.1 11 39.1 8.4 19 18 37.5 29 55.2a288.7 288.7 0 0 0 35 34 335.8 335.8 0 0 0 37 23.1l1-3 1-92.2-2-26 1-8.1 1-12V407l1-22-1-2-2-1c-1 0-2-1-1-2l2-6.1 3-5c2-3 2-3 0-5l-8-4-11-7-10-8-1-1h-2c-2 2-6 3-9 3h-2l-4 2-2 3c-5 5-9 5-14 2l-6-4-2-2h-1M515.5 423l-1-22-1-9c-1-11-4-22.1-7-33.1l-3-4-8-6-2-3-5-4-5-4-3-4.1c-2-3-3-6-6-8-3-3-3-3-7-1-3 2-5 3-9 1l-2-1h-6l-3 2c-5 4-11 5-17 1l-4-2-4-2c-2-1-3-1-4 1l-1 1-7 8-8 8-11 10v1l3 4 9 11 3 5c1 1.1 0 2.1-1 2.1l-2 1h-2l-2 1v2l1 28v4l1 12.1-1 20-2 17.1v12l1 26.1v36.1l-2 27v58.2l2 1 1-1c24-14 46.2-31.3 66-51.1 7-8 14-17 18-27l7-13.1 12-27c5-15.1 8-30.2 10-46.2l2-32M173.3 414l1-17a737 737 0 0 1 13-64.2 233.1 233.1 0 0 1 44-85.2l13-15 5-7 17-17.1 14-11 16-10a198.8 198.8 0 0 1 46-14.1l18 1c12.1 2 23.1 7 35.1 11 10 4 19 10 28 18l17 16.1 9 10 13 15c22.7 26.4 39 57.6 48 91.3 5 20.9 9.1 42 12.1 63.2v11c1 24.7-1.7 49.3-8 73.2-3 12-7 23-12 34l-12 27.1c-4 9-10 17-16 25l-14 17.1c-9 10-19 19-31 26.1-10 7-21 13-32 18-15 6.7-31 10.8-47.1 12l-24-3c-14-3-27-9-40-15l-25-15c-10-7-19-15-27.1-24-9.9-12.1-19-24.8-27-38.2l-17-38a203.3 203.3 0 0 1-15-65.2l-2-30.1"/>
    <path d="m370.4 414-1-5-1-10-1-5-2-5c-3-2-5-3-8-1s-4 4-5 7l-1 9v7l-1 3c0 5 1 8 5 10l2 2c4 1 8 0 10-3 2-2 3-5 3-9m5-9a50.3 50.3 0 0 1-5 19c-4 6-11 6-15 4l-5-5-5-10c-2-3-2-6-1-10l2-3c3.3-4.7 6.6-9.5 10-14 5-1 10-1 13 3s4 8 5 12l1 4m-13 61.1 1-4c1-2 1-4-1-6a10 10 0 0 1 1-11c2-2 4-2 6 0 1 2 2 5 1 8l-1 4-1 4 1 4v4c-1 3-4 4-6 1l-1-4m-4-15-1 5-1 6 1 3v5l-4 1c-1 0-2 0-3-2v-4c1-4 1-7-1-10v-7l1-2c2-3 5-3 7 0l1 5m12 58.1c0 2 0 4-2 5v7l1 6c0 2-1 3-3 4.1h-2l-3-2v-5l1-4v-6l-1-8 1-2c2-3 5-3 7-1l1 6m-12 0-1 6c-2 1-2 3-1 5l1 5-1 4c0 2-1 3-3 3s-3-1-3-3l-1-2 1-5 1-3-1-4-1-4c-1-3 0-5 1-7l1-1c2-2 4-2 5 0 2 2 2 4 2 6m-103.7 15.6c0 .4-.3 6.8-.2 13.3-6.8.5-5.7-13.3-5.3-15 .2-1.4-4.4 1.7-6.6 3.8.7 1.3 1.7 1 3 .5-.5 6.2 3.8 11.8 9 11.7.1 6.4.8 12.5 2.6 13 .2.2.4-6.5.6-13.7 12.2-3.8 7.6-18.3 7.6-18.3-.2-.8-2 .3-6 3.9 1.6 1.7 2.4.7 3.6.3 1 1.9 1.4 10.5-5 13.1l.2-18c0-.2-.2-.3-.4-.3-1.8.2-5 3.4-7.5 6 1.3 2.3 3 .3 4.4-.3m6 19.2 2.7 2.8 2.8-2.8-2.8-2.8-2.8 2.8Z"/>
  </g>
</symbol></svg>
