<svg xmlns='http://www.w3.org/2000/svg' viewBox='0 0 696 830' fill='none'><symbol id='VMOC_EC_Outline'>
  <g fill="#1E2346">
    <path d="m236.3 147.5 1-2 31.2-16c11-5 23.2-9.1 35.2-12.1 12.1-4 25.2-5 37.3-4h28l24.2 3 23.1 8c13.3 4.4 26 10.1 38.2 17h1v-1l-9-9-27.2-28-33.2-36.2L355 36l-5-5c-2-2-2-2-4 0l-7 7-24.2 24a2296 2296 0 0 0-64.4 68.3l-13 14-2 2.1 1 1M348 796.1h1l7-7 17.2-19.1 9-10 34.2-39.2 36.2-39.2 3-3h-1l-2 1-14 7c-13.1 5-25.2 8-39.3 11l-21.1 3a181 181 0 0 1-48.3 2l-12-2-29.3-5c-15-4-30.1-10-43.2-17l-9-5h-1v1l4 3 28.1 29.1 25.2 28.1 14 17L325 772l11 12 11.1 12h1m183.1-571.2 1 2 10 22.1 8.1 21 13.1 34.2a270 270 0 0 1 13 70.3c2.3 23.7 3 47.5 2.1 71.3l-1 16-4 31.2-3 22a179.2 179.2 0 0 1-22.2 61.3l-2 3v1l1-1 1-1 12-14 25.2-33.2 45.3-61.2 26.2-32.2 15-18v-3l-5-5-19-24.2c-16.2-21-31.3-41.1-45.4-62.2L573.4 280c-4-7-9-15-15.1-22L536 228.7l-4-4h-1M161 592.3l-2-3c-6-9-11.1-20.1-16.1-30.2a224 224 0 0 1-16.1-56.2l-2-22-3-24.2-1-32.1v-16c.6-23.3 3-46.5 7-69.3 3-18.1 8-36.2 15-53.3l26.2-61.2 7-12 2-2h-1v-1l-1 1-13 15-17.1 22.1-23.2 31.1a1012.7 1012.7 0 0 1-77.4 113.5c-7 8-13.1 17-21.2 24v2l5 6 19.2 23.2 37.2 49.2c16.1 21 31.2 43.1 48.3 63.2l23.1 29.1 3 3h1m412.6-161.6-1-20-3-33.2a334.9 334.9 0 0 0-18.2-79.3l-18-49.2c-5.1-12-11.1-23-17.2-33.1a620.6 620.6 0 0 0-48.3-59.3c-7-7-15-12-24.1-16l-15.1-6-29.2-9-29.2-5.1-8-1H335l-17 3-24.2 5-32.2 10a147.3 147.3 0 0 0-50.3 39.2L189 206.7a243 243 0 0 0-24 45.3l-14 39.2a398.7 398.7 0 0 0-21.2 90.3l-2 20.1-2 35.1c-.8 14.8.2 29.7 3 44.2 4.4 19.9 9.4 39.7 15 59.2 12 33.3 31.3 63.5 56.4 88.4l22.1 22a161.6 161.6 0 0 0 77.5 41.2l20.1 4c9 2 19.1 3 29.2 3l17.1-1 7-1a1964 1964 0 0 0 53.4-13 182 182 0 0 0 50.3-33.1l23.1-23.1 18.1-19c34.8-45 54.3-100 55.4-156.7v-21M348 21l1 1 7 6 37.3 33.2c42 35.4 80 75 113.7 118.4l28.1 38.2 19.2 25c7 11.1 16 21.2 25.1 31.2 25.6 28 48.2 58.6 67.4 91.4l25.2 40.1 6 10v8l-5 8.1-15.1 25.1c-8 13-17.1 25.1-26.2 36.2L600.5 532l-21.1 24.1-37.2 41.2-18.1 19a1094 1094 0 0 0-86.6 101.5l-22 24-29.3 32.2-19 19-14.2 13.1h-1c-3 2-5 3-8 0l-10-9-35.3-35.2-18.1-20-25.2-28.2-33.2-40.1-21-25.1-18.2-19.1-36.2-39.2A2474 2474 0 0 1 88.4 523l-36.2-46.2c-10-14-20.1-29.1-28.2-44.2l-5-8-1-1c-1-4-2-4 1-8A947.5 947.5 0 0 1 121.6 270l23.2-31.1 29.1-39.2 34.3-43.2A947.7 947.7 0 0 1 343 25l4-3 1-1"/>
    <path d="M415.4 336.2h-1l-2 3-7 9 2 1.1 1-1 7-12m32.2 8-11-13h-1v1l2 3 6 9c1 2 1 2 3 1h1v-1m-184.1 44.2 9 9c2 2 2 2 4 1l1-1v-2l-14-7M486.8 300v-1l-5-10h-2l-5 3c3.9 2.8 8 5.5 12 8m-259.5 98.4 6-4 7-6 1-1h-1l-15 7c-3 2-3 2-1 3l2 1h1m189.1-47.2 2-2 3-14v-4h-1l-1 2-8 14-1 2 1 2h5m-208.2 61.2v-1l-4-6h-4l-14.2 5-1 1v1h23.2m111.6 7h1c2 0 3 0 1-1l-5-2-15-6-8.1 6c-1 1 1 1 1 1h1l13 1 11.1 1m121.8-73.2-12.1-21.1h-2l5 24.1 1 2h2l6-3v-2m-140.8 19h2l17.1-4 4-1 1-1-6-10h-1c-4 6-10 11-16 15l-1 1c-1 0-1 0 0 0m129.7-14-4-23-1-2.1s-2-1-2 3l-2 18-1 2.1 2 2 7 1c1 1 2 0 1-1m-25.1 1h-3l-2 2-16.2 20v2.1l6 2h2l4.1-7 8-17 1-2m-185 45h-1l-5.1 2-9 4.1 6 8 1 1h2l11-11-1-2-3-2h-1m24.2 18h3c1-1-2-2-3-3h-2l-7-4-6.1-5h-2c-4 2-7 5-10 9v1l4 1 23 1m55.4-8-15-8c-4.1-2-3.1-2-7.1 1h-1v2l5 6 7 7 2 1h1l8.1-9m173-30-5 5v1l1 3 12.1 18c2 3 2 3 5 1l4-2v-2l-3-3c-5-3-8-7-9-13v-1l-3-6c-1-1-1-2.1-2-1m-2-5.1-16.2-21.1c-2-2-3-2-5 1v3l12 19c3.1 5.1 2.1 5.1 8.1 2.1l2-1-1-3m-183 45.2v-1l-11.1-12-1-1c-2-1-2-1-4 1l-1 1-6.1 4-3 2c-2 0-4 2-5 3v1l10 1 21.1 1m-35.2-5 1 1 8-6c2-2 4.1-4 7.1-4l2-1v-2.1l-9-11-7-7h-1v2l-1 28m126.7-32-5 6-7 13v3l8 5 2-1 9-17 1-3v-2l-6-4h-2m-128.8 2h-1l-5 4-13.1 13-1 1v2h1l8 4 4 2 1 2 5.1 3 1-1v-30M181 431.5l1 16v3.1c0 3 1 2 3 2l4-1c2 0 2-1 2-2l1-9v-5l-1-13.1 1-6-7-2h-2l-2 2v15m229.4-46.2c1 0 2 0 2-2l2-13 3-11-1-2-9-2-1 1-9.1 17-3 7 7 3 9 2m24.2-27 1 1 5 25 1 1 1 1h2c6.1-1 11.2-4 16.2-6v-3l-12-20-2.1-2h-6l-4 1-2 2m2 28 2-1-5-19-1-7c-1-2-1-2-3.1-2l-9 1-2 2v4l-4.1 19v1l1 1 1 1h20.1m-25.1 5-2-2-17.1-3h-2l-1 2-9.1 17.1-1 2 1 2 1 1 24.2 5c2 0 2 0 2-2l3-14 1-8m39.2 25h2c9-1.5 17.8-4.3 26.2-8 1 0 2-1 1-2l-6-8-8-13-3.1-1c-5 3-10 4-16.1 4h-3l-1 2 8 26m-31.2-25h-4l-2 1-3 16v6c-1 1 0 2 1 2l8 1h25.2l2-2-1-2-5-18c-2-8-1-6-8-5l-13.2 1m-223.3 24-1 1v23.2l1 10 1 1h2l19.1 1 4 1 2-2 1-7v-18.1l1-7-2-1h-3l-12-1-13.1-1m306.8-45.2v-3l-1-1-1 1a84.1 84.1 0 0 1-21.1 8l-1 1 2 2c5 6 9 14 13 21v4.1l-1 2-5 5-2 3c0 12.1 0 25.1 2 37.2v21l-1 6.1v1h1l1-1 14.1-17 1-4-1-11.1 1-16 1-13.1-1-8-1-12.1v-26.1m-53.3-55.2h-1l-18.1 4v1l1 2 16.1 18 21.1 23.2 4 6c2 2 2 2 4 1l11.1-4 15.1-4 4-1v-2l-1-1-9-8.1-12-8a27 27 0 0 1-12.1-9l-19.2-17.1-2-1h-2M230.3 416.6l-1 2 1 2c0 5 1 10-1 15l-1 7 1 9.1v1l2 2h1l22.1 8 13.1 5 1-1 2-15v-9l-1-13 1-7.1c1-3 0-3-2-3l-24.1-2-14.1-1m145.9 57.2v9c0 1 0 2 2 3l13 6 11.1 4c2 0 2 0 3-2v-3c1-7-1-15-2-22l-1-9c0-4 0-9.1 2-13.1l1-6 1-13c0-6.1 1-5.1-5-6.1l-21.1-6c-3-2-3-2-3 2v2l-1 22 1 6v11.1l-1 15m-2-50.1v-8l-2-2-2 1-29.2 7-4 1c-2 0-2 0-2 2v10l-1 10v10.1c1 6 2 13 1 20 0 3.1 0 3.1 3 2.1h1l19-5 13.1-4 1-2v-8l1-12.1 1-22.1m107.7-10c-1 0-18.1 6-28.2 5h-2c-2 0-2 1-2 3v9c0 6 0 11 2 17l2 9.1-2 12-2 15.1 1 11 1 1 3-1 25.2-11c5-2 5-1 4-7l-1-17v-8.1l-1-38.2m-69.4-90.3-17.1 5c-7 3-15.1 4-23.2 5l-9 1c-4 0-8 2-11 3a70.7 70.7 0 0 1-27.2 7l-1 1 12 15.1a132 132 0 0 0 32.2 26.1h3l6-8 22.2-28.1 13-16c2.6-5 6-9.4 10.2-13.1h-1l-9.1 2m-4 165.6v6l1 1 2 1c7 0 14 .4 21.1 1h14.1l1-2v-9c1-8 0-15-2-22v-14.1l1-6 1-8-1-15.1-2-2-11 1-23.2 2c-2 0-2 1-2 2l1 16 1 6 1 8.1c1 6 0 13-2 19-1 5.1-2 10.1-1 15.1m-79.5-59.2v-5l-2-2h-5l-19.2-1-12-2-11.1-1-5 1v6c1 6 1 11-1 17v10.1c1 5 2 10 1 15 0 2-1 3 3 4h2c8 2 16 4.1 24.1 4.1l15.1 1 10 2 1-1-1-7c-1-6 0-11 2.1-16v-9.1l-2-16m6-11.1h3l27.2-5 6-2v-1l-2-2-6-6c-2-2.1-2-4.1-1-6.1l2-3 2-2c2-2 2-2 0-3l-21.1-10c-6-4.1-12-9.1-17.1-15.1v-1h-2l-15.1 3-41.3 8-11 2c-2 0-1 1 0 1l20 11 41.3 24.1 11.1 6 4 1m181.1 6-1-24c-.7-12.3-2.7-24.4-6-36.1l-2-1-2 3v4l3 20c0 7 1 13.1-1 20.1v5l1 21.1 1 16.1c1 4-1 7-3 10-6.9 7.7-13.5 15.3-20.2 23.1l-6 3-6 4-16.1 6-8 2-15.2 1.1-5 1h-14l-13.2-2-12-5-11.1-6-3-1c-2-1-3-2-3-4v-14.1l-1-1-1 1-16.2 6-12 3h-4v1l1 1c8 3 15 8 22 14 9.3 9 18.4 18 27.3 27.2 15.1 12 34 18.3 53.3 18h17c7.1 0 15.2-1 22.2-4l5-2 4-3 8.1-17c9-20.1 14.1-41.2 16.1-62.3l1-28.1M478.8 283l-2-3-15.1-26-9-13.1-9.1-10-13.1-13.1-18.1-12-19.1-10.1c-12.1-6-25.2-10-37.2-14-5-2-10.1-1-16.1 0l-13.1 5-16.1 6c-10 4-20.1 9-29.2 15l-11 8-18.2 15.1c-7 9-14 17.1-19 27.1l-3.1 5-14 24.2-10.2 22-1 2v1h1l2-2c9.5-6.6 18.9-13.3 28.2-20h8l16.2 8 8 4h2l9-7 15.2-12c7-5 13-9.1 20.1-11.1l6-4 13.1-12 15.1-12.1c2-2 4-2 6-1l3 2c4 2 6.1 5 9.1 8l17.1 17 8 9.1 3 6 2.1 4h3l1-1c9.7-6.5 18.8-13.9 27.2-22 3-2 5-2 7-1l4 2 5 5 7.1 7c4 5 10 8 16.1 10 4 2 4 2 7-1l3-3 1-2M182 402.5v3c0 1 0 2 1 1l4-2 17.1-8c15.4-7.1 30.8-14.2 46.3-21.1l13-3 10.2-2 5-2 35.2-22.1c5-3 9-5 14-6l22.2-5 24.2-7 32.2-8.1 42.2-7 5 1 3 2 16.2 10c5 3 10 7 14 12 5 6 12.1 11.1 18.2 16.1 0 0 1 1 1-1-4.3-13.4-8.6-26.8-13.1-40.1l-4-5-13.1-10.1c-3-4-6-6-10-7l-7.1-1c-3-1-7-3-10-6l-5.1-6-6-7.1-4-4h-3.1l-2 2-6 7-6 8c-4.1 5-8.1 8-14.2 11l-6 3-9 7.1c-5 4-11.1 6-17.2 7l1-1 14.1-11 7-5 3-2v-2l-4-9c-2-4-5-6-8-8.1l-5-3c-6-2-10-6-13-11l-3.1-5-4-7.1-4-3h-3l-5.1 5c-6 5-11 11-15.1 17l-9 9.1c-4 3-8.1 6-11.1 11-4.1 6-8.5 11.6-13.1 17.1l-4 3s-2 0-1-1l6-7 14-22v-1h-2c-8 3.7-15 9.6-20 17-5 7-10.1 12-18.2 15-3 1-5 3-7 6l-3 3-8 9.1-6.1 5c-1 0-2 0-1-1l3-4 15.1-20v-1l-13-7.1-9.1-6c-3-2-4-2-7 0l-2 2-3.1 4c-5 6-11 11-18.1 14l-8 5c-2 1-3 1-3 3l-2 3-3.1 8.1-11 42.2c-3.1 9-4.1 19-4.1 29.1m13 52.2h-3l-7 2c-2 0-2 0-2 3l1 6c2 16.1 6 30.2 12 44.2l13.2 29.1 19 28.2c24 26.6 53.6 47.4 86.6 61.2l22.1 7 12.1 1 12-2c13.2-3 26.2-7 37.3-14a369 369 0 0 0 52.3-36.2l22.2-22c5-7 10-14.1 13-21.1 0 0 1-1-1-1l-6 3c-9 3-18.1 4-27.2 4h-20a60 60 0 0 1-29.3-7c-7-4-13-8-19-14.1-7.1-5-12.2-12-18.2-18l-8-10.1c-7-6-15.1-11-25.2-12l-12-2h-19.2c-9 0-19.1-1-28.2-4l-15-6.1-27.2-12c-11-4-23.1-6-35.2-7m-21.2-41.3v-19l4-27.1a2207 2207 0 0 1 16.2-57.3c9.8-22.6 22.7-44 38.2-63.2l21.1-24.1a144.6 144.6 0 0 1 93.6-49.2l10 1a138 138 0 0 1 68.5 30.1c7 6.5 13.7 13.2 20 20.1l16.2 19a239.2 239.2 0 0 1 51.3 99.5l6 25 4 25.2A285 285 0 0 1 503 517l-13.1 28c-4 9.1-9 17.1-15.1 25.2l-17.1 20a284.8 284.8 0 0 1-57.4 38.2c-13 6.3-27 10.7-41.2 13H341l-11.1-1c-15.1-4-29.2-9-43.3-17l-22.1-12c-12-8.1-22.1-17.1-32.2-28.2a494 494 0 0 1-24.1-35.1L191 509.9a290.5 290.5 0 0 1-17.2-96.4"/>
    <path d="m225.3 489.9-12.1 2v-1l11-2c8.1-1 17.2 0 25.2 3 10 4 19.1 9 28.2 16l14 12 24.2 21.2c7 7 15.1 12 23.1 18a106 106 0 0 0 37.3 14l13 4.1a130.4 130.4 0 0 1-48.2-13 202 202 0 0 1-55.4-39.2l-15-14a80 80 0 0 0-24.2-16.1c-7-3-14.1-5-21.1-4M348 611.3c-12 0-24.1-4-34.2-11-9-6-16.1-13-23.1-21.1l-22.2-24c-5-6.1-10-10.1-16-14.1l-13.2-4v-1h2l6 1a37 37 0 0 1 14.2 7l17 15 17.2 17c7 7.1 15 13.1 23.1 18.2a77 77 0 0 0 32.2 11l16.1 2v1l-6 2-13.1 1m-40.2-163.6c0 3-2 5-4 4-3 0-5.1-2-5.1-4s3-4 5-4 4 2 4 4m-56.3-8c0 2-1 3-3 3-1 0-3-1-3-3l3-3c2 0 3 2 3 3m-41.2-4-1 2-2-2 1-2 2 2M415 566.3c0 .4-.3 6.8-.2 13.3-6.8.5-5.7-13.3-5.3-15 .2-1.5-4.5 1.7-6.7 3.8.7 1.3 1.7 1 3 .5-.6 6.2 3.9 11.8 9 11.7.2 6.4 1 12.6 2.7 13 .2.2.5-6.5.6-13.7 12.3-3.8 7.6-18.4 7.6-18.4-.2-.8-2 .3-6 4 1.5 1.7 2.4.7 3.6.3 1 1.9 1.4 10.5-5.2 13.1l.3-18c0-.3-.2-.4-.4-.4-1.8.2-5 3.4-7.5 6.2 1.4 2.2 3.1.2 4.5-.4m6 19.1 2.8 2.8 2.8-2.8-2.8-2.8-2.9 2.8Z"/>
  </g>
</symbol></svg>
