<svg xmlns='http://www.w3.org/2000/svg' viewBox='0 0 30 30' fill='none'>
<symbol id='Bar'>
<path d="M24.1645 9.13534H21.6198L22.2931 8.22455C22.4812 8.26459 22.6793 8.29461 22.8773 8.29461C23.0357 8.29461 23.1942 8.2846 23.3526 8.25458C24.0457 8.12447 24.6398 7.73413 25.0359 7.15363C25.8577 5.95259 25.5606 4.30117 24.3625 3.47046C23.1744 2.63974 21.5406 2.94 20.7188 4.14103C20.3227 4.72153 20.1742 5.43215 20.3029 6.12274C20.3623 6.46303 20.491 6.78331 20.6693 7.06355L19.1444 9.12533H12.7678C12.3222 7.26372 10.6786 5.87253 8.69827 5.87253C6.3813 5.87253 4.5 7.77416 4.5 10.1162C4.5 12.4582 6.3813 14.3598 8.69827 14.3598C9.36167 14.3598 9.99537 14.1897 10.5796 13.8894L14.8372 18.6836C14.9759 18.8337 15.1739 18.9238 15.3719 18.9638V24.999H12.748C12.2034 24.999 11.7579 25.4494 11.7579 25.9999C11.7579 26.5503 12.2034 27.0007 12.748 27.0007H16.3225C16.3225 27.0007 16.3423 27.0007 16.3522 27.0007C16.3621 27.0007 16.372 27.0007 16.3819 27.0007H19.9563C20.5009 27.0007 20.9465 26.5503 20.9465 25.9999C20.9465 25.4494 20.5009 24.999 19.9563 24.999H17.3324V18.9638C17.5305 18.9238 17.7285 18.8337 17.8671 18.6736L24.8675 10.7868C25.125 10.4965 25.1943 10.0761 25.0359 9.70583C24.8774 9.33551 24.521 9.11532 24.1348 9.11532L24.1645 9.13534ZM22.3624 5.28202C22.4911 5.10186 22.6892 5.00178 22.8872 5.00178C23.0159 5.00178 23.1348 5.04181 23.2536 5.11187C23.5407 5.31204 23.6199 5.7224 23.4219 6.01265C23.3229 6.15277 23.1744 6.25285 23.006 6.28288C22.8377 6.31291 22.6694 6.28288 22.5308 6.18279C22.2436 5.98262 22.1644 5.58228 22.3624 5.28202ZM12.5302 13.0787L10.8073 11.1371H17.6889L16.2532 13.0787H12.5302ZM8.70817 12.3581C7.49027 12.3581 6.49022 11.3573 6.49022 10.1162C6.49022 8.87511 7.48037 7.87425 8.70817 7.87425C9.5795 7.87425 10.3221 8.38469 10.6786 9.12533H8.57945C8.19329 9.12533 7.83683 9.35553 7.6784 9.71584C7.51998 10.0761 7.58929 10.4965 7.84673 10.7968L9.18344 12.2981C9.02502 12.3281 8.87649 12.3581 8.70817 12.3581ZM16.7185 17.0221H16.0254L14.3026 15.0805H18.4414L16.7185 17.0221ZM20.2237 13.0787H18.7187L20.1544 11.1371H21.9565L20.2336 13.0787H20.2237Z" fill="currentcolor"/>
</symbol>
</svg>
