<svg xmlns='http://www.w3.org/2000/svg' viewBox='0 0 30 30' fill='none'>
<symbol id='ColdSandwich'>
<path d="M27 13.2751C27 12.6917 26.68 12.1862 26.21 11.8945L20.46 5.88622C19.52 4.98206 18.25 4.74873 17.11 5.28345L4.04 11.739C4.04 11.739 3.99 11.7779 3.96 11.7973C3.4 12.0598 3 12.614 3 13.2653V15.6667C3 16.0653 3.15 16.4153 3.39 16.707C3.14 17.1639 3 17.7181 3 18.3209C3 18.9236 3.15 19.4973 3.41 19.9639C3.16 20.2847 3 20.7028 3 21.1792V23.1528C3 24.1833 3.72 25 4.64 25H25.35C26.27 25 26.99 24.1931 26.99 23.1528V21.1792C26.99 20.7028 26.83 20.2847 26.58 19.9639C26.84 19.4973 26.99 18.9334 26.99 18.3209C26.99 17.7084 26.84 17.1737 26.6 16.707C26.84 16.425 26.99 16.0653 26.99 15.6667V13.2653L27 13.2751ZM18.07 19.3417L21.7 17.3098H24.53C24.65 17.3098 25 17.6598 25 18.3209C25 18.982 24.65 19.332 24.53 19.332H18.06L18.07 19.3417ZM5.47 19.3417C5.35 19.3417 5 18.9917 5 18.3306C5 17.6695 5.35 17.3195 5.47 17.3195H7.32L8.3 19.3514H5.47V19.3417ZM10.8 19.9348L9.53 17.3098H17.69L11.66 20.6736C11.54 20.7417 11.46 20.732 11.41 20.7125C11.24 20.6639 11.06 20.4695 10.94 20.2167L10.8 19.9348ZM5.47 15.3653H5V13.5862H25V15.3653H5.47ZM18 7.03344C18.44 6.81955 18.82 7.04316 19.02 7.24732L23.23 11.6515H8.66L18 7.04316V7.03344ZM24.99 23.0556H5V21.2764H9.27C9.64 21.9084 10.17 22.3653 10.81 22.5597C11.03 22.6278 11.27 22.6667 11.49 22.6667C11.89 22.6667 12.29 22.5597 12.66 22.3556L14.59 21.2764H25V23.0556H24.99Z" fill="currentcolor"/>
</symbol>
</svg>
