<svg xmlns='http://www.w3.org/2000/svg' viewBox='0 0 30 30' fill='none'>
<symbol id='ColdDrinks'>
<path d="M20.9824 3.76023C20.8616 3.21998 20.3503 2.89983 19.8576 3.02989L16.3717 3.97033C15.3863 4.23045 14.6519 5.14087 14.5311 6.22137L14.3359 8.04221H10.5803C9.70649 8.04221 9 8.80256 9 9.743V25.3002C9 26.2406 9.70649 27.001 10.5803 27.001H17.8404C18.7142 27.001 19.4207 26.2406 19.4207 25.3002V9.743C19.4207 8.80256 18.7142 8.04221 17.8404 8.04221H16.2043L16.3717 6.44147C16.3995 6.18135 16.5762 5.96125 16.8086 5.90122L20.2945 4.96078C20.7965 4.83072 21.094 4.28047 20.9731 3.75022L20.9824 3.76023ZM14.1313 10.0531L13.9547 11.6939H10.8592V10.0531H14.1313ZM10.8592 25.0201V13.6948H13.7502L12.8392 22.3988C12.7834 22.9491 13.146 23.4393 13.6573 23.5094C13.6944 23.5094 13.7316 23.5094 13.7595 23.5094C14.2243 23.5094 14.6333 23.1292 14.6798 22.6189L15.6187 13.6948H17.5708V25.0201H10.8592ZM17.5708 10.0531V11.6939H15.8232L15.9998 10.0531H17.5708Z" fill="currentcolor"/>
</symbol>
</svg>
