<svg xmlns='http://www.w3.org/2000/svg' viewBox='0 0 30 30' fill='none'>
<symbol id='Dessert'>
<path d="M23.6378 14.8465C23.4751 14.6467 23.2716 14.4967 23.0478 14.3868C23.1699 14.027 23.2513 13.6472 23.2513 13.2474C23.2513 11.5083 22.0101 10.0491 20.3519 9.66934C20.4129 7.41056 19.2023 6.11126 18.3986 5.50158C17.9714 5.17176 17.4118 5.06182 16.8726 5.19175C16.5166 5.2817 16.2114 5.4816 15.9672 5.74146C15.5908 5.41163 15.1432 5.18176 14.6549 5.07182C14.543 4.3622 13.9733 3.2428 12.3659 3.01293C11.8064 2.92297 11.2977 3.31276 11.2163 3.86247C11.1349 4.41217 11.5215 4.9119 12.0811 4.99186C12.4473 5.04183 12.5897 5.18176 12.6304 5.31169C12.4371 5.41163 12.254 5.52157 12.0811 5.6615C11.4707 6.16123 11.1044 6.86085 11.023 7.63044C10.5144 7.90029 10.0566 8.29008 9.72086 8.77982C9.43601 9.20959 9.2529 9.65934 9.19186 10.1291C7.75743 10.5888 6.74011 11.8981 6.74011 13.4573C6.74011 13.7871 6.80115 14.097 6.89271 14.4068C6.68924 14.5067 6.50612 14.6567 6.35352 14.8366C6.03815 15.2263 5.92625 15.7361 6.04833 16.2258C6.39422 17.655 7.98124 22.1526 13.9834 22.6124V25.0011H11.5012C10.9417 25.0011 10.4839 25.4508 10.4839 26.0005C10.4839 26.5502 10.9417 27 11.5012 27H18.5004C19.0599 27 19.5177 26.5502 19.5177 26.0005C19.5177 25.4508 19.0599 25.0011 18.5004 25.0011H16.0181V22.6124C22.0101 22.1526 23.5972 17.665 23.9532 16.2258C24.0753 15.7361 23.9532 15.2263 23.648 14.8366L23.6378 14.8465ZM14.9397 8.01023C14.9194 8.2601 14.7973 8.47998 14.604 8.63989C14.4107 8.79981 14.1666 8.86977 13.9122 8.84978C13.6579 8.82979 13.4341 8.70986 13.2713 8.51996C13.1086 8.33006 13.0373 8.09019 13.0577 7.84032C13.078 7.59046 13.2001 7.37058 13.3934 7.21066C13.5663 7.07074 13.78 7.00078 13.9936 7.00078C14.0241 7.00078 14.0547 7.00078 14.0852 7.00078C14.3395 7.02077 14.5633 7.1407 14.7261 7.3306C14.8889 7.5205 14.9601 7.76037 14.9397 8.01023ZM10.2702 11.9681C10.5652 11.9681 10.8501 11.8182 11.0332 11.5883C11.2163 11.3584 11.2977 11.0586 11.2367 10.7687C11.1756 10.4489 11.2367 10.1791 11.43 9.88922C11.4808 9.80926 11.5622 9.7493 11.6334 9.67933C11.664 9.71931 11.6843 9.75929 11.7148 9.78927C12.2235 10.389 12.9458 10.7588 13.7291 10.8287C13.8207 10.8287 13.9122 10.8387 14.0038 10.8387C14.6956 10.8387 15.367 10.5988 15.9062 10.1591C16.5166 9.65934 16.893 8.94973 16.9642 8.17015C16.9642 8.0802 16.9642 7.99024 16.9642 7.91029C17.0965 7.73038 17.2592 7.5205 17.3915 7.26064C18.2053 8.01023 18.4902 9.05967 18.2257 10.389C18.1646 10.6988 18.2562 11.0186 18.4698 11.2585C18.6835 11.4884 18.9989 11.6083 19.3244 11.5783C19.3244 11.5783 19.4973 11.5583 19.5075 11.5583C20.4435 11.5583 21.2064 12.3079 21.2064 13.2274C21.2064 13.5872 21.0945 13.927 20.8809 14.2069H9.00874C8.86631 13.977 8.76458 13.7172 8.76458 13.4473C8.76458 12.6377 9.41567 11.9781 10.2499 11.9481L10.2702 11.9681ZM15.0211 20.6634C15.0211 20.6634 15.0109 20.6634 15.0008 20.6634C15.0008 20.6634 14.9906 20.6634 14.9804 20.6634C10.372 20.6634 8.73406 18.0648 8.15419 16.2258H21.8372C21.2573 18.0648 19.6194 20.6634 15.0109 20.6634H15.0211Z" fill="currentcolor"/>
</symbol>
</svg>
