<svg xmlns='http://www.w3.org/2000/svg' viewBox='0 0 30 30' fill='none'>
<symbol id='GourmetLounge'>
<path fill-rule="evenodd" clip-rule="evenodd" d="M21.1958 5.47988C22.4675 5.47988 23.668 5.96988 24.5836 6.84988L24.5531 6.85988C25.4586 7.73988 25.9876 8.94988 25.9978 10.1999C26.0283 11.1699 25.7434 12.1099 25.1839 12.9199C24.7668 13.5199 24.2072 14.0099 23.5663 14.3599V24.4099C23.5663 25.8399 22.3861 26.9999 20.9313 26.9999H9.06873C7.61389 26.9999 6.43374 25.8399 6.43374 24.4099V14.3599C5.79279 14.0199 5.24341 13.5299 4.81612 12.9199C4.25656 12.0999 3.9717 11.1599 4.00222 10.1799C4.01239 8.92988 4.53125 7.73988 5.44689 6.84988C6.36252 5.95988 7.60371 5.43988 8.87543 5.47988C9.36377 5.47988 9.8521 5.55988 10.3201 5.69988C10.8796 4.71988 11.7444 3.93988 12.8025 3.46988C14.2166 2.84988 15.8241 2.84988 17.228 3.46988C18.2861 3.93988 19.1509 4.71988 19.7104 5.69988C20.1886 5.54988 20.6973 5.45988 21.1958 5.47988ZM9.08908 24.9999H20.9516H20.9618C21.2874 24.9999 21.562 24.7399 21.562 24.4099V19.1399H8.48883V24.4099C8.48883 24.7299 8.75334 24.9999 9.08908 24.9999ZM23.5357 11.7799C23.8511 11.3199 24.0139 10.7899 23.9936 10.2299L24.0139 10.2399V10.2199C24.0037 9.48988 23.7087 8.78988 23.1797 8.27988C22.6506 7.76988 21.9588 7.48988 21.1958 7.48988C20.6769 7.48988 20.1682 7.61988 19.7308 7.87988C19.4663 8.02988 19.1305 8.05988 18.8457 7.94988C18.5506 7.83988 18.3268 7.59988 18.2352 7.30988C17.9504 6.40988 17.2891 5.67988 16.4141 5.28988C15.5392 4.89988 14.532 4.89988 13.6571 5.28988C12.7821 5.66988 12.1107 6.40988 11.8258 7.30988C11.7342 7.60988 11.5104 7.83988 11.2154 7.94988C10.9203 8.04988 10.5948 8.02988 10.3303 7.86988C9.8928 7.61988 9.38411 7.47988 8.87543 7.47988H8.85508C8.1124 7.47988 7.40024 7.76988 6.88138 8.26988C6.35235 8.78988 6.04714 9.46988 6.04714 10.2099C6.03696 10.7799 6.19974 11.3199 6.51513 11.7799C6.84069 12.2399 7.28833 12.5799 7.81736 12.7699C8.21414 12.9099 8.48883 13.2899 8.48883 13.7099V17.1399H21.562V13.7099C21.562 13.2899 21.8266 12.9099 22.2335 12.7699C22.7625 12.5799 23.2204 12.2399 23.5357 11.7799ZM16.2109 10.64H17.7776H17.7878C18.1541 10.64 18.3067 11.1 18.0116 11.31L16.7501 12.21C16.6076 12.31 16.5568 12.48 16.6076 12.63L17.0858 14.09C17.1977 14.44 16.8009 14.72 16.5059 14.51L15.2444 13.61C15.1121 13.52 14.929 13.52 14.7967 13.61L13.5352 14.51C13.2402 14.72 12.8434 14.43 12.9553 14.09L13.4335 12.63C13.4741 12.47 13.4233 12.3 13.291 12.21L12.0295 11.31C11.7344 11.1 11.887 10.64 12.2533 10.64H13.8201C13.9828 10.64 14.1253 10.53 14.1761 10.38L14.6543 8.92004C14.7662 8.58004 15.2647 8.58004 15.3766 8.92004L15.8548 10.38C15.9057 10.54 16.0481 10.64 16.2109 10.64Z" fill="currentcolor"/>
</symbol>
</svg>
