<svg xmlns='http://www.w3.org/2000/svg' viewBox='0 0 30 30' fill='none'>
<symbol id='Hamburger'>
<path fill-rule="evenodd" clip-rule="evenodd" d="M26.64 16.241C26.87 16.641 27 17.1026 27 17.6051H26.99C26.99 18.518 26.57 19.318 25.93 19.8V20.241C25.93 22.8667 23.99 25 21.6 25H8.39C6 25 4.06 22.8667 4.06 20.241V19.8C3.42 19.318 3 18.518 3 17.6051C3 17.1026 3.14 16.641 3.36 16.241C3.16 15.9128 3.09 15.5333 3.15 15.1538C3.54 12.7744 5.56 5 14.97 5H15H15.03C24.44 5 26.46 12.7744 26.85 15.1538C26.91 15.5333 26.83 15.9231 26.64 16.241ZM5 17.6051C5 17.9333 5.22 18.2205 5.47 18.2205H8.21L7.49 16.9795H5.47C5.21 16.9795 5 17.2769 5 17.6051ZM16.89 16.9795H9.83L11.33 19.5538L16.89 16.9795ZM24.53 16.9795H21.75H21.74L19.06 18.2205H24.53C24.79 18.2205 25 17.9436 25 17.6051C25 17.2667 24.78 16.9795 24.53 16.9795ZM15.01 7.05128H14.98H14.97C7.87 7.05128 5.82 12.1692 5.23 14.9282H21.52H21.53H24.78C24.2 12.1795 22.15 7.05128 15.04 7.05128H15.01ZM6.07 20.2718C6.09 21.7487 7.12 22.9487 8.4 22.9487H21.6C22.88 22.9487 23.91 21.7487 23.93 20.2718H14.63L11.33 21.8C11.2 21.8615 11.06 21.8923 10.92 21.8923C10.58 21.8923 10.25 21.7077 10.06 21.3897L9.41 20.2718H6.07ZM13.8 12.0051C13.77 12.2923 13.51 12.4871 13.24 12.4564C12.96 12.4256 12.77 12.1589 12.8 11.882C12.83 11.5948 13.08 11.4 13.36 11.4307C13.64 11.4615 13.83 11.7282 13.8 12.0051ZM11.8601 9.62559C12.1301 9.65636 12.3901 9.46148 12.4201 9.1743C12.4501 8.89738 12.2601 8.63071 11.9801 8.59995C11.7001 8.56918 11.4501 8.76405 11.4201 9.05123C11.3901 9.32815 11.5801 9.59482 11.8601 9.62559ZM9.31 11.1437C9.27999 11.4309 9.01999 11.6258 8.75 11.595C8.47 11.5642 8.28 11.2976 8.31 11.0206C8.34 10.7334 8.59 10.5386 8.87 10.5693C9.14999 10.6001 9.34 10.8668 9.31 11.1437ZM16.9399 12.4565C17.2099 12.4257 17.4099 12.159 17.3799 11.8821C17.3499 11.6052 17.0899 11.4001 16.8199 11.4308C16.5499 11.4616 16.3499 11.7283 16.3799 12.0052C16.4099 12.2924 16.6699 12.4873 16.9399 12.4565ZM15.5899 8.46666C15.6199 8.74358 15.4199 9.01025 15.1499 9.04102C14.8799 9.07179 14.6199 8.86666 14.5899 8.58974C14.5599 8.31281 14.7599 8.04615 15.0299 8.01538C15.2999 7.98461 15.5599 8.18974 15.5899 8.46666ZM18.3201 9.6257C18.5901 9.59493 18.7901 9.32827 18.7601 9.05134C18.7301 8.77442 18.4701 8.56929 18.2001 8.60006C17.9301 8.63083 17.7301 8.8975 17.7601 9.17442C17.7901 9.45134 18.0501 9.65647 18.3201 9.6257ZM21.8699 11.0205C21.8999 11.2974 21.6999 11.5641 21.4299 11.5949C21.1599 11.6256 20.8999 11.4205 20.8699 11.1436C20.8399 10.8666 21.0399 10.6 21.3099 10.5692C21.5799 10.5384 21.8399 10.7436 21.8699 11.0205Z" fill="currentcolor"/>
</symbol>
</svg>
