<svg xmlns='http://www.w3.org/2000/svg' viewBox='0 0 30 30' fill='none'>
<symbol id='HotDrinks'>
<path fill-rule="evenodd" clip-rule="evenodd" d="M16.508 13.7433C16.1895 13.7433 15.871 13.5834 15.6819 13.2934L15.6919 13.2834L15.6877 13.2766C15.5827 13.1033 14.1349 10.7166 15.6521 7.89473C16.5975 6.14727 15.7827 4.70655 15.6987 4.5581C15.6943 4.55028 15.6919 4.54605 15.6919 4.54554C15.3933 4.08566 15.5227 3.46581 15.9805 3.16588C16.4383 2.85596 17.0554 2.99592 17.354 3.45581L17.3587 3.46348C17.468 3.64327 18.9184 6.02699 17.3938 8.8445C16.4184 10.6541 17.3142 12.1437 17.354 12.2037C17.6426 12.6736 17.5033 13.2934 17.0455 13.5834C16.8763 13.6933 16.6872 13.7433 16.508 13.7433ZM13.1837 13.7433C12.8652 13.7433 12.5467 13.5833 12.3576 13.2934L12.3534 13.2865C12.2484 13.1133 10.8006 10.7266 12.3178 7.90471C13.2931 6.09515 12.3974 4.60551 12.3576 4.54552C12.0689 4.07564 12.2083 3.45579 12.6661 3.16586C13.1239 2.86593 13.7311 2.9959 14.0297 3.45579L14.0338 3.46264C14.1389 3.63589 15.5867 6.02261 14.0695 8.84448C13.0941 10.654 13.9898 12.1437 14.0297 12.2037C14.3183 12.6735 14.1789 13.2934 13.7211 13.5833C13.5519 13.6933 13.3628 13.7433 13.1837 13.7433ZM19.0558 13.2934C19.2449 13.5833 19.5634 13.7433 19.8819 13.7433C20.0611 13.7433 20.2502 13.6933 20.4194 13.5833C20.8772 13.2934 21.0165 12.6735 20.7279 12.2037C20.6881 12.1437 19.7923 10.654 20.7677 8.84448C22.2849 6.02261 20.8371 3.63589 20.732 3.46264L20.7279 3.45579C20.4293 2.9959 19.8222 2.86593 19.3644 3.16586C18.9065 3.45579 18.7672 4.07564 19.0558 4.54552C19.0956 4.60551 19.9914 6.09515 19.016 7.90471C17.4988 10.7266 18.9466 13.1133 19.0517 13.2865L19.0558 13.2934ZM9.77973 14.9729H23.0369C23.8431 14.9729 24.5 15.6328 24.5 16.4426V21.6613C24.5 24.6006 22.1213 27 19.1852 27H13.6315C11.402 27 9.4911 25.6103 8.70482 23.6408C6.91331 23.4409 5.5 21.9312 5.5 20.0717C5.5 18.3521 6.7043 16.9124 8.31666 16.5525V16.4426C8.31666 15.6328 8.97355 14.9729 9.77973 14.9729ZM8.31666 18.672C7.82897 18.952 7.49057 19.4718 7.49057 20.0717C7.49057 20.6715 7.82897 21.2014 8.31666 21.4713V18.672ZM19.1951 25.0005C21.0265 25.0005 22.5194 23.5008 22.5194 21.6613H22.5293V16.9724H10.3172V21.6613C10.3172 23.5008 11.8101 25.0005 13.6414 25.0005H19.1951Z" fill="currentcolor"/>
</symbol>
</svg>
