<svg xmlns='http://www.w3.org/2000/svg' viewBox='0 0 30 30' fill='none'>
<symbol id='Kitchen'>
<path fill-rule="evenodd" clip-rule="evenodd" d="M9.05248 10.58H20.9374C21.8178 10.58 22.5281 9.87 22.5281 8.99V7.87C22.5281 7.46 22.278 7.11 21.9278 6.95L19.0266 5.4V4.59C19.0266 3.71 18.3163 3 17.436 3H12.5639C11.6836 3 10.9733 3.71 10.9733 4.59V5.39L8.06207 6.95C7.71192 7.11 7.46182 7.46 7.46182 7.87V8.99C7.46182 9.87 8.17212 10.58 9.05248 10.58ZM9.46265 8.47L12.4239 6.89C12.714 6.73 12.9141 6.44 12.9441 6.1L12.9741 5H17.0258V6.05C17.0558 6.4 17.2559 6.71 17.566 6.88L20.5273 8.46V8.57H9.46265V8.47ZM11.1433 24.2H18.8365C19.3867 24.2 19.8369 23.75 19.8369 23.2V17.47C19.8369 16.92 19.3867 16.47 18.8365 16.47H11.1433C10.5931 16.47 10.1429 16.92 10.1429 17.47V23.2C10.1429 23.75 10.5931 24.2 11.1433 24.2ZM12.1437 18.47H17.8361V22.2H12.1437V18.47ZM4.6807 13.6599H25.3193C26.2497 13.6599 27 14.4599 27 15.4499V25.2099C27 25.7099 26.8099 26.1799 26.4698 26.5199C26.1496 26.8299 25.7495 26.9999 25.3193 26.9999H4.6807C3.75031 26.9999 3 26.1999 3 25.2099V15.4499C3 14.9499 3.19008 14.4799 3.53022 14.1399C3.84035 13.8299 4.22051 13.6699 4.6807 13.6599ZM5.00083 24.9999H6.66153V15.6599H5.00083V24.9999ZM8.66236 24.9999H21.3276V15.6599H8.66236V24.9999ZM23.3285 24.9999H24.9892V15.6599H23.3285V24.9999Z" fill="currentcolor"/>
</symbol>
</svg>
