<svg xmlns='http://www.w3.org/2000/svg' viewBox='0 0 30 30' fill='none'>
<symbol id='Kitchenware'>
<path d="M26.99 13.4959C26.99 12.9463 26.54 12.4966 25.99 12.4966H25.2C23.91 10.6677 22.08 9.40849 19.98 8.92879C19.69 8.86883 19.41 8.81886 19.12 8.77889V7.99938C19.12 7.44972 18.67 7 18.12 7C17.57 7 17.12 7.44972 17.12 7.99938V8.77889C16.83 8.80887 16.54 8.85884 16.26 8.92879C16.09 8.96877 15.92 9.01874 15.75 9.06871C14.36 7.93941 12.62 7.3198 10.83 7.3198C8.74 7.3198 6.77 8.12929 5.29 9.60837C3.81 11.0874 3 13.0562 3 15.1449C3 17.2336 3.81 19.2024 5.29 20.6814C6.77 22.1605 8.74 22.97 10.83 22.97H12.34C12.45 22.99 12.55 23 12.66 23H23.6C24.16 23 24.68 22.7801 25.08 22.3904C25.48 22.0006 25.69 21.471 25.69 20.9113V14.5253H26C26.55 14.5253 27 14.0756 27 13.5259C27 13.5259 27 13.5159 27 13.5059C27 13.5059 27 13.4959 27 13.4859L26.99 13.4959ZM16.7 10.8776C17.64 10.6677 18.6 10.6677 19.54 10.8776C20.67 11.1374 21.71 11.6971 22.58 12.4966H13.67C14.54 11.6971 15.57 11.1374 16.71 10.8776H16.7ZM6.7 19.2723C5.6 18.173 4.99 16.7039 4.99 15.1549C4.99 13.6059 5.6 12.1368 6.7 11.0375C7.8 9.93816 9.27 9.32855 10.82 9.32855C11.8 9.32855 12.75 9.58838 13.6 10.0481C13.32 10.228 13.06 10.4179 12.8 10.6277C12.17 10.3479 11.5 10.208 10.81 10.208C8.08 10.208 5.85 12.4266 5.85 15.1649C5.85 17.9032 7.94 19.9619 10.55 20.0918V20.9413C10.55 20.9413 10.55 20.9713 10.55 20.9913C9.09 20.9313 7.73 20.3317 6.69 19.2923L6.7 19.2723ZM10.27 12.4966C9.72 12.4966 9.27 12.9463 9.27 13.4959C9.27 14.0456 9.72 14.4953 10.27 14.4953H10.56V18.5728C8.77 18.4428 7.36 16.9638 7.36 15.1449C7.36 13.326 8.91 11.6871 10.82 11.6871C11.08 11.6871 11.34 11.727 11.6 11.787C11.41 12.0069 11.22 12.2467 11.05 12.4966H10.28H10.27ZM23.68 20.9213L23.59 21.0112H17.29C17.24 21.0112 17.19 20.9813 17.13 20.9813H12.62L12.56 20.9213V14.4953H23.68V20.9213Z" fill="currentcolor"/>
</symbol>
</svg>
