<svg xmlns='http://www.w3.org/2000/svg' viewBox='0 0 30 30' fill='none'>
<symbol id='KitchenEquipments'>
<path d="M24.2277 11.41L22.7932 10.58L22.8241 10.34C22.9067 9.79 22.7416 9.24 22.3597 8.82C21.9882 8.4 21.4412 8.16 20.8736 8.16H20.7394L20.533 7.28C19.9345 4.76 17.9323 3 15.6619 3H13.5875C11.3171 3 9.31493 4.76 8.71635 7.28L8.50995 8.16H5.03202C4.46441 8.16 4 8.61 4 9.16C4 10.82 4.56761 13.5 6.59038 14.12L8.15906 25H8.03522C7.4676 25 7.00319 25.45 7.00319 26C7.00319 26.55 7.4676 27 8.03522 27H20.7188C21.2864 27 21.7508 26.55 21.7508 26C21.7508 25.45 21.2864 25 20.7188 25L21.0491 22.69L22.7622 21.94C23.7942 21.49 24.5373 20.62 24.8056 19.56L25.8892 15.3C26.2814 13.78 25.6106 12.22 24.2174 11.41H24.2277ZM18.5309 7.73L18.6341 8.16H15.6722V5C16.9726 5 18.1491 6.12 18.5309 7.73ZM10.7391 7.73C11.121 6.12 12.2975 5 13.5978 5V8.16H10.6359L10.7391 7.73ZM20.7704 10.16L19.2533 20.71H9.62454L9.37685 18.99H11.6163C12.184 18.99 12.6484 18.54 12.6484 17.99C12.6484 17.44 12.184 16.99 11.6163 16.99H9.08788L8.8918 15.62H11.6163C12.184 15.62 12.6484 15.17 12.6484 14.62C12.6484 14.07 12.184 13.62 11.6163 13.62H8.60283L8.53059 13.12C8.53059 13.06 8.48931 13 8.46867 12.95C8.45835 12.91 8.44803 12.88 8.42739 12.84C8.38611 12.76 8.3345 12.69 8.2829 12.63C8.26226 12.6 8.24162 12.57 8.21066 12.54C8.14874 12.48 8.06618 12.44 7.99394 12.4C7.96298 12.38 7.93202 12.36 7.89073 12.34C7.76689 12.29 7.64305 12.26 7.50888 12.26C6.69358 12.26 6.32206 11.1 6.16725 10.16H20.7704ZM10.2438 25L9.9135 22.71H18.9644L18.6341 25H10.2438ZM23.8871 14.82L22.8035 19.08C22.69 19.54 22.3597 19.92 21.9056 20.12L21.3793 20.35L22.4732 12.74L23.1544 13.14C23.753 13.49 24.0522 14.17 23.8768 14.83L23.8871 14.82Z" fill="currentcolor"/>
</symbol>
</svg>
