<svg xmlns='http://www.w3.org/2000/svg' viewBox='0 0 30 30' fill='none'>
<symbol id='Meal'>
<path d="M25.6406 18.0067C25.4506 15.9213 24.671 13.9168 23.3815 12.2666C21.8921 10.3633 19.793 8.99663 17.454 8.43982C16.9642 8.31834 16.4744 8.24747 15.9846 8.19685V7.01237C15.9846 6.45557 15.5348 6 14.985 6C14.4352 6 13.9854 6.45557 13.9854 7.01237V8.19685C13.4956 8.23735 12.9958 8.31834 12.516 8.43982C10.177 8.99663 8.07788 10.3633 6.5885 12.2666C5.29904 13.9168 4.51937 15.9213 4.32945 18.0067C3.57976 18.1181 3 18.7762 3 19.5658V22.4106C3 23.2812 3.69971 24 4.56935 24H25.4307C26.2903 24 27 23.2913 27 22.4106V19.5658C27 18.7762 26.4202 18.1181 25.6606 18.0067H25.6406ZM8.14785 13.5219C9.35735 11.973 11.0766 10.8695 12.9758 10.4038C13.4157 10.2925 13.8655 10.2317 14.3153 10.1912C14.7551 10.1609 15.2149 10.1609 15.6647 10.1912C16.1045 10.2216 16.5544 10.2925 16.9942 10.4038C18.8934 10.8594 20.6027 11.9629 21.8122 13.5219C22.8117 14.8076 23.4415 16.3667 23.6214 17.9764H6.33861C6.52853 16.3566 7.14827 14.8076 8.14785 13.5219ZM24.9808 21.9753H4.98917V20.0113H24.9808V21.9753Z" fill="currentcolor"/>
</symbol>
</svg>
