<svg xmlns='http://www.w3.org/2000/svg' viewBox='0 0 30 30' fill='none'>
<symbol id='PrivateMeal'>
<path fill-rule="evenodd" clip-rule="evenodd" d="M22.2414 13.8416H7.73144H7.72144C7.17144 13.8416 6.72144 13.3903 6.72144 12.8387C6.72144 10.9833 7.35144 9.15798 8.50144 7.70373C9.65144 6.24949 11.2714 5.21647 13.0714 4.78521C13.3071 4.73005 13.549 4.69966 13.7874 4.66971C13.8524 4.66154 13.9171 4.6534 13.9814 4.6448V4.00293C13.9814 3.45132 14.4314 3 14.9814 3C15.5314 3 15.9814 3.45132 15.9814 4.00293V4.6448C16.0371 4.65201 16.0925 4.65889 16.1476 4.66575C16.3992 4.69703 16.6453 4.72762 16.8914 4.78521C18.6914 5.20644 20.3114 6.24949 21.4614 7.70373C22.6114 9.15798 23.2414 10.9833 23.2414 12.8387C23.2414 13.3903 22.7914 13.8416 22.2414 13.8416ZM13.5514 6.73089C12.1814 7.06186 10.9514 7.84414 10.0814 8.94736H10.0914C9.43144 9.78982 8.99144 10.7827 8.82144 11.8358H21.1714C21.0014 10.7827 20.5614 9.78982 19.9014 8.94736C19.0314 7.84414 17.8114 7.05183 16.4414 6.73089C16.1214 6.65066 15.8014 6.60051 15.4814 6.58045C15.1614 6.56039 14.8314 6.56039 14.5114 6.58045C14.1814 6.61054 13.8614 6.65066 13.5514 6.73089ZM23.9615 18.1943C25.1115 17.8132 26.3715 18.3949 26.8215 19.5282L26.8315 19.4881C27.2815 20.6013 26.8115 21.855 25.7415 22.3966C23.1815 23.6903 18.4915 25.987 15.7715 26.7794C15.2515 26.9398 14.7515 27 14.2815 27C12.7115 27 11.4215 26.2779 10.3415 25.6661L10.3056 25.6458C9.76927 25.3426 9.2706 25.0606 8.7815 24.8939C8.1815 24.6933 7.4815 24.7835 6.8515 25.1546L4.5615 26.5186C4.0915 26.7994 3.4715 26.649 3.1915 26.1676C2.9115 25.6962 3.0615 25.0744 3.5415 24.7936L5.8315 23.4296C6.9615 22.7576 8.2815 22.6072 9.4415 23.0083C10.1015 23.2491 10.7215 23.59 11.3215 23.931C12.6215 24.6732 13.7515 25.295 15.2115 24.8738C17.8715 24.0915 22.8315 21.6444 24.8415 20.6214C24.9815 20.5512 25.0415 20.3907 24.9815 20.2403C24.9215 20.0898 24.7515 20.0196 24.6015 20.0698L18.3915 22.1358C17.9215 22.6774 17.2615 22.9983 16.5615 22.9983C16.2115 22.9983 15.8615 22.9281 15.5215 22.7676L10.0815 20.2102C9.5815 19.9795 9.3715 19.3777 9.6015 18.8763C9.8315 18.3748 10.4315 18.1542 10.9315 18.3949L16.3715 20.9523C16.5715 21.0426 16.8215 20.9624 16.9315 20.7718C17.0115 20.6314 16.9915 20.501 16.9715 20.4308C16.9515 20.3706 16.8915 20.2403 16.7415 20.1701L11.1915 17.5324C10.4215 17.1613 9.4915 17.2215 8.7715 17.6928L4.5415 20.4609C4.0815 20.7618 3.4615 20.6314 3.1615 20.1701C2.8615 19.7087 2.9915 19.0869 3.4515 18.786L7.6815 16.0179C8.9815 15.1755 10.6515 15.0652 12.0515 15.7271L17.6015 18.3648C18.2115 18.6556 18.6815 19.1972 18.8815 19.8491V19.8792L23.9615 18.1943Z" fill="currentcolor"/>
</symbol>
</svg>
