<svg xmlns='http://www.w3.org/2000/svg' viewBox='0 0 30 30' fill='none'>
<symbol id='Quiche'>
<path fill-rule="evenodd" clip-rule="evenodd" d="M17.3367 13.1743C17.2076 13.1743 17.0784 13.1543 16.9592 13.1043L16.9492 13.1143C16.5816 12.9542 16.3332 12.594 16.3332 12.1839V4.00042C16.3332 3.45019 16.7803 3 17.3268 3H17.3467C19.7114 3 21.927 3.91038 23.6161 5.56108C23.6279 5.56897 23.6396 5.57531 23.6508 5.58131C23.6679 5.59053 23.6836 5.59898 23.6956 5.6111C24.093 5.99126 24.103 6.62152 23.7155 7.02169L18.0521 12.8742C17.8534 13.0742 17.5951 13.1743 17.3367 13.1743ZM21.5396 6.41144C20.5957 5.70114 19.5027 5.24094 18.3303 5.08088V9.72283L21.5396 6.41144ZM23.9937 17.9462C23.9937 20.4472 22.9901 22.7082 21.3607 24.3489H21.3408C19.7113 25.9896 17.4559 27 14.9819 27C12.5079 27 10.2624 25.9896 8.63298 24.3489C7.00351 22.7082 6 20.4472 6 17.9562C6 15.4651 7.01345 13.2042 8.63298 11.5635C8.63298 11.5567 8.62836 11.5545 8.62857 11.5538C8.62866 11.5535 8.62981 11.5535 8.63298 11.5535H8.64291C10.2724 9.91281 12.5179 8.90239 14.9919 8.90239C15.5383 8.90239 15.9854 9.35257 15.9854 9.90281V15.5452L19.9498 11.5535C20.2479 11.2534 20.6751 11.1833 21.0328 11.3334C21.162 11.3834 21.2713 11.4535 21.3706 11.5535C23.0597 13.2642 23.9937 15.4451 23.9937 17.9462ZM12.5973 18.9466H8.06664C8.23555 20.1471 8.70253 21.2376 9.39803 22.168L12.5973 18.9466ZM12.5973 16.9458L9.39803 13.7244C8.70253 14.6448 8.23555 15.7453 8.06664 16.9458H12.5973ZM20.6098 13.7301L17.4063 16.9558H21.937C21.7684 15.7776 21.3128 14.6792 20.6098 13.7301ZM14.0082 10.9733C12.8159 11.1433 11.7329 11.6135 10.8089 12.3138L14.0082 15.5352V10.9733ZM14.0082 24.9291V20.3672L10.8089 23.5886C11.723 24.2889 12.8159 24.7591 14.0082 24.9291ZM19.1947 23.5886L15.9954 20.3672V24.9291C17.1877 24.7591 18.2707 24.2889 19.1947 23.5886ZM21.927 18.9566H17.3963L20.5956 22.178C21.2911 21.2576 21.7581 20.1571 21.927 18.9566Z" fill="currentcolor"/>
</symbol>
</svg>
