<svg xmlns='http://www.w3.org/2000/svg' viewBox='0 0 30 30' fill='none'>
<symbol id='TakeAway'>
<path d="M25.5455 10.33L23.5758 6.64V4.72C23.5758 3.77 22.798 3 21.8384 3H8.71717C7.75758 3 6.9798 3.77 6.9798 4.72V6.74L4.28283 11.27C4.28283 11.27 4.28283 11.31 4.26263 11.32C4.10101 11.58 4 11.88 4 12.21V24.81C4 26.02 4.9899 27 6.21212 27H23.8485C25.0303 27 26 26.04 26 24.87V12.26C26 11.59 25.8283 10.92 25.5152 10.33H25.5455ZM19.404 10.05C19.303 10.21 19.2121 10.39 19.1313 10.56C18.9596 10.51 18.7778 10.48 18.5859 10.48H7.11111L8.65657 7.89H20.7677L19.4141 10.05H19.404ZM9.0101 5H21.5556V5.89H9.0101V5ZM6.0404 24.81V12.49H18.5859C18.6364 12.49 18.6768 12.53 18.6768 12.58V25H6.24242C6.13131 25 6.05051 24.91 6.05051 24.81H6.0404ZM24 24.87C24 24.94 23.9394 25 23.8687 25H20.697V12.55C20.697 12.04 20.8384 11.54 21.1111 11.11L22.4848 8.91L23.7475 11.27C23.9091 11.58 24 11.92 24 12.27V24.88V24.87Z" fill="currentcolor"/>
</symbol>
</svg>
