<svg xmlns='http://www.w3.org/2000/svg' viewBox='0 0 30 30' fill='none'>
<symbol id='Tapas'>
<path d="M26 22.0456H25.9C25.9 22.0456 25.91 21.9772 25.91 21.9479V20.7264C25.91 19.5928 24.97 18.6743 23.81 18.6743H22.47V18.5668C22.47 16.8274 21.02 15.4202 19.25 15.4202C17.48 15.4202 16.02 16.8371 16.02 18.5668V18.9283C15.72 19.0847 15.45 19.3094 15.26 19.5831C14.96 18.3029 13.95 17.2964 12.67 16.9349V6.9772C12.67 6.43974 12.22 6 11.67 6C11.12 6 10.67 6.43974 10.67 6.9772V16.9251C10.34 17.013 10.02 17.1498 9.73 17.3257C9.44 17.1498 9.13 17.0228 8.79 16.9251V6.9772C8.79 6.43974 8.34 6 7.79 6C7.24 6 6.79 6.43974 6.79 6.9772V16.9251C5.24 17.355 4.09 18.7329 4.09 20.3844C4.09 20.9805 4.25 21.5472 4.52 22.0456H4C3.45 22.0456 3 22.4853 3 23.0228C3 23.5603 3.45 24 4 24H26C26.55 24 27 23.5603 27 23.0228C27 22.4853 26.55 22.0456 26 22.0456ZM19.25 17.3648C19.92 17.3648 20.47 17.9023 20.47 18.557V18.6645H18.02V18.557C18.02 17.9023 18.57 17.3648 19.25 17.3648ZM13.37 20.3844C13.37 21.2932 12.61 22.0456 11.67 22.0456C11.47 22.0456 11.29 22.0065 11.11 21.9479C11.34 21.4788 11.49 20.9511 11.49 20.3941C11.49 19.8371 11.35 19.3094 11.11 18.8404C11.29 18.7818 11.48 18.7427 11.67 18.7427C12.6 18.7427 13.37 19.4853 13.37 20.4039V20.3844ZM6.1 20.3844C6.1 19.4756 6.86 18.7231 7.8 18.7231C8.74 18.7231 9.5 19.4658 9.5 20.3844C9.5 21.3029 8.74 22.0456 7.8 22.0456C6.86 22.0456 6.1 21.3029 6.1 20.3844ZM17.01 22.0456C16.95 22.0456 16.91 22.0065 16.91 21.9479V20.7264C16.91 20.6678 16.96 20.6287 17.01 20.6287H23.82C23.88 20.6287 23.92 20.6775 23.92 20.7264V21.9479C23.92 22.0065 23.87 22.0456 23.82 22.0456H17.01Z" fill="currentcolor"/>
</symbol>
</svg>
