<svg xmlns='http://www.w3.org/2000/svg' viewBox='0 0 30 30' fill='none'>
<symbol id='Vegetarian'>
<path fill-rule="evenodd" clip-rule="evenodd" d="M22.5999 6.18397L26.4199 12.816C27.1999 14.1685 27.1999 15.8415 26.4199 17.184L22.5999 23.816C21.8299 25.1685 20.3799 26 18.8299 26H11.1799C9.62988 26 8.18988 25.1585 7.40988 23.816L3.58988 17.184C2.80988 15.8315 2.80988 14.1585 3.58988 12.816L7.40988 6.18397C8.17988 4.84153 9.62988 4 11.1799 4H18.8299C20.3799 4 21.8199 4.84153 22.5999 6.18397ZM20.8699 22.8142L24.6899 16.1821C25.1099 15.4508 25.1099 14.5492 24.6899 13.8179L20.8699 7.18579C20.4499 6.45446 19.6699 6.00364 18.8299 6.00364H11.1799C10.3399 6.00364 9.55988 6.45446 9.13988 7.18579L5.31988 13.8179C4.89988 14.5492 4.89988 15.4508 5.31988 16.1821L9.13988 22.8142C9.55988 23.5455 10.3399 23.9964 11.1799 23.9964H18.8299C19.6699 23.9964 20.4499 23.5455 20.8699 22.8142ZM23.17 13.437C23.09 13.1565 22.89 12.9361 22.64 12.8159C22.6201 12.8059 22.5976 12.7959 22.5751 12.7859L22.5751 12.7859C22.5525 12.7758 22.53 12.7658 22.51 12.7558C22.41 12.7258 22.3 12.7057 22.2 12.7057C21.6 12.6356 19.79 12.5454 18.51 13.5272C18.92 12.7258 19.23 11.7239 19.05 10.672C18.7 8.74852 16.79 7.54634 16.12 7.17566C15.91 7.01537 15.63 6.93522 15.35 6.98532C15.23 7.00535 15.13 7.04543 15.03 7.09552C14.93 7.14561 14.83 7.21573 14.75 7.3059C14.41 7.67657 12.73 9.63013 13.11 11.744C13.44 13.5573 15.15 14.7394 15.9 15.1802C16.19 15.7813 17.01 17.6848 17.1 20.54C17.12 21.0809 17.56 21.5117 18.1 21.5117H18.13C18.68 21.4917 19.11 21.0309 19.1 20.4799C19.08 19.9188 19.03 19.3879 18.97 18.887C19.9 18.8669 21.22 18.6565 22.12 17.7449C23.36 16.5026 23.29 14.489 23.22 13.7777V13.7776C23.22 13.6675 23.22 13.5472 23.18 13.437H23.17ZM17.07 11.0327C16.9505 10.3441 16.3149 9.72505 15.7268 9.30437C15.328 9.90497 14.9504 10.7139 15.07 11.3933C15.19 12.0846 15.83 12.7157 16.42 13.1465C16.82 12.5354 17.19 11.7239 17.07 11.0327ZM20.7 16.3323C20.31 16.723 19.62 16.8533 19.03 16.8833C19.06 16.2822 19.2 15.601 19.58 15.2103C19.96 14.8196 20.65 14.6893 21.24 14.6693C21.22 15.2604 21.08 15.9416 20.7 16.3323ZM9.26993 13.9279C7.69993 14.8396 7.65993 18.1957 8.77993 20.1292C9.52993 21.4315 10.6299 22.1128 11.8299 22.1128C12.4299 22.1128 13.0599 21.9425 13.6799 21.5818C14.5399 21.0809 15.1199 20.3796 15.3599 19.5381C15.5399 18.8969 15.6099 17.8751 14.8699 16.6028C13.7799 14.7093 10.7999 13.0463 9.25993 13.9279H9.26993ZM13.4399 18.9871C13.3199 19.4079 12.9599 19.6884 12.6799 19.8487C11.7899 20.3596 11.0799 20.1292 10.5099 19.1273C9.76993 17.835 9.98993 15.9516 10.2299 15.6811C10.2439 15.6811 10.2578 15.6789 10.2727 15.6766C10.2899 15.6739 10.3085 15.6711 10.3299 15.6711C10.8799 15.6711 12.4699 16.4124 13.1499 17.6046C13.4599 18.1355 13.5599 18.5964 13.4399 18.9871Z" fill="currentcolor"/>
</symbol>
</svg>
