<svg xmlns='http://www.w3.org/2000/svg' viewBox='0 0 30 30' fill='none'>
<symbol id='Wine'>
<path d="M21.9069 11.07L20.8854 4.53C20.7438 3.64 19.9853 3 19.0852 3H10.9236C10.0134 3 9.25484 3.64 9.12337 4.53L8.1019 11.07C7.81872 12.87 8.13224 14.66 8.96155 16.12C9.76052 17.51 11.2775 19.12 13.988 19.46V25H11.409C10.8528 25 10.3977 25.45 10.3977 26C10.3977 26.55 10.8528 27 11.409 27H18.5896C19.1459 27 19.601 26.55 19.601 26C19.601 25.45 19.1459 25 18.5896 25H16.0107V19.46C18.7312 19.12 20.2381 17.51 21.0371 16.12C21.8765 14.67 22.1799 12.87 21.8967 11.07H21.9069ZM11.0955 5H18.9133L19.7931 10.64H10.2156L11.0955 5ZM19.2875 15.13C18.3772 16.72 16.931 17.53 15.0094 17.54C13.0879 17.54 11.6416 16.72 10.7314 15.13C10.3168 14.4 10.0943 13.54 10.0538 12.64H19.9752C19.9347 13.54 19.7122 14.4 19.2976 15.13H19.2875Z" fill="currentcolor"/>
</symbol>
</svg>
