<svg xmlns='http://www.w3.org/2000/svg' viewBox='0 0 30 30' fill='none'>
<symbol id='WineCellar'>
<path d="M22.8997 9.31119C23.4752 9.34117 23.967 8.92144 23.9984 8.37179C24.0298 7.82214 23.5903 7.35243 23.0148 7.32245C22.8265 7.31246 19.0281 7.13257 16.4435 8.73156C16.0982 8.71157 15.2611 8.62163 14.2252 8.32182C14.7693 7.43238 15.2297 6.11322 14.581 4.66413C14.4345 4.35433 14.1415 4.12448 13.7857 4.07451C13.4404 4.02454 12.9172 4.02454 12.3731 4.18444C12.0906 3.75471 11.6616 3.35496 11.0233 3.08513C10.7722 2.9752 10.4896 2.9752 10.228 3.06515C10.0188 3.1451 9.55836 3.37495 9.04563 4.06451C8.22946 3.85465 7.12029 3.75471 6.38783 4.42429C6.28319 4.52422 6.19948 4.63415 6.14716 4.76407C5.74953 5.6635 6.23087 6.6229 6.72267 7.27248C6.23087 7.97204 6.15762 8.47172 6.15762 8.68159C6.15762 8.94143 6.26226 9.20126 6.45061 9.39114C6.93195 9.87084 7.48653 10.1107 7.99925 10.2106C8.03065 10.7503 8.21899 11.22 8.38642 11.5098C8.5643 11.8096 8.88868 11.9995 9.24445 12.0195C9.31769 12.0195 9.38048 12.0195 9.45372 12.0195C11.243 12.0195 12.3941 10.8802 13.001 10.0507C13.6183 10.2606 14.1938 10.4105 14.6961 10.5204C14.3299 11.15 14.1415 11.8596 14.1101 12.6391C13.6288 12.799 13.1788 13.0488 12.8231 13.3886C12.6243 13.2087 12.415 13.0388 12.1743 12.8989C11.3791 12.4492 10.4478 12.3293 9.55836 12.5491C7.71673 12.9989 6.5971 14.8077 7.07844 16.5666C7.30864 17.4161 7.87369 18.1356 8.66894 18.5853C8.93053 18.7352 9.21306 18.8452 9.49558 18.9251C9.42233 19.1849 9.38048 19.4548 9.38048 19.7346C9.38048 21.2436 10.4582 22.5028 11.9023 22.8926C11.7662 23.4223 11.7453 23.9719 11.9023 24.5216C12.1325 25.371 12.6975 26.0906 13.4928 26.5403C14.0264 26.8401 14.6333 27 15.2402 27C15.5332 27 15.8157 26.96 16.1087 26.8901C16.9981 26.6702 17.7515 26.1305 18.2224 25.371C18.6828 24.6215 18.8188 23.7421 18.5991 22.8926C20.3884 22.4029 21.4662 20.644 21.0058 18.9051C21.8638 18.6753 22.5858 18.1556 23.0462 17.4161C23.5171 16.6565 23.6426 15.7671 23.4124 14.9176C23.1822 14.0682 22.6172 13.3486 21.8219 12.8989C21.0267 12.4492 20.0954 12.3293 19.206 12.5491C18.6096 12.699 18.0968 12.9889 17.6678 13.3886C17.2702 13.0188 16.7679 12.749 16.2133 12.5891C16.2657 11.8996 16.5273 11.3299 17.0086 10.8702C18.5049 9.43112 21.7801 9.27122 22.9206 9.33118L22.8997 9.31119ZM10.092 9.88083C10.1025 9.81088 10.1339 9.74092 10.1757 9.67097C10.4059 9.31119 10.3641 8.86148 10.092 8.53169C9.8932 8.29184 9.57929 8.16192 9.26538 8.16192C9.15027 8.16192 9.03517 8.18191 8.92007 8.21189C8.87821 8.22188 8.72126 8.27185 8.53291 8.25186C8.60615 8.15193 8.71079 8.042 8.8259 7.91208C9.20259 7.52233 9.18166 6.92271 8.80497 6.54295C8.62708 6.36306 8.43873 6.13321 8.3027 5.94333C8.55384 5.99329 8.83636 6.07324 9.06656 6.17318C9.57929 6.38305 10.1653 6.18317 10.4164 5.71347C10.5001 5.56357 10.5734 5.43365 10.6466 5.33371C10.7303 5.49361 10.7408 5.64352 10.7408 5.69348C10.7408 6.11322 11.0233 6.49298 11.4418 6.63289C11.8709 6.7728 12.3313 6.64288 12.6138 6.3031C12.6661 6.24314 12.7289 6.19317 12.7917 6.16319C12.7603 7.17255 11.8499 8.032 11.8395 8.042C11.7348 8.13194 11.6511 8.25186 11.5988 8.37179C11.5988 8.38178 11.0652 9.51107 10.092 9.88083ZM9.10842 16.0469C8.92007 15.3574 9.35955 14.6478 10.0816 14.4679C10.4373 14.378 10.8036 14.428 11.107 14.6078C11.4209 14.7877 11.6407 15.0676 11.7348 15.3973C11.9232 16.0869 11.4837 16.7965 10.7617 16.9763C10.4059 17.0563 10.0397 17.0163 9.73625 16.8364C9.42233 16.6565 9.20259 16.3767 9.10842 16.0469ZM11.4732 19.7046C11.4732 18.9851 12.0801 18.4054 12.8335 18.4054C13.5869 18.4054 14.1938 18.9851 14.1938 19.7046C14.1938 20.4242 13.5869 21.0038 12.8335 21.0038C12.0801 21.0038 11.4732 20.4242 11.4732 19.7046ZM16.4122 24.3317C16.2238 24.6315 15.9308 24.8414 15.5855 24.9313C15.2297 25.0113 14.8635 24.9713 14.5601 24.7914C14.2461 24.6115 14.0264 24.3317 13.9322 24.0019C13.7439 23.3123 14.1834 22.6028 14.9054 22.4229C15.0205 22.3929 15.1356 22.3829 15.2402 22.3829C15.8471 22.3829 16.4017 22.7727 16.5586 23.3523C16.6528 23.6921 16.6005 24.0419 16.4122 24.3317ZM17.9817 20.9638C17.6364 21.0438 17.2911 20.9938 16.9981 20.8439C16.9981 20.8439 16.9981 20.8439 16.9877 20.8439C16.9667 20.8339 16.9458 20.8239 16.9353 20.8139C16.6424 20.644 16.4226 20.3742 16.3284 20.0344C16.1401 19.3448 16.5796 18.6353 17.3016 18.4554C18.0236 18.2755 18.7665 18.6953 18.9549 19.3848C19.1432 20.0744 18.7037 20.7839 17.9817 20.9638ZM18.8816 15.0576C19.07 14.7577 19.3629 14.5479 19.7083 14.4579C19.8234 14.428 19.9385 14.418 20.0536 14.418C20.2942 14.418 20.5349 14.4779 20.7442 14.5978C21.0581 14.7777 21.2778 15.0576 21.372 15.3873C21.4662 15.7271 21.4139 16.0769 21.2255 16.3667C21.0372 16.6665 20.7442 16.8764 20.3989 16.9663C20.0536 17.0463 19.6769 17.0063 19.3734 16.8264C19.0595 16.6466 18.8398 16.3667 18.7456 16.0369C18.6514 15.6972 18.7037 15.3474 18.8921 15.0576H18.8816ZM15.2402 17.0163C14.4868 17.0163 13.8799 16.4367 13.8799 15.7171C13.8799 14.9976 14.4868 14.418 15.2402 14.418C15.9936 14.418 16.6005 14.9976 16.6005 15.7171C16.6005 16.4367 15.9936 17.0163 15.2402 17.0163Z" fill="currentcolor"/>
</symbol>
</svg>
