<svg xmlns="http://www.w3.org/2000/svg" viewBox="0 0 34.95 31.28"><g id="Layer_2" data-name="Layer 2"><g id="Incentive">
<path fill="#231f20" d="M11.16,15A7.51,7.51,0,1,0,3.65,7.51,7.52,7.52,0,0,0,11.16,15Zm0-13A5.48,5.48,0,1,1,5.68,7.51,5.48,5.48,0,0,1,11.16,2Zm0,15C.86,17,0,23.87,0,30.27a1,1,0,1,0,2,0c0-6.13.69-11.2,9.13-11.2s9.13,5.07,9.13,11.2a1,1,0,0,0,2,0C22.32,23.87,21.46,17,11.16,17Z"/>
<path fill="#eb212e" class="cls-2" d="M27.91,15.22a3.52,3.52,0,1,0-6,2.48h0l6,6,6-6a3.52,3.52,0,1,0-6-2.48Z"/>
<path fill="#cb4f73" class="cls-3" d="M8,29.26h.62v-.65H6.77V27.37l1.88-3.21H9.93v3.21h.61v1.23H9.93v.65h.61v1.27H8V29.26Zm.62-1.88v-.94l-.54.94h.54Z"/>
<path fill="#cb4f73" class="cls-3" d="M15.25,24.17v1.26H12.71v1.29h1.54l1,1v1.77l-1,1H12.47l-1-1v-.89h1.24v.65H14V28H12.47l-1-1V24.17h3.77Z"/></g></g></svg>
