<svg version="1.1"
	 xmlns="http://www.w3.org/2000/svg" xmlns:xlink="http://www.w3.org/1999/xlink"
	 x="0px" y="0px" viewBox="0 0 307.1 499" style="enable-background:new 0 0 307.1 499;"
	 xml:space="preserve">
<defs>
</defs>
<g id="Page-1_3_">
	<path class="st0" d="M57.6,499c-14.7,0-29.5-5.6-40.7-16.9c-22.5-22.5-22.5-59,0-81.5l151.2-151.2L16.8,98.3
		c-22.5-22.5-22.5-59,0-81.5c22.5-22.5,59-22.5,81.5,0l191.9,191.9c22.5,22.5,22.5,59,0,81.5L98.3,482.1C87,493.4,72.3,499,57.6,499
		"/>
</g>
<g id="Page-1_2_">
	<path class="st0" d="M248,306.2c-82.7,0-165.3,0-248,0c0-38.2,0-76.3,0-114.5c82.7,0,165.3,0,248,0C248,229.9,248,268.1,248,306.2z
		"/>
</g>
</svg>
