<svg viewBox="0 0 407 501" version="1.1" xmlns="http://www.w3.org/2000/svg" xmlns:xlink="http://www.w3.org/1999/xlink">
    <defs></defs>
    <g id="Page-1" stroke-width="1" fill-rule="evenodd">
        <g id="icon-configuration">
            <path d="M378.220976,339.291326 L350.188223,331.783734 L348.511213,295.48298 L308.024753,295.48298 L304.842245,266.277417 L277.771867,267.23344 L279.086796,237.559237 L253.06455,224.090561 L245.861028,229.273705 C219.753026,248.047371 184.192784,245.366758 161.33399,222.8721 C149.004152,210.743731 142.219883,194.62256 142.219883,177.479756 C142.219883,160.32758 149.004152,144.215781 161.33399,132.096785 C169.661871,123.914353 179.704876,118.450026 190.329118,115.619448 C189.967036,119.593504 189.338157,123.511324 188.394839,127.354161 C180.23847,127.58848 172.167858,130.550277 166.222094,136.408261 C160.02859,142.500564 156.617398,150.608013 156.617398,159.240338 C156.617398,167.86329 160.02859,175.970739 166.222094,182.063043 C172.625224,188.352174 181.029333,191.492053 189.433442,191.492053 C197.83755,191.492053 206.241659,188.352174 212.635261,182.063043 C218.828765,175.970739 222.249485,167.86329 222.249485,159.240338 C222.249485,151.788983 219.571985,144.806266 214.883979,139.098247 C217.285153,131.084525 218.542911,122.770874 219.000277,114.363496 C231.682668,116.584844 243.831465,122.461573 253.617201,132.096785 C271.47355,149.661363 277.352615,175.192799 268.967563,198.74658 L265.994681,207.088349 L378.220976,317.480881 L378.220976,339.291326 Z M186.441503,156.297287 C186.670186,156.07234 186.908398,155.997358 187.146609,155.856767 L193.568797,159.793332 C193.48304,160.515035 193.244829,161.37733 192.42538,162.183389 C190.776956,163.776761 188.080399,163.786133 186.441503,162.183389 C185.412428,161.171129 185.202802,160.018278 185.202802,159.240338 C185.202802,158.453025 185.412428,157.300174 186.441503,156.297287 Z M298.553456,199.346438 L406.806379,305.839896 L406.806379,376.088836 L322.584252,353.537942 L321.202624,323.601302 L282.336003,323.601302 L279.258308,295.31427 L247.862007,296.410885 L249.481846,259.96954 C213.816791,277.740319 170.29075,271.451188 141.124109,242.751754 C123.391631,225.318394 113.63448,202.130152 113.63448,177.479756 C113.63448,152.819988 123.391631,129.641118 141.124109,112.207758 C154.387737,99.1608568 170.681417,90.9034429 187.794545,87.3230433 C178.304191,53.7029031 146.984117,28.9400343 109.832621,28.9400343 C65.1726919,28.9400343 28.8406438,64.6784214 28.8406438,108.608613 C28.8406438,130.681496 37.8069321,151.226616 54.1006122,166.429256 L34.4338545,186.815039 C12.3849798,166.260546 0.255240161,138.479644 0.255240161,108.608613 C0.255240161,49.1758532 49.4030775,0.821712357 109.832621,0.821712357 C162.248723,0.821712357 206.146374,37.2349392 216.856372,85.6921806 C237.676074,87.7354453 257.924069,96.5645984 273.827082,112.207758 C296.952673,134.955481 306.195287,168.331929 298.553456,199.346438 Z M182.040303,279.539892 C187.042749,277.177953 191.740284,274.188038 195.980452,270.654502 L214.456151,292.108782 C210.701935,295.239288 206.709507,298.069866 202.516981,300.563024 L202.516981,451.155383 L152.025629,500.821712 L108.671101,426.289414 L129.204949,404.169667 L101.734376,377.14796 L119.895636,354.990722 L96.9034428,333.939472 L124.240617,309.298449 C86.2410872,297.038861 59.9996867,262.322106 59.9996867,221.747368 C59.9996867,198.30606 68.9373895,175.961367 85.1738988,158.827936 L106.088886,177.995259 C94.7976514,189.908054 88.5850903,205.448114 88.5850903,221.747368 C88.5850903,253.558562 111.78691,280.17724 143.754919,285.069828 L152.568752,286.410135 L161.277772,314.050446 L139.028799,334.098809 L158.857541,352.263245 L140.105516,375.132813 L168.738562,403.288626 L143.831147,430.113506 L158.257247,454.932611 L173.931577,439.505025 L173.931577,283.373356 L182.040303,279.539892 Z" id="Fill-1"></path>
        </g>
    </g>
</svg>
