<?xml version="1.0" encoding="UTF-8"?>
<svg viewBox="0 0 38 47" version="1.1" xmlns="http://www.w3.org/2000/svg" xmlns:xlink="http://www.w3.org/1999/xlink">
  <defs>
    <polygon id="path-1" points="0 0 37.7256 0 37.7256 47 0 47"></polygon>
  </defs>
  <g id="UI-design" stroke="none" stroke-width="1" fill="none" fill-rule="evenodd">
    <g id="D1---navigation---Incentive-2-Copy" transform="translate(-555.000000, -76.000000)">
      <g id="Manage-your-trip" transform="translate(532.000000, 70.000000)">
        <g id="Group-25" transform="translate(23.000000, 6.000000)">
          <g id="Group-24">
            <path d="M15,24.9878 C15,22.7788 13.209,20.9878 11,20.9878 C8.791,20.9878 7,22.7788 7,24.9878 C7,27.1968 8.791,28.9878 11,28.9878 C13.209,28.9878 15,27.1968 15,24.9878 Z" id="Stroke-1" stroke="#000000" stroke-width="1.5" stroke-linecap="round"></path>
            <polyline id="Stroke-3" stroke="#14912F" stroke-width="1.5" stroke-linecap="round" points="9.2559 25.0972 10.3459 26.1872 12.7439 23.7892"></polyline>
            <g id="Group-7">
              <mask id="mask-2" fill="white">
                <use xlink:href="#path-1"></use>
              </mask>
              <g id="Clip-6"></g>
              <path d="M33.7256,0 L3.9996,0 C1.7996,0 -0.0004,1.8 -0.0004,4 L-0.0004,43 C-0.0004,45.2 1.7996,47 3.9996,47 L33.7256,47 C35.9256,47 37.7256,45.2 37.7256,43 L37.7256,4 C37.7256,1.8 35.9256,0 33.7256,0 M33.7256,1.5 C35.1046,1.5 36.2256,2.622 36.2256,4 L36.2256,43 C36.2256,44.378 35.1046,45.5 33.7256,45.5 L3.9996,45.5 C2.6216,45.5 1.4996,44.378 1.4996,43 L1.4996,4 C1.4996,2.622 2.6216,1.5 3.9996,1.5 L33.7256,1.5" id="Fill-5" fill="#231F20" mask="url(#mask-2)"></path>
            </g>
            <path d="M11,4 L8,4 C6.9,4 6,4.9 6,6 L6,9 C6,10.1 6.9,11 8,11 L11,11 C12.1,11 13,10.1 13,9 L13,6 C13,4.9 12.1,4 11,4 M11,5.5 C11.271,5.5 11.5,5.729 11.5,6 L11.5,9 C11.5,9.271 11.271,9.5 11,9.5 L8,9.5 C7.729,9.5 7.5,9.271 7.5,9 L7.5,6 C7.5,5.729 7.729,5.5 8,5.5 L11,5.5" id="Fill-8" fill="#005589"></path>
            <path d="M7,15 L13,15" id="Stroke-10" stroke="#000000" stroke-width="1.5" stroke-linecap="round" stroke-linejoin="round"></path>
            <path d="M16,15 L22,15" id="Stroke-12" stroke="#000000" stroke-width="1.5" stroke-linecap="round" stroke-linejoin="round"></path>
            <path d="M25,15 L31,15" id="Stroke-14" stroke="#000000" stroke-width="1.5" stroke-linecap="round" stroke-linejoin="round"></path>
            <path d="M18,24 L31,24" id="Stroke-16" stroke="#000000" stroke-width="1.5" stroke-linecap="round" stroke-linejoin="round"></path>
            <path d="M15,35.9878 C15,33.7788 13.209,31.9878 11,31.9878 C8.791,31.9878 7,33.7788 7,35.9878 C7,38.1968 8.791,39.9878 11,39.9878 C13.209,39.9878 15,38.1968 15,35.9878 Z" id="Stroke-18" stroke="#000000" stroke-width="1.5" stroke-linecap="round"></path>
            <polyline id="Stroke-20" stroke="#14912F" stroke-width="1.5" stroke-linecap="round" points="9.2559 36.0972 10.3459 37.1872 12.7439 34.7892"></polyline>
            <path d="M18,35 L31,35" id="Stroke-22" stroke="#000000" stroke-width="1.5" stroke-linecap="round" stroke-linejoin="round"></path>
          </g>
        </g>
      </g>
    </g>
  </g>
</svg>
