<svg id="Layer_1" data-name="Layer 10" data-keepColors="true" xmlns="http://www.w3.org/2000/svg" viewBox="0 0 40 40"><defs><style>.cls-1{fill:#005589;}.cls-2{fill:#cb4f73;}.cls-3{fill:#fff;}</style></defs><title>Untitled-4</title><g id="icon_pdf_40"><path class="cls-1" d="M31,22.25H13a.75.75,0,0,1,0-1.5H31a.75.75,0,0,1,0,1.5Zm.75,3.24a.75.75,0,0,0-.75-.75H13a.75.75,0,0,0,0,1.5H31A.75.75,0,0,0,31.75,25.49Zm0,4a.75.75,0,0,0-.75-.75H13a.75.75,0,0,0,0,1.5H31A.75.75,0,0,0,31.75,29.48ZM36,12.11V36H8V4H28ZM27.75,5.89v6.36H34ZM34.5,34.5V13.75H27a.75.75,0,0,1-.75-.75V5.5H9.5v29Z"/><rect class="cls-2" x="4" y="8" width="20" height="10"/><path class="cls-3" d="M7.64,13.87v2.37H6.5V9.81l1.34,0a4.12,4.12,0,0,1,2.23.47,1.63,1.63,0,0,1,.71,1.46q0,2.21-2.61,2.21Zm0-3.08v2.06l.46,0a2,2,0,0,0,1.14-.26,1,1,0,0,0,.36-.85q0-1-1.61-1Z"/><path class="cls-3" d="M13.21,16.24H11.78V9.81l1.72,0a3,3,0,0,1,2.23.82,3,3,0,0,1,.82,2.19Q16.55,16.24,13.21,16.24Zm-.29-5.44V15.2l.6,0a1.62,1.62,0,0,0,1.36-.63,2.8,2.8,0,0,0,.49-1.76q0-2.07-1.92-2.07Z"/><path class="cls-3" d="M18.71,10.82v1.51H21v1H18.71v2.94H17.57V9.8h4.24v1Z"/></g></svg>
