<svg version="1.1" id="Calque_1" xmlns="http://www.w3.org/2000/svg" xmlns:xlink="http://www.w3.org/1999/xlink" x="0px" y="0px"
	 viewBox="0 0 500 333.3" style="enable-background:new 0 0 500 333.3;" xml:space="preserve">
<path d="M500,269.8l-38.7-38.5l-38.6,38.5l38.6,38.8L500,269.8z M454.5,9.9c-2.3-8.2-20.7,3.7-60.4,39.1
	c15.8,17.4,23.8,7.5,36.6,2.8c10.1,19.4,14.1,106.3-52.3,132.5C380.1,96.8,380.9,3,380.9,3L377,0c-18.2,2.4-50.7,34.5-75.6,61.5
	c13.7,22.5,31.3,2.2,45-3.3c0,3.7-3.2,68.3-1.8,134.1c-68.4,5.1-57.3-134-53.4-151.8c1.6-14.3-44,17.3-66.7,38.3
	c7,12.9,17.1,10.2,29.7,5.5c-4.6,62.5,39.4,119.2,90.6,117.8c1.9,64.4,8.5,126.8,27.2,131.2c2.6,0.6,4.6-65.2,6.1-138.3
	C501.5,156.8,454.5,9.9,454.5,9.9z"/>
<g>
	<path d="M216.5,64H86.7l-15.1,68.3c14.8-9.2,32.9-13.7,54.5-13.7c35.5,0,64,8.9,85.5,26.6c21.6,17.7,32.4,43.4,32.4,77.1
		c0,29.8-11.4,54.2-34.1,73.1c-22.8,18.9-52.9,28.4-90.4,28.4c-32.8,0-60.1-7.6-82-22.8c-21.9-15.2-34-36.1-36.3-62.7h61.6
		c2.4,13.9,8.3,24.7,17.9,32.4c9.6,7.7,22.5,11.5,38.8,11.5c19.8,0,35.3-5.2,46.5-15.5c11.2-10.3,16.8-25.1,16.8-44.3
		c0-19.5-5.7-34.9-17.1-46.1c-11.4-11.2-26.8-16.8-46.3-16.8c-13,0-24.8,3-35.5,8.9c-10.6,5.9-18.5,13-23.5,21.3L6.9,173.9
		L41.5,16.6h175.1V64z"/>
</g>
</svg>
