<svg xmlns='http://www.w3.org/2000/svg' viewBox='0 0 696 830' fill='none'><symbol id='AEXC_Outline'>
  <g fill="#9BADFA">
    <path d="m357.8 120.2 22 1 11 2 39 14a172.7 172.7 0 0 1 63 47l30 39 15 30 17 44c9.5 24.4 15.6 50 18 76 3 31.9 3 64 0 96l-3 30a213.2 213.2 0 0 1-26 83 295.1 295.1 0 0 1-38 54l-26 27a151.4 151.4 0 0 1-86 40l-27 4a138.2 138.2 0 0 1-48-1l-26-4a157.7 157.7 0 0 1-81-41l-28-29a284.7 284.7 0 0 1-50-85c-4-13-7-26-8-39l-5-39-2-29v-10c.6-18.4 1.6-36.7 3-55 2.6-30.2 9.7-60 21-88l13-32c5-12 11-24 18-35l29-38c13-16 30-29 48-39l36-14 21-7 18-2h32Zm211 316-1-22c-2.2-22.4-4.8-44.7-8-67-3-14-7-27-12-40l-20-54a524.2 524.2 0 0 0-45-70 136.2 136.2 0 0 0-42-35 249.8 249.8 0 0 0-81-21h-28l-16 2c-18 4-35 8-52 15-9 3-19 8-27 14s-16 13-23 21l-26 35c-10 15-19 31-25 48l-13 33a374.5 374.5 0 0 0-23 105l-1 16-1 19 1 31 2 17 8 37c9.5 38.4 28 74 54 104l32 32 9 8c18 14 38 25 61 31l29 6 16 2c10.7.3 21.4 0 32-1l28-6c27-6 50-18 71-36l25-24a234.3 234.3 0 0 0 63-104c8.6-31.3 13-63.6 13-96Z"/>
    <path d="M171.8 421.2c0-12 0-23 2-34l5-22c2-11 4-22 8-32 9-26 21-51 38-73l12-15 11-12 16-17 7-6c9-7 19-14 31-18 10-4 20-8 31-10 10-2 19-1 29 1 14 3 27 8 40 14 8 4 14 9 21 15 9 7 17 15 24 24l7 8a241.9 241.9 0 0 1 57 109l6 28a294 294 0 0 1-16 140l-13 29c-4 9-10 17-16 25l-16 20c-7 7-15 14-24 20-13 9-27 16-41 22-10 5-21 7-31 9-6 2-12 2-19 2l-10-2c-17-3-32-9-47-17l-20-12c-13-8-25-18-35-31l-6-7c-8-9-14-20-19-31l-16-34c-6-14-9-29-12-44-1-9-3-19-3-29l-1-20m340 7v-18l-3-24-14-52c-5-15-12-29-20-43l-14-26a143.9 143.9 0 0 0-33-39c-12.1-8-24.5-15.7-37-23-12-6-25-10-37-14-5-2-10-2-15 0l-27 9-27 13c-9.1 6.5-18.1 13.2-27 20-10 10-18 19-25 31l-16 28c-9 16-16 33-22 51a1155 1155 0 0 0-13 55l-2 28c0 15 0 30 3 45 1 14 5 27 10 40a403.8 403.8 0 0 0 30 59 246 246 0 0 0 73 58 155.5 155.5 0 0 0 47 15c5 1 10 0 15-1 17-4 32-11 47-20l9-5c17-11 33-23 47-38 9-10 17-21 23-33l10-21c8-17 13-35 16-54 2-13 2-26 2-41"/>
    <path d="M278.8 482.2v13l-2 21-1 1h-1v-2l-2-18v-29h-2l-15 8c-2 1-3 2-3 4 1 8-1 16-2 23l-2 8-1 1v-1l-1-2v-27l-1-1-3 2-23 11-6 2h-1v-1l5-5 22-16 2-2-3-2-16-7-5-4-1-2h2l4 1 21 8 2 1h5l13-8 1-1-1-1-17-10a86 86 0 0 1-17-13l-2-3 1-1 2 1 9 5 19 10 12 6 3 1 21-10 1-1-1-1-18-9-11-7-2-2v-1l2 1c11.9 3.7 23.3 8.7 34 15l3 1 14-9c6-5 12-10 19-13v-1l-1-1c-10-7-21-13-33-18l-3 1a199.8 199.8 0 0 1-37 17v-1l2-2 16-12 12-5 1-1-1-1-16-8h-3l-26 14c-4 3-9 4-14 6l-4 1v-1l2-3 8-6c9-5 18-11 28-15 2-1 2-1 1-2l-16-12h-3a420.2 420.2 0 0 1-32 13h-1l1-2 5-3 21-12c2 0 2-1 1-2l-10-5-7-2a30.9 30.9 0 0 1-16-12c-2-2-1-3 1-3h5l12 6 5 5 12 7c1 1 2 1 2-1l-1-18v-11l1-2 1-1 1 3c2 10 4 20 4 30v2l1 2 2 1 17 8c1 0 2 0 1-2l-1-21 3-22 1-3c2 0 1 2 2 3 .7 6 1 12 1 18l1 28v1l2 3 13 8 1 1h1v-22c0-5 0-11 2-16v-1h1l2 8 1 33v2l1 2 3 3c10 7 20 12 31 17h2c1 1 1 0 1-1v-10l-3-21v-13l-22-15-9-6-2-2 1-1 2 1c9 2 17 6 25 11l3 3 2-1 1-13 1-5-1-2-6-2-30-18-6-6-1-1h1l9 2c11.7 5 22.8 11.4 33 19l3-16-1-5c0-1 0-2-2-3a85.2 85.2 0 0 1-25-18l1-2 1 1 4 1a89.6 89.6 0 0 1 19 12h1l-2-16c.3-6.8 1.7-13.6 4-20l2-2 2 2 1 2c2 8 3 17 2 26v4l-1 4 4-2c6-4 11-8 18-11h3c1 1 0 2-1 3-7 6-14 11-22 15l-1 1c-2 1-3 2-3 4v17l1 2 1 1h1c10-8 22-14 33-18l9-3h1l-1 1-3 3-5 4c-11 7-22 14-33 19-2 1-2 1-2 3l2 17 2 1 3-3a92.2 92.2 0 0 1 27-12l1 1-2 2-6 4-22 13-2 1-1 2v1l-2 25-1 18v2h1l4-1c11-5 21-10 30-17l1-1c2-1 2-2 2-4 0-11.7.4-23.3 1-35l1-6 1-1 1 1c2 6 2 11 2 17v21h2l13-9 2-3c.4-15.3 1-30.7 2-46 0-2 0-3 2-4l1 4 2 19v24c-1 1 0 1 1 1l18-8 2-3c-.3-11.5 1-23 4-34l2-1 1 1v10l-1 20v2h1l3-1 10-7 7-5 11-5h4c2 0 2 1 2 3l-2 2c-3 4-8 7-13 9l-7 2-12 6v2l22 11 5 4 1 1-2 1h-4l-13-6-14-7h-3l-16 12c-1 1-1 1 1 2a172.9 172.9 0 0 1 36 21c1 1 2 1 2 3h-4l-12-5-27-14-2-1h-2l-5 2-12 6v1l3 1c8 4 16 8 22 14l6 5v1h-3l-30-15-2-1-4-2-4 1a137 137 0 0 0-31 18v1h1l15 11 16 11 3-1 11-6 24-9 2-1v1l-1 1-9 6-20 11-2 1c-1 0 0 0 0 0l2 2 19 9 4-1 14-8 25-13 3-1 1 1-1 2-4 4c-6 5-12 9-19 12l-13 8v1l2 1 12 8h5a99.7 99.7 0 0 1 28-10l1 1-3 3-13 6-9 5 8 6 16 12 4 4 1 2h-2l-4-1-21-10-6-4-1 1v26l-1 3h-1l-1-1-3-17-1-14-1-3-17-8h-1v31l-2 16v1l-1 1-1-1v-1l-2-24v-25c0-2-1-4-3-5l-14-10-3-3h-1v2c2 9 3 18 2 27l-1 14-1 1v1l-1-1-1-2-3-18-1-14 1-12c0-1 0-2-2-3l-13-7-3-1-18-8-2-1v2c1.8 13 3.8 26 6 39l23 18 8 9v1h-1l-3-2-27-19-1-1h-1l-1 3-2 14v2c-1 2 0 3 2 4 13 8 25 17 38 27l5 4v1h-1l-3-1c-13-6-25-13-36-22l-5-4h-1v4l1 21 2 3c9.3 5.8 17.7 12.9 25 21v2l-1 1-2-1-3-2c-7-4.2-13.3-9.2-19-15h-1v20a48 48 0 0 1-4 19h-2l-2-3c-2-5-2-10-3-16l1-16v-3h-1l-3 2-17 13-4 2c-1 0-2-1-1-2l2-4 21-17c3-2 4-3 4-6l1-14v-9l-2 1-18 13-21 12-4 1c-1 1-1 0-1-1v-1l3-2 42-31-1-5-2-12v-2c0-2 0-2-2-1l-1 2c-9.6 7-19.6 13.3-30 19l1-2 13-12a607 607 0 0 1 19-17c0-10 1-19 3-29v-8c-2 0-3 2-5 3l-13 6-17 8c-2 1-2 2-2 4v20c-1 8.8-2.7 17.5-5 26l-1-2c-1-10-2-21-1-31l2-11v-1h-1l-7 5-11 9c-1 1-2 1-2 3v17Z"/>
    <path d="M426.8 543.2c-5 0-8-4-8-8 0-5 4-8 8-8 5 0 8 4 8 8s-4 8-8 8m-140 55c0 4-4 8-8 8s-8-4-8-8 4-8 8-8 8 4 8 8m165-295a7 7 0 0 1-7 7 7 7 0 0 1-7-7c0-4 3-7 7-7s7 3 7 7m-245 131c0 3-3 6-6 6s-5-3-5-6 2-6 6-6c3 0 5 3 5 6m49-138c0 3-2 6-5 6-4 0-6-2-6-6 0-3 2-5 5-5s6 2 6 5m-54 58c3 0 6 3 6 6s-2 5-5 5-6-3-6-6c0-2 2-4 5-5m286 106c1-3 3-5 5-5 3 0 6 3 5 6 0 3-3 5-5 5-3 0-5-3-5-6m-166-9c3 0 5 2 5 5-1 2-3 4-5 4s-4-2-4-5c0-2 2-4 4-4m61 169c0 2-2 4-4 4s-4-2-4-4c0-3 2-5 4-5s4 2 4 5m-88-74c2 0 4 2 4 5 0 2-2 4-5 4-2 0-4-2-4-5 0-2 2-4 5-4m145 30c0-2 2-4 4-3 2 0 3 1 4 3 0 2-2 4-4 4s-4-1-4-4m-170 0c1 2-1 3-3 3s-4-1-4-3 1-4 3-4c3 0 4 2 4 4m225-177c-2 0-4-1-4-3s2-4 4-4 4 2 4 4-2 3-4 3m-16 21c0 2-2 3-4 3s-3-2-3-4 1-3 4-3c2 0 3 1 3 3m-225 111c-2 0-4-2-4-4s2-3 4-3 3 2 3 4-2 3-3 3m115-310c-2 0-4-2-4-4 0-1 2-3 4-3 1 0 3 2 3 4l-3 3m18 45c0 2-2 3-4 3-1 0-3-1-3-3l3-3c2 0 4 1 4 3m-84-20c1 0 3 1 3 3s-1 3-3 3-4-1-4-3c0-1 2-3 4-3m112 310c2 0 3 2 3 3 0 2-1 3-3 3l-3-3c0-2 2-3 3-3m-195-136c0 1-1 2-3 2-1 1-3-1-3-2 0-2 1-3 3-3 1 0 3 1 3 3m106-48c0 2-1 3-3 3-1 0-3-1-2-3l2-2c2-1 3 1 3 2m43 17c0 2-1 3-3 3-1 0-3-1-2-3l2-2c2 0 3 1 3 2m6-22-2 3c-2 0-3-1-3-3l2-3c2 0 3 1 3 3m-95-120-2 1-2-2 2-2c1 0 2 1 2 3m64 351.2c0 .4-.2 6.8-.1 13.3-6.8.5-5.7-13.3-5.3-15 .2-1.4-4.4 1.7-6.6 3.8.7 1.3 1.7 1 2.9.5-.4 6.2 3.9 11.8 9 11.7.2 6.4.9 12.5 2.7 13 .2 0 .4-6.5.6-13.7 12.2-3.8 7.6-18.3 7.6-18.3-.2-.8-2 .3-6 3.9 1.6 1.7 2.3.7 3.6.3 1 1.9 1.4 10.5-5.1 13l.3-18-.4-.2c-1.8.2-5 3.4-7.5 6 1.3 2.3 3 .3 4.4-.3m5.9 19 2.8 2.9 2.8-2.8-2.8-2.8-2.8 2.8Z"/>
  </g>
</symbol></svg>
