<svg xmlns='http://www.w3.org/2000/svg' viewBox='0 0 696 830' fill='none'><symbol id='ALHC_Outline'>
  <g fill="none">
    <path fill="#9CADFA" d="M124 445.5v16l3 25 8 34c9 41 29 77 58 108l30 30c18 17 39 29 63 35l29 7 12 2c14.3 1.2 28.7.9 43-1l7-1 30-7c24-6 44-19 63-35l28-28c24-25 41-53 53-85a328.4 328.4 0 0 0 12-173c-2-23-8-45-16-66l-17-45c-6-16-14-32-24-46l-5-7-22-29c-14-16-30-28-50-35a495.5 495.5 0 0 0-73-17c-14-1-27 0-41 2-17 3-34 8-50 14-14 5-27 12-38 22l-18 19-27 37c-7 11-13 23-18 36l-16 42c-13 33.6-20.4 69-22 105l-2 41m234-325c15-1.2 30.1 1.2 44 7 13 4 26 9 39 16 19 10 37 23 51 41a453.7 453.7 0 0 1 44 66l20 52a408.9 408.9 0 0 1 18 95l1 28-3 48-3 31c-3 27-12 52-25 77-13 24-29 47-49 66l-16 16c-20 19-44 31-71 37l-30 5a441.5 441.5 0 0 1-43 3c-17-1-34-4-50-8-27-6-51-18-72-38-12-11-24-22-34-35-19-23-34-48-44-76-5-13-8-26-10-39-3-29-5.3-58-7-87a346.7 346.7 0 0 1 25-139l12-32c13-24.6 28-48 45-70 15-18 33-32 53-42a274.7 274.7 0 0 1 73-22h32Z"/>
    <path fill="#9BADFA" d="M509 400.5c-4 1-6 3-9 6-3 4-8 5-13 5l-3-1-8-1 1 1c5 6 11 11 18 15l14 10h2c1-5 0-30-2-35m-220-45-13 3c-4 1-9 3-12 6l-10 10-8 13-11 14-1 1h1c6-3 12-5 18-10l7-6 14-12 4-4 10-14 1-1m-77 197v-27c1-11-1-20-8-29l-3-4c-3-6-4-12-2-18l3-7 8-11 3-4-8 2c-8 2-15 7-20 14-2 3-3 7-2 11l7 27c6 15 13 30 21 44l1 2m87-215-5-11c-2-3-4-5-7-6l-4-2-13-7c-9-5-18-6-27 0l-7 4-5 2c-3 1-6 2-8 5l-5 7-3 8-4 12c-2 3-2 6-1 9l2 10c1 3 3 6 7 9l4 6c1 3 3 4 6 6l3-3 16-16 10-9c4-3 7-6 12-7l14-6 15-11m42-27-1 1-34 33-1 2c-4 3-7 7-9 11l-8 15c-2 4-5 7-9 10-4 4-8 6-12 8-6 2-11 5-16 10-4 4-9 8-14 10-8 4-16 7-25 9l-6 2c-7 5-15 8-23 11-1 0-3 0-4 2l2 29 9-9c7-5 15-10 23-13 6-3 12-5 18-5 9.5-.4 19-2 28-5 5-2 10-5 13-10s8-8 12-11l7-4 8-4c5-4 9-8 11-15 1-6 5-11 9-14l9-7 8-7c5-6 7-13 4-20l-1-5c-2-7-2-13 1-19l1-5m168 82-2-8-8-30c-5-23-14-45-26-65l-16-28a143 143 0 0 0-27-33l-30-20-9-5-39-14c-5-2-10-1-15 0l-19 7c-11 4-21 8-31 14l-25 17-5 4c-9 9-17 18-23 29l-11 19-1 2 2 4 1 2c3 3 3 6 5 10l-1 1h-2l-1-1c-2-3-4-5-4-8l-2-4-1 1c-6 9-10 19-15 29v1c1 2 3 2 3 4-1 2-3 0-5 0-3 5-9 24-9 28l4 1v3l-3 1h-3l-2 9-2 8 3-2 5-1 2 2-1 1c-1 2-3 2-5 2s-4 0-5 2c-3 8-5 17-4 20l11-5 3-2h6l-1 2-6 4c-5 1-10 4-14 7v1l-2 24 1 1 2-1 37-28 5-4v-1l-4-3c-4-1-6-4-7-8l-4-14-3-18c0-5 1-9 4-13l16-22c4-5 9-9 16-9h2c10.7-2 21.7-1.3 32 2l7 3c4 2 7 5 9 8l10 14 1 1 7-6c10-9 21-19 34-26 4-2 7-3 11-2 10 4 20 9 26 19a166 166 0 0 0 35 34l29 20 4 4c6 6 12 12 16 19l2 2 2 1 14 2h10c3 0 6 0 8-2l8-6m1 59-12 5c-9 6-18 10-28 14l-10 4-23 13-12 6c-18 8-37.3 13.2-57 15l-17 2c-7 0-13 3-18 8l-17 15a119.6 119.6 0 0 1-23 15h-2c0-2 1-2 2-3l8-10c9-9 17-18 28-26 5-3 11-7 17-8l16-4c21-4 42-8 63-14l20-8 4-3c-6-4-10-8-14-13-2-3-4-4-7-5l-6-4-18-7c-6-2-10-6-14-10l-3-5c-6-9-10-20-13-32v-1l1-3 3 1 2 2 10 15c5 7 9 14 15 20l13 12 6 4 11 6c7 2 13 7 18 13l2 2c2 0 4-2 5-3 4-4 9-8 14-10l18-7 7-2 2-1-10-7c-14-9-26-21-34-37l-11-18c-1-3-4-6-7-8-5-4-10-7-16-9l-6-1c-7-3-13-7-18-12l-24-24c-6-8-15-14-24-20l-2-1c-2 5-4 10-3 16l2 9c3.3 11.5.7 23.8-7 33l-8 8c-6 5-10 10-14 16l-4 5c-5 7-11 13-19 16-7 3-12 7-15 14-4 9-12 15-22 19-8 2-17 5-26 5l-8 1v1l-9 17-4 9v10l1 6 3 14 4 18 1 6c1 10 0 36 2 39l1 1a222 222 0 0 0 63 51c14 9 30 15 46 19 8 2 16 2 24 0 18.7-4.2 36.3-12 52-23 20-12 38-26 54-44 7-8 13-16 18-25l13-26c9-21 15-44 16-67v-4m9-33c0 34-6.2 68-18 100a1671 1671 0 0 1-28 55 267.8 267.8 0 0 1-37 39c-15 10-30 19-47 26-12 5-24 8-37 10l-18-1c-19-3-36-10-53-19l-19-11c-11-7-21-15-29-25a379.5 379.5 0 0 1-27-36l-19-43a304 304 0 0 1-11-143c3-11 5-23 9-34 7-25 19-48 34-69l16-20 14-16c10-12 22-22 35-31l22-10c10-4 20-7 31-9 7-1 14 0 20 1 15 3 29 8 43 15l16 10c11 9 21 18 30 29l9 11c22 25 38 53 49 84 4 11 6 22 9 34l5 25 1 11v17"/>
    <path fill="#9CADFA" d="m340 402.5-1 4a772 772 0 0 1-7 16c-2 4-5 7-9 9-5 2-10 5-14 9l-7 6-14 9c-1 2-3 3-4 2-2-2-1-4 0-5 4-8 10-13 18-16l9-4c4-2 6-5 7-9 3-7 8-13 13-19l5-2h4m44-51-3 1-9-3-7-6-6-12c-1-3-2-7-5-9v-3l3-1 4 2 6 5a66 66 0 0 1 10 14l6 10 1 2m-86 243 2-1 4 1 7 2c5 2 10 2 16 3l8 1 4 3c2 2 2 5 0 6l-2 1c-6 1-11 2-17 0-3 0-6-2-8-4-3-4-7-6-11-9-1-1-3-1-3-3m80-213v1c0 2-3 3-5 2v-1l-4-8c0-1 0-3 2-3h2c4 2 5 5 5 9m-44-123v2c-2 4-4 9-8 12-4 5-7 9-9 15l-5 9-6 7-3 2c-1 1-2 0-2-2l1-2 6-11 5-6 6-6 5-10 8-10h2m-53-18v1l-2 15c-3 6-4 11-4 17l-4 15c-1 2-1 3-3 3l-1-4c1-6 2-13 5-19l2-12 5-15 2-1m-35 28 1 1 2 12v6l-2 2-2-2-1-9 1-8 1-2m40 28-1-2 2-7 5-6 1-1c1 5-1 9-4 13-1 1-1 3-3 3m-90 114v-2l1-2 5-7c1-1 2-3 4-3h2v2l-2 4-7 6-3 2m117-96 7-6c2-1 4-3 7-1l-1 2-6 3c-2 1-4 3-7 2m127.6-6.8c0 .4-.3 6.8-.2 13.3-6.8.5-5.7-13.3-5.3-15 .2-1.4-4.4 1.7-6.6 3.8.7 1.3 1.7 1 3 .5-.6 6.2 3.8 11.8 9 11.7.1 6.4.8 12.5 2.6 13 .2 0 .5-6.4.6-13.7 12.2-3.8 7.5-18.3 7.5-18.3-.2-.8-2 .4-6 3.9 1.6 1.7 2.4.7 3.6.3 1 1.9 1.4 10.5-5 13l.2-18-.4-.2c-1.8.2-5 3.4-7.5 6 1.4 2.3 3.1.3 4.5-.3m6 19 2.7 2.9 2.8-2.8-2.8-2.8-2.8 2.8Z"/>
  </g>
</symbol></svg>
