<svg xmlns='http://www.w3.org/2000/svg' viewBox='0 0 696 830' fill='none'><symbol id='ANJJ_Outline'>
  <g fill="#00807D">
    <path d="M576.2 423.4c-1 19-1 34-3 50l-3 31c-4 29-13 56-27 81-13 23-28 44-47 62l-18 18c-19 17-42 29-67 35l-29 5a244.4 244.4 0 0 1-41 4c-18-1-36-5-53-8-28-6-53-19-74-38-12-12-25-24-35-38-19-23-34-48-44-76-4-12-7-25-9-38l-5-46a371.7 371.7 0 0 1 23-180l14-35 13-25c10-15 20-29 31-42 14-17 31-30 50-40a247 247 0 0 1 57-21c10-2 20-2 30-2h15c15-1 29 1 43 5 13 5 27 9 39 15 22.7 10.6 42.8 26 59 45a464.6 464.6 0 0 1 42 67l20 50c12.2 39.2 18.6 80 19 121Zm-6 18v-7l-4-49a428.4 428.4 0 0 0-18-79l-20-53a457.4 457.4 0 0 0-46-73c-14-17-31-30-53-37a308.6 308.6 0 0 0-80-17l-13 1-22 2c-16 4-32 8-47 14-13 4-24 9-34 18-8 6-16 14-22 22-10 12-19 25-28 39-7 11-13 22-18 35l-6 15-14 37c-9.9 26.3-15.6 54-17 82l-2 24-1 26c-1 15 0 30 3 45l7 34c9 39 27 73 53 102 12 15 26 28 40 40 18 15 38 26 60 32l27 6 12 2c10 2 20 3 30 2l15-2 20-4c9-2 18-4 27-8 19-7 37-18 52-32l23-22a232.6 232.6 0 0 0 60-96l9-35c4.7-21 7-42.5 7-64Z"/>
    <path d="M520.2 420.4c-.2 36-7.3 71.7-21 105l-8 18a174 174 0 0 1-69 78c-12 7-24 14-36 19-11 3-21 6-32 7h-21a165.5 165.5 0 0 1-66-27 143.4 143.4 0 0 1-47-45c-6-7-11-15-15-24l-16-35a313.7 313.7 0 0 1-17-96c0-19 2-37 7-55l8-33c10-28 23-53 41-76l25-29c11.1-11.9 24-22 38-30 14-7 29-13 46-15 8-2 15-1 23 1 16.8 3.6 33 9.6 48 18 13 9 25 19 35 31l22 26c18 22 31 48 40 75 6 17 10 35 13 53 2 8 2 22 2 34Zm-265 158 6 6-6 15 10 7v-3l-3-23-1-3-5-5 1-5c1.3-4 1.3-8.3 0-13l-2-7 6-1 1 5 3 20 3 16 2 21 1 3 17 10 2 1v-2l-3-25-3-23c-1-8-1-17-3-25l-1-7 8-2v29l2 15 2 22 3 19c0 2 1 3 3 4 8 4 16 8 25 10l2 1 1-1c-1-9-3-18-7-27l-4-11v-2l8-2 1 3 3 18 2 13 1 10c6 2 11 4 16 3l-3-10-3-11c-3-9-5-17-5-26v-3l7-2 1 5v7c-1 7 1 15 3 22l4 17v1l12-3 8-28 1-14v-8l2-12 5 1 6 1c-4 20-10 39-17 58l15-4 8-21 6-27 2-4 8 1c-1 6-4 10-6 15l-6 16-6 16h1l4-1c13-7 27-16 39-25l15-13 3-2c-4-12-8-25-10-38l9-4 2 5v17l1 14 1 3c6.5-6.6 12.5-13.6 18-21l-1-16-3-12 9-4-1 5a94 94 0 0 0 0 13v4l1 5 4-8 14-28c12-24 17-51 18-78a460 460 0 0 0-4-62l-7-27c-5-23-14-45-25-65l-2-4-2 3c-3 7-3 14-4 21l-4 29-2 9-9-1 1-2 4-13 7-26c1.2-9.7 2.6-19.3 4-29l-4-5-4-4-5-1 2-7-16 10 3 16-7 2 1-16c-3 1-4 2-5 4l-8 6-6 2-2 1 2 10-6 2-1-10-1 1c-5 1-9 5-13 9l-15 17-2 2-5-6 1-1 2-1c7-4 14-9 19-15l7-6 11-8 8-5 10-7c6-3 12-7 19-9l2-1-2-4-1 1c-10 4-19 10-27 16l-9 5c-6 3-11 7-15 11-8 8-16 14-24 20l-3 2-4-4 7-4 14-10 20-20-3-15-9-36-1-3c-3-3-7-5-11-6l-4 1v2l3 3c3 3 4 7 4 10l-1 5-1 11v1l-1-4-1-4c-.2-3-.5-6-1-9 0-1 0-3-2-4 0 7-4 11-8 16l-4 6c-3 3-4 7-5 10v3l-1 2-1-2c0-5 1-9 4-13l4-7c2-3 4-6 4-9l1-11v-2c-2 0-4 2-5 3l-8 5-10 2h-2l11-6 10-8h-4l-6 1-7 1-3-1 13-6h5c3 0 6 1 8 3 4-1 6-2 9-1l7 2c0 1 1 2 2 1l-1-2c-1-6 0-4-5-7-13-6-26-10-39-14-3-1-6-2-9-1l-7 2-11 3a2027 2027 0 0 0-26 11l-4 11 10-4 10-3v1l-8 7c-3 2-6 3-9 2-4 0-5 0-6 3l-6 17v1c2 0 5-1 7-3l6-4 6-4-2 5-2 4-3 3-4 3c3 3 6 2 9 3-4 3-7 3-11 2l-3-2h-6v1l-9 21v3l4 21 1 2 1-3 12-24c2-3 4-5 7-6 8-2 16-1 23 5l4 4 5 4c-2 1-4 0-6-1l-5-3c-5-3-10-5-16-4l4 1c5 1 9 4 11 9l1 1 6 6 6 3 1 1h-9c-5-1-9-3-11-8l-2-3c-2-3-5-4-9-5v1c4 7 5 14 3 21-1 5-2 10-1 15l1 6v3l-3-3c-2-4-4-9-3-14l1-10v-8l-4-11-1-1h-1a246 246 0 0 1-14 32l10 39 6 14v3l-7 1-1-2-3-12c-7-24-12-49-14-74l-3-22v-2c2 0 4-2 6-1l1 7-1 7 1-3 8-20 11-27 1-4c-6 2-26 15-29 19 1 5 5 9 7 14l-6 1-5-13-9 8-1 3 1 18c0 4 0 8 2 12a356 356 0 0 1 20 94l-6 1-1-3-1-18c-1.9-19.6-5.6-39-11-58l-6-1-1-2c-1-8-2-17-1-25v-15h-1l-11 15c-1 2-2 3-1 5v4l-1 16-1 1h-5l1-4 2-10-1-2-1 1-13 24c-11 20-20 40-25 62l-1 4 8-3c3 0 5-2 7-3l7-5-1 2-7 11-8 4 4 4 6 3 5 3v2c-2-3-5-2-8-1s-5 0-7-2l-4-3-3-1c4 4 5 8 4 13 0 5 0 10 3 14v3l-1-1c-4-6-8-12-8-19v-2l-2-3v3a317 317 0 0 0 3 125c4 13 11 26 17 39l1 2c3-2 4-5 5-7l2-3c2-5 5-8 10-10h3l4 2 11 6 3 1-2-4-4-14-3-13-1-2-3 2c-4 2-8 2-11-1l-4-4-9-12v-1h2l6 3 6 6 4 3c3 1 5 2 8 0l-1-1-6-3c-5-2-7-5-9-9l-2-8-1-13v-2l1 2 3 9c1 6 5 11 10 15l-1-2-2-4c-3-5-4-11-3-17l1-13 2-1v3l4 14 5 9c2 4 3 8 3 13l1 10c3 13 6 25 11 38l1 1 2-8-1-18c-1-12-4-24-8-35l-2-6c2-1 4-2 6-1 0 6 2 12 4 18l1 4 5 25 2 24v3l-6 1-1-2-5 10-2 11-5-4 4-8 4-9v-1c-1-3-3-4-4-4l-8-4-4-2-1 9c-1 4-2 8-1 12l-1 2-1-1-2-9v-6c0-3 0-5-2-7v1l-3 12-1 6 1 7 1 4-2-2c-2-4-3-7-3-12v-8c-3 1-7 5-10 8 7 14 16 25 28 37 1-7 1-14 4-20l4 4 1 4-3 14-1 3 8 7 1 1c2-6 2-12 5-17Zm157-337v-4l3-12 2-7c-6-5-14-10-17-10l11 44 1-3v-4h8v5l-3 16v2l21-8-1-8-1-9h6c-2 5-2 10 0 15l11-6-11-14-7 1v-4c0-2 0-4-2-5l-12-9-1-1v11c1 3 2 6 1 10h-9Z"/>
    <path d="M428.2 529.4c-1 1-2 2-1 3v3c2 4 1 8-1 12l-4 7-1 1-1 1v-20c-1-4 0-8 5-11l-5-5-5-5-1 2-3 21-2 33-1 6-10-2 1-11c5.2-31.2 13-62 23-92l1-1h6l-7 20c-3 6-5 13-6 20l9 9 2-10v-10c4 5 4 10 4 15l1-2 1-1c5-5 5-6 4-14 0-10-3-20-4-30l-1-2-2 3-7-2 1-5 6-24 6-27 8-24c3.5-9.7 6-19.8 7-30l1-1h7l-1 4c-1.6 5-3.2 10-5 15l5 19 2 7-9 3-1-7 1-8-1-8-1 2c-3 11-7 22-9 34a190.5 190.5 0 0 0-4 32v13l3 26 2 20 4 19 3 12c-2 2-5 4-9 5l-1-5-1-2-8-8h-1Zm1-4 6 5 2 1 1-1v-17l-1-1-8 13Z"/>
    <path d="m451.2 409.4 9-3 1 2-1 10v15l1 4c3-4 6-7 8-12l3-6c1-2 3-4 6-5h2l-1 1c-2 1-3 3-3 5l-1 3c0 4-2 8-5 11l-4 3-2 2 5-1c6-1 10-3 15-6l5-2h3l-3 2-4 4-1 1c-3 5-6 6-12 5-5-1-6-1-10 2l1 10h1l18-9c3-2 7-2 10 1l5 4c2 2 3 4 6 5l-1 2c-2 0-5 0-7-2l-3-2 1 5 1 7 2 10c1 1 2 2 1 3l-2-1c-4-4-6-9-7-15l-1-6-1 2-4 5c-3 3-4 6-4 10l-1 6-2-2-1-5c-1-5 0-9 4-12 3-4 4-7 3-12h-2l-15 9c-1 3 0 6 1 10l6 34 4 21v4l-9 4-1-2-3-25v-13l-2-22-2-16-3-19-3-18-1-6Zm-130 67-8 2-1-2-4-16-4-25-7-36-2-15-4-17 7-2 1 5v11l2 18 2-2 4-10c3-9 6-18 11-26l5-9 2-3 5 5v1c-7 9-13 20-17 31l-8 20c-1 2-2 3-1 5l2 9 2-2 27-58 1-1 6 4-2 3c-6 5-10 12-13 18l-15 36-2 6c-2 3-2 6-1 9 2 11 5 21 9 31l3 10Zm86-138-3-1h-7l-5 2c-5 2-9 3-14 2l-5-2h-5l2 1c3 1 6 3 8 6 2 2 5 4 8 4l3 2c5 2 8 6 7 11l-2 8-2 1-1-2c0-5-1-10-3-14 0-2-2-4-4-4l-10-5-10-4 2 2c6 5 11 11 12 19l3 9 1 3-2-1a28.2 28.2 0 0 1-10-17c-1-5-4-9-8-11l-6-4-5 8 2 1 4 4 2 4 8 13c1 1 3 2 3 4h-2c-5-2-10-5-12-11h-1c-2 4-3 9 0 14l3 6 1 2c-3-1-6-5-7-8l-4-11v-11l-3 2-6-4 9-11 8-11 10-10 9-11 5 6-8 6-7 6 2 1c5-2 10-2 15-1l16 3c4 0 6 1 9 4Zm-6 151 1-5 1-15 1-4c4 0 7 2 11 3l-1 1c-5 12-9 24-12 37-2.7 13.5-7 26.6-13 39l-2 13-2 13-1 3-10-1 1-2 5-12c3-6 6-11 7-17l10-34 3-10-1-3-7-13-1-1c-2 3-1 6-2 8l1 9-2-2c-2-4-3-9-3-13v-6l-1-6-2-1 1 6c1 4 0 8-3 12l-1 2c-3 3-6 7-7 12l-1 3c-2 0-1-1-1-2l3-15 2-2c2-5 3-9 3-15l-2 2c-3 4-7 7-12 7l-11 1-2-1 2-1c7-2 13-5 18-9l3-2c6-5 15-1 16 5l3 6 7 10h1Zm18-127 9-4c2 7 1 14 2 21l1-9 3-15 1-3 11 2-1 5-3 9c-6 16-11 31-14 47l-9 39c0 4-1 7-3 10l-10-3v-2l3-7 4-8c4-8 7-17 9-26l3-14 1-5-6-30-1-7Zm-148 7h5l1 3 2 14 12 42 7 27 5 19 1 8-8 3-1-3-1-7v-4c-2 1-1 4-3 5l-2-4-2-4 4-11 1-5-2-10-2-3-6 17-4-7 2-3 6-14v-4l-7-33-6-18-2-8Zm17 164-8 2-1-3c-2-14-4-27-8-40l-5-27v-5l5-2c2-1 4-2 5-5v-1c2 1 2 3 2 4l2 4v1l-1 1c-3 6-3 13-4 20l1 9 4-10 5-9 4 9-5 8-4 10-1 5 5 13 3 14 1 2Zm53 52-7 2-1-3-4-17-6-27-5-27-3-21-2-10 8-3 1 6v25l10 46c2 9 4 17 8 26l1 3Zm97-292 7-2 1 2-1 11c-1 5 0 11 1 16l1-2 6-26 1-11v-6l1-4 9 2-1 3-2 7-4 11-6 26-4 24v4l-10-1 2-4 4-8 1-5-2-13-2-13-1-7-1-4Zm-141 195 6-2 1 1c0 7 2 14 4 21 4 11 6 22 7 33l6 35 1 13-8 2v-7c1-10 0-20-1-31l-3-22-4-16-8-22c-1-2-2-3-1-5Zm-41-116 6-1 1 4-1 24 3 20c1 10 3 19 7 29l1 2-8 2-6-40-3-40Zm-8 85-6 2v-3c1.4-25.3-1.3-50.6-8-75l-1-6 5-1 1 2 3 22c3.3 18.5 5.3 37.2 6 56v3Zm-19-166h5l1 1 2 25 2 25v24l-7 1v-9l2-25-2-26-3-14v-2Zm33 73h-7l-1-5-2-29v-39l4-1v3l-1 22 3 30 3 14 1 5Zm107-57 4 4-16 16-22 23-2 1-5-3c0-2 1-2 2-3a202.6 202.6 0 0 0 31-29l8-9Zm46-6 5-2 1 7 1 16c0 9 2 18 4 27l1 6-8 2 1-14c.1-9.4-.5-18.7-2-28l-3-14Z"/>
    <path d="m360.7 547 2.8 2.8 2.8-2.8-2.8-2.8-2.8 2.8Zm-5.9-19c0 .3-.3 6.7-.2 13.2-6.8.5-5.7-13.3-5.3-15 .2-1.4-4.4 1.7-6.6 3.8.7 1.3 1.7 1 3 .5-.5 6.2 3.8 11.8 9 11.7.1 6.4.8 12.5 2.6 13 .2.1.4-6.5.6-13.7 12.2-3.8 7.5-18.3 7.5-18.3-.2-.8-2 .4-6 4 1.6 1.6 2.4.6 3.6.2 1 2 1.4 10.5-5 13.1l.2-18c0-.2-.2-.3-.4-.3-1.8.2-5 3.4-7.5 6.1 1.4 2.2 3.2.2 4.5-.4"/>
  </g>
</symbol></svg>
