<svg xmlns='http://www.w3.org/2000/svg' viewBox='0 0 696 830' fill='none'><symbol id='ARPC_Outline'>
  <g fill="#A7BFB9">
    <path d="M118.5 425.2c1-28 3-56 8-84 3-16 8-31 14-46l16-42c4-11 10-22 17-32l23-32c18-23 41-40 67-52l41-14c10-3 19-3 29-3h27c13 0 25 1 37 6 14 4 29 9 42 16 21 10 39 24 54 42 10 12 19 24 27 37 7 10 13 21 17 32l21 55c14 55.2 18.8 112.3 14 169l-5 35c-2 19-8 37-16 54-14 30-31 56-54 79l-18 17c-21 20-46 32-74 38l-47 8c-11 1-23 0-34-1l-39-7c-27-7-51-19-71-38a303.8 303.8 0 0 1-74-100c-8-18-13-37-15-56l-5-46-2-35Zm6 23 3 33 7 35c11 46 33 85 66 119l19 18a168 168 0 0 0 75 42c16 3 32 7 48 8l29-2 22-5c30-6 56-19 78-40l25-24c24-25 42-53 54-86 6-16 9-33 13-50s6-35 5-53l-3-58c-3-28-9-55-19-81-9.2-24.2-18.9-48.2-29-72-11-19-24-37-38-54-13-15-29-27-48-34-21-7-41-13-63-16-16-2-32-2-48 1-19 3-37 8-55 14-13 5-25 11-35 20-7 6-14 13-20 21l-27 36c-7 12-14 24-19 37l-14 39c-11 26-18 53-21 82l-5 70Z"/>
    <path d="M519.5 418.2c.4 34.5-5.7 68.8-18 101l-15 32c-14 27-34 50-60 67a197 197 0 0 1-73 29c-8 1-15 0-23-1-21.9-4-42.6-12.5-61-25-30-18-51-43-67-74-7-15-14-29-19-45a234.7 234.7 0 0 1-12-78c.9-38.7 8.7-77 23-113 10-23 24-44 40-63l13-15a144.2 144.2 0 0 1 94-52c40.9 1.8 79 21.6 104 54l19 23c22 27 37 58 46 93l7 31c2 12 2 25 2 36Zm-8 11c.8-23-2.3-46-9-68-8.7-38.2-25-74.3-48-106-8-11-17-22-28-30a314.8 314.8 0 0 0-36-22l-37-14c-5-2-11-1-16 0l-10 4c-21 6-39 16-57 28-15 11-27 24-37 40l-17 30a253 253 0 0 0-29 79c-4 12-6 25-7 37-1 18-1 35 1 52 1 15 4 29 8 43 5 14 12 28 19 42 6 12 13 22 22 32 16 17 35 31 55 43 16 10 33 17 52 21 5 1 11 2 16 0l17-4a242.3 242.3 0 0 0 94-63c6-8 13-17 17-26l13-26c5-11 9-22 12-34 4-19 5-38 5-58Z"/>
    <path d="M356.5 535.2c-15 0-29-4-42-10s-26-14-37-23l-14-10-9-7c-9-6-20-7-30-3l-15 5c-2 1-3 2-4 1v-4c3-16 11-29 24-39 14-11 30-15 48-12 17 3 33 9 49 17 3 2 3 2 6-1 7-5 13-11 18-18 4-8 7-16 6-25l-1-4c-2-3-4-3-7-2l-11 5c-7 4-15 5-23 4-6-1-12-3-17-7-3-3-7-6-11-7-2-1-5-2-6-4-5-4-5-10-1-14l7-5c7-2 12-6 16-11l13-10c8-4 14-10 19-17l7-11 7-6c2-1 3-2 3-4v-26c-1-2 0-4 3-3l9 1c4 1 7 4 10 7 3 2 3 2 5-1l8-9c3-3 5-3 8-1l4 2c9 8 15 18 16 31 1 5 0 11-1 16-1 1-1 3 1 4 17 12 27 29 34 48 5 16 7 32 6 49a134 134 0 0 1-37 78 87.2 87.2 0 0 1-49 26h-12Zm48-114v-8l1-3 3 2 6 7h1l1-1v-2l-2-13c0-2-1-3 1-4 1-1 2 1 3 2l7 7 2 1v-2l-2-16v-6h3l3 3 5 4c1 2 1 0 1-1l-2-12c-4-15-12-27-23-38-1.3-.7-2.3-.3-3 1l-3 6c0 1-2 2-2 0l2-11c2-8 3-16 2-25-3-10-8-19-16-27-1-2-2-1-3 1l-3 5c-3 6-8 12-13 18l-4 3h-3v-2l-1-3c-4-2-6-6-6-10-1-3 1-4 4-3l7 4c1 1 2 2 3 0 1-1 0-1-1-2l-15-9h-1l-1 2c3 9 3 17 1 26-1 3-2 5-5 6-3 2-6 4-8 8l-4 6c-6 9-13 16-23 21-4 2-8 4-11 8-4 6-9 10-16 12l-6 3c-3 2-3 6 0 9l6 3c4 1 7 3 11 6 5 5 12 7 19 7 6 0 12-2 18-4l10-5h9l6 3c9 4 19 8 30 8l5 1c2 1 1 2 0 2l-3 1-12 2c-6 0-12-2-17-4-2-1-2-1-2 1a43 43 0 0 1-22 39l-7 4v3c8 4 16 8 24 10a91 91 0 0 0 87-33l1-3c1-11 0-22-3-33 0-1-1-2-1 0 0 0 0 4-2 5s-3-1-4-2-3-4-4-3 1 3 1 4c1 5 2 9 0 14 0 2-1 3-3 3s-2-1-3-2l-6-7-1-1v1l2 12v7c0 1-1 3-3 3-2 1-3-1-4-2l-3-4-2-4-1 1 1 7-2 11c0 2-1 3-3 3s-3-1-4-3c-1-5-4-10-8-15-1-1 1-1 1-1l8 6 1 1 1-2v-7Zm-48 106 15-1c15-4 29-11 40-22 16-17 27-36 33-58l1-3s0-2-2 1a86.7 86.7 0 0 1-50 28c-22 5-42 2-61-9l-9-6c-14-8-28-14-44-17-18-3-33 1-47 12-11 8-18 18-23 30v1h1l15-8c12-4 22-3 33 3 5 2 9 6 14 9l18 14c10 7 20 13 32 18 11 5 22 8 34 8Zm-68 15c-2 0-4-2-4-4 0-3 2-5 4-5s4 2 4 5c1 2-1 4-4 4Zm88 59c0 2-2 4-4 4-3 0-5-2-5-4s2-4 5-4c2 0 4 2 4 4Zm-166-210c2 0 4 2 4 4 0 3-2 4-4 4s-4-2-4-4c0-3 2-4 4-4Zm54-134c-2 0-4-2-4-4s2-4 4-4c2 1 4 2 4 4s-2 4-4 4Zm226 184c0 2-2 4-4 4s-3-2-3-3c-1-2 1-4 3-4s4 1 4 3Zm-59-162c0 2-1 4-3 4s-3-2-3-4 1-3 3-3 3 2 3 3Zm-118 35c0 1-1 3-3 3s-3-2-3-3c0-2 1-4 3-4 1 0 3 2 3 4Zm135 193c0 2-1 3-3 3s-3-1-3-3 2-3 3-3c2 0 3 2 3 3Zm-92 70c1 0 3 1 3 3 0 1-1 2-3 2l-3-2c0-2 1-3 3-3Zm-83 11c-1 0-2-1-2-3 0-1 1-2 3-2 1 0 2 1 2 3 0 1-1 2-3 2Zm89-329-2 2c-2 0-3-1-3-2 0-2 2-3 3-3 2 0 2 1 2 3Zm83 76c0 2-1 3-2 3-2 0-3-1-3-3l3-2 2 2Zm-187-38 2 2c0 2-1 2-2 2-1 1-3-1-3-2l3-2Zm100-79-2 1c-1 1-2 0-2-2l2-2c1 0 2 1 2 3Zm-108 315 2 1c1 2-1 3-2 3s-2-1-2-3l2-1Z"/>
    <path d="m389.5 309.2 1-4c2-3 3-3 5-1l2 2 5 8c3 6 1 13-3 18l-3 1-3-3v-3l-2-11-2-7Zm-39 51-4-1c-2 0-2-1-1-2l8-7c2-2 5-1 6 1 2 2 1 4-1 6s-4 3-8 3Zm-62 96 15 9 23 15 6 5c2 2 2 4-2 5l-8-1c-4-1-8-2-11-5l-13-10-12-9c-8-6-16-9-26-9h-8l4-2c13-5 26-1 32 2Zm-41.4-93.4 2.8 2.8 2.8-2.8-2.8-2.8-2.8 2.8Zm-5.9-19.1c0 .4-.3 6.8-.2 13.3-6.8.5-5.7-13.3-5.3-15 .2-1.4-4.4 1.7-6.6 3.8.7 1.3 1.7 1 2.9.5-.4 6.2 3.9 11.8 9 11.7.2 6.4.8 12.5 2.7 13 .2 0 .4-6.4.6-13.7 12.2-3.8 7.5-18.3 7.5-18.3-.2-.8-2 .4-6 3.9 1.6 1.7 2.4.7 3.6.3 1 1.9 1.4 10.5-5.2 13l.3-18-.4-.2c-1.8.2-5 3.4-7.5 6 1.5 2.3 3.2.3 4.6-.3"/>
  </g>
</symbol></svg>
