<svg xmlns='http://www.w3.org/2000/svg' viewBox='0 0 696 830' fill='none'><symbol id='BALC_Outline'>
  <g fill="#FDBE00">
    <path d="M124.1 445.2a197 197 0 0 0 5 49c4.8 19.5 10.1 38.8 16 58a255.3 255.3 0 0 0 54 82l19 19a164.3 164.3 0 0 0 79 43l33 6 18 1 11-1 9-1 32-6c15-4 29-9 42-17 12-8 24-17 34-27l16-16a527 527 0 0 0 32-38 254.5 254.5 0 0 0 43-127l1-17-1-28-1-15v-1l-1-14-1-12-2-15a260.3 260.3 0 0 0-20-73l-10-28-10-23c-4-10-10-20-17-29l-20-28c-9.6-13-21.5-24.2-35-33-8-5-16-8-24-11a391.3 391.3 0 0 0-64-15l-13-1h-5l-16 1-9 1-24 5-32 10a113.5 113.5 0 0 0-52 38l-31 43c-6 10-12 22-16 33a9770 9770 0 0 1-27 76c-4.3 15-7.3 30.4-9 46l-1 12-1 18v2l-2 22v11m-6-18v-19l1-19 1-11 2-16 4-21c1-9 4-18 6-26l11-31 13-32 13-26a410.6 410.6 0 0 1 40-52l13-12c11-9 23-16 35-22l20-8 22-7c9-3 19-5 29-5h8l7 1h6l23-1 18 4c13 4 26 8 39 14a170.2 170.2 0 0 1 71 56c7 8 13 17 18 25 9 12 16 25 21 39l15 40a279 279 0 0 1 19 96l1 17v26l-1 22-2 19-2 17-1 14c-8.3 47-29.8 90.8-62 126l-18 19-21 19a163.6 163.6 0 0 1-71 30l-28 4-12 1-7 1-21-1-38-7a153.5 153.5 0 0 1-78-39l-19-19c-9-10-18-20-25-30-10-14-18-28-25-43-8-17-14-34-17-51l-3-19-2-17-1-10-1-11v-3l-1-32"/>
    <path d="M510.1 431.2a261 261 0 0 0-36-139l-15-27-9-14a298 298 0 0 0-24-25l-21-14-9-6a275.5 275.5 0 0 0-44-16c-5-2-10-2-14 0l-31 10a138.7 138.7 0 0 0-38 22 90.2 90.2 0 0 0-23 21l-13 18-10 17a395.2 395.2 0 0 0-26 56c-4.6 14.6-9 29.2-13 44l-4 31-1 23 1 12c.4 10.7 1.4 21.4 3 32 1 11 4 22 8 32a402.6 402.6 0 0 0 32 61 240.2 240.2 0 0 0 89 64l21 7c7.5 2 15.5 2 23 0l4-1c13-3 26-9 38-15 17-10 33-21.4 48-34l15-16c8-8 15-17 20-27l11-22c11.8-25.4 18-53 18-81v-13m-339-11v-15l1-14c2-19 8-37 13-55 2-9 6-18 10-27 11.1-24.5 26-47.1 44-67l9-11c5-5 10-11 16-15l14-12c5-4 12-7 18-10l17-7 22-5c4-1 8-2 12-1l13 2 30 9c12 5 22 12 32 20l9 8 12 13 11 13 17 22c15 20 26 43 34 67l6 25 5 19 2 15c2 17.6 2 35.4 0 53a283.9 283.9 0 0 1-19 77l-12 26a243 243 0 0 1-35 48c-20 17.2-42.6 31-67 41l-24 7c-8 2-16 2-24 1l-10-1c-13-3-26-8-38-14s-23-12-33-19-19-15-26-24l-12-14c-7-9-12-19-17-29l-10-23a211.3 211.3 0 0 1-19-71l-1-32"/>
    <path d="m298.1 403.2 3 4 3 3v-4c1-2 0-3-2-3l-4 1m82 3v3h1l5-5v-1l-1-1h-1c-2.7 0-4 1.3-4 4m0 60v3l1 1v-1l9-8 2-2 1-1h-1l-9-4-2 1-1 11m-89-8 7 5 5 7h1v-15l-2-1-11 4m88-194v12l1 27 1 19c.1 6.7-.3 13.4-1 20l12-12 9-4 5-4c5-3 6-7 6-12-1-4-2-7-4-9l-5-8-11-11c-5-5-10-11-13-18m-75 79v-23l1-22v-33c0 1-10 15-16 21l-10 11c-4 4-7 9-6 16 0 3 1 5 3 8l7 5 8 3c5 3 9 7 12 12l1 2m1 35c.7-9.3-.3-17-3-23v-1c0-2-2-4-4-5-6-5-14-8-22-8h-16l-9 1v2l8 18a61 61 0 0 0 44 34c1 1 2 0 2-1v-17m113-37-16 1c-6 1-11 3-16 7-2 1-3 3-3 5l-3 7-1 8 1 26 1 1c7-1 13-3 19-6 10-6 17-13 22-23 5-7 8-15 12-23l-1-2-15-1m-130 108 12-1c3 0 3-1 3-3l1-24c0-6 0-6-5-11l-2-2c-8-8-18-11-30-12a96 96 0 0 0-43 8c-2 0-2 1-1 2l5 9 8 14c5 6 10 10 17 13 11 5 23 7 35 7m93-4c0 2 1 3 2 3l10 1c13 .5 26-2 38-7 7-2 12-7 16-12l9-15 5-8c1-2 1-3-2-4-13-5-27-7-41-7-6 0-11 1-17 3-7 3-13 7-18 13l-2 7v26Zm-2 91 18-1 15-1c11-2 21-6 31-12 11-7 20-16 28-26 7-8 12-16 18-25l2-3c1-2 0-2-1-3l-5-2c-14-4-28-9-43-11-3-1-6 0-8 1a93.2 93.2 0 0 1-35 6l-16 13-2 2-1 3v27c0 5-4 9-9 11l-8 2-12-1h-18l-12 1-9-2c-5-3-8-7-8-12v-11l1-14-2-4c-5-6-10-11-17-14l-4-2c-11 .4-21.9-1.7-32-6h-6l-6 1-22 5-18 6-3 1c-2 1-2 1-1 3l2 3 11 17c7 10 16 20 26 28 15 12 33 18 52 19h7l20 1 9-1h46l12 1m-68-209v16l-1 21v15l2 12v12l1 28-2 16-2 17-1 12v14l1 8c1 5 4 8 9 9l11 2h25l15-3c3-1 5-3 5-6l2-9v-18l-1-9-2-16-1-13v-23l1-18 1-9v-28l-1-17v-21l1-20v-2l1-26 3-17 1 2c4 8 10 15 16 21l17 14c3 4 6 8 7 12 2 6 2 12-1 18-2 3-4 6-8 8l-10 4c-4 2-8 4-11 8l-1 1v1h1l3-2c5-2 9-3 14-3l7-1 19 2 3 1 2 3-1 9-3 14c-4 8-8 15-14 21l-5 4c2 2 4 1 7 1 8 0 16 1 24 4l15 5 3 2c2 0 2 2 2 3l-3 9-6 15c-2 6-5 11-10 15l-1 2c-1 0 0 0 0 0l1 1c15 3 30 8 44 14h1c4 2 4 4 3 7a253.5 253.5 0 0 1-22 39c-8 11-19 20-31 26a82.7 82.7 0 0 1-49 10l-16-2h-70l-24 3c-12-1-23-3-34-8a96.5 96.5 0 0 1-42-38c-6-9-11-19-15-29-2-5-2-6 4-8l24-9 20-5 1-1-1-1c-6-5-10-12-13-20l-6-18v-1c-1-3 0-4 2-5l6-3 22-6 17-1h3v-1a60 60 0 0 1-21-36l-2-10c0-3 1-5 4-5l8-2 12-1c8 0 16 1 23 5l3 1-2-3-7-5-8-3-8-4c-4-4-7-8-8-14s1-11 4-17l9-11 11-8 11-12c3-3 4-7 6-10l1-2 1-1 1 1 1 6v8l1 25 1 14v20m190 86c-1 3-3 6-6 6s-6-3-6-6 3-6 6-6 6 3 6 6"/>
    <path d="M362.1 480.2c-3 0-6-3-6-6s3-5 6-5 5 2 5 5-2 6-5 6m-34 77c3 0 5 2 5 5s-2 6-6 6c-2 0-4-3-5-5 0-3 3-6 6-6m81-307c0-3 2-5 5-6 3 0 6 2 6 5s-3 6-5 6c-3 0-5-2-6-5m-182 104c0 3-2 6-5 6-3-1-5-3-5-6l5-5c3 0 5 3 5 5m235 6c0 3-2 5-4 5-3 0-5-2-5-4-1-2 2-5 4-5 3 0 5 2 5 4m-149-147c3 0 5 2 5 5 0 2-3 4-5 4s-5-2-4-4c0-3 2-5 4-5m94 361c0-2 2-4 4-4 3 0 5 2 5 4 0 3-2 5-5 5-2 0-4-2-4-5m-77-265c-3 0-5-2-5-4s2-4 5-4c2 0 4 2 4 4s-2 4-4 4m-127 71c-2 0-4-2-4-4s2-5 5-5c2 1 4 2 4 5 0 2-2 4-5 4m151 15c0-3 1-4 4-4 2 0 3 1 3 3 0 3-2 5-4 5s-4-2-3-4m-57 193c-1 0-3-1-3-3 0-1 1-3 3-3s3 1 3 3-1 3-3 3m-13-351c-2 0-4-2-3-3 0-2 1-3 3-3 1 0 3 1 3 3s-2 3-3 3m59 194c0 2-2 3-4 3s-3-2-2-4c0-1 1-2 3-2l3 3m-20 193c-1 0-3-1-3-3 0-1 1-2 3-2l2 2c1 2-1 3-2 3m134-242-2 2-2-2 2-2 2 2m-251 51c1 1 0 2-1 2l-2-1 1-2 2 1m202 92h-11l-4-3v-3l5-2 8-2 9-2c7-2 14-5 19-11l10-11c5-5 10-10 16-13 5-3 10-4 15-3v1h-2c-4 1-7 4-11 6l-9 12-9 14a40 40 0 0 1-36 17m-132 0a41.2 41.2 0 0 1-34-15l-10-15-5-7c-4-6-10-10-17-12h-1l-1-1h1c5-1 10 0 14 2l12 8 12 14c7 7 14 12 24 14l15 4 4 1 2 2v2l-5 3h-11m138-85c-2 0-4 0-5-2-1-1 0-2 3-3l7-4c6-3 12-7 17-12l5-5 5-3h3c1 1-1 2-2 2l-5 10-5 7c-5 5-11 8-17 9l-6 1m-143 0c-8-1-15-2-21-8l-6-6-3-7-6-7c-1-1 1-1 1-1 4 1 7 2 9 5l6 5 11 8 9 5 4 2c1 1 1 3-1 3l-3 1m127-61-1-1-1-2 1-2 3-3 13-16c2-2 4-4 6-4l2-1 1 1v1l-6 12c-1 4-3 7-6 9-3 3-6 4-10 5l-2 1m-113 0-7-3c-5-3-8-7-10-11l-1-5-4-8v-2h1l4 3 5 4c4.4 6.5 9.4 12.5 15 18v2c0 1-1 2-3 2m12-88-2 7-3 7-4 10-1 4c-1 2-3 2-4 0l-1-1c-2-4-3-8-1-12l4-6 6-6 4-5c0-1 0-2 1-1l1 1v2m107 21-2 7c0 1-1 2-2 1-2 0-2-1-3-2v-2l-5-12c-3-5-4-9-5-14l1-2h1l1 1c1 3 3 5 6 7l5 7c2 2 3 5 3 9m-59 268c0 .5-.3 6.9-.2 13.4-6.8.5-5.7-13.3-5.3-15 .2-1.4-4.4 1.7-6.6 3.8.7 1.3 1.7 1 3 .5-.5 6.2 3.8 11.8 9 11.7.1 6.4.8 12.5 2.6 13 .2 0 .4-6.5.6-13.7 12.2-3.8 7.6-18.3 7.6-18.3-.2-.8-2 .3-6 3.9 1.6 1.7 2.4.7 3.6.3 1 1.9 1.4 10.5-5 13l.2-18-.4-.2c-1.8.2-5 3.4-7.5 6 1.4 2.3 3.1.3 4.4-.3m6 19 2.7 2.9 2.8-2.8-2.8-2.8-2.8 2.8Z"/>
  </g>
</symbol></svg>
