<svg xmlns='http://www.w3.org/2000/svg' viewBox='0 0 696 830' fill='none'><symbol id='BEIC_Outline'>
  <g fill="#9BADFA">
    <path d="M569 440.5c-2.2-31.8-5.5-63.5-10-95l-12-39-19-52a497.6 497.6 0 0 0-51-79c-14-13-28-24-46-31l-29-9c-16-5-33-8-50-9l-16 1c-24.6 3-48.7 8.7-72 17-11 3-20 8-28 14-9 6-17 14-23 22-11 12-20 25-29 38-9 14-16 28-21 43l-14 35a332.4 332.4 0 0 0-24 125 301 301 0 0 0 10 100c9 38 27 72 52 101 12 15 26 28 40 40 18 15 38 26 60 32l26 6 15 3h28l13-1 29-6c25-6 48-17 68-34l26-26a237.1 237.1 0 0 0 64-107c5.3-23.8 9.7-47.8 13-72v-17m-451-12c.5-26.8 2.8-53.5 7-80 2-15 6-30 11-44l13-35 7-17a437.2 437.2 0 0 1 45-69c19.8-24 46.2-41.8 76-51 9-3 19-7 29-9 10-3 21-3 31-3h17c13-1 26 0 39 5 15 4 29 9 42 15a172 172 0 0 1 59 46l24 33c8 11 15 23 19 35l17 44c10 25.3 16 51.9 18 79 3 28.9 3.3 58 1 87l-4 38a199 199 0 0 1-35 96c-11 18-24 34-39 49l-18 17a152 152 0 0 1-83 39l-26 4-13 2h-11l-23-2-27-5a160.4 160.4 0 0 1-83-42l-30-30c-19-24-35-50-46-79-5-13-8-26-10-40l-5-42-2-41"/>
    <path d="m490 530.5-1-1-1 1-1 1h2l1-1m-236-294h-2l-1 1v1h1l2-1v-1m256 222v-1h-2l-2 1v1l3 1h1v-2m-29 88v1l1-1 2-5v-2h-3v7Zm-189-336v-2h-1l-3 1-2 2 2 2c4 2 4 2 4-3m39-15 1 1 1-1 8-4 2-2v-1c-4 0-7 2-11 3l-1 1v3m95 410v1h1l10-9-9-9h-1l-1 1v16m-140-387-3-3h-4l-18 13-4 3v1c0 2 2 3 4 2l9-5 16-10v-1m215 244h-1l-12 10c6.2 2.9 12.2 6.3 18 10l1-1 2-14-1-2-6-3h-1m-175-266v-2l-1-1-7 3-18 7c-2 1-3 2-3 4l-1 6c0 1 1 2 2 1 9-3 18-7 27-13l1-3v-2m100 375v9l2 3 12 11h3l10-10 1-1v-2l-1-1c-9-5-18-11-26-18h-1v9m34-56h1l6-4c6.8-2.9 13.8-5.3 21-7h1v1l-2 1-9 5-13 6v2l15 8h2l13-8 3-8 7-21-1-3-21-12h-2l-12 5-1 1 1 1 13 7 8 7 1 2h-2c-9-4-17-8-25-14h-4c-8 2-15 6-22 10l-4 2 4 3 6 5 5 4 9 7h2m2 19-2 20v2h-2v-2c-2-11-3-22-1-32 0-3 0-4-2-5l-11-5-13-7-1-1-1 1 2 28 1 2 6 5a121 121 0 0 1 16 16v1h-1l-3-2-19-15-1 1-3 13c5.5 4.9 10.8 9.9 16 15l13 10c1 1 1 1 3-1l5-6c3.8-5.3 7.4-10.6 11-16v-23l-11-9-2-2h-1v1l1 11m49-103v-16c-.4-16-3-31.8-8-47l-8-30c-5-16-12-31-20-46l-18-31a642.4 642.4 0 0 0-32-36l-11-8c-9-7-20-13-32-17l-21-8c-3-1-5 0-6 2l2 1 19 13 7 5v2h-1l-4-1-10-6c-7-3.2-14-6.5-21-10l-10 5h-1v1l2 1c6 3 12 7 17 12l3 3v1h-2l-25-14-4-1c-8.8 3.3-17.2 7.6-25 13v1l14 11 9 6h3l7-4 18-6h3l-1 1-9 5-14 7h-1l1 1 15 8h2l5-2 28-13h1v2l-4 3-11 7-12 6c-3 1-3 1 0 3l7 5c3 2 4 2 7 1 5-3 10-5 16-6h5l-1 1-2 2-10 4-6 2v2l5 4 13 11 2 3v1h-1l-4-2c-6.6-3.2-12.9-6.9-19-11l-1 1-1 13v6l-1 3-1-2-1-3-1-19-1-3-12-7-1 1v1l-2 25-2 9-1 1-1-4 1-26v-9l-1-3-11-9-2-2h-1v1l1 7c.3 8.8-.7 17.5-3 26h-1v-3c-2-11-3-22-1-33l-1-2-11-6a72.3 72.3 0 0 1-14-8l-2 1 1 8 1 19 1 3 13 11 8 9 1 2-2-1-19-15-2-1h-1l-3 12c-1 4 0 4 3 6l27 22 3 2v1h-1l-4-1c-10-6-19-12-27-20l-2-1v18l2 4 16 14c1 1 2 2 1 4l-4-1-12-10-2-2h-1v16c-.5 4.2-1.9 8.3-4 12h-2l-1-2-1-8v-19h-1l-2 2-12 8-4 2h-1v-2l3-3 16-12 3-4 1-13v-5l-1 1-7 5a144 144 0 0 1-27 14l-1-1 1-1 3-3 30-18c2-1 2-2 2-3l-1-14h-1l-1-1-1 1-16 10-6 4h-1v-1l6-6 17-12c2-1 3-3 3-5 0-6 1-13 3-19l1-7-1-1c-6 4-12 6-18 8l-8 3c-2 1-3 2-3 4 1 11-1 21-3 32l-2 2-1-3c-1-10-.3-20.2 2-30v-1l-1 1-14 9-1 3-1 14-3 23v2l-1-1v-1l-1-27 1-5-1-1-2 2-18 33c-9 17-17 33-22 51l-8 30a221.1 221.1 0 0 0-4 93c2 15 5 29 11 43a416 416 0 0 0 32 60c30 34.6 69.7 59.3 114 71h15c23-4.9 44.8-14.4 64-28 1-1 2-2 1-3v-22h-1l-2 2-12 8-4 2-1-1v-1l3-3c5-5 10-9 16-12 2-1 3-2 3-4l1-11v-7l-2 1c-9 8-19 13-30 18h-3v-1l3-3 16-10 15-9 1-2-1-14c0-2-1-2-2-1l-13 8-11 7v-1l1-1 7-7a482 482 0 0 1 18-14l2-20 2-7-1-1h-1l-17 7-9 4-2 3c1 9 0 18-2 26l-2 8-1 1-1-3 1-20 1-9v-2l-1 1-4 2-9 6c-2 1-2 3-2 4l-1 16c-.3 7.4-1.3 14.8-3 22l-1-2-1-14 1-19c0-2 0-2-2-2l-10 5c-2 1-3 2-3 4l-3 19-2 4-1-4v-3l1-9v-6l-6 2-17 7c-1 0-2 2-3 0l2-2c6.2-5.4 13-10 20-14v-2l-4-1-10-6-4-2v-2h1l6 1 15 8h3l11-6v-2l-12-7a70 70 0 0 1-14-12l-1-2h2l3 2 30 16 15-6h1v-1l-1-1-15-9-6-4-1-2h2c9 4 17 7 25 13l3 1 12-8 12-7c1-1 2-1 0-2-7-6-15-11-24-15l-3 1a187 187 0 0 1-28 11l2-3 11-6 10-5 1-1h-1l-11-7h-3l-17 8-12 5-4 1h-1v-1l2-2 8-5 19-9c2-1 2-1 1-2l-11-9-3-1c-8.3 2.9-16.6 5.6-25 8h1l5-4 15-7 1-1-8-5-7-2-9-7-1-3 1-2 2 1c4 0 7 2 10 5l5 4 8 6 2-1v-21l1-3h1l1 2 2 22v2l1 2 15 7-1-7c0-9 1-17 3-26 0-1 0-3 2-3v3l1 3v32l1 3 10 7 1-1v-2l1-17 2-8v-2l1 2 1 4c.5 10 .8 20 1 30 7.8 6.6 16.6 12 26 16l1-1v-6c0-10-2-19-1-28 0-2-1-2-2-3l-13-8-7-5-2-2v-1h1l2 1c7 2 13 5 18 9l2 2 1-1 2-12c1-2 1-2-1-3l-24-16-6-4-1-1 1-1h2l12 6 17 11h2l1-13c0-3-1-4-4-6-6-3-11-7-15-12-1-1-2-1-1-2h2l3 1 12 9 2 1v-3c-1-8.5 0-17 3-25l1-1 2 1v2l2 10-1 13-1 2v1h1l2-2c5-3.4 10.3-6 16-8l1 1v1l-2 2-11 7-7 4-1 2-1 15 2 1 1-1 21-11 9-3h1l1 1-2 2-9 5-21 11c-2 1-2 1-2 4l1 11v1h1l1-1a74.2 74.2 0 0 1 21-8h2l-1 1-9 6-13 7c-2 0-2 1-3 3v6l-3 20-1 6c0 2 1 2 2 2h1l25-13c2-1 2-3 2-4 .8-10.3 1.8-20.7 3-31h2l1 5-1 22v2h1l11-6 1-2 2-18 2-18v-2h2v5c.6 8 .6 16 0 24v5c-1 2 0 2 1 2l13-5c1 0 2-1 2-3 0-8 2-15 4-22v-2l2-2 1 3v7l-2 14 1 2 1-1h1c4-2 4-2 4-6v-17m8-11c0 34.9-6.5 69.4-19 102l-13 28a253.2 253.2 0 0 1-35 48 265 265 0 0 1-58 38c-12 5-24 9-37 11-9 2-17 1-25 0a162.7 162.7 0 0 1-66-28c-14-8-27-19-38-32l-6-8c-8-10-14-20-20-31l-11-26c-8-17-13-36-16-55a309 309 0 0 1 1-96c3-11 5-23 9-33a234 234 0 0 1 52-93l10-12a157.6 157.6 0 0 1 54-41c11-4 23-8 35-10h19a163.2 163.2 0 0 1 60 24c10.3 9 20.3 18.3 30 28l8 10c10 12 21 25 29 39 12 22 22 44 28 68l6 29c2.8 13.1 3.8 26.6 3 40"/>
    <path d="M204 472.5v-2h-1l-7 2-4 1h-1v-1l4-1 4-2c1 0 2 0 3-2l-3-1h-1v-1h4c3 1 5 0 7-1l8-4v-1l-2-2h-1l1-1 2 1h7l13-6 1-1h-1l-8-3h-2l-3 1v-4l-6-5h-2l-1 1h-3l2-2-1-2-6-2c-3-1-5-1-7-3l-3-1-2-1c-2 0-2-2-2-3 1-2 3-2 4-2l2 1 4 2 6 4 5 3h1v-2l1-1 1 1 1 3 1 2 7 2c1 1 1 1 2-1v-1l2 3 2 2 2 1 5 3-2-6-4-9-4-2-3-1v-1h1c3-1 3-1 2-3l-4-8-2-2-5-3h-1l1-1h2l3 1-1-4-2-7v-1l1 1 2 3 2 6 1 1 1-1 3-4 1 1-2 5v4l5 9h1l1-3h1l1 1-2 5v3l6 15h1l6-9v-3l-1-8v-1l1 1 2 3v2h1l1-4 2-5c1-7 4-13 8-19 1-1 2-2 1-3 0-3 1-4 2-4 2-1 4 0 5 2 1 1 1 3-1 4l-2 3c-1 7-4 13-8 18l-5 8v1h1l4-1h1v2a47.6 47.6 0 0 1-7 3l-2 2-3 10 1 1 15-5 2-2 3-5h1v1l-1 3v1h1l11-3 2-1 3-6 1 1-2 4 1 1 7-1 4-1h1l-1 1-8 3-2 1v1l3 2 1 1h-2l-5-2h-2c-3 2-6 2-10 3v2l1 2h-1v1l-3-3-3-1-8 3h-3l-5 2 5 2 2 1h5l2-1v1c-2 2-2 2 0 3l5 3h4c1-1 2-2 3-1l-2 2v2l7 1 8 3 2 1 3 1c1 0 2 2 1 4-1 1-3 2-4 1l-1-1-4-2-5-3c-2 0-4-2-5-3h-3v2l-1 1h-1l-1-3c0-2 0-2-2-2l-6-1h-2l-1 2h-1c-1-4-3-5-6-6l-3-2-2-1v2l5 15 3 3 3 1v1h-4l1 2 2 8c0 2 0 3 2 4l3 3v1h-1l-3-1 1 3 2 6v2h-1l-1-2-3-8c-1-2-1-2-2-1l-2 2h-1v-1l2-3v-2l-4-10h-1l-2 1h-1l2-4 1-3-3-17v-1l-1 1-7 11v3l1 6v1l-1-1-2-4-1 2-1 5c-1 6-4 11-8 17l-1 3c0 2-1 4-3 4l-4-4 1-3c1 0 2-1 2-3 2-6 5-13 9-18l2-2 1-2h-6l2-1 4-2 2-3 4-12v-1l-9 6-3 1c-3 2-6 4-6 7v1l-1 1-1-1v-2l-1-1-1 1-8 2-3 2-1 4-1 1v-3m200-166c3 0 6 3 6 6s-3 6-6 6c-4-1-6-4-6-7s3-5 6-5m-83 93c-3 0-6-3-6-6s2-6 5-6 6 3 6 6-2 5-5 6m156-46c0 3-2 6-5 6-4 0-6-3-6-6s2-5 5-5 6 2 6 5m-42-71c0 3-2 6-6 6-3 0-5-3-5-6s3-5 6-5 5 2 5 5m-94 303c0 3-2 5-5 5s-5-2-5-5 3-5 5-5c3 0 5 3 5 5m-21 23c3 0 5 2 4 5 0 2-2 4-4 4-3 0-5-2-5-5 0-2 2-4 5-4m27-223c-2 0-3-2-3-4 0-1 1-3 3-3s3 2 3 4-1 3-3 3m-131-47c-1 0-2 0-2-2 0-1 0-2 2-2l2 2-2 2m58.2 223.7 2.8 2.8 2.8-2.8-2.8-2.8-2.8 2.8Zm-5.9-19c0 .4-.3 6.8-.2 13.3-6.8.5-5.7-13.3-5.3-15 .2-1.4-4.4 1.7-6.6 3.8.7 1.3 1.7 1 3 .5-.5 6.2 3.8 11.8 9 11.7.1 6.4.8 12.5 2.6 13 .2.1.4-6.5.6-13.7 12.2-3.8 7.6-18.3 7.6-18.3-.2-.8-2 .3-6 3.9 1.6 1.7 2.3.7 3.6.3 1 1.9 1.4 10.5-5 13.1l.2-18c0-.2-.2-.3-.4-.3-1.8.2-5 3.4-7.5 6.1 1.3 2.1 3 .1 4.4-.4"/>
  </g>
</symbol></svg>
