<svg xmlns='http://www.w3.org/2000/svg' viewBox='0 0 696 830' fill='none'><symbol id='Benin_Outline'>
  <g fill="#9D432C">
    <path d="M569 439.2v-14a3041 3041 0 0 0-8-74c-3-15-7-30-13-44l-19-51c-5-12-10-23-17-34a552.6 552.6 0 0 0-34-45c-13-15-28-27-47-33-21-8-42-14-64-17l-20-1h-3l-14 1-16 2-24 6c-11 3-22 6-33 11-8 3-15 7-22 12-8 6-16 14-23 22a504.1 504.1 0 0 0-48 76l-12 31-10 28c-7 21-12 44-14 66l-3 32a468 468 0 0 0 2 72l7 35c9 39 27 73 53 103 13 15 26 28 41 40 15 13 33 23 52 30l41 9 10 2 14 1 10-1c6 0 11 0 17-2l48-12c18-7 35-17 50-31l23-22a236.2 236.2 0 0 0 61-98 394.2 394.2 0 0 0 15-100m6-18-1 35-2 24-3 25c-2 21-8 42-17 62a286.6 286.6 0 0 1-78 101c-18 16-40 26-63 32-9 3-19 4-28 6-13.6 1.7-27.3 3-41 4l-23-3-26-4a162.2 162.2 0 0 1-76-37 274 274 0 0 1-83-118c-4-11-7-23-9-35-3.2-30.6-5.5-61.3-7-92 .1-22.1 1.8-44.1 5-66 4-23 11-46 19-68l14-34c4-11 10-22 16-32l29-38c14-17 32-31 53-41 11-6 23-10 35-14l19-6 16-2 20 1h5l17-1 24 3 48 18c19 10 36 22 50 38a383.3 383.3 0 0 1 48 71l20 51c9 23.4 14.3 48 16 73l3 48"/>
    <path d="M512 439.2v-11h-2c-1 0-3 2-3 4v3c-1 2-2 13-1 17l1 2h2c2 1 2 0 2-1l1-14m-69 29 1 2 17 6h1l1-1c1 0 2-4 1-6l-1-9-1-2-13-2h-6v12m62 15c2 0 2 0 3-2 1.2-6.6 2.2-13.3 3-20 0-2-1-3-2-2h-13l-1 2-1 10v3l1 8v1h10m-15-21v-3l-1-1c-3 0-7-2-10-1l-7 2h-4l-1 8 1 9c0 1 0 2 2 2l11 3 8 1 1-1 1-6v-5l-1-8m-311-27 1 24 1 5 1 1 10-2v-2l1-21v-10l-1-10-2-26-1-7c0-3-2-5-4-7h-1l-1 1-3 21-1 33m3 35v3c2 18 7 34 15 50v1l2 1 10-3 1-1c0-6 0-12 2-17l-1-7-1-13 1-12c0-1 0-2-2-2h-26m102 16 1-14c0-3-1-3-3-3h-2l-21 3h-4v7l-1 19-1 11 2 11c0 2 0 2 2 2l14 3 10 3c2 1 2 1 2-1l2-13v-7l-1-14v-7m-43 35 7-1 2-12v-11l-2-11-1-14-18-2h-11c-3 0-4 0-3 3 1 8 1 16-1 24v7l1 15c0 2 0 2 3 2h23m103 122 7-1 23-6c12-4 23-11 34-18h1v-1c-11-3-21-4-31-3l-24 4-24 6c-10 2-20 3-30 2l-7-1 2 2 24 10 14 4 11 2m21-432 3 12c1 4 3 8 7 11 4 4 10 6 16 7l11 2 9 1c6 1 11-1 15-6l5-7v-2l-3-2-22-15c-3-3-8-5-12-7-8.7-4.3-17.8-8-27-11l-2 1v16m145 195h-1v3l-2 4h-1l-2-17v-4l-1 5s-4 15-9 21l-1 1h-1l1-6 2-12h-1l-1 1-5 8-6 6h-1l-1-1 4-9c2.4-6 4.4-12 6-18l-2 2a91.2 91.2 0 0 1-23 29l-2 1-1-1c3.7-6 7.7-11.5 12-17h-1l-2 2a73.7 73.7 0 0 1-18 11l-3 1-1-1v-1l2-4 6-6v-1l-15 8-2 2 1 12v17l-1 3v7l2 1 18 1c5-1 10-1 15 1h9l15-1 2-2v-10c-1-4-1-8 1-12 1-3 4-5 8-6l1-2-1-16m-224-14v-19l-2-2h-1c-13-6-25-13-36-22l-1-1v1l3 4 17 17 10 10 2 2-1 1-3-2-15-10c-9-6-18-13-25-20l-4-4 4 8 23 31 11 16v2l-2-1-19-18a231.3 231.3 0 0 1-30-37l1 4 16 34 6 15v2l-2-1-9-13-14-23-1-2-1 1 1 4 1 28-1 6h-1l-4-15-4-21-4-19-1-1v6l2 16v8c0 1 0 2-1 1l-3-13-3-14h-1l-3 15-2 6h-1v-11l-1 1-3 12 1 2c5 3 8 8 10 13l1 11c2 10 2 20 0 30v9c1 8 2 16 1 24 0 1 0 2 2 2l14 1c7 2 13 2 19 1l13-2h39l1-1v-5c0-9 0-17 2-26v-12c-1-10-2-19-1-29m-66 137-12 1h-7l-1 2 6 12c6 12 14 23 23 33 13 13 26 25 41 35l6 2c20 1.8 40.1 1.5 60-1l34-4c11 0 23 0 34 3l8 2h3l2-1a223 223 0 0 0 59-56l-1-1-2-1-17-1h-29l-22 2-25 2c-14 1-28 1-42-1-13-2-25-5-37-10l-18-7c-20-8-41-12-63-11m95-83-13 1-8 1c-1 0-2 0-2 2l1 11v21c-1 8-1 17-3 25-2 4-2 8-1 12l1 10 1 3 13 5c22 9 46 13 70 14 14 1 28 0 43-1l32-1 27 3c2 1 2 1 3-1l6-11 8-16 7-17 5-20c1-1 0-1-1-1h-11c-29.5-1-58.6-7.1-86-18l-41-14c-17-5-34-8-51-8m-14-241h-3l-8 2-6 4-12 8c-16 11-18 12-30 27l-10 14-11 20-1 1 1 2 1 1a472 472 0 0 0 96 54l16 8 4 3v1h-2l-17-4-42-14-13-6h-1v1l4 3 33 18 14 7 14 8 1 1-1 1-14-3a228.7 228.7 0 0 1-45-15l2 1c7 6 15 11 24 16l16 8 8 5 2 2v1h-2l-12-2-13-4-2 1 1 15c1 11 1 21-1 32-2 7-1 14 0 20l1 1 15-2c15 0 30 1 45 4l26 6 53 15 3 1c1 1 1 0 1-1v-6l1-8v-10l-1-14v-15l-3 1-4 2-1-1v-1l5-4 20-15 2-1 1-1h-2l-26 12-6 2c-1 0-2 0 0-1l5-4 28-17c11-6 21-14 30-23l10-10c3-3 3-3 2-7-5-17-12-34-20-49l-21-37c-5-9-12-17-19-24h-2c-3 5-8 8-14 9l-12 3-2 1c-6 2-11 2-17-1-4-1-8-4-12-7-6-6-12-12-16-19l-1-2c-3-6-4-12-1-19l2-6v-2l-11-3c-3-1-6-2-9-1l-5 1-29 10-3 2 4 1h17l20 3h2l2 1-2 1h-4l-10 1-17-2c-3-1-6-2-9-1h-6m217 216a285 285 0 0 1-19 100l-14 30c-4 9-9 17-15 25-11 13.6-23.4 26-37 37-13 9-26 17-41 23-11 5-23 9-36 11-7 2-15 2-22 1-15-3-30-7-44-14l-33-18c-14.4-9.6-27-21.8-37-36-8-10-14-20-20-32-5-12-11-23-15-35-9.2-23.3-14.3-48-15-73l-1-26c0-17 3-34 7-50l8-30c9-27 21-52 39-75l12-14 8-10c7-9 16-17 25-24 10-8 20-15 32-19 12.8-5.4 26.2-9.1 40-11 5-1 10 0 15 1 15 3 30 8 44 15l15 10c10 8.6 19.7 17.6 29 27l8 10 17 21c18 25 31 52 39 82l6 26c3 13 5 27 5 41v7"/>
    <path d="M471 323.2h-1l-2-2-7-11-2-7c-2-5-4-10-8-14l-6-9c-4-5-7-11-9-17l-1-4c0-2 1-2 2-1l3 3c3 4 7 9 9 15l4 10c3 7 6 13 11 19a37 37 0 0 1 7 18m-89-4 2-9 2-14 3-15c3-6.8 5.2-13.8 7-21 1-1 2 0 2 1l-1 3-1 5-1 11c0 6-1 12-4 18l-2 8-3 12-1 4-1 4c-1 0-1 2-2 1-2 0-1-2-1-2l1-6m-20-79-3 3-10 9-2 3-12 8c-4 1-7 3-9 5-5.2 4.5-10.5 8.8-16 13h-3l1-2 4-5 8-5 6-3 7-6c4-5 9-9 15-13l10-7 3-2c1 0 3 0 1 2m98 265.4c0 .4-.4 6.8-.3 13.3-6.8.5-5.7-13.3-5.3-15 .2-1.4-4.4 1.7-6.6 3.8.7 1.3 1.7 1 3 .5-.6 6.2 3.8 11.8 9 11.7.1 6.4.8 12.5 2.6 13 .2 0 .5-6.5.6-13.7 12.2-3.8 7.5-18.3 7.5-18.3-.2-.8-2 .3-6 3.9 1.6 1.7 2.4.7 3.6.3 1 1.9 1.4 10.5-5 13l.2-18-.4-.2c-1.8.2-5 3.4-7.5 6 1.4 2.3 3.1.3 4.5-.3m6 19 2.7 2.9 2.8-2.8-2.8-2.8-2.8 2.8Z"/>
  </g>
</symbol></svg>
