<svg xmlns='http://www.w3.org/2000/svg' viewBox='0 0 696 830' fill='none'><symbol id='Borneo_Outline'>
  <g fill="#FDBE00">
    <path d="M124.5 439.2a203 203 0 0 0 3 48l7 32c9.6 40.5 29.2 78 57 109a510.6 510.6 0 0 0 45 42c16 12 34 21 53 25l34 8h4l14 1h18l12-1 19-4 23-6c20-7 38-17 54-31l26-25a234.3 234.3 0 0 0 64-107l8-38c3-15 5-30 5-46a658 658 0 0 0-10-100c-3-14-7-27-12-40l-19-50c-5-12-11-24-18-35a566.8 566.8 0 0 0-44-55 106.3 106.3 0 0 0-39-23l-33-10-33-6-14-1h-4l-14 1-15 2c-9 1-17 4-25 6-11 3-22 6-33 11-8 3-16 8-23 13-9 7-17 15-24 23l-29 40c-6 11-12 22-16 33l-19 48c-12.2 32-19 65.8-20 100l-2 36m-5-46c2.7-33.4 9.4-66.3 20-98l16-41a472.4 472.4 0 0 1 46-72c21.1-23 47.6-40.5 77-51l26-8 22-3 19 1h4l23-1a350.6 350.6 0 0 1 61 19c24 11 45.3 27.5 62 48l24 31c8 12 15 25 20 38l15 40c6 15 11 30 14 46l4 27c3.1 21.9 4.1 44 3 66l-1 21-2 21-2 18a193.6 193.6 0 0 1-21 77 282.8 282.8 0 0 1-73 94 152 152 0 0 1-80 37l-26 5c-12 2-24 2-36 1l-25-3-23-5c-27-6-51-18-71-36-12-12-25-24-35-37-19-23-34-47-44-75-5-12-8-24-10-37l-4-32-3-24-1-26v-13l1-28"/>
    <path d="m461.5 287.2-1 2-2 1m-128 213s2 0 1-1l-9-10h-2l-1 1v2l6 6 5 2m12-180 9-3c7-2 12-8 16-14l-1-1c-5 3-11 4-18 3h-2l-9 3-5 5c-1 3 0 6 3 7h7m26 0c5-4 11-7 18-8l15-5 13-4 12-4 12-5 9-4h1v-1h-1l-36 10-46 15-3 2 2 2 2 2h2m75-33-2 1-18 1-16 4-10 2-17 2c-3 0-6 2-8 5a34.4 34.4 0 0 1-9 10l1 1 2-1 36-11c12-5 24-9 37-12l4-1v-1m-258 193-1 2 4 17c5 12.8 11.1 25 18 37l4-4 5-6c3-4 8-7 13-7l10-1c2 0 2 0 1-3l-2-5c-4-11-7-24-7-36v-2l-1-1-3 1-20 5c-3 0-17 1-21 3m73-208 8-1c7-1 14-5 20-9 8-6 14-12 20-20l6-9c5-12 4-24-2-35-1-2-1-2-3-1l-22 11-20 14-13 11a588.3 588.3 0 0 0-20 27v2l4 4c7 3 14 6 22 6m59 227 1 1 2-1-1-1-4-3h-2c-9 8-19 13-29 18l-2 1-1 1-2 8v1l3 1c8 4 15 9 21 16l17 18 10 12 3 7 7 8 21 17c11 8 23 13 34 19h3l1-1c12-6 23-13 34-21l2-3-2-2-3-2c-2-3-5-5-9-7-8-3-15-9-22-15l-11-12-6-4c-5-2-9-6-12-11l-7-10a213.7 213.7 0 0 1-17-21c-2-4-5-5-9-7l-5-1-8-1-8 1-6 2-6 4h-2v-1l6-7c2-3 5-4 9-4m-69 46c0-7-2-13-4-19-3-7-1-5-9-5-4 1-8 3-11 7l-1 1-13 13c-2 2-2 2-1 3l13 21c30.6 35.2 71 60.6 116 73h15l19-5 13-5v-2l-12-9-13-11-32-26c-6-5-11-11-15-17l-6-10c-7-11.3-17-20.3-29-26l-2 1-5 9c-3 5-7 9-12 12l-9 2c-2 0-2 0-2-2v-5m103-252c-13 1-26 4-37 10-5 2-9 5-13 9-6 6-9 13-9 21l2 13c2 8 1 15-2 22-2 5-5 10-9 14l-10 11c-3 4-7 7-9 12-11 19-19 40-22 63-2 8-2 16 0 24l5 22 4 15c2 6 3 12 1 19h1l4-4c6-5 9-12 11-19l2-15c1-10 5-18 11-25l9-9 19-15 16-12 10-8c6-8 11-16 14-25 3-7 4-14 4-22v-14h1l2 5c1 8 0 17-1 25-2 8-6 16-10 23l-16 26c-9 12-19 22-30 31l-7 5-8 9-1 5c-1 0 0 0 0 0l2-1c9-5 19-11 27-18l13-10c9-7 17-16 24-25 8.8-12.6 17.5-25.2 26-38l5-12c2-8 2-16-1-23l-6-16-9-18c-2-5-3-11-2-17v-5c0-2-1-4-3-5l-5-1-6 1-7 2-9-2c-4-3-5-7-2-11 2-4 5-6 9-7l10-2h7l10-2 2-1v-1l-2-1-15-3m-172 134c0 12 0 23 2 34l1 13 3 1 10-3 17-4 14-1h3l2-1v-6c2-10 6-20 11-30 8-16 18-31 30-45l11-15 4-10c2-5 2-11 1-16l-2-7-1-11c1-6 4-12 8-17 4-4 9-7 15-9a119.2 119.2 0 0 1 50-10c3 1 7 1 10 3 3 1 6 2 10 1l2-1c6 0 11-1 16-3l10-2c5 1 10 0 15-1l12-1 9-1 15-1h4v1l-3 2-7 4a359 359 0 0 1-56 24c-5 0-10 1-14 3l-9 6c-3 3-4 6-4 10s1 9 3 13c3 7 6 15 11 21 5 7 7 14 7 23 1 6 1 12-1 19-1 8-3 15-8 21a240 240 0 0 1-20 24l-10 9-22 18-3 2v2l2 2 8 10 8 5c6 2 9 7 10 13l2 4 13 14 11 11c4 5 8 9 13 12l6 4c8 5 15 10 22 17l7 6 5 2 11 4h2l1-2c11.8-11 22.5-23 32-36a202.1 202.1 0 0 0 33-109c1-20.7 0-41.5-3-62-3-16-8-31-12-46-5-15-11-28-18-42l-21-37c-7.5-11.6-16.6-22-27-31l-21-15-4-1-6 2c-6 3-12 4-19 4-3 0-7 0-10 2l-10 3-16 2h-4c-2 0-2-1-1-2l4-1c3-1 7-3 11-3l13-2c5 0 10-1 14-3l12-3 10-2-3-2-12-5-35-13c-5-2-11-2-16 0l-23 10 4 13v5c1 9 0 17-1 25-2 11-8 20-17 26l-8 3c-9.3 4-19 6.6-29 8-8 1-15 0-22-3l-12-6-2 1v1l-14 24c-8 14-14 29-19 45-4.6 18.9-8.9 37.9-13 57-2 11-2 22-2 32m-8-9c.2-17.1 2-34.2 5-51l9-32c8-28 21-54 39-77l15-18 6-8a145 145 0 0 1 105-54c10 1 20 4 29 7l16 6c10 4 18 10 26 17l10 9 9 9 19 22a243.3 243.3 0 0 1 51 99l7 31 3 25v28a248.3 248.3 0 0 1-21 91l-11 25c-5 10-11 19-18 28l-14 16c-6 7-13 14-21 19-13 9-26 17-40 23-12 6-24 9-36 11-8 2-15 2-23 1-15-2-29-7-43-13-11-6-23-12-34-20a147 147 0 0 1-38-37c-7-9-13-18-18-28l-16-37a209.6 209.6 0 0 1-15-68l-1-24"/>
    <path d="m243.5 309.2-4 10c-2 4-4 9-4 15-1 7-3 13-6 19l-3 7-3 4c-1-1 0-4 1-5l2-11 5-15c3-7 5-14 6-22l3-11 3-6c1-2 3-2 3 1l-3 14m78-21c0 1-1 2-2 1-2 0-5-3-6-5-3-2-4-6-5-9v-1h1c5 3 10 7 12 13v1m-66 175 3-21c2-5 5-10 9-14l6-5h2l1 1v1l-1 6a595 595 0 0 0-14 56h-2c-1-3-4-6-4-24m99 77 3 1 4 4 3 5 5 8 1 2-1 2h-2c-4-1-7-3-9-6l-7-13v-1c0-2 1-2 3-2m-12-220c-2 0-4-2-4-4s1-4 4-4c2 0 5 2 4 4 0 2-2 4-4 4m101.7 209.6c0 .4-.3 6.8-.2 13.3-6.8.5-5.7-13.3-5.3-15 .2-1.4-4.4 1.7-6.6 3.8.7 1.3 1.7 1 3 .5-.6 6.2 3.8 11.8 9 11.7.1 6.4.8 12.5 2.6 13 .2 0 .5-6.5.6-13.7 12.2-3.8 7.5-18.3 7.5-18.3-.2-.8-2 .3-6 3.9 1.6 1.7 2.4.7 3.6.3 1 1.9 1.4 10.5-5 13l.2-18-.4-.2c-1.8.2-5 3.4-7.5 6 1.4 2.3 3.1.3 4.5-.3m6 19 2.7 2.9 2.8-2.8-2.8-2.8-2.8 2.8Z"/>
  </g>
</symbol></svg>
