<svg xmlns='http://www.w3.org/2000/svg' viewBox='0 0 696 830' fill='none'><symbol id='BUCC_Outline'>
  <g fill="#FDBE00">
    <path d="m570.2 435.2-4-46c-2-27-7-53-16-78a2318.1 2318.1 0 0 0-33-80c-11-19-23-36-37-52s-30-29-51-36l-20-6a168 168 0 0 0-91-8c-18 3-36 8-52 14-12 4-23 9-32 17-9 6-17 14-24 23l-28 38c-7 12-13 24-18 37l-16 41a298.4 298.4 0 0 0-22 105l-2 43c-1 13 1 26 3 39l7 34c10 41 29 77 58 108 10 12 21 22 32 32 16 15 35 26 56 33 18 5 37 9 56 11h24c8 0 16-2 24-4 11-2 22-4 32-8 22-8 40-20 57-35l25-25c25-26 42-55 54-88 5-12 8-25 11-38 5-24 8-47 7-71m-452-3c0-25 1-45 4-64 3-25 9-50 18-74l16-41c4-11 10-21 16-31l27-37c16-18 34-33 56-43 17-9 36-15 54-20 9-2 18-2 28-2h20c11 0 22 0 32 3 17 5 34 11 50 19 21 10 40 25 55 43 9 12 18 23 26 36 7 10 13 21 18 34l20 51c7 20 11 40 14 61a499 499 0 0 1-3 137c-2 27-10 52-23 75-13 25-29 48-49 68l-17 16c-20 20-45 32-73 39l-46 7c-11 2-23 1-34 0l-40-7c-27-6-51-18-72-37a294 294 0 0 1-77-105c-7-16-11-33-13-51l-5-47c-2-12-2-24-2-30"/>
    <path d="M421.2 368.2v-1h-1l-7 1-1 1 1 1 4 1c3 0 3 0 4-3Zm-131-3c3 0 5-1 7-3 1-1 0-2-1-2l-11-3c-2 0-2 0-2 3 1 3 4 5 7 5m146 123c-3 0-4 1-5 2l-5 4-1 4 1 1 13-5c2-2 2-3 0-5l-3-1m-183-32 1 6v7c0 2 2 3 4 2l3-2c2-4 0-13-3-16h-1c-3-1-4 0-4 2v1m184-90v-6l-1-1v1l-5 10-2 4-5 9-1 1h2l10-7c2-3 3-5 2-8v-3m-180 45 6-1 10-3 7-2 5-3-6-1a29.2 29.2 0 0 0-24 8c-1 1 0 2 2 2m73 76-1-1-13 4-5 4-3 3c-2 2-3 4-3 7-1 4-2 8-6 10h-1v1h1l2-1c3-2 6-5 7-9 2-4 5-7 9-9 5-2 14-9 13-9Zm12-206c2 0 2 0 2-2v-4c0-3 0-3-4-4l-9-1-6-2 1 7 1 2 2 2 13 2Zm-87 139v1c0 3 1 5 3 8 5 5 9 11 17 13 1 1 1-1 1-1-3-7-7-14-14-18l-7-3m157-54a33 33 0 0 0 24-13l1-2-3-1-8 3c-9 3-9 2-15 10l-1 2 1 1h1m-150 47h-6l-1 2c1 2 3 4 6 4l5 1 7 1 7 2c3 0 6 0 8 2 2 1 1-1 1-1l-1-2c-3-4-8-6-12-7l-14-2m30 65v-1h-1l-5 5c-5 7-5 15-2 23l2 3 4 2c1 1 1 1 2-1 0-3 0-6-2-9-3-4-3-8 0-13l2-9Zm60-197 13-1c2 0 3-1 3-3l2-8c1-1 0-1-1-1l-15 4h-5l-1 5c-1 5 0 4 4 4m-42 199c-7 6-12 14-15 24l-1 6c0 1-1 2 1 3 1 1 2-1 3-1l2-2 3-7 3-9c5-3 6-14 6-14h-2Zm39 27-1 14c0 2 1 3 2 2h7c2 0 2 0 2-2l-1-8c1-6-1-12-4-17l-3-4c-1-1-2-1-2 1v14m-2 0v-13l-1-3-3 2-1 1c-3 4-5 9-6 14v13c0 2 1 2 2 2h6c2 1 3 0 3-2v-14m-2-239c13 1 23-2 32-7v-2l-6-5-11-9-5-5-10-8-7 8-9 6-4 3-9 10 1 1 2 2c9 4 18 7 26 6m2 93 19-2 23-1 13-2 16-6 32-12 1-1-1-1-2-1c-14-7-27-15-38-26-3-3-7-6-12-8-9-5-18-11-26-18l-3-1-10 3c-6 1-11 2-16 1l-17-4-4 1c-4 5-10 8-15 12l-10 5-14 10c-8 8-16 14-25 19l-12 7-2 1v1h2l31 12c13 5 26 8 40 9h10l20 2m-93 122v7c0 2 1 4 4 5l22 10h1v-1c-1-4-2-7-1-11 0-8 5-14 11-19 2-2 3-1 4 1 0 5 1 10-2 14l-1 2c-2 3 0 6 1 9h1l1-3a43 43 0 0 1 18-21l2 1-1 2v8c0 2 0 2 1 1h1c5-3 11-3 17-3h1l-1 2-5 5c-3 4-6 6-10 8-3 1-6 4-7 7-2 4-5 7-9 9v1l7 3 22 2 1-2 1-8v-10c-1-5 1-9 5-12 6-5 13-5 19 1 4 2 5 6 5 10v19c0 2 0 2 3 2l12-1c9 0 17-3 24-9l4-2 13-8 5-2v-6c0-3 2-5 4-6l6-1c2-1 5 0 7 2h2v-1c-1-9-1-17 1-26 1-8 0-15-2-23s-2-17-1-25l1-8c2-8 2-16-1-23l-2-6c-1-1-2 3-4 4-3 4-8 6-13 6h-2l1-2 5-11 5-8 2-3v-2h-1l-6 4-2 2-2 4c-3 3-7 4-9 0-2-2-3-3-6-3-2 0-2-1-1-2l6-8-2-1-25 7c-7 2-14 4-22 4l-20 1c-10 0-20-2-29-5l-11-3c-1 0-2 0-3 2l-5 4-5 1c-3 0-6-1-7-4l-2-6c0-2 0-2-2-2l-18-6h-1c-2 0-2 0-2 2v2l-4 38c-1 4 0 9 1 13h1l4-3c9-6 19-4 29-2 2 0 2 1 1 2-4 5-9 8-16 7l-5 1v1l3 1c4 0 9 2 13 4s6 5 8 9l1 3-1 1-2-1c-3-2-6-2-9-2-4 0-8-1-11-3l-4-1v1l1 1a31 31 0 0 1 11 20c0 2 0 2-2 2l-10-4c-2-1-4-2-5-5s-3-4-5-6h-1l-2 16v3l2 1c4-1 7 2 9 5 3 6-1 15-8 17l-1 2-1 8m100 159c19-4 36-12 53-22 20-12 39-26 55-44 9-9 16-19 21-30a279.3 279.3 0 0 0 23-55c0-3 0-3-2-3l-7 1-15 2c-9 1-19 2-28 5-6 2-11 4-15 7-12 9-26 15-41 17-8 1-15 3-22 6-8 4-17 6-27 5h-3c-10 1-19-1-27-5-8-3-15-5-23-6-16-3-31-9-44-20-4-4-9-6-14-7l-15-1-14-2c-9-2-18-5-25-12h-1v1c1 9 3 17 6 25 9 23.6 20.8 46 35 67l18 18a241.9 241.9 0 0 0 92 52l11 2 9-1Zm-175-203 2 28c0 2 1 4 3 5 8 5 17 8 26 11 11 2 23 3 33 7l2-1v-2c0-9 1-18 3-26v-10l-1-9c-1-13-1-26 1-38 1-5 2-9 1-14-2-10-2-21-2-31v-12c0-2-1-3-2-3l-4-4c-3-3-3-3 0-5l1-1c12-9 25-19 39-27l11-8 12-8 18-11c2-1 2-1 1-4l-2-7c0-2-1-4-3-4l-4-3c-2-2-2-3 0-5l7-7 7-7 5-4 11-9h5l10 8 6 5 14 14 2 2v3l-1 1c-4 1-6 5-7 8l-1 5c-1 2-1 3 1 4l22 14 20 14 19 12 18 13 2 1c2 3 3 3 0 6l-4 3c-1 1-2 2-1 3l1 11c1 10 0 20-2 30v15l2 12c1 8 1 16-1 24s-2 16 0 25c2 7 3 15 3 23v2c0 1 0 2 1 1l2-1c16-5.8 33.2-7.5 50-5 2 0 3 0 3-2l1-6a305 305 0 0 0-1-90l-6-25c-7-28-18-55-33-80l-7-12a146 146 0 0 0-36-43 1647 1647 0 0 0-36-22c-12-6-25-10-37-14-5-2-10-1-15 0l-18 6a192 192 0 0 0-63 36c-9 9-17 19-24 30l-17 29c-10 19-18 38-24 59l-6 23-4 19c-3 14-3 28-3 48m341-17c-.2 36-7.3 71.7-21 105l-8 16a177 177 0 0 1-66 77c-13 8-26 15-40 21-10 3-21 6-32 7h-20c-18-4-34-9-50-18l-23-14a178.7 178.7 0 0 1-51-55c-11-20-20-40-27-62-5-15-7-30-9-45-2.6-26-2-52.2 2-78l12-45c10-30 26-58 47-82l16-18a142.1 142.1 0 0 1 90-50 170 170 0 0 1 66 19c13 8 23 17 33 28l23 26c24 30 40 63 49 100l6 27c3 14 3 27 3 41"/>
    <path d="M414.2 559.2c-13-1-25-3-37-6-8-2-16-3-24-2l-18 3-28 6c-14 3-28 1-41-4-12-4-22-11-31-20l-2-2v-1c2 0 2 1 3 2a110.1 110.1 0 0 0 69 18l40-4c11-1 22-1 33 2l22 2c11 1 21-1 31-4l24-8c2 0 5-2 5 0l-4 3-10 6c-11 6-21 9-32 9m-86 26c11 0 20 1 29 3l26 5c11 2 21 0 31-4l14-8c1 0 3-1 1 1-2 3-12 11-20 15-9 4-19 6-30 3l-19-6c-6-3-13-5-20-6-10-2-21-1-31 2l-22 7-3 2-1-1 2-1c10-5 20-9 31-11l12-1m28-134-5-15c0-2-2-3-4-3s-3 1-4 3l-3 9v10c1 4 5 8 8 7s6-3 7-7l1-4m2 4c1 5-1 8-6 9h-10c-4-2-6-4-5-8l1-16v-2c1-6 7-10 13-8 3 1 5 3 5 6l1 8 1 11m-2-52-1-5-3-8c-1-2-2-3-5-3-2 0-3 1-4 3l-3 8-1 3v11l2 3c4 2 8 2 13 0l1-3 1-9Zm2 1v8c-1 5-4 8-8 8h-5c-5 0-8-3-8-8v-7l1-10 1-7c2-3 5-5 9-5 3 0 6 2 8 5l2 16m49 64v-3l-1-3c-1-2-3-3-5-2s-3 3-3 5l1 5c1 3 3 4 5 3s3-3 3-5m3-1c0 2-1 5-3 7-2 1-4 2-6 1-3-1-5-3-6-7 0-3 2-8 5-9 3-2 6-1 9 2l1 6m-1-129-1-1-7-6-15-15-12-15-4-4c0-1-1-2 1-1l3 2 21 21 14 17c3 3 1 2 0 2m-87-42-10 14-7 7-18 16-4 2h-1l3-3c8-7 15-14 21-22 4-6 10-10 15-15 0 0 3-1 1 1m33 0c2-1 2 2 3 3 2 3 2 6 3 10l1 11 4 20 1 7c0 2-1 1-1 0l-3-13-6-20-3-10c0-1-2-8 1-8m-19 15-7 31-2 6h-1v-4c3-10 5-20 6-31l2-10c0-1 1-6 3-6 3 0 0 11-1 14m20-48c-3-1-3-2 10-8h2c1 0 2 2 1 3l-3 2c-3 2-8 3-10 3m-28-2-3-1-2-4h4l9 4c1 1 4 2 3 3s-9-1-11-2m151.3 170.4c0 .4-.3 6.8-.2 13.3-6.8.5-5.7-13.3-5.3-15 .2-1.4-4.4 1.7-6.6 3.8.7 1.3 1.7 1 2.9.5-.5 6.2 3.9 11.8 9 11.7.2 6.4.9 12.5 2.7 13 .2 0 .5-6.5.6-13.7 12.2-3.8 7.5-18.3 7.5-18.3-.2-.8-2 .3-6 3.9 1.6 1.7 2.4.7 3.6.3 1 1.9 1.4 10.5-5.1 13l.3-18-.4-.2c-1.8.2-5 3.4-7.5 6 1.4 2.3 3.2.3 4.5-.3m5.9 19 2.8 2.9 2.8-2.8-2.8-2.8-2.8 2.8Z"/>
  </g>
</symbol></svg>
