<svg xmlns='http://www.w3.org/2000/svg' viewBox='0 0 696 830' fill='none'><symbol id='CARC_Outline'>
  <g fill="#D7CDC1">
    <path d="M575 421.2c0 21-1 38-3 54l-4 34c-3 22-9 42-18 61-14 28-31 53-53 75l-17 17c-21 20-46 32-74 38-15 4-30 6-45 8-12 2-23 1-35-1l-36-6c-30-6-56-18-78-39l-23-23c-25-28-44-59-56-94-4-12-7-24-8-37-2.9-28.3-5.3-56.6-7-85l2-41c3-32 9-62 21-91l14-36c5-12 11-24 18-35l26-34c15-19 34-34 56-45 17-8 35-14 54-19 9-2 18-2 28-2h19c11 0 22 0 33 3 16 5 33 11 49 18 21 11 40 26 55 44l26 34c7 12 14 23 19 36l17 44c8 22 13 45 16 68l4 54Zm-6 21c-1-22-2-41-5-61-2-24-7-47-15-70a2318.1 2318.1 0 0 0-33-80c-11-19-23-36-37-52s-30-29-51-36l-39-11c-23.6-5.6-48-6.6-72-3-18 3-35 8-51 14-16 5-31 14-43 26l-14 15-26 37c-8 11-14 23-19 36l-17 45a295.8 295.8 0 0 0-21 103 534 534 0 0 0 1 80l7 34c10 42 30 78 58 109l32 31c22.3 20.5 50.1 34 80 39l37 6 28-2 26-5c28-6 53-19 74-39l29-27c24-25 41-54 53-87 5-13 8-26 11-39 5-22 8-43 7-63Z"/>
    <path d="M519 421.2c0 36-7.2 71.7-21 105l-8 17a176.3 176.3 0 0 1-66 76l-31 17c-13 6-26 10-40 11h-21c-18-4-34-10-50-18l-24-15a234.4 234.4 0 0 1-51-56l-23-52a305.4 305.4 0 0 1-9-131c4-15 7-30 12-44 10-30 25-57 46-81l17-20a142 142 0 0 1 90-49c8-1 15 1 23 2 15.8 3.8 31 9.9 45 18 13 9 25 19 35 31l12 15c22 25 39 53 49 85a362.8 362.8 0 0 1 15 89Zm-340 6c0 21 1 38 4 55l2 4 4-1 3-1c15-3 29-2 41 7l10 7 12 5c4 2 9 2 14 2l2-1-1-1-1-1c-10-8-15-19-16-31v-13c0-4 2-5 5-6l9-2 11-2c4-1 4-1 2-5a90 90 0 0 1-18-46c-1-9 0-18 3-27 1-4 4-7 7-10l13-5 27-7 21-3h8c2 0 2 0 2-2l-3-16c0-2 0-2-2-2a115.6 115.6 0 0 0-36 10c-3 1-4 1-6-2l-5-9c-5-16-4-31 2-47 1-3 3-4 6-6 6-1 12-4 17-6l7-2 18-2c2 0 3 0 3-3l-1-13v-11l1-8 2-2c2 0 2 1 3 2l1 3c0 3 0 2 3 2l7-2c7-1 13 0 18 2l12 4c5 2 10 2 15 0h2l-1 2c-7 9-16 14-28 13l-11-3c-5-1-10-1-15 1-2 0-3 1-3 3v8l2 2h2c8 0 16 2 24 4l16 6c4 1 6 4 7 7l5 19a58.1 58.1 0 0 1-8 36c-2 3-3 3-6 2l-6-2c-9-4-18-6-27-7l-5-1-4 18c0 2 0 2 2 2h3c7-1 13 0 20 1l37 10 8 4c5 2 8 6 9 11l2 6c3 20 0 38-10 55l-8 13c-1 2-1 2 1 2l18 5h3c4 1 5 2 6 6l-1 16c-1 11-6 21-15 28l-2 2 1 1h3c6 0 12-1 18-4l9-6 10-6c7-4 15-7 24-6 6 0 11 0 17 2 2 1 2 0 2-1l2-6c5.3-34.6 4.3-69.8-3-104l-6-24c-5-19-12-36-21-53l-21-36a141 141 0 0 0-29-34l-24-16-13-8-39-14c-5-2-10-1-15 0-6 2-11 5-17 6a192 192 0 0 0-63 36c-9 10-18 19-24 30l-17 29c-9 16-16 33-22 51a1069 1069 0 0 0-12 50c-3 13-3 26-3 36Zm168-75-18 1-6 1-27 2c-9 1-16 3-24 8-2 1-3 2-2 5 0 10 0 20 2 30l8 34 4 11c1 2 2 3 4 2h2c8-2 16-6 22-11l14-14c9-9 16-21 18-34l1-2v-2h2l1 5c3 12 10 23 18 33 5.4 5.6 11.1 11 17 16 6 5 14 8 22 9 2 1 3 0 3-2l5-12 4-18c4-15 6-30 6-45 0-2-1-4-3-5l-8-4c-7-3-14-4-22-5l-18-1c-9-1-17-3-25-2Zm-133 176-10 1c-3 1-3 1-2 5l7 13c5 11 12 21 21 29 2 3 2 3 5 1 9-4 19-7 29-7h20c10 1 19 0 28-3l19-6c10-5 20-5 31 0l17 6c9 3 19 4 29 3h20l18 3 11 4c1 1 2 1 3-1l2-1c12-13 20-28 27-44 1-1 0-1-1-2-7-1-14-1-20 1l-16 5-12 5c-11 4-22 4-32 0-6-1-11-3-16-6-9-4-19-7-29-8-9-1-17-3-26-1-12 2-24 4-35 9l-13 5a47.1 47.1 0 0 1-38 0l-14-5c-8-3-15-6-23-6Zm-12-39-11 1-4 1-1 2 1 2c2 9 6 19 10 28 1 2 1 2 4 1h1c8-4 17-4 25-3 8 2 15 4 22 8l14 6c5 2 11 3 16 3 7-1 13-2 19-5l14-7a76.8 76.8 0 0 1 71 1l7 3 14 6c6 2 13 3 19 1l14-5 15-7c5-2 11-4 17-4 7-1 14 0 21 2 2 1 3 1 4-1l3-8 7-20c1-3 0-3-2-4h-1c-8-1-15-1-23 1-9 2-18 6-26 11l-14 6c-13 6-26 6-39 1l-13-6c-11-5-22-9-33-11h-13c-12 2-24 7-35 12l-16 6c-6 3-13 4-20 2-7 0-13-3-20-6l-15-8c-10-5-20-8-32-9Zm147-52v14l-1 13c0 1 0 3-2 3l-2-3v-1l-1-12v-34l-1-1-1 1c-6 10-14 17-24 22l-29 15c-8 4-17 4-25 3-6-1-6-1-5 5 3 15 10 27 20 39 2 1 3 2 5 1l14-7c12-5 24-9 37-10s26-1 39 2c9 2 16 6 24 9l13 6c2 1 3 0 4-1 11-12 18-25 21-41 0-4 0-4-4-3-9 1-18 1-26-3l-29-15c-7-3-12-7-17-12l-8-11-1-1v2l-1 20Zm-4 156c12 0 20 2 31 7l17 9 15 7c2 1 3 0 5-1 14-9 28-19 40-31l2-2c1-1 1-2-1-2-8-4-16-6-25-4l-20 4c-9 1-19 1-27-2l-14-7c-6-4-12-6-19-7h-5c-7 1-13 3-18 6l-9 5c-9 5-18 7-28 5l-18-3c-11-2-22-2-32 2-5 3-4 2-1 6 12 12 26 22 41 31h5l19-8 15-8c9-5 19-7 27-7Zm-49-291 2 21 1 5h2l1-1c11-7 23-11 36-12h15c14 0 27 4 38 13 2 1 2 1 3-1 2-11 4-22 3-33l-3-17c0-3 0-3-3-4l-14-1h-11l-24-1c-10 0-20 2-30 1l-11 2c-2 0-3 1-3 2v7l-2 19Zm49 340 11-2 8-2c14-3 26-9 38-16l2-2-2-1-24-9c-8-4-17-7-25-9h-13c-10 2-20 6-29 10-7.4 3.6-15 6.6-23 9v1l2 2c14 8 28 14 43 17l12 2Zm52-401c-9 2-17-1-25-5l-5-2-11-1c-6 2-6 2-6 7 0 2 1 2 2 2 6-2 11-1 17 1l5 2c3 2 7 2 11 2 4-1 9-3 12-6Z"/>
    <path d="m470 414.2-1 3-1 1-1-1-1-9v-21c-1-8-3-16-7-24l-7-13c-9-15-15-31-18-48l-2-13h1l1 6c3 18 10 35 19 52l9 15c4 8 7 15 9 24l-1 28Zm-249-16c0-11 3-22 8-31l8-15c9-15 16-31 20-49l2-12h1l-2 13c-3 16-9 31-17 46l-7 12c-4 9-7 19-7 29l-1 23-1 4c-2 0-2-3-2-4l-2-16Zm260 60.1 2.7 2.8 2.8-2.8-2.8-2.8-2.8 2.8Zm-6-19.1c0 .4-.3 6.8-.2 13.3-6.8.5-5.7-13.3-5.3-15 .2-1.4-4.4 1.7-6.6 3.8.7 1.3 1.7 1 3 .5-.6 6.2 3.8 11.8 9 11.7.1 6.4.8 12.5 2.6 13 .2 0 .5-6.5.6-13.7 12.2-3.8 7.5-18.3 7.5-18.3-.2-.8-2 .4-6 3.9 1.6 1.7 2.4.7 3.6.3 1 1.9 1.4 10.5-5 13l.2-18-.4-.2c-1.8.2-5 3.4-7.5 6 1.4 2.3 3.1.3 4.5-.3"/>
  </g>
</symbol></svg>
