<svg xmlns='http://www.w3.org/2000/svg' viewBox='0 0 696 830' fill='none'><symbol id='CBAC_Outline'>
  <g fill="#FDBE00">
    <path d="m123.1 446.2 1 21 2 18 8 35a248.7 248.7 0 0 0 52 101c13 15 27 30 43 43a153.3 153.3 0 0 0 72 33c9 2 19 5 29 6l18 1 6-1c6 0 13 0 20-2l8-2c8-2 17-3 25-6 23-6 43-18 61-33a560.2 560.2 0 0 0 41-42c28-34.7 46.6-76 54-120a232 232 0 0 0 5-67l-1-25a383 383 0 0 0-40-153l-14-29-10-15-24-31a122.2 122.2 0 0 0-49-35l-33-10c-17.6-5-35.8-7.3-54-7l-15 1-15 2-31 8c-9 2-17 5-26 9-7 3-14 6-20 11-10 7-18 15-26 24a519.6 519.6 0 0 0-45 72l-10 26-12 30c-9 26-14 54-17 81v11l-2 29-1 16m451-20-1 28-2 26-2 17a209.4 209.4 0 0 1-43 113 250.6 250.6 0 0 1-46 51 151.7 151.7 0 0 1-84 41 943.9 943.9 0 0 1-53 6l-24-2-22-4a164.8 164.8 0 0 1-83-39 434.9 434.9 0 0 1-43-47c-11-15-20-30-28-46a190 190 0 0 1-19-70c-2-15.3-3.6-30.6-5-46l-1-45 2-29 4-26c3.1-22.7 9.1-45 18-66l12-31c5-14 12-27 21-39l25-34a160.2 160.2 0 0 1 65-47c13-6 26-10 40-14l21-3 17 1h6l23-1 20 4 36 13a174.6 174.6 0 0 1 66 50c10 11 18 23 26 35 7 10 12 20 17 31l17 45c6 15 10 31 13 47l4 23 2 28 1 17v13"/>
    <path d="m178.1 431.2 1 12c.8 23.5 5.2 46.8 13 69a436.2 436.2 0 0 0 30 56 241.5 241.5 0 0 0 79 61 167.1 167.1 0 0 0 39 13c6 0 11 0 17-2a151.7 151.7 0 0 0 54-24c18-11 34-24 49-39 9-10 17-20 23-32 8.1-15 14.8-30.7 20-47 8.7-40.8 9.8-82.8 3-124l-7-25c-6-21-14-40-24-58l-14-24a139.9 139.9 0 0 0-54-56l-16-8-39-15h-14l-28 10a146.5 146.5 0 0 0-41 23 99.7 99.7 0 0 0-26 25l-10 13-9 16a421.6 421.6 0 0 0-30 66c-4.9 19.3-9.5 38.6-14 58l-2 32m341-12c0 14-1 28-3 41a240.9 240.9 0 0 1-23 75l-5 12a151.5 151.5 0 0 1-33 47l-23 20c-13 8-26 16-39 22-12 5-23 8-35 10-7 2-14 2-21 1l-17-4-27-9c-11-6-23-12-33-19a140.2 140.2 0 0 1-40-39c-7-8-12-17-17-27l-16-35a213.3 213.3 0 0 1-15-74c-1-22.4.3-45 4-67l7-30c3-13 8-24 13-36 10-23 24-43 41-62l9-11a144.7 144.7 0 0 1 96-53h9l20 5c9 2 18 6 27 10a252.3 252.3 0 0 1 42 33l19 22c19 24 34 50 44 79l8 30c2.7 13.6 5.1 27.3 7 41l1 18"/>
    <path d="M416.1 377.2v-2c-1-2-1-2-3-1l-3 2-7 3-6 1-11 4-3 5v3l4 6c1 2 4 3 6 1l1-2 8-5 4-2 6-4c3-3 4-5 4-9m-48 117c0-7 0-14 2-21l-1-1-15-3c-5 0-11 1-16 3l-7 4c-3 1-1-1-1-1l4-3c6-3 12-6 19-6l3-1v-1l-8-2-5-1c-2-1 0-1 0-1 5-1 10 0 15 2l5 2 15 3 9-1 5-4c2-3 5-5 8-6l5-4c3-4 3-8 2-13-2-3-5-5-8-5s-6 0-8 2l-3 1h-1l1-1c1-2 3-3 6-4v-2l-2-1c-4-3-6-7-7-13v-13c-1-6-6-10-12-11h-3c-5 1-10 0-14-3s-8-4-12-4l-6 1-9 5-2 1-1-1v-2c1-4 0-8-3-11l-7-6-5-3c-4-2-7-6-9-9l-2-3h-2l-1 2-1 5c-1 4 0 8 4 10l3 2 4 5 1 3c1 5 4 8 8 9l5 3h-1l-2 1-1 1v1c2 11 1 21-3 31l-5 13-6 11c-3 8-6 16-7 24v12c1 10 4 20 9 29l3 8h-1c-5-7-9-14-11-22l-4-16-1-1v1l-3 12c-2 12 0 22 6 32l16 23 8 7 12 9 3 3c6 6 10 13 12 21l3 17v3l-2-4-9-20-9-12-13-14-5-5-10-9c-4-3-8-7-10-11-5-7-8-15-9-23-2-9-1-17 1-25l8-19 2-3c1-8 3-14 7-21l8-18c3-7 5-14 6-22v-13l-2-3-7-9-6-7c-10-5-9-19-1-25h3c4 5 9 9 15 12l4 2c6 4 9 9 10 15l1 3h1l2-1c3-1 6-3 10-3l1-1v-1l-1-1-9-9-9-10a71.2 71.2 0 0 0-39-22h-9l-4-1h20l3 1h1v-1l-6-3-11-5c-7-4-13-9-18-15-6-8-9-16-11-26l-1-16-1-5h1l2 6 3 15c2 7 4 14 8 20s9 11 15 16h2l-2-2c-3-5-6-11-7-16l-2-11-3-16-1-2v-1h1l2 4 6 20 1 5c2 9 7 16 14 21l16 11c8.1 5.9 16.1 11.9 24 18l1 1 1-1v-1c-1-10 2-18 7-26l1-1v1l-2 5a43 43 0 0 0 12 47l5 3 4 1 15 4 3-1c2-7 5-13 6-21 2-7 1-14-2-20l-2-3v-1h1c5 6 9 12 11 20v2h1l1-1c5-4 11-7 17-9l14-5 8-3c4-1 7-4 10-6 8-7 10-16 8-25l-3-15c0-5-1-10 1-14l1-4 1-1v1c-1 7 0 13 2 20l3 13 1 1v-1l1-3v-15l1-1v1c2 5 3 11 2 18-1 8-4 15-9 23l-11 10-8 3-4 2v1h1l6-1 12-3c8-3 15-8 20-15l1-1 3-3-2 5c-4 7-9 13-16 17l-15 5-14 1c-8 1-16 3-23 8-5 2-8 6-11 11v1h1l14-4c4-1 7-2 9-5 3-2 4-2 5 1 2 6 2 12-2 17-1 2-3 4-6 5l-5 3c-3 1-6 3-8 6-3 3-5 7-5 11v4c0 3 1 5 3 8l5 6 3 1c6 1 8 5 10 11 1 3 0 6-2 9l-6 6-4 1-6 5c-4 4-9 6-14 8h-1c-5 1-5 1-5 6 0 6 1 11 3 17l5 9c2 4 4 8 4 13 2 6 1 12 1 18l-1 5c-1 6-4 11-7 16l-8 11-7 10-4 10-2 12v3h-1l-2-6c-1-5-1-11 2-16l5-10 9-14c4-8 7-17 8-26v-18l-4-10h-2l-2 15-8 17-1 1c0 2 0 0 0 0l1-2c3-7 5-15 5-23v-3l-1-11m86 6c0-9-2-16-4-24l-5-19-2-14c0-15 5-28 17-39l10-5-1 1-11 8c-7 9-12 18-12 29-1 8 1 16 3 24l6 15c1 5 3 9 3 14a62.4 62.4 0 0 1-15 53 145.8 145.8 0 0 1-26 23l6-7c5-6 11-11 15-18 6-8 11-18 14-28l2-13m-224-7c-1-11 2-21 6-32l8-19 7-17c3-8 5-18 4-27 0-8-3-15-7-21a39.3 39.3 0 0 0-32-14v-1a40 40 0 0 1 43 32c2 10 1 20-1 30l-9 22-9 17c-3 6-6 12-7 18-3 11-3 22 0 33l1 2v1l-1-1-1-4c-2-6-3-12-2-19"/>
    <path d="M383.1 430.2v1c-4-3-6-7-6-11v-3l-2-10v-1h1l3 6 1 7c1 3 1 7 3 10v1m20 14-1 3-3 4-2 1-1-2 3-8 2-1c1 0 2 0 2 2v1m-53-29c3 0 5 3 5 5l-3 2c-2 0-5-3-4-5l2-2m-34-38h2c2 2 2 4 2 7h-2c-2-1-3-3-4-6l2-1m77 9h2c2 1 2 2 1 3l-6 3-3-1v-2c2-2 4-4 6-3m-81.4-120c0 .4-.3 6.8-.2 13.3-6.8.5-5.7-13.3-5.3-15 .2-1.4-4.4 1.7-6.6 3.8.7 1.3 1.7 1 3 .5-.5 6.2 3.8 11.8 9 11.7.1 6.4.8 12.5 2.6 13 .2 0 .4-6.4.6-13.7 12.2-3.8 7.6-18.3 7.6-18.3-.2-.8-2 .4-6 3.9 1.6 1.7 2.4.7 3.6.3 1 1.9 1.4 10.5-5 13l.2-18-.4-.2c-1.8.2-5 3.4-7.5 6 1.3 2.3 3 .3 4.4-.3m6 19 2.7 2.9 2.8-2.8-2.8-2.8-2.8 2.8Z"/>
  </g>
</symbol></svg>
