<svg xmlns='http://www.w3.org/2000/svg' viewBox='0 0 696 830' fill='none'><symbol id='CGBJ_Outline'>
  <g fill="#00807D">
    <path d="m569.6 440.5-1-15c-2.5-24.7-5-49.4-8-74-3-16-7-31-13-47l-19-50-14-28c-10-16-21-31-33-46-14-17-31-30-52-37-10-4-21-7-31-9-15-5-30-7-45-8-11-1-21 1-32 2l-25 5c-11 3-23 6-35 11-11 4-21 9-30 17-8 6-15 13-21 21-11 13-20 27-29 40-7 11-13 22-17 34l-15 38-7 20c-7 20-11 39-14 59l-2 28a574.2 574.2 0 0 0 0 85l8 34c9 39 27 74 54 104 12 14 25 26 38 38 17 14 36 25 58 32l42 9 25 1c7 0 13 0 19-2l25-5c27-5 51-18 72-36 9-7 17-16 25-24a235.8 235.8 0 0 0 63-103l8-34c4.7-19.6 6.7-39.8 6-60m-451-24 2-33c3-32 9-64 21-94l15-36c4-11 9-21 16-31 9-14 19-27 30-40 13-16 29-28 47-38 12-6 25-11 38-15a97 97 0 0 1 49-8l20-1c12-1 23 0 34 4 17 5 34 10 50 18s30 19 42 31l14 16a429.3 429.3 0 0 1 41 64l18 49c9.2 23.4 15 48 17 73 3.2 33 3.2 66.1 0 99l-4 31c-3 24-9 46-20 68a304.6 304.6 0 0 1-44 64l-25 26c-19 18-42 30-67 36-9 3-18 4-28 6l-17 2c-8 2-17 2-25 2a468.7 468.7 0 0 1-54-8c-29-6-54-19-75-39a274.6 274.6 0 0 1-79-115c-5-11-7-22-9-34l-5-41c-2-21-2-34-2-56"/>
    <path d="M307.6 528.5c8 0 14-2 19-4a104 104 0 0 0 20-14l-9 1a64.9 64.9 0 0 0-37 15l1 1 6 1m-68 7a98 98 0 0 0 38-9v-2c-5-3-10-5-16-6l-4 1-9 3c-8 2-17 2-25 3l-1-2 8-20c4-7 9-13 14-17l8-6c9-6 15-14 19-23v-2l-3 1-14 6c-16 6-32 9-49 8a60 60 0 0 1-24-5l-1 1 1 2 2 13c2 15 8 29 14 43l3 3 7 2c10 4 20 6 32 6m106 107 10-1c14-3 27-7 39-14a366.9 366.9 0 0 0 37-26l-18-3c-12-3-25-3-38-1l-24 5c-14 4-28 7-43 8h-31l-8-1-1 1h1l3 2 13 9 7 4a150.4 150.4 0 0 0 53 17m-89-347c7 0 13-2 20-5l7-5a82 82 0 0 1 15-15c4-4 6-8 4-14l-1-5-3-11-1-11-3-8-8-7c-2-2-4-2-6 0l-15 10-8 6c-8 8-16 17-22 26l-12 21v3l1 2c9 8 19 13 32 13m256 141v-10c0-3-1-4-3-2l-5 2-28 14c-16 7-32 12-50 12-2 0-3 1-4 3-7 14-16 27-28 38l-2 2 1 1c17.1 4.4 34.5 7.8 52 10 19 1.8 38.2-.9 56-8 2-1 3-2 3-4l3-11c3-16 4-31 5-47m-176 120h1l-1-13-1-13c0-1 0-2-1-1l-3 1-11 5c-11 3-21 2-31-3l-3-2h-3l-9 4c-11 5-22 8-33 8-8 1-16 0-23-2l-13-4h-2v1l7 13c3 7 8 14 13 20 8 9 17 18 26 25 1 2 3 3 5 3 18 4 36 5 55 4l38-5 34-4c11 0 21 1 32 3l20 3c2 0 4 0 6-2a248.4 248.4 0 0 0 37-39l17-32 7-19 1-2-1-1-3 2a92 92 0 0 1-60 7l-27-7-19-6c-2-1-4-1-6 1-5 3-11 6-17 7l-7 1-3 3v28l1 5c0 1 0 2 2 2l5 1 15 4 4 1h1l-1 1-3 1c-1 1-3 2-3 4s0 2-2 2c-4 0-7 1-9 4-1 2-2 2-3 1-5-5-8-10-11-15l-2-6a350 350 0 0 1-2-29l-7 7-1 3v30l2 4 12 11c2 2 2 2 0 3-3 1-4 3-5 6-1 2-1 2-3 1-3-1-6-1-9 2h-2v-2l-1-25m-158-123 1 24c1 2 1 3 3 3l13 2c13 1 27-1 41-4 12-2 23-6 35-10 4-1 6-3 8-7 6-11 15-18 26-22l6-3 16-6 14-5c11-4 19-12 23-23 2-5 2-11 1-16 0-6-2-11-3-17l-2-15c-1-15 5-27 17-36s25-10 39-4c5 3 8 6 11 11l2 4-1 1-1-2c-4-6-9-11-17-13l-11-2c-19 0-34 17-31 36l1 7 3 14c1 5 2 10 1 16l-4 9-7 17c-3 5-7 10-12 14-7 5-13 10-20 13l-21 9c-10 4-16 11-21 19l-6 11-6 12c-4 7-10 12-18 16l-8 4c-7 3-13 9-17 16l-8 15-1 1h2l8-2c10-2 19-7 27-14l12-10c9-9 19-15 30-20l10-4c9-4 16-11 21-20l4-8 3-5 1-1v11c-2 7-5 14-10 20l-16 13-12 5a84.6 84.6 0 0 0-21 14l-15 12-1 1 1 1 13 3 7 4 7 3h3l6-5c11-10 24-16 39-18l20-1c11-1 21-4 30-11 9-8 16-17 22-27 3-5 5-10 6-16v-19c-1-9-4-18-8-27l-6-12-5-13-1-11c1-8 5-14 11-19 10-9 22-13 36-11l12 4h1v-1c-3-6-7-11-13-13l-14-4c-6 0-12 1-17 4l-4 3c-4 3-9 3-14 3h-1l1-1 2-1c5-1 9-3 13-7l3-2c4-3 9-5 14-5 11 0 20 4 27 12 3 3 5 7 6 11l-1 3h-3l-3-1c-7-2-14-3-21-2-10 1-18 5-25 13-5 6-7 13-5 21l5 12 7 13c3 5 6 9 7 14 3 7 4 15 3 22l-1 9 1 1h2a160 160 0 0 0 41-9l37-14c4-2 4-2 3-5v-6c0-9-2-18-4-27l-7-29c-5-20-13-39-23-57-6-13-14-25-21-38a136.7 136.7 0 0 0-30-33c-11.8-7.9-23.9-15.6-36-23l-38-13c-3-1-6-2-9-1-2 0-3 0-4 2-8.6 8.4-17.2 16.8-26 25l-2-1v-2l1-2 4-3 10-7 9-9v-1h-1l-9 3c-10 3-20 7-29 12l-8 4v1c4 2 7 5 9 8l8 11c3 6 4 12 4 18s-2 11-3 17l-3 10c0 7-4 13-9 17l-10 5-10 2c-7 2-15 2-23 1-11-2-22-6-30-15h-2l-6 12c-8 15-15 30-20 47-4.3 17-8.3 34-12 51-2 12-2 24-3 39m341-15c-.2 36-7 71.5-20 105l-13 28c-6 13-14 24-23 34-8 10-16 19-26 26-17 12-35 22-55 29-9 4-19 6-29 8h-5c-20.5-1-40.5-6-59-15l-24-14a145.3 145.3 0 0 1-46-44c-6-7-11-16-15-25l-17-38c-9.6-23.6-15-48.6-16-74a270.1 270.1 0 0 1 7-76l9-33c10-26 22-51 40-72l9-11 13-15 10-10 18-16 19-11 28-10c7-1 13-3 20-3l9 1 17 3c12.6 4 24.6 9.4 36 16 12 7 22 15 31 25l31 37c19 25 32 53 40 84 4.2 18.2 8 36.6 11 55v16"/>
    <path d="M413.6 432.5c0 6-1 11-3 16l-5 9a159.4 159.4 0 0 1-21 26h-1l1-1v-1l5-8 9-15c5-10 7-22 6-34v-6c0-2 2-3 4-2l3 4 2 8v4m-70-178 17 2 34 7 28 5 9 2s2 1 0 2l-10-2-20-4-25-4c-13.7-1.8-27.4-3.8-41-6l-1-1c1 0 0-2 9-1m-53 60 3 5 5 10 6 16 16 36 6 12 1 3c0 3-1 1-1 1l-4-5-4-9-9-21-13-25-6-12-2-6-1-4c0-1 1-2 3-1m-55 12-2 9-5 14c-5 12-8 24-11 37l-4 16-1 3v-4l7-28c4-12 6-25 8-37l2-13 3-6h3v9m196-2 15 3 4 3c1 0 2 1 0 0-3-1-15-3-22-1l-9 2c-3 0-1-2-1-2 3-2 6-4 10-4l3-1m-29-9c0 2-2 4-5 4-2 0-4-2-4-4 0-3 2-5 4-5 3 0 5 2 5 5m23.4 225c0 .4-.3 6.8-.2 13.3-6.8.5-5.7-13.3-5.3-15 .2-1.4-4.4 1.7-6.6 3.8.7 1.3 1.7 1 3 .5-.6 6.2 3.8 11.8 9 11.7.1 6.4.8 12.5 2.6 13 .2.1.5-6.5.6-13.7 12.2-3.8 7.5-18.3 7.5-18.3-.2-.8-2 .3-6 4 1.6 1.6 2.4.6 3.6.2 1 2 1.4 10.5-5 13.1l.2-18c0-.2-.2-.3-.4-.3-1.8.2-5 3.4-7.5 6.1 1.5 2.2 3.2.2 4.5-.4m6 19.1 2.7 2.8 2.8-2.8-2.8-2.8-2.8 2.8Z"/>
  </g>
</symbol></svg>
