<svg xmlns='http://www.w3.org/2000/svg' viewBox='0 0 696 830' fill='none'><symbol id='CHEC_Outline'>
  <g fill="#A7BFB9">
    <path d="m569 447.2-1-9-1-25c-2-22.1-4.8-44.1-8-66-3-16-8-31-14-46l-16-42c-5-14-12-28-21-41l-24-34c-7-8-14-16-23-23-7-6-15-10-24-14-8-4-16-7-25-9-15-4-29-9-45-10l-25-2-11 1-16 2c-17 3-34 8-50 14-11 4-20 8-29 15-9 6-16 13-23 21-10 12-19 24-27 37-10 14-18 30-24 46l-12 32a385.7 385.7 0 0 0-25 122l-1 20 1 31 2 17 8 38c9 37 27 70 52 100l35 34a153.6 153.6 0 0 0 70 38l27 7 17 2c11.4 0 22.7-.5 34-2l26-5c26-6 49-18 70-35l27-26a234 234 0 0 0 60-97 395.6 395.6 0 0 0 16-91m6-18-1 27-3 24-2 18c-3 32-12 61-28 89a300 300 0 0 1-64 77 152.6 152.6 0 0 1-84 39l-27 4a135.8 135.8 0 0 1-48-1l-26-5c-27.3-5-52.8-17.1-74-35-12-11-24-22-35-35a283.3 283.3 0 0 1-52-91c-5-33-9.3-66-13-99v-11c.7-18 1.7-36 3-54 2-28 9-56 19-82l15-39c5-12 11-24 18-35l29-39a191.2 191.2 0 0 1 75-50l30-9 17-2h41c9 0 18 1 27 4l36 13a174.3 174.3 0 0 1 65 48l27 36c7 10 13 21 17 32l17 44c9.5 24.4 15.6 50 18 76l3 56"/>
    <path d="M375 211.2c6 0 10-3 13-8v-1l-3-1-33-12-3-1c-1 0-2 0-2 2 0 8 3 11 10 14l1 1 8 3 9 3m110 268 1 4c1 7 9 11 16 9 2-1 3-2 3-4l2-8 2-13v-3c-3-3-4-7-5-10 0-3-2-6-3-8-3-4-8-6-12 1-3 5-4 10-3 15v13l-1 4m-111 134 1 9c1 4 3 6 5 8 1 1 2 2 4 1l19-10 2-2v-14c0-3 0-5-2-8l-3-3c-3-6-10-7-15-4-5 4-9 8-10 15l-1 8m137-183v-21l-3-23-13-49c-5-17-13-32-21-46l-14-25a151.3 151.3 0 0 0-33-40l-21-15-12-6c-2-1-2-2-4 0-3 4-6 6-10 7l-11 2c-4 1-8 0-12-2l-10-7c-2-3-4-6-4-10v-4c0-3 1-3-3-3l-2 1-29 10c-9 4-19 8-27 14l-17 12c-3 2-7 4-9 7-9 9-17 19-24 30l-16 28c-9 16-16 33-22 51l-9 33c-3 12-5 25-6 38 0 19 0 39 3 58 1 13 4 26 9 39a393.4 393.4 0 0 0 31 58c30.5 36 71.4 61.9 117 74h13l23-7c3-1 3-1 1-3l-7-11c-3-4-4-8-3-12a32.8 32.8 0 0 1 20-22c6-2 12-1 18 1 4 1 7 5 6 10v5c0 5 0 10-2 14l1 1 1-1c20-11 37-25 52-42 8-9 15-18 20-29l9-19 11-25 1-3-1-1h-3c-3 1-6 0-9-2-3-3-6-6-7-10l-3-7-1-6c-1-4-1-8 1-11l4-10 5-8c4-5 10-5 14 0l5 8 1 3h1l1-24m-340-10c0-11 0-22 2-33l5-22c2-11 4-22 8-32 9-27 21-51 39-73l12-15c6.6-7.8 13.2-15.4 20-23a191 191 0 0 1 33-25 169 169 0 0 1 50-16c6-1 11 0 17 1a165.2 165.2 0 0 1 58 24 496.7 496.7 0 0 1 30 28l8 10a241.3 241.3 0 0 1 57 109l5 24c4 25 4.5 50.7 2 76-2 26-9 51-20 75l-9 20c-5 11-11 21-19 30l-15 17c-6 7-13 13-21 18-12 9-25 16-39 22-11 6-23 9-35 11-7 2-13 2-19 2l-10-2c-17-3-32-9-46-17l-21-12c-16-9.8-30-22.7-41-38-8-10-15-20-20-32l-13-29a274 274 0 0 1-18-89v-9"/>
    <path d="M288 577.2v-1c0-2 0-2-2-3l-18-9h-4l-2 7c0 3 1 5 3 6l3 1c3 1 5 3 6 6l1 3 2 2c3 3 6 3 8 0l2-4 1-8Zm157-289-2-6c-1-2-3-3-5-3-3 0-5-1-7-3l-3-3c-2-1-4-2-7-1-3 0-5 2-8 4v1l3 2c6 4 11 9 15 14l5 6 2 2h2l2-3c2-3 3-7 3-10m-160-35h-1l-1 1c-5 7-9 14-10 22l-4 13-9 28c-2 5-3 9-2 14l-1 10 2 12c3 6 6 11 7 17h1l9-18c2-6 3-13 3-19l-1-19c-1-7-1-14 2-21l5-19v-21Zm46 128c-4 1-5 3-4 7 3 7 8 12 13 16h7c5-1 9 0 11 5v9l-1 3c-2 3-4 5-8 6-3 1-5 1-7-1h-3l-1 3 2 5c0 1 2 2 3 1l1-1 6-4 4-2c4-2 6-5 7-9l1-3h3l3 6v5c2 9 3 18 8 26l1 2v3c0 2-2 3-4 2h-2l-6-1-7 3c-2 1-4 3-5 6l-1 5c-1 3-2 7-7 8v3c0 2 1 2 2 3h4l5-2v-2l-1-3c-1-3-1-7 1-10 1-3 4-4 8-4 3 0 6 1 8 3s3 5 3 8v4c-1 4-3 8-6 11l-11 11c-8 7-17 12-27 15-8 2-16 2-25 1l-17-4-1 1 3 2c9 3 19 5 28 6 9 0 16-2 24-5l18-10c6-4 11-9 15-15l8-11 4-6 2-4c2-4 5-6 9-6l5-1c3-1 4-1 5 2l2 3 3 8 1 4c-1 5-1 5 3 6 2 1 3 1 4-1 0-2 2-3 3-3 2-1 2-2 1-3l-3-1c-5-3-8-6-9-12v-2c-1-4-3-6-7-7l-8-1c-2 0-3-1-4-4l-1-5-1-8v-4c0-4-2-8-4-11l-5-9c-2-4-3-7-6-10l-2-3c-1-2-1-3 1-4h1c4-1 6-3 8-6 2-2 2-5 1-8v-7c2-4 0-5-3-6h-4c-1 2-3 3-5 3-2 1-2 2-1 3l3 3 4 3c3 3 2 7-2 9-4 3-8 4-13 3-4 0-6-2-8-6l-1-4c-1-2-2-4-5-5-8-4-19-3-21-2Zm-54 5-9 5-9 9-11 12-10 9a58.8 58.8 0 0 0-19 44c0 8 1 16 4 23a128 128 0 0 0 22 41c5 4 8 9 12 14 5 7 11 13 18 17 12 6 25 12 39 13 8 1 16 2 23 1 9-2 17-3 25-6 14-5 27-11 40-20l23-17c14-11 24-26 30-43l1-3c5-15 10-30 12-46 2-11 3-21 1-32l-3-18-7-22a127.2 127.2 0 0 0-30-58c-5-7-12-14-19-19l-15-9c-10-7-21-12-32-15l-13-3-15-5c-3-2-5-3-8-3l-19-6-13-1c-3 0-3 0-2 3 3 6 4 12 4 19a94.8 94.8 0 0 1-8 29c-2 4-3 9-3 13l-1 26c1 8 0 16-3 23l-11 20-1 3h1l12-3 7-2 4-1c6-2 12-1 18 0l12 3h2c1-2 3-3 5-3l14-2c5-1 10 1 13 7l2 6 3 3c4 2 8 3 13 2 4-1 4-5 2-7l-3-2-2-3c-3-3-2-5 1-7l5-2c1-1 2-2 3-1l5 1c2 1 3 3 3 5l-1 3 1 6c4 5-1 15-6 16l-4 1 3 3 5 6c4 4 6 9 7 14l2 12c2 4 2 8 1 12v2c0 2 1 2 2 2l6-1c7-1 12 4 12 11l-1 3c1 5 2 8 6 10l3 2c3 2 3 5 1 7l-3 2c-3 3-3 3-7 2l-1-1c-3 0-4-2-4-5v-1l-1-4c-3-2-4-4-3-7l-1-3-2-1-5 1-5 3-3 5-6 11c-4 8-9 15-17 20-6 5-13 9-20 11-10 3-19 6-29 7h-16c-10-2-18-7-25-13l-6-5c-4-4-6-10-8-15-4-9-6-17-5-26 1-13 7-23 18-30l11-6c7-5 14-6 22-4 10 2 17 9 20 18l3 12c1 7-1 14-5 21-6 9-15 13-26 13h-2l-1-1h1l1-1c4 0 8-1 11-3 7-2 11-6 12-13l3-13 1-11c-1-2-1-5-3-7-3-3-6-6-11-7-7-2-14-2-22-1-7 1-13 4-17 10a48 48 0 0 0-2 52c4 6 9 11 16 14l11 4 5 1c8 1 16 1 24-2 16-4 28-14 39-27l3-8c1-3 0-6-3-8l-4-1c-3-1-5 1-6 4v8c0 4-2 7-6 7h-7c-3 0-5-4-4-7l3-3c3-1 3-3 4-5v-6l1-4c2-7 11-11 18-9l3 2 2 1v-1s1 0 0 0l-1-2c-3-4-5-8-6-13l-2-15v-5l-1 2c-2 4-5 6-9 7l-5 2-5 4c-2 1-4 1-5-1l-2-2-1-5v-2c1-3 2-4 5-3l5 1c4 1 7-2 8-6l-1-10c-1-2-3-3-5-2l-3 1c-4 2-8 1-11-1l-4-4-4-8-2-8c0-3 0-3-3-4h-16c-9 2-22 2-28 3Zm53 196-21-2-12-3-3-1-1 1v3l-1 5-3 5c-4 3-7 4-11 2l-5-3-9-6c-5-3-8-7-6-13l2-6 1-2-2-2-6-3a688.9 688.9 0 0 0-26-28c-8-14-14-29-17-45-3-14-2-28 2-42 3-10 8-18 16-24l9-8 11-10 8-10c3-6 3-13 1-20l-2-5-4-5-3-12v-8c-1-12 1-23 7-34v-1c6-9 9-19 11-30a52.8 52.8 0 0 1 22-35c3-2 7-4 11-4 14 0 29 2 42 7l27 10c6 1 11 4 17 6l23 14c2 1 2 2 4 0l9-5c7-2 15-1 20 5l3 5 2 6 1 2c0 4 0 9-2 13 0 2-1 4-3 5v2l4 6c10 12 17 27 20 42l6 23 5 21c3 8 4 16 4 24-.2 15.5-1.8 30.9-5 46a140.4 140.4 0 0 1-40 69l-7 6-19 12-17 10-23 10c-11 5-24 7-40 7"/>
    <path d="M286 406.2c2 0 4 1 4 4 0 2-2 3-4 3s-4-2-4-4 2-3 4-3m-23 14c0 2-1 3-3 3s-4-2-4-4 2-3 4-3 3 2 3 4m152-88-3-3c0-2 2-3 4-3 1 0 3 1 3 3 0 1-2 3-4 3m-112 143c2 0 3 1 3 3 0 1-1 3-3 3-1 0-3-1-3-3l3-3m33-136-3 3c-2 0-3-1-3-3l3-2 3 2m109 105-2 2c-2 1-3-1-3-2s1-2 3-2l2 2m-84 101c1-1 2 0 2 1s0 3-2 3l-2-2 2-2m-6-250-1-1c-1-1-2 0-2 1l2 2 1-2Zm63 51 1 1c1 1 1 0 2-1l-2-2-1 2Zm15 151-1-2 2-1 1 1-2 2m-34-94 2-1-2-1-1 1 1 1Zm-18-26v1l1 1 2-1-1-2-2 1Zm-41 51h1l1 1-1 3-1-1v-3m7 54-1 1c1 2 2 2 3 2v-1l-2-2Zm72 5h-3v-1c1-1 3 0 3 1M216.6 366.6c0 .4-.3 6.8-.2 13.3-6.8.5-5.7-13.3-5.3-15 .2-1.4-4.4 1.7-6.6 3.8.7 1.3 1.7 1 3 .5-.5 6.2 3.8 11.8 9 11.7.1 6.4.7 12.5 2.6 13 .2 0 .4-6.5.6-13.7 12.2-3.8 7.5-18.3 7.5-18.3-.2-.8-2 .3-6 3.9 1.6 1.7 2.3.7 3.6.3 1 1.9 1.4 10.5-5.2 13l.3-18-.4-.2c-1.8.2-5 3.4-7.5 6 1.5 2.3 3.3.3 4.6-.3m6 19 2.7 2.9 2.8-2.8-2.8-2.8-2.8 2.8Z"/>
  </g>
</symbol></svg>
