<svg xmlns='http://www.w3.org/2000/svg' viewBox='0 0 696 830' fill='none'><symbol id='CSKC_Outline'>
  <g fill="none">
    <path fill="#FDBE00" d="M124 439.2a227 227 0 0 0 3 48l7 34c11 43 32 80 62 111l23 24 10 8c18 15 37 25 60 31l30 7 8 1 14 1h18l10-1c17.8-4 35.4-8.2 53-13 19-8 36-19 51-34l20-19a235.7 235.7 0 0 0 63-105c6.1-25 10.5-50.4 13-76 1-13 0-26-1-39l-2-25c-2.7-30.3-9-60.2-19-89l-18-47c-5-12-11-24-18-35l-27-38c-16-19-35-34-58-41-14-5-27-9-41-12a172 172 0 0 0-70-1c-18 3-35 8-53 15a118.1 118.1 0 0 0-52 39c-10 12-19 25-28 39-7 11-13 22-18 35l-17 43a348.2 348.2 0 0 0-20 94l-3 45m-6-20c1-23 2-49 7-74 3-17 8-33 14-50l16-41c5-12 11-23 18-34l27-36c15-18 33-32 54-42 11-6 23-10 35-14l22-7 14-1 20 1h4l18-1c7 0 15 1 22 3 17 5 34 11 50 19 21 10 40 24 55 43l25 33c8 12 14 25 20 38l14 38c8 21 14 43 17 65a507 507 0 0 1 2 120l-3 28c-3 21-8 42-18 61-13 29-31 55-53 77l-18 18c-21 19-45 32-72 38l-30 5c-13.9 1.7-28 2.7-42 3-18-2-36-4-54-9-25-6-48-18-67-35-13-13-27-26-38-40-18-23-32-47-42-73-5-13-8-27-10-40-3.1-31-5.5-62-7-93"/>
    <path fill="#FDBE00" d="M332 564.2c2 0 3-.7 3-2l-3 2m53-46-3 4c2 0 2-1 3-4m31-26-3 2-1 2c1-1 4-1 4-4m-87 145-5 1 2 1h2l1-2m106-172 4-3h-4v3m-1-2c-2 0-3 1.3-3 4 3 0 2-3 3-4m-130 125-4 4-1 1h4l1-5m126-113 2-2v-5c-2 2-2 4-2 7m23 85-1-7-2 5 3 2m-33-18-1 4h4l1-5-4 1m-104 36 11-2 1-2c-4 0-8 1-12 4m105-40 4-2 1-5-5 3v4Zm13-66 1-1 5-5v-2l-6 4v4Zm-16 64-4 3-9 4c-1 1-2 1-2 3l3-2 10-4 1-1 1-3m-48 101 5-1 1-6-5 2-1 5m54-154-5 6-1 4 6-3v-7Zm-100 138v3l10-3 2-4-12 4m-33-21h10l1-4h-6l-5 4m136-101-2 8 6-4v-6l-4 2m-14 60 6-4 2-7h-3l-5 11m-131 48c-4 2-6 4-8 7l6 3 2-10m29 16-1 2-1 2 12-2 1-3-11 1m132-133-5 2-2 2-2 6 7-4 1-2 1-4m-110 77c-5 0-11 2-15 7l12-3 2-1 1-3m23 45-8 3-8 2-2 3 8-2 7-1 3-5m90-116-3 2v13l5-4-2-11m-61 29v7l5-1 3-7-8 1m42 81-9-1c-1 2-3 3-3 5 5 1 9 0 12-4m-3-105-6 4-1 1v3l-2 4 6-3 2-2 1-7m-55 63h1l6-1c4-1 4-1 6-4v-1l-12 3-1 3m19-11 11-5 1-3-11 2v2l-1 4m37-54-1-6-7 3v3l1 3 7-3m-20 2-12 8-1 3 10-2c1-3 3-5 3-9m-23 31v-3l1-4c-2 0-4 0-5 2l-5 5-1 2 10-2m18-15 11-2 2-2 2-6-11 5-4 5m34-33-7 7v6l5-3 1-1c1-3 2-5 1-9m-103 91h7c6 0 6 0 10-5l1-1 1-2h-1c-5 3-10 6-16 7l-2 1m94-30 12-4 1-7-11 7-2 4m-19 58-2 7h7l3-5c-3-2-4-2-8-2m21-115 7-6-1-7-5 3-1 1v9m0 40 4-9-1-1-9 7-1 1 1 5 6-3m-34 99-10 1c-3 0-5 1-5 4l-1 2c4 0 13-4 16-7m44-137c7-3 8-6 6-11l-6 3v8m-38 132 8-2c3-1 4-3 3-6h-7l-4 8m42-96c-4 0-8 1-11 3l-1 1c-1 2-2 3-1 5l11-5c2-1 2-2 2-4m-150 97 1 1 3 3c2.7 1.3 5.7 1.7 9 1v-1l2-1 1-3h-16m144-79c-4 3-7 4-11 5l-2 5c4-2 8-1 11-1l2-9m-103 96 6 2c2-3 4-5 5-9l-11 3v4m119-116-1-6c-1-2 0-4-2-6l-5 2 1 9 7 1m-102 48h1l4-2 10-4c2-1 3-2 3-4l-1-1-9 3-2 1-6 7m31-26 7-2 2-11-5 1-4 12m-60 82-11 1c-2 0-2 1-3 3l9 3h2l3-7m86-90c5-1 8-4 12-6v-5l-5 2-5 2-2 7m9-34v-7c-3 1-5 1-7 3l-2 8v1c4-1 6-3 9-5m26-37-3 3-4 4 2 7 8-4-3-10m-24 76c-5 1-10 2-14 5l-2 1v5l5-3 9-4c2-1 2-2 2-4m-101 48-11 4-1 5h10l2-9m40-3 17-7 1-2-11 1h-2l-2 2-3 6m47 15c-3 1-6 2-10 1l-1 1-4 5h14l1-5v-2m-10-32-15 7-1 2c5 1 10 0 15-2l1-7m-10-10 15-5 1-6h-2l-8 4-4 4-2 3m58-62-7 5 1 10 6-2v-13m-55 23h6l4-3 3-5 1-2-10 3-3 2-1 5m-56 111 2-10-9 4-3 8 10-2m42-76 11-2 2-2 2-6h-4c-3 0-5 1-7 4l-3 4-1 2m58-31 6-2 5-1c0-3 1-6-1-9l-4 2-2 1-4 9m-8-5 9-5 2-2-1-8-7 6-3 9m-13 6 8-3 2-2 3-6v-3l-7 3-2 1-4 10m-51 34 10-3 1-1 6-8-12 4-1 1-4 6v1m-24 10 6-2 14-6 4-7-6 3-5 3-5 2-6 2-2 5m56 33h-3l-8 1c-3 1-4 2-4 5v4l10-3 5-7m-16 13v4l-1 4-1 4 4-1 3-2 5-12c-4 0-6 2-10 3m32-49-10 2-2 8c9 1 9 0 12-7v-3m12-9-6 4c-2 1-3 3-3 5l-2 7v2l3-1 4-4c3-4 3-8 4-13m-77 19h-12l-1 1c-3 2-5 4-6 7l14-2 5-6m8 44h-6l-7 1-3 7v1l12-2 4-7m92-44-1 5c-1 6-2 11-5 15v3l6-6 7-15-7-2m8-1c2-4 4-8 4-12l-5-3c-4 5-6 9-6 12l7 3m-143 15h2l9-4 2-2 4-5 2-2c-6 0-11 2-16 4l-1 2-2 7m29 3 14-5h2c1-2 3-5 3-8l-8 3-9 2-2 6v2m68-13-4 10-4 10 8-1 2-10 3-10-5 1m-41-12-4 1-11 5c-2 1-4 1-5 3l-3 6 16-5 3-6 4-4m36-37-7 1-1 7v3l5-1c8-2 8-4 10-11l-7 1m-17 32-2 10 8-4 8-3 3-9-9 3c-2 2-5 2-8 3m28-47h-2l-9 4c-4 1-6 4-6 9l14-3 3-10m-48 60h10c5-1 5-2 6-6l1-4v-2l-10 2-4 5-3 5m91-36c1-5 0-10-1-15l-7 3-1 1-3 9 12 2m-54 25 6-2c3-1 5-3 6-6l2-4 3-5v-2l-2 1-13 9-2 9m-61-3 6-2 17-11 3-7-2 1-12 7-4 2-3 2-5 8m111-7 4-13c-5-1-9-3-13-1-2 4-3 6-2 10 4-1 8 0 11 3m-75 50c-4 0-9 1-13 3l-2 2-1 3-1 3c5 2 12 0 16-2l1-9m73-47c-3-4-5-4-11-2l-1 7-3 7 4 1 5 1 6-14m-50 64 2-5 2-5h-14l-2 6-2 7 12-3h2m-79-23c5 0 9-2 14-4l1-1 3-7-1-1c-4-1-9 0-13 2l-2 1-2 10m64-66-12 3-4 4-2 9 12-3 2-2c2-3 4-7 4-11m52 23-5-2c-3-1-5 0-6 1-2 1-2 3-2 4v2l-2 8v2l10-2c2-4 5-8 5-13m-40 24-3 6-3 6-5 8-1 2c4-1 7-3 11-1 3-5 7-14 8-20l-6-1h-1m-52 61c9 2 18-2 26-4l1-5h-22l-2 5-3 4m-58-23 4 2h2l4-4 6-13v-1c-4 0-10 0-14 2l-1 5-1 9m64 10c6 2 16 2 22 0l3-8v-2l-7 1-8 1h-3l-2 1-5 7m-16-29-15 3-2 9-2 8c4 1 7 0 11-1l5-14 3-5m7 14 3-10 5-9c-3 0-9 1-13 4l-6 12-2 7 13-4m-35-11-5 9-6 9 17-1 4-16-10-1m121-28h-2l-7 3-3 3-5 10-1 7v2l9 1 1-1 1-7c1-6 3-12 7-18m-83 39c5 0 10-2 14-4l3-4c2-6 5-11 10-16l2-3 2-3-4 2-16 7-3 2c-4 5-7 11-8 19m89-11c4-9 8-17 8-26l-9-3-6 12-3 16 10 1m-70 4 15-4 3-1c3-2 5-5 6-9l5-8 1-4-7 1-8 1-8 11c-3 3-5 7-7 13m91-120 3-2 8-8 30-33c-1-1-48 15-49 16l5 13 3 14m43-50-7 1c-3 1-7 1-10 3-6 3-13 5-20 5l-15 1-24 4-23 5-12 2-40 2-32-1-16-2-23-5-21-3-18-2-18-3c-5-3-11-4-16-4h-2l2 1 10 4c11 4 22 5 34 6l21 3 32 6c10 2 20 4 30 3 18.6-1.5 37.3-1.8 56-1l23-5c21.1-5 42.5-8.2 64-10l21-7 4-3m-42 55c-1 1 3 16 5 22 2 10 3 20 0 30-1 5-2 10-1 15v5l-3 18c0 1-2 3-1 4s3-4 5-5c9-9 17-19 23-30l8-15c6-11 10-23 14-35l4-11c0-1 0-2-2-2-8 2-16 2-24 1l-13-2h-4l-11 5m-161-285-4 3-25 17-7 6c-9 10-18 20-24 32l-2 3 13 10c4 3 8 4 13 3l21-2c3 0 6-2 9-4l8-10 8-15c3-5 4-10 3-15l-1-5c-3-8-11-22-12-23m-92 239 2 2 28 31 9 8c5 4 10 6 17 8l17 1 12-1a298 298 0 0 1 64 2c18.2-3.2 36.6-4.8 55-5l3-1c5-4 10-7 14-12 4-4 9-15 8-16l-35 3-19 1h-84l-15-1a228.2 228.2 0 0 1-74-19l-2-1m25 34-21-23-13-15-1-4c-1-2 0-3 2-3l3 1 21 1c8 0 16 2 23 6l7 2 11 2 25 3h13c6-1 11 0 17 3l10 2 26 2 23-2 10-3c5-2 11-3 17-2h10l36-6c3 0 7-1 10-3l4-2c4-2 9-3 14-3l18-1 6-1 5-1c1 0 3 1 2 3l-2 4-13 16-23 26 44-2 2-14c2-16 2-50 1-50h-10l-23-1h-61l-34 1h-35c-19.3-.7-38.7-.7-58 0l-28 1h-38l-42-1h-3v21c0 14 4 44 5 45s39-1 40-2m-39 12 5 15a361.7 361.7 0 0 0 32 61c12 15 43 41 45 41l11-6 3-2c7-4 12-9 17-15l8-10c4-5 10-9 16-10 5-1 8-3 11-6l8-8c4-5 9-9 15-12s11-7 15-12c7-6 13-12 18-19l1-2h-7c-8 1-17 0-26-1-5-1-10-2-15-1l-19 1c-15.7 1-31.5.4-47-2l-22-5-18-9-7-4c-4-2-8-2-13-1l-11 3-20 4m326-82v-4l-2-18-14-53c-5-16-13-31-21-46l-12-22a149.1 149.1 0 0 0-36-43l-17-11-12-7-5-1-8 2-22 3c-8 1-17 3-25 6l-9 2h-4l-2-2 1-2 6-2 11-1 18-3 28-7-5-2-28-10c-5-2-11-2-16 0l-14 5-24 10c-1 0-3 0-3 2v1c7 7 10 15 10 25l-1 15c0 9-4 16-11 22l-9 8c-5 4-10 6-16 8-7 2-14 2-21-2l-13-5-10-4-11 20c-8 15-15 30-19 46l-11 40c-3 10-4 20-5 30 0 3 2 3 2 3l14-1 33-1h7l32-1 23 2 66-2 19 1 28 1 50-1 45-1h13m-340 10c-.3-20.3 2.3-40.5 8-60l9-33c10-29 26-55 46-78l15-19c8.4-10 18.2-18.7 29-26 5-3 11-7 17-9a172.4 172.4 0 0 1 46-14c6-1 11 0 16 1 15 3 30 8 44 15l16 11c8.9 7.7 17.6 15.7 26 24l12 14a246.1 246.1 0 0 1 55 107c5.2 16.5 8.2 33.7 9 51v44c-3 26-9 52-20 77l-12 26a519.6 519.6 0 0 1-31 44l-21 18c-16 11-32 20-49 27-10 4-21 6-32 8-8 1-16 0-23-1-17-3-32-9-47-17l-22-13a132.8 132.8 0 0 1-39-36c-8-10-16-22-21-34l-13-29c-7-16-11-32-14-49-3-16-4-32-4-49"/>
    <path fill="#FDBE00" d="M387 289.2c-1 2-3 1-4 1l-12-4-6-5c-10-6-19-11-30-14l-14-6-4-3c-1-1 0-3 2-3l4 1 4 2 9 5c9 6 18 10 27 14l11 4 10 5 3 3m-90 69c-2 1-6-12-7-15l-2-16c0-6-2-12-4-17l-5-10-1-6 1-2c1-1 3 0 3 1l2 4 2 11 6 21 5 18c0 3 2 10 0 11"/>
    <path fill="#FBBD13" d="M212 362.2c-1-1 1-8 1-10l2-4 11-30 4-19 2-6c1-2 2-3 4-2 1 0 2 2 1 4l-1 4-4 8-5 13-8 27c-1 5-5 16-7 15"/>
    <path fill="#FDBE00" d="M326 349.2c3-2 7-3 13-3 5 0 9 3 13 6l3-3 5-4c5-4 15-7 19-3l-9 1c-6 1-11 4-14 9l-1 3c-2 3-5 3-7 0l-2-2c-2-3-5-4-9-5l-9 1h-2m96 21 3-3 6-5c4-3 10-5 16-5l-3 1-6 2c-4 1-8 4-10 8l-3 5c-2 3-5 3-7 0l-2-2c-2-4-6-6-10-7l-4-1c8-1 14 2 20 7m46-54-5 1c-4 0-8 2-10 6l-1 1c-1 2-3 2-4 0l-2-1c-2-3-5-4-8-4h-5l3-2 8 1 4 2c2 1 3 1 5-1l3-2c3-2 6-3 10-2h2v1m-23 63c4-1 7 0 10 2 4-3 8-6 14-6-1 1-9 4-12 8-1 1-2 2-3 0l-9-4M237.6 525.9c0 .4-.3 6.8-.2 13.3-6.8.5-5.7-13.3-5.3-15 .2-1.4-4.4 1.7-6.6 3.8.7 1.3 1.7 1 2.9.5-.4 6.2 3.9 11.8 9 11.7.2 6.4.8 12.5 2.7 13 .2 0 .4-6.5.6-13.7 12.2-3.8 7.6-18.3 7.6-18.3-.2-.8-2 .3-6 3.9 1.6 1.7 2.3.7 3.6.3 1 1.9 1.4 10.5-5.2 13l.3-18-.4-.2c-1.8.2-5 3.4-7.5 6 1.4 2.3 3.1.3 4.5-.3m5.9 19 2.8 2.9 2.8-2.8-2.8-2.8-2.8 2.8Z"/>
  </g>
</symbol></svg>
