<svg xmlns='http://www.w3.org/2000/svg' viewBox='0 0 696 830' fill='none'><symbol id='DDOC_Outline'>
  <g fill="#D7CDC1">
    <path d="m568.5 443.2-1-33-3-29-3-25c-3-18-9-36-15-53l-18-47a531.3 531.3 0 0 0-62-91c-9-8-19-14-31-19l-26-9-27-7a198.1 198.1 0 0 0-51-3l-16 2-22 5c-11 3-22 6-32 11-11 4-21 9-29 16s-16 14-22 22a573.4 573.4 0 0 0-43 67l-7 17-15 40a297.5 297.5 0 0 0-19 97v12l-2 21 1 28 2 18 7 32a246.4 246.4 0 0 0 84 137c6 7 14 13 21 19 16 10 32 18 50 23l27 6 19 3 31-1h2l31-7c25-6 48-18 67-35l19-17c41.5-38.6 69-90 78-146 4-17 6-34 5-54m-222-323h20c8 0 16 1 23 3l44 16a173.5 173.5 0 0 1 59 45 435.5 435.5 0 0 1 44 66l19 49c7.7 21 12.7 42.8 15 65a421 421 0 0 1 2 104l-2 25a196.1 196.1 0 0 1-19 74 293.7 293.7 0 0 1-75 98 151.3 151.3 0 0 1-79 37c-18 2.3-36 4.3-54 6l-25-2-22-4a163.8 163.8 0 0 1-84-41l-23-23a264.5 264.5 0 0 1-53-85c-5-13-9-26-10-40l-4-33-3-26v-1l-1-34 2-35c3-27.8 8.7-55.3 17-82l21-53c17-30 37.5-57.8 61-83 16-15 36-26 57-34l26-8c8-3 16-4 25-4h19"/>
    <path d="m511.5 413.2-4-32-8-28a233 233 0 0 0-15-43l-1-1v1c2 21 2 42 0 63l-3 16c0 4-2 7-3 11l-2 14c0 2 0 2 2 2l7 1 19 3 6 1 2-1v-7m-332 4v2c0 2 1 3 3 2l8-1 25-4c1 0 2 0 2-2 0-5-1-11-3-16l-4-15a528.7 528.7 0 0 1-3-59l2-13v-6l-1 2c-4 9-9 18-11 28l-11 39c-4 14-6 28-7 43m277-101-1-7c-1-5-3-9-6-13l-14-19c-6-6-12-11-20-15-1-1-2-1-3 1l-8 7c-4 5-8 9-11 15-5 8-9 16-10 26-1 5 0 10 2 15 3 4 7 6 11 8l18 8c8 4 15 9 20 15l2 2h1l8-10 8-18 3-15m-147-2v-5c-2-9-6-18-10-25-6-9-13-15-20-22h-2c-6 3-11 6-16 11-8 8-15 16-20 26l-4 8v19c3 10 7 19 13 27l5 6h1l2-2c5-6 12-12 20-15l18-8 3-1c3-2 6-4 7-7 2-4 3-7 3-12m36 327h5l6-1a151 151 0 0 0 26-9v-2c-4-11-6-22-8-33-1-14 0-27 4-41 3-8 6-16 11-24l19-36 16-28a139.8 139.8 0 0 0 12-83c-3-15-11-26-25-33l-11-5-11-4-8-4c-4-3-7-7-9-12l-1-6c0-13 3-25 10-37 4-6 10-12 16-17l5-4v-1h-2l-17 3-24 1-12 1-3-1h-9l-32-2-11-2-2 1 1 1 3 2 14 14c9 13 13 27 12 42 0 9-4 15-12 19l-4 1c-7.9 3.5-15.9 6.8-24 10-11 6-19 15-22 27l-4 20a143.5 143.5 0 0 0 21 82l22 39c6 10 11 21 15 31 5 15 7 30 6 45-2 11-4 23-8 34-1 3-2 3 2 4 10.7 3.7 21.8 6.4 33 8m132-322-1-11-1-11c0-5-2-9-4-12l-11-20a148.5 148.5 0 0 0-34-40l-15-10c-8-5-15-10-23-13l-36-13c-5-2-10-1-14 0l-26 9c-10 4-20 8-29 14-8.4 5.9-16.7 11.9-25 18-9 9-17 18-24 29l-14 25-2 7-2 17v26l2 18 2 19v26l2 14 1 6c1 4-1 6-4 7l-6 2-15 3-15 2c-4 0-4 0-4 3 0 12 1 23 3 35 1 13 4 25 9 38 8.5 20.9 19 41 31 60a231.4 231.4 0 0 0 75 57v-1a145 145 0 0 0 7-62 178 178 0 0 0-31-72l-12-19c-14-24-20-50-17-78 1-6 2-13 5-19l1-4-3-3-2-2c-5-5-9-11-12-18s-3-14-2-22l2-13v-9c0-6 2-12 4-17 3-6 7-11 12-16 4-4 9-8 15-10l17-4h4l13 1 25 1h33l33-1 16-1 9 1 8 2 9 3a52.2 52.2 0 0 1 27 34l1 13 2 15c2 8 1 16-3 24-3 8-8 15-15 21l-1 2 4 12c4.3 19.9 3.3 40.6-3 60-3 13-9 25-17 36l-11 17c-11 16-18 33-24 50a110.8 110.8 0 0 0 0 65l4 14h2l11-6c19-12 36-25 51-41 10-10 18-21 24-34l6-12 14-34c5.5-19.2 8.2-39 8-59v-6l-1-1-7-1-31-6c-3-1-4-3-3-7l2-11 1-15v-16c1.2-18.7 2.8-37.4 5-56m-306 102c.5-17.8 2.6-35.5 6-53l8-34c9-27 22-52 40-74l19-23 7-8a166.6 166.6 0 0 1 39-32c14-7 28-12 43-15 10-2 19-1 28 1 14 3 28 8 40 14 8 4 15 10 21 15 9 7 17 15 24 24l15 17a239.2 239.2 0 0 1 48 98 1012 1012 0 0 1 10 49 280 280 0 0 1-21 126l-10 22c-6 11-12 22-21 32l-11 13c-8 9-17 17-28 23-11 8-23 14-35 20-11 5-22 8-34 10-6 2-13 2-19 1l-10-1c-19-4-36-11-52-20l-19-12c-11-6-20-15-28-24-9.2-11-17.6-22.7-25-35l-19-41a261.8 261.8 0 0 1-16-83v-10"/>
    <path d="m220.5 460.2 1 14c2 12 8 22 17 31l8 6 8 5c9 6 16 14 20 23 3 7 6 14 7 21l2 18v2h-1l-1-2a740 740 0 0 1-4-26c-3-7-7-13-13-18l-15-11a76.7 76.7 0 0 1-31-43c-3-9-2-18-1-27l1-1 1-1 1 1v8m252-1v-7l1-1h1l1 4c2 9 1 19-2 28-4 10-9 20-16 28l-11 10-16 12c-10 7-15 17-17 28l-2 14-1 6-1-1v-4a90.2 90.2 0 0 1 10-38c3-9 10-16 18-21l6-4c13-7 21-18 26-32 3-7 4-13 3-22m-120-46-2-1-2 1-1 3h-2l-1-3-2-1-2 1-1-1v-1c1-2 0-3-2-5v-1l1-1 1-3v-1c-1-2 0-2 1-2 2 0 4 0 5-2h2c1 2 3 2 5 2 1 0 2 0 1 2 0 2 0 4 2 5v1l-1 1-1 2v2l-1 2m-3-26-1 5h-3c-2-1-2-3-2-4-1-3 1-6 2-8h2l2 7m-22 22-3-1c-1-1-2-1-2-3l2-2c4-2 6-2 9 1v2c-1 1-3 3-6 3m38 0c-3 0-5-1-6-3v-2c3-3 5-3 8-2l1 1c3 2 3 3 0 5l-3 1m0-21-1 2c-2 3-4 4-7 5h-2v-2c1-4 3-6 7-7 2-1 3 0 3 2m-28 7-1 1c-4-1-9-5-9-9l1-2c4 1 9 5 9 9v1m6 29c0-2 0-3 2-4h2c2 2 3 4 2 6l-2 4h-2l-2-6m13-8c0-1 0-2 2-2 3 1 6 4 6 7l-2 2-4-2-2-5m-28 5c0-4 3-7 7-7l1 2c0 4-2 6-6 7l-2-2"/>
    <path d="m446.1 566.7 2.8 2.8 2.8-2.8-2.8-2.8-2.8 2.8Zm-5.9-19.1c0 .4-.3 6.8-.2 13.3-6.8.5-5.7-13.3-5.3-15 .2-1.4-4.4 1.7-6.6 3.8.7 1.3 1.7 1 3 .5-.6 6.2 3.8 11.8 9 11.7.1 6.4.8 12.5 2.6 13 .2 0 .5-6.5.6-13.7 12.2-3.8 7.5-18.3 7.5-18.3-.2-.8-2 .3-6 3.9 1.6 1.7 2.3.7 3.6.3 1 1.9 1.4 10.5-5 13l.2-18-.4-.2c-1.8.2-5 3.4-7.5 6 1.4 2.3 3.1.3 4.5-.3"/>
  </g>
</symbol></svg>
