<svg xmlns='http://www.w3.org/2000/svg' viewBox='0 0 696 830' fill='none'><symbol id='Foshan_Outline'>
  <g fill="#00807D">
    <path d="M124.5 441.5c-.8 15.7.2 31.5 3 47l8 35c9 39 27 73 53 103 12 14 26 26 40 38 18 16 39 28 63 34l28 6a131 131 0 0 0 38 2l14-1 25-5a160.5 160.5 0 0 0 76-39l22-22a236.3 236.3 0 0 0 64-108c6-25.7 10.4-51.7 13-78 .7-25-1-50.2-5-75a360.8 360.8 0 0 0-18-76l-17-43c-5-14-12-26-20-39a602.1 602.1 0 0 0-32-44c-14-14-29-25-47-32a389.4 389.4 0 0 0-54-15l-20-2h-26l-14 2c-9 1-17 4-26 6-11 3-22 6-33 11-10 4-19 9-26 15-9 7-16 14-23 23l-27 37c-8 12-14 25-20 38l-15 40a334.7 334.7 0 0 0-22 106l-2 36m453-18-1 40-3 24-3 22c-2 22-8 43-18 63-14 28-31 54-53 76l-20 19c-18 17-41 28-65 35-9 3-18 4-28 6l-30 4h-10c-9 0-17-1-26-3l-25-4a164.5 164.5 0 0 1-75-34 279 279 0 0 1-84-116c-5-12-8-24-10-37l-4-33c-1.7-16.6-3-33.3-4-50a532 532 0 0 1 8-90c3-17 8-33 14-49l15-41c5-12 11-23 18-34l27-36c20.4-25.2 48-43.6 79-53l24-8c12-4 24-5 36-4h16c14-1 27 0 40 5l40 14a174.5 174.5 0 0 1 57 43 454.3 454.3 0 0 1 47 72l17 45a274 274 0 0 1 19 88l2 36"/>
    <path d="M301.5 536.5h-1l-1 5h1l1-5m93 1-1 3c0 1-1 3 1 3s1-6 0-6m-114-73 1-4v-2l-1-1v7m-8-49c0 2 7 5 9 3l-3-4c-1-2-6 0-6 1m32 106c0-3 0-3-3-5-1 0-2 0-1 1l3 9 1-5m18-156c0 2 5 8 7 12l2 5c1 2 1 1 1 0l-6-16c-1-1-3-3-4-1m133 120 1-1 12-3 3-1v-2l-10 1-7 5 1 1m-173-47v-3c0-2 0-2-2-2l-2 1 2 14h1l1-10m113 85-1-12h-1c-2 0-2 0-2 2v5l3 9 1 1v-5m-44-120c.2 6.8 1.6 13.6 4 20l1 1 6-14-10-7h-1m35-20 1 8 1 1 1-1c4-3 9-5 14-6l10-1 13-3c4-1 4-3 0-2l-15 2c-8 1-15 2-23 0l-2 2m-8 71 4-4 4-5 8-11 1-3v-3l-7-6c-2-1-4 0-5 2l-1 3-3 9-5 17v1c0 1 1 3 4 0m-37-44v4l1 8c0 1 0 2 2 2l6 3s2 1 1-1v-2c-3-7-4-14-5-21l-2-17c-2-8-5-15-9-22 0-1-1-2-2-1h-4l-1 2c2 5 5 9 6 14 4 10 6 20 7 31m-20 12h10c3 0 4-1 4-4v-1c.9-9.3.6-18.8-1-28l-1-1-1 1v4c-2 7-5 13-13 16l-6 2-13 1h-5l-2 1 1 2 12 6 15 1m50-35-2-15-2-3-6-3a42.4 42.4 0 0 0-21-4l-1 1 1 2 5 11 5 16 2 5 12 9h2c3-6 5-13 5-20m-67 63 1 7c1 7 4 13 9 19l3 3c3 1 5 1 6-1l10-7c5-4 8-10 9-16 1-3 1-3-2-5-4-2-9-4-14-4l-18-2c-2 0-3 1-4 3v3m-15-5-1-7c0-2-1-3-3-3-1 0-2 0-1 1 0 5 0 10-2 14v15c-1 4 0 7 1 10l1 3-2-2-1-2-1-1v1l-1 6-1 4s0 1 0 0v-16l-1-6 2-6v-5l-1-2-2-12v-2c0-2-1-3-3-3l-3 2v9l3 13c1 10 1 19-4 27v2c-1 1-1 2 1 2l6 3c4 2 9 3 13 3h12l2-1v-3l-8-11c-3-5-5-11-5-16l-1-17m135 1 1-4c0-2-1-2-2-2l-14 2-5 7c-3 7-7 12-12 17l-5 5c-5 5-7 12-7 19l1 3 2 1 1-1 12-5 13-1 18-2c3 0 7-1 10-3l3-2c1-1 0-2-1-3l-6-5c-6-8-9-17-9-26m-144 168-6 2h1c6 4 13 9 20 12a137.3 137.3 0 0 0 44 17h15l18-5c15-5 41-20 42-21v-1c-1 0-16-3-24-2l-18 4-22 5c-7 2-14 2-22 1l-17-5c-9-4-19-6-31-7m-35-21v1l21 17h12c8-1 16 0 24 2l17 3c10 3 21 3 31 2l29-5 14-2c8 0 16 1 24 4l5-1 21-16 1-2c1 0 1 0 0 0h-1l-30 6c-10 1-19 1-28-1l-15-5-11-1-8 1c-8 2-15 1-22-1l-8-2-9-1-16 1-21 2c-8 1-15 0-23-1l-7-1m268-154v-24c-1-4-3-7-7-8-5-2-9-4-12-8a32.5 32.5 0 0 0-4-5c-1-1-3-1-3 1l-1 3c-2 6-6 12-9 17-6 7-12 12-20 14l-11 3-12 5c-3 1-5 5-5 9l1 7c2 6 5 12 9 16 3 3 7 5 11 6h9l15-1c10 0 19 6 23 15a29.9 29.9 0 0 1-6-4h-4l-5 3-9 8-1 1v2l1 1c4 2 8 3 13 1l11-3 8-5c2-2 3-4 3-7l3-12 2-35m-239 148h9c4 0 7-1 11-3l12-9c2-2 3-4 3-7l1-5 2-11 3-5 2-6c1-9-5-16-11-20h-1l-1 9v2l-3 12-1 5 2 6h-1l-2-5-1 6v4c-1 1-1-3-1-4v-13c-1-4 2-7 3-9l1-4-3-13-2-2-6-2c-1 0-2 0-1 1l2 7c2 7 3 13 1 19l-1 11 1 6-1 1v-1c-2-5-2-10-1-15 2-5 1-10-1-15l-1-5-2-8c0-2 0-2-2-2l-14-7-5-3-3-2h-7c-4 3-7 4-11 5-9.1 2.3-18.6 3-28 2-10-2-19-6-27-11l-2-1v2l7 20c5 13 11 25 17 36l5 9c5 7 11 13 18 17l6 4c11 3 23 4 34 4m151-85-11 2-7 3c-1 0-2 1-2 3l1 8c1 5 0 9-2 14l-1 3c-2 2-2 5-2 8l2 6v11c0 1 0 1 0 0l-3-12v-10l2-4 2-12-1-7v-3c0-3 0-3-3-2h-2c-2 1-2 2-2 3l1 6c1 4 1 8-1 12v11l-1 6 1 6v4l-1-3-1-3h-1v1l-3 10h-1l1-5 2-7v-5c-1-3-1-6 1-9 1-3 0-5-1-7l-2-4-2-7 1-5-1-1-9 2c-4 2-7 5-9 9l-2 9c-1 8-1 16 1 24 3 10 7 18 14 24l10 11 3 1 10-1a402 402 0 0 0 53-12c3-1 6-3 8-6l10-13c7-10 12-21 17-31l5-13 3-9c1-1 0-1-1-1l-15 2c-7 1-13-1-18-6l-2-2c-2-1-4-1-4 1v6l1 6 1 12-3 10-1 2h-1l1-5c3-6 3-13 0-19l-1-10c0-2 0-2-2-2s-3 1-3 3v3l2 7c1 6 1 12-1 18l-2 12h-1v-12l2-7-1-9c-1-5-2-9-1-13l-1-1-26-1m-246-61 3 35c1 6 4 11 9 15 4 3 9 5 14 6 13 3 26 2 38-3l11-8c4-4 6-9 6-15v-12h1l1 3 3 9 1-2v-9l-1-9c-.8-7-.4-14 1-21l-1-3-2-1h-2l-3 3-3 8-3 7-1-1c0-5 1-11 3-16 3-8 9-14 18-17 3-2 7-3 11-3h15l11-1 7-1c5-1 8-5 9-9 3-9 1-16-6-23l-9-5c-6-2-11-3-17-2-6 0-11 1-16 4 0 1-2 1-1-1 4-3 8-4 12-5 8-2 15-2 22 0l3 1 1-1c-2-2-17-8-27-6-6 1-11 3-16 7l-7 6c-9 8-20 11-32 11h-11c-8.6.1-17 3-24 8-5 5-10 10-13 15l-2 5c-2 8-3 15-3 23v8m163 149 8-1h3c0-2-7-7-9-10-9-9-12-20-10-33 1-6 3-11 6-16l6-11a55 55 0 0 0 7-23h1l1 8-4 15-5 11-5 12c-2 12-1 23 6 33 3.8 5.1 8.2 9.8 13 14h2l16 3 10 1v-1l-9-10-5-5c-5-5-8-11-10-17-3-9-3-18-2-27l4-12c3-6 8-10 14-11l8-2c5 0 11-2 17-4l7-3 12-2 28-2c8 0 15-2 22-7l10-7v-2c-3-1-5-2-8 1-4 3-8 5-13 6l-10 1h-2l-2-1 1-2 3-4-1-1-5-1c-2 0-3 0-4 2-3 3-6 4-10 6l-18 4-15 1-12 2-6 3c-2 1-3 0-4-2l-1-10c1-8 3-15 9-21l5-5 8-10c2-2 7-9 7-11s-6-7-9-3l-3 5-3 5-5 8c-3 4-7 6-13 6l-3 2-6 8-2 2c-1 1-1 0-1-1l2-3c4-7 7-15 8-23l3-13c4-12 11-20 22-26l16-7 14-4a49.7 49.7 0 0 0 19-9v-1l-8-4c-1-1-3 0-4 1-4 4-9 7-15 7l-11 2-8 1c-4 0-8 2-11 4-1 1-2 3-3 2-2-1-2-2-2-4l-2-14-5-4h-3v2l1 3c2 7 2 15-1 22l-5 12-6 10-6 15v4l-1 3h-2v-12l-1-2-2-1-18-4h-22c-9-1-16-5-20-12-2-2-3-3-5-3l-4 1v1l1 3c2 2 1 4-2 4h-4c-2-1-4-1-5-3-3-1-3-1-6 1v1c-2 1-2 1 0 2 5 4 12 7 19 8l12 3 7 3 11 3h10c8 1 15 3 21 8 5 3 8 9 10 14 0 1 0 2-1 1l-3-3-4-4h-1v2c-1 7-5 12-10 17l-5 3-6 6-2 1-3 1-2-1-9-8c-4-4-7-9-8-14l-1-12v-5c0-5 0-5-4-6-3-2-4-1-3 2v13c-1 7 1 14 4 20l4 5 6 10c2 3 3 5-3 7h-2l-4 1a41.5 41.5 0 0 1-28-7c-5-2-4-2-7 1l-2 3v1l14 7 10 4 19 6c6 2 11 6 14 12l3 10v11l-2 5c-3 6-4 11-5 17-1 4-3 9-7 12l-4 4c-1 1 0 1 1 1l15 2c7 2 15 3 23 3m38-295-9 1-17 5c-4 2-4 3-1 5 5 4 9 8 12 13l3 5v3c-1 1-2-1-3-1l-3-4-9-9-13-7-21-6c-13-1-24 3-33 12l-8 11-13 16c-6 7-7 14-6 23 0 1 1 2 3 1l3-2c5-3 10-6 16-7 12-4 24-3 34 6h2c2 2 4 3 7 2l5-2a53 53 0 0 1 43 6l8 6c6 4 12 6 19 6l15-1 13-1c9-1 17 1 23 7 4 4 7 8 9 13 1 2 0 3-2-1l-7-7h-2l-1 1c-6 5-13 8-20 11l-8 2c-6 2-12 3-17 6a46 46 0 0 0-14 9c-1 1 0 3 1 3l13 7 2 2c4 3 10 4 15 4 11-1 21-5 29-12l8-7 4-4c1 1-1 4-2 5l-7 10 1 1c8-3 15-8 21-15 6-10 11-21 11-33 1-8-1-16-6-23l-4-5a67.1 67.1 0 0 0-40-16l-10-1c-3 0-2-1 0-2l13-1 3-1-1-2-6-6-8-8a63 63 0 0 0-45-18m3-5 10 1 11 2c11 3 20 8 29 16l7 7c7 9 15 15 25 20 13 6 20 17 24 31v17c0 3 0 4 3 5l7 6 5 3 6 3h1l-1-10a482.7 482.7 0 0 0-34-99l-17-30-9-12a577.7 577.7 0 0 0-23-24l-34-21a258 258 0 0 0-37-14c-7-2-13-2-19 0l-9 3a280.4 280.4 0 0 0-46 21l-17 11-8 7c-9 9-18 19-24 30l-16 29c-7 13-14 26-19 40l-8 28c-3 9-6 19-7 28l-2 8 1 2 1-1 5-6c8-9 18-14 30-15l12-1c6 0 12-1 18-4 4-1 5-2 4-7-3-10-2-19 4-28l4-5c4.8-6 9-12.4 13-19 6-7 13-12 21-15 14-5 27-4 40 0l10 3h2l6-3c10-5 20-7 31-7m-212 129c.4-15.8 2.4-31.6 6-47l8-33c8-26 20-51 37-73l16-20 10-12c12-13.9 26.2-25.7 42-35 17-8.5 35.2-14.2 54-17h4a126 126 0 0 1 48 14c7 3 14 6 20 11 9.4 8 18.4 16.3 27 25l15 18a256.5 256.5 0 0 1 53 103l7 30c3.4 28.6 3.4 57.4 0 86a214.4 214.4 0 0 1-18 59l-11 25a252.4 252.4 0 0 1-52 63c-14 9-29 18-44 24-11 5-23 9-35 11-9 1-17 1-25-1a165.5 165.5 0 0 1-66-27 144.6 144.6 0 0 1-45-41c-8-10-14-20-19-31l-16-34a313.5 313.5 0 0 1-16-97"/>
    <path d="m386.5 358.5-7-4c-6-3-13-5-20-4h-12c-20 0-27-5-27-5-6-3-4-5 0-4s15 3 23 3h11l11 1c7 1 13 4 18 8 11 8 4 5 3 5m5-57c9 0 15 3 22 8l3 4 2 3-2 2-3-2-4-2c-6-4-13-6-20-7-9-1-12-5 2-6m29 116 12-1 4-1 2 1v3c-1 2-3 3-5 3-2 2-5 2-8 2l-12-3c-1 0-4-2-3-3l4-1h6m-185-25-4 1-6 1c-7 2-14 6-20 11l-6 4c-1 1-3 4-5 4s0-5 1-6c6-9 14-16 25-18 3-1 6-2 9-1l5 1c1 0 3 2 1 3m-17 98c-6 0-15-3-17-4l-4-4v-3l4 1 11 3h14l7-1h5v2l-3 2c-5 2-11 4-17 4m222-50c1-2 2-3 4-3 1 0 2 1 2 3v1c-2 5-1 10 1 14l4 6 2 5-1 1-3-1c-5-3-9-7-10-13-3-6-1-11 1-13M253.7 550.3l2.9 3 2.8-3-2.8-2.9-3 3Zm-6-19.2c0 .4-.2 6.8-.1 13.3-6.8.5-5.7-13.3-5.3-15 .2-1.5-4.4 1.6-6.6 3.7.7 1.3 1.7 1 2.9.5-.4 6.2 3.9 11.8 9 11.7.2 6.4.9 12.6 2.7 13 .2.1.4-6.5.6-13.7 12.2-3.8 7.6-18.4 7.6-18.4-.2-.8-2.1.3-6 4 1.6 1.6 2.4.6 3.6.2 1 2 1.4 10.5-5.2 13.1l.3-18c0-.2-.2-.3-.4-.3-1.8.2-5 3.4-7.5 6.1 1.4 2.4 3 .4 4.5-.2"/>
  </g>
</symbol></svg>
