<svg xmlns='http://www.w3.org/2000/svg' viewBox='0 0 696 830' fill='none'><symbol id='GMAC_Outline'>
  <g fill="#A7BFB9">
    <path d="m569 441.2-1-30a1055 1055 0 0 0-8-64c-3-15-8-30-13-44l-18-47c-5-12-11-24-18-35l-12-17-20-27c-14-15-30-27-49-34-18-6.3-36.3-11.3-55-15l-27-2h-4l-15 1-15 2c-12 2-23 5-34 9-9 2-17 5-25 9-7 2-13 6-19 10-9 7-17 15-24 23l-27 36c-9 14-17 29-23 44l-14 38a366.7 366.7 0 0 0-24 169l2 18 7 31a230.8 230.8 0 0 0 59 113l30 29 9 8c17 13 36 24 58 29l30 7 8 1 13 1h18l13-2 19-4 27-7c20-7 37-18 52-32l24-22a239.5 239.5 0 0 0 63-106l8-33c4-17 6-36 5-57m-451-19c.8-42.8 7.8-85.3 21-126l17-43 15-30 31-41c13-16 29-28 47-38 12-6 24-11 37-15l21-7 18-2 19 1h5l20-1 21 3c15 5 30 10 44 17a173.5 173.5 0 0 1 59 45l26 34c8 11 14 23 19 36l16 40c5 15 10 30 13 45l4 26c4 25.8 5 52 3 78l-1 19-2 17-2 18a215.4 215.4 0 0 1-28 89c-17 31-39.7 58.5-67 81-18 16-40 26-63 32l-25 5-21 3c-10 1-20 2-30 1l-31-5c-8-1-17-2-25-5-25-7-47-18-66-36l-25-26c-11-11-19-23-27-35-11-16-19-33-26-50-5-13-8-26-10-39a1554 1554 0 0 1-6-61l-1-18v-12"/>
    <path d="M209 305.2v-1l-5 10v2h4l2-2-1-9m24-32 1-1v-9s-2-1-3 1l-5 9h7m266 101c0 2 1 2 2 2 2 0 2 0 2-2l1-5v-2l-5-13v20m-18-10h-3l-1 1c1 4 2 7 5 10l4 1c1 0 2 0 1-1l-1-8c-1-3-1-3-3-3h-2m-143-15-1 1c1 5 3 8 6 11l4 1 1-1-2-9c0-4-7-3-8-3m-135-21c-4 0-4 0-3 4l5 7 3 1c2 0 2 0 2-2l-2-6c0-4 0-4-5-4m172 23h-4l-2 2v10l4-2c2-2 4-4 4-7 2-4 2-4-2-3m-144-11 4-1 4-6 1-5h-6c-2 0-2 1-3 2v10m248 15 5-1c3 0 4-1 4-4l-1-6 1-7c0-2-2-3-3-3h-8l-2 1c-3 6-4 12-2 18l2 2h4m-145-31-1 2v13l3 1h6c4 0 6-1 6-6v-13c0-1 0-2-2-2-1 0-10-2-12 5m34 5v7c0 2 0 3 2 4h10c1 0 2 0 2-2 2-6 1-12-3-18l-1-1h-9l-2 2 1 8m-138-22v6c0 3 0 4 3 4l2 1h7l2-2c2-7 1-13-3-19l-1-1h-8c-2 0-3 0-3 2l1 9m-12-17c-1-1-5 5-4 10v10c-1 7-4 10-10 10-2 0-3 1-3 3l-1 1 1 2h6c2 0 4 1 5 3l1 4 1 5c0 2 0 2 2 2s2 0 2-2v-48m278 55c0-8-4-18-5-19h-8l-3 1-1 2c-1 2 0 2 1 2h6c2 0 4 1 5 3l1 9c0 3 0 6-2 8-1 3-3 5-6 5l-5 1h-3l-1 1v3c1 2 1 2 3 2h4c5 0 7 1 9 7v6c1 2 4 2 4-1l1-30m-136 15v2h3l1-3 2-7c0-2 2-3 4-3h6c2-.7 3.3-2 4-4l-1-2-7-1c-4 0-7-3-8-7-2-5-1-11 1-16l3-2 6-1 2-1-1-1-2-1-13 1v46m-4-46-2-1h-11c-5-1-5 3-3 3l7 1 4 2c2 6 3 12 0 18-1 3-4 5-7 5l-6 1c-3 0-3 0-2 3v1l2 1 7 1c2 0 4 1 5 3l1 4 1 5 1 2h1c2 0 2-1 2-2v-47m-134 1v25h4v-4l2-7c1-2 2-3 4-3h6c2 0 3.3-1 4-3v-1l-1-2h-7c-4-1-7-3-8-8-2-4-1-8 0-12 1-6 2-6 8-6h4s2 0 0-2c-1-2-3-3-5-3h-8c-4 0-4 0-3 4v22m19-63c-1-1-2 0-3 1l-4 7c-1 1 0 1 1 1l29 4c9 1 17 2 26 5l37 8 33 3 10 1 17 5c13 4 26 6 39 7l21 2 10 1 15 3 8 2-3-7-1-2-3-1-7-1-52-8c-22-3.3-43.7-8.4-65-15-15-3-31-4-46-6-7-1-14-1-20-3l-28-5-14-2m105-64-10 2-13 5a277 277 0 0 0-41 18l-14 10c-10 7-18 16-26 25v2h3l30 4 21 2 37 7 42 8c16 2 32 5 47 9 16.8 4 33.8 7 51 9l-1-3-11-18c-9-16.1-20.8-30.3-35-42l-15-11-24-13c-11-5-23-8-34-12l-7-2m-168 243c1 15 1 27 3 40 2 12 5 25 9 36 9 22 20.1 43 33 63 9 10 20 21 31 30l30 20c16 10 33 17 52 21l4 1c6 1 13 0 19-2l2-2 11-20c7-8 14-15 22-21l12-8 6-6 3-3-1-3-3-3-5-3-6-3-4-4c-2-2-3-5-2-8l4-5 6-5 10-7 9-7 5-4c3-3 5-6 5-10v-2c0-5 2-8 5-11 1-1 1 0 1 1-3 4-3 8 0 12v2c3 4 1 8-2 11l-7 5-9 4-9 4-11 7-5 5c-1 3-1 5 2 7l4 3 7 3 7 4c5 4 5 10 2 14l-5 7-7 4-9 5a80.2 80.2 0 0 0-32 35c-1 0 0 1 0 0h2l12-4a238.6 238.6 0 0 0 97-76 283 283 0 0 0 31-75 177 177 0 0 0 5-41c0-2 0-4-2-1-4 5-8 9-13 12l-3 3c-4 2-8 6-10 11l-2 5c-4 6-10 11-17 14l-7 1v-2l15-15-5-3c-8-4-16-9-22-15l-12-11-12-13-3-2c-1-2-2-2-3 0l-6 7c-9 12-19 23-30 33-11 9-22 18-34 23-8 3-14 8-18 14l-4 5h-1v-1l1-4 7-10 7-7-1-2-9-2c-10-4-19-9-27-17l-10-12-4-6-3-3c-1-2-2-2-3 0l-3 2a117.8 117.8 0 0 1-35 37h-1v1l2 2 13 12c6.3 5.4 12 11.4 17 18l-1 1-3-3-15-12-15-10c-10-7-19-16-26-26l-10-15-18-32-3-5c-2-3-4-2-4-1v1l-1 17m333-22-2-22-2-7-2-1h-3l-17-1-4-1-9-7c-4-5-6-10-5-17l3-13 7-14c1-2 3-3 5-3l6-1c1 0 2 0 1-1l-7-16c0-1-1-2-3-2h-12l-21-2-11-3-23-5-22-3-13-1c-1 0-2 0-2 2v6c0 2-1 3-3 3h-8c-5 1-4 0-4 6l12 2c4 0 4 0 6 4l1 2a62 62 0 0 1 9 28c0 4-1 8-4 12-5 5-10 10-19 10h-19l-4-2c-4-2-7-4-10-8-4-4-5-9-5-14l3-12c1-5 4-11 7-15 2-4 4-6 8-5h9l2-2v-6c0-2 1-2 3-3h8c5 0 4 0 4-5v-1c0-2 0-2-2-3l-15-3-15-4-21-4c-9-2-17-4-26-4l-21-3-23-5-8-1c-1-1-1 0-1 1v7c0 3-1 4-4 4h-8c-3 0-4 1-5 4v4c-1 1 0 1 1 1h11c2 0 4 1 5 3l3 4c4.6 8 7.3 16.8 8 26 0 6-2 11-6 15l-4 4c-4 3-7 4-12 5h-2c-6 1-12 0-18-1-4-1-6-3-9-5s-3-2-4 2l-7 26c-3 9-6 19-7 29l-1 10 1 2 6 4 11 12 14 20 12 19 10 15 2 2h2l11-9 18-18 7-6c6-5 9-5 16-1l8 6 12 11c10 8 20 14 31 21h3c24-17 47-36 68-56l2-2c2-2 4-2 7-2l3 1 13 8 12 11c8.7 8.7 18.1 16.7 28 24l9-7 7-6 17-18 2-4-1-21m8 9c0 36.6-6.8 72.9-20 107l-11 24c-10 16.3-21 32-33 47-7 6-14 13-22 18l-38 22c-12 5-24 8-37 11l-19 1c-6 0-11-2-16-3-11-2-22-7-33-12l-29-16c-10-7-20-15-28-24a230.4 230.4 0 0 1-26-36c-8-16-15-31-21-47-9-22.6-14-46.6-15-71v-18c0-19 2-38 7-57 2-10 4-21 8-31 9-27 21-52 39-74l13-15 6-8a160.2 160.2 0 0 1 45-39c16.4-8 34-13.3 52-16h8c15.3 1.6 30.3 6 44 13 8 3 16 7 22 13 9.7 8.3 19 17 28 26l13 14c25.4 29.8 43.5 65 53 103l7 29 3 23v16"/>
    <path d="m287 541.2-1 6v5c-1 4 1 8 5 10l6 2 8 3 6 2c4 2 6 4 6 10l-1 8c-1 6 0 10 4 15 2 4 5 7 9 10l4 4-5-3a137 137 0 0 1-14-10c-5-6-7-12-4-19l2-6v-4c-1-3-2-4-5-5l-9-2-8-1-6-3c-4-3-6-7-5-12l2-5 1-3c2-4 2-9 0-13l-1-2v-1c4 4 6 10 6 14m-41-14-3-6-1-4c0-2 1-2 3-2l3 2 3 3 12 9c0 2-13 2-17-2m171-82c0 4-2 8-5 11l-10 6h-2c-1 0-2-1-1-2l2-3 10-14 5-5 1 1v6M242.5 423l2.8 2.8 2.8-2.8-2.8-2.8-2.8 2.8Zm-5.9-19.1c0 .4-.3 6.8-.2 13.3-6.8.5-5.7-13.3-5.3-15 .2-1.4-4.4 1.7-6.6 3.8.7 1.3 1.7 1 3 .5-.5 6.2 3.8 11.8 9 11.7.1 6.4.7 12.5 2.6 13 .2 0 .4-6.5.6-13.7 12.2-3.8 7.6-18.3 7.6-18.3-.2-.8-2 .3-6 3.9 1.6 1.7 2.3.7 3.6.3 1 1.9 1.4 10.5-5.2 13l.3-18-.4-.2c-1.8.2-5 3.4-7.5 6 1.4 2.3 3.1.3 4.5-.3"/>
  </g>
</symbol></svg>
