<svg xmlns='http://www.w3.org/2000/svg' viewBox='0 0 696 830' fill='none'><symbol id='GREC_Outline'>
  <g fill="#9BADFA">
    <path d="M124 439.3a193 193 0 0 0 3 48l7 31a247 247 0 0 0 82 134l20 17c17 13 36 22 56 27l28 6 16 2c11.3 1 22.7.7 34-1l27-6c25-5 47-16 66-32a406.1 406.1 0 0 0 68-76c11-19 20-38 26-59 6.1-26 10.4-52.4 13-79-.9-49.8-8.6-99.3-23-147l-18-49a580.8 580.8 0 0 0-62-89 103.2 103.2 0 0 0-41-24l-35-10-24-5-19-1h-3l-15 1-15 2-25 6c-11 3-22 6-33 11a138 138 0 0 0-46 36 527 527 0 0 0-46 73l-15 39a602.8 602.8 0 0 0-19 70l-4 25-2 25-1 25m-6-13 2-33 1-22c3-26 9-51 18-75l19-47a421.6 421.6 0 0 1 45-68 180.3 180.3 0 0 1 83-52l22-7 16-2c8.3-.3 16.7 0 25 1l22-1c21.2 4.4 42 10.8 62 19a174 174 0 0 1 59 44l28 37c7 11 13 22 18 34l16 42c12.3 30.6 19 63 20 96 1.4 21.3 1.4 42.7 0 64l-2 21-2 18c-1 11-2 22-5 33-2 12-6 24-11 36a281.8 281.8 0 0 1-78 102 151.3 151.3 0 0 1-79 37l-27 5c-12 2-24 2-36 1l-25-4-23-4c-27-6-51-18-72-37a494 494 0 0 1-51-59c-10-14-18-30-25-45-6-15-10-29-12-45l-3-24c-1.4-11.7-2.8-23.3-4-35l-1-30"/>
    <path d="M453 558.3c0 2 2 2 4 3l9 6c3 1 3 1 5-1 3-4 9-12 9-14-1-1-5 1-7 1-6 2-20 3-20 5m-178-17c0 2 5 5 9 5l8 1c4 0 9 0 13 2 2 1 5 1 7 3l11 5c3 2 7 3 11 1 5-1 9-3 12-6 0 0 2-2-1-2l-11-4-17-5c-11-4-22-9-31-16h-2l-9 16m81 12c-2 0-4 7-5 9l-2 4 1 2 5 2h10c6-1 13-1 19 1 7 2 14 2 21 2l8-1 16 1 6 1c4 1 14-2 14-3 1-1-4-10-5-12-2-1-25 2-36 3l-21-2-31-7m44 27c-1 0-4 45-3 46l36-24c0-1-14 1-14-2-1-2 3-2 5-2h12c2 0 4 0 5-2l23-22 1-2-2-1c-1.7-.5-3.4-1.2-5-2l-2-1c0-1-1-2-2-1l2 5c1 3 0 5-2 6l-3 1c-5 2-10 3-15 2l-16-1h-20m-60-94 23 9c10 3 20 7 30 8l9 2 25-2 28-6 10-3c1-1-7-6-11-7l-9-3h-4l-16 3c-10 2-19 2-29 1l-12-4-6-2-10-3c-3-1-5-2-8-1l-3 1-17 7m95-254-9-7-15-11c-9-6-19-11-29-15h-2l-4 14 1 11c1 8 5 14 12 18l14 6 8 1 9-2c4-1 7-4 9-6l6-9m-127 271 3 1 14 6c18.3 5.8 36.6 11.5 55 17a192 192 0 0 0 33 3l18-2h8l23-4c11-1 22-4 33-8l-8-7-13-10h-4l-15 4-33 6c-14 2-27 1-40-2l-26-8-25-9-19 11-4 2m-22 15c0 2 7 4 9 5l17 7 21 9 26 8 36 6h35l12-1 13-1c9-1 18-4 27-7l2-2 2-2 8-15-1-2-2 1-19 5-22 4-14 2c-20.7 1.6-41.5.6-62-3l-41-11c-9-3-19-6-27-11l-4-2h-3l-9 6-4 4m210-179-1 3-7 13-9 18a85 85 0 0 1-37 38c-12 7-24 11-37 16h-2l7-3 25-15a144 144 0 0 0 47-52l8-15v-1l-3 2-15 15-8 9c-6 5-12 9-20 12l-18 4-20 2c-10 1-19 3-27 7l-28 14 3 1 13-1 10 1-3 2-11 2-17 1c-10 1-20 0-30-2-8-3-17-5-27-6h-16l-20 2h-1l1 1c8 6 16 11 25 14l27 9c8 2 28 5 28 7h-7l-14-2c-8 0-17-2-25-4-14-3-26-9-37-18a310.4 310.4 0 0 0-32-24l-13-11c-5-4-10-8-15-10l-2-1-1 1-4 16a315 315 0 0 0-2 77v2l5 1h6l41 2 11-1c17-1.7 34-3.7 51-6l40-8 20-2c13 0 25 0 37 2 39.2 5 79 2 117-9l3-2v-4a377 377 0 0 0-4-52l-11-43-1-2m-249 254 2 2 7 6c10 8 22 15 34 22a156.5 156.5 0 0 0 52 19c5 1 11 0 16-1l3-1c9-2 28-9 28-10 1-1 5-49 4-50l-9-2c-6-2-12-3-19-2-3.7-.1-7.4-.4-11-1l-7-1c-4-3-5-7-3-11l1-3v-1l-3 2c-6 4-12 4-19 1l-8-4c-7-4-14-6-22-6l-7-1c-5 0-9-3-13-7v-6l1-1c3-5 5-10 6-16v-1l4-6c5-5 11-9 17-12l22-12a233.5 233.5 0 0 1 37-16c6-2 12-2 18 0l14 3 7 1c1 0 2-3 1-4l-1-1c-2-3-2-7 1-9s6-1 9 1c2 3 2 6-1 8l-2 2 1 4 5-1 17-1c10-1 19 2 28 6s17 9 24 14l16 12 2 1c1 0 6-13 5-14s-11-1-12-3 3-2 4-2h9l3-10 2-11 1-10c0-4 2-10 1-11-2-1-8 3-11 3-23.7 7-48.4 9.7-73 8l-39-6a155.5 155.5 0 0 0-54 1c-9 1-19 4-28 7a216.2 216.2 0 0 1-70 11h-16c-13 0-38-3-39-2s2 19 4 19l16 1 7 2c0 2-22 2-22 3l1 4 5 14a430.7 430.7 0 0 0 32 57l8 9 7 7 5 2c6-1 12 0 18 1l8 2c0 2-4 1-6 1h-18m-59-230 2 1c6 1 11 3 16 7l12 8 13 9c5 4 11 7 17 9l5 2 11-1h15c7-1 14 0 21 1l20 5 19 2 6-1 25-14c12-6 25-11 39-13l23-4c13-3 25-9 35-18l27-21 1-1-2-3c-4-12-9-24-15-35l-18-32c-5-9-12-18-19-26l-2-1-1 1-7 6-10 6-7 4c-5 2-10 1-14-1l-4-2a191 191 0 0 1-20-17c-4-4-6-9-6-15 0-7 1-13 4-20v-3l-21-7c-5-2-10-2-15 0l-13 5-2 1h1l27 6c1 0 2 1-2 1l-13-2c-7 0-14 0-20-2h-4l-11 5-18 9a997.1 997.1 0 0 0-26 20c-10 9-19 19-25 31l-12 20-15 30c-7 16-12 33-17 50m-17 58c.5-17.1 2.5-34.2 6-51l8-32c8-28 21-54 39-77l19-23 2-2c13.6-16.4 30.2-30 49-40 15-7 30.8-12 47-15h10l33 9 5 2c12 4 22 10 32 18l11 10 9 10 18 21c20 23 35 49 45 78l8 29a625 625 0 0 1 8 49 693 693 0 0 1-2 52c-3.6 23-10 45.5-19 67l-9 20c-6 14-15 27-25 38a169.9 169.9 0 0 1-71 52c-11 6-23 9-35 11-6 2-12 2-19 1l-10-1c-16-3-31-9-46-17l-22-13c-11-7-21-15-29-25a469 469 0 0 1-28-39c-7-14-14-28-19-43a216 216 0 0 1-14-65l-1-24"/>
    <path d="m362 320.3 8-16c3-7 6-13 10-18l6-11 4-7 2-3 1-1v2l-10 23-9 15-12 19c0 1-1 4-2 3l2-6m93 9-1-3-10-19c-4-8-8-15-10-23l-4-10-2-6c-1-4 1-1 1-1l13 26 10 24 3 10v2m-95-92c1 1-2 3-4 4l-6 5-15 9-24 13-6 3h-2l2-2 6-3 14-9 20-13 11-6 4-1m-126 273c1 2-2 2-3 2-5 1-10 2-15 1l-3-1-1-2 1-2 4-1 14 1 3 2m104 93c0 2-3 2-4 2h-18l-4-2 4-2h18c2 0 4 0 4 2m36 20c0 2-2 3-4 3a57.3 57.3 0 0 1-16 1c-2 0-2-1-2-2l1-2 2-1h16l3 1m-121-78-3 1-18 1-3-1-1-2 2-2h1l18 1s4 0 4 2m38-62-15 1-2-1v-3h1l5-1h13c7 0 6 4-2 4m192-13-4-1-1-1 1-2h4c5-.2 10-.2 15 0 7 3 5 7-15 4m-149 116c0-1 6-3 13-3 8 0 13 1 13 2l-6 2h-16l-4-1m41-127c0 2-2 2-3 2l-14 2h-3l-1-2 1-1 4-1 11-1 5 1m-98 100-4 2c-4 1-8 2-12 1l-1-1c-1 0-2-1-1-2l3-1h12l3 1m17-61-3 2-9 1-2-1c-1-1-2-2-1-3l2-1 11 1 2 1M206.1 418c0 .4-.3 6.8-.2 13.3-6.8.5-5.7-13.3-5.3-15 .2-1.4-4.4 1.7-6.6 3.8.7 1.3 1.7 1 3 .5-.5 6.2 3.8 11.8 9 11.7.1 6.4.7 12.5 2.6 13 .2 0 .4-6.5.6-13.7 12.2-3.8 7.6-18.3 7.6-18.3-.2-.8-2 .4-6 3.9 1.6 1.7 2.3.7 3.6.3 1 1.9 1.4 10.5-5.2 13l.3-18-.4-.2c-1.8.2-5 3.4-7.5 6 1.4 2.3 3.2.3 4.5-.3m6 19 2.7 2.9 2.8-2.8-2.8-2.8-2.8 2.8Z"/>
  </g>
</symbol></svg>
