<svg xmlns='http://www.w3.org/2000/svg' viewBox='0 0 696 830' fill='none'><symbol id='GUIC_Outline'>
  <g fill="#A7BFB9">
    <path d="m124 440.2 1 26 2 18c1 11 4 21 6 32a230 230 0 0 0 59 111l22 23 14 12c17 15 37 26 59 32l26 5 15 3c9 1 18 2 27 1l16-2 16-3 24-6c21-7 40-18 57-33l24-23c29-27.8 50.3-62.6 62-101a365.5 365.5 0 0 0 14-90c-1.5-32.5-4.5-64.8-9-97-3-16-8-31-13-45l-17-45c-5-14-12-27-20-39-13-18.4-27-36.1-42-53-10-9-21-16-33-20-24.5-9.4-50-15.8-76-19-12-1.4-24-1.1-36 1-10 1-19 4-28 6l-32 10c-10 4-20 9-28 15-9 7-17 14-23 23l-28 38c-8 12-14 24-19 38l-16 41a311.5 311.5 0 0 0-23 116l-1 25m451-14-2 30-1 17-2 19-7 42c-3 10-6 20-11 29a281.3 281.3 0 0 1-77 103c-24 21-54.2 34-86 37l-21 4-13 1-7 1-17-1-41-7c-27.5-5.1-53-17.6-74-36a286.3 286.3 0 0 1-79-109c-6-14-10-28-12-43l-4-33-2-27v-1l-1-33 1-23c1.7-34.1 8.4-67.8 20-100l17-43c4-11 10-21 16-31 9-14 19-26 29-39 13-16 30-29 49-39 12-6 24-11 37-15l22-7c9-2 18-2 28-2h19c11 0 22 0 32 3 18 5 35 11 52 20 16 8 30 18 43 31l14 16c14.3 18.5 27 38.3 38 59l22 57c10 27.3 15.3 56 16 85l2 35"/>
    <path d="M367 316.2c10-1 18 3 25 9l8 9 6 9 6 8c4 5 9 6 15 5l9-3 17-6c7-3 14-2 21 2l8 4c8 5 15 12 20 19l2 2h1v-1l-5-16c-6-26-16-50-29-73l-10-17a146.7 146.7 0 0 0-36-42l-16-12-21-11-36-13c-4-2-9-2-14 0l-36 13c-12.8 7.8-25.5 15.8-38 24-7 4-13 10-18 16v1l1 1 4-1c5 0 10 1 14 4 5 2 8 5 12 9 13 12 21 27 27 44 6 18 8 37 10 57l2 23h1l1-2a147.3 147.3 0 0 1 19-46l10-10 12-6h8m144 111-1-21v-4c0-2-1-5-3-7-3-7-8-14-13-20a427.3 427.3 0 0 0-20-18c-8-5-17-6-27-3-9 3-18 8-26 14l-11 10-12 9-7 3-6 1-1-1 2-1 10-7 22-17v-1h-1c-7-2-11-6-15-11l-4-6-5-8-6-7c-3-3-6-6-9-7-6-3-13-4-19-1-6 2-11 6-14 11l-7 11c-8 14-12 29-15 45l-3 29-1 6c0 1-1 2-3 2-1 1-2 0-3-2l-1-2-1-6-1-19-3-24-1-17-5-28c-2-15-7-30-12-44l-10-18c-5-6-11-11-18-14-4-2-8-3-13-2-6 1-12 3-15 9-6 11-13 21-18 32-10 17-17 34-22 53l-12 52a263 263 0 0 0 0 72c2 13 5 25 10 37a376.9 376.9 0 0 0 32 61 239.8 239.8 0 0 0 110 72l13 1 12-1c15-4 29-10 42-17l17-11c17-11 32-24 46-39 7-8 13-16 18-25l13-27c7-16 12-34 15-52l2-42m8-6c-.2 35.3-6.9 70.2-20 103l-10 21c-6 14-14 27-24 38l-13 14c-6 6-12 12-19 16-11 8-23 15-36 21s-26 10-40 13c-9 1-17 1-25-1-19-3-36-10-52-19l-17-10c-12-7-23-16-32-27a483.3 483.3 0 0 1-27-38c-6-14-13-27-18-42a214.8 214.8 0 0 1-14-69l-1-28 1-16c0-9 2-17 4-26 3-12 5-24 9-35a236.6 236.6 0 0 1 50-88c7.2-8.8 14.6-17.4 22-26l21-18a192.8 192.8 0 0 1 65-23h4c38 4.4 72.8 23.4 97 53l18 22c19 22 32 47 41 74 5.1 16.8 9.5 33.8 13 51 2 10 3 21 3 32v8"/>
    <path d="m367 514.2-17-1h-42l-12-1-23-2a137.6 137.6 0 0 1-58-19l-17-10-1-1c-1-1-2-1-2-3h4c5.6 1.7 11 4 16 7 11 7 24 11 37 13l16 3 33 4h77l32-2 15-2c13-3 25-5 38-10l13-6 13-6 6-1v1l-3 2-19 12a136.7 136.7 0 0 1-58 18l-24 3-24 1"/>
    <path d="m375 489.2 13-1c11-3 21-4 32-5l19-2h10v1l-5 2c-7 2-13 3-20 3l-20 2-11 1-17 2a75 75 0 0 1-24 3l-13-1c-7 1-14 1-21-1l-11-2-6-1-22-2-13-1c-7 0-13-1-20-3l-5-2 1-1h9l23 2c9 1 19 2 28 5l13 1h41c3 0 4-1 6-3 11-15 24-28 38-41a3402 3402 0 0 1 58-50l10-5c2-2 5-2 8-3 5 0 9 1 13 5 4 5 6 11 4 17-1 7-7 12-14 11l-5-1c-2-2-3-5-2-7 1-3 2-5 4-6h5l-1 1-3 1-2 4c0 2 1 3 3 3h3c4-1 6-3 7-6 1-4 0-8-2-12-2-5-6-6-12-5l-7 3-12 10-12 12c-18 19-37 37-57 54l-17 15-2 1v1h1l4 1h3"/>
    <path d="M384 501.2c-9-1-18 0-27 1h-26c-7-1-14-2-21-1l-27-2-30-6a103.2 103.2 0 0 1-35-12l-1-2v-1h4l6 3c11.2 4.4 23 7 35 8l28 3 21 3 27 3h14c9 0 18-1 26-3l28-4 13-1 19-2c8-1 16-4 23-7l7-2 4-1h2l-1 2-5 3c-9 5-17 8-26 10l-17 2-21 4c-7 2-14 2-20 2m28 46c-8 1-16-1-24-3l-18-6c-10-2-20-2-30 1l-16 6-26 8c-21 4-40 0-58-11l-8-6-1-1v-1l3 2c9 5 17 9 27 11h24c10-1 19-4 28-7l21-6c11-2 23-2 35 1 11.5 2.5 22.8 5.5 34 9h9c13-1 25-4 37-10l8-4h3v1l-3 2c-7 6-15 10-23 12-7 2-14 3-22 2m-20 37-23-2-15-3c-8-2-16-1-24 1l-12 4c-16 5-33 4-49-2l-7-3v-1s0-1 0 0l5 1 19 4c10 1 19 0 29-2l16-5c8-2 18-3 27-2 15 .8 30 1 45 1 14-1.4 27.7-4.5 41-9h4v1l-1 1-5 3-28 11-22 2m-65 31-13-2-10-3-3-2v-1l5-1c14 2 27 1 41-1l17-2c8 0 15 2 23 4l5 3v2l-2-1-4-1-16-2c-6-1-11 0-17 2l-15 4-11 1M218 435l2.7 2.8 2.8-2.8-2.8-2.8-2.8 2.8Zm-6-19.1c0 .4-.3 6.8-.2 13.3-6.8.5-5.7-13.3-5.3-15 .2-1.4-4.4 1.7-6.6 3.8.7 1.3 1.7 1 3 .5-.5 6.2 3.8 11.8 9 11.7.1 6.4.7 12.5 2.6 13 .2 0 .4-6.5.6-13.7 12.2-3.8 7.6-18.3 7.6-18.3-.2-.8-2 .3-6 3.9 1.6 1.7 2.3.7 3.6.3 1 1.9 1.4 10.5-5.2 13l.3-18-.4-.2c-1.8.2-5 3.4-7.5 6 1.4 2.3 3.1.3 4.5-.3"/>
  </g>
</symbol></svg>
