<svg xmlns='http://www.w3.org/2000/svg' viewBox='0 0 696 830' fill='none'><symbol id='Heilongtan_Outline'>
  <g fill="#00807D">
    <path d="M124.5 437.5a279 279 0 0 0 117 237c15 10 32 18 50 22l27 6 10 2c9 1 19 2 29 1l16-2 19-4 24-7c20-7 38-18 54-32a560.2 560.2 0 0 0 41-42c23-29 40-61 48-98 4-17 9-34 10-51a250 250 0 0 0-1-54c-2-22.4-4.7-44.8-8-67-3-14-7-29-12-42l-17-46c-6-15-13-28-22-41-13-18.4-27-36.1-42-53a105.1 105.1 0 0 0-38-23l-30-9c-11-3-22-5-34-6l-10-1h-22a213.5 213.5 0 0 0-44 9c-11 3-22 6-32 11-10 4-20 10-28 17a619.4 619.4 0 0 0-45 56c-9 12-15 25-20 38l-14 37a324.5 324.5 0 0 0-25 121l-1 21m452-10-1 30-2 18-2 18c-1 11-2 22-5 33-2 13-6 26-12 38a283.5 283.5 0 0 1-78 104 153.7 153.7 0 0 1-85 37l-22 4-14 1h-3l-5 1-21-2-31-5a164.5 164.5 0 0 1-75-34 275.1 275.1 0 0 1-85-118c-5-13-8-25-10-38l-4-33-2-27v-2l-1-35 1-24c2.5-33.8 9.6-67.1 21-99l15-38c5-13 11-25 19-36 8-13 17-25 27-37 14-16 30-29 49-39 11-6 23-11 35-15l21-6c10-3 21-3 32-3h17c13-1 26 0 39 5l37 13c22.4 9.7 42.5 24 59 42 17.5 21.8 33 45.2 46 70l21 54a246.1 246.1 0 0 1 17 78l2 45"/>
    <path d="M342.5 319.5v1l2 4h1v-1l-3-4m0 20-2-4h-1v1c-1 1 1 3 2 4l1-1m-1-14 2 5 1-1v-3l-2-2h-1v1m-2 21v-1c2-2 1-4-1-5h-1v1l2 5m2-17h-1v4l1 2h2c1-3 0-3-2-6m5-11-1-2-2-3h-1l1 4 2 3 1-1v-1m-11 36-2-4c-2 1-2 3-1 4l1 3 2-3m1-9h-1c-1 1-2 3 0 5 0 0 0 2 1 1l2-1-1-3-1-2m-6 17 1-1v-4l-1-2h-1l-1 2v1l2 3v1m-1 1-1-3h-3c-2 2-1 2 0 4l1 2h1l2-2v-1m-116 69-2 1-8 2v1h1a95 95 0 0 0 13-2l1-1h-1l-4-1Zm109-68a75.5 75.5 0 0 0-4 4l5 2 2-1v-2l-2-3h-1m183 35 6 8v-5c0-4-1-4-4-4l-2 1Zm-273 30v-1l-8-2-4-1-5 5 8 2h1l8-3Zm185-35h-2v1l4 3 2 1 9 1 4 1-2-4-1-1-3-1-11-1m-4 5 3-1c1-1-2-1-2-2l-2-1-4-2-9-1-4-1-1 1 6 5 1 1 12 1Zm81 0h-6l1 1 4 4c1 1 1 2 3 2h10v-1l-4-6h-8m-9 6h6l-3-3-1-2-4-1h-11l4 5 2 1h7m-17-1 5 1c1 0 2-1 1-2l-3-2c-1-2-3-3-6-3l-6-1h-5v1l4 4 4 2h6l6 1m-38-9h-3v1l2 2 6 3 10 1 5-1-5-4-3-2h-12m-95-95 1 6c0 2 0 4 2 5l3 3c1 1 3-1 4-1l4-2v-1l-12-10h-2m-117 116c-2-1-2 0-2 1l-1 4 1 2c4 1 8 1 11 3 2 0 4 0 6-2l2-2v-2l-13-3-4-1m169-20h3v-1l-5-4-3-2-18-4-1 1h1l7 8 3 1 13 1m-148 18-1-1-26-10 3 9 2 2 19 5h1l2-5Zm128-19 2-1-1-1-8-8-4-1-20-5h-1v1l15 13 3 1 14 1Zm-169-15v1l1 2 7 10 4 5c1 2 4 2 6 3l20 9c5 3 4 2 5-2v-3l-27-15-14-9-2-1m-4-6 4 4 12 8 30 18c3 1 2 1 4-1l1-1v-1l-39-27-9-6h-3v6Zm143 20h9v-1l-15-14-4-2-28-8-5-1 4 4 28 22h11m-110 62h9l1-1v-12l1-7v-13l-1 1c-4 3-8 6-13 7l-5 2-2 2 1 11v10h9m248-36h1v-11c0-2 0-3-2-3h-9l-1 1v45c0 6-1 5 5 4l5-1c2 0 2-1 2-2v-17l-1-12v-4m-161-26h9c1 0 0 0 0 0l-3-3-28-22-6-3-19-4-3-1 2 3c12 10 26 19 37 29l3 1h8m131-1-1-1-18-5c-11-2-21-6-30-13h-9l-9 2h-34l3 1 23 5a404 404 0 0 0 75 11Zm-240-36c-4 2-7 4-9 7v2l1 1 44 29 6 4h2l8-3v-1l-6-4-29-23-15-11-1-1h-1Zm4-1v1l32 25 21 14 10-1h1l-1-1-3-2-22-20-16-13c-3-3-6-4-10-4l-12 1Zm271 38 3-1h-3l-6-2c-9-1-17-3-24-7l-21-9h-1l-22-10-13-7-10-9-10-15-10-19v-1l-1-1v3l4 15 4 9 16 20c6 6 12 11 20 14 8 2 15 6 22 9l15 5 12 2 14 3 11 1m-191 0h11c1 0 0 0 0 0l-1-2-39-31-5-2-15-3h-10 1l4 4 43 35 11-1m-75 42c0-1 0-2-2-2l-9 2-17 2-11 1-2 1v3l1 16 1 4 1 1 2-1c11.4-3.4 23-5.4 35-6 1 0 2-1 1-2v-19Zm292-8v-19l-2-2h-1l-17-1h-6l-1 2 1 17v10c-1 4-2 9-1 13v5h6c7-2.6 14-5.2 21-8v-17m-143-141 1 6c1 10 3 20 7 30 4 9 9 17 17 23l12 10c5 4 11 6 17 9l1-1-10-15-3-5-9-15-6-21-2-3-17-14-7-4v-1l-1 1m-1 86 16-1 9-2v-2l-8-9c-4-3-6-7-8-11-2-5-5-9-6-14a83 83 0 0 1-6-23h-4l-1 3 1 14-1 13v26l-1 2-2-2 1-13-1-12v-27c0-1 0-2-2-1l-5 2c-2 0-2 1-2 2l-3 19c-2 9-7 18-13 26l-4 4 1 2 39 4m56 63v8l1 15 2 1h1c12 0 25 0 37-2 2-1 2-1 2-3v-28l-1-10v-10l-1-1-8-1-30-3h-2l-1 1v2l1 18-1 13Zm-76 23 48 1h23c2 0 2 0 2-2l1-8-1-16-1-19 1-9-1-4-1-1h-3l-20-1-21-1-35-1h-20c-16 0-32-1-48 1l-11 1c-3 1-5 1-7 3l-4 4c-2 3-3 7-3 10l1 25-1 11-1 2 1 2h3l16 1 14 1h69m-170-38v12c0 2 1 2 2 2 6-2 11-3 16-6l6-3 4-3c3-3 3-6 2-9l-2-6-5-9-6-10-4-10c-2-8 0-16 7-22 3-2 7-5 11-6 6-3 12-4 18-4 19 .7 37.8 3.8 56 9l25 8c2 1 3 1 4-1 5-4 9-9 13-15l6-13 6-21 1-13v-4l1-1 2 2 15 11h5l2-1 2-2v-11l1-9c1-3 1-4 4-2l24 20c2 1 3 3 4 6 2 8 6 17 11 25l3 6c2 6 6 10 10 14l14 12 6 5c4 4 9 6 14 8l32 8 19 4 2-1-2-8a1597 1597 0 0 0-14-52c-5-14-12-28-19-41-8.1-13.8-16.4-27.5-25-41l-11-13a2373 2373 0 0 0-49-34l-37-14h-11l-5 1-13 4a255 255 0 0 0-39 18c-10.8 7.9-21.4 15.9-32 24l-11 13-8 11-20 36c-8 15-15 31-20 48-4.5 17.6-8.8 35.3-13 53l-2 25m58 41c-18-.3-36 2.4-53 8-2 1-2 1-2 3 2 13 6 27 11 39a442.4 442.4 0 0 0 31 57 228.4 228.4 0 0 0 101 69l11 3 7 1c6 0 11 0 16-2 15-3 30-9 44-18l16-10a223.2 223.2 0 0 0 58-55 270.5 270.5 0 0 0 17-33l6-16c6-14.7 9.7-30.2 11-46l1-8-2-1h-1l-19 6c-20.2 5.6-41 8.7-62 9h-43l-35-1-31-1h-9l-45-3-28-1m283-41a286 286 0 0 1-20 103l-12 26c-14.1 23.8-32 45-53 63-13 9-27 17-42 24l-31 10h-2l-13 1c-7 0-13 0-19-2-14-3-28-8-42-15l-24-14c-11-7-20-15-29-25a279 279 0 0 1-26-36c-8-15-15-30-21-46a211 211 0 0 1-14-68l-1-30 1-16 4-25 9-33a235 235 0 0 1 53-94l11-13a239 239 0 0 1 29-27c6-4 12-8 18-10a195.9 195.9 0 0 1 48-14h4c12 1 23 4 34 8l12 5c8 3 15 7 22 13 9.3 8 18.3 16.4 27 25l13 16a245.4 245.4 0 0 1 60 126c3 13 4 26 4 40v8"/>
    <path d="M283.5 560.5h1l1-3 4-7v-1l-20-6h-1v1l6 5 9 11m53-12 8-1v-1c-4-3-5-6-5-10l-1-1-6 4a94.6 94.6 0 0 1-16 7h2l17 2m65-49v-1l1-3-3 2-1 1c-3 3-4 6-4 9l1 4c0 5-1 8-5 12l-2 2-2 4c-2 3-1 6 1 8h1l1-1c5-5 9-12 10-19v-9l2-9m-74 58-1 1 7 14c2 3 5 6 9 8l6 3c5 3 10 8 13 13l2 2c-1-6-3-10-6-14-7-9-15-17-24-23l-5-3-1-1m67-14h-4l-1 1 1 1c6 6 13 11 22 14l7 3 11 4 3 1-2-3-7-9c-6-5-13-9-20-11l-10-1m-98 48v-2l-1-3c-6-14-14-27-26-38-2-3-6-5-9-7l-4-2h-1v2l5 7 4 4c3 2 5 5 7 9l2 4c2 4 5 8 9 11l3 2c4.5 3.9 8.2 8.7 11 14v-1m60-35v1l4 6c3 5 7 8 13 10l12 1h5c5 0 9 2 12 6l3 3 5 5c0-3-2-5-3-6l-2-3c-4-5-9-8-13-11-11-6-23-11-36-12m92-30c-7 0-14 0-21 2l-22 7-9 4-1 1h5l19-2c10-1 21-2 31-6 4.9-1.8 9.9-3.2 15-4h1l-1-1-17-1m-92-26v-2h-1l-1 4c-1 6-5 11-11 14l-4 1-5 2c-5 2-10 5-14 10a105 105 0 0 0-10 14l1 1 7-2 16-8c5-2 9-6 12-10l8-13 2-11m-20-7h-3c-9 0-16 4-20 12l-2 5c-3 3-5 5-9 6l-6 1-8 3a54.5 54.5 0 0 0-16 13v1l16-2c8-1 15-5 21-10l4-5 6-8a66.4 66.4 0 0 1 17-16m-19 82-1-5-4-11-1-2-7-5-6-1-2 1-2 1-5 5-2 3c0 2 0 4 2 6l8 19 1 2 1 1 6-1 6-3c3-1 5-4 5-7l1-3m62-51-1-5c-1-2-2-4-5-5l-8-2-3-1c-3 1-6 2-8 5l-7 12c-2 3-2 5-2 8l2 6 5 5h4l6-1 3-1 10-10c2-3 4-7 4-11m-77 67h-3v8l-2 1-2-2c-4-5-10-9-15-13s-9-10-10-16l-2-6c-1-4-3-7-5-9l-5-4c-3-3-6-7-6-12l-2-2-10-4a102 102 0 0 1-18-10v-1h2l6 3a254 254 0 0 0 34 12c1 1 2 0 3-1 4-8 11-13 19-17l8-4c5-2 10-6 14-11l5-6c5-4 10-7 17-7h9l2 1-1 2-2 2c-6 3-10 7-13 12l-4 7-6 9a32.2 32.2 0 0 1-25 14h-10l-7 1h-1 1l11 3 17 3h2c2 1 2 0 3-1l3-5 7-10c5-6 11-11 18-15l5-3c5-3 8-6 10-10l3-4 1-3c2-1 3-1 4 1l1 6c1 3 0 6-1 9v1h1l5-2c6-3 11 0 14 4 2 3 4 7 4 11 1 5-1 10-4 15l-4 4-1 1 1 1 11-5c-2-4-2-7-1-11l2-5c2-3 3-6 3-10l1-7c1-4 4-7 7-9l8-5h1v1l-1 2-1 12v3c0 7-2 14-5 19l-3 6 6-2c7-4 15-7 23-9a83.7 83.7 0 0 1 49 3l1 1v2h-2l-14 4-7 3c-10 4-21 7-32 7h-5v1l1 1a52.2 52.2 0 0 1 22 24l-2 2-1-1-13-3-5-2c-7-1-13-5-18-9l-12-13-2-1-23 7-2 1h1l4 1c15 3 27 9 38 19 4 4 7 7 9 12l2 6v2l-1 1-3-1-6-4-12-6-18-6c-6-2-11-5-15-10l-9-9-4-1h-6l-1 1 5 3a65.2 65.2 0 0 1 22 41c0 1 1 3-1 3-1 1-1 0-2-1l-6-4-9-6c-7-4-13-10-17-18l-6-15c-1-3-2-4-5-4l-4-1h-1v1l1 1c3 4 5 8 4 12l-1 11-5 9c-1 2-3 3-6 3h-5m44-351-12-4-1 1v6l1 1 12-4m-27 16v-1h-1c-5 2.3-9.5 5-14 8h1l5 4h1l8-10v-1m-31 33c0-3-1-5-3-6h-1v1c-1 6-1 12 3 17l3 7 1 1v-1c1-3 1-5-1-7l-1-2c-2-2-2-5-1-7v-3m20-37h1l1-1v-1l-4-3c-4-2-7-3-12-3h-4l-9-1-3-1 2 2 4 2c8 3 15 5 24 6m-43 33c6 1 11-2 16-5v-1c-7-1-13-2-19 0l-9 2h-2c0 2 1 2 2 2l12 2m88-47h3c0-2-2-2-3-3l-4-1-11-4-9-4c-4 0-7-1-11-3h-1l1 1c7 6 16 11 25 13l10 1m-80 29c7.3-.2 14.4-1.9 21-5h1l-1-1-4-2-7-1c-3 0-5 1-8 3l-3 2c-3 2-7 3-10 1l-3-1h-4l4 2 4 1 10 1m-27 46h1c6-2 11-6 16-10l13-14 3-5c-2 0-3 2-4 3-6.6 4.4-13 9-19 14l-10 12m79-59h-1l-8 9c-3 4-4 9-5 14l1 11 2 4v1-3c-1-4 0-8 2-11l2-3c4-3 6-8 6-13l1-9Zm24-7v-1h-1l-8 7c-4 3-6 7-7 12l-1 4c-1 7-2 13-5 19l1 1c5-3 8-7 7-13v-3c0-3 1-6 4-8l3-3c4-4 6-10 7-15m-25 0 4-1 2-3 1-4c1-2 0-4-2-5l-12-9h-2l-2 2-3 4v5l2 4 7 6 5 1m-32 34c0 2 1 5 3 7 1 2 3 3 5 2l4-1c4-1 5-3 5-6l1-9-2-5-3-2c-2-2-4-2-7 0l-2 2-2 2-2 10m-33-21c3 1 7 0 11-1l11-2h9l9 2c2 0 5-1 6-3h-1l-4-1c-9-1-16-5-22-11l-3-4v-1l2-1 2 1h11c4 0 8 1 11 3l10 7c2 2 4 2 6 1l1-1v-1c-5-1-8-6-9-10l-1-7c0-2 1-4 3-5l3-2v-1l-2-3 1-2 2 1 12 2c4 0 8 2 12 6 5 5 6 4 11 5l8 4 3 1 10-1h8v1l-6 1-19 4h-2l-1 2v4c-1 4-2 8-5 12l-3 5c-2 2-3 5-4 9l-1 6c-1 6-6 10-12 12h-1v-1l1-2c2-4 2-8 2-12v-4l1-7c0-6 3-12 8-15l8-5 1-1v-1h-1l-18 9c0 10-1 18-6 26-2 4-4 8-3 13l-1 3c0 1-1 2-2 1l-4-5-1-3h-1l-2 3c-2 3-5 3-8 2-6-3-10-8-9-15v-3h-1l-3 6c3 1 4 4 4 7v2l2 6 1 2c2 5 1 10-2 14h-2v-2l-3-6c-3-5-5-10-5-16v-1h-1l-2 3-5 7a56.3 56.3 0 0 1-29 19h-4v-1l1-1 7-8 2-3c4-5 8-9 14-13l3-2v-1h-2c-6 0-12-2-18-6h-1l1-1 1-1 9-2c8-3 15-2 23 0l2 1h2l10-11v-1h-1l-12 4c-6 0-13 0-19-2l-6-3-3-2v-2l1-1h5m97 151-2 1-5 5a145.6 145.6 0 0 0-22 34h1l5-5 13-17 8-12 3-5c1-2-1-2-1-1Zm53 9h-1l-3 2-17 22c-1 1-2 3-1 5 0 1 2 0 4-3 5-5 9-10 12-16l6-9v-1Zm-108 15h1l4-4c7-7.3 13.8-15 20-23-9.7 7.3-18.1 16-25 26v1m-5-25-2 1c-6 5-10 10-13 16l-1 1 1 1 3-2a653 653 0 0 0 12-17Zm99 3h-1c-4 3-7 7-9 12v1h1l1-1c3.6-3.6 6.6-7.6 9-12h-1Zm57-91.6c0 .4-.2 6.8-.1 13.3-6.8.5-5.7-13.3-5.3-15 .2-1.4-4.4 1.7-6.6 3.8.7 1.3 1.7 1 2.9.5-.5 6.2 3.9 11.8 9 11.7.2 6.4.9 12.5 2.7 13 .2.1.5-6.4.6-13.7 12.2-3.8 7.5-18.3 7.5-18.3-.2-.8-2 .3-6 3.9 1.6 1.7 2.3.7 3.6.3 1 1.9 1.4 10.5-5.1 13.1l.3-18c0-.2-.2-.3-.4-.3-1.8.2-5 3.4-7.5 6.1 1.5 2.2 3.2.2 4.5-.4m5.9 19.1 2.8 2.8 2.8-2.8-2.8-2.8-2.8 2.8Z"/>
  </g>
</symbol></svg>
