<svg xmlns='http://www.w3.org/2000/svg' viewBox='0 0 696 830' fill='none'><symbol id='KIGC_Outline'>
  <g fill="#9BADFA">
    <path d="M124.9 436.5v10c-1 13 1 26 3 39l8 37c9 39 28 73 54 103l29 29 10 9c19 15 39 26 62 32l27 6 11 2c15.3 1.6 30.8 1 46-2l9-2c9-2 17-3 25-6 22-6 42-17 59-32l26-25a235.4 235.4 0 0 0 71-142 225 225 0 0 0 4-68l-4-52a335.7 335.7 0 0 0-20-77l-14-37-14-30c-11-18-23-35-37-51-13-16-30-29-51-36a468.6 468.6 0 0 0-57-15l-16-1c-8-1-16-1-24 0l-14 2c-18 3-36 8-53 14-11 4-21 9-30 16s-17 15-24 23l-28 39c-8 12-14 24-19 37l-14 38-7 19c-9.8 28.3-15.2 58-16 88l-2 33m451-15-2 34-2 25-3 24c-2 22-8 44-18 64a285.1 285.1 0 0 1-74 98c-19 16-40 27-64 33l-27 6-17 2-14 2h-9l-24-2-27-5a160 160 0 0 1-79-38 274 274 0 0 1-82-117l-8-34-5-41c-6-58.3.2-117.2 18-173l18-48a467.4 467.4 0 0 1 44-68c15-17 33-30 53-41l34-14 22-6c9-2 18-2 27-2h21c10-1 21 0 32 3l45 16a168.6 168.6 0 0 1 64 52c7 10 15 19 21 30 7 10 13 21 18 32l19 50 12 45 5 43 2 30"/>
    <path d="m308.9 302.5-10-1-3-2c0-2 2-2 3-3 14.6-10.2 26.3-24 34-40h-1l-2 2-10 4h-4c-1 0-2-1-1-2l1-3 6-14 13-30 4-8 5-6h5l4 5 4 6 4 9c5 13 10 27 17 39l1 2-2 2h-4l-10-4-3-2v-1 3a103.2 103.2 0 0 0 37 40l-1 2-2 1c-6 1-12 2-18 0l-2-1 1 2 10 14 7 9h3l2-1 19-11 9-5c4-3 8-3 12 0l16 12c4 3 3 3 7 0l9-8 5-2c3-2 5-1 7 1l2 3 6 9 2 2v-1l-1-3-14-30-18-31-10-14-21-21a1647 1647 0 0 0-36-22c-12-6-25-10-38-14-5-2-10-2-14 0l-28 10c-10 4-20 8-29 14l-16 11-8 7c-10 9-18 19-24 30l-17 29-14 29-3 8 2-1 8-12 2-2c2-3 4-4 7-2l4 2 5 4 7 5c2 2 2 2 3 0 6-3 11-8 17-12l3-2c2-2 5-2 7-1l5 3 9 6 19 10h3l8-10 9-12 1-2h-2l-8 1m203 128v-7a229 229 0 0 0-5-46l-10-36-3-6a124 124 0 0 1-14-19c-2-3-2-3-4-1l-3 5-10 10c-6 6-14 10-22 13l-3 1h-5c0-2 2-3 3-4l2-2 6-5 8-9a142 142 0 0 1-17-14h-5l-5 6c-7 7-15 12-25 14l-1 2 5 5 3 2-1 3h-5c-4 1-8 0-11-1h-2l1 1 11 13c6 6 12 11 19 15l5 4 3 2c2 1 1 3-1 4l-3 1c-6 1-12 0-18-2h-1v1c5.6 8.5 12.4 16.2 20 23l4 4 2 2c1 2 0 3-1 4h-7l-3-1h-1l1 1 12 10 10 8 4 3c1 1 0 2-1 3h-5c-5 1-10 0-15-2l-4-2 2 4 1 1c8 12 18 22 29 32l5 5 2 3c-1 2-3 2-4 2-6 1-12 0-18-3l-4-2-1-1-1 1 1 2c8 17 18 32 32 45l3 4 2 3c0 1 0 2-2 2h-5a55.2 55.2 0 0 1-28-14l-2-2h-1v1l1 4 6 9 3 4v5l-4 1-1-1-8-3-4-2c0 2 2 3 3 4l8 8 2 3 2 4-4 1-17 1c-8 0-17-2-24-7h-1v1l10 11 5 6 2 2c0 2 0 3-2 3l-4 1-7-2c-7-1-14-5-20-9l-6-6c-5-4-5-4-6 2l-3 27c0 18 6 35 16 50h3l12-5 25-16c18-11 33-24 47-39l17-25 14-28c7-16 12-33 14-50 2-13 2-27 2-40m-242 124h-11l-4-1-1-3 3-4 9-9 3-4-4 2-8 3-2 1c-3 0-4-2-3-5l2-4 6-9 2-5v-1h-1l-5 4c-6 5-13 9-20 11l-10 1c-2 0-3-1-2-3l3-3a173.5 173.5 0 0 0 35-49v-1h-1l-5 2c-6 3-12 4-18 3l-4-1 2-4 5-5a240.2 240.2 0 0 0 32-37l-2 1c-3 2-7 3-11 3h-11c-1-1-2-2-1-3l3-3 8-6 14-10 2-2-1-1-4 1h-6c-1-1-2-2-1-4l3-3 12-12a107 107 0 0 0 11-15l-3 1c-6 2-12 2-18 0-1 0-3 0-3-2l2-3 4-3c10-5 18-12 25-21l8-9v-1h-3c-3 1-6 2-10 1h-3c-2-1-2-2-1-3l2-3 4-4c2-1 1-1 0-2-8-1-14-5-20-10l-8-8-3-2-3-1-3 3-15 12v2l11 9 5 5c2 1 3 2 3 4h-5l-2-1c-7-2-14-5-19-10-7-5-12-11-17-17-2-3-2-3-4 0l-15 21-4 6-8 30a165.5 165.5 0 0 0-6 48c-1 17 0 33 2 49 2 12 4 24 8 35a358.9 358.9 0 0 0 34 65 230.2 230.2 0 0 0 88 63c2 1 2 1 3-1l6-11c4-6 6-12 8-19 3-16 2-31-1-47-1-5-1-5-5-1l-10 8c-7 5-15 8-23 8h-5c-1 0-2-1-2-3l2-3 5-5 9-11 1-1h-1c-6 3-11 5-17 6l-12 1m84 26 1-15 4-11 3-5h6l2 2 14 10a58.1 58.1 0 0 0 18 7l1-1h-1l-4-3c-4-4-8-8-10-13l-1-6 1-3 5 2c4 3 9 5 15 6l20 1h5v-1l-3-1c-7-5-13-12-16-21-1-3-2-5-1-8v-2l1-1 3 3c3 4 7 8 11 10l4 2h1l-2-3-5-13 1-4c0-1 1-2 3-1l4 3c6 5 13 10 20 13l7 2h1v-1l-7-5c-10-9-17-20-23-32a55.4 55.4 0 0 1-4-18c0-2 1-2 2-1l4 2c4 2 9 4 13 4l8 1 1-1-1-1h-1l-16-11c-8-7-14-14-19-22l-5-10-1-5 3-1 3 2c5 4 11 6 18 5h1l-1-1h-2c-10-5-17-12-22-22v-3c1-2 2 0 3 0l3 1 6 1h2l-1-1-3-2c-5-3-10-7-14-12a42.2 42.2 0 0 1-10-18v-3h4l1 1c3 1 6 3 10 3h9l1-1h-1l-4-1c-9-3-16-9-22-15-6-7-11-14.7-15-23-1-1 0-2 2-2l3 1 14 2v-1l-3-1-8-5a60.8 60.8 0 0 1-21-32l1-4c1-1 3 0 4 1 5 2 11 2 17 1h2l-1-1-12-6c-12-7-20-18-24-32l-1-6c0-1 0-2 2-3l2 1 2 1a41 41 0 0 0 14 7h1v-1l-2-1-9-12-4-10-7-20-4-9-2-4c-1-2-2-2-3 0l-3 6-4 11-8 22c-3 6-6 12-12 16v1l-1 1h1a34.6 34.6 0 0 0 15-7l2-1h2l1 3-1 5c-4 15-12 25-25 32l-9 5-3 1v1c7 1 13 1 19-1l3-1c1-1 2 0 2 1v4l-2 5c-3 9-8 16-14 22a46 46 0 0 1-16 10v1h4l11-2 3-1c1 0 2 1 1 2v2c-5 8-9 15-15 22-8 7-16 12-26 15h-1v1c7 1 13 0 19-3l4-1c2-1 3 0 3 2l-1 3c-1 5-4 9-6 13-5 6-11 11-18 16l-3 1-1 1h1l10-2 3-1v3c-4.4 11-13 19.6-24 24 7 1 13-1 18-5l3-2 3 1-1 5-5 10c-9 13.5-21 24.8-35 33h-1l-1 1 1 1h2l15-3 7-4c3-1 4-1 4 2l-1 3-1 8c-6 16-17 30-31 41l-2 2v1h1l2-1c6-1 11-4 16-7l10-7 3-3c2-1 3 0 3 1l1 5-3 9-3 5v1h1a41.7 41.7 0 0 0 14-11l2-3h2v7c-1 6-4 11-8 15-3 4-7 8-11 10l-1 1h13c10 0 20-2 29-8 1-1 2-2 3-1 2 1 1 2 1 3 0 4-1 7-3 10-3 5-7 8-11 11-1 0-2 0-1 1h2l6-1c7-3 14-7 20-12l6-5h6l4 6 3 11c1 8 2 16 1 24-1 13-6 25-14 36l-5 7-2 2 1 1h1l18 5h16l17-4 4-2-3-3-11-18c-5-11-7-22-7-34m166-159c-.5 34.6-7.3 68.8-20 101l-10 22a164.1 164.1 0 0 1-49 64l-4 3c-14 10-29 19-45 26-11 5-23 8-35 10-9 2-18 1-28-1-14-3-28-8-41-15l-25-14c-11-7-21-16-30-26a469 469 0 0 1-28-39c-7-14-14-29-19-44-8-21.8-12.4-44.8-13-68l-1-26c0-17 2-34 7-50 2-10 4-21 8-30a233.9 233.9 0 0 1 49-87l14-16a149 149 0 0 1 75-47c6-1 13-3 20-3l9 1c10 1 19 3 28 7l11 4c9 4 17 9 25 15 7.2 6.1 14.2 12.4 21 19l24 28c18 23 32 48 41 75 5 16.8 9.4 33.8 13 51l3 33v7"/>
    <path d="M415.9 223.5c0 2-2 4-4 4s-3-2-3-4c0-3 2-4 4-4s3 2 3 4m-148 24c0 2-1 3-3 3s-4-1-4-3 2-4 3-4c2 0 4 2 4 4m148 50c0 2-1 4-3 4-2-1-4-2-4-4s2-3 4-3 3 1 3 3m46 4c-2 0-3-1-3-3 0-1 1-3 3-3l3 3c0 2-2 3-3 3m-165-28c0 2-1 3-3 3l-3-2c0-2 1-3 3-4l3 3m137 2c0 2-1 3-3 3s-3-1-3-3 2-3 3-3c2 0 3 2 3 3m-154 5 2 2c1 2-1 3-2 3s-2-1-2-3l2-2m-42 12c0 2-1 3-2 2-2 0-2-1-2-2s1-2 3-2c1 0 2 1 1 2m164-44-2 2-2-2 2-3c1 0 2 1 2 3m-27-31c1-1 2-2 3-1l1 1c0 2-1 2-2 2l-2-2m-77 9c0-2 1-2 2-2l2 1-2 2-2-1m-83 185.2c0 .4-.2 6.8-.1 13.3-6.8.5-5.7-13.3-5.3-15 .2-1.4-4.4 1.7-6.6 3.8.7 1.3 1.7 1 2.9.5-.4 6.2 3.9 11.8 9 11.7.2 6.4.8 12.5 2.7 13 .2.1.4-6.5.6-13.7 12.2-3.8 7.6-18.3 7.6-18.3-.2-.8-2 .4-6 4 1.6 1.6 2.3.6 3.6.2 1 2 1.4 10.5-5.2 13.1l.3-18c0-.2-.2-.3-.4-.3-1.8.2-5 3.4-7.5 6.1 1.5 2.2 3.2.2 4.5-.4m5.9 19.1 2.8 2.8 2.8-2.8-2.8-2.8-2.8 2.8Z"/>
  </g>
</symbol></svg>
