<svg xmlns='http://www.w3.org/2000/svg' viewBox='0 0 696 830' fill='none'><symbol id='LAKJ_Outline'>
  <g fill="#00807D">
    <path d="m569.2 440.4-1-15c-2.5-24.7-5-49.4-8-74-3-16-7-32-13-47l-19-50-13-26c-10-17-22-33-34-48-15-17-32-30-53-37-9-4-19-6-28-9a219.5 219.5 0 0 0-65-8c-25.2 3-50 8.7-74 17-10 5-21 10-30 18-8 6-15 13-21 21l-29 40c-7 11-13 22-17 34l-16 42-6 17c-7 20-12 40-14 61l-2 25a574.3 574.3 0 0 0 1 85l7 34c9 39 28 74 55 105 11 13 24 25 37 37 17 15 36 26 58 32l42 9 25 1c6 0 12 0 18-2l26-5c28-6 52-18 73-36l25-25a229.1 229.1 0 0 0 62-102l8-32c4-21 7-41 6-62m-451-13c0-21 1-37 3-52 3-31 10-61 22-89l13-33c4-11 10-21 16-31l29-40a158.7 158.7 0 0 1 76-50c10-3 19-7 29-9 10-3 20-3 30-3h19c13-1 26 1 38 5l42 15c23 11 43.2 27.1 59 47a447.4 447.4 0 0 1 43 66l19 50c7 19 11 39 14 59 3.8 30.2 5.1 60.6 4 91l-2 20-3 24c-2 33-13 65-30 94-13 20-27 40-45 57l-15 15c-20 19-44 31-70 37l-30 6a240.6 240.6 0 0 1-36 3c-11 0-22-2-32-4l-27-5c-27-6-50-18-70-37-13-12-26-24-37-39-17-21-31-44-41-70-5-13-9-27-11-41l-5-41c-2-17-2-34-2-45"/>
    <path d="m323.2 417.4-7-1v-1l-1 1-1 1 2 22 1 27c0 7-1 6 6 5 2 0 2 0 2-2v-13l-1-12-1-27m-103 42v7c0 6-1 5 6 6 2 0 2 0 2-2l1-26 1-19 1-8c0-1-1-2-2-1l-4 1c-3 0-3 0-3 3v22c-2 6-2 12-2 17m26-49c0-1 0-2-2-1l-10 5c-1 0-2 1-2 3v7l-1 21-1 19v6c0 2 0 2 2 2l9 1c3 0 3 0 3-3v-8l1-21 1-31m55 51v10l2 2 12-2v-2l-1-19-1-26v-8l-2-2-10-5c-2-1-2-1-2 1v10l1 13 1 28m-17-23 1 17-1 17c1 1 1 2 2 1h9c4 0 4 1 4-5v-1l-1-31-1-24v-4l-1-2-11-8h-1l-1 1 1 9v30m-23 1 1-36v-4l-1-1h-1l-11 8-1 3v17l-2 43v2l1 2 14-1v-33m2 5v2l-1 25c0 2 0 2 3 3h16l2-2v-3l-1-51v-21l-2-3-6-8h-2l-7 8-1 3-1 22v25m82 198 10-1c18-4 34-11 50-20l2-2v-2c-1-3-1-6 1-9v-1l-14 3-12 6-12 7-14 4-9-2c-4-2-5-6-3-10l1-2 2-2-7 1-12 5-21 13-1 1v1l4 1c11.3 4.2 23.1 7.2 35 9m-17-172h9c2 0 3-1 2-3-3.7-17.4-5-35.2-4-53l1-7-2-2h-2l-11-2c-20-5-35-16-47-32-1-2-2-2-2-1-5 7-11 13-17 18-10 8-23 14-36 16l-8 1c-1 0-2 1-1 3v21l-1 16-3 20v3c0 1 0 2 2 2l8 1 1-1v-4l1-12-1-9 1-15 2-12 3-3h1c18-7 32-16 45-29l2-3h3l3 3c13 13 27 23 44 29 3 1 4 2 4 4l2 12c1 4 2 8 1 11v28m184-29v-6c-1-3-2-1-2 0l-4 9a100 100 0 0 1-109 49l-25-4-17 1c-7 1-15 4-21 8l-16 8c-15 8-31 14-47 18a93 93 0 0 1-80-18h-1l1 3 14 32v1l3 2h7c12 1 24 0 35-4l24-7 17-2 2 1-1 2-3 2-2 6c0 3 1 5 4 5h6c3-1 7-2 10-5l13-9 12-8a79 79 0 0 1 34-13l1 1v1l-3 3-4 7c-1 3 0 5 3 6l4 1c6 1 11-1 16-3l15-8 12-7 13-6 10-1 2 1v1l-1 2-3 4c-1 3 1 5 4 6l4 1c4-1 7-2 10-5l8-7 11-10c8-5 16-9 25-11 3-1 4 0 3 3l-1 1c-1 5 1 8 5 10h2l3-12c4-16 6-33 7-49m-265 39c-9 1-19 0-28-2l-12-4c-2-1-4-3-3-6l1-9c-.2-10.7-.5-21.3-1-32h-22c-4 1-4 1-4 5v2l2 33 4 20 2 4c10 7 20 14 32 19 15 7 31 10 48 9 12-1 24-4 36-9l22-12 17-9c15-8 30-10 47-7l25 3a98 98 0 0 0 95-56c4-11 4-8 3-19v-3l-2-1-9 3c-11 5-23 7-35 10-14 4-29 6-43 7l-24 2-36 1-18-2c-5-1-5-2-5 4l2 37c1 3 0 5-3 6l-6 2c-8 3-16 4-24 4a208 208 0 0 1-37-1l-24 1m93-190h8c7 1 13 0 19-2l16-5 17-5c7 0 13 1 19 3l10 8 10 9 2 3h1l1-1c8-7 16-12 26-14h2v-1l-1-3-8-14a149.1 149.1 0 0 0-36-43 2057 2057 0 0 0-37-23l-37-13c-5-2-10-2-15 0l-21 7c-11 4-23 9-33 16a1008 1008 0 0 0-27 19c-9 10-18 19-24 31l-15 25a320.8 320.8 0 0 0-15 32h3l15-2 25 3 16 6c4 1 3 2 8-1l10-8 16-12 18-10c9-3 18-6 27-5m31 134 17-1c32.7-2.5 65.1-7.6 97-15 7-2 15-4 22-8 3-1 3-1 3-4l-3-14-7-29c-5-20-13-40-24-59-1-3-1-3-4-2h-2c-7 2-14 6-21 10-5 4-5 3-1 7 9 10 19 18 29 24l8 5c2 2-1 2-1 2l-5-2-19-8c-8-4-15-10-21-16l-10-10-7-9-8-7c-4-3-8-4-12-4-4-1-8 0-11 1l-12 5-10 6c-7 4-15 6-23 5l-15-1c-8 1-16 3-23 6l-17 10-18 11-1 1v2l3 1c11 4 22 6 34 7l9 1v1h-10c-8 1-17 0-25-1l-24-6-23-7c-11-3-21-4-32-1-6 1-5 0-7 6-5 13-8 26-11 39-3 9-5 18-6 28l-1 22c-1 2 0 2 2 2h23v1c2 0 2-1 2-2v-2l-1-11c0-2 0-2-2-2l-7-1c-2 0 0-1 0-1l6-3 22-8c10-4 20-10 28-17 6-4 12-9 17-15 3-3 4-3 7 0l9 9c13 12 28 21 44 26l14 5 5 2 2 2-2 1h-6c-2 0-2 0-2 2l-1 10c0 3 0 3 3 4l7 1 22 1m-71 148-1 1s-17 3-32 13c-5 4-18 10-18 10l3 2c13 11 28 20 43 28 5 3 3 3 9 0l20-10a63.3 63.3 0 0 1 24-7c1 0 2 1 1 2l-3 4c0 2 1 4 3 4l4 1 7-2 14-5c10-4 28-9 32-9l5 1s2 1 1 2l-1 2-2 2 2 4h3l1-1c19-11 36-26 51-43l2-3c2-2 0-2 0-2l-9-1c-3-1-5-2-6-5 0-2 0-5 2-6 1-2-1-1-1-1l-15 3c-8 2-16 6-24 11-8.5 4.3-17.2 8.3-26 12h-12c-7-3-9-9-6-15 0-1 2-2 1-3l-6 2c-8 2-15 6-21 11l-15 9-12 6-10 2-9-2c-3-3-5-7-3-11l2-4 2-2 1 1-2 5c0 3 1 5 4 6l8 1c6-1 11-3 16-6l15-8a366 366 0 0 1 32-11c1-1 2 0 1 1l-2 5c0 4 1 7 5 7l5 1 14-5 14-7a104.4 104.4 0 0 1 48-12l1 1-1 2-2 2c-2 2-1 4 2 5l3 1h10l3-1 1-3 16-29 7-18 1-3-3-2c-4-3-6-8-4-12 1-3-2-2-3-1l-15 8-12 10-9 8c-3 3-6 5-10 6-4 0-7 1-10-1-5-2-6-6-4-10l2-3c1-1-1-1-1-1-6 0-12 5-10 4l-15 8-13 8-14 5-11 2-7-2c-3-2-4-5-4-8l2-6 4-5c2-1 0-1-1-1s-27 10-53 34l-10 4-9 1c-5-1-8-7-6-12l3-5 2-2s1-1-1-1c-6 0-11 2-17 4l-18 6c-13 4-27 7-41 5h-1c-2 0-2 1-1 2l1 2 11 17 20 20c1 1 5 3 13-1l15-6 14-7 16-3m219-155c0 36.6-6.8 73-20 107l-13 26c-4 9-8 17-14 24a264.6 264.6 0 0 1-35 36c-16 12-33 22-51 29-11 4-22 7-34 9l-19-1c-18-3-35-9-51-18l-22-14c-10-6-20-14-28-23l-11-14c-8-10-14-20-19-30l-16-36a305.5 305.5 0 0 1-11-136c3-14 6-29 11-42 9-29 22-54 41-77l25-30a161.8 161.8 0 0 1 37-30 168.1 168.1 0 0 1 55-16l9 1c8 1 17 3 25 6a483.2 483.2 0 0 1 36 18c11 9 22 18 31 30l19 22c18 22 31 47 40 74l9 35 4 22 1 9 1 19"/>
    <path d="M245.2 491.4c6 0 15 1 22 3l6 2-4 1h-10c-9.4-.4-18.7-1.4-28-3l-1-1 1-1 14-1m115-37c-5 0-9-3-4-4 5 0 20 0 30 2s1 3 0 3l-26-1m11 13h-2l1-1 3-1 15 1 4 1c0 2-2 2-4 2l-17-2m-122 39h-8c-3-1-1-2 0-3 2 0 9-2 13-1l5 1s2 1 0 2l-10 1m-46-26 10 2v2h-4c-7 1-13-1-13-1v-2l7-1m-17-17v-2l2-1h9l2 1-2 2h-11M477.6 383l2.8 2.8 2.8-2.8-2.8-2.8-2.8 2.8Zm-5.9-19c0 .4-.3 6.8-.2 13.3-6.8.5-5.7-13.3-5.3-15 .2-1.4-4.4 1.7-6.6 3.8.7 1.3 1.7 1 3 .5-.6 6.2 3.8 11.8 9 11.7.1 6.4.8 12.5 2.6 13 .2.1.5-6.5.6-13.7 12.2-3.8 7.5-18.3 7.5-18.3-.2-.8-2 .3-6 4 1.6 1.6 2.3.6 3.6.2 1 2 1.4 10.5-5 13.1l.2-18c0-.2-.2-.3-.4-.3-1.8.2-5 3.4-7.5 6.1 1.4 2.1 3.1.1 4.5-.4"/>
  </g>
</symbol></svg>
