<svg xmlns='http://www.w3.org/2000/svg' viewBox='0 0 696 830' fill='none'><symbol id='LJIC_Outline'>
  <g fill="#A7BFB9">
    <path d="M124.4 446.2c-.5 15.4.8 30.9 4 46l7 31a217.7 217.7 0 0 0 32 73c9 14 19 28 32 39l21 21a148.9 148.9 0 0 0 35 26c13 7 27 12 41 15l26 5 4 1 15 1h3l5 1 7-1 12-1 29-6a165.7 165.7 0 0 0 47-19c9-5 19-12 27-20l22-21 11-11 19-25a259.3 259.3 0 0 0 44-123l1-8 1-18v-16l-1-23v-2l-1-15-1-12c-.5-7.1-1.5-14.1-3-21l-4-19c-3-16-9-32-14-47l-14-36c-6-15-12-28-21-41a614.7 614.7 0 0 0-38-50 181.7 181.7 0 0 0-21-16c-7-5-15-8-23-11-19.2-6.6-39-11.6-59-15l-8-1-19-1-19 2a363.8 363.8 0 0 0-64 17c-7 3-14 6-21 11-11 7-20 17-29 27l-24 33c-9 14-17 30-23 46l-10 25a448.7 448.7 0 0 0-19 61l-3 15-2 12-1 10-1 12-1 16v2l-1 20v12m-6-21v-18l2-20 1-11 1-11 2-12 5-26a369.5 369.5 0 0 1 25-71c6-15 14-29 23-43l14-18 16-20a160.7 160.7 0 0 1 62-41l33-11c8-3 16-4 24-4h18l5 1 8-1h10c8 0 16 1 24 4 12 3 23 7 35 12 32 12.8 59.4 34.7 79 63a375 375 0 0 1 32 53l17 43c5 13 9 27 12 42l4 19 2 15 1 10 1 15v2c1.4 24.7 1 49.4-1 74l-2 17-1 10-1 7a256.8 256.8 0 0 1-14 54 322 322 0 0 1-54 82l-19 19a146 146 0 0 1-68 38l-17 4-23 4-15 2h-22l-9-1-17-2-32-6a158 158 0 0 1-81-52l-18-20a288 288 0 0 1-52-100l-3-16-2-14-1-11-1-10-1-7-1-11-1-34"/>
    <path d="m340.4 413.2-3-15-1-1-4 1-1 2 1 11v4l1 1 6-1 1-2Zm-80-1v7c0 1 0 2 2 2l7-1 1-13v-2h-1l-8-1-1 1v7m62-13h-1c-2 0-2 1-2 3l1 11v4l2 2 7-3v-2c-.7-4.3-1-8.6-1-13l-2-2h-4Zm-24 21v1l1 1 6-1 1-2-1-18-2-1h-5l-1 2 1 18Zm-4-8v-7c0-4 1-5-3-4l-3 1-2 1v18l6 1c2 0 2 0 2-2v-8m-36-3v-5l-1-1h-10l1 10v7h8l1-1 1-10m51-10-1 2v6l1 13h7l1-2-1-14-1-4-6-1Zm-26 13v-9l-1-1-9 3-1 15 1 1 10-1v-8m-26 43c-1 0-2 0-2 2l1 10v9l2 2c2 0 2 0 3-2l5-15 1-2 1-1c0-1 0-2-2-3h-9Zm67-3-7 1c-3 1-3 2-1 4l2 4c2 3 3 6 3 10l2 2 6-2 1-3 1-6-1-5-1-2c-1-2-3-3-5-3m-118 48h-1l-7 1-8 2-1 2 6 13 2 7h3l5-2 6-2c2-1 2-1 1-2l-4-14-1-4-1-1m252-2-1 1-5 17 1 2 10 3 6 1h1v-2l6-14 1-2-1-1-1-1-16-4-1-1m-222 16v-2c-2-5-4-10-4-15l-1-1v-1h-2l-18 4-1 2 1 2 4 15v1l2 1 18-5v-1h1m3-1h2l16-3 2-1v-3l-1-15v-1l-1-1h-2l-20 5-1 2 3 10 1 6 1 1m241-8-1 1-7 18 5 2 12 6h2v-1l7-17 1-2-1-2-10-3-8-2m-33 12c1 1 1 0 1-1l4-11 2-8-8-2-14-3-1 9-2 10c-1 1 0 2 1 2l17 4m-166-8 1-2v-22h-4c-5 1-11 1-16 3h-1l-1 1v2c1.3 5.6 2 11.3 2 17l1 1h18Zm110-2 10 1 1-1v-2l2-20-1-1h-19l-1 1v13l-1 7 1 1 8 1m-96 2h8l2-1v-24c0-2-1-2-2-2l-10 2h-7l-2 2c1.3 6.9 1.6 14 1 21l1 2h9m60-25-1-2h-20v18l-1 6 1 1h1l13-1h3l2-2v-9l2-11m19 22c5 0 5 1 5-4v-17c1-1 0-1-1-1l-19-2-1 1-2 21 1 2h17Zm-28-35h9l2-2v-2l-1-4v-6l1-4v-4c0-3-2-4-4-3h-2a77.2 77.2 0 0 1-15 4l-1 2-1 6v4l2 7c0 2 0 2 2 2h8m-95-8-1-4c0-3-1-4-4-4h-1l-9-2h-2c-2 0-3 1-4 3v4l-2 6 2 5 1 7 1 2 3 1 8-1 4-1 1-1c1-1 2-1 1-3l1-7 1-5m159 21h-2l-1 1v3l-1 9-1 10v1h2l13 3 3 1 2-1 2-8 2-14-8-3-11-2m-99 24h15l3-1 1-1v-12l1-12-1-1h-12l-9 1-1 1 1 13v11l1 1h1m-24-51h-11c-2 0-3 0-4 2l-4 10v9l1 1h15l13-1 15-2 4-1 1-2-3-9c0-4-4-8-9-8l-5 1h-13m15 162-6-14c-4-10-11-19-18-29-3-5-8-8-14-10-7-3-14-4-22-1l-16 7v2l6 7a655 655 0 0 0 25 22 298.5 298.5 0 0 0 47 29c1-1-1-11-2-13Zm-40-168h10l13-2 11-1c8.3-1.1 16.7-1.4 25-1l17-5 19-6 5-1 5-2v-2l-3-1c-7-2-13-4-19-8-2-2-4-2-6-1l-4 1c-7 3-14 4-21 4l-10-1h-2l-9 1-10 2a129 129 0 0 1-35-3l-4 1v1c-6 6-12 10-20 13h-1v2l2 1 4 2 17 4 4 1 12 1m24-52 11-1 16-3c11.1-3.2 22.5-5.6 34-7l2-1-1-2-2-1-5-2c-6-3-13-6-18-12l-4-6c-3-3-5-4-8-3l-16 2h-21l-6-1c-4 0-7 1-9 4-2 5-5 8-8 12s-7 8-12 10l-4 1-2 1-1 1 1 1 1 1h5c15.8.5 31.5 2.2 47 5m149 159-11 1-21 4c-11 4-22 9-31 17-7 6-13 14-16 23a65.5 65.5 0 0 0-4 24l2 14v1l2 1 12-3 25-10a323.2 323.2 0 0 0 53-36l18-18 5-6v-2h-1a111 111 0 0 0-18-8l-15-2m-122-44-34 2-10 2-24 7-41 10c-2 1-2 1-1 2l11 22c3 5 2 5 8 3 4-2 9-3 13-3h10l13 2a72 72 0 0 1 41 24c5 6 9 13 10 21l2 12v17l1 1 3 1c9.8 3 20 5.3 30 7l1-1 1-10 3-21a67 67 0 0 1 42-56l18-5h19l13 3 13 3a81 81 0 0 1 18 6l2-1 9-16v-2l-5-2-28-14c-10-5-21-8-33-9l-19-1h-14l-44-1-10-2-13-1h-5m32-324-7 1-32 11-17 8a359.2 359.2 0 0 0-37 28l-8 9-12 16-13 25c-8 13-15 27-21 42v1l1 2 2-1 5-2 9-7 14-12 10-7 4-1h10l9 2c3 1 5 0 7-2 3-1 5-3 7-6l6-6 11-8h7l16 5 3 2 2-1 12-14 13-13c5-5 9-4 14 0l7 8c5 5 10 10 17 13 7 4 13 9 18 15l15 14 9 7h3l1-1 11-7 6-1 7 2 9 4c6 2 12 6 16 10s9 7 14 9h1l-1-1-1-5a6218.1 6218.1 0 0 0-44-80l-6-7c-5-6-10-11-17-16l-14-10-20-11-12-5-26-9-8-1m-166 242v3l1 27v2l2 14 3 16c1 1 2 2 3 1l10-3 26-8 1-2-1-5 1-8v-17l-1-1-10-5-5-2v-2l6-3 12-6 11-7 5-3 1-1v-18l-1-2-11-3c-4.6-1.4-9-3.4-13-6v-2l5-2c8-4 15-9 22-15 4-3 9-7 11-13l1-1 4-2 5-1h13l2-1 4-2 1-2v-2l-3-1c-1-1 0-2 1-3l2-1 1-1-1-3v-1c-1-1-1-4 1-5h4c1 1 2 3 1 5l-1 2-1 2 2 1 3 1v2l-2 2-1 2 2 2 4 1 1 1 14-1h2c3 0 5 1 6 3 3 6 7 10 13 14 7 5 15 10 23 13l4 2v2l-3 1-8 3-11 6 1 5 1 11 2 2 8 5c8 4 16 7 24 8l3 1v2l-5 3-10 6-2 1v8l1 6v10l-1 3c0 2 1 3 2 3l9 1 14 2c9.7 1.3 19.4 3 29 5h14l10 2c18.6 3.4 36.8 9 54 17l7 2h2c4-14.4 6.7-29.1 8-44 2-25.7.5-51.6-4-77l-8-31-4-5c-4-2-9-6-12-10l-5-6-5-6c-2-2-4-3-7-3h-6c-4 0-7-1-11-3l-2-1c-2-2-4-2-7 0l-9 6-1 1 6 5 3 4v1h-1l-3-1-11-7a70.7 70.7 0 0 1-24-24l-6-8c-2-1-4-3-7-3l-6-2c-6-1-12-3-16-8l-8-9-4-4h-2l-5 4c-6 6-13 14-21 20l1 2 15 7 4 2 3 2-1 1-4-1-15-4c-6-2-11-4-16-8l-13-7-4 1-2 3-11 10-10 9-2 2v1h2l15 4h2l-1 1a82 82 0 0 1-21-1l-9-3-11-5c-5-1-8 0-11 3l-5 5-13 14-11 9-12 5-1 2-2 3-5 20c-3 10-6 21-7 32l-1 15v17m341-9-1 23-2 17c-2.6 20.3-8 40.2-16 59l-15 33-17 26-13 15c-9 10-20 19-31 26l-28 15c-11 5-23 9-35 11l-7 2c-8 1-16 1-24-1a171.2 171.2 0 0 1-73-32c-9-7-18-14-25-23a294 294 0 0 1-26-34 462 462 0 0 1-30-75 259.7 259.7 0 0 1-6-81l2-17 6-27a338 338 0 0 1 16-49 261 261 0 0 1 39-60l6-8 20-22 13-11c8-6 16-11 25-15l12-5a113 113 0 0 1 39-7l12 2a160.7 160.7 0 0 1 50 21l13 10c7.4 5.9 14.1 12.6 20 20l12 14a239.8 239.8 0 0 1 55 108c2.6 12.3 5 24.6 7 37l2 28"/>
    <path d="M469.8 433.8c0 .4-.3 6.8-.2 13.3-6.8.5-5.7-13.3-5.3-15 .2-1.4-4.4 1.7-6.6 3.8.7 1.3 1.7 1 3 .5-.6 6.2 3.8 11.8 9 11.7.1 6.4.8 12.5 2.6 13 .2 0 .5-6.5.6-13.7 12.2-3.8 7.5-18.3 7.5-18.3-.2-.8-2 .3-6 3.9 1.6 1.7 2.3.7 3.6.3 1 1.9 1.4 10.5-5 13l.2-18-.4-.2c-1.8.2-5 3.4-7.5 6 1.5 2.3 3.2.3 4.5-.3"/>
    <path d="M469.8 433.8c0 .4-.3 6.8-.2 13.3-6.8.5-5.7-13.3-5.3-15 .2-1.4-4.4 1.7-6.6 3.8.7 1.3 1.7 1 3 .5-.6 6.2 3.8 11.8 9 11.7.1 6.4.8 12.5 2.6 13 .2 0 .5-6.5.6-13.7 12.2-3.8 7.5-18.3 7.5-18.3-.2-.8-2 .3-6 3.9 1.6 1.7 2.4.7 3.6.3 1 1.9 1.4 10.5-5 13l.2-18-.4-.2c-1.8.2-5 3.4-7.5 6 1.5 2.3 3.2.3 4.5-.3m6 19.2 2.7 2.8 2.8-2.8-2.8-2.8-2.8 2.8Z"/>
  </g>
</symbol></svg>
