<svg xmlns='http://www.w3.org/2000/svg' viewBox='0 0 696 830' fill='none'><symbol id='LPAC_Outline'>
  <g fill="#D7CDC1">
    <path d="m575.9 421.2-1 35-3 24-3 24c-2 22-7 43-17 63a277.6 277.6 0 0 1-72 96c-19 18-42 30-67 36l-26 6-24 3-22 1-35-5-27-5c-24-7-45-18-63-35a276.7 276.7 0 0 1-81-114c-4-12-7-24-9-37l-4-40a350.7 350.7 0 0 1 0-96c2-29 9-57 19-84l16-40c4-11 10-22 17-32l28-38c13-16 30-29 49-39 12-6 24-11 37-15l22-7c9-2 18-2 27-2h20c11 0 22 0 33 3l48 18a165.5 165.5 0 0 1 58 47l24 31c7 11 14 23 19 36l17 46a258.3 258.3 0 0 1 17 80l3 40Zm-6 18-1-13c-2.4-25-5.1-50-8-75-3-16-8-31-13-46l-17-45c-6-15-13-29-22-42l-24-33c-6-8-13-16-21-22-8-7-16-12-25-16l-30-10c-17-5-34-9-52-10h-27l-12 2-36 9c-8 2-17 5-25 9-8 3-16 7-23 13-8 6-16 14-23 23-10 12-19 24-27 37-8 12-14 25-19 38l-15 37-7 20c-7 21-12 44-14 66l-3 33a481 481 0 0 0 2 71l8 38c9 39 28 73 55 103l26 26 12 11c18 15 37 25 59 31l26 6 16 3 12 1c14.2.6 28.4-1.1 42-5 9-2 19-3 28-6 21-7 40-18 57-33l24-23a234.8 234.8 0 0 0 63-106l8-33c5-19 6-39 6-59Z"/>
    <path d="M519.9 421.2c-.3 36-7.4 71.6-21 105l-8 18c-7 15-16 28-26 40a164.7 164.7 0 0 1-69 51c-12 6-25 10-38 12-10 2-20 1-29-1-15-3-29-8-42-15l-24-14c-11-7-21-16-30-26a469 469 0 0 1-28-39l-17-37-12-45a308.8 308.8 0 0 1 0-95c3-14 6-28 11-41a236.6 236.6 0 0 1 50-88l13-15 11-11 18-15 16-10c15.9-7 32.7-11.7 50-14l10 1c10 1 19 4 29 8l6 2c11 4 21 10 30 18 10 8 19 16 26 25l17 21c19 22 32 47 41 74 5 16.8 9.4 33.8 13 51l3 33v7Zm-340 9 2 41c3 20 9 38 18 57l2 1 9-3 20-8c5-3 10-5 16-6l13-2 3 1c0 2-1 2-2 3l-2 1-5 5-2 4c0 2 1 3 3 3l6-1 11-5 13-5c7-2 15-3 23-1l2 1v1l-2 1-3 3c-3 3-2 5 1 7l2 1 8 1 2-2v-12l2-35 3-51 2-35v-12l2-23 2-39v-4l-2-3h-1c-5-3-7-6-8-11v-11c1-4 2-7 5-9l3-1 2-3-1-6c0-10 5.9-19 15-23l1-2c-1-3 0-5 1-8l2-4v-1l1-1 1 1 2 5c1 2 2 5 1 8l1 2 2 1c9 5 13 13 13 22v3c-1 4 1 6 4 7l1 1 4 5c1 5 2 10 0 16-1 3-3 6-6 8l-2 1c-2 1-2 2-2 3v7l2 50 1 18 2 31 1 18 2 36 1 27 1 8 2 1 8-1c7-.5 14-.2 21 1h1v1l-3 2-4 4c-2 3-1 6 2 7h4l12-2 9-3c13-5 27-7 41-6l3 1v1l-2 2-4 3c-2 3-1 5 2 7l5 3 14 1c1 0 2 0 3-2l4-9c11-22 16-45 18-70 1-23.4-.2-47-4-70l-7-26c-5-23-14-45-25-65l-18-32a145.2 145.2 0 0 0-27-32l-29-19c-4-3-3-3-6 1l-12 12-8 6-11 7-2 2h-1l1-3 7-6 16-14 9-7v-2l-6-3-36-13a22.7 22.7 0 0 0-15 0c-1 1-2 1-1 3l1 2 5 13 4 14v4h-1l-1-1c-3-6-6-13-7-19l-3-12c-1-2-1-2-3-2-11.2 3.7-22.3 8-33 13-2 1-2 1-1 2l4 3 10 8 8 7 11 10 2 2v1h-1l-3-2-8-6-11-7-11-12c-5-5-3-5-10-1a324.3 324.3 0 0 0-31 21c-9 9-17 19-23 30l-19 33c-9 16-17 32-22 50a2388 2388 0 0 0-12 53c-2 12-2 23-2 34Zm189 40-1-26c0-13-2-25-3-37 0-2-1-3-3-4-7-2-14-3-22-2l-8 2-2 4-2 12-1 14-1 31-2 27 1 18c1.6 24 .2 48.2-4 72l-4 22-5 27c-1 1 0 2 1 2l13 5 18 3c13 0 25-3 38-8l1-2-4-16-5-32c-4-16-5-33-5-50l1-21v-12l-1-29Zm99 48c0-1-15 0-23 2-5 1-11 3-16 6l-10 5c-4 2-8 3-12 2-3 0-5 0-7-2-5-2-6-7-3-11l3-3 2-3h-1l-17 1-7 1-1 2v3l3 43c0 2 0 3 3 2l7-3 16-7a82 82 0 0 1 35-5c2 0 2 1 1 2l-2 2-1 2v4l3 2 6 2h23l3-2 13-23-1-1h-11c-3 0-6-1-8-3-8-4-8-11-1-16l3-2Zm-162-1-17 1-11 6-11 6-8 3h-6c-5 0-7-4-6-9l3-4 5-5 3-2-9 1-18 6-27 11c-2 1-2 1-1 3l12 23c3 4 2 4 7 2l16-6c7-2.7 14.5-4.1 22-4l1 1-1 2-3 2-5 5c0 2 0 4 2 5l2 1h7l13-3 12-5 17-5 9-2c2 0 2 0 3-2v-10l-1-2-5-1c-3-1-6-1-8-3-4-4-5-9-1-13l4-2Zm-51 35h-4c-5 0-11 2-16 4l-12 5c-4 2-4 2-1 6l25 25 6 6h4l11-4 16-5 13-1c1 0 2 0 2 2l-1 1-4 4 1 4 4 1c4 2 8 1 12 1l1-1 3-16 1-27v-3l-1-1-8 1c-6 1-12 4-18 7l-11 6c-5 3-10 5-15 5-4 0-7 0-11-2-5-3-6-9-2-14l3-3 2-1Zm125 27h-1l2 17c1 4 0 4 5 2l10-4c8-4 16-6 25-6l6 1v1l-1 1-2 3c-1 2-1 5 2 6l4 2 5-1a254.6 254.6 0 0 0 32-32h-2l-18 2-8-2-5-3c-3-3-3-8 0-11l3-2v-1l-12 1c-7 1-15 3-22 7-7 3-14 7-22 9l-2 2 1 8Zm-16-182-1-9-3-42 2-29 1-4v-2c-5-3-10-4-15-5h-2c-5 1-10 2-14 5l-1 2 2 4 1 23c.8 19.4-.6 38.9-4 58 0 1 1 2 2 1h1c8-2 16-2 23-1l6 1c2 1 2 0 2-2Zm-59 210-11-3c-4-2-6-7-2-12l1-1-1-1-3 1c-11 1-20 6-30 10v1l2 1a330 330 0 0 0 43 27c1 1 1 0 2-1l5-19v-4h-4l-2 1Zm78-1 1 3 4 16c1 5 0 5 5 3 12-6 23-14 33-21l1-1v-1l-4-3c-3-2-3-5-2-8l2-2-1-1h-3c-6 1-12 2-17 5l-18 8-1 2Zm-19-330v-1c0-3-1-4-3-5l-10-7h-7l-12 7-1 3v6h3c9-2 17-2 26 0 2.7.7 4-.3 4-3Zm-17 5c-8 0-16 1-23 6l-2 2-1 5 1 1 5-3c12-6 31-6 44 2l1 1 1-1-1-5-1-1-7-4c-5-2-11-3-17-3Zm1-23 10 3h1v-1l-7-6c-6-4-4-4-10 0l-7 6v1h2c3-2 7-3 11-3Zm9 47h1v-1l5-7-1-2h-1c-2-1-2-1-3 1l-4 7v1l3 1Zm-22-11-3 1v2l4 7 2 1c2 0 3-1 2-3l-4-7-1-1Zm9 6v-6l-2-1h-3v2l3 6 1 3 1-4Zm6-1v4l1 1h1v-1l4-8-1-2c-3-1-4 0-4 3l-1 3Zm15 11h1l6-6v-2l-1-1h-1c-3 2-5 4-6 7l1 2Zm-42-10-1 2 1 2 6 6 1-1 1-1-6-7-2-1Zm5-3-2 1 1 1 5 7 1 1h1l1-1c-2-3-3-6-6-8l-1-1Zm39 0h-1l-7 9 1 1h2c1-3 3-6 6-8v-1l-1-1Zm-19 1 1-4-2-2-1 2v9l1 1 1-1v-5Z"/>
    <path d="m330.9 249.2-3 2-9 5c-6 4-12 7-17 12l-23 15-3 1h-1l1-1 3-3 12-10 8-4 10-7 10-8 7-5 4-1c3 0 1 3 1 4Zm35-4 3 2 9 6 9 7 7 5 7 4 16 12c1 1 3 2 2 3s-3 0-4-1l-23-16a115 115 0 0 0-24-15l-4-3-1-1c-1-2 0-3 3-3Zm12-3h-5l-1-1 1-2 3-1c6-.6 12-1 18-1l4 1v1l-3 1-17 2Zm-62 0a94 94 0 0 1-19-3l-1-1 1-1h3a581 581 0 0 1 23 4l-7 1Zm34 212v5l-1 2h-3l-1-1-1-9c1-2 2-2 3-2l3 1v4Zm-1 118-1 1h-2l-1-1-1-7 1-2 2-2c2 0 2 1 3 2v3l-1 6Zm1-152-1 5-2 1-1-1-2-8 1-1 2-2 3 2v4Zm-5 107v-3l2-2 2 2 1 2-1 7-2 1c-1 1-1 0-1-1l-1-6Zm4 84-2 1-1-1c-1-2-2-5-1-7 0-2 1-3 2-3 2 0 3 1 3 3v1l-1 6Zm0-122v5l-1 1h-2l-1-9 1-1h3v4Zm1-167-1 5-2 1-2-1-1-8 1-1 2-2 3 2v4Zm0 32-1 4-2 2-1-2c-1-2-2-5-1-8v-1h4l1 5Zm0 32-1 4-2 1-2-1v-8l1-1h3l1 5Zm72 87.4 2.8 2.8 2.8-2.8-2.8-2.8-2.8 2.8Zm-6-19c0 .4-.2 6.8-.1 13.3-6.8.5-5.7-13.3-5.3-15 .2-1.4-4.4 1.7-6.6 3.8.7 1.3 1.7 1 2.9.5-.5 6.2 3.9 11.8 9 11.7.2 6.4.9 12.5 2.7 13 .2 0 .5-6.5.6-13.7 12.2-3.8 7.5-18.3 7.5-18.3-.2-.8-2 .4-6 3.9 1.6 1.7 2.4.7 3.6.3 1 1.9 1.4 10.5-5.1 13l.3-18-.4-.2c-1.8.2-5 3.4-7.5 6 1.5 2.2 3.2.2 4.5-.3"/>
  </g>
</symbol></svg>
