<svg xmlns='http://www.w3.org/2000/svg' viewBox='0 0 696 830' fill='none'><symbol id='LROC_Outline'>
  <g fill="#FDBE00">
    <path d="M124.6 439.5c0 10-1 20 1 30l2 16 8 37c9 39 27 72 53 102l31 32a161.2 161.2 0 0 0 68 39l26 6 14 2c14.3 2.1 28.7 2.1 43 0l25-6c28-5 52-18 73-37l26-24c13-12 24-27 33-42 12-19 22-38 28-60l9-36c4-19 6-39 5-58v-15a854.2 854.2 0 0 0-9-78c-3-14-7-29-13-43l-17-45c-5-15-13-28-21-41a569.9 569.9 0 0 0-33-43c-12-13-25-24-42-30-23-9-46-15-71-18-7-1-15-2-22-1l-8 1-17 2c-20.6 3.3-40.7 9-60 17l-22 13c-9 7-17 15-24 24l-28 38c-7 11-14 24-18 36l-16 42a312.4 312.4 0 0 0-21 92l-2 22-1 26m-6-17c1-31.3 4.7-62.4 11-93 2-11 6-21 10-32l17-44c4-11 10-21 16-31 9-14 19-27 30-39 13-16 29-29 47-38 12-7 25-12 38-17 8-2 15-5 23-6 9-2 18-2 26-2h19c13-1 26 0 38 4 15 5 30 10 44 17 17 8 33 19 46 32l14 16c14.3 19 27.1 39 38 60l22 55a243.3 243.3 0 0 1 15 71c5 48 3.3 96.5-5 144a281 281 0 0 1-90 146 153 153 0 0 1-83 38l-26 5-14 1h-18l-15-2-27-4c-27.6-5-53.5-17-75-35-14-13-27-25-39-39-20-25-36-52-46-81-4-12-7-23-9-35l-4-34-2-28-1-29"/>
    <path d="m512.6 431.5-1-22-3-27-11-41c-5-17-13-34-22-50l-17-31-10-14-8-9c-16-11.6-32.5-23-49-34-13-6-26-10-39-14-3-1-7-2-11-1l-8 3a347.8 347.8 0 0 0-50 21 959.7 959.7 0 0 0-26 19c-9 9-18 19-24 30l-17 29c-9.7 17-17.5 35.2-23 54l-9 33a194.6 194.6 0 0 0-5 51c0 14 0 28 2 43 2 13 5 25 10 38a387 387 0 0 0 31 60 230.2 230.2 0 0 0 106 70l12 3c6 1 12 0 18-1 16-4 30-10 43-18l17-10c15-10 29-22 42-35 9-9 17-20 23-31 6-13 12-25 17-39 5-12 8-25 10-38l2-39m8-13c-.5 36.3-7.6 72.2-21 106l-11 25c-6 13-15 25-24 36-7 8-14 16-23 23l-3 3c-17 12-34 22-53 29-10 4-21 6-32 8h-3c-10 1-19-1-29-3-21-7-41-16.5-60-28a146 146 0 0 1-41-40c-7-8-12-18-17-28-6-12-12-24-16-37-9.2-23.3-14.2-48-15-73l-1-25c0-17 3-33 7-50l7-28c9-27 21-53 39-75l15-18 6-7a164.8 164.8 0 0 1 51-41l29-11 19-3 9 1 24 5 19 8c8 3 15 8 22 13 7.2 6.1 14.2 12.4 21 19l23 28c25 30.4 42.2 66.4 50 105 3 13.6 5.3 27.2 7 41l1 17"/>
    <path d="m434.6 401.5-2 1-2 4 1 1c2 0 3 0 3-3v-3m1 13-1-5-1-1-1 1c-2 0-2 1-2 2l3 4 1 1h1v-2m0-11c0 3 1 4 4 3 1 0 2-1 1-3 0-1-1-3-3-3l-2 1v2m-35 109 3 9 3 3 1-1-6-12c-1-2-1 1-1 1m36-101v5h1c2-1 3-3 3-6 1-4 1-3-3-3l-1 2v2m34-43v-6l-3-2-1 1 2 12h1l1-5m-9 41c0 3 0 6-2 9v1h1c1 0 3-1 3-3l1-7v-3l-2-2-1 2v3m1-27 2-1c2-2 3-4 2-6l-1-6c-1-2-2 0-2 0l-2 6c-1 3-2 4-4 5l-4 2c0 1-2 2-1 3 0 1 7-1 10-3m-13 24v-3c0-4-1-5-5-5l-3 1 1 2 1 3c1 5 0 9-3 13l-2 2 3 1 3-1 4-5 1-8m9 2v-2c0-3-1-5-4-6h-2v4l-1 10-4 6 1 1c3 0 6-1 9-4l1-9m13-50 1 8h2l1-5-1-7c-1.8-7.5-2.8-15.2-3-23-1-3-3-5-6-7h-1v1l3 9c2 3 2 7 2 10l-1 2 1 3c2 2 2 7 2 9m-17-28c0 3 0 5 2 7l8 7h1v-3l-3-12-1-6-2-4h-2c-1 3-3 6-3 10v1m-31 6v4h1c0 1 0 0 0 0l2-2c3-5 6-8 12-8l3-1c3-1 4-4 3-7l-1-1-7-8-3-1-11 2-13 6c-4 1-7 4-9 7 0 0 0 2 1 1l9-5 4-2 3-1c3-1 5 0 6 3l1 4-1 9m1 11v3c1.2 5.4 2.5 10.7 4 16l1 10 2 4c2 2 4 2 5 0l3-9-1-6-1-3c-2-6-2-11 2-16l3-6c2-2 3-5 3-8v-2h-2l-3 1-6 3-5 7-4 4-1 2m12 50h3c3 0 4-1 5-3l4-5c1-2 1-2-1-3h-3l-5 1h-4c-4-1-7-4-8-8l-1-6c-1-1-3 3-3 4-3 3-7 4-11 1l-3-3c-2-4-5-6-8-9-3-2-5-4-6-7s-1-4-4-1-3 3 0 6l18 18c10 10 10 10 23 15h4m-217 95c1 4 6-10 9-13 5.7-9 11-18.5 16-28 2-5 2-11 2-16v-17c1-13 7-24 16-33l4-3v-1c-10 5-18 13-21 24-2 4-2 9-3 13l-1 17c-1 10-4 18-10 26l-7 11-4 9c-1 2-3 8-1 11m43 7 1 13 2 3 4 8c1 2 2 3 4 3l7-1c2 0 3-1 1-3l-1-1v-1h1l4 2 3 1 1-2-2-2-4-1c-6-1-9-5-10-10l-1-8c1-6 3-12 7-17l11-12 9-11 6-9v-2l-3-1-2 2c-3 7-8 13-13 18l-11 9-8 6c-3 2-4 4-5 6l-1 10m183-187h-3v2l5 9c2 4 2 7 1 11l-3 10c-3 5-3 9-3 14v5l-1 12-2 5 1 2 7 2 3-1 7-9c4-4 6-8 6-13l-1-1h-4c-3 0-1-1-1-2l3-2c1-1 0-2-1-2h-2c0-2 3-3 4-3h4l2-1-1-1-4-3-7-6c-4-3-5-7-5-12s0-9 3-13l-1-2-7-1m-47 42 3 5 8 12 2 4c3 3 7 3 9-1 2-3 2-6 2-9l-1-6c-2-5-2-10-1-16l2-11v-8c-1-2-2-2-4-2l-5 4c-3 3-6 6-10 7-3 1-5 3-6 6 0 2-2 8 1 15m-71 20h-4c-8-1-16-1-24 1-8 1-15 3-23 7-13 7-21 18-24 33-2 7-2 13-2 20 1 10-1 20-5 29l-5 11a55 55 0 0 0-2 43v10l-1 3v3c3 4 7 6 11 5h3v-2l-1-3h1l2 3c1 2 3 2 5 1 2 0 2-1 1-3l-1-1-1-1h1l2 2h2l-1-2c-1-2-3-2-5-3-3-1-5-3-6-6l-2-6v-12c2-12 7-22 17-29l7-5c13-10 23-22 31-36l5-7 3-3h1v1l-5 8-2 5 1 3 14 6a296 296 0 0 1 26 6h18c3-1 3-1 4-4l1-6c2-4 4-9 4-13l1-1 1 2-2 13c-2 6-3 12-1 19s4 15 4 23v9c1 8 3 16 9 22l5 10 2 4c2 4 5 6 9 7l3-1v-3l-2-3s1-1 2 1l2 4 3 1c2 0 3 0 4-2l1-1-2-1-1-3 2 1 2 2h2l1-2-2-2-4-1-10-5-4-6v-6c-.5-13.3-.9-26.7-1-40a44.2 44.2 0 0 1 18-23v1l-6 7c-3 4-6 8-7 13l-1 9v17c0 6 1 12 4 17l3 7 3 5 3 2c5 2 10 1 15-1 2-1 2-1 1-2l-2-2s0-2 1-1l3 2h1v-2c-1-2-3-2-5-2-4-1-8-3-10-7l-3-6a55 55 0 0 1 6-53l2-2 6-10 7-19c0-2 0-3-2-4l-2-2-2 1c-3.5 7-6.9 14-10 21 0-6 1-11 4-16l4-10 1-4v-6c1-1 1-1-1-2l-20-13c-5-3-10-7-13-12l-8-11c-1-2-1-2-2-1-4 5-9 8-14 10h-4c-1-1 1-2 3-3l4-4c1 0 0 0 0 0h-2c-8 5-16 7-25 7h-20m89 112v12c0 6 3 11 6 16l4 3 4 1c3 0 4 2 5 5 1 1 0 2-1 3l-3 2c-2 2-4 2-7 3l-2 2c0 2-2 4-4 5l-2 1c-2 2-5 3-8 2l-4 1c-4 1-8 0-12-1-3-2-5-4-5-7-1-6-4-10-7-15-3-6-4-12-6-19-3-10-4-20-5-31l-1-8c-1-1-1-2-2-1l-3 1c-7 4-15 4-23 0l-7-4c-4-2-8-4-12-3-4 0-7 0-10-2l-2 1-6 8c-5 8-10 15-17 22a30.4 30.4 0 0 0-9 24c0 4 2 7 6 8 3 0 5 1 7 4 2 2 1 6-3 6l-6 2c-3 1-5 2-8 1-3 0-5-1-6-3-4-5-7-10-8-16l-1-13h-1c-3 4-4 9-5 14v11c0 4 2 6 6 7l5 3c1 1 2 3 0 5l-3 3c-1 2-4 3-7 2h-4c-6 1-11-1-15-6-1-2-2-4-1-7l1-5v-9l-2-13c-1-7 0-14 2-21l1-3-2 1c-3 5-7 9-9 15l-2 4c-2 1-4 1-5-1l-1-3c-2-5-1-11 1-16l5-10 6-10c5-8 7-16 8-24l2-16 2-11c4-15 14-24 28-29l5-1 11-3c13-5 26-6 40-5 9 1 18 2 27 1l18-3c6-2 10-6 15-9l2-4 1-7c0-5 2-9 4-13 4-7 9-12 16-15l14-8 8-5c5-1 10-1 15 2 6 3.4 11.5 7 17 11l4 4c4 2 7 6 8 12l4 20v3l1 4c0 4-1 7-5 9l-1 2-4 9-2 4c-3 4-6 5-11 5l-3 1-1 1c-2 5-2 5 3 6 4 1 7 3 10 6 2 1 2 3 3 5l-2 9c-1 2-3 3-6 3-5 2-10 3-15 1h-1l-2 2-1 2c-1 6-3 12-7 17l-7 10-1 1c-6 6-9 13-9 21v11m-190-130c-1-1 2-6 3-8 6-14 15-26 28-34 8-5 17-7 26-9l20-1 23-2c19-4 33-14 43-30 5-8 9-17 12-26l3-8h1v2l-9 30a64 64 0 0 1-51 38l-19 1h-17l-18 3c-12 2-21 8-29 17-7 8-12 16-15 25l-1 2m141 225c-8 1-16-2-23-5l-16-8c-6-3-12-6-18-7a58.8 58.8 0 0 0-39 3l-10 7v-1l5-5 11-5a64 64 0 0 1 45 1l17 7 16 7c11 3 22 2 32-2l10-4 2-1 7-3c1 1-3 3-5 5l-13 7c-7 3-14 5-21 4"/>
    <path d="M414.6 523.5c-3 1-6-4-3-4 2 0 6 3 3 4m23-185 2 2-1 1-3 2-1-2c0-2 2-3 3-3m25-2-1 2-2-1-1-2h2l2 1m.1 130c0 .3-.3 6.7-.2 13.2-6.8.5-5.7-13.3-5.3-15 .2-1.4-4.4 1.7-6.6 3.8.7 1.3 1.7 1 3 .5-.6 6.2 3.8 11.8 9 11.7.1 6.4.8 12.5 2.6 13 .2.1.5-6.5.6-13.7 12.2-3.8 7.5-18.3 7.5-18.3-.2-.8-2 .3-6 4 1.6 1.6 2.4.6 3.6.2 1 2 1.4 10.5-5 13.1l.2-18c0-.2-.2-.3-.4-.3-1.8.2-5 3.4-7.5 6.1 1.4 2.2 3.2.2 4.5-.4m6 19.1 2.7 2.8 2.8-2.8-2.8-2.8-2.8 2.8Z"/>
  </g>
</symbol></svg>
