<svg xmlns='http://www.w3.org/2000/svg' viewBox='0 0 696 830' fill='none'><symbol id='MAUC_Outline'>
  <g fill="#A7BFB9">
    <path d="m571.6 434.2-4-50c-3-26-8-52-17-76l-22-56-11-23c-11-17-23-34-36-50-14-17-31-29-52-36-13-5-27-9-41-12a168.2 168.2 0 0 0-72-2c-17 3-34 8-51 14-12 4-23 10-33 18-7 7-15 13-21 21l-29 41c-6 10-12 21-16 32l-18 46c-10 27-17 55-19 83l-4 52c-1 16 0 32 3 48l8 37c9 41 29 76 56 107l33 32a154.7 154.7 0 0 0 82 39c11 2 23 5 35 5 15.2.6 30.3-1.1 45-5 10-2 21-4 31-8 21-8 39-19 56-34a1135 1135 0 0 0 47-51c14-20 26-42 33-66l10-36c5-23 8-46 7-70m5-11-3 55-3 29c-3 21-9 42-18 61-14 29-31 55-54 78l-16 16c-22 21-47 33-76 39l-41 7c-14 2-27 2-40 0l-35-6c-29-6-54-19-76-39-12-12-25-24-36-38-18-23-33-48-43-76-4-12-7-25-9-38l-6-54a339.1 339.1 0 0 1 2-83c3-29 10-57 20-84l15-38c4-10 10-20 16-30 9-14 19-27 30-40 19-22.7 44-39.7 72-49l31-10 21-3 18 1h5l16-1c9 0 18 1 27 4 16 5 32 10 47 18 21 10 40 24 55 43l25 33c8 12 14 25 20 38l18 49c7 19 11 39 14 59 2 19 4 38 4 59"/>
    <path d="m341.6 432.2 5 3c2 1 5-2 6-3 0-2-11-1-11 0m133 12-1-8v-1h-1l-7 9 9 7v-7m-134 13h3v-1l-8-8h-2l-10 8 2 1h15m131-26h-17l-1 1 10 9h2l6-8c2-1 0-2 0-2m-200 25c1-1-6-5-9-8l-1-1h-3l-5 5-3 3c0 1 20 2 21 1m184 0 11-1h4c2 0 2-1 1-2l-6-7h-3l-7 10m-166-1h7l1-2-9-7h-2l-9 8v1h12m-45 1c2 0 1-1 1-1l-10-8-2-1-9 7v1c-1 3 19 2 20 2m31-22 11 9 4-4 6-5c1-1-1-1-1-1l-20 1m95 22v-1l-12-7-5 5-3 3h20m77 0c2 0 1-1 1-1l-9-9h-2l-9 8s-1 1 1 1l18 1m-198-23v2l11 7c3-2 10-6 10-8l-11-1h-10m179-2h-1v1l10 9h2c3-3 9-8 9-10s-19 0-20 0m-128 12v-7l-11 10 11 6v-9m-77-9h-1l1 1 9 8h3l9-8-1-1h-20m198 22v-2l-11-8h-1l-11 8c-1 2 22 2 23 2m-202-8v6h2l10-9v-1l-11-8-1 12m101-4v10h1l10-8 1-2-11-11-1 1v10m53 0v-9c0-2-1-1-2-1l-3 4-6 6v2l10 8h1v-10m25-13c-2 2 7 8 10 11 2 1 2 1 3-1 3-2 10-7 10-9-1-2-21-2-23-1m-28 1-10-1c-5 0-8 3-11 5l1 2 8 5h3l9-11m-46 0c-1 0-2 0-1 1l10 10h2l9-5c1-2-4-5-5-6h-15m69 12v9c0 1 1 2 2 1l12-9v-2l-12-10h-2v11m-46 12 9-11-8-6h-3l-8 6v2l9 9h1m-90-12-10-9-2 1-9 8v2l12 8 9-9v-1m15-10-10 12 10 9 2-1 11-9-1-2-10-8-2-1m180 20 9-12-11-9-10 12 10 9h2m-26 0 9-11-12-10-11 12 12 9h2m-60-25 5-1c2 0 2 0 2-2l-3-15a27.1 27.1 0 0 0-25-16c-7 1-13 3-17 9-6 6-8 14-8 22l1 1 13 1h22l10 1m-22 31h-22c-2 0-3 0-3 2l2 39 4-1c12-3 23-5 36-5h11c2 0 2 0 2-2v-31c0-2-1-2-3-2h-27m3 182h5l9-2c21-5 39-15 57-27l1-1h-1l-16 1-9 2-20 5c-9 1-18-1-27-4-9-4-17-4-26-2l-29 7-2 1 1 1 2 1c14 8 28 13 43 17 4 1 7 2 12 1m-35-428-2-12c-1-3-1-3-4-1-8 3-16 7-23 12l-15 10c-11 7-19 17-27 27-1 1-1 1 1 2 6 4 13 8 20 10 6 1 11 0 17-3l12-5 10-6 4-9 6-17 1-8m124 179-19 1c-9 1-15 6-19 14-3 5-4 12-4 18-1 2 0 2 2 2h10l8 1 13-1h45l1-2c0-5 0-11-2-16l-2-5c-3-5-7-9-13-11l-10-1h-10m-149 37h10c3 0 3-1 3-3-1.7-7.1-3.7-14.1-6-21-4-7-10-11-18-12l-29-1-10 1c-5 2-9 5-12 9l-3 8c-2 6-2 12-2 18l1 2h10l9-1h47m12 53 1-13v-9c0-2 0-2-2-2-7 2-13 2-19 0h-11c-7 1-13 2-20-1h-5l-17 1h-5c-1 0-2 0-2 2v6l1 23-1 3 2 1h2c7-2 15-2 23-1 7 0 14 2 21 4l19 5 11 2c2 0 2 0 2-2v-19m95-5v17c0 3 0 3 3 4l7 1c8 2 15 4 23 4 16 1 30-2 45-6 2-1 2-1 2-3v-35l-2-1h-77c-2 0-2 0-2 2l1 17m-48-104 29 1c33.3 2.9 66.7 3.2 100 1h3v-1l-6-5-15-14-14-11c-2-2-5-2-8-2h-9c-11 2-21 3-32 3h-30l-16-1h-3l-14 1h-34l-19-1-14-2c-10-1-11-1-19 6l-13 11-16 15-1 1h39c21 1 41 1 62-1l30-1m114 201c4 0 4 0 6-2 8.2-9.6 15-20.4 20-32h-1l-10 3c-14 3-28 2-42-5l-6-3c-9-4-18-5-28-1l-16 6-18 6c-14 4-27 3-40-4l-14-8-13-6c-7-3-13-4-20-2l-11 3-21 7c-11 3-23 4-35 2h-4l-1 1 11 20 3 1h13l16 4c9 2 17 3 25 1l21-4h24l14 4 13 5c6 2 11 1 17-1l6-4 8-3c10-4 19-6 29-4l11 3c14.4 4 28.7 8.4 43 13m-114-196-48 2-46 1h-43l-2 1v45a178 178 0 0 1-2 51l1 4 8 8c0 1 1 2 1 0l1-22v-7l-1-25 1-19c1-6 3-13 8-18 2-3 6-6 10-7l14-2c12 0 24 .5 36 1 6 1 10 5 14 9 3 3 4 7 5 12v5l2 43v41c0 2 0 2 2 2l5-1c2 0 2-1 2-2v-59c0-11 2-22 6-33 2-4 3-8 6-11 3-4 8-7 13-8l9-1c9 0 16 4 20 11l5 10c4 12 6 23 6 36v48l2 2 6 1 1-2v-1l1-46 1-12 1-22c0-4 0-8 3-11 3-5 8-9 15-11l10-1h25l13 1c7 2 12 6 16 12l3 8c2 7 3 15 2 22l-1 23 1 34 1 1 1-1 7-8 1-4-3-22v-26c2-8 2-16 1-24v-22c0-4 0-3-3-3-26 0-52 1-78-1l-27-1-32-1m-122 185h-2c-1 0-2 0-1 1l3 4a252 252 0 0 0 56 48l5 1 11-3 25-7c10-2 19-2 29 1s20 4 30 3c9 0 17-1 26-3h15c2 1 4 0 5-1 11-8 21-16 31-26l1-1-1-1-7-2-13-5c-6-3-13-7-20-9-11-3-21-3-32 2l-11 5-9 5h-14l-8-3-17-7c-7-2-14-3-21-2l-8 2-15 5c-12 4-23 3-35-1l-10-4-13-2m233-25c11 0 21-2 30-5 3 0 4-2 5-4 5-10 9-19 12-29l1-3-1-1h-3l-24 5c-7 3-14 5-22 6-11 3-23 4-36 2l-21-5c-18-6-36-7-55-3l-22 5c-8 2-16 3-24 2l-20-5-17-5c-10-3-21-4-31-2l-14 4c-7 2-15 4-23 3h-1v3l9 20c2 5 1 4 7 5 12 3 25 2 37-1l26-5a57.5 57.5 0 0 1 37 4l20 8c9 3 17 5 26 4l20-5 23-6c9-2 19-2 29 1l10 3c7 3 15 4 22 4m-277-109c0 22.9 2.6 45.7 8 68 1 1 1 2 3 2l18-3 1-2-3-3c-4-5-6-11-7-17v-4c-1-15-1-29 2-43l1-21-1-22s1 0 0 0l-1-1h-1c-1 1-3 2-4 1-1-2 1-3 2-4 9-7 17-16 25-25l11-10 8-5c4-3 9-3 14-2h5c12 1 24 0 37-1 2 0 2 0 1-2l-10-33-5-14-2-6-1-4c1-2 2-2 4-1l2 3 1 5 2 11 11 38c1 4 1 3 5 3l33 2h15l36-2 25 1c8 1 16 1 23-1l12 2 10 7 12 12c7 7 14 15 23 22l3 3-1 1-5-1-1 1-1 21 1 14 1 15c2 10 2 21 1 32v10l-6 15-2 2h4l14-1c3 0 3 0 4-4v-1c5.3-27.7 7-56 5-84l-2-16-8-33c-6-21-14-42-25-62l-19-34a142.7 142.7 0 0 0-29-33l-31-20-10 1a1494 1494 0 0 0-37 4l-16 2-5 1-2-1v-3l3-2 9-1h27l9-1 17-1v-2l-4-1-34-13c-6-2-12-2-17 0l-15 5-10 4c-2 1-2 1-1 3l3 11c2 9 1 17-3 24a109.3 109.3 0 0 1-21 23c-3 3-6 4-10 5-7 .2-14 .2-21 0-6-1-12-5-18-9-3-2-3-3-5 1l-2 3-20 35c-9 16-16 33-21 50l-8 32a182.1 182.1 0 0 0-6 54m341-6a277 277 0 0 1-20 98l-13 29c-8 13-16.8 25.7-26 38-10 12-22 22-35 30s-26 15-40 21l-32 8c-8 1-15 0-23-1-17-3-32-9-46-17l-25-14c-9-6-18-13-25-21a224 224 0 0 1-28-39c-8-14-14-29-20-43-7-16-10-33-13-49l-3-42c0-20 2-40 7-60l5-19c9-31 23-60 44-85l25-31c11.1-12 24-22 38-30 14-7 29-12 44-15 9-2 18-1 27 1 15.7 3.6 30.8 9.3 45 17 12 8 23 17 33 27l23 28c20 24 34 50 43 78 5 18 10 36 13 54 2 12 2 25 2 37"/>
    <path d="m246.6 276.2-1 5-8 16-12 24-9 16-13 26-1 1v-1l1-3 20-44 11-25 6-12 4-4c2-2 2 0 2 1m152 47-3-3-32-25-14-11-17-13c-4.8-3.1-9.5-6.5-14-10l-2-3c0-1-2-4 2-2l3 1 6 4 10 10 7 6 46 38 8 7v1m23.1-55c0 .5-.3 6.9-.2 13.4-6.8.5-5.7-13.3-5.3-15 .2-1.4-4.4 1.7-6.6 3.8.7 1.3 1.7 1 3 .5-.6 6.2 3.8 11.8 9 11.7.1 6.4.8 12.5 2.6 13 .2 0 .5-6.4.6-13.7 12.2-3.8 7.5-18.3 7.5-18.3-.2-.8-2 .4-6 3.9 1.6 1.7 2.4.7 3.6.3 1 1.9 1.4 10.5-5 13l.2-18-.4-.2c-1.8.2-5 3.4-7.5 6 1.4 2.2 3.2.2 4.5-.3m6 19 2.7 2.9 2.8-2.8-2.8-2.8-2.8 2.8Z"/>
  </g>
</symbol></svg>
