<svg xmlns='http://www.w3.org/2000/svg' viewBox='0 0 696 830' fill='none'><symbol id='MMAC_Outline'>
  <g fill="#FDBE00">
    <path d="M124 439.5a203 203 0 0 0 3 48l7 34c9 38 27 71 52 101 13 15 27 28 42 41 18 16 39 27 62 33l28 6 19 2c11 .6 22 .2 33-1l21-5c10-2 20-4 29-8 19-7 36-17 50-31l24-23c13-13 24-27 34-43 12-19 22-39 28-60l8-33c6.3-26.5 7.7-54 4-81l-2-35c-3-27.3-9.4-54.2-19-80l-18-48a462.4 462.4 0 0 0-47-75c-15-18-33-31-55-39a515 515 0 0 0-56-14l-15-1a90 90 0 0 0-22 0l-17 2c-18 3-36 8-54 15-10 3-19 8-28 14-8 7-16 14-23 23-11 13-21 27-31 42-7 11-12 22-17 34l-17 44a323.8 323.8 0 0 0-21 102l-2 36m451-17-1 39-3 25-2 21c-3 22-9 43-18 63-14 28-32 54-54 76l-19 19c-19 17-41 28-65 35l-28 5-16 3-14 1-9 1-25-2-26-5a164.5 164.5 0 0 1-75-34 276 276 0 0 1-85-118c-5-13-8-26-10-40l-5-45c-2-19-2-38-1-58l1-28 4-27c3-22 9-42 17-63l14-35c5-12 11-24 18-34 9-13 17-25 27-36 15-18 33-32 53-43 11-5 23-10 35-13l21-7c9-2 18-2 27-2h21c11-1 22 0 32 3 15 5 29 9 43 16a172.9 172.9 0 0 1 62 46 471 471 0 0 1 43 67l19 51a414 414 0 0 1 19 119"/>
    <path d="m179 430.5 2 38 9 39a361.7 361.7 0 0 0 32 61 222 222 0 0 0 70 57c8 4 17 9 25 11l17 5 11 2 14-2c14-4 28-9 42-17l18-11c23.6-15.6 44-35.7 60-59 9-16 17-32 23-50 6-19 9-38 10-58 .6-20.7-.8-41.5-4-62l-7-28c-6-25-16-48-28-69l-15-26a142.8 142.8 0 0 0-32-36l-18-12c-4-4-9-6-14-9-8-3-16-7-25-9l-14-5c-6-3-13-3-19 0l-12 4a172 172 0 0 0-91 67l-17 29c-9 17-17 34-22 52l-10 35-3 21c-2 11-2 22-2 32m-8-9c.2-17.2 2.2-34.3 6-51a236.5 236.5 0 0 1 48-110l12-15 10-12 16-16a560 560 0 0 1 31-22c15.9-7 32.7-11.7 50-14l10 1a160.4 160.4 0 0 1 61 24c9.5 7.8 18.5 16.2 27 25l14 17a253 253 0 0 1 54 104l7 29 3 26a721 721 0 0 1-3 55 246.8 246.8 0 0 1-18 63l-11 25a250.2 250.2 0 0 1-52 63c-14 10-29 18-44 24-11 5-23 9-35 11h-24c-17-3-33-9-48-17l-19-11c-14-9-26-19-36-31-9.2-12-17.8-24.3-26-37l-18-42a303 303 0 0 1-15-89"/>
    <path d="m397 467.5-1-5-3-3c-4-2-8-1-11 3-2 3-2 8 1 11 2 2 6 3 9 2s5-4 5-8m-56 52 4-1 3-4 6-8 20-23 4-6v-1h-1l-2 1-21 10-6 3-16 9-2 2c-3 1-4 4-2 7l5 7c2 2 5 4 8 4m-19-86 2 5 4 2 15 7 6 2c8 2 15 5 22 9l5 3h3c1-1 0-2-1-3l-10-10-7-6-12-13-7-7-1-2c-3-3-6-3-9-1-4 3-8 7-9 12l-1 2m70 10v9l1 2 2-1 2-4 2-5 18-33c1-1 3-3 3-5 2-3 2-6-1-9l-2-2-12-4h-3c-2 0-4 1-4 3l-1 5-1 8c1 6 0 13-2 19l-1 5-1 12m-78 12-1 4 1 5c1 2 3 3 5 3h33l14-1 8 1h2l1-2-1-2-5-2c-8-2-15-5-22-9-2-2-5-3-7-3-5 0-9-2-13-4l-5-2c-5-1-10 2-10 7v5m70-65-10 2c-5 2-6 5-5 10l5 14c2 6 4 11 4 18l2 6 3 12 1 2h3c1 0 2-1 2-3l1-11v-17l1-10 2-12v-4c0-2-1-4-3-5l-6-2m-26 8c-2 0-5 0-7 2-4 2-7 5-9 9-2 3-2 5 1 8l2 1c7 7 14 14 19 22l5 5 10 12 2 1h1v-2l-3-12-4-10c-3-6-5-12-6-19l-3-12c-1-4-3-6-8-5m-31 73h-7c-3-1-6 2-6 4v7l5 11c2 3 4 4 7 3l4-1 17-8 7-3 16-8 5-3 2-1v-1l-1-1h-35l-14 1m-5 35h-1l-4 2-26 13-11 6-28 19c-4 2-5 7-2 11s7 8 12 11c5 2 9 5 12 10 2 2 5 3 7 0l5-4c6-8 13-15 21-21l9-9 13-15 4-4 1-3-2-2c-4-3-7-7-9-11v-2l-1-1m88-205c-5 0-7 2-7 6v2l-1 17-2 15v11c.7 11 0 22.1-2 33 0 1 1 2 2 1h3a18 18 0 0 1 15 2c3 1 4 0 5-2l13-26 11-24 7-13c1-3 1-4-1-6l-3-2c-5-3-10-4-15-5l-14-5-6-3-5-1m-112 166h7c2 0 3-2 2-4v-9c1-4 2-7 5-10l2-1-1-3h-1c-8-2-15-6-23-9-4-3-9-4-14-5-10.6-2-21-5-31-9l-4-1c-2 0-4 1-5 3l-2 6a333 333 0 0 0-5 22l-1 14v1c0 5 3 8 7 8l11-1h35l18-2m100-143v-18c0-3-1-6-5-7h-1c-6 0-12 0-18 2l-9 3c-4 2-9 2-15 2h-4c-1 0-2 0-3 2v3l2 5c3 11 7 21 9 32 1 8 3 15 6 21 3 5 4 10 5 15l1 3 3 1 1-1c3-3 7-4 10-4s5 1 8 3l3 1c2 0 3-1 3-3v-5l2-24 2-21v-10m-158 80c0 3 2 6 5 7h1c11 3 21 7 31 12l11 3c9 2 17 4 25 8l1 1c2 1 4 0 4-3l1-4c0-6 2-11 8-14l1-2v-2l-1-1-11-14-8-10-11-12-15-19-3-3c-2-2-5-2-6 1l-1 2c-2 5-6 9-10 13l-3 3c-4 3-7 7-8 11l-2 5-7 13-2 5m53 68h-19l-5 1-21 1-12 1-5 1c-2 1-3 3-3 6l2 10v14l2 13 6 10c2.2 3 3.9 6.4 5 10 1 2 3 3 5 3l2-2a417 417 0 0 1 36-21l13-8 14-8 2-1 1-3-2-1c-4-4-6-10-5-16l1-5c1-4 0-5-4-5h-13m62-79h4c2 0 3-1 2-3l-4-16c-1-9-3-17-7-24l-5-13-3-12-3-10c-1-4-4-5-8-4l-1 1-18 6c-4 1-7 3-9 6l-5 5c-5 6-11 10-17 13-2 1-3 2-1 4l4 5 10 11c6 6 12 12 16 19 3 5 6 8 11 11l12 11 1 1c2 2 3 1 4 0l2-4c3-3 6-6 11-7h4m-135 101v-18l-1-13 2-21c.5-9.8 3.3-19.4 8-28l2-7 1-4c0-4 2-9 5-13l4-6 6-11c2-4 4-8 8-11l14-19c3-4 6-7 11-9 6-3 12-7 17-12l9-7 14-7 9-2 8-3c5-3 11-4 16-4l20-4 14-2 18-1c5 0 9 1 13 3l5 2 13 4c5 0 9 1 13 3l13 7c5 3 5 3 4 8l-2 4-9 17-4 8c-5 15-13 28-22 42l-3 7v3c0 3 0 7-2 10l-4 6-7 13-13 24v18c-1 5-4 7-9 8l-6-1c-2 0-4 0-5 2l-14 16-5 7c-3 7-9 12-14 18l-5 2-3 2-14 14-17 18-12 13-17 16-3 3c-2 1-3 1-4-1l-2-2c-3-4-6-7-10-9l-4-3-8-10-6-9c-4-5-8-11-10-18l-7-21-2-3c-2-3-3-7-3-11v-8m254-45c0 11-2 21-7 30-5 11-12 19-22 26-6 5-14 9-22 13l-20 8-18 9c-18 9-29 23-35 42l-4 15c0 4-2 7-3 10h-1v-4c0-11 1-21 4-31 4-13 12-24 23-32 7-4 14-8 21-10l22-8c8-3 16-6 23-11 7-3 13-8 19-13 8-9 13-20 16-32 2-13 1-26-2-39l-3-9v-1h1l2 4 5 19 1 14m-122-205c-18 0-33 6-47 17l-14 16-12 15-13 17c-4 5-9 9-15 13-4 3-10 5-16 7h-10l-3-1v-1l6 1c6-1 12-3 17-6 6-3 11-7 15-11 6-5 11-11 15-17l11-16 11-14c5-6 10-10 16-14a69 69 0 0 1 68-8c11 5 21 11 30 18l2 3h-2l-11-5-24-10c-8-2-17-4-24-4"/>
    <path d="M314 344.5c0-3 2-5 4-5 3 0 5 2 5 5 0 2-2 4-5 4-2 0-4-2-4-4m-54 160c-3 0-6-3-6-6s3-6 6-6 6 3 6 6-3 6-6 6m14-109c-3 0-5-2-5-5 0-2 2-4 5-4 2 0 5 2 4 5 0 2-2 4-4 4m100-77c3 0 6 3 5 6 0 3-2 5-5 5-4 0-6-2-6-5s3-6 6-6m-113 126c0 3-2 6-5 6s-6-3-6-6c1-3 3-5 6-5s6 2 6 5m168-115c0 3-2 5-5 5s-5-2-5-5 2-5 5-5 5 2 5 5m-143 219c0 3-3 6-6 6-4 0-6-3-6-6 0-4 2-6 6-6 3 0 5 2 6 6m101-78v1c-3 0-6-2-6-5l1-1h2l3 5m.5 99.2c0 .4-.3 6.8-.2 13.3-6.8.5-5.7-13.3-5.3-15 .2-1.4-4.4 1.7-6.6 3.8.7 1.3 1.7 1 2.9.5-.5 6.2 3.9 11.8 9 11.7.2 6.4.9 12.5 2.7 13 .2.1.5-6.5.6-13.7 12.2-3.8 7.5-18.3 7.5-18.3-.2-.8-2 .3-6 4 1.6 1.6 2.4.6 3.6.2 1 2 1.4 10.5-5.1 13.1l.3-18c0-.2-.2-.3-.4-.3-1.8.2-5 3.4-7.5 6.1 1.4 2.2 3 .2 4.5-.4m5.9 19.1 2.8 2.8 2.8-2.8-2.8-2.8-2.8 2.8Z"/>
  </g>
</symbol></svg>
