<svg xmlns='http://www.w3.org/2000/svg' viewBox='0 0 696 830' fill='none'><symbol id='MPAC_Outline'>
  <g fill="none">
    <path fill="#FDBE00" d="m570.5 444.5-1-23-3-35a351.5 351.5 0 0 0-18-81l-19-49c-3-9-7-18-12-26-11-17-23-34-36-50-14-16-30-29-50-36a284 284 0 0 0-84-17h-10l-18 2c-20 4-39 9-58 16-11 4-21 10-29 17s-16 14-22 22l-22 30c-11 15-20 32-26 49l-12 33c-11 27-18 54-21 83-2.7 27.6-4 55.3-4 83l2 25 8 35c9 39 27 73 53 103l38 37a156.6 156.6 0 0 0 75 37l30 5c11 2 22 2 33 0h6l25-6c28-5 53-18 74-37l24-22a239.7 239.7 0 0 0 63-104l8-35c4-17 6-34 6-56m6-16c0 16 0 31-2 46l-4 31c-3 24-9 47-20 68a288.6 288.6 0 0 1-73 95c-19 17-41 28-66 34l-29 5a257.4 257.4 0 0 1-42 4l-52-8c-28-6-53-19-74-38a275.3 275.3 0 0 1-80-117c-5-11-7-23-9-35-3-28-5.2-56-7-84 0-17 1-35 3-52 3-32 10-62 22-91l13-34c4-10 10-19 16-29 8-13 18-26 28-39 16-18 35-32 56-43l48-18 8-1c9-2 19-2 28-2h14c14-1 27 0 41 5 15 5 29 9 43 16 20.7 10.2 39 24.5 54 42 17.5 21.4 33 44.6 46 69l20 53c7.7 26.5 13 53.6 16 81 2 14 2 28 2 42"/>
    <path fill="#FDBE00" d="m330.5 376.5 7 13c3 4 5 8 6 13l4 14v-3l5-15 10-19 1-3c-3 0-7-1-10-3l-6-7c-6 7-6 7-17 10m20-41 2-1 6-9 4-9c3-8 9-14 18-17l6-2c6-1 11-4 14-9l1-2 12-14 1-2-5 1c-11 2-22 6-32 12-6 3-11 7-15 13-7 10-11 22-12 34l1 5m-8 0 1-3-3-15c-5-17-14-30-30-37-10-5-20-8-31-10l-1 1 7 8 9 10c2 4 6 6 10 8l7 2c10 3 17 9 20 18l3 7c2 4 4 8 8 11m116-2-1-2-8-7c-13-9-27-13-43-11-15 2-29 8-41 18l-13 9v2h1c5 2 11 3 16 2l5-2 7-6 7-4c5-2 9-3 14-2l12 2c8 1 16 2 24 1h20m-118 9-11-9c-10-9-22-14-34-18a61 61 0 0 0-61 17l-1 1h22c8 1 16 0 23-1l12-2c8-1 15 1 21 7l6 5 6 2h10l7-2m11-152 6 10c10 15 24 26 41 32l29 9c7 2 14 4 20 8h2l-2-2-7-9-15-13a2491 2491 0 0 0-35-21c-12-6-24-10-37-14h-2m-11-1h-2l-27 10c-10 4-20 8-29 14l-29 23-12 13-2 2h3c5-3 10-6 15-7l41-14c12-5 22-12 31-23l11-16v-2m10 161v1c5 10 13 14 24 16l1-1c5 0 10 1 14 3l6 3 9 4 8 1c10 1 17 7 22 16l4 13 5 15c4 10 11 17 21 19l3 1-4-6-10-22-13-26a71 71 0 0 0-51-33l-22-2c-6 0-11 0-16-2h-1m-9 0h-2l-9 2-18 1-14 1c-20 5-36 16-47 34-5 7-8 14-11 22-4 10-8 20-14 29v2h1c10-3 17-9 21-18l4-12 3-11 4-10c4-6 10-11 17-12l8-2c5 0 10-2 15-5l5-3 12-2h3c4-1 7-1 10-3 6-2 10-7 12-13m70 267-1-2c-2-7-6-13-9-20-4-8-9-15-15-22l-12-13c-12-15-22-30-27-49l-1-2-1 2c-5 16-12 29-22 42l-15 17-17 23-7 16-4 9 2 2c8 4 15 9 23 12 11 5 22 8 33 11h15l15-4c15-5 29-12 42-21l1-1m13-8h1l3-2c12-9 23-20 34-31 8-9 16-19 21-30l8-18c13-25 19-53 20-81 .8-20.4-.2-40.8-3-61l-8-30c-6-26-17-51-31-75l-10-12a86 86 0 0 0-37-21l-16-4-22-8a69.1 69.1 0 0 1-37-43l-2-2-2 7c-4 11-11 21-21 29-8 6-16 11-26 14l-22 6c-12 3-23 8-33 16-5 4-11 8-14 13-6 8-12 16-16 25-7 11-12 23-16 36-5.1 17.5-9.8 35.2-14 53l-3 38c.3 26.8 4.4 53.3 12 79a349.8 349.8 0 0 0 31 61c12 15 27 29 44 40l2 2 1-1 10-16c4-7 9-13 14-18a197 197 0 0 0 42-80c4.6-23.1 5-46.8 1-70l-6-27c-2-7-5-14-10-19l-3-5-4-1c-3.1.9-6 2.6-8 5-5 5-10 8-16 10l-7 3-9 7-5 9-7 14-12 15-11 8-17 3h-4l-2-1 3-5 9-20 10-23a87.9 87.9 0 0 1 73-50l2-1-4-4c-3-3-7-4-11-3l-6 3c-9 5-18 5-28 3l-13-4c-7-2-14-2-21-1h-5c-2 0-3-1-2-3l5-7a68 68 0 0 1 75-19c7 2 13 5 19 9l3 1c-2-4-4-7-8-8l-6-2-8-2c-6-2-10-6-13-11l-4-9a62.3 62.3 0 0 0-18-25c-1-1 0-2 1-3h6l9 1 28 10c16 7 27 19 35 35l1 1 1-2c8-15 18-26 34-33 12.3-5.2 25-9.2 38-12h6l1 3-3 2-6 7c-5 5-7 12-10 18l-4 8c-3 5-7 8-12 10l-6 2-8 2c-4 1-7 4-9 9l3-2 13-6c13-6 26-8 40-7 17 2 30 10 42 22l4 7c2 3 1 4-2 4h-4c-7-1-15-1-23 1l-14 4c-5 1-10 2-15 1l-12-4-5-3c-3-1-5-1-7 1-3 1-5 3-7 6l3 1h4a91 91 0 0 1 70 54l8 20 11 23 1 1-5 2c-14-1-25-6-34-17l-8-12-9-16c-3-7-9-11-16-14-7-2-14-6-20-12l-5-3c-3-1-4-1-6 1-5 6-9 12-11 19l-8 32c-2 7-3 14-3 22-.3 20 2.4 39.8 8 59l13 32c5 10 11 20 19 28l10 12c8 9 16 19 21 30m96-190a296 296 0 0 1-19 102 2037 2037 0 0 1-26 51 222 222 0 0 1-36 39c-17 13-36 24-56 31-10 4-20 6-29 7h-23c-18-4-35-10-51-20l-22-13c-8-5-15-11-22-18-12-13-22.4-27.5-31-43l-18-38a304 304 0 0 1-12-142c3-15 6-29 11-43 8-25 20-48 36-68l14-18 13-15a166.7 166.7 0 0 1 39-33c15-7 31-13 48-16 7-1 15-1 23 1 15 3 29 8 42 15a171.6 171.6 0 0 1 45 39l19 22c17 21 30 46 39 72 4 11 6 23 9 34l5 26 1 10 1 18"/>
    <path fill="#FCBF00" d="m286.5 476.5-2 1c-3 5-8 9-13 12l-8 4c-4 1-7 3-10 6-4 4-8 8-9 14-1 4-2 9 0 13s5 7 10 8h4c7-1 13-4 17-9l9-15c2-5 3-9 3-14l-1-16v-4m1-11 1 1c2 8 4 17 3 25l-2 9-2 12c-1 5-3 9-6 14-6 8-18 13-28 11-4-1-8-4-10-7-4-5-5-11-5-17 1-6 3-11 8-14l8-4c12-5 22-14 29-25l3-5h1m121 11-1 3v16l1 8c1 9 6 17 12 24l7 5c4 2 8 2 12 2 6-1 9-4 11-9v-9c-1-5-3-10-6-14s-7-6-11-8l-8-4c-7-3-12-7-16-13l-1-1m-1-11 3 4 8 10c5 6 11 11 18 14l9 4c5 3 9 8 10 14 2 9-1 16-8 22-3 3-6 4-10 4-12 0-21-4-27-15-2-5-4-10-4-15l-3-14c-2-9 0-18 3-27l1-1"/>
    <path fill="#FDBE00" d="M347.5 268.5v-1l9-18c2-5 1-9-2-14-3-3-7-4-11-2l-5 5c-2 4-2 8 0 12l9 18m0 9c-2 0-2-2-3-3-5-9-8-19-10-29l-1-8c1-4 3-6 6-8 5-2 9-2 14 0s7 5 7 10l-1 7c-2 10-5 19-10 28l-2 3"/>
    <path fill="#FCBF00" d="M344.6 589.7c0 .4-.3 6.8-.2 13.3-6.8.5-5.7-13.3-5.3-15 .2-1.4-4.4 1.7-6.6 3.8.7 1.3 1.7 1 2.9.5-.4 6.2 3.9 11.8 9 11.7.2 6.4.9 12.5 2.7 13 .2.1.4-6.5.6-13.7 12.2-3.8 7.6-18.3 7.6-18.3-.2-.8-2 .3-6 3.9 1.6 1.7 2.3.7 3.6.3 1 1.9 1.4 10.5-5.2 13.1l.3-18c0-.2-.2-.3-.4-.3-1.8.2-5 3.4-7.5 6.1 1.4 2.1 3 .1 4.5-.4m5.9 19 2.8 2.8 2.8-2.8-2.8-2.8-2.8 2.8Z"/>
  </g>
</symbol></svg>
