<svg xmlns='http://www.w3.org/2000/svg' viewBox='0 0 696 830' fill='none'><symbol id='OPIC_Outline'>
  <g fill="#9BADFA">
    <path d="m569 447.2-1-17-2-27-1-13a242 242 0 0 0-3-24l-3-20c-4-17-9-33-15-48l-12-31-8-21c-5-12-12-22-19-32-12.3-16-24.9-31.7-38-47a108.4 108.4 0 0 0-42-25 329.6 329.6 0 0 0-65-15h-29l-20 3a367.9 367.9 0 0 0-66 22c-13 8-24 18-33 29-11 13-21 27-30 41-7 11-13 22-18 35l-14 35a327 327 0 0 0-22 87l-1 20-1 11-1 19-1 13v10l1 18 3 20a1147 1147 0 0 0 15 58c13 33 31 62 57 87 11.5 11 23.2 22 35 33 17 12 36 22 57 27l27 6 7 1 20 1 20-1h2l28-6c30.1-6 57.6-21 79-43 11.6-11.4 23-23.1 34-35a240.7 240.7 0 0 0 52-109c4.8-20.3 7.5-41.1 8-62m-223-327h20c8 0 17 1 25 4 12 3 23 7 35 12 25.5 10.6 48.1 27 66 48 11 12 20 25 29 39 7 10 12 20 16 31l18 47a265.2 265.2 0 0 1 16 68 505 505 0 0 1 3 46l1 14-1 22-2 21-2 17c-2 15-3 29-7 44-2 10-6 20-10 30a290.8 290.8 0 0 1-103 120c-15 9-32 15-50 19l-30 5a148.7 148.7 0 0 1-48 0l-21-4c-19-3-37-8-54-17-12-6-24-14-33-24a1021.2 1021.2 0 0 1-45-48 301.8 301.8 0 0 1-40-84l-5-25-3-24-1-19c-2-17-2-35-2-52l1-19 1-12 3-23c3-21.3 8.7-42.2 17-62l14-36c5-15 13-29 22-42l24-33a159 159 0 0 1 73-50l25-8a99 99 0 0 1 27-5h21"/>
    <path d="M317 537.2v4l2 4 4 6 1 1v-1a114 114 0 0 0-6-16h-1v2m10 12v2l3 10 5-11-8-1m95-99h-1l-12 1c-1 5-4 8-8 11l-5 5-2 2v1h1l2-1c9-5 17-11 24-18l1-1m-108 135 1 1v-1l12-18v-4l-9-14h-1v6l-3 30m-104-57-1-3-3-6a511.6 511.6 0 0 0-17-19h-1l1 2 14 34h1l1 1c4-2 5-5 5-9m144-173h-5v1l1 2c4 6 7 12 9 19l8 20 1 1v-1l-1-14-2-20c0-4-1-4-3-6h-2c-1-2-3-3-6-2m-95 136h-1l1 1 15 15 11 9 2 2h1l3-14-1-2-2-1c-9-5-18.8-8.4-29-10m109-53-1 2c-3 4-6 8-11 8h-1l-1 2 2 8 3 28 1 2h1v-2c3-16 5.2-32 7-48m44-167v6l1 1c5 4 12 3 15-3l1-8-2-5-6-10-2-3h-2c-4 1-6 3-6 7v3l1 12m11 313-1-9c-1-2-2-5-4-6h-2l-10 10-2 2 1 10c1 4 3 7 7 8 2 1 4 1 6-1l3-4 2-10m81-193h2c2 0 2-1 2-3l-3-14-4-14c0-2-2-3-4-3-2-1-5 0-7 2l-3 2-1 7c1 6 3 11 6 16s7 7 12 7m-134 87c-1 1 0 2 1 1l18-8 7-8 7-12v-1h-7c-9 0-16 4-23 8l-1 2-2 18m15 31c4 0 8-2 11-5l5-7c3-3 4-7 3-11 0-4-1-5-5-6h-8c-4 1-8 4-10 7l-4 12-1 3c-1 2 0 4 3 5l6 2m-100-195-20 2-3 1h-1l1 1 4 1 13 7 12 7 7 2 1-1-1-2-4-10c-1-1 0-2 1-2l11 2 15 7c7 4 13 9 19 16l4 2 4 1c0-2-2-2-3-3l-18-16a62.6 62.6 0 0 0-42-15m48 232h3c2 0 3-1 4-3l3-6c2-4 2-5 0-9l-2-3c-2-4-5-6-8-7l-9-3-6 1-2 2 1 4c-1 3 0 5 2 8l5 12c2 4 2 4 6 4h3m25-235-3-13c-3-7-5-14-9-20l-8-12-10-14-8-11-4-4v1l2 9 2 7c2 9 5 18 11 26l4 5 18 22 5 5v1-2m-106-45v-6l-2-8c0-2-1-3-3-5s-3-2-5 1c-6 7-11 16-16 25v2c1 6 4 10 10 12 5 2 9 1 12-3l1-2 3-9v-7m101 331 10-3c12-5 23-10 33-17l19-16 12-15 1-1h-2c-12 3-23 9-33 17l-11 10-11 11-18 13-1 1h-1 2m25-257 1-1 6-8c5-7 7-14 9-22 3-11 5-23 6-34l1-10 3-18h-1l-2 3c-9 15-15 31-17 48-2.3 14-4.3 28-6 42m13 107 15-2 19-3c11-1 21-5 30-11l19-14 1-1h-1l-13 1c-8 1-16 3-23 6l-24 9a82 82 0 0 0-23 14l-1 1h1m-92-122v1l2 3 11 20c6 11 13 20 23 27l19 15 5 5h1l-1-2-10-18-17-26c-8-11-20-19-32-25h-1m121 90-1 7v1h1c6-3 12-5 19-6 5-1 4-1 7-6l1-2 5-22c1-8 3-15 6-22h1l-1-1-10 9c-8 6-14 13-20 22-3 6-6 12-7 19l-1 1m-78-12-3 1-3 1c-4 4-7 8-6 14 2 7 5 13 10 19 3 4 7 5 11 4l8-2 4-2c2-1 3-2 3-4l1-5-3-6-6-9-3-5c-2-4-6-6-10-6h-3m67 90-1 5c-1 4-4 8-9 10l-8 3-6 3c-3 5-7 9-12 13l-10 8h2l21-10 15-10 8-8 13-12 8-8 4-4 3-6c4-5 6-11 8-17v-1h-1l-14 10c-8 4-16 8-22 15l-1 2 2 7m-40-228c0-10-2-19-5-28-1-6-4-11-6-16l-6-14-1-2-1 2v2l-2 16v15l5 19 4 16 8 23 1 1v-2l1-6v-4l2-22m76 44h-1l-9 9c-10 9-17 19-22 31l-8 21-13 26-4 5v1l6-5 7-6a131.2 131.2 0 0 0 34-56c3-8 5-17 10-25v-1m-154 75h-1v1c5 6 9 12 12 19l4 7c2 5 4 10 8 13l6 6c9 8 16 16 22 26l7 11 5 9 1 2 1 1v-1l-2-14-2-13-3-4-8-3c-4-2-8-5-11-9-5-6-6-13-4-21l1-3v-3l-12-12c-2-3-5-5-8-6-5-4-10-5-16-6m23 158c1-7 0-14-1-21l-4-18-5-15-4-9-1-1v1l-1 10-2 14-1 12v10c1 7 4 13 6 20l7 25 3 11v1l1-1 1-16 1-23m55-214v12l1 6v1l1-1 5-15 3-24 6-29a120.5 120.5 0 0 1 22-40l2 1 1 1 1 5v3l1 1 2-2c4-2 7-2 11 1 4 2 6 6 6 11v12c0 4-3 8-7 10-3 2-6 3-9 2l-3-1-1 3v3c-1 10-5 19-9 27-8 14-17 27-30 37l-2 5v3l2 17 1 20c.3 8.3.3 16.7 0 25l1 1v-1l11-23 12-26a167.8 167.8 0 0 1 44-64l7-5h2v4l-4 12-3 19a79.9 79.9 0 0 1-36 58l-21 12-4 4-2 3-6 19-2 19 2 1 8-5 2-1c8-7.4 16.7-14.1 26-20l1-3 2-9 11-22c8-13 18-24 32-33l6-3 2-1 1 1-2 6-2 13-1 13c0 8-1 15-6 22v1h1l13-1 8 1 2 1v1l-1 1-11 10-15 13a53.8 53.8 0 0 1-21 9c-2 0-4 1-5 3l-5 5-22 14-27 12c-2 0-2 1-3 2v4l-6 27-3 11 17-13 2-2-1-1-2-1c-4-2-6-6-6-11s2-9 6-12l9-7 7-3h8l4 1 3-3h1c7-6 14-11 22-14l15-7 3-2 2 2-1 2c-2 10-5 19-10 28-6 13-15 22-26 30a373.7 373.7 0 0 1-55 27 6.4 6.4 0 0 0-5 5c-6 14-12 27-19 39l-14 23-1 2v1h1l2-1 25-19a907.2 907.2 0 0 1 35-30c12-8 25-15 39-19l9-1h5l1 1-1 2c-6 6-10 14-15 21v2c5 2 8 6 10 11 4 11-3 21-12 24h-4c-6-2-9-6-11-11l-1-7-1-1a80.7 80.7 0 0 1-37 15c-12 2-23.7 5.4-35 10l-12 7-5 4-5 8c-2 3-2 3 2 5h1c10.4 4 21.1 7 32 9 6 1 11 0 15-1l4-1c12-3 24-8 36-14a375 375 0 0 0 40-26l26-25c8-8 14-17 19-27l13-25a183.2 183.2 0 0 0 17-85l-1-34-1-8c0-1 0-2-2-1-5 1-10 0-15-2-6-3-9-7-9-14v-8l2-9c1-3 3-5 6-6l6-1c2 0 3 0 2-2l-4-14c-5-16-12-32-21-47l-15-27-12-18-10-11-9-9-23-15-11-6c-14-7-28-11-41-16-5-2-10-2-15 0l-29 10c-12 5-23 10-33 18l-10 7c-6 4-12 9-17 15l-2 3 3 2 2 2c5 4 7 9 9 15v7c-2 9-6 16-14 21-3 2-7 2-10 1-4 0-7-2-10-5l-3-4c-1-2-1-2-3 0l-7 14c-8 14-15 29-19 44l-9 33c-3 8-4 17-5 25l-2 25c-.8 23.9 1.5 47.8 7 71 1 2 1 2 3 2l4 1c7 2 12 7 16 12l3 7v16c0 2-2 5-4 6l-2 2v2l6 12a238 238 0 0 0 78 69h2l1-2 14-22 2-7-1-1c-1-9-3-17-7-25l-6-12c-4-8-7-17-7-26 0-2-1-3-2-3l-10-7-9-9-13-14-6-5v-1l8-1c7-1 13 1 19 3s11 5 15 8c2 1 2 1 3-1l3-16v-9l2-1 3 2c8 8 13 18 14 30l1 8c0 3 1 3 3 1l1-1c5-2 11-2 15 2l3 3c3 4 6 7 7 12h2v-1c4-10.5 7.3-21.1 10-32l-6-18c-4-10-10-19-19-26l-7-5-15-13c-5-6-9-13-12-20l-3-8-8-17-3-5 1-1 3-1 7 1c14.5 1.7 28 8.4 38 19h3c5-1 10-1 14 1a30.2 30.2 0 0 1 18 15v1l1-1c0-2 0-4-2-5l-4-6c-7-8-14-15-23-21l-11-7a61.9 61.9 0 0 1-22-28c-1-2-2-3-4-3l-4-2c-6-1-11-4-16-8l-14-10-12-9-1-1h1l8-3 17-3a71.2 71.2 0 0 1 48 14l17 15 13 13 3 3h1v-9l-2-19-10-13-11-10c-5-4-11-7-15-12-6-7-10-14-12-22l-2-14v-14l1-8c0-1 1-2 2-1l3 2 20 18c5 6 9 13 12 20l9 28 4 14h1l1-9v-6l-7-16-6-12c-5-10-8-21-8-32-.8-12.8.6-25.6 4-38l2-4 1-1 1 1 4 8 7 11c4 6 9 12 12 20 4 8 6 17 7 26 0 7-1 15-3 22l-4 10-4 8-1 4-1 20m151 92-5 50c-3 16-7 33-14 48l-14 31a150.6 150.6 0 0 1-31 44c-8 9-17 17-28 24l-30 17c-12 6-26 10-39 12-7 2-13 2-19 2l-10-2c-17-3-33-9-49-18l-21-13a140.6 140.6 0 0 1-40-38l-17-27-14-31a208 208 0 0 1-17-80c-1.2-21.7-.2-43.5 3-65l8-31a240.1 240.1 0 0 1 46-89l20-24 10-10 16-14c6-5 13-8 19-11a202.5 202.5 0 0 1 45-14c6-1 12 0 18 1 12 2 24 6 35 11 10 4 19 10 28 17a359 359 0 0 1 20 19l19 22a243 243 0 0 1 51 103c3 14 5.6 28 8 42l2 24"/>
    <path d="M244 399.2c2 0 3 0 4-2 2-1 3-3 3-5l-1-5-5-13-4-5c-2-2-4-2-6 0-3 2-6 5-6 10-1 8 3 15 9 18l6 2m11-14c0 4 0 7-2 10-2 5-7 7-12 6-9-2-15-10-15-19 0-5 1-10 5-14 5-4 10-4 15-1 4 3 7 7 8 12l1 6m-32.9 54.3c0 .4-.3 6.8-.2 13.3-6.8.5-5.7-13.3-5.3-15 .2-1.4-4.4 1.7-6.6 3.8.7 1.3 1.7 1 3 .5-.5 6.2 3.8 11.8 9 11.7.1 6.4.7 12.5 2.6 13 .2 0 .4-6.5.6-13.7 12.2-3.8 7.6-18.3 7.6-18.3-.2-.8-2 .3-6 3.9 1.6 1.7 2.3.7 3.6.3 1 1.9 1.4 10.5-5.2 13l.3-18-.4-.2c-1.8.2-5 3.4-7.5 6 1.4 2.3 3.2.3 4.5-.3m6 19 2.7 2.9 2.8-2.8-2.8-2.8-2.8 2.8Z"/>
  </g>
</symbol></svg>
