<svg xmlns='http://www.w3.org/2000/svg' viewBox='0 0 696 830' fill='none'><symbol id='PALC_Outline'>
  <g fill="#FDBE00">
    <path d="M124.4 436.3v11c0 13 1 26 3 38l7 35c9 39 27 73 53 103 13 15 26 28 41 40a154.4 154.4 0 0 0 79 36l24 5c14 1 28.1.5 42-2l17-3 30-9c18-7 35-17 50-31l23-22a234.3 234.3 0 0 0 63-104 562.3 562.3 0 0 0 13-68v-40l-3-37a351.5 351.5 0 0 0-18-81l-19-52c-5-11-10-22-17-32a524.7 524.7 0 0 0-34-47c-13-13-26-24-43-31-22-8-43-14-66-17-11-2-21-3-32-1l-18 1-26 6-32 10c-9 4-18 8-26 14l-23 22a504.1 504.1 0 0 0-48 76l-15 41-7 17a293.6 293.6 0 0 0-16 89l-2 33m451-10-1 30-2 24-3 25c-2 21-8 42-17 61-14 30-31 57-55 80l-19 19c-19 17-42 29-67 35-9 3-19 4-28 6l-17 2c-10 2-21 2-32 1-18-2-35-5-52-9-26-6-49-18-69-37l-31-32c-21-25-37-52-48-83-4-11-7-23-9-35l-4-40c-7.2-59.6-1-120.1 18-177l17-43a482.8 482.8 0 0 1 44-69c15-18 33-31 53-42a252.5 252.5 0 0 1 70-22c8.7-.3 17.4 0 26 1l22-1a316.9 316.9 0 0 1 68 21c21 11 40 26 55 45l25 34c8 11 14 22 19 35l16 42c8 21 14 43 17 65l4 64"/>
    <path d="M476.4 554.3v4l1-1 12-22c1-1 0-2-1-2l-11 1-1 1v19m-213-124-8 1c-2 0-2 1-1 2l2 4c4 3 8 7 11 12 2 2 4 2 6 0l3-5 5-7 4-4c1-1 0-2-1-2l-21-1m203-94h27c2 0 2 0 1-2l-3-9-2-1h-8l-18 2-15-1h-7c-3 0-4 1-5 3l-1 7 2 2h1l28-1m30 22h4l1-1-4-15-2-2-6 1c-6 1-11 2-16 1h-8c-8 0-16 1-24 5-4 2-6 5-7 10-1 1 0 1 1 1l2 1h34l4-1h21m-26 170 20 1 3-2 5-14h1c0-2 0-2-2-2l-14-1h-2l-18 1c-5 0-10 0-15 2-4 0-7 2-11 4-3 1-5 4-6 7v4l1 2 7-1 31-1m-205-45-2 14c0 6-1 12-4 17l-2 2c1 2 2 1 4 1l17-3c4 0 5 0 3-5-3-6-6-13-5-20l-2-11c-1-6 0-11 2-16l3-7 7-10 10-13-1-1h-1l-6 3c-1 3-3 6-6 8-2 2-5 4-6 7-1 1-3 3-5 3-5 2-10 0-12-5l-6-9-3-5-3-1h-2c-1 1 3 5 4 7l11 15c2 2 3 5 3 8l2 9v12m204-162c6.7-.5 13.3-.8 20-1l-1-3-16-32c-3-4-2-4-6-2h-1c-11 7-17 17-18 30v6c1 1 1 2 3 2h19m37 62 1-2v-1l-4-17c-1-2-1-2-3-2l-9 2c-6 1-11 2-16 1-4-1-8 0-12 1-9.2 1.5-18.2 3.9-27 7l-3 4-1 6 1 1h38l12-1c7.7-.2 15.4.2 23 1m-41 123 29 1 4 1c2 0 2 0 3-2l5-16c1-5 1-5-3-4s-8 2-13 1l-2-1-8-1-16 1-7 2c-3 2-7 3-11 3l-7 2c-4 2-6 5-7 9v3c0 1 0 2 2 2l5-1h26m45-43-1-2h-3l-10 2h-20l-13-1c-8 1-15 3-22 6-6 3-9 6-10 12 0 2 0 2 2 2h13l28-1h17c4 0 8-1 13 1h1c2 0 3 0 3-2l2-17m-46-57 4 1c8 0 15 1 23-1h12l6 1c2 0 2 0 2-2l-4-18-10 1-9 1-11-1h-16c-5 0-11 2-16 5-3 2-6 3-10 3l-2 1c-2 0-4 1-4 3v6c-1 2 0 2 2 2h1c10-2 21-2 32-2m15 25 27 1h4c2 0 2-1 2-3v-15l-1-1-1-1h-2l-14 1-9-1h-19a151 151 0 0 0-28 7c-5 2-7 7-8 12l1 1h2l14-1h32m33 15v-8c0-2 0-2-2-2l-23-1-12 1-16 1-11 4-13 7c-2 1-4 2-4 5 0 4-2 5 4 4h33l14-1 10 1 16 1c3 0 3 0 3-3l1-9m-175-242-2-12c0-2-1-2-2-1l-22 7c-12 5-23 10-34 18l-2 2v1l2 3 10 7 15 6c6 1 12 0 17-4l13-14 2-2c2-3 3-6 3-11m62 122c-3 0-5 1-8 3l-6 5v2l7 3c10 5 18 12 26 20l3 3 8 8h2l9-3 8-3c2 0 0-1 0-1h-10l-5-1c-2-1-3-2-3-5l1-4c1-4 3-7 7-9l9-3v-1h-1l-9-1c-3 0-4-1-4-3v-6c1-5 4-8 9-9h1v-1c-2-4-2-9-1-13l2-7c1-3 1-4-1-6l-3-2c-1-1-2-1-3 1l-1 1-14 16-4 3-5 5-3 4c-3 3-7 5-11 4m-176 90v7c0 2 0 2 2 2h16c9-1 18-1 27 2h13c8-2 17-3 26-1h9l2-1v-1l1-23 2-15c0-6-2-11-5-16-5-6-10-12-16-16-3-3-7-5-11-6l-16-2-6-1c-7 0-13 2-18 6l-16 12c-6 5-10 11-10 19v1c-1 6-2 12-1 18l1 15m-44 18a271 271 0 0 0 9 67c1 3 3 6 6 8 4 3 9 5 14 6l16 2c8 2 15 2 23 1 2 0 3 0 4-2 4-6 6-13 8-19 2-4 2-8 1-12v-10l1-7c0-5-1-9-4-13l-14-17-4-4c-1-2-2-2-4-2l-13-1c-5 0-7 0-8-7-1.3-10-1-20.1 1-30 2-11 7-22 12-32 1-1 3-3 2-4l-3-4h-3l-4 5-9 10c-3 5-7 8-12 10l-5 2c-7 5-12 11-13 21l-1 32m167 208h5l6-1c17-4 32-10 46-19l23-15a216 216 0 0 0 40-37c4-11 6-22 5-33l-1-2-15 3c-18 4-36 4-54 0l-34-9-37-9h-27c-8 0-16 2-24 4l-27 4h-19a112.2 112.2 0 0 1-38-11v2l16 32c3 8 8 14 14 21a243.2 243.2 0 0 0 81 60c12.8 5.3 26.2 8.6 40 10m23-445h4s3 0 0-1l-1-1-15-5-5-1-11-1-1 2v2c1 4 2 8 1 12l-6 18c-1 5-5 8-9 10l-10 4-12 3c-9 2-17 0-23-6-4-3-8-6-10-10l-3-1c-6 4-12 9-16 14a869.2 869.2 0 0 0-19 24l-18 32c-7 14-14 28-19 44l-8 28-5 17c0 2 1 1 2 1l17-15 15-13 4-3h6l3 2c2 2 2 2 4 0 4-4 8-6 13-8l15-3 5-3 5-4 10-9 9-10c3-3 7-5 11-6 7-1 12-4 17-9l15-12c3-2 5-2 8 0l4 5 12 12 19 22 4 5h2l7-6c3-3 6-5 10-6 3-1 6-2 8-5l8-8c4.8-8 11.3-14.8 19-20 2-1 4-1 6 1l5 3h2l7-6c3-3 7-5 11-6 2-1 2-1 1-3l-9-16a143.9 143.9 0 0 0-31-35l-20-14c-7-5-15-9-23-12l-4-1-12 1h-5l-8-1h-4c-1 0-2-1 0-1h1l9-1h8m68 338h12c2 0 3-1 3-2l-3-1h-20l-2-2v-8c1-4 3-7 7-8l6-2 4-1-1-1-11-1h-2l-2-2c-1-6 0-11 6-15l6-3c6-2 6-3 1-3l-9-1c-4 0-5-2-5-6l1-3c1-5 4-8 8-10l6-2 3-1c3-1 1-1 0-1h-9l-6-1c-3-1-4-2-4-5l1-5c0-4 3-7 7-9l11-4 5-1c2-1 1-1 0-1l-15-1-6-1c-2 0-3-1-3-3l2-7c1-4 3-7 7-8l10-3 3-1v-1h-20c-2 0-3-1-3-3l2-9c0-3 1-4 3-6l4-1 9-3v-1h-6l-7-2c-3 0-3-1-3-4v-6l-1-3c-8.6-7-17-14.3-25-22-5-6-11-10-18-13-5-2-10-5-15-10-8-7-14-15-20-24l-5-8-3-4-3-1-3 3-11 12-7 8c-3 3-8 5-12 6-4 0-8 2-11 4l-11 7-7 9v1l9 1c12 2 22 9 31 16 4 4 6 8 7 13l3 12c3.7 14.7 4.1 30 1 45-1 2-2 3-4 3l-4 1c-6 .5-12 .8-18 1-3 6-7 11-12 16-3 3-5 7-6 11l-1 6c0 5 0 9-2 14v9c2 8 6 16 10 23l2 1h3l22 1 28 6 42 9 32 5 17 1h1m84-115a290 290 0 0 1-19 100c-9 18.2-18.3 36.2-28 54a272.3 272.3 0 0 1-35 37c-16 11-33 21-50 28-11 4-22 7-34 9-8 1-16 1-23-1-17-3-32-9-47-17l-18-10a141.2 141.2 0 0 1-46-43c-7-8-12-17-16-26l-17-38a304.5 304.5 0 0 1-12-137l10-40c8-26 20-51 37-73l16-19 10-11a166.4 166.4 0 0 1 42-36c14-7 29-12 44-15 9-2 18-1 27 1 14 3 27 8 40 14l14 10c8.2 6.4 16.2 13 24 20l25 31c18 22 31 47 41 74l8 32 4 22 3 34"/>
    <path d="m310.4 284.3-1 12c-1 3-2 1-1-1l-1-11c-2-6-1-19-1-14v-22c1 0 1-1 2 3l1 9 1 24m59-30-4-4-17-16-2-2s-1-1 0 0l4 2 17 12c4 2 7 5 9 8l16 14h-1c-1 1-16-10-22-14m-101-11-4 7-11 16-5 8-13 15v1c-1 0-2 0-1-1l1-2 10-15c3-5 5-9 9-13l11-15 3-3v2m56 340c-12 0-24-2-35-7a74.3 74.3 0 0 1-24-18c-2-1 0-1 1-1l6 3c19 10.3 40.5 14.8 62 13l34-4c16.6-2.4 33.6-1.7 50 2 1 0 2 1 0 1l-7-1h-20c-10 1-19 4-29 6l-26 5-12 1m-98.1-98.5 2.8 2.8 2.8-2.8-2.8-2.8-2.8 2.8Zm-5.9-19.1c0 .4-.3 6.8-.2 13.3-6.8.5-5.7-13.3-5.3-15 .2-1.4-4.4 1.7-6.6 3.8.7 1.3 1.7 1 2.9.5-.4 6.2 3.9 11.8 9 11.7.2 6.4.8 12.5 2.7 13 .2 0 .4-6.5.6-13.7 12.2-3.8 7.6-18.3 7.6-18.3-.2-.8-2 .3-6 3.9 1.6 1.7 2.3.7 3.6.3 1 1.9 1.4 10.5-5.2 13l.3-18-.4-.2c-1.8.2-5 3.4-7.5 6 1.5 2.3 3.2.3 4.5-.3"/>
  </g>
</symbol></svg>
