<svg xmlns='http://www.w3.org/2000/svg' viewBox='0 0 696 830' fill='none'><symbol id='PHUC_Outline'>
  <g fill="#9BADFA">
    <path d="m569.1 447.5-1-25a713.9 713.9 0 0 0-8-70l-12-45-21-53c-4-12-10-22-17-33-8-12-17-25-27-37a140.6 140.6 0 0 0-41-35l-14-6-34-10-29-5-15-1h-14l-23 3c-16 3-33 8-49 14-10 3-20 8-28 15-9 6-17 14-24 22l-26 35c-10 14-18 29-24 46l-13 35a307.8 307.8 0 0 0-21 85l-2 23-2 29c0 20 1 40 5 60l10 41c9 31 25 59 46 84 7 9 16 18 25 26l18 17c18 15 39 26 62 32l28 6 29 3h10l17-3 9-1 25-6c23-7 43-19 61-35l24-23c13-12 23-26 33-41 12-18 21-37 28-58 6-23 12-47 14-71l1-18m-451-21 1-29 2-24c3-26 8-51 18-75l17-45c13.2-25.5 29-49.6 47-72 13-15 29-27 47-37 12-6 24-11 37-15l21-7c10-2 20-2 31-2h15c12-1 25 0 37 4 15 5 31 10 46 17a164.6 164.6 0 0 1 58 46c16 20.7 30 42.8 42 66l18 46c9 23.4 14.3 48 16 73l3 32v39l-2 25-2 25-5 33a282.4 282.4 0 0 1-91 141c-18 15-39 26-61 32l-28 5-30 4-7 1-23-2-27-4a166.5 166.5 0 0 1-80-37c-14-13-28-25-39-40-18-23-33-47-44-74-4-13-8-26-9-39l-5-40-2-34-1-13"/>
    <path d="M511.1 429.5v-18c-1-11-2-22-5-33l-7-26c-5-20-13-39-23-57l-16-29a140 140 0 0 0-68-62c-13-6-27-10-40-15l-9-1-7 2-12 4a267.5 267.5 0 0 0-41 19 824.6 824.6 0 0 0-26 19c-9 9-18 19-25 30l-14 25c-9 17-17 33-22 51l-10 35c-6 31.6-7.4 64-4 96 2 15 5 28 10 42a397.6 397.6 0 0 0 31 57 239.2 239.2 0 0 0 90 66l23 6c5 2 11 1 16 1 10-3 20-5 29-9 10-4 19-10 29-15 19-12 37-26 53-44 7-7 13-15 18-25l13-28c8-16 12-33 15-51l2-40m-340-8c0-12 0-23 2-34l5-22 7-29a233.6 233.6 0 0 1 53-93l6-7c12.7-15.8 28.3-29 46-39 12-6 24-11 37-14l16-2h5a151 151 0 0 1 77 33c7 6 14 13 20 21l10 12a257.2 257.2 0 0 1 55 106l6 29 3 18a268 268 0 0 1-21 125l-10 23c-5 11-12 22-20 31a174 174 0 0 1-68 53c-13 7-28 12-43 15-10 1-19 1-29-1-15-4-28-8-41-15l-28-16a148.2 148.2 0 0 1-41-41c-5-7-10-14-13-22l-18-39a267 267 0 0 1-16-82v-10"/>
    <path d="m316.1 448.5-1 3-1 5-4 13-3 12v1l7-9c3-4 5-9 6-14 1-6 1-6-3-10l-1-1m69 35v-2l-6-23c0-4-1-7-3-10l-4 3-1 3c1 5 2 10 5 15l7 11 2 3m-86-114v1l-4 17-6 19-3 10c-1 5 1 10 4 15 4 0 7 2 10 3l5 2c1 1 3 1 5-1l-2-13c0-5 2-9 3-13l-4-8c-2-4-3-9-2-13v-3c-1-6-3-11-6-16m94 0h-1c-3 6-6 13-6 20 1 5 0 9-2 13l-6 11 3 11v11c2 2 4 2 6 1l5-2 6-2c3-1 5-3 6-5l1-4c1-5 0-9-1-13l-4-11c-3-8-5-15-6-23l-1-7m15-31c2-1 2 0 3 1l9 12 3 9 4 13c2 10 8 18 15 26l2 1 5-5c5.5-7 12-13.5 19-19l1-2c-3-1-7-3-9-6l-10-11c-5-5-9-12-11-19l-4-11-4-8c-2-4-6-6-10-7h-2l-1-1 3-1c4 1 7 2 10 5l7 8 6 13c3 10 9 18 17 25l8 7 3 1v-2l-1-5-1-16v-5c0-5-1-9-4-12l-6-6-27-26-3-3c-5-4-11-6-18-6l-8 2-11 3-7 1c-4 0-8 2-12 6l5 4 4 3c4 1 7-2 11-1-2 4-6 4-8 6l3 5 2 5h-1l-5-4-6-6c-3-3-8-5-13-6l-21-3-19 3c-6 1-11 4-16 8l-5 5c-2 1-3 3-5 3 1-4 4-7 6-10l-4-2-3-2-1-2c4-1 7 2 10 2l5-5 4-3c-3-4-7-6-12-6l-9-2c-4 0-7-2-11-3l-10-1c-6 1-12 4-16 8l-29 29-4 4c-3 3-5 7-5 11v16l-1 8v5l2-1 4-3c10-8 17-17 22-29l2-6 4-8 6-7 7-4 5-1 1 2h-2c-5 1-9 4-12 9l-3 6-3 11c-2 6-5 12-9 17l-11 12-9 6-2 1 5 5a94.8 94.8 0 0 1 19 20l2 1c7-7 12-14 15-23l4-12 4-12 8-13 3-2h2-1l-1 2c-4 5-7 10-9 16l-2 8-1 11c-3 11-8 19-15 27l-3 3 2 1 10 7 12 11 3 3c1 2 3 3 5 3v-2c-3-5-3-10-2-16l4-11 5-12 4-12c2-6 2-12 1-18-2-4-1-9 1-13l3-4 3-5v-3h-1c-7-4-12-9-15-17l-7-11-3-3v-1l3 1c5 4 9 8 12 14l3 4c2 4 5 7 9 9 1-1 0-3 2-3l1 1v3l-2 11-3 6c-1 3-2 6-1 9l2 8c3 6 4 12 5 18 0 6 2 11 4 17l2 3c2-4 2-7 2-11l-1-8v-3l1 1 2 4c2 7 2 15 1 22l-1 23 1 6 1-10 2-8 1-1v10l2 20c2 10 2 19 2 29l1 29v2l1 16 2 19 5 17 5 11 6 9a58.2 58.2 0 0 0 23 19c4 1 5-1 4-4v-1l-2-9-1-5-3-1 2 6-3-1a64.7 64.7 0 0 1-11-34l-1-12v-53l2-26v-11l2-20 2-11 2-2v32l5-8 3-6 1-7-2-10c-3-9-3-17-2-26l2-5 2-1c0 8-1 15 3 22l6-9 3-15c0-5 1-10 4-15l2-8c2-4 1-8 0-12l-6-14 1-5 1-1 2 3c4-3 8-7 11-12l2-4c3-5 7-9 12-12h2l-2 3c-4 4-7 9-10 15-2 5-6 9-11 12l-4 3 2 5 3 4c4 5 4 11 3 17l-1 5c0 8 2 15 5 22l6 13 4 12c1 5 1 11-2 15v2l6-4 3-3c3-4 6-7 10-9l9-7 3-3-2-2c-8-8-13-17-15-29l-2-12c-2-8-5-16-11-21l-1-2m-87-40c6-1 11-2 17-1h10c6-1 12 0 19 1h2l3-1 1-1c4-3 8-6 12-7l18-4h13c6 1 11 3 16 6l29 20c4.6 3.7 9 7.7 13 12 5 5 6 11 5 18l-2 23-3 12-16 26c-5 8-13 13-23 16l-5 1c-4 1-7 3-9 6l-4 4-11 8-11 4c-5 2-9 2-14 0l-1-1c-2 1-2 2-2 4l4 13 6 20 1 7 1 2-2 1c-2 0-4 0-6-2l-4-5-8-17-3-6c-3 3-4 7-5 11l-1 19-1 43c-1 11 0 23 2 34l4 11h4c2 0 5 1 6 3 2 3 3 7 3 10 1 4 0 8-2 11s-4 4-7 4h-4c-11-3-20-9-26-19-3-6-6-13-7-21l-5-22-3-16-3-23-1-31v-5l-1 2-7 13-3 4-6 2-2-1 1-2 4-19 3-10 3-9c0-2 1-4-1-6l-2 1c-4 2-9 2-13 0-7-3.4-14-7-21-11l-5-5-9-6-6-1c-9-3-17-8-22-16l-5-7-8-14c-5-7-7-14-7-21l-2-17v-8c0-4 2-7 4-11l8-8 16-12 18-12 16-7h17l12 3c7 2 12 4 17 9l1 1"/>
    <path d="M434.1 574.5c-5-11-7-21-7-33 0-9 4-18 10-25 4-6 8-10 14-14l12-9 9-8c5-6 6-12 4-19-2-4-5-7-9-8-4-2-9-2-13 0-3 1-7 3-11 3l-5 1c-7 2-13 6-18 12-4 3-7 8-9 12l-5 11c-2 8-2 15 0 23l2 18 4 12c4 10 11 16 19 22l3 2m-35-54 1-15 2-7c1-6 3-11 7-16 4-7 10-14 17-19l11-8c4-2 8-4 12-4h9l9 3c8 2 12 8 13 16 0 6-1 12-6 17l-6 7-26 25-6 8c-3 4-5 10-5 15-1 10 1 19 5 27l2 5c1 2 0 3-2 3h-4l-5-3c-6-6-12-11-16-18l-9-17c-2-6-3-12-3-19m-142 53 5-2 11-10c6-7 9-14 10-23l2-14c2-6 2-12 2-19-1-7-3-13-6-19l-10-13c-4-5-9-8-15-10l-5-1-14-4c-3-2-7-2-10-1-6 1-10 5-11 10-3 7-2 13 3 18l5 5 10 8 9 6c6 5 11 10 15 16 3 4 5 9 6 14 2 12 0 24-6 36l-1 3m36-52-2 14c-4 10-9 20-16 29l-10 10-5 3h-5c-1 0-2-1-2-3l2-3 6-18c0-6 0-12-2-18-1-4-2-7-5-10l-5-6-25-25-7-7c-6-7-6-15-4-23 2-4 4-7 8-9l12-4h11c3 1 6 1 8 3 11 7 21 14 29 25 4 6 8 13 9 21l3 21m74-194 1 1 7 10 5 4c3 4 4 8 4 13l-1 1-1-1-1-2c-1-5-4-10-9-13l-4-6c-2-2-2-5-1-7m-59 30c-1-5 1-12 3-15l4-3c3-3 7-7 8-12h1l1 1-1 5-3 4-4 5c-3 2-5 5-6 9l-1 4-2 2m4 10c1-2 3-2 6-2 2 0 3 1 4 3l1 2c0 1 0 3-2 3l-3-1-1-1c0-2-2-3-4-3l-1-1m67 0-2 1-2 1-1 3c-1 1-3 2-4 1-2-1-2-3-1-4 1-3 3-4 6-4l4 1v1"/>
    <path d="m450.1 473.5 1-2c2-2 5-4 9-5l4-1 2 4c1 1 0 2-2 3h-2l-9 2-3-1m-208 0-3 1-10-2-3-1c-2-1-1-4 0-5l6-1 3 2 4 3c1 1 2 1 2 3m61.1 103c0 .3-.3 6.7-.2 13.2-6.8.5-5.7-13.3-5.3-15 .2-1.4-4.4 1.7-6.6 3.8.7 1.3 1.7 1 3 .5-.5 6.2 3.8 11.8 9 11.7.1 6.4.8 12.5 2.6 13 .2.1.4-6.5.6-13.7 12.2-3.8 7.6-18.3 7.6-18.3-.2-.8-2 .3-6 4 1.6 1.6 2.4.6 3.6.2 1 2 1.4 10.5-5 13.1l.2-18c0-.2-.2-.3-.4-.3-1.8.2-5 3.4-7.5 6.1 1.3 2.2 3 .2 4.4-.4m6 19.1 2.7 2.8 2.8-2.8-2.8-2.8-2.8 2.8Z"/>
  </g>
</symbol></svg>
