<svg xmlns='http://www.w3.org/2000/svg' viewBox='0 0 696 830' fill='none'><symbol id='PLAC_Outline'>
  <g fill="#FDBE00">
    <path d="M124.6 447.2c1.8 25.6 5.5 51 11 76 9 39 28 73 55 103a454.2 454.2 0 0 0 38 38c19 15 39 26 62 32l28 6c12.5 2.6 25.3 3.2 38 2l14-1 25-5a156.7 156.7 0 0 0 78-42l20-19a239.5 239.5 0 0 0 64-109l8-33a222 222 0 0 0 4-68l-4-46a367.1 367.1 0 0 0-18-76l-18-49a546.3 546.3 0 0 0-45-73l-23-22a94.7 94.7 0 0 0-32-18l-33-10-31-5-10-1h-23l-20 3-31 8c-9 2-17 5-25 9-8 3-15 7-22 13-9 6-17 14-24 22l-27 39c-8 11-14 24-19 37-7.5 20.7-15.2 41.4-23 62-9 27.5-14 56-15 85-2 18-2 38-2 42m451-25-1 34-2 25-2 18a220.6 220.6 0 0 1-60 134l-34 34a154.3 154.3 0 0 1-86 38l-22 3-13 1-4 1h-7l-27-3-27-5a159 159 0 0 1-74-36 280.1 280.1 0 0 1-81-113c-5-13-8-26-10-39l-4-40a322.2 322.2 0 0 1-2-76 452 452 0 0 1 17-93l12-32 9-23a421.6 421.6 0 0 1 45-68c14-16 30-29 49-39 12-6 24-10 36-14l22-7c9-2 19-2 28-2h19c11 0 22 0 33 3 17 5 34 11 50 19a165.4 165.4 0 0 1 56 45c15.9 20.7 30 42.8 42 66l19 48c8.8 23.4 14.2 48 16 73l3 48"/>
    <path d="M308.6 435.2v-1c-3-1-4-4-5-7l-4-7h-1l5 15c.7 2.7 2 3 4 1l1-1m81 3 2-6 4-12v-1l-1 1-4 7-4 7v2l2 2h1m19-19v2l5 18h1l4-3v-2c-4-2-5-5-6-9l-3-5-1-1m-123 1h-1l-3 5c0 4-2 7-6 9v2l4 3h1l6-18-1-1m63 135c0 2 0 3 3 3 2 0 2 0 2-2l1-4-1-9c1-4-1-5-4-4l-1 1v15m-3-15-2-1h-1c-1 0-2 0-2 2v4l-1 6 1 5 1 1h2l2-1v-16m62-101h1c2 0 2 0 2-2l-4-13c-1-5 0-4-6-4l-7 17c-1 3 0 3 2 3l3-1h9m-115-19h-3l-1 1v2l-4 13c-1 3-1 3 2 3h9l5 1 1-2-1-1-5-15c0-2-1-2-3-2m13 96 1 16 1 1 1 1 8-1 1-1-2-3c-2-3-3-7-2-10v-7l-3-22v-3l-3-3h-2v4c1 5 2 10 1 16l-1 12m83-32c-1-1-4 2-5 3v4l-2 18c-1 4-2 7-1 11 1 3 0 6-1 9l-3 3 1 1h10l1-13-1-14 1-17v-5m-36 4c0-1-1-6-4-8h-3c-3 3-5 6-4 10l1 9v20c1 3 0 5-1 7-1 3-3 6-7 8l-1 1s-1 1 0 0l5-1h17l5 1c1 1 1 0 0 0l-1-1-6-6c-2-3-3-6-2-10v-20l1-9v-1m-26 69h8c2 0 2 0 3-2v-12l1-3c0-1 0-2-2-2h-8c-4 1-7 2-11 1l-8-1-2 1-1 12v6l2 2 1-1 17-1m35-19h-5l-1 2 1 1v11l1 6 1 1h2l18 2 8 1 1-1v-8l-1-14-1-1-9 1c-3 1-7 0-11-1h-4m42-277c-6 5-13 11-17 18l-6 6c-2 3-5 4-9 4h-4c-9 1-9 4-9 5l2 1 14 11 10 9h2l7-18 5-17c2-6 3-13 6-18v-2l-1 1m-11 134h33l3-1-2-2-5-5-9-4h-11l-21 1-20 1h-26l-21-1-20-1h-14l-5 2-8 8c0 1-1 2 3 2h17c16.3-.5 32.7-.8 49-1l10 1h3l11-1 8 1 13 1 12-1m-110 157v9l2 1 5-1 12-1c2-1 2-1 2-3v-8c-2-8-1-15 0-23 1-6 1-13-1-20l-1-10 1-18v-11a78 78 0 0 1-1-21c0-3 0-4-3-3h-15l-1 1v31l1 14-1 12c-1 6-1 12 1 18 1 5 2 10 1 15l-2 18m128-101 1-7-2-1h-13c-4-1-4 0-4 3v19l-1 7 1 16c0 6 1 12-1 18l-1 15 1 8v17l-1 15 1 2h6l14-1v-13l-1-13c-1-6-1-12 1-18l1-12-1-9v-33l-1-13m-40 151c-9-1-17 0-25 3l-17 5c-14 5-28 8-43 9 0 0-2 1 0 1a169 169 0 0 0 35 17l15 4 9 2 14-2c13-3 26-8 37-14 10.7-6.5 21-13.5 31-21h-2l-30-2c-8-1-16-3-24-2m52 0h8c2 0 4 0 6-2 10-8 19-16 27-26l7-8 2-3v-1l-2 1a182.6 182.6 0 0 1-55 7c-22-1.1-44-2.8-66-5-18 0-35 2-53 5-11 3-22 5-34 6-10.2 1.7-20.7 2-31 1v1l9 9c9 9 18 16 28 23l6 2 14-1 30-6 31-7 25-1 26 4c7 1 15 2 22 1m4-180v-21l-1-2-10 1h-17l-20-2-8 1-8 2-22-1-4 1c-5 0-10 0-14-2l-5-1-16 1c-7.6 1.6-15.3 2-23 1l-9-1c-2 0-2 1-2 2v25c.7 12 0 24-2 36l1 13c2 11 2 23 0 34-1 7-2 14 0 21l1 24v10c-1 1 0 1 1 1l8-1c4-1 3-1 4-4l-2-25a42.1 42.1 0 0 1 1-19v-47a84 84 0 0 1-1-24c0-2 0-3-2-4l-4-4-1-3c1-4 2-7 5-10l5-5 5-2h11l6 2c1 3 3 4 5 6l4 4c1 3 1 5-1 8l-5 4-1 3 1 5c1 6 0 12-1 18l-1 11c1 3 1 3 3 3 3 1 5 2 7 5l4 7v9c-2 5-2 10 0 15l4 11c1 2 2 4 5 4 5 0 7-1 7-5l2-9 1-4v-3c0-4 0-7-2-11v-10l5-11c1-3 3-4 6-4 3-1 5 1 7 3l1 3 2 6c3 4 3 9 2 14l-2 10v3l1 5 2 7v3l2 2h7c2 0 3-2 3-4l3-8c3-6 3-11 1-17-1-5 0-9 2-13s5-7 10-8c1 0 2 0 2-2l-1-14-1-11 1-9c0-2 0-3-2-4l-4-4c-2-2-2-5-1-8l4-4 6-6c1-2 3-2 5-2l16 2 4 4c3 3 4 6 5 9 1 2 1 4-1 5l-3 4c-2 1-2 2-2 4 .7 7.3.3 14.7-1 22v13l1 15c-1.1 8-1.1 16 0 24l1 10-1 10-1 18-1 6 2 2h10l1-2v-1c0-11 0-21 2-32l-1-19c-2-13-2-25 0-38l1-18c-2-10-3-21-2-33m58-114-1-1-5-10c-9.5-16.4-19.2-32.8-29-49l-10-11a2093.5 2093.5 0 0 0-50-34l-21-9-14-4c-6-3-12-2-18 0l-11 4a283.9 283.9 0 0 0-43 19 913.4 913.4 0 0 0-25 19c-10 9-18 19-25 30l-14 25-16 33c-1 1-2 3-1 4l3-3 4-3 10-10 2-3c2-2 4-2 6-1l3 3 5 6h2l9-6a276.9 276.9 0 0 0 39-30c3-2 5-4 9-5 3 0 6-2 8-4l11-8 6-5h5l3 3 8 9 8 11 6 7 6 6h2l4-3 10-5 12-7c8.3-5.5 16-12 23-19 2-2 4-2 6-1l3 3 16 12c13 10 26 19 38 30l6 4 9 4c1 1 1 0 1-1m-305 122 2 41c2 12 5 23 9 35 6 17 14 33 23 49l5 9 4 2 34 1c4-1 4-1 3-5v-1l1-18 2-15-1-13a121.6 121.6 0 0 1 0-45v-15l-2-28 1-25c0-4 0-4-4-4l-2-1 1-2 1-1 15-13c2-2 5-3 7-3l18 1c6 1 11 2 17 1l17-2c15.3 1.4 30.7 1.7 46 1l9 1c4 1 8 0 12-1l18-1c2 0 5 1 7 3l15 14 1 1v2h-3l-1 1v33l-1 20v18l1 10-1 29c-2 9-2 17-1 25l2 15v13c-1 2 0 2 2 2h1c14-2 27-6 40-10 2 0 3-1 3-2l1-2a195.3 195.3 0 0 0 30-97c1.2-25.1-.5-50.3-5-75l-7-28-7-22c-1-2-2-4-5-5l-10-6c-5-3-9-7-12-12l-3-6c-4-6-10-10-17-12l-6-1v1l6 15c2 6 5 12 9 17l17 21 5 4 16 11 1 1h-1l-2-1c-8-4-17-10-24-16l-8-6s-1-1-1 1v16c-1 3 0 6 2 9l1 3h-1l-4-8-2-10v-8l-1-6-2-5c-6-7-9-14-11-22l-3-9c-2-7-3-9-9-14l-6-4-9-11-3-6c-1-1-2-1-2 1-2 2-3 5-3 8l-2 13c0 6-2 12-5 16l-1 3c-2 2-3 4-3 7l-1 5-1 7a39.2 39.2 0 0 1-13 19s-1 1-1-1l2-4 5-11-1-3-12-12c-2-3-5-5-8-5l-8-2c-6-1-11-5-15-10l-4-6-3-7-7-12-5-8h-1l-1 5-3 10c-1 9-4 16-9 23l-4 5a44 44 0 0 0-9 21c0 5-3 10-6 15 0 0-2 1-1-1l1-3 3-10c1-7 2-14 5-20v-1l-5 4-14 18c-3 6-7 10-12 14l-8 7-7 9-2 2v-1c3-7 7-13 12-18l4-3 11-14 12-14 8-8c4-5 8-10 11-17l7-16v-1l-3 2-7 6c-3 3-7 4-10 5-3 0-6 2-8 4l-6 6-7 9c-7 9-16 17-26 23l-9 6c-7 6-15 12-21 20l-1-1 4-10 8-10 5-6v-1l-8-8-1-1h-2l-2 2-7 8c-3 3-5 7-6 11l-6 13-7 13c-3 5-6 12-7 18-5 18.9-7.3 38.4-7 58m341-9a284 284 0 0 1-22 106l-9 20c-6 12-13 24-22 35l-14 16-20 17c-12 8-24 14-36 20-13 6-27 10-41 13h-19a132 132 0 0 1-47-15c-10-4-19-10-28-15-12-8-22-17-31-27l-11-13c-7-9-12-18-17-28l-17-39a215.6 215.6 0 0 1-15-74c-.4-20.1.9-40.2 4-60l7-30 6-20c10-29 25-55 45-78l16-19 9-8 20-17 16-10a190 190 0 0 1 50-14h3c13 1 24 4 36 9l9 3c9 4 18 9 25 15a375 375 0 0 1 21 19l25 29c18 22 31 47 41 74l8 30 5 21 3 33v7"/>
    <path d="M281.6 240.2c2 0 4 3 4 5-1 2-3 2-4 2-2-1-3-2-3-4l3-3m54-36c0 1-1 3-3 3s-3-2-3-4c0-1 1-3 3-3s3 2 3 4m63 23c0 1-1 3-3 3l-3-3c0-2 2-3 3-3 2 0 3 1 3 3m-38 10c2 0 3 1 3 3s-1 3-3 3-3-2-3-3c0-2 2-3 3-3m78 6-2 2c-2 1-3-1-3-3 0-1 1-2 3-2 1 0 2 1 2 3m-66 7-2 2-1-1 1-2 2 1m25 232 2-5c2-1 4-1 6 1v7l-4 2c-1 0-3-1-3-3l-1-2m1-24c0-2 0-3 2-5 1-1 3-1 5 1s2 6 0 8-5 1-7-2v-2m-1 49 2-4c2-2 4-2 5 0 2 2 2 7-1 9-1 1-3 1-4-1l-2-4m7 28c0 1-1 2-3 2l-3-2c-1-2-1-5 1-7 1-2 3-2 5 0s1 6 0 7m-6 14c2-1 4-1 6 1 1 2 1 5-1 7-1 2-3 2-5 0v-8m-102-67v1c-1 2-2 4-4 4-1 1-3-1-4-3v-6c2-2 4-2 6-1l2 5m-1-24c0 3-1 5-4 5-2 0-4-2-4-4-1-2 0-4 2-6h3c2 1 3 3 3 5m1 49-2 4c-1 2-3 2-4 1-3-2-3-7-1-9 1-2 3-2 5-1l2 5m-8 26 1-5c2-2 4-2 5 0 2 2 2 5 1 7s-4 3-6 0l-1-2m8 20c0 3-1 5-3 5-3 0-4-1-5-4l1-4c1-2 4-2 5 0l2 3M469 523.9l2.8 2.8 2.8-2.8-2.8-2.8-2.8 2.8Zm-6-19.1c0 .4-.2 6.8-.1 13.3-6.8.5-5.7-13.3-5.3-15 .2-1.4-4.4 1.7-6.6 3.8.7 1.3 1.7 1 2.9.5-.5 6.2 3.9 11.8 9 11.7.2 6.4.9 12.5 2.7 13 .2 0 .5-6.5.6-13.7 12.2-3.8 7.5-18.3 7.5-18.3-.2-.8-2 .3-6 3.9 1.6 1.7 2.3.7 3.6.3 1 1.9 1.4 10.5-5.1 13l.3-18-.4-.2c-1.8.2-5 3.4-7.5 6 1.4 2.3 3.2.3 4.5-.3"/>
  </g>
</symbol></svg>
