<svg xmlns='http://www.w3.org/2000/svg' viewBox='0 0 696 830' fill='none'><symbol id='PRAC_Outline'>
  <g fill="#FDBE00">
    <path d="m124.2 445.2 1 24 2 16c3.5 17.9 7.9 35.5 13 53a235 235 0 0 0 56 94l23 23c20 19 44.4 32.7 71 40l35 8 18 1 27-1a753 753 0 0 0 57-16c17-8 33-18 47-31l13-13c32.2-30 56-68 69-110a431.6 431.6 0 0 0 14-79v-22l-1-18-1-15a1305 1305 0 0 0-8-52c-3-17-8-33-14-48l-14-38c-6-16-14-30-23-44a722.8 722.8 0 0 0-42-52 115 115 0 0 0-39-23 377.3 377.3 0 0 0-61-15h-9l-15-1-8 1-22 2a366.2 366.2 0 0 0-69 24c-11 6-21 15-30 25l-33 45c-7 11-12 22-17 34l-16 44a334.4 334.4 0 0 0-20 90l-1 10-2 30-1 14m452-18-1 28-2 19c-2.7 20-5.7 40-9 60-3 10-6 20-11 30a291.2 291.2 0 0 1-48 74l-24 24c-20 19-44 31-71 38l-25 5-17 3a140 140 0 0 1-52-2l-25-4c-29.7-5.8-57.1-20-79-41l-22-23c-10-10-18-21-26-32l-19-33a196 196 0 0 1-20-67l-2-23-2-19c-2.7-23.6-3-47.4-1-71l4-33c3-25 10-49 19-72l14-35c4-11 9-21 16-31 10-14 20-29 32-42 18.7-20.5 42-36.3 68-46l31-11c10-2 20-3 31-3l19 1 6-1c11 0 21 1 32 4l37 13a174.3 174.3 0 0 1 65 48l29 40c7 10 12 21 16 32l14 36c6 16 11 31 14 48l4 20c1.3 9.3 2.3 18.6 3 28l1 24 1 14"/>
    <path d="M401.2 456.2v-4c-1-5 0-4-5-5l-2 1 1 6v7c-1 2 0 2 2 2h2l2-1v-6m105 18 1 8 1 1 1-8c2-10 3-19 3-29 1-4 0-4-4-3l-1 1v25l-1 5m-293 30v-3l-1-2c-4.6-.8-9.3-1.5-14-2-1 0-2 0-2 2l-1 12v1l2 2h1l11 1c1 1 2 0 2-1l1-3 1-7m174 16 1 3h14l-1-13-1-7-1-1-12 2 1 8-1 6v2m-184-63h8l2-1-2-14-8-1-6-1c-1 0-2 0-2 2 0 4.7-.2 9.4-1 14l1 1h8m157-11h-7l-1 1-1 6v7c0 2 0 2 2 2l15 1c2 0 2 0 2-2v-12c0-3 0-3-2-3h-8m-78 56h-1l-2 2v12c-1 2-1 2 2 2l1 1h15c2 0 2 0 2-2v-7l1-5-2-2-16-1m10-58h-6l-2 1-1 7 1 3v2c0 2 0 2 3 2l14 1h1l1-2 1-6 1-7-2-2-11 1m-42-3h-8c-2 0-3 1-2 3l1 13c0 2 0 2 2 2 4.3.4 8.7.8 13 1l1-2v-16l-1-1h-6m88 20 8 1c2 0 2-1 2-2v-8l-1-7-5-1h-12v7l-1 8c0 2 0 2 2 2h7m-71 57h9l1-1-1-8 1-6-2-1-17-1v1c1 2 0 5-1 7v2l1 6 2 1h7m86 4h8l2-2v-9l1-5-1-2-6 1-11-1-2 1v6l-1 3 1 6 2 2h7m-18 0h3c4 0 4 0 3-4l1-3-1-3-1-7-15-3c-2 0-2 1-2 3l1 4v11l1 1 10 1m-109-64 8 1 2-2v-6l1-3v-5l-1-1h-18c-2 0-2 1-2 2l2 14h8m87 44-7 1c-5 0-4 0-4 4v11c-1 1 0 1 1 2h14c3 1 3 1 4-2v-3l1-2-1-9-2-2h-6m69-39h8l1-1v-14c0-2 0-2-2-2h-12c-5 0-5 0-5 5l1 1v7l-1 3 2 1h8m-6 59h7l2-1-1-3v-6l1-8-2-1-12 1c-6 0-5 0-5 5v11l1 2h9m-127-23h-3l-4 1c-5 0-4 0-5 4v14l1 2 3-1h10l1-1 2-1 1-5v-11l-1-2h-5m16-39 15-1v-14l-1-2-12-1-5-1-1 2-1 7v7c0 3 0 3 4 3h1m53-18-7 1h-3l-1 1v6l1 8c-1 2 0 2 2 2l10 1c9 0 7-5 7-7v-10l-2-2h-7m-103 63v5l1 6 1 1 15 3c3 0 3 0 3-4v-14l-1-2h-17c-1-1-2 0-2 1v4m-26-79v-4l-1-1c-2 2-5 3-7 3l-2 1v3l1 14c.3 19.3 3 38.4 8 57 1 1 2 4 2 0v-17c1-10 1-20-1-29v-27m321 11h1v-1c-4-4-8-8-13-10-3-2-6-3-8-6-6-6-13-11-21-14l-12-9c-4-5-9-9-14-12l-5-2h-4l-14-2c-9-1-19-3-28-6l-9-3-21-5-29-7c-10-4-21-7-32-9h-3l3 2c14 6 28 15 40 26l17 14 9 5 27 17 19 16c4 3 9 5 15 4l16-1h13l10 3h12l19-1 12 1m-6 10v-2c0-2 0-2-2-2l-7-1-16-2h-13c-4 1-9 2-14 1l-17-1-15-1h-3l-8 1-1 1v3c0 11 0 21-2 31-2 7-2 13 0 19l1 5c1 8 2 16 0 24l1 1 8-2 19-3h23l15-3 19-2h5l2-2 3-7 1-3v-10c-1-4 0-9 1-14v-10l-1-12 1-9m-141 53h35c2 0 3 0 3-3l1-6 1-7-2-16c0-2 0-2-2-2h-10l-11 1h-16c-5 1-11 0-16-1-8-2-16-2-25-2l-21 1-31-2-20-1-22 1-13-1-18-2-2 1v11l2 21c0 2 1 2 2 2h9l37 1 12 1h27l21 2 24 2h5l30-1m21-58h11l5-2 1-5v-3h-4c-3-1-5-2-6-4v-1c-1-2-1-2-3-2-3 0-5-1-7-4l-1-2c0-2 0-2-2-2-4 0-7-2-8-5 0-2-1-2-3-2l-6-3-2-5-1-1h-1c-4 0-6-2-7-5l-1-2-1-1-2 1c-3 0-6-1-7-5-.7-1.3-1.7-2-3-2h-1c-3 0-6-1-7-3l-1-2-1-2c0-1.3-.7-1.7-2-1-4 0-7-1-8-5l-1-1-1-2h-2l-4-1c-3 0-5-2-6-5l-1-1h-3c-3-1-5-2-5-5l-1-2-1-1h-2l-1 2v1c-2 4-5 6-9 5h-2v1l-1 2c-2 3-4 5-8 5h-1c-.7-.7-1.3-.3-2 1l-1 2c-1 3-4 5-7 4h-2l-3 1-1 2c-2 3-5 5-9 4h-1l-1 1-1 1c-2 3-4 5-8 5l-2-1-2 2-1 2c-2 3-5 4-7 3h-4l-1 3c-1 4-4 6-8 5h-1l-2 1v1c0 4-3 7-6 7l-3 1-1 1 2 15v3c0 1 1 2 3 2h4l9-1h18l24 2h51l24 1h18l20 1c6 1 12 2 18 1m127-42-3-18-11-42c-4-13-9-25-15-37-1-2-1-2-2 0l-3 4-3 7c-3 6-7 10-13 14l-8 4c-1 1-3 2-4 1s2-2 3-3l8-7 8-7 11-16h1l-2-4h-1l-2 2-9 7c-6 4-13 7-20 8l-9 2c-5 1-11 3-15 6l-6 4-7 5-6 2h-3v-2l1-2 4-3v-1l-8-3-13-7-6-4-9-3-17 4v1l6 4v1l-7-3-10-5-7-5c-5-3-10-4-16-3h-4c-6 1-12 0-17-3l-5-4-8-6-8-7-2 1-3 14-2 12c-2 9-6 18-10 26l-1 1v-1l5-15 3-15 1-2h-1l-7 6a176.9 176.9 0 0 0-40 47l-2 3c-1 2-1 0-1 0a57.1 57.1 0 0 1 8-16c6-9 13-16 20-23l13-13 5-6c3-4 4-9 6-13l1-3c-2 0-2 1-3 2l-2 2-6 6c-7 6-15 11-24 15-12 5-22 12-33 18l-3 3-2 6-10 36a177.3 177.3 0 0 0-6 41s0 2 1 0l12-8 10-5a427.5 427.5 0 0 1 66-41l18-10 7-2 8 2 28 5c11 1 22 4 32 8l15 5 15 2c8 2 17 3 24 6 6 3 12 4 18 5l10 3 16 10 10 8 5 4c7.8 6.3 15.8 12.3 24 18l3 2 9 7c1 1 1 1 2-1l-2-31m-164-213-5 1-8 2-30 11c-7 3-14 6-20 11l-16 11c-7 4-13 10-18 16l-7 8-9 12-29 54-1 3 1 1 2-2c6-5 14-9 22-12a451.4 451.4 0 0 0 36-20l5-4c2-2 5-2 8 0l2 1 16 8c7 4 14 7 22 8 7 1 14 4 20 8l9 5h4l15-5c5-1 10-1 15 1l7 3a1223 1223 0 0 1 26 12c6-3 12-5 19-6 8-2 16-5 24-10l15-11 3-1v-3l-1-2-13-22a134.1 134.1 0 0 0-33-40 1647 1647 0 0 0-36-22c-13-6-25-10-38-14l-7-2m-1 455c4 1 9-1 13-2 15-3 28-8 40-16l17-10a219.5 219.5 0 0 0 61-57l14-25 6-15v-1l-3 1-10 2-17 1-17 2-15 3-32 2h-2l-16 2-16-1-25-3-20-1c-14.3-.1-28.7.2-43 1l-19-1-16-1-13-1-12 1-21 1h-1v3l13 25 11 17a258 258 0 0 0 89 65c11 3.8 22.4 6.4 34 8m174-215c-.8 33.3-7.6 66-20 97l-13 27c-4 9-10 18-16 26l-16 18c-6 7-12 12-19 17-13 10-28 18-44 25-10 4-20 7-31 9l-4 1-18 1-9-2c-16-3-31-9-45-16l-25-15c-10-7-20-15-28-25a608.3 608.3 0 0 1-26-36l-17-39a209.7 209.7 0 0 1-16-68 332.2 332.2 0 0 1 1-59c2-15.6 5.4-31 10-46 3-12 8-24 13-36 12.4-27.3 29.7-52 51-73a142.4 142.4 0 0 1 30-28l15-9 29-11c7-2 15-4 23-4l9 1c16 2 31 8 45 14 7 3 13 7 19 12l16 14 8 9 16 19a244 244 0 0 1 52 102c3 11 6 21 7 32l2 17 1 26"/>
    <path d="m350.2 578.2-15-1-27 1-8 2-6 3c-1 1-2 3 0 4l2 3a45 45 0 0 0 20 9l18 5c11 3 21 8 31 15l5 3-6-1-8-4-25-7-19-4-12-4-8-5-6-6c-2-6-1-11 4-15l10-4 8-1c9-1 18 0 27 1l23 3c6 0 12-1 17-4 2.7-1.1 5-2.8 7-5 3-5 2-9-3-12-3-2-7-3-10-3-8-2-15-1-23 0l-37 6c-12 1-25 2-37 1-6 0-13-1-19-3l-8-5c-2-1-4-3-4-5v-1h1c6 4 13 5 20 6l16 1 19-1 10-1 30-3c9 0 19-1 29 1l9 2 7 4c3 3 5 7 3 12l-5 6c-3 3-7 4-10 5-5 2-10 2-15 2h-5m-98-159 10-1h15l1-1v-9l-1-8-2-2c-5 0-10-1-15 1h-11l-2 1c0 4 0 7-2 11v6l1 1 6 1m-9-4-1-7v-11c1-2 2-3 5-4h15l11 1h6c2 0 3 1 3 4v7l-1 9v4l-2 2-6 2c-4 2-8 2-12 1l-4-1c-3-1-6-1.3-9-1-6-1-6 0-5-6m55-15h-2l-1 1v13l-1 3 2 1h29l1-1v-10l1-6c0-2 0-2-2-2l-13-1-6 1-8 1m4-6h4l11 1h10c2 1 3 1 3 3l1 7-1 14-2 2h-2l-9 2h-12l-10-2c-2 0-2 0-3-2l-1-4v-17c1-2 2-3 4-3l7-1m-11 86c0 2-1 4-3 4s-3-2-3-4c0-1 1-3 3-3s3 2 3 3m35 5c-2 0-3-2-3-3 0-2 1-3 3-3 1 0 3 1 3 3s-2 3-3 3m-74-8 3 3-3 3-3-3c0-2 1-3 3-3m113 7-3 2-2-3c0-2 2-3 3-2 1 0 2 1 2 3m-146-3-2-2c0-2 1-3 2-2 1 0 2 0 2 2l-2 2m230 7-1-1c-2 1-3 2-3 4v5c0 2-1 2-1 0v-4l-1-1-2 1v1l-1 4h-1v-3l-1-1-3 1c-1 1-2 0 0 0l2-2v-2l-2-1v-1l4 2 2-1v-2l-4-2-1-1h1l5 2 3 1 2-1c1-2-2-2-3-3h1l3 1h3l4-3v-1l-4-2h-2l-5 2s-2 0-1-1l2-1 2-1v-1l-3-1-7 2 2-1 3-2v-1l-3-1-3 1c-1 0-2 0 0-1l2-1v-1l-4-2c-2-1-1-3 1-2l2 2c2 1 3 1 3-2 0-1 1-2 1 0v3l2 2 2-1v-4c0-1 1-2 1 0v4l1 3c1 1 2 0 2-1l1-3s0-1 0 0l1 5 1 3h1l3 1 1-4c0-3-3-5-4-6h-1l1-1 3 2 1-1-1-3-4-2-1-1h1l4 2 1-1-1-3-2-2v-1h1l1 1 1-1v-3c0-1 1-2 2 0v3c0 1 0 2 2 1h1l-3 2-1 3 1 1 6-3v1l-5 3c-2 1-1 3-1 3l1 1c1-1 3-3 4-2l-4 3-1 3v5h3c4-3 3-5 3-6v-2c1-1 1-2 1 0l1 3 1 1 1-2 1-7s0-1 0 0l1 2 1 4c0 1 2 0 2-2l1-3 1-1v4h1l4-2h1v1l-4 2v2l3 1v1l-4-1c-2-1-3-1-4 1v1l5 3 1 1h-1l-6-4h-3l-1 1 1 1 3 3s1 0 0 0l-4-2h-4l-4 2 1 2 2 1c3 2 3 2 6 0h2l-1 1-2 1 1 1c1 1 3 2 4 1l4-3h1v1l-4 2v2l3 1s3-2 4-1l-2 1-1 1v1l3 3-3-1h-2v3l-1-3-3-3-1 1v2l-1 3v-6l-1-2c-1-1-1-2-2-1l-1 2v2h-1v-4c0-2 0-3-2-3l-4-2-1 1 1 5 1 2 3 2c2 2 0 1 0 1l-2-1h-2v2l5 4 1 2-2-1-2-2-2-1-1 1c0 2 0 3 2 4l2 3 1 1h-1l-3-2-1 2v2l-1 1v-1l-1-4h-1c-1 0-2 2-3 1l1-1 2-2 2-2-1-3-6 4v-1l5-4 2-3-2-1-2 1-2 1 2-1c0-1 4-4 4-6v-3l-1-1-5 2-1 2v3c0 1 0 3-1 2v-4"/>
    <path d="m448.2 484.2-3-2c-2-1-1 1-1 1m-23.6 74c0 .5-.3 6.9-.2 13.4-6.8.5-5.7-13.3-5.3-15 .2-1.4-4.4 1.7-6.6 3.8.7 1.3 1.7 1 2.9.5-.5 6.2 3.9 11.8 9 11.7.2 6.4.9 12.5 2.7 13 .2 0 .5-6.5.6-13.7 12.2-3.8 7.5-18.3 7.5-18.3-.2-.8-2 .3-6 3.9 1.6 1.7 2.4.7 3.6.3 1 1.9 1.4 10.5-5.1 13l.3-18-.4-.2c-1.8.2-5 3.4-7.5 6 1.4 2.3 3 .3 4.5-.3m5.8 19 2.8 2.9 2.8-2.8-2.8-2.8-2.8 2.8Z"/>
  </g>
</symbol></svg>
