<svg xmlns='http://www.w3.org/2000/svg' viewBox='0 0 696 830' fill='none'><symbol id='PVAC_Outline'>
  <g fill="#A7BFB9">
    <path d="m123.3 445.2 1 22 3 22a946.4 946.4 0 0 0 18 66c13 30 31 58 54 81l19 19c23 22 51.8 36.9 83 43l29 5 18 1 11-1 9-1 32-6c28.2-7.4 54-21.8 75-42 11.6-11.4 23-23.1 34-35a258.3 258.3 0 0 0 59-148l1-11v-25l-1-20-1-16-1-9c-2.2-15.7-4.5-31.4-7-47l-13-42-16-42c-5-14-12-28-21-40a664.3 664.3 0 0 0-41-52 111.6 111.6 0 0 0-42-25c-19.3-6.4-39-11.5-59-15l-19-1h-4l-15 1c-7 0-13 1-20 3l-27 7-22 7a133.4 133.4 0 0 0-49 36l-29 41c-8 12-14 24-19 38l-13 32-8 23a257.4 257.4 0 0 0-15 72l-1 13-1 13-1 18-1 15m-5-18v-19l2-18v-12l3-23c3-18 7-35 13-51l10-25 10-28 14-27 32-42a157.3 157.3 0 0 1 59-44c9-4 17-7 26-9l21-7 17-2h12l6 1h6l23-1 20 4 34 12c25.5 10.5 48.1 27 66 48l26 34c8 12 14 24 20 37l16 42c6 16 10 32 13 48l4 22 2 29c1.1 19.3 1.1 38.7 0 58l-1 20-2 16c-2 15-3 29-7 43a293 293 0 0 1-91 135 160.5 160.5 0 0 1-74 34l-30 5a142 142 0 0 1-46 0l-25-4a166.2 166.2 0 0 1-84-40 1149.9 1149.9 0 0 1-43-48c-11-15-20-30-28-47a189.7 189.7 0 0 1-18-62l-2-23-2-19-2-15v-22"/>
    <path d="m345.3 187.2-7 2c-11 3-21 6-31 11-8 3-16 6-23 11a1054 1054 0 0 0-34 26l-3 4c-6 7-12 14-16 22l-10 17a354.4 354.4 0 0 0-15 34l12-12 4-5c3-3 4-3 7-1l2 2 5 4c9 9 20 15 31 20 2 1 2 1 3-1l11-11c6-6 13-11 21-15l12-9a410.8 410.8 0 0 0 30-26l3 1 6 4c6 4 11 10 16 15l8 11 9 9 21 14h2l18-16c6-5 14-10 21-13h6l3 1 19 12h2v-1l-1-2-7-12-10-19c-9.4-15.4-21.6-29-36-40l-8-6c-10-8-22-14-34-19l-30-11-7-1m167 243c-.3-16.4-2-32.8-5-49-6-22.6-13-45-21-67-1-3-3-6-6-7l-6-4c-7-2-12-6-17-11l-5-5c-1-2-2-2-4 0l-1 1c-5 6-11 11-18 15l-16 11c-3 2-3 2 0 4l3 1 8 3c-8.6-3.1-17.3-6.1-26-9l-6-2c-7-2-13-6-17-12l-8-11-9-12-10-11-3-3h-3l-1 1-17 16-10 12-5 6c-3 3-6 5-10 6-4 2-9 4-12 8l-15 12v1l3 2 11 6c5 2 9 5 13 9l1 1h-1l-2-2-10-6c-8-4-15-8-24-9l-10-3c-6-1-11-4-16-9-4-3-7-7-9-12l-1-3h-3l-9 9-11 16c-5 6-9 13-11 21l-7 24c-5.8 19-8.5 39-8 59l1 15c.7 22.8 4.7 45.4 12 67a400.9 400.9 0 0 0 28 56c11.3 14 24.4 26.4 39 37a338.4 338.4 0 0 0 53 31c8 4 18 6 27 9h2c6 0 12 0 17-2a151.7 151.7 0 0 0 54-24 260 260 0 0 0 54-44l10-14a257.7 257.7 0 0 0 19-36l6-14c5-13.1 8-27 9-41l2-21 1-16m-341-10v-16c1-7 1-15 3-22a547.9 547.9 0 0 1 20-70c10.4-24.6 25-47.3 43-67 8.3-8.7 16.3-17.7 24-27l15-13 21-11a185.6 185.6 0 0 1 45-13h9l16 3a192 192 0 0 1 44 20c11 7.9 21 17 30 27l18 21a238.2 238.2 0 0 1 50 98 3113 3113 0 0 1 9 44c2.1 20 1.8 40-1 60-2.8 23-8.5 45.5-17 67l-13 29c-9.3 15.3-19.7 30-31 44-10 10-21 18-32 25l-25 14c-12 6-25 10-38 13-8 2-15 2-23 1l-7-1c-17-3-32-9-47-17l-21-12c-13-8-24-17-33-28a592.3 592.3 0 0 1-25-36l-17-36a210.6 210.6 0 0 1-16-70l-1-27"/>
    <path d="M264.3 499.2c9.8.2 19.5-.8 29-3h1l-2 1-20 5-10 1c-9 1-17 2-26 5l-10 4v1l1 1h1a93 93 0 0 0 51-1l13-4 3-1v1l-2 1a76 76 0 0 1-66 6l-3-2c-2 0-2-1-1-3 3-3 6-4 10-6l7-2 3-1v-1l-4-1c-6-1-12-3-17-6l-8-5-5-8v-4l1-1 17-2 13-2h1v-1l-7-5c-5-4-8-9-11-15l-4-11c-1-2 0-3 1-3h7c7 0 13 2 20 4h1l-7-14a61.5 61.5 0 0 0-9-16c-2-1-1-3 1-3l4 1c7 1 13 4 19 7l2 2h1v-2c-2-4-3-9-3-14l1-9c0-2 1-2 2-2l3 2c5 2 9 5 13 9 6 5 11 11 15 17a139.7 139.7 0 0 0 33 33c5 4 11 6 17 7 12 2 23-2 32-10 5-4 9-9 12-14 4-6 6-13 5-20l-1-10c0-7 1-14 5-19 5-7 12-11 21-11 6 0 11 3 16 6v3h-17c-9 2-15 7-17 16l-2 10-1 9c0 8-3 15-7 21l-12 12-5 4c-7 6-14 9-22 10l-13-1c-8-3-15-7-21-12-7-6-12-13-17-20l-11-17a67 67 0 0 0-22-21c-3-1-3-1-3 2 0 6 2 12 4 18 6 11 13 21 23 28l7 5 3 3h1l-1 1-2-1-10-5c-8-4-15-10-20-17-5-6-12-10-18-14-4-1-7-3-11-3h-1v1l3 3 8 13 2 3c5 10 13 18 23 24l17 9 4 1 1 1h-2l-11-3-15-7-10-7-16-8-13-3h-2v2l12 16 11 11c6 5 14 9 22 11 7 2 15 4 23 4l1 1h-1l-9-1c-10 0-20-3-30-4l-9-1c-6-1-12 0-17 2l-11 1-4-1-1 1 4 5 9 6 19 5 21 2"/>
    <path d="M344.3 576.2v6l2 1 1-1 8-4 1-1-2-13h-10l-1 1v3l1 8m76-77c1-7-1-13-2-19l-4-13-2-12c0-4 1-8 3-11 1-3 2-6 5-8l5-5 2-1c6-4 10-10 12-17l4-9c2-5 5-10 10-13l2-2 1-1-1-1h-11l-9 2h-1v-1c2-2 5-3 7-3h15l2 1c4 2 3 2 1 4l-4 3c-4 3-6 8-7 13l-3 9-1 5c-3 7-7 12-14 15l-4 1c-4 2-6 6-7 11l2 12 2 11c2 8 2 17 1 25-1 10-3 19-7 27-3 9-8 16-15 22-7 7-15 12-24 16l-13 3c-2 1-2 1-2 3l1 12 9 1c3 1 7 0 10-2l3-1v1c-1 3-3 5-6 7-3 1-6 2-9 1l-8-1-5-2c-3-1-6 0-9 1l-1 1h1l6 4 7 1 1 1c-1 2-2 3-4 3l-6-1-6-2c-3-2-6-2-10-1l-7 1h-3l1-2c2.7-2.2 5.7-4 9-5l1-2v-14c0-3 0-3-3-3l-11 1-8-2c-5-1-10-3-13-7l-5-3c-11-2-18-9-24-18l-4-7v-4h1l3 4a58.4 58.4 0 0 0 34 18l19 5 20 4c10 0 19 0 28-4 11-4 21-10 30-17 8-6 13-14 15-24v-11"/>
    <path d="M348.3 537.2c-4 1-9 0-13-1-2 0-4-1-5-3 1-2 3-2 5-2l11-2 13-2c10-3 18-8 24-16l12-12 2-1h1v1c-3 2-5 5-6 8l-4 7c-5 12-15 19-27 22-4 1-8 2-13 1m-8-253-1 3c-2 4-4 7-7 9l-8 5c-5.2 2.5-10 5.9-14 10l1-2c2.5-3.2 5.6-6 9-8l15-15 3-4h2v2m-92 46c-4 0-7-2-9-4l-7-4-5-3-2-4 1-3c2-1 3 0 4 1l1 1 2 4c2 3 4 5 8 6a24 24 0 0 1 8 4v2h-1m149 0-5-2-5-2-6-2-1-2c-1-2 0-3 2-3l4 2c3 2 6 4 10 4l6 3-1 1-4 1m22 67v1c-1 3-3 5-6 6h-3l-2-2-2 1-1 1-1 1v-1c0-3 2-6 5-8 1-1 3 0 5 1l1 2h2l2-2m30-97-2 4c-1 3-4 4-7 5h-1v-1l5-7 2-3h2l1 2m-93-87c1 2-1 4-3 4-3 0-4-2-4-4 0-3 1-4 3-4 3 0 4 2 4 4m64 33c0 2-2 4-4 4s-4-2-4-4 2-4 4-4 4 2 4 4m-127-13-2 4c-2 0-4-2-4-3 0-2 1-4 3-4s3 2 3 3m-31 46-1 3-4-1 1-4 1-1c1 0 3 0 3 2v1m153 0 2 3c0 2-1 3-3 3l-2-3c0-1 1-3 3-3m-24-15c-2 0-3-2-3-3l2-2c2 0 3 1 3 3l-2 2m-76-14c0 1-2 3-3 2-1 0-2-1-2-3l2-2c2 0 3 1 3 3m151.1 207.7c0 .4-.3 6.8-.2 13.3-6.8.5-5.7-13.3-5.3-15 .2-1.4-4.4 1.7-6.6 3.8.7 1.3 1.7 1 3 .5-.6 6.2 3.8 11.8 9 11.7.1 6.4.8 12.5 2.6 13 .2 0 .5-6.5.6-13.7 12.2-3.8 7.5-18.3 7.5-18.3-.2-.8-2 .4-6 3.9 1.6 1.7 2.4.7 3.6.3 1 1.9 1.4 10.5-5 13l.2-18-.4-.2c-1.8.2-5 3.4-7.5 6 1.5 2.3 3.2.3 4.5-.3m6 19 2.7 2.9 2.8-2.8-2.8-2.8-2.8 2.8Z"/>
  </g>
</symbol></svg>
