<svg xmlns='http://www.w3.org/2000/svg' viewBox='0 0 696 830' fill='none'><symbol id='QCHC_Outline'>
  <g fill="#A7BFB9">
    <path d="m124.1 450.5 1 11 1 19c2.4 18 6.4 35.7 12 53a236 236 0 0 0 61 102l18 17a147.3 147.3 0 0 0 73 42l27 6 26 3 20-1 6-1 28-6c28-6.6 54-20.4 75-40l14-14c17-16 31.7-34.2 44-54 10-17 19-36 25-55l8-37c4-17 5-33 5-50v-15l-2-25-2-27c-4-25.9-10.3-51.3-19-76l-16-43c-5-15-13-28-21-41l-25-34a110.6 110.6 0 0 0-54-40 279.4 279.4 0 0 0-49-14l-17-2c-7-.5-14-.9-21-1l-14 1c-7 0-13 2-20 3-16.6 3.6-33 8.3-49 14-18 7-33 19-45 34a418.3 418.3 0 0 0-49 77l-17 44a322.6 322.6 0 0 0-22 114l-2 24v12Zm-6-23v-18l2-19v-10l3-21c3.7-23.5 9.7-46.7 18-69l16-40a428.2 428.2 0 0 1 47-70 156 156 0 0 1 58-42c14-6 28-11 43-15 7-2 15-3 22-3l15 1 10-1c14-1 28 0 41 5l31 10a176.7 176.7 0 0 1 69 50c10 12 20 25 29 39 6 9 11 20 15 30l18 46c7.6 20 12.6 40.8 15 62l2 16 1 11 1 24v39l-2 21-2 16c-2 14-3 27-6 40a290.4 290.4 0 0 1-60 108l-24 24c-20 19-44 32-70 38l-25 5-17 3c-13 1.4-26 1.4-39 0l-35-5c-31.2-5.6-60-20.2-83-42-8-7-16-15-23-24a229.5 229.5 0 0 1-41-59 203.8 203.8 0 0 1-23-72l-3-24-2-30-1-24"/>
    <path d="m511.1 430.5-1-23c0-9-2-18-4-26l-9-35c-4-17-11-33-19-48l-19-34a123.4 123.4 0 0 0-20-26c-3-5-7-8-12-12l-18-12c-7-5-13-8-21-11-11-6-24-10-36-14l-10-1-9 3-22 8c-12 4-24 10-34 18l-11 7-13 11-10 12-9 12-21 38c-8 14-14 28-18 43l-10 36-4 22-2 29 1 17a230 230 0 0 0 14 70l14 32c4 7 8 14 14 21a230 230 0 0 0 111 73l12 1h7c17.2-4 33.6-10.4 49-19l32-21c11-9 21-18 30-28 7-8 13-16 18-25l11-23a199.4 199.4 0 0 0 17-56l2-22v-17m-340-9v-8c0-15 2-29 5-43l7-28a243.8 243.8 0 0 1 63-109 139.9 139.9 0 0 1 30-28l18-10a185.7 185.7 0 0 1 49-14h5c12 1 23 4 34 8l10 4c9 4 17 9 25 15l15 13 9 10 16 19a241.3 241.3 0 0 1 53 102 792 792 0 0 1 9 53v12c.1 27-3.2 53.9-10 80l-13 33-9 19c-5 10-11 20-18 29l-16 18c-7 8-16 15-25 20l-28 17c-14 6-28 11-43 14h-20l-16-3c-12-3-23-7-34-13l-31-19c-9-6-16-13-23-20-11-13-20.7-27.1-29-42l-15-31a204.4 204.4 0 0 1-17-73l-1-25"/>
    <path d="m341.1 492.5 1-12c1-13 5-25 12-36 2-3 4-7 7-9 3-3 6-4 9-5 4-1 8 0 12 1l9 6 8 7c7 7 16 13 25 18 10 6 20 9 32 10 9 1 17-2 26-6v-1h-7c-6-1-11-3-16-7-5-3-9-8-12-13l-7-11c-2-4-5-8-9-11l-10-9-4-5a41 41 0 0 0-23-14l-1-1-1-3v-6c0-5-1-9-4-13l-5-7-4-9-3-6-7-16-6-11c-5-9-6-18-4-27l2-7-1-1-1 1c-8 11-13 24-17 37l-1 12a169 169 0 0 0 6 40l2 7c1 7 1 15-1 23-1 6-4 11-8 16l-7 11-12 22c-8 14-14 30-18 46l-2 11c-1 1 0 2 1 1a112 112 0 0 1 40 0l1-2v-5l-2-16m60 35c11 0 21-2 31-4l35-11 6-2h3l-1 3h-1l-22 17a69.8 69.8 0 0 1-54 6l-21-6-18-7-18-2c-8 0-15 1-22 3l-20 7-25 8c-22 4-42-2-58-18l-6-5c-1-1 1-1 1-1l11 5a68 68 0 0 0 44 4l21-5c1-1 2-1 2-3l5-21 13-25a767.7 767.7 0 0 1 33-56c3-7 4-14 4-21l-2-16-6-20a75 75 0 0 1 23-76l3-3h2c2-1 3 0 3 2l-1 4-2 8c-1 8 1 15 5 22l6 11c4 6 6 14 8 21l1 7c1 4 2 7 4 9l4 7 5 8c1 5 1 9-1 13l1 2c10 2.7 18.8 8.7 25 17l10 8 16 13c8.5 8.5 17.2 16.8 26 25 4 4 9 5 14 5h1l2 2v2l-4 4-8 5c-9 4-18 6-28 7-10 0-19-2-27-7-9-4-16-9-23-16l-12-13-7-7-7-3c-2-1-5 0-7 1l-7 8a135.5 135.5 0 0 0-11 54l2 16v2l1 2 10 2 13 4c8 3 17 4 25 4"/>
    <path d="m280.1 354.5 19 2h2c1 1 2 0 3-1l5-4h2l1 1-2 2-2 3v1l6 2h1l-1 1h-4l-4 1 2 2 1 1 1 2h-3l-4-4-5-2h-8c-4 0-9-1-13-3h-4l10 10 2 2h6l1 1v1l-2 1h-3l2 3 4 4 4 1 9 2h1l2 1-2 1h-9v2l3 4v3h-1l-1-1-3-3-3-2v3l-1 4-2 3-1 1v-1l-1-2 2-9-1-5-4-4-1-2-1 2-1 1v1l-1-1v-5l-2-4-6-6c-1-1-3-4-4-3l-1 5c-2 4-2 9-2 14l1 3 4 3 1 3v2l-2-1-3-2c-1-1-1-1-1 1l-1 6c-1 2 0 2 1 3l3 5-1 1-1-1-2-1h-4c-1 0 0-2-2-2l-2 1h-2l1-2 1-1c2-1 3-3 3-5v-7h-1l-1 1-3 1h-1v-2l5-5 3-3 2-16h-2l-1 1c-2 2-3 3-2 6v3l-1 1-2-1v-3h-1l-9 5c-2 1-2 2-2 4 .5 3.3 1 6.6 1 10l-1 1-1-1-1-2-1-3v-4l-4 2-6 4h-1l-1-1 1-1 3-3 4-3v-1l-5-1h-3l-2-2 2-1h6l5 1h3l6-9-4-1v-1l1-1 5 1 2-1 2-2 4-3-6-1h-8l-6-1-6 1-5 2h-2v-2l4-2v-1h-1l-7-2-3-1-1-1 2-1h6l4 1v-2l-2-3v-1l1-1 3 3c2 3 5 4 9 4l14 3 4 1v-1l-3-4c-2-2-3-4-5-4l-8-1 5-2c2-1-7-7-10-7l-7 1h-1v-1l1-2 8-2 1-1-3-4-1-3h1l1 1 4 3c1 2 1 2 2-1l3-6 1-1 1 1-2 10 1 2 4 4c1 1 1 3 3 1l1-3 1 7c-1 1 0 2 1 3l4 5h2l2-13v-3a96.6 96.6 0 0 1-5-8v-1h1l1 1c1 0 4 5 5 4l1-3 1-5v-6l-2-4-2-2v-1h2l1 2 2 1 1-2 2 1h5l-1 2-3 2-1 2-1 14h1l3-2 2-1h1v1l-1 2-5 4-2 2v12h1l4-4v-2l1-4 1-1v1l1 1v2l2-1 3-4c1-1 4-2 4-4l-1-6-1-7v-1l1 1 4 11c1 1 3-3 4-4l5-2h1l-1 1-2 4-2 4c3.7 1.1 7.3 2.1 11 3l-1 1h-7l-5-1-2 1-8 5-1 1 1 1 2 1c1 0 3 2-2 2h-3l-3 1-7 7v1h8m-8 204a63.1 63.1 0 0 0-23 8l-1 1h3l7-2 10-2 15 2 9 3h9c5 0 10-1 14-3l12-5 13-5c4-2 7-2 11-2 5 0 9 1 13 4l7 5c9 6 20 8 32 7 8 0 17-3 26-5l3-1v-1l-1-1h-8c-16.3 1.5-32.8-.9-48-7l-11-4c-4-1-9-2-13-1l-18 3-19 5c-7 2-15 3-23 2l-19-1Zm97 46c-6 0-10-1-13-3l-7-5-4-3c-4-2-8-2-12-1l-11 4-7 4-10 4c-6 1-13 0-19-2l-5-3-1-1 1-1 4 1c6 1 13 0 19-2l12-4 11-4c8-3 16-3 24 1l7 4c8 4 15 4 23 1l9-3 12-5h3v1l-2 1c-6 2-11 5-17 9l-8 5-9 2m88-237c0-2 0-3-2-5l-7-7h-1l-1 4v3c0 3 0 5 2 6l1 2v1h-1l-2-1v2c-1 2 0 4 2 5l1 1-1 1-2-1-1 2h-1v-1l-1-1h-1v-1c2-1 2-3 2-4v-2h-2l-1 1v-1l1-2c2-2 2-4 1-6l-1-6v-2l-1 1-3 5-2 3c-2 1-3 3-2 6l-1 1v-1h-1l-1-1-4 3c-1-2 1-3 2-5l-1-1-1-1 1-1h2l1-1 8-9 1-1v-1h-3l-3 1-3 3h-1v-1l1-2c1-1 0-2-1-2l-6 1h-10l-1-1 1-1c3-1 6-2 10-1h6l1-1-2-2v-1h1l4 2c2 2 4 2 6 1v-1l-6-7-2-3c-1-2-2-2-4-2l-1-1-1-1h1v-2l-1-2v-1l2 2 2-1h1v1h1c-1 3 1 5 3 6l6 8 1 1 1-9-1-2-2-2v-1h1l2-1-1-5-2-2v-1h1l2 1v-2l1-1v-1h1v2l1 1h2v1l-1 1c-2 2-2 4-1 6l1 1 1-1 1 1-1 2c-2 2-3 4-2 6l1 5h1l3-4 4-5c1-1 2-2 1-3v-2h2l1 1 2-3h1v1l-1 3v2l1 1h-1c-2 0-4 2-5 4l-3 3-4 5 1 1 1 1 4-2 3-4h1l1 1h-1l-1 4 4-1 11 1-1 1-8 1h-5c-1 0-2 1-1 2s2 1 1 2c0 1-1 1-2-1-3-3-3-3-7-2l-1 2 7 7 2 2c0 1 1 2 3 2h3v1l-1 1c-2 0-2 0-1 2l2 2h-2c-1-1-1-3-3-2l-1 2h-1v-3m-227 93-4 4c-1 0-1-4 1-5l1-3-1 1c-1 1-2 0-2-1l-1-4 1-4c4-2 4-4-1-1l-1-1-1-4h-1v4l-1 1-1-1-1 1 2 2 2 2v6h-3c-1 1 1 1 2 2l2 1v5c-1 1-4-3-5-4-2-1-3-3-3-6l-1-2-1 2-1 1h-1l-5-4v1l3 4 2 2h-2c-2 0-2 2 1 2 3-1 5 1 7 3l2 2 1 1h-2c-1 1-2 0-2-1l-2-1h-1v2s-6 1-9-2l-2-1v3h-2v1l2 1v3l1-1 2-1 1-1 7 1v3l2-1c2-2 3-2 5-2v1c-1 2-3 4-5 4h-2l-1 1h3v2h-1c-2 2-4 5-7 5l-1 1 1 1v2l1 1c1-1 1 1 2 1h1v-1c0-3 1-4 3-6l2-2h2l1 1h1v-3c-1-2 0-3 1-4l2-3 2 1v1c1 3 1 5-1 6l-1 2v1h1l1-1 1 1c0 2 1 4-1 6l-2 2v1h1l2-1h1l1 2v3h1l1-2v-3l1-1 2 1v-1l-2-3c-2-1-2-4-2-5h3l-1-1-1-1c-2-1-3-3-3-5l1-1 5 5c2 2 4 3 4 7v1l1-1v-2h1l2 1 3 2c1 1 1-1 1-1l-1-1-3-3v-1l3-1c1-1-3-1-4-1-1 1-2 0-4-1l-5-4-1-1v-1c2 0 3-1 5 1l2 2 1-1-1-1 1-1c3 0 5 0 7 3h2v-1l1-1 1-1v-1h-1l-1-1v-3l-3 2-2 1h-5v-1l1-1s0-2-2 0c-1 1-3 2-4 1l-4-1 2-3c0-1 2-3 4-3h2v-2l-1-2 3-3c1-1 1-2 3-2h2v-1l-1-1-1-1 1-1h-1l-1 1-1-1h-1l-1 1v3l-5 5-1-3-1 2v4Zm169-210-3-2c-1-1 0-1 1-1h2l1-2 1 2h4c1 1-2 2-3 2l-1 3 2 10c0 2 2 1 2 1 3-4 2-9 3-9l1 2h1l5-5h1v1l-3 5-1 2h1l2 1-5 1-5 4 1 1c3 0 13 0 15-3l1-2v4h2c4 0 3 2-1 2v2l1 2-2-1c-2-2-5-1-8-1h-7v1l4 2c5 0 3 1 2 1s-2 1-1 2 3 2 4 1l3 1c3 0 1 1-1 1h-1l1 2 1 1v1l-2-1c-1.3-.7-2-.3-2 1 0 3-2 1-2-2l-3-4-1 2-1-2c0-3-2-4-3-4h-1c-1 4 0 7 1 10l1 2 2 2 1 1h-4l-1 1h-1v-1h-2l-2 1v-2l1-1c2-1 2-3 2-5l-1-8v-1h-1l-1 3-2 4v3h-1l-1-2-2 1-6 6h-1v-1l4-6 1-2v-1l-2-1 3-1 4-2 3-3h-10l-5 2-2 1 1-2v-1l-3-1v-1h3v-1c-1-1-2-2-1-3l3 2 3 1h9l-2-2h-3s-2 0 0-1l1-1v-1l-2-2h-5l2-1v-2s-3-2-2-3 2 1 4 1v1l1-1v-2h2v4l1 2h2c1-2 2-2 2 1s1 4 1 4 1-10 0-13Zm-126 14c0 3-2 8-8 8-4 0-8-4-8-9s4-8 8-8c5 0 8 4 8 9m-17 238c-4 0-6-3-6-7 0-3 3-6 6-6s6 3 6 7c0 3-3 6-6 6m89-241c-3 0-6-2-6-6 0-3 3-5 6-5s5 2 6 5c0 3-3 6-6 6m-66 175c0-2 2-4 5-4 2 0 4 2 4 4a5 5 0 1 1-9 4.4c-.7-1.4-.7-3 0-4.4m-63-34c3 0 5 2 5 5 0 2-2 5-5 5-2 0-4-3-5-5 0-3 2-5 5-5m146-174c0 3-2 5-4 5-3 0-5-2-5-5 0-2 2-4 4-4 3 0 5 2 5 4m125 180c3 0 4 1 5 4 0 2-2 4-5 4-2 0-4-2-4-4s2-4 4-4m-80-81c2 0 4 1 4 4 0 2-2 4-4 4s-4-2-4-4 1-4 4-4M381 474.8c0 .4-.3 6.8-.2 13.3-6.8.5-5.7-13.3-5.3-15 .2-1.4-4.4 1.7-6.6 3.8.7 1.3 1.7 1 3 .5-.5 6.2 3.8 11.8 9 11.7.1 6.4.8 12.5 2.6 13 .2.1.5-6.5.6-13.7 12.2-3.8 7.5-18.3 7.5-18.3-.2-.8-2 .3-6 3.9 1.6 1.7 2.4.7 3.6.3 1 1.9 1.4 10.5-5 13.1l.2-18c0-.2-.2-.3-.4-.3-1.8.2-5 3.4-7.5 6.1 1.4 2.2 3.1.2 4.5-.4m5.8 19.1 2.8 2.8 2.8-2.8-2.8-2.8-2.8 2.8Z"/>
  </g>
</symbol></svg>
