<svg xmlns='http://www.w3.org/2000/svg' viewBox='0 0 696 830' fill='none'><symbol id='RDPC_Outline'>
  <g fill="#A7BFB9">
    <path d="M119 425.2c1-28 3-56 8-84 3-16 8-31 14-46l16-41c4-12 10-23 17-33l26-36c16-19 35-33 57-44 16-8 32-13 49-18l21-3 18 1 13-1c10 0 20 0 30 3 21 6 41 12 60 23 17 9 31 21 44 36a435.5 435.5 0 0 1 44 66l22 58a496.7 496.7 0 0 1 15 166l-4 35c-2 21-8 40-17 59-14 29-31 56-54 79l-18 17c-21 20-46 32-74 38l-41 7c-13 2-27 2-40 0l-36-7c-28-6-53-18-74-38l-26-26c-24-27-43-57-55-92-4-12-7-25-8-39l-5-45-2-35Zm451 15-1-12-4-50c-3-25-8-49-17-72a1907 1907 0 0 0-30-74c-11-19-24-37-39-54-11-14-25-25-42-32-24-9-49-16-76-19-15-1-30 0-45 2-16 3-31 8-46 13-17 5-32 14-45 26l-14 15-28 39c-7 11-13 22-18 35l-15 41c-12 31-19 63-22 96l-2 47c-1 13 0 26 2 40l7 36c10 42 30 79 59 111l31 30c15 14 33 25 52 32l30 8c12 2 24 5 37 5 9 0 18 0 28-2l22-5c30-6 56-19 78-40l23-22a247.2 247.2 0 0 0 66-125c6-22 10-46 9-69Z"/>
    <path d="M520 418.2c.4 32.7-5.1 65.2-16 96l-19 40c-13 25-31 46-55 62-14 9-29 17-45 23-10 4-21 7-32 8-7 1-14 0-22-1-16-3-31-9-45-16l-26-16c-9-6-17-12-24-20a527.6 527.6 0 0 1-27-36c-9-17-17-35-24-53a305 305 0 0 1-8-135c4-15 7-29 12-43 10-29 26-55 46-78l15-19c10-11 22-22 35-30 15-8 30-14 47-18 14-3 28 0 42 4l25 10a158.5 158.5 0 0 1 40 31l26 31c22 28 37 59 46 93l7 31c2 13 2 25 2 36Zm-340 15 2 27c1 15 4 29 9 44 5 14 12 27 18 40 6 12 13 22 22 31 15 17 34 31 53 43 17 10 34 18 53 22 5 1 11 2 16 1 14-3 29-8 42-15l25-15c17-11 32-25 45-39 7-8 12-16 17-24l12-26c10-20 15-42 17-64a351 351 0 0 0-2-71l-7-29c-6-24-15-47-27-68l-17-30a142.7 142.7 0 0 0-29-33l-24-17-14-7c-12-6-25-10-37-14-5-2-11-1-16 0l-16 6a167.8 167.8 0 0 0-87 65l-13 23a343 343 0 0 0-31 74l-8 31c-2 14-2 28-3 45Z"/>
    <path d="m352 331.2 2-5 4-14 2-7c2-6 7-9 13-9l8 1c8 3 16 2 24 0l15-4 3-1c11-1 20 3 26 13 5 9 12 17 20 24l7 8c4 5 5 11 4 17l-1 6v13l1 5c0 6-2 10-7 13l-2 1-1 1c4 4 6 9 8 14l6 9 11 12 6 5c4 5 5 9 4 15l-1 2-8 25c-2 7-7 12-12 16a100 100 0 0 1-29 15c-6 2-11 4-16 8-7 5-16 6-24 3-9-2-16-7-22-12l-2-2c-1-1-2 0-2 1l-2 11-2 19v7c0 7-4 12-10 15l-12 3c-9 1-18-1-26-5-6-3-13-4-19-3l-16-1c-8-1-15-6-19-13l-4-8c-2-5-6-8-11-11l-1-1c-4-2-7-5-9-9-1-1-1-2-3-1l-6-2-9-8c-9-9-9-9-20-11l-9-4c-13-6-21-16-21-30-1-11.3-.6-22.7 1-34 1-3 3-6 6-8l11-9c8-6 16-9 25-10l14-2c1-1 2-1 1-2l-6-18c0-4-2-7-6-8l-5-3c-8-5-10-12-7-21 2-5 5-8 9-12l16-13 21-15c5-4 10-6 17-8h12c8 2 15 2 23 0h12l4 1c7 2 10 6 11 13l2 15 1 13Zm3 97h16c9 1 17 4 26 6l7 2 1 1-1 1-4-1-24-4c-9-1-19 0-28 1l-1 2 9 8c9 7 16 15 23 23 6 7 9 14 10 22 1 2 1 4 3 4l8 4 23 10c4 3 9 3 14 0s10-5 16-6l10-4c8-4 13-10 17-17l2-5c2-9 7-17 12-25l3-5c2-3 1-6 0-8l-4-5-14-12c-4-4-7-9-9-14l-1-4-3-7c-1-1-3-2-5-1l-12 1c-9 0-17 2-25 6l-12 4c-6 2-11 1-17 1l-21 3c-8 2-16 5-22 10l-3 3 10-2c9-1 18-2 27-1l10 2 1 1h-5a61.4 61.4 0 0 0-37 6Zm1 54-1 10v2h-1l-1-3v-14c-1-10-4-19-8-28l-13-18-3-1-12 8-10 8-15 13-10 13-5 10c-4 7.3-9.5 13.8-16 19v3c2 4 4 7 8 8l4 2c6 4 10 8 13 14l2 5c4 8 11 11 20 8l6-3c6-2 11-3 17-2l11 5 17 5 13 1h2c3 0 4-1 4-4v-4c-1-8-1-15 1-22l2-5 3-14c0-8-2-15-7-22-6-11-14-20-24-28l-2-1 1 2v1c3 10 4 20 4 32Zm2-94 3-2 17-10 3-1c1 0 0 0 0 0l-1 2-6 4c-6 3-11 7-16 12l-3 5-2 11v1h1c5-3 11-5 17-6l24-3c6 0 12-2 17-6l7-6c5-4 12-7 19-8l9-1 19-2c4 0 4-1 5-4l2-17c1-6-1-10-5-14-10-10-18-20-24-33-1-3-3-5-6-7-3-4-8-5-12-3l-7 3-7 4-9 3c-4 2-9 2-13 1l-8-4-5-4-5-2c-4-2-7 0-8 4l-2 8-1 18c0 6-1 11-4 16l-8 13c-7 8-9 16-9 26l1 1h1l6-9c4-7 7-13 12-19l3-5v-2l-1-1v-5c0-1 2-2 4-1h1l1-1-1-2-2-2v-3c0-1 1-2 3-2l3 2 1 2c3 0 4 3 7 2 2-1 4 1 4 3s-1 4-3 4l-2-1c-2-1-3 1-4 2v1l2-2 4 1c2 1 2 3 1 5l-4 2c-3-1-3-1-4 1l-6 10-3 4c-3 5-5 10-6 17Zm-9-51-2-10a96.1 96.1 0 0 1-3-25c-1-3-3-5-6-6l-4-1-10 2-11 4c-6 2-11 1-16-1l-5-2c-6-2-12-1-17 2s-9 7-12 12l-4 6c-3 7-8 12-14 16l-7 5-5 5c-3 4-2 8 1 11l5 3c4 3 6 6 7 10l4 11 4 7 4 1c8 0 17 2 24 6l18 10 27 16c1 1 1 0 1-1v-9c-5-16-13-29-27-38l-10-6-3-2v-1l1-1 3 2 10 5c12 7 21 17 26 31l2 3 1 1 5-9 1-4c-1-9-1-17 2-26l8-19 2-8Zm-41 76-2-1-13-5-28-8c-11-3-21-4-32-2-8 1-15 3-20 9-3 2-5 4-9 5l-4 2c-2 1-3 3-3 5v4l1 12 2 17c1 9 5 15 14 18l7 3 11 7 5 6c4 6 9 10 16 13 3 1 3 1 5-2l3-2c4-4 7-8 9-13l5-9c3-6 7-12 12-17l11-8 2-1 9-8c5-4 10-8 16-10v-1l-1-1c-6-2-12-2-19-2s-13 2-20 3l-6 1h-1l1-1 1-1c8.4-3.3 17-5.6 26-7h4c-7-3-15-4-23-3-9 1-17 5-24 9l-18 11-3 2h-1v-1l1-1c9-7 19-13 29-18 10-4 20-6 30-5h7Zm61-55h-3l-3 5c-5 5-9 11-12 18l-4 6c-6 10-10 21-13 33l-1 2 2 3 2-1c6-7 10-14 12-23l6-19c2-7 5-13 10-19l3-3 1-2Zm19 244-16-4-11-5-9-4c-10-5-20-6-30-2l-14 4-12 2c-6 1-12-1-17-4-9-5-16-12-22-20-1-1-3-2-2-5l3 3c6 6 12 12 19 16 7 5 14 7 22 5l12-3 13-5c10-2 19-2 29 1l12 5 13 4c8 1 15 1 23-1l17-7 6-2h3c1 1 0 2-1 3l-3 3-14 10c-6 4-13 6-21 6Zm-87-364 14 2 10 4 7 3c9 4 18 4 26 0l10-5 8-4c8-4 17-4 25 0l13 6c7 4 13 10 19 15l2 2v1h-1l-5-3-17-12c-5-3-10-5-16-6-6-2-12-1-18 2l-9 6-10 6c-11 6-22 7-33 2l-12-6-11-5c-6-2-12-1-17 2l-13 10-2 3h-1l-1-1 1-3c7-9 16-17 28-19h3Z"/>
    <path d="m466 471.2 2-9 2-15c1-4-1-8-4-11l-6-8c-2-3-3-7-2-11 0-2 0-3 2-5h2v2c-2 5 0 9 4 12l4 3 5 3c4 3 7 8 6 14v4a74 74 0 0 1-11 23l-2 2c-2 0-1-2-2-4Zm-128 11-1 12-5 19-3 6-1-1v-7l3-27-1-19v-5l1-2 2 1 3 4c2 5 2 11 2 19Zm-48-180 2 1v2h-5c-5 2-9 6-11 11l-2 11c-2 10-8 17-17 21l-5 2-5 1c-1 0-2-1-1-2l3-4 10-8c5-5 9-10 12-17l5-9c2-4 6-7 10-8l4-1Zm43 80v2c-1 1 0 3-2 3l-2-3-2-8c-3-12-9-24-15-35l-5-9v-1h1l2 2 15 22c5 8 7 18 8 27Zm107.9 174.5 2.8 2.8 2.8-2.8-2.8-2.8-2.8 2.8Zm-6-19.1c0 .4-.2 6.8-.1 13.3-6.8.5-5.7-13.3-5.3-15 .2-1.4-4.4 1.7-6.6 3.8.7 1.3 1.7 1 2.9.5-.5 6.2 3.9 11.8 9 11.7.2 6.4.9 12.5 2.7 13 .2 0 .5-6.5.6-13.7 12.2-3.8 7.5-18.3 7.5-18.3-.2-.8-2 .4-6 3.9 1.6 1.7 2.4.7 3.6.3 1 1.9 1.4 10.5-5.1 13l.3-18-.4-.2c-1.8.2-5 3.4-7.5 6 1.5 2.3 3.2.3 4.5-.3"/>
  </g>
</symbol></svg>
