<svg xmlns='http://www.w3.org/2000/svg' viewBox='0 0 696 830' fill='none'><symbol id='SAOC_Outline'>
  <g fill="#A7BFB9">
    <path d="m123.1 445.2 1 22 4 27c4.5 19 9.5 38 15 57a250.3 250.3 0 0 0 52 81l23 23a166.2 166.2 0 0 0 68 39l38 8 17 2 25-1 2-1 26-5a150.5 150.5 0 0 0 78-40c14.3-14.4 28.3-29.1 42-44 31.8-41.3 50.6-91 54-143l1-16c.7-16 .1-32.1-2-48l-3-27-3-24c-3-18-9-36-15-53l-17-44c-4-12-10-23-17-34-9-15-20-30-31-44a110.6 110.6 0 0 0-52-37 361.4 361.4 0 0 0-63-16l-9-1h-14c-9.4.2-18.8 1.2-28 3l-22 5-32 10a110.2 110.2 0 0 0-51 38 521.1 521.1 0 0 0-46 73l-14 35a330.2 330.2 0 0 0-23 90l-1 20-1 12-1 17-1 16m-5-18v-19l1-18 1-10 3-26a248.6 248.6 0 0 1 20-68l13-33 15-30c10-15 21-30 33-44l22-20c15-11 32-20 50-26 14.8-5 29.8-9.2 45-13l21 1c7.7.2 15.4-.1 23-1l13 1 13 3 37 13c25.2 11 47.5 27.8 65 49 10 11 18 23 27 36 7 10 13 22 17 34l16 40c7 17 12 35 15 54l3 25 2 21 1 19v17l-1 22-2 20-2 17c-.8 23.5-6.3 46.6-16 68a292.8 292.8 0 0 1-73 102c-20 20-44 32-71 39l-25 4a539.3 539.3 0 0 1-40 5c-10 0-19-2-29-3l-20-4c-29.7-5-57.4-18.2-80-38a471 471 0 0 1-52-60c-6-8-12-17-16-27-12-22-19.8-46.1-23-71l-2-23-2-19-2-18v-19"/>
    <path d="m379.1 241.2 1-1-1-2-2-2-1 3 1 2h2m13 5-2-2-5-1c-1 0-2 1-1 2l3 4h1c2 0 4-1 4-3m-11 5c2 0 4-2 3-3 0-2-1-3-2-3l-2-1-2 4 3 3m7-9h2l2-1v-4h-3l-3 2c-1 0-2 1-1 2l2 1h1m-103 7h2v-3l-5-3h-2v3c1 2 3 3 5 3m101-14c0-2 0-3-2-4l-3 2h-1v3l1 4h2l3-3v-2m-95 8v1h2l4-2c2-1 3-2 1-4l-1-3h-4l-2 8m-3 9 1 2c1 2 3 2 5 2s3-1 3-3c0-1 0-2-2-3l-4-2-2 1-1 3m10-9-6 3v2h1l6 2h2c2-1 2-2 2-4 1-1 0-2-2-2l-3-1m-17-4 3 3 2 1 2 2 1-3v-4c1-1 0-2-1-3l-5-1-2 2v3m11 68c2 0 4 0 6-2v-2l-5-4c-3-1-5 2-6 4v1c1 2 3 3 5 3m15 9 4-1c1-3 0-6-2-8l-5-1c-1 0-2 0-2 2l1 6 2 2h2m-10-25h-1l-3 3 1 3 5 5h2l2-5v-4l-6-2m17 9-1-3-3-2c-2 0-4 1-5 3l-2 3c-1 3 0 3 2 3l4 1c3 0 5-1 5-5m-13 11-1-3c0-1-1-2-3-1l-4 2-1 1c-2 3-1 6 2 8h1c2 1 5 0 5-3l1-4m103 172 13-1c11-3 22-7 31-14l13-10 3-2-3-1h-3l-12-2-15-4-16-4-8-1-15 2-9 2-13 2h-2l-1 2 1 1 14 18 11 10 5 2h6m-226-53 1 21 1 11v3l1 1 1-1 2-2 8-11 17-18a250.4 250.4 0 0 0 24-33c4-9 6-19 6-29l1-15v-2c-1-1-1 1-2 1l-2 2-14 16-23 20-17 14-3 6-1 16m64-38-1 1-1 1c-2 7-5 13-9 19-9 13-19 26-30 37l-10 10-7 10c7 4.2 14 8.2 21 12l11 2h10l15 3c10.4 3.5 20.1 8.6 29 15l1-1-1-3-3-16-3-25c-1-7-3-14-6-20l-4-10a171.8 171.8 0 0 1-12-34v-1m130-2-1 3-2-3-1-3-7-15h-3l-2 3c-5 8-11 14-18 19l-9 5-2 2v3c3 2 4 5 6 8l4 7 9 11c2 2 5 3 8 2 7-2 14-6 20-10l3-3c8-6 16-11 25-14l3-2 9-6 3-5 5-13 6-10c2-3 1-5 0-8-5-10-8-20-8-30v-8l-1-9-1-2-1-1-1 1-1 3-3 12-11 17c-4 7-9 14-16 19l-10 8c-3 2-4 5-4 8v4l1 7m139 38v-12c0-3-1-5-4-6l-4-1-8-2c-8-2-14-7-17-14l-6-12c-1-4-3-7-6-10l-4-3c-7-6-13-14-17-24l-5-13-4-11c-2-4-5-7-8-9l-6-3-2-1v3l3 14 2 14c2.1 12.7 6.5 24.9 13 36l2 6v1l-1-1-5-8-2-3h-2l-1 1-7 15c-3 6-5 13-5 21l-1 11c0 5-1 9-3 13v1l-1 1v-5l3-19v-6l-2-1-1 1-9 6-9 7c-9 7-18 13-29 16l-10 3c-2 1-2 1-1 3l6 6c1 2 3 3 5 2l12-1 10-1 11-1 14-1 11 2 19 5c10 3 20 4 30 4l3-1 13-2 12-2 7-1c3-1 4-2 4-5v-13m-145 54h13l2-1-1-1-5-4-7-10-13-22c-2-3-4-5-8-7l-2-1c-5-3-10-7-12-13l-3-6-5-9c-2-3-5-4-8-5l-8-1c-4 0-7-2-9-6l-2-5-1-2v-1l-1 1-2 13c0 6 1 13 4 18l5 11 3 10v4l-2-4c-2-8-6-15-10-22h-2a88.2 88.2 0 0 0-6 17l-1 1v-2l4-13 3-6v-4l-1-10 1-16v-1l-1-1-1 1-11 4h-1l-1 3 2 5 3 9v3c-2 1-2-1-3-2l-8-14c-2-6-4-10-8-15-6.5-6.6-12.2-14-17-22h-1v3c.5 10 1.2 20 2 30 1 7 4 14 7 21l10 27c1 6 3 11 3 17l1 10 3 21 4 14 1 2c1 2 2 2 3 1l10-5c8-4 16-7 24-8a389 389 0 0 0 43-7h10m-26 9h-21c-6 1-11 2-16 6l-9 7c-3 2-6 5-10 6l-1 1-1 1 2 2c5 4 10 7 16 8 7 2 15 4 22 4 7 1 13 2 19 6l13 6 15 5c1 0 1 2-1 2h-2c-10-3-20-5-29-9l-9-2c-12-1.7-23.7-4.7-35-9l-13-6c-9-4-18-9-26-15-3-3-7-5-12-7-4-2-8-4-12-4h-9l-10-1-12-4-14-8c-1-1-1-2-2-1v4c2 11 5 21 10 31 3 10 8 19 12 28 7 14 16 26 27 37a235 235 0 0 0 90 58l13 4c6 2 13 2 19 0l5-1c13-3 25-8 37-15a356.5 356.5 0 0 0 42-28 232.1 232.1 0 0 0 40-44l10-18 2-3-1-1h-4l-19 5c-6 2-11 4-15 7l-8 6c-15 12-31 20-49 26l-24 7-34 7-20 3-12 2v-1l9-2 37-9a397.5 397.5 0 0 0 95-42c8-6 18-10 28-12l18-3 3-3 2-5a228.5 228.5 0 0 0 14-52v-10c1-4 0-5-5-4l-18 6-18 6c-7 2-14 5-20 9-9 5-19 8-28 12l-21 6c-7 1-14 2-21 1l-16-1h-5l-18 1m-77-177h12c5-.5 9.6-2 14-4v-1l-2-2c-4-3-2-8 1-10h2l2-2v-1c1-4 5-6 9-5l2 2 2 3h3c3-1 5 0 7 2s2 5 1 7l-3 3v2c1 3 0 6-2 9-1 2-4 3-6 2l-3-2-3 2c-4 3-8 2-9-2-1-2-1-1-3-1l-1 1c-5 3-10 4-16 3l-12-1h-14a248.1 248.1 0 0 0-46 15c-2 1-4 3-4 5l-1 4-7 25-5 24v2h1l6-6c8-7 16-13 25-17 5-1 9-4 12-8 5.7-5.3 11-11 16-17 2-3 5-2 6-1l2 2 2 4c3 8 8 15 14 21l8 10 3 1 2-1c5-3 11-4 17-5 5-1 5 0 8 4l4 8c4 7 3 7 13 11l3-1 8-9a1080 1080 0 0 1 25-23l3-3 1-1h2l2 1 3 5h2l6-5c6-4 11-10 15-15l17-22 4-9 1-8 2-8c1-1 2-2 3-1l12 7c5 2 8 6 10 10l4 8c5 10 11 19 18 28l8 12c3 4 5 8 6 13v2c1 3 2 6 5 8l7 5 19 10 2 1 2-1v-2l-3-21-10-35c-4-17-11-34-19-49l-18-31c-8.6-16-20.5-30-35-41l-15-11-21-12-37-13c-4-2-8-2-13-1l-7 3-24 8a149.1 149.1 0 0 0-40 23c-8 5-15 11-20 18l-4 4-11 16-9 15c-6 10-12 20-16 30l-7 15v1h1l21-6c7-2.6 14-5.2 21-8l2-3 2-10 1-7-1-3-1-3c0-2 1-3 3-4 2 0 4 0 5 2s1 4-1 5l-1 1c-2 1-2 2-2 4v10l1-1c4-4 7-9 9-14l1-3c3-6 5-12 9-17l9-10c2-1 2-2 0-3l-3-3c0-2-1-4 1-5l1-4 1-4c1-3 4-4 7-2l2 1h2c4-2 7-2 10 1l1 4c-1 1 0 3 1 4l2 4c0 3-1 5-4 5l-3 3-3 3h-5l-4-4h-1l-11 13a51.4 51.4 0 0 0-5 13v1h1c6-4 13-5 19-7l12-2c9-1 17-5 26-8 2-1 4-2 5-5v-2c1-3 1-5-2-6l-1-2-1-4c0-2 3-5 6-4s4 4 3 8l-2 12c6-2 12-5 17-9l6-4 12-6h2l1-2 1-1c0-2 0-4 3-5l1-1 1-2c2-2 6-2 8 1l1 2 1 1h1c3 0 5 3 4 5l-1 5v2c-1 2-3 4-5 4l-4 1h-1c-2 1-4 0-5-1-1-2-2-3-1-5l1-1h-1l-2 1-24 13h1l20 2 10 2 4-1 8-9 3-1c2 0 4 2 4 4 0 1-2 3-4 3h-1l-4 1-3 2v1h5l17-3h5l-1 2-3 2-9 3c-10 4-20 4-30 2l-16-4c-5-1-10 0-14 1a61.4 61.4 0 0 0-19 9v1h1l15 7 21 8 7 1 2 2h-15l2 3 6 8 4 8v1c0 2 0 3-2 4-1 1-2 0-4-1l-1-3 1-1 1-4-4-7c-5-7-11-11-19-14h-1v2c3 4 4 9 4 14v7c1 8 2 15 7 22l1 3 1 2v1h-1c-7-7-11-15-12-25v-9l-1-9c-3-9-10-13-19-15h-7l-20 2h-7l-7 3-11 10-14 15v2l12 1m255 105-1 23a283 283 0 0 1-20 82l-11 24c-5 12-12 23-20 32l-12 14c-8 9-18 17-28 23l-28 16c-13 6-26 10-40 13-7 2-13 2-20 2l-10-2c-14-3-28-8-41-14-12-7-24-13-35-21a300.9 300.9 0 0 1-36-38l-14-23-13-30a199 199 0 0 1-18-69 314 314 0 0 1 4-81l8-30c2-10 6-19 9-27a245.6 245.6 0 0 1 38-61c9.2-10.8 18.5-21.5 28-32l16-14c15.2-9.6 31.7-17 49-22 7-1 13-3 20-3l9 1a162 162 0 0 1 61 24 417.6 417.6 0 0 1 30 28l12 15a245.9 245.9 0 0 1 59 130l3 16 1 24"/>
    <path d="M464 488.8c0 .4-.3 6.8-.2 13.3-6.8.5-5.7-13.3-5.3-15 .2-1.4-4.4 1.7-6.6 3.8.7 1.3 1.7 1 3 .5-.6 6.2 3.8 11.8 9 11.7.1 6.4.8 12.5 2.6 13 .2 0 .5-6.5.6-13.7 12.2-3.8 7.5-18.3 7.5-18.3-.2-.8-2 .3-6 3.9 1.6 1.7 2.4.7 3.6.3 1 1.9 1.4 10.5-5 13l.2-18-.4-.2c-1.8.2-5 3.4-7.5 6 1.4 2.3 3.1.3 4.5-.3m6 19 2.7 2.9 2.8-2.8-2.8-2.8-2.8 2.8Z"/>
  </g>
</symbol></svg>
