<svg xmlns='http://www.w3.org/2000/svg' viewBox='0 0 696 830' fill='none'><symbol id='Shanwei_Outline'>
  <g fill="#00807D">
    <path d="M124 440.5v3l3 42 7 31a247 247 0 0 0 58 112l23 22 13 12c18 15 37 26 59 32l26 5 14 3c9 1 19 2 28 1l16-2 16-3 24-6c21-7 40-18 57-33l25-23a235 235 0 0 0 61-103 370.3 370.3 0 0 0 15-88c-1.9-32.5-5.2-64.8-10-97-3-16-8-31-13-45l-18-48-13-25c-10-18-23-35-36-51s-29-28-49-35a389.4 389.4 0 0 0-54-15l-19-2h-26a257 257 0 0 0-73 19c-8 3-16 7-24 13-8 7-16 14-23 23l-28 38c-8 12-14 24-19 38l-16 41a312 312 0 0 0-23 116l-1 25m451-13-2 29-1 17-2 19-7 42-11 31a277.8 277.8 0 0 1-72 97 154 154 0 0 1-90 41l-22 4-13 1-7 1-17-1-41-7a156.6 156.6 0 0 1-75-37l-28-29a271 271 0 0 1-53-87c-4-11-7-23-9-35l-4-33-2-27v-1l-1-34 1-23 3-30 4-24c3-14 6-27 11-40l20-52 11-21c11-17 23-33 35-48 13-15 29-27 47-36 12-6 24-11 37-15l22-7c9-2 19-2 28-2h19c11-1 22 0 33 3l40 14a172.7 172.7 0 0 1 63 47 446 446 0 0 1 43 65l22 57a456 456 0 0 1 17 99l1 22"/>
    <path d="m288 259.5 8-1c6 0 11-3 14-9l2-6 4-18c1-9-3-17-9-24h-2l-1 1c-9 3-16 7-24 12l-19 14-8 7v3l1 2c4 7 9 12 15 16l4 1 15 2m-109 171 3 40c1 12 4 25 9 37a376.9 376.9 0 0 0 32 61 224.4 224.4 0 0 0 78 61l5 2 26 9 15 1 11-1c15-4 29-10 42-17l16-10c18-11 33-25 47-40 7-8 13-16 18-26l13-26c7-16 12-34 15-52 3.8-28.9 3.1-58.3-2-87l-10-38-9-25c-8-19-18-36-28-54l-3-2-6-2c-14-4-27-7-42-9-12-3-25-5-37-9l-25-7-4-1-1-1h9l18 2c10 1 19 3 28 6l29 9 26 7 3 1c1-2 0-2-1-3-5-8-10-14-16-20l-13-11-16-12-16-9-18-7-13-5-4 1-1 1a57 57 0 0 1-19 8v-1l2-2 13-8 1-1-1-1c-5-2-10-2-15 0l-22 7-5 3-1 1c4 5 6 11 8 17 4 10 4 20-2 29-6 10-14 16-25 18-5 1-10 1-15-1l-18-13-6-8-1-2h-2c-6 6-12 13-16 21l-16 28a294.5 294.5 0 0 0-17 37v1-1l5-6c8-12 17-23 27-33 7.2-6.8 14-14.2 20-22l1-1 1-1 1 2-2 3-5 6-18 25c-7 9-14 17-22 24l-10 10c-1 2-3 4-3 7l-11 38-4 24-1 28m340-9c-.2 35.3-6.9 70.2-20 103l-10 21c-6 14-14 27-24 38l-13 14c-6 6-12 12-19 16-11 8-23 15-36 21s-26 10-40 13c-10 1-20 1-29-1-15-3-29-8-42-15l-23-14c-12-7-23-16-32-27-9.3-12.2-18-24.9-26-38-7-14-14-28-19-42a214.8 214.8 0 0 1-14-69l-1-28 1-16c0-9 2-17 4-25 3-12 5-25 9-36a236.6 236.6 0 0 1 50-88l16-20a169.2 169.2 0 0 1 38-31c13-6 25-11 38-13 5-2 11-2 16-3h5a145.7 145.7 0 0 1 96 53l18 22c19 22 32 47 41 74 5.1 16.8 9.4 33.8 13 51 2 10 3 21 3 32v8"/>
    <path d="M292 398.5h17l11 2c9 2 17 5 24 10 4 2 7 6 10 9 8 9 12 20 13 31s-1 21-4 31c-3 12-9 22-15 31l-13 20v2l20 5 13 1c12-1 23-6 33-11l1-3v-4l-3-27c-1.6-21.5-7-42.5-16-62l-26-54-7-14v-2l2 1 9 12 13 20 1 1 1 1v-1c1-9 5-18 11-25l7-8 14-17c5-7 10-16 13-25 5-13 7-26 4-40-1-6-4-12-6-17h-2l-3 4-3 4c-1 3-4 5-7 7l-3 2c-6 2-11 6-15 11-2 4-5 6-9 8-6 3-10 7-12 13v1c-2 6-6 11-12 14-3 1-4 3-6 6l-3 8-2 3c-2 3-2 3-5 2l-4-3c-3-1-6-2-9-1a34.3 34.3 0 0 1-17 3l-5-2c-5-1-9 0-13 3l-2 1-8 2h-3c-6-1-11 0-15 3l-9 5-11 6-8 2c-5 0-10-1-14-3l-3-2-1 1 1 2 7 12c6 8 14 14 24 17a109 109 0 0 0 45 4m171 119c-15 0-28 2-41 8l-18 10-17 7c-10 2-20 3-30 1l-19-4c-9-1-17-2-25-1l-28 4c-13 2-25 2-37-1a69.2 69.2 0 0 1-39-26l-2-4v-1h1l4 3a92 92 0 0 0 51 19l35-1 26 1h2l3-1 4-5 19-36c3-8 6-16 7-25 2-13 0-25-6-36-5-10-13-16-23-20l-21-3-15 1h-20c-2 0-2 1-3 2l-1 9c-2 6-3 12-6 17l-1 3h-2v-3l1-11 3-14c1-3 0-3-2-4a86 86 0 0 1-23-5c-9-4-17-11-22-20l-5-14v-5c0-2 1-3 2-2l3 1c5 1 11 1 16-1l13-5 11-6c3-1 6-3 10-3h7c3 1 3 0 4-3v-6l4-26 6-28v-2l2-3 1 3v12c-.3 17-1.3 34-3 51 4-2 8-3 13-3h2l19-1 3-1c4 0 8 1 12 5l1 1h1v-3l2-7c1-4 4-8 8-10l6-4v-3l-5-6-22-31-7-11-1-1v-1h1l2 3 18 21 16 19 2 2h1l2-2c3-5 7-9 12-13l7-7c4-7 10-11 18-14l3-1c3-1 5-2 6-5 1-4 5-7 8-10h3l1 1c6 9 11 19 12 29 2 10 1 20-3 29-4 10-9 19-16 27l-12 14-3 2v3l4 4 28 33 6 8 3 6v2h-1l-2-2-6-6-8-9-24-32-2-3h-2l-10 12c-5 7-7 15-7 23l2 3 8 17a150.3 150.3 0 0 1 16 63l2 39c0 2 0 2 2 1l7-3 22-8c7-1 14-2 21-1 6.7.4 13.4 1.5 20 3h1l-1 1h-15m-194 52c15 0 27-1 39-3s25-2 37-1l22 1c17 0 34-4 49-11l16-8 19-7c7-2.7 14.5-4 22-4l1 1-1 1c-10 0-18 3-26 8l-13 9-17 12a79 79 0 0 1-56 12l-22-6-11-2c-7-2-13-2-20-1l-25 2-17-1-12-1-1-1h16m10 21c6 0 12 2 18 4l16 5 17 4c6 1 13 2 19 1l27-3h11v1l-6 4-24 9c-12 3-23 2-33-3l-15-7a78.2 78.2 0 0 0-40-13h-1l1-1 10-1"/>
    <path d="m245 380.5 8 1 22 1 24-1 18 3 12 7 1 1h-2l-2-1c-10-5-20-7-30-5-9.7 1.2-19.4 3-29 5-5 0-10-1-14-3l-6-3-3-2v-2l1-1m172-71a44.8 44.8 0 0 1-16 31l-5 5a74.1 74.1 0 0 0-17 20h-1l1-2 7-11 9-11a111.3 111.3 0 0 0 19-35h2l1 1v2m-195.7 158 2.8 2.7 2.8-2.8-2.8-2.8-2.8 2.8Zm-5.9-19.2c0 .4-.3 6.8-.2 13.3-6.8.5-5.7-13.3-5.3-15 .2-1.4-4.4 1.7-6.6 3.8.7 1.3 1.7 1 3 .5-.5 6.2 3.8 11.8 9 11.7.1 6.4.7 12.5 2.6 13 .2.1.4-6.5.6-13.7 12.2-3.8 7.6-18.3 7.6-18.3-.2-.8-2 .3-6 4 1.6 1.6 2.3.6 3.6.2 1 2 1.4 10.5-5.2 13.1l.3-18c0-.2-.2-.3-.4-.3-1.8.2-5 3.4-7.5 6.1 1.5 2.2 3.2.2 4.5-.4"/>
  </g>
</symbol></svg>
