<svg xmlns='http://www.w3.org/2000/svg' viewBox='0 0 696 830' fill='none'><symbol id='SMRC_Outline'>
  <g fill="#9BADFA">
    <path d="m123 447.2 1 20 2 15 3 19 6 25c11.8 40.4 33 77.4 62 108l11 11 17 16 6 6a175.6 175.6 0 0 0 47 25l27 7 14 3 17 3h22l4-1 9-1a853 853 0 0 1 36-8 169.8 169.8 0 0 0 70-42l11-11 7-6 8-9 10-12a273.7 273.7 0 0 0 52-120l2-14 2-13 1-14-1-19-1-21-1-9-1-13v-1l-1-11-1-9-2-13-3-14a304.2 304.2 0 0 0-17-55l-10-24-7-18-14-26c-13-18.4-27-36.1-42-53l-6-6-18-12-25-10a475.9 475.9 0 0 0-47-12l-7-1h-7l-7-1-23 1-9 1-15 3-13 4a259.6 259.6 0 0 0-48 18 123.7 123.7 0 0 0-38 34 590.2 590.2 0 0 0-41 66l-12 31-7 20c-8.4 24-14.4 48.8-18 74l-1 14v1l-2 13v10l-1 15-1 16m-5-19v-20l1-9 1-17 1-10 1-9 1-5a286.4 286.4 0 0 1 22-77c6-13.6 11.5-27.3 17-41l7-13c13-20 27.7-38.7 44-56a184 184 0 0 1 56-36l31-11 16-3 17-1 7 1h13l4-1h2c10.5-.3 21 1 31 4l37 12c18 7.4 34.6 17.9 49 31l6 6a669.7 669.7 0 0 1 44 58l12 23 15 39 9 28 4 15 2 11 2 12 1 8 1 11 1 1v12l1 7v8l1 20v15l-1 15-1 17-2 13-2 17c-2.3 21.8-8 43-17 63l-5 10a316.7 316.7 0 0 1-68 88 163.2 163.2 0 0 1-82 40l-10 1-7 1-13 2-12 2h-15l-13-1-12-2-10-2-15-3a153.4 153.4 0 0 1-58-24c-6-3-11-8-16-12l-22-21a227.5 227.5 0 0 1-35-45l-11-19-7-13-3-8c-6.6-15-11-30.8-13-47l-1-9-1-6-1-10-1-11-1-11-1-7c-.7-10.3-1-20.7-1-31"/>
    <path d="m356 446.2-1-1h-3c-4 0-4 0-4 4l1 3 5 5 1 1h2v-4l-1-8m-21 12h1l7-6v-6l-1-1h-7v13m-1 24h7l1-1v-13l1-11-7 8-1 2-1 15m13-12v11c0 1 0 2 2 2l5 2c2 1 2 1 2-2v-15l-1-2-4-5-1-1-1-1c-1 0-2-1-2 1v10m-1-200 12-1-5-8-5-7c-2-3-2-3-5 0l-2 3-7 10v2l2 1h10m-1 15v-5l-1-3h-1c-6 2-10 9-9 16 1.4 4.5 2.1 9.3 2 14 0 2 0 2 2 3h5l2-1-1-10v-5l1-9m1 21c0 5 0 4 4 4l4-1 2-2v-4l1-8v-4c1-3 0-5-1-7-1-3-4-6-8-7l-1 1c0 5-1 11 1 16v5l-1 7m45 92h8l2-2c2-2 3-4 3-7l4-15-1-1h-12l-4 1-1 4c-1 6-3 11-6 16l-2 3 3 1h6m-93 0h9l1-1v-1c-5-6-8-13-9-22l-1-1h-15l-1 1 1 6 3 10c0 2 1 5 3 7l1 1h8m47-126-14 1-3 2-14 18v1h5l10-1h2l1-1v-5c0-2 0-4 2-6 2-4 5-5 9-6h4a12 12 0 0 1 11 11v6l1 1 16 1v-2l-5-6-12-13-13-1m-49 99c2 0 2 0 2-2l1-3v-3l5-15h-16l-8-1-7-1-1 1 8 19 1 3 1 1 14 1m97-24-7 1v1c3 7 5 13 5 21l1 1 16-1 1-1 1-2 5-13 3-7-1-1h-3l-12 2-9-1m-55 220v-12l-2-7c0-2-2-3-3-4l-3 1-4 4-1 5v25c0 4 0 7-2 10v3l8 2c3 2 6 1 9-1l1-2c-3-5-3-11-3-17v-7m26 6-1-8-3-5h-3l-3 3-1 2-2 29-1 7-3 8v2l8 2c4 1 9 1 12-2l1-2c-2-2-3-4-3-7l-1-29m-21-51a34 34 0 0 0 13-2l4-4c5-10 1-19-1-22-4-6-10-7-11-7h-5c-5 1-9 4-12 7l-2 2c-2 2-3 5-3 8-1 4-1 8 1 12 2 3 4 5 7 6h9m25-226h-6c-3 0-3 0-3 3v7c0 4-3 6-6 6h-17c-2-1-5-2-5-5v-10l-2-1h-15l-4 2-13 17-1 1v1h34l14 1h2l11-1h37l-1-1-1-2-5-7-8-10-3-1h-8m5 124h17l2-1v-3l1-3 4-10 1-2c1-1-2-1-2-1h-15l-3 1c-5 5-12 9-19 11l-10 2h-13c-9-2-17.4-6.5-24-13l-3-1h-17c-3 2 5 12 6 18l2 2h26l17 2h4l14-2h12m30 21 1-1c-4-5-8-10-10-16l-3-1-8 1-9 2-10 1h-10l-6-1h-6l-7 1h-8l-9-1-10-1-1-1-8-1c-2 0-3 0-3 2a80 80 0 0 1-10 15v1h9c5-1 10 0 15 1h18l8-1 26 1h17l4-1h20m4-97h9v-1a621 621 0 0 1-20-23h-29l-3 1h-37l-6-1h-26l-3 1-11 13-5 6-3 3 1 1h17l12 2c1 0 2 0 3-2l6-6a54 54 0 0 1 28-14c6-1 11-1 16 1l5 2a52.2 52.2 0 0 1 23 18l2 1 3-1h5l11-1h2m-63 68c6 0 11-1 16-4l7-5 10-10 7-9a29 29 0 0 0-4-35l-11-11c-4-5-10-8-16-10-5-2-10-3-15-1-6 2-12 5-17 9l-13 14c-3 4-6 9-7 14-1 8 1 15 5 21 5 8 12 15 19 20 6 5 12 7 19 7m12 115h-1l-8 2-1 1v10l1 1v3c-1 2-3 2-4 1-1 0-2-2-1-4l1-4v-7l-3-2-3-1-2-1-2 1v7c0 4 1 7 4 9l3 6v6l1 26 1 8c1 3 1 4-1 6l-4 1-1 1c-2 0-2 0-2 3l1 1-2 3c-2 0-3-1-3-2l1-3c0-1 0-2-2-2l-1-1-6-2-1-1-1-2 1-1c2-5 2-9 2-14v-23c0-3 1-7 4-9 2-3 3-5 3-8v-11l-1-3-4-5c-2-4-2-9-2-13l1-7 4-10c2-5 1-12 1-14l-2 2-15 11-5 4-11 10-5 6-1 1c-1 1-2 2-1 0l2-4 4-5-1-2-12-5c-4-1-7-3-10-7l-2-2h-4l-4 4-13 12-9 8-7 5-1 2c3 4 6 9 10 12l4 3a231 231 0 0 1 7 7l-6-3-14-10a27.2 27.2 0 0 1-10-11l-4-7h-1l-1 2-8 7-4 4c-3 1-5 4-7 6l-1 5 12 24 4 6 14 18c7.5 7.2 15.1 14.2 23 21a228.6 228.6 0 0 0 41 28 169.1 169.1 0 0 0 36 15l14 3 11-1 25-7 17-8a372.7 372.7 0 0 0 53-37l1-1 19-19c6-7 10-15 15-23l14-29 2-5 2-7c0-2-3-3-5-4l-4-4a222.2 222.2 0 0 0-21-19h-1l-2 2c-3 4-7 8-12 10l-8 5-5 2 2-2 2-3v-1l-1-1-10-5-8-4c-2-1-3-1-5 1l-3 1a68 68 0 0 1-18 11l2 2 8 9c3 3 6 7 10 9 3.4 1.9 6.7 3.9 10 6l-1 1h-4c-6-2-13-5-17-10l-6-7-5-7-5-5c-2-3-5-4-8-6l-21-14-4-3-1 1v14c0 2 0 4 2 6 7 12 4 21 2 25l-3 5-1 3v24c0 4 1 8 3 11 2 2 3 5 3 7l2 14v17c1 3 1 7 3 10v2c1 1 1 3-1 4l-6 2-3 1c-1 1 1 2 1 3v1l-2 2c-2 0-3-1-2-2v-4l-5-1-7-2-1-3 1-2 4-14v-15l1-10 3-10c2-3 3-6 3-10v-22m155-96-1-19-1-17-3-16-6-20c-4.3-14.8-9-29.5-14-44l-16-31-12-20c-3-7-8-14-13-19l-6-7c-3-5-7-8-12-11l-17-13-21-11-21-8-15-5c-5-3-11-3-17-1l-36 13-17 10a1008 1008 0 0 0-27 19 146.1 146.1 0 0 0-25 32l-6 10-11 19c-16.5 30.3-28 63-34 97l-2 20v10l-1 11 1 13 1 13c1.1 10.4 2.5 20.7 4 31 2 11 6 22 11 33 0 1 1 2 2 1 2-4 5-8 8-10l8-8 3-2h3c4 2 8 4 11 8h4l1-2 5-6 11-12c4-3 9-7 14-9 3-1 5-1 8 1l7 3 15 8 3 1h1l5-6 20-17 5-4 1-4v-16l-1-1h-38l-7-2-1-1 2-6 6-10 4-6v-1c-4-6-6.8-12.8-8-20l-4-11-1-3-6-13-6-22h-2l-7 7-6 5c-2 1-3 1 0-5l12-18 12-17c20.7-27.8 42.3-54.8 65-81h4l2 2c6.1 6.3 11.8 13 17 20l11 14 13 16c11.3 14.7 22.4 29.7 33 45l11 17 3 5v3l-7-5-9-8v2l-3 8c-3 9-6 19-11 28l-2 7-1 6-7 16c0 1-2 2-1 3l2 3v1l7 13 2 4-1 2-6 2c-10 2-20 0-22 0h-17l-1 1v15l1 2 1 1c6 3 12 7 17 12l8 7 9 8h3a102 102 0 0 0 22-12c3-2 6-2 9-1l2 1 9 5 9 5h2l1-1 13-11c2-2 4-2 6-1l1 1a89.4 89.4 0 0 1 23 18l3 3c3 3 3 2 4-1l1-4c2.6-10.2 4.2-20.5 5-31l1-3v-7l1-8v-13m-341-11v-16l2-13 2-13c5.3-20.1 11-40.1 17-60a294.7 294.7 0 0 1 26-49l10-14 6-6 16-19 12-12 15-12c5-4 11-8 18-11a210 210 0 0 1 40-13l9-1h2l6 1a158 158 0 0 1 45 14c8 3 14 7 20 13l16 12 9 11 10 12a314.6 314.6 0 0 1 42 62 213.9 213.9 0 0 1 17 51l4 19 2 11 2 10v5l1 26-1 16-2 14-2 13-2 13a590.7 590.7 0 0 1-23 62l-5 8c-3 7-7 14-12 20l-17 20c-8 9-17 17-27 23-11 7-22 14-34 19-10 5-20 8-32 10l-9 2-3 1h-5c-11 0-7 0-17-2a136.1 136.1 0 0 1-47-17l-13-8a156 156 0 0 1-63-66l-10-21-6-15a200.4 200.4 0 0 1-14-46l-2-11-1-9-1-8-1-9v-17"/>
    <path d="m346 377.2-3-7-1-4-2-2-2-1 2-1-3-1v-1h1v-2l-1-2-1-1h-1l-1-6v-1 1l5 4v3l1 1h1l1 1-1 1v2h2c1 1-1 2-1 3l2 3 1 3c1 2 1 1 1 0v-13h-1v-6l2-4 2 7-1 2-1 1v18l1 3 5 10c0 2-2 1-2 0l-3-6h-1v5c0 6-1 4-1 3v-13m1-45-1 4h-1c-1-2-2-4-1-7l2-1 1 1v3m37 33 2 1 1 1-1 1c0 1-4 2-7 1v-2l2-1 3-1m-67 20-4 4-2-1v-2c1-2 3-4 5-4s2 2 1 3m27 21 1-3h2v7s-3 1-3-4m35-18-5-4c0-1 0-2 2-2 3 0 4 3 4 4 1 2 0 2-1 2m-72-16h-1l-2-2 2-2 5 1v1l-4 2m25 26-5 5-2-2c1-1 4-4 6-4 1-1 1 0 1 1m33-62c0 2-5 6-7 5-1-1 1-6 4-7 0 0 2 0 3 2m-1 60c3 4 3 5 2 6h-1c-2-1-3-3-3-5v-1h2m-36-59c2 1 4 5 2 6h-1v-1c-2-1-3-3-3-5 0 0 0-2 2 0m-14 12c2 1 7 5 4 5-2 1-5-3-6-4 0-1 1-2 2-1m58 2v-1l5-3h1v1l-2 2-3 2-1-1m-29 158c-2 0-5-2-4-4 0-1 2-3 4-3 3 0 5 2 4 4 0 2-2 3-4 3m68.6 69.6 2.8 2.8 2.8-2.8-2.8-2.8-2.8 2.8Zm-5.9-19.1c0 .4-.3 6.8-.2 13.3-6.8.5-5.7-13.3-5.3-15 .2-1.4-4.4 1.7-6.6 3.8.7 1.3 1.7 1 3 .5-.6 6.2 3.8 11.8 9 11.7.1 6.4.8 12.5 2.6 13 .2 0 .5-6.5.6-13.7 12.2-3.8 7.5-18.3 7.5-18.3-.2-.8-2 .3-6 3.9 1.6 1.7 2.3.7 3.6.3 1 1.9 1.4 10.5-5 13l.2-18-.4-.2c-1.8.2-5 3.4-7.5 6 1.5 2.3 3.2.3 4.5-.3"/>
  </g>
</symbol></svg>
