<svg xmlns='http://www.w3.org/2000/svg' viewBox='0 0 696 830' fill='none'><symbol id='Taican_Outline'>
  <g fill="#00807D">
    <path d="m569 439.4-1-28c-2-21.4-4.8-42.7-8-64a3598.6 3598.6 0 0 0-45-120c-11-16-22-32-35-47-13-17-30-29-51-37a440.5 440.5 0 0 0-63-16h-11a178 178 0 0 0-64 8c-12 3-24 6-35 11l-22 13c-9 7-17 15-24 24l-27 36c-8 13-15 26-20 41l-15 37a364 364 0 0 0-22 102l-2 26c-2.8 33 .6 66.2 10 98 10 38 28 71 54 101 9 11 20 21 31 32 20 19.1 44.4 32.8 71 40l27 6 19 2c11.3 1 22.7.5 34-1l25-6c28-5 52-18 73-37l28-26c26.1-26 45.7-57.9 57-93a383 383 0 0 0 16-102m6-14-1 30-3 25-2 18a208 208 0 0 1-35 101c-11 18-23 34-38 48l-20 19c-18 17-40 27-64 34l-27 5c-10.3 1.5-20.7 2.8-31 4h-4l-4 1c-9-1-18-1-26-3l-26-4c-27.6-5-53.5-17-75-35a272.3 272.3 0 0 1-85-120c-5-11-7-23-9-35l-4-34-2-27-1-31 2-38 3-27c4-24 11-47 19-69l12-30c5-14 12-27 21-39l26-35c14-16 30-29 48-39 12-6 25-11 38-15 8-3 15-6 22-7 9-2 19-2 28-2h18c13-1 26 1 38 4l41 15c18 9 35 20 49 35l14 15a423.3 423.3 0 0 1 40 64l18 47c9.2 24.1 15 49.3 17 75 2 16 2 31 3 50"/>
    <path d="M285 311.4v-1c1-1 0-2-2-1l-3 1v1l4 2h1v-2m1-10v-1l-2-1-9 5c-3 2-3 2 0 4h3l6-3c1 0 2-1 2-3v-1m168 182-1-15c0-1 0-2-2-2s-2 1-2 2v6l1 11-1 16v5l2 16c.3 4.4 0 8.7-1 13l1 2 2-1v-2l1-7v-9l-1-7v-11l1-17m-183 53v-1l1-7 4-14 1-6 1-10c1-1 0-2-1-1l-13 3-1 2 7 31v2l1 1m103-123v30l1 1 1-1c3 0 3 0 3-3l1-20 2-33-1-2v-1l-5-1h-1v3l-1 27m-6-1-1 17 3 16 1-2v-2l1-40v-19c1-2 2-3 3-2l5 1 2-1-2-4-22-12-4-2v6c-1 1 0 1 1 2l11 5 2 4v33m-112 88h-3l-1 2-2 7v9l1 15v2l1 1 2 1 11 1c5 1 4 0 3-4l-7-30c0-5 0-4-5-4m66-12h-1l-14 2-2 1-1 1 6 26 1 11 2 8 1 4c2-1 1-3 1-4l4-21c1.5-3.9 2.5-7.9 3-12l1-15-1-1m6-13v7l1 2h3c6-1 12-1 18 1l11 2 2-1v-11l-1-5-4-1h-9l-13-2-6-2-2 1v9m-39-173c0 2 0 2 2 3l7 4 9 5 11 6 22 15c14.4 8.7 28.5 18 42 28 1-2 1-4-2-5l-11-9-16-11-28-19-16-13c-5-4-10-6-16-7-4-1-4-1-4 3m74 153c0-6 0-5-5-7l-19-5-7-3c-4-2-4-2-3 2v18l1 1h2l18 3 11 3 2-1v-11Zm1-42v-6l1-25c0-3-1-5-3-6l-4-2-3-1h-2v37l-1 14v17l1 2 10 2v-3l1-29m18-43-2-4-9-6a226.5 226.5 0 0 0-36-23 168.6 168.6 0 0 1-32-23l-12-5c-2-1-3-1-3 2v1c-1 3 0 4 3 5 8 4 15 9 22 15 14 11 30 20 46 29l15 8 6 3c1 1 2 0 2-1v-1m-57 105v-8c0-2 0-2-2-2l-2 1-14 3c-8 1-15 3-22 6-6 3-12 4-17 5l-14 2c-3 0-3 0-3 3v8l1 2h2c8-3 16-5 24-4l10-1 15-2 20-3c2-1 2-1 2-3v-7m42 13-1 9v22l1 23 1 1 10-1 1-1v-33l2-31v-16l-2-11v-4l-5 1-5 2-2 2v37m-56 56v-1l-3-13-4-15-1-15-1-8-2-1-17 4-2 2-2 10-1 9-2 15-2 6v1l1 1h1l30 6h4l1-1m171-57v-7c0-2-1-4-3-5l-9-4-10-3-2-1-1 1-1 7 1 35v8l-1 7v9c0 2 1 2 2 2 7-1 13-2 20-1l2-1 1-1v-8l-1-11v-13l2-14m-119 30v-25l-2-2-3-1h-11a44 44 0 0 1-18-2l-2 1v2l-2 11-2 17-2 15-3 10v2l3 1h19l21-2c2 0 2 0 2-2v-25m-141-66-1 7v8c0 1 0 2 2 1l18-8 2-2v-23l-1-27 2-39-1-6c-1-6-2-12-1-18l1-23 2-20v-3h-1l-1 3-19 24c-1 1-2 2-1 3v28l1 32c0 7 0 14-2 21l-1 6v15l1 21m11 86c4.7-.8 9.3-1.4 14-2v-1l1-17v-8l-1-7c-1-6 0-12 1-19l3-3 4-2 15-4c5-2 11-4 16-4l16-3 17-4h4l2-2v-2c-.7-6-.7-12 0-18l-2-1-14 5-21 5-19 6-8 4-15 5-22 7c-3 0-3 0-3 4l-1 15-1 39v6l1 1h13m112 106 11-2 6-1c9.8-2.9 19.1-7 28-12h-4c-18-.4-36-2-54-5l-9-3-4-3c-3-4-3-8 0-11l4-3 8-4 17-4 26-4 13-4 5-2v-2l-3-1-13-2-40 1c-22 1-44 0-65-3-17-2-33-6-48-12l-3-1c0 2 1 2 2 3 9 11 18 21 29 30a286.6 286.6 0 0 0 73 40l11 3 10 2m53-100h3l14-1c9.8-.2 19.5-1.5 29-4 1 0 2 0 1-2-1-10 0-20 1-30v-7l-1-12 1-6 1-13c0-2 0-2-2-3l-13-4a83.7 83.7 0 0 0-17-6l-23-8-2-1c-1-1-1 0-2 1l-2 14-1 13c1.4 23 2.1 46 2 69h11m-13 75c8.7-.4 17.3-.8 26-1 18-11 34-24 49-39a134.5 134.5 0 0 0 26-37l-1-2-12 2c-15 5-30 8-45 10-7 1-14 1-21-1-3-1-7-2-11-1-5 0-10 0-15-2l-7-1-21 6c-6 2-11 3-17 3h-14c-7 0-15-2-22-5l-9-3c-7-2-14-4-22-4h-18l-22 2c-8 0-16-2-23-5h-1l6 13 3 2 7 2c25 8 51 12 77 14l39 2 25 1 19 2 11 3 3 2c2 1 2 4 0 6l-3 2-7 3-21 6-25 6-10 4-3 2v1l6 2 20 3 33 2m-137-207v14l3 31 12-2 21-6 11-4 24-7h14l11 3h3l1-1v-1l1-28v-49l-1-3-2-1a484.3 484.3 0 0 0-53-32l-19-13-21-13-3-2c-1-1-1 0-1 1v13l2 31c-1 8-1 15-3 22l-1 7 1 32v8m138-18a472 472 0 0 0 5 46l4 1c9 2 18 6 26 11l11 6 11 4c3 2 6 3 10 3 5-1 9 1 14 3l14 7c2 0 3 1 3 3v2l2 21-1 16-1 4v13l1 1c2 0 5 0 6-3l4-9 1-4c10-23.8 15-49.3 15-75 .7-19-.3-38-3-57-3-16-8-32-12-47-6-17-13-33-22-49l-17-30-10-14-8-9c-16-11.6-32.5-23-49-34-12-6-25-10-38-14-5-2-9-2-14 0l-28 10c-10 3-20 8-28 14l-18 12-7 6c-10 9-18 19-25 30l-16 29c-9 17-17 34-23 53-4.2 15.6-8.2 31.3-12 47a245 245 0 0 0-1 75c2.8 23 9.6 45.3 20 66 1 2 3 4 6 4l5 1 1-1v-60l2-28c0-9 1-17 4-26v-11l-2-11v-34l1-21 1-12c0-4 1-8 4-12 6-8 12-16 20-24 4-3 5-5 11-1l13 8 3 1h2l1-2 9-7c4-2 8-3 13-1l7 4 12 8 17 11 23 16 29 23c3 2 4 4 4 6v31m134 28c-1 23-3 47-9 69-3 13-8 26-14 38l-10 21a175.3 175.3 0 0 1-85 83l-18 8c-10 4-21 6-31 8h-7a153.8 153.8 0 0 1-61-18l-17-9c-16-9-29-21-41-35l-8-10c-6-8-11-15-15-24l-15-34a277 277 0 0 1-12-149l8-33c8-27 21-53 39-75l19-23 2-2a160.4 160.4 0 0 1 51-42l28-10c7-1 13-3 20-3l10 1a152.7 152.7 0 0 1 63 26c7.2 6.1 14.2 12.5 21 19l24 28c25 30.4 42.2 66.4 50 105 3 13.6 5.3 27.2 7 41l1 20"/>
    <path d="M329 269.4c0 3-3 6-7 6-3 0-6-3-6-6s3-6 7-6c3 0 6 3 6 6m115 80c0 3-3 6-6 5-3 0-5-2-5-5s3-5 5-5c3 0 6 2 6 5m-19 56c0 3-3 5-6 5-2 0-5-2-5-5s3-5 5-5c3 0 6 2 6 5m-226 47c0 3-2 5-4 5-3 0-5-2-5-4 0-3 2-6 5-5 3 0 5 2 4 4m196-163c-2 0-3-1-3-3s1-4 3-4a4 4 0 0 1 1.6 5.4c-.4.7-.9 1.2-1.6 1.6m-14-61c0 2-2 3-4 3s-3-2-3-4c0-1 1-3 3-3s4 2 4 4m120 258-3 2a3 3 0 0 1-3-3 3 3 0 0 1 3-3c2 1 3 2 3 4m-20-144c0 1 0 2-2 2l-2-2 2-2c1-1 2 0 2 2m-101-38c1 1 0 2-1 2l-3-2 2-2 2 2m-84-63c-2 0-2-1-2-2l2-2c1 0 2 1 2 3l-2 1m-92 164-2 2-1-2 2-2 1 2m76 1v-1l-1-3-4 1v2l-1 3v2l-1-2v-2c0-1 0-2-1-1l-6 2 5-4v-2l-3-2h-1 1l4 1h4l1-1v-1l-5-4-1-1h1l5 3c2 2 4 2 6 0h1v-2l-2-1-1-1h1l4 2h3l5-6-6-3h-2l-7 3v-1l5-3v-1l-1-1h-4l-8 3 6-4c2-1 2-1 0-3h-1l-2-1-1 1c-2 0-3 2-5 1l4-3h1v-1l-3-2c-2 0-3-1-4-3l4 2 3 2 2-1v-5 1l1 5 2 2 1 1c2 1 2 0 2-1v-3l1-4v-1 1l1 5v3c0 2 1 3 3 4l1-1v-6l1-1v6c0 4-1 3 4 6l3 2c2 1 2 1 2-1l-1-10-1-1-3-2c1-1 2 1 3 1h2v-2c1-2 0-2-2-3l-6-5 9 3v-2l-1-3-3-2v-1l2 1c1 1 2 1 2-1v-6h1l1 1v6l1 1c1-1 2-2 3-1l-3 2c-2 1-3 2-2 5l1 1 5-3h3l-2 2-7 4 1 3h2c1-1 2-2 4-1l-3 2-2 1-1 1-1 11 8-4 1-2v-7l1-1v7h2c1 0 3-2 3-4v-5l1-3v9h1l3-1 1-1 1-6 1-1v6h2l2-1 4-2h1l-1 1-4 2-2 1v2l3 2v1l-5-2h-2l-2 2v1l2 1 4 3 1 1h-1l-7-4h-3l-3 1 3 2 3 3-4-2h-1c-3-2-5-2-7-1l-3 2c-2 1-2 1-1 2l6 4 2 1 5-2 1-1-1 2h-2l-2 2 3 2h4l7-4h1l-1 1-5 4-2 1 3 2h2l5-1c0-1 0 0 0 0l-3 2c-1 0-2 1 0 2l4 3v1h-1l-5-3-1 1v2l-1 2v-4c-1-3-2-4-4-4l-1 1-1 7-1-1 1-6-2-4-2-2h-1v1l-1 7-1-8c1-1 0-2-1-3l-7-3-1 1 1 7 1 2 3 3h-1c-3-2-3-1-4 1 0 2 0 3 2 3l7 6-1 1-6-4-1-2-1 1v4l1 2 4 4h-1l-4-2v4l-1 3v1l-1-1-1-5 1-2h-2l-3 2h-1l4-4c1 0 2-1 2-3v-4l-3 2-5 3h-1v-1l7-4c2-1 2-3 2-4v-2h-3l-4 2 4-3 2-1 1-2v-8l-6 2-1 1-1 2c0 2.7-.4 5.4-1 8l-1 1v-9h-1c-4 3-4 3-4 7v5l-1 2v-5Zm189.2-1.4c0 .4-.3 6.8-.2 13.3-6.8.5-5.7-13.3-5.3-15 .2-1.4-4.4 1.7-6.6 3.8.7 1.3 1.7 1 3 .5-.6 6.2 3.8 11.8 9 11.7.1 6.4.8 12.5 2.6 13 .2.1.5-6.5.6-13.7 12.2-3.8 7.5-18.3 7.5-18.3-.2-.8-2 .3-6 4 1.6 1.6 2.4.6 3.6.2 1 2 1.4 10.5-5 13.1l.2-18c0-.2-.2-.3-.4-.3-1.8.2-5 3.4-7.5 6.1 1.4 2.2 3.1.2 4.5-.4m6 19.1 2.7 2.8 2.8-2.8-2.8-2.8-2.8 2.8Z"/>
  </g>
</symbol></svg>
