<svg xmlns='http://www.w3.org/2000/svg' viewBox='0 0 696 830' fill='none'><symbol id='TIGC_Outline'>
  <g fill="#A7BFB9">
    <path d="m569.1 445.2-1-27-3-35a327.7 327.7 0 0 0-18-80l-18-47c-5-13-11-24-18-35a592.7 592.7 0 0 0-45-56c-9-8-19-15-31-20l-30-10a233.8 233.8 0 0 0-61-9h-9l-17 2-26 6c-11 3-22 6-33 11-9 3-17 8-25 13l-25 25c-8 11-17 22-24 34-9 13-17 27-22 42l-15 38c-12 31-19 64-22 98v11l-2 32c-1 16.4 0 32.8 3 49l6 28a247.9 247.9 0 0 0 85 139 170 170 0 0 0 70 41l30 6 9 2 13 1c7 1 13-1 20-1l8-1 29-6c26-5 50-17 70-35l16-15 24-24c28.8-34 48.2-75.1 56-119 4-19 7-38 6-58m-451-20 2-33c4-62 23-122 55-175l28-36c12-14 27-26 43-35 12-7 23-12 36-16l22-7c7-2 15-3 23-3l17 1h5l22-1c7 0 13 2 19 3 14 5 28 9 41 15a173.7 173.7 0 0 1 61 45 455.6 455.6 0 0 1 43 66l21 54a242.5 242.5 0 0 1 14 60c3.7 23.8 5.1 47.9 4 72l-1 23-1 18-2 18-6 36c-3 13-8 25-13 38a295.6 295.6 0 0 1-74 96 150.7 150.7 0 0 1-81 38l-27 5c-10 1-21 2-31 1-10 0-19-2-29-4l-24-4c-26-6-50-18-71-37l-31-32a279.5 279.5 0 0 1-49-83c-4-11-7-22-8-33l-4-33-3-26v-2l-1-29"/>
    <path d="m345.1 642.2 12-2c19-4.2 37-12 53-23 19-11 36-24 50-40 7-8 14-16 19-25a697.2 697.2 0 0 0 16-31c0-2 2-4 1-5 0-2-2-3-3-5l-5-4-4 5c-3 6-7 10-11 15l-9 6-6 3-6 3-3 2s-3 1-1-1l3-4 6-5v-2c-12-7.5-22.9-17-32-28l-2-1-2 2-26 21v2l3 2 15 12 10 7s1 1-1 1l-8-4-13-10-14-10c-6-3-12-8-17-13l-13-15a924 924 0 0 0-14-14l-1 1c-5 9-12 18-19 26-8 8-17 15-28 19-4 1-7 4-10 6l-7 4 8-9 5-4v-1a31.5 31.5 0 0 1-10-12h-2l-4 5c-7 9-15 17-24 23l-2 1v1l2 2 10 12c5 7 12 12 19 15l7 3v1l-8-2-13-8-11-9c-8-5-14-11-18-19l-9-13c-3-4-3-4-6 0-4 6-8 13-14 19l-1 3a233.9 233.9 0 0 0 126 95l12 2m167-213-1-21c0-8-1-17-3-25l-11-41c-5-17-13-34-21-50l-17-29c-8.5-14-19.3-26.6-32-37l-18-14-20-10-36-13c-5-2-10-2-15 0l-25 8c-9 4-19 7-27 13l-24 16-5 4c-9 9-18 19-24 30l-18 31c-8 16-16 32-21 48l-8 31c-4 15-7 29-7 44a315 315 0 0 0 7 81c4 14 10 27 16 39l1 1 1 1 1-1 17-14c3-3 4-3 6 0l14 13 2 2h2l5-4 27-22v-1h6c4 3 9 6 12 11h1l5-3 11-10 28-27 1-1 4-1 2 2 6 3 20 20 14 15 3 2h2l10-7 19-14c2-1 5-2 7 0 2 1 4 1 5 3l7 6 10 10 10 7c3 1 3 2 5-1l18-16c4-3 4-3 8 0l6 4 1-1c5-14 9-29 11-44l2-38m-341-9c.3-17.8 2.3-35.6 6-53l9-33c8-27 21-52 39-74l19-24 8-9c12-12.4 25.8-22.8 41-31 15.4-7.5 32-12.6 49-15 5-1 9 0 14 1 16 2 30 8 44 15l17 11c7.6 6.4 15 13 22 20l23 27c19 23 32 48 42 76l8 31c3.4 14 5.7 28.5 7 43a511 511 0 0 1-3 58 264 264 0 0 1-18 64l-10 21c-5 11-11 21-19 30l-13 15c-9 10-19 18-30 25s-24 14-37 19c-10 5-20 7-31 9-7 2-13 2-20 1l-15-2a303.3 303.3 0 0 1-61-28 229.3 229.3 0 0 1-56-61l-20-46c-8.3-21.4-13-44-14-67l-1-23"/>
    <path d="M436.1 378.2v-1l1 1v3l3 12c0 4 3 8 5 11l4 4h1v-1l-3-12c0-3-1-6-3-8-3-4-5-10-6-15l1-1 1 2c2 5 4 9 8 12 5 4 9 9 12 15l1 1v-1c0-5-1-9-4-13l-5-7-5-6-1-3 3 2 5 4c2 3 5 5 8 6l1 1v-1l-9-15-4-7-5-8c-4-3-9-5-14-4-6 0-12 1-18 5-7 4-14 9-20 15l-4 4-10 9-1 1v2h6l4-2 2-3 11-11 5-3h1v1l-5 5 1 1 4 4 2 3 7 5c2 1 3 0 4-2l1-4 1-2v10c-1 2 1 3 2 3 2 0 3 0 3-2l1-4h1v5l1 4 3 1c2-1 4-3 4-6l-1-10Zm-63 11a45.9 45.9 0 0 1-37-12l-12-11c-7.8-7.2-19-9.5-29-6-18.5 9-36.8 18.4-55 28l-14 4 9 1c6 0 12-2 17-4l15-7 3-1v1h-1c-9 7-18 12-29 15-3 0-7 2-10 4l-10 12 1 1c1-1 13-7 20-9l7-2c7-2 13-5 18-10l9-9 3-2v1l-1 1-5 7c-4 6-6 13-7 21 0 0 1 6 2 1 2-5 5-9 9-13l8-10 5-7 1-2h1l-1 2-4 9-8 17-1 3 3-2 7-8 3-4h1l-1 2-1 2 1 1s0 1 0 0c3 0 6 1 8 3h5l3-3 4-6 2-4 1-1v1c0 4-2 7-3 9l-4 5c-2 2-1 3 2 3l5 1 4 3h1-12l-3-1-5-1-3-1-2-2c-3-3-6-2-9 0l-2 2c-1 2-3 3-5 3l-2-2 2-7-1-1-7 11-2 5c-1 1-2 3-4 0v-14c0-1-1-4-4-3-2 0-11 5-17 6l-8 1c-7 2-13 5-18 10l-3 2h-1v-1l1-3a50.1 50.1 0 0 1 14-20v-1l-8-3-3-1v-2l2-1c8-2 15-5 22-9 11-6 22-12 33-20 5-3 10-6 16-7 10-3 20-2 29 4l14 9 6 5c7 5 14 8 22 11 3 1 5 1 8-1l11-8 12-11 17-13c5-2 10-5 15-5 9-1 17 0 24 7l8 11c4 9 10 16 17 22l3 3 1 1-2 1c-4 0-8-1-11-3l-2-1-1 1 1 2c3 6 2 13 0 19l-1 1v-1c-1-2-1-5-3-7-1-3-3-6-6-8h-1v1l3 14 1 2v1h-1c-6-1-11-5-14-12l-1-1c0-1.3-1-1.7-3-1h-1c-3 1-5 0-6-2-1-1-1-2-3-1-3 1-5 0-6-3l-2-2-6-1c-3-1-5-3-6-6l-3-4h-4l-8 10v3l4 3c4 2 6 7 4 11l-2 1v-1c-3-4-5-4-9-3l-11 5-3 2-6 7c-6 7-15 10-25 11h-4c-8 0-16 2-22 7l-9 5-7 4c-3 2-7 3-11 3l-6-2 2-2 6-3 3-3v-1l-1-1h-2l-4-2-2-2 2-1c4-2 7-4 9-7l6-4 8-2 1 1h-1c-4 1-7 2-9 5-3 3-5 6-9 7v1h6l6-4c3-3 6-4 10-5h2l-3 2-10 8-11 11-1 1h1c5-1 8-3 12-6l8-7 6-4c6-4 13-6 20-6l15-2c5-2 10-5 14-9l-1-1-4-1-1-1 1-1c6 2 11 0 16-3l7-2 4-1c3 0 6 1 7 3 1 1 1 2 2 1l-1-3c-1-3-3-5-6-6h-2l-1-1c2-1 1-1 0-2-2-2-4-2-7-2h-8"/>
    <path d="M327.1 408.2h-1v-1c3-4 7-8 13-9h1c-3 1-5 4-7 6l-3 3-3 1m101-130v1l-3 4-4-4 3-6 4 5m-67 22v1l-3 3h-1l-3-4 4-5 3 4v1m121 142v1l-3 3h-1l-3-3v-2l3-3 1-1 3 4v1m-30-122-1-1c-1-1-4-3-3-4l4-4 3 4v1l-3 4m-233 129 4 4-4 5h-1l-4-4 5-5m33 39h-1l-4-4 4-5 5 5-4 4m127-260h1l3 4-3 5h-1l-4-4 4-5m-84 40-1-1-3-4 4-5 3 4v2l-3 3v1m-50 52v-1l-4-3 4-5h1l3 4-3 5h-1m90 2 4 4-3 4h-2l-3-3 4-5"/>
    <path d="m219.1 449.2-5 5 4 4m171.5-10.4c0 .4-.3 6.8-.2 13.3-6.8.5-5.7-13.3-5.3-15 .2-1.4-4.4 1.7-6.6 3.8.7 1.3 1.7 1 3 .5-.6 6.2 3.8 11.8 9 11.7.1 6.4.8 12.5 2.6 13 .2 0 .5-6.5.6-13.7 12.2-3.8 7.5-18.3 7.5-18.3-.2-.8-2 .4-6 3.9 1.6 1.7 2.4.7 3.6.3 1 1.9 1.4 10.5-5 13l.2-18-.4-.2c-1.8.2-5 3.4-7.5 6 1.4 2.3 3.1.3 4.5-.3m6 19 2.7 2.9 2.8-2.8-2.8-2.8-2.8 2.8Z"/>
  </g>
</symbol></svg>
