<svg xmlns='http://www.w3.org/2000/svg' viewBox="0 0 142 170" fill='none'>
    <symbol id='TOMC_Outline'>
    <g fill="#FDBE00">
      <path d="M89.37 108.76c0 .08-.07 1.38-.04 2.71-1.36.1-1.14-2.7-1.06-3.06.03-.29-.88.35-1.33.77.14.26.34.2.6.11-.1 1.26.78 2.4 1.8 2.38.03 1.3.17 2.55.54 2.64.05.01.09-1.31.12-2.79 2.45-.76 1.52-3.72 1.52-3.72-.05-.17-.41.06-1.2.78.31.36.47.15.72.06.2.39.28 2.14-1.04 2.67.04-1.77.06-3.66.06-3.66 0-.05-.05-.06-.08-.06-.36.05-1.01.7-1.5 1.24.27.46.61.05.89-.06m1.19 3.88.57.58.57-.58-.57-.58-.57.58Z"/><path d="M25 86.11c.14-5.83.57-11.62 1.71-17.34a55.2 55.2 0 0 1 2.39-8.37c1.2-3.24 2.46-6.45 3.72-9.67.8-2.05 1.83-3.97 3.03-5.8 1.83-2.8 3.8-5.5 5.93-8.09a32.46 32.46 0 0 1 10.81-8.48 61.45 61.45 0 0 1 10.13-3.77c2.5-.73 5.06-.63 7.62-.48.44.02.9.04 1.33 0 3.37-.27 6.66-.03 9.88 1.13 3.1 1.11 6.23 2.15 9.13 3.74a32.41 32.41 0 0 1 9.57 7.83 79.27 79.27 0 0 1 6.05 8.28 30.4 30.4 0 0 1 2.47 4.58c1.67 4.13 3.28 8.3 4.78 12.49 1.73 4.85 2.54 9.9 3 15.03.34 3.98.57 7.96.39 11.96a168.42 168.42 0 0 1-1.47 15.13 37.61 37.61 0 0 1-3.58 11.52 56.32 56.32 0 0 1-10.69 15.35c-1.1 1.1-2.18 2.2-3.3 3.28a30.38 30.38 0 0 1-15.11 7.89c-3.09.64-6.22 1.08-9.35 1.51-2.26.31-4.54.16-6.8-.21-2.64-.44-5.3-.83-7.93-1.43a30.19 30.19 0 0 1-14.4-7.62c-3.46-3.3-6.81-6.7-9.49-10.73a68.86 68.86 0 0 1-4.8-8.35 41.42 41.42 0 0 1-3.77-13.67c-.28-2.68-.64-5.35-.86-8.03-.2-2.56-.26-5.12-.39-7.68Zm90.85 1.86c-.24-3.14-.45-6.27-.72-9.4a59.39 59.39 0 0 0-2.97-14.8c-1.55-4.38-3.22-8.7-4.86-13.05-.68-1.8-1.59-3.5-2.6-5.14a92.93 92.93 0 0 0-6.48-9.15c-2.91-3.62-6.47-6.36-10.9-7.82-2.14-.7-4.28-1.36-6.45-1.96a35.05 35.05 0 0 0-15.59-.88c-4.25.75-8.39 1.93-12.39 3.58-1.8.74-3.45 1.74-4.96 3a26.7 26.7 0 0 0-4.55 4.67c-1.68 2.3-3.34 4.6-4.96 6.93a37.29 37.29 0 0 0-4.27 8.28c-1.01 2.71-2.05 5.43-3.08 8.14a62.08 62.08 0 0 0-3.9 16.03 311.5 311.5 0 0 0-.89 11.62c-.16 2.74-.07 5.5.26 8.23.31 2.6.91 5.15 1.43 7.7a49.42 49.42 0 0 0 9.52 20.57 68.35 68.35 0 0 0 10.6 10.75c2.8 2.31 5.93 4.1 9.38 5.16 4.05 1.24 8.16 2.25 12.41 2.45 2.1.1 4.18-.03 6.24-.4 1.18-.22 2.34-.53 3.52-.74a32.4 32.4 0 0 0 17.33-9.09c1.29-1.27 2.58-2.54 3.86-3.83a50.5 50.5 0 0 0 11.03-17.16c1.18-2.97 1.86-6.1 2.57-9.21a52.67 52.67 0 0 0 1.42-14.48Z"/><path d="M105.86 85.57c-.06 5.36-.69 10.99-2.49 16.43a62.1 62.1 0 0 1-5.08 11.48c-2.87 5-6.62 9.23-11.58 12.24-2.92 1.77-5.86 3.49-9.13 4.5-1.62.5-3.28.89-4.95 1.18-1.87.34-3.74.08-5.59-.34-2.59-.59-5.1-1.4-7.42-2.68a122.84 122.84 0 0 1-6.23-3.65 21.45 21.45 0 0 1-4.22-3.53c-3.09-3.27-5.76-6.82-7.57-11-1.26-2.94-2.68-5.8-3.6-8.86-1.74-5.75-2.31-11.63-2.25-17.62.04-4.16.88-8.18 1.85-12.19a54.4 54.4 0 0 1 3.11-9.29 50.55 50.55 0 0 1 7.94-12.39c.88-1.02 1.74-2.05 2.6-3.08a28.8 28.8 0 0 1 7.1-6.28c3.59-2.2 7.5-3.59 11.7-4.05a13.4 13.4 0 0 1 4.57.52 28.55 28.55 0 0 1 15.82 9.92c1.05 1.28 2.13 2.54 3.2 3.8 5.08 6.1 8.54 13 10.32 20.77.5 2.16 1 4.32 1.4 6.5.44 2.4.5 4.83.5 7.62ZM70.4 74.49c-.17-.06-3.61 4.17-5.27 5.97-1.57 1.69-3.3 3.22-4.47 5.27-.47.84-1.3 1.24-2.24 1.46-1.01.24-3.75 1.26-3.86 1.05-.1-.2 2.23-1.39 3.28-2.05 1.1-.69 2.78-2.38 2.77-2.59 0-.2-3.47-2.98-3.69-2.97-.21 0-6.8 6.9-6.78 7.1.01.2 2.2 1.9 3.27 2.84.43.38.85.77 1.26 1.18.17.17.56.66.49.75-.07.09-.51.04-.66-.01-.45-.14-.92-.26-1.32-.49a65.75 65.75 0 0 1-3.54-2.04 15.2 15.2 0 0 1-3.9-3.52c-.1-.14-.3-.43-.39-.43-.1-.01-1.35 2.73-1.94 3.93a9.6 9.6 0 0 0-.86 2.7c-.14.87-.3 1.73-.47 2.58-.05.27-.28.79-.4.78-.1 0-.12-.28-.13-.4a10.5 10.5 0 0 1 .56-4.83c.38-.92 1.45-3.23 1.35-3.33-.1-.1-3.3 2.72-4.6 4.43-.33.44-.58.94-.88 1.4-.28.42-.32.87-.26 1.37a36.97 36.97 0 0 0 2.47 9.63c.1.26.29.74.35.79.07.04.45-.2.63-.3A27.3 27.3 0 0 1 52.35 102c3.59-.1 7.07.5 10.52 1.42 2.78.74 5.54 1.54 8.33 2.21 2.54.6 5.12.69 7.7.1 1.7-.38 3.26-1.09 4.74-2 .45-.28 1.46-.89 1.55-.74.1.15-.45.58-.68.78-1.86 1.66-4 2.75-6.45 3.23-2.7.53-5.36.27-7.99-.42-2.58-.67-5.12-1.46-7.68-2.19-3.13-.9-6.3-1.5-9.56-1.54-3.95-.04-7.69.76-11.11 2.79-.24.14-.71.36-.73.51 0 .15 2.72 5.65 2.77 5.69.04.04.2-.03.26-.04 3.48-1.3 7.04-1.35 10.65-.73 2.93.5 5.72 1.44 8.49 2.49 2.27.86 4.54 1.73 6.84 2.52 1.74.6 3.54.9 5.4.76 1.16-.1 2.26-.39 3.2-1.14.67-.54 1.07-1.22.93-2.13-.03-.17-.1-.6 0-.65.1-.05.24.24.28.32.47.97.27 1.86-.37 2.66a5.2 5.2 0 0 1-2.93 1.72c-1.74.44-3.48.3-5.2-.06-2.16-.46-4.2-1.28-6.25-2.07-2.27-.87-4.54-1.76-6.84-2.54a22.93 22.93 0 0 0-10.59-1.03c-1.1.15-3.2.79-3.27.91-.07.13.26.51.42.71.74.96 1.46 1.94 2.25 2.84 3.36 3.84 7.36 6.87 11.68 9.5a33.7 33.7 0 0 0 10.31 4.26c1.04.23 2.1.3 3.12.08a27.2 27.2 0 0 0 8.1-2.85c2.2-1.27 4.36-2.6 6.48-4a41.4 41.4 0 0 0 8.74-8.02 20.9 20.9 0 0 0 1.95-2.77c1.4-2.35 2.63-4.8 3.64-7.36 1.1-2.78 1.98-5.6 2.55-8.55.26-1.36.02-2.5-.68-3.6l-.58-.85-1.42-1.9a10.07 10.07 0 0 0-2.77-2.64c-.14-.09-.5-.3-.55-.22-.05.09.46.87.62 1.25.17.39.47 1.22.32 1.26-.15.05-.39-.28-.48-.4a25.47 25.47 0 0 1-3.19-4.98 5.52 5.52 0 0 0-2.51-2.73 13.57 13.57 0 0 1-3.26-2.32c-.63-.61-.68-.58-1.5-.15l-4.94 2.59c-.09.04-.26.12-.29.2-.02.07.24.3.38.41a74.7 74.7 0 0 1 7.7 8c.4.46.72.97 1.05 1.48.09.13.25.41.12.54-.14.13-1.28-.58-1.77-1-1.87-1.64-3.78-3.25-5.57-4.99-3.95-3.82-7.83-7.7-12.02-11.25-.18-.15-.53-.52-.68-.41-.15.1.5 1.99.74 2.95a34.74 34.74 0 0 0 2.64 7.53c.27.51.6 1 .92 1.47.26.38.64.53 1.1.46.2-.03.41-.05.62-.1a2.8 2.8 0 0 1 2.84.88c.97 1 2.02 1.91 3.02 2.88 2 1.94 3.98 3.9 5.96 5.85.37.37.68.8 1 1.22.12.15.45.59.36.68-.1.1-.55-.07-.72-.16-.52-.24-1.04-.5-1.53-.8-3.29-2.04-6.16-4.53-8.16-7.94a7.6 7.6 0 0 0-.84-1.15c-.45-.5-.7-.55-1.31-.29-.37.15-.71.34-1.08.48-1.03.38-1.93.16-2.59-.72a6.88 6.88 0 0 1-.93-1.73c-.43-1.2-.77-2.41-1.14-3.62-.1-.3-.2-1.03-.33-1.05-.12-.02-.3.65-.4.89l-1.78 4.4c-.12.3-.4.82-.55.83-.15 0-.02-.68.02-.89a34.1 34.1 0 0 1 1.67-5.52c.2-.48.31-1.02.31-1.53 0-1.84-.85-5.43-1.02-5.5v.01ZM59.3 42.1c-.06.16.43 2.26.54 3.33a3.76 3.76 0 0 1-1.46 3.4c-.58.5-1.06 1.09-1.58 1.64-.3.33-.58.7-.9 1-.57.55-1.29.86-2.07.75-1.61-.24-4.71-.87-4.85-.84-.14.03-.43.66-.6.98-1.3 2.3-2.61 4.57-3.88 6.89a42.77 42.77 0 0 0-3.16 6.98c-.89 2.67-1.62 5.4-2.4 8.12a37.52 37.52 0 0 0-1.25 5.88c-.4 3.34-.48 10.4-.27 10.48.22.08 4.91-4.33 7.24-6.4.59-.53.76-.55 1.37-.08.85.65 1.67 1.35 2.51 2.02.2.16.51.5.6.49.08 0 .25-.2.34-.3l4.81-4.99c.55-.56 1.14-1.09 1.72-1.61.5-.46 1.05-.43 1.58-.05.5.37.98.79 1.48 1.17.58.45 1.17.88 1.76 1.32.3.22.58.2.85-.05.5-.48 1-.93 1.46-1.43 2.1-2.22 4.17-4.45 6.26-6.68.21-.23.43-.46.67-.66.5-.42.86-.45 1.43-.1.27.16.52.35.76.55 2.95 2.4 5.9 4.8 8.83 7.24.41.35.71.36 1.17.13 1.51-.78 3.05-1.52 4.58-2.27 1.8-.88 2.02-.87 3.72.26.54.36 1.51 1.13 1.62 1.13.11.01 1.62-1.22 2.4-1.84.73-.6.9-.65 1.63-.07a83.1 83.1 0 0 1 3.46 2.85c1.28 1.13 4.36 3.65 4.59 3.48.23-.17-.13-3.86-.5-5.7-.44-2.12-1-4.2-1.49-6.32a57.69 57.69 0 0 0-6.61-16.2c-.6-1.02-1.17-2.06-1.75-3.09-2.1-3.73-4.77-6.93-8.38-9.25-.7-.45-1.36-.99-2.08-1.41-1.2-.7-2.38-1.46-3.66-1.98-2.45-1.02-4.97-1.92-7.47-2.83a4.34 4.34 0 0 0-2.93-.03c-2.8.96-5.6 1.86-8.27 3.16-.63.3-1.76.78-1.82.94Zm44.82 50.06c.19 0 .12-2.1.16-3.05.02-.6.05-1.62 0-1.8-.05-.17-3.57-2.74-6.45-5.79-.64-.68-1.37-1.3-2.06-1.94-.23-.22-.49-.32-.77-.12-.67.5-1.97 1.39-1.97 1.5 0 .11.23.3.31.37 1.2.95 2.3 2.02 2.86 3.5.33.87.9 1.4 1.79 1.7a9.66 9.66 0 0 1 4.77 3.7c.4.58 1.18 1.93 1.36 1.93ZM49.86 50.32a5.4 5.4 0 0 0 1.7.73c.46.12.99.15 1.45.05.81-.19 1.62-.44 2.38-.77 1.2-.54 2.19-1.32 2.41-2.78.1-.59.35-1.16.46-1.75.13-.72.2-1.46.27-2.19.02-.26 0-.7-.15-.83-1.03 0-8.65 7.34-8.52 7.54ZM45.48 65c-.27 0-.25-.88-.19-1.17.09-.43.2-.88.42-1.26a20.72 20.72 0 0 0 1.7-4.33c.22-.73.5-1.44.8-2.14.13-.33.49-.8.74-.73.25.08.33.49.25.76-.18.6-.35 1.22-.6 1.8-.2.48-.5.92-.79 1.36a9.2 9.2 0 0 0-1.39 3.58c-.11.71-.67 2.13-.94 2.13Zm17.63-21.67c-.07-.2.77-.67 1.2-.77a16.2 16.2 0 0 1 2.21-.43c1.5-.15 2.98-.44 4.44-.84.6-.17 1.22-.3 1.84-.37.42-.06 1.27-.24 1.34.02.07.26-.43.6-.7.67-.6.15-1.22.31-1.84.33-1.92.05-3.77.42-5.57 1.05-.8.28-2.84.55-2.92.34Zm5.34 11.43a13.9 13.9 0 0 0-4.1-2.22c-.73-.26-1.4-.7-2.06-1.12-.24-.14-.57-.64-.43-.85.14-.2.62.09.88.22.72.37 1.45.73 2.1 1.19 1.04.72 2.13 1.32 3.28 1.82.64.27 1.24.66 1.83 1.04.3.2.9.53.77.75-.13.22-1.64-.32-2.27-.83Zm-12.48.36c.28-.09.57.35.67.62.27.74.57 1.49.71 2.26.33 1.8.8 3.54 1.6 5.19.17.34.25.75.31 1.14.04.24.16.65-.05.77-.2.13-.56-.32-.65-.57-.15-.39-.3-.8-.32-1.21a10.6 10.6 0 0 0-.95-3.5c-.42-.96-.82-1.93-1.17-2.92-.2-.56-.43-1.69-.15-1.78Z"/><path d="M52.76 76.3a.84.84 0 0 1-.86.82.84.84 0 0 1-.79-.83.83.83 0 1 1 1.65 0ZM64.9 62.73a.81.81 0 0 1-.84-.77.8.8 0 0 1 .76-.83c.45-.02.8.3.83.76a.8.8 0 0 1-.75.84Zm9.99-15.71a.75.75 0 0 1-.71-.78c0-.41.33-.75.74-.75.43 0 .78.37.75.82a.75.75 0 0 1-.78.7Zm8.08 30.25c.02.4-.31.76-.7.78a.76.76 0 0 1-.78-.72c-.02-.4.3-.76.7-.77.4-.02.76.32.78.71Zm14.47-4.72a.7.7 0 0 1 .69.71c0 .4-.37.75-.77.72a.72.72 0 0 1-.64-.76c.02-.39.33-.67.72-.66ZM43.57 74.5a.7.7 0 0 1-.69-.7c.01-.38.36-.71.72-.7a.7.7 0 0 1 .66.68.7.7 0 0 1-.69.71Zm43.22-8.88c.37 0 .7.34.69.7a.72.72 0 0 1-.66.67.7.7 0 0 1-.68-.64.7.7 0 0 1 .66-.73Zm-1.45-3.13a.6.6 0 0 1-.6.6.61.61 0 0 1-.64-.62c0-.32.28-.6.6-.62.35-.02.65.28.64.64Zm12.27 5.6c0 .31-.23.54-.54.56a.57.57 0 0 1-.6-.58c0-.34.3-.6.63-.57.3.02.51.26.5.58Zm-37.66 1.44a.56.56 0 0 1-.63.53.55.55 0 0 1-.5-.59.55.55 0 0 1 .55-.54c.33 0 .59.26.57.6ZM89.8 55.9c-.31 0-.57-.29-.56-.61 0-.34.28-.6.6-.57.32.04.5.23.52.57.01.33-.25.61-.56.61ZM41.06 81.33c.29 0 .54.24.56.54.03.31-.18.55-.49.57a.56.56 0 0 1-.6-.55c0-.3.25-.56.53-.56Zm38.89-25.45c0 .26-.23.56-.53.52-.3-.04-.44-.25-.44-.54 0-.3.32-.58.57-.48.2.08.4.25.4.5Zm-12.02 10.4c.22.1.28.2.33.4.07.3-.22.55-.52.51-.3-.04-.45-.23-.45-.53 0-.28.43-.47.65-.37Zm-14.95-4.05c0 .18-.23.35-.36.34-.12 0-.32-.17-.35-.3-.06-.24.12-.42.36-.38.14.02.35.15.35.34Zm23.54 7.44c.22.04.3.22.3.39 0 .1-.22.28-.36.3-.23.03-.41-.14-.35-.4.04-.14.2-.34.41-.3Z"/>
  </g> </symbol>
</svg>