<svg xmlns='http://www.w3.org/2000/svg' viewBox='0 0 696 830' fill='none'><symbol id='TURC_Outline'>
  <g fill="#9BADFA">
    <path d="M118.9 430.2c0-23 1-42 3-60 4-30 11-58 22-86l13-32c4-10 10-20 16-30 9-14 19-27 29-39 13-15 28-28 45-37 19-11 39.6-19.1 61-24l19-2 18 1h4l17-1c9 0 17 1 25 3 17 5 33 11 49 19 21 10 39 25 54 43l26 34c8 12 14 23 19 36l18 47c7 20 12 41 15 62 3 28 4 56 3 84l-2 28-3 25c-3 29-12 56-26 82-13 23-29 45-48 64l-16 15c-20 20-44 32-71 38l-30 5a386.6 386.6 0 0 1-43 3c-17-2-33-4-50-8-27-6-51-18-71-37l-25-25c-25-27-43-57-56-92-4-11-6-23-8-35l-6-53-1-28Zm6 9c-1 16 0 32 3 48l8 33c9 41 29 77 57 107l32 32c19 17 40 29 65 35l30 7 18 2c11.7 0 23.4-.6 35-2l17-3c11-3 22-5 32-10 20-7 37-19 52-33l20-20a241.7 241.7 0 0 0 60-96c6-21 11-43 14-66 2-13 2-27 1-40l-2-41c-3-30.4-9.7-60.3-20-89l-17-46c-5-13-11-25-19-36a567.4 567.4 0 0 0-44-56 102.7 102.7 0 0 0-39-22c-12-5-24-8-36-11a187.2 187.2 0 0 0-76-3c-17 3-34 8-50 14-15 5-29 13-41 25a1717.2 1717.2 0 0 0-39 50c-9 13-16 26-22 41l-13 34c-13 32-20 65-23 100l-3 46Z"/>
    <path d="M172.9 420.2c-.5-20.6 2.2-41.2 8-61l10-34c10-28 25-53 45-76l16-19a164.6 164.6 0 0 1 39-32c14-7 29-13 45-16 9-2 18-1 27 1 16 3.8 31.6 9.9 46 18 11 7 22 16 31 26l26 31c23 27 38 59 46 93 3.5 18.3 6.5 36.6 9 55v29c-1 31-7 61-20 90l-12 24c-4 10-10 19-16 27l-14 16c-7 8-14 15-23 21-15 10-31 19-48 26-11 4-22 7-33 8-8 1-15 1-23-1-16-3-31-9-46-17l-21-12c-12-7-22-16-31-27l-12-14c-6-8-12-17-16-27l-15-31a294.8 294.8 0 0 1-18-97v-1Zm340 10v-16l-3-27-7-29c-6-27-18-53-32-77l-8-14c-9-16.1-20.8-30.3-35-42-12.2-7.8-24.6-15.5-37-23l-36-13c-5-2-11-2-16 0l-17 6a184 184 0 0 0-62 35c-9 9-18 19-24 30l-19 32c-9 17-16 34-21 52l-9 32c-6.7 39-6 79 2 118v2l2 1 2-1a137.3 137.3 0 0 1 50-12h3l2 1-1 2-3 1c-4 3-7 7-9 12-1 5 0 8 4 11l4 2c2 1 3 1 4-1l8-14c6-10 8-21 9-32l-2-20c-3-21-2-42.4 3-63 2-9 5-17 9-25v-3c-5-3-10-6-16-7l-4-1c-2 0-3-1-2-3l1-2c2-4 6-9 10-12l11-9c10-7 23-11 36-9l5-2 8-7c20-14 42-23 66-28 15-4 30-2 44 5l18 8 9 4 4 2c3 3 4 7 1 10l-5 4c-4 3-10 5-15 6-11 3-20 8-30 13-6 4-11 10-14 17l-3 8-3 12-3 10c-2 6-5 11-9 16l-2 1-1-1-5-14-3-8c-1-2 0-4-2-6l-5 3-2 1-2 2c-2 5-5 11-5 17v4c-1 1-2 2-3 1l-3-3-4-8c0-2-1-2-2-1l-7 5a99.1 99.1 0 0 0-37 44c-5 10-7 22-9 33-2 14 1 27 7 39 1 2 1 2 3 1l13-6c13-5 27-9 42-11a58.6 58.6 0 0 1 25 1c3 1 3 3 1 4l-2 2c-3 2-5 4-6 7-3 5-2 9 3 13l8 3c9 2 17 2 25-1l14-6 20-10c9-4 19-8 29-10 7-1 13-2 20-1l3 1c1 2-1 2-2 3l-1 1c-5 5-6 11-5 18l1 5 6 6h2l1-1c6-15 11-31 13-47 2-13 3-27 2-41Zm-271 56h-2l-7 1c-14 3-26 8-39 14l-2 1v2l1 4 17 37c6 13 15 24 25 34 1 2 3 2 5 2l17-4a486.6 486.6 0 0 1 42-18 97.5 97.5 0 0 1 32-6c2 0 3 1 2 3l-2 2-2 4c-2 5-1 9 4 12l4 2c5 1 9 2 13 1 6 0 12-1 17-3l21-8 22-9a76.3 76.3 0 0 1 30-4l1 2-1 3c-2 4-1 7 1 10l5 5 12 5c1 1 3 0 4-1 8-8 15-18 21-28l9-18c2-4 2-4-1-6-4-4-7-8-9-13-3-7-2-14 3-20l3-3 1-1h-1l-13 2c-10 2-19 6-28 11l-19 10-13 7c-9 3-18 5-28 3l-12-4c-10-6-11-16-5-24l5-5 1-2h-2c-9-1-19 0-29 2-15 4-29 10-42 18-2 1-2 1-1 3l4 20c1 5 0 10-1 15-1 2-2 3-4 2l-5-5-4-8-10-11h-2l-2 4c-2 5-5 11-9 16l-18 18-2 1h-2l-2-3-3-7c-2-10-3-20 0-29l-1-2-5-3c-7-5-9-12-5-20l8-8 3-3Zm60 54 1-2c0-14-3-28-9-40l-6-12c-3-7-5-15-4-23 1-5 1-9 3-13 6-23 17-44 34-61l3-2c12-13 27-23 45-29l3-3c0-6 3-11 6-15l3-3h1v1l-1 3-3 7c-2 4-3 7-2 11l2 10 5 12v1l1-1 4-14c2-13 8-26 16-37l8-8c9-7 19-12 30-14l9-1 9-3c1-1 3-2 3-4 1-1 0-2-1-3l-3-1-5-1c-8 0-14-2-21-6l-9-6c-6-3-12-5-19-4l-18 2c-19 5-36 12-52 21-15 9-28 20-39 34-12 17-22 34-26 54-3 13-4 27-4 40l2 23-1 17c-1 13-5 24-11 35-3.3 7.2-6.3 14.6-9 22v20l1 9h2l2-2c7-8 14-16 19-25l7-11c1-2 2-2 4-1l4 1c4 2 7 5 9 9l5 9 2 4Zm45 101c4 1 8 0 12-1 11-3 23-6 33-12 16-8 32-18 47-29l12-12 2-2v-1l-8-4-9-7c-3-5-4-10-1-15v-1c1-1 0-1-1-1h-5l-18 5-20 10-17 8c-7 3-15 5-22 5-6 1-12 0-18-2l-7-5c-4-4-6-10-3-16l3-4v-1l-1-1-6 1c-9 2-18 5-26 10l-15 8c-11 6-22 11-34 12-1 1-2 1-1 2l9 8c16 13 33 24 52 33 7 4 15 7 22 9l10 2c3 1 7 2 10 1Zm-43-324c-7 1-15 3-22 7l-20 14-6 6v1h1c7 0 13 3 19 7h2l1-2 25-31 1-1v-1h-1Zm49 67 4-13v-1l-1 1-5 3-1 2 3 8Z"/>
    <path d="m428 439.3 2.8 2.8 2.8-2.8-2.8-2.8-2.8 2.8Zm-6-19.1c0 .4-.2 6.8-.1 13.3-6.8.5-5.7-13.3-5.3-15 .2-1.4-4.4 1.7-6.6 3.8.7 1.3 1.7 1 2.9.5-.5 6.2 3.9 11.8 9 11.7.2 6.4.9 12.5 2.7 13 .2 0 .5-6.5.6-13.7 12.2-3.8 7.5-18.3 7.5-18.3-.2-.8-2 .4-6 3.9 1.6 1.7 2.4.7 3.6.3 1 1.9 1.4 10.5-5.1 13l.3-18-.4-.2c-1.8.2-5 3.4-7.5 6 1.4 2.3 3 .3 4.5-.3"/>
  </g>
</symbol></svg>
