<svg xmlns='http://www.w3.org/2000/svg' viewBox='0 0 696 830' fill='none'><symbol id='XLIJ_Outline'>
  <g fill="#FB9100">
    <path d="M575 415.2c-.5-23.8-2.8-47.5-7-71-3-15-7-30-13-45l-19-49a428.1 428.1 0 0 0-59-83c-12-10-24-19-39-26-21.5-9.4-44-16.4-67-21l-21 1h-6l-17-1c-7 0-15 1-22 3l-33 11c-24.2 9-46.1 23.4-64 42-13 14-24 29-34 44-7 11-13 22-18 34l-16 42a432.2 432.2 0 0 0-20 164l3 25 4 31c2 12 5 24 9 35 11.5 31 28.8 59.5 51 84 12.7 12.6 25.7 25 39 37 20 15 43 25 68 30l29 4c21.2 3.9 43 3.3 64-2l27-6c23-6 43-16 61-32a283.5 283.5 0 0 0 76-99c7-14 12-30 15-46l4-26 3-32 2-34v-14Zm-9 76-9 37a233.6 233.6 0 0 1-64 108l-23 23c-21 18-45 31-72 37-12.3 2.5-24.6 4.8-37 7l-21 1-13-1-8-2-30-7c-23-5-42-16-60-31-16-13-31-28-44-44-24-29-42-62-50-99-3.7-17-7.1-34-10-51l-1-20c-.2-12.7.5-25.4 2-38 1.9-24.1 4.9-48.1 9-72l11-36 19-50a523.5 523.5 0 0 1 65-92c10-7 21-13 33-18a338.3 338.3 0 0 1 75-17h6l5-1c28.9 1.2 57.4 7.6 84 19 13 5 25 12 35 22l15 15c17 22.7 32 46.8 45 72l20 51a297.7 297.7 0 0 1 17 75l4 38 1 32c0 14-2 29-4 42Z"/>
    <path d="m518 389.2-4-22-9-35c-10-27-23-53-42-76a1413.9 1413.9 0 0 0-32-37 320.5 320.5 0 0 0-30-22c-14-7-29-13-45-15-4-1-9-2-13-1l-12 2a159.1 159.1 0 0 0-58 26c-10 8-20 17-28 27l-6 7-17 21c-16 22-28 45-36 71l-6 22a238.4 238.4 0 0 0-4 112c2 15 6 30 12 44l16 37 17 27 10 11c9 11 20 21 31 28a299.3 299.3 0 0 0 53 26c12 3 23 6 35 5h5c13-2 27-6 39-12 15-6 28-14 41-23 8-6 16-12 22-20l11-13c8-10 15-20 21-32l10-24c5-10 9-20 12-31 6-23 8-47 9-74l-1-19-1-10Zm-6 55c-.5 31.7-8.4 62.9-23 91l-10 18a243.3 243.3 0 0 1-104 82c-7 3-15 5-22 6h-14c-14-3-27-6-40-13a278.1 278.1 0 0 1-76-60l-11-16c-8-14-15-28-20-42a238.7 238.7 0 0 1-12-66l-1-12a376 376 0 0 1 6-56l8-31c5-17 11-32 19-47l18-32a149.6 149.6 0 0 1 36-42l18-13 15-8 34-13c9-3 17-3 25 0l33 12 16 9c9.5 6.5 18.8 13 28 20 9 9 18 19 24 31l19 33c8 14 14 29 19 45l11 40 4 28v36Z"/>
    <path d="m496 395.2-2 4-2 11c-3 15-7 29-13 43a428.2 428.2 0 0 1-36 64c-4 5-9 8-15 10l-27 10h-8c-2-1-4-2-6-5l-4-6c-4-7-7-15-9-22a610 610 0 0 0-8-33l-4-25v-13l1-1 1 1c5 6 12 9 19 11 8 3 17 3 25 2 12-2 22-7 31-13 6-5 11-10 15-16 6-9 8-19 6-30l-3-10-4-11c-1-3-2-7-1-11l2-11c2-9 2-18-2-27-6-17-18-31-33-41l-11-6c-5-2-9-6-12-10l-4-7-8-9c-3-3-8-6-13-7-3-1-7-2-11-1l-7 4c-3 2 0 1 0 1l2-1c6-3 11-3 17-1l11 7c5.2 6.8 10.3 13.8 15 21 3 6 7 11 13 15l9 7a79 79 0 0 1 30 64v18l2 11c1 10 0 18-5 26l-6 7a63.1 63.1 0 0 1-55 19c-6-1-13-4-19-7v-3l3-3 7-7c2-2 5-3 7-3l6-1c9-1 17-4 24-9l1-1h-1l-1 1-14 4-11 1v-2l3-2 9-6 9-6 8-7 3-6v-1h-1l-4 2-3 3h-1v-1l2-7 1-4h-1c-3 4-5 8-5 13 0 2-1 3-3 5-6.7 3.9-13.7 7.3-21 10l1-2 5-7c7-10 8-20 7-31l-1-1-1 3-1 6a47.8 47.8 0 0 1-16 32h-1v-1l1-7-2-20c-2-9-2-17 0-26l3-10 1-5c1-3-1-1-1 0l-7 18-1 4h-1v-2l-4-18h-1v1c0 9 1 17 4 25a78.9 78.9 0 0 1 5 23c1 6 1 13-2 20-1 3-2 5-5 7l-3 2-1-3-3-11v-3c2-3 2-7 2-10s-2-2-2-1l-2 5h-2l-4-14 1-12v-5c-1-1-2 5-2 5v1c0 13 1 25 5 36l3 12v11l-3 20c-1 9-2 17-1 25 1 10 3 20 7 29l5 15c4.5 10.4 9.8 20.5 16 30 2 3 1 5-2 6h-1l-21 6-9 1c-4 1-9 0-13-1l-23-6-3-1-1-3 2-3 9-15a284 284 0 0 0 18-57c1-10 1-19-1-29l-4-18v-8l3-11c2-5 4-10 4-15l2-14-1-14v-1h-1v17c-.7 4.8-2 9.5-4 14l-1-1-1-4c-2-4-3-1-3 0 0 3 0 7 2 10v3l-3 11c-1 4-1 4-4 2-3-3-5-6-6-10-2-5-2-11-2-17l6-24c2-6 3-11 3-17l1-9c0-2-1 0-1 0l-2 8-2 12c0 2-2 0-2 0l-6-21-2-3v4l4 11c2 8 2 15 1 23l-2 10a54.3 54.3 0 0 0 0 22v1l-1-1h-1c-8-8-13-16-15-27l-1-9-1-3c0-2-1-1-1 0v1l1 18c2 6 5 12 9 17l3 3-1 1c-8-3-15-7-21-11l-2-3c0-5-4-12-5-14-2-1-2 0-2 1l2 4 1 7-3-2-5-3v1c0 3 2 5 4 7 3 4 7 7 11 9l8 5 8 6v2l-5-1c-7 0-13-1-19-4l-2-1v1c7 5 15 8 23 9l8 1 5 2 10 9 2 2v2l-7 4c-10 5-20 6-31 4-15-3-27-10-38-21a37 37 0 0 1-9-35c1-6 3-12 2-19v-9c0-9 2-17 4-25 5-15 14-28 27-37l7-5c6-4 11-10 15-16l4-9c3-4 6-9 11-12 3-3 6-6 11-7 5-2 10-2 15 0l3 2s2 0 0-1c-1-1-8-5-13-4-6 0-11 2-16 6l-10 10-5 9c-3 4-6 7-11 9l-7 4c-8 5-15 10-21 17-9 9-15 19-18 31-2 6-2 12-1 19l2 10c2 6 1 13-1 19l-3 7-3 9-1 15c1 8 5 14 10 20a69 69 0 0 0 64 24 40 40 0 0 0 24-13h1l1 4-2 12-3 18c0 7-1 13-3 19l-6 19a87.5 87.5 0 0 1-15 31c-3 3-7 4-11 2l-26-10c-7-2-12-5-17-10l-6-8-18-31c-9-16-16-34-21-52l-5-24-2-8c-1-1-1 0-2 1v28l3 23c2 18 9 35 20 50 6 8 13 15 21 20l4 2c7 4 12 9 16 15 6 8 14 13 22 18a137.2 137.2 0 0 0 55 15h21l15-2c14-3 27-7 40-14 8-4 14-9 20-16l3-4 9-9 9-6c8-4 14-10 20-18a120.6 120.6 0 0 0 23-70l1-13v-12l-1-7c0-2-1-1-1 0Z"/>
    <path d="m489 511.2-4 3-14 16a3888.3 3888.3 0 0 1-43 38c-10 5-20 8-30 10l-27 4-19 2h-13l-12-1-35-6c-14-2-26-8-36-17l-19-17c-11-9-21-19-29-30l-2-2c-1-1-3-1-1 4 3 5 13 21 21 30 10 10 21 18 34 24l24 15c5 4 10 6 16 8 8 3 16 6 24 7l17 2h10l17-1 24-7c7-2 13-5 18-9 8-6 16-10 24-14 10-6 20-12 28-20 11-10 20-21 26-35l1-4c1 0 0 0 0 0Zm-222.6-35.5c.7 1.3 1.7 1 2.9.5-.4 6.2 3.9 11.8 9 11.7.2 6.4.9 12.5 2.7 13 .2 0 .4-6.5.6-13.7 12.2-3.8 7.6-18.3 7.6-18.3-.2-.8-2 .3-6 3.9 1.6 1.7 2.4.7 3.6.3 1 1.9 1.4 10.5-5.1 13l.3-18-.4-.2c-1.8.2-5 3.4-7.5 6 1.4 2.3 3 .3 4.5-.2 0 .4-.3 6.8-.2 13.3-6.8.5-5.7-13.3-5.3-15 0-1.4-4.4 1.7-6.7 3.7Z"/>
    <path d="m284.4 492.8 2.8-2.8 2.8 2.8-2.8 2.8z"/>
  </g>
</symbol></svg>
