<svg xmlns='http://www.w3.org/2000/svg' viewBox='0 0 696 830' fill='none'><symbol id='YABC_Outline'>
  <g fill="#9D432C">
    <path d="m123.3 439.2 1 29 3 17c1 11 4 23 7 35 9 38 26 71 51 101 13 15 28 29 43 43 19 15 40 26 64 32l27 6 16 2h19l23-3 9-2 27-6c21-7 40-19 56-33l23-23c30.4-29 52.5-65.6 64-106l8-33c4-19 6-38 5-57a869 869 0 0 0-9-94c-3-15-8-29-13-43l-18-47c-4-13-11-25-18-36a577.6 577.6 0 0 0-48-59c-7-6-15-11-24-15-8-3-16-7-25-9l-31-8a243.3 243.3 0 0 0-39-4l-14 1-16 2-32 8c-8 2-17 5-25 9a133.8 133.8 0 0 0-46 35c-9 12-19 25-27 38-9 12-16 26-21 40l-15 40a312.7 312.7 0 0 0-23 113l-2 27m-5-17c1-31 4.7-61.7 11-92a4254 4254 0 0 1 28-78c3-10 8-19 14-28 9-14 20-29 31-42a157.4 157.4 0 0 1 76-50l26-9c8-2 15-3 23-3l17 1h5l21-1c7 0 13 1 20 3 15 5 30 10 45 17 22.3 10.7 42 26 58 45l26 34c8 11 14 24 19 37l15 39a290 290 0 0 1 19 80c5 48 3.4 96.5-5 144-3 16-8 32-15 47a282.7 282.7 0 0 1-78 102c-18 16-40 26-63 32l-29 5c-15.6 2-31.3 3.3-47 4l-31-5-25-5c-25-7-48-19-67-37l-26-27a282 282 0 0 1-52-87c-4-12-7-23-9-35l-4-34-2-28-1-29"/>
    <path d="m462.3 428.2-2-2c-2-1-4 0-4 3v14c0 2 2 3 4 3 1 0 2-1 2-3v-15Zm-206 9-1-6v-2l-3-3c-2 1-3 2-3 4v15c1 1 2 2 4 1 2 0 2-1 3-3v-6m187-1v-6c-1-3-3-4-5-4-2 1-3 2-3 4v14l2 2h3c2 0 3-1 3-3v-7m10-6c0-2-1-3-2-3-3-2-6 0-6 3v12c0 2 1 3 3 3 3 1 5 0 5-3v-12Zm-217 5-1-7c0-1 0-2-2-2-2-1-4 0-4 3v15c0 2 2 3 3 2 2 0 3-1 3-2l1-9m197 1v-7c0-2-1-3-2-3-3-1-6 0-6 3v16c1 1 1 2 3 2h2c2-1 2-2 2-4v-7m-166 0v-7c0-3-3-4-5-3s-2 2-2 3l-1 14c0 2 1 3 3 3 3 1 5 0 5-3v-7m-20 0v-7c0-3-2-4-4-3-2 0-4 1-4 3 .2 5.3.5 10.7 1 16 1 1 3 2 4 1 2 0 3-1 3-3v-7m99-151h21v-1l-2-1c-6-6-12-12-17-20l-1-1h-1l-1 1c-4 8-10 14-17 20l-2 1v1h20m-106 74h8l18 2c2 0 2-1 2-2l-1-7-1-5-4-7c-3-3-5-4-9-4h-9l-5 2-2 3a39.4 39.4 0 0 0-5 16l2 2h6m220 0 1-2v-2l-3-11-3-6-6-2h-9c-3 0-6 1-8 4l-3 4c-3 5-4 14-4 15l12 1 23-1Zm-101 240v-7c0-2 0-4-2-6-3-3-7-4-12-4l-8 3c-1 1-3 3-3 5v6l-1 15-1 13c.4 5.3.8 10.7 1 16 9 3 18 3 27 0 2 0 2 0 2-2l-1-20-1-4-1-15m-109-176h11c4 0 8-1 11-3l7-5 2-3c3-3 4-6 5-9l1-7 1-8c0-3-1-5-3-8l-6-8-8-8-4-1h-8c-9-1-17-2-26-1-4 0-8 1-11 5l-5 5c-3 2-5 5-6 9-2 7-2 14-1 22l2 2 5 7c5 6 10 9 17 10l16 1m233-30v-8c0-6-2-10-7-14l-5-5c-3-3-6-4-10-4h-17l-18 1-4 1-7 7-7 10c-2 2-3 4-3 7l1 6 1 9c2 6 4 10 9 13l3 2c5 4 10 6 16 5h18l11-2c4-1 7-3 10-6l6-7 3-9v-6m-136-103-24 1h-1l-2 2v6c0 6 0 11 2 16l1 2c1 6-1 11-3 16l-2 1h-5l-3 1c-2 0-3 1-3 2v8l3 3c3 0 3 1 3 4v7l1 12c1 6 2 11 1 17l-1 8v18l2 19v25l-2 9-1 6c-1 10 0 20 1 29 2 8 3 15 2 22l-1 8-1 5-1 16-1 4c0 2-1 4-3 4l-5 1-4 1-1 1 1 3 1 8-2 11c-2 5-2 10-1 15 1.4 9.6 2.4 19.3 3 29l26 9c2 0 2 0 2-2l1-13-1-10c-.8-8.1-.1-16.2 2-24 1-4 3-6 6-8 6-3 12-3 18-1 4 2 7 5 8 10 2 7 2 14 1 21v26l1 1 3-1 21-8c5-2 4-1 4-6 0-9 0-17 2-25v-8l-1-6c-2-6-2-12 0-18 1-5 1-4-4-5l-6-1c-2 0-3-1-3-3v-4l-1-11-2-17v-21a107 107 0 0 0 1-37l-1-13-1-21 2-18c1-7 2-15 0-22-1-8-2-16 0-24l1-9v-9c0-3 0-4 4-4 2-1 2-2 2-4l1-6c0-2-1-3-3-3h-5c-4-1-5 0-7-5s-2-11-1-16l2-7v-15l-1-1h-2l-23-1m166 140-1-21c0-9-1-18-4-27l-7-30c-6-22-14-42-25-61l-18-31-4-6-9-12-1-1v2l1 12-1 19v13l1 8v17l-1 17c0 2 0 2 2 2l3 2 9 5c3 2 5 6 6 10v10l2 2 7 3c3 1 5 4 6 6l4 6 4 11c1 5 1 10-1 14l-3 9c-2 7-7 12-14 15-2 0-2 1-2 2-.5 6.7-.5 13.3 0 20l-4 4h-36c-3-1-4-2-4-5l-1-3v-13c0-3 0-4-3-5l-7-7-7-12c-3-5-4-11-2-18l2-7c1-5 4-9 8-12l8-6c2-1 2-2 2-4l1-10c1-4 3-8 6-10l7-4 4-2v-5l1-1v-14l-1-10v-27c-2-6-2-12-2-18v-18c0-3 0-5-2-6l-9-8c-11.8-7.7-23.8-15-36-22-12-6-26-10-39-14-4-2-9-2-14 0-18.6 6.9-37 14.6-55 23l-18 13-10 8-2 4v18c1 8 0 15-2 22v30l-1 13 1 9c0 2 0 3 2 4l9 4c3 3 5 6 6 10l1 12 2 3 9 7c4 2 6 6 7 11l2 7 1 6c1 5-1 9-4 13l-5 10-8 8c-2 1-2 2-2 3l-1 17v1c0 3-2 4-4 5h-36c-3-1-4-2-4-5v-17c0-3-1-4-3-5l-3-1c-5-2-8-6-10-11l-4-11-2-9c1-5 2-10 5-15l4-7 5-5 8-4 2-2v-7c0-6 3-11 9-14l4-3 5-3 2-1v-57l-1-12 1-15 1-5-1-1v1c-6 6-11 12-15 19l-18 33c-9 16-17 32-22 50l-8 32-4 19a254.8 254.8 0 0 0 0 77c2 12 5 25 9 36 6 17 14 32 22 47 3 6 8 12 12 17l16 16a254.5 254.5 0 0 0 51 37l1-1c0-9 0-17 2-26l-1-8-1-3c-2-8-1-15 1-23 0-2 2-4 4-4h4l3-1 2-2 1-2-1-18-1-8v-21l1-12v-21c-2-9-2-17-1-25l2-28v-8l1-6-1-18v-18l1-16v-3h-3v-1c-3 0-4-1-4-3l-1-4 1-9c1-2 2-3 4-3l5-1h2c2-1 3-1 2-3v-12c2-8 1-16 2-23l-2-1-2 2-6 2h-1v-1l4-6 16-17 13-13 5-6c2-2 3-2 6 0l4 5 30 32 3 5-1 1-5-2-3-2c-1-1-1 0-1 1v14l1 7v14c0 2 0 2 2 3h3l5 1 3 2 1 14-1 1c0 1-1 2-3 2h-3l-1 2 1 17c1 4 2 8 1 12l-1 9v21l1 15 1 18 1 15-2 15v14l1 11v29l-2 10v14c1 4 2 5 5 6h5c3 0 4 2 5 4l1 7c1 6 1 12-1 17s-2 9-1 13c1 7 2 13 1 19v4h2c22-12.6 42.2-28 60-46 9-10 16-20 22-31 7-12 12-25 17-38a326.6 326.6 0 0 0 12-78m8-13c-.2 35.2-6.7 70-19 103l-15 32-15 24-16 18c-7 8-15 15-24 21a198.4 198.4 0 0 1-72 32l-21 1-15-3c-11-3-22-7-32-12l-28-15c-12-8-23-18-33-29a520 520 0 0 1-26-38c-6-14-13-27-18-41-8.7-23-13.5-47.4-14-72l-1-24c0-15 2-30 6-45l7-30c8-28 21-53 39-77l15-18 7-9c7-9 16-17 25-24 10-8 20-15 33-20 9-3 19-7 29-9s19-1 28 1c15 3 28 8 41 14l15 10a514 514 0 0 1 25 24l19 21c26 31 44 68.2 52 108 2.9 13.6 5.3 27.2 7 41l1 16"/>
    <path d="M353.3 311.2c-2-2-3-5-3-8-1-2-3-4-4-3-3 0-4 1-4 3l-4 9 1 5c4 5 8 6 13 0 1-1 2-3 1-6Zm-7 12-5-2-5-6-1-5c-1-3-1-5 1-8 2-2 3-4 6-5 2-2 5-2 7-1l7 7 1 5c-1 5-3 9-6 13l-5 2m12 21-4-1h-24l-10-1h-6l-1-1h-1l1-1 8-1h50l7 1 2 1-2 1h-6l-10 2h-4m19 272 1-8-1-16-1-6c0-5 0-8 3-12l1-1v1l-1 2c-2 5-2 9 0 13l3 5c2 5 3 10 1 16l-5 10-1 1v-5m-61-31-2 7v29s-1 0 0 0h-1v-1l-4-9c-2-6-2-12 1-18l1-1c3-5 4-11 1-17v-1h1l3 11m34-67c0-3-2-4-4-4-2-1-4 1-5 3v7c0 3 2 4 4 5h1c3-1 4-4 4-6v-5Zm-4-6 5 2 2 4v5l-5 7c-1 2-3 1-5-1l-5-6-1-2c0-4 5-9 9-9m3-92v-3c0-2-2-3-4-3l-3 3v6l4 4 3-4v-3m-3-7c3 0 5 1 6 3 2 2 2 4 1 6l-6 6h-3l-5-6c-2-2-1-5 0-7l7-2m5 56-1-2c-3-3-6-3-8 0-1 1-2 2-1 3l1 6 3 2h2l1-1c2-2 3-7 3-8Zm-6-6 3 1c4 1 5 5 6 8l-2 3-5 5h-3l-5-4c-1-2-2-4-1-6l4-6 3-1m4-96v-1l-3-2c-3 0-4 2-4 4l1 5v1c1 1 1 3 3 3s2-1 2-2l1-3v-5m-3-4c3 0 7 3 7 7l-1 2-5 7h-3l-5-7-1-3c0-3 4-6 8-6m98 21-1-4-1-1v-1h1c1 1 1 0 1-1v-2l1-2 1 2v3l1 1 1-1c1 0 1 0 0 0v1c-2 2-3 4-2 7v2c0 2 0 2 2 1 1 0 2-1 2-3v-2l1 1c1 2 1 2 3 1l1-3 1-1v-2l1 2v1h1l3-1v1l-2 1v2l1 1v1h-2l-2-1-4 1v1l1 2h1-2c-2-2-2-2-4 0l-1 1 8 5h2l3-1h1v1l-3 1v2l3 2v1l-3-2c-1-1-1 0-1 1l-1 2-1-1 1-3-1-1-9-5c-1 2 0 4 1 5l1 1h-2c0 2-1 4 2 6v1c0 1 0 0 0 0h-1l-1 1v3h-1l-1-3-1-1h-1v-1c2-1 2-3 2-5l-1-1h-2l2-1 1-1v-4c-1-1-2 0-3 1l-5 3-1 2v4h-1l-1-3h-1l-2 1v-1l2-1v-2l-3-1v-1h1l2 1h4l6-4 1-2c0-1-3-2-4-1v1l-2 1c-1-1 0-2 1-2 1-1 1-1-1-2l-2-1h-2l-2 1h-1c-1-1 0-1 1-1l1-1v-1l-3-2v-1c0-1 0 0 0 0h1c1 1 2 2 3 1v-2l1-1v1l1 2c0 1 0 2 2 3l1 1 1-1 1-2 1 3 1 2c2 1 2 1 2-1v-4m-190 5v-1l4-1h2l2 1-1-2v-2l2-1v-1h-1l-1 1c-1.3.7-2 .3-2-1v-1l-1-1v1l-1 2-1 3h-3v-2h-1v2c0 2-1 3-3 3h-1v-3c0-3 0-6 2-7l1-1h-1c-2 1-2 1-2-1v-3l-1-1v1l-1 4h-2l1 1c1 2 2 3 1 5v5h-1l-2-2-1-3-1 1c0 2 0 2-1 1-2 0-3-2-3-4l-1-2-1 1v2h-3l-1-1v1h1l2 2-2 2v1h1l2-1h3l2 1v2l-1 1v1l1-1h1l1-1 3 1c1 1-1 2-2 2l-2 2-4 3-5-2h-1l1 1 2 1v2l-2 1v1l3-1 1 3h1v-5l4-3 3-2h2v2l-1 2-1 2c0 1 0 1 0 0h1l1 1c0 2 1 4-1 5l-1 1h1l1 1v2l1 1 1-1v-3h2l-1-2c-2-1-1-3-1-5h2c1 0 0 0 0 0v-1c-2-1-2-3-2-5l1-1 9 7-1 3 1 1 1-1v-1c0-1 0-2 1-1l3 1c0 1 0 1 0 0l-3-2v-2l3-1v-1h-1l-4 2-4-3-5-4c1-1 3-2 4-1l2 1-1-2ZM442.9 511c0 .4-.3 6.8-.2 13.3-6.8.5-5.7-13.3-5.3-15 .2-1.4-4.4 1.7-6.6 3.8.7 1.3 1.7 1 2.9.5-.5 6.2 3.9 11.8 9 11.7.2 6.4.9 12.5 2.7 13 .2 0 .5-6.5.6-13.7 12.2-3.8 7.5-18.3 7.5-18.3-.2-.8-2 .3-6 3.9 1.6 1.7 2.4.7 3.6.3 1 1.9 1.4 10.5-5.1 13l.3-18-.4-.2c-1.8.2-5 3.4-7.5 6 1.4 2.3 3.2.3 4.5-.3m5.9 19 2.8 2.9 2.8-2.8-2.8-2.8-2.8 2.8Z"/>
  </g>
</symbol></svg>
