<svg xmlns='http://www.w3.org/2000/svg' viewBox='0 0 696 830' fill='none'><symbol id='ALBC_EC_Fill'>
  <g fill="none">
    <path fill="#1E2346" d="M347 19.3h-1l-8 8-29 26.1a695.8 695.8 0 0 0-81.1 79.2l-21 24-28 35.1-35 48.2-20.1 25-20 23c-13 15.1-24 30.1-35 46.2l-40 64.1-9 15c-2 2-2 5 0 8l1 1.1 7 12c13.2 24.8 29.4 48 48 69.2a807.3 807.3 0 0 0 70 81.2l20 22 31 33.1 12 15 16 19.1 25 30L270 727l25 27.1 31 32 17 16.1 2 2c2 1 4 0 5-1l2-1 11-10 30-30 20-21.2c10.8-11 20.8-22.8 30-35.1l29-35.1 21-25 33-36.2 22.1-23a5097 5097 0 0 0 61-71.2l25-31c15-20.1 28-41.2 40.1-62.2l2-4v-3l-4-7a1979.4 1979.4 0 0 0-75-113.3l-22-26-28.1-35.2-16-23A1014 1014 0 0 0 405 69.3l-16-14-22-19-14-13-4-4h-2m1 809.9-2-1-4-2-6-5-25-25.1-4-4-25-26-28.1-31.1-33-40.1-19-23.1a426 426 0 0 0-30-34l-34-36.2a3168 3168 0 0 1-62.1-70.1 1983 1983 0 0 1-65-92.3l-9-15-1-2v-6l8-14c20.7-33.6 42.4-66.8 65-99.3l15-18 23-27.1 23-29c11-16.1 21-31.1 33-46.2l27-34 24-27.1A1072 1072 0 0 1 335 10.2l8-8 2-2h5l6 6 23 21 20 17 7 6.1 18 17a1292 1292 0 0 1 88 96.3l29.1 38 18 25.1c10 15 22 29.1 35 43.1 35.8 38.5 66 81.6 90.1 128.3l10 17c2 4 2 5 0 8.1a554 554 0 0 1-50 75.2l-18 23-22 27.1-23 27-29 31.1-20.1 21-31 35.2-21 25-20 24.1a3876 3876 0 0 1-66.1 74.2l-27 27-14 13-4 2-1 1"/>
    <path fill="#FFF" d="m455 138.6-2-2-37-38-29-31.2-10-11-27-27c-3-3-2-3-5 0l-50 51-10 11.1-27.1 28-21 23.1-2 2-1 1h1l3-2c10-7 20-12 31-16l26-10c14.1-5 29.1-7 44-6h19c11-1 22-1 32 2a346.5 346.5 0 0 1 62.1 25l2 1h1v-1M236 670h-1l2 2 8 9 22 23 19 21.1 16 18 19 22.1 12 13 12 13 1 1h3l1-1 13-14 10-11 23.1-27c14.5-17.2 29.5-34 45-50.2l12-11 2-3h-1l-3 1a159.6 159.6 0 0 1-59 19l-32 5c-9 1-19 1-29-1l-36-6a156 156 0 0 1-57.1-22l-2-1m309-93.3 1-1 9-11 40-53.2 47-61.1 22-28.1 6-6v-2l-5-5-15-19c-18-22.1-34-45.2-50-69.2-9-12-17-24.1-24-37.1l-14-21-15-20.1-16-19-2-3v1l1 3 10 21 14 35a322 322 0 0 1 22 112.3c1.1 22.4.8 44.8-1 67.2l-3 26-4 28.1a174.8 174.8 0 0 1-21 58.2l-2 3v1m-367.3-370-1 1-15 18.1-18 22-21 30.1-16 26.1-52 73.2c-9 13-18 26-30 37v2l5 6.1 25 30c22.2 28.1 43.6 57 64 86.3l29 36 12 14.1 2 2-1-2-2-3c-7-12-13-23-18-35-5-12.1-9-25.2-11-37.2l-5-37-2-16.1-2-26a450 450 0 0 1 22-148.4l14-37.1c5-13 11-25 19-37.1l2-4v-1M572 438.3l-1-15-1-26a559.7 559.7 0 0 0-8-59.2c-3-14-6-27-11-40.1l-18-47.1c-6-16-13-30-23-44.1a1165 1165 0 0 0-28-38.1l-19-18c-6-5-13-9-21-13l-27-9.1-26.1-7c-16-4.2-32.5-6-49-5l-6 1c-14 .7-27.9 3.4-41 8-11 3-22 6-33.1 11l-21 11c-11 9-21 18-29 29.1l-20 28c-10 14.1-19 29.1-25 46.2l-11 31a813.3 813.3 0 0 0-19 59.2c-3 16-5.1 32-6.1 49.1l-1 14-1 17a286.5 286.5 0 0 0 37 156.5c11 19 24 36 40 52.1l15 14 18 16A146.1 146.1 0 0 0 299 688l20 5c9 2 19 2 28 3l19-1 5-1 35.1-7a173.5 173.5 0 0 0 73-42c12.2-12.7 24.2-25.3 36-38.2a266 266 0 0 0 57.1-168.4M347 19.3h2l4 4 14 13 22 19.1 16 14c26.7 25.4 52.4 51.8 77 79.2l49 62.2 16.1 23c14.6 22 31.4 42.5 50 61.2 26.4 36.9 51.4 74.7 75 113.3l4.1 7v3l-2 4c-12 21-25 42.1-40 62.1l-25 31.1a689 689 0 0 1-61 71.2l-22.1 23-33 36.1-21 25.1-29 35-21 25.1-9 10-20.1 21.1-30 30-11 10.1-2 1c-1 1-3 2-5 1l-2-2-17-16-31-32.1c-9-8-17-18-25-27L249.8 704l-25-30.1-16-19-12-15-31-33.2-20-22a4152 4152 0 0 1-70.1-81.2l-23-31c-9-12.1-18-25.1-25-38.2l-7-12-1-1c-2-3-2-6 0-8l9-15 40-64.2c11-16 22-31 35-46.1l20-23 20-25.1 35-48.2 28-35 20-24.1C261.5 94.6 299 59.4 339 27.3l8-8h1"/>
    <path fill="#1E2346" d="m522 413.3-1-26-3-20.1a791.4 791.4 0 0 0-14-50.2c-9-27-23-52-42-73.1l-13-16-8-10.1-24-21-21-12-6-2c-11-5-22-8.1-34-10.1l-9-1-21 4c-10 2-19 6-28 10l-17 10a265 265 0 0 0-30.1 28.1l-6 7-16 19a211.7 211.7 0 0 0-34 57.2l-8 24c-3.6 13.7-7 27.4-10 41.2l-3 27a289.5 289.5 0 0 0 16 105.3 537.4 537.4 0 0 0 30 59.1l14 18a172 172 0 0 0 33 28.1l17 10c12 6 24 12.1 36 15.1 11 3 21 5 32 4h5l20-4a265.2 265.2 0 0 0 60.1-30l19-17.1a257 257 0 0 0 32-44.1l14-29c9-19.8 14.7-40.8 17-62.2l2-21 1-18.1m50.1 25c.1 24.5-3.3 48.8-10 72.2l-6 21a223 223 0 0 1-41 75.2l-16 18-20 19.1A173.2 173.2 0 0 1 406 687l-35 7-5 1-19 1c-9-1-19-1-28-3l-20-5a153.8 153.8 0 0 1-80.1-44l-15-14.1a247.4 247.4 0 0 1-67-119.3c-3.7-17-7.1-34-10.1-51.1v-38.1l1-17a3390 3390 0 0 1 7-63.2l10-35 9-24.1 11-31.1c6-17 15-32 25-46.1l20-28.1c8-11 18-20 29-29l21.1-11a249.7 249.7 0 0 1 74-19.1l6-1 24 1 25 4 26.1 7 27 9a134.5 134.5 0 0 1 51 45.1l17 24a186 186 0 0 1 23 44.2l18.1 47.1c8 21.3 13.3 43.5 16 66.2l3 33 1 26.1 1 15"/>
    <path fill="#1E2346" d="M177.8 206.8v1l-2 4c-8 12-14 24-19 37l-14 37.2c-8.9 22.5-15 46-18 70.1a484.2 484.2 0 0 0-2 104.3l2 16 5 37.1c2 12 6 25 11 37.1 5 12 11 23 18 35l2 3.1 1 2-2-2-12-14-29-36.1-19-26-45-60.2-25-30.1-5-6v-2c12-11 21-24 30-37.1l52-73.2 16-26 21-30.1 18-22 15-18.1 1-1m367.3 369.9v-1l2-3c9.3-18.5 16.4-38 21-58.2l4-28 3-26.1a368 368 0 0 0 1-67.2 407.5 407.5 0 0 0-46-168.4l-1-3v-1l2 3 16 19 15 20.1 14 21c23.2 36.5 48 72 74 106.3l15 19 5 5v2l-6 6.1-22 28-47 61.2-40 53.1-9 11-1 1M235.9 670l2 1a171.4 171.4 0 0 0 57 22l36 6c10 2 20 2 30 1l31-5c22-2.3 43-9.2 62.1-20h1v1l-2 2-12 11a5350 5350 0 0 0-45 50.2l-23 27-10 11-13 14-1 1h-3l-1-1-12-13-12-13-19-22-16-18-19.1-21.1-22-23-8-9.1-2-2h1M455 138.6v1h-1l-2-1c-9-5-18-10-27-13-12-5-23-9-35-12-10-3-21-3-32-2h-19c-15-1.5-30 .6-44 6l-26.1 10a184.4 184.4 0 0 0-34 18h-1l1-1 2-2 21-23 27-28.1 10-11 50-51.2c3-3 2-3 5 0l27 27.1 10 11L416 98.5l37 38.1 2 2"/>
    <path fill="#FFF" d="m515 421.3-1-21-4-27.1-9-35.1c-5-20-13-38.1-23-55.1l-15-27.1-9-15a369 369 0 0 0-25-25.1c-11.2-7.2-22.6-14.2-34-21-12-6-26-11-39-15-5-2-10-2-15 0l-32 11-20 10c-11.2 7.8-22.2 15.8-33.1 24a391.1 391.1 0 0 0-21 27l-8 14.1-16 29c-5 12.1-11 24.1-14 37.2l-9 33c-3 9-4 18.1-5 27.1l-1 23c-1 17.1 0 35.2 3 52.2 2 13 6 26 11 38.1 5 13 11 24 17 36 4 8.1 9 15.1 15 22.1a228 228 0 0 0 89 63.2l24 7h12l3-1 15-4c10-3 20-7 30.1-13l35-22 29-27.2c8-8 14-17 19-27l13-28c9-18.1 14-37.2 16-57.2l2-33.1m7-8-1 18a374 374 0 0 1-7 47.1c-3 13-7 25-12 36.1l-14 29a130 130 0 0 1-16 25.1l-16 19.1-19 17a265.2 265.2 0 0 1-60 30.1l-20 4h-5c-11 1-21-1-32-4-12-3-24-9-36-15l-17.1-10c-12-8-23-17-33-28.1a332.7 332.7 0 0 1-25-35.1l-19-42.1c-8.9-21.8-14-44.8-15-68.2-2-26.4-.4-53.1 5-79.2 4.6-16.8 9.6-33.4 15-50a277 277 0 0 1 34-57.2l16-19 6-7 12-14.1 18-14 17-10c9-4 18-8 28-10.1l21-4 9 1c12 1 23 5 34 10l6.1 2 21 12 24 21.1 8 10 13 15a243 243 0 0 1 56 124.4l3 20 1 26"/>
    <path fill="#1E2346" d="M239.9 368.2v7h1v-1l1-18c1-8 3-15.1 6-22.1a64.9 64.9 0 0 1 38-37.1c5-3 11-5 17-6s12-4 18-7c6-2 11-6 15-10 5-6 7-12 7-20.1l-2-6-2-1h-1v1c0 7-4 13-10 17l-9 5a441.2 441.2 0 0 1-31 13c-6 3-13 8-18 13a86.2 86.2 0 0 0-27 45.2l-3 27M449 507.6h-1l-2-1c-9-4-19-4-29-3-12 2-23 7-33 12l-24 17-17 14.1c-11 7-23 8-35 6-8-2-14-5-21-9l-4-3h-1v1l2 3c8 10 18 16 31 20 6 1 13 1 20-1 5-1 11-4 15-8 6-4 12-10 17-16s11-12 18-17c10-8 21-14.1 33-16.1 6-2 13-2 19-1l11 2h1m-116-5c11.5.4 22.9-2.4 33-8l30-15c13-5 23-15.1 29-28.1l3-6c3-7 7-12 13-16l3-1 9-6.1c4-3 8-5 11-9 4-4 7-9 8-14a49.8 49.8 0 0 0 1-27.1l-2-1-2 1c-5 4-11 7-17 9l-9 3c-10 3.2-19.9 7.6-29 13l-2-2v-2c3-7 4-14 2-22l-2-10-1-16a48 48 0 0 0 1-17.1c-1-6-3-12-8-17-3-5-8-8-12-12.1h-3v1c-1 6-4 11-7 16-5 6-8 13-10 20l-2 2-8 1.1c-14 3-23 11-29 23l-2 5h-1l-4-4c-6-4-11-7-18-8l-11-1-12-3c-2-1-3 0-4 2l-1 1c-2 5-2 9-2 14 2 10 7 18.1 13 26.1l3 3 9 5v1h-2c-10 4-17 11-21 20.1l-2 9-1 11c-1 3-1 3-4 4l-3 1c-10.1 2-20.1 5-31.1 6h-14c-3-1-4 0-4 3l1 3 3 5.1c2 4 6 7 10 10l3 3c5 5 10 9 16 12 8 4 16 7 25 7l12-1c6.5-.1 13 .9 19 3 7 2 15 4 23 3m182.2-81.1-2 33c-2 20.1-7 39.2-16 57.2l-13 28c-5 10.1-11 19.1-19 27.1a232 232 0 0 1-94.1 62.2l-15 4-3 1h-12l-24-7-24-12c-16.4-9.4-31.8-20-46.1-32.1l-19-19a499 499 0 0 1-32-57.2c-5-13-9-26-11-39-3-17.1-4-35.2-3-52.2l1-23c1-9.1 2-18.1 5-27.1l9-33.1c3-13 9-25 14-37.1l16-29 8-14.1 12-16c6-6.6 12.5-13 19-19.1l23-16 20-10 32-11c5-2 10-2 15 0 13 4 27 9 40.1 15l13 7 20 14c7 5 12 11 18 17l7 9 9 14.1 15 27c10 17.1 18 35.1 23 55.2l9 35 4 27.1 1 21"/>
    <path fill="#FFF" d="m393 325-1-9v-3l-1-1h-2v2l-6 9-4 6-2 6c-1 1-2 3 1 4.1l1 2c3 8 6 17 4 26v5h1l1-1c3-6 5-12 5-18l2-16 1-12M285 466.4l21-1c8.4-.9 16.7-2.6 25-5 1 0 2-1 1-2l-4-8-3-8-1 1-6 8-15 6c-7 2-14 2-22 2l-7-3-1-1 1-4v-1h-1l-3 1c-8.1 4-17.1 6-27.1 6h-8v1l1 1c7 2 13 4 19 4l9 1 21 2M405 344.1v-7l-2-13c-1-5-3-9-6-13l-2-1-1 2v2l1 10v14l-2 14-1 7c-1 5-3 9-6 13l-4 7v1.1h3c6 1 11 3 16 6l4 3h2l3-12-1-6-2-9c-2-5-2-10-2-15v-3m-65 43v9l1-3 2-9v-1 8l-1 6v1h1l1-1 11-16a81 81 0 0 0 6-15h1c0 4-2 7-3 10-3 8-8 15-15 22l-2 2c0 1 1 1 3-1l2-2 5-6 10-8 10-3c2 0 2-1 3-2 3-4 4-10 4-15 1-7-1-13-3-19-1-2.1-2-2.1-3-2.1h-2c-13 2-22 9-27 20-3 8-5 16-4 25.1m33 40.1-3-1-1 1v1c3 5.2 5.2 11 6 17l2 1 2-1 12-6c9-4 18-10 26-16l26-21 20-20.1 2-2h-1l-2 1-14 7-16 7c-11 4-20 9-27 17l-6 5c-7 7.1-16 10.1-26 10.1m-37-31v-2l-2-5c-2-6.1-4-12.1-8-17.1l-7-8-9-4-7-2h-6c-4 0-8 0-12-3l-2 1c-1 2-2 5-1 8l2 8c3 6 7 10 11 15 6 5 12 8 19 10h3l12 4 2 1v-1h1l-2-2-11-8-3-2v-1h1l1 1 13 10h1v-1l-2-4-13-13-2-2v-1l8 6c5 4.3 8.8 9.8 11 16l1-1 1-3m40-9c-5 0-10 1-14 3l-10 7-9 6v1h15l9-1h2-2c-6.8 2.2-14 3.6-21 4v1h2c6 2 13 1 20 1l7-1v1l-7 1-7 1c-6 1-12 0-18-2l-2-1v1l1 2c3 3 6 6 11 7l10 4.1c6 1 11 2 17 0 7-2 13-5 18-10l9-8 2-3 1-1-11-8-15-4-8-1m-59 16-11 1c-8 3-14 8-19 15l-4 10c-.8 7.5-2.5 15-5 22l1 2h9l18-5c7-3 12-8 16-15l3-7 7-15v-2h-1l-9 3c-8 4-15 10-20 18l-4 7h-1v-1c6-14 16-23 31-28l2-1v-1l-4-2-9-1m11 31c1 13 6 24 18 30.1l5 3c4 2 8 4 10 8h3l2-3c4-6 5-14 4-22l-2-10c-1-6-5-11-10-15.1l-6-3-11-10c-1-1-1-2-3-2v4c1 8 4 15 8 22l3 6v1l-1-1-8-13a44.7 44.7 0 0 1-5-17h-1l-4 10-2 12m4 62.2c9 1 17-2 25-6l9-6 18-7 10-3c14-4 24-13.1 28-27.1l2-9c2-5 6-11 10-14.1l9-6 12-8c7-6 12-13 14-22l1-5.1c0-1-2-2-3-1l-2 2-5 6-14 15-10 9c-5 5-10 8.1-16 11.1l-22 14-17 11-3 2c-2 0-2 1-2 3 0 5-2 10.1-4 14.1l-8 10h-4l-9-7-11-6-3-1-7 1-16 1-6 1-18 1h-12l-16.1-1-15-2-11-3h-2v1c3 4 6 8 11 11l9 5c6 4 13 6 20 8l14 1c8.5 0 17 1.3 25 4 6 2 13 3 19 3m1 6c-8 1-16-1-23-3a76.8 76.8 0 0 0-19-3l-12 1c-9 0-17-3-25-7-6-3-11-7-16-12l-3-3a35 35 0 0 1-13-15l-1-3c0-3 1-4 4-3h14c11-1 21-4 31-6l3-1c3-1 3-1 4-4l1-11 2-9.1c4-9 11-16 21-20h2v-1l-9-5-3-3c-6-8-11-16.1-13-26.1-.4-5.2.6-10.5 3-15 1-2 2-3 4-2l12 3 11 1c7 1 12 4 18 8l4 4h1l2-5c6-12 15-20.1 29-23.1l8-1 2-2c2-7 5-14 10-20 3-5 6-10 7-16.1v-1h3c4.1 4 9.1 7 12.1 12 5 5 7 11 8 17s0 12.1-1 17.1l1 16 2 10c2 8 1 15.1-2 22.1v2l2 2h1l2-1a139 139 0 0 1 35-15 78.4 78.4 0 0 0 19-10l2 1 1 2c1 9 1 17-2 25-1 5-4 10-8 14-3 4-7 6-11 9.1l-9 6-3 2c-6 3-10 8-13 15l-3 6c-6 13.1-16 23.1-29 28.1l-30 15a65.5 65.5 0 0 1-33 8m116 5.1h-1l-11-2c-6-1-13-1-19 1-12 2-23 8-33 16-7 5-13 11-18 17s-10 12.1-17 16.1c-4 4-10 7-15 8-7 2-13 2-20 1a57.1 57.1 0 0 1-33-23v-1h1l4 3c7 4 13 7 21 9 12 2 24 1 35-6l17-14 24-17c10-5 21-10.1 33-12.1a53.2 53.2 0 0 1 31 4h1M240 368.2l3-27.1a86.2 86.2 0 0 1 45-58.1c10-5.4 20.3-9.8 31-13l9-5c6-4 10-10.1 10-17.1v-1h1l2 1 2 6c0 8-2 14-7 20-4 4-9 8-15 10l-18 7c-6 1-12 3-17 6a64.9 64.9 0 0 0-38 37.2c-3 7-5 14-6 22l-1 18v1h-1v-7"/>
    <path fill="#1E2346" d="M332 496.5c-6 0-13-1-19-3l-10-2-15-2-14-1c-7.1-2-14.1-4-20.1-8l-9-6c-5-2-8-6-11-10.1v-1h2l11 3 15 2 16 1h12l18-1 6-1 16-1 10-1 11 7 9 6c1 2 2 2 4 1l8-10c2-4 4-9 4-14 0-2 0-3 2-3l3-2 17.1-11 22-14.1c9.7-5.2 18.5-12 26-20l14-15c2.3-2.8 4.6-5.5 7-8.1 1-1 3 0 3 1l-1 5c-2 9-7 16-14 22l-12 8-9 6.1c-4 3-8 9-10 14l-2 9c-4 14-14 23.1-28 27.1l-10 3-18 7-9 6c-8 4-16 7-25 6"/>
    <path fill="#1E2346" d="m328 434.3 2-12 4-10h1l1 3c0 5 2 9 4 14l8 13 1 1v-1l-3-6c-4-7-7-14-8-22v-4c2 0 2 1 3 2l11 10 6 3c5 4 9 9 10 15l2 10a37 37 0 0 1-6 25.1h-3c-2-4-6-6-10-8l-5-3c-12-7-17-17-18-30m-11-31.1 9 1 4 2v1l-2 1c-15 5-25 14-31 28v1h1l4-7c5-8 12-14 20-18l9-3h1v2l-7 15-3 7c-4 7-9 12-16 15l-18 5h-9l-1-2 1-3c2-7 4-13 4-19l4-10c5-7 11-12 19-15l11-1m59-16 8 1 15 4 11 8-1 1-2 2-9 9c-5 5-11 8-18 10-6 2-11 1-17-1l-10-3c-5-1-8-4-11-7l-1-2v-1l2 1c6 2 12 2 18 2l7-1 7-2-7 1c-7.3.7-14.8.4-22-1v-1h2l19-4h2-2c-8 0-16 .5-24 1v-1l9-6 10-7c4-2 9-3 14-3m-40 9-1 3h-1c-2-6-6-10-11-15.1l-8-6h-1l1 1 2 2 13 13 2 4v1h-1a64.4 64.4 0 0 0-15-11v1l3 2c4.6 3 9 6.2 13 10h-1v1l-2-1-12-4h-3a44.9 44.9 0 0 1-30-25l-2-8c-1-3 0-6 1-8l2-1c4 3 8 3 12 3h6l7 2 9 4 7 7c5 6.8 8.4 14.7 10 23v2"/>
    <path fill="#1E2346" d="M373 427.3c10 0 19-3 26-10l6-5c7-8 16-13 27-17 11-4.3 21.7-9.3 32-15.1h1l-2 2-20 20-26 21.1c-8 6-17 12-26 16l-12 6-2 1-2-1v-2c-1-5-3-11-6-15v-1l1-1 3 1m-33-40a53 53 0 0 1 4-25.1 33 33 0 0 1 29-20.1c1 0 2 0 3 2 2 6 4 12 3 19 0 5-1 11-4 15-1 1-1 2.1-3 2.1l-10 3c-4 2-7 4-10 8l-5 6-2 2c-2 2-3 2-3 1l2-2c8.7-8.9 14.9-20 18-32h-1v2l-6 13-11 16-1 1h-1v-1l1-6v-8 1l-2 9-1 3v-9m65-40c0 5 0 10 2 15l2 9 1 6-3 12h-2l-4-3c-5-4-10-5-16-6h-3v-1l4-7c3-4 5-8 6-13l1-7 2-14.1v-15l-1-9v-2l1-2c1-1 2 0 2 1 3 4 5 8 6 13l2 13v10M285 466.4l-21.1-2-9-1c-6 0-12-2-19-4l-1-1v-1h8c10 0 19-3 27-6l3-1h1v1l-1 4 1 1 7 2c8 1 15 1 22-1l15-6 6-8 1-1v1l3 7 4 8v2a209 209 0 0 1-26 5l-21 1"/>
    <path fill="#1E2346" d="m393 325-1 12-2 16.1a32 32 0 0 1-6 19h-1v-5c2-9-1-18-4-27l-1-1c-3-1-2-3-1-4l2-6 4-6 6-9 1-2h1l1 1v3l1 9"/>
    <path fill="#FFF" d="M449.5 322.8c0 .4-.3 6.8-.2 13.3-6.8.5-5.7-13.3-5.3-15 .2-1.5-4.4 1.7-6.6 3.8.7 1.3 1.7 1 3 .5-.6 6.2 3.8 11.8 9 11.7.1 6.4.8 12.5 2.6 13 .2.1.5-6.5.6-13.7 12.2-3.8 7.5-18.4 7.5-18.4-.2-.8-2 .3-6 4 1.6 1.7 2.4.7 3.6.3 1 1.9 1.4 10.5-5 13l.2-18c0-.2-.2-.3-.4-.3-1.8.2-5 3.5-7.5 6.2 1.5 2.2 3.2.2 4.5-.4m6 19.1 2.7 2.8 2.8-2.8-2.8-2.8-2.8 2.8Z"/>
  </g>
</symbol></svg>
