<svg xmlns='http://www.w3.org/2000/svg' viewBox='0 0 696 830' fill='none'><symbol id='ALBV_EC_Fill'>
  <g fill="none" transform="translate(.7 .3)">
    <ellipse cx="348.2" cy="405.4" fill="#FFF" rx="227.1" ry="289"/>
    <path fill="#1E2346" d="M454.7 139.3h-1l-2-1c-13-7-25-13-39.1-17l-20-7c-11-3-23-4-34-3h-19.1c-13-1-25 0-38 4s-25.1 8-38.1 14a174 174 0 0 0-29 16v-1l2-3 18-18 29-32 60-61.2c4.1-4 3.1-4 7.1 0l27 27 50.1 53.2 24 26 2 2 1 1M235.4 669.6l6 3c17 11 37.1 18 57.1 21l31 5c14 2 28.1 2 41.1 0l31-6c18.3-3 36-9 52.2-18h1v1l-2 2-6 5-47.1 52.2-30 34-20.1 22.1-1 1h-3l-7-7-62.1-70.2-38-41-4-4h1"/>
    <path fill="#1E2346" d="m677 417-1-3-5-7-23-38.1-28.1-44.1c-12-18-26-34.1-41-51.1-10-11-20.1-22-28.1-35.1a1410.6 1410.6 0 0 0-80.1-102.3c-24.5-26.6-50.2-52-77.1-76.2l-42-38-3.1-2h-3l-8 7-24 22a901.4 901.4 0 0 0-161.3 177.4c-13 18-26 35.1-41 52.2-16 17-30 36-43.1 55.1l-44 70.2-5 9c-2 2-2 5 0 7v1a423 423 0 0 0 57 82.2 763 763 0 0 0 90.1 104.3 1311 1311 0 0 1 99.2 114.2 734 734 0 0 0 60 64.2l17 16c4.1 3 5.1 3 9.1 0l15-13c50.6-51 98-104.8 142.2-161.4l57.1-62.1 26-29.1 41.1-52.1a427 427 0 0 0 41-63.2l3-4m18.1 2-2 5-12 20a339 339 0 0 1-31 46.2 5081 5081 0 0 1-66.2 81.2l-43 46-39 43.2-25.1 30-51 61.2a1215 1215 0 0 1-62.2 64.2l-12 10c-4 4-6 4-10 0l-15-14a1260.2 1260.2 0 0 1-110.2-123.3c-17-20-35-41.1-54-60.2l-41.1-45c-22-24.2-43-49.2-63.1-75.3l-26-34A402 402 0 0 1 0 422v-6l7-13 48-75.2c11.1-17 24.1-33 38.1-49.1l19-22 26.1-34.2c39.4-55 83.2-106.6 131.2-154.3l36-33.1A701.5 701.5 0 0 0 345.5 0h3l4 3 26 24 23 20.1c35.4 31 68.3 65 98.2 101.3 18 22 35 44 51 67.1l25.1 33.1 16 20c20 21.1 37.1 44.2 53.1 68.2l45 72.2 4.1 7 1 3"/>
    <path fill="#FFF" d="m454.7 139.3-1-1-2-2-24-26L377.4 57l-27-27c-4-4-3-4-7 0l-60 61.1-29.1 32.1-18 18-2 3v1l3-2c8-6 17-10 26-14 13-6 25-10 38-14s25-5 38-4h19.1c11-1 23 0 34 3l20 7a218.9 218.9 0 0 1 41.2 18h1M235.3 669.6h-1l4 4 38.1 41.1 62 70.2 7.1 7h3l1-1 20-22 30-34.1 47.1-52.2 6-5 2-2v-1h-1l-3 1c-15 9-32 14-49 17l-31 6c-14 2-27.1 2-41.1 0l-31-5c-20.1-3-40.1-10-57.2-21l-6-3M576.8 412v12l-1 26-3 22.1-4 33.1c-2 16-6 31-13 46.1l-10 21-1 3v1l3-3 16-21c16-19 30-39 45-59.1C628 467.2 648 441 669 417l1-1v-2l-1-1-17-20a1314.7 1314.7 0 0 1-87.2-126.4l-22-28-12-15-2-2 1 3 10 20 15 40a299 299 0 0 1 20 96.3l2 31M161.2 589.5l-2-4-11-18a208 208 0 0 1-22-72.2c-1.8-20-3.8-40.1-6-60.2-.8-49.6 6.3-99 21-146.3l14-38.1c6-14 12-28 21-40l1-2.1v-1s0-1 0 0l-2 2a720 720 0 0 0-49 61.2l-20 33L59 371c-11 15-22 30-35 43.1v2l8 9 16 20c18 21.1 34 44.2 51 67.2l55.1 70.2 6 7v1h1v-1M571.8 431l-2-23c0-15-2-29-3-44.1-3-22-8-44.1-16-65.2l-20-53.1c-5-12-11-24-19-35a647.6 647.6 0 0 0-44.1-55.2 99 99 0 0 0-38-22c-14.1-6-29.1-10.1-44.1-13.1a177 177 0 0 0-68.1-1c-19 4-37.1 9-54.1 15-11 4-20 9-29 16-8 7-16 14.1-22 23.1l-26.1 35.1c-9 13-16 27-22 41.1l-6 18-13 33.1A315.4 315.4 0 0 0 127.1 404a433 433 0 0 0 1 71.1l7 33.1c6 25 15 48.1 28 69.2 10 17 21 32 35 46.1 11.3 11.1 22.6 22.2 34.1 33 16 13.1 34 23.1 54.1 28.2l26 6 16 3c12 2 25.1 2 37.1 1l5-1 29-6c27-5.7 52-18.5 72.2-37.1l33-33.1a241.5 241.5 0 0 0 62.1-130.3c3-17 5-35.1 5-56.2M676 417l-2 4-10 18c-9 16.1-20 31.1-31 45.2l-41.1 52-26 29.2-57.2 62.1-37 43.1a3521 3521 0 0 1-73.1 85.2l-32 33.1-15 13c-4.1 3-5.1 3-9.1 0l-17-16c-35-34.4-67.7-70.9-98.2-109.3l-61-69.1-52.1-56.2A759.3 759.3 0 0 1 19 421v-1c-2-2-2-5 0-7l5-9 44.1-70.2c13-19 27-38 43-55.1 15-17 28.1-34.1 41.1-52.2 31.2-44 65.7-85.5 103.2-124.3 19-19 38-36 58-53l24-22.1 8.1-7h3l3 2 41 38c14 11 27.1 24.1 40.1 37.1l38 39.1a906.6 906.6 0 0 1 80.2 102.3c8 13 18 24 28 35a476 476 0 0 1 69.1 95.3l23 38 5 7.1v3"/>
    <path fill="#1E2346" d="M173.2 410c0 18 1 34 4 50.1 3 17 8 34 15 50.1 6 14.2 12.5 28.2 19.1 42.1a192 192 0 0 0 53 55.2l19.1 12c16 8 32 15 50 18 7 1 15.1 2 22.1 1 13-2 25-5 36-10 15-6 28.1-14 42.1-22 9-7 18-14 25-23l13-15.1c7-8 13.1-18 18.1-28.1l10-22c10-22.1 17-46.2 20-71.2 2.6-22 2.6-44.2 0-66.2l-5-26-8-32.1c-10-27-23-53.1-42-76.2l-18-21-20-21.1a149.9 149.9 0 0 0-71.2-32l-10-1c-10 1-20 3-30 7-9 3-18 6-26 11-13.1 7-24.1 17-34.1 27l-15 18-15 18.1a233.6 233.6 0 0 0-43.1 93.2l-6 26.1-3 38M571.7 431c0 21-2 38.1-5 56.2l-8 32a243 243 0 0 1-54 98.3 548.8 548.8 0 0 1-53.2 48.1c-16 10-33 18-52 22l-29 6-5 1c-12 1-25.1 1-37.1-1l-16-3-26-6a152 152 0 0 1-65.2-38l-23-23.1a232.8 232.8 0 0 1-63.1-115.3l-7-33-3-30.1c-.2-21.2 1-42.2 4-63.2 2-28 7-55.1 16-81.2l13-33 6-18.1c6-14 13-28 22-41.1l26.1-35c6-9.1 14-16.1 22-23.1 9-7 18-12 29-16 27.8-10 56.8-16.1 86.2-18.1 32.2 3 63.9 10.4 94.1 22 17 9.7 32 22.6 44.1 38.1 9 11 17 22 24 34.1 8 11 14 23 19 35l20 53.2c8.1 21 13.1 43.1 16.1 65.2 1 15 3 29 3 44l2 23.1"/>
    <path fill="#1E2346" d="M161.2 589.4v1h-1v-1l-6-7-55-70.2c-17-23-33.1-46-51.1-67.1l-16-20-8-9.1v-2c13-13 24-28 35-43.1l47-67.2 20-33 14.1-18c11-15.1 22-30.2 35-43.2l2-2c0-1 0 0 0 0v1l-1 2c-9 12-15 26-21 40.1l-14 38.1a292.2 292.2 0 0 0-20 106.3c-1 23-.4 46.2 2 69.1l3 31c3 25.2 10 49.2 22 72.3l11 18 2 4M576.8 424l-1 26-3 22.1-4 33.1c-2 16-6 31-13 46.1l-10 21-1 3v1l3-3 16-21c16-19 30-39 45-59.1C628 467.2 648 441 669 417l1-1v-2l-1-1-17-20a1314.7 1314.7 0 0 1-87.2-126.4l-22-28-12-15-2-2 1 3 10 20 15 40a299 299 0 0 1 20 96.3l2 43.1Z"/>
    <path fill="#FFF" d="M223.3 401h-1l-1 1 1 1 3 2 1-1c0-2 0-3-2-3h-1m7 3v1l2-1 1-1 1-1-2-1c-2 0-2 1-2 3m119.2-2c-5 0-5 0-5 4v2h1l4-2 2-3-2-1m129.2 1 1 2v1h1l5-6-1-1h-3c-2 1-2 1-2 3v1m-144.2-1h-1l1 2 5 4h1c1-5 0-6-6-6m136.2-2h-3l2 3 4 3h2v-2c0-2.7-1.7-4-5-4m-40-53.2h10v-1l-10-11h-2c-2.8 4-5.5 8-8 12h10m-15.1-18v15h2l10-10v-3l-10-13-2-1-1 2 1 4v6m47 34 1 9.1c0 3 0 3 3 3l7-1 5-1v-3l-17-17 1 10m-49-24v-4l-1-11.1 1-6h-2l-12 15 10 10 2 2 1-1 1-5m-16 10 13-3a905 905 0 0 0-16-11l-11 10-1 1 1 2 14 1M261.4 415c0-3 0-3-3-3h-2l-1 3v34c0 3-1 3 4 4h1v-1l1-3v-34Zm39 18h-1v19c0 2.1 1 2.1 2 2.1h2c2 0 2-1 2-3l1-12v-18l1-3c0-5.1-1-6.1-6-5.1l-1 1v19m-8 0-1 16v4l2 2.1 1-1c4 0 4 0 4-4V415c0-2 0-2-2-2h-3l-2 1 1 19m-19 1v17c-1 3.1-1 3.1 3 4.1h1c2 0 2-1 2-2v-4l1-28v-4c1-5.1 0-4.1-5-4.1h-1l-2 1 1 20m-3-1v-20l-6-1-1 1-1 2 1 34v3l1 1 5 1.1 1-1v-20m20 1V414l-2-1h-4c-2 0-2 0-2 2v1l-1 33v4l2 2.1h4c2 0 3-1 3-3v-18m73.1-72.2v-10l-1-2c-2 0-3 0-4 2l-3 2-15 16c-1 1-1 1 1 2 6.6.8 13.3 1.5 20 2 2 0 2 0 2-2v-10m71.1 0v-9c0-2 0-3-2-3l-15 2-1 1v6l1 12 17 1v-10m-41 0v8c0 3 0 3 4 3h16l2-2v-2l-1-14v-2l-2-2-17-1c-2 1-2 1-2 3v9m57 12h4l6 1c2 0 2-1 2-2v-1l-2-20v-1l-2-1h-21l-1 2v19c0 2 1 3 3 3h11m-72-22-11-1c-2 0-2 0-2 2v17c0 4-1 4 4 4l20-1c2 0 3 0 3-3l-1-16v-2l-1-1h-3l-9 1m58 82.1v18c0 2.1 1 2.1 2 2.1h11c5 0 5 0 4-5v-21l1-11c0-2.1-1-2.1-2-2.1h-14c-2 0-2 0-2 3v16m48.1 20.1h6l2-2v-24l1-8V401l-1-2c-2 0-3 0-4 2l-7 8-2 4-1 12v26c0 2 0 3.1 2 3.1h4m-69.1-19v19l2 1h2l11-1h2l2-1v-20l-2-18.1h-14c-3 0-3 0-3 2v18m-24 1v-17c0-3-1-3-3-3h-12c-5 0-5 0-5 4v32l2 1 15 2.1c2 0 2-1 2-2l1-17m61-88.3 2-1h3l-3-2-15-14-19-25-3-5h-2l-9 10c-7 8-14 15-23 21l-16 12-3 3-1 1h1l13-1 3-1 6-6 17-17 6-7 4-3h4l2 3 24 28c2 3 5 4 8 3h1m-39 88.2 1-17v-2l-1-1h-2l-18 3v35c0 2.1 0 2.1 2 2.1l16 1c2 0 2-1 2-3v-18m-196.3 15h7c3 0 3 0 3-2l-1-9v-9l1-15.1c0-5-1-8-5-10-3-4-7-5-12-4-2 0-2 0-2 2v10l1 5v13c-2 6-1 12-1 17 0 2 0 2 2 2h7m107.2 3h15l1-1c-1-5 1-10 1-15v-21c0-3 0-4-3-6l-7-7-3-2h-19l-28.1 1c-11 1-23 1-34-1h-6l-4 1-6 6-1 3-1 8v20l-1 9c0 2 1 2 3 2l18 2h2l1-2 1-14v-24c0-2 0-3 3-3h10l21 1h19c2 0 3 1 3 4 .2 6.7.2 13.3 0 20l-1 4 1 13c0 2 0 2 2 2h13m104.2-41h25c2 0 2 1 2 3l1 3v21l1 13 1 2.1h15l2-2v-17l1-9-1-14.1-1-3-8-7c-2-2-4-2-6-2l-27-1h-11l-21 1c-12 2-25 3-37 2h-7l-3 2-7.1 6c-2 1-3 3-2 6v1c0 5 0 10-2 15v19l2 2h21c2 0 2 0 2-2v-11l1-22c0-6 1-5 6-5l14-1h15l5 1 19.1-1M234.3 302.7l11-1c8-1 14-4 19-10 6-8.8 11.8-17.8 17.1-27 1-4 2-8 1-12-1-12.1-5-24.1-12-34.2-3-4-3-4-7-1-11 9-20 20-28 33.1l-10 18-14.1 25.1-1 3v1l2 1c7 2 15 4 22 4m10 74.2h-14c-3 0-5 0-8 2l-16 14-2 2 1 1h3l10 1h20l26-1 16.1 1h67.1l65-1 17.1-1c12-3 25-2 37-1l28.1 1h3c1 0 2-1 1-2l-9-12-3-2-5 1-11-2h-5l-25 1c-13 1-27.1 0-40.1-1l-17-2-20 1-32.1 3c-20 1-40 0-61.1-2l-26-1m54-7v1l11-1c8.4-.5 16.8-.8 25-1l13.1-12c8-7 16-13 23-21 13.6-15 28-29 43.1-42.2l1-6v-6c-2-3-2-6-1-9l1-10 1-2 1 2 1 10v14l1 8c0 2 0 3 2 4l16 16c13 13.6 25.3 27.6 37 42.2 7 5 12.1 11 18.1 17l13 18 2 3c1 2 0 3-1 3l-5 1c-3 1-3 1-3 3V417l1 11v10c-2 4-2 9-2 13 0 2 1 3.1 3 3.1h9c4 0 4 0 4-4a325 325 0 0 0-4-84.2l-7-24a241 241 0 0 0-22-56.2l-22-38.1-8-11-7-8c-4-6-9-10-15-14-11-7.2-22-14.2-33.1-21.1l-40-14c-4.1-2-8.1-2-13.1-1l-11 4-2 2-11 7c-4 1-7 3-10 7-4 5-9 8-15 12l-2 1h-1v-1l1-2 17-14 5-3 4-3c-2-1-4 0-5 1l-3 1c-8 3-16 7-23 12l-12.1 8-2 1v2l1 1c11 10 15 23 13 37.1-1 10-4 19-7 29v1c-3 7.1-8 13.1-15 16.1l-14 5-9 4c-10 3-20 2-30.1-3h-4l-1 3-10 26.1a3906 3906 0 0 0-12 49.1l-2 28c-1 13.1-1 26.2 1 38.2 0 3 0 4 3 3h17l1-2 1-11-1-7v-12c1-3.1 2-6.1 1-9.1v-6c1-3 0-4-3-4l-4-1-2-1v-3l1-1 7-7c5-4 9-8 15-11 3-2.1 6-3.1 10-3.1h26l16-1 28.1-2m49.1 263.6 7-1c20-4.3 38.9-12.1 56-23 19.1-11 36.1-24 52.2-41.1 8-8 15-18 21-28.1l14-31a169 169 0 0 0 14-47.2l-1-1h-2l-30 1h-13c-15 1-29-1-43-2h-30.1c-31-.2-62.1-.6-93.2-1-9-2-18-3-28-2l-11 1a277.2 277.2 0 0 1-59.1 0l-13-1h-4l-1 1v3c2 13 5 26 10 39.1a399 399 0 0 0 30 58.1c10 11 20 22.1 31 31.1a287.7 287.7 0 0 0 70.2 39.1l12 3 11 2M173.2 410c-.5-21.8 2.7-43.4 9-64.2l6-21c8-26 20.1-50.1 37.1-72.2l15-18 15-18a148 148 0 0 1 34.1-27.1c8-5 17-8 26-11 10-4 20-6 30.1-7l10 1a149.9 149.9 0 0 1 71.1 32l21 21 17 21a258.8 258.8 0 0 1 42.1 76.3l8 32 5 26.1c2.4 22 2.4 44.2 0 66.2-3 25-10 49.1-20 71.2l-10 22c-5 10-11 20-18 28l-13 15.1c-7 9-16 16-25 22-14.1 9-27.1 17.1-42.1 23.1-11 5-23 8-36 10-7.1 1-15.1 0-22.1-1-18-3-34-10-50-19l-19.1-11c-12-7-22-16-31-26.1a192.9 192.9 0 0 1-41.1-71.2c-7-16-12-33-15-50-3-16.1-4-33.2-4-50.2"/>
    <path fill="#1E2346" d="m426.6 556.3 6-1h4l-4-1-14-2-16-4-20-2c-10-1-19 0-29 2-10.1 3-21.1 5-32.1 6-10 2-20 2-30 0a81 81 0 0 1-41.1-18h-1c0 4 2 7 4 9 4 5 8 8 13 11 13 7 27 9 42 8 9-1 17-4 26-7l17.1-6c13-4 25-5 38-2l17 4c7.1 1 13.1 3 20.1 3m-179.2-75.1-13 2c-9.8 1.7-19 5.5-27.1 11v1l9-5c16-7.7 34.6-8.4 51-2l12.1 5c11 4 23 5 35 4l19-5 16.1-4c6-2 13-2 20-1l18 5 18 6c10.1 3 19.1 4 29.1 2l13-5 14-4c7-2 13-4 21-2h2.1v-1l-12-2c-6-1-13 0-19 2l-19 5c-12 3-23.1 3-34.1 0l-21-5-15-3c-7-1-14.1 0-20.1 1l-25 4c-9 1-19 1-29-1l-18.1-4-25-4m100.1 152.3-11-2-12-3-22-8c-17-9-33.1-19-48.1-31a219.6 219.6 0 0 1-41-45.2l-20.1-44c-5-13.1-8-26.2-10-39.2v-3l1-1h3l14 1c19.7.4 39.3.4 59 0l11-1c10.1-1 19.1 0 28.1 2l24 2 40.1 1 29-2h30.1c14 1 28 3 43 2h13c10.1 1 20.1 0 30.1-1h2v5c-2 15-7 30.1-13 44.1l-14 30.1c-6 10-13 20-21 28a238.9 238.9 0 0 1-108.2 64.2l-7 1m-94.1-319.7c1 7 3 15 8 21l4 11 2 8c0 2 1 4 3 5h1l1-1-1-3-4-9-4-12-8-20-1-2-1 1v1m-40 4-1 1-5.1 23-3 12-2 7-1 4c0 2-1 3 1 4l2-3c2-2 2-5 2-7l1-7c0-3 1-7 3-10 3-5 3-24 3-24Zm142.1-62.2 4-1v-2l-5-2-11-1c-5 0-10 0-14-2l-25-4-5 1v1h2l10 3 20 2 8 1 6 2 10 2Zm-19 63.2 1-1v-1l-2-2c-5-4-10-6-15-8l-10-6a87.6 87.6 0 0 0-23-14.1h-1v1l11 9 11 5c4 2 8 4 11 8 3 2 6 5 10 6l7 3M270.4 372l-17 1h-26l-10 3-14.1 11-7 7-1 1v3l2 1 4 1c3 1 3 1 3 4v6l-1 9.1v12l1 7-1 11-1 2h-17c-3 1-3 0-3-3a355 355 0 0 1 1-66l5-23.1a3177 3177 0 0 1 17-52.2l1-3h4c10 5 20 6 30 3l9-4 14-5a27 27 0 0 0 15.1-17c3-10 6-19 7-29 2-14.1-2-27.2-13-37.2l-1-1v-2l2-1 12-8c7-5 15-9 23-12l3-1 4-1-3 3-5 3c-7 4-13 9.6-18 16-1 1 0 1 1 1l2-1c6-4 11-7 15-12 3-3 6-6 10-7l11-7 2-2 11-4c5.1-1 9.1-1 13.1 1l40 14 17 10c10.5 8.2 21 16.5 31.1 25l7 8 8 11.1 22 38a294 294 0 0 1 22.1 56.2l7 24c2 10.1 4 19.1 4 29.2 2 18 2 36 0 55 0 4.1 0 4.1-4 4.1h-9c-2 0-3-1-3-3 0-4 0-9 2-13v-9l-1-12V402c0-2 0-2 2-3l6-1c1 0 2-1 1-3l-2-3-14-18.1-17-17-15-16c-12.8-16-26-31.4-40.1-46.2l-1-8v-14l-1-10h-2l-1 10c-1 3-1 6 1 9v6l-1 6-2 4-41 38.1a319 319 0 0 1-41.1 35 645 645 0 0 0-59.1 1.1Z"/>
    <path fill="#1E2346" d="m244.4 377 26 1a420 420 0 0 0 93.1-1l20-1 17 2c13.1 2 26.1 2 40.1 1l25-1h5l11 2 4.1-1 4 2 9 12c1 1 0 2-1 2h-3l-28-1c-12-1-25-1-37 1l-18.1 1-64.1 1H208.3l-3-1-1-1 1-1 17-14c2-3 5-3 8-3h13m-9-74.3a66.1 66.1 0 0 1-24-5v-1l1-3 14-25 10-18.1c8-13 17-24 28-33 4-3 4-3 7 1 7.1 10 11.1 22 12.1 34 1 4 0 8-1 12l-6 12-11 15.1c-5 6-11 9-19 10l-11 1M409.5 413h-5l-15-1-14 1c-5 0-6-1-6 5l-1 22v11c0 2 0 2-2 2h-21.1l-2-2v-19c2-5 2-10 1-15v-1c0-3 1-5 3-6l7-6 3-2 7 1c19.5.2 38.9-1.1 58.1-4h11l27 1c2 0 4 0 6 2l8 7 1 3 1 14-1 9v17l-2 2.1h-15l-2-2v-34l-1-3.1c0-2 0-3-2-3h-25l-19 1m-85.1 40h-13c-2 0-2 0-2-2l-1-13v-4c2-4 2-8 2-12l-1-8c0-3-1-3-3-4h-19l-21.1-1h-10c-3 0-3 1-4 3l1 15v9l-1 14-1 2h-2c-7-1.2-14-2.6-21-4l1-9v-28l2-3 6-6 4-1h6c11 2 23 2 34 1l28-1h19l3 2 7 7c2 2 3 3 3 6v21c-1 5-2 10-1 15l-1 1h-15m-107-3h-7.1c-2 0-2 0-2-2 0-5-1-11 1-17v-13l-1-5v-10c0-2 0-2 2-2 5 0 10 2 11 4 2 1 6 5 6 10l-1 15v9l1 9c0 2-1 2-3 2h-7"/>
    <path fill="#1E2346" d="M413.6 435v18c0 2.1 0 3.1-2 3.1l-16-1c-2 0-2 0-2-2v-35l1-2.1 17-1h2v20m39-87.2c-1 0-7-2-9-4l-24-28-3-3h-3l-4 3-6 7-17 17-6 6-3 1-13 1v-1l3-3 16-12c9-6 16-13 23-21l9-10h2l3 5 19 25 15 14 3 2-5 1Zm-61 88.3-1 17c0 1 0 2-2 2l-15-2c-1 0-2 0-2-2v-31c0-4.1 0-4.1 5-4.1h12c2 0 3 0 3 3v17m24-19c0-2 0-2 3-2h14l2 18v18l-1 2-1 1.1h-2l-11 1h-3l-1-1v-37Zm69.1 37.1h-4c-2 0-2-1-2-3v-26l1-12.1 2-4 6-8c2-2 3-2 5-2l1 2v19l-1 8v24l-2 2.1h-6m-48-20v-16c0-3.1 0-3.1 2-3.1l16 2-1 11v21c1 5.1 1 5.1-4 5.1h-11c-2 0-2 0-2-2v-18m-59.2-82.3 10-1h3l1 1v18c0 3.1 0 3.1-2 3.1l-20 1c-5 0-4 0-4-4v-17c0-2 0-2 2-2l10 1m73.1 22h-11c-3 0-3-1-3-3v-19l1-2h21l2 1v1l2 20v1c0 1 0 2-2 2l-6-1h-4m-57-21c0-2 0-2 2-3l17 1c2 0 2 1 2 2v18l-1 2h-16c-4 0-4 0-4-3v-17m41 18c0 2 0 2-2 2l-15-2v-19l15-2c2 0 2 1 2 3v18m-71 1c0 2 0 2-2 2-7-.3-14.1-1-21.1-2v-2l15-16 3-2c1-2 2-2 4-2l1 2v20Zm-73.2 80.2c0 2-1 3-3 3h-4l-2-2v-4l1-33.1v-1c0-2 0-2 2-2h4l2 1v38m-20-2v3l-1 1.1-5-1-1-1-1-3V413l2-1 6 1v37m2-16v-20l1-1h2c5 0 6-1 5 4v4l-1 28v4c0 1.1 0 2.1-2 2.1h-1c-4-1-4-1-4-4v-17m19-20.1 2-1h3c2 0 2 0 2 2v35c0 4.1 0 4.1-4 4.1l-1 1-2-2v-4l1-16-1-19.1m9 3v-3l1-1c5-1 6 0 6 5l-1 3v18l-1 12c0 2 0 3.1-2 3.1h-2c-1 0-2 0-2-2v-19l1-16m-39 32-1 3v1h-2c-4-1-3-1-3-5V415l1-3h2c3 0 3 0 3 3v34"/>
    <path fill="#1E2346" d="m397.6 348.8-13-1-1-2 1-1 11-10h3l13 11-1 2-13 1m16-5-1 1-2-2-11-10v-2l15-13-1 6 1 11-1 9m50 19-1-10 1-1 2 2 14 16v3.1l-5 1-7 1c-3 0-3 0-3-3l-1-9m-47-40.1-1-4 1-2 2 1 10 13v3l-10 10h-2v-21m5 24h-1v-1l11-11 9 12h-19m53 52.2c0 1 2 1 2 5v2h-2l-4-3-2-3 6-1m-139.1 3c6 0 7 1 6 6h-1l-5-4-1-2h1m144.2 1v-1c0-2 0-2 2-3h3l1 1v1l-6 5v-1l-1-2m-129.2-1 2 1-2 3-4 2h-1v-2c0-4 0-4 5-4m-119.2 2s0-3 2-3l2 1-1 1-1 1c-1 1-1 2-2 1v-1m-7-3h1c1 0 2 1 2 3l-1 1-3-2-1-1 2-1Z"/>
    <path fill="#FFF" d="m247.4 481.2 25 4 18 4c10 2 20 2 29 1l25.1-4a75.4 75.4 0 0 1 35 2l21 5c11 3 23.1 3 34.1 0l19-5c6-2 13-3 19-2l12.1 2s2 1 0 1h-2c-7-2-14 0-21 2l-13 4-14 5c-10 2-19.1 1-29.1-2l-18-6-18-5c-7-1-14-1-20.1 1l-16 4-19 5c-12 1-24 0-35.1-4l-12-5a64.2 64.2 0 0 0-51 2l-9.1 5c-1 1-2 0 0-1l5-3c7-4 14-7 22-8l13-2m179.3 75.1c-7 0-13-2-20-3l-17-4c-13-3-25-2-38 2l-17.1 6c-9 3-17 6-26 7-15 1-29.1-1-42.1-8-5-3-9-6-13-11-2-2-4-5-4-9h1l3 2c11 9 24 14 38 16 10 2 20 2 30 0 11-1 22-3 32.1-6 16.1-3.7 33-3.7 49 0l16.1 4 14 2 4 1h-4l-6 1"/>
    <path fill="#FFF" d="m432.6 554.3 5 1h-5m-96.1-236.5c1 0 2-1 1-2l-2-2-15-8-10-6a87.6 87.6 0 0 0-23-14.1c-1-1-2-1-1 1l11 9 11 6c4 1 8 3 11 7 3 2 6 5 10 6l7 3s-1 0 0 0Zm23-64.2c2 0 0-1 0-2l-5-2-11-1c-5 1-10 0-14-2l-25-4-5 1v1h2l10 3 20 2 8 1 6 2c3 1 12 2 14 1Zm-145.2 61.2-1 2c-3 7-5 15-5 23l-3 12-3 6-1 5 1 4c2 0 2-2 3-3l2-7v-7l3-10c3-6 5-25 4-25Zm39-2c1 7 3 15 8 21l4 11 2 8c0 2 1 4 3 5h1l1-1-1-3-4-9-4-12-8-20c0-1-1-3-2-2v2Zm125.6 260c0 .4-.3 6.8-.2 13.3-6.8.5-5.7-13.3-5.3-15 .2-1.4-4.4 1.7-6.6 3.8.7 1.3 1.7 1 3 .5-.6 6.2 3.8 11.8 9 11.7.1 6.4.8 12.5 2.6 13 .2.2.5-6.5.6-13.7 12.3-3.8 7.6-18.3 7.6-18.3-.2-.8-2 .3-6 3.9 1.6 1.7 2.4.7 3.6.3 1 1.9 1.4 10.5-5.2 13.1.3-8.7.4-18 .4-18 0-.2-.3-.3-.5-.3-1.8.2-5 3.4-7.5 6 1.5 2.3 3.2.3 4.5-.3m6 19.1 2.8 2.8 2.8-2.8-2.8-2.8-2.8 2.8Z"/>
  </g>
</symbol></svg>
