<svg xmlns='http://www.w3.org/2000/svg' viewBox='0 0 696 830' fill='none'><symbol id='ARPC_EC_Fill'>
  <g fill="none">
    <path fill="#1E2346" d="m677.3 417.5-1-3-4-7-31-50c-19-30-40-59-64-86-10.9-11-19.9-24-29.9-37l-34-46.1c-34-45-73-86-115-123l-45.9-41.1c-5-6-4-5-9-1l-32 29a952 952 0 0 0-157.9 175.1c-12 17-25 34-39 49-16 18-32 37-45 57l-34 54.1-14.9 26c-2 3-2 5 0 8l22 37c19 27 39 53 61 79.1 18 22 39 44 59 65l63.9 73c36.3 45.2 75.6 87.6 118 127.2 3 3 4 2 7 1l2-2 14-13c31.9-32 62.9-65 91.9-101.1 24-30 50-59 76-87l49.9-54c19-22.1 36-45.1 53-68.1 14-18 26-37 37-56l2-5M348.4.2l1 1 6 5 36 33a965 965 0 0 1 163.9 182.1c12 18 25 34 39 50 23 25 42 52 60 80l38 62.1c4 6 5 5 0 13-13 24-28 47-45 68-18 24-37 48.1-57 71.1l-51 55c-26 28-52 57-76 88.1-30 37-62 71-95.9 105l-14 12-3 2c-2 2-4 2-5 0l-4-2a1274.7 1274.7 0 0 1-119-129 1497 1497 0 0 0-74.9-86c-23-24-47-49-68-76.1l-51.9-67-26-43c-1-3-2-6 1-9l11-19 40-63.1c13-20 27-39 43-57 18-19 34-40 49-61A956.2 956.2 0 0 1 309.4 34.2l33-30 4-3 2-1"/>
    <path fill="#FFF" d="M235.6 145.4h1l3-2 17-9c14-8 29-13 44-18 13-4 26-5 39-4h20c12-1 23.9 0 35.9 4 20 6 39 12 57 23l2 1-2-4-54-57-48-49.1c-2-2-3-2-5 0l-19 19-89 93-2 3m219 530.4-4 1c-13 7-26 13-40 16l-37 6c-16 3-32 3-48 0l-22-4c-23-3-45-11-65-23l-2-1 1 2 20 21c28 29 54 60 81 90l8 9h3l1-2 23-25c26-30 52-59 80-88l1-2m91-99 5-5 46.9-61.1c23-32 47-63 72-93 2-2 2-2 0-4l-14-15c-27-35.1-53-71.1-76-109.1-14-22-30-43-46-63l-3-3 7 15 23 59a450.1 450.1 0 0 1 16 159l-5 38c-1 12-3 23-6 35.1-4 15-11 29-18 43l-2 4m-384.8 13h1l-2-3-7-13c-11-20-20-42-23-65l-5-37a400 400 0 0 1 16-178.1l14-37c6-16 13-31 23-45l1-2.1-5 4-32 39-17 24c-17 28-35 56-55 82-14 19.1-27 39.1-43.9 56.1v3l15 18c20 23 38 47 56 72 19 27.1 40 53.1 61 78.1l3 4m411.7-164-3-43c-3-29.1-9-58.1-19-86.1l-18-47a408.8 408.8 0 0 0-50-79.1c-14-17-32-30-53-37l-35-10c-22.9-6-45.9-7-69.9-4-22 4-43 10-64 18a126.7 126.7 0 0 0-47 37l-25.9 35c-9 13-16 27-22 43l-14 36c-10 25-17 51-20 78.1l-5 64 3 46 7 32c8 36.1 24 69.1 47 98.1 14 18 31 34 48 49 19 15 40 26 63 32l31 6.1a137 137 0 0 0 55.9-2c10-2 20-3 29-6 23-7 44-18 61-34l31-30c24-26 42-56 53.9-89.1 4-12 6-25 9-38 6-23 8-46 7-69m105-8-2 5c-11 19-23 38-37 56-17 23-34 46-53 68l-50 54c-26 28-52 57-76 87a1289 1289 0 0 1-91.9 101.2l-14 13-2 2c-3 2-4 2-7 0l-8-7-31-31c-28-28-54-59.1-79-90.1l-63.9-73-60-65.1c-21-26-41-52-60-79l-21.9-37c-2-3-2-5 0-8l15-26 34-53.1c13-21 29-40 45-57 14-16 27-33 39-50A941.8 941.8 0 0 1 311.4 52.2l32-28c5-5 4-6 9 0l46 41a878.7 878.7 0 0 1 149 169.1c9.9 13 18.9 26 29.9 37 24 27 45 56 64 86l31 50.1 4 7 1 3"/>
    <path fill="#1E2346" d="M522.4 412.5c0-15-1-30-4-45l-7-29c-8-30-20-57-39-82l-25-31a166.4 166.4 0 0 0-44-37.1c-13.9-6-26.9-11-40.9-14l-17-2c-10 1-20 3-29 7-10 4-21 7-30 13-13 9-25 19-35 31l-14 16c-21 24-35.9 51-46.9 81l-10 39.1-5 27a292.8 292.8 0 0 0 13 113l17 39.1c24.6 51 71.6 87.6 127 99 9 2 17 3 25 1l26.9-6c16-6 30-14 44-22a171 171 0 0 0 61-68c8.3-20 16.3-40 24-60 6-23 9-46 9-70m49.9 13c1 23-1 46-7 69-3 13-5 26-9 38-12 33-30 63-54 89l-31 30c-17 16-38 27-61 34l-28.9 7.1a135.3 135.3 0 0 1-56 1l-31-6c-23-6-44-17-63-32-17-15-33.9-31-47.9-49-23-29-39-62-47-98.1l-7-32-3-46 5-64.1c3-27 10-53 20-79l14-35c6-16 13-30 22-43.1l26-35c12.5-16 28.6-28.6 47-37 21-8 42-14 64-18 24-3 47-2 69.9 4l35 10c21 7 39 20 53 37a408.8 408.8 0 0 1 50 79l18 47c9.9 28 15.9 57 18.9 86.1l3 43"/>
    <path fill="#1E2346" d="m160.6 589.6-3-4c-21-25-42-51-61-78-18-25-36-49-56-72l-14.9-18v-3c17-17 30-37 44-56.1 25.9-34 50-69.4 72-106l32-39 5-4.1-1 2c-10 14-17 29-23 45l-14 37c-7 19-12 39-15 59-5 39.6-5.4 79.5-1 119.2l5 37c3 23 12 44 23 65l7 13 2 3h-1m384.7-13 2-4a220.9 220.9 0 0 0 24-78l4-38a417 417 0 0 0-15-159.1l-23-59-7-15 3 3c16 20 32 41 46 63 23 38 49 74 76 109l14 15c2 2 2 2 0 4-25 30-49 61-72 93l-47 61.1-5 5m-91 99-1 2c-28 28.1-54 58.1-79.9 88.1l-23 25-1 2h-3l-8-9c-27-30-53-61-81-90l-20-21-1-2 2 1c20 12 42 20 65 23l22 4c16 3 32 3 48 0l37-7c14-2 27-8 40-15l4-1m-219-530.3 2-3 89-93 19-19.1c2-2 3-2 5 0l48 49 54 57 2 4-2-1c-18-11-37-17-57-23-12-4-24-5-36-4h-20c-13-1-26 0-39 4-15 5-30 10-44 18l-17 9-3 2h-1"/>
    <path fill="#FFF" d="M514.4 422.5v-15c0-13-2-26-5-39l-5-18c-5-19-11-38-20-55l-22-41a143.6 143.6 0 0 0-32-37 562.3 562.3 0 0 0-36-23.1l-38.9-14c-5-2-10-1-15 0l-19 7a162.5 162.5 0 0 0-49 26c-15 10-27 23-36 38l-18 31c-7.9 16-15.9 32-20.9 50-4.7 18-9 36-13 54.1-3 23-3 45-1 68 2 20 7 39 15 57l12 25.1c6 12 13 22 22 31 16 17 34 31 54 43 16 11 34 18 53 23h16c10-2 20.9-5 30.9-10 29-14 56-32 78-56 9-9 16-19 22-31l9-19c14.4-29.5 21-62.2 19-95m8-10c-.4 33.8-6.9 67.4-19 99l-14 31a171 171 0 0 1-61 68c-14 8-28 16-44 22l-27 6c-8 2-16 1-25-1-19-3-37-11-54-21a165 165 0 0 1-72.9-78l-17-39a293 293 0 0 1-8-140.1l10-39c11-30 26-57 47-81l14-16c10-12 22-22.1 35-31.1 9-6 20-9 30-13 9-4 19-6 29-7l17 2a161.9 161.9 0 0 1 50.9 20c12 9 24 19 34 31l25 31c19 25 31 52 39 82l7 29.1c3 15 4 30 4 45"/>
    <path fill="#1E2346" d="m254.6 526.6-2-2-2 2c0 2 1 2 2 2l2-2m189.9-201.1-2 2c1 1 1 2 3 2l2-2c0-1-1-2-3-2m-84-116.1-2-2-2 2c0 1 0 2 2 2l2-2m-100 84 2-2-2-2c-2 0-3 1-2 2l2 2m18 285.2-3-3c-1 0-2 1-2 3l2 2 3-2m84-330.2c-2 0-3 1-3 3 0 1 1 2 3 2 1 0 2-1 2-3l-2-2m-4 326.2c1 0 2-1 2-3 0-1-1-2-3-2-1 0-2 1-2 3 0 1 1 2 3 2m92-75c0-2-2-3-3-3-2 0-3 1-3 3s1 3 3 3c1 0 3-1 3-3m-136-194.1c0-1-1-3-3-2-1 0-2 1-2 3l2 2c2 0 3-1 3-3m116-31c1 0 3-1 3-3 0-1-1-3-3-3s-3 1-3 3 1 3 3 3m58 156c-2 0-3 1-3 3s1 3 3 3 3-1 3-3-1-3-3-3m-219-185c0-2-2-4-3-3-2 0-4 1-4 3s2 4 4 4c2-1 3-2 3-4m-58 138c-1.9 0-2.9 2-2.9 4s2 4 4 3c2 0 3-1 3-3s-2-4-4-4m162 214.1c2.9 0 3.9-2 3.9-4s-2-4-4-4-3 2-3 4 1 4 3 4m-83-63c2 0 4-2 4-4 0-3-2-5-4-5s-4 2-4 4c0 3 1 5 4 5m69-7 18-2c20-5 36-16 49-32 16-20 26.4-43.8 30-69 2.6-32-7.8-63.9-29-88.1l-11-10c-2-1-2-2-2-4l2-7c2-18-5-31-19-41l-1-1c-4-2-5-2-8 1l-3 3c-3 2.5-6 5.2-9 8l-3-3c-4-4-10-7-16-7-4 0-5 2-4 5 1 9 0 17-1 26l-1 2c-4 2-7 6-10 10l-7 11c-4 5-9 10-15 13s-12 8-17 14c-3 3-7 6-11 7l-5 2-5 4c-4 4-4 9 0 13l6 4c5 2 9 4 13 8 5 4 10 6 17 7 10 0 19-2 27-6l7-4h3c2 1 4 2 4 5 1 8 0 15-4 22-5 11-13 18-22 25h-2l-2-1c-16-8-32-14-49-17-21-3-39 3-54 17a69.2 69.2 0 0 0-18.9 37l2 1 5-2 15-5c9-3 18-2 26 3l12 8 16 13c12 8 23 15 36 21 13 5 26 9.1 41 9.1m154.8-105a189 189 0 0 1-19 95l-9 19c-6 12-13 22-22 31-22 24-49 42-77.9 56-10 5-21 7-31 10-5 1-11 1-16-1-19-4-37-11-53-22-20-12-38-26-54-43-9-9-16-19-21.9-31l-12-25c-8-18-13-37-15-57-2.9-28-1.9-56.4 3-84.1l11-38c5-18 13-34 21-50l18-31a119.8 119.8 0 0 1 43-43.1c13-10 27-16 42-21l19-7c5-2 10-2 15 0 13 4 25.9 8 38.9 14l14 8c10.2 7 20.2 14.4 30 22 9 9 18 19 24 30l22 41c9 17 15 36 20 55l5 18.1c3 13 5 26 5 39v15"/>
    <path fill="#FFF" d="M447.5 433.5h-1l-2 3a85.2 85.2 0 0 1-37 24c-7 3-15 5-22 5-17 2-33-1-48-9l-11-7c-13-7-27-13-41-16-8-2-16-3-25-2-11 2-20 7-28 13-10 8-16 18-21.9 29l-1 3 5-2 16-8c6-2 13-2 19-1 5 2 9 3 13 6l15 11 23 17c10 6 20 12 31 16 18 5 35 6 51.9 0 13-5 24-13 34-23 14-16 23-34 29-54l1-5m-18-31v-3l-2-19v-3h3l6 5 4 4c-3-22-11-41-28-55-2 3-2 7-5 9l1-8 2-17c1-15-5-27-15-38l-2-1h-2l-2 5c-4 6-8 13-14 19l-5 4h-2v-2l-1-3c-4-2-6-6-6-10 0-3 1-4 4-3l4 2 5 3c3-2 1-3-1-4-3-3-7-5-12-7l-3-1h-2l1 2c3 9 2 18 0 26-1 2-1 4-3 5-5 2-8 6-11 10l-5 9c-5 6-10 12-18 15-6 3-11 6-15 12-2 3-5 5-9 7l-6 3-6 3c-3 2-3 6 0 8l6 3 11 7c6 5 12 7 19 7s14-2 20-5l9-4h8l8 4 16 5 13 2 6 1c-3 2-3 3-8 4-10 2-19 0-28-5v3c1 4 0 8-1 11-2 9-7 17-14 23l-13 9-2 2a76.8 76.8 0 0 0 53 12c18-3 34-9 47-21l13-12 2-6c0-11-1-21-4-32l-1-3-1 6-2 3-2-1-5-6v4l2 12-2 5c-1 2-3 2-5 0l-6-8-2-1 1 3 2 15-1 4c-1 2-4 3-6 0l-2-3-4-7v18l-2 4c-1 2-4 2-5 0l-1-3-7-12-2-2c5 1 8 5 11 8l1-8v-12l1-1c1-1 1 0 2 1l6 8 3 2c0-7 0-13-2-19 0-1-1-2 1-3 1-1 2 1 3 2l9 9m-70 125.1c-15 0-28-4-41-9-13-6-24-13-36-21l-16-13-12-8c-8-5-17-6-26-3l-15 5-4.9 2-2-1v-2c4-14 9-26 19-35 15-14 33-20 54-17 17 3 33 9 49 17l2 1h2c9-7 17-14 22-25 4-7 5-14 4-22 0-3-2-4-4-5h-3l-7 4c-9 4-18 6-27 6-7-1-12-3-17-7-4-4-8-6-13-8l-6-4c-4-4-4-9.1 0-13.1l5-4 5-2c4-1 8-4 11-7 5-6 11-11 17-14s11-8 15-13l7-11c3-4 6-8 10-10l1-2c1-9 2-17 1-26-1-3 0-5 4-5 6 0 12 3 16 7l2.9 3h3c2.9-3.8 5.9-7.5 9-11 3-3 4-3 8-1l1 1c14 10 21 23 19 41l-2 7c0 2 0 3 2 4l11 10c10 9 16 21 21 33a119.4 119.4 0 0 1 0 86c-5 14-12 27-22 38a89.7 89.7 0 0 1-67 34.1m-69 7c-3 0-4-2-4-5 0-2 2-4 4-4s4 2 4 5c0 2-2 4-4 4m83 63c-2 0-4-2-3-4 0-2 1-4 3-4s4 2 4 4-1 4-4 4m-162-214c2 0 4 2 4 4s-1 3-3 3c-1.9 1-3.9-1-3.9-3s1-4 3-4m58-138.2c0 2-1 3-3 4-2 0-4-2-4-4s2-3 4-3c1-1 3 1 3 3m218.8 185.1c2 0 3 1 3 3s-1 3-3 3-3-1-3-3 1-3 3-3m-58-156c-2 0-3-1-3-3s1-3 3-3 3 2 3 3c0 2-2 3-3 3m-115.9 31c0 2-1 3-3 3l-2-2c0-2 1-3 2-3 2-1 3 1 3 2m136 194c0 2-2 3-3 3-2 0-3-1-3-3s1-3 3-3c1 0 3 1 3 3m-92 75.1c-2 0-3-1-3-2 0-2 1-3 2-3 2 0 3 1 3 2 0 2-1 3-2 3m4-326.2 2 2c0 2-1 3-2 3-2 0-3-1-3-2 0-2 1-3 3-3m-84 330.2-3 2-2-2c0-2 1-3 2-3l3 3m-18-285.1-2-2c-1-1 0-2 2-2l2 2-2 2m100-84.1-2 2c-2 0-2-1-2-2l2-2 2 2m84 116c2 0 3 1 3 2l-2 2c-2 0-2-1-3-2 0-1 1-2 3-2m-191 201.2-2 2c-1 0-2 0-2-2l2-2 2 2"/>
    <path fill="#1E2346" d="m352.5 352.5 4-1c3-1 4-2 5-4v-5l-5-1-3 2-3 3c-1 1-3 2-3 4l5 2m53-41c0-6-4-11-8-15-2-2-4-1-4 1-1 1-2 4-1 6l4 19 1 2 3-1c3-3 5-7 5-12m24 91-9-9c-1-1-2-3-3-2l-1 3c2 6 2 12 2 19l-2-2-7-8-2-1-1 1v12l-1 9c-3-4-6-8-11-9l2 2 7 12 1 3c1 2 4 2 5 0l2-4v-18l4 7 2 3c2 3 5 2 6 0l1-4-2-15-1-3 2 1 6 8c2 2 4 2 5 0l2-5-2-12v-4l5 6 3 1 1-3 1-6 1 3c3 11 4 21 4 32l-2 6-13 12a86.2 86.2 0 0 1-47 20 76 76 0 0 1-53-11l2-2 13-9c7-6 12-13 14-23 1-3 2-7 1-11v-3c9 5 18 7 28 5 5-1 5-2 8-4l-6-1-13-2-16-5-8-4h-8l-9 5c-6 2-13 4-20 4s-13-2-19-7c-3-3-7-5-11-6l-6-4c-3-2-3-6 0-8l6-3 6-3c4-2 7-4 9-7 4-6 9-9 15-12 8-3 13-9 18-15l5-9c3-4 6-8 11-10 2-1 2-3 3-5 2-8 3-17 0-26l-1-2h3l2 1 13 7c1 1 3 2 0 5l-5-4-4-2c-3-1-4 0-4 3 0 4 2 8 6 10l1 3v2h2l5-4c6-6 10-12 14-19l2-4c1-2 1-2 2-1l2 1c10 11 16 23 15 38l-2 17-1 8c3-2 3-6 5-9 17 14 25 33 28 55l-4-4-6-5h-3v3l2 19v3"/>
    <path fill="#1E2346" d="M255.6 447.5v1h6c11 0 20 3 28 9l12 10 12 9 11 5h9c2-1 2-2 1-3l-5-5c-13.2-8.5-26.6-17-40-25-7-3-15-5-23-4-4 1-8 1-11 3m191.9-14-1 5c-6 20-15 38-29 54-10 10-21 18-34 23-17 6-34 5-52 0-11-4-21-10-31-16l-23-17-15-11c-4-3-8-4-13-6-6-1-13-1-19 1l-16 8-4.9 2 1-3c6-11 12-21 22-29a56.8 56.8 0 0 1 53-11c14 3 28 9 41 16l11 7c15 8 31 11 47.9 9a84.7 84.7 0 0 0 59-30l2-2h1"/>
    <path fill="#FFF" d="M405.5 311.5c0 5-2 9-5 12l-3 1-2-2c0-7-2-13-3-19-1-2 0-5 1-6 0-2 2-3 4-1 4 4 8 9 8 15m-53 41-5-2c0-2 2-3 3-4l3-3 3-2 5 1v5c-1 2-2 3-5 4l-4 1m-97 95c3-2 7-2 11-3 8-1 16 1 24 4l14 8c10.1 7.3 20.1 14.6 30 22 1 1 1 2-1 3h-9l-11-5-12-9-12-10c-8-6-17-9-28-9h-6v-1m-12.5-112c0 .4-.3 6.8-.2 13.3-6.8.5-5.7-13.3-5.3-15 .2-1.4-4.4 1.7-6.6 3.8.7 1.3 1.7 1 2.9.5-.4 6.2 3.9 11.8 9 11.7.2 6.4.9 12.5 2.7 13 .2.1.4-6.5.6-13.7 12.2-3.8 7.6-18.3 7.6-18.3-.2-.8-2 .3-6 3.9 1.6 1.7 2.4.7 3.6.3 1 1.9 1.4 10.5-5.1 13l.3-18-.4-.2c-1.8.2-5 3.4-7.5 6 1.3 2.3 3 .3 4.4-.3m5.9 19 2.8 2.9 2.8-2.8-2.8-2.8-2.8 2.8Z"/>
  </g>
</symbol></svg>
