<svg xmlns='http://www.w3.org/2000/svg' viewBox='0 0 696 830' fill='none'><symbol id='CANC_EC_Fill'>
  <g fill="none">
    <path fill="#1E2346" d="m578.3 417.8-1-28c-.5-24-3.9-48-10-71.1l-12-36-13-34.1-9-20-1-2v-1l2 2 18 22 24 36 34 51 24.1 34.1 24 31c3.6 5 7.6 9.8 12 14v2l-11 12.1c-16 20-32 39-47 60l-31 42.1-28 37-4.1 4h-1l2-3a229.3 229.3 0 0 0 21-64l4-33c.8-9.8 1.5-19.4 2-29l1-26.1"/>
    <path fill="#1E2346" d="m348 806.3 2-1 3-2 10.1-9c25.8-25 50.6-51 74-78.2l34.1-41 20-25 40-44 19.1-19.1c22-24.7 43.8-49.8 65-75.1l30.1-40c11-16 22-33 31-50.1 2-4 2-4 0-8a750.4 750.4 0 0 0-44-71.1c-15-23-31-45-50-65a453.2 453.2 0 0 1-55.1-72.2l-22-29a656.3 656.3 0 0 0-61.1-69l-37-36.1-19-17-22-19-14.1-12-2-3.1h-4l-8 7-28 25a711.8 711.8 0 0 0-105.2 106.2l-28 35-32 45-20 25.1-19 21a486.2 486.2 0 0 0-55.1 77.1l-23 37-9 15c-2 3-2 5 0 7l1 2 4 8.1c8 14 17 29 27 42a3332 3332 0 0 0 67 83.1l33 37L187 632l20 22 33 40.1 27.1 32a860.7 860.7 0 0 0 66 69.1l10 9 5 2m0-806 3 3a842.7 842.7 0 0 1 37.1 33.2 917.5 917.5 0 0 1 172.2 192.3c9 14 20 27 31 39 22.7 25 43.1 51.7 61.1 80.1l38 61 4 9c2 1 1 3 1 5l-2 3-15 26.1-21 30c-21.3 27.7-43 55-65 82.2l-31 34-24.1 25-32 36-22 26.1-33.1 39c-24 28.4-49 55.8-75 82.2l-14.1 14-8 7-4 2h-3l-3-2-15-13a6331.9 6331.9 0 0 1-75.1-80.1l-30-36-24-29.1-13-15-36.1-40-34-36.1A765 765 0 0 1 59.9 511c-17.5-24-34.6-48.4-51-73l-7-12.1-1-2v-7l10-16a1961 1961 0 0 1 69-105.2l28-32 25-32 29-39c23-30.2 47.4-59.4 73.2-87.2l35-36 40-35 29-27.1 7-6 2-1"/>
    <path fill="#FFF" d="m453.2 138.4-3-4-21-22-17-17-23-26-19-20-21.1-20h-3l-2 2-42 43-15 16-23.1 24-23 25-3 3-1 1h1l2-1 31-16a389.7 389.7 0 0 1 54-15c9-.8 18-.8 27 0h17.1c8 0 15 1 22 3l22 7c14 4 27 10 39.1 17h1M238 673.1l1 2 16 17 18 19 24 27 18 19a680 680 0 0 0 34 36.1l11.1-13 14-15 11-12 18-21 24-26 24.1-26.1 2-2v-1l-3 1c-14 8-30 14-47 17l-27 4c-16 2.8-32.1 3.2-48.1 1l-22-3-24-5c-14.1-4-28.1-10-41.1-18l-3-1m340.3-255.3-1 26v11l-2 18-4 33a173.4 173.4 0 0 1-21 64.2l-2 3h1l4-4 28-37 31-42.1c15-21 31.1-40 47.1-60.1l11-12v-2l-1-2-11-12-24-31-24-34.1-34-51-24-36.1-18.1-22-2-2v1l1 2 9 20 13 34c13 34.4 20.3 70.5 22 107.1l1 28M158 587l-1-2-17-33c-5-13-9-26-11-39.1l-5-35-2-17-1-25.1v-40l2-30 4-26.1c3-18 8-35 14-51l14-36.1a512 512 0 0 1 20-39v-1h-1l-7 9-21 25-25 35a943.7 943.7 0 0 1-70.1 103.1l-21 26-5 4v3l6 6 17 21.1 43 56 27 36.1 31 40 8 10h1m-31-156.1c-.6 37.1 5.6 74 18 109.1A247.1 247.1 0 0 0 201 627l19 18 13 12a155 155 0 0 0 67.1 32.1l24 5 5 1 14 1 26.1-1h2l29-6 22-7c20-7 37.1-18 53.1-33 12-11.8 23.6-23.8 35-36 24-28.7 41.3-62.2 51.1-98.2l9-46c2-17 2.4-34.1 1-51.1l-2-30-4-34.1c-3-20-9-40-16-60l-17-45.1-14-29a490.5 490.5 0 0 0-49-63.1 105 105 0 0 0-37.1-21 278 278 0 0 0-65-17l-17.1-1-18 1-7 1-24 5-32.1 10c-8 2-15 5-22 9-13 8-24 18-33 30a506.1 506.1 0 0 0-47.1 74l-10 25.1-14 39c-8.3 26.7-13 54.3-14 82.2l-1 11-1 26m221 375.5-5-2-10-9-28-29.1-4-4c-12-11-23-23-34.1-36l-27-32-33-40.1-20-22-36.1-39.1a4265 4265 0 0 1-71.1-82.1l-29-38c-10-13-19-28-27-42.1l-4-8-1-1c-2-3-2-5 0-8l9-15c18.2-29 36.9-57.7 56-86.1l22-27 19-22.1 20-25 32.1-45 28-35.1A633.5 633.5 0 0 1 278 81.4c19-19.1 39-37.3 60-54l8-7.1h4l3 3 13.1 12 22 19 19 17c36 31.9 69 67 98.2 105.2l22 29 22 31 33 41.1c19 20 35 42 50 65 15.2 23.5 30 47.2 44.1 71.2 2 4 2 4 0 8a450.4 450.4 0 0 1-61 90.1 1713 1713 0 0 1-65.1 75l-18 19.1-41 44-20 25-34.1 41.1a909.6 909.6 0 0 1-74.1 78.1l-10 9-3 2-2 1"/>
    <path fill="#1E2346" d="M522.3 412.8v-12c0-10-1-19-3-29-5.2-22-11.2-43.7-18-65.2a293.4 293.4 0 0 0-41-67l-13.1-15a138 138 0 0 0-30-27c-6-5-13-9-20-12.1l-13-5a127.4 127.4 0 0 0-39.1-8c-8 1-16 2-24 5l-24 9-18 10a242.3 242.3 0 0 0-45.1 46 236.7 236.7 0 0 0-52 104.2 651 651 0 0 0-8.1 50 299.5 299.5 0 0 0 16 111.2 608 608 0 0 0 31 60l13 15c8 9 16 17.1 25 23.1l27.1 16c14 8 30 14 46 17l11 2c8 0 15.1 0 23.1-2 11-3 22-6 32-11 12-5 22-11 33-18 10-6 19.1-13 27.1-22l13-16c7-9 14-18 18-28l14-29.1c8.8-19 14.5-39.3 17-60 1.8-14 2.5-28.1 2-42.1m-396.4 18 2-26 1-12c1.9-27.5 6.6-54.7 14-81.1l14-39 10-25.1c13.6-26 29.3-50.8 47.1-74.1a124.6 124.6 0 0 1 55.1-39l32-10c10.2-2.9 20.6-4.9 31-6l18-1 17.1 1a277.2 277.2 0 0 1 84.1 24l18 14 16 17c18 23.5 33.7 48.6 47 75l17.1 45.1a303.6 303.6 0 0 1 20 94.1l2 30c1.1 17.1.8 34.2-1 51.1l-9 46.1-15 42a260.2 260.2 0 0 1-71 92.2 162.3 162.3 0 0 1-75.2 40l-29 6h-2l-26 1-14-1-5-1-24-5a154.7 154.7 0 0 1-80.2-44l-19-19a231.7 231.7 0 0 1-56-86.2l-8-28c-3.7-17.3-7-34.6-10-52l-1-29.1"/>
    <path fill="#1E2346" d="M157.9 587h-1l-8-10-31-40-27-36.1-43.1-56-17-21.1-6-6v-3l5-4 21-26c34.3-44.3 66-90.4 95-138.2l21-25 7.1-9h1v1l-4 5a143 143 0 0 0-16 34l-14 36a276.3 276.3 0 0 0-18 77.1l-2 30c-1.4 21.8-1 43.5 1 65.1l2 17 5 35.1c2 13 6 26 11 39l17 33 1 2m80 86.2 3 1a165 165 0 0 0 65.1 23l22 3c16 2.4 32.3 2 48.1-1l27-4c17-3 33-9 47.1-17l3-1v1l-2 2-24 26-24 26-18 21-11 12.1-14.1 15-11 13h-2c-12-11-22-23-32-36l-18-19-24-27-18.1-19-16-17.1-1-2m215.2-534.7h-1c-12-7-25-13-39-17l-22-7c-7-2-14-3-22-3H325c-7 0-13 1-20 3a392 392 0 0 0-68.1 29l1-1 3-3 23-25 23-24 15-16 42-43 2-2h3l21.1 20 19 20 23 26 17 17 21.1 22 3 4"/>
    <path fill="#FFF" d="m263 595-4-8-10-8c-2-2-5-2-8-3v1l1 1 13 12 7 5h1m41-391.5h1c6-1 11-4 16-8l4-7v-1l-1-1h-1l-6 2-19 8-4 2v2c3 2 6 3 10 3m198.3 195.3v5c1 5 4 9 11 9l1-1v-8l-2-19c-1-4-1-4-4-2l-3 2c-2 1-3 3-3 6v8m-320.4 23c0 16 1 31 3 46 2 14 6 27 11 39a462.3 462.3 0 0 0 24 47.1l16 18 4 2h8c6 1 11 4 14 9l3.1 8v6.1l1 1 2 2a371 371 0 0 0 50 27l23 7h14c16.5-3.8 32.3-9.8 47.1-18l33-21c11-9 21.1-18 31.1-29 8-8 15-18 20-29l11-22.1c8-19 14-39 16-60l1-33.1v-4l-4-1c-5-2-8-5-10-10l-3-13v-5l3-5c3-2 5-4 9-5 2-1 2-1 1-3l-1-5-9-35.1-7-19c-4-12-9-23-15-33l-12-22.1-4-6a137.7 137.7 0 0 0-32-38c-11.6-7.6-23.3-14.9-35-22-13-6-26-10.1-40.1-15.1-4-2-9-2-14 0l-12 4-1 2-5 14c-2 4-6 7-11 7-8 1-15 0-21-6h-1l-4 2-19.1 13-14 13-3 3-17 25-5 9.1a395.5 395.5 0 0 0-31 67l-9 32.1c-4 13-5 26-6 39v17m340.3 7.1a282.6 282.6 0 0 1-19 86.1l-14 29c-4 10-11 19-18 28l-13 16a144.6 144.6 0 0 1-27.1 22.1c-11 7-21 13-33 18-10 5-21 8-32 10v1c-8.1 2-15.1 2-23.1 2l-11-2c-16-3-32-9-46-17L260 606c-10-6-18-14-26-23a379 379 0 0 1-26-37l-18-38.1c-9.4-22.3-14.8-46-16.1-70-1.4-22.1-.4-44.3 3-66.2a642 642 0 0 1 11-45c9.3-31 25-59.6 46-84.1 9.3-10.4 18.6-20.9 28-31l17.1-15 18-10.1 24-10c9.9-2.6 20-4 30-4 11.1 1 22.1 3 33.1 8l13 5 20 11c10.9 8.4 21 17.8 30 28l13.1 15a253.5 253.5 0 0 1 54 107.2l5 25c1.8 19 2.8 38 3 57.1"/>
    <path fill="#1E2346" d="M256 444.8c0 5 1 8 5 11 4 4 10 4 14 0l3-3c3-4 3-8 1-12-2-3-5-5-8-6-7-3-15 3-15 10M421.2 552l1 2c0 3 1 5 4 6l9 3c6 0 11-3 14-8 3-4 4-8 4-12 0-6-3-11-9-12l-6-1c-7 0-12 2-14 10l-3 12M234 393.8c3 0 7 0 10-2 4-1 6-4 8-7l2-9v-3c0-3-2-5-4-6-5-6-11-7-19-6l-6 2c-3 1-6 3-7 6-2 4-2 8-2 12 2 7 6 11 13 13h5m214.2-29c8 0 15-5 17-14.1 1-3 2-6 1-9l-1-7-8-28c-1-4-3-7-6-11-7-9-15-17-26-23l-8-4.1-3-1c-1 1-2 1-1 2l1 3c3 5 4 11 6 17l2 14v40c1 7.1 3 12.1 9 16.1 5 3 11 4 17 5M295 565l3 1 2-1 1-2-3-2c-6-6-11-12-15-19-5-7-7-16-8-25.1l2-9 2-5 1-9c-2-8-6-13-13-16-3-2-6-2-9-1-4 0-8 1-11 3-6 3-10 7-12 13l-4 10v12c2 6 5 11 9 16l9 10 12 12c3 4 6 6 10 7l7 2c5 2 11 3 17 3m92.1-114a40 40 0 0 1 3-16.1c2-3 5-4 8-2l4 4c3 3 4 6 5 10l1 4c1 5 4 9 8 12l3 2c2 2 3 5 2 9l-2 4c-2 5 0 9 6 9l6 1 8-1 4-5 4-5 3.1-6c2-5 0-7-3-9l-5-2-3-2-8-8c-3-3-5-7-5-12l-1-5c-2-8-5-16-11-22l-6-6-5-7-2-6c-1-5-2-10-1-15l1-6 3-16-1-15.1c-2-6-4-11-8-16l-7-8c-6-8-10-16-9-25v-1l2-13 2-5 3-12.1v-7l3-12 2-3c1-3 0-6-3-7h-2l-6-2c-3-2-6-1-8 1l-2 2-5 2-2.1 1c-5 2-7 8-4 11l3 3 4 4c2 3 2 7 0 10l-2 4c-2 1-4 2-7 1-2 0-4-1-5-3l-3-4-3-7-6-6c-4-4-9-6-15-4l-2-1-2-2c-3-4-9-5-12-3-2 2-4 2-6 0h-1c-4-3-10-2-13 2-4 4-5 11-1 16l2 3v4c-2 5 0 9 5 11l3 2 1 1v4c0 4 2 6 4 9a25 25 0 0 0 15 8l3 1c5 1 7 6 4 11l-2 3-7 3h-11c-7-1-13-3-19-8l-3-1c-2-2-4-2-6 0l-4 2c-2.1 2-3.1 5-2.1 8v5c-2 3-1 5 0 8l5 6c2 3 6 4 9 2l6-4c3-2 6-3 10-2l5 2 14 1c5-1 10-4 14-7l8-6c2-1 4 0 4 2l1 2-1 5-2 8c-1 6 0 13.1 3 19.1l3 3 3 6 2 5c1.1 3 0 5-2 7-1 2-3 4-6 4l-5 1c-8 0-13 3-17 10l-3 5c-2 5-6 7-10 9l-5 2-7 3-5 2c-2 1-3 2-3 4-2 5-2 9 1 13.1l3 6c0 2 1 3 3 4l6 3 4 1c3 0 4-1 5-4l1-4c1-5 3-9 6-13l10-11 5-4 7-2c3 0 5 1 6 3 2 3 3 5 3 8l-1 9-1 9 1 15 7.1 27c2 5 5 10 6 16 3 9 5 19.1 6 29.1 0 7-2 14-6 20-3 6-8 12-13 18-8 8-18 14-29 19l-3 1-3 2c-2 2-1 4 1 5l1 1h7l17-3 20-7c9-5 16-11 22-18a68.4 68.4 0 0 0 17-37c2-12 1-24-4-36l-3-8-6-18-1-12M182 422.7v-18c1-13 2-26 6-38 6.2-20.1 12.5-40.1 19-60.2 6-14 13-27 21-40l5-9 17-25 3-3 14.1-13 19-13 4-2h1c6 6 13 7 21 7 5-1 9-4 11-8l5-14.1 1-2 12-4h14c14.1 5 27.1 9 40.1 15l13 7a2258 2258 0 0 1 31 23c9 9 17.1 19 23.1 30l4 6 12 22.1c9.1 16.5 16.5 34 22 52l9 35.1 1 5c1 2 1 2-1 3-4 1-6 3-9 6l-3 4v5l3 13c2 5 5 8 10 10l4 1v4c2.5 32.1-3.8 64.3-18 93.2l-10 22c-5 11-12 21-20 29A232.5 232.5 0 0 1 355.1 634h-14l-23-6-25-12-25.1-16-1-1-2-2v-6l-3-8c-3-5-8-8-14-9h-8c-1 0-3 0-4-2a140 140 0 0 1-23-29l-17-36.1c-5-12-9-25-11-39l-3-45.1"/>
    <path fill="#1E2346" d="M502.3 403.8c1 5 4 9 11 9l1-1v-8l-2-19c-1-4-1-4-4-2l-3 2c-2 1-3 3-3 6v13ZM304 203.5c-4 0-7-1-10-3v-2l4-1 19-9 6-2h1l1 1v1l-4 7c-5 4-10 7-16 8h-1M263 595h-1l-7-5-13-12-1-1v-1c3 1 6 1 8 3l10 8 4 8"/>
    <path fill="#FFF" d="M326 584h2c11-2 22-7 32.1-14 9-7 16-15 23-24l6-13c4-13 5-27.1 2-40.1l-5-21-5-15c-2-6-2-12-2-18 0-5.1 2-10.1 6-14.1l6-3 10 1c3 1 6 3 7 6l4 9 2 9c1 4 3 7 6 10l3 2c4 4 6 9 4 15l-2 4-1 3 1 2 8 1c2 0 5 0 6-3l5-7v-1c2-2 1-5-1-7h-2c-10-6-17-14-20-26v-2c-2-7-5-13-10-19l-4-4a57 57 0 0 1-12-20c-2-6-2-13-1-20l1-11c.1-20.2-7-39.7-20-55.1-3-5-5-10-5-16 0-4 2-9 4-14l3-6c1-3.1 3-7.1 3-11.1l1-8c0-5 1-10 5-14l1-3c1-1 0-2-1-2l-8-3c-1-1-3 0-4 1l-3 2-4 3h-3c-3 1-4 3-2 6l2 1 3 3c5 3 7 7 7 13-1 4-2 7-5 10l-10 5c-6 1-10-1-14-5-2-3-3-5-3-8l-2-6-4-6c-3-3-6-4-11-3-1 1-3 1-4-1l-2-1-2 1-1 1h-6l-2-3-1-1-5-2c-2-1-4-2-6-1-4 0-6 2-6 6v3l2 6 2 3 2 2c3 1 5 3 4 6 0 2 0 4 2 5v1l1 7c0 4 2 6 4 8l8 2h5c3 0 7 2 9 5 5 7 5 17-4 23-6 4-13 5-20 4-6-1-11-3-16-6l-4-3-2-2h-6l-1 1c-2 1-3 3-2 5v6c-1 2 0 3 1 4l3 3c3 3 3 4 7 0 4-3 8-4 12-3l6 1 5 1c7 1 13 1 18-4l4-3 6-3 5-2c4-2 8-1 11 2l3 6v14l-1 5 3 10.1 4 8c3 5 3 11 2 17-1 4-3 7-7 9l-5 2-10 1c-4 1-7 2-10 6l-3 4-10 11c-3 2-5 4-9 5l-7 2-4 1-1 1c-2 2-3 6-1 8.1l4 8 1 1c2 2 5 3 7 3 1 1 2 1 3-1l1-5 4-10 13-15 7-6 9-3c4-1 8 1 12 3 3 3 6 6 7 10v13l-1 23 1 5 5 19 5 15a74 74 0 0 1-6 61.1c-7 10-16 18-26 25l-16 9m61-133 1 12 6 18 3 8c5 12 6 24 4 36l-4 15c-3 8-7 15-13 21a75.2 75.2 0 0 1-42 26l-17 3h-7l-1-1c-2-1-3-3-1-5l3-2 3-1c11-5 21-11 29-19 5-6 10-12 13-18 4-6 6-13 6-20-1-10-3-20-6-29-1-6-4-11-6-16l-7-27-1-15 1-9.1 1-9c0-3-1-5-3-8-1-2-3-3-6-3s-5 0-7 2l-5 4-10 11c-3 4-5 8-6 13l-1 4c-1 2-2 4-5 3h-4l-6-3c-2-1-3-2-3-4l-3-6c-3-4-3-8-2-13l4-4 5-3 7-2 5-2c4-2 8-4 10-9l3-5c4-7 9-10 17-10l5-1c3 0 5-2 6-4 2-2 3-4 2-7l-2-5-3-6-3-3c-3-6.1-4-13.1-3-19.1a273 273 0 0 1 3-13l-1-3c0-1-2-2-4-1l-3 2-5 4c-4 3-9 6-14 6h-14l-5-2c-4-1-7 0-10 2l-6 4c-3 1-7 1-9-2l-5.1-6c-1-3-2-5 0-8v-5c-1-3 0-6 2-8l4-3c2-1 4-1 6 1l3 1c6 5 12 7 19 8h11l7-4c1 0 2-1 2-3 3-4 1-9-4-10l-3-1c-4-1-8-2-11-5l-4-3c-2-3-4-6-4-9v-4l-1-1-3-2c-5-2-7-7.1-5-11.1v-4l-2-3c-4-5-3-12 1-16 3-4 9-5 13-2h1c2 2 4 2 6 0 3-2 9-1 12 3l2 2 2 1c6-2 11 0 15 3l6 7 3 7 3 4c1 2 3 3 5.1 3 3 1 5 0 7-2l2-3c2-3 2-7 0-10l-4-4-3-3c-3-3-1-9 4-11l2-1 5-2 2-2c2-2 5-3 8-1l6 2h2c3 1 4 4 3 7l-2 3-3 12v6l-3 13-2 5-2 13c-1 10 3 18 9 25l7 9c7 8.8 10.2 20 9 31.1l-3 16-1 6c-1 5 0 10 1 15l2 6 5 7 6 6c6 6 9 13 11 22.1l1 5c0 5 2 9 5 12l8 8 3 2 5 2c3.1 1 5.1 4 3.1 9l-3 6-4 5-4 5-8 1-6-1c-6-1-8-4-6-9l2-4c1-4 0-7-2-9l-3-2c-4-3-7-7-8-12l-1-4c-1-4-2-8-5-11l-4-3c-3-2-6-1-8 2l-1 4c-2 4-2 8-2 12m-116.2 47h1v-7l-1-3c-2-7-10-10-15-8s-9 4-12 7l-3 4c-3 6-4 12-2 19l2 11.1 3 6c3 6 6 11 11 15l11 7 8 4 4 3c5 3 10 5 16 6v-1l-2-2-12-15c-4-8-6-16-7-24l-1-12-1-10m24 67c-6 0-12-1-17-3l-7-2c-4-1-7-4-10-7l-12-12-9-10c-4-5-7-10-9-16v-12l4-10c2-6 6-10 12-13 3-2 7-3 11-3 3-1 6-1 9 1 7 3 11 8 13 16l-1 9-2 5-2 9c1 9 3 18 8 25 4 7 9 13 15 19l3 2-1 2-2 1-3-1m131.2-222.2v4c1 3 2 6 5 8 3 4 8 5 13 4 6-1 11-4 14-9 3-3 4-7 4-11l-2-10c-1-6-4-12-8-17l-8-14-2-4c-3-5-7-10-12-13l-10-7-1-1v2l3 9 6 28c2 6 1 12 0 19l-2 12m22 22c-6-1-12-2-17-5-6-4-8-9-9-16v-40l-2-14c-2-6-3-12-6-17l-1-3.1c-1-1 0-2 1-2l3 1 8 4c11 6 19 14 26 23 3 4 5 7 6 11l8 28 1 7c1 3 0 6.1-1 9.1-2 8-9 14-17 14m-214.2-1-9 2c-3 1-4 3-4 6l1 7 8 8c1 2 4 3 6 3 6 2 12-1 14-7v-8l-6-7c-2-3-6-4-10-4m0 30h-5c-7-2-11-6-13-13 0-4 0-8 2-12 1-3 4-5 7-6l6-2c8-1 14 0 19 6a12 12 0 0 1 4 9l-2 9c-2 3-4 6-8 7-3 2-7 2-10 2M435.2 560c4 0 7-1 10-3l3-4v-4l-5-13-1-2c-3-3-8-3-11 0-4 3-6 7-5 12 0 4 1 7 3 10l5 4h1m-14-8 3-12c2-8 7-10 14-10l6 1c6 1 9 6 9 12 0 4-1 8-4 12-3 5-8 8-14 8l-9-3c-3-1-4-3-4-6l-1-2M274 447.7l-3-9c-2-3-6-3-9 0-2 1-4 3-4 6 0 5 4 9 8 11 3 1 6 0 7-3l1-5m-18-3c0-7 8-13 15-10 3 1 6 3 8 6 2 4 2 8-1 12l-3 3c-4 4-10 4-14 0-4-3-5-6-5-11"/>
    <path fill="#1E2346" d="m437.2 474.9-2-1h-1l-6 3-1 3 5 1 5-5v-1M282 319.7l1-5-2-2-4 2c-2 3-1 7 2 9 1 1 3 1 3-1v-3m17 107c0 4.1 1 7.1 4 9.1l4 2h1l1-1-1-1-4-5c-.9-2.4-1.9-4.7-3-7l-2 1v2m71.1-183.2h1c3-1 5-3 7-6l-1-2h-2l-6 2-3 2 1 3 3 1m-44 340.4 16-9c10-7 19-15 26-25 4-8 7-16 9-25 2-12.1 1-24.1-3-36.1l-5-15c-3-7.8-5-15.9-6-24l1-23.1v-13c-1-4-4-7-7-10-4-2-8-4-12-3l-9 3-7 6-13 15-4 10-1 5c-1 2-2 2-3 2l-7-4-1-1-4-8c-2-2-1-6 1-8l1-1 4-1 7-2c4-1 6-3 9-5l10-11 3-4c3-4 6-5 10-6a35 35 0 0 0 15-3c4-2 6-5 7-9 1-6 1-12-2-17l-4-8.1-3-10 1-5v-14l-3-5c-3-4-7-5-11-3l-5 2-6 3-4 3c-5 5-11 5-18 4l-5-1-6-1c-4-1-8 0-12 3-4 4-4 3-7 0l-3-3c-1-1-2-2-1-4v-6c-1-2 0-4 2-5l1-1c2-1 4-2 6 0l2 2 4 3c5 3 10 5 16 6 7 1 14 0 20-4 9-6 9-16 4-23-2-3-6-5-9-5h-5l-8-2c-2-2-4-4-4-8l-1-8c-2-1.1-2-3.1-2-5.1 1-3-1-5-4-6l-2-2-2-3-2-6v-3c0-4 2-6 6-6 2-1 4 0 6 1l5 2 1 1 2 3h6l1-1 2-1 2 1c1 1 3 2 4 1 5-1 8 0 11 3l4 6 2 6c0 3 1 5 3 8 4 4 8 6 14 5l10-5c3-3 4-6 4-10 1-6-1-10-6-13a62.6 62.6 0 0 1-5-4c-2-3-1-5 2-6h3l4-3 3-2c1-1 3-2 4-1l8 3c1 0 2 1 1 2l-1 3c-4 4-5 9-5 14l-1 8c0 4-2 8-3 11l-3 6c-2 5-4 10-4 14a26 26 0 0 0 7 19c5 6 9 14 12 21s5 13.1 5 20.1l1 11-1 11a56 56 0 0 0 3 25 56 56 0 0 0 14 19c5 6 8 12.1 10 19.1v2c3 12 10 20 20 26h2c2 2 3 5 1 7v1l-5 7c-1 3-4 3-6 3l-8-1-1-2 1-3 2-4c2-6 0-11-4-15l-3-2c-3-3-5-6-6-10l-2-9-4-9c-1-3-4-5-7-6l-10-1-6 3c-4 4-6 9-6 14 0 6 0 12 2 18 3 12.1 6.3 24.2 10 36 3 13 2 27.1-2 40.1l-6 13c-7 9-14 17-23 24-10 7-21 12-32 14h-2M272 491l-1-3c-2-7-10-10-15-8s-9 4-12 7l-3 4c-3 6-4 12-2 19l2 11 3 6c3 6 6 11 11 15l11 7 8 4 4 3c5 3 10 5 16 6v-1l-2-2-12-15c-4-8-6-16-7-24l-1-12v-17Zm154.2-148.2 2-12c1-7 2-13 0-19l-6-28-3-9v-2l1 1 10 7c5 3 9 8 12 13l2 4 8 14c5.5 8 9 17.3 10 27 0 4-1 8-4 11-3 5-8 8-14 9-5 1-10 0-13-4-3-2-4-5-5-8v-4m-192.2 21c4 0 8 1 10 4l6 7v8c-2 6-8 9-14 7-2 0-5-1-6-3l-8-8-1-7c0-3 1-5 4-6l9-2M435.2 560h-1l-5-4c-2-3-3-6-3-10-1-5 1-9 5-12 3-3 8-3 11 0l1 2 5 13v4l-3 4c-3 2-6 3-10 3M274 447.8l-1 5c-1 3-4 4-7 3-4-2-8-6-8-11 0-3 2-5 4-6 3-3 7-3 9 0l3 9"/>
    <path fill="#FFF" d="m370.1 243.6-3-1-1-3 3-2 6-2h2l1 2c-2 3-4 5-7 6h-1m-71 183.2v-2l2-1 2 2 1 5 4 5 1 1-1 1h-1l-4-2c-3-2-4-5-4-9m-17-107.1v3c0 2-2 2-3 1-3-2-4-6-2-9l4-2 2 2-1 5m155 155.2v1l-5 5-5-1 1-3 6-3h1l2 1m-219.3-45.1c0 .4-.3 6.8-.2 13.3-6.8.5-5.7-13.3-5.3-15 .2-1.4-4.4 1.7-6.6 3.8.7 1.3 1.7 1 3 .5-.5 6.2 3.8 11.8 9 11.7.1 6.4.8 12.5 2.6 13 .2.1.4-6.5.6-13.7 12.3-3.8 7.7-18.3 7.7-18.3-.2-.8-2 .4-6 3.9 1.6 1.7 2.4.7 3.6.3 1 1.9 1.4 10.5-5.2 13.1l.3-18c0-.2-.2-.3-.4-.3-1.8.2-5 3.4-7.5 6.1 1.3 2.2 3 .2 4.4-.4m6 19.1 2.8 2.8 2.8-2.8-2.8-2.8-2.8 2.8Z"/>
  </g>
</symbol></svg>
