<svg xmlns='http://www.w3.org/2000/svg' viewBox='0 0 696 830' fill='none'><symbol id='CFAC_EC_Fill'>
  <g fill="none" transform="translate(.7 .3)">
    <ellipse cx="350.1" cy="406.3" fill="#FFF" rx="221.5" ry="294.7"/>
    <path fill="#1E2346" d="m348 19-2 1-3 3-31 28a806.7 806.7 0 0 0-92 90.2c-22 25-43 52-63 80l-21 29.1-26 30c-15 18-30 37-43 57.1-14 20-27 41-39 62l-9 15.1v5l3 7a407 407 0 0 0 50 72.1c27.7 36.6 57.7 71.5 90 104.1l42 46 32 40.1c29.5 36.4 61.2 70.8 95 103.2l13 11c3 3 4 3 8 0h1l10-9 19-19 38-40.1c18-20 34-41 51-62l38-43.1 45-49.1c23.3-26.1 46-52.9 68-80.1l26-35c11-14 19-29 28-44v-7.1l-5-10-35-55a564 564 0 0 0-56-75.2c-12-13-23-27-33-41A1174 1174 0 0 0 444 108a871.1 871.1 0 0 0-92-85l-3-3-1-1m0 809.9-3-1-3-2-19-17c-31-32-62-65.1-90-99.1l-27-33a15018 15018 0 0 0-84-93.2c-23-24-44-49-64-75l-19-26.1c-12-16-23-33-33-51l-4-6-2-4 1-4.1 3-7 17-28 30-46c14-23.1 31-44.1 49-64.2 16-17 29-35 42-53A1130.6 1130.6 0 0 1 294 47c15.7-14.8 31.7-29 48-43.1l5-4h2l3 3c15 15 31 28 47 42a934.2 934.2 0 0 1 156 176.3c12 18 26 35 40 51 20 22 37 45 53 69.1 14 23 29 45 42 68l5 8.1v4l-1 2a466.4 466.4 0 0 1-54 80.1c-22.4 30-46.4 58.8-72 86.1l-49 52-40 47.1A2008.8 2008.8 0 0 1 363 817l-10 9-4 3h-1"/>
    <path fill="#FFF" d="M454 138.2h-1l-4-4-35-38A1436 1436 0 0 0 346 29l-2 2-42 43-39 42.1-22 23-4 4-1 1h2l1-1c9-6 19-11 30-16l37-13c6-2 13-3 20-3h33c14-1 28 1 42 6l15 5a217.2 217.2 0 0 1 37 17l1-1M348 793h1l8-9 20-22 50-57.1 24-26 2-2h1l-1-1-3 2c-15 8-31 13-47 16l-28 5a170 170 0 0 1-39 2l-40-7c-16-3-31-8-45-15l-14-8h-1l1 1 3 3 28 29 70 80 9 9h1m323-377.4-2-1-16-20c-32.8-42-63.2-85.7-91-131.2-9-13-19-26-30-38l-1-1v2l11 22 14 37a309.5 309.5 0 0 1 19 78.1c3.7 34.3 3.7 69 0 103.2l-5 40c-2 14-6 27-11 40-3 9-7 18-12 26l-1 2v1h1l2-3 32-41 40-54 37-46 12-15.1 1-1M176 210.3l-1 1-2 2-21 26c-12 14-23 29-33 46a730.8 730.8 0 0 1-61 88.2c-10 14-20 29-33 41v2l6 7 26 31 43 58.1c18 25 37 49 56 72.1l3 3h1l-2-3-12-22c-9-19-15-38-18-60l-4-34.1a400 400 0 0 1 18-182.3l14-36c5-13 11-26 19-38l1-1v-1m-49 219.2c-.7 21.2 1.4 42.4 6 63l8 34.1c5 16 11 31 20 45a219 219 0 0 0 33 47.1l30 30a152.6 152.6 0 0 0 69 38.1c15.3 3 30.6 5.7 46 8 12.7 1 25.5.3 38-2l8-1 26-6c22-7 41-18 59-33l23-22 16-17a244 244 0 0 0 49-89.2 465.5 465.5 0 0 0 14-90 580.3 580.3 0 0 0-21-136.2l-19-49.1c-5-12-10-24-17-34-9-15-19-28-30-42-6-8.1-13-15.1-22-21.1a92 92 0 0 0-31-18l-35-10-30-6-13-1h-13l-6 1-16 2c-9 1-17 4-26 6a287 287 0 0 0-48 19c-12 7-22 17-31 28-9 10-17 22-25 33-10 15-18 30-24 46.1l-14 37a360.8 360.8 0 0 0-22 108.2l-2 32M348 19l1 1 3 3 41 36a877.7 877.7 0 0 1 154 174.3c10 14 21 28 33 41 21 24 40 48 56 75.1l35 55 5 10.1v7a443.8 443.8 0 0 1-54 79.1c-21 28-43.7 54.9-68 80.1l-45 49-38 43.1c-17 21-33 42-51 62L382 775l-19 19-10 9h-1c-4 3-5 3-8 0l-13-11-33-34c-22-22-42-45-62-69l-32-40.1-42-46c-39-42-76.1-85.8-111-131.2-10-14-20-29-29-45l-3-7v-5.1l9-15c12-21 25-42 39-62a610 610 0 0 1 43-57.2l26-30 21-29A1073.5 1073.5 0 0 1 312 51l31-28 3-3 2-1"/>
    <path fill="#1E2346" d="M522 408.5v-18l-2-16-7-31c-8.2-35-24.2-67.6-47-95.2l-10-12-9-11a166.1 166.1 0 0 0-49-40 556.5 556.5 0 0 0-40-12c-4-1-8-2-12-1-9 1-19 2-27 6a443.3 443.3 0 0 0-36 16c-9 6-17 13-25 21l-6 6-15 18a245.4 245.4 0 0 0-59 127.1l-4 29a306 306 0 0 0 15 106.2 443.3 443.3 0 0 0 23 50 191.8 191.8 0 0 0 50 55.1l16 10c17 10 35 18 54 21 8 2 16 3 24 2 12-2 25-5 37-10 15-7 28-14 42-23l22-19a260.6 260.6 0 0 0 32-44l15-32 11-34.1c5-22 7-43 7-69.1m-395 21 2-32c1.8-23.1 4.8-46.3 9-69.1l13-39 14-37.1c6-16 14-31 24-46 8-11 16-23 25-33a118.6 118.6 0 0 1 52-38.1 296 296 0 0 1 53-15l16-2 7-1h12l14 1 29 6 35 10 11 5c16.1 8.5 30.4 20 42 34 11 14 21 27 30 42 7 10 12 22 17 34.1l19 49c12.2 32.1 18.6 66 19 100.2 1.3 25 1 50-1 75-3 18-6 34.1-11 51.1a246.1 246.1 0 0 1-65 106.2l-23 22c-18 15-37 26-59 33l-26 6-8 1a127.4 127.4 0 0 1-38 2l-14-1-32-7c-15-3-29-10-42-18-10-6-19-12-27-20l-30-30a229.5 229.5 0 0 1-53-92.2c-5.6-20-10-40.4-13-61-1-12-2-24-1-36"/>
    <path fill="#1E2346" d="M176 210.3v1l-1 1c-8 12-14 25-19 39l-14 35c-8 22-14 45.1-17 69.1a515.6 515.6 0 0 0-1 113.2l4 35c3.6 29 13.9 56.8 30 81.1l2 3h-1l-3-3c-19-23-38-47-56-72l-43-58.2-26-31-6-7v-2c13-12 23-27 33-41 21.5-28.6 41.8-58 61-88.2 10-16 21-32 33-46l21-26 2-2 1-1m495 205.2-1 1-12 15-37 46-40 54.1-32 41-2 3h-1v-1l1-2c5-8 9-17 12-26 5-13 9-26 11-40l5-40a371 371 0 0 0 0-103.2 356.2 356.2 0 0 0-19-78l-14-37.1c-3.1-8.2-6.8-16.2-11-24l1 1a465 465 0 0 1 45 62 949.3 949.3 0 0 0 92 127.2l2 1M348 793h-1l-9-9-70-80.2-28-29-3-3-1-1h1l14 8c14 7 29 12 45 15 13 3 27 5 40 6 13 1.7 26.1 1.3 39-1l28-5c16-3 32-8 47-16l3-2 1 1h-1l-2 2-24 26-50 57.1-20 22-8 8-1 1m106-654.7-1 1-2-1c-11-7-23-12-35-16l-15-5c-14-5-28-7-42-6h-33c-7 0-14 1-20 3a381.8 381.8 0 0 0-67 29l-1 1h-2l1-1 4-4 22-23L302 74l42-43 2-2h3a894.3 894.3 0 0 1 65 67l35 37 4 5h1M182 423.6c-.3-19.5 1.7-39 6-58l9-32.1 7-20c1-3 2-6 5-8 6-7 13-12 20-17l7-4 3 1 2 5 1 7c2 5 4 10 9 13l3 2c5 4 8 8 9 13 .6 2.4 1.2 4.7 2 7h1l1-2c4-12 4-24-2-35-3-8-8-15-14-21l-3-4 1-1s8 1 14 8l6 6c4 5 9 8 15 9h5c3 0 6 2 8 4l4 2v-4a51 51 0 0 0-36-38l-11-3v-1.1c1 0 8-3 13-2l7 1c6 2 12 0 17-4l7-4 2-2-3-2c-5-3-10-4-16-5l-10-1a53.6 53.6 0 0 0-24 5c-1 0-2 0-1-1s15-18 25-24l18-12 13-6c9-5 17-8 27-11l11-4c5-2 10-2 15 0 13 4 26 8 38 14l19 10 16 11a79.3 79.3 0 0 1 20 20l3 3-5-1c-8-3-16-5-24-4-8.7.6-17.2 3-25 7l-1 1 6 4 3 2c5 4 10 6 17 5l8-2c4-1 8 0 12 3 0 0 1 0 0 0l-7 2-12 4c-10 4-18 12-23 22l-5 11-1 3v3c1 1 4-2 5-3l7-3h6c6-1 11-4 15-9l7-8c3-3 9-6 13-6l1 1-3 3c-5 6-10 12-13 19a48.8 48.8 0 0 0-3 40.1h2c0-1 4-16 13-21 6-4 9-9 10-16 .7-3.1 1.7-6.2 3-9 1-2 1-2 3-2l5 2 4 3 16 14c4 4 7 8 9 13l6 18 9 32c6.5 39.9 5.8 80.5-2 120.2l-1 2c-1 3-1 3-3 3h-16l-15 2c-2 0-2 0-2-2 2.2-13 2.6-26 1-39l-3-21c-1-6-1-12 1-18.1 3-9 2-18 0-27l-1-7-1-3c0-2 0-3 2-3l4 1 5-1 1-1a46 46 0 0 0-4-8c-1-1-2-1-1-5s1-8-2-10l-1-2-1-2 1-2c1-1 0-1-1-2h-3c0-1 2-3 0-5-2-2.1-7-1.1-7 3l1 2h-2c-2 1-2 1-1 3l1 1-1 1-1 1-1-1c-2-2-5-3-8-3l-20-2-9 1h-7c-18 .7-36 .7-54 0h-22l-14-1-16 1h-28l-12-1-20 2-4 2-3 2-1-1-1-1 2-2-1-2h-3l1-2c0-3-2-5.1-4-5.1-3 0-4 2-4 4v3c-3 0-4 1-2 3v2l-2 3-3 6c0 3 0 5 2 8 1 5-5 7-6 9l1 1h7c4 0 4 0 3 5l-2 13c-1 6-1 13 1 19.1 2 9 2 18 0 27a254.7 254.7 0 0 0-3 37l2 17-1 2.1-18-2h-14c-2 0-2 0-3-2l-5-23-3-43m166 79h5l31 1h6c2 1 3 1 3 3l17 27 13 19 1 2c9 8 15 18 21 28.1l1 1v2l-2 1-15 12-38 23-25 9-6 1a42.2 42.2 0 0 1-19 2l-22-7c-6-2-12-4-18-8a302.4 302.4 0 0 1-50-33c-2-1-2-2-1-3l5-8 16-20c11.9-17 23.5-34 35-51h16l25-1h1"/>
    <path fill="#1E2346" d="m323 451.5-2-3h-3l-1 1-1 2-6 14v2l2-1 9-12 2-3m63 15-6-15-2-2c-1-1-2-2-3-1-2 1-2 2-2 3l2 4 8 10 3 2v-1m-38 21h-35v2l8 1 5-1 37 1 15-1c2 0 4 1 5-1-1-2-3-1-5-1h-30m-1 6.1-34-1h-3l-1 1 1 1h5l17 1h31l19-1h4l1-1-1-1h-2l-33 1h-4m8-9 17 1 3-1v-1l-10-1c-2 0-2 0-2-2l-1-11v-29l-2-3-7-2c-3-2-7-2-10 0l-6 2c-2 0-3 1-3 3v36c-1 7 0 6-7 6h-5l-1 1 1 1 3 1 30-1m-8 14c-11 0-24 0-36-2l-11-1h-2c-1 0-2-1-1-2v-5l1-13v-8l-2-22c-1-3-2-7-1-11v-3l1-1h27l18-1 23 1 23 1 9-1h3c2 0 2 0 2 2v7l-1 7-2 20v12l1 14c0 3 0 3-2 3l-8 1c-14 2-27 2-42 2m26-93.1 1 2h2l2-2 1-2 6-14-11 13-1 3m-50-1-2-3a65.4 65.4 0 0 0-11-13h-1v1l6 12 3 4 2 2c1 1 3 0 3-3m16 14c0 3 0 3 3 4h12c3-1 3-1 3-4v-22c1-2 2-1 3-1l1-1-1-1-10-10h-4l-10 9-1 1v1l2 1c2 0 2 0 2 2v21Zm28 8a646 646 0 0 1-71-2v-1l1-12v-4l1-24c0-6 4-10 8-10h6l29-2h14c11.6 1.3 23.3 2 35 2 5 1 8 4 8 8v3c-.5 13.4.2 26.7 2 40l-1 2h-32m-88-75c-9.1.4-17.9 2.8-26 7h1l7-2c11-3 22-3 33-1l13 4 15 2c4 0 8-1 11-3l4-3v-2h-1l-6 1c-12 3-23 3-34 0l-3-1-14-2m97 10 13-2 11-3c9-2 17-3 26-2l12 3 4 1h1l-2-1a58 58 0 0 0-41-3c-6 2-12 2-18 2s-13-1-19-3h-4c0 2 1 3 3 4l4 2c3 2 7 2 10 2m47 8c-9 1-17 0-26-1-11-1-23-2-34-1l-11 2-11-1a175.5 175.5 0 0 0-41 0c-15-.3-30 0-45 1h-17v-1l1-2 2-3c1-4 2-7 0-11l1-4c2-2 4-3 7-3l6 1 25-1h15l15 2c9 2 17 1 25 0l12-1h2l19 2 16-1c9-2 18-3 28-3l12 1 16 1 6-1c4 0 6 1 8 3l1 3c-2 4-2 8 0 12l2 4 1 2h-35m5 98v12c0 2 1 2 3 3 4.6.9 9.4.9 14 0 1-1 2-1 2-3v-23c1-2 2-1 3-1l1-1-1-1-11-10h-3l-11 10v2h2l1 1v11m13 29.1-13-1-15-1h-4l-1-1 1-27-3-29v-6l1-2h10l21 1h17l5-1c3 0 3 0 3 3l-2 11c-1 12-2 24 0 36l2 13-2 2-8 1-12 1m-191-28v11c0 2 1 3 3 3h13c2 0 3-1 3-3v-21c0-2 0-2 2-3h1l1-1-2-2-8-7-2-2h-3l-1 1-9 8-1 2v1h2l1 1v12m26 26-17 1c-8 .5-16.1.1-24-1-2 0-2-1-2-2 .7-9 1.7-18 3-27l-2-22-1-10c0-4 0-4 4-4l4 1h27l12-1h6c4 0 4 0 4 4v5l-2 11-1 26 1 18-1 1h-11m132 10c9 0 19-1 28-3 8-1 17-2 26-1 12 2 25 1 37-1h2c1-1 2 0 1 1l-2 5-8 18-3 2-21-1h-30l-19 2-5 1-3-1-15-21 1-1h11m-186 21h-11c-7 0-5 1-9-5l-8-19v-1l1-1h5a88.4 88.4 0 0 0 32 2c10-1 21-1 31 1 8 2 17 2 26 2h9c2 0 2 0 1 2l-14 20-3 1-19-2-9-1c-13-1-26 0-32 1m206-121.1v12c0 2 1 2 3 3 4.6.8 9.4.8 14 0 2-1 2-1 2-3v-24h3l1-1-1-1-11-10h-3l-11 9v3h2l1 1v11m6-31c9 1 17 2 26 1 1 0 2 0 1 2l-1 10-1 9c0 5 0 11 2 16l2 12v1c0 2-1 2-2 2h-54l-1-1 1-5 1-30 1-9c3-6 6-8 12-9l13 1m-165 32v-13h3l1-1-2-2-13-9-11 12h2l1 1v23c0 2 1 3 4 3l3 1 10-1 2-2v-12m-16 20-12 1h-1c-8 1-7 1-7-7l2-8c2-6 2-12 2-18l-2-13-1-5 2-1c11 1 21 0 32-1l7-1c6 1 10 4 12 10v5l1 25 2 12c0 2-1 2-2 2h-7l-28-1m197 107.1h20l15-2h3v1l-13 23c-2 3-2 3-6 3l-8-1c-6-2-12-2-18 0l-9 2c-1 0-2 0-3-2l-2-3a210 210 0 0 0-14-22l4-1 31 2m-240-2 16 1c6 1 13 2 20 1l32-2 3 1-1 2-15 22c-1 3-2 3-3 3l-6-2-8-1c-5-1-9 0-13 1l-9 1-4-2-10-16-4-7c-1-2 0-2 2-2m222-234.2a77.6 77.6 0 0 1 22-29c4-2 6-5 8-9h2l4 7v5c-1 3-3 6-5 7l-4 3c-3 2-5 4-6 8l-3 6c-2 6-5 10-9 14-6 4-9 9-11 16v1h-1c0-4-3-12 3-29m-165 29h-1l-2-6c-1-3-3-6-6-8l-4-4-7-10-3-7c-1-5-4-9-9-11l-7-8v-5l5-8c1 0 3 5 8 8l5 4 13 16a51.5 51.5 0 0 1 8 39m-21-70h6c6 1 13 2 20 5 10 5 18 13 23 23l4 10h-1l-9-5-5-1c-5-1-10-4-13-8l-5-5c-3-3-7-5-11-6l-8-2c-5-1-8-4-11-9v-1h1s4 1 9-1m201 0h3c3 1 6 2 9 1h1v1c-2 4-5 6-8 8l-7 2-3 1c-5 1-9 3-13 7l-4 4c-4 4-8 6-12 8l-5 1c-4 1-7 3-10 6 0 0-2 0-1-1a49 49 0 0 1 33-35l17-3m-21-20.1c9 0 18 2 26 6l3 3 5 7c1 1 0 2-1 2-4 1-8 0-12-2l-4-2c-3-2-6-2-9-2l-8 1c-6 0-13 0-19-4l-7-3v-1c5-2 11-4 16-4l10-1m-152 13-9-1c-5-1-10 0-15 3l-9 3h-4l-1-2 6-8c0-1 1-2 3-2 12-6 26-8 40-4l11 3v1l-8 4c-5 2-9 3-14 3m175 332.4-13-18 7 1h16l10-2-5 6-13 13c-1 2-2 1-2 0m8-224.3 3-9v-3l-1-1 3-1 1-1-1-1v-2h3c2 1 1 2 0 3l1 2h2l1 1-1 3a17.2 17.2 0 0 1 1 18c-2 3-5 5-9 0-2-2-3-5-3-8"/>
    <path fill="#1E2346" d="M227 347.4c2-2-1-4 0-5 0 0 4 1 3-3-1-1 0-3 2-3s2 2 2 3c-1 1-1 3 1 3l2 1-1 2c-1 1 0 2 1 3 5 10 1 16-3 19h-6c-5-6-5-14-1-20m19 233.3h-1l-16-16-1-2v-1l5 1 4 1h15l4-1h4c1 1-9 13-12 18h-2m238-282.3-6-7-12-8-4-1 3-3 6-6c5 8 9.7 16.4 14 25m-252-16s-14 7-20 13l-2 2c0 1 0 1 0 0v-1l12-22 1-1h1l5 5 3 3v1m-11 89 3-4 2 3-5 1m250 0-3-1v-1l1-1h2l1 2v1h-1"/>
    <path fill="#FFF" d="M348 482.6h8c2 0 2 0 3-2v-38c0-2 0-2-2-2l-5-1-2-2-4 1-2 1-5 1c-2 0-2 0-2 2 .1 7 .4 14 1 21l-1 7v10l2 2h9m-23 3-3-1c-2 0-2-1-1-2h6c7 0 6 1 7-6v-36c0-2 1-3 3-3l6-2c3-2 7-2 10 0l6 2 3 3v29l1 11c0 2 0 2 2 2h7c5 0 6 3 0 3l-17-1-30 1m22 8h4l33-1 4 1-6 1-19 1h-31c-6.3-.9-12.7-1.9-19-3l34 1m1-6h35c2 0 3 2 0 2l-20 1h-43c-12-1-12-3-2-3h30m35-22c-3.5-4.6-6.8-9.2-10-14l1-3c2-1 3 0 4 1l2 2 6 15c1 1 0 3-3-1m-62-11-9 12 4-14 1-3 1-1h3c1 0 3 2 0 6m2-50.1c0 3-2 4-3 3l-2-2-3-4-6-12s0-3 2 0c4 4 11 10 12 15m51-2 11-13 2-1-1 2-7 13c-2 4-4 5-5 4-3-2-1-4 0-5m2-41c-3 0-7 0-10-2l-4-2c-2-1-5-3-4-4h5c6 2 13 3 19 3s12 0 18-2l6-1a59 59 0 0 1 37 5h-1l-4-1-12-3c-9-1-17 0-26 2l-11 3-13 2m-97-10 14 2 3 1c11 3 22 3 34 0l6-1c1 0 4 0 1 2l-4 2c-3 3-7 4-11 4l-15-2-13-4c-11-2-22-2-33 1l-8 2 3-2c8-3 16-4 23-5m166 115v-11l-1-3-5-6h-2l-5 6-1 2v23l1 2h11c1 0 2 0 2-2v-11m-17-10-1-1h-2v-3l11-9h3l11 10 1 1-1 1h-3v24c0 2-1 2-2 3-4.6.8-9.4.8-14 0-2-1-3-1-3-3v-23Zm-162 11v-12l-1-3-5-6c-3 1-3 5-6 6l-1 3v23l1 2h11l1-2m-16-22-1-1h-2v-1l1-2 13-9 2 2 9 10h-1c-2 1-2 1-2 3v21c0 2-1 3-3 3h-13c-2 0-3-1-3-3v-23m181-53v11l1 2c4.3-.2 8.7-.6 13-1v-23l-1-3-6-7-6 7-1 3v11m-3-10-1-1c-3 0-3-1-2-2l11-10h3l11 10c1 1 2 1 1 2h-4v24c0 2-1 2-2 3h-14c-2-1-3-1-3-3v-23m-175 10v12c0 1 0 2 2 2h10l1-2v-23l-1-2-5-7h-1l-5 7-1 2v11m16 2v12l-2 2-10 1-3-1c-3 0-4-1-4-3v-23l-1-1h-2v-1l14-11 1 1 10 11c-3 0-3 2-3 4v9Z"/>
    <path fill="#1E2346" d="M348 447.5h5c1-1 2-1 1-2l-1-1h-11l-1 1 1 1 6 1m0 35h-9l-2-2v-10l1-7v-10l-1-11c0-2 0-2 2-2l5-1 2-1h4l2 1 5 1c2 0 2 0 2 2v38c-1 2-1 2-3 2h-8Zm7-65c0 2-1 2-2 2h-10l-2-1v-23l1-3 5-6h2l5 6 1 3v22Zm90 60c0 2-1 2-2 2h-11l-1-2v-22l1-3 5-6h2l5 6 1 3v22Zm-179 1-1 2h-11l-1-2v-23c0-1 5-9 7-9s6 8 6 9v23Zm165-86 1-3 6-7 6 7 1 3v23l-2 1h-11l-1-2v-22m-178 0 1-2 5-7h1l5 7 1 2v23l-1 2h-10c-2 0-2-1-2-2v-23"/>
    <path fill="#FFF" d="m342 446.5-1-1 1-1h11l1 1c1 1-10 2-12 1m7.4 136.4c0 .4-.3 6.8-.2 13.3-6.8.5-5.7-13.3-5.3-15 .2-1.4-4.4 1.7-6.6 3.8.7 1.3 1.7 1 2.9.5-.5 6.2 3.9 11.8 9 11.7.2 6.4.9 12.5 2.7 13 .2.1.5-6.5.6-13.7 12.2-3.8 7.5-18.3 7.5-18.3-.2-.8-2 .3-6 3.9 1.6 1.7 2.4.7 3.6.3 1 1.9 1.4 10.5-5.1 13.1l.3-18c0-.2-.2-.3-.4-.3-1.8.2-5 3.4-7.5 6.1 1.4 2.1 3.2.1 4.5-.4m5.9 19 2.8 2.8 2.8-2.8-2.8-2.8-2.8 2.8Z"/>
  </g>
</symbol></svg>
