<svg xmlns='http://www.w3.org/2000/svg' viewBox='0 0 696 830' fill='none'><symbol id='CM2C_EC_Fill'>
  <g fill="none">
    <path fill="#1E2346" d="m677.7 417.3-1-3-4-6-41-67.2a567 567 0 0 0-53-68.2l-25-31-20-28.1c-31-40.6-64.4-79.5-100-116.3l-30-29-14-13-24-21.1-13-12-4-3h-1l-5 4-31.9 29-37 33-36 37.2a597 597 0 0 0-64 76.2l-29 40a371.6 371.6 0 0 1-41 50.2c-12 14-24 29-34 45l-44 70.3-5 9c-2 3-2 5 0 7l1 2 7 12a342 342 0 0 0 45 65.2 874 874 0 0 0 81 94.2l37 40.1 13 15 42 50.2 26 31 19 21 38 39.2 14 12c3 3 5 4 9 0l10-9a4196 4196 0 0 0 74-78.2l26-31 23-28.1 33-37.1 19-20 63-70.2 35-45.2c14-19 28-39 39-60.1l2-5 1-2m-330 413-2-1-4-3-16-14-43-44.2a993 993 0 0 1-81-96.2l-28-32-33-36.2c-24.7-27.3-49-55.1-73-83.2l-30-40c-11-15.1-21-30.1-30-46.2l-5-8-1-2c-1-2-2-5 0-8l11-18 37-59.2a534.6 534.6 0 0 1 66-83.2l18-24c11-15.1 21-30.1 33-44.2 33.4-43.3 69.8-84 109-122.3a765 765 0 0 1 64-58.1l7-6h3l7 6 37 33c29.4 25 56.8 52.1 82 81.3a723.4 723.4 0 0 1 70 86.2l18 26 28 35.1c22.6 24.5 43 51 61 79.2l26 43.1 15 23 2 4v3l-1 4.1a483.4 483.4 0 0 1-50 75.2 1601.7 1601.7 0 0 1-51 62.1l-30 33.1-23 25-34 37.2-23 27-28 34.1a1652.5 1652.5 0 0 1-88 95.2l-14 13-4 3h-2"/>
    <path fill="#FFF" d="M235.8 144.6h1l2-1c12-8 25-14 38-19l25-9c13-4 27-6 40-4h16c13-1 26 0 38 4 17.6 6 34.9 12.7 52 20l8 4v-1l-6-6-26-26-32-36.2-19-19-21-21c-4-4-3-4-7 0-20 19.4-39.3 39.4-58 60.1l-23 25-25 26.1-3 3m113 648.6 1-1 13-14 11-12 13-14.1 18-22 26-28.1 23-24 1-2c-1-1-2 0-3 1a163.8 163.8 0 0 1-59 19l-31 4h-30l-23-4-25-5c-16.6-4.3-32.5-11-47-20.1l2 2 13 14 20 22 30 33.2 14 16 16 18 7 8 9 9h1m182-570.3v1l10 23 17 43.2a273.5 273.5 0 0 1 19 90.2l1 35v14.1l-2 29-2 25.1c-2.4 15.2-5 30.2-8 45.2a217.3 217.3 0 0 1-20 47v1h1l2-3 47-61c16-22.1 32-44.2 50-65.2l12-16 13-15.1v-2l-8-8-18-23.1c-24-33.6-47.4-67.7-70-102.2a254 254 0 0 0-34-47.2l-9-10-1-1m-352-15h-1l-12 14-20 25-22 31.1-21 34.1-47 65.2c-9 13-18 26-30 37v2l6 7.1c19.3 23.9 38.3 48 57 72.2l29 40 32 41.2 9 11 3 2v1-1l-1-3a185.2 185.2 0 0 1-30-74.2l-5-35-2-17.1-2-24 1-41.2 1-24a419 419 0 0 1 19-84.2l13-34.1a454 454 0 0 1 21-41.1l2-4m394 222.5-1-14-2-29-4-33.2c-3-21-9-41-16-61.1l-17-45.1c-5-11-10-22-16-31.1a544.9 544.9 0 0 0-47-61.1 104.7 104.7 0 0 0-46-25.1c-20.4-5.6-41.1-10-62-13l-17-1-9 1-17 2c-18.5 3-36.6 8-54 15a115.2 115.2 0 0 0-51 38l-28 38.2c-7 11-13 23-18 36l-10 25.1-14 40.1a284.2 284.2 0 0 0-14 81.2l-1 13-1 20.1a250.4 250.4 0 0 0 10 85.2c6 26.9 16.8 52.3 32 75.2 9 14 20 28 32 40l20 19.1c11 10.4 23.1 19.4 36 27.1 11 6 23 11 35 14l29 6c9 2 19 3 29 3h7l21-3 11-2 26-7c23-7 42-19 60-35l24-24.1 16-18a264 264 0 0 0 57-176.5m105-13-1 1-2 5a619 619 0 0 1-39 60.1l-35 45.2-25 29-38 41.1-19 20-33 37.2-23 28c-22 25.7-44.4 51-67 76.2l-33 33-10 9.1c-4 4-6 3-9 0l-14-12-38-39.1-19-21-26-31.1-42-50.2-13-15-37-40-36-39.2a871.6 871.6 0 0 1-90-120.3l-7-12-1-2c-2-2-2-4 0-7l5-9 44-70.2c15.5-24 33.3-46.5 53-67.2l22-28 29-40.1c20-26.6 41.3-52 64-76.2l36-37.1 37-33.1a595 595 0 0 0 38-33l4 3 12 12 25 21 14 13c19 18 37.8 36.3 56 55.2 27 28 51.8 58.2 74 90.2l20 28 25 31.1c20 22 37 44.1 53 68.2 15.4 24 30.4 48.5 45 73.2l1 3"/>
    <path fill="#1E2346" d="M522.8 410.3v-12l-4-31.1-7-27.1c-8.7-35.7-25.5-69-49-97.2l-17-20-12-13.1-14-11c-7-6-15-11-24-14l-8-3c-13-5.6-27-9-41-10.1l-12 2a163.3 163.3 0 0 0-57 25l-13 10-13 13.1-15 19a237.3 237.3 0 0 0-53 105.3c-3.7 16-6.7 32-9 48.1a304 304 0 0 0 16 110.3 561.5 561.5 0 0 0 30 60.1l14 17c8 9.1 17 17.1 27 24.1 16 10.8 33.1 19.9 51 27.1 13 4 26 7 40 7h1l5-1c16-3 32-8 46-15l25-14c10-6 20-14 28-22.1l13-16c8-9 15-19 20-30.1l12-26a210.8 210.8 0 0 0 17-63.2l2-25 1-17.1m50 20a485 485 0 0 1-25 123.3 263.6 263.6 0 0 1-48 71.2l-24 24c-17 16-37 28.1-59 35.1l-27 7-11 2-21 3h-7c-10 0-20-1-29-3l-29-6a162.8 162.8 0 0 1-71-41l-20-19.1a254 254 0 0 1-71-146.4c-3.4-17.8-4.4-36-3-54l1-20.1 1-13a422 422 0 0 1 14-81.3l14-40 10-25.1a539 539 0 0 1 46-74.2 114.6 114.6 0 0 1 51-38.1 274.9 274.9 0 0 1 71-17l9-1 17 1c13.2.7 26.3 3 39 7a487 487 0 0 1 50 18c7 3 13 8 19 13l19 20.1 28 41.1c6 9 12 20 16 31l17 45.2a311 311 0 0 1 20 94.2l2 29 1 14.1"/>
    <path fill="#1E2346" d="M178.8 206.8v1l-2 4a163.1 163.1 0 0 0-21 40l-13 35.2c-10.6 27-17 55.3-19 84.2l-1 24a430 430 0 0 0 1 65.2l2 17 5 35.1c2 13 6 26 11 38.1a271.5 271.5 0 0 0 20 39.1v1-1l-2-2-10-11-32-41.1-29-40.1c-18-24.8-37-48.8-57-72.2l-6-7v-2c12-11 21-24 30-37.1l47-65.2 21-34 22-31.1 20-25 12-14.1 1-1m352 16 2 1 8 10 18 24.1 16 23c26 44 55.3 86 88 125.4l8 8v2l-13 15-12 16c-18 21.1-34 43.2-50 64.2l-47 62.2-2 3h-1v-1l2-4c11.1-20.7 18.8-43 23-66.2l3-22 2-25.1 2-29v-14.1l-1-35.1c-2.7-30.8-9-61-19-90.2l-16-43.1c-3.2-8.3-6.8-16.4-11-24m-182 570.3h-1l-9-9-7-8-16-18-14-16.1-30-33.1-20-22-13-14.1-2-2 3 1a163.4 163.4 0 0 0 69 24l23 4h30l31-4 23-5c13-3 25-8 36-14 1-1 2-2 3-1l-1 2-23 24-26 28.1-18 22-13 14.1-11 12-13 14-1 1m-113-648.5 3-3 25-26 23-25.1c19-20.4 38.3-40.4 58-60.1 4-4 3-4 7 0l21 21 19 19 32 36.1 26 26.1 6 6v1l-8-4-25-11-27-9c-12-4-25-5-38-4h-16c-13-2-27 0-40 4l-25 9c-13 5-26 11-38 19l-2 1h-1"/>
    <path fill="#FFF" d="m328.8 432.3-2-5c-1-1-2-2-3-1l-6 2-5 4a28 28 0 0 1-15 4c-2 1-2 2-2 4a110 110 0 0 0 3 8h4l2-1 7-5 14-7 2-2 1-1m-58 25 1 7.1 3 1 3-2 15-9c3-2 3-2 2-6l-1-5-1-2-2-1c-3 3-8 5-12 7l-5 2c-2 1-3 2-3 4v4m78-24 16 1h6l2-2-4-11.1-2-1h-4l-15 3c-4 1-7 2-11 1h-3c-2-1-3 0-3 2l1 3c2 3 4 5 7 4h10m69 4h10l14-3c3-1 4-3 3-5v-2l-5-10-1-2c-1-1-2-2-3-1h-2l-5 2a76.4 76.4 0 0 1-54 4l-1 1v1l4 10 4 3 13 1h3l20 1m-129-34c0-8-1-16-3-23.1-3-8-4-15-4-23l-1-10-1-5.1v-1l-2-1v1l-1 6-4 27-3 28.1c0 6-2 12-4 17-2.6 6.8-3.6 14-3 21.1 0 3 1 4 4 5h1c7 0 14-2 19-6 3-2 3-3 1-5-3-2-3-4-3-7l1-5c2-6 3-12 3-19m62 35-20 1-8 2-32 19-16 9.1c-2 1-3 4-3 7v4c0 2 1 3 4 2l27-14c8.1-3.9 16.1-8 24-12 2 0 2 1 2 2l1 3c0 2 1 2 2 2l7-1 9-2 17-3 38-9 13-3 4-1v-2l-4-1-24-1-19-1-22-1m-30-67.2v-3c0-9-2-18-5-26.1l-2-9c0-8-3-15-4-22l-2-2-2 2c-4 15-6 29-7 44v18l-1 12.1c0 6 0 12-2 18-2 7-3 13-6 19.1l-1 3c-1 4 1 6 5 5h1l23-6 3-1v-4l-1-1c-2-2-3-5-3-9v-4l1-6 3-18.1v-10m28 262.6 11-1 4-1c13-3 24-8 35-14l29-18 15-11.1 1-1v-1h-3l-15 5-19 7a112 112 0 0 1-60 3l-16-2c-7 0-14 0-21 2l-23 6-1 1-1 1c11.2 7 22.9 13 35 18l18 5.1 11 1m7-260.6v-17l-1-21.1-4-14c-2-4-2-8-3-13l-1-11.1c0-5-2-10-4-15l-3-10v-3h-1l-1 1-1 1c-7.8 46.7-13.1 94-16 141.3l9 4 13 3 7 1 12-2 3-2v-2l-4-3c-3-3-5-6-5-10v-28.1m98 59.1 2-1 25-3 8-2c2 0 3-1 2-3l-2-3-14-21c-9.8-15.7-19.5-31.3-29-47.2l-6-10c-6-11-13-21-21-31l-20-29.1-14-22.1-2-2h-1v2l1 5 6 23c3 10.1 6 20.1 12 29.1l8 16 8 18.1 7 18 22 53.2 2 7c1 2 3 3 6 3m-94-77.2v15l-1 24.1-1 6c0 3 2 6 4 7l7 4c10 4 21 5 31 4 11-1.1 22-2.4 33-4 3 0 4-2 3-5l-3-6-21-40a380.8 380.8 0 0 1-24-60.2l-8-16a207.2 207.2 0 0 1-18-45.1v53l-1 26.1-1 11v26.1m101 181.5 18 1h5l3-2 16-34.1 2-6c0-2 0-2-2-2h-1l-30 10-17 6c-8 2-17 2-26 1l-14-2c-3 0-4 0-5 3l-2 5-4 7c-2 3-4 5-8 5l-21 2h-38l-26-1-27-1-24-3-21-2-8-3c-2-2-4-3-7-2-6.2.4-12.2 1.8-18 4l-1 2 1 2 8 16 7 11.1c2 3 4 3 7 3l3-1 9-2c16.8-3.6 34-4.6 51-3l34 2c20.2.6 40.4-1.8 60-7l36-7 21-2h19m-84 51.1h21a177 177 0 0 0 58-11l8-8c7-7 13-15 18-23.1l1-2-1-1h-1l-26-2c-13-1-26-1-39 2l-30 7-30 8c-11 3-22 4-33 4h-11l-28-3-20-2c-10 0-19 0-29 2l-4 1c-4 1-3 2-1 5 8 8 16 17 25 24.1l17 13c2 1 4 2 7 1l5-1 29-8c17-5 35-7 52-7l12 1m-7-63.2 14-2 12-2 3-3 1-2 5-10 7-11 13-21c4-8.1 10-15.1 17-20.1l9-5 17-6 11-5 9-5 2-2v-1h-1l-6 1-31 10a1438.7 1438.7 0 0 1-125 29c-2 0-3-1-3-3l-1-1-1-1-5 3-15 9a191.7 191.7 0 0 1-59 22l-6 2c-3 0-4 2-4 4.1l1 5 2 4 5 2 14 1 9 1 24 1 33 1 26 3 23 2m146-103.2-1-24-4-23.1c-4-16.8-8.4-33.5-13-50.1-4-12-10-24.1-16-35.1l-16-30.1c-6-9-11-18-18-26-6-6-11-12-18-17.1l-20-14-14-7-39-15c-5-2-11-2-16 0l-31 11-22 11-20 14-13 11-9 11-8 11-11 19.1a380.3 380.3 0 0 0-30 65.2c-4.5 20.3-8.8 40.7-13 61.1l-1 21a220 220 0 0 0 3 51.2c2 16 7 31 14 46.1 2 5 2 5 7 3l13-4 6-1 3-3v-1c0-3 1-6 4-8 1-2 3-3 6-4l12-6 12-4c2-2 4-4 4-7v-4l-2-21.1-5-2c-3-1-4-2-3-5v-2c2-8 3-17 3-26.1 0-7 0-15 2-22l8-31.1 5-23.1 2-9 1-2 1 2c3 8.9 5.6 18 8 27 2 5 3 9 3 14l1 7.1v2h1v-1l2-12 4-24 2-15.1a316 316 0 0 1 7-29.1h3l1 2 2 8 5 19 3 15.1 2 11v2h1v-14a117 117 0 0 1 3-40l7-35.2 2-7 2-2h2l1 2 4 12 2 11 7 21.1 1 1 1-1v-3l1-6 1-16c.8-13 1.5-26.1 2-39.1v-9l1-3c0-1 1-2 3-1l2 2 9 10 33 44c6 9 13 18.1 18 28.1 5 11 12 22 19 31.1l8 12 19 32.1 8 13 14 19 2 4.1v3l-6 9c-7 7-15 12-24 16l-10 5c-6 3-12 7.1-17 12.1-10 9-17 19-23 30l-1 2 1 2h2l15-1 21-4 24-4 23-4c6 0 6 0 7-6a382 382 0 0 0 7-63.1m8-11v17a267.7 267.7 0 0 1-20 88.2l-12 26a382.8 382.8 0 0 1-33 46.2c-8 8-18 16-28 22l-25 14c-14 7.1-30 12.1-46 15.1l-5 1h-1a144 144 0 0 1-61-16l-30-18c-10-7-19-15.1-27-24.1a297.2 297.2 0 0 1-25-36.1l-19-41.1a206.7 206.7 0 0 1-15-67.2 302 302 0 0 1 2-67.1 557 557 0 0 1 24-76.2c9-20 21-37.1 35-53.1l15-19 13-13.1 13-10c7-6 14-10 23-14 11-5 22-9.1 34-11.1l12-2h4c13 1 25 5 38 10l7 3c9 3 17 8 24 14l14 11 12 13.1 17 20a241.8 241.8 0 0 1 49 97.3l7 27 4 31.1v12"/>
    <path fill="#1E2346" d="M515.8 421.3c-.8 21.2-3.5 42.4-8 63.1-1 6-1 6-7 6l-24 4-23 4-21 4-15 1h-2l-1-2 1-2c6-11 13-21 23-30 5-5 10-9 17-12l10-5c9-4 17-9 24-16l6-9v-3.1l-2-4-14-19-8-13-19-32.2-8-12c-7-9-14-20-19-31-5-10-12-19.1-18-28.1-12-14-22-29.1-33-44.1l-9-10-3-2c-1-1-2 0-2 1l-1 3v9l-1 23-1 16-1 16-1 6.1v3l-1 1-1-1c-3-7-6-14-7-21l-2-11a38 38 0 0 0-6-14.1h-1l-2 2-2 7-9 50.1c-1 8-2 17-1 25.1v14h-1l-1-2-1-11-3-15-5-19c-.8-3.5-1.8-6.8-3-10.1h-3l-1 3-6 26-2 15.1-4 24-2 12.1v1h-1v-2l-1-7c0-5-1-9-3-14-3.6-8.8-6.3-17.8-8-27.1l-1-2-1 2-2 9c-1 8-3 16-6 23l-7 31.1c-2 7-2 15-2 22 .5 9.5-.5 19-3 28.2-1 3 0 5 3 5l4 2c2 0 3 1 3 3v22c0 3-2 5-5 7l-11 4-12 6-7 4c-2 2-3 5-3 8.1v1l-3 3-6 1-13 4c-5 2-5 2-7-3-7-15-12-30-14-46.1-9.9-69 4.6-139.1 41-198.5l11-19 8-11 9-11 13-11.1 20-14 22-11 31-11c5-2 11-2 16 0l39 15 14 8 20 13c7 5 12 11 18 17 7 8 12 17 17 26.1l17 30c9.9 18 17.3 37.3 22 57.2 4 17 7.7 34 11 51.1l1 24"/>
    <path fill="#1E2346" d="m369.8 524.5-23-2-26-3-33-1-24-1-9-1-14-1-5-2-2-4-1-5c0-2 1-4 4-4l6-2a200.7 200.7 0 0 0 59-22l15-9 5-3.1 1 1 1 1c0 2 1 3 3 3h4l15-2c35.5-8.2 70.9-17.2 106-27l31-10 6-1h1l-2 3-9 5-11 5-17 6-9 6c-7 4-13 11-17 19l-13 21-7 11.1-5 10-1 2-3 3-12 3-14 1m-5 63.2c-17-1-35 1-52 6l-29 8-5 1c-3 1-5 0-7-1l-17-13c-9-7-17-16-25-24-2-3-3-4 1-5l4-1c10-2 19-2 29-2l20 2 28 3h11c11 0 22-1 33-4l30-8.1 30-7c13-3 26-3 40-2l25 2h1l1 1-1 2c-5 8-11 16-18 23l-8 8c-2 3-5 4-7 4-16.8 3.8-33.8 6-51 7.1h-21l-12-1"/>
    <path fill="#1E2346" d="M460.8 536.6h-19l-21 3-36 7a335.3 335.3 0 0 1-60 6l-34-2c-17-.7-34 .3-51 3l-9 2-3 1c-3 0-5 0-7-3l-7-11-8-16-1-2 1-2 2-1c5-2 11-3 16-3 3-1 5 0 7 2s5 2 8 3l21 2 24 3 27 1 26 1h38l21-1c4-1 6-3 8-6l4-6 2-6c2-3.1 2-3.1 5-3.1l14 2c9 1 18 1 26-1l17-6 30-9 1-1c2 0 2 0 2 2l-2 6-16 34-3 2h-5l-18-1m-101-181.4v-26l1-11 1-26.1v-52.1l1-1v1l1 3a208.1 208.1 0 0 0 24 57.1l8 20 16 40.1 21 40.1 3 6c1 3 0 5-3 5l-9 2-24 2a62.8 62.8 0 0 1-38-8c-2-1-4-4-4-7l1-5a215 215 0 0 0 1-40m94 77.1c-3 0-5-1-6-3l-2-7-22-53.1-7-18-8-18.1-8-16c-6-9-9-18.1-12-28.1l-6-24-1-5.1v-2h1l2 2 14 22 20 29.1c8 10 15 20 21 31.1l6 10a404.8 404.8 0 0 0 29 47.1l14 21 2 3.1c1 2 0 3-2 3l-8 2-25 3-2 1"/>
    <path fill="#1E2346" d="M355.8 397.2v4c0 4 2 7 5 10l4 3v3l-3 1-12 2-7-1-13-3-9-4c-1-1-2-1-1-2v-4c3.7-12 6-24.4 7-37v-6c0-10 2-19 3-28.1l3-25 2-24.1 2-14 1-2 1-1 1 1v2l3 10c3.3 8.3 5 17.1 5 26 1 5 1 9 3 13l4 14 1 21.1v41.1m-7 236.6-11-1-18-5a148.5 148.5 0 0 1-35-18l1-1 1-1 23-6c7-2 14-2 21-2l16 2 23 2c13 0 25-2 37-5l19-7 18-5.1v1l-1 1-15 11-29 18c-11 6-22 11-35 14.1l-4 1-11 1"/>
    <path fill="#1E2346" d="M320.8 371.2v10l-3 18-1 6v4c0 4 1 7 3 9l1 1v4.1l-3 1-23 6h-1c-4 1-6-1-5-5l1-3c3-6 4-12 6-19 2-6 2-12 2-18l1-12.1v-18c1-15.1 3-29.1 7-44.2l2-2 2 2c1 7 4 14 4 22l2 9.1c3 8 5 17 5 26v3m30 67.2 22 1 19 1 24 1 4 1v2l-4 1-13 3-38 9-17 3-9 2-7 1.1c-1 0-2 0-2-2l-1-3c0-1 0-2-2-2l-5 2a802 802 0 0 1-46 24c-3 1-4 0-4-2v-4c0-3 1-6 3-7l16-9 32-19 8-2 20-1"/>
    <path fill="#1E2346" d="M288.8 403.3c0 7-1 13-3 19l-1 5c0 3 0 5 3 7 2 2 2 3-1 5-5 4-12 6-19 6h-1c-3-1-4-2-4-5-.5-7 .5-14.3 3-21 2-5 4-11 4-17l3-28.1 4-27 1-7.1 2 1v1l1 5 1 10c0 8 1 15 3 23.1 3 7 4 15 4 23m129 34.1-20-1h-3a1042 1042 0 0 1-17-4l-4-10v-1l1-1h3c17 4.4 34.9 3 51-4l5-2h2c1-1 2 0 3 1l1 2 5 10v2c1 2 0 4-3 5l-14 3h-10m-53-3h6l2-2-4-11-2-1h-4l-15 3c-4 1-7 2-11 1h-3c-2-1-3 0-3 2l1 3c2 3 4 5 7 4l26 1Zm-93 30.1 3 1 3-2 15-9c3-2 3-2 2-6l-1-5-1-2-2-1c-3 3-8 5-12 7l-5 2c-2 1-3 1-3 3l1 12Zm57-32-1 1-2 2-14 7-7 5-2 1h-4l-1-2-2-6c0-2 0-3 2-4h1c5 0 10-2 14-4l5-4 6-2c1-1.1 2 0 3 1l2 5"/>
    <path fill="#FFF" d="M218.4 402c0 .4-.3 6.9-.2 13.4-6.8.5-5.7-13.4-5.3-15 .2-1.5-4.4 1.6-6.6 3.8.7 1.3 1.7 1 3 .5-.5 6.2 3.8 11.8 9 11.7.1 6.4.8 12.5 2.6 13 .2.1.4-6.5.6-13.7 12.2-3.8 7.5-18.4 7.5-18.4-.2-.8-2 .3-6 4 1.6 1.7 2.4.6 3.6.2 1 2 1.4 10.6-5 13.2l.2-18c0-.3-.2-.4-.4-.4-1.8.2-5 3.4-7.5 6.1 1.4 2.3 3.1.2 4.5-.4m6 19.2 2.7 2.8 2.8-2.8-2.8-2.8-2.8 2.8Z"/>
  </g>
</symbol></svg>
