<svg xmlns='http://www.w3.org/2000/svg' viewBox='0 0 696 830' fill='none'><symbol id='GMAV_EC_Fill'>
  <g fill="none" transform="translate(.7 .3)">
    <ellipse cx="349.6" cy="414.3" fill="#FFF" rx="232.5" ry="302.6"/>
    <path fill="#1E2346" d="m236.3 670.8 1 1 14 7c14 7 29.1 12 44.1 15l39 6c12.1 2 24.1 1 36.1-1l39-7c14.1-3 27.1-8 40.1-14l4-2-3 3a1917.4 1917.4 0 0 0-102.1 113.1h-3l-10-11-74.1-83.1-23-24-2-3c-1 0 0 0 0 0"/>
    <path fill="#1E2346" d="m346.5 18.8-1 1-4 3-32 29a899.9 899.9 0 0 0-157.3 174.3c-12 18-25 34-39 50A432 432 0 0 0 54 356.4l-32 51-4 7v5l1 2 22 37.1c34.5 49 72.7 95 114.1 138.2 26 28 51.1 55.1 75.1 84.2 25 32 51.1 62 79.1 90.1l21 21 12 10c4.1 4 5.1 4 9.1 0h1l14-13c33-32 63.1-66 92.2-101.1l35-42 49-53.2 47.1-53 40.1-50.1c17.3-22 32.8-45.5 46-70.1v-5l-4-8-36-57.1a555 555 0 0 0-58-77.1 393.3 393.3 0 0 1-49.1-63.1A912.5 912.5 0 0 0 390.6 57.8l-39-35-3.1-3-2-1M695 419.4l-2 5-25 42-34 45.1c-25.1 33-53.2 64.1-81.2 94.2-19 20-38 39-55 60l-39.1 47.1c-28 34-58.1 66.1-89.2 97.2l-17 16c-5 4-6 4-11 0-10-8-18-17-27-26-33.1-33-64.1-68.1-93.2-104.2-24-30-49-58-75-85.1C104 566.5 65 519.7 29 470.5L1 424.4l-1-3v-4l5-10 49-77.2c13.1-20 27.1-38 43.1-56 17-18 32-37 46.1-57.1A1000.3 1000.3 0 0 1 341.5 3.8c6-5 5-5 11 0l38 34a960.8 960.8 0 0 1 168.3 189.3c10 15 21 29 33 42 22 24 42.1 49.1 59.1 77.2l37 60 6.1 10 1 3"/>
    <path fill="#FFF" d="m235.3 145 3-2c10-7 21-12 33-17l28.1-10c12-4 25-6 39-5h21.1c13-1 26 1 39 5l17.1 6c12.8 4.1 25.2 9.4 37 16l-3-3-47-51.1-52.1-53.1c-4-4-3-4-7 0-14 14-29 28-42 43L257.3 121l-20 21-2 2v1m1 525.9-1 1 3 2 23 24 74 83.1 10.1 11h3l25-27c25-29 50.1-58 77.1-86.1l3-3-4 2c-13 6-26 11-40 14l-40 7c-12 2-24.1 3-36.1 1l-38-6c-16.1-3-30.1-8-44.1-15l-14-7-1-1M530.7 224v1l6 13 15 38c18.4 43.7 27 90.9 25 138.3 1 13 0 26-1 39l-6 49.1a177.7 177.7 0 0 1-23 70.1l-1 2h1l2-2 17-21 40-54.1c20-28.5 41-56.3 63.2-83.1l-17-20-25.1-34.1c-17-24-34-48-49-73.1l-16-24-30.1-38.1-1-1m-354.5-14h-1l-3 3-29 35a294.5 294.5 0 0 0-34.1 51.1l-34 51A619.7 619.7 0 0 1 24 414.5c-1 1-1 1 1 2l5 7 26 31 47.1 63.1 52.1 67.1 3 3h1l-1-3-13-22c-8-16-14-34-17-52l-4-29.1c-2-17-4-34-4-51.1 0-25 1-51 4-76.1 3-21 8-43 16-63.1l16-44a175 175 0 0 1 19-36.1l1-1m-50 219.3v4c-1 17 1 34 4 50l6 26.1c9 40 27 75.1 54 106.2l32.1 32c19.8 19 44.4 32.6 71.1 39l34 7.1 2 1h28.1c5 0 11 0 17-2l6-1 29-6c23.1-7 43.2-19 61.2-34l26-26.1c26.9-26.7 47-59.3 59.1-95.2l10-39a247 247 0 0 0 5-78.1l-4-49.1c-3-24-10-48-18-72.1l-16-40c-5-13-10-25.1-17-36.1l-32.1-44c-15-18.1-32-31.1-54-38.1-15.1-5-29.1-10-44.1-13a179 179 0 0 0-68.1-1c-18 3-35 8-53.1 15-10 4-20 9-29 16s-16 14-23 22a553.4 553.4 0 0 0-41.2 63.1l-9 22-16 43.1-12 42c-5 29.1-7 57.2-8 86.2M346.5 18.8l2 1 3 3 39 35a912 912 0 0 1 156.3 176.3l31 38a623 623 0 0 1 58.1 76.2l36 58 4 8v5l-2 3c-12 24.1-28 46.2-44 67.2l-40 50-47.1 53.1-49 53.1-35.1 42c-29 35.1-59.1 69.2-92.2 101.2l-14 13h-1c-4 4-5 4-9 0l-12-10-21-21a968 968 0 0 1-79.2-90.1c-24-29-49-56.1-75-84.2A1235.5 1235.5 0 0 1 41 458.4l-22-37-1-2v-5l4-7 32-51.1c18.4-27.7 38.1-54.4 59-80.1 14-16 27.1-32 39.1-50.1A938.3 938.3 0 0 1 341.5 22.8l4-3 1-1"/>
    <path fill="#1E2346" d="M173.2 412.4a290 290 0 0 0 15 89.1l17.1 40a149 149 0 0 0 29 42.1 138.6 138.6 0 0 0 44.1 33c16 10 34 18.1 54 21.1 7 2 15.1 2 23.1 1 10-1 19-3 28-6 20-7 37.1-17 54.1-29 11-7 19-16 27-26 9-11.1 18-22.1 24.1-35.1l14-31c17.8-48 22.8-99.8 14-150.3l-10-37c-9-28.1-23-54.1-42-77.2l-19-23-15-16c-8-6-15.1-13-23.1-17-16-9-33-15-51-18l-15.1-1a144 144 0 0 0-91.1 51l-13 15c-21 24-37.1 51-48.1 81.1-6 18-10 35-13 53.1-3 13-3 26-3 40m-47.1 17.1c1-29 3-57 8-86.1l12-42.1 16-43c3-7 5-15 9-22 4-10.1 10-19.1 16-28.1l25.1-35c7-8.1 14-15.1 23-22.1 9-7 19-12 29-16a319.8 319.8 0 0 1 85.2-18c12 0 24 2 36 4 15 3 29.1 8 44.1 13 22 7 39 20 54.1 38l32 44c7 11 12 23.1 17 36.1l16 40a376 376 0 0 1 18.1 72.2c3.2 28 4.8 56 5 84.1-1 15-3 29-6 43l-10 39.1a243.6 243.6 0 0 1-59 95.2l-26.1 26c-18 15-38 27-61.1 33l-29 7-6 1c-6 2.1-12 2.1-18 2.1h-27.1l-2-1-34-7c-27-6.1-51.7-19.6-71.2-39-11-10-22-21.1-32-33.1a230 230 0 0 1-54.1-105.2l-6-26c-3-16-5-33-4-50.1v-4"/>
    <path fill="#1E2346" d="m176.3 210-1 1-1 2c-7 10-13 22.1-18 34.1l-16.1 44c-8 20.1-13 42.2-16 63.2-3 25-4 51-4 76.1a672 672 0 0 0 8 80.1c3 18 9 36 17 52.1l12 22 2 3h-1l-3-3-52-67L56 454.3l-26-31-6-7v-2c19-20 35-42 51-64.1l34-51.1 11-18 23.1-33 29-35.1 3-3h1m354.6 14 1 1 30 38 16 24c15 25.1 32 49.2 49.1 73.2l25 34 17 20c2 1 2 1 1 2-37.5 43-72.2 88.1-104 135.3l-17.1 21-2 2h-1l1-2c5-10 10-20 13-30 5-13 9-27 10-40 3-29.4 5.3-58.8 7-88.2l-2-48.1c-3-31-11-61-23-90.1l-15-38-6-13.1-1-1m-294.4-79v-1l2-2 20-21 44.1-47.1c13-15 28-29 42-43.1 4.1-4 3.1-4 7.1 0l52 53 47.1 51.2 3 3v1l-3-2c-11-6-22-11-34-15l-17-6c-13-4-26-6-39-5h-21.1c-14-1-27 1-39 5l-28.1 10c-12 5-23 10-33 17l-3 2"/>
    <path fill="#FFF" d="M402.6 410.4h2l1-1c1-3 0-4-3-3l-2 1-1 2 2 1h1m-126.2 20v-2c0-3-1-3-3-4l-1 2v7l1 1c3 0 4 1 3-3v-1m2 0v3l1 1 4 1v-7l-1-2c-4 0-4-1-4 3v1m121.2-30c0 4 0 4 3 3l2-2 2-1v-5l-4 2-2 1-1 2m61 94.1c0-3.3-1.6-4.7-5-4l-3 1-1 1c1 6-1 6 6 5h2l1-1v-2m-243.3-14v-4l-1-1-3 1-1 1-1 8 1 1h5v-6m120.2-54.1h-1c-4 1-4 0-4 6l1 1 7 1c2 0 2 0 2-2v-1c0-3.3-1.3-5-4-5h-1m61-8c0 6 0 5 5 6l2-2v-8l-1-2h-4l-1 2-1 4m-140.1 60v2c0 2 0 2 2 2l3-1c6 0 5 1 5-6l-1-2-5 1c-4 0-4 0-4 3v1m92.1-52h-3c-2 0-3 1-2 3 0 5-1 5 4 5h6v-6l-1-2h-4m-57 0h-4l-2 1v6l2 2 4-1c5 0 4 0 4-4s1-4-4-4m12 0h-1c-1 0-3-1-4 1v6l1 1h8l1-1v-6c-1-2-3-1-5-1m108.1 8c6 0 5 1 6-5 0-2-1-3-3-3h-4c-3 0-4 0-3 3l-1 1c0 2.7 1.3 4 4 4h1m13 1h4l1-2 1-5-1-1-9-1-1 1v2c0 6-1 6 5 6m-147.2 37-2 1c-6 0-6-1-5 6l1 1c3.7-.5 7.3-1.2 11-2 0-6 1-6-5-6m141.2 27.1c0 5-1 6 5 4h1c6-2 5-1 5-7 0-2 0-2-3-2l-4 1c-4 0-4 0-4 4m15-2v2c0 1 0 2 2 1l6-1c6-1 5 0 5-6l-2-2-7 1c-4 1-4 1-4 4v1M253.4 392.3l-1 1c-7 4-15 8-23 10l-2 2 3 1h2c5.3-1.8 10.6-3.8 16-6l5-7v-1m111.1 34h-5l-2 1v6.1l2 1 10-1v-6l-1-1h-4m-44 8h3c6 0 5 0 5-6l-2-2h-7c-7 0-6-1-6 6l2 2h5m60-8h-4c-3 0-3 0-3 3v4l2 2 12-2v-5c0-2 0-2-2-2h-5m17 9v-1h7l1-6c0-2-1-2-2-2h-12c-2 2-1 5-1 7l1 2h6m-150.1 39h-5c-2 0-3 0-3 3v6c0 2 1 2 3 2l6-1c7-2 6 0 6-8 0-2 0-2-2-2h-5m163.2 22.1-6 1c-2 0-2 0-2 2v7l1 1 11-1c5-1 4-1 4-6l1-3-2-1h-7m-185.3 35h-1v-7c0-1 0-2-1-1l-7 1c-2 0-2 1-2 2v14c0 1 1 2 2 1l7-2 2-2v-6m3-45h7l2-2v-8l-2-2h-13l-2 2 2 10h6m194.3-76.1h10l2-1 8-4v-1h-1l-25-2h-2c-3 0-5 1-4 4v2l1 2h11m-30 87.1-8 1c-2 0-2 0-2 2l1 10 13-2c3 0 3 0 3-3v-6c0-2 0-2-2-2h-5m-121.2 26 1 7c0 1 0 2 1 1l11-2 1-1-1-12c0-1 0-2-2-2l-9 2c-2 0-2 0-2 3v4m108.1-18v-5c0-1 0-2-1-1l-15 3c-2 1-2 1-2 3v8c5.3-.2 10.7-.6 16-1 2-1 2-1 2-3v-4m-40 7v5c6.3-.9 12.7-1.9 19-3l1-9c0-1-1-2-3-1l-6 1-9 1c-2 0-2 0-2 2v4m81.1-88.1h10c2 0 2-1 2-2v-8c0-2 0-2-2-2h-13l-8 1-1 8c0 3 1 3 3 3h9M227.3 530.5v6l2 2 15-2 1-2v-11c0-2 0-2-2-2l-15 1-1 2v6m102.2-24-7 1-6 1 2 15 1-1 15-3h1l1-1 1-10-2-2h-6m-61.1 19v-3c0-6 1-6-5-4h-1l-13 2 1 15 17-2 1-3v-5m16-72h-1v-14c0-1 0-2-2-2l-7-1c-2 0-2 0-2 2 1 10 2 19 0 29l1 2h9c2 0 2-1 2-3v-13m28 64v-7l-2-1-6 1-14 3-2 2v11c0 2 0 2 2 2l9-2 11-2c2 0 2-1 2-2v-5m16-107.1v-11l-2-4-4 1-8 8-2 3 1 12v2l1 2 14-2v-11m-29-5-10-1c-1 0-2 0-1 1v16c0 2 0 3 2 2h19l1-2v-14c0-1 0-2-2-2h-9m85.2 18h11l1-1v-19c0-2 0-3-2-3l-18-1h-2v2c1 5 0 11-1 17l-1 3 2 2h10m-75.2-19 3-1 7-7v-1h-3l-22 1c-10-1-21-2-31-5l-5-1-3 4-4 6h7c17.1 0 34.1 1.3 51 4m-62 13v-13l-1-1-13 5-2 2 1 1v19l-1 4h16v-17m142.2-20h8l8-7h1l-1-1h-1l-21-1-17-2a377 377 0 0 1-45.1-5l-19 6-2 1 1 1h7l14 2c6 2 12 2 18 2 13 0 25 2 37 3l12 1m-38 26h18l1-1v-22l-1-2-3-1-25-1h-6c-3 0-3 0-3 3v21c0 3 0 3 2 3h17m96.1 14h-8c-4 0-5-1-4 4v22l-1 13 1 10c0 2 0 2 3 2l16-3h5l2-6v-13l-1-5c-1-8-2-15-1-23 1-1 0-1-1-1h-11m-242.3 18v-12c1-2 0-2-1-2l-2 1c-5.7 2.2-12 3.2-18 3-2 0-2 0-2 2v6c2 20 7 39 15 57.1l9 19 1 1v-7c-1-8-1-16 1-24 1-8 1-15-1-23l-1-5-1-16m45 34h-16l-20 4c-2 0-2 0-2 2l2 24c0 2 0 2 3 2l13-3 28-5c7-2 15-2 23.1-3 3-1 3-1 3-3v-20l-1-1h-2c-10 3-21 3-31 3m-9-20h25c2 0 2 0 2-3v-17l1-24.1v-1c0-2 1-2 2-2h3l7 1c2 0 2 0 2-2l1-16-2-2h-3l-30 1 1 15 1 16c0 5-2 7-7 7l-2 1h-29c-2.1 0-2.1 0-2.1 2v2c2 6 2 13 2 19v3l1 1h3l24-1m142.3 127.2h-31c-21.1 1-42.2 5-62.2 13l-2 1-1 1 3 2c16.6 10 35 16.9 54.1 20.1l16-2c11-3 21-6 30-11a319 319 0 0 0 41.1-26l-10 1-38 1m-23-158.3h-18.1c-17-2-35-1-52-1-2 0-2 0-2 2v6l-1 54.1 1 7c0 2 0 2 2 2l27-3 14-2 37-6c15.3-3 30.7-5.4 46.1-7l14-1c3 0 3 0 3-3v-21a87.3 87.3 0 0 1 0-26c0-2 0-2-2-2h-32l-37 1m-125.4 130 16-2a523 523 0 0 1 73.2-17l48-4c40.5-1.1 80.5-9.3 118.2-24l4-4 6-15 1-2.1-1-1-2 1c-7 3-13 5-21 5l-22 2c-12 0-23 2-35 4l-18.1 3c-8 1-15 3-23 6l-8 3c-14 6-29.1 9-44.1 10h-24l-23.1 2-30 6-30 8c-2 1-2 1-2 3l13 15.1 4 1m153.2-18h-9c-20.4-.1-40.7 3-60.1 9l-37 11c-9.1 3-19.1 5-29.1 6l-9 1-1 1v1l2 2c10 9 22 17 33 25h7a321.6 321.6 0 0 1 89.1-20l48.1-5 30-6 7-4 9-10c7-8 12-17 17.1-26v-1h-1l-3 1a174.2 174.2 0 0 1-93.1 15m98.1-248.4v-1l-4-8-20-36a144.8 144.8 0 0 0-33-40.1 522.8 522.8 0 0 0-36.1-23c-12-6-26-10-39-14-5.1-2-10.1-2-15.1 0l-19 6a159 159 0 0 0-50.1 27c-14 9-24 21-33 35s-16 29-24 43l-4.1 8.1c-1 1-1 2 1 2 4 1 7 0 11-2l13-8 13-9c5-4 10-5 16-4l11 1 6.1-2 7-4 25-17c1-2 3-2 5-1l6 2 11 7c2 1 2 1 3-1l6-6 12.1-12 4-4h8l3 3 5 4c4 6 10 10 17 10 5 1 8 3 11 6l6 6 14.1 15 6 7c3 3 3 3 6 0l13-7c6-1 10-1 15 3l3 1c6 6 13 9 19.1 13h1m27 117.2c0-12 0-23-2-34l-4-19.1c-4-15-7-30-12-44-1-3-2-4-5-5-9-5-17-12-22-21.1l-6-5c-4-4-6-4-10-1l-12 11-10 7-13.1 6-7 3h-4v-1l4-3 14-11c2-2 2-2 0-4-5-4-10-8-13-14l-6-9-5-9c-3-3-6-5-11-4h-1c-6 0-11-2-15-6l-5-5-3-4c-2-3-3-3-5-1l-4 4-6.1 7-10 9c-2 1-2 1 0 2l17 14 5 5h-7c-9-3-17-8-23-15-5-5-10-9-16-12-2-1-2-2-4 0l-11 12-18 14-4.1 3c-4 2-8 6-11 10l-3 4-1 3h-2v-4c1-5 3-9 6-13l2-3-1-1-11-3-7 1-4 2-27 19c-3 3-7 5-12.1 5-3 0-5 1-5 4l-7 20-9 32.1-6 33c-.2 14.8.5 29.5 2 44.1l4-1c4-2 9-3 13-3l26-2c2 0 2 0 2-2v-1c-.9-8-.9-16 0-24l-1-2-5-2-1-1 4-3c7-5 15-9 23-12 6-3 12-4 18-4l19.1 2c5 1 10 1 15-1l23-7c4-2 8-2 12-2l36.1 3 38 6 4.1 1v1l-1 1c-3 1-4 4-3 8v1l2 1 8-1h13l12 1 5 2c0 2-2 3-4 4l-7 5c-2 1-3 2-3 5v5l-1 12c0 2 0 2 2 2l19-1h4c3 0 4 1 5 3l2 6c1 5 2 10 0 16-1 8-1 15 1 23l1 10v2c0 2.1 0 3.1 2 2.1h1l31.1-5c2 0 3-1 3-2l4-16c3-18 4-36 4-53.1m-340.5-7c0-14 0-27 3-40 4-18.1 7-36.1 13-53.2 11-30 27.1-57 48.1-81l13-15.1c22.9-28 55.4-46.3 91.2-51l15 1c18 3 35 9 51 18 8.1 4 15.1 11 23.1 17l15 15 20 24a247 247 0 0 1 41.1 77.1l10 37a289.7 289.7 0 0 1-14 150.3l-14 31c-6 13-14 24.1-24 35.1-8 10-16 19-27 26a237 237 0 0 1-54.1 29.1c-9 3-18 5-28 6a59 59 0 0 1-23.1-1 173.6 173.6 0 0 1-66.1-28c-12-7-22-16-32-26a199.2 199.2 0 0 1-29.1-42.1l-17-40a288.7 288.7 0 0 1-15-90.2"/>
    <path fill="#1E2346" d="M513.7 419.4c0 18-1 36-4 53l-4 16-3 3-31 4.1-1 1c-2 0-2 0-3-3v-12c-2-7-3-15-1-23 1.7-7.5 1-15.2-2-22-1-2-3-3.1-5-3.1h-5l-18 1c-2 0-2 0-2-2l1-12v-5c-1-2 0-4 3-5l7-5 4-3c-1-2-3-2-5-3l-12-1h-13.1l-8 1-2-1 4-10v-1l-4-1-38-6-36.1-3-13 2-22 7c-5 2-10 2-15 1l-19.1-1c-6-1-12 0-18 3-8 3-16 7-23 12l-4 3v2l6 1 1 2v25c0 2 0 2-2 2l-26.1 2c-4 0-9 1-13 3l-4 1-2-1v-3c-.4-24.5 1.6-49 6-73.1 3-10 5-21 9-31l7-21c0-3 2-4 5-4 5 1 9-2 12-5 9.6-8.1 20-15.2 31-21.1h7l11 2 1 2-2 2a38.5 38.5 0 0 0-6 16c0 1 0 2 1 1l2-3 3-4 11.1-10 4-3 18-14 11-12c2-2 2-1 4 0 6 3 11 7 16 12 6 7 14.1 12 23.1 15h7c1-1-3-3-5-4-6-5-12-9-17-15-2-1-2-1 0-2l10-9 6-7 4-4c2-2 3-2 5 1l3 4 4 5c5 4 10 7 16 6h1c5-1 8 1 11 4l5 9 6 9a45 45 0 0 0 13.1 14c2 2 2 2 0 4l-14 11c-1 1-6 6 0 4l7-3a648 648 0 0 0 23-13l12-10c4-4 6-4 10 0 2 1 4 3 5 6 6 8 14 15 23.1 20 3 1 4 3 5 5l12 44.1 4 20c2 10 2 22 2 33"/>
    <path fill="#1E2346" d="M486.7 302.2v1l-1-1c-6-4-14-7-20-13l-2-1c-5-4-10-4-15-2-5 1-9 4-13 7-3 2-3 2-6-1l-6-7-14.1-15-6-6c-3-3-6-5-11-5-7-1-13-5-17-11-2.5-2.7-5.2-5-8-7h-8l-4 4-12.1 12-6 7h-3l-11-7-6-2c-2-1-4 0-5 1l-25 17-7.1 4c-2 2-3 2-6 2l-11-1c-6-1-11 0-16 4l-13 9-13 9c-4 1-7 2-11.1 1-2 0-2-1-1-2l4-8c8-14 15-29 24-43 9.9-17.1 24-31.3 41.1-41.1 13-9 27-15 42-20l19-7c5.1-2 10.1-2 15.1 0 13 4 26 8 39 14l14 8a456.5 456.5 0 0 1 32.1 23c9 10 17 20 23 32l20 36 4.1 8.1v1m-98.1 249.4a194 194 0 0 0 93-16l3.1-1s2-1 1 1c-1 3-10 18-17 26l-9 10-7 4-30 6-48.2 5a400 400 0 0 0-96.1 20c-11-8-23-16-33-25l-2-2v-2l10-1c10-1 20-3 29-6l37-11c19.5-6 39.8-8.6 60.1-8h9"/>
    <path fill="#1E2346" d="m235.3 568.6-4-1-13-15c-1-2 0-2 1-3l31-8 30.1-6 23-2h23c16-1 31.1-4 45.1-10l8-3c7-3 15-5 22-6 7 0 13.1-1 19.1-3 12-2 23-4 35-4l22-2c7.1 0 14.1-2 21.1-5.1h3l-1 2-6 15-4 4a354.1 354.1 0 0 1-118.2 24c-29.5.7-58.8 5.4-87 14a191.5 191.5 0 0 1-35.1 7.1l-15 2m114.1-85.1 16-1 30-2 13-1 5.1-1 2-4-1-13h-7c-2.7 0-4-1.4-4-4v-7c0-2 0-3-2-3h-16l-9 1c-3 0-4 0-4 4v9c0 2 0 2-2 2l-1-2v-10c0-2 0-3-3-3l-11 1-9.1-1-9 1c-2 1-3 1-3 4v8c0 2 0 2-2 3l-2 2a350 350 0 0 0 3 14c4 2 8 4 12 3h4m48-46h32.1c2 0 2 0 2 3v46c0 3 0 3-3 3l-14 1a549 549 0 0 0-46 7c-12 1-25.1 3-37.1 6l-15 2-26 3c-2 0-2 0-2-2l-1-7c0-18-1-36 1-54v-6l1-2c18 0 36-1 53 1h55m24.1 157.1c3-1 10-2 11 0 0 1-28 18-42 25-9 5-19 8.1-30 11.1-7 1.8-14.1 2.1-21.1 1-17-4-34-10-49-19l-3-2 1-1 2-1c20-8 41-12 62-13h31l38.1-1M241.3 469.4h-28v-3c.2-7.2-.4-14.2-2-21 0-2 0-2 2-2h29l2-1c5 0 7-2 7-7l-1-16.1-1-15c0-2 0-2 2-2l28.1 1h3l2 2-1 16c0 2 0 2-2 2l-7-1h-3c-1 0-2 0-2 2v1l-1 24v17c0 3 0 3-2 3-8.3.2-16.7.2-25 0m9 20c11 .7 22.2-.3 33-3l1 1v20.1c0 2 0 2-3 3-8 1-16 1-23 3l-29 5-12 3c-3 0-3 0-3-2l-2-24c0-2 0-2 2-2l20-4h16m-43.1-13c2 8 2 15 0 23v30c0 2-1 0-1 0l-9-19c-8-18-13-37-15-58v-5l1-2h2c6 0 11-1 17-3l2-1c1 0 2 0 1 2v1c0 2-1 20 2 32m251.4-39c1 0 2 0 1 1-1 8-1 15 1 23l1 5c1 4 0 18-2 19h-5l-16 3c-3 0-3 0-3-2l-1-10 1-13v-22c-1-5-1-4 4-4h19m-107.2-32.1c-3 0-6 2-6 5s3 5 5 5c3 0 6-2 6-5s-3-5-5-5m-17 18c-2 0-2 0-2-3v-21c0-3 0-3 3-3h6c9.7 1.2 19.3 2.6 29 4v22l-1 1h-35m55-26-12-1c-12-1-24-3-37-3-6 0-12 0-18-2l-14-2h-7c-2 0-1-1-1-1l2-1 19-6h6c18.4 3.8 37.2 6.1 56 7l21 1 1 1-8 7h-8"/>
    <path fill="#1E2346" d="m247.4 432.4 1 3-2 1h-13c-2 0-2-1-2-2l1-4a79 79 0 0 0-1-20l2-2 13-5 1 1v28m47-30c-12-2-24-2-36-2h-7l4-6 3-4 5 1c18.3 4.4 37.2 5.7 56 4v1l-7 7c-1 1-13-1-18-1m91.2 15c3 0 5-2 5-5s-2-5-5-5-5 2-5 5 2 5 5 5m-11 6-2-2 1-3 1-17c0-2 0-3 2-2l18 1c2 0 2 1 2 3v19l-1 1h-21m-75.2-6c1 0 2-1 2-3s-1-3-3-3c-1 0-2 1-2 3 0 1 1 3 3 3m9-12c2 0 2 1 2 2v14l-1 2h-19c-2 1-2 0-2-2v-7l-1-9 2-1 10 1h9m20 5v11l-1 2-14-2v-2l-1-12 2-3 8-8 4-1 2 4v11Zm-16 107.1v5c0 1 0 2-2 2l-11 2-9 2c-2 0-2 0-2-2v-11l2-2 14-3 6-1 2 1v7m-28-64v13c0 2 0 3-2 3h-9l-1-2c2-10 1-19 0-29 0-2 0-2 2-2l7 1c2 0 2 1 2 2l1 14m-16 72v5l-1 3-17 2c-1 0-2 0-2-2l1-13 13-2h1c6-2 5-2 5 4v3Zm61-19h6l2 2-1 10-1 1h-1l-15 3h-1c-2 1-2 0-3-2 .5-4 .8-8 1-12l6-1 7-1m-102 24v-6l1-2 15-1c2 0 2 0 2 2v11l-1 2-15 2-2-2v-6m195.2-112.1c0-2-1-3-2-3-2 0-3 1-3 2 0 2 1 3 2 3 2 0 3-1 3-2m-2 6h-9c-2 0-3 0-3-3l1-8 2-1h19c2 0 2 0 2 2v8c0 1 0 2-2 2h-10m-81.1 88.1v-4c0-2 0-2 2-2l9-1 6-1c2-1 3 0 2 1v9c0 1 0 2-2 2l-17 1v-5m40-7v4c0 2 0 2-2 3-5.3.4-10.7.8-16 1v-8c0-2 0-2 2-3l15-3 1 1v5m-108.1 18v-4c0-3 0-3 2-3l9-2c2 0 2 1 2 2l1 12-1 1-11 2c-1 1-1 0-1-1l-1-7m121.2-26h5c2 0 2 0 2 2v6c0 3 0 3-3 3l-13 2-1-1v-9l1-2 9-1m30-87.1h-11l-1-2-1-2c0-3 2-4 5-4h2c8.6 1.4 17.3 2 26 2l-1 1-9 5h-10m-194.3 76h-6l-1-2 1-10h13l2 2v8l-2 2h-7m-3 45.2v6l-2 2-7 2c-1 1-2 0-2-1v-14c0-1 0-2 2-2l7-1 1 1 1 7m185.3-35.1h7l2 1-1 3c0 5 1 5-4 6l-11 1c-1 1-1 0-1-1v-7c0-2 0-2 2-2l6-1m-163.2-22h5c2 0 2 0 2 2 0 8 1 6-6 8l-6 1c-2 0-3 0-3-2v-6c0-3 1-3 3-3h5m150.2-39h-6l-1-2.1s-1-6 1-7h12l2 2-1 6-7 1m-12-9c2 0 2 0 2 2v5l-1 2-13-2v-4c0-3 0-3 3-3h9m-65.1 8h-5l-2-2c0-7-1-6 6-6h7l2 2v1c0 5 1 5-5 5h-3m44-8h4l1 1v6l-1 2-9-1-2-1v-6l2-1h5m-111.1-34c1 1-4 6-5 8l-3 2-13 4-5-1c0-2 25-14 26-13m182.2 105.1v-1c0-3 0-3 4-4l7-1 2 2c0 6 1 5-5 6l-6 1c-2 1-2 0-2-1v-2Zm-15 2c0-4 0-4 4-4l4-1c2 0 3 0 3 2 0 6 1 5-5 7h-1c-6 2-5 1-5-4m-141.2-27c6 0 5 0 5 6l-1 2h-10l-1-1c-1-7-1-6 5-6l2-1m147.2-37c-6 0-5 0-5-6.1v-2l1-1 9 1 1 1-1 5-1 2h-4m-13-1h-1c-2.7 0-4-1.3-4-4l1-1c-1-3 0-3 3-3h4c2 0 3 1 3 3-1 6 0 5-6 5m-108.2-8c2 0 4-1 5 1v6l-1 1h-8l-1-1v-6c1-2 3-1 4-1h1m-12 0c5 0 4 0 4 5 0 3 1 3-4 3l-4 1-2-2v-6l2-1h4m57.1 0h4l1 2v6h-6c-5 0-4 0-4-5-1-2 0-3 2-3h3m-92.1 51c0-3 0-3 4-3l5-1 1 2c0 7 1 6-5 6l-3 1c-2 0-2 0-2-2v-3m140.2-59 1-4 1-2h4l1 2v8l-2 2c-5-1-5 0-5-6m-61.1 8h1c2.7 0 4 1.7 4 5v1c0 2-1 2-2 2l-7-1-1-1c0-6 0-5 4-6h1m-120.2 54v6c-1 1-6 1-6-1l1-8 1-1 3-1 1 1v4m243.4 14.1v2l-1 1h-2c-7 1-5 1-6-5-1-1 0-1 1-1l3-1c3.3-.7 5 .7 5 4m-61.1-94.1 1-2s4-4 6-3v5l-2 1-2 2c-3 1-4-2-3-3m-117.2 26 1 2v7l-4-1-1-1v-3c0-4 0-4 4-4m-7 8-3-1v-7l1-2c2 1 3 1 3 4 0 0 1 6-1 6m127.2-24h-1l-2-1 1-2 2-1c3-1 4 0 3 3l-1 1h-2"/>
    <path fill="#FFF" d="M334.5 472.5v-4l-1-1-1-1-1 1 1 11h2v-6m72-3v-4l-1-1-2 1v7c0 3 0 3 2 3l1-3v-3m-67 5v-5c0-2 0-2-2-2l-1 1-1 11 1 1 2 1 1-2v-5m30-2v5c-1 1 0 1 1 1l3-1-2-12-2 1v6m39-2v2c0 3 0 3 3 3 2.1 0 2.1 0 2.1-2v-9l-1-1c-3 0-4 1-4 4v3m-17 1v4c0 1 0 2 1 1h7l2-2v-8c0-2-1-2-2-2l-7 1-1 2v4m-24-2v-1c-1-2-1-2-3-2l-6 1-2 2 1 9c0 1 0 2 2 1h5l2-2 1-8m8 2v5l1 2 13-2v-9l-2-1h-12c-2 2 0 4 0 5m-34.1 4v4l1 2 11-1 2-1-2-11-10-1-2 2v6m50-14h8l2-1v-9c0-1 0-2-2-2l-5 1-9 1-10-1-1 1v10l1 2 3-1 13-1m-24-4v-4c0-2 0-2-2-2h-6c-4 0-8 0-11 2h-10l-2 1 2 11h9l15-1 3-1 2-1v-5m-18 26h-4c-4 1-8-1-12-3-2 0-2-1-3-3l2-13 2-2v-9c0-3 1-3 3-4h29c3 0 3 0 3 2v10l1 2c2 0 2 0 2-2v-9c0-4 0-4 4-4l9-1h16c2 0 2 1 2 3v7c0 4 0 4 4 4h7.1l1 2v11l-2 4-5 1-14 1-29 2-16.1 1m2-78.1c2 0 5 2 5 5s-3 5-6 5c-2 0-5-2-5-5s3-5 6-5m34 12c-3 0-5-2-5-5s2-5 5-5 5 2 5 5-2 5-5 5m-86 0c-2 0-3-2-3-3 0-2 1-3 2-3 2 0 3 1 3 3s-1 3-2 3m123.1 1c0 1-1 2-3 2-1 0-2-1-2-3 0-1 1-2 3-2 1 0 2 1 2 3"/>
    <path fill="#1E2346" d="m367.5 462.4-2 1-3 1-15 1h-9c-2-1-2-1-2-3l2-9h10c3-2 7-2 11-2h6c2-1 2 0 2 2v9m24-1a51 51 0 0 0-16 2l-1-2 1-11h19l5-1c2 0 2 1 2 2v9l-2 1h-8m-50 8 2-2c4 .8 8 1.4 12 2l-2 11-11 1-1-2v-10m34 2v-5h12l2 1v9l-2 2c-4-.5-8-1.2-12-2v-5m-8-2-1 7c0 2 0 2-2 3h-5c-2 1-2 0-2-1l-1-9 2-2 6-1c2 0 2 0 3 2v1m24 2v-4l1-2 7-1c1 0 2 0 2 2v8l-2 2h-7c-1 1-1 0-1-1v-4m17-4c0-4 2-4 4-4 2.1 1 1.1 7 1.1 10 0 2 0 2-2 2-3 0-3 0-3-3v-5m-39-1 2-1 1 2 1 10-3 1c-1 0-2 0-1-1v-11m-30.1 13-1 2-2-1v-12l2-1 1 2v10m67-10v3l-1 3c-2 0-2 0-2-3v-7l2-1 1 1v4m-72 3v6h-2v-12l2 2v4"/>
    <path fill="#FFF" d="M453.7 343.2c0 .4-.3 6.8-.2 13.3-6.9.5-5.8-13.3-5.4-15 .2-1.4-4.4 1.7-6.6 3.8.7 1.3 1.7 1 3 .5-.6 6.2 3.8 11.8 9 11.7.2 6.4.9 12.5 2.7 13 .2.1.5-6.5.6-13.7 12.2-3.8 7.5-18.3 7.5-18.3-.2-.8-2 .3-6 3.9 1.6 1.7 2.4.7 3.6.3 1 1.9 1.4 10.5-5.1 13l.3-18-.4-.2c-1.8.2-5 3.4-7.6 6 1.4 2.3 3.2.3 4.6-.3m5.8 19.1 2.8 2.8 2.8-2.8-2.8-2.8-2.8 2.8Z"/>
  </g>
</symbol></svg>
