<svg xmlns='http://www.w3.org/2000/svg' viewBox='0 0 696 830' fill='none'><symbol id='KANC_EC_Fill'>
  <g fill="none">
    <path fill="#1E2346" d="m454.4 139.4-3-1c-11-6-23-12-35-16l-17.1-6c-13-4-26-6-40-5h-20.1c-13-1-26 1-39 5-13 5-27.1 9-39.1 15-8.7 3.7-17 8-25 13v-1l3-2 28-30 40-43 37.1-37 2-2h3l6 5 53.1 56 44 46 2 2v1"/>
    <path fill="#1E2346" d="m677.7 417.8-1-3-4-8-36-57.1c-16.1-25-34.1-49-54.2-72a491.2 491.2 0 0 1-53-68.2A911.9 911.9 0 0 0 353.2 23.3c-6-5-5-5-10 0l-32 29a904.3 904.3 0 0 0-158.3 175.3c-12 17-25 34-39 50-18 19-35 40-49.1 63l-37 59.2-9 15v5l1 2c7 13 14 26 23 38l29 39A939.1 939.1 0 0 0 167 608a1279 1279 0 0 1 94 110.1c26.4 30 54.2 58.8 83.2 86.1h7l1-1 11-10c36-35 69.7-72 101.2-111.1 17-21 35-42 53-61l40.1-43.1c43.7-48.7 83.2-101 118.2-156.2l2-4M348.2 829.3l-5-2-12-11-36-36A1270.8 1270.8 0 0 1 226 701c-16-19-31-38-48-56l-41-44c-17.1-19-34.1-37-49.2-56-21-25-41-51.1-60-78.2-10-13-18-28-26-42l-1-3v-4l2-4 29-47 23-36.1c13-20 27-38 43-56 17-18.1 31.1-37.1 45.1-57.2A1000 1000 0 0 1 342.2 4.3l5-4h2l3 3a989.6 989.6 0 0 1 207.3 224.3l33 42a482 482 0 0 1 59.1 77.1l38.1 60c2 3 3 7 6 10v6l-2 3c-14 26.1-30 50.2-48 73.2l-47.1 58-49.1 53.1-51 56-35.1 42.1c-30 37-62.1 72.1-96.2 105.2l-14 13-3 2-2 1"/>
    <path fill="#FFF" d="M454.4 139.4v-1l-2-2-44.1-46-53-56-6-5h-3l-2 2-37.1 37-40.1 43-28 30-3 2v1h1l2-1c7-5 14-9 22-12 12-6 26-10 39-15 13-4 26-6 39.1-5h20c14-1 27 1 40 5l17.1 6a209 209 0 0 1 38 17m0 536.7-3 1c-13 7-27 12-41 15l-40 7c-11 2-23 3-35.1 1l-39-6c-15-3-30.1-8-44.1-15l-12-6-3-2h-1l1 1 3 3 30 32 69.1 77.1 8 8 2 1 1-2 23-25 15-17c21.1-24 42.1-48 65.2-71.1l1-2m217.3-260.3-2-2-16-19-30-40c-21.7-29-41.9-59-60.2-90.2l-31-40-1-1h-1v1l1 1 10 23 14 35a299.4 299.4 0 0 1 22 105.1v58.1l-3 25-4 32c-2 16.1-5 30.1-11 44.1l-10 22-2 4-1 1h2l1-2 28-35 40.1-55 41-51.1 12-15 1-1M160 590h1v-1l-2-2-9-17c-12-22-20-45-22-70.1l-4-34-3-46.1c0-23 1-45 5-68.1 2-19 7-39 14-58l19-50.1a153.2 153.2 0 0 1 18-33v-1h-1l-3 4a742.5 742.5 0 0 0-45 58l-21 33c-16 25-33 48.1-50.1 72.1l-31 38c-2 1-2 1-1 2l24 28.1 41 54c22 31 45.1 61 69.1 90.2l1 1m412.6-164.2-3-43a325 325 0 0 0-19-86.2l-18-47c-4-12-10-24-17-34a493.6 493.6 0 0 0-41.1-54.1 102.6 102.6 0 0 0-45-28c-14-5-28.1-9-43.1-12-22.5-4.8-45.6-5-68.1-1-18 3-35 8-52.1 15-11 4-22 9-31 16l-22 22-26.1 37c-9 12-16 26-21 40l-14 37.1a313 313 0 0 0-22.1 90.1l-3 55.1c-1 13 0 27 2 41l7 35A244 244 0 0 0 197 622l28.1 27 20 17c15 10 31.1 17.1 49.1 21.1l31 7 5 1 28.1 1c6-1 12-1 17-3l7-1 28.1-6c23-7 43-18 61-34l24.1-23a236 236 0 0 0 63.1-105.2l9-37c4-20 6-41 5-61.1m105.2-8-2 4c-9 16-18 32-29 47-28.1 38-57.1 75.1-89.2 109.2l-40 43c-18 19-36.1 40-53.1 61.1a1208 1208 0 0 1-101.2 111.1l-11 10-1 1c-3 1-4 1-7-1l-7-6-10-9c-35.6-35-69-72.2-100.2-111.1-32-40.5-66.4-78.9-103.1-115.1-18-20-35-41-52-63.1l-29.1-39c-9-12-16-25.1-23-38.1l-1-2v-5l9-15 37-59.1c14-23 31-44 49-63 14-16.1 27.1-33.1 39.1-50.1A961.4 961.4 0 0 1 343.3 23.3c5-5 4-5 10 0l38 35a910.1 910.1 0 0 1 151.3 169.3c12 17 26 34 40 50 20 22 38.1 47 54.1 72.1l36 57 4 8 1 3"/>
    <path fill="#1E2346" d="M522.5 413.8v-20l-6-36c-3-11.1-5-23.1-9-34.1-9-28-23-53.1-41.1-76.1l-21-25c-5-5-9-10-15-14-11-11-24.1-20-39.1-25.1a149 149 0 0 0-46-11c-10.1 1-20.1 3-29.1 7-9 3-18 6-27 11-14 9-27.1 20-38.1 33l-10 12-14 17a222.5 222.5 0 0 0-38.1 73.2l-8 28c-9.3 48.3-7 98 7 145.2l13 32 11 22A186 186 0 0 0 332.2 638c9 2 17 3 25 1 11-1 21-4 31-8 17-6 32.1-15 46.1-24l23-19a252.8 252.8 0 0 0 31.1-43c9.1-20.6 17.7-41.3 26-62.1 5-23 8-46 8-69.1m50.1 12c1 20-1 41-5 61l-9 37.1a237.4 237.4 0 0 1-63 105.1l-24.1 23c-18 16-38 27.1-61.1 34.1l-28 6-7 2-17 2a159 159 0 0 1-33.1-2l-31-7c-26-5.9-49.8-18.7-69.2-37l-28-28a244 244 0 0 1-61-113.2l-7.1-35c-2-14-3-27-2-41.1 0-18 1-37 3-55 3-31.1 10-61.1 21-90.2l15-37c5-14 12-27 20-40l27.1-37.1 22-22c9-7 20-12 30-16a326 326 0 0 1 85.2-18c12 0 24 2 36 4 19.9 4.6 39.3 11 58.2 19 12 5 21 12 30 21l11 12c11 14 21 27 30 42 7 10 13 22 17 34l18.1 47.1c11 28 16 57.1 19 86.1l3 43"/>
    <path fill="#1E2346" d="m160 590-1-1a875.3 875.3 0 0 1-69.2-90.1l-41-53-24-29.1v-2c12-12 22-25 32-38 17-24.1 34-47.1 50-72.2l21-33 13.1-18a742.6 742.6 0 0 1 35-44h1v1l-2 3c-6 10-12 19-16 30l-19 50c-7 19-12 39-14 58.1-5 37.8-5.6 76-2 114.1l4 34c2 25.1 10 48.1 22 70.2l9 17 2 2v1h-1m511.8-174.2-1 1-12 15-41.1 51-40 55.1-28.1 35-1 2h-2v-1l3-4 10-22c5-14 9-28 11-43l4-33 3-25c2.2-37.6-.2-75.3-7-112.2-3-18-9-35-15-51l-14-35.1-10-23-1-1v-1h1l1 1 31 40 15 23c14 23 29 45 45.1 67.1l30 40 16 19 2 2M454.5 676.2l-1 2c-23 23-44.1 47-65.1 71l-15 17.1-23 25-1 2h-2l-8.1-9-69.1-77-31-32.1-2-3-1-1h1l3 2 12 6c14 7 29 12 44 15l39 6c12.1 2 24.1 1 35.1-1l40.1-7c15.4-3.2 30.2-8.6 44-16"/>
    <path fill="#FFF" d="M514.5 421.8v-14c0-13-2-27-5-40l-6-23.1c-6-20-13-39-23.1-58l-16-28.1c-9.2-16.4-21.6-31-36-43l-14-9c-7.1-6-16.1-10-24.1-14l-35-12.1c-5-2-10-2-15.1 0l-19 7c-12 4-23 8-33 15l-22.1 15c-12 9-22 21-29 33l-20 35.1c-9 15-16.1 31-20.1 48l-9 33.1c-3 10-5 21-6 32-1 18-1 36.1 1 54.1 2 20 7 40 15 58l16 32.1c3 7 7 13 12 18 17 19.4 37 35.9 59.1 49.1a162.3 162.3 0 0 0 61.1 24l14-2c18.3-4 35.7-11.5 51.1-22 19-11 36-24 52-40 8-9 16.1-19 21.1-29l14-30.1c7-15 11-31 14-48 2-13 2-27.1 2-41.1m8-8c-.5 33.5-7 66.8-19 98.1-8.4 17.1-17 34.2-26 51l-20 25-23 19.1c-14 9-29.1 18-46.1 24-10 4-20 7-31 8-8 1-16.1 1-25.1-1a172.4 172.4 0 0 1-68.1-30 187 187 0 0 1-52-55L201 531l-13-32.1a228 228 0 0 1-14-84.1c0-20 2-41 7-61.1l8-28c8-27 21-52 38-74.1l14-16 10-12c11-13 24.1-24 38.1-33 9-5.1 18-8.1 27-11.1 9-4 19-6 29.1-7h7c14 1 27 6 39 11 15.1 5 28.1 14 39.1 25 6 4 10 9 15 14l21 25a242.6 242.6 0 0 1 41.1 76.2c4 11 6 23 9 34l6 36v19"/>
    <path fill="#1E2346" d="M424.3 568c-4 0-6 2-7 5v3c-1 5 4 8 9 7l6-3c2-3 2-6 0-8-2-3-5-4-8-4m-57-41 2-1c4 0 6-3 6-6a10 10 0 0 0-10-10.1c-5 0-9 4-8 10l1 3c2 2 5 3 9 4M301 557l-6 2-6 4c-2 2-3 4-2 7s2 7 5 9c2 4 6 6 11 5s9-4 11-9l1-6c-1-3-7-11-11-11l-3-1m30-266.3 13.1-1c15-4 27-13 36-25 3-3 4-7 5-11l-1-1-12 4c-12 3-23 2-33-7l-8-5c-6-4-12-7-18-8-10-2-20 1-26 10-3 4-5 9-4 15 1 4 3 7 7 9l5 1c4 1 7 3 10 6l1 2c7 8 16 11 25 11m152.2 92.1c1-10-2-20-6-29l-5-7c-2-3-5-4-8-5-7-1-14 0-20 4-7 4-9 12-5 19l4 6 7 7c3 3 5 7 5 11v10l-5 17-4 18.1 2 20 2 4h1l1-1 9-12c6-6 11-13 14-21a134 134 0 0 0 8-41M229 497.7l1 23.1c1 11 5.1 21.4 12 30 2 2 5 2 6-2 2-6 5-11 9-15 7-7 12.1-14 17.1-22l6-8c4-4 9-6 14-6h6c11 0 21-4 30-11l7.1-6 6-5c4-3 9-5 14-5h10c7 0 13-2 18-4 3-3 6-2 8 0l7 6c4 3 6.1 6 8.1 10 3 10 4 20 0 29-2 7-6 12-11 16a163.2 163.2 0 0 1-24 19c-4 3-7 7-9 12-2 7-2 13-1 20v2l2 1 2-1 1-3c1-5 3-9 7-12l6-6 11-8 11-8c12-10 20-21 22-36l1-5c2-11 0-22-6-31l-7-9-11-11-1-4c3-6 3-13.1 2-19.1l-2-12c-1-4-1-9 2-13l4-7 6-12c3-8 5-16 3-25l-1-7.1c-1-8 0-14 5-19l8-9 11-12c5-7 11-13 19-18 1-1 2-2 1-4l-4-3c-9-4-18-5-27-4a225.3 225.3 0 0 0-60 14l-4 1-14 6-38.1 14-8 3c-3 1-6 0-8-2l-4-4c-3-2-6-4-10-3h-5c-6.1 0-11.1-2-16.1-6l-6-5-8-2c-4 1-8 2-11 6-3 5-1 11 4 13l5 1h5l4 1c3 2 4 5 3 8l-3 5c-4 2-6 5-7 9l-5 4c-2 1-5 1-7-1l-3-5-1-4c-1-2-1-4-3-5-2-4-7-5-11-2l-4 4c-2 6-2 11 2 15l7 7c4 3 7 8 8 13l1 5c0 4 2 7 6 10l3 3c3 2 4 4 4 8v3l-3 21-7 39.1-3 13-2 27m285.4-76c0 14 0 28-2 42-3 16-7 32-14 47l-14 30.1c-5.1 11-13.1 20-21.1 29A237.9 237.9 0 0 1 361.2 632a44.4 44.4 0 0 1-22 1c-20-4-37-12-54-23a277.6 277.6 0 0 1-59.2-49 1229 1229 0 0 1-28-50.1c-8-18-13-38-15-58-2-29-.3-57.8 5-86.2l9-33c4-17 12-33 20-48l20-35.1c7-12 17-24 29-33l22.1-15c10-7 22-11 33-15.1l19.1-7c5-2 10-2 15 0l35 12c9 4 17.1 8 24.1 14l14 9 14 12c8 10 16 20 22 31l16.1 28.1c10 19 17 38 23 58l6 23.1c3 13 5 27 5 40v14"/>
    <path fill="#FFF" d="M421.3 498.9c0-5 0-10-2-16-5-10-13-19-21-26h-2l-1 1-3 4 4 2c8 6 15 13 17 23 3 15 0 29-9 41l-9 9-14 12-8 7c-4.7 5-7.5 11.4-8 18v1l1-1 1-2c3-7 8-12 15-17l20-15c10-8 17-19 19-32v-9m-185.2 1 1 18c.9 9.6 3.3 19.1 7 28h1l1-1c2-6 6-11 10-16l11-15 8-10c4-5 10-8 16-10l8-2c9-3 18-7 26-13l9-6c7.1-4 15.1-6 24.1-5 8 1 15-1 22-3 10-4 16-12 19-22l1-8.1-3-18c-2-6-1-13 1-19l2-6 3-9c3.1-6 5.1-13 6.1-19l1-12.1c1-9 4-18 10-25l7-7 10-12c5-5 9-10 15-14l1-1-2-1-3-1h-30c-17.7 3-35.1 7.6-52 14a286.1 286.1 0 0 1-59.1 22c-7 1-13 0-18-4l-2-2-6-3-7-1a42 42 0 0 1-14.1-6l-7-5c-3-2-7-1-9 1v2l2 1c2 1 2 2 1 3l-3 1v1l7 3 6 2c7 3 8 10 2 15l-4 2-4 3-2 5-2 5c-3 4-9 4-13 0l-2-4-3-5-3-4h-1l-1 2c0 2-2 2-3 1l-1-2h-2c-2 3-2 6 0 9l7 7c4 4 8 9 10 15 1 5 3 8 7 11 5 4 8 9 8 16l-1 22c-2.4 16.4-6 32.4-11 48.1l-2 34m-7-2c0-9 0-18 2-27l3-13 7-39 3-21v-3c0-4-1-6-4-8l-3-3c-4-3-6-6-6-10l-1-5c-2-5-4-10-8-13l-7-7.1c-4-4-4-9-2-15l4-4c4-3 9-2 11 2 2 1 2 3 3 5l1 4 3 5c2 2 5 2 7 1s4-2 4-4c2-4 4-7 8-9l3-5c1-3 0-6-3-8l-4-1h-5l-5-1c-5-2-7-8-4-13 3-4 7-5 11-6l8 2 6 5c5 4 10 5 16 6h5c4-1 7 1 10 3l4 4c2 2 5 3 8 2l8-3 38.1-14 14-6 4-1c10-5 20-8 30-10 10.1-2 20.1-4 30.1-4 9-1 18 0 27 4l4 3c0 2 0 3-2 4-7 4-13 11-18 18l-11 12-8 9c-5 5-6 11-5 19l1 7c2 9 0 17-3 25l-6 12-4 7c-3 4-3 9-2 13l2 12.1c1 6 1 13-2 19-1 2 0 3 1 4a189 189 0 0 1 18 20c6 9 8 20 6 31l-1 5c-3 15.1-11 26.1-22 36.1l-11 8-11 8-7 5c-3 4-5 8-6 13l-1 3-2 1-2-1v-2c-1-7-1-13 1-20 2-5 5-9 9-12l8-6 16-13a41.4 41.4 0 0 0 11-45c-2-4-4-7-8-10l-7-6c-2-2-5-3-8 0-5 2-12 4-18 4h-10c-5 0-10 2-14.1 5l-6 5-7 6c-9 7-19 10-30 11h-6c-5 0-10 2-14 6l-6 8c-5.1 8-10.1 15-17.1 22-4 4-7 9-9 15-1 4-4 4-6 2l-2-3c-6-8-9-17-10-27l-1-23"/>
    <path fill="#FFF" d="M480.4 378.7c0-9-3-18-6-27l-1-2c-4-5-9-8-17-6-6 2-10 6-12 13-2 6-1 12 4 16l1 2c6 5 9 12 11 19 2 8 1 15-4 22l-4 7-3 9.1c-2 8-1 15 1 22l1 1 1-1c3-6 8-12 13-18l5-7c2-3 3-6 3-10v-6c0-4 0-8 2-12l2-7c2-4 3-9 3-15m3 4c1 7-1 13-2 19-1 8-4 15-6 22-3 8-8 15-14 21l-9 12-1 1h-1l-2-4a62.6 62.6 0 0 1 2-38l5-17v-10c0-4-2-8-5-11l-7-7-4-6c-4-7-2-15.1 5-19.1 6-4 13-5 20-4 3 1 6 2 9 5l4 7c4 9 7 19 6 29m-151.2-93 5-1c19-4 34-14 44-31.1v-1h-1l-9 3c-6 2-13 3-19 2-7-1-14-4-20-8l-9-8-8-6c-4-2-8-3-13-2-6 2-11 5-14 11-3 4-3 8-2 13 1 2 3 4 5 4l6 1c5 0 9 3 11 8l1 3c1 4 4 7 8 8 4 3 9 4 15 4m53-36c-1 4-2 8-5 11a67.2 67.2 0 0 1-36 25l-13 1c-9 0-18-3-25-11l-1-2c-3-3-6-5-10-6l-5-1c-4-2-6-5-7-9-1-6 1-11 4-15 6-9 16-12 26-10 6 1 12 4 18 8l8 6c10 8 21 9 33 6l12-4 1 1m-77 316.4v-4c0-4-2-6-5-7-6-1-11 2-13 8v2c-2 7 2 11 7 13 6 2 11-1 11-8v-4m-7-13 3 1c4 0 10 8 11 11l-1 6c-2 5-6 8-12 9-4 1-8-1-10-5-3-2-4-6-5-9s-1-5 2-7l6-4 6-2m65-46.1-4 1c-2 2-3 3-2 6l1 4c1 2 3 3 5 3 2 1 3 0 4-2l2-6c1-2 0-4-3-5l-3-1m1 16c-4-1-7-2-9-4l-1-3c-1-6 3-10 8-10 6 0 10 5 10 10 0 3-2 6-6 6l-2 1m62.1 50c0-4-2-7-5-7s-5 2-6 5c0 4 2 7 6 7 3 1 5-1 5-5m-5-9c3 0 6 1 8 4 2 2 2 5 0 8l-6 3c-5 1-10-2-9-7v-3c1-3 3-5 7-5"/>
    <path fill="#1E2346" d="M286.1 339.7c0-3-1-5-3-7l-2-1-1 1v1c0 3 2 5 4 7h1l1-1m-29 33h1l1-1v-1c-2-1-5-3-8-3l-1 1v2c2 2 4 2 7 2m12-39v-1l-1-1-1 1-2 2-3 7-6 7c-2.8 2.6-5.4 5.2-8 8v1l3-1c3-1 6-3 8-6l5-6 4-7 1-4m90.1 65-1-2c-1-5-3-10-7-14l-9-12c-3-5-7-9-12-12-7-5-15-8-23-10h-2l3 2 20 15 11 8c4 3 7 6 9 11a43 43 0 0 0 9 14l1 1 1-1m-30 34.1 2-1-2-1-1-1c-5-3-9-4-14-5-4-1-7-2-10-5l-9-8-22.1-20-1-1h-1l1 2 13 20c5 4 10 8 16 10l12 5c5 3 10 5 16 5m-93 67c0-13 1-26 3-39 6-21.2 9.7-43 11-65 0-7-3-12-8-16-4-3-6-6-7-11-2-6-6-11-10-15.1l-7-7c-2-3-2-6 0-9h2l1 2c1 1 3 1 3-1l1-2h1l3 4 3 5 2 4c4 4 10 4 13 0l2-5 2-5 4-3 4-2c6-5 5-12-2-15l-6-2-7-3v-1l3-1v-3l-3-1v-2c3-2 6-3 9-1l7 5c6 4.5 13.4 7 21 7l6 3 2 2c6 4 11 5 18 4l16-4c15.1-5 29.1-11 43.1-18l14-5c12-4 25-7 38.1-9a105 105 0 0 1 34 1l1 1-1 1c-6 4-10 9-15 14l-10 12-7 7c-6 7-9 16-10 25l-1 12c-1 6-3 13-6 19l-3 9-2 6c-2 6-2 13-1 19a47 47 0 0 1 2 26.1c-3 10-9 18-19 22-7 2-14 4-22 3-9-1-16.1 1-24.1 5l-9 6c-8 6-17 10-26 13l-8 2c-6 2-12 5-16 10L267 514l-11 15c-4.6 5-8.4 10.7-11 17h-1l-1-2c-3-8-6-17-6-26l-1-18m185.2-1v9c-2 13-9 24-19 32l-20 15c-7 5-12 10-15 17l-1 2-1 1v-2c1-7 4-12 8-17l8-7 14-12 9-9c9-12 12-26 9-41-2-10-9-17-17-23l-4-2 3-4 1-1 2-1c8 8 16 17 20 27 3 6 3 11 3 16m37-139.2c0-2 0-4-2-5h-2l-1 2 3 4 2 1v-2m22.1 20c0 5-1 10-3 14l-2 7c-2 4-2 8-2 12v6c0 4-1 7-3 10.1l-5 7c-5 6-10 12-13 18h-2c-2-7-3-14-1-22l3-9 4-7c5-7 6-14 4-22-2-7-5-14-11-19l-1-2c-5-4-6-10-4-16 2-7.1 6-11.1 12-13.1 8-2 13 1 17 6l1 2c3 9 6 18 6 28M303.1 254.6c0-2-4-6-6-6l-2 2v3c1 2 4 3 6 3l2-2m29 35c-6 0-11-1-15-4-4-1-7-4-8-8l-1-3c-2-5-6-8-11-8l-5-1c-3 0-5-2-6-4-1-5-1-9 2-13 3-6 8-9 14-11 5-1 9 0 13 2l8 6 9 8c6.1 4 13.1 7 20.1 8 6 1 13 0 19-2l9-3 1 1a62.2 62.2 0 0 1-44 31l-5 1m-24 284.4c0 7-5 10-11 8-5-2-9-6-7-13v-2c2-6 7-9 13-8 3 1 5 3 5 7v8m58-63.1 3 1c3 1 4 3 3 5l-2 6c-1 2-2 3-4 2-2 0-4-1-5-3l-1-4c-1-3 0-4 2-6l4-1m63.1 66c0 4-2 6-5 5-4 0-6-3-6-7 1-3 3-5 6-5s5 3 5 7"/>
    <path fill="#FFF" d="M329.2 432.8c-6 0-11-2-16-5l-12-5c-6-2-11-6-16-10a94.4 94.4 0 0 1-14.1-22h1l1 1 22 20 9 8c3 3 6 4 10 5 5 1 9 2 14 5l1 1 2 1-2 1m30.1-34-1 1-1-1-2-2c-3-4-6-8-7-12-2-5-5-8-9-11l-11-8-20-15.1-3-2h2c8 2 16 5 23 10 5 3 9 7 12 12l9 12c4 4 6 9 7 14l1 2m-90.1-65-1 4-4 7-5 6c-2 3-5 5-8 6l-3 1v-1l1-2 7-6 6-7 3-7 2-2 1-1 1 1v1m-12 39c-3 0-5 0-7-2v-2l1-1c3 0 6 2 8 3v1l-1 1h-1m29-33-1 1h-1c-2-2-4-4-4-7v-1l1-1 2 1c2 2 3 4 3 7m172.3 20v1h-2l-3-4 1-2h2c2 1 2 3 2 5M303 254.6l-2 2c-2 0-5-1-6-3v-3l2-2c2 0 6 4 6 6m155 242.9c0 .4-.2 6.8-.1 13.3-6.8.5-5.7-13.3-5.3-15 .2-1.4-4.4 1.7-6.6 3.8.7 1.3 1.7 1 2.9.5-.5 6.2 3.9 11.8 9 11.7.2 6.4.9 12.5 2.7 13 .2.1.5-6.5.6-13.7 12.2-3.8 7.5-18.3 7.5-18.3-.2-.8-2 .3-6 3.9 1.6 1.7 2.4.7 3.6.3 1 1.9 1.4 10.5-5.1 13l.3-18-.4-.2c-1.8.2-5 3.4-7.5 6 1.4 2.3 3 .3 4.5-.3m5.9 19.1 2.8 2.8 2.8-2.8-2.8-2.8-2.8 2.8Z"/>
  </g>
</symbol></svg>
