<svg xmlns='http://www.w3.org/2000/svg' viewBox='0 0 696 830' fill='none'><symbol id='KANV_EC_Fill'>
  <g fill="none">
    <path fill="#1E2346" d="m348.8 804.7 2-1 2-1 15-13a1546 1546 0 0 0 140-158.2l32-35c17.7-19.7 35.4-39.3 53-59.2a3294 3294 0 0 0 56-72 401 401 0 0 0 28-46.1v-4l-5-8-40-65.2c-16-24-33-46-53-68-10-11-20-23-28-36.1l-36-48-26-32.1c-14-17-28-33-44-48.1-12-12-24-25-37-36l-16-15a703 703 0 0 1-42-37.1c-1-2-2-2-3 0l-8 7-28 25a727.7 727.7 0 0 0-77 74.1c-31.5 33-59.9 69-85 107.2l-21 27-23 27-32 41.1c-17 25-32 51.1-48 77.1l-5 8v4l4 7c10 18.1 20 34.1 32 50.1l28 36.1 27 33 46 51.1 28 29 15 17.1 32 39 33 40.1 39 41 7 8 27 27.1 7 5 4 2m347-384.5-1 3-4 8c-13 24.1-28.5 47-46 68a2640 2640 0 0 1-55 68.2l-39 42-15 16-34 38.1-24 28-25 30.1-26 31-12 12a1560.5 1560.5 0 0 1-63 63.2c-2 2-5 2-7 0a227.4 227.4 0 0 1-36-34l-26-28.1c-9-10-19-20-27-31l-46-55.1-28-32.1-42-45a4089.9 4089.9 0 0 1-59-66.2c-24.7-32-48.4-64.7-71-98.1l-7-13c-3-6-3-5 1-11 14-25.9 29.4-51 46-75.2a470.5 470.5 0 0 1 50-65c16-17 30-35.1 43-54.1a927 927 0 0 1 165-183.3 517.6 517.6 0 0 0 37-34c4-3 4-3 7 0l5 5 36 32 18 16c30 27 58 56.1 84 87.1l29 36.1c12 16 25 32 36 49l35 44.1c19 20 36 42.1 51 65.1l37 60.1 11 17 2 4v2"/>
    <path fill="#FFF" d="M455.8 139.7h-1l-4-5-26-27-32-34a597.4 597.4 0 0 0-47-43.1l-50 51-10 11-25 27.1-23 23-2 3h1l2-1 29-16 36-12c8-3 16-4 24-5l20 1h4l18-1c8 0 15 1 22 3l20 7a217 217 0 0 1 43 19l1-1m-108 654 2-1 7-7 15-18 9-10 31-35a1040 1040 0 0 1 43-46.2l1-1h-1l-10 4c-12 7-25 11-39 14l-35 6a128 128 0 0 1-41 0l-32-6c-16-2-31-7-45-15l-14-7-2-1 2 3 26 27 26 29.1 30 35 14 14.1 12 14 1 1m198-216.3 1-1 2-2 17-21 34-47.1 34-44 15-19.1 21-26 1-1v-1l-1-1-18-21a1272 1272 0 0 1-93-135.3l-19-24-9-11h-1v1l1 2c4 7 8 14 10 22l14 35a329 329 0 0 1 23 119.2c.4 15.4 0 30.8-1 46.1l-2 21-5 39a181 181 0 0 1-23 66.2l-1 2v1m-366-369.6h-1l-8 9a4041 4041 0 0 0-47 62.1c-11 18-22 36.1-35 54.1s-25 36-39 53.1c-7 10-15 20-23 28l-1 1v2l7 7 17 21.1 26 33 32 44.1 39 50 12 15.1 3 3h1l-2-3a274.7 274.7 0 0 1-27-63c-3.5-20.4-6.5-40.7-9-61.2l-2-20v-31l1-31.1a445 445 0 0 1 19-92.1l16-41.1c4-10 9-21 15-31l5-8 1-1m393 229.3-1-21-2-33a368.4 368.4 0 0 0-18-85.2l-20-51.1c-4-11-10-22-16-32a571.9 571.9 0 0 0-46-58.1c-9-8-20-15-32-20a270.9 270.9 0 0 0-71-18l-16-1-18 1-6 1-26 5-33 10c-21.4 7.4-40 21-54 39l-28 38c-7 11-13 23-18 35.1l-13 34-7 21a291.1 291.1 0 0 0-16 70.2l-3 33-1 19a234 234 0 0 0 5 66.2l5 20c11 45.7 34.6 87.2 68 120.2l16 16a168.2 168.2 0 0 0 73 41l25 5 11 2c16.3 1.7 32.8 1 49-2h1l25-5c25-6 47-19 67-36a554 554 0 0 0 43-45c20.1-25.6 35-54.8 44-86.2l7-27c4-18.5 6-37.3 6-56.1m-224 367.5-4-2-7-5-27-27-7-8-38-41-34-40.1-32-39.1-15-17-28-29-46-51.1-27-33.1-28-36a427 427 0 0 1-32-50.1l-4-7v-4l5-8c16-26.1 31-52.1 48-77.2l32-41 23-27 21-27.1c26.4-37.3 54.8-73 85-107.2 36.1-38 74.9-73.6 116-106.1l4 3 38 34 16 15c13 11 25 24 37 36 16 15.1 31 31.1 45 48.2l25 32 36 48c8 13.1 18 25.1 28 36.1 20 22 37 44.1 53 68.1l40 65.1 5 8v5l-3 5a405.2 405.2 0 0 1-49 72.2c-15.8 20-31.8 39.6-48 59l-37 40.1-32 35c-12 12.1-23 25.1-34 39.1a2221 2221 0 0 1-106 119.2c-5.4 5-11.1 9.7-17 14l-2 1"/>
    <path fill="#1E2346" d="M174.8 416.2a274.5 274.5 0 0 0 44 144.2c11 15.4 23.8 29.5 38 42l36 22a149 149 0 0 0 59 15h5c12-2 23-5 35-9 17-8 33-17 48-28 7-4 13-10 19-16l12-14c7-9 14-19 19-30l13-28.1c8.7-19.3 14.5-40 17-61 5.7-43.6 1.6-87.7-12-129.3a230 230 0 0 0-45-80.1l-15-17-19-20-11-9a148 148 0 0 0-58-24.1l-14-1-19 4a182 182 0 0 0-43 18l-18 15c-6 4-11 10-15 16l-9 10-20 26.1a232 232 0 0 0-34 71.1 960.8 960.8 0 0 0-11 53.1c-2 8-2 17-2 30m398 21a241 241 0 0 1-6 56.2l-7 27a221 221 0 0 1-44 86.1l-12 14-31 31.1c-20 17-42 30-68 36l-24 5h-1c-16.2 3-32.7 3.7-49 2l-11-2-25-5a147.6 147.6 0 0 1-73-41l-17-16c-33-33-56.3-74.6-67-120.2l-5-20a241 241 0 0 1-5-66.1l1-19c2.1-21 4.4-42.1 7-63.2 3-13 7-27 12-40l7-21 13-34.1c5-12 11-24 18-35l28-38.1c14-18 32.6-31.6 54-39a362.5 362.5 0 0 1 65-16l18-1 16 1c24.4 2.7 48.3 8.7 71 18 12 5 23 12 32 20a571.9 571.9 0 0 1 46 58c6 10 12 21 16 32.1l20 51a282 282 0 0 1 18 85.2l2 33 1 21"/>
    <path fill="#1E2346" d="m179.8 207.8-1 1-5 8c-6 10-11 21-15 31.1l-16 41a285.3 285.3 0 0 0-19 92.2l-1 31v31.1l2 20 2 18c1 14 3 29.1 7 43.1 2 11 6 21 10 31a275.8 275.8 0 0 0 19 35.1h-1l-3-3-12-15-39-50-32-44.2-26-33-17-21-7-7v-2l1-1c8-8 16-18 23-28 14-17.1 26-35.1 39-53.2 13-18 24-36 35-54 15.5-20.6 31.2-41 47-61.1l8-10h1m366 369.5v-1l1-2a235 235 0 0 0 23-66.1l5-39 2-21.1c1.2-15.3 1.6-30.7 1-46a592.3 592.3 0 0 0-9-75.2c-4-15-8-30-14-44l-13-35.1c-3.5-8.3-7.6-16.3-12-24v-1h1l9 11c11.8 15.8 23.5 31.8 35 48a1045 1045 0 0 0 95 132.3l1 1v1l-1 1-21 26-15 19-34 45-34 46.2-17 21-2 2-1 1m-198 216.3-1-1-12-14-14-14-30-35-26-29.1-26-27-2-3 2 1 14 7c14 8 29 13 45 15 17.3 2.5 34.6 4.9 52 7l21-1 35-6c14-3 27-7 39-14l10-4h1l-1 1-2 2-41 44-31 35-9 10-15 18.1-7 7-2 1m108-654-1 1-3-2c-12-7-26-13-40-17l-20-7c-7-2-14-3-22-3l-18 1h-4l-20-1c-8 1-16 2-24 5a364.3 364.3 0 0 0-67 29h-1l2-3 23-23 25-27 10-11 50-51.1c3-2 3-3 5 0l42 43 32 34 26 27.1 4 5h1"/>
    <path fill="#FFF" d="M445.8 252c-7 0-14 2-21 5-8 3-16 8-23 14l-1 1 2 1h19l11-5 7-3c4-3 9-3 14-2l6 1h5c2 0 2-1 2-2l-3-5c-1-2-2-3-4-3l-14-2m-192 0-17 3-2 1-3 6v1l8 1 6-1c5-1 10-1 14 2l8 4c6 3 12 5 19 4h11l1-1-1-2-17-11c-8-4-17-6-27-7m164 68 2 14h1l1-1c2-5 6-10 10-15l3-3c5-5 9-10 11-17 3-6 7-10 13-13l8-3 6-5 1-3-4-6c-1-2-1-2-3-1h-1c-11 4-21 10-30 18-5 5-10 11-13 18-3 5-5 11-5 17m-136 1v-7c-2-7-5-14-10-20a89.9 89.9 0 0 0-41-29c-1 0-2 0-3 2l-3 5 1 3c3 4 6 7 10 8l6 3c5 2 9 5 11 10l2 4c2 5 5 10 9 14l3 3a52.1 52.1 0 0 1 12 17v1l1-1 2-13m181-3v3c1 9 3 19 7 27l9 17 8 16.1 2 7 1 1v-1l4-8c2-9 0-18-6-25l-4-4-5-6-4-10v-7l3-6c2-4 3-8.1 3-13.1 0-4 1-8 3-11v-5l-6-11h-2l-1 2c-4 5-6 11-9 17-2 5-3 11-3 17m-226 1c0-6 0-9-2-14-2.7-9-6.8-17.3-12-25h-2l-7 13v2c4 4 5 8 5 13s2 10 4 15l1 1c3 7 2 13-2 19l-5 6-5 7c-3 2-4 6-5 9-3 8-1 16.1 3 23.1l1 1v-1l4-11 8-16c4-5 7-11 9-17 3-8 5-17 5-25m112 315.4 10-2h4c10-3 20-6 29-11 15-7 28-16 41-25h1v-2l-2-3c-2-3-2-6-1-9l1-2.1v-1h-2l-17 3c-9 3-18 7-27 13l-18 9c-6 3-12 4-18 3-6 0-12-2-16-7-3-3-4-7-4-11l3-6-1-1h-7c-9 1-18 3-26 6l-28 10-1 2 3 2 21 13c8 5 17 9 26 12l19 5 10 2m-19-54h3c4 0 4 1 3 4-2 4-2 8 1 11l6 5 13 2 15-4 13-6c8-5 17-9 26-12a64.3 64.3 0 0 1 25-3c1 1 2 1 1 2l-1 2v6l2 3h4l4-3 20-20c9-9 17-20 22-32 1-1 2-3 0-4-3-3-4-6-3-10v-1l-1-1h-2c-9 2-18 4-26 8l-21 10-18 6c-6 1-12 1-18-1-4-1-8-3-10-6-4-4-5-9-3-14l1-1-1-1h-1c-6 0-12 1-17 3l-27 11-16 7c-5 3-11 4-17 5-5 0-10 0-15-2l-8-5c-4-5-5-11-1-16l2-2v-1h-1l-7 1c-11 2-21 5-31 9s-20 8-30 10h-1l-1 2 1 2a217.5 217.5 0 0 0 33 38l14 12 5 1 3-1 21-6c13-4 26-7 39-8m-148-158.2 3 37c2 14 5 28 10 42l14 31.1c3 5 1 5 8 3l17-5 35-11 17-2h3l1 1v2l-2 2-2 3c-2 3-2 7 1 9l4 4 9 2 15-1 20-7 22-9a99 99 0 0 1 32-5l1 2-2 2c-2 3-1 6 1 9 1 2 3 4 6 5 4 2 9 3 15 3l16-4a512.2 512.2 0 0 0 40-16 86.8 86.8 0 0 1 21-2l1 1-1 1c-2 4 0 6 2 9h2l2-3 5-11a184 184 0 0 0 17-75.1c.5-23.4-1-47-5-70.1l-8-30a204.5 204.5 0 0 0-14-37.1l-1-1-1 2v4l-3 19v10l6 15 4 6 3 7a37.3 37.3 0 0 1-7 29.1h-2v-2l-4-10-8-11-11-20a86.4 86.4 0 0 1-4-40.1l4-15 4-7h-1s0-1 0 0l-9 4c-2 1-4 3-5 6l-2 5c-2 5-5 9-9 12l-8 8a47.6 47.6 0 0 0-12 14h-2l-2-7c-3-10-2-19 2-27 3-6 6-11 11-16 6-8 14-14 23-19h2l1-1-1-1c-4-1-8 0-12 2l-6 5c-6 4-13 6-20 5l-3-1c-6-1-11-3-17-2l-2-1 1-1 1-2 17-13a58 58 0 0 1 44-7l1-1-2-2.1-10-14c-7-8-14-15-22-20l-9-6c-7-5-15-10-24-14l-37-13.1c-5-2-9-2-14 0l-26 9c-10 3-19 7-28 13l-18 12-16 14-9 11-7 9.1v2h2l8-1c12-2 23 1 33 6 8 4 15 9 21 15l2 2-1 2h-1c-5-1-10 1-15 2l-7 1c-5 1-10 0-14-3l-6-4-4-3a14 14 0 0 0-13-2v1l3 2c15 7 25 18 33 32 4 7 6 15.1 4 24.1l-3 12h-2l-1-2-9-10-6-5c-6-5-10-11-13-19l-1-2c-2-4-4-7-8-9l-4-2h-3c-1 1 0 2 1 3l2 4c4 9 6 18 5 28l-1 13c-1 9-5 18-10 26l-8 12c-4 5.1-7 11.1-9 18.1v1h-3l-5-14c-2-8-1-16 3-23l4-7 4-10c2-5 3-10 1-15l-2-14.1-1-6-1-5h-2l-1 1-13 35-8 30c-3 11.1-5 21.1-6 32.1l-1 25m-7-6a252.1 252.1 0 0 1 23-113.1 234 234 0 0 1 44-67.1l9-10c4-6 9-12 15-16l18-15 10-6c16.4-8 34-13.4 52-16.1l14 1a148 148 0 0 1 58 24l11 9 19 20 15 17.1a232.8 232.8 0 0 1 50 100.1 814 814 0 0 1 9 49.1 271.7 271.7 0 0 1-63 193.3c-6 6-12 12-19 16-15 11-31 20-49 28-11 4-22 7-34 9h-5c-8 1-16-1-24-3-12-2-24-7-35-12l-36-22a252.6 252.6 0 0 1-48-57l-18-40.1a276.7 276.7 0 0 1-16-89.1"/>
    <path fill="#1E2346" d="m491.8 508.3-4 1-1 1h1l4 1c2 0 3 0 5-2l-5-1m-285-20 6-1v-2l-6-1h-5l-2 1 2 2 5 1m199 39h2l6-1v-1l-1-1c-4-1-7-2-11-1l-3 1v2l7 1m-192-19c9 1 16 0 23-1l5-1c-2-2-4-1-6-2h-22l-12 1-2 1 2 1 12 1m108 1h10l6-1 2-1v-1l-4-1-10-1c-10-1-20-1-30 0l-2 1 2 1 3 1c7 2 15 2 23 2m121-3 21-1 19-3 5-1h1l-1-1h-2l-15-1-24 1-18 3-4 1v1l4 1h14m-184-94.2-19 1-5 1c-3 0-4 2-5 4l-1 4-2 14 1 26.1v8l-1 13v5l3 3 14 1 21 2h24l10-1 8 1 11 1h33l27 1 16-2h18l15 1 31-3 12-1c2 0 3-1 3-3v-5l-1-14v-7l1-8c1-11 0-21-2-31l-1-6-3-3h-2c-15-1.9-30.1-1.9-45 0-7 1-15 2-23 1h-6l-22-1-14-1c-2 0-2 0-2-2v-12a68 68 0 0 1 3-20.1c1-1 1-2 2-1 9 1 17 3 24 8a235.1 235.1 0 0 0 86 27l8-1v-1l-8-2-26-8c-14-5-28-10-41-17-14-7-27-14-39-22l-8-5c-2-2-5-2-8 0l-4 2a564 564 0 0 1-58 32c-18 8.1-36.8 14.5-56 19-1 0-3 0-4 2h7l15-2a234.8 234.8 0 0 0 82-29c5-1 9-3 14-3 1-1 2 0 2 1l2 5c2 9 2 18 1 27 0 2 0 2-2 2l-15 1-22 1c-8 1-16 0-24-1l-25-2m-77 10 1-25c4.5-20.7 9.2-41.4 14-62 3.6-12.5 8.3-24.5 14-36.1h2l1 5 1 6 2 14c2 5 1 10-1 15l-4 10-4 7c-4 7-5 15-3 23.1l5 14h3v-1c2-7 5-13 9-18l8-12c5-8 9-17 10-26l1-13a54 54 0 0 0-5-28.1l-2-4c-1-1-2-2-1-3h3l4 2c4 2 6 5 8 8l1 3c3 8 7 14 13 19l6 5c4 3.4 7.4 7.4 10 12h2l3-12c2-9 0-17-4-24a73 73 0 0 0-36-34v-1h6l7 2 4 3 6 4c4 3 9 4 14 3l7-1c5-1 10-3 15-2h1l1-2-2-2c-6-6-13-11-21-15a56.1 56.1 0 0 0-41-5h-2v-2.1l7-9 9-11 16-14 18-12c9-6 18-10 28-13l26-9.1c5-2 9-2 14 0l37 13c9 4 17 8 24 14l9 6c8 5 15 12 22 20l10 14.1 2 2-1 1h-1c-16-3-30-1-43 7-6.5 4.4-12.5 9.4-18 15l-1 1 2 1c6-1 11 1 17 2l3 1c7 1 14-1 20-5l6-5c4-2 8-3 12-2l1 1-1 1h-2a71 71 0 0 0-34 35c-4 8.1-5 17.1-2 27.1l2 7h2l1-2c3-5 7-8 11-12l8-8c4-3 7-7 9-12l2-5c1-3 3-5 5-6l9-5v1h1l-4 7a66.4 66.4 0 0 0-5 32c1 8 2 16 5 23l11 20 8 11.1 4 10v2h3c5-9 8-19 6-29l-3-7-4-7c-2-4-5-9-6-15v-9l3-19.1v-4l1-2 1 1a446 446 0 0 1 14 37l8 30c5.5 37.2 5.2 75.2-1 112.3a185.4 185.4 0 0 1-18 47h-2c-2-3-3-5-2-9l1-1-1-1-4-1-17 3-27 10c-9.6 3.6-19.2 7-29 10-6 0-11-1-15-3-3-1-5-3-6-5-2-3-3-6-1-9l2-2-1-2h-5c-9 0-18 2-27 5l-22 9-20 7-15 1-9-2-4-4c-3-3-3-6-1-9l2-3 2-2v-2l-1-1h-3l-17 2-35 11-17 5c-7 2-5 2-8-3l-14-31c-5-14-8-28-10-42l-3-37.1"/>
    <path fill="#1E2346" d="M329.8 580.4c-13 1-26 4-39 8l-21 6-3 1-5-1-14-12-19-19c-6-6-10-12-14-19l-1-2 1-2h1c10-2 20-6 30-10s20-7 31-9l7-1h1v1l-2 2c-3 5-3 11 1 16l8 5c5 2 10 2 15 2 6-1 12-2 17-5l16-7 27-11a91.3 91.3 0 0 1 18-3l1 1-1 1c-2 5-1 10 3 14 2 3 6 5 10 6 6 2 12 2 18 1l18-6 21-10c8.9-4 18.4-6.7 28-8l1 1v1c-1 4 0 7 3 10 2 1 1 3 0 4-5 12-13 23-22 32a289.9 289.9 0 0 1-24 23h-3l-3-3v-6l1-2c1-1 0-1-1-2h-3l-22 3c-9 3-18 7-26 12l-13 6-15 4c-5 0-9 0-13-2l-6-5c-3-3-3-7-1-11 1-3 1-4-3-4h-3"/>
    <path fill="#1E2346" d="m348.8 634.5-10-2-19-5c-9-3-18-7-26-12l-21-13-3-2 1-2 28-10c8-3 17-5 26-6h7l1 1-3 6c0 4 1 8 4 11 4 5 10 7 16 7 6 1 12 0 18-3l18-9a97.5 97.5 0 0 1 44-16.1h2v1l-1 2c-1 3-1 6 1 9l2 3v2h-1c-13 9-26 18-41 25-9 5-19 8-29 11h-4l-10 2M236.8 319c0 8-2 17-5 25-2 6-5 12-9 17l-8 16.1-4 11v1l-1-1c-4-7-6-15-3-23 1-3 2-7 5-9l5-7 5-6c4-6 5-12 2-19l-1-1c-2-5-4-10.1-4-15.1s-1-9-5-13v-2l7-13h2l3 5c4 6 7 13 9 20 2 5 2 8 2 14m226-1c0-6 1-12 3-17 2.7-6.7 6-13 10-19h2l6 11v5c-2 3-3 7-3 11s-1 9-3 13l-3 6v7c1 4 2 7 4 9l5 7 4 4c6 7 8 16 6 25.1l-4 8v1l-1-1-2-7-8-16-9-17c-4-8-6-18-7-27v-3m-181 3-2 13-1 1v-1c-3-7-7-12-12-17l-3-3.1c-4-4-7-9-9-14l-2-4c-2-5-6-8-11-10l-6-3c-4-1-7-4-10-8l-1-3 3-5c1-2 2-2 3-1 16 5.2 30.2 15 41 28 5 6 8 13 10 20v7m136-1c0-6 2-12 5-17 3-7 8-13 13-18a88 88 0 0 1 31-18c2-1 2-1 3 1l4 6-1 3-6 5-8 3c-6 3-10 7-13 13-2 7-6 12-11 17l-3 3c-4 5-8 10-10 15l-2 1-2-14m-164-68c10 1 19 3 27 7a121 121 0 0 1 18 13l-1 1h-11c-7 1-13-1-19-4l-8-4c-4-3-9-3-14-2l-6 1-8-1v-1l3-6 2-1 17-3m192 0 14 2c2 0 3 1 4 3l3 5c0 1 0 2-2 2h-5l-6-1c-5-1-10-1-14 2l-7 3-11 5h-19l-2-1 1-1c7-6 15-11 23-14 7-3 14-5 21-5"/>
    <path fill="#FFF" d="m349.8 370 8 1 1-1-1-1-9-6-7 7v1l8-1m-2 63.2v-13c-1-1-1-2-3-2h-4c-4 1-4 1-4 5 1 6 2 13 0 19l1 10v9c0 2 1 2 3 2l3-2 3-9 1-19m5-2h-1l2 19v6l2 5c1 2 3 2 5 2l1-1 1-13v-10l-1-12 1-6c1-2 0-2-1-2l-8-1-1 2v11m-60-13h-8l-1 2v6l-1 10v11c1 4 2 8 1 12-1 1 0 2 1 2l9 1 1-2 1-6 1-10v-15l1-10-1-2-4 1m123 7 1-5c0-1 0-2-2-2l-11-1c-2 0-2 1-2 2l1 14v11l1 6 1 11 2 1 7-1h2l1-1v-14l1-8-2-13m-17 3v-9l-2-1-12 3 2 13v13c-2 5-2 10-2 15 0 2 1 3 2 2l11-1c1 0 2 0 1-2l1-9v-7c-1-5-2-11-1-17m-98 31v2l1 2 11 2h1l1-2c0-5 1-10-1-14v-30l-10-1h-1l-1 1v2c0 8 0 16-2 23v9l1 6m80-26v-12l-2-2h-10l-1 1v16l-1 5-1 12c1 3 2 5 1 9l2 2h8l4 1 1-2 1-8-1-5-1-10v-7m-62-1v3c1 5 1 11-1 16v13h1l2 1 12-3 1-8c1-5 0-10-1-14-2-6-2-11-1-16l1-3c0-2-1-2-2-2l-12 2v11m117-4v-5c0-2 0-2-2-3l-13 1v15l-1 11c1 4 2 8 1 13l1 1 14-1 1-12v-6l-1-14m-165 33h7l2-2-1-7 1-6v-8c-1-5.6-1.3-11.3-1-17l-1-2h-1l-10 1c-3 1-3 1-3 3v36c0 2 0 3 3 2h4m194-40v-1l-1-1h-1l-15 1-5 1c-2 0-2 0-2 2 1 6 0 13-1 19v7c1 4 2 8 1 12-1 1 0 1 1 1l2 1 23 7c1 1 1 0 2-1 1-3 0-6-1-9l-3-27v-12m-234 45 1 3 1 1h1l15-5 9-2 2-2v-20a50.8 50.8 0 0 1 0-19l-2-1h-1l-16-2h-4l-2 1v9c1 11 0 21-3 32l-1 5m119 8h50l29-2 25-1h2v-1a897 897 0 0 0-22-6l-11 2c-9 2-17 2-25 1h-18l-12 1-13-1h-74l-14-2h-4l-18 5h-1v1h2l24 1 27 1 26 1h27m93 14 22 1 1-1 2-2v-10c0-2 0-2-2-2h-3l-19 1-26 1-7 1-17 1h-72l-20-1a815.3 815.3 0 0 0-70-2v10c0 2 1 3 3 4l3-1 39 1h5l22 2h8l31-1h14l29 1h9l17-1c11-2 21-2 31-2m-184-76 25 2c8 2 16 2 24 1l22-1 17-3c1-9 1-18-1-27l-2-5.1c0-1-1-2-2-1a87.9 87.9 0 0 0-25 8c-11 7-23 11-35 15l-36 9-15 2h-7l26-9c32.9-9 64-23.6 92-43l4-3c3-2 6-1 8 0l8 5a432 432 0 0 0 80 39l27 8 7 2v1h-7c-30.4-2.9-60-11.8-87-26-7-5-15-7-23-8-2-1-2 0-3 1l-1 4-2 16v12c5.3 1.1 10.7 2.2 16 3l22 1h6c8 1 16 0 23-1l15-2 30 2 2 1c2 0 3 1 3 2l1 6a137 137 0 0 1 1 46.1 67.7 67.7 0 0 1 1 19c0 2-1 3-3 3l-12 1-31 3c-5 1-10 0-15-1h-18l-16 2-27-1h-33l-11-1h-18c-8 2-16 1-24 0l-21-2-14-1c-1 0-2-1-2-3l-1-5 1-13v-8l-1-26 2-14 1-4c1-2 2-4 5-4l5-1 19-1m171 94-5-1v-1l4-1 18-3 24-1 15 1h2l1 1-6 1-19 3-21 1h-13m-108 3.1a103 103 0 0 1-26-3l-2-1 2-1 5-1h25l11 2 3 1v1l-2 1-6 1h-10m-108-1-12-1-1-1h-1l2-1 12-2 22 1c2 1 4 0 6 2l-5 1c-7 1-14 2-23 1m192 19-7-1v-2l3-1c4-1 7-1 11 1l1 1v1l-6 1h-2m-199-39-5-1-2-2 2-1h5l6 1v2l-6 1m285 20 5 1c-2 2-3 2-5 2l-4-1h-1l1-1 4-1"/>
    <path fill="#1E2346" d="M442.8 488.3c-10 0-20 0-31 2l-17 1h-9l-29-1h-14c-13-.5-26-.2-39 1l-22-2h-5l-39-1h-3c-2 0-3-1-3-3v-10l2-1h3a640 640 0 0 0 65 3l20 1h72l17-2h7l26-1 19-1h3c2 0 2 0 2 2v10l-2 2h-23m-93-14h-27l-26-1-27-1-26-2h1l18-5h4l14 2h74l13 1 12-1h18c8 1 16 1 25-1 4.7-.5 9.3-.9 14-1l17 6-25 1-29 2h-50m-119-8 1-5c2-11 3-21.1 3-32.1v-9l1-1h5l15 2h2l2 1-1 2c-1 6 0 12 1 17v20l-2 2-9 2-15 5h-1l-1-1-1-3m234-33 3 27c1 3 2 6 1 9-1 1-1 2-3 1l-22-7-2-1c-1 0-2 0-1-1 1-4 0-8-1-12v-7c1-6 2-13 1-19 0-2 0-2 2-2l5-1c5.4 0 10.7-.3 16-1l1 1v13m-194 28h-4c-3 1-3 0-3-2v-36c0-2 0-2 3-3l10-1h1l1 2v1l1 16v8l-1 6 1 7-2 2h-7m165-33 1 14v6l-1 12h-16c2-5 1-9 0-14l1-10v-15l2-2 11 1c2 1 2 1 2 3v5m-117 4v-11l13-1v4c-1 5-1 10 1 16 1 4 2 9 1 14l-1 8-1 2-14-1v-12c2-5 2-11 1-16v-3Zm62 1v7l1 10 1 5-1 8-1 1h-12c-2-1-2-1-2-3 1-3 0-5-1-8l1-12 1-5v-16l1-1h10l2 2v12m-81 20v-9c2-7 2-15 2-23v-2l1-1h1l10 1v30c2 4 1 9 1 14l-1 1h-1l-11-1-1-2-1-8m99-25c-1 6 0 12 1 17v7l-1 9c1 2 0 2-1 2l-11 1c-1 1-2 0-2-2 0-5 0-10 2-15v-13l-2-13 1-2h13v9m17-3 2 13-1 8v14l-1 1h-11l-1-11-1-6v-11l-1-14c0-1 0-2 2-2l11 1c2 0 2 1 2 2l-1 5m-123-7 4-1 1 2-1 10v15l-1 10-1 6-1 2-10-3c1-4 0-8-1-12v-11l1-10v-6c-1-1 0-1 1-2h8m60 13v-11l1-2 8 1c1 0 2 0 1 2l-1 6 1 12v10l-1 13-1 1c-2 0-4 0-5-2l-2-5v-6l-1-19m-6 21-3 9-3 2c-2 0-3 0-3-2 1-3 0-6-1-9v-10c2-6 1-13 0-19 0-4 0-4 4-5h4c2 0 2 1 3 2v13l-1 19m3-82.1-8 1v-1l7-7h2l7 8-8-1"/>
    <path fill="#FFF" d="M437.8 355.9c0 .4-.3 6.8-.2 13.3-6.8.5-5.7-13.3-5.3-15 .2-1.4-4.4 1.7-6.6 3.8.7 1.3 1.7 1 2.9.5-.5 6.2 3.9 11.8 9 11.7.2 6.4.9 12.5 2.7 13 .2.1.5-6.5.6-13.7 12.2-3.8 7.5-18.3 7.5-18.3-.2-.8-2 .3-6 3.9 1.6 1.7 2.4.7 3.6.3 1 1.9 1.4 10.5-5.1 13l.3-18-.4-.2c-1.8.2-5 3.4-7.5 6 1.4 2.3 3 .3 4.5-.3m5.9 19 2.8 2.9 2.8-2.8-2.8-2.8-2.8 2.8Z"/>
  </g>
</symbol></svg>
