<svg xmlns='http://www.w3.org/2000/svg' viewBox='0 0 696 830' fill='none'><symbol id='LROC_EC_Fill'>
  <g fill="none">
    <path fill="#1E2346" d="m677.7 416.7-1-2-4-7a2166.4 2166.4 0 0 0-60.1-93.1l-38-46c-7-8-14-15-19-24.1l-22.1-30a1312 1312 0 0 0-76.1-92.1l-24-24a389 389 0 0 0-42.1-39l-39-36.1-2-1c-3-3-2-3-5 0l-7.1 6-28 25A721.7 721.7 0 0 0 203 162.4c-27.4 32-53.2 65.4-77.1 100.1l-22 26c-13 15-24 29-34 45a1090.4 1090.4 0 0 0-45.2 71.1l-5 9c-2 2-2 4-1 7l2 2 3 6c10 18 22 35.1 34 52.1 17.1 21.6 34.5 43 52.2 64l34 39.1 43 46 21.1 24 37 45.1 28.1 31 19 22 37 38 14.1 12.1c4 3 5 3 9 0l15-13 41.1-42 20-23 41-49.1 38.1-44 32-34 34.1-38.1c20-21 38.3-43.5 55.1-67l21-29.1c10-13 18-27 26-41l1-3 1-1m18.1 2-1 4-3 5a439.6 439.6 0 0 1-47 70 2057.9 2057.9 0 0 1-56.1 69l-36 39.1-19.1 20-37 41-26.1 32.1c-20.5 24-41.2 47.6-62.1 71-18.1 19.3-36.9 38-56 56.1-4 3-5 3-9.1 0l-17-15c-24-25.4-47.7-51.1-71.1-77l-46-55.1-28.1-32-41-45a3933.3 3933.3 0 0 1-66.2-75.1l-36-46a308 308 0 0 1-31-48.1l-5-8-1-2v-8l9-14c22.3-36 45.6-71.5 70-106.2l19-22 31.1-37 20-28c20-26 40.3-51.8 61.1-77.1 37.8-43 79-82.8 123.2-119.1l9-9c5-4 4-4 8 0l13 11 28 25 18.1 16a758 758 0 0 1 102.1 109.1l33.1 44 21 29 20 25.1a867 867 0 0 1 55.1 69c15 22.1 29 45.1 42 67.1l10.1 16 2 3v2"/>
    <path fill="#FFF" d="m455.4 139.4-3-2-28-30-32.1-34-36-38-7-6.1h-3l-1 1a1478.9 1478.9 0 0 0-87.2 90l-21 22.1-2 3v1l3-2a391.9 391.9 0 0 1 66-29c11-3 24-4 36.1-3h18c12-1 24 0 35 3l21.1 7 24 10 14 7 2 1h1v-1m0 535.5h-1l-3 2a162.5 162.5 0 0 1-59 19l-31 4c-10 1-20.1 1-30.1-1l-35-5a163.5 163.5 0 0 1-60.1-24v1l1 2 11 10 22 24 35 39 27 31 13.1 14 1 1h2l2-1 11-12 15-16 23-26 30.1-35 24-24 1-2 1-1m74.2-453.4v1l1 3 9 18 18 48c9 23.5 14.7 48 17 73.1a397 397 0 0 1 1 98.1l-4 32-4 26a197 197 0 0 1-22 56.1l3-3c30.5-36.2 59.3-74 86.1-113.1l26-32 9-11 1-1v-2h-1l-20-25a2410.2 2410.2 0 0 1-91-131.2l-18.1-24-10-11-1-2M160.9 589.8l-2-4c-11-18.8-19.9-39-26-60-4-13-6-27-7-41l-3-24.1-2-25a439.7 439.7 0 0 1 21-148.2l15-38c5-13 11-26 19-38l2-2v-2 1l-8 8-23 29c-10 12-19 25-27 38a863.9 863.9 0 0 1-74.1 107.1l-21 24v2l6 7c44 53.7 86.8 108.5 128.1 164.2l2 2v1-1m-35-159.1c-.3 36.9 6.1 73.5 19 108 12.2 33.1 31.4 63 56.1 88.1l18 18a171 171 0 0 0 71.1 41.1l26 6 12 2 24.1 2 6-1c6 0 12 0 18-2l13-2 21.1-5c23-7 44-19 61-35a538 538 0 0 0 44.2-44 259 259 0 0 0 53-129.2l4-33-1-28-2-29a439.1 439.1 0 0 0-20-94.2l-17-45-16-32a547.7 547.7 0 0 0-46.1-58 95 95 0 0 0-34-22.1 347 347 0 0 0-73.2-18l-21-1-8 1-23 3a402.5 402.5 0 0 0-65.1 23c-13 8-24 18-33 29l-28.1 38c-8 12-14 25-19 38.1l-15 39a320.3 320.3 0 0 0-23.1 116.1l-2 26m551.8-14-1 2-1 3c-8 14-16 28-26 41.1a1302.8 1302.8 0 0 1-76.2 96l-34 38.1-32 34-38.1 44-41 49.1-20.1 23a1322 1322 0 0 1-56 55.1c-4 3-6 3-9.1 0l-14-12-37-38-20.1-22-27-31-37-45.1-21.1-24-43-46a2172.8 2172.8 0 0 1-86.2-103.2c-12-17-24-34-34-52l-4-6-1-2v-7l6-9c14-24 29-48.1 45-71.1 10-16 21-30 34-45l22-26 22.1-28.1A1205.5 1205.5 0 0 1 276.1 84.4a748.6 748.6 0 0 1 62.1-56.1l7-6c3-3 2-3 5 0l2 1 39 36c15.1 12 29.1 25 42.1 39l24 24a728.9 728.9 0 0 1 76.2 92.2l21 30 19 24c38.9 42 72.2 88.7 99.2 139.1l4 7 1 2"/>
    <path fill="#1E2346" d="M174 412.7c0 16 1 32 4 48 3 17 8 35 15 51l15 32 12 21 14 17.1c8 9 17 17 27 24l24.1 14c16 9 33 15 51 18l5.1 1c7 0 14 1 21-1l6-1 29-10c12.1-5 23.1-12 34.1-18 9-6 17-13 24-20l15-17c7.1-9 14.1-19 19.1-30l13-27a206 206 0 0 0 17-60.1c3-18.5 3.7-37.3 2-56l-2-27c-5.1-21.6-11.2-43-18-64.1-10-23-23-45-39-64.1l-14-15-8-10c-7-8-15-15-24-21-6.1-5-12.1-9-19.1-12l-13-5c-9-3-18-6-27-7l-10-1-21.1 4c-10 2-19 6-28 10l-19 11-15.1 13-13 13-7 9-16 18c-14 17.4-25.3 37-33.1 58l-8 22c-4.3 19.4-8.3 38.7-12 58.1l-1 24m-48.1 18 2-26c1.5-18.4 3.5-36.7 6-55 3-21 9-41 17-61l15-39.1c5-13 12-26 19-38l28.1-38a132.3 132.3 0 0 1 56.1-40.1c21-7.4 42.9-12.4 65-15l8.1-1 21 1 23 3c17 4 34.1 9 50.1 15 13 5 24 12 34 22a534.3 534.3 0 0 1 46.2 59c6 9 11 20 16 31.1l17 45a303.3 303.3 0 0 1 20 94.1l2 29 1 28-4 33.1a528.4 528.4 0 0 1-21 76c-17 38-42.7 71.2-75.1 97.2-18 16-39 28-62.1 35l-21 5-13 2c-6 2-12 2-18 2l-6 1-24.1-2-11-2-27-6c-11-3-22.1-7-33.1-13-14-8-26-17-38-28l-18.1-18a249.5 249.5 0 0 1-71.1-146.2 199.7 199.7 0 0 1-4-50"/>
    <path fill="#1E2346" d="M161 589.8v1-1l-2-2-58.1-73a1666.3 1666.3 0 0 0-70.1-91.1l-6-7v-3c8-7 14-15 21-23 26.3-34.6 51-70.3 74-107.2 8-13 17.1-26 27.1-38l23-29 8-8v-1 2l-2 2c-8 12-14 25-19 38l-15 38a287 287 0 0 0-18 77.1c-3 32-3.2 64-1 96.1l3 24a192.7 192.7 0 0 0 34 101.1l1 3v1m368.6-368.3 1 2 10 11c12 16.1 23.6 32.5 35 49a993 993 0 0 0 94.2 130.2l1 1v2l-1 1-9 11-26 32-38.1 51-48.1 62.1-3 3v-2l3-5a198 198 0 0 0 23-75l4-32.1a526 526 0 0 0-1-98 351.4 351.4 0 0 0-16-73.2l-19-48-9-18-1-3v-1m-74.1 453.4-1 1-1 2-24 24-30.1 35-23 26-15 16-11 12-1 1h-3l-1-1-13.1-14-27-31-35.1-39-22-24-11-10-1-2v-1l3 2c18 11 37 18 57 22l35 5c10.1 2 20.1 2 30.1 1l31-4 24.1-5a163 163 0 0 0 38-16h1m0-535.5v1h-1l-2-1-14-7-24-10-21-7c-11-3-23-4-35-3h-18.1c-12-1-25 0-37 4a385.6 385.6 0 0 0-65.1 28l-3 2v-1l2-3 21-22 27-28c19-21 39-42 60.1-62l1-1.1h3l7 6 36 38 32.1 34 28 30.1 3 2"/>
    <path fill="#FFF" d="m515.5 421.7-1-21-4-27c-4-16.2-8.5-32.2-13-48.1-4-13-10-24-16.1-36l-17-31a140.4 140.4 0 0 0-35-42.1l-19.1-13-14-8c-13-6-27-10-41-15-5-2-10-2-15.1 0l-31 11-22 11-20.1 14c-5 3-9 7-13 12l-8 9-11 15-8 14-16 29c-6 12-11.1 25-14.1 37l-9 33.1a168.9 168.9 0 0 0-6 50c-1 17 0 34 3 52.1 2 13 6 26 11 38 8.2 18.3 17.6 36 28 53a322 322 0 0 0 36 35.1c15.2 11 31.3 20.7 48.2 29 9 4 18 7 28 9l13 2 11-2c12-3 24-7 35-13 27-13.2 51.2-31.6 71.2-54 7-7 13-16 18-25l13-26c8-19 14-38 16-59.1l2-33m-341.4-9 1-24 4-25c5-18.5 10.4-37 16-55.1 8.7-20.7 19.7-40 33-58l16-18.1 7-9 13-13 15.1-13 19-11c9-4 18-8 28-10l21.1-4 10 1c9 1 18 4 27 7l13 5a180 180 0 0 1 44.1 33l8 10 13 15a242 242 0 0 1 51.1 103 920 920 0 0 1 8 52.1c.2 18.8-.5 37.5-2 56a277.8 277.8 0 0 1-17 60.1l-13 27c-5 11-12 21-19 30.1l-15 17c-7 7-15 14-24 20-11 6-22.1 13-34.1 18l-29 10-6 1c-7 2-14 1-21.1 1l-5-1c-18-3-35-9-51-18l-24.1-14c-10-7-19-15-27-24a543 543 0 0 1-26-38l-15.1-32c-7-16-12-34-15-51.1-3-16-4-32-4-48"/>
    <path fill="#1E2346" d="M301.1 547.8h-5c-9 1-18 4-27 8l-5 5-1 1 2-1 8-5c12-5.2 25.2-6.6 38-4l14 5 14.1 8 14 5a51 51 0 0 0 44-5l10.1-7v-1l-3 1-10 5-19 5c-9 0-17-1-25-4l-11.1-5-15-7c-8-3-15-4-23-4m85-315.3 1-3v-1l-1 1-4 9c-2 8-5 15-9 22-6 10-13 18-22 24-8 5-16 8-25 9-8 2-16 2-24 2l-19 2-18.1 5c-9 5-17 11-24 20l-7 10v1h1l5-8a59.2 59.2 0 0 1 45-24l21-1 22-1c22.1-4 38.1-16 48.2-35 5-10 8-21 10-32m-68.1 127.1c-11 0-22 1-32 5l-14.1 4c-15 4-26 13-30 29l-3 15-1 14c-1 8-3 15-7 21l-5 8-7 13.1c-2 4-2 9-1 14l1 5c1 1 3 2 4 0l2-3 5-8 7-9v3c-3 8-4 17-3 25 .4 5.7 1.1 11.4 2 17l-1 5c-1 4 0 8 3 11 4 3 8 4 13 4h4c3 1 5 0 7-2l3-4c1-1 1-3-1-5l-5-3c-3 0-4-2-5-5v-12l3-11 2-4 1 4v5c1 7 4 14 8 20 2 3 5 4 9 4l6-2 6-2h2c2-2 2-3 1-5l-5-4-3-1c-3 0-5-2-5-5v-2c-1-10 2-18 9-25 6-6 12-13 17-21l5-8 2-1c4 1 7 2 10 1 5 0 9 1 13 4l7.1 4c8 4 15 4 23 0l3-2 1 1c2.2 12.6 4.2 25.3 6 38 2 8 5 17 9 24l4 10v2l5 6c4 2 8 2 12 1h5.1c3 0 5-1 7-3l2-1c3 0 4-2 4-4l3-3 6-2 3-3 2-2c-1-3-2-5-4-5l-5-2c-2 0-4-1-5-3-4-6-6-12-6-18v-17l1-9 5-12 4-4 9-12 5-13 1-4 2-2h9l9-1 4-4c2-3 2-6 2-9l-2-4c-4-3-7-5-12-6l-3-1v-1l1-3c1-2 3-3 5-3 4 0 8-2 10-5l3-5 3-7c0-2 0-3 2-3 3.1-2.1 4.1-4.1 4.1-7.1v-4l-1-5-4-20c-1-5-3-9-8-12l-4-3-3-4-15-8c-7-3-14-3-20 2l-5 3-6 4-6.1 3c-5 3-10 7-13 12-3 4-5 8-6 13l-1 10-2 3-11 8-10 3c-8 2-16 2-24.1 1l-22-1m197.3 62-2 33c-2 21.1-8 40.1-17 59.1l-12 26c-5.1 9-11.1 18-18.1 25A231.2 231.2 0 0 1 360.2 632l-11 2-13-2c-17-3.8-33.2-10.2-48-19a325.6 325.6 0 0 1-53.2-42.1l-11-12c-4-5-8-10-11-17-6-11-12-23-17-36-5-12-9-25-11-38.1-5.3-34-4.6-68.5 2-102l9-33.1c4-12 9-25 15-37l16-29 8-14 11-15.1 8-9c4-5 8-9 13.1-12l20-14 22-11 31.1-11c5-2 10-2 15 0 14 5 28 9 41 15l14.1 8 18 13 19 17 17 25 17.1 31a224.6 224.6 0 0 1 21 53l8 31.1 4 27v21"/>
    <path fill="#FFF" d="M436.3 394.6v-2h-2l-2 6h1c2 0 3 0 3-3v-1m0 11v-4l-2-2c-2 1-3 1-2 4l2 3 1 1 1-1v-1m1-11v2l1 1h3l1-2-2-4h-3v3m-36 107.1 4 11 1 1 2 2v-3l-6-11-1-1v1m36-97v3h2c2-2 3-5 3-8l-1-1h-2c-2 1-2 1-2 3v3m35-45.1-1-6c0-1-1-2-3-2l-1 2 2 11 1 1 1-1 1-5m-6 42v-3l-3-3-1 1v4c0 4 0 6-2 9v1h1c2 0 3-2 4-3l1-6m-11-25c4 0 7-1 9-4l4-3-1-4v-1c-.5-1.7-1.2-3.4-2-5h-1l-2 6c0 3-2 6-5 7l-3 1-1 2 2 1m-10 13h-1c-1 0-2 1-1 2 3 7 2 13-3 18v1c4 2 5 1 7-2l1-2c2-4 3-8 2-12 0-4 0-5-5-5m15 10v-3l-4-5h-3v3c2 6 0 11-4 16v1l1 1 2-1c3 1 4-1 5-2 2-3 3-6 3-10m12-50 1 8h2l2.1-5-1-6c-2-6-3-11-3-17l-1-6c-1-4-3-6-5-8h-1l-1 1 3 8c2 4 3 7 2 11v2l1 3 1 6v3m-17-27c0 3 1 5 3 7l8 6v1l1-1-1-4-2-9-1-5-2-6-2-1-1 1-2 6-1 5m-30 2s-1 6 1 7c.6-1 1.2-2 2-3 3-4 6-6 11-7l3-1c4-1 5-3 3-7l-8-9-3-1c-4 1-9 1-13 4l-8 3-4.1 2c-3 1-5 3-7 6v1h1l8-4 5-3 4-1c3 0 4 1 5 4v9m22-1v-1c0-2 0-2-2-1l-4 1-5 4-6 5-5 9 3 8 1 11 2 9 2 3c1 2 3 2 4 0l4-11-1-3-1-3c-3-6-2-12 1-17l4-6 3-8m-10 66 4-1 4-2 5-7-1-2h-7c-7 2-13-2-14-9v-4h-1l-3 4c-3 3-7 4-10 1l-3-2-2-3-4-5-3-2-5-7c-2-4-2-4-4-1l-2 1v4h1c7 9 16 17 25 25l9 6 9 3 2 1M221 479.7v5l1-1 1-1 8-14c5.3-7.3 10-15 14-23 3-6 4-12 3-18v-20c2-13 8-24 19.1-33l2-2-3 1c-6 3-12 8-15 13-4 6-6 12-6 19l-2 18-2 12c-2 7-5 14-10 20l-5 8-4 8-1 8Zm56.1 37 6-1 1-2-2-2h1l3 1 2 1h2v-3l-2-1-4-1c-2 0-4-1-5-3-4-3-5-7-5-12 0-7 3-14 7-19l11-13 9-11 6-8-1-2c-2-2-2-2-4 0-3 8-8 14-15 20l-9 8-9 6c-2 1-3 3-4 6l-1 4c-1 6 0 12 1 18l2 4 4 8c1 2 2 2 4 2h2m169.3-213.1h-2l-1 2c2 3 4 5 5 9 2 4 3 8 1 13l-3 9-2 6-1 12c1 4 0 8-1 13l-2 6 7 1 1 1 3-1 7-8 5-8 2-6-1-1h-6v-1l4-3v-1l-1-1h-2v-1l2-2h7l1-1-2-2-6-5-6-4-3-9c0-5 0-10 2-15v-1c-3-2-5-2-8-2m-22 17v-4c-1-3-3-3-5-2-2 0-4 2-5 4l-9.1 6c-4 1-5 4-6 7-2 7-1 13 2 18 4 5 7 9 9 14l4 4c3 2 5 2 7-1 2-2 2-5 3-7l-2-8-1-15 1-6 2-10m-21 159.1-1 10c0 6 2 11 4 16 2 2 3 4 3 7l3 5 4 2c5 1 9 1 14-1 2-1 3-2 0-4l-1-1 1-1 3 2h1l1-1-3-2-3-1c-3 0-6-2-9-5l-3-7-4-13a60.9 60.9 0 0 1 7-35l5-8 3-5c4-7 6-14 8-21l1-5-3-3c-1-1-2-1-2 1-4 6-8 13-9 20h-1v1l-1-1c1-5 2-11 5-17l4-8v-3l1-8-1-1-5-4-14-8c-9-5-15-13-21-22.1l-2-3c-2 0-3 1-4 3-4 4-9 6-15 7 0 1 0 0 0 0v-1l3-2 4-4h-1l-3 1-13 5-25.1 1-17-1c-15.3 0-30 4.2-43 12a44.8 44.8 0 0 0-20.1 29c-2 7-3 15-2 22 1 5 0 10-1 16-1 7-4 13-7 19.1l-4 8c-4 10-4 20-2 30l2 10v8l-1 3c-1 2 0 3 1 4 2 3 5 4 9 5h2c2-1 3-2 2-4l-1-1v-1l1 1c2 0 2 2 3 3 0 1 1 2 3 1l2-1v-1l-1-2-1-2 2 2 1 1 2-1-1-2-4-2c-4-1-6-4-8-8l-1-6v-6l2-13c2-7 6-13 11-17l8-6 13-10c8-8 15-18 21-28l3-4 4-5 2-1c1 1-1 1-1 1l-3 6-3 8 1 1 2 2 14 5 14.1 4 11 2h13l5-1 2-2 3-10 2-8 1-3h1a34 34 0 0 1-2 17c-1 5-2 10 0 15v3l4 21v12c1 7 3 13 7 19l8 12 1 4c2 3 5 5 9 5 2 0 3.1-1 2-3l-1-3v-1h1l3.1 5c1 2 2 2 5 1l3-2-2-2-1-1v-1h1l2 2h2l2-2-3-1-6-2-6-4c-3-2-5-5-6-9v-10l-2-19c0-5 0-11 2-17a44.3 44.3 0 0 1 18-20v1l-7 8c-4 5-7 11-7 18v11m-85.1-120.1 23 1c7 1 15 1 23-1l10-3 12-8 1-3 2-10c1-5 2-9 5-13 3-6 8-10 13.1-12l6-3 6-4 5-3c6-5 13-5 20-2l15 8 3 3 4 4c5 3 7 7 9 12l3.1 19 1 6v4c0 3-1 5-4 7l-2 2c0 3-2 6-3 8l-3 5c-2 3-5 5-10 5-2-1-4 0-5 3l-1 3 1 1 3 1c4 1 8 3 11 6l2 3c0 4 0 7-2 10l-4 4-9 1h-9l-2 2-1 4-5 13c-3.6 5.8-7.6 11-12 16l-6 12.1-1 9v16c0 7 2 13 6 19 1 2 3 3 5 3l5 1c2 1 3 3 4 6 0 1 0 2-2 2l-3 3-6 2-2 2c-1 3-2 4-5 5l-2 1c-2 2-4 3-7.1 3h-5c-4 1-8 1-12-1l-5-6v-2l-4-10c-4-7-7-16-9-24-3-12.5-5-25.2-6-38l-1-1-3 2c-8 4-15 4-23.1 0l-7-4c-4-3-8-4-13-4l-9-1-3 1-5 8c-5 8-10 15-17 21-7 7-10 15-9 25v1c1 3 2 5 5 6l4 1 4 4c1 2 2 5-1 5l-4 1-4 1-6 2c-4.1 0-7.1-1-9.1-4-4-6-7-13-8-20v-5l-1-3-2 3-3 11v10l1 2c0 3 1 5 4 5l5 3c2 2 2 3 1 5l-3 3c-2 3-4 4-7 3l-4-1c-4 1-9 0-12-4-4-2-5-6-4-10l2-5v-6l-2-11c-2-9-1-17 2-25v-2l-7 8-5 8-2 3c-1 2-2 1-4 0l-1-5c-1-5-1-10 1-14l7-13 5-8c4-7 6-13 7-21a412 412 0 0 0 4-29c4-16 15-25 30-29l14-4a84 84 0 0 1 32-5.1m68.2-127.1c-2 11-5 22-10 32a63 63 0 0 1-48.1 35l-22 1-21 1-18.1 3c-11 4-20 12-27 21l-5 8c-2 1-1 0-1-1l7-10a65.2 65.2 0 0 1 42-25l19-2c8 0 16 0 24-2 9-1 17.1-4 25.1-10 9-5 16-13 22-23 4-7 7-14 9-22l4-9c0-1 1-2 1 0l-1 3m-85 315.3c8 0 15 1 23 4l15 7 11 5a53 53 0 0 0 44-1l10-5 3.1-1v1l-10 7c-6 4-13 6-20 7-8 2-16 1-24-2l-14.1-5-14-8-14-5a63.6 63.6 0 0 0-38.1 4l-10 6c0 1 0 0 0 0l1-1 5-5c9-4 18-7 27-8h5"/>
    <path fill="#1E2346" d="m412.3 510.7-1 1 2 2h3l-1-2-2-1h-1m-9-42c0-7 3-13 7-18l6-9c0-1-13 12-17 21-2 5-2 11-2 16l2 19v10c1 4 3 7 6 9l6 4 6 2 2 1c1 1 0 2-1 3h-2l-2-3h-1v1l1 1 1 2-2 2c-3 1-4 1-6-1 0-2-1-3-3-4 0 0 0-1 0 0l1 3c1 2 0 4-2 3-4 0-7-2-9-5l-2-4c-1-4-4-9-7-12-4-5-6-12-7-18l-1-13-3-21v-3c-2-5-2-10 0-15l1-3v-14l-1 4-2 7-3 10c0 2-1 2-2 2l-5 1h-13l-11.1-2-14-4a46.8 46.8 0 0 1-16-7l-1-1 3-8 3-6-5 5-3 4a112 112 0 0 1-42.1 44c-6 5-9 11-11 18l-2 13v5l1 7c2 3 4 6 8 7l4 2 1 3h-2l-1-1-1-1v1l1 2v1l-2 1c-2 1-3 0-3-1l-3-3v1c1 2 0 4-2 4h-2c-4 0-7-2-9-5-1-1-2-2-1-3l1-4v-8l-2-10c-2-10-2-20 2-29l4-9c3-6 6-12 7-19 1-5 2-11 1-16a70 70 0 0 1 5-32c4-8 10-14 17-19s16-8 24-10c7-1 13-2 19-1h17c8.1 1 17.1 0 25.1-1 5.6-1.2 11-3.2 16-6.1 1-1 1 0 1 1l-4 3-3 2v2c6-2 11-4 15-8l4-4 2 5c6 8 12 16 21.1 21l14 9 5 3 1 2-1 7v3l-4 9c-3 5-4 14-5 16s2 1 2 0c1-7 5-14 9-20 0-2 1-2 2-1l3 3-1 5c-2 8-4 14-8 21l-3 5-5 8a57.9 57.9 0 0 0-4 48.1l4 7c3 3 6 5 9 5l3 1 2 2v1h-1l-3-1h-1l1 1c3 2 2 3 0 4-5 2-9 2-14 1l-4-2-3-5c-1-3-1-5-3-7-2-5-4-10-4-16l1-21Zm19-138.1-1 6 1 15 2 8c-1 2-1 5-3 7-2 3-4 3-7 1l-4-4c-2-5-5-9-9-14-3-5-4-11-2-18 0-3 2-6 6-7l9-6 5-4c2-1 5-1 5 6l-2 10m24-27 7 2c1 0 2 0 1 1-2 5-3 10-2 15l3 9 5 5 7 4 2 2-1 1h-7l-2 2v2l3-1v2l-4 3v1h6l1 1-2 6-5 8-7 8-3 1-1-1-7-1 2-6c1-4 2-9 1-13l1-12 2-6 3-9c2-5 1-9-1-13-1-4-3-6-5-9l1-2h2"/>
    <path fill="#1E2346" d="M277.1 516.7h-2c-2 0-3 0-4-2l-4-8-2-4c-1-6-2-12-1-18l1-4c1-3 2-5 4-6l9-6 9-8c7-6 12-12 15-20 2-2 2-2 4 0l1 2-6 8-9 11-11 13c-4 5-7 12-7 19 0 5 1 9 5 12 1 2 3 3 5 3l4 1 2 1v3l-2 1-2-2c-1 0-4-2-2 1l-1 2-6 1m-55-45 4-8 5-8c5-6 8-13 10-20l2-12 2-18c0-6 2-13 6-18 3-6 9-10 15-14l3-1c1 1-2 2-2 2-11 9-17 20-18 33l-1 20c1 6 0 13-3 19l-6 10-8 12-8 14-1 1-1 1v-1c-1-5 0-10 1-12m215.2-82-2-1a504 504 0 0 1-18-9c-9-8-18-16-25-25.1h-1v-4l2-1c2-3 2-3 4 1l5 7 3 2 4 5 2 3 3 2c4 3 7 2 10-1l3-4h1v4c2 7 7 11 14 9h4c1-1 2 0 3 1l1 1-5 7-4 2-4 1"/>
    <path fill="#1E2346" d="M437.3 334.6c1 0 3-1 3-3l-1-1c-2-1-3 0-4 2l2 2m10-11c0 3-1 5-3 8l-4 6c-3 5-4 11-1 17l1 3 1 3-4 11c-1 2-3 2-4 0l-2-3-2-9-1-11-3-8c0-2 0-4 2-5l3-3 6-6 5-4 4-1c2-1 2 0 2 1v1m-22-6v-2c-1-3-2-4-5-4l-4 1-4 3-9 4c-1 1-1-1-1-1 2-3 4-5 7-6l4-2 8-3c4-2 9-3 13-3h3l8 10c2 3 1 5-3 6l-3 1c-5 1-8 3-11 7v1l-3 3v-15m36 9h-1v2l3 1v-1l-2-2m-6-4 1-4 2-7 1-1 2 1 2 6 1 5 2 10 1 3-1 1v-1l-8-6c-2-2-3-4-3-7m17 24-1-6-1-3v-2c1-4 0-7-2-11l-3-8 1-1h1c2 2 4 4 5 8l1 7 3.1 16 1 6-2 5h-2l-1-8v-3m-15 63-2 2-6 1v-2c4-5 6-10 4-16v-4c1-1 3 1 4 1 2 1 2 3 3 5v7l-3 6m-12-20c5 0 5 1 5 5 1 4 0 8-2 12l-1 2c-2 4-3 4-7 2v-1c5-5 6-11 3-18-1-1 0-2 1-2h1m10-13-2-1 1-2 3-1c3-1 5-3 5-6l3-7h1l1 5 1 5-4 3c-2 3-5 4-9 4m10 32 1-10-2-3c-1-1-2 0-2 1s0 10-2 12v3c1 1 2-1 2-1l3-2Zm7-49-1 5-1 1-1-1-2-9 1-4c2 0 3 1 3 2l1 6"/>
    <path fill="#1E2346" d="m437.3 407.6 1 1c1 1 0-1 1-1 3-2 3-7 3-8l-3-1c-2 1-2 1-2 3v6Zm-36 94.1v-1l1 1 6 12v2l-2-2-1-1-4-11m36-110v5l1 1h3l1-2-2-4h-3Zm-1 14v-4l-2-2c-2 1-3 1-2 4l2 3 1 1 1-2Zm0-13h-2l-2 5c0 2 3 2 4 1v-6Z"/>
    <path fill="#FFF" d="m413.3 510.7 2 1 1 2h-3l-2-2c0-1 0-2 2-1m24-176.1-2-2c1-2 2-3 4-2l1 1c0 2-2 3-3 3m24-8 2 2v1l-3-1v-2h1m3 131.3c0 .4-.3 6.8-.2 13.3-6.8.5-5.7-13.3-5.3-15 .2-1.4-4.4 1.7-6.6 3.8.7 1.3 1.7 1 2.9.5-.5 6.2 3.9 11.8 9 11.7.2 6.4.9 12.5 2.7 13 .2.1.5-6.5.6-13.7 12.2-3.8 7.5-18.3 7.5-18.3-.2-.8-2 .3-6 3.9 1.6 1.7 2.4.7 3.6.3 1 1.9 1.4 10.5-5.1 13.1l.3-18c0-.2-.2-.3-.4-.3-1.8.2-5 3.4-7.5 6 1.4 2.3 3 .3 4.5-.3m5.9 19.1 2.8 2.8 2.8-2.8-2.8-2.8-2.8 2.8Z"/>
  </g>
</symbol></svg>
