<svg xmlns='http://www.w3.org/2000/svg' viewBox='0 0 696 830' fill='none'><symbol id='MPAC_EC_Fill'>
  <g fill="none">
    <path fill="#1E2346" d="m348 20.3-5 4-33 30a900.1 900.1 0 0 0-157.2 173.2c-12 18-25 35-39 50-17 19-32 38-46 59l-40 64.1-9 14v5a583.9 583.9 0 0 0 92 128.2l58 62 39 44 34 41.1c23.5 29 48.6 56.9 75.1 83l19 18.1 7 6c4 3 5 3 9 0l14-13 46.1-47c20-21 38-43 56-65.1 14-18 29-35 44-51l46.1-50.1c10-11 21-22 30-34 13-14 24-30 36-45 17-22 34-44.1 47-69.1l5.1-7v-6l-5-8-33-53.1c-18-29-38-56-61-81l-28-35.1A1272 1272 0 0 0 469 135.4c-11-13-24-25-36-37l-39-37-42-38.1-4-3m0-20 5 4 15 14 27 24c25.6 21.6 49.7 45 72 70a819.1 819.1 0 0 1 95.1 119.2l30 38c22 24 42 49 59 77l39.1 62.1 4 8c2 2 2 4 0 6l-3 7c-14 24-29 47.1-46 68.1l-38 48-23 27.1-51.1 55c-22 23-43 47-63 72.1A1255.5 1255.5 0 0 1 365 816l-12 11h-1c-4 3-5 3-9 0l-8-7-23-23a2040 2040 0 0 1-66.1-72l-49-58.1-35-39-42.1-45c-20-22.1-39-44.1-57-68.2l-32-43c-11-15-20-31-29-47l-1-1v-8l12-20 43-67.1c13-19 27-37 42-54 12-13 23-26.1 34-41.1l18-25A1041.3 1041.3 0 0 1 295 47.3l30-27 17-16 6-4"/>
    <path fill="#FFF" d="m348 28.3-4 3-21 20-30 32-45.1 49.1-11 11-2 2 3-1c9-6 19-11 30-15l33-13c8-2 17-4 26-4h42l21 3c14.1 3 28.1 8 41.1 14l20 10 5 1-4-3-53-57c-15-17-31-33-47-48l-4-4.1m108 646.6h-2l-3 2c-15 8-30 13-46 16l-35 6c-12 2-24 2-36 1l-41-7-29.1-8-25-13c-1-1-2-2-4-1l3 3 31 33 52 58c9 9.9 18 19.5 27 29.1l2-3 20-21 31.1-36 52-56.1 3-3m73-453.4v1l1 3c5.1 8 9.1 17 12.1 26l12 31c9 22 15 45 18 68.1 5.5 39.8 6.1 80.2 2 120.1l-4 33c-2 18-7 35-15 52l-9 18.1c-1 1-2 2-1 4l3-3 37-48 41-55 26-34.1 18-20 1-2-1-1c-7-6-12-13-17-20a1229.8 1229.8 0 0 1-73-104.2l-17-26-32-41-2-2M23.7 415.7l7 8 18 22 33 43 47.1 62 29 37.1 4 3-2-4-10-18c-11-20-19-42-21-65l-5-36.1-2-25c-1-30 0-59 4-88.1 3-23 8-45 16-66l12-30c6-17.1 13-33.1 23-48.1l2-2c-2 0-3 2-5 3l-25 31c-9 11-18 23-26 36-11 18-23 37-36 55l-38 53.1-24 28-1 1m102 14a282.2 282.2 0 0 0 99 220.3c17 15 35.1 27 56.1 34l29 7c11 2 23 5 35 5 10 0 20 0 31-2l22.1-5c26-5 48-16 68-33l29-27a234.5 234.5 0 0 0 63.1-104.1l7-30c5-20 8-41.1 7-62.1-.9-21.7-2.6-43.5-5-65a340 340 0 0 0-16-70.2l-20-50c-4-10-8-20-14-29-10-16-21-32-34-47-14-17-31-30-52-37.1l-31.1-10a181.1 181.1 0 0 0-85-3 371.3 371.3 0 0 0-61.1 18c-15 8-27 18-38 30a431 431 0 0 0-49 77.1l-16 43a312.3 312.3 0 0 0-22.1 99.1l-3 41M348 20.4l4 3 42 38 39 37c12 12 25 24 36 37.1a894 894 0 0 1 80.1 102l28 35.1c23 25 43 52 61 81.1l33 53 4.1 8c2 2 2 4 1 6l-5 7a467 467 0 0 1-47 69.1l-36 45-30 34.1-46.1 50c-16 16-30 33-44 51-18 22.1-36 44.1-56 65.1L366 789l-14 13c-4 3-5 3-9 0l-7-6-19-18c-25.6-27.2-50.6-55-75.1-83l-34-41.1-39-44-58.1-62.1a901.3 901.3 0 0 1-88-121.1l-4-7v-5l9-14 40-64.1c14-21 29-40 46-59 14-15 27-32.1 39-50.1A954.5 954.5 0 0 1 343 24.3l4-4"/>
    <path fill="#1E2346" d="M522 412.7c.5-18.6-1.5-37-6-55.1l-9-33c-9-27-22-51-39-73l-21-25.1a151.7 151.7 0 0 0-51-41c-12-5-24-9-36-11-8-2-16-2-24 0a156.4 156.4 0 0 0-54 21c-12 9-23.1 18-32.1 30l-23 27c-18 24-31 50-40 78l-9 39.1a316 316 0 0 0 8 122.1l8 23 12 26a172 172 0 0 0 81 80.1c15 9 31 14 48 18h21c11-1 22-4 33-8 15.1-6 29.1-14 42.1-22 11-7 21-15 29-25a489 489 0 0 0 29-41c8.5-19.8 16.5-39.9 24-60 6-23.1 9-46.1 9-70.1m-396.2 17 3-41 4-33.1c3-22 10-44 18-66l16-43.1c5-11 10-22 17-32 10-15 20-31 32-45 15.8-19 37.2-32.3 61.1-38.1a373 373 0 0 1 60-13c21-2 42 1 63.1 7l31 9c21 7 38 20 52 37a445 445 0 0 1 48 76.1l20.1 50a294.2 294.2 0 0 1 19 105.1l2 30c1 21-2 42.1-7 62.1l-7 30a236.9 236.9 0 0 1-63 104.1l-29 27c-20 17-42 28.1-68.1 33.1l-22 5c-11 2-21 2-31 2-12 0-24-3-35-5l-29-7c-21.1-7-39.1-19-56.1-34l-28-28c-14-13-25-29-34-46.1-12-20-21-42-26-65-3.7-18.4-7-36.7-10.1-55.1l-1-26"/>
    <path fill="#1E2346" d="m23.7 415.7 1-1 24-28 38-53.1c13-18 25-37 36.1-55 8-13 17-25 26-36.1l25-31c2-1 3-3 5-3l-2 2c-10 15-17 31-23 48l-12 30c-8 21-13 43-16 66.1-4 29-5 58-4 88l2 25.1 5 36c2 23 10 45 21 65l10 18.1 2 4-4-3-29-37-47-62-33-43.1-18-22-7-8M529 221.5l2 2 32 41 17 26a1025 1025 0 0 0 90 124.2l1 1-1 2-18 20-26 34-41 55-37 48.1-3 3c-1-2 0-3 1-4l9-18c8-17 13-34 15-52l4-33.1c1.6-18 2.6-36 3-54 0-22-2-44-5-66.1-3-23-9-46-18-68l-12-31c-3-9.1-7-18.1-12-26.1l-1-3v-1m-73 453.4-3 3-52.1 56-31 36-20 21-2 3.1-9-8-18-21-52.1-58-31-33.1-3-3c2-1 3 0 4 1a173 173 0 0 0 54 21l41 7c11 1 24 1 36-1l35.1-6c17.2-3.2 33.8-9.3 49-18h2M348 28.3l4 4c16 15 32 31 47 48l53 57.1 4 3-5-1-20-10c-13-6-27-11-41-14l-21-3h-42c-9 0-18 2-26 4l-34.1 13a174 174 0 0 0-32 16l2-2 11-11 45-49 30-32 21-20 4-3.1"/>
    <path fill="#FFF" d="m348 407.6 1-4 4-14c3-7 6-13 11-19l1-4c-10-2-10-1-17-11l-7 8c-3 2-7 3-11 3l6 10 5 10 4 10 3 11m69-146-2-1-13 3c-9 3-17 6-25 11-8 4-14 10-18 18-5 10-8 20-8 31v3l2-1 7-8 3-9c4-9 10-15 19-18l8-2c4-1 7-3 10-7l2-3 13-15 2-2m-138 0 3 3 11 13 3 4c3 3 6 6 10 7l9 3c8 2 14 8 17 16l3 7c2 5 4 8 8 11l2 1v-6c0-9-3-18-7-26-5-9-12-16-21-22-12-6-24-9-36-12l-2 1m74 71 2 1 9 3c5 0 11-1 15-5l4-3c3-3 6-5 10-6l14-1 10 2c6 1 13 2 19 1h25l-1-2-7-6a60.1 60.1 0 0 0-54-11c-13 4-24 9-34 18l-11 8-1 1m-118.1-8h25c6 1 13 0 20-1l9-2c9-1 17 1 24 7l7 5 4 2c6 1 12 1 17-2l2-1-1-1-11-8c-8-7-18-12-28-16a60.8 60.8 0 0 0-67 16l-1 1m117-145.2 1 3 10 15 10 11c9 7 18 12 28.1 16l27 8c9 3 18 6 26 12.1h2l-3-3-5-7c-7-8-15-16-24-22l-6-4-19-11c-14-7-29-12-44-17l-3-1m-111.1 65 4-2 13-6 30-10 12-4c12-5 22-12 30-22l13-19 1-2-4 1-26 9c-9 4-19 8-27 13a637 637 0 0 0-31 23l-13 16-2 3m-14 188.2h1c11-3 19-9 23-19l4-11 3-12 5-10c4-6 9-10 17-12l8-1 12-4 6-3.1c3-2 7-3 11-3 5 1 9 0 13-2 6-2 11-7 14-13v-3l-2 1-10 2-16 1-13 1a72 72 0 0 0-55 42l-9 22-11 22-1 2m243.1 0-2-3-8-15-5-11-11-24a71 71 0 0 0-55-36l-34-3-3-1v3c5 11 17 16 26 15 5 0 10 1 14 4l4 2 12 4 8 1a26.2 26.2 0 0 1 19 16l4 12 4 13c2 5 4 9 8 13 4 5 11 8 19 10M282 608.9l1 1a167 167 0 0 0 57 24h16l14-4c15-4 29-12 43-20l1-2-1-2-8-18c-5-10-12-20-19-28l-11-13c-12-13-20-27-25-44 0-1 0-3-2-3s-2 2-2 3c-4 13-10 25-18 36l-16 19c-8 8-14 17-19 27l-7 14-4 10m144-8 3-2c15-10 28-22 39-36 7-7 13-15 17-24l12-25c10-20 15-43.1 17-66.1a374 374 0 0 0-5-79l-6-24.1c-7-25-17-49-31-71l-13-14c-9-9-21-16.1-34-20.1l-12-4-19-5c-20-8-36-22-43-43l-3-6-1 2-2 5c-7 17-18 30-35 38-7 4-15 6-22 8l-20.1 6a88.3 88.3 0 0 0-40 28l-15 23c-5 11-10 21-13 32l-11 39.1c-5 16-7 33-8 50l2 42c2 16.1 5 32.1 11 47.1a408.5 408.5 0 0 0 30 58 419 419 0 0 0 43 39.1l3 2 1-2 6-10c4-7 10-14 16-21 23.1-26.1 39-57.9 46-92 2-11.1 2-22.1 2-32.1 0-11-1-22-4-33l-4-15-3-11c-2-7-6-14-11-19-2-2-4-2-6-1l-3 1-4 4c-4 4-9 7-15 9l-7 3c-4 1-7 4-9 7l-5 7-7 14-13 17c-8 8-18 10-29 11l-4-1 3-5 11-25 10-22a88 88 0 0 1 71-45.1l2-1-5-6c-3-2-5-3-8-2l-5 1-7 3c-5 3-11 4-17 3l-10-2-13-4h-22c-1 1-2 1-3-1l1-3 10-12a69.9 69.9 0 0 1 73-10l16 8c1 1 2 2 3 1-2-5-6-9-12-11l-8-2c-8-2-14-6-17-14l-5-10c-3-7-7-13-13-18l-2-3-1-2 4-1 11 2c10 2 19 6 28 10 16 7 28 19 35 35l1 2 1-3c7-14 17-26 32-33 10-5 21.1-8 32.1-12l11-1c1 0 2 0 3 2l-2 3-5 5c-5 5-8 11-11 18l-5 10c-2 4-6 7-11 9l-6 2-6 1c-5 1-8 4-11 9l-1 2 4-1c11-7 23-12 36-13 13-2 25 0 37 5 7 4 13 8 18 14 3.2 2.8 6 6.2 8 10l-1 2h-4c-8-1-17-1-25 2l-9 2-5 1c-7 2-14 1-21-1l-8-4c-3-1-6-2-8-1-4 1-7 5-9 9h7a88.1 88.1 0 0 1 66 46l11 23 10 23 3 5-5 1h-5c-11-2-20-6-26-14l-8-10-7-14-6-10c-3-4-6-7-11-9l-6-2-14-8-4-4-5-3c-2 0-4 0-5 2l-6 7c-3 6-6 12-7 18a544.9 544.9 0 0 1-9 44 174.5 174.5 0 0 0 14 80.1c7 18 16 33 29 47l8 10.1c7 8 14 17 19 28l1 1m96-188.1c-.5 33.5-7 66.7-19 98l-14 32c-8.8 14.3-18.6 28-29 41.1-8 10-18 18-29 25-14 8-27 16-42 22-11 4-22 7-34 8h-20c-17-4-33-9-48-18l-21.1-12a172.9 172.9 0 0 1-60-68l-12-26-9-23a316 316 0 0 1-8-122.2l10-39c9-28 22-54 40-78l23-27.1c9-12 20-21 32-30a156.4 156.4 0 0 1 54-21c8-2 16-2 24 0 12 2 24 6 36.1 11 12 5 22 13 31 21 8 6 14 13 20 20l21 25c17 22 30 46 39 73l8 33.1a243 243 0 0 1 7 55"/>
    <path fill="#1E2346" d="m348 268.5 2-4a92 92 0 0 0 11-35c0-4-2-7-6-8-5-2-9-2-14 0-3 1-6 4-6 8l1 7c2 10 5 20 10 29l2 3m60 188.2-1 2-1 5c-2 6-3 11-2 17 2.4 10.7 5.1 21.4 8 32 6 10 14 14 25 14 4 0 8-1 11-4 6-6 9-13 7-21-1-6-4-10-10-13l-8-4-16-11-10-13-3-4m-120-1-4 7a67 67 0 0 1-27.1 23l-7 3c-7 4-11 12-9 21 0 4 2 8 5 11 2 3 5 5 9 6 10 2 21-2 27-11 3-4 5-9 6-13 1.6-8.6 3-17.3 4-26l-2-15-2-6M426 600.8l-1-1c-5-11-12-20-19-28l-8-10c-13-13-22-29-29-47a174.5 174.5 0 0 1-14-80.1c0-7 1-14 3-20l6-24c1-6 4-12 7-18l6-7c1-2 3-2 5-2l5 3 4 4 14 8 6 2c5 2 8 5 11 9l6 10 7 14 8 10c6 8 15 12 26 14h5l5-1-3-5-10-23-11-23a87 87 0 0 0-66-46.1h-6c1-4 5-8 8-9 2-1 5 0 8 1l8 4c7 2 14 3 21 1l5-1 9-2c9-3 17-3 25-2h4l1-2-1-2-7-8c-5-6-11-10-18-14-12-5-24-7-37-5-13 1-25 6-36 13l-4 1 1-2c3-5 6-8 11-9l6-1 6-2c5-2 9-5 11-9l5-10c3-7 6-13 11-18l5-5 2-3c-1-2-2-2-3-2l-11 2c-11 3-22 6-32 11a65.9 65.9 0 0 0-33 36l-1-2c-7-16-19-28-35-35-9-4-18-8-28-10l-11-2-4.1 1 1 2 3 3c5 5 9 11 12 18l5 10c3 8 9 12 17 14l9 2c5 2 9 6 11 11-1 1-2 0-3-1l-16-8c-16-7-33-8-49-3-9 3-17 7-23 13-4 4-8 7-11 12l-1 3c1 2 2 2 3 1h22l14 4 9 2c6 1 12 0 17-2l7-3 5-2c3-1 5 0 8 2l5 6-2 1c-24 1-54 15-71 45l-10 22c-3 9-6 17-11 25l-3 5 4 1c11-1 21-3 30-11l12-17 7-14 5-7c2-3 5-6 9-7l7-3c6-2 11-5 15-9l4-3 3-2c2-1 4-1 6 1 5 6 9 12 11 19l3 11 4 15c3 11 4 22 4 33s0 21.1-2 31.1c-7 34.2-22.9 66-46 92-6 8.1-12 15.1-16 23.1l-5 9-1 2-4-2a177.1 177.1 0 0 1-42-39l-11-15-20-43c-6-15-9-31.1-11-47.1-1-14-2-28-1-42 0-17 2-34 7-50l11-39.1c3-11 8-21 14-32l14-23 3-4c11-11 23-20.1 38-24.1 14-5 28-9.7 42-14 16-8 28-21 34-38l2-5 1-2 3 6c8 21 23 35 44.1 43l18 5 13 4a85 85 0 0 1 46 34c14 22 24 46 31 71l6 24.1a355 355 0 0 1 5 79c-2 23.1-7 46.1-17 67.1l-12 24c-4 9-10 17-16 24-12 14.1-25 26.1-40 36.1l-3 2"/>
    <path fill="#1E2346" d="m282 608.8 4-10 7-14c5-10 11-19 19-27l16-19c8-11 14-23 18-36 0-1 0-3 2-3s2 2 2 3c5 17 13 31 25 44l11 13c7 8 14 18 19 28l8 18 1 2-1 2a162.4 162.4 0 0 1-57 24h-15l-23-7c-12-4-24-10-35-17l-1-1m188-176.1c-8-2-15-5-19-10-4-4-6-8-8-13l-4-13-4-12a26.2 26.2 0 0 0-19-16l-8-1c-4 0-8-2-12-4l-4-2c-4-3.1-9-4.1-14-4.1-9 1-21-4-26-15v-3l3 1 8 2 26 1c6 1 13 2 19 5 15 6 27 17 36 31l11 24 5 11 8 15 2 3m-243.1 0 1-2 11-22 9-22c5-9 11-18 18-25 11-9 23-15 37-17l13-1c8.6-1.2 17.4-2.2 26-3l2-1v3c-3 6-8 11-14 13-4 2-8 3-13 2-4 0-8 1-11 3l-6 3-12 4-8 1c-8 2-13 6-17 12l-5 10-3 12-4 12c-4 10-12 15-23 18h-1m14-188.1 2-3 13-16 9-8 22-15c8-5 18-9 27-13l26-9 4-1-1 2-13 19c-8 10-18 17-30 22l-12 4-30 10-13 6-4 2m111-65 3 1c15 5 30 10 44.1 17l19 11 6 4c9 6 17 14 24 22l5 7 3 3h-2c-8-6-17-9-26-12l-27-8a77.7 77.7 0 0 1-38-27l-10-15-1-3m-117.1 145 1-1a60.8 60.8 0 0 1 67-16c10 4 20 9 28 16l11 8 1 1-2 1c-5 3-11 3-17 2l-4-2-7-5c-7-6-15-8-24-7l-9 2c-7 1-14 2-20 1h-25m118 8 1-1 11-8c10-9 21-14 34.1-18 20-5 38-1 54 11l7 6 1 2h-25c-6 1-13 0-19-1l-10-2-14 1c-4 1-7 3-9 6l-5 3c-4 4-9 5-15 5l-9-3-2-1m-74-71 2-1c12 3 24 6 36 12 9 6 16 13 21 22 4 8 7 17 7 26v6l-2-1c-4-3-6-6-8-11l-3-7c-3-8-9-14-17-16l-9-3c-4-1-7-4-10-7l-3-4-11-13-3-3m138 0-2 2-13 15-2 3c-3 4-6 6-10 7l-8 2c-9 3-15 9-19 18l-3 9-7 8-2 1v-3c0-11 3-21 8-31 4-8 10-14 18-18 8-5 16-8 25-11l13-3 2 1m-69 146.1-3-11-4-10-5-10-6-10c4 0 8-1 11-3l7-8c7 10 7 9 17 11l-1 4c-5 6-8 12-11 19l-4 14-1 4"/>
    <path fill="#FFF" d="m287 465.7-1 1c-4 6-8 9-14 12l-7.1 4-8 4c-5 4-9 9-11 15-2 4-3 8-2 12 2 7 7 12 14 12l4-1c6-1 11-4 15-9 4-4 7-9 9-15 2-5 3-9 3-14l-1-17-1-4m1-10 2 6c2 7.5 2.4 15.4 1 23l-3 18c-1 5-3 9-6 13-6 9-17 13-27 11-4-1-7-3-9-6-3-3-5-7-5-11-2-9 2-17 9-21l7-3c11-5 20-13 27-23l4-7m121.1 10h-1v5a441 441 0 0 0 0 23 46.9 46.9 0 0 0 16 27c4 3 9 5 14 5 7 0 12-4 13-11l1-8c-1-7-5-13-10-18l-11-6-8-4c-5-3-9-6-13-12l-1-1m-1-9 3 4 10 13 16 11 8 4c6 3 9 7 10 13 2 8-1 15-7 21-3 3-7 4-11 4-11 0-19-4-25-14l-4-12-4-20c-1-6 0-11 2-17l1-5 1-2m-60-196.2 1-1 8-18c3-5 2-10-1-14-1-2-2-3-4-3-4-3-9-1-12 3s-4 9-1 14l8 18 1 1m0 8-2-3c-5-9-8-19-10-29l-1-7c0-4 3-7 6-8 5-2 9-2 14 0 4 1 6 4 6 8l-1 8c-2 10-5 19-10 27l-2 4"/>
    <path fill="#1E2346" d="m287 465.7 1 4 1 17c0 5-1 9-3 14-2 6-5 11-9 15a25 25 0 0 1-19.1 10c-7 0-12-5-14-12-1-4 0-8 2-12 2-6 6-11 11-15l8-4 7-4c6-3 10-6 14-12l1-1m122.1 0 1 2c4 5 8 8 13 11l8 4 10 6c6 5 10 11 11 18l-1 8c-1 7-6 11-13 11-5 0-10-2-14-5l-4-4c-6-6-10-14-12-23v-28h1m-61-205.2-1-1-8-18c-3-5-2-10 1-14s8-6 12-3c2 0 3 1 4 3 3 4 4 9 1 14l-8 18-1 1"/>
    <path fill="#FFF" d="M344.9 579.9c0 .4-.3 6.8-.2 13.3-6.8.5-5.7-13.3-5.3-15 .2-1.4-4.4 1.7-6.6 3.8.7 1.3 1.7 1 2.9.5-.5 6.2 3.9 11.8 9 11.7.2 6.4.9 12.5 2.7 13 .2.1.5-6.5.6-13.7 12.2-3.8 7.5-18.3 7.5-18.3-.2-.8-2 .3-6 3.9 1.6 1.7 2.3.7 3.6.3 1 1.9 1.4 10.5-5.2 13.1l.3-18c0-.2-.2-.3-.4-.3-1.8.2-5 3.4-7.5 6.1 1.5 2.2 3.3.2 4.6-.4m5.9 19.1 2.8 2.8 2.8-2.8-2.8-2.8-2.8 2.8Z"/>
  </g>
</symbol></svg>
