<svg xmlns='http://www.w3.org/2000/svg' viewBox='0 0 696 830' fill='none'><symbol id='MPEC_EC_Fill'>
  <g fill="none">
    <path fill="#1E2346" d="m235 668.3 1 1 10 5c15 9 32.1 15 49.1 18 19.4 2.7 38.7 5.1 58.1 7l27-3 27.1-4a153 153 0 0 0 47-18h1v1l-2 1-57 63-23 26-23 24-1 2h-2l-8.1-8-70.1-79-31-32-3-3v-1"/>
    <path fill="#1E2346" d="m348.2 24.4-1 1c-2 0-3 1-4 3l-19 17c-16 14-33 28-48 43a967.7 967.7 0 0 0-122.3 143c-12 17-25 33-39 48-17 19-32 39-46 61-15.1 22-29.1 44-42.2 67l-5 9-1 5 2 2c9 16 18 32 29 47 21.4 27.6 43 55 65.2 82l48 52c24 26 48.1 53 70.1 79.9a1023 1023 0 0 0 109.2 117c3 2 4 2 7 0l3-2 17-15c32-32 62.1-66 91.2-102 30.4-38.3 63.2-74.7 98.1-109l28-32 41.1-52c16-21 31-42 43-65l2-4v-4l-6-10-38-61c-15-24-32-46-50-66-13-14-24-28-35.1-44a1175 1175 0 0 0-112.2-132.9l-37-35-45-40-2-3h-1m-1 804.9-4.1-3-9-7-29-30c-27-27-52.1-56-77.2-86-13-16-25-32-39-47l-32-35-59.1-64a866.8 866.8 0 0 1-97.2-141l8-14c14-24 29-46 44-69a532 532 0 0 1 46.2-60 502 502 0 0 0 54-70c54.3-74.1 117.9-141 189.3-198.9 6-6 5-5 11 0l31 28a1454 1454 0 0 1 62.2 57 858.5 858.5 0 0 1 107.1 129l26 36 22 25c17.1 18 32.1 38 45.1 59l43.1 70 6 9v4l-2 5c-13 24-28 46-45 68l-43.1 53-32 37-44.1 48c-19 19-37 39.9-54.1 60.9-33.7 42-69.7 82.2-108.2 120l-14 13-3 2-3 1"/>
    <path fill="#FFF" d="m235 150.4 2-1c14-10 29-17 44.1-22l19-7c12-4 24-5 37.1-5h25c12 0 24 1 35 5l18.1 6a206.3 206.3 0 0 1 39 18h1l-1-1-4-5-31-32c-22.7-25-46-49.3-70-73h-3l-1 1-48.2 50-45 47-16 17-1 1v1m0 517.9v1l3 3 31 32 70.1 79 8 8h2l1-2 23-24 23-26c18.1-21 37.1-42 57.2-62l2-2v-1h-1l-4 2c-13 7-28 13-43.1 16l-27 4a172 172 0 0 1-49.1 2l-36-6c-17-3-34.1-9-49.1-18l-10-5-1-1m308.4-90h1l1-2 31-40 34-45c18.4-25.2 37.7-49.5 58.2-73v-3a1220.1 1220.1 0 0 1-95.2-131l-25-36-16-19-4-5h-1v1l1 1c5 8 8 16 11 24l11 28a312 312 0 0 1 25 111c1.4 27 .7 54.1-2 81l-4 33a178 178 0 0 1-25 71l-1 3v1m-379.6 14v-1l-3-5a212.5 212.5 0 0 1-33-96l-2-24c-2-13-3-27-3-40v-19c.6-37.3 6.6-74.3 18-110l21-55 10-19 7-10 2-3v-1h-1l-2 2-23 28c-14 17-27 35-38 54a599 599 0 0 1-54.1 78c-11 15-22 31-36 44v3l8 9 17 21 36 46c17 23 33 46 51.1 68l22 27 2 3h1m407.6-154-2-35-2-28c-3-26-9-51.4-18-76-9-23.1-18.3-46.1-28-69-11-21-25-40-40.1-58-13-16-30-28-50-34l-33.1-11c-20-5-40.6-7-61.1-6a274.8 274.8 0 0 0-78.1 20c-8 3-16 8-22 13-9 7-17 14-24 23l-28.1 40c-7 10-13 21-17 33l-5 13-14 36a302.5 302.5 0 0 0-20.1 104l-1 24c-1 16 0 32 2 47 3 18 7 35 12 52a240.9 240.9 0 0 0 57.1 97l32 31c18 15 39.1 26 62.1 32l30 7 17.1 2c11 .4 22.1-.3 33-2l25-5c27.1-6 51.2-18 72.2-37 9-7 17-15 24-23a234 234 0 0 0 61.1-96c9.1-30.6 14.5-62 16-94M348.2 24.4h1l2 3 45 40c32.7 27.6 63 58 90.2 91a1054 1054 0 0 1 59.1 77c11 16 22 30 35 44 18 20 35.1 42 50.1 66l38 61 6 10v4l-2 5c-13 22-27 43-43 64l-41 52c-20.9 24.3-42.6 48-65.1 71-21 23-42.1 46-61.1 69.9-29 36-59.1 70-91.2 102l-17 15-3 2c-3 2-4 2-7 0l-12-10a995 995 0 0 1-97.2-107c-22-27-46-54-70-80l-48.1-52a634.5 634.5 0 0 1-65.1-82c-11-15-20-31-30-47l-1-2 1-5 5-9c13-23 27-45 42-67 14-22 29-42 46-61 14.1-15 27.1-31 39.1-48 36.4-51.1 77.2-99 122.2-142.9 15-15 32-29 48-43l19.1-17 4-3 1-1"/>
    <path fill="#1E2346" d="M175 412.3c.8 30.5 5.9 60.8 15 90l20 45a177.2 177.2 0 0 0 72.1 71c17 10 35 16 54 20l19.1 1c10-2 20-4 30-8 18-6 34.1-15 50.1-26 9-6 17-13 24-21l13-16c7.1-8 12.1-16 16.1-26a2384 2384 0 0 0 20-43 220.4 220.4 0 0 0 13-72c0-17.4-1-34.7-3-52l-7-30a238.2 238.2 0 0 0-54-104l-12-15-13-13a549.3 549.3 0 0 0-29.1-21c-14-7-27-12-42-15-7-1-14-2-21.1-1a164.6 164.6 0 0 0-53 19c-13 9-25.1 19-35.1 31l-10 12-12 15c-19 23-32.1 48-41.1 76l-7 28-4 22-3 33m396.5 26-2 29c-3 22-8 44-14 65a233.2 233.2 0 0 1-60 96l-24.1 23c-21 19-46 31-73.1 37l-25 5-14 2c-12 .5-24.2-.1-36.1-2l-30-7c-23.1-6-44.1-17-62.2-32l-32-31-12-13c-20-25-36-53-45-84-5-17-9.1-34-12.1-52a228 228 0 0 1 0-71l3-40c3-22 9-43 16-64l14-36 5-13c5-12 10-23 17-33 9-14 18.1-27 29.1-40 6-9 14-16 23-23 7-5 14-10 22-13a257.3 257.3 0 0 1 97.2-20 523 523 0 0 1 75.1 17c20 7 37 18 50.1 34a360 360 0 0 1 49 76l19.1 51c9.5 24.5 15.6 50 18 76l2 28 2 35"/>
    <path fill="#1E2346" d="M164 592.3h-1l-2-3-22-27c-18.1-22-34.1-45-51.2-68l-35-46-18-21-8-9c-1-1-1-1 1-2 13-14 24-30 36-45 18.3-25.5 36-51.5 53-78 11-19 24.1-37 38.1-54l23-28 2-2h1v1l-2 3-7 10-10 19-21 55c-5 14-9 27-11 41-3.6 23-6 46-7 69v19c0 13 1 27 3 40l2 24a213.2 213.2 0 0 0 36 101v1m379.6-14v-1l1-3a179 179 0 0 0 24-71l5-33c3.6-26.8 4.3-54 2-81l-4-39c-4-25-11-49-21-72l-11-28c-3.3-8.5-7.3-17-12-25v-1h1l4 5 16 19 25 36c28.2 47.2 60 92 95.2 134-19.5 24.3-38.8 48.6-58.1 73l-33 45-31.1 40-2 2h-1M235 150.3v-1l1-1 16-17 45.1-46.9 48.1-50 1-1h3l9 9c21 20 41 42 61.1 64l31 32 4 5 1 1h-1l-2-1c-12-7-24-13-37-17l-18-6c-11-4-23-5-35-5h-25.1c-13 0-25 1-37 5l-19 7a164 164 0 0 0-44.1 22l-2 1"/>
    <path fill="#FFF" d="m514.5 420.3-2-23-3-24-8-28c-4-19-12-37-21.1-55l-21-37c-8.3-13-18.9-24.4-31-34l-16.1-11c-6-5-13-9-21-12l-36-13c-5-2-10-2-15.1 0l-21 7c-11 5-22 9-32 16a1437 1437 0 0 0-27.1 19c-8 9-17 18-23 28l-20 37c-9 16-16.1 33-21.1 51l-6 24c-4 13-6 27-7 42-1 18 0 36 2 54 2 13 4 25 9 38 9 21.7 20 42.4 33 62a236.2 236.2 0 0 0 114.2 72h15a162 162 0 0 0 54.1-22c21-13 39-27 55-45 7-8 14.1-16 19.1-26l13-29c6-13 10-27 13-41 3-16 3-31 4-50m-339.4-8 3-33 4-22 7-28c9-28 22-53 41-76l12-15 10-12a170 170 0 0 1 40.1-34c16-7 31-13 48.1-16 7-1 14 0 21 1 15 3 28 8 42 15a503 503 0 0 1 42.2 35l12 14c26 30 44.4 65.7 54 104l7 30c2 8 2 16 3 25 0 19.4-1.4 38.8-4 58a218 218 0 0 1-15 53l-14 31c-4 10-9 18-16 26l-13 16c-7 8-15 15-24 21a199 199 0 0 1-80.2 34l-19-1c-19-4-37-10-54-20l-17.1-10c-22.4-15.6-41-36-54-60l-21.1-46c-9-28.8-14.1-58.8-15-89"/>
    <path fill="#1E2346" d="M299.1 266.4c0-2-2-3-4-3-1 0-3 1-3 3s2 3 3 3c2 0 4-1 4-3m-56 32c0 4 0 7 2 11 3 7.4 7.4 14.2 13 20h1l2-4 2-10c1-3 1-3 4-1l4 3 12 3c7-1 13-4 18-9l2-2c1-1 0-2-1-3l-3-3c-5-4-8-9-8-15 0-5-3-9-7-12l-3-1c-4-2-6-5-7-10 0-2-1-2-3-2l-2 1c-5 1-9 4-13 8-8 7-13 15-13 26m231.3 124v-13c-2-25.2-9.1-49.7-21-72-6-11-14-21-24-30l-9-9c-9.1-9-14.1-18-15.1-29l-3-13v-3h-1l-1 5 1 16c2 11 7 21 14 30l10 13c13 15 24 32 33 51 10 21 15 43 14 66v16-1l1-3 1-24m-257.3-10 2 25c5 25 16 47 34 65l14.1 13c10 9 18 20 24 31 4.1 8.4 7.8 17 11 26h1l-1-5a116 116 0 0 0-35-62c-11-11-19-23-26-37a218.6 218.6 0 0 1-20-89l-1-1v1l-1 3-2 30m151.1 175v8c0 2 1 3 3 2l5-2c5-2 10-5 14-9 18.1-17 29.1-38 29.1-63v-11l-1-9v-1h2l9 7 3 2 1-3v-4c1-10 0-19-3-29l-4-15c-2-9-5-16-10-23l-3-4-7-12c-4-7-6-15-7-23l-1-15a142.5 142.5 0 0 0-26-62l-11-11c-3-2-3-1-1-5 5-12 6-24 3-36-2-13-9-23-19-30-11.1-9-23.1-12-36.1-9-9 2-17 5-24 11a28 28 0 0 0-10 16c0 2 1 3 2 2l15-4c8-1 15 1 20 7 7 6 10 14 12 23v6c-2 7-4 13-8 19l-11 14-15 18-11 18c-5.1 10-8.1 22-9.1 33-1 15 3 29 10 41 6 12 15 21 25 29 13.7 10.7 25.3 24 34.1 39l9 15c5 10 11 21 14 33 4 12 7 25 7 37m146.3-167c-1 19-1 34-4 50-3 14-7 28-13 41l-14 29c-4.1 10-11.1 18-18.1 26a238 238 0 0 1-109.2 67h-15a153 153 0 0 1-47-18 279.8 279.8 0 0 1-67.2-54c-4-5-8-9-11-15-8-15-16-31-22-47-5-13-7-25-9-38a315.4 315.4 0 0 1 5-96l6-24c5-18 12-35 21-51l20-37a140.8 140.8 0 0 1 30.1-33l20-14c10-7 21-11 32-16l21.1-7c5-2 10-2 15 0l36 13c8 3 15.1 7 21.1 12l16 11 7 5c9 9 17 18 24 29l21.1 37c9 18 17 36 21 55l8 28 3 24 2 23"/>
    <path fill="#FFF" d="M380.3 550.3v-16c0-8-2-16-7-23l-12-19-5-8c-1-2-3-3-5-3-8.6-.9-17-2.6-25.1-5v1l2 1 13 18 4 6c7 9 12 20 18 31 5 11 7 23 8 35v19h1l5-10 2-11 1-16m7-4-3 18c-2.4 9-5.8 17.7-10 26h1l2-1c8.4-7.5 15.7-15.9 22-25l13.1-28c2-5 3-11 2-16-1-7-3-14-6-20-4-8-1-6-11-10-9-3-19-5-29-6l-2-1-1 1 2 2c6 6 10 14 11 22l4 11c3 9 5 17 5 27m-73.1-310c-6 0-11 1-17 3l-9 4c-5 3-9 7-11 12v1h1c6-3 12-4 18-5 13-1 25 4 31 16 3 6 4 12 3 18l-1 3c-1 11-5 20-11 28l-11 16-14 18-11 20c-9.1 23-7 46 7 67 5 7 11 14 18 20 9 8 19 13 30 15l22 4 24 4a78.8 78.8 0 0 1 46.1 26h1v-10l-3-15c-3-10-8-18-14-26l-7-10c-7-9-11-18-12-28-2.3-13.9-4-27.9-5-42-4-18-12-36-23-52-4-6-8-11-14-15-1-1-2-1-1-2h1l3 1 2-1 1-3c3-7 3-16 2-24-3-15-11-28-24.1-37-7-4-14-7-22-6m54 351c0-13-3-25-7-37s-9-23-14-33l-9-15c-8.8-15-20.4-28.2-34-39-10-8-19-17-25-29-7.1-12-11.1-26-10.1-41 1-12 4-23 9-33l11-18 15-18 11-14c4-6 6-12 8-19v-6c-2-9-5-17-12-23-5-6-12-8-20-7l-15 4c-2 0-2 0-2-2l1-2c1-6 5-11 9-14 7-6 15-9 24-11 13-3 25 0 36.1 9 10 7 17 17 19 30 3 12 2 24-3 36-2 4-2 3 1 5l11 11 10 15a142.9 142.9 0 0 1 17 62c1 8 3 16 7.1 23l7 12 3 4c5 7 8 14 10 23l4 15c3 10 4 19 3 29v4l-1 3-3-2-10-7h-1v1l1 9v11a81 81 0 0 1-43 72l-6 2c-1 1-2 0-2-2v-8M217 412.3l2-30 1-3v-1l1 1v5c1 29 7.8 57.6 20 84 7 14 15 26 26.1 37l10 11c13 15 21 32 25 51l1 5h-1l-1-3-10-23c-6-12-14-22-24-31l-14-13c-18-18-29-40-34-65l-2-25m257.3 10-1 24-1 3v1-16c1-23-4-45-14-66-9-19-20-36-33-51l-10-13a68 68 0 0 1-14.1-30l-1-16 1-5h1v3l3 12c1 12 6 21 15 29l9 10a126.9 126.9 0 0 1 38 66c3 12 6 24 7 36v13"/>
    <path fill="#FFF" d="M283.1 315.4a36 36 0 0 0 16-6c3-1 3-1 0-3-4-3-7-6-9-10l-3-4h-2l-8 8-6 4-4 3v2l9 4 7 2m-35-13c1 9 4 17 9 25h1l1-1v-4l1-8c1-9 6-16 14-19l5-2 4-2c2-2 3-2 1-4l-5-6c-4-3-6-8-6-13v-1c0-1-1-2-2-1l-2 1c-9 7-15 14-19 24l-2 11m-5-4c0-11 5-19 13-26 4-4 8-7 13-8l2-1c2 0 3 0 3 2 1 5 3 8 7 10l3 1c4 3 7 7 7 12 0 6 3 11 8 15l3 3c1 1 2 2 1 3l-2 2c-5 5-11 8-18 8-4 1-8 0-12-2l-4-3c-3-2-3-2-4 1l-2 10-2 4h-1l-1-1c-5-6-9-12-12-19-2-4-2-7-2-11m56-32c0 2-2 3-4 3-1 0-3-1-3-3s2-3 3-3c2 0 4 1 4 3"/>
    <path fill="#1E2346" d="M305.1 381.4v-7l-1 1-3 9c-4 17 1 30 13 41l8 6a854 854 0 0 1 35.1 16l16 10 3 2 1 1-1-1-8-10c-5-6-11-11-18-14l-7-3-11-6-12-7c-6-5-10-12-13-20l-2-18m9-145c8-1 15 2 22 6 13 9 21 22 24 37 1 8 1 17-2 24l-1 3-2 1-3-1h-1c-1 1 0 1 1 2 6 4 10 9 14 15a143.1 143.1 0 0 1 26 73l2 21c2 10 5 19 12.1 28l7 10c6 8 11 16 14 26l3 15v10h-1l-2-2a78.9 78.9 0 0 0-44-24l-24-4-22.1-4c-11-2-21-7-30-15-7-6-13-13-18-20a70 70 0 0 1-7-67l11-20 14-18 11-16c6-8 10-17 11-28l1-3c1-6 0-12-3-18-6-12-18-17-31-16-6 1-12 2-18 5h-1v-1c2-5 6-9 11-12l9-4c6-2 11-3 17-3"/>
    <path fill="#1E2346" d="M387.3 546.3c0-10-2-18-5-27l-4-11c-1-8-5-16-11-22l-2-2 1-1 2 1 30 6c9 4 6 2 10 10 3 6 5 13 6 20 1 5 0 11-2 16a343 343 0 0 1-19 36l-16 17-2 1h-1v-1l2-3 8-22 3-18"/>
    <path fill="#1E2346" d="m380.3 550.3-1 16-2 11-5 10h-1v-19c-1-12-3-24-8-35-6-11-11-22-18-31l-4.1-6-13-18-2-1v-1h2c8 3 16 4 23 5 2 0 4 1 5 3l5 8 12 19c5 7 7 15 7 23v16m-132.1-248 2-11a48.6 48.6 0 0 1 21-25c1-1 2 0 2 1v1c0 5 2 10 6 13l5 6c2 2 1 2-1 4l-4 2-5 2c-8 3-13 10-14 19l-1 8v4l-1 1h-1c-5-8-8-16-9-25"/>
    <path fill="#1E2346" d="m283.1 315.4-7-2-9-4v-2l4-3 6-4 8-8h2l3 4c2 4 5 7 9 10 3 2 3 2 0 3l-6 3c-3 2-7 2-10 3"/>
    <path fill="#FFF" d="m305.1 381.4 2 18c3 8 7 15 13 20l12 7 11.1 6 7 3c7 3 13 8 18 14l8 10 1 1-1-1-3-2-16-10-18-8c-6-2-12-4-17-8l-8-6a38.8 38.8 0 0 1-13-41l3-9 1-1v7m160.2 114.1c0 .4-.3 6.8-.2 13.3-6.8.5-5.7-13.3-5.3-15 .2-1.4-4.4 1.7-6.6 3.8.7 1.3 1.7 1 2.9.5-.5 6.2 3.9 11.8 9 11.7.2 6.4.9 12.5 2.7 13 .2.1.5-6.5.6-13.7 12.2-3.8 7.5-18.3 7.5-18.3-.2-.8-2 .4-6 4 1.6 1.6 2.3.6 3.6.2 1 2 1.4 10.5-5.1 13.1l.3-18c0-.2-.2-.3-.4-.3-1.8.2-5 3.4-7.5 6.1 1.4 2.2 3.2.2 4.5-.4m5.9 19.1 2.8 2.8 2.8-2.8-2.8-2.8-2.8 2.8Z"/>
  </g>
</symbol></svg>
