<svg xmlns='http://www.w3.org/2000/svg' viewBox='0 0 696 830' fill='none'><symbol id='PCAC_EC_Fill'>
  <g fill="none">
    <path fill="#1E2346" d="m677.7 417.7-1-3-5-8-35-57.1c-17.1-27-36.1-52-57.2-75.1a385.5 385.5 0 0 1-50-65.1A911 911 0 0 0 355.2 26l-5-5c-2-2-2-2-5 0l-3 2-32 29a900 900 0 0 0-157.3 174.3c-12 17-25 34-39 50-17 19.1-32 38.1-46 59.2l-33.1 51-15 26.1c-2 3-2 6 0 9l22 36c20 29.1 42 57.2 64 84.2L162 603l50.1 56.1 34 40c26.1 33.1 55.1 63.2 85.2 93.2l12 10c4 4 5 3 9 0h1l14-13 36-37a1309 1309 0 0 0 61.2-70.2c17-21 34-42 53-61l39.1-43.1a1157 1157 0 0 0 119.2-157.3l2-3m18 2v2l-2 4c-14 24-29 48.1-46 70.1L609.5 543c-16 21-35 40-53 59.1l-54.2 59.1-39 47c-30 37.1-62.1 72.2-96.2 105.3l-14 13-1 1c-4 2-5 3-9 0l-16-15a1458 1458 0 0 1-98.2-107.2c-14-18-28-35-43-51.1l-49-54A1275 1275 0 0 1 36.7 479.9c-13-17-25-36-35-55l-1-2v-6l4-7.1 49-79.1c14-20 29-39 45-57.1 16-18 30.1-36 44.1-56.1A984.6 984.6 0 0 1 310.2 33l32-29c6-5 5-5 11 0l41 37a949.3 949.3 0 0 1 159.3 178.3c13 19 27 37 43 54a483.8 483.8 0 0 1 54.1 72.2l38.1 61 6 10.1 1 3"/>
    <path fill="#FFF" d="m454.4 139.3-2-3-24-25L379.2 59l-29-29c-2-2-3-2-5-1l-1 2-34.1 34-40.1 43.1-32 33-3 4 4-2c7-5 14-8 22-12 12-6 25-10 38-15 12-4 25-6 37-5h26.1c13-1 25 1 37 6l12.1 4c14 4 28 10 40 17l3 1M237 671.1h-1l3 3 22 24 77.1 86.1 8 8h3l1-1 22-24c26-30 52.1-60.1 80.2-89.2l2-2-4 1c-13 7-26 13-41.1 15l-41 7c-13 2-25.1 2-38.1 0l-35-5c-20-4-38.1-11-55.1-21l-3-2m293.4-447.7c6 11 10 21 14 32l10 26a303.7 303.7 0 0 1 22 102.3 480 480 0 0 1-18 165.2l-11 24-1 3 2-2 8-10 51-67c19.7-28.6 40.3-56.4 62.2-83.2l-14-15a1446.5 1446.5 0 0 1-70.1-100.2l-18-27c-10-17-23.1-32-35.1-47.1l-2-1M159.9 590l1-1-2-3c-4-8-9-15-12-23-9-17-15-34.1-18-53.1l-5-38.1a403 403 0 0 1 16-178.3l14-37c6-16 12-31.1 22-45.1v-1l-3 3-19 23c-10 12-20 25-29 39a2237 2237 0 0 1-60.1 89.2c-13 17-25 35-40 50.1-1 1-1 1 1 3l23 27 41 55.1c20 27 41.1 55.1 63.1 81.2l7 9m412.6-165.3-3-42c-3-30-9-58.1-19-86.2l-18-48c-5-11-10-22.1-17-33.1a501.3 501.3 0 0 0-40.1-53.1c-10-11-22-19-36-25a292.8 292.8 0 0 0-88.2-20l-25 2c-22 3-43 9-64.1 17-9 4-18 8-26 15-9 6-16 14-23 22l-26.1 35c-9 14-16 28.1-22 43.1l-14 37.1c-10 25-17.1 51-20.1 79.1l-4 59.1c-1 17 0 33 2 49.1l8 34c9 41.1 28 76.2 55 107.2a333 333 0 0 0 37.1 36.1c15 14 33 24 53.1 31l34 8c19.5 4.4 39.6 4.7 59.2 1l24-5c27-5 51-18 72-37l26.1-25c38.4-38 63.1-87.7 70.1-141.3 4-20 6-40 5-60m105.2-7-2 4c-8 15-17 30-27 44A989.8 989.8 0 0 1 556.5 578l-39 43c-19 19-36.1 40.1-53.1 61.1a1172.2 1172.2 0 0 1-97.2 107.2l-14 13h-1c-4 3-5 4-9 0l-12-10c-30-30-59.1-60-85.1-93.1l-34-40-50.2-56.2-56-61c-22-27.1-44.1-55.2-64.1-84.2-8-11-15-24-22-36-2-3-2-6 0-9.1l15-26 33-51.1c14-21 29-40 46-59.1 14-16 27.1-32 39.1-50.1A942 942 0 0 1 350.2 21.1l5 5 32 28a921.7 921.7 0 0 1 162.3 182.3c9 13 19 26 30 38a537 537 0 0 1 57.1 75.2l35 57 5 8.1 1 3"/>
    <path fill="#1E2346" d="M522.5 406.7c0-10-1-27-5-43l-10-40.1c-9-26-21-50.1-38.1-72.2l-23-27-15-16c-12-11-25.1-20-40.1-25-10-4-20-8-31-10h-21.1c-21.5 3.6-42 11.8-60 24-11.1 8-22.1 18-31.1 29l-21 25c-17 22-30.1 47.1-38.1 74.2a388.4 388.4 0 0 0-15 69c-1.8 35.3 3 70.7 14 104.2l15 36.1a174.4 174.4 0 0 0 75.1 82.1c19 11 39 19 60.1 22h18l27-6a206.5 206.5 0 0 0 84.2-57c8-10 16-21 22-33 8.4-20 16.4-40 24-60.2 6-23 9-46 9-76.1m50.1 18c-.9 36-6.3 71.6-16 106.2a242.9 242.9 0 0 1-59 95.2l-26.1 25c-21 19-45 32-72.1 37l-24 5c-19.6 4-39.7 3.7-59.1-1l-34-8c-20.1-7-38.1-17-53.2-31-13-11-26-23-37-36-27-31.1-46-66.2-55-107.2l-8.1-34c-2-16.1-3-32.1-2-49.2l4-59c3-28.1 10-54.2 20-79.2l14-37c6-15 13-29.1 22-43.1l26.1-35c7-8.1 14-16.1 23-22.1 8-7 17-11 26-15a288 288 0 0 1 89.2-19l24 2c22 4 44.1 10 64.1 18 14 6 26 14 36 25l10.1 11 30 42c7 11.1 12 22.1 17 33.1l18.1 48.1c10 28 16 56.1 19 86.2l3 42"/>
    <path fill="#1E2346" d="m160 590-7-9c-22.1-26-43.1-54.1-63.2-81.2l-41-55-24-27v-3c15-15.1 27-33.1 40-50.2 21.4-28.7 41.5-58.5 60-89.1 9.1-14 19.1-26 29.1-39l19-23.1 3-3v1c-10 14-16 29-22 45l-14 37.1c-7 19-12 38-15 58.1-5 39.9-5.4 80.2-1 120.2l5 38c3 19 9 36.1 18 53.1 3 8 8 15 12 23l2 3-1 1m370.6-366.5 2 1c12 15 25 30 35 47l18 27.1c21.5 34.7 45 68.1 70.2 100.2l14 15c2 2 2 2 1 4-23 25-43 52.1-63.1 79.1l-51 67.2-8.1 10-2 2 1-3 11-24a175 175 0 0 0 12-43.1c5.1-40.6 7.1-81.4 6-122.2-3-34.9-10.4-69.3-22-102.2l-10-26c-4-11-8-21-14-32.1M237 671l3 2c17 10 35 17 55 21l35 5c13.1 2 25.1 2 38.1 0l41.1-7c15-2 28-8 41-15l4-1-2 2c-28 29-54 59.1-80 89.2l-22 24-1 1h-3l-8.1-8-77.1-86.1-22-24-3-3h1m217.3-532-3-1a221.8 221.8 0 0 0-89.2-27h-26c-12 0-25 1-37 5l-39.1 15-21 12-4 2 3-4 32-33 40-43L344.3 31l1-2c2-1 3-1 5 1l29 29 49.1 52.1 24 25 2 3"/>
    <path fill="#FFF" d="M414.3 608h-14c-4 1-8 3-9 7l-3 6 1 1h1l2-1 20-11 2-2m75.1-301.5-1 1c-3 5-4 10-2 16l3 3 7 2-3-15-3-6-1-1m-197.3-89.1c2 0 6-1 8-3l2-3c2-5 1-10-2-14l-3-1-16 12c0 4 5 9 11 9m93.2-21 2 6c3 5 7 8 12 10s11 0 15-5l-1-2-2-1-21-12c-4-1-5-1-5 3v1m-106.2 12-1 1c-18 10-31 25-42 42a842.7 842.7 0 0 0-37.1 75.2l-10 35-5 25a302 302 0 0 0-1 67.2c2 20 7 39 15 57l14 29.1c5 10 11 18 19 27a248 248 0 0 0 106.2 65.2c7 2 15 2 22 0l8-2 17-5c2-1 3-2 4-5l1-6c5-9 15-12 24.1-8l1 1 3-1 2-1c17-10.1 31-22.1 44-36.1 8-9 16.1-18 21.1-29l11-22.1c10-21 16-42 18-65.1 1-16 2-32 1-48.1-1-13-2-27-6-40l-7-24.1-1-5c-1-3-1-3-4-3l-7-2-5-6c-5-7-2-15 3-19 2-1 2-1 1-3l-5-9-19-34.1c-5-11-12-20-20-29-8-9.1-17-16.1-27-22.1h-3c-2.1 3-5.1 5-8.1 6l-5 1c-3 1-6 0-9-1-7-4-10-10-9-17l1-5-1-2-2-1-26-9c-5-2-10-2-14.1 0l-31 11-10 4 2 3c5 7 2 18-6 22-4 2-8 2-12-1l-4-7-1-4m243.3 198.3a300 300 0 0 1-18 104.2l-15 32c-6 12-14.1 23-22.1 33a206.5 206.5 0 0 1-84.1 57.2l-27 6h-18.1c-26-4.2-50.8-14.5-72.1-30a175 175 0 0 1-63.1-75.2c-5-11-11-23-15-35a286.7 286.7 0 0 1 1-173.3c8-27 21-52.1 38-74.2l21-25c9-11 20.1-21 31.1-29a155.5 155.5 0 0 1 60.1-24h21c11 2 21 6 31 9 15.1 6 28.1 15 40.1 26l15 16 23 27c17.1 22 29.1 46.1 38.1 72.2l10 40c4 16 5 33 5 43"/>
    <path fill="#1E2346" d="M452.4 318.5c0-2-1-2-2-3l-2 2 2 2 2-1m-186.3-68-1 1c-1 2 0 3 2 3l1-2-2-2m197.3 44-2-2-2 2 2 2 2-2M318.2 516l2-2-2-2-2 2 2 2m-2 86.1c0-2-1-3-3-3-1 0-2 1-2 3 0 1 1 2 3 2l2-2M422.3 532c0-2-1-3-2-3s-2 1-2 3l2 2c2 0 2-1 2-2M219 320.6l-2 3c0 1 2 3 3 2l2-2c0-1-1-3-3-3m276.4 65-2-2c-2 0-4 2-4 3s1 3 3 3c2-1 3-2 3-4M356.2 237.5l-3-3c-2 0-3 1-3 3s1 3 3 3c1 0 3-1 3-3m47 328.6c0-2-1-3-2-3-2 0-3 2-3 4 0 1 1 3 3 3l2-4m-145.1-6-2-2c-2-1-4 1-4 2 0 2 1 3 3 3s3-1 3-3M450.4 504c5 1 9-3 9-7 0-5-4-8-8-8s-7 3-8 8c0 4 3 7 7 7M255 280.5c0 4 2 7 5 10 4 3 9 3 14 0 4-3 5-8 3-13s-6-7-12-7c-7 0-10 4-10 10m132.2-14c0 6 2 11 7 14 5 4 12 3 16-1 6-6 7-16 1-23-3-5-9-6-15-4-6 3-9 7-9 14M304 577c9 0 16-5 16-14 1-10-6-17-15-16-5 1-10 2-12 7-3 5-4 10-2 15 2 4 5 7 10 8h3m-104-76.2v3c1 5 4 7 8 9 4 1 9 1 13-1 8-2 11-10 7-18-3-3-6-6-10-7-10-3-18 2-18 13v1m143.2-13-4 3-5 3c-2 2-2 3-1 6 2 2 5 4 9 4 5 1 9 0 14-2l11-2h6c7-1 13-3 18-8l7-6 6-6c1-2 3.1-3 6.1-3 18-5 34-13 48-26 3-3 7-6 12-8l13.1-4 9-4 1-2-2-1-9-2-3-2h8l6-1c3 0 4-1 2-4-1-1-2-3-4-3l-7-5c-6-3.1-12-6.1-17-11.1-8-7-15-16-21-25l-8-17-2-8c-6-14.1-16-24.1-30.1-30.1l-21-7c-7-2-14-3-22-2h-4c-7-1-14-2-20.1-5l-7-3c-12-4-23-5-35-1l-14 2H271c-7 1-14 4-19 8-7 4-12 10-17 17-4 6-5 13-4 21l5 13 6 13 1 3-4-3c-9-8-17-17-25-27l-1-3c-1-1-2-1-3 1l-3 6c-3.1 5-4.1 10-3.1 16l2 9c1 5 1 11-2 16l-6 10.1c-2 5-3 10-2 15 1 6 3 11 6 17 2 5 6 9 10 13 2 2 3 2 5-1l8-8 2-2-3 10c-3 12 5 25.1 17 28.1 7 1 13 4 18 8l1 1c7.1 5 15.1 7 24.1 7l22-3 7-1c8 0 15-1 23-3l7.1-1m-64-279.4 1 4 4 7c4 3 8 3 12 1 8-4 11-15 6-22l-2-3 10-4 31-11c4-2 9-2 14 0l26 9 2 1 1 2-1 5c-1 7 2 13 9 17 3 1 6 2 9 1l5.1-1c3-1 6-3 8-6h3c10 6 19 13 27 22s15 18 20 29l19.1 34.1 5 9c1 2 1 2-1 3-5 4-8 12-3 19l5 6 8 2c2 0 2 0 3 3l1 5 7 24.1c4 13 5 27 6 40 1 16.1 0 32.1-1 48.2-2 23-8 44-18 65l-11 22.1c-5 11-13 20-21 29-13 14-27 26.1-43 36.1l-3 1-3 1-1-1c-9.1-4-19.1-1-24.1 8l-1 6c-1 3-2 4-4 5l-17 5-8 2c-7 2-15 2-22.1 0-18-4-35-11-51-21-20.1-12-39.1-27-55.2-44-8-9-14-17-19-27l-14-29.1c-8-18-13-37.1-15-57.1-2.6-30.9-.6-62 6-92.2l10-35a842.7 842.7 0 0 1 37-75.2c11-17 24-32 42.1-42l1-1"/>
    <path fill="#1E2346" d="M385.3 196.3v-1c0-4 1-4 5-3 8 3.5 15.8 7.9 23 13l1 2c-4 5-10 7-15 5s-9-5-12-10l-2-6m-93.2 21c-6 0-11-5-11-9l1-3 15-9 3 1c3 4 4 9 2 14l-2 3c-2 2-6 3-8 3m197.3 89.2 1 1 3 7a350 350 0 0 1 3 14l-7-2-3-3c-2-6-1-11 2-16l1-1m-75 301.5-2.1 2-24 11 3-6c1-4 5-6 9-7h14"/>
    <path fill="#FFF" d="m400.3 478.8-21 2-29 5-4 2c-1 3-4.1 5-7.1 7l-4 2c6 5 9 6 16 4l3-1 13-4 15-5c7-3 12-7 18-12m-98 11h-1c-10-3-19-7-27-12-10.1-6-18.1-13-25.1-22-5-7-8-14-9-22l-1-4-2 2c-5 5-8 12-9 19 0 6 1 12 5 17 3 5 7 8 13 10l12 6 5 3c3 2 7 2 11 3h28m-89-133.2h-1v5l1 14c0 7-1 13-4 20l-6.1 10c-3 7.1-4 13.1-3 20.1 2 8 6 15 12 22l1 1h1c1-8 6-13 12-17l10-5c2-1 3-3 3-5 0-9 2-18 6-27l1-3c1-1 1-1-1-2l-2-1c-12-5-22-13-27-26l-3-6m123.2-44.2v-1h-1c-9-4-18-7-27-3l-3 1c-6 1-12 2-17 1H271c-4 0-7 1-10 4l-3 4c-4 4-7 8-12 11l-5 4c-7 7-10 17.1-6 26.1l4 7c3 4 5 8 6 13l1 4 2 2 2-2 4-12c3-9 6-17 11-24 3-4 5-7 6-11 3-7 8-12 15-16 14-8 29-11 45-8h5m28.1 8-6-1-2 1c-8 6-15 14-18 24-2 7-1 13 2 19l4 6 4 6c3 5 4 10 3 15l-1 13-1 12.1c0 10 7 21 19 23l6 2 18 2c15.1 2 27.1 9 36.1 21l1 1 4-3c3-3 3-3 1-6l-1-1c-7-8-15-15-25-20-7-4-15-7-23-9-6-2-12-5-16-10-4-4-6-8-7-12l-2-12c0-9-2-19-6-28l-3-12.1c-1-11 2-21 11-28l2-3m128.1 105.1c-1-3-3-4-5-5l-10-5c-8-3-14-8-19-14l-20-29-14-23.1c-5-8-12.1-15-22.1-19-6-3-12-5-19-6l-8-2-3 1-10 11-5 8c-4 6-4 12-1 18l5 7c5 8 7 17 7 27l1 8c0 5.1 3 9.1 7 13.1 4 3 9 6 14 7l13 5c13 4 24 11 34 20l3 3c3 2 3 2 5 0 9-8 19-13 31.1-14l13-4-3-1-10-2-2-1v-2h4l14-1M354.2 319.6l-4-1c-11-2-23-3-35-1-6 1-13 3-19 6s-12 8-15 15l-8.1 11-5 4c-3 4-6 8-7 13l-3 8c-1 11-4 22-7 32-2 9.1-3 17.1-3 26.1 1 10 4 18 11 26 3 4 7 7 12 10.1 8 5 16 9 25 12 10 3 19 4 28 2l17.1-4c9-2 18-4 28-3 13-.3 26-.9 39.1-2 6-2 12-3 18-7v-2c-6-9-15-15-26-17l-19-2-14-3c-11-3-19-14-19-25v-13.1c1-8 0-16-4-23l-3.1-6-4-6c-6-12-5-23.1 2-34.1 3-5 7-10 11-13l4-3m-11 168.2-7 1c-8 2-15 3-23 3l-7 1c-7 2-15 3-22 3-9 0-17.1-2-24.1-7l-1-1c-5-4-11-7-18-8-12-3-20-16-17-28l3-10-2 2-8 8c-2 3-3 3-5 1a51 51 0 0 1-16.1-30c-1-5 0-10.1 2-15.1l5-10c3-5 4-11 3-16l-2-9c-1-6 0-11 2-16l4-6.1c1-2 2-2 3-1l1 3c8 10 16 19 25 27l4 3-1-3-6-13-5-13c-1-8 0-15 4-21 5-7 10-13 17-17 5-4 12-7 19.1-8h12l14-2c12-4 23-3 35 1l7.1 3a60 60 0 0 0 24 5c8-1 15 0 22 2l21.1 7c14 6 24 16 30 31l2 7 8 17c6 9 13 18 21 25 5 5.1 11.1 8.1 17.1 11.1l7 5 4 3c2 3 1 4-2 4l-6 1h-8l3 2 9 2 2 1-1 2-9 4-13 5c-5 1-9 4-13 7-13 13-30 21.1-47.1 26.1-3 0-5 1-6 3l-6 6-7 6c-5 5-11 7-18 8h-6l-11 3c-5 1-9 2-14.1 1-4 0-7-2-9-4-2-3-1-4 1-6l5-3 4-3m-139.2 11 2 7c1 4 4 6 8 6 5 0 8-1 10-5 3-8-3-18-10-19-4-1-8 1-9 5l-1 6m-4 2v-1c0-11 8-16 18-13 4 1 7 4 10 7 4 8 1 16-7 18-4 2-9 2-13 1-4-2-7-4-8-9v-3M305.1 549c-8 0-12 5-11 12l1 5c2 6 6 8 11 9 6 1 10-3 10-8 0-6-1-11-4-15-2-2-4-3-7-3m-1 28h-3c-5-1-8-4-10-8-2-5-1-10 2-15s7-6 12-7c9-1 16 6 15 16 0 9-7 14-16 14m107.2-306.4c0-4 0-8-2-11l-4-4c-2-2-4-3-7-2s-6 3-8 6c-2 5-2 11 1 16 1 3 4 5 8 6s9 0 11-5l1-6m-24-4c0-6 3-11 9-14 6-2 12 0 15 4 6 7 5 17-1 23-4 4-11 5-16 1-5-3-7-8-7-14m-130.2 14c-1 3 0 5 2 7 3 4 8 4 11 1 4-4 4-12-1-15l-3-2c-6 0-10 3-9 9m-2 0c0-6 3-10 10-10 6 0 10 2 12 7s1 10-3 13c-5 3-10 3-14 0-3-3-5-6-5-10m195.3 209.3c-2 0-4 2-4 4-1 4 2 7 6 7 2 0 4-1 5-3s1-4-1-5c-1-2-3-3-6-3m0 14c-4 0-7-3-6-7 0-5 3-8 7-8s8 3 8 8c0 4-4 8-9 7M258 560c0 2-1 3-3 3s-3-1-3-3c0-1 2-3 4-2l2 2m145.2 6-2 4c-2 0-3-2-3-3 0-2 1-3 3-4 1 0 2 1 2 3m-47-328.5c0 2-2 3-3 3-2 0-3-1-3-3s1-3 3-3l3 3m139.1 148.3c0 2-1 3-3 3-2 1-3-1-3-2s2-3 4-3l2 2M219 320.6c2 0 3 2 3 3l-2 2c-1 1-3-1-3-2l2-3m203.3 211.3c0 1 0 2-2 2l-2-2c0-2 1-3 2-3s2 1 2 3M316.2 602l-2 2c-2 0-3-1-3-2 0-2 1-3 2-3 2 0 3 1 3 3m2-86.1-2-2 2-2 2 2-2 2m145.2-221.4-2 2-2-2 2-2 2 2m-197.3-44 2 2-1 2c-2 0-3-1-2-3l1-1m186.3 68-2 1c-2 0-2-1-2-2l2-2c1 1 2 1 2 3"/>
    <path fill="#1E2346" d="m354.2 319.6-4 3c-4 3-8 8-11 13-7 11-8 22-2 34l4 6 3 6c4 7 5 15 4 23v13.1c0 11 8 22 19 25l13 3 20 2a39 39 0 0 1 26.1 17v2l-18 7.1c-6 2-12 2-18 2h-21c-10-1-19 1-28.1 3l-17 4c-9 2-18 1-28-2-9-3-17-7-25.1-12l-13-10c-6-8-9-16-10-26 0-9 1-17 3-26.1 3-10 6-21 7-32l3-8c1-5 4-9 7-13l5-4.1 8-11c3-7 9-12 15-15s13-5 19-6c12-2 24.1-1 35.1 1l4 1"/>
    <path fill="#1E2346" d="M437.3 404.7a5 5 0 0 0 5 5 5 5 0 0 0 5-5c0-2-2-5-5-5s-5 3-5 5m55.1 21-14 1h-4v2l2 1 10 2 3 1-13 4c-12 1-22 6-31 14-2 2-2 2-5 0l-3-3c-10-9-21-16-34.1-21l-13-4c-5-1-10-4-14-7-4-4-7-8-7-13l-1-8c0-10-2-19-7-27l-5-7c-3-6-3-12.1 1-18.1l5-8 10-11 3-1 8 2c7 1 13 3 19 6 10 4 17 11 22 19l14 23 20 29c5 6.1 11 11.1 19.1 14.1l10 5c2 1 4 2 5 5"/>
    <path fill="#1E2346" d="m364.2 320.6-2 3c-9 7-12 17-11 28l3 12c4 9 6 19 6 28l2 12c1 4.1 3 8.1 7 12.1 4 5 10 8 16 10a94 94 0 0 1 48.1 29l1 1c2 3 2 3-1 6l-4 3-1-1c-9-12-21-19-36-21l-18-2-6-2c-12-2-19-13-19-23l1-12 1-13c1-5 0-10-3-15l-4-6-4.1-6c-3-6-4-12.1-2-19.1 3-10 10-18 18-24l2-1 6 1m-28-8h-5c-16-3-31 0-45 8-7 4-12 9-15.1 16-1 4-3 7-6 11-5 7-8 15-11 24l-4 12-2 2-2-2-1-4c-1-5-3-9-6-13l-4-7c-4-9-1-19 6-26l5-4c5-3 8-7 12-11l3-4c3-3 6-4 10-4h17c5 1 11 0 17-1l3-1c9-3 18-1 27 3h1v1m-112 113.1 1-1v-1c1-6 3-11 6-15l2-6c1-5 1-9-2-14-1-1-2-2-3-1v3c1 5 1 11-1 16l-1 5-2 11v3m-14 5c2-2 2-4 2-6-1-5 1-10 3-15l2-4 1-9v-5h-2v2c-1 4-2 8-5 12-4 7-4 14-2 22l1 3m3-74 3 6a47.9 47.9 0 0 0 29 27c2 1 2 1 1 2l-1 3c-4 9-6 18-6 27 0 2-1 4-3 5l-10 5c-6 4-11 9-12 17h-1l-1-1c-6-7-10.1-14-12.1-22-1-7 0-13 3-20l6-10c3-7 4-13 4-20l-1-14v-5h1m89.1 133.1c-7 2-14 1-21 0h-7c-4 0-8-1-11-3l-5-3-12-6c-6-2-10-5-13-10-4-5-5-11-5-17 1-7 4-14 9-19l2-2 1 4c1 8 4 16 9 22 7 9 15 16 25 22 8 5 17 9 27 12h1m98.2-11c-6 5-11 9-18 12l-15 5-13 5h-3c-7 2-10.1 1-16.1-4l4-2c3-2 6-4 7-7l4-2 29-5 21-2m-196.2 20 1-6c1-4 5-6 9-6 7 2 14 12 10 20-2 4-5 5-10 5-4 0-7-2-8-6l-2-7M305.1 549c3 0 5 1 7 3 3 4 4 9 4 15 0 5-4 9-10 8-5-1-9-3-11-9l-1-5c-1-7 3-12 11-12m106.2-278.4-1 6c-2 5-7 6-11 5s-7-3-8-6c-3-5-3-11-1-16 2-3 5-5 8-6s5 0 7 2l4 4c2 3 2 7 2 11m-154.2 10c-1-6 3-9 9-9l3 2c5 3 5 11 1 15-3 3-8 3-11-1-2-2-3-4-2-7m193.3 209.3c3 0 5 1 6 3 2 1 2 3 1 5s-3 3-5 3c-4 0-7-3-6-7 0-2 2-4 4-4"/>
    <path fill="#FFF" d="M437.3 404.7c0-2 2-5 5-5s5 3 5 5c-1 3-3 5-5 5-3 0-5-2-5-5m-227.3 26-1-3c-2-8-2-15 2-22 3-4 4-8 5-12v-2h2v5l-1 9-2 4c-2 5-4 10-3 15 0 2 0 4-2 6m14-5v-3l2-11 1-5c2-5 2-11 1-16v-3c1-1 2 0 3 1 3 4 3 9 2 14l-2 6c-3 4-5 9-6 15v1l-1 1m137.8 119.5c0 .4-.3 6.8-.2 13.3-6.8.5-5.7-13.3-5.3-15 .2-1.4-4.4 1.7-6.6 3.8.7 1.3 1.7 1 3 .5-.6 6.2 3.8 11.8 9 11.7.1 6.5.8 12.6 2.6 13 .2.2.5-6.4.6-13.7 12.3-3.8 7.5-18.3 7.5-18.3-.2-.8-2 .3-6 4 1.6 1.6 2.4.6 3.6.2 1 2 1.4 10.5-5 13.1l.2-18c0-.2-.2-.3-.4-.3-1.8.2-5 3.4-7.5 6.1 1.4 2.1 3.1.1 4.5-.4m6 19.2 2.7 2.8 2.8-2.8-2.8-2.9-2.8 2.9Z"/>
  </g>
</symbol></svg>
