<svg xmlns='http://www.w3.org/2000/svg' viewBox='0 0 696 830' fill='none'><symbol id='RDPC_EC_Fill'>
  <g fill="none">
    <path fill="#1E2346" d="m677.2 417.8-1-3-5-8-30-48a546 546 0 0 0-64-86.2l-27-33-34.1-47A793.7 793.7 0 0 0 393 60.3l-41-37-3-2.1h-3l-3 3-30 27a946.2 946.2 0 0 0-160.2 176.3c-12 18-26 35-40 51-17 18-31 37-45 57l-32 52.1-16 26c-2 2-1 5 0 8 8 13.1 15 26.1 24 38.1 21.5 29.8 43.8 58.8 67 87.1l57 62.1c30 31 58 63.8 84 98.1 28.4 33 58.5 64.4 90.2 94.1l3 3h5l2-2 11-9c36.2-35.6 70.3-73.4 102-113.1l46-53 35.1-38.1 42-47c16-18 31-37.1 45-56.1 14-18 27-37 38-57.1l4.1-8 2-3M348 .3l1 1 3 2c16 16 33 30 50 45a985 985 0 0 1 157.1 179.3l33 42c22 24 42 49 59 77.1l38.1 60 5 10c2 2 2 4 0 7l-4 8.1c-12 22-26 42-42 62a2003 2003 0 0 1-84 100.2L519 642c-15 16-29 33-42 50.1-17 20-33 41-51 60l-60 63.3-13 11c-4 4-6 4-11 0-8-6-15-13-22-21l-42-43.1-43.1-51-38-45.1-45-50L91.8 551l-43-55-28-38-19-33.1-1-2v-5l3-7 28-45 23-35.1c13-20 28-39 44-57a480 480 0 0 0 51-66.2c43.3-60 92.9-115 148.1-164.2l26-22 18-17 4-3 2-1"/>
    <path fill="#FFF" d="m235.9 146.5 2-2 23-13 44-16c11-3 22-4 34-3h21c11-1 23 0 34 3l21.1 7c13 5 25 10 36 16l4 2c-17.6-18.5-35-37.1-52-56.1l-52-53c-4-4-3-4-7 0a1289.2 1289.2 0 0 0-90.1 94l-17 18-2 2v1h1M455 675.2h-1l-3 2c-15 8-31 14-49 17l-30 5c-14 2-29 2-43 0l-30-5c-22.5-3.6-44-11.7-63.1-24v1l2 2 50 54 51 57.1 7 8h3l7-7 33-37L453 678l2-2v-1m122.1-258.3v9l-1 30-5 40a219.5 219.5 0 0 1-24 76.2c-1 2-2 3-1 5l3-4c17-20 33-41 48-63.1 22.7-33 46.7-65 72-96.1l-17-19-32-44.1c-15-20-29-41-42-63l-16-24.1-30-39-2-2h-1v1l2 2 6 13 16 40c12 29 19 59 22 90.1l2 48m-399.3-208-3 2a750 750 0 0 0-47 61.1l-21 33-31 45.1c-16 22-32 45-51 65-1 1-1 1 1 3l7 9 16 19.1 39 50c21 29.1 42 58.1 65 85.2l6 7 2 3h1v-1l-2-3-11-19c-11-21-18-43-21-67.1l-4-37a410.4 410.4 0 0 1 16-169.3l19-51 10-20 8-12 1-3m-51 217.2c-1 17 0 35 3 52l6 32a244.7 244.7 0 0 0 60 113.2l27 25a156 156 0 0 0 78.1 41.1l28 6c17.5 2.1 35 1.1 52-3l29.1-6c21-6 40-16 56-30l32-29c10-11 20-22 28-35.1 13.1-19 23.1-39 30.1-61l10-37.1c4-21 7-42 6-64.1l-1-21-4-44c-3-23.1-8-45.1-16-67.2l-20-51a511 511 0 0 0-55-83.1 104.9 104.9 0 0 0-47-30l-35.1-10a188.8 188.8 0 0 0-110 6l-24.1 8c-17 7-31 18-42 31a416.3 416.3 0 0 0-51 80c-6 16.1-13 31.1-18 47.1-9 23-15 46-18 70.1l-4.1 60m550.4-8-2 3-4 8.1c-11 20-24 39-38 57-14 19-29 38.1-45 56.1L546 589l-35 38.1-46 53.1a1301.5 1301.5 0 0 1-102 113l-11 9-2 2h-5l-3-3-20-18c-38-37.6-73.4-77.8-106.1-120.1l-48-54-57.1-62.2a927.7 927.7 0 0 1-67-87c-9-12-16-25.1-24-38.1-1-3-2-6 0-8l16-26 32-52.1c14-20 28-39 45-57 14-16.1 28-33.1 40-51.1A956 956 0 0 1 313 51.3l30-27 3-3h3l3 2 41 37a905.3 905.3 0 0 1 123.2 132.2l34 47 27 33.1c24 26 45 55 64 86.1l30 48 5.1 8 1 3"/>
    <path fill="#1E2346" d="M173.8 410.8c.6 31.3 6 62.3 16 92 4 12.1 10 23.1 15 35.1s12 24 21 34A174.3 174.3 0 0 0 278 617c18 10 36 17 55 21 8 2 16 2 24 1a209.1 209.1 0 0 0 110-63c9-11 18-23 24-37l11-23.1c17-44.7 22.9-92.7 17-140.2l-7-34c-8-33-23-63-43-90.1l-21-24a144.6 144.6 0 0 0-102-55 141 141 0 0 0-95.1 51l-12 14a245.8 245.8 0 0 0-62 135.1l-3 38m-47.1 15 4-60c3-24 9-47 18-70 5-16 12-31.1 18-47.1 14-28.6 31-55.5 51-80.1 11-13 25-24 42.1-31l24-8a179.2 179.2 0 0 1 110-6 350.6 350.6 0 0 1 50.1 17c13 5 23 13 32 23l13 15a506.1 506.1 0 0 1 42 68l20.1 51.1c8 22 13 44 16 68.1l4 43 1 21.1c1 22-2 43-6 64l-10 37.1a244.5 244.5 0 0 1-58 96.1l-32 29c-16 14-35 24.1-56 30.1l-29.1 6c-17 4.2-34.6 5.2-52 3l-28-6c-30-6-56.1-20-78.1-41l-26-26a245 245 0 0 1-61-112.2l-6.1-32c-3-17-4-35-3-52.1"/>
    <path fill="#1E2346" d="m177.8 208.5-1 3-8 12-10 20-19 51.1c-7 19-11 38-14 57.1a483 483 0 0 0-2 112.1l4 37c3 24.1 10 46.1 21 67.2l11 19 2 3v1h-1l-2-3-6-7c-23-27-44-56-65-85.1l-39-50-16-19.1-7-9c-2-2-2-2-1-3 19-20 35-43 51-65.1l31-45 21-33 12-18.1a741.4 741.4 0 0 1 38-45m399.3 208.2-2-48c-3-31.1-10-61.2-22-90.2l-16-40-6-13-2-2v-1h1l1 2 31 39 16 24c13 22 27 43 42 63.1l32 44 17 19c2 2 2 2 1 4-26 30.1-50 61.2-73 92.2-15 22-31 43-48 63l-3 4c-1-2 0-3 1-5a223.8 223.8 0 0 0 24-76l5-40 1-30.1v-9M455.1 675v1l-2 2-64.1 70-33 37.1-7 7c-1 1-2 2-3 0l-7-8-51-57c-16.9-19.3-34.2-38-52.1-56.1v-1l2 1c19 12 39 20 61 23l30 5c14 2 29 2 43 0l30.1-5c18.3-3.3 36-9.7 52-19h1M236 146.5h-1v-1l2-2 17-18a16057 16057 0 0 0 90-94.2c4-4 3-4 7 0l52.1 53 49 53.1c1 0 3 1 3 3l-4-2c-11-6-23-11-36-16l-21-7c-11-3-23-4-34-3h-21c-12-1-23 0-34 3-23.4 7.2-45.9 17-67.1 29l-2 2"/>
    <path fill="#FFF" d="m181.8 421.8 1 34c2 16 5 31 11 46a408 408 0 0 0 30 57.2A236.2 236.2 0 0 0 339 633c5 1 11 2 17 1 16-4 31-9 46-18 22-13 43-27 61-46 8-9 16-19 21-29l14-29.1c8-19 13-38 15-58 2.5-30 .8-59.8-5-89.2l-6-21c-5-21-13-40-23-58a1235 1235 0 0 0-27-46.1c-9-11-19-21-31-29l-7-4c-7-6-15-10-23-13l-35-13.1c-6-2-11-2-16 0l-19 7a161.6 161.6 0 0 0-56.1 30c-12 10-21 21-29 34l-17 30.1a244.8 244.8 0 0 0-30 80.1l-5 22c-2 12-2 25-2 38m-8-11 3-38c4-19 8-39 15-57 11-29 27-55.1 47-78.1l12-14a142 142 0 0 1 95-51.1h5a143.5 143.5 0 0 1 97.1 55l21 24c20 27.1 35 57.2 43 90.2 4.2 18.2 7.5 36.5 10 55 0 17 0 33.1-2 50.1-3 24-8 47-18 69.1l-11 23a174 174 0 0 1-75 79.1c-10 5-21 11-32 14-9 4-18 6-27 7-8 1-16 1-24-1a227.2 227.2 0 0 1-79.1-37c-21-17-37.8-38.5-49-63l-16-35.1a306 306 0 0 1-15-92.1"/>
    <path fill="#1E2346" d="M303 230.6c-5 0-9 1-13 3-7 4-13 9-18 15l-2 3 1 1h1l2-2 7-7c8-7 18-9 28-4l10 5 12 6c8 3 17 2 25-2l10-5 9-6c9-6 18-7 28-3l11 5 16 11 5 3-1-2-16-13-15-8c-9-4-18-4-27 0l-9 5-10 5c-7 3-15 3-22 0l-8-3-11-5-13-2M389 594c10 0 18-3 25-8l9-7 4-4 1-2h-2l-7 2c-5 3-11 5-16 6-11 4-21 3-32 0l-7-3-11-4c-8-3-16-3-24-1l-15 4-12 4c-7 2-14 1-21-3a73.5 73.5 0 0 1-22.1-18l-3-3c-1 2 1 3 1 4 7 9 14 16 24 21 5 3 10 4 15 4 6 0 11-2 17-4l12-4c9-2 17-2 25 2l10 4 11 6c6 2 12 4 18 4M190 432.8l1 15c1 9 6 16 13 22l14 7 8 2c4 1 8 3 11 7l5 5 8 6 6 2c2-1 3 0 3 2 2 4 5 6 8 8l3 1c5 3.1 8 7.1 11 12.1l3 7c4 8 11 13 20 14h15c6 0 12 0 18 3l4 2c10 4 19 4 28 3l10-4c4-3 6-7 7-11v-10c0-6 0-12 2-18l2-10v-3l3 1a56 56 0 0 0 23.1 14c9 2 17 1 24-4 5-4 11-6 17-8l24-12c9-5 15-13 17-23l5-16 2-7c2-5.1 0-9.1-3-13.1l-5-5-10-10c-4-5-8-10-10-16l-4-8-3-3 4-2c4-2 7-6 6-11v-21.1l1-6c0-5-1-10-4-14l-5-7-8-7c-5-5-9-10-12-16l-7-9c-5-5-10-7-16-7l-11 1-16 5h-17l-8-2c-8-1-13 2-16 10l-1 3-2 9-4 12-1 1v-1l-2-9-1-17-1-5c-1-3-2-5-5-7l-5-2c-5-2-10-1-15-1-8 2-16 2-25 0h-10c-7 1-13 4-18 8l-21.1 15-18 15-7 10c-3 9 0 16 7 21l6 3c3 1 5 4 5 7 1 7 3 13 7 19l-1 1-14 3c-11 1-20 5-28 12l-8 6c-4 3-6 6-7 11l-2 20.1m-8-11c-.5-20.2 2-40.5 7-60l9-34.1c5-16 13-31 21-46l17-30.1c8-13 17-24 29-34l25-16c10-6 20-10 31-14.1l19-7c5-2 10-2 16 0l35 13c8.1 3 16.1 8 23.1 13l7 4a114.5 114.5 0 0 1 39 41l19 34.1c10 18 18 37 23 58l6 22.1a321 321 0 0 1 5 89.1c-2 19-7 38-15 57.1l-14 29c-5 11-13 20-21 29a272 272 0 0 1-61 46.1c-15 9-30 14-46 18-6 1-12 0-17-1-20-4-37-12-54-22a278.6 278.6 0 0 1-61.1-52l-10-14-20-43.1c-6-15-9-30-11-46l-1-34.1"/>
    <path fill="#FFF" d="m370 350.7-1-1c-1-1-2 0-2 1a147 147 0 0 0-19 28c-7 10-11 22-14 34-1 3 0 4 2 5l2-1c4-4 8-9 10-15l3-8 5-18c2-8 6-14 11-20l3-4v-1m-60 55-1-1-18-7-26.1-7c-11-3-21-4-32-2-8 1-14 4-19 9l-9 6-3 1c-3 1-5 3-5 7l1 4 1 13.1 2 16c0 8 5 14 13 17l7 3c7 2 12 6 15 11l5 6c4 5 9 7 15 9 1 1 2 0 3-1l3-3c4-4 8-9 11-15l4-8c3-6 8-12 13-17l8-7 3-1 9-7c5-5 10-9 16-12l1-1h-1c-5-2-11-3-16-3l-21 3-9 2h-1v-1l2-1 24-7h7l1-1h-1l-1-1c-10-2-19-3-29 0-8 2-15 5-22 9l-14 9-2 2h-1v-1h1c10-8 20-15 31-19 7-3 14-5 21-5l14 1m40-76.1-2-11a85 85 0 0 1-3-23c0-5-2-7-7-8h-2l-9 1-10 4c-7 2-14 2-21-1l-3-1c-6-2-12-2-17 1s-10 7-13 13l-3 6c-3 6-8 11-14 15l-7 6-5 4c-3 4-3 9 1 12l5 4c4 2 6 5 7 8l3 12 4 6c2 2 3 3 5 2 8 0 16 2 23 6l15 7 24 15 2 1 6 4 1-7-1-4c-4-14-12-27-24-36l-11-8-4-3-1-1h1l1 1 19 11c6 5 11 10 15 17l6 13v1l1-1 5-9 1-4v-7l3-21 7-17 2-8m-9 45v4l1 2 1-1 7-11 9-14 4-7c1-1 3-3 0-5v-4c2-2 4-2 5 0l1 1h1v-4l-2-2-1-1-1-3 2-2 3 1 1 2 1 2 4 1h4c1 0 3 1 3 3a3 3 0 0 1-3.1 2.8 3 3 0 0 1-1.8-.8l-2 1-2 1-1 2h2l2-2c1-1 3 0 4 2 1 1 0 3-1 4h-4c-1-1-2 0-3 1l-6 10c-5 7-7 14-9 21v2l2-1 1-1c6-5 12-8 18-11h1v1l-7 5c-6 3-11 7-15 12l-3 5-3 12v1h1c7-5 14-6 22-8l21-2c6 0 11-2 15-6l7-5c6-5 13-8 20-9l10-1 18-2c4 0 4 0 5-5l2-10v-9c1-4-1-8-3-11l-5-4c-8-8-14-16-18-26l-5-7c-5-8-12-9-20-5l-9 4-11 5c-7 2-13 1-19-3l-5-4-6-3c-4-2-8 0-9 5l-1 7-1 18c0 6-1 12-4 17-2 5-5 9-9 13-6 6-8 13-8 22M356 476v9l-1 1v-3l-1-13c-1-14-6-26-13-37.1l-7-9c-2-3-2-2-5-1l-12 9-9 6-14 13c-5 4-9 9-12 15l-5 9c-3.9 7-9 13-15.1 18v4c2 4 4 7 8 9l2 1c7 3 12 8.1 15 15.1l3 6c2 4 5 6 10 7 3 1 6 0 9-1l8-4c8-2 15-2 22 2l5 2c5 3 9 4 15 5l14 1h4c2-1 2-1 2-3v-6c-1-7-1-14 1-21l4-12c1-6 2-12 0-18-2-5-4-11-8-16-6-8-13-16-21-23l-3-2v4c4 11 5 22 4 33m10-51.1-17 1-1 1h-1l2 3 9 8 21 21c6 7 10 14 11 24l2 3 9.1 4 22 10c5 3 10 3 15 0l15-6 9-3a35 35 0 0 0 20-21c3-11 8-20 15-29l1-3c2-3 2-6-1-9l-3-4-11-11c-6-5-10-10-12-18-1-3-2-6-5-9l-3-1-17 1c-6 1-13 2-19 5l-8 4c-5 1-10 3-16 2l-9 1c-10 0-20 2-30 6l-13 8-1 2h2l15-3c9-1 18-1 27 1l3 1h-3a64 64 0 0 0-38 6h-1l1 1h15c9 1 18 3 26 6l8 2v1h-1l-6-1c-11-2-22-4-32-4m-176.2 8 2-20c1-5 3-8 7-11l8-6c8-7 17-11 28-12l14-3 1-1c-4-6-6-12-7-19 0-3-2-6-5-7.1l-6-4c-7-4-10-12-6-20 1-4 3-7 7-10l17-15 21.1-15c8-6.3 18-9 28-8 9 2 17 2 25 0 5 0 10-1 15 1l5 2c3 2 4 4 5 7l1 5 2 17 1 9h1l4-12 2-9 1-3c3-8 8-11 16-10l8 2H402c9-2.3 18-4.3 27-6 6 0 11 2 16 7l7 9c3 6 7 11 12 16 4.6 4 9 8.4 13 13 3 5 4 10 4 15l-1 6v20c1 6-2 9-6 12l-4 2 3 3 4 8c2 6 6 11 10 16l10 9 5 6c3 4.1 5 8.1 3 13.1l-2 7-5 16c-2 10-8 17-17 23l-24 12c-6 2-12 4-17 8-7 5-15 6.1-24 4-9-3-16-7-23-14l-2-1-1 2-2 11c-2 6.1-2 12.1-2 18.1v10c-1 4-3 8-7 11-3 2-6 3-10 3-10.8 2.2-22 .8-32-4-6-3-12-4-18-3h-15c-9-2-16-6-20-14l-3-7c-3-5-6-9-11-12l-3.1-1c-3-2-6-4-8-8 0-2-1-3-3-2l-6-2-8-6-5-6c-3-3-7-5-11-6l-8-2-14-7c-7-6-12-13-13-22l-1-16.1m199 162.2c-6 0-12-2-18-4l-11-6-10-4c-8-4-16-4-25-2l-12 4c-6 2-11 4-17 4-5 0-10-1-15-4-10-5-17-12-24-21 0-1-2-2-1-4l3 3c6.5 7 14 13 22 18 7 4 14 5 21 3l12-4 15-4c8-2 16-2 24 1l11 4 7 3c11 3 21 4 32.1 0 5-1 11-3 16-6l7-2h2l-1 2-4 4-9 7c-7 5-15 8-25 8m-86-363.4 13 2 11 5 8 3c7 3 15 3 22 0l10-5 9-5c9-4 18-4 27 0l15 8 16 13 1 2-5-3-16-11-11-5c-10-4-19-3-28 3l-9 6-10 5c-8 4-17 5-25 2l-12-6-10-5c-10-5-20-3-28 4l-7 7-2 2h-1l-1-1 2-3c5-6 11-11 18-15 4-2 8-3 13-3"/>
    <path fill="#1E2346" d="M468 462.8v4h1l5-6 7-15 1-4c1-8-1-14-9-19l-5-3c-2-1-4-3-5-6-1-2-2-4-1-7l1-1v-1h-1c-2 1-3 3-3 5v5c1.6 4.9 4.4 9.3 8 13 3 3 5 7 4 12l-2 15-1 8m-102-38c10 0 21 2 32 4l6 1h1v-1l-8-2c-8-3-17-5-26-6h-15l-1-1h1l3-2c11-4 23-6 35-4h3l-3-1c-9-2-18-2-27-1l-15 3h-2l1-2 13-8a87 87 0 0 1 39-7c6 1 11-1 16-2l8-4c6-3 13-4 19-4l17-2 3 1c3 3 4 6 5 9 2 8 6 14 12 18l11 11 3 4c3 3 3 6 1 9l-1 3c-7 9-12 18-15 29-1 4-4 8-6 11-4 5-9 8-14 10l-9 3-15 6c-5 3-10 3-15 0l-22-10-9-4-2-3c-1-10-5-17-11-24l-21-21-9-8-2-3h1l1-1 17-1"/>
    <path fill="#1E2346" d="m339 471.8-1-10-3-8c0-2-1-3-3-3l-1 3 1 8c1 15.2 0 30.3-3 45v4c2 0 2-2 2-3 3.5-11.7 6.2-23.7 8-36m17 4c1-11 0-22-4-33v-4l3 2c8 7 15 15 21 23 4 5 6 11 8 16 2 6 1 12 0 18l-3 12c-3 7.1-3 14.1-2 21.1v6c0 2 0 2-2 3h-4l-14-1c-6-1-10-2-15-5l-5-2c-7-4-14-4-22-2l-8 4c-3 1-6 2-9 1-5-1-8-3-10-7l-3-6c-3-7-8-12-15-15l-2-1c-4.1-2-6.1-5-8.1-9v-4l2-2c5-4 9-10 13-16l5-10c3-5 7-10 12-14l14-13 9-6.1 12-9c3-1 3-2 5 1l7 9c7 11 12 23 13 37l1 13v3l1-1v-9m-15-101c0-9 2-16 8-22.1 4-4 7-8 9-13 3-6 4-11 4-17l1-18 1-7c1-5 5-7 9-5l6 3 5 4c6 4 12.1 5 19.1 3l11-5 9-4c8-4 15-3 20 5l5 7c4 10 10 18 18 26l5 4c2 3 4 7 3 11v9l-2 10c-1 5-1 5-5 5l-18 2-10 1c-7 1-14 4-20 9l-7 5c-4 4-9 6-15 6l-21 2c-8 2-15 3-22 8h-1v-1l3-12 3-5c4-5 9-9 15-12l7-5v-1h-1c-6 3-12 6-18 11l-1 1-2 1v-2c2-7 4-14 9-21l6-10c1-1 2-2 3-1h4c1-1 2-3 1-4-1-2-3-2-4-2l-2 2h-2l1-2 2-1 2-1 2 1c1 0 3-1 3-3s-2-3-3-3h-4l-4-1-1-2-1-2-3-1-2 2 1 3 1 1 2 2v4h-1l-1-1c-1-2-3-2-5 0v4c3 2 1 4 0 5l-4 7-9 14-7 11-1 1-1-2v-4"/>
    <path fill="#1E2346" d="M333 375.7c-1-10-2-19-7-27-4-8-10-16-16-23l-1-1-1-1v1l4 7c9 14 15.5 29.6 19 46l1 1 1-1v-2m-85.1-33h3c5-2 10-4 15-8 3-3 6-7 7-12l2-8 2-8c2-5 6-8 11-9l4-1h1l-1-1-2-1-2 1c-5 1-9 4-11 8l-5 9c-3 6-6 12-11 16l-10 9-4 4v1h1m102-13-2 8-7 17-3 21v7l-1 4-5 9-1 1v-1l-6-13c-4-7-9-12-15-17l-19-11-1-1-1 1h1l4 3 11 8c12 9 20 22 24 36l1 4-1 7-6-4-2-1-24-15-15-7c-7-4-15-6-23-6-2 1-3 0-5-2l-4-6-3-12c-1-3-3-6-7-8l-5-4c-4-3-4-8-1-12l5-4 7-6c6-4 11-9 14-15l3-6c3-6 8-10 13-13s11-3 17-1l3 1c7 3 14 3 21 1l10-4 9-1h2c5 1 7 3 7 8l1 8 2 15 2 11m-40 76-14-1c-7 0-14 2-21 5a132.7 132.7 0 0 0-32 19.1v1h1l2-2 14-9c7-4 14-7 22-9 10-2.3 20.3-2 30 1h1l-1 1h-7a112 112 0 0 0-26 8v1h1l9-2 21-3c5 0 11 1 16 3h1l-1 1c-6 3-11 7-16 12l-9 7-3 2c-3 1-6 3-8 6-5 5-10 11-13 17l-4 8c-3 6-7 11-11 15l-3 3c-1 1-2 2-3 1a32.3 32.3 0 0 1-20-15c-3-5-8-9-15-11l-7-3c-8-3-13-9-13-17l-2-16-1-13-1-4c0-4 2-6 5-7l3-1 9-6c5-5 11-8 19-9 11-2 21-1 32 2l26 7 18 7 1 1m60-55.1v1l-3 4c-5 6-9 12-11 20l-5 17-3 9c-2 6-6 11-10 15l-2 1c-2-1-3-2-2-5 2.9-12.7 8-25 15-36 5-9 11-18 18-26 0-1 1-2 2-1l1 1"/>
    <path fill="#FFF" d="m468 462.8 1-8 2-15c1-5-1-9-4-12l-5-6-3-7v-5c0-2 1-4 3-5h1v1l-1 1c-1 3 0 5 1 7 1 3 3 5 5 6l5 3c8 5 10 11 9 19l-1 4-7 15-5 6h-1v-4m-129 9c0 7-1 15-3 22l-5 14c0 1 0 3-2 3v-4l1-7c2-12 3-25 2-38l-1-8 1-3c2 0 3 1 3 3l3 8 1 10m-91.1-129.1h-1v-1l4-4 10-9c5-4 8-10 11-16l5-9c2-4 6-7 11-8l2-1 2 1 1 1h-1l-4 1c-5 1-9 4-11 9l-2 8-2 8c-1 5-4 9-7 12-5 4-10 6-15 8h-3m85 33v2l-1 1-1-1-1-4c-4-15-10-29-18-42l-4-7v-1l1 1 1 1c6 7 12 15 16 23 5 8 6 17 7 27m102.7 155c0 .3-.3 6.7-.2 13.2-6.8.5-5.7-13.3-5.3-15 .2-1.4-4.4 1.7-6.6 3.8.7 1.3 1.7 1 3 .5-.6 6.2 3.8 11.8 9 11.7.1 6.4.8 12.6 2.6 13 .2.2.5-6.5.6-13.7 12.2-3.8 7.5-18.3 7.5-18.3-.2-.8-2 .3-6 4 1.6 1.6 2.4.6 3.6.2 1 2 1.4 10.5-5 13.1l.2-18c0-.2-.2-.3-.4-.3-1.8.2-5 3.4-7.5 6.1 1.4 2.2 3.1.2 4.5-.4m6 19.1 2.7 2.8 2.8-2.8-2.8-2.8-2.8 2.8Z"/>
  </g>
</symbol></svg>
