<svg xmlns='http://www.w3.org/2000/svg' viewBox='0 0 696 830' fill='none'><symbol id='TIGC_EC_Fill'>
  <g fill="none" transform="translate(.7 .3)">
    <ellipse cx="349.5" cy="404.2" fill="#FFF" rx="227.7" ry="291.9"/>
    <path fill="#1E2346" d="m236 670.6 1 1 2 1c18 11 37 18 57 22l38 6 21 1 34-5 23-4c14.8-3.5 28.9-9.3 42-17h1v1l-2 2-35 37.1-43 49.1-17 19-9 10.1h-2l-9-9-13-15-29-33.1-37-40.1-21-22-2-3"/>
    <path fill="#1E2346" d="M348 20h-2l-3 4-33 29.1-35 32.1-27 26c-36 36-68.2 75.8-96 118.4l-21 27c-6 9-14 17-21 25-13 15.1-26 31.2-37.1 48.2-18 26-35 53.1-51 80.2l-3 5v4l2 4 3 6c8 13 15 26.1 24 38.1a2494 2494 0 0 0 55 70.2c11 14 23 28 36 41.1l44 48.1 18 20 35 42.2c33.3 40.2 69.1 78.4 107 114.2 4 3 6 4 10 0 13-11 25-23 36-36 46.9-48.3 91.3-98.8 133-151.4 26.3-28.6 52.3-57.4 78-86.2l31-40.1c16-21 31-43.1 44.1-67.2l1-2v-5l-5-8c-19.1-32-39.1-63.4-60-94.2l-34-40.1-25-31.1c-27.5-38.8-57-76.3-88-112.3l-31-32-37-34.1L368 38l-16-15-3-3h-1m0-20 1 1 4 3 25 23 21 19.1c15 12 28 25 42 39.1l33 34a849 849 0 0 1 76 95.3 2217 2217 0 0 0 39 51.1 623 623 0 0 1 66 87.3l35 57 5 8.1v4l-1 3c-9 15-17 30.1-27 44.1l-24 32.1-31 39.1-26 30-52 56.2-40 45.1-26 32.1A1210.8 1210.8 0 0 1 367 814l-14 13-3 2h-5l-3-2-15-14a1432 1432 0 0 1-97-106.3l-35-42.1-25-28-34-36.2-45-51-35.1-44.2-29-38-25-42.2v-1c-2-4-3-4 0-8l14-23 33-53.2c15-23 32-45 50-65.1l28-34.1a2304 2304 0 0 0 53-71.2 817.7 817.7 0 0 1 58-68.2l39-39L308 35l31-28 7-6.1 2-1"/>
    <path fill="#FFF" d="m455 139.3-2-2-22-23-34-36.1A1387.5 1387.5 0 0 0 346 29v1l-46 46-31 34.2-28 29-4 4-1 2 1-1 2-1 25-13c13-6 27-11 41-15 7-2 15-4 22-3h24l18-1a375.4 375.4 0 0 1 82 27l3 2h1v-1M236 670.6v1l2 3 21 22 37 40.2 29 33 13 15 9 9.1h2l9-10 17-19 43-49.2a1048 1048 0 0 1 37-39v-1h-1l-3 2c-12 6-25 12-39 15l-23 4-34 5-21-1-38-6a165 165 0 0 1-59-23l-1-1M671 416l-1-1-5-5-17-21a1539.4 1539.4 0 0 1-69-99.3l-16-25-32-40.2-1-1 1 3 10 20c6.4 17.1 12.8 34.2 19 51.2A510.9 510.9 0 0 1 577 415v31l-1 11.1-2 17-4 33.1a175.2 175.2 0 0 1-24 67.2l-1 3c2 0 2-2 3-2l44-58.2c19-26 39-53 60-78.1l18-21 1-2.1M161 590.4l-1-3a286.6 286.6 0 0 1-28-65.1c-3-12-5-24.1-6-37.1l-3-23-1-26.1c-1.5-50 5.2-99.7 20-147.4l16-40.1c5-13.8 11.6-27 20-39v-1.1l-1 1-4 4-27 33c-9 12.1-18 24.2-25 36.2a883.5 883.5 0 0 1-64.1 93.2l-24 31-8 8.1v2l5 6c23.7 29.9 47 60 70 90.2l58 74.2 2 3h1M572 433l-1-23c-1.2-24.6-4.3-49-9-73.2-3-13-7-27-12-39l-19-50.2c-4-12-10-22-16-33a562 562 0 0 0-40-52.2c-11-11-24-20-39-26a276.7 276.7 0 0 0-53-15.1c-10-3-21-3-32-4h-7l-5 1a342.4 342.4 0 0 0-92 26c-13 7-23 16-32 27.1l-28 39.1c-9 12-16 25-21 39.1l-16 41.1a347.8 347.8 0 0 0-20 91.2l-3 35.1a257 257 0 0 0 3 63.2l7 30c6 28 17.1 54.6 33 78.2 17.6 23.2 37 45 58 65.2 20.6 18 45.4 30.2 72 36l25 5 14 1c11.7.8 23.4.5 35-1l25-6c29-5.6 55.8-19.5 77-40a853.2 853.2 0 0 0 37-39.1 249.3 249.3 0 0 0 54-121.3c4-17 5-35.1 5-55.2M348 20h1l3 3 16 15 28 25.2 37 34 31 32.1a756.3 756.3 0 0 1 88 112.3c8 11 16 21 25 30A620 620 0 0 1 671 407l5 8v5l-1 2c-13 24-28 46.1-44 67.2l-31 40-36 41.2-42 45c-19 20.1-37 41.2-55 63.2-31.1 39-64.5 76.2-100 111.3l-14 13c-4 3-6 3-10 0l-14-12c-46.2-45-88.9-93.2-128-144.3l-18-20-44-48.2A1341.6 1341.6 0 0 1 24.8 430l-4-7-2-4v-4l3-5c16-27 33-54.1 51-80.2 11-17 24-33 37-48.1l21-25 21-27.1c29.7-41.2 61.8-80.7 96-118.3l27-26L310 53l32-29 4-4h2"/>
    <path fill="#1E2346" d="m522 412-1-20-1-16-8-32.2a238 238 0 0 0-51-101.2l-14-16a165.9 165.9 0 0 0-43-37.1c-13-7-27-12-41-15s-16-2-30 0a140.7 140.7 0 0 0-61 29c-7 6-15 12-21 20l-14 17a241.8 241.8 0 0 0-51 96.3l-6 24c-4 14.1-5 29.1-6 43.2 0 19 1 38 4 57.1 3 17 8 34 14 50.1a1583 1583 0 0 0 28 53.2l15 19c9 11 21 20 33 28l14 8c18 10.1 37 17.1 57 20.1l3 1c7 0 14 0 21-2 12-2 24-6 35-11 13-6 25-13 36-20 10-7 18-14 26-22l14-17.1a1559 1559 0 0 0 29-54.2l12-36c5-22.1 7-43.2 7-66.2m50 21c0 20-1 38.1-5 55.2l-8 33a249 249 0 0 1-84 127.4 162.6 162.6 0 0 1-76 40l-25 6-14 1c-11.8.8-23.5.5-35-1l-25-5a150.3 150.3 0 0 1-72-36c-21-20.2-40.5-42-58-65.2a247.5 247.5 0 0 1-33-78.2l-7-30a247.6 247.6 0 0 1-3-63.2l3-35c2.3-31.3 9-62 20-91.3l16-41.1a483.2 483.2 0 0 1 49-78.2 124.3 124.3 0 0 1 51-36c23.5-8.4 48-14.1 73-17.1l5-1h7c11 1 22 1 32 4 17.9 4.1 35.6 9.1 53 15 15 6 28 15 39 26l14 16.1 26 36.1c6 11 12 21 16 33.1l19 50.1a272.5 272.5 0 0 1 17 67.2l4 45 1 23.1"/>
    <path fill="#1E2346" d="M161 590.4h-1l-2-3-58-74.2c-22.3-31-45.6-61-70.1-90.2l-5-6v-2l8-8 24-31a1503 1503 0 0 0 89-129.4l27-33 4-4 1-1.1v1l-4 7c-7 10-12 20-16 32.1l-16 40.1c-7 19-12 38-15 58.1-4.3 29.6-6 59.4-5 89.3l1 26 3 23a195.8 195.8 0 0 0 34 102.3l1 3M671 416l-1 2-18 21c-21 25.1-41 52.2-60 78.2l-44 58.2c-1 0-1 2-3 2l1-3 13-28c5-12.1 9-26.1 11-39.2l4-33 2-17.1 1-11V415c0-17-1-33-3-50.1a308.9 308.9 0 0 0-21-86.2l-12-32.1c-3.1-8-6.8-15.6-11-23l1 1c11 13 22 26 31 40l17 25.1a869.4 869.4 0 0 0 69 99.2l17 21 5 5.1 1 1M455 139.3v1h-1l-3-2-23-11-36-12c-8-3-15-4-23-4l-18 1h-24c-7-1-15 1-22 3-23 7.1-45 16.4-66 28l-2 1-1 1 1-2 4-4 28-29 31-34.1L346 30v-1h3a555 555 0 0 1 48 49l34 36.2 22 23 2 2"/>
    <path fill="#FFF" d="m348 634.5 10-1 4-1c10-3 20-6 29-11l19-10a233 233 0 0 0 70-64.2c7-12 13-24 18-37v-3l-6-6-1-1h-2l-3 5-12 15-7 5-10 5-4 2-3 2-1-1 2-3 6-5 2-2v-1l-5-4c-10-7-19-15-26-24.1-1-2-2-2-3-1l-2 1-18 16-5 4c-3 2-4 2-1 5h1a185 185 0 0 0 25 19.1l1 1h-1l-11-5-12-9-13-10c-7-3-12-8-17-14l-11-12.1-14-16h-2l-1 1c-7 13-16 23-26 33-5 5-11 9-18 11-6 2-11 5-16 9l-4 3c-1 1 0-2 3-5l7-7 2-1c2-1 2-2 0-2l-8-10-1-1-2-1-2 3c-8 10-16 19-27 26v2l1 1 12 14.1c4 5 8 9 14 12l9 4 2 1h1-1l-9-2c-5-2-9-5-13-9l-11-8c-7-5-13-11-18-18l-9-14-2-2h-2l-1 2-14 19-1 3 13 21a226.5 226.5 0 0 0 115 75.2l10 1M181 422c.4 23.4 3.4 46.5 9 69.2a252.6 252.6 0 0 0 17 36l2-1 16-14c2-2 2-2 5 0l1 2 13 12 3 2h1l2-1 23-19 5-4 3-3h4l13 10 2 1 12-9 31-30 1-2h4l6 3 15 13 14 15 10 10h2l12-8 17-12c2-2 5-2 8-1l6 4 9 8 7 8 10 7 3-1 3-3 18-15c2-2 2-2 4 0l4 2 4 4 3-6c5-15 9-30 10-45.1l2-39.1-1-14-4-26.1-8-31c-4-19.1-11-36.2-20-52.2-7-15-15-28-23-42.1l-8-11-8-9c-4-5-9-10-14-13l-18-13.1-17-9c-12-6-26-10-39-14-5-2-9-2-14 0l-7 2a324.3 324.3 0 0 0-48 21l-15 10c-8 5-14 11-20 18l-14 19.1-22 38.1c-8 16-15 32-20 50.1l-7 28a114 114 0 0 0-5 32.2l-1 23m340-10a301 301 0 0 1-19 101.2l-13 29.1-16 26-14 17.1c-8 8-16 15-26 22-11 7-23 14.1-36 20.1-11 5-23 9-35 11-7 2-14 2-21 2l-3-1c-25.7-3.9-50-13.8-71-29-12-7-24-16-33-27-10.5-13.3-20-27-29-41.2l-13-31a223 223 0 0 1-15-50.2 309.4 309.4 0 0 1 2-100.2l6-24a233.8 233.8 0 0 1 51-96.3l14-17c21.1-25 50-42.3 82-49.2 14-3 16-3 30 0a162.7 162.7 0 0 1 55 24c11 8.1 21 17.1 29 28.1l14 16c24.7 29.4 42.2 64 51 101.3l8 32.1 1 16 1 20"/>
    <path fill="#1E2346" d="m484 434-4-4c0-1 0 0 0 0l-1 2c-1 1-3 1-3 3l3 3h2l3-3v-1m-27-126.3v-1l-3-4h-1l-4 5 4 4 1 1c0-2 2-4 3-5m-26-37-1-1-1-1-2-3-3 3-2 2 2 2 2 2h1l3-3v-1m-66 22-2-2-2-3-3 3-1 1v1l4 4 3-4h1m-116 20v-1l3-4v-1l-1-1-2-3-2 3-2 1v2l3 3 1 1m133-92.2-1 2-3 3 3 3 1 1h1l2-3 1-2-1-2-2-2h-1M254 472.1h-1l-3 4v1l4 4 3-4v-2l-3-3v-1m-29-25v-1l-4-3h-1c0 1-1 3-3 3v2c2 0 2 2 3 3l1 1 4-5m76-190.5-1-1-1-1-2-3-3 3-1 1v2l3 3h1l3-3 1-1m40 63.2v-1l-4-4-4 4v1l4 5 4-5M329 401l2-1 4-3c2-2 3-5 6-6v-1h-1c-5 2-9 5-12 9v2h1m46-19 5-1 5 1c2 0 4 0 5 2l1 1c-1 0-2 1 0 1l4 1c3 2 4 4 5 7l-1 2-1-1c-2-3-5-4-9-4l-7 3-7 3-8 1h-4c1 2 3 1 4 2h1v2c-4 4-9 7-16 9l-15 2c-7 0-14 3-20 7l-5 5-7 5c-3 3-7 4-11 5h-1l1-1 9-8a46 46 0 0 1 15-12v-1c-4 1-8 2-11 5l-6 4-7 1v-1l2-1 5-5 2-2 7-4h3v-1c-3-1-6 0-8 1l-5 3c-3 4-7 7-12 8v3l8 3v1c-2 3-5 5-8 6l-3 2v1c2 2 4 2 7 2 4 0 8-2 11-4l7-4 9-6c7-3 13-6 20-6h8c8-1 14-3 20-8 2-2 5-4 6-7l10-7 8-3c2 0 4 0 6 2l1 2h2c2-4 1-10-4-12l-4-3v-3l8-9.1h1c2-2 3-1 4 1l1 2c2 4 4 6 7 7l5 1c2 0 2 1 3 2 1 2 3 3 6 3 1-1 2-1 3 1s4 3 6 2l2-1h2l2 5c2 5 7 8 13 10h1v-1l-4-15v-2c1-1 1 0 2 1 4 3 6 7 7 11l1 3h1v-1c2-6 3-13 0-19l-1-2 2 1 2 1c4 1 7 2 11 1h1v-1l-2-1-7-7c-4-5-8-10-11-17l-9-12-8-5c-6-2-13-3-19-1-7 2-13 5-18 9l-15 12a363 363 0 0 1-21 16l-4 1-9-3-16-10-17-12c-12-8-25-8-38-2l-9 5c-11 8-23 14-34 20-6 4-13 7-19 9l-3 1-1 1 3 2 7 2h1v2c-7 5-11 12-14 20 0 1-2 3.1 0 4.1l3-2c5-5 11-9 18-10l10-2c6-1 13-3 18-7l1-1h1v1l-1 2-1 11c1 2 1 5 3 7v1l1-1 1-3 8-13 1-1h1v1l-1 3-1 4 2 1c1 1 3 0 4-1l4-3c2-2 5-2 8 0l1 1c2 1 4 2 6 1l2 1 5 2h12l-1-1-4-2-3-1-5-1-1-1 3-3a31 31 0 0 0 5-12v-1h-1l-3 6-5 6c-3 2-4 2-6 1-2-2-4-3-6-2h-2l-1-1 2-3v-1l-2 1-2 2-7 8-1 1h-1v-2l8-16c1.6-3.8 3.3-7.4 5-11.1v-1h-1l-2 4c-4.2 7-9.2 13.4-15 19l-6 8-1 3-1-3v-2c2-7 4-13 8-19l5-6v-2l-3 2-9 9c-7 5-14 9-22 11l-7 2a46.7 46.7 0 0 0-16 7v-1l8-10 12-6 15-6 13-7 2-2v-1l-3 1-7 3c-8 4-15 7-24 8l-10 1-1-1h1l12-4c6-2 13-5 19-9l23-13 16-7c10-2 18 0 26 6l5 5 11 9c5 4 11 7 18 9l16 1M181 422l1-23c1-11 3-21 6-32.1l7-28c5-18.1 12-34.2 20-50.2l22-38.1 14-19c6-7 12-13 20-18l15-10.1 17-9c10-5 20-8 31-12l7-2c5-2 9-2 14 0l39 14 17 9 18 13 14 13 8 9 8 11.1c8 14 16 27 23 42.1 9 16 16 34 20 52.1l8 31.1 4 26V415c1 13 0 26-1 39.1-2 15-5 30-10 45.1l-3 6c-2 0-3-2-5-4l-3-2c-2-2-2-2-4 0l-18 15-4 4h-2l-10-7-7-8c-4.7-4.3-9.8-8.3-15-12-3-1-6-1-8 1l-17 12-12 9-2-1-10-10-14-15-15-13-6-3h-4l-1 2-31 30-12 9-2-1-13-10h-4l-3 3-5 4-23 19-2 1h-1l-3-2-13-12-1-2c-3-2-3-2-5 0l-16 14-2 1h-1l-1-1c-5-11-11-23-15-35l-6-30-3-39.2"/>
    <path fill="#1E2346" d="m348 634.5-10-1c-19-4.4-37-12.2-53-23a258.1 258.1 0 0 1-62-52.2l-13-21 1-3 14-19 1-2h2l2 2 9 14c5 7 11 13 18 18l11 8c4 4 8 7 13 9l9 2h1l-3-1-9-4c-6-3-10-7-14-12l-12-14-1-1v-2a102.8 102.8 0 0 0 29-29l2 1 1 1 8 10c2 0 2 1 0 2l-2 1-7 7c-3 3-4 6-3 5l4-3c5-4 10-7 16-9 7-2 13-6 18-11 10-10.1 19-20.1 26-33.2l1-1h2l14 16 11 12.1c5 6 10 11 17 14l13 10 12 9 11 5.1h1l-1-1-2-2c-8-5-16-10-23-17h-1c-3-3-2-3 1-5l5-4 18-16.1 2-1c1-1 2-1 3 1 7 10 16 17 26 24l5 4v1l-2 2-6 5-2 3 1 1 3-2 4-2 10-5 7-5a73.5 73.5 0 0 0 15-20h2l1 1 6 6v3c-5 13-11 25-18 37.1-4 8-11 15-17 22a232.3 232.3 0 0 1-101 63.2l-4 1-10 1"/>
    <path fill="#FFF" d="M438 372.9v-4 1l1 4 3 11c0 4 2 8 5 11l4 4 1 1v-2l-3-11c0-3-1-6-4-9-3-5-4-10-5-15l1-1v1l1 3c2 4 4 7 8 10 5 4 9 10 12 16h1l-1-6c-1-3-2-7-4-9l-6-8-4-5v-2l1 1 1 1 11 9 3 2h1l-1-1-10-17c-2-4.4-4.7-8.6-8-12-3-3-7-5-12-5-7 0-13 2-18 5-8 5-16 10-22 17l-13 12h-1v2l1 1h5l2-1 4-5c4-5 9-9 15-13l3-1-2 3-3 3v2l5 4 1 2c2 3 4 5 8 6l2-2 1-2 1-4 1-1v11c-1 2 1 3 3 3 2-1 2-2 2-3l1-4c2 1 1 3 1 4v2l1 3 3 1c2-1 4-2 3-5v-8m-63 9-16-1c-7-2-13-5-18-9l-11-9-5-5c-8-6-16-8-26-6l-16 7-23 13c-6 4-13 7-19 9l-12 4h-1l1 1 10-1c9-1 16-4 24-8l7-3 3-1v1l-2 2-13 7-15 6c-4 1-8 3-11 6-4 3-7 6-9 10v1l1-1 15-6 7-2c8-2 15-6 22-11l9-9 3-2v2l-5 6a41.2 41.2 0 0 0-8 21h2l6-8 4-5c4-5 8-9 11-15l2-3c1-1 1 1 1 1l-1 2-4 9-8 16v2h1l1-1 7-8 2-2c1-1 1-2 2-1v1l-2 3 1 1h2c2-1 4 0 6 2 2 1 3 1 6-1l5-6c1.2-2 2.5-4 4-6v2l-1 3-4 8-3 2 1 2 5 1 3 1 4 2 1 1h-12l-5-2-2-1c-2 1-4 0-6-1l-1-2c-3-2-6-1-8 1l-4 3c-1 1-3 2-4 1l-2-1 1-4 1-3-1-1-1 1-8 13-1 3.1-1 1v-1c-2-2-2-5-3-7l1-11 1-2v-1h-2c-5 5-12 7-18 8l-10 2c-7 1-13 5-18 10l-3 2c-2-1 0-3 0-4 3-8 7-15 14-20v-2h-1l-7-2-3-2 1-2h3c6-2 13-5 19-9.1l34-20 9-5c13-6 26-6 38 2l17 12 16 10 9 3 4-1 9-5a437 437 0 0 0 27-24c5-3 11-6 18-8 6-2 13-1 19 1l8 5 9 12c3 7 7 12 11 17l7 7 2 1v1h-1c-4 1-7 0-11-1l-2-1-2-1 1 2c3 6 2 13 0 19v1h-1l-1-3c-1-4-3-8-7-11-1-1-1-2-2-1v2l4 15v1h-1c-6-2-11-5-13-10l-2-5h-4c-2 2-4 1-6-1-1-2-2-2-3-2-3 1-5 0-6-2-1-1-1-2-3-2l-5-1c-3-1-5-3-7-7l-1-2c-1-2-2-3-4-1h-1l-8 9v3l4 3c5 2 6 8 4 12h-2l-1-2c-2-2-4-2-6-2l-8 3-10 7c-1 3-4 5-6 7a35 35 0 0 1-20 8.1h-8c-7 0-13 3-20 6l-9 6-7 4c-3 2-7 4-11 4-3 0-5 0-7-2v-1l3-2c3-1 6-3 8-6v-1l-8-3v-3c5-1 9-4 12-8l5-3c2-1 5-2 8-1v1h-3l-7 4-2 2-5 5-2 1v1l7-1 6-4c3-3 7-4 11-5v1c-6 3-11 7-15 12l-9 8v1c4-1 8-2 11-5l7-5 5-5c6-4 13-7 20-7l15-2c7-2 12-5 16-9v-2s-6-1-5-2h4l8-1 7-3 7-3c4 0 7 0 9 4 1 0 1 1 2-1-1-3-2-5-5-7l-4-1c-2 0-1-1 0-1v-1l-6-3h-5l-5 1"/>
    <path fill="#FFF" d="M328 401v-2c3-4 7-7 12-9h1v1l-6 6-4 3-3 1m14-82.2-5 5-4-5 4-5c1-1 5 4 5 5m-41-63.2-4 5-5-5 5-5 4 5m-75 190.5-5 5-4-5c-1 0 4-6 5-5l4 5m28 25 3 4v2l-4 4-4-5 5-5m127-250.6h1l3 4-3 5h-1l-4-4 4-6m-133 93.3-5-5 5-5 4 5-4 5m116-20-4 4-5-4 5-5.1 4 5m67-22-5 5c0-1-5-5-3-5l4-5 4 5m27 37-5 5-4-5 4-5 5 5M484 434l-4 5-4-4 4-6 4 5"/>
    <path fill="#1E2346" d="M438 381c1 3-1 4-3 5l-3-1-1-3v-2c0-1 0-5.1-1-4l-1 4c0 1 0 2-2 3-2 0-4-1-3-3v-11.1l-1 1-1 4-1 2-2 2c-4-1-6-3-8-6l-1-2-5-4v-2l3-3 2-3-4 1-14 13-4 5-2 1-5-1h-1v-2h1l13-12c6-7 13-12 22-17 5-3 11-5 18-5 5 0 9 2 12 5a35 35 0 0 1 8 12 85.4 85.4 0 0 0 11 18h-1l-3-2-11-9-1-1-1-1v2l4 5 6 8a24 24 0 0 1 5 15h-1c-3-6-7-12-12-16-4-3-6-6-8-10l-1-3v-1l-1 1c1 5 2 10 5 15 3 3 4 6 4 9l3 11c0 2-1 1-1 1l-4-4c-3-3-5-7-5-11l-3-11-1-4c0-1 0 0 0 0v11"/>
    <path fill="#FFF" d="M391.4 440.2c0 .4-.3 6.8-.2 13.3-6.8.5-5.7-13.3-5.3-15 .2-1.4-4.4 1.7-6.6 3.8.7 1.3 1.7 1 2.9.5-.5 6.2 3.9 11.8 9 11.7.2 6.4.9 12.5 2.7 13 .2.1.5-6.5.6-13.7 12.2-3.8 7.5-18.3 7.5-18.3-.2-.9-2 .3-6 3.9 1.6 1.7 2.4.7 3.6.3 1 1.9 1.4 10.5-5.1 13l.3-18c0-.2-.2-.3-.4-.3-1.8.2-5 3.5-7.5 6.2 1.4 2.2 3.2.2 4.5-.4m5.9 19.1 2.8 2.8 2.8-2.8-2.8-2.8-2.8 2.8Z"/>
  </g>
</symbol></svg>
