<svg xmlns='http://www.w3.org/2000/svg' viewBox='0 0 696 830' fill='none'><symbol id='VDIC_EC_Fill'>
  <g fill="none" transform="translate(.7 .3)">
    <ellipse cx="347.1" cy="406.4" fill="#FFF" rx="244.4" ry="309"/>
    <path fill="#1E2346" d="M347.5 20h-2l-4 3c-10 11-21 20-32 30-36.4 30-70 63.1-100.2 99.2-27.2 32.3-52.6 66-76.1 101.1l-23 27c-15 17-29 35-42.1 53.1l-41 66-8 14.1c-2 3-2 5 0 7l4 8 21 35 27 36.1c20 26 41 51 64 75l40.2 43.1 28 31 33 40.1A1162 1162 0 0 0 330.5 792l12 10c4 4 5 4 9 0h1l11-10c20.8-21 41-42.4 61.1-64.1l42-50a1181 1181 0 0 1 100.2-112.2c11-11 22-23 31-36l32.1-40.1c17.4-22 32.8-45.5 46-70v-5.1l-6-10-37-59c-16-25.1-34-49.1-53-71.2a261 261 0 0 1-30.1-36c-20.7-28.8-42-57.3-64.1-85.1A928 928 0 0 0 391.6 59l-40-36-3.1-3h-1m0-20.1h1l4 4 18 17 27 23 35.1 33 39 40.1a893.2 893.2 0 0 1 90.2 115.2l30 37c22 24 42.1 50 60.1 78.1l38 62 5.1 8.1v4l-1 3a465 465 0 0 1-52 77.1 1075.4 1075.4 0 0 1-68.2 81.1l-45 48-54.1 62.1A1377.8 1377.8 0 0 1 366.5 814l-14 12c-4 4-6 4-11 0l-17-16c-20-19-39-39-57.1-59l-43-51.2-40.1-48-43.1-46-49-54.1A1244 1244 0 0 1 0 422.5v-6l6-10 42-68c16-24.1 33.1-46.1 52.1-67.2 14-15 26-31 38.1-47 39.3-55 83.2-106.7 131.2-154.2 12-13 26-24 39-36 12-9 23-20 33-30.1l5.1-4h1"/>
    <path fill="#FFF" d="m347.5 112.1 19-1c9 0 18 1 27 4l17 6c15 4.2 29.4 9.9 43.2 17l-4-4-47.1-49c-17-19-34-37-52.1-54-4-4-3-4-7 0l-43 44-38.1 41-25 26-2 2-1 1h1l3-2a182 182 0 0 1 54-24l16-5c9-3 19-3 29-3l10.1 1M236.3 670.8h-1v1l3 3 30 32 51.2 57.1 20 22 7 7h2l1-2c8-7 14-15 21-23l27-31c15-16 29.1-33 45.1-48l9-10 2-2v-1h-1l-3 1c-12 7-25 12-38 15l-22 4-35 5-22.1-1-38-6a148 148 0 0 1-42.1-14l-15-8-1-1m340.4-251.4-1 37-2 15-5 37.1a186.6 186.6 0 0 1-23 67l2-2 27-34 31-42c17.1-23 34.1-45 52.1-66l12-14.1v-3l-1-1-12-13-30-39a1134.7 1134.7 0 0 1-70.1-105.2l-24-30-2-3h-1v1l1 2c4 7 7 13 9 20l14 33c11 29 18 58.1 21 88.1l2 52.1M159.2 589.7h1l-2-4c-7-11-13-24-19-36-7-18-11-36-13-54.1l-3-31c-2-14-3-28-3-43v-17.1l4-51c3-21.1 8-41.1 15-60.1l20-52.1 11-22 4-6 2-2-1-1-3 3-30 37-19 28-17 27L56 375.6c-10 13-20 27-32 39v3l9 10 15 18 36 46c20 27.1 39 54.2 60.1 79.2l14 17 1 2m412.6-163.2-1-7a692.1 692.1 0 0 0-10-86.1c-3-12-6-24-11-36l-19-51.1c-5-12-10-23-17-34a578 578 0 0 0-45.1-56.1c-9-8-18-14-29-18l-21.1-8-32-9-38.1-4h-4l-6 1c-15.6.3-31.3 3-46 8a258.3 258.3 0 0 0-48.1 19c-12 7-22 16-31 27a507.4 507.4 0 0 0-47.2 75.1l-8 20-12 34a282.8 282.8 0 0 0-18 94.2l-2 36c-1 14 0 28 2 42l7 33.1 7 26a235 235 0 0 0 54 90.2c13.6 12.6 27.2 24.9 41.1 37 17 13 36 23 57.1 27l23 6 27.1 3c10 0 21 0 31-3l15-3 26.1-6c22-8 41-20 58-36l21.1-20a232.9 232.9 0 0 0 60.1-96.2 312.1 312.1 0 0 0 16-105M351.5 23l40 36a755.2 755.2 0 0 1 94.2 94.2c23 27.1 44.4 55.6 64 85a263.1 263.1 0 0 0 30.1 36.1c19 22 37 46 53.1 71.1l37 59 6 10.1v5l-1 3c-13 24-28 46-45 67l-32 40.1a7393 7393 0 0 1-75.1 83.1l-56.1 65.1A1346 1346 0 0 1 363.5 792l-11 10h-1c-4 4-5 4-9 0l-12-10a946.3 946.3 0 0 1-94.2-103.2l-33-40-28-31-40.1-43.1c-23-24-44-49-64.1-75.1l-27-36-21-35-5-8v-7.1l9-14 41-66.1c13-18 27-36 42-53l23-27 19.1-26.1C185.7 180.9 222.4 137 262.4 96l47-43 32-29c6.1-6 6.1-5 10.1-1Z"/>
    <path fill="#1E2346" d="M173.2 412.5v11c2.2 51.4 18.8 101 48.1 143.2l8 10c10 13 22 24 36 32 8 6 17.1 10 25.1 15 12 6 23 10 36 13l24.1 3 5-1c13-2 25-5 37-10 16-7 31.1-15 45.1-25 8-5 15-12 22-20l12-15c7-8 13.1-18 18.1-28l10-22 8-19.1a248 248 0 0 0 14-101.1l-4-33-6-24c-9-38-27.2-73-53-102.2l-11-12a155.8 155.8 0 0 0-53.1-43l-35-11h-24.1c-13 3-25 7-37 12a97.4 97.4 0 0 0-26.1 17c-8 6-16 13-22 21l-13 15a243.2 243.2 0 0 0-50.1 89l-7 28.1-4 18c-3 13-3 26-3 39.1m398.5 14c1.4 25-1.3 50-8 74.1l-8 31a240.9 240.9 0 0 1-60 96.2l-21.1 20c-17 16-36 28-58.1 36l-26 6-15 3c-19.2 4.2-39 4.2-58.1 0l-23-6a153.1 153.1 0 0 1-73.2-40l-25-24a229.4 229.4 0 0 1-54.1-90.2l-7-26-7-33c-2-14-3-28-2-42l2-36.1a442 442 0 0 1 18-94.1l12-34 8-20.1c5-12 11-24 18-35l29.1-40a118.8 118.8 0 0 1 52-38.1 261 261 0 0 1 73.2-16l6-1h4c31.5.6 62.5 7.9 91.1 21 11 4 20 10 29 18l18.1 19 27 37c7 11 12 22 17 34.1l19 51a296.7 296.7 0 0 1 16.1 64.1c3 20 4 39 5 58.1l1 7"/>
    <path fill="#1E2346" d="m159.2 589.7-1-2-14-17c-21-25-40-52-60-79.1l-36.1-46-15-18-9-10.1v-3c12-12 22-26 32-39l50-70.1 17-27 19.1-28.1 30-37 3-3 1 1-2 2-4 6-11 22-20 51c-7 20-12 40.1-15 61.1l-4 51v17.1c0 14 1 29 3 43l3 30.1c3 32.5 14 63.9 32 91.1l2 4h-1m417.6-170.2-2-52c-3-30-10-59.1-22-88.2l-13-33c-2-7-5-13-9-20l-1-2v-1h1l2 3 24 30 16 23c25.5 42.2 53.5 82.6 84.1 121.2l12 13 1 1v3l-12 14c-18 21-35 43-52 66.1l-31 42-27.1 34-2 2 1-3 12-25c5-13 8-26 10-39l5-37 2-15 1-37M236.3 670.7l1 1 15 8c13 6 27.1 11 42.1 14 20 3 40 5.2 60.1 7l35-5 22-4a152 152 0 0 0 42.2-16v1l-2 2-9 10c-16 15-30.1 32-45.1 48l-27 31.1c-7 8-13 16-21.1 23l-1 2h-3l-6-7-20-22-51.1-57-30-33-3-2v-1h1m111-558.8-10-1a98.2 98.2 0 0 0-45 8c-10 3-20.1 6-29.1 11a203 203 0 0 0-28 15h-1v-1l3-2 25-26 38-42 43-43c4.1-4 3.1-4 7.1 0 18 17 35 35 52 54l47.1 49 4 4v1h-1l-2-1c-12-7-26-13-40-17l-17-6c-9-3-18-4-27-4l-19.1 1"/>
    <path fill="#FFF" d="M324.5 288.3v-2l-1 1-1 1-7 10-3 3c-1 2-1 3 1 4l6 2 1-1c2-6 4-12 4-18m0 66.1c1-2 0-3-2-3l-5 1-2 2-8 14v1c-1 1 0 2 1 2l9-2h3l2-2 2-12v-1m56-52c4 0 9-3 10-7v-2l-1-1c-9-6-16-14-23-22l-1-2h-2v1l2 7 9 23 3 2 3 1m-39-83.1h-1v-1l-1 1c-3 15-5 29-6 44l-3 18c-3 8-5 16-5 24-1 11-2 22-5 32.1l-2 8 2 2 4-1c2 0 2-1 2-2l1-9 4-31 6-49 4-36.1m-83.1 123.1h4c3-1 5-5 3-8l-6-10c-2.6-3.7-6-6.8-10-9h-3l-2 4-12 19-1 2 1 3 5 2c5 3 9 3 13-1 2-2 5-3 8-2m192.2-24 3 1 4 1c3 1 5 0 7-2v-4l-1-1a143.2 143.2 0 0 1-20-27h-2l-3 3-13 22-3 4 1 2c7 3 14 4 22 2l5-1m-73-11 1 4 4 14 4 18c0 1-1 2 1 3l3-2 10-14c4-4 7-8 12-11 2-1 2-3 0-5v-1l-8-8-5-5c-2-2-4-2-6-1-2 0-4 2-5 3-2 3-5 4-8 4h-2l-1 1m11 63h5c1 0 3 1 4-1l-2-3-10-13c-1-2-3-3-6-2-6 0-13 0-19 2h-9l-7.1-2-12-1c-2 0-3 1-4 4a100 100 0 0 0-1 11c0 2 1 2 3 2h11c12 .5 24 1.2 36 2l11 1m-78-63c-1 0-3 0-3 2l-2 1c-3 6-7 10-12 14l-3 2a377 377 0 0 0-9.1 13l7 11c2 2 5 5 9 6l8 3 5-7c2-2 3-5 4-9l3-16 2-15-1-2-4-2-4-1m61.1 40h5c4-1 5-1 3-6l-5-18-11-45-5-16c-4-7-7-15.1-8-23.1l-4-17-1-4h-1v1l-1 9-3 33-3 30-3 22-4 30.1c0 2 0 3 3 3h2l12-1c4-1 8-2 12-1l5 2 7 1m-42 161.2v35c0 2 2 3 4 3l4-1h16l7 1h10l16-2c2 0 3-1 4-3v-5l1-21 2-24v-9c1-2 0-2-1-2h-33l-6 1h-16l-8-1-2 1 1 4 1 23m-28 95.1h1v14c0 2 0 3 2 3l15 7h1l1-1v-1l1-32v-33l-1-28 1-25v-12.1l2-25-2-35v-29.1l1-26v-4c-1-2-3-2-5-1-3 2-7 3-11 3-2 1-3 2-3 4l-2 25 1 23c1 8 2 17 0 25l-1 8c-1 5 0 11 1 16a97.3 97.3 0 0 1 0 38.1c-2 12-3 25-1 37v30.1l-1 19m90-15 1-16v-15c-1-3-2-5-6-5h-2l-11-1-3-1h-9l-3 1c-6 1-12 2-19 1l-5-1c-4 0-6 2-6 5l-1 7v45l1 19c0 2 0 2 2 3l8 2 8 1 12-1c10.7-2.5 21.1-6.2 31-11l2-2v-31m3-190.2 1-19c0-2-1-3-3-4h-31c-5-1-10-2-15-1l-3-1h-11c-4-1-5 0-5 5 0 10 0 20 2 30l1 20-2 20-1 20v3c0 3 2 5 5 5l3-1 13-1 8 1 12 1c7-1 14-1.3 21-1 3 0 5-2 5-5l1-8-2-28-1-14 2-22m107.2-57-2-5c-4-17.1-11-32.1-19-47.2l-17-31a137.5 137.5 0 0 0-55.1-56l-16-8c-12-6-25-10-38-14-4.1-2-9.1-2-14.1 0l-27 9-27 13a818 818 0 0 0-28.1 21c-9 9-18 19-24 31l-5 8-18.1 33c-6 13-12 26-16 40.1l-8 31-4 17-1 7h1l1-2c3-4 6-7 8-12 5-7 10-14 17-20l5-4c7-6 13-13 18-20l7-12 4-5c2-3 5-4 8-3l4 2c7 4 13 9 18 15l4.1 4h1l1-1c5-8 12-15 20-21l13-14c4-7.3 8.4-14.3 13-21l2-12 8-33.1 2-10 3-12 1-3 2-1 2.1 3 2 3 8 23c3 6 5 11 6 17v5c0 3 1 4 3 6l14 12c8 5 15 12 20 19l12 14 7.1 6h3l4-8 5-8c3-5 6-10 11-14 2-2 2-2 4 0l1 1c10 9 19 18 27 29 2 4 5 7 9 10l4.1 4 8 10.1c1 2 3 4 6 5 1 1 1 0 2-1m-273.4 4-2 2-3 5c-4 8-10 15-17 21l-10 10-12 13-1 1-2 6v11.1c-1 15 0 30 2 45 2 16 6 32 12 47.1a534 534 0 0 0 29 53c19 22.6 42.2 41.2 68.1 55.1 5 3 4 2 4-2v-52l1-17 1-19c-.6-14-1-28.1-1-42.1l1-7v-20l-1-10 1-29.1v-35l-1-1h-1c-2 0-2-1-2-3l4-8 2-3c2-2 2-2 0-4l-8-5-12-7-8-7-2-2h-2c-2 3-5 4-9 4h-2c-2-1-4 0-5 2l-2 2c-3 4-8 6-14 2l-6-5-2-1m286.3 72-1-18c-1-14-4-29-8-43-1-2-1-3-3-3l-8-7-3-3-3-3c-4-1-6-4-8-7.1l-4-7-5-4h-3l-2 1c-2 2-5 2-8 1l-4-2c-2-1-3 0-5 1l-5 3c-4 3-9 3-14 0l-4-2-5-3c-2.1 0-3.1 0-4.1 2-2 4-6 7-9 10l-5 5-13 11v2l6 7 9 12c1 1 0 2-1 3h-4c-1 1-2 1-2 3l1 12 1 21v11.1c1 7 0 14-1 21-2 9-3 18-2 27l1 30.1v32l-2 26v20.1a214 214 0 0 1 1 40l1 1 1-1c23-13 45-28 63-48 8-8 16-18 21.1-29l14-28c8-18.1 13-37.1 15-57.2l2-37m-341.5-5 3-39 4-17 7-29.1a227.4 227.4 0 0 1 50.1-89.1l13-15c22-25.8 52-43.4 85.2-50h24l35 11a156 156 0 0 1 54.1 43l10 12a249.2 249.2 0 0 1 53.1 102.1l6 24c3 19.6 4.4 39.4 4 59.1-1 32.9-8.5 65.2-22 95.1l-10 21c-5 10-10 20-17 28l-13 16.1c-7 7-14 14-22 19-14 10-29.1 18-45.1 25-12 5-24 8-37 11h-5.1l-24-3a173.8 173.8 0 0 1-61.1-28 148.3 148.3 0 0 1-44-42c-6-7-11.1-15-15.1-23l-15-33a270.4 270.4 0 0 1-18-87.2v-11"/>
    <path fill="#1E2346" d="m514.7 417.5-2 37c-2 20-7 39.1-15 57.1l-14 28c-5 11-13 20-21 29-19 19.5-41 35.7-65.1 48.1l-1-3 1-11-2-26 1-20 2-26v-32.1l-1-30c-1-9 0-18 2-27 1-7 2-14 1-21v-11.1l-1-21 1-15h4c1-1 2-2 1-3l-2-3-7-9-6-7v-2c5-3 9-7 12-11l6-5.1 9-10c1-2 2-2 4-2l5 3 4 2c5 3 10 3 14 0l5-3c2-1 3-2 5-1l4 2c3 1 5 1 8-1l2-1h3l4 4 5 7c2 3 4.1 6 8.1 7l3 3 3 3 8 7c2 0 2 1 3 3 4 14 7 28 8 43l1 18.1m-286.4-72 1 1 7 5c6 4 11 2 14-2l2-2c1-2 3-3 5-2h2c4-1 6-1 9-4h2l2 2 8.1 7 12 7 8 5c2 2 2 2 0 4l-2 3-4 8c0 2 0 3 2 3h1l1 1v2l-1 33v29l1 10v20l-1 7-1 20.1c0 13.7.4 27.3 1 41l-1 17v52.1c0 4 0 5-4 2a234.4 234.4 0 0 1-68-56c-6-6-10-13-14.1-20l-15-32a193 193 0 0 1-12-47.1c-2-15-3-30-2-45.1v-11l2-6 1-1 12-13 10-10a84.7 84.7 0 0 0 20-26l2-2"/>
    <path fill="#1E2346" d="M500.7 341.4c0 1-1 2-2 1l-5-5-8-10-4-4c-4-3-7-6-9-10-8-11-17-20-27-29l-1-1c-2-2-3-2-5 0l-10 14-5 8-5.1 8h-2l-7-6c-5-4-9-9-12-14-6-7-12-14-20-20l-14-11-3-6-1-5.1-5-17-8.1-23-2-3-2-3-2 1-1 3-3 12-2 10-12 49-5 7-7 10c-3 5-7 10-12 14-8 6-15 13-20.1 21.1l-1 1h-2l-3-4a57.4 57.4 0 0 0-22-17c-4-1-6 0-8 3l-4 5-7 12c-5 7-11 14-18 20l-5.1 4c-7 6-12 13-17 20l-8 12-1 2-1-1 1-6 4-17 8-31c4-14 9-27 16-40l18-33 4-8a143.7 143.7 0 0 1 32-37.1l21.1-15c8-5 17-9 27-13l27-9c5.1-2 10.1-2 14.1 0 13 4 26 8 38 14l16 8 21.1 15c6 4 11 10 16 15 7 8 13 17 18 26l17 31c8.1 15 15.1 30 19.1 47.1l1 5M356.5 443.5c-1-2-4-2-6 0l-2 4c0 3 0 5 2 7v5l-1 3v4c1 1 2 3 4 3 1 0 3-1 3-3 .6-2 .6-4 0-6v-7l1-5-1-5Zm13 6-1-6c-1-2-4-2-6 0l-1 3c-1 3 0 6 1 8l1 4-2 4 1 5 3 2c2 0 3-1 3-2l1-4-1-4v-5c1-2 2-4 1-5m5-45c0-6-2-11-4-15-3-4-6-7-11-6-3 0-6 1-7 3l-8 13-1 8c1 4 6 14 9 17 5 3 13 5 18-4l1-1 3-15m20-6-2 22v14l3 27-1 9c0 3-2 5-5 5h-1c-7-1-13 0-20 1l-12-1-9-1-12 1h-3c-3 1-5-1-5-4v-3l1-20 1-20c1-6 0-13-1-20-1-10-2-20-1-30 0-5 1-6 5-5h14l15 2h31c2 1 3 2 3 4l-1 19m-3 190.2v30l-1 1-1 2-2 1-29 10a43.9 43.9 0 0 1-21 0l-7-2c-2-1-2-1-2-3l-1-19v-45l1-7c0-3 2-5 6-5l5 1c7 1 13 0 19-1l3-1h9l2 1 12 1h2c3 0 5 2 5 5l1 15-1 16m-89 29c-1 2 0 3 2 3l15 7h1l1-1v-1l1-32v-33l-1-28 1-25v-12.1l2-25-2-35v-29.1l1-26v-4c-2-2-3-2-5-1-3 2-7 3-11 3-2 1-3 2-3 4l-2 25 1 23v25l-1 8c-1 5 0 11 1 16a97.3 97.3 0 0 1 0 38.1c-2 12-3 24-2 37-.6 21-.6 42.1 0 63.1h1Zm55-111v-2l-2-4.1h-4c-2 1-2 3-3 5 0 2 0 4 2 6v7l-1 4c-1 2 0 4 1 6s3 2 5 0l1-4-1-7 1-5 1-6m11-5-4-2-3 2-1 7 2 4v4l-1 3-1 5 2 3c1 2 4 2 5 0 1-1 2-3 1-5l-1-4v-6c2-2 2-6 1-11Zm-39 7-1-23-1-4 2-1 8 1h16l6-1h7a87.3 87.3 0 0 0 26 0c1 0 2 0 1 2v9l-2 24-1 21v5c-1 2-2 3-4 3l-16 2h-10l-7-1h-16l-4 1c-2 0-4-1-4-3v-35"/>
    <path fill="#1E2346" d="m371.5 347.4-7-1-5-2h-12l-12 2h-2c-3 0-3-1-3-3l4-30 3-22 3-30 3-33.1 1-9v-1h1l1 4 4 17c1 8 4 16 8 23l5 16 11 45 5 18.1c2 5 1 5-3 6h-5m-61-40 4 1 4 2 1 2-2 15-3 16-4 9-5 7-2 1-7-4c-3-1-6-4-8-7l-7.1-10v-4c7.8-8.6 15.8-17 24-25l1-1c1-2 3-2 4-2m78.2 63-11-1-14-1-22.1-1h-11c-2 0-3 0-3-2v-5l1-7c1-2 2-3 4-3l11 1 8 2h9c6-2 13-2 19-2 3-1 5 0 6 2l10 13 2 3c-1 2-3 1-4 1h-5m-10-59 4 14 4 18c0 1-1 2 1 3l3-2 10-14c3-4 7-8 12-11 2.1-1 2.1-3 0-5v-1l-8-8-6-5c-1-2-3-2-5-1-2 0-4 2-5 3-4 4-10 3-11 4s1 4 1 5Zm72.1 7-5 1c-8 2-15 1-22-2l-1-3 2-3a272 272 0 0 0 16-25h3l1 1c5 10 12 18 19 26l1 1c1 2 1 3-1 4-1 2-3 3-6 2l-4-1-3-1m-192.2 24c-3-1-6 0-8 2-4 4-8 4-13 1l-5-2-1-3 1-2 12-19 2-4h3l3 2 7 7 6 10c2 3 0 7-3 7l-4 1m79-87-6 49-4 31-1 9c0 1 0 2-2 2l-5 1-1-2 2-8c3-10 4-21 5-32 0-8 2-16 5-24l3-18c1-15.1 3-29.1 6-44.1l1-1v2m40.1 82-3-1-3-2-9-23-2-7c0-2 1-1 2-1l1 2c7 8 14 16 23 22l1 1v2c-1 4-6 7-10 7m-56 52.1v1l-2 12-2 2h-3l-9 2c-1 0-2-1-1-2v-1l8-14 2-2 5-1c2 0 2 1 2 3m0-66c0 6-2 12-4 18l-1 1-6-2c-2-1-2-2-1-4l3-3 7-10 1-1 1-1v2"/>
    <path fill="#FFF" d="m370.5 411.5-1-4-1-9-1-5c0-3-1-5-4-7-2-2-4-2-6-1l-3 3c-2 2-3 4-3 7l-1 6v11l-1 1 2 7 8 4c3 0 6-1 8-3 2-3 3-6 3-10m4-7a52.2 52.2 0 0 1-4 16c-5 9-13 7-18 4-3-3-8-13-9-17l1-8 8-13c1-2 4-3 7-3 5-1 8 2 11 6 2 4 4 9 4 15m-5 45c1 1 0 3-1 5v5l1 4-1 4c0 1-1 2-3 2l-3-2-1-5 2-4-1-4c-1-2-2-5-1-8l1-3c2-2 5-2 6 0l1 6m-13-6c-1-2-4-2-6 0l-2 4c0 3 0 5 2 7v5l-1 3v4c1 1 2 3 4 3 1 0 3-1 3-3 .6-2 .6-4 0-6v-17Zm12 58.1-4-2-3 2-1 7 2 4v4l-1 3-1 5 1 3c2 2 5 2 6 0 1-1 2-3 1-5l-1-4v-6c2-2 2-9 1-11Zm-11 5-1 6-1 5 1 7-1 4c-2 2-4 2-5 0s-2-4-1-6l1-4v-7c-2-2-2-4-2-6 1-2 1-4 3-5h4l2 4v2"/>
    <path fill="#1E2346" d="M370.5 411.5c0 4-1 7-3 10-2 2-5 3-8 3l-8-4-2-7 1-1 1-11v-6a12 12 0 0 1 6-10c2-1 4-1 6 1 3 2 4 4 4 7l1 5 1 9 1 4"/>
    <path fill="#FFF" d="M254 522.8c0 .4-.3 6.8-.2 13.3-6.8.5-5.7-13.3-5.3-15 .2-1.4-4.4 1.7-6.7 3.8.7 1.3 1.8 1 3 .5-.4 6.2 3.9 11.8 9 11.7.2 6.5.9 12.6 2.7 13 .2.2.5-6.4.6-13.7 12.2-3.8 7.5-18.3 7.5-18.3-.2-.8-2 .3-6 4 1.6 1.6 2.4.6 3.6.2 1 2 1.4 10.5-5.1 13.1l.3-18c0-.2-.2-.3-.4-.3-1.8.2-5 3.4-7.5 6.1 1.5 2.2 3.2.2 4.5-.4m6 19.2 2.8 2.8 2.8-2.8-2.8-2.8-2.8 2.8Z"/>
  </g>
</symbol></svg>
