<svg xmlns='http://www.w3.org/2000/svg' viewBox='0 0 696 830' fill='none'><symbol id='VMOC_EC_Fill'>
  <g fill="none" transform="translate(.7 .3)">
    <ellipse cx="348.6" cy="408.9" fill="#FFF" rx="228" ry="292.2"/>
    <path fill="#1E2346" d="m346.5 793.9-1-1-10-11-11-12.1-18-21-15-16.1-25.1-28.2-28-29-3-4-1-1h2l8 5c14 8 28 14 44 17l29 5c12 1.5 24 2.5 36.1 3l24-2 21-4c13-2 26.1-5 38.1-11l14-7 3-1h1l-1 1-2 3c-13 12-25 25-36 38.1l-35 39.1-8 10-18 20.1-7.1 6-1 1M235.3 144.6h-1l2-3 13-13a1727 1727 0 0 0 64.2-68.3l24-25 8-7.1h3l6 6 31 31.1 33.1 35.2 26 28 9 10.1v1l-3-2c-11-6-23-12-36-16l-23-7c-8-3.1-16-4.1-24-4.1l-15 1h-12.1c-13-1-25 0-37 3-23 7.5-45.1 17.3-66.2 29.1l-2 1"/>
    <path fill="#1E2346" d="M346.5 19h-1l-3 3-31 28.2a780.6 780.6 0 0 0-103.2 104.4l-35 42.1-28 40.2c-8.1 10-15.1 21-24.1 30A895 895 0 0 0 69 333.3a1790 1790 0 0 0-50 80.3c-2 3-2 4 0 8l1 1 4 8 28 43.2c19.3 25 39 49.8 59 74.3l35.1 39.1 37 39.2 17 20 21.1 25.1 33 40.2 25.1 28 19 20.1a986 986 0 0 0 45 44.2c3.1 2 4.1 2 8.1 0v-1l14-13 19-19.1 30.1-31.1a745.2 745.2 0 0 0 59-70.3l49.2-55.2 18-19 37-41.2a607 607 0 0 0 51.1-63.2c9-12 18-23.1 26-36.2l15-25 5-9c2-2 2-5.1 0-7.1l-6-10c-16.5-26.5-33.2-53-50-79.3-13-19.1-27-36.2-42-52.2L551.7 241l-18-26.1-29-37.2a711.5 711.5 0 0 0-94.2-102.3l-18-16-37-33.2-7.1-7h-2M695 419.5l-1 4-5 8a473.4 473.4 0 0 1-41 62.3L610.8 540l-25 30-32.1 35.2-20 21-37 41.2-22.1 27.1-25 29.1-29 34.1-19.1 20.1-28 30.1a228.2 228.2 0 0 1-25.1 21.1h-3l-4-2-14-13a2870.6 2870.6 0 0 1-87.2-94.4l-25-30.1-15-19-23-26.2-33-34-26.1-30.2c-19-20-36-40.1-53.1-62.2l-31-40.2-26-40.1-7.1-13-1-2v-6l7-12.1c23.5-38.3 48.3-75.7 74.1-112.4l20-22.1c12-13 23-27.1 33-42.2 31.7-44.8 66.6-87.5 104.2-127.4l15-16a381 381 0 0 1 42.1-39.2l17-15 25-24.2 8.1-6h3l4 3 16 15 20 18.1 17 14a982.3 982.3 0 0 1 130.3 144.6l29 41.2 24 29a590 590 0 0 1 78.2 106.4l25 42.2 3 4v2"/>
    <path fill="#FFF" d="m235.3 144.5 2-1c9-7 20-12 30-16l36.1-13c12-3.1 24-4.1 37-3.1h12.1l15-1c8 0 16 1 24 4l23.1 7a199.9 199.9 0 0 1 39 18.1v-1l-9-10-26-28.1-33-35.2-31-31-6.1-6.1h-3l-8 7-24 25.1c-21.9 22.3-43.2 45-64.1 68.3l-13 13-2 3h1m111 649.5 1-1 7-6 18-20.1 8-10 35.1-39.2 36-38.1 2-3 1-1h-1l-3 1-14 7c-12 6-25 9-38 11l-21 4c-16 2.5-32.1 2.8-48.1 1l-12-2-29-5c-16.1-3-30.1-9-44.1-17l-8-5h-2l1 1 3 4 28 29 25 28.2 15 16 18 21 11 12.1 10.1 11 1 1m183.3-572h-1v1l1 1 10 22 9 21.2c4 12 9 23 12 35a276 276 0 0 1 14 70.3 530 530 0 0 1 1 71.3l-1 15-3 31.2-4 23c-3.5 21.6-11 42.4-22 61.3l-1 2v1l2-2 11-14 25-33.2 46.1-60.2 26-33.1 15-18c1-1.1 1-1.1-1-3.1l-4-4-20-25.1c-16-20-30-41.2-45-62.2l-28-44.2-15.1-22-23-29.2-4-4v-1M160.2 589.1l-1-2-17-31c-8-18.2-13-36.2-15-56.3l-3-21-2-25.2-2-31v-16.1c.6-23.6 3-47.1 7-70.3 4-18 9-35.1 15-53.2l26-60.2 8-12 1-3-2 1-12 15-18 22-22 31.2A1011.6 1011.6 0 0 1 45 390.4l-20 23.1-1 1v2l5 6 19 23.1 38 49.2 47 63.2 24.1 29.1 2 3h1v-1m411.6-160.5-1-21.1-3-32.1a336 336 0 0 0-18-79.3l-19-49.2c-4-12-10-23-17-34.1a606.7 606.7 0 0 0-47.1-59.2c-8-6-16-12-25-15.1-4-3-9-4-14-6l-30.1-9c-9-3-19-5-29-6h-8l-17.1-1-9 1-18 2-24 6-31.1 10c-10 4-19 9-27 15-9 7-16 15.1-23.1 24.1l-22 30.1a194 194 0 0 0-24 45.2l-15 38.1a403 403 0 0 0-21.1 91.4l-2 20-2 35.2c-.4 14.4.9 29 4 43.1 4.4 20.3 9.4 40.4 15 60.2a238.2 238.2 0 0 0 55 88.4l23.1 21a159.6 159.6 0 0 0 76.1 41.2l20 4c10 3 19 3 29.1 4l18-1 6-1c17.8-4.4 35.5-9.1 53.1-14 19-7 36-18.1 51-32.2l23.1-23 17-20.1a265 265 0 0 0 56.1-156.6v-21M346.5 19h2l7 7 37 33.1c41.4 35.4 79 75.2 112.2 118.4l29 37.2 18 26 25.1 31.2c25.9 28 48.7 58.6 68.1 91.3l24 40.2 6 10c2 2 2 5 0 7l-5 9-15 25.1c-8 13-17 24.1-26 36.2l-30 38.1-21 25.1-37.1 41.2-18 19c-31 32-60.2 65.9-87.2 101.4l-21 24-30 31.2-19 19-14 13.1v1c-4.1 2-5.1 2-8.1 0l-10-9-35-35.2-19.1-20-25-28.1-33-40.2-21.1-25-17-20.1-37-39.2c-19.8-22-39.2-44.4-58.2-67.2l-36-46.2-28-43.1-4-8-1-1c-2-4-2-5 0-8.1 29.3-52 63.5-101 102-146.5 9-9 16.1-20.1 24.1-30.1l28-39.2 35.1-43.1A945.2 945.2 0 0 1 342.5 23l3-4h1"/>
    <path fill="#1E2346" d="M173.2 411.5c.2 32.8 6 65.4 17 96.3a639 639 0 0 0 30.1 58.2l12 14.1c9 11 20 21 32 28.1l21.1 13c14 7 28 13.1 44 16.1l10 2h18.1l7-2c12-2 24-6 34-11 12-5 23.1-12 34.1-19.1 8-5 16-12 23-19 12.6-14 23.7-29 33.1-45.2l13-28.1c9-19.7 14.6-40.8 17-62.3 4.2-28.6 3.8-57.8-1-86.3l-6-25a237 237 0 0 0-51-99.4l-16-19a107.9 107.9 0 0 0-21-20.2 125.6 125.6 0 0 0-68.2-30l-9-1-20 3a189.5 189.5 0 0 0-47.1 21 246.8 246.8 0 0 0-27 24.1l-20 24a237.5 237.5 0 0 0-54.1 120.5c-2 9-4 18-4 27.1l-1 20m398.5 17.2v20c-1 12-2 24.1-5 36.2a550.2 550.2 0 0 1-21 70.2 265.6 265.6 0 0 1-47 70.3l-23.1 23c-22 20.8-49.5 35-79.1 41.2-10.3 2.1-20.8 4.1-31 6l-18.1 1-29-3-20-5a151 151 0 0 1-76.2-41.2l-23-21a235.7 235.7 0 0 1-64.1-119.5c-3.5-18-6.5-36-9-54.2l-1-18 2-35.2 2-20c2.3-18.2 5.3-36.3 9-54.2 3-12 7-25.1 12-37.2l15-38.1c6-16 14-31.1 24-45.2l22.1-30c7-9.1 14-17.1 23-24.2 8-6 17-11 27-15l31.1-10 24-6 18-2 9-1 17.1 1h8l29 6 30.1 9 14 6c9 4 17 9 25 15l23.1 25.1 24 34.2c7 11 13 22 17 34l19 49.3a292 292 0 0 1 18.1 79.3l3 32 1 21.2"/>
    <path fill="#1E2346" d="M160.2 590.1h-1l-3-3-23-29-47-63.3L48 445.6l-19-23-5-6v-2.1l1-1 20-23a1686 1686 0 0 0 100.1-144.6l17-22 13-15.1 2-1-1 3-8 12c-5 8-8 16-12 25.1l-14 35.1a297 297 0 0 0-19 84.3l-3 39.2v16l2 31.1 2 25.1 3 21.1c2 20 7 38.1 15 56.2l17 31.1 1 2v1m369.6-368.3v1l4 4 23 29.1 15 22.1 28 44.2c15 21 29.1 42.1 45.1 62.2l20 25 4 4.1c2 2 2 2 1 3l-15 18-26 33.2-46 60.2-25.1 33.1-11 14-2 2v-1l1-2a238 238 0 0 0 22-61.1l4-23.1 3-31.1 1-15a396 396 0 0 0-15-141.6l-13-35.1-8-21.1-10-22-1-1v-1.1h1"/>
    <path fill="#FFF" d="M413.6 334.2v-1l-3 3-6 10 1 1 1-1 7-12m33 8-1-1-11-12h-1l2 3 6 10c1 2 2 2 4 1l1-1m-184.2 43.2v1l10 9c1 2 2 2 4 0l1-1v-1l-14-8h-1M484.7 298v-1l-5-10-2-1c-1.7 1.2-3.3 2.6-5 4 3.9 2.9 7.9 5.5 12 8m-258.4 98.3h1l5-4 7-6 1-1v-1l-16 8c-3 1-3 1 0 3l1 1h1m186.3-48.1h3c1 0 2 0 2-2l2-13v-5.1 1l-2 2-7 14-2 2 1 1h3m-216.3 62.3h11l1-1-5-6c-1-1-2-2-4-1l-14 6h-1v1l12 1m122.2 7h2l1-1h-1l-4-3-16-5-7 6-1 1h3l13 1 10 1m122.1-73.3-1-1-12-20-1-1v1l5 23v2l2 1 6-4 1-1m-140.2 19.1h1l17-4 5-1v-2l-6-10v1c-5 6-10 10-17 14l-1 1 1 1m129.2-14-5-23.1v-2l-1-1-1 1-1 3-2 18v2l1 1 8 2 1-1m-25 1h-1c-1-2-2-2-3-1l-2 3c-4 7.1-9 14.1-15 20.1h-1l1 2 6 2 1-1 4-7 9-16 1-2m-185.3 44.1-1 1-5 2-9 4 6 7 1 1 2 1 11-11v-2l-4-2-1-1m22 19.1h2l4-1-3-2-2-1c-3 0-5-2-7-3l-6-6h-2l-11 9 1 1 4 1 20 2m58.1-7-1-1-14-8c-5-2-3-2-8 0v1l-1 2 6 6 7 6 1 1 1 1 9-7v-1m172.3-31.1-6 4v2l2 2 12 18c2 3 1 3 4 2l4-3v-2l-3-2c-4-3-7-8-8-13l-1-1c0-3-1-5-3-7h-1m-2-4-1-1a84 84 0 0 0-16-21.1c-2-2-2-2-4 0l-1 3 1 1 11 18c3 6 2 5 8 2l2-1v-1m-186.3 44.2h4v-1l-12-12-1-1h-3l-2 2c-1 1-3 3-5 3l-4 2-5 3v1l10 1 18 2m-31-19v14l1 1 8-7c1-2 3-3 6-4l2-1 1-2-10-10.1-7-7h-1v16m126.1-19h-1l-5 7-7 13c-1 1-1 2 1 3l7 4c1 1 2 1 3-1l8-16 2-3c1-2 0-2-1-3l-6-4h-1m-129.1 16 1-13-1-1h-1l-4 4-14 14-1 1 1 1 1 1 7 3 4 3 2 2 4 3 1-1v-17m-68.1 35.2v17l1 3c0 2 0 2 2 1l5-1 1-1 1-10v-24.1l-7-1h-1c-2 0-2 0-2 2l-1 2v12m228.3-46.1c2 1 2 0 2-1l3-13 2-11.1-1-2-9-3v2l-10 17-2 6 6 3c3 2 6 2 9 2m25-27v2l6 24v2l1 1 2-1c6-1 11-3 16-6h1v-1l-1-1-12-20-2-3-3 1h-3l-4 1-1 1m-4 29h6l1-2-4-19-2-7c0-1 0-2-2-2l-9 1-2 2-1 5-3 18v2l1 1h1l14 1m-20 5.1c0-1 0-2-2-2l-17-4-1 1-1 2-10 17v4h2c7 3 15 5 23 6.1 2 0 3-1 3-2l2-14 1-8m40 24h1c9.4-1.2 18.4-3.6 27-7v-2l-5-9-8-12.1c-1-2-2-2-3-1-5 3-11 4-16 4h-3c-2 0-2 1-2 2l9 25.1m-32-24h-1l-1-1h-1c-2 0-2 0-3 2l-2 16-1 6 1 1 9 2c8 1 16 1 25-1l1-1-1-3-5-18c-1-7.1 0-6.1-7-5.1l-14 2m-219.3 23h-3l-1 2.1v2c2 5 2 11 0 17v3l1 10.1 2 2h20l5 1 1-1 2-7v-9l-1-10 1-6c1-1.1 0-2.1-1-2.1h-16l-10-2m303.4-30.1v-17l-1-1-2 1a83.5 83.5 0 0 1-21 8v1l1 1 14 21v4l-2 2-5 5-1 4c-1 12.1 0 24.2 1 37.2v20.1l-1 7h1l1-1 14-17 1-4v-27.2l1-12v-8l-1-12v-12.1m-53-70.3h-1l-19 4v2l1 1 17 18.1 20 24.1 5 6c1 2 2 1 4 1l11-4 14-4 4-2v-2l-1-1-9-7-12-8-12-9.1-19-17-1-1-2-1M233.2 414.4h-3c-1 0-2 0-1 1v3c1 5 1 10-1 14v7l1 10.1 1 2 1 1 23 8 12 5 2-1 2-15v-10c-2-4-2-8-1-12l1-8c0-2 0-3-3-2l-24-3.1h-10m141.2 56.2v9c0 2 1 3 2 3l13 7 12 3c2 1 2 1 2-2v-2c1-8 0-15-1-23l-1-8c-1-5 0-9 2-13l1-6.1v-14c0-5 1-4-5-5-7-1-14-3-20-6.1-4-2-4-2-4 2v29.1l1 12-2 14.1m-2-49.2v-9l-1-1h-2l-30 7-3 1c-2 1-2 1-2 3l-1 9-1 10.1v10c1 7 3 14 2 21.1-1 2 0 2 2 2l2-1 19-5 12-3c2-1 2-1 2-3l-1-8 1-12.1 1-21m109.2 8-1-17.1v-1h-2a64 64 0 0 1-29 5c-1 0-2 0-2 2v10c0 5 1 11 3 16.1l1 10-1 11-2 16.1v11h1l3-1 25-10c6-2 5-1 5-7l-2-18v-7l1-20.1m-63.1-111.4-8 3-16 5-23 4-9 1-12.1 4a70.1 70.1 0 0 1-27 7v1l12 15.1c9 10 20 19 32 26l3-1 5-8 22-28c5-5 10-10 13-16.1 2.7-4.5 6.1-8.6 10.1-12v-1h-2m-12 167.6v7l1 1h3c6.7.3 13.4 1 20 2l12-1h2l2-1v-10l-2-22.1c-1-4-2-9-1-14l1-6.1 1-8-1-15-2-1-11 1-22 2c-2 0-2 0-2 2v15l1 7 2 7-2 20.1c-2 5-2 9-2 14m-79.1-59.2v-5l-1-1h-6l-18-1-12-2-11.1-1-6 1 1 5c1 6 1 12-1 18v10.1l1 14c-1 3-1 3 2 4.1l2 1 25 4 14 1 10 1c1 1 2 0 2-1l-2-6c0-6 0-11 2-17v-9.1l-2-16m6-10 3-1.1 27.1-5 6-1 1-2-2-1-7-7v-6l2-3 2-2v-2.1c-8-3-14-7-21-11-7-3-13-8-17-14l-1-1.1-2-1-14 4-42.1 8-11 2h-1l1 1 20 10 41 24.2 12 7 3 1m181.3 5-1-23c-1-12.3-3.3-24.4-7-36.2l-1-1c-2 1-3 1-2 3v3l2 21.1v19l-1 6.1 2 20 1 16.1c0 4-1 8-4 10-6.8 7.7-13.4 15.3-20 23.1l-6 4-6 3-15 6-9 2.1-14 2h-6l-13.1 1-14-3-11-4-12-6-3-2c-1 0-2-1-2-3v-12.1l-1-2-1-1h-1l-16 7-12.1 2-3 1h-1l1 1 1 1c8 3 15 8 21 14a863 863 0 0 1 28 26.2 84.8 84.8 0 0 0 52.1 19h17c8-1 15-2 22-5l6.1-1 4-4 7-17c9-19.1 14-40.2 16-62.3l2-28m-38-140.6-2-3-15-26-8-13.1-9-11-14-12.1-18.1-12c-6-5-12-8-19-11.1l-36-13c-6.1-2-11.1-2-16.1 0l-14 5-16 6c-10 4-20 9-29.1 15l-10 7a142.2 142.2 0 0 0-37 42.2l-4 6-13 24.1-11.1 22.1-1 2v1h1l3-2 28-20c2-1 5-2 7 0l16 8 8 4h2l9.1-7 16-13c6-4.1 12-8.1 20-11.1 2 0 4-2 5-3 4-5 8-9 13-12l15.1-12.1 1-1h6l3 2 8 8 17 16 8 10.1 3 5 3 5h2l2-1c9.8-6.8 18.8-14.5 27.1-23 2-1 4-2 6 0l4 2 5 4 7 8c5 4 10 8 16 10 4 2 4 2 8-1l2-4 1-1M181.4 399.4v3c0 2 1 2 2 2l3-2 17-8c15.6-7.1 31.3-14.1 47-21l12-3 10-2 6.1-2 35-22.2 14-7 22.1-5 23-6c11-4 22-6 33-8l41.1-7h5l4 3 15 9c6 4 11 8 15.1 13 5 6 11 11 17 15h1c-3.9-13.4-7.9-26.7-12-40l-5-5c-5-3.1-9-7.1-12-11.1-3-3-7-5-11-6l-6-2c-4 0-7-2-10-5l-5-6.1-7-8-4-3h-3l-2 1-5 8-7.1 8c-3 5-8 8-14 10l-6 4-9 7.1-16 7h-1l1-1 14-11 7-5 3-3 1-2-5-9-7-7.1-6-3c-5-3-10-7-13-12l-3-5-4-6.1-4-4c-1-1-2.1-1-3.1 1l-5 5c-6 5-11 10-15 17l-8 8c-5 3.1-9 7.1-11 12.1a239 239 0 0 1-14 17l-4 2.1c0 1 0 0 0 0l5-7 14-22.1 1-1h-2a50.6 50.6 0 0 0-21 17c-4 6-10.1 11-17.1 15.1l-8 5-3 4-7 8-7 5h-1v-1l4-4 15-19-1-2-13-6-8-6c-3-2-5-2-7 0l-2 1-4 4c-5 6-11 11-17 15l-9.1 5-3 2-2 4-2 8-12 42.2-4 28.1m14 53.2h-4l-7 1c-2 1-2 1-2 3l1 7c2 15.1 7 30.2 13 44.2l13 28.1c5 10 11 20.1 19 28.1a241 241 0 0 0 86.2 62.3l21 6 13 2 12-2c13-3 25-8 37-14a371 371 0 0 0 52.1-36.2l21-23c6-6.1 10-13.1 14.1-20.1v-1h-1l-7 2c-8 3-17 4-26 5h-21a77 77 0 0 1-29.1-7l-19-14.1-17-19-9-9.1c-7.1-7-15.1-11-24.1-13l-13-1h-18c-10 0-19.1-2-28.1-5l-16-6.1-27-11c-11-4-22.1-7-34.1-7m-22-41.2 1-20c0-9.1 2-18.1 4-27.2 5-18.7 10.4-37.5 16-56.2a277 277 0 0 1 38-64.2l20-24.1a144 144 0 0 1 94.2-48.2l9 1c12 1 24 5 35 10l15 7a125.3 125.3 0 0 1 28.1 21.2l11 11 16 19a239.8 239.8 0 0 1 51.1 100.4l6 25.1 3 25.1c2.8 41.8-3.8 83.5-19 122.5l-13 29c-4 9.1-10 17.1-16 25.2l-17 20-23 19.1-34.1 19c-13 6.4-26.9 10.8-41 13.1h-18.1l-11-2c-15-3-29-9-43-16l-21.1-13.1c-12-7-23-17-32-28.1-9-11.3-17.3-23-25.1-35.1l-17-37.2a290.2 290.2 0 0 1-17-96.3"/>
    <path fill="#1E2346" d="m347.5 608.2 13-1 5-1 1-1h-1l-2-1-13-1c-12-1-23-5-32-11s-17-12.1-24-19.1l-16.1-16-18-16.1c-4-3-8-5-13-6l-7-1h-2l1 1c4 0 8 2 12 4 6 3 12 8 17 13l21 25c7 8.1 15 15.1 24 21.2 10 7 21 11 34.1 10M195.3 452.6c12 0 23 3 34 7l27 11.1c5 2 10 5 16 6a67 67 0 0 0 28.1 5h18l13 1c9 2 17.1 6 24.1 13l9 9.1 17 19.1 19 14c10 4 19.1 7 29.1 7h21c9-1 18-2 26-5l7.1-2s2-1 1 1c-1 1-8 14.1-14 20.1a250.1 250.1 0 0 1-73.1 59.2c-12 6-24 11-37 14l-12.1 2.1-13-2-21-6-24-12-33.1-22.2-29-27c-8-9-14-18.1-19.1-29.2l-13-28c-6-14.1-11-29.2-13-44.2l-1-7c0-2 1-2 3-3l6-1h4m-14-53.3 4-28 12-42.2c1-4.1 2.4-8.1 4-12l3-2 9-5 17-14.1 4-4 2-2c2-2 4-2 7 0l8 6 13 6 1 2-15 19-4 4c-1 2 1 1 1 1 2-1 5-2 6-4l8-9 3-4 8-5c7.1-4 13.1-9 17.1-15l9-9c4-3.4 8.3-6.1 13-8.1h1l-1 1-14 22-5 7.1v1l4-3 6-6 8-11c2-5 6-9.1 11-12.1l8-8c4-7 9-12 15.1-17.1l5-5c1-2 2-2 3 0l4 3 4 6 3 5c3 5 8 9 13 12l6 3 7 7.1 5 9-1 2-3 3-7 5-14 11.1v1l16-7 29.1-21 7-8.1 5-8 2-1h3l4 3 7 8 5 6c3 3 6 5 10 6l6 1c4 1 8 3 11 6l12.1 11.1 5 5 9 27.1 3 13c1 1-1 1-1 1l-17-16c-4-5-9-9-15-12l-15-10-4-3h-5l-41.1 7-33 8c-7 2-15 5-23.1 6l-22 6c-5 1-10 3-14 6a545 545 0 0 1-41.1 24.1l-10 2-12 3-9 4-38.1 17.1-17 8-3 2c-1 0-2 0-2-2v-3"/>
    <path fill="#1E2346" d="M473.7 286c-4 3-4 3-8 1-6-2-11-6-16-10-5.2-5-10.5-9.6-16-14h-6l-3 3a209.9 209.9 0 0 1-26.1 21h-2l-3-5-3-5-8-10-17-16c-3.6-4-7.6-7.4-12-10.1h-5.1l-1 1-15 12-13 12c-1 2-3 3-5 3-8 3-14 7.1-20 11.1l-16.1 13-9 7h-2l-8-4-16-8h-7l-13 8-15.1 12.1-3 2h-1v-1l1-2 11-22 13-24.2 3-6a141.6 141.6 0 0 1 38-42.1l10.1-7c9-6 19-11.1 29-15.1l16-6 14-5c5.1-2 10.1-2 15.1 0l37 13 19 11 18.1 12 14 12.1c6 7.9 11.7 15.9 17 24.1l15 26.1c3 4 0 7-1 8m41.1 135.5-2 29.1c-2 21.1-7 42.2-16 61.3l-8 17c0 2-1 3-3 4l-6 2-22 4h-17a84.2 84.2 0 0 1-53.1-19l-15-14-12-12.1a60 60 0 0 0-21.1-14l-2-1 1-1 15-3 16-7.1 2 1 1 14 2 4 3 1 12 6 11 4.1 14.1 3 13-1h5l15-2 9-2 15-6 6-3 6.1-3 6-6 14-17.1c3-3 4-7 4-10l-1-17.1-2-20.1 1-6v-19l-2-20.2-1-4 3-3 1 1 1 2c3 11 5 22.1 5 34.1l2 23.1m-181.2-5-3-1-12-7-41.1-24.1-20-10v-1l11-2 42-8 14-3.1h2l1 1c4 6 10 11 17.1 15l20 10.1c2 1 2 1 1 2l-2 2-2 3v6l7 7 2 1-1 2-6 1-27 6.1h-3m-26 29.1c0-3-2-5-5-5-2 0-4 2-4 5 0 2 2 4 4 4s4-2 5-4m20-19 2 16v9c-2 6-2 11-2 17.1l2 6-2 2-10-2-14-1-25.1-4-2-1c-3-1-3-1-2-3 0-5 0-10-2-15l1-10.1c2-6 2-12 1-18 0-2-2-4-1-5l6-1 11 1 12 2 18 1h6l1 1v5"/>
    <path fill="#1E2346" d="M406.6 486.8c0-6 0-10 2-15l2-20.2-2-7-1-7v-15c0-2 0-2 2-2 7 0 34-4 35-2l1 15-1 8-1 7c-1 4 0 9 1 13l2 22.2v10l-2 1h-2l-12 1h-4c-6.3-1-12.6-1.7-19-2l-1-1v-7m14-166.6-10 12c-3 6-8 11-13 17-8 8-15 18.1-22 28.2l-6 7c-1 2-1 2-2 1-12-7-23.1-16-32.1-26.1l-12-15v-1l12-2 15-5 12-4.1 9-1 23-4 16-5 10.1-2m61 110.4-1 20v8l2 17.1c0 6 0 5-5 7-9.7 3.4-19.4 7-29 11 .5-9 1.2-18 2-27l1-11-1-10c-2-5.1-3-11.1-3-16.1v-10c0-1 0-2 2-2h3c9 0 26-5.1 27-5.1 2 1 2 13 2 18m-109-8-1 21.1-1 12 1 8c0 2 0 2-2 3l-12 3.1a126 126 0 0 0-21.1 6c-2 1-3 0-2-2 1-7-1-14-2-21v-10.1l1-10 1-9 1-3 4-1 30-6.1 2-1 1 1v9m2 49.2 2-14-1-12v-29.2c0-4 0-4 4-2 6 3 13 5 20 6 6 1 5 0 5 5-.6 21.4-1 42.9-1 64.3v3c0 2-1 2-2 1l-12-3-13-7c-1 0-2-1-2-3v-9.1m-124.1-33.1c0-2-1-3-2-3-2 0-3 1-3 3 0 1 1 3 3 3l2-3m-17-23.1 10 1 24 2c3 0 3 0 3 2l-1 8c-1 4-1 8 1 12v10.1l-2 15-2 1-12-5-23-8-1-1-1-2-1-10v-6c2-5 2-10 1-15v-3.1c-1-1 0-1 1-1h3m217.2-101.4 20 18.1 12 9 12.1 8 9 7 1 1v2.1l-4 2-14 4-12 4c-1 1-2 1-3-1l-5-6-20-24-17-18.1-1-1v-2l22-3"/>
    <path fill="#1E2346" d="m501.7 394.4 1 12v8.1l-1 13v26.1l-1 4-14 17.1-1 1h-1l1-7v-20c-1-13.1-2-25.2-1-37.2l1-4 5-5 2-2v-4l-14-21.1-1-1v-1l1-1a89.1 89.1 0 0 0 22-8l1 3v27m-291.4 39.2-2-2-2 2c0 1 1 2 2 1l2-1m-12-21.1 10 2h16c1 0 2 1 1 2l-1 6 1 10v9.1l-2 7-1 1h-5a89.1 89.1 0 0 0-20-1l-2-2-1-10v-3c2-6 2-12 0-17v-2.1c0-2 2-2 4-2m219.3-23 14-2.1c7-1 6-2 7 5l5 18 1 3.1-1 1c-9 2-17 2-25 1l-9-1-1-2 1-6 5-18 1 1h2m32 24c-2 1-2 0-3-1a2347 2347 0 0 1-4-26.1h3c5 0 11-1 16-4 1-1 2-1 3 1l8 12 5 9v2c-8.8 2.8-17.8 5-27 7.1h-1m-40-24-1 8-2 14c-1 2-1 2-3 2-8.5-1-17-3-25-6v-4l10-17.1 1-2 1-1 17 4c2 0 2 1 2 2m6-6h-1l-1-1v-2l3-18 1-5.1 2-2h9c2-1 2 0 2 1l2 7 4 19-1 2h-6l-14-1m18-27 1-2 4-1 6-1 2 3 12 20 1 1v1h-1l-16 7h-2l-1-1v-2l-6-24v-1m-25 27-9-3-6-3c-1-1 1-4 2-6l10-17v-2h2l8 5-2 11-3 13c0 1 0 2-2 2m-228.3 45.3v-12l1-2.1c0-2 0-2 2-2h1l7 1v24l-1 10.1-1 2h-5c-2 1-2 1-2-1l-1-3-1-17m69-20.1v2l-1 1-4-3-6-5-7-3-2-1v-1l1-1 14-14.1 4-4 2 1c-.2 9.3-.6 18.7-1 28m130.2-30 6 3c1 1 2 2 1 3l-2 3-8 16c-1 2-2 2-3 1l-7-4c-2-1-2-2-1-3l7-13 5-7 2 1m-127.1 4v-2h1l7 7 10 10-1 2-2 1-7 5-7 6-2-1v-14l1-14m13 31.1-10-1v-1l5-3 4-2c2 0 4-2 5-3l1-2h4l1 1 12 12s1 2-4 1l-18-2m204.3-41.2-2 1c-6 3-5 4-8-2l-11-18-1-1 1-3c2-2 2-2 4 0 6 7 12 13 16 21l1 2"/>
    <path fill="#1E2346" d="m472.7 375.4 3 7 1 1c1 5 4 10 8 13l3 2v2l-4 3c-3 1-2 2-4-2l-12-18-2-2v-1l6-5h1m-173.3 32-9 7.1h-1l-1-2-7-6-6-6 1-2v-1c5-2 3-2 8 0l14 8c1 0 2 1 1 2m-79 4-3-1-1-1 11-9 1 1 7 5c2 1 4 3 7 3l2 1 3 2c-1 1-20 0-27-1m0-16 4 2v2l-11 11-2.1-1-1-1-6-7 9-4 5-2h2m183.3-43.2-9 16-4 7-1 1c-2-1.2-4-2.6-6-4 6-6 10-13 15-20l2-3c1-1 2-1 3 1v2m26-3-2 1-7-2-1-1v-2l2-18.1 2-4 1 3 5 23m-129.2 14.1c-2 0-1-1-1-1l1-1c7-4 12-8 17-14h2c1.4 3.7 2.8 7.3 4 11l-5 1-18 4m139.2-18-6 4-2-1v-1l-5-24.1h1l12 20v2m-121.1 72.3-10-1-13-1c-3 0-2-1-2-1l7-6 3-1 13 7 4 2v1h-2m-122.2-7-11-2 14-6c2-1 3 0 4 1l5 6-1 1h-11m213.3-62.2-1-1 2-2 7-14.1 2-2h1l-1 4-2 13c0 2-1 2-2 2h-6m-184.3 48.2-1-1c-3-2-3-2 0-3l16-8v1l-1 1-7 6-5 4h-2m259.4-98.3c-1 1-5-3-7-5l-5-3v-1l5-3 2 1c2 3 7 10 5 11m-221.3 87.3 13 10c-2 2-3 2-4 0l-10-9 1-1m182.2-42.2c-2 1-3 1-4-1l-6-10-2-3h1l11 14m-32-9-7 12-1 1-1-1v-2a280 280 0 0 1 9-10"/>
    <path fill="#FFF" d="m224.3 487.8-11 2c-2 0-1-1-1-1 1 0 7-3 11-3 9-1 17 1 25 4 10 3 19 9 28.1 15l15 13 24 21.2c7 6 14 12 23 17 11.1 7 23.1 12 37.1 15l13 3a147.3 147.3 0 0 1-48-12c-20.8-9.7-39.8-23-56-39.1l-15.1-15a83 83 0 0 0-23-15.1c-7-3-14-5-22-5m123.1 120.4c-13 1-24-3-34-10-9-6-17-13-24-21.1L268.3 552c-5-5-11-10-17-13l-12-4c-1-1-2-1-1-2l2 1 7 1c5 1 9 3 13 6l18 16 16 16c7 7.1 15 13.1 24 19.1 9 6 20 10 32.1 11l15 2s2 0 0 1l-5 1.1-13 1m-40-162.6c-1 2-3 4-5 4s-4-2-4-4c0-3 2-5 4-5 3 0 5 2 5 5m-57.1-8-2 3c-2 0-3-2-3-3 0-2 1-3 3-3 1 0 2 1 2 3m-40.1-4-2 1c-1 1-2 0-2-1l2-2 2 2M414 563.8c0 .4-.3 6.9-.2 13.4-6.8.5-5.7-13.4-5.3-15 .2-1.5-4.4 1.6-6.6 3.7.7 1.4 1.7 1 2.9.5-.5 6.3 3.9 11.9 9 11.8.2 6.4.9 12.5 2.7 13 .2.1.5-6.5.6-13.7 12.2-3.8 7.5-18.4 7.5-18.4-.2-.8-2 .3-6 4 1.6 1.6 2.4.6 3.6.2 1 2 1.4 10.6-5.1 13.2l.3-18c0-.3-.2-.4-.4-.4-1.8.2-5 3.4-7.5 6.1 1.4 2.2 3 .2 4.5-.4m5.9 19.2 2.8 2.8 2.8-2.8-2.8-2.8-2.8 2.8Z"/>
  </g>
</symbol></svg>
