<svg xmlns='http://www.w3.org/2000/svg' viewBox='0 0 696 830' fill='none'><symbol id='VMOV_EC_Fill'>
  <g fill="none" transform="translate(.7 .3)">
    <ellipse cx="349.2" cy="403.8" fill="#FFF" rx="228.1" ry="291.9"/>
    <path fill="#1E2346" d="M349 112.1h-5l-17-1c-8 0-16 2-24 4a405 405 0 0 0-65 28l-1 1h-1l6-7 16-16 26-28 33-34 19-20 10-10h3l4 4 42 42 33 36 24 25 2 3-3-1c-12-7-24-12-37-16l-24-8-21-3-15 1h-5"/>
    <path fill="#1E2346" d="m676.8 417.5-1-3-5-8a2054.6 2054.6 0 0 0-59-93.1l-34-41-23-27.1-16-24c-25.7-34.4-53-67.4-81.9-99.2-31-34-64.3-65.8-100-95l-5.9-5c-4-3-3-3-7 0l-8 8-22 20a777.2 777.2 0 0 0-89 85c-17.9 20-34.9 42.1-51.9 63.1l-28 40-21 27.1-21 23c-11 14-22 27-30.9 42.1l-48 75-5 9.1v5l4 7a415.3 415.3 0 0 0 57 82.1 745 745 0 0 0 66 77.1l42 46 16.9 18 34 41.1c22.7 27 46 53.3 70 79.1l6 6a351 351 0 0 0 28.9 27c3 2 4 2 8 0l14-13c21-20.7 41.3-42 61-64l49-59.1 30.9-35 33-36c20-22.3 40-44.6 60-67.2l29.9-39c13-17 26-34 36-52l9-16 2-4.1M348 0h1l4 4 14 13 29 25c25.1 23.2 49.4 47.2 73 72.1a780 780 0 0 1 76.9 94.2l20 29 22 27c41.6 45 77 95.5 104.9 150.2 3 5 3 4 0 10-12 22-26 44-41 64l-38 48.1c-8 11-17 21-26 30l-37 41.1-24 25-30 34.1-23.9 29a2004.5 2004.5 0 0 1-76 86.1l-30 31L353 826c-5 4-6 4-11 0l-14-13a1136.3 1136.3 0 0 1-116.9-131.2l-40-45-32-35c-24-26.8-47.6-53.8-70.9-81.2l-35-46c-9-12-17-24-24-37l-7-12c-3-6-3-6 0-12.1a2278 2278 0 0 1 52-81.1c16.1-25 34.6-48.5 55-70 9-10.1 17-20.1 24-31.1l29-40A965.8 965.8 0 0 1 343 3l3-2 2-1"/>
    <path fill="#FFF" d="M349 112.1h5l15-1 21 3 24 8c13.8 4.4 27.2 10 40 17l-2-3-24-25-33-36-42-42-4-4h-3l-10 10-20 20-32 34-26 28-16 16-6 7h1l1-1 31-16 34-12c8-2 16-4 24-4l17 1h5M237 670.8v1l3 3 33 36 28 31 31 35.1 13 14 2 1h1l21-22 31-35 52-57 2-2s0-1 0 0l-3 1c-15 8-31 14-48 17l-25 4a178.3 178.3 0 0 1-49 1c-17.7-3-35.4-6.5-53-10a166 166 0 0 1-39-18m340.8-253.4h-1v19l-1 16-2 17-4 35.1a175.4 175.4 0 0 1-21 64l-3 5v1h1l2-2 32-41 34-47 40-50 15-18.1v-2l-6-6a707.9 707.9 0 0 1-44-58l-41-60.1-17-27-29-37.1-2-3h-1l1 3 10 21 12 31a611.4 611.4 0 0 1 16 53.1c4 18 6 35 7 53l2 33.1M160.1 588.7v-1l-2-3-17-33c-7-16-11-33-13-51.1l-3-21-3-24-1-29v-22.1c1.7-39 8.4-77.8 20-115.2a2633 2633 0 0 1 31-71l5-9-8 8-23 29-26 36a790 790 0 0 1-64.9 96.2l-17 21-12 14c-2 2-2 2 0 4l4 5 25 30 40 53.1c19 26 38 51 59 76.1l5 7h1m411.6-150.2-1-28-3-34a337 337 0 0 0-20-84.1l-16-43.1c-5-12-10-23-17-34a555.7 555.7 0 0 0-46.9-59.1 112.3 112.3 0 0 0-45-25c-17.7-5-35.7-9-54-12l-10-1-14.9-1-9 1-17 2a344 344 0 0 0-72 24c-11 6-21 15-30 25a445 445 0 0 0-48.9 78.1l-16 42a317 317 0 0 0-22 106.2l-2 19c-1 21 0 42.3 3 63a544.2 544.2 0 0 0 20 74.2 257 257 0 0 0 41 64c12 13 25 26 38 37a155 155 0 0 0 79 37.1l26 5 16.9 1 6-1 20-2 8-2 24-5c24-7 44-19 62-35l29.9-28 10-12c28.9-35.5 47.8-78 55-123.2 4-16 6-32 6-49m104.9-21.1-2 4-9 16c-10 18-23 35-36 52a3679 3679 0 0 1-56 69.2l-34 37-33 36-30.9 35.1-49 59a636 636 0 0 1-61 64.2L352 803c-4 2-5 2-8 0l-7-5-22-22-6-6c-24.7-25.2-48-51.6-70-79.2l-33.9-41-17-18-42-46a2551 2551 0 0 1-66-77.2l-24.9-32c-12-16-23-33-32-50l-4-7v-5.1l5-9 47-75.1c10-15 21-28 32-42l21-23 21-27.1 28-40A964 964 0 0 1 336 30l8-8c4-3 3-3 7-1l6 6c17 17.5 35 33.9 54 49 47.4 44 90.3 92.6 127.9 145.3l16 24 23 27a604 604 0 0 1 97.9 142.2l1 3"/>
    <path fill="#1E2346" d="m521.9 411.5-1-21c0-8-1-17-3-25l-6-25c-9-36-26.1-69.2-50-97.2-9-10.8-18.5-21.5-28-32l-17-14c-6-5-13-9-21-12l-8-4a131.2 131.2 0 0 0-41.9-9c-9 1-19 3-27 6l-20 7c-7 3-14 7-20 12-10 8.4-19.7 17.5-29 27l-10 12-22 28a240 240 0 0 0-32.9 73.1l-5 22c-4 16-6 32-6 49v15.1a267.3 267.3 0 0 0 48 144.2l14 16c7 8 15 15 24 21 7 6 15 10 23 14 15 9 31 16 49 19 9.9 2 19.9 3 29.9 1 13-3 25-7 38-13l31-17c10-6 18-13 25-21 7-6 12-13 18-21 5.9-7 10.9-16 15.9-25l10-22 8-20.1a309.8 309.8 0 0 0 14-88.1m50 27c0 17-2 33-5 49l-8 31.1a257.6 257.6 0 0 1-58 103.1c-10 11-19 20-30 29-18 16.1-38 28.1-62 35.1l-24 5-8 2c-6 2-13 2-20 2l-5.9 1-17-1-26-5-24-6c-20-6-39-17-55-31-22-20-42-42.2-59.9-66a261 261 0 0 1-39-109.2c-4-20.8-5-42-3-63.1l2-19 4-38c3-23.1 9-46.1 18-68.2l16-42c5-12 10-23 17-34 10-15 21-30 33-44.1 13.6-16 31.2-28 51-35a332 332 0 0 1 67-16l8.9-1 15 1 10 1c28.3 6.2 56 14.5 83 25a144.4 144.4 0 0 1 36.9 34l26 37c7 11 12 22 17 34.1l17 43c10.1 27 16.5 55.3 19 84.2l3 34 1 28"/>
    <path fill="#1E2346" d="M160.1 588.7h-1l-5-7c-21-24-40-50-59-76l-39.9-53.2-25-30-4-5c-2-2-2-2 0-4l12-14 17-21a1495 1495 0 0 0 91-132.2l23-28 1-2 7-7-5 9a2633 2633 0 0 0-31 71 275.9 275.9 0 0 0-17 77.1c-2 12-3 25-3 38v22.1l1 29 3 24 3 21.1c2 18 6 35 13 51a269.2 269.2 0 0 0 19 36.1v1m416.6-152.2-1 16-2 17-4 35.1a175.4 175.4 0 0 1-21 64l-3 5v1h1l2-2 32-41 34-47 40-50 15-18.1v-2l-6-6a707.9 707.9 0 0 1-44-58l-41-60.1-17-27-29-37.1-2-3h-1v1l1 2 10 21 12 31a611.4 611.4 0 0 1 16 53.1c7.3 34.5 10 69.9 8 105.1ZM237.1 670.8l3 2c19 11.4 40 19 62 22a1470 1470 0 0 0 51.9 6l24-3 25-4c17.8-3 35-9.2 51-18 0-1 0 0 0 0l-2 2-52 57-31 36.1c-7 7-13 15-21 21h-1l-2-1-13-14-31-35-28-31-33-36-3-3v-1"/>
    <path fill="#FFF" d="m349 179.2-9 1-30 11c-10 4-19 9-28 15l-12 8c-6 4-12 9-17 15l-7 9-10 13.1-29.9 57v1h1l2-2c5-5 11-8 17-9 5-1 8-3 11-6 3-4 6-6 11-7l10-5 7-8c3.2-2.8 6.5-5.5 10-8 3-1 5-1 8 1l2 3 7 8 13 11h2l3-4 10-10 12-13c5.2-5.7 10.5-11.4 15.9-17h4l3 2 4 4 15 13 4 4 6 2 3 1 6 3 8 6c5 4 11 9 17 12l7 6h3c6.3-3.3 12.3-7.4 18-12 2-1 5-2 7-1l3 1 12 8 6 5c4.1 4.7 9.2 8.4 14.9 11l1-1-1-1-8-16-19-35-5-8c-5-8-11-15-17-21l-10-9-16-11c-8-6-17-10-25-14-11-5-23-8-34-12l-5.9-1M181.1 421.4l1 13c.7 22.9 4.7 45.5 12 67.1a407.4 407.4 0 0 0 29 56 221.4 221.4 0 0 0 71 58.1c8 5 17 9 26 12l17 5 10.9 1 11-1 4-1a133 133 0 0 0 48-21 304 304 0 0 0 53-43c9-9 15.9-19 20.9-30l11-23c11.8-24.8 18-51.8 18-79.2.5-22.1-1.2-44.2-5-66l-5-20-7-21.1c-2-6-5-11-10-15l-4-4-13-10c-7-3-13-7-18-12-2-2-2-2-4 0l-2 2c-5 5-10 9-16 12l-1 2 8 15 7 11 2 3-1 1-2-1c-5-5-9-11-12-17l-3-7c-2-4-5-8-10-10-7-4-13-10-19-15l-6-7-8-5h-1v1l5 9c2 6 6 11 10 16l6 7 3 3v1h-1l-10-7c-3-3-6-7-8-12l-3-6c-2-5-5-9-10-12l-2-2a74.3 74.3 0 0 1-21.9-23.1c-2-2-3-2-4 0l-3 4-4 5-6 10-11 12-5 3-7 8-4 6-7 8-2 2-13 13-2 2-1 1v-1c2-4 4-9 8-12l8-11c3-3 3-2 0-6a86 86 0 0 1-16-20c-3-5-4-5-8-1l-7 9-7 7c-4 3-8 5-12 5h-3c-3 0-6 1-7 4l-3 6-3 9c-3.1 9.6-9 17.9-17 24.1h-.9v-1l2-3 7-13 7-16v-1h-1c-5 2-10 5-14 9l-7 6c-7 7-11 16-14 25l-7 25c-3 11-5 23-6 34l-1 23.1m340.8-10a309 309 0 0 1-14 88.1l-8 20-10 22c-5 9-10 18-16 25-6 8-11 15.1-18 21.1-7 8-15 15-25 21l-31 17c-12 6-25 10-38 13-9.9 2-19.9 1-29.9-1-18-3-34-10-49-19-8-4-16-8-23-14-9-6-17-13-24-21l-14-16c-6-8-11.9-17-15.9-26l-14-30a269 269 0 0 1-18-88.2v-15c0-17 2-33 6-49l5-22 11-33.1a241 241 0 0 1 54-80.1l15-16 14-11c6-5 13-9 20-12l20-7c10.2-3.6 21-5.6 31.9-6 13 1 25 5 37 9l8 4c8 3 15 7 21 12 9.3 7.5 18.3 15.6 27 24 14.4 17.9 28.4 36.3 41.9 55 11 20 20 41 26 64.1l6 25c2 8 3 17 3 25l1 21.1"/>
    <path fill="#1E2346" d="M379 580.7c8 0 17-1 26-4 7-2 14-6 19-11 2-1 3-2 3-4h-5l-33 9h-26l-17-1c-7-1-14 0-21 1-9 1-17 4-26 7l1 1 7-1c8-1 16-2 24-1 16.1.6 32 2 48 4m-132-85.1 10-1c8-1 16-3 23-6l21-9c9-3 17-5 26-6h9c3 1 6 3 6 7l1 3 4 5 4 2 10 1c9 1 17 0 26-2l27-7c14.7-3.2 29.8-4.3 45-3a72 72 0 0 1 18 5v-1l-3-2a126.3 126.3 0 0 0-61-7l-27 7c-9 2.2-18 4.2-27 6l-8-2c-2-1-4-2-5-5l-1-2c-1-3-3-5-6-6l-4-1c-9.4-1-19 0-28 3l-26 7c-10 3-20 5-31 5-5 1-11 0-16-1a51.4 51.4 0 0 1-28.9-16v2c2 5 5 8 9 12 9 8 20 12 33 12m-8 27h-2v1l5 4 11 6c11 4 22 5 33 6 17.6 2 35.5 1 53-3 10.9-2 21.9-5 31.9-9l35-6c10-1 20 0 30 2 3 0 4-1 2-2-16-3.8-32.6-4.9-49-3-7 0-15 1-22 3l-28 5a192 192 0 0 1-66 2l-23-5-11-1m215-73h15c2-1 4-2 4-4v-13c0-3 0-3 2-3h14.9c1-1 2 0 2 1l-1 14v5l2 2 3-2v-2l-1-3v-15c.8-8.4 1.2-16.8 1-25.1h2l-1-2-6-2-32-12-20-8-28-12-42-16c-4-1-8-4-12-7l1-1 9 4 30 10 17 8c8 4 16 8 25 10l26 10 20 9 11 4h1l1-1-3-2-30-13-11-4-13-6-8-4-6-3v-7l1-1h1c2 0 2-1 1-3l-2-1a164 164 0 0 0-10-7h-3v3l1 4v7l-1 1-4-1-5-2a8662 8662 0 0 0-47-16l-5.9-2v-6.1l-1-1 1-6-2-2-3 1-8 6-1 2c-1 1 0 2 1 2h2v4c0 2 0 2-2 3l-21 8-6 2c-1 1-2 0-2-1v-13l-2-1h-1l-11 10c-1 1 0 2 1 2l2 1-1 7-1 1-2 1-15 7-13 5h-1l-1-1v-6l1-4 1-2-1-2-4 1-10 7-2 3v1h1l3-1 1 1v6l-2 2-9 3c-16 6-29.9 15-42.9 25l-3 3v1.1h2l5-1c2-1 3-1 2 1v34c0 2 1 2 2 3h4l21 1h2c2 0 2 1 2 2v6c0 3 1 4 4 5l8 1c13 0 26 0 39-2h16a2560 2560 0 0 0 61.9-2l4 1 39-1h15l12-1c2 0 2-1 3-3v-3c0-2 0-2 2-2h11m-272.9-28 1-23c1-11 3-23 6-34l7-25c3-9.1 7-18.1 14-25.1l7-6c4-4 9-7 14-9h1v1l-7 16-7 13-2 3c-1 2 1 1 1 1l2-1c7-7 12-14 15-23l3-9 3-6c1-3 3-4 7-4h3c4 0 8-2 12-5l7-7 7-9c4-4 5-4 8 1l3 3c3 7 8 12 13 17 3 4 3 3 0 6l-9 11c-3 3-5 8-7 12v1l1-1 2-2 13-13 2-2 7-8 4-6 7-8 4-3 12-12 5.9-10 4-5.1 3-4c1-2 2-2 4 0l2 2c5 9 12 16 20 21l2 2c5 3 8 7 10 12l3 6c2 5 5 9 8 12l10 7s2 1 1-1l-3-3-6-7c-4-5-8-10-10-16l-5-9c-1-1 1-1 1-1l8 5 6 7c6 5 12 11 19 15 5 2 8 6 10 10l3 7c3 6 7 12 12 17.1l2 1 1-1-2-3-7-11-8-15 1-2c6.8-3.3 13-8.1 18-14 2-2 2-2 4 0 5 5 11 9 18 12l12.9 10 4 4c5 4 8 9 10 15l7 21 5 20c5.8 38.3 5.2 77.2-2 115.2-3 10-6 20-11 30l-11 23c-5 11-12 21-21 30a240.2 240.2 0 0 1-101 64.2l-4 1-10.9 1-11-1-17-5a320 320 0 0 1-59-34 220.8 220.8 0 0 1-45.9-49.1c-8-14-15-28-21-43a232.2 232.2 0 0 1-12-67.2l-1-13"/>
    <path fill="#1E2346" d="m349 179.2 6 1c11 4 23 7 34 12 8 4 17 8 25 14l16 11 10 9c8.3 8.9 15.7 18.6 22 29.1l18.9 35 8 16c2 3-1 1-1 1-5-2-10-6-14-10l-6-5c-4.3-4-9.4-7-15-9-3-1-5 0-7 1l-4 3-14 9h-3l-7-6a184 184 0 0 1-25-18l-6-3-3-1-6-2-4-4c-7.7-5.8-15-12.2-21.9-19h-4l-4 4a888 888 0 0 0-34 36l-3 4h-2l-13-11-7-8-3-3c-2-2-4-2-7-1l-4 3-6 5-7 7c-3 3-7 5-10 6-5 1-8 3-11 7-3 3-6 5-11 6-6 1-11.9 4-16.9 9l-2 2c-1 0-2 0-1-1l2-5 13-25 15-27 10-13 7-9c5-6 10-11 17-15l12-8c8-6 18-11 28-15l30-11 8.9-1"/>
    <path fill="#FFF" d="M477 422.5v-3l-1-2h-2l-1 1v7c0 2 0 2 2 2h1l1-1v-4m-127-85v-3.1l-1-1c-5 3-5 3-4 8l1 1h1c4-1 4-1 3-5m120 85.1v-3l-1-2h-3l-1 1v7c0 2 0 2 2 2 3 0 3 0 3-3v-2m7-7 7.9-1h1-1l-8-4-3-1-1 4c0 2 0 2 2 2h2m-52-54c1-3-1-4-4-5l-1-1-2-1v6c1 3 1 3 4 4l2 1 1-1v-3m-159.8 9-1-5-4 2-1 1-1 1v6l1 1h1c5-2 5-1 5-6m131.9 25v-2c1-3 0-3-3-3l-1-1-2 2v6c0 2 0 2 3 2s3 1 3-3v-1m-95-41c0 5 0 5 4 3l3-1v-1l-1-9-3 2c-2 1-3 2-3 4v2m86 39v-3l-2-1h-3l-2 1v6c0 3-1 3 3 3 3 1 3 1 4-3v-3m-47 1v-3c0-2 0-2-2-2h-4l-2 2v5c0 4 0 4 4 4h2l2-2v-4m101 28v4l1 1h4c4 0 4 0 4-4v-5l-5-1h-3l-1 1v4m-20-28v1c0 5-1 4 4 4h3l3-1v-7c0-1 0-2-1-1l-9 1v3m36 33h4l1-1 1-8-1-1-9 1-1 1v7l1 1h4m-218 3v-6l-1-1-6-2-1 1v11c0 5 0 4 4 4s4 0 4-3v-4m233-28v2c0 2 0 3 2 3l11.9 5c5 2 5 3 5-3l-2-2c-2 0-3-1-4-3l-2-1c-3 1-6 0-9-2l-1-1-1-1v3m12 25v-1h4c3 1 3 1 3-3v-5a281 281 0 0 0-13 0v7l1 2h5m-254.8 3v-7c0-2 0-2-2-2l-6 4-1 2 2 10h6l1-1v-6m113.9-36v4l2 1h13v-6c1-3 1-3-3-3l-7-1c-6-1-5-1-5 5m-32 1v-3l-1-2h-7c-9 0-7-2-7 7v1c1 2 1 2 4 2h10l1-2v-3m19-1v-3c0-1 0-2-1-1-5 1-9 2-14 1l-2 1v6c0 1 0 2 2 2h14l1-2v-4m39 5h8l1-1v-7c0-3-1-3-3-3l-2 1-9 1h-1l-2 1v7l1 1h7m43-10-12 1-1 2-1 4c0 4 0 4 4 4l2-1h12c3 0 3 0 3-3v-6l-7-1m25 34v-35l-1-2-1-1h-1v8l1 8-1 3v49l3 1v-31m-47-46v7c0 2 0 2 2 2h21c5 .8 10 1 15 1 3 0 3 0 3-3v-1l-1-1h-5l-3-4v-1h-3c-3 1-4 1-7-2l-2-1c-5 2-8 0-10-3v-2h-2c-2 2-5 2-7 0l-1 1v7m65 52h-12c-2 0-2 0-2 2l-1 3c.5 4.3 1.2 8.7 2 13l8-1h17l1-1v-11l1-4-1-1h-13m-57-27h-6l-2 4-1 10 1 1 10-1h29l2-2v-7c0-3-1-4-5-4h-18l-10-1m-93 1h-5c-2 0-3 1-4 3l-1 2 1 6c0 3-1 3 3 3l2-1 7-1 27 1c6 0 5 0 5-5v-4c0-3-2-4-4-4h-2l-12 1h-8l-9-1m13-17h20c2 0 2 0 2-2v-15h-2l-4-1-2-1h-1v2c-3 4-6 5-10 3h-4v1c-2 5-7 6-11 4l-1-1c-2-1-2-1-3 1l-1 1-1 1c0 1-1 2-3 2-2 1-2 1-2 3 1 2 1 2 3 2h20m43 29 19 1 6 1 1-1v-8l-2-6h-3c-7 1-13 2-19 1l-6-1-10 1c-3 0-4 1-4 4v9h7l11-1m-150.9 11v8l1 10 5 1 1-2v-16c0-2 1-3 3-5 4-3 9-5 14-3l4 1 1-1v-17l-1-1-2-1h-2v2c-3 3-6 4-9 3l-3-1h-1c-3 5-4 6-9 5h-1l-1 1v16m245.8-11h11c2 0 2 0 2-2l-1-9v-4l-1-2c-4 0-6-2-8-4l-1-1h-3c-3 1-6 0-8-3l-1-2-2-1-3 1-1 2v16l1 7c0 2 0 2 2 2h13m-51 19v1h-10l-4-1c-2 0-2 1-2 2v14c0 4 0 4 3 4l19 1h5l12-1c2-1 2-1 2-3l-1-16-1-1h-23m-49 22 22-1 6-1c1 0 2 0 2-2v-16l-1-2-10 1c-7 2-15 3-21.9 2h-9c-1-1-2 0-2 1v15c0 2 1 2 2 2l12 1m-16-10v-9l-2-1-22 1c-6 1-12 2-17 1h-3l-1 1v19h7c12-1.6 24-2.7 36-3 1 0 2 0 2-2v-7m-77 10h6c7.5.2 14.7.9 22 2l1-1v-20h-2l-11-1-7 1-10 1c-6 0-12-.7-18-2-1 0-2 0-1 2v14l-1 4 1 1h3l17-1m-52.9-53 3-1 8-3c14-6 29-10 44-15 11-3 22-7 32-12 11-5 23-9 34-12l25.9-8h2v-2l-8-6h-4l-17 7a545.3 545.3 0 0 1-73 29c-10 6-20 10-30 14l-10 3-6.9 5v1m153.9-18 7 1h14c1 1 2 0 2-1v-7l-2-13c-4 1-6-1-8-4l-1-1-2-1c-3 2-6 1-8-2l-1-1h-1l-1 2c-2 2-4 2-7 2h-2l-1 2c-2 2-4 3-7 2-2-1-2-1-3 2v15c0 5-1 5 5 5l16-1m-72 3 1-6c0-2-2-2-3-3l-2 2-1 1c-2 3-4 4-7 4l-2-1-2 1c-2 4-6 6-10 5l-3-1-2 3c-2 2-5 4-8 3l-2-1h-2c-1 3-3 5-6 6v1l1 13 2 2h20c5-2 11-2 16-1l9 1 1-2 1-7-1-3-1-4 1-13m132 43c5 0 5 0 5-4v-2c1-2 2-4 1-6l-6 1c-6 1-13 2-20 1l-13-1h-12c-11 1-21 1-32-1h-13c-13.9 1.7-28 2.3-42 2h-11l-30 1-8 1-1 8 2 2 13-1h10l6 1 37-1h41l19-1h21l12-1h19l2 1m29 18h-11c-2 0-2 0-2 2v3c-1 2-1 3-3 3l-12 1c-5-.6-10-.6-15 0h-43c-6-1-11 0-17 1l-18 1h-43a217 217 0 0 1-47 1c-3-1-4-2-4-5v-6c0-1 0-2-2-2h-2l-20.9-1h-4c-1-1-2-1-2-3v-34h-10l4-4c15.4-12.5 33-22 52-28l1-2 1-6-1-1-3 1h-1v-2l2-2 10-7 3-1 2 2-1 2-1 4v6l1 1h1l13-5c5.4-3.2 11-5.9 17-8l1-1 1-7-2-1c-1 0-2-1-1-2 3.2-4.2 7.3-7.6 12-10 1-1 2 0 2 1v1l1 13h2l5-2 21-8c1.9-1 1.9-1 1.9-3v-4h-2c-1-1-3-2.1 0-4.1l10-7c2-1 3 0 3 2v12l6 3c15.7 5.2 31.4 10.5 47 16l5 2 4 1 1-1v-7l-1-4v-3h3l2 1 10 7c1 2 1 2-1 3h-1l-1 1v7l6 3 8 4 13 6 11 4 29.9 13 3 2-1 1-1-1-11-3-20-9-26-10c-9-2-17-6-25-10l-17-8-30-10-10-3c4 3 8 6 12 7l42 16 28 12 20 8 32 12c2 0 9 3 8 4h-3l-1 1v39.1l1 3-1 2-2 2-2-2v-6l1-13-2-2-15 1c-2 0-2 0-2 2v14l-4 4h-15Zm-204 74.1 23 5 20 2a353 353 0 0 0 46-4l28-5c13.5-2.5 27.2-3.8 41-4 10 0 20 2 30 4 2 1 1 2-2 2-10-2-20-3-30-2l-35 6a395 395 0 0 1-60 13 159.9 159.9 0 0 1-58-7l-11-6-5-4v-2l13 2m-3-28c-13 0-24-4-32.9-12-4-4-7-7-9-12v-3l1 2c8 8 17 13 28 15 5 1 11 2 16 1 11 0 21-2 31-5l26-7c9-2.6 18.5-3.6 28-3l4 1a9 9 0 0 1 5.9 6l1 2c1 3 3 4 5 5l8 2 12-2c14-2.8 28-6.1 42-10 11-2 21-2 32-1 11 1.2 21.8 4.3 32 9v1l-2-1c-8-2.8-16.6-4.2-25-4-12-1-24 1-36 3l-27 7c-9 2-17 3-26 2l-10-1-4-2-4-5-1-3c0-4-3-6-6-7h-9c-9 1-17 3-26 6l-21 9c-7 3-15 5-23 6l-10 1m132 85.1-26-2-22-2c-8-1-16 0-24 1l-8 1h-2l2-1c15-6 31-9.1 47-9l17 2h26l19-4 14-5c2 0 5-2 5 0 1 1-1 3-3 4-5 5-12 9-19 11-9 3-18 4-26 4"/>
    <path fill="#1E2346" d="M295 429.5c1 0 2-1 2-3l-2-2c-2 0-3 1-3 2 0 2 1 3 3 3m49-3c0-2-1-3-3-3-1 0-3 1-3 3 0 1 2 3 4 3l2-3m48-1-3-3c-2 0-3 2-3 3 0 2 1 3 3 3 1 1 3-1 3-3m33 6-2-1h-19c-5 .3-10.1 1-15 2h-78l-37 1h-6l-10-1-13 1-2-2 1-8 1-1h7l30-1h11c29-1.6 58-2 87-1 15.3-1.4 30.7-1.4 46 0l5-1c1 2 0 4-1 6v2c0 4 0 4-5 4m-132-43-1 13 1 4 1 3-1 7-1 2-9-1c-5-1-11-1-16 1h-20l-2-2-1-13v-1c3-1 5-3 6-6h2l2 1c3 1 7-1 8-3l2-3 3 1c4 1 8-1 10-5l2-1 2 1c3 0 6-1 7-3l1-2 2-2c1 1 3 1 3 3l-1 6m56-2c-6 0-5 0-5-5v-15c1-3 1-3 3-2 3 1 5 0 7-2l1-2h2c3 0 5 0 7-2l1-2h1l1 1c2 3 5 4 8 2l2 1 1 1c2 3 4 5 8 4l2 1v19c-13 .6-26 .9-39 1m-138.9 17 8-6 10-3c10-4 20-8 30-14 25-8 49.3-17.7 73-29l16.9-7h4l8 6v2h-2l-26 8c-11 3-23 7-34 12-10 5-21 9-32 12-15 5-30 9-44 15l-7.9 3c-1 1-3 2-4 1m34 54v-19l1-2 4 1 14 1 10-1 7-1 11 1h2v2c0 4 1 16-1 18s-47 2-48 0m96.9-4c0 2-1 2-2 2h-6l-30 3c-1 0-7 1-7-1v-16l1-2v-1h3c5 1 11 0 17-1 7.3-1 14.7-1.4 22-1l2 1v16m17 3-13-1c-1 0-2 0-1-2l-1-14v-1l2-2 9 1c8 0 15 0 22-2l10-1 1 2v16c0 2-1 2-2 2h-6l-21 2m56-22h15l1 1 1 16c0 2 0 2-2 3l-12 1h-5l-19-1c-3 0-3 0-3-4v-14c0-1 0-2 2-2l4 1 18-1m43-19h-13c-2 0-2 0-2-2l-1-7v-17l1-1 3-1 2 1 1 2c2 3 5 4 8 3h3l1 1c2 2 4 4 8 4l1 2v4l1 9c0 2 0 2-2 2h-11m-245.9-5 1-1h1c5 1 6 0 9-5h1l3 1c3 1 6 0 9-3v-2h2l3 1v18l-1 1-4-1c-5-2-10 0-14 3l-3 5v5l-1 13-5-1-1-1a241 241 0 0 1 0-17v-16m150.9 5-15 1h-2c-2-1-1-6-1-9 0-4 1-4 4-4l10-1 6 1c6 1 12 0 19-1h3c2 1 2 3 2 5v9h-7l-19-1m-61-29h-2c-2 0-2 0-2-2-1-2-1-2 1-3 2 0 3-1 3-2l1-1 1-1c1-2 1-2 3-1l1 1c4 2 9 1 11-4v-1h2l2 1c4 1 8 0 10-4v-1l1-1 5 2h3v2l-2 15h-38m5 17 9 1h8l12-1h2c2 0 4 1 4 4v4c0 5 1 5-5 5-9-1-35 1-36 1-3 0-3 0-3-3l-1-6 1-2c1-2 2-3 4-3h5m93-1 10 1h18c4 0 5 1 5 4v7l-2 2h-29c-3 1-10 2-11 0l1-10 2-4h6m68 27h2l1 1-1 16-26 1-2-2v-11l1-3c0-2 0-2 2-2h23m-76-59 1-1c2 2 5 2 7 0h2v2c2 3 5 5 10 3l2 1 1 1c2 2 3 2 6 1h3v1l3 4h5l1 1v1c0 3 0 3-3 3h-4l-11-1h-21c-2 1-2 0-2-2v-14m47 53v31l-3-1v-49l1-3-1-8v-7l1-1 1 1 1 2v35m-18-33v6c0 3 0 3-3 3s-16 1-17 0v-8l1-1h19m-57 9-1-1 2-8h1l11-2c2 0 3 1 3 3a219 219 0 0 1-1 8h-15m-32-1-1 2h-14c-2 0-2-1-2-2v-6l2-1c5 1 10 0 14-1l1 9m-19-1-1 2h-10c-3 0-3 0-4-2v-1c0-9-2-7 7-7h7l1 2v6m32-4c0-6-1-6 5-5l7 1c4 0 3-1 4 3l-1 6h-13l-2-1v-4"/>
    <path fill="#1E2346" d="m230 436.5-1 1-8-1v-9l1-2 6-4c.8 4.7 1.5 9.3 2 14m249.9-8c-2 0-1-6-1-9l1-1 12 1v5c0 4 0 4-3 3l-9 1m-7-25v-3l2 2c3 2 6 3 9 2l2 1c1 2 2 3 4 3l2 2c0 6 0 5-5 3l-12-5c-2 0-2-1-2-3v-2Zm-232.8 28v4c0 3 0 3-4 3s-4 1-4-4l1-12 6 2 1 1v6Zm217.8-3h-4l-1-1v-7l1-1 9-1 1 1-1 8-1 1h-4m-36-36 1-1 9 1v7l-3 1h-3c-5 0-4 1-4-4v-4m20 27 1-1c1 0 7-1 8 1v5c0 4 0 4-4 4h-4l-1-1v-8m-100.9-24v4l-2 2h-2c-4 0-4 0-4-4v-5l2-2h4c2 0 2 0 2 2v3m47 2c-1 4-1 4-4 3-4 0-3 0-3-3v-6l2-1h3l2 1v6m-86-38v-7l6-4h1l-1 10-2 1c-5 2-4-1-4 0m95 38c0 4 0 3-3 3s-3 0-3-2v-6l2-2 1 1c3 0 4 0 3 3v3m-132-26c0 3 0 4-5 6h-1l-1-1v-6l1-1 5-3 1 5m160-12v6l-1 1-2-1c-3-1-3-1-4-4l1-5c1 0 5 1 6 3m50 57c-2 0-2 0-2-2l1-4 11.9 5-11 1m-5 9c0 3 0 3-3 3-2 0-2 0-2-2v-7l4-1 1 2v5m-119.9-84-3 2h-1l-1-1c-1-5-1-5 4-8.1l1 1v6m126 87.1h-1c-2 0-2 0-2-2v-7l1-1h2l1 2-1 8"/>
    <path fill="#FFF" d="M392 425.5c0 2-2 4-3 3-2 0-3-1-3-3 0-1 1-3 3-3l3 3m-48 1-2 3c-2 0-4-2-4-3 0-2 2-3 3-3 2 0 3 1 3 3m-49 3c-2 0-3-1-3-3l2-2c2 0 3 1 3 2 0 2-1 3-2 3M467 529l2.7 2.8 2.8-2.8-2.8-2.8-2.8 2.8Zm-6-19c0 .3-.3 6.7-.2 13.2-6.8.5-5.7-13.3-5.3-15 .2-1.4-4.4 1.7-6.6 3.8.7 1.3 1.7 1 3 .5-.6 6.2 3.8 11.8 9 11.7.1 6.4.8 12.5 2.6 13 .2.1.5-6.5.6-13.7 12.2-3.8 7.5-18.3 7.5-18.3-.2-.8-2 .3-6 4 1.6 1.6 2.3.6 3.6.2 1 2 1.4 10.5-5 13.1l.2-18c0-.2-.2-.3-.4-.3-1.8.2-5 3.4-7.5 6.1 1.4 2.2 3.1.2 4.5-.4"/>
  </g>
</symbol></svg>
