<svg xmlns="http://www.w3.org/2000/svg" viewBox="0 0 31.58 39.09"><g id="Layer_2" data-name="Layer 2"><g id="Incentive"><path d="M15.79,39.09A15.79,15.79,0,1,1,31.58,23.3,15.81,15.81,0,0,1,15.79,39.09Zm0-29.2A13.41,13.41,0,1,0,29.2,23.3,13.42,13.42,0,0,0,15.79,9.89Z"/><path fill="#eb212e" d="M19.38,5.11H12.2A1.19,1.19,0,0,1,11,3.92V1.19A1.19,1.19,0,0,1,12.2,0h7.18a1.19,1.19,0,0,1,1.19,1.19V3.92A1.19,1.19,0,0,1,19.38,5.11Z"/><path fill="#14912f" d="M2,10A1.19,1.19,0,0,1,1,9.5L.45,8.68A1.19,1.19,0,0,1,.74,7L4.52,4.4a1.19,1.19,0,0,1,1.66.3l.57.82a1.19,1.19,0,0,1-.3,1.66L2.67,9.8A1.18,1.18,0,0,1,2,10Z"/><path d="M15.71,26a1.23,1.23,0,0,1-1.23-1.23V15.84a1.23,1.23,0,0,1,2.45,0v8.89A1.23,1.23,0,0,1,15.71,26Z"/><path d="M14.88,25.68a1.23,1.23,0,0,1-.08-1.73l3.27-3.57A1.23,1.23,0,0,1,19.89,22l-3.27,3.57A1.23,1.23,0,0,1,14.88,25.68Z"/><line  fill="#FFF" stroke="#b2a3a3" stroke-miterlimit="10" x1="3.63" y1="22.49" x2="7.06" y2="22.49"/><line  fill="#FFF" stroke="#b2a3a3" stroke-miterlimit="10" x1="24.51" y1="22.49" x2="27.93" y2="22.49"/><line  fill="#FFF" stroke="#b2a3a3" stroke-miterlimit="10" x1="15.78" y1="35.46" x2="15.78" y2="32.04"/><line  fill="#FFF" stroke="#b2a3a3" stroke-miterlimit="10" x1="15.78" y1="14.58" x2="15.78" y2="11.16"/><line  fill="#FFF" stroke="#b2a3a3" stroke-miterlimit="10" x1="24.67" y1="32.16" x2="22.72" y2="30.21"/><line  fill="#FFF" stroke="#b2a3a3" stroke-miterlimit="10" x1="8.91" y1="16.39" x2="6.98" y2="14.47"/><line  fill="#FFF" stroke="#b2a3a3" stroke-miterlimit="10" x1="7.4" y1="32.75" x2="9.35" y2="30.8"/><line  fill="#FFF" stroke="#b2a3a3" stroke-miterlimit="10" x1="23.16" y1="16.99" x2="25.09" y2="15.06"/></g></g></svg>
