<svg viewBox="0 0 498 332" version="1.1" xmlns="http://www.w3.org/2000/svg" xmlns:xlink="http://www.w3.org/1999/xlink">
    <title>Combined Shape</title>
    <defs></defs>
    <g id="Page-1" stroke-width="1" fill-rule="evenodd">
        <g id="connecting-rooms" transform="translate(-0.784987, -4.216472)" fill-rule="nonzero">
            <path d="M316.648936,320.159574 C321.055463,320.159574 324.62766,323.731771 324.62766,328.138298 C324.62766,332.544825 321.055463,336.117021 316.648936,336.117021 L288.56383,336.117021 C273.093737,336.115715 258.637763,328.419155 250,315.585106 C241.355743,328.411953 226.903912,336.106307 211.43617,336.117021 L183.351064,336.117021 C178.944537,336.117021 175.37234,332.544825 175.37234,328.138298 C175.37234,323.731771 178.944537,320.159574 183.351064,320.159574 L211.43617,320.159574 C228.315715,320.130295 241.991997,306.454013 242.021277,289.574468 C242.021277,285.167941 245.593473,281.595745 250,281.595745 C254.406527,281.595745 257.978723,285.167941 257.978723,289.574468 C258.008003,306.454013 271.684285,320.130295 288.56383,320.159574 L316.648936,320.159574 Z M451.702128,4.30851064 C477.3826,4.36700853 498.186183,25.1705911 498.244681,50.8510638 L498.244681,289.574468 C498.186183,315.254941 477.3826,336.058523 451.702128,336.117021 L423.617021,336.117021 C419.210494,336.117021 415.638298,332.544825 415.638298,328.138298 C415.638298,323.731771 419.210494,320.159574 423.617021,320.159574 L451.702128,320.159574 C468.581673,320.130295 482.257955,306.454013 482.287234,289.574468 L482.287234,50.8510638 C482.257955,33.9715188 468.581673,20.2952369 451.702128,20.2659574 L288.56383,20.2659574 C271.684285,20.2952369 258.008003,33.9715188 257.978723,50.8510638 C257.978723,55.2575911 254.406527,58.8297872 250,58.8297872 C245.593473,58.8297872 242.021277,55.2575911 242.021277,50.8510638 C241.991997,33.9715188 228.315715,20.2952369 211.43617,20.2659574 L48.2978723,20.2659574 C31.4183273,20.2952369 17.7420454,33.9715188 17.712766,50.8510638 L17.712766,289.574468 C17.7420454,306.454013 31.4183273,320.130295 48.2978723,320.159574 L76.3829787,320.159574 C80.789506,320.159574 84.3617021,323.731771 84.3617021,328.138298 C84.3617021,332.544825 80.789506,336.117021 76.3829787,336.117021 L48.2978723,336.117021 C22.6173996,336.058523 1.81381704,315.254941 1.75531915,289.574468 L1.75531915,50.8510638 C1.81381704,25.1705911 22.6173996,4.36700853 48.2978723,4.30851064 L211.43617,4.30851064 C226.903912,4.31922484 241.355743,12.0135791 250,24.8404255 C258.637763,12.0063767 273.093737,4.30981677 288.56383,4.30851064 L451.702128,4.30851064 Z M250,115.691489 C245.593473,115.691489 242.021277,112.119293 242.021277,107.712766 L242.021277,77.4468085 C242.021277,73.0402813 245.593473,69.4680851 250,69.4680851 C254.406527,69.4680851 257.978723,73.0402813 257.978723,77.4468085 L257.978723,107.712766 C257.978723,112.119293 254.406527,115.691489 250,115.691489 Z M242.021277,185.319149 L242.021277,155.106383 C242.021277,150.699856 245.593473,147.12766 250,147.12766 C254.406527,147.12766 257.978723,150.699856 257.978723,155.106383 L257.978723,185.319149 C257.978723,189.725676 254.406527,193.297872 250,193.297872 C245.593473,193.297872 242.021277,189.725676 242.021277,185.319149 Z M242.021277,262.978723 L242.021277,232.712766 C242.021277,228.306239 245.593473,224.734043 250,224.734043 C254.406527,224.734043 257.978723,228.306239 257.978723,232.712766 L257.978723,262.978723 C257.978723,267.385251 254.406527,270.957447 250,270.957447 C245.593473,270.957447 242.021277,267.385251 242.021277,262.978723 Z" id="Combined-Shape"></path>
        </g>
    </g>
</svg>
