<!-- Generator: Adobe Illustrator 19.2.0, SVG Export Plug-In  -->
<svg version="1.1"
	 xmlns="http://www.w3.org/2000/svg" xmlns:xlink="http://www.w3.org/1999/xlink"
	 x="0px" y="0px" viewBox="0 0 498.2 343.2" style="enable-background:new 0 0 498.2 343.2;"
	 xml:space="preserve">
<defs>
</defs>
<path id="XMLID_1_" d="M445.4,19.8c18.2,0,33,14.8,33,33v237.6c0,18.2-14.8,33-33,33H52.8c-18.2,0-33-14.8-33-33V52.8
	c0-18.2,14.8-33,33-33H445.4 M445.4,0H52.8C23.8,0,0,23.8,0,52.8v237.6c0,29.1,23.8,52.8,52.8,52.8h392.6
	c29.1,0,52.8-23.8,52.8-52.8V52.8C498.2,23.8,474.5,0,445.4,0L445.4,0z M132.1,72.6c3.6,0,6.6,3,6.6,6.6v39.6c0,3.6-3,6.6-6.6,6.6
	H92.4c-3.6,0-6.6-3-6.6-6.6V79.2c0-3.6,3-6.6,6.6-6.6H132.1 M132.1,52.8H92.4C77.9,52.8,66,64.7,66,79.2v39.6
	c0,14.5,11.9,26.4,26.4,26.4h39.6c14.5,0,26.4-11.9,26.4-26.4V79.2C158.5,64.7,146.6,52.8,132.1,52.8L132.1,52.8z M168.4,198.1
	c0-5.5-4.4-9.9-9.9-9.9H79.2c-5.5,0-9.9,4.4-9.9,9.9s4.4,9.9,9.9,9.9h79.2C164,208,168.4,203.6,168.4,198.1z M287.2,198.1
	c0-5.5-4.4-9.9-9.9-9.9h-79.2c-5.5,0-9.9,4.4-9.9,9.9s4.4,9.9,9.9,9.9h79.2C282.8,208,287.2,203.6,287.2,198.1z M406.1,198.1
	c0-5.5-4.4-9.9-9.9-9.9H317c-5.5,0-9.9,4.4-9.9,9.9s4.4,9.9,9.9,9.9h79.2C401.7,208,406.1,203.6,406.1,198.1z M340.1,264.1
	c0-5.5-4.4-9.9-9.9-9.9H79.2c-5.5,0-9.9,4.4-9.9,9.9s4.4,9.9,9.9,9.9h250.9C335.6,274,340.1,269.6,340.1,264.1z"/>
</svg>
