<svg xmlns="http://www.w3.org/2000/svg" viewBox="0 0 30 30" fill="none">
<symbol id="AllInclusiveDonations">
<path fill="currentColor" fill-rule="evenodd" d="M23.52 17.16c.99-1.1 1.87-2.24 2.5-3.33a7.4 7.4 0 0 0 .98-3.68C27 6.2 23.94 3 20.17 3 18.2 3 16.3 3.92 15 5.48A6.73 6.73 0 0 0 9.83 3C6.06 3 3 6.2 3 10.15c0 1.3.34 2.57.99 3.7.8 1.37 1.98 2.8 3.26 4.15H4a1 1 0 0 0-1 1v7a1 1 0 0 0 1 1h4a1 1 0 0 0 .85-.48 3 3 0 0 0 1.15.23h7.07a11 11 0 0 0 4.09-.79l1.17-.46a8.1 8.1 0 0 0 3.72-3.03l.58-.87c.2-.3.35-.64.42-1l.08-.42a2.45 2.45 0 0 0-3.17-2.8l-.23.07a1.67 1.67 0 0 0-.21-.3Zm-2.03-.66a20.91 20.91 0 0 0 2.8-3.57c.47-.82.72-1.75.72-2.7a5.03 5.03 0 0 0-4.89-5.16 4.85 4.85 0 0 0-4.29 2.7c-.32.63-1.33.63-1.66 0a4.85 4.85 0 0 0-4.29-2.7A5.03 5.03 0 0 0 5 10.23c0 .95.25 1.88.7 2.69h.01a26.34 26.34 0 0 0 4.4 5.17l2.16-2.52.02-.03c1.31-1.3 2.45-1.67 3.37-1.5.75.13 1.25.65 1.53 1.04.24.33.54.87.52 1.54a2.5 2.5 0 0 1-1.11 1.93l-.28.22 1.33.45c.34-.47.76-.96 1.21-1.39a6.4 6.4 0 0 1 1.18-.9 3 3 0 0 1 1.45-.43ZM7 20v5H5v-5h2Zm2 3.75v-2.04c0-.4.27-.75.66-.84.58-.15 1.1-.47 1.49-.92l2.58-3.02c1.02-1 1.53-.93 1.59-.92l.06.03c.05.05.12.11.2.21.1.16.13.27.13.32 0 .02 0 .05-.03.1s-.1.15-.28.28a13.47 13.47 0 0 0-2.47 2.45 4.67 4.67 0 0 0-.61 1.03.97.97 0 0 0 0 .56 1 1 0 0 0 1.07.7.93.93 0 0 0 .46-.16 3.44 3.44 0 0 0 .4-.37l.64-.7.04-.05 2.82.96c1.85.63 3.91.13 5.29-1.24a3 3 0 0 1 1.17-.73l.38-.13a.45.45 0 0 1 .58.52l-.08.42a.8.8 0 0 1-.12.28l-.58.87a6.1 6.1 0 0 1-2.8 2.28l-1.17.47a9 9 0 0 1-3.35.64H10a1 1 0 0 1-1-1Zm10.93-4.16a3.17 3.17 0 0 0 1.7-.88l.2-.2-.33-.01c-.06 0-.2.03-.46.17a4.43 4.43 0 0 0-1.1.92Z" clip-rule="evenodd"/>
</symbol>
</svg>
