<svg xmlns="http://www.w3.org/2000/svg" viewBox="0 0 160 72" fill="none">
    <symbol id="BabyClubMed">
    <path fill="#1E2643" d="m135.3 65.4-1.1 1.1 1 1.2 1.2-1.2-1.1-1.1Zm-62.1-1.7v-1c0-1.8.8-2.7 2.2-2.7 1 0 1.8.5 2.1 1.5h1.8c-.3-1.5-1.6-2.7-3.9-2.7-2.5 0-4 1.6-4 4v1.1c0 2.4 1.4 3.8 4 3.8 2.3 0 3.6-1.2 4-2.7h-1.9c-.3 1-1 1.5-2 1.5-1.7 0-2.3-1.1-2.3-2.9m9.3 4h1v-1.3H83c-.7 0-1-.2-1-1v-6.5h-1.7v6.6c0 1.4.7 2.2 2.3 2.2m7.8-2.7v-4h-1.6v4c0 1.2-.8 1.6-1.5 1.6-.8 0-1.5-.4-1.5-1.6v-4H84v4c0 2 1 2.8 3.2 2.8 2 0 3.1-.8 3.1-2.8Zm6 0c0 1.2-.9 1.6-1.7 1.6-.8 0-1.7-.4-1.7-1.6v-1.2c0-1.2 1-1.6 1.7-1.6.8 0 1.7.4 1.7 1.6v1.2Zm1.6-.1v-1c0-1.7-.9-3-3-3-.7 0-1.4.2-2 .5v-2.5h-1.6v6c0 2.1 1.2 2.9 3.3 2.9 2.1 0 3.3-.9 3.3-3m10.4 3h1.7v-8.8h-2.4l-2.5 6.7-2.5-6.7h-2.4v8.7h1.7v-6.5l2.4 6.5h1.6l2.4-6.5v6.5Zm4.1-4c0-1.2 1-1.7 1.7-1.7.8 0 1.7.5 1.7 1.7h-3.4Zm5 1v-.5c0-2-1.2-3.3-3.3-3.3-2 0-3.3 1.3-3.3 3.3v.3c0 2 1.2 3.2 3.4 3.2 1.2 0 2.1-.2 3.1-1l-1-.9c-.7.5-1.3.7-2 .7-1 0-1.9-.6-1.9-1.6v-.2h5Zm5.8.2c0 1.2-.9 1.6-1.7 1.6-.8 0-1.7-.4-1.7-1.6v-1.2c0-1.2 1-1.6 1.7-1.6.8 0 1.7.4 1.7 1.6v1.2Zm1.7 0v-6h-1.7v2.4c-.5-.3-1.2-.4-1.9-.4-2.2 0-3 1.2-3 2.8v1c0 2.1 1.2 3 3.3 3 2.1 0 3.3-.8 3.3-2.8m11.1-8c0-.2-.8.2-2.3 1.6.6.7 1 .3 1.4.1.4.8.6 4.3-2 5.3a659.2 659.2 0 0 0 0-7.3c-.7 0-2 1.3-3 2.4.6 1 1.2.1 1.8-.1 0 .1-.2 2.7-.1 5.3-2.6.2-2.2-5.3-2-6 0-.6-1.8.7-2.6 1.5.2.5.6.4 1.1.2-.2 2.5 1.5 4.7 3.5 4.7.1 2.5.4 5 1 5.2.2 0 .3-2.6.3-5.5 4.8-1.5 3-7.3 3-7.3"/>
    <path fill="#9EAEF4" d="M132.1 42.7c0 3-4.3 4.8-6.5 3.6a4.9 4.9 0 0 1-2.8-4.4v-4.2a4 4 0 0 1 3.6-3.6c3.3-.6 6 1.2 6 4.7 0 1.3-.3 2.6-.3 4m-24.8 2c.1.7-.2 1.5-.9 1.6-1.8.2-4.8.1-6.5-.9-1.2-.7-1.3-1.8-.2-2.7.4-.4 1-.8 1.6-.9h6c.2 1-.1 2 0 2.9m17.5-15.3c-.5.2-1 .8-1.7 1l-.2-2v-3c-.2-1.7-.4-1.9-2-1.9h-1.8c-2 0-2 .1-2 2.2V42c0 .9 0 1.9-.3 2.8-.2 1.1-.8 1.5-2 1.5-1 0-2-.8-2-1.8-.2-.5-.1-1 0-1.7l.2-5.6c-.2-3.3-1.6-5.9-4.7-7-4-1.6-8.1-1.2-12 .7-.8.5-1.5 1-1.8 2.2l3.6 3c1.7-1.2 3.3-2.1 5.3-2 2.3 0 4 1.3 3.9 3.9h-2.9c-2 0-4-.4-6 0-3.2.6-5.5 3.5-4.8 6.5.7 2.8 2.4 4.9 5.1 5.7a15 15 0 0 0 9.8.1c.6-.2 1.3-.1 1.8 0 3.7 1.6 7.3 1.4 10.6-1 1.2.6 2.2 1.2 3.2 1.5 2.4.7 4.9.7 7.3 0a7.8 7.8 0 0 0 4.2-3c1.4-1.8 1.9-4 2-6.3.4-3.3-.2-6.5-2.3-9-2.8-3.3-6.5-4-10.5-3.1M86.2 43.9c-.1 1.7-1.7 3-3.1 3.1-1.1.2-2.2.2-3.3 0-1.7-.1-2.8-2-3-4v-3.8c0-2.8 1.3-4.3 4-4.7 3-.4 5.6 1.4 5.7 4.5 0 1.6-.1 3.3-.3 4.9m2.3-11.8a10 10 0 0 0-6.2-2c-1.7 0-3.3.8-5.1 1-.1-1.2.2-2.9-.1-4 0-1.3.1-2.4-1-2.9-1-.4-2.1-.2-3.1-.2-1.7 0-1.9.2-1.8 1.9l.2 17.2c0 1.5.6 3 1.5 4.1a10 10 0 0 0 6 3.8c2.4.4 4.7.6 7-.3 2.8-1.2 4.8-3.2 5.3-6.4.3-2.5.4-5 0-7.4-.5-1.8-1-3.7-2.7-4.8m66.7-2.4c-1 0-1.5.3-1.9 1.2-1.2 2.4-2.3 5.3-3.6 7.8l-1 2.2-1-2.2-3.5-7.7c-.4-.9-1-1.2-1.9-1.1h-3l-1.6.3 1 2.2 6.9 14c.2.6.3 1.3.2 1.8-1 3.1-1.2 5.2-4.8 4.7h-1.2c-.5 2-.5 4.5-.5 4.5h4c2.6.1 3.5-1.3 4.7-3.3 1.2-2 2.2-4.2 3.1-6.3l5.3-11.6c.6-1.4 1.7-2.8 2.2-4.2.3-.6.8-1.4 1-2.4h-4.4"/>
    <path fill="#FDBE00" d="m24.6 38.1-1.3-1 .7-1c4.3-4.4 7.4-6.4 12.7-6.4 1.1 1 6.8 2.6 9 3 1.9 2 4.3 4.4 5.2 7.2 1.2 3.5 1.5 7 1 10.7a13 13 0 0 1-5 8.5 12 12 0 0 1-12 1.4 112 112 0 0 1-19.7-11.8c-1.8-1.2-3.5-2.7-5.2-4.2-3.4-2.8-9-7-9-7.2l-.1-2.2C3 37 4.3 37.8 6.6 39.6c3 2.4 6.2 5.2 9.2 7.5 3.5 2.7 7 5.2 10.7 7.4 2.6 1.5 5.1 3 8 4a13 13 0 0 0 8.5.5c3-1 6.3-4 7-8a16.6 16.6 0 0 0-3.7-14.7c-.8-1-1.7-1.7-2.6-2.5-3.2-2.8-11.2-2.9-14.4-.1-1.6 1.4-3.4 2.8-4.7 4.5Z"/>
    <path fill="#924833" d="M47.2 32c.7 0 1.5.9 2.3.5 8.3 9.4 5 20 4.6 21.5a15.6 15.6 0 0 1-7 8.7c-1.5 1-3.3 1.5-5 1.6-3.3.4-6.5 0-9.7-1.2a60.7 60.7 0 0 1-12.4-7c-2.7-1.7-5.3-3.8-8-5.7-4-3-6.7-5.5-10.7-8.6v-2.4c2.5 2 3.3 3 5.7 5 2.4 2 4.5 3.2 7 5 3.5 2.7 7 5.3 10.7 7.7a50 50 0 0 0 6.5 3.4 27 27 0 0 0 7.3 2.1c2 .3 4.1 0 6-.8 1.5-.7 3-1.5 4.3-2.8 2.4-2.5 3.9-5.4 4.4-9 .2-2 .4-4 0-5.9A20 20 0 0 0 47.8 33l-.5-1Z"/>
    <path fill="#1E2643" d="m29.7 41.9-1.4-.8c.3-.9 1.7-2 2.3-2.5 2.9-3 7-3.2 10.7-1.2 2.9 1.7 3.8 4.2 4.5 7.2.6 2.9.5 5.4-1 7.6a5.7 5.7 0 0 1-3.2 2.4c-3.3.5-5.5 0-8.1-1.2A71.8 71.8 0 0 1 20.7 45l-5-3.7a166 166 0 0 1-11.2-9.2c-1-.8-3.2-2.9-4.2-3.5v-1.8c2 1.7 4.7 3.5 6.8 5.1 3.4 2.6 6.6 5.5 10.1 8 2.7 1.9 5 4.3 7.7 6.1 3 2 5.7 4.5 9 5.7 2 .7 3.7 1.3 5.7 1.4 1.5 0 2.7-.6 3.7-2 1.5-2.2 1.2-4.4.7-6.5-1.2-4.8-4.8-7.6-9.7-6.3-1 .3-2 1.2-2.8 2-.5.3-1.3 1.2-1.8 1.6Z"/>
    <path fill="#9EAEF4" d="M32.3 43.5c-.6-.4-.7-.3-1.3-.8 2.2-2.4 3.7-3.2 6.1-3.2 2.5 0 5.6 2.3 5.9 6.9 0 .8-.5 1.9-1 3.2-.6 1-2.2 2-3.3 1.9a14 14 0 0 1-8.2-3.5c-1.7-1.2-3.5-2-5.2-3.4-3-2.4-6-5-9.1-7.3A289 289 0 0 1 0 24.6v-2L22.2 40c2.8 2 5.6 4.2 8.5 6a24 24 0 0 0 8 3.9c.7.1 1.3-.3 2-1.5a5 5 0 0 0-1.2-6.4c-1.8-1.6-4.9-1.7-7.2 1.5Z"/>
    <path fill="#924833" d="M22 36.1c-.6-.2-.6-.8-1-1.3a21.2 21.2 0 0 1 13-8l1.3 1.3c-1.5.4-3 .6-4.3 1.1a21.4 21.4 0 0 0-9 7Z"/>
    <path fill="#9EAEF4" d="M39.7 31.5a16.4 16.4 0 0 1-6.9-5.9c-2.7.8-5.6 1.4-7.8 3.3-2 1.5-4 3.1-5.3 5.1-.5-.4-.4-.6-1-1l-.1-.2a25 25 0 0 1 13-8.9c-2.8-6.7-2.7-13 2-18.4A15.3 15.3 0 0 1 51 .9c7.6 2.6 11.6 8.4 12 16.5l4.6-.2c.2 0 .6.3 0 .5-3 1-6.2 3.6-6.2 3.6.7 1.5 3 4 4 5.3-1.4.3-3.4-.6-5-.7-2 2.3-4 4.9-7.2 5.8a20 20 0 0 1 4.3 8.8c.7 2.4.8 5 .8 7.6a20.4 20.4 0 0 1-8.9 17 16 16 0 0 1-9.4 2.7v2.3c1.4.5 3.7.2 4.2 1.4-1.8-.1-4.7 0-5.2-.4s0-2.1-.3-3.2c-1.3-.2-3-.4-4.3-.8l-.1 1.3c0 1.6.3 2.3.3 2.3 4.4.4 4.3 1 4.3 1-1.2.1-4.8.3-5.5 0-.6-.4-.4-3.4-.4-5a63.5 63.5 0 0 1-9.6-4.6c-4.1-2.4-8-5.2-11.8-8-2.9-2.2-5.6-4.6-8.3-6.9-1.1-.9-1.5-1-1.5-1v-2c10.1 9 17.2 14.1 28.9 20 2.3.9 3 1 4.4 1.5 2.1.6 4.4.7 6.6.5 4.1-.5 7.6-2.3 10.3-5.4a20 20 0 0 0 4.6-10c.6-4.2 0-8.7-1.4-12.6-.8-2.2-2.5-4-3.9-6-.6.3-4.4 1.7-11.5-.7Z"/>
    <path fill="#ACBEB9" d="m26.2 39.3 2.2-2.5a10 10 0 0 1 5.2-3.2c5-1.4 9 .2 12.4 4 1.6 1.9 2.4 4 2.7 6.4.4 3.3.6 6.5-1.2 9.6-2 3.2-4.5 4.7-8 4.6a17 17 0 0 1-6.6-1.7c-2.4-1.1-7.4-4.3-7.6-4.3l-6.8-4.9A317.3 317.3 0 0 1 1 33.1L.9 31c1.1 1 2 1.6 3 2.3 2.9 2.2 5.5 4.7 8.4 6.9 4 3.1 8.1 6 12 9.3 3.4 2.7 7.2 4.3 11 5.9 2.7 1.1 5.5 1.7 8.3-.2a7.7 7.7 0 0 0 3.4-4.6c.2-1 .4-2.6.4-3.8-.3-5.3-2.2-9.5-7.3-11.4-5.1-2-9.3.7-12.5 4.9l-1.4-1Z"/>
    <path fill="#D5CDC2" d="m20.5 34.5 13.2 9.8c1.9-1.8 3.4-2.2 4.7-1.1 1.4 1 2.2 3 .8 5-.9.8-2 0-3-.5-3-1.4-5.7-3.4-8.4-5.3-3.3-2.4-6.4-5-9.7-7.3C12.8 31.2 8 26.9 3 22.7l-2.8-2V19a128 128 0 0 1 10.1 7.5l10.2 8Zm14.8 10.8c.7.5 2.8 2 3 1.2.4-1-.6-1.6-1.3-1.9-.5-.2-1.3 0-1.7.7Z"/>
    </symbol>
</svg>