<svg xmlns="http://www.w3.org/2000/svg" viewBox="0 0 30 30" fill="none">
<symbol id="Bars">
<path fill="currentColor" fill-rule="evenodd" d="M7.09 8.62c.38.47.92.78 1.52.84.5.06.87.52.82 1.03a.92.92 0 0 1-1.02.82 4.06 4.06 0 0 1-2.75-1.53 4.2 4.2 0 0 1 .63-5.87 4.06 4.06 0 0 1 5.76.64c.69.87 1 1.96.89 3.07a.93.93 0 0 1-1.02.82.93.93 0 0 1-.81-1.02A2.31 2.31 0 0 0 9.1 4.88a2.3 2.3 0 0 0-2.5 2.04c-.06.61.11 1.22.49 1.7Zm9.41 6.22 3.62-4.12h-7.1l3.48 4.12Zm1.05 1.6V23c0 .38-.22.72-.57.86l-2 1.29h2.62a.94.94 0 0 1 .43-1.39.9.9 0 0 1 .7.02l3.29 1.44c.4.18.62.62.53 1.05a.93.93 0 0 1-.9.74H11.62a.92.92 0 0 1-.9-.75c-.08-.39.1-.75.51-1.03l4.49-2.83v-5.62L8.24 7.94a.93.93 0 0 1 .77-1.54.9.9 0 0 1 .62.33l1.81 2.13h10.32l1.89-2.14a.91.91 0 0 1 1.3-.07c.37.33.4.92.07 1.3l-7.47 8.5Z" clip-rule="evenodd"/>
</symbol>
</svg>
