<svg xmlns="http://www.w3.org/2000/svg" viewBox="0 0 79 95" fill="none">
    <symbol id="ChillPass">
        <path d="M26.81 89.73c0 1.27-.77 1.73-1.62 1.73-.85 0-1.61-.46-1.61-1.73v-4.2h-1.83v4.2c0 2.2 1.16 3.01 3.44 3.01 2.29 0 3.45-.82 3.45-3.01v-4.2H26.8v4.2Zm17.82.73-2.7-7.11H39.3v9.3h1.82V87.1c0-.36 0-.97-.05-1.36h.06l2.63 6.9h1.69l2.62-6.9h.06c-.03.4-.05 1-.05 1.36v5.55h1.82v-9.3h-2.58l-2.7 7.1Zm9.77-5.02c-2.3 0-3.6 1.37-3.6 3.57v.28c0 2.12 1.25 3.46 3.7 3.46 1.23 0 2.3-.26 3.34-1.11l-1.11-.89c-.77.52-1.35.71-2.22.71-1.07 0-1.95-.6-1.95-1.73v-.16H58V89c0-2.2-1.32-3.57-3.61-3.57Zm-1.84 3.04c0-1.3 1-1.8 1.84-1.8.85 0 1.84.5 1.84 1.8h-3.68Zm-19.07-3.04c-.7 0-1.45.16-2.06.45v-2.65h-1.82v6.5c0 2.19 1.32 3 3.6 3 2.29 0 3.62-.92 3.62-3.12V88.5c0-1.74-1-3.05-3.34-3.05Zm1.62 4.29c0 1.27-1 1.73-1.84 1.73-.85 0-1.84-.46-1.84-1.73v-1.28c0-1.27 1-1.73 1.84-1.73.85 0 1.84.46 1.84 1.73v1.28ZM12.5 84.51c1.13 0 1.95.5 2.28 1.63h1.94c-.34-1.66-1.81-2.89-4.23-2.89-2.79 0-4.36 1.65-4.36 4.23v1.27c0 2.48 1.52 4 4.36 4 2.42 0 3.88-1.23 4.23-2.89h-1.94c-.34 1.12-1.15 1.63-2.29 1.63-1.8 0-2.46-1.21-2.46-3.06v-.93c0-2.03.9-2.98 2.46-2.98Zm6.98 5.73v-7h-1.82v7.06c0 1.51.73 2.35 2.52 2.35h1.14V91.3h-.74c-.8 0-1.1-.23-1.1-1.06Zm58.66-8.94c-.1-.36-.86.14-2.52 1.65.66.74 1 .32 1.52.12.43.81.6 4.5-2.18 5.61.08-3.71.12-7.69.12-7.69 0-.1-.1-.14-.16-.12-.76.1-2.12 1.46-3.17 2.6.58.96 1.3.1 1.88-.14 0 .16-.14 2.9-.08 5.7-2.86.2-2.4-5.68-2.23-6.44.07-.6-1.85.73-2.8 1.62.3.55.73.44 1.25.24-.19 2.64 1.65 5.05 3.8 5 .07 2.72.35 5.37 1.13 5.55.11.03.2-2.76.26-5.86 5.15-1.62 3.19-7.85 3.19-7.85Z"/>
        <path d="m77.32 90.29-1.2 1.21 1.2 1.21 1.2-1.21zM64.24 85.9c-.6-.3-1.36-.46-2.06-.46-2.35 0-3.34 1.31-3.34 3.05v1.13c0 2.2 1.32 3.13 3.62 3.13 2.29 0 3.6-.82 3.6-3.02v-6.48h-1.82v2.65Zm0 3.83c0 1.27-.99 1.73-1.84 1.73-.84 0-1.84-.46-1.84-1.73v-1.28c0-1.27 1-1.73 1.84-1.73.85 0 1.84.46 1.84 1.73v1.28ZM30.26 36.72l-6.42 31.99h5.42l1-5.85h6.08l1.05 5.85h5.87L36.8 36.72h-6.53Zm.75 21.84 2.26-12.83h.05l2.26 12.83h-4.57Zm24.85-6.84-3.66-3.4c-1.66-1.5-2.72-2.54-2.72-4.33v-.67c0-1.79 1.1-2.64 2.72-2.64 1.8 0 2.7.9 2.7 2.74v2.78h5.23v-2.6c0-4.62-2.26-7.26-7.99-7.26s-8.03 3.06-8.03 7.02v1.09c0 3.68 1.5 5.52 4.77 8.53l3.36 3.16c1.76 1.56 2.56 2.7 2.56 4.53v1.23c0 1.7-.8 2.83-2.61 2.83-1.96 0-2.81-1.04-2.81-2.83v-4.4h-5.32v4.3c0 4.2 2.25 7.26 8.08 7.26s8.34-3.11 8.34-7.5V60c0-3.54-1.5-5.33-4.62-8.3v.01Z"/>
        <path d="m73.13 50.92 5.13-4.72v-2.6s0 4.62 0 0c0-4.63-2.73-6.04-2.76-6.06l2.98-3.01v-5.04h-2.52l2.42-2.4v-5.04H68.3V.38h-5.67l-3.13 3.3V.4h-5.67l-2.7 2.88h-.02V.4h-5.67l-2.66 2.74V.4h-5.71l-5.48 5.61V.46h-5.67L23.25 3.2l-.06-.1a2.97 2.97 0 0 0-.11-.18C22.98 2.75 21.94 0 16.35 0c-4.03 0-5.96 2.08-6.05 2.17l-.15.14-7.1 7.2C1.4 11.15.67 13.62.67 16.53v16.5c0 3.33.98 6.12 3.2 7.73h-.01L.85 43.6v31.98h5.72l7.32-6.87v-4.83a5.6 5.6 0 0 0 1.56-1.08l4.45-4.18.03-.03-3.41 17h5.42l6.18-5.86h.9l1.05 5.85h5.88l2.24-2.16c1.26 1.58 3.4 2.54 6.65 2.54 2.92 0 5.01-.8 6.37-2.13L55 70.26c.53 3.37 2.9 5.69 7.96 5.69 2.93 0 5.02-.79 6.37-2.13l7.18-6.74.03-.04c.12-.12 2.21-2.2 2.07-7.02 0-3.54-1.5-5.33-4.62-8.3l-.86-.8Zm4.42-4.72-4.75 4.36-.03.03-2.44-2.26c-1.66-1.51-2.72-2.55-2.72-4.34v-.67c0-1.79 1.1-2.64 2.72-2.64 1.8 0 2.7.9 2.7 2.74v2.78h4.52ZM59.49 4.4l.35-.37 2.77-2.94v26h15.07l-2.07 2.06-.34.34H59.48V4.39Zm-27.9 2.3.34-.34 5.14-5.26v13.75h-5.48V6.69ZM19.57 58.27l-4.45 4.18v.01c-.34.34-.76.63-1.22.87v-5.47h2.76c1.62 0 2.94-.22 4.01-.63l-1.06 1-.04.04ZM13.89 41.1h2.1c1.96 0 2.82.86 2.82 2.6v7.36c0 1.75-.86 2.65-2.81 2.65h-2.11V41.1ZM69 73.47c-1.33 1.33-3.36 2-6.03 2-2.31 0-4.13-.5-5.4-1.48a5.74 5.74 0 0 1-2.1-3.8l-.13-.9-4.45 4.18c-1.33 1.33-3.36 2-6.04 2-2.92 0-5.03-.8-6.28-2.36l-.32-.4-2.48 2.38H30.5l-.98-5.46-.07-.4h-1.5l-.13.14-6.04 5.72h-4.65L20.7 57.2c2.75-1.06 3.84-3.36 3.84-6.58v-6.74c0-4.49-2.11-7.18-7.88-7.18H8.18v32h5.03l-6.8 6.38H1.33V43.8l2.72-2.55h1.31l-1.2-.88c-2.5-1.8-3.01-4.98-3.01-7.33v-16.5c0-2.9.77-5.22 2.24-6.7l5.45-5.5a11.87 11.87 0 0 0-.93 4.87v16.5c0 5.28 2.48 9.2 8.45 9.2 5.97 0 8-3.61 8-8.5v-3.6H19.2v4c0 2.02-.7 3.33-2.74 3.33-1.22 0-2-.53-2.45-1.4l.14-.13 4.87-4.89.14-.14v-6.7l-.82.83-1.41 1.43h-3.35V8.3c0-2.06.85-3.52 2.88-3.52 2.04 0 2.74 1.2 2.74 3.32v4.2h5.17V8.55c0-1.88-.25-3.55-.88-4.9l.1-.11 2.33-2.39v33.38h5.67V19.48h5.48v15.04h5.71V3.82l.34-.35 2.32-2.38v4.5h5.67V3.75h.22l.14-.15 2.35-2.51v33.4H77.8l-2.74 2.78c-1.2-.61-2.78-.94-4.78-.94-5.57 0-8.03 3.06-8.03 7.02v1.09c0 3.68 1.5 5.52 4.77 8.53l3.36 3.16c1.76 1.56 2.56 2.7 2.56 4.53v1.23c0 1.7-.8 2.83-2.61 2.83-1.96 0-2.82-1.04-2.82-2.83V57.5H62.2v4.3c0 4.2 2.26 7.26 8.09 7.26 1.65 0 3.03-.26 4.17-.72l-5.43 5.1-.02.02ZM13.58 26.62v-7h3.54l1.56-1.57v5.33l-4.87 4.89v-.03a4.42 4.42 0 0 1-.17-.72v-.06a6.5 6.5 0 0 1-.06-.85Z"/>
        <path d="M51.12 8.44h-5.67v26.07h5.67z"/>
    </symbol>
</svg>
