<svg xmlns="http://www.w3.org/2000/svg" fill="none" viewBox="0 0 120 24">
<!--<symbol id="ClubMed">-->
  <path fill="currentColor" d="m117.96 15.88-2.05 2.05 2.04 2.05 2.05-2.05-2.04-2.05ZM3.24 12.75v-1.56c0-3.44 1.5-5.04 4.2-5.04 1.94 0 3.32.85 3.9 2.74h3.3c-.59-2.8-3.08-4.87-7.2-4.87C2.68 4.02 0 6.8 0 11.14v2.13c0 4.17 2.6 6.75 7.43 6.75 4.13 0 6.62-2.07 7.21-4.86h-3.3c-.58 1.89-1.96 2.73-3.9 2.73-3.08 0-4.2-2.03-4.2-5.15m17.29 7.12h1.95v-2.27h-1.25c-1.37 0-1.9-.38-1.9-1.78V4.01h-3.1v11.9c0 2.54 1.24 3.95 4.3 3.95m14.41-4.9V7.87h-3.1v7.07c0 2.12-1.32 2.92-2.76 2.92-1.45 0-2.75-.78-2.75-2.92V7.88h-3.11v7.07c0 3.7 1.96 5.07 5.86 5.07 3.9 0 5.87-1.37 5.87-5.07m11.05 0c0 2.13-1.7 2.92-3.14 2.92-1.45 0-3.14-.78-3.14-2.92V12.8c0-2.12 1.7-2.92 3.14-2.92 1.45 0 3.14.78 3.14 2.92v2.15Zm2.93-.18v-1.9c0-2.94-1.68-5.15-5.7-5.15a8.3 8.3 0 0 0-3.5.77V4.02h-3.1v10.93c-.01 3.7 2.23 5.07 6.14 5.07 3.9 0 6.16-1.56 6.16-5.26m19.17 5.1h3.11V4.18h-4.4l-4.6 11.99-4.59-12h-4.49v15.7h3.11V10.5c0-.6-.02-1.62-.1-2.29h.1l4.5 11.65h2.87L68.1 8.22h.09c-.05.66-.08 1.68-.08 2.28v9.36Zm7.65-7.02c0-2.18 1.69-3.04 3.14-3.04 1.44 0 3.14.86 3.14 3.04h-6.28Zm0 1.85h9.3v-.97c0-3.7-2.25-6-6.15-6-3.9 0-6.15 2.3-6.15 6v.48c0 3.58 2.15 5.81 6.31 5.81 2.1 0 3.92-.44 5.7-1.86l-1.88-1.49a6.07 6.07 0 0 1-3.78 1.18c-1.84 0-3.33-1-3.33-2.91l-.02-.24Zm19.91.26c0 2.14-1.68 2.92-3.13 2.92-1.44 0-3.14-.78-3.14-2.92V12.8c0-2.13 1.7-2.93 3.14-2.93 1.45 0 3.13.79 3.13 2.93v2.15Zm3.1 0V4.02h-3.1v4.46a8.4 8.4 0 0 0-3.5-.76c-4.02 0-5.7 2.2-5.7 5.14v1.9c0 3.7 2.26 5.26 6.17 5.26s6.15-1.37 6.15-5.07M119.38.73c-.16-.59-1.48.23-4.32 2.79 1.13 1.25 1.7.53 2.6.2.73 1.38 1.02 7.6-3.71 9.46.13-6.26.19-12.96.19-12.96 0-.03 0-.07-.02-.1a.22.22 0 0 0-.26-.11c-1.31.17-3.63 2.47-5.41 4.4.98 1.61 2.22.17 3.21-.24 0 .27-.24 4.89-.13 9.59-4.88.36-4.1-9.57-3.81-10.85.12-1.01-3.14 1.24-4.76 2.74.51.92 1.23.73 2.12.39-.32 4.46 2.82 8.5 6.48 8.42.12 4.59.6 9.05 1.94 9.36.17.05.32-4.65.42-9.87 8.8-2.72 5.44-13.22 5.44-13.22"/>
<!--</symbol>-->
</svg>
