<svg xmlns="http://www.w3.org/2000/svg" viewBox="0 0 108 108" fill="none">
<symbol id="HappyToCare">
  <path fill="currentColor" d="M38.85 27.9c0 2.21-.82 5.2-1.32 5.23-.51.03-1.48-2.9-1.48-5.05 0-2.14.95-5.55 1.45-5.58.52-.03 1.35 3.18 1.35 5.4Zm-2.8 52.45c0-2.14.96-5.56 1.46-5.58.5-.02 1.34 3.19 1.34 5.4 0 2.22-.82 5.2-1.32 5.23-.5.03-1.47-2.9-1.47-5.05Zm44.53-26.9c-.14.32-.3.54-.5.65a1.4 1.4 0 0 1-.72.16h-.5v1.01h.52c.6 0 1.07-.1 1.44-.32.38-.22.67-.56.89-1.05l2.83-6.13H83.1l-1.52 3.45L80 47.77h-1.45l2.37 4.93-.34.75Zm-42.23 3.48c-.13 5.8-.28 11.03-.48 10.98h-.02c-1.47-.35-2.02-5.31-2.16-10.41-4.05.1-7.55-4.41-7.2-9.37-.98.38-1.78.59-2.35-.44 1.8-1.67 5.43-4.17 5.3-3.04-.32 1.41-1.2 12.47 4.23 12.06-.1-4.39.08-8.7.13-10.16l.02-.5c-.25.1-.52.27-.8.44-.91.57-1.93 1.2-2.77-.18 1.99-2.15 4.56-4.7 6-4.88.15-.03.32.03.32.23 0 0-.07 7.45-.22 14.42 5.27-2.08 4.95-9 4.14-10.53-.2.07-.38.16-.55.25-.72.35-1.33.64-2.34-.47 3.16-2.83 4.62-3.76 4.8-3.1 0 0 3.72 11.67-6.05 14.7Zm14.83-6.78h4.03v3.02h1.42v-7.2h-1.42v2.98h-4.03v-2.98h-1.42v7.2h1.42v-3.02Zm15.77 3.13c-.58 0-1.09-.1-1.51-.33v2.33h-1.39v-5.3c0-1.54.9-2.31 2.79-2.31 1.88 0 2.81.8 2.81 2.39v.87c0 .72-.21 1.3-.66 1.72-.44.43-1.12.63-2.04.63ZM67.83 49c-.26.23-.4.57-.4 1.03v1.05c0 .38.13.68.37.9.25.21.58.32 1 .32.5 0 .86-.12 1.1-.34.23-.23.35-.57.35-1.05v-.88c0-.46-.12-.8-.37-1.03a1.5 1.5 0 0 0-1.04-.34c-.41 0-.75.12-1.01.34Zm6.12 3.95c.42.22.93.33 1.5.33.93 0 1.6-.2 2.05-.63.44-.41.65-1 .65-1.72v-.87c0-1.6-.93-2.4-2.81-2.4s-2.79.78-2.79 2.31v5.3h1.4v-2.32Zm0-2.92c0-.46.13-.8.39-1.03a1.5 1.5 0 0 1 1-.34c.45 0 .8.12 1.05.34.25.23.37.57.37 1.03v.88c0 .48-.12.82-.36 1.05-.23.22-.6.34-1.09.34-.42 0-.75-.1-1-.32a1.13 1.13 0 0 1-.36-.9v-1.05Zm-7.16 7.12c-.64 0-1.12.2-1.45.6-.33.42-.5.99-.5 1.74v.82c0 .73.16 1.3.47 1.68.3.38.8.57 1.47.57.47 0 .86-.11 1.16-.33.3-.22.5-.54.6-.96h1.57a2.4 2.4 0 0 1-1.02 1.7c-.58.41-1.36.62-2.33.62-1.1 0-1.95-.27-2.53-.84a3.08 3.08 0 0 1-.87-2.31v-1c0-1.02.3-1.84.9-2.43.59-.59 1.43-.88 2.51-.88.96 0 1.74.2 2.32.62.58.42.92.97 1.04 1.68h-1.58c-.22-.85-.8-1.28-1.76-1.28Zm8.33 1.3a3.24 3.24 0 0 0-1.95-.48c-1 0-1.81.26-2.42.81l.94.7a2 2 0 0 1 1.45-.5c.47 0 .8.07 1 .22.17.14.27.34.27.6v.44h-1.46c-.77 0-1.36.14-1.77.45-.4.3-.61.7-.61 1.17 0 .48.24.88.74 1.22.49.34 1.17.5 2.05.5.88 0 1.59-.15 2.24-.46.13-.06.19-.13.19-.25v-3c0-.62-.23-1.09-.66-1.42h-.01Zm-.71 3.92c-.28.16-.64.24-1.08.24-.45 0-.82-.07-1.06-.2-.24-.14-.36-.33-.36-.58 0-.22.1-.4.29-.53.19-.14.47-.2.83-.2h1.39v1.27h-.01Zm2.37-2.38c0-.58.18-1.04.52-1.4h.01c.35-.35.84-.52 1.45-.52h1.28v.99h-.98c-.6 0-.9.3-.9.9v3.51h-1.38V60Zm-33.94-.9-2.28 2.27 2.28 2.27 2.27-2.27-2.27-2.27ZM86 60.69v.48h-4.24v.04c0 .43.15.76.44 1 .3.23.68.34 1.15.34.63 0 1.18-.2 1.64-.61l.89.75c-.64.59-1.5.89-2.55.89-.9 0-1.63-.23-2.17-.69a2.45 2.45 0 0 1-.81-1.97v-.26c0-.82.25-1.47.75-1.97.51-.49 1.2-.73 2.07-.73.93 0 1.63.24 2.11.73.48.48.72 1.15.72 2Zm-2.82-1.76c-.4 0-.73.13-1 .37-.26.24-.4.57-.42.98h2.84a1.3 1.3 0 0 0-.41-1 1.42 1.42 0 0 0-1-.35ZM65 52.57v-3c0-.62-.21-1.09-.66-1.42a3.24 3.24 0 0 0-1.95-.48c-1 0-1.8.27-2.41.81l.93.7a2 2 0 0 1 1.45-.5c.48 0 .81.07 1 .22.18.14.27.34.27.6v.44h-1.45c-.77 0-1.36.15-1.77.45-.4.3-.62.7-.62 1.17 0 .48.25.88.74 1.22.5.34 1.18.5 2.05.5.88 0 1.6-.15 2.24-.45.13-.07.2-.14.2-.25H65Zm-1.38-.5c-.27.17-.64.24-1.08.24a2.3 2.3 0 0 1-1.06-.2c-.24-.14-.35-.33-.35-.58 0-.22.1-.4.28-.53.2-.14.47-.2.84-.2h1.38v1.27Zm-11.59 4.2h1.4v1.8h1.73v1h-1.74v2.67c0 .25.05.43.17.54.13.12.33.18.6.18h.97v1.02H53.8c-1.18 0-1.76-.6-1.76-1.79v-2.63h-.78v-.99h.78v-1.8Zm6.42 1.69c-.89 0-1.57.2-2.05.61-.46.41-.7 1-.7 1.76v.78c0 1.64.91 2.47 2.75 2.47 1.84 0 2.75-.82 2.75-2.44v-.8c0-.77-.24-1.35-.7-1.77a3.1 3.1 0 0 0-2.05-.61Zm1.35 3.34c0 .85-.45 1.27-1.34 1.27-.41 0-.74-.1-.98-.3-.24-.2-.37-.52-.37-.97v-1.07c0-.44.12-.77.37-.98.24-.2.57-.31.98-.31.9 0 1.34.43 1.34 1.29v1.07Zm-48.75-8.72c2.15 0 5.56.95 5.59 1.45h-.01c.02.51-3.18 1.35-5.4 1.35-2.21.01-5.2-.81-5.23-1.32-.03-.5 2.91-1.48 5.05-1.48Zm6.75 19.05c-1.5 1.52-2.9 4.27-2.53 4.61.37.34 3.07-1.2 4.63-2.76 1.56-1.57 3.25-4.43 2.87-4.77-.38-.34-3.47 1.4-4.98 2.91Zm1.95-37.32c1.52 1.51 3.26 4.6 2.92 4.97-.35.38-3.2-1.3-4.78-2.87-1.56-1.56-3.1-4.25-2.76-4.63.35-.38 3.1 1.02 4.62 2.53Zm9.94 38.95c-.47-.17-2.64 2.63-3.44 4.63-.8 2-1 5.07-.53 5.23.48.17 2.36-2.3 3.2-4.35.83-2.05 1.26-5.34.78-5.51ZM18.13 46.2c-.17.49-3.46.05-5.52-.78-2.05-.83-4.51-2.71-4.35-3.19.17-.48 3.25-.27 5.24.53 1.98.8 4.8 2.97 4.63 3.44Zm.17 15.92c-.22-.46-3.73 0-5.7.83-1.97.84-4.3 2.87-4.08 3.33.23.46 3.3.04 5.33-.82 2.04-.87 4.68-2.89 4.46-3.34ZM28.42 29.1c.84 1.97 1.3 5.48.84 5.7-.46.23-2.48-2.4-3.35-4.45-.86-2.03-1.27-5.1-.82-5.33.45-.22 2.49 2.11 3.33 4.08Z"/>
</symbol>
</svg>
