<svg xmlns="http://www.w3.org/2000/svg" viewBox="0 0 30 30" fill="none">
<symbol id="HappyToCareSmall">
  <path fill="currentColor" d="M15.1 19.79h.17l.14.1c.4.34.62 2.67.6 3.6 0 .49-.19 3.17-.76 3.45l-.15.06H15c-.74 0-.98-2.36-.98-3.5.01-.8.32-3.38.8-3.64l.2-.07h.07Zm-4.23 2.38c.45-1.04 1.6-3.1 2.28-2.84l.08.04.12.1c.39.45-.42 2.84-.68 3.45-.36.86-1.5 2.92-2 3.07l-.16.04-.22-.1-.13-.1c-.35-.44.4-2.92.7-3.66Zm6.27-2.86.17.04c.5.15 1.62 2.2 1.99 3.07.23.57 1.07 2.99.68 3.44l-.13.11-.07.04c-.66.27-1.83-1.8-2.28-2.84-.31-.74-1.06-3.22-.72-3.64l.14-.13.22-.1Zm1.55-1.16c.54 0 2.3 1.47 2.94 2.14.67.7 2.09 2.45 1.92 2.96l-.07.15-.06.06c-.51.5-2.27-.96-3.14-1.8-.56-.59-2.18-2.63-2.03-3.15l.08-.17.17-.17.17-.02h.02ZM8.33 20.17c.47-.45 2.4-2.1 2.97-1.91l.15.07.06.05c.54.55-1.17 2.5-1.81 3.14-.58.57-2.62 2.18-3.15 2.04l-.16-.09-.17-.16-.03-.17c-.04-.51 1.47-2.31 2.14-2.97Zm11.38-3.58c.46-.23 2.7.5 3.56.88.63.28 2.87 1.46 2.9 2.05v.16l-.03.08c-.15.33-.82.36-1.89.08-.88-.23-1.72-.58-1.72-.58-.75-.33-3.02-1.62-3.08-2.17l.01-.2.1-.21.15-.09Zm-12.84.88c.86-.38 3.1-1.1 3.57-.88l.15.09.1.22v.17c-.06.57-2.33 1.86-3.07 2.19-.01 0-.85.35-1.73.58-1.07.28-1.74.25-1.88-.07l-.03-.09-.01-.15c.04-.6 2.3-1.8 2.9-2.06Zm-.16-3.44c.48.01 3.16.2 3.44.76l.05.16.01.09c0 .74-2.36.98-3.5.98-.8-.01-3.38-.32-3.64-.81L3 15.03v-.25l.1-.14c.34-.4 2.66-.6 3.6-.6Zm16.79 0c.48.01 3.16.2 3.44.76l.06.16v.09c0 .74-2.36.98-3.5.98-.8-.01-3.38-.32-3.64-.81l-.07-.18v-.25l.1-.14c.33-.4 2.55-.6 3.54-.6h.07ZM4.22 10.01c.46-.23 2.7.5 3.57.88.57.26 2.86 1.44 2.9 2.04v.17l-.04.08c-.3.71-2.77-.15-3.6-.5-.75-.33-3.02-1.63-3.08-2.17l.01-.2.09-.21.15-.09Zm18.13.88c.87-.38 3.11-1.1 3.57-.88l.15.09.1.22v.17c-.05.56-2.33 1.86-3.07 2.18-.84.36-3.3 1.22-3.6.51l-.04-.09v-.14c.03-.62 2.33-1.8 2.9-2.06ZM20.3 8.37c.7-.68 2.44-2.09 2.96-1.92l.15.07.06.06c.5.5-1 2.33-1.8 3.14-.56.54-2.46 2.04-3.08 2.04l-.07-.01-.17-.08-.17-.17-.02-.17c-.04-.51 1.46-2.3 2.14-2.96ZM6.89 6.19c.53 0 2.29 1.48 2.94 2.14.33.35 2.1 2.38 1.91 2.97l-.07.15-.05.06c-.58.56-2.66-1.32-3.14-1.81-.57-.58-2.18-2.62-2.04-3.14l.09-.17.16-.17.17-.03h.02Zm3.62-2.37.17.05c.5.15 1.62 2.2 1.99 3.07.26.63 1.06 3 .68 3.44l-.12.1-.08.04a.32.32 0 0 1-.12.03c-.69 0-1.73-1.88-2.16-2.86-.3-.74-1.06-3.22-.72-3.65l.14-.12.22-.1Zm6.99 2.86c.45-1.04 1.6-3.1 2.28-2.83l.08.03.11.1c.4.47-.44 2.88-.67 3.45-.37.87-1.5 2.92-2 3.08l-.16.04-.23-.1-.13-.1c-.35-.45.4-2.93.72-3.67ZM15.1 3h.17l.14.1c.4.34.62 2.67.6 3.6 0 .49-.19 3.17-.75 3.45l-.16.05-.09.01c-.74 0-.98-2.36-.98-3.5.01-.8.32-3.38.8-3.64l.2-.07h.07Z"/>
</symbol>
</svg>
