<svg xmlns="http://www.w3.org/2000/svg" viewBox="0 0 160 70" fill="none">
  <symbol id="PetitClubMed">
    <path fill="#1E2643" d="m158.5 65-1.2 1.2 1.2 1.2 1.2-1.2-1.2-1.1Zm-66.8-1.7v-.9c0-1.9.8-2.8 2.4-2.8 1.1 0 2 .5 2.3 1.5h1.9c-.4-1.5-1.8-2.7-4.2-2.7-2.8 0-4.3 1.6-4.3 4v1.2c0 2.4 1.5 3.8 4.3 3.8 2.4 0 3.8-1.1 4.2-2.7h-2c-.3 1-1 1.5-2.2 1.5-1.8 0-2.4-1.1-2.4-2.9m10 4h1.2V66h-.8c-.8 0-1-.2-1-1v-6.6h-1.9V65c0 1.4.8 2.2 2.5 2.2m8.4-2.7v-4h-1.8v4c0 1.2-.7 1.6-1.6 1.6-.8 0-1.6-.4-1.6-1.6v-4h-1.8v4c0 2 1.1 2.8 3.4 2.8s3.4-.8 3.4-2.8Zm6.5 0c0 1.2-1 1.6-1.8 1.6-.9 0-1.9-.4-1.9-1.6v-1.3c0-1.2 1-1.6 1.9-1.6.8 0 1.8.4 1.8 1.6v1.3Zm1.7-.1v-1.1c0-1.7-1-3-3.3-3a5 5 0 0 0-2 .5v-2.5h-2v6.2c0 2 1.3 2.8 3.6 2.8s3.6-.8 3.6-3m11.2 3h1.8v-9h-2.6l-2.6 6.8-2.7-6.7h-2.6v8.8h1.8v-6.5l2.6 6.5h1.7l2.6-6.5v6.5Zm4.4-4c0-1.3 1-1.7 1.9-1.7.8 0 1.8.4 1.8 1.7h-3.7Zm0 1h5.5V64c0-2.1-1.4-3.4-3.6-3.4-2.3 0-3.6 1.3-3.6 3.4v.3c0 2 1.2 3.2 3.7 3.2 1.2 0 2.2-.2 3.3-1l-1.1-.9c-.8.5-1.4.7-2.2.7-1.1 0-2-.6-2-1.6v-.2Zm11.7.2c0 1.2-1 1.6-1.9 1.6-.8 0-1.8-.4-1.8-1.6v-1.2c0-1.2 1-1.7 1.8-1.7.9 0 1.9.5 1.9 1.7v1.2Zm1.8 0v-6.2h-1.8v2.5a5 5 0 0 0-2-.4c-2.4 0-3.4 1.2-3.4 2.9v1c0 2.1 1.3 3 3.6 3s3.6-.7 3.6-2.8m12-8c-.1-.4-.9 0-2.5 1.5.6.7 1 .3 1.5.1.4.8.6 4.3-2.2 5.4a649.2 649.2 0 0 0 0-7.5c-.8.1-2.1 1.4-3.2 2.5.6 1 1.3.1 1.9-.1 0 .1-.2 2.7-.1 5.4-2.8.2-2.4-5.4-2.2-6.1 0-.6-1.9.7-2.8 1.5.3.5.7.4 1.2.2-.1 2.5 1.7 4.8 3.8 4.8.1 2.6.4 5 1.2 5.3l.2-5.6c5.1-1.5 3.2-7.5 3.2-7.5"/>
    <path fill="#ACBEB9" d="M127.3 34v8.2l.1 1.2c.3 1.5.9 2 2.7 2.3h3.3l.1 3.6c0 .4-.2.6-.6.7-2.5 0-5 0-7.4-.7a5.3 5.3 0 0 1-3.7-4.3c-.2-1.3-.4-2.5-.4-3.8l.2-7.3h-2.7c-.2-1.3 0-2.5 0-3.8l2.6-.2.1-1 .2-4.8c0-.6.3-.7.9-.7l4.7.2c.2 2-.3 3.9-.1 6 4.8.2 9.5 0 14.4 0v19.6c0 .3-.2.5-.6.5h-4.4V34h-9.4Zm-39.9 5.1h-.1v-2a3 3 0 0 0-1-2 5.6 5.6 0 0 0-4.2-1.8 8 8 0 0 0-2 .3 3.3 3.3 0 0 0-2.5 2.8c-.4 2-.3 4 0 6a4 4 0 0 0 3.2 3.6 8 8 0 0 0 3.1-.2c1.7-.3 2.8-1.3 3-3 .3-1.2.3-2.4.5-3.7m-10 10.5v7.6l-1 .1-3.3.2h-1.3V43.3l-.1-6c-.1-2.4 1.1-4.2 3-5.7a9.1 9.1 0 0 1 5-2c2.7-.2 5.3-.2 7.8.8 1 .3 2 .9 3 1.5a6.1 6.1 0 0 1 2.3 5c.1 2.4 0 4.8-.3 7a5.2 5.2 0 0 1-2.7 4.2 15.4 15.4 0 0 1-9 2.2c-.8 0-1.6-.3-2.3-.5l-1.2-.3M111 37.6c-.2-1.3-.5-2.2-1.5-2.9a6.2 6.2 0 0 0-3.8-1.2c-2.9.2-4.4 2.5-4.4 4.1h9.7Zm-9.8 3.8a4 4 0 0 0 1 2.6c.4.8 1.2 1.3 2.2 1.7 1.8.5 2.7.8 4.5.4l2.1-.7 1-1c.5-.2.8-.2 1.1.1 1 .8 2.3 2.1 3.2 3l-.5.4a10 10 0 0 1-4.9 3c-2.8.6-5.5.1-8.2-.6a10 10 0 0 1-4.8-3.2 9.6 9.6 0 0 1-2.6-7.9 10 10 0 0 1 5.3-8.3c3.5-1.7 7.2-1.7 10.8-.4a8 8 0 0 1 5.3 6.4c.2 1 .4 2.2.4 3.3 0 1 0 1.2-1.2 1.2h-14.7m46.7-12V24c0-.5.2-.8.7-.8h4.6l.3 6.4h6l.1 1.1v2c0 1-.1 1-1 1.1h-5.2l-.1.5v7.1c0 .7.1 1.4.3 2 .3 1.4 1.1 2 2.7 2.2h3.6l.1 2v1.9c-1 .5-2 .6-3 .7-1.4.2-3 .1-4.5-.2-2.3-.6-3.8-2-4.2-4.2-.3-1-.4-2.2-.5-3.3V34H145c-.2-.6-.3-3.5-.2-4 0-.4.4-.5.8-.5l2.4-.2"/>
    <path fill="#ACBEB9" d="M141.8 23.3v4.4c-1.7.3-3.3.3-5.1.2v-4c0-.4.3-.5.6-.5h4.5"/>
    <path fill="#924833" d="m27.2 26 1.4 1.1-.5 1.3c-.5 1.5-2 2.8-4.4 13l-.8 3.9c-.3 1.8-.8 3.6-1 5.4-.2 2.1-.2 4.2-.1 6.3a9 9 0 0 0 1.4 5 9 9 0 0 0 3 2.8 5 5 0 0 0 6.1-1.5c1.8-2.2 3.3-4.5 4.5-7.1 2.1-4 7-12.6 9.5-15.8 1.4-1.7 2.6-3.5 4.4-4.9 1.6-1.2 4.1-1.4 5.6 0 0 .2-.4.2-.5.2-2.5-.4-4.5 1-6 2.8-.6.9-5.6 6.9-11 17.5a30.4 30.4 0 0 1-5.8 9.1c-1.1 1-2.5 2-4 2-1.2 0-2-.4-3-.7a7.8 7.8 0 0 1-4.4-3.6 14 14 0 0 1-1.3-3.6c-.5-2.5-.4-5.1-.2-7.7 0-1.8.6-3.7.8-5.6.4-3 1.4-5.7 2-8.6.5-2 3.2-8.8 3.7-10.2l.6-1.2Z"/>
    <path fill="#924833" d="M52.6 40.2c.2-.8.9-1.1 1.5-1.4l.5 3.3c.3 3.1.7 6.3.5 9.4-.3 3.3 0 6.5-.3 9.7l-.2 6.3s-1 .2-1.6 0c-.2-1 0-2 0-3-.3-3.4.5-12.7.4-14-.3-2.7-.1-5.5-.5-8.2l-.3-2.1Z"/>
    <path fill="#9EAEF4" d="M31.5 55c-.6.4-.8-1.1.4-3.3 2-3.4 5.9-11.1 8.3-14.2 2.4-3 4.9-5 8.6-6.2.9-.2 1.6 0 2.4.2.1.1 0 .1-.1.2-1.7.4-2.7.8-4 1.7a26.6 26.6 0 0 0-7.7 8.3c-2.3 3.5-7.1 13-7.9 13.4Z"/>
    <path fill="#FDBE00" d="M49.6 43.5c.5-.6.9-1.3 1.6-1.9.4 1 .1 2.2.2 3.1 0 1.1.8 6.6.5 8.9-.7 4.6-.2 9.2-.5 14h-1.7v-8.4c0-2.6.3-5.2.3-7.9 0-2.4-.5-5.3-.4-7.8Z"/>
    <path fill="#9EAEF4" d="M46.7 48.6c.2-.9.8-1.8 1.3-2.5.4 1 .4 2.5.5 3.6 0 2 .2 4.1 0 6.2-.5 3.8-.5 7.7-.5 11.6-.6.2-1 .1-1.7 0v-3c-.3-4.4.7-8.7.5-13v-3ZM31 59.5c-.2.7-.8 1.2-1.3 1.6a3.9 3.9 0 0 1-3-2.6c-.5-1.4 0-3.7 0-5.5a75.9 75.9 0 0 1 3.8-17.6c.8-2 1.6-4 2-6.2.7.1 1.3.2 1.8.5-.7 2.8-1.9 5.4-2.6 8.1-.6 2-1.4 3.8-1.8 5.7-1 4.3-1.6 8.6-1.6 13 0 1.3 1 2.7 1.5 3 .6.3.8 0 1.2 0Z"/>
    <path fill="#FDBE00" d="M29.7 61.1c-1.7 1.7-2.7 1.2-3.8-.6-.8-1.3-1-5.5-.8-7.3.2-1.4.7-7 1.3-8.6l1.6-6.2 3-9 .1-.6c-.3-.5-.7-.8-1.3-1-.2.8-.6 1.6-1 2.3-.9 2.7-1.9 5.3-2.7 8a140 140 0 0 0-2.9 15.2c-.1 1.8 0 7 2.5 9.5 1.3 1.2 2.9 1.3 4.5.4 1.3-.8 2-2.5 2.7-3.6 1.1-1.8 5-9.2 6.2-11.1 1.1-2 2.2-4 3.4-5.8 1.1-1.5 2.2-3 3.6-4.4 1.2-1.3 2.4-2.7 4-3.7 1.2-.8 2.4-1.6 4-1.5.2 0 .2 0 .2-.2-.4-.4-1.2-.5-2.1-.5a5 5 0 0 0-3 1c-2.2 1-3.6 2.8-5.1 4.5-2.9 3-4.9 6.6-6.8 10.1-1.5 2.8-7 12.7-7.6 13.2Z"/>
    <path fill="#ACBEB9" d="M30.4 28.8c-2-1.1-4.5-4-4.5-4-.6 1.3-2.5 7-3.3 9-.8 2-1.4 4-2 6.1-.5 2.5-2 12.1-2 15 0 2.2 0 8.3 4.2 11.4 1.4 1.1 3 1.8 4.8 2 4 .6 6.3-1.6 8.4-4.3 2.3-3 3.8-6.6 5.6-9.9 1.6-3 6-10.1 6.5-10.8 1.3-1.9 2.5-4 4.4-5.4 1-1 2.2-1.6 3.8-1 .5.2.8.5 1 1 .5 1.2.6 2.5.8 3.8.3 2.8.3 5.7.3 8.5l-.6 17.3c-.6.2-1 .1-1.6 0-.2-.4.4-17.9.4-21.2 0-2 0-4-.4-6-.2-1.3-.3-2-1.8-1.5-1.4.6-2.4 2.2-3.2 3A76.3 76.3 0 0 0 45 52c-.2 3-.5 15.2-.5 15.5l-1.2.2c-.5-4 0-9.3 0-13.4A49.2 49.2 0 0 1 34.5 68a7.8 7.8 0 0 1-4.6 2c-3.6.4-8-2-9.2-3-.3-.2-6.9-4.8-8.5-11.5-.8-3.4-1.5-14.8-1.6-15.8 0-1.3-.3-5.5-4.2-7-.8-.2-2.2 0-2.6.6-.8 1.4-.8 2.3-2.1 2.5-1.9-.4-2.1-2.6-1.1-4.4 2-3.5 7.3-3.6 9.7-1.5 3.2 2.7 3.3 5.1 3.5 7.5.3 3 .2 5.2.3 8.2.8 14.1 3.8 15.8 4 16-3-4.3-.7-16.3.4-20.5.4-1.6.7-3.3 1.3-4.8 1.4-3.6 4.8-13.5 4.8-13.5-.5-1-1.7-3.7-1.2-6.6a5.8 5.8 0 0 1-3.1-7.1c1-4.7 5.2-5.8 7.8-3.8 1.2-1 6-7 15.5-4.6C54.8 3.4 53.2 14 53.2 14c5.7 0 4.6 4.6 4.4 5.4-.7 2.4-2.6 6.9-8.8 6-3.3 3.4-5.4 4.2-11 4.7a17 17 0 0 1-7.4-1.4Z"/>
    <path fill="#D5CDC2" d="m35 30-.3 1a98 98 0 0 0-5.4 19.2c-.3 2-.2 4 0 6 0 .8.6 1.4 1.3 2l1-1.9c-1.2-.7-.6-5.7-.4-7.3.1-1.3 3-6.2 4.3-8.4 2.1-3.5 4.4-6.5 8.4-8.9.8-.4 1.5-.7 3-1h.2c-.8-.5-2.1-.2-2.7-.1-2.5.7-3.8 1.2-5.6 3a36 36 0 0 0-3.6 4.6L32 43.4C33 40 35.7 33 36.9 30h-2Z"/>
  </symbol>
</svg>