<svg xmlns="http://www.w3.org/2000/svg" viewBox="0 0 109 48">
<symbol id="Teens">
  <path d="M33.46 38.63c-.69 0-1.43.16-2.02.45v-2.6h-1.8v6.36c0 2.15 1.3 2.95 3.55 2.95s3.56-.91 3.56-3.06v-1.11c0-1.7-.97-3-3.29-3v.01Zm1.6 4.2c0 1.25-.98 1.7-1.81 1.7-.84 0-1.81-.45-1.81-1.7v-1.25c0-1.24.97-1.7 1.8-1.7.84 0 1.82.46 1.82 1.7v1.26Zm9.37.72-2.66-6.97h-2.59v9.12h1.8v-5.44c0-.36-.01-.95-.05-1.34h.05l2.6 6.77h1.66l2.58-6.77h.05c-.03.4-.04.98-.04 1.34v5.44h1.8v-9.12h-2.55l-2.65 6.97Zm-24.76-.2v-6.86h-1.8v6.91c0 1.48.72 2.3 2.48 2.3h1.13v-1.32h-.73c-.78 0-1.08-.22-1.08-1.03Zm7.21-.51c0 1.25-.76 1.7-1.6 1.7-.83 0-1.58-.45-1.58-1.7v-4.1h-1.8v4.1c0 2.15 1.14 2.95 3.39 2.95s3.39-.8 3.39-2.95v-4.1h-1.8v4.1Zm27.17-4.2c-2.26 0-3.55 1.34-3.55 3.5v.27c0 2.08 1.24 3.39 3.64 3.39a4.9 4.9 0 0 0 3.3-1.09l-1.1-.87c-.76.51-1.32.7-2.18.7-1.06 0-1.92-.59-1.92-1.7v-.15h5.36v-.56c0-2.16-1.3-3.5-3.55-3.5Zm-1.8 2.98c0-1.27.96-1.77 1.8-1.77.83 0 1.81.5 1.81 1.77h-3.62Zm24.36 1.77-1.18 1.18 1.18 1.19 1.18-1.19zM12.8 37.72c1.12 0 1.92.5 2.24 1.6h1.92c-.34-1.63-1.79-2.83-4.17-2.83-2.74 0-4.29 1.62-4.29 4.14v1.24c0 2.43 1.5 3.93 4.29 3.93 2.38 0 3.82-1.2 4.17-2.83h-1.92c-.33 1.1-1.12 1.59-2.25 1.59-1.77 0-2.42-1.19-2.42-3v-.9c0-2 .88-2.93 2.42-2.93Z"/>
  <path d="M74.93 36.2c.65.72.98.3 1.5.1.42.8.59 4.42-2.15 5.5.08-3.63.12-7.53.12-7.53 0-.1-.1-.13-.16-.12-.75.1-2.08 1.43-3.12 2.56.57.94 1.28.1 1.85-.14 0 .16-.14 2.84-.07 5.58-2.82.2-2.37-5.57-2.2-6.31.07-.6-1.82.72-2.75 1.6.3.53.71.42 1.22.22-.18 2.59 1.63 4.95 3.74 4.9.07 2.66.35 5.26 1.12 5.44.1.03.19-2.7.25-5.74 5.07-1.59 3.14-7.69 3.14-7.69-.1-.34-.86.14-2.49 1.62Zm-11.19 2.88a4.8 4.8 0 0 0-2.03-.44c-2.32 0-3.29 1.29-3.29 2.99v1.1c0 2.16 1.3 3.07 3.56 3.07s3.55-.8 3.55-2.95v-6.36h-1.8v2.6Zm0 3.76c0 1.25-.98 1.7-1.81 1.7-.84 0-1.81-.45-1.81-1.7V41.6c0-1.25.97-1.7 1.8-1.7.84 0 1.82.46 1.82 1.7v1.25Zm38.1-30.96L95.41 11c-.1-.01-.2-.04-.28-.07a.1.1 0 0 1-.07-.03 1.07 1.07 0 0 1-.19-.08l-.02-.01h8.14c.56 0 .96-.14 1.22-.42l2.41-2.44h.02l.13-.17.04-.06.1-.2a1.25 1.25 0 0 0 .09-.33l.01-.08c.02-.12.02-.25.02-.38V1.57c0-1.1-.47-1.57-1.55-1.57h-12.1c-.37 0-.74.01-1.1.04a22.95 22.95 0 0 0-1.4.17c-.2.04-.4.07-.58.12l-.38.1c-.18.04-.35.1-.53.15l-.35.12a9.32 9.32 0 0 0-.8.34l-.46.25-.27.16c-.16.1-.31.22-.45.33l-.21.16c-.2.17-.4.35-.59.54l-2.41 2.43a6.57 6.57 0 0 0-1.65 3.04V1.6c0-.94-.4-1.35-1.34-1.35H75.3c-.12 0-.23 0-.34.03h-.06l-.23.06a.18.18 0 0 0-.05.03 1.2 1.2 0 0 0-.18.08l-.05.04a.92.92 0 0 0-.14.12l-2.42 2.44c-.25.22-.37.57-.37 1.06v2.6l-4.72-5.44c-.63-.74-1.23-1-2.2-1h-3.86c-.12 0-.23 0-.34.02l-.06.01-.22.05-.06.03a1.2 1.2 0 0 0-.17.08l-.06.04-.13.12-.02.01-2.37 2.39V1.4c0-.76-.34-1.1-1.09-1.1H42.14c-.1 0-.2.01-.28.03h-.05l-.18.05-.05.02a.52.52 0 0 0-.14.07l-.05.04a.84.84 0 0 0-.1.09l-.02.01-2.4 2.42V1.57c0-.14-.02-.26-.04-.38a1.02 1.02 0 0 0-.16-.37c-.17-.23-.45-.34-.88-.34H23.88a1.93 1.93 0 0 0-.5.07l-.05.02a.52.52 0 0 0-.14.07l-.05.04a.54.54 0 0 0-.1.1h-.01l-1.94 1.94V1.57c0-.31-.05-.54-.17-.72-.17-.25-.47-.36-.9-.36H4.18L3.9.5l-.05.02a.48.48 0 0 0-.18.04l-.05.02a.52.52 0 0 0-.18.1.84.84 0 0 0-.11.1h-.01L.9 3.22c-.2.18-.3.46-.3.86v3.66c0 .75.33 1.09 1.08 1.09H6.1v14.82c0 .75.33 1.09 1.08 1.09h4.86c.4 0 .68-.1.86-.3L15.32 22v-.01l.1-.1.03-.05.07-.14c0-.02.02-.03.03-.05l.04-.17v-.06c.02-.08.02-.17.02-.25V8.8h1.92c.4 0 .68-.1.86-.3l1.93-1.94v17.06c0 .76.33 1.1 1.08 1.1h13.92c.4 0 .67-.1.85-.31l2.4-2.42v1.63c0 .76.34 1.1 1.1 1.1h14c.4 0 .69-.1.87-.31l2.32-2.33v6.29c0 .94.4 1.35 1.34 1.35h5.58c.48 0 .83-.12 1.05-.37l2.42-2.43v-.01a.67.67 0 0 0 .12-.14l.04-.05a.8.8 0 0 0 .08-.18l.03-.06c.03-.06.04-.14.05-.21l.02-.08.02-.32v-6.82l3.87 4.72v4.6c0 .94.41 1.35 1.34 1.35h5.58c.49 0 .83-.11 1.05-.36l2.38-2.4.14-.15.03-.03-.02.4v5.08c0 1.1.48 1.57 1.55 1.57H97.2c3.13 0 5.57-.85 7.1-2.49l2.42-2.43.02-.03.25-.27a8 8 0 0 0 .61-.85c.07-.1.12-.21.17-.31l.17-.33c.04-.1.1-.22.13-.33a8 8 0 0 0 .14-.38l.1-.33.1-.43c.03-.11.06-.22.07-.33l.07-.52.04-.29c.02-.27.03-.54.03-.83v-4.59c0-4.88-2.68-6.62-6.74-7.22h-.03ZM12.66 24.19l-.01.02c-.1.13-.31.2-.62.2H7.18c-.57 0-.77-.2-.77-.78V8.5H1.7c-.57 0-.76-.19-.76-.77V4.07c0-.3.06-.51.19-.62l.01-.02 1.98-1.99v3.77c0 .75.32 1.1 1.07 1.1H8.6v14.81c0 .76.33 1.1 1.08 1.1h4.86l.12-.01-1.98 1.98h-.01Zm5.49-15.9-.01.01c-.11.13-.32.2-.62.2H15.6V6.3h4.53l-.04.04-1.94 1.94ZM29.5 6.17h8.38l-1.97 1.98a.46.46 0 0 1-.16.12l-.47.2h-5.77v-2.3l-.01.02Zm0 7.73 5.96-.01-1.98 1.99c-.1.13-.31.19-.62.19h-3.35v-2.2l-.01.03Zm6.42 10.28-.02.02c-.1.12-.3.19-.61.19h-13.9c-.57 0-.77-.2-.77-.77V6.18c.32-.15.47-.46.47-.96V3.17l1.71-1.73v19.68c0 .76.33 1.1 1.08 1.1h13.91l.12-.01-1.97 1.98h-.01Zm2.62-7.48-.02-.01a.9.9 0 0 0-.3-.15h-.03a1.78 1.78 0 0 0-.41-.05h-8.27v-.08h3.35c.4 0 .68-.1.86-.3a440.36 440.36 0 0 0 2.4-2.42l.1-.11.03-.05.07-.14.03-.05.04-.19v-.04c.02-.09.03-.18.03-.28V9.62c0-.13-.02-.24-.03-.33l-.02-.07a1.28 1.28 0 0 0-.1-.26.73.73 0 0 0-.15-.2l-.03-.02a.75.75 0 0 0-.2-.12h-.03a.7.7 0 0 0 .27-.2l2.38-2.4v10.74l.03-.05ZM47.8 6.05h8.46l-.03.02-1.95 1.96c-.04.06-.1.1-.17.13l-.55.22h-5.74V6.03l-.02.02Zm0 7.79 6.01-.01-.03.03-1.94 1.96c-.11.13-.32.19-.62.19h-3.4v-2.2l-.02.03Zm6.5 10.34h-.02v.02c-.11.13-.32.2-.62.2H39.64c-.57 0-.77-.2-.77-.79V17.6c0-.08 0-.15-.02-.22h.02V3.49l.22-.23 1.96-1.97v19.84c0 .76.33 1.1 1.09 1.1h14.01l.13-.01-1.98 1.98Zm2.53-7.57a.88.88 0 0 0-.27-.1l-.06-.03c-.1-.01-.22-.03-.35-.03h-8.33v-.11h3.4c.4 0 .68-.1.86-.3l2.53-2.58.07-.14c0-.02.02-.03.03-.05l.04-.18v-.06c.02-.09.02-.17.02-.28V9.5c0-.12 0-.23-.02-.34l-.02-.07a1.4 1.4 0 0 0-.09-.25v-.02a.75.75 0 0 0-.17-.2l-.04-.03a.9.9 0 0 0-.2-.12h-.02a75.2 75.2 0 0 0 2.54-2.48l.06-.05v10.68l.02-.01Zm7.75 12.51-.01.01c-.15.18-.42.26-.82.26h-5.57c-.76 0-1.03-.27-1.03-1.03v-6.73c.05-.14.08-.32.08-.53v-3.56c0-.2-.03-.38-.08-.53V5.5c.05-.15.08-.33.08-.54V3.45l.23-.23 1.88-1.9-.01.27v24.27c0 .94.4 1.35 1.34 1.35h5.57l.26-.01-1.92 1.93ZM71.77 6.7V4.1c0-.4.08-.68.25-.83h.01l1.93-1.94-.02.26v7.98l-2.18-2.5V6.7h.01Zm7.43 22.43-.01.01c-.15.18-.42.26-.82.26H72.8c-.75 0-1.02-.27-1.02-1.03v-4.73l-.07-.09-3.87-4.71-.24-.3V13.5l6.36 7.75v4.61c0 .94.4 1.35 1.34 1.35h5.57c.1 0 .17 0 .25-.02l-1.91 1.94ZM95.41 8.3h10.07c.14 0 .26 0 .38-.02l-1.88 1.9c-.19.21-.51.32-.99.32h-8.48a1.48 1.48 0 0 1-.26-.9c0-.77.43-1.3 1.17-1.3Zm-13.2.98.3-1.25c.28-1.14.8-2.11 1.56-2.89l1.18-1.19a8.17 8.17 0 0 0-.81 3.7v4.57c0 4.88 2.63 6.62 6.7 7.23l6.47.91c.74.09 1.12.48 1.12 1.48 0 .7-.39 1.26-1.12 1.26h-1.29l-.35-.25a1.67 1.67 0 0 0-.81-.3l-6.48-.9c-3.63-.55-5.54-1.98-6.18-4.64l-.3-1.28V9.27Zm0 7.8c.74 3.11 3.11 4.37 6.43 4.87l6.49.92c.27.02.48.1.66.23h-9.8c-.13 0-.26 0-.38.02l-.07.02a1.1 1.1 0 0 0-.26.06l-.07.02a.93.93 0 0 0-.25.15l-.17.13v.01a469.26 469.26 0 0 0-2.58 2.62v-9.06Zm21.84 14.04c-1.47 1.56-3.85 2.4-6.88 2.4H83.52c-.9 0-1.24-.34-1.24-1.25v-5.1c0-.12 0-.24.02-.35l.04-.3.12-.19c.04-.06 1.98-2.01 2-2.03-.02.12-.03.25-.03.39v5.08c0 1.1.48 1.57 1.56 1.57h13.65c2.12 0 3.91-.39 5.33-1.14l-.94.94.02-.02Z"/>
</symbol>
</svg>
