<svg xmlns="http://www.w3.org/2000/svg" fill="none" viewBox="0 0 30 30">
  <symbol id="Trident">
  <path fill="currentColor" d="m19.96 18.88-2.05 2.05 2.04 2.05L22 20.93l-2.04-2.05Zm1.41-15.15c-.15-.59-1.47.23-4.3 2.79 1.12 1.25 1.69.53 2.6.2.72 1.38 1 7.6-3.72 9.46a1255.68 1255.68 0 0 0 .17-13.06.22.22 0 0 0-.26-.11c-1.31.17-3.63 2.47-5.41 4.4.98 1.61 2.22.17 3.21-.24 0 .27-.24 4.89-.13 9.59-4.88.36-4.1-9.57-3.81-10.85.12-1.01-3.14 1.24-4.76 2.74.51.92 1.23.73 2.12.39-.32 4.46 2.82 8.5 6.48 8.42.12 4.59.6 9.05 1.94 9.36.17.05.32-4.65.42-9.87 8.8-2.72 5.44-13.22 5.44-13.22"/>
  </symbol>
</svg>