<svg xmlns='http://www.w3.org/2000/svg' viewBox='0 0 30 30' fill='none'>
<symbol id='Capacity'>
<path fill-rule="evenodd" clip-rule="evenodd" d="M16.8394 8.67C18.069 8.88 19.0687 9.85 19.3186 11.06H19.3486L19.6685 12.49C19.7884 13.03 19.4485 13.57 18.9087 13.69C18.8388 13.71 18.7588 13.71 18.6888 13.71C18.239 13.71 17.8191 13.4 17.7191 12.93L17.3992 11.48C17.3193 11.05 16.9694 10.71 16.5395 10.64C15.9897 10.54 15.6298 10.03 15.7198 9.48C15.7498 9.33 15.8098 9.2 15.8898 9.08L15.8998 9.07C15.6099 9.16 15.31 9.22 15.0001 9.22C14.6902 9.22 14.3903 9.16 14.1104 9.08C14.1903 9.19 14.2503 9.33 14.2803 9.48C14.3703 10.03 14.0004 10.55 13.4606 10.64C13.0307 10.72 12.6908 11.05 12.6009 11.48L12.281 12.93C12.181 13.39 11.7712 13.71 11.3113 13.71C11.2413 13.71 11.1614 13.71 11.0914 13.69C10.5516 13.56 10.2117 13.03 10.3317 12.49L10.6515 11.06C10.8915 9.85 11.8911 8.88 13.1307 8.67H13.2307C12.4109 8.1 11.8811 7.17 11.8811 6.11C11.8811 4.4 13.2806 3 14.9901 3C16.6995 3 18.099 4.39 18.099 6.11C18.099 7.17 17.5592 8.11 16.7495 8.67H16.8394ZM13.8604 6.12C13.8604 6.73 14.3603 7.23 14.9701 7.23C15.5799 7.23 16.0797 6.73 16.0797 6.12C16.0797 5.51 15.5799 5.01 14.9701 5.01C14.3603 5.01 13.8604 5.51 13.8604 6.12ZM12.011 24.35C11.7611 23.14 10.7614 22.17 9.53187 21.96H9.4419C10.2516 21.4 10.7914 20.46 10.7914 19.4C10.7914 17.68 9.39191 16.29 7.68249 16.29C5.97308 16.29 4.57355 17.69 4.57355 19.4C4.57355 20.46 5.10337 21.39 5.92309 21.96H5.82313C4.58355 22.17 3.58389 23.14 3.34397 24.35L3.02408 25.78C2.90412 26.32 3.24401 26.85 3.78382 26.98C3.8538 27 3.93377 27 4.00375 27C4.46359 27 4.87345 26.68 4.97342 26.22L5.29331 24.77C5.38328 24.34 5.72316 24.01 6.15302 23.93C6.69283 23.84 7.06271 23.32 6.97274 22.77C6.94275 22.62 6.88277 22.48 6.80279 22.37C7.0827 22.45 7.3826 22.51 7.69249 22.51C8.00239 22.51 8.30228 22.45 8.59218 22.36L8.58219 22.37C8.50221 22.49 8.44223 22.62 8.41225 22.77C8.32228 23.32 8.68215 23.83 9.23197 23.93C9.66182 24 10.0117 24.34 10.0917 24.77L10.4116 26.22C10.5115 26.69 10.9314 27 11.3812 27C11.4512 27 11.5312 27 11.6012 26.98C12.141 26.86 12.4809 26.32 12.3609 25.78L12.041 24.35H12.011ZM7.6625 20.52C7.05271 20.52 6.55288 20.02 6.55288 19.41C6.55288 18.8 7.05271 18.3 7.6625 18.3C8.27229 18.3 8.77212 18.8 8.77212 19.41C8.77212 20.02 8.27229 20.52 7.6625 20.52ZM26.626 24.35C26.3761 23.14 25.3765 22.17 24.1469 21.96H24.0569C24.8666 21.4 25.4065 20.46 25.4065 19.4C25.4065 17.68 24.0069 16.29 22.2975 16.29C20.5881 16.29 19.1886 17.69 19.1886 19.4C19.1886 20.46 19.7184 21.39 20.5381 21.96H20.4381C19.1986 22.17 18.1989 23.14 17.959 24.35L17.6391 25.78C17.5191 26.32 17.859 26.85 18.3988 26.98C18.4688 27 18.5488 27 18.6188 27C19.0786 27 19.4885 26.68 19.5884 26.22L19.9083 24.77C19.9983 24.34 20.3382 24.01 20.768 23.93C21.3078 23.84 21.6777 23.32 21.5878 22.77C21.5578 22.62 21.4978 22.48 21.4178 22.37C21.6977 22.45 21.9976 22.51 22.3075 22.51C22.6174 22.51 22.9173 22.45 23.2072 22.36L23.1972 22.37C23.1172 22.49 23.0573 22.62 23.0273 22.77C22.9373 23.32 23.2972 23.83 23.847 23.93C24.2768 24 24.6267 24.34 24.7067 24.77L25.0266 26.22C25.1265 26.69 25.5464 27 25.9963 27C26.0662 27 26.1462 27 26.2162 26.98C26.756 26.86 27.0959 26.32 26.9759 25.78L26.656 24.35H26.626ZM22.2775 20.52C21.6677 20.52 21.1679 20.02 21.1679 19.41C21.1679 18.8 21.6677 18.3 22.2775 18.3C22.8873 18.3 23.3871 18.8 23.3871 19.41C23.3871 20.02 22.8873 20.52 22.2775 20.52Z" fill="currentcolor"/>
</symbol>
</svg>
