<svg xmlns='http://www.w3.org/2000/svg' viewBox='0 0 30 30' fill='none'>
<symbol id='Cough'>
<path fill-rule="evenodd" clip-rule="evenodd" d="M25.2327 16.5L23.5923 14.17C22.8495 13.11 21.89 12.21 20.7964 11.49C21.0852 10.78 21.2503 10.01 21.2503 9.21C21.2503 5.78 18.3718 3 14.8433 3C11.3149 3 8.43638 5.79 8.43638 9.21C8.43638 9.38 8.4467 9.56 8.46733 9.73L7.79672 9.46C7.08483 9.19 6.32136 9.21 5.63011 9.51C4.93886 9.82 4.423 10.37 4.16508 11.06C3.7008 12.35 4.2992 13.77 5.56821 14.37L5.85709 14.51C4.68093 15.8 4 17.47 4 19.22V26C4 26.55 4.46427 27 5.03172 27C5.59916 27 6.06343 26.55 6.06343 26V19.22C6.06343 17.78 6.71342 16.4 7.80704 15.44L19.8781 21.15V26C19.8781 26.55 20.3424 27 20.9098 27C21.4773 27 21.9416 26.55 21.9416 26V21.94L21.9694 21.9445C22.1449 21.9729 22.312 22 22.4884 22C23.6336 22 24.7581 21.46 25.4184 20.48C26.2645 19.24 26.1716 17.57 25.2431 16.51L25.2327 16.5ZM10.4998 9.21C10.4998 6.89 12.4498 5 14.8433 5C17.2369 5 19.1869 6.89 19.1869 9.21C19.1869 10.87 18.2067 12.32 16.6798 13.02L10.7681 10.66C10.5927 10.2 10.4895 9.72 10.4895 9.22L10.4998 9.21ZM23.6955 19.37C23.2931 19.95 22.509 20.16 21.859 19.86L6.4658 12.58C6.14597 12.43 5.99121 12.06 6.1047 11.74C6.16661 11.56 6.30073 11.42 6.47612 11.34C6.65151 11.26 6.84754 11.26 7.01261 11.32L19.6718 16.38C20.198 16.59 20.7964 16.35 21.0233 15.84C21.24 15.33 20.9924 14.74 20.4662 14.53L18.9908 13.94C19.2694 13.72 19.517 13.47 19.744 13.21C20.5797 13.77 21.3122 14.48 21.89 15.3L23.5923 17.71C23.9947 18.18 24.0359 18.86 23.6852 19.37H23.6955ZM11.3975 17.44C10.9951 17.05 10.3451 17.05 9.94276 17.44L9.34437 18.02C8.942 18.41 8.942 19.04 9.34437 19.43C9.55071 19.63 9.80864 19.72 10.0769 19.72C10.3451 19.72 10.6031 19.62 10.8094 19.43L11.4078 18.85C11.8102 18.46 11.8102 17.83 11.4078 17.44H11.3975ZM12.0578 19.57C12.2125 19.04 12.78 18.72 13.3268 18.87C13.8736 19.02 14.2037 19.57 14.049 20.1L13.7188 21.27C13.595 21.72 13.1823 22.01 12.7284 22.01C12.6355 22.01 12.5427 21.99 12.4498 21.97C11.903 21.82 11.5728 21.27 11.7276 20.74L12.0578 19.57ZM16.0195 19.8101C15.4521 19.8101 14.9878 20.2601 14.9878 20.8101V21.8801C14.9878 22.4301 15.4521 22.8801 16.0195 22.8801C16.587 22.8801 17.0512 22.4301 17.0512 21.8801V20.8101C17.0512 20.2601 16.587 19.8101 16.0195 19.8101ZM7.0745 19.7002C7.0745 19.1502 7.53877 18.7002 8.10621 18.7002C8.67366 18.7002 9.13793 19.1502 9.13793 19.7002V26.0002C9.13793 26.5502 8.67366 27.0002 8.10621 27.0002C7.53877 27.0002 7.0745 26.5502 7.0745 26.0002V19.7002Z" fill="currentcolor"/>
</symbol>
</svg>
