<svg xmlns='http://www.w3.org/2000/svg' viewBox='0 0 30 30' fill='none'>
<symbol id='DigitalTools'>
<path fill-rule="evenodd" clip-rule="evenodd" d="M10.6429 3H19.3571C21.0352 3 22.4 4.35 22.4 6.01V23.99C22.4 25.65 21.0352 27 19.3571 27H10.6429C8.96473 27 7.59998 25.65 7.59998 23.99V6.01C7.59998 4.35 8.96473 3 10.6429 3ZM20.3781 8.52H9.62183V20.02H20.3781V8.52ZM19.3571 5H10.6429C10.0768 5 9.62183 5.45 9.62183 6.01V6.52H20.3781V6.01C20.3781 5.45 19.9232 5 19.3571 5ZM10.6429 25H19.3571C19.9232 25 20.3781 24.55 20.3781 23.99V22.02H9.62183V23.99C9.62183 24.55 10.0768 25 10.6429 25ZM16.2333 13.1899H17.9721C18.2652 13.1899 18.5079 13.4299 18.5079 13.7199V15.1199C18.5079 15.4099 18.2652 15.6499 17.9721 15.6499H16.2333V17.3699C16.2333 17.6599 15.9906 17.8999 15.6975 17.8999H14.2822C13.989 17.8999 13.7464 17.6599 13.7464 17.3699V15.6499H12.0076C11.7144 15.6499 11.4718 15.4099 11.4718 15.1199V13.7199C11.4718 13.4299 11.7144 13.1899 12.0076 13.1899H13.7464V11.4699C13.7464 11.1799 13.989 10.9399 14.2822 10.9399H15.6975C15.9906 10.9399 16.2333 11.1799 16.2333 11.4699V13.1899Z" fill="currentcolor"/>
</symbol>
</svg>
