<svg xmlns='http://www.w3.org/2000/svg' viewBox='0 0 30 30' fill='none'>
<symbol id='Disinfection'>
<path fill-rule="evenodd" clip-rule="evenodd" d="M17.547 10.1C17.547 11.92 18.1049 13.54 19.2207 14.92L19.2104 14.91C21.0081 17.13 22 20.04 22 23.1V25.06C22 26.13 21.1011 27 19.9956 27H10.0048C9.4675 27 8.94058 26.78 8.56864 26.41C8.18636 26.04 7.99006 25.54 8.00039 25.02C8.21735 15.81 11.5442 10.98 12.5154 9.75V9.47C12.5154 8.41 11.6269 7.55 10.5317 7.55C9.96343 7.55 9.4985 7.1 9.4985 6.55V4C9.4985 3.45 9.96343 3 10.5317 3H19.0451C19.572 3 19.9956 3.39 20.0576 3.88C20.2333 3.74 20.4502 3.65 20.6982 3.65C21.2664 3.65 21.7314 4.1 21.7314 4.65V6.16C21.7314 6.71 21.2664 7.16 20.6982 7.16C20.4709 7.16 20.2643 7.07 20.0886 6.94V7.04C20.0886 7.59 19.6237 8.04 19.0554 8.04H18.4665C18.8695 8.39 19.4687 8.69 20.3676 8.69C20.9358 8.69 21.4008 9.14 21.4008 9.69C21.4008 10.24 20.9358 10.69 20.3676 10.69C19.1794 10.69 18.2599 10.34 17.547 9.86V10.1ZM11.5752 5V5.68H11.5855C13.1973 6.1 14.4268 7.45 14.5818 9.1H15.4806V7.65C15.4806 6.76 16.2245 6.04 17.144 6.04H18.0222V5H11.5752ZM14.0548 11.1C13.1663 12.29 10.2631 16.76 10.0668 25.07L19.9956 25L19.9336 23.11C19.9336 20.49 19.0968 18.02 17.5883 16.15C16.3898 14.67 15.6976 12.98 15.5219 11.1H14.0548ZM13.7346 18.8901V17.1701C13.7346 16.8801 13.9825 16.6401 14.2822 16.6401H15.7286C16.0282 16.6401 16.2762 16.8801 16.2762 17.1701V18.8901H18.0533C18.3529 18.8901 18.6009 19.1301 18.6009 19.4201V20.8201C18.6009 21.1101 18.3529 21.3501 18.0533 21.3501H16.2762V23.0701C16.2762 23.3601 16.0282 23.6001 15.7286 23.6001H14.2822C13.9825 23.6001 13.7346 23.3601 13.7346 23.0701V21.3501H11.9575C11.6579 21.3501 11.4099 21.1101 11.4099 20.8201V19.4201C11.4099 19.1301 11.6579 18.8901 11.9575 18.8901H13.7346Z" fill="currentcolor"/>
</symbol>
</svg>
