<svg xmlns='http://www.w3.org/2000/svg' viewBox='0 0 30 30' fill='none'>
<symbol id='Doctor'>
<path d="M25.0232 21.2876V18.5265C25.0232 16.3055 23.207 14.4948 20.9793 14.4948C18.7517 14.4948 16.9354 16.3055 16.9354 18.5265V19.0767C16.9354 20.6974 15.6109 22.0179 13.9853 22.0179C12.3597 22.0179 11.0352 20.6974 11.0352 19.0767V16.1755H11.3362C13.5839 16.1755 15.4905 14.5748 15.8818 12.3639L16.9756 6.15131C17.116 5.37099 16.8953 4.57065 16.3835 3.9604C15.8718 3.35015 15.1192 3 14.3265 3H13.8348C13.2829 3 12.8313 3.45019 12.8313 4.00042C12.8313 4.55065 13.2829 5.00083 13.8348 5.00083H14.3265C14.6074 5.00083 14.778 5.1509 14.8483 5.24093C14.9285 5.33097 15.049 5.52105 14.9988 5.80117L13.905 12.0038C13.6843 13.2543 12.6005 14.1546 11.3362 14.1546H8.67706C7.40269 14.1546 6.329 13.2443 6.10824 12.0038L5.01448 5.80117C4.96431 5.53105 5.08472 5.34098 5.165 5.24093C5.24528 5.1509 5.41586 5.00083 5.68679 5.00083H6.17848C6.73038 5.00083 7.18193 4.55065 7.18193 4.00042C7.18193 3.45019 6.73038 3 6.17848 3H5.68679C4.89407 3 4.14148 3.35015 3.62973 3.9604C3.11797 4.57065 2.90725 5.37099 3.03769 6.15131L4.13145 12.3539C4.52279 14.5648 6.42934 16.1655 8.67706 16.1655H9.02827V19.0667C9.02827 21.7978 11.2559 24.0088 13.9853 24.0088C16.7147 24.0088 18.9423 21.7878 18.9423 19.0667V18.5165C18.9423 17.396 19.8555 16.4856 20.9793 16.4856C22.1032 16.4856 23.0163 17.396 23.0163 18.5165V21.2876C21.8925 21.7078 21.0797 22.7782 21.0797 24.0488C21.0797 25.6795 22.4142 27 24.0398 27C25.6654 27 27 25.6694 27 24.0488C27 22.7582 26.1671 21.6778 25.0132 21.2676L25.0232 21.2876ZM24.0499 25.0192C23.518 25.0192 23.0966 24.589 23.0966 24.0688C23.0966 23.5486 23.5281 23.1184 24.0499 23.1184C24.5717 23.1184 25.0031 23.5486 25.0031 24.0688C25.0031 24.589 24.5717 25.0192 24.0499 25.0192Z" fill="currentcolor"/>
</symbol>
</svg>
