<svg xmlns='http://www.w3.org/2000/svg' viewBox='0 0 30 30' fill='none'>
<symbol id='Gloves'>
<path d="M23.4468 25.1108V9.33736C23.4468 8.07788 22.4107 7.04831 21.1433 7.04831C21.0427 7.04831 20.9421 7.0683 20.8516 7.0783C20.8415 5.82882 19.8156 4.80925 18.5482 4.80925C18.4274 4.80925 18.3168 4.82924 18.2062 4.83923C17.9949 3.78967 17.0595 3 15.9429 3C14.8264 3 13.901 3.78967 13.6797 4.83923C13.5691 4.81924 13.4584 4.80925 13.3478 4.80925C12.0804 4.80925 11.0443 5.83882 11.0443 7.09829V14.0254L10.3603 13.2957C9.43491 12.3061 7.89592 12.2162 6.86992 13.1058C5.86405 13.9654 5.71316 15.4548 6.50781 16.5044L9.52544 20.4827C10.1491 21.3024 10.4911 22.312 10.4911 23.3415V25.1808C10.2195 25.3607 10.0284 25.6506 10.0284 26.0004C10.0284 26.5502 10.481 27 11.0343 27H22.9941C23.5474 27 24 26.5502 24 26.0004C24 25.6106 23.7686 25.2907 23.4468 25.1208V25.1108ZM8.10715 15.2849C7.94621 15.075 7.97639 14.7751 8.17756 14.6052C8.3888 14.4252 8.69056 14.4452 8.88168 14.6451L12.9354 18.9833C13.3176 19.3832 13.9513 19.4132 14.3536 19.0333C14.7661 18.6535 14.7862 18.0237 14.4039 17.6239L13.046 16.1745V7.09829C13.046 6.93836 13.1768 6.80841 13.3377 6.80841C13.4886 6.80841 13.6093 6.92836 13.6194 7.0783V8.2878C13.6194 8.2878 13.6194 8.31778 13.6194 8.33778V14.945C13.6194 15.4948 14.072 15.9446 14.6252 15.9446C15.1785 15.9446 15.6311 15.4948 15.6311 14.945V7.10829C15.6311 7.10829 15.6311 7.04831 15.6311 7.00833V5.29904C15.6311 5.13911 15.7619 5.00916 15.9228 5.00916C16.0838 5.00916 16.2145 5.13911 16.2145 5.29904V14.965C16.2145 15.5148 16.6672 15.9646 17.2204 15.9646C17.7736 15.9646 18.2263 15.5148 18.2263 14.965V7.10829C18.2263 6.94835 18.357 6.81841 18.518 6.81841C18.6789 6.81841 18.8097 6.94835 18.8097 7.10829V14.955C18.8097 15.5048 19.2623 15.9546 19.8156 15.9546C20.3688 15.9546 20.8214 15.5048 20.8214 14.955V9.34736C20.8214 9.18742 20.9522 9.05748 21.1131 9.05748C21.2741 9.05748 21.4048 9.18742 21.4048 9.34736V25.0008H12.4727V23.3415C12.4727 21.8821 11.9898 20.4427 11.1047 19.2732L8.08703 15.2949L8.10715 15.2849Z" fill="currentcolor"/>
</symbol>
</svg>
