<svg xmlns='http://www.w3.org/2000/svg' viewBox='0 0 30 30' fill='none'>
<symbol id='SafeSpa'>
<path fill-rule="evenodd" clip-rule="evenodd" d="M22.5999 6.18397L26.4199 12.816C27.1999 14.1685 27.1999 15.8415 26.4199 17.184L22.5999 23.816C21.8299 25.1685 20.3799 26 18.8299 26H11.1799C9.62988 26 8.18988 25.1585 7.40988 23.816L3.58988 17.184C2.80988 15.8315 2.80988 14.1585 3.58988 12.816L7.40988 6.18397C8.17988 4.84153 9.62988 4 11.1799 4H18.8299C20.3799 4 21.8199 4.84153 22.5999 6.18397ZM20.8699 22.8142L24.6899 16.1821C25.1099 15.4508 25.1099 14.5492 24.6899 13.8179L20.8699 7.18579C20.4499 6.45446 19.6699 6.00364 18.8299 6.00364H11.1799C10.3399 6.00364 9.55988 6.45446 9.13988 7.18579L5.31988 13.8179C4.89988 14.5492 4.89988 15.4508 5.31988 16.1821L9.13988 22.8142C9.55988 23.5455 10.3399 23.9964 11.1799 23.9964H18.8299C19.6699 23.9964 20.4499 23.5455 20.8699 22.8142ZM22.0002 12.9061C22.0302 13.0163 22.0502 13.1165 22.0502 13.2267L22.0402 13.2367C22.1002 13.8679 22.2002 16.4225 20.3202 18.306C18.4502 20.1794 15.7002 20.2896 15.0802 20.2896H15.0402H14.9902C14.9652 20.2896 14.9402 20.2871 14.9152 20.2845C14.8902 20.282 14.8652 20.2795 14.8402 20.2795C14.1102 20.2695 11.4702 20.1092 9.66016 18.2959C7.77016 16.4025 7.88016 13.8278 7.94016 13.2167C7.94016 13.1065 7.96016 12.9963 8.00016 12.8961C8.01016 12.8761 8.02015 12.846 8.03015 12.816L8.03016 12.816C8.14016 12.5655 8.35016 12.3652 8.62016 12.275C8.74016 12.2349 8.86016 12.2249 8.98016 12.2249C9.21016 12.1948 9.62016 12.1848 10.1302 12.2249C10.3602 11.4435 10.6902 10.8724 10.8402 10.622C10.8902 10.5318 10.9402 10.4517 11.0102 10.3815C11.1602 10.2112 11.3502 10.101 11.5602 10.0409C11.6702 10.0109 11.7902 10.0009 11.9102 10.0009C12.0602 10.0109 12.2102 10.0409 12.3402 10.101C12.5802 10.1812 13.0402 10.3715 13.5802 10.6821C13.8802 10.3515 14.1502 10.101 14.2902 9.99083C14.3702 9.91069 14.4602 9.85058 14.5602 9.80049C14.7102 9.73036 14.8602 9.70031 15.0202 9.70031C15.1702 9.70031 15.3202 9.73036 15.4502 9.80049C15.5502 9.85058 15.6302 9.91069 15.7102 9.99083C15.8502 10.101 16.1102 10.3415 16.4002 10.6721C16.9602 10.3515 17.4402 10.1611 17.6602 10.081C17.7802 10.0309 17.9102 9.99083 18.0402 9.99083H18.1302C18.4502 9.99083 18.7602 10.1311 18.9802 10.3715C19.0602 10.4617 19.1202 10.5619 19.1702 10.6621C19.3402 10.9225 19.6402 11.4835 19.8602 12.2149C20.4202 12.1748 20.8502 12.1948 21.0602 12.2149C21.1702 12.2149 21.2702 12.2349 21.3702 12.265C21.5502 12.3251 21.7002 12.4353 21.8202 12.5755C21.9002 12.6757 21.9602 12.7859 22.0002 12.9061ZM15.0002 17.7249C15.4902 17.0437 16.0702 15.9917 16.0702 14.7996C16.0702 13.6074 15.4802 12.6657 15.0002 12.1047C14.5202 12.6657 13.9302 13.6074 13.9302 14.7996C13.9302 15.9917 14.5102 17.0437 15.0002 17.7249ZM9.94098 14.2186C10.0023 14.9596 10.244 16.0356 11.0802 16.8733C11.5802 17.3743 12.1802 17.6848 12.7602 17.8952C12.3102 17.0537 11.9402 16.0218 11.9302 14.8497C11.2405 14.4291 10.4909 14.2588 9.94098 14.2186ZM17.2302 17.9052C17.8102 17.6948 18.4202 17.3743 18.9102 16.8834C19.7502 16.0318 19.9902 14.9599 20.0502 14.2185C19.5002 14.2686 18.7502 14.4289 18.0602 14.8597C18.0502 16.0218 17.6802 17.0637 17.2302 17.9052Z" fill="currentcolor"/>
</symbol>
</svg>
