<svg xmlns='http://www.w3.org/2000/svg' viewBox='0 0 30 30' fill='none'>
<symbol id='Soap'>
<path fill-rule="evenodd" clip-rule="evenodd" d="M14.8863 5.05C14.8563 5.02 14.7666 5 14.7666 5H11.7166V7.78H13.9294C14.8663 7.78 15.6537 8.49 15.7534 9.42L17.418 24.97C17.4778 25.48 17.3083 26 16.9595 26.39C16.6106 26.78 16.1122 27 15.5939 27H5.83585C5.31754 27 4.81917 26.78 4.47031 26.39C4.12146 26.01 3.95201 25.49 4.01181 24.97L5.67637 9.42C5.77604 8.49 6.56347 7.78 7.50041 7.78H9.71317V5H7.30106C6.75285 5 6.30432 4.55 6.30432 4C6.30432 3.45 6.75285 3 7.30106 3H14.7766C15.3547 3 15.893 3.23 16.3016 3.64L17.4578 4.8C17.8466 5.19 17.8466 5.82 17.4578 6.21C17.2585 6.4 17.0093 6.5 16.7502 6.5C16.491 6.5 16.2418 6.4 16.0425 6.21L14.8863 5.05ZM5.99533 25H15.3747L13.75 9.78H7.62001L5.99533 25ZM24.485 11.7702C24.485 10.8902 23.7773 10.1802 22.9001 10.1802C22.023 10.1802 21.3153 10.8902 21.3153 11.7702C21.3153 12.6502 22.023 13.3602 22.9001 13.3602C23.7773 13.3602 24.485 12.6502 24.485 11.7702ZM26 5.51998C26 6.22998 25.4219 6.80998 24.7142 6.80998C24.0065 6.80998 23.4284 6.22998 23.4284 5.51998C23.4284 4.80998 24.0065 4.22998 24.7142 4.22998C25.4219 4.22998 26 4.80998 26 5.51998ZM20.1092 9.23006C20.777 9.23006 21.3153 8.69006 21.3153 8.02006C21.3153 7.35006 20.777 6.81006 20.1092 6.81006C19.4414 6.81006 18.9032 7.35006 18.9032 8.02006C18.9032 8.69006 19.4414 9.23006 20.1092 9.23006Z" fill="currentcolor"/>
</symbol>
</svg>
