<svg xmlns='http://www.w3.org/2000/svg' viewBox='0 0 30 30' fill='none'>
<symbol id='Solution'>
<path fill-rule="evenodd" clip-rule="evenodd" d="M19.0847 5.05C19.0542 5.02 18.9629 5 18.9629 5H15.8573V7.78H18.1104C19.0644 7.78 19.8662 8.49 19.9676 9.42L21.6625 24.97C21.7234 25.48 21.5509 26 21.1957 26.39C20.8405 26.78 20.333 27 19.8053 27H9.86931C9.34156 27 8.83411 26.78 8.47889 26.39C8.12367 26.01 7.95114 25.49 8.01203 24.97L9.70693 9.42C9.80842 8.49 10.6102 7.78 11.5642 7.78H13.8173V5H11.3612C10.803 5 10.3463 4.55 10.3463 4C10.3463 3.45 10.803 3 11.3612 3H18.973C19.5617 3 20.1097 3.23 20.5258 3.64L21.7031 4.8C22.099 5.19 22.099 5.82 21.7031 6.21C21.5002 6.4 21.2464 6.5 20.9826 6.5C20.7187 6.5 20.465 6.4 20.262 6.21L19.0847 5.05ZM10.0418 25H19.5921L17.9378 9.78H11.6961L10.0418 25ZM13.6346 17.14V15.5C13.6346 15.23 13.8579 15 14.1421 15H15.4919C15.7659 15 15.9994 15.22 15.9994 15.5V17.14H17.6638C17.9378 17.14 18.1713 17.36 18.1713 17.64V18.97C18.1713 19.24 17.948 19.47 17.6638 19.47H15.9994V21.11C15.9994 21.38 15.7761 21.61 15.4919 21.61H14.1421C13.8681 21.61 13.6346 21.39 13.6346 21.11V19.47H11.9702C11.6962 19.47 11.4627 19.25 11.4627 18.97V17.64C11.4627 17.37 11.686 17.14 11.9702 17.14H13.6346Z" fill="currentcolor"/>
</symbol>
</svg>
