<svg xmlns='http://www.w3.org/2000/svg' viewBox='0 0 30 30' fill='none'>
<symbol id='TemperatureCheck'>
<path fill-rule="evenodd" clip-rule="evenodd" d="M20.2397 7.95719C20.4293 8.12713 20.6688 8.21709 20.9083 8.21709V8.2071H20.9881C21.2675 8.17711 21.517 8.04716 21.6867 7.83724L24.2813 4.61848C24.6206 4.18865 24.5608 3.56889 24.1316 3.21903C23.7025 2.87916 23.0738 2.93913 22.7345 3.36897L20.7985 5.76804L19.6808 4.75843C19.2716 4.38857 18.6429 4.41856 18.2737 4.8284C17.9045 5.23824 17.9344 5.868 18.3435 6.23786L20.2397 7.95719ZM16.1481 15.1846V7.0877C16.1481 4.83857 14.3318 3.00927 12.0865 3.00927C9.84107 3.00927 8.04477 4.83857 8.04477 7.0877V15.1846C6.43807 16.4341 5.5 18.3433 5.5 20.3926C5.5 24.0411 8.46391 27 12.0964 27C15.729 27 18.6929 24.0311 18.6929 20.3926C18.6929 18.3433 17.7548 16.4341 16.1481 15.1846ZM12.0964 25.0008C9.56165 25.0008 7.4959 22.9316 7.4959 20.3926C7.4959 18.8332 8.27429 17.3937 9.59159 16.534C9.87101 16.3541 10.0407 16.0342 10.0407 15.6944V7.0877C10.0407 5.93814 10.9588 5.0085 12.1064 5.0085C13.2541 5.0085 14.1522 5.93814 14.1522 7.0877V15.6944C14.1522 16.0342 14.3219 16.3441 14.6013 16.534C15.9086 17.3937 16.697 18.8332 16.697 20.3926C16.697 22.9316 14.6312 25.0008 12.0964 25.0008ZM13.0944 17.104V7.20785C13.0944 6.65806 12.6453 6.20823 12.0964 6.20823C11.5475 6.20823 11.0985 6.65806 11.0985 7.20785V17.104C9.7213 17.5339 8.72335 18.8034 8.72335 20.3128C8.72335 22.1821 10.2402 23.6915 12.0964 23.6915C13.9526 23.6915 15.4695 22.1721 15.4695 20.3128C15.4695 18.8034 14.4616 17.5239 13.0944 17.104ZM12.0964 21.7022C11.338 21.7022 10.7192 21.0825 10.7192 20.3228C10.7192 19.5631 11.338 18.9433 12.0964 18.9433C12.8549 18.9433 13.4736 19.5631 13.4736 20.3228C13.4736 21.0825 12.8549 21.7022 12.0964 21.7022Z" fill="currentcolor"/>
</symbol>
</svg>
