<svg xmlns='http://www.w3.org/2000/svg' viewBox='0 0 30 30' fill='none'>
<symbol id='Badminton'>
<path fill-rule="evenodd" clip-rule="evenodd" d="M19.4068 16.3159C18.1754 16.3159 17.034 15.9561 16.0829 15.3065L16.0929 15.3264L12.1783 19.2343V20.6835C12.1783 20.9533 12.0782 21.2032 11.888 21.3931L11.5376 21.7429L6.72188 26.5403C6.42153 26.8501 6.02106 27 5.62059 27C5.22012 27 4.81964 26.8401 4.51929 26.5403L3.45804 25.4808C2.84732 24.8712 2.84732 23.8817 3.45804 23.2721L7.54285 19.1743C7.5698 19.1407 7.60582 19.1206 7.6448 19.0989C7.66375 19.0884 7.68339 19.0775 7.70304 19.0644C7.73308 19.0044 7.80316 18.9045 7.80316 18.9045L8.6041 18.1049C8.79433 17.925 9.04462 17.8151 9.31494 17.8151H10.7667L14.6813 13.9072C12.9893 11.4386 13.4698 7.78061 15.9628 5.29198C17.2843 3.97271 18.9763 3.16316 20.7184 3.02324C22.5205 2.87332 24.1724 3.453 25.3638 4.64234C27.7767 7.05101 27.4863 11.2587 24.7131 14.0272C23.3915 15.3464 21.6995 16.156 19.9575 16.2959C19.7673 16.3159 19.587 16.3159 19.4068 16.3159ZM20.8686 5.00214C19.5971 5.11208 18.3456 5.71175 17.3644 6.69121C15.3721 8.68011 15.0817 11.6285 16.7137 13.2576C17.4846 14.0272 18.5658 14.397 19.7873 14.297C21.0588 14.1871 22.3103 13.5874 23.2914 12.6079C25.2838 10.619 25.5741 7.67067 23.9422 6.04157C23.2514 5.35195 22.3103 4.98215 21.249 4.98215C21.1276 4.98215 21.0149 4.99085 20.8946 5.00014L20.8686 5.00214ZM9.04462 20.4136C9.01459 20.4636 8.9445 20.5636 8.9445 20.5636L8.96453 20.5536L5.18007 24.3515L5.62059 24.7912L9.54521 20.8734L10.176 20.2437V19.794H9.72542L9.21482 20.3037C9.18281 20.3356 9.14671 20.3553 9.10914 20.3758C9.08794 20.3874 9.06628 20.3992 9.04462 20.4136ZM25.484 20.3536L26.9357 24.2015V24.2114C27.0458 24.5113 27.0158 24.8411 26.8356 25.1109L25.8945 26.5402C25.7243 26.8 25.4439 26.9699 25.1336 26.9899H25.0535C24.7731 26.9899 24.5028 26.88 24.3126 26.6701L23.7319 26.0304L23.1913 26.6501C23.0011 26.87 22.7307 26.9899 22.4404 26.9899C22.1501 26.9899 21.8797 26.86 21.6895 26.6401L21.1789 26.0404L20.6082 26.6601C20.418 26.86 20.1477 26.9799 19.8674 26.9799H19.7873C19.4769 26.9499 19.1966 26.79 19.0264 26.5302L18.0853 25.101C17.9051 24.8211 17.875 24.4613 18.0052 24.1515L19.6771 20.3236V18.9444C19.6771 17.725 20.6683 16.7256 21.8998 16.7256H23.2614C24.4828 16.7256 25.484 17.715 25.484 18.9444V20.3536ZM21.8897 18.7245C21.7696 18.7245 21.6695 18.8244 21.6695 18.9444H21.6595V19.534H23.4716V18.9444C23.4716 18.8244 23.3715 18.7245 23.2514 18.7245H21.8897ZM24.4027 23.8217C24.4227 23.8317 24.4528 23.8516 24.4528 23.8516L24.4628 23.8716L24.8232 24.2614L23.802 21.5529H21.3291L20.1877 24.1715L20.4681 23.8716C20.4737 23.8604 20.4825 23.8555 20.4926 23.8498C20.5006 23.8453 20.5094 23.8404 20.5181 23.8317C20.5269 23.8229 20.5318 23.8141 20.5363 23.8062C20.542 23.7961 20.5469 23.7873 20.5582 23.7817C20.5849 23.7617 20.6116 23.7506 20.6383 23.7395C20.6516 23.7339 20.665 23.7284 20.6783 23.7217C20.7384 23.6817 20.7985 23.6418 20.8585 23.6218C20.9186 23.6018 20.9787 23.5918 21.0387 23.5818L21.0387 23.5818C21.0988 23.5618 21.1689 23.5618 21.229 23.5618C21.2773 23.5618 21.3208 23.5713 21.3629 23.5805C21.3819 23.5846 21.4005 23.5887 21.4192 23.5918L21.4192 23.5918C21.4793 23.6018 21.5393 23.6118 21.5994 23.6418C21.6472 23.6577 21.6887 23.6862 21.7339 23.7174C21.7455 23.7254 21.7573 23.7335 21.7696 23.7417C21.7879 23.7554 21.8083 23.7649 21.8279 23.7741C21.8512 23.785 21.8734 23.7954 21.8897 23.8117C21.901 23.8173 21.9059 23.826 21.9116 23.8362C21.9161 23.8441 21.921 23.8529 21.9298 23.8616C21.9498 23.8816 21.9799 23.9016 21.9799 23.9016L22.4704 24.4813L22.981 23.8916C22.986 23.8866 22.9935 23.8816 23.0011 23.8766C23.0086 23.8716 23.0161 23.8666 23.0211 23.8616C23.0311 23.8416 23.0411 23.8217 23.0511 23.8117C23.0745 23.7883 23.1013 23.7752 23.1275 23.7624C23.1462 23.7532 23.1646 23.7442 23.1813 23.7317C23.2313 23.6917 23.2814 23.6518 23.3415 23.6318C23.4015 23.6018 23.4616 23.5918 23.5317 23.5818C23.5918 23.5618 23.6518 23.5518 23.7119 23.5518C23.7549 23.5447 23.7979 23.5529 23.8446 23.5618C23.8631 23.5653 23.8822 23.569 23.9021 23.5718L23.9022 23.5718C23.9622 23.5818 24.0223 23.5918 24.0823 23.6118C24.1424 23.6418 24.1925 23.6717 24.2525 23.7117L24.2526 23.7117C24.2926 23.7317 24.3326 23.7517 24.3727 23.7817C24.3777 23.7867 24.3827 23.7942 24.3877 23.8017C24.3927 23.8092 24.3977 23.8167 24.4027 23.8217Z" fill="currentcolor"/>
</symbol>
</svg>
