<svg xmlns='http://www.w3.org/2000/svg' viewBox='0 0 30 30' fill='none'>
<symbol id='Cardio'>
<path fill-rule="evenodd" clip-rule="evenodd" d="M23.993 8.52L22.6371 10.52H22.6471C24.1127 12.27 25 14.52 25 16.97C25 22.5 20.5135 27 15 27C9.48654 27 5 22.5 5 16.97C5 11.78 8.95813 7.49 14.003 6.99V5H11.7996C11.2512 5 10.8026 4.55 10.8026 4C10.8026 3.45 11.2512 3 11.7996 3H18.2004C18.7488 3 19.1974 3.45 19.1974 4C19.1974 4.55 18.7488 5 18.2004 5H15.997V6.99C16.8544 7.08 17.682 7.29 18.4696 7.58L19.7757 5.65C20.0847 5.19 20.7029 5.07 21.1615 5.38L23.7338 7.13C23.9531 7.28 24.1027 7.51 24.1525 7.77C24.2024 8.03 24.1426 8.3 23.993 8.52ZM21.7797 8.22L20.8524 7.59V7.6L20.2642 8.47C20.5833 8.66 20.8923 8.88 21.1815 9.11L21.7797 8.22ZM6.97408 16.96C6.97408 21.39 10.5633 24.99 14.9801 24.99C19.3968 24.99 22.986 21.39 22.986 16.96C22.986 12.53 19.3968 8.93 14.9801 8.93C10.5633 8.93 6.97408 12.53 6.97408 16.96ZM14.9901 12.6901C15.9074 11.9801 16.7149 11.8101 17.5823 11.8101H17.5724C18.9582 11.8101 21.1616 12.8801 21.1616 15.7601C21.1616 19.5901 16.0768 22.7501 15.4986 23.1001C15.349 23.1901 15.1596 23.2401 14.9901 23.2401C14.8206 23.2401 14.6412 23.1901 14.4816 23.1001C13.9034 22.7501 8.81862 19.5901 8.81862 15.7601C8.81862 12.8801 11.022 11.8101 12.4079 11.8101C13.2753 11.8101 14.0729 11.9801 14.9901 12.6901ZM12.4079 13.8101C12.3879 13.8101 10.8126 13.8401 10.8126 15.7601H10.8226C10.8226 17.8001 13.4846 20.0301 15.0001 21.0501C16.5056 20.0301 19.1775 17.8001 19.1775 15.7601C19.1775 13.8301 17.6023 13.8101 17.5823 13.8101C17.014 13.8101 16.5454 13.8801 15.708 14.7301C15.3291 15.1101 14.6611 15.1101 14.2822 14.7301C13.4447 13.8801 12.9761 13.8101 12.4079 13.8101Z" fill="currentcolor"/>
</symbol>
</svg>
