<svg xmlns='http://www.w3.org/2000/svg' viewBox='0 0 30 30' fill='none'>
<symbol id='Circus'>
<path fill-rule="evenodd" clip-rule="evenodd" d="M24.2578 13.8316C24.5678 15.7672 25.4378 20.812 26.9678 25.6962H26.9578C27.0478 25.9971 26.9978 26.328 26.8078 26.5888C26.6278 26.8496 26.3278 27 26.0078 27H3.99783C3.68783 27 3.38783 26.8496 3.19783 26.5888C3.00783 26.328 2.94783 25.9971 3.04783 25.6962C4.58783 20.812 5.45783 15.7672 5.75783 13.8316C4.78783 13.3602 4.10783 12.3773 4.10783 11.224V9.35855C4.10783 8.93732 4.36783 8.55621 4.76783 8.4158C11.0778 6.14918 14.2978 3.28082 14.3278 3.25073C14.3757 3.20271 14.4363 3.17385 14.4995 3.14377C14.5155 3.13615 14.5317 3.12846 14.5478 3.12035C14.5678 3.10029 14.5878 3.08023 14.6078 3.08023C14.6778 3.05015 14.7678 3.03009 14.8478 3.02006C14.8978 3.01003 14.9478 3 14.9978 3C15.0292 3 15.0578 3.00548 15.0852 3.01071C15.1101 3.01549 15.134 3.02006 15.1578 3.02006C15.2378 3.03009 15.3178 3.05015 15.3978 3.08023C15.4167 3.08653 15.4316 3.09678 15.445 3.10601C15.4529 3.11149 15.4604 3.11662 15.4678 3.12035C15.4794 3.12617 15.4908 3.13178 15.5021 3.13731C15.5682 3.16983 15.628 3.19929 15.6878 3.25073C15.6892 3.25177 15.6944 3.25623 15.7035 3.26395C15.9565 3.47935 19.1952 6.23733 25.2578 8.4158C25.6478 8.55621 25.9078 8.93732 25.9078 9.35855V11.224C25.8978 12.3773 25.2278 13.3602 24.2578 13.8316ZM23.9178 10.0405C19.2178 8.26536 16.2578 6.21939 15.0178 5.26661C13.7878 6.21939 10.8178 8.26536 6.11783 10.0405V11.2039C6.11783 11.7054 6.52783 12.1166 7.02783 12.1166H7.16783C7.66783 12.1166 8.07783 11.7054 8.07783 11.2039C8.07783 10.6523 8.52783 10.201 9.07783 10.201C9.62783 10.201 10.0778 10.6523 10.0778 11.2039C10.0778 11.7054 10.4878 12.1166 10.9878 12.1166H11.1278C11.6278 12.1166 12.0378 11.7054 12.0378 11.2039C12.0378 10.6523 12.4878 10.201 13.0378 10.201C13.5878 10.201 14.0378 10.6523 14.0378 11.2039C14.0378 11.7054 14.4478 12.1166 14.9478 12.1166H15.0878C15.5878 12.1166 15.9978 11.7054 15.9978 11.2039C15.9978 10.6523 16.4478 10.201 16.9978 10.201C17.5478 10.201 17.9978 10.6523 17.9978 11.2039C17.9978 11.7054 18.4078 12.1166 18.9078 12.1166H19.0478C19.5478 12.1166 19.9578 11.7054 19.9578 11.2039C19.9578 10.6523 20.4078 10.201 20.9578 10.201C21.5078 10.201 21.9578 10.6523 21.9578 11.2039C21.9578 11.7054 22.3678 12.1166 22.8678 12.1166H23.0078C23.5078 12.1166 23.9178 11.7054 23.9178 11.2039V10.0405ZM9.07783 13.4003C8.70783 13.7213 8.25783 13.972 7.75783 14.0723C7.47783 15.8575 6.71783 20.3305 5.35783 25.0042H7.32783C8.72783 20.3506 9.53783 15.687 9.81783 13.8817C9.54783 13.7614 9.29783 13.6009 9.07783 13.4003ZM9.41783 25.0042H13.1078H20.6178C19.2378 20.2603 18.4778 15.7171 18.2178 14.0422C17.7578 13.9319 17.3478 13.7012 16.9978 13.4003C16.4878 13.8617 15.8278 14.1425 15.0878 14.1425H14.9478C14.2178 14.1425 13.5478 13.8517 13.0378 13.4003C12.6978 13.7012 12.2778 13.9319 11.8178 14.0422C11.5578 15.7271 10.7978 20.2603 9.41783 25.0042ZM20.2178 13.8817C20.5078 15.697 21.3078 20.3506 22.7078 25.0042H24.6678C23.3078 20.3205 22.5478 15.8475 22.2778 14.0723C21.7778 13.972 21.3278 13.7313 20.9578 13.4003C20.7378 13.5909 20.4878 13.7614 20.2178 13.8817ZM16.6477 19.9896L17.0577 21.2533H17.0677C17.1977 21.6745 16.7177 22.0255 16.3577 21.7648L15.2877 20.9825C15.1277 20.8621 14.9077 20.8621 14.7477 20.9825L13.6777 21.7648C13.3177 22.0255 12.8277 21.6745 12.9677 21.2533L13.3777 19.9896C13.4377 19.799 13.3677 19.5985 13.2077 19.4781L12.1377 18.6958C11.7777 18.4351 11.9677 17.8634 12.4077 17.8634H13.7277C13.9277 17.8634 14.1077 17.733 14.1677 17.5425L14.5777 16.2788C14.7177 15.8575 15.3077 15.8575 15.4477 16.2788L15.8577 17.5425C15.9277 17.733 16.0977 17.8634 16.2977 17.8634H17.6177C18.0577 17.8634 18.2477 18.4351 17.8877 18.6958L16.8177 19.4781C16.6477 19.5884 16.5877 19.799 16.6477 19.9896Z" fill="currentcolor"/>
</symbol>
</svg>
