<svg xmlns='http://www.w3.org/2000/svg' viewBox='0 0 30 30' fill='none'>
<symbol id='Climbing'>
<path fill-rule="evenodd" clip-rule="evenodd" d="M22.5224 21.2324H26.2045C26.6227 21.2324 26.9694 21.5723 26.9694 21.9821C26.9694 22.3919 26.6227 22.7318 26.2045 22.7318H20.6864C20.2682 22.7318 19.9214 22.3919 19.9214 21.9821C19.9214 21.5723 20.2682 21.2324 20.6864 21.2324H21.9308C21.3902 21.1624 20.8904 20.8925 20.5436 20.4427L18.7995 18.6735L18.6771 18.5235L15.7293 18.5535L13.5364 25.5006H14.3116C14.7298 25.5006 15.0766 25.8405 15.0766 26.2503C15.0766 26.6601 14.7298 27 14.3116 27H8.79351C8.37532 27 8.02853 26.6601 8.02853 26.2503C8.02853 25.8405 8.37532 25.5006 8.79351 25.5006H9.64009C9.56869 25.2307 9.54829 24.9409 9.59929 24.651L10.2113 19.2232C10.3235 18.3136 10.3439 17.384 10.2929 16.4644L10.2623 15.9846C10.1909 14.7151 9.62989 13.5256 8.70171 12.646L8.57932 12.526L4.91761 9.28738C4.08123 8.58767 3.92824 7.3282 4.59122 6.42857C4.94821 5.94877 5.4888 5.6289 6.09058 5.55893C6.68217 5.48896 7.29415 5.66889 7.75314 6.04873L10.3235 8.17784C10.4867 8.29779 11.3026 8.49771 11.8534 8.49771H12.2512C12.2654 8.49771 12.2796 8.50202 12.2948 8.50663C12.3124 8.51196 12.3314 8.5177 12.3532 8.5177C11.3944 8.02791 10.7315 7.05831 10.7315 5.92878C10.7315 4.30945 12.0676 3 13.72 3C15.3723 3 16.7085 4.31945 16.7085 5.92878C16.7085 7.0783 16.0251 8.06789 15.0358 8.54769C15.065 8.54359 15.0926 8.53613 15.1198 8.52876C15.159 8.51815 15.1976 8.50771 15.2397 8.50771H16.0149C16.1577 8.50771 16.2903 8.41774 16.3515 8.2878L18.1467 4.89921C18.4221 4.36943 18.9015 3.97959 19.493 3.80966C20.0846 3.63973 20.6966 3.7097 21.2372 3.99958C21.2678 4.01958 21.2984 4.04207 21.329 4.06456C21.3596 4.08705 21.3902 4.10954 21.4208 4.12953L23.5627 4.14952C23.9911 4.15952 24.3277 4.49938 24.3277 4.9092C24.3277 5.32903 23.9809 5.65889 23.5627 5.65889H22.3694C22.4306 6.07872 22.3592 6.50854 22.1552 6.91837L18.7791 13.2257L20.6558 13.6955C21.6146 14.0154 22.3388 14.6651 22.7264 15.4848L24.1033 18.4036C24.5419 19.3632 24.1543 20.5127 23.2057 21.0125C22.9814 21.1224 22.757 21.2024 22.5224 21.2324ZM14.6686 5.92878C14.6686 5.41899 14.2504 5.00916 13.7302 5.00916C13.21 5.00916 12.7918 5.41899 12.7918 5.92878C12.7918 6.43857 13.21 6.8484 13.7302 6.8484C14.2504 6.8484 14.6686 6.43857 14.6686 5.92878ZM18.6975 16.4944C19.3808 16.5244 19.9724 16.8242 20.3396 17.324V17.334L22.0838 19.1033C22.1246 19.1433 22.1654 19.1933 22.196 19.2432L20.8598 16.3244C20.7068 15.9846 20.411 15.7247 20.054 15.6047L17.5959 14.985C17.1063 14.8251 16.7799 14.5152 16.6065 14.1154C16.4433 13.7255 16.4535 13.2757 16.6473 12.8859L20.3294 5.99875C20.3702 5.91878 20.3294 5.80883 20.2376 5.75885C20.1764 5.71887 20.1254 5.72886 20.0846 5.73886C20.0438 5.74885 19.9928 5.77884 19.9622 5.83882L18.1977 9.16743C17.8407 9.9671 16.9737 10.5269 16.0149 10.5269H15.2397C14.6788 10.5269 14.2198 10.0771 14.2198 9.52728C14.2198 9.17743 14.4136 8.88755 14.689 8.70762C14.383 8.80758 14.0566 8.87755 13.72 8.87755C13.414 8.87755 13.1386 8.81758 12.8632 8.73761C13.108 8.91753 13.2712 9.19742 13.2712 9.51728C13.2712 10.0671 12.8122 10.5169 12.2512 10.5169H11.7208H11.6902C10.9559 10.4869 9.71149 10.267 9.02811 9.74719L6.42717 7.58809C6.39657 7.5581 6.36597 7.5581 6.32517 7.5581C6.28437 7.5581 6.25378 7.57809 6.23338 7.60808C6.19258 7.65806 6.20278 7.73803 6.25378 7.77801L10.1195 11.1966C11.425 12.4361 12.2002 14.0954 12.3022 15.8646L12.3328 16.3444C12.394 17.374 12.3634 18.4136 12.2512 19.4332L11.6596 24.691L13.7608 17.9738C14.026 17.1241 14.8114 16.5444 15.7191 16.5344L18.6975 16.4944ZM23.4097 10.1071C22.9915 10.1071 22.6447 10.437 22.6447 10.8568C22.6447 11.2667 22.9813 11.6065 23.4097 11.6165L26.235 11.6365C26.6532 11.6365 27 11.3066 27 10.8868C27 10.477 26.6634 10.1371 26.235 10.1271L23.4097 10.1071ZM6.60051 13.6955L3.77518 13.6755C3.31619 13.7055 3.0102 14.0053 3 14.4252C3 14.835 3.33659 15.1749 3.76498 15.1849L6.59031 15.2048C7.0085 15.2048 7.35529 14.875 7.35529 14.4552C7.35529 14.0453 7.0187 13.7055 6.59031 13.6955H6.60051Z" fill="currentcolor"/>
</symbol>
</svg>
