<svg xmlns='http://www.w3.org/2000/svg' viewBox='0 0 30 30' fill='none'>
<symbol id='Danse'>
<path fill-rule="evenodd" clip-rule="evenodd" d="M8.20251 9.49639C8.90285 9.90639 10.1634 9.74639 10.4736 8.67639L10.4936 8.66639V3.54639C10.4786 3.52139 10.4661 3.49639 10.4536 3.47139C10.4411 3.44639 10.4286 3.42139 10.4136 3.39639C10.2735 3.11639 9.98336 2.96639 9.67321 3.00639C8.98285 3.09639 8.28999 3.1864 7.59713 3.2764C6.90433 3.3664 6.21153 3.45639 5.52123 3.54639C5.04101 3.61639 4.8109 3.86639 4.8109 4.35639V7.66639V7.88639C4.78612 7.88414 4.76287 7.88189 4.74079 7.87975C4.66481 7.87239 4.60279 7.86639 4.54077 7.86639C4.14058 7.84639 3.7704 7.94639 3.45025 8.19639C2.85996 8.67639 2.83995 9.50639 3.45025 9.95639C3.67035 10.1264 3.95049 10.2364 4.22061 10.2864C4.98098 10.4164 5.95144 9.95639 5.90142 8.85639C5.86502 8.09969 5.87099 7.33769 5.87695 6.57811C5.87918 6.29373 5.88141 6.00969 5.88141 5.72639C5.88141 5.53639 5.94143 5.48639 6.12152 5.46639C6.80181 5.38639 7.49211 5.2964 8.18241 5.2064L8.1825 5.20639C8.57269 5.15639 8.96288 5.10639 9.36307 5.05639V7.29639C8.92286 7.22639 8.52267 7.27639 8.16249 7.50639C7.36211 8.00639 7.39213 9.02639 8.20251 9.49639ZM25.3906 4.57635C26.291 4.83635 26.8813 5.55635 26.9614 6.49635H26.9914C27.0114 6.69635 27.0314 7.38635 26.6212 7.91635L26.3811 8.22635L26.3659 8.24599C25.6503 9.16985 24.9131 10.1217 23.8799 10.8763C23.1095 11.4363 22.2891 11.8663 21.3987 12.1663V12.5863V16.0363C21.5138 16.1463 21.6313 16.2563 21.7489 16.3663C21.8664 16.4763 21.984 16.5863 22.099 16.6963L22.0994 16.6967C22.4094 16.9866 22.7195 17.2765 23.0195 17.5663C24.4201 18.9363 24.8604 20.6463 24.2901 22.5263C24.02 23.3761 23.74 24.2259 23.4599 25.0757L23.4597 25.0763L23.3696 25.3463C23.0095 26.4163 21.999 27.0963 20.8985 26.9863C19.8079 26.8863 18.9175 26.0163 18.7875 24.9263C18.7374 24.5963 18.7774 24.2363 18.8875 23.8663C19.1576 22.9563 19.4378 22.0563 19.7279 21.1563C19.7579 21.0463 19.7579 20.9963 19.7579 20.9963C19.7579 20.9963 19.7379 20.9663 19.6679 20.8963L19.6676 20.8961C19.4776 20.7262 19.2876 20.5563 19.0976 20.3763C19.0376 21.3463 18.6474 22.2463 17.927 23.0563L17.9265 23.0569C16.9863 24.1067 16.046 25.1565 15.0957 26.1963C14.6255 26.7163 13.9852 26.9863 13.3349 26.9863C12.7746 26.9863 12.2043 26.7863 11.7441 26.3763C11.2739 25.9663 11.0037 25.3963 10.9637 24.7763C10.9237 24.1363 11.1438 23.5163 11.574 23.0363C12.4844 22.0163 13.4049 21.0063 14.3253 19.9963C14.3854 19.9263 14.3854 19.8963 14.3854 19.8363L14.3053 14.1463C14.0114 14.5025 13.7412 14.8745 13.4595 15.2624C13.4248 15.3101 13.39 15.3581 13.3549 15.4063L13.1348 15.7063C12.6345 16.3963 11.9342 16.7163 11.0938 16.6463C10.3534 16.5863 9.68311 16.1263 9.34295 15.4563C9.01279 14.8163 9.02279 14.0663 9.38297 13.4563C10.1633 12.1163 11.474 10.2163 13.715 9.18635C14.1252 8.99635 14.5454 8.83635 14.9656 8.70635C15.0757 8.67635 15.1857 8.67635 15.2958 8.67635C14.3753 8.15635 13.745 7.17635 13.745 6.04635C13.745 4.36635 15.1057 3.00635 16.7865 3.00635C18.4673 3.00635 19.8279 4.36635 19.8279 6.04635C19.8279 6.94635 19.4278 7.74635 18.8075 8.30635C18.8244 8.29959 18.839 8.2917 18.8528 8.2842C18.88 8.26951 18.9044 8.25635 18.9375 8.25635C19.3377 8.19635 19.7379 8.09635 20.1081 7.96635C20.8484 7.69635 21.4787 7.25635 22.019 6.59635L22.3792 6.15635C22.4592 6.05967 22.5382 5.96299 22.6171 5.86631C22.7749 5.67299 22.9328 5.47967 23.0995 5.28635C23.6898 4.59635 24.5302 4.33635 25.3906 4.57635ZM17.817 6.04635C17.817 5.47635 17.3468 5.00635 16.7765 5.00635C16.2062 5.00635 15.736 5.47635 15.736 6.04635C15.736 6.61635 16.2062 7.08635 16.7765 7.08635C17.3468 7.08635 17.817 6.61635 17.817 6.04635ZM22.6593 9.26635C23.4697 8.67635 24.1 7.86635 24.7603 7.00635L24.7703 6.93635L24.9857 6.65257C24.9704 6.66948 24.9704 6.63291 24.9704 6.59635C24.9604 6.47635 24.9304 6.46635 24.8403 6.43635C24.7603 6.40635 24.7203 6.39635 24.6102 6.52635C24.4331 6.7255 24.2669 6.9301 24.0995 7.13613C24.04 7.20941 23.9803 7.28288 23.9199 7.35635L23.5497 7.80635C22.7794 8.73635 21.8489 9.39635 20.7684 9.78635C20.2682 9.96635 19.7479 10.0963 19.2177 10.1763C18.6674 10.2563 18.1572 9.88635 18.0771 9.33635C18.0471 9.07635 18.1171 8.83635 18.2472 8.63635C17.807 8.88635 17.3168 9.03635 16.7765 9.03635C16.4763 9.03635 16.1862 8.97635 15.9161 8.89635C16.0361 9.01635 16.1462 9.15635 16.1962 9.32635C16.3563 9.85635 16.0562 10.4163 15.5259 10.5763C15.1957 10.6763 14.8656 10.8063 14.5354 10.9563C13.2048 11.5763 12.1443 12.6463 11.0938 14.4263C11.1338 14.5563 11.1938 14.6163 11.2639 14.6163C11.2676 14.6167 11.2713 14.6171 11.275 14.6175C11.367 14.6269 11.4077 14.6311 11.504 14.4963L11.7141 14.2063L11.7449 14.1642C12.1159 13.6567 12.5063 13.1226 12.9347 12.6263C13.4049 12.0763 14.0252 11.6363 14.8356 11.2763C15.1357 11.1463 15.4659 11.1663 15.746 11.3263C16.0261 11.4863 16.2162 11.7663 16.2462 12.0863C16.2662 12.1963 16.2662 12.2463 16.2662 12.2963V12.2963L16.3663 19.7963C16.3763 20.3763 16.1762 20.8963 15.786 21.3263C15.4825 21.663 15.178 21.9997 14.8734 22.3363C14.2642 23.0097 13.655 23.683 13.0547 24.3563C12.9747 24.4363 12.9447 24.5463 12.9447 24.6463C12.9447 24.7163 12.9747 24.8063 13.0547 24.8763C13.2348 25.0363 13.4549 25.0263 13.605 24.8563C14.5454 23.8163 15.4859 22.7763 16.4263 21.7263C16.8365 21.2663 17.0566 20.7863 17.0866 20.2663C17.1067 19.8863 17.0966 19.5063 17.0766 19.1163V18.0463C17.0766 17.6463 17.3168 17.2863 17.6769 17.1263C18.0371 16.9763 18.4673 17.0363 18.7574 17.3063L19.6779 18.1763C19.7644 18.2589 19.8506 18.3415 19.9366 18.4239C20.288 18.7607 20.6368 19.095 20.9985 19.4163C21.7088 20.0563 21.9189 20.8763 21.6188 21.7863C21.3287 22.6663 21.0485 23.5563 20.7884 24.4463C20.7484 24.5763 20.7484 24.6563 20.7484 24.6863C20.7684 24.8563 20.8985 24.9963 21.0585 25.0063C21.2286 25.0263 21.3787 24.9163 21.4387 24.7263L21.5288 24.4563L21.5289 24.4561C21.809 23.6262 22.0891 22.7963 22.3392 21.9563C22.6893 20.7963 22.4492 19.8563 21.5788 19.0063C21.298 18.7257 21.0173 18.4639 20.7275 18.1935L20.6984 18.1663L20.6982 18.1662C20.4081 17.8962 20.118 17.6263 19.8279 17.3463C19.5378 17.0663 19.3577 16.6463 19.3577 16.2463V12.5963V11.4263C19.3577 10.9663 19.6679 10.5663 20.1081 10.4563C21.0485 10.2163 21.8889 9.82635 22.6593 9.26635Z" fill="currentcolor"/>
</symbol>
</svg>
