<svg xmlns='http://www.w3.org/2000/svg' viewBox='0 0 30 30' fill='none'>
<symbol id='HamamMen'>
<path fill-rule="evenodd" clip-rule="evenodd" d="M26.97 19.23V19.08L25.2385 11.67C25.0384 10.21 23.7473 9.12 22.226 9.12H21.6455C22.6264 8.55 23.2969 7.5 23.2969 6.28C23.2969 4.47 21.8257 3 20.0142 3C18.2027 3 16.7314 4.47 16.7314 6.28C16.7314 7.49 17.402 8.54 18.3828 9.11H17.8224C16.2911 9.11 14.99 10.21 14.8198 11.58L13.2285 18.41H4.00083C3.45038 18.41 3 18.86 3 19.41C3 19.96 3.45038 20.41 4.00083 20.41H16.0209L16.2911 25C16.3611 26.09 17.2619 26.96 18.3428 26.97H18.3628C18.9933 26.97 19.5638 26.68 19.9441 26.23C20.3244 26.7 20.8949 26.99 21.5354 27H21.5555C22.6364 27 23.5471 26.15 23.6272 25.07L23.9775 20.41H25.9992C26.5496 20.41 27 19.96 27 19.41C27 19.35 26.98 19.29 26.96 19.23H26.97ZM20.0042 5C20.7148 5 21.2852 5.58 21.2852 6.28C21.2852 6.98 20.7048 7.56 20.0042 7.56C19.3036 7.56 18.7231 6.98 18.7231 6.28C18.7231 5.58 19.3036 5 20.0042 5ZM17.8324 11.12H18.613C19.1635 11.11 19.6138 10.66 19.6038 10.1C19.6038 9.87 19.5038 9.67 19.3736 9.5C19.5738 9.54 19.784 9.56 20.0042 9.56C20.2244 9.56 20.4245 9.54 20.6247 9.5C20.4946 9.67 20.3945 9.87 20.3945 10.1C20.3945 10.65 20.8349 11.1 21.3853 11.11H22.206C22.7364 11.11 23.1868 11.47 23.2669 12.03L24.1476 15.83C23.6172 15.12 22.7765 14.67 21.8657 14.67L18.2427 14.65H18.2327C17.2519 14.65 16.3711 15.15 15.8507 15.93L16.7815 11.94C16.8415 11.47 17.2919 11.12 17.8324 11.12ZM18.4429 24.89C18.4429 24.94 18.4028 24.98 18.3728 24.98C18.3728 24.98 18.3028 24.95 18.3028 24.89L17.9625 19.17C17.9625 18.93 18.1426 18.74 18.3728 18.74C18.593 18.74 18.7731 18.94 18.7731 19.13L18.4429 24.9V24.89ZM18.3828 16.74H18.3628C17.8023 16.74 17.2819 16.95 16.8716 17.28C17.0017 16.62 17.5721 16.15 18.2327 16.15L21.8557 16.17C22.4662 16.17 23.0167 16.59 23.1668 17.13L23.2168 17.35C22.8065 16.99 22.2761 16.77 21.6856 16.76C21.045 16.76 20.4846 16.99 20.0242 17.41C19.5938 16.99 19.0133 16.74 18.3828 16.73V16.74ZM21.6355 24.92C21.6355 24.92 21.5955 25 21.5655 25C21.5354 25 21.4954 24.97 21.4954 24.91L21.2652 19.19C21.2652 19.03 21.3453 18.93 21.3953 18.88C21.4454 18.83 21.5455 18.76 21.6756 18.76C21.8957 18.76 22.0859 18.96 22.0859 19.13L21.6455 24.92H21.6355ZM11.1369 12.8599C11.1369 12.8599 11.4271 13.2799 11.0868 13.8199C10.2461 15.1799 10.7165 16.4799 11.1369 17.0299C11.337 17.2899 11.6373 17.4299 11.9375 17.4299C12.1477 17.4299 12.3579 17.3699 12.538 17.2299C12.9784 16.8999 13.0685 16.2699 12.7382 15.8299C12.7382 15.8299 12.448 15.4099 12.7883 14.8699C13.629 13.5099 13.1586 12.2099 12.7382 11.6599C12.4079 11.2199 11.7774 11.1299 11.337 11.4599C10.8967 11.7899 10.8066 12.4199 11.1369 12.8599ZM5.48197 17.4299C5.18172 17.4299 4.88147 17.2899 4.68131 17.0299C4.26096 16.4799 3.79056 15.1799 4.63126 13.8199C4.97155 13.2799 4.68131 12.8599 4.68131 12.8599C4.35103 12.4199 4.44111 11.7899 4.88147 11.4599C5.32184 11.1299 5.95237 11.2199 6.28264 11.6599C6.70299 12.2099 7.17338 13.5099 6.33268 14.8699C5.9924 15.4099 6.28264 15.8299 6.28264 15.8299C6.61292 16.2699 6.52284 16.8999 6.08247 17.2299C5.90232 17.3699 5.69215 17.4299 5.48197 17.4299ZM9.51532 11.6599C9.18504 11.2199 8.55451 11.1299 8.11415 11.4599C7.67378 11.7899 7.5837 12.4199 7.91398 12.8599C7.91398 12.8599 8.20422 13.2799 7.86394 13.8199C7.02324 15.1799 7.49363 16.4799 7.91398 17.0299C8.11415 17.2899 8.4144 17.4299 8.71465 17.4299C8.92482 17.4299 9.135 17.3699 9.31515 17.2299C9.75551 16.8999 9.84559 16.2699 9.51532 15.8299C9.51532 15.8299 9.22507 15.4099 9.56536 14.8699C10.4061 13.5099 9.93567 12.2099 9.51532 11.6599ZM8.71982 10.77C8.71816 10.77 8.71649 10.77 8.71482 10.77H8.72483C8.72316 10.77 8.72149 10.77 8.71982 10.77ZM11.6272 7.86004C11.6272 9.45837 10.3189 10.7673 8.71982 10.77C7.12076 10.7673 5.8124 9.45837 5.8124 7.86004C5.8124 7.65004 5.83242 7.44004 5.89247 7.20004C6.22274 5.60004 7.65394 3.74004 7.91415 3.41004C8.01424 3.27004 8.16436 3.15004 8.3345 3.08004C8.42458 3.04004 8.52466 3.02004 8.61474 3.01004C8.77487 2.99004 8.94501 3.01004 9.10514 3.08004C9.2953 3.16004 9.44543 3.29004 9.55552 3.45004C9.8858 3.88004 11.337 5.80004 11.5872 7.39004V7.41004C11.6172 7.56004 11.6272 7.71004 11.6272 7.86004ZM7.83409 7.61004V7.65004L7.82408 7.64004C7.79405 7.73004 7.79405 7.80004 7.79405 7.85004C7.79405 8.35004 8.20439 8.76004 8.70481 8.76004C9.20523 8.76004 9.61557 8.35004 9.61557 7.85004C9.61557 7.82504 9.61307 7.79754 9.61057 7.77004C9.60806 7.74254 9.60556 7.71504 9.60556 7.69004C9.5255 7.15004 9.13517 6.40004 8.71482 5.73004C8.3245 6.34004 7.94418 7.05004 7.83409 7.61004Z" fill="currentcolor"/>
</symbol>
</svg>
