<svg xmlns='http://www.w3.org/2000/svg' viewBox='0 0 30 30' fill='none'>
<symbol id='HamamWomen'>
<path fill-rule="evenodd" clip-rule="evenodd" d="M11.6237 7.8651C11.6237 9.46467 10.3131 10.7743 8.71245 10.7743L8.73246 10.7543C7.13179 10.7543 5.82124 9.44468 5.82124 7.8451C5.82124 7.63516 5.84125 7.42521 5.90128 7.18528C6.23141 5.5957 7.66201 3.72619 7.92212 3.39628C8.02216 3.25631 8.17222 3.13635 8.3423 3.06637C8.38231 3.04637 8.42233 3.03637 8.46234 3.02638C8.61241 2.99638 8.78248 2.98639 8.95255 3.02638C9.05259 3.05637 9.14263 3.08636 9.22266 3.13635C9.36272 3.21633 9.47276 3.3263 9.5628 3.45626C9.89294 3.87615 11.3235 5.77565 11.5836 7.35523V7.41521C11.6137 7.56518 11.6237 7.71514 11.6237 7.8651ZM7.83208 7.61516V7.65515H7.80207C7.77206 7.74513 7.77206 7.81511 7.77206 7.8651C7.77206 8.36496 8.18223 8.77486 8.68244 8.77486C9.18264 8.77486 9.59282 8.36496 9.59282 7.8651V7.73513V7.69514C9.51278 7.15528 9.12262 6.40548 8.70244 5.73566C8.32229 6.3455 7.94213 7.05531 7.83208 7.61516ZM26.93 19.1221V19.0821L25.1993 11.6741C24.9992 10.2144 23.6986 9.12473 22.188 9.12473H21.6078C22.5882 8.55488 23.2584 7.50516 23.2584 6.28548C23.2584 4.47596 21.7878 3.00635 19.9771 3.00635C18.1663 3.00635 16.6957 4.47596 16.6957 6.28548C16.6957 7.49516 17.366 8.54488 18.3464 9.11473H17.7862C16.2555 9.11473 14.955 10.2144 14.7849 11.5841L13.1942 18.4123H4.00042C3.45019 18.4123 3 18.8622 3 19.412C3 19.9619 3.45019 20.4117 4.00042 20.4117H16.0054L16.2755 25.0005C16.3456 26.0902 17.2459 26.96 18.3264 26.97C18.9566 26.99 19.5469 26.6901 19.9271 26.2302C20.3072 26.7001 20.8775 27 21.5177 27H21.5377C22.6182 27 23.5186 26.1602 23.6086 25.0705L23.9587 20.4117H25.9996C26.5498 20.4117 27 19.9619 27 19.412C27 19.312 26.97 19.2121 26.94 19.1221H26.93ZM19.9671 5.00582C20.6774 5.00582 21.2476 5.58566 21.2476 6.28548C21.2476 6.98529 20.6674 7.56514 19.9671 7.56514C19.2668 7.56514 18.6865 6.98529 18.6865 6.28548C18.6865 5.58566 19.2668 5.00582 19.9671 5.00582ZM16.7357 11.944C16.7957 11.4741 17.2459 11.1242 17.7862 11.1242H18.5765C19.1267 11.1142 19.5769 10.6643 19.5669 10.1045C19.5669 9.87453 19.4769 9.67458 19.3568 9.50463C19.5569 9.54462 19.757 9.56461 19.9671 9.56461C20.1772 9.56461 20.3772 9.54462 20.5773 9.50463C20.4473 9.67458 20.3572 9.87453 20.3572 10.1045C20.3572 10.6543 20.7974 11.1042 21.3476 11.1142H22.168C22.6982 11.1142 23.1484 11.4741 23.2284 12.034L24.709 18.4123H23.9587L22.9183 13.2736C22.7882 12.6438 22.228 12.1939 21.5777 12.1939H18.3664C17.7161 12.1939 17.1559 12.6538 17.0258 13.2736L15.9854 18.4123H15.2451L16.7457 11.944H16.7357ZM18.3964 24.8906C18.3964 24.9405 18.3564 24.9805 18.3264 24.9805C18.3264 24.9805 18.2564 24.9405 18.2564 24.8906L17.9162 19.1721C17.9162 18.9321 18.0963 18.7422 18.3264 18.7422C18.5465 18.7422 18.7266 18.9421 18.7266 19.1321L18.3964 24.9006V24.8906ZM18.3264 16.7427H18.3164C18.1463 16.7427 17.9862 16.7627 17.8262 16.7927L18.4564 13.6935H21.4577L22.088 16.8227C21.9379 16.7927 21.7878 16.7727 21.6278 16.7727C21.0075 16.7627 20.4173 17.0026 19.9671 17.4225C19.5369 17.0026 18.9566 16.7527 18.3264 16.7427ZM21.5877 24.9205C21.5877 24.9205 21.5477 25.0005 21.5177 25.0005C21.4877 25.0005 21.4477 24.9605 21.4477 24.9106L21.2176 19.1921C21.2176 19.0321 21.2976 18.9321 21.3476 18.8821C21.3877 18.8422 21.4877 18.7622 21.6278 18.7622C21.8479 18.7622 22.0279 18.9621 22.0379 19.1321L21.5977 24.9205H21.5877ZM11.1335 12.8637C11.1335 12.8637 11.4236 13.2835 11.0835 13.8234C10.2431 15.183 10.7133 16.4827 11.1335 17.0326C11.3336 17.2925 11.6337 17.4324 11.9338 17.4324C12.1439 17.4324 12.354 17.3725 12.5341 17.2325C12.9743 16.9026 13.0643 16.2728 12.7342 15.8329C12.7342 15.8329 12.444 15.413 12.7842 14.8731C13.6245 13.5135 13.1543 12.2138 12.7342 11.664C12.404 11.2241 11.7738 11.1341 11.3336 11.464C10.8934 11.7939 10.8034 12.4238 11.1335 12.8637ZM5.48094 17.4324C5.18081 17.4324 4.88069 17.2925 4.68061 17.0326C4.26043 16.4827 3.79023 15.183 4.63058 13.8234C4.97073 13.2835 4.68061 12.8637 4.68061 12.8637C4.35047 12.4238 4.4405 11.7939 4.88069 11.464C5.32087 11.1341 5.95113 11.2241 6.28127 11.664C6.70145 12.2138 7.17164 13.5135 6.33129 14.8731C5.99115 15.413 6.28127 15.8329 6.28127 15.8329C6.61141 16.2728 6.52137 16.9026 6.08119 17.2325C5.90111 17.3725 5.69103 17.4324 5.48094 17.4324ZM9.5126 11.664C9.18246 11.2241 8.5522 11.1341 8.11202 11.464C7.67183 11.7939 7.58179 12.4238 7.91193 12.8637C7.91193 12.8637 8.20205 13.2835 7.86191 13.8234C7.02156 15.183 7.49176 16.4827 7.91193 17.0326C8.11202 17.2925 8.41214 17.4324 8.71227 17.4324C8.92235 17.4324 9.13244 17.3725 9.31252 17.2325C9.7527 16.9026 9.84274 16.2728 9.5126 15.8329C9.5126 15.8329 9.22248 15.413 9.56262 14.8731C10.403 13.5135 9.93277 12.2138 9.5126 11.664Z" fill="currentcolor"/>
</symbol>
</svg>
