<svg xmlns='http://www.w3.org/2000/svg' viewBox='0 0 30 30' fill='none'>
<symbol id='IceSkating'>
<path d="M25.91 22.0792C26.08 21.7472 26.19 21.3748 26.19 20.9723V19.9862C26.19 18.6981 25.39 17.5409 24.19 17.0981C20.44 15.7094 17.76 14.0189 17.04 12.5597C16.08 10.6277 15.67 6.86415 15.6 3.98616C15.59 3.44277 15.14 3 14.6 3H7.17C6.35 3 5.68 3.67421 5.66 4.48931L5.53 10.839C5.53 11.3421 5.39 11.8151 5.16 12.2075C4.59 13.1736 3.9 14.7937 3.9 17.0981C3.9 19.6742 4.23 21.3648 4.43 22.1497C4.59 22.7836 5.16 23.2164 5.81 23.2164H6.8V24.9874H4C3.45 24.9874 3 25.4403 3 25.9937C3 26.5472 3.45 27 4 27H23.85C25.59 27 27 25.7421 27 24.1824C27 23.3371 26.57 22.5824 25.91 22.0692V22.0792ZM5.91 17.0981C5.91 15.2667 6.44 13.9887 6.88 13.244C7.29 12.5497 7.52 11.7346 7.54 10.8792L7.66 5.01258H13.64C13.74 7.12579 14.09 11.1006 15.26 13.4553C16.51 15.9711 20.44 17.8528 23.51 18.9799C23.93 19.1308 24.2 19.5233 24.2 19.9761V20.9623C24.2 21.1836 24.02 21.3648 23.8 21.3648H15.56C15.43 21.3648 14.61 21.2943 11.58 19.966C11.33 19.8553 11.06 19.795 10.79 19.795C10.41 19.795 10.04 19.9057 9.72 20.117C9.33 20.3786 9.05 20.761 8.91 21.1937H6.27C6.11 20.439 5.9 19.0403 5.9 17.088L5.91 17.0981ZM8.81 23.2164H9.41C10.2 23.2164 10.83 22.5723 10.79 21.8075C14.35 23.3774 15.26 23.3774 15.57 23.3774H16.96V24.9874H8.81V23.2164ZM23.86 24.9874H18.96V23.3774H20.55C20.55 23.3774 20.58 23.3774 20.59 23.3774H23.86C24.47 23.3774 25.01 23.7497 25.01 24.1824C25.01 24.6151 24.47 24.9874 23.86 24.9874Z" fill="currentcolor"/>
</symbol>
</svg>
