<svg xmlns='http://www.w3.org/2000/svg' viewBox='0 0 30 30' fill='none'>
<symbol id='Kayak'>
<path fill-rule="evenodd" clip-rule="evenodd" d="M7.76684 8.19569H5.57438C4.1728 8.19569 3.02151 7.06663 3.02151 5.66779V5.61783V5.57786C3.02151 4.89843 3.2818 4.25896 3.76234 3.77935C4.24288 3.28976 4.8836 3.01998 5.56437 3.00999H7.79688C8.36752 3.00999 8.93816 3.15987 9.43872 3.45962L11.451 4.64863L18.7292 4.59867L20.5712 3.4796C21.0718 3.16986 21.6424 3.00999 22.2231 3H24.4456C25.1164 3 25.7571 3.25978 26.2376 3.73939C26.7182 4.21899 26.9885 4.85846 26.9885 5.5379V5.57786V5.62782C26.9885 6.30726 26.7282 6.94673 26.2476 7.42633C25.7671 7.91592 25.1264 8.1857 24.4456 8.19569H22.2131C21.6424 8.19569 21.0718 8.03582 20.5712 7.74606L18.6391 6.59702L11.1807 6.65697L9.42871 7.71609C8.91814 8.02583 8.3475 8.1857 7.76684 8.19569ZM24.4356 5.01833H22.2231C22.0029 5.01833 21.7826 5.08827 21.5924 5.19818L20.9016 5.61783L21.6024 6.03748C21.7826 6.14739 22.0029 6.20734 22.2231 6.20734V6.19735H24.4356C24.5858 6.19735 24.7259 6.1374 24.826 6.03748C24.9261 5.92757 24.9862 5.79768 24.9862 5.6478V5.60784V5.55788C24.9862 5.408 24.9261 5.26812 24.826 5.1682C24.7159 5.06828 24.5858 5.00833 24.4356 5.00833V5.01833ZM5.16219 5.17011C5.26167 5.07505 5.39827 5.01833 5.54435 5.01833H7.75683C7.97708 5.02832 8.19733 5.06829 8.38754 5.17819L9.08833 5.58785L8.39755 6.00751C8.20734 6.12741 7.98709 6.18736 7.76684 6.18736H5.55436V6.19735C5.25402 6.19735 5.00374 5.95755 5.00374 5.6478V5.60784V5.55788C5.00374 5.40887 5.06311 5.27961 5.16219 5.17011ZM4.54324 21.4147C4.73345 21.2948 9.14842 18.547 14.5245 21.4546C16.6969 22.6336 18.7492 23.0233 20.5212 23.0233C23.9951 23.0233 26.3878 21.5146 26.538 21.4147C26.9985 21.1149 27.1286 20.4954 26.8283 20.0358C26.528 19.5762 25.9073 19.4363 25.4467 19.736C25.2665 19.8559 20.8416 22.6037 15.4655 19.6961C9.01827 16.219 3.67226 19.5962 3.45201 19.736C2.99149 20.0358 2.86135 20.6553 3.16168 21.1149C3.46202 21.5745 4.07271 21.7144 4.54324 21.4147ZM25.4468 23.7127C25.4468 23.7127 20.8816 26.5903 15.4755 23.6728C9.02829 20.1956 3.68228 23.5728 3.46203 23.7127C3.00151 24.0125 2.87137 24.632 3.17171 25.0916C3.47204 25.5512 4.08273 25.6911 4.55326 25.3913C4.74347 25.2714 9.15844 22.5237 14.5345 25.4313C16.7069 26.6103 18.7592 27 20.5312 27C24.0051 27 26.3978 25.4913 26.548 25.3913C27.0085 25.0916 27.1387 24.4721 26.8383 24.0125C26.538 23.5529 25.9173 23.413 25.4568 23.7227L25.4468 23.7127ZM26.578 12.0824C25.9873 11.5628 22.3532 8.6752 14.995 8.64522H14.9249C7.63668 8.6752 4.00259 11.5628 3.41193 12.0824C3.2117 12.2322 3.07155 12.4521 3.02149 12.6919C3.01148 12.7618 3.00147 12.8317 3.00147 12.9017C3.00147 12.9716 3.00147 13.0416 3.02149 13.1115C3.07155 13.3513 3.22171 13.5711 3.41193 13.721C4.0126 14.2406 7.63668 17.1182 14.995 17.1582H15.005H15.065C22.3632 17.1282 25.9973 14.2406 26.588 13.721C26.7882 13.5711 26.9384 13.3513 26.9784 13.1115L26.9818 13.0883C26.9906 13.028 26.9984 12.9738 26.9984 12.9117C26.9984 12.8417 26.9984 12.7818 26.9784 12.7118C26.9284 12.472 26.7782 12.2522 26.588 12.1024L26.578 12.0824ZM15.045 15.1398H14.995H14.9449C10.1395 15.1199 7.13612 13.761 5.70451 12.8917C7.13612 12.0224 10.1295 10.6635 14.9249 10.6436H15.035C19.8404 10.6635 22.8438 12.0224 24.2754 12.8917C22.8438 13.761 19.8404 15.1199 15.045 15.1398ZM12.7223 14.1506C12.0316 14.1506 11.4609 13.5911 11.4609 12.8917C11.4609 12.2023 12.0216 11.6327 12.7223 11.6327H17.2574C17.9482 11.6327 18.5189 12.2023 18.5189 12.8917C18.5189 13.5811 17.9582 14.1506 17.2574 14.1506H12.7223Z" fill="currentcolor"/>
</symbol>
</svg>
