<svg xmlns='http://www.w3.org/2000/svg' viewBox='0 0 30 30' fill='none'>
<symbol id='PaddleTennis'>
<path fill-rule="evenodd" clip-rule="evenodd" d="M18.4464 19.8331C18.4464 19.8331 18.4764 19.8231 18.4864 19.8131C20.4673 19.5432 22.4681 18.6036 24.0788 16.9843C25.6894 15.365 26.7899 13.146 26.97 10.9269C27.1501 8.64789 26.4298 6.55878 24.9291 5.05943C21.8779 2.01073 16.5256 2.39057 12.9942 5.90906C11.3835 7.51837 10.4331 9.51752 10.163 11.5067C10.163 11.5128 10.1592 11.519 10.1539 11.5276C10.1506 11.5328 10.1468 11.539 10.143 11.5466C9.68278 13.7257 8.64235 17.2842 8.36223 18.2238L7.79199 18.7935L3.4702 23.1317C3.17007 23.4316 3 23.8314 3 24.2612C3 24.691 3.17007 25.0908 3.4702 25.3907L4.59066 26.5102C4.89079 26.8101 5.29095 26.98 5.72113 26.98C6.15131 26.98 6.55148 26.8101 6.8516 26.5102L11.7536 21.6123C12.694 21.3325 16.2555 20.2929 18.4364 19.8331H18.4464ZM10.3931 18.4637C10.5431 17.9639 10.7632 17.1942 11.0133 16.3046C11.3235 16.8544 11.6936 17.3741 12.1538 17.834C12.614 18.2938 13.1342 18.6736 13.6844 18.9735C12.7941 19.2234 12.0238 19.4433 11.5235 19.5932L10.3931 18.4637ZM14.4248 7.32845C15.9654 5.78911 17.9262 4.99945 19.757 4.99945C21.1876 4.99945 22.5281 5.48924 23.5285 6.47882C24.609 7.55835 25.1292 9.0777 24.9892 10.767C24.8491 12.5162 24.0288 14.2255 22.6782 15.5749C19.937 18.3137 15.8453 18.6936 13.5744 16.4246C11.3035 14.1555 11.6836 10.0673 14.4248 7.32845ZM5.73114 24.821L5.18091 24.2712L9.21259 20.2229L9.26261 20.173L9.82284 20.7327L5.73114 24.821ZM26.2097 21.1625C25.5194 20.2829 24.479 19.7831 23.3785 19.7831C22.278 19.7831 21.2476 20.2829 20.5473 21.1625C20.0371 21.8122 19.767 22.5819 19.767 23.3915C19.767 24.2012 20.0371 24.9709 20.5573 25.6206C21.2476 26.5002 22.278 27 23.3885 27C24.499 27 25.5194 26.5002 26.2197 25.6206C26.7299 24.9709 27 24.2012 27 23.3915C27 22.5819 26.7299 21.8122 26.2197 21.1625H26.2097ZM22.118 24.3811C21.9579 24.1812 21.7678 23.8414 21.7678 23.3915C21.7678 22.9417 21.9579 22.6019 22.118 22.402C22.7482 21.6123 24.0088 21.6123 24.629 22.402C24.7891 22.6119 24.9792 22.9417 24.9792 23.3915C24.9792 23.8414 24.7891 24.1812 24.629 24.3811C23.9988 25.1708 22.7382 25.1708 22.118 24.3811ZM20.3473 6.89856C20.7274 7.2884 20.7274 7.90813 20.3473 8.28797C19.9571 8.66781 19.3368 8.66781 18.9567 8.28797C18.5765 7.89814 18.5765 7.2784 18.9567 6.89856C19.3468 6.51873 19.9671 6.51873 20.3473 6.89856ZM22.418 11.3368C22.9595 11.3368 23.3984 10.8982 23.3984 10.3572C23.3984 9.81621 22.9595 9.37764 22.418 9.37764C21.8765 9.37764 21.4376 9.81621 21.4376 10.3572C21.4376 10.8982 21.8765 11.3368 22.418 11.3368ZM15.3752 11.8664C15.7554 12.2562 15.7554 12.876 15.3752 13.2558C14.9851 13.6356 14.3648 13.6356 13.9846 13.2558C13.6045 12.866 13.6045 12.2462 13.9846 11.8664C14.3748 11.4866 14.9951 11.4866 15.3752 11.8664ZM16.7558 16.0146C17.136 16.3945 17.7562 16.3945 18.1464 16.0146C18.5266 15.6348 18.5266 15.0151 18.1464 14.6252C17.7662 14.2454 17.146 14.2454 16.7558 14.6252C16.3757 15.0051 16.3757 15.6248 16.7558 16.0146ZM16.7558 8.68777C16.7558 9.22878 16.3168 9.66735 15.7754 9.66735C15.2339 9.66735 14.7949 9.22878 14.7949 8.68777C14.7949 8.14676 15.2339 7.70819 15.7754 7.70819C16.3168 7.70819 16.7558 8.14676 16.7558 8.68777ZM18.5465 12.4362C19.088 12.4362 19.5269 11.9976 19.5269 11.4566C19.5269 10.9156 19.088 10.477 18.5465 10.477C18.0051 10.477 17.5661 10.9156 17.5661 11.4566C17.5661 11.9976 18.0051 12.4362 18.5465 12.4362ZM22.2981 14.2254C22.2981 14.7664 21.8592 15.205 21.3177 15.205C20.7762 15.205 20.3373 14.7664 20.3373 14.2254C20.3373 13.6844 20.7762 13.2459 21.3177 13.2459C21.8592 13.2459 22.2981 13.6844 22.2981 14.2254Z" fill="currentcolor"/>
</symbol>
</svg>
