<svg xmlns='http://www.w3.org/2000/svg' viewBox='0 0 30 30' fill='none'>
<symbol id='PickleBall'>
<path fill-rule="evenodd" clip-rule="evenodd" d="M24.4832 9.38147C25.1918 10.0905 25.5815 11.0287 25.5828 12.037C25.5815 13.0454 25.1918 13.9836 24.4832 14.6926L18.9749 20.2138C17.5154 21.6841 15.1261 21.6841 13.6566 20.2138C13.1267 19.6737 12.197 19.6737 11.6572 20.2138L6.76875 25.0948C6.46885 25.3849 6.07897 25.5549 5.64911 25.5549C5.21924 25.5549 4.82936 25.3949 4.52946 25.0948L3.4598 24.0246C2.84999 23.4045 2.84999 22.4042 3.4598 21.7941L7.60849 17.6232L8.33826 16.8931C8.88808 16.343 8.88808 15.4428 8.33826 14.8926C7.62848 14.1825 7.2386 13.2423 7.2386 12.2321C7.2386 11.2219 7.62848 10.2817 8.33826 9.57151L13.8465 4.06034C15.2661 2.64004 17.7453 2.64004 19.1648 4.06034L21.5841 6.48086L21.824 6.72091L22.0639 6.96096L24.4832 9.38147ZM25.5828 12.037C25.5828 12.0387 25.5828 12.0404 25.5828 12.042V12.032C25.5828 12.0337 25.5828 12.0354 25.5828 12.037ZM9.23797 18.8335L9.02804 19.0435L9.01804 19.0535L5.16926 22.9243L5.63911 23.3944L9.71782 19.3136L9.23797 18.8335ZM17.5553 18.8035L23.0636 13.2823V13.2923C23.4035 12.9622 23.5834 12.5221 23.5834 12.052C23.5834 11.5819 23.3935 11.1318 23.0636 10.8018L20.4044 8.14121L17.7453 5.48065C17.0855 4.8105 15.9259 4.8105 15.2561 5.48065L9.74781 10.9918C9.40792 11.3219 9.22797 11.762 9.22797 12.2321C9.22797 12.7022 9.41792 13.1523 9.74781 13.4823C10.3876 14.1325 10.7475 14.9927 10.7475 15.9029C10.7475 16.363 10.6575 16.8131 10.4776 17.2331L11.3273 18.0833C12.5769 17.5932 14.0964 17.8333 15.0661 18.8035C15.7359 19.4736 16.8956 19.4636 17.5553 18.8035ZM23.3836 19.7736C24.4832 19.7736 25.5129 20.2737 26.2127 21.1539H26.2227C26.7325 21.804 27.0024 22.5742 27.0024 23.3843C27.0024 24.1945 26.7225 24.9647 26.2127 25.6148C25.5229 26.495 24.4832 26.9951 23.3836 26.9951C22.2839 26.9951 21.2443 26.495 20.5545 25.6148C20.0346 24.9647 19.7647 24.1945 19.7647 23.3843C19.7647 22.5742 20.0446 21.804 20.5545 21.1539C21.2443 20.2737 22.2839 19.7736 23.3836 19.7736ZM21.7741 23.3944C21.7741 23.8444 21.964 24.1845 22.124 24.3846C22.7538 25.1747 24.0134 25.1747 24.6432 24.3846C24.8131 24.1845 25.0031 23.8444 25.0031 23.3944C25.0031 22.9443 24.8131 22.6142 24.6532 22.4041C24.0234 21.614 22.7638 21.614 22.134 22.4041C21.964 22.6042 21.7741 22.9443 21.7741 23.3944Z" fill="currentcolor"/>
</symbol>
</svg>
