<svg xmlns='http://www.w3.org/2000/svg' viewBox='0 0 30 30' fill='none'>
<symbol id='Running'>
<path fill-rule="evenodd" clip-rule="evenodd" d="M24.2711 16.2234L21.0825 15.8654C21.0125 15.8654 20.9525 15.8157 20.9225 15.766L17.7038 10.0779C17.1541 9.10332 15.8946 8.68566 14.885 9.15304C14.3652 9.3917 13.5956 9.6602 12.8159 9.53092C12.7859 9.49115 12.7559 9.42154 12.7759 9.34198L12.8059 9.16299V9.12321L12.9858 7.94978C13.0558 7.51223 12.8159 7.08463 12.416 6.90563L10.8567 6.1797C9.93707 5.75209 8.82753 6.11009 8.34773 7.01502L4.61927 13.9362C4.03951 14.9804 4.42935 16.2831 5.46892 16.8599L17.5439 23.4728C17.8738 23.6518 18.2436 23.7513 18.6235 23.7513H23.9313C25.6206 23.7513 27 22.379 27 20.6984V19.2863C27 17.735 25.8305 16.4323 24.2811 16.2533L24.2711 16.2234ZM7.32815 13.1109L10.0887 7.99507L10.8967 8.37739L10.8067 8.9641C10.6868 9.5707 10.8367 10.2071 11.1965 10.7044C11.5464 11.1817 12.0662 11.48 12.6459 11.5496C13.8155 11.6888 14.965 11.301 15.7147 10.9629C15.7747 10.9331 15.9146 10.9828 15.9546 11.0623L16.1645 11.4303L15.4348 11.7087C14.925 11.9076 14.6651 12.4844 14.865 12.9915C15.015 13.3893 15.3948 13.628 15.7946 13.628C15.9146 13.628 16.0345 13.6081 16.1545 13.5584L17.1641 13.1705L17.4739 13.7075L16.5443 14.0655C16.0345 14.2644 15.7747 14.8412 15.9746 15.3483C16.1245 15.7461 16.5043 15.9848 16.9042 15.9848C17.0241 15.9848 17.1441 15.9649 17.264 15.9152L18.4735 15.4577L19.1932 16.7306C19.5431 17.3471 20.1628 17.7549 20.8725 17.8344L24.0612 18.1924C24.601 18.2521 25.0108 18.7095 25.0108 19.2465V19.4852H19.1133L7.32815 13.1109ZM23.9213 21.7326H18.6135C18.6135 21.7326 18.5435 21.7326 18.5035 21.7027L6.42852 15.0898C6.34856 15.05 6.31857 14.9506 6.36855 14.8611L6.59845 14.4335L18.5435 20.8973C18.6535 20.9569 18.7734 20.9868 18.9034 20.9868H24.9309C24.7909 21.4144 24.4011 21.7326 23.9313 21.7326H23.9213ZM3.99959 21.2355H6.65848C7.20826 21.2355 7.65807 20.788 7.65807 20.241C7.65807 19.6941 7.20826 19.2466 6.65848 19.2466H3.99959C3.44981 19.2466 3 19.6941 3 20.241C3 20.788 3.44981 21.2355 3.99959 21.2355ZM3.99959 22.0111H10.187C10.7368 22.0111 11.1866 22.4586 11.1866 23.0056C11.1866 23.5525 10.7368 24 10.187 24H3.99959C3.44981 24 3 23.5525 3 23.0056C3 22.4586 3.44981 22.0111 3.99959 22.0111Z" fill="currentcolor"/>
</symbol>
</svg>
