<svg xmlns='http://www.w3.org/2000/svg' viewBox='0 0 30 30' fill='none'>
<symbol id='Sailing'>
<path fill-rule="evenodd" clip-rule="evenodd" d="M14.52 21.4298C9.15004 18.5092 4.73004 21.2692 4.54004 21.3896C4.08004 21.6907 3.46004 21.5502 3.16004 21.0885C2.86004 20.6269 2.99004 20.0046 3.45004 19.7035C3.65004 19.573 8.12004 16.7628 13.79 18.9106C13.77 18.6597 13.8 18.4188 13.95 18.2181C14.14 17.9572 14.44 17.8066 14.76 17.8066H19.74L19.62 16.7227H12.8C12.26 16.7227 11.82 16.2911 11.8 15.7491C11.79 15.4079 11.62 7.45901 18.72 3.13328H18.74C18.8 3.10318 18.87 3.0831 18.94 3.06303C18.96 3.05634 18.98 3.04742 19 3.0385C19.04 3.02065 19.08 3.00281 19.12 3.00281H19.14C19.1764 2.99673 19.2054 3.00171 19.2338 3.00657C19.2522 3.00973 19.2703 3.01285 19.29 3.01285C19.37 3.01285 19.45 3.01285 19.52 3.03292C19.58 3.04296 19.63 3.07307 19.68 3.10318L19.6801 3.10318C19.74 3.13329 19.8 3.1634 19.86 3.20354C19.907 3.23495 19.9417 3.27864 19.9785 3.32501C19.9887 3.33791 19.9992 3.35102 20.01 3.36412C20.0228 3.38126 20.0375 3.39474 20.0524 3.40846C20.0724 3.42689 20.0928 3.44576 20.11 3.47452V3.4946C20.1395 3.53151 20.1527 3.57929 20.1655 3.62595C20.1702 3.64271 20.1748 3.65934 20.18 3.67525C20.1863 3.69396 20.1944 3.71267 20.2027 3.73168C20.221 3.77386 20.24 3.81752 20.24 3.86595V3.88602L21.76 17.8066H24.97C25.29 17.8066 25.59 17.9572 25.78 18.2181C25.97 18.4791 26.02 18.8103 25.92 19.1214L25.77 19.573C26.17 19.4827 26.6 19.6433 26.83 20.0046C27.13 20.4663 27 21.0885 26.54 21.3896C26.5362 21.392 26.5308 21.3953 26.5239 21.3995C26.2653 21.5578 23.9004 23.0055 20.52 23.0055C18.75 23.0055 16.7 22.6141 14.52 21.4298ZM18.44 5.79295C14.8 8.7236 14.01 12.8386 13.85 14.7053H19.41L18.44 5.79295ZM23.59 19.8139H18.98V19.8039H16.12C16.1268 19.8377 16.1244 19.8761 16.1222 19.9128C16.1211 19.9306 16.12 19.9481 16.12 19.9645C19.07 21.3495 21.67 21.0785 23.38 20.5767C23.3835 20.5526 23.3857 20.5273 23.388 20.5017C23.3924 20.4526 23.3969 20.4021 23.41 20.3559L23.59 19.8139ZM25.45 23.698C25.92 23.3869 26.54 23.5274 26.84 23.9891H26.82C27.13 24.4608 26.99 25.083 26.53 25.3841C26.5261 25.3865 26.5207 25.3898 26.5138 25.394C26.2552 25.5523 23.8903 27 20.51 27C18.74 27 16.69 26.6086 14.51 25.4243C9.13995 22.5037 4.71995 25.2637 4.52995 25.3841C4.06995 25.6852 3.44995 25.5447 3.14995 25.083C2.85995 24.6214 2.98995 23.9991 3.44995 23.698C3.66995 23.5575 9.01995 20.1551 15.47 23.6579C20.89 26.5985 25.41 23.7281 25.45 23.698Z" fill="currentcolor"/>
</symbol>
</svg>
