<svg xmlns='http://www.w3.org/2000/svg' viewBox='0 0 30 30' fill='none'>
<symbol id='SaunaMen'>
<path fill-rule="evenodd" clip-rule="evenodd" d="M26.97 19.2331V19.0732L25.2385 11.6663C25.0384 10.207 23.7473 9.11742 22.226 9.11742H21.6455C22.6264 8.54766 23.2969 7.4981 23.2969 6.27862C23.2969 4.46938 21.8257 3 20.0142 3C18.2027 3 16.7314 4.46938 16.7314 6.27862C16.7314 7.48811 17.402 8.53766 18.3828 9.10742H17.8224C16.2911 9.10742 14.99 10.207 14.8198 11.5764L13.2285 18.4035H4.00083C3.45038 18.4035 3 18.8533 3 19.4031C3 19.9528 3.45038 20.4027 4.00083 20.4027H16.0209L16.2911 24.9907C16.3611 26.0803 17.2619 26.9499 18.3428 26.9599C18.9733 26.9799 19.5638 26.68 19.9441 26.2202C20.3244 26.69 20.8949 26.9899 21.5354 26.9899H21.5555C22.6364 26.9899 23.5371 26.1502 23.6272 25.0607L23.9775 20.4027H25.9992C26.5496 20.4027 27 19.9528 27 19.4031C27 19.3431 26.98 19.2831 26.96 19.2331H26.97ZM20.0042 4.99916C20.7148 4.99916 21.2852 5.57891 21.2852 6.27862C21.2852 6.97832 20.7048 7.55808 20.0042 7.55808C19.3036 7.55808 18.7231 6.97832 18.7231 6.27862C18.7231 5.57891 19.3036 4.99916 20.0042 4.99916ZM17.8324 11.1166H18.613C19.1635 11.1066 19.6138 10.6568 19.6038 10.097C19.6038 9.8671 19.5138 9.66719 19.3736 9.49726C19.5738 9.53724 19.784 9.55723 20.0042 9.55723C20.2244 9.55723 20.4245 9.53724 20.6247 9.49726C20.4946 9.66719 20.3945 9.8671 20.3945 10.097C20.3945 10.6468 20.8349 11.0966 21.3853 11.1066H22.206C22.7364 11.1066 23.1868 11.4664 23.2669 12.0262L24.1476 15.8246C23.6172 15.1149 22.7765 14.6651 21.8657 14.6651L18.2427 14.6451H18.2327C17.2519 14.6451 16.3711 15.1449 15.8507 15.9245L16.7815 11.9362C16.8415 11.4664 17.2919 11.1166 17.8324 11.1166ZM18.4429 24.8808C18.4429 24.9307 18.4028 24.9707 18.3728 24.9707C18.3728 24.9707 18.3028 24.9307 18.3028 24.8808L17.9625 19.1632C17.9625 19.0032 18.0425 18.9033 18.0926 18.8533C18.1426 18.8033 18.2427 18.7334 18.3728 18.7334C18.593 18.7334 18.7832 18.9333 18.7832 19.1232L18.4529 24.8908L18.4429 24.8808ZM18.3828 16.7342H18.3628C17.8123 16.7342 17.3019 16.9241 16.8816 17.264C17.0117 16.6143 17.5822 16.1445 18.2427 16.1445L21.8657 16.1644C22.4762 16.1644 23.0267 16.5843 23.1768 17.124L23.2269 17.3439C22.8165 16.9841 22.2861 16.7642 21.6956 16.7542C21.0651 16.7442 20.4846 16.9841 20.0342 17.4039C19.6038 16.9841 19.0234 16.7342 18.3928 16.7242L18.3828 16.7342ZM21.6355 24.9108C21.6355 24.9607 21.5955 24.9907 21.5655 24.9907C21.5354 24.9907 21.4954 24.9607 21.4954 24.9008L21.2652 19.1832C21.2652 19.0232 21.3453 18.9233 21.3953 18.8733C21.4354 18.8333 21.5354 18.7534 21.6756 18.7534C21.8957 18.7534 22.0759 18.9533 22.0859 19.1232L21.6455 24.9108H21.6355ZM7.91398 17.024C8.11415 17.2839 8.4144 17.4238 8.71465 17.4238C8.92482 17.4238 9.135 17.3639 9.31515 17.2239C9.75551 16.8941 9.84559 16.2643 9.51532 15.8245C9.51532 15.8245 9.22507 15.4047 9.56536 14.8649C10.4061 13.5055 9.93567 12.206 9.51532 11.6563C9.18504 11.2165 8.55451 11.1265 8.11415 11.4563C7.67378 11.7862 7.5837 12.4159 7.91398 12.8558C7.91398 12.8558 8.20422 13.2756 7.86394 13.8154C7.02324 15.1748 7.49363 16.4742 7.91398 17.024ZM5.48197 17.4238C5.18172 17.4238 4.88147 17.2839 4.68131 17.024C4.26096 16.4742 3.79056 15.1748 4.63126 13.8154C4.97155 13.2756 4.68131 12.8558 4.68131 12.8558C4.35103 12.4159 4.44111 11.7862 4.88147 11.4563C5.32184 11.1265 5.95236 11.2165 6.28264 11.6563C6.70299 12.206 7.17338 13.5055 6.33268 14.8649C5.9924 15.4047 6.28264 15.8245 6.28264 15.8245C6.61292 16.2643 6.52284 16.8941 6.08247 17.2239C5.90232 17.3639 5.69215 17.4238 5.48197 17.4238ZM11.1369 17.024C11.337 17.2839 11.6373 17.4238 11.9375 17.4238C12.1477 17.4238 12.3579 17.3639 12.538 17.2239C12.9784 16.8941 13.0685 16.2643 12.7382 15.8245C12.7382 15.8245 12.448 15.4047 12.7883 14.8649C13.629 13.5055 13.1586 12.206 12.7382 11.6563C12.4079 11.2165 11.7774 11.1265 11.337 11.4563C10.8967 11.7862 10.8066 12.4159 11.1369 12.8558C11.1369 12.8558 11.4271 13.2756 11.0868 13.8154C10.2461 15.1748 10.7165 16.4742 11.1369 17.024ZM4.87143 25.8105C4.87143 25.1508 5.66209 24.621 6.64291 24.621C7.62373 24.621 8.41438 25.1508 8.41438 25.8105C8.41438 26.4702 7.62373 27 6.64291 27C5.66209 27 4.87143 26.4702 4.87143 25.8105ZM10.7762 24.621C9.79542 24.621 9.00476 25.1508 9.00476 25.8105C9.00476 26.4702 9.79542 27 10.7762 27C11.7571 27 12.5477 26.4702 12.5477 25.8105C12.5477 25.1508 11.7571 24.621 10.7762 24.621ZM8.7147 22.052C9.69552 22.052 10.4862 22.5818 10.4862 23.2415C10.4862 23.9012 9.69552 24.431 8.7147 24.431C7.73389 24.431 6.94323 23.9012 6.94323 23.2415C6.94323 22.5818 7.73389 22.052 8.7147 22.052Z" fill="currentcolor"/>
</symbol>
</svg>
