<svg xmlns='http://www.w3.org/2000/svg' viewBox='0 0 30 30' fill='none'>
<symbol id='SaunaWomen'>
<path fill-rule="evenodd" clip-rule="evenodd" d="M26.93 19.1132V19.0732L25.1993 11.6663C24.9992 10.207 23.7086 9.11742 22.188 9.11742H21.6078C22.5882 8.54766 23.2584 7.4981 23.2584 6.27862C23.2584 4.46938 21.7878 3 19.9771 3C18.1663 3 16.6957 4.46938 16.6957 6.27862C16.6957 7.48811 17.366 8.53766 18.3464 9.10742H17.7862C16.2555 9.10742 14.955 10.207 14.7849 11.5764L13.1942 18.4035H4.00042C3.45019 18.4035 3 18.8533 3 19.4031C3 19.9528 3.45019 20.4027 4.00042 20.4027H16.0054L16.2755 24.9907C16.3456 26.0803 17.2459 26.9499 18.3264 26.9599C18.9867 26.9799 19.5469 26.68 19.9271 26.2202C20.3072 26.69 20.8775 26.9799 21.5177 26.9899H21.5377C22.6182 26.9899 23.5286 26.1402 23.6086 25.0607L23.9587 20.4027H25.9996C26.5498 20.4027 27 19.9528 27 19.4031C27 19.3031 26.97 19.2032 26.94 19.1132H26.93ZM19.9771 4.99916C20.6874 4.99916 21.2576 5.57891 21.2576 6.27862C21.2576 6.97832 20.6774 7.55808 19.9771 7.55808C19.2768 7.55808 18.6965 6.97832 18.6965 6.27862C18.6965 5.57891 19.2768 4.99916 19.9771 4.99916ZM16.7457 11.9362C16.8058 11.4664 17.2559 11.1166 17.7962 11.1166H18.5865C19.1367 11.1066 19.5869 10.6568 19.5769 10.097C19.5769 9.8671 19.4869 9.66719 19.3568 9.49726C19.5569 9.53724 19.767 9.55723 19.9771 9.55723C20.1872 9.55723 20.3872 9.53724 20.5773 9.49726C20.4573 9.66719 20.3672 9.8671 20.3672 10.097C20.3672 10.6468 20.8074 11.0966 21.3577 11.1066H22.178C22.7082 11.1066 23.1584 11.4664 23.2384 12.0262L24.719 18.4035H23.9687L22.9283 13.2657C22.7983 12.6359 22.238 12.1861 21.5877 12.1861H18.3764C17.7261 12.1861 17.1659 12.6459 17.0358 13.2657L15.9954 18.4035H15.2551L16.7557 11.9362H16.7457ZM18.4064 24.8808C18.4064 24.9307 18.3664 24.9707 18.3364 24.9707C18.3364 24.9707 18.2664 24.9407 18.2664 24.8808L17.9262 19.1632C17.9262 19.0032 18.0063 18.9033 18.0563 18.8533C18.1063 18.8033 18.2063 18.7334 18.3364 18.7334C18.5565 18.7334 18.7466 18.9333 18.7466 19.1232L18.4164 24.8908L18.4064 24.8808ZM18.3364 16.7342H18.3264C18.1563 16.7342 17.9962 16.7542 17.8362 16.7842L18.4664 13.6855H21.4677L22.098 16.8142C21.9479 16.7842 21.7978 16.7642 21.6378 16.7642C21.0575 16.7542 20.4273 16.9941 19.9771 17.4139C19.5469 16.9941 18.9667 16.7442 18.3364 16.7342ZM21.5977 24.9108C21.5977 24.9607 21.5577 24.9907 21.5277 24.9907C21.4977 24.9907 21.4577 24.9607 21.4577 24.9008L21.2276 19.1832C21.2276 19.0232 21.3076 18.9233 21.3577 18.8733C21.4077 18.8233 21.5077 18.7534 21.6378 18.7534C21.8579 18.7534 22.0479 18.9533 22.0479 19.1232L21.6078 24.9108H21.5977ZM4.68061 17.024C4.88069 17.2839 5.18081 17.4238 5.48094 17.4238C5.69103 17.4238 5.90111 17.3639 6.08119 17.2239C6.52137 16.8941 6.61141 16.2643 6.28127 15.8245C6.28127 15.8245 5.99115 15.4047 6.33129 14.8649C7.17164 13.5055 6.70145 12.206 6.28127 11.6563C5.95113 11.2165 5.32087 11.1265 4.88069 11.4563C4.44051 11.7862 4.35047 12.4159 4.68061 12.8558C4.68061 12.8558 4.97073 13.2756 4.63058 13.8154C3.79023 15.1748 4.26043 16.4742 4.68061 17.024ZM11.9438 17.4238C11.6437 17.4238 11.3436 17.2839 11.1435 17.024C10.7233 16.4742 10.2531 15.1748 11.0935 13.8154C11.4336 13.2756 11.1435 12.8558 11.1435 12.8558C10.8134 12.4159 10.9034 11.7862 11.3436 11.4563C11.7838 11.1265 12.414 11.2165 12.7442 11.6563C13.1643 12.206 13.6345 13.5055 12.7942 14.8649C12.454 15.4047 12.7442 15.8245 12.7442 15.8245C13.0743 16.2643 12.9843 16.8941 12.5441 17.2239C12.364 17.3639 12.1539 17.4238 11.9438 17.4238ZM7.91193 17.024C8.11202 17.2839 8.41214 17.4238 8.71227 17.4238C8.92235 17.4238 9.13244 17.3639 9.31252 17.2239C9.7527 16.8941 9.84274 16.2643 9.5126 15.8245C9.5126 15.8245 9.22248 15.4047 9.56262 14.8649C10.403 13.5055 9.93277 12.206 9.5126 11.6563C9.18246 11.2165 8.5522 11.1265 8.11202 11.4563C7.67183 11.7862 7.58179 12.4159 7.91193 12.8558C7.91193 12.8558 8.20205 13.2756 7.86191 13.8154C7.02156 15.1748 7.49176 16.4742 7.91193 17.024ZM4.87065 25.8105C4.87065 25.1508 5.66098 24.621 6.64139 24.621C7.6218 24.621 8.41213 25.1508 8.41213 25.8105C8.41213 26.4702 7.6218 27 6.64139 27C5.66098 27 4.87065 26.4702 4.87065 25.8105ZM10.773 24.621C9.79259 24.621 9.00226 25.1508 9.00226 25.8105C9.00226 26.4702 9.79259 27 10.773 27C11.7534 27 12.5437 26.4702 12.5437 25.8105C12.5437 25.1508 11.7534 24.621 10.773 24.621ZM8.71232 22.052C9.69273 22.052 10.4831 22.5818 10.4831 23.2415C10.4831 23.9012 9.69273 24.431 8.71232 24.431C7.73191 24.431 6.94158 23.9012 6.94158 23.2415C6.94158 22.5818 7.73191 22.052 8.71232 22.052Z" fill="currentcolor"/>
</symbol>
</svg>
