<svg xmlns='http://www.w3.org/2000/svg' viewBox='0 0 30 30' fill='none'>
<symbol id='ScubaDiving'>
<path d="M24.7845 7.05831V4.59933C24.7845 3.7197 24.0627 3 23.1805 3H20.8145C19.9724 3 19.2907 3.64973 19.2206 4.47938H11.7719C8.23308 4.47938 5.35589 7.25823 5.17544 10.7468C3.92231 11.1166 3 12.2561 3 13.6256V16.2945C3 18.4336 4.39348 20.3028 6.3183 20.9125C7.06015 22.0021 8.10276 22.8317 9.32581 23.3115C9.31579 23.4215 9.29574 23.5314 9.29574 23.6414C9.29574 25.4906 10.8095 27 12.6642 27C14.5188 27 16.0326 25.4906 16.0326 23.6414C16.0326 21.7922 14.5188 20.2828 12.6642 20.2828C11.6416 20.2828 10.7293 20.7526 10.1078 21.4723C9.73684 21.3324 9.37594 21.1524 9.05514 20.9125C10.5388 20.4627 11.7719 19.3132 12.2331 17.7539C12.3434 17.364 12.9749 17.364 13.0852 17.7539C13.6165 19.5531 15.1604 20.8026 16.9549 21.0625V26.0004C16.9549 26.5502 17.406 27 17.9574 27H25.9975C26.5489 27 27 26.5502 27 26.0004V10.6168C27 9.04748 26.0777 7.70804 24.7644 7.06831L24.7845 7.05831ZM12.6742 22.272C13.4261 22.272 14.0376 22.8817 14.0376 23.6314C14.0376 24.3811 13.4261 24.9908 12.6742 24.9908C11.9223 24.9908 11.3108 24.3811 11.3108 23.6314C11.3108 22.8817 11.9223 22.272 12.6742 22.272ZM21.2155 4.99917H22.7794V6.65848H21.2155V4.99917ZM11.782 6.47855H19.2105V7.05831C17.8872 7.69804 16.9749 9.03748 16.9749 10.6068H7.22055C7.46115 8.29779 9.39599 6.47855 11.782 6.47855ZM15.0301 17.1841C14.7293 16.1445 13.7569 15.4248 12.6742 15.4248C11.5915 15.4248 10.6291 16.1445 10.3183 17.1841C9.92732 18.5035 8.64411 19.3032 7.27068 19.0833C5.98747 18.8834 5.01504 17.6739 5.01504 16.2845V13.6156C5.01504 13.0558 5.46617 12.606 6.02757 12.606H19.3108C19.8722 12.606 20.3233 13.0658 20.3233 13.6156V16.2845C20.3233 17.6839 19.3509 18.8834 18.0677 19.0833C18.0677 19.0833 18.0476 19.0833 18.0376 19.0833C18.0075 19.0833 17.9875 19.0733 17.9674 19.0733C17.9173 19.0733 17.8772 19.0933 17.8271 19.1033C16.5338 19.1933 15.391 18.4236 15.0201 17.1841H15.0301ZM25.015 24.9908H18.9799V20.9125C20.9248 20.3228 22.3383 18.4436 22.3383 16.2845V13.6156C22.3383 11.9563 20.985 10.6068 19.3208 10.6068H18.9799C18.9799 9.56726 19.792 8.71762 20.8045 8.67763H23.1905C24.203 8.72761 25.015 9.56726 25.015 10.6068V24.9908Z" fill="currentcolor"/>
</symbol>
</svg>
