<svg xmlns='http://www.w3.org/2000/svg' viewBox='0 0 30 30' fill='none'>
<symbol id='Ski'>
<path fill-rule="evenodd" clip-rule="evenodd" d="M21.6221 8.28287L17.9098 14.8529L17.8797 14.8329L22.8763 23.6529C23.3278 24.4629 23.0469 25.4829 22.2342 25.9429L20.7693 26.7729C20.5084 26.9229 20.2275 26.9929 19.9466 26.9929C19.3546 26.9929 18.7827 26.6929 18.4716 26.1429L14.98 19.9729L11.4884 26.1429C11.1773 26.6929 10.6054 27.0029 10.0134 27.0029C9.73251 27.0029 9.45157 26.9329 9.1907 26.7829L7.72582 25.9529C6.91311 25.5029 6.62214 24.4729 7.08368 23.6629L12.0803 14.8429L8.35793 8.27287C8.09706 7.81287 6.65224 4.16287 8.38803 3.18287C10.1238 2.22287 12.5118 5.33287 12.7726 5.79287L14.99 9.70287L17.2074 5.79287C17.4984 5.29287 18.1606 4.54287 18.8228 3.98287C19.2342 3.63287 20.4884 2.57287 21.592 3.19287C21.8429 3.33287 22.174 3.62287 22.3345 4.19287C22.6857 5.44287 21.9934 7.62287 21.6221 8.28287ZM20.4181 5.28287C19.8864 5.68287 19.184 6.40287 18.9633 6.79287L16.1539 11.7629L16.7559 12.8229L19.8763 7.30287C20.0971 6.91287 20.3579 5.94287 20.4181 5.28287ZM9.00007 24.3929L9.91311 24.9029L13.8462 17.9629L13.2442 16.9029L9.00007 24.3929ZM10.1238 7.30287L20.077 24.9029L20.087 24.8929L21.0001 24.3829L11.0369 6.79287C10.8161 6.39287 10.1138 5.67287 9.58201 5.28287C9.65224 5.94287 9.90308 6.91287 10.1238 7.30287ZM5.46823 23.343V4.03296C5.46823 3.48296 5.01672 3.03296 4.46488 3.03296C3.91304 3.03296 3.46154 3.48296 3.46154 4.03296V23.343C3.19064 23.523 3 23.813 3 24.163C3 24.513 3.19064 24.803 3.46154 24.983V26.003C3.46154 26.553 3.91304 27.003 4.46488 27.003C5.01672 27.003 5.46823 26.553 5.46823 26.003V24.983C5.73913 24.803 5.92977 24.513 5.92977 24.163C5.92977 23.813 5.73913 23.523 5.46823 23.343ZM27 24.153C27 23.803 26.8094 23.513 26.5385 23.333V4.03296C26.5385 3.48296 26.087 3.03296 25.5351 3.03296C24.9833 3.03296 24.5318 3.48296 24.5318 4.03296V23.343C24.2609 23.523 24.0702 23.813 24.0702 24.163C24.0702 24.513 24.2609 24.803 24.5318 24.983V26.003C24.5318 26.553 24.9833 27.003 25.5351 27.003C26.087 27.003 26.5385 26.553 26.5385 26.003V24.983C26.8094 24.803 27 24.513 27 24.163V24.153Z" fill="currentcolor"/>
</symbol>
</svg>
