<svg xmlns='http://www.w3.org/2000/svg' viewBox='0 0 30 30' fill='none'>
<symbol id='Snowboard'>
<path fill-rule="evenodd" clip-rule="evenodd" d="M3 7.38C3 4.97 4.97083 3 7.39185 3C9.83288 3 11.8037 4.96 11.8037 7.38V22.6C11.8037 25.02 9.83288 26.99 7.41186 26.99H7.39185C4.97083 26.99 3 25.02 3 22.6V7.38ZM7.41186 24.99C8.73241 24.99 9.80287 23.92 9.80287 22.6V7.38C9.80287 6.07 8.75242 5 7.41186 5C6.07129 5 5.00084 6.06 5.00084 7.38V22.6C5.00084 23.92 6.07129 24.99 7.39185 24.99H7.41186ZM23.0884 22.0999L25.1592 22.6399H25.1692C26.2497 22.8999 27 23.8599 27 24.9699V25.4999C27 26.3299 26.3297 26.9999 25.4994 26.9999H14.7348C14.1546 26.9999 13.5944 26.7599 13.1942 26.3399C12.794 25.9199 12.5939 25.3499 12.6239 24.7699L12.9741 18.1599C13.0241 17.1999 13.8244 16.4399 14.7849 16.4399H18.0762H18.1063H21.8378C22.258 16.4399 22.6582 16.6099 22.9483 16.9199C23.2284 17.2299 23.3785 17.6499 23.3485 18.0699L23.0884 22.0999ZM21.1275 21.3999H19.3768H19.3668L19.3168 22.0999L21.1375 22.5799C21.0875 22.3799 21.0675 22.1699 21.0875 21.9599L21.1275 21.3999ZM19.5068 19.3999H21.2576L21.3176 18.4299H19.5669L19.5068 19.3999ZM17.3659 18.4299H17.3559H14.9549L14.9049 19.3999H17.496L17.556 18.4299H17.3659ZM14.6153 24.8705L14.7248 24.9899L21.2376 24.9599C21.2376 24.7799 21.1175 24.6199 20.9374 24.5799L18.8966 24.0899C17.9162 23.8599 17.2659 22.9599 17.3359 21.9599L17.3759 21.3999H14.8049L14.6153 24.8705ZM23.2284 24.9699H24.9791C24.9791 24.7899 24.8591 24.6299 24.679 24.5899L23.0984 24.2099C23.1774 24.4471 23.2272 24.694 23.2284 24.9699Z" fill="currentcolor"/>
</symbol>
</svg>
