<svg xmlns='http://www.w3.org/2000/svg' viewBox='0 0 30 30' fill='none'>
<symbol id='Snowshoeing'>
<path d="M26.3969 19.325C25.8872 19.1048 25.2974 19.335 25.0775 19.8456L24.7077 20.7066C24.5178 21.1471 24.1479 21.4675 23.7181 21.6076V20.8167C23.7181 19.1949 22.6186 17.7933 21.0393 17.4128L17.381 16.5318C16.9712 16.4317 16.6913 16.0513 16.7213 15.6208L17.1911 8.38244C17.231 7.84182 17.0411 7.31121 16.6813 6.92076C16.3115 6.53031 15.8017 6.30005 15.2619 6.30005H9.38457C8.08515 6.30005 7.00564 7.33123 6.92567 8.63273L6.28596 20.5064C6.26597 20.8968 6.32594 21.2773 6.44589 21.6377C5.91612 21.5175 5.45633 21.1471 5.26642 20.6265L4.93656 19.7555C4.73665 19.2349 4.16691 18.9746 3.64714 19.1748C3.12738 19.3651 2.86749 19.9457 3.0674 20.4663L3.39726 21.3373C3.92702 22.749 5.2964 23.7 6.80573 23.7H23.2084C24.6577 23.7 25.9671 22.8391 26.5469 21.5075L26.9167 20.6465C27.1366 20.136 26.9067 19.5453 26.3969 19.325ZM21.719 20.8167V21.6677H9.27462C9.00474 21.6677 8.74485 21.5576 8.55494 21.3574C8.36503 21.1571 8.27507 20.8968 8.28506 20.6165L8.77484 11.446H14.9921L14.9321 12.4371H13.6826C13.1329 12.4371 12.6831 12.8876 12.6831 13.4383C12.6831 13.9889 13.1229 14.4394 13.6826 14.4394H14.8121L14.7422 15.4806C14.7422 15.6007 14.7422 15.7309 14.7422 15.851L13.4527 16.8422C13.0129 17.1826 12.933 17.8033 13.2728 18.2438C13.4727 18.5041 13.7626 18.6342 14.0625 18.6342C14.2724 18.6342 14.4923 18.5641 14.6722 18.424L15.5718 17.7332C15.8417 17.9935 16.1615 18.2037 16.5314 18.3539L16.2615 19.4051C16.1215 19.9457 16.4514 20.4864 16.9812 20.6265C17.0611 20.6465 17.1511 20.6565 17.231 20.6565C17.6808 20.6565 18.0807 20.3562 18.2006 19.9057L18.4705 18.8645L20.5795 19.3751C21.2492 19.5353 21.729 20.136 21.729 20.8368L21.719 20.8167ZM9.39456 8.30235L15.202 8.23227L15.122 9.44366H8.88479L8.92477 8.73284C8.94477 8.48256 9.14468 8.29234 9.39456 8.29234V8.30235Z" fill="currentcolor"/>
</symbol>
</svg>
