<svg xmlns='http://www.w3.org/2000/svg' viewBox='0 0 30 30' fill='none'>
<symbol id='TableTennis'>
<path fill-rule="evenodd" clip-rule="evenodd" d="M17.8568 3C22.8991 3 27.001 7.1 27.001 12.14V12.15C27.001 16.8 23.5194 20.7 18.9073 21.23H18.8272C18.8122 21.23 18.7997 21.2325 18.7872 21.235C18.7747 21.2375 18.7622 21.24 18.7472 21.24C18.7072 21.23 14.5253 21.07 12.1442 21.55L7.37201 26.32C6.92181 26.77 6.36155 27 5.84132 27C5.43113 27 5.04095 26.86 4.74081 26.56L3.44022 25.26C2.76991 24.59 2.87996 23.43 3.68033 22.63L8.48252 17.82C8.94034 15.4843 8.80712 11.5308 8.79369 11.1324C8.79303 11.1129 8.79266 11.1019 8.79266 11.1C8.79266 11.075 8.79767 11.0525 8.80267 11.03C8.80767 11.0075 8.81267 10.985 8.81267 10.96V10.82C9.45297 6.36 13.3447 3 17.8568 3ZM25.0001 12.14C25.0001 8.2 21.7986 5 17.8568 5C14.4853 5 11.5639 7.41 10.8736 10.66L19.3475 19.13C22.609 18.44 25.0001 15.54 25.0001 12.14ZM11.8441 14.46L10.8236 13.44V13.45C10.8136 14.1 10.7936 14.82 10.7536 15.55L11.1437 15.16L11.8441 14.46ZM12.5644 16.57L5.10098 24.05H5.11098C5.10098 24.05 5.09097 24.07 5.09097 24.07L5.95137 24.93C5.95137 24.92 5.97138 24.91 5.97138 24.91L14.1451 16.75L13.2647 15.87L12.5644 16.57ZM16.5962 19.21L15.5457 18.16L14.4252 19.28C15.1856 19.23 15.9359 19.21 16.5962 19.21ZM23.8695 20.74C24.8299 20.74 25.7204 21.18 26.3206 21.94C26.7708 22.5 27.0009 23.17 27.0009 23.87C27.0009 24.57 26.7608 25.24 26.3206 25.8C25.7204 26.56 24.8299 27 23.8695 27C22.9091 27 22.0187 26.56 21.4184 25.8C20.9682 25.24 20.7381 24.57 20.7381 23.87C20.7381 23.17 20.9782 22.5 21.4184 21.94C22.0187 21.18 22.9091 20.74 23.8695 20.74ZM22.739 23.88C22.739 24.19 22.8791 24.43 22.9891 24.57C23.4293 25.12 24.3097 25.12 24.7499 24.57C24.86 24.43 25 24.19 25 23.88C25 23.57 24.86 23.33 24.7499 23.19C24.3097 22.64 23.4293 22.64 22.9891 23.19C22.8791 23.33 22.739 23.57 22.739 23.88Z" fill="currentcolor"/>
</symbol>
</svg>
