<svg xmlns='http://www.w3.org/2000/svg' viewBox='0 0 30 30' fill='none'>
<symbol id='Tennis'>
<path fill-rule="evenodd" clip-rule="evenodd" d="M19.8354 3.03007C21.8967 2.85014 23.7679 3.50989 25.1287 4.86937V4.87937C27.8904 7.62832 27.5502 12.4465 24.3783 15.6153C22.7873 17.2047 20.776 18.0744 18.8248 18.2043C18.8048 18.2083 18.7848 18.2155 18.7648 18.2227C18.7348 18.2335 18.7047 18.2443 18.6747 18.2443C15.3627 18.4742 11.9506 21.5031 11.9205 21.5331C11.8605 21.583 11.8005 21.613 11.7404 21.643L6.84739 26.5312C6.53719 26.841 6.12694 27.001 5.71668 27.001C5.30643 27.001 4.89618 26.841 4.58598 26.5312L3.46529 25.4116C2.8449 24.7918 2.8449 23.7722 3.46529 23.1524L7.78797 18.8141L8.52843 18.0744C8.73856 17.8444 11.4302 14.7156 11.7804 11.5868C11.8105 9.50761 12.691 7.32844 14.3921 5.62908C15.903 4.10966 17.8342 3.19001 19.8354 3.03007ZM23.2075 10.4972L24.5384 11.8267V11.8167C24.9486 10.8071 25.0887 9.74752 24.9386 8.76789L23.2075 10.4972ZM21.7867 15.1355C22.1969 14.8656 22.5972 14.5557 22.9674 14.1858H22.9574C23.2676 13.876 23.5477 13.5461 23.7879 13.1962L22.1469 11.5568L20.1757 13.5261L21.7867 15.1355ZM14.3821 14.0159C14.5622 14.3458 14.7723 14.6557 15.0525 14.9356C15.3326 15.2055 15.6328 15.4254 15.963 15.6153L18.0543 13.5261L16.4633 11.9367L14.3821 14.0159ZM19.4952 8.90784L17.524 10.8771L19.115 12.4665L21.0862 10.4972L19.4952 8.90784ZM16.7936 6.19887C16.4433 6.44877 16.1131 6.71867 15.8029 7.02855H15.8129C15.4427 7.39841 15.1325 7.79826 14.8624 8.2081L16.4633 9.8075L18.4346 7.83824L16.7936 6.19887ZM22.1469 9.42764L24.3983 7.17849C24.2182 6.84862 23.988 6.53874 23.7178 6.26884C23.4477 5.99894 23.1275 5.78902 22.7973 5.59909L20.5559 7.83824L22.1469 9.42764ZM21.2063 5.0593C20.9577 5.01957 20.7092 4.98971 20.4508 4.98933C20.3022 4.98955 20.144 4.99943 19.9955 5.00932C19.3752 5.0593 18.7648 5.22923 18.1744 5.46914L19.4852 6.77865L21.2063 5.0593ZM13.7916 11.466C13.7917 11.4666 13.7917 11.4669 13.7917 11.4669V11.4569C13.7917 11.4599 13.7917 11.463 13.7916 11.466ZM13.7817 11.3469C13.7817 11.3844 13.7905 11.4572 13.7916 11.466C13.791 11.4887 13.7886 11.5095 13.7863 11.5291C13.7839 11.5491 13.7817 11.5679 13.7817 11.5868C13.7817 11.8667 13.8017 12.1466 13.8417 12.4165L15.3927 10.8671L14.1419 9.61757C13.9318 10.1874 13.8117 10.7771 13.7817 11.3469ZM5.15634 24.262L5.70668 24.8118L9.80922 20.7134L9.24888 20.1536L9.19884 20.2036L5.15634 24.262ZM10.5997 18.6741L11.3302 19.4039C12.0806 18.8241 13.3314 17.9544 14.8223 17.2647C14.3921 17.0048 13.9918 16.7049 13.6316 16.345C13.2814 15.9952 12.9912 15.6153 12.741 15.2154C12.0506 16.6949 11.1701 17.9344 10.5997 18.6741ZM19.115 14.5757L17.544 16.1451C18.4546 16.285 19.4252 16.1751 20.3758 15.8352L19.115 14.5757ZM23.3778 19.7537C24.4784 19.7537 25.5091 20.2535 26.2095 21.1331H26.2195C26.7298 21.7829 27 22.5526 27 23.3623C27 24.172 26.7198 24.9417 26.2095 25.5914C25.5191 26.4711 24.4784 26.9709 23.3778 26.9709C22.2771 26.9709 21.2364 26.4711 20.546 25.5914C20.0257 24.9417 19.7555 24.172 19.7555 23.3623C19.7555 22.5526 20.0357 21.7829 20.546 21.1331C21.2364 20.2535 22.2771 19.7537 23.3778 19.7537ZM21.7668 23.3723C21.7668 23.8221 21.9569 24.162 22.117 24.3619C22.7474 25.1516 24.0081 25.1516 24.6385 24.3619C24.8086 24.162 24.9988 23.8221 24.9988 23.3723C24.9988 22.9225 24.8086 22.5926 24.6485 22.3827C24.0182 21.593 22.7574 21.593 22.127 22.3827C21.9569 22.5826 21.7668 22.9225 21.7668 23.3723Z" fill="currentcolor"/>
</symbol>
</svg>
