<svg xmlns='http://www.w3.org/2000/svg' viewBox='0 0 30 30' fill='none'>
<symbol id='Volleyball'>
<path d="M25.9983 25H25.7379V4C25.7379 3.45 25.2871 3 24.7362 3C24.1853 3 23.7346 3.45 23.7346 4V4.34H6.26544V4C6.26544 3.45 5.81469 3 5.26377 3C4.71286 3 4.2621 3.45 4.2621 4V25H4.00167C3.45075 25 3 25.45 3 26C3 26.55 3.45075 27 4.00167 27H25.9983C26.5492 27 27 26.55 27 26C27 25.45 26.5492 25 25.9983 25ZM23.7346 6.34V11.58H21.3406C20.0384 9.44 17.6845 8 15 8C12.3155 8 9.9616 9.44 8.65943 11.58H6.26544V6.34H23.7346ZM15.4007 16.11C17.7546 15.78 19.2771 14.66 20.1586 13.76C20.2988 14.18 20.379 14.62 20.409 15.07C19.8381 15.92 18.1452 17.98 14.7796 18.65C14.8397 17.41 15.1903 16.53 15.4107 16.12L15.4007 16.11ZM18.8765 12.9C17.5843 11.41 16.182 10.52 14.9299 10C14.9499 10 14.97 10 15 10C16.8331 10 18.4558 10.91 19.4374 12.31C19.2972 12.48 19.1068 12.69 18.8765 12.9ZM12.1953 10.79C13.3172 10.93 15.6411 11.51 17.6644 13.78C17.0334 14.14 16.2521 14.43 15.2905 14.58C14.7496 13.88 13.4574 12.54 11.0033 11.77C11.3539 11.39 11.7546 11.06 12.1953 10.79ZM10.1119 13.08C10.4424 13.17 10.7629 13.27 11.0434 13.38C10.4224 15 10.1619 16.5 10.1219 17.79C9.77129 17.07 9.57095 16.27 9.57095 15.42C9.57095 14.57 9.77129 13.79 10.1119 13.09V13.08ZM11.7245 19.72C11.5242 18.3 11.5442 16.31 12.4057 14.02C13.2771 14.54 13.788 15.1 14.0584 15.44C13.6578 16.25 12.9866 18.06 13.4073 20.59C12.7963 20.4 12.2254 20.1 11.7245 19.72ZM15 20.83C14.9499 20.59 14.8998 20.36 14.8698 20.14C17.0835 19.74 18.7062 18.82 19.828 17.89C18.9265 19.63 17.1035 20.83 15.01 20.83H15ZM6.26544 13.57H7.80801C7.65776 14.16 7.56761 14.77 7.56761 15.41C7.56761 19.5 10.9032 22.83 15 22.83C19.0968 22.83 22.4324 19.5 22.4324 15.41C22.4324 14.77 22.3422 14.16 22.192 13.57H23.7346V24.99H6.26544V13.57Z" fill="currentcolor"/>
</symbol>
</svg>
