<svg xmlns='http://www.w3.org/2000/svg' viewBox='0 0 30 30' fill='none'>
<symbol id='VTT'>
<path d="M21.79 13.0347C21.58 13.0347 21.37 13.0745 21.16 13.0944L20.11 9.89815C20.64 9.81849 21.35 9.65918 22.03 9.3505C22.53 9.12149 22.76 8.53401 22.53 8.03615C22.3 7.5383 21.71 7.30928 21.21 7.5383C20.31 7.94654 19.23 7.99633 19.24 7.99633C18.81 7.99633 18.4 8.20543 18.15 8.54397C17.9 8.89247 17.82 9.34055 17.96 9.74879L18.18 10.4259H12.35V9.3505L12.6 9.41025C12.68 9.43016 12.77 9.44012 12.85 9.44012C13.3 9.44012 13.7 9.1414 13.82 8.69333C13.96 8.15564 13.63 7.61795 13.1 7.48851L9.71 6.63219C9.17 6.49279 8.63 6.82138 8.5 7.34911C8.36 7.8868 8.69 8.42448 9.22 8.55393L10.36 8.84269V11.2125L9.5 13.2139C9.08 13.1044 8.65 13.0347 8.2 13.0347C5.33 13.0347 3 15.3547 3 18.2124C3 21.0701 5.33 23.3901 8.2 23.3901C10.76 23.3901 12.88 21.5381 13.31 19.1185H14.33C14.61 19.1185 14.88 18.999 15.07 18.7999L16.78 16.9478C16.68 17.3561 16.6 17.7743 16.6 18.2224C16.6 21.0801 18.93 23.4001 21.8 23.4001C24.67 23.4001 27 21.0801 27 18.2224C27 15.3646 24.67 13.0446 21.8 13.0446L21.79 13.0347ZM10.47 15.982C10.79 16.3006 11.03 16.6989 11.19 17.1271H9.98L10.47 15.982ZM8.19 21.3987C6.43 21.3987 4.99 19.9649 4.99 18.2124C4.99 16.4599 6.43 15.0261 8.19 15.0261C8.36 15.0261 8.52 15.046 8.69 15.0759L7.54 17.7345C7.41 18.0431 7.44 18.3916 7.62 18.6704C7.8 18.9492 8.12 19.1185 8.45 19.1185H11.23C10.83 20.4329 9.62 21.3987 8.18 21.3987H8.19ZM13.88 17.1271H13.27C13 15.8824 12.28 14.817 11.29 14.0802L12.01 12.4173H18.22L13.88 17.1271ZM21.79 21.3987C20.03 21.3987 18.59 19.9649 18.59 18.2124C18.59 17.1569 19.11 16.2309 19.9 15.6534L20.84 18.5211C20.98 18.9393 21.37 19.2081 21.79 19.2081C21.89 19.2081 22 19.1882 22.1 19.1583C22.63 18.9891 22.91 18.4215 22.74 17.9037L21.8 15.0261C23.56 15.0261 25 16.4599 25 18.2124C25 19.9649 23.56 21.3987 21.8 21.3987H21.79Z" fill="currentcolor"/>
</symbol>
</svg>
