<svg xmlns='http://www.w3.org/2000/svg' viewBox='0 0 30 30' fill='none'>
<symbol id='Waterpolo'>
<path fill-rule="evenodd" clip-rule="evenodd" d="M9.25006 20.14C6.52006 20.2 4.66006 21.34 4.54006 21.42H4.56006C4.09006 21.72 3.48006 21.58 3.18006 21.12C2.88006 20.66 3.01006 20.04 3.47006 19.74C3.48076 19.7347 3.50147 19.7221 3.53182 19.7038C3.61493 19.6537 3.7703 19.5599 3.99006 19.45L4.07006 19.41C4.14005 19.38 4.20004 19.35 4.28003 19.31L4.28006 19.31C4.28006 19.31 4.34006 19.29 4.41006 19.26C4.98006 19 6.02006 18.58 7.13006 18.38C7.14006 18.37 7.16006 18.37 7.18006 18.37C7.25006 18.35 7.32006 18.34 7.39006 18.34H7.35006C7.60006 18.29 7.85006 18.25 8.11006 18.22H8.12006C7.75006 17.33 7.55006 16.38 7.55006 15.4V15.38C7.55006 15.08 7.57006 14.79 7.61006 14.5C7.62006 14.47 7.63006 14.43 7.63006 14.4C7.67006 14.12 7.72006 13.85 7.79006 13.58C7.97006 12.86 8.26006 12.19 8.63006 11.57C9.12006 10.78 9.74006 10.08 10.4801 9.52C10.5001 9.5 10.5101 9.49 10.5301 9.48C10.7601 9.31 10.9901 9.15 11.2401 9.01C11.2501 9.005 11.2601 8.9975 11.2701 8.99C11.2801 8.9825 11.2901 8.975 11.3001 8.97C11.8101 8.68 12.3601 8.45 12.9301 8.29C12.9701 8.28 13.0126 8.27 13.0551 8.26C13.0976 8.25 13.1401 8.24 13.1801 8.23C13.3801 8.17 13.5901 8.13 13.8001 8.1C13.8451 8.095 13.8901 8.0875 13.9351 8.08C13.9801 8.0725 14.0251 8.065 14.0701 8.06C14.3501 8.02 14.6301 8 14.9201 8H14.9601C15.2601 8 15.5601 8.02 15.8601 8.06C15.8951 8.065 15.9326 8.07 15.9701 8.075C16.0076 8.08 16.0451 8.085 16.0801 8.09C16.3201 8.12 16.5601 8.17 16.7901 8.23C16.8151 8.235 16.8426 8.2425 16.8701 8.25C16.8976 8.2575 16.9251 8.265 16.9501 8.27C18.7701 8.78 20.3201 9.98 21.2801 11.56H21.2901C21.6601 12.17 21.9501 12.85 22.1301 13.56H22.1201C22.2701 14.15 22.3601 14.76 22.3601 15.39C22.3601 17.59 21.4001 19.6 19.8001 20.98H19.8201C21.4001 21.09 22.7601 20.82 23.7401 20.5C24.4801 20.29 25.7401 19.63 25.7401 19.63C26.1501 19.52 26.6001 19.66 26.8401 20.04C27.1401 20.5 27.0001 21.12 26.5401 21.42C26.3901 21.52 23.9901 23.03 20.5201 23.03C19.4501 23.03 18.2701 22.88 17.0201 22.5C16.2101 22.26 15.3801 21.92 14.5201 21.46C12.5901 20.42 10.7801 20.11 9.25006 20.14ZM11.9201 18.39C12.3701 18.49 12.8301 18.61 13.3001 18.77H13.3101C13.2201 17.18 13.6901 16.02 14.0401 15.41C13.7601 15.07 13.2501 14.53 12.4001 14.02C11.7701 15.77 11.7601 17.3 11.9201 18.39ZM15.8901 19.9C16.2701 20.09 16.6401 20.25 17.0101 20.38L17.0201 20.37C18.1701 19.9 19.0801 19.05 19.6601 18.01C18.7301 18.75 17.4901 19.46 15.8901 19.9ZM20.3201 15.16C20.3001 14.7 20.2101 14.25 20.0801 13.82C19.1801 14.71 17.6601 15.78 15.3601 16.1C15.1301 16.48 14.7301 17.36 14.7901 18.62C17.9901 17.98 19.6901 16.06 20.3201 15.16ZM19.4001 12.35C18.4201 10.93 16.7901 10 14.9401 10C16.1901 10.52 17.5901 11.4 18.8801 12.89C19.0901 12.7 19.2701 12.51 19.4001 12.35ZM17.6501 13.78C15.6301 11.49 13.3001 10.91 12.1801 10.78H12.1701C11.7201 11.05 11.3101 11.38 10.9601 11.76C13.4301 12.53 14.7401 13.87 15.2801 14.58C16.2401 14.43 17.0201 14.14 17.6501 13.78ZM11.0401 13.36C10.7501 13.25 10.4201 13.15 10.0801 13.06H10.0701C9.73006 13.77 9.52006 14.55 9.52006 15.39C9.52006 16.38 9.79006 17.33 10.3001 18.17H10.3801C10.2501 16.91 10.3401 15.24 11.0401 13.36ZM15.47 23.67C20.89 26.59 25.45 23.71 25.45 23.71V23.72C25.92 23.41 26.54 23.55 26.84 24.01C27.14 24.47 27 25.09 26.54 25.3899C26.39 25.49 23.99 27 20.52 27C18.75 27 16.7 26.61 14.52 25.43C9.14004 22.53 4.73004 25.27 4.54004 25.3899C4.08004 25.69 3.46004 25.55 3.16004 25.09C2.86004 24.63 2.99004 24.01 3.45004 23.71C3.67004 23.56 9.02004 20.19 15.47 23.67Z" fill="currentcolor"/>
</symbol>
</svg>
