<svg xmlns='http://www.w3.org/2000/svg' viewBox='0 0 30 30' fill='none'>
<symbol id='WaterVolley'>
<path fill-rule="evenodd" clip-rule="evenodd" d="M14.5219 21.4623C9.1424 18.5635 4.72456 21.3024 4.54424 21.4224C4.07341 21.7222 3.46232 21.5823 3.16179 21.1225C2.86126 20.6627 2.99149 20.0429 3.45231 19.7431C3.49238 19.7031 3.78289 19.5331 4.25373 19.3032V3.99959C4.25373 3.44981 4.70453 3 5.2555 3C5.80648 3 6.25728 3.44981 6.25728 3.99959V4.33944H23.7283V3.99959C23.7283 3.44981 24.1791 3 24.7301 3C25.281 3 25.7318 3.44981 25.7318 3.99959V19.6331C26.1426 19.5231 26.5934 19.6631 26.8338 20.0429C27.1443 20.5027 27.0041 21.1225 26.5433 21.4224C26.393 21.5223 23.9988 23.0317 20.5226 23.0317C18.7494 23.0317 16.6958 22.6418 14.5219 21.4623ZM15.8844 19.903C16.265 20.0929 16.6357 20.2528 17.0064 20.3828V20.3728C18.1584 19.903 19.07 19.0533 19.651 18.0138C18.7194 18.7535 17.4772 19.4632 15.8844 19.903ZM9.52308 15.3949C9.52308 16.3844 9.80357 17.3341 10.3045 18.1737H10.3746C10.2544 16.9142 10.3345 15.2449 11.0358 13.3657C10.7452 13.2557 10.4147 13.1558 10.0741 13.0658C9.73345 13.7755 9.52308 14.5552 9.52308 15.3949ZM14.0311 15.4148C13.7606 15.075 13.2497 14.5352 12.3982 14.0254C11.7671 15.7747 11.757 17.3041 11.9173 18.3936C12.3681 18.4936 12.8289 18.6135 13.2998 18.7735C13.2096 17.1841 13.6805 16.0246 14.0311 15.4148ZM20.3122 15.165C20.2922 14.7051 20.202 14.2553 20.0718 13.8255C19.1702 14.7151 17.6575 15.7847 15.3534 16.1046C15.123 16.4844 14.7223 17.364 14.7824 18.6235C17.9881 17.9838 19.6811 16.0646 20.3122 15.165ZM14.9227 10.0071C16.1649 10.5269 17.5673 11.4065 18.8596 12.8959C19.07 12.706 19.2503 12.5161 19.3806 12.3561C18.3988 10.9367 16.7659 10.0071 14.9227 10.0071ZM17.6375 13.7855C15.6139 11.4965 13.2898 10.9167 12.1678 10.7868H12.1577C11.707 11.0567 11.2962 11.3865 10.9456 11.7664C13.42 12.536 14.7223 13.8755 15.2633 14.5852C16.225 14.4353 17.0064 14.1454 17.6375 13.7855ZM19.7819 20.9733C21.3702 21.0813 22.7287 20.8119 23.7183 20.4927V13.5656H22.0954C22.2456 14.1554 22.3358 14.7651 22.3358 15.3949C22.3358 17.589 21.3684 19.5941 19.7819 20.9733ZM23.7183 11.5764V6.33861H23.7082H6.24726V11.5764H8.59142C9.89373 9.43733 12.2379 8.00792 14.9227 8.00792C17.6074 8.00792 19.9516 9.43733 21.2539 11.5764H23.7183ZM7.75995 13.5756H6.25728V18.5735C6.79824 18.4236 7.41934 18.3036 8.09053 18.2237C7.71988 17.3341 7.51952 16.3844 7.51952 15.4049C7.51952 14.7751 7.60968 14.1654 7.75995 13.5756ZM15.4636 23.6714C20.8832 26.5902 25.4413 23.7114 25.4413 23.7114L25.4513 23.7214C25.9121 23.4115 26.5333 23.5514 26.8338 24.0112C27.1443 24.4711 27.0041 25.0908 26.5433 25.3907C26.393 25.4906 23.9988 27 20.5226 27C18.7494 27 16.6958 26.6102 14.5219 25.4307C9.1424 22.5319 4.73458 25.2707 4.54424 25.3907C4.07341 25.6905 3.46232 25.5506 3.16179 25.0908C2.86126 24.631 2.99149 24.0112 3.45231 23.7114C3.6727 23.5614 9.02219 20.1928 15.4636 23.6714Z" fill="currentcolor"/>
</symbol>
</svg>
