<svg xmlns='http://www.w3.org/2000/svg' viewBox='0 0 30 30' fill='none'>
<symbol id='WaterSkiing'>
<path fill-rule="evenodd" clip-rule="evenodd" d="M14.5404 21.4522C9.17558 18.5433 4.75982 21.2923 4.57 21.4122L4.54003 21.4022C4.08047 21.7021 3.46106 21.5621 3.16135 21.1023C2.86164 20.6425 2.99151 20.0228 3.45107 19.7229C3.61092 19.6129 6.40824 17.8636 10.3445 18.1535L12.0428 15.1447L8.22649 8.37732C7.93677 7.85752 7.62707 6.8879 7.4872 6.00824C7.48563 5.99766 7.48399 5.98664 7.48229 5.97522C7.39723 5.40415 7.15929 3.80675 8.24647 3.18935C10.0148 2.19974 12.4425 5.38849 12.7022 5.8583L15 9.92671L17.2978 5.8583C17.5675 5.38849 19.9952 2.19974 21.7535 3.18935C23.5218 4.18896 22.0333 7.9175 21.7735 8.38731L17.9572 15.1547L21.1941 20.8924C21.207 20.9118 21.2116 20.9354 21.2159 20.9578C21.2182 20.97 21.2205 20.9818 21.224 20.9924C23.6917 20.8224 25.3501 19.8028 25.46 19.7329C25.9195 19.433 26.5389 19.5729 26.8387 20.0327C27.1384 20.4926 27.0085 21.1123 26.5489 21.4122C26.5451 21.4145 26.5397 21.4178 26.5328 21.422C26.2744 21.5797 23.9118 23.0216 20.5347 23.0216C18.7664 23.0216 16.7184 22.6317 14.5404 21.4522ZM20.6046 5.24854C20.0552 5.64839 19.2959 6.42808 19.0561 6.84792H19.0461L16.1589 11.9659L16.8083 13.1255L20.0352 7.4077C20.2749 6.97786 20.5447 5.92828 20.6046 5.24854ZM9.42534 5.25854C9.48529 5.92828 9.75503 6.98786 9.9948 7.4077V7.41769L17.2478 20.2827C17.2773 20.3269 17.2905 20.382 17.3034 20.4359C17.308 20.4551 17.3125 20.4742 17.3178 20.4926C17.8573 20.6725 18.3768 20.7924 18.8863 20.8824L10.9739 6.85791C10.7441 6.43808 9.97482 5.65838 9.42534 5.25854ZM13.2267 17.2027L12.4824 18.5133C13.0718 18.6633 13.6813 18.8532 14.3107 19.1231L13.2267 17.2027ZM25.4599 23.7113C25.9295 23.4014 26.5489 23.5414 26.8486 24.0012H26.8286C27.1383 24.471 26.9984 25.0907 26.5389 25.3906C26.535 25.393 26.5296 25.3962 26.5228 25.4004C26.2644 25.5581 23.9017 27 20.5247 27C18.7563 27 16.7083 26.6102 14.5304 25.4306C9.16554 22.5218 4.74977 25.2707 4.55995 25.3906C4.10039 25.6905 3.48099 25.5506 3.18127 25.0907C2.89155 24.6309 3.02143 24.0112 3.48099 23.7113C3.70078 23.5713 9.04565 20.1927 15.4895 23.6713C20.9043 26.6002 25.42 23.7413 25.4599 23.7113Z" fill="currentcolor"/>
</symbol>
</svg>
