<svg xmlns='http://www.w3.org/2000/svg' viewBox='0 0 30 30' fill='none'>
<symbol id='Wingfoil'>
<path fill-rule="evenodd" clip-rule="evenodd" d="M15.8752 6.77232C16.2353 6.40232 16.4053 5.88232 16.3253 5.36232C16.2453 4.85232 15.9152 4.40232 15.465 4.16232L14.4648 3.65232C12.2041 2.48232 9.4733 2.91232 7.69278 4.73232L4.6719 7.80232C2.88138 9.62232 2.49127 12.3423 3.70162 14.5923L4.23178 15.5723C4.47185 16.0323 4.93198 16.3423 5.44213 16.4223L5.46609 16.4253C5.5364 16.4342 5.60026 16.4423 5.67219 16.4423C6.11232 16.4423 6.53245 16.2723 6.84254 15.9523L9.25324 13.5123C9.66336 13.0923 10.2835 12.9223 10.8537 13.0623L11.944 13.3323L13.4244 14.8123C13.6245 15.0123 13.8746 15.1023 14.1347 15.1023C14.3947 15.1023 14.6448 15.0023 14.8449 14.8123C15.235 14.4223 15.235 13.7923 14.8449 13.4023L13.3544 11.9123L13.0643 10.8223C12.9143 10.2523 13.0743 9.63232 13.4945 9.21232L15.9052 6.77232H15.8752ZM12.044 7.81232C11.5339 8.32232 11.2238 8.98232 11.0838 9.67232L10.4336 9.02232C10.0435 8.63232 9.41328 8.63232 9.02317 9.02232C8.63306 9.41232 8.63306 10.0423 9.02317 10.4323L9.70337 11.1123C8.99316 11.2523 8.33297 11.5823 7.81282 12.1123L5.75222 14.2023L5.45213 13.6523C4.6619 12.1823 4.92198 10.4023 6.09232 9.21232L9.11319 6.14232C9.84341 5.40232 10.8137 5.01232 11.804 5.01232C12.3941 5.01232 12.9943 5.15232 13.5445 5.44232L14.1046 5.73232L12.044 7.82232V7.81232ZM4.54197 21.4223C4.73203 21.3023 9.14331 18.5523 14.5249 21.4623C16.7055 22.6423 18.7561 23.0323 20.5266 23.0323C23.9079 23.0323 26.2735 21.5899 26.5322 21.4321L26.5484 21.4223C27.0085 21.1223 27.1385 20.5023 26.8385 20.0423C26.5384 19.5823 25.9282 19.4423 25.458 19.7423C25.428 19.7623 25.258 19.8623 24.9979 19.9923C25.1079 18.5923 25.158 17.0423 25.158 15.3723C25.158 7.23232 21.3569 3.44232 21.1968 3.29232C20.8067 2.91232 20.1865 2.91232 19.8064 3.29232L19.8052 3.2935C19.6287 3.46991 15.8453 7.25123 15.8453 15.3723C15.8453 17.0323 15.8953 18.5623 16.0053 19.9523C15.8353 19.8723 15.6652 19.7923 15.4852 19.7023C9.04328 16.2123 3.69172 19.5923 3.47166 19.7423C3.01153 20.0423 2.88149 20.6623 3.18158 21.1223C3.48166 21.5823 4.09184 21.7223 4.56198 21.4223H4.54197ZM17.8358 15.3723C17.8358 10.2323 19.5163 7.04232 20.4966 5.60232C21.4769 7.03232 23.1574 10.2323 23.1574 15.3723C23.1574 17.3723 23.0774 19.1623 22.9173 20.7423C21.6469 21.0523 19.9665 21.1923 18.0659 20.7123C17.9159 19.1423 17.8358 17.3623 17.8358 15.3723ZM15.4651 23.6724C20.8467 26.5824 25.258 23.8324 25.448 23.7124H25.458C25.9282 23.4124 26.5383 23.5524 26.8384 24.0124C27.1385 24.4724 27.0085 25.0924 26.5483 25.3924C26.5445 25.3947 26.5391 25.398 26.5322 25.4022C26.2735 25.5599 23.9079 27.0024 20.5266 27.0024C18.7561 27.0024 16.7055 26.6124 14.5249 25.4324C9.14329 22.5224 4.73201 25.2724 4.54195 25.3924C4.07181 25.6924 3.46164 25.5524 3.16155 25.0924C2.86146 24.6324 2.9915 24.0124 3.45163 23.7124C3.6717 23.5724 9.02325 20.1824 15.4651 23.6724Z" fill="currentcolor"/>
</symbol>
</svg>
