<svg xmlns='http://www.w3.org/2000/svg' viewBox='0 0 30 30' fill='none'>
<symbol id='Yoga'>
<path d="M24.5411 18.5365L22.6198 16.1855C22.4479 15.9654 22.3266 15.7053 22.276 15.4252L21.5682 11.6136C21.3558 9.86286 19.8694 8.54231 18.1301 8.54231C17.9784 8.54231 17.8268 8.58233 17.6953 8.64235C18.1908 8.0421 18.4941 7.29179 18.4941 6.46144C18.4941 4.55065 16.9268 3 14.9954 3C13.0641 3 11.4967 4.55065 11.4967 6.46144C11.4967 7.29179 11.8102 8.0421 12.2956 8.64235C12.1641 8.58233 12.0225 8.53231 11.8607 8.53231C10.1114 8.53231 8.63504 9.85286 8.4328 11.5436L7.71486 15.4152C7.6643 15.6953 7.54296 15.9554 7.37105 16.1755L5.44979 18.5265C4.79252 19.3368 4.8633 20.5373 5.61158 21.2576C5.66214 21.3076 5.7127 21.3476 5.77337 21.3877L6.27897 21.6978C6.20819 21.9579 6.16774 22.218 6.16774 22.4881C6.16774 24.2388 7.60363 25.6594 9.37321 25.6594H9.73724C9.88892 25.9796 10.1114 26.2697 10.3945 26.4998C10.8091 26.8199 11.3248 27 11.8405 27C11.9619 27 12.0731 27 12.1944 26.97L20.648 25.6594C22.4176 25.6594 23.8535 24.2388 23.8535 22.4881C23.8535 22.208 23.8029 21.9379 23.7321 21.6778L24.2175 21.3777C24.2782 21.3376 24.3287 21.2976 24.3793 21.2476C25.1377 20.5273 25.2085 19.3268 24.5512 18.5065L24.5411 18.5365ZM14.9954 5.00083C15.8145 5.00083 16.4718 5.66111 16.4718 6.46144C16.4718 7.26178 15.8044 7.92205 14.9954 7.92205C14.1865 7.92205 13.5191 7.26178 13.5191 6.46144C13.5191 5.66111 14.1865 5.00083 14.9954 5.00083ZM11.881 25.0092C11.7596 25.0292 11.6787 24.9792 11.6484 24.9491C11.5978 24.9091 11.5473 24.8491 11.5372 24.7391C11.527 24.589 11.6181 24.4589 11.7697 24.4189L17.5537 23.0784C18.0998 22.9483 18.4335 22.4181 18.3121 21.8779C18.1807 21.3376 17.6346 21.0075 17.0987 21.1276L11.3147 22.4681C10.617 22.6282 10.0608 23.0884 9.75746 23.6786H9.38332C8.73616 23.6786 8.20023 23.1584 8.20023 22.5081C8.20023 22.178 8.3418 21.8779 8.57437 21.6578L10.8597 20.2272C12.1742 19.4068 12.9629 17.9963 12.973 16.4556C12.9798 13.6411 12.9292 12.1438 12.8214 11.9637C12.5382 11.4835 11.9113 11.3335 11.436 11.6136C11.0821 11.8237 10.9001 12.2138 10.9507 12.594C10.9709 12.9842 10.9507 15.4952 10.9507 16.4556C10.9507 17.306 10.5057 18.0863 9.77769 18.5465L7.42161 20.0171C7.42161 20.0171 7.39128 20.0371 7.38117 20.0471L7.00703 19.817L8.9384 17.446C9.32265 16.9658 9.58556 16.3956 9.69679 15.7953L10.4248 11.8637C10.5159 11.1134 11.1327 10.5531 11.8506 10.5531C12.4068 10.5531 12.8618 10.103 12.8618 9.55273C12.8618 9.40267 12.8214 9.26261 12.7607 9.13256C13.3674 9.63276 14.1359 9.94289 14.9853 9.94289C15.8347 9.94289 16.6032 9.63276 17.2099 9.13256C17.1493 9.26261 17.1088 9.40267 17.1088 9.55273C17.1088 10.103 17.5639 10.5531 18.12 10.5531C18.838 10.5531 19.4548 11.1234 19.5559 11.9237L20.2738 15.7953C20.3851 16.4056 20.648 16.9758 21.0322 17.446L22.9333 19.827L22.5996 20.0371C22.5996 20.0371 22.5794 20.0171 22.5692 20.0171L20.2132 18.5465C19.4851 18.0863 19.0503 17.306 19.0402 16.4556C19.0301 13.5244 19.0402 12.7741 19.0402 12.594C19.0908 12.2138 18.9087 11.8237 18.5548 11.6136C18.0796 11.3335 17.4526 11.4835 17.1695 11.9637C17.0549 12.1505 17.0043 13.6511 17.0178 16.4656C17.0178 18.0063 17.8167 19.4168 19.1312 20.2372L21.4165 21.6678C21.6592 21.8879 21.7906 22.198 21.7906 22.5281C21.7906 23.0784 21.3963 23.5185 20.8704 23.6386C20.8502 23.6386 20.83 23.6386 20.7997 23.6386L11.8405 25.0192L11.881 25.0092Z" fill="currentcolor"/>
</symbol>
</svg>
