<svg xmlns='http://www.w3.org/2000/svg' viewBox='0 0 30 30' fill='none'>
    <symbol id="BabyBottle">
        <path fill="currentColor" fill-rule="evenodd" d="M23 10.4c0-.44-.33-.81-.78-.93a4.47 4.47 0 0 0-4.1-4.01A3.1 3.1 0 0 0 14.99 3a3.1 3.1 0 0 0-3.12 2.46 4.45 4.45 0 0 0-4.09 4c-.44.13-.78.5-.78.95 0 .48.37.86.86.96v2.2a11.64 11.64 0 0 0-2.86.78V13a1 1 0 1 0-2 0v11a3 3 0 0 0 3 3h18a3 3 0 0 0 3-3V13a1 1 0 1 0-2 0v2.43l-.31.16a9.7 9.7 0 0 1-2.55.82v-5.04c.5-.1.86-.48.86-.96Zm-3.03 6.14V14.9h-2.52c-.6 0-1.09-.45-1.09-1s.49-1 1.09-1h2.52v-1.5h-9.94v2.06c1.65.08 3.52.54 5.47 1.68a9.97 9.97 0 0 0 4.47 1.4Zm-12.5-.88.39-.07v8.87c0 .19.02.37.06.54H6a1 1 0 0 1-1-1v-7.43l.31-.16c.5-.25 1.25-.55 2.15-.75ZM19.38 25h.03c.31-.02.55-.25.55-.54V23.4h-2.59c-.6 0-1.08-.45-1.08-1s.48-1 1.08-1h2.6v-2.27h-2.53c-.6 0-1.09-.45-1.09-1 0-.11.02-.23.06-.33-.63-.24-1.27-.54-1.92-.93a9.96 9.96 0 0 0-4.47-1.4v9c0 .3.26.53.58.53h8.78Zm2.75-6.56v6.02c0 .19-.02.37-.06.54H24a1 1 0 0 0 1-1v-6.35a11.79 11.79 0 0 1-2.86.79ZM12.41 7.43h.5c.6 0 1.09-.45 1.09-1v-.51c0-.51.44-.92 1-.92.55 0 1 .4 1 .92v.5c0 .56.48 1 1.08 1h.5c1.25 0 2.3.87 2.47 1.99H9.94a2.44 2.44 0 0 1 2.47-1.98Z" clip-rule="evenodd"/>
    </symbol>
</svg>