<svg xmlns='http://www.w3.org/2000/svg' viewBox='0 0 30 30' fill='none'>
<symbol id='ClothesDryer'>
<path fill-rule="evenodd" clip-rule="evenodd" d="M5.62109 3H24.3789C25.8195 3 27 4.17049 27 5.62109V24.3789C27 25.8195 25.8295 27 24.3789 27H5.62109C4.18049 27 3 25.8295 3 24.3789V5.62109C3 4.18049 4.17049 3 5.62109 3ZM24.3789 5.00083H5.62109C5.28095 5.00083 5.00083 5.28095 5.00083 5.62109V7.15173H24.9992V5.62109C24.9992 5.28095 24.7191 5.00083 24.3789 5.00083ZM5.62109 25.0092H24.3789H24.3889C24.7291 25.0092 25.0092 24.7291 25.0092 24.3889V9.16257H5.00083V24.3889C5.00083 24.7291 5.28095 25.0092 5.62109 25.0092ZM10.6633 21.3875C11.8238 22.548 13.3744 23.1883 15.0151 23.1883H15.0251C16.6658 23.1883 18.2064 22.548 19.3669 21.3875C20.5274 20.2271 21.1677 18.6764 21.1677 17.0357C21.1677 15.395 20.5274 13.8444 19.3669 12.6839C18.2064 11.5234 16.6558 10.8832 15.0151 10.8832C13.3744 10.8832 11.8238 11.5234 10.6633 12.6839C9.50282 13.8444 8.86255 15.395 8.86255 17.0357C8.86255 18.6764 9.50282 20.2271 10.6633 21.3875ZM12.0839 14.1045C12.8642 13.3142 13.9047 12.884 15.0151 12.884L15.0051 12.874C16.1056 12.874 17.156 13.3142 17.9363 14.0945C18.7267 14.8748 19.1568 15.9153 19.1568 17.0257C19.1568 18.1362 18.7267 19.1866 17.9463 19.967C17.166 20.7473 16.1256 21.1775 15.0151 21.1775C13.9147 21.1775 12.8642 20.7473 12.0839 19.967C11.3036 19.1866 10.8734 18.1362 10.8734 17.0357C10.8734 15.9353 11.3036 14.8848 12.0839 14.1045Z" fill="currentcolor"/>
</symbol>
</svg>
