<svg xmlns='http://www.w3.org/2000/svg' viewBox='0 0 30 30' fill='none'>
<symbol id='Concierge'>
<g clip-path="url(#clip0_3104_4095)">
<path fill-rule="evenodd" clip-rule="evenodd" d="M23.4179 18.6135L24.9762 25.7805C25.0946 26.3203 24.7593 26.85 24.2267 26.97C24.1478 26.99 24.0787 26.99 24.0097 26.99C23.556 26.99 23.1418 26.6701 23.0431 26.2003L21.4848 19.0333C21.1889 17.6439 19.8476 16.6443 18.309 16.6443H18.2794H17.658C17.1156 16.6443 16.6717 16.2045 16.6717 15.6547C16.6659 15.6253 16.6738 15.5993 16.6813 15.5747C16.6865 15.5576 16.6915 15.5412 16.6915 15.5248C16.1392 15.6947 15.5572 15.7947 14.9458 15.7947C14.3737 15.7947 13.8214 15.7047 13.2987 15.5448C13.3085 15.5747 13.3184 15.6047 13.3184 15.6447C13.3184 16.1945 12.8746 16.6343 12.3321 16.6343H11.691C10.1524 16.6343 8.82094 17.6339 8.5152 19.0233L6.95687 26.1903C6.84838 26.6601 6.44401 26.98 5.99032 26.98C5.91141 26.98 5.84237 26.98 5.77333 26.96C5.24074 26.84 4.90541 26.3103 5.02376 25.7705L6.58208 18.6035C7.07523 16.3444 9.14642 14.7151 11.5529 14.6551L11.4839 14.6152C10.0834 13.5456 9.16614 11.8563 9.16614 9.9371C9.16614 8.91753 9.4423 7.92794 9.93544 7.04831V5.17909C9.93544 3.97959 10.902 3 12.0855 3H17.8356C19.0191 3 19.9857 3.97959 19.9857 5.17909V7.0683C20.4689 7.94793 20.7451 8.92753 20.7451 9.9471C20.7451 11.8863 19.818 13.5956 18.3879 14.6651C20.8141 14.6951 22.9248 16.3344 23.4179 18.6135ZM12.0954 5.00916C11.9968 5.00916 11.9179 5.08913 11.9179 5.18909H11.9277V6.41857H18.023V5.18909C18.023 5.08913 17.9441 5.00916 17.8454 5.00916H12.0954ZM14.9556 13.8155C12.8593 13.8101 11.1486 12.0829 11.1486 9.9471C11.1486 9.41732 11.2669 8.89754 11.4642 8.41774H18.4471C18.6542 8.89754 18.7627 9.41732 18.7627 9.9471C18.7627 12.0729 17.0617 13.8101 14.9556 13.8155ZM15.5968 18.2336H17.4805C18.023 18.2336 18.4668 18.6834 18.4668 19.2332C18.4668 19.783 18.023 20.2328 17.4805 20.2328H15.5968C15.0543 20.2328 14.6105 19.783 14.6105 19.2332C14.6105 18.6834 15.0543 18.2336 15.5968 18.2336ZM20.755 20.5227C20.6268 19.9829 20.0942 19.6531 19.5715 19.783C19.0389 19.913 18.7134 20.4527 18.8416 20.9825L20.0646 26.2303C20.1731 26.6901 20.5775 27 21.0213 27C21.1002 27 21.1693 27 21.2482 26.97C21.7808 26.8401 22.1062 26.3003 21.978 25.7705L20.755 20.5227ZM9.26484 20.5226C9.38319 19.9929 9.92564 19.653 10.4484 19.783C10.9711 19.9029 11.3064 20.4427 11.1782 20.9825L9.95523 26.2303C9.84674 26.6901 9.44237 26.9999 8.99854 26.9999C8.91964 26.9999 8.8506 26.9899 8.7717 26.97C8.24897 26.85 7.91363 26.3102 8.04185 25.7705L9.26484 20.5226Z" fill="currentcolor"/>
</g>
<defs>
<clipPath id="clip0_3104_4095">
<rect width="30" height="30" fill="white"/>
</clipPath>
</defs>
</symbol>
</svg>
