<svg xmlns='http://www.w3.org/2000/svg' viewBox='0 0 30 30' fill='none'>
<symbol id='FourtyFive'>
<path fill-rule="evenodd" clip-rule="evenodd" d="M14.49 25.8598C14.64 25.9499 14.82 26 15 26C15.17 26 15.35 25.9499 15.51 25.8598C15.98 25.5794 27 18.8903 27 11.2499C27 5.33182 22.19 4 20.5 4C18.68 4 17.01 4.40055 15 6.203C12.99 4.39053 11.32 4 9.5 4C7.81 4 3 5.33182 3 11.2499C3 18.8903 14.02 25.5794 14.49 25.8598ZM5 11.2399C5 6.13291 9.5 5.99272 9.5 5.99272C10.9 5.99272 12.22 6.16295 14.29 8.27583C14.47 8.46609 14.73 8.57624 15 8.57624C15.26 8.57624 15.52 8.46609 15.71 8.27583C17.78 6.16295 19.11 5.99272 20.5 5.99272C20.54 5.99272 25 6.13291 25 11.2399C25 16.8976 17.11 22.4251 15 23.797C12.89 22.4251 5 16.9076 5 11.2399ZM14.0546 14.9962V10.1984H11.6628L8.37988 15.3956V17.0767H11.8168V18.4183H14.0546V17.0767H14.9721V14.9962H14.0546ZM11.8168 14.9962H11.074L11.8168 13.8146V14.9962ZM21.0323 14.0701L21.0287 14.0632L21.025 14.0564C20.7819 13.6219 20.4612 13.2795 20.0478 13.0275L20.0397 13.0228C19.6103 12.772 19.1441 12.6483 18.6227 12.6483C18.3317 12.6483 18.0633 12.6957 17.8115 12.7794L17.8634 12.2935H21.0159V10.1984H15.8847L15.4123 14.8372L17.3288 15.1452L17.511 14.94C17.5647 14.8794 17.6653 14.8064 17.8006 14.758L17.8151 14.7528L17.8294 14.7467C17.9512 14.6944 18.097 14.6705 18.2732 14.6705C18.4586 14.6705 18.6043 14.711 18.7241 14.7795C18.8377 14.8445 18.9385 14.9486 19.0187 15.0891C19.0838 15.2032 19.1275 15.3617 19.1275 15.5698C19.1275 15.7608 19.0849 15.9199 19.0187 16.036C18.949 16.158 18.8512 16.262 18.7204 16.3556C18.6015 16.4201 18.4735 16.4545 18.3023 16.4545C18.0739 16.4545 17.9006 16.3933 17.7729 16.2895C17.639 16.1805 17.5856 16.0751 17.5784 15.9251L17.5558 15.4483H15.312V15.949C15.312 16.4571 15.4818 16.9219 15.7547 17.3045C16.0228 17.6805 16.38 17.9831 16.8189 18.194C17.2612 18.4066 17.7596 18.5058 18.2877 18.5058C18.8632 18.5058 19.4058 18.3905 19.8774 18.118C20.3161 17.8645 20.7043 17.5168 20.9738 17.067L20.9781 17.0596C21.2406 16.604 21.38 16.0948 21.38 15.5406C21.38 14.9972 21.2603 14.5092 21.0323 14.0701Z" fill="currentcolor"/>
</symbol>
</svg>
