<svg xmlns='http://www.w3.org/2000/svg' viewBox='0 0 30 30' fill='none'>
<symbol id='KidSupervisory'>
<path fill-rule="evenodd" clip-rule="evenodd" d="M14.3415 11.0869C14.0915 9.87433 13.0915 8.90231 11.8615 8.69187H11.7715C12.5815 8.1307 13.1215 7.18874 13.1215 6.12652C13.1215 4.40293 11.7215 3 10.0115 3C8.30148 3 6.90148 4.40293 6.90148 6.12652C6.90148 7.18874 7.43148 8.1307 8.25148 8.69187H8.15148C6.91148 8.90231 5.91148 9.87433 5.67148 11.0869L5.35148 12.5199C5.23148 13.061 5.57148 13.6021 6.11148 13.7224C6.18148 13.7424 6.26148 13.7424 6.33148 13.7424C6.79148 13.7424 7.20148 13.4217 7.30148 12.9608L7.62148 11.5077C7.71148 11.0768 8.05148 10.7462 8.48148 10.666C9.02148 10.5758 9.39148 10.0547 9.30148 9.50356C9.27148 9.35325 9.21148 9.21296 9.13148 9.10273C9.41148 9.18289 9.71148 9.24302 10.0215 9.24302C10.3315 9.24302 10.6315 9.18289 10.9215 9.09271L10.9115 9.10273C10.8315 9.22298 10.7715 9.35325 10.7415 9.50356C10.6515 10.0547 11.0115 10.5658 11.5615 10.666C11.9915 10.7361 12.3415 11.0768 12.4215 11.5077L12.7415 12.9608C12.8415 13.4318 13.2615 13.7424 13.7115 13.7424C13.7815 13.7424 13.8615 13.7424 13.9315 13.7224C14.4715 13.6021 14.8115 13.061 14.6915 12.5199L14.3715 11.0869H14.3415ZM9.99148 7.23884C9.38148 7.23884 8.88148 6.73779 8.88148 6.12652C8.88148 5.51524 9.38148 5.00418 9.99148 5.00418C10.6015 5.00418 11.1015 5.50522 11.1015 6.12652C11.1015 6.74782 10.6015 7.23884 9.99148 7.23884ZM26.3916 6.88812C26.0616 6.8781 25.7816 6.7378 25.5816 6.47726C25.4719 6.33593 25.3806 6.18845 25.2885 6.03963C25.2631 5.99853 25.2376 5.95729 25.2116 5.91609C24.8116 5.2948 24.2816 5.12444 23.6616 5.36494C23.3216 4.01212 22.1016 3.01003 20.6516 3.01003C19.2016 3.01003 17.9816 4.02214 17.6416 5.36494C17.0316 5.12444 16.4916 5.28477 16.0916 5.91609C15.9716 6.10649 15.8516 6.29688 15.7216 6.47726C15.5216 6.74783 15.2516 6.8781 14.9116 6.88812H14.6216C14.8316 7.21881 15.0816 7.45931 15.4016 7.62966C15.8616 7.87017 16.6016 7.87017 17.0216 7.25889C17.0616 7.20378 17.0966 7.14866 17.1316 7.09355C17.1666 7.03843 17.2016 6.98332 17.2416 6.9282C17.3516 6.77789 17.4616 6.6376 17.5816 6.4973C17.6916 7.39918 18.1716 8.20086 18.8816 8.69188H18.7816C17.5416 8.90232 16.5416 9.87434 16.3016 11.0869L15.9816 12.5199C15.8616 13.061 16.2016 13.6021 16.7416 13.7224C16.8116 13.7424 16.8916 13.7424 16.9616 13.7424C17.4216 13.7424 17.8316 13.4217 17.9316 12.9608L18.2516 11.5078C18.3416 11.0769 18.6816 10.7462 19.1116 10.666C19.6516 10.5758 20.0216 10.0547 19.9316 9.50357C19.9016 9.35326 19.8416 9.21297 19.7616 9.10274C20.0416 9.1829 20.3416 9.24303 20.6516 9.24303C20.9616 9.24303 21.2616 9.1829 21.5516 9.09272L21.5416 9.10274C21.4616 9.22299 21.4016 9.35326 21.3716 9.50357C21.2816 10.0547 21.6416 10.5658 22.1916 10.666C22.6216 10.7361 22.9716 11.0769 23.0516 11.5078L23.3716 12.9608C23.4716 13.4318 23.8916 13.7424 24.3416 13.7424C24.4116 13.7424 24.4916 13.7424 24.5616 13.7224C25.1016 13.6021 25.4416 13.061 25.3216 12.5199L25.0016 11.0869C24.7516 9.87434 23.7516 8.90232 22.5216 8.69188H22.4316C23.1416 8.19083 23.6216 7.39918 23.7316 6.4973C23.8152 6.59507 23.894 6.69769 23.9713 6.79841C24.0049 6.8422 24.0382 6.88569 24.0716 6.9282C24.1116 6.98332 24.1466 7.03843 24.1816 7.09355C24.2166 7.14866 24.2516 7.20378 24.2916 7.25889C24.7116 7.87017 25.4616 7.87017 25.9116 7.62966C26.2316 7.45931 26.4816 7.21881 26.6916 6.88812H26.4016H26.3916ZM20.6616 7.23885C20.0516 7.23885 19.5516 6.7378 19.5516 6.12653C19.5516 5.51525 20.0516 5.00419 20.6616 5.00419C21.2716 5.00419 21.7716 5.50523 21.7716 6.12653C21.7716 6.74783 21.2716 7.23885 20.6616 7.23885ZM23.9615 18.2016C25.1115 17.8108 26.3715 18.4021 26.8215 19.5344L26.8315 19.4743C27.2815 20.5966 26.8115 21.8493 25.7415 22.3904C23.1815 23.6931 18.4915 25.9879 15.7715 26.7795C15.2515 26.9399 14.7515 27 14.2815 27C12.7115 27 11.4215 26.2785 10.3415 25.6672L10.3056 25.6469C9.76927 25.344 9.2706 25.0623 8.7815 24.8956C8.1815 24.6852 7.4815 24.7854 6.8515 25.1562L4.5615 26.519C4.0915 26.7996 3.4715 26.6493 3.1915 26.1683C2.9115 25.6973 3.0615 25.076 3.5415 24.7954L5.8315 23.4326C6.9615 22.7612 8.2815 22.6108 9.4415 23.0117C10.1015 23.2422 10.7215 23.5929 11.3215 23.9336C12.6215 24.6751 13.7515 25.3065 15.2115 24.8756C17.8715 24.104 22.8315 21.6488 24.8415 20.6267C24.9815 20.5566 25.0415 20.3962 24.9815 20.2459C24.9215 20.0956 24.7515 20.0255 24.6015 20.0756L18.3915 22.1399C17.9215 22.681 17.2615 23.0017 16.5615 23.0017C16.2115 23.0017 15.8615 22.9315 15.5215 22.7712L10.0815 20.2159C9.5815 19.9854 9.3715 19.3841 9.6015 18.8831C9.8315 18.382 10.4315 18.1616 10.9315 18.4021L16.3715 20.9574C16.5715 21.0476 16.8215 20.9674 16.9315 20.777C17.0115 20.6367 16.9915 20.5065 16.9715 20.4363C16.9515 20.3762 16.8915 20.2459 16.7415 20.1758L11.1915 17.5302C10.4215 17.1595 9.4915 17.2196 8.7715 17.6906L4.5415 20.4564C4.0815 20.757 3.4615 20.6267 3.1615 20.1657C2.8615 19.7048 2.9915 19.0835 3.4515 18.7829L7.6815 16.0171C8.9815 15.1753 10.6515 15.0651 12.0515 15.7265L17.6015 18.372C18.2115 18.6626 18.6815 19.2037 18.8815 19.8551V19.8852L23.9615 18.2016Z" fill="currentcolor"/>
</symbol>
</svg>
