<svg xmlns='http://www.w3.org/2000/svg' viewBox='0 0 30 30' fill='none'>
<symbol id='LuggageTransportation'>
<path fill-rule="evenodd" clip-rule="evenodd" d="M16.2389 6.86H15.7893V4.99C15.7893 3.89 14.9001 3 13.801 3H8.56535C7.46627 3 6.57701 3.89 6.57701 4.99V6.86H6.1174C4.39883 6.86 3 8.26 3 9.98V23.88C3 25.6 4.39883 27 6.1174 27H16.2389C17.9575 27 19.3464 25.6 19.3464 23.88V9.98C19.3464 8.26 17.9475 6.86 16.2389 6.86ZM8.57535 5.03L13.761 4.99V6.86H8.60532L8.57535 5.03ZM17.338 23.88C17.338 24.48 16.8484 24.96 16.2589 24.96H6.12739C5.52789 24.96 5.04829 24.47 5.04829 23.88V9.98C5.04829 9.38 5.53788 8.9 6.12739 8.9H16.2489C16.8484 8.9 17.328 9.39 17.328 9.98V23.88H17.338ZM20.1457 6.11996V6.01996H20.1657C20.1757 5.92996 20.1957 5.83996 20.2257 5.74996C20.2356 5.72996 20.2456 5.70996 20.2456 5.68996C20.2856 5.57996 20.3456 5.47996 20.4355 5.38996L22.2739 3.49996C22.6536 3.09996 23.2831 3.08996 23.6828 3.47996C24.0824 3.85996 24.0824 4.48996 23.7028 4.88996L23.5129 5.08996H26.0008C26.5504 5.08996 27 5.53996 27 6.08996C27 6.63996 26.5504 7.08996 26.0008 7.08996H23.5029L23.7028 7.28996C24.0824 7.67996 24.0824 8.30996 23.6828 8.69996C23.4829 8.88996 23.2431 8.97996 22.9834 8.97996C22.7236 8.97996 22.4638 8.87996 22.264 8.67996L20.4255 6.78996C20.4155 6.76996 20.4055 6.74996 20.3955 6.73996C20.3256 6.65996 20.2656 6.56996 20.2257 6.46996C20.2057 6.43996 20.1957 6.39996 20.1957 6.36996C20.1657 6.28996 20.1457 6.19996 20.1457 6.11996ZM26.98 13.3201V13.4201C26.97 13.5101 26.95 13.6001 26.9201 13.6901C26.9101 13.7101 26.9001 13.7301 26.9001 13.7501C26.8601 13.8601 26.8002 13.9601 26.7102 14.0501L24.8718 15.9401C24.6719 16.1401 24.4022 16.2401 24.1524 16.2401C23.9026 16.2401 23.6428 16.1501 23.4529 15.9601C23.0533 15.5801 23.0533 14.9501 23.433 14.5501L23.6228 14.3501H21.1349C20.5853 14.3501 20.1357 13.9001 20.1357 13.3501C20.1357 12.8001 20.5853 12.3501 21.1349 12.3501H23.6328L23.433 12.1501C23.0533 11.7601 23.0533 11.1301 23.4529 10.7401C23.8426 10.3601 24.4721 10.3601 24.8618 10.7601L26.7002 12.6501C26.7102 12.6701 26.7202 12.6901 26.7302 12.7001C26.8002 12.7801 26.8601 12.8701 26.9001 12.9701C26.913 12.9895 26.9176 13.0131 26.9219 13.0355C26.9242 13.0477 26.9265 13.0595 26.93 13.0701C26.96 13.1501 26.98 13.2401 26.98 13.3201ZM13.4014 11.26C13.4014 10.7 13.861 10.24 14.4205 10.24C14.99 10.24 15.4396 10.7 15.4396 11.26V23.25C15.4396 23.81 14.99 24.27 14.4205 24.27C13.851 24.27 13.4014 23.81 13.4014 23.25V11.26ZM11.1232 10.24C10.5637 10.24 10.1041 10.7 10.1041 11.26V23.25C10.1041 23.81 10.5537 24.27 11.1232 24.27C11.6927 24.27 12.1424 23.81 12.1424 23.25V11.26C12.1424 10.7 11.6927 10.24 11.1232 10.24ZM6.92678 11.26C6.92678 10.7 7.38639 10.24 7.94592 10.24C8.51545 10.24 8.96507 10.7 8.96507 11.26V23.25C8.96507 23.81 8.51545 24.27 7.94592 24.27C7.3764 24.27 6.92678 23.81 6.92678 23.25V11.26Z" fill="currentcolor"/>
</symbol>
</svg>
