<svg xmlns='http://www.w3.org/2000/svg' viewBox='0 0 30 30' fill='none'>
<symbol id='Maintenance'>
<path fill-rule="evenodd" clip-rule="evenodd" d="M11.2805 16.5613H8.64228C7.97273 16.5613 7.44308 16.1209 7.32316 15.4704C7.29318 15.3003 7.2632 15.1201 7.24321 14.95L7.19324 14.6297C7.19324 14.5862 7.18274 14.5426 7.17315 14.5029C7.16951 14.4878 7.16601 14.4733 7.16326 14.4596C7.12829 14.4395 7.09081 14.4195 7.05334 14.3995L7.05333 14.3995C7.01586 14.3795 6.97838 14.3595 6.94341 14.3395L6.064 14.6897C5.34447 14.97 4.7049 14.7498 4.30516 14.0892L3.17592 12.1877C2.87611 11.6772 2.96606 11.0167 3.39577 10.6063C3.47572 10.5363 3.54567 10.4762 3.62562 10.4162L3.91542 10.196C3.98531 10.141 4.05271 10.0885 4.1201 10.036L4.12029 10.0359L4.12046 10.0357C4.18786 9.98323 4.25526 9.93073 4.32515 9.87573V9.68557C4.13528 9.54546 3.9454 9.39533 3.75553 9.24521L3.52568 9.06506C3.00603 8.66472 2.86612 7.98416 3.18591 7.40367L3.18593 7.40364C3.33582 7.14343 3.48572 6.88323 3.6456 6.62302C3.80982 6.34015 3.96971 6.07025 4.12529 5.80765C4.20641 5.67072 4.28635 5.53577 4.36512 5.402C4.73488 4.8015 5.35447 4.59133 6.00403 4.84154L6.58365 5.07173C6.70357 5.12177 6.82349 5.17181 6.94341 5.21184C6.98338 5.19183 7.02086 5.17181 7.05834 5.15179C7.09581 5.13178 7.13329 5.11176 7.17326 5.09174L7.29318 4.25104C7.40311 3.46038 7.93275 3 8.71223 3H11.1606C11.9701 3 12.4897 3.46038 12.5997 4.25104L12.7196 5.09174C12.7995 5.13178 12.8795 5.17181 12.9494 5.21184C13.0194 5.18848 13.086 5.16171 13.1511 5.13551C13.1976 5.11681 13.2434 5.09841 13.2892 5.08174L13.8888 4.85154C14.5484 4.59133 15.1679 4.8015 15.5277 5.402C15.7276 5.72227 15.9174 6.04254 16.1073 6.37281L16.2272 6.58299C16.3072 6.7181 16.3871 6.85571 16.4671 6.99333L16.4671 6.99337C16.547 7.13097 16.627 7.26857 16.7069 7.40367C17.0267 7.97415 16.8868 8.65471 16.3671 9.06506L16.1073 9.26522L16.1073 9.26525L16.1072 9.26527C15.9274 9.40537 15.7475 9.54547 15.5577 9.68557V9.87573C15.6276 9.93077 15.6976 9.9833 15.7675 10.0358L15.7675 10.0359L15.7676 10.0359C15.8375 10.0884 15.9075 10.141 15.9774 10.196L16.2372 10.3962L16.2916 10.4395C16.3669 10.4992 16.4303 10.5495 16.4871 10.6063C16.9168 11.0267 17.0067 11.6772 16.7069 12.1977L15.5777 14.0993C15.1879 14.7598 14.5384 14.98 13.8188 14.6998L12.9394 14.3595C12.9045 14.3795 12.867 14.3995 12.8295 14.4195L12.8295 14.4195L12.8295 14.4195C12.792 14.4396 12.7545 14.4596 12.7196 14.4796C12.7196 14.517 12.7118 14.5544 12.7035 14.5943L12.7035 14.5943C12.6985 14.6184 12.6934 14.6433 12.6896 14.6697L12.6396 14.98C12.6225 15.1256 12.5981 15.2713 12.5726 15.4232L12.5726 15.4233L12.5597 15.5004C12.4398 16.151 11.9101 16.5913 11.2505 16.6013L11.2805 16.5613ZM9.2119 14.5596L10.7209 14.5296L10.7509 14.3395C10.7809 14.1693 10.8008 13.9992 10.8208 13.819C10.8508 13.5488 10.9907 13.0584 11.5903 12.7882L11.5991 12.784L11.5991 12.784C11.7854 12.6956 11.9519 12.6166 12.07 12.5279C12.2998 12.3478 12.7795 12.0976 13.4291 12.3578L14.1386 12.638L14.6983 11.6973C14.6242 11.6426 14.5517 11.5865 14.4796 11.5306L14.4795 11.5305C14.3665 11.4431 14.2544 11.3563 14.1386 11.2769C13.8888 11.0968 13.4791 10.6864 13.589 9.91577C13.599 9.81568 13.599 9.72561 13.589 9.62552C13.4791 8.84487 13.8988 8.42452 14.1586 8.23436C14.3385 8.10426 14.5184 7.97415 14.6883 7.84404C14.6633 7.799 14.6383 7.75647 14.6133 7.71393C14.5883 7.67139 14.5633 7.62886 14.5384 7.58382L14.4184 7.37365L14.1386 6.89325L14.0487 6.92327C13.8188 7.01335 13.589 7.10342 13.3492 7.1935C12.7595 7.40367 12.3298 7.18349 12.13 7.03336C12.01 6.94329 11.8601 6.86322 11.6703 6.78315C11.1906 6.58299 10.8708 6.17264 10.8108 5.6422L10.7209 4.98165H9.23189L9.14195 5.65221C9.08199 6.16264 8.7622 6.58299 8.28252 6.78315C8.09265 6.86322 7.94275 6.94329 7.82283 7.03336C7.62296 7.18349 7.19324 7.41368 6.60364 7.1935L5.88411 6.92327L5.81416 6.89325C5.74421 7.00834 5.67675 7.12344 5.6093 7.23853C5.54184 7.35363 5.47439 7.46873 5.40443 7.58382C5.37945 7.62886 5.35447 7.67139 5.32948 7.71393C5.3045 7.75647 5.27952 7.799 5.25453 7.84404C5.42442 7.98416 5.6043 8.11426 5.78418 8.23436C6.04401 8.41451 6.47372 8.84487 6.3538 9.62552C6.34381 9.7156 6.34381 9.80567 6.3538 9.91577C6.45374 10.6864 6.04401 11.0968 5.79417 11.2769C5.62319 11.3941 5.45221 11.5275 5.28853 11.6552L5.28852 11.6552L5.23455 11.6973L5.79417 12.648L6.5037 12.3678C7.15327 12.1076 7.63295 12.3678 7.85281 12.538C7.97273 12.628 8.14261 12.7081 8.34248 12.7982C8.78219 12.9983 9.062 13.3686 9.11197 13.829L9.1186 13.8824C9.13649 14.0267 9.15525 14.1781 9.18192 14.3294L9.2119 14.5596ZM9.96139 12.3277C8.55232 12.3277 7.41308 11.1768 7.41308 9.76559C7.41308 8.35441 8.56232 7.20346 9.96139 7.20346C11.3605 7.20346 12.5197 8.35441 12.5197 9.76559C12.5197 11.1768 11.3705 12.3277 9.96139 12.3277ZM9.96139 9.21513C9.65159 9.21513 9.41175 9.46534 9.41175 9.7756C9.41175 10.0859 9.66159 10.3361 9.96139 10.3361C10.2612 10.3361 10.521 10.0859 10.521 9.7756C10.521 9.46534 10.2712 9.21513 9.96139 9.21513ZM20.6542 27H23.8421H23.8521C24.6716 27 25.3411 26.3294 25.3411 25.5088V18.8632C26.3904 17.9725 27 16.6614 27 15.2602C27 13.3286 25.8508 11.6072 24.062 10.8766C23.7322 10.7364 23.3524 10.7765 23.0526 10.9766C22.7728 11.1668 22.5729 11.5471 22.5729 11.8774V14.4696C22.3731 14.5296 22.1532 14.5296 21.9534 14.4696V11.8774C21.9534 11.5271 21.7735 11.1868 21.4737 10.9866C21.2039 10.8065 20.7741 10.7565 20.4643 10.8866C18.2658 11.7873 17.0966 14.1493 17.6762 16.4912C17.916 17.462 18.3957 18.2327 19.1652 18.8732V25.5088C19.1652 26.3294 19.8348 27 20.6542 27ZM23.3324 24.9983H21.1539V18.3728C21.1539 18.0425 20.994 17.7323 20.7242 17.5421C20.1046 17.1218 19.7848 16.6714 19.6149 16.0008C19.415 15.1902 19.5549 14.3995 19.9547 13.779V15.03C19.9547 15.3703 20.1546 15.7406 20.4344 15.9308L20.5343 15.9908C21.6236 16.7214 23.0726 16.6814 24.1419 15.8907C24.3817 15.7106 24.5616 15.3503 24.5616 15.04V13.789C24.8314 14.2193 24.9913 14.7298 24.9913 15.2602C24.9913 16.181 24.5316 17.0317 23.7721 17.5421C23.5023 17.7223 23.3324 18.0425 23.3324 18.3728V24.9983Z" fill="currentcolor"/>
</symbol>
</svg>
