<svg xmlns='http://www.w3.org/2000/svg' viewBox='0 0 30 30' fill='none'>
<symbol id='Massage'>
<path d="M25.17 17.78L22.49 16.1C22.16 15.89 21.76 15.91 21.45 16.1C21.98 15.48 22.31 14.68 22.31 13.81C22.31 11.85 20.71 10.25 18.75 10.25C16.79 10.25 15.19 11.85 15.19 13.81C15.19 14.64 15.49 15.39 15.96 16C15.81 15.94 15.66 15.91 15.5 15.93L10.81 9.67C10.54 9.31 10.09 9.2 9.69 9.34C10.52 8.69 11.06 7.69 11.06 6.56C11.06 4.6 9.46 3 7.5 3C5.54 3 3.94 4.6 3.94 6.56C3.94 7.64 4.44 8.6 5.2 9.26C4.75 9.08 4.24 9.23 3.98 9.65C3.34 10.7 3 11.91 3 13.15V26C3 26.55 3.45 27 4 27C4.55 27 5 26.55 5 26V13.15C5 12.28 5.24 11.43 5.69 10.69C5.9 10.34 5.87 9.91 5.65 9.59C6.19 9.92 6.82 10.12 7.5 10.12C8.18 10.12 8.76 9.93 9.28 9.62C8.97 9.97 8.92 10.49 9.21 10.87L13.73 16.9L13.59 16.99L9.41 13.61C9.11 13.37 8.7 13.32 8.35 13.49C8 13.66 7.78 14.01 7.78 14.39V25.99C7.78 26.54 8.23 26.99 8.78 26.99C9.33 26.99 9.78 26.54 9.78 25.99V16.49L11.84 18.15C10.99 18.88 10.49 19.95 10.49 21.1V25.71C10.49 26.42 11.06 26.99 11.77 26.99H25.72C26.43 26.99 27 26.42 27 25.71V21.1C27 19.74 26.32 18.5 25.17 17.79V17.78ZM7.49 8.1C6.63 8.1 5.93 7.4 5.93 6.54C5.93 5.68 6.63 4.98 7.49 4.98C8.35 4.98 9.05 5.68 9.05 6.54C9.05 7.4 8.35 8.1 7.49 8.1ZM24.11 19.47C24.67 19.82 25 20.42 25 21.08V21.65H19.33C19.33 21.5 19.47 21.36 19.66 21.32L21.95 20.77C22.35 20.67 22.6 20.27 22.5 19.87C22.4 19.47 21.99 19.23 21.6 19.31L19.31 19.86C19.03 19.93 18.8 20.06 18.58 20.23C18.37 20.07 18.13 19.93 17.85 19.86L15.56 19.31C15.15 19.21 14.75 19.46 14.66 19.87C14.56 20.27 14.81 20.68 15.21 20.77L17.5 21.32C17.69 21.37 17.83 21.5 17.83 21.64H12.5V21.07C12.5 20.41 12.83 19.8 13.39 19.46L16.14 17.74C16.55 17.48 16.69 16.98 16.53 16.54C17.14 17.04 17.91 17.35 18.76 17.35C19.66 17.35 20.48 17 21.1 16.45C20.84 16.91 20.98 17.5 21.44 17.78L24.12 19.46L24.11 19.47ZM18.75 12.24C19.61 12.24 20.31 12.94 20.31 13.8C20.31 14.66 19.61 15.36 18.75 15.36C17.89 15.36 17.19 14.66 17.19 13.8C17.19 12.94 17.89 12.24 18.75 12.24ZM12.49 24.64V23.66H25V24.98H12.49V24.64Z" fill="currentcolor"/>
</symbol>
</svg>
