<svg xmlns='http://www.w3.org/2000/svg' viewBox='0 0 30 30' fill='none'>
<symbol id='Photographer'>
<path fill-rule="evenodd" clip-rule="evenodd" d="M24.21 7.97722H22.75L21.69 6.03291C21.35 5.41519 20.71 5.02025 19.99 5H16.91C16.21 5.02025 15.57 5.41519 15.24 6.03291L14.18 7.97722H11.57C11.68 7.81519 11.76 7.63291 11.76 7.42025C11.76 6.86329 11.31 6.4076 10.76 6.4076H6.97C6.42 6.4076 5.97 6.86329 5.97 7.42025C5.97 7.63291 6.05 7.81519 6.16 7.97722H5.77C4.24 7.97722 3 9.23291 3 10.7823V22.1949C3 23.7443 4.24 25 5.77 25H24.23C25.76 25 27 23.7443 27 22.1949V10.7823C27 9.23291 25.76 7.97722 24.23 7.97722H24.21ZM16.93 7.03544H19.93L20.45 7.97722H16.42L16.92 7.03544H16.93ZM24.98 22.1949C24.98 22.6203 24.64 22.9747 24.21 22.9747H5.75C5.33 22.9747 4.98 22.6203 4.98 22.1949V10.7823C4.98 10.357 5.32 10.0025 5.75 10.0025H24.21C24.63 10.0025 24.98 10.357 24.98 10.7823V22.1949ZM10.75 10.9036H6.95996C6.40996 10.9036 5.95996 11.3593 5.95996 11.9163C5.95996 12.4732 6.40996 12.9289 6.95996 12.9289H10.75C11.3 12.9289 11.75 12.4732 11.75 11.9163C11.75 11.3593 11.3 10.9036 10.75 10.9036ZM12.95 16.4834C12.95 13.4049 15.42 10.9036 18.4599 10.9036C21.5 10.9036 23.97 13.4049 23.97 16.4834C23.97 19.5619 21.5 22.0631 18.4599 22.0631C15.42 22.0631 12.95 19.5619 12.95 16.4834ZM14.95 16.4834C14.95 18.4378 16.52 20.0378 18.4599 20.0378C20.3899 20.0378 21.97 18.4378 21.97 16.4834C21.97 14.5289 20.3899 12.9289 18.4599 12.9289C16.53 12.9289 14.95 14.5289 14.95 16.4834Z" fill="currentcolor"/>
</symbol>
</svg>
