<svg xmlns='http://www.w3.org/2000/svg' viewBox='0 0 30 30' fill='none'>
<symbol id='Pressing'>
<path fill-rule="evenodd" clip-rule="evenodd" d="M26.9113 14.4L24.4022 5.32C24.0202 3.95 22.7399 3 21.2737 3H10.0398C9.47188 3 9.00724 3.45 9.00724 4C9.00724 4.55 9.47188 5 10.0398 5H21.2737C21.8106 5 22.2752 5.34 22.4094 5.84L23.4316 9.54H18.744C18.8163 9.4 18.8679 9.26 18.8679 9.09C18.8679 8.54 18.4032 8.09 17.8354 8.09H13.7775C13.2096 8.09 12.745 8.54 12.745 9.09C12.745 9.25 12.7966 9.4 12.8689 9.54C8.75944 9.58 5.08364 12.09 3.70005 15.82L3.05989 17.55C2.94631 17.86 2.99794 18.2 3.18379 18.46C3.36965 18.72 3.68973 18.88 4.03046 18.89L23.7104 18.94C23.9892 18.94 24.2577 18.83 24.4538 18.63L26.2711 16.8C26.9009 16.16 27.1487 15.24 26.9113 14.38V14.4ZM24.7739 15.43L23.2664 16.95L5.49665 16.9L5.64121 16.5C6.73568 13.53 9.68871 11.54 12.9618 11.54H23.9789L24.9082 14.92C24.9598 15.1 24.9082 15.29 24.7739 15.43ZM22.1408 12.1499H19.2704C18.7025 12.1499 18.2378 12.5999 18.2378 13.1499C18.2378 13.6999 18.7025 14.1499 19.2704 14.1499H22.1408C22.7087 14.1499 23.1733 13.6999 23.1733 13.1499C23.1733 12.5999 22.7087 12.1499 22.1408 12.1499ZM21.5729 22.9299C21.5729 22.3799 22.0376 21.9299 22.6055 21.9299C23.1734 21.9299 23.638 22.3799 23.638 22.9299C23.638 24.4899 22.0376 25.7199 19.9829 25.7199C19.4563 25.7199 18.94 25.6299 18.465 25.4699C17.639 26.4199 16.2245 26.9999 14.6344 26.9999C13.0443 26.9999 11.6297 26.4099 10.8037 25.4699C10.3287 25.6299 9.81246 25.7199 9.28587 25.7199C7.24147 25.7199 5.63073 24.4999 5.63073 22.9299C5.63073 22.3799 6.09536 21.9299 6.66325 21.9299C7.23114 21.9299 7.69578 22.3799 7.69578 22.9299C7.69578 23.2399 8.32562 23.7199 9.28587 23.7199C9.78149 23.7199 10.2564 23.5899 10.5765 23.3599C10.845 23.1699 11.1857 23.1199 11.4955 23.2099C11.8052 23.2999 12.053 23.5299 12.1666 23.8299C12.3731 24.3999 13.3127 25.0099 14.6344 25.0099C15.956 25.0099 16.8956 24.3999 17.1021 23.8299C17.2054 23.5299 17.4635 23.2999 17.7732 23.2099C18.083 23.1099 18.4237 23.1699 18.6922 23.3599C19.0226 23.5899 19.4872 23.7199 19.9829 23.7199C20.9328 23.7199 21.5729 23.2499 21.5729 22.9299Z" fill="currentcolor"/>
</symbol>
</svg>
