<svg xmlns='http://www.w3.org/2000/svg' viewBox='0 0 30 30' fill='none'>
<symbol id='SkiInAndOut'>
<path fill-rule="evenodd" clip-rule="evenodd" d="M12.3 3C10.32 3 9.79004 6.88 9.79004 7.4V25.21C9.79004 26.14 10.54 26.89 11.47 26.89H13.14C14.07 26.89 14.82 26.14 14.82 25.21V7.4C14.82 6.88 14.29 3 12.31 3H12.3ZM11.79 24.89V7.4C11.79 6.96 12.04 6.01 12.3 5.41C12.56 6.01 12.81 6.96 12.81 7.4V24.88V24.89H11.79ZM5.51 3.1001C3.53 3.1001 3 6.9801 3 7.5001V25.3101C3 26.2401 3.75 26.9901 4.68 26.9901H6.35C7.28 26.9901 8.03 26.2301 8.03 25.3101V7.5101C8.03 6.9901 7.5 3.1101 5.52 3.1101L5.51 3.1001ZM6.02 24.9901H5V7.5101C5 7.0701 5.25 6.1201 5.51 5.5201C5.77 6.1201 6.02 7.0701 6.02 7.5101V24.9901ZM24.13 21.7598L25.7 22.8598V22.8698C26.49 23.2898 26.99 24.1198 26.99 25.0298V25.9998C26.99 26.5498 26.54 26.9998 25.99 26.9998H18.48C17.98 26.9998 17.56 26.6398 17.49 26.1498L17.4869 26.1265C17.4441 25.8055 17.1772 23.8044 17.78 22.2098C18.0642 21.4452 18.2524 20.1811 18.3916 19.2461L18.4 19.1898L18.4141 19.098C18.5442 18.2518 18.6045 17.8598 18.73 17.5798C19.05 16.8598 19.77 16.5298 20.3 16.4698C20.65 16.4298 21 16.5798 21.21 16.8598C21.31 16.9998 21.43 17.1197 21.54 17.2297L21.54 17.2297L21.54 17.2298C22.83 16.5798 24.13 17.3898 24.28 17.4898C24.62 17.7098 24.79 18.1098 24.72 18.5098L24.13 21.7598ZM19.66 22.9098C19.42 23.5298 19.38 24.3498 19.4 24.9898L19.39 24.9998H24.98C24.97 24.8498 24.88 24.7098 24.75 24.6398L24.5 24.5098C24.46 24.4898 24.38 24.4398 24.38 24.4398L22.92 23.3798L21.85 23.8998C21.71 23.9698 21.57 23.9998 21.42 23.9998C21.05 23.9998 20.69 23.7898 20.52 23.4298C20.28 22.9298 20.49 22.3298 20.99 22.0898L22.14 21.5298L22.6 18.9998C22.53 18.9998 22.46 19.0098 22.41 19.0398C21.8 19.3898 21.04 19.3398 20.46 18.9398C20.4441 19.0296 20.4311 19.125 20.4179 19.2216C20.4061 19.3078 20.3941 19.3949 20.38 19.4798L20.3612 19.6082C20.2049 20.675 20.0156 21.9679 19.66 22.9098ZM26.99 12.7101V12.6101C26.99 12.5301 26.97 12.4401 26.95 12.3601C26.95 12.3301 26.94 12.2901 26.92 12.2601C26.88 12.1601 26.82 12.0701 26.75 11.9901C26.74 11.9801 26.73 11.9601 26.72 11.9401L24.88 10.0501C24.49 9.65011 23.86 9.65011 23.47 10.0301C23.07 10.4201 23.07 11.0501 23.45 11.4401L23.65 11.6401H21.16C20.61 11.6401 20.16 12.0901 20.16 12.6401C20.16 13.1901 20.61 13.6401 21.16 13.6401H23.65L23.46 13.8401C23.08 14.2401 23.08 14.8701 23.48 15.2501C23.67 15.4401 23.92 15.5301 24.18 15.5301C24.44 15.5301 24.7 15.4301 24.89 15.2301L26.73 13.3401C26.82 13.2501 26.88 13.1501 26.92 13.0401C26.92 13.0201 26.93 13.0001 26.94 12.9801C26.97 12.8901 26.99 12.8001 27 12.7101H26.99ZM20.17 6.12997V6.02997H20.16C20.17 5.93997 20.19 5.84997 20.22 5.75997C20.23 5.73997 20.24 5.71997 20.24 5.69997C20.28 5.58997 20.34 5.48997 20.43 5.39997L22.27 3.50997C22.65 3.10997 23.29 3.09997 23.68 3.48997C24.08 3.86997 24.08 4.49997 23.7 4.89997L23.51 5.09997H26C26.55 5.09997 27 5.54997 27 6.09997C27 6.64997 26.55 7.09997 26 7.09997H23.51L23.71 7.29997C24.09 7.68997 24.09 8.31997 23.69 8.70997C23.49 8.89997 23.25 8.98997 22.99 8.98997C22.73 8.98997 22.48 8.88997 22.28 8.68997L20.44 6.79997C20.43 6.77997 20.42 6.75997 20.41 6.74997C20.34 6.66997 20.28 6.57997 20.24 6.47997C20.22 6.44997 20.21 6.40997 20.21 6.37997C20.19 6.29997 20.17 6.20997 20.17 6.12997Z" fill="currentcolor"/>
</symbol>
</svg>
