<svg xmlns='http://www.w3.org/2000/svg' viewBox='0 0 30 30' fill='none'>
<symbol id='Spa'>
<path d="M26.9615 11.7427C26.9615 11.6295 26.9515 11.506 26.9115 11.3928C26.8715 11.2487 26.7915 11.1149 26.6915 11.012C26.5815 10.8885 26.4515 10.7959 26.3015 10.7341C26.1815 10.693 26.0815 10.6518 25.9415 10.6724C25.5215 10.6312 24.3615 10.5489 22.9015 10.7959C22.5215 9.16981 21.8915 7.96569 21.6115 7.48199C21.5615 7.3482 21.4815 7.2247 21.3815 7.12178C21.1915 6.92624 20.9315 6.82333 20.6715 6.82333C20.6215 6.82333 20.5815 6.82333 20.5315 6.82333C20.4215 6.83362 20.3115 6.87479 20.2115 6.92624C19.8115 7.07033 18.7715 7.50257 17.6015 8.3259C16.8315 7.27616 16.0815 6.59691 15.7615 6.32933C15.6715 6.23671 15.5715 6.15437 15.4515 6.09262C15.3215 6.03087 15.1915 6 15.0515 6C14.8715 6 14.7215 6.03087 14.5715 6.10292C14.4715 6.15437 14.3715 6.22641 14.2915 6.30875C13.9815 6.56604 13.2115 7.25557 12.4315 8.3259C11.2815 7.51286 10.2515 7.09091 9.84151 6.93654C9.72151 6.87479 9.59151 6.83362 9.46151 6.82333C9.33151 6.82333 9.18151 6.82333 9.05151 6.87479C8.90151 6.92624 8.76151 7.00858 8.64151 7.13208C8.56151 7.21441 8.49151 7.31732 8.44151 7.42024C8.19151 7.8422 7.52151 9.08748 7.12151 10.7856C5.69151 10.5386 4.54151 10.6209 4.10151 10.6621C4.00151 10.6621 3.89151 10.6724 3.79151 10.7033C3.65151 10.7444 3.52151 10.8165 3.41151 10.9194C3.28151 11.0429 3.17151 11.1973 3.11151 11.3722C3.07151 11.4854 3.05151 11.6089 3.05151 11.7221C2.95151 12.6792 2.68151 17.2075 5.92151 20.542C9.16151 23.8765 13.7715 23.9897 14.8315 23.9897C14.8815 23.9897 14.9315 24 14.9815 24C14.9815 24 15.0015 24 15.0115 24C15.0515 24 15.0915 24 15.1215 24C16.0715 24 20.8615 23.8559 24.0815 20.5523C27.2915 17.2487 27.0515 12.741 26.9515 11.753L26.9615 11.7427ZM20.2115 9.14923C20.4515 9.65352 20.7515 10.4151 20.9515 11.3105C20.4415 11.4957 19.9215 11.7324 19.4015 12.0309C19.2115 11.3208 18.9515 10.6621 18.6515 10.0652C19.2315 9.64322 19.7815 9.34477 20.2015 9.14923H20.2115ZM15.0115 8.39794C15.9715 9.37564 17.7615 11.5883 17.7615 14.6244C17.7615 17.6604 16.0115 20.2024 15.0115 21.4168C14.0115 20.2024 12.2615 17.6398 12.2615 14.6244C12.2615 11.6089 14.0515 9.37564 15.0115 8.39794ZM9.81151 9.14923C10.2315 9.34477 10.7715 9.64322 11.3615 10.0652C11.0615 10.6621 10.8115 11.3208 10.6115 12.0309C10.0915 11.7324 9.58151 11.4957 9.06151 11.3105C9.27151 10.4048 9.56151 9.65352 9.80151 9.14923H9.81151ZM5.02151 12.6792C6.13151 12.669 8.37151 12.8748 10.2815 14.2642C10.2815 14.3877 10.2615 14.5111 10.2615 14.6346C10.2615 17.578 11.5615 20.0892 12.7015 21.7256C11.0915 21.4271 8.95151 20.7376 7.35151 19.0909C5.26151 16.94 5.00151 14.0686 5.02151 12.6792ZM22.6815 19.0909C21.0815 20.7376 18.9415 21.4271 17.3315 21.7153C18.4615 20.0892 19.7715 17.578 19.7715 14.6346C19.7715 14.5111 19.7615 14.3877 19.7515 14.2642C21.6615 12.8851 23.8515 12.669 25.0115 12.6792C25.0115 14.0686 24.7615 16.94 22.6815 19.0909Z" fill="currentcolor"/>
</symbol>
</svg>
