<svg xmlns='http://www.w3.org/2000/svg' viewBox='0 0 30 30' fill='none'>
<symbol id='Stroller'>
<path d="M23.42 19.837C23.09 19.837 22.79 19.897 22.49 19.9771L21.23 17.7962H23.8C25.55 17.7962 26.98 16.3656 26.98 14.6148V11.8937C26.98 7.97207 24.47 4.56065 20.72 3.40017C20.26 3.26011 19.77 3.46019 19.54 3.89037L15.83 10.8933H10.56L7.95 4.62068C7.54 3.64027 6.61 3 5.58 3H4C3.45 3 3 3.45019 3 4.00042C3 4.55065 3.45 5.00083 4 5.00083H5.58C5.8 5.00083 6.01 5.1509 6.1 5.38099L8.39 10.8933H7.9C7.35 10.8933 6.9 11.3435 6.9 11.8937V14.6148C6.9 16.3656 8.33 17.7962 10.08 17.7962H12.65L11.39 19.9771C11.09 19.897 10.78 19.837 10.46 19.837C8.49 19.837 6.88 21.4477 6.88 23.4185C6.88 25.3893 8.49 27 10.46 27C12.08 27 13.44 25.9095 13.88 24.4189H20C20.44 25.9095 21.8 27 23.42 27C25.39 27 27 25.3893 27 23.4185C27 21.4477 25.39 19.837 23.42 19.837ZM20.9 5.59108C23.07 6.55148 24.57 8.54231 24.91 10.8833H18.1L20.9 5.59108ZM8.91 14.6048V12.8841H9.89H24.97V14.6048C24.97 15.2551 24.44 15.7853 23.79 15.7853H10.08C9.43 15.7853 8.9 15.2551 8.9 14.6048H8.91ZM18.93 17.7862L20.79 21.0175C20.43 21.4177 20.17 21.8879 20.01 22.4181H13.89C13.74 21.8879 13.47 21.4177 13.11 21.0175L14.97 17.7862H18.93ZM10.47 24.9892C9.6 24.9892 8.89 24.2789 8.89 23.4085C8.89 22.5381 9.6 21.8278 10.47 21.8278C11.34 21.8278 12.05 22.5381 12.05 23.4085C12.05 24.2789 11.34 24.9892 10.47 24.9892ZM23.42 24.9892C22.55 24.9892 21.84 24.2789 21.84 23.4085C21.84 22.5381 22.55 21.8278 23.42 21.8278C24.29 21.8278 25 22.5381 25 23.4085C25 24.2789 24.29 24.9892 23.42 24.9892Z" fill="currentcolor"/>
</symbol>
</svg>
