<svg xmlns='http://www.w3.org/2000/svg' viewBox='0 0 30 30' fill='none'>
<symbol id='VideoSurveillance'>
<path fill-rule="evenodd" clip-rule="evenodd" d="M24.9917 6.67874C24.9917 6.12896 25.4413 5.67914 25.9908 5.67914H26.0008C26.5504 5.67914 27 6.12896 27 6.67874V15.8951C27 16.4449 26.5504 16.8947 26.0008 16.8947C25.4513 16.8947 25.0017 16.4449 25.0017 15.8951V13.2162H21.4946C21.1149 13.2162 20.7752 13.0062 20.6053 12.6664L19.5762 10.5972L16.5787 11.5668C16.3989 11.6268 16.209 11.6568 16.0292 11.6568C15.4896 11.6568 14.99 11.3969 14.6503 10.987C14.5404 11.197 14.3406 11.3769 14.0908 11.4569C13.9909 11.4868 13.881 11.5068 13.781 11.5068C13.3614 11.5068 12.9717 11.2369 12.8318 10.8171L11.9326 8.0482C11.7627 7.51841 12.0525 6.95863 12.572 6.7887C12.8118 6.70873 13.0516 6.73872 13.2615 6.82869C13.2615 6.5488 13.3214 6.26891 13.4513 6.01901C13.6611 5.58918 14.0308 5.2793 14.4904 5.12936L20.7752 3.09016C21.7244 2.78029 22.7336 3.30008 23.0333 4.23971L24.0125 7.25852C24.3122 8.19814 23.8027 9.21774 22.8635 9.51762L21.4846 9.96744L22.1041 11.217H24.9917V6.67874ZM15.3098 6.96863L16.1591 9.59759L22.0541 7.67835L21.2048 5.04939L15.3098 6.96863ZM22.6336 18.3739C24.3022 18.3739 25.791 19.4435 26.3305 21.0229L26.3405 21.0329L26.8501 22.5323C27.0399 23.102 26.95 23.7418 26.6003 24.2316C26.2506 24.7214 25.6811 25.0113 25.0816 25.0113H23.4329C23.0133 26.1708 21.9342 27.0005 20.6353 27.0005C19.3364 27.0005 18.2473 26.1608 17.8376 25.0113H11.3231C10.9134 26.1708 9.8243 27.0005 8.52539 27.0005C7.22647 27.0005 6.13738 26.1608 5.72772 25.0113H4.4388C3.64946 25.0113 3 24.3615 3 23.5618V21.3327C3 19.8733 4.04912 18.6638 5.43796 18.4239L7.62614 15.8049C8.10574 15.1452 8.93505 14.7253 9.80432 14.7253H16.9484C17.7577 14.7253 18.527 15.0752 19.0466 15.705L21.2747 18.3739H22.6336ZM18.6769 18.3839L17.5179 16.9944C17.378 16.8245 17.1682 16.7246 16.9484 16.7246H14.2406V18.3839H18.6769ZM12.2523 16.7246H9.80432C9.56452 16.7246 9.3447 16.8445 9.20482 17.0344L8.08575 18.3839H12.2523V16.7246ZM7.53621 24.0017C7.53621 24.5515 7.98584 24.9913 8.52539 24.9913V24.9813C9.05494 24.9813 9.48459 24.5615 9.50457 24.0317V23.9617C9.48459 23.4419 9.07493 23.0121 8.52539 23.0121C7.97585 23.0121 7.53621 23.4519 7.53621 24.0017ZM19.6361 24.0017C19.6361 24.5515 20.0857 24.9913 20.6253 24.9913C21.1748 24.9913 21.6145 24.5515 21.6145 24.0017C21.6145 23.4519 21.1748 23.0121 20.6253 23.0121C20.0757 23.0121 19.6361 23.4519 19.6361 24.0017ZM20.6253 21.0129C21.9242 21.0129 23.0133 21.8525 23.4229 23.0021V23.0121H24.8917L24.4321 21.6826C24.1723 20.9029 23.4429 20.3831 22.6236 20.3831H20.6153H5.93755C5.41798 20.3831 4.98834 20.8029 4.98834 21.3327V23.0021H5.71773C6.13738 21.8425 7.22647 21.0129 8.5154 21.0129C9.80432 21.0129 10.9034 21.8525 11.3131 23.0021H17.8276C18.2473 21.8425 19.3264 21.0129 20.6253 21.0129Z" fill="currentcolor"/>
</symbol>
</svg>
