<svg xmlns='http://www.w3.org/2000/svg' viewBox='0 0 30 30' fill='none'>
<symbol id='WelcomeGift'>
<g clip-path="url(#clip0_3111_4396)">
<path d="M24.48 8.28987H21.49C21.68 7.73457 21.73 7.13961 21.63 6.57439C21.37 5.07706 20.07 3.73839 18.1 4.07553C16.56 4.34327 15.61 5.32496 15.03 6.36615C14.42 5.2853 13.43 4.26394 11.82 4.03587C9.83 3.75822 8.58 5.13656 8.36 6.6438C8.28 7.18919 8.34 7.76432 8.53 8.28987H5.52C4.13 8.28987 3 9.41039 3 10.7887V12.534C3 13.4462 3.5 14.2296 4.23 14.6659V23.5805C4.23 24.9092 5.32 26 6.67 26H23.33C24.67 26 25.77 24.9191 25.77 23.5805V14.6659C26.5 14.2296 27 13.4363 27 12.534V10.7887C27 9.41039 25.87 8.28987 24.48 8.28987ZM25 10.7887V12.534C25 12.8215 24.77 13.0496 24.48 13.0496H16V10.283H24.48C24.77 10.283 25 10.5111 25 10.7986V10.7887ZM18.43 6.029C19.38 5.87035 19.6 6.59422 19.65 6.91154C19.72 7.31809 19.64 8.10146 18.87 8.28987H16.36C16.65 7.37759 17.24 6.22733 18.43 6.029ZM10.33 6.92145C10.38 6.60414 10.6 5.87035 11.53 5.99926C12.76 6.16783 13.39 7.36767 13.7 8.28987H11.21C10.38 8.15105 10.27 7.33793 10.33 6.92145ZM5 10.7887C5 10.5012 5.23 10.2731 5.52 10.2731H14V13.0397H5.52C5.23 13.0397 5 12.8116 5 12.524V10.7788V10.7887ZM6.23 23.5805V15.0229H14V24.0168H6.67C6.43 24.0168 6.23 23.8185 6.23 23.5805ZM23.33 24.0168H16V15.0229H23.77V23.5805C23.77 23.8185 23.57 24.0168 23.33 24.0168Z" fill="currentcolor"/>
</g>
<defs>
<clipPath id="clip0_3111_4396">
<rect width="30" height="30" fill="white"/>
</clipPath>
</defs>
</symbol>
</svg>
